<?xml version="1.0" encoding="UTF-8" standalone="no"?>
<!DOCTYPE svg PUBLIC "-//W3C//DTD SVG 1.1//EN"
 "http://www.w3.org/Graphics/SVG/1.1/DTD/svg11.dtd">
<!-- Generated by graphviz version 2.43.0 (0)
 -->
<!-- Title: Arduino Filters Pages: 1 -->
<svg width="259pt" height="64pt"
 viewBox="0.00 0.00 259.00 64.00" xmlns="http://www.w3.org/2000/svg" xmlns:xlink="http://www.w3.org/1999/xlink">
<g id="graph0" class="graph" transform="scale(1 1) rotate(0) translate(4 60)">
<title>Arduino Filters</title>
<polygon fill="white" stroke="transparent" points="-4,4 -4,-60 255,-60 255,4 -4,4"/>
<!-- Node2 -->
<g id="node1" class="node">
<title>Node2</title>
<g id="a_node1"><a xlink:href="../../de/da4/group__FilterDesign.html" target="_top" xlink:title="Filter design tools.">
<polygon fill="white" stroke="black" points="226,-56 148,-56 148,-37 226,-37 226,-56"/>
<text text-anchor="middle" x="187" y="-44" font-family="Helvetica,sans-Serif" font-size="10.00">Filter Design</text>
</a>
</g>
</g>
<!-- Node3 -->
<g id="node2" class="node">
<title>Node3</title>
<g id="a_node2"><a xlink:href="../../d9/d28/group__FilterImplementations.html" target="_top" xlink:title="Different implementations.">
<polygon fill="white" stroke="black" points="251,-19 123,-19 123,0 251,0 251,-19"/>
<text text-anchor="middle" x="187" y="-7" font-family="Helvetica,sans-Serif" font-size="10.00">Filter Implementations</text>
</a>
</g>
</g>
<!-- Node1 -->
<g id="node3" class="node">
<title>Node1</title>
<g id="a_node3"><a xlink:title="Main module containing all filters and filter utilities.">
<polygon fill="#bfbfbf" stroke="black" points="87,-37 0,-37 0,-18 87,-18 87,-37"/>
<text text-anchor="middle" x="43.5" y="-25" font-family="Helvetica,sans-Serif" font-size="10.00">Arduino Filters</text>
</a>
</g>
</g>
<!-- Node1&#45;&gt;Node2 -->
<g id="edge1" class="edge">
<title>Node1&#45;&gt;Node2</title>
<path fill="none" stroke="black" d="M97.49,-34.62C114.14,-36.85 132.2,-39.28 147.64,-41.35"/>
<polygon fill="black" stroke="black" points="97.72,-31.11 87.34,-33.25 96.78,-38.05 97.72,-31.11"/>
</g>
<!-- Node1&#45;&gt;Node3 -->
<g id="edge2" class="edge">
<title>Node1&#45;&gt;Node3</title>
<path fill="none" stroke="black" d="M97.32,-20.78C105.67,-19.72 114.39,-18.61 122.95,-17.52"/>
<polygon fill="black" stroke="black" points="96.82,-17.32 87.34,-22.05 97.7,-24.26 96.82,-17.32"/>
</g>
</g>
</svg>
