<?xml version="1.0" encoding="UTF-8" standalone="no"?>
<!DOCTYPE svg PUBLIC "-//W3C//DTD SVG 1.1//EN"
 "http://www.w3.org/Graphics/SVG/1.1/DTD/svg11.dtd">
<!-- Generated by graphviz version 2.38.0 (20140413.2041)
 -->
<!-- Title: Arduino Filters Pages: 1 -->
<svg width="237pt" height="64pt"
 viewBox="0.00 0.00 237.00 64.00" xmlns="http://www.w3.org/2000/svg" xmlns:xlink="http://www.w3.org/1999/xlink">
<g id="graph0" class="graph" transform="scale(1 1) rotate(0) translate(4 60)">
<title>Arduino Filters</title>
<polygon fill="white" stroke="none" points="-4,4 -4,-60 233,-60 233,4 -4,4"/>
<!-- Node3 -->
<g id="node1" class="node"><title>Node3</title>
<g id="a_node1"><a xlink:href="../../de/da4/group__FilterDesign.html" target="_top" xlink:title="Filter design tools.">
<polygon fill="white" stroke="black" points="208.5,-56 136.5,-56 136.5,-37 208.5,-37 208.5,-56"/>
<text text-anchor="middle" x="172.5" y="-44" font-family="Helvetica,sans-Serif" font-size="10.00">Filter Design</text>
</a>
</g>
</g>
<!-- Node1 -->
<g id="node2" class="node"><title>Node1</title>
<g id="a_node2"><a xlink:title="Main module containing all filters and filter utilities.">
<polygon fill="#bfbfbf" stroke="black" points="80,-37 0,-37 0,-18 80,-18 80,-37"/>
<text text-anchor="middle" x="40" y="-25" font-family="Helvetica,sans-Serif" font-size="10.00">Arduino Filters</text>
</a>
</g>
</g>
<!-- Node1&#45;&gt;Node3 -->
<g id="edge2" class="edge"><title>Node1&#45;&gt;Node3</title>
<path fill="none" stroke="black" d="M90.05,-34.6414C105.45,-36.8835 122.135,-39.3128 136.37,-41.3853"/>
<polygon fill="black" stroke="black" points="90.5543,-31.178 80.1543,-33.2006 89.5457,-38.1049 90.5543,-31.178"/>
</g>
<!-- Node2 -->
<g id="node3" class="node"><title>Node2</title>
<g id="a_node3"><a xlink:href="../../d9/d28/group__FilterImplementations.html" target="_top" xlink:title="Different implementations.">
<polygon fill="white" stroke="black" points="229,-19 116,-19 116,-0 229,-0 229,-19"/>
<text text-anchor="middle" x="172.5" y="-7" font-family="Helvetica,sans-Serif" font-size="10.00">Filter Implementations</text>
</a>
</g>
</g>
<!-- Node1&#45;&gt;Node2 -->
<g id="edge1" class="edge"><title>Node1&#45;&gt;Node2</title>
<path fill="none" stroke="black" d="M90.1906,-20.7151C98.6065,-19.5543 107.403,-18.341 115.97,-17.1593"/>
<polygon fill="black" stroke="black" points="89.5823,-17.2658 80.1543,-22.0994 90.5388,-24.2001 89.5823,-17.2658"/>
</g>
</g>
</svg>
