<?xml version="1.0" encoding="UTF-8" standalone="no"?>
<!DOCTYPE svg PUBLIC "-//W3C//DTD SVG 1.1//EN"
 "http://www.w3.org/Graphics/SVG/1.1/DTD/svg11.dtd">
<!-- Generated by graphviz version 2.40.1 (20161225.0304)
 -->
<!-- Title: Arduino Filters Pages: 1 -->
<svg width="237pt" height="64pt"
 viewBox="0.00 0.00 237.00 64.00" xmlns="http://www.w3.org/2000/svg" xmlns:xlink="http://www.w3.org/1999/xlink">
<g id="graph0" class="graph" transform="scale(1 1) rotate(0) translate(4 60)">
<title>Arduino Filters</title>
<polygon fill="#ffffff" stroke="transparent" points="-4,4 -4,-60 233,-60 233,4 -4,4"/>
<!-- Node3 -->
<g id="node1" class="node">
<title>Node3</title>
<g id="a_node1"><a xlink:href="../../de/da4/group__FilterDesign.html" target="_top" xlink:title="Filter design tools.">
<polygon fill="#ffffff" stroke="#000000" points="208.5,-56 136.5,-56 136.5,-37 208.5,-37 208.5,-56"/>
<text text-anchor="middle" x="172.5" y="-44" font-family="Helvetica,sans-Serif" font-size="10.00" fill="#000000">Filter Design</text>
</a>
</g>
</g>
<!-- Node1 -->
<g id="node2" class="node">
<title>Node1</title>
<g id="a_node2"><a xlink:title="Main module containing all filters and filter utilities.">
<polygon fill="#bfbfbf" stroke="#000000" points="80,-37 0,-37 0,-18 80,-18 80,-37"/>
<text text-anchor="middle" x="40" y="-25" font-family="Helvetica,sans-Serif" font-size="10.00" fill="#000000">Arduino Filters</text>
</a>
</g>
</g>
<!-- Node1&#45;&gt;Node3 -->
<g id="edge2" class="edge">
<title>Node1&#45;&gt;Node3</title>
<path fill="none" stroke="#000000" d="M90.414,-34.7292C105.6264,-36.9106 122.0222,-39.2617 136.1309,-41.2848"/>
<polygon fill="#000000" stroke="#000000" points="90.5095,-31.2072 80.1139,-33.2522 89.5159,-38.1363 90.5095,-31.2072"/>
</g>
<!-- Node2 -->
<g id="node3" class="node">
<title>Node2</title>
<g id="a_node3"><a xlink:href="../../d9/d28/group__FilterImplementations.html" target="_top" xlink:title="Different implementations.">
<polygon fill="#ffffff" stroke="#000000" points="229,-19 116,-19 116,0 229,0 229,-19"/>
<text text-anchor="middle" x="172.5" y="-7" font-family="Helvetica,sans-Serif" font-size="10.00" fill="#000000">Filter Implementations</text>
</a>
</g>
</g>
<!-- Node1&#45;&gt;Node2 -->
<g id="edge1" class="edge">
<title>Node1&#45;&gt;Node2</title>
<path fill="none" stroke="#000000" d="M90.1515,-20.687C98.5628,-19.5443 107.3426,-18.3516 115.9027,-17.1887"/>
<polygon fill="#000000" stroke="#000000" points="89.5518,-17.2362 80.1139,-22.0506 90.4941,-24.1725 89.5518,-17.2362"/>
</g>
</g>
</svg>
