<?xml version="1.0" encoding="UTF-8" standalone="no"?>
<!DOCTYPE svg PUBLIC "-//W3C//DTD SVG 1.1//EN"
 "http://www.w3.org/Graphics/SVG/1.1/DTD/svg11.dtd">
<!-- Generated by graphviz version 2.43.0 (0)
 -->
<!-- Title: MultiPurposeButton.hpp Pages: 1 -->
<svg width="1617pt" height="845pt"
 viewBox="0.00 0.00 1616.52 845.00" xmlns="http://www.w3.org/2000/svg" xmlns:xlink="http://www.w3.org/1999/xlink">
<g id="graph0" class="graph" transform="scale(1 1) rotate(0) translate(4 841)">
<title>MultiPurposeButton.hpp</title>
<polygon fill="white" stroke="transparent" points="-4,4 -4,-841 1612.52,-841 1612.52,4 -4,4"/>
<!-- Node1 -->
<g id="node1" class="node">
<title>Node1</title>
<g id="a_node1"><a xlink:title=" ">
<polygon fill="#bfbfbf" stroke="black" points="0,-817.5 0,-836.5 134,-836.5 134,-817.5 0,-817.5"/>
<text text-anchor="middle" x="67" y="-824.5" font-family="Helvetica,sans-Serif" font-size="10.00">MultiPurposeButton.hpp</text>
</a>
</g>
</g>
<!-- Node2 -->
<g id="node2" class="node">
<title>Node2</title>
<g id="a_node2"><a xlink:href="../../d1/d65/Warnings_8hpp.html" target="_top" xlink:title=" ">
<polygon fill="white" stroke="black" points="511.5,-0.5 511.5,-19.5 654.5,-19.5 654.5,-0.5 511.5,-0.5"/>
<text text-anchor="middle" x="583" y="-7.5" font-family="Helvetica,sans-Serif" font-size="10.00">AH/Settings/Warnings.hpp</text>
</a>
</g>
</g>
<!-- Node1&#45;&gt;Node2 -->
<g id="edge1" class="edge">
<title>Node1&#45;&gt;Node2</title>
<path fill="none" stroke="midnightblue" d="M62.95,-817.23C54.54,-798.22 36,-751.61 36,-710.5 36,-710.5 36,-710.5 36,-121 36,-87.54 45.74,-73.92 74,-56 109.17,-33.71 366.49,-19.91 501.22,-14.14"/>
<polygon fill="midnightblue" stroke="midnightblue" points="501.65,-17.62 511.5,-13.7 501.36,-10.63 501.65,-17.62"/>
</g>
<!-- Node3 -->
<g id="node3" class="node">
<title>Node3</title>
<g id="a_node3"><a xlink:href="../../d4/db3/Button_8hpp.html" target="_top" xlink:title=" ">
<polygon fill="white" stroke="black" points="154,-761.5 154,-780.5 224,-780.5 224,-761.5 154,-761.5"/>
<text text-anchor="middle" x="189" y="-768.5" font-family="Helvetica,sans-Serif" font-size="10.00">Button.hpp</text>
</a>
</g>
</g>
<!-- Node1&#45;&gt;Node3 -->
<g id="edge2" class="edge">
<title>Node1&#45;&gt;Node3</title>
<path fill="none" stroke="midnightblue" d="M86.33,-817.44C106.32,-808.6 137.74,-794.69 160.56,-784.59"/>
<polygon fill="midnightblue" stroke="midnightblue" points="162.03,-787.76 169.76,-780.52 159.2,-781.36 162.03,-787.76"/>
</g>
<!-- Node3&#45;&gt;Node2 -->
<g id="edge3" class="edge">
<title>Node3&#45;&gt;Node2</title>
<path fill="none" stroke="midnightblue" d="M172.03,-761.47C140.04,-744.04 74,-701.08 74,-643.5 74,-643.5 74,-643.5 74,-121 74,-90.9 69.77,-75.14 93,-56 123.77,-30.66 370.12,-18.35 501.35,-13.54"/>
<polygon fill="midnightblue" stroke="midnightblue" points="501.5,-17.04 511.37,-13.18 501.25,-10.04 501.5,-17.04"/>
</g>
<!-- Node4 -->
<g id="node4" class="node">
<title>Node4</title>
<g id="a_node4"><a xlink:href="../../dd/ddf/ExtendedInputOutput_8hpp.html" target="_top" xlink:title=" ">
<polygon fill="white" stroke="black" points="1164.5,-694.5 1164.5,-724.5 1341.5,-724.5 1341.5,-694.5 1164.5,-694.5"/>
<text text-anchor="start" x="1172.5" y="-712.5" font-family="Helvetica,sans-Serif" font-size="10.00">AH/Hardware/ExtendedInput</text>
<text text-anchor="middle" x="1253" y="-701.5" font-family="Helvetica,sans-Serif" font-size="10.00">Output/ExtendedInputOutput.hpp</text>
</a>
</g>
</g>
<!-- Node3&#45;&gt;Node4 -->
<g id="edge4" class="edge">
<title>Node3&#45;&gt;Node4</title>
<path fill="none" stroke="midnightblue" d="M224.1,-768.04C369.21,-759.92 925.4,-728.82 1154,-716.04"/>
<polygon fill="midnightblue" stroke="midnightblue" points="1154.52,-719.51 1164.31,-715.46 1154.13,-712.52 1154.52,-719.51"/>
</g>
<!-- Node17 -->
<g id="node17" class="node">
<title>Node17</title>
<g id="a_node17"><a xlink:href="../../d2/dd5/SettingsWrapper_8hpp.html" target="_top" xlink:title=" ">
<polygon fill="white" stroke="black" points="456,-336.5 456,-355.5 634,-355.5 634,-336.5 456,-336.5"/>
<text text-anchor="middle" x="545" y="-343.5" font-family="Helvetica,sans-Serif" font-size="10.00">AH/Settings/SettingsWrapper.hpp</text>
</a>
</g>
</g>
<!-- Node3&#45;&gt;Node17 -->
<g id="edge56" class="edge">
<title>Node3&#45;&gt;Node17</title>
<path fill="none" stroke="midnightblue" d="M196.44,-761.17C240.87,-708.37 471.34,-434.52 530.93,-363.72"/>
<polygon fill="midnightblue" stroke="midnightblue" points="533.84,-365.69 537.61,-355.79 528.49,-361.18 533.84,-365.69"/>
</g>
<!-- Node4&#45;&gt;Node2 -->
<g id="edge55" class="edge">
<title>Node4&#45;&gt;Node2</title>
<path fill="none" stroke="midnightblue" d="M1320.03,-694.45C1341.27,-686.91 1363.08,-675.43 1378,-658 1402.19,-629.74 1397,-613.69 1397,-576.5 1397,-576.5 1397,-576.5 1397,-121 1397,-62.29 1338.27,-72.75 1282,-56 1168.6,-22.24 823.69,-13.8 664.77,-11.7"/>
<polygon fill="midnightblue" stroke="midnightblue" points="664.61,-8.2 654.57,-11.57 664.53,-15.19 664.61,-8.2"/>
</g>
<!-- Node5 -->
<g id="node5" class="node">
<title>Node5</title>
<g id="a_node5"><a xlink:href="../../d2/d3c/Arduino-Hardware-Types_8hpp.html" target="_top" xlink:title=" ">
<polygon fill="white" stroke="black" points="1080,-627.5 1080,-657.5 1202,-657.5 1202,-627.5 1080,-627.5"/>
<text text-anchor="start" x="1088" y="-645.5" font-family="Helvetica,sans-Serif" font-size="10.00">AH/Hardware/Arduino</text>
<text text-anchor="middle" x="1141" y="-634.5" font-family="Helvetica,sans-Serif" font-size="10.00">&#45;Hardware&#45;Types.hpp</text>
</a>
</g>
</g>
<!-- Node4&#45;&gt;Node5 -->
<g id="edge5" class="edge">
<title>Node4&#45;&gt;Node5</title>
<path fill="none" stroke="midnightblue" d="M1228.7,-694.4C1212.7,-685.11 1191.56,-672.84 1174.04,-662.67"/>
<polygon fill="midnightblue" stroke="midnightblue" points="1175.66,-659.57 1165.25,-657.58 1172.15,-665.62 1175.66,-659.57"/>
</g>
<!-- Node11 -->
<g id="node11" class="node">
<title>Node11</title>
<g id="a_node11"><a xlink:href="../../dc/dc7/NamespaceSettings_8hpp.html" target="_top" xlink:title=" ">
<polygon fill="white" stroke="black" points="857.5,-56.5 857.5,-75.5 1052.5,-75.5 1052.5,-56.5 857.5,-56.5"/>
<text text-anchor="middle" x="955" y="-63.5" font-family="Helvetica,sans-Serif" font-size="10.00">AH/Settings/NamespaceSettings.hpp</text>
</a>
</g>
</g>
<!-- Node4&#45;&gt;Node11 -->
<g id="edge54" class="edge">
<title>Node4&#45;&gt;Node11</title>
<path fill="none" stroke="midnightblue" d="M1256.8,-694.05C1264.87,-662.05 1283,-582.65 1283,-515 1283,-515 1283,-515 1283,-233 1283,-198.84 1268.41,-189.66 1242,-168 1207.41,-139.63 1189.03,-149.82 1148,-132 1129.4,-123.92 1125.9,-119.35 1107,-112 1071.63,-98.25 1030.25,-86.25 999.61,-78.11"/>
<polygon fill="midnightblue" stroke="midnightblue" points="1000.21,-74.65 989.65,-75.5 998.44,-81.42 1000.21,-74.65"/>
</g>
<!-- Node29 -->
<g id="node29" class="node">
<title>Node29</title>
<g id="a_node29"><a xlink:title=" ">
<polygon fill="white" stroke="#bfbfbf" points="1281.5,-633 1281.5,-652 1368.5,-652 1368.5,-633 1281.5,-633"/>
<text text-anchor="middle" x="1325" y="-640" font-family="Helvetica,sans-Serif" font-size="10.00">AH/STL/climits</text>
</a>
</g>
</g>
<!-- Node4&#45;&gt;Node29 -->
<g id="edge53" class="edge">
<title>Node4&#45;&gt;Node29</title>
<path fill="none" stroke="midnightblue" d="M1268.62,-694.4C1280.18,-683.96 1295.92,-669.75 1307.83,-659"/>
<polygon fill="midnightblue" stroke="midnightblue" points="1310.29,-661.49 1315.37,-652.19 1305.6,-656.3 1310.29,-661.49"/>
</g>
<!-- Node5&#45;&gt;Node2 -->
<g id="edge6" class="edge">
<title>Node5&#45;&gt;Node2</title>
<path fill="none" stroke="midnightblue" d="M1079.73,-638.08C894.98,-626.95 356,-588.21 356,-515 356,-515 356,-515 356,-121 356,-54.25 436.47,-27.99 501.59,-17.67"/>
<polygon fill="midnightblue" stroke="midnightblue" points="502.11,-21.13 511.49,-16.2 501.08,-14.21 502.11,-21.13"/>
</g>
<!-- Node6 -->
<g id="node6" class="node">
<title>Node6</title>
<g id="a_node6"><a xlink:href="../../d4/d35/Hardware-Types_8hpp.html" target="_top" xlink:title=" ">
<polygon fill="white" stroke="black" points="1075.5,-560.5 1075.5,-590.5 1206.5,-590.5 1206.5,-560.5 1075.5,-560.5"/>
<text text-anchor="start" x="1083.5" y="-578.5" font-family="Helvetica,sans-Serif" font-size="10.00">AH/Hardware/Hardware</text>
<text text-anchor="middle" x="1141" y="-567.5" font-family="Helvetica,sans-Serif" font-size="10.00">&#45;Types.hpp</text>
</a>
</g>
</g>
<!-- Node5&#45;&gt;Node6 -->
<g id="edge7" class="edge">
<title>Node5&#45;&gt;Node6</title>
<path fill="none" stroke="midnightblue" d="M1141,-627.4C1141,-619.64 1141,-609.81 1141,-600.86"/>
<polygon fill="midnightblue" stroke="midnightblue" points="1144.5,-600.58 1141,-590.58 1137.5,-600.58 1144.5,-600.58"/>
</g>
<!-- Node12 -->
<g id="node12" class="node">
<title>Node12</title>
<g id="a_node12"><a xlink:href="../../d6/ddf/Arduino-Wrapper_8h.html" target="_top" xlink:title=" ">
<polygon fill="white" stroke="black" points="1093,-168.5 1093,-187.5 1217,-187.5 1217,-168.5 1093,-168.5"/>
<text text-anchor="middle" x="1155" y="-175.5" font-family="Helvetica,sans-Serif" font-size="10.00">AH/Arduino&#45;Wrapper.h</text>
</a>
</g>
</g>
<!-- Node5&#45;&gt;Node12 -->
<g id="edge52" class="edge">
<title>Node5&#45;&gt;Node12</title>
<path fill="none" stroke="midnightblue" d="M1170.23,-627.43C1185.63,-618.76 1203.79,-606.36 1216,-591 1238.49,-562.69 1245,-551.15 1245,-515 1245,-515 1245,-515 1245,-401 1245,-319.3 1192,-232.26 1167.35,-196.19"/>
<polygon fill="midnightblue" stroke="midnightblue" points="1170.07,-193.97 1161.47,-187.78 1164.33,-197.98 1170.07,-193.97"/>
</g>
<!-- Node26 -->
<g id="node26" class="node">
<title>Node26</title>
<g id="a_node26"><a xlink:href="../../d0/db1/FunctionTraits_8hpp.html" target="_top" xlink:title=" ">
<polygon fill="white" stroke="black" points="174.5,-112.5 174.5,-131.5 327.5,-131.5 327.5,-112.5 174.5,-112.5"/>
<text text-anchor="middle" x="251" y="-119.5" font-family="Helvetica,sans-Serif" font-size="10.00">AH/Types/FunctionTraits.hpp</text>
</a>
</g>
</g>
<!-- Node5&#45;&gt;Node26 -->
<g id="edge47" class="edge">
<title>Node5&#45;&gt;Node26</title>
<path fill="none" stroke="midnightblue" d="M1079.71,-641.55C902.7,-641.17 399.6,-636.08 342,-591 314.1,-569.17 318,-550.42 318,-515 318,-515 318,-515 318,-233 318,-194.7 288.01,-158.42 268.16,-138.59"/>
<polygon fill="midnightblue" stroke="midnightblue" points="270.52,-136 260.89,-131.6 265.67,-141.05 270.52,-136"/>
</g>
<!-- Node6&#45;&gt;Node2 -->
<g id="edge8" class="edge">
<title>Node6&#45;&gt;Node2</title>
<path fill="none" stroke="midnightblue" d="M1155.98,-560.29C1205.24,-511.96 1359,-347.57 1359,-179 1359,-179 1359,-179 1359,-121 1359,-44.66 1274.33,-73.44 1200,-56 1100.57,-32.67 808.34,-19.17 664.66,-13.77"/>
<polygon fill="midnightblue" stroke="midnightblue" points="664.7,-10.27 654.57,-13.39 664.44,-17.26 664.7,-10.27"/>
</g>
<!-- Node7 -->
<g id="node7" class="node">
<title>Node7</title>
<g id="a_node7"><a xlink:href="../../de/d76/Array_8hpp.html" target="_top" xlink:title=" ">
<polygon fill="white" stroke="black" points="940.5,-504.5 940.5,-523.5 1075.5,-523.5 1075.5,-504.5 940.5,-504.5"/>
<text text-anchor="middle" x="1008" y="-511.5" font-family="Helvetica,sans-Serif" font-size="10.00">AH/Containers/Array.hpp</text>
</a>
</g>
</g>
<!-- Node6&#45;&gt;Node7 -->
<g id="edge9" class="edge">
<title>Node6&#45;&gt;Node7</title>
<path fill="none" stroke="midnightblue" d="M1109.48,-560.4C1087.36,-550.51 1058.03,-537.38 1036.59,-527.79"/>
<polygon fill="midnightblue" stroke="midnightblue" points="1037.91,-524.55 1027.35,-523.66 1035.05,-530.94 1037.91,-524.55"/>
</g>
<!-- Node6&#45;&gt;Node11 -->
<g id="edge45" class="edge">
<title>Node6&#45;&gt;Node11</title>
<path fill="none" stroke="midnightblue" d="M1145.22,-560.42C1165.37,-492.53 1249.95,-200.95 1226,-168 1195.5,-126.05 1163.27,-150.97 1115,-132 1095.38,-124.29 1091.4,-120.23 1072,-112 1043.95,-100.1 1011.59,-87.76 988.02,-79.01"/>
<polygon fill="midnightblue" stroke="midnightblue" points="989.09,-75.68 978.5,-75.5 986.67,-82.25 989.09,-75.68"/>
</g>
<!-- Node23 -->
<g id="node23" class="node">
<title>Node23</title>
<g id="a_node23"><a xlink:title=" ">
<polygon fill="white" stroke="#bfbfbf" points="896.5,-224.5 896.5,-243.5 949.5,-243.5 949.5,-224.5 896.5,-224.5"/>
<text text-anchor="middle" x="923" y="-231.5" font-family="Helvetica,sans-Serif" font-size="10.00">stdint.h</text>
</a>
</g>
</g>
<!-- Node6&#45;&gt;Node23 -->
<g id="edge46" class="edge">
<title>Node6&#45;&gt;Node23</title>
<path fill="none" stroke="midnightblue" d="M1138.98,-560.31C1136.05,-538.55 1131,-495.63 1131,-459 1131,-459 1131,-459 1131,-401 1131,-314.31 1019.25,-265.52 959.57,-245.64"/>
<polygon fill="midnightblue" stroke="midnightblue" points="960.36,-242.22 949.77,-242.48 958.21,-248.88 960.36,-242.22"/>
</g>
<!-- Node7&#45;&gt;Node2 -->
<g id="edge10" class="edge">
<title>Node7&#45;&gt;Node2</title>
<path fill="none" stroke="midnightblue" d="M1019.51,-504.3C1075.98,-461.2 1321,-269 1321,-179 1321,-179 1321,-179 1321,-121 1321,-55.26 856.98,-24.61 664.82,-14.74"/>
<polygon fill="midnightblue" stroke="midnightblue" points="664.93,-11.24 654.77,-14.23 664.58,-18.23 664.93,-11.24"/>
</g>
<!-- Node8 -->
<g id="node8" class="node">
<title>Node8</title>
<g id="a_node8"><a xlink:href="../../d1/d93/Error_8hpp.html" target="_top" xlink:title=" ">
<polygon fill="white" stroke="black" points="551,-448.5 551,-467.5 655,-467.5 655,-448.5 551,-448.5"/>
<text text-anchor="middle" x="603" y="-455.5" font-family="Helvetica,sans-Serif" font-size="10.00">AH/Error/Error.hpp</text>
</a>
</g>
</g>
<!-- Node7&#45;&gt;Node8 -->
<g id="edge11" class="edge">
<title>Node7&#45;&gt;Node8</title>
<path fill="none" stroke="midnightblue" d="M943.83,-504.44C867.56,-494.28 741.16,-477.42 665.6,-467.35"/>
<polygon fill="midnightblue" stroke="midnightblue" points="665.66,-463.82 655.28,-465.97 664.73,-470.76 665.66,-463.82"/>
</g>
<!-- Node16 -->
<g id="node16" class="node">
<title>Node16</title>
<g id="a_node16"><a xlink:title=" ">
<polygon fill="white" stroke="#bfbfbf" points="955.5,-112.5 955.5,-131.5 1062.5,-131.5 1062.5,-112.5 955.5,-112.5"/>
<text text-anchor="middle" x="1009" y="-119.5" font-family="Helvetica,sans-Serif" font-size="10.00">AH/STL/type_traits</text>
</a>
</g>
</g>
<!-- Node7&#45;&gt;Node16 -->
<g id="edge43" class="edge">
<title>Node7&#45;&gt;Node16</title>
<path fill="none" stroke="midnightblue" d="M1013.81,-504.17C1019.64,-495.19 1028.77,-480.82 1036,-468 1049.72,-443.68 1143.49,-271.16 1150,-244 1152.07,-235.36 1154.54,-231.64 1150,-224 1132.94,-195.27 1111.45,-207.05 1084,-188 1062.26,-172.91 1039.62,-152.54 1024.97,-138.65"/>
<polygon fill="midnightblue" stroke="midnightblue" points="1027.35,-136.08 1017.72,-131.67 1022.5,-141.13 1027.35,-136.08"/>
</g>
<!-- Node22 -->
<g id="node22" class="node">
<title>Node22</title>
<g id="a_node22"><a xlink:title=" ">
<polygon fill="white" stroke="#bfbfbf" points="784,-224.5 784,-243.5 840,-243.5 840,-224.5 784,-224.5"/>
<text text-anchor="middle" x="812" y="-231.5" font-family="Helvetica,sans-Serif" font-size="10.00">stddef.h</text>
</a>
</g>
</g>
<!-- Node7&#45;&gt;Node22 -->
<g id="edge44" class="edge">
<title>Node7&#45;&gt;Node22</title>
<path fill="none" stroke="midnightblue" d="M952.65,-504.47C897.51,-492.46 821,-464.68 821,-403 821,-403 821,-403 821,-345 821,-312.84 817.13,-275.57 814.47,-253.71"/>
<polygon fill="midnightblue" stroke="midnightblue" points="817.91,-253.02 813.18,-243.54 810.96,-253.9 817.91,-253.02"/>
</g>
<!-- Node25 -->
<g id="node25" class="node">
<title>Node25</title>
<g id="a_node25"><a xlink:title=" ">
<polygon fill="white" stroke="#bfbfbf" points="937,-448.5 937,-467.5 1027,-467.5 1027,-448.5 937,-448.5"/>
<text text-anchor="middle" x="982" y="-455.5" font-family="Helvetica,sans-Serif" font-size="10.00">AH/STL/iterator</text>
</a>
</g>
</g>
<!-- Node7&#45;&gt;Node25 -->
<g id="edge42" class="edge">
<title>Node7&#45;&gt;Node25</title>
<path fill="none" stroke="midnightblue" d="M1003.71,-504.08C1000.15,-496.69 994.98,-485.95 990.58,-476.81"/>
<polygon fill="midnightblue" stroke="midnightblue" points="993.71,-475.24 986.21,-467.75 987.4,-478.28 993.71,-475.24"/>
</g>
<!-- Node8&#45;&gt;Node2 -->
<g id="edge12" class="edge">
<title>Node8&#45;&gt;Node2</title>
<path fill="none" stroke="midnightblue" d="M550.8,-452.1C488.9,-443.09 394,-417.73 394,-347 394,-347 394,-347 394,-121 394,-62.74 461.91,-34.8 516.31,-21.77"/>
<polygon fill="midnightblue" stroke="midnightblue" points="517.32,-25.13 526.29,-19.5 515.77,-18.3 517.32,-25.13"/>
</g>
<!-- Node9 -->
<g id="node9" class="node">
<title>Node9</title>
<g id="a_node9"><a xlink:href="../../df/dee/Debug_8hpp.html" target="_top" xlink:title=" ">
<polygon fill="white" stroke="black" points="542.5,-392.5 542.5,-411.5 663.5,-411.5 663.5,-392.5 542.5,-392.5"/>
<text text-anchor="middle" x="603" y="-399.5" font-family="Helvetica,sans-Serif" font-size="10.00">AH/Debug/Debug.hpp</text>
</a>
</g>
</g>
<!-- Node8&#45;&gt;Node9 -->
<g id="edge13" class="edge">
<title>Node8&#45;&gt;Node9</title>
<path fill="none" stroke="midnightblue" d="M603,-448.08C603,-441.01 603,-430.86 603,-421.99"/>
<polygon fill="midnightblue" stroke="midnightblue" points="606.5,-421.75 603,-411.75 599.5,-421.75 606.5,-421.75"/>
</g>
<!-- Node9&#45;&gt;Node2 -->
<g id="edge14" class="edge">
<title>Node9&#45;&gt;Node2</title>
<path fill="none" stroke="midnightblue" d="M614.27,-392.43C623.97,-384.27 637.28,-371.05 643,-356 655,-324.43 663.97,-306.48 643,-280 599.63,-225.24 541.03,-291.7 490,-244 467.92,-223.36 470,-209.23 470,-179 470,-179 470,-179 470,-121 470,-74.4 519.95,-41.14 553.43,-24.08"/>
<polygon fill="midnightblue" stroke="midnightblue" points="555.35,-27.04 562.8,-19.51 552.28,-20.75 555.35,-27.04"/>
</g>
<!-- Node10 -->
<g id="node10" class="node">
<title>Node10</title>
<g id="a_node10"><a xlink:href="../../dd/d80/PrintStream_8hpp.html" target="_top" xlink:title=" ">
<polygon fill="white" stroke="black" points="967.5,-224.5 967.5,-243.5 1140.5,-243.5 1140.5,-224.5 967.5,-224.5"/>
<text text-anchor="middle" x="1054" y="-231.5" font-family="Helvetica,sans-Serif" font-size="10.00">AH/PrintStream/PrintStream.hpp</text>
</a>
</g>
</g>
<!-- Node9&#45;&gt;Node10 -->
<g id="edge15" class="edge">
<title>Node9&#45;&gt;Node10</title>
<path fill="none" stroke="midnightblue" d="M626.93,-392.47C675.22,-375.21 787.79,-334.85 882,-300 931.05,-281.85 987.76,-260.31 1022.24,-247.15"/>
<polygon fill="midnightblue" stroke="midnightblue" points="1023.68,-250.35 1031.77,-243.51 1021.18,-243.81 1023.68,-250.35"/>
</g>
<!-- Node9&#45;&gt;Node17 -->
<g id="edge27" class="edge">
<title>Node9&#45;&gt;Node17</title>
<path fill="none" stroke="midnightblue" d="M588.57,-392.32C578.47,-384.5 565.51,-372.78 556.18,-363.22"/>
<polygon fill="midnightblue" stroke="midnightblue" points="558.7,-360.8 549.34,-355.83 553.56,-365.55 558.7,-360.8"/>
</g>
<!-- Node10&#45;&gt;Node2 -->
<g id="edge17" class="edge">
<title>Node10&#45;&gt;Node2</title>
<path fill="none" stroke="midnightblue" d="M1035.82,-224.43C963.63,-190.4 696.85,-64.66 610.3,-23.87"/>
<polygon fill="midnightblue" stroke="midnightblue" points="611.66,-20.64 601.12,-19.54 608.67,-26.97 611.66,-20.64"/>
</g>
<!-- Node10&#45;&gt;Node11 -->
<g id="edge16" class="edge">
<title>Node10&#45;&gt;Node11</title>
<path fill="none" stroke="midnightblue" d="M1038.59,-224.26C1013.77,-209.18 965.81,-175.63 947,-132 940.61,-117.17 943.77,-98.79 947.85,-85.36"/>
<polygon fill="midnightblue" stroke="midnightblue" points="951.19,-86.41 951.16,-75.82 944.58,-84.12 951.19,-86.41"/>
</g>
<!-- Node10&#45;&gt;Node12 -->
<g id="edge18" class="edge">
<title>Node10&#45;&gt;Node12</title>
<path fill="none" stroke="midnightblue" d="M1070.23,-224.32C1086.35,-215.7 1111.3,-202.36 1129.96,-192.39"/>
<polygon fill="midnightblue" stroke="midnightblue" points="1131.64,-195.46 1138.81,-187.65 1128.34,-189.28 1131.64,-195.46"/>
</g>
<!-- Node13 -->
<g id="node13" class="node">
<title>Node13</title>
<g id="a_node13"><a xlink:href="../../d7/d79/MinMaxFix_8hpp.html" target="_top" xlink:title=" ">
<polygon fill="white" stroke="black" points="1157,-112.5 1157,-131.5 1293,-131.5 1293,-112.5 1157,-112.5"/>
<text text-anchor="middle" x="1225" y="-119.5" font-family="Helvetica,sans-Serif" font-size="10.00">AH/Math/MinMaxFix.hpp</text>
</a>
</g>
</g>
<!-- Node12&#45;&gt;Node13 -->
<g id="edge19" class="edge">
<title>Node12&#45;&gt;Node13</title>
<path fill="none" stroke="midnightblue" d="M1166.25,-168.32C1176.8,-160.18 1192.8,-147.84 1205.44,-138.09"/>
<polygon fill="midnightblue" stroke="midnightblue" points="1207.77,-140.71 1213.55,-131.83 1203.49,-135.17 1207.77,-140.71"/>
</g>
<!-- Node15 -->
<g id="node15" class="node">
<title>Node15</title>
<g id="a_node15"><a xlink:title=" ">
<polygon fill="white" stroke="#bfbfbf" points="1534.5,-0.5 1534.5,-19.5 1597.5,-19.5 1597.5,-0.5 1534.5,-0.5"/>
<text text-anchor="middle" x="1566" y="-7.5" font-family="Helvetica,sans-Serif" font-size="10.00">Arduino.h</text>
</a>
</g>
</g>
<!-- Node12&#45;&gt;Node15 -->
<g id="edge26" class="edge">
<title>Node12&#45;&gt;Node15</title>
<path fill="none" stroke="midnightblue" d="M1217.04,-172.37C1328.67,-162.62 1556.21,-135.74 1604,-76 1616.47,-60.41 1600.54,-40.29 1585.65,-26.59"/>
<polygon fill="midnightblue" stroke="midnightblue" points="1587.54,-23.59 1577.68,-19.71 1582.96,-28.89 1587.54,-23.59"/>
</g>
<!-- Node12&#45;&gt;Node16 -->
<g id="edge25" class="edge">
<title>Node12&#45;&gt;Node16</title>
<path fill="none" stroke="midnightblue" d="M1131.87,-168.44C1107.52,-159.44 1068.99,-145.19 1041.58,-135.05"/>
<polygon fill="midnightblue" stroke="midnightblue" points="1042.62,-131.7 1032.03,-131.52 1040.19,-138.27 1042.62,-131.7"/>
</g>
<!-- Node13&#45;&gt;Node2 -->
<g id="edge20" class="edge">
<title>Node13&#45;&gt;Node2</title>
<path fill="none" stroke="midnightblue" d="M1207.93,-112.29C1178.83,-97.88 1117.38,-69.35 1062,-56 925.29,-23.04 761.21,-13.97 664.9,-11.62"/>
<polygon fill="midnightblue" stroke="midnightblue" points="664.73,-8.12 654.65,-11.39 664.57,-15.12 664.73,-8.12"/>
</g>
<!-- Node13&#45;&gt;Node11 -->
<g id="edge24" class="edge">
<title>Node13&#45;&gt;Node11</title>
<path fill="none" stroke="midnightblue" d="M1182.22,-112.44C1134.82,-102.96 1058.37,-87.67 1007.42,-77.48"/>
<polygon fill="midnightblue" stroke="midnightblue" points="1008.07,-74.05 997.58,-75.52 1006.7,-80.91 1008.07,-74.05"/>
</g>
<!-- Node14 -->
<g id="node14" class="node">
<title>Node14</title>
<g id="a_node14"><a xlink:href="../../d6/d3b/FixArduinoMacros_8hpp.html" target="_top" xlink:title=" ">
<polygon fill="white" stroke="black" points="1425,-56.5 1425,-75.5 1595,-75.5 1595,-56.5 1425,-56.5"/>
<text text-anchor="middle" x="1510" y="-63.5" font-family="Helvetica,sans-Serif" font-size="10.00">AH/Math/FixArduinoMacros.hpp</text>
</a>
</g>
</g>
<!-- Node13&#45;&gt;Node14 -->
<g id="edge21" class="edge">
<title>Node13&#45;&gt;Node14</title>
<path fill="none" stroke="midnightblue" d="M1270.16,-112.44C1320.29,-102.94 1401.22,-87.61 1455.01,-77.42"/>
<polygon fill="midnightblue" stroke="midnightblue" points="1455.88,-80.82 1465.05,-75.52 1454.58,-73.94 1455.88,-80.82"/>
</g>
<!-- Node14&#45;&gt;Node2 -->
<g id="edge22" class="edge">
<title>Node14&#45;&gt;Node2</title>
<path fill="none" stroke="midnightblue" d="M1424.96,-57.07C1420.24,-56.69 1415.56,-56.33 1411,-56 1138.1,-36.19 814.02,-20.99 665.18,-14.47"/>
<polygon fill="midnightblue" stroke="midnightblue" points="664.91,-10.96 654.77,-14.02 664.61,-17.95 664.91,-10.96"/>
</g>
<!-- Node14&#45;&gt;Node15 -->
<g id="edge23" class="edge">
<title>Node14&#45;&gt;Node15</title>
<path fill="none" stroke="midnightblue" d="M1519,-56.32C1527.19,-48.42 1539.51,-36.55 1549.47,-26.94"/>
<polygon fill="midnightblue" stroke="midnightblue" points="1552.07,-29.29 1556.84,-19.83 1547.21,-24.26 1552.07,-29.29"/>
</g>
<!-- Node17&#45;&gt;Node2 -->
<g id="edge28" class="edge">
<title>Node17&#45;&gt;Node2</title>
<path fill="none" stroke="midnightblue" d="M511.98,-336.35C492.03,-329.54 467.54,-318.1 452,-300 432.31,-277.06 432,-265.23 432,-235 432,-235 432,-235 432,-121 432,-90.2 434.08,-77.63 456,-56 472.82,-39.4 496.15,-28.89 518.23,-22.25"/>
<polygon fill="midnightblue" stroke="midnightblue" points="519.23,-25.61 527.92,-19.55 517.35,-18.86 519.23,-25.61"/>
</g>
<!-- Node17&#45;&gt;Node9 -->
<g id="edge41" class="edge">
<title>Node17&#45;&gt;Node9</title>
<path fill="none" stroke="midnightblue" d="M559.53,-355.75C569.6,-363.56 582.47,-375.2 591.76,-384.72"/>
<polygon fill="midnightblue" stroke="midnightblue" points="589.22,-387.13 598.59,-392.08 594.36,-382.37 589.22,-387.13"/>
</g>
<!-- Node17&#45;&gt;Node11 -->
<g id="edge29" class="edge">
<title>Node17&#45;&gt;Node11</title>
<path fill="none" stroke="midnightblue" d="M634.12,-336.77C678.41,-330.45 731.96,-319.36 777,-300 822.66,-280.37 868,-284.7 868,-235 868,-235 868,-235 868,-177 868,-135.4 906.75,-100.33 932.53,-81.6"/>
<polygon fill="midnightblue" stroke="midnightblue" points="934.82,-84.27 941.02,-75.68 930.82,-78.53 934.82,-84.27"/>
</g>
<!-- Node18 -->
<g id="node18" class="node">
<title>Node18</title>
<g id="a_node18"><a xlink:href="../../db/d02/Settings_8hpp.html" target="_top" xlink:title="All user settings and debugging options can be changed here.">
<polygon fill="white" stroke="black" points="690.5,-280.5 690.5,-299.5 767.5,-299.5 767.5,-280.5 690.5,-280.5"/>
<text text-anchor="middle" x="729" y="-287.5" font-family="Helvetica,sans-Serif" font-size="10.00">Settings.hpp</text>
</a>
</g>
</g>
<!-- Node17&#45;&gt;Node18 -->
<g id="edge30" class="edge">
<title>Node17&#45;&gt;Node18</title>
<path fill="none" stroke="midnightblue" d="M574.16,-336.44C605.51,-327.24 655.53,-312.56 690.2,-302.39"/>
<polygon fill="midnightblue" stroke="midnightblue" points="691.37,-305.69 699.98,-299.52 689.4,-298.97 691.37,-305.69"/>
</g>
<!-- Node24 -->
<g id="node24" class="node">
<title>Node24</title>
<g id="a_node24"><a xlink:href="../../d9/d98/TeensyUSBTypes_8hpp.html" target="_top" xlink:title=" ">
<polygon fill="white" stroke="black" points="460.5,-280.5 460.5,-299.5 633.5,-299.5 633.5,-280.5 460.5,-280.5"/>
<text text-anchor="middle" x="547" y="-287.5" font-family="Helvetica,sans-Serif" font-size="10.00">AH/Teensy/TeensyUSBTypes.hpp</text>
</a>
</g>
</g>
<!-- Node17&#45;&gt;Node24 -->
<g id="edge40" class="edge">
<title>Node17&#45;&gt;Node24</title>
<path fill="none" stroke="midnightblue" d="M545.33,-336.08C545.59,-329.01 545.97,-318.86 546.3,-309.99"/>
<polygon fill="midnightblue" stroke="midnightblue" points="549.8,-309.87 546.68,-299.75 542.81,-309.61 549.8,-309.87"/>
</g>
<!-- Node19 -->
<g id="node19" class="node">
<title>Node19</title>
<g id="a_node19"><a xlink:href="../../dc/d50/Frequency_8hpp.html" target="_top" xlink:title=" ">
<polygon fill="white" stroke="black" points="516,-112.5 516,-131.5 650,-131.5 650,-112.5 516,-112.5"/>
<text text-anchor="middle" x="583" y="-119.5" font-family="Helvetica,sans-Serif" font-size="10.00">AH/Types/Frequency.hpp</text>
</a>
</g>
</g>
<!-- Node18&#45;&gt;Node19 -->
<g id="edge31" class="edge">
<title>Node18&#45;&gt;Node19</title>
<path fill="none" stroke="midnightblue" d="M691.35,-280.47C657.66,-272.06 611.81,-258.39 600,-244 576.08,-214.86 577.18,-167.87 580.09,-141.86"/>
<polygon fill="midnightblue" stroke="midnightblue" points="583.57,-142.18 581.42,-131.81 576.63,-141.26 583.57,-142.18"/>
</g>
<!-- Node20 -->
<g id="node20" class="node">
<title>Node20</title>
<g id="a_node20"><a xlink:href="../../d7/d7c/ADCConfig_8hpp.html" target="_top" xlink:title="This file contains the platform&#45;specific ADC resolutions.">
<polygon fill="white" stroke="black" points="608.5,-224.5 608.5,-243.5 765.5,-243.5 765.5,-224.5 608.5,-224.5"/>
<text text-anchor="middle" x="687" y="-231.5" font-family="Helvetica,sans-Serif" font-size="10.00">AH/Hardware/ADCConfig.hpp</text>
</a>
</g>
</g>
<!-- Node18&#45;&gt;Node20 -->
<g id="edge34" class="edge">
<title>Node18&#45;&gt;Node20</title>
<path fill="none" stroke="midnightblue" d="M722.06,-280.08C716.07,-272.38 707.25,-261.03 699.95,-251.65"/>
<polygon fill="midnightblue" stroke="midnightblue" points="702.71,-249.5 693.81,-243.75 697.18,-253.79 702.71,-249.5"/>
</g>
<!-- Node21 -->
<g id="node21" class="node">
<title>Node21</title>
<g id="a_node21"><a xlink:title=" ">
<polygon fill="white" stroke="#bfbfbf" points="498.5,-224.5 498.5,-243.5 551.5,-243.5 551.5,-224.5 498.5,-224.5"/>
<text text-anchor="middle" x="525" y="-231.5" font-family="Helvetica,sans-Serif" font-size="10.00">limits.h</text>
</a>
</g>
</g>
<!-- Node18&#45;&gt;Node21 -->
<g id="edge37" class="edge">
<title>Node18&#45;&gt;Node21</title>
<path fill="none" stroke="midnightblue" d="M696.68,-280.44C659.86,-270.7 599.84,-254.81 561.4,-244.64"/>
<polygon fill="midnightblue" stroke="midnightblue" points="562.21,-241.23 551.65,-242.05 560.42,-248 562.21,-241.23"/>
</g>
<!-- Node18&#45;&gt;Node22 -->
<g id="edge38" class="edge">
<title>Node18&#45;&gt;Node22</title>
<path fill="none" stroke="midnightblue" d="M742.34,-280.32C755.16,-271.98 774.78,-259.21 789.94,-249.35"/>
<polygon fill="midnightblue" stroke="midnightblue" points="792.22,-252.04 798.7,-243.65 788.41,-246.17 792.22,-252.04"/>
</g>
<!-- Node18&#45;&gt;Node23 -->
<g id="edge39" class="edge">
<title>Node18&#45;&gt;Node23</title>
<path fill="none" stroke="midnightblue" d="M759.74,-280.44C794.21,-270.85 850.08,-255.3 886.68,-245.11"/>
<polygon fill="midnightblue" stroke="midnightblue" points="887.76,-248.44 896.46,-242.39 885.88,-241.7 887.76,-248.44"/>
</g>
<!-- Node19&#45;&gt;Node2 -->
<g id="edge32" class="edge">
<title>Node19&#45;&gt;Node2</title>
<path fill="none" stroke="midnightblue" d="M583,-112.37C583,-94.62 583,-53.67 583,-29.6"/>
<polygon fill="midnightblue" stroke="midnightblue" points="586.5,-29.59 583,-19.59 579.5,-29.59 586.5,-29.59"/>
</g>
<!-- Node19&#45;&gt;Node11 -->
<g id="edge33" class="edge">
<title>Node19&#45;&gt;Node11</title>
<path fill="none" stroke="midnightblue" d="M641.94,-112.44C708.34,-102.81 816.1,-87.16 886.26,-76.98"/>
<polygon fill="midnightblue" stroke="midnightblue" points="886.94,-80.42 896.33,-75.52 885.93,-73.49 886.94,-80.42"/>
</g>
<!-- Node20&#45;&gt;Node2 -->
<g id="edge35" class="edge">
<title>Node20&#45;&gt;Node2</title>
<path fill="none" stroke="midnightblue" d="M686.24,-224.39C684.2,-203.99 677.4,-151.48 659,-112 643.49,-78.74 615.81,-45.83 598.48,-27.01"/>
<polygon fill="midnightblue" stroke="midnightblue" points="600.94,-24.51 591.54,-19.62 595.84,-29.3 600.94,-24.51"/>
</g>
<!-- Node20&#45;&gt;Node12 -->
<g id="edge36" class="edge">
<title>Node20&#45;&gt;Node12</title>
<path fill="none" stroke="midnightblue" d="M760.9,-224.47C848.98,-214.31 995.2,-197.44 1082.61,-187.35"/>
<polygon fill="midnightblue" stroke="midnightblue" points="1083.18,-190.81 1092.71,-186.19 1082.38,-183.86 1083.18,-190.81"/>
</g>
<!-- Node26&#45;&gt;Node2 -->
<g id="edge50" class="edge">
<title>Node26&#45;&gt;Node2</title>
<path fill="none" stroke="midnightblue" d="M260.24,-112.25C275.79,-98.05 308.77,-70.14 342,-56 392.55,-34.48 453.39,-23.23 501.29,-17.35"/>
<polygon fill="midnightblue" stroke="midnightblue" points="501.78,-20.82 511.31,-16.18 500.97,-13.86 501.78,-20.82"/>
</g>
<!-- Node26&#45;&gt;Node11 -->
<g id="edge51" class="edge">
<title>Node26&#45;&gt;Node11</title>
<path fill="none" stroke="midnightblue" d="M327.68,-115.12C453.4,-105.47 703.7,-86.28 847.21,-75.27"/>
<polygon fill="midnightblue" stroke="midnightblue" points="847.65,-78.74 857.36,-74.49 847.12,-71.76 847.65,-78.74"/>
</g>
<!-- Node27 -->
<g id="node27" class="node">
<title>Node27</title>
<g id="a_node27"><a xlink:title=" ">
<polygon fill="white" stroke="#bfbfbf" points="102,-56.5 102,-75.5 192,-75.5 192,-56.5 102,-56.5"/>
<text text-anchor="middle" x="147" y="-63.5" font-family="Helvetica,sans-Serif" font-size="10.00">AH/STL/cstddef</text>
</a>
</g>
</g>
<!-- Node26&#45;&gt;Node27 -->
<g id="edge48" class="edge">
<title>Node26&#45;&gt;Node27</title>
<path fill="none" stroke="midnightblue" d="M234.29,-112.32C217.69,-103.7 192,-90.36 172.78,-80.39"/>
<polygon fill="midnightblue" stroke="midnightblue" points="174.16,-77.16 163.67,-75.65 170.93,-83.37 174.16,-77.16"/>
</g>
<!-- Node28 -->
<g id="node28" class="node">
<title>Node28</title>
<g id="a_node28"><a xlink:title=" ">
<polygon fill="white" stroke="#bfbfbf" points="210.5,-56.5 210.5,-75.5 289.5,-75.5 289.5,-56.5 210.5,-56.5"/>
<text text-anchor="middle" x="250" y="-63.5" font-family="Helvetica,sans-Serif" font-size="10.00">AH/STL/tuple</text>
</a>
</g>
</g>
<!-- Node26&#45;&gt;Node28 -->
<g id="edge49" class="edge">
<title>Node26&#45;&gt;Node28</title>
<path fill="none" stroke="midnightblue" d="M250.83,-112.08C250.7,-105.01 250.52,-94.86 250.35,-85.99"/>
<polygon fill="midnightblue" stroke="midnightblue" points="253.85,-85.68 250.16,-75.75 246.85,-85.81 253.85,-85.68"/>
</g>
</g>
</svg>
