<?xml version="1.0" encoding="UTF-8" standalone="no"?>
<!DOCTYPE svg PUBLIC "-//W3C//DTD SVG 1.1//EN"
 "http://www.w3.org/Graphics/SVG/1.1/DTD/svg11.dtd">
<!-- Generated by graphviz version 2.43.0 (0)
 -->
<!-- Title: SMA.hpp Pages: 1 -->
<svg width="1268pt" height="588pt"
 viewBox="0.00 0.00 1267.50 588.00" xmlns="http://www.w3.org/2000/svg" xmlns:xlink="http://www.w3.org/1999/xlink">
<g id="graph0" class="graph" transform="scale(1 1) rotate(0) translate(4 584)">
<title>SMA.hpp</title>
<polygon fill="white" stroke="transparent" points="-4,4 -4,-584 1263.5,-584 1263.5,4 -4,4"/>
<!-- Node1 -->
<g id="node1" class="node">
<title>Node1</title>
<g id="a_node1"><a xlink:title=" ">
<polygon fill="#bfbfbf" stroke="black" points="1040.5,-560.5 1040.5,-579.5 1099.5,-579.5 1099.5,-560.5 1040.5,-560.5"/>
<text text-anchor="middle" x="1070" y="-567.5" font-family="Helvetica,sans-Serif" font-size="10.00">SMA.hpp</text>
</a>
</g>
</g>
<!-- Node2 -->
<g id="node2" class="node">
<title>Node2</title>
<g id="a_node2"><a xlink:href="../../de/d76/Array_8hpp.html" target="_top" xlink:title=" ">
<polygon fill="white" stroke="black" points="799.5,-504.5 799.5,-523.5 934.5,-523.5 934.5,-504.5 799.5,-504.5"/>
<text text-anchor="middle" x="867" y="-511.5" font-family="Helvetica,sans-Serif" font-size="10.00">AH/Containers/Array.hpp</text>
</a>
</g>
</g>
<!-- Node1&#45;&gt;Node2 -->
<g id="edge1" class="edge">
<title>Node1&#45;&gt;Node2</title>
<path fill="none" stroke="midnightblue" d="M1040.48,-561.15C1005.89,-551.95 948.3,-536.63 909.05,-526.18"/>
<polygon fill="midnightblue" stroke="midnightblue" points="909.8,-522.76 899.24,-523.58 908,-529.53 909.8,-522.76"/>
</g>
<!-- Node12 -->
<g id="node12" class="node">
<title>Node12</title>
<g id="a_node12"><a xlink:title=" ">
<polygon fill="white" stroke="#bfbfbf" points="828.5,-112.5 828.5,-131.5 935.5,-131.5 935.5,-112.5 828.5,-112.5"/>
<text text-anchor="middle" x="882" y="-119.5" font-family="Helvetica,sans-Serif" font-size="10.00">AH/STL/type_traits</text>
</a>
</g>
</g>
<!-- Node1&#45;&gt;Node12 -->
<g id="edge45" class="edge">
<title>Node1&#45;&gt;Node12</title>
<path fill="none" stroke="midnightblue" d="M1067.34,-560.24C1055.12,-520.49 1002.43,-353.4 941,-224 926.48,-193.42 905.85,-159.83 893.22,-140.13"/>
<polygon fill="midnightblue" stroke="midnightblue" points="896.1,-138.13 887.73,-131.64 890.23,-141.94 896.1,-138.13"/>
</g>
<!-- Node22 -->
<g id="node22" class="node">
<title>Node22</title>
<g id="a_node22"><a xlink:href="../../dc/d30/Divide_8hpp.html" target="_top" xlink:title=" ">
<polygon fill="white" stroke="black" points="988,-280.5 988,-299.5 1102,-299.5 1102,-280.5 988,-280.5"/>
<text text-anchor="middle" x="1045" y="-287.5" font-family="Helvetica,sans-Serif" font-size="10.00">AH/Math/Divide.hpp</text>
</a>
</g>
</g>
<!-- Node1&#45;&gt;Node22 -->
<g id="edge37" class="edge">
<title>Node1&#45;&gt;Node22</title>
<path fill="none" stroke="midnightblue" d="M1070,-560.44C1070,-541.94 1070,-496.81 1070,-459 1070,-459 1070,-459 1070,-401 1070,-368 1059.17,-330.77 1051.76,-309.19"/>
<polygon fill="midnightblue" stroke="midnightblue" points="1055.03,-307.93 1048.37,-299.69 1048.43,-310.28 1055.03,-307.93"/>
</g>
<!-- Node23 -->
<g id="node23" class="node">
<title>Node23</title>
<g id="a_node23"><a xlink:title=" ">
<polygon fill="white" stroke="#bfbfbf" points="1102.5,-224.5 1102.5,-243.5 1189.5,-243.5 1189.5,-224.5 1102.5,-224.5"/>
<text text-anchor="middle" x="1146" y="-231.5" font-family="Helvetica,sans-Serif" font-size="10.00">AH/STL/cstdint</text>
</a>
</g>
</g>
<!-- Node1&#45;&gt;Node23 -->
<g id="edge44" class="edge">
<title>Node1&#45;&gt;Node23</title>
<path fill="none" stroke="midnightblue" d="M1078.6,-560.47C1095.19,-543.04 1130,-501.42 1130,-459 1130,-459 1130,-459 1130,-345 1130,-312.63 1136.87,-275.44 1141.61,-253.66"/>
<polygon fill="midnightblue" stroke="midnightblue" points="1145.05,-254.3 1143.84,-243.78 1138.22,-252.76 1145.05,-254.3"/>
</g>
<!-- Node24 -->
<g id="node24" class="node">
<title>Node24</title>
<g id="a_node24"><a xlink:title=" ">
<polygon fill="white" stroke="#bfbfbf" points="1158.5,-504.5 1158.5,-523.5 1259.5,-523.5 1259.5,-504.5 1158.5,-504.5"/>
<text text-anchor="middle" x="1209" y="-511.5" font-family="Helvetica,sans-Serif" font-size="10.00">AH/STL/algorithm</text>
</a>
</g>
</g>
<!-- Node1&#45;&gt;Node24 -->
<g id="edge43" class="edge">
<title>Node1&#45;&gt;Node24</title>
<path fill="none" stroke="midnightblue" d="M1092.02,-560.44C1115.1,-551.48 1151.56,-537.31 1177.64,-527.18"/>
<polygon fill="midnightblue" stroke="midnightblue" points="1179.02,-530.4 1187.08,-523.52 1176.49,-523.88 1179.02,-530.4"/>
</g>
<!-- Node3 -->
<g id="node3" class="node">
<title>Node3</title>
<g id="a_node3"><a xlink:href="../../d1/d65/Warnings_8hpp.html" target="_top" xlink:title=" ">
<polygon fill="white" stroke="black" points="132.5,-0.5 132.5,-19.5 275.5,-19.5 275.5,-0.5 132.5,-0.5"/>
<text text-anchor="middle" x="204" y="-7.5" font-family="Helvetica,sans-Serif" font-size="10.00">AH/Settings/Warnings.hpp</text>
</a>
</g>
</g>
<!-- Node2&#45;&gt;Node3 -->
<g id="edge2" class="edge">
<title>Node2&#45;&gt;Node3</title>
<path fill="none" stroke="midnightblue" d="M799.33,-511.5C595.28,-506.11 0,-483.46 0,-403 0,-403 0,-403 0,-121 0,-61.66 67.69,-34.19 125.09,-21.55"/>
<polygon fill="midnightblue" stroke="midnightblue" points="125.86,-24.97 134.93,-19.51 124.43,-18.12 125.86,-24.97"/>
</g>
<!-- Node4 -->
<g id="node4" class="node">
<title>Node4</title>
<g id="a_node4"><a xlink:href="../../d1/d93/Error_8hpp.html" target="_top" xlink:title=" ">
<polygon fill="white" stroke="black" points="306,-448.5 306,-467.5 410,-467.5 410,-448.5 306,-448.5"/>
<text text-anchor="middle" x="358" y="-455.5" font-family="Helvetica,sans-Serif" font-size="10.00">AH/Error/Error.hpp</text>
</a>
</g>
</g>
<!-- Node2&#45;&gt;Node4 -->
<g id="edge3" class="edge">
<title>Node2&#45;&gt;Node4</title>
<path fill="none" stroke="midnightblue" d="M799.41,-505.83C700.13,-495.3 516.28,-475.79 420.18,-465.6"/>
<polygon fill="midnightblue" stroke="midnightblue" points="420.35,-462.09 410.03,-464.52 419.61,-469.06 420.35,-462.09"/>
</g>
<!-- Node2&#45;&gt;Node12 -->
<g id="edge35" class="edge">
<title>Node2&#45;&gt;Node12</title>
<path fill="none" stroke="midnightblue" d="M864.44,-504.25C859.25,-485.74 848,-441.18 848,-403 848,-403 848,-403 848,-233 848,-199.16 862.87,-161.97 872.94,-140.66"/>
<polygon fill="midnightblue" stroke="midnightblue" points="876.14,-142.08 877.41,-131.56 869.86,-138.99 876.14,-142.08"/>
</g>
<!-- Node18 -->
<g id="node18" class="node">
<title>Node18</title>
<g id="a_node18"><a xlink:title=" ">
<polygon fill="white" stroke="#bfbfbf" points="876,-224.5 876,-243.5 932,-243.5 932,-224.5 876,-224.5"/>
<text text-anchor="middle" x="904" y="-231.5" font-family="Helvetica,sans-Serif" font-size="10.00">stddef.h</text>
</a>
</g>
</g>
<!-- Node2&#45;&gt;Node18 -->
<g id="edge36" class="edge">
<title>Node2&#45;&gt;Node18</title>
<path fill="none" stroke="midnightblue" d="M869.56,-504.25C874.75,-485.74 886,-441.18 886,-403 886,-403 886,-403 886,-345 886,-312.54 893.73,-275.38 899.06,-253.63"/>
<polygon fill="midnightblue" stroke="midnightblue" points="902.49,-254.32 901.57,-243.76 895.71,-252.59 902.49,-254.32"/>
</g>
<!-- Node21 -->
<g id="node21" class="node">
<title>Node21</title>
<g id="a_node21"><a xlink:title=" ">
<polygon fill="white" stroke="#bfbfbf" points="914,-448.5 914,-467.5 1004,-467.5 1004,-448.5 914,-448.5"/>
<text text-anchor="middle" x="959" y="-455.5" font-family="Helvetica,sans-Serif" font-size="10.00">AH/STL/iterator</text>
</a>
</g>
</g>
<!-- Node2&#45;&gt;Node21 -->
<g id="edge34" class="edge">
<title>Node2&#45;&gt;Node21</title>
<path fill="none" stroke="midnightblue" d="M881.78,-504.32C896.27,-495.82 918.57,-482.73 935.49,-472.8"/>
<polygon fill="midnightblue" stroke="midnightblue" points="937.4,-475.74 944.26,-467.65 933.86,-469.7 937.4,-475.74"/>
</g>
<!-- Node4&#45;&gt;Node3 -->
<g id="edge4" class="edge">
<title>Node4&#45;&gt;Node3</title>
<path fill="none" stroke="midnightblue" d="M305.87,-450.07C215.2,-436.55 38,-402.96 38,-347 38,-347 38,-347 38,-121 38,-65.37 103.59,-36.21 152.31,-22.23"/>
<polygon fill="midnightblue" stroke="midnightblue" points="153.39,-25.56 162.11,-19.55 151.54,-18.81 153.39,-25.56"/>
</g>
<!-- Node5 -->
<g id="node5" class="node">
<title>Node5</title>
<g id="a_node5"><a xlink:href="../../df/dee/Debug_8hpp.html" target="_top" xlink:title=" ">
<polygon fill="white" stroke="black" points="297.5,-392.5 297.5,-411.5 418.5,-411.5 418.5,-392.5 297.5,-392.5"/>
<text text-anchor="middle" x="358" y="-399.5" font-family="Helvetica,sans-Serif" font-size="10.00">AH/Debug/Debug.hpp</text>
</a>
</g>
</g>
<!-- Node4&#45;&gt;Node5 -->
<g id="edge5" class="edge">
<title>Node4&#45;&gt;Node5</title>
<path fill="none" stroke="midnightblue" d="M358,-448.08C358,-441.01 358,-430.86 358,-421.99"/>
<polygon fill="midnightblue" stroke="midnightblue" points="361.5,-421.75 358,-411.75 354.5,-421.75 361.5,-421.75"/>
</g>
<!-- Node5&#45;&gt;Node3 -->
<g id="edge6" class="edge">
<title>Node5&#45;&gt;Node3</title>
<path fill="none" stroke="midnightblue" d="M309.84,-392.48C229.3,-376.85 76,-340.6 76,-291 76,-291 76,-291 76,-121 76,-71.64 131.42,-39.61 169.33,-23.48"/>
<polygon fill="midnightblue" stroke="midnightblue" points="171.07,-26.55 179.02,-19.53 168.43,-20.06 171.07,-26.55"/>
</g>
<!-- Node6 -->
<g id="node6" class="node">
<title>Node6</title>
<g id="a_node6"><a xlink:href="../../dd/d80/PrintStream_8hpp.html" target="_top" xlink:title=" ">
<polygon fill="white" stroke="black" points="173.5,-224.5 173.5,-243.5 346.5,-243.5 346.5,-224.5 173.5,-224.5"/>
<text text-anchor="middle" x="260" y="-231.5" font-family="Helvetica,sans-Serif" font-size="10.00">AH/PrintStream/PrintStream.hpp</text>
</a>
</g>
</g>
<!-- Node5&#45;&gt;Node6 -->
<g id="edge7" class="edge">
<title>Node5&#45;&gt;Node6</title>
<path fill="none" stroke="midnightblue" d="M352.73,-392.08C337.1,-365.61 290.82,-287.21 270.16,-252.21"/>
<polygon fill="midnightblue" stroke="midnightblue" points="273.16,-250.4 265.06,-243.57 267.13,-253.96 273.16,-250.4"/>
</g>
<!-- Node13 -->
<g id="node13" class="node">
<title>Node13</title>
<g id="a_node13"><a xlink:href="../../d2/dd5/SettingsWrapper_8hpp.html" target="_top" xlink:title=" ">
<polygon fill="white" stroke="black" points="343,-336.5 343,-355.5 521,-355.5 521,-336.5 343,-336.5"/>
<text text-anchor="middle" x="432" y="-343.5" font-family="Helvetica,sans-Serif" font-size="10.00">AH/Settings/SettingsWrapper.hpp</text>
</a>
</g>
</g>
<!-- Node5&#45;&gt;Node13 -->
<g id="edge19" class="edge">
<title>Node5&#45;&gt;Node13</title>
<path fill="none" stroke="midnightblue" d="M364.77,-392.32C374.4,-383.98 391.59,-371.21 406.29,-361.35"/>
<polygon fill="midnightblue" stroke="midnightblue" points="408.56,-364.05 415.03,-355.65 404.74,-358.18 408.56,-364.05"/>
</g>
<!-- Node6&#45;&gt;Node3 -->
<g id="edge9" class="edge">
<title>Node6&#45;&gt;Node3</title>
<path fill="none" stroke="midnightblue" d="M240.37,-224.37C210.67,-210.09 155.4,-178.43 133,-132 113.9,-92.41 157.01,-48.51 184.12,-26.05"/>
<polygon fill="midnightblue" stroke="midnightblue" points="186.63,-28.52 192.26,-19.54 182.26,-23.05 186.63,-28.52"/>
</g>
<!-- Node7 -->
<g id="node7" class="node">
<title>Node7</title>
<g id="a_node7"><a xlink:href="../../dc/dc7/NamespaceSettings_8hpp.html" target="_top" xlink:title=" ">
<polygon fill="white" stroke="black" points="443.5,-56.5 443.5,-75.5 638.5,-75.5 638.5,-56.5 443.5,-56.5"/>
<text text-anchor="middle" x="541" y="-63.5" font-family="Helvetica,sans-Serif" font-size="10.00">AH/Settings/NamespaceSettings.hpp</text>
</a>
</g>
</g>
<!-- Node6&#45;&gt;Node7 -->
<g id="edge8" class="edge">
<title>Node6&#45;&gt;Node7</title>
<path fill="none" stroke="midnightblue" d="M256.01,-224.06C250.65,-210.58 243.1,-184.82 255,-168 295.2,-111.18 370.13,-86.11 433.21,-75.15"/>
<polygon fill="midnightblue" stroke="midnightblue" points="433.92,-78.58 443.23,-73.51 432.79,-71.67 433.92,-78.58"/>
</g>
<!-- Node8 -->
<g id="node8" class="node">
<title>Node8</title>
<g id="a_node8"><a xlink:href="../../d6/ddf/Arduino-Wrapper_8h.html" target="_top" xlink:title=" ">
<polygon fill="white" stroke="black" points="264,-168.5 264,-187.5 388,-187.5 388,-168.5 264,-168.5"/>
<text text-anchor="middle" x="326" y="-175.5" font-family="Helvetica,sans-Serif" font-size="10.00">AH/Arduino&#45;Wrapper.h</text>
</a>
</g>
</g>
<!-- Node6&#45;&gt;Node8 -->
<g id="edge10" class="edge">
<title>Node6&#45;&gt;Node8</title>
<path fill="none" stroke="midnightblue" d="M270.6,-224.32C280.46,-216.26 295.35,-204.08 307.22,-194.37"/>
<polygon fill="midnightblue" stroke="midnightblue" points="309.68,-196.88 315.2,-187.83 305.25,-191.46 309.68,-196.88"/>
</g>
<!-- Node9 -->
<g id="node9" class="node">
<title>Node9</title>
<g id="a_node9"><a xlink:href="../../d7/d79/MinMaxFix_8hpp.html" target="_top" xlink:title=" ">
<polygon fill="white" stroke="black" points="142,-112.5 142,-131.5 278,-131.5 278,-112.5 142,-112.5"/>
<text text-anchor="middle" x="210" y="-119.5" font-family="Helvetica,sans-Serif" font-size="10.00">AH/Math/MinMaxFix.hpp</text>
</a>
</g>
</g>
<!-- Node8&#45;&gt;Node9 -->
<g id="edge11" class="edge">
<title>Node8&#45;&gt;Node9</title>
<path fill="none" stroke="midnightblue" d="M307.62,-168.44C288.78,-159.68 259.27,-145.94 237.62,-135.86"/>
<polygon fill="midnightblue" stroke="midnightblue" points="238.84,-132.56 228.29,-131.52 235.88,-138.91 238.84,-132.56"/>
</g>
<!-- Node11 -->
<g id="node11" class="node">
<title>Node11</title>
<g id="a_node11"><a xlink:title=" ">
<polygon fill="white" stroke="#bfbfbf" points="319.5,-0.5 319.5,-19.5 382.5,-19.5 382.5,-0.5 319.5,-0.5"/>
<text text-anchor="middle" x="351" y="-7.5" font-family="Helvetica,sans-Serif" font-size="10.00">Arduino.h</text>
</a>
</g>
</g>
<!-- Node8&#45;&gt;Node11 -->
<g id="edge18" class="edge">
<title>Node8&#45;&gt;Node11</title>
<path fill="none" stroke="midnightblue" d="M330.6,-168.39C340.53,-148.83 362.83,-99.38 359,-56 358.22,-47.2 356.61,-37.54 355.03,-29.43"/>
<polygon fill="midnightblue" stroke="midnightblue" points="358.44,-28.65 352.99,-19.57 351.59,-30.07 358.44,-28.65"/>
</g>
<!-- Node8&#45;&gt;Node12 -->
<g id="edge17" class="edge">
<title>Node8&#45;&gt;Node12</title>
<path fill="none" stroke="midnightblue" d="M388.16,-170.96C494.67,-160.62 710.95,-139.61 818.43,-129.17"/>
<polygon fill="midnightblue" stroke="midnightblue" points="818.86,-132.65 828.48,-128.2 818.19,-125.68 818.86,-132.65"/>
</g>
<!-- Node9&#45;&gt;Node3 -->
<g id="edge12" class="edge">
<title>Node9&#45;&gt;Node3</title>
<path fill="none" stroke="midnightblue" d="M199.01,-112.37C189.55,-104.17 176.56,-90.92 171,-76 164.54,-58.69 176.19,-39.98 187.38,-27.1"/>
<polygon fill="midnightblue" stroke="midnightblue" points="190.18,-29.23 194.48,-19.55 185.08,-24.43 190.18,-29.23"/>
</g>
<!-- Node9&#45;&gt;Node7 -->
<g id="edge16" class="edge">
<title>Node9&#45;&gt;Node7</title>
<path fill="none" stroke="midnightblue" d="M262.45,-112.44C321.16,-102.87 416.23,-87.36 478.68,-77.17"/>
<polygon fill="midnightblue" stroke="midnightblue" points="479.49,-80.58 488.8,-75.52 478.36,-73.67 479.49,-80.58"/>
</g>
<!-- Node10 -->
<g id="node10" class="node">
<title>Node10</title>
<g id="a_node10"><a xlink:href="../../d6/d3b/FixArduinoMacros_8hpp.html" target="_top" xlink:title=" ">
<polygon fill="white" stroke="black" points="180,-56.5 180,-75.5 350,-75.5 350,-56.5 180,-56.5"/>
<text text-anchor="middle" x="265" y="-63.5" font-family="Helvetica,sans-Serif" font-size="10.00">AH/Math/FixArduinoMacros.hpp</text>
</a>
</g>
</g>
<!-- Node9&#45;&gt;Node10 -->
<g id="edge13" class="edge">
<title>Node9&#45;&gt;Node10</title>
<path fill="none" stroke="midnightblue" d="M219.08,-112.08C227.17,-104.14 239.2,-92.34 248.91,-82.8"/>
<polygon fill="midnightblue" stroke="midnightblue" points="251.4,-85.25 256.09,-75.75 246.5,-80.26 251.4,-85.25"/>
</g>
<!-- Node10&#45;&gt;Node3 -->
<g id="edge14" class="edge">
<title>Node10&#45;&gt;Node3</title>
<path fill="none" stroke="midnightblue" d="M255.2,-56.32C246.18,-48.34 232.59,-36.31 221.68,-26.65"/>
<polygon fill="midnightblue" stroke="midnightblue" points="223.79,-23.84 213.98,-19.83 219.15,-29.08 223.79,-23.84"/>
</g>
<!-- Node10&#45;&gt;Node11 -->
<g id="edge15" class="edge">
<title>Node10&#45;&gt;Node11</title>
<path fill="none" stroke="midnightblue" d="M278.82,-56.32C292.23,-47.9 312.82,-34.97 328.59,-25.07"/>
<polygon fill="midnightblue" stroke="midnightblue" points="330.61,-27.94 337.22,-19.65 326.89,-22.01 330.61,-27.94"/>
</g>
<!-- Node13&#45;&gt;Node3 -->
<g id="edge20" class="edge">
<title>Node13&#45;&gt;Node3</title>
<path fill="none" stroke="midnightblue" d="M429.84,-336.22C425.47,-317.66 416,-273.02 416,-235 416,-235 416,-235 416,-121 416,-59.73 345.36,-32.54 285.63,-20.5"/>
<polygon fill="midnightblue" stroke="midnightblue" points="286.25,-17.06 275.77,-18.63 284.94,-23.93 286.25,-17.06"/>
</g>
<!-- Node13&#45;&gt;Node5 -->
<g id="edge33" class="edge">
<title>Node13&#45;&gt;Node5</title>
<path fill="none" stroke="midnightblue" d="M425.04,-355.83C415.38,-364.18 398.31,-376.86 383.7,-386.66"/>
<polygon fill="midnightblue" stroke="midnightblue" points="381.47,-383.93 375,-392.32 385.29,-389.79 381.47,-383.93"/>
</g>
<!-- Node13&#45;&gt;Node7 -->
<g id="edge21" class="edge">
<title>Node13&#45;&gt;Node7</title>
<path fill="none" stroke="midnightblue" d="M434.97,-336.28C440.97,-317.82 454,-273.37 454,-235 454,-235 454,-235 454,-177 454,-146.9 455.14,-136.23 473,-112 482.97,-98.48 498.3,-87.83 511.88,-80.29"/>
<polygon fill="midnightblue" stroke="midnightblue" points="513.67,-83.3 520.92,-75.57 510.43,-77.1 513.67,-83.3"/>
</g>
<!-- Node14 -->
<g id="node14" class="node">
<title>Node14</title>
<g id="a_node14"><a xlink:href="../../db/d02/Settings_8hpp.html" target="_top" xlink:title="All user settings and debugging options can be changed here.">
<polygon fill="white" stroke="black" points="551.5,-280.5 551.5,-299.5 628.5,-299.5 628.5,-280.5 551.5,-280.5"/>
<text text-anchor="middle" x="590" y="-287.5" font-family="Helvetica,sans-Serif" font-size="10.00">Settings.hpp</text>
</a>
</g>
</g>
<!-- Node13&#45;&gt;Node14 -->
<g id="edge22" class="edge">
<title>Node13&#45;&gt;Node14</title>
<path fill="none" stroke="midnightblue" d="M457.04,-336.44C483.62,-327.36 525.81,-312.94 555.52,-302.78"/>
<polygon fill="midnightblue" stroke="midnightblue" points="556.75,-306.06 565.08,-299.52 554.49,-299.44 556.75,-306.06"/>
</g>
<!-- Node20 -->
<g id="node20" class="node">
<title>Node20</title>
<g id="a_node20"><a xlink:href="../../d9/d98/TeensyUSBTypes_8hpp.html" target="_top" xlink:title=" ">
<polygon fill="white" stroke="black" points="646.5,-280.5 646.5,-299.5 819.5,-299.5 819.5,-280.5 646.5,-280.5"/>
<text text-anchor="middle" x="733" y="-287.5" font-family="Helvetica,sans-Serif" font-size="10.00">AH/Teensy/TeensyUSBTypes.hpp</text>
</a>
</g>
</g>
<!-- Node13&#45;&gt;Node20 -->
<g id="edge32" class="edge">
<title>Node13&#45;&gt;Node20</title>
<path fill="none" stroke="midnightblue" d="M479.69,-336.44C532.86,-326.9 618.82,-311.48 675.63,-301.29"/>
<polygon fill="midnightblue" stroke="midnightblue" points="676.3,-304.73 685.53,-299.52 675.07,-297.84 676.3,-304.73"/>
</g>
<!-- Node15 -->
<g id="node15" class="node">
<title>Node15</title>
<g id="a_node15"><a xlink:href="../../dc/d50/Frequency_8hpp.html" target="_top" xlink:title=" ">
<polygon fill="white" stroke="black" points="482,-112.5 482,-131.5 616,-131.5 616,-112.5 482,-112.5"/>
<text text-anchor="middle" x="549" y="-119.5" font-family="Helvetica,sans-Serif" font-size="10.00">AH/Types/Frequency.hpp</text>
</a>
</g>
</g>
<!-- Node14&#45;&gt;Node15 -->
<g id="edge23" class="edge">
<title>Node14&#45;&gt;Node15</title>
<path fill="none" stroke="midnightblue" d="M560.12,-280.39C542.46,-273.59 521.55,-262.15 511,-244 491.18,-209.9 517.7,-164.28 535.41,-139.96"/>
<polygon fill="midnightblue" stroke="midnightblue" points="538.39,-141.83 541.66,-131.75 532.82,-137.59 538.39,-141.83"/>
</g>
<!-- Node16 -->
<g id="node16" class="node">
<title>Node16</title>
<g id="a_node16"><a xlink:href="../../d7/d7c/ADCConfig_8hpp.html" target="_top" xlink:title="This file contains the platform&#45;specific ADC resolutions.">
<polygon fill="white" stroke="black" points="520.5,-224.5 520.5,-243.5 677.5,-243.5 677.5,-224.5 520.5,-224.5"/>
<text text-anchor="middle" x="599" y="-231.5" font-family="Helvetica,sans-Serif" font-size="10.00">AH/Hardware/ADCConfig.hpp</text>
</a>
</g>
</g>
<!-- Node14&#45;&gt;Node16 -->
<g id="edge26" class="edge">
<title>Node14&#45;&gt;Node16</title>
<path fill="none" stroke="midnightblue" d="M591.49,-280.08C592.68,-272.93 594.39,-262.64 595.88,-253.69"/>
<polygon fill="midnightblue" stroke="midnightblue" points="599.35,-254.19 597.54,-243.75 592.45,-253.04 599.35,-254.19"/>
</g>
<!-- Node17 -->
<g id="node17" class="node">
<title>Node17</title>
<g id="a_node17"><a xlink:title=" ">
<polygon fill="white" stroke="#bfbfbf" points="695.5,-224.5 695.5,-243.5 748.5,-243.5 748.5,-224.5 695.5,-224.5"/>
<text text-anchor="middle" x="722" y="-231.5" font-family="Helvetica,sans-Serif" font-size="10.00">limits.h</text>
</a>
</g>
</g>
<!-- Node14&#45;&gt;Node17 -->
<g id="edge29" class="edge">
<title>Node14&#45;&gt;Node17</title>
<path fill="none" stroke="midnightblue" d="M610.92,-280.44C632.74,-271.52 667.15,-257.44 691.89,-247.32"/>
<polygon fill="midnightblue" stroke="midnightblue" points="693.25,-250.54 701.18,-243.52 690.6,-244.06 693.25,-250.54"/>
</g>
<!-- Node14&#45;&gt;Node18 -->
<g id="edge30" class="edge">
<title>Node14&#45;&gt;Node18</title>
<path fill="none" stroke="midnightblue" d="M628.72,-281.52C631.52,-281 634.3,-280.49 637,-280 718.37,-265.35 813.96,-249.59 865.83,-241.16"/>
<polygon fill="midnightblue" stroke="midnightblue" points="866.59,-244.58 875.9,-239.52 865.47,-237.67 866.59,-244.58"/>
</g>
<!-- Node19 -->
<g id="node19" class="node">
<title>Node19</title>
<g id="a_node19"><a xlink:title=" ">
<polygon fill="white" stroke="#bfbfbf" points="766.5,-224.5 766.5,-243.5 819.5,-243.5 819.5,-224.5 766.5,-224.5"/>
<text text-anchor="middle" x="793" y="-231.5" font-family="Helvetica,sans-Serif" font-size="10.00">stdint.h</text>
</a>
</g>
</g>
<!-- Node14&#45;&gt;Node19 -->
<g id="edge31" class="edge">
<title>Node14&#45;&gt;Node19</title>
<path fill="none" stroke="midnightblue" d="M622.17,-280.44C658.8,-270.7 718.53,-254.81 756.78,-244.64"/>
<polygon fill="midnightblue" stroke="midnightblue" points="757.72,-248.01 766.48,-242.05 755.92,-241.24 757.72,-248.01"/>
</g>
<!-- Node15&#45;&gt;Node3 -->
<g id="edge24" class="edge">
<title>Node15&#45;&gt;Node3</title>
<path fill="none" stroke="midnightblue" d="M583.28,-112.45C620.01,-101.73 670.13,-81.6 647,-56 641.01,-49.37 412.35,-28.82 285.96,-17.94"/>
<polygon fill="midnightblue" stroke="midnightblue" points="286.19,-14.44 275.93,-17.07 285.59,-21.42 286.19,-14.44"/>
</g>
<!-- Node15&#45;&gt;Node7 -->
<g id="edge25" class="edge">
<title>Node15&#45;&gt;Node7</title>
<path fill="none" stroke="midnightblue" d="M547.68,-112.08C546.62,-104.93 545.09,-94.64 543.77,-85.69"/>
<polygon fill="midnightblue" stroke="midnightblue" points="547.22,-85.13 542.3,-75.75 540.3,-86.16 547.22,-85.13"/>
</g>
<!-- Node16&#45;&gt;Node3 -->
<g id="edge27" class="edge">
<title>Node16&#45;&gt;Node3</title>
<path fill="none" stroke="midnightblue" d="M607.47,-224.46C634.02,-196.71 711.06,-107.89 664,-56 660.85,-52.53 416.84,-30.12 285.55,-18.29"/>
<polygon fill="midnightblue" stroke="midnightblue" points="285.79,-14.8 275.52,-17.39 285.17,-21.77 285.79,-14.8"/>
</g>
<!-- Node16&#45;&gt;Node8 -->
<g id="edge28" class="edge">
<title>Node16&#45;&gt;Node8</title>
<path fill="none" stroke="midnightblue" d="M555.74,-224.44C507.82,-214.96 430.52,-199.67 379,-189.48"/>
<polygon fill="midnightblue" stroke="midnightblue" points="379.54,-186.02 369.06,-187.52 378.19,-192.89 379.54,-186.02"/>
</g>
<!-- Node22&#45;&gt;Node3 -->
<g id="edge41" class="edge">
<title>Node22&#45;&gt;Node3</title>
<path fill="none" stroke="midnightblue" d="M1038.46,-280.41C1025.55,-262.56 998,-219.7 998,-179 998,-179 998,-179 998,-121 998,21.51 824.94,-77.13 684,-56 645.77,-50.27 412.73,-29.37 285.97,-18.19"/>
<polygon fill="midnightblue" stroke="midnightblue" points="286.18,-14.69 275.91,-17.3 285.57,-21.66 286.18,-14.69"/>
</g>
<!-- Node22&#45;&gt;Node7 -->
<g id="edge40" class="edge">
<title>Node22&#45;&gt;Node7</title>
<path fill="none" stroke="midnightblue" d="M1043.09,-280.4C1036.03,-250.86 1008.41,-153.12 944,-112 896.55,-81.71 751.11,-71.7 648.63,-68.46"/>
<polygon fill="midnightblue" stroke="midnightblue" points="648.64,-64.96 638.54,-68.16 648.43,-71.95 648.64,-64.96"/>
</g>
<!-- Node22&#45;&gt;Node12 -->
<g id="edge39" class="edge">
<title>Node22&#45;&gt;Node12</title>
<path fill="none" stroke="midnightblue" d="M1041.91,-280.23C1033.89,-258.56 1010.44,-201.78 974,-168 958.38,-153.52 937.23,-142.73 919.14,-135.36"/>
<polygon fill="midnightblue" stroke="midnightblue" points="920.06,-131.96 909.47,-131.61 917.53,-138.49 920.06,-131.96"/>
</g>
<!-- Node22&#45;&gt;Node18 -->
<g id="edge42" class="edge">
<title>Node22&#45;&gt;Node18</title>
<path fill="none" stroke="midnightblue" d="M1022.66,-280.44C999.25,-271.48 962.26,-257.31 935.81,-247.18"/>
<polygon fill="midnightblue" stroke="midnightblue" points="936.83,-243.82 926.24,-243.52 934.32,-250.36 936.83,-243.82"/>
</g>
<!-- Node22&#45;&gt;Node23 -->
<g id="edge38" class="edge">
<title>Node22&#45;&gt;Node23</title>
<path fill="none" stroke="midnightblue" d="M1061.23,-280.32C1077.35,-271.7 1102.3,-258.36 1120.96,-248.39"/>
<polygon fill="midnightblue" stroke="midnightblue" points="1122.64,-251.46 1129.81,-243.65 1119.34,-245.28 1122.64,-251.46"/>
</g>
</g>
</svg>
