<?xml version="1.0" encoding="UTF-8" standalone="no"?>
<!DOCTYPE svg PUBLIC "-//W3C//DTD SVG 1.1//EN"
 "http://www.w3.org/Graphics/SVG/1.1/DTD/svg11.dtd">
<!-- Generated by graphviz version 2.43.0 (0)
 -->
<!-- Title: FixedPoint.hpp Pages: 1 -->
<svg width="1111pt" height="532pt"
 viewBox="0.00 0.00 1110.50 532.00" xmlns="http://www.w3.org/2000/svg" xmlns:xlink="http://www.w3.org/1999/xlink">
<g id="graph0" class="graph" transform="scale(1 1) rotate(0) translate(4 528)">
<title>FixedPoint.hpp</title>
<polygon fill="white" stroke="transparent" points="-4,4 -4,-528 1106.5,-528 1106.5,4 -4,4"/>
<!-- Node1 -->
<g id="node1" class="node">
<title>Node1</title>
<g id="a_node1"><a xlink:title=" ">
<polygon fill="#bfbfbf" stroke="black" points="239.5,-504.5 239.5,-523.5 327.5,-523.5 327.5,-504.5 239.5,-504.5"/>
<text text-anchor="middle" x="283.5" y="-511.5" font-family="Helvetica,sans-Serif" font-size="10.00">FixedPoint.hpp</text>
</a>
</g>
</g>
<!-- Node2 -->
<g id="node2" class="node">
<title>Node2</title>
<g id="a_node2"><a xlink:title=" ">
<polygon fill="white" stroke="#bfbfbf" points="0,-448.5 0,-467.5 85,-467.5 85,-448.5 0,-448.5"/>
<text text-anchor="middle" x="42.5" y="-455.5" font-family="Helvetica,sans-Serif" font-size="10.00">AH/STL/cmath</text>
</a>
</g>
</g>
<!-- Node1&#45;&gt;Node2 -->
<g id="edge1" class="edge">
<title>Node1&#45;&gt;Node2</title>
<path fill="none" stroke="midnightblue" d="M245.31,-504.44C203.36,-495.04 135.91,-479.93 90.43,-469.74"/>
<polygon fill="midnightblue" stroke="midnightblue" points="91.03,-466.29 80.51,-467.52 89.5,-473.12 91.03,-466.29"/>
</g>
<!-- Node3 -->
<g id="node3" class="node">
<title>Node3</title>
<g id="a_node3"><a xlink:title=" ">
<polygon fill="white" stroke="#bfbfbf" points="103,-448.5 103,-467.5 190,-467.5 190,-448.5 103,-448.5"/>
<text text-anchor="middle" x="146.5" y="-455.5" font-family="Helvetica,sans-Serif" font-size="10.00">AH/STL/cstdint</text>
</a>
</g>
</g>
<!-- Node1&#45;&gt;Node3 -->
<g id="edge2" class="edge">
<title>Node1&#45;&gt;Node3</title>
<path fill="none" stroke="midnightblue" d="M261.79,-504.44C239.15,-495.52 203.43,-481.44 177.75,-471.32"/>
<polygon fill="midnightblue" stroke="midnightblue" points="178.69,-467.93 168.11,-467.52 176.13,-474.44 178.69,-467.93"/>
</g>
<!-- Node4 -->
<g id="node4" class="node">
<title>Node4</title>
<g id="a_node4"><a xlink:title=" ">
<polygon fill="white" stroke="#bfbfbf" points="208.5,-448.5 208.5,-467.5 290.5,-467.5 290.5,-448.5 208.5,-448.5"/>
<text text-anchor="middle" x="249.5" y="-455.5" font-family="Helvetica,sans-Serif" font-size="10.00">AH/STL/limits</text>
</a>
</g>
</g>
<!-- Node1&#45;&gt;Node4 -->
<g id="edge3" class="edge">
<title>Node1&#45;&gt;Node4</title>
<path fill="none" stroke="midnightblue" d="M277.89,-504.08C273.13,-496.53 266.18,-485.49 260.35,-476.23"/>
<polygon fill="midnightblue" stroke="midnightblue" points="263.3,-474.35 255.01,-467.75 257.38,-478.08 263.3,-474.35"/>
</g>
<!-- Node5 -->
<g id="node5" class="node">
<title>Node5</title>
<g id="a_node5"><a xlink:title=" ">
<polygon fill="white" stroke="#bfbfbf" points="192,-112.5 192,-131.5 299,-131.5 299,-112.5 192,-112.5"/>
<text text-anchor="middle" x="245.5" y="-119.5" font-family="Helvetica,sans-Serif" font-size="10.00">AH/STL/type_traits</text>
</a>
</g>
</g>
<!-- Node1&#45;&gt;Node5 -->
<g id="edge4" class="edge">
<title>Node1&#45;&gt;Node5</title>
<path fill="none" stroke="midnightblue" d="M288.22,-504.46C297.77,-486.34 318.5,-442.48 318.5,-403 318.5,-403 318.5,-403 318.5,-233 318.5,-193.78 285.88,-157.84 264.25,-138.32"/>
<polygon fill="midnightblue" stroke="midnightblue" points="266.43,-135.58 256.59,-131.67 261.85,-140.87 266.43,-135.58"/>
</g>
<!-- Node6 -->
<g id="node6" class="node">
<title>Node6</title>
<g id="a_node6"><a xlink:href="../../d1/d93/Error_8hpp.html" target="_top" xlink:title=" ">
<polygon fill="white" stroke="black" points="621.5,-448.5 621.5,-467.5 725.5,-467.5 725.5,-448.5 621.5,-448.5"/>
<text text-anchor="middle" x="673.5" y="-455.5" font-family="Helvetica,sans-Serif" font-size="10.00">AH/Error/Error.hpp</text>
</a>
</g>
</g>
<!-- Node1&#45;&gt;Node6 -->
<g id="edge5" class="edge">
<title>Node1&#45;&gt;Node6</title>
<path fill="none" stroke="midnightblue" d="M327.86,-506.86C397.31,-497.24 531.95,-478.6 611.13,-467.64"/>
<polygon fill="midnightblue" stroke="midnightblue" points="612.03,-471.05 621.45,-466.21 611.07,-464.11 612.03,-471.05"/>
</g>
<!-- Node9 -->
<g id="node9" class="node">
<title>Node9</title>
<g id="a_node9"><a xlink:href="../../dd/d80/PrintStream_8hpp.html" target="_top" xlink:title=" ">
<polygon fill="white" stroke="black" points="347,-224.5 347,-243.5 520,-243.5 520,-224.5 347,-224.5"/>
<text text-anchor="middle" x="433.5" y="-231.5" font-family="Helvetica,sans-Serif" font-size="10.00">AH/PrintStream/PrintStream.hpp</text>
</a>
</g>
</g>
<!-- Node1&#45;&gt;Node9 -->
<g id="edge36" class="edge">
<title>Node1&#45;&gt;Node9</title>
<path fill="none" stroke="midnightblue" d="M303.34,-504.39C335.27,-489.04 394.5,-453.73 394.5,-403 394.5,-403 394.5,-403 394.5,-345 394.5,-310.72 411.54,-273.7 423.09,-252.54"/>
<polygon fill="midnightblue" stroke="midnightblue" points="426.19,-254.17 428.08,-243.75 420.1,-250.72 426.19,-254.17"/>
</g>
<!-- Node7 -->
<g id="node7" class="node">
<title>Node7</title>
<g id="a_node7"><a xlink:href="../../d1/d65/Warnings_8hpp.html" target="_top" xlink:title=" ">
<polygon fill="white" stroke="black" points="647,-0.5 647,-19.5 790,-19.5 790,-0.5 647,-0.5"/>
<text text-anchor="middle" x="718.5" y="-7.5" font-family="Helvetica,sans-Serif" font-size="10.00">AH/Settings/Warnings.hpp</text>
</a>
</g>
</g>
<!-- Node6&#45;&gt;Node7 -->
<g id="edge6" class="edge">
<title>Node6&#45;&gt;Node7</title>
<path fill="none" stroke="midnightblue" d="M725.67,-454.57C840,-447.84 1102.5,-423.98 1102.5,-347 1102.5,-347 1102.5,-347 1102.5,-121 1102.5,-72.38 1059.41,-74.64 1014.5,-56 945.86,-27.5 861.56,-16.8 800.5,-12.9"/>
<polygon fill="midnightblue" stroke="midnightblue" points="800.34,-9.39 790.15,-12.29 799.93,-16.38 800.34,-9.39"/>
</g>
<!-- Node8 -->
<g id="node8" class="node">
<title>Node8</title>
<g id="a_node8"><a xlink:href="../../df/dee/Debug_8hpp.html" target="_top" xlink:title=" ">
<polygon fill="white" stroke="black" points="613,-392.5 613,-411.5 734,-411.5 734,-392.5 613,-392.5"/>
<text text-anchor="middle" x="673.5" y="-399.5" font-family="Helvetica,sans-Serif" font-size="10.00">AH/Debug/Debug.hpp</text>
</a>
</g>
</g>
<!-- Node6&#45;&gt;Node8 -->
<g id="edge7" class="edge">
<title>Node6&#45;&gt;Node8</title>
<path fill="none" stroke="midnightblue" d="M673.5,-448.08C673.5,-441.01 673.5,-430.86 673.5,-421.99"/>
<polygon fill="midnightblue" stroke="midnightblue" points="677,-421.75 673.5,-411.75 670,-421.75 677,-421.75"/>
</g>
<!-- Node8&#45;&gt;Node7 -->
<g id="edge8" class="edge">
<title>Node8&#45;&gt;Node7</title>
<path fill="none" stroke="midnightblue" d="M734.16,-396.54C843.99,-386.8 1064.5,-358.78 1064.5,-291 1064.5,-291 1064.5,-291 1064.5,-121 1064.5,-65.79 902.51,-34.64 800.2,-20.46"/>
<polygon fill="midnightblue" stroke="midnightblue" points="800.57,-16.98 790.19,-19.1 799.63,-23.92 800.57,-16.98"/>
</g>
<!-- Node8&#45;&gt;Node9 -->
<g id="edge9" class="edge">
<title>Node8&#45;&gt;Node9</title>
<path fill="none" stroke="midnightblue" d="M650.4,-392.49C629.93,-384.48 599.65,-371.41 575.5,-356 525.24,-323.92 473.84,-275.41 448.93,-250.69"/>
<polygon fill="midnightblue" stroke="midnightblue" points="451.34,-248.16 441.8,-243.55 446.39,-253.1 451.34,-248.16"/>
</g>
<!-- Node15 -->
<g id="node15" class="node">
<title>Node15</title>
<g id="a_node15"><a xlink:href="../../d2/dd5/SettingsWrapper_8hpp.html" target="_top" xlink:title=" ">
<polygon fill="white" stroke="black" points="584.5,-336.5 584.5,-355.5 762.5,-355.5 762.5,-336.5 584.5,-336.5"/>
<text text-anchor="middle" x="673.5" y="-343.5" font-family="Helvetica,sans-Serif" font-size="10.00">AH/Settings/SettingsWrapper.hpp</text>
</a>
</g>
</g>
<!-- Node8&#45;&gt;Node15 -->
<g id="edge21" class="edge">
<title>Node8&#45;&gt;Node15</title>
<path fill="none" stroke="midnightblue" d="M668.33,-392.08C666.82,-384.93 666.39,-374.64 667.04,-365.69"/>
<polygon fill="midnightblue" stroke="midnightblue" points="670.52,-366.13 668.37,-355.75 663.58,-365.2 670.52,-366.13"/>
</g>
<!-- Node9&#45;&gt;Node7 -->
<g id="edge11" class="edge">
<title>Node9&#45;&gt;Node7</title>
<path fill="none" stroke="midnightblue" d="M346.98,-225.4C262.99,-213.7 152.38,-184.44 183.5,-112 197.77,-78.78 209.59,-70.97 242.5,-56 310.71,-24.98 519.48,-15.33 636.61,-12.34"/>
<polygon fill="midnightblue" stroke="midnightblue" points="637.05,-15.83 646.96,-12.09 636.87,-8.83 637.05,-15.83"/>
</g>
<!-- Node10 -->
<g id="node10" class="node">
<title>Node10</title>
<g id="a_node10"><a xlink:href="../../dc/dc7/NamespaceSettings_8hpp.html" target="_top" xlink:title=" ">
<polygon fill="white" stroke="black" points="477,-56.5 477,-75.5 672,-75.5 672,-56.5 477,-56.5"/>
<text text-anchor="middle" x="574.5" y="-63.5" font-family="Helvetica,sans-Serif" font-size="10.00">AH/Settings/NamespaceSettings.hpp</text>
</a>
</g>
</g>
<!-- Node9&#45;&gt;Node10 -->
<g id="edge10" class="edge">
<title>Node9&#45;&gt;Node10</title>
<path fill="none" stroke="midnightblue" d="M447.93,-224.42C461.05,-216.17 480.45,-202.79 494.5,-188 525.44,-155.42 552.11,-109.48 565.44,-84.63"/>
<polygon fill="midnightblue" stroke="midnightblue" points="568.6,-86.13 570.16,-75.65 562.41,-82.87 568.6,-86.13"/>
</g>
<!-- Node11 -->
<g id="node11" class="node">
<title>Node11</title>
<g id="a_node11"><a xlink:href="../../d6/ddf/Arduino-Wrapper_8h.html" target="_top" xlink:title=" ">
<polygon fill="white" stroke="black" points="361.5,-168.5 361.5,-187.5 485.5,-187.5 485.5,-168.5 361.5,-168.5"/>
<text text-anchor="middle" x="423.5" y="-175.5" font-family="Helvetica,sans-Serif" font-size="10.00">AH/Arduino&#45;Wrapper.h</text>
</a>
</g>
</g>
<!-- Node9&#45;&gt;Node11 -->
<g id="edge12" class="edge">
<title>Node9&#45;&gt;Node11</title>
<path fill="none" stroke="midnightblue" d="M431.85,-224.08C430.52,-216.93 428.62,-206.64 426.96,-197.69"/>
<polygon fill="midnightblue" stroke="midnightblue" points="430.38,-196.95 425.12,-187.75 423.5,-198.22 430.38,-196.95"/>
</g>
<!-- Node11&#45;&gt;Node5 -->
<g id="edge19" class="edge">
<title>Node11&#45;&gt;Node5</title>
<path fill="none" stroke="midnightblue" d="M395.3,-168.44C365.09,-159.28 316.99,-144.69 283.47,-134.52"/>
<polygon fill="midnightblue" stroke="midnightblue" points="284.16,-131.07 273.57,-131.52 282.13,-137.77 284.16,-131.07"/>
</g>
<!-- Node12 -->
<g id="node12" class="node">
<title>Node12</title>
<g id="a_node12"><a xlink:href="../../d7/d79/MinMaxFix_8hpp.html" target="_top" xlink:title=" ">
<polygon fill="white" stroke="black" points="355.5,-112.5 355.5,-131.5 491.5,-131.5 491.5,-112.5 355.5,-112.5"/>
<text text-anchor="middle" x="423.5" y="-119.5" font-family="Helvetica,sans-Serif" font-size="10.00">AH/Math/MinMaxFix.hpp</text>
</a>
</g>
</g>
<!-- Node11&#45;&gt;Node12 -->
<g id="edge13" class="edge">
<title>Node11&#45;&gt;Node12</title>
<path fill="none" stroke="midnightblue" d="M423.5,-168.08C423.5,-161.01 423.5,-150.86 423.5,-141.99"/>
<polygon fill="midnightblue" stroke="midnightblue" points="427,-141.75 423.5,-131.75 420,-141.75 427,-141.75"/>
</g>
<!-- Node14 -->
<g id="node14" class="node">
<title>Node14</title>
<g id="a_node14"><a xlink:title=" ">
<polygon fill="white" stroke="#bfbfbf" points="249,-0.5 249,-19.5 312,-19.5 312,-0.5 249,-0.5"/>
<text text-anchor="middle" x="280.5" y="-7.5" font-family="Helvetica,sans-Serif" font-size="10.00">Arduino.h</text>
</a>
</g>
</g>
<!-- Node11&#45;&gt;Node14 -->
<g id="edge20" class="edge">
<title>Node11&#45;&gt;Node14</title>
<path fill="none" stroke="midnightblue" d="M408.29,-168.3C386.31,-155.77 344.39,-131.93 308.5,-112 279.29,-95.78 259.56,-104.73 242.5,-76 232.42,-59.02 247.46,-39.45 261.49,-26.26"/>
<polygon fill="midnightblue" stroke="midnightblue" points="263.82,-28.88 269.01,-19.64 259.19,-23.62 263.82,-28.88"/>
</g>
<!-- Node12&#45;&gt;Node7 -->
<g id="edge14" class="edge">
<title>Node12&#45;&gt;Node7</title>
<path fill="none" stroke="midnightblue" d="M426.94,-112.18C433,-97.87 447.03,-69.81 468.5,-56 495.86,-38.4 574.72,-26.14 636.63,-18.91"/>
<polygon fill="midnightblue" stroke="midnightblue" points="637.26,-22.36 646.8,-17.75 636.47,-15.41 637.26,-22.36"/>
</g>
<!-- Node12&#45;&gt;Node10 -->
<g id="edge18" class="edge">
<title>Node12&#45;&gt;Node10</title>
<path fill="none" stroke="midnightblue" d="M447.43,-112.44C472.72,-103.4 512.8,-89.06 541.18,-78.92"/>
<polygon fill="midnightblue" stroke="midnightblue" points="542.45,-82.18 550.69,-75.52 540.09,-75.59 542.45,-82.18"/>
</g>
<!-- Node13 -->
<g id="node13" class="node">
<title>Node13</title>
<g id="a_node13"><a xlink:href="../../d6/d3b/FixArduinoMacros_8hpp.html" target="_top" xlink:title=" ">
<polygon fill="white" stroke="black" points="251.5,-56.5 251.5,-75.5 421.5,-75.5 421.5,-56.5 251.5,-56.5"/>
<text text-anchor="middle" x="336.5" y="-63.5" font-family="Helvetica,sans-Serif" font-size="10.00">AH/Math/FixArduinoMacros.hpp</text>
</a>
</g>
</g>
<!-- Node12&#45;&gt;Node13 -->
<g id="edge15" class="edge">
<title>Node12&#45;&gt;Node13</title>
<path fill="none" stroke="midnightblue" d="M409.52,-112.32C395.95,-103.9 375.12,-90.97 359.18,-81.07"/>
<polygon fill="midnightblue" stroke="midnightblue" points="360.79,-77.95 350.44,-75.65 357.09,-83.9 360.79,-77.95"/>
</g>
<!-- Node13&#45;&gt;Node7 -->
<g id="edge16" class="edge">
<title>Node13&#45;&gt;Node7</title>
<path fill="none" stroke="midnightblue" d="M397.03,-56.44C465.2,-46.81 575.86,-31.16 647.91,-20.98"/>
<polygon fill="midnightblue" stroke="midnightblue" points="648.84,-24.38 658.25,-19.52 647.86,-17.45 648.84,-24.38"/>
</g>
<!-- Node13&#45;&gt;Node14 -->
<g id="edge17" class="edge">
<title>Node13&#45;&gt;Node14</title>
<path fill="none" stroke="midnightblue" d="M327.5,-56.32C319.31,-48.42 306.99,-36.55 297.03,-26.94"/>
<polygon fill="midnightblue" stroke="midnightblue" points="299.29,-24.26 289.66,-19.83 294.43,-29.29 299.29,-24.26"/>
</g>
<!-- Node15&#45;&gt;Node7 -->
<g id="edge22" class="edge">
<title>Node15&#45;&gt;Node7</title>
<path fill="none" stroke="midnightblue" d="M646.57,-336.36C629.78,-329.41 609.52,-317.82 599.5,-300 595.14,-292.25 598.27,-288.8 599.5,-280 603.09,-254.37 606.28,-248.19 615.5,-224 644.01,-149.25 688.76,-64.94 708.54,-28.9"/>
<polygon fill="midnightblue" stroke="midnightblue" points="711.85,-30.13 713.62,-19.69 705.72,-26.75 711.85,-30.13"/>
</g>
<!-- Node15&#45;&gt;Node8 -->
<g id="edge35" class="edge">
<title>Node15&#45;&gt;Node8</title>
<path fill="none" stroke="midnightblue" d="M678.63,-355.75C680.16,-362.86 680.6,-373.14 679.97,-382.1"/>
<polygon fill="midnightblue" stroke="midnightblue" points="676.49,-381.71 678.67,-392.08 683.43,-382.62 676.49,-381.71"/>
</g>
<!-- Node15&#45;&gt;Node10 -->
<g id="edge23" class="edge">
<title>Node15&#45;&gt;Node10</title>
<path fill="none" stroke="midnightblue" d="M657.75,-336.49C644.65,-328.64 626.44,-315.83 615.5,-300 598.32,-275.13 595.5,-265.23 595.5,-235 595.5,-235 595.5,-235 595.5,-177 595.5,-144.38 586.48,-107.28 580.27,-85.57"/>
<polygon fill="midnightblue" stroke="midnightblue" points="583.54,-84.32 577.33,-75.73 576.83,-86.32 583.54,-84.32"/>
</g>
<!-- Node16 -->
<g id="node16" class="node">
<title>Node16</title>
<g id="a_node16"><a xlink:href="../../db/d02/Settings_8hpp.html" target="_top" xlink:title="All user settings and debugging options can be changed here.">
<polygon fill="white" stroke="black" points="837,-280.5 837,-299.5 914,-299.5 914,-280.5 837,-280.5"/>
<text text-anchor="middle" x="875.5" y="-287.5" font-family="Helvetica,sans-Serif" font-size="10.00">Settings.hpp</text>
</a>
</g>
</g>
<!-- Node15&#45;&gt;Node16 -->
<g id="edge24" class="edge">
<title>Node15&#45;&gt;Node16</title>
<path fill="none" stroke="midnightblue" d="M705.51,-336.44C740.23,-327.16 795.79,-312.31 833.88,-302.13"/>
<polygon fill="midnightblue" stroke="midnightblue" points="834.89,-305.48 843.64,-299.52 833.08,-298.72 834.89,-305.48"/>
</g>
<!-- Node22 -->
<g id="node22" class="node">
<title>Node22</title>
<g id="a_node22"><a xlink:href="../../d9/d98/TeensyUSBTypes_8hpp.html" target="_top" xlink:title=" ">
<polygon fill="white" stroke="black" points="624,-280.5 624,-299.5 797,-299.5 797,-280.5 624,-280.5"/>
<text text-anchor="middle" x="710.5" y="-287.5" font-family="Helvetica,sans-Serif" font-size="10.00">AH/Teensy/TeensyUSBTypes.hpp</text>
</a>
</g>
</g>
<!-- Node15&#45;&gt;Node22 -->
<g id="edge34" class="edge">
<title>Node15&#45;&gt;Node22</title>
<path fill="none" stroke="midnightblue" d="M679.61,-336.08C684.78,-328.53 692.35,-317.49 698.69,-308.23"/>
<polygon fill="midnightblue" stroke="midnightblue" points="701.74,-309.98 704.5,-299.75 695.96,-306.02 701.74,-309.98"/>
</g>
<!-- Node17 -->
<g id="node17" class="node">
<title>Node17</title>
<g id="a_node17"><a xlink:href="../../dc/d50/Frequency_8hpp.html" target="_top" xlink:title=" ">
<polygon fill="white" stroke="black" points="765.5,-112.5 765.5,-131.5 899.5,-131.5 899.5,-112.5 765.5,-112.5"/>
<text text-anchor="middle" x="832.5" y="-119.5" font-family="Helvetica,sans-Serif" font-size="10.00">AH/Types/Frequency.hpp</text>
</a>
</g>
</g>
<!-- Node16&#45;&gt;Node17 -->
<g id="edge25" class="edge">
<title>Node16&#45;&gt;Node17</title>
<path fill="none" stroke="midnightblue" d="M914.29,-285.11C960.76,-278.69 1029.73,-262.49 1007.5,-224 979.49,-175.49 918.32,-148.2 876.27,-134.53"/>
<polygon fill="midnightblue" stroke="midnightblue" points="877.14,-131.13 866.55,-131.5 875.06,-137.82 877.14,-131.13"/>
</g>
<!-- Node18 -->
<g id="node18" class="node">
<title>Node18</title>
<g id="a_node18"><a xlink:href="../../d7/d7c/ADCConfig_8hpp.html" target="_top" xlink:title="This file contains the platform&#45;specific ADC resolutions.">
<polygon fill="white" stroke="black" points="624,-224.5 624,-243.5 781,-243.5 781,-224.5 624,-224.5"/>
<text text-anchor="middle" x="702.5" y="-231.5" font-family="Helvetica,sans-Serif" font-size="10.00">AH/Hardware/ADCConfig.hpp</text>
</a>
</g>
</g>
<!-- Node16&#45;&gt;Node18 -->
<g id="edge28" class="edge">
<title>Node16&#45;&gt;Node18</title>
<path fill="none" stroke="midnightblue" d="M848.09,-280.44C818.73,-271.28 771.98,-256.69 739.4,-246.52"/>
<polygon fill="midnightblue" stroke="midnightblue" points="740.37,-243.16 729.78,-243.52 738.29,-249.84 740.37,-243.16"/>
</g>
<!-- Node19 -->
<g id="node19" class="node">
<title>Node19</title>
<g id="a_node19"><a xlink:title=" ">
<polygon fill="white" stroke="#bfbfbf" points="799,-224.5 799,-243.5 852,-243.5 852,-224.5 799,-224.5"/>
<text text-anchor="middle" x="825.5" y="-231.5" font-family="Helvetica,sans-Serif" font-size="10.00">limits.h</text>
</a>
</g>
</g>
<!-- Node16&#45;&gt;Node19 -->
<g id="edge31" class="edge">
<title>Node16&#45;&gt;Node19</title>
<path fill="none" stroke="midnightblue" d="M867.24,-280.08C860.04,-272.3 849.39,-260.8 840.65,-251.37"/>
<polygon fill="midnightblue" stroke="midnightblue" points="842.97,-248.71 833.6,-243.75 837.83,-253.47 842.97,-248.71"/>
</g>
<!-- Node20 -->
<g id="node20" class="node">
<title>Node20</title>
<g id="a_node20"><a xlink:title=" ">
<polygon fill="white" stroke="#bfbfbf" points="870.5,-224.5 870.5,-243.5 926.5,-243.5 926.5,-224.5 870.5,-224.5"/>
<text text-anchor="middle" x="898.5" y="-231.5" font-family="Helvetica,sans-Serif" font-size="10.00">stddef.h</text>
</a>
</g>
</g>
<!-- Node16&#45;&gt;Node20 -->
<g id="edge32" class="edge">
<title>Node16&#45;&gt;Node20</title>
<path fill="none" stroke="midnightblue" d="M879.3,-280.08C882.41,-272.77 886.92,-262.18 890.79,-253.1"/>
<polygon fill="midnightblue" stroke="midnightblue" points="894.07,-254.32 894.77,-243.75 887.63,-251.58 894.07,-254.32"/>
</g>
<!-- Node21 -->
<g id="node21" class="node">
<title>Node21</title>
<g id="a_node21"><a xlink:title=" ">
<polygon fill="white" stroke="#bfbfbf" points="945,-224.5 945,-243.5 998,-243.5 998,-224.5 945,-224.5"/>
<text text-anchor="middle" x="971.5" y="-231.5" font-family="Helvetica,sans-Serif" font-size="10.00">stdint.h</text>
</a>
</g>
</g>
<!-- Node16&#45;&gt;Node21 -->
<g id="edge33" class="edge">
<title>Node16&#45;&gt;Node21</title>
<path fill="none" stroke="midnightblue" d="M890.92,-280.32C906.04,-271.82 929.32,-258.73 946.97,-248.8"/>
<polygon fill="midnightblue" stroke="midnightblue" points="949.11,-251.61 956.11,-243.65 945.68,-245.51 949.11,-251.61"/>
</g>
<!-- Node17&#45;&gt;Node7 -->
<g id="edge26" class="edge">
<title>Node17&#45;&gt;Node7</title>
<path fill="none" stroke="midnightblue" d="M823.55,-112.37C804.41,-93.89 759.22,-50.29 734.82,-26.74"/>
<polygon fill="midnightblue" stroke="midnightblue" points="737.03,-24.02 727.4,-19.59 732.17,-29.05 737.03,-24.02"/>
</g>
<!-- Node17&#45;&gt;Node10 -->
<g id="edge27" class="edge">
<title>Node17&#45;&gt;Node10</title>
<path fill="none" stroke="midnightblue" d="M791.62,-112.44C746.52,-103 673.89,-87.8 625.2,-77.61"/>
<polygon fill="midnightblue" stroke="midnightblue" points="625.69,-74.14 615.19,-75.52 624.26,-80.99 625.69,-74.14"/>
</g>
<!-- Node18&#45;&gt;Node7 -->
<g id="edge29" class="edge">
<title>Node18&#45;&gt;Node7</title>
<path fill="none" stroke="midnightblue" d="M703.13,-224.3C705.48,-191.63 713.82,-75.87 717.13,-29.96"/>
<polygon fill="midnightblue" stroke="midnightblue" points="720.63,-30.11 717.86,-19.88 713.65,-29.61 720.63,-30.11"/>
</g>
<!-- Node18&#45;&gt;Node11 -->
<g id="edge30" class="edge">
<title>Node18&#45;&gt;Node11</title>
<path fill="none" stroke="midnightblue" d="M658.29,-224.44C609.21,-214.94 529.99,-199.61 477.34,-189.42"/>
<polygon fill="midnightblue" stroke="midnightblue" points="477.98,-185.98 467.5,-187.52 476.65,-192.85 477.98,-185.98"/>
</g>
</g>
</svg>
