<?xml version="1.0" encoding="UTF-8" standalone="no"?>
<!DOCTYPE svg PUBLIC "-//W3C//DTD SVG 1.1//EN"
 "http://www.w3.org/Graphics/SVG/1.1/DTD/svg11.dtd">
<!-- Generated by graphviz version 2.38.0 (20140413.2041)
 -->
<!-- Title: NamespaceSettings.hpp Pages: 1 -->
<svg width="1355pt" height="700pt"
 viewBox="0.00 0.00 1354.50 700.00" xmlns="http://www.w3.org/2000/svg" xmlns:xlink="http://www.w3.org/1999/xlink">
<g id="graph0" class="graph" transform="scale(1 1) rotate(0) translate(4 696)">
<title>NamespaceSettings.hpp</title>
<polygon fill="white" stroke="none" points="-4,4 -4,-696 1350.5,-696 1350.5,4 -4,4"/>
<!-- Node1 -->
<g id="node1" class="node"><title>Node1</title>
<g id="a_node1"><a xlink:title=" ">
<polygon fill="#bfbfbf" stroke="black" points="952,-672.5 952,-691.5 1076,-691.5 1076,-672.5 952,-672.5"/>
<text text-anchor="middle" x="1014" y="-679.5" font-family="Helvetica,sans-Serif" font-size="10.00">NamespaceSettings.hpp</text>
</a>
</g>
</g>
<!-- Node2 -->
<g id="node2" class="node"><title>Node2</title>
<g id="a_node2"><a xlink:href="../../d1/d40/BitArray_8hpp.html" target="_top" xlink:title=" ">
<polygon fill="white" stroke="black" points="140.5,-168.5 140.5,-187.5 211.5,-187.5 211.5,-168.5 140.5,-168.5"/>
<text text-anchor="middle" x="176" y="-175.5" font-family="Helvetica,sans-Serif" font-size="10.00">BitArray.hpp</text>
</a>
</g>
</g>
<!-- Node1&#45;&gt;Node2 -->
<g id="edge1" class="edge"><title>Node1&#45;&gt;Node2</title>
<path fill="none" stroke="midnightblue" d="M941.696,-680.744C709.839,-678.975 0,-665.819 0,-571 0,-571 0,-571 0,-289 0,-223.421 88.9561,-195.489 140.384,-184.821"/>
<polygon fill="midnightblue" stroke="midnightblue" points="941.691,-684.244 951.716,-680.815 941.741,-677.244 941.691,-684.244"/>
</g>
<!-- Node10 -->
<g id="node10" class="node"><title>Node10</title>
<g id="a_node10"><a xlink:href="../../d4/d35/Hardware-Types_8hpp.html" target="_top" xlink:title=" ">
<polygon fill="white" stroke="black" points="926.5,-280.5 926.5,-299.5 1033.5,-299.5 1033.5,-280.5 926.5,-280.5"/>
<text text-anchor="middle" x="980" y="-287.5" font-family="Helvetica,sans-Serif" font-size="10.00">Hardware&#45;Types.hpp</text>
</a>
</g>
</g>
<!-- Node1&#45;&gt;Node10 -->
<g id="edge13" class="edge"><title>Node1&#45;&gt;Node10</title>
<path fill="none" stroke="midnightblue" d="M1031.93,-665.566C1052.67,-645.896 1084,-609.768 1084,-571 1084,-571 1084,-571 1084,-401 1084,-351.591 1027.91,-315.428 998.115,-299.702"/>
<polygon fill="midnightblue" stroke="midnightblue" points="1029.36,-663.173 1024.33,-672.496 1034.08,-668.345 1029.36,-663.173"/>
</g>
<!-- Node30 -->
<g id="node30" class="node"><title>Node30</title>
<g id="a_node30"><a xlink:href="../../d7/d79/MinMaxFix_8hpp.html" target="_top" xlink:title=" ">
<polygon fill="white" stroke="black" points="972.5,-448.5 972.5,-467.5 1055.5,-467.5 1055.5,-448.5 972.5,-448.5"/>
<text text-anchor="middle" x="1014" y="-455.5" font-family="Helvetica,sans-Serif" font-size="10.00">MinMaxFix.hpp</text>
</a>
</g>
</g>
<!-- Node1&#45;&gt;Node30 -->
<g id="edge44" class="edge"><title>Node1&#45;&gt;Node30</title>
<path fill="none" stroke="midnightblue" d="M1014,-662.295C1014,-616.644 1014,-500.854 1014,-467.884"/>
<polygon fill="midnightblue" stroke="midnightblue" points="1010.5,-662.297 1014,-672.297 1017.5,-662.297 1010.5,-662.297"/>
</g>
<!-- Node33 -->
<g id="node33" class="node"><title>Node33</title>
<g id="a_node33"><a xlink:href="../../d2/dd5/SettingsWrapper_8hpp.html" target="_top" xlink:title=" ">
<polygon fill="white" stroke="black" points="808,-504.5 808,-523.5 916,-523.5 916,-504.5 808,-504.5"/>
<text text-anchor="middle" x="862" y="-511.5" font-family="Helvetica,sans-Serif" font-size="10.00">SettingsWrapper.hpp</text>
</a>
</g>
</g>
<!-- Node1&#45;&gt;Node33 -->
<g id="edge49" class="edge"><title>Node1&#45;&gt;Node33</title>
<path fill="none" stroke="midnightblue" d="M949.942,-669.563C929.234,-662.927 907.82,-652.467 893,-636 863.262,-602.956 861.273,-545.243 861.66,-523.559"/>
<polygon fill="midnightblue" stroke="midnightblue" points="949.117,-672.969 959.698,-672.437 951.095,-666.254 949.117,-672.969"/>
</g>
<!-- Node45 -->
<g id="node45" class="node"><title>Node45</title>
<g id="a_node45"><a xlink:href="../../d1/dd0/MillisMicrosTimer_8hpp.html" target="_top" xlink:title=" ">
<polygon fill="white" stroke="black" points="1112,-616.5 1112,-635.5 1224,-635.5 1224,-616.5 1112,-616.5"/>
<text text-anchor="middle" x="1168" y="-623.5" font-family="Helvetica,sans-Serif" font-size="10.00">MillisMicrosTimer.hpp</text>
</a>
</g>
</g>
<!-- Node1&#45;&gt;Node45 -->
<g id="edge74" class="edge"><title>Node1&#45;&gt;Node45</title>
<path fill="none" stroke="midnightblue" d="M1048.11,-669.039C1077.09,-658.879 1117.96,-644.546 1143.71,-635.516"/>
<polygon fill="midnightblue" stroke="midnightblue" points="1046.68,-665.832 1038.4,-672.444 1049,-672.437 1046.68,-665.832"/>
</g>
<!-- Node46 -->
<g id="node46" class="node"><title>Node46</title>
<g id="a_node46"><a xlink:href="../../dc/d50/Frequency_8hpp.html" target="_top" xlink:title=" ">
<polygon fill="white" stroke="black" points="902.5,-616.5 902.5,-635.5 983.5,-635.5 983.5,-616.5 902.5,-616.5"/>
<text text-anchor="middle" x="943" y="-623.5" font-family="Helvetica,sans-Serif" font-size="10.00">Frequency.hpp</text>
</a>
</g>
</g>
<!-- Node1&#45;&gt;Node46 -->
<g id="edge75" class="edge"><title>Node1&#45;&gt;Node46</title>
<path fill="none" stroke="midnightblue" d="M994.41,-666.101C981.632,-656.382 965.387,-644.027 954.615,-635.834"/>
<polygon fill="midnightblue" stroke="midnightblue" points="992.514,-669.056 1002.59,-672.324 996.752,-663.484 992.514,-669.056"/>
</g>
<!-- Node48 -->
<g id="node48" class="node"><title>Node48</title>
<g id="a_node48"><a xlink:href="../../dc/de6/Arduino__Helpers_8h.html" target="_top" xlink:title="Dummy header file for Arduino builder. You have to add this file first, so the other headers are in t...">
<polygon fill="white" stroke="black" points="1241.5,-616.5 1241.5,-635.5 1338.5,-635.5 1338.5,-616.5 1241.5,-616.5"/>
<text text-anchor="middle" x="1290" y="-623.5" font-family="Helvetica,sans-Serif" font-size="10.00">Arduino_Helpers.h</text>
</a>
</g>
</g>
<!-- Node1&#45;&gt;Node48 -->
<g id="edge78" class="edge"><title>Node1&#45;&gt;Node48</title>
<path fill="none" stroke="midnightblue" d="M1067.8,-670.473C1119.96,-660.268 1198.11,-644.979 1246.47,-635.516"/>
<polygon fill="midnightblue" stroke="midnightblue" points="1066.87,-667.088 1057.73,-672.444 1068.22,-673.958 1066.87,-667.088"/>
</g>
<!-- Node3 -->
<g id="node3" class="node"><title>Node3</title>
<g id="a_node3"><a xlink:href="../../d2/d25/MAX7219_8hpp.html" target="_top" xlink:title=" ">
<polygon fill="white" stroke="black" points="439,-56.5 439,-75.5 517,-75.5 517,-56.5 439,-56.5"/>
<text text-anchor="middle" x="478" y="-63.5" font-family="Helvetica,sans-Serif" font-size="10.00">MAX7219.hpp</text>
</a>
</g>
</g>
<!-- Node2&#45;&gt;Node3 -->
<g id="edge2" class="edge"><title>Node2&#45;&gt;Node3</title>
<path fill="none" stroke="midnightblue" d="M198.983,-163.023C230.342,-143.955 282.718,-112.115 283,-112 310.919,-100.643 390.563,-84.0104 438.996,-74.4697"/>
<polygon fill="midnightblue" stroke="midnightblue" points="197.107,-160.068 190.381,-168.254 200.744,-166.049 197.107,-160.068"/>
</g>
<!-- Node4 -->
<g id="node4" class="node"><title>Node4</title>
<g id="a_node4"><a xlink:href="../../d8/d93/ShiftRegisterOutBase_8hpp.html" target="_top" xlink:title=" ">
<polygon fill="white" stroke="black" points="66.5,-112.5 66.5,-131.5 197.5,-131.5 197.5,-112.5 66.5,-112.5"/>
<text text-anchor="middle" x="132" y="-119.5" font-family="Helvetica,sans-Serif" font-size="10.00">ShiftRegisterOutBase.hpp</text>
</a>
</g>
</g>
<!-- Node2&#45;&gt;Node4 -->
<g id="edge3" class="edge"><title>Node2&#45;&gt;Node4</title>
<path fill="none" stroke="midnightblue" d="M162.265,-160.144C154.599,-150.736 145.367,-139.405 139.131,-131.751"/>
<polygon fill="midnightblue" stroke="midnightblue" points="159.704,-162.541 168.734,-168.083 165.131,-158.12 159.704,-162.541"/>
</g>
<!-- Node8 -->
<g id="node8" class="node"><title>Node8</title>
<g id="a_node8"><a xlink:href="../../d7/d88/SPIShiftRegisterOut_8hpp.html" target="_top" xlink:title=" ">
<polygon fill="white" stroke="black" points="295.5,-56.5 295.5,-75.5 420.5,-75.5 420.5,-56.5 295.5,-56.5"/>
<text text-anchor="middle" x="358" y="-63.5" font-family="Helvetica,sans-Serif" font-size="10.00">SPIShiftRegisterOut.hpp</text>
</a>
</g>
</g>
<!-- Node2&#45;&gt;Node8 -->
<g id="edge12" class="edge"><title>Node2&#45;&gt;Node8</title>
<path fill="none" stroke="midnightblue" d="M191.293,-160.852C205.471,-146.579 227.685,-125.921 250,-112 275.679,-95.9807 308.052,-83.3646 330.628,-75.6169"/>
<polygon fill="midnightblue" stroke="midnightblue" points="188.396,-158.81 183.933,-168.419 193.414,-163.691 188.396,-158.81"/>
</g>
<!-- Node5 -->
<g id="node5" class="node"><title>Node5</title>
<g id="a_node5"><a xlink:href="../../d0/db4/ShiftRegisterOut_8hpp.html" target="_top" xlink:title=" ">
<polygon fill="white" stroke="black" points="169,-56.5 169,-75.5 277,-75.5 277,-56.5 169,-56.5"/>
<text text-anchor="middle" x="223" y="-63.5" font-family="Helvetica,sans-Serif" font-size="10.00">ShiftRegisterOut.hpp</text>
</a>
</g>
</g>
<!-- Node4&#45;&gt;Node5 -->
<g id="edge4" class="edge"><title>Node4&#45;&gt;Node5</title>
<path fill="none" stroke="midnightblue" d="M155.294,-107.177C172.039,-97.2407 194.1,-84.1492 208.416,-75.6545"/>
<polygon fill="midnightblue" stroke="midnightblue" points="153.434,-104.211 146.621,-112.324 157.007,-110.231 153.434,-104.211"/>
</g>
<!-- Node7 -->
<g id="node7" class="node"><title>Node7</title>
<g id="a_node7"><a xlink:href="../../d5/d47/ShiftRegisterOutBase_8ipp.html" target="_top" xlink:title=" ">
<polygon fill="white" stroke="black" points="23,-56.5 23,-75.5 151,-75.5 151,-56.5 23,-56.5"/>
<text text-anchor="middle" x="87" y="-63.5" font-family="Helvetica,sans-Serif" font-size="10.00">ShiftRegisterOutBase.ipp</text>
</a>
</g>
</g>
<!-- Node4&#45;&gt;Node7 -->
<g id="edge7" class="edge"><title>Node4&#45;&gt;Node7</title>
<path fill="none" stroke="midnightblue" d="M112.412,-104.968C103.513,-95.4381 94.101,-83.7118 89.2129,-75.8339"/>
<polygon fill="midnightblue" stroke="midnightblue" points="110.145,-107.654 119.655,-112.324 115.133,-102.743 110.145,-107.654"/>
</g>
<!-- Node4&#45;&gt;Node8 -->
<g id="edge9" class="edge"><title>Node4&#45;&gt;Node8</title>
<path fill="none" stroke="midnightblue" d="M177.667,-110.088C220.364,-99.8865 283.248,-84.8612 322.357,-75.5164"/>
<polygon fill="midnightblue" stroke="midnightblue" points="176.723,-106.715 167.81,-112.444 178.35,-113.524 176.723,-106.715"/>
</g>
<!-- Node6 -->
<g id="node6" class="node"><title>Node6</title>
<g id="a_node6"><a xlink:href="../../de/d95/ShiftRegisterOut_8ipp.html" target="_top" xlink:title=" ">
<polygon fill="white" stroke="black" points="170.5,-0.5 170.5,-19.5 275.5,-19.5 275.5,-0.5 170.5,-0.5"/>
<text text-anchor="middle" x="223" y="-7.5" font-family="Helvetica,sans-Serif" font-size="10.00">ShiftRegisterOut.ipp</text>
</a>
</g>
</g>
<!-- Node5&#45;&gt;Node6 -->
<g id="edge5" class="edge"><title>Node5&#45;&gt;Node6</title>
<path fill="none" stroke="midnightblue" d="M216.528,-46.1005C215.896,-37.1357 216.343,-26.8579 217.869,-19.7511"/>
<polygon fill="midnightblue" stroke="midnightblue" points="213.066,-46.6216 217.834,-56.083 220.007,-45.7134 213.066,-46.6216"/>
</g>
<!-- Node6&#45;&gt;Node5 -->
<g id="edge6" class="edge"><title>Node6&#45;&gt;Node5</title>
<path fill="none" stroke="midnightblue" d="M229.458,-29.6911C230.106,-38.6353 229.676,-48.9272 228.166,-56.083"/>
<polygon fill="midnightblue" stroke="midnightblue" points="232.923,-29.2002 228.131,-19.7511 225.985,-30.1262 232.923,-29.2002"/>
</g>
<!-- Node7&#45;&gt;Node4 -->
<g id="edge8" class="edge"><title>Node7&#45;&gt;Node4</title>
<path fill="none" stroke="midnightblue" d="M106.634,-83.0813C115.488,-92.5688 124.841,-104.22 129.735,-112.083"/>
<polygon fill="midnightblue" stroke="midnightblue" points="108.932,-80.4255 99.4236,-75.7511 103.941,-85.3345 108.932,-80.4255"/>
</g>
<!-- Node9 -->
<g id="node9" class="node"><title>Node9</title>
<g id="a_node9"><a xlink:href="../../da/d45/SPIShiftRegisterOut_8ipp.html" target="_top" xlink:title=" ">
<polygon fill="white" stroke="black" points="297,-0.5 297,-19.5 419,-19.5 419,-0.5 297,-0.5"/>
<text text-anchor="middle" x="358" y="-7.5" font-family="Helvetica,sans-Serif" font-size="10.00">SPIShiftRegisterOut.ipp</text>
</a>
</g>
</g>
<!-- Node8&#45;&gt;Node9 -->
<g id="edge10" class="edge"><title>Node8&#45;&gt;Node9</title>
<path fill="none" stroke="midnightblue" d="M351.528,-46.1005C350.896,-37.1357 351.343,-26.8579 352.869,-19.7511"/>
<polygon fill="midnightblue" stroke="midnightblue" points="348.066,-46.6216 352.834,-56.083 355.007,-45.7134 348.066,-46.6216"/>
</g>
<!-- Node9&#45;&gt;Node8 -->
<g id="edge11" class="edge"><title>Node9&#45;&gt;Node8</title>
<path fill="none" stroke="midnightblue" d="M364.458,-29.6911C365.106,-38.6353 364.676,-48.9272 363.166,-56.083"/>
<polygon fill="midnightblue" stroke="midnightblue" points="367.923,-29.2002 363.131,-19.7511 360.985,-30.1262 367.923,-29.2002"/>
</g>
<!-- Node11 -->
<g id="node11" class="node"><title>Node11</title>
<g id="a_node11"><a xlink:href="../../d9/d4b/ButtonMatrix_8hpp.html" target="_top" xlink:title=" ">
<polygon fill="white" stroke="black" points="926.5,-168.5 926.5,-187.5 1017.5,-187.5 1017.5,-168.5 926.5,-168.5"/>
<text text-anchor="middle" x="972" y="-175.5" font-family="Helvetica,sans-Serif" font-size="10.00">ButtonMatrix.hpp</text>
</a>
</g>
</g>
<!-- Node10&#45;&gt;Node11 -->
<g id="edge14" class="edge"><title>Node10&#45;&gt;Node11</title>
<path fill="none" stroke="midnightblue" d="M978.643,-270.348C976.891,-246.254 973.913,-205.308 972.625,-187.591"/>
<polygon fill="midnightblue" stroke="midnightblue" points="975.156,-270.649 979.372,-280.368 982.138,-270.141 975.156,-270.649"/>
</g>
<!-- Node13 -->
<g id="node13" class="node"><title>Node13</title>
<g id="a_node13"><a xlink:href="../../d4/d57/ExtendedIOElement_8hpp.html" target="_top" xlink:title=" ">
<polygon fill="white" stroke="black" points="358.5,-224.5 358.5,-243.5 481.5,-243.5 481.5,-224.5 358.5,-224.5"/>
<text text-anchor="middle" x="420" y="-231.5" font-family="Helvetica,sans-Serif" font-size="10.00">ExtendedIOElement.hpp</text>
</a>
</g>
</g>
<!-- Node10&#45;&gt;Node13 -->
<g id="edge17" class="edge"><title>Node10&#45;&gt;Node13</title>
<path fill="none" stroke="midnightblue" d="M916.258,-283.837C822.853,-276.112 643.346,-260.661 491,-244 487.912,-243.662 484.75,-243.305 481.558,-242.934"/>
<polygon fill="midnightblue" stroke="midnightblue" points="916.14,-287.339 926.394,-284.673 916.716,-280.363 916.14,-287.339"/>
</g>
<!-- Node23 -->
<g id="node23" class="node"><title>Node23</title>
<g id="a_node23"><a xlink:href="../../d8/df3/FilteredAnalog_8hpp.html" target="_top" xlink:title=" ">
<polygon fill="white" stroke="black" points="1102,-112.5 1102,-131.5 1200,-131.5 1200,-112.5 1102,-112.5"/>
<text text-anchor="middle" x="1151" y="-119.5" font-family="Helvetica,sans-Serif" font-size="10.00">FilteredAnalog.hpp</text>
</a>
</g>
</g>
<!-- Node10&#45;&gt;Node23 -->
<g id="edge43" class="edge"><title>Node10&#45;&gt;Node23</title>
<path fill="none" stroke="midnightblue" d="M989.689,-271.587C1004.42,-246.303 1034.53,-199.061 1070,-168 1088.15,-152.104 1112.84,-139.386 1130.18,-131.58"/>
<polygon fill="midnightblue" stroke="midnightblue" points="986.573,-269.986 984.658,-280.406 992.653,-273.455 986.573,-269.986"/>
</g>
<!-- Node12 -->
<g id="node12" class="node"><title>Node12</title>
<g id="a_node12"><a xlink:href="../../d5/d41/ButtonMatrix_8ipp.html" target="_top" xlink:title=" ">
<polygon fill="white" stroke="black" points="996,-112.5 996,-131.5 1084,-131.5 1084,-112.5 996,-112.5"/>
<text text-anchor="middle" x="1040" y="-119.5" font-family="Helvetica,sans-Serif" font-size="10.00">ButtonMatrix.ipp</text>
</a>
</g>
</g>
<!-- Node11&#45;&gt;Node12 -->
<g id="edge15" class="edge"><title>Node11&#45;&gt;Node12</title>
<path fill="none" stroke="midnightblue" d="M985.353,-161.493C996.527,-151.8 1012.15,-139.677 1023.99,-131.655"/>
<polygon fill="midnightblue" stroke="midnightblue" points="982.873,-159.017 977.811,-168.324 987.572,-164.205 982.873,-159.017"/>
</g>
<!-- Node12&#45;&gt;Node11 -->
<g id="edge16" class="edge"><title>Node12&#45;&gt;Node11</title>
<path fill="none" stroke="midnightblue" d="M1026.48,-138.653C1015.33,-148.313 999.821,-160.341 988.04,-168.324"/>
<polygon fill="midnightblue" stroke="midnightblue" points="1028.95,-141.135 1034.02,-131.834 1024.26,-135.942 1028.95,-141.135"/>
</g>
<!-- Node14 -->
<g id="node14" class="node"><title>Node14</title>
<g id="a_node14"><a xlink:href="../../dd/ddf/ExtendedInputOutput_8hpp.html" target="_top" xlink:title=" ">
<polygon fill="white" stroke="black" points="742,-168.5 742,-187.5 870,-187.5 870,-168.5 742,-168.5"/>
<text text-anchor="middle" x="806" y="-175.5" font-family="Helvetica,sans-Serif" font-size="10.00">ExtendedInputOutput.hpp</text>
</a>
</g>
</g>
<!-- Node13&#45;&gt;Node14 -->
<g id="edge18" class="edge"><title>Node13&#45;&gt;Node14</title>
<path fill="none" stroke="midnightblue" d="M491.181,-223.042C564.084,-212.843 676.212,-197.157 745.123,-187.516"/>
<polygon fill="midnightblue" stroke="midnightblue" points="490.581,-219.592 481.163,-224.444 491.551,-226.524 490.581,-219.592"/>
</g>
<!-- Node22 -->
<g id="node22" class="node"><title>Node22</title>
<g id="a_node22"><a xlink:href="../../d6/d3c/ExtendedInputOutput_8cpp.html" target="_top" xlink:title=" ">
<polygon fill="white" stroke="black" points="292,-112.5 292,-131.5 420,-131.5 420,-112.5 292,-112.5"/>
<text text-anchor="middle" x="356" y="-119.5" font-family="Helvetica,sans-Serif" font-size="10.00">ExtendedInputOutput.cpp</text>
</a>
</g>
</g>
<!-- Node13&#45;&gt;Node22 -->
<g id="edge41" class="edge"><title>Node13&#45;&gt;Node22</title>
<path fill="none" stroke="midnightblue" d="M416.742,-214.438C413.797,-200.883 408.578,-182.431 400,-168 391.29,-153.348 376.857,-139.843 366.909,-131.528"/>
<polygon fill="midnightblue" stroke="midnightblue" points="413.351,-215.334 418.705,-224.476 420.221,-213.991 413.351,-215.334"/>
</g>
<!-- Node28 -->
<g id="node28" class="node"><title>Node28</title>
<g id="a_node28"><a xlink:href="../../d2/d05/StaticSizeExtendedIOElement_8hpp.html" target="_top" xlink:title=" ">
<polygon fill="white" stroke="black" points="448,-168.5 448,-187.5 616,-187.5 616,-168.5 448,-168.5"/>
<text text-anchor="middle" x="532" y="-175.5" font-family="Helvetica,sans-Serif" font-size="10.00">StaticSizeExtendedIOElement.hpp</text>
</a>
</g>
</g>
<!-- Node13&#45;&gt;Node28 -->
<g id="edge37" class="edge"><title>Node13&#45;&gt;Node28</title>
<path fill="none" stroke="midnightblue" d="M447.249,-219.862C468.016,-209.849 496.023,-196.346 514.05,-187.655"/>
<polygon fill="midnightblue" stroke="midnightblue" points="445.482,-216.828 437.995,-224.324 448.523,-223.134 445.482,-216.828"/>
</g>
<!-- Node29 -->
<g id="node29" class="node"><title>Node29</title>
<g id="a_node29"><a xlink:href="../../da/d1f/ExtendedIOElement_8cpp.html" target="_top" xlink:title=" ">
<polygon fill="white" stroke="black" points="268.5,-168.5 268.5,-187.5 391.5,-187.5 391.5,-168.5 268.5,-168.5"/>
<text text-anchor="middle" x="330" y="-175.5" font-family="Helvetica,sans-Serif" font-size="10.00">ExtendedIOElement.cpp</text>
</a>
</g>
</g>
<!-- Node13&#45;&gt;Node29 -->
<g id="edge42" class="edge"><title>Node13&#45;&gt;Node29</title>
<path fill="none" stroke="midnightblue" d="M396.962,-219.177C380.401,-209.241 358.582,-196.149 344.424,-187.655"/>
<polygon fill="midnightblue" stroke="midnightblue" points="395.164,-222.18 405.54,-224.324 398.766,-216.178 395.164,-222.18"/>
</g>
<!-- Node14&#45;&gt;Node6 -->
<g id="edge29" class="edge"><title>Node14&#45;&gt;Node6</title>
<path fill="none" stroke="midnightblue" d="M803.488,-158.522C798.677,-131.047 785.389,-80.0803 751,-56 708.733,-26.4029 339.301,-25.541 288,-20 284.036,-19.5718 279.94,-19.0925 275.824,-18.584"/>
<polygon fill="midnightblue" stroke="midnightblue" points="800.031,-159.066 805.027,-168.409 806.947,-157.99 800.031,-159.066"/>
</g>
<!-- Node14&#45;&gt;Node7 -->
<g id="edge28" class="edge"><title>Node14&#45;&gt;Node7</title>
<path fill="none" stroke="midnightblue" d="M749.213,-166.344C713.481,-158.759 666.769,-147.214 627,-132 609.175,-125.181 607.32,-117.349 589,-112 405.333,-58.3697 350.319,-95.7098 160,-76 157.079,-75.6975 154.093,-75.3766 151.078,-75.0432"/>
<polygon fill="midnightblue" stroke="midnightblue" points="748.954,-169.864 759.457,-168.474 750.379,-163.011 748.954,-169.864"/>
</g>
<!-- Node14&#45;&gt;Node9 -->
<g id="edge30" class="edge"><title>Node14&#45;&gt;Node9</title>
<path fill="none" stroke="midnightblue" d="M808.771,-158.363C811.601,-131.48 812.21,-82.1797 784,-56 757.8,-31.6854 530.702,-18.5117 419.221,-13.4584"/>
<polygon fill="midnightblue" stroke="midnightblue" points="805.287,-158.019 807.5,-168.38 812.231,-158.9 805.287,-158.019"/>
</g>
<!-- Node14&#45;&gt;Node12 -->
<g id="edge25" class="edge"><title>Node14&#45;&gt;Node12</title>
<path fill="none" stroke="midnightblue" d="M853.004,-166.153C897.217,-155.95 962.516,-140.881 1003.1,-131.516"/>
<polygon fill="midnightblue" stroke="midnightblue" points="852.035,-162.784 843.078,-168.444 853.609,-169.605 852.035,-162.784"/>
</g>
<!-- Node15 -->
<g id="node15" class="node"><title>Node15</title>
<g id="a_node15"><a xlink:href="../../d4/db3/Button_8hpp.html" target="_top" xlink:title=" ">
<polygon fill="white" stroke="black" points="914,-112.5 914,-131.5 978,-131.5 978,-112.5 914,-112.5"/>
<text text-anchor="middle" x="946" y="-119.5" font-family="Helvetica,sans-Serif" font-size="10.00">Button.hpp</text>
</a>
</g>
</g>
<!-- Node14&#45;&gt;Node15 -->
<g id="edge19" class="edge"><title>Node14&#45;&gt;Node15</title>
<path fill="none" stroke="midnightblue" d="M837.702,-164.772C864,-154.629 900.716,-140.467 923.92,-131.516"/>
<polygon fill="midnightblue" stroke="midnightblue" points="836.254,-161.579 828.183,-168.444 838.773,-168.11 836.254,-161.579"/>
</g>
<!-- Node21 -->
<g id="node21" class="node"><title>Node21</title>
<g id="a_node21"><a xlink:href="../../d7/def/AnalogMultiplex_8hpp.html" target="_top" xlink:title=" ">
<polygon fill="white" stroke="black" points="476,-112.5 476,-131.5 580,-131.5 580,-112.5 476,-112.5"/>
<text text-anchor="middle" x="528" y="-119.5" font-family="Helvetica,sans-Serif" font-size="10.00">AnalogMultiplex.hpp</text>
</a>
</g>
</g>
<!-- Node14&#45;&gt;Node21 -->
<g id="edge26" class="edge"><title>Node14&#45;&gt;Node21</title>
<path fill="none" stroke="midnightblue" d="M751.808,-166.473C699.268,-156.268 620.561,-140.979 571.844,-131.516"/>
<polygon fill="midnightblue" stroke="midnightblue" points="751.466,-169.972 761.95,-168.444 752.801,-163.101 751.466,-169.972"/>
</g>
<!-- Node14&#45;&gt;Node22 -->
<g id="edge27" class="edge"><title>Node14&#45;&gt;Node22</title>
<path fill="none" stroke="midnightblue" d="M731.478,-168.057C644.638,-157.637 502.583,-140.59 420.354,-130.723"/>
<polygon fill="midnightblue" stroke="midnightblue" points="731.18,-171.547 741.526,-169.263 732.014,-164.597 731.18,-171.547"/>
</g>
<!-- Node14&#45;&gt;Node23 -->
<g id="edge31" class="edge"><title>Node14&#45;&gt;Node23</title>
<path fill="none" stroke="midnightblue" d="M870.702,-166.873C937.802,-156.37 1041.22,-140.183 1101.89,-130.686"/>
<polygon fill="midnightblue" stroke="midnightblue" points="870.005,-163.439 860.666,-168.444 871.087,-170.355 870.005,-163.439"/>
</g>
<!-- Node24 -->
<g id="node24" class="node"><title>Node24</title>
<g id="a_node24"><a xlink:href="../../d9/d4f/LEDs_8hpp.html" target="_top" xlink:title=" ">
<polygon fill="white" stroke="black" points="836,-112.5 836,-131.5 896,-131.5 896,-112.5 836,-112.5"/>
<text text-anchor="middle" x="866" y="-119.5" font-family="Helvetica,sans-Serif" font-size="10.00">LEDs.hpp</text>
</a>
</g>
</g>
<!-- Node14&#45;&gt;Node24 -->
<g id="edge32" class="edge"><title>Node14&#45;&gt;Node24</title>
<path fill="none" stroke="midnightblue" d="M823.181,-161.537C833.879,-151.909 847.256,-139.869 856.185,-131.834"/>
<polygon fill="midnightblue" stroke="midnightblue" points="820.732,-159.033 815.64,-168.324 825.414,-164.236 820.732,-159.033"/>
</g>
<!-- Node26 -->
<g id="node26" class="node"><title>Node26</title>
<g id="a_node26"><a xlink:href="../../d7/d13/MAX7219__Base_8hpp.html" target="_top" xlink:title=" ">
<polygon fill="white" stroke="black" points="636,-112.5 636,-131.5 742,-131.5 742,-112.5 636,-112.5"/>
<text text-anchor="middle" x="689" y="-119.5" font-family="Helvetica,sans-Serif" font-size="10.00">MAX7219_Base.hpp</text>
</a>
</g>
</g>
<!-- Node14&#45;&gt;Node26 -->
<g id="edge34" class="edge"><title>Node14&#45;&gt;Node26</title>
<path fill="none" stroke="midnightblue" d="M778.336,-164.232C756.451,-154.131 726.503,-140.309 707.452,-131.516"/>
<polygon fill="midnightblue" stroke="midnightblue" points="776.915,-167.431 787.461,-168.444 779.848,-161.075 776.915,-167.431"/>
</g>
<!-- Node16 -->
<g id="node16" class="node"><title>Node16</title>
<g id="a_node16"><a xlink:href="../../de/dd1/Button_8cpp.html" target="_top" xlink:title=" ">
<polygon fill="white" stroke="black" points="978,-56.5 978,-75.5 1042,-75.5 1042,-56.5 978,-56.5"/>
<text text-anchor="middle" x="1010" y="-63.5" font-family="Helvetica,sans-Serif" font-size="10.00">Button.cpp</text>
</a>
</g>
</g>
<!-- Node15&#45;&gt;Node16 -->
<g id="edge20" class="edge"><title>Node15&#45;&gt;Node16</title>
<path fill="none" stroke="midnightblue" d="M963.991,-105.82C975.458,-96.1452 989.913,-83.9481 999.53,-75.8339"/>
<polygon fill="midnightblue" stroke="midnightblue" points="961.669,-103.2 956.283,-112.324 966.183,-108.55 961.669,-103.2"/>
</g>
<!-- Node17 -->
<g id="node17" class="node"><title>Node17</title>
<g id="a_node17"><a xlink:href="../../d5/d04/IncrementButton_8hpp.html" target="_top" xlink:title=" ">
<polygon fill="white" stroke="black" points="1239.5,-56.5 1239.5,-75.5 1346.5,-75.5 1346.5,-56.5 1239.5,-56.5"/>
<text text-anchor="middle" x="1293" y="-63.5" font-family="Helvetica,sans-Serif" font-size="10.00">IncrementButton.hpp</text>
</a>
</g>
</g>
<!-- Node15&#45;&gt;Node17 -->
<g id="edge21" class="edge"><title>Node15&#45;&gt;Node17</title>
<path fill="none" stroke="midnightblue" d="M988.285,-112.001C1029.55,-105.34 1163.24,-85.8536 1239.29,-74.799"/>
<polygon fill="midnightblue" stroke="midnightblue" points="987.461,-108.59 978.186,-113.712 988.63,-115.492 987.461,-108.59"/>
</g>
<!-- Node19 -->
<g id="node19" class="node"><title>Node19</title>
<g id="a_node19"><a xlink:href="../../df/df5/IncrementDecrementButtons_8hpp.html" target="_top" xlink:title=" ">
<polygon fill="white" stroke="black" points="1060.5,-56.5 1060.5,-75.5 1221.5,-75.5 1221.5,-56.5 1060.5,-56.5"/>
<text text-anchor="middle" x="1141" y="-63.5" font-family="Helvetica,sans-Serif" font-size="10.00">IncrementDecrementButtons.hpp</text>
</a>
</g>
</g>
<!-- Node15&#45;&gt;Node19 -->
<g id="edge23" class="edge"><title>Node15&#45;&gt;Node19</title>
<path fill="none" stroke="midnightblue" d="M986.81,-109.699C1023.61,-99.507 1076.93,-84.7429 1110.25,-75.5164"/>
<polygon fill="midnightblue" stroke="midnightblue" points="985.602,-106.402 976.898,-112.444 987.47,-113.148 985.602,-106.402"/>
</g>
<!-- Node18 -->
<g id="node18" class="node"><title>Node18</title>
<g id="a_node18"><a xlink:href="../../db/d9d/IncrementButton_8cpp.html" target="_top" xlink:title=" ">
<polygon fill="white" stroke="black" points="1239.5,-0.5 1239.5,-19.5 1346.5,-19.5 1346.5,-0.5 1239.5,-0.5"/>
<text text-anchor="middle" x="1293" y="-7.5" font-family="Helvetica,sans-Serif" font-size="10.00">IncrementButton.cpp</text>
</a>
</g>
</g>
<!-- Node17&#45;&gt;Node18 -->
<g id="edge22" class="edge"><title>Node17&#45;&gt;Node18</title>
<path fill="none" stroke="midnightblue" d="M1293,-45.8045C1293,-36.9102 1293,-26.7798 1293,-19.7511"/>
<polygon fill="midnightblue" stroke="midnightblue" points="1289.5,-46.083 1293,-56.083 1296.5,-46.083 1289.5,-46.083"/>
</g>
<!-- Node20 -->
<g id="node20" class="node"><title>Node20</title>
<g id="a_node20"><a xlink:href="../../da/d66/IncrementDecrementButtons_8cpp.html" target="_top" xlink:title=" ">
<polygon fill="white" stroke="black" points="1060.5,-0.5 1060.5,-19.5 1221.5,-19.5 1221.5,-0.5 1060.5,-0.5"/>
<text text-anchor="middle" x="1141" y="-7.5" font-family="Helvetica,sans-Serif" font-size="10.00">IncrementDecrementButtons.cpp</text>
</a>
</g>
</g>
<!-- Node19&#45;&gt;Node20 -->
<g id="edge24" class="edge"><title>Node19&#45;&gt;Node20</title>
<path fill="none" stroke="midnightblue" d="M1141,-45.8045C1141,-36.9102 1141,-26.7798 1141,-19.7511"/>
<polygon fill="midnightblue" stroke="midnightblue" points="1137.5,-46.083 1141,-56.083 1144.5,-46.083 1137.5,-46.083"/>
</g>
<!-- Node25 -->
<g id="node25" class="node"><title>Node25</title>
<g id="a_node25"><a xlink:href="../../d6/d3a/DotBarDisplayLEDs_8hpp.html" target="_top" xlink:title=" ">
<polygon fill="white" stroke="black" points="836,-56.5 836,-75.5 960,-75.5 960,-56.5 836,-56.5"/>
<text text-anchor="middle" x="898" y="-63.5" font-family="Helvetica,sans-Serif" font-size="10.00">DotBarDisplayLEDs.hpp</text>
</a>
</g>
</g>
<!-- Node24&#45;&gt;Node25 -->
<g id="edge33" class="edge"><title>Node24&#45;&gt;Node25</title>
<path fill="none" stroke="midnightblue" d="M876.504,-103.275C881.973,-94.0454 888.418,-83.1703 892.814,-75.7511"/>
<polygon fill="midnightblue" stroke="midnightblue" points="873.371,-101.696 871.284,-112.083 879.393,-105.264 873.371,-101.696"/>
</g>
<!-- Node26&#45;&gt;Node3 -->
<g id="edge35" class="edge"><title>Node26&#45;&gt;Node3</title>
<path fill="none" stroke="midnightblue" d="M645.858,-109.959C606.006,-99.7598 547.637,-84.8217 511.277,-75.5164"/>
<polygon fill="midnightblue" stroke="midnightblue" points="645.011,-113.355 655.566,-112.444 646.746,-106.573 645.011,-113.355"/>
</g>
<!-- Node27 -->
<g id="node27" class="node"><title>Node27</title>
<g id="a_node27"><a xlink:href="../../d5/d0c/MAX7219SevenSegmentDisplay_8hpp.html" target="_top" xlink:title=" ">
<polygon fill="white" stroke="black" points="564,-56.5 564,-75.5 742,-75.5 742,-56.5 564,-56.5"/>
<text text-anchor="middle" x="653" y="-63.5" font-family="Helvetica,sans-Serif" font-size="10.00">MAX7219SevenSegmentDisplay.hpp</text>
</a>
</g>
</g>
<!-- Node26&#45;&gt;Node27 -->
<g id="edge36" class="edge"><title>Node26&#45;&gt;Node27</title>
<path fill="none" stroke="midnightblue" d="M677.377,-103.566C671.183,-94.2747 663.832,-83.2484 658.834,-75.7511"/>
<polygon fill="midnightblue" stroke="midnightblue" points="674.596,-105.704 683.055,-112.083 680.42,-101.821 674.596,-105.704"/>
</g>
<!-- Node28&#45;&gt;Node3 -->
<g id="edge39" class="edge"><title>Node28&#45;&gt;Node3</title>
<path fill="none" stroke="midnightblue" d="M500.983,-163.667C488.009,-156.348 474.279,-145.892 467,-132 457.333,-113.549 466.971,-88.4799 473.351,-75.5286"/>
<polygon fill="midnightblue" stroke="midnightblue" points="499.704,-166.947 510.192,-168.447 502.928,-160.734 499.704,-166.947"/>
</g>
<!-- Node28&#45;&gt;Node4 -->
<g id="edge40" class="edge"><title>Node28&#45;&gt;Node4</title>
<path fill="none" stroke="midnightblue" d="M458.7,-167.105C383.166,-156.907 266.641,-141.177 195.085,-131.516"/>
<polygon fill="midnightblue" stroke="midnightblue" points="458.24,-170.574 468.619,-168.444 459.177,-163.637 458.24,-170.574"/>
</g>
<!-- Node28&#45;&gt;Node21 -->
<g id="edge38" class="edge"><title>Node28&#45;&gt;Node21</title>
<path fill="none" stroke="midnightblue" d="M530.6,-158.101C529.936,-149.136 529.175,-138.858 528.648,-131.751"/>
<polygon fill="midnightblue" stroke="midnightblue" points="527.11,-158.369 531.339,-168.083 534.091,-157.852 527.11,-158.369"/>
</g>
<!-- Node30&#45;&gt;Node23 -->
<g id="edge48" class="edge"><title>Node30&#45;&gt;Node23</title>
<path fill="none" stroke="midnightblue" d="M1033.12,-441.501C1064.14,-414.475 1122,-355.426 1122,-291 1122,-291 1122,-291 1122,-233 1122,-194.093 1139.17,-149.927 1147.09,-131.635"/>
<polygon fill="midnightblue" stroke="midnightblue" points="1030.52,-439.117 1025.15,-448.252 1035.04,-444.457 1030.52,-439.117"/>
</g>
<!-- Node31 -->
<g id="node31" class="node"><title>Node31</title>
<g id="a_node31"><a xlink:href="../../de/dd1/LinkedList_8hpp.html" target="_top" xlink:title=" ">
<polygon fill="white" stroke="black" points="752,-392.5 752,-411.5 832,-411.5 832,-392.5 752,-392.5"/>
<text text-anchor="middle" x="792" y="-399.5" font-family="Helvetica,sans-Serif" font-size="10.00">LinkedList.hpp</text>
</a>
</g>
</g>
<!-- Node30&#45;&gt;Node31 -->
<g id="edge45" class="edge"><title>Node30&#45;&gt;Node31</title>
<path fill="none" stroke="midnightblue" d="M968.875,-446.024C926.94,-435.823 865.348,-420.841 827.012,-411.516"/>
<polygon fill="midnightblue" stroke="midnightblue" points="968.28,-449.481 978.823,-448.444 969.934,-442.679 968.28,-449.481"/>
</g>
<!-- Node31&#45;&gt;Node13 -->
<g id="edge47" class="edge"><title>Node31&#45;&gt;Node13</title>
<path fill="none" stroke="midnightblue" d="M742.018,-391.908C642.183,-375.742 611.975,-387.614 520,-356 471.092,-339.189 444.338,-344.507 418,-300 407.535,-282.317 412.961,-256.924 416.972,-243.721"/>
<polygon fill="midnightblue" stroke="midnightblue" points="741.461,-395.363 751.901,-393.562 742.616,-388.459 741.461,-395.363"/>
</g>
<!-- Node32 -->
<g id="node32" class="node"><title>Node32</title>
<g id="a_node32"><a xlink:href="../../d4/d93/Updatable_8hpp.html" target="_top" xlink:title=" ">
<polygon fill="white" stroke="black" points="752,-336.5 752,-355.5 832,-355.5 832,-336.5 752,-336.5"/>
<text text-anchor="middle" x="792" y="-343.5" font-family="Helvetica,sans-Serif" font-size="10.00">Updatable.hpp</text>
</a>
</g>
</g>
<!-- Node31&#45;&gt;Node32 -->
<g id="edge46" class="edge"><title>Node31&#45;&gt;Node32</title>
<path fill="none" stroke="midnightblue" d="M792,-381.805C792,-372.91 792,-362.78 792,-355.751"/>
<polygon fill="midnightblue" stroke="midnightblue" points="788.5,-382.083 792,-392.083 795.5,-382.083 788.5,-382.083"/>
</g>
<!-- Node33&#45;&gt;Node15 -->
<g id="edge69" class="edge"><title>Node33&#45;&gt;Node15</title>
<path fill="none" stroke="midnightblue" d="M871.591,-495.4C882.256,-474.15 898,-437.018 898,-403 898,-403 898,-403 898,-233 898,-192.161 926.137,-149.377 939.326,-131.565"/>
<polygon fill="midnightblue" stroke="midnightblue" points="868.38,-493.988 866.855,-504.473 874.585,-497.228 868.38,-493.988"/>
</g>
<!-- Node33&#45;&gt;Node23 -->
<g id="edge73" class="edge"><title>Node33&#45;&gt;Node23</title>
<path fill="none" stroke="midnightblue" d="M876.661,-496.759C884.284,-488.251 893.715,-477.626 902,-468 965.405,-394.335 985.262,-378.914 1042,-300 1053.59,-283.884 1125.76,-164.748 1145.83,-131.56"/>
<polygon fill="midnightblue" stroke="midnightblue" points="873.834,-494.669 869.751,-504.445 879.039,-499.349 873.834,-494.669"/>
</g>
<!-- Node33&#45;&gt;Node32 -->
<g id="edge50" class="edge"><title>Node33&#45;&gt;Node32</title>
<path fill="none" stroke="midnightblue" d="M862.396,-494.265C862.14,-469.391 858.91,-424.792 841,-392 832.585,-376.592 816.888,-363.617 805.524,-355.617"/>
<polygon fill="midnightblue" stroke="midnightblue" points="858.895,-494.454 862.34,-504.473 865.895,-494.492 858.895,-494.454"/>
</g>
<!-- Node34 -->
<g id="node34" class="node"><title>Node34</title>
<g id="a_node34"><a xlink:href="../../df/dee/Debug_8hpp.html" target="_top" xlink:title=" ">
<polygon fill="white" stroke="black" points="760,-448.5 760,-467.5 824,-467.5 824,-448.5 760,-448.5"/>
<text text-anchor="middle" x="792" y="-455.5" font-family="Helvetica,sans-Serif" font-size="10.00">Debug.hpp</text>
</a>
</g>
</g>
<!-- Node33&#45;&gt;Node34 -->
<g id="edge51" class="edge"><title>Node33&#45;&gt;Node34</title>
<path fill="none" stroke="midnightblue" d="M837.367,-498.658C823.482,-488.859 807.35,-476.184 798.303,-467.834"/>
<polygon fill="midnightblue" stroke="midnightblue" points="835.41,-501.56 845.638,-504.324 839.366,-495.785 835.41,-501.56"/>
</g>
<!-- Node43 -->
<g id="node43" class="node"><title>Node43</title>
<g id="a_node43"><a xlink:href="../../d1/d1f/ShiftRegisterOutRGB_8hpp.html" target="_top" xlink:title=" ">
<polygon fill="white" stroke="black" points="225,-448.5 225,-467.5 355,-467.5 355,-448.5 225,-448.5"/>
<text text-anchor="middle" x="290" y="-455.5" font-family="Helvetica,sans-Serif" font-size="10.00">ShiftRegisterOutRGB.hpp</text>
</a>
</g>
</g>
<!-- Node33&#45;&gt;Node43 -->
<g id="edge70" class="edge"><title>Node33&#45;&gt;Node43</title>
<path fill="none" stroke="midnightblue" d="M797.669,-506.927C687.931,-496.567 465.735,-475.59 355.323,-465.167"/>
<polygon fill="midnightblue" stroke="midnightblue" points="797.645,-510.44 807.93,-507.895 798.303,-503.471 797.645,-510.44"/>
</g>
<!-- Node34&#45;&gt;Node31 -->
<g id="edge52" class="edge"><title>Node34&#45;&gt;Node31</title>
<path fill="none" stroke="midnightblue" d="M792,-437.805C792,-428.91 792,-418.78 792,-411.751"/>
<polygon fill="midnightblue" stroke="midnightblue" points="788.5,-438.083 792,-448.083 795.5,-438.083 788.5,-438.083"/>
</g>
<!-- Node34&#45;&gt;Node33 -->
<g id="edge68" class="edge"><title>Node34&#45;&gt;Node33</title>
<path fill="none" stroke="midnightblue" d="M816.648,-473.352C830.617,-483.212 846.857,-495.979 855.868,-504.324"/>
<polygon fill="midnightblue" stroke="midnightblue" points="818.557,-470.418 808.329,-467.655 814.602,-476.193 818.557,-470.418"/>
</g>
<!-- Node35 -->
<g id="node35" class="node"><title>Node35</title>
<g id="a_node35"><a xlink:href="../../df/d66/Debug_8cpp.html" target="_top" xlink:title=" ">
<polygon fill="white" stroke="black" points="670,-392.5 670,-411.5 734,-411.5 734,-392.5 670,-392.5"/>
<text text-anchor="middle" x="702" y="-399.5" font-family="Helvetica,sans-Serif" font-size="10.00">Debug.cpp</text>
</a>
</g>
</g>
<!-- Node34&#45;&gt;Node35 -->
<g id="edge53" class="edge"><title>Node34&#45;&gt;Node35</title>
<path fill="none" stroke="midnightblue" d="M768.962,-443.177C752.401,-433.241 730.582,-420.149 716.424,-411.655"/>
<polygon fill="midnightblue" stroke="midnightblue" points="767.164,-446.18 777.54,-448.324 770.766,-440.178 767.164,-446.18"/>
</g>
<!-- Node36 -->
<g id="node36" class="node"><title>Node36</title>
<g id="a_node36"><a xlink:href="../../d1/d93/Error_8hpp.html" target="_top" xlink:title=" ">
<polygon fill="white" stroke="black" points="531,-392.5 531,-411.5 587,-411.5 587,-392.5 531,-392.5"/>
<text text-anchor="middle" x="559" y="-399.5" font-family="Helvetica,sans-Serif" font-size="10.00">Error.hpp</text>
</a>
</g>
</g>
<!-- Node34&#45;&gt;Node36 -->
<g id="edge54" class="edge"><title>Node34&#45;&gt;Node36</title>
<path fill="none" stroke="midnightblue" d="M749.693,-447.195C702.526,-436.264 627.572,-418.892 587.112,-409.515"/>
<polygon fill="midnightblue" stroke="midnightblue" points="749.07,-450.643 759.602,-449.492 750.651,-443.824 749.07,-450.643"/>
</g>
<!-- Node36&#45;&gt;Node2 -->
<g id="edge63" class="edge"><title>Node36&#45;&gt;Node2</title>
<path fill="none" stroke="midnightblue" d="M520.969,-398.199C438.328,-391.783 247.995,-375.094 226,-356 174.156,-310.995 174.127,-216.74 175.447,-187.703"/>
<polygon fill="midnightblue" stroke="midnightblue" points="520.721,-401.69 530.96,-398.965 521.257,-394.711 520.721,-401.69"/>
</g>
<!-- Node36&#45;&gt;Node22 -->
<g id="edge66" class="edge"><title>Node36&#45;&gt;Node22</title>
<path fill="none" stroke="midnightblue" d="M520.992,-396.079C436.403,-384.066 240,-349.837 240,-291 240,-291 240,-291 240,-233 240,-202.902 239.372,-190.817 259,-168 274.86,-149.564 299.888,-138.212 320.548,-131.523"/>
<polygon fill="midnightblue" stroke="midnightblue" points="520.584,-399.556 530.97,-397.467 521.548,-392.623 520.584,-399.556"/>
</g>
<!-- Node36&#45;&gt;Node29 -->
<g id="edge67" class="edge"><title>Node36&#45;&gt;Node29</title>
<path fill="none" stroke="midnightblue" d="M521.209,-389.584C499.755,-382.042 473.065,-370.806 452,-356 396.673,-317.111 382.248,-302.89 349,-244 338.596,-225.572 333.429,-200.923 331.278,-187.912"/>
<polygon fill="midnightblue" stroke="midnightblue" points="520.371,-392.995 530.965,-392.888 522.617,-386.365 520.371,-392.995"/>
</g>
<!-- Node36&#45;&gt;Node32 -->
<g id="edge64" class="edge"><title>Node36&#45;&gt;Node32</title>
<path fill="none" stroke="midnightblue" d="M597.043,-392.183C640.68,-382.07 711.753,-365.598 754.963,-355.584"/>
<polygon fill="midnightblue" stroke="midnightblue" points="596.057,-388.819 587.105,-394.486 597.637,-395.638 596.057,-388.819"/>
</g>
<!-- Node37 -->
<g id="node37" class="node"><title>Node37</title>
<g id="a_node37"><a xlink:href="../../de/d76/Array_8hpp.html" target="_top" xlink:title=" ">
<polygon fill="white" stroke="black" points="529.5,-336.5 529.5,-355.5 588.5,-355.5 588.5,-336.5 529.5,-336.5"/>
<text text-anchor="middle" x="559" y="-343.5" font-family="Helvetica,sans-Serif" font-size="10.00">Array.hpp</text>
</a>
</g>
</g>
<!-- Node36&#45;&gt;Node37 -->
<g id="edge55" class="edge"><title>Node36&#45;&gt;Node37</title>
<path fill="none" stroke="midnightblue" d="M559,-381.805C559,-372.91 559,-362.78 559,-355.751"/>
<polygon fill="midnightblue" stroke="midnightblue" points="555.5,-382.083 559,-392.083 562.5,-382.083 555.5,-382.083"/>
</g>
<!-- Node42 -->
<g id="node42" class="node"><title>Node42</title>
<g id="a_node42"><a xlink:href="../../d6/df4/Exit_8cpp.html" target="_top" xlink:title=" ">
<polygon fill="white" stroke="black" points="606.5,-336.5 606.5,-355.5 659.5,-355.5 659.5,-336.5 606.5,-336.5"/>
<text text-anchor="middle" x="633" y="-343.5" font-family="Helvetica,sans-Serif" font-size="10.00">Exit.cpp</text>
</a>
</g>
</g>
<!-- Node36&#45;&gt;Node42 -->
<g id="edge65" class="edge"><title>Node36&#45;&gt;Node42</title>
<path fill="none" stroke="midnightblue" d="M579.034,-386.38C592.409,-376.62 609.559,-364.106 620.894,-355.834"/>
<polygon fill="midnightblue" stroke="midnightblue" points="576.904,-383.602 570.889,-392.324 581.03,-389.257 576.904,-383.602"/>
</g>
<!-- Node37&#45;&gt;Node10 -->
<g id="edge59" class="edge"><title>Node37&#45;&gt;Node10</title>
<path fill="none" stroke="midnightblue" d="M598.709,-335.859C720.952,-314.683 854.074,-301.602 926.431,-295.325"/>
<polygon fill="midnightblue" stroke="midnightblue" points="598.048,-332.422 588.803,-337.598 599.257,-339.316 598.048,-332.422"/>
</g>
<!-- Node37&#45;&gt;Node21 -->
<g id="edge58" class="edge"><title>Node37&#45;&gt;Node21</title>
<path fill="none" stroke="midnightblue" d="M598.5,-334.361C636.222,-323.806 688.182,-308.072 694,-300 699.197,-292.789 696.423,-288.552 694,-280 678.063,-223.748 668.703,-206.837 625,-168 605.434,-150.613 577.995,-138.727 557.291,-131.558"/>
<polygon fill="midnightblue" stroke="midnightblue" points="597.473,-331.014 588.771,-337.058 599.343,-337.76 597.473,-331.014"/>
</g>
<!-- Node38 -->
<g id="node38" class="node"><title>Node38</title>
<g id="a_node38"><a xlink:href="../../d5/db6/ArrayHelpers_8hpp.html" target="_top" xlink:title=" ">
<polygon fill="white" stroke="black" points="500,-224.5 500,-243.5 592,-243.5 592,-224.5 500,-224.5"/>
<text text-anchor="middle" x="546" y="-231.5" font-family="Helvetica,sans-Serif" font-size="10.00">ArrayHelpers.hpp</text>
</a>
</g>
</g>
<!-- Node37&#45;&gt;Node38 -->
<g id="edge56" class="edge"><title>Node37&#45;&gt;Node38</title>
<path fill="none" stroke="midnightblue" d="M519.348,-343.274C488.599,-339.598 447.824,-329.1 427,-300 404.944,-269.178 457.697,-251.415 499.888,-242.477"/>
<polygon fill="midnightblue" stroke="midnightblue" points="519.049,-346.762 529.348,-344.276 519.747,-339.797 519.049,-346.762"/>
</g>
<!-- Node39 -->
<g id="node39" class="node"><title>Node39</title>
<g id="a_node39"><a xlink:href="../../d1/dde/BiQuad_8hpp.html" target="_top" xlink:title=" ">
<polygon fill="white" stroke="black" points="436,-280.5 436,-299.5 504,-299.5 504,-280.5 436,-280.5"/>
<text text-anchor="middle" x="470" y="-287.5" font-family="Helvetica,sans-Serif" font-size="10.00">BiQuad.hpp</text>
</a>
</g>
</g>
<!-- Node37&#45;&gt;Node39 -->
<g id="edge60" class="edge"><title>Node37&#45;&gt;Node39</title>
<path fill="none" stroke="midnightblue" d="M535.762,-330.901C519.442,-320.999 498.135,-308.071 484.264,-299.655"/>
<polygon fill="midnightblue" stroke="midnightblue" points="534.336,-334.129 544.701,-336.324 537.967,-328.144 534.336,-334.129"/>
</g>
<!-- Node40 -->
<g id="node40" class="node"><title>Node40</title>
<g id="a_node40"><a xlink:href="../../d2/d3b/FIRFilter_8hpp.html" target="_top" xlink:title=" ">
<polygon fill="white" stroke="black" points="522,-280.5 522,-299.5 596,-299.5 596,-280.5 522,-280.5"/>
<text text-anchor="middle" x="559" y="-287.5" font-family="Helvetica,sans-Serif" font-size="10.00">FIRFilter.hpp</text>
</a>
</g>
</g>
<!-- Node37&#45;&gt;Node40 -->
<g id="edge61" class="edge"><title>Node37&#45;&gt;Node40</title>
<path fill="none" stroke="midnightblue" d="M559,-325.805C559,-316.91 559,-306.78 559,-299.751"/>
<polygon fill="midnightblue" stroke="midnightblue" points="555.5,-326.083 559,-336.083 562.5,-326.083 555.5,-326.083"/>
</g>
<!-- Node41 -->
<g id="node41" class="node"><title>Node41</title>
<g id="a_node41"><a xlink:href="../../dc/d64/IIRFilter_8hpp.html" target="_top" xlink:title=" ">
<polygon fill="white" stroke="black" points="614.5,-280.5 614.5,-299.5 685.5,-299.5 685.5,-280.5 614.5,-280.5"/>
<text text-anchor="middle" x="650" y="-287.5" font-family="Helvetica,sans-Serif" font-size="10.00">IIRFilter.hpp</text>
</a>
</g>
</g>
<!-- Node37&#45;&gt;Node41 -->
<g id="edge62" class="edge"><title>Node37&#45;&gt;Node41</title>
<path fill="none" stroke="midnightblue" d="M582.294,-331.177C599.039,-321.241 621.1,-308.149 635.416,-299.655"/>
<polygon fill="midnightblue" stroke="midnightblue" points="580.434,-328.211 573.621,-336.324 584.007,-334.231 580.434,-328.211"/>
</g>
<!-- Node38&#45;&gt;Node28 -->
<g id="edge57" class="edge"><title>Node38&#45;&gt;Node28</title>
<path fill="none" stroke="midnightblue" d="M541.177,-214.396C538.835,-205.362 536.132,-194.936 534.269,-187.751"/>
<polygon fill="midnightblue" stroke="midnightblue" points="537.79,-215.281 543.688,-224.083 544.566,-213.525 537.79,-215.281"/>
</g>
<!-- Node43&#45;&gt;Node7 -->
<g id="edge71" class="edge"><title>Node43&#45;&gt;Node7</title>
<path fill="none" stroke="midnightblue" d="M214.5,-454.813C140.263,-448.152 38,-424.848 38,-347 38,-347 38,-347 38,-177 38,-136.024 66.7229,-93.3124 80.1868,-75.5423"/>
<polygon fill="midnightblue" stroke="midnightblue" points="214.526,-458.326 224.776,-455.646 215.092,-451.349 214.526,-458.326"/>
</g>
<!-- Node44 -->
<g id="node44" class="node"><title>Node44</title>
<g id="a_node44"><a xlink:href="../../db/d0b/ShiftRegisterOutRGB_8cpp.html" target="_top" xlink:title=" ">
<polygon fill="white" stroke="black" points="225,-392.5 225,-411.5 355,-411.5 355,-392.5 225,-392.5"/>
<text text-anchor="middle" x="290" y="-399.5" font-family="Helvetica,sans-Serif" font-size="10.00">ShiftRegisterOutRGB.cpp</text>
</a>
</g>
</g>
<!-- Node43&#45;&gt;Node44 -->
<g id="edge72" class="edge"><title>Node43&#45;&gt;Node44</title>
<path fill="none" stroke="midnightblue" d="M290,-437.805C290,-428.91 290,-418.78 290,-411.751"/>
<polygon fill="midnightblue" stroke="midnightblue" points="286.5,-438.083 290,-448.083 293.5,-438.083 286.5,-438.083"/>
</g>
<!-- Node47 -->
<g id="node47" class="node"><title>Node47</title>
<g id="a_node47"><a xlink:href="../../db/d02/Settings_8hpp.html" target="_top" xlink:title="All user settings and debugging options can be changed here.">
<polygon fill="white" stroke="black" points="905.5,-560.5 905.5,-579.5 976.5,-579.5 976.5,-560.5 905.5,-560.5"/>
<text text-anchor="middle" x="941" y="-567.5" font-family="Helvetica,sans-Serif" font-size="10.00">Settings.hpp</text>
</a>
</g>
</g>
<!-- Node46&#45;&gt;Node47 -->
<g id="edge76" class="edge"><title>Node46&#45;&gt;Node47</title>
<path fill="none" stroke="midnightblue" d="M942.289,-605.805C941.96,-596.91 941.584,-586.78 941.324,-579.751"/>
<polygon fill="midnightblue" stroke="midnightblue" points="938.802,-606.219 942.67,-616.083 945.797,-605.96 938.802,-606.219"/>
</g>
<!-- Node47&#45;&gt;Node33 -->
<g id="edge77" class="edge"><title>Node47&#45;&gt;Node33</title>
<path fill="none" stroke="midnightblue" d="M919.966,-554.622C905.534,-544.757 886.859,-531.992 874.661,-523.655"/>
<polygon fill="midnightblue" stroke="midnightblue" points="918.077,-557.57 928.307,-560.324 922.027,-551.791 918.077,-557.57"/>
</g>
</g>
</svg>
