<?xml version="1.0" encoding="UTF-8" standalone="no"?>
<!DOCTYPE svg PUBLIC "-//W3C//DTD SVG 1.1//EN"
 "http://www.w3.org/Graphics/SVG/1.1/DTD/svg11.dtd">
<!-- Generated by graphviz version 2.38.0 (20140413.2041)
 -->
<!-- Title: NamespaceSettings.hpp Pages: 1 -->
<svg width="1360pt" height="700pt"
 viewBox="0.00 0.00 1360.30 700.00" xmlns="http://www.w3.org/2000/svg" xmlns:xlink="http://www.w3.org/1999/xlink">
<g id="graph0" class="graph" transform="scale(1 1) rotate(0) translate(4 696)">
<title>NamespaceSettings.hpp</title>
<polygon fill="white" stroke="none" points="-4,4 -4,-696 1356.3,-696 1356.3,4 -4,4"/>
<!-- Node1 -->
<g id="node1" class="node"><title>Node1</title>
<g id="a_node1"><a xlink:title=" ">
<polygon fill="#bfbfbf" stroke="black" points="818.5,-672.5 818.5,-691.5 942.5,-691.5 942.5,-672.5 818.5,-672.5"/>
<text text-anchor="middle" x="880.5" y="-679.5" font-family="Helvetica,sans-Serif" font-size="10.00">NamespaceSettings.hpp</text>
</a>
</g>
</g>
<!-- Node2 -->
<g id="node2" class="node"><title>Node2</title>
<g id="a_node2"><a xlink:href="../../d1/d40/BitArray_8hpp.html" target="_top" xlink:title=" ">
<polygon fill="white" stroke="black" points="1203,-168.5 1203,-187.5 1274,-187.5 1274,-168.5 1203,-168.5"/>
<text text-anchor="middle" x="1238.5" y="-175.5" font-family="Helvetica,sans-Serif" font-size="10.00">BitArray.hpp</text>
</a>
</g>
</g>
<!-- Node1&#45;&gt;Node2 -->
<g id="edge1" class="edge"><title>Node1&#45;&gt;Node2</title>
<path fill="none" stroke="midnightblue" d="M952.487,-673.345C979.594,-667.145 1008.83,-655.997 1029.5,-636 1051.42,-614.794 1051.5,-601.499 1051.5,-571 1051.5,-571 1051.5,-571 1051.5,-289 1051.5,-219.507 1148.63,-193.046 1202.89,-183.686"/>
<polygon fill="midnightblue" stroke="midnightblue" points="951.686,-669.937 942.616,-675.413 953.121,-676.788 951.686,-669.937"/>
</g>
<!-- Node10 -->
<g id="node10" class="node"><title>Node10</title>
<g id="a_node10"><a xlink:href="../../d4/d35/Hardware-Types_8hpp.html" target="_top" xlink:title=" ">
<polygon fill="white" stroke="black" points="840,-280.5 840,-299.5 947,-299.5 947,-280.5 840,-280.5"/>
<text text-anchor="middle" x="893.5" y="-287.5" font-family="Helvetica,sans-Serif" font-size="10.00">Hardware&#45;Types.hpp</text>
</a>
</g>
</g>
<!-- Node1&#45;&gt;Node10 -->
<g id="edge13" class="edge"><title>Node1&#45;&gt;Node10</title>
<path fill="none" stroke="midnightblue" d="M880.5,-662.251C880.5,-640.357 880.5,-603.052 880.5,-571 880.5,-571 880.5,-571 880.5,-401 880.5,-362.924 888.277,-317.944 891.8,-299.517"/>
<polygon fill="midnightblue" stroke="midnightblue" points="877,-662.442 880.5,-672.442 884,-662.442 877,-662.442"/>
</g>
<!-- Node30 -->
<g id="node30" class="node"><title>Node30</title>
<g id="a_node30"><a xlink:href="../../d7/d79/MinMaxFix_8hpp.html" target="_top" xlink:title=" ">
<polygon fill="white" stroke="black" points="241,-448.5 241,-467.5 324,-467.5 324,-448.5 241,-448.5"/>
<text text-anchor="middle" x="282.5" y="-455.5" font-family="Helvetica,sans-Serif" font-size="10.00">MinMaxFix.hpp</text>
</a>
</g>
</g>
<!-- Node1&#45;&gt;Node30 -->
<g id="edge44" class="edge"><title>Node1&#45;&gt;Node30</title>
<path fill="none" stroke="midnightblue" d="M835.794,-669.835C803.482,-661.424 758.939,-649.128 720.5,-636 555.182,-579.539 361.746,-494.5 301.429,-467.525"/>
<polygon fill="midnightblue" stroke="midnightblue" points="835.274,-673.315 845.831,-672.425 837.023,-666.537 835.274,-673.315"/>
</g>
<!-- Node33 -->
<g id="node33" class="node"><title>Node33</title>
<g id="a_node33"><a xlink:href="../../d2/dd5/SettingsWrapper_8hpp.html" target="_top" xlink:title=" ">
<polygon fill="white" stroke="black" points="618.5,-504.5 618.5,-523.5 726.5,-523.5 726.5,-504.5 618.5,-504.5"/>
<text text-anchor="middle" x="672.5" y="-511.5" font-family="Helvetica,sans-Serif" font-size="10.00">SettingsWrapper.hpp</text>
</a>
</g>
</g>
<!-- Node1&#45;&gt;Node33 -->
<g id="edge49" class="edge"><title>Node1&#45;&gt;Node33</title>
<path fill="none" stroke="midnightblue" d="M815.724,-669.899C791.147,-663.221 764.137,-652.646 743.5,-636 704.637,-604.652 682.487,-545.919 675.204,-523.761"/>
<polygon fill="midnightblue" stroke="midnightblue" points="815.167,-673.369 825.721,-672.443 816.893,-666.585 815.167,-673.369"/>
</g>
<!-- Node44 -->
<g id="node44" class="node"><title>Node44</title>
<g id="a_node44"><a xlink:href="../../d1/dd0/MillisMicrosTimer_8hpp.html" target="_top" xlink:title=" ">
<polygon fill="white" stroke="black" points="908.5,-616.5 908.5,-635.5 1020.5,-635.5 1020.5,-616.5 908.5,-616.5"/>
<text text-anchor="middle" x="964.5" y="-623.5" font-family="Helvetica,sans-Serif" font-size="10.00">MillisMicrosTimer.hpp</text>
</a>
</g>
</g>
<!-- Node1&#45;&gt;Node44 -->
<g id="edge73" class="edge"><title>Node1&#45;&gt;Node44</title>
<path fill="none" stroke="midnightblue" d="M902.432,-666.901C917.835,-656.999 937.946,-644.071 951.037,-635.655"/>
<polygon fill="midnightblue" stroke="midnightblue" points="900.515,-663.972 893.996,-672.324 904.301,-669.86 900.515,-663.972"/>
</g>
<!-- Node45 -->
<g id="node45" class="node"><title>Node45</title>
<g id="a_node45"><a xlink:href="../../dc/d50/Frequency_8hpp.html" target="_top" xlink:title=" ">
<polygon fill="white" stroke="black" points="753,-616.5 753,-635.5 834,-635.5 834,-616.5 753,-616.5"/>
<text text-anchor="middle" x="793.5" y="-623.5" font-family="Helvetica,sans-Serif" font-size="10.00">Frequency.hpp</text>
</a>
</g>
</g>
<!-- Node1&#45;&gt;Node45 -->
<g id="edge74" class="edge"><title>Node1&#45;&gt;Node45</title>
<path fill="none" stroke="midnightblue" d="M857.784,-666.901C841.831,-656.999 821.003,-644.071 807.443,-635.655"/>
<polygon fill="midnightblue" stroke="midnightblue" points="856.18,-670.024 866.522,-672.324 859.871,-664.077 856.18,-670.024"/>
</g>
<!-- Node47 -->
<g id="node47" class="node"><title>Node47</title>
<g id="a_node47"><a xlink:href="../../dc/de6/Arduino__Helpers_8h.html" target="_top" xlink:title="Dummy header file for Arduino builder. You have to add this file first, so the other headers are in t...">
<polygon fill="white" stroke="black" points="1080,-616.5 1080,-635.5 1177,-635.5 1177,-616.5 1080,-616.5"/>
<text text-anchor="middle" x="1128.5" y="-623.5" font-family="Helvetica,sans-Serif" font-size="10.00">Arduino_Helpers.h</text>
</a>
</g>
</g>
<!-- Node1&#45;&gt;Node47 -->
<g id="edge77" class="edge"><title>Node1&#45;&gt;Node47</title>
<path fill="none" stroke="midnightblue" d="M929.726,-670.281C976.591,-660.077 1046.2,-644.92 1089.39,-635.516"/>
<polygon fill="midnightblue" stroke="midnightblue" points="928.823,-666.896 919.796,-672.444 930.312,-673.736 928.823,-666.896"/>
</g>
<!-- Node3 -->
<g id="node3" class="node"><title>Node3</title>
<g id="a_node3"><a xlink:href="../../d2/d25/MAX7219_8hpp.html" target="_top" xlink:title=" ">
<polygon fill="white" stroke="black" points="986.5,-56.5 986.5,-75.5 1064.5,-75.5 1064.5,-56.5 986.5,-56.5"/>
<text text-anchor="middle" x="1025.5" y="-63.5" font-family="Helvetica,sans-Serif" font-size="10.00">MAX7219.hpp</text>
</a>
</g>
</g>
<!-- Node2&#45;&gt;Node3 -->
<g id="edge2" class="edge"><title>Node2&#45;&gt;Node3</title>
<path fill="none" stroke="midnightblue" d="M1271.63,-164.445C1299.13,-152.186 1331.1,-132.439 1313.5,-112 1278.31,-71.1351 1126.68,-84.9708 1073.5,-76 1070.57,-75.5064 1067.55,-74.9795 1064.51,-74.4377"/>
<polygon fill="midnightblue" stroke="midnightblue" points="1270.02,-161.328 1262.18,-168.458 1272.76,-167.772 1270.02,-161.328"/>
</g>
<!-- Node4 -->
<g id="node4" class="node"><title>Node4</title>
<g id="a_node4"><a xlink:href="../../d8/d93/ShiftRegisterOutBase_8hpp.html" target="_top" xlink:title=" ">
<polygon fill="white" stroke="black" points="1173,-112.5 1173,-131.5 1304,-131.5 1304,-112.5 1173,-112.5"/>
<text text-anchor="middle" x="1238.5" y="-119.5" font-family="Helvetica,sans-Serif" font-size="10.00">ShiftRegisterOutBase.hpp</text>
</a>
</g>
</g>
<!-- Node2&#45;&gt;Node4 -->
<g id="edge3" class="edge"><title>Node2&#45;&gt;Node4</title>
<path fill="none" stroke="midnightblue" d="M1238.5,-157.805C1238.5,-148.91 1238.5,-138.78 1238.5,-131.751"/>
<polygon fill="midnightblue" stroke="midnightblue" points="1235,-158.083 1238.5,-168.083 1242,-158.083 1235,-158.083"/>
</g>
<!-- Node8 -->
<g id="node8" class="node"><title>Node8</title>
<g id="a_node8"><a xlink:href="../../d7/d88/SPIShiftRegisterOut_8hpp.html" target="_top" xlink:title=" ">
<polygon fill="white" stroke="black" points="1083,-56.5 1083,-75.5 1208,-75.5 1208,-56.5 1083,-56.5"/>
<text text-anchor="middle" x="1145.5" y="-63.5" font-family="Helvetica,sans-Serif" font-size="10.00">SPIShiftRegisterOut.hpp</text>
</a>
</g>
</g>
<!-- Node2&#45;&gt;Node8 -->
<g id="edge12" class="edge"><title>Node2&#45;&gt;Node8</title>
<path fill="none" stroke="midnightblue" d="M1284.12,-167.382C1322.51,-157.183 1367.97,-138.813 1346.5,-112 1337.24,-100.434 1255.71,-84.9809 1199.38,-75.5226"/>
<polygon fill="midnightblue" stroke="midnightblue" points="1282.89,-164.082 1274.05,-169.921 1284.6,-170.87 1282.89,-164.082"/>
</g>
<!-- Node5 -->
<g id="node5" class="node"><title>Node5</title>
<g id="a_node5"><a xlink:href="../../d0/db4/ShiftRegisterOut_8hpp.html" target="_top" xlink:title=" ">
<polygon fill="white" stroke="black" points="1226.5,-56.5 1226.5,-75.5 1334.5,-75.5 1334.5,-56.5 1226.5,-56.5"/>
<text text-anchor="middle" x="1280.5" y="-63.5" font-family="Helvetica,sans-Serif" font-size="10.00">ShiftRegisterOut.hpp</text>
</a>
</g>
</g>
<!-- Node4&#45;&gt;Node5 -->
<g id="edge4" class="edge"><title>Node4&#45;&gt;Node5</title>
<path fill="none" stroke="midnightblue" d="M1251.61,-104.144C1258.93,-94.7357 1267.74,-83.4046 1273.69,-75.7511"/>
<polygon fill="midnightblue" stroke="midnightblue" points="1248.81,-102.041 1245.44,-112.083 1254.34,-106.338 1248.81,-102.041"/>
</g>
<!-- Node7 -->
<g id="node7" class="node"><title>Node7</title>
<g id="a_node7"><a xlink:href="../../d5/d47/ShiftRegisterOutBase_8ipp.html" target="_top" xlink:title=" ">
<polygon fill="white" stroke="black" points="827.5,-56.5 827.5,-75.5 955.5,-75.5 955.5,-56.5 827.5,-56.5"/>
<text text-anchor="middle" x="891.5" y="-63.5" font-family="Helvetica,sans-Serif" font-size="10.00">ShiftRegisterOutBase.ipp</text>
</a>
</g>
</g>
<!-- Node4&#45;&gt;Node7 -->
<g id="edge7" class="edge"><title>Node4&#45;&gt;Node7</title>
<path fill="none" stroke="midnightblue" d="M1168.31,-110.917C1100.85,-100.715 1000.73,-85.1174 941.146,-75.5164"/>
<polygon fill="midnightblue" stroke="midnightblue" points="1168.02,-114.412 1178.43,-112.444 1169.06,-107.491 1168.02,-114.412"/>
</g>
<!-- Node4&#45;&gt;Node8 -->
<g id="edge9" class="edge"><title>Node4&#45;&gt;Node8</title>
<path fill="none" stroke="midnightblue" d="M1214.69,-107.177C1197.58,-97.2407 1175.03,-84.1492 1160.4,-75.6545"/>
<polygon fill="midnightblue" stroke="midnightblue" points="1213.15,-110.329 1223.56,-112.324 1216.67,-104.276 1213.15,-110.329"/>
</g>
<!-- Node6 -->
<g id="node6" class="node"><title>Node6</title>
<g id="a_node6"><a xlink:href="../../de/d95/ShiftRegisterOut_8ipp.html" target="_top" xlink:title=" ">
<polygon fill="white" stroke="black" points="1228,-0.5 1228,-19.5 1333,-19.5 1333,-0.5 1228,-0.5"/>
<text text-anchor="middle" x="1280.5" y="-7.5" font-family="Helvetica,sans-Serif" font-size="10.00">ShiftRegisterOut.ipp</text>
</a>
</g>
</g>
<!-- Node5&#45;&gt;Node6 -->
<g id="edge5" class="edge"><title>Node5&#45;&gt;Node6</title>
<path fill="none" stroke="midnightblue" d="M1274.03,-46.1005C1273.4,-37.1357 1273.84,-26.8579 1275.37,-19.7511"/>
<polygon fill="midnightblue" stroke="midnightblue" points="1270.57,-46.6216 1275.33,-56.083 1277.51,-45.7134 1270.57,-46.6216"/>
</g>
<!-- Node6&#45;&gt;Node5 -->
<g id="edge6" class="edge"><title>Node6&#45;&gt;Node5</title>
<path fill="none" stroke="midnightblue" d="M1286.96,-29.6911C1287.61,-38.6353 1287.18,-48.9272 1285.67,-56.083"/>
<polygon fill="midnightblue" stroke="midnightblue" points="1290.42,-29.2002 1285.63,-19.7511 1283.48,-30.1262 1290.42,-29.2002"/>
</g>
<!-- Node7&#45;&gt;Node4 -->
<g id="edge8" class="edge"><title>Node7&#45;&gt;Node4</title>
<path fill="none" stroke="midnightblue" d="M961.412,-77.0409C1028.78,-87.2275 1128.91,-102.826 1188.61,-112.444"/>
<polygon fill="midnightblue" stroke="midnightblue" points="961.716,-73.5473 951.306,-75.5164 960.672,-80.469 961.716,-73.5473"/>
</g>
<!-- Node9 -->
<g id="node9" class="node"><title>Node9</title>
<g id="a_node9"><a xlink:href="../../da/d45/SPIShiftRegisterOut_8ipp.html" target="_top" xlink:title=" ">
<polygon fill="white" stroke="black" points="1084.5,-0.5 1084.5,-19.5 1206.5,-19.5 1206.5,-0.5 1084.5,-0.5"/>
<text text-anchor="middle" x="1145.5" y="-7.5" font-family="Helvetica,sans-Serif" font-size="10.00">SPIShiftRegisterOut.ipp</text>
</a>
</g>
</g>
<!-- Node8&#45;&gt;Node9 -->
<g id="edge10" class="edge"><title>Node8&#45;&gt;Node9</title>
<path fill="none" stroke="midnightblue" d="M1139.03,-46.1005C1138.4,-37.1357 1138.84,-26.8579 1140.37,-19.7511"/>
<polygon fill="midnightblue" stroke="midnightblue" points="1135.57,-46.6216 1140.33,-56.083 1142.51,-45.7134 1135.57,-46.6216"/>
</g>
<!-- Node9&#45;&gt;Node8 -->
<g id="edge11" class="edge"><title>Node9&#45;&gt;Node8</title>
<path fill="none" stroke="midnightblue" d="M1151.96,-29.6911C1152.61,-38.6353 1152.18,-48.9272 1150.67,-56.083"/>
<polygon fill="midnightblue" stroke="midnightblue" points="1155.42,-29.2002 1150.63,-19.7511 1148.48,-30.1262 1155.42,-29.2002"/>
</g>
<!-- Node11 -->
<g id="node11" class="node"><title>Node11</title>
<g id="a_node11"><a xlink:href="../../d9/d4b/ButtonMatrix_8hpp.html" target="_top" xlink:title=" ">
<polygon fill="white" stroke="black" points="1071,-168.5 1071,-187.5 1162,-187.5 1162,-168.5 1071,-168.5"/>
<text text-anchor="middle" x="1116.5" y="-175.5" font-family="Helvetica,sans-Serif" font-size="10.00">ButtonMatrix.hpp</text>
</a>
</g>
</g>
<!-- Node10&#45;&gt;Node11 -->
<g id="edge14" class="edge"><title>Node10&#45;&gt;Node11</title>
<path fill="none" stroke="midnightblue" d="M914.205,-274.729C935.114,-260.7 968.644,-239.235 999.5,-224 1029.75,-209.066 1066.26,-195.719 1090.36,-187.513"/>
<polygon fill="midnightblue" stroke="midnightblue" points="912.116,-271.917 905.801,-280.424 916.043,-277.712 912.116,-271.917"/>
</g>
<!-- Node13 -->
<g id="node13" class="node"><title>Node13</title>
<g id="a_node13"><a xlink:href="../../d4/d57/ExtendedIOElement_8hpp.html" target="_top" xlink:title=" ">
<polygon fill="white" stroke="black" points="629,-224.5 629,-243.5 752,-243.5 752,-224.5 629,-224.5"/>
<text text-anchor="middle" x="690.5" y="-231.5" font-family="Helvetica,sans-Serif" font-size="10.00">ExtendedIOElement.hpp</text>
</a>
</g>
</g>
<!-- Node10&#45;&gt;Node13 -->
<g id="edge17" class="edge"><title>Node10&#45;&gt;Node13</title>
<path fill="none" stroke="midnightblue" d="M851.506,-277.829C813.177,-267.633 757.348,-252.782 722.515,-243.516"/>
<polygon fill="midnightblue" stroke="midnightblue" points="850.77,-281.255 861.334,-280.444 852.57,-274.49 850.77,-281.255"/>
</g>
<!-- Node23 -->
<g id="node23" class="node"><title>Node23</title>
<g id="a_node23"><a xlink:href="../../d8/df3/FilteredAnalog_8hpp.html" target="_top" xlink:title=" ">
<polygon fill="white" stroke="black" points="271.5,-112.5 271.5,-131.5 369.5,-131.5 369.5,-112.5 271.5,-112.5"/>
<text text-anchor="middle" x="320.5" y="-119.5" font-family="Helvetica,sans-Serif" font-size="10.00">FilteredAnalog.hpp</text>
</a>
</g>
</g>
<!-- Node10&#45;&gt;Node23 -->
<g id="edge43" class="edge"><title>Node10&#45;&gt;Node23</title>
<path fill="none" stroke="midnightblue" d="M829.638,-282.244C773.601,-275.435 690.243,-263.162 619.5,-244 552.419,-225.83 537.937,-214.036 473.5,-188 425.335,-168.539 369.261,-144.31 340.212,-131.639"/>
<polygon fill="midnightblue" stroke="midnightblue" points="829.43,-285.744 839.774,-283.452 830.259,-278.793 829.43,-285.744"/>
</g>
<!-- Node12 -->
<g id="node12" class="node"><title>Node12</title>
<g id="a_node12"><a xlink:href="../../d5/d41/ButtonMatrix_8ipp.html" target="_top" xlink:title=" ">
<polygon fill="white" stroke="black" points="1066.5,-112.5 1066.5,-131.5 1154.5,-131.5 1154.5,-112.5 1066.5,-112.5"/>
<text text-anchor="middle" x="1110.5" y="-119.5" font-family="Helvetica,sans-Serif" font-size="10.00">ButtonMatrix.ipp</text>
</a>
</g>
</g>
<!-- Node11&#45;&gt;Node12 -->
<g id="edge15" class="edge"><title>Node11&#45;&gt;Node12</title>
<path fill="none" stroke="midnightblue" d="M1107.93,-158.101C1106.3,-149.136 1105.6,-138.858 1106.34,-131.751"/>
<polygon fill="midnightblue" stroke="midnightblue" points="1104.59,-159.187 1110.34,-168.083 1111.39,-157.54 1104.59,-159.187"/>
</g>
<!-- Node12&#45;&gt;Node11 -->
<g id="edge16" class="edge"><title>Node12&#45;&gt;Node11</title>
<path fill="none" stroke="midnightblue" d="M1119.03,-141.691C1120.68,-150.635 1121.39,-160.927 1120.68,-168.083"/>
<polygon fill="midnightblue" stroke="midnightblue" points="1122.38,-140.633 1116.6,-131.751 1115.58,-142.296 1122.38,-140.633"/>
</g>
<!-- Node14 -->
<g id="node14" class="node"><title>Node14</title>
<g id="a_node14"><a xlink:href="../../dd/ddf/ExtendedInputOutput_8hpp.html" target="_top" xlink:title=" ">
<polygon fill="white" stroke="black" points="624.5,-168.5 624.5,-187.5 752.5,-187.5 752.5,-168.5 624.5,-168.5"/>
<text text-anchor="middle" x="688.5" y="-175.5" font-family="Helvetica,sans-Serif" font-size="10.00">ExtendedInputOutput.hpp</text>
</a>
</g>
</g>
<!-- Node13&#45;&gt;Node14 -->
<g id="edge18" class="edge"><title>Node13&#45;&gt;Node14</title>
<path fill="none" stroke="midnightblue" d="M689.789,-213.805C689.46,-204.91 689.084,-194.78 688.824,-187.751"/>
<polygon fill="midnightblue" stroke="midnightblue" points="686.302,-214.219 690.17,-224.083 693.297,-213.96 686.302,-214.219"/>
</g>
<!-- Node22 -->
<g id="node22" class="node"><title>Node22</title>
<g id="a_node22"><a xlink:href="../../d6/d3c/ExtendedInputOutput_8cpp.html" target="_top" xlink:title=" ">
<polygon fill="white" stroke="black" points="760.5,-112.5 760.5,-131.5 888.5,-131.5 888.5,-112.5 760.5,-112.5"/>
<text text-anchor="middle" x="824.5" y="-119.5" font-family="Helvetica,sans-Serif" font-size="10.00">ExtendedInputOutput.cpp</text>
</a>
</g>
</g>
<!-- Node13&#45;&gt;Node22 -->
<g id="edge41" class="edge"><title>Node13&#45;&gt;Node22</title>
<path fill="none" stroke="midnightblue" d="M715.143,-219.335C729.269,-211.033 747.013,-199.786 761.5,-188 783.687,-169.949 806.169,-144.711 817.313,-131.629"/>
<polygon fill="midnightblue" stroke="midnightblue" points="713.371,-216.317 706.453,-224.342 716.865,-222.382 713.371,-216.317"/>
</g>
<!-- Node28 -->
<g id="node28" class="node"><title>Node28</title>
<g id="a_node28"><a xlink:href="../../d2/d05/StaticSizeExtendedIOElement_8hpp.html" target="_top" xlink:title=" ">
<polygon fill="white" stroke="black" points="884.5,-168.5 884.5,-187.5 1052.5,-187.5 1052.5,-168.5 884.5,-168.5"/>
<text text-anchor="middle" x="968.5" y="-175.5" font-family="Helvetica,sans-Serif" font-size="10.00">StaticSizeExtendedIOElement.hpp</text>
</a>
</g>
</g>
<!-- Node13&#45;&gt;Node28 -->
<g id="edge37" class="edge"><title>Node13&#45;&gt;Node28</title>
<path fill="none" stroke="midnightblue" d="M744.692,-222.473C797.232,-212.268 875.939,-196.979 924.656,-187.516"/>
<polygon fill="midnightblue" stroke="midnightblue" points="743.699,-219.101 734.55,-224.444 745.034,-225.972 743.699,-219.101"/>
</g>
<!-- Node29 -->
<g id="node29" class="node"><title>Node29</title>
<g id="a_node29"><a xlink:href="../../da/d1f/ExtendedIOElement_8cpp.html" target="_top" xlink:title=" ">
<polygon fill="white" stroke="black" points="483,-168.5 483,-187.5 606,-187.5 606,-168.5 483,-168.5"/>
<text text-anchor="middle" x="544.5" y="-175.5" font-family="Helvetica,sans-Serif" font-size="10.00">ExtendedIOElement.cpp</text>
</a>
</g>
</g>
<!-- Node13&#45;&gt;Node29 -->
<g id="edge42" class="edge"><title>Node13&#45;&gt;Node29</title>
<path fill="none" stroke="midnightblue" d="M657.801,-220.906C630.352,-210.754 591.832,-196.506 567.526,-187.516"/>
<polygon fill="midnightblue" stroke="midnightblue" points="656.773,-224.257 667.366,-224.444 659.201,-217.692 656.773,-224.257"/>
</g>
<!-- Node14&#45;&gt;Node6 -->
<g id="edge29" class="edge"><title>Node14&#45;&gt;Node6</title>
<path fill="none" stroke="midnightblue" d="M660.12,-163.636C646.352,-155.981 630.464,-145.249 619.5,-132 597.001,-104.811 572.281,-81.6685 596.5,-56 643.78,-5.89033 1146.94,-26.7298 1215.5,-20 1219.47,-19.6105 1223.57,-19.1593 1227.68,-18.6705"/>
<polygon fill="midnightblue" stroke="midnightblue" points="658.747,-166.869 669.225,-168.437 662.012,-160.677 658.747,-166.869"/>
</g>
<!-- Node14&#45;&gt;Node7 -->
<g id="edge28" class="edge"><title>Node14&#45;&gt;Node7</title>
<path fill="none" stroke="midnightblue" d="M660.915,-163.55C638.136,-150.666 611.885,-130.502 627.5,-112 640.301,-96.8325 753.474,-81.8787 827.429,-73.6012"/>
<polygon fill="midnightblue" stroke="midnightblue" points="659.548,-166.789 670.014,-168.437 662.861,-160.622 659.548,-166.789"/>
</g>
<!-- Node14&#45;&gt;Node9 -->
<g id="edge30" class="edge"><title>Node14&#45;&gt;Node9</title>
<path fill="none" stroke="midnightblue" d="M619.488,-166.875C566.535,-158.311 498.414,-145.335 473.5,-132 436.275,-112.076 387.579,-86.7616 416.5,-56 439.246,-31.8068 912.983,-17.074 1084.33,-12.5201"/>
<polygon fill="midnightblue" stroke="midnightblue" points="619.095,-170.357 629.522,-168.475 620.197,-163.444 619.095,-170.357"/>
</g>
<!-- Node14&#45;&gt;Node12 -->
<g id="edge25" class="edge"><title>Node14&#45;&gt;Node12</title>
<path fill="none" stroke="midnightblue" d="M762.762,-167.497C850.646,-156.251 994.12,-137.892 1066.21,-128.668"/>
<polygon fill="midnightblue" stroke="midnightblue" points="762.068,-164.058 752.593,-168.799 762.956,-171.001 762.068,-164.058"/>
</g>
<!-- Node15 -->
<g id="node15" class="node"><title>Node15</title>
<g id="a_node15"><a xlink:href="../../d4/db3/Button_8hpp.html" target="_top" xlink:title=" ">
<polygon fill="white" stroke="black" points="180.5,-112.5 180.5,-131.5 244.5,-131.5 244.5,-112.5 180.5,-112.5"/>
<text text-anchor="middle" x="212.5" y="-119.5" font-family="Helvetica,sans-Serif" font-size="10.00">Button.hpp</text>
</a>
</g>
</g>
<!-- Node14&#45;&gt;Node15 -->
<g id="edge19" class="edge"><title>Node14&#45;&gt;Node15</title>
<path fill="none" stroke="midnightblue" d="M614.27,-168.002C456.527,-150.636 415.028,-153.495 262.5,-132 256.736,-131.188 250.62,-130.196 244.718,-129.171"/>
<polygon fill="midnightblue" stroke="midnightblue" points="614.008,-171.494 624.333,-169.12 614.781,-164.537 614.008,-171.494"/>
</g>
<!-- Node21 -->
<g id="node21" class="node"><title>Node21</title>
<g id="a_node21"><a xlink:href="../../d7/def/AnalogMultiplex_8hpp.html" target="_top" xlink:title=" ">
<polygon fill="white" stroke="black" points="906.5,-112.5 906.5,-131.5 1010.5,-131.5 1010.5,-112.5 906.5,-112.5"/>
<text text-anchor="middle" x="958.5" y="-119.5" font-family="Helvetica,sans-Serif" font-size="10.00">AnalogMultiplex.hpp</text>
</a>
</g>
</g>
<!-- Node14&#45;&gt;Node21 -->
<g id="edge26" class="edge"><title>Node14&#45;&gt;Node21</title>
<path fill="none" stroke="midnightblue" d="M741.133,-166.473C792.161,-156.268 868.603,-140.979 915.918,-131.516"/>
<polygon fill="midnightblue" stroke="midnightblue" points="740.402,-163.05 731.282,-168.444 741.775,-169.914 740.402,-163.05"/>
</g>
<!-- Node14&#45;&gt;Node22 -->
<g id="edge27" class="edge"><title>Node14&#45;&gt;Node22</title>
<path fill="none" stroke="midnightblue" d="M719.635,-164.638C745.157,-154.504 780.609,-140.427 803.051,-131.516"/>
<polygon fill="midnightblue" stroke="midnightblue" points="718.052,-161.5 710.05,-168.444 720.635,-168.006 718.052,-161.5"/>
</g>
<!-- Node14&#45;&gt;Node23 -->
<g id="edge31" class="edge"><title>Node14&#45;&gt;Node23</title>
<path fill="none" stroke="midnightblue" d="M620.205,-166.978C547.474,-156.306 434.152,-139.677 369.705,-130.22"/>
<polygon fill="midnightblue" stroke="midnightblue" points="619.787,-170.455 630.189,-168.444 620.803,-163.529 619.787,-170.455"/>
</g>
<!-- Node24 -->
<g id="node24" class="node"><title>Node24</title>
<g id="a_node24"><a xlink:href="../../d9/d4f/LEDs_8hpp.html" target="_top" xlink:title=" ">
<polygon fill="white" stroke="black" points="482.5,-112.5 482.5,-131.5 542.5,-131.5 542.5,-112.5 482.5,-112.5"/>
<text text-anchor="middle" x="512.5" y="-119.5" font-family="Helvetica,sans-Serif" font-size="10.00">LEDs.hpp</text>
</a>
</g>
</g>
<!-- Node14&#45;&gt;Node24 -->
<g id="edge32" class="edge"><title>Node14&#45;&gt;Node24</title>
<path fill="none" stroke="midnightblue" d="M650.811,-165.436C617.628,-155.255 570.072,-140.664 540.257,-131.516"/>
<polygon fill="midnightblue" stroke="midnightblue" points="650.025,-168.856 660.612,-168.444 652.079,-162.164 650.025,-168.856"/>
</g>
<!-- Node26 -->
<g id="node26" class="node"><title>Node26</title>
<g id="a_node26"><a xlink:href="../../d7/d13/MAX7219__Base_8hpp.html" target="_top" xlink:title=" ">
<polygon fill="white" stroke="black" points="636.5,-112.5 636.5,-131.5 742.5,-131.5 742.5,-112.5 636.5,-112.5"/>
<text text-anchor="middle" x="689.5" y="-119.5" font-family="Helvetica,sans-Serif" font-size="10.00">MAX7219_Base.hpp</text>
</a>
</g>
</g>
<!-- Node14&#45;&gt;Node26 -->
<g id="edge34" class="edge"><title>Node14&#45;&gt;Node26</title>
<path fill="none" stroke="midnightblue" d="M688.855,-157.805C689.02,-148.91 689.208,-138.78 689.338,-131.751"/>
<polygon fill="midnightblue" stroke="midnightblue" points="685.351,-158.02 688.665,-168.083 692.35,-158.15 685.351,-158.02"/>
</g>
<!-- Node16 -->
<g id="node16" class="node"><title>Node16</title>
<g id="a_node16"><a xlink:href="../../de/dd1/Button_8cpp.html" target="_top" xlink:title=" ">
<polygon fill="white" stroke="black" points="179.5,-56.5 179.5,-75.5 243.5,-75.5 243.5,-56.5 179.5,-56.5"/>
<text text-anchor="middle" x="211.5" y="-63.5" font-family="Helvetica,sans-Serif" font-size="10.00">Button.cpp</text>
</a>
</g>
</g>
<!-- Node15&#45;&gt;Node16 -->
<g id="edge20" class="edge"><title>Node15&#45;&gt;Node16</title>
<path fill="none" stroke="midnightblue" d="M212.145,-101.805C211.98,-92.9102 211.792,-82.7798 211.662,-75.7511"/>
<polygon fill="midnightblue" stroke="midnightblue" points="208.65,-102.15 212.335,-112.083 215.649,-102.02 208.65,-102.15"/>
</g>
<!-- Node17 -->
<g id="node17" class="node"><title>Node17</title>
<g id="a_node17"><a xlink:href="../../d5/d04/IncrementButton_8hpp.html" target="_top" xlink:title=" ">
<polygon fill="white" stroke="black" points="262,-56.5 262,-75.5 369,-75.5 369,-56.5 262,-56.5"/>
<text text-anchor="middle" x="315.5" y="-63.5" font-family="Helvetica,sans-Serif" font-size="10.00">IncrementButton.hpp</text>
</a>
</g>
</g>
<!-- Node15&#45;&gt;Node17 -->
<g id="edge21" class="edge"><title>Node15&#45;&gt;Node17</title>
<path fill="none" stroke="midnightblue" d="M238.079,-107.59C257.123,-97.6052 282.564,-84.2672 298.992,-75.6545"/>
<polygon fill="midnightblue" stroke="midnightblue" points="236.28,-104.581 229.049,-112.324 239.531,-110.78 236.28,-104.581"/>
</g>
<!-- Node19 -->
<g id="node19" class="node"><title>Node19</title>
<g id="a_node19"><a xlink:href="../../df/df5/IncrementDecrementButtons_8hpp.html" target="_top" xlink:title=" ">
<polygon fill="white" stroke="black" points="0,-56.5 0,-75.5 161,-75.5 161,-56.5 0,-56.5"/>
<text text-anchor="middle" x="80.5" y="-63.5" font-family="Helvetica,sans-Serif" font-size="10.00">IncrementDecrementButtons.hpp</text>
</a>
</g>
</g>
<!-- Node15&#45;&gt;Node19 -->
<g id="edge23" class="edge"><title>Node15&#45;&gt;Node19</title>
<path fill="none" stroke="midnightblue" d="M182.281,-108.638C157.51,-98.504 123.1,-84.4274 101.318,-75.5164"/>
<polygon fill="midnightblue" stroke="midnightblue" points="181.003,-111.897 191.584,-112.444 183.654,-105.418 181.003,-111.897"/>
</g>
<!-- Node18 -->
<g id="node18" class="node"><title>Node18</title>
<g id="a_node18"><a xlink:href="../../db/d9d/IncrementButton_8cpp.html" target="_top" xlink:title=" ">
<polygon fill="white" stroke="black" points="262,-0.5 262,-19.5 369,-19.5 369,-0.5 262,-0.5"/>
<text text-anchor="middle" x="315.5" y="-7.5" font-family="Helvetica,sans-Serif" font-size="10.00">IncrementButton.cpp</text>
</a>
</g>
</g>
<!-- Node17&#45;&gt;Node18 -->
<g id="edge22" class="edge"><title>Node17&#45;&gt;Node18</title>
<path fill="none" stroke="midnightblue" d="M315.5,-45.8045C315.5,-36.9102 315.5,-26.7798 315.5,-19.7511"/>
<polygon fill="midnightblue" stroke="midnightblue" points="312,-46.083 315.5,-56.083 319,-46.083 312,-46.083"/>
</g>
<!-- Node20 -->
<g id="node20" class="node"><title>Node20</title>
<g id="a_node20"><a xlink:href="../../da/d66/IncrementDecrementButtons_8cpp.html" target="_top" xlink:title=" ">
<polygon fill="white" stroke="black" points="0,-0.5 0,-19.5 161,-19.5 161,-0.5 0,-0.5"/>
<text text-anchor="middle" x="80.5" y="-7.5" font-family="Helvetica,sans-Serif" font-size="10.00">IncrementDecrementButtons.cpp</text>
</a>
</g>
</g>
<!-- Node19&#45;&gt;Node20 -->
<g id="edge24" class="edge"><title>Node19&#45;&gt;Node20</title>
<path fill="none" stroke="midnightblue" d="M80.5,-45.8045C80.5,-36.9102 80.5,-26.7798 80.5,-19.7511"/>
<polygon fill="midnightblue" stroke="midnightblue" points="77.0001,-46.083 80.5,-56.083 84.0001,-46.083 77.0001,-46.083"/>
</g>
<!-- Node25 -->
<g id="node25" class="node"><title>Node25</title>
<g id="a_node25"><a xlink:href="../../d6/d3a/DotBarDisplayLEDs_8hpp.html" target="_top" xlink:title=" ">
<polygon fill="white" stroke="black" points="425.5,-56.5 425.5,-75.5 549.5,-75.5 549.5,-56.5 425.5,-56.5"/>
<text text-anchor="middle" x="487.5" y="-63.5" font-family="Helvetica,sans-Serif" font-size="10.00">DotBarDisplayLEDs.hpp</text>
</a>
</g>
</g>
<!-- Node24&#45;&gt;Node25 -->
<g id="edge33" class="edge"><title>Node24&#45;&gt;Node25</title>
<path fill="none" stroke="midnightblue" d="M504.159,-102.983C499.915,-93.8168 494.95,-83.0922 491.551,-75.7511"/>
<polygon fill="midnightblue" stroke="midnightblue" points="500.994,-104.479 508.372,-112.083 507.347,-101.538 500.994,-104.479"/>
</g>
<!-- Node26&#45;&gt;Node3 -->
<g id="edge35" class="edge"><title>Node26&#45;&gt;Node3</title>
<path fill="none" stroke="midnightblue" d="M752.99,-110.796C821.604,-99.769 928.8,-82.541 986.157,-73.323"/>
<polygon fill="midnightblue" stroke="midnightblue" points="752.058,-107.401 742.74,-112.444 753.169,-114.312 752.058,-107.401"/>
</g>
<!-- Node27 -->
<g id="node27" class="node"><title>Node27</title>
<g id="a_node27"><a xlink:href="../../d5/d0c/MAX7219SevenSegmentDisplay_8hpp.html" target="_top" xlink:title=" ">
<polygon fill="white" stroke="black" points="605.5,-56.5 605.5,-75.5 783.5,-75.5 783.5,-56.5 605.5,-56.5"/>
<text text-anchor="middle" x="694.5" y="-63.5" font-family="Helvetica,sans-Serif" font-size="10.00">MAX7219SevenSegmentDisplay.hpp</text>
</a>
</g>
</g>
<!-- Node26&#45;&gt;Node27 -->
<g id="edge36" class="edge"><title>Node26&#45;&gt;Node27</title>
<path fill="none" stroke="midnightblue" d="M691.25,-102.101C692.08,-93.1357 693.032,-82.8579 693.69,-75.7511"/>
<polygon fill="midnightblue" stroke="midnightblue" points="687.763,-101.803 690.326,-112.083 694.733,-102.448 687.763,-101.803"/>
</g>
<!-- Node28&#45;&gt;Node3 -->
<g id="edge39" class="edge"><title>Node28&#45;&gt;Node3</title>
<path fill="none" stroke="midnightblue" d="M991.696,-162.538C1002.02,-154.809 1013.23,-144.338 1019.5,-132 1028.84,-113.61 1027.93,-88.5154 1026.63,-75.544"/>
<polygon fill="midnightblue" stroke="midnightblue" points="989.553,-159.766 983.365,-168.366 993.566,-165.502 989.553,-159.766"/>
</g>
<!-- Node28&#45;&gt;Node4 -->
<g id="edge40" class="edge"><title>Node28&#45;&gt;Node4</title>
<path fill="none" stroke="midnightblue" d="M1021.13,-166.473C1072.16,-156.268 1148.6,-140.979 1195.92,-131.516"/>
<polygon fill="midnightblue" stroke="midnightblue" points="1020.4,-163.05 1011.28,-168.444 1021.77,-169.914 1020.4,-163.05"/>
</g>
<!-- Node28&#45;&gt;Node21 -->
<g id="edge38" class="edge"><title>Node28&#45;&gt;Node21</title>
<path fill="none" stroke="midnightblue" d="M965,-158.101C963.34,-149.136 961.437,-138.858 960.121,-131.751"/>
<polygon fill="midnightblue" stroke="midnightblue" points="961.586,-158.888 966.849,-168.083 968.469,-157.613 961.586,-158.888"/>
</g>
<!-- Node30&#45;&gt;Node23 -->
<g id="edge48" class="edge"><title>Node30&#45;&gt;Node23</title>
<path fill="none" stroke="midnightblue" d="M282.5,-438.251C282.5,-416.357 282.5,-379.052 282.5,-347 282.5,-347 282.5,-347 282.5,-233 282.5,-193.399 304.775,-149.957 315.216,-131.769"/>
<polygon fill="midnightblue" stroke="midnightblue" points="279,-438.442 282.5,-448.442 286,-438.442 279,-438.442"/>
</g>
<!-- Node31 -->
<g id="node31" class="node"><title>Node31</title>
<g id="a_node31"><a xlink:href="../../de/dd1/LinkedList_8hpp.html" target="_top" xlink:title=" ">
<polygon fill="white" stroke="black" points="534.5,-392.5 534.5,-411.5 614.5,-411.5 614.5,-392.5 534.5,-392.5"/>
<text text-anchor="middle" x="574.5" y="-399.5" font-family="Helvetica,sans-Serif" font-size="10.00">LinkedList.hpp</text>
</a>
</g>
</g>
<!-- Node30&#45;&gt;Node31 -->
<g id="edge45" class="edge"><title>Node30&#45;&gt;Node31</title>
<path fill="none" stroke="midnightblue" d="M333.922,-447.491C390.975,-436.94 481.855,-420.133 534.056,-410.479"/>
<polygon fill="midnightblue" stroke="midnightblue" points="333.223,-444.06 324.026,-449.32 334.496,-450.944 333.223,-444.06"/>
</g>
<!-- Node31&#45;&gt;Node13 -->
<g id="edge47" class="edge"><title>Node31&#45;&gt;Node13</title>
<path fill="none" stroke="midnightblue" d="M552.787,-386.066C543.444,-378.308 533.526,-367.947 528.5,-356 525.053,-347.807 525.374,-344.321 528.5,-336 548.376,-283.101 613.636,-255.864 655.011,-243.571"/>
<polygon fill="midnightblue" stroke="midnightblue" points="550.66,-388.845 560.713,-392.189 554.939,-383.306 550.66,-388.845"/>
</g>
<!-- Node32 -->
<g id="node32" class="node"><title>Node32</title>
<g id="a_node32"><a xlink:href="../../d4/d93/Updatable_8hpp.html" target="_top" xlink:title=" ">
<polygon fill="white" stroke="black" points="537.5,-336.5 537.5,-355.5 617.5,-355.5 617.5,-336.5 537.5,-336.5"/>
<text text-anchor="middle" x="577.5" y="-343.5" font-family="Helvetica,sans-Serif" font-size="10.00">Updatable.hpp</text>
</a>
</g>
</g>
<!-- Node31&#45;&gt;Node32 -->
<g id="edge46" class="edge"><title>Node31&#45;&gt;Node32</title>
<path fill="none" stroke="midnightblue" d="M575.566,-381.805C576.061,-372.91 576.623,-362.78 577.014,-355.751"/>
<polygon fill="midnightblue" stroke="midnightblue" points="572.056,-381.904 574.995,-392.083 579.045,-382.293 572.056,-381.904"/>
</g>
<!-- Node33&#45;&gt;Node15 -->
<g id="edge68" class="edge"><title>Node33&#45;&gt;Node15</title>
<path fill="none" stroke="midnightblue" d="M607.964,-510.356C492.473,-505.053 259.817,-491.564 231.5,-468 208.365,-448.748 212.5,-433.098 212.5,-403 212.5,-403 212.5,-403 212.5,-233 212.5,-195.188 212.5,-150.064 212.5,-131.558"/>
<polygon fill="midnightblue" stroke="midnightblue" points="607.944,-513.858 618.091,-510.813 608.26,-506.865 607.944,-513.858"/>
</g>
<!-- Node33&#45;&gt;Node23 -->
<g id="edge72" class="edge"><title>Node33&#45;&gt;Node23</title>
<path fill="none" stroke="midnightblue" d="M607.89,-507.195C558.588,-501.277 489.648,-489.751 432.5,-468 364.013,-441.934 320.5,-420.279 320.5,-347 320.5,-347 320.5,-347 320.5,-233 320.5,-195.188 320.5,-150.064 320.5,-131.558"/>
<polygon fill="midnightblue" stroke="midnightblue" points="607.766,-510.704 618.101,-508.375 608.569,-503.75 607.766,-510.704"/>
</g>
<!-- Node33&#45;&gt;Node32 -->
<g id="edge50" class="edge"><title>Node33&#45;&gt;Node32</title>
<path fill="none" stroke="midnightblue" d="M667.542,-494.292C660.403,-469.478 645.607,-424.976 623.5,-392 613.795,-377.524 598.837,-363.98 588.631,-355.608"/>
<polygon fill="midnightblue" stroke="midnightblue" points="664.242,-495.491 670.282,-504.196 670.989,-493.624 664.242,-495.491"/>
</g>
<!-- Node34 -->
<g id="node34" class="node"><title>Node34</title>
<g id="a_node34"><a xlink:href="../../df/dee/Debug_8hpp.html" target="_top" xlink:title=" ">
<polygon fill="white" stroke="black" points="670.5,-448.5 670.5,-467.5 734.5,-467.5 734.5,-448.5 670.5,-448.5"/>
<text text-anchor="middle" x="702.5" y="-455.5" font-family="Helvetica,sans-Serif" font-size="10.00">Debug.hpp</text>
</a>
</g>
</g>
<!-- Node33&#45;&gt;Node34 -->
<g id="edge51" class="edge"><title>Node33&#45;&gt;Node34</title>
<path fill="none" stroke="midnightblue" d="M676.243,-494.69C680.605,-485.589 686.912,-475.014 692.507,-467.751"/>
<polygon fill="midnightblue" stroke="midnightblue" points="672.943,-493.508 672.288,-504.083 679.394,-496.225 672.943,-493.508"/>
</g>
<!-- Node42 -->
<g id="node42" class="node"><title>Node42</title>
<g id="a_node42"><a xlink:href="../../d1/d1f/ShiftRegisterOutRGB_8hpp.html" target="_top" xlink:title=" ">
<polygon fill="white" stroke="black" points="441.5,-448.5 441.5,-467.5 571.5,-467.5 571.5,-448.5 441.5,-448.5"/>
<text text-anchor="middle" x="506.5" y="-455.5" font-family="Helvetica,sans-Serif" font-size="10.00">ShiftRegisterOutRGB.hpp</text>
</a>
</g>
</g>
<!-- Node33&#45;&gt;Node42 -->
<g id="edge69" class="edge"><title>Node33&#45;&gt;Node42</title>
<path fill="none" stroke="midnightblue" d="M636.547,-501.304C605.268,-491.129 560.679,-476.625 532.68,-467.516"/>
<polygon fill="midnightblue" stroke="midnightblue" points="635.605,-504.678 646.197,-504.444 637.77,-498.022 635.605,-504.678"/>
</g>
<!-- Node34&#45;&gt;Node31 -->
<g id="edge52" class="edge"><title>Node34&#45;&gt;Node31</title>
<path fill="none" stroke="midnightblue" d="M672.877,-444.503C648.881,-434.38 615.716,-420.388 594.687,-411.516"/>
<polygon fill="midnightblue" stroke="midnightblue" points="671.644,-447.781 682.218,-448.444 674.365,-441.332 671.644,-447.781"/>
</g>
<!-- Node34&#45;&gt;Node33 -->
<g id="edge67" class="edge"><title>Node34&#45;&gt;Node33</title>
<path fill="none" stroke="midnightblue" d="M698.856,-477.103C694.524,-486.181 688.226,-496.77 682.62,-504.083"/>
<polygon fill="midnightblue" stroke="midnightblue" points="702.138,-478.327 702.769,-467.751 695.68,-475.625 702.138,-478.327"/>
</g>
<!-- Node35 -->
<g id="node35" class="node"><title>Node35</title>
<g id="a_node35"><a xlink:href="../../df/d66/Debug_8cpp.html" target="_top" xlink:title=" ">
<polygon fill="white" stroke="black" points="670.5,-392.5 670.5,-411.5 734.5,-411.5 734.5,-392.5 670.5,-392.5"/>
<text text-anchor="middle" x="702.5" y="-399.5" font-family="Helvetica,sans-Serif" font-size="10.00">Debug.cpp</text>
</a>
</g>
</g>
<!-- Node34&#45;&gt;Node35 -->
<g id="edge53" class="edge"><title>Node34&#45;&gt;Node35</title>
<path fill="none" stroke="midnightblue" d="M702.5,-437.805C702.5,-428.91 702.5,-418.78 702.5,-411.751"/>
<polygon fill="midnightblue" stroke="midnightblue" points="699,-438.083 702.5,-448.083 706,-438.083 699,-438.083"/>
</g>
<!-- Node36 -->
<g id="node36" class="node"><title>Node36</title>
<g id="a_node36"><a xlink:href="../../d1/d93/Error_8hpp.html" target="_top" xlink:title=" ">
<polygon fill="white" stroke="black" points="752.5,-392.5 752.5,-411.5 808.5,-411.5 808.5,-392.5 752.5,-392.5"/>
<text text-anchor="middle" x="780.5" y="-399.5" font-family="Helvetica,sans-Serif" font-size="10.00">Error.hpp</text>
</a>
</g>
</g>
<!-- Node34&#45;&gt;Node36 -->
<g id="edge54" class="edge"><title>Node34&#45;&gt;Node36</title>
<path fill="none" stroke="midnightblue" d="M723.268,-442.622C737.517,-432.757 755.956,-419.992 767.999,-411.655"/>
<polygon fill="midnightblue" stroke="midnightblue" points="721.262,-439.754 715.032,-448.324 725.246,-445.51 721.262,-439.754"/>
</g>
<!-- Node36&#45;&gt;Node2 -->
<g id="edge62" class="edge"><title>Node36&#45;&gt;Node2</title>
<path fill="none" stroke="midnightblue" d="M818.582,-397.214C871.708,-391.212 964.387,-377.895 989.5,-356 1036.55,-314.977 990.615,-265.215 1037.5,-224 1049.85,-213.139 1148.29,-194.644 1202.68,-185.099"/>
<polygon fill="midnightblue" stroke="midnightblue" points="818.074,-393.749 808.515,-398.317 818.837,-400.707 818.074,-393.749"/>
</g>
<!-- Node36&#45;&gt;Node22 -->
<g id="edge65" class="edge"><title>Node36&#45;&gt;Node22</title>
<path fill="none" stroke="midnightblue" d="M818.198,-391.392C860.214,-378.441 926.106,-350.903 955.5,-300 990.079,-240.118 891.196,-295.392 846.5,-244 817.776,-210.973 820.948,-153.25 823.352,-131.561"/>
<polygon fill="midnightblue" stroke="midnightblue" points="817.184,-388.042 808.585,-394.231 819.166,-394.756 817.184,-388.042"/>
</g>
<!-- Node36&#45;&gt;Node29 -->
<g id="edge66" class="edge"><title>Node36&#45;&gt;Node29</title>
<path fill="none" stroke="midnightblue" d="M745.322,-388.882C705.6,-373.639 641.213,-344.014 600.5,-300 568.435,-265.335 551.913,-209.081 546.524,-187.658"/>
<polygon fill="midnightblue" stroke="midnightblue" points="744.268,-392.225 754.861,-392.448 746.719,-385.668 744.268,-392.225"/>
</g>
<!-- Node36&#45;&gt;Node32 -->
<g id="edge63" class="edge"><title>Node36&#45;&gt;Node32</title>
<path fill="none" stroke="midnightblue" d="M742.505,-390.893C704.147,-380.689 645.561,-365.105 609.498,-355.512"/>
<polygon fill="midnightblue" stroke="midnightblue" points="741.71,-394.303 752.274,-393.492 743.51,-387.538 741.71,-394.303"/>
</g>
<!-- Node37 -->
<g id="node37" class="node"><title>Node37</title>
<g id="a_node37"><a xlink:href="../../de/d76/Array_8hpp.html" target="_top" xlink:title=" ">
<polygon fill="white" stroke="black" points="718,-336.5 718,-355.5 777,-355.5 777,-336.5 718,-336.5"/>
<text text-anchor="middle" x="747.5" y="-343.5" font-family="Helvetica,sans-Serif" font-size="10.00">Array.hpp</text>
</a>
</g>
</g>
<!-- Node36&#45;&gt;Node37 -->
<g id="edge55" class="edge"><title>Node36&#45;&gt;Node37</title>
<path fill="none" stroke="midnightblue" d="M769.668,-383.275C764.028,-374.045 757.382,-363.17 752.848,-355.751"/>
<polygon fill="midnightblue" stroke="midnightblue" points="766.85,-385.375 775.051,-392.083 772.823,-381.725 766.85,-385.375"/>
</g>
<!-- Node41 -->
<g id="node41" class="node"><title>Node41</title>
<g id="a_node41"><a xlink:href="../../d6/df4/Exit_8cpp.html" target="_top" xlink:title=" ">
<polygon fill="white" stroke="black" points="795,-336.5 795,-355.5 848,-355.5 848,-336.5 795,-336.5"/>
<text text-anchor="middle" x="821.5" y="-343.5" font-family="Helvetica,sans-Serif" font-size="10.00">Exit.cpp</text>
</a>
</g>
</g>
<!-- Node36&#45;&gt;Node41 -->
<g id="edge64" class="edge"><title>Node36&#45;&gt;Node41</title>
<path fill="none" stroke="midnightblue" d="M793.517,-383.855C800.617,-374.505 809.104,-363.327 814.856,-355.751"/>
<polygon fill="midnightblue" stroke="midnightblue" points="790.53,-382.002 787.27,-392.083 796.105,-386.235 790.53,-382.002"/>
</g>
<!-- Node37&#45;&gt;Node10 -->
<g id="edge59" class="edge"><title>Node37&#45;&gt;Node10</title>
<path fill="none" stroke="midnightblue" d="M780.199,-332.906C807.648,-322.754 846.168,-308.506 870.474,-299.516"/>
<polygon fill="midnightblue" stroke="midnightblue" points="778.799,-329.692 770.634,-336.444 781.227,-336.257 778.799,-329.692"/>
</g>
<!-- Node37&#45;&gt;Node21 -->
<g id="edge58" class="edge"><title>Node37&#45;&gt;Node21</title>
<path fill="none" stroke="midnightblue" d="M708.017,-340.683C658.029,-333.622 581.68,-316.555 610.5,-280 652.947,-226.16 697.616,-271.314 760.5,-244 816.692,-219.593 822.966,-199.519 875.5,-168 897.989,-154.507 924.789,-140.302 941.726,-131.546"/>
<polygon fill="midnightblue" stroke="midnightblue" points="707.555,-344.152 717.93,-342.003 708.479,-337.213 707.555,-344.152"/>
</g>
<!-- Node38 -->
<g id="node38" class="node"><title>Node38</title>
<g id="a_node38"><a xlink:href="../../d5/db6/ArrayHelpers_8hpp.html" target="_top" xlink:title=" ">
<polygon fill="white" stroke="black" points="855.5,-224.5 855.5,-243.5 947.5,-243.5 947.5,-224.5 855.5,-224.5"/>
<text text-anchor="middle" x="901.5" y="-231.5" font-family="Helvetica,sans-Serif" font-size="10.00">ArrayHelpers.hpp</text>
</a>
</g>
</g>
<!-- Node37&#45;&gt;Node38 -->
<g id="edge56" class="edge"><title>Node37&#45;&gt;Node38</title>
<path fill="none" stroke="midnightblue" d="M765.52,-330.042C782.07,-316.509 807.453,-296.268 830.5,-280 849.576,-266.535 872.542,-252.323 887.083,-243.558"/>
<polygon fill="midnightblue" stroke="midnightblue" points="763.228,-327.395 757.729,-336.451 767.675,-332.801 763.228,-327.395"/>
</g>
<!-- Node39 -->
<g id="node39" class="node"><title>Node39</title>
<g id="a_node39"><a xlink:href="../../d2/d3b/FIRFilter_8hpp.html" target="_top" xlink:title=" ">
<polygon fill="white" stroke="black" points="619.5,-280.5 619.5,-299.5 693.5,-299.5 693.5,-280.5 619.5,-280.5"/>
<text text-anchor="middle" x="656.5" y="-287.5" font-family="Helvetica,sans-Serif" font-size="10.00">FIRFilter.hpp</text>
</a>
</g>
</g>
<!-- Node37&#45;&gt;Node39 -->
<g id="edge60" class="edge"><title>Node37&#45;&gt;Node39</title>
<path fill="none" stroke="midnightblue" d="M724.206,-331.177C707.461,-321.241 685.4,-308.149 671.084,-299.655"/>
<polygon fill="midnightblue" stroke="midnightblue" points="722.493,-334.231 732.879,-336.324 726.066,-328.211 722.493,-334.231"/>
</g>
<!-- Node40 -->
<g id="node40" class="node"><title>Node40</title>
<g id="a_node40"><a xlink:href="../../dc/d64/IIRFilter_8hpp.html" target="_top" xlink:title=" ">
<polygon fill="white" stroke="black" points="712,-280.5 712,-299.5 783,-299.5 783,-280.5 712,-280.5"/>
<text text-anchor="middle" x="747.5" y="-287.5" font-family="Helvetica,sans-Serif" font-size="10.00">IIRFilter.hpp</text>
</a>
</g>
</g>
<!-- Node37&#45;&gt;Node40 -->
<g id="edge61" class="edge"><title>Node37&#45;&gt;Node40</title>
<path fill="none" stroke="midnightblue" d="M747.5,-325.805C747.5,-316.91 747.5,-306.78 747.5,-299.751"/>
<polygon fill="midnightblue" stroke="midnightblue" points="744,-326.083 747.5,-336.083 751,-326.083 744,-326.083"/>
</g>
<!-- Node38&#45;&gt;Node28 -->
<g id="edge57" class="edge"><title>Node38&#45;&gt;Node28</title>
<path fill="none" stroke="midnightblue" d="M920.335,-217.82C932.338,-208.145 947.472,-195.948 957.539,-187.834"/>
<polygon fill="midnightblue" stroke="midnightblue" points="917.854,-215.324 912.265,-224.324 922.247,-220.774 917.854,-215.324"/>
</g>
<!-- Node42&#45;&gt;Node7 -->
<g id="edge70" class="edge"><title>Node42&#45;&gt;Node7</title>
<path fill="none" stroke="midnightblue" d="M501.277,-438.356C483.672,-373.705 429.978,-160.459 473.5,-112 479.352,-105.484 711.551,-83.4293 827.285,-72.8094"/>
<polygon fill="midnightblue" stroke="midnightblue" points="497.995,-439.618 504.029,-448.326 504.742,-437.755 497.995,-439.618"/>
</g>
<!-- Node43 -->
<g id="node43" class="node"><title>Node43</title>
<g id="a_node43"><a xlink:href="../../db/d0b/ShiftRegisterOutRGB_8cpp.html" target="_top" xlink:title=" ">
<polygon fill="white" stroke="black" points="348.5,-392.5 348.5,-411.5 478.5,-411.5 478.5,-392.5 348.5,-392.5"/>
<text text-anchor="middle" x="413.5" y="-399.5" font-family="Helvetica,sans-Serif" font-size="10.00">ShiftRegisterOutRGB.cpp</text>
</a>
</g>
</g>
<!-- Node42&#45;&gt;Node43 -->
<g id="edge71" class="edge"><title>Node42&#45;&gt;Node43</title>
<path fill="none" stroke="midnightblue" d="M482.694,-443.177C465.581,-433.241 443.035,-420.149 428.405,-411.655"/>
<polygon fill="midnightblue" stroke="midnightblue" points="481.153,-446.329 491.558,-448.324 484.668,-440.276 481.153,-446.329"/>
</g>
<!-- Node46 -->
<g id="node46" class="node"><title>Node46</title>
<g id="a_node46"><a xlink:href="../../db/d02/Settings_8hpp.html" target="_top" xlink:title="All user settings and debugging options can be changed here.">
<polygon fill="white" stroke="black" points="756,-560.5 756,-579.5 827,-579.5 827,-560.5 756,-560.5"/>
<text text-anchor="middle" x="791.5" y="-567.5" font-family="Helvetica,sans-Serif" font-size="10.00">Settings.hpp</text>
</a>
</g>
</g>
<!-- Node45&#45;&gt;Node46 -->
<g id="edge75" class="edge"><title>Node45&#45;&gt;Node46</title>
<path fill="none" stroke="midnightblue" d="M792.789,-605.805C792.46,-596.91 792.084,-586.78 791.824,-579.751"/>
<polygon fill="midnightblue" stroke="midnightblue" points="789.302,-606.219 793.17,-616.083 796.297,-605.96 789.302,-606.219"/>
</g>
<!-- Node46&#45;&gt;Node33 -->
<g id="edge76" class="edge"><title>Node46&#45;&gt;Node33</title>
<path fill="none" stroke="midnightblue" d="M763.363,-556.232C741.104,-546.131 710.644,-532.309 691.268,-523.516"/>
<polygon fill="midnightblue" stroke="midnightblue" points="762.091,-559.498 772.644,-560.444 764.984,-553.124 762.091,-559.498"/>
</g>
</g>
</svg>
