<?xml version="1.0" encoding="UTF-8" standalone="no"?>
<!DOCTYPE svg PUBLIC "-//W3C//DTD SVG 1.1//EN"
 "http://www.w3.org/Graphics/SVG/1.1/DTD/svg11.dtd">
<!-- Generated by graphviz version 2.43.0 (0)
 -->
<!-- Title: ExtendedIOElement.hpp Pages: 1 -->
<svg width="1786pt" height="778pt"
 viewBox="0.00 0.00 1785.65 778.00" xmlns="http://www.w3.org/2000/svg" xmlns:xlink="http://www.w3.org/1999/xlink">
<g id="graph0" class="graph" transform="scale(1 1) rotate(0) translate(4 774)">
<title>ExtendedIOElement.hpp</title>
<polygon fill="white" stroke="transparent" points="-4,4 -4,-774 1781.65,-774 1781.65,4 -4,4"/>
<!-- Node1 -->
<g id="node1" class="node">
<title>Node1</title>
<g id="a_node1"><a xlink:title=" ">
<polygon fill="#bfbfbf" stroke="black" points="369.15,-750.5 369.15,-769.5 503.15,-769.5 503.15,-750.5 369.15,-750.5"/>
<text text-anchor="middle" x="436.15" y="-757.5" font-family="Helvetica,sans-Serif" font-size="10.00">ExtendedIOElement.hpp</text>
</a>
</g>
</g>
<!-- Node2 -->
<g id="node2" class="node">
<title>Node2</title>
<g id="a_node2"><a xlink:href="../../d1/d65/Warnings_8hpp.html" target="_top" xlink:title=" ">
<polygon fill="white" stroke="black" points="836.65,-0.5 836.65,-19.5 979.65,-19.5 979.65,-0.5 836.65,-0.5"/>
<text text-anchor="middle" x="908.15" y="-7.5" font-family="Helvetica,sans-Serif" font-size="10.00">AH/Settings/Warnings.hpp</text>
</a>
</g>
</g>
<!-- Node1&#45;&gt;Node2 -->
<g id="edge1" class="edge">
<title>Node1&#45;&gt;Node2</title>
<path fill="none" stroke="midnightblue" d="M369.14,-755.09C247.12,-746.12 1.15,-718.71 1.15,-643.5 1.15,-643.5 1.15,-643.5 1.15,-121 1.15,-90.9 -3.46,-74.66 20.15,-56 51.5,-31.24 612.67,-17.1 826.41,-12.59"/>
<polygon fill="midnightblue" stroke="midnightblue" points="826.7,-16.09 836.63,-12.38 826.56,-9.09 826.7,-16.09"/>
</g>
<!-- Node3 -->
<g id="node3" class="node">
<title>Node3</title>
<g id="a_node3"><a xlink:href="../../dd/ddf/ExtendedInputOutput_8hpp.html" target="_top" xlink:title=" ">
<polygon fill="white" stroke="black" points="310.65,-694.5 310.65,-713.5 451.65,-713.5 451.65,-694.5 310.65,-694.5"/>
<text text-anchor="middle" x="381.15" y="-701.5" font-family="Helvetica,sans-Serif" font-size="10.00">ExtendedInputOutput.hpp</text>
</a>
</g>
</g>
<!-- Node1&#45;&gt;Node3 -->
<g id="edge2" class="edge">
<title>Node1&#45;&gt;Node3</title>
<path fill="none" stroke="midnightblue" d="M427.07,-750.08C418.98,-742.14 406.96,-730.34 397.24,-720.8"/>
<polygon fill="midnightblue" stroke="midnightblue" points="399.66,-718.26 390.07,-713.75 394.75,-723.25 399.66,-718.26"/>
</g>
<!-- Node5 -->
<g id="node5" class="node">
<title>Node5</title>
<g id="a_node5"><a xlink:href="../../d4/d35/Hardware-Types_8hpp.html" target="_top" xlink:title=" ">
<polygon fill="white" stroke="black" points="402.65,-560.5 402.65,-590.5 533.65,-590.5 533.65,-560.5 402.65,-560.5"/>
<text text-anchor="start" x="410.65" y="-578.5" font-family="Helvetica,sans-Serif" font-size="10.00">AH/Hardware/Hardware</text>
<text text-anchor="middle" x="468.15" y="-567.5" font-family="Helvetica,sans-Serif" font-size="10.00">&#45;Types.hpp</text>
</a>
</g>
</g>
<!-- Node1&#45;&gt;Node5 -->
<g id="edge68" class="edge">
<title>Node1&#45;&gt;Node5</title>
<path fill="none" stroke="midnightblue" d="M441.94,-750.46C447.57,-741.71 455.87,-727.5 460.15,-714 472.28,-675.77 471.95,-628.61 470.28,-600.63"/>
<polygon fill="midnightblue" stroke="midnightblue" points="473.77,-600.3 469.57,-590.57 466.78,-600.79 473.77,-600.3"/>
</g>
<!-- Node29 -->
<g id="node29" class="node">
<title>Node29</title>
<g id="a_node29"><a xlink:href="../../d4/d93/Updatable_8hpp.html" target="_top" xlink:title=" ">
<polygon fill="white" stroke="black" points="1219.65,-504.5 1219.65,-523.5 1380.65,-523.5 1380.65,-504.5 1219.65,-504.5"/>
<text text-anchor="middle" x="1300.15" y="-511.5" font-family="Helvetica,sans-Serif" font-size="10.00">AH/Containers/Updatable.hpp</text>
</a>
</g>
</g>
<!-- Node1&#45;&gt;Node29 -->
<g id="edge54" class="edge">
<title>Node1&#45;&gt;Node29</title>
<path fill="none" stroke="midnightblue" d="M484.56,-750.45C598.81,-729.59 893.46,-671.8 1130.15,-591 1182.84,-573.02 1241.56,-544.84 1274.36,-528.32"/>
<polygon fill="midnightblue" stroke="midnightblue" points="1276.34,-531.24 1283.67,-523.59 1273.17,-525 1276.34,-531.24"/>
</g>
<!-- Node3&#45;&gt;Node2 -->
<g id="edge53" class="edge">
<title>Node3&#45;&gt;Node2</title>
<path fill="none" stroke="midnightblue" d="M310.48,-695.7C261.88,-689.05 203.45,-677.27 188.15,-658 179.59,-647.21 184.51,-640.29 188.15,-627 218.8,-515.35 321.15,-518.78 321.15,-403 321.15,-403 321.15,-403 321.15,-121 321.15,-64.98 375.94,-73.5 429.15,-56 500.69,-32.48 709.08,-19.77 826.05,-14.31"/>
<polygon fill="midnightblue" stroke="midnightblue" points="826.56,-17.79 836.39,-13.83 826.24,-10.79 826.56,-17.79"/>
</g>
<!-- Node4 -->
<g id="node4" class="node">
<title>Node4</title>
<g id="a_node4"><a xlink:href="../../d2/d3c/Arduino-Hardware-Types_8hpp.html" target="_top" xlink:title=" ">
<polygon fill="white" stroke="black" points="197.15,-627.5 197.15,-657.5 319.15,-657.5 319.15,-627.5 197.15,-627.5"/>
<text text-anchor="start" x="205.15" y="-645.5" font-family="Helvetica,sans-Serif" font-size="10.00">AH/Hardware/Arduino</text>
<text text-anchor="middle" x="258.15" y="-634.5" font-family="Helvetica,sans-Serif" font-size="10.00">&#45;Hardware&#45;Types.hpp</text>
</a>
</g>
</g>
<!-- Node3&#45;&gt;Node4 -->
<g id="edge3" class="edge">
<title>Node3&#45;&gt;Node4</title>
<path fill="none" stroke="midnightblue" d="M363.53,-694.48C346.09,-686.04 318.84,-672.86 296.41,-662.01"/>
<polygon fill="midnightblue" stroke="midnightblue" points="297.67,-658.73 287.14,-657.52 294.62,-665.03 297.67,-658.73"/>
</g>
<!-- Node10 -->
<g id="node10" class="node">
<title>Node10</title>
<g id="a_node10"><a xlink:href="../../dc/dc7/NamespaceSettings_8hpp.html" target="_top" xlink:title=" ">
<polygon fill="white" stroke="black" points="666.65,-56.5 666.65,-75.5 861.65,-75.5 861.65,-56.5 666.65,-56.5"/>
<text text-anchor="middle" x="764.15" y="-63.5" font-family="Helvetica,sans-Serif" font-size="10.00">AH/Settings/NamespaceSettings.hpp</text>
</a>
</g>
</g>
<!-- Node3&#45;&gt;Node10 -->
<g id="edge52" class="edge">
<title>Node3&#45;&gt;Node10</title>
<path fill="none" stroke="midnightblue" d="M396.94,-694.47C409.36,-686.77 425.76,-674.18 433.15,-658 438.88,-645.47 438.76,-639.59 433.15,-627 423.42,-605.15 405.55,-611.45 393.15,-591 361.75,-539.2 359.15,-519.58 359.15,-459 359.15,-459 359.15,-459 359.15,-233 359.15,-128.73 463.3,-150.63 560.15,-112 601.84,-95.38 650.88,-84.31 690.43,-77.31"/>
<polygon fill="midnightblue" stroke="midnightblue" points="691.27,-80.72 700.54,-75.58 690.09,-73.82 691.27,-80.72"/>
</g>
<!-- Node28 -->
<g id="node28" class="node">
<title>Node28</title>
<g id="a_node28"><a xlink:title=" ">
<polygon fill="white" stroke="#bfbfbf" points="337.65,-633 337.65,-652 424.65,-652 424.65,-633 337.65,-633"/>
<text text-anchor="middle" x="381.15" y="-640" font-family="Helvetica,sans-Serif" font-size="10.00">AH/STL/climits</text>
</a>
</g>
</g>
<!-- Node3&#45;&gt;Node28 -->
<g id="edge51" class="edge">
<title>Node3&#45;&gt;Node28</title>
<path fill="none" stroke="midnightblue" d="M381.15,-694.48C381.15,-686.08 381.15,-672.98 381.15,-662.16"/>
<polygon fill="midnightblue" stroke="midnightblue" points="384.65,-662.01 381.15,-652.01 377.65,-662.01 384.65,-662.01"/>
</g>
<!-- Node4&#45;&gt;Node2 -->
<g id="edge4" class="edge">
<title>Node4&#45;&gt;Node2</title>
<path fill="none" stroke="midnightblue" d="M262.86,-627.26C270.1,-604.03 283.15,-556.42 283.15,-515 283.15,-515 283.15,-515 283.15,-121 283.15,-90.2 282.56,-74.54 307.15,-56 347.64,-25.49 671.25,-15.38 826.12,-12.27"/>
<polygon fill="midnightblue" stroke="midnightblue" points="826.59,-15.77 836.52,-12.07 826.46,-8.77 826.59,-15.77"/>
</g>
<!-- Node4&#45;&gt;Node5 -->
<g id="edge5" class="edge">
<title>Node4&#45;&gt;Node5</title>
<path fill="none" stroke="midnightblue" d="M303.46,-627.48C335.51,-617.56 378.66,-604.2 412.75,-593.65"/>
<polygon fill="midnightblue" stroke="midnightblue" points="414.05,-596.91 422.57,-590.61 411.98,-590.22 414.05,-596.91"/>
</g>
<!-- Node11 -->
<g id="node11" class="node">
<title>Node11</title>
<g id="a_node11"><a xlink:href="../../d6/ddf/Arduino-Wrapper_8h.html" target="_top" xlink:title=" ">
<polygon fill="white" stroke="black" points="1135.15,-168.5 1135.15,-187.5 1259.15,-187.5 1259.15,-168.5 1135.15,-168.5"/>
<text text-anchor="middle" x="1197.15" y="-175.5" font-family="Helvetica,sans-Serif" font-size="10.00">AH/Arduino&#45;Wrapper.h</text>
</a>
</g>
</g>
<!-- Node4&#45;&gt;Node11 -->
<g id="edge50" class="edge">
<title>Node4&#45;&gt;Node11</title>
<path fill="none" stroke="midnightblue" d="M319.19,-628.62C322.22,-628.06 325.22,-627.51 328.15,-627 502.39,-596.6 1116.15,-691.87 1116.15,-515 1116.15,-515 1116.15,-515 1116.15,-457 1116.15,-426.9 1118.85,-417.3 1135.15,-392 1169.13,-339.28 1203.95,-349.74 1242.15,-300 1258.99,-278.09 1263,-270.94 1269.15,-244 1271.13,-235.33 1273.46,-231.77 1269.15,-224 1261.07,-209.41 1246.05,-198.92 1231.82,-191.76"/>
<polygon fill="midnightblue" stroke="midnightblue" points="1233.2,-188.55 1222.66,-187.53 1230.27,-194.9 1233.2,-188.55"/>
</g>
<!-- Node25 -->
<g id="node25" class="node">
<title>Node25</title>
<g id="a_node25"><a xlink:href="../../d0/db1/FunctionTraits_8hpp.html" target="_top" xlink:title=" ">
<polygon fill="white" stroke="black" points="101.65,-112.5 101.65,-131.5 254.65,-131.5 254.65,-112.5 101.65,-112.5"/>
<text text-anchor="middle" x="178.15" y="-119.5" font-family="Helvetica,sans-Serif" font-size="10.00">AH/Types/FunctionTraits.hpp</text>
</a>
</g>
</g>
<!-- Node4&#45;&gt;Node25 -->
<g id="edge45" class="edge">
<title>Node4&#45;&gt;Node25</title>
<path fill="none" stroke="midnightblue" d="M248.32,-627.45C233.5,-604.86 207.15,-558.57 207.15,-515 207.15,-515 207.15,-515 207.15,-233 207.15,-199.72 194.59,-162.58 186,-141.09"/>
<polygon fill="midnightblue" stroke="midnightblue" points="189.14,-139.53 182.07,-131.64 182.67,-142.21 189.14,-139.53"/>
</g>
<!-- Node5&#45;&gt;Node2 -->
<g id="edge6" class="edge">
<title>Node5&#45;&gt;Node2</title>
<path fill="none" stroke="midnightblue" d="M452.04,-560.19C431.1,-539.93 397.15,-500.66 397.15,-459 397.15,-459 397.15,-459 397.15,-121 397.15,-34.26 682.09,-15.73 826.42,-11.9"/>
<polygon fill="midnightblue" stroke="midnightblue" points="826.65,-15.4 836.56,-11.65 826.48,-8.4 826.65,-15.4"/>
</g>
<!-- Node6 -->
<g id="node6" class="node">
<title>Node6</title>
<g id="a_node6"><a xlink:href="../../de/d76/Array_8hpp.html" target="_top" xlink:title=" ">
<polygon fill="white" stroke="black" points="622.65,-504.5 622.65,-523.5 757.65,-523.5 757.65,-504.5 622.65,-504.5"/>
<text text-anchor="middle" x="690.15" y="-511.5" font-family="Helvetica,sans-Serif" font-size="10.00">AH/Containers/Array.hpp</text>
</a>
</g>
</g>
<!-- Node5&#45;&gt;Node6 -->
<g id="edge7" class="edge">
<title>Node5&#45;&gt;Node6</title>
<path fill="none" stroke="midnightblue" d="M520.48,-560.47C559.62,-549.99 612.41,-535.84 648.66,-526.12"/>
<polygon fill="midnightblue" stroke="midnightblue" points="649.66,-529.48 658.42,-523.51 647.85,-522.71 649.66,-529.48"/>
</g>
<!-- Node5&#45;&gt;Node10 -->
<g id="edge43" class="edge">
<title>Node5&#45;&gt;Node10</title>
<path fill="none" stroke="midnightblue" d="M461.32,-560.29C451.65,-538.85 435.15,-496.75 435.15,-459 435.15,-459 435.15,-459 435.15,-289 435.15,-182.36 506.04,-167.41 597.15,-112 625.16,-94.97 659.65,-84.28 689.99,-77.62"/>
<polygon fill="midnightblue" stroke="midnightblue" points="691.04,-80.98 700.11,-75.51 689.61,-74.13 691.04,-80.98"/>
</g>
<!-- Node22 -->
<g id="node22" class="node">
<title>Node22</title>
<g id="a_node22"><a xlink:title=" ">
<polygon fill="white" stroke="#bfbfbf" points="577.65,-224.5 577.65,-243.5 630.65,-243.5 630.65,-224.5 577.65,-224.5"/>
<text text-anchor="middle" x="604.15" y="-231.5" font-family="Helvetica,sans-Serif" font-size="10.00">stdint.h</text>
</a>
</g>
</g>
<!-- Node5&#45;&gt;Node22 -->
<g id="edge44" class="edge">
<title>Node5&#45;&gt;Node22</title>
<path fill="none" stroke="midnightblue" d="M473.83,-560.34C495.45,-506.36 572.74,-313.43 596.89,-253.14"/>
<polygon fill="midnightblue" stroke="midnightblue" points="600.17,-254.36 600.64,-243.77 593.67,-251.75 600.17,-254.36"/>
</g>
<!-- Node6&#45;&gt;Node2 -->
<g id="edge8" class="edge">
<title>Node6&#45;&gt;Node2</title>
<path fill="none" stroke="midnightblue" d="M646.14,-504.42C619.89,-497.72 586.95,-486.36 562.15,-468 508.5,-428.27 473.15,-413.76 473.15,-347 473.15,-347 473.15,-347 473.15,-289 473.15,-180.21 451.57,-106.06 548.15,-56 595.11,-31.66 735.41,-19.89 826.36,-14.67"/>
<polygon fill="midnightblue" stroke="midnightblue" points="826.58,-18.16 836.37,-14.11 826.19,-11.17 826.58,-18.16"/>
</g>
<!-- Node7 -->
<g id="node7" class="node">
<title>Node7</title>
<g id="a_node7"><a xlink:href="../../d1/d93/Error_8hpp.html" target="_top" xlink:title=" ">
<polygon fill="white" stroke="black" points="833.15,-448.5 833.15,-467.5 937.15,-467.5 937.15,-448.5 833.15,-448.5"/>
<text text-anchor="middle" x="885.15" y="-455.5" font-family="Helvetica,sans-Serif" font-size="10.00">AH/Error/Error.hpp</text>
</a>
</g>
</g>
<!-- Node6&#45;&gt;Node7 -->
<g id="edge9" class="edge">
<title>Node6&#45;&gt;Node7</title>
<path fill="none" stroke="midnightblue" d="M721.05,-504.44C754.43,-495.2 807.75,-480.44 844.5,-470.26"/>
<polygon fill="midnightblue" stroke="midnightblue" points="845.7,-473.56 854.4,-467.52 843.83,-466.81 845.7,-473.56"/>
</g>
<!-- Node15 -->
<g id="node15" class="node">
<title>Node15</title>
<g id="a_node15"><a xlink:title=" ">
<polygon fill="white" stroke="#bfbfbf" points="605.65,-112.5 605.65,-131.5 712.65,-131.5 712.65,-112.5 605.65,-112.5"/>
<text text-anchor="middle" x="659.15" y="-119.5" font-family="Helvetica,sans-Serif" font-size="10.00">AH/STL/type_traits</text>
</a>
</g>
</g>
<!-- Node6&#45;&gt;Node15 -->
<g id="edge41" class="edge">
<title>Node6&#45;&gt;Node15</title>
<path fill="none" stroke="midnightblue" d="M660.25,-504.45C618.86,-490.56 549.15,-458.89 549.15,-403 549.15,-403 549.15,-403 549.15,-233 549.15,-186.91 598.04,-153.39 630.63,-136.16"/>
<polygon fill="midnightblue" stroke="midnightblue" points="632.41,-139.18 639.74,-131.54 629.24,-132.94 632.41,-139.18"/>
</g>
<!-- Node21 -->
<g id="node21" class="node">
<title>Node21</title>
<g id="a_node21"><a xlink:title=" ">
<polygon fill="white" stroke="#bfbfbf" points="1316.15,-224.5 1316.15,-243.5 1372.15,-243.5 1372.15,-224.5 1316.15,-224.5"/>
<text text-anchor="middle" x="1344.15" y="-231.5" font-family="Helvetica,sans-Serif" font-size="10.00">stddef.h</text>
</a>
</g>
</g>
<!-- Node6&#45;&gt;Node21 -->
<g id="edge42" class="edge">
<title>Node6&#45;&gt;Node21</title>
<path fill="none" stroke="midnightblue" d="M757.8,-507.47C810.37,-501.67 884.47,-490.17 946.15,-468 1103.89,-411.29 1269.8,-291.52 1325.03,-249.74"/>
<polygon fill="midnightblue" stroke="midnightblue" points="1327.37,-252.36 1333.21,-243.52 1323.13,-246.79 1327.37,-252.36"/>
</g>
<!-- Node24 -->
<g id="node24" class="node">
<title>Node24</title>
<g id="a_node24"><a xlink:title=" ">
<polygon fill="white" stroke="#bfbfbf" points="1144.15,-392.5 1144.15,-411.5 1234.15,-411.5 1234.15,-392.5 1144.15,-392.5"/>
<text text-anchor="middle" x="1189.15" y="-399.5" font-family="Helvetica,sans-Serif" font-size="10.00">AH/STL/iterator</text>
</a>
</g>
</g>
<!-- Node6&#45;&gt;Node24 -->
<g id="edge40" class="edge">
<title>Node6&#45;&gt;Node24</title>
<path fill="none" stroke="midnightblue" d="M757.71,-509.1C826.84,-503.93 936.9,-492.44 1029.15,-468 1077.8,-455.12 1131.43,-431.19 1162.6,-416.23"/>
<polygon fill="midnightblue" stroke="midnightblue" points="1164.43,-419.24 1171.9,-411.72 1161.38,-412.94 1164.43,-419.24"/>
</g>
<!-- Node7&#45;&gt;Node2 -->
<g id="edge10" class="edge">
<title>Node7&#45;&gt;Node2</title>
<path fill="none" stroke="midnightblue" d="M833.15,-450.52C730.39,-434.51 511.15,-383 511.15,-235 511.15,-235 511.15,-235 511.15,-121 511.15,-56.26 709.69,-28.08 825.97,-17.12"/>
<polygon fill="midnightblue" stroke="midnightblue" points="826.62,-20.57 836.26,-16.17 825.98,-13.6 826.62,-20.57"/>
</g>
<!-- Node8 -->
<g id="node8" class="node">
<title>Node8</title>
<g id="a_node8"><a xlink:href="../../df/dee/Debug_8hpp.html" target="_top" xlink:title=" ">
<polygon fill="white" stroke="black" points="870.65,-392.5 870.65,-411.5 991.65,-411.5 991.65,-392.5 870.65,-392.5"/>
<text text-anchor="middle" x="931.15" y="-399.5" font-family="Helvetica,sans-Serif" font-size="10.00">AH/Debug/Debug.hpp</text>
</a>
</g>
</g>
<!-- Node7&#45;&gt;Node8 -->
<g id="edge11" class="edge">
<title>Node7&#45;&gt;Node8</title>
<path fill="none" stroke="midnightblue" d="M892.75,-448.08C899.38,-440.3 909.18,-428.8 917.21,-419.37"/>
<polygon fill="midnightblue" stroke="midnightblue" points="919.88,-421.63 923.7,-411.75 914.55,-417.09 919.88,-421.63"/>
</g>
<!-- Node8&#45;&gt;Node2 -->
<g id="edge12" class="edge">
<title>Node8&#45;&gt;Node2</title>
<path fill="none" stroke="midnightblue" d="M915.37,-392.47C902.95,-384.77 886.55,-372.18 879.15,-356 875.46,-347.92 877.84,-344.79 879.15,-336 889.94,-263.84 927.15,-251.97 927.15,-179 927.15,-179 927.15,-179 927.15,-121 927.15,-88.49 919,-51.35 913.37,-29.61"/>
<polygon fill="midnightblue" stroke="midnightblue" points="916.7,-28.5 910.72,-19.75 909.94,-30.32 916.7,-28.5"/>
</g>
<!-- Node9 -->
<g id="node9" class="node">
<title>Node9</title>
<g id="a_node9"><a xlink:href="../../dd/d80/PrintStream_8hpp.html" target="_top" xlink:title=" ">
<polygon fill="white" stroke="black" points="687.65,-224.5 687.65,-243.5 860.65,-243.5 860.65,-224.5 687.65,-224.5"/>
<text text-anchor="middle" x="774.15" y="-231.5" font-family="Helvetica,sans-Serif" font-size="10.00">AH/PrintStream/PrintStream.hpp</text>
</a>
</g>
</g>
<!-- Node8&#45;&gt;Node9 -->
<g id="edge13" class="edge">
<title>Node8&#45;&gt;Node9</title>
<path fill="none" stroke="midnightblue" d="M906.97,-392.37C888.64,-384.91 863.7,-372.69 846.15,-356 814.54,-325.93 792.01,-278.96 781.26,-253.29"/>
<polygon fill="midnightblue" stroke="midnightblue" points="784.38,-251.65 777.39,-243.69 777.89,-254.28 784.38,-251.65"/>
</g>
<!-- Node16 -->
<g id="node16" class="node">
<title>Node16</title>
<g id="a_node16"><a xlink:href="../../d2/dd5/SettingsWrapper_8hpp.html" target="_top" xlink:title=" ">
<polygon fill="white" stroke="black" points="888.15,-336.5 888.15,-355.5 1066.15,-355.5 1066.15,-336.5 888.15,-336.5"/>
<text text-anchor="middle" x="977.15" y="-343.5" font-family="Helvetica,sans-Serif" font-size="10.00">AH/Settings/SettingsWrapper.hpp</text>
</a>
</g>
</g>
<!-- Node8&#45;&gt;Node16 -->
<g id="edge25" class="edge">
<title>Node8&#45;&gt;Node16</title>
<path fill="none" stroke="midnightblue" d="M933.58,-392.08C938.62,-384.22 948.19,-372.57 957.22,-363.08"/>
<polygon fill="midnightblue" stroke="midnightblue" points="959.96,-365.29 964.57,-355.75 955.02,-360.34 959.96,-365.29"/>
</g>
<!-- Node9&#45;&gt;Node2 -->
<g id="edge15" class="edge">
<title>Node9&#45;&gt;Node2</title>
<path fill="none" stroke="midnightblue" d="M779.74,-224.22C794.78,-200.49 837.31,-133.04 871.15,-76 880.55,-60.16 890.9,-41.92 898.25,-28.8"/>
<polygon fill="midnightblue" stroke="midnightblue" points="901.41,-30.33 903.23,-19.89 895.29,-26.91 901.41,-30.33"/>
</g>
<!-- Node9&#45;&gt;Node10 -->
<g id="edge14" class="edge">
<title>Node9&#45;&gt;Node10</title>
<path fill="none" stroke="midnightblue" d="M773.62,-224.08C772.04,-197.95 767.42,-121.21 765.27,-85.58"/>
<polygon fill="midnightblue" stroke="midnightblue" points="768.77,-85.34 764.67,-75.57 761.78,-85.76 768.77,-85.34"/>
</g>
<!-- Node9&#45;&gt;Node11 -->
<g id="edge16" class="edge">
<title>Node9&#45;&gt;Node11</title>
<path fill="none" stroke="midnightblue" d="M841.18,-224.44C918.59,-214.56 1045.46,-198.37 1124.98,-188.21"/>
<polygon fill="midnightblue" stroke="midnightblue" points="1125.44,-191.68 1134.92,-186.94 1124.56,-184.74 1125.44,-191.68"/>
</g>
<!-- Node12 -->
<g id="node12" class="node">
<title>Node12</title>
<g id="a_node12"><a xlink:href="../../d7/d79/MinMaxFix_8hpp.html" target="_top" xlink:title=" ">
<polygon fill="white" stroke="black" points="1145.15,-112.5 1145.15,-131.5 1281.15,-131.5 1281.15,-112.5 1145.15,-112.5"/>
<text text-anchor="middle" x="1213.15" y="-119.5" font-family="Helvetica,sans-Serif" font-size="10.00">AH/Math/MinMaxFix.hpp</text>
</a>
</g>
</g>
<!-- Node11&#45;&gt;Node12 -->
<g id="edge17" class="edge">
<title>Node11&#45;&gt;Node12</title>
<path fill="none" stroke="midnightblue" d="M1199.8,-168.08C1201.94,-160.85 1205.03,-150.41 1207.7,-141.4"/>
<polygon fill="midnightblue" stroke="midnightblue" points="1211.08,-142.33 1210.56,-131.75 1204.37,-140.34 1211.08,-142.33"/>
</g>
<!-- Node14 -->
<g id="node14" class="node">
<title>Node14</title>
<g id="a_node14"><a xlink:title=" ">
<polygon fill="white" stroke="#bfbfbf" points="1350.65,-0.5 1350.65,-19.5 1413.65,-19.5 1413.65,-0.5 1350.65,-0.5"/>
<text text-anchor="middle" x="1382.15" y="-7.5" font-family="Helvetica,sans-Serif" font-size="10.00">Arduino.h</text>
</a>
</g>
</g>
<!-- Node11&#45;&gt;Node14 -->
<g id="edge24" class="edge">
<title>Node11&#45;&gt;Node14</title>
<path fill="none" stroke="midnightblue" d="M1222.68,-168.4C1242.49,-160.89 1269.89,-148.58 1290.15,-132 1326.94,-101.91 1357.5,-54.27 1372.39,-28.67"/>
<polygon fill="midnightblue" stroke="midnightblue" points="1375.57,-30.15 1377.47,-19.73 1369.48,-26.7 1375.57,-30.15"/>
</g>
<!-- Node11&#45;&gt;Node15 -->
<g id="edge23" class="edge">
<title>Node11&#45;&gt;Node15</title>
<path fill="none" stroke="midnightblue" d="M1134.91,-170.75C1031.86,-160.41 826.84,-139.83 722.84,-129.39"/>
<polygon fill="midnightblue" stroke="midnightblue" points="723.09,-125.9 712.79,-128.38 722.39,-132.87 723.09,-125.9"/>
</g>
<!-- Node12&#45;&gt;Node2 -->
<g id="edge18" class="edge">
<title>Node12&#45;&gt;Node2</title>
<path fill="none" stroke="midnightblue" d="M1189.48,-112.46C1135.65,-93.05 1003.96,-45.55 941.75,-23.12"/>
<polygon fill="midnightblue" stroke="midnightblue" points="942.62,-19.71 932.03,-19.61 940.25,-26.3 942.62,-19.71"/>
</g>
<!-- Node12&#45;&gt;Node10 -->
<g id="edge22" class="edge">
<title>Node12&#45;&gt;Node10</title>
<path fill="none" stroke="midnightblue" d="M1144.96,-112.8C1064.37,-103.11 930.44,-87 844.79,-76.7"/>
<polygon fill="midnightblue" stroke="midnightblue" points="845.19,-73.22 834.85,-75.5 844.36,-80.17 845.19,-73.22"/>
</g>
<!-- Node13 -->
<g id="node13" class="node">
<title>Node13</title>
<g id="a_node13"><a xlink:href="../../d6/d3b/FixArduinoMacros_8hpp.html" target="_top" xlink:title=" ">
<polygon fill="white" stroke="black" points="1128.15,-56.5 1128.15,-75.5 1298.15,-75.5 1298.15,-56.5 1128.15,-56.5"/>
<text text-anchor="middle" x="1213.15" y="-63.5" font-family="Helvetica,sans-Serif" font-size="10.00">AH/Math/FixArduinoMacros.hpp</text>
</a>
</g>
</g>
<!-- Node12&#45;&gt;Node13 -->
<g id="edge19" class="edge">
<title>Node12&#45;&gt;Node13</title>
<path fill="none" stroke="midnightblue" d="M1213.15,-112.08C1213.15,-105.01 1213.15,-94.86 1213.15,-85.99"/>
<polygon fill="midnightblue" stroke="midnightblue" points="1216.65,-85.75 1213.15,-75.75 1209.65,-85.75 1216.65,-85.75"/>
</g>
<!-- Node13&#45;&gt;Node2 -->
<g id="edge20" class="edge">
<title>Node13&#45;&gt;Node2</title>
<path fill="none" stroke="midnightblue" d="M1164.83,-56.44C1110.95,-46.9 1023.85,-31.48 966.29,-21.29"/>
<polygon fill="midnightblue" stroke="midnightblue" points="966.71,-17.81 956.26,-19.52 965.49,-24.71 966.71,-17.81"/>
</g>
<!-- Node13&#45;&gt;Node14 -->
<g id="edge21" class="edge">
<title>Node13&#45;&gt;Node14</title>
<path fill="none" stroke="midnightblue" d="M1239.93,-56.44C1268.49,-47.32 1313.89,-32.81 1345.69,-22.65"/>
<polygon fill="midnightblue" stroke="midnightblue" points="1347.04,-25.89 1355.5,-19.52 1344.91,-19.23 1347.04,-25.89"/>
</g>
<!-- Node16&#45;&gt;Node2 -->
<g id="edge26" class="edge">
<title>Node16&#45;&gt;Node2</title>
<path fill="none" stroke="midnightblue" d="M971.77,-336.44C966.6,-327.68 959.14,-313.47 956.15,-300 954.23,-291.32 955.76,-288.88 956.15,-280 958.16,-234.98 965.15,-224.07 965.15,-179 965.15,-179 965.15,-179 965.15,-121 965.15,-84.3 939.83,-47.66 922.94,-27.3"/>
<polygon fill="midnightblue" stroke="midnightblue" points="925.5,-24.9 916.32,-19.62 920.2,-29.48 925.5,-24.9"/>
</g>
<!-- Node16&#45;&gt;Node8 -->
<g id="edge39" class="edge">
<title>Node16&#45;&gt;Node8</title>
<path fill="none" stroke="midnightblue" d="M974.78,-355.83C969.69,-363.79 959.92,-375.67 950.77,-385.25"/>
<polygon fill="midnightblue" stroke="midnightblue" points="948.28,-382.79 943.66,-392.32 953.22,-387.75 948.28,-382.79"/>
</g>
<!-- Node16&#45;&gt;Node10 -->
<g id="edge27" class="edge">
<title>Node16&#45;&gt;Node10</title>
<path fill="none" stroke="midnightblue" d="M964.48,-336.27C952.72,-327.81 935.14,-314.21 922.15,-300 919.96,-297.6 811.84,-137.59 775.74,-84.16"/>
<polygon fill="midnightblue" stroke="midnightblue" points="778.56,-82.07 770.06,-75.74 772.76,-85.99 778.56,-82.07"/>
</g>
<!-- Node17 -->
<g id="node17" class="node">
<title>Node17</title>
<g id="a_node17"><a xlink:href="../../db/d02/Settings_8hpp.html" target="_top" xlink:title="All user settings and debugging options can be changed here.">
<polygon fill="white" stroke="black" points="964.65,-280.5 964.65,-299.5 1041.65,-299.5 1041.65,-280.5 964.65,-280.5"/>
<text text-anchor="middle" x="1003.15" y="-287.5" font-family="Helvetica,sans-Serif" font-size="10.00">Settings.hpp</text>
</a>
</g>
</g>
<!-- Node16&#45;&gt;Node17 -->
<g id="edge28" class="edge">
<title>Node16&#45;&gt;Node17</title>
<path fill="none" stroke="midnightblue" d="M981.45,-336.08C985.01,-328.69 990.18,-317.95 994.58,-308.81"/>
<polygon fill="midnightblue" stroke="midnightblue" points="997.76,-310.28 998.94,-299.75 991.45,-307.24 997.76,-310.28"/>
</g>
<!-- Node23 -->
<g id="node23" class="node">
<title>Node23</title>
<g id="a_node23"><a xlink:href="../../d9/d98/TeensyUSBTypes_8hpp.html" target="_top" xlink:title=" ">
<polygon fill="white" stroke="black" points="1059.65,-280.5 1059.65,-299.5 1232.65,-299.5 1232.65,-280.5 1059.65,-280.5"/>
<text text-anchor="middle" x="1146.15" y="-287.5" font-family="Helvetica,sans-Serif" font-size="10.00">AH/Teensy/TeensyUSBTypes.hpp</text>
</a>
</g>
</g>
<!-- Node16&#45;&gt;Node23 -->
<g id="edge38" class="edge">
<title>Node16&#45;&gt;Node23</title>
<path fill="none" stroke="midnightblue" d="M1003.93,-336.44C1032.49,-327.32 1077.89,-312.81 1109.69,-302.65"/>
<polygon fill="midnightblue" stroke="midnightblue" points="1111.04,-305.89 1119.5,-299.52 1108.91,-299.23 1111.04,-305.89"/>
</g>
<!-- Node18 -->
<g id="node18" class="node">
<title>Node18</title>
<g id="a_node18"><a xlink:href="../../dc/d50/Frequency_8hpp.html" target="_top" xlink:title=" ">
<polygon fill="white" stroke="black" points="993.15,-112.5 993.15,-131.5 1127.15,-131.5 1127.15,-112.5 993.15,-112.5"/>
<text text-anchor="middle" x="1060.15" y="-119.5" font-family="Helvetica,sans-Serif" font-size="10.00">AH/Types/Frequency.hpp</text>
</a>
</g>
</g>
<!-- Node17&#45;&gt;Node18 -->
<g id="edge29" class="edge">
<title>Node17&#45;&gt;Node18</title>
<path fill="none" stroke="midnightblue" d="M1005.73,-280.12C1009.4,-267.56 1016.45,-243.92 1023.15,-224 1033.01,-194.75 1045.56,-161.16 1053.22,-141.04"/>
<polygon fill="midnightblue" stroke="midnightblue" points="1056.53,-142.18 1056.83,-131.59 1049.99,-139.68 1056.53,-142.18"/>
</g>
<!-- Node19 -->
<g id="node19" class="node">
<title>Node19</title>
<g id="a_node19"><a xlink:href="../../d7/d7c/ADCConfig_8hpp.html" target="_top" xlink:title="This file contains the platform&#45;specific ADC resolutions.">
<polygon fill="white" stroke="black" points="1102.65,-224.5 1102.65,-243.5 1259.65,-243.5 1259.65,-224.5 1102.65,-224.5"/>
<text text-anchor="middle" x="1181.15" y="-231.5" font-family="Helvetica,sans-Serif" font-size="10.00">AH/Hardware/ADCConfig.hpp</text>
</a>
</g>
</g>
<!-- Node17&#45;&gt;Node19 -->
<g id="edge32" class="edge">
<title>Node17&#45;&gt;Node19</title>
<path fill="none" stroke="midnightblue" d="M1031.36,-280.44C1061.56,-271.28 1109.67,-256.69 1143.18,-246.52"/>
<polygon fill="midnightblue" stroke="midnightblue" points="1144.53,-249.77 1153.08,-243.52 1142.5,-243.07 1144.53,-249.77"/>
</g>
<!-- Node20 -->
<g id="node20" class="node">
<title>Node20</title>
<g id="a_node20"><a xlink:title=" ">
<polygon fill="white" stroke="#bfbfbf" points="1031.65,-224.5 1031.65,-243.5 1084.65,-243.5 1084.65,-224.5 1031.65,-224.5"/>
<text text-anchor="middle" x="1058.15" y="-231.5" font-family="Helvetica,sans-Serif" font-size="10.00">limits.h</text>
</a>
</g>
</g>
<!-- Node17&#45;&gt;Node20 -->
<g id="edge35" class="edge">
<title>Node17&#45;&gt;Node20</title>
<path fill="none" stroke="midnightblue" d="M1012.24,-280.08C1020.33,-272.14 1032.35,-260.34 1042.06,-250.8"/>
<polygon fill="midnightblue" stroke="midnightblue" points="1044.56,-253.25 1049.24,-243.75 1039.65,-248.26 1044.56,-253.25"/>
</g>
<!-- Node17&#45;&gt;Node21 -->
<g id="edge36" class="edge">
<title>Node17&#45;&gt;Node21</title>
<path fill="none" stroke="midnightblue" d="M1041.91,-281.62C1045.03,-281.06 1048.15,-280.51 1051.15,-280 1142.19,-264.48 1249.55,-248.61 1305.63,-240.5"/>
<polygon fill="midnightblue" stroke="midnightblue" points="1306.42,-243.93 1315.82,-239.03 1305.42,-237 1306.42,-243.93"/>
</g>
<!-- Node17&#45;&gt;Node22 -->
<g id="edge37" class="edge">
<title>Node17&#45;&gt;Node22</title>
<path fill="none" stroke="midnightblue" d="M964.53,-283.77C887.58,-273.36 716.05,-250.14 640.77,-239.96"/>
<polygon fill="midnightblue" stroke="midnightblue" points="641.18,-236.48 630.81,-238.61 640.25,-243.42 641.18,-236.48"/>
</g>
<!-- Node18&#45;&gt;Node2 -->
<g id="edge30" class="edge">
<title>Node18&#45;&gt;Node2</title>
<path fill="none" stroke="midnightblue" d="M1049.96,-112.21C1034.88,-99.34 1005.56,-74.87 979.15,-56 963.57,-44.86 945.3,-33.32 931.2,-24.71"/>
<polygon fill="midnightblue" stroke="midnightblue" points="932.97,-21.69 922.61,-19.51 929.35,-27.68 932.97,-21.69"/>
</g>
<!-- Node18&#45;&gt;Node10 -->
<g id="edge31" class="edge">
<title>Node18&#45;&gt;Node10</title>
<path fill="none" stroke="midnightblue" d="M1013.25,-112.44C961.07,-102.92 876.78,-87.55 820.92,-77.36"/>
<polygon fill="midnightblue" stroke="midnightblue" points="821.3,-73.87 810.84,-75.52 820.05,-80.75 821.3,-73.87"/>
</g>
<!-- Node19&#45;&gt;Node2 -->
<g id="edge33" class="edge">
<title>Node19&#45;&gt;Node2</title>
<path fill="none" stroke="midnightblue" d="M1209.14,-224.39C1228.04,-217.31 1252.32,-205.55 1268.15,-188 1309.13,-142.57 1347.92,-101.62 1307.15,-56 1286.44,-32.81 1100.77,-20.09 990.15,-14.5"/>
<polygon fill="midnightblue" stroke="midnightblue" points="990.18,-11 980.02,-14 989.83,-17.99 990.18,-11"/>
</g>
<!-- Node19&#45;&gt;Node11 -->
<g id="edge34" class="edge">
<title>Node19&#45;&gt;Node11</title>
<path fill="none" stroke="midnightblue" d="M1183.8,-224.08C1185.94,-216.85 1189.03,-206.41 1191.7,-197.4"/>
<polygon fill="midnightblue" stroke="midnightblue" points="1195.08,-198.33 1194.56,-187.75 1188.37,-196.34 1195.08,-198.33"/>
</g>
<!-- Node25&#45;&gt;Node2 -->
<g id="edge48" class="edge">
<title>Node25&#45;&gt;Node2</title>
<path fill="none" stroke="midnightblue" d="M186.74,-112.29C201.83,-97.62 234.81,-68.35 269.15,-56 369.37,-19.95 677.31,-12.66 826.05,-11.27"/>
<polygon fill="midnightblue" stroke="midnightblue" points="826.51,-14.76 836.48,-11.18 826.45,-7.76 826.51,-14.76"/>
</g>
<!-- Node25&#45;&gt;Node10 -->
<g id="edge49" class="edge">
<title>Node25&#45;&gt;Node10</title>
<path fill="none" stroke="midnightblue" d="M254.76,-113.94C358.99,-104.34 545.76,-87.13 661.87,-76.43"/>
<polygon fill="midnightblue" stroke="midnightblue" points="662.2,-79.91 671.84,-75.51 661.56,-72.94 662.2,-79.91"/>
</g>
<!-- Node26 -->
<g id="node26" class="node">
<title>Node26</title>
<g id="a_node26"><a xlink:title=" ">
<polygon fill="white" stroke="#bfbfbf" points="29.15,-56.5 29.15,-75.5 119.15,-75.5 119.15,-56.5 29.15,-56.5"/>
<text text-anchor="middle" x="74.15" y="-63.5" font-family="Helvetica,sans-Serif" font-size="10.00">AH/STL/cstddef</text>
</a>
</g>
</g>
<!-- Node25&#45;&gt;Node26 -->
<g id="edge46" class="edge">
<title>Node25&#45;&gt;Node26</title>
<path fill="none" stroke="midnightblue" d="M161.45,-112.32C144.84,-103.7 119.15,-90.36 99.93,-80.39"/>
<polygon fill="midnightblue" stroke="midnightblue" points="101.31,-77.16 90.82,-75.65 98.08,-83.37 101.31,-77.16"/>
</g>
<!-- Node27 -->
<g id="node27" class="node">
<title>Node27</title>
<g id="a_node27"><a xlink:title=" ">
<polygon fill="white" stroke="#bfbfbf" points="137.65,-56.5 137.65,-75.5 216.65,-75.5 216.65,-56.5 137.65,-56.5"/>
<text text-anchor="middle" x="177.15" y="-63.5" font-family="Helvetica,sans-Serif" font-size="10.00">AH/STL/tuple</text>
</a>
</g>
</g>
<!-- Node25&#45;&gt;Node27 -->
<g id="edge47" class="edge">
<title>Node25&#45;&gt;Node27</title>
<path fill="none" stroke="midnightblue" d="M177.99,-112.08C177.86,-105.01 177.67,-94.86 177.51,-85.99"/>
<polygon fill="midnightblue" stroke="midnightblue" points="181,-85.68 177.32,-75.75 174,-85.81 181,-85.68"/>
</g>
<!-- Node29&#45;&gt;Node2 -->
<g id="edge55" class="edge">
<title>Node29&#45;&gt;Node2</title>
<path fill="none" stroke="midnightblue" d="M1370.72,-504.48C1419.28,-497.23 1478.15,-485.22 1496.15,-468 1517.82,-447.28 1514.15,-432.98 1514.15,-403 1514.15,-403 1514.15,-403 1514.15,-121 1514.15,-78.87 1483.63,-73.16 1445.15,-56 1366.02,-20.7 1120.26,-12.92 990.43,-11.32"/>
<polygon fill="midnightblue" stroke="midnightblue" points="990.18,-7.82 980.14,-11.21 990.1,-14.82 990.18,-7.82"/>
</g>
<!-- Node29&#45;&gt;Node7 -->
<g id="edge63" class="edge">
<title>Node29&#45;&gt;Node7</title>
<path fill="none" stroke="midnightblue" d="M1234.4,-504.44C1155.65,-494.2 1024.74,-477.16 947.53,-467.12"/>
<polygon fill="midnightblue" stroke="midnightblue" points="947.83,-463.63 937.47,-465.81 946.93,-470.57 947.83,-463.63"/>
</g>
<!-- Node29&#45;&gt;Node15 -->
<g id="edge64" class="edge">
<title>Node29&#45;&gt;Node15</title>
<path fill="none" stroke="midnightblue" d="M1248.09,-504.44C1147.25,-487.29 929.31,-447.36 862.15,-412 764.46,-360.56 731.7,-341.11 679.15,-244 661.4,-211.18 658.58,-166.59 658.57,-141.73"/>
<polygon fill="midnightblue" stroke="midnightblue" points="662.07,-141.58 658.73,-131.52 655.07,-141.47 662.07,-141.58"/>
</g>
<!-- Node29&#45;&gt;Node16 -->
<g id="edge66" class="edge">
<title>Node29&#45;&gt;Node16</title>
<path fill="none" stroke="midnightblue" d="M1297.3,-504.47C1288.74,-479.41 1262.67,-406.81 1243.15,-392 1217.17,-372.28 1140.7,-360.7 1076.39,-354.24"/>
<polygon fill="midnightblue" stroke="midnightblue" points="1076.47,-350.73 1066.18,-353.24 1075.8,-357.69 1076.47,-350.73"/>
</g>
<!-- Node29&#45;&gt;Node21 -->
<g id="edge67" class="edge">
<title>Node29&#45;&gt;Node21</title>
<path fill="none" stroke="midnightblue" d="M1301.52,-504.38C1307.64,-465.7 1332.63,-307.79 1341.23,-253.47"/>
<polygon fill="midnightblue" stroke="midnightblue" points="1344.7,-253.95 1342.81,-243.52 1337.79,-252.85 1344.7,-253.95"/>
</g>
<!-- Node30 -->
<g id="node30" class="node">
<title>Node30</title>
<g id="a_node30"><a xlink:href="../../d4/dba/CRTP_8hpp.html" target="_top" xlink:title=" ">
<polygon fill="white" stroke="black" points="1542.15,-448.5 1542.15,-467.5 1676.15,-467.5 1676.15,-448.5 1542.15,-448.5"/>
<text text-anchor="middle" x="1609.15" y="-455.5" font-family="Helvetica,sans-Serif" font-size="10.00">AH/Containers/CRTP.hpp</text>
</a>
</g>
</g>
<!-- Node29&#45;&gt;Node30 -->
<g id="edge56" class="edge">
<title>Node29&#45;&gt;Node30</title>
<path fill="none" stroke="midnightblue" d="M1349.12,-504.44C1403.7,-494.9 1491.94,-479.48 1550.26,-469.29"/>
<polygon fill="midnightblue" stroke="midnightblue" points="1551.17,-472.69 1560.42,-467.52 1549.97,-465.79 1551.17,-472.69"/>
</g>
<!-- Node31 -->
<g id="node31" class="node">
<title>Node31</title>
<g id="a_node31"><a xlink:href="../../de/dd1/LinkedList_8hpp.html" target="_top" xlink:title=" ">
<polygon fill="white" stroke="black" points="1327.65,-448.5 1327.65,-467.5 1486.65,-467.5 1486.65,-448.5 1327.65,-448.5"/>
<text text-anchor="middle" x="1407.15" y="-455.5" font-family="Helvetica,sans-Serif" font-size="10.00">AH/Containers/LinkedList.hpp</text>
</a>
</g>
</g>
<!-- Node29&#45;&gt;Node31 -->
<g id="edge57" class="edge">
<title>Node29&#45;&gt;Node31</title>
<path fill="none" stroke="midnightblue" d="M1317.35,-504.32C1334.51,-495.66 1361.1,-482.24 1380.9,-472.25"/>
<polygon fill="midnightblue" stroke="midnightblue" points="1382.66,-475.28 1390.01,-467.65 1379.5,-469.04 1382.66,-475.28"/>
</g>
<!-- Node33 -->
<g id="node33" class="node">
<title>Node33</title>
<g id="a_node33"><a xlink:title=" ">
<polygon fill="white" stroke="#bfbfbf" points="1694.65,-448.5 1694.65,-467.5 1777.65,-467.5 1777.65,-448.5 1694.65,-448.5"/>
<text text-anchor="middle" x="1736.15" y="-455.5" font-family="Helvetica,sans-Serif" font-size="10.00">AH/STL/utility</text>
</a>
</g>
</g>
<!-- Node29&#45;&gt;Node33 -->
<g id="edge65" class="edge">
<title>Node29&#45;&gt;Node33</title>
<path fill="none" stroke="midnightblue" d="M1380.71,-504.97C1456.44,-497.1 1573.2,-484.15 1684.39,-468.03"/>
<polygon fill="midnightblue" stroke="midnightblue" points="1685.05,-471.47 1694.44,-466.57 1684.04,-464.55 1685.05,-471.47"/>
</g>
<!-- Node31&#45;&gt;Node2 -->
<g id="edge58" class="edge">
<title>Node31&#45;&gt;Node2</title>
<path fill="none" stroke="midnightblue" d="M1420.53,-448.19C1431.85,-440.08 1447.71,-427.03 1457.15,-412 1473.17,-386.52 1476.15,-377.1 1476.15,-347 1476.15,-347 1476.15,-347 1476.15,-121 1476.15,-23.14 1147.11,-10.53 989.91,-10.08"/>
<polygon fill="midnightblue" stroke="midnightblue" points="989.81,-6.58 979.8,-10.07 989.8,-13.58 989.81,-6.58"/>
</g>
<!-- Node31&#45;&gt;Node8 -->
<g id="edge59" class="edge">
<title>Node31&#45;&gt;Node8</title>
<path fill="none" stroke="midnightblue" d="M1331.99,-448.47C1241.43,-438.2 1090.44,-421.07 1001.9,-411.03"/>
<polygon fill="midnightblue" stroke="midnightblue" points="1002.28,-407.55 991.95,-409.9 1001.49,-414.5 1002.28,-407.55"/>
</g>
<!-- Node31&#45;&gt;Node12 -->
<g id="edge60" class="edge">
<title>Node31&#45;&gt;Node12</title>
<path fill="none" stroke="midnightblue" d="M1401.85,-448.43C1396.73,-439.65 1389.32,-425.43 1386.15,-412 1366.97,-330.65 1423.27,-296.2 1381.15,-224 1353.51,-176.61 1294.06,-148.85 1253.83,-134.8"/>
<polygon fill="midnightblue" stroke="midnightblue" points="1254.89,-131.46 1244.3,-131.59 1252.66,-138.1 1254.89,-131.46"/>
</g>
<!-- Node31&#45;&gt;Node24 -->
<g id="edge62" class="edge">
<title>Node31&#45;&gt;Node24</title>
<path fill="none" stroke="midnightblue" d="M1372.61,-448.44C1334.9,-439.1 1274.41,-424.12 1233.29,-413.93"/>
<polygon fill="midnightblue" stroke="midnightblue" points="1234.08,-410.52 1223.54,-411.52 1232.4,-417.32 1234.08,-410.52"/>
</g>
<!-- Node32 -->
<g id="node32" class="node">
<title>Node32</title>
<g id="a_node32"><a xlink:title=" ">
<polygon fill="white" stroke="#bfbfbf" points="1394.65,-392.5 1394.65,-411.5 1447.65,-411.5 1447.65,-392.5 1394.65,-392.5"/>
<text text-anchor="middle" x="1421.15" y="-399.5" font-family="Helvetica,sans-Serif" font-size="10.00">stdlib.h</text>
</a>
</g>
</g>
<!-- Node31&#45;&gt;Node32 -->
<g id="edge61" class="edge">
<title>Node31&#45;&gt;Node32</title>
<path fill="none" stroke="midnightblue" d="M1409.47,-448.08C1411.32,-440.93 1413.99,-430.64 1416.31,-421.69"/>
<polygon fill="midnightblue" stroke="midnightblue" points="1419.76,-422.31 1418.89,-411.75 1412.99,-420.55 1419.76,-422.31"/>
</g>
</g>
</svg>
