<?xml version="1.0" encoding="UTF-8" standalone="no"?>
<!DOCTYPE svg PUBLIC "-//W3C//DTD SVG 1.1//EN"
 "http://www.w3.org/Graphics/SVG/1.1/DTD/svg11.dtd">
<!-- Generated by graphviz version 2.38.0 (20140413.2041)
 -->
<!-- Title: BiQuadFilterDF2&lt; T &gt; Pages: 1 -->
<svg width="166pt" height="215pt"
 viewBox="0.00 0.00 166.00 215.00" xmlns="http://www.w3.org/2000/svg" xmlns:xlink="http://www.w3.org/1999/xlink">
<g id="graph0" class="graph" transform="scale(1 1) rotate(0) translate(4 211)">
<title>BiQuadFilterDF2&lt; T &gt;</title>
<polygon fill="white" stroke="none" points="-4,4 -4,-211 162,-211 162,4 -4,4"/>
<!-- Node1 -->
<g id="node1" class="node"><title>Node1</title>
<g id="a_node1"><a xlink:title="Generic BiQuad (Bi&#45;Quadratic) filter class, Direct Form 2 implementation.">
<polygon fill="#bfbfbf" stroke="black" points="22.5,-0.5 22.5,-112.5 135.5,-112.5 135.5,-0.5 22.5,-0.5"/>
<text text-anchor="middle" x="79" y="-100.5" font-family="Helvetica,sans-Serif" font-size="10.00">BiQuadFilterDF2&lt; T &gt;</text>
<polyline fill="none" stroke="black" points="22.5,-93.5 135.5,-93.5 "/>
<text text-anchor="middle" x="79" y="-81.5" font-family="Helvetica,sans-Serif" font-size="10.00"> </text>
<polyline fill="none" stroke="black" points="22.5,-74.5 135.5,-74.5 "/>
<text text-anchor="start" x="30.5" y="-62.5" font-family="Helvetica,sans-Serif" font-size="10.00">+ BiQuadFilterDF2()</text>
<text text-anchor="start" x="30.5" y="-51.5" font-family="Helvetica,sans-Serif" font-size="10.00">+ BiQuadFilterDF2()</text>
<text text-anchor="start" x="30.5" y="-40.5" font-family="Helvetica,sans-Serif" font-size="10.00">+ BiQuadFilterDF2()</text>
<text text-anchor="start" x="30.5" y="-29.5" font-family="Helvetica,sans-Serif" font-size="10.00">+ BiQuadFilterDF2()</text>
<text text-anchor="start" x="30.5" y="-18.5" font-family="Helvetica,sans-Serif" font-size="10.00">+ BiQuadFilterDF2()</text>
<text text-anchor="start" x="30.5" y="-7.5" font-family="Helvetica,sans-Serif" font-size="10.00">+ operator()()</text>
</a>
</g>
</g>
<!-- Node2 -->
<g id="node2" class="node"><title>Node2</title>
<g id="a_node2"><a xlink:title=" ">
<polygon fill="white" stroke="#bfbfbf" points="-1.42109e-14,-149.5 -1.42109e-14,-206.5 158,-206.5 158,-149.5 -1.42109e-14,-149.5"/>
<text text-anchor="middle" x="79" y="-194.5" font-family="Helvetica,sans-Serif" font-size="10.00">BiQuadDF2Implementation&lt; T &gt;</text>
<polyline fill="none" stroke="#bfbfbf" points="-1.42109e-14,-187.5 158,-187.5 "/>
<text text-anchor="middle" x="79" y="-175.5" font-family="Helvetica,sans-Serif" font-size="10.00"> </text>
<polyline fill="none" stroke="#bfbfbf" points="-1.42109e-14,-168.5 158,-168.5 "/>
<text text-anchor="middle" x="79" y="-156.5" font-family="Helvetica,sans-Serif" font-size="10.00"> </text>
</a>
</g>
</g>
<!-- Node2&#45;&gt;Node1 -->
<g id="edge1" class="edge"><title>Node2&#45;&gt;Node1</title>
<path fill="none" stroke="midnightblue" d="M79,-139.108C79,-130.748 79,-121.725 79,-112.834"/>
<polygon fill="none" stroke="midnightblue" points="75.5001,-139.284 79,-149.284 82.5001,-139.284 75.5001,-139.284"/>
</g>
</g>
</svg>
