<?xml version="1.0" encoding="UTF-8" standalone="no"?>
<!DOCTYPE svg PUBLIC "-//W3C//DTD SVG 1.1//EN"
 "http://www.w3.org/Graphics/SVG/1.1/DTD/svg11.dtd">
<!-- Generated by graphviz version 2.43.0 (0)
 -->
<!-- Title: RegisterEncoders.hpp Pages: 1 -->
<svg width="1186pt" height="588pt"
 viewBox="0.00 0.00 1185.50 588.00" xmlns="http://www.w3.org/2000/svg" xmlns:xlink="http://www.w3.org/1999/xlink">
<g id="graph0" class="graph" transform="scale(1 1) rotate(0) translate(4 584)">
<title>RegisterEncoders.hpp</title>
<polygon fill="white" stroke="transparent" points="-4,4 -4,-584 1181.5,-584 1181.5,4 -4,4"/>
<!-- Node1 -->
<g id="node1" class="node">
<title>Node1</title>
<g id="a_node1"><a xlink:title=" ">
<polygon fill="#bfbfbf" stroke="black" points="215.5,-560.5 215.5,-579.5 337.5,-579.5 337.5,-560.5 215.5,-560.5"/>
<text text-anchor="middle" x="276.5" y="-567.5" font-family="Helvetica,sans-Serif" font-size="10.00">RegisterEncoders.hpp</text>
</a>
</g>
</g>
<!-- Node2 -->
<g id="node2" class="node">
<title>Node2</title>
<g id="a_node2"><a xlink:href="../../dc/dc7/NamespaceSettings_8hpp.html" target="_top" xlink:title=" ">
<polygon fill="white" stroke="black" points="377,-56.5 377,-75.5 572,-75.5 572,-56.5 377,-56.5"/>
<text text-anchor="middle" x="474.5" y="-63.5" font-family="Helvetica,sans-Serif" font-size="10.00">AH/Settings/NamespaceSettings.hpp</text>
</a>
</g>
</g>
<!-- Node1&#45;&gt;Node2 -->
<g id="edge1" class="edge">
<title>Node1&#45;&gt;Node2</title>
<path fill="none" stroke="midnightblue" d="M268.05,-560.44C251.73,-542.96 217.5,-501.26 217.5,-459 217.5,-459 217.5,-459 217.5,-289 217.5,-258.77 217.55,-246.71 237.5,-224 262.97,-195.01 283.42,-207.86 316.5,-188 331.1,-179.24 416.87,-112.25 455.57,-81.88"/>
<polygon fill="midnightblue" stroke="midnightblue" points="457.79,-84.59 463.49,-75.66 453.47,-79.08 457.79,-84.59"/>
</g>
<!-- Node3 -->
<g id="node3" class="node">
<title>Node3</title>
<g id="a_node3"><a xlink:href="../../d1/d65/Warnings_8hpp.html" target="_top" xlink:title=" ">
<polygon fill="white" stroke="black" points="810,-0.5 810,-19.5 953,-19.5 953,-0.5 810,-0.5"/>
<text text-anchor="middle" x="881.5" y="-7.5" font-family="Helvetica,sans-Serif" font-size="10.00">AH/Settings/Warnings.hpp</text>
</a>
</g>
</g>
<!-- Node1&#45;&gt;Node3 -->
<g id="edge2" class="edge">
<title>Node1&#45;&gt;Node3</title>
<path fill="none" stroke="midnightblue" d="M337.58,-566.92C523.12,-559.79 1067.5,-532.61 1067.5,-459 1067.5,-459 1067.5,-459 1067.5,-121 1067.5,-62.99 999.64,-34.93 945.9,-21.8"/>
<polygon fill="midnightblue" stroke="midnightblue" points="946.58,-18.36 936.05,-19.52 945,-25.18 946.58,-18.36"/>
</g>
<!-- Node4 -->
<g id="node4" class="node">
<title>Node4</title>
<g id="a_node4"><a xlink:href="../../d6/ddf/Arduino-Wrapper_8h.html" target="_top" xlink:title=" ">
<polygon fill="white" stroke="black" points="183.5,-168.5 183.5,-187.5 307.5,-187.5 307.5,-168.5 183.5,-168.5"/>
<text text-anchor="middle" x="245.5" y="-175.5" font-family="Helvetica,sans-Serif" font-size="10.00">AH/Arduino&#45;Wrapper.h</text>
</a>
</g>
</g>
<!-- Node1&#45;&gt;Node4 -->
<g id="edge3" class="edge">
<title>Node1&#45;&gt;Node4</title>
<path fill="none" stroke="midnightblue" d="M248.85,-560.42C209.36,-546.23 141.5,-513.87 141.5,-459 141.5,-459 141.5,-459 141.5,-289 141.5,-244.22 187.56,-210.32 218.38,-192.66"/>
<polygon fill="midnightblue" stroke="midnightblue" points="220.31,-195.59 227.38,-187.7 216.94,-189.46 220.31,-195.59"/>
</g>
<!-- Node8 -->
<g id="node8" class="node">
<title>Node8</title>
<g id="a_node8"><a xlink:title=" ">
<polygon fill="white" stroke="#bfbfbf" points="0,-112.5 0,-131.5 107,-131.5 107,-112.5 0,-112.5"/>
<text text-anchor="middle" x="53.5" y="-119.5" font-family="Helvetica,sans-Serif" font-size="10.00">AH/STL/type_traits</text>
</a>
</g>
</g>
<!-- Node1&#45;&gt;Node8 -->
<g id="edge41" class="edge">
<title>Node1&#45;&gt;Node8</title>
<path fill="none" stroke="midnightblue" d="M215.34,-560.54C158.15,-548.78 81.5,-521.38 81.5,-459 81.5,-459 81.5,-459 81.5,-233 81.5,-199.79 69.37,-162.63 61.07,-141.12"/>
<polygon fill="midnightblue" stroke="midnightblue" points="64.25,-139.63 57.28,-131.65 57.75,-142.23 64.25,-139.63"/>
</g>
<!-- Node9 -->
<g id="node9" class="node">
<title>Node9</title>
<g id="a_node9"><a xlink:href="../../de/d76/Array_8hpp.html" target="_top" xlink:title=" ">
<polygon fill="white" stroke="black" points="305,-504.5 305,-523.5 440,-523.5 440,-504.5 305,-504.5"/>
<text text-anchor="middle" x="372.5" y="-511.5" font-family="Helvetica,sans-Serif" font-size="10.00">AH/Containers/Array.hpp</text>
</a>
</g>
</g>
<!-- Node1&#45;&gt;Node9 -->
<g id="edge12" class="edge">
<title>Node1&#45;&gt;Node9</title>
<path fill="none" stroke="midnightblue" d="M291.92,-560.32C307.04,-551.82 330.32,-538.73 347.97,-528.8"/>
<polygon fill="midnightblue" stroke="midnightblue" points="350.11,-531.61 357.11,-523.65 346.68,-525.51 350.11,-531.61"/>
</g>
<!-- Node22 -->
<g id="node22" class="node">
<title>Node22</title>
<g id="a_node22"><a xlink:title=" ">
<polygon fill="white" stroke="#bfbfbf" points="1095.5,-504.5 1095.5,-523.5 1177.5,-523.5 1177.5,-504.5 1095.5,-504.5"/>
<text text-anchor="middle" x="1136.5" y="-511.5" font-family="Helvetica,sans-Serif" font-size="10.00">AH/STL/limits</text>
</a>
</g>
</g>
<!-- Node1&#45;&gt;Node22 -->
<g id="edge40" class="edge">
<title>Node1&#45;&gt;Node22</title>
<path fill="none" stroke="midnightblue" d="M337.53,-567.8C472.18,-564.68 804.78,-554.29 1081.5,-524 1082.77,-523.86 1084.06,-523.71 1085.36,-523.56"/>
<polygon fill="midnightblue" stroke="midnightblue" points="1085.97,-527 1095.42,-522.21 1085.04,-520.07 1085.97,-527"/>
</g>
<!-- Node5 -->
<g id="node5" class="node">
<title>Node5</title>
<g id="a_node5"><a xlink:href="../../d7/d79/MinMaxFix_8hpp.html" target="_top" xlink:title=" ">
<polygon fill="white" stroke="black" points="171.5,-112.5 171.5,-131.5 307.5,-131.5 307.5,-112.5 171.5,-112.5"/>
<text text-anchor="middle" x="239.5" y="-119.5" font-family="Helvetica,sans-Serif" font-size="10.00">AH/Math/MinMaxFix.hpp</text>
</a>
</g>
</g>
<!-- Node4&#45;&gt;Node5 -->
<g id="edge4" class="edge">
<title>Node4&#45;&gt;Node5</title>
<path fill="none" stroke="midnightblue" d="M244.51,-168.08C243.71,-160.93 242.57,-150.64 241.58,-141.69"/>
<polygon fill="midnightblue" stroke="midnightblue" points="245.06,-141.3 240.47,-131.75 238.1,-142.08 245.06,-141.3"/>
</g>
<!-- Node7 -->
<g id="node7" class="node">
<title>Node7</title>
<g id="a_node7"><a xlink:title=" ">
<polygon fill="white" stroke="#bfbfbf" points="149,-0.5 149,-19.5 212,-19.5 212,-0.5 149,-0.5"/>
<text text-anchor="middle" x="180.5" y="-7.5" font-family="Helvetica,sans-Serif" font-size="10.00">Arduino.h</text>
</a>
</g>
</g>
<!-- Node4&#45;&gt;Node7 -->
<g id="edge11" class="edge">
<title>Node4&#45;&gt;Node7</title>
<path fill="none" stroke="midnightblue" d="M219.02,-168.39C200.86,-161.25 177.43,-149.43 162.5,-132 139.77,-105.48 130.5,-88.8 142.5,-56 146.56,-44.91 154.69,-34.67 162.39,-26.76"/>
<polygon fill="midnightblue" stroke="midnightblue" points="164.97,-29.14 169.79,-19.7 160.14,-24.07 164.97,-29.14"/>
</g>
<!-- Node4&#45;&gt;Node8 -->
<g id="edge10" class="edge">
<title>Node4&#45;&gt;Node8</title>
<path fill="none" stroke="midnightblue" d="M215.08,-168.44C182.22,-159.2 129.72,-144.44 93.53,-134.26"/>
<polygon fill="midnightblue" stroke="midnightblue" points="94.35,-130.85 83.78,-131.52 92.46,-137.59 94.35,-130.85"/>
</g>
<!-- Node5&#45;&gt;Node2 -->
<g id="edge9" class="edge">
<title>Node5&#45;&gt;Node2</title>
<path fill="none" stroke="midnightblue" d="M276.74,-112.44C317.56,-103.06 383.14,-87.99 427.48,-77.8"/>
<polygon fill="midnightblue" stroke="midnightblue" points="428.48,-81.17 437.44,-75.52 426.91,-74.34 428.48,-81.17"/>
</g>
<!-- Node5&#45;&gt;Node3 -->
<g id="edge5" class="edge">
<title>Node5&#45;&gt;Node3</title>
<path fill="none" stroke="midnightblue" d="M257.35,-112.34C275.75,-103.37 305.22,-88.9 330.5,-76 347.5,-67.32 350.19,-61.38 368.5,-56 447.03,-32.91 675.66,-19.83 799.5,-14.25"/>
<polygon fill="midnightblue" stroke="midnightblue" points="799.86,-17.74 809.69,-13.8 799.55,-10.75 799.86,-17.74"/>
</g>
<!-- Node6 -->
<g id="node6" class="node">
<title>Node6</title>
<g id="a_node6"><a xlink:href="../../d6/d3b/FixArduinoMacros_8hpp.html" target="_top" xlink:title=" ">
<polygon fill="white" stroke="black" points="151.5,-56.5 151.5,-75.5 321.5,-75.5 321.5,-56.5 151.5,-56.5"/>
<text text-anchor="middle" x="236.5" y="-63.5" font-family="Helvetica,sans-Serif" font-size="10.00">AH/Math/FixArduinoMacros.hpp</text>
</a>
</g>
</g>
<!-- Node5&#45;&gt;Node6 -->
<g id="edge6" class="edge">
<title>Node5&#45;&gt;Node6</title>
<path fill="none" stroke="midnightblue" d="M239,-112.08C238.61,-105.01 238.05,-94.86 237.55,-85.99"/>
<polygon fill="midnightblue" stroke="midnightblue" points="241.04,-85.54 236.99,-75.75 234.05,-85.93 241.04,-85.54"/>
</g>
<!-- Node6&#45;&gt;Node3 -->
<g id="edge7" class="edge">
<title>Node6&#45;&gt;Node3</title>
<path fill="none" stroke="midnightblue" d="M321.55,-57.22C326.27,-56.8 330.94,-56.39 335.5,-56 500.28,-41.72 693.12,-26.08 799.88,-17.51"/>
<polygon fill="midnightblue" stroke="midnightblue" points="800.25,-20.99 809.94,-16.7 799.69,-14.02 800.25,-20.99"/>
</g>
<!-- Node6&#45;&gt;Node7 -->
<g id="edge8" class="edge">
<title>Node6&#45;&gt;Node7</title>
<path fill="none" stroke="midnightblue" d="M227.5,-56.32C219.31,-48.42 206.99,-36.55 197.03,-26.94"/>
<polygon fill="midnightblue" stroke="midnightblue" points="199.29,-24.26 189.66,-19.83 194.43,-29.29 199.29,-24.26"/>
</g>
<!-- Node9&#45;&gt;Node3 -->
<g id="edge13" class="edge">
<title>Node9&#45;&gt;Node3</title>
<path fill="none" stroke="midnightblue" d="M440.03,-508.72C607.68,-497.2 1029.5,-462.31 1029.5,-403 1029.5,-403 1029.5,-403 1029.5,-121 1029.5,-68.02 967.66,-37.57 923.92,-22.66"/>
<polygon fill="midnightblue" stroke="midnightblue" points="924.94,-19.31 914.35,-19.54 922.77,-25.97 924.94,-19.31"/>
</g>
<!-- Node9&#45;&gt;Node8 -->
<g id="edge38" class="edge">
<title>Node9&#45;&gt;Node8</title>
<path fill="none" stroke="midnightblue" d="M343.24,-504.37C323.81,-497.33 298.94,-485.63 282.5,-468 261.17,-445.12 255.5,-434.28 255.5,-403 255.5,-403 255.5,-403 255.5,-345 255.5,-242.02 135.11,-165.73 80.21,-136.3"/>
<polygon fill="midnightblue" stroke="midnightblue" points="81.55,-133.05 71.07,-131.51 78.31,-139.25 81.55,-133.05"/>
</g>
<!-- Node10 -->
<g id="node10" class="node">
<title>Node10</title>
<g id="a_node10"><a xlink:href="../../d1/d93/Error_8hpp.html" target="_top" xlink:title=" ">
<polygon fill="white" stroke="black" points="582.5,-448.5 582.5,-467.5 686.5,-467.5 686.5,-448.5 582.5,-448.5"/>
<text text-anchor="middle" x="634.5" y="-455.5" font-family="Helvetica,sans-Serif" font-size="10.00">AH/Error/Error.hpp</text>
</a>
</g>
</g>
<!-- Node9&#45;&gt;Node10 -->
<g id="edge14" class="edge">
<title>Node9&#45;&gt;Node10</title>
<path fill="none" stroke="midnightblue" d="M414.01,-504.44C459.91,-494.98 533.88,-479.74 583.33,-469.55"/>
<polygon fill="midnightblue" stroke="midnightblue" points="584.09,-472.96 593.18,-467.52 582.68,-466.11 584.09,-472.96"/>
</g>
<!-- Node18 -->
<g id="node18" class="node">
<title>Node18</title>
<g id="a_node18"><a xlink:title=" ">
<polygon fill="white" stroke="#bfbfbf" points="475.5,-224.5 475.5,-243.5 531.5,-243.5 531.5,-224.5 475.5,-224.5"/>
<text text-anchor="middle" x="503.5" y="-231.5" font-family="Helvetica,sans-Serif" font-size="10.00">stddef.h</text>
</a>
</g>
</g>
<!-- Node9&#45;&gt;Node18 -->
<g id="edge39" class="edge">
<title>Node9&#45;&gt;Node18</title>
<path fill="none" stroke="midnightblue" d="M377.49,-504.49C387.59,-486.44 409.5,-442.69 409.5,-403 409.5,-403 409.5,-403 409.5,-345 409.5,-301.93 451.66,-267.21 479.51,-248.98"/>
<polygon fill="midnightblue" stroke="midnightblue" points="481.38,-251.94 487.98,-243.65 477.65,-246.01 481.38,-251.94"/>
</g>
<!-- Node21 -->
<g id="node21" class="node">
<title>Node21</title>
<g id="a_node21"><a xlink:title=" ">
<polygon fill="white" stroke="#bfbfbf" points="291.5,-448.5 291.5,-467.5 381.5,-467.5 381.5,-448.5 291.5,-448.5"/>
<text text-anchor="middle" x="336.5" y="-455.5" font-family="Helvetica,sans-Serif" font-size="10.00">AH/STL/iterator</text>
</a>
</g>
</g>
<!-- Node9&#45;&gt;Node21 -->
<g id="edge37" class="edge">
<title>Node9&#45;&gt;Node21</title>
<path fill="none" stroke="midnightblue" d="M366.56,-504.08C361.52,-496.53 354.16,-485.49 347.99,-476.23"/>
<polygon fill="midnightblue" stroke="midnightblue" points="350.79,-474.13 342.33,-467.75 344.97,-478.01 350.79,-474.13"/>
</g>
<!-- Node10&#45;&gt;Node3 -->
<g id="edge15" class="edge">
<title>Node10&#45;&gt;Node3</title>
<path fill="none" stroke="midnightblue" d="M686.79,-451.88C785.95,-440.72 991.5,-409.99 991.5,-347 991.5,-347 991.5,-347 991.5,-121 991.5,-74.91 942.62,-41.39 910.03,-24.16"/>
<polygon fill="midnightblue" stroke="midnightblue" points="911.41,-20.94 900.91,-19.54 908.25,-27.18 911.41,-20.94"/>
</g>
<!-- Node11 -->
<g id="node11" class="node">
<title>Node11</title>
<g id="a_node11"><a xlink:href="../../df/dee/Debug_8hpp.html" target="_top" xlink:title=" ">
<polygon fill="white" stroke="black" points="574,-392.5 574,-411.5 695,-411.5 695,-392.5 574,-392.5"/>
<text text-anchor="middle" x="634.5" y="-399.5" font-family="Helvetica,sans-Serif" font-size="10.00">AH/Debug/Debug.hpp</text>
</a>
</g>
</g>
<!-- Node10&#45;&gt;Node11 -->
<g id="edge16" class="edge">
<title>Node10&#45;&gt;Node11</title>
<path fill="none" stroke="midnightblue" d="M634.5,-448.08C634.5,-441.01 634.5,-430.86 634.5,-421.99"/>
<polygon fill="midnightblue" stroke="midnightblue" points="638,-421.75 634.5,-411.75 631,-421.75 638,-421.75"/>
</g>
<!-- Node11&#45;&gt;Node3 -->
<g id="edge17" class="edge">
<title>Node11&#45;&gt;Node3</title>
<path fill="none" stroke="midnightblue" d="M695.25,-392.7C787.81,-378.32 953.5,-345.04 953.5,-291 953.5,-291 953.5,-291 953.5,-121 953.5,-81.94 921.32,-45.94 899.99,-26.37"/>
<polygon fill="midnightblue" stroke="midnightblue" points="902.25,-23.7 892.44,-19.7 897.62,-28.94 902.25,-23.7"/>
</g>
<!-- Node12 -->
<g id="node12" class="node">
<title>Node12</title>
<g id="a_node12"><a xlink:href="../../dd/d80/PrintStream_8hpp.html" target="_top" xlink:title=" ">
<polygon fill="white" stroke="black" points="246,-224.5 246,-243.5 419,-243.5 419,-224.5 246,-224.5"/>
<text text-anchor="middle" x="332.5" y="-231.5" font-family="Helvetica,sans-Serif" font-size="10.00">AH/PrintStream/PrintStream.hpp</text>
</a>
</g>
</g>
<!-- Node11&#45;&gt;Node12 -->
<g id="edge18" class="edge">
<title>Node11&#45;&gt;Node12</title>
<path fill="none" stroke="midnightblue" d="M614.79,-392.42C594.87,-383.64 563.28,-369.41 536.5,-356 489.91,-332.67 478.33,-326.56 433.5,-300 405.34,-283.32 373.74,-262.66 353.51,-249.17"/>
<polygon fill="midnightblue" stroke="midnightblue" points="355.32,-246.17 345.07,-243.51 351.43,-251.99 355.32,-246.17"/>
</g>
<!-- Node13 -->
<g id="node13" class="node">
<title>Node13</title>
<g id="a_node13"><a xlink:href="../../d2/dd5/SettingsWrapper_8hpp.html" target="_top" xlink:title=" ">
<polygon fill="white" stroke="black" points="545.5,-336.5 545.5,-355.5 723.5,-355.5 723.5,-336.5 545.5,-336.5"/>
<text text-anchor="middle" x="634.5" y="-343.5" font-family="Helvetica,sans-Serif" font-size="10.00">AH/Settings/SettingsWrapper.hpp</text>
</a>
</g>
</g>
<!-- Node11&#45;&gt;Node13 -->
<g id="edge22" class="edge">
<title>Node11&#45;&gt;Node13</title>
<path fill="none" stroke="midnightblue" d="M629.33,-392.08C627.82,-384.93 627.39,-374.64 628.04,-365.69"/>
<polygon fill="midnightblue" stroke="midnightblue" points="631.52,-366.13 629.37,-355.75 624.58,-365.2 631.52,-366.13"/>
</g>
<!-- Node12&#45;&gt;Node2 -->
<g id="edge19" class="edge">
<title>Node12&#45;&gt;Node2</title>
<path fill="none" stroke="midnightblue" d="M340.13,-224.08C362.97,-197.38 430.99,-117.87 460.54,-83.32"/>
<polygon fill="midnightblue" stroke="midnightblue" points="463.33,-85.44 467.17,-75.57 458.01,-80.89 463.33,-85.44"/>
</g>
<!-- Node12&#45;&gt;Node3 -->
<g id="edge20" class="edge">
<title>Node12&#45;&gt;Node3</title>
<path fill="none" stroke="midnightblue" d="M353.69,-224.43C438.18,-190.27 751.32,-63.64 850.89,-23.38"/>
<polygon fill="midnightblue" stroke="midnightblue" points="852.42,-26.53 860.38,-19.54 849.8,-20.05 852.42,-26.53"/>
</g>
<!-- Node12&#45;&gt;Node4 -->
<g id="edge21" class="edge">
<title>Node12&#45;&gt;Node4</title>
<path fill="none" stroke="midnightblue" d="M318.52,-224.32C304.95,-215.9 284.12,-202.97 268.18,-193.07"/>
<polygon fill="midnightblue" stroke="midnightblue" points="269.79,-189.95 259.44,-187.65 266.09,-195.9 269.79,-189.95"/>
</g>
<!-- Node13&#45;&gt;Node2 -->
<g id="edge24" class="edge">
<title>Node13&#45;&gt;Node2</title>
<path fill="none" stroke="midnightblue" d="M574.21,-336.48C531.98,-329.15 480.8,-317.04 467.5,-300 417.23,-235.59 450.6,-127.86 466.96,-85.2"/>
<polygon fill="midnightblue" stroke="midnightblue" points="470.24,-86.4 470.69,-75.82 463.74,-83.82 470.24,-86.4"/>
</g>
<!-- Node13&#45;&gt;Node3 -->
<g id="edge23" class="edge">
<title>Node13&#45;&gt;Node3</title>
<path fill="none" stroke="midnightblue" d="M682.49,-336.45C762.74,-320.77 915.5,-284.44 915.5,-235 915.5,-235 915.5,-235 915.5,-121 915.5,-87.16 900.63,-49.97 890.56,-28.66"/>
<polygon fill="midnightblue" stroke="midnightblue" points="893.64,-26.99 886.09,-19.56 887.36,-30.08 893.64,-26.99"/>
</g>
<!-- Node13&#45;&gt;Node11 -->
<g id="edge36" class="edge">
<title>Node13&#45;&gt;Node11</title>
<path fill="none" stroke="midnightblue" d="M639.63,-355.75C641.16,-362.86 641.6,-373.14 640.97,-382.1"/>
<polygon fill="midnightblue" stroke="midnightblue" points="637.49,-381.71 639.67,-392.08 644.43,-382.62 637.49,-381.71"/>
</g>
<!-- Node14 -->
<g id="node14" class="node">
<title>Node14</title>
<g id="a_node14"><a xlink:href="../../db/d02/Settings_8hpp.html" target="_top" xlink:title="All user settings and debugging options can be changed here.">
<polygon fill="white" stroke="black" points="667,-280.5 667,-299.5 744,-299.5 744,-280.5 667,-280.5"/>
<text text-anchor="middle" x="705.5" y="-287.5" font-family="Helvetica,sans-Serif" font-size="10.00">Settings.hpp</text>
</a>
</g>
</g>
<!-- Node13&#45;&gt;Node14 -->
<g id="edge25" class="edge">
<title>Node13&#45;&gt;Node14</title>
<path fill="none" stroke="midnightblue" d="M645.91,-336.32C656.61,-328.18 672.84,-315.84 685.66,-306.09"/>
<polygon fill="midnightblue" stroke="midnightblue" points="688.04,-308.67 693.89,-299.83 683.81,-303.1 688.04,-308.67"/>
</g>
<!-- Node20 -->
<g id="node20" class="node">
<title>Node20</title>
<g id="a_node20"><a xlink:href="../../d9/d98/TeensyUSBTypes_8hpp.html" target="_top" xlink:title=" ">
<polygon fill="white" stroke="black" points="476,-280.5 476,-299.5 649,-299.5 649,-280.5 476,-280.5"/>
<text text-anchor="middle" x="562.5" y="-287.5" font-family="Helvetica,sans-Serif" font-size="10.00">AH/Teensy/TeensyUSBTypes.hpp</text>
</a>
</g>
</g>
<!-- Node13&#45;&gt;Node20 -->
<g id="edge35" class="edge">
<title>Node13&#45;&gt;Node20</title>
<path fill="none" stroke="midnightblue" d="M622.93,-336.32C612.08,-328.18 595.62,-315.84 582.62,-306.09"/>
<polygon fill="midnightblue" stroke="midnightblue" points="584.38,-303.03 574.28,-299.83 580.18,-308.63 584.38,-303.03"/>
</g>
<!-- Node15 -->
<g id="node15" class="node">
<title>Node15</title>
<g id="a_node15"><a xlink:href="../../dc/d50/Frequency_8hpp.html" target="_top" xlink:title=" ">
<polygon fill="white" stroke="black" points="753.5,-112.5 753.5,-131.5 887.5,-131.5 887.5,-112.5 753.5,-112.5"/>
<text text-anchor="middle" x="820.5" y="-119.5" font-family="Helvetica,sans-Serif" font-size="10.00">AH/Types/Frequency.hpp</text>
</a>
</g>
</g>
<!-- Node14&#45;&gt;Node15 -->
<g id="edge26" class="edge">
<title>Node14&#45;&gt;Node15</title>
<path fill="none" stroke="midnightblue" d="M744.2,-282.98C784.85,-275.78 844.77,-262.34 858.5,-244 882.35,-212.13 853.56,-164.92 834.59,-139.94"/>
<polygon fill="midnightblue" stroke="midnightblue" points="837.1,-137.48 828.16,-131.81 831.61,-141.82 837.1,-137.48"/>
</g>
<!-- Node16 -->
<g id="node16" class="node">
<title>Node16</title>
<g id="a_node16"><a xlink:href="../../d7/d7c/ADCConfig_8hpp.html" target="_top" xlink:title="This file contains the platform&#45;specific ADC resolutions.">
<polygon fill="white" stroke="black" points="621,-224.5 621,-243.5 778,-243.5 778,-224.5 621,-224.5"/>
<text text-anchor="middle" x="699.5" y="-231.5" font-family="Helvetica,sans-Serif" font-size="10.00">AH/Hardware/ADCConfig.hpp</text>
</a>
</g>
</g>
<!-- Node14&#45;&gt;Node16 -->
<g id="edge29" class="edge">
<title>Node14&#45;&gt;Node16</title>
<path fill="none" stroke="midnightblue" d="M704.51,-280.08C703.71,-272.93 702.57,-262.64 701.58,-253.69"/>
<polygon fill="midnightblue" stroke="midnightblue" points="705.06,-253.3 700.47,-243.75 698.1,-254.08 705.06,-253.3"/>
</g>
<!-- Node17 -->
<g id="node17" class="node">
<title>Node17</title>
<g id="a_node17"><a xlink:title=" ">
<polygon fill="white" stroke="#bfbfbf" points="796,-224.5 796,-243.5 849,-243.5 849,-224.5 796,-224.5"/>
<text text-anchor="middle" x="822.5" y="-231.5" font-family="Helvetica,sans-Serif" font-size="10.00">limits.h</text>
</a>
</g>
</g>
<!-- Node14&#45;&gt;Node17 -->
<g id="edge32" class="edge">
<title>Node14&#45;&gt;Node17</title>
<path fill="none" stroke="midnightblue" d="M724.04,-280.44C743.12,-271.64 773.07,-257.81 794.94,-247.72"/>
<polygon fill="midnightblue" stroke="midnightblue" points="796.43,-250.88 804.05,-243.52 793.5,-244.53 796.43,-250.88"/>
</g>
<!-- Node14&#45;&gt;Node18 -->
<g id="edge33" class="edge">
<title>Node14&#45;&gt;Node18</title>
<path fill="none" stroke="midnightblue" d="M673.49,-280.44C637.65,-270.86 579.6,-255.34 541.48,-245.15"/>
<polygon fill="midnightblue" stroke="midnightblue" points="542.34,-241.76 531.77,-242.56 540.53,-248.52 542.34,-241.76"/>
</g>
<!-- Node19 -->
<g id="node19" class="node">
<title>Node19</title>
<g id="a_node19"><a xlink:title=" ">
<polygon fill="white" stroke="#bfbfbf" points="550,-224.5 550,-243.5 603,-243.5 603,-224.5 550,-224.5"/>
<text text-anchor="middle" x="576.5" y="-231.5" font-family="Helvetica,sans-Serif" font-size="10.00">stdint.h</text>
</a>
</g>
</g>
<!-- Node14&#45;&gt;Node19 -->
<g id="edge34" class="edge">
<title>Node14&#45;&gt;Node19</title>
<path fill="none" stroke="midnightblue" d="M685.06,-280.44C663.83,-271.56 630.4,-257.56 606.25,-247.45"/>
<polygon fill="midnightblue" stroke="midnightblue" points="607.42,-244.15 596.84,-243.52 604.72,-250.61 607.42,-244.15"/>
</g>
<!-- Node15&#45;&gt;Node2 -->
<g id="edge28" class="edge">
<title>Node15&#45;&gt;Node2</title>
<path fill="none" stroke="midnightblue" d="M765.68,-112.44C704.18,-102.85 604.52,-87.29 539.24,-77.1"/>
<polygon fill="midnightblue" stroke="midnightblue" points="539.49,-73.6 529.07,-75.52 538.41,-80.52 539.49,-73.6"/>
</g>
<!-- Node15&#45;&gt;Node3 -->
<g id="edge27" class="edge">
<title>Node15&#45;&gt;Node3</title>
<path fill="none" stroke="midnightblue" d="M825.29,-112.37C835.26,-94.38 858.46,-52.55 871.73,-28.63"/>
<polygon fill="midnightblue" stroke="midnightblue" points="874.95,-30.03 876.74,-19.59 868.83,-26.64 874.95,-30.03"/>
</g>
<!-- Node16&#45;&gt;Node3 -->
<g id="edge30" class="edge">
<title>Node16&#45;&gt;Node3</title>
<path fill="none" stroke="midnightblue" d="M700.97,-224.26C704.87,-203.13 717.12,-148.34 744.5,-112 774.48,-72.22 824.37,-41.04 854.96,-24.38"/>
<polygon fill="midnightblue" stroke="midnightblue" points="856.61,-27.47 863.79,-19.68 853.32,-21.29 856.61,-27.47"/>
</g>
<!-- Node16&#45;&gt;Node4 -->
<g id="edge31" class="edge">
<title>Node16&#45;&gt;Node4</title>
<path fill="none" stroke="midnightblue" d="M627.81,-224.47C543.05,-214.39 402.79,-197.71 317.78,-187.6"/>
<polygon fill="midnightblue" stroke="midnightblue" points="318.03,-184.1 307.69,-186.4 317.21,-191.05 318.03,-184.1"/>
</g>
</g>
</svg>
