<?xml version="1.0" encoding="UTF-8" standalone="no"?>
<!DOCTYPE svg PUBLIC "-//W3C//DTD SVG 1.1//EN"
 "http://www.w3.org/Graphics/SVG/1.1/DTD/svg11.dtd">
<!-- Generated by graphviz version 2.43.0 (0)
 -->
<!-- Title: StaticSizeExtendedIOElement.hpp Pages: 1 -->
<svg width="775pt" height="196pt"
 viewBox="0.00 0.00 774.50 196.00" xmlns="http://www.w3.org/2000/svg" xmlns:xlink="http://www.w3.org/1999/xlink">
<g id="graph0" class="graph" transform="scale(1 1) rotate(0) translate(4 192)">
<title>StaticSizeExtendedIOElement.hpp</title>
<polygon fill="white" stroke="transparent" points="-4,4 -4,-192 770.5,-192 770.5,4 -4,4"/>
<!-- Node1 -->
<g id="node1" class="node">
<title>Node1</title>
<g id="a_node1"><a xlink:title=" ">
<polygon fill="#bfbfbf" stroke="black" points="138.5,-168.5 138.5,-187.5 320.5,-187.5 320.5,-168.5 138.5,-168.5"/>
<text text-anchor="middle" x="229.5" y="-175.5" font-family="Helvetica,sans-Serif" font-size="10.00">StaticSizeExtendedIOElement.hpp</text>
</a>
</g>
</g>
<!-- Node2 -->
<g id="node2" class="node">
<title>Node2</title>
<g id="a_node2"><a xlink:href="../../d7/def/AnalogMultiplex_8hpp.html" target="_top" xlink:title=" ">
<polygon fill="white" stroke="black" points="0,-112.5 0,-131.5 117,-131.5 117,-112.5 0,-112.5"/>
<text text-anchor="middle" x="58.5" y="-119.5" font-family="Helvetica,sans-Serif" font-size="10.00">AnalogMultiplex.hpp</text>
</a>
</g>
</g>
<!-- Node1&#45;&gt;Node2 -->
<g id="edge1" class="edge">
<title>Node1&#45;&gt;Node2</title>
<path fill="none" stroke="midnightblue" d="M192.46,-165.3C160.24,-155.13 114.31,-140.62 85.47,-131.52"/>
<polygon fill="midnightblue" stroke="midnightblue" points="191.81,-168.77 202.4,-168.44 193.92,-162.09 191.81,-168.77"/>
</g>
<!-- Node3 -->
<g id="node3" class="node">
<title>Node3</title>
<g id="a_node3"><a xlink:href="../../d2/d25/MAX7219_8hpp.html" target="_top" xlink:title=" ">
<polygon fill="white" stroke="black" points="135.5,-112.5 135.5,-131.5 219.5,-131.5 219.5,-112.5 135.5,-112.5"/>
<text text-anchor="middle" x="177.5" y="-119.5" font-family="Helvetica,sans-Serif" font-size="10.00">MAX7219.hpp</text>
</a>
</g>
</g>
<!-- Node1&#45;&gt;Node3 -->
<g id="edge2" class="edge">
<title>Node1&#45;&gt;Node3</title>
<path fill="none" stroke="midnightblue" d="M213.82,-160.72C204.66,-151.2 193.45,-139.56 185.93,-131.75"/>
<polygon fill="midnightblue" stroke="midnightblue" points="211.46,-163.31 220.91,-168.08 216.5,-158.45 211.46,-163.31"/>
</g>
<!-- Node4 -->
<g id="node4" class="node">
<title>Node4</title>
<g id="a_node4"><a xlink:href="../../d7/dca/MCP23017_8hpp.html" target="_top" xlink:title=" ">
<polygon fill="white" stroke="black" points="237,-112.5 237,-131.5 326,-131.5 326,-112.5 237,-112.5"/>
<text text-anchor="middle" x="281.5" y="-119.5" font-family="Helvetica,sans-Serif" font-size="10.00">MCP23017.hpp</text>
</a>
</g>
</g>
<!-- Node1&#45;&gt;Node4 -->
<g id="edge3" class="edge">
<title>Node1&#45;&gt;Node4</title>
<path fill="none" stroke="midnightblue" d="M245.18,-160.72C254.34,-151.2 265.55,-139.56 273.07,-131.75"/>
<polygon fill="midnightblue" stroke="midnightblue" points="242.5,-158.45 238.09,-168.08 247.54,-163.31 242.5,-158.45"/>
</g>
<!-- Node6 -->
<g id="node6" class="node">
<title>Node6</title>
<g id="a_node6"><a xlink:href="../../d8/d93/ShiftRegisterOutBase_8hpp.html" target="_top" xlink:title=" ">
<polygon fill="white" stroke="black" points="481,-112.5 481,-131.5 622,-131.5 622,-112.5 481,-112.5"/>
<text text-anchor="middle" x="551.5" y="-119.5" font-family="Helvetica,sans-Serif" font-size="10.00">ShiftRegisterOutBase.hpp</text>
</a>
</g>
</g>
<!-- Node1&#45;&gt;Node6 -->
<g id="edge6" class="edge">
<title>Node1&#45;&gt;Node6</title>
<path fill="none" stroke="midnightblue" d="M290.75,-166.73C351.6,-156.52 443.82,-141.06 500.72,-131.52"/>
<polygon fill="midnightblue" stroke="midnightblue" points="289.81,-163.34 280.52,-168.44 290.96,-170.24 289.81,-163.34"/>
</g>
<!-- Node5 -->
<g id="node5" class="node">
<title>Node5</title>
<g id="a_node5"><a xlink:href="../../d2/d94/MCP23017_8ipp.html" target="_top" xlink:title=" ">
<polygon fill="white" stroke="black" points="238.5,-56.5 238.5,-75.5 324.5,-75.5 324.5,-56.5 238.5,-56.5"/>
<text text-anchor="middle" x="281.5" y="-63.5" font-family="Helvetica,sans-Serif" font-size="10.00">MCP23017.ipp</text>
</a>
</g>
</g>
<!-- Node4&#45;&gt;Node5 -->
<g id="edge4" class="edge">
<title>Node4&#45;&gt;Node5</title>
<path fill="none" stroke="midnightblue" d="M275.03,-102.1C274.4,-93.14 274.84,-82.86 276.37,-75.75"/>
<polygon fill="midnightblue" stroke="midnightblue" points="271.57,-102.62 276.33,-112.08 278.51,-101.71 271.57,-102.62"/>
</g>
<!-- Node5&#45;&gt;Node4 -->
<g id="edge5" class="edge">
<title>Node5&#45;&gt;Node4</title>
<path fill="none" stroke="midnightblue" d="M287.96,-85.69C288.61,-94.64 288.18,-104.93 286.67,-112.08"/>
<polygon fill="midnightblue" stroke="midnightblue" points="291.42,-85.2 286.63,-75.75 284.48,-86.13 291.42,-85.2"/>
</g>
<!-- Node7 -->
<g id="node7" class="node">
<title>Node7</title>
<g id="a_node7"><a xlink:href="../../d7/d88/SPIShiftRegisterOut_8hpp.html" target="_top" xlink:title=" ">
<polygon fill="white" stroke="black" points="342.5,-56.5 342.5,-75.5 474.5,-75.5 474.5,-56.5 342.5,-56.5"/>
<text text-anchor="middle" x="408.5" y="-63.5" font-family="Helvetica,sans-Serif" font-size="10.00">SPIShiftRegisterOut.hpp</text>
</a>
</g>
</g>
<!-- Node6&#45;&gt;Node7 -->
<g id="edge7" class="edge">
<title>Node6&#45;&gt;Node7</title>
<path fill="none" stroke="midnightblue" d="M519.47,-108.91C492.59,-98.75 454.86,-84.51 431.05,-75.52"/>
<polygon fill="midnightblue" stroke="midnightblue" points="518.25,-112.19 528.84,-112.44 520.72,-105.64 518.25,-112.19"/>
</g>
<!-- Node9 -->
<g id="node9" class="node">
<title>Node9</title>
<g id="a_node9"><a xlink:href="../../d0/db4/ShiftRegisterOut_8hpp.html" target="_top" xlink:title=" ">
<polygon fill="white" stroke="black" points="493,-56.5 493,-75.5 610,-75.5 610,-56.5 493,-56.5"/>
<text text-anchor="middle" x="551.5" y="-63.5" font-family="Helvetica,sans-Serif" font-size="10.00">ShiftRegisterOut.hpp</text>
</a>
</g>
</g>
<!-- Node6&#45;&gt;Node9 -->
<g id="edge10" class="edge">
<title>Node6&#45;&gt;Node9</title>
<path fill="none" stroke="midnightblue" d="M551.5,-101.8C551.5,-92.91 551.5,-82.78 551.5,-75.75"/>
<polygon fill="midnightblue" stroke="midnightblue" points="548,-102.08 551.5,-112.08 555,-102.08 548,-102.08"/>
</g>
<!-- Node11 -->
<g id="node11" class="node">
<title>Node11</title>
<g id="a_node11"><a xlink:href="../../d5/d47/ShiftRegisterOutBase_8ipp.html" target="_top" xlink:title=" ">
<polygon fill="white" stroke="black" points="628.5,-56.5 628.5,-75.5 766.5,-75.5 766.5,-56.5 628.5,-56.5"/>
<text text-anchor="middle" x="697.5" y="-63.5" font-family="Helvetica,sans-Serif" font-size="10.00">ShiftRegisterOutBase.ipp</text>
</a>
</g>
</g>
<!-- Node6&#45;&gt;Node11 -->
<g id="edge13" class="edge">
<title>Node6&#45;&gt;Node11</title>
<path fill="none" stroke="midnightblue" d="M579.15,-108.64C605.05,-98.5 643.34,-84.43 669.39,-75.52"/>
<polygon fill="midnightblue" stroke="midnightblue" points="577.55,-105.5 569.55,-112.44 580.13,-112.01 577.55,-105.5"/>
</g>
<!-- Node8 -->
<g id="node8" class="node">
<title>Node8</title>
<g id="a_node8"><a xlink:href="../../da/d45/SPIShiftRegisterOut_8ipp.html" target="_top" xlink:title=" ">
<polygon fill="white" stroke="black" points="344,-0.5 344,-19.5 473,-19.5 473,-0.5 344,-0.5"/>
<text text-anchor="middle" x="408.5" y="-7.5" font-family="Helvetica,sans-Serif" font-size="10.00">SPIShiftRegisterOut.ipp</text>
</a>
</g>
</g>
<!-- Node7&#45;&gt;Node8 -->
<g id="edge8" class="edge">
<title>Node7&#45;&gt;Node8</title>
<path fill="none" stroke="midnightblue" d="M402.03,-46.1C401.4,-37.14 401.84,-26.86 403.37,-19.75"/>
<polygon fill="midnightblue" stroke="midnightblue" points="398.57,-46.62 403.33,-56.08 405.51,-45.71 398.57,-46.62"/>
</g>
<!-- Node8&#45;&gt;Node7 -->
<g id="edge9" class="edge">
<title>Node8&#45;&gt;Node7</title>
<path fill="none" stroke="midnightblue" d="M414.96,-29.69C415.61,-38.64 415.18,-48.93 413.67,-56.08"/>
<polygon fill="midnightblue" stroke="midnightblue" points="418.42,-29.2 413.63,-19.75 411.48,-30.13 418.42,-29.2"/>
</g>
<!-- Node10 -->
<g id="node10" class="node">
<title>Node10</title>
<g id="a_node10"><a xlink:href="../../de/d95/ShiftRegisterOut_8ipp.html" target="_top" xlink:title=" ">
<polygon fill="white" stroke="black" points="494.5,-0.5 494.5,-19.5 608.5,-19.5 608.5,-0.5 494.5,-0.5"/>
<text text-anchor="middle" x="551.5" y="-7.5" font-family="Helvetica,sans-Serif" font-size="10.00">ShiftRegisterOut.ipp</text>
</a>
</g>
</g>
<!-- Node9&#45;&gt;Node10 -->
<g id="edge11" class="edge">
<title>Node9&#45;&gt;Node10</title>
<path fill="none" stroke="midnightblue" d="M545.03,-46.1C544.4,-37.14 544.84,-26.86 546.37,-19.75"/>
<polygon fill="midnightblue" stroke="midnightblue" points="541.57,-46.62 546.33,-56.08 548.51,-45.71 541.57,-46.62"/>
</g>
<!-- Node10&#45;&gt;Node9 -->
<g id="edge12" class="edge">
<title>Node10&#45;&gt;Node9</title>
<path fill="none" stroke="midnightblue" d="M557.96,-29.69C558.61,-38.64 558.18,-48.93 556.67,-56.08"/>
<polygon fill="midnightblue" stroke="midnightblue" points="561.42,-29.2 556.63,-19.75 554.48,-30.13 561.42,-29.2"/>
</g>
<!-- Node11&#45;&gt;Node6 -->
<g id="edge14" class="edge">
<title>Node11&#45;&gt;Node6</title>
<path fill="none" stroke="midnightblue" d="M669.97,-79.32C644.11,-89.44 605.82,-103.52 579.72,-112.44"/>
<polygon fill="midnightblue" stroke="midnightblue" points="671.55,-82.46 679.55,-75.52 668.97,-75.95 671.55,-82.46"/>
</g>
</g>
</svg>
