<?xml version="1.0" encoding="UTF-8" standalone="no"?>
<!DOCTYPE svg PUBLIC "-//W3C//DTD SVG 1.1//EN"
 "http://www.w3.org/Graphics/SVG/1.1/DTD/svg11.dtd">
<!-- Generated by graphviz version 2.40.1 (20161225.0304)
 -->
<!-- Title: SettingsWrapper.hpp Pages: 1 -->
<svg width="785pt" height="364pt"
 viewBox="0.00 0.00 784.53 364.00" xmlns="http://www.w3.org/2000/svg" xmlns:xlink="http://www.w3.org/1999/xlink">
<g id="graph0" class="graph" transform="scale(1 1) rotate(0) translate(4 360)">
<title>SettingsWrapper.hpp</title>
<polygon fill="#ffffff" stroke="transparent" points="-4,4 -4,-360 780.5334,-360 780.5334,4 -4,4"/>
<!-- Node1 -->
<g id="node1" class="node">
<title>Node1</title>
<g id="a_node1"><a xlink:title=" ">
<polygon fill="#bfbfbf" stroke="#000000" points="434,-336.5 434,-355.5 542,-355.5 542,-336.5 434,-336.5"/>
<text text-anchor="middle" x="488" y="-343.5" font-family="Helvetica,sans-Serif" font-size="10.00" fill="#000000">SettingsWrapper.hpp</text>
</a>
</g>
</g>
<!-- Node2 -->
<g id="node2" class="node">
<title>Node2</title>
<g id="a_node2"><a xlink:href="../../d1/d65/Warnings_8hpp.html" target="_top" xlink:title=" ">
<polygon fill="#ffffff" stroke="#000000" points="417.5,-.5 417.5,-19.5 550.5,-19.5 550.5,-.5 417.5,-.5"/>
<text text-anchor="middle" x="484" y="-7.5" font-family="Helvetica,sans-Serif" font-size="10.00" fill="#000000">AH/Settings/Warnings.hpp</text>
</a>
</g>
</g>
<!-- Node1&#45;&gt;Node2 -->
<g id="edge1" class="edge">
<title>Node1&#45;&gt;Node2</title>
<path fill="none" stroke="#191970" d="M433.9109,-344.9311C306.8541,-340.9578 0,-322.2288 0,-234 0,-234 0,-234 0,-122 0,-39.4652 270.5198,-17.739 407.0711,-12.0295"/>
<polygon fill="#191970" stroke="#191970" points="407.611,-15.5109 417.4636,-11.6151 407.332,-8.5164 407.611,-15.5109"/>
</g>
<!-- Node3 -->
<g id="node3" class="node">
<title>Node3</title>
<g id="a_node3"><a xlink:href="../../dc/dc7/NamespaceSettings_8hpp.html" target="_top" xlink:title=" ">
<polygon fill="#ffffff" stroke="#000000" points="332,-56.5 332,-75.5 456,-75.5 456,-56.5 332,-56.5"/>
<text text-anchor="middle" x="394" y="-63.5" font-family="Helvetica,sans-Serif" font-size="10.00" fill="#000000">NamespaceSettings.hpp</text>
</a>
</g>
</g>
<!-- Node1&#45;&gt;Node3 -->
<g id="edge2" class="edge">
<title>Node1&#45;&gt;Node3</title>
<path fill="none" stroke="#191970" d="M481.6211,-336.2715C469.8717,-317.3847 446,-274.0797 446,-234 446,-234 446,-234 446,-178 446,-141.9842 423.6055,-105.0048 408.2092,-83.8372"/>
<polygon fill="#191970" stroke="#191970" points="410.9451,-81.6522 402.125,-75.7823 405.3595,-85.8714 410.9451,-81.6522"/>
</g>
<!-- Node4 -->
<g id="node4" class="node">
<title>Node4</title>
<g id="a_node4"><a xlink:href="../../db/d02/Settings_8hpp.html" target="_top" xlink:title="All user settings and debugging options can be changed here.">
<polygon fill="#ffffff" stroke="#000000" points="157.5,-280.5 157.5,-299.5 228.5,-299.5 228.5,-280.5 157.5,-280.5"/>
<text text-anchor="middle" x="193" y="-287.5" font-family="Helvetica,sans-Serif" font-size="10.00" fill="#000000">Settings.hpp</text>
</a>
</g>
</g>
<!-- Node1&#45;&gt;Node4 -->
<g id="edge3" class="edge">
<title>Node1&#45;&gt;Node4</title>
<path fill="none" stroke="#191970" d="M437.6229,-336.4369C381.8131,-325.8425 292.6086,-308.9087 238.7368,-298.6822"/>
<polygon fill="#191970" stroke="#191970" points="239.2569,-295.2185 228.7796,-296.7921 237.9514,-302.0957 239.2569,-295.2185"/>
</g>
<!-- Node15 -->
<g id="node15" class="node">
<title>Node15</title>
<g id="a_node15"><a xlink:href="../../d9/d98/TeensyUSBTypes_8hpp.html" target="_top" xlink:title=" ">
<polygon fill="#ffffff" stroke="#000000" points="606,-280.5 606,-299.5 774,-299.5 774,-280.5 606,-280.5"/>
<text text-anchor="middle" x="690" y="-287.5" font-family="Helvetica,sans-Serif" font-size="10.00" fill="#000000">AH/Teensy/TeensyUSBTypes.hpp</text>
</a>
</g>
</g>
<!-- Node1&#45;&gt;Node15 -->
<g id="edge21" class="edge">
<title>Node1&#45;&gt;Node15</title>
<path fill="none" stroke="#191970" d="M522.725,-336.3733C556.7508,-326.9404 608.7437,-312.5265 645.7234,-302.2747"/>
<polygon fill="#191970" stroke="#191970" points="647.0266,-305.5455 655.7281,-299.5011 645.1565,-298.7999 647.0266,-305.5455"/>
</g>
<!-- Node16 -->
<g id="node16" class="node">
<title>Node16</title>
<g id="a_node16"><a xlink:href="../../df/dee/Debug_8hpp.html" target="_top" xlink:title=" ">
<polygon fill="#ffffff" stroke="#000000" points="474.5,-280.5 474.5,-299.5 587.5,-299.5 587.5,-280.5 474.5,-280.5"/>
<text text-anchor="middle" x="531" y="-287.5" font-family="Helvetica,sans-Serif" font-size="10.00" fill="#000000">AH/Debug/Debug.hpp</text>
</a>
</g>
</g>
<!-- Node1&#45;&gt;Node16 -->
<g id="edge22" class="edge">
<title>Node1&#45;&gt;Node16</title>
<path fill="none" stroke="#191970" d="M490.2232,-336.2455C494.8385,-328.2155 503.3926,-316.6394 511.6153,-307.0781"/>
<polygon fill="#191970" stroke="#191970" points="514.2311,-309.4038 518.3507,-299.6427 509.0431,-304.7043 514.2311,-309.4038"/>
</g>
<!-- Node5 -->
<g id="node5" class="node">
<title>Node5</title>
<g id="a_node5"><a xlink:href="../../dc/d50/Frequency_8hpp.html" target="_top" xlink:title=" ">
<polygon fill="#ffffff" stroke="#000000" points="148,-112.5 148,-131.5 276,-131.5 276,-112.5 148,-112.5"/>
<text text-anchor="middle" x="212" y="-119.5" font-family="Helvetica,sans-Serif" font-size="10.00" fill="#000000">AH/Types/Frequency.hpp</text>
</a>
</g>
</g>
<!-- Node4&#45;&gt;Node5 -->
<g id="edge4" class="edge">
<title>Node4&#45;&gt;Node5</title>
<path fill="none" stroke="#191970" d="M157.4402,-286.9024C110.0822,-281.1441 34.7094,-265.3527 57,-224 81.4144,-178.7073 135.703,-150.2261 173.0826,-135.2099"/>
<polygon fill="#191970" stroke="#191970" points="174.6005,-138.3756 182.6651,-131.5045 172.0758,-131.8467 174.6005,-138.3756"/>
</g>
<!-- Node6 -->
<g id="node6" class="node">
<title>Node6</title>
<g id="a_node6"><a xlink:href="../../d7/d7c/ADCConfig_8hpp.html" target="_top" xlink:title="This file contains the platform&#45;specific ADC resolutions. By default, the library automatically selec...">
<polygon fill="#ffffff" stroke="#000000" points="270,-224.5 270,-243.5 418,-243.5 418,-224.5 270,-224.5"/>
<text text-anchor="middle" x="344" y="-231.5" font-family="Helvetica,sans-Serif" font-size="10.00" fill="#000000">AH/Hardware/ADCConfig.hpp</text>
</a>
</g>
</g>
<!-- Node4&#45;&gt;Node6 -->
<g id="edge7" class="edge">
<title>Node4&#45;&gt;Node6</title>
<path fill="none" stroke="#191970" d="M218.9578,-280.3733C243.7407,-271.1822 281.2746,-257.2624 308.754,-247.0713"/>
<polygon fill="#191970" stroke="#191970" points="310.2219,-250.26 318.3809,-243.5011 307.7879,-243.6968 310.2219,-250.26"/>
</g>
<!-- Node12 -->
<g id="node12" class="node">
<title>Node12</title>
<g id="a_node12"><a xlink:title=" ">
<polygon fill="#ffffff" stroke="#bfbfbf" points="66,-224.5 66,-243.5 114,-243.5 114,-224.5 66,-224.5"/>
<text text-anchor="middle" x="90" y="-231.5" font-family="Helvetica,sans-Serif" font-size="10.00" fill="#000000">limits.h</text>
</a>
</g>
</g>
<!-- Node4&#45;&gt;Node12 -->
<g id="edge18" class="edge">
<title>Node4&#45;&gt;Node12</title>
<path fill="none" stroke="#191970" d="M175.0588,-280.2455C158.96,-271.4928 135.1121,-258.527 116.7609,-248.5496"/>
<polygon fill="#191970" stroke="#191970" points="118.1929,-245.3444 107.7356,-243.6427 114.8493,-251.4942 118.1929,-245.3444"/>
</g>
<!-- Node13 -->
<g id="node13" class="node">
<title>Node13</title>
<g id="a_node13"><a xlink:title=" ">
<polygon fill="#ffffff" stroke="#bfbfbf" points="132,-224.5 132,-243.5 184,-243.5 184,-224.5 132,-224.5"/>
<text text-anchor="middle" x="158" y="-231.5" font-family="Helvetica,sans-Serif" font-size="10.00" fill="#000000">stddef.h</text>
</a>
</g>
</g>
<!-- Node4&#45;&gt;Node13 -->
<g id="edge19" class="edge">
<title>Node4&#45;&gt;Node13</title>
<path fill="none" stroke="#191970" d="M186.9035,-280.2455C182.0855,-272.5367 175.2249,-261.5598 169.3968,-252.2348"/>
<polygon fill="#191970" stroke="#191970" points="172.2947,-250.2677 164.0267,-243.6427 166.3587,-253.9777 172.2947,-250.2677"/>
</g>
<!-- Node14 -->
<g id="node14" class="node">
<title>Node14</title>
<g id="a_node14"><a xlink:title=" ">
<polygon fill="#ffffff" stroke="#bfbfbf" points="202.5,-224.5 202.5,-243.5 251.5,-243.5 251.5,-224.5 202.5,-224.5"/>
<text text-anchor="middle" x="227" y="-231.5" font-family="Helvetica,sans-Serif" font-size="10.00" fill="#000000">stdint.h</text>
</a>
</g>
</g>
<!-- Node4&#45;&gt;Node14 -->
<g id="edge20" class="edge">
<title>Node4&#45;&gt;Node14</title>
<path fill="none" stroke="#191970" d="M198.9223,-280.2455C203.6027,-272.5367 210.2673,-261.5598 215.9289,-252.2348"/>
<polygon fill="#191970" stroke="#191970" points="218.9475,-254.007 221.1455,-243.6427 212.9639,-250.3741 218.9475,-254.007"/>
</g>
<!-- Node5&#45;&gt;Node2 -->
<g id="edge5" class="edge">
<title>Node5&#45;&gt;Node2</title>
<path fill="none" stroke="#191970" d="M220.5601,-112.2913C233.9147,-97.7705 261.1799,-70.5504 290,-56 326.2938,-37.6764 370.1227,-26.4835 406.9319,-19.7354"/>
<polygon fill="#191970" stroke="#191970" points="407.8715,-23.124 417.1157,-17.9477 406.6611,-16.2295 407.8715,-23.124"/>
</g>
<!-- Node5&#45;&gt;Node3 -->
<g id="edge6" class="edge">
<title>Node5&#45;&gt;Node3</title>
<path fill="none" stroke="#191970" d="M243.2869,-112.3733C273.6818,-103.021 319.9893,-88.7725 353.25,-78.5385"/>
<polygon fill="#191970" stroke="#191970" points="354.5929,-81.7873 363.1214,-75.5011 352.5342,-75.0968 354.5929,-81.7873"/>
</g>
<!-- Node6&#45;&gt;Node2 -->
<g id="edge8" class="edge">
<title>Node6&#45;&gt;Node2</title>
<path fill="none" stroke="#191970" d="M338.6164,-224.2924C323.3658,-195.3498 283.4616,-108.4172 323,-56 334.3693,-40.9273 375.6503,-29.3076 413.562,-21.5172"/>
<polygon fill="#191970" stroke="#191970" points="414.4938,-24.9007 423.6211,-19.5208 413.131,-18.0346 414.4938,-24.9007"/>
</g>
<!-- Node7 -->
<g id="node7" class="node">
<title>Node7</title>
<g id="a_node7"><a xlink:href="../../d6/ddf/Arduino-Wrapper_8h.html" target="_top" xlink:title=" ">
<polygon fill="#ffffff" stroke="#000000" points="639.5,-168.5 639.5,-187.5 754.5,-187.5 754.5,-168.5 639.5,-168.5"/>
<text text-anchor="middle" x="697" y="-175.5" font-family="Helvetica,sans-Serif" font-size="10.00" fill="#000000">AH/Arduino&#45;Wrapper.h</text>
</a>
</g>
</g>
<!-- Node6&#45;&gt;Node7 -->
<g id="edge9" class="edge">
<title>Node6&#45;&gt;Node7</title>
<path fill="none" stroke="#191970" d="M404.2818,-224.4369C466.7118,-214.533 564.0632,-199.0891 629.1507,-188.7636"/>
<polygon fill="#191970" stroke="#191970" points="629.9814,-192.1757 639.3095,-187.152 628.8846,-185.2622 629.9814,-192.1757"/>
</g>
<!-- Node8 -->
<g id="node8" class="node">
<title>Node8</title>
<g id="a_node8"><a xlink:href="../../d7/d79/MinMaxFix_8hpp.html" target="_top" xlink:title=" ">
<polygon fill="#ffffff" stroke="#000000" points="512.5,-112.5 512.5,-131.5 637.5,-131.5 637.5,-112.5 512.5,-112.5"/>
<text text-anchor="middle" x="575" y="-119.5" font-family="Helvetica,sans-Serif" font-size="10.00" fill="#000000">AH/Math/MinMaxFix.hpp</text>
</a>
</g>
</g>
<!-- Node7&#45;&gt;Node8 -->
<g id="edge10" class="edge">
<title>Node7&#45;&gt;Node8</title>
<path fill="none" stroke="#191970" d="M676.0275,-168.3733C656.4433,-159.3838 627.0039,-145.8706 604.949,-135.7471"/>
<polygon fill="#191970" stroke="#191970" points="606.2473,-132.4919 595.6989,-131.5011 603.3271,-138.8538 606.2473,-132.4919"/>
</g>
<!-- Node10 -->
<g id="node10" class="node">
<title>Node10</title>
<g id="a_node10"><a xlink:title=" ">
<polygon fill="#ffffff" stroke="#bfbfbf" points="677,-.5 677,-19.5 735,-19.5 735,-.5 677,-.5"/>
<text text-anchor="middle" x="706" y="-7.5" font-family="Helvetica,sans-Serif" font-size="10.00" fill="#000000">Arduino.h</text>
</a>
</g>
</g>
<!-- Node7&#45;&gt;Node10 -->
<g id="edge17" class="edge">
<title>Node7&#45;&gt;Node10</title>
<path fill="none" stroke="#191970" d="M722.5262,-168.3698C738.1421,-160.9914 756.8289,-149.1364 766,-132 785.8987,-94.819 748.7981,-50.1128 724.5665,-26.495"/>
<polygon fill="#191970" stroke="#191970" points="726.9221,-23.9057 717.2398,-19.6042 722.1263,-29.0048 726.9221,-23.9057"/>
</g>
<!-- Node11 -->
<g id="node11" class="node">
<title>Node11</title>
<g id="a_node11"><a xlink:title=" ">
<polygon fill="#ffffff" stroke="#bfbfbf" points="655.5,-112.5 655.5,-131.5 756.5,-131.5 756.5,-112.5 655.5,-112.5"/>
<text text-anchor="middle" x="706" y="-119.5" font-family="Helvetica,sans-Serif" font-size="10.00" fill="#000000">AH/STL/type_traits</text>
</a>
</g>
</g>
<!-- Node7&#45;&gt;Node11 -->
<g id="edge16" class="edge">
<title>Node7&#45;&gt;Node11</title>
<path fill="none" stroke="#191970" d="M698.5677,-168.2455C699.7421,-160.9382 701.3884,-150.6944 702.8332,-141.7046"/>
<polygon fill="#191970" stroke="#191970" points="706.3191,-142.0714 704.4503,-131.6427 699.4078,-140.9606 706.3191,-142.0714"/>
</g>
<!-- Node8&#45;&gt;Node2 -->
<g id="edge11" class="edge">
<title>Node8&#45;&gt;Node2</title>
<path fill="none" stroke="#191970" d="M567.2414,-112.4509C551.9294,-93.6054 517.6252,-51.3849 498.1715,-27.4419"/>
<polygon fill="#191970" stroke="#191970" points="500.7613,-25.079 491.739,-19.5249 495.3285,-29.4931 500.7613,-25.079"/>
</g>
<!-- Node8&#45;&gt;Node3 -->
<g id="edge15" class="edge">
<title>Node8&#45;&gt;Node3</title>
<path fill="none" stroke="#191970" d="M543.885,-112.3733C513.6571,-103.021 467.604,-88.7725 434.5261,-78.5385"/>
<polygon fill="#191970" stroke="#191970" points="435.2967,-75.1133 424.709,-75.5011 433.2277,-81.8005 435.2967,-75.1133"/>
</g>
<!-- Node9 -->
<g id="node9" class="node">
<title>Node9</title>
<g id="a_node9"><a xlink:href="../../d6/d3b/FixArduinoMacros_8hpp.html" target="_top" xlink:title=" ">
<polygon fill="#ffffff" stroke="#000000" points="550,-56.5 550,-75.5 706,-75.5 706,-56.5 550,-56.5"/>
<text text-anchor="middle" x="628" y="-63.5" font-family="Helvetica,sans-Serif" font-size="10.00" fill="#000000">AH/Math/FixArduinoMacros.hpp</text>
</a>
</g>
</g>
<!-- Node8&#45;&gt;Node9 -->
<g id="edge12" class="edge">
<title>Node8&#45;&gt;Node9</title>
<path fill="none" stroke="#191970" d="M584.2319,-112.2455C591.8317,-104.2155 602.7877,-92.6394 611.8368,-83.0781"/>
<polygon fill="#191970" stroke="#191970" points="614.5421,-85.3115 618.8739,-75.6427 609.458,-80.4998 614.5421,-85.3115"/>
</g>
<!-- Node9&#45;&gt;Node2 -->
<g id="edge13" class="edge">
<title>Node9&#45;&gt;Node2</title>
<path fill="none" stroke="#191970" d="M603.2455,-56.3733C579.7151,-47.2226 544.1313,-33.3844 517.9574,-23.2057"/>
<polygon fill="#191970" stroke="#191970" points="519.0201,-19.8636 508.4315,-19.5011 516.4829,-26.3877 519.0201,-19.8636"/>
</g>
<!-- Node9&#45;&gt;Node10 -->
<g id="edge14" class="edge">
<title>Node9&#45;&gt;Node10</title>
<path fill="none" stroke="#191970" d="M641.5866,-56.2455C653.3305,-47.814 670.5199,-35.4729 684.1882,-25.6598"/>
<polygon fill="#191970" stroke="#191970" points="686.4871,-28.3179 692.5691,-19.6427 682.4046,-22.6316 686.4871,-28.3179"/>
</g>
<!-- Node16&#45;&gt;Node1 -->
<g id="edge27" class="edge">
<title>Node16&#45;&gt;Node1</title>
<path fill="none" stroke="#191970" d="M528.8409,-299.6427C524.2623,-307.6396 515.7252,-319.2085 507.4995,-328.7884"/>
<polygon fill="#191970" stroke="#191970" points="504.8675,-326.4806 500.7569,-336.2455 510.0598,-331.1754 504.8675,-326.4806"/>
</g>
<!-- Node16&#45;&gt;Node2 -->
<g id="edge23" class="edge">
<title>Node16&#45;&gt;Node2</title>
<path fill="none" stroke="#191970" d="M523.8617,-280.3839C510.7136,-261.6891 484,-218.6982 484,-178 484,-178 484,-178 484,-122 484,-89.7116 484,-52.1872 484,-29.8048"/>
<polygon fill="#191970" stroke="#191970" points="487.5001,-29.5883 484,-19.5884 480.5001,-29.5884 487.5001,-29.5883"/>
</g>
<!-- Node17 -->
<g id="node17" class="node">
<title>Node17</title>
<g id="a_node17"><a xlink:href="../../dd/d80/PrintStream_8hpp.html" target="_top" xlink:title=" ">
<polygon fill="#ffffff" stroke="#000000" points="617.5,-224.5 617.5,-243.5 776.5,-243.5 776.5,-224.5 617.5,-224.5"/>
<text text-anchor="middle" x="697" y="-231.5" font-family="Helvetica,sans-Serif" font-size="10.00" fill="#000000">AH/PrintStream/PrintStream.hpp</text>
</a>
</g>
</g>
<!-- Node16&#45;&gt;Node17 -->
<g id="edge24" class="edge">
<title>Node16&#45;&gt;Node17</title>
<path fill="none" stroke="#191970" d="M559.5364,-280.3733C587.0202,-271.1016 628.7686,-257.0178 659.0452,-246.804"/>
<polygon fill="#191970" stroke="#191970" points="660.4794,-250.0141 668.836,-243.5011 658.2418,-243.3813 660.4794,-250.0141"/>
</g>
<!-- Node18 -->
<g id="node18" class="node">
<title>Node18</title>
<g id="a_node18"><a xlink:href="../../d7/d52/DebugVal_8hpp.html" target="_top" xlink:title=" ">
<polygon fill="#ffffff" stroke="#000000" points="512,-224.5 512,-243.5 590,-243.5 590,-224.5 512,-224.5"/>
<text text-anchor="middle" x="551" y="-231.5" font-family="Helvetica,sans-Serif" font-size="10.00" fill="#000000">DebugVal.hpp</text>
</a>
</g>
</g>
<!-- Node16&#45;&gt;Node18 -->
<g id="edge28" class="edge">
<title>Node16&#45;&gt;Node18</title>
<path fill="none" stroke="#191970" d="M534.4837,-280.2455C537.1508,-272.7776 540.9133,-262.2427 544.1737,-253.1137"/>
<polygon fill="#191970" stroke="#191970" points="547.4889,-254.2373 547.5562,-243.6427 540.8967,-251.8829 547.4889,-254.2373"/>
</g>
<!-- Node17&#45;&gt;Node2 -->
<g id="edge25" class="edge">
<title>Node17&#45;&gt;Node2</title>
<path fill="none" stroke="#191970" d="M720.1668,-224.4247C735.181,-216.8933 753.6276,-204.842 763,-188 793.3553,-133.4524 769.3487,-86.71 715,-56 688.9719,-41.2927 617.3154,-28.3792 560.6455,-20.0085"/>
<polygon fill="#191970" stroke="#191970" points="561.0126,-16.5251 550.6131,-18.5504 560.0057,-23.4524 561.0126,-16.5251"/>
</g>
<!-- Node17&#45;&gt;Node7 -->
<g id="edge26" class="edge">
<title>Node17&#45;&gt;Node7</title>
<path fill="none" stroke="#191970" d="M697,-224.2455C697,-216.9382 697,-206.6944 697,-197.7046"/>
<polygon fill="#191970" stroke="#191970" points="700.5001,-197.6426 697,-187.6427 693.5001,-197.6427 700.5001,-197.6426"/>
</g>
</g>
</svg>
