<?xml version="1.0" encoding="UTF-8" standalone="no"?>
<!DOCTYPE svg PUBLIC "-//W3C//DTD SVG 1.1//EN"
 "http://www.w3.org/Graphics/SVG/1.1/DTD/svg11.dtd">
<!-- Generated by graphviz version 2.43.0 (0)
 -->
<!-- Title: Hardware&#45;Types.hpp Pages: 1 -->
<svg width="899pt" height="588pt"
 viewBox="0.00 0.00 898.78 588.00" xmlns="http://www.w3.org/2000/svg" xmlns:xlink="http://www.w3.org/1999/xlink">
<g id="graph0" class="graph" transform="scale(1 1) rotate(0) translate(4 584)">
<title>Hardware&#45;Types.hpp</title>
<polygon fill="white" stroke="transparent" points="-4,4 -4,-584 894.78,-584 894.78,4 -4,4"/>
<!-- Node1 -->
<g id="node1" class="node">
<title>Node1</title>
<g id="a_node1"><a xlink:title=" ">
<polygon fill="#bfbfbf" stroke="black" points="605.78,-560.5 605.78,-579.5 721.78,-579.5 721.78,-560.5 605.78,-560.5"/>
<text text-anchor="middle" x="663.78" y="-567.5" font-family="Helvetica,sans-Serif" font-size="10.00">Hardware&#45;Types.hpp</text>
</a>
</g>
</g>
<!-- Node2 -->
<g id="node2" class="node">
<title>Node2</title>
<g id="a_node2"><a xlink:href="../../d1/d65/Warnings_8hpp.html" target="_top" xlink:title=" ">
<polygon fill="white" stroke="black" points="576.28,-0.5 576.28,-19.5 719.28,-19.5 719.28,-0.5 576.28,-0.5"/>
<text text-anchor="middle" x="647.78" y="-7.5" font-family="Helvetica,sans-Serif" font-size="10.00">AH/Settings/Warnings.hpp</text>
</a>
</g>
</g>
<!-- Node1&#45;&gt;Node2 -->
<g id="edge1" class="edge">
<title>Node1&#45;&gt;Node2</title>
<path fill="none" stroke="midnightblue" d="M721.95,-565.47C789.2,-557.88 890.78,-534 890.78,-459 890.78,-459 890.78,-459 890.78,-121 890.78,-48.61 800.19,-23.61 729.63,-15.12"/>
<polygon fill="midnightblue" stroke="midnightblue" points="729.7,-11.61 719.38,-13.98 728.93,-18.56 729.7,-11.61"/>
</g>
<!-- Node3 -->
<g id="node3" class="node">
<title>Node3</title>
<g id="a_node3"><a xlink:href="../../de/d76/Array_8hpp.html" target="_top" xlink:title=" ">
<polygon fill="white" stroke="black" points="303.28,-504.5 303.28,-523.5 438.28,-523.5 438.28,-504.5 303.28,-504.5"/>
<text text-anchor="middle" x="370.78" y="-511.5" font-family="Helvetica,sans-Serif" font-size="10.00">AH/Containers/Array.hpp</text>
</a>
</g>
</g>
<!-- Node1&#45;&gt;Node3 -->
<g id="edge2" class="edge">
<title>Node1&#45;&gt;Node3</title>
<path fill="none" stroke="midnightblue" d="M617.36,-560.44C565.71,-550.92 482.27,-535.55 426.98,-525.36"/>
<polygon fill="midnightblue" stroke="midnightblue" points="427.46,-521.89 416.99,-523.52 426.19,-528.77 427.46,-521.89"/>
</g>
<!-- Node7 -->
<g id="node7" class="node">
<title>Node7</title>
<g id="a_node7"><a xlink:href="../../dc/dc7/NamespaceSettings_8hpp.html" target="_top" xlink:title=" ">
<polygon fill="white" stroke="black" points="141.28,-56.5 141.28,-75.5 336.28,-75.5 336.28,-56.5 141.28,-56.5"/>
<text text-anchor="middle" x="238.78" y="-63.5" font-family="Helvetica,sans-Serif" font-size="10.00">AH/Settings/NamespaceSettings.hpp</text>
</a>
</g>
</g>
<!-- Node1&#45;&gt;Node7 -->
<g id="edge38" class="edge">
<title>Node1&#45;&gt;Node7</title>
<path fill="none" stroke="midnightblue" d="M605.53,-565.44C443.74,-554.79 0.78,-520.04 0.78,-459 0.78,-459 0.78,-459 0.78,-177 0.78,-146.9 -2.35,-132.4 19.78,-112 38.05,-95.17 92.78,-83.92 142.95,-76.88"/>
<polygon fill="midnightblue" stroke="midnightblue" points="143.47,-80.34 152.91,-75.53 142.53,-73.4 143.47,-80.34"/>
</g>
<!-- Node19 -->
<g id="node19" class="node">
<title>Node19</title>
<g id="a_node19"><a xlink:title=" ">
<polygon fill="white" stroke="#bfbfbf" points="733.28,-224.5 733.28,-243.5 786.28,-243.5 786.28,-224.5 733.28,-224.5"/>
<text text-anchor="middle" x="759.78" y="-231.5" font-family="Helvetica,sans-Serif" font-size="10.00">stdint.h</text>
</a>
</g>
</g>
<!-- Node1&#45;&gt;Node19 -->
<g id="edge39" class="edge">
<title>Node1&#45;&gt;Node19</title>
<path fill="none" stroke="midnightblue" d="M674.81,-560.23C701.1,-538.5 767.04,-479.09 790.78,-412 810.6,-356 783.79,-285.4 768.75,-252.88"/>
<polygon fill="midnightblue" stroke="midnightblue" points="771.84,-251.23 764.36,-243.73 765.53,-254.26 771.84,-251.23"/>
</g>
<!-- Node3&#45;&gt;Node2 -->
<g id="edge3" class="edge">
<title>Node3&#45;&gt;Node2</title>
<path fill="none" stroke="midnightblue" d="M438.31,-511.87C570.96,-505.69 852.78,-471.34 852.78,-291 852.78,-291 852.78,-291 852.78,-121 852.78,-61.63 785.19,-34.17 727.63,-21.55"/>
<polygon fill="midnightblue" stroke="midnightblue" points="728.26,-18.11 717.76,-19.51 726.84,-24.96 728.26,-18.11"/>
</g>
<!-- Node4 -->
<g id="node4" class="node">
<title>Node4</title>
<g id="a_node4"><a xlink:href="../../d1/d93/Error_8hpp.html" target="_top" xlink:title=" ">
<polygon fill="white" stroke="black" points="423.78,-448.5 423.78,-467.5 527.78,-467.5 527.78,-448.5 423.78,-448.5"/>
<text text-anchor="middle" x="475.78" y="-455.5" font-family="Helvetica,sans-Serif" font-size="10.00">AH/Error/Error.hpp</text>
</a>
</g>
</g>
<!-- Node3&#45;&gt;Node4 -->
<g id="edge4" class="edge">
<title>Node3&#45;&gt;Node4</title>
<path fill="none" stroke="midnightblue" d="M387.65,-504.32C404.49,-495.66 430.59,-482.24 450.02,-472.25"/>
<polygon fill="midnightblue" stroke="midnightblue" points="451.66,-475.34 458.96,-467.65 448.46,-469.12 451.66,-475.34"/>
</g>
<!-- Node12 -->
<g id="node12" class="node">
<title>Node12</title>
<g id="a_node12"><a xlink:title=" ">
<polygon fill="white" stroke="#bfbfbf" points="29.28,-112.5 29.28,-131.5 136.28,-131.5 136.28,-112.5 29.28,-112.5"/>
<text text-anchor="middle" x="82.78" y="-119.5" font-family="Helvetica,sans-Serif" font-size="10.00">AH/STL/type_traits</text>
</a>
</g>
</g>
<!-- Node3&#45;&gt;Node12 -->
<g id="edge36" class="edge">
<title>Node3&#45;&gt;Node12</title>
<path fill="none" stroke="midnightblue" d="M348.31,-504.35C329.15,-496.42 301.37,-483.56 279.78,-468 166.08,-386.04 111.13,-373.62 57.78,-244 43.35,-208.94 60.77,-164.61 72.93,-140.53"/>
<polygon fill="midnightblue" stroke="midnightblue" points="76.11,-142 77.71,-131.53 69.93,-138.72 76.11,-142"/>
</g>
<!-- Node18 -->
<g id="node18" class="node">
<title>Node18</title>
<g id="a_node18"><a xlink:title=" ">
<polygon fill="white" stroke="#bfbfbf" points="258.78,-224.5 258.78,-243.5 314.78,-243.5 314.78,-224.5 258.78,-224.5"/>
<text text-anchor="middle" x="286.78" y="-231.5" font-family="Helvetica,sans-Serif" font-size="10.00">stddef.h</text>
</a>
</g>
</g>
<!-- Node3&#45;&gt;Node18 -->
<g id="edge37" class="edge">
<title>Node3&#45;&gt;Node18</title>
<path fill="none" stroke="midnightblue" d="M352.67,-504.3C322.87,-488.57 266.78,-452.41 266.78,-403 266.78,-403 266.78,-403 266.78,-345 266.78,-312.44 275.37,-275.32 281.29,-253.59"/>
<polygon fill="midnightblue" stroke="midnightblue" points="284.73,-254.32 284.09,-243.74 277.99,-252.41 284.73,-254.32"/>
</g>
<!-- Node21 -->
<g id="node21" class="node">
<title>Node21</title>
<g id="a_node21"><a xlink:title=" ">
<polygon fill="white" stroke="#bfbfbf" points="28.78,-448.5 28.78,-467.5 118.78,-467.5 118.78,-448.5 28.78,-448.5"/>
<text text-anchor="middle" x="73.78" y="-455.5" font-family="Helvetica,sans-Serif" font-size="10.00">AH/STL/iterator</text>
</a>
</g>
</g>
<!-- Node3&#45;&gt;Node21 -->
<g id="edge35" class="edge">
<title>Node3&#45;&gt;Node21</title>
<path fill="none" stroke="midnightblue" d="M323.72,-504.44C270.91,-494.84 185.3,-479.28 129.27,-469.09"/>
<polygon fill="midnightblue" stroke="midnightblue" points="129.63,-465.6 119.16,-467.25 128.38,-472.48 129.63,-465.6"/>
</g>
<!-- Node4&#45;&gt;Node2 -->
<g id="edge5" class="edge">
<title>Node4&#45;&gt;Node2</title>
<path fill="none" stroke="midnightblue" d="M505.87,-448.42C588.83,-422.7 814.78,-338.08 814.78,-179 814.78,-179 814.78,-179 814.78,-121 814.78,-65.3 749.18,-36.21 700.21,-22.25"/>
<polygon fill="midnightblue" stroke="midnightblue" points="700.92,-18.82 690.36,-19.58 699.09,-25.58 700.92,-18.82"/>
</g>
<!-- Node5 -->
<g id="node5" class="node">
<title>Node5</title>
<g id="a_node5"><a xlink:href="../../df/dee/Debug_8hpp.html" target="_top" xlink:title=" ">
<polygon fill="white" stroke="black" points="415.28,-392.5 415.28,-411.5 536.28,-411.5 536.28,-392.5 415.28,-392.5"/>
<text text-anchor="middle" x="475.78" y="-399.5" font-family="Helvetica,sans-Serif" font-size="10.00">AH/Debug/Debug.hpp</text>
</a>
</g>
</g>
<!-- Node4&#45;&gt;Node5 -->
<g id="edge6" class="edge">
<title>Node4&#45;&gt;Node5</title>
<path fill="none" stroke="midnightblue" d="M475.78,-448.08C475.78,-441.01 475.78,-430.86 475.78,-421.99"/>
<polygon fill="midnightblue" stroke="midnightblue" points="479.28,-421.75 475.78,-411.75 472.28,-421.75 479.28,-421.75"/>
</g>
<!-- Node5&#45;&gt;Node2 -->
<g id="edge7" class="edge">
<title>Node5&#45;&gt;Node2</title>
<path fill="none" stroke="midnightblue" d="M536.34,-394.68C594.43,-385.04 679.15,-360.8 719.78,-300 724.72,-292.61 720.44,-288.86 719.78,-280 716.44,-234.74 704.78,-224.38 704.78,-179 704.78,-179 704.78,-179 704.78,-121 704.78,-84.3 679.46,-47.66 662.57,-27.3"/>
<polygon fill="midnightblue" stroke="midnightblue" points="665.13,-24.9 655.95,-19.62 659.83,-29.48 665.13,-24.9"/>
</g>
<!-- Node6 -->
<g id="node6" class="node">
<title>Node6</title>
<g id="a_node6"><a xlink:href="../../dd/d80/PrintStream_8hpp.html" target="_top" xlink:title=" ">
<polygon fill="white" stroke="black" points="67.28,-224.5 67.28,-243.5 240.28,-243.5 240.28,-224.5 67.28,-224.5"/>
<text text-anchor="middle" x="153.78" y="-231.5" font-family="Helvetica,sans-Serif" font-size="10.00">AH/PrintStream/PrintStream.hpp</text>
</a>
</g>
</g>
<!-- Node5&#45;&gt;Node6 -->
<g id="edge8" class="edge">
<title>Node5&#45;&gt;Node6</title>
<path fill="none" stroke="midnightblue" d="M456.08,-392.4C436.17,-383.61 404.59,-369.38 377.78,-356 303.82,-319.09 218.39,-271.54 177.71,-248.59"/>
<polygon fill="midnightblue" stroke="midnightblue" points="179.24,-245.43 168.82,-243.56 175.8,-251.53 179.24,-245.43"/>
</g>
<!-- Node13 -->
<g id="node13" class="node">
<title>Node13</title>
<g id="a_node13"><a xlink:href="../../d2/dd5/SettingsWrapper_8hpp.html" target="_top" xlink:title=" ">
<polygon fill="white" stroke="black" points="386.78,-336.5 386.78,-355.5 564.78,-355.5 564.78,-336.5 386.78,-336.5"/>
<text text-anchor="middle" x="475.78" y="-343.5" font-family="Helvetica,sans-Serif" font-size="10.00">AH/Settings/SettingsWrapper.hpp</text>
</a>
</g>
</g>
<!-- Node5&#45;&gt;Node13 -->
<g id="edge20" class="edge">
<title>Node5&#45;&gt;Node13</title>
<path fill="none" stroke="midnightblue" d="M470.62,-392.08C469.11,-384.93 468.68,-374.64 469.33,-365.69"/>
<polygon fill="midnightblue" stroke="midnightblue" points="472.8,-366.13 470.65,-355.75 465.86,-365.2 472.8,-366.13"/>
</g>
<!-- Node6&#45;&gt;Node2 -->
<g id="edge10" class="edge">
<title>Node6&#45;&gt;Node2</title>
<path fill="none" stroke="midnightblue" d="M128.75,-224.38C81.73,-206.76 -12.27,-163.86 19.78,-112 49.04,-64.66 78.23,-71.13 131.78,-56 211.11,-33.59 441.49,-20.2 565.86,-14.4"/>
<polygon fill="midnightblue" stroke="midnightblue" points="566.26,-17.89 576.09,-13.93 565.94,-10.89 566.26,-17.89"/>
</g>
<!-- Node6&#45;&gt;Node7 -->
<g id="edge9" class="edge">
<title>Node6&#45;&gt;Node7</title>
<path fill="none" stroke="midnightblue" d="M157.12,-224.45C162.11,-211.9 171.96,-187.82 181.78,-168 196.69,-137.93 216.36,-104.19 228.26,-84.31"/>
<polygon fill="midnightblue" stroke="midnightblue" points="231.26,-86.12 233.43,-75.74 225.27,-82.5 231.26,-86.12"/>
</g>
<!-- Node8 -->
<g id="node8" class="node">
<title>Node8</title>
<g id="a_node8"><a xlink:href="../../d6/ddf/Arduino-Wrapper_8h.html" target="_top" xlink:title=" ">
<polygon fill="white" stroke="black" points="190.78,-168.5 190.78,-187.5 314.78,-187.5 314.78,-168.5 190.78,-168.5"/>
<text text-anchor="middle" x="252.78" y="-175.5" font-family="Helvetica,sans-Serif" font-size="10.00">AH/Arduino&#45;Wrapper.h</text>
</a>
</g>
</g>
<!-- Node6&#45;&gt;Node8 -->
<g id="edge11" class="edge">
<title>Node6&#45;&gt;Node8</title>
<path fill="none" stroke="midnightblue" d="M169.69,-224.32C185.42,-215.74 209.73,-202.49 227.99,-192.52"/>
<polygon fill="midnightblue" stroke="midnightblue" points="229.81,-195.52 236.92,-187.65 226.46,-189.37 229.81,-195.52"/>
</g>
<!-- Node9 -->
<g id="node9" class="node">
<title>Node9</title>
<g id="a_node9"><a xlink:href="../../d7/d79/MinMaxFix_8hpp.html" target="_top" xlink:title=" ">
<polygon fill="white" stroke="black" points="312.78,-112.5 312.78,-131.5 448.78,-131.5 448.78,-112.5 312.78,-112.5"/>
<text text-anchor="middle" x="380.78" y="-119.5" font-family="Helvetica,sans-Serif" font-size="10.00">AH/Math/MinMaxFix.hpp</text>
</a>
</g>
</g>
<!-- Node8&#45;&gt;Node9 -->
<g id="edge12" class="edge">
<title>Node8&#45;&gt;Node9</title>
<path fill="none" stroke="midnightblue" d="M273.07,-168.44C294.13,-159.56 327.3,-145.56 351.27,-135.45"/>
<polygon fill="midnightblue" stroke="midnightblue" points="352.74,-138.63 360.6,-131.52 350.02,-132.18 352.74,-138.63"/>
</g>
<!-- Node11 -->
<g id="node11" class="node">
<title>Node11</title>
<g id="a_node11"><a xlink:title=" ">
<polygon fill="white" stroke="#bfbfbf" points="226.28,-0.5 226.28,-19.5 289.28,-19.5 289.28,-0.5 226.28,-0.5"/>
<text text-anchor="middle" x="257.78" y="-7.5" font-family="Helvetica,sans-Serif" font-size="10.00">Arduino.h</text>
</a>
</g>
</g>
<!-- Node8&#45;&gt;Node11 -->
<g id="edge19" class="edge">
<title>Node8&#45;&gt;Node11</title>
<path fill="none" stroke="midnightblue" d="M234.52,-168.35C206.29,-153.83 153.12,-121.6 131.78,-76 128.02,-67.95 126.66,-63.27 131.78,-56 150.67,-29.2 187.04,-18.27 215.87,-13.86"/>
<polygon fill="midnightblue" stroke="midnightblue" points="216.65,-17.29 226.1,-12.51 215.73,-10.35 216.65,-17.29"/>
</g>
<!-- Node8&#45;&gt;Node12 -->
<g id="edge18" class="edge">
<title>Node8&#45;&gt;Node12</title>
<path fill="none" stroke="midnightblue" d="M225.85,-168.44C197.12,-159.32 151.45,-144.81 119.46,-134.65"/>
<polygon fill="midnightblue" stroke="midnightblue" points="120.18,-131.21 109.59,-131.52 118.07,-137.88 120.18,-131.21"/>
</g>
<!-- Node9&#45;&gt;Node2 -->
<g id="edge13" class="edge">
<title>Node9&#45;&gt;Node2</title>
<path fill="none" stroke="midnightblue" d="M418.73,-112.45C450.22,-104.74 495.82,-92.15 533.78,-76 567.54,-61.64 603.93,-39.64 626.28,-25.28"/>
<polygon fill="midnightblue" stroke="midnightblue" points="628.48,-28.02 634.96,-19.64 624.67,-22.16 628.48,-28.02"/>
</g>
<!-- Node9&#45;&gt;Node7 -->
<g id="edge17" class="edge">
<title>Node9&#45;&gt;Node7</title>
<path fill="none" stroke="midnightblue" d="M358.28,-112.44C334.71,-103.48 297.46,-89.31 270.82,-79.18"/>
<polygon fill="midnightblue" stroke="midnightblue" points="271.77,-75.8 261.18,-75.52 269.28,-82.34 271.77,-75.8"/>
</g>
<!-- Node10 -->
<g id="node10" class="node">
<title>Node10</title>
<g id="a_node10"><a xlink:href="../../d6/d3b/FixArduinoMacros_8hpp.html" target="_top" xlink:title=" ">
<polygon fill="white" stroke="black" points="354.78,-56.5 354.78,-75.5 524.78,-75.5 524.78,-56.5 354.78,-56.5"/>
<text text-anchor="middle" x="439.78" y="-63.5" font-family="Helvetica,sans-Serif" font-size="10.00">AH/Math/FixArduinoMacros.hpp</text>
</a>
</g>
</g>
<!-- Node9&#45;&gt;Node10 -->
<g id="edge14" class="edge">
<title>Node9&#45;&gt;Node10</title>
<path fill="none" stroke="midnightblue" d="M390.26,-112.32C398.98,-104.34 412.13,-92.31 422.68,-82.65"/>
<polygon fill="midnightblue" stroke="midnightblue" points="425.12,-85.17 430.13,-75.83 420.39,-80 425.12,-85.17"/>
</g>
<!-- Node10&#45;&gt;Node2 -->
<g id="edge15" class="edge">
<title>Node10&#45;&gt;Node2</title>
<path fill="none" stroke="midnightblue" d="M472.74,-56.44C508.57,-47.14 565.95,-32.25 605.17,-22.06"/>
<polygon fill="midnightblue" stroke="midnightblue" points="606.18,-25.42 614.98,-19.52 604.42,-18.64 606.18,-25.42"/>
</g>
<!-- Node10&#45;&gt;Node11 -->
<g id="edge16" class="edge">
<title>Node10&#45;&gt;Node11</title>
<path fill="none" stroke="midnightblue" d="M410.95,-56.44C379.93,-47.24 330.45,-32.56 296.17,-22.39"/>
<polygon fill="midnightblue" stroke="midnightblue" points="297.07,-19.01 286.49,-19.52 295.08,-25.72 297.07,-19.01"/>
</g>
<!-- Node13&#45;&gt;Node2 -->
<g id="edge21" class="edge">
<title>Node13&#45;&gt;Node2</title>
<path fill="none" stroke="midnightblue" d="M480.46,-336.46C488.5,-322.56 506.28,-295.07 528.78,-280 574.69,-249.25 608.9,-283.25 647.78,-244 668.97,-222.62 666.78,-209.1 666.78,-179 666.78,-179 666.78,-179 666.78,-121 666.78,-88.49 658.62,-51.35 653,-29.61"/>
<polygon fill="midnightblue" stroke="midnightblue" points="656.32,-28.5 650.35,-19.75 649.57,-30.32 656.32,-28.5"/>
</g>
<!-- Node13&#45;&gt;Node5 -->
<g id="edge34" class="edge">
<title>Node13&#45;&gt;Node5</title>
<path fill="none" stroke="midnightblue" d="M480.91,-355.75C482.44,-362.86 482.89,-373.14 482.26,-382.1"/>
<polygon fill="midnightblue" stroke="midnightblue" points="478.78,-381.71 480.95,-392.08 485.72,-382.62 478.78,-381.71"/>
</g>
<!-- Node13&#45;&gt;Node7 -->
<g id="edge22" class="edge">
<title>Node13&#45;&gt;Node7</title>
<path fill="none" stroke="midnightblue" d="M453.02,-336.36C435.49,-328.82 411.49,-316.51 394.78,-300 347.4,-253.18 360.67,-223.47 323.78,-168 302.35,-135.77 272.21,-102.11 254.17,-82.93"/>
<polygon fill="midnightblue" stroke="midnightblue" points="256.67,-80.48 247.24,-75.65 251.6,-85.31 256.67,-80.48"/>
</g>
<!-- Node14 -->
<g id="node14" class="node">
<title>Node14</title>
<g id="a_node14"><a xlink:href="../../db/d02/Settings_8hpp.html" target="_top" xlink:title="All user settings and debugging options can be changed here.">
<polygon fill="white" stroke="black" points="403.28,-280.5 403.28,-299.5 480.28,-299.5 480.28,-280.5 403.28,-280.5"/>
<text text-anchor="middle" x="441.78" y="-287.5" font-family="Helvetica,sans-Serif" font-size="10.00">Settings.hpp</text>
</a>
</g>
</g>
<!-- Node13&#45;&gt;Node14 -->
<g id="edge23" class="edge">
<title>Node13&#45;&gt;Node14</title>
<path fill="none" stroke="midnightblue" d="M470.17,-336.08C465.42,-328.53 458.47,-317.49 452.63,-308.23"/>
<polygon fill="midnightblue" stroke="midnightblue" points="455.58,-306.35 447.29,-299.75 449.66,-310.08 455.58,-306.35"/>
</g>
<!-- Node20 -->
<g id="node20" class="node">
<title>Node20</title>
<g id="a_node20"><a xlink:href="../../d9/d98/TeensyUSBTypes_8hpp.html" target="_top" xlink:title=" ">
<polygon fill="white" stroke="black" points="537.28,-280.5 537.28,-299.5 710.28,-299.5 710.28,-280.5 537.28,-280.5"/>
<text text-anchor="middle" x="623.78" y="-287.5" font-family="Helvetica,sans-Serif" font-size="10.00">AH/Teensy/TeensyUSBTypes.hpp</text>
</a>
</g>
</g>
<!-- Node13&#45;&gt;Node20 -->
<g id="edge33" class="edge">
<title>Node13&#45;&gt;Node20</title>
<path fill="none" stroke="midnightblue" d="M499.23,-336.44C523.92,-327.44 562.97,-313.19 590.76,-303.05"/>
<polygon fill="midnightblue" stroke="midnightblue" points="592.25,-306.23 600.44,-299.52 589.85,-299.66 592.25,-306.23"/>
</g>
<!-- Node15 -->
<g id="node15" class="node">
<title>Node15</title>
<g id="a_node15"><a xlink:href="../../dc/d50/Frequency_8hpp.html" target="_top" xlink:title=" ">
<polygon fill="white" stroke="black" points="466.78,-112.5 466.78,-131.5 600.78,-131.5 600.78,-112.5 466.78,-112.5"/>
<text text-anchor="middle" x="533.78" y="-119.5" font-family="Helvetica,sans-Serif" font-size="10.00">AH/Types/Frequency.hpp</text>
</a>
</g>
</g>
<!-- Node14&#45;&gt;Node15 -->
<g id="edge24" class="edge">
<title>Node14&#45;&gt;Node15</title>
<path fill="none" stroke="midnightblue" d="M480.3,-281.41C501.14,-275.13 525.14,-263.88 537.78,-244 557.72,-212.63 548.21,-166.87 540.42,-141.56"/>
<polygon fill="midnightblue" stroke="midnightblue" points="543.64,-140.17 537.17,-131.78 537,-142.37 543.64,-140.17"/>
</g>
<!-- Node16 -->
<g id="node16" class="node">
<title>Node16</title>
<g id="a_node16"><a xlink:href="../../d7/d7c/ADCConfig_8hpp.html" target="_top" xlink:title="This file contains the platform&#45;specific ADC resolutions.">
<polygon fill="white" stroke="black" points="371.28,-224.5 371.28,-243.5 528.28,-243.5 528.28,-224.5 371.28,-224.5"/>
<text text-anchor="middle" x="449.78" y="-231.5" font-family="Helvetica,sans-Serif" font-size="10.00">AH/Hardware/ADCConfig.hpp</text>
</a>
</g>
</g>
<!-- Node14&#45;&gt;Node16 -->
<g id="edge27" class="edge">
<title>Node14&#45;&gt;Node16</title>
<path fill="none" stroke="midnightblue" d="M443.1,-280.08C444.16,-272.93 445.69,-262.64 447.01,-253.69"/>
<polygon fill="midnightblue" stroke="midnightblue" points="450.48,-254.16 448.49,-243.75 443.56,-253.13 450.48,-254.16"/>
</g>
<!-- Node17 -->
<g id="node17" class="node">
<title>Node17</title>
<g id="a_node17"><a xlink:title=" ">
<polygon fill="white" stroke="#bfbfbf" points="585.28,-224.5 585.28,-243.5 638.28,-243.5 638.28,-224.5 585.28,-224.5"/>
<text text-anchor="middle" x="611.78" y="-231.5" font-family="Helvetica,sans-Serif" font-size="10.00">limits.h</text>
</a>
</g>
</g>
<!-- Node14&#45;&gt;Node17 -->
<g id="edge30" class="edge">
<title>Node14&#45;&gt;Node17</title>
<path fill="none" stroke="midnightblue" d="M468.72,-280.44C497.53,-271.29 543.38,-256.73 575.39,-246.56"/>
<polygon fill="midnightblue" stroke="midnightblue" points="576.78,-249.79 585.25,-243.43 574.66,-243.12 576.78,-249.79"/>
</g>
<!-- Node14&#45;&gt;Node18 -->
<g id="edge31" class="edge">
<title>Node14&#45;&gt;Node18</title>
<path fill="none" stroke="midnightblue" d="M417.22,-280.44C391.26,-271.4 350.12,-257.06 320.99,-246.92"/>
<polygon fill="midnightblue" stroke="midnightblue" points="321.82,-243.5 311.23,-243.52 319.52,-250.11 321.82,-243.5"/>
</g>
<!-- Node14&#45;&gt;Node19 -->
<g id="edge32" class="edge">
<title>Node14&#45;&gt;Node19</title>
<path fill="none" stroke="midnightblue" d="M480.46,-282.43C542.26,-271.94 662.49,-251.52 723.05,-241.24"/>
<polygon fill="midnightblue" stroke="midnightblue" points="723.66,-244.68 732.93,-239.56 722.49,-237.78 723.66,-244.68"/>
</g>
<!-- Node15&#45;&gt;Node2 -->
<g id="edge25" class="edge">
<title>Node15&#45;&gt;Node2</title>
<path fill="none" stroke="midnightblue" d="M542.73,-112.37C561.88,-93.89 607.06,-50.29 631.47,-26.74"/>
<polygon fill="midnightblue" stroke="midnightblue" points="634.11,-29.05 638.88,-19.59 629.25,-24.02 634.11,-29.05"/>
</g>
<!-- Node15&#45;&gt;Node7 -->
<g id="edge26" class="edge">
<title>Node15&#45;&gt;Node7</title>
<path fill="none" stroke="midnightblue" d="M487.04,-112.44C435.04,-102.92 351.03,-87.55 295.36,-77.36"/>
<polygon fill="midnightblue" stroke="midnightblue" points="295.78,-73.87 285.31,-75.52 294.51,-80.76 295.78,-73.87"/>
</g>
<!-- Node16&#45;&gt;Node2 -->
<g id="edge28" class="edge">
<title>Node16&#45;&gt;Node2</title>
<path fill="none" stroke="midnightblue" d="M473.02,-224.44C507.83,-210.44 573.32,-179.38 609.78,-132 633.54,-101.13 642.61,-55.14 645.95,-29.67"/>
<polygon fill="midnightblue" stroke="midnightblue" points="649.45,-29.88 647.11,-19.54 642.49,-29.08 649.45,-29.88"/>
</g>
<!-- Node16&#45;&gt;Node8 -->
<g id="edge29" class="edge">
<title>Node16&#45;&gt;Node8</title>
<path fill="none" stroke="midnightblue" d="M418.57,-224.44C384.85,-215.2 330.98,-200.44 293.85,-190.26"/>
<polygon fill="midnightblue" stroke="midnightblue" points="294.42,-186.78 283.85,-187.52 292.57,-193.54 294.42,-186.78"/>
</g>
</g>
</svg>
