<?xml version="1.0" encoding="UTF-8" standalone="no"?>
<!DOCTYPE svg PUBLIC "-//W3C//DTD SVG 1.1//EN"
 "http://www.w3.org/Graphics/SVG/1.1/DTD/svg11.dtd">
<!-- Generated by graphviz version 2.43.0 (0)
 -->
<!-- Title: Butterworth.hpp Pages: 1 -->
<svg width="918pt" height="756pt"
 viewBox="0.00 0.00 917.88 756.00" xmlns="http://www.w3.org/2000/svg" xmlns:xlink="http://www.w3.org/1999/xlink">
<g id="graph0" class="graph" transform="scale(1 1) rotate(0) translate(4 752)">
<title>Butterworth.hpp</title>
<polygon fill="white" stroke="transparent" points="-4,4 -4,-752 913.88,-752 913.88,4 -4,4"/>
<!-- Node1 -->
<g id="node1" class="node">
<title>Node1</title>
<g id="a_node1"><a xlink:title=" ">
<polygon fill="#bfbfbf" stroke="black" points="343.5,-728.5 343.5,-747.5 438.5,-747.5 438.5,-728.5 343.5,-728.5"/>
<text text-anchor="middle" x="391" y="-735.5" font-family="Helvetica,sans-Serif" font-size="10.00">Butterworth.hpp</text>
</a>
</g>
</g>
<!-- Node2 -->
<g id="node2" class="node">
<title>Node2</title>
<g id="a_node2"><a xlink:title=" ">
<polygon fill="white" stroke="#bfbfbf" points="396.5,-560.5 396.5,-579.5 481.5,-579.5 481.5,-560.5 396.5,-560.5"/>
<text text-anchor="middle" x="439" y="-567.5" font-family="Helvetica,sans-Serif" font-size="10.00">AH/STL/cmath</text>
</a>
</g>
</g>
<!-- Node1&#45;&gt;Node2 -->
<g id="edge1" class="edge">
<title>Node1&#45;&gt;Node2</title>
<path fill="none" stroke="midnightblue" d="M396.58,-728.39C402.05,-719.58 410.24,-705.34 415,-692 427.49,-657 434.08,-613.86 437.02,-589.69"/>
<polygon fill="midnightblue" stroke="midnightblue" points="440.5,-590.07 438.16,-579.74 433.55,-589.28 440.5,-590.07"/>
</g>
<!-- Node3 -->
<g id="node3" class="node">
<title>Node3</title>
<g id="a_node3"><a xlink:href="../../df/ddc/SOSFilter_8hpp.html" target="_top" xlink:title=" ">
<polygon fill="white" stroke="black" points="292,-672.5 292,-691.5 406,-691.5 406,-672.5 292,-672.5"/>
<text text-anchor="middle" x="349" y="-679.5" font-family="Helvetica,sans-Serif" font-size="10.00">Filters/SOSFilter.hpp</text>
</a>
</g>
</g>
<!-- Node1&#45;&gt;Node3 -->
<g id="edge2" class="edge">
<title>Node1&#45;&gt;Node3</title>
<path fill="none" stroke="midnightblue" d="M384.06,-728.08C378.07,-720.38 369.25,-709.03 361.95,-699.65"/>
<polygon fill="midnightblue" stroke="midnightblue" points="364.71,-697.5 355.81,-691.75 359.18,-701.79 364.71,-697.5"/>
</g>
<!-- Node4 -->
<g id="node4" class="node">
<title>Node4</title>
<g id="a_node4"><a xlink:href="../../d5/db6/ArrayHelpers_8hpp.html" target="_top" xlink:title=" ">
<polygon fill="white" stroke="black" points="88,-560.5 88,-579.5 262,-579.5 262,-560.5 88,-560.5"/>
<text text-anchor="middle" x="175" y="-567.5" font-family="Helvetica,sans-Serif" font-size="10.00">AH/Containers/ArrayHelpers.hpp</text>
</a>
</g>
</g>
<!-- Node3&#45;&gt;Node4 -->
<g id="edge3" class="edge">
<title>Node3&#45;&gt;Node4</title>
<path fill="none" stroke="midnightblue" d="M335.35,-672.37C305.36,-653.41 233.53,-608 197.05,-584.94"/>
<polygon fill="midnightblue" stroke="midnightblue" points="198.91,-581.98 188.59,-579.59 195.17,-587.89 198.91,-581.98"/>
</g>
<!-- Node26 -->
<g id="node26" class="node">
<title>Node26</title>
<g id="a_node26"><a xlink:href="../../d1/dde/BiQuad_8hpp.html" target="_top" xlink:title=" ">
<polygon fill="white" stroke="black" points="462,-616.5 462,-635.5 568,-635.5 568,-616.5 462,-616.5"/>
<text text-anchor="middle" x="515" y="-623.5" font-family="Helvetica,sans-Serif" font-size="10.00">Filters/BiQuad.hpp</text>
</a>
</g>
</g>
<!-- Node3&#45;&gt;Node26 -->
<g id="edge43" class="edge">
<title>Node3&#45;&gt;Node26</title>
<path fill="none" stroke="midnightblue" d="M375.3,-672.44C403.35,-663.32 447.94,-648.81 479.18,-638.65"/>
<polygon fill="midnightblue" stroke="midnightblue" points="480.39,-641.94 488.82,-635.52 478.23,-635.28 480.39,-641.94"/>
</g>
<!-- Node5 -->
<g id="node5" class="node">
<title>Node5</title>
<g id="a_node5"><a xlink:href="../../d1/d65/Warnings_8hpp.html" target="_top" xlink:title=" ">
<polygon fill="white" stroke="black" points="473.5,-0.5 473.5,-19.5 616.5,-19.5 616.5,-0.5 473.5,-0.5"/>
<text text-anchor="middle" x="545" y="-7.5" font-family="Helvetica,sans-Serif" font-size="10.00">AH/Settings/Warnings.hpp</text>
</a>
</g>
</g>
<!-- Node4&#45;&gt;Node5 -->
<g id="edge4" class="edge">
<title>Node4&#45;&gt;Node5</title>
<path fill="none" stroke="midnightblue" d="M117.51,-560.46C90.44,-554.08 59.1,-543.03 36,-524 10.51,-503 0,-492.02 0,-459 0,-459 0,-459 0,-121 0,-86.61 12.56,-73.78 42,-56 77.14,-34.79 329.97,-20.53 463.25,-14.4"/>
<polygon fill="midnightblue" stroke="midnightblue" points="463.58,-17.89 473.42,-13.94 463.27,-10.9 463.58,-17.89"/>
</g>
<!-- Node6 -->
<g id="node6" class="node">
<title>Node6</title>
<g id="a_node6"><a xlink:href="../../de/d76/Array_8hpp.html" target="_top" xlink:title=" ">
<polygon fill="white" stroke="black" points="588,-504.5 588,-523.5 650,-523.5 650,-504.5 588,-504.5"/>
<text text-anchor="middle" x="619" y="-511.5" font-family="Helvetica,sans-Serif" font-size="10.00">Array.hpp</text>
</a>
</g>
</g>
<!-- Node4&#45;&gt;Node6 -->
<g id="edge5" class="edge">
<title>Node4&#45;&gt;Node6</title>
<path fill="none" stroke="midnightblue" d="M245.35,-560.44C339,-549.05 501.62,-529.28 577.62,-520.03"/>
<polygon fill="midnightblue" stroke="midnightblue" points="578.25,-523.48 587.76,-518.8 577.41,-516.53 578.25,-523.48"/>
</g>
<!-- Node9 -->
<g id="node9" class="node">
<title>Node9</title>
<g id="a_node9"><a xlink:href="../../dd/d80/PrintStream_8hpp.html" target="_top" xlink:title=" ">
<polygon fill="white" stroke="black" points="28.5,-224.5 28.5,-243.5 201.5,-243.5 201.5,-224.5 28.5,-224.5"/>
<text text-anchor="middle" x="115" y="-231.5" font-family="Helvetica,sans-Serif" font-size="10.00">AH/PrintStream/PrintStream.hpp</text>
</a>
</g>
</g>
<!-- Node4&#45;&gt;Node9 -->
<g id="edge42" class="edge">
<title>Node4&#45;&gt;Node9</title>
<path fill="none" stroke="midnightblue" d="M175,-560.44C175,-541.94 175,-496.81 175,-459 175,-459 175,-459 175,-345 175,-307.88 148.35,-271.38 130.57,-251.16"/>
<polygon fill="midnightblue" stroke="midnightblue" points="132.93,-248.55 123.6,-243.53 127.76,-253.28 132.93,-248.55"/>
</g>
<!-- Node25 -->
<g id="node25" class="node">
<title>Node25</title>
<g id="a_node25"><a xlink:title=" ">
<polygon fill="white" stroke="#bfbfbf" points="45.5,-504.5 45.5,-523.5 146.5,-523.5 146.5,-504.5 45.5,-504.5"/>
<text text-anchor="middle" x="96" y="-511.5" font-family="Helvetica,sans-Serif" font-size="10.00">AH/STL/algorithm</text>
</a>
</g>
</g>
<!-- Node4&#45;&gt;Node25 -->
<g id="edge41" class="edge">
<title>Node4&#45;&gt;Node25</title>
<path fill="none" stroke="midnightblue" d="M162.31,-560.32C150.1,-551.98 131.42,-539.21 117,-529.35"/>
<polygon fill="midnightblue" stroke="midnightblue" points="118.89,-526.41 108.66,-523.65 114.94,-532.19 118.89,-526.41"/>
</g>
<!-- Node6&#45;&gt;Node5 -->
<g id="edge6" class="edge">
<title>Node6&#45;&gt;Node5</title>
<path fill="none" stroke="midnightblue" d="M650.43,-511.88C714.04,-508.97 854.94,-499.09 890,-468 912.52,-448.03 909,-433.1 909,-403 909,-403 909,-403 909,-121 909,-62.48 734.44,-32.26 627.09,-19.21"/>
<polygon fill="midnightblue" stroke="midnightblue" points="627.26,-15.7 616.91,-18 626.43,-22.65 627.26,-15.7"/>
</g>
<!-- Node7 -->
<g id="node7" class="node">
<title>Node7</title>
<g id="a_node7"><a xlink:href="../../d1/d93/Error_8hpp.html" target="_top" xlink:title=" ">
<polygon fill="white" stroke="black" points="777,-448.5 777,-467.5 881,-467.5 881,-448.5 777,-448.5"/>
<text text-anchor="middle" x="829" y="-455.5" font-family="Helvetica,sans-Serif" font-size="10.00">AH/Error/Error.hpp</text>
</a>
</g>
</g>
<!-- Node6&#45;&gt;Node7 -->
<g id="edge7" class="edge">
<title>Node6&#45;&gt;Node7</title>
<path fill="none" stroke="midnightblue" d="M650.44,-504.92C686.41,-495.67 745.52,-480.47 785.8,-470.11"/>
<polygon fill="midnightblue" stroke="midnightblue" points="786.79,-473.47 795.61,-467.59 785.05,-466.69 786.79,-473.47"/>
</g>
<!-- Node15 -->
<g id="node15" class="node">
<title>Node15</title>
<g id="a_node15"><a xlink:title=" ">
<polygon fill="white" stroke="#bfbfbf" points="258.5,-112.5 258.5,-131.5 365.5,-131.5 365.5,-112.5 258.5,-112.5"/>
<text text-anchor="middle" x="312" y="-119.5" font-family="Helvetica,sans-Serif" font-size="10.00">AH/STL/type_traits</text>
</a>
</g>
</g>
<!-- Node6&#45;&gt;Node15 -->
<g id="edge39" class="edge">
<title>Node6&#45;&gt;Node15</title>
<path fill="none" stroke="midnightblue" d="M587.82,-510.91C495.52,-503.88 230,-477.22 230,-403 230,-403 230,-403 230,-233 230,-192.27 266.59,-156.87 290.88,-137.86"/>
<polygon fill="midnightblue" stroke="midnightblue" points="293.3,-140.42 299.19,-131.61 289.09,-134.82 293.3,-140.42"/>
</g>
<!-- Node21 -->
<g id="node21" class="node">
<title>Node21</title>
<g id="a_node21"><a xlink:title=" ">
<polygon fill="white" stroke="#bfbfbf" points="614,-224.5 614,-243.5 670,-243.5 670,-224.5 614,-224.5"/>
<text text-anchor="middle" x="642" y="-231.5" font-family="Helvetica,sans-Serif" font-size="10.00">stddef.h</text>
</a>
</g>
</g>
<!-- Node6&#45;&gt;Node21 -->
<g id="edge40" class="edge">
<title>Node6&#45;&gt;Node21</title>
<path fill="none" stroke="midnightblue" d="M632.59,-504.48C644.6,-496.36 661.88,-483.15 673,-468 704.83,-424.61 708.58,-408.79 719,-356 722.48,-338.35 723.78,-291.49 717,-280 708.33,-265.3 692.82,-254.84 678.14,-247.72"/>
<polygon fill="midnightblue" stroke="midnightblue" points="679.26,-244.39 668.7,-243.52 676.41,-250.78 679.26,-244.39"/>
</g>
<!-- Node24 -->
<g id="node24" class="node">
<title>Node24</title>
<g id="a_node24"><a xlink:title=" ">
<polygon fill="white" stroke="#bfbfbf" points="574,-448.5 574,-467.5 664,-467.5 664,-448.5 574,-448.5"/>
<text text-anchor="middle" x="619" y="-455.5" font-family="Helvetica,sans-Serif" font-size="10.00">AH/STL/iterator</text>
</a>
</g>
</g>
<!-- Node6&#45;&gt;Node24 -->
<g id="edge38" class="edge">
<title>Node6&#45;&gt;Node24</title>
<path fill="none" stroke="midnightblue" d="M619,-504.08C619,-497.01 619,-486.86 619,-477.99"/>
<polygon fill="midnightblue" stroke="midnightblue" points="622.5,-477.75 619,-467.75 615.5,-477.75 622.5,-477.75"/>
</g>
<!-- Node7&#45;&gt;Node5 -->
<g id="edge8" class="edge">
<title>Node7&#45;&gt;Node5</title>
<path fill="none" stroke="midnightblue" d="M831.83,-448.27C837.56,-429.79 850,-385.3 850,-347 850,-347 850,-347 850,-121 850,-72.73 807.02,-75.8 763,-56 720.09,-36.7 668.69,-25.58 626.58,-19.23"/>
<polygon fill="midnightblue" stroke="midnightblue" points="627.04,-15.76 616.64,-17.79 626.04,-22.69 627.04,-15.76"/>
</g>
<!-- Node8 -->
<g id="node8" class="node">
<title>Node8</title>
<g id="a_node8"><a xlink:href="../../df/dee/Debug_8hpp.html" target="_top" xlink:title=" ">
<polygon fill="white" stroke="black" points="560.5,-392.5 560.5,-411.5 681.5,-411.5 681.5,-392.5 560.5,-392.5"/>
<text text-anchor="middle" x="621" y="-399.5" font-family="Helvetica,sans-Serif" font-size="10.00">AH/Debug/Debug.hpp</text>
</a>
</g>
</g>
<!-- Node7&#45;&gt;Node8 -->
<g id="edge9" class="edge">
<title>Node7&#45;&gt;Node8</title>
<path fill="none" stroke="midnightblue" d="M796.04,-448.44C760.21,-439.14 702.84,-424.25 663.61,-414.06"/>
<polygon fill="midnightblue" stroke="midnightblue" points="664.36,-410.64 653.8,-411.52 662.6,-417.42 664.36,-410.64"/>
</g>
<!-- Node8&#45;&gt;Node5 -->
<g id="edge10" class="edge">
<title>Node8&#45;&gt;Node5</title>
<path fill="none" stroke="midnightblue" d="M656.1,-392.47C701.27,-379.15 774,-348.74 774,-291 774,-291 774,-291 774,-121 774,-53.56 692.31,-27.44 626.51,-17.34"/>
<polygon fill="midnightblue" stroke="midnightblue" points="626.91,-13.86 616.52,-15.91 625.92,-20.79 626.91,-13.86"/>
</g>
<!-- Node8&#45;&gt;Node9 -->
<g id="edge11" class="edge">
<title>Node8&#45;&gt;Node9</title>
<path fill="none" stroke="midnightblue" d="M594.86,-392.42C510.72,-364.82 246.78,-278.23 150.55,-246.66"/>
<polygon fill="midnightblue" stroke="midnightblue" points="151.58,-243.32 140.98,-243.52 149.39,-249.97 151.58,-243.32"/>
</g>
<!-- Node16 -->
<g id="node16" class="node">
<title>Node16</title>
<g id="a_node16"><a xlink:href="../../d2/dd5/SettingsWrapper_8hpp.html" target="_top" xlink:title=" ">
<polygon fill="white" stroke="black" points="532,-336.5 532,-355.5 710,-355.5 710,-336.5 532,-336.5"/>
<text text-anchor="middle" x="621" y="-343.5" font-family="Helvetica,sans-Serif" font-size="10.00">AH/Settings/SettingsWrapper.hpp</text>
</a>
</g>
</g>
<!-- Node8&#45;&gt;Node16 -->
<g id="edge23" class="edge">
<title>Node8&#45;&gt;Node16</title>
<path fill="none" stroke="midnightblue" d="M615.83,-392.08C614.32,-384.93 613.89,-374.64 614.54,-365.69"/>
<polygon fill="midnightblue" stroke="midnightblue" points="618.02,-366.13 615.87,-355.75 611.08,-365.2 618.02,-366.13"/>
</g>
<!-- Node9&#45;&gt;Node5 -->
<g id="edge13" class="edge">
<title>Node9&#45;&gt;Node5</title>
<path fill="none" stroke="midnightblue" d="M101.96,-224.37C91.07,-216.36 76.21,-203.38 69,-188 44.04,-134.76 20.39,-99.46 60,-56 86.58,-26.84 332.19,-16.28 463.33,-12.7"/>
<polygon fill="midnightblue" stroke="midnightblue" points="463.44,-16.2 473.34,-12.43 463.25,-9.2 463.44,-16.2"/>
</g>
<!-- Node10 -->
<g id="node10" class="node">
<title>Node10</title>
<g id="a_node10"><a xlink:href="../../dc/dc7/NamespaceSettings_8hpp.html" target="_top" xlink:title=" ">
<polygon fill="white" stroke="black" points="294.5,-56.5 294.5,-75.5 489.5,-75.5 489.5,-56.5 294.5,-56.5"/>
<text text-anchor="middle" x="392" y="-63.5" font-family="Helvetica,sans-Serif" font-size="10.00">AH/Settings/NamespaceSettings.hpp</text>
</a>
</g>
</g>
<!-- Node9&#45;&gt;Node10 -->
<g id="edge12" class="edge">
<title>Node9&#45;&gt;Node10</title>
<path fill="none" stroke="midnightblue" d="M179.02,-224.49C237.85,-213.32 323.37,-188.05 374,-132 385.39,-119.38 389.65,-100.17 391.21,-85.9"/>
<polygon fill="midnightblue" stroke="midnightblue" points="394.71,-85.97 391.96,-75.74 387.73,-85.45 394.71,-85.97"/>
</g>
<!-- Node11 -->
<g id="node11" class="node">
<title>Node11</title>
<g id="a_node11"><a xlink:href="../../d6/ddf/Arduino-Wrapper_8h.html" target="_top" xlink:title=" ">
<polygon fill="white" stroke="black" points="78,-168.5 78,-187.5 202,-187.5 202,-168.5 78,-168.5"/>
<text text-anchor="middle" x="140" y="-175.5" font-family="Helvetica,sans-Serif" font-size="10.00">AH/Arduino&#45;Wrapper.h</text>
</a>
</g>
</g>
<!-- Node9&#45;&gt;Node11 -->
<g id="edge14" class="edge">
<title>Node9&#45;&gt;Node11</title>
<path fill="none" stroke="midnightblue" d="M119.13,-224.08C122.51,-216.77 127.42,-206.18 131.62,-197.1"/>
<polygon fill="midnightblue" stroke="midnightblue" points="134.92,-198.3 135.95,-187.75 128.57,-195.36 134.92,-198.3"/>
</g>
<!-- Node12 -->
<g id="node12" class="node">
<title>Node12</title>
<g id="a_node12"><a xlink:href="../../d7/d79/MinMaxFix_8hpp.html" target="_top" xlink:title=" ">
<polygon fill="white" stroke="black" points="104,-112.5 104,-131.5 240,-131.5 240,-112.5 104,-112.5"/>
<text text-anchor="middle" x="172" y="-119.5" font-family="Helvetica,sans-Serif" font-size="10.00">AH/Math/MinMaxFix.hpp</text>
</a>
</g>
</g>
<!-- Node11&#45;&gt;Node12 -->
<g id="edge15" class="edge">
<title>Node11&#45;&gt;Node12</title>
<path fill="none" stroke="midnightblue" d="M145.28,-168.08C149.71,-160.61 156.16,-149.72 161.62,-140.52"/>
<polygon fill="midnightblue" stroke="midnightblue" points="164.73,-142.14 166.81,-131.75 158.71,-138.57 164.73,-142.14"/>
</g>
<!-- Node14 -->
<g id="node14" class="node">
<title>Node14</title>
<g id="a_node14"><a xlink:title=" ">
<polygon fill="white" stroke="#bfbfbf" points="26.5,-0.5 26.5,-19.5 89.5,-19.5 89.5,-0.5 26.5,-0.5"/>
<text text-anchor="middle" x="58" y="-7.5" font-family="Helvetica,sans-Serif" font-size="10.00">Arduino.h</text>
</a>
</g>
</g>
<!-- Node11&#45;&gt;Node14 -->
<g id="edge22" class="edge">
<title>Node11&#45;&gt;Node14</title>
<path fill="none" stroke="midnightblue" d="M129.25,-168.43C110.43,-152.6 72.34,-116.67 60,-76 55.44,-60.96 55.24,-43.05 56.02,-29.85"/>
<polygon fill="midnightblue" stroke="midnightblue" points="59.53,-29.9 56.86,-19.64 52.55,-29.32 59.53,-29.9"/>
</g>
<!-- Node11&#45;&gt;Node15 -->
<g id="edge21" class="edge">
<title>Node11&#45;&gt;Node15</title>
<path fill="none" stroke="midnightblue" d="M167.25,-168.44C196.44,-159.28 242.92,-144.69 275.31,-134.52"/>
<polygon fill="midnightblue" stroke="midnightblue" points="276.38,-137.85 284.87,-131.52 274.28,-131.17 276.38,-137.85"/>
</g>
<!-- Node12&#45;&gt;Node5 -->
<g id="edge16" class="edge">
<title>Node12&#45;&gt;Node5</title>
<path fill="none" stroke="midnightblue" d="M186.55,-112.33C214.87,-95.5 275.55,-59.76 286,-56 343.28,-35.41 411.16,-24.06 463.06,-17.91"/>
<polygon fill="midnightblue" stroke="midnightblue" points="463.68,-21.36 473.22,-16.75 462.89,-14.41 463.68,-21.36"/>
</g>
<!-- Node12&#45;&gt;Node10 -->
<g id="edge20" class="edge">
<title>Node12&#45;&gt;Node10</title>
<path fill="none" stroke="midnightblue" d="M206.86,-112.44C244.92,-103.1 305.96,-88.12 347.46,-77.93"/>
<polygon fill="midnightblue" stroke="midnightblue" points="348.43,-81.3 357.3,-75.52 346.76,-74.5 348.43,-81.3"/>
</g>
<!-- Node13 -->
<g id="node13" class="node">
<title>Node13</title>
<g id="a_node13"><a xlink:href="../../d6/d3b/FixArduinoMacros_8hpp.html" target="_top" xlink:title=" ">
<polygon fill="white" stroke="black" points="69,-56.5 69,-75.5 239,-75.5 239,-56.5 69,-56.5"/>
<text text-anchor="middle" x="154" y="-63.5" font-family="Helvetica,sans-Serif" font-size="10.00">AH/Math/FixArduinoMacros.hpp</text>
</a>
</g>
</g>
<!-- Node12&#45;&gt;Node13 -->
<g id="edge17" class="edge">
<title>Node12&#45;&gt;Node13</title>
<path fill="none" stroke="midnightblue" d="M169.03,-112.08C166.62,-104.85 163.14,-94.41 160.13,-85.4"/>
<polygon fill="midnightblue" stroke="midnightblue" points="163.4,-84.13 156.92,-75.75 156.76,-86.34 163.4,-84.13"/>
</g>
<!-- Node13&#45;&gt;Node5 -->
<g id="edge18" class="edge">
<title>Node13&#45;&gt;Node5</title>
<path fill="none" stroke="midnightblue" d="M215.96,-56.44C285.88,-46.79 399.47,-31.1 473.2,-20.92"/>
<polygon fill="midnightblue" stroke="midnightblue" points="473.91,-24.35 483.33,-19.52 472.95,-17.42 473.91,-24.35"/>
</g>
<!-- Node13&#45;&gt;Node14 -->
<g id="edge19" class="edge">
<title>Node13&#45;&gt;Node14</title>
<path fill="none" stroke="midnightblue" d="M138.58,-56.32C123.46,-47.82 100.18,-34.73 82.53,-24.8"/>
<polygon fill="midnightblue" stroke="midnightblue" points="83.82,-21.51 73.39,-19.65 80.39,-27.61 83.82,-21.51"/>
</g>
<!-- Node16&#45;&gt;Node5 -->
<g id="edge24" class="edge">
<title>Node16&#45;&gt;Node5</title>
<path fill="none" stroke="midnightblue" d="M656.09,-336.39C676.54,-329.67 701.31,-318.31 717,-300 736.58,-277.14 736,-265.1 736,-235 736,-235 736,-235 736,-121 736,-62.64 668.21,-34.78 613.41,-21.78"/>
<polygon fill="midnightblue" stroke="midnightblue" points="613.87,-18.3 603.34,-19.53 612.34,-25.13 613.87,-18.3"/>
</g>
<!-- Node16&#45;&gt;Node8 -->
<g id="edge37" class="edge">
<title>Node16&#45;&gt;Node8</title>
<path fill="none" stroke="midnightblue" d="M626.13,-355.75C627.66,-362.86 628.1,-373.14 627.47,-382.1"/>
<polygon fill="midnightblue" stroke="midnightblue" points="623.99,-381.71 626.17,-392.08 630.93,-382.62 623.99,-381.71"/>
</g>
<!-- Node16&#45;&gt;Node10 -->
<g id="edge25" class="edge">
<title>Node16&#45;&gt;Node10</title>
<path fill="none" stroke="midnightblue" d="M587.34,-336.47C552.3,-325.97 505.22,-306.24 526,-280 569.37,-225.24 635.63,-298.76 679,-244 689.85,-230.31 724.58,-171.15 670,-112 647.1,-87.18 567.95,-76.04 499.93,-71.05"/>
<polygon fill="midnightblue" stroke="midnightblue" points="499.77,-67.53 489.55,-70.33 499.28,-74.51 499.77,-67.53"/>
</g>
<!-- Node17 -->
<g id="node17" class="node">
<title>Node17</title>
<g id="a_node17"><a xlink:href="../../db/d02/Settings_8hpp.html" target="_top" xlink:title="All user settings and debugging options can be changed here.">
<polygon fill="white" stroke="black" points="400.5,-280.5 400.5,-299.5 477.5,-299.5 477.5,-280.5 400.5,-280.5"/>
<text text-anchor="middle" x="439" y="-287.5" font-family="Helvetica,sans-Serif" font-size="10.00">Settings.hpp</text>
</a>
</g>
</g>
<!-- Node16&#45;&gt;Node17 -->
<g id="edge26" class="edge">
<title>Node16&#45;&gt;Node17</title>
<path fill="none" stroke="midnightblue" d="M592.16,-336.44C561.14,-327.24 511.67,-312.56 477.38,-302.39"/>
<polygon fill="midnightblue" stroke="midnightblue" points="478.29,-299.01 467.7,-299.52 476.29,-305.72 478.29,-299.01"/>
</g>
<!-- Node23 -->
<g id="node23" class="node">
<title>Node23</title>
<g id="a_node23"><a xlink:href="../../d9/d98/TeensyUSBTypes_8hpp.html" target="_top" xlink:title=" ">
<polygon fill="white" stroke="black" points="534.5,-280.5 534.5,-299.5 707.5,-299.5 707.5,-280.5 534.5,-280.5"/>
<text text-anchor="middle" x="621" y="-287.5" font-family="Helvetica,sans-Serif" font-size="10.00">AH/Teensy/TeensyUSBTypes.hpp</text>
</a>
</g>
</g>
<!-- Node16&#45;&gt;Node23 -->
<g id="edge36" class="edge">
<title>Node16&#45;&gt;Node23</title>
<path fill="none" stroke="midnightblue" d="M621,-336.08C621,-329.01 621,-318.86 621,-309.99"/>
<polygon fill="midnightblue" stroke="midnightblue" points="624.5,-309.75 621,-299.75 617.5,-309.75 624.5,-309.75"/>
</g>
<!-- Node18 -->
<g id="node18" class="node">
<title>Node18</title>
<g id="a_node18"><a xlink:href="../../dc/d50/Frequency_8hpp.html" target="_top" xlink:title=" ">
<polygon fill="white" stroke="black" points="527,-112.5 527,-131.5 661,-131.5 661,-112.5 527,-112.5"/>
<text text-anchor="middle" x="594" y="-119.5" font-family="Helvetica,sans-Serif" font-size="10.00">AH/Types/Frequency.hpp</text>
</a>
</g>
</g>
<!-- Node17&#45;&gt;Node18 -->
<g id="edge27" class="edge">
<title>Node17&#45;&gt;Node18</title>
<path fill="none" stroke="midnightblue" d="M475.16,-280.46C508.49,-271.88 554.6,-257.96 567,-244 592.52,-215.26 595.57,-167.74 595.09,-141.62"/>
<polygon fill="midnightblue" stroke="midnightblue" points="598.58,-141.42 594.7,-131.57 591.59,-141.69 598.58,-141.42"/>
</g>
<!-- Node19 -->
<g id="node19" class="node">
<title>Node19</title>
<g id="a_node19"><a xlink:href="../../d7/d7c/ADCConfig_8hpp.html" target="_top" xlink:title="This file contains the platform&#45;specific ADC resolutions.">
<polygon fill="white" stroke="black" points="258.5,-224.5 258.5,-243.5 415.5,-243.5 415.5,-224.5 258.5,-224.5"/>
<text text-anchor="middle" x="337" y="-231.5" font-family="Helvetica,sans-Serif" font-size="10.00">AH/Hardware/ADCConfig.hpp</text>
</a>
</g>
</g>
<!-- Node17&#45;&gt;Node19 -->
<g id="edge30" class="edge">
<title>Node17&#45;&gt;Node19</title>
<path fill="none" stroke="midnightblue" d="M422.61,-280.32C406.33,-271.7 381.13,-258.36 362.28,-248.39"/>
<polygon fill="midnightblue" stroke="midnightblue" points="363.82,-245.24 353.35,-243.65 360.55,-251.43 363.82,-245.24"/>
</g>
<!-- Node20 -->
<g id="node20" class="node">
<title>Node20</title>
<g id="a_node20"><a xlink:title=" ">
<polygon fill="white" stroke="#bfbfbf" points="433.5,-224.5 433.5,-243.5 486.5,-243.5 486.5,-224.5 433.5,-224.5"/>
<text text-anchor="middle" x="460" y="-231.5" font-family="Helvetica,sans-Serif" font-size="10.00">limits.h</text>
</a>
</g>
</g>
<!-- Node17&#45;&gt;Node20 -->
<g id="edge33" class="edge">
<title>Node17&#45;&gt;Node20</title>
<path fill="none" stroke="midnightblue" d="M442.47,-280.08C445.31,-272.77 449.43,-262.18 452.96,-253.1"/>
<polygon fill="midnightblue" stroke="midnightblue" points="456.23,-254.34 456.6,-243.75 449.71,-251.8 456.23,-254.34"/>
</g>
<!-- Node17&#45;&gt;Node21 -->
<g id="edge34" class="edge">
<title>Node17&#45;&gt;Node21</title>
<path fill="none" stroke="midnightblue" d="M471.17,-280.44C507.29,-270.83 565.86,-255.25 604.16,-245.07"/>
<polygon fill="midnightblue" stroke="midnightblue" points="605.14,-248.43 613.91,-242.47 603.34,-241.66 605.14,-248.43"/>
</g>
<!-- Node22 -->
<g id="node22" class="node">
<title>Node22</title>
<g id="a_node22"><a xlink:title=" ">
<polygon fill="white" stroke="#bfbfbf" points="504.5,-224.5 504.5,-243.5 557.5,-243.5 557.5,-224.5 504.5,-224.5"/>
<text text-anchor="middle" x="531" y="-231.5" font-family="Helvetica,sans-Serif" font-size="10.00">stdint.h</text>
</a>
</g>
</g>
<!-- Node17&#45;&gt;Node22 -->
<g id="edge35" class="edge">
<title>Node17&#45;&gt;Node22</title>
<path fill="none" stroke="midnightblue" d="M453.78,-280.32C468.27,-271.82 490.57,-258.73 507.49,-248.8"/>
<polygon fill="midnightblue" stroke="midnightblue" points="509.4,-251.74 516.26,-243.65 505.86,-245.7 509.4,-251.74"/>
</g>
<!-- Node18&#45;&gt;Node5 -->
<g id="edge28" class="edge">
<title>Node18&#45;&gt;Node5</title>
<path fill="none" stroke="midnightblue" d="M590.16,-112.37C582.18,-94.46 563.67,-52.92 553,-28.95"/>
<polygon fill="midnightblue" stroke="midnightblue" points="556.09,-27.3 548.83,-19.59 549.7,-30.15 556.09,-27.3"/>
</g>
<!-- Node18&#45;&gt;Node10 -->
<g id="edge29" class="edge">
<title>Node18&#45;&gt;Node10</title>
<path fill="none" stroke="midnightblue" d="M561.99,-112.44C527.27,-103.16 471.71,-88.31 433.62,-78.13"/>
<polygon fill="midnightblue" stroke="midnightblue" points="434.42,-74.72 423.86,-75.52 432.61,-81.48 434.42,-74.72"/>
</g>
<!-- Node19&#45;&gt;Node5 -->
<g id="edge31" class="edge">
<title>Node19&#45;&gt;Node5</title>
<path fill="none" stroke="midnightblue" d="M347.01,-224.34C373.22,-201.44 445.45,-136.89 498,-76 511.18,-60.73 524.49,-41.93 533.57,-28.49"/>
<polygon fill="midnightblue" stroke="midnightblue" points="536.74,-30.03 539.36,-19.77 530.91,-26.16 536.74,-30.03"/>
</g>
<!-- Node19&#45;&gt;Node11 -->
<g id="edge32" class="edge">
<title>Node19&#45;&gt;Node11</title>
<path fill="none" stroke="midnightblue" d="M305.78,-224.44C272.07,-215.2 218.2,-200.44 181.07,-190.26"/>
<polygon fill="midnightblue" stroke="midnightblue" points="181.64,-186.78 171.07,-187.52 179.79,-193.54 181.64,-186.78"/>
</g>
<!-- Node26&#45;&gt;Node2 -->
<g id="edge45" class="edge">
<title>Node26&#45;&gt;Node2</title>
<path fill="none" stroke="midnightblue" d="M502.79,-616.32C491.22,-608.11 473.62,-595.6 459.84,-585.81"/>
<polygon fill="midnightblue" stroke="midnightblue" points="461.61,-582.77 451.43,-579.83 457.56,-588.48 461.61,-582.77"/>
</g>
<!-- Node26&#45;&gt;Node6 -->
<g id="edge44" class="edge">
<title>Node26&#45;&gt;Node6</title>
<path fill="none" stroke="midnightblue" d="M515.58,-616.45C516.9,-603.01 521.19,-576.77 535,-560 547.13,-545.27 565.38,-534.67 581.78,-527.48"/>
<polygon fill="midnightblue" stroke="midnightblue" points="583.24,-530.67 591.16,-523.63 580.58,-524.19 583.24,-530.67"/>
</g>
<!-- Node27 -->
<g id="node27" class="node">
<title>Node27</title>
<g id="a_node27"><a xlink:href="../../d2/d03/TransferFunction_8hpp.html" target="_top" xlink:title=" ">
<polygon fill="white" stroke="black" points="543.5,-560.5 543.5,-579.5 694.5,-579.5 694.5,-560.5 543.5,-560.5"/>
<text text-anchor="middle" x="619" y="-567.5" font-family="Helvetica,sans-Serif" font-size="10.00">Filters/TransferFunction.hpp</text>
</a>
</g>
</g>
<!-- Node26&#45;&gt;Node27 -->
<g id="edge46" class="edge">
<title>Node26&#45;&gt;Node27</title>
<path fill="none" stroke="midnightblue" d="M531.71,-616.32C548.31,-607.7 574,-594.36 593.22,-584.39"/>
<polygon fill="midnightblue" stroke="midnightblue" points="595.07,-587.37 602.33,-579.65 591.84,-581.16 595.07,-587.37"/>
</g>
<!-- Node27&#45;&gt;Node6 -->
<g id="edge47" class="edge">
<title>Node27&#45;&gt;Node6</title>
<path fill="none" stroke="midnightblue" d="M619,-560.08C619,-553.01 619,-542.86 619,-533.99"/>
<polygon fill="midnightblue" stroke="midnightblue" points="622.5,-533.75 619,-523.75 615.5,-533.75 622.5,-533.75"/>
</g>
</g>
</svg>
