<?xml version="1.0" encoding="UTF-8" standalone="no"?>
<!DOCTYPE svg PUBLIC "-//W3C//DTD SVG 1.1//EN"
 "http://www.w3.org/Graphics/SVG/1.1/DTD/svg11.dtd">
<!-- Generated by graphviz version 2.38.0 (20140413.2041)
 -->
<!-- Title: FixedPoint&lt; T, N, T2 &gt; Pages: 1 -->
<svg width="127pt" height="292pt"
 viewBox="0.00 0.00 127.00 292.00" xmlns="http://www.w3.org/2000/svg" xmlns:xlink="http://www.w3.org/1999/xlink">
<g id="graph0" class="graph" transform="scale(1 1) rotate(0) translate(4 288)">
<title>FixedPoint&lt; T, N, T2 &gt;</title>
<polygon fill="white" stroke="none" points="-4,4 -4,-288 123,-288 123,4 -4,4"/>
<!-- Node1 -->
<g id="node1" class="node"><title>Node1</title>
<g id="a_node1"><a xlink:title="Very basic fixed&#45;point integer implementation.">
<polygon fill="#bfbfbf" stroke="black" points="0,-0.5 0,-178.5 119,-178.5 119,-0.5 0,-0.5"/>
<text text-anchor="middle" x="59.5" y="-166.5" font-family="Helvetica,sans-Serif" font-size="10.00">FixedPoint&lt; T, N, T2 &gt;</text>
<polyline fill="none" stroke="black" points="0,-159.5 119,-159.5 "/>
<text text-anchor="start" x="8" y="-147.5" font-family="Helvetica,sans-Serif" font-size="10.00">+ one</text>
<polyline fill="none" stroke="black" points="0,-140.5 119,-140.5 "/>
<text text-anchor="start" x="8" y="-128.5" font-family="Helvetica,sans-Serif" font-size="10.00">+ FixedPoint()</text>
<text text-anchor="start" x="8" y="-117.5" font-family="Helvetica,sans-Serif" font-size="10.00">+ FixedPoint()</text>
<text text-anchor="start" x="8" y="-106.5" font-family="Helvetica,sans-Serif" font-size="10.00">+ operator+()</text>
<text text-anchor="start" x="8" y="-95.5" font-family="Helvetica,sans-Serif" font-size="10.00">+ operator&#45;()</text>
<text text-anchor="start" x="8" y="-84.5" font-family="Helvetica,sans-Serif" font-size="10.00">+ operator&#45;()</text>
<text text-anchor="start" x="8" y="-73.5" font-family="Helvetica,sans-Serif" font-size="10.00">+ operator*()</text>
<text text-anchor="start" x="8" y="-62.5" font-family="Helvetica,sans-Serif" font-size="10.00">+ operator/()</text>
<text text-anchor="start" x="8" y="-51.5" font-family="Helvetica,sans-Serif" font-size="10.00">+ operator long double()</text>
<text text-anchor="start" x="8" y="-40.5" font-family="Helvetica,sans-Serif" font-size="10.00">+ operator double()</text>
<text text-anchor="start" x="8" y="-29.5" font-family="Helvetica,sans-Serif" font-size="10.00">+ operator float()</text>
<text text-anchor="start" x="8" y="-18.5" font-family="Helvetica,sans-Serif" font-size="10.00">+ raw()</text>
<text text-anchor="start" x="8" y="-7.5" font-family="Helvetica,sans-Serif" font-size="10.00">+ div_N()</text>
</a>
</g>
</g>
<!-- Node2 -->
<g id="node2" class="node"><title>Node2</title>
<g id="a_node2"><a xlink:title=" ">
<polygon fill="white" stroke="#bfbfbf" points="45,-226.5 45,-283.5 74,-283.5 74,-226.5 45,-226.5"/>
<text text-anchor="middle" x="59.5" y="-271.5" font-family="Helvetica,sans-Serif" font-size="10.00">T</text>
<polyline fill="none" stroke="#bfbfbf" points="45,-264.5 74,-264.5 "/>
<text text-anchor="middle" x="59.5" y="-252.5" font-family="Helvetica,sans-Serif" font-size="10.00"> </text>
<polyline fill="none" stroke="#bfbfbf" points="45,-245.5 74,-245.5 "/>
<text text-anchor="middle" x="59.5" y="-233.5" font-family="Helvetica,sans-Serif" font-size="10.00"> </text>
</a>
</g>
</g>
<!-- Node2&#45;&gt;Node1 -->
<g id="edge1" class="edge"><title>Node2&#45;&gt;Node1</title>
<path fill="none" stroke="#404040" d="M59.5,-226.264C59.5,-216.011 59.5,-203.704 59.5,-190.744"/>
<polygon fill="none" stroke="#404040" points="59.5001,-190.697 55.5,-184.698 59.5,-178.697 63.5,-184.697 59.5001,-190.697"/>
<text text-anchor="middle" x="69" y="-200" font-family="Helvetica,sans-Serif" font-size="10.00"> &#45;val</text>
</g>
</g>
</svg>
