<?xml version="1.0" encoding="UTF-8" standalone="no"?>
<!DOCTYPE svg PUBLIC "-//W3C//DTD SVG 1.1//EN"
 "http://www.w3.org/Graphics/SVG/1.1/DTD/svg11.dtd">
<!-- Generated by graphviz version 2.38.0 (20140413.2041)
 -->
<!-- Title: FixedPoint&lt; T, N, T2 &gt; Pages: 1 -->
<svg width="127pt" height="303pt"
 viewBox="0.00 0.00 127.00 303.00" xmlns="http://www.w3.org/2000/svg" xmlns:xlink="http://www.w3.org/1999/xlink">
<g id="graph0" class="graph" transform="scale(1 1) rotate(0) translate(4 299)">
<title>FixedPoint&lt; T, N, T2 &gt;</title>
<polygon fill="white" stroke="none" points="-4,4 -4,-299 123,-299 123,4 -4,4"/>
<!-- Node1 -->
<g id="node1" class="node"><title>Node1</title>
<g id="a_node1"><a xlink:title="Very basic fixed&#45;point integer implementation.">
<polygon fill="#bfbfbf" stroke="black" points="0,-0.5 0,-189.5 119,-189.5 119,-0.5 0,-0.5"/>
<text text-anchor="middle" x="59.5" y="-177.5" font-family="Helvetica,sans-Serif" font-size="10.00">FixedPoint&lt; T, N, T2 &gt;</text>
<polyline fill="none" stroke="black" points="0,-170.5 119,-170.5 "/>
<text text-anchor="start" x="8" y="-158.5" font-family="Helvetica,sans-Serif" font-size="10.00">+ one</text>
<polyline fill="none" stroke="black" points="0,-151.5 119,-151.5 "/>
<text text-anchor="start" x="8" y="-139.5" font-family="Helvetica,sans-Serif" font-size="10.00">+ FixedPoint()</text>
<text text-anchor="start" x="8" y="-128.5" font-family="Helvetica,sans-Serif" font-size="10.00">+ FixedPoint()</text>
<text text-anchor="start" x="8" y="-117.5" font-family="Helvetica,sans-Serif" font-size="10.00">+ operator+()</text>
<text text-anchor="start" x="8" y="-106.5" font-family="Helvetica,sans-Serif" font-size="10.00">+ operator&#45;()</text>
<text text-anchor="start" x="8" y="-95.5" font-family="Helvetica,sans-Serif" font-size="10.00">+ operator&#45;()</text>
<text text-anchor="start" x="8" y="-84.5" font-family="Helvetica,sans-Serif" font-size="10.00">+ operator*()</text>
<text text-anchor="start" x="8" y="-73.5" font-family="Helvetica,sans-Serif" font-size="10.00">+ operator*()</text>
<text text-anchor="start" x="8" y="-62.5" font-family="Helvetica,sans-Serif" font-size="10.00">+ operator/()</text>
<text text-anchor="start" x="8" y="-51.5" font-family="Helvetica,sans-Serif" font-size="10.00">+ operator long double()</text>
<text text-anchor="start" x="8" y="-40.5" font-family="Helvetica,sans-Serif" font-size="10.00">+ operator double()</text>
<text text-anchor="start" x="8" y="-29.5" font-family="Helvetica,sans-Serif" font-size="10.00">+ operator float()</text>
<text text-anchor="start" x="8" y="-18.5" font-family="Helvetica,sans-Serif" font-size="10.00">+ raw()</text>
<text text-anchor="start" x="8" y="-7.5" font-family="Helvetica,sans-Serif" font-size="10.00">+ div_N()</text>
</a>
</g>
</g>
<!-- Node2 -->
<g id="node2" class="node"><title>Node2</title>
<g id="a_node2"><a xlink:title=" ">
<polygon fill="white" stroke="#bfbfbf" points="45,-237.5 45,-294.5 74,-294.5 74,-237.5 45,-237.5"/>
<text text-anchor="middle" x="59.5" y="-282.5" font-family="Helvetica,sans-Serif" font-size="10.00">T</text>
<polyline fill="none" stroke="#bfbfbf" points="45,-275.5 74,-275.5 "/>
<text text-anchor="middle" x="59.5" y="-263.5" font-family="Helvetica,sans-Serif" font-size="10.00"> </text>
<polyline fill="none" stroke="#bfbfbf" points="45,-256.5 74,-256.5 "/>
<text text-anchor="middle" x="59.5" y="-244.5" font-family="Helvetica,sans-Serif" font-size="10.00"> </text>
</a>
</g>
</g>
<!-- Node2&#45;&gt;Node1 -->
<g id="edge1" class="edge"><title>Node2&#45;&gt;Node1</title>
<path fill="none" stroke="#404040" d="M59.5,-237.471C59.5,-227.231 59.5,-214.901 59.5,-201.844"/>
<polygon fill="none" stroke="#404040" points="59.5001,-201.687 55.5,-195.687 59.5,-189.687 63.5,-195.687 59.5001,-201.687"/>
<text text-anchor="middle" x="69" y="-211" font-family="Helvetica,sans-Serif" font-size="10.00"> &#45;val</text>
</g>
</g>
</svg>
