<?xml version="1.0" encoding="UTF-8" standalone="no"?>
<!DOCTYPE svg PUBLIC "-//W3C//DTD SVG 1.1//EN"
 "http://www.w3.org/Graphics/SVG/1.1/DTD/svg11.dtd">
<!-- Generated by graphviz version 2.43.0 (0)
 -->
<!-- Title: MCP23017Encoders.hpp Pages: 1 -->
<svg width="1631pt" height="789pt"
 viewBox="0.00 0.00 1631.49 789.00" xmlns="http://www.w3.org/2000/svg" xmlns:xlink="http://www.w3.org/1999/xlink">
<g id="graph0" class="graph" transform="scale(1 1) rotate(0) translate(4 785)">
<title>MCP23017Encoders.hpp</title>
<polygon fill="white" stroke="transparent" points="-4,4 -4,-785 1627.49,-785 1627.49,4 -4,4"/>
<!-- Node1 -->
<g id="node1" class="node">
<title>Node1</title>
<g id="a_node1"><a xlink:title=" ">
<polygon fill="#bfbfbf" stroke="black" points="477.49,-761.5 477.49,-780.5 611.49,-780.5 611.49,-761.5 477.49,-761.5"/>
<text text-anchor="middle" x="544.49" y="-768.5" font-family="Helvetica,sans-Serif" font-size="10.00">MCP23017Encoders.hpp</text>
</a>
</g>
</g>
<!-- Node2 -->
<g id="node2" class="node">
<title>Node2</title>
<g id="a_node2"><a xlink:href="../../dc/dc7/NamespaceSettings_8hpp.html" target="_top" xlink:title=" ">
<polygon fill="white" stroke="black" points="599.99,-56.5 599.99,-75.5 794.99,-75.5 794.99,-56.5 599.99,-56.5"/>
<text text-anchor="middle" x="697.49" y="-63.5" font-family="Helvetica,sans-Serif" font-size="10.00">AH/Settings/NamespaceSettings.hpp</text>
</a>
</g>
</g>
<!-- Node1&#45;&gt;Node2 -->
<g id="edge1" class="edge">
<title>Node1&#45;&gt;Node2</title>
<path fill="none" stroke="midnightblue" d="M544.49,-761.41C544.49,-740.98 544.49,-687.86 544.49,-643.5 544.49,-643.5 544.49,-643.5 544.49,-457 544.49,-350.28 561.52,-322.54 602.49,-224 625.13,-169.56 664.69,-111.77 684.87,-83.94"/>
<polygon fill="midnightblue" stroke="midnightblue" points="687.83,-85.83 690.92,-75.69 682.18,-81.69 687.83,-85.83"/>
</g>
<!-- Node3 -->
<g id="node3" class="node">
<title>Node3</title>
<g id="a_node3"><a xlink:href="../../d1/d65/Warnings_8hpp.html" target="_top" xlink:title=" ">
<polygon fill="white" stroke="black" points="1137.99,-0.5 1137.99,-19.5 1280.99,-19.5 1280.99,-0.5 1137.99,-0.5"/>
<text text-anchor="middle" x="1209.49" y="-7.5" font-family="Helvetica,sans-Serif" font-size="10.00">AH/Settings/Warnings.hpp</text>
</a>
</g>
</g>
<!-- Node1&#45;&gt;Node3 -->
<g id="edge2" class="edge">
<title>Node1&#45;&gt;Node3</title>
<path fill="none" stroke="midnightblue" d="M611.65,-768.79C833.62,-764.57 1532.06,-749.4 1573.49,-725 1610.11,-703.44 1623.49,-686 1623.49,-643.5 1623.49,-643.5 1623.49,-643.5 1623.49,-121 1623.49,-74.49 1584.28,-74.22 1541.49,-56 1497.82,-37.41 1374.91,-24.23 1291.54,-17.12"/>
<polygon fill="midnightblue" stroke="midnightblue" points="1291.58,-13.62 1281.32,-16.27 1290.99,-20.59 1291.58,-13.62"/>
</g>
<!-- Node4 -->
<g id="node4" class="node">
<title>Node4</title>
<g id="a_node4"><a xlink:href="../../d6/ddf/Arduino-Wrapper_8h.html" target="_top" xlink:title=" ">
<polygon fill="white" stroke="black" points="316.49,-168.5 316.49,-187.5 440.49,-187.5 440.49,-168.5 316.49,-168.5"/>
<text text-anchor="middle" x="378.49" y="-175.5" font-family="Helvetica,sans-Serif" font-size="10.00">AH/Arduino&#45;Wrapper.h</text>
</a>
</g>
</g>
<!-- Node1&#45;&gt;Node4 -->
<g id="edge3" class="edge">
<title>Node1&#45;&gt;Node4</title>
<path fill="none" stroke="midnightblue" d="M482.5,-761.44C378.83,-745.36 181.49,-706.48 181.49,-643.5 181.49,-643.5 181.49,-643.5 181.49,-345 181.49,-262.3 284.26,-212.47 341.34,-191.17"/>
<polygon fill="midnightblue" stroke="midnightblue" points="342.89,-194.33 351.1,-187.64 340.51,-187.75 342.89,-194.33"/>
</g>
<!-- Node9 -->
<g id="node9" class="node">
<title>Node9</title>
<g id="a_node9"><a xlink:href="../../dd/ddf/ExtendedInputOutput_8hpp.html" target="_top" xlink:title=" ">
<polygon fill="white" stroke="black" points="1386.99,-694.5 1386.99,-724.5 1563.99,-724.5 1563.99,-694.5 1386.99,-694.5"/>
<text text-anchor="start" x="1394.99" y="-712.5" font-family="Helvetica,sans-Serif" font-size="10.00">AH/Hardware/ExtendedInput</text>
<text text-anchor="middle" x="1475.49" y="-701.5" font-family="Helvetica,sans-Serif" font-size="10.00">Output/ExtendedInputOutput.hpp</text>
</a>
</g>
</g>
<!-- Node1&#45;&gt;Node9 -->
<g id="edge12" class="edge">
<title>Node1&#45;&gt;Node9</title>
<path fill="none" stroke="midnightblue" d="M611.82,-765.7C773.91,-755.34 1186.43,-728.97 1376.66,-716.82"/>
<polygon fill="midnightblue" stroke="midnightblue" points="1376.89,-720.31 1386.65,-716.18 1376.45,-713.32 1376.89,-720.31"/>
</g>
<!-- Node30 -->
<g id="node30" class="node">
<title>Node30</title>
<g id="a_node30"><a xlink:href="../../dd/ddf/RegisterEncoders_8hpp.html" target="_top" xlink:title=" ">
<polygon fill="white" stroke="black" points="326.49,-566 326.49,-585 516.49,-585 516.49,-566 326.49,-566"/>
<text text-anchor="middle" x="421.49" y="-573" font-family="Helvetica,sans-Serif" font-size="10.00">AH/Hardware/RegisterEncoders.hpp</text>
</a>
</g>
</g>
<!-- Node1&#45;&gt;Node30 -->
<g id="edge57" class="edge">
<title>Node1&#45;&gt;Node30</title>
<path fill="none" stroke="midnightblue" d="M539.05,-761.44C520.28,-731.91 458.04,-634 432.54,-593.88"/>
<polygon fill="midnightblue" stroke="midnightblue" points="435.47,-591.97 427.15,-585.41 429.57,-595.72 435.47,-591.97"/>
</g>
<!-- Node5 -->
<g id="node5" class="node">
<title>Node5</title>
<g id="a_node5"><a xlink:href="../../d7/d79/MinMaxFix_8hpp.html" target="_top" xlink:title=" ">
<polygon fill="white" stroke="black" points="292.49,-112.5 292.49,-131.5 428.49,-131.5 428.49,-112.5 292.49,-112.5"/>
<text text-anchor="middle" x="360.49" y="-119.5" font-family="Helvetica,sans-Serif" font-size="10.00">AH/Math/MinMaxFix.hpp</text>
</a>
</g>
</g>
<!-- Node4&#45;&gt;Node5 -->
<g id="edge4" class="edge">
<title>Node4&#45;&gt;Node5</title>
<path fill="none" stroke="midnightblue" d="M375.52,-168.08C373.11,-160.85 369.63,-150.41 366.63,-141.4"/>
<polygon fill="midnightblue" stroke="midnightblue" points="369.89,-140.13 363.41,-131.75 363.25,-142.34 369.89,-140.13"/>
</g>
<!-- Node7 -->
<g id="node7" class="node">
<title>Node7</title>
<g id="a_node7"><a xlink:title=" ">
<polygon fill="white" stroke="#bfbfbf" points="151.99,-0.5 151.99,-19.5 214.99,-19.5 214.99,-0.5 151.99,-0.5"/>
<text text-anchor="middle" x="183.49" y="-7.5" font-family="Helvetica,sans-Serif" font-size="10.00">Arduino.h</text>
</a>
</g>
</g>
<!-- Node4&#45;&gt;Node7 -->
<g id="edge11" class="edge">
<title>Node4&#45;&gt;Node7</title>
<path fill="none" stroke="midnightblue" d="M316.25,-177.33C252.68,-175.53 152.38,-166.68 73.49,-132 37.34,-116.11 21.48,-111.66 4.49,-76 -21.51,-21.4 81.03,-11.64 141.7,-10.52"/>
<polygon fill="midnightblue" stroke="midnightblue" points="141.82,-14.02 151.78,-10.4 141.74,-7.02 141.82,-14.02"/>
</g>
<!-- Node8 -->
<g id="node8" class="node">
<title>Node8</title>
<g id="a_node8"><a xlink:title=" ">
<polygon fill="white" stroke="#bfbfbf" points="446.99,-112.5 446.99,-131.5 553.99,-131.5 553.99,-112.5 446.99,-112.5"/>
<text text-anchor="middle" x="500.49" y="-119.5" font-family="Helvetica,sans-Serif" font-size="10.00">AH/STL/type_traits</text>
</a>
</g>
</g>
<!-- Node4&#45;&gt;Node8 -->
<g id="edge10" class="edge">
<title>Node4&#45;&gt;Node8</title>
<path fill="none" stroke="midnightblue" d="M397.82,-168.44C417.81,-159.6 449.24,-145.69 472.06,-135.59"/>
<polygon fill="midnightblue" stroke="midnightblue" points="473.52,-138.76 481.25,-131.52 470.69,-132.36 473.52,-138.76"/>
</g>
<!-- Node5&#45;&gt;Node2 -->
<g id="edge9" class="edge">
<title>Node5&#45;&gt;Node2</title>
<path fill="none" stroke="midnightblue" d="M413.89,-112.44C473.79,-102.85 570.86,-87.29 634.44,-77.1"/>
<polygon fill="midnightblue" stroke="midnightblue" points="635.02,-80.55 644.34,-75.52 633.92,-73.64 635.02,-80.55"/>
</g>
<!-- Node5&#45;&gt;Node3 -->
<g id="edge5" class="edge">
<title>Node5&#45;&gt;Node3</title>
<path fill="none" stroke="midnightblue" d="M384.73,-112.43C426.4,-98.08 514.55,-69.48 591.49,-56 781.45,-22.71 1008.43,-13.98 1127.42,-11.73"/>
<polygon fill="midnightblue" stroke="midnightblue" points="1127.61,-15.23 1137.55,-11.55 1127.49,-8.23 1127.61,-15.23"/>
</g>
<!-- Node6 -->
<g id="node6" class="node">
<title>Node6</title>
<g id="a_node6"><a xlink:href="../../d6/d3b/FixArduinoMacros_8hpp.html" target="_top" xlink:title=" ">
<polygon fill="white" stroke="black" points="295.49,-56.5 295.49,-75.5 465.49,-75.5 465.49,-56.5 295.49,-56.5"/>
<text text-anchor="middle" x="380.49" y="-63.5" font-family="Helvetica,sans-Serif" font-size="10.00">AH/Math/FixArduinoMacros.hpp</text>
</a>
</g>
</g>
<!-- Node5&#45;&gt;Node6 -->
<g id="edge6" class="edge">
<title>Node5&#45;&gt;Node6</title>
<path fill="none" stroke="midnightblue" d="M363.8,-112.08C366.47,-104.85 370.34,-94.41 373.68,-85.4"/>
<polygon fill="midnightblue" stroke="midnightblue" points="377.06,-86.34 377.25,-75.75 370.5,-83.91 377.06,-86.34"/>
</g>
<!-- Node6&#45;&gt;Node3 -->
<g id="edge7" class="edge">
<title>Node6&#45;&gt;Node3</title>
<path fill="none" stroke="midnightblue" d="M465.7,-59.45C625.9,-49.01 970.03,-26.6 1127.63,-16.33"/>
<polygon fill="midnightblue" stroke="midnightblue" points="1127.99,-19.82 1137.74,-15.67 1127.53,-12.83 1127.99,-19.82"/>
</g>
<!-- Node6&#45;&gt;Node7 -->
<g id="edge8" class="edge">
<title>Node6&#45;&gt;Node7</title>
<path fill="none" stroke="midnightblue" d="M349.28,-56.44C315.56,-47.2 261.69,-32.44 224.56,-22.26"/>
<polygon fill="midnightblue" stroke="midnightblue" points="225.13,-18.78 214.56,-19.52 223.28,-25.54 225.13,-18.78"/>
</g>
<!-- Node9&#45;&gt;Node2 -->
<g id="edge55" class="edge">
<title>Node9&#45;&gt;Node2</title>
<path fill="none" stroke="midnightblue" d="M1495.15,-694.48C1506.55,-685.34 1520.23,-672.45 1528.49,-658 1546.95,-625.71 1547.49,-613.69 1547.49,-576.5 1547.49,-576.5 1547.49,-576.5 1547.49,-345 1547.49,-227.95 1455.25,-224.05 1352.49,-168 1288.92,-133.33 1270.16,-127.81 1199.49,-112 1065.82,-82.09 907.93,-71.93 805.41,-68.56"/>
<polygon fill="midnightblue" stroke="midnightblue" points="805.46,-65.06 795.36,-68.24 805.24,-72.05 805.46,-65.06"/>
</g>
<!-- Node9&#45;&gt;Node3 -->
<g id="edge56" class="edge">
<title>Node9&#45;&gt;Node3</title>
<path fill="none" stroke="midnightblue" d="M1503.66,-694.31C1518.84,-685.53 1536.96,-673.07 1549.49,-658 1574.82,-627.56 1585.49,-616.1 1585.49,-576.5 1585.49,-576.5 1585.49,-576.5 1585.49,-121 1585.49,-74.15 1545.49,-74.61 1502.49,-56 1435.18,-26.87 1352.02,-16.23 1291.51,-12.52"/>
<polygon fill="midnightblue" stroke="midnightblue" points="1291.42,-9.01 1281.24,-11.94 1291.03,-16 1291.42,-9.01"/>
</g>
<!-- Node10 -->
<g id="node10" class="node">
<title>Node10</title>
<g id="a_node10"><a xlink:href="../../d2/d3c/Arduino-Hardware-Types_8hpp.html" target="_top" xlink:title=" ">
<polygon fill="white" stroke="black" points="1291.49,-627.5 1291.49,-657.5 1413.49,-657.5 1413.49,-627.5 1291.49,-627.5"/>
<text text-anchor="start" x="1299.49" y="-645.5" font-family="Helvetica,sans-Serif" font-size="10.00">AH/Hardware/Arduino</text>
<text text-anchor="middle" x="1352.49" y="-634.5" font-family="Helvetica,sans-Serif" font-size="10.00">&#45;Hardware&#45;Types.hpp</text>
</a>
</g>
</g>
<!-- Node9&#45;&gt;Node10 -->
<g id="edge13" class="edge">
<title>Node9&#45;&gt;Node10</title>
<path fill="none" stroke="midnightblue" d="M1448.8,-694.4C1430.99,-684.98 1407.37,-672.5 1387.98,-662.26"/>
<polygon fill="midnightblue" stroke="midnightblue" points="1389.61,-659.15 1379.13,-657.58 1386.34,-665.34 1389.61,-659.15"/>
</g>
<!-- Node29 -->
<g id="node29" class="node">
<title>Node29</title>
<g id="a_node29"><a xlink:title=" ">
<polygon fill="white" stroke="#bfbfbf" points="1431.99,-633 1431.99,-652 1518.99,-652 1518.99,-633 1431.99,-633"/>
<text text-anchor="middle" x="1475.49" y="-640" font-family="Helvetica,sans-Serif" font-size="10.00">AH/STL/climits</text>
</a>
</g>
</g>
<!-- Node9&#45;&gt;Node29 -->
<g id="edge54" class="edge">
<title>Node9&#45;&gt;Node29</title>
<path fill="none" stroke="midnightblue" d="M1475.49,-694.4C1475.49,-685.06 1475.49,-672.71 1475.49,-662.52"/>
<polygon fill="midnightblue" stroke="midnightblue" points="1478.99,-662.19 1475.49,-652.19 1471.99,-662.19 1478.99,-662.19"/>
</g>
<!-- Node10&#45;&gt;Node3 -->
<g id="edge14" class="edge">
<title>Node10&#45;&gt;Node3</title>
<path fill="none" stroke="midnightblue" d="M1405.77,-627.49C1427.82,-619.6 1452.4,-607.87 1470.49,-591 1498.26,-565.11 1509.49,-552.97 1509.49,-515 1509.49,-515 1509.49,-515 1509.49,-345 1509.49,-269.31 1547.49,-254.69 1547.49,-179 1547.49,-179 1547.49,-179 1547.49,-121 1547.49,-73.09 1505.4,-75.18 1461.49,-56 1407.58,-32.44 1342.04,-21.22 1291.32,-15.87"/>
<polygon fill="midnightblue" stroke="midnightblue" points="1291.35,-12.35 1281.05,-14.84 1290.65,-19.32 1291.35,-12.35"/>
</g>
<!-- Node10&#45;&gt;Node4 -->
<g id="edge53" class="edge">
<title>Node10&#45;&gt;Node4</title>
<path fill="none" stroke="midnightblue" d="M1291.43,-637.9C1109.31,-626.34 582.49,-586.72 582.49,-515 582.49,-515 582.49,-515 582.49,-457 582.49,-334.48 452.11,-230.18 399.82,-193.28"/>
<polygon fill="midnightblue" stroke="midnightblue" points="401.78,-190.38 391.56,-187.56 397.79,-196.13 401.78,-190.38"/>
</g>
<!-- Node11 -->
<g id="node11" class="node">
<title>Node11</title>
<g id="a_node11"><a xlink:href="../../d4/d35/Hardware-Types_8hpp.html" target="_top" xlink:title=" ">
<polygon fill="white" stroke="black" points="1329.99,-560.5 1329.99,-590.5 1460.99,-590.5 1460.99,-560.5 1329.99,-560.5"/>
<text text-anchor="start" x="1337.99" y="-578.5" font-family="Helvetica,sans-Serif" font-size="10.00">AH/Hardware/Hardware</text>
<text text-anchor="middle" x="1395.49" y="-567.5" font-family="Helvetica,sans-Serif" font-size="10.00">&#45;Types.hpp</text>
</a>
</g>
</g>
<!-- Node10&#45;&gt;Node11 -->
<g id="edge15" class="edge">
<title>Node10&#45;&gt;Node11</title>
<path fill="none" stroke="midnightblue" d="M1361.82,-627.4C1367.29,-619.13 1374.32,-608.51 1380.54,-599.1"/>
<polygon fill="midnightblue" stroke="midnightblue" points="1383.58,-600.85 1386.18,-590.58 1377.74,-596.99 1383.58,-600.85"/>
</g>
<!-- Node26 -->
<g id="node26" class="node">
<title>Node26</title>
<g id="a_node26"><a xlink:href="../../d0/db1/FunctionTraits_8hpp.html" target="_top" xlink:title=" ">
<polygon fill="white" stroke="black" points="82.99,-112.5 82.99,-131.5 235.99,-131.5 235.99,-112.5 82.99,-112.5"/>
<text text-anchor="middle" x="159.49" y="-119.5" font-family="Helvetica,sans-Serif" font-size="10.00">AH/Types/FunctionTraits.hpp</text>
</a>
</g>
</g>
<!-- Node10&#45;&gt;Node26 -->
<g id="edge48" class="edge">
<title>Node10&#45;&gt;Node26</title>
<path fill="none" stroke="midnightblue" d="M1291.26,-640.65C1082.8,-637.48 408.61,-624.69 317.49,-591 265.8,-571.88 219.49,-570.12 219.49,-515 219.49,-515 219.49,-515 219.49,-233 219.49,-195.88 192.84,-159.38 175.06,-139.16"/>
<polygon fill="midnightblue" stroke="midnightblue" points="177.42,-136.55 168.09,-131.53 172.26,-141.28 177.42,-136.55"/>
</g>
<!-- Node11&#45;&gt;Node2 -->
<g id="edge46" class="edge">
<title>Node11&#45;&gt;Node2</title>
<path fill="none" stroke="midnightblue" d="M1403.37,-560.41C1414.5,-539.13 1433.49,-497.21 1433.49,-459 1433.49,-459 1433.49,-459 1433.49,-289 1433.49,-186.07 1252.21,-140.79 1152.49,-112 1036.97,-78.64 898.85,-69 805.33,-66.7"/>
<polygon fill="midnightblue" stroke="midnightblue" points="805.36,-63.2 795.28,-66.47 805.2,-70.19 805.36,-63.2"/>
</g>
<!-- Node11&#45;&gt;Node3 -->
<g id="edge16" class="edge">
<title>Node11&#45;&gt;Node3</title>
<path fill="none" stroke="midnightblue" d="M1412.74,-560.43C1435.16,-540.44 1471.49,-501.49 1471.49,-459 1471.49,-459 1471.49,-459 1471.49,-121 1471.49,-41.68 1368.15,-18.61 1291.27,-12.41"/>
<polygon fill="midnightblue" stroke="midnightblue" points="1291.31,-8.91 1281.09,-11.68 1290.81,-15.89 1291.31,-8.91"/>
</g>
<!-- Node12 -->
<g id="node12" class="node">
<title>Node12</title>
<g id="a_node12"><a xlink:href="../../de/d76/Array_8hpp.html" target="_top" xlink:title=" ">
<polygon fill="white" stroke="black" points="842.99,-504.5 842.99,-523.5 977.99,-523.5 977.99,-504.5 842.99,-504.5"/>
<text text-anchor="middle" x="910.49" y="-511.5" font-family="Helvetica,sans-Serif" font-size="10.00">AH/Containers/Array.hpp</text>
</a>
</g>
</g>
<!-- Node11&#45;&gt;Node12 -->
<g id="edge17" class="edge">
<title>Node11&#45;&gt;Node12</title>
<path fill="none" stroke="midnightblue" d="M1329.83,-566.44C1241.07,-555.56 1083.04,-536.17 988.38,-524.56"/>
<polygon fill="midnightblue" stroke="midnightblue" points="988.64,-521.06 978.29,-523.32 987.79,-528.01 988.64,-521.06"/>
</g>
<!-- Node22 -->
<g id="node22" class="node">
<title>Node22</title>
<g id="a_node22"><a xlink:title=" ">
<polygon fill="white" stroke="#bfbfbf" points="1313.99,-224.5 1313.99,-243.5 1366.99,-243.5 1366.99,-224.5 1313.99,-224.5"/>
<text text-anchor="middle" x="1340.49" y="-231.5" font-family="Helvetica,sans-Serif" font-size="10.00">stdint.h</text>
</a>
</g>
</g>
<!-- Node11&#45;&gt;Node22 -->
<g id="edge47" class="edge">
<title>Node11&#45;&gt;Node22</title>
<path fill="none" stroke="midnightblue" d="M1395.49,-560.28C1395.49,-538.48 1395.49,-495.49 1395.49,-459 1395.49,-459 1395.49,-459 1395.49,-345 1395.49,-308.57 1371.06,-271.84 1354.76,-251.39"/>
<polygon fill="midnightblue" stroke="midnightblue" points="1357.45,-249.14 1348.37,-243.67 1352.05,-253.6 1357.45,-249.14"/>
</g>
<!-- Node12&#45;&gt;Node3 -->
<g id="edge18" class="edge">
<title>Node12&#45;&gt;Node3</title>
<path fill="none" stroke="midnightblue" d="M978.38,-510.31C1103.43,-503.48 1357.49,-480.12 1357.49,-403 1357.49,-403 1357.49,-403 1357.49,-345 1357.49,-290.56 1391.94,-276.2 1376.49,-224 1351.23,-138.65 1327.72,-121.53 1267.49,-56 1256.77,-44.33 1242.79,-33.39 1231.24,-25.21"/>
<polygon fill="midnightblue" stroke="midnightblue" points="1233.19,-22.31 1222.97,-19.53 1229.23,-28.08 1233.19,-22.31"/>
</g>
<!-- Node12&#45;&gt;Node8 -->
<g id="edge44" class="edge">
<title>Node12&#45;&gt;Node8</title>
<path fill="none" stroke="midnightblue" d="M860.97,-504.43C832.87,-497.82 798.12,-486.57 771.49,-468 638.29,-375.09 538.97,-197.61 509.5,-140.89"/>
<polygon fill="midnightblue" stroke="midnightblue" points="512.5,-139.06 504.82,-131.76 506.27,-142.25 512.5,-139.06"/>
</g>
<!-- Node13 -->
<g id="node13" class="node">
<title>Node13</title>
<g id="a_node13"><a xlink:href="../../d1/d93/Error_8hpp.html" target="_top" xlink:title=" ">
<polygon fill="white" stroke="black" points="1052.49,-448.5 1052.49,-467.5 1156.49,-467.5 1156.49,-448.5 1052.49,-448.5"/>
<text text-anchor="middle" x="1104.49" y="-455.5" font-family="Helvetica,sans-Serif" font-size="10.00">AH/Error/Error.hpp</text>
</a>
</g>
</g>
<!-- Node12&#45;&gt;Node13 -->
<g id="edge19" class="edge">
<title>Node12&#45;&gt;Node13</title>
<path fill="none" stroke="midnightblue" d="M941.23,-504.44C974.44,-495.2 1027.48,-480.44 1064.05,-470.26"/>
<polygon fill="midnightblue" stroke="midnightblue" points="1065.2,-473.57 1073.9,-467.52 1063.32,-466.83 1065.2,-473.57"/>
</g>
<!-- Node21 -->
<g id="node21" class="node">
<title>Node21</title>
<g id="a_node21"><a xlink:title=" ">
<polygon fill="white" stroke="#bfbfbf" points="802.49,-224.5 802.49,-243.5 858.49,-243.5 858.49,-224.5 802.49,-224.5"/>
<text text-anchor="middle" x="830.49" y="-231.5" font-family="Helvetica,sans-Serif" font-size="10.00">stddef.h</text>
</a>
</g>
</g>
<!-- Node12&#45;&gt;Node21 -->
<g id="edge45" class="edge">
<title>Node12&#45;&gt;Node21</title>
<path fill="none" stroke="midnightblue" d="M875.39,-504.47C830.22,-491.15 757.49,-460.74 757.49,-403 757.49,-403 757.49,-403 757.49,-345 757.49,-305.78 790.12,-269.84 811.75,-250.32"/>
<polygon fill="midnightblue" stroke="midnightblue" points="814.15,-252.87 819.41,-243.67 809.56,-247.58 814.15,-252.87"/>
</g>
<!-- Node25 -->
<g id="node25" class="node">
<title>Node25</title>
<g id="a_node25"><a xlink:title=" ">
<polygon fill="white" stroke="#bfbfbf" points="865.49,-448.5 865.49,-467.5 955.49,-467.5 955.49,-448.5 865.49,-448.5"/>
<text text-anchor="middle" x="910.49" y="-455.5" font-family="Helvetica,sans-Serif" font-size="10.00">AH/STL/iterator</text>
</a>
</g>
</g>
<!-- Node12&#45;&gt;Node25 -->
<g id="edge43" class="edge">
<title>Node12&#45;&gt;Node25</title>
<path fill="none" stroke="midnightblue" d="M910.49,-504.08C910.49,-497.01 910.49,-486.86 910.49,-477.99"/>
<polygon fill="midnightblue" stroke="midnightblue" points="913.99,-477.75 910.49,-467.75 906.99,-477.75 913.99,-477.75"/>
</g>
<!-- Node13&#45;&gt;Node3 -->
<g id="edge20" class="edge">
<title>Node13&#45;&gt;Node3</title>
<path fill="none" stroke="midnightblue" d="M1155.88,-448.41C1209.39,-436.17 1285.49,-408.04 1285.49,-347 1285.49,-347 1285.49,-347 1285.49,-289 1285.49,-184.22 1296.84,-149.48 1249.49,-56 1243.97,-45.09 1235.14,-34.75 1227.18,-26.74"/>
<polygon fill="midnightblue" stroke="midnightblue" points="1229.31,-23.95 1219.66,-19.58 1224.48,-29.01 1229.31,-23.95"/>
</g>
<!-- Node14 -->
<g id="node14" class="node">
<title>Node14</title>
<g id="a_node14"><a xlink:href="../../df/dee/Debug_8hpp.html" target="_top" xlink:title=" ">
<polygon fill="white" stroke="black" points="1043.99,-392.5 1043.99,-411.5 1164.99,-411.5 1164.99,-392.5 1043.99,-392.5"/>
<text text-anchor="middle" x="1104.49" y="-399.5" font-family="Helvetica,sans-Serif" font-size="10.00">AH/Debug/Debug.hpp</text>
</a>
</g>
</g>
<!-- Node13&#45;&gt;Node14 -->
<g id="edge21" class="edge">
<title>Node13&#45;&gt;Node14</title>
<path fill="none" stroke="midnightblue" d="M1104.49,-448.08C1104.49,-441.01 1104.49,-430.86 1104.49,-421.99"/>
<polygon fill="midnightblue" stroke="midnightblue" points="1107.99,-421.75 1104.49,-411.75 1100.99,-421.75 1107.99,-421.75"/>
</g>
<!-- Node14&#45;&gt;Node3 -->
<g id="edge22" class="edge">
<title>Node14&#45;&gt;Node3</title>
<path fill="none" stroke="midnightblue" d="M1135.17,-392.46C1177.19,-378.68 1247.49,-347.22 1247.49,-291 1247.49,-291 1247.49,-291 1247.49,-121 1247.49,-86.81 1230.89,-49.76 1219.64,-28.57"/>
<polygon fill="midnightblue" stroke="midnightblue" points="1222.67,-26.83 1214.78,-19.77 1216.55,-30.22 1222.67,-26.83"/>
</g>
<!-- Node15 -->
<g id="node15" class="node">
<title>Node15</title>
<g id="a_node15"><a xlink:href="../../dd/d80/PrintStream_8hpp.html" target="_top" xlink:title=" ">
<polygon fill="white" stroke="black" points="610.99,-224.5 610.99,-243.5 783.99,-243.5 783.99,-224.5 610.99,-224.5"/>
<text text-anchor="middle" x="697.49" y="-231.5" font-family="Helvetica,sans-Serif" font-size="10.00">AH/PrintStream/PrintStream.hpp</text>
</a>
</g>
</g>
<!-- Node14&#45;&gt;Node15 -->
<g id="edge23" class="edge">
<title>Node14&#45;&gt;Node15</title>
<path fill="none" stroke="midnightblue" d="M1083.47,-392.42C1016.34,-365.05 806.97,-279.65 728.03,-247.45"/>
<polygon fill="midnightblue" stroke="midnightblue" points="729.22,-244.16 718.64,-243.62 726.57,-250.64 729.22,-244.16"/>
</g>
<!-- Node16 -->
<g id="node16" class="node">
<title>Node16</title>
<g id="a_node16"><a xlink:href="../../d2/dd5/SettingsWrapper_8hpp.html" target="_top" xlink:title=" ">
<polygon fill="white" stroke="black" points="1015.49,-336.5 1015.49,-355.5 1193.49,-355.5 1193.49,-336.5 1015.49,-336.5"/>
<text text-anchor="middle" x="1104.49" y="-343.5" font-family="Helvetica,sans-Serif" font-size="10.00">AH/Settings/SettingsWrapper.hpp</text>
</a>
</g>
</g>
<!-- Node14&#45;&gt;Node16 -->
<g id="edge27" class="edge">
<title>Node14&#45;&gt;Node16</title>
<path fill="none" stroke="midnightblue" d="M1099.33,-392.08C1097.82,-384.93 1097.39,-374.64 1098.04,-365.69"/>
<polygon fill="midnightblue" stroke="midnightblue" points="1101.51,-366.13 1099.36,-355.75 1094.57,-365.2 1101.51,-366.13"/>
</g>
<!-- Node24 -->
<g id="node24" class="node">
<title>Node24</title>
<g id="a_node24"><a xlink:href="../../d7/d52/DebugVal_8hpp.html" target="_top" xlink:title=" ">
<polygon fill="white" stroke="black" points="785.49,-336.5 785.49,-355.5 869.49,-355.5 869.49,-336.5 785.49,-336.5"/>
<text text-anchor="middle" x="827.49" y="-343.5" font-family="Helvetica,sans-Serif" font-size="10.00">DebugVal.hpp</text>
</a>
</g>
</g>
<!-- Node14&#45;&gt;Node24 -->
<g id="edge42" class="edge">
<title>Node14&#45;&gt;Node24</title>
<path fill="none" stroke="midnightblue" d="M1060.6,-392.44C1011.55,-382.88 932.16,-367.4 879.89,-357.21"/>
<polygon fill="midnightblue" stroke="midnightblue" points="880.3,-353.73 869.82,-355.25 878.96,-360.6 880.3,-353.73"/>
</g>
<!-- Node15&#45;&gt;Node2 -->
<g id="edge24" class="edge">
<title>Node15&#45;&gt;Node2</title>
<path fill="none" stroke="midnightblue" d="M697.49,-224.08C697.49,-197.95 697.49,-121.21 697.49,-85.58"/>
<polygon fill="midnightblue" stroke="midnightblue" points="700.99,-85.57 697.49,-75.57 693.99,-85.57 700.99,-85.57"/>
</g>
<!-- Node15&#45;&gt;Node3 -->
<g id="edge25" class="edge">
<title>Node15&#45;&gt;Node3</title>
<path fill="none" stroke="midnightblue" d="M717.25,-224.43C795.89,-190.34 1086.91,-64.15 1180.38,-23.62"/>
<polygon fill="midnightblue" stroke="midnightblue" points="1182.01,-26.73 1189.79,-19.54 1179.23,-20.31 1182.01,-26.73"/>
</g>
<!-- Node15&#45;&gt;Node4 -->
<g id="edge26" class="edge">
<title>Node15&#45;&gt;Node4</title>
<path fill="none" stroke="midnightblue" d="M646.95,-224.44C590.48,-214.89 499.12,-199.42 438.92,-189.23"/>
<polygon fill="midnightblue" stroke="midnightblue" points="439.25,-185.73 428.8,-187.52 438.08,-192.64 439.25,-185.73"/>
</g>
<!-- Node16&#45;&gt;Node2 -->
<g id="edge29" class="edge">
<title>Node16&#45;&gt;Node2</title>
<path fill="none" stroke="midnightblue" d="M1118.86,-336.33C1130.37,-328.47 1145.68,-315.72 1152.49,-300 1167.51,-265.35 1144.16,-247.37 1114.49,-224 1005.2,-137.88 843.61,-95.27 757.19,-77.55"/>
<polygon fill="midnightblue" stroke="midnightblue" points="757.77,-74.09 747.28,-75.56 756.4,-80.96 757.77,-74.09"/>
</g>
<!-- Node16&#45;&gt;Node3 -->
<g id="edge28" class="edge">
<title>Node16&#45;&gt;Node3</title>
<path fill="none" stroke="midnightblue" d="M1122.78,-336.35C1152.87,-320.69 1209.49,-284.63 1209.49,-235 1209.49,-235 1209.49,-235 1209.49,-121 1209.49,-88.95 1209.49,-51.64 1209.49,-29.75"/>
<polygon fill="midnightblue" stroke="midnightblue" points="1212.99,-29.56 1209.49,-19.56 1205.99,-29.56 1212.99,-29.56"/>
</g>
<!-- Node16&#45;&gt;Node14 -->
<g id="edge41" class="edge">
<title>Node16&#45;&gt;Node14</title>
<path fill="none" stroke="midnightblue" d="M1109.62,-355.75C1111.15,-362.86 1111.6,-373.14 1110.97,-382.1"/>
<polygon fill="midnightblue" stroke="midnightblue" points="1107.49,-381.71 1109.66,-392.08 1114.43,-382.62 1107.49,-381.71"/>
</g>
<!-- Node17 -->
<g id="node17" class="node">
<title>Node17</title>
<g id="a_node17"><a xlink:href="../../db/d02/Settings_8hpp.html" target="_top" xlink:title="All user settings and debugging options can be changed here.">
<polygon fill="white" stroke="black" points="1065.99,-280.5 1065.99,-299.5 1142.99,-299.5 1142.99,-280.5 1065.99,-280.5"/>
<text text-anchor="middle" x="1104.49" y="-287.5" font-family="Helvetica,sans-Serif" font-size="10.00">Settings.hpp</text>
</a>
</g>
</g>
<!-- Node16&#45;&gt;Node17 -->
<g id="edge30" class="edge">
<title>Node16&#45;&gt;Node17</title>
<path fill="none" stroke="midnightblue" d="M1104.49,-336.08C1104.49,-329.01 1104.49,-318.86 1104.49,-309.99"/>
<polygon fill="midnightblue" stroke="midnightblue" points="1107.99,-309.75 1104.49,-299.75 1100.99,-309.75 1107.99,-309.75"/>
</g>
<!-- Node23 -->
<g id="node23" class="node">
<title>Node23</title>
<g id="a_node23"><a xlink:href="../../d9/d98/TeensyUSBTypes_8hpp.html" target="_top" xlink:title=" ">
<polygon fill="white" stroke="black" points="874.99,-280.5 874.99,-299.5 1047.99,-299.5 1047.99,-280.5 874.99,-280.5"/>
<text text-anchor="middle" x="961.49" y="-287.5" font-family="Helvetica,sans-Serif" font-size="10.00">AH/Teensy/TeensyUSBTypes.hpp</text>
</a>
</g>
</g>
<!-- Node16&#45;&gt;Node23 -->
<g id="edge40" class="edge">
<title>Node16&#45;&gt;Node23</title>
<path fill="none" stroke="midnightblue" d="M1081.83,-336.44C1058.09,-327.48 1020.58,-313.31 993.75,-303.18"/>
<polygon fill="midnightblue" stroke="midnightblue" points="994.64,-299.77 984.05,-299.52 992.16,-306.32 994.64,-299.77"/>
</g>
<!-- Node18 -->
<g id="node18" class="node">
<title>Node18</title>
<g id="a_node18"><a xlink:href="../../dc/d50/Frequency_8hpp.html" target="_top" xlink:title=" ">
<polygon fill="white" stroke="black" points="1009.49,-112.5 1009.49,-131.5 1143.49,-131.5 1143.49,-112.5 1009.49,-112.5"/>
<text text-anchor="middle" x="1076.49" y="-119.5" font-family="Helvetica,sans-Serif" font-size="10.00">AH/Types/Frequency.hpp</text>
</a>
</g>
</g>
<!-- Node17&#45;&gt;Node18 -->
<g id="edge31" class="edge">
<title>Node17&#45;&gt;Node18</title>
<path fill="none" stroke="midnightblue" d="M1107.73,-280.14C1111.87,-267.61 1118.13,-244 1114.49,-224 1108.95,-193.55 1094.74,-160.34 1085.35,-140.61"/>
<polygon fill="midnightblue" stroke="midnightblue" points="1088.49,-139.06 1080.96,-131.61 1082.2,-142.13 1088.49,-139.06"/>
</g>
<!-- Node19 -->
<g id="node19" class="node">
<title>Node19</title>
<g id="a_node19"><a xlink:href="../../d7/d7c/ADCConfig_8hpp.html" target="_top" xlink:title="This file contains the platform&#45;specific ADC resolutions.">
<polygon fill="white" stroke="black" points="876.99,-224.5 876.99,-243.5 1033.99,-243.5 1033.99,-224.5 876.99,-224.5"/>
<text text-anchor="middle" x="955.49" y="-231.5" font-family="Helvetica,sans-Serif" font-size="10.00">AH/Hardware/ADCConfig.hpp</text>
</a>
</g>
</g>
<!-- Node17&#45;&gt;Node19 -->
<g id="edge34" class="edge">
<title>Node17&#45;&gt;Node19</title>
<path fill="none" stroke="midnightblue" d="M1080.88,-280.44C1056.04,-271.44 1016.72,-257.19 988.74,-247.05"/>
<polygon fill="midnightblue" stroke="midnightblue" points="989.59,-243.63 978.99,-243.52 987.2,-250.21 989.59,-243.63"/>
</g>
<!-- Node20 -->
<g id="node20" class="node">
<title>Node20</title>
<g id="a_node20"><a xlink:title=" ">
<polygon fill="white" stroke="#bfbfbf" points="1051.99,-224.5 1051.99,-243.5 1104.99,-243.5 1104.99,-224.5 1051.99,-224.5"/>
<text text-anchor="middle" x="1078.49" y="-231.5" font-family="Helvetica,sans-Serif" font-size="10.00">limits.h</text>
</a>
</g>
</g>
<!-- Node17&#45;&gt;Node20 -->
<g id="edge37" class="edge">
<title>Node17&#45;&gt;Node20</title>
<path fill="none" stroke="midnightblue" d="M1100.2,-280.08C1096.64,-272.69 1091.47,-261.95 1087.07,-252.81"/>
<polygon fill="midnightblue" stroke="midnightblue" points="1090.2,-251.24 1082.71,-243.75 1083.89,-254.28 1090.2,-251.24"/>
</g>
<!-- Node17&#45;&gt;Node21 -->
<g id="edge38" class="edge">
<title>Node17&#45;&gt;Node21</title>
<path fill="none" stroke="midnightblue" d="M1065.76,-281.58C1062.97,-281.05 1060.19,-280.51 1057.49,-280 973.5,-263.96 952.12,-261.86 868.49,-244 868.39,-243.98 868.29,-243.96 868.19,-243.94"/>
<polygon fill="midnightblue" stroke="midnightblue" points="869.2,-240.58 858.68,-241.82 867.69,-247.41 869.2,-240.58"/>
</g>
<!-- Node17&#45;&gt;Node22 -->
<g id="edge39" class="edge">
<title>Node17&#45;&gt;Node22</title>
<path fill="none" stroke="midnightblue" d="M1141.89,-280.44C1186.29,-270.28 1259.85,-253.45 1303.9,-243.37"/>
<polygon fill="midnightblue" stroke="midnightblue" points="1304.93,-246.73 1313.89,-241.09 1303.36,-239.91 1304.93,-246.73"/>
</g>
<!-- Node18&#45;&gt;Node2 -->
<g id="edge33" class="edge">
<title>Node18&#45;&gt;Node2</title>
<path fill="none" stroke="midnightblue" d="M1016.44,-112.44C948.8,-102.81 839.01,-87.16 767.53,-76.98"/>
<polygon fill="midnightblue" stroke="midnightblue" points="767.66,-73.46 757.27,-75.52 766.67,-80.39 767.66,-73.46"/>
</g>
<!-- Node18&#45;&gt;Node3 -->
<g id="edge32" class="edge">
<title>Node18&#45;&gt;Node3</title>
<path fill="none" stroke="midnightblue" d="M1086.93,-112.37C1109.46,-93.73 1162.9,-49.53 1191.19,-26.13"/>
<polygon fill="midnightblue" stroke="midnightblue" points="1193.63,-28.66 1199.11,-19.59 1189.17,-23.27 1193.63,-28.66"/>
</g>
<!-- Node19&#45;&gt;Node3 -->
<g id="edge35" class="edge">
<title>Node19&#45;&gt;Node3</title>
<path fill="none" stroke="midnightblue" d="M985.61,-224.39C1027.84,-210.96 1104.8,-181.32 1152.49,-132 1167.59,-116.39 1191.05,-59 1202.6,-29.22"/>
<polygon fill="midnightblue" stroke="midnightblue" points="1205.97,-30.21 1206.27,-19.62 1199.43,-27.7 1205.97,-30.21"/>
</g>
<!-- Node19&#45;&gt;Node4 -->
<g id="edge36" class="edge">
<title>Node19&#45;&gt;Node4</title>
<path fill="none" stroke="midnightblue" d="M876.81,-224.91C873.67,-224.6 870.55,-224.3 867.49,-224 719.51,-209.62 546.21,-193.95 450.77,-185.42"/>
<polygon fill="midnightblue" stroke="midnightblue" points="450.92,-181.92 440.65,-184.52 450.3,-188.89 450.92,-181.92"/>
</g>
<!-- Node26&#45;&gt;Node2 -->
<g id="edge52" class="edge">
<title>Node26&#45;&gt;Node2</title>
<path fill="none" stroke="midnightblue" d="M236,-113.32C332.3,-103.65 497.71,-87.05 602.14,-76.57"/>
<polygon fill="midnightblue" stroke="midnightblue" points="602.77,-80.03 612.37,-75.54 602.07,-73.06 602.77,-80.03"/>
</g>
<!-- Node26&#45;&gt;Node3 -->
<g id="edge51" class="edge">
<title>Node26&#45;&gt;Node3</title>
<path fill="none" stroke="midnightblue" d="M168.39,-112.21C184.03,-97.4 218.16,-67.95 253.49,-56 335.08,-28.42 911.59,-16 1127.83,-12.27"/>
<polygon fill="midnightblue" stroke="midnightblue" points="1127.91,-15.77 1137.85,-12.1 1127.79,-8.77 1127.91,-15.77"/>
</g>
<!-- Node27 -->
<g id="node27" class="node">
<title>Node27</title>
<g id="a_node27"><a xlink:title=" ">
<polygon fill="white" stroke="#bfbfbf" points="111.49,-56.5 111.49,-75.5 201.49,-75.5 201.49,-56.5 111.49,-56.5"/>
<text text-anchor="middle" x="156.49" y="-63.5" font-family="Helvetica,sans-Serif" font-size="10.00">AH/STL/cstddef</text>
</a>
</g>
</g>
<!-- Node26&#45;&gt;Node27 -->
<g id="edge49" class="edge">
<title>Node26&#45;&gt;Node27</title>
<path fill="none" stroke="midnightblue" d="M159,-112.08C158.6,-105.01 158.04,-94.86 157.55,-85.99"/>
<polygon fill="midnightblue" stroke="midnightblue" points="161.03,-85.54 156.98,-75.75 154.04,-85.93 161.03,-85.54"/>
</g>
<!-- Node28 -->
<g id="node28" class="node">
<title>Node28</title>
<g id="a_node28"><a xlink:title=" ">
<polygon fill="white" stroke="#bfbfbf" points="13.99,-56.5 13.99,-75.5 92.99,-75.5 92.99,-56.5 13.99,-56.5"/>
<text text-anchor="middle" x="53.49" y="-63.5" font-family="Helvetica,sans-Serif" font-size="10.00">AH/STL/tuple</text>
</a>
</g>
</g>
<!-- Node26&#45;&gt;Node28 -->
<g id="edge50" class="edge">
<title>Node26&#45;&gt;Node28</title>
<path fill="none" stroke="midnightblue" d="M142.46,-112.32C125.46,-103.66 99.12,-90.24 79.5,-80.25"/>
<polygon fill="midnightblue" stroke="midnightblue" points="80.98,-77.08 70.48,-75.65 77.8,-83.31 80.98,-77.08"/>
</g>
<!-- Node30&#45;&gt;Node2 -->
<g id="edge58" class="edge">
<title>Node30&#45;&gt;Node2</title>
<path fill="none" stroke="midnightblue" d="M434.03,-565.96C457.68,-548.72 506.49,-507.3 506.49,-459 506.49,-459 506.49,-459 506.49,-289 506.49,-198.65 540.87,-174.11 606.49,-112 621.83,-97.48 642.74,-86.7 660.65,-79.33"/>
<polygon fill="midnightblue" stroke="midnightblue" points="662.2,-82.49 670.24,-75.59 659.65,-75.97 662.2,-82.49"/>
</g>
<!-- Node30&#45;&gt;Node3 -->
<g id="edge59" class="edge">
<title>Node30&#45;&gt;Node3</title>
<path fill="none" stroke="midnightblue" d="M358.67,-566C330.11,-559.1 297.98,-546.61 276.49,-524 255.76,-502.18 257.49,-489.1 257.49,-459 257.49,-459 257.49,-459 257.49,-289 257.49,-236.82 248.24,-91.48 286.49,-56 317.09,-27.62 907.7,-15.65 1127.77,-12.16"/>
<polygon fill="midnightblue" stroke="midnightblue" points="1128.02,-15.65 1137.96,-12 1127.91,-8.65 1128.02,-15.65"/>
</g>
<!-- Node30&#45;&gt;Node4 -->
<g id="edge60" class="edge">
<title>Node30&#45;&gt;Node4</title>
<path fill="none" stroke="midnightblue" d="M420.55,-565.87C415.17,-516.33 388.15,-267.78 380.51,-197.53"/>
<polygon fill="midnightblue" stroke="midnightblue" points="383.98,-197.08 379.42,-187.51 377.02,-197.83 383.98,-197.08"/>
</g>
<!-- Node30&#45;&gt;Node8 -->
<g id="edge63" class="edge">
<title>Node30&#45;&gt;Node8</title>
<path fill="none" stroke="midnightblue" d="M423,-565.88C432.46,-511.85 483.62,-219.45 497.19,-141.89"/>
<polygon fill="midnightblue" stroke="midnightblue" points="500.69,-142.16 498.97,-131.71 493.8,-140.95 500.69,-142.16"/>
</g>
<!-- Node30&#45;&gt;Node12 -->
<g id="edge61" class="edge">
<title>Node30&#45;&gt;Node12</title>
<path fill="none" stroke="midnightblue" d="M491.55,-565.98C582.01,-554.97 738.93,-535.88 832.91,-524.44"/>
<polygon fill="midnightblue" stroke="midnightblue" points="833.42,-527.9 842.92,-523.22 832.57,-520.96 833.42,-527.9"/>
</g>
<!-- Node31 -->
<g id="node31" class="node">
<title>Node31</title>
<g id="a_node31"><a xlink:title=" ">
<polygon fill="white" stroke="#bfbfbf" points="285.49,-504.5 285.49,-523.5 367.49,-523.5 367.49,-504.5 285.49,-504.5"/>
<text text-anchor="middle" x="326.49" y="-511.5" font-family="Helvetica,sans-Serif" font-size="10.00">AH/STL/limits</text>
</a>
</g>
</g>
<!-- Node30&#45;&gt;Node31 -->
<g id="edge62" class="edge">
<title>Node30&#45;&gt;Node31</title>
<path fill="none" stroke="midnightblue" d="M407.88,-565.98C392.43,-556.3 367,-540.37 348.68,-528.89"/>
<polygon fill="midnightblue" stroke="midnightblue" points="350.41,-525.85 340.08,-523.51 346.7,-531.78 350.41,-525.85"/>
</g>
</g>
</svg>
