<?xml version="1.0" encoding="UTF-8" standalone="no"?>
<!DOCTYPE svg PUBLIC "-//W3C//DTD SVG 1.1//EN"
 "http://www.w3.org/Graphics/SVG/1.1/DTD/svg11.dtd">
<!-- Generated by graphviz version 2.40.1 (20161225.0304)
 -->
<!-- Title: DoublyLinkedList&lt; Node &gt;::node_iterator&lt; INode &gt; Pages: 1 -->
<svg width="140pt" height="215pt"
 viewBox="0.00 0.00 140.00 215.00" xmlns="http://www.w3.org/2000/svg" xmlns:xlink="http://www.w3.org/1999/xlink">
<g id="graph0" class="graph" transform="scale(1 1) rotate(0) translate(4 211)">
<title>DoublyLinkedList&lt; Node &gt;::node_iterator&lt; INode &gt;</title>
<polygon fill="#ffffff" stroke="transparent" points="-4,4 -4,-211 136,-211 136,4 -4,4"/>
<!-- Node1 -->
<g id="node1" class="node">
<title>Node1</title>
<g id="a_node1"><a xlink:title="Forward bidirectional doubly linked list iterator.">
<polygon fill="#bfbfbf" stroke="#000000" points="0,-.5 0,-90.5 132,-90.5 132,-.5 0,-.5"/>
<text text-anchor="start" x="8" y="-78.5" font-family="Helvetica,sans-Serif" font-size="10.00" fill="#000000">DoublyLinkedList&lt; Node</text>
<text text-anchor="middle" x="66" y="-67.5" font-family="Helvetica,sans-Serif" font-size="10.00" fill="#000000"> &gt;::node_iterator&lt; INode &gt;</text>
<polyline fill="none" stroke="#000000" points="0,-60.5 132,-60.5 "/>
<text text-anchor="middle" x="66" y="-48.5" font-family="Helvetica,sans-Serif" font-size="10.00" fill="#000000"> </text>
<polyline fill="none" stroke="#000000" points="0,-41.5 132,-41.5 "/>
<text text-anchor="start" x="8" y="-29.5" font-family="Helvetica,sans-Serif" font-size="10.00" fill="#000000">+ node_iterator()</text>
<text text-anchor="start" x="8" y="-18.5" font-family="Helvetica,sans-Serif" font-size="10.00" fill="#000000">+ operator++()</text>
<text text-anchor="start" x="8" y="-7.5" font-family="Helvetica,sans-Serif" font-size="10.00" fill="#000000">+ operator&#45;&#45;()</text>
</a>
</g>
</g>
<!-- Node2 -->
<g id="node2" class="node">
<title>Node2</title>
<g id="a_node2"><a xlink:href="../../db/d52/classDoublyLinkedList_1_1node__iterator__base.html" target="_top" xlink:title="Base class for doubly linked list iterators.">
<polygon fill="#ffffff" stroke="#000000" points="9,-127.5 9,-206.5 123,-206.5 123,-127.5 9,-127.5"/>
<text text-anchor="middle" x="66" y="-194.5" font-family="Helvetica,sans-Serif" font-size="10.00" fill="#000000">node_iterator_base</text>
<polyline fill="none" stroke="#000000" points="9,-187.5 123,-187.5 "/>
<text text-anchor="start" x="17" y="-175.5" font-family="Helvetica,sans-Serif" font-size="10.00" fill="#000000"># node</text>
<polyline fill="none" stroke="#000000" points="9,-168.5 123,-168.5 "/>
<text text-anchor="start" x="17" y="-156.5" font-family="Helvetica,sans-Serif" font-size="10.00" fill="#000000">+ node_iterator_base()</text>
<text text-anchor="start" x="17" y="-145.5" font-family="Helvetica,sans-Serif" font-size="10.00" fill="#000000">+ operator!=()</text>
<text text-anchor="start" x="17" y="-134.5" font-family="Helvetica,sans-Serif" font-size="10.00" fill="#000000">+ operator*()</text>
</a>
</g>
</g>
<!-- Node2&#45;&gt;Node1 -->
<g id="edge1" class="edge">
<title>Node2&#45;&gt;Node1</title>
<path fill="none" stroke="#191970" d="M66,-117.1739C66,-108.4596 66,-99.4352 66,-90.8501"/>
<polygon fill="none" stroke="#191970" points="62.5001,-117.2163 66,-127.2164 69.5001,-117.2164 62.5001,-117.2163"/>
</g>
</g>
</svg>
