<?xml version="1.0" encoding="UTF-8" standalone="no"?>
<!DOCTYPE svg PUBLIC "-//W3C//DTD SVG 1.1//EN"
 "http://www.w3.org/Graphics/SVG/1.1/DTD/svg11.dtd">
<!-- Generated by graphviz version 2.40.1 (20161225.0304)
 -->
<!-- Title: ShiftRegisterOutRGB.hpp Pages: 1 -->
<svg width="341pt" height="252pt"
 viewBox="0.00 0.00 341.00 252.00" xmlns="http://www.w3.org/2000/svg" xmlns:xlink="http://www.w3.org/1999/xlink">
<g id="graph0" class="graph" transform="scale(1 1) rotate(0) translate(4 248)">
<title>ShiftRegisterOutRGB.hpp</title>
<polygon fill="#ffffff" stroke="transparent" points="-4,4 -4,-248 337,-248 337,4 -4,4"/>
<!-- Node1 -->
<g id="node1" class="node">
<title>Node1</title>
<g id="a_node1"><a xlink:title=" ">
<polygon fill="#bfbfbf" stroke="#000000" points="129,-224.5 129,-243.5 259,-243.5 259,-224.5 129,-224.5"/>
<text text-anchor="middle" x="194" y="-231.5" font-family="Helvetica,sans-Serif" font-size="10.00" fill="#000000">ShiftRegisterOutRGB.hpp</text>
</a>
</g>
</g>
<!-- Node2 -->
<g id="node2" class="node">
<title>Node2</title>
<g id="a_node2"><a xlink:href="../../d5/d47/ShiftRegisterOutBase_8ipp.html" target="_top" xlink:title=" ">
<polygon fill="#ffffff" stroke="#000000" points="57,-168.5 57,-187.5 185,-187.5 185,-168.5 57,-168.5"/>
<text text-anchor="middle" x="121" y="-175.5" font-family="Helvetica,sans-Serif" font-size="10.00" fill="#000000">ShiftRegisterOutBase.ipp</text>
</a>
</g>
</g>
<!-- Node1&#45;&gt;Node2 -->
<g id="edge1" class="edge">
<title>Node1&#45;&gt;Node2</title>
<path fill="none" stroke="#191970" d="M173.049,-217.928C160.2893,-208.1397 144.4115,-195.9595 133.5699,-187.6427"/>
<polygon fill="#191970" stroke="#191970" points="171.2197,-220.9359 181.2844,-224.2455 175.4804,-215.3819 171.2197,-220.9359"/>
</g>
<!-- Node8 -->
<g id="node8" class="node">
<title>Node8</title>
<g id="a_node8"><a xlink:href="../../db/d0b/ShiftRegisterOutRGB_8cpp.html" target="_top" xlink:title=" ">
<polygon fill="#ffffff" stroke="#000000" points="203,-168.5 203,-187.5 333,-187.5 333,-168.5 203,-168.5"/>
<text text-anchor="middle" x="268" y="-175.5" font-family="Helvetica,sans-Serif" font-size="10.00" fill="#000000">ShiftRegisterOutRGB.cpp</text>
</a>
</g>
</g>
<!-- Node1&#45;&gt;Node8 -->
<g id="edge10" class="edge">
<title>Node1&#45;&gt;Node8</title>
<path fill="none" stroke="#191970" d="M214.8657,-218.2097C227.8625,-208.3743 244.1622,-196.0394 255.2579,-187.6427"/>
<polygon fill="#191970" stroke="#191970" points="212.7518,-215.4201 206.8898,-224.2455 216.976,-221.002 212.7518,-215.4201"/>
</g>
<!-- Node3 -->
<g id="node3" class="node">
<title>Node3</title>
<g id="a_node3"><a xlink:href="../../d8/d93/ShiftRegisterOutBase_8hpp.html" target="_top" xlink:title=" ">
<polygon fill="#ffffff" stroke="#000000" points="55.5,-112.5 55.5,-131.5 186.5,-131.5 186.5,-112.5 55.5,-112.5"/>
<text text-anchor="middle" x="121" y="-119.5" font-family="Helvetica,sans-Serif" font-size="10.00" fill="#000000">ShiftRegisterOutBase.hpp</text>
</a>
</g>
</g>
<!-- Node2&#45;&gt;Node3 -->
<g id="edge2" class="edge">
<title>Node2&#45;&gt;Node3</title>
<path fill="none" stroke="#191970" d="M114.5113,-158.1575C113.919,-149.155 114.3335,-138.9199 115.7549,-131.6427"/>
<polygon fill="#191970" stroke="#191970" points="111.0561,-158.739 115.7332,-168.2455 118.0053,-157.8972 111.0561,-158.739"/>
</g>
<!-- Node3&#45;&gt;Node2 -->
<g id="edge6" class="edge">
<title>Node3&#45;&gt;Node2</title>
<path fill="none" stroke="#191970" d="M127.4795,-141.7046C128.0821,-150.6944 127.6779,-160.9382 126.2668,-168.2455"/>
<polygon fill="#191970" stroke="#191970" points="130.9368,-141.1421 126.2451,-131.6427 123.9889,-141.9945 130.9368,-141.1421"/>
</g>
<!-- Node4 -->
<g id="node4" class="node">
<title>Node4</title>
<g id="a_node4"><a xlink:href="../../d0/db4/ShiftRegisterOut_8hpp.html" target="_top" xlink:title=" ">
<polygon fill="#ffffff" stroke="#000000" points="0,-56.5 0,-75.5 108,-75.5 108,-56.5 0,-56.5"/>
<text text-anchor="middle" x="54" y="-63.5" font-family="Helvetica,sans-Serif" font-size="10.00" fill="#000000">ShiftRegisterOut.hpp</text>
</a>
</g>
</g>
<!-- Node3&#45;&gt;Node4 -->
<g id="edge3" class="edge">
<title>Node3&#45;&gt;Node4</title>
<path fill="none" stroke="#191970" d="M101.4324,-105.645C89.7802,-95.9058 75.3916,-83.8795 65.5368,-75.6427"/>
<polygon fill="#191970" stroke="#191970" points="99.4121,-108.5179 109.3295,-112.2455 103.9012,-103.1469 99.4121,-108.5179"/>
</g>
<!-- Node6 -->
<g id="node6" class="node">
<title>Node6</title>
<g id="a_node6"><a xlink:href="../../d7/d88/SPIShiftRegisterOut_8hpp.html" target="_top" xlink:title=" ">
<polygon fill="#ffffff" stroke="#000000" points="126.5,-56.5 126.5,-75.5 251.5,-75.5 251.5,-56.5 126.5,-56.5"/>
<text text-anchor="middle" x="189" y="-63.5" font-family="Helvetica,sans-Serif" font-size="10.00" fill="#000000">SPIShiftRegisterOut.hpp</text>
</a>
</g>
</g>
<!-- Node3&#45;&gt;Node6 -->
<g id="edge7" class="edge">
<title>Node3&#45;&gt;Node6</title>
<path fill="none" stroke="#191970" d="M140.8596,-105.645C152.6858,-95.9058 167.2892,-83.8795 177.291,-75.6427"/>
<polygon fill="#191970" stroke="#191970" points="138.339,-103.1867 132.8447,-112.2455 142.789,-108.5902 138.339,-103.1867"/>
</g>
<!-- Node5 -->
<g id="node5" class="node">
<title>Node5</title>
<g id="a_node5"><a xlink:href="../../de/d95/ShiftRegisterOut_8ipp.html" target="_top" xlink:title=" ">
<polygon fill="#ffffff" stroke="#000000" points="1.5,-.5 1.5,-19.5 106.5,-19.5 106.5,-.5 1.5,-.5"/>
<text text-anchor="middle" x="54" y="-7.5" font-family="Helvetica,sans-Serif" font-size="10.00" fill="#000000">ShiftRegisterOut.ipp</text>
</a>
</g>
</g>
<!-- Node4&#45;&gt;Node5 -->
<g id="edge4" class="edge">
<title>Node4&#45;&gt;Node5</title>
<path fill="none" stroke="#191970" d="M47.5113,-46.1575C46.919,-37.155 47.3335,-26.9199 48.7549,-19.6427"/>
<polygon fill="#191970" stroke="#191970" points="44.0561,-46.739 48.7332,-56.2455 51.0053,-45.8972 44.0561,-46.739"/>
</g>
<!-- Node5&#45;&gt;Node4 -->
<g id="edge5" class="edge">
<title>Node5&#45;&gt;Node4</title>
<path fill="none" stroke="#191970" d="M60.4795,-29.7046C61.0821,-38.6944 60.6779,-48.9382 59.2668,-56.2455"/>
<polygon fill="#191970" stroke="#191970" points="63.9368,-29.1421 59.2451,-19.6427 56.9889,-29.9945 63.9368,-29.1421"/>
</g>
<!-- Node7 -->
<g id="node7" class="node">
<title>Node7</title>
<g id="a_node7"><a xlink:href="../../da/d45/SPIShiftRegisterOut_8ipp.html" target="_top" xlink:title=" ">
<polygon fill="#ffffff" stroke="#000000" points="128,-.5 128,-19.5 250,-19.5 250,-.5 128,-.5"/>
<text text-anchor="middle" x="189" y="-7.5" font-family="Helvetica,sans-Serif" font-size="10.00" fill="#000000">SPIShiftRegisterOut.ipp</text>
</a>
</g>
</g>
<!-- Node6&#45;&gt;Node7 -->
<g id="edge8" class="edge">
<title>Node6&#45;&gt;Node7</title>
<path fill="none" stroke="#191970" d="M182.5113,-46.1575C181.919,-37.155 182.3335,-26.9199 183.7549,-19.6427"/>
<polygon fill="#191970" stroke="#191970" points="179.0561,-46.739 183.7332,-56.2455 186.0053,-45.8972 179.0561,-46.739"/>
</g>
<!-- Node7&#45;&gt;Node6 -->
<g id="edge9" class="edge">
<title>Node7&#45;&gt;Node6</title>
<path fill="none" stroke="#191970" d="M195.4795,-29.7046C196.0821,-38.6944 195.6779,-48.9382 194.2668,-56.2455"/>
<polygon fill="#191970" stroke="#191970" points="198.9368,-29.1421 194.2451,-19.6427 191.9889,-29.9945 198.9368,-29.1421"/>
</g>
</g>
</svg>
