<?xml version="1.0" encoding="UTF-8" standalone="no"?>
<!DOCTYPE svg PUBLIC "-//W3C//DTD SVG 1.1//EN"
 "http://www.w3.org/Graphics/SVG/1.1/DTD/svg11.dtd">
<!-- Generated by graphviz version 2.38.0 (20140413.2041)
 -->
<!-- Title: IIRFilter&lt; NB, NA, T &gt; Pages: 1 -->
<svg width="124pt" height="182pt"
 viewBox="0.00 0.00 124.00 182.00" xmlns="http://www.w3.org/2000/svg" xmlns:xlink="http://www.w3.org/1999/xlink">
<g id="graph0" class="graph" transform="scale(1 1) rotate(0) translate(4 178)">
<title>IIRFilter&lt; NB, NA, T &gt;</title>
<polygon fill="white" stroke="none" points="-4,4 -4,-178 120,-178 120,4 -4,4"/>
<!-- Node1 -->
<g id="node1" class="node"><title>Node1</title>
<g id="a_node1"><a xlink:title="Generic Infinite Impulse Response filter class.">
<polygon fill="#bfbfbf" stroke="black" points="-7.10543e-15,-0.5 -7.10543e-15,-68.5 116,-68.5 116,-0.5 -7.10543e-15,-0.5"/>
<text text-anchor="middle" x="58" y="-56.5" font-family="Helvetica,sans-Serif" font-size="10.00">IIRFilter&lt; NB, NA, T &gt;</text>
<polyline fill="none" stroke="black" points="-7.10543e-15,-49.5 116,-49.5 "/>
<text text-anchor="middle" x="58" y="-37.5" font-family="Helvetica,sans-Serif" font-size="10.00"> </text>
<polyline fill="none" stroke="black" points="-7.10543e-15,-30.5 116,-30.5 "/>
<text text-anchor="start" x="8" y="-18.5" font-family="Helvetica,sans-Serif" font-size="10.00">+ IIRFilter()</text>
<text text-anchor="start" x="8" y="-7.5" font-family="Helvetica,sans-Serif" font-size="10.00">+ operator()()</text>
</a>
</g>
</g>
<!-- Node2 -->
<g id="node2" class="node"><title>Node2</title>
<g id="a_node2"><a xlink:title=" ">
<polygon fill="white" stroke="#bfbfbf" points="6.5,-105.5 6.5,-173.5 109.5,-173.5 109.5,-105.5 6.5,-105.5"/>
<text text-anchor="start" x="14.5" y="-161.5" font-family="Helvetica,sans-Serif" font-size="10.00">IIRImplementation&lt;</text>
<text text-anchor="middle" x="58" y="-150.5" font-family="Helvetica,sans-Serif" font-size="10.00"> NB, NA, T &gt;</text>
<polyline fill="none" stroke="#bfbfbf" points="6.5,-143.5 109.5,-143.5 "/>
<text text-anchor="middle" x="58" y="-131.5" font-family="Helvetica,sans-Serif" font-size="10.00"> </text>
<polyline fill="none" stroke="#bfbfbf" points="6.5,-124.5 109.5,-124.5 "/>
<text text-anchor="middle" x="58" y="-112.5" font-family="Helvetica,sans-Serif" font-size="10.00"> </text>
</a>
</g>
</g>
<!-- Node2&#45;&gt;Node1 -->
<g id="edge1" class="edge"><title>Node2&#45;&gt;Node1</title>
<path fill="none" stroke="midnightblue" d="M58,-95.1362C58,-86.256 58,-77.0447 58,-68.5947"/>
<polygon fill="none" stroke="midnightblue" points="54.5001,-95.3432 58,-105.343 61.5001,-95.3432 54.5001,-95.3432"/>
</g>
</g>
</svg>
