<?xml version="1.0" encoding="UTF-8" standalone="no"?>
<!DOCTYPE svg PUBLIC "-//W3C//DTD SVG 1.1//EN"
 "http://www.w3.org/Graphics/SVG/1.1/DTD/svg11.dtd">
<!-- Generated by graphviz version 2.40.1 (20161225.0304)
 -->
<!-- Title: IIRFilter&lt; NB, NA, T &gt; Pages: 1 -->
<svg width="124pt" height="193pt"
 viewBox="0.00 0.00 124.00 193.00" xmlns="http://www.w3.org/2000/svg" xmlns:xlink="http://www.w3.org/1999/xlink">
<g id="graph0" class="graph" transform="scale(1 1) rotate(0) translate(4 189)">
<title>IIRFilter&lt; NB, NA, T &gt;</title>
<polygon fill="#ffffff" stroke="transparent" points="-4,4 -4,-189 120,-189 120,4 -4,4"/>
<!-- Node1 -->
<g id="node1" class="node">
<title>Node1</title>
<g id="a_node1"><a xlink:title="Generic Infinite Impulse Response filter class.">
<polygon fill="#bfbfbf" stroke="#000000" points="0,-.5 0,-79.5 116,-79.5 116,-.5 0,-.5"/>
<text text-anchor="middle" x="58" y="-67.5" font-family="Helvetica,sans-Serif" font-size="10.00" fill="#000000">IIRFilter&lt; NB, NA, T &gt;</text>
<polyline fill="none" stroke="#000000" points="0,-60.5 116,-60.5 "/>
<text text-anchor="middle" x="58" y="-48.5" font-family="Helvetica,sans-Serif" font-size="10.00" fill="#000000"> </text>
<polyline fill="none" stroke="#000000" points="0,-41.5 116,-41.5 "/>
<text text-anchor="start" x="8" y="-29.5" font-family="Helvetica,sans-Serif" font-size="10.00" fill="#000000">+ IIRFilter()</text>
<text text-anchor="start" x="8" y="-18.5" font-family="Helvetica,sans-Serif" font-size="10.00" fill="#000000">+ IIRFilter()</text>
<text text-anchor="start" x="8" y="-7.5" font-family="Helvetica,sans-Serif" font-size="10.00" fill="#000000">+ operator()()</text>
</a>
</g>
</g>
<!-- Node2 -->
<g id="node2" class="node">
<title>Node2</title>
<g id="a_node2"><a xlink:title=" ">
<polygon fill="#ffffff" stroke="#bfbfbf" points="6.5,-116.5 6.5,-184.5 109.5,-184.5 109.5,-116.5 6.5,-116.5"/>
<text text-anchor="start" x="14.5" y="-172.5" font-family="Helvetica,sans-Serif" font-size="10.00" fill="#000000">IIRImplementation&lt;</text>
<text text-anchor="middle" x="58" y="-161.5" font-family="Helvetica,sans-Serif" font-size="10.00" fill="#000000"> NB, NB , float &gt;</text>
<polyline fill="none" stroke="#bfbfbf" points="6.5,-154.5 109.5,-154.5 "/>
<text text-anchor="middle" x="58" y="-142.5" font-family="Helvetica,sans-Serif" font-size="10.00" fill="#000000"> </text>
<polyline fill="none" stroke="#bfbfbf" points="6.5,-135.5 109.5,-135.5 "/>
<text text-anchor="middle" x="58" y="-123.5" font-family="Helvetica,sans-Serif" font-size="10.00" fill="#000000"> </text>
</a>
</g>
</g>
<!-- Node2&#45;&gt;Node1 -->
<g id="edge1" class="edge">
<title>Node2&#45;&gt;Node1</title>
<path fill="none" stroke="#191970" d="M58,-106.3044C58,-97.4634 58,-88.2287 58,-79.5566"/>
<polygon fill="none" stroke="#191970" points="54.5001,-106.4447 58,-116.4447 61.5001,-106.4447 54.5001,-106.4447"/>
</g>
</g>
</svg>
