<?xml version="1.0" encoding="UTF-8" standalone="no"?>
<!DOCTYPE svg PUBLIC "-//W3C//DTD SVG 1.1//EN"
 "http://www.w3.org/Graphics/SVG/1.1/DTD/svg11.dtd">
<!-- Generated by graphviz version 2.40.1 (20161225.0304)
 -->
<!-- Title: Arduino_Helpers.h Pages: 1 -->
<svg width="457pt" height="196pt"
 viewBox="0.00 0.00 456.50 196.00" xmlns="http://www.w3.org/2000/svg" xmlns:xlink="http://www.w3.org/1999/xlink">
<g id="graph0" class="graph" transform="scale(1 1) rotate(0) translate(4 192)">
<title>Arduino_Helpers.h</title>
<polygon fill="#ffffff" stroke="transparent" points="-4,4 -4,-192 452.5,-192 452.5,4 -4,4"/>
<!-- Node1 -->
<g id="node1" class="node">
<title>Node1</title>
<g id="a_node1"><a xlink:title="Dummy header file for Arduino builder. You have to add this file first, so the other headers are in t...">
<polygon fill="#bfbfbf" stroke="#000000" points="124,-168.5 124,-187.5 221,-187.5 221,-168.5 124,-168.5"/>
<text text-anchor="middle" x="172.5" y="-175.5" font-family="Helvetica,sans-Serif" font-size="10.00" fill="#000000">Arduino_Helpers.h</text>
</a>
</g>
</g>
<!-- Node2 -->
<g id="node2" class="node">
<title>Node2</title>
<g id="a_node2"><a xlink:href="../../d7/d79/MinMaxFix_8hpp.html" target="_top" xlink:title=" ">
<polygon fill="#ffffff" stroke="#000000" points="110,-112.5 110,-131.5 235,-131.5 235,-112.5 110,-112.5"/>
<text text-anchor="middle" x="172.5" y="-119.5" font-family="Helvetica,sans-Serif" font-size="10.00" fill="#000000">AH/Math/MinMaxFix.hpp</text>
</a>
</g>
</g>
<!-- Node1&#45;&gt;Node2 -->
<g id="edge1" class="edge">
<title>Node1&#45;&gt;Node2</title>
<path fill="none" stroke="#191970" d="M172.5,-168.2455C172.5,-160.9382 172.5,-150.6944 172.5,-141.7046"/>
<polygon fill="#191970" stroke="#191970" points="176.0001,-141.6426 172.5,-131.6427 169.0001,-141.6427 176.0001,-141.6426"/>
</g>
<!-- Node3 -->
<g id="node3" class="node">
<title>Node3</title>
<g id="a_node3"><a xlink:href="../../d1/d65/Warnings_8hpp.html" target="_top" xlink:title=" ">
<polygon fill="#ffffff" stroke="#000000" points="0,-.5 0,-19.5 133,-19.5 133,-.5 0,-.5"/>
<text text-anchor="middle" x="66.5" y="-7.5" font-family="Helvetica,sans-Serif" font-size="10.00" fill="#000000">AH/Settings/Warnings.hpp</text>
</a>
</g>
</g>
<!-- Node2&#45;&gt;Node3 -->
<g id="edge2" class="edge">
<title>Node2&#45;&gt;Node3</title>
<path fill="none" stroke="#191970" d="M141.049,-112.3973C122.4086,-105.1859 99.7225,-93.5029 85.5,-76 74.8201,-62.8567 70.1423,-43.9818 68.0941,-29.7808"/>
<polygon fill="#191970" stroke="#191970" points="71.5442,-29.14 66.9507,-19.5928 64.5879,-29.9208 71.5442,-29.14"/>
</g>
<!-- Node4 -->
<g id="node4" class="node">
<title>Node4</title>
<g id="a_node4"><a xlink:href="../../d6/d3b/FixArduinoMacros_8hpp.html" target="_top" xlink:title=" ">
<polygon fill="#ffffff" stroke="#000000" points="94.5,-56.5 94.5,-75.5 250.5,-75.5 250.5,-56.5 94.5,-56.5"/>
<text text-anchor="middle" x="172.5" y="-63.5" font-family="Helvetica,sans-Serif" font-size="10.00" fill="#000000">AH/Math/FixArduinoMacros.hpp</text>
</a>
</g>
</g>
<!-- Node2&#45;&gt;Node4 -->
<g id="edge3" class="edge">
<title>Node2&#45;&gt;Node4</title>
<path fill="none" stroke="#191970" d="M172.5,-112.2455C172.5,-104.9382 172.5,-94.6944 172.5,-85.7046"/>
<polygon fill="#191970" stroke="#191970" points="176.0001,-85.6426 172.5,-75.6427 169.0001,-85.6427 176.0001,-85.6426"/>
</g>
<!-- Node6 -->
<g id="node6" class="node">
<title>Node6</title>
<g id="a_node6"><a xlink:href="../../dc/dc7/NamespaceSettings_8hpp.html" target="_top" xlink:title=" ">
<polygon fill="#ffffff" stroke="#000000" points="268.5,-56.5 268.5,-75.5 448.5,-75.5 448.5,-56.5 268.5,-56.5"/>
<text text-anchor="middle" x="358.5" y="-63.5" font-family="Helvetica,sans-Serif" font-size="10.00" fill="#000000">AH/Settings/NamespaceSettings.hpp</text>
</a>
</g>
</g>
<!-- Node2&#45;&gt;Node6 -->
<g id="edge6" class="edge">
<title>Node2&#45;&gt;Node6</title>
<path fill="none" stroke="#191970" d="M204.4745,-112.3733C235.6713,-102.9807 283.271,-88.6496 317.2932,-78.4064"/>
<polygon fill="#191970" stroke="#191970" points="318.3763,-81.7355 326.9427,-75.5011 316.3582,-75.0327 318.3763,-81.7355"/>
</g>
<!-- Node4&#45;&gt;Node3 -->
<g id="edge4" class="edge">
<title>Node4&#45;&gt;Node3</title>
<path fill="none" stroke="#191970" d="M154.0362,-56.2455C137.3926,-47.4527 112.7007,-34.4079 93.7808,-24.4125"/>
<polygon fill="#191970" stroke="#191970" points="95.2291,-21.2193 84.7522,-19.6427 91.9592,-27.4086 95.2291,-21.2193"/>
</g>
<!-- Node5 -->
<g id="node5" class="node">
<title>Node5</title>
<g id="a_node5"><a xlink:title=" ">
<polygon fill="#ffffff" stroke="#bfbfbf" points="151.5,-.5 151.5,-19.5 209.5,-19.5 209.5,-.5 151.5,-.5"/>
<text text-anchor="middle" x="180.5" y="-7.5" font-family="Helvetica,sans-Serif" font-size="10.00" fill="#000000">Arduino.h</text>
</a>
</g>
</g>
<!-- Node4&#45;&gt;Node5 -->
<g id="edge5" class="edge">
<title>Node4&#45;&gt;Node5</title>
<path fill="none" stroke="#191970" d="M173.8935,-56.2455C174.9374,-48.9382 176.4008,-38.6944 177.6851,-29.7046"/>
<polygon fill="#191970" stroke="#191970" points="181.173,-30.0372 179.1225,-19.6427 174.2434,-29.0472 181.173,-30.0372"/>
</g>
</g>
</svg>
