<?xml version="1.0" encoding="UTF-8" standalone="no"?>
<!DOCTYPE svg PUBLIC "-//W3C//DTD SVG 1.1//EN"
 "http://www.w3.org/Graphics/SVG/1.1/DTD/svg11.dtd">
<!-- Generated by graphviz version 2.40.1 (20161225.0304)
 -->
<!-- Title: UniquePtr.hpp Pages: 1 -->
<svg width="357pt" height="84pt"
 viewBox="0.00 0.00 356.50 84.00" xmlns="http://www.w3.org/2000/svg" xmlns:xlink="http://www.w3.org/1999/xlink">
<g id="graph0" class="graph" transform="scale(1 1) rotate(0) translate(4 80)">
<title>UniquePtr.hpp</title>
<polygon fill="#ffffff" stroke="transparent" points="-4,4 -4,-80 352.5,-80 352.5,4 -4,4"/>
<!-- Node1 -->
<g id="node1" class="node">
<title>Node1</title>
<g id="a_node1"><a xlink:title=" ">
<polygon fill="#bfbfbf" stroke="#000000" points="162,-56.5 162,-75.5 241,-75.5 241,-56.5 162,-56.5"/>
<text text-anchor="middle" x="201.5" y="-63.5" font-family="Helvetica,sans-Serif" font-size="10.00" fill="#000000">UniquePtr.hpp</text>
</a>
</g>
</g>
<!-- Node2 -->
<g id="node2" class="node">
<title>Node2</title>
<g id="a_node2"><a xlink:href="../../d1/d65/Warnings_8hpp.html" target="_top" xlink:title=" ">
<polygon fill="#ffffff" stroke="#000000" points="0,-.5 0,-19.5 133,-19.5 133,-.5 0,-.5"/>
<text text-anchor="middle" x="66.5" y="-7.5" font-family="Helvetica,sans-Serif" font-size="10.00" fill="#000000">AH/Settings/Warnings.hpp</text>
</a>
</g>
</g>
<!-- Node1&#45;&gt;Node2 -->
<g id="edge1" class="edge">
<title>Node1&#45;&gt;Node2</title>
<path fill="none" stroke="#191970" d="M178.2927,-56.3733C156.3301,-47.2629 123.1668,-33.5062 98.6599,-23.3404"/>
<polygon fill="#191970" stroke="#191970" points="99.9824,-20.0999 89.4045,-19.5011 97.3003,-26.5657 99.9824,-20.0999"/>
</g>
<!-- Node3 -->
<g id="node3" class="node">
<title>Node3</title>
<g id="a_node3"><a xlink:title=" ">
<polygon fill="#ffffff" stroke="#bfbfbf" points="151,-.5 151,-19.5 252,-19.5 252,-.5 151,-.5"/>
<text text-anchor="middle" x="201.5" y="-7.5" font-family="Helvetica,sans-Serif" font-size="10.00" fill="#000000">AH/STL/type_traits</text>
</a>
</g>
</g>
<!-- Node1&#45;&gt;Node3 -->
<g id="edge2" class="edge">
<title>Node1&#45;&gt;Node3</title>
<path fill="none" stroke="#191970" d="M201.5,-56.2455C201.5,-48.9382 201.5,-38.6944 201.5,-29.7046"/>
<polygon fill="#191970" stroke="#191970" points="205.0001,-29.6426 201.5,-19.6427 198.0001,-29.6427 205.0001,-29.6426"/>
</g>
<!-- Node4 -->
<g id="node4" class="node">
<title>Node4</title>
<g id="a_node4"><a xlink:title=" ">
<polygon fill="#ffffff" stroke="#bfbfbf" points="270.5,-.5 270.5,-19.5 348.5,-19.5 348.5,-.5 270.5,-.5"/>
<text text-anchor="middle" x="309.5" y="-7.5" font-family="Helvetica,sans-Serif" font-size="10.00" fill="#000000">AH/STL/utility</text>
</a>
</g>
</g>
<!-- Node1&#45;&gt;Node4 -->
<g id="edge3" class="edge">
<title>Node1&#45;&gt;Node4</title>
<path fill="none" stroke="#191970" d="M220.3122,-56.2455C237.3473,-47.4125 262.6575,-34.2887 281.9681,-24.2758"/>
<polygon fill="#191970" stroke="#191970" points="283.637,-27.353 290.9034,-19.6427 280.4147,-21.1388 283.637,-27.353"/>
</g>
</g>
</svg>
