<?xml version="1.0" encoding="UTF-8" standalone="no"?>
<!DOCTYPE svg PUBLIC "-//W3C//DTD SVG 1.1//EN"
 "http://www.w3.org/Graphics/SVG/1.1/DTD/svg11.dtd">
<!-- Generated by graphviz version 2.43.0 (0)
 -->
<!-- Title: ExtendedInputOutput.cpp Pages: 1 -->
<svg width="1522pt" height="834pt"
 viewBox="0.00 0.00 1522.00 834.00" xmlns="http://www.w3.org/2000/svg" xmlns:xlink="http://www.w3.org/1999/xlink">
<g id="graph0" class="graph" transform="scale(1 1) rotate(0) translate(4 830)">
<title>ExtendedInputOutput.cpp</title>
<polygon fill="white" stroke="transparent" points="-4,4 -4,-830 1518,-830 1518,4 -4,4"/>
<!-- Node1 -->
<g id="node1" class="node">
<title>Node1</title>
<g id="a_node1"><a xlink:title=" ">
<polygon fill="#bfbfbf" stroke="black" points="337,-806.5 337,-825.5 477,-825.5 477,-806.5 337,-806.5"/>
<text text-anchor="middle" x="407" y="-813.5" font-family="Helvetica,sans-Serif" font-size="10.00">ExtendedInputOutput.cpp</text>
</a>
</g>
</g>
<!-- Node2 -->
<g id="node2" class="node">
<title>Node2</title>
<g id="a_node2"><a xlink:href="../../d1/d65/Warnings_8hpp.html" target="_top" xlink:title=" ">
<polygon fill="white" stroke="black" points="639.5,-0.5 639.5,-19.5 782.5,-19.5 782.5,-0.5 639.5,-0.5"/>
<text text-anchor="middle" x="711" y="-7.5" font-family="Helvetica,sans-Serif" font-size="10.00">AH/Settings/Warnings.hpp</text>
</a>
</g>
</g>
<!-- Node1&#45;&gt;Node2 -->
<g id="edge1" class="edge">
<title>Node1&#45;&gt;Node2</title>
<path fill="none" stroke="midnightblue" d="M336.57,-810.44C220.08,-800.95 0,-773.89 0,-705 0,-705 0,-705 0,-121 0,-87.54 9.55,-73.61 38,-56 87.15,-25.57 460.9,-15.31 629.25,-12.21"/>
<polygon fill="midnightblue" stroke="midnightblue" points="629.37,-15.71 639.3,-12.03 629.24,-8.71 629.37,-15.71"/>
</g>
<!-- Node3 -->
<g id="node3" class="node">
<title>Node3</title>
<g id="a_node3"><a xlink:href="../../d4/d57/ExtendedIOElement_8hpp.html" target="_top" xlink:title=" ">
<polygon fill="white" stroke="black" points="384,-750.5 384,-769.5 518,-769.5 518,-750.5 384,-750.5"/>
<text text-anchor="middle" x="451" y="-757.5" font-family="Helvetica,sans-Serif" font-size="10.00">ExtendedIOElement.hpp</text>
</a>
</g>
</g>
<!-- Node1&#45;&gt;Node3 -->
<g id="edge2" class="edge">
<title>Node1&#45;&gt;Node3</title>
<path fill="none" stroke="midnightblue" d="M414.27,-806.08C420.54,-798.38 429.79,-787.03 437.43,-777.65"/>
<polygon fill="midnightblue" stroke="midnightblue" points="440.27,-779.71 443.87,-769.75 434.84,-775.29 440.27,-779.71"/>
</g>
<!-- Node4 -->
<g id="node4" class="node">
<title>Node4</title>
<g id="a_node4"><a xlink:href="../../dd/ddf/ExtendedInputOutput_8hpp.html" target="_top" xlink:title=" ">
<polygon fill="white" stroke="black" points="273.5,-694.5 273.5,-713.5 414.5,-713.5 414.5,-694.5 273.5,-694.5"/>
<text text-anchor="middle" x="344" y="-701.5" font-family="Helvetica,sans-Serif" font-size="10.00">ExtendedInputOutput.hpp</text>
</a>
</g>
</g>
<!-- Node1&#45;&gt;Node4 -->
<g id="edge71" class="edge">
<title>Node1&#45;&gt;Node4</title>
<path fill="none" stroke="midnightblue" d="M400.16,-806.34C393.33,-797.49 382.77,-783.22 375,-770 366,-754.69 357.44,-736.36 351.61,-723.08"/>
<polygon fill="midnightblue" stroke="midnightblue" points="354.72,-721.46 347.56,-713.66 348.29,-724.22 354.72,-721.46"/>
</g>
<!-- Node8 -->
<g id="node8" class="node">
<title>Node8</title>
<g id="a_node8"><a xlink:href="../../d1/d93/Error_8hpp.html" target="_top" xlink:title=" ">
<polygon fill="white" stroke="black" points="613,-448.5 613,-467.5 717,-467.5 717,-448.5 613,-448.5"/>
<text text-anchor="middle" x="665" y="-455.5" font-family="Helvetica,sans-Serif" font-size="10.00">AH/Error/Error.hpp</text>
</a>
</g>
</g>
<!-- Node1&#45;&gt;Node8 -->
<g id="edge72" class="edge">
<title>Node1&#45;&gt;Node8</title>
<path fill="none" stroke="midnightblue" d="M477.06,-809.99C591.03,-799.89 804,-772.05 804,-705 804,-705 804,-705 804,-574.5 804,-521.05 742.46,-487.59 701.27,-471.19"/>
<polygon fill="midnightblue" stroke="midnightblue" points="702.39,-467.87 691.8,-467.57 699.89,-474.41 702.39,-467.87"/>
</g>
<!-- Node3&#45;&gt;Node2 -->
<g id="edge3" class="edge">
<title>Node3&#45;&gt;Node2</title>
<path fill="none" stroke="midnightblue" d="M518.3,-758.02C751.97,-752.84 1514,-720.21 1514,-515 1514,-515 1514,-515 1514,-121 1514,-82.58 1491.5,-72.91 1457,-56 1398.57,-27.37 973.72,-15.98 792.53,-12.39"/>
<polygon fill="midnightblue" stroke="midnightblue" points="792.58,-8.89 782.51,-12.19 792.44,-15.89 792.58,-8.89"/>
</g>
<!-- Node3&#45;&gt;Node4 -->
<g id="edge4" class="edge">
<title>Node3&#45;&gt;Node4</title>
<path fill="none" stroke="midnightblue" d="M433.81,-750.32C416.65,-741.66 390.05,-728.24 370.25,-718.25"/>
<polygon fill="midnightblue" stroke="midnightblue" points="371.65,-715.04 361.15,-713.65 368.5,-721.28 371.65,-715.04"/>
</g>
<!-- Node6 -->
<g id="node6" class="node">
<title>Node6</title>
<g id="a_node6"><a xlink:href="../../d4/d35/Hardware-Types_8hpp.html" target="_top" xlink:title=" ">
<polygon fill="white" stroke="black" points="385.5,-560.5 385.5,-590.5 516.5,-590.5 516.5,-560.5 385.5,-560.5"/>
<text text-anchor="start" x="393.5" y="-578.5" font-family="Helvetica,sans-Serif" font-size="10.00">AH/Hardware/Hardware</text>
<text text-anchor="middle" x="451" y="-567.5" font-family="Helvetica,sans-Serif" font-size="10.00">&#45;Types.hpp</text>
</a>
</g>
</g>
<!-- Node3&#45;&gt;Node6 -->
<g id="edge70" class="edge">
<title>Node3&#45;&gt;Node6</title>
<path fill="none" stroke="midnightblue" d="M451,-750.2C451,-723.39 451,-642.09 451,-600.93"/>
<polygon fill="midnightblue" stroke="midnightblue" points="454.5,-600.69 451,-590.69 447.5,-600.69 454.5,-600.69"/>
</g>
<!-- Node30 -->
<g id="node30" class="node">
<title>Node30</title>
<g id="a_node30"><a xlink:href="../../d4/d93/Updatable_8hpp.html" target="_top" xlink:title=" ">
<polygon fill="white" stroke="black" points="832.5,-504.5 832.5,-523.5 993.5,-523.5 993.5,-504.5 832.5,-504.5"/>
<text text-anchor="middle" x="913" y="-511.5" font-family="Helvetica,sans-Serif" font-size="10.00">AH/Containers/Updatable.hpp</text>
</a>
</g>
</g>
<!-- Node3&#45;&gt;Node30 -->
<g id="edge56" class="edge">
<title>Node3&#45;&gt;Node30</title>
<path fill="none" stroke="midnightblue" d="M467.17,-750.46C535.84,-714.19 803.6,-572.78 887.63,-528.4"/>
<polygon fill="midnightblue" stroke="midnightblue" points="889.51,-531.36 896.72,-523.6 886.24,-525.17 889.51,-531.36"/>
</g>
<!-- Node4&#45;&gt;Node2 -->
<g id="edge55" class="edge">
<title>Node4&#45;&gt;Node2</title>
<path fill="none" stroke="midnightblue" d="M273.41,-703.32C183.04,-699.59 38,-677.82 38,-576.5 38,-576.5 38,-576.5 38,-121 38,-90.9 33.55,-74.87 57,-56 100.62,-20.91 463.51,-13.17 629.14,-11.48"/>
<polygon fill="midnightblue" stroke="midnightblue" points="629.31,-14.97 639.28,-11.38 629.25,-7.97 629.31,-14.97"/>
</g>
<!-- Node5 -->
<g id="node5" class="node">
<title>Node5</title>
<g id="a_node5"><a xlink:href="../../d2/d3c/Arduino-Hardware-Types_8hpp.html" target="_top" xlink:title=" ">
<polygon fill="white" stroke="black" points="153,-627.5 153,-657.5 275,-657.5 275,-627.5 153,-627.5"/>
<text text-anchor="start" x="161" y="-645.5" font-family="Helvetica,sans-Serif" font-size="10.00">AH/Hardware/Arduino</text>
<text text-anchor="middle" x="214" y="-634.5" font-family="Helvetica,sans-Serif" font-size="10.00">&#45;Hardware&#45;Types.hpp</text>
</a>
</g>
</g>
<!-- Node4&#45;&gt;Node5 -->
<g id="edge5" class="edge">
<title>Node4&#45;&gt;Node5</title>
<path fill="none" stroke="midnightblue" d="M325.37,-694.48C306.78,-685.96 277.62,-672.62 253.8,-661.72"/>
<polygon fill="midnightblue" stroke="midnightblue" points="255.19,-658.5 244.64,-657.52 252.27,-664.87 255.19,-658.5"/>
</g>
<!-- Node11 -->
<g id="node11" class="node">
<title>Node11</title>
<g id="a_node11"><a xlink:href="../../dc/dc7/NamespaceSettings_8hpp.html" target="_top" xlink:title=" ">
<polygon fill="white" stroke="black" points="824.5,-56.5 824.5,-75.5 1019.5,-75.5 1019.5,-56.5 824.5,-56.5"/>
<text text-anchor="middle" x="922" y="-63.5" font-family="Helvetica,sans-Serif" font-size="10.00">AH/Settings/NamespaceSettings.hpp</text>
</a>
</g>
</g>
<!-- Node4&#45;&gt;Node11 -->
<g id="edge54" class="edge">
<title>Node4&#45;&gt;Node11</title>
<path fill="none" stroke="midnightblue" d="M357.06,-694.44C367.91,-686.47 382.57,-673.52 389,-658 394.27,-645.27 391.38,-640.57 389,-627 386.07,-610.24 380.96,-607.27 376,-591 365.85,-557.69 357,-549.82 357,-515 357,-515 357,-515 357,-289 357,-177.43 433.75,-158.85 535,-112 583.1,-89.75 717.32,-77.87 814.21,-72.01"/>
<polygon fill="midnightblue" stroke="midnightblue" points="814.57,-75.5 824.35,-71.41 814.16,-68.51 814.57,-75.5"/>
</g>
<!-- Node29 -->
<g id="node29" class="node">
<title>Node29</title>
<g id="a_node29"><a xlink:title=" ">
<polygon fill="white" stroke="#bfbfbf" points="293.5,-633 293.5,-652 380.5,-652 380.5,-633 293.5,-633"/>
<text text-anchor="middle" x="337" y="-640" font-family="Helvetica,sans-Serif" font-size="10.00">AH/STL/climits</text>
</a>
</g>
</g>
<!-- Node4&#45;&gt;Node29 -->
<g id="edge53" class="edge">
<title>Node4&#45;&gt;Node29</title>
<path fill="none" stroke="midnightblue" d="M343,-694.48C342.01,-686.08 340.47,-672.98 339.2,-662.16"/>
<polygon fill="midnightblue" stroke="midnightblue" points="342.65,-661.53 338,-652.01 335.69,-662.35 342.65,-661.53"/>
</g>
<!-- Node5&#45;&gt;Node2 -->
<g id="edge6" class="edge">
<title>Node5&#45;&gt;Node2</title>
<path fill="none" stroke="midnightblue" d="M237.56,-627.4C268.52,-606.88 319,-565.66 319,-515 319,-515 319,-515 319,-177 319,-43.56 513.99,-15.77 628.92,-10.99"/>
<polygon fill="midnightblue" stroke="midnightblue" points="629.24,-14.48 639.1,-10.61 628.98,-7.48 629.24,-14.48"/>
</g>
<!-- Node5&#45;&gt;Node6 -->
<g id="edge7" class="edge">
<title>Node5&#45;&gt;Node6</title>
<path fill="none" stroke="midnightblue" d="M265.13,-627.48C301.61,-617.47 350.84,-603.97 389.46,-593.38"/>
<polygon fill="midnightblue" stroke="midnightblue" points="390.83,-596.63 399.55,-590.61 388.98,-589.88 390.83,-596.63"/>
</g>
<!-- Node12 -->
<g id="node12" class="node">
<title>Node12</title>
<g id="a_node12"><a xlink:href="../../d6/ddf/Arduino-Wrapper_8h.html" target="_top" xlink:title=" ">
<polygon fill="white" stroke="black" points="1183,-168.5 1183,-187.5 1307,-187.5 1307,-168.5 1183,-168.5"/>
<text text-anchor="middle" x="1245" y="-175.5" font-family="Helvetica,sans-Serif" font-size="10.00">AH/Arduino&#45;Wrapper.h</text>
</a>
</g>
</g>
<!-- Node5&#45;&gt;Node12 -->
<g id="edge52" class="edge">
<title>Node5&#45;&gt;Node12</title>
<path fill="none" stroke="midnightblue" d="M275.01,-628.45C278.05,-627.93 281.05,-627.44 284,-627 415.55,-607.26 1476,-648.03 1476,-515 1476,-515 1476,-515 1476,-345 1476,-293.84 1427.55,-301.22 1381,-280 1323.32,-253.71 1281.75,-294.16 1243,-244 1232.88,-230.9 1235.01,-211.48 1238.67,-197.28"/>
<polygon fill="midnightblue" stroke="midnightblue" points="1242.05,-198.22 1241.6,-187.63 1235.35,-196.19 1242.05,-198.22"/>
</g>
<!-- Node26 -->
<g id="node26" class="node">
<title>Node26</title>
<g id="a_node26"><a xlink:href="../../d0/db1/FunctionTraits_8hpp.html" target="_top" xlink:title=" ">
<polygon fill="white" stroke="black" points="137.5,-112.5 137.5,-131.5 290.5,-131.5 290.5,-112.5 137.5,-112.5"/>
<text text-anchor="middle" x="214" y="-119.5" font-family="Helvetica,sans-Serif" font-size="10.00">AH/Types/FunctionTraits.hpp</text>
</a>
</g>
</g>
<!-- Node5&#45;&gt;Node26 -->
<g id="edge47" class="edge">
<title>Node5&#45;&gt;Node26</title>
<path fill="none" stroke="midnightblue" d="M214,-627.46C214,-604.12 214,-555.85 214,-515 214,-515 214,-515 214,-233 214,-200.95 214,-163.64 214,-141.75"/>
<polygon fill="midnightblue" stroke="midnightblue" points="217.5,-141.56 214,-131.56 210.5,-141.56 217.5,-141.56"/>
</g>
<!-- Node6&#45;&gt;Node2 -->
<g id="edge8" class="edge">
<title>Node6&#45;&gt;Node2</title>
<path fill="none" stroke="midnightblue" d="M438.85,-560.26C422.38,-539.46 395,-498.89 395,-459 395,-459 395,-459 395,-289 395,-181.37 369.39,-112.5 461,-56 488.69,-38.92 567.5,-26.58 629.31,-19.19"/>
<polygon fill="midnightblue" stroke="midnightblue" points="629.93,-22.64 639.46,-18 629.12,-15.69 629.93,-22.64"/>
</g>
<!-- Node7 -->
<g id="node7" class="node">
<title>Node7</title>
<g id="a_node7"><a xlink:href="../../de/d76/Array_8hpp.html" target="_top" xlink:title=" ">
<polygon fill="white" stroke="black" points="537.5,-504.5 537.5,-523.5 672.5,-523.5 672.5,-504.5 537.5,-504.5"/>
<text text-anchor="middle" x="605" y="-511.5" font-family="Helvetica,sans-Serif" font-size="10.00">AH/Containers/Array.hpp</text>
</a>
</g>
</g>
<!-- Node6&#45;&gt;Node7 -->
<g id="edge9" class="edge">
<title>Node6&#45;&gt;Node7</title>
<path fill="none" stroke="midnightblue" d="M487.5,-560.4C513.57,-550.33 548.29,-536.91 573.22,-527.28"/>
<polygon fill="midnightblue" stroke="midnightblue" points="574.53,-530.53 582.59,-523.66 572,-524 574.53,-530.53"/>
</g>
<!-- Node6&#45;&gt;Node11 -->
<g id="edge45" class="edge">
<title>Node6&#45;&gt;Node11</title>
<path fill="none" stroke="midnightblue" d="M447.36,-560.39C442.1,-538.73 433,-495.94 433,-459 433,-459 433,-459 433,-345 433,-225.54 467.57,-178.21 567,-112 606.4,-85.77 724.67,-74.82 813.96,-70.25"/>
<polygon fill="midnightblue" stroke="midnightblue" points="814.33,-73.74 824.15,-69.76 813.99,-66.75 814.33,-73.74"/>
</g>
<!-- Node23 -->
<g id="node23" class="node">
<title>Node23</title>
<g id="a_node23"><a xlink:title=" ">
<polygon fill="white" stroke="#bfbfbf" points="689.5,-224.5 689.5,-243.5 742.5,-243.5 742.5,-224.5 689.5,-224.5"/>
<text text-anchor="middle" x="716" y="-231.5" font-family="Helvetica,sans-Serif" font-size="10.00">stdint.h</text>
</a>
</g>
</g>
<!-- Node6&#45;&gt;Node23 -->
<g id="edge46" class="edge">
<title>Node6&#45;&gt;Node23</title>
<path fill="none" stroke="midnightblue" d="M462.05,-560.34C504.54,-505.91 657.28,-310.22 702.99,-251.67"/>
<polygon fill="midnightblue" stroke="midnightblue" points="705.76,-253.81 709.15,-243.77 700.24,-249.5 705.76,-253.81"/>
</g>
<!-- Node7&#45;&gt;Node2 -->
<g id="edge10" class="edge">
<title>Node7&#45;&gt;Node2</title>
<path fill="none" stroke="midnightblue" d="M577.88,-504.47C538.73,-490.27 471,-457.78 471,-403 471,-403 471,-403 471,-345 471,-269.31 433,-254.69 433,-179 433,-179 433,-179 433,-121 433,-75.53 471.17,-76 512,-56 548.35,-38.2 591.89,-27.32 628.96,-20.74"/>
<polygon fill="midnightblue" stroke="midnightblue" points="629.97,-24.12 639.24,-18.99 628.79,-17.22 629.97,-24.12"/>
</g>
<!-- Node7&#45;&gt;Node8 -->
<g id="edge11" class="edge">
<title>Node7&#45;&gt;Node8</title>
<path fill="none" stroke="midnightblue" d="M614.64,-504.32C623.51,-496.34 636.87,-484.31 647.61,-474.65"/>
<polygon fill="midnightblue" stroke="midnightblue" points="650.09,-477.13 655.18,-467.83 645.41,-471.92 650.09,-477.13"/>
</g>
<!-- Node16 -->
<g id="node16" class="node">
<title>Node16</title>
<g id="a_node16"><a xlink:title=" ">
<polygon fill="white" stroke="#bfbfbf" points="575.5,-112.5 575.5,-131.5 682.5,-131.5 682.5,-112.5 575.5,-112.5"/>
<text text-anchor="middle" x="629" y="-119.5" font-family="Helvetica,sans-Serif" font-size="10.00">AH/STL/type_traits</text>
</a>
</g>
</g>
<!-- Node7&#45;&gt;Node16 -->
<g id="edge43" class="edge">
<title>Node7&#45;&gt;Node16</title>
<path fill="none" stroke="midnightblue" d="M596.69,-504.41C580.65,-486.89 547,-445.1 547,-403 547,-403 547,-403 547,-289 547,-228.7 591.03,-167.64 614.56,-139.31"/>
<polygon fill="midnightblue" stroke="midnightblue" points="617.31,-141.48 621.14,-131.6 611.98,-136.94 617.31,-141.48"/>
</g>
<!-- Node22 -->
<g id="node22" class="node">
<title>Node22</title>
<g id="a_node22"><a xlink:title=" ">
<polygon fill="white" stroke="#bfbfbf" points="761,-224.5 761,-243.5 817,-243.5 817,-224.5 761,-224.5"/>
<text text-anchor="middle" x="789" y="-231.5" font-family="Helvetica,sans-Serif" font-size="10.00">stddef.h</text>
</a>
</g>
</g>
<!-- Node7&#45;&gt;Node22 -->
<g id="edge44" class="edge">
<title>Node7&#45;&gt;Node22</title>
<path fill="none" stroke="midnightblue" d="M602.91,-504.25C600.27,-491.43 596.89,-467.03 604,-448 637.54,-358.23 727.87,-281.27 768.59,-249.97"/>
<polygon fill="midnightblue" stroke="midnightblue" points="770.85,-252.65 776.71,-243.83 766.63,-247.07 770.85,-252.65"/>
</g>
<!-- Node25 -->
<g id="node25" class="node">
<title>Node25</title>
<g id="a_node25"><a xlink:title=" ">
<polygon fill="white" stroke="#bfbfbf" points="956,-392.5 956,-411.5 1046,-411.5 1046,-392.5 956,-392.5"/>
<text text-anchor="middle" x="1001" y="-399.5" font-family="Helvetica,sans-Serif" font-size="10.00">AH/STL/iterator</text>
</a>
</g>
</g>
<!-- Node7&#45;&gt;Node25 -->
<g id="edge42" class="edge">
<title>Node7&#45;&gt;Node25</title>
<path fill="none" stroke="midnightblue" d="M635.74,-504.46C706.58,-484.78 881.29,-436.25 960.63,-414.21"/>
<polygon fill="midnightblue" stroke="midnightblue" points="961.58,-417.58 970.28,-411.53 959.7,-410.84 961.58,-417.58"/>
</g>
<!-- Node8&#45;&gt;Node2 -->
<g id="edge12" class="edge">
<title>Node8&#45;&gt;Node2</title>
<path fill="none" stroke="midnightblue" d="M652.76,-448.43C615.98,-421.57 509,-334.86 509,-235 509,-235 509,-235 509,-121 509,-90.2 510.1,-76.59 533,-56 559.1,-32.53 595.68,-20.93 628.89,-15.32"/>
<polygon fill="midnightblue" stroke="midnightblue" points="629.72,-18.74 639.07,-13.77 628.66,-11.82 629.72,-18.74"/>
</g>
<!-- Node9 -->
<g id="node9" class="node">
<title>Node9</title>
<g id="a_node9"><a xlink:href="../../df/dee/Debug_8hpp.html" target="_top" xlink:title=" ">
<polygon fill="white" stroke="black" points="816.5,-392.5 816.5,-411.5 937.5,-411.5 937.5,-392.5 816.5,-392.5"/>
<text text-anchor="middle" x="877" y="-399.5" font-family="Helvetica,sans-Serif" font-size="10.00">AH/Debug/Debug.hpp</text>
</a>
</g>
</g>
<!-- Node8&#45;&gt;Node9 -->
<g id="edge13" class="edge">
<title>Node8&#45;&gt;Node9</title>
<path fill="none" stroke="midnightblue" d="M698.59,-448.44C735.19,-439.12 793.84,-424.18 833.83,-414"/>
<polygon fill="midnightblue" stroke="midnightblue" points="834.74,-417.38 843.57,-411.52 833.01,-410.59 834.74,-417.38"/>
</g>
<!-- Node9&#45;&gt;Node2 -->
<g id="edge14" class="edge">
<title>Node9&#45;&gt;Node2</title>
<path fill="none" stroke="midnightblue" d="M857.13,-392.46C815.18,-373.18 718.37,-321.82 681,-244 677.15,-235.99 680.38,-232.87 681,-224 683.65,-186.13 701.01,-74.08 708.05,-29.55"/>
<polygon fill="midnightblue" stroke="midnightblue" points="711.52,-29.97 709.63,-19.55 704.61,-28.88 711.52,-29.97"/>
</g>
<!-- Node10 -->
<g id="node10" class="node">
<title>Node10</title>
<g id="a_node10"><a xlink:href="../../dd/d80/PrintStream_8hpp.html" target="_top" xlink:title=" ">
<polygon fill="white" stroke="black" points="835.5,-224.5 835.5,-243.5 1008.5,-243.5 1008.5,-224.5 835.5,-224.5"/>
<text text-anchor="middle" x="922" y="-231.5" font-family="Helvetica,sans-Serif" font-size="10.00">AH/PrintStream/PrintStream.hpp</text>
</a>
</g>
</g>
<!-- Node9&#45;&gt;Node10 -->
<g id="edge15" class="edge">
<title>Node9&#45;&gt;Node10</title>
<path fill="none" stroke="midnightblue" d="M879.42,-392.08C886.5,-365.95 907.3,-289.21 916.96,-253.58"/>
<polygon fill="midnightblue" stroke="midnightblue" points="920.44,-254.14 919.68,-243.57 913.68,-252.3 920.44,-254.14"/>
</g>
<!-- Node17 -->
<g id="node17" class="node">
<title>Node17</title>
<g id="a_node17"><a xlink:href="../../d2/dd5/SettingsWrapper_8hpp.html" target="_top" xlink:title=" ">
<polygon fill="white" stroke="black" points="985,-336.5 985,-355.5 1163,-355.5 1163,-336.5 985,-336.5"/>
<text text-anchor="middle" x="1074" y="-343.5" font-family="Helvetica,sans-Serif" font-size="10.00">AH/Settings/SettingsWrapper.hpp</text>
</a>
</g>
</g>
<!-- Node9&#45;&gt;Node17 -->
<g id="edge27" class="edge">
<title>Node9&#45;&gt;Node17</title>
<path fill="none" stroke="midnightblue" d="M903.13,-392.44C934.95,-383.16 988.97,-368.31 1027.82,-358.13"/>
<polygon fill="midnightblue" stroke="midnightblue" points="1029.06,-361.42 1037.85,-355.52 1027.29,-354.65 1029.06,-361.42"/>
</g>
<!-- Node10&#45;&gt;Node2 -->
<g id="edge17" class="edge">
<title>Node10&#45;&gt;Node2</title>
<path fill="none" stroke="midnightblue" d="M913.73,-224.3C882.02,-190.94 767.95,-70.92 726.34,-27.13"/>
<polygon fill="midnightblue" stroke="midnightblue" points="728.87,-24.72 719.44,-19.88 723.8,-29.54 728.87,-24.72"/>
</g>
<!-- Node10&#45;&gt;Node11 -->
<g id="edge16" class="edge">
<title>Node10&#45;&gt;Node11</title>
<path fill="none" stroke="midnightblue" d="M922,-224.08C922,-197.95 922,-121.21 922,-85.58"/>
<polygon fill="midnightblue" stroke="midnightblue" points="925.5,-85.57 922,-75.57 918.5,-85.57 925.5,-85.57"/>
</g>
<!-- Node10&#45;&gt;Node12 -->
<g id="edge18" class="edge">
<title>Node10&#45;&gt;Node12</title>
<path fill="none" stroke="midnightblue" d="M973.18,-224.44C1030.47,-214.87 1123.24,-199.36 1184.19,-189.17"/>
<polygon fill="midnightblue" stroke="midnightblue" points="1184.77,-192.62 1194.06,-187.52 1183.62,-185.71 1184.77,-192.62"/>
</g>
<!-- Node13 -->
<g id="node13" class="node">
<title>Node13</title>
<g id="a_node13"><a xlink:href="../../d7/d79/MinMaxFix_8hpp.html" target="_top" xlink:title=" ">
<polygon fill="white" stroke="black" points="1229,-112.5 1229,-131.5 1365,-131.5 1365,-112.5 1229,-112.5"/>
<text text-anchor="middle" x="1297" y="-119.5" font-family="Helvetica,sans-Serif" font-size="10.00">AH/Math/MinMaxFix.hpp</text>
</a>
</g>
</g>
<!-- Node12&#45;&gt;Node13 -->
<g id="edge19" class="edge">
<title>Node12&#45;&gt;Node13</title>
<path fill="none" stroke="midnightblue" d="M1253.59,-168.08C1261.16,-160.22 1272.38,-148.57 1281.51,-139.08"/>
<polygon fill="midnightblue" stroke="midnightblue" points="1284.16,-141.38 1288.57,-131.75 1279.12,-136.53 1284.16,-141.38"/>
</g>
<!-- Node15 -->
<g id="node15" class="node">
<title>Node15</title>
<g id="a_node15"><a xlink:title=" ">
<polygon fill="white" stroke="#bfbfbf" points="1387.5,-0.5 1387.5,-19.5 1450.5,-19.5 1450.5,-0.5 1387.5,-0.5"/>
<text text-anchor="middle" x="1419" y="-7.5" font-family="Helvetica,sans-Serif" font-size="10.00">Arduino.h</text>
</a>
</g>
</g>
<!-- Node12&#45;&gt;Node15 -->
<g id="edge26" class="edge">
<title>Node12&#45;&gt;Node15</title>
<path fill="none" stroke="midnightblue" d="M1303.36,-168.46C1355.18,-157.3 1427.19,-132.07 1457,-76 1466.13,-58.83 1451.81,-39.66 1438.21,-26.61"/>
<polygon fill="midnightblue" stroke="midnightblue" points="1440.27,-23.75 1430.48,-19.7 1435.6,-28.98 1440.27,-23.75"/>
</g>
<!-- Node12&#45;&gt;Node16 -->
<g id="edge25" class="edge">
<title>Node12&#45;&gt;Node16</title>
<path fill="none" stroke="midnightblue" d="M1182.83,-171.55C1065.28,-161.25 811.61,-139.01 692.81,-128.59"/>
<polygon fill="midnightblue" stroke="midnightblue" points="693.04,-125.1 682.78,-127.71 692.43,-132.07 693.04,-125.1"/>
</g>
<!-- Node13&#45;&gt;Node2 -->
<g id="edge20" class="edge">
<title>Node13&#45;&gt;Node2</title>
<path fill="none" stroke="midnightblue" d="M1274.93,-112.47C1237.76,-98.46 1160.07,-70.67 1092,-56 990.12,-34.04 870.44,-22.11 792.79,-16.16"/>
<polygon fill="midnightblue" stroke="midnightblue" points="792.82,-12.65 782.59,-15.39 792.29,-19.63 792.82,-12.65"/>
</g>
<!-- Node13&#45;&gt;Node11 -->
<g id="edge24" class="edge">
<title>Node13&#45;&gt;Node11</title>
<path fill="none" stroke="midnightblue" d="M1237.58,-112.44C1170.65,-102.81 1062.02,-87.16 991.29,-76.98"/>
<polygon fill="midnightblue" stroke="midnightblue" points="991.54,-73.48 981.14,-75.52 990.54,-80.41 991.54,-73.48"/>
</g>
<!-- Node14 -->
<g id="node14" class="node">
<title>Node14</title>
<g id="a_node14"><a xlink:href="../../d6/d3b/FixArduinoMacros_8hpp.html" target="_top" xlink:title=" ">
<polygon fill="white" stroke="black" points="1278,-56.5 1278,-75.5 1448,-75.5 1448,-56.5 1278,-56.5"/>
<text text-anchor="middle" x="1363" y="-63.5" font-family="Helvetica,sans-Serif" font-size="10.00">AH/Math/FixArduinoMacros.hpp</text>
</a>
</g>
</g>
<!-- Node13&#45;&gt;Node14 -->
<g id="edge21" class="edge">
<title>Node13&#45;&gt;Node14</title>
<path fill="none" stroke="midnightblue" d="M1307.6,-112.32C1317.46,-104.26 1332.35,-92.08 1344.22,-82.37"/>
<polygon fill="midnightblue" stroke="midnightblue" points="1346.68,-84.88 1352.2,-75.83 1342.25,-79.46 1346.68,-84.88"/>
</g>
<!-- Node14&#45;&gt;Node2 -->
<g id="edge22" class="edge">
<title>Node14&#45;&gt;Node2</title>
<path fill="none" stroke="midnightblue" d="M1277.95,-57.22C1273.23,-56.8 1268.56,-56.39 1264,-56 1096.65,-41.58 900.71,-25.93 792.77,-17.41"/>
<polygon fill="midnightblue" stroke="midnightblue" points="792.85,-13.91 782.6,-16.61 792.3,-20.88 792.85,-13.91"/>
</g>
<!-- Node14&#45;&gt;Node15 -->
<g id="edge23" class="edge">
<title>Node14&#45;&gt;Node15</title>
<path fill="none" stroke="midnightblue" d="M1372,-56.32C1380.19,-48.42 1392.51,-36.55 1402.47,-26.94"/>
<polygon fill="midnightblue" stroke="midnightblue" points="1405.07,-29.29 1409.84,-19.83 1400.21,-24.26 1405.07,-29.29"/>
</g>
<!-- Node17&#45;&gt;Node2 -->
<g id="edge28" class="edge">
<title>Node17&#45;&gt;Node2</title>
<path fill="none" stroke="midnightblue" d="M1073.98,-336.27C1073.68,-292.4 1070.03,-96.47 1029,-56 996.56,-24.01 875.93,-14.52 792.94,-11.85"/>
<polygon fill="midnightblue" stroke="midnightblue" points="792.86,-8.34 782.76,-11.55 792.65,-15.34 792.86,-8.34"/>
</g>
<!-- Node17&#45;&gt;Node9 -->
<g id="edge41" class="edge">
<title>Node17&#45;&gt;Node9</title>
<path fill="none" stroke="midnightblue" d="M1048.01,-355.52C1016.25,-364.78 962.24,-379.63 923.34,-389.83"/>
<polygon fill="midnightblue" stroke="midnightblue" points="922.1,-386.54 913.3,-392.44 923.86,-393.31 922.1,-386.54"/>
</g>
<!-- Node17&#45;&gt;Node11 -->
<g id="edge29" class="edge">
<title>Node17&#45;&gt;Node11</title>
<path fill="none" stroke="midnightblue" d="M1070.39,-336.33C1061.95,-316.22 1039.94,-265.03 1018,-224 989.98,-171.61 952.01,-112.48 933.33,-84.05"/>
<polygon fill="midnightblue" stroke="midnightblue" points="936.21,-82.06 927.78,-75.64 930.37,-85.92 936.21,-82.06"/>
</g>
<!-- Node18 -->
<g id="node18" class="node">
<title>Node18</title>
<g id="a_node18"><a xlink:href="../../db/d02/Settings_8hpp.html" target="_top" xlink:title="All user settings and debugging options can be changed here.">
<polygon fill="white" stroke="black" points="1294.5,-280.5 1294.5,-299.5 1371.5,-299.5 1371.5,-280.5 1294.5,-280.5"/>
<text text-anchor="middle" x="1333" y="-287.5" font-family="Helvetica,sans-Serif" font-size="10.00">Settings.hpp</text>
</a>
</g>
</g>
<!-- Node17&#45;&gt;Node18 -->
<g id="edge30" class="edge">
<title>Node17&#45;&gt;Node18</title>
<path fill="none" stroke="midnightblue" d="M1115.04,-336.44C1160.98,-326.86 1235.38,-311.35 1284.25,-301.16"/>
<polygon fill="midnightblue" stroke="midnightblue" points="1285.19,-304.54 1294.27,-299.08 1283.76,-297.69 1285.19,-304.54"/>
</g>
<!-- Node24 -->
<g id="node24" class="node">
<title>Node24</title>
<g id="a_node24"><a xlink:href="../../d9/d98/TeensyUSBTypes_8hpp.html" target="_top" xlink:title=" ">
<polygon fill="white" stroke="black" points="1103.5,-280.5 1103.5,-299.5 1276.5,-299.5 1276.5,-280.5 1103.5,-280.5"/>
<text text-anchor="middle" x="1190" y="-287.5" font-family="Helvetica,sans-Serif" font-size="10.00">AH/Teensy/TeensyUSBTypes.hpp</text>
</a>
</g>
</g>
<!-- Node17&#45;&gt;Node24 -->
<g id="edge40" class="edge">
<title>Node17&#45;&gt;Node24</title>
<path fill="none" stroke="midnightblue" d="M1092.38,-336.44C1111.22,-327.68 1140.73,-313.94 1162.38,-303.86"/>
<polygon fill="midnightblue" stroke="midnightblue" points="1164.12,-306.91 1171.71,-299.52 1161.16,-300.56 1164.12,-306.91"/>
</g>
<!-- Node19 -->
<g id="node19" class="node">
<title>Node19</title>
<g id="a_node19"><a xlink:href="../../dc/d50/Frequency_8hpp.html" target="_top" xlink:title=" ">
<polygon fill="white" stroke="black" points="1077,-112.5 1077,-131.5 1211,-131.5 1211,-112.5 1077,-112.5"/>
<text text-anchor="middle" x="1144" y="-119.5" font-family="Helvetica,sans-Serif" font-size="10.00">AH/Types/Frequency.hpp</text>
</a>
</g>
</g>
<!-- Node18&#45;&gt;Node19 -->
<g id="edge31" class="edge">
<title>Node18&#45;&gt;Node19</title>
<path fill="none" stroke="midnightblue" d="M1294.26,-281.57C1237.55,-270.51 1138.07,-250.34 1133,-244 1109.37,-214.47 1124.24,-166.95 1135.27,-141.12"/>
<polygon fill="midnightblue" stroke="midnightblue" points="1138.56,-142.34 1139.5,-131.79 1132.18,-139.45 1138.56,-142.34"/>
</g>
<!-- Node20 -->
<g id="node20" class="node">
<title>Node20</title>
<g id="a_node20"><a xlink:href="../../d7/d7c/ADCConfig_8hpp.html" target="_top" xlink:title="This file contains the platform&#45;specific ADC resolutions.">
<polygon fill="white" stroke="black" points="1251.5,-224.5 1251.5,-243.5 1408.5,-243.5 1408.5,-224.5 1251.5,-224.5"/>
<text text-anchor="middle" x="1330" y="-231.5" font-family="Helvetica,sans-Serif" font-size="10.00">AH/Hardware/ADCConfig.hpp</text>
</a>
</g>
</g>
<!-- Node18&#45;&gt;Node20 -->
<g id="edge34" class="edge">
<title>Node18&#45;&gt;Node20</title>
<path fill="none" stroke="midnightblue" d="M1332.5,-280.08C1332.11,-273.01 1331.55,-262.86 1331.05,-253.99"/>
<polygon fill="midnightblue" stroke="midnightblue" points="1334.54,-253.54 1330.49,-243.75 1327.55,-253.93 1334.54,-253.54"/>
</g>
<!-- Node21 -->
<g id="node21" class="node">
<title>Node21</title>
<g id="a_node21"><a xlink:title=" ">
<polygon fill="white" stroke="#bfbfbf" points="1141.5,-224.5 1141.5,-243.5 1194.5,-243.5 1194.5,-224.5 1141.5,-224.5"/>
<text text-anchor="middle" x="1168" y="-231.5" font-family="Helvetica,sans-Serif" font-size="10.00">limits.h</text>
</a>
</g>
</g>
<!-- Node18&#45;&gt;Node21 -->
<g id="edge37" class="edge">
<title>Node18&#45;&gt;Node21</title>
<path fill="none" stroke="midnightblue" d="M1306.86,-280.44C1278.98,-271.32 1234.65,-256.81 1203.6,-246.65"/>
<polygon fill="midnightblue" stroke="midnightblue" points="1204.62,-243.3 1194.02,-243.52 1202.44,-249.95 1204.62,-243.3"/>
</g>
<!-- Node18&#45;&gt;Node22 -->
<g id="edge38" class="edge">
<title>Node18&#45;&gt;Node22</title>
<path fill="none" stroke="midnightblue" d="M1294.33,-281.24C1291.51,-280.79 1288.72,-280.37 1286,-280 1083.2,-252.72 1029.16,-275.67 827,-244 826.9,-243.98 826.8,-243.97 826.7,-243.95"/>
<polygon fill="midnightblue" stroke="midnightblue" points="827.6,-240.56 817.13,-242.17 826.32,-247.44 827.6,-240.56"/>
</g>
<!-- Node18&#45;&gt;Node23 -->
<g id="edge39" class="edge">
<title>Node18&#45;&gt;Node23</title>
<path fill="none" stroke="midnightblue" d="M1294.33,-281.21C1291.52,-280.76 1288.72,-280.35 1286,-280 1053.31,-249.99 988.74,-280.14 752.55,-243.77"/>
<polygon fill="midnightblue" stroke="midnightblue" points="753.05,-240.3 742.63,-242.22 751.97,-247.22 753.05,-240.3"/>
</g>
<!-- Node19&#45;&gt;Node2 -->
<g id="edge32" class="edge">
<title>Node19&#45;&gt;Node2</title>
<path fill="none" stroke="midnightblue" d="M1136.49,-112.48C1123.26,-98.1 1094.2,-69.25 1063,-56 1015.77,-35.94 880.96,-22.93 792.55,-16.29"/>
<polygon fill="midnightblue" stroke="midnightblue" points="792.77,-12.8 782.54,-15.55 792.26,-19.78 792.77,-12.8"/>
</g>
<!-- Node19&#45;&gt;Node11 -->
<g id="edge33" class="edge">
<title>Node19&#45;&gt;Node11</title>
<path fill="none" stroke="midnightblue" d="M1108.82,-112.44C1070.42,-103.1 1008.82,-88.12 966.94,-77.93"/>
<polygon fill="midnightblue" stroke="midnightblue" points="967.56,-74.48 957.01,-75.52 965.9,-81.28 967.56,-74.48"/>
</g>
<!-- Node20&#45;&gt;Node2 -->
<g id="edge35" class="edge">
<title>Node20&#45;&gt;Node2</title>
<path fill="none" stroke="midnightblue" d="M1338.2,-224.49C1357.51,-203.4 1402.19,-147.84 1374,-112 1369.92,-106.81 1149.51,-57.12 1143,-56 1022.02,-35.13 880.2,-22.61 792.97,-16.25"/>
<polygon fill="midnightblue" stroke="midnightblue" points="793.1,-12.75 782.87,-15.53 792.6,-19.73 793.1,-12.75"/>
</g>
<!-- Node20&#45;&gt;Node12 -->
<g id="edge36" class="edge">
<title>Node20&#45;&gt;Node12</title>
<path fill="none" stroke="midnightblue" d="M1316.34,-224.32C1303.08,-215.9 1282.73,-202.97 1267.15,-193.07"/>
<polygon fill="midnightblue" stroke="midnightblue" points="1268.94,-190.06 1258.62,-187.65 1265.19,-195.97 1268.94,-190.06"/>
</g>
<!-- Node26&#45;&gt;Node2 -->
<g id="edge50" class="edge">
<title>Node26&#45;&gt;Node2</title>
<path fill="none" stroke="midnightblue" d="M222.75,-112.44C238.12,-97.99 271.63,-69.05 306,-56 363.23,-34.27 528.16,-21.36 629.03,-15.27"/>
<polygon fill="midnightblue" stroke="midnightblue" points="629.41,-18.75 639.19,-14.66 629,-11.76 629.41,-18.75"/>
</g>
<!-- Node26&#45;&gt;Node11 -->
<g id="edge51" class="edge">
<title>Node26&#45;&gt;Node11</title>
<path fill="none" stroke="midnightblue" d="M290.78,-115.14C417.24,-105.5 669.7,-86.24 814.08,-75.23"/>
<polygon fill="midnightblue" stroke="midnightblue" points="814.58,-78.7 824.28,-74.45 814.05,-71.72 814.58,-78.7"/>
</g>
<!-- Node27 -->
<g id="node27" class="node">
<title>Node27</title>
<g id="a_node27"><a xlink:title=" ">
<polygon fill="white" stroke="#bfbfbf" points="66,-56.5 66,-75.5 156,-75.5 156,-56.5 66,-56.5"/>
<text text-anchor="middle" x="111" y="-63.5" font-family="Helvetica,sans-Serif" font-size="10.00">AH/STL/cstddef</text>
</a>
</g>
</g>
<!-- Node26&#45;&gt;Node27 -->
<g id="edge48" class="edge">
<title>Node26&#45;&gt;Node27</title>
<path fill="none" stroke="midnightblue" d="M197.45,-112.32C181.01,-103.7 155.57,-90.36 136.53,-80.39"/>
<polygon fill="midnightblue" stroke="midnightblue" points="137.99,-77.2 127.51,-75.65 134.74,-83.4 137.99,-77.2"/>
</g>
<!-- Node28 -->
<g id="node28" class="node">
<title>Node28</title>
<g id="a_node28"><a xlink:title=" ">
<polygon fill="white" stroke="#bfbfbf" points="174.5,-56.5 174.5,-75.5 253.5,-75.5 253.5,-56.5 174.5,-56.5"/>
<text text-anchor="middle" x="214" y="-63.5" font-family="Helvetica,sans-Serif" font-size="10.00">AH/STL/tuple</text>
</a>
</g>
</g>
<!-- Node26&#45;&gt;Node28 -->
<g id="edge49" class="edge">
<title>Node26&#45;&gt;Node28</title>
<path fill="none" stroke="midnightblue" d="M214,-112.08C214,-105.01 214,-94.86 214,-85.99"/>
<polygon fill="midnightblue" stroke="midnightblue" points="217.5,-85.75 214,-75.75 210.5,-85.75 217.5,-85.75"/>
</g>
<!-- Node30&#45;&gt;Node2 -->
<g id="edge57" class="edge">
<title>Node30&#45;&gt;Node2</title>
<path fill="none" stroke="midnightblue" d="M882.52,-504.42C859.6,-497.05 828.13,-484.93 804,-468 702.59,-396.85 598.52,-236.43 567,-132 550.36,-76.87 624.98,-40.28 673.02,-22.84"/>
<polygon fill="midnightblue" stroke="midnightblue" points="674.25,-26.12 682.54,-19.51 671.94,-19.51 674.25,-26.12"/>
</g>
<!-- Node30&#45;&gt;Node8 -->
<g id="edge65" class="edge">
<title>Node30&#45;&gt;Node8</title>
<path fill="none" stroke="midnightblue" d="M873.7,-504.44C830.44,-495.02 760.83,-479.87 714.03,-469.68"/>
<polygon fill="midnightblue" stroke="midnightblue" points="714.63,-466.22 704.11,-467.52 713.14,-473.06 714.63,-466.22"/>
</g>
<!-- Node30&#45;&gt;Node16 -->
<g id="edge66" class="edge">
<title>Node30&#45;&gt;Node16</title>
<path fill="none" stroke="midnightblue" d="M890.5,-504.45C872.47,-496.82 847.24,-484.33 829,-468 738.99,-387.42 731.09,-351.01 675,-244 656.72,-209.13 641.92,-165.33 634.4,-141.14"/>
<polygon fill="midnightblue" stroke="midnightblue" points="637.72,-140.06 631.46,-131.51 631.03,-142.1 637.72,-140.06"/>
</g>
<!-- Node30&#45;&gt;Node17 -->
<g id="edge68" class="edge">
<title>Node30&#45;&gt;Node17</title>
<path fill="none" stroke="midnightblue" d="M921.4,-504.24C934.41,-491 960.58,-465.55 986,-448 1014.47,-428.35 1033.06,-438.74 1055,-412 1065.83,-398.8 1070.49,-379.67 1072.49,-365.58"/>
<polygon fill="midnightblue" stroke="midnightblue" points="1075.98,-365.89 1073.59,-355.56 1069.02,-365.12 1075.98,-365.89"/>
</g>
<!-- Node30&#45;&gt;Node22 -->
<g id="edge69" class="edge">
<title>Node30&#45;&gt;Node22</title>
<path fill="none" stroke="midnightblue" d="M899.14,-504.44C875.75,-489.15 828.93,-454.7 808,-412 782.2,-359.38 784.2,-287.59 786.97,-253.91"/>
<polygon fill="midnightblue" stroke="midnightblue" points="790.48,-253.96 787.93,-243.68 783.51,-253.3 790.48,-253.96"/>
</g>
<!-- Node31 -->
<g id="node31" class="node">
<title>Node31</title>
<g id="a_node31"><a xlink:href="../../d4/dba/CRTP_8hpp.html" target="_top" xlink:title=" ">
<polygon fill="white" stroke="black" points="995,-448.5 995,-467.5 1129,-467.5 1129,-448.5 995,-448.5"/>
<text text-anchor="middle" x="1062" y="-455.5" font-family="Helvetica,sans-Serif" font-size="10.00">AH/Containers/CRTP.hpp</text>
</a>
</g>
</g>
<!-- Node30&#45;&gt;Node31 -->
<g id="edge58" class="edge">
<title>Node30&#45;&gt;Node31</title>
<path fill="none" stroke="midnightblue" d="M936.61,-504.44C961.46,-495.44 1000.77,-481.19 1028.75,-471.05"/>
<polygon fill="midnightblue" stroke="midnightblue" points="1030.29,-474.21 1038.5,-467.52 1027.91,-467.63 1030.29,-474.21"/>
</g>
<!-- Node32 -->
<g id="node32" class="node">
<title>Node32</title>
<g id="a_node32"><a xlink:href="../../de/dd1/LinkedList_8hpp.html" target="_top" xlink:title=" ">
<polygon fill="white" stroke="black" points="1248.5,-448.5 1248.5,-467.5 1407.5,-467.5 1407.5,-448.5 1248.5,-448.5"/>
<text text-anchor="middle" x="1328" y="-455.5" font-family="Helvetica,sans-Serif" font-size="10.00">AH/Containers/LinkedList.hpp</text>
</a>
</g>
</g>
<!-- Node30&#45;&gt;Node32 -->
<g id="edge59" class="edge">
<title>Node30&#45;&gt;Node32</title>
<path fill="none" stroke="midnightblue" d="M978.76,-504.44C1053.13,-494.77 1174.03,-479.04 1252.28,-468.85"/>
<polygon fill="midnightblue" stroke="midnightblue" points="1253.08,-472.28 1262.55,-467.52 1252.18,-465.34 1253.08,-472.28"/>
</g>
<!-- Node34 -->
<g id="node34" class="node">
<title>Node34</title>
<g id="a_node34"><a xlink:title=" ">
<polygon fill="white" stroke="#bfbfbf" points="1147.5,-448.5 1147.5,-467.5 1230.5,-467.5 1230.5,-448.5 1147.5,-448.5"/>
<text text-anchor="middle" x="1189" y="-455.5" font-family="Helvetica,sans-Serif" font-size="10.00">AH/STL/utility</text>
</a>
</g>
</g>
<!-- Node30&#45;&gt;Node34 -->
<g id="edge67" class="edge">
<title>Node30&#45;&gt;Node34</title>
<path fill="none" stroke="midnightblue" d="M956.73,-504.44C1005.75,-494.85 1085.17,-479.31 1137.25,-469.13"/>
<polygon fill="midnightblue" stroke="midnightblue" points="1138.14,-472.52 1147.28,-467.16 1136.79,-465.65 1138.14,-472.52"/>
</g>
<!-- Node32&#45;&gt;Node2 -->
<g id="edge60" class="edge">
<title>Node32&#45;&gt;Node2</title>
<path fill="none" stroke="midnightblue" d="M1334.82,-448.39C1352.51,-425.62 1400.12,-361.33 1424,-300 1454.76,-221.02 1454.36,-169.4 1392,-112 1391.49,-111.53 1200.68,-56.13 1200,-56 1058.44,-29.1 890.65,-18.1 792.97,-13.74"/>
<polygon fill="midnightblue" stroke="midnightblue" points="793.01,-10.24 782.86,-13.3 792.7,-17.23 793.01,-10.24"/>
</g>
<!-- Node32&#45;&gt;Node9 -->
<g id="edge61" class="edge">
<title>Node32&#45;&gt;Node9</title>
<path fill="none" stroke="midnightblue" d="M1253.86,-448.47C1179.32,-439.85 1060.79,-425.99 947.91,-412.1"/>
<polygon fill="midnightblue" stroke="midnightblue" points="948.05,-408.59 937.7,-410.84 947.2,-415.54 948.05,-408.59"/>
</g>
<!-- Node32&#45;&gt;Node13 -->
<g id="edge62" class="edge">
<title>Node32&#45;&gt;Node13</title>
<path fill="none" stroke="midnightblue" d="M1331.08,-448.1C1335.48,-435.51 1343.93,-411.83 1352,-392 1382.25,-317.7 1452,-296.66 1418,-224 1398.75,-182.85 1353.57,-152.59 1324.2,-136.41"/>
<polygon fill="midnightblue" stroke="midnightblue" points="1325.74,-133.26 1315.27,-131.65 1322.45,-139.44 1325.74,-133.26"/>
</g>
<!-- Node32&#45;&gt;Node25 -->
<g id="edge64" class="edge">
<title>Node32&#45;&gt;Node25</title>
<path fill="none" stroke="midnightblue" d="M1276.19,-448.44C1216.14,-438.53 1117.59,-422.25 1056.16,-412.11"/>
<polygon fill="midnightblue" stroke="midnightblue" points="1056.69,-408.65 1046.25,-410.47 1055.55,-415.56 1056.69,-408.65"/>
</g>
<!-- Node33 -->
<g id="node33" class="node">
<title>Node33</title>
<g id="a_node33"><a xlink:title=" ">
<polygon fill="white" stroke="#bfbfbf" points="1394.5,-392.5 1394.5,-411.5 1447.5,-411.5 1447.5,-392.5 1394.5,-392.5"/>
<text text-anchor="middle" x="1421" y="-399.5" font-family="Helvetica,sans-Serif" font-size="10.00">stdlib.h</text>
</a>
</g>
</g>
<!-- Node32&#45;&gt;Node33 -->
<g id="edge63" class="edge">
<title>Node32&#45;&gt;Node33</title>
<path fill="none" stroke="midnightblue" d="M1342.94,-448.32C1357.59,-439.82 1380.13,-426.73 1397.24,-416.8"/>
<polygon fill="midnightblue" stroke="midnightblue" points="1399.2,-419.7 1406.1,-411.65 1395.69,-413.65 1399.2,-419.7"/>
</g>
</g>
</svg>
