<?xml version="1.0" encoding="UTF-8" standalone="no"?>
<!DOCTYPE svg PUBLIC "-//W3C//DTD SVG 1.1//EN"
 "http://www.w3.org/Graphics/SVG/1.1/DTD/svg11.dtd">
<!-- Generated by graphviz version 2.38.0 (20140413.2041)
 -->
<!-- Title: ArrayHelpers.hpp Pages: 1 -->
<svg width="500pt" height="252pt"
 viewBox="0.00 0.00 499.50 252.00" xmlns="http://www.w3.org/2000/svg" xmlns:xlink="http://www.w3.org/1999/xlink">
<g id="graph0" class="graph" transform="scale(1 1) rotate(0) translate(4 248)">
<title>ArrayHelpers.hpp</title>
<polygon fill="white" stroke="none" points="-4,4 -4,-248 495.5,-248 495.5,4 -4,4"/>
<!-- Node1 -->
<g id="node1" class="node"><title>Node1</title>
<g id="a_node1"><a xlink:title=" ">
<polygon fill="#bfbfbf" stroke="black" points="239,-224.5 239,-243.5 331,-243.5 331,-224.5 239,-224.5"/>
<text text-anchor="middle" x="285" y="-231.5" font-family="Helvetica,sans-Serif" font-size="10.00">ArrayHelpers.hpp</text>
</a>
</g>
</g>
<!-- Node2 -->
<g id="node2" class="node"><title>Node2</title>
<g id="a_node2"><a xlink:href="../../d2/d05/StaticSizeExtendedIOElement_8hpp.html" target="_top" xlink:title=" ">
<polygon fill="white" stroke="black" points="104,-168.5 104,-187.5 272,-187.5 272,-168.5 104,-168.5"/>
<text text-anchor="middle" x="188" y="-175.5" font-family="Helvetica,sans-Serif" font-size="10.00">StaticSizeExtendedIOElement.hpp</text>
</a>
</g>
</g>
<!-- Node1&#45;&gt;Node2 -->
<g id="edge1" class="edge"><title>Node1&#45;&gt;Node2</title>
<path fill="none" stroke="midnightblue" d="M260.665,-219.453C242.757,-209.483 218.946,-196.228 203.546,-187.655"/>
<polygon fill="midnightblue" stroke="midnightblue" points="258.975,-222.518 269.415,-224.324 262.38,-216.402 258.975,-222.518"/>
</g>
<!-- Node11 -->
<g id="node11" class="node"><title>Node11</title>
<g id="a_node11"><a xlink:href="../../df/ddc/SOSFilter_8hpp.html" target="_top" xlink:title=" ">
<polygon fill="white" stroke="black" points="344,-168.5 344,-187.5 422,-187.5 422,-168.5 344,-168.5"/>
<text text-anchor="middle" x="383" y="-175.5" font-family="Helvetica,sans-Serif" font-size="10.00">SOSFilter.hpp</text>
</a>
</g>
</g>
<!-- Node1&#45;&gt;Node11 -->
<g id="edge13" class="edge"><title>Node1&#45;&gt;Node11</title>
<path fill="none" stroke="midnightblue" d="M309.586,-219.453C327.678,-209.483 351.735,-196.228 367.294,-187.655"/>
<polygon fill="midnightblue" stroke="midnightblue" points="307.815,-216.432 300.745,-224.324 311.193,-222.563 307.815,-216.432"/>
</g>
<!-- Node3 -->
<g id="node3" class="node"><title>Node3</title>
<g id="a_node3"><a xlink:href="../../d7/def/AnalogMultiplex_8hpp.html" target="_top" xlink:title=" ">
<polygon fill="white" stroke="black" points="0,-112.5 0,-131.5 104,-131.5 104,-112.5 0,-112.5"/>
<text text-anchor="middle" x="52" y="-119.5" font-family="Helvetica,sans-Serif" font-size="10.00">AnalogMultiplex.hpp</text>
</a>
</g>
</g>
<!-- Node2&#45;&gt;Node3 -->
<g id="edge2" class="edge"><title>Node2&#45;&gt;Node3</title>
<path fill="none" stroke="midnightblue" d="M156.865,-164.638C131.343,-154.504 95.8913,-140.427 73.4488,-131.516"/>
<polygon fill="midnightblue" stroke="midnightblue" points="155.865,-168.006 166.45,-168.444 158.448,-161.5 155.865,-168.006"/>
</g>
<!-- Node4 -->
<g id="node4" class="node"><title>Node4</title>
<g id="a_node4"><a xlink:href="../../d2/d25/MAX7219_8hpp.html" target="_top" xlink:title=" ">
<polygon fill="white" stroke="black" points="122,-112.5 122,-131.5 200,-131.5 200,-112.5 122,-112.5"/>
<text text-anchor="middle" x="161" y="-119.5" font-family="Helvetica,sans-Serif" font-size="10.00">MAX7219.hpp</text>
</a>
</g>
</g>
<!-- Node2&#45;&gt;Node4 -->
<g id="edge3" class="edge"><title>Node2&#45;&gt;Node4</title>
<path fill="none" stroke="midnightblue" d="M178.991,-158.983C174.408,-149.817 169.046,-139.092 165.376,-131.751"/>
<polygon fill="midnightblue" stroke="midnightblue" points="175.939,-160.704 183.541,-168.083 182.2,-157.573 175.939,-160.704"/>
</g>
<!-- Node5 -->
<g id="node5" class="node"><title>Node5</title>
<g id="a_node5"><a xlink:href="../../d8/d93/ShiftRegisterOutBase_8hpp.html" target="_top" xlink:title=" ">
<polygon fill="white" stroke="black" points="218.5,-112.5 218.5,-131.5 349.5,-131.5 349.5,-112.5 218.5,-112.5"/>
<text text-anchor="middle" x="284" y="-119.5" font-family="Helvetica,sans-Serif" font-size="10.00">ShiftRegisterOutBase.hpp</text>
</a>
</g>
</g>
<!-- Node2&#45;&gt;Node5 -->
<g id="edge4" class="edge"><title>Node2&#45;&gt;Node5</title>
<path fill="none" stroke="midnightblue" d="M212.574,-163.177C230.239,-153.241 253.513,-140.149 268.614,-131.655"/>
<polygon fill="midnightblue" stroke="midnightblue" points="210.424,-160.371 203.424,-168.324 213.856,-166.472 210.424,-160.371"/>
</g>
<!-- Node6 -->
<g id="node6" class="node"><title>Node6</title>
<g id="a_node6"><a xlink:href="../../d0/db4/ShiftRegisterOut_8hpp.html" target="_top" xlink:title=" ">
<polygon fill="white" stroke="black" points="94,-56.5 94,-75.5 202,-75.5 202,-56.5 94,-56.5"/>
<text text-anchor="middle" x="148" y="-63.5" font-family="Helvetica,sans-Serif" font-size="10.00">ShiftRegisterOut.hpp</text>
</a>
</g>
</g>
<!-- Node5&#45;&gt;Node6 -->
<g id="edge5" class="edge"><title>Node5&#45;&gt;Node6</title>
<path fill="none" stroke="midnightblue" d="M252.865,-108.638C227.343,-98.504 191.891,-84.4274 169.449,-75.5164"/>
<polygon fill="midnightblue" stroke="midnightblue" points="251.865,-112.006 262.45,-112.444 254.448,-105.5 251.865,-112.006"/>
</g>
<!-- Node8 -->
<g id="node8" class="node"><title>Node8</title>
<g id="a_node8"><a xlink:href="../../d5/d47/ShiftRegisterOutBase_8ipp.html" target="_top" xlink:title=" ">
<polygon fill="white" stroke="black" points="220,-56.5 220,-75.5 348,-75.5 348,-56.5 220,-56.5"/>
<text text-anchor="middle" x="284" y="-63.5" font-family="Helvetica,sans-Serif" font-size="10.00">ShiftRegisterOutBase.ipp</text>
</a>
</g>
</g>
<!-- Node5&#45;&gt;Node8 -->
<g id="edge8" class="edge"><title>Node5&#45;&gt;Node8</title>
<path fill="none" stroke="midnightblue" d="M277.528,-102.101C276.896,-93.1357 277.343,-82.8579 278.869,-75.7511"/>
<polygon fill="midnightblue" stroke="midnightblue" points="274.066,-102.622 278.834,-112.083 281.007,-101.713 274.066,-102.622"/>
</g>
<!-- Node9 -->
<g id="node9" class="node"><title>Node9</title>
<g id="a_node9"><a xlink:href="../../d7/d88/SPIShiftRegisterOut_8hpp.html" target="_top" xlink:title=" ">
<polygon fill="white" stroke="black" points="366.5,-56.5 366.5,-75.5 491.5,-75.5 491.5,-56.5 366.5,-56.5"/>
<text text-anchor="middle" x="429" y="-63.5" font-family="Helvetica,sans-Serif" font-size="10.00">SPIShiftRegisterOut.hpp</text>
</a>
</g>
</g>
<!-- Node5&#45;&gt;Node9 -->
<g id="edge10" class="edge"><title>Node5&#45;&gt;Node9</title>
<path fill="none" stroke="midnightblue" d="M316.475,-108.906C343.736,-98.7536 381.992,-84.5063 406.132,-75.5164"/>
<polygon fill="midnightblue" stroke="midnightblue" points="315.125,-105.674 306.976,-112.444 317.568,-112.233 315.125,-105.674"/>
</g>
<!-- Node7 -->
<g id="node7" class="node"><title>Node7</title>
<g id="a_node7"><a xlink:href="../../de/d95/ShiftRegisterOut_8ipp.html" target="_top" xlink:title=" ">
<polygon fill="white" stroke="black" points="95.5,-0.5 95.5,-19.5 200.5,-19.5 200.5,-0.5 95.5,-0.5"/>
<text text-anchor="middle" x="148" y="-7.5" font-family="Helvetica,sans-Serif" font-size="10.00">ShiftRegisterOut.ipp</text>
</a>
</g>
</g>
<!-- Node6&#45;&gt;Node7 -->
<g id="edge6" class="edge"><title>Node6&#45;&gt;Node7</title>
<path fill="none" stroke="midnightblue" d="M141.528,-46.1005C140.896,-37.1357 141.343,-26.8579 142.869,-19.7511"/>
<polygon fill="midnightblue" stroke="midnightblue" points="138.066,-46.6216 142.834,-56.083 145.007,-45.7134 138.066,-46.6216"/>
</g>
<!-- Node7&#45;&gt;Node6 -->
<g id="edge7" class="edge"><title>Node7&#45;&gt;Node6</title>
<path fill="none" stroke="midnightblue" d="M154.458,-29.6911C155.106,-38.6353 154.676,-48.9272 153.166,-56.083"/>
<polygon fill="midnightblue" stroke="midnightblue" points="157.923,-29.2002 153.131,-19.7511 150.985,-30.1262 157.923,-29.2002"/>
</g>
<!-- Node8&#45;&gt;Node5 -->
<g id="edge9" class="edge"><title>Node8&#45;&gt;Node5</title>
<path fill="none" stroke="midnightblue" d="M290.458,-85.6911C291.106,-94.6353 290.676,-104.927 289.166,-112.083"/>
<polygon fill="midnightblue" stroke="midnightblue" points="293.923,-85.2002 289.131,-75.7511 286.985,-86.1262 293.923,-85.2002"/>
</g>
<!-- Node10 -->
<g id="node10" class="node"><title>Node10</title>
<g id="a_node10"><a xlink:href="../../da/d45/SPIShiftRegisterOut_8ipp.html" target="_top" xlink:title=" ">
<polygon fill="white" stroke="black" points="368,-0.5 368,-19.5 490,-19.5 490,-0.5 368,-0.5"/>
<text text-anchor="middle" x="429" y="-7.5" font-family="Helvetica,sans-Serif" font-size="10.00">SPIShiftRegisterOut.ipp</text>
</a>
</g>
</g>
<!-- Node9&#45;&gt;Node10 -->
<g id="edge11" class="edge"><title>Node9&#45;&gt;Node10</title>
<path fill="none" stroke="midnightblue" d="M422.528,-46.1005C421.896,-37.1357 422.343,-26.8579 423.869,-19.7511"/>
<polygon fill="midnightblue" stroke="midnightblue" points="419.066,-46.6216 423.834,-56.083 426.007,-45.7134 419.066,-46.6216"/>
</g>
<!-- Node10&#45;&gt;Node9 -->
<g id="edge12" class="edge"><title>Node10&#45;&gt;Node9</title>
<path fill="none" stroke="midnightblue" d="M435.458,-29.6911C436.106,-38.6353 435.676,-48.9272 434.166,-56.083"/>
<polygon fill="midnightblue" stroke="midnightblue" points="438.923,-29.2002 434.131,-19.7511 431.985,-30.1262 438.923,-29.2002"/>
</g>
<!-- Node12 -->
<g id="node12" class="node"><title>Node12</title>
<g id="a_node12"><a xlink:href="../../d4/d40/Butterworth_8hpp.html" target="_top" xlink:title=" ">
<polygon fill="white" stroke="black" points="368,-112.5 368,-131.5 454,-131.5 454,-112.5 368,-112.5"/>
<text text-anchor="middle" x="411" y="-119.5" font-family="Helvetica,sans-Serif" font-size="10.00">Butterworth.hpp</text>
</a>
</g>
</g>
<!-- Node11&#45;&gt;Node12 -->
<g id="edge14" class="edge"><title>Node11&#45;&gt;Node12</title>
<path fill="none" stroke="midnightblue" d="M392.342,-158.983C397.095,-149.817 402.656,-139.092 406.462,-131.751"/>
<polygon fill="midnightblue" stroke="midnightblue" points="389.12,-157.594 387.624,-168.083 395.334,-160.817 389.12,-157.594"/>
</g>
</g>
</svg>
