<?xml version="1.0" encoding="UTF-8" standalone="no"?>
<!DOCTYPE svg PUBLIC "-//W3C//DTD SVG 1.1//EN"
 "http://www.w3.org/Graphics/SVG/1.1/DTD/svg11.dtd">
<!-- Generated by graphviz version 2.40.1 (20161225.0304)
 -->
<!-- Title: ArrayHelpers.hpp Pages: 1 -->
<svg width="500pt" height="252pt"
 viewBox="0.00 0.00 499.50 252.00" xmlns="http://www.w3.org/2000/svg" xmlns:xlink="http://www.w3.org/1999/xlink">
<g id="graph0" class="graph" transform="scale(1 1) rotate(0) translate(4 248)">
<title>ArrayHelpers.hpp</title>
<polygon fill="#ffffff" stroke="transparent" points="-4,4 -4,-248 495.5,-248 495.5,4 -4,4"/>
<!-- Node1 -->
<g id="node1" class="node">
<title>Node1</title>
<g id="a_node1"><a xlink:title=" ">
<polygon fill="#bfbfbf" stroke="#000000" points="239,-224.5 239,-243.5 331,-243.5 331,-224.5 239,-224.5"/>
<text text-anchor="middle" x="285" y="-231.5" font-family="Helvetica,sans-Serif" font-size="10.00" fill="#000000">ArrayHelpers.hpp</text>
</a>
</g>
</g>
<!-- Node2 -->
<g id="node2" class="node">
<title>Node2</title>
<g id="a_node2"><a xlink:href="../../d2/d05/StaticSizeExtendedIOElement_8hpp.html" target="_top" xlink:title=" ">
<polygon fill="#ffffff" stroke="#000000" points="131,-168.5 131,-187.5 299,-187.5 299,-168.5 131,-168.5"/>
<text text-anchor="middle" x="215" y="-175.5" font-family="Helvetica,sans-Serif" font-size="10.00" fill="#000000">StaticSizeExtendedIOElement.hpp</text>
</a>
</g>
</g>
<!-- Node1&#45;&gt;Node2 -->
<g id="edge1" class="edge">
<title>Node1&#45;&gt;Node2</title>
<path fill="none" stroke="#191970" d="M264.91,-217.928C252.6747,-208.1397 237.4493,-195.9595 227.0533,-187.6427"/>
<polygon fill="#191970" stroke="#191970" points="262.8118,-220.7316 272.8069,-224.2455 267.1847,-215.2655 262.8118,-220.7316"/>
</g>
<!-- Node11 -->
<g id="node11" class="node">
<title>Node11</title>
<g id="a_node11"><a xlink:href="../../df/ddc/SOSFilter_8hpp.html" target="_top" xlink:title=" ">
<polygon fill="#ffffff" stroke="#000000" points="344,-168.5 344,-187.5 422,-187.5 422,-168.5 344,-168.5"/>
<text text-anchor="middle" x="383" y="-175.5" font-family="Helvetica,sans-Serif" font-size="10.00" fill="#000000">SOSFilter.hpp</text>
</a>
</g>
</g>
<!-- Node1&#45;&gt;Node11 -->
<g id="edge13" class="edge">
<title>Node1&#45;&gt;Node11</title>
<path fill="none" stroke="#191970" d="M311.1686,-219.0465C328.6058,-209.0824 351.0111,-196.2794 366.1253,-187.6427"/>
<polygon fill="#191970" stroke="#191970" points="309.0162,-216.2453 302.0703,-224.2455 312.4892,-222.323 309.0162,-216.2453"/>
</g>
<!-- Node3 -->
<g id="node3" class="node">
<title>Node3</title>
<g id="a_node3"><a xlink:href="../../d7/def/AnalogMultiplex_8hpp.html" target="_top" xlink:title=" ">
<polygon fill="#ffffff" stroke="#000000" points="0,-112.5 0,-131.5 104,-131.5 104,-112.5 0,-112.5"/>
<text text-anchor="middle" x="52" y="-119.5" font-family="Helvetica,sans-Serif" font-size="10.00" fill="#000000">AnalogMultiplex.hpp</text>
</a>
</g>
</g>
<!-- Node2&#45;&gt;Node3 -->
<g id="edge2" class="edge">
<title>Node2&#45;&gt;Node3</title>
<path fill="none" stroke="#191970" d="M177.3267,-165.057C147.4958,-154.8084 106.5148,-140.729 79.6551,-131.5011"/>
<polygon fill="#191970" stroke="#191970" points="176.3846,-168.4341 186.9793,-168.3733 178.6591,-161.8139 176.3846,-168.4341"/>
</g>
<!-- Node4 -->
<g id="node4" class="node">
<title>Node4</title>
<g id="a_node4"><a xlink:href="../../d2/d25/MAX7219_8hpp.html" target="_top" xlink:title=" ">
<polygon fill="#ffffff" stroke="#000000" points="122,-112.5 122,-131.5 200,-131.5 200,-112.5 122,-112.5"/>
<text text-anchor="middle" x="161" y="-119.5" font-family="Helvetica,sans-Serif" font-size="10.00" fill="#000000">MAX7219.hpp</text>
</a>
</g>
</g>
<!-- Node2&#45;&gt;Node4 -->
<g id="edge3" class="edge">
<title>Node2&#45;&gt;Node4</title>
<path fill="none" stroke="#191970" d="M198.4031,-160.7884C189.1653,-151.2085 178.0096,-139.6396 170.2983,-131.6427"/>
<polygon fill="#191970" stroke="#191970" points="196.1331,-163.4766 205.5939,-168.2455 201.172,-158.6176 196.1331,-163.4766"/>
</g>
<!-- Node5 -->
<g id="node5" class="node">
<title>Node5</title>
<g id="a_node5"><a xlink:href="../../d8/d93/ShiftRegisterOutBase_8hpp.html" target="_top" xlink:title=" ">
<polygon fill="#ffffff" stroke="#000000" points="218.5,-112.5 218.5,-131.5 349.5,-131.5 349.5,-112.5 218.5,-112.5"/>
<text text-anchor="middle" x="284" y="-119.5" font-family="Helvetica,sans-Serif" font-size="10.00" fill="#000000">ShiftRegisterOutBase.hpp</text>
</a>
</g>
</g>
<!-- Node2&#45;&gt;Node5 -->
<g id="edge4" class="edge">
<title>Node2&#45;&gt;Node5</title>
<path fill="none" stroke="#191970" d="M234.803,-161.928C246.8636,-152.1397 261.8714,-139.9595 272.1188,-131.6427"/>
<polygon fill="#191970" stroke="#191970" points="232.5779,-159.2262 227.0189,-168.2455 236.9891,-164.6614 232.5779,-159.2262"/>
</g>
<!-- Node6 -->
<g id="node6" class="node">
<title>Node6</title>
<g id="a_node6"><a xlink:href="../../d0/db4/ShiftRegisterOut_8hpp.html" target="_top" xlink:title=" ">
<polygon fill="#ffffff" stroke="#000000" points="94,-56.5 94,-75.5 202,-75.5 202,-56.5 94,-56.5"/>
<text text-anchor="middle" x="148" y="-63.5" font-family="Helvetica,sans-Serif" font-size="10.00" fill="#000000">ShiftRegisterOut.hpp</text>
</a>
</g>
</g>
<!-- Node5&#45;&gt;Node6 -->
<g id="edge5" class="edge">
<title>Node5&#45;&gt;Node6</title>
<path fill="none" stroke="#191970" d="M251.2601,-108.5189C226.4917,-98.3201 193.095,-84.5685 171.0742,-75.5011"/>
<polygon fill="#191970" stroke="#191970" points="250.0413,-111.8021 260.6208,-112.3733 252.7066,-105.3293 250.0413,-111.8021"/>
</g>
<!-- Node8 -->
<g id="node8" class="node">
<title>Node8</title>
<g id="a_node8"><a xlink:href="../../d5/d47/ShiftRegisterOutBase_8ipp.html" target="_top" xlink:title=" ">
<polygon fill="#ffffff" stroke="#000000" points="220,-56.5 220,-75.5 348,-75.5 348,-56.5 220,-56.5"/>
<text text-anchor="middle" x="284" y="-63.5" font-family="Helvetica,sans-Serif" font-size="10.00" fill="#000000">ShiftRegisterOutBase.ipp</text>
</a>
</g>
</g>
<!-- Node5&#45;&gt;Node8 -->
<g id="edge8" class="edge">
<title>Node5&#45;&gt;Node8</title>
<path fill="none" stroke="#191970" d="M277.5113,-102.1575C276.919,-93.155 277.3335,-82.9199 278.7549,-75.6427"/>
<polygon fill="#191970" stroke="#191970" points="274.0561,-102.739 278.7332,-112.2455 281.0053,-101.8972 274.0561,-102.739"/>
</g>
<!-- Node9 -->
<g id="node9" class="node">
<title>Node9</title>
<g id="a_node9"><a xlink:href="../../d7/d88/SPIShiftRegisterOut_8hpp.html" target="_top" xlink:title=" ">
<polygon fill="#ffffff" stroke="#000000" points="366.5,-56.5 366.5,-75.5 491.5,-75.5 491.5,-56.5 366.5,-56.5"/>
<text text-anchor="middle" x="429" y="-63.5" font-family="Helvetica,sans-Serif" font-size="10.00" fill="#000000">SPIShiftRegisterOut.hpp</text>
</a>
</g>
</g>
<!-- Node5&#45;&gt;Node9 -->
<g id="edge10" class="edge">
<title>Node5&#45;&gt;Node9</title>
<path fill="none" stroke="#191970" d="M318.5565,-108.6541C344.9986,-98.4419 380.8169,-84.6086 404.3989,-75.5011"/>
<polygon fill="#191970" stroke="#191970" points="316.9939,-105.5055 308.9264,-112.3733 319.5158,-112.0354 316.9939,-105.5055"/>
</g>
<!-- Node7 -->
<g id="node7" class="node">
<title>Node7</title>
<g id="a_node7"><a xlink:href="../../de/d95/ShiftRegisterOut_8ipp.html" target="_top" xlink:title=" ">
<polygon fill="#ffffff" stroke="#000000" points="95.5,-.5 95.5,-19.5 200.5,-19.5 200.5,-.5 95.5,-.5"/>
<text text-anchor="middle" x="148" y="-7.5" font-family="Helvetica,sans-Serif" font-size="10.00" fill="#000000">ShiftRegisterOut.ipp</text>
</a>
</g>
</g>
<!-- Node6&#45;&gt;Node7 -->
<g id="edge6" class="edge">
<title>Node6&#45;&gt;Node7</title>
<path fill="none" stroke="#191970" d="M141.5113,-46.1575C140.919,-37.155 141.3335,-26.9199 142.7549,-19.6427"/>
<polygon fill="#191970" stroke="#191970" points="138.0561,-46.739 142.7332,-56.2455 145.0053,-45.8972 138.0561,-46.739"/>
</g>
<!-- Node7&#45;&gt;Node6 -->
<g id="edge7" class="edge">
<title>Node7&#45;&gt;Node6</title>
<path fill="none" stroke="#191970" d="M154.4795,-29.7046C155.0821,-38.6944 154.6779,-48.9382 153.2668,-56.2455"/>
<polygon fill="#191970" stroke="#191970" points="157.9368,-29.1421 153.2451,-19.6427 150.9889,-29.9945 157.9368,-29.1421"/>
</g>
<!-- Node8&#45;&gt;Node5 -->
<g id="edge9" class="edge">
<title>Node8&#45;&gt;Node5</title>
<path fill="none" stroke="#191970" d="M290.4795,-85.7046C291.0821,-94.6944 290.6779,-104.9382 289.2668,-112.2455"/>
<polygon fill="#191970" stroke="#191970" points="293.9368,-85.1421 289.2451,-75.6427 286.9889,-85.9945 293.9368,-85.1421"/>
</g>
<!-- Node10 -->
<g id="node10" class="node">
<title>Node10</title>
<g id="a_node10"><a xlink:href="../../da/d45/SPIShiftRegisterOut_8ipp.html" target="_top" xlink:title=" ">
<polygon fill="#ffffff" stroke="#000000" points="368,-.5 368,-19.5 490,-19.5 490,-.5 368,-.5"/>
<text text-anchor="middle" x="429" y="-7.5" font-family="Helvetica,sans-Serif" font-size="10.00" fill="#000000">SPIShiftRegisterOut.ipp</text>
</a>
</g>
</g>
<!-- Node9&#45;&gt;Node10 -->
<g id="edge11" class="edge">
<title>Node9&#45;&gt;Node10</title>
<path fill="none" stroke="#191970" d="M422.5113,-46.1575C421.919,-37.155 422.3335,-26.9199 423.7549,-19.6427"/>
<polygon fill="#191970" stroke="#191970" points="419.0561,-46.739 423.7332,-56.2455 426.0053,-45.8972 419.0561,-46.739"/>
</g>
<!-- Node10&#45;&gt;Node9 -->
<g id="edge12" class="edge">
<title>Node10&#45;&gt;Node9</title>
<path fill="none" stroke="#191970" d="M435.4795,-29.7046C436.0821,-38.6944 435.6779,-48.9382 434.2668,-56.2455"/>
<polygon fill="#191970" stroke="#191970" points="438.9368,-29.1421 434.2451,-19.6427 431.9889,-29.9945 438.9368,-29.1421"/>
</g>
<!-- Node12 -->
<g id="node12" class="node">
<title>Node12</title>
<g id="a_node12"><a xlink:href="../../d4/d40/Butterworth_8hpp.html" target="_top" xlink:title=" ">
<polygon fill="#ffffff" stroke="#000000" points="368,-112.5 368,-131.5 454,-131.5 454,-112.5 368,-112.5"/>
<text text-anchor="middle" x="411" y="-119.5" font-family="Helvetica,sans-Serif" font-size="10.00" fill="#000000">Butterworth.hpp</text>
</a>
</g>
</g>
<!-- Node11&#45;&gt;Node12 -->
<g id="edge14" class="edge">
<title>Node11&#45;&gt;Node12</title>
<path fill="none" stroke="#191970" d="M392.4781,-159.0437C397.0835,-149.8331 402.4201,-139.1598 406.1787,-131.6427"/>
<polygon fill="#191970" stroke="#191970" points="389.2189,-157.736 387.8772,-168.2455 395.4799,-160.8665 389.2189,-157.736"/>
</g>
</g>
</svg>
