<?xml version="1.0" encoding="UTF-8" standalone="no"?>
<!DOCTYPE svg PUBLIC "-//W3C//DTD SVG 1.1//EN"
 "http://www.w3.org/Graphics/SVG/1.1/DTD/svg11.dtd">
<!-- Generated by graphviz version 2.43.0 (0)
 -->
<!-- Title: ArrayHelpers.hpp Pages: 1 -->
<svg width="742pt" height="252pt"
 viewBox="0.00 0.00 741.50 252.00" xmlns="http://www.w3.org/2000/svg" xmlns:xlink="http://www.w3.org/1999/xlink">
<g id="graph0" class="graph" transform="scale(1 1) rotate(0) translate(4 248)">
<title>ArrayHelpers.hpp</title>
<polygon fill="white" stroke="transparent" points="-4,4 -4,-248 737.5,-248 737.5,4 -4,4"/>
<!-- Node1 -->
<g id="node1" class="node">
<title>Node1</title>
<g id="a_node1"><a xlink:title=" ">
<polygon fill="#bfbfbf" stroke="black" points="306,-224.5 306,-243.5 407,-243.5 407,-224.5 306,-224.5"/>
<text text-anchor="middle" x="356.5" y="-231.5" font-family="Helvetica,sans-Serif" font-size="10.00">ArrayHelpers.hpp</text>
</a>
</g>
</g>
<!-- Node2 -->
<g id="node2" class="node">
<title>Node2</title>
<g id="a_node2"><a xlink:href="../../d2/d05/StaticSizeExtendedIOElement_8hpp.html" target="_top" xlink:title=" ">
<polygon fill="white" stroke="black" points="190.5,-168.5 190.5,-187.5 372.5,-187.5 372.5,-168.5 190.5,-168.5"/>
<text text-anchor="middle" x="281.5" y="-175.5" font-family="Helvetica,sans-Serif" font-size="10.00">StaticSizeExtendedIOElement.hpp</text>
</a>
</g>
</g>
<!-- Node1&#45;&gt;Node2 -->
<g id="edge1" class="edge">
<title>Node1&#45;&gt;Node2</title>
<path fill="none" stroke="midnightblue" d="M336.19,-218.38C322.64,-208.62 305.26,-196.11 293.77,-187.83"/>
<polygon fill="midnightblue" stroke="midnightblue" points="334.29,-221.32 344.45,-224.32 338.38,-215.64 334.29,-221.32"/>
</g>
<!-- Node13 -->
<g id="node13" class="node">
<title>Node13</title>
<g id="a_node13"><a xlink:href="../../df/ddc/SOSFilter_8hpp.html" target="_top" xlink:title=" ">
<polygon fill="white" stroke="black" points="483,-168.5 483,-187.5 564,-187.5 564,-168.5 483,-168.5"/>
<text text-anchor="middle" x="523.5" y="-175.5" font-family="Helvetica,sans-Serif" font-size="10.00">SOSFilter.hpp</text>
</a>
</g>
</g>
<!-- Node1&#45;&gt;Node13 -->
<g id="edge16" class="edge">
<title>Node1&#45;&gt;Node13</title>
<path fill="none" stroke="midnightblue" d="M392.67,-221.3C424.14,-211.13 468.99,-196.62 497.16,-187.52"/>
<polygon fill="midnightblue" stroke="midnightblue" points="391.4,-218.04 382.96,-224.44 393.55,-224.7 391.4,-218.04"/>
</g>
<!-- Node3 -->
<g id="node3" class="node">
<title>Node3</title>
<g id="a_node3"><a xlink:href="../../d7/def/AnalogMultiplex_8hpp.html" target="_top" xlink:title=" ">
<polygon fill="white" stroke="black" points="0,-112.5 0,-131.5 117,-131.5 117,-112.5 0,-112.5"/>
<text text-anchor="middle" x="58.5" y="-119.5" font-family="Helvetica,sans-Serif" font-size="10.00">AnalogMultiplex.hpp</text>
</a>
</g>
</g>
<!-- Node2&#45;&gt;Node3 -->
<g id="edge2" class="edge">
<title>Node2&#45;&gt;Node3</title>
<path fill="none" stroke="midnightblue" d="M236.44,-166.09C194.31,-155.89 132.26,-140.86 93.67,-131.52"/>
<polygon fill="midnightblue" stroke="midnightblue" points="235.62,-169.49 246.16,-168.44 237.27,-162.69 235.62,-169.49"/>
</g>
<!-- Node4 -->
<g id="node4" class="node">
<title>Node4</title>
<g id="a_node4"><a xlink:href="../../d2/d25/MAX7219_8hpp.html" target="_top" xlink:title=" ">
<polygon fill="white" stroke="black" points="135.5,-112.5 135.5,-131.5 219.5,-131.5 219.5,-112.5 135.5,-112.5"/>
<text text-anchor="middle" x="177.5" y="-119.5" font-family="Helvetica,sans-Serif" font-size="10.00">MAX7219.hpp</text>
</a>
</g>
</g>
<!-- Node2&#45;&gt;Node4 -->
<g id="edge3" class="edge">
<title>Node2&#45;&gt;Node4</title>
<path fill="none" stroke="midnightblue" d="M255.67,-163.59C236.44,-153.61 210.76,-140.27 194.17,-131.65"/>
<polygon fill="midnightblue" stroke="midnightblue" points="254.3,-166.82 264.79,-168.32 257.53,-160.61 254.3,-166.82"/>
</g>
<!-- Node5 -->
<g id="node5" class="node">
<title>Node5</title>
<g id="a_node5"><a xlink:href="../../d7/dca/MCP23017_8hpp.html" target="_top" xlink:title=" ">
<polygon fill="white" stroke="black" points="237,-112.5 237,-131.5 326,-131.5 326,-112.5 237,-112.5"/>
<text text-anchor="middle" x="281.5" y="-119.5" font-family="Helvetica,sans-Serif" font-size="10.00">MCP23017.hpp</text>
</a>
</g>
</g>
<!-- Node2&#45;&gt;Node5 -->
<g id="edge4" class="edge">
<title>Node2&#45;&gt;Node5</title>
<path fill="none" stroke="midnightblue" d="M281.5,-157.8C281.5,-148.91 281.5,-138.78 281.5,-131.75"/>
<polygon fill="midnightblue" stroke="midnightblue" points="278,-158.08 281.5,-168.08 285,-158.08 278,-158.08"/>
</g>
<!-- Node7 -->
<g id="node7" class="node">
<title>Node7</title>
<g id="a_node7"><a xlink:href="../../d8/d93/ShiftRegisterOutBase_8hpp.html" target="_top" xlink:title=" ">
<polygon fill="white" stroke="black" points="410,-112.5 410,-131.5 551,-131.5 551,-112.5 410,-112.5"/>
<text text-anchor="middle" x="480.5" y="-119.5" font-family="Helvetica,sans-Serif" font-size="10.00">ShiftRegisterOutBase.hpp</text>
</a>
</g>
</g>
<!-- Node2&#45;&gt;Node7 -->
<g id="edge7" class="edge">
<title>Node2&#45;&gt;Node7</title>
<path fill="none" stroke="midnightblue" d="M323.15,-165.7C360.71,-155.51 415.11,-140.74 449.12,-131.52"/>
<polygon fill="midnightblue" stroke="midnightblue" points="321.77,-162.45 313.03,-168.44 323.6,-169.2 321.77,-162.45"/>
</g>
<!-- Node6 -->
<g id="node6" class="node">
<title>Node6</title>
<g id="a_node6"><a xlink:href="../../d2/d94/MCP23017_8ipp.html" target="_top" xlink:title=" ">
<polygon fill="white" stroke="black" points="205.5,-56.5 205.5,-75.5 291.5,-75.5 291.5,-56.5 205.5,-56.5"/>
<text text-anchor="middle" x="248.5" y="-63.5" font-family="Helvetica,sans-Serif" font-size="10.00">MCP23017.ipp</text>
</a>
</g>
</g>
<!-- Node5&#45;&gt;Node6 -->
<g id="edge5" class="edge">
<title>Node5&#45;&gt;Node6</title>
<path fill="none" stroke="midnightblue" d="M264.69,-103.86C258.15,-94.5 251.72,-83.33 248.72,-75.75"/>
<polygon fill="midnightblue" stroke="midnightblue" points="262.07,-106.2 270.88,-112.08 267.67,-101.99 262.07,-106.2"/>
</g>
<!-- Node6&#45;&gt;Node5 -->
<g id="edge6" class="edge">
<title>Node6&#45;&gt;Node5</title>
<path fill="none" stroke="midnightblue" d="M265.17,-83.94C271.71,-93.26 278.16,-104.46 281.22,-112.08"/>
<polygon fill="midnightblue" stroke="midnightblue" points="267.8,-81.62 258.98,-75.75 262.22,-85.84 267.8,-81.62"/>
</g>
<!-- Node8 -->
<g id="node8" class="node">
<title>Node8</title>
<g id="a_node8"><a xlink:href="../../d0/db4/ShiftRegisterOut_8hpp.html" target="_top" xlink:title=" ">
<polygon fill="white" stroke="black" points="310,-56.5 310,-75.5 427,-75.5 427,-56.5 310,-56.5"/>
<text text-anchor="middle" x="368.5" y="-63.5" font-family="Helvetica,sans-Serif" font-size="10.00">ShiftRegisterOut.hpp</text>
</a>
</g>
</g>
<!-- Node7&#45;&gt;Node8 -->
<g id="edge8" class="edge">
<title>Node7&#45;&gt;Node8</title>
<path fill="none" stroke="midnightblue" d="M453.25,-107.86C432.48,-97.85 404.48,-84.35 386.45,-75.65"/>
<polygon fill="midnightblue" stroke="midnightblue" points="451.98,-111.13 462.51,-112.32 455.02,-104.83 451.98,-111.13"/>
</g>
<!-- Node10 -->
<g id="node10" class="node">
<title>Node10</title>
<g id="a_node10"><a xlink:href="../../d5/d47/ShiftRegisterOutBase_8ipp.html" target="_top" xlink:title=" ">
<polygon fill="white" stroke="black" points="445.5,-56.5 445.5,-75.5 583.5,-75.5 583.5,-56.5 445.5,-56.5"/>
<text text-anchor="middle" x="514.5" y="-63.5" font-family="Helvetica,sans-Serif" font-size="10.00">ShiftRegisterOutBase.ipp</text>
</a>
</g>
</g>
<!-- Node7&#45;&gt;Node10 -->
<g id="edge11" class="edge">
<title>Node7&#45;&gt;Node10</title>
<path fill="none" stroke="midnightblue" d="M485.44,-102.98C490.48,-93.82 497.66,-83.09 503.86,-75.75"/>
<polygon fill="midnightblue" stroke="midnightblue" points="482.23,-101.57 480.95,-112.08 488.51,-104.66 482.23,-101.57"/>
</g>
<!-- Node11 -->
<g id="node11" class="node">
<title>Node11</title>
<g id="a_node11"><a xlink:href="../../d7/d88/SPIShiftRegisterOut_8hpp.html" target="_top" xlink:title=" ">
<polygon fill="white" stroke="black" points="601.5,-56.5 601.5,-75.5 733.5,-75.5 733.5,-56.5 601.5,-56.5"/>
<text text-anchor="middle" x="667.5" y="-63.5" font-family="Helvetica,sans-Serif" font-size="10.00">SPIShiftRegisterOut.hpp</text>
</a>
</g>
</g>
<!-- Node7&#45;&gt;Node11 -->
<g id="edge13" class="edge">
<title>Node7&#45;&gt;Node11</title>
<path fill="none" stroke="midnightblue" d="M520.09,-109.57C555.37,-99.38 606.19,-84.7 638.01,-75.52"/>
<polygon fill="midnightblue" stroke="midnightblue" points="518.77,-106.31 510.13,-112.44 520.71,-113.03 518.77,-106.31"/>
</g>
<!-- Node9 -->
<g id="node9" class="node">
<title>Node9</title>
<g id="a_node9"><a xlink:href="../../de/d95/ShiftRegisterOut_8ipp.html" target="_top" xlink:title=" ">
<polygon fill="white" stroke="black" points="311.5,-0.5 311.5,-19.5 425.5,-19.5 425.5,-0.5 311.5,-0.5"/>
<text text-anchor="middle" x="368.5" y="-7.5" font-family="Helvetica,sans-Serif" font-size="10.00">ShiftRegisterOut.ipp</text>
</a>
</g>
</g>
<!-- Node8&#45;&gt;Node9 -->
<g id="edge9" class="edge">
<title>Node8&#45;&gt;Node9</title>
<path fill="none" stroke="midnightblue" d="M362.03,-46.1C361.4,-37.14 361.84,-26.86 363.37,-19.75"/>
<polygon fill="midnightblue" stroke="midnightblue" points="358.57,-46.62 363.33,-56.08 365.51,-45.71 358.57,-46.62"/>
</g>
<!-- Node9&#45;&gt;Node8 -->
<g id="edge10" class="edge">
<title>Node9&#45;&gt;Node8</title>
<path fill="none" stroke="midnightblue" d="M374.96,-29.69C375.61,-38.64 375.18,-48.93 373.67,-56.08"/>
<polygon fill="midnightblue" stroke="midnightblue" points="378.42,-29.2 373.63,-19.75 371.48,-30.13 378.42,-29.2"/>
</g>
<!-- Node10&#45;&gt;Node7 -->
<g id="edge12" class="edge">
<title>Node10&#45;&gt;Node7</title>
<path fill="none" stroke="midnightblue" d="M509.68,-84.81C504.66,-93.95 497.49,-104.69 491.28,-112.08"/>
<polygon fill="midnightblue" stroke="midnightblue" points="512.86,-86.27 514.12,-75.75 506.57,-83.19 512.86,-86.27"/>
</g>
<!-- Node12 -->
<g id="node12" class="node">
<title>Node12</title>
<g id="a_node12"><a xlink:href="../../da/d45/SPIShiftRegisterOut_8ipp.html" target="_top" xlink:title=" ">
<polygon fill="white" stroke="black" points="603,-0.5 603,-19.5 732,-19.5 732,-0.5 603,-0.5"/>
<text text-anchor="middle" x="667.5" y="-7.5" font-family="Helvetica,sans-Serif" font-size="10.00">SPIShiftRegisterOut.ipp</text>
</a>
</g>
</g>
<!-- Node11&#45;&gt;Node12 -->
<g id="edge14" class="edge">
<title>Node11&#45;&gt;Node12</title>
<path fill="none" stroke="midnightblue" d="M661.03,-46.1C660.4,-37.14 660.84,-26.86 662.37,-19.75"/>
<polygon fill="midnightblue" stroke="midnightblue" points="657.57,-46.62 662.33,-56.08 664.51,-45.71 657.57,-46.62"/>
</g>
<!-- Node12&#45;&gt;Node11 -->
<g id="edge15" class="edge">
<title>Node12&#45;&gt;Node11</title>
<path fill="none" stroke="midnightblue" d="M673.96,-29.69C674.61,-38.64 674.18,-48.93 672.67,-56.08"/>
<polygon fill="midnightblue" stroke="midnightblue" points="677.42,-29.2 672.63,-19.75 670.48,-30.13 677.42,-29.2"/>
</g>
<!-- Node14 -->
<g id="node14" class="node">
<title>Node14</title>
<g id="a_node14"><a xlink:href="../../d4/d40/Butterworth_8hpp.html" target="_top" xlink:title=" ">
<polygon fill="white" stroke="black" points="569,-112.5 569,-131.5 664,-131.5 664,-112.5 569,-112.5"/>
<text text-anchor="middle" x="616.5" y="-119.5" font-family="Helvetica,sans-Serif" font-size="10.00">Butterworth.hpp</text>
</a>
</g>
</g>
<!-- Node13&#45;&gt;Node14 -->
<g id="edge17" class="edge">
<title>Node13&#45;&gt;Node14</title>
<path fill="none" stroke="midnightblue" d="M547.31,-163.18C564.42,-153.24 586.97,-140.15 601.6,-131.65"/>
<polygon fill="midnightblue" stroke="midnightblue" points="545.33,-160.28 538.44,-168.32 548.85,-166.33 545.33,-160.28"/>
</g>
</g>
</svg>
