<?xml version="1.0" encoding="UTF-8" standalone="no"?>
<!DOCTYPE svg PUBLIC "-//W3C//DTD SVG 1.1//EN"
 "http://www.w3.org/Graphics/SVG/1.1/DTD/svg11.dtd">
<!-- Generated by graphviz version 2.38.0 (20140413.2041)
 -->
<!-- Title: PrintStream.hpp Pages: 1 -->
<svg width="1562pt" height="532pt"
 viewBox="0.00 0.00 1562.00 532.00" xmlns="http://www.w3.org/2000/svg" xmlns:xlink="http://www.w3.org/1999/xlink">
<g id="graph0" class="graph" transform="scale(1 1) rotate(0) translate(4 528)">
<title>PrintStream.hpp</title>
<polygon fill="white" stroke="none" points="-4,4 -4,-528 1558,-528 1558,4 -4,4"/>
<!-- Node1 -->
<g id="node1" class="node"><title>Node1</title>
<g id="a_node1"><a xlink:title=" ">
<polygon fill="#bfbfbf" stroke="black" points="1368,-504.5 1368,-523.5 1455,-523.5 1455,-504.5 1368,-504.5"/>
<text text-anchor="middle" x="1411.5" y="-511.5" font-family="Helvetica,sans-Serif" font-size="10.00">PrintStream.hpp</text>
</a>
</g>
</g>
<!-- Node2 -->
<g id="node2" class="node"><title>Node2</title>
<g id="a_node2"><a xlink:href="../../d5/db6/ArrayHelpers_8hpp.html" target="_top" xlink:title=" ">
<polygon fill="white" stroke="black" points="1253.5,-224.5 1253.5,-243.5 1345.5,-243.5 1345.5,-224.5 1253.5,-224.5"/>
<text text-anchor="middle" x="1299.5" y="-231.5" font-family="Helvetica,sans-Serif" font-size="10.00">ArrayHelpers.hpp</text>
</a>
</g>
</g>
<!-- Node1&#45;&gt;Node2 -->
<g id="edge1" class="edge"><title>Node1&#45;&gt;Node2</title>
<path fill="none" stroke="midnightblue" d="M1418.8,-494.856C1426.8,-473.318 1438.5,-436.139 1438.5,-403 1438.5,-403 1438.5,-403 1438.5,-345 1438.5,-289.452 1369.4,-257.551 1328.64,-243.565"/>
<polygon fill="midnightblue" stroke="midnightblue" points="1415.48,-493.748 1415.14,-504.338 1422.01,-496.27 1415.48,-493.748"/>
</g>
<!-- Node14 -->
<g id="node14" class="node"><title>Node14</title>
<g id="a_node14"><a xlink:href="../../df/dee/Debug_8hpp.html" target="_top" xlink:title=" ">
<polygon fill="white" stroke="black" points="591.5,-448.5 591.5,-467.5 655.5,-467.5 655.5,-448.5 591.5,-448.5"/>
<text text-anchor="middle" x="623.5" y="-455.5" font-family="Helvetica,sans-Serif" font-size="10.00">Debug.hpp</text>
</a>
</g>
</g>
<!-- Node1&#45;&gt;Node14 -->
<g id="edge16" class="edge"><title>Node1&#45;&gt;Node14</title>
<path fill="none" stroke="midnightblue" d="M1357.71,-509.314C1205.91,-498.911 777.32,-469.541 655.915,-461.221"/>
<polygon fill="midnightblue" stroke="midnightblue" points="1357.51,-512.808 1367.73,-510 1357.99,-505.825 1357.51,-512.808"/>
</g>
<!-- Node44 -->
<g id="node44" class="node"><title>Node44</title>
<g id="a_node44"><a xlink:href="../../d3/d50/FixedPoint_8hpp.html" target="_top" xlink:title=" ">
<polygon fill="white" stroke="black" points="1328.5,-336.5 1328.5,-355.5 1410.5,-355.5 1410.5,-336.5 1328.5,-336.5"/>
<text text-anchor="middle" x="1369.5" y="-343.5" font-family="Helvetica,sans-Serif" font-size="10.00">FixedPoint.hpp</text>
</a>
</g>
</g>
<!-- Node1&#45;&gt;Node44 -->
<g id="edge78" class="edge"><title>Node1&#45;&gt;Node44</title>
<path fill="none" stroke="midnightblue" d="M1406.67,-493.93C1397.56,-457.92 1378.16,-381.231 1371.67,-355.568"/>
<polygon fill="midnightblue" stroke="midnightblue" points="1403.4,-495.239 1409.24,-504.075 1410.18,-493.522 1403.4,-495.239"/>
</g>
<!-- Node48 -->
<g id="node48" class="node"><title>Node48</title>
<g id="a_node48"><a xlink:href="../../da/d69/PrintStream_8cpp.html" target="_top" xlink:title=" ">
<polygon fill="white" stroke="black" points="1467,-448.5 1467,-467.5 1554,-467.5 1554,-448.5 1467,-448.5"/>
<text text-anchor="middle" x="1510.5" y="-455.5" font-family="Helvetica,sans-Serif" font-size="10.00">PrintStream.cpp</text>
</a>
</g>
</g>
<!-- Node1&#45;&gt;Node48 -->
<g id="edge77" class="edge"><title>Node1&#45;&gt;Node48</title>
<path fill="none" stroke="midnightblue" d="M1436.34,-499.453C1454.61,-489.483 1478.92,-476.228 1494.63,-467.655"/>
<polygon fill="midnightblue" stroke="midnightblue" points="1434.51,-496.463 1427.41,-504.324 1437.86,-502.608 1434.51,-496.463"/>
</g>
<!-- Node3 -->
<g id="node3" class="node"><title>Node3</title>
<g id="a_node3"><a xlink:href="../../d2/d05/StaticSizeExtendedIOElement_8hpp.html" target="_top" xlink:title=" ">
<polygon fill="white" stroke="black" points="1167.5,-168.5 1167.5,-187.5 1335.5,-187.5 1335.5,-168.5 1167.5,-168.5"/>
<text text-anchor="middle" x="1251.5" y="-175.5" font-family="Helvetica,sans-Serif" font-size="10.00">StaticSizeExtendedIOElement.hpp</text>
</a>
</g>
</g>
<!-- Node2&#45;&gt;Node3 -->
<g id="edge2" class="edge"><title>Node2&#45;&gt;Node3</title>
<path fill="none" stroke="midnightblue" d="M1284.77,-216.431C1276.36,-206.967 1266.15,-195.483 1259.28,-187.751"/>
<polygon fill="midnightblue" stroke="midnightblue" points="1282.31,-218.934 1291.57,-224.083 1287.55,-214.284 1282.31,-218.934"/>
</g>
<!-- Node12 -->
<g id="node12" class="node"><title>Node12</title>
<g id="a_node12"><a xlink:href="../../df/ddc/SOSFilter_8hpp.html" target="_top" xlink:title=" ">
<polygon fill="white" stroke="black" points="1353.5,-168.5 1353.5,-187.5 1431.5,-187.5 1431.5,-168.5 1353.5,-168.5"/>
<text text-anchor="middle" x="1392.5" y="-175.5" font-family="Helvetica,sans-Serif" font-size="10.00">SOSFilter.hpp</text>
</a>
</g>
</g>
<!-- Node2&#45;&gt;Node12 -->
<g id="edge14" class="edge"><title>Node2&#45;&gt;Node12</title>
<path fill="none" stroke="midnightblue" d="M1323.31,-219.177C1340.42,-209.241 1362.97,-196.149 1377.6,-187.655"/>
<polygon fill="midnightblue" stroke="midnightblue" points="1321.33,-216.276 1314.44,-224.324 1324.85,-222.329 1321.33,-216.276"/>
</g>
<!-- Node4 -->
<g id="node4" class="node"><title>Node4</title>
<g id="a_node4"><a xlink:href="../../d7/def/AnalogMultiplex_8hpp.html" target="_top" xlink:title=" ">
<polygon fill="white" stroke="black" points="1087.5,-112.5 1087.5,-131.5 1191.5,-131.5 1191.5,-112.5 1087.5,-112.5"/>
<text text-anchor="middle" x="1139.5" y="-119.5" font-family="Helvetica,sans-Serif" font-size="10.00">AnalogMultiplex.hpp</text>
</a>
</g>
</g>
<!-- Node3&#45;&gt;Node4 -->
<g id="edge3" class="edge"><title>Node3&#45;&gt;Node4</title>
<path fill="none" stroke="midnightblue" d="M1224.25,-163.862C1203.48,-153.849 1175.48,-140.346 1157.45,-131.655"/>
<polygon fill="midnightblue" stroke="midnightblue" points="1222.98,-167.134 1233.51,-168.324 1226.02,-160.828 1222.98,-167.134"/>
</g>
<!-- Node5 -->
<g id="node5" class="node"><title>Node5</title>
<g id="a_node5"><a xlink:href="../../d2/d25/MAX7219_8hpp.html" target="_top" xlink:title=" ">
<polygon fill="white" stroke="black" points="1143.5,-56.5 1143.5,-75.5 1221.5,-75.5 1221.5,-56.5 1143.5,-56.5"/>
<text text-anchor="middle" x="1182.5" y="-63.5" font-family="Helvetica,sans-Serif" font-size="10.00">MAX7219.hpp</text>
</a>
</g>
</g>
<!-- Node3&#45;&gt;Node5 -->
<g id="edge4" class="edge"><title>Node3&#45;&gt;Node5</title>
<path fill="none" stroke="midnightblue" d="M1240.61,-159.64C1225.62,-135.744 1199.2,-93.6286 1187.89,-75.5914"/>
<polygon fill="midnightblue" stroke="midnightblue" points="1237.81,-161.757 1246.09,-168.368 1243.74,-158.037 1237.81,-161.757"/>
</g>
<!-- Node6 -->
<g id="node6" class="node"><title>Node6</title>
<g id="a_node6"><a xlink:href="../../d8/d93/ShiftRegisterOutBase_8hpp.html" target="_top" xlink:title=" ">
<polygon fill="white" stroke="black" points="1248,-112.5 1248,-131.5 1379,-131.5 1379,-112.5 1248,-112.5"/>
<text text-anchor="middle" x="1313.5" y="-119.5" font-family="Helvetica,sans-Serif" font-size="10.00">ShiftRegisterOutBase.hpp</text>
</a>
</g>
</g>
<!-- Node3&#45;&gt;Node6 -->
<g id="edge5" class="edge"><title>Node3&#45;&gt;Node6</title>
<path fill="none" stroke="midnightblue" d="M1269.25,-161.537C1280.31,-151.909 1294.13,-139.869 1303.36,-131.834"/>
<polygon fill="midnightblue" stroke="midnightblue" points="1266.7,-159.117 1261.46,-168.324 1271.3,-164.395 1266.7,-159.117"/>
</g>
<!-- Node7 -->
<g id="node7" class="node"><title>Node7</title>
<g id="a_node7"><a xlink:href="../../d0/db4/ShiftRegisterOut_8hpp.html" target="_top" xlink:title=" ">
<polygon fill="white" stroke="black" points="1239.5,-56.5 1239.5,-75.5 1347.5,-75.5 1347.5,-56.5 1239.5,-56.5"/>
<text text-anchor="middle" x="1293.5" y="-63.5" font-family="Helvetica,sans-Serif" font-size="10.00">ShiftRegisterOut.hpp</text>
</a>
</g>
</g>
<!-- Node6&#45;&gt;Node7 -->
<g id="edge6" class="edge"><title>Node6&#45;&gt;Node7</title>
<path fill="none" stroke="midnightblue" d="M1306.72,-102.69C1303.35,-93.589 1299.43,-83.0141 1296.74,-75.7511"/>
<polygon fill="midnightblue" stroke="midnightblue" points="1303.44,-103.921 1310.2,-112.083 1310.01,-101.49 1303.44,-103.921"/>
</g>
<!-- Node9 -->
<g id="node9" class="node"><title>Node9</title>
<g id="a_node9"><a xlink:href="../../d5/d47/ShiftRegisterOutBase_8ipp.html" target="_top" xlink:title=" ">
<polygon fill="white" stroke="black" points="778.5,-56.5 778.5,-75.5 906.5,-75.5 906.5,-56.5 778.5,-56.5"/>
<text text-anchor="middle" x="842.5" y="-63.5" font-family="Helvetica,sans-Serif" font-size="10.00">ShiftRegisterOutBase.ipp</text>
</a>
</g>
</g>
<!-- Node6&#45;&gt;Node9 -->
<g id="edge9" class="edge"><title>Node6&#45;&gt;Node9</title>
<path fill="none" stroke="midnightblue" d="M1237.58,-113.189C1156.22,-104.287 1023.57,-89.2518 909.5,-76 908.18,-75.8467 906.848,-75.6916 905.506,-75.5351"/>
<polygon fill="midnightblue" stroke="midnightblue" points="1237.41,-116.692 1247.73,-114.297 1238.17,-109.733 1237.41,-116.692"/>
</g>
<!-- Node10 -->
<g id="node10" class="node"><title>Node10</title>
<g id="a_node10"><a xlink:href="../../d7/d88/SPIShiftRegisterOut_8hpp.html" target="_top" xlink:title=" ">
<polygon fill="white" stroke="black" points="1366,-56.5 1366,-75.5 1491,-75.5 1491,-56.5 1366,-56.5"/>
<text text-anchor="middle" x="1428.5" y="-63.5" font-family="Helvetica,sans-Serif" font-size="10.00">SPIShiftRegisterOut.hpp</text>
</a>
</g>
</g>
<!-- Node6&#45;&gt;Node10 -->
<g id="edge11" class="edge"><title>Node6&#45;&gt;Node10</title>
<path fill="none" stroke="midnightblue" d="M1340.98,-108.096C1362.47,-98.0073 1391.72,-84.2697 1410.36,-75.5164"/>
<polygon fill="midnightblue" stroke="midnightblue" points="1339.29,-105.025 1331.72,-112.444 1342.26,-111.361 1339.29,-105.025"/>
</g>
<!-- Node8 -->
<g id="node8" class="node"><title>Node8</title>
<g id="a_node8"><a xlink:href="../../de/d95/ShiftRegisterOut_8ipp.html" target="_top" xlink:title=" ">
<polygon fill="white" stroke="black" points="1241,-0.5 1241,-19.5 1346,-19.5 1346,-0.5 1241,-0.5"/>
<text text-anchor="middle" x="1293.5" y="-7.5" font-family="Helvetica,sans-Serif" font-size="10.00">ShiftRegisterOut.ipp</text>
</a>
</g>
</g>
<!-- Node7&#45;&gt;Node8 -->
<g id="edge7" class="edge"><title>Node7&#45;&gt;Node8</title>
<path fill="none" stroke="midnightblue" d="M1287.03,-46.1005C1286.4,-37.1357 1286.84,-26.8579 1288.37,-19.7511"/>
<polygon fill="midnightblue" stroke="midnightblue" points="1283.57,-46.6216 1288.33,-56.083 1290.51,-45.7134 1283.57,-46.6216"/>
</g>
<!-- Node8&#45;&gt;Node7 -->
<g id="edge8" class="edge"><title>Node8&#45;&gt;Node7</title>
<path fill="none" stroke="midnightblue" d="M1299.96,-29.6911C1300.61,-38.6353 1300.18,-48.9272 1298.67,-56.083"/>
<polygon fill="midnightblue" stroke="midnightblue" points="1303.42,-29.2002 1298.63,-19.7511 1296.48,-30.1262 1303.42,-29.2002"/>
</g>
<!-- Node9&#45;&gt;Node6 -->
<g id="edge10" class="edge"><title>Node9&#45;&gt;Node6</title>
<path fill="none" stroke="midnightblue" d="M916.866,-74.7608C920.47,-75.1815 924.029,-75.5968 927.5,-76 1040.11,-89.0819 1170.82,-103.901 1247.67,-112.844"/>
<polygon fill="midnightblue" stroke="midnightblue" points="916.971,-71.2494 906.633,-73.5665 916.16,-78.2022 916.971,-71.2494"/>
</g>
<!-- Node11 -->
<g id="node11" class="node"><title>Node11</title>
<g id="a_node11"><a xlink:href="../../da/d45/SPIShiftRegisterOut_8ipp.html" target="_top" xlink:title=" ">
<polygon fill="white" stroke="black" points="1367.5,-0.5 1367.5,-19.5 1489.5,-19.5 1489.5,-0.5 1367.5,-0.5"/>
<text text-anchor="middle" x="1428.5" y="-7.5" font-family="Helvetica,sans-Serif" font-size="10.00">SPIShiftRegisterOut.ipp</text>
</a>
</g>
</g>
<!-- Node10&#45;&gt;Node11 -->
<g id="edge12" class="edge"><title>Node10&#45;&gt;Node11</title>
<path fill="none" stroke="midnightblue" d="M1422.03,-46.1005C1421.4,-37.1357 1421.84,-26.8579 1423.37,-19.7511"/>
<polygon fill="midnightblue" stroke="midnightblue" points="1418.57,-46.6216 1423.33,-56.083 1425.51,-45.7134 1418.57,-46.6216"/>
</g>
<!-- Node11&#45;&gt;Node10 -->
<g id="edge13" class="edge"><title>Node11&#45;&gt;Node10</title>
<path fill="none" stroke="midnightblue" d="M1434.96,-29.6911C1435.61,-38.6353 1435.18,-48.9272 1433.67,-56.083"/>
<polygon fill="midnightblue" stroke="midnightblue" points="1438.42,-29.2002 1433.63,-19.7511 1431.48,-30.1262 1438.42,-29.2002"/>
</g>
<!-- Node13 -->
<g id="node13" class="node"><title>Node13</title>
<g id="a_node13"><a xlink:href="../../d4/d40/Butterworth_8hpp.html" target="_top" xlink:title=" ">
<polygon fill="white" stroke="black" points="1397.5,-112.5 1397.5,-131.5 1483.5,-131.5 1483.5,-112.5 1397.5,-112.5"/>
<text text-anchor="middle" x="1440.5" y="-119.5" font-family="Helvetica,sans-Serif" font-size="10.00">Butterworth.hpp</text>
</a>
</g>
</g>
<!-- Node12&#45;&gt;Node13 -->
<g id="edge15" class="edge"><title>Node12&#45;&gt;Node13</title>
<path fill="none" stroke="midnightblue" d="M1407.23,-160.431C1415.64,-150.967 1425.85,-139.483 1432.72,-131.751"/>
<polygon fill="midnightblue" stroke="midnightblue" points="1404.45,-158.284 1400.43,-168.083 1409.69,-162.934 1404.45,-158.284"/>
</g>
<!-- Node15 -->
<g id="node15" class="node"><title>Node15</title>
<g id="a_node15"><a xlink:href="../../de/dd1/LinkedList_8hpp.html" target="_top" xlink:title=" ">
<polygon fill="white" stroke="black" points="639.5,-392.5 639.5,-411.5 719.5,-411.5 719.5,-392.5 639.5,-392.5"/>
<text text-anchor="middle" x="679.5" y="-399.5" font-family="Helvetica,sans-Serif" font-size="10.00">LinkedList.hpp</text>
</a>
</g>
</g>
<!-- Node14&#45;&gt;Node15 -->
<g id="edge17" class="edge"><title>Node14&#45;&gt;Node15</title>
<path fill="none" stroke="midnightblue" d="M639.83,-441.253C649.765,-431.673 662.088,-419.791 670.339,-411.834"/>
<polygon fill="midnightblue" stroke="midnightblue" points="637.266,-438.863 632.497,-448.324 642.125,-443.902 637.266,-438.863"/>
</g>
<!-- Node34 -->
<g id="node34" class="node"><title>Node34</title>
<g id="a_node34"><a xlink:href="../../df/d66/Debug_8cpp.html" target="_top" xlink:title=" ">
<polygon fill="white" stroke="black" points="431.5,-392.5 431.5,-411.5 495.5,-411.5 495.5,-392.5 431.5,-392.5"/>
<text text-anchor="middle" x="463.5" y="-399.5" font-family="Helvetica,sans-Serif" font-size="10.00">Debug.cpp</text>
</a>
</g>
</g>
<!-- Node14&#45;&gt;Node34 -->
<g id="edge44" class="edge"><title>Node14&#45;&gt;Node34</title>
<path fill="none" stroke="midnightblue" d="M588.454,-445.172C558.326,-435.004 515.604,-420.585 488.734,-411.516"/>
<polygon fill="midnightblue" stroke="midnightblue" points="587.553,-448.562 598.148,-448.444 589.792,-441.929 587.553,-448.562"/>
</g>
<!-- Node35 -->
<g id="node35" class="node"><title>Node35</title>
<g id="a_node35"><a xlink:href="../../d1/d93/Error_8hpp.html" target="_top" xlink:title=" ">
<polygon fill="white" stroke="black" points="785.5,-392.5 785.5,-411.5 841.5,-411.5 841.5,-392.5 785.5,-392.5"/>
<text text-anchor="middle" x="813.5" y="-399.5" font-family="Helvetica,sans-Serif" font-size="10.00">Error.hpp</text>
</a>
</g>
</g>
<!-- Node14&#45;&gt;Node35 -->
<g id="edge45" class="edge"><title>Node14&#45;&gt;Node35</title>
<path fill="none" stroke="midnightblue" d="M663.443,-445.648C699.989,-435.261 753.136,-420.156 785.393,-410.988"/>
<polygon fill="midnightblue" stroke="midnightblue" points="662.268,-442.343 653.606,-448.444 664.182,-449.076 662.268,-442.343"/>
</g>
<!-- Node45 -->
<g id="node45" class="node"><title>Node45</title>
<g id="a_node45"><a xlink:href="../../d2/dd5/SettingsWrapper_8hpp.html" target="_top" xlink:title=" ">
<polygon fill="white" stroke="black" points="513.5,-392.5 513.5,-411.5 621.5,-411.5 621.5,-392.5 513.5,-392.5"/>
<text text-anchor="middle" x="567.5" y="-399.5" font-family="Helvetica,sans-Serif" font-size="10.00">SettingsWrapper.hpp</text>
</a>
</g>
</g>
<!-- Node14&#45;&gt;Node45 -->
<g id="edge69" class="edge"><title>Node14&#45;&gt;Node45</title>
<path fill="none" stroke="midnightblue" d="M601.619,-441.82C590.519,-432.145 578.2,-419.948 571.512,-411.834"/>
<polygon fill="midnightblue" stroke="midnightblue" points="599.473,-444.588 609.388,-448.324 603.967,-439.221 599.473,-444.588"/>
</g>
<!-- Node16 -->
<g id="node16" class="node"><title>Node16</title>
<g id="a_node16"><a xlink:href="../../d4/d93/Updatable_8hpp.html" target="_top" xlink:title=" ">
<polygon fill="white" stroke="black" points="636.5,-336.5 636.5,-355.5 716.5,-355.5 716.5,-336.5 636.5,-336.5"/>
<text text-anchor="middle" x="676.5" y="-343.5" font-family="Helvetica,sans-Serif" font-size="10.00">Updatable.hpp</text>
</a>
</g>
</g>
<!-- Node15&#45;&gt;Node16 -->
<g id="edge18" class="edge"><title>Node15&#45;&gt;Node16</title>
<path fill="none" stroke="midnightblue" d="M678.434,-381.805C677.939,-372.91 677.377,-362.78 676.986,-355.751"/>
<polygon fill="midnightblue" stroke="midnightblue" points="674.955,-382.293 679.005,-392.083 681.944,-381.904 674.955,-382.293"/>
</g>
<!-- Node17 -->
<g id="node17" class="node"><title>Node17</title>
<g id="a_node17"><a xlink:href="../../d4/d57/ExtendedIOElement_8hpp.html" target="_top" xlink:title=" ">
<polygon fill="white" stroke="black" points="635,-224.5 635,-243.5 758,-243.5 758,-224.5 635,-224.5"/>
<text text-anchor="middle" x="696.5" y="-231.5" font-family="Helvetica,sans-Serif" font-size="10.00">ExtendedIOElement.hpp</text>
</a>
</g>
</g>
<!-- Node15&#45;&gt;Node17 -->
<g id="edge19" class="edge"><title>Node15&#45;&gt;Node17</title>
<path fill="none" stroke="midnightblue" d="M655.131,-386.726C644.552,-379.089 633.277,-368.64 627.5,-356 623.805,-347.916 624.876,-344.493 627.5,-336 639.474,-297.247 671.99,-260.098 687.73,-243.732"/>
<polygon fill="midnightblue" stroke="midnightblue" points="653.458,-389.818 663.717,-392.467 657.349,-383.999 653.458,-389.818"/>
</g>
<!-- Node17&#45;&gt;Node3 -->
<g id="edge41" class="edge"><title>Node17&#45;&gt;Node3</title>
<path fill="none" stroke="midnightblue" d="M768.254,-226.019C870.62,-216.059 1058.21,-197.807 1167.11,-187.211"/>
<polygon fill="midnightblue" stroke="midnightblue" points="767.629,-222.563 758.015,-227.015 768.307,-229.53 767.629,-222.563"/>
</g>
<!-- Node18 -->
<g id="node18" class="node"><title>Node18</title>
<g id="a_node18"><a xlink:href="../../dd/ddf/ExtendedInputOutput_8hpp.html" target="_top" xlink:title=" ">
<polygon fill="white" stroke="black" points="540.5,-168.5 540.5,-187.5 668.5,-187.5 668.5,-168.5 540.5,-168.5"/>
<text text-anchor="middle" x="604.5" y="-175.5" font-family="Helvetica,sans-Serif" font-size="10.00">ExtendedInputOutput.hpp</text>
</a>
</g>
</g>
<!-- Node17&#45;&gt;Node18 -->
<g id="edge20" class="edge"><title>Node17&#45;&gt;Node18</title>
<path fill="none" stroke="midnightblue" d="M672.95,-219.177C656.021,-209.241 633.717,-196.149 619.245,-187.655"/>
<polygon fill="midnightblue" stroke="midnightblue" points="671.323,-222.28 681.719,-224.324 674.866,-216.243 671.323,-222.28"/>
</g>
<!-- Node27 -->
<g id="node27" class="node"><title>Node27</title>
<g id="a_node27"><a xlink:href="../../d6/d3c/ExtendedInputOutput_8cpp.html" target="_top" xlink:title=" ">
<polygon fill="white" stroke="black" points="365.5,-112.5 365.5,-131.5 493.5,-131.5 493.5,-112.5 365.5,-112.5"/>
<text text-anchor="middle" x="429.5" y="-119.5" font-family="Helvetica,sans-Serif" font-size="10.00">ExtendedInputOutput.cpp</text>
</a>
</g>
</g>
<!-- Node17&#45;&gt;Node27 -->
<g id="edge42" class="edge"><title>Node17&#45;&gt;Node27</title>
<path fill="none" stroke="midnightblue" d="M641.276,-222.315C608.53,-214.916 566.685,-203.578 531.5,-188 495.979,-172.273 458.529,-145.331 440.489,-131.597"/>
<polygon fill="midnightblue" stroke="midnightblue" points="640.61,-225.752 651.129,-224.485 642.116,-218.916 640.61,-225.752"/>
</g>
<!-- Node33 -->
<g id="node33" class="node"><title>Node33</title>
<g id="a_node33"><a xlink:href="../../da/d1f/ExtendedIOElement_8cpp.html" target="_top" xlink:title=" ">
<polygon fill="white" stroke="black" points="725,-168.5 725,-187.5 848,-187.5 848,-168.5 725,-168.5"/>
<text text-anchor="middle" x="786.5" y="-175.5" font-family="Helvetica,sans-Serif" font-size="10.00">ExtendedIOElement.cpp</text>
</a>
</g>
</g>
<!-- Node17&#45;&gt;Node33 -->
<g id="edge43" class="edge"><title>Node17&#45;&gt;Node33</title>
<path fill="none" stroke="midnightblue" d="M719.538,-219.177C736.099,-209.241 757.918,-196.149 772.076,-187.655"/>
<polygon fill="midnightblue" stroke="midnightblue" points="717.734,-216.178 710.96,-224.324 721.336,-222.18 717.734,-216.178"/>
</g>
<!-- Node18&#45;&gt;Node4 -->
<g id="edge30" class="edge"><title>Node18&#45;&gt;Node4</title>
<path fill="none" stroke="midnightblue" d="M678.52,-170.446C791.842,-160.331 1003.12,-141.132 1078.5,-132 1081.37,-131.652 1084.31,-131.278 1087.28,-130.886"/>
<polygon fill="midnightblue" stroke="midnightblue" points="678.184,-166.962 668.534,-171.336 678.805,-173.934 678.184,-166.962"/>
</g>
<!-- Node18&#45;&gt;Node8 -->
<g id="edge33" class="edge"><title>Node18&#45;&gt;Node8</title>
<path fill="none" stroke="midnightblue" d="M600.202,-158.392C595.226,-131.545 590.9,-82.2901 618.5,-56 663.2,-13.4219 1089.77,-10.4285 1240.81,-10.7184"/>
<polygon fill="midnightblue" stroke="midnightblue" points="596.82,-159.317 602.284,-168.394 603.673,-157.891 596.82,-159.317"/>
</g>
<!-- Node18&#45;&gt;Node9 -->
<g id="edge32" class="edge"><title>Node18&#45;&gt;Node9</title>
<path fill="none" stroke="midnightblue" d="M658.881,-166.144C688.968,-158.891 726.442,-147.755 757.5,-132 787.984,-116.536 818.558,-89.7225 833.345,-75.863"/>
<polygon fill="midnightblue" stroke="midnightblue" points="657.922,-162.774 648.98,-168.456 659.514,-169.591 657.922,-162.774"/>
</g>
<!-- Node18&#45;&gt;Node11 -->
<g id="edge34" class="edge"><title>Node18&#45;&gt;Node11</title>
<path fill="none" stroke="midnightblue" d="M657.076,-165.644C679.678,-158.773 705.262,-148.121 724.5,-132 754.587,-106.787 736.009,-76.4771 769.5,-56 825.155,-21.971 1290.54,-25.9939 1355.5,-20 1359.31,-19.648 1363.24,-19.2549 1367.19,-18.8352"/>
<polygon fill="midnightblue" stroke="midnightblue" points="655.918,-162.335 647.268,-168.452 657.845,-169.065 655.918,-162.335"/>
</g>
<!-- Node19 -->
<g id="node19" class="node"><title>Node19</title>
<g id="a_node19"><a xlink:href="../../d4/db3/Button_8hpp.html" target="_top" xlink:title=" ">
<polygon fill="white" stroke="black" points="179.5,-112.5 179.5,-131.5 243.5,-131.5 243.5,-112.5 179.5,-112.5"/>
<text text-anchor="middle" x="211.5" y="-119.5" font-family="Helvetica,sans-Serif" font-size="10.00">Button.hpp</text>
</a>
</g>
</g>
<!-- Node18&#45;&gt;Node19 -->
<g id="edge21" class="edge"><title>Node18&#45;&gt;Node19</title>
<path fill="none" stroke="midnightblue" d="M532.264,-167.074C446.172,-155.245 306.112,-136 243.505,-127.398"/>
<polygon fill="midnightblue" stroke="midnightblue" points="531.845,-170.55 542.228,-168.444 532.798,-163.615 531.845,-170.55"/>
</g>
<!-- Node25 -->
<g id="node25" class="node"><title>Node25</title>
<g id="a_node25"><a xlink:href="../../d5/d41/ButtonMatrix_8ipp.html" target="_top" xlink:title=" ">
<polygon fill="white" stroke="black" points="627.5,-112.5 627.5,-131.5 715.5,-131.5 715.5,-112.5 627.5,-112.5"/>
<text text-anchor="middle" x="671.5" y="-119.5" font-family="Helvetica,sans-Serif" font-size="10.00">ButtonMatrix.ipp</text>
</a>
</g>
</g>
<!-- Node18&#45;&gt;Node25 -->
<g id="edge27" class="edge"><title>Node18&#45;&gt;Node25</title>
<path fill="none" stroke="midnightblue" d="M623.335,-161.82C635.338,-152.145 650.472,-139.948 660.539,-131.834"/>
<polygon fill="midnightblue" stroke="midnightblue" points="620.854,-159.324 615.265,-168.324 625.247,-164.774 620.854,-159.324"/>
</g>
<!-- Node18&#45;&gt;Node27 -->
<g id="edge31" class="edge"><title>Node18&#45;&gt;Node27</title>
<path fill="none" stroke="midnightblue" d="M567.025,-165.436C534.03,-155.255 486.744,-140.664 457.1,-131.516"/>
<polygon fill="midnightblue" stroke="midnightblue" points="566.183,-168.839 576.771,-168.444 568.247,-162.151 566.183,-168.839"/>
</g>
<!-- Node28 -->
<g id="node28" class="node"><title>Node28</title>
<g id="a_node28"><a xlink:href="../../d8/df3/FilteredAnalog_8hpp.html" target="_top" xlink:title=" ">
<polygon fill="white" stroke="black" points="809.5,-112.5 809.5,-131.5 907.5,-131.5 907.5,-112.5 809.5,-112.5"/>
<text text-anchor="middle" x="858.5" y="-119.5" font-family="Helvetica,sans-Serif" font-size="10.00">FilteredAnalog.hpp</text>
</a>
</g>
</g>
<!-- Node18&#45;&gt;Node28 -->
<g id="edge35" class="edge"><title>Node18&#45;&gt;Node28</title>
<path fill="none" stroke="midnightblue" d="M654.615,-166.346C702.617,-156.141 774.115,-140.94 818.441,-131.516"/>
<polygon fill="midnightblue" stroke="midnightblue" points="653.801,-162.94 644.747,-168.444 655.256,-169.787 653.801,-162.94"/>
</g>
<!-- Node29 -->
<g id="node29" class="node"><title>Node29</title>
<g id="a_node29"><a xlink:href="../../d9/d4f/LEDs_8hpp.html" target="_top" xlink:title=" ">
<polygon fill="white" stroke="black" points="511.5,-112.5 511.5,-131.5 571.5,-131.5 571.5,-112.5 511.5,-112.5"/>
<text text-anchor="middle" x="541.5" y="-119.5" font-family="Helvetica,sans-Serif" font-size="10.00">LEDs.hpp</text>
</a>
</g>
</g>
<!-- Node18&#45;&gt;Node29 -->
<g id="edge36" class="edge"><title>Node18&#45;&gt;Node29</title>
<path fill="none" stroke="midnightblue" d="M586.46,-161.537C575.227,-151.909 561.181,-139.869 551.806,-131.834"/>
<polygon fill="midnightblue" stroke="midnightblue" points="584.508,-164.473 594.378,-168.324 589.063,-159.159 584.508,-164.473"/>
</g>
<!-- Node31 -->
<g id="node31" class="node"><title>Node31</title>
<g id="a_node31"><a xlink:href="../../d7/d13/MAX7219__Base_8hpp.html" target="_top" xlink:title=" ">
<polygon fill="white" stroke="black" points="963.5,-112.5 963.5,-131.5 1069.5,-131.5 1069.5,-112.5 963.5,-112.5"/>
<text text-anchor="middle" x="1016.5" y="-119.5" font-family="Helvetica,sans-Serif" font-size="10.00">MAX7219_Base.hpp</text>
</a>
</g>
</g>
<!-- Node18&#45;&gt;Node31 -->
<g id="edge38" class="edge"><title>Node18&#45;&gt;Node31</title>
<path fill="none" stroke="midnightblue" d="M678.886,-167.25C760.956,-156.494 890.975,-139.452 963.377,-129.963"/>
<polygon fill="midnightblue" stroke="midnightblue" points="678.335,-163.793 668.875,-168.562 679.245,-170.733 678.335,-163.793"/>
</g>
<!-- Node20 -->
<g id="node20" class="node"><title>Node20</title>
<g id="a_node20"><a xlink:href="../../de/dd1/Button_8cpp.html" target="_top" xlink:title=" ">
<polygon fill="white" stroke="black" points="179.5,-56.5 179.5,-75.5 243.5,-75.5 243.5,-56.5 179.5,-56.5"/>
<text text-anchor="middle" x="211.5" y="-63.5" font-family="Helvetica,sans-Serif" font-size="10.00">Button.cpp</text>
</a>
</g>
</g>
<!-- Node19&#45;&gt;Node20 -->
<g id="edge22" class="edge"><title>Node19&#45;&gt;Node20</title>
<path fill="none" stroke="midnightblue" d="M211.5,-101.805C211.5,-92.9102 211.5,-82.7798 211.5,-75.7511"/>
<polygon fill="midnightblue" stroke="midnightblue" points="208,-102.083 211.5,-112.083 215,-102.083 208,-102.083"/>
</g>
<!-- Node21 -->
<g id="node21" class="node"><title>Node21</title>
<g id="a_node21"><a xlink:href="../../d5/d04/IncrementButton_8hpp.html" target="_top" xlink:title=" ">
<polygon fill="white" stroke="black" points="262,-56.5 262,-75.5 369,-75.5 369,-56.5 262,-56.5"/>
<text text-anchor="middle" x="315.5" y="-63.5" font-family="Helvetica,sans-Serif" font-size="10.00">IncrementButton.hpp</text>
</a>
</g>
</g>
<!-- Node19&#45;&gt;Node21 -->
<g id="edge23" class="edge"><title>Node19&#45;&gt;Node21</title>
<path fill="none" stroke="midnightblue" d="M237.328,-107.59C256.557,-97.6052 282.245,-84.2672 298.832,-75.6545"/>
<polygon fill="midnightblue" stroke="midnightblue" points="235.471,-104.61 228.209,-112.324 238.697,-110.822 235.471,-104.61"/>
</g>
<!-- Node23 -->
<g id="node23" class="node"><title>Node23</title>
<g id="a_node23"><a xlink:href="../../df/df5/IncrementDecrementButtons_8hpp.html" target="_top" xlink:title=" ">
<polygon fill="white" stroke="black" points="0,-56.5 0,-75.5 161,-75.5 161,-56.5 0,-56.5"/>
<text text-anchor="middle" x="80.5" y="-63.5" font-family="Helvetica,sans-Serif" font-size="10.00">IncrementDecrementButtons.hpp</text>
</a>
</g>
</g>
<!-- Node19&#45;&gt;Node23 -->
<g id="edge25" class="edge"><title>Node19&#45;&gt;Node23</title>
<path fill="none" stroke="midnightblue" d="M181.183,-108.503C156.624,-98.3795 122.682,-84.388 101.16,-75.5164"/>
<polygon fill="midnightblue" stroke="midnightblue" points="180.163,-111.868 190.743,-112.444 182.831,-105.397 180.163,-111.868"/>
</g>
<!-- Node22 -->
<g id="node22" class="node"><title>Node22</title>
<g id="a_node22"><a xlink:href="../../db/d9d/IncrementButton_8cpp.html" target="_top" xlink:title=" ">
<polygon fill="white" stroke="black" points="262,-0.5 262,-19.5 369,-19.5 369,-0.5 262,-0.5"/>
<text text-anchor="middle" x="315.5" y="-7.5" font-family="Helvetica,sans-Serif" font-size="10.00">IncrementButton.cpp</text>
</a>
</g>
</g>
<!-- Node21&#45;&gt;Node22 -->
<g id="edge24" class="edge"><title>Node21&#45;&gt;Node22</title>
<path fill="none" stroke="midnightblue" d="M315.5,-45.8045C315.5,-36.9102 315.5,-26.7798 315.5,-19.7511"/>
<polygon fill="midnightblue" stroke="midnightblue" points="312,-46.083 315.5,-56.083 319,-46.083 312,-46.083"/>
</g>
<!-- Node24 -->
<g id="node24" class="node"><title>Node24</title>
<g id="a_node24"><a xlink:href="../../da/d66/IncrementDecrementButtons_8cpp.html" target="_top" xlink:title=" ">
<polygon fill="white" stroke="black" points="0,-0.5 0,-19.5 161,-19.5 161,-0.5 0,-0.5"/>
<text text-anchor="middle" x="80.5" y="-7.5" font-family="Helvetica,sans-Serif" font-size="10.00">IncrementDecrementButtons.cpp</text>
</a>
</g>
</g>
<!-- Node23&#45;&gt;Node24 -->
<g id="edge26" class="edge"><title>Node23&#45;&gt;Node24</title>
<path fill="none" stroke="midnightblue" d="M80.5,-45.8045C80.5,-36.9102 80.5,-26.7798 80.5,-19.7511"/>
<polygon fill="midnightblue" stroke="midnightblue" points="77.0001,-46.083 80.5,-56.083 84.0001,-46.083 77.0001,-46.083"/>
</g>
<!-- Node26 -->
<g id="node26" class="node"><title>Node26</title>
<g id="a_node26"><a xlink:href="../../d9/d4b/ButtonMatrix_8hpp.html" target="_top" xlink:title=" ">
<polygon fill="white" stroke="black" points="628,-56.5 628,-75.5 719,-75.5 719,-56.5 628,-56.5"/>
<text text-anchor="middle" x="673.5" y="-63.5" font-family="Helvetica,sans-Serif" font-size="10.00">ButtonMatrix.hpp</text>
</a>
</g>
</g>
<!-- Node25&#45;&gt;Node26 -->
<g id="edge28" class="edge"><title>Node25&#45;&gt;Node26</title>
<path fill="none" stroke="midnightblue" d="M665.728,-102.101C665.428,-93.1357 666.255,-82.8579 668.045,-75.7511"/>
<polygon fill="midnightblue" stroke="midnightblue" points="662.245,-102.454 666.664,-112.083 669.215,-101.8 662.245,-102.454"/>
</g>
<!-- Node26&#45;&gt;Node25 -->
<g id="edge29" class="edge"><title>Node26&#45;&gt;Node25</title>
<path fill="none" stroke="midnightblue" d="M679.275,-85.9865C679.565,-94.8611 678.752,-105.006 676.997,-112.083"/>
<polygon fill="midnightblue" stroke="midnightblue" points="682.733,-85.3769 678.307,-75.7511 675.764,-86.0363 682.733,-85.3769"/>
</g>
<!-- Node30 -->
<g id="node30" class="node"><title>Node30</title>
<g id="a_node30"><a xlink:href="../../d6/d3a/DotBarDisplayLEDs_8hpp.html" target="_top" xlink:title=" ">
<polygon fill="white" stroke="black" points="447.5,-56.5 447.5,-75.5 571.5,-75.5 571.5,-56.5 447.5,-56.5"/>
<text text-anchor="middle" x="509.5" y="-63.5" font-family="Helvetica,sans-Serif" font-size="10.00">DotBarDisplayLEDs.hpp</text>
</a>
</g>
</g>
<!-- Node29&#45;&gt;Node30 -->
<g id="edge37" class="edge"><title>Node29&#45;&gt;Node30</title>
<path fill="none" stroke="midnightblue" d="M530.996,-103.275C525.527,-94.0454 519.082,-83.1703 514.686,-75.7511"/>
<polygon fill="midnightblue" stroke="midnightblue" points="528.107,-105.264 536.216,-112.083 534.129,-101.696 528.107,-105.264"/>
</g>
<!-- Node31&#45;&gt;Node5 -->
<g id="edge39" class="edge"><title>Node31&#45;&gt;Node5</title>
<path fill="none" stroke="midnightblue" d="M1052.45,-109.304C1083.73,-99.1294 1128.32,-84.6246 1156.32,-75.5164"/>
<polygon fill="midnightblue" stroke="midnightblue" points="1051.23,-106.022 1042.8,-112.444 1053.4,-112.678 1051.23,-106.022"/>
</g>
<!-- Node32 -->
<g id="node32" class="node"><title>Node32</title>
<g id="a_node32"><a xlink:href="../../d5/d0c/MAX7219SevenSegmentDisplay_8hpp.html" target="_top" xlink:title=" ">
<polygon fill="white" stroke="black" points="927.5,-56.5 927.5,-75.5 1105.5,-75.5 1105.5,-56.5 927.5,-56.5"/>
<text text-anchor="middle" x="1016.5" y="-63.5" font-family="Helvetica,sans-Serif" font-size="10.00">MAX7219SevenSegmentDisplay.hpp</text>
</a>
</g>
</g>
<!-- Node31&#45;&gt;Node32 -->
<g id="edge40" class="edge"><title>Node31&#45;&gt;Node32</title>
<path fill="none" stroke="midnightblue" d="M1016.5,-101.805C1016.5,-92.9102 1016.5,-82.7798 1016.5,-75.7511"/>
<polygon fill="midnightblue" stroke="midnightblue" points="1013,-102.083 1016.5,-112.083 1020,-102.083 1013,-102.083"/>
</g>
<!-- Node35&#45;&gt;Node16 -->
<g id="edge64" class="edge"><title>Node35&#45;&gt;Node16</title>
<path fill="none" stroke="midnightblue" d="M782.477,-388.772C756.743,-378.629 720.814,-364.467 698.106,-355.516"/>
<polygon fill="midnightblue" stroke="midnightblue" points="781.205,-392.033 791.792,-392.444 783.772,-385.52 781.205,-392.033"/>
</g>
<!-- Node35&#45;&gt;Node27 -->
<g id="edge66" class="edge"><title>Node35&#45;&gt;Node27</title>
<path fill="none" stroke="midnightblue" d="M793.963,-385.955C776.318,-372.515 749.511,-352.464 725.5,-336 624.32,-266.624 587.626,-265.47 492.5,-188 470.322,-169.938 447.836,-144.705 436.69,-131.626"/>
<polygon fill="midnightblue" stroke="midnightblue" points="792.224,-389.031 802.293,-392.327 796.477,-383.471 792.224,-389.031"/>
</g>
<!-- Node35&#45;&gt;Node33 -->
<g id="edge67" class="edge"><title>Node35&#45;&gt;Node33</title>
<path fill="none" stroke="midnightblue" d="M810.444,-382.498C809.148,-374.379 807.671,-364.728 806.5,-356 797.861,-291.635 789.937,-213.763 787.368,-187.856"/>
<polygon fill="midnightblue" stroke="midnightblue" points="806.992,-383.08 812.051,-392.389 813.901,-381.957 806.992,-383.08"/>
</g>
<!-- Node36 -->
<g id="node36" class="node"><title>Node36</title>
<g id="a_node36"><a xlink:href="../../de/d76/Array_8hpp.html" target="_top" xlink:title=" ">
<polygon fill="white" stroke="black" points="1041,-336.5 1041,-355.5 1100,-355.5 1100,-336.5 1041,-336.5"/>
<text text-anchor="middle" x="1070.5" y="-343.5" font-family="Helvetica,sans-Serif" font-size="10.00">Array.hpp</text>
</a>
</g>
</g>
<!-- Node35&#45;&gt;Node36 -->
<g id="edge46" class="edge"><title>Node35&#45;&gt;Node36</title>
<path fill="none" stroke="midnightblue" d="M852.068,-392.896C903.652,-382.058 994.014,-363.071 1040.7,-353.262"/>
<polygon fill="midnightblue" stroke="midnightblue" points="851.052,-389.533 841.985,-395.015 852.491,-396.384 851.052,-389.533"/>
</g>
<!-- Node42 -->
<g id="node42" class="node"><title>Node42</title>
<g id="a_node42"><a xlink:href="../../d1/d40/BitArray_8hpp.html" target="_top" xlink:title=" ">
<polygon fill="white" stroke="black" points="1463,-168.5 1463,-187.5 1534,-187.5 1534,-168.5 1463,-168.5"/>
<text text-anchor="middle" x="1498.5" y="-175.5" font-family="Helvetica,sans-Serif" font-size="10.00">BitArray.hpp</text>
</a>
</g>
</g>
<!-- Node35&#45;&gt;Node42 -->
<g id="edge60" class="edge"><title>Node35&#45;&gt;Node42</title>
<path fill="none" stroke="midnightblue" d="M851.587,-397.618C908.407,-392.033 1018.44,-379.134 1109.5,-356 1180.49,-337.965 1197.38,-329.329 1264.5,-300 1349.57,-262.825 1446.87,-208.523 1483.5,-187.631"/>
<polygon fill="midnightblue" stroke="midnightblue" points="851.233,-394.136 841.614,-398.576 851.903,-401.104 851.233,-394.136"/>
</g>
<!-- Node43 -->
<g id="node43" class="node"><title>Node43</title>
<g id="a_node43"><a xlink:href="../../d6/df4/Exit_8cpp.html" target="_top" xlink:title=" ">
<polygon fill="white" stroke="black" points="815,-336.5 815,-355.5 868,-355.5 868,-336.5 815,-336.5"/>
<text text-anchor="middle" x="841.5" y="-343.5" font-family="Helvetica,sans-Serif" font-size="10.00">Exit.cpp</text>
</a>
</g>
</g>
<!-- Node35&#45;&gt;Node43 -->
<g id="edge65" class="edge"><title>Node35&#45;&gt;Node43</title>
<path fill="none" stroke="midnightblue" d="M822.842,-382.983C827.595,-373.817 833.156,-363.092 836.962,-355.751"/>
<polygon fill="midnightblue" stroke="midnightblue" points="819.62,-381.594 818.124,-392.083 825.834,-384.817 819.62,-381.594"/>
</g>
<!-- Node35&#45;&gt;Node44 -->
<g id="edge68" class="edge"><title>Node35&#45;&gt;Node44</title>
<path fill="none" stroke="midnightblue" d="M851.626,-398.525C935.509,-392.871 1142.31,-377.793 1314.5,-356 1319.01,-355.429 1323.72,-354.764 1328.4,-354.06"/>
<polygon fill="midnightblue" stroke="midnightblue" points="851.295,-395.039 841.55,-399.198 851.762,-402.023 851.295,-395.039"/>
</g>
<!-- Node36&#45;&gt;Node2 -->
<g id="edge47" class="edge"><title>Node36&#45;&gt;Node2</title>
<path fill="none" stroke="midnightblue" d="M1110.07,-340.664C1145.73,-335.358 1198.53,-323.926 1238.5,-300 1263.2,-285.215 1284.21,-257.601 1293.85,-243.606"/>
<polygon fill="midnightblue" stroke="midnightblue" points="1109.46,-337.215 1100.04,-342.063 1110.43,-344.148 1109.46,-337.215"/>
</g>
<!-- Node36&#45;&gt;Node4 -->
<g id="edge48" class="edge"><title>Node36&#45;&gt;Node4</title>
<path fill="none" stroke="midnightblue" d="M1110.26,-341.426C1137.5,-336.669 1171.8,-325.62 1189.5,-300 1205.67,-276.596 1170.45,-269.819 1158.5,-244 1140.46,-205.016 1139.06,-152.217 1139.27,-131.677"/>
<polygon fill="midnightblue" stroke="midnightblue" points="1109.57,-337.991 1100.21,-342.958 1110.62,-344.911 1109.57,-337.991"/>
</g>
<!-- Node37 -->
<g id="node37" class="node"><title>Node37</title>
<g id="a_node37"><a xlink:href="../../d4/d35/Hardware-Types_8hpp.html" target="_top" xlink:title=" ">
<polygon fill="white" stroke="black" points="815,-280.5 815,-299.5 922,-299.5 922,-280.5 815,-280.5"/>
<text text-anchor="middle" x="868.5" y="-287.5" font-family="Helvetica,sans-Serif" font-size="10.00">Hardware&#45;Types.hpp</text>
</a>
</g>
</g>
<!-- Node36&#45;&gt;Node37 -->
<g id="edge49" class="edge"><title>Node36&#45;&gt;Node37</title>
<path fill="none" stroke="midnightblue" d="M1030.95,-334.427C992.798,-324.228 935.781,-308.986 900.431,-299.536"/>
<polygon fill="midnightblue" stroke="midnightblue" points="1030.13,-337.831 1040.69,-337.032 1031.94,-331.068 1030.13,-337.831"/>
</g>
<!-- Node38 -->
<g id="node38" class="node"><title>Node38</title>
<g id="a_node38"><a xlink:href="../../d1/dde/BiQuad_8hpp.html" target="_top" xlink:title=" ">
<polygon fill="white" stroke="black" points="1167.5,-224.5 1167.5,-243.5 1235.5,-243.5 1235.5,-224.5 1167.5,-224.5"/>
<text text-anchor="middle" x="1201.5" y="-231.5" font-family="Helvetica,sans-Serif" font-size="10.00">BiQuad.hpp</text>
</a>
</g>
</g>
<!-- Node36&#45;&gt;Node38 -->
<g id="edge53" class="edge"><title>Node36&#45;&gt;Node38</title>
<path fill="none" stroke="midnightblue" d="M1110.14,-345.515C1145.93,-343.595 1196.79,-334.418 1222.5,-300 1235.42,-282.707 1219.35,-257.149 1208.99,-243.819"/>
<polygon fill="midnightblue" stroke="midnightblue" points="1109.88,-342.022 1100.02,-345.888 1110.14,-349.017 1109.88,-342.022"/>
</g>
<!-- Node39 -->
<g id="node39" class="node"><title>Node39</title>
<g id="a_node39"><a xlink:href="../../d2/d3b/FIRFilter_8hpp.html" target="_top" xlink:title=" ">
<polygon fill="white" stroke="black" points="978.5,-280.5 978.5,-299.5 1052.5,-299.5 1052.5,-280.5 978.5,-280.5"/>
<text text-anchor="middle" x="1015.5" y="-287.5" font-family="Helvetica,sans-Serif" font-size="10.00">FIRFilter.hpp</text>
</a>
</g>
</g>
<!-- Node36&#45;&gt;Node39 -->
<g id="edge55" class="edge"><title>Node36&#45;&gt;Node39</title>
<path fill="none" stroke="midnightblue" d="M1054.21,-329.002C1044.46,-319.433 1032.45,-307.639 1024.41,-299.751"/>
<polygon fill="midnightblue" stroke="midnightblue" points="1051.83,-331.575 1061.42,-336.083 1056.73,-326.58 1051.83,-331.575"/>
</g>
<!-- Node40 -->
<g id="node40" class="node"><title>Node40</title>
<g id="a_node40"><a xlink:href="../../dc/d64/IIRFilter_8hpp.html" target="_top" xlink:title=" ">
<polygon fill="white" stroke="black" points="1002,-224.5 1002,-243.5 1073,-243.5 1073,-224.5 1002,-224.5"/>
<text text-anchor="middle" x="1037.5" y="-231.5" font-family="Helvetica,sans-Serif" font-size="10.00">IIRFilter.hpp</text>
</a>
</g>
</g>
<!-- Node36&#45;&gt;Node40 -->
<g id="edge56" class="edge"><title>Node36&#45;&gt;Node40</title>
<path fill="none" stroke="midnightblue" d="M1031.1,-338.25C1008.95,-332.222 983.097,-320.944 969.5,-300 954.115,-276.303 990.578,-254.95 1015.84,-243.594"/>
<polygon fill="midnightblue" stroke="midnightblue" points="1030.41,-341.684 1040.96,-340.666 1032.08,-334.886 1030.41,-341.684"/>
</g>
<!-- Node41 -->
<g id="node41" class="node"><title>Node41</title>
<g id="a_node41"><a xlink:href="../../d2/d03/TransferFunction_8hpp.html" target="_top" xlink:title=" ">
<polygon fill="white" stroke="black" points="1071,-280.5 1071,-299.5 1180,-299.5 1180,-280.5 1071,-280.5"/>
<text text-anchor="middle" x="1125.5" y="-287.5" font-family="Helvetica,sans-Serif" font-size="10.00">TransferFunction.hpp</text>
</a>
</g>
</g>
<!-- Node36&#45;&gt;Node41 -->
<g id="edge57" class="edge"><title>Node36&#45;&gt;Node41</title>
<path fill="none" stroke="midnightblue" d="M1086.79,-329.002C1096.54,-319.433 1108.55,-307.639 1116.59,-299.751"/>
<polygon fill="midnightblue" stroke="midnightblue" points="1084.27,-326.58 1079.58,-336.083 1089.17,-331.575 1084.27,-326.58"/>
</g>
<!-- Node37&#45;&gt;Node17 -->
<g id="edge51" class="edge"><title>Node37&#45;&gt;Node17</title>
<path fill="none" stroke="midnightblue" d="M831.668,-277.436C799.238,-267.255 752.763,-252.664 723.626,-243.516"/>
<polygon fill="midnightblue" stroke="midnightblue" points="830.657,-280.787 841.246,-280.444 832.754,-274.109 830.657,-280.787"/>
</g>
<!-- Node37&#45;&gt;Node26 -->
<g id="edge50" class="edge"><title>Node37&#45;&gt;Node26</title>
<path fill="none" stroke="midnightblue" d="M881.934,-272.048C907.307,-237.866 956.311,-159.861 916.5,-112 903.999,-96.9712 786.14,-80.5339 719.27,-72.3104"/>
<polygon fill="midnightblue" stroke="midnightblue" points="879.066,-270.037 875.779,-280.109 884.629,-274.286 879.066,-270.037"/>
</g>
<!-- Node37&#45;&gt;Node28 -->
<g id="edge52" class="edge"><title>Node37&#45;&gt;Node28</title>
<path fill="none" stroke="midnightblue" d="M867.351,-269.93C865.182,-233.92 860.562,-157.231 859.016,-131.568"/>
<polygon fill="midnightblue" stroke="midnightblue" points="863.867,-270.304 867.962,-280.075 870.855,-269.883 863.867,-270.304"/>
</g>
<!-- Node38&#45;&gt;Node12 -->
<g id="edge54" class="edge"><title>Node38&#45;&gt;Node12</title>
<path fill="none" stroke="midnightblue" d="M1241.47,-221.699C1277.52,-211.507 1329.74,-196.743 1362.38,-187.516"/>
<polygon fill="midnightblue" stroke="midnightblue" points="1240.44,-218.355 1231.76,-224.444 1242.34,-225.091 1240.44,-218.355"/>
</g>
<!-- Node41&#45;&gt;Node38 -->
<g id="edge58" class="edge"><title>Node41&#45;&gt;Node38</title>
<path fill="none" stroke="midnightblue" d="M1146.08,-274.38C1159.81,-264.62 1177.43,-252.106 1189.07,-243.834"/>
<polygon fill="midnightblue" stroke="midnightblue" points="1143.84,-271.679 1137.71,-280.324 1147.89,-277.385 1143.84,-271.679"/>
</g>
<!-- Node41&#45;&gt;Node40 -->
<g id="edge59" class="edge"><title>Node41&#45;&gt;Node40</title>
<path fill="none" stroke="midnightblue" d="M1102.52,-274.901C1086.39,-264.999 1065.32,-252.071 1051.6,-243.655"/>
<polygon fill="midnightblue" stroke="midnightblue" points="1101.01,-278.077 1111.36,-280.324 1104.67,-272.111 1101.01,-278.077"/>
</g>
<!-- Node42&#45;&gt;Node5 -->
<g id="edge61" class="edge"><title>Node42&#45;&gt;Node5</title>
<path fill="none" stroke="midnightblue" d="M1502.38,-158.592C1504.29,-144.01 1504.11,-124.139 1492.5,-112 1451.88,-69.5295 1288.51,-85.4181 1230.5,-76 1227.57,-75.5244 1224.55,-75.0107 1221.5,-74.4781"/>
<polygon fill="midnightblue" stroke="midnightblue" points="1498.92,-158.045 1500.67,-168.495 1505.82,-159.237 1498.92,-158.045"/>
</g>
<!-- Node42&#45;&gt;Node6 -->
<g id="edge62" class="edge"><title>Node42&#45;&gt;Node6</title>
<path fill="none" stroke="midnightblue" d="M1459.33,-165.568C1424.43,-155.381 1374.15,-140.703 1342.68,-131.516"/>
<polygon fill="midnightblue" stroke="midnightblue" points="1458.61,-169.001 1469.19,-168.444 1460.57,-162.282 1458.61,-169.001"/>
</g>
<!-- Node42&#45;&gt;Node10 -->
<g id="edge63" class="edge"><title>Node42&#45;&gt;Node10</title>
<path fill="none" stroke="midnightblue" d="M1513.83,-160.486C1524.53,-146.864 1535.3,-127.353 1525.5,-112 1513.41,-93.067 1491.08,-81.9784 1470.89,-75.5486"/>
<polygon fill="midnightblue" stroke="midnightblue" points="1511.16,-158.227 1507.36,-168.117 1516.49,-162.756 1511.16,-158.227"/>
</g>
<!-- Node45&#45;&gt;Node14 -->
<g id="edge71" class="edge"><title>Node45&#45;&gt;Node14</title>
<path fill="none" stroke="midnightblue" d="M589.442,-418.233C600.488,-427.866 612.728,-439.984 619.419,-448.083"/>
<polygon fill="midnightblue" stroke="midnightblue" points="591.619,-415.491 581.706,-411.751 587.123,-420.856 591.619,-415.491"/>
</g>
<!-- Node45&#45;&gt;Node16 -->
<g id="edge70" class="edge"><title>Node45&#45;&gt;Node16</title>
<path fill="none" stroke="midnightblue" d="M594.019,-387.862C614.23,-377.849 641.487,-364.346 659.031,-355.655"/>
<polygon fill="midnightblue" stroke="midnightblue" points="592.42,-384.748 585.013,-392.324 595.527,-391.021 592.42,-384.748"/>
</g>
<!-- Node45&#45;&gt;Node19 -->
<g id="edge72" class="edge"><title>Node45&#45;&gt;Node19</title>
<path fill="none" stroke="midnightblue" d="M503.295,-391.803C415.773,-379.223 269.139,-357.972 263.5,-356 209.173,-337.002 151.5,-348.553 151.5,-291 151.5,-291 151.5,-291 151.5,-233 151.5,-190.581 186.313,-148.961 202.903,-131.535"/>
<polygon fill="midnightblue" stroke="midnightblue" points="503.005,-395.298 513.401,-393.255 504,-388.369 503.005,-395.298"/>
</g>
<!-- Node45&#45;&gt;Node28 -->
<g id="edge76" class="edge"><title>Node45&#45;&gt;Node28</title>
<path fill="none" stroke="midnightblue" d="M569.395,-382.141C573.737,-347.44 587.174,-272.585 625.5,-224 632.853,-214.679 705.705,-172.941 716.5,-168 751.654,-151.908 794.177,-139.265 823.473,-131.529"/>
<polygon fill="midnightblue" stroke="midnightblue" points="565.895,-381.943 568.249,-392.273 572.851,-382.73 565.895,-381.943"/>
</g>
<!-- Node46 -->
<g id="node46" class="node"><title>Node46</title>
<g id="a_node46"><a xlink:href="../../d1/d1f/ShiftRegisterOutRGB_8hpp.html" target="_top" xlink:title=" ">
<polygon fill="white" stroke="black" points="272.5,-336.5 272.5,-355.5 402.5,-355.5 402.5,-336.5 272.5,-336.5"/>
<text text-anchor="middle" x="337.5" y="-343.5" font-family="Helvetica,sans-Serif" font-size="10.00">ShiftRegisterOutRGB.hpp</text>
</a>
</g>
</g>
<!-- Node45&#45;&gt;Node46 -->
<g id="edge73" class="edge"><title>Node45&#45;&gt;Node46</title>
<path fill="none" stroke="midnightblue" d="M521.299,-390.153C477.842,-379.95 413.659,-364.881 373.774,-355.516"/>
<polygon fill="midnightblue" stroke="midnightblue" points="520.521,-393.565 531.056,-392.444 522.121,-386.75 520.521,-393.565"/>
</g>
<!-- Node46&#45;&gt;Node9 -->
<g id="edge74" class="edge"><title>Node46&#45;&gt;Node9</title>
<path fill="none" stroke="midnightblue" d="M337.5,-326.251C337.5,-304.357 337.5,-267.052 337.5,-235 337.5,-235 337.5,-235 337.5,-177 337.5,-146.902 333.275,-131.144 356.5,-112 360.53,-108.678 646.88,-83.7595 778.097,-72.4973"/>
<polygon fill="midnightblue" stroke="midnightblue" points="334,-326.442 337.5,-336.442 341,-326.442 334,-326.442"/>
</g>
<!-- Node47 -->
<g id="node47" class="node"><title>Node47</title>
<g id="a_node47"><a xlink:href="../../db/d0b/ShiftRegisterOutRGB_8cpp.html" target="_top" xlink:title=" ">
<polygon fill="white" stroke="black" points="179.5,-280.5 179.5,-299.5 309.5,-299.5 309.5,-280.5 179.5,-280.5"/>
<text text-anchor="middle" x="244.5" y="-287.5" font-family="Helvetica,sans-Serif" font-size="10.00">ShiftRegisterOutRGB.cpp</text>
</a>
</g>
</g>
<!-- Node46&#45;&gt;Node47 -->
<g id="edge75" class="edge"><title>Node46&#45;&gt;Node47</title>
<path fill="none" stroke="midnightblue" d="M313.694,-331.177C296.581,-321.241 274.035,-308.149 259.405,-299.655"/>
<polygon fill="midnightblue" stroke="midnightblue" points="312.153,-334.329 322.558,-336.324 315.668,-328.276 312.153,-334.329"/>
</g>
</g>
</svg>
