<?xml version="1.0" encoding="UTF-8" standalone="no"?>
<!DOCTYPE svg PUBLIC "-//W3C//DTD SVG 1.1//EN"
 "http://www.w3.org/Graphics/SVG/1.1/DTD/svg11.dtd">
<!-- Generated by graphviz version 2.38.0 (20140413.2041)
 -->
<!-- Title: PrintStream.hpp Pages: 1 -->
<svg width="1761pt" height="588pt"
 viewBox="0.00 0.00 1761.00 588.00" xmlns="http://www.w3.org/2000/svg" xmlns:xlink="http://www.w3.org/1999/xlink">
<g id="graph0" class="graph" transform="scale(1 1) rotate(0) translate(4 584)">
<title>PrintStream.hpp</title>
<polygon fill="white" stroke="none" points="-4,4 -4,-584 1757,-584 1757,4 -4,4"/>
<!-- Node1 -->
<g id="node1" class="node"><title>Node1</title>
<g id="a_node1"><a xlink:title=" ">
<polygon fill="#bfbfbf" stroke="black" points="1067,-560.5 1067,-579.5 1154,-579.5 1154,-560.5 1067,-560.5"/>
<text text-anchor="middle" x="1110.5" y="-567.5" font-family="Helvetica,sans-Serif" font-size="10.00">PrintStream.hpp</text>
</a>
</g>
</g>
<!-- Node2 -->
<g id="node2" class="node"><title>Node2</title>
<g id="a_node2"><a xlink:href="../../df/dee/Debug_8hpp.html" target="_top" xlink:title=" ">
<polygon fill="white" stroke="black" points="1031.5,-504.5 1031.5,-523.5 1095.5,-523.5 1095.5,-504.5 1031.5,-504.5"/>
<text text-anchor="middle" x="1063.5" y="-511.5" font-family="Helvetica,sans-Serif" font-size="10.00">Debug.hpp</text>
</a>
</g>
</g>
<!-- Node1&#45;&gt;Node2 -->
<g id="edge1" class="edge"><title>Node1&#45;&gt;Node2</title>
<path fill="none" stroke="midnightblue" d="M1096.08,-552.431C1087.84,-542.967 1077.85,-531.483 1071.12,-523.751"/>
<polygon fill="midnightblue" stroke="midnightblue" points="1093.53,-554.838 1102.74,-560.083 1098.81,-550.242 1093.53,-554.838"/>
</g>
<!-- Node46 -->
<g id="node46" class="node"><title>Node46</title>
<g id="a_node46"><a xlink:href="../../da/d69/PrintStream_8cpp.html" target="_top" xlink:title=" ">
<polygon fill="white" stroke="black" points="1114,-504.5 1114,-523.5 1201,-523.5 1201,-504.5 1114,-504.5"/>
<text text-anchor="middle" x="1157.5" y="-511.5" font-family="Helvetica,sans-Serif" font-size="10.00">PrintStream.cpp</text>
</a>
</g>
</g>
<!-- Node1&#45;&gt;Node46 -->
<g id="edge71" class="edge"><title>Node1&#45;&gt;Node46</title>
<path fill="none" stroke="midnightblue" d="M1124.92,-552.431C1133.16,-542.967 1143.15,-531.483 1149.88,-523.751"/>
<polygon fill="midnightblue" stroke="midnightblue" points="1122.19,-550.242 1118.26,-560.083 1127.47,-554.838 1122.19,-550.242"/>
</g>
<!-- Node3 -->
<g id="node3" class="node"><title>Node3</title>
<g id="a_node3"><a xlink:href="../../de/dd1/LinkedList_8hpp.html" target="_top" xlink:title=" ">
<polygon fill="white" stroke="black" points="1023.5,-448.5 1023.5,-467.5 1103.5,-467.5 1103.5,-448.5 1023.5,-448.5"/>
<text text-anchor="middle" x="1063.5" y="-455.5" font-family="Helvetica,sans-Serif" font-size="10.00">LinkedList.hpp</text>
</a>
</g>
</g>
<!-- Node2&#45;&gt;Node3 -->
<g id="edge2" class="edge"><title>Node2&#45;&gt;Node3</title>
<path fill="none" stroke="midnightblue" d="M1063.5,-493.805C1063.5,-484.91 1063.5,-474.78 1063.5,-467.751"/>
<polygon fill="midnightblue" stroke="midnightblue" points="1060,-494.083 1063.5,-504.083 1067,-494.083 1060,-494.083"/>
</g>
<!-- Node31 -->
<g id="node31" class="node"><title>Node31</title>
<g id="a_node31"><a xlink:href="../../df/d66/Debug_8cpp.html" target="_top" xlink:title=" ">
<polygon fill="white" stroke="black" points="1198.5,-448.5 1198.5,-467.5 1262.5,-467.5 1262.5,-448.5 1198.5,-448.5"/>
<text text-anchor="middle" x="1230.5" y="-455.5" font-family="Helvetica,sans-Serif" font-size="10.00">Debug.cpp</text>
</a>
</g>
</g>
<!-- Node2&#45;&gt;Node31 -->
<g id="edge40" class="edge"><title>Node2&#45;&gt;Node31</title>
<path fill="none" stroke="midnightblue" d="M1099.67,-501.304C1131.14,-491.129 1175.99,-476.625 1204.16,-467.516"/>
<polygon fill="midnightblue" stroke="midnightblue" points="1098.4,-498.037 1089.96,-504.444 1100.55,-504.697 1098.4,-498.037"/>
</g>
<!-- Node32 -->
<g id="node32" class="node"><title>Node32</title>
<g id="a_node32"><a xlink:href="../../d1/d93/Error_8hpp.html" target="_top" xlink:title=" ">
<polygon fill="white" stroke="black" points="1124.5,-448.5 1124.5,-467.5 1180.5,-467.5 1180.5,-448.5 1124.5,-448.5"/>
<text text-anchor="middle" x="1152.5" y="-455.5" font-family="Helvetica,sans-Serif" font-size="10.00">Error.hpp</text>
</a>
</g>
</g>
<!-- Node2&#45;&gt;Node32 -->
<g id="edge41" class="edge"><title>Node2&#45;&gt;Node32</title>
<path fill="none" stroke="midnightblue" d="M1086.74,-498.901C1103.06,-488.999 1124.37,-476.071 1138.24,-467.655"/>
<polygon fill="midnightblue" stroke="midnightblue" points="1084.53,-496.144 1077.8,-504.324 1088.16,-502.129 1084.53,-496.144"/>
</g>
<!-- Node43 -->
<g id="node43" class="node"><title>Node43</title>
<g id="a_node43"><a xlink:href="../../d2/dd5/SettingsWrapper_8hpp.html" target="_top" xlink:title=" ">
<polygon fill="white" stroke="black" points="890.5,-448.5 890.5,-467.5 998.5,-467.5 998.5,-448.5 890.5,-448.5"/>
<text text-anchor="middle" x="944.5" y="-455.5" font-family="Helvetica,sans-Serif" font-size="10.00">SettingsWrapper.hpp</text>
</a>
</g>
</g>
<!-- Node2&#45;&gt;Node43 -->
<g id="edge63" class="edge"><title>Node2&#45;&gt;Node43</title>
<path fill="none" stroke="midnightblue" d="M1030.16,-500.503C1006.38,-490.38 975.784,-476.388 958.188,-467.516"/>
<polygon fill="midnightblue" stroke="midnightblue" points="1028.98,-503.802 1039.56,-504.444 1031.69,-497.347 1028.98,-503.802"/>
</g>
<!-- Node4 -->
<g id="node4" class="node"><title>Node4</title>
<g id="a_node4"><a xlink:href="../../d4/d93/Updatable_8hpp.html" target="_top" xlink:title=" ">
<polygon fill="white" stroke="black" points="970.5,-392.5 970.5,-411.5 1050.5,-411.5 1050.5,-392.5 970.5,-392.5"/>
<text text-anchor="middle" x="1010.5" y="-399.5" font-family="Helvetica,sans-Serif" font-size="10.00">Updatable.hpp</text>
</a>
</g>
</g>
<!-- Node3&#45;&gt;Node4 -->
<g id="edge3" class="edge"><title>Node3&#45;&gt;Node4</title>
<path fill="none" stroke="midnightblue" d="M1047.52,-440.718C1038.18,-431.2 1026.75,-419.561 1019.09,-411.751"/>
<polygon fill="midnightblue" stroke="midnightblue" points="1045.25,-443.398 1054.75,-448.083 1050.24,-438.494 1045.25,-443.398"/>
</g>
<!-- Node5 -->
<g id="node5" class="node"><title>Node5</title>
<g id="a_node5"><a xlink:href="../../d4/d57/ExtendedIOElement_8hpp.html" target="_top" xlink:title=" ">
<polygon fill="white" stroke="black" points="1028,-280.5 1028,-299.5 1151,-299.5 1151,-280.5 1028,-280.5"/>
<text text-anchor="middle" x="1089.5" y="-287.5" font-family="Helvetica,sans-Serif" font-size="10.00">ExtendedIOElement.hpp</text>
</a>
</g>
</g>
<!-- Node3&#45;&gt;Node5 -->
<g id="edge4" class="edge"><title>Node3&#45;&gt;Node5</title>
<path fill="none" stroke="midnightblue" d="M1066.49,-437.93C1072.13,-401.92 1084.14,-325.231 1088.16,-299.568"/>
<polygon fill="midnightblue" stroke="midnightblue" points="1062.99,-437.654 1064.9,-448.075 1069.9,-438.737 1062.99,-437.654"/>
</g>
<!-- Node6 -->
<g id="node6" class="node"><title>Node6</title>
<g id="a_node6"><a xlink:href="../../dd/ddf/ExtendedInputOutput_8hpp.html" target="_top" xlink:title=" ">
<polygon fill="white" stroke="black" points="621.5,-224.5 621.5,-243.5 749.5,-243.5 749.5,-224.5 621.5,-224.5"/>
<text text-anchor="middle" x="685.5" y="-231.5" font-family="Helvetica,sans-Serif" font-size="10.00">ExtendedInputOutput.hpp</text>
</a>
</g>
</g>
<!-- Node5&#45;&gt;Node6 -->
<g id="edge5" class="edge"><title>Node5&#45;&gt;Node6</title>
<path fill="none" stroke="midnightblue" d="M1017.71,-279.404C941.526,-269.221 822.284,-253.283 749.293,-243.527"/>
<polygon fill="midnightblue" stroke="midnightblue" points="1017.33,-282.884 1027.7,-280.74 1018.25,-275.946 1017.33,-282.884"/>
</g>
<!-- Node16 -->
<g id="node16" class="node"><title>Node16</title>
<g id="a_node16"><a xlink:href="../../d6/d3c/ExtendedInputOutput_8cpp.html" target="_top" xlink:title=" ">
<polygon fill="white" stroke="black" points="983.5,-168.5 983.5,-187.5 1111.5,-187.5 1111.5,-168.5 983.5,-168.5"/>
<text text-anchor="middle" x="1047.5" y="-175.5" font-family="Helvetica,sans-Serif" font-size="10.00">ExtendedInputOutput.cpp</text>
</a>
</g>
</g>
<!-- Node5&#45;&gt;Node16 -->
<g id="edge38" class="edge"><title>Node5&#45;&gt;Node16</title>
<path fill="none" stroke="midnightblue" d="M1074.23,-272.389C1067.72,-264.377 1060.67,-254.286 1056.5,-244 1048.8,-224.996 1047.48,-200.581 1047.37,-187.76"/>
<polygon fill="midnightblue" stroke="midnightblue" points="1071.75,-274.877 1080.93,-280.177 1077.06,-270.312 1071.75,-274.877"/>
</g>
<!-- Node29 -->
<g id="node29" class="node"><title>Node29</title>
<g id="a_node29"><a xlink:href="../../d2/d05/StaticSizeExtendedIOElement_8hpp.html" target="_top" xlink:title=" ">
<polygon fill="white" stroke="black" points="1283.5,-224.5 1283.5,-243.5 1451.5,-243.5 1451.5,-224.5 1283.5,-224.5"/>
<text text-anchor="middle" x="1367.5" y="-231.5" font-family="Helvetica,sans-Serif" font-size="10.00">StaticSizeExtendedIOElement.hpp</text>
</a>
</g>
</g>
<!-- Node5&#45;&gt;Node29 -->
<g id="edge34" class="edge"><title>Node5&#45;&gt;Node29</title>
<path fill="none" stroke="midnightblue" d="M1143.69,-278.473C1196.23,-268.268 1274.94,-252.979 1323.66,-243.516"/>
<polygon fill="midnightblue" stroke="midnightblue" points="1142.7,-275.101 1133.55,-280.444 1144.03,-281.972 1142.7,-275.101"/>
</g>
<!-- Node30 -->
<g id="node30" class="node"><title>Node30</title>
<g id="a_node30"><a xlink:href="../../da/d1f/ExtendedIOElement_8cpp.html" target="_top" xlink:title=" ">
<polygon fill="white" stroke="black" points="1066,-224.5 1066,-243.5 1189,-243.5 1189,-224.5 1066,-224.5"/>
<text text-anchor="middle" x="1127.5" y="-231.5" font-family="Helvetica,sans-Serif" font-size="10.00">ExtendedIOElement.cpp</text>
</a>
</g>
</g>
<!-- Node5&#45;&gt;Node30 -->
<g id="edge39" class="edge"><title>Node5&#45;&gt;Node30</title>
<path fill="none" stroke="midnightblue" d="M1101.56,-271.855C1108.14,-262.505 1116.01,-251.327 1121.34,-243.751"/>
<polygon fill="midnightblue" stroke="midnightblue" points="1098.67,-269.891 1095.77,-280.083 1104.39,-273.919 1098.67,-269.891"/>
</g>
<!-- Node7 -->
<g id="node7" class="node"><title>Node7</title>
<g id="a_node7"><a xlink:href="../../d4/db3/Button_8hpp.html" target="_top" xlink:title=" ">
<polygon fill="white" stroke="black" points="283.5,-168.5 283.5,-187.5 347.5,-187.5 347.5,-168.5 283.5,-168.5"/>
<text text-anchor="middle" x="315.5" y="-175.5" font-family="Helvetica,sans-Serif" font-size="10.00">Button.hpp</text>
</a>
</g>
</g>
<!-- Node6&#45;&gt;Node7 -->
<g id="edge6" class="edge"><title>Node6&#45;&gt;Node7</title>
<path fill="none" stroke="midnightblue" d="M616.856,-222.982C536.613,-211.271 407.209,-192.385 347.532,-183.675"/>
<polygon fill="midnightblue" stroke="midnightblue" points="616.472,-226.463 626.872,-224.444 617.483,-219.536 616.472,-226.463"/>
</g>
<!-- Node13 -->
<g id="node13" class="node"><title>Node13</title>
<g id="a_node13"><a xlink:href="../../d5/d41/ButtonMatrix_8ipp.html" target="_top" xlink:title=" ">
<polygon fill="white" stroke="black" points="569.5,-168.5 569.5,-187.5 657.5,-187.5 657.5,-168.5 569.5,-168.5"/>
<text text-anchor="middle" x="613.5" y="-175.5" font-family="Helvetica,sans-Serif" font-size="10.00">ButtonMatrix.ipp</text>
</a>
</g>
</g>
<!-- Node6&#45;&gt;Node13 -->
<g id="edge12" class="edge"><title>Node6&#45;&gt;Node13</title>
<path fill="none" stroke="midnightblue" d="M665.634,-218.101C652.677,-208.382 636.203,-196.027 625.279,-187.834"/>
<polygon fill="midnightblue" stroke="midnightblue" points="663.832,-221.124 673.932,-224.324 668.032,-215.524 663.832,-221.124"/>
</g>
<!-- Node15 -->
<g id="node15" class="node"><title>Node15</title>
<g id="a_node15"><a xlink:href="../../d7/def/AnalogMultiplex_8hpp.html" target="_top" xlink:title=" ">
<polygon fill="white" stroke="black" points="1321.5,-168.5 1321.5,-187.5 1425.5,-187.5 1425.5,-168.5 1321.5,-168.5"/>
<text text-anchor="middle" x="1373.5" y="-175.5" font-family="Helvetica,sans-Serif" font-size="10.00">AnalogMultiplex.hpp</text>
</a>
</g>
</g>
<!-- Node6&#45;&gt;Node15 -->
<g id="edge15" class="edge"><title>Node6&#45;&gt;Node15</title>
<path fill="none" stroke="midnightblue" d="M759.826,-227.166C900.016,-216.163 1200.25,-192.598 1321.31,-183.097"/>
<polygon fill="midnightblue" stroke="midnightblue" points="759.303,-223.696 749.608,-227.968 759.851,-230.675 759.303,-223.696"/>
</g>
<!-- Node6&#45;&gt;Node16 -->
<g id="edge16" class="edge"><title>Node6&#45;&gt;Node16</title>
<path fill="none" stroke="midnightblue" d="M753.096,-222.917C821.485,-212.715 926.046,-197.117 990.408,-187.516"/>
<polygon fill="midnightblue" stroke="midnightblue" points="752.234,-219.506 742.86,-224.444 753.267,-226.43 752.234,-219.506"/>
</g>
<!-- Node17 -->
<g id="node17" class="node"><title>Node17</title>
<g id="a_node17"><a xlink:href="../../d5/d47/ShiftRegisterOutBase_8ipp.html" target="_top" xlink:title=" ">
<polygon fill="white" stroke="black" points="837.5,-168.5 837.5,-187.5 965.5,-187.5 965.5,-168.5 837.5,-168.5"/>
<text text-anchor="middle" x="901.5" y="-175.5" font-family="Helvetica,sans-Serif" font-size="10.00">ShiftRegisterOutBase.ipp</text>
</a>
</g>
</g>
<!-- Node6&#45;&gt;Node17 -->
<g id="edge17" class="edge"><title>Node6&#45;&gt;Node17</title>
<path fill="none" stroke="midnightblue" d="M729.664,-221.959C770.461,-211.76 830.213,-196.822 867.434,-187.516"/>
<polygon fill="midnightblue" stroke="midnightblue" points="728.578,-218.623 719.726,-224.444 730.276,-225.414 728.578,-218.623"/>
</g>
<!-- Node20 -->
<g id="node20" class="node"><title>Node20</title>
<g id="a_node20"><a xlink:href="../../de/d95/ShiftRegisterOut_8ipp.html" target="_top" xlink:title=" ">
<polygon fill="white" stroke="black" points="490,-0.5 490,-19.5 595,-19.5 595,-0.5 490,-0.5"/>
<text text-anchor="middle" x="542.5" y="-7.5" font-family="Helvetica,sans-Serif" font-size="10.00">ShiftRegisterOut.ipp</text>
</a>
</g>
</g>
<!-- Node6&#45;&gt;Node20 -->
<g id="edge26" class="edge"><title>Node6&#45;&gt;Node20</title>
<path fill="none" stroke="midnightblue" d="M611.222,-229.688C566.456,-224.908 509.737,-213.733 465.5,-188 436.913,-171.371 428.132,-162.958 416.5,-132 395.965,-77.3484 477.558,-36.4702 519.298,-19.5534"/>
<polygon fill="midnightblue" stroke="midnightblue" points="611.16,-233.199 621.454,-230.693 611.844,-226.233 611.16,-233.199"/>
</g>
<!-- Node22 -->
<g id="node22" class="node"><title>Node22</title>
<g id="a_node22"><a xlink:href="../../da/d45/SPIShiftRegisterOut_8ipp.html" target="_top" xlink:title=" ">
<polygon fill="white" stroke="black" points="916.5,-0.5 916.5,-19.5 1038.5,-19.5 1038.5,-0.5 916.5,-0.5"/>
<text text-anchor="middle" x="977.5" y="-7.5" font-family="Helvetica,sans-Serif" font-size="10.00">SPIShiftRegisterOut.ipp</text>
</a>
</g>
</g>
<!-- Node6&#45;&gt;Node22 -->
<g id="edge27" class="edge"><title>Node6&#45;&gt;Node22</title>
<path fill="none" stroke="midnightblue" d="M683.4,-214.148C681.576,-188.134 682.297,-141.15 706.5,-112 758.621,-49.2264 853.766,-25.4502 916.314,-16.4561"/>
<polygon fill="midnightblue" stroke="midnightblue" points="679.921,-214.549 684.308,-224.193 686.893,-213.918 679.921,-214.549"/>
</g>
<!-- Node23 -->
<g id="node23" class="node"><title>Node23</title>
<g id="a_node23"><a xlink:href="../../d8/df3/FilteredAnalog_8hpp.html" target="_top" xlink:title=" ">
<polygon fill="white" stroke="black" points="1129.5,-168.5 1129.5,-187.5 1227.5,-187.5 1227.5,-168.5 1129.5,-168.5"/>
<text text-anchor="middle" x="1178.5" y="-175.5" font-family="Helvetica,sans-Serif" font-size="10.00">FilteredAnalog.hpp</text>
</a>
</g>
</g>
<!-- Node6&#45;&gt;Node23 -->
<g id="edge28" class="edge"><title>Node6&#45;&gt;Node23</title>
<path fill="none" stroke="midnightblue" d="M759.748,-226.478C846.449,-218.594 994.11,-204.333 1120.5,-188 1123.43,-187.621 1126.44,-187.213 1129.48,-186.786"/>
<polygon fill="midnightblue" stroke="midnightblue" points="759.385,-222.996 749.742,-227.384 760.017,-229.968 759.385,-222.996"/>
</g>
<!-- Node24 -->
<g id="node24" class="node"><title>Node24</title>
<g id="a_node24"><a xlink:href="../../d9/d4f/LEDs_8hpp.html" target="_top" xlink:title=" ">
<polygon fill="white" stroke="black" points="474.5,-168.5 474.5,-187.5 534.5,-187.5 534.5,-168.5 474.5,-168.5"/>
<text text-anchor="middle" x="504.5" y="-175.5" font-family="Helvetica,sans-Serif" font-size="10.00">LEDs.hpp</text>
</a>
</g>
</g>
<!-- Node6&#45;&gt;Node24 -->
<g id="edge29" class="edge"><title>Node6&#45;&gt;Node24</title>
<path fill="none" stroke="midnightblue" d="M647.181,-221.568C613.036,-211.381 563.839,-196.703 533.046,-187.516"/>
<polygon fill="midnightblue" stroke="midnightblue" points="646.237,-224.938 656.82,-224.444 648.238,-218.231 646.237,-224.938"/>
</g>
<!-- Node26 -->
<g id="node26" class="node"><title>Node26</title>
<g id="a_node26"><a xlink:href="../../d7/d13/MAX7219__Base_8hpp.html" target="_top" xlink:title=" ">
<polygon fill="white" stroke="black" points="713.5,-168.5 713.5,-187.5 819.5,-187.5 819.5,-168.5 713.5,-168.5"/>
<text text-anchor="middle" x="766.5" y="-175.5" font-family="Helvetica,sans-Serif" font-size="10.00">MAX7219_Base.hpp</text>
</a>
</g>
</g>
<!-- Node6&#45;&gt;Node26 -->
<g id="edge31" class="edge"><title>Node6&#45;&gt;Node26</title>
<path fill="none" stroke="midnightblue" d="M707.067,-218.622C721.864,-208.757 741.012,-195.992 753.518,-187.655"/>
<polygon fill="midnightblue" stroke="midnightblue" points="704.893,-215.865 698.514,-224.324 708.776,-221.689 704.893,-215.865"/>
</g>
<!-- Node8 -->
<g id="node8" class="node"><title>Node8</title>
<g id="a_node8"><a xlink:href="../../de/dd1/Button_8cpp.html" target="_top" xlink:title=" ">
<polygon fill="white" stroke="black" points="179.5,-112.5 179.5,-131.5 243.5,-131.5 243.5,-112.5 179.5,-112.5"/>
<text text-anchor="middle" x="211.5" y="-119.5" font-family="Helvetica,sans-Serif" font-size="10.00">Button.cpp</text>
</a>
</g>
</g>
<!-- Node7&#45;&gt;Node8 -->
<g id="edge7" class="edge"><title>Node7&#45;&gt;Node8</title>
<path fill="none" stroke="midnightblue" d="M289.672,-163.59C270.443,-153.605 244.755,-140.267 228.168,-131.655"/>
<polygon fill="midnightblue" stroke="midnightblue" points="288.303,-166.822 298.791,-168.324 291.529,-160.61 288.303,-166.822"/>
</g>
<!-- Node9 -->
<g id="node9" class="node"><title>Node9</title>
<g id="a_node9"><a xlink:href="../../d5/d04/IncrementButton_8hpp.html" target="_top" xlink:title=" ">
<polygon fill="white" stroke="black" points="262,-112.5 262,-131.5 369,-131.5 369,-112.5 262,-112.5"/>
<text text-anchor="middle" x="315.5" y="-119.5" font-family="Helvetica,sans-Serif" font-size="10.00">IncrementButton.hpp</text>
</a>
</g>
</g>
<!-- Node7&#45;&gt;Node9 -->
<g id="edge8" class="edge"><title>Node7&#45;&gt;Node9</title>
<path fill="none" stroke="midnightblue" d="M315.5,-157.805C315.5,-148.91 315.5,-138.78 315.5,-131.751"/>
<polygon fill="midnightblue" stroke="midnightblue" points="312,-158.083 315.5,-168.083 319,-158.083 312,-158.083"/>
</g>
<!-- Node11 -->
<g id="node11" class="node"><title>Node11</title>
<g id="a_node11"><a xlink:href="../../df/df5/IncrementDecrementButtons_8hpp.html" target="_top" xlink:title=" ">
<polygon fill="white" stroke="black" points="0,-112.5 0,-131.5 161,-131.5 161,-112.5 0,-112.5"/>
<text text-anchor="middle" x="80.5" y="-119.5" font-family="Helvetica,sans-Serif" font-size="10.00">IncrementDecrementButtons.hpp</text>
</a>
</g>
</g>
<!-- Node7&#45;&gt;Node11 -->
<g id="edge10" class="edge"><title>Node7&#45;&gt;Node11</title>
<path fill="none" stroke="midnightblue" d="M273.443,-167.336C229.153,-157.158 160.084,-141.287 117.712,-131.551"/>
<polygon fill="midnightblue" stroke="midnightblue" points="272.787,-170.776 283.317,-169.605 274.355,-163.954 272.787,-170.776"/>
</g>
<!-- Node10 -->
<g id="node10" class="node"><title>Node10</title>
<g id="a_node10"><a xlink:href="../../db/d9d/IncrementButton_8cpp.html" target="_top" xlink:title=" ">
<polygon fill="white" stroke="black" points="262,-56.5 262,-75.5 369,-75.5 369,-56.5 262,-56.5"/>
<text text-anchor="middle" x="315.5" y="-63.5" font-family="Helvetica,sans-Serif" font-size="10.00">IncrementButton.cpp</text>
</a>
</g>
</g>
<!-- Node9&#45;&gt;Node10 -->
<g id="edge9" class="edge"><title>Node9&#45;&gt;Node10</title>
<path fill="none" stroke="midnightblue" d="M315.5,-101.805C315.5,-92.9102 315.5,-82.7798 315.5,-75.7511"/>
<polygon fill="midnightblue" stroke="midnightblue" points="312,-102.083 315.5,-112.083 319,-102.083 312,-102.083"/>
</g>
<!-- Node12 -->
<g id="node12" class="node"><title>Node12</title>
<g id="a_node12"><a xlink:href="../../da/d66/IncrementDecrementButtons_8cpp.html" target="_top" xlink:title=" ">
<polygon fill="white" stroke="black" points="0,-56.5 0,-75.5 161,-75.5 161,-56.5 0,-56.5"/>
<text text-anchor="middle" x="80.5" y="-63.5" font-family="Helvetica,sans-Serif" font-size="10.00">IncrementDecrementButtons.cpp</text>
</a>
</g>
</g>
<!-- Node11&#45;&gt;Node12 -->
<g id="edge11" class="edge"><title>Node11&#45;&gt;Node12</title>
<path fill="none" stroke="midnightblue" d="M80.5,-101.805C80.5,-92.9102 80.5,-82.7798 80.5,-75.7511"/>
<polygon fill="midnightblue" stroke="midnightblue" points="77.0001,-102.083 80.5,-112.083 84.0001,-102.083 77.0001,-102.083"/>
</g>
<!-- Node14 -->
<g id="node14" class="node"><title>Node14</title>
<g id="a_node14"><a xlink:href="../../d9/d4b/ButtonMatrix_8hpp.html" target="_top" xlink:title=" ">
<polygon fill="white" stroke="black" points="568,-112.5 568,-131.5 659,-131.5 659,-112.5 568,-112.5"/>
<text text-anchor="middle" x="613.5" y="-119.5" font-family="Helvetica,sans-Serif" font-size="10.00">ButtonMatrix.hpp</text>
</a>
</g>
</g>
<!-- Node13&#45;&gt;Node14 -->
<g id="edge13" class="edge"><title>Node13&#45;&gt;Node14</title>
<path fill="none" stroke="midnightblue" d="M607.028,-158.101C606.396,-149.136 606.843,-138.858 608.369,-131.751"/>
<polygon fill="midnightblue" stroke="midnightblue" points="603.566,-158.622 608.334,-168.083 610.507,-157.713 603.566,-158.622"/>
</g>
<!-- Node14&#45;&gt;Node13 -->
<g id="edge14" class="edge"><title>Node14&#45;&gt;Node13</title>
<path fill="none" stroke="midnightblue" d="M619.958,-141.691C620.606,-150.635 620.176,-160.927 618.666,-168.083"/>
<polygon fill="midnightblue" stroke="midnightblue" points="623.423,-141.2 618.631,-131.751 616.485,-142.126 623.423,-141.2"/>
</g>
<!-- Node18 -->
<g id="node18" class="node"><title>Node18</title>
<g id="a_node18"><a xlink:href="../../d8/d93/ShiftRegisterOutBase_8hpp.html" target="_top" xlink:title=" ">
<polygon fill="white" stroke="black" points="912,-112.5 912,-131.5 1043,-131.5 1043,-112.5 912,-112.5"/>
<text text-anchor="middle" x="977.5" y="-119.5" font-family="Helvetica,sans-Serif" font-size="10.00">ShiftRegisterOutBase.hpp</text>
</a>
</g>
</g>
<!-- Node17&#45;&gt;Node18 -->
<g id="edge18" class="edge"><title>Node17&#45;&gt;Node18</title>
<path fill="none" stroke="midnightblue" d="M916.414,-162.061C929.076,-152.277 946.921,-139.835 960.209,-131.655"/>
<polygon fill="midnightblue" stroke="midnightblue" points="914.212,-159.34 908.596,-168.324 918.589,-164.803 914.212,-159.34"/>
</g>
<!-- Node18&#45;&gt;Node17 -->
<g id="edge22" class="edge"><title>Node18&#45;&gt;Node17</title>
<path fill="none" stroke="midnightblue" d="M962.394,-138.087C949.756,-147.839 932.043,-160.185 918.826,-168.324"/>
<polygon fill="midnightblue" stroke="midnightblue" points="964.591,-140.812 970.216,-131.834 960.22,-135.345 964.591,-140.812"/>
</g>
<!-- Node19 -->
<g id="node19" class="node"><title>Node19</title>
<g id="a_node19"><a xlink:href="../../d0/db4/ShiftRegisterOut_8hpp.html" target="_top" xlink:title=" ">
<polygon fill="white" stroke="black" points="488.5,-56.5 488.5,-75.5 596.5,-75.5 596.5,-56.5 488.5,-56.5"/>
<text text-anchor="middle" x="542.5" y="-63.5" font-family="Helvetica,sans-Serif" font-size="10.00">ShiftRegisterOut.hpp</text>
</a>
</g>
</g>
<!-- Node18&#45;&gt;Node19 -->
<g id="edge19" class="edge"><title>Node18&#45;&gt;Node19</title>
<path fill="none" stroke="midnightblue" d="M901.806,-111.604C814.589,-100.777 673.444,-83.2551 596.586,-73.7142"/>
<polygon fill="midnightblue" stroke="midnightblue" points="901.55,-115.099 911.905,-112.857 902.412,-108.152 901.55,-115.099"/>
</g>
<!-- Node21 -->
<g id="node21" class="node"><title>Node21</title>
<g id="a_node21"><a xlink:href="../../d7/d88/SPIShiftRegisterOut_8hpp.html" target="_top" xlink:title=" ">
<polygon fill="white" stroke="black" points="915,-56.5 915,-75.5 1040,-75.5 1040,-56.5 915,-56.5"/>
<text text-anchor="middle" x="977.5" y="-63.5" font-family="Helvetica,sans-Serif" font-size="10.00">SPIShiftRegisterOut.hpp</text>
</a>
</g>
</g>
<!-- Node18&#45;&gt;Node21 -->
<g id="edge23" class="edge"><title>Node18&#45;&gt;Node21</title>
<path fill="none" stroke="midnightblue" d="M977.5,-101.805C977.5,-92.9102 977.5,-82.7798 977.5,-75.7511"/>
<polygon fill="midnightblue" stroke="midnightblue" points="974,-102.083 977.5,-112.083 981,-102.083 974,-102.083"/>
</g>
<!-- Node19&#45;&gt;Node20 -->
<g id="edge20" class="edge"><title>Node19&#45;&gt;Node20</title>
<path fill="none" stroke="midnightblue" d="M536.028,-46.1005C535.396,-37.1357 535.843,-26.8579 537.369,-19.7511"/>
<polygon fill="midnightblue" stroke="midnightblue" points="532.566,-46.6216 537.334,-56.083 539.507,-45.7134 532.566,-46.6216"/>
</g>
<!-- Node20&#45;&gt;Node19 -->
<g id="edge21" class="edge"><title>Node20&#45;&gt;Node19</title>
<path fill="none" stroke="midnightblue" d="M548.958,-29.6911C549.606,-38.6353 549.176,-48.9272 547.666,-56.083"/>
<polygon fill="midnightblue" stroke="midnightblue" points="552.423,-29.2002 547.631,-19.7511 545.485,-30.1262 552.423,-29.2002"/>
</g>
<!-- Node21&#45;&gt;Node22 -->
<g id="edge24" class="edge"><title>Node21&#45;&gt;Node22</title>
<path fill="none" stroke="midnightblue" d="M971.028,-46.1005C970.396,-37.1357 970.843,-26.8579 972.369,-19.7511"/>
<polygon fill="midnightblue" stroke="midnightblue" points="967.566,-46.6216 972.334,-56.083 974.507,-45.7134 967.566,-46.6216"/>
</g>
<!-- Node22&#45;&gt;Node21 -->
<g id="edge25" class="edge"><title>Node22&#45;&gt;Node21</title>
<path fill="none" stroke="midnightblue" d="M983.958,-29.6911C984.606,-38.6353 984.176,-48.9272 982.666,-56.083"/>
<polygon fill="midnightblue" stroke="midnightblue" points="987.423,-29.2002 982.631,-19.7511 980.485,-30.1262 987.423,-29.2002"/>
</g>
<!-- Node25 -->
<g id="node25" class="node"><title>Node25</title>
<g id="a_node25"><a xlink:href="../../d6/d3a/DotBarDisplayLEDs_8hpp.html" target="_top" xlink:title=" ">
<polygon fill="white" stroke="black" points="425.5,-112.5 425.5,-131.5 549.5,-131.5 549.5,-112.5 425.5,-112.5"/>
<text text-anchor="middle" x="487.5" y="-119.5" font-family="Helvetica,sans-Serif" font-size="10.00">DotBarDisplayLEDs.hpp</text>
</a>
</g>
</g>
<!-- Node24&#45;&gt;Node25 -->
<g id="edge30" class="edge"><title>Node24&#45;&gt;Node25</title>
<path fill="none" stroke="midnightblue" d="M498.643,-158.396C495.799,-149.362 492.517,-138.936 490.255,-131.751"/>
<polygon fill="midnightblue" stroke="midnightblue" points="495.351,-159.596 501.693,-168.083 502.028,-157.493 495.351,-159.596"/>
</g>
<!-- Node27 -->
<g id="node27" class="node"><title>Node27</title>
<g id="a_node27"><a xlink:href="../../d2/d25/MAX7219_8hpp.html" target="_top" xlink:title=" ">
<polygon fill="white" stroke="black" points="1411.5,-112.5 1411.5,-131.5 1489.5,-131.5 1489.5,-112.5 1411.5,-112.5"/>
<text text-anchor="middle" x="1450.5" y="-119.5" font-family="Helvetica,sans-Serif" font-size="10.00">MAX7219.hpp</text>
</a>
</g>
</g>
<!-- Node26&#45;&gt;Node27 -->
<g id="edge32" class="edge"><title>Node26&#45;&gt;Node27</title>
<path fill="none" stroke="midnightblue" d="M829.644,-167.952C1056.07,-143.702 1314.77,-129.63 1411.48,-124.846"/>
<polygon fill="midnightblue" stroke="midnightblue" points="829.134,-164.487 819.568,-169.04 829.886,-171.446 829.134,-164.487"/>
</g>
<!-- Node28 -->
<g id="node28" class="node"><title>Node28</title>
<g id="a_node28"><a xlink:href="../../d5/d0c/MAX7219SevenSegmentDisplay_8hpp.html" target="_top" xlink:title=" ">
<polygon fill="white" stroke="black" points="715.5,-112.5 715.5,-131.5 893.5,-131.5 893.5,-112.5 715.5,-112.5"/>
<text text-anchor="middle" x="804.5" y="-119.5" font-family="Helvetica,sans-Serif" font-size="10.00">MAX7219SevenSegmentDisplay.hpp</text>
</a>
</g>
</g>
<!-- Node26&#45;&gt;Node28 -->
<g id="edge33" class="edge"><title>Node26&#45;&gt;Node28</title>
<path fill="none" stroke="midnightblue" d="M778.565,-159.855C785.145,-150.505 793.011,-139.327 798.342,-131.751"/>
<polygon fill="midnightblue" stroke="midnightblue" points="775.668,-157.891 772.775,-168.083 781.392,-161.919 775.668,-157.891"/>
</g>
<!-- Node29&#45;&gt;Node15 -->
<g id="edge35" class="edge"><title>Node29&#45;&gt;Node15</title>
<path fill="none" stroke="midnightblue" d="M1369.6,-214.101C1370.6,-205.136 1371.74,-194.858 1372.53,-187.751"/>
<polygon fill="midnightblue" stroke="midnightblue" points="1366.12,-213.758 1368.49,-224.083 1373.07,-214.531 1366.12,-213.758"/>
</g>
<!-- Node29&#45;&gt;Node18 -->
<g id="edge37" class="edge"><title>Node29&#45;&gt;Node18</title>
<path fill="none" stroke="midnightblue" d="M1349.84,-217.814C1331.18,-202.636 1300.24,-179.896 1269.5,-168 1195.24,-139.258 1103.66,-128.827 1043.07,-125.068"/>
<polygon fill="midnightblue" stroke="midnightblue" points="1347.81,-220.677 1357.74,-224.383 1352.29,-215.296 1347.81,-220.677"/>
</g>
<!-- Node29&#45;&gt;Node27 -->
<g id="edge36" class="edge"><title>Node29&#45;&gt;Node27</title>
<path fill="none" stroke="midnightblue" d="M1396.72,-219.644C1410.1,-212.134 1425.04,-201.527 1434.5,-188 1446.62,-170.668 1449.6,-145.127 1450.3,-131.809"/>
<polygon fill="midnightblue" stroke="midnightblue" points="1395.01,-216.588 1387.8,-224.346 1398.28,-222.781 1395.01,-216.588"/>
</g>
<!-- Node32&#45;&gt;Node4 -->
<g id="edge59" class="edge"><title>Node32&#45;&gt;Node4</title>
<path fill="none" stroke="midnightblue" d="M1120.34,-444.772C1093.67,-434.629 1056.43,-420.467 1032.9,-411.516"/>
<polygon fill="midnightblue" stroke="midnightblue" points="1119.41,-448.16 1130,-448.444 1121.9,-441.618 1119.41,-448.16"/>
</g>
<!-- Node32&#45;&gt;Node16 -->
<g id="edge61" class="edge"><title>Node32&#45;&gt;Node16</title>
<path fill="none" stroke="midnightblue" d="M1132.87,-442.05C1101.56,-416.818 1041.5,-362.388 1018.5,-300 1003.48,-259.261 1029.92,-207.902 1041.98,-187.714"/>
<polygon fill="midnightblue" stroke="midnightblue" points="1130.87,-444.927 1140.88,-448.375 1135.2,-439.432 1130.87,-444.927"/>
</g>
<!-- Node32&#45;&gt;Node30 -->
<g id="edge62" class="edge"><title>Node32&#45;&gt;Node30</title>
<path fill="none" stroke="midnightblue" d="M1157.35,-438.219C1164.97,-405.27 1177.16,-335.295 1159.5,-280 1154.95,-265.754 1144.06,-252.16 1136.25,-243.714"/>
<polygon fill="midnightblue" stroke="midnightblue" points="1153.88,-437.7 1154.9,-448.245 1160.68,-439.361 1153.88,-437.7"/>
</g>
<!-- Node33 -->
<g id="node33" class="node"><title>Node33</title>
<g id="a_node33"><a xlink:href="../../de/d76/Array_8hpp.html" target="_top" xlink:title=" ">
<polygon fill="white" stroke="black" points="1354,-392.5 1354,-411.5 1413,-411.5 1413,-392.5 1354,-392.5"/>
<text text-anchor="middle" x="1383.5" y="-399.5" font-family="Helvetica,sans-Serif" font-size="10.00">Array.hpp</text>
</a>
</g>
</g>
<!-- Node32&#45;&gt;Node33 -->
<g id="edge42" class="edge"><title>Node32&#45;&gt;Node33</title>
<path fill="none" stroke="midnightblue" d="M1190.58,-447.761C1254.28,-432.658 1317.69,-418.058 1353.9,-409.763"/>
<polygon fill="midnightblue" stroke="midnightblue" points="1189.7,-444.374 1180.77,-450.09 1191.31,-451.184 1189.7,-444.374"/>
</g>
<!-- Node41 -->
<g id="node41" class="node"><title>Node41</title>
<g id="a_node41"><a xlink:href="../../d1/d40/BitArray_8hpp.html" target="_top" xlink:title=" ">
<polygon fill="white" stroke="black" points="1482,-168.5 1482,-187.5 1553,-187.5 1553,-168.5 1482,-168.5"/>
<text text-anchor="middle" x="1517.5" y="-175.5" font-family="Helvetica,sans-Serif" font-size="10.00">BitArray.hpp</text>
</a>
</g>
</g>
<!-- Node32&#45;&gt;Node41 -->
<g id="edge55" class="edge"><title>Node32&#45;&gt;Node41</title>
<path fill="none" stroke="midnightblue" d="M1190.82,-448.084C1317.05,-428.182 1671.5,-453.445 1671.5,-347 1671.5,-347 1671.5,-347 1671.5,-289 1671.5,-258.902 1673.38,-245.676 1652.5,-224 1626.36,-196.866 1583.46,-186.091 1553.04,-181.813"/>
<polygon fill="midnightblue" stroke="midnightblue" points="1189.96,-444.681 1180.73,-449.873 1191.18,-451.573 1189.96,-444.681"/>
</g>
<!-- Node42 -->
<g id="node42" class="node"><title>Node42</title>
<g id="a_node42"><a xlink:href="../../d6/df4/Exit_8cpp.html" target="_top" xlink:title=" ">
<polygon fill="white" stroke="black" points="1700,-392.5 1700,-411.5 1753,-411.5 1753,-392.5 1700,-392.5"/>
<text text-anchor="middle" x="1726.5" y="-399.5" font-family="Helvetica,sans-Serif" font-size="10.00">Exit.cpp</text>
</a>
</g>
</g>
<!-- Node32&#45;&gt;Node42 -->
<g id="edge60" class="edge"><title>Node32&#45;&gt;Node42</title>
<path fill="none" stroke="midnightblue" d="M1190.89,-448.049C1409.68,-414.657 1470.08,-443.296 1685.5,-412 1690.12,-411.329 1694.99,-410.432 1699.7,-409.462"/>
<polygon fill="midnightblue" stroke="midnightblue" points="1190.03,-444.64 1180.68,-449.633 1191.1,-451.557 1190.03,-444.64"/>
</g>
<!-- Node33&#45;&gt;Node15 -->
<g id="edge45" class="edge"><title>Node33&#45;&gt;Node15</title>
<path fill="none" stroke="midnightblue" d="M1423.45,-399.617C1454.95,-396.165 1497.02,-385.801 1518.5,-356 1523.7,-348.789 1520.6,-344.636 1518.5,-336 1505.23,-281.536 1500.15,-263.628 1460.5,-224 1443.3,-206.809 1418.17,-194.783 1399.34,-187.515"/>
<polygon fill="midnightblue" stroke="midnightblue" points="1422.87,-396.155 1413.22,-400.541 1423.5,-403.127 1422.87,-396.155"/>
</g>
<!-- Node34 -->
<g id="node34" class="node"><title>Node34</title>
<g id="a_node34"><a xlink:href="../../d5/db6/ArrayHelpers_8hpp.html" target="_top" xlink:title=" ">
<polygon fill="white" stroke="black" points="1302.5,-280.5 1302.5,-299.5 1394.5,-299.5 1394.5,-280.5 1302.5,-280.5"/>
<text text-anchor="middle" x="1348.5" y="-287.5" font-family="Helvetica,sans-Serif" font-size="10.00">ArrayHelpers.hpp</text>
</a>
</g>
</g>
<!-- Node33&#45;&gt;Node34 -->
<g id="edge43" class="edge"><title>Node33&#45;&gt;Node34</title>
<path fill="none" stroke="midnightblue" d="M1361.79,-386.066C1352.44,-378.308 1342.53,-367.947 1337.5,-356 1329.51,-337.01 1338.2,-312.59 1344.06,-299.764"/>
<polygon fill="midnightblue" stroke="midnightblue" points="1359.66,-388.845 1369.71,-392.189 1363.94,-383.306 1359.66,-388.845"/>
</g>
<!-- Node35 -->
<g id="node35" class="node"><title>Node35</title>
<g id="a_node35"><a xlink:href="../../d4/d35/Hardware-Types_8hpp.html" target="_top" xlink:title=" ">
<polygon fill="white" stroke="black" points="1183,-336.5 1183,-355.5 1290,-355.5 1290,-336.5 1183,-336.5"/>
<text text-anchor="middle" x="1236.5" y="-343.5" font-family="Helvetica,sans-Serif" font-size="10.00">Hardware&#45;Types.hpp</text>
</a>
</g>
</g>
<!-- Node33&#45;&gt;Node35 -->
<g id="edge46" class="edge"><title>Node33&#45;&gt;Node35</title>
<path fill="none" stroke="midnightblue" d="M1350.58,-388.906C1322.94,-378.754 1284.16,-364.506 1259.68,-355.516"/>
<polygon fill="midnightblue" stroke="midnightblue" points="1349.61,-392.281 1360.21,-392.444 1352.03,-385.71 1349.61,-392.281"/>
</g>
<!-- Node36 -->
<g id="node36" class="node"><title>Node36</title>
<g id="a_node36"><a xlink:href="../../d1/dde/BiQuad_8hpp.html" target="_top" xlink:title=" ">
<polygon fill="white" stroke="black" points="1566.5,-336.5 1566.5,-355.5 1634.5,-355.5 1634.5,-336.5 1566.5,-336.5"/>
<text text-anchor="middle" x="1600.5" y="-343.5" font-family="Helvetica,sans-Serif" font-size="10.00">BiQuad.hpp</text>
</a>
</g>
</g>
<!-- Node33&#45;&gt;Node36 -->
<g id="edge50" class="edge"><title>Node33&#45;&gt;Node36</title>
<path fill="none" stroke="midnightblue" d="M1423.11,-391.142C1464.04,-380.958 1527.26,-365.226 1566.14,-355.551"/>
<polygon fill="midnightblue" stroke="midnightblue" points="1422.08,-387.793 1413.22,-393.605 1423.77,-394.586 1422.08,-387.793"/>
</g>
<!-- Node39 -->
<g id="node39" class="node"><title>Node39</title>
<g id="a_node39"><a xlink:href="../../d2/d3b/FIRFilter_8hpp.html" target="_top" xlink:title=" ">
<polygon fill="white" stroke="black" points="1346.5,-336.5 1346.5,-355.5 1420.5,-355.5 1420.5,-336.5 1346.5,-336.5"/>
<text text-anchor="middle" x="1383.5" y="-343.5" font-family="Helvetica,sans-Serif" font-size="10.00">FIRFilter.hpp</text>
</a>
</g>
</g>
<!-- Node33&#45;&gt;Node39 -->
<g id="edge53" class="edge"><title>Node33&#45;&gt;Node39</title>
<path fill="none" stroke="midnightblue" d="M1383.5,-381.805C1383.5,-372.91 1383.5,-362.78 1383.5,-355.751"/>
<polygon fill="midnightblue" stroke="midnightblue" points="1380,-382.083 1383.5,-392.083 1387,-382.083 1380,-382.083"/>
</g>
<!-- Node40 -->
<g id="node40" class="node"><title>Node40</title>
<g id="a_node40"><a xlink:href="../../dc/d64/IIRFilter_8hpp.html" target="_top" xlink:title=" ">
<polygon fill="white" stroke="black" points="1439,-336.5 1439,-355.5 1510,-355.5 1510,-336.5 1439,-336.5"/>
<text text-anchor="middle" x="1474.5" y="-343.5" font-family="Helvetica,sans-Serif" font-size="10.00">IIRFilter.hpp</text>
</a>
</g>
</g>
<!-- Node33&#45;&gt;Node40 -->
<g id="edge54" class="edge"><title>Node33&#45;&gt;Node40</title>
<path fill="none" stroke="midnightblue" d="M1406.79,-387.177C1423.54,-377.241 1445.6,-364.149 1459.92,-355.655"/>
<polygon fill="midnightblue" stroke="midnightblue" points="1404.93,-384.211 1398.12,-392.324 1408.51,-390.231 1404.93,-384.211"/>
</g>
<!-- Node34&#45;&gt;Node29 -->
<g id="edge44" class="edge"><title>Node34&#45;&gt;Node29</title>
<path fill="none" stroke="midnightblue" d="M1355.05,-270.396C1358.22,-261.362 1361.89,-250.936 1364.42,-243.751"/>
<polygon fill="midnightblue" stroke="midnightblue" points="1351.65,-269.488 1351.64,-280.083 1358.26,-271.812 1351.65,-269.488"/>
</g>
<!-- Node35&#45;&gt;Node5 -->
<g id="edge48" class="edge"><title>Node35&#45;&gt;Node5</title>
<path fill="none" stroke="midnightblue" d="M1203.58,-332.906C1175.94,-322.754 1137.16,-308.506 1112.68,-299.516"/>
<polygon fill="midnightblue" stroke="midnightblue" points="1202.61,-336.281 1213.21,-336.444 1205.03,-329.71 1202.61,-336.281"/>
</g>
<!-- Node35&#45;&gt;Node14 -->
<g id="edge47" class="edge"><title>Node35&#45;&gt;Node14</title>
<path fill="none" stroke="midnightblue" d="M1243.67,-326.513C1256.23,-290.695 1277.19,-211.545 1236.5,-168 1196.2,-124.872 765.326,-136.843 706.5,-132 691.142,-130.736 674.375,-129.17 659.36,-127.701"/>
<polygon fill="midnightblue" stroke="midnightblue" points="1240.3,-325.557 1240.13,-336.151 1246.87,-327.976 1240.3,-325.557"/>
</g>
<!-- Node35&#45;&gt;Node23 -->
<g id="edge49" class="edge"><title>Node35&#45;&gt;Node23</title>
<path fill="none" stroke="midnightblue" d="M1231.12,-326.592C1224.01,-302.725 1210.84,-259.901 1197.5,-224 1192.72,-211.122 1186.38,-196.522 1182.37,-187.537"/>
<polygon fill="midnightblue" stroke="midnightblue" points="1227.82,-327.803 1234.01,-336.403 1234.54,-325.821 1227.82,-327.803"/>
</g>
<!-- Node37 -->
<g id="node37" class="node"><title>Node37</title>
<g id="a_node37"><a xlink:href="../../df/ddc/SOSFilter_8hpp.html" target="_top" xlink:title=" ">
<polygon fill="white" stroke="black" points="1561.5,-280.5 1561.5,-299.5 1639.5,-299.5 1639.5,-280.5 1561.5,-280.5"/>
<text text-anchor="middle" x="1600.5" y="-287.5" font-family="Helvetica,sans-Serif" font-size="10.00">SOSFilter.hpp</text>
</a>
</g>
</g>
<!-- Node36&#45;&gt;Node37 -->
<g id="edge51" class="edge"><title>Node36&#45;&gt;Node37</title>
<path fill="none" stroke="midnightblue" d="M1600.5,-325.805C1600.5,-316.91 1600.5,-306.78 1600.5,-299.751"/>
<polygon fill="midnightblue" stroke="midnightblue" points="1597,-326.083 1600.5,-336.083 1604,-326.083 1597,-326.083"/>
</g>
<!-- Node38 -->
<g id="node38" class="node"><title>Node38</title>
<g id="a_node38"><a xlink:href="../../d4/d40/Butterworth_8hpp.html" target="_top" xlink:title=" ">
<polygon fill="white" stroke="black" points="1557.5,-224.5 1557.5,-243.5 1643.5,-243.5 1643.5,-224.5 1557.5,-224.5"/>
<text text-anchor="middle" x="1600.5" y="-231.5" font-family="Helvetica,sans-Serif" font-size="10.00">Butterworth.hpp</text>
</a>
</g>
</g>
<!-- Node37&#45;&gt;Node38 -->
<g id="edge52" class="edge"><title>Node37&#45;&gt;Node38</title>
<path fill="none" stroke="midnightblue" d="M1600.5,-269.805C1600.5,-260.91 1600.5,-250.78 1600.5,-243.751"/>
<polygon fill="midnightblue" stroke="midnightblue" points="1597,-270.083 1600.5,-280.083 1604,-270.083 1597,-270.083"/>
</g>
<!-- Node41&#45;&gt;Node18 -->
<g id="edge57" class="edge"><title>Node41&#45;&gt;Node18</title>
<path fill="none" stroke="midnightblue" d="M1472.01,-171.985C1459.83,-170.665 1446.66,-169.258 1434.5,-168 1295.33,-153.603 1132.19,-137.797 1043.36,-129.28"/>
<polygon fill="midnightblue" stroke="midnightblue" points="1471.65,-175.466 1481.97,-173.069 1472.4,-168.508 1471.65,-175.466"/>
</g>
<!-- Node41&#45;&gt;Node21 -->
<g id="edge58" class="edge"><title>Node41&#45;&gt;Node21</title>
<path fill="none" stroke="midnightblue" d="M1517.4,-158.008C1516.22,-143.087 1511.98,-123.042 1498.5,-112 1463.73,-83.5229 1171.08,-72.1771 1040.26,-68.4977"/>
<polygon fill="midnightblue" stroke="midnightblue" points="1513.91,-158.335 1517.81,-168.186 1520.91,-158.054 1513.91,-158.335"/>
</g>
<!-- Node41&#45;&gt;Node27 -->
<g id="edge56" class="edge"><title>Node41&#45;&gt;Node27</title>
<path fill="none" stroke="midnightblue" d="M1498.67,-161.82C1486.66,-152.145 1471.53,-139.948 1461.46,-131.834"/>
<polygon fill="midnightblue" stroke="midnightblue" points="1496.75,-164.774 1506.74,-168.324 1501.15,-159.324 1496.75,-164.774"/>
</g>
<!-- Node43&#45;&gt;Node2 -->
<g id="edge65" class="edge"><title>Node43&#45;&gt;Node2</title>
<path fill="none" stroke="midnightblue" d="M978.015,-471.573C1001.63,-481.63 1031.9,-495.467 1049.5,-504.324"/>
<polygon fill="midnightblue" stroke="midnightblue" points="979.257,-468.299 968.682,-467.655 976.547,-474.753 979.257,-468.299"/>
</g>
<!-- Node43&#45;&gt;Node4 -->
<g id="edge64" class="edge"><title>Node43&#45;&gt;Node4</title>
<path fill="none" stroke="midnightblue" d="M963.054,-441.82C974.878,-432.145 989.786,-419.948 999.703,-411.834"/>
<polygon fill="midnightblue" stroke="midnightblue" points="960.627,-439.283 955.104,-448.324 965.06,-444.7 960.627,-439.283"/>
</g>
<!-- Node43&#45;&gt;Node7 -->
<g id="edge66" class="edge"><title>Node43&#45;&gt;Node7</title>
<path fill="none" stroke="midnightblue" d="M880.13,-455.902C747.164,-451.885 454.5,-433.248 454.5,-347 454.5,-347 454.5,-347 454.5,-289 454.5,-233.452 385.398,-201.551 344.639,-187.565"/>
<polygon fill="midnightblue" stroke="midnightblue" points="880.094,-459.402 890.189,-456.187 880.292,-452.405 880.094,-459.402"/>
</g>
<!-- Node43&#45;&gt;Node23 -->
<g id="edge70" class="edge"><title>Node43&#45;&gt;Node23</title>
<path fill="none" stroke="midnightblue" d="M947.767,-437.985C956.537,-393.069 984.965,-279.977 1056.5,-224 1079.97,-205.636 1111.67,-194.245 1136.88,-187.52"/>
<polygon fill="midnightblue" stroke="midnightblue" points="944.277,-437.614 945.908,-448.083 951.161,-438.882 944.277,-437.614"/>
</g>
<!-- Node44 -->
<g id="node44" class="node"><title>Node44</title>
<g id="a_node44"><a xlink:href="../../d1/d1f/ShiftRegisterOutRGB_8hpp.html" target="_top" xlink:title=" ">
<polygon fill="white" stroke="black" points="784.5,-392.5 784.5,-411.5 914.5,-411.5 914.5,-392.5 784.5,-392.5"/>
<text text-anchor="middle" x="849.5" y="-399.5" font-family="Helvetica,sans-Serif" font-size="10.00">ShiftRegisterOutRGB.hpp</text>
</a>
</g>
</g>
<!-- Node43&#45;&gt;Node44 -->
<g id="edge67" class="edge"><title>Node43&#45;&gt;Node44</title>
<path fill="none" stroke="midnightblue" d="M920.182,-443.177C902.701,-433.241 879.67,-420.149 864.726,-411.655"/>
<polygon fill="midnightblue" stroke="midnightblue" points="918.813,-446.425 929.237,-448.324 922.273,-440.339 918.813,-446.425"/>
</g>
<!-- Node44&#45;&gt;Node17 -->
<g id="edge68" class="edge"><title>Node44&#45;&gt;Node17</title>
<path fill="none" stroke="midnightblue" d="M823.641,-386.947C812.494,-379.383 800.628,-368.932 794.5,-356 790.694,-347.967 791.881,-344.494 794.5,-336 814.426,-271.383 871.053,-209.578 892.825,-187.517"/>
<polygon fill="midnightblue" stroke="midnightblue" points="821.972,-390.032 832.302,-392.386 825.695,-384.104 821.972,-390.032"/>
</g>
<!-- Node45 -->
<g id="node45" class="node"><title>Node45</title>
<g id="a_node45"><a xlink:href="../../db/d0b/ShiftRegisterOutRGB_8cpp.html" target="_top" xlink:title=" ">
<polygon fill="white" stroke="black" points="803.5,-336.5 803.5,-355.5 933.5,-355.5 933.5,-336.5 803.5,-336.5"/>
<text text-anchor="middle" x="868.5" y="-343.5" font-family="Helvetica,sans-Serif" font-size="10.00">ShiftRegisterOutRGB.cpp</text>
</a>
</g>
</g>
<!-- Node44&#45;&gt;Node45 -->
<g id="edge69" class="edge"><title>Node44&#45;&gt;Node45</title>
<path fill="none" stroke="midnightblue" d="M856.046,-382.396C859.224,-373.362 862.893,-362.936 865.421,-355.751"/>
<polygon fill="midnightblue" stroke="midnightblue" points="852.655,-381.488 852.637,-392.083 859.258,-383.812 852.655,-381.488"/>
</g>
</g>
</svg>
