<?xml version="1.0" encoding="UTF-8" standalone="no"?>
<!DOCTYPE svg PUBLIC "-//W3C//DTD SVG 1.1//EN"
 "http://www.w3.org/Graphics/SVG/1.1/DTD/svg11.dtd">
<!-- Generated by graphviz version 2.38.0 (20140413.2041)
 -->
<!-- Title: PrintStream.hpp Pages: 1 -->
<svg width="1505pt" height="532pt"
 viewBox="0.00 0.00 1505.13 532.00" xmlns="http://www.w3.org/2000/svg" xmlns:xlink="http://www.w3.org/1999/xlink">
<g id="graph0" class="graph" transform="scale(1 1) rotate(0) translate(4 528)">
<title>PrintStream.hpp</title>
<polygon fill="white" stroke="none" points="-4,4 -4,-528 1501.13,-528 1501.13,4 -4,4"/>
<!-- Node1 -->
<g id="node1" class="node"><title>Node1</title>
<g id="a_node1"><a xlink:title=" ">
<polygon fill="#bfbfbf" stroke="black" points="937.132,-504.5 937.132,-523.5 1024.13,-523.5 1024.13,-504.5 937.132,-504.5"/>
<text text-anchor="middle" x="980.632" y="-511.5" font-family="Helvetica,sans-Serif" font-size="10.00">PrintStream.hpp</text>
</a>
</g>
</g>
<!-- Node2 -->
<g id="node2" class="node"><title>Node2</title>
<g id="a_node2"><a xlink:href="../../d5/db6/ArrayHelpers_8hpp.html" target="_top" xlink:title=" ">
<polygon fill="white" stroke="black" points="738.632,-224.5 738.632,-243.5 830.632,-243.5 830.632,-224.5 738.632,-224.5"/>
<text text-anchor="middle" x="784.632" y="-231.5" font-family="Helvetica,sans-Serif" font-size="10.00">ArrayHelpers.hpp</text>
</a>
</g>
</g>
<!-- Node1&#45;&gt;Node2 -->
<g id="edge1" class="edge"><title>Node1&#45;&gt;Node2</title>
<path fill="none" stroke="midnightblue" d="M980.632,-494.251C980.632,-472.357 980.632,-435.052 980.632,-403 980.632,-403 980.632,-403 980.632,-345 980.632,-276.714 889.041,-250.385 831.081,-240.56"/>
<polygon fill="midnightblue" stroke="midnightblue" points="977.132,-494.442 980.632,-504.442 984.132,-494.442 977.132,-494.442"/>
</g>
<!-- Node14 -->
<g id="node14" class="node"><title>Node14</title>
<g id="a_node14"><a xlink:href="../../df/dee/Debug_8hpp.html" target="_top" xlink:title=" ">
<polygon fill="white" stroke="black" points="884.632,-448.5 884.632,-467.5 948.632,-467.5 948.632,-448.5 884.632,-448.5"/>
<text text-anchor="middle" x="916.632" y="-455.5" font-family="Helvetica,sans-Serif" font-size="10.00">Debug.hpp</text>
</a>
</g>
</g>
<!-- Node1&#45;&gt;Node14 -->
<g id="edge16" class="edge"><title>Node1&#45;&gt;Node14</title>
<path fill="none" stroke="midnightblue" d="M962.64,-497.82C951.174,-488.145 936.718,-475.948 927.101,-467.834"/>
<polygon fill="midnightblue" stroke="midnightblue" points="960.449,-500.55 970.349,-504.324 964.963,-495.2 960.449,-500.55"/>
</g>
<!-- Node47 -->
<g id="node47" class="node"><title>Node47</title>
<g id="a_node47"><a xlink:href="../../da/d69/PrintStream_8cpp.html" target="_top" xlink:title=" ">
<polygon fill="white" stroke="black" points="1009.13,-448.5 1009.13,-467.5 1096.13,-467.5 1096.13,-448.5 1009.13,-448.5"/>
<text text-anchor="middle" x="1052.63" y="-455.5" font-family="Helvetica,sans-Serif" font-size="10.00">PrintStream.cpp</text>
</a>
</g>
</g>
<!-- Node1&#45;&gt;Node47 -->
<g id="edge76" class="edge"><title>Node1&#45;&gt;Node47</title>
<path fill="none" stroke="midnightblue" d="M1000.5,-498.101C1013.46,-488.382 1029.93,-476.027 1040.85,-467.834"/>
<polygon fill="midnightblue" stroke="midnightblue" points="998.1,-495.524 992.2,-504.324 1002.3,-501.124 998.1,-495.524"/>
</g>
<!-- Node3 -->
<g id="node3" class="node"><title>Node3</title>
<g id="a_node3"><a xlink:href="../../d2/d05/StaticSizeExtendedIOElement_8hpp.html" target="_top" xlink:title=" ">
<polygon fill="white" stroke="black" points="606.632,-168.5 606.632,-187.5 774.632,-187.5 774.632,-168.5 606.632,-168.5"/>
<text text-anchor="middle" x="690.632" y="-175.5" font-family="Helvetica,sans-Serif" font-size="10.00">StaticSizeExtendedIOElement.hpp</text>
</a>
</g>
</g>
<!-- Node2&#45;&gt;Node3 -->
<g id="edge2" class="edge"><title>Node2&#45;&gt;Node3</title>
<path fill="none" stroke="midnightblue" d="M760.57,-219.177C743.273,-209.241 720.484,-196.149 705.697,-187.655"/>
<polygon fill="midnightblue" stroke="midnightblue" points="759.114,-222.378 769.529,-224.324 762.601,-216.308 759.114,-222.378"/>
</g>
<!-- Node12 -->
<g id="node12" class="node"><title>Node12</title>
<g id="a_node12"><a xlink:href="../../df/ddc/SOSFilter_8hpp.html" target="_top" xlink:title=" ">
<polygon fill="white" stroke="black" points="897.632,-168.5 897.632,-187.5 975.632,-187.5 975.632,-168.5 897.632,-168.5"/>
<text text-anchor="middle" x="936.632" y="-175.5" font-family="Helvetica,sans-Serif" font-size="10.00">SOSFilter.hpp</text>
</a>
</g>
</g>
<!-- Node2&#45;&gt;Node12 -->
<g id="edge14" class="edge"><title>Node2&#45;&gt;Node12</title>
<path fill="none" stroke="midnightblue" d="M818.299,-221.039C846.899,-210.879 887.244,-196.546 912.659,-187.516"/>
<polygon fill="midnightblue" stroke="midnightblue" points="816.968,-217.798 808.717,-224.444 819.311,-224.394 816.968,-217.798"/>
</g>
<!-- Node4 -->
<g id="node4" class="node"><title>Node4</title>
<g id="a_node4"><a xlink:href="../../d7/def/AnalogMultiplex_8hpp.html" target="_top" xlink:title=" ">
<polygon fill="white" stroke="black" points="847.632,-112.5 847.632,-131.5 951.632,-131.5 951.632,-112.5 847.632,-112.5"/>
<text text-anchor="middle" x="899.632" y="-119.5" font-family="Helvetica,sans-Serif" font-size="10.00">AnalogMultiplex.hpp</text>
</a>
</g>
</g>
<!-- Node3&#45;&gt;Node4 -->
<g id="edge3" class="edge"><title>Node3&#45;&gt;Node4</title>
<path fill="none" stroke="midnightblue" d="M733.616,-165.894C773.084,-155.697 830.731,-140.802 866.67,-131.516"/>
<polygon fill="midnightblue" stroke="midnightblue" points="732.555,-162.553 723.748,-168.444 734.306,-169.331 732.555,-162.553"/>
</g>
<!-- Node5 -->
<g id="node5" class="node"><title>Node5</title>
<g id="a_node5"><a xlink:href="../../d2/d25/MAX7219_8hpp.html" target="_top" xlink:title=" ">
<polygon fill="white" stroke="black" points="228.632,-56.5 228.632,-75.5 306.632,-75.5 306.632,-56.5 228.632,-56.5"/>
<text text-anchor="middle" x="267.632" y="-63.5" font-family="Helvetica,sans-Serif" font-size="10.00">MAX7219.hpp</text>
</a>
</g>
</g>
<!-- Node3&#45;&gt;Node5 -->
<g id="edge4" class="edge"><title>Node3&#45;&gt;Node5</title>
<path fill="none" stroke="midnightblue" d="M609.068,-167.226C522.27,-156.543 394.443,-139.898 372.632,-132 370.15,-131.101 309.309,-93.0941 281.397,-75.623"/>
<polygon fill="midnightblue" stroke="midnightblue" points="608.824,-170.722 619.175,-168.466 609.676,-163.774 608.824,-170.722"/>
</g>
<!-- Node6 -->
<g id="node6" class="node"><title>Node6</title>
<g id="a_node6"><a xlink:href="../../d8/d93/ShiftRegisterOutBase_8hpp.html" target="_top" xlink:title=" ">
<polygon fill="white" stroke="black" points="660.132,-112.5 660.132,-131.5 791.132,-131.5 791.132,-112.5 660.132,-112.5"/>
<text text-anchor="middle" x="725.632" y="-119.5" font-family="Helvetica,sans-Serif" font-size="10.00">ShiftRegisterOutBase.hpp</text>
</a>
</g>
</g>
<!-- Node3&#45;&gt;Node6 -->
<g id="edge5" class="edge"><title>Node3&#45;&gt;Node6</title>
<path fill="none" stroke="midnightblue" d="M701.932,-159.566C707.954,-150.275 715.1,-139.248 719.96,-131.751"/>
<polygon fill="midnightblue" stroke="midnightblue" points="698.913,-157.788 696.411,-168.083 704.787,-161.595 698.913,-157.788"/>
</g>
<!-- Node7 -->
<g id="node7" class="node"><title>Node7</title>
<g id="a_node7"><a xlink:href="../../d0/db4/ShiftRegisterOut_8hpp.html" target="_top" xlink:title=" ">
<polygon fill="white" stroke="black" points="844.632,-56.5 844.632,-75.5 952.632,-75.5 952.632,-56.5 844.632,-56.5"/>
<text text-anchor="middle" x="898.632" y="-63.5" font-family="Helvetica,sans-Serif" font-size="10.00">ShiftRegisterOut.hpp</text>
</a>
</g>
</g>
<!-- Node6&#45;&gt;Node7 -->
<g id="edge6" class="edge"><title>Node6&#45;&gt;Node7</title>
<path fill="none" stroke="midnightblue" d="M762.678,-109.436C795.296,-99.2551 842.041,-84.664 871.348,-75.5164"/>
<polygon fill="midnightblue" stroke="midnightblue" points="761.547,-106.123 753.044,-112.444 763.633,-112.805 761.547,-106.123"/>
</g>
<!-- Node9 -->
<g id="node9" class="node"><title>Node9</title>
<g id="a_node9"><a xlink:href="../../d5/d47/ShiftRegisterOutBase_8ipp.html" target="_top" xlink:title=" ">
<polygon fill="white" stroke="black" points="970.632,-56.5 970.632,-75.5 1098.63,-75.5 1098.63,-56.5 970.632,-56.5"/>
<text text-anchor="middle" x="1034.63" y="-63.5" font-family="Helvetica,sans-Serif" font-size="10.00">ShiftRegisterOutBase.ipp</text>
</a>
</g>
</g>
<!-- Node6&#45;&gt;Node9 -->
<g id="edge9" class="edge"><title>Node6&#45;&gt;Node9</title>
<path fill="none" stroke="midnightblue" d="M779.683,-110.601C836.237,-100.395 924.35,-85.0189 980.819,-75.5164"/>
<polygon fill="midnightblue" stroke="midnightblue" points="778.721,-107.218 769.505,-112.444 779.968,-114.106 778.721,-107.218"/>
</g>
<!-- Node10 -->
<g id="node10" class="node"><title>Node10</title>
<g id="a_node10"><a xlink:href="../../d7/d88/SPIShiftRegisterOut_8hpp.html" target="_top" xlink:title=" ">
<polygon fill="white" stroke="black" points="663.132,-56.5 663.132,-75.5 788.132,-75.5 788.132,-56.5 663.132,-56.5"/>
<text text-anchor="middle" x="725.632" y="-63.5" font-family="Helvetica,sans-Serif" font-size="10.00">SPIShiftRegisterOut.hpp</text>
</a>
</g>
</g>
<!-- Node6&#45;&gt;Node10 -->
<g id="edge11" class="edge"><title>Node6&#45;&gt;Node10</title>
<path fill="none" stroke="midnightblue" d="M725.632,-101.805C725.632,-92.9102 725.632,-82.7798 725.632,-75.7511"/>
<polygon fill="midnightblue" stroke="midnightblue" points="722.132,-102.083 725.632,-112.083 729.132,-102.083 722.132,-102.083"/>
</g>
<!-- Node8 -->
<g id="node8" class="node"><title>Node8</title>
<g id="a_node8"><a xlink:href="../../de/d95/ShiftRegisterOut_8ipp.html" target="_top" xlink:title=" ">
<polygon fill="white" stroke="black" points="846.132,-0.5 846.132,-19.5 951.132,-19.5 951.132,-0.5 846.132,-0.5"/>
<text text-anchor="middle" x="898.632" y="-7.5" font-family="Helvetica,sans-Serif" font-size="10.00">ShiftRegisterOut.ipp</text>
</a>
</g>
</g>
<!-- Node7&#45;&gt;Node8 -->
<g id="edge7" class="edge"><title>Node7&#45;&gt;Node8</title>
<path fill="none" stroke="midnightblue" d="M892.159,-46.1005C891.527,-37.1357 891.974,-26.8579 893.501,-19.7511"/>
<polygon fill="midnightblue" stroke="midnightblue" points="888.698,-46.6216 893.465,-56.083 895.638,-45.7134 888.698,-46.6216"/>
</g>
<!-- Node8&#45;&gt;Node7 -->
<g id="edge8" class="edge"><title>Node8&#45;&gt;Node7</title>
<path fill="none" stroke="midnightblue" d="M905.089,-29.6911C905.738,-38.6353 905.308,-48.9272 903.798,-56.083"/>
<polygon fill="midnightblue" stroke="midnightblue" points="908.555,-29.2002 903.763,-19.7511 901.616,-30.1262 908.555,-29.2002"/>
</g>
<!-- Node9&#45;&gt;Node6 -->
<g id="edge10" class="edge"><title>Node9&#45;&gt;Node6</title>
<path fill="none" stroke="midnightblue" d="M980.818,-77.3563C924.352,-87.5472 836.24,-102.925 779.682,-112.444"/>
<polygon fill="midnightblue" stroke="midnightblue" points="981.762,-80.7424 990.979,-75.5164 980.515,-73.8544 981.762,-80.7424"/>
</g>
<!-- Node11 -->
<g id="node11" class="node"><title>Node11</title>
<g id="a_node11"><a xlink:href="../../da/d45/SPIShiftRegisterOut_8ipp.html" target="_top" xlink:title=" ">
<polygon fill="white" stroke="black" points="664.632,-0.5 664.632,-19.5 786.632,-19.5 786.632,-0.5 664.632,-0.5"/>
<text text-anchor="middle" x="725.632" y="-7.5" font-family="Helvetica,sans-Serif" font-size="10.00">SPIShiftRegisterOut.ipp</text>
</a>
</g>
</g>
<!-- Node10&#45;&gt;Node11 -->
<g id="edge12" class="edge"><title>Node10&#45;&gt;Node11</title>
<path fill="none" stroke="midnightblue" d="M719.159,-46.1005C718.527,-37.1357 718.974,-26.8579 720.501,-19.7511"/>
<polygon fill="midnightblue" stroke="midnightblue" points="715.698,-46.6216 720.465,-56.083 722.638,-45.7134 715.698,-46.6216"/>
</g>
<!-- Node11&#45;&gt;Node10 -->
<g id="edge13" class="edge"><title>Node11&#45;&gt;Node10</title>
<path fill="none" stroke="midnightblue" d="M732.089,-29.6911C732.738,-38.6353 732.308,-48.9272 730.798,-56.083"/>
<polygon fill="midnightblue" stroke="midnightblue" points="735.555,-29.2002 730.763,-19.7511 728.616,-30.1262 735.555,-29.2002"/>
</g>
<!-- Node13 -->
<g id="node13" class="node"><title>Node13</title>
<g id="a_node13"><a xlink:href="../../d4/d40/Butterworth_8hpp.html" target="_top" xlink:title=" ">
<polygon fill="white" stroke="black" points="1085.63,-112.5 1085.63,-131.5 1171.63,-131.5 1171.63,-112.5 1085.63,-112.5"/>
<text text-anchor="middle" x="1128.63" y="-119.5" font-family="Helvetica,sans-Serif" font-size="10.00">Butterworth.hpp</text>
</a>
</g>
</g>
<!-- Node12&#45;&gt;Node13 -->
<g id="edge15" class="edge"><title>Node12&#45;&gt;Node13</title>
<path fill="none" stroke="midnightblue" d="M976.814,-165.699C1013.05,-155.507 1065.55,-140.743 1098.35,-131.516"/>
<polygon fill="midnightblue" stroke="midnightblue" points="975.734,-162.367 967.055,-168.444 977.629,-169.105 975.734,-162.367"/>
</g>
<!-- Node15 -->
<g id="node15" class="node"><title>Node15</title>
<g id="a_node15"><a xlink:href="../../de/dd1/LinkedList_8hpp.html" target="_top" xlink:title=" ">
<polygon fill="white" stroke="black" points="872.632,-392.5 872.632,-411.5 952.632,-411.5 952.632,-392.5 872.632,-392.5"/>
<text text-anchor="middle" x="912.632" y="-399.5" font-family="Helvetica,sans-Serif" font-size="10.00">LinkedList.hpp</text>
</a>
</g>
</g>
<!-- Node14&#45;&gt;Node15 -->
<g id="edge17" class="edge"><title>Node14&#45;&gt;Node15</title>
<path fill="none" stroke="midnightblue" d="M915.232,-438.101C914.568,-429.136 913.806,-418.858 913.28,-411.751"/>
<polygon fill="midnightblue" stroke="midnightblue" points="911.742,-438.369 915.971,-448.083 918.723,-437.852 911.742,-438.369"/>
</g>
<!-- Node34 -->
<g id="node34" class="node"><title>Node34</title>
<g id="a_node34"><a xlink:href="../../df/d66/Debug_8cpp.html" target="_top" xlink:title=" ">
<polygon fill="white" stroke="black" points="790.632,-392.5 790.632,-411.5 854.632,-411.5 854.632,-392.5 790.632,-392.5"/>
<text text-anchor="middle" x="822.632" y="-399.5" font-family="Helvetica,sans-Serif" font-size="10.00">Debug.cpp</text>
</a>
</g>
</g>
<!-- Node14&#45;&gt;Node34 -->
<g id="edge44" class="edge"><title>Node14&#45;&gt;Node34</title>
<path fill="none" stroke="midnightblue" d="M892.57,-443.177C875.273,-433.241 852.484,-420.149 837.697,-411.655"/>
<polygon fill="midnightblue" stroke="midnightblue" points="891.114,-446.378 901.529,-448.324 894.601,-440.308 891.114,-446.378"/>
</g>
<!-- Node35 -->
<g id="node35" class="node"><title>Node35</title>
<g id="a_node35"><a xlink:href="../../d1/d93/Error_8hpp.html" target="_top" xlink:title=" ">
<polygon fill="white" stroke="black" points="378.632,-392.5 378.632,-411.5 434.632,-411.5 434.632,-392.5 378.632,-392.5"/>
<text text-anchor="middle" x="406.632" y="-399.5" font-family="Helvetica,sans-Serif" font-size="10.00">Error.hpp</text>
</a>
</g>
</g>
<!-- Node14&#45;&gt;Node35 -->
<g id="edge45" class="edge"><title>Node14&#45;&gt;Node35</title>
<path fill="none" stroke="midnightblue" d="M874.177,-452.505C772.903,-441.782 519.303,-414.93 434.643,-405.966"/>
<polygon fill="midnightblue" stroke="midnightblue" points="874.029,-456.009 884.342,-453.581 874.766,-449.048 874.029,-456.009"/>
</g>
<!-- Node44 -->
<g id="node44" class="node"><title>Node44</title>
<g id="a_node44"><a xlink:href="../../d2/dd5/SettingsWrapper_8hpp.html" target="_top" xlink:title=" ">
<polygon fill="white" stroke="black" points="1008.63,-392.5 1008.63,-411.5 1116.63,-411.5 1116.63,-392.5 1008.63,-392.5"/>
<text text-anchor="middle" x="1062.63" y="-399.5" font-family="Helvetica,sans-Serif" font-size="10.00">SettingsWrapper.hpp</text>
</a>
</g>
</g>
<!-- Node14&#45;&gt;Node44 -->
<g id="edge68" class="edge"><title>Node14&#45;&gt;Node44</title>
<path fill="none" stroke="midnightblue" d="M944.279,-444.638C970.179,-434.504 1008.47,-420.427 1034.53,-411.516"/>
<polygon fill="midnightblue" stroke="midnightblue" points="942.684,-441.505 934.677,-448.444 945.263,-448.012 942.684,-441.505"/>
</g>
<!-- Node16 -->
<g id="node16" class="node"><title>Node16</title>
<g id="a_node16"><a xlink:href="../../d4/d93/Updatable_8hpp.html" target="_top" xlink:title=" ">
<polygon fill="white" stroke="black" points="872.632,-336.5 872.632,-355.5 952.632,-355.5 952.632,-336.5 872.632,-336.5"/>
<text text-anchor="middle" x="912.632" y="-343.5" font-family="Helvetica,sans-Serif" font-size="10.00">Updatable.hpp</text>
</a>
</g>
</g>
<!-- Node15&#45;&gt;Node16 -->
<g id="edge18" class="edge"><title>Node15&#45;&gt;Node16</title>
<path fill="none" stroke="midnightblue" d="M912.632,-381.805C912.632,-372.91 912.632,-362.78 912.632,-355.751"/>
<polygon fill="midnightblue" stroke="midnightblue" points="909.132,-382.083 912.632,-392.083 916.132,-382.083 909.132,-382.083"/>
</g>
<!-- Node17 -->
<g id="node17" class="node"><title>Node17</title>
<g id="a_node17"><a xlink:href="../../d4/d57/ExtendedIOElement_8hpp.html" target="_top" xlink:title=" ">
<polygon fill="white" stroke="black" points="449.132,-224.5 449.132,-243.5 572.132,-243.5 572.132,-224.5 449.132,-224.5"/>
<text text-anchor="middle" x="510.632" y="-231.5" font-family="Helvetica,sans-Serif" font-size="10.00">ExtendedIOElement.hpp</text>
</a>
</g>
</g>
<!-- Node15&#45;&gt;Node17 -->
<g id="edge19" class="edge"><title>Node15&#45;&gt;Node17</title>
<path fill="none" stroke="midnightblue" d="M862.654,-391.953C679.902,-364.006 569.413,-444.664 463.632,-300 448.918,-279.878 477.759,-256.117 496.44,-243.643"/>
<polygon fill="midnightblue" stroke="midnightblue" points="862.101,-395.409 872.533,-393.56 863.225,-388.5 862.101,-395.409"/>
</g>
<!-- Node17&#45;&gt;Node3 -->
<g id="edge41" class="edge"><title>Node17&#45;&gt;Node3</title>
<path fill="none" stroke="midnightblue" d="M548.739,-221.568C582.695,-211.381 631.62,-196.703 662.244,-187.516"/>
<polygon fill="midnightblue" stroke="midnightblue" points="547.726,-218.218 539.153,-224.444 549.737,-224.922 547.726,-218.218"/>
</g>
<!-- Node18 -->
<g id="node18" class="node"><title>Node18</title>
<g id="a_node18"><a xlink:href="../../dd/ddf/ExtendedInputOutput_8hpp.html" target="_top" xlink:title=" ">
<polygon fill="white" stroke="black" points="460.632,-168.5 460.632,-187.5 588.632,-187.5 588.632,-168.5 460.632,-168.5"/>
<text text-anchor="middle" x="524.632" y="-175.5" font-family="Helvetica,sans-Serif" font-size="10.00">ExtendedInputOutput.hpp</text>
</a>
</g>
</g>
<!-- Node17&#45;&gt;Node18 -->
<g id="edge20" class="edge"><title>Node17&#45;&gt;Node18</title>
<path fill="none" stroke="midnightblue" d="M515.455,-214.396C517.797,-205.362 520.5,-194.936 522.363,-187.751"/>
<polygon fill="midnightblue" stroke="midnightblue" points="512.065,-213.525 512.943,-224.083 518.841,-215.281 512.065,-213.525"/>
</g>
<!-- Node27 -->
<g id="node27" class="node"><title>Node27</title>
<g id="a_node27"><a xlink:href="../../d6/d3c/ExtendedInputOutput_8cpp.html" target="_top" xlink:title=" ">
<polygon fill="white" stroke="black" points="15.6317,-112.5 15.6317,-131.5 143.632,-131.5 143.632,-112.5 15.6317,-112.5"/>
<text text-anchor="middle" x="79.6317" y="-119.5" font-family="Helvetica,sans-Serif" font-size="10.00">ExtendedInputOutput.cpp</text>
</a>
</g>
</g>
<!-- Node17&#45;&gt;Node27 -->
<g id="edge42" class="edge"><title>Node17&#45;&gt;Node27</title>
<path fill="none" stroke="midnightblue" d="M471.029,-221.62C424.072,-208.248 343.379,-185.646 273.632,-168 220.002,-154.431 157.628,-140.245 118.389,-131.514"/>
<polygon fill="midnightblue" stroke="midnightblue" points="470.226,-225.031 480.802,-224.409 472.147,-218.299 470.226,-225.031"/>
</g>
<!-- Node33 -->
<g id="node33" class="node"><title>Node33</title>
<g id="a_node33"><a xlink:href="../../da/d1f/ExtendedIOElement_8cpp.html" target="_top" xlink:title=" ">
<polygon fill="white" stroke="black" points="108.132,-168.5 108.132,-187.5 231.132,-187.5 231.132,-168.5 108.132,-168.5"/>
<text text-anchor="middle" x="169.632" y="-175.5" font-family="Helvetica,sans-Serif" font-size="10.00">ExtendedIOElement.cpp</text>
</a>
</g>
</g>
<!-- Node17&#45;&gt;Node33 -->
<g id="edge43" class="edge"><title>Node17&#45;&gt;Node33</title>
<path fill="none" stroke="midnightblue" d="M446.56,-222.854C382.131,-212.651 283.916,-197.098 223.411,-187.516"/>
<polygon fill="midnightblue" stroke="midnightblue" points="446.175,-226.336 456.599,-224.444 447.27,-219.422 446.175,-226.336"/>
</g>
<!-- Node18&#45;&gt;Node4 -->
<g id="edge30" class="edge"><title>Node18&#45;&gt;Node4</title>
<path fill="none" stroke="midnightblue" d="M594.122,-166.993C667.469,-156.431 781.407,-140.024 847.441,-130.515"/>
<polygon fill="midnightblue" stroke="midnightblue" points="593.451,-163.554 584.052,-168.444 594.448,-170.482 593.451,-163.554"/>
</g>
<!-- Node18&#45;&gt;Node8 -->
<g id="edge33" class="edge"><title>Node18&#45;&gt;Node8</title>
<path fill="none" stroke="midnightblue" d="M550.48,-163.47C585.824,-144.997 645.471,-113.937 650.632,-112 713.203,-88.5187 735.194,-102.306 796.632,-76 832.343,-60.7094 869.708,-33.5734 887.687,-19.6976"/>
<polygon fill="midnightblue" stroke="midnightblue" points="548.461,-160.576 541.221,-168.311 551.704,-166.779 548.461,-160.576"/>
</g>
<!-- Node18&#45;&gt;Node9 -->
<g id="edge32" class="edge"><title>Node18&#45;&gt;Node9</title>
<path fill="none" stroke="midnightblue" d="M599.163,-167.459C667.503,-158.229 763.408,-143.925 799.632,-132 818.135,-125.909 820.331,-118.675 838.632,-112 885.535,-94.8915 941.195,-82.8552 981.195,-75.5628"/>
<polygon fill="midnightblue" stroke="midnightblue" points="598.315,-164.041 588.868,-168.839 599.245,-170.979 598.315,-164.041"/>
</g>
<!-- Node18&#45;&gt;Node11 -->
<g id="edge34" class="edge"><title>Node18&#45;&gt;Node11</title>
<path fill="none" stroke="midnightblue" d="M466.425,-166.382C428.813,-158.715 379.135,-147.067 336.632,-132 278.188,-111.282 177.773,-101.747 219.632,-56 249.139,-23.7516 536.402,-14.4632 664.505,-11.9136"/>
<polygon fill="midnightblue" stroke="midnightblue" points="466.205,-169.907 476.697,-168.438 467.579,-163.043 466.205,-169.907"/>
</g>
<!-- Node19 -->
<g id="node19" class="node"><title>Node19</title>
<g id="a_node19"><a xlink:href="../../d4/db3/Button_8hpp.html" target="_top" xlink:title=" ">
<polygon fill="white" stroke="black" points="1232.63,-112.5 1232.63,-131.5 1296.63,-131.5 1296.63,-112.5 1232.63,-112.5"/>
<text text-anchor="middle" x="1264.63" y="-119.5" font-family="Helvetica,sans-Serif" font-size="10.00">Button.hpp</text>
</a>
</g>
</g>
<!-- Node18&#45;&gt;Node19 -->
<g id="edge21" class="edge"><title>Node18&#45;&gt;Node19</title>
<path fill="none" stroke="midnightblue" d="M598.791,-167.95C857.836,-144.348 925.231,-153.557 1180.63,-132 1197.73,-130.557 1216.75,-128.553 1232.35,-126.802"/>
<polygon fill="midnightblue" stroke="midnightblue" points="598.34,-164.476 588.702,-168.877 598.98,-171.447 598.34,-164.476"/>
</g>
<!-- Node25 -->
<g id="node25" class="node"><title>Node25</title>
<g id="a_node25"><a xlink:href="../../d5/d41/ButtonMatrix_8ipp.html" target="_top" xlink:title=" ">
<polygon fill="white" stroke="black" points="161.632,-112.5 161.632,-131.5 249.632,-131.5 249.632,-112.5 161.632,-112.5"/>
<text text-anchor="middle" x="205.632" y="-119.5" font-family="Helvetica,sans-Serif" font-size="10.00">ButtonMatrix.ipp</text>
</a>
</g>
</g>
<!-- Node18&#45;&gt;Node25 -->
<g id="edge27" class="edge"><title>Node18&#45;&gt;Node25</title>
<path fill="none" stroke="midnightblue" d="M463.965,-166.73C401.433,-156.145 305.45,-139.897 249.778,-130.473"/>
<polygon fill="midnightblue" stroke="midnightblue" points="463.641,-170.225 474.085,-168.444 464.81,-163.324 463.641,-170.225"/>
</g>
<!-- Node18&#45;&gt;Node27 -->
<g id="edge31" class="edge"><title>Node18&#45;&gt;Node27</title>
<path fill="none" stroke="midnightblue" d="M450.229,-167.952C316.516,-151.755 281.823,-147.767 152.632,-132 149.716,-131.644 146.736,-131.28 143.725,-130.911"/>
<polygon fill="midnightblue" stroke="midnightblue" points="450.108,-171.463 460.457,-169.192 450.95,-164.514 450.108,-171.463"/>
</g>
<!-- Node28 -->
<g id="node28" class="node"><title>Node28</title>
<g id="a_node28"><a xlink:href="../../d8/df3/FilteredAnalog_8hpp.html" target="_top" xlink:title=" ">
<polygon fill="white" stroke="black" points="969.632,-112.5 969.632,-131.5 1067.63,-131.5 1067.63,-112.5 969.632,-112.5"/>
<text text-anchor="middle" x="1018.63" y="-119.5" font-family="Helvetica,sans-Serif" font-size="10.00">FilteredAnalog.hpp</text>
</a>
</g>
</g>
<!-- Node18&#45;&gt;Node28 -->
<g id="edge35" class="edge"><title>Node18&#45;&gt;Node28</title>
<path fill="none" stroke="midnightblue" d="M599.017,-167.873C760.497,-150.167 803.099,-152.019 960.632,-132 963.563,-131.627 966.575,-131.224 969.611,-130.801"/>
<polygon fill="midnightblue" stroke="midnightblue" points="598.271,-164.434 588.716,-169.012 599.04,-171.392 598.271,-164.434"/>
</g>
<!-- Node29 -->
<g id="node29" class="node"><title>Node29</title>
<g id="a_node29"><a xlink:href="../../d9/d4f/LEDs_8hpp.html" target="_top" xlink:title=" ">
<polygon fill="white" stroke="black" points="505.632,-112.5 505.632,-131.5 565.632,-131.5 565.632,-112.5 505.632,-112.5"/>
<text text-anchor="middle" x="535.632" y="-119.5" font-family="Helvetica,sans-Serif" font-size="10.00">LEDs.hpp</text>
</a>
</g>
</g>
<!-- Node18&#45;&gt;Node29 -->
<g id="edge36" class="edge"><title>Node18&#45;&gt;Node29</title>
<path fill="none" stroke="midnightblue" d="M528.482,-158.101C530.308,-149.136 532.401,-138.858 533.849,-131.751"/>
<polygon fill="midnightblue" stroke="midnightblue" points="525.015,-157.586 526.448,-168.083 531.874,-158.983 525.015,-157.586"/>
</g>
<!-- Node31 -->
<g id="node31" class="node"><title>Node31</title>
<g id="a_node31"><a xlink:href="../../d7/d13/MAX7219__Base_8hpp.html" target="_top" xlink:title=" ">
<polygon fill="white" stroke="black" points="381.632,-112.5 381.632,-131.5 487.632,-131.5 487.632,-112.5 381.632,-112.5"/>
<text text-anchor="middle" x="434.632" y="-119.5" font-family="Helvetica,sans-Serif" font-size="10.00">MAX7219_Base.hpp</text>
</a>
</g>
</g>
<!-- Node18&#45;&gt;Node31 -->
<g id="edge38" class="edge"><title>Node18&#45;&gt;Node31</title>
<path fill="none" stroke="midnightblue" d="M501.594,-163.177C485.033,-153.241 463.214,-140.149 449.056,-131.655"/>
<polygon fill="midnightblue" stroke="midnightblue" points="499.796,-166.18 510.172,-168.324 503.397,-160.178 499.796,-166.18"/>
</g>
<!-- Node20 -->
<g id="node20" class="node"><title>Node20</title>
<g id="a_node20"><a xlink:href="../../de/dd1/Button_8cpp.html" target="_top" xlink:title=" ">
<polygon fill="white" stroke="black" points="1128.63,-56.5 1128.63,-75.5 1192.63,-75.5 1192.63,-56.5 1128.63,-56.5"/>
<text text-anchor="middle" x="1160.63" y="-63.5" font-family="Helvetica,sans-Serif" font-size="10.00">Button.cpp</text>
</a>
</g>
</g>
<!-- Node19&#45;&gt;Node20 -->
<g id="edge22" class="edge"><title>Node19&#45;&gt;Node20</title>
<path fill="none" stroke="midnightblue" d="M1238.8,-107.59C1219.58,-97.6052 1193.89,-84.2672 1177.3,-75.6545"/>
<polygon fill="midnightblue" stroke="midnightblue" points="1237.43,-110.822 1247.92,-112.324 1240.66,-104.61 1237.43,-110.822"/>
</g>
<!-- Node21 -->
<g id="node21" class="node"><title>Node21</title>
<g id="a_node21"><a xlink:href="../../d5/d04/IncrementButton_8hpp.html" target="_top" xlink:title=" ">
<polygon fill="white" stroke="black" points="1211.13,-56.5 1211.13,-75.5 1318.13,-75.5 1318.13,-56.5 1211.13,-56.5"/>
<text text-anchor="middle" x="1264.63" y="-63.5" font-family="Helvetica,sans-Serif" font-size="10.00">IncrementButton.hpp</text>
</a>
</g>
</g>
<!-- Node19&#45;&gt;Node21 -->
<g id="edge23" class="edge"><title>Node19&#45;&gt;Node21</title>
<path fill="none" stroke="midnightblue" d="M1264.63,-101.805C1264.63,-92.9102 1264.63,-82.7798 1264.63,-75.7511"/>
<polygon fill="midnightblue" stroke="midnightblue" points="1261.13,-102.083 1264.63,-112.083 1268.13,-102.083 1261.13,-102.083"/>
</g>
<!-- Node23 -->
<g id="node23" class="node"><title>Node23</title>
<g id="a_node23"><a xlink:href="../../df/df5/IncrementDecrementButtons_8hpp.html" target="_top" xlink:title=" ">
<polygon fill="white" stroke="black" points="1336.13,-56.5 1336.13,-75.5 1497.13,-75.5 1497.13,-56.5 1336.13,-56.5"/>
<text text-anchor="middle" x="1416.63" y="-63.5" font-family="Helvetica,sans-Serif" font-size="10.00">IncrementDecrementButtons.hpp</text>
</a>
</g>
</g>
<!-- Node19&#45;&gt;Node23 -->
<g id="edge25" class="edge"><title>Node19&#45;&gt;Node23</title>
<path fill="none" stroke="midnightblue" d="M1298.3,-109.039C1326.9,-98.8786 1367.24,-84.5457 1392.66,-75.5164"/>
<polygon fill="midnightblue" stroke="midnightblue" points="1296.97,-105.798 1288.72,-112.444 1299.31,-112.394 1296.97,-105.798"/>
</g>
<!-- Node22 -->
<g id="node22" class="node"><title>Node22</title>
<g id="a_node22"><a xlink:href="../../db/d9d/IncrementButton_8cpp.html" target="_top" xlink:title=" ">
<polygon fill="white" stroke="black" points="1211.13,-0.5 1211.13,-19.5 1318.13,-19.5 1318.13,-0.5 1211.13,-0.5"/>
<text text-anchor="middle" x="1264.63" y="-7.5" font-family="Helvetica,sans-Serif" font-size="10.00">IncrementButton.cpp</text>
</a>
</g>
</g>
<!-- Node21&#45;&gt;Node22 -->
<g id="edge24" class="edge"><title>Node21&#45;&gt;Node22</title>
<path fill="none" stroke="midnightblue" d="M1264.63,-45.8045C1264.63,-36.9102 1264.63,-26.7798 1264.63,-19.7511"/>
<polygon fill="midnightblue" stroke="midnightblue" points="1261.13,-46.083 1264.63,-56.083 1268.13,-46.083 1261.13,-46.083"/>
</g>
<!-- Node24 -->
<g id="node24" class="node"><title>Node24</title>
<g id="a_node24"><a xlink:href="../../da/d66/IncrementDecrementButtons_8cpp.html" target="_top" xlink:title=" ">
<polygon fill="white" stroke="black" points="1336.13,-0.5 1336.13,-19.5 1497.13,-19.5 1497.13,-0.5 1336.13,-0.5"/>
<text text-anchor="middle" x="1416.63" y="-7.5" font-family="Helvetica,sans-Serif" font-size="10.00">IncrementDecrementButtons.cpp</text>
</a>
</g>
</g>
<!-- Node23&#45;&gt;Node24 -->
<g id="edge26" class="edge"><title>Node23&#45;&gt;Node24</title>
<path fill="none" stroke="midnightblue" d="M1416.63,-45.8045C1416.63,-36.9102 1416.63,-26.7798 1416.63,-19.7511"/>
<polygon fill="midnightblue" stroke="midnightblue" points="1413.13,-46.083 1416.63,-56.083 1420.13,-46.083 1413.13,-46.083"/>
</g>
<!-- Node26 -->
<g id="node26" class="node"><title>Node26</title>
<g id="a_node26"><a xlink:href="../../d9/d4b/ButtonMatrix_8hpp.html" target="_top" xlink:title=" ">
<polygon fill="white" stroke="black" points="81.1317,-56.5 81.1317,-75.5 172.132,-75.5 172.132,-56.5 81.1317,-56.5"/>
<text text-anchor="middle" x="126.632" y="-63.5" font-family="Helvetica,sans-Serif" font-size="10.00">ButtonMatrix.hpp</text>
</a>
</g>
</g>
<!-- Node25&#45;&gt;Node26 -->
<g id="edge28" class="edge"><title>Node25&#45;&gt;Node26</title>
<path fill="none" stroke="midnightblue" d="M179.047,-106.935C163.436,-97.0987 144.944,-84.2633 134.407,-75.8339"/>
<polygon fill="midnightblue" stroke="midnightblue" points="177.471,-110.074 187.824,-112.324 181.133,-104.109 177.471,-110.074"/>
</g>
<!-- Node26&#45;&gt;Node25 -->
<g id="edge29" class="edge"><title>Node26&#45;&gt;Node25</title>
<path fill="none" stroke="midnightblue" d="M153.231,-81.0741C168.937,-90.9709 187.554,-103.9 198.054,-112.324"/>
<polygon fill="midnightblue" stroke="midnightblue" points="154.756,-77.9038 144.403,-75.6545 151.094,-83.8693 154.756,-77.9038"/>
</g>
<!-- Node30 -->
<g id="node30" class="node"><title>Node30</title>
<g id="a_node30"><a xlink:href="../../d6/d3a/DotBarDisplayLEDs_8hpp.html" target="_top" xlink:title=" ">
<polygon fill="white" stroke="black" points="520.632,-56.5 520.632,-75.5 644.632,-75.5 644.632,-56.5 520.632,-56.5"/>
<text text-anchor="middle" x="582.632" y="-63.5" font-family="Helvetica,sans-Serif" font-size="10.00">DotBarDisplayLEDs.hpp</text>
</a>
</g>
</g>
<!-- Node29&#45;&gt;Node30 -->
<g id="edge37" class="edge"><title>Node29&#45;&gt;Node30</title>
<path fill="none" stroke="midnightblue" d="M550.053,-104.431C558.29,-94.9673 568.286,-83.4827 575.015,-75.7511"/>
<polygon fill="midnightblue" stroke="midnightblue" points="547.318,-102.242 543.393,-112.083 552.598,-106.838 547.318,-102.242"/>
</g>
<!-- Node31&#45;&gt;Node5 -->
<g id="edge39" class="edge"><title>Node31&#45;&gt;Node5</title>
<path fill="none" stroke="midnightblue" d="M398.462,-109.304C366.995,-99.1294 322.137,-84.6246 293.97,-75.5164"/>
<polygon fill="midnightblue" stroke="midnightblue" points="397.578,-112.697 408.17,-112.444 399.732,-106.037 397.578,-112.697"/>
</g>
<!-- Node32 -->
<g id="node32" class="node"><title>Node32</title>
<g id="a_node32"><a xlink:href="../../d5/d0c/MAX7219SevenSegmentDisplay_8hpp.html" target="_top" xlink:title=" ">
<polygon fill="white" stroke="black" points="324.632,-56.5 324.632,-75.5 502.632,-75.5 502.632,-56.5 324.632,-56.5"/>
<text text-anchor="middle" x="413.632" y="-63.5" font-family="Helvetica,sans-Serif" font-size="10.00">MAX7219SevenSegmentDisplay.hpp</text>
</a>
</g>
</g>
<!-- Node31&#45;&gt;Node32 -->
<g id="edge40" class="edge"><title>Node31&#45;&gt;Node32</title>
<path fill="none" stroke="midnightblue" d="M427.511,-102.69C423.972,-93.589 419.859,-83.0141 417.035,-75.7511"/>
<polygon fill="midnightblue" stroke="midnightblue" points="424.277,-104.032 431.164,-112.083 430.801,-101.494 424.277,-104.032"/>
</g>
<!-- Node35&#45;&gt;Node16 -->
<g id="edge64" class="edge"><title>Node35&#45;&gt;Node16</title>
<path fill="none" stroke="midnightblue" d="M445.065,-396.898C538.538,-386.923 777.063,-361.468 872.383,-351.295"/>
<polygon fill="midnightblue" stroke="midnightblue" points="444.493,-393.44 434.921,-397.981 445.236,-400.4 444.493,-393.44"/>
</g>
<!-- Node35&#45;&gt;Node27 -->
<g id="edge66" class="edge"><title>Node35&#45;&gt;Node27</title>
<path fill="none" stroke="midnightblue" d="M368.29,-396.346C281.924,-384.794 79.6317,-351.302 79.6317,-291 79.6317,-291 79.6317,-291 79.6317,-233 79.6317,-195.188 79.6317,-150.064 79.6317,-131.558"/>
<polygon fill="midnightblue" stroke="midnightblue" points="368.099,-399.851 378.469,-397.677 369.007,-392.91 368.099,-399.851"/>
</g>
<!-- Node35&#45;&gt;Node33 -->
<g id="edge67" class="edge"><title>Node35&#45;&gt;Node33</title>
<path fill="none" stroke="midnightblue" d="M373.042,-388.435C354.954,-380.711 332.881,-369.67 315.632,-356 249.135,-303.301 192.221,-215.763 174.977,-187.843"/>
<polygon fill="midnightblue" stroke="midnightblue" points="372.045,-391.81 382.624,-392.381 374.71,-385.337 372.045,-391.81"/>
</g>
<!-- Node36 -->
<g id="node36" class="node"><title>Node36</title>
<g id="a_node36"><a xlink:href="../../de/d76/Array_8hpp.html" target="_top" xlink:title=" ">
<polygon fill="white" stroke="black" points="649.132,-336.5 649.132,-355.5 708.132,-355.5 708.132,-336.5 649.132,-336.5"/>
<text text-anchor="middle" x="678.632" y="-343.5" font-family="Helvetica,sans-Serif" font-size="10.00">Array.hpp</text>
</a>
</g>
</g>
<!-- Node35&#45;&gt;Node36 -->
<g id="edge46" class="edge"><title>Node35&#45;&gt;Node36</title>
<path fill="none" stroke="midnightblue" d="M444.723,-393.438C499.519,-382.559 599.444,-362.721 649.056,-352.872"/>
<polygon fill="midnightblue" stroke="midnightblue" points="443.843,-390.044 434.716,-395.424 445.206,-396.91 443.843,-390.044"/>
</g>
<!-- Node42 -->
<g id="node42" class="node"><title>Node42</title>
<g id="a_node42"><a xlink:href="../../d1/d40/BitArray_8hpp.html" target="_top" xlink:title=" ">
<polygon fill="white" stroke="black" points="371.132,-168.5 371.132,-187.5 442.132,-187.5 442.132,-168.5 371.132,-168.5"/>
<text text-anchor="middle" x="406.632" y="-175.5" font-family="Helvetica,sans-Serif" font-size="10.00">BitArray.hpp</text>
</a>
</g>
</g>
<!-- Node35&#45;&gt;Node42 -->
<g id="edge60" class="edge"><title>Node35&#45;&gt;Node42</title>
<path fill="none" stroke="midnightblue" d="M406.632,-382.295C406.632,-336.644 406.632,-220.854 406.632,-187.884"/>
<polygon fill="midnightblue" stroke="midnightblue" points="403.132,-382.297 406.632,-392.297 410.132,-382.297 403.132,-382.297"/>
</g>
<!-- Node43 -->
<g id="node43" class="node"><title>Node43</title>
<g id="a_node43"><a xlink:href="../../d6/df4/Exit_8cpp.html" target="_top" xlink:title=" ">
<polygon fill="white" stroke="black" points="325.132,-336.5 325.132,-355.5 378.132,-355.5 378.132,-336.5 325.132,-336.5"/>
<text text-anchor="middle" x="351.632" y="-343.5" font-family="Helvetica,sans-Serif" font-size="10.00">Exit.cpp</text>
</a>
</g>
</g>
<!-- Node35&#45;&gt;Node43 -->
<g id="edge65" class="edge"><title>Node35&#45;&gt;Node43</title>
<path fill="none" stroke="midnightblue" d="M390.338,-385.002C380.591,-375.433 368.579,-363.639 360.545,-355.751"/>
<polygon fill="midnightblue" stroke="midnightblue" points="387.962,-387.575 397.55,-392.083 392.866,-382.58 387.962,-387.575"/>
</g>
<!-- Node36&#45;&gt;Node2 -->
<g id="edge47" class="edge"><title>Node36&#45;&gt;Node2</title>
<path fill="none" stroke="midnightblue" d="M668.264,-327.097C661.687,-313.14 656.051,-293.866 665.632,-280 675.519,-265.69 718.284,-251.955 749.728,-243.504"/>
<polygon fill="midnightblue" stroke="midnightblue" points="665.275,-328.932 673.016,-336.166 671.475,-325.684 665.275,-328.932"/>
</g>
<!-- Node36&#45;&gt;Node4 -->
<g id="edge48" class="edge"><title>Node36&#45;&gt;Node4</title>
<path fill="none" stroke="midnightblue" d="M703.591,-331.697C743.559,-310.016 819.482,-267.162 839.632,-244 870.874,-208.089 890.296,-153.046 896.999,-131.794"/>
<polygon fill="midnightblue" stroke="midnightblue" points="701.859,-328.654 694.719,-336.482 705.182,-334.815 701.859,-328.654"/>
</g>
<!-- Node37 -->
<g id="node37" class="node"><title>Node37</title>
<g id="a_node37"><a xlink:href="../../d4/d35/Hardware-Types_8hpp.html" target="_top" xlink:title=" ">
<polygon fill="white" stroke="black" points="473.132,-280.5 473.132,-299.5 580.132,-299.5 580.132,-280.5 473.132,-280.5"/>
<text text-anchor="middle" x="526.632" y="-287.5" font-family="Helvetica,sans-Serif" font-size="10.00">Hardware&#45;Types.hpp</text>
</a>
</g>
</g>
<!-- Node36&#45;&gt;Node37 -->
<g id="edge49" class="edge"><title>Node36&#45;&gt;Node37</title>
<path fill="none" stroke="midnightblue" d="M644.964,-333.039C616.364,-322.879 576.02,-308.546 550.604,-299.516"/>
<polygon fill="midnightblue" stroke="midnightblue" points="643.952,-336.394 654.547,-336.444 646.295,-329.798 643.952,-336.394"/>
</g>
<!-- Node38 -->
<g id="node38" class="node"><title>Node38</title>
<g id="a_node38"><a xlink:href="../../d1/dde/BiQuad_8hpp.html" target="_top" xlink:title=" ">
<polygon fill="white" stroke="black" points="902.632,-224.5 902.632,-243.5 970.632,-243.5 970.632,-224.5 902.632,-224.5"/>
<text text-anchor="middle" x="936.632" y="-231.5" font-family="Helvetica,sans-Serif" font-size="10.00">BiQuad.hpp</text>
</a>
</g>
</g>
<!-- Node36&#45;&gt;Node38 -->
<g id="edge53" class="edge"><title>Node36&#45;&gt;Node38</title>
<path fill="none" stroke="midnightblue" d="M718.592,-342.896C780.17,-338.814 894.144,-327.653 922.632,-300 938.038,-285.045 938.448,-257.509 937.52,-243.568"/>
<polygon fill="midnightblue" stroke="midnightblue" points="718.218,-339.413 708.458,-343.535 718.658,-346.399 718.218,-339.413"/>
</g>
<!-- Node39 -->
<g id="node39" class="node"><title>Node39</title>
<g id="a_node39"><a xlink:href="../../d2/d3b/FIRFilter_8hpp.html" target="_top" xlink:title=" ">
<polygon fill="white" stroke="black" points="674.632,-280.5 674.632,-299.5 748.632,-299.5 748.632,-280.5 674.632,-280.5"/>
<text text-anchor="middle" x="711.632" y="-287.5" font-family="Helvetica,sans-Serif" font-size="10.00">FIRFilter.hpp</text>
</a>
</g>
</g>
<!-- Node36&#45;&gt;Node39 -->
<g id="edge55" class="edge"><title>Node36&#45;&gt;Node39</title>
<path fill="none" stroke="midnightblue" d="M689.464,-327.275C695.104,-318.045 701.75,-307.17 706.284,-299.751"/>
<polygon fill="midnightblue" stroke="midnightblue" points="686.309,-325.725 684.081,-336.083 692.282,-329.375 686.309,-325.725"/>
</g>
<!-- Node40 -->
<g id="node40" class="node"><title>Node40</title>
<g id="a_node40"><a xlink:href="../../dc/d64/IIRFilter_8hpp.html" target="_top" xlink:title=" ">
<polygon fill="white" stroke="black" points="649.132,-224.5 649.132,-243.5 720.132,-243.5 720.132,-224.5 649.132,-224.5"/>
<text text-anchor="middle" x="684.632" y="-231.5" font-family="Helvetica,sans-Serif" font-size="10.00">IIRFilter.hpp</text>
</a>
</g>
</g>
<!-- Node36&#45;&gt;Node40 -->
<g id="edge56" class="edge"><title>Node36&#45;&gt;Node40</title>
<path fill="none" stroke="midnightblue" d="M656.595,-330.118C640.943,-317.553 624.097,-298.672 632.632,-280 640.027,-263.821 656.429,-251.231 668.848,-243.533"/>
<polygon fill="midnightblue" stroke="midnightblue" points="654.896,-333.218 664.999,-336.408 659.09,-327.614 654.896,-333.218"/>
</g>
<!-- Node41 -->
<g id="node41" class="node"><title>Node41</title>
<g id="a_node41"><a xlink:href="../../d2/d03/TransferFunction_8hpp.html" target="_top" xlink:title=" ">
<polygon fill="white" stroke="black" points="805.132,-280.5 805.132,-299.5 914.132,-299.5 914.132,-280.5 805.132,-280.5"/>
<text text-anchor="middle" x="859.632" y="-287.5" font-family="Helvetica,sans-Serif" font-size="10.00">TransferFunction.hpp</text>
</a>
</g>
</g>
<!-- Node36&#45;&gt;Node41 -->
<g id="edge57" class="edge"><title>Node36&#45;&gt;Node41</title>
<path fill="none" stroke="midnightblue" d="M716.951,-333.568C751.095,-323.381 800.292,-308.703 831.086,-299.516"/>
<polygon fill="midnightblue" stroke="midnightblue" points="715.894,-330.231 707.312,-336.444 717.895,-336.938 715.894,-330.231"/>
</g>
<!-- Node37&#45;&gt;Node17 -->
<g id="edge51" class="edge"><title>Node37&#45;&gt;Node17</title>
<path fill="none" stroke="midnightblue" d="M521.119,-270.396C518.443,-261.362 515.353,-250.936 513.225,-243.751"/>
<polygon fill="midnightblue" stroke="midnightblue" points="517.793,-271.489 523.99,-280.083 524.504,-269.501 517.793,-271.489"/>
</g>
<!-- Node37&#45;&gt;Node26 -->
<g id="edge50" class="edge"><title>Node37&#45;&gt;Node26</title>
<path fill="none" stroke="midnightblue" d="M492.108,-277.107C442.729,-259.675 349.515,-225.198 273.632,-188 257.89,-180.283 256.145,-173.888 239.632,-168 190.283,-150.404 40.733,-171.775 6.63167,-132 -18.5827,-102.591 37.3585,-84.2335 81.0768,-74.8073"/>
<polygon fill="midnightblue" stroke="midnightblue" points="491.075,-280.454 501.67,-280.462 493.393,-273.849 491.075,-280.454"/>
</g>
<!-- Node37&#45;&gt;Node28 -->
<g id="edge52" class="edge"><title>Node37&#45;&gt;Node28</title>
<path fill="none" stroke="midnightblue" d="M547.448,-274.66C569.467,-260.069 605.657,-237.708 639.632,-224 700.81,-199.317 719.836,-204.795 783.632,-188 857.521,-168.548 944.041,-144.213 988.648,-131.55"/>
<polygon fill="midnightblue" stroke="midnightblue" points="545.272,-271.905 538.926,-280.389 549.178,-277.714 545.272,-271.905"/>
</g>
<!-- Node38&#45;&gt;Node12 -->
<g id="edge54" class="edge"><title>Node38&#45;&gt;Node12</title>
<path fill="none" stroke="midnightblue" d="M936.632,-213.805C936.632,-204.91 936.632,-194.78 936.632,-187.751"/>
<polygon fill="midnightblue" stroke="midnightblue" points="933.132,-214.083 936.632,-224.083 940.132,-214.083 933.132,-214.083"/>
</g>
<!-- Node41&#45;&gt;Node38 -->
<g id="edge58" class="edge"><title>Node41&#45;&gt;Node38</title>
<path fill="none" stroke="midnightblue" d="M880.533,-274.342C894.543,-264.517 912.515,-251.913 924.291,-243.655"/>
<polygon fill="midnightblue" stroke="midnightblue" points="878.181,-271.717 872.003,-280.324 882.2,-277.448 878.181,-271.717"/>
</g>
<!-- Node41&#45;&gt;Node40 -->
<g id="edge59" class="edge"><title>Node41&#45;&gt;Node40</title>
<path fill="none" stroke="midnightblue" d="M822.157,-277.436C789.162,-267.255 741.876,-252.664 712.231,-243.516"/>
<polygon fill="midnightblue" stroke="midnightblue" points="821.315,-280.839 831.902,-280.444 823.379,-274.151 821.315,-280.839"/>
</g>
<!-- Node42&#45;&gt;Node5 -->
<g id="edge61" class="edge"><title>Node42&#45;&gt;Node5</title>
<path fill="none" stroke="midnightblue" d="M384.101,-163.014C370.83,-154.496 353.9,-143.14 339.632,-132 315.739,-113.346 289.85,-88.789 276.584,-75.8525"/>
<polygon fill="midnightblue" stroke="midnightblue" points="382.308,-166.021 392.627,-168.419 386.056,-160.109 382.308,-166.021"/>
</g>
<!-- Node42&#45;&gt;Node6 -->
<g id="edge62" class="edge"><title>Node42&#45;&gt;Node6</title>
<path fill="none" stroke="midnightblue" d="M452.407,-167.91C533.953,-153.159 616.915,-139.854 670.169,-131.532"/>
<polygon fill="midnightblue" stroke="midnightblue" points="451.685,-164.484 442.472,-169.716 452.936,-171.371 451.685,-164.484"/>
</g>
<!-- Node42&#45;&gt;Node10 -->
<g id="edge63" class="edge"><title>Node42&#45;&gt;Node10</title>
<path fill="none" stroke="midnightblue" d="M452.403,-167.012C486.561,-159.014 534.125,-146.719 574.632,-132 594.442,-124.802 598.344,-120.499 617.632,-112 647.558,-98.8123 682.559,-84.4137 704.415,-75.5433"/>
<polygon fill="midnightblue" stroke="midnightblue" points="451.212,-163.695 442.255,-169.354 452.786,-170.515 451.212,-163.695"/>
</g>
<!-- Node44&#45;&gt;Node14 -->
<g id="edge70" class="edge"><title>Node44&#45;&gt;Node14</title>
<path fill="none" stroke="midnightblue" d="M1035.1,-415.317C1009.24,-425.439 970.947,-439.517 944.855,-448.444"/>
<polygon fill="midnightblue" stroke="midnightblue" points="1036.68,-418.456 1044.69,-411.516 1034.1,-411.949 1036.68,-418.456"/>
</g>
<!-- Node44&#45;&gt;Node16 -->
<g id="edge69" class="edge"><title>Node44&#45;&gt;Node16</title>
<path fill="none" stroke="midnightblue" d="M1029.41,-389.039C1001.18,-378.879 961.37,-364.546 936.288,-355.516"/>
<polygon fill="midnightblue" stroke="midnightblue" points="1028.27,-392.349 1038.86,-392.444 1030.64,-385.763 1028.27,-392.349"/>
</g>
<!-- Node44&#45;&gt;Node19 -->
<g id="edge71" class="edge"><title>Node44&#45;&gt;Node19</title>
<path fill="none" stroke="midnightblue" d="M1126.66,-391.229C1182.16,-378.696 1253.63,-350.923 1253.63,-291 1253.63,-291 1253.63,-291 1253.63,-233 1253.63,-194.999 1260.21,-149.978 1263.19,-131.529"/>
<polygon fill="midnightblue" stroke="midnightblue" points="1125.9,-387.812 1116.85,-393.326 1127.36,-394.657 1125.9,-387.812"/>
</g>
<!-- Node44&#45;&gt;Node28 -->
<g id="edge75" class="edge"><title>Node44&#45;&gt;Node28</title>
<path fill="none" stroke="midnightblue" d="M1051.06,-383.925C1038.03,-362.987 1018.63,-325.96 1018.63,-291 1018.63,-291 1018.63,-291 1018.63,-233 1018.63,-195.188 1018.63,-150.064 1018.63,-131.558"/>
<polygon fill="midnightblue" stroke="midnightblue" points="1048.14,-385.854 1056.51,-392.349 1054.02,-382.051 1048.14,-385.854"/>
</g>
<!-- Node45 -->
<g id="node45" class="node"><title>Node45</title>
<g id="a_node45"><a xlink:href="../../d1/d1f/ShiftRegisterOutRGB_8hpp.html" target="_top" xlink:title=" ">
<polygon fill="white" stroke="black" points="1046.63,-336.5 1046.63,-355.5 1176.63,-355.5 1176.63,-336.5 1046.63,-336.5"/>
<text text-anchor="middle" x="1111.63" y="-343.5" font-family="Helvetica,sans-Serif" font-size="10.00">ShiftRegisterOutRGB.hpp</text>
</a>
</g>
</g>
<!-- Node44&#45;&gt;Node45 -->
<g id="edge72" class="edge"><title>Node44&#45;&gt;Node45</title>
<path fill="none" stroke="midnightblue" d="M1077.67,-384.431C1086.25,-374.967 1096.68,-363.483 1103.69,-355.751"/>
<polygon fill="midnightblue" stroke="midnightblue" points="1074.85,-382.325 1070.72,-392.083 1080.03,-387.029 1074.85,-382.325"/>
</g>
<!-- Node45&#45;&gt;Node9 -->
<g id="edge73" class="edge"><title>Node45&#45;&gt;Node9</title>
<path fill="none" stroke="midnightblue" d="M1143.8,-332.009C1158.46,-324.612 1174.9,-313.994 1185.63,-300 1203.95,-276.12 1204.63,-265.098 1204.63,-235 1204.63,-235 1204.63,-235 1204.63,-177 1204.63,-146.205 1202.99,-133.172 1180.63,-112 1158.58,-91.1208 1127.04,-79.9166 1098.92,-73.9096"/>
<polygon fill="midnightblue" stroke="midnightblue" points="1142.05,-328.968 1134.51,-336.409 1145.04,-335.295 1142.05,-328.968"/>
</g>
<!-- Node46 -->
<g id="node46" class="node"><title>Node46</title>
<g id="a_node46"><a xlink:href="../../db/d0b/ShiftRegisterOutRGB_8cpp.html" target="_top" xlink:title=" ">
<polygon fill="white" stroke="black" points="1046.63,-280.5 1046.63,-299.5 1176.63,-299.5 1176.63,-280.5 1046.63,-280.5"/>
<text text-anchor="middle" x="1111.63" y="-287.5" font-family="Helvetica,sans-Serif" font-size="10.00">ShiftRegisterOutRGB.cpp</text>
</a>
</g>
</g>
<!-- Node45&#45;&gt;Node46 -->
<g id="edge74" class="edge"><title>Node45&#45;&gt;Node46</title>
<path fill="none" stroke="midnightblue" d="M1111.63,-325.805C1111.63,-316.91 1111.63,-306.78 1111.63,-299.751"/>
<polygon fill="midnightblue" stroke="midnightblue" points="1108.13,-326.083 1111.63,-336.083 1115.13,-326.083 1108.13,-326.083"/>
</g>
</g>
</svg>
