<?xml version="1.0" encoding="UTF-8" standalone="no"?>
<!DOCTYPE svg PUBLIC "-//W3C//DTD SVG 1.1//EN"
 "http://www.w3.org/Graphics/SVG/1.1/DTD/svg11.dtd">
<!-- Generated by graphviz version 2.38.0 (20140413.2041)
 -->
<!-- Title: PrintStream.hpp Pages: 1 -->
<svg width="1656pt" height="532pt"
 viewBox="0.00 0.00 1656.48 532.00" xmlns="http://www.w3.org/2000/svg" xmlns:xlink="http://www.w3.org/1999/xlink">
<g id="graph0" class="graph" transform="scale(1 1) rotate(0) translate(4 528)">
<title>PrintStream.hpp</title>
<polygon fill="white" stroke="none" points="-4,4 -4,-528 1652.48,-528 1652.48,4 -4,4"/>
<!-- Node1 -->
<g id="node1" class="node"><title>Node1</title>
<g id="a_node1"><a xlink:title=" ">
<polygon fill="#bfbfbf" stroke="black" points="735.481,-504.5 735.481,-523.5 822.481,-523.5 822.481,-504.5 735.481,-504.5"/>
<text text-anchor="middle" x="778.981" y="-511.5" font-family="Helvetica,sans-Serif" font-size="10.00">PrintStream.hpp</text>
</a>
</g>
</g>
<!-- Node2 -->
<g id="node2" class="node"><title>Node2</title>
<g id="a_node2"><a xlink:href="../../d5/db6/ArrayHelpers_8hpp.html" target="_top" xlink:title=" ">
<polygon fill="white" stroke="black" points="600.981,-280.5 600.981,-299.5 692.981,-299.5 692.981,-280.5 600.981,-280.5"/>
<text text-anchor="middle" x="646.981" y="-287.5" font-family="Helvetica,sans-Serif" font-size="10.00">ArrayHelpers.hpp</text>
</a>
</g>
</g>
<!-- Node1&#45;&gt;Node2 -->
<g id="edge1" class="edge"><title>Node1&#45;&gt;Node2</title>
<path fill="none" stroke="midnightblue" d="M779.821,-494.245C780.127,-469.35 777.8,-424.728 759.981,-392 736.452,-348.786 687.002,-314.813 662.055,-299.639"/>
<polygon fill="midnightblue" stroke="midnightblue" points="776.316,-494.368 779.529,-504.463 783.314,-494.568 776.316,-494.368"/>
</g>
<!-- Node12 -->
<g id="node12" class="node"><title>Node12</title>
<g id="a_node12"><a xlink:href="../../df/dee/Debug_8hpp.html" target="_top" xlink:title=" ">
<polygon fill="white" stroke="black" points="608.981,-448.5 608.981,-467.5 672.981,-467.5 672.981,-448.5 608.981,-448.5"/>
<text text-anchor="middle" x="640.981" y="-455.5" font-family="Helvetica,sans-Serif" font-size="10.00">Debug.hpp</text>
</a>
</g>
</g>
<!-- Node1&#45;&gt;Node12 -->
<g id="edge14" class="edge"><title>Node1&#45;&gt;Node12</title>
<path fill="none" stroke="midnightblue" d="M747.732,-500.772C721.81,-490.629 685.618,-476.467 662.745,-467.516"/>
<polygon fill="midnightblue" stroke="midnightblue" points="746.526,-504.059 757.114,-504.444 749.077,-497.54 746.526,-504.059"/>
</g>
<!-- Node46 -->
<g id="node46" class="node"><title>Node46</title>
<g id="a_node46"><a xlink:href="../../da/d69/PrintStream_8cpp.html" target="_top" xlink:title=" ">
<polygon fill="white" stroke="black" points="807.481,-448.5 807.481,-467.5 894.481,-467.5 894.481,-448.5 807.481,-448.5"/>
<text text-anchor="middle" x="850.981" y="-455.5" font-family="Helvetica,sans-Serif" font-size="10.00">PrintStream.cpp</text>
</a>
</g>
</g>
<!-- Node1&#45;&gt;Node46 -->
<g id="edge72" class="edge"><title>Node1&#45;&gt;Node46</title>
<path fill="none" stroke="midnightblue" d="M798.847,-498.101C811.804,-488.382 828.278,-476.027 839.202,-467.834"/>
<polygon fill="midnightblue" stroke="midnightblue" points="796.449,-495.524 790.549,-504.324 800.649,-501.124 796.449,-495.524"/>
</g>
<!-- Node3 -->
<g id="node3" class="node"><title>Node3</title>
<g id="a_node3"><a xlink:href="../../d2/d05/StaticSizeExtendedIOElement_8hpp.html" target="_top" xlink:title=" ">
<polygon fill="white" stroke="black" points="714.981,-168.5 714.981,-187.5 882.981,-187.5 882.981,-168.5 714.981,-168.5"/>
<text text-anchor="middle" x="798.981" y="-175.5" font-family="Helvetica,sans-Serif" font-size="10.00">StaticSizeExtendedIOElement.hpp</text>
</a>
</g>
</g>
<!-- Node2&#45;&gt;Node3 -->
<g id="edge2" class="edge"><title>Node2&#45;&gt;Node3</title>
<path fill="none" stroke="midnightblue" d="M659.29,-272.542C670.53,-258.344 688.213,-237.978 706.981,-224 728.371,-208.069 756.28,-195.358 775.725,-187.562"/>
<polygon fill="midnightblue" stroke="midnightblue" points="656.509,-270.417 653.171,-280.473 662.051,-274.693 656.509,-270.417"/>
</g>
<!-- Node4 -->
<g id="node4" class="node"><title>Node4</title>
<g id="a_node4"><a xlink:href="../../d7/def/AnalogMultiplex_8hpp.html" target="_top" xlink:title=" ">
<polygon fill="white" stroke="black" points="329.981,-112.5 329.981,-131.5 433.981,-131.5 433.981,-112.5 329.981,-112.5"/>
<text text-anchor="middle" x="381.981" y="-119.5" font-family="Helvetica,sans-Serif" font-size="10.00">AnalogMultiplex.hpp</text>
</a>
</g>
</g>
<!-- Node3&#45;&gt;Node4 -->
<g id="edge3" class="edge"><title>Node3&#45;&gt;Node4</title>
<path fill="none" stroke="midnightblue" d="M718.061,-167.257C645.865,-158.448 537.299,-144.918 442.981,-132 440.117,-131.608 437.179,-131.198 434.214,-130.779"/>
<polygon fill="midnightblue" stroke="midnightblue" points="717.652,-170.732 728.002,-168.468 718.499,-163.784 717.652,-170.732"/>
</g>
<!-- Node5 -->
<g id="node5" class="node"><title>Node5</title>
<g id="a_node5"><a xlink:href="../../d2/d25/MAX7219_8hpp.html" target="_top" xlink:title=" ">
<polygon fill="white" stroke="black" points="729.981,-56.5 729.981,-75.5 807.981,-75.5 807.981,-56.5 729.981,-56.5"/>
<text text-anchor="middle" x="768.981" y="-63.5" font-family="Helvetica,sans-Serif" font-size="10.00">MAX7219.hpp</text>
</a>
</g>
</g>
<!-- Node3&#45;&gt;Node5 -->
<g id="edge4" class="edge"><title>Node3&#45;&gt;Node5</title>
<path fill="none" stroke="midnightblue" d="M793.983,-158.674C787.424,-134.625 776.178,-93.3881 771.324,-75.5914"/>
<polygon fill="midnightblue" stroke="midnightblue" points="790.619,-159.642 796.627,-168.368 797.372,-157.8 790.619,-159.642"/>
</g>
<!-- Node6 -->
<g id="node6" class="node"><title>Node6</title>
<g id="a_node6"><a xlink:href="../../d8/d93/ShiftRegisterOutBase_8hpp.html" target="_top" xlink:title=" ">
<polygon fill="white" stroke="black" points="958.481,-112.5 958.481,-131.5 1089.48,-131.5 1089.48,-112.5 958.481,-112.5"/>
<text text-anchor="middle" x="1023.98" y="-119.5" font-family="Helvetica,sans-Serif" font-size="10.00">ShiftRegisterOutBase.hpp</text>
</a>
</g>
</g>
<!-- Node3&#45;&gt;Node6 -->
<g id="edge5" class="edge"><title>Node3&#45;&gt;Node6</title>
<path fill="none" stroke="midnightblue" d="M844.446,-166.088C886.954,-155.887 949.559,-140.861 988.496,-131.516"/>
<polygon fill="midnightblue" stroke="midnightblue" points="843.54,-162.706 834.633,-168.444 845.173,-169.513 843.54,-162.706"/>
</g>
<!-- Node7 -->
<g id="node7" class="node"><title>Node7</title>
<g id="a_node7"><a xlink:href="../../d0/db4/ShiftRegisterOut_8hpp.html" target="_top" xlink:title=" ">
<polygon fill="white" stroke="black" points="825.981,-56.5 825.981,-75.5 933.981,-75.5 933.981,-56.5 825.981,-56.5"/>
<text text-anchor="middle" x="879.981" y="-63.5" font-family="Helvetica,sans-Serif" font-size="10.00">ShiftRegisterOut.hpp</text>
</a>
</g>
</g>
<!-- Node6&#45;&gt;Node7 -->
<g id="edge6" class="edge"><title>Node6&#45;&gt;Node7</title>
<path fill="none" stroke="midnightblue" d="M991.73,-108.906C964.657,-98.7536 926.664,-84.5063 902.691,-75.5164"/>
<polygon fill="midnightblue" stroke="midnightblue" points="990.571,-112.209 1001.16,-112.444 993.029,-105.655 990.571,-112.209"/>
</g>
<!-- Node9 -->
<g id="node9" class="node"><title>Node9</title>
<g id="a_node9"><a xlink:href="../../d5/d47/ShiftRegisterOutBase_8ipp.html" target="_top" xlink:title=" ">
<polygon fill="white" stroke="black" points="989.981,-56.5 989.981,-75.5 1117.98,-75.5 1117.98,-56.5 989.981,-56.5"/>
<text text-anchor="middle" x="1053.98" y="-63.5" font-family="Helvetica,sans-Serif" font-size="10.00">ShiftRegisterOutBase.ipp</text>
</a>
</g>
</g>
<!-- Node6&#45;&gt;Node9 -->
<g id="edge9" class="edge"><title>Node6&#45;&gt;Node9</title>
<path fill="none" stroke="midnightblue" d="M1027.72,-102.69C1032.09,-93.589 1038.39,-83.0141 1043.99,-75.7511"/>
<polygon fill="midnightblue" stroke="midnightblue" points="1024.42,-101.508 1023.77,-112.083 1030.88,-104.225 1024.42,-101.508"/>
</g>
<!-- Node10 -->
<g id="node10" class="node"><title>Node10</title>
<g id="a_node10"><a xlink:href="../../d7/d88/SPIShiftRegisterOut_8hpp.html" target="_top" xlink:title=" ">
<polygon fill="white" stroke="black" points="1136.48,-56.5 1136.48,-75.5 1261.48,-75.5 1261.48,-56.5 1136.48,-56.5"/>
<text text-anchor="middle" x="1198.98" y="-63.5" font-family="Helvetica,sans-Serif" font-size="10.00">SPIShiftRegisterOut.hpp</text>
</a>
</g>
</g>
<!-- Node6&#45;&gt;Node10 -->
<g id="edge11" class="edge"><title>Node6&#45;&gt;Node10</title>
<path fill="none" stroke="midnightblue" d="M1061.46,-109.436C1094.45,-99.2551 1141.74,-84.664 1171.38,-75.5164"/>
<polygon fill="midnightblue" stroke="midnightblue" points="1060.23,-106.151 1051.71,-112.444 1062.3,-112.839 1060.23,-106.151"/>
</g>
<!-- Node8 -->
<g id="node8" class="node"><title>Node8</title>
<g id="a_node8"><a xlink:href="../../de/d95/ShiftRegisterOut_8ipp.html" target="_top" xlink:title=" ">
<polygon fill="white" stroke="black" points="827.481,-0.5 827.481,-19.5 932.481,-19.5 932.481,-0.5 827.481,-0.5"/>
<text text-anchor="middle" x="879.981" y="-7.5" font-family="Helvetica,sans-Serif" font-size="10.00">ShiftRegisterOut.ipp</text>
</a>
</g>
</g>
<!-- Node7&#45;&gt;Node8 -->
<g id="edge7" class="edge"><title>Node7&#45;&gt;Node8</title>
<path fill="none" stroke="midnightblue" d="M873.508,-46.1005C872.876,-37.1357 873.324,-26.8579 874.85,-19.7511"/>
<polygon fill="midnightblue" stroke="midnightblue" points="870.047,-46.6216 874.815,-56.083 876.988,-45.7134 870.047,-46.6216"/>
</g>
<!-- Node8&#45;&gt;Node7 -->
<g id="edge8" class="edge"><title>Node8&#45;&gt;Node7</title>
<path fill="none" stroke="midnightblue" d="M886.438,-29.6911C887.087,-38.6353 886.657,-48.9272 885.147,-56.083"/>
<polygon fill="midnightblue" stroke="midnightblue" points="889.904,-29.2002 885.112,-19.7511 882.965,-30.1262 889.904,-29.2002"/>
</g>
<!-- Node9&#45;&gt;Node6 -->
<g id="edge10" class="edge"><title>Node9&#45;&gt;Node6</title>
<path fill="none" stroke="midnightblue" d="M1050.34,-85.1034C1046,-94.1814 1039.71,-104.77 1034.1,-112.083"/>
<polygon fill="midnightblue" stroke="midnightblue" points="1053.62,-86.3271 1054.25,-75.7511 1047.16,-83.6249 1053.62,-86.3271"/>
</g>
<!-- Node11 -->
<g id="node11" class="node"><title>Node11</title>
<g id="a_node11"><a xlink:href="../../da/d45/SPIShiftRegisterOut_8ipp.html" target="_top" xlink:title=" ">
<polygon fill="white" stroke="black" points="1137.98,-0.5 1137.98,-19.5 1259.98,-19.5 1259.98,-0.5 1137.98,-0.5"/>
<text text-anchor="middle" x="1198.98" y="-7.5" font-family="Helvetica,sans-Serif" font-size="10.00">SPIShiftRegisterOut.ipp</text>
</a>
</g>
</g>
<!-- Node10&#45;&gt;Node11 -->
<g id="edge12" class="edge"><title>Node10&#45;&gt;Node11</title>
<path fill="none" stroke="midnightblue" d="M1192.51,-46.1005C1191.88,-37.1357 1192.32,-26.8579 1193.85,-19.7511"/>
<polygon fill="midnightblue" stroke="midnightblue" points="1189.05,-46.6216 1193.81,-56.083 1195.99,-45.7134 1189.05,-46.6216"/>
</g>
<!-- Node11&#45;&gt;Node10 -->
<g id="edge13" class="edge"><title>Node11&#45;&gt;Node10</title>
<path fill="none" stroke="midnightblue" d="M1205.44,-29.6911C1206.09,-38.6353 1205.66,-48.9272 1204.15,-56.083"/>
<polygon fill="midnightblue" stroke="midnightblue" points="1208.9,-29.2002 1204.11,-19.7511 1201.97,-30.1262 1208.9,-29.2002"/>
</g>
<!-- Node13 -->
<g id="node13" class="node"><title>Node13</title>
<g id="a_node13"><a xlink:href="../../de/dd1/LinkedList_8hpp.html" target="_top" xlink:title=" ">
<polygon fill="white" stroke="black" points="544.981,-392.5 544.981,-411.5 624.981,-411.5 624.981,-392.5 544.981,-392.5"/>
<text text-anchor="middle" x="584.981" y="-399.5" font-family="Helvetica,sans-Serif" font-size="10.00">LinkedList.hpp</text>
</a>
</g>
</g>
<!-- Node12&#45;&gt;Node13 -->
<g id="edge15" class="edge"><title>Node12&#45;&gt;Node13</title>
<path fill="none" stroke="midnightblue" d="M624.651,-441.253C614.716,-431.673 602.393,-419.791 594.142,-411.834"/>
<polygon fill="midnightblue" stroke="midnightblue" points="622.356,-443.902 631.983,-448.324 627.214,-438.863 622.356,-443.902"/>
</g>
<!-- Node32 -->
<g id="node32" class="node"><title>Node32</title>
<g id="a_node32"><a xlink:href="../../df/d66/Debug_8cpp.html" target="_top" xlink:title=" ">
<polygon fill="white" stroke="black" points="462.981,-392.5 462.981,-411.5 526.981,-411.5 526.981,-392.5 462.981,-392.5"/>
<text text-anchor="middle" x="494.981" y="-399.5" font-family="Helvetica,sans-Serif" font-size="10.00">Debug.cpp</text>
</a>
</g>
</g>
<!-- Node12&#45;&gt;Node32 -->
<g id="edge42" class="edge"><title>Node12&#45;&gt;Node32</title>
<path fill="none" stroke="midnightblue" d="M608.282,-444.906C580.833,-434.754 542.313,-420.506 518.007,-411.516"/>
<polygon fill="midnightblue" stroke="midnightblue" points="607.254,-448.257 617.847,-448.444 609.682,-441.692 607.254,-448.257"/>
</g>
<!-- Node33 -->
<g id="node33" class="node"><title>Node33</title>
<g id="a_node33"><a xlink:href="../../d1/d93/Error_8hpp.html" target="_top" xlink:title=" ">
<polygon fill="white" stroke="black" points="388.981,-392.5 388.981,-411.5 444.981,-411.5 444.981,-392.5 388.981,-392.5"/>
<text text-anchor="middle" x="416.981" y="-399.5" font-family="Helvetica,sans-Serif" font-size="10.00">Error.hpp</text>
</a>
</g>
</g>
<!-- Node12&#45;&gt;Node33 -->
<g id="edge43" class="edge"><title>Node12&#45;&gt;Node33</title>
<path fill="none" stroke="midnightblue" d="M598.719,-446.861C560.813,-437.76 503.672,-424.022 453.981,-412 451.154,-411.316 448.205,-410.601 445.261,-409.886"/>
<polygon fill="midnightblue" stroke="midnightblue" points="598.337,-450.369 608.878,-449.3 599.971,-443.562 598.337,-450.369"/>
</g>
<!-- Node43 -->
<g id="node43" class="node"><title>Node43</title>
<g id="a_node43"><a xlink:href="../../d2/dd5/SettingsWrapper_8hpp.html" target="_top" xlink:title=" ">
<polygon fill="white" stroke="black" points="642.981,-392.5 642.981,-411.5 750.981,-411.5 750.981,-392.5 642.981,-392.5"/>
<text text-anchor="middle" x="696.981" y="-399.5" font-family="Helvetica,sans-Serif" font-size="10.00">SettingsWrapper.hpp</text>
</a>
</g>
</g>
<!-- Node12&#45;&gt;Node43 -->
<g id="edge64" class="edge"><title>Node12&#45;&gt;Node43</title>
<path fill="none" stroke="midnightblue" d="M651.882,-440.431C660.803,-430.967 673.096,-419.483 682.775,-411.751"/>
<polygon fill="midnightblue" stroke="midnightblue" points="649.103,-438.289 645.062,-448.083 654.329,-442.947 649.103,-438.289"/>
</g>
<!-- Node14 -->
<g id="node14" class="node"><title>Node14</title>
<g id="a_node14"><a xlink:href="../../d4/d93/Updatable_8hpp.html" target="_top" xlink:title=" ">
<polygon fill="white" stroke="black" points="562.981,-336.5 562.981,-355.5 642.981,-355.5 642.981,-336.5 562.981,-336.5"/>
<text text-anchor="middle" x="602.981" y="-343.5" font-family="Helvetica,sans-Serif" font-size="10.00">Updatable.hpp</text>
</a>
</g>
</g>
<!-- Node13&#45;&gt;Node14 -->
<g id="edge16" class="edge"><title>Node13&#45;&gt;Node14</title>
<path fill="none" stroke="midnightblue" d="M591.182,-382.396C594.194,-373.362 597.669,-362.936 600.064,-355.751"/>
<polygon fill="midnightblue" stroke="midnightblue" points="587.795,-381.489 587.953,-392.083 594.436,-383.703 587.795,-381.489"/>
</g>
<!-- Node15 -->
<g id="node15" class="node"><title>Node15</title>
<g id="a_node15"><a xlink:href="../../d4/d57/ExtendedIOElement_8hpp.html" target="_top" xlink:title=" ">
<polygon fill="white" stroke="black" points="531.481,-224.5 531.481,-243.5 654.481,-243.5 654.481,-224.5 531.481,-224.5"/>
<text text-anchor="middle" x="592.981" y="-231.5" font-family="Helvetica,sans-Serif" font-size="10.00">ExtendedIOElement.hpp</text>
</a>
</g>
</g>
<!-- Node13&#45;&gt;Node15 -->
<g id="edge17" class="edge"><title>Node13&#45;&gt;Node15</title>
<path fill="none" stroke="midnightblue" d="M570.006,-384.473C563.757,-376.479 557.209,-366.378 553.981,-356 551.34,-347.512 552.352,-344.738 553.981,-336 560.662,-300.152 579.614,-260.634 588.402,-243.595"/>
<polygon fill="midnightblue" stroke="midnightblue" points="567.397,-386.81 576.498,-392.234 572.766,-382.318 567.397,-386.81"/>
</g>
<!-- Node15&#45;&gt;Node3 -->
<g id="edge39" class="edge"><title>Node15&#45;&gt;Node3</title>
<path fill="none" stroke="midnightblue" d="M635.596,-221.829C674.491,-211.633 731.145,-196.782 766.492,-187.516"/>
<polygon fill="midnightblue" stroke="midnightblue" points="634.408,-218.522 625.622,-224.444 636.183,-225.293 634.408,-218.522"/>
</g>
<!-- Node16 -->
<g id="node16" class="node"><title>Node16</title>
<g id="a_node16"><a xlink:href="../../dd/ddf/ExtendedInputOutput_8hpp.html" target="_top" xlink:title=" ">
<polygon fill="white" stroke="black" points="568.981,-168.5 568.981,-187.5 696.981,-187.5 696.981,-168.5 568.981,-168.5"/>
<text text-anchor="middle" x="632.981" y="-175.5" font-family="Helvetica,sans-Serif" font-size="10.00">ExtendedInputOutput.hpp</text>
</a>
</g>
</g>
<!-- Node15&#45;&gt;Node16 -->
<g id="edge18" class="edge"><title>Node15&#45;&gt;Node16</title>
<path fill="none" stroke="midnightblue" d="M605.681,-215.855C612.607,-206.505 620.887,-195.327 626.499,-187.751"/>
<polygon fill="midnightblue" stroke="midnightblue" points="602.726,-213.964 599.586,-224.083 608.351,-218.131 602.726,-213.964"/>
</g>
<!-- Node25 -->
<g id="node25" class="node"><title>Node25</title>
<g id="a_node25"><a xlink:href="../../d6/d3c/ExtendedInputOutput_8cpp.html" target="_top" xlink:title=" ">
<polygon fill="white" stroke="black" points="145.981,-112.5 145.981,-131.5 273.981,-131.5 273.981,-112.5 145.981,-112.5"/>
<text text-anchor="middle" x="209.981" y="-119.5" font-family="Helvetica,sans-Serif" font-size="10.00">ExtendedInputOutput.cpp</text>
</a>
</g>
</g>
<!-- Node15&#45;&gt;Node25 -->
<g id="edge40" class="edge"><title>Node15&#45;&gt;Node25</title>
<path fill="none" stroke="midnightblue" d="M578.791,-216.397C564.741,-201.152 541.787,-179.273 516.981,-168 495.341,-158.166 357.61,-140.502 274.152,-130.479"/>
<polygon fill="midnightblue" stroke="midnightblue" points="576.369,-218.94 585.636,-224.075 581.594,-214.281 576.369,-218.94"/>
</g>
<!-- Node31 -->
<g id="node31" class="node"><title>Node31</title>
<g id="a_node31"><a xlink:href="../../da/d1f/ExtendedIOElement_8cpp.html" target="_top" xlink:title=" ">
<polygon fill="white" stroke="black" points="351.481,-168.5 351.481,-187.5 474.481,-187.5 474.481,-168.5 351.481,-168.5"/>
<text text-anchor="middle" x="412.981" y="-175.5" font-family="Helvetica,sans-Serif" font-size="10.00">ExtendedIOElement.cpp</text>
</a>
</g>
</g>
<!-- Node15&#45;&gt;Node31 -->
<g id="edge41" class="edge"><title>Node15&#45;&gt;Node31</title>
<path fill="none" stroke="midnightblue" d="M554.873,-221.568C520.917,-211.381 471.992,-196.703 441.369,-187.516"/>
<polygon fill="midnightblue" stroke="midnightblue" points="553.875,-224.922 564.459,-224.444 555.887,-218.218 553.875,-224.922"/>
</g>
<!-- Node16&#45;&gt;Node4 -->
<g id="edge28" class="edge"><title>Node16&#45;&gt;Node4</title>
<path fill="none" stroke="midnightblue" d="M583.16,-166.281C535.727,-156.077 465.277,-140.92 421.566,-131.516"/>
<polygon fill="midnightblue" stroke="midnightblue" points="582.697,-169.762 593.209,-168.444 584.169,-162.918 582.697,-169.762"/>
</g>
<!-- Node16&#45;&gt;Node8 -->
<g id="edge31" class="edge"><title>Node16&#45;&gt;Node8</title>
<path fill="none" stroke="midnightblue" d="M559.022,-169.096C473.401,-159.514 341.451,-143.255 320.981,-132 285.973,-112.752 245.796,-85.275 272.981,-56 310.327,-15.7829 686.811,-11.2044 827.401,-10.9071"/>
<polygon fill="midnightblue" stroke="midnightblue" points="558.639,-172.575 568.965,-170.202 559.413,-165.617 558.639,-172.575"/>
</g>
<!-- Node16&#45;&gt;Node9 -->
<g id="edge30" class="edge"><title>Node16&#45;&gt;Node9</title>
<path fill="none" stroke="midnightblue" d="M700.145,-166.836C747.472,-159.021 812.109,-147.025 867.981,-132 928.927,-115.611 998.636,-89.0833 1032.82,-75.5436"/>
<polygon fill="midnightblue" stroke="midnightblue" points="699.323,-163.424 690.017,-168.489 700.45,-170.333 699.323,-163.424"/>
</g>
<!-- Node16&#45;&gt;Node11 -->
<g id="edge32" class="edge"><title>Node16&#45;&gt;Node11</title>
<path fill="none" stroke="midnightblue" d="M675.255,-165.692C735.703,-148.973 849.822,-115.356 942.981,-76 960.562,-68.5728 963.014,-62.437 980.981,-56 1032.28,-37.622 1093.2,-25.8373 1137.58,-18.9582"/>
<polygon fill="midnightblue" stroke="midnightblue" points="674.033,-162.398 665.317,-168.422 675.887,-169.148 674.033,-162.398"/>
</g>
<!-- Node17 -->
<g id="node17" class="node"><title>Node17</title>
<g id="a_node17"><a xlink:href="../../d4/db3/Button_8hpp.html" target="_top" xlink:title=" ">
<polygon fill="white" stroke="black" points="1309.98,-112.5 1309.98,-131.5 1373.98,-131.5 1373.98,-112.5 1309.98,-112.5"/>
<text text-anchor="middle" x="1341.98" y="-119.5" font-family="Helvetica,sans-Serif" font-size="10.00">Button.hpp</text>
</a>
</g>
</g>
<!-- Node16&#45;&gt;Node17 -->
<g id="edge19" class="edge"><title>Node16&#45;&gt;Node17</title>
<path fill="none" stroke="midnightblue" d="M707.273,-167.923C944.949,-145.146 1217.76,-129.624 1309.83,-124.682"/>
<polygon fill="midnightblue" stroke="midnightblue" points="706.672,-164.465 697.054,-168.909 707.344,-171.433 706.672,-164.465"/>
</g>
<!-- Node23 -->
<g id="node23" class="node"><title>Node23</title>
<g id="a_node23"><a xlink:href="../../d5/d41/ButtonMatrix_8ipp.html" target="_top" xlink:title=" ">
<polygon fill="white" stroke="black" points="451.981,-112.5 451.981,-131.5 539.981,-131.5 539.981,-112.5 451.981,-112.5"/>
<text text-anchor="middle" x="495.981" y="-119.5" font-family="Helvetica,sans-Serif" font-size="10.00">ButtonMatrix.ipp</text>
</a>
</g>
</g>
<!-- Node16&#45;&gt;Node23 -->
<g id="edge25" class="edge"><title>Node16&#45;&gt;Node23</title>
<path fill="none" stroke="midnightblue" d="M601.958,-164.772C576.224,-154.629 540.295,-140.467 517.587,-131.516"/>
<polygon fill="midnightblue" stroke="midnightblue" points="600.686,-168.033 611.273,-168.444 603.253,-161.52 600.686,-168.033"/>
</g>
<!-- Node16&#45;&gt;Node25 -->
<g id="edge29" class="edge"><title>Node16&#45;&gt;Node25</title>
<path fill="none" stroke="midnightblue" d="M558.653,-167.511C478.005,-157.216 350.561,-140.946 274.136,-131.19"/>
<polygon fill="midnightblue" stroke="midnightblue" points="558.374,-171.004 568.736,-168.799 559.26,-164.06 558.374,-171.004"/>
</g>
<!-- Node26 -->
<g id="node26" class="node"><title>Node26</title>
<g id="a_node26"><a xlink:href="../../d8/df3/FilteredAnalog_8hpp.html" target="_top" xlink:title=" ">
<polygon fill="white" stroke="black" points="29.9809,-112.5 29.9809,-131.5 127.981,-131.5 127.981,-112.5 29.9809,-112.5"/>
<text text-anchor="middle" x="78.9809" y="-119.5" font-family="Helvetica,sans-Serif" font-size="10.00">FilteredAnalog.hpp</text>
</a>
</g>
</g>
<!-- Node16&#45;&gt;Node26 -->
<g id="edge33" class="edge"><title>Node16&#45;&gt;Node26</title>
<path fill="none" stroke="midnightblue" d="M558.67,-170.841C440.883,-160.981 216.514,-141.768 136.981,-132 134.048,-131.64 131.035,-131.246 127.998,-130.83"/>
<polygon fill="midnightblue" stroke="midnightblue" points="558.434,-174.334 568.691,-171.679 559.017,-167.358 558.434,-174.334"/>
</g>
<!-- Node27 -->
<g id="node27" class="node"><title>Node27</title>
<g id="a_node27"><a xlink:href="../../d9/d4f/LEDs_8hpp.html" target="_top" xlink:title=" ">
<polygon fill="white" stroke="black" points="557.981,-112.5 557.981,-131.5 617.981,-131.5 617.981,-112.5 557.981,-112.5"/>
<text text-anchor="middle" x="587.981" y="-119.5" font-family="Helvetica,sans-Serif" font-size="10.00">LEDs.hpp</text>
</a>
</g>
</g>
<!-- Node16&#45;&gt;Node27 -->
<g id="edge34" class="edge"><title>Node16&#45;&gt;Node27</title>
<path fill="none" stroke="midnightblue" d="M618.934,-160.144C611.094,-150.736 601.651,-139.405 595.273,-131.751"/>
<polygon fill="midnightblue" stroke="midnightblue" points="616.459,-162.641 625.55,-168.083 621.837,-158.16 616.459,-162.641"/>
</g>
<!-- Node29 -->
<g id="node29" class="node"><title>Node29</title>
<g id="a_node29"><a xlink:href="../../d7/d13/MAX7219__Base_8hpp.html" target="_top" xlink:title=" ">
<polygon fill="white" stroke="black" points="635.981,-112.5 635.981,-131.5 741.981,-131.5 741.981,-112.5 635.981,-112.5"/>
<text text-anchor="middle" x="688.981" y="-119.5" font-family="Helvetica,sans-Serif" font-size="10.00">MAX7219_Base.hpp</text>
</a>
</g>
</g>
<!-- Node16&#45;&gt;Node29 -->
<g id="edge36" class="edge"><title>Node16&#45;&gt;Node29</title>
<path fill="none" stroke="midnightblue" d="M649.311,-161.253C659.246,-151.673 671.568,-139.791 679.82,-131.834"/>
<polygon fill="midnightblue" stroke="midnightblue" points="646.747,-158.863 641.978,-168.324 651.606,-163.902 646.747,-158.863"/>
</g>
<!-- Node18 -->
<g id="node18" class="node"><title>Node18</title>
<g id="a_node18"><a xlink:href="../../de/dd1/Button_8cpp.html" target="_top" xlink:title=" ">
<polygon fill="white" stroke="black" points="1279.98,-56.5 1279.98,-75.5 1343.98,-75.5 1343.98,-56.5 1279.98,-56.5"/>
<text text-anchor="middle" x="1311.98" y="-63.5" font-family="Helvetica,sans-Serif" font-size="10.00">Button.cpp</text>
</a>
</g>
</g>
<!-- Node17&#45;&gt;Node18 -->
<g id="edge20" class="edge"><title>Node17&#45;&gt;Node18</title>
<path fill="none" stroke="midnightblue" d="M1332.13,-103.275C1327.01,-94.0454 1320.96,-83.1703 1316.84,-75.7511"/>
<polygon fill="midnightblue" stroke="midnightblue" points="1329.11,-105.041 1337.03,-112.083 1335.23,-101.642 1329.11,-105.041"/>
</g>
<!-- Node19 -->
<g id="node19" class="node"><title>Node19</title>
<g id="a_node19"><a xlink:href="../../d5/d04/IncrementButton_8hpp.html" target="_top" xlink:title=" ">
<polygon fill="white" stroke="black" points="1362.48,-56.5 1362.48,-75.5 1469.48,-75.5 1469.48,-56.5 1362.48,-56.5"/>
<text text-anchor="middle" x="1415.98" y="-63.5" font-family="Helvetica,sans-Serif" font-size="10.00">IncrementButton.hpp</text>
</a>
</g>
</g>
<!-- Node17&#45;&gt;Node19 -->
<g id="edge21" class="edge"><title>Node17&#45;&gt;Node19</title>
<path fill="none" stroke="midnightblue" d="M1362.02,-106.38C1375.39,-96.6204 1392.54,-84.1057 1403.88,-75.8339"/>
<polygon fill="midnightblue" stroke="midnightblue" points="1359.89,-103.602 1353.87,-112.324 1364.01,-109.257 1359.89,-103.602"/>
</g>
<!-- Node21 -->
<g id="node21" class="node"><title>Node21</title>
<g id="a_node21"><a xlink:href="../../df/df5/IncrementDecrementButtons_8hpp.html" target="_top" xlink:title=" ">
<polygon fill="white" stroke="black" points="1487.48,-56.5 1487.48,-75.5 1648.48,-75.5 1648.48,-56.5 1487.48,-56.5"/>
<text text-anchor="middle" x="1567.98" y="-63.5" font-family="Helvetica,sans-Serif" font-size="10.00">IncrementDecrementButtons.hpp</text>
</a>
</g>
</g>
<!-- Node17&#45;&gt;Node21 -->
<g id="edge23" class="edge"><title>Node17&#45;&gt;Node21</title>
<path fill="none" stroke="midnightblue" d="M1384.17,-110.92C1426.85,-100.721 1492.12,-85.1271 1532.3,-75.5243"/>
<polygon fill="midnightblue" stroke="midnightblue" points="1383.27,-107.535 1374.36,-113.263 1384.9,-114.343 1383.27,-107.535"/>
</g>
<!-- Node20 -->
<g id="node20" class="node"><title>Node20</title>
<g id="a_node20"><a xlink:href="../../db/d9d/IncrementButton_8cpp.html" target="_top" xlink:title=" ">
<polygon fill="white" stroke="black" points="1362.48,-0.5 1362.48,-19.5 1469.48,-19.5 1469.48,-0.5 1362.48,-0.5"/>
<text text-anchor="middle" x="1415.98" y="-7.5" font-family="Helvetica,sans-Serif" font-size="10.00">IncrementButton.cpp</text>
</a>
</g>
</g>
<!-- Node19&#45;&gt;Node20 -->
<g id="edge22" class="edge"><title>Node19&#45;&gt;Node20</title>
<path fill="none" stroke="midnightblue" d="M1415.98,-45.8045C1415.98,-36.9102 1415.98,-26.7798 1415.98,-19.7511"/>
<polygon fill="midnightblue" stroke="midnightblue" points="1412.48,-46.083 1415.98,-56.083 1419.48,-46.083 1412.48,-46.083"/>
</g>
<!-- Node22 -->
<g id="node22" class="node"><title>Node22</title>
<g id="a_node22"><a xlink:href="../../da/d66/IncrementDecrementButtons_8cpp.html" target="_top" xlink:title=" ">
<polygon fill="white" stroke="black" points="1487.48,-0.5 1487.48,-19.5 1648.48,-19.5 1648.48,-0.5 1487.48,-0.5"/>
<text text-anchor="middle" x="1567.98" y="-7.5" font-family="Helvetica,sans-Serif" font-size="10.00">IncrementDecrementButtons.cpp</text>
</a>
</g>
</g>
<!-- Node21&#45;&gt;Node22 -->
<g id="edge24" class="edge"><title>Node21&#45;&gt;Node22</title>
<path fill="none" stroke="midnightblue" d="M1567.98,-45.8045C1567.98,-36.9102 1567.98,-26.7798 1567.98,-19.7511"/>
<polygon fill="midnightblue" stroke="midnightblue" points="1564.48,-46.083 1567.98,-56.083 1571.48,-46.083 1564.48,-46.083"/>
</g>
<!-- Node24 -->
<g id="node24" class="node"><title>Node24</title>
<g id="a_node24"><a xlink:href="../../d9/d4b/ButtonMatrix_8hpp.html" target="_top" xlink:title=" ">
<polygon fill="white" stroke="black" points="282.481,-56.5 282.481,-75.5 373.481,-75.5 373.481,-56.5 282.481,-56.5"/>
<text text-anchor="middle" x="327.981" y="-63.5" font-family="Helvetica,sans-Serif" font-size="10.00">ButtonMatrix.hpp</text>
</a>
</g>
</g>
<!-- Node23&#45;&gt;Node24 -->
<g id="edge26" class="edge"><title>Node23&#45;&gt;Node24</title>
<path fill="none" stroke="midnightblue" d="M454.351,-109.436C421.043,-99.2551 375.84,-84.664 349.396,-75.5164"/>
<polygon fill="midnightblue" stroke="midnightblue" points="453.687,-112.892 464.272,-112.444 455.717,-106.193 453.687,-112.892"/>
</g>
<!-- Node24&#45;&gt;Node23 -->
<g id="edge27" class="edge"><title>Node24&#45;&gt;Node23</title>
<path fill="none" stroke="midnightblue" d="M369.465,-78.5192C402.738,-88.6876 447.951,-103.28 474.45,-112.444"/>
<polygon fill="midnightblue" stroke="midnightblue" points="370.142,-75.0671 359.556,-75.5164 368.112,-81.7662 370.142,-75.0671"/>
</g>
<!-- Node28 -->
<g id="node28" class="node"><title>Node28</title>
<g id="a_node28"><a xlink:href="../../d6/d3a/DotBarDisplayLEDs_8hpp.html" target="_top" xlink:title=" ">
<polygon fill="white" stroke="black" points="391.981,-56.5 391.981,-75.5 515.981,-75.5 515.981,-56.5 391.981,-56.5"/>
<text text-anchor="middle" x="453.981" y="-63.5" font-family="Helvetica,sans-Serif" font-size="10.00">DotBarDisplayLEDs.hpp</text>
</a>
</g>
</g>
<!-- Node27&#45;&gt;Node28 -->
<g id="edge35" class="edge"><title>Node27&#45;&gt;Node28</title>
<path fill="none" stroke="midnightblue" d="M557.304,-108.638C532.157,-98.504 497.227,-84.4274 475.114,-75.5164"/>
<polygon fill="midnightblue" stroke="midnightblue" points="556.165,-111.952 566.748,-112.444 558.781,-105.459 556.165,-111.952"/>
</g>
<!-- Node29&#45;&gt;Node5 -->
<g id="edge37" class="edge"><title>Node29&#45;&gt;Node5</title>
<path fill="none" stroke="midnightblue" d="M710.281,-106.622C724.896,-96.7574 743.808,-83.9919 756.159,-75.6545"/>
<polygon fill="midnightblue" stroke="midnightblue" points="708.165,-103.828 701.834,-112.324 712.081,-109.63 708.165,-103.828"/>
</g>
<!-- Node30 -->
<g id="node30" class="node"><title>Node30</title>
<g id="a_node30"><a xlink:href="../../d5/d0c/MAX7219SevenSegmentDisplay_8hpp.html" target="_top" xlink:title=" ">
<polygon fill="white" stroke="black" points="533.981,-56.5 533.981,-75.5 711.981,-75.5 711.981,-56.5 533.981,-56.5"/>
<text text-anchor="middle" x="622.981" y="-63.5" font-family="Helvetica,sans-Serif" font-size="10.00">MAX7219SevenSegmentDisplay.hpp</text>
</a>
</g>
</g>
<!-- Node29&#45;&gt;Node30 -->
<g id="edge38" class="edge"><title>Node29&#45;&gt;Node30</title>
<path fill="none" stroke="midnightblue" d="M670.427,-105.82C658.603,-96.1452 643.695,-83.9481 633.778,-75.8339"/>
<polygon fill="midnightblue" stroke="midnightblue" points="668.421,-108.7 678.377,-112.324 672.854,-103.283 668.421,-108.7"/>
</g>
<!-- Node33&#45;&gt;Node14 -->
<g id="edge60" class="edge"><title>Node33&#45;&gt;Node14</title>
<path fill="none" stroke="midnightblue" d="M455.113,-389.929C490.203,-379.742 541.515,-364.845 573.542,-355.547"/>
<polygon fill="midnightblue" stroke="midnightblue" points="453.858,-386.649 445.23,-392.799 455.81,-393.372 453.858,-386.649"/>
</g>
<!-- Node33&#45;&gt;Node25 -->
<g id="edge62" class="edge"><title>Node33&#45;&gt;Node25</title>
<path fill="none" stroke="midnightblue" d="M417.101,-382.237C416.589,-357.667 413.338,-313.752 397.981,-280 371.068,-220.849 355.339,-207.819 303.981,-168 282.819,-151.592 254.708,-139.116 234.756,-131.509"/>
<polygon fill="midnightblue" stroke="midnightblue" points="413.602,-382.365 417.176,-392.339 420.602,-382.313 413.602,-382.365"/>
</g>
<!-- Node33&#45;&gt;Node31 -->
<g id="edge63" class="edge"><title>Node33&#45;&gt;Node31</title>
<path fill="none" stroke="midnightblue" d="M416.644,-382.295C415.821,-336.644 413.735,-220.854 413.141,-187.884"/>
<polygon fill="midnightblue" stroke="midnightblue" points="413.144,-382.362 416.824,-392.297 420.143,-382.236 413.144,-382.362"/>
</g>
<!-- Node34 -->
<g id="node34" class="node"><title>Node34</title>
<g id="a_node34"><a xlink:href="../../de/d76/Array_8hpp.html" target="_top" xlink:title=" ">
<polygon fill="white" stroke="black" points="237.481,-336.5 237.481,-355.5 296.481,-355.5 296.481,-336.5 237.481,-336.5"/>
<text text-anchor="middle" x="266.981" y="-343.5" font-family="Helvetica,sans-Serif" font-size="10.00">Array.hpp</text>
</a>
</g>
</g>
<!-- Node33&#45;&gt;Node34 -->
<g id="edge44" class="edge"><title>Node33&#45;&gt;Node34</title>
<path fill="none" stroke="midnightblue" d="M383.756,-389.039C355.533,-378.879 315.719,-364.546 290.638,-355.516"/>
<polygon fill="midnightblue" stroke="midnightblue" points="382.618,-392.349 393.213,-392.444 384.99,-385.763 382.618,-392.349"/>
</g>
<!-- Node41 -->
<g id="node41" class="node"><title>Node41</title>
<g id="a_node41"><a xlink:href="../../d1/d40/BitArray_8hpp.html" target="_top" xlink:title=" ">
<polygon fill="white" stroke="black" points="967.481,-168.5 967.481,-187.5 1038.48,-187.5 1038.48,-168.5 967.481,-168.5"/>
<text text-anchor="middle" x="1002.98" y="-175.5" font-family="Helvetica,sans-Serif" font-size="10.00">BitArray.hpp</text>
</a>
</g>
</g>
<!-- Node33&#45;&gt;Node41 -->
<g id="edge56" class="edge"><title>Node33&#45;&gt;Node41</title>
<path fill="none" stroke="midnightblue" d="M441.64,-387.408C468.577,-373.014 513.32,-350.42 553.981,-336 617.783,-313.373 637.521,-320.678 701.981,-300 811.385,-264.905 937.564,-208.906 984.311,-187.605"/>
<polygon fill="midnightblue" stroke="midnightblue" points="439.698,-384.479 432.562,-392.31 443.024,-390.638 439.698,-384.479"/>
</g>
<!-- Node42 -->
<g id="node42" class="node"><title>Node42</title>
<g id="a_node42"><a xlink:href="../../d6/df4/Exit_8cpp.html" target="_top" xlink:title=" ">
<polygon fill="white" stroke="black" points="335.481,-336.5 335.481,-355.5 388.481,-355.5 388.481,-336.5 335.481,-336.5"/>
<text text-anchor="middle" x="361.981" y="-343.5" font-family="Helvetica,sans-Serif" font-size="10.00">Exit.cpp</text>
</a>
</g>
</g>
<!-- Node33&#45;&gt;Node42 -->
<g id="edge61" class="edge"><title>Node33&#45;&gt;Node42</title>
<path fill="none" stroke="midnightblue" d="M400.687,-385.002C390.94,-375.433 378.928,-363.639 370.894,-355.751"/>
<polygon fill="midnightblue" stroke="midnightblue" points="398.311,-387.575 407.899,-392.083 403.215,-382.58 398.311,-387.575"/>
</g>
<!-- Node34&#45;&gt;Node2 -->
<g id="edge45" class="edge"><title>Node34&#45;&gt;Node2</title>
<path fill="none" stroke="midnightblue" d="M306.632,-338.884C313.097,-337.906 319.724,-336.916 325.981,-336 423.84,-321.677 538.626,-305.811 600.975,-297.271"/>
<polygon fill="midnightblue" stroke="midnightblue" points="306.043,-335.434 296.683,-340.398 307.095,-342.354 306.043,-335.434"/>
</g>
<!-- Node34&#45;&gt;Node4 -->
<g id="edge46" class="edge"><title>Node34&#45;&gt;Node4</title>
<path fill="none" stroke="midnightblue" d="M227.054,-344.205C160.658,-341.947 32.0466,-333.276 3.98085,-300 -1.75006,-293.205 -0.480721,-287.688 3.98085,-280 54.3393,-193.223 106.836,-205.286 199.981,-168 243.041,-150.763 294.555,-138.772 331.77,-131.528"/>
<polygon fill="midnightblue" stroke="midnightblue" points="227.049,-347.707 237.151,-344.515 227.264,-340.71 227.049,-347.707"/>
</g>
<!-- Node35 -->
<g id="node35" class="node"><title>Node35</title>
<g id="a_node35"><a xlink:href="../../d4/d35/Hardware-Types_8hpp.html" target="_top" xlink:title=" ">
<polygon fill="white" stroke="black" points="13.4809,-280.5 13.4809,-299.5 120.481,-299.5 120.481,-280.5 13.4809,-280.5"/>
<text text-anchor="middle" x="66.9809" y="-287.5" font-family="Helvetica,sans-Serif" font-size="10.00">Hardware&#45;Types.hpp</text>
</a>
</g>
</g>
<!-- Node34&#45;&gt;Node35 -->
<g id="edge47" class="edge"><title>Node34&#45;&gt;Node35</title>
<path fill="none" stroke="midnightblue" d="M227.337,-334.296C189.568,-324.099 133.447,-308.946 98.5956,-299.536"/>
<polygon fill="midnightblue" stroke="midnightblue" points="226.904,-337.804 237.47,-337.032 228.728,-331.046 226.904,-337.804"/>
</g>
<!-- Node36 -->
<g id="node36" class="node"><title>Node36</title>
<g id="a_node36"><a xlink:href="../../d1/dde/BiQuad_8hpp.html" target="_top" xlink:title=" ">
<polygon fill="white" stroke="black" points="320.981,-280.5 320.981,-299.5 388.981,-299.5 388.981,-280.5 320.981,-280.5"/>
<text text-anchor="middle" x="354.981" y="-287.5" font-family="Helvetica,sans-Serif" font-size="10.00">BiQuad.hpp</text>
</a>
</g>
</g>
<!-- Node34&#45;&gt;Node36 -->
<g id="edge51" class="edge"><title>Node34&#45;&gt;Node36</title>
<path fill="none" stroke="midnightblue" d="M289.958,-330.901C306.094,-320.999 327.162,-308.071 340.877,-299.655"/>
<polygon fill="midnightblue" stroke="midnightblue" points="287.812,-328.111 281.12,-336.324 291.473,-334.077 287.812,-328.111"/>
</g>
<!-- Node39 -->
<g id="node39" class="node"><title>Node39</title>
<g id="a_node39"><a xlink:href="../../d2/d3b/FIRFilter_8hpp.html" target="_top" xlink:title=" ">
<polygon fill="white" stroke="black" points="138.981,-280.5 138.981,-299.5 212.981,-299.5 212.981,-280.5 138.981,-280.5"/>
<text text-anchor="middle" x="175.981" y="-287.5" font-family="Helvetica,sans-Serif" font-size="10.00">FIRFilter.hpp</text>
</a>
</g>
</g>
<!-- Node34&#45;&gt;Node39 -->
<g id="edge54" class="edge"><title>Node34&#45;&gt;Node39</title>
<path fill="none" stroke="midnightblue" d="M243.687,-331.177C226.942,-321.241 204.88,-308.149 190.565,-299.655"/>
<polygon fill="midnightblue" stroke="midnightblue" points="241.974,-334.231 252.36,-336.324 245.546,-328.211 241.974,-334.231"/>
</g>
<!-- Node40 -->
<g id="node40" class="node"><title>Node40</title>
<g id="a_node40"><a xlink:href="../../dc/d64/IIRFilter_8hpp.html" target="_top" xlink:title=" ">
<polygon fill="white" stroke="black" points="231.481,-280.5 231.481,-299.5 302.481,-299.5 302.481,-280.5 231.481,-280.5"/>
<text text-anchor="middle" x="266.981" y="-287.5" font-family="Helvetica,sans-Serif" font-size="10.00">IIRFilter.hpp</text>
</a>
</g>
</g>
<!-- Node34&#45;&gt;Node40 -->
<g id="edge55" class="edge"><title>Node34&#45;&gt;Node40</title>
<path fill="none" stroke="midnightblue" d="M266.981,-325.805C266.981,-316.91 266.981,-306.78 266.981,-299.751"/>
<polygon fill="midnightblue" stroke="midnightblue" points="263.481,-326.083 266.981,-336.083 270.481,-326.083 263.481,-326.083"/>
</g>
<!-- Node35&#45;&gt;Node15 -->
<g id="edge49" class="edge"><title>Node35&#45;&gt;Node15</title>
<path fill="none" stroke="midnightblue" d="M130.904,-279.942C281.073,-262.105 444.683,-247.472 531.473,-240.091"/>
<polygon fill="midnightblue" stroke="midnightblue" points="130.089,-276.514 120.576,-281.176 130.92,-283.465 130.089,-276.514"/>
</g>
<!-- Node35&#45;&gt;Node24 -->
<g id="edge48" class="edge"><title>Node35&#45;&gt;Node24</title>
<path fill="none" stroke="midnightblue" d="M54.0498,-272.382C29.0942,-238.184 -19.799,-159.193 20.9809,-112 54.22,-73.5335 205.335,-67.3273 282.436,-66.7211"/>
<polygon fill="midnightblue" stroke="midnightblue" points="51.2828,-274.526 60.0854,-280.422 56.881,-270.323 51.2828,-274.526"/>
</g>
<!-- Node35&#45;&gt;Node26 -->
<g id="edge50" class="edge"><title>Node35&#45;&gt;Node26</title>
<path fill="none" stroke="midnightblue" d="M68.3594,-269.93C70.9625,-233.92 76.5063,-157.231 78.3615,-131.568"/>
<polygon fill="midnightblue" stroke="midnightblue" points="64.8562,-269.849 67.626,-280.075 71.838,-270.354 64.8562,-269.849"/>
</g>
<!-- Node37 -->
<g id="node37" class="node"><title>Node37</title>
<g id="a_node37"><a xlink:href="../../df/ddc/SOSFilter_8hpp.html" target="_top" xlink:title=" ">
<polygon fill="white" stroke="black" points="227.981,-224.5 227.981,-243.5 305.981,-243.5 305.981,-224.5 227.981,-224.5"/>
<text text-anchor="middle" x="266.981" y="-231.5" font-family="Helvetica,sans-Serif" font-size="10.00">SOSFilter.hpp</text>
</a>
</g>
</g>
<!-- Node36&#45;&gt;Node37 -->
<g id="edge52" class="edge"><title>Node36&#45;&gt;Node37</title>
<path fill="none" stroke="midnightblue" d="M332.004,-274.901C315.867,-264.999 294.8,-252.071 281.084,-243.655"/>
<polygon fill="midnightblue" stroke="midnightblue" points="330.488,-278.077 340.842,-280.324 334.149,-272.111 330.488,-278.077"/>
</g>
<!-- Node38 -->
<g id="node38" class="node"><title>Node38</title>
<g id="a_node38"><a xlink:href="../../d4/d40/Butterworth_8hpp.html" target="_top" xlink:title=" ">
<polygon fill="white" stroke="black" points="208.981,-168.5 208.981,-187.5 294.981,-187.5 294.981,-168.5 208.981,-168.5"/>
<text text-anchor="middle" x="251.981" y="-175.5" font-family="Helvetica,sans-Serif" font-size="10.00">Butterworth.hpp</text>
</a>
</g>
</g>
<!-- Node37&#45;&gt;Node38 -->
<g id="edge53" class="edge"><title>Node37&#45;&gt;Node38</title>
<path fill="none" stroke="midnightblue" d="M261.813,-214.396C259.304,-205.362 256.408,-194.936 254.412,-187.751"/>
<polygon fill="midnightblue" stroke="midnightblue" points="258.455,-215.385 264.504,-224.083 265.2,-213.511 258.455,-215.385"/>
</g>
<!-- Node41&#45;&gt;Node5 -->
<g id="edge57" class="edge"><title>Node41&#45;&gt;Node5</title>
<path fill="none" stroke="midnightblue" d="M975.371,-164.021C926.977,-141.272 828.1,-94.791 787.257,-75.5914"/>
<polygon fill="midnightblue" stroke="midnightblue" points="974.08,-167.282 984.619,-168.368 977.058,-160.947 974.08,-167.282"/>
</g>
<!-- Node41&#45;&gt;Node6 -->
<g id="edge58" class="edge"><title>Node41&#45;&gt;Node6</title>
<path fill="none" stroke="midnightblue" d="M1010.1,-158.69C1013.64,-149.589 1017.75,-139.014 1020.58,-131.751"/>
<polygon fill="midnightblue" stroke="midnightblue" points="1006.81,-157.494 1006.45,-168.083 1013.34,-160.032 1006.81,-157.494"/>
</g>
<!-- Node41&#45;&gt;Node10 -->
<g id="edge59" class="edge"><title>Node41&#45;&gt;Node10</title>
<path fill="none" stroke="midnightblue" d="M1032.35,-164.277C1051.37,-155.745 1076.52,-143.925 1097.98,-132 1131.16,-113.569 1168.21,-88.4916 1186.86,-75.5336"/>
<polygon fill="midnightblue" stroke="midnightblue" points="1030.73,-161.166 1023.01,-168.422 1033.57,-167.565 1030.73,-161.166"/>
</g>
<!-- Node43&#45;&gt;Node12 -->
<g id="edge66" class="edge"><title>Node43&#45;&gt;Node12</title>
<path fill="none" stroke="midnightblue" d="M686.133,-419.511C677.18,-429.017 664.805,-440.576 655.093,-448.324"/>
<polygon fill="midnightblue" stroke="midnightblue" points="688.933,-421.63 692.968,-411.834 683.705,-416.975 688.933,-421.63"/>
</g>
<!-- Node43&#45;&gt;Node14 -->
<g id="edge65" class="edge"><title>Node43&#45;&gt;Node14</title>
<path fill="none" stroke="midnightblue" d="M672.919,-387.177C655.622,-377.241 632.833,-364.149 618.046,-355.655"/>
<polygon fill="midnightblue" stroke="midnightblue" points="671.464,-390.378 681.878,-392.324 674.951,-384.308 671.464,-390.378"/>
</g>
<!-- Node43&#45;&gt;Node17 -->
<g id="edge67" class="edge"><title>Node43&#45;&gt;Node17</title>
<path fill="none" stroke="midnightblue" d="M761.71,-399.079C883.986,-394.868 1144.34,-382.965 1229.98,-356 1284.88,-338.715 1341.98,-348.553 1341.98,-291 1341.98,-291 1341.98,-291 1341.98,-233 1341.98,-195.188 1341.98,-150.064 1341.98,-131.558"/>
<polygon fill="midnightblue" stroke="midnightblue" points="761.254,-395.593 751.378,-399.428 761.49,-402.589 761.254,-395.593"/>
</g>
<!-- Node43&#45;&gt;Node26 -->
<g id="edge71" class="edge"><title>Node43&#45;&gt;Node26</title>
<path fill="none" stroke="midnightblue" d="M687.371,-383.029C679.262,-369.035 666.65,-349.743 651.981,-336 629.287,-314.738 617.514,-317.754 591.981,-300 559.27,-277.255 547.19,-274.852 521.981,-244 497.959,-214.601 514.311,-189.442 482.981,-168 419.187,-124.34 213.644,-141.93 136.981,-132 134.05,-131.62 131.039,-131.211 128.004,-130.784"/>
<polygon fill="midnightblue" stroke="midnightblue" points="684.517,-385.098 692.444,-392.127 690.631,-381.689 684.517,-385.098"/>
</g>
<!-- Node44 -->
<g id="node44" class="node"><title>Node44</title>
<g id="a_node44"><a xlink:href="../../d1/d1f/ShiftRegisterOutRGB_8hpp.html" target="_top" xlink:title=" ">
<polygon fill="white" stroke="black" points="1090.98,-336.5 1090.98,-355.5 1220.98,-355.5 1220.98,-336.5 1090.98,-336.5"/>
<text text-anchor="middle" x="1155.98" y="-343.5" font-family="Helvetica,sans-Serif" font-size="10.00">ShiftRegisterOutRGB.hpp</text>
</a>
</g>
</g>
<!-- Node43&#45;&gt;Node44 -->
<g id="edge68" class="edge"><title>Node43&#45;&gt;Node44</title>
<path fill="none" stroke="midnightblue" d="M761,-393.468C848.08,-383.224 1003.04,-364.993 1090.75,-354.675"/>
<polygon fill="midnightblue" stroke="midnightblue" points="760.506,-390.002 750.984,-394.647 761.324,-396.954 760.506,-390.002"/>
</g>
<!-- Node44&#45;&gt;Node9 -->
<g id="edge69" class="edge"><title>Node44&#45;&gt;Node9</title>
<path fill="none" stroke="midnightblue" d="M1155.98,-326.251C1155.98,-304.357 1155.98,-267.052 1155.98,-235 1155.98,-235 1155.98,-235 1155.98,-177 1155.98,-127.777 1100.38,-91.2783 1071.28,-75.5451"/>
<polygon fill="midnightblue" stroke="midnightblue" points="1152.48,-326.442 1155.98,-336.442 1159.48,-326.442 1152.48,-326.442"/>
</g>
<!-- Node45 -->
<g id="node45" class="node"><title>Node45</title>
<g id="a_node45"><a xlink:href="../../db/d0b/ShiftRegisterOutRGB_8cpp.html" target="_top" xlink:title=" ">
<polygon fill="white" stroke="black" points="1183.98,-280.5 1183.98,-299.5 1313.98,-299.5 1313.98,-280.5 1183.98,-280.5"/>
<text text-anchor="middle" x="1248.98" y="-287.5" font-family="Helvetica,sans-Serif" font-size="10.00">ShiftRegisterOutRGB.cpp</text>
</a>
</g>
</g>
<!-- Node44&#45;&gt;Node45 -->
<g id="edge70" class="edge"><title>Node44&#45;&gt;Node45</title>
<path fill="none" stroke="midnightblue" d="M1179.79,-331.177C1196.9,-321.241 1219.45,-308.149 1234.08,-299.655"/>
<polygon fill="midnightblue" stroke="midnightblue" points="1177.81,-328.276 1170.92,-336.324 1181.33,-334.329 1177.81,-328.276"/>
</g>
</g>
</svg>
