<?xml version="1.0" encoding="UTF-8" standalone="no"?>
<!DOCTYPE svg PUBLIC "-//W3C//DTD SVG 1.1//EN"
 "http://www.w3.org/Graphics/SVG/1.1/DTD/svg11.dtd">
<!-- Generated by graphviz version 2.43.0 (0)
 -->
<!-- Title: MCP23017Encoders.hpp Pages: 1 -->
<svg width="1687pt" height="789pt"
 viewBox="0.00 0.00 1687.00 789.00" xmlns="http://www.w3.org/2000/svg" xmlns:xlink="http://www.w3.org/1999/xlink">
<g id="graph0" class="graph" transform="scale(1 1) rotate(0) translate(4 785)">
<title>MCP23017Encoders.hpp</title>
<polygon fill="white" stroke="transparent" points="-4,4 -4,-785 1683,-785 1683,4 -4,4"/>
<!-- Node1 -->
<g id="node1" class="node">
<title>Node1</title>
<g id="a_node1"><a xlink:title=" ">
<polygon fill="#bfbfbf" stroke="black" points="1018,-761.5 1018,-780.5 1152,-780.5 1152,-761.5 1018,-761.5"/>
<text text-anchor="middle" x="1085" y="-768.5" font-family="Helvetica,sans-Serif" font-size="10.00">MCP23017Encoders.hpp</text>
</a>
</g>
</g>
<!-- Node2 -->
<g id="node2" class="node">
<title>Node2</title>
<g id="a_node2"><a xlink:href="../../dc/dc7/NamespaceSettings_8hpp.html" target="_top" xlink:title=" ">
<polygon fill="white" stroke="black" points="1082.5,-56.5 1082.5,-75.5 1277.5,-75.5 1277.5,-56.5 1082.5,-56.5"/>
<text text-anchor="middle" x="1180" y="-63.5" font-family="Helvetica,sans-Serif" font-size="10.00">AH/Settings/NamespaceSettings.hpp</text>
</a>
</g>
</g>
<!-- Node1&#45;&gt;Node2 -->
<g id="edge1" class="edge">
<title>Node1&#45;&gt;Node2</title>
<path fill="none" stroke="midnightblue" d="M1087.55,-761.3C1105.07,-701.16 1207,-346.46 1207,-235 1207,-235 1207,-235 1207,-177 1207,-143.86 1195.3,-106.68 1187.3,-85.14"/>
<polygon fill="midnightblue" stroke="midnightblue" points="1190.51,-83.73 1183.64,-75.66 1183.98,-86.25 1190.51,-83.73"/>
</g>
<!-- Node3 -->
<g id="node3" class="node">
<title>Node3</title>
<g id="a_node3"><a xlink:href="../../d1/d65/Warnings_8hpp.html" target="_top" xlink:title=" ">
<polygon fill="white" stroke="black" points="605.5,-0.5 605.5,-19.5 748.5,-19.5 748.5,-0.5 605.5,-0.5"/>
<text text-anchor="middle" x="677" y="-7.5" font-family="Helvetica,sans-Serif" font-size="10.00">AH/Settings/Warnings.hpp</text>
</a>
</g>
</g>
<!-- Node1&#45;&gt;Node3 -->
<g id="edge2" class="edge">
<title>Node1&#45;&gt;Node3</title>
<path fill="none" stroke="midnightblue" d="M1152.27,-769.72C1307.79,-767.25 1679,-750.19 1679,-643.5 1679,-643.5 1679,-643.5 1679,-121 1679,-88.19 1671.77,-73.48 1644,-56 1606.83,-32.61 985.61,-17.41 758.94,-12.63"/>
<polygon fill="midnightblue" stroke="midnightblue" points="758.84,-9.12 748.77,-12.41 758.69,-16.12 758.84,-9.12"/>
</g>
<!-- Node4 -->
<g id="node4" class="node">
<title>Node4</title>
<g id="a_node4"><a xlink:href="../../d6/ddf/Arduino-Wrapper_8h.html" target="_top" xlink:title=" ">
<polygon fill="white" stroke="black" points="90,-168.5 90,-187.5 214,-187.5 214,-168.5 90,-168.5"/>
<text text-anchor="middle" x="152" y="-175.5" font-family="Helvetica,sans-Serif" font-size="10.00">AH/Arduino&#45;Wrapper.h</text>
</a>
</g>
</g>
<!-- Node1&#45;&gt;Node4 -->
<g id="edge3" class="edge">
<title>Node1&#45;&gt;Node4</title>
<path fill="none" stroke="midnightblue" d="M1017.68,-769.05C784.85,-764.87 28,-743.59 28,-643.5 28,-643.5 28,-643.5 28,-513 28,-439.09 38,-420.91 38,-347 38,-347 38,-347 38,-289 38,-242.11 88.55,-208.89 122.33,-191.93"/>
<polygon fill="midnightblue" stroke="midnightblue" points="123.87,-195.07 131.36,-187.58 120.83,-188.77 123.87,-195.07"/>
</g>
<!-- Node9 -->
<g id="node9" class="node">
<title>Node9</title>
<g id="a_node9"><a xlink:href="../../dd/ddf/ExtendedInputOutput_8hpp.html" target="_top" xlink:title=" ">
<polygon fill="white" stroke="black" points="1284.5,-694.5 1284.5,-724.5 1461.5,-724.5 1461.5,-694.5 1284.5,-694.5"/>
<text text-anchor="start" x="1292.5" y="-712.5" font-family="Helvetica,sans-Serif" font-size="10.00">AH/Hardware/ExtendedInput</text>
<text text-anchor="middle" x="1373" y="-701.5" font-family="Helvetica,sans-Serif" font-size="10.00">Output/ExtendedInputOutput.hpp</text>
</a>
</g>
</g>
<!-- Node1&#45;&gt;Node9 -->
<g id="edge12" class="edge">
<title>Node1&#45;&gt;Node9</title>
<path fill="none" stroke="midnightblue" d="M1126.26,-761.48C1170.19,-752.4 1240.73,-737.83 1295.16,-726.58"/>
<polygon fill="midnightblue" stroke="midnightblue" points="1296.04,-729.97 1305.12,-724.52 1294.62,-723.12 1296.04,-729.97"/>
</g>
<!-- Node29 -->
<g id="node29" class="node">
<title>Node29</title>
<g id="a_node29"><a xlink:href="../../dd/ddf/RegisterEncoders_8hpp.html" target="_top" xlink:title=" ">
<polygon fill="white" stroke="black" points="147,-566 147,-585 337,-585 337,-566 147,-566"/>
<text text-anchor="middle" x="242" y="-573" font-family="Helvetica,sans-Serif" font-size="10.00">AH/Hardware/RegisterEncoders.hpp</text>
</a>
</g>
</g>
<!-- Node1&#45;&gt;Node29 -->
<g id="edge56" class="edge">
<title>Node1&#45;&gt;Node29</title>
<path fill="none" stroke="midnightblue" d="M1047.96,-761.5C912.06,-730.3 440.86,-622.14 289.33,-587.36"/>
<polygon fill="midnightblue" stroke="midnightblue" points="289.93,-583.91 279.4,-585.08 288.36,-590.73 289.93,-583.91"/>
</g>
<!-- Node5 -->
<g id="node5" class="node">
<title>Node5</title>
<g id="a_node5"><a xlink:href="../../d7/d79/MinMaxFix_8hpp.html" target="_top" xlink:title=" ">
<polygon fill="white" stroke="black" points="66,-112.5 66,-131.5 202,-131.5 202,-112.5 66,-112.5"/>
<text text-anchor="middle" x="134" y="-119.5" font-family="Helvetica,sans-Serif" font-size="10.00">AH/Math/MinMaxFix.hpp</text>
</a>
</g>
</g>
<!-- Node4&#45;&gt;Node5 -->
<g id="edge4" class="edge">
<title>Node4&#45;&gt;Node5</title>
<path fill="none" stroke="midnightblue" d="M149.03,-168.08C146.62,-160.85 143.14,-150.41 140.13,-141.4"/>
<polygon fill="midnightblue" stroke="midnightblue" points="143.4,-140.13 136.92,-131.75 136.76,-142.34 143.4,-140.13"/>
</g>
<!-- Node7 -->
<g id="node7" class="node">
<title>Node7</title>
<g id="a_node7"><a xlink:title=" ">
<polygon fill="white" stroke="#bfbfbf" points="82.5,-0.5 82.5,-19.5 145.5,-19.5 145.5,-0.5 82.5,-0.5"/>
<text text-anchor="middle" x="114" y="-7.5" font-family="Helvetica,sans-Serif" font-size="10.00">Arduino.h</text>
</a>
</g>
</g>
<!-- Node4&#45;&gt;Node7 -->
<g id="edge11" class="edge">
<title>Node4&#45;&gt;Node7</title>
<path fill="none" stroke="midnightblue" d="M110.95,-168.38C91.04,-161.92 68.91,-150.81 57,-132 34.46,-96.39 72.53,-50.46 96.6,-26.74"/>
<polygon fill="midnightblue" stroke="midnightblue" points="99.28,-29.02 104.11,-19.59 94.45,-23.94 99.28,-29.02"/>
</g>
<!-- Node8 -->
<g id="node8" class="node">
<title>Node8</title>
<g id="a_node8"><a xlink:title=" ">
<polygon fill="white" stroke="#bfbfbf" points="220.5,-112.5 220.5,-131.5 327.5,-131.5 327.5,-112.5 220.5,-112.5"/>
<text text-anchor="middle" x="274" y="-119.5" font-family="Helvetica,sans-Serif" font-size="10.00">AH/STL/type_traits</text>
</a>
</g>
</g>
<!-- Node4&#45;&gt;Node8 -->
<g id="edge10" class="edge">
<title>Node4&#45;&gt;Node8</title>
<path fill="none" stroke="midnightblue" d="M171.33,-168.44C191.32,-159.6 222.74,-145.69 245.56,-135.59"/>
<polygon fill="midnightblue" stroke="midnightblue" points="247.03,-138.76 254.76,-131.52 244.2,-132.36 247.03,-138.76"/>
</g>
<!-- Node5&#45;&gt;Node2 -->
<g id="edge9" class="edge">
<title>Node5&#45;&gt;Node2</title>
<path fill="none" stroke="midnightblue" d="M202.04,-112.87C205.4,-112.56 208.74,-112.26 212,-112 523.72,-86.8 893.14,-74.47 1072.1,-69.61"/>
<polygon fill="midnightblue" stroke="midnightblue" points="1072.4,-73.1 1082.31,-69.33 1072.22,-66.1 1072.4,-73.1"/>
</g>
<!-- Node5&#45;&gt;Node3 -->
<g id="edge5" class="edge">
<title>Node5&#45;&gt;Node3</title>
<path fill="none" stroke="midnightblue" d="M163.21,-112.49C193.32,-103.65 241.57,-89.27 283,-76 309.37,-67.55 315.04,-62.32 342,-56 427.19,-36.04 526.78,-24.06 595.1,-17.54"/>
<polygon fill="midnightblue" stroke="midnightblue" points="595.74,-21 605.37,-16.58 595.09,-14.03 595.74,-21"/>
</g>
<!-- Node6 -->
<g id="node6" class="node">
<title>Node6</title>
<g id="a_node6"><a xlink:href="../../d6/d3b/FixArduinoMacros_8hpp.html" target="_top" xlink:title=" ">
<polygon fill="white" stroke="black" points="104,-56.5 104,-75.5 274,-75.5 274,-56.5 104,-56.5"/>
<text text-anchor="middle" x="189" y="-63.5" font-family="Helvetica,sans-Serif" font-size="10.00">AH/Math/FixArduinoMacros.hpp</text>
</a>
</g>
</g>
<!-- Node5&#45;&gt;Node6 -->
<g id="edge6" class="edge">
<title>Node5&#45;&gt;Node6</title>
<path fill="none" stroke="midnightblue" d="M143.08,-112.08C151.17,-104.14 163.2,-92.34 172.91,-82.8"/>
<polygon fill="midnightblue" stroke="midnightblue" points="175.4,-85.25 180.09,-75.75 170.5,-80.26 175.4,-85.25"/>
</g>
<!-- Node6&#45;&gt;Node3 -->
<g id="edge7" class="edge">
<title>Node6&#45;&gt;Node3</title>
<path fill="none" stroke="midnightblue" d="M266.06,-56.47C355.76,-46.55 503.29,-30.22 595.04,-20.07"/>
<polygon fill="midnightblue" stroke="midnightblue" points="595.56,-23.53 605.12,-18.95 594.79,-16.58 595.56,-23.53"/>
</g>
<!-- Node6&#45;&gt;Node7 -->
<g id="edge8" class="edge">
<title>Node6&#45;&gt;Node7</title>
<path fill="none" stroke="midnightblue" d="M176.95,-56.32C165.54,-48.11 148.17,-35.6 134.57,-25.81"/>
<polygon fill="midnightblue" stroke="midnightblue" points="136.43,-22.84 126.27,-19.83 132.34,-28.52 136.43,-22.84"/>
</g>
<!-- Node9&#45;&gt;Node2 -->
<g id="edge54" class="edge">
<title>Node9&#45;&gt;Node2</title>
<path fill="none" stroke="midnightblue" d="M1352.35,-694.42C1340.99,-685.43 1327.84,-672.72 1321,-658 1294.16,-600.22 1311,-578.71 1311,-515 1311,-515 1311,-515 1311,-401 1311,-326.18 1283,-309.82 1283,-235 1283,-235 1283,-235 1283,-177 1283,-132.43 1237.38,-98.46 1206.86,-80.73"/>
<polygon fill="midnightblue" stroke="midnightblue" points="1208.38,-77.57 1197.94,-75.75 1204.97,-83.68 1208.38,-77.57"/>
</g>
<!-- Node9&#45;&gt;Node3 -->
<g id="edge55" class="edge">
<title>Node9&#45;&gt;Node3</title>
<path fill="none" stroke="midnightblue" d="M1461.87,-701.14C1539.88,-689.23 1641,-658.06 1641,-576.5 1641,-576.5 1641,-576.5 1641,-121 1641,-90.9 1645.65,-74.62 1622,-56 1588.34,-29.5 981.69,-16.3 758.52,-12.33"/>
<polygon fill="midnightblue" stroke="midnightblue" points="758.56,-8.83 748.5,-12.15 758.44,-15.83 758.56,-8.83"/>
</g>
<!-- Node10 -->
<g id="node10" class="node">
<title>Node10</title>
<g id="a_node10"><a xlink:href="../../d2/d3c/Arduino-Hardware-Types_8hpp.html" target="_top" xlink:title=" ">
<polygon fill="white" stroke="black" points="1435,-627.5 1435,-657.5 1557,-657.5 1557,-627.5 1435,-627.5"/>
<text text-anchor="start" x="1443" y="-645.5" font-family="Helvetica,sans-Serif" font-size="10.00">AH/Hardware/Arduino</text>
<text text-anchor="middle" x="1496" y="-634.5" font-family="Helvetica,sans-Serif" font-size="10.00">&#45;Hardware&#45;Types.hpp</text>
</a>
</g>
</g>
<!-- Node9&#45;&gt;Node10 -->
<g id="edge13" class="edge">
<title>Node9&#45;&gt;Node10</title>
<path fill="none" stroke="midnightblue" d="M1399.69,-694.4C1417.5,-684.98 1441.12,-672.5 1460.51,-662.26"/>
<polygon fill="midnightblue" stroke="midnightblue" points="1462.16,-665.34 1469.36,-657.58 1458.89,-659.15 1462.16,-665.34"/>
</g>
<!-- Node28 -->
<g id="node28" class="node">
<title>Node28</title>
<g id="a_node28"><a xlink:title=" ">
<polygon fill="white" stroke="#bfbfbf" points="1329.5,-633 1329.5,-652 1416.5,-652 1416.5,-633 1329.5,-633"/>
<text text-anchor="middle" x="1373" y="-640" font-family="Helvetica,sans-Serif" font-size="10.00">AH/STL/climits</text>
</a>
</g>
</g>
<!-- Node9&#45;&gt;Node28 -->
<g id="edge53" class="edge">
<title>Node9&#45;&gt;Node28</title>
<path fill="none" stroke="midnightblue" d="M1373,-694.4C1373,-685.06 1373,-672.71 1373,-662.52"/>
<polygon fill="midnightblue" stroke="midnightblue" points="1376.5,-662.19 1373,-652.19 1369.5,-662.19 1376.5,-662.19"/>
</g>
<!-- Node10&#45;&gt;Node3 -->
<g id="edge14" class="edge">
<title>Node10&#45;&gt;Node3</title>
<path fill="none" stroke="midnightblue" d="M1461.07,-627.4C1420.48,-608.42 1359,-570.52 1359,-515 1359,-515 1359,-515 1359,-121 1359,-85.35 1343.15,-73.33 1312,-56 1264.81,-29.74 919.51,-17.35 758.83,-12.95"/>
<polygon fill="midnightblue" stroke="midnightblue" points="758.61,-9.45 748.52,-12.68 758.42,-16.44 758.61,-9.45"/>
</g>
<!-- Node10&#45;&gt;Node4 -->
<g id="edge52" class="edge">
<title>Node10&#45;&gt;Node4</title>
<path fill="none" stroke="midnightblue" d="M1434.98,-628.47C1431.95,-627.95 1428.94,-627.45 1426,-627 973.88,-557.63 837.65,-663.4 402,-524 329.26,-500.73 280,-479.37 280,-403 280,-403 280,-403 280,-289 280,-239.64 224.58,-207.61 186.67,-191.48"/>
<polygon fill="midnightblue" stroke="midnightblue" points="187.57,-188.06 176.98,-187.53 184.93,-194.55 187.57,-188.06"/>
</g>
<!-- Node11 -->
<g id="node11" class="node">
<title>Node11</title>
<g id="a_node11"><a xlink:href="../../d4/d35/Hardware-Types_8hpp.html" target="_top" xlink:title=" ">
<polygon fill="white" stroke="black" points="1151.5,-560.5 1151.5,-590.5 1282.5,-590.5 1282.5,-560.5 1151.5,-560.5"/>
<text text-anchor="start" x="1159.5" y="-578.5" font-family="Helvetica,sans-Serif" font-size="10.00">AH/Hardware/Hardware</text>
<text text-anchor="middle" x="1217" y="-567.5" font-family="Helvetica,sans-Serif" font-size="10.00">&#45;Types.hpp</text>
</a>
</g>
</g>
<!-- Node10&#45;&gt;Node11 -->
<g id="edge15" class="edge">
<title>Node10&#45;&gt;Node11</title>
<path fill="none" stroke="midnightblue" d="M1435.8,-627.48C1392.23,-617.32 1333.19,-603.57 1287.42,-592.91"/>
<polygon fill="midnightblue" stroke="midnightblue" points="1288.1,-589.47 1277.57,-590.61 1286.51,-596.29 1288.1,-589.47"/>
</g>
<!-- Node25 -->
<g id="node25" class="node">
<title>Node25</title>
<g id="a_node25"><a xlink:href="../../d0/db1/FunctionTraits_8hpp.html" target="_top" xlink:title=" ">
<polygon fill="white" stroke="black" points="1388.5,-112.5 1388.5,-131.5 1541.5,-131.5 1541.5,-112.5 1388.5,-112.5"/>
<text text-anchor="middle" x="1465" y="-119.5" font-family="Helvetica,sans-Serif" font-size="10.00">AH/Types/FunctionTraits.hpp</text>
</a>
</g>
</g>
<!-- Node10&#45;&gt;Node25 -->
<g id="edge47" class="edge">
<title>Node10&#45;&gt;Node25</title>
<path fill="none" stroke="midnightblue" d="M1493.98,-627.5C1490.81,-604.2 1485,-556 1485,-515 1485,-515 1485,-515 1485,-233 1485,-200.44 1476.41,-163.32 1470.49,-141.59"/>
<polygon fill="midnightblue" stroke="midnightblue" points="1473.79,-140.41 1467.7,-131.74 1467.06,-142.32 1473.79,-140.41"/>
</g>
<!-- Node11&#45;&gt;Node2 -->
<g id="edge45" class="edge">
<title>Node11&#45;&gt;Node2</title>
<path fill="none" stroke="midnightblue" d="M1220.64,-560.39C1225.9,-538.73 1235,-495.94 1235,-459 1235,-459 1235,-459 1235,-401 1235,-327.09 1245,-308.91 1245,-235 1245,-235 1245,-235 1245,-177 1245,-146.2 1237,-138.31 1221,-112 1214.58,-101.43 1205.46,-91.13 1197.45,-83.05"/>
<polygon fill="midnightblue" stroke="midnightblue" points="1199.58,-80.23 1189.96,-75.79 1194.71,-85.26 1199.58,-80.23"/>
</g>
<!-- Node11&#45;&gt;Node3 -->
<g id="edge16" class="edge">
<title>Node11&#45;&gt;Node3</title>
<path fill="none" stroke="midnightblue" d="M1229.15,-560.26C1245.62,-539.46 1273,-498.89 1273,-459 1273,-459 1273,-459 1273,-401 1273,-324.2 1321,-311.8 1321,-235 1321,-235 1321,-235 1321,-121 1321,-88.4 1314.25,-73.9 1287,-56 1243.88,-27.67 914.63,-16.42 758.57,-12.64"/>
<polygon fill="midnightblue" stroke="midnightblue" points="758.63,-9.14 748.55,-12.41 758.46,-16.14 758.63,-9.14"/>
</g>
<!-- Node12 -->
<g id="node12" class="node">
<title>Node12</title>
<g id="a_node12"><a xlink:href="../../de/d76/Array_8hpp.html" target="_top" xlink:title=" ">
<polygon fill="white" stroke="black" points="410.5,-504.5 410.5,-523.5 545.5,-523.5 545.5,-504.5 410.5,-504.5"/>
<text text-anchor="middle" x="478" y="-511.5" font-family="Helvetica,sans-Serif" font-size="10.00">AH/Containers/Array.hpp</text>
</a>
</g>
</g>
<!-- Node11&#45;&gt;Node12 -->
<g id="edge17" class="edge">
<title>Node11&#45;&gt;Node12</title>
<path fill="none" stroke="midnightblue" d="M1151.17,-561.97C1146.38,-561.24 1141.62,-560.57 1137,-560 927.8,-533.98 679.23,-522.13 555.71,-517.51"/>
<polygon fill="midnightblue" stroke="midnightblue" points="555.72,-514.01 545.59,-517.14 555.46,-521 555.72,-514.01"/>
</g>
<!-- Node22 -->
<g id="node22" class="node">
<title>Node22</title>
<g id="a_node22"><a xlink:title=" ">
<polygon fill="white" stroke="#bfbfbf" points="858.5,-224.5 858.5,-243.5 911.5,-243.5 911.5,-224.5 858.5,-224.5"/>
<text text-anchor="middle" x="885" y="-231.5" font-family="Helvetica,sans-Serif" font-size="10.00">stdint.h</text>
</a>
</g>
</g>
<!-- Node11&#45;&gt;Node22 -->
<g id="edge46" class="edge">
<title>Node11&#45;&gt;Node22</title>
<path fill="none" stroke="midnightblue" d="M1203.16,-560.34C1149.71,-505.69 956.99,-308.61 900.6,-250.95"/>
<polygon fill="midnightblue" stroke="midnightblue" points="903.07,-248.47 893.58,-243.77 898.07,-253.37 903.07,-248.47"/>
</g>
<!-- Node12&#45;&gt;Node3 -->
<g id="edge18" class="edge">
<title>Node12&#45;&gt;Node3</title>
<path fill="none" stroke="midnightblue" d="M410.18,-505.1C384.24,-498.87 356.29,-487.77 337,-468 315.98,-446.46 318,-433.1 318,-403 318,-403 318,-403 318,-345 318,-269.31 356,-254.69 356,-179 356,-179 356,-179 356,-121 356,-83.44 377.45,-74.74 410,-56 440.86,-38.24 528.68,-25.74 595.24,-18.5"/>
<polygon fill="midnightblue" stroke="midnightblue" points="595.75,-21.96 605.32,-17.42 595,-15 595.75,-21.96"/>
</g>
<!-- Node12&#45;&gt;Node8 -->
<g id="edge43" class="edge">
<title>Node12&#45;&gt;Node8</title>
<path fill="none" stroke="midnightblue" d="M476.15,-504.37C473.3,-491.7 467.26,-467.48 459,-448 406.37,-323.85 317.37,-187.23 285.66,-140.09"/>
<polygon fill="midnightblue" stroke="midnightblue" points="288.45,-137.97 279.95,-131.65 282.65,-141.9 288.45,-137.97"/>
</g>
<!-- Node13 -->
<g id="node13" class="node">
<title>Node13</title>
<g id="a_node13"><a xlink:href="../../d1/d93/Error_8hpp.html" target="_top" xlink:title=" ">
<polygon fill="white" stroke="black" points="346,-448.5 346,-467.5 450,-467.5 450,-448.5 346,-448.5"/>
<text text-anchor="middle" x="398" y="-455.5" font-family="Helvetica,sans-Serif" font-size="10.00">AH/Error/Error.hpp</text>
</a>
</g>
</g>
<!-- Node12&#45;&gt;Node13 -->
<g id="edge19" class="edge">
<title>Node12&#45;&gt;Node13</title>
<path fill="none" stroke="midnightblue" d="M465.15,-504.32C452.78,-495.98 433.87,-483.21 419.26,-473.35"/>
<polygon fill="midnightblue" stroke="midnightblue" points="421.07,-470.35 410.82,-467.65 417.15,-476.15 421.07,-470.35"/>
</g>
<!-- Node21 -->
<g id="node21" class="node">
<title>Node21</title>
<g id="a_node21"><a xlink:title=" ">
<polygon fill="white" stroke="#bfbfbf" points="746,-224.5 746,-243.5 802,-243.5 802,-224.5 746,-224.5"/>
<text text-anchor="middle" x="774" y="-231.5" font-family="Helvetica,sans-Serif" font-size="10.00">stddef.h</text>
</a>
</g>
</g>
<!-- Node12&#45;&gt;Node21 -->
<g id="edge44" class="edge">
<title>Node12&#45;&gt;Node21</title>
<path fill="none" stroke="midnightblue" d="M545.91,-508.46C660.76,-498.9 881,-471.63 881,-403 881,-403 881,-403 881,-345 881,-299.41 833.2,-265.62 801.49,-248.23"/>
<polygon fill="midnightblue" stroke="midnightblue" points="803.12,-245.13 792.64,-243.56 799.85,-251.32 803.12,-245.13"/>
</g>
<!-- Node24 -->
<g id="node24" class="node">
<title>Node24</title>
<g id="a_node24"><a xlink:title=" ">
<polygon fill="white" stroke="#bfbfbf" points="909,-448.5 909,-467.5 999,-467.5 999,-448.5 909,-448.5"/>
<text text-anchor="middle" x="954" y="-455.5" font-family="Helvetica,sans-Serif" font-size="10.00">AH/STL/iterator</text>
</a>
</g>
</g>
<!-- Node12&#45;&gt;Node24 -->
<g id="edge42" class="edge">
<title>Node12&#45;&gt;Node24</title>
<path fill="none" stroke="midnightblue" d="M545.64,-506.62C628.22,-498.62 772.07,-484 895,-468 896.27,-467.83 897.56,-467.66 898.85,-467.49"/>
<polygon fill="midnightblue" stroke="midnightblue" points="899.51,-470.93 908.93,-466.08 898.54,-464 899.51,-470.93"/>
</g>
<!-- Node13&#45;&gt;Node3 -->
<g id="edge20" class="edge">
<title>Node13&#45;&gt;Node3</title>
<path fill="none" stroke="midnightblue" d="M397.48,-448.45C396.39,-429.95 394,-384.84 394,-347 394,-347 394,-347 394,-121 394,-84.55 412.98,-75.14 444,-56 489.24,-28.08 548.07,-16.87 595.29,-12.62"/>
<polygon fill="midnightblue" stroke="midnightblue" points="595.81,-16.09 605.49,-11.8 595.24,-9.12 595.81,-16.09"/>
</g>
<!-- Node14 -->
<g id="node14" class="node">
<title>Node14</title>
<g id="a_node14"><a xlink:href="../../df/dee/Debug_8hpp.html" target="_top" xlink:title=" ">
<polygon fill="white" stroke="black" points="654.5,-392.5 654.5,-411.5 775.5,-411.5 775.5,-392.5 654.5,-392.5"/>
<text text-anchor="middle" x="715" y="-399.5" font-family="Helvetica,sans-Serif" font-size="10.00">AH/Debug/Debug.hpp</text>
</a>
</g>
</g>
<!-- Node13&#45;&gt;Node14 -->
<g id="edge21" class="edge">
<title>Node13&#45;&gt;Node14</title>
<path fill="none" stroke="midnightblue" d="M448.23,-448.44C504.34,-438.89 595.13,-423.42 654.95,-413.23"/>
<polygon fill="midnightblue" stroke="midnightblue" points="655.74,-416.65 665.01,-411.52 654.56,-409.75 655.74,-416.65"/>
</g>
<!-- Node14&#45;&gt;Node3 -->
<g id="edge22" class="edge">
<title>Node14&#45;&gt;Node3</title>
<path fill="none" stroke="midnightblue" d="M666.35,-392.45C585.44,-376.84 432,-340.68 432,-291 432,-291 432,-291 432,-121 432,-47.9 523.9,-23.08 595.13,-14.82"/>
<polygon fill="midnightblue" stroke="midnightblue" points="595.9,-18.26 605.48,-13.72 595.16,-11.3 595.9,-18.26"/>
</g>
<!-- Node15 -->
<g id="node15" class="node">
<title>Node15</title>
<g id="a_node15"><a xlink:href="../../dd/d80/PrintStream_8hpp.html" target="_top" xlink:title=" ">
<polygon fill="white" stroke="black" points="929.5,-224.5 929.5,-243.5 1102.5,-243.5 1102.5,-224.5 929.5,-224.5"/>
<text text-anchor="middle" x="1016" y="-231.5" font-family="Helvetica,sans-Serif" font-size="10.00">AH/PrintStream/PrintStream.hpp</text>
</a>
</g>
</g>
<!-- Node14&#45;&gt;Node15 -->
<g id="edge23" class="edge">
<title>Node14&#45;&gt;Node15</title>
<path fill="none" stroke="midnightblue" d="M735.2,-392.48C755.23,-383.86 786.65,-369.85 813,-356 880.63,-320.45 957.28,-272.59 994.05,-249.15"/>
<polygon fill="midnightblue" stroke="midnightblue" points="995.97,-252.07 1002.51,-243.73 992.2,-246.18 995.97,-252.07"/>
</g>
<!-- Node16 -->
<g id="node16" class="node">
<title>Node16</title>
<g id="a_node16"><a xlink:href="../../d2/dd5/SettingsWrapper_8hpp.html" target="_top" xlink:title=" ">
<polygon fill="white" stroke="black" points="626,-336.5 626,-355.5 804,-355.5 804,-336.5 626,-336.5"/>
<text text-anchor="middle" x="715" y="-343.5" font-family="Helvetica,sans-Serif" font-size="10.00">AH/Settings/SettingsWrapper.hpp</text>
</a>
</g>
</g>
<!-- Node14&#45;&gt;Node16 -->
<g id="edge27" class="edge">
<title>Node14&#45;&gt;Node16</title>
<path fill="none" stroke="midnightblue" d="M709.83,-392.08C708.32,-384.93 707.89,-374.64 708.54,-365.69"/>
<polygon fill="midnightblue" stroke="midnightblue" points="712.02,-366.13 709.87,-355.75 705.08,-365.2 712.02,-366.13"/>
</g>
<!-- Node15&#45;&gt;Node2 -->
<g id="edge24" class="edge">
<title>Node15&#45;&gt;Node2</title>
<path fill="none" stroke="midnightblue" d="M1024.82,-224.08C1051.3,-197.27 1130.41,-117.19 1164.31,-82.89"/>
<polygon fill="midnightblue" stroke="midnightblue" points="1167,-85.14 1171.54,-75.57 1162.02,-80.22 1167,-85.14"/>
</g>
<!-- Node15&#45;&gt;Node3 -->
<g id="edge25" class="edge">
<title>Node15&#45;&gt;Node3</title>
<path fill="none" stroke="midnightblue" d="M1002.71,-224.3C951.02,-190.45 763.07,-67.37 698.76,-25.25"/>
<polygon fill="midnightblue" stroke="midnightblue" points="700.48,-22.19 690.2,-19.64 696.65,-28.05 700.48,-22.19"/>
</g>
<!-- Node15&#45;&gt;Node4 -->
<g id="edge26" class="edge">
<title>Node15&#45;&gt;Node4</title>
<path fill="none" stroke="midnightblue" d="M929.29,-224.66C926.49,-224.43 923.73,-224.21 921,-224 665.14,-204.4 360.82,-188.9 224.42,-182.37"/>
<polygon fill="midnightblue" stroke="midnightblue" points="224.26,-178.86 214.1,-181.87 223.92,-185.85 224.26,-178.86"/>
</g>
<!-- Node16&#45;&gt;Node2 -->
<g id="edge29" class="edge">
<title>Node16&#45;&gt;Node2</title>
<path fill="none" stroke="midnightblue" d="M750.09,-336.39C770.54,-329.67 795.31,-318.31 811,-300 830.58,-277.14 830,-265.1 830,-235 830,-235 830,-235 830,-177 830,-121.98 989.37,-91.13 1093.03,-76.88"/>
<polygon fill="midnightblue" stroke="midnightblue" points="1093.75,-80.31 1103.19,-75.51 1092.81,-73.38 1093.75,-80.31"/>
</g>
<!-- Node16&#45;&gt;Node3 -->
<g id="edge28" class="edge">
<title>Node16&#45;&gt;Node3</title>
<path fill="none" stroke="midnightblue" d="M789.21,-336.44C913.73,-320.37 1147.84,-282 1112,-224 1031.54,-93.82 845.62,-41.08 744.86,-21.47"/>
<polygon fill="midnightblue" stroke="midnightblue" points="745.26,-17.98 734.79,-19.57 743.96,-24.86 745.26,-17.98"/>
</g>
<!-- Node16&#45;&gt;Node14 -->
<g id="edge41" class="edge">
<title>Node16&#45;&gt;Node14</title>
<path fill="none" stroke="midnightblue" d="M720.13,-355.75C721.66,-362.86 722.1,-373.14 721.47,-382.1"/>
<polygon fill="midnightblue" stroke="midnightblue" points="717.99,-381.71 720.17,-392.08 724.93,-382.62 717.99,-381.71"/>
</g>
<!-- Node17 -->
<g id="node17" class="node">
<title>Node17</title>
<g id="a_node17"><a xlink:href="../../db/d02/Settings_8hpp.html" target="_top" xlink:title="All user settings and debugging options can be changed here.">
<polygon fill="white" stroke="black" points="533.5,-280.5 533.5,-299.5 610.5,-299.5 610.5,-280.5 533.5,-280.5"/>
<text text-anchor="middle" x="572" y="-287.5" font-family="Helvetica,sans-Serif" font-size="10.00">Settings.hpp</text>
</a>
</g>
</g>
<!-- Node16&#45;&gt;Node17 -->
<g id="edge30" class="edge">
<title>Node16&#45;&gt;Node17</title>
<path fill="none" stroke="midnightblue" d="M692.34,-336.44C668.6,-327.48 631.09,-313.31 604.26,-303.18"/>
<polygon fill="midnightblue" stroke="midnightblue" points="605.14,-299.77 594.55,-299.52 602.67,-306.32 605.14,-299.77"/>
</g>
<!-- Node23 -->
<g id="node23" class="node">
<title>Node23</title>
<g id="a_node23"><a xlink:href="../../d9/d98/TeensyUSBTypes_8hpp.html" target="_top" xlink:title=" ">
<polygon fill="white" stroke="black" points="628.5,-280.5 628.5,-299.5 801.5,-299.5 801.5,-280.5 628.5,-280.5"/>
<text text-anchor="middle" x="715" y="-287.5" font-family="Helvetica,sans-Serif" font-size="10.00">AH/Teensy/TeensyUSBTypes.hpp</text>
</a>
</g>
</g>
<!-- Node16&#45;&gt;Node23 -->
<g id="edge40" class="edge">
<title>Node16&#45;&gt;Node23</title>
<path fill="none" stroke="midnightblue" d="M715,-336.08C715,-329.01 715,-318.86 715,-309.99"/>
<polygon fill="midnightblue" stroke="midnightblue" points="718.5,-309.75 715,-299.75 711.5,-309.75 718.5,-309.75"/>
</g>
<!-- Node18 -->
<g id="node18" class="node">
<title>Node18</title>
<g id="a_node18"><a xlink:href="../../dc/d50/Frequency_8hpp.html" target="_top" xlink:title=" ">
<polygon fill="white" stroke="black" points="610,-112.5 610,-131.5 744,-131.5 744,-112.5 610,-112.5"/>
<text text-anchor="middle" x="677" y="-119.5" font-family="Helvetica,sans-Serif" font-size="10.00">AH/Types/Frequency.hpp</text>
</a>
</g>
</g>
<!-- Node17&#45;&gt;Node18 -->
<g id="edge31" class="edge">
<title>Node17&#45;&gt;Node18</title>
<path fill="none" stroke="midnightblue" d="M586.32,-280.21C598.53,-272.1 615.82,-259.06 627,-244 650.85,-211.87 665.54,-166.71 672.39,-141.64"/>
<polygon fill="midnightblue" stroke="midnightblue" points="675.86,-142.21 674.99,-131.65 669.09,-140.44 675.86,-142.21"/>
</g>
<!-- Node19 -->
<g id="node19" class="node">
<title>Node19</title>
<g id="a_node19"><a xlink:href="../../d7/d7c/ADCConfig_8hpp.html" target="_top" xlink:title="This file contains the platform&#45;specific ADC resolutions.">
<polygon fill="white" stroke="black" points="460.5,-224.5 460.5,-243.5 617.5,-243.5 617.5,-224.5 460.5,-224.5"/>
<text text-anchor="middle" x="539" y="-231.5" font-family="Helvetica,sans-Serif" font-size="10.00">AH/Hardware/ADCConfig.hpp</text>
</a>
</g>
</g>
<!-- Node17&#45;&gt;Node19 -->
<g id="edge34" class="edge">
<title>Node17&#45;&gt;Node19</title>
<path fill="none" stroke="midnightblue" d="M566.55,-280.08C561.99,-272.61 555.33,-261.72 549.71,-252.52"/>
<polygon fill="midnightblue" stroke="midnightblue" points="552.55,-250.46 544.35,-243.75 546.58,-254.11 552.55,-250.46"/>
</g>
<!-- Node20 -->
<g id="node20" class="node">
<title>Node20</title>
<g id="a_node20"><a xlink:title=" ">
<polygon fill="white" stroke="#bfbfbf" points="674.5,-224.5 674.5,-243.5 727.5,-243.5 727.5,-224.5 674.5,-224.5"/>
<text text-anchor="middle" x="701" y="-231.5" font-family="Helvetica,sans-Serif" font-size="10.00">limits.h</text>
</a>
</g>
</g>
<!-- Node17&#45;&gt;Node20 -->
<g id="edge37" class="edge">
<title>Node17&#45;&gt;Node20</title>
<path fill="none" stroke="midnightblue" d="M592.44,-280.44C613.67,-271.56 647.1,-257.56 671.25,-247.45"/>
<polygon fill="midnightblue" stroke="midnightblue" points="672.78,-250.61 680.66,-243.52 670.08,-244.15 672.78,-250.61"/>
</g>
<!-- Node17&#45;&gt;Node21 -->
<g id="edge38" class="edge">
<title>Node17&#45;&gt;Node21</title>
<path fill="none" stroke="midnightblue" d="M604.01,-280.44C639.85,-270.86 697.9,-255.34 736.02,-245.15"/>
<polygon fill="midnightblue" stroke="midnightblue" points="736.97,-248.52 745.73,-242.56 735.16,-241.76 736.97,-248.52"/>
</g>
<!-- Node17&#45;&gt;Node22 -->
<g id="edge39" class="edge">
<title>Node17&#45;&gt;Node22</title>
<path fill="none" stroke="midnightblue" d="M610.5,-281.72C613.71,-281.13 616.91,-280.55 620,-280 701.44,-265.45 797.17,-249.47 848.35,-241.02"/>
<polygon fill="midnightblue" stroke="midnightblue" points="848.97,-244.46 858.27,-239.38 847.83,-237.56 848.97,-244.46"/>
</g>
<!-- Node18&#45;&gt;Node2 -->
<g id="edge33" class="edge">
<title>Node18&#45;&gt;Node2</title>
<path fill="none" stroke="midnightblue" d="M744.05,-113.8C833.27,-104.22 991.26,-87.26 1090.55,-76.6"/>
<polygon fill="midnightblue" stroke="midnightblue" points="1091,-80.07 1100.57,-75.53 1090.25,-73.11 1091,-80.07"/>
</g>
<!-- Node18&#45;&gt;Node3 -->
<g id="edge32" class="edge">
<title>Node18&#45;&gt;Node3</title>
<path fill="none" stroke="midnightblue" d="M677,-112.37C677,-94.62 677,-53.67 677,-29.6"/>
<polygon fill="midnightblue" stroke="midnightblue" points="680.5,-29.59 677,-19.59 673.5,-29.59 680.5,-29.59"/>
</g>
<!-- Node19&#45;&gt;Node3 -->
<g id="edge35" class="edge">
<title>Node19&#45;&gt;Node3</title>
<path fill="none" stroke="midnightblue" d="M542.87,-224.21C551.96,-203.87 575.83,-152.21 601,-112 620.59,-80.71 647.25,-46.92 663.23,-27.44"/>
<polygon fill="midnightblue" stroke="midnightblue" points="666.08,-29.49 669.76,-19.55 660.69,-25.03 666.08,-29.49"/>
</g>
<!-- Node19&#45;&gt;Node4 -->
<g id="edge36" class="edge">
<title>Node19&#45;&gt;Node4</title>
<path fill="none" stroke="midnightblue" d="M477.68,-224.44C408.47,-214.79 296.05,-199.1 223.06,-188.92"/>
<polygon fill="midnightblue" stroke="midnightblue" points="223.42,-185.43 213.03,-187.52 222.45,-192.36 223.42,-185.43"/>
</g>
<!-- Node25&#45;&gt;Node2 -->
<g id="edge51" class="edge">
<title>Node25&#45;&gt;Node2</title>
<path fill="none" stroke="midnightblue" d="M1419.84,-112.44C1369.71,-102.94 1288.78,-87.61 1234.99,-77.42"/>
<polygon fill="midnightblue" stroke="midnightblue" points="1235.42,-73.94 1224.95,-75.52 1234.12,-80.82 1235.42,-73.94"/>
</g>
<!-- Node25&#45;&gt;Node3 -->
<g id="edge50" class="edge">
<title>Node25&#45;&gt;Node3</title>
<path fill="none" stroke="midnightblue" d="M1456.31,-112.27C1441.03,-97.57 1407.66,-68.26 1373,-56 1261.92,-16.73 917.53,-11.16 758.73,-10.75"/>
<polygon fill="midnightblue" stroke="midnightblue" points="758.55,-7.25 748.54,-10.73 758.54,-14.25 758.55,-7.25"/>
</g>
<!-- Node26 -->
<g id="node26" class="node">
<title>Node26</title>
<g id="a_node26"><a xlink:title=" ">
<polygon fill="white" stroke="#bfbfbf" points="1523,-56.5 1523,-75.5 1613,-75.5 1613,-56.5 1523,-56.5"/>
<text text-anchor="middle" x="1568" y="-63.5" font-family="Helvetica,sans-Serif" font-size="10.00">AH/STL/cstddef</text>
</a>
</g>
</g>
<!-- Node25&#45;&gt;Node26 -->
<g id="edge48" class="edge">
<title>Node25&#45;&gt;Node26</title>
<path fill="none" stroke="midnightblue" d="M1481.55,-112.32C1497.99,-103.7 1523.43,-90.36 1542.47,-80.39"/>
<polygon fill="midnightblue" stroke="midnightblue" points="1544.26,-83.4 1551.49,-75.65 1541.01,-77.2 1544.26,-83.4"/>
</g>
<!-- Node27 -->
<g id="node27" class="node">
<title>Node27</title>
<g id="a_node27"><a xlink:title=" ">
<polygon fill="white" stroke="#bfbfbf" points="1425.5,-56.5 1425.5,-75.5 1504.5,-75.5 1504.5,-56.5 1425.5,-56.5"/>
<text text-anchor="middle" x="1465" y="-63.5" font-family="Helvetica,sans-Serif" font-size="10.00">AH/STL/tuple</text>
</a>
</g>
</g>
<!-- Node25&#45;&gt;Node27 -->
<g id="edge49" class="edge">
<title>Node25&#45;&gt;Node27</title>
<path fill="none" stroke="midnightblue" d="M1465,-112.08C1465,-105.01 1465,-94.86 1465,-85.99"/>
<polygon fill="midnightblue" stroke="midnightblue" points="1468.5,-85.75 1465,-75.75 1461.5,-85.75 1468.5,-85.75"/>
</g>
<!-- Node29&#45;&gt;Node2 -->
<g id="edge57" class="edge">
<title>Node29&#45;&gt;Node2</title>
<path fill="none" stroke="midnightblue" d="M337.25,-570.72C516.86,-562.08 897.47,-536.09 1008,-468 1115.17,-401.98 1169,-360.87 1169,-235 1169,-235 1169,-235 1169,-177 1169,-144.79 1173.73,-107.53 1176.98,-85.69"/>
<polygon fill="midnightblue" stroke="midnightblue" points="1180.49,-85.95 1178.56,-75.53 1173.57,-84.87 1180.49,-85.95"/>
</g>
<!-- Node29&#45;&gt;Node3 -->
<g id="edge58" class="edge">
<title>Node29&#45;&gt;Node3</title>
<path fill="none" stroke="midnightblue" d="M177.69,-565.92C146.71,-558.99 110.79,-546.49 85,-524 19.23,-466.64 0,-434.27 0,-347 0,-347 0,-347 0,-177 0,-108.63 34.71,-88.25 95,-56 138,-33 445.27,-19.15 595.17,-13.69"/>
<polygon fill="midnightblue" stroke="midnightblue" points="595.38,-17.19 605.24,-13.33 595.13,-10.19 595.38,-17.19"/>
</g>
<!-- Node29&#45;&gt;Node4 -->
<g id="edge59" class="edge">
<title>Node29&#45;&gt;Node4</title>
<path fill="none" stroke="midnightblue" d="M237.03,-565.84C226.73,-547.03 204,-500.8 204,-459 204,-459 204,-459 204,-289 204,-253.12 181.11,-216.42 165.7,-195.79"/>
<polygon fill="midnightblue" stroke="midnightblue" points="168.35,-193.5 159.45,-187.74 162.82,-197.79 168.35,-193.5"/>
</g>
<!-- Node29&#45;&gt;Node8 -->
<g id="edge62" class="edge">
<title>Node29&#45;&gt;Node8</title>
<path fill="none" stroke="midnightblue" d="M242,-565.81C242,-546.56 242,-498.9 242,-459 242,-459 242,-459 242,-233 242,-199.33 255.99,-162.08 265.47,-140.72"/>
<polygon fill="midnightblue" stroke="midnightblue" points="268.67,-142.14 269.68,-131.59 262.32,-139.21 268.67,-142.14"/>
</g>
<!-- Node29&#45;&gt;Node12 -->
<g id="edge60" class="edge">
<title>Node29&#45;&gt;Node12</title>
<path fill="none" stroke="midnightblue" d="M275.81,-565.98C317.52,-555.46 388.51,-537.56 434.31,-526.01"/>
<polygon fill="midnightblue" stroke="midnightblue" points="435.41,-529.35 444.25,-523.51 433.7,-522.56 435.41,-529.35"/>
</g>
<!-- Node30 -->
<g id="node30" class="node">
<title>Node30</title>
<g id="a_node30"><a xlink:title=" ">
<polygon fill="white" stroke="#bfbfbf" points="94,-504.5 94,-523.5 176,-523.5 176,-504.5 94,-504.5"/>
<text text-anchor="middle" x="135" y="-511.5" font-family="Helvetica,sans-Serif" font-size="10.00">AH/STL/limits</text>
</a>
</g>
</g>
<!-- Node29&#45;&gt;Node30 -->
<g id="edge61" class="edge">
<title>Node29&#45;&gt;Node30</title>
<path fill="none" stroke="midnightblue" d="M226.67,-565.98C209.03,-556.17 179.84,-539.93 159.14,-528.42"/>
<polygon fill="midnightblue" stroke="midnightblue" points="160.74,-525.31 150.3,-523.51 157.34,-531.43 160.74,-525.31"/>
</g>
</g>
</svg>
