<?xml version="1.0" encoding="UTF-8" standalone="no"?>
<!DOCTYPE svg PUBLIC "-//W3C//DTD SVG 1.1//EN"
 "http://www.w3.org/Graphics/SVG/1.1/DTD/svg11.dtd">
<!-- Generated by graphviz version 2.40.1 (20161225.0304)
 -->
<!-- Title: BitArray.hpp Pages: 1 -->
<svg width="829pt" height="532pt"
 viewBox="0.00 0.00 829.00 532.00" xmlns="http://www.w3.org/2000/svg" xmlns:xlink="http://www.w3.org/1999/xlink">
<g id="graph0" class="graph" transform="scale(1 1) rotate(0) translate(4 528)">
<title>BitArray.hpp</title>
<polygon fill="#ffffff" stroke="transparent" points="-4,4 -4,-528 825,-528 825,4 -4,4"/>
<!-- Node1 -->
<g id="node1" class="node">
<title>Node1</title>
<g id="a_node1"><a xlink:title=" ">
<polygon fill="#bfbfbf" stroke="#000000" points="708.5,-504.5 708.5,-523.5 779.5,-523.5 779.5,-504.5 708.5,-504.5"/>
<text text-anchor="middle" x="744" y="-511.5" font-family="Helvetica,sans-Serif" font-size="10.00" fill="#000000">BitArray.hpp</text>
</a>
</g>
</g>
<!-- Node2 -->
<g id="node2" class="node">
<title>Node2</title>
<g id="a_node2"><a xlink:href="../../d1/d65/Warnings_8hpp.html" target="_top" xlink:title=" ">
<polygon fill="#ffffff" stroke="#000000" points="310.5,-.5 310.5,-19.5 443.5,-19.5 443.5,-.5 310.5,-.5"/>
<text text-anchor="middle" x="377" y="-7.5" font-family="Helvetica,sans-Serif" font-size="10.00" fill="#000000">AH/Settings/Warnings.hpp</text>
</a>
</g>
</g>
<!-- Node1&#45;&gt;Node2 -->
<g id="edge1" class="edge">
<title>Node1&#45;&gt;Node2</title>
<path fill="none" stroke="#191970" d="M756.715,-504.4453C778.5851,-486.8115 821,-446.8332 821,-402 821,-402 821,-402 821,-122 821,-75.5625 782.6831,-74.2921 740,-56 690.0523,-34.5946 544.7374,-21.2548 453.8326,-14.7604"/>
<polygon fill="#191970" stroke="#191970" points="454.0673,-11.2683 443.8466,-14.0588 453.5767,-18.2511 454.0673,-11.2683"/>
</g>
<!-- Node3 -->
<g id="node3" class="node">
<title>Node3</title>
<g id="a_node3"><a xlink:href="../../d1/d93/Error_8hpp.html" target="_top" xlink:title=" ">
<polygon fill="#ffffff" stroke="#000000" points="412,-448.5 412,-467.5 510,-467.5 510,-448.5 412,-448.5"/>
<text text-anchor="middle" x="461" y="-455.5" font-family="Helvetica,sans-Serif" font-size="10.00" fill="#000000">AH/Error/Error.hpp</text>
</a>
</g>
</g>
<!-- Node1&#45;&gt;Node3 -->
<g id="edge2" class="edge">
<title>Node1&#45;&gt;Node3</title>
<path fill="none" stroke="#191970" d="M708.4444,-506.9643C660.8993,-497.556 576.0143,-480.759 519.1075,-469.4983"/>
<polygon fill="#191970" stroke="#191970" points="519.6632,-466.0405 509.174,-467.5327 518.3043,-472.9073 519.6632,-466.0405"/>
</g>
<!-- Node10 -->
<g id="node10" class="node">
<title>Node10</title>
<g id="a_node10"><a xlink:href="../../dc/dc7/NamespaceSettings_8hpp.html" target="_top" xlink:title=" ">
<polygon fill="#ffffff" stroke="#000000" points="526,-56.5 526,-75.5 706,-75.5 706,-56.5 526,-56.5"/>
<text text-anchor="middle" x="616" y="-63.5" font-family="Helvetica,sans-Serif" font-size="10.00" fill="#000000">AH/Settings/NamespaceSettings.hpp</text>
</a>
</g>
</g>
<!-- Node1&#45;&gt;Node10 -->
<g id="edge33" class="edge">
<title>Node1&#45;&gt;Node10</title>
<path fill="none" stroke="#191970" d="M749.9233,-504.2094C760.8334,-485.2164 783,-441.7379 783,-402 783,-402 783,-402 783,-178 783,-122.8053 719.2998,-93.0667 670.5827,-78.3939"/>
<polygon fill="#191970" stroke="#191970" points="671.3305,-74.9673 660.7529,-75.5725 669.3992,-81.6956 671.3305,-74.9673"/>
</g>
<!-- Node18 -->
<g id="node18" class="node">
<title>Node18</title>
<g id="a_node18"><a xlink:title=" ">
<polygon fill="#ffffff" stroke="#bfbfbf" points="667.5,-224.5 667.5,-243.5 716.5,-243.5 716.5,-224.5 667.5,-224.5"/>
<text text-anchor="middle" x="692" y="-231.5" font-family="Helvetica,sans-Serif" font-size="10.00" fill="#000000">stdint.h</text>
</a>
</g>
</g>
<!-- Node1&#45;&gt;Node18 -->
<g id="edge34" class="edge">
<title>Node1&#45;&gt;Node18</title>
<path fill="none" stroke="#191970" d="M737.1655,-504.3377C724.5769,-485.5638 699,-442.4436 699,-402 699,-402 699,-402 699,-346 699,-313.6486 696.0548,-276.1429 693.9851,-253.7814"/>
<polygon fill="#191970" stroke="#191970" points="697.4449,-253.1945 693.0029,-243.5758 690.4771,-253.8651 697.4449,-253.1945"/>
</g>
<!-- Node3&#45;&gt;Node2 -->
<g id="edge3" class="edge">
<title>Node3&#45;&gt;Node2</title>
<path fill="none" stroke="#191970" d="M411.6649,-456.4128C292.7395,-451.2502 0,-430.0101 0,-346 0,-346 0,-346 0,-122 0,-81.1401 27.6328,-74.6269 64,-56 104.0006,-35.5121 220.7704,-22.4202 299.8106,-15.6409"/>
<polygon fill="#191970" stroke="#191970" points="300.5467,-19.0915 310.2183,-14.7659 299.9602,-12.1161 300.5467,-19.0915"/>
</g>
<!-- Node4 -->
<g id="node4" class="node">
<title>Node4</title>
<g id="a_node4"><a xlink:href="../../df/dee/Debug_8hpp.html" target="_top" xlink:title=" ">
<polygon fill="#ffffff" stroke="#000000" points="404.5,-392.5 404.5,-411.5 517.5,-411.5 517.5,-392.5 404.5,-392.5"/>
<text text-anchor="middle" x="461" y="-399.5" font-family="Helvetica,sans-Serif" font-size="10.00" fill="#000000">AH/Debug/Debug.hpp</text>
</a>
</g>
</g>
<!-- Node3&#45;&gt;Node4 -->
<g id="edge4" class="edge">
<title>Node3&#45;&gt;Node4</title>
<path fill="none" stroke="#191970" d="M461,-448.2455C461,-440.9382 461,-430.6944 461,-421.7046"/>
<polygon fill="#191970" stroke="#191970" points="464.5001,-421.6426 461,-411.6427 457.5001,-421.6427 464.5001,-421.6426"/>
</g>
<!-- Node4&#45;&gt;Node2 -->
<g id="edge5" class="edge">
<title>Node4&#45;&gt;Node2</title>
<path fill="none" stroke="#191970" d="M513.4209,-392.4473C595.4811,-375.9812 745,-339.2248 745,-290 745,-290 745,-290 745,-122 745,-89.7785 740.8502,-75.2352 715,-56 674.8395,-26.1165 540.3203,-15.6412 453.5808,-11.9729"/>
<polygon fill="#191970" stroke="#191970" points="453.6437,-8.4726 443.5112,-11.5683 453.3626,-15.467 453.6437,-8.4726"/>
</g>
<!-- Node5 -->
<g id="node5" class="node">
<title>Node5</title>
<g id="a_node5"><a xlink:href="../../dd/d80/PrintStream_8hpp.html" target="_top" xlink:title=" ">
<polygon fill="#ffffff" stroke="#000000" points="74.5,-224.5 74.5,-243.5 233.5,-243.5 233.5,-224.5 74.5,-224.5"/>
<text text-anchor="middle" x="154" y="-231.5" font-family="Helvetica,sans-Serif" font-size="10.00" fill="#000000">AH/PrintStream/PrintStream.hpp</text>
</a>
</g>
</g>
<!-- Node4&#45;&gt;Node5 -->
<g id="edge6" class="edge">
<title>Node4&#45;&gt;Node5</title>
<path fill="none" stroke="#191970" d="M404.4128,-396.2995C365.6765,-390.4899 314.2432,-378.9047 274,-356 227.1132,-329.3141 186.3646,-279.1016 166.6374,-252.1662"/>
<polygon fill="#191970" stroke="#191970" points="169.2306,-249.7761 160.5608,-243.6863 163.5406,-253.8534 169.2306,-249.7761"/>
</g>
<!-- Node12 -->
<g id="node12" class="node">
<title>Node12</title>
<g id="a_node12"><a xlink:href="../../d2/dd5/SettingsWrapper_8hpp.html" target="_top" xlink:title=" ">
<polygon fill="#ffffff" stroke="#000000" points="379,-336.5 379,-355.5 543,-355.5 543,-336.5 379,-336.5"/>
<text text-anchor="middle" x="461" y="-343.5" font-family="Helvetica,sans-Serif" font-size="10.00" fill="#000000">AH/Settings/SettingsWrapper.hpp</text>
</a>
</g>
</g>
<!-- Node4&#45;&gt;Node12 -->
<g id="edge17" class="edge">
<title>Node4&#45;&gt;Node12</title>
<path fill="none" stroke="#191970" d="M455.7332,-392.2455C454.3221,-384.9382 453.9179,-374.6944 454.5205,-365.7046"/>
<polygon fill="#191970" stroke="#191970" points="458.0111,-365.9945 455.7549,-355.6427 451.0632,-365.1421 458.0111,-365.9945"/>
</g>
<!-- Node20 -->
<g id="node20" class="node">
<title>Node20</title>
<g id="a_node20"><a xlink:href="../../d7/d52/DebugVal_8hpp.html" target="_top" xlink:title=" ">
<polygon fill="#ffffff" stroke="#000000" points="283,-336.5 283,-355.5 361,-355.5 361,-336.5 283,-336.5"/>
<text text-anchor="middle" x="322" y="-343.5" font-family="Helvetica,sans-Serif" font-size="10.00" fill="#000000">DebugVal.hpp</text>
</a>
</g>
</g>
<!-- Node4&#45;&gt;Node20 -->
<g id="edge32" class="edge">
<title>Node4&#45;&gt;Node20</title>
<path fill="none" stroke="#191970" d="M437.105,-392.3733C414.4918,-383.2629 380.3458,-369.5062 355.1127,-359.3404"/>
<polygon fill="#191970" stroke="#191970" points="356.1666,-355.9917 345.5831,-355.5011 353.5507,-362.4845 356.1666,-355.9917"/>
</g>
<!-- Node5&#45;&gt;Node2 -->
<g id="edge7" class="edge">
<title>Node5&#45;&gt;Node2</title>
<path fill="none" stroke="#191970" d="M137.6147,-224.4576C125.2546,-216.3639 108.9492,-203.5951 100,-188 70.4671,-136.5354 41.3871,-101.0537 80,-56 94.2194,-39.4087 216.997,-24.8345 300.1746,-16.7415"/>
<polygon fill="#191970" stroke="#191970" points="300.7453,-20.2029 310.365,-15.763 300.0762,-13.2349 300.7453,-20.2029"/>
</g>
<!-- Node6 -->
<g id="node6" class="node">
<title>Node6</title>
<g id="a_node6"><a xlink:href="../../d6/ddf/Arduino-Wrapper_8h.html" target="_top" xlink:title=" ">
<polygon fill="#ffffff" stroke="#000000" points="109.5,-168.5 109.5,-187.5 224.5,-187.5 224.5,-168.5 109.5,-168.5"/>
<text text-anchor="middle" x="167" y="-175.5" font-family="Helvetica,sans-Serif" font-size="10.00" fill="#000000">AH/Arduino&#45;Wrapper.h</text>
</a>
</g>
</g>
<!-- Node5&#45;&gt;Node6 -->
<g id="edge8" class="edge">
<title>Node5&#45;&gt;Node6</title>
<path fill="none" stroke="#191970" d="M156.2644,-224.2455C157.9794,-216.8579 160.3912,-206.4689 162.4944,-197.4087"/>
<polygon fill="#191970" stroke="#191970" points="165.9095,-198.1751 164.7615,-187.6427 159.0908,-196.5922 165.9095,-198.1751"/>
</g>
<!-- Node7 -->
<g id="node7" class="node">
<title>Node7</title>
<g id="a_node7"><a xlink:href="../../d7/d79/MinMaxFix_8hpp.html" target="_top" xlink:title=" ">
<polygon fill="#ffffff" stroke="#000000" points="104.5,-112.5 104.5,-131.5 229.5,-131.5 229.5,-112.5 104.5,-112.5"/>
<text text-anchor="middle" x="167" y="-119.5" font-family="Helvetica,sans-Serif" font-size="10.00" fill="#000000">AH/Math/MinMaxFix.hpp</text>
</a>
</g>
</g>
<!-- Node6&#45;&gt;Node7 -->
<g id="edge9" class="edge">
<title>Node6&#45;&gt;Node7</title>
<path fill="none" stroke="#191970" d="M167,-168.2455C167,-160.9382 167,-150.6944 167,-141.7046"/>
<polygon fill="#191970" stroke="#191970" points="170.5001,-141.6426 167,-131.6427 163.5001,-141.6427 170.5001,-141.6426"/>
</g>
<!-- Node9 -->
<g id="node9" class="node">
<title>Node9</title>
<g id="a_node9"><a xlink:title=" ">
<polygon fill="#ffffff" stroke="#bfbfbf" points="36,-.5 36,-19.5 94,-19.5 94,-.5 36,-.5"/>
<text text-anchor="middle" x="65" y="-7.5" font-family="Helvetica,sans-Serif" font-size="10.00" fill="#000000">Arduino.h</text>
</a>
</g>
</g>
<!-- Node6&#45;&gt;Node9 -->
<g id="edge16" class="edge">
<title>Node6&#45;&gt;Node9</title>
<path fill="none" stroke="#191970" d="M143.2618,-168.3822C127.3603,-160.7678 107.1804,-148.6359 95,-132 72.4393,-101.1865 66.7057,-55.4533 65.3351,-29.6228"/>
<polygon fill="#191970" stroke="#191970" points="68.831,-29.4432 64.9728,-19.5758 61.8355,-29.6955 68.831,-29.4432"/>
</g>
<!-- Node11 -->
<g id="node11" class="node">
<title>Node11</title>
<g id="a_node11"><a xlink:title=" ">
<polygon fill="#ffffff" stroke="#bfbfbf" points="247.5,-112.5 247.5,-131.5 348.5,-131.5 348.5,-112.5 247.5,-112.5"/>
<text text-anchor="middle" x="298" y="-119.5" font-family="Helvetica,sans-Serif" font-size="10.00" fill="#000000">AH/STL/type_traits</text>
</a>
</g>
</g>
<!-- Node6&#45;&gt;Node11 -->
<g id="edge15" class="edge">
<title>Node6&#45;&gt;Node11</title>
<path fill="none" stroke="#191970" d="M189.5197,-168.3733C210.7372,-159.3032 242.7276,-145.6279 266.4769,-135.4755"/>
<polygon fill="#191970" stroke="#191970" points="267.9548,-138.6502 275.7742,-131.5011 265.2033,-132.2136 267.9548,-138.6502"/>
</g>
<!-- Node7&#45;&gt;Node2 -->
<g id="edge10" class="edge">
<title>Node7&#45;&gt;Node2</title>
<path fill="none" stroke="#191970" d="M185.3478,-112.3405C202.9669,-103.0548 230.3249,-88.6106 254,-76 287.1907,-58.3208 325.3372,-37.8243 350.2364,-24.4217"/>
<polygon fill="#191970" stroke="#191970" points="351.9473,-27.4756 359.0927,-19.653 348.6286,-21.3123 351.9473,-27.4756"/>
</g>
<!-- Node8 -->
<g id="node8" class="node">
<title>Node8</title>
<g id="a_node8"><a xlink:href="../../d6/d3b/FixArduinoMacros_8hpp.html" target="_top" xlink:title=" ">
<polygon fill="#ffffff" stroke="#000000" points="89,-56.5 89,-75.5 245,-75.5 245,-56.5 89,-56.5"/>
<text text-anchor="middle" x="167" y="-63.5" font-family="Helvetica,sans-Serif" font-size="10.00" fill="#000000">AH/Math/FixArduinoMacros.hpp</text>
</a>
</g>
</g>
<!-- Node7&#45;&gt;Node8 -->
<g id="edge11" class="edge">
<title>Node7&#45;&gt;Node8</title>
<path fill="none" stroke="#191970" d="M167,-112.2455C167,-104.9382 167,-94.6944 167,-85.7046"/>
<polygon fill="#191970" stroke="#191970" points="170.5001,-85.6426 167,-75.6427 163.5001,-85.6427 170.5001,-85.6426"/>
</g>
<!-- Node7&#45;&gt;Node10 -->
<g id="edge14" class="edge">
<title>Node7&#45;&gt;Node10</title>
<path fill="none" stroke="#191970" d="M229.7111,-113.1022C232.5118,-112.7254 235.2847,-112.3564 238,-112 335.5458,-99.1964 447.4201,-85.7338 523.9997,-76.7052"/>
<polygon fill="#191970" stroke="#191970" points="524.5745,-80.1618 534.0966,-75.5164 523.7559,-73.2098 524.5745,-80.1618"/>
</g>
<!-- Node8&#45;&gt;Node2 -->
<g id="edge12" class="edge">
<title>Node8&#45;&gt;Node2</title>
<path fill="none" stroke="#191970" d="M203.1003,-56.3733C238.6248,-46.9001 292.988,-32.4032 331.4619,-22.1435"/>
<polygon fill="#191970" stroke="#191970" points="332.6103,-25.4596 341.3708,-19.5011 330.8066,-18.696 332.6103,-25.4596"/>
</g>
<!-- Node8&#45;&gt;Node9 -->
<g id="edge13" class="edge">
<title>Node8&#45;&gt;Node9</title>
<path fill="none" stroke="#191970" d="M149.233,-56.2455C133.2905,-47.4928 109.6741,-34.527 91.5011,-24.5496"/>
<polygon fill="#191970" stroke="#191970" points="93.0137,-21.3873 82.5634,-19.6427 89.6448,-27.5233 93.0137,-21.3873"/>
</g>
<!-- Node12&#45;&gt;Node2 -->
<g id="edge18" class="edge">
<title>Node12&#45;&gt;Node2</title>
<path fill="none" stroke="#191970" d="M415.8954,-336.48C370.6218,-324.0876 304.22,-297.3753 280,-244 257.6959,-194.8468 331.5794,-187.4751 357,-132 372.4298,-98.3277 376.1454,-54.614 376.9284,-29.698"/>
<polygon fill="#191970" stroke="#191970" points="380.4281,-29.7393 377.1133,-19.6764 373.4293,-29.6101 380.4281,-29.7393"/>
</g>
<!-- Node12&#45;&gt;Node4 -->
<g id="edge31" class="edge">
<title>Node12&#45;&gt;Node4</title>
<path fill="none" stroke="#191970" d="M466.2451,-355.6427C467.6665,-362.9199 468.081,-373.155 467.4887,-382.1575"/>
<polygon fill="#191970" stroke="#191970" points="463.9947,-381.8972 466.2668,-392.2455 470.9439,-382.739 463.9947,-381.8972"/>
</g>
<!-- Node12&#45;&gt;Node10 -->
<g id="edge19" class="edge">
<title>Node12&#45;&gt;Node10</title>
<path fill="none" stroke="#191970" d="M513.5887,-336.4646C553.8354,-328.1579 604.9227,-315.0972 620,-300 641.5699,-278.4016 639,-264.5246 639,-234 639,-234 639,-234 639,-178 639,-144.906 629.2452,-107.4151 622.4412,-85.2901"/>
<polygon fill="#191970" stroke="#191970" points="625.7706,-84.2105 619.3937,-75.7497 619.1026,-86.3405 625.7706,-84.2105"/>
</g>
<!-- Node13 -->
<g id="node13" class="node">
<title>Node13</title>
<g id="a_node13"><a xlink:href="../../db/d02/Settings_8hpp.html" target="_top" xlink:title="All user settings and debugging options can be changed here.">
<polygon fill="#ffffff" stroke="#000000" points="353.5,-280.5 353.5,-299.5 424.5,-299.5 424.5,-280.5 353.5,-280.5"/>
<text text-anchor="middle" x="389" y="-287.5" font-family="Helvetica,sans-Serif" font-size="10.00" fill="#000000">Settings.hpp</text>
</a>
</g>
</g>
<!-- Node12&#45;&gt;Node13 -->
<g id="edge20" class="edge">
<title>Node12&#45;&gt;Node13</title>
<path fill="none" stroke="#191970" d="M448.4586,-336.2455C437.7213,-327.8943 422.0527,-315.7076 409.4953,-305.9408"/>
<polygon fill="#191970" stroke="#191970" points="411.4401,-303.0194 401.3977,-299.6427 407.1425,-308.5449 411.4401,-303.0194"/>
</g>
<!-- Node19 -->
<g id="node19" class="node">
<title>Node19</title>
<g id="a_node19"><a xlink:href="../../d9/d98/TeensyUSBTypes_8hpp.html" target="_top" xlink:title=" ">
<polygon fill="#ffffff" stroke="#000000" points="443,-280.5 443,-299.5 611,-299.5 611,-280.5 443,-280.5"/>
<text text-anchor="middle" x="527" y="-287.5" font-family="Helvetica,sans-Serif" font-size="10.00" fill="#000000">AH/Teensy/TeensyUSBTypes.hpp</text>
</a>
</g>
</g>
<!-- Node12&#45;&gt;Node19 -->
<g id="edge30" class="edge">
<title>Node12&#45;&gt;Node19</title>
<path fill="none" stroke="#191970" d="M472.4963,-336.2455C482.2442,-327.9746 496.4259,-315.9416 507.8798,-306.2232"/>
<polygon fill="#191970" stroke="#191970" points="510.2747,-308.7813 515.6354,-299.6427 505.7459,-303.4437 510.2747,-308.7813"/>
</g>
<!-- Node14 -->
<g id="node14" class="node">
<title>Node14</title>
<g id="a_node14"><a xlink:href="../../dc/d50/Frequency_8hpp.html" target="_top" xlink:title=" ">
<polygon fill="#ffffff" stroke="#000000" points="443,-112.5 443,-131.5 571,-131.5 571,-112.5 443,-112.5"/>
<text text-anchor="middle" x="507" y="-119.5" font-family="Helvetica,sans-Serif" font-size="10.00" fill="#000000">AH/Types/Frequency.hpp</text>
</a>
</g>
</g>
<!-- Node13&#45;&gt;Node14 -->
<g id="edge21" class="edge">
<title>Node13&#45;&gt;Node14</title>
<path fill="none" stroke="#191970" d="M404.3228,-280.345C416.7594,-271.9215 434.1197,-258.7601 446,-244 471.9843,-211.7173 490.9485,-166.5604 500.3479,-141.2165"/>
<polygon fill="#191970" stroke="#191970" points="503.6929,-142.2577 503.7832,-131.6632 497.1058,-139.889 503.6929,-142.2577"/>
</g>
<!-- Node15 -->
<g id="node15" class="node">
<title>Node15</title>
<g id="a_node15"><a xlink:href="../../d7/d7c/ADCConfig_8hpp.html" target="_top" xlink:title="This file contains the platform&#45;specific ADC resolutions. By default, the library automatically selec...">
<polygon fill="#ffffff" stroke="#000000" points="289,-224.5 289,-243.5 437,-243.5 437,-224.5 289,-224.5"/>
<text text-anchor="middle" x="363" y="-231.5" font-family="Helvetica,sans-Serif" font-size="10.00" fill="#000000">AH/Hardware/ADCConfig.hpp</text>
</a>
</g>
</g>
<!-- Node13&#45;&gt;Node15 -->
<g id="edge24" class="edge">
<title>Node13&#45;&gt;Node15</title>
<path fill="none" stroke="#191970" d="M384.4711,-280.2455C380.9666,-272.6973 376.0073,-262.0158 371.7377,-252.8197"/>
<polygon fill="#191970" stroke="#191970" points="374.8627,-251.2389 367.477,-243.6427 368.5136,-254.1867 374.8627,-251.2389"/>
</g>
<!-- Node16 -->
<g id="node16" class="node">
<title>Node16</title>
<g id="a_node16"><a xlink:title=" ">
<polygon fill="#ffffff" stroke="#bfbfbf" points="493,-224.5 493,-243.5 541,-243.5 541,-224.5 493,-224.5"/>
<text text-anchor="middle" x="517" y="-231.5" font-family="Helvetica,sans-Serif" font-size="10.00" fill="#000000">limits.h</text>
</a>
</g>
</g>
<!-- Node13&#45;&gt;Node16 -->
<g id="edge27" class="edge">
<title>Node13&#45;&gt;Node16</title>
<path fill="none" stroke="#191970" d="M411.004,-280.3733C431.6435,-271.3435 462.7158,-257.7494 485.8889,-247.6111"/>
<polygon fill="#191970" stroke="#191970" points="487.5245,-250.7159 495.2831,-243.5011 484.7187,-244.3028 487.5245,-250.7159"/>
</g>
<!-- Node17 -->
<g id="node17" class="node">
<title>Node17</title>
<g id="a_node17"><a xlink:title=" ">
<polygon fill="#ffffff" stroke="#bfbfbf" points="559,-224.5 559,-243.5 611,-243.5 611,-224.5 559,-224.5"/>
<text text-anchor="middle" x="585" y="-231.5" font-family="Helvetica,sans-Serif" font-size="10.00" fill="#000000">stddef.h</text>
</a>
</g>
</g>
<!-- Node13&#45;&gt;Node17 -->
<g id="edge28" class="edge">
<title>Node13&#45;&gt;Node17</title>
<path fill="none" stroke="#191970" d="M422.6936,-280.3733C458.0097,-270.2829 513.2742,-254.4931 549.3179,-244.1949"/>
<polygon fill="#191970" stroke="#191970" points="550.2882,-247.5578 558.9419,-241.4452 548.3651,-240.8271 550.2882,-247.5578"/>
</g>
<!-- Node13&#45;&gt;Node18 -->
<g id="edge29" class="edge">
<title>Node13&#45;&gt;Node18</title>
<path fill="none" stroke="#191970" d="M424.8325,-281.8941C427.9297,-281.2369 431.018,-280.5969 434,-280 513.7607,-264.0347 607.9487,-247.9335 657.5117,-239.673"/>
<polygon fill="#191970" stroke="#191970" points="658.0981,-243.1236 667.3893,-238.0321 656.9509,-236.2182 658.0981,-243.1236"/>
</g>
<!-- Node14&#45;&gt;Node2 -->
<g id="edge22" class="edge">
<title>Node14&#45;&gt;Node2</title>
<path fill="none" stroke="#191970" d="M495.9163,-112.4509C473.6582,-93.2747 423.3081,-49.8962 395.8022,-26.1988"/>
<polygon fill="#191970" stroke="#191970" points="397.9163,-23.4004 388.0557,-19.5249 393.3473,-28.7036 397.9163,-23.4004"/>
</g>
<!-- Node14&#45;&gt;Node10 -->
<g id="edge23" class="edge">
<title>Node14&#45;&gt;Node10</title>
<path fill="none" stroke="#191970" d="M525.9864,-112.2455C543.1792,-103.4125 568.7238,-90.2887 588.2132,-80.2758"/>
<polygon fill="#191970" stroke="#191970" points="589.9359,-83.3257 597.2312,-75.6427 586.737,-77.0993 589.9359,-83.3257"/>
</g>
<!-- Node15&#45;&gt;Node2 -->
<g id="edge25" class="edge">
<title>Node15&#45;&gt;Node2</title>
<path fill="none" stroke="#191970" d="M366.5927,-224.3347C373.0349,-206.4304 386.3157,-166.7599 391,-132 395.5112,-98.5248 395.9715,-89.4099 391,-56 389.6673,-47.0439 386.9506,-37.419 384.2619,-29.3"/>
<polygon fill="#191970" stroke="#191970" points="387.4936,-27.9402 380.8624,-19.6772 380.8933,-30.272 387.4936,-27.9402"/>
</g>
<!-- Node15&#45;&gt;Node6 -->
<g id="edge26" class="edge">
<title>Node15&#45;&gt;Node6</title>
<path fill="none" stroke="#191970" d="M329.3064,-224.3733C296.2913,-214.9404 245.8427,-200.5265 209.9614,-190.2747"/>
<polygon fill="#191970" stroke="#191970" points="210.8307,-186.8831 200.2539,-187.5011 208.9076,-193.6137 210.8307,-186.8831"/>
</g>
</g>
</svg>
