<?xml version="1.0" encoding="UTF-8" standalone="no"?>
<!DOCTYPE svg PUBLIC "-//W3C//DTD SVG 1.1//EN"
 "http://www.w3.org/Graphics/SVG/1.1/DTD/svg11.dtd">
<!-- Generated by graphviz version 2.43.0 (0)
 -->
<!-- Title: LinkedList.hpp Pages: 1 -->
<svg width="1001pt" height="476pt"
 viewBox="0.00 0.00 1001.00 476.00" xmlns="http://www.w3.org/2000/svg" xmlns:xlink="http://www.w3.org/1999/xlink">
<g id="graph0" class="graph" transform="scale(1 1) rotate(0) translate(4 472)">
<title>LinkedList.hpp</title>
<polygon fill="white" stroke="transparent" points="-4,4 -4,-472 997,-472 997,4 -4,4"/>
<!-- Node1 -->
<g id="node1" class="node">
<title>Node1</title>
<g id="a_node1"><a xlink:title=" ">
<polygon fill="#bfbfbf" stroke="black" points="760,-448.5 760,-467.5 846,-467.5 846,-448.5 760,-448.5"/>
<text text-anchor="middle" x="803" y="-455.5" font-family="Helvetica,sans-Serif" font-size="10.00">LinkedList.hpp</text>
</a>
</g>
</g>
<!-- Node2 -->
<g id="node2" class="node">
<title>Node2</title>
<g id="a_node2"><a xlink:href="../../d1/d65/Warnings_8hpp.html" target="_top" xlink:title=" ">
<polygon fill="white" stroke="black" points="248.5,-0.5 248.5,-19.5 391.5,-19.5 391.5,-0.5 248.5,-0.5"/>
<text text-anchor="middle" x="320" y="-7.5" font-family="Helvetica,sans-Serif" font-size="10.00">AH/Settings/Warnings.hpp</text>
</a>
</g>
</g>
<!-- Node1&#45;&gt;Node2 -->
<g id="edge1" class="edge">
<title>Node1&#45;&gt;Node2</title>
<path fill="none" stroke="midnightblue" d="M759.83,-455.68C593.04,-450 0,-424.39 0,-347 0,-347 0,-347 0,-121 0,-83.16 22.13,-74.75 55,-56 85.6,-38.54 172.3,-26.02 238.27,-18.69"/>
<polygon fill="midnightblue" stroke="midnightblue" points="238.7,-22.17 248.26,-17.6 237.94,-15.21 238.7,-22.17"/>
</g>
<!-- Node3 -->
<g id="node3" class="node">
<title>Node3</title>
<g id="a_node3"><a xlink:href="../../df/dee/Debug_8hpp.html" target="_top" xlink:title=" ">
<polygon fill="white" stroke="black" points="474.5,-392.5 474.5,-411.5 595.5,-411.5 595.5,-392.5 474.5,-392.5"/>
<text text-anchor="middle" x="535" y="-399.5" font-family="Helvetica,sans-Serif" font-size="10.00">AH/Debug/Debug.hpp</text>
</a>
</g>
</g>
<!-- Node1&#45;&gt;Node3 -->
<g id="edge2" class="edge">
<title>Node1&#45;&gt;Node3</title>
<path fill="none" stroke="midnightblue" d="M760.53,-448.44C713.59,-438.98 637.92,-423.74 587.35,-413.55"/>
<polygon fill="midnightblue" stroke="midnightblue" points="587.76,-410.06 577.27,-411.52 586.38,-416.92 587.76,-410.06"/>
</g>
<!-- Node7 -->
<g id="node7" class="node">
<title>Node7</title>
<g id="a_node7"><a xlink:href="../../d7/d79/MinMaxFix_8hpp.html" target="_top" xlink:title=" ">
<polygon fill="white" stroke="black" points="743,-112.5 743,-131.5 879,-131.5 879,-112.5 743,-112.5"/>
<text text-anchor="middle" x="811" y="-119.5" font-family="Helvetica,sans-Serif" font-size="10.00">AH/Math/MinMaxFix.hpp</text>
</a>
</g>
</g>
<!-- Node1&#45;&gt;Node7 -->
<g id="edge31" class="edge">
<title>Node1&#45;&gt;Node7</title>
<path fill="none" stroke="midnightblue" d="M803,-448.44C803,-429.94 803,-384.81 803,-347 803,-347 803,-347 803,-233 803,-200.86 806.44,-163.58 808.81,-141.72"/>
<polygon fill="midnightblue" stroke="midnightblue" points="812.31,-141.87 809.95,-131.54 805.36,-141.09 812.31,-141.87"/>
</g>
<!-- Node19 -->
<g id="node19" class="node">
<title>Node19</title>
<g id="a_node19"><a xlink:title=" ">
<polygon fill="white" stroke="#bfbfbf" points="831.5,-392.5 831.5,-411.5 884.5,-411.5 884.5,-392.5 831.5,-392.5"/>
<text text-anchor="middle" x="858" y="-399.5" font-family="Helvetica,sans-Serif" font-size="10.00">stdlib.h</text>
</a>
</g>
</g>
<!-- Node1&#45;&gt;Node19 -->
<g id="edge32" class="edge">
<title>Node1&#45;&gt;Node19</title>
<path fill="none" stroke="midnightblue" d="M812.08,-448.08C820.17,-440.14 832.2,-428.34 841.91,-418.8"/>
<polygon fill="midnightblue" stroke="midnightblue" points="844.4,-421.25 849.09,-411.75 839.5,-416.26 844.4,-421.25"/>
</g>
<!-- Node20 -->
<g id="node20" class="node">
<title>Node20</title>
<g id="a_node20"><a xlink:title=" ">
<polygon fill="white" stroke="#bfbfbf" points="903,-392.5 903,-411.5 993,-411.5 993,-392.5 903,-392.5"/>
<text text-anchor="middle" x="948" y="-399.5" font-family="Helvetica,sans-Serif" font-size="10.00">AH/STL/iterator</text>
</a>
</g>
</g>
<!-- Node1&#45;&gt;Node20 -->
<g id="edge33" class="edge">
<title>Node1&#45;&gt;Node20</title>
<path fill="none" stroke="midnightblue" d="M825.98,-448.44C850.16,-439.44 888.42,-425.19 915.65,-415.05"/>
<polygon fill="midnightblue" stroke="midnightblue" points="916.98,-418.29 925.13,-411.52 914.54,-411.73 916.98,-418.29"/>
</g>
<!-- Node3&#45;&gt;Node2 -->
<g id="edge3" class="edge">
<title>Node3&#45;&gt;Node2</title>
<path fill="none" stroke="midnightblue" d="M474.06,-400.2C341.34,-396.8 38,-379.37 38,-291 38,-291 38,-291 38,-121 38,-84.28 57.68,-75.16 89,-56 133.73,-28.64 191.67,-17.4 238.32,-13"/>
<polygon fill="midnightblue" stroke="midnightblue" points="238.74,-16.48 248.4,-12.14 238.14,-9.5 238.74,-16.48"/>
</g>
<!-- Node4 -->
<g id="node4" class="node">
<title>Node4</title>
<g id="a_node4"><a xlink:href="../../dd/d80/PrintStream_8hpp.html" target="_top" xlink:title=" ">
<polygon fill="white" stroke="black" points="583.5,-224.5 583.5,-243.5 756.5,-243.5 756.5,-224.5 583.5,-224.5"/>
<text text-anchor="middle" x="670" y="-231.5" font-family="Helvetica,sans-Serif" font-size="10.00">AH/PrintStream/PrintStream.hpp</text>
</a>
</g>
</g>
<!-- Node3&#45;&gt;Node4 -->
<g id="edge4" class="edge">
<title>Node3&#45;&gt;Node4</title>
<path fill="none" stroke="midnightblue" d="M586.15,-392.49C636.53,-381.07 710.76,-355.41 745,-300 758.72,-277.81 729.97,-259.13 704.2,-247.57"/>
<polygon fill="midnightblue" stroke="midnightblue" points="705.49,-244.32 694.92,-243.64 702.76,-250.76 705.49,-244.32"/>
</g>
<!-- Node11 -->
<g id="node11" class="node">
<title>Node11</title>
<g id="a_node11"><a xlink:href="../../d2/dd5/SettingsWrapper_8hpp.html" target="_top" xlink:title=" ">
<polygon fill="white" stroke="black" points="446,-336.5 446,-355.5 624,-355.5 624,-336.5 446,-336.5"/>
<text text-anchor="middle" x="535" y="-343.5" font-family="Helvetica,sans-Serif" font-size="10.00">AH/Settings/SettingsWrapper.hpp</text>
</a>
</g>
</g>
<!-- Node3&#45;&gt;Node11 -->
<g id="edge16" class="edge">
<title>Node3&#45;&gt;Node11</title>
<path fill="none" stroke="midnightblue" d="M529.83,-392.08C528.32,-384.93 527.89,-374.64 528.54,-365.69"/>
<polygon fill="midnightblue" stroke="midnightblue" points="532.02,-366.13 529.87,-355.75 525.08,-365.2 532.02,-366.13"/>
</g>
<!-- Node4&#45;&gt;Node2 -->
<g id="edge6" class="edge">
<title>Node4&#45;&gt;Node2</title>
<path fill="none" stroke="midnightblue" d="M652.52,-224.49C638.52,-216.81 619.38,-204.22 608,-188 572.95,-138.02 615.32,-96.91 570,-56 545.61,-33.98 464.89,-22.35 401.7,-16.47"/>
<polygon fill="midnightblue" stroke="midnightblue" points="401.99,-12.98 391.72,-15.58 401.36,-19.96 401.99,-12.98"/>
</g>
<!-- Node5 -->
<g id="node5" class="node">
<title>Node5</title>
<g id="a_node5"><a xlink:href="../../dc/dc7/NamespaceSettings_8hpp.html" target="_top" xlink:title=" ">
<polygon fill="white" stroke="black" points="366.5,-56.5 366.5,-75.5 561.5,-75.5 561.5,-56.5 366.5,-56.5"/>
<text text-anchor="middle" x="464" y="-63.5" font-family="Helvetica,sans-Serif" font-size="10.00">AH/Settings/NamespaceSettings.hpp</text>
</a>
</g>
</g>
<!-- Node4&#45;&gt;Node5 -->
<g id="edge5" class="edge">
<title>Node4&#45;&gt;Node5</title>
<path fill="none" stroke="midnightblue" d="M641.8,-224.4C621.51,-217.15 594.4,-205.18 575,-188 545.1,-161.51 554.43,-141.04 527,-112 515.56,-99.89 500.44,-88.96 487.87,-80.91"/>
<polygon fill="midnightblue" stroke="midnightblue" points="489.61,-77.86 479.26,-75.57 485.92,-83.82 489.61,-77.86"/>
</g>
<!-- Node6 -->
<g id="node6" class="node">
<title>Node6</title>
<g id="a_node6"><a xlink:href="../../d6/ddf/Arduino-Wrapper_8h.html" target="_top" xlink:title=" ">
<polygon fill="white" stroke="black" points="617,-168.5 617,-187.5 741,-187.5 741,-168.5 617,-168.5"/>
<text text-anchor="middle" x="679" y="-175.5" font-family="Helvetica,sans-Serif" font-size="10.00">AH/Arduino&#45;Wrapper.h</text>
</a>
</g>
</g>
<!-- Node4&#45;&gt;Node6 -->
<g id="edge7" class="edge">
<title>Node4&#45;&gt;Node6</title>
<path fill="none" stroke="midnightblue" d="M671.49,-224.08C672.68,-216.93 674.39,-206.64 675.88,-197.69"/>
<polygon fill="midnightblue" stroke="midnightblue" points="679.35,-198.19 677.54,-187.75 672.45,-197.04 679.35,-198.19"/>
</g>
<!-- Node6&#45;&gt;Node7 -->
<g id="edge8" class="edge">
<title>Node6&#45;&gt;Node7</title>
<path fill="none" stroke="midnightblue" d="M699.92,-168.44C721.74,-159.52 756.15,-145.44 780.89,-135.32"/>
<polygon fill="midnightblue" stroke="midnightblue" points="782.25,-138.54 790.18,-131.52 779.6,-132.06 782.25,-138.54"/>
</g>
<!-- Node9 -->
<g id="node9" class="node">
<title>Node9</title>
<g id="a_node9"><a xlink:title=" ">
<polygon fill="white" stroke="#bfbfbf" points="818.5,-0.5 818.5,-19.5 881.5,-19.5 881.5,-0.5 818.5,-0.5"/>
<text text-anchor="middle" x="850" y="-7.5" font-family="Helvetica,sans-Serif" font-size="10.00">Arduino.h</text>
</a>
</g>
</g>
<!-- Node6&#45;&gt;Node9 -->
<g id="edge15" class="edge">
<title>Node6&#45;&gt;Node9</title>
<path fill="none" stroke="midnightblue" d="M741.17,-172.1C795.94,-166.34 869.78,-154.56 888,-132 909.22,-105.72 899.6,-87.72 888,-56 883.94,-44.91 875.81,-34.67 868.11,-26.76"/>
<polygon fill="midnightblue" stroke="midnightblue" points="870.36,-24.07 860.71,-19.7 865.53,-29.14 870.36,-24.07"/>
</g>
<!-- Node10 -->
<g id="node10" class="node">
<title>Node10</title>
<g id="a_node10"><a xlink:title=" ">
<polygon fill="white" stroke="#bfbfbf" points="617.5,-112.5 617.5,-131.5 724.5,-131.5 724.5,-112.5 617.5,-112.5"/>
<text text-anchor="middle" x="671" y="-119.5" font-family="Helvetica,sans-Serif" font-size="10.00">AH/STL/type_traits</text>
</a>
</g>
</g>
<!-- Node6&#45;&gt;Node10 -->
<g id="edge14" class="edge">
<title>Node6&#45;&gt;Node10</title>
<path fill="none" stroke="midnightblue" d="M677.68,-168.08C676.62,-160.93 675.09,-150.64 673.77,-141.69"/>
<polygon fill="midnightblue" stroke="midnightblue" points="677.22,-141.13 672.3,-131.75 670.3,-142.16 677.22,-141.13"/>
</g>
<!-- Node7&#45;&gt;Node2 -->
<g id="edge9" class="edge">
<title>Node7&#45;&gt;Node2</title>
<path fill="none" stroke="midnightblue" d="M787.6,-112.46C749.42,-98.81 671.14,-71.98 603,-56 535.83,-40.25 458.39,-28.36 401.52,-20.77"/>
<polygon fill="midnightblue" stroke="midnightblue" points="401.87,-17.29 391.5,-19.45 400.96,-24.23 401.87,-17.29"/>
</g>
<!-- Node7&#45;&gt;Node5 -->
<g id="edge13" class="edge">
<title>Node7&#45;&gt;Node5</title>
<path fill="none" stroke="midnightblue" d="M756.02,-112.44C694.34,-102.85 594.39,-87.29 528.93,-77.1"/>
<polygon fill="midnightblue" stroke="midnightblue" points="529.15,-73.6 518.73,-75.52 528.07,-80.51 529.15,-73.6"/>
</g>
<!-- Node8 -->
<g id="node8" class="node">
<title>Node8</title>
<g id="a_node8"><a xlink:href="../../d6/d3b/FixArduinoMacros_8hpp.html" target="_top" xlink:title=" ">
<polygon fill="white" stroke="black" points="709,-56.5 709,-75.5 879,-75.5 879,-56.5 709,-56.5"/>
<text text-anchor="middle" x="794" y="-63.5" font-family="Helvetica,sans-Serif" font-size="10.00">AH/Math/FixArduinoMacros.hpp</text>
</a>
</g>
</g>
<!-- Node7&#45;&gt;Node8 -->
<g id="edge10" class="edge">
<title>Node7&#45;&gt;Node8</title>
<path fill="none" stroke="midnightblue" d="M808.19,-112.08C805.92,-104.85 802.63,-94.41 799.79,-85.4"/>
<polygon fill="midnightblue" stroke="midnightblue" points="803.1,-84.24 796.75,-75.75 796.42,-86.34 803.1,-84.24"/>
</g>
<!-- Node8&#45;&gt;Node2 -->
<g id="edge11" class="edge">
<title>Node8&#45;&gt;Node2</title>
<path fill="none" stroke="midnightblue" d="M719.15,-56.47C632.74,-46.63 491.08,-30.49 401.82,-20.32"/>
<polygon fill="midnightblue" stroke="midnightblue" points="402.07,-16.83 391.74,-19.17 401.28,-23.78 402.07,-16.83"/>
</g>
<!-- Node8&#45;&gt;Node9 -->
<g id="edge12" class="edge">
<title>Node8&#45;&gt;Node9</title>
<path fill="none" stroke="midnightblue" d="M803,-56.32C811.19,-48.42 823.51,-36.55 833.47,-26.94"/>
<polygon fill="midnightblue" stroke="midnightblue" points="836.07,-29.29 840.84,-19.83 831.21,-24.26 836.07,-29.29"/>
</g>
<!-- Node11&#45;&gt;Node2 -->
<g id="edge17" class="edge">
<title>Node11&#45;&gt;Node2</title>
<path fill="none" stroke="midnightblue" d="M445.96,-341.65C312.48,-334.17 76,-310.29 76,-235 76,-235 76,-235 76,-121 76,-48.26 167.25,-23.35 238.14,-14.97"/>
<polygon fill="midnightblue" stroke="midnightblue" points="238.88,-18.41 248.44,-13.85 238.12,-11.45 238.88,-18.41"/>
</g>
<!-- Node11&#45;&gt;Node3 -->
<g id="edge30" class="edge">
<title>Node11&#45;&gt;Node3</title>
<path fill="none" stroke="midnightblue" d="M540.13,-355.75C541.66,-362.86 542.1,-373.14 541.47,-382.1"/>
<polygon fill="midnightblue" stroke="midnightblue" points="537.99,-381.71 540.17,-392.08 544.93,-382.62 537.99,-381.71"/>
</g>
<!-- Node11&#45;&gt;Node5 -->
<g id="edge18" class="edge">
<title>Node11&#45;&gt;Node5</title>
<path fill="none" stroke="midnightblue" d="M535.13,-336.36C535.25,-316.33 534.52,-265.29 525,-224 512.89,-171.47 486.59,-113.17 472.81,-84.66"/>
<polygon fill="midnightblue" stroke="midnightblue" points="475.9,-83.01 468.35,-75.57 469.62,-86.09 475.9,-83.01"/>
</g>
<!-- Node12 -->
<g id="node12" class="node">
<title>Node12</title>
<g id="a_node12"><a xlink:href="../../db/d02/Settings_8hpp.html" target="_top" xlink:title="All user settings and debugging options can be changed here.">
<polygon fill="white" stroke="black" points="240.5,-280.5 240.5,-299.5 317.5,-299.5 317.5,-280.5 240.5,-280.5"/>
<text text-anchor="middle" x="279" y="-287.5" font-family="Helvetica,sans-Serif" font-size="10.00">Settings.hpp</text>
</a>
</g>
</g>
<!-- Node11&#45;&gt;Node12 -->
<g id="edge19" class="edge">
<title>Node11&#45;&gt;Node12</title>
<path fill="none" stroke="midnightblue" d="M494.44,-336.44C449.16,-326.89 375.92,-311.44 327.61,-301.25"/>
<polygon fill="midnightblue" stroke="midnightblue" points="328.21,-297.8 317.7,-299.16 326.76,-304.65 328.21,-297.8"/>
</g>
<!-- Node18 -->
<g id="node18" class="node">
<title>Node18</title>
<g id="a_node18"><a xlink:href="../../d9/d98/TeensyUSBTypes_8hpp.html" target="_top" xlink:title=" ">
<polygon fill="white" stroke="black" points="563.5,-280.5 563.5,-299.5 736.5,-299.5 736.5,-280.5 563.5,-280.5"/>
<text text-anchor="middle" x="650" y="-287.5" font-family="Helvetica,sans-Serif" font-size="10.00">AH/Teensy/TeensyUSBTypes.hpp</text>
</a>
</g>
</g>
<!-- Node11&#45;&gt;Node18 -->
<g id="edge29" class="edge">
<title>Node11&#45;&gt;Node18</title>
<path fill="none" stroke="midnightblue" d="M553.22,-336.44C571.9,-327.68 601.16,-313.94 622.62,-303.86"/>
<polygon fill="midnightblue" stroke="midnightblue" points="624.3,-306.93 631.86,-299.52 621.32,-300.6 624.3,-306.93"/>
</g>
<!-- Node13 -->
<g id="node13" class="node">
<title>Node13</title>
<g id="a_node13"><a xlink:href="../../dc/d50/Frequency_8hpp.html" target="_top" xlink:title=" ">
<polygon fill="white" stroke="black" points="177,-112.5 177,-131.5 311,-131.5 311,-112.5 177,-112.5"/>
<text text-anchor="middle" x="244" y="-119.5" font-family="Helvetica,sans-Serif" font-size="10.00">AH/Types/Frequency.hpp</text>
</a>
</g>
</g>
<!-- Node12&#45;&gt;Node13 -->
<g id="edge20" class="edge">
<title>Node12&#45;&gt;Node13</title>
<path fill="none" stroke="midnightblue" d="M240.49,-288.98C206.1,-286.66 157.5,-277.18 133,-244 101.68,-201.57 173.6,-157.27 215.9,-135.97"/>
<polygon fill="midnightblue" stroke="midnightblue" points="217.49,-139.08 224.93,-131.54 214.41,-132.8 217.49,-139.08"/>
</g>
<!-- Node14 -->
<g id="node14" class="node">
<title>Node14</title>
<g id="a_node14"><a xlink:href="../../d7/d7c/ADCConfig_8hpp.html" target="_top" xlink:title="This file contains the platform&#45;specific ADC resolutions.">
<polygon fill="white" stroke="black" points="359.5,-224.5 359.5,-243.5 516.5,-243.5 516.5,-224.5 359.5,-224.5"/>
<text text-anchor="middle" x="438" y="-231.5" font-family="Helvetica,sans-Serif" font-size="10.00">AH/Hardware/ADCConfig.hpp</text>
</a>
</g>
</g>
<!-- Node12&#45;&gt;Node14 -->
<g id="edge23" class="edge">
<title>Node12&#45;&gt;Node14</title>
<path fill="none" stroke="midnightblue" d="M304.19,-280.44C330.94,-271.36 373.4,-256.94 403.31,-246.78"/>
<polygon fill="midnightblue" stroke="midnightblue" points="404.58,-250.05 412.92,-243.52 402.33,-243.42 404.58,-250.05"/>
</g>
<!-- Node15 -->
<g id="node15" class="node">
<title>Node15</title>
<g id="a_node15"><a xlink:title=" ">
<polygon fill="white" stroke="#bfbfbf" points="142.5,-224.5 142.5,-243.5 195.5,-243.5 195.5,-224.5 142.5,-224.5"/>
<text text-anchor="middle" x="169" y="-231.5" font-family="Helvetica,sans-Serif" font-size="10.00">limits.h</text>
</a>
</g>
</g>
<!-- Node12&#45;&gt;Node15 -->
<g id="edge26" class="edge">
<title>Node12&#45;&gt;Node15</title>
<path fill="none" stroke="midnightblue" d="M261.33,-280.32C243.61,-271.62 216.1,-258.12 195.71,-248.11"/>
<polygon fill="midnightblue" stroke="midnightblue" points="197.15,-244.92 186.63,-243.65 194.06,-251.2 197.15,-244.92"/>
</g>
<!-- Node16 -->
<g id="node16" class="node">
<title>Node16</title>
<g id="a_node16"><a xlink:title=" ">
<polygon fill="white" stroke="#bfbfbf" points="214,-224.5 214,-243.5 270,-243.5 270,-224.5 214,-224.5"/>
<text text-anchor="middle" x="242" y="-231.5" font-family="Helvetica,sans-Serif" font-size="10.00">stddef.h</text>
</a>
</g>
</g>
<!-- Node12&#45;&gt;Node16 -->
<g id="edge27" class="edge">
<title>Node12&#45;&gt;Node16</title>
<path fill="none" stroke="midnightblue" d="M272.89,-280.08C267.72,-272.53 260.15,-261.49 253.81,-252.23"/>
<polygon fill="midnightblue" stroke="midnightblue" points="256.54,-250.02 248,-243.75 250.76,-253.98 256.54,-250.02"/>
</g>
<!-- Node17 -->
<g id="node17" class="node">
<title>Node17</title>
<g id="a_node17"><a xlink:title=" ">
<polygon fill="white" stroke="#bfbfbf" points="288.5,-224.5 288.5,-243.5 341.5,-243.5 341.5,-224.5 288.5,-224.5"/>
<text text-anchor="middle" x="315" y="-231.5" font-family="Helvetica,sans-Serif" font-size="10.00">stdint.h</text>
</a>
</g>
</g>
<!-- Node12&#45;&gt;Node17 -->
<g id="edge28" class="edge">
<title>Node12&#45;&gt;Node17</title>
<path fill="none" stroke="midnightblue" d="M284.94,-280.08C289.98,-272.53 297.34,-261.49 303.51,-252.23"/>
<polygon fill="midnightblue" stroke="midnightblue" points="306.53,-254.01 309.17,-243.75 300.71,-250.13 306.53,-254.01"/>
</g>
<!-- Node13&#45;&gt;Node2 -->
<g id="edge21" class="edge">
<title>Node13&#45;&gt;Node2</title>
<path fill="none" stroke="midnightblue" d="M249.96,-112.37C262.51,-94.22 291.81,-51.8 308.26,-27.99"/>
<polygon fill="midnightblue" stroke="midnightblue" points="311.26,-29.81 314.06,-19.59 305.5,-25.83 311.26,-29.81"/>
</g>
<!-- Node13&#45;&gt;Node5 -->
<g id="edge22" class="edge">
<title>Node13&#45;&gt;Node5</title>
<path fill="none" stroke="midnightblue" d="M278.86,-112.44C316.92,-103.1 377.96,-88.12 419.46,-77.93"/>
<polygon fill="midnightblue" stroke="midnightblue" points="420.43,-81.3 429.3,-75.52 418.76,-74.5 420.43,-81.3"/>
</g>
<!-- Node14&#45;&gt;Node2 -->
<g id="edge24" class="edge">
<title>Node14&#45;&gt;Node2</title>
<path fill="none" stroke="midnightblue" d="M433.37,-224.3C415.86,-191.36 353.43,-73.9 329.46,-28.81"/>
<polygon fill="midnightblue" stroke="midnightblue" points="332.51,-27.07 324.72,-19.88 326.32,-30.36 332.51,-27.07"/>
</g>
<!-- Node14&#45;&gt;Node6 -->
<g id="edge25" class="edge">
<title>Node14&#45;&gt;Node6</title>
<path fill="none" stroke="midnightblue" d="M476.19,-224.44C518.14,-215.04 585.59,-199.93 631.07,-189.74"/>
<polygon fill="midnightblue" stroke="midnightblue" points="632,-193.12 640.99,-187.52 630.47,-186.29 632,-193.12"/>
</g>
</g>
</svg>
