<?xml version="1.0" encoding="UTF-8" standalone="no"?>
<!DOCTYPE svg PUBLIC "-//W3C//DTD SVG 1.1//EN"
 "http://www.w3.org/Graphics/SVG/1.1/DTD/svg11.dtd">
<!-- Generated by graphviz version 2.38.0 (20140413.2041)
 -->
<!-- Title: Settings.hpp Pages: 1 -->
<svg width="1470pt" height="588pt"
 viewBox="0.00 0.00 1470.00 588.00" xmlns="http://www.w3.org/2000/svg" xmlns:xlink="http://www.w3.org/1999/xlink">
<g id="graph0" class="graph" transform="scale(1 1) rotate(0) translate(4 584)">
<title>Settings.hpp</title>
<polygon fill="white" stroke="none" points="-4,4 -4,-584 1466,-584 1466,4 -4,4"/>
<!-- Node1 -->
<g id="node1" class="node"><title>Node1</title>
<g id="a_node1"><a xlink:title="All user settings and debugging options can be changed here.">
<polygon fill="#bfbfbf" stroke="black" points="883.5,-560.5 883.5,-579.5 954.5,-579.5 954.5,-560.5 883.5,-560.5"/>
<text text-anchor="middle" x="919" y="-567.5" font-family="Helvetica,sans-Serif" font-size="10.00">Settings.hpp</text>
</a>
</g>
</g>
<!-- Node2 -->
<g id="node2" class="node"><title>Node2</title>
<g id="a_node2"><a xlink:href="../../d2/dd5/SettingsWrapper_8hpp.html" target="_top" xlink:title=" ">
<polygon fill="white" stroke="black" points="865,-504.5 865,-523.5 973,-523.5 973,-504.5 865,-504.5"/>
<text text-anchor="middle" x="919" y="-511.5" font-family="Helvetica,sans-Serif" font-size="10.00">SettingsWrapper.hpp</text>
</a>
</g>
</g>
<!-- Node1&#45;&gt;Node2 -->
<g id="edge1" class="edge"><title>Node1&#45;&gt;Node2</title>
<path fill="none" stroke="midnightblue" d="M919,-549.805C919,-540.91 919,-530.78 919,-523.751"/>
<polygon fill="midnightblue" stroke="midnightblue" points="915.5,-550.083 919,-560.083 922.5,-550.083 915.5,-550.083"/>
</g>
<!-- Node3 -->
<g id="node3" class="node"><title>Node3</title>
<g id="a_node3"><a xlink:href="../../d4/d93/Updatable_8hpp.html" target="_top" xlink:title=" ">
<polygon fill="white" stroke="black" points="976,-336.5 976,-355.5 1056,-355.5 1056,-336.5 976,-336.5"/>
<text text-anchor="middle" x="1016" y="-343.5" font-family="Helvetica,sans-Serif" font-size="10.00">Updatable.hpp</text>
</a>
</g>
</g>
<!-- Node2&#45;&gt;Node3 -->
<g id="edge2" class="edge"><title>Node2&#45;&gt;Node3</title>
<path fill="none" stroke="midnightblue" d="M950.895,-500.338C984.534,-485.043 1035.69,-455.786 1058,-412 1068.8,-390.811 1044.59,-367.85 1028.61,-355.696"/>
<polygon fill="midnightblue" stroke="midnightblue" points="949.244,-497.24 941.49,-504.46 952.054,-503.652 949.244,-497.24"/>
</g>
<!-- Node4 -->
<g id="node4" class="node"><title>Node4</title>
<g id="a_node4"><a xlink:href="../../df/dee/Debug_8hpp.html" target="_top" xlink:title=" ">
<polygon fill="white" stroke="black" points="887,-448.5 887,-467.5 951,-467.5 951,-448.5 887,-448.5"/>
<text text-anchor="middle" x="919" y="-455.5" font-family="Helvetica,sans-Serif" font-size="10.00">Debug.hpp</text>
</a>
</g>
</g>
<!-- Node2&#45;&gt;Node4 -->
<g id="edge3" class="edge"><title>Node2&#45;&gt;Node4</title>
<path fill="none" stroke="midnightblue" d="M912.528,-494.101C911.896,-485.136 912.343,-474.858 913.869,-467.751"/>
<polygon fill="midnightblue" stroke="midnightblue" points="909.066,-494.622 913.834,-504.083 916.007,-493.713 909.066,-494.622"/>
</g>
<!-- Node8 -->
<g id="node8" class="node"><title>Node8</title>
<g id="a_node8"><a xlink:href="../../d4/db3/Button_8hpp.html" target="_top" xlink:title=" ">
<polygon fill="white" stroke="black" points="220,-112.5 220,-131.5 284,-131.5 284,-112.5 220,-112.5"/>
<text text-anchor="middle" x="252" y="-119.5" font-family="Helvetica,sans-Serif" font-size="10.00">Button.hpp</text>
</a>
</g>
</g>
<!-- Node2&#45;&gt;Node8 -->
<g id="edge73" class="edge"><title>Node2&#45;&gt;Node8</title>
<path fill="none" stroke="midnightblue" d="M854.771,-511.225C659.958,-504.996 89,-480.158 89,-403 89,-403 89,-403 89,-233 89,-202.902 86.9154,-189.478 108,-168 116.005,-159.846 180.004,-141.9 219.942,-131.299"/>
<polygon fill="midnightblue" stroke="midnightblue" points="854.757,-514.726 864.862,-511.541 854.976,-507.729 854.757,-514.726"/>
</g>
<!-- Node24 -->
<g id="node24" class="node"><title>Node24</title>
<g id="a_node24"><a xlink:href="../../d8/df3/FilteredAnalog_8hpp.html" target="_top" xlink:title=" ">
<polygon fill="white" stroke="black" points="104,-112.5 104,-131.5 202,-131.5 202,-112.5 104,-112.5"/>
<text text-anchor="middle" x="153" y="-119.5" font-family="Helvetica,sans-Serif" font-size="10.00">FilteredAnalog.hpp</text>
</a>
</g>
</g>
<!-- Node2&#45;&gt;Node24 -->
<g id="edge77" class="edge"><title>Node2&#45;&gt;Node24</title>
<path fill="none" stroke="midnightblue" d="M854.415,-512.659C697.428,-511.263 299.371,-504.152 172,-468 113.274,-451.331 51,-464.046 51,-403 51,-403 51,-403 51,-233 51,-183.777 106.596,-147.278 135.697,-131.545"/>
<polygon fill="midnightblue" stroke="midnightblue" points="854.82,-516.163 864.849,-512.747 854.878,-509.163 854.82,-516.163"/>
</g>
<!-- Node48 -->
<g id="node48" class="node"><title>Node48</title>
<g id="a_node48"><a xlink:href="../../d1/d1f/ShiftRegisterOutRGB_8hpp.html" target="_top" xlink:title=" ">
<polygon fill="white" stroke="black" points="1239,-448.5 1239,-467.5 1369,-467.5 1369,-448.5 1239,-448.5"/>
<text text-anchor="middle" x="1304" y="-455.5" font-family="Helvetica,sans-Serif" font-size="10.00">ShiftRegisterOutRGB.hpp</text>
</a>
</g>
</g>
<!-- Node2&#45;&gt;Node48 -->
<g id="edge74" class="edge"><title>Node2&#45;&gt;Node48</title>
<path fill="none" stroke="midnightblue" d="M983.253,-503.988C1055.63,-493.837 1172.37,-477.462 1243.27,-467.518"/>
<polygon fill="midnightblue" stroke="midnightblue" points="982.761,-500.522 973.345,-505.378 983.734,-507.455 982.761,-500.522"/>
</g>
<!-- Node4&#45;&gt;Node2 -->
<g id="edge72" class="edge"><title>Node4&#45;&gt;Node2</title>
<path fill="none" stroke="midnightblue" d="M925.458,-477.691C926.106,-486.635 925.676,-496.927 924.166,-504.083"/>
<polygon fill="midnightblue" stroke="midnightblue" points="928.923,-477.2 924.131,-467.751 921.985,-478.126 928.923,-477.2"/>
</g>
<!-- Node5 -->
<g id="node5" class="node"><title>Node5</title>
<g id="a_node5"><a xlink:href="../../de/dd1/LinkedList_8hpp.html" target="_top" xlink:title=" ">
<polygon fill="white" stroke="black" points="969,-392.5 969,-411.5 1049,-411.5 1049,-392.5 969,-392.5"/>
<text text-anchor="middle" x="1009" y="-399.5" font-family="Helvetica,sans-Serif" font-size="10.00">LinkedList.hpp</text>
</a>
</g>
</g>
<!-- Node4&#45;&gt;Node5 -->
<g id="edge4" class="edge"><title>Node4&#45;&gt;Node5</title>
<path fill="none" stroke="midnightblue" d="M942.038,-443.177C958.599,-433.241 980.418,-420.149 994.576,-411.655"/>
<polygon fill="midnightblue" stroke="midnightblue" points="940.234,-440.178 933.46,-448.324 943.836,-446.18 940.234,-440.178"/>
</g>
<!-- Node32 -->
<g id="node32" class="node"><title>Node32</title>
<g id="a_node32"><a xlink:href="../../df/d66/Debug_8cpp.html" target="_top" xlink:title=" ">
<polygon fill="white" stroke="black" points="887,-392.5 887,-411.5 951,-411.5 951,-392.5 887,-392.5"/>
<text text-anchor="middle" x="919" y="-399.5" font-family="Helvetica,sans-Serif" font-size="10.00">Debug.cpp</text>
</a>
</g>
</g>
<!-- Node4&#45;&gt;Node32 -->
<g id="edge42" class="edge"><title>Node4&#45;&gt;Node32</title>
<path fill="none" stroke="midnightblue" d="M919,-437.805C919,-428.91 919,-418.78 919,-411.751"/>
<polygon fill="midnightblue" stroke="midnightblue" points="915.5,-438.083 919,-448.083 922.5,-438.083 915.5,-438.083"/>
</g>
<!-- Node33 -->
<g id="node33" class="node"><title>Node33</title>
<g id="a_node33"><a xlink:href="../../d1/d93/Error_8hpp.html" target="_top" xlink:title=" ">
<polygon fill="white" stroke="black" points="813,-392.5 813,-411.5 869,-411.5 869,-392.5 813,-392.5"/>
<text text-anchor="middle" x="841" y="-399.5" font-family="Helvetica,sans-Serif" font-size="10.00">Error.hpp</text>
</a>
</g>
</g>
<!-- Node4&#45;&gt;Node33 -->
<g id="edge43" class="edge"><title>Node4&#45;&gt;Node33</title>
<path fill="none" stroke="midnightblue" d="M898.232,-442.622C883.983,-432.757 865.544,-419.992 853.501,-411.655"/>
<polygon fill="midnightblue" stroke="midnightblue" points="896.254,-445.51 906.468,-448.324 900.238,-439.754 896.254,-445.51"/>
</g>
<!-- Node5&#45;&gt;Node3 -->
<g id="edge5" class="edge"><title>Node5&#45;&gt;Node3</title>
<path fill="none" stroke="midnightblue" d="M1011.45,-382.101C1012.61,-373.136 1013.94,-362.858 1014.87,-355.751"/>
<polygon fill="midnightblue" stroke="midnightblue" points="1007.97,-381.716 1010.16,-392.083 1014.91,-382.616 1007.97,-381.716"/>
</g>
<!-- Node6 -->
<g id="node6" class="node"><title>Node6</title>
<g id="a_node6"><a xlink:href="../../d4/d57/ExtendedIOElement_8hpp.html" target="_top" xlink:title=" ">
<polygon fill="white" stroke="black" points="742.5,-224.5 742.5,-243.5 865.5,-243.5 865.5,-224.5 742.5,-224.5"/>
<text text-anchor="middle" x="804" y="-231.5" font-family="Helvetica,sans-Serif" font-size="10.00">ExtendedIOElement.hpp</text>
</a>
</g>
</g>
<!-- Node5&#45;&gt;Node6 -->
<g id="edge6" class="edge"><title>Node5&#45;&gt;Node6</title>
<path fill="none" stroke="midnightblue" d="M1034.69,-387.323C1055.01,-374.647 1077.98,-354.944 1065,-336 1020.51,-271.072 927.806,-247.873 865.73,-239.59"/>
<polygon fill="midnightblue" stroke="midnightblue" points="1032.8,-384.372 1025.97,-392.464 1036.36,-390.402 1032.8,-384.372"/>
</g>
<!-- Node7 -->
<g id="node7" class="node"><title>Node7</title>
<g id="a_node7"><a xlink:href="../../dd/ddf/ExtendedInputOutput_8hpp.html" target="_top" xlink:title=" ">
<polygon fill="white" stroke="black" points="564,-168.5 564,-187.5 692,-187.5 692,-168.5 564,-168.5"/>
<text text-anchor="middle" x="628" y="-175.5" font-family="Helvetica,sans-Serif" font-size="10.00">ExtendedInputOutput.hpp</text>
</a>
</g>
</g>
<!-- Node6&#45;&gt;Node7 -->
<g id="edge7" class="edge"><title>Node6&#45;&gt;Node7</title>
<path fill="none" stroke="midnightblue" d="M766.311,-221.436C733.128,-211.255 685.572,-196.664 655.757,-187.516"/>
<polygon fill="midnightblue" stroke="midnightblue" points="765.525,-224.856 776.112,-224.444 767.579,-218.164 765.525,-224.856"/>
</g>
<!-- Node17 -->
<g id="node17" class="node"><title>Node17</title>
<g id="a_node17"><a xlink:href="../../d6/d3c/ExtendedInputOutput_8cpp.html" target="_top" xlink:title=" ">
<polygon fill="white" stroke="black" points="340,-112.5 340,-131.5 468,-131.5 468,-112.5 340,-112.5"/>
<text text-anchor="middle" x="404" y="-119.5" font-family="Helvetica,sans-Serif" font-size="10.00">ExtendedInputOutput.cpp</text>
</a>
</g>
</g>
<!-- Node6&#45;&gt;Node17 -->
<g id="edge40" class="edge"><title>Node6&#45;&gt;Node17</title>
<path fill="none" stroke="midnightblue" d="M732.16,-224.983C681.773,-218.165 613.274,-206.479 555,-188 534.909,-181.629 531.287,-176.499 512,-168 482.074,-154.812 447.073,-140.414 425.216,-131.543"/>
<polygon fill="midnightblue" stroke="midnightblue" points="731.934,-228.484 742.306,-226.324 732.851,-221.544 731.934,-228.484"/>
</g>
<!-- Node30 -->
<g id="node30" class="node"><title>Node30</title>
<g id="a_node30"><a xlink:href="../../d2/d05/StaticSizeExtendedIOElement_8hpp.html" target="_top" xlink:title=" ">
<polygon fill="white" stroke="black" points="748,-168.5 748,-187.5 916,-187.5 916,-168.5 748,-168.5"/>
<text text-anchor="middle" x="832" y="-175.5" font-family="Helvetica,sans-Serif" font-size="10.00">StaticSizeExtendedIOElement.hpp</text>
</a>
</g>
</g>
<!-- Node6&#45;&gt;Node30 -->
<g id="edge36" class="edge"><title>Node6&#45;&gt;Node30</title>
<path fill="none" stroke="midnightblue" d="M813.342,-214.983C818.095,-205.817 823.656,-195.092 827.462,-187.751"/>
<polygon fill="midnightblue" stroke="midnightblue" points="810.12,-213.594 808.624,-224.083 816.334,-216.817 810.12,-213.594"/>
</g>
<!-- Node31 -->
<g id="node31" class="node"><title>Node31</title>
<g id="a_node31"><a xlink:href="../../da/d1f/ExtendedIOElement_8cpp.html" target="_top" xlink:title=" ">
<polygon fill="white" stroke="black" points="934.5,-168.5 934.5,-187.5 1057.5,-187.5 1057.5,-168.5 934.5,-168.5"/>
<text text-anchor="middle" x="996" y="-175.5" font-family="Helvetica,sans-Serif" font-size="10.00">ExtendedIOElement.cpp</text>
</a>
</g>
</g>
<!-- Node6&#45;&gt;Node31 -->
<g id="edge41" class="edge"><title>Node6&#45;&gt;Node31</title>
<path fill="none" stroke="midnightblue" d="M844.183,-221.699C880.419,-211.507 932.914,-196.743 965.719,-187.516"/>
<polygon fill="midnightblue" stroke="midnightblue" points="843.102,-218.367 834.423,-224.444 844.997,-225.105 843.102,-218.367"/>
</g>
<!-- Node7&#45;&gt;Node8 -->
<g id="edge8" class="edge"><title>Node7&#45;&gt;Node8</title>
<path fill="none" stroke="midnightblue" d="M558.465,-167.014C476.719,-155.274 344.544,-136.291 284.064,-127.605"/>
<polygon fill="midnightblue" stroke="midnightblue" points="558.026,-170.486 568.422,-168.444 559.021,-163.557 558.026,-170.486"/>
</g>
<!-- Node14 -->
<g id="node14" class="node"><title>Node14</title>
<g id="a_node14"><a xlink:href="../../d5/d41/ButtonMatrix_8ipp.html" target="_top" xlink:title=" ">
<polygon fill="white" stroke="black" points="564,-112.5 564,-131.5 652,-131.5 652,-112.5 564,-112.5"/>
<text text-anchor="middle" x="608" y="-119.5" font-family="Helvetica,sans-Serif" font-size="10.00">ButtonMatrix.ipp</text>
</a>
</g>
</g>
<!-- Node7&#45;&gt;Node14 -->
<g id="edge14" class="edge"><title>Node7&#45;&gt;Node14</title>
<path fill="none" stroke="midnightblue" d="M621.218,-158.69C617.848,-149.589 613.931,-139.014 611.241,-131.751"/>
<polygon fill="midnightblue" stroke="midnightblue" points="617.942,-159.921 624.697,-168.083 624.506,-157.49 617.942,-159.921"/>
</g>
<!-- Node16 -->
<g id="node16" class="node"><title>Node16</title>
<g id="a_node16"><a xlink:href="../../d7/def/AnalogMultiplex_8hpp.html" target="_top" xlink:title=" ">
<polygon fill="white" stroke="black" points="908,-112.5 908,-131.5 1012,-131.5 1012,-112.5 908,-112.5"/>
<text text-anchor="middle" x="960" y="-119.5" font-family="Helvetica,sans-Serif" font-size="10.00">AnalogMultiplex.hpp</text>
</a>
</g>
</g>
<!-- Node7&#45;&gt;Node16 -->
<g id="edge17" class="edge"><title>Node7&#45;&gt;Node16</title>
<path fill="none" stroke="midnightblue" d="M690.784,-166.788C753.615,-156.569 849.155,-141.029 907.913,-131.472"/>
<polygon fill="midnightblue" stroke="midnightblue" points="689.915,-163.383 680.606,-168.444 691.039,-170.293 689.915,-163.383"/>
</g>
<!-- Node7&#45;&gt;Node17 -->
<g id="edge18" class="edge"><title>Node7&#45;&gt;Node17</title>
<path fill="none" stroke="midnightblue" d="M582.737,-166.088C540.418,-155.887 478.091,-140.861 439.327,-131.516"/>
<polygon fill="midnightblue" stroke="midnightblue" points="581.965,-169.502 592.507,-168.444 583.605,-162.697 581.965,-169.502"/>
</g>
<!-- Node18 -->
<g id="node18" class="node"><title>Node18</title>
<g id="a_node18"><a xlink:href="../../d5/d47/ShiftRegisterOutBase_8ipp.html" target="_top" xlink:title=" ">
<polygon fill="white" stroke="black" points="1146,-56.5 1146,-75.5 1274,-75.5 1274,-56.5 1146,-56.5"/>
<text text-anchor="middle" x="1210" y="-63.5" font-family="Helvetica,sans-Serif" font-size="10.00">ShiftRegisterOutBase.ipp</text>
</a>
</g>
</g>
<!-- Node7&#45;&gt;Node18 -->
<g id="edge19" class="edge"><title>Node7&#45;&gt;Node18</title>
<path fill="none" stroke="midnightblue" d="M702.442,-166.944C747.561,-159.714 805.893,-148.333 856,-132 876.039,-125.468 878.8,-118.017 899,-112 922.103,-105.118 1061.56,-86.2876 1145.68,-75.2888"/>
<polygon fill="midnightblue" stroke="midnightblue" points="701.778,-163.506 692.441,-168.514 702.863,-170.421 701.778,-163.506"/>
</g>
<!-- Node21 -->
<g id="node21" class="node"><title>Node21</title>
<g id="a_node21"><a xlink:href="../../de/d95/ShiftRegisterOut_8ipp.html" target="_top" xlink:title=" ">
<polygon fill="white" stroke="black" points="983.5,-0.5 983.5,-19.5 1088.5,-19.5 1088.5,-0.5 983.5,-0.5"/>
<text text-anchor="middle" x="1036" y="-7.5" font-family="Helvetica,sans-Serif" font-size="10.00">ShiftRegisterOut.ipp</text>
</a>
</g>
</g>
<!-- Node7&#45;&gt;Node21 -->
<g id="edge28" class="edge"><title>Node7&#45;&gt;Node21</title>
<path fill="none" stroke="midnightblue" d="M642.468,-160.453C648.929,-152.339 656.161,-142.146 661,-132 676.036,-100.474 654.736,-79.0251 681,-56 724.912,-17.5031 895.782,-11.2797 983.459,-10.6898"/>
<polygon fill="midnightblue" stroke="midnightblue" points="639.612,-158.413 635.908,-168.339 644.994,-162.889 639.612,-158.413"/>
</g>
<!-- Node23 -->
<g id="node23" class="node"><title>Node23</title>
<g id="a_node23"><a xlink:href="../../da/d45/SPIShiftRegisterOut_8ipp.html" target="_top" xlink:title=" ">
<polygon fill="white" stroke="black" points="1294,-0.5 1294,-19.5 1416,-19.5 1416,-0.5 1294,-0.5"/>
<text text-anchor="middle" x="1355" y="-7.5" font-family="Helvetica,sans-Serif" font-size="10.00">SPIShiftRegisterOut.ipp</text>
</a>
</g>
</g>
<!-- Node7&#45;&gt;Node23 -->
<g id="edge29" class="edge"><title>Node7&#45;&gt;Node23</title>
<path fill="none" stroke="midnightblue" d="M696.624,-166.678C734.75,-159.591 782.518,-148.444 823,-132 838.889,-125.546 839.866,-117.816 856,-112 958.71,-74.9763 995.22,-109.906 1099,-76 1117.14,-70.073 1119.03,-62.437 1137,-56 1188.3,-37.622 1249.22,-25.8373 1293.6,-18.9582"/>
<polygon fill="midnightblue" stroke="midnightblue" points="695.864,-163.258 686.646,-168.481 697.11,-170.147 695.864,-163.258"/>
</g>
<!-- Node7&#45;&gt;Node24 -->
<g id="edge30" class="edge"><title>Node7&#45;&gt;Node24</title>
<path fill="none" stroke="midnightblue" d="M553.805,-170.043C470.321,-161.971 330.723,-147.74 211,-132 208.07,-131.615 205.06,-131.201 202.025,-130.771"/>
<polygon fill="midnightblue" stroke="midnightblue" points="553.663,-173.545 563.953,-171.021 554.334,-166.578 553.663,-173.545"/>
</g>
<!-- Node25 -->
<g id="node25" class="node"><title>Node25</title>
<g id="a_node25"><a xlink:href="../../d9/d4f/LEDs_8hpp.html" target="_top" xlink:title=" ">
<polygon fill="white" stroke="black" points="486,-112.5 486,-131.5 546,-131.5 546,-112.5 486,-112.5"/>
<text text-anchor="middle" x="516" y="-119.5" font-family="Helvetica,sans-Serif" font-size="10.00">LEDs.hpp</text>
</a>
</g>
</g>
<!-- Node7&#45;&gt;Node25 -->
<g id="edge31" class="edge"><title>Node7&#45;&gt;Node25</title>
<path fill="none" stroke="midnightblue" d="M600.751,-163.862C579.984,-153.849 551.977,-140.346 533.95,-131.655"/>
<polygon fill="midnightblue" stroke="midnightblue" points="599.477,-167.134 610.005,-168.324 602.518,-160.828 599.477,-167.134"/>
</g>
<!-- Node27 -->
<g id="node27" class="node"><title>Node27</title>
<g id="a_node27"><a xlink:href="../../d7/d13/MAX7219__Base_8hpp.html" target="_top" xlink:title=" ">
<polygon fill="white" stroke="black" points="708,-112.5 708,-131.5 814,-131.5 814,-112.5 708,-112.5"/>
<text text-anchor="middle" x="761" y="-119.5" font-family="Helvetica,sans-Serif" font-size="10.00">MAX7219_Base.hpp</text>
</a>
</g>
</g>
<!-- Node7&#45;&gt;Node27 -->
<g id="edge33" class="edge"><title>Node7&#45;&gt;Node27</title>
<path fill="none" stroke="midnightblue" d="M658.448,-164.638C683.407,-154.504 718.077,-140.427 740.024,-131.516"/>
<polygon fill="midnightblue" stroke="midnightblue" points="657.023,-161.439 649.074,-168.444 659.656,-167.924 657.023,-161.439"/>
</g>
<!-- Node9 -->
<g id="node9" class="node"><title>Node9</title>
<g id="a_node9"><a xlink:href="../../de/dd1/Button_8cpp.html" target="_top" xlink:title=" ">
<polygon fill="white" stroke="black" points="192,-56.5 192,-75.5 256,-75.5 256,-56.5 192,-56.5"/>
<text text-anchor="middle" x="224" y="-63.5" font-family="Helvetica,sans-Serif" font-size="10.00">Button.cpp</text>
</a>
</g>
</g>
<!-- Node8&#45;&gt;Node9 -->
<g id="edge9" class="edge"><title>Node8&#45;&gt;Node9</title>
<path fill="none" stroke="midnightblue" d="M242.658,-102.983C237.905,-93.8168 232.344,-83.0922 228.538,-75.7511"/>
<polygon fill="midnightblue" stroke="midnightblue" points="239.666,-104.817 247.376,-112.083 245.88,-101.594 239.666,-104.817"/>
</g>
<!-- Node10 -->
<g id="node10" class="node"><title>Node10</title>
<g id="a_node10"><a xlink:href="../../d5/d04/IncrementButton_8hpp.html" target="_top" xlink:title=" ">
<polygon fill="white" stroke="black" points="274.5,-56.5 274.5,-75.5 381.5,-75.5 381.5,-56.5 274.5,-56.5"/>
<text text-anchor="middle" x="328" y="-63.5" font-family="Helvetica,sans-Serif" font-size="10.00">IncrementButton.hpp</text>
</a>
</g>
</g>
<!-- Node8&#45;&gt;Node10 -->
<g id="edge10" class="edge"><title>Node8&#45;&gt;Node10</title>
<path fill="none" stroke="midnightblue" d="M272.576,-106.38C286.312,-96.6204 303.925,-84.1057 315.567,-75.8339"/>
<polygon fill="midnightblue" stroke="midnightblue" points="270.335,-103.679 264.211,-112.324 274.39,-109.385 270.335,-103.679"/>
</g>
<!-- Node12 -->
<g id="node12" class="node"><title>Node12</title>
<g id="a_node12"><a xlink:href="../../df/df5/IncrementDecrementButtons_8hpp.html" target="_top" xlink:title=" ">
<polygon fill="white" stroke="black" points="12.5,-56.5 12.5,-75.5 173.5,-75.5 173.5,-56.5 12.5,-56.5"/>
<text text-anchor="middle" x="93" y="-63.5" font-family="Helvetica,sans-Serif" font-size="10.00">IncrementDecrementButtons.hpp</text>
</a>
</g>
</g>
<!-- Node8&#45;&gt;Node12 -->
<g id="edge12" class="edge"><title>Node8&#45;&gt;Node12</title>
<path fill="none" stroke="midnightblue" d="M217.173,-109.172C187.234,-99.0039 144.779,-84.5852 118.076,-75.5164"/>
<polygon fill="midnightblue" stroke="midnightblue" points="216.212,-112.542 226.806,-112.444 218.463,-105.914 216.212,-112.542"/>
</g>
<!-- Node11 -->
<g id="node11" class="node"><title>Node11</title>
<g id="a_node11"><a xlink:href="../../db/d9d/IncrementButton_8cpp.html" target="_top" xlink:title=" ">
<polygon fill="white" stroke="black" points="274.5,-0.5 274.5,-19.5 381.5,-19.5 381.5,-0.5 274.5,-0.5"/>
<text text-anchor="middle" x="328" y="-7.5" font-family="Helvetica,sans-Serif" font-size="10.00">IncrementButton.cpp</text>
</a>
</g>
</g>
<!-- Node10&#45;&gt;Node11 -->
<g id="edge11" class="edge"><title>Node10&#45;&gt;Node11</title>
<path fill="none" stroke="midnightblue" d="M328,-45.8045C328,-36.9102 328,-26.7798 328,-19.7511"/>
<polygon fill="midnightblue" stroke="midnightblue" points="324.5,-46.083 328,-56.083 331.5,-46.083 324.5,-46.083"/>
</g>
<!-- Node13 -->
<g id="node13" class="node"><title>Node13</title>
<g id="a_node13"><a xlink:href="../../da/d66/IncrementDecrementButtons_8cpp.html" target="_top" xlink:title=" ">
<polygon fill="white" stroke="black" points="12.5,-0.5 12.5,-19.5 173.5,-19.5 173.5,-0.5 12.5,-0.5"/>
<text text-anchor="middle" x="93" y="-7.5" font-family="Helvetica,sans-Serif" font-size="10.00">IncrementDecrementButtons.cpp</text>
</a>
</g>
</g>
<!-- Node12&#45;&gt;Node13 -->
<g id="edge13" class="edge"><title>Node12&#45;&gt;Node13</title>
<path fill="none" stroke="midnightblue" d="M93,-45.8045C93,-36.9102 93,-26.7798 93,-19.7511"/>
<polygon fill="midnightblue" stroke="midnightblue" points="89.5001,-46.083 93,-56.083 96.5001,-46.083 89.5001,-46.083"/>
</g>
<!-- Node15 -->
<g id="node15" class="node"><title>Node15</title>
<g id="a_node15"><a xlink:href="../../d9/d4b/ButtonMatrix_8hpp.html" target="_top" xlink:title=" ">
<polygon fill="white" stroke="black" points="542.5,-56.5 542.5,-75.5 633.5,-75.5 633.5,-56.5 542.5,-56.5"/>
<text text-anchor="middle" x="588" y="-63.5" font-family="Helvetica,sans-Serif" font-size="10.00">ButtonMatrix.hpp</text>
</a>
</g>
</g>
<!-- Node14&#45;&gt;Node15 -->
<g id="edge15" class="edge"><title>Node14&#45;&gt;Node15</title>
<path fill="none" stroke="midnightblue" d="M594.921,-102.983C590.799,-93.8168 587.253,-83.0922 586.11,-75.7511"/>
<polygon fill="midnightblue" stroke="midnightblue" points="591.889,-104.744 599.531,-112.083 598.134,-101.581 591.889,-104.744"/>
</g>
<!-- Node15&#45;&gt;Node14 -->
<g id="edge16" class="edge"><title>Node15&#45;&gt;Node14</title>
<path fill="none" stroke="midnightblue" d="M600.987,-84.8111C605.116,-93.9533 608.685,-104.691 609.864,-112.083"/>
<polygon fill="midnightblue" stroke="midnightblue" points="604.029,-83.0735 596.372,-75.7511 597.792,-86.2504 604.029,-83.0735"/>
</g>
<!-- Node19 -->
<g id="node19" class="node"><title>Node19</title>
<g id="a_node19"><a xlink:href="../../d8/d93/ShiftRegisterOutBase_8hpp.html" target="_top" xlink:title=" ">
<polygon fill="white" stroke="black" points="1106.5,-112.5 1106.5,-131.5 1237.5,-131.5 1237.5,-112.5 1106.5,-112.5"/>
<text text-anchor="middle" x="1172" y="-119.5" font-family="Helvetica,sans-Serif" font-size="10.00">ShiftRegisterOutBase.hpp</text>
</a>
</g>
</g>
<!-- Node18&#45;&gt;Node19 -->
<g id="edge20" class="edge"><title>Node18&#45;&gt;Node19</title>
<path fill="none" stroke="midnightblue" d="M1204.04,-84.5199C1198.34,-93.7244 1190.27,-104.613 1183.44,-112.083"/>
<polygon fill="midnightblue" stroke="midnightblue" points="1207.12,-86.1822 1208.97,-75.7511 1201.02,-82.7485 1207.12,-86.1822"/>
</g>
<!-- Node19&#45;&gt;Node18 -->
<g id="edge24" class="edge"><title>Node19&#45;&gt;Node18</title>
<path fill="none" stroke="midnightblue" d="M1178.09,-103.275C1183.83,-94.0454 1191.9,-83.1703 1198.71,-75.7511"/>
<polygon fill="midnightblue" stroke="midnightblue" points="1174.99,-101.656 1173.11,-112.083 1181.08,-105.102 1174.99,-101.656"/>
</g>
<!-- Node20 -->
<g id="node20" class="node"><title>Node20</title>
<g id="a_node20"><a xlink:href="../../d0/db4/ShiftRegisterOut_8hpp.html" target="_top" xlink:title=" ">
<polygon fill="white" stroke="black" points="982,-56.5 982,-75.5 1090,-75.5 1090,-56.5 982,-56.5"/>
<text text-anchor="middle" x="1036" y="-63.5" font-family="Helvetica,sans-Serif" font-size="10.00">ShiftRegisterOut.hpp</text>
</a>
</g>
</g>
<!-- Node19&#45;&gt;Node20 -->
<g id="edge21" class="edge"><title>Node19&#45;&gt;Node20</title>
<path fill="none" stroke="midnightblue" d="M1140.87,-108.638C1115.34,-98.504 1079.89,-84.4274 1057.45,-75.5164"/>
<polygon fill="midnightblue" stroke="midnightblue" points="1139.86,-112.006 1150.45,-112.444 1142.45,-105.5 1139.86,-112.006"/>
</g>
<!-- Node22 -->
<g id="node22" class="node"><title>Node22</title>
<g id="a_node22"><a xlink:href="../../d7/d88/SPIShiftRegisterOut_8hpp.html" target="_top" xlink:title=" ">
<polygon fill="white" stroke="black" points="1292.5,-56.5 1292.5,-75.5 1417.5,-75.5 1417.5,-56.5 1292.5,-56.5"/>
<text text-anchor="middle" x="1355" y="-63.5" font-family="Helvetica,sans-Serif" font-size="10.00">SPIShiftRegisterOut.hpp</text>
</a>
</g>
</g>
<!-- Node19&#45;&gt;Node22 -->
<g id="edge25" class="edge"><title>Node19&#45;&gt;Node22</title>
<path fill="none" stroke="midnightblue" d="M1210.74,-109.568C1245.26,-99.381 1295.01,-84.7034 1326.14,-75.5164"/>
<polygon fill="midnightblue" stroke="midnightblue" points="1209.6,-106.256 1201,-112.444 1211.58,-112.97 1209.6,-106.256"/>
</g>
<!-- Node20&#45;&gt;Node21 -->
<g id="edge22" class="edge"><title>Node20&#45;&gt;Node21</title>
<path fill="none" stroke="midnightblue" d="M1029.53,-46.1005C1028.9,-37.1357 1029.34,-26.8579 1030.87,-19.7511"/>
<polygon fill="midnightblue" stroke="midnightblue" points="1026.07,-46.6216 1030.83,-56.083 1033.01,-45.7134 1026.07,-46.6216"/>
</g>
<!-- Node21&#45;&gt;Node20 -->
<g id="edge23" class="edge"><title>Node21&#45;&gt;Node20</title>
<path fill="none" stroke="midnightblue" d="M1042.46,-29.6911C1043.11,-38.6353 1042.68,-48.9272 1041.17,-56.083"/>
<polygon fill="midnightblue" stroke="midnightblue" points="1045.92,-29.2002 1041.13,-19.7511 1038.98,-30.1262 1045.92,-29.2002"/>
</g>
<!-- Node22&#45;&gt;Node23 -->
<g id="edge26" class="edge"><title>Node22&#45;&gt;Node23</title>
<path fill="none" stroke="midnightblue" d="M1348.53,-46.1005C1347.9,-37.1357 1348.34,-26.8579 1349.87,-19.7511"/>
<polygon fill="midnightblue" stroke="midnightblue" points="1345.07,-46.6216 1349.83,-56.083 1352.01,-45.7134 1345.07,-46.6216"/>
</g>
<!-- Node23&#45;&gt;Node22 -->
<g id="edge27" class="edge"><title>Node23&#45;&gt;Node22</title>
<path fill="none" stroke="midnightblue" d="M1361.46,-29.6911C1362.11,-38.6353 1361.68,-48.9272 1360.17,-56.083"/>
<polygon fill="midnightblue" stroke="midnightblue" points="1364.92,-29.2002 1360.13,-19.7511 1357.98,-30.1262 1364.92,-29.2002"/>
</g>
<!-- Node26 -->
<g id="node26" class="node"><title>Node26</title>
<g id="a_node26"><a xlink:href="../../d6/d3a/DotBarDisplayLEDs_8hpp.html" target="_top" xlink:title=" ">
<polygon fill="white" stroke="black" points="400,-56.5 400,-75.5 524,-75.5 524,-56.5 400,-56.5"/>
<text text-anchor="middle" x="462" y="-63.5" font-family="Helvetica,sans-Serif" font-size="10.00">DotBarDisplayLEDs.hpp</text>
</a>
</g>
</g>
<!-- Node25&#45;&gt;Node26 -->
<g id="edge32" class="edge"><title>Node25&#45;&gt;Node26</title>
<path fill="none" stroke="midnightblue" d="M500.002,-105.002C490.433,-95.4329 478.639,-83.6389 470.751,-75.7511"/>
<polygon fill="midnightblue" stroke="midnightblue" points="497.537,-107.487 507.083,-112.083 502.487,-102.537 497.537,-107.487"/>
</g>
<!-- Node28 -->
<g id="node28" class="node"><title>Node28</title>
<g id="a_node28"><a xlink:href="../../d2/d25/MAX7219_8hpp.html" target="_top" xlink:title=" ">
<polygon fill="white" stroke="black" points="886,-56.5 886,-75.5 964,-75.5 964,-56.5 886,-56.5"/>
<text text-anchor="middle" x="925" y="-63.5" font-family="Helvetica,sans-Serif" font-size="10.00">MAX7219.hpp</text>
</a>
</g>
</g>
<!-- Node27&#45;&gt;Node28 -->
<g id="edge34" class="edge"><title>Node27&#45;&gt;Node28</title>
<path fill="none" stroke="midnightblue" d="M796.52,-109.304C827.422,-99.1294 871.473,-84.6246 899.135,-75.5164"/>
<polygon fill="midnightblue" stroke="midnightblue" points="795.39,-105.992 786.986,-112.444 797.579,-112.64 795.39,-105.992"/>
</g>
<!-- Node29 -->
<g id="node29" class="node"><title>Node29</title>
<g id="a_node29"><a xlink:href="../../d5/d0c/MAX7219SevenSegmentDisplay_8hpp.html" target="_top" xlink:title=" ">
<polygon fill="white" stroke="black" points="690,-56.5 690,-75.5 868,-75.5 868,-56.5 690,-56.5"/>
<text text-anchor="middle" x="779" y="-63.5" font-family="Helvetica,sans-Serif" font-size="10.00">MAX7219SevenSegmentDisplay.hpp</text>
</a>
</g>
</g>
<!-- Node27&#45;&gt;Node29 -->
<g id="edge35" class="edge"><title>Node27&#45;&gt;Node29</title>
<path fill="none" stroke="midnightblue" d="M767.201,-102.396C770.213,-93.362 773.688,-82.936 776.083,-75.7511"/>
<polygon fill="midnightblue" stroke="midnightblue" points="763.814,-101.489 763.972,-112.083 770.455,-103.703 763.814,-101.489"/>
</g>
<!-- Node30&#45;&gt;Node16 -->
<g id="edge37" class="edge"><title>Node30&#45;&gt;Node16</title>
<path fill="none" stroke="midnightblue" d="M861.623,-164.503C885.619,-154.38 918.784,-140.388 939.813,-131.516"/>
<polygon fill="midnightblue" stroke="midnightblue" points="860.135,-161.332 852.282,-168.444 862.856,-167.781 860.135,-161.332"/>
</g>
<!-- Node30&#45;&gt;Node19 -->
<g id="edge39" class="edge"><title>Node30&#45;&gt;Node19</title>
<path fill="none" stroke="midnightblue" d="M895.884,-166.854C960.124,-156.651 1058.05,-141.098 1118.38,-131.516"/>
<polygon fill="midnightblue" stroke="midnightblue" points="895.201,-163.418 885.874,-168.444 896.299,-170.332 895.201,-163.418"/>
</g>
<!-- Node30&#45;&gt;Node28 -->
<g id="edge38" class="edge"><title>Node30&#45;&gt;Node28</title>
<path fill="none" stroke="midnightblue" d="M918.348,-166.902C961.712,-159.868 1007.81,-148.698 1021,-132 1041.83,-105.623 994.633,-85.9985 959.296,-75.5418"/>
<polygon fill="midnightblue" stroke="midnightblue" points="917.622,-163.473 908.281,-168.471 918.701,-170.389 917.622,-163.473"/>
</g>
<!-- Node33&#45;&gt;Node3 -->
<g id="edge67" class="edge"><title>Node33&#45;&gt;Node3</title>
<path fill="none" stroke="midnightblue" d="M878.475,-389.436C911.47,-379.255 958.756,-364.664 988.4,-355.516"/>
<polygon fill="midnightblue" stroke="midnightblue" points="877.253,-386.151 868.729,-392.444 879.317,-392.839 877.253,-386.151"/>
</g>
<!-- Node33&#45;&gt;Node17 -->
<g id="edge69" class="edge"><title>Node33&#45;&gt;Node17</title>
<path fill="none" stroke="midnightblue" d="M803.121,-395.904C776.272,-390.399 741.208,-379.079 719,-356 676.218,-311.54 721.731,-265.421 676,-224 620.691,-173.904 581.33,-215.606 512,-188 474.183,-172.942 434.307,-145.452 415.326,-131.545"/>
<polygon fill="midnightblue" stroke="midnightblue" points="802.492,-399.347 812.964,-397.742 803.777,-392.466 802.492,-399.347"/>
</g>
<!-- Node33&#45;&gt;Node31 -->
<g id="edge70" class="edge"><title>Node33&#45;&gt;Node31</title>
<path fill="none" stroke="midnightblue" d="M861.795,-386.404C871.838,-378.427 883.342,-367.78 891,-356 924.63,-304.27 897.702,-273.895 934,-224 945.658,-207.975 964.749,-195.36 978.67,-187.614"/>
<polygon fill="midnightblue" stroke="midnightblue" points="859.679,-383.616 853.819,-392.442 863.904,-389.197 859.679,-383.616"/>
</g>
<!-- Node34 -->
<g id="node34" class="node"><title>Node34</title>
<g id="a_node34"><a xlink:href="../../de/d76/Array_8hpp.html" target="_top" xlink:title=" ">
<polygon fill="white" stroke="black" points="420.5,-336.5 420.5,-355.5 479.5,-355.5 479.5,-336.5 420.5,-336.5"/>
<text text-anchor="middle" x="450" y="-343.5" font-family="Helvetica,sans-Serif" font-size="10.00">Array.hpp</text>
</a>
</g>
</g>
<!-- Node33&#45;&gt;Node34 -->
<g id="edge44" class="edge"><title>Node33&#45;&gt;Node34</title>
<path fill="none" stroke="midnightblue" d="M802.554,-395.69C724.658,-384.932 549.673,-360.766 479.722,-351.105"/>
<polygon fill="midnightblue" stroke="midnightblue" points="802.495,-399.215 812.88,-397.116 803.453,-392.281 802.495,-399.215"/>
</g>
<!-- Node45 -->
<g id="node45" class="node"><title>Node45</title>
<g id="a_node45"><a xlink:href="../../d1/d40/BitArray_8hpp.html" target="_top" xlink:title=" ">
<polygon fill="white" stroke="black" points="1096.5,-168.5 1096.5,-187.5 1167.5,-187.5 1167.5,-168.5 1096.5,-168.5"/>
<text text-anchor="middle" x="1132" y="-175.5" font-family="Helvetica,sans-Serif" font-size="10.00">BitArray.hpp</text>
</a>
</g>
</g>
<!-- Node33&#45;&gt;Node45 -->
<g id="edge63" class="edge"><title>Node33&#45;&gt;Node45</title>
<path fill="none" stroke="midnightblue" d="M864.097,-386.995C877.938,-378.396 895.75,-366.963 911,-356 995.216,-295.455 1090.74,-214.472 1121.72,-187.872"/>
<polygon fill="midnightblue" stroke="midnightblue" points="861.911,-384.231 855.23,-392.454 865.581,-390.192 861.911,-384.231"/>
</g>
<!-- Node46 -->
<g id="node46" class="node"><title>Node46</title>
<g id="a_node46"><a xlink:href="../../d6/df4/Exit_8cpp.html" target="_top" xlink:title=" ">
<polygon fill="white" stroke="black" points="728.5,-336.5 728.5,-355.5 781.5,-355.5 781.5,-336.5 728.5,-336.5"/>
<text text-anchor="middle" x="755" y="-343.5" font-family="Helvetica,sans-Serif" font-size="10.00">Exit.cpp</text>
</a>
</g>
</g>
<!-- Node33&#45;&gt;Node46 -->
<g id="edge68" class="edge"><title>Node33&#45;&gt;Node46</title>
<path fill="none" stroke="midnightblue" d="M818.545,-386.901C802.776,-376.999 782.186,-364.071 768.783,-355.655"/>
<polygon fill="midnightblue" stroke="midnightblue" points="816.852,-389.97 827.183,-392.324 820.575,-384.042 816.852,-389.97"/>
</g>
<!-- Node47 -->
<g id="node47" class="node"><title>Node47</title>
<g id="a_node47"><a xlink:href="../../d3/d50/FixedPoint_8hpp.html" target="_top" xlink:title=" ">
<polygon fill="white" stroke="black" points="800,-336.5 800,-355.5 882,-355.5 882,-336.5 800,-336.5"/>
<text text-anchor="middle" x="841" y="-343.5" font-family="Helvetica,sans-Serif" font-size="10.00">FixedPoint.hpp</text>
</a>
</g>
</g>
<!-- Node33&#45;&gt;Node47 -->
<g id="edge71" class="edge"><title>Node33&#45;&gt;Node47</title>
<path fill="none" stroke="midnightblue" d="M841,-381.805C841,-372.91 841,-362.78 841,-355.751"/>
<polygon fill="midnightblue" stroke="midnightblue" points="837.5,-382.083 841,-392.083 844.5,-382.083 837.5,-382.083"/>
</g>
<!-- Node34&#45;&gt;Node16 -->
<g id="edge49" class="edge"><title>Node34&#45;&gt;Node16</title>
<path fill="none" stroke="midnightblue" d="M478.229,-331.818C493.978,-323.773 513.487,-312.622 529,-300 563.928,-271.58 558.565,-249.026 596,-224 637.013,-196.583 655.704,-207.546 701,-188 718.523,-180.438 721.024,-174.413 739,-168 769.794,-157.014 854.458,-141.212 909.605,-131.552"/>
<polygon fill="midnightblue" stroke="midnightblue" points="476.378,-328.829 468.978,-336.41 479.491,-335.098 476.378,-328.829"/>
</g>
<!-- Node35 -->
<g id="node35" class="node"><title>Node35</title>
<g id="a_node35"><a xlink:href="../../d5/db6/ArrayHelpers_8hpp.html" target="_top" xlink:title=" ">
<polygon fill="white" stroke="black" points="457,-224.5 457,-243.5 549,-243.5 549,-224.5 457,-224.5"/>
<text text-anchor="middle" x="503" y="-231.5" font-family="Helvetica,sans-Serif" font-size="10.00">ArrayHelpers.hpp</text>
</a>
</g>
</g>
<!-- Node34&#45;&gt;Node35 -->
<g id="edge45" class="edge"><title>Node34&#45;&gt;Node35</title>
<path fill="none" stroke="midnightblue" d="M479.1,-331.654C491.634,-324.25 505,-313.73 512,-300 521.418,-281.528 512.896,-256.468 507.182,-243.523"/>
<polygon fill="midnightblue" stroke="midnightblue" points="477.326,-328.634 470.223,-336.495 480.678,-334.78 477.326,-328.634"/>
</g>
<!-- Node38 -->
<g id="node38" class="node"><title>Node38</title>
<g id="a_node38"><a xlink:href="../../d4/d35/Hardware-Types_8hpp.html" target="_top" xlink:title=" ">
<polygon fill="white" stroke="black" points="396.5,-280.5 396.5,-299.5 503.5,-299.5 503.5,-280.5 396.5,-280.5"/>
<text text-anchor="middle" x="450" y="-287.5" font-family="Helvetica,sans-Serif" font-size="10.00">Hardware&#45;Types.hpp</text>
</a>
</g>
</g>
<!-- Node34&#45;&gt;Node38 -->
<g id="edge50" class="edge"><title>Node34&#45;&gt;Node38</title>
<path fill="none" stroke="midnightblue" d="M450,-325.805C450,-316.91 450,-306.78 450,-299.751"/>
<polygon fill="midnightblue" stroke="midnightblue" points="446.5,-326.083 450,-336.083 453.5,-326.083 446.5,-326.083"/>
</g>
<!-- Node39 -->
<g id="node39" class="node"><title>Node39</title>
<g id="a_node39"><a xlink:href="../../d1/dde/BiQuad_8hpp.html" target="_top" xlink:title=" ">
<polygon fill="white" stroke="black" points="117,-224.5 117,-243.5 185,-243.5 185,-224.5 117,-224.5"/>
<text text-anchor="middle" x="151" y="-231.5" font-family="Helvetica,sans-Serif" font-size="10.00">BiQuad.hpp</text>
</a>
</g>
</g>
<!-- Node34&#45;&gt;Node39 -->
<g id="edge54" class="edge"><title>Node34&#45;&gt;Node39</title>
<path fill="none" stroke="midnightblue" d="M409.949,-345.248C335.353,-344.763 179.636,-338.982 146,-300 132.395,-284.233 140.93,-257.552 146.807,-243.791"/>
<polygon fill="midnightblue" stroke="midnightblue" points="410.33,-348.749 420.342,-345.284 410.355,-341.749 410.33,-348.749"/>
</g>
<!-- Node40 -->
<g id="node40" class="node"><title>Node40</title>
<g id="a_node40"><a xlink:href="../../d2/d3b/FIRFilter_8hpp.html" target="_top" xlink:title=" ">
<polygon fill="white" stroke="black" points="598,-280.5 598,-299.5 672,-299.5 672,-280.5 598,-280.5"/>
<text text-anchor="middle" x="635" y="-287.5" font-family="Helvetica,sans-Serif" font-size="10.00">FIRFilter.hpp</text>
</a>
</g>
</g>
<!-- Node34&#45;&gt;Node40 -->
<g id="edge56" class="edge"><title>Node34&#45;&gt;Node40</title>
<path fill="none" stroke="midnightblue" d="M489.166,-333.568C524.065,-323.381 574.349,-308.703 605.823,-299.516"/>
<polygon fill="midnightblue" stroke="midnightblue" points="487.933,-330.282 479.314,-336.444 489.894,-337.001 487.933,-330.282"/>
</g>
<!-- Node42 -->
<g id="node42" class="node"><title>Node42</title>
<g id="a_node42"><a xlink:href="../../dc/d64/IIRFilter_8hpp.html" target="_top" xlink:title=" ">
<polygon fill="white" stroke="black" points="203.5,-224.5 203.5,-243.5 274.5,-243.5 274.5,-224.5 203.5,-224.5"/>
<text text-anchor="middle" x="239" y="-231.5" font-family="Helvetica,sans-Serif" font-size="10.00">IIRFilter.hpp</text>
</a>
</g>
</g>
<!-- Node34&#45;&gt;Node42 -->
<g id="edge58" class="edge"><title>Node34&#45;&gt;Node42</title>
<path fill="none" stroke="midnightblue" d="M410.228,-336.654C381.636,-329.578 342.847,-317.717 312,-300 284.924,-284.449 259.058,-257.673 246.65,-243.842"/>
<polygon fill="midnightblue" stroke="midnightblue" points="409.728,-340.133 420.267,-339.047 411.351,-333.324 409.728,-340.133"/>
</g>
<!-- Node43 -->
<g id="node43" class="node"><title>Node43</title>
<g id="a_node43"><a xlink:href="../../dc/d9c/SMA_8hpp.html" target="_top" xlink:title=" ">
<polygon fill="white" stroke="black" points="321.5,-280.5 321.5,-299.5 378.5,-299.5 378.5,-280.5 321.5,-280.5"/>
<text text-anchor="middle" x="350" y="-287.5" font-family="Helvetica,sans-Serif" font-size="10.00">SMA.hpp</text>
</a>
</g>
</g>
<!-- Node34&#45;&gt;Node43 -->
<g id="edge59" class="edge"><title>Node34&#45;&gt;Node43</title>
<path fill="none" stroke="midnightblue" d="M424.912,-331.453C406.451,-321.483 381.903,-308.228 366.027,-299.655"/>
<polygon fill="midnightblue" stroke="midnightblue" points="423.471,-334.652 433.933,-336.324 426.797,-328.493 423.471,-334.652"/>
</g>
<!-- Node44 -->
<g id="node44" class="node"><title>Node44</title>
<g id="a_node44"><a xlink:href="../../d2/d03/TransferFunction_8hpp.html" target="_top" xlink:title=" ">
<polygon fill="white" stroke="black" points="155.5,-280.5 155.5,-299.5 264.5,-299.5 264.5,-280.5 155.5,-280.5"/>
<text text-anchor="middle" x="210" y="-287.5" font-family="Helvetica,sans-Serif" font-size="10.00">TransferFunction.hpp</text>
</a>
</g>
</g>
<!-- Node34&#45;&gt;Node44 -->
<g id="edge60" class="edge"><title>Node34&#45;&gt;Node44</title>
<path fill="none" stroke="midnightblue" d="M410.077,-336.017C364.953,-325.864 292.041,-309.459 247.808,-299.507"/>
<polygon fill="midnightblue" stroke="midnightblue" points="409.565,-339.489 420.089,-338.27 411.101,-332.66 409.565,-339.489"/>
</g>
<!-- Node35&#45;&gt;Node30 -->
<g id="edge46" class="edge"><title>Node35&#45;&gt;Node30</title>
<path fill="none" stroke="midnightblue" d="M559.072,-223.797C620.96,-213.639 719.766,-197.421 779.983,-187.538"/>
<polygon fill="midnightblue" stroke="midnightblue" points="558.394,-220.361 549.092,-225.435 559.527,-227.269 558.394,-220.361"/>
</g>
<!-- Node36 -->
<g id="node36" class="node"><title>Node36</title>
<g id="a_node36"><a xlink:href="../../df/ddc/SOSFilter_8hpp.html" target="_top" xlink:title=" ">
<polygon fill="white" stroke="black" points="117,-168.5 117,-187.5 195,-187.5 195,-168.5 117,-168.5"/>
<text text-anchor="middle" x="156" y="-175.5" font-family="Helvetica,sans-Serif" font-size="10.00">SOSFilter.hpp</text>
</a>
</g>
</g>
<!-- Node35&#45;&gt;Node36 -->
<g id="edge47" class="edge"><title>Node35&#45;&gt;Node36</title>
<path fill="none" stroke="midnightblue" d="M446.857,-224.263C376.154,-213.26 256.507,-194.641 195.03,-185.074"/>
<polygon fill="midnightblue" stroke="midnightblue" points="446.502,-227.75 456.921,-225.829 447.578,-220.833 446.502,-227.75"/>
</g>
<!-- Node37 -->
<g id="node37" class="node"><title>Node37</title>
<g id="a_node37"><a xlink:href="../../d4/d40/Butterworth_8hpp.html" target="_top" xlink:title=" ">
<polygon fill="white" stroke="black" points="0,-112.5 0,-131.5 86,-131.5 86,-112.5 0,-112.5"/>
<text text-anchor="middle" x="43" y="-119.5" font-family="Helvetica,sans-Serif" font-size="10.00">Butterworth.hpp</text>
</a>
</g>
</g>
<!-- Node36&#45;&gt;Node37 -->
<g id="edge48" class="edge"><title>Node36&#45;&gt;Node37</title>
<path fill="none" stroke="midnightblue" d="M128.997,-164.096C107.886,-154.007 79.1385,-140.27 60.8214,-131.516"/>
<polygon fill="midnightblue" stroke="midnightblue" points="127.563,-167.29 138.095,-168.444 130.581,-160.974 127.563,-167.29"/>
</g>
<!-- Node38&#45;&gt;Node6 -->
<g id="edge52" class="edge"><title>Node38&#45;&gt;Node6</title>
<path fill="none" stroke="midnightblue" d="M513.755,-279.275C580.601,-269.078 684.594,-253.215 748.266,-243.502"/>
<polygon fill="midnightblue" stroke="midnightblue" points="513.123,-275.831 503.765,-280.799 514.178,-282.75 513.123,-275.831"/>
</g>
<!-- Node38&#45;&gt;Node15 -->
<g id="edge51" class="edge"><title>Node38&#45;&gt;Node15</title>
<path fill="none" stroke="midnightblue" d="M427.705,-274.857C381.554,-243.889 283.661,-168.348 331,-112 332.703,-109.973 469.049,-86.8962 542.425,-74.6034"/>
<polygon fill="midnightblue" stroke="midnightblue" points="425.909,-277.865 436.187,-280.438 429.757,-272.017 425.909,-277.865"/>
</g>
<!-- Node38&#45;&gt;Node24 -->
<g id="edge53" class="edge"><title>Node38&#45;&gt;Node24</title>
<path fill="none" stroke="midnightblue" d="M410.528,-277.423C385.849,-269.495 353.778,-257.913 327,-244 260.393,-209.393 189.449,-153.105 163.376,-131.665"/>
<polygon fill="midnightblue" stroke="midnightblue" points="409.685,-280.827 420.274,-280.488 411.785,-274.149 409.685,-280.827"/>
</g>
<!-- Node39&#45;&gt;Node36 -->
<g id="edge55" class="edge"><title>Node39&#45;&gt;Node36</title>
<path fill="none" stroke="midnightblue" d="M152.75,-214.101C153.58,-205.136 154.532,-194.858 155.19,-187.751"/>
<polygon fill="midnightblue" stroke="midnightblue" points="149.263,-213.803 151.826,-224.083 156.233,-214.448 149.263,-213.803"/>
</g>
<!-- Node41 -->
<g id="node41" class="node"><title>Node41</title>
<g id="a_node41"><a xlink:href="../../df/da1/Notch_8hpp.html" target="_top" xlink:title=" ">
<polygon fill="white" stroke="black" points="605,-224.5 605,-243.5 667,-243.5 667,-224.5 605,-224.5"/>
<text text-anchor="middle" x="636" y="-231.5" font-family="Helvetica,sans-Serif" font-size="10.00">Notch.hpp</text>
</a>
</g>
</g>
<!-- Node40&#45;&gt;Node41 -->
<g id="edge57" class="edge"><title>Node40&#45;&gt;Node41</title>
<path fill="none" stroke="midnightblue" d="M635.355,-269.805C635.52,-260.91 635.708,-250.78 635.838,-243.751"/>
<polygon fill="midnightblue" stroke="midnightblue" points="631.851,-270.02 635.165,-280.083 638.85,-270.15 631.851,-270.02"/>
</g>
<!-- Node44&#45;&gt;Node39 -->
<g id="edge61" class="edge"><title>Node44&#45;&gt;Node39</title>
<path fill="none" stroke="midnightblue" d="M193.105,-273.537C182.585,-263.909 169.431,-251.869 160.652,-243.834"/>
<polygon fill="midnightblue" stroke="midnightblue" points="190.781,-276.154 200.521,-280.324 195.507,-270.99 190.781,-276.154"/>
</g>
<!-- Node44&#45;&gt;Node42 -->
<g id="edge62" class="edge"><title>Node44&#45;&gt;Node42</title>
<path fill="none" stroke="midnightblue" d="M219.676,-270.983C224.598,-261.817 230.358,-251.092 234.3,-243.751"/>
<polygon fill="midnightblue" stroke="midnightblue" points="216.437,-269.617 214.789,-280.083 222.604,-272.929 216.437,-269.617"/>
</g>
<!-- Node45&#45;&gt;Node19 -->
<g id="edge65" class="edge"><title>Node45&#45;&gt;Node19</title>
<path fill="none" stroke="midnightblue" d="M1144.7,-159.855C1151.63,-150.505 1159.91,-139.327 1165.52,-131.751"/>
<polygon fill="midnightblue" stroke="midnightblue" points="1141.75,-157.964 1138.61,-168.083 1147.37,-162.131 1141.75,-157.964"/>
</g>
<!-- Node45&#45;&gt;Node22 -->
<g id="edge66" class="edge"><title>Node45&#45;&gt;Node22</title>
<path fill="none" stroke="midnightblue" d="M1166.6,-165.001C1189.53,-156.648 1220.05,-144.755 1246,-132 1282.19,-114.214 1322.34,-88.6414 1342.29,-75.5032"/>
<polygon fill="midnightblue" stroke="midnightblue" points="1165.18,-161.79 1156.96,-168.468 1167.55,-168.377 1165.18,-161.79"/>
</g>
<!-- Node45&#45;&gt;Node28 -->
<g id="edge64" class="edge"><title>Node45&#45;&gt;Node28</title>
<path fill="none" stroke="midnightblue" d="M1113.11,-162.029C1094.69,-147.9 1065.5,-126.74 1038,-112 1009.52,-96.7384 974.723,-83.6455 951.328,-75.5804"/>
<polygon fill="midnightblue" stroke="midnightblue" points="1111.19,-164.97 1121.24,-168.342 1115.49,-159.443 1111.19,-164.97"/>
</g>
<!-- Node48&#45;&gt;Node18 -->
<g id="edge75" class="edge"><title>Node48&#45;&gt;Node18</title>
<path fill="none" stroke="midnightblue" d="M1304,-438.251C1304,-416.357 1304,-379.052 1304,-347 1304,-347 1304,-347 1304,-177 1304,-129.271 1252.22,-91.7973 1225.52,-75.6471"/>
<polygon fill="midnightblue" stroke="midnightblue" points="1300.5,-438.442 1304,-448.442 1307.5,-438.442 1300.5,-438.442"/>
</g>
<!-- Node49 -->
<g id="node49" class="node"><title>Node49</title>
<g id="a_node49"><a xlink:href="../../db/d0b/ShiftRegisterOutRGB_8cpp.html" target="_top" xlink:title=" ">
<polygon fill="white" stroke="black" points="1332,-392.5 1332,-411.5 1462,-411.5 1462,-392.5 1332,-392.5"/>
<text text-anchor="middle" x="1397" y="-399.5" font-family="Helvetica,sans-Serif" font-size="10.00">ShiftRegisterOutRGB.cpp</text>
</a>
</g>
</g>
<!-- Node48&#45;&gt;Node49 -->
<g id="edge76" class="edge"><title>Node48&#45;&gt;Node49</title>
<path fill="none" stroke="midnightblue" d="M1327.81,-443.177C1344.92,-433.241 1367.47,-420.149 1382.1,-411.655"/>
<polygon fill="midnightblue" stroke="midnightblue" points="1325.83,-440.276 1318.94,-448.324 1329.35,-446.329 1325.83,-440.276"/>
</g>
</g>
</svg>
