<?xml version="1.0" encoding="UTF-8" standalone="no"?>
<!DOCTYPE svg PUBLIC "-//W3C//DTD SVG 1.1//EN"
 "http://www.w3.org/Graphics/SVG/1.1/DTD/svg11.dtd">
<!-- Generated by graphviz version 2.38.0 (20140413.2041)
 -->
<!-- Title: NonNormalizingBiQuadFilterDF2&lt; T &gt; Pages: 1 -->
<svg width="182pt" height="248pt"
 viewBox="0.00 0.00 182.00 248.00" xmlns="http://www.w3.org/2000/svg" xmlns:xlink="http://www.w3.org/1999/xlink">
<g id="graph0" class="graph" transform="scale(1 1) rotate(0) translate(4 244)">
<title>NonNormalizingBiQuadFilterDF2&lt; T &gt;</title>
<polygon fill="white" stroke="none" points="-4,4 -4,-244 178,-244 178,4 -4,4"/>
<!-- Node1 -->
<g id="node1" class="node"><title>Node1</title>
<g id="a_node1"><a xlink:title="BiQuad filter Direct Form 2 implementation that does not normalize the coefficients upon initializati...">
<polygon fill="#bfbfbf" stroke="black" points="0,-0.5 0,-134.5 174,-134.5 174,-0.5 0,-0.5"/>
<text text-anchor="start" x="8" y="-122.5" font-family="Helvetica,sans-Serif" font-size="10.00">NonNormalizingBiQuadFilter</text>
<text text-anchor="middle" x="87" y="-111.5" font-family="Helvetica,sans-Serif" font-size="10.00">DF2&lt; T &gt;</text>
<polyline fill="none" stroke="black" points="0,-104.5 174,-104.5 "/>
<text text-anchor="start" x="8" y="-92.5" font-family="Helvetica,sans-Serif" font-size="10.00">&#45; w</text>
<text text-anchor="start" x="8" y="-81.5" font-family="Helvetica,sans-Serif" font-size="10.00">&#45; b</text>
<text text-anchor="start" x="8" y="-70.5" font-family="Helvetica,sans-Serif" font-size="10.00">&#45; a</text>
<polyline fill="none" stroke="black" points="0,-63.5 174,-63.5 "/>
<text text-anchor="start" x="8" y="-51.5" font-family="Helvetica,sans-Serif" font-size="10.00">+ NonNormalizingBiQuadFilterDF2()</text>
<text text-anchor="start" x="8" y="-40.5" font-family="Helvetica,sans-Serif" font-size="10.00">+ NonNormalizingBiQuadFilterDF2()</text>
<text text-anchor="start" x="8" y="-29.5" font-family="Helvetica,sans-Serif" font-size="10.00">+ NonNormalizingBiQuadFilterDF2()</text>
<text text-anchor="start" x="8" y="-18.5" font-family="Helvetica,sans-Serif" font-size="10.00">+ operator()()</text>
<text text-anchor="start" x="8" y="-7.5" font-family="Helvetica,sans-Serif" font-size="10.00">+ update()</text>
</a>
</g>
</g>
<!-- Node2 -->
<g id="node2" class="node"><title>Node2</title>
<g id="a_node2"><a xlink:title=" ">
<polygon fill="white" stroke="#bfbfbf" points="72.5,-182.5 72.5,-239.5 101.5,-239.5 101.5,-182.5 72.5,-182.5"/>
<text text-anchor="middle" x="87" y="-227.5" font-family="Helvetica,sans-Serif" font-size="10.00">T</text>
<polyline fill="none" stroke="#bfbfbf" points="72.5,-220.5 101.5,-220.5 "/>
<text text-anchor="middle" x="87" y="-208.5" font-family="Helvetica,sans-Serif" font-size="10.00"> </text>
<polyline fill="none" stroke="#bfbfbf" points="72.5,-201.5 101.5,-201.5 "/>
<text text-anchor="middle" x="87" y="-189.5" font-family="Helvetica,sans-Serif" font-size="10.00"> </text>
</a>
</g>
</g>
<!-- Node2&#45;&gt;Node1 -->
<g id="edge1" class="edge"><title>Node2&#45;&gt;Node1</title>
<path fill="none" stroke="#404040" d="M87,-182.381C87,-172.02 87,-159.663 87,-146.97"/>
<polygon fill="none" stroke="#404040" points="87.0001,-146.753 83,-140.753 87,-134.753 91,-140.753 87.0001,-146.753"/>
<text text-anchor="middle" x="95.5" y="-156" font-family="Helvetica,sans-Serif" font-size="10.00"> &#45;a0</text>
</g>
</g>
</svg>
