<?xml version="1.0" encoding="UTF-8" standalone="no"?>
<!DOCTYPE svg PUBLIC "-//W3C//DTD SVG 1.1//EN"
 "http://www.w3.org/Graphics/SVG/1.1/DTD/svg11.dtd">
<!-- Generated by graphviz version 2.43.0 (0)
 -->
<!-- Title: DotBarDisplayLEDs.hpp Pages: 1 -->
<svg width="1423pt" height="845pt"
 viewBox="0.00 0.00 1423.00 845.00" xmlns="http://www.w3.org/2000/svg" xmlns:xlink="http://www.w3.org/1999/xlink">
<g id="graph0" class="graph" transform="scale(1 1) rotate(0) translate(4 841)">
<title>DotBarDisplayLEDs.hpp</title>
<polygon fill="white" stroke="transparent" points="-4,4 -4,-841 1419,-841 1419,4 -4,4"/>
<!-- Node1 -->
<g id="node1" class="node">
<title>Node1</title>
<g id="a_node1"><a xlink:title=" ">
<polygon fill="#bfbfbf" stroke="black" points="0,-817.5 0,-836.5 132,-836.5 132,-817.5 0,-817.5"/>
<text text-anchor="middle" x="66" y="-824.5" font-family="Helvetica,sans-Serif" font-size="10.00">DotBarDisplayLEDs.hpp</text>
</a>
</g>
</g>
<!-- Node2 -->
<g id="node2" class="node">
<title>Node2</title>
<g id="a_node2"><a xlink:href="../../d1/d65/Warnings_8hpp.html" target="_top" xlink:title=" ">
<polygon fill="white" stroke="black" points="647.5,-0.5 647.5,-19.5 790.5,-19.5 790.5,-0.5 647.5,-0.5"/>
<text text-anchor="middle" x="719" y="-7.5" font-family="Helvetica,sans-Serif" font-size="10.00">AH/Settings/Warnings.hpp</text>
</a>
</g>
</g>
<!-- Node1&#45;&gt;Node2 -->
<g id="edge1" class="edge">
<title>Node1&#45;&gt;Node2</title>
<path fill="none" stroke="midnightblue" d="M57.86,-817.37C50.16,-808.78 38.8,-794.9 32,-781 17.73,-751.85 13,-742.95 13,-710.5 13,-710.5 13,-710.5 13,-121 13,-87.54 22.55,-73.62 51,-56 99.72,-25.82 469.84,-15.44 637.23,-12.26"/>
<polygon fill="midnightblue" stroke="midnightblue" points="637.3,-15.75 647.23,-12.07 637.17,-8.76 637.3,-15.75"/>
</g>
<!-- Node3 -->
<g id="node3" class="node">
<title>Node3</title>
<g id="a_node3"><a xlink:href="../../d9/d4f/LEDs_8hpp.html" target="_top" xlink:title=" ">
<polygon fill="white" stroke="black" points="41,-761.5 41,-780.5 197,-780.5 197,-761.5 41,-761.5"/>
<text text-anchor="middle" x="119" y="-768.5" font-family="Helvetica,sans-Serif" font-size="10.00">AH/Hardware/LEDs/LEDs.hpp</text>
</a>
</g>
</g>
<!-- Node1&#45;&gt;Node3 -->
<g id="edge2" class="edge">
<title>Node1&#45;&gt;Node3</title>
<path fill="none" stroke="midnightblue" d="M74.75,-817.08C82.47,-809.22 93.9,-797.57 103.22,-788.08"/>
<polygon fill="midnightblue" stroke="midnightblue" points="105.9,-790.34 110.41,-780.75 100.91,-785.44 105.9,-790.34"/>
</g>
<!-- Node3&#45;&gt;Node2 -->
<g id="edge3" class="edge">
<title>Node3&#45;&gt;Node2</title>
<path fill="none" stroke="midnightblue" d="M110.39,-761.36C92.09,-742.03 51,-693.12 51,-643.5 51,-643.5 51,-643.5 51,-121 51,-90.9 46.56,-74.87 70,-56 113.22,-21.2 472.5,-13.31 637.15,-11.52"/>
<polygon fill="midnightblue" stroke="midnightblue" points="637.27,-15.02 647.23,-11.42 637.2,-8.02 637.27,-15.02"/>
</g>
<!-- Node4 -->
<g id="node4" class="node">
<title>Node4</title>
<g id="a_node4"><a xlink:href="../../dd/ddf/ExtendedInputOutput_8hpp.html" target="_top" xlink:title=" ">
<polygon fill="white" stroke="black" points="114.5,-694.5 114.5,-724.5 291.5,-724.5 291.5,-694.5 114.5,-694.5"/>
<text text-anchor="start" x="122.5" y="-712.5" font-family="Helvetica,sans-Serif" font-size="10.00">AH/Hardware/ExtendedInput</text>
<text text-anchor="middle" x="203" y="-701.5" font-family="Helvetica,sans-Serif" font-size="10.00">Output/ExtendedInputOutput.hpp</text>
</a>
</g>
</g>
<!-- Node3&#45;&gt;Node4 -->
<g id="edge4" class="edge">
<title>Node3&#45;&gt;Node4</title>
<path fill="none" stroke="midnightblue" d="M131.04,-761.48C142.41,-753.42 159.91,-741.02 174.8,-730.47"/>
<polygon fill="midnightblue" stroke="midnightblue" points="177.07,-733.16 183.2,-724.52 173.02,-727.45 177.07,-733.16"/>
</g>
<!-- Node4&#45;&gt;Node2 -->
<g id="edge55" class="edge">
<title>Node4&#45;&gt;Node2</title>
<path fill="none" stroke="midnightblue" d="M291.63,-708.14C571.03,-705.84 1415,-689.54 1415,-576.5 1415,-576.5 1415,-576.5 1415,-121 1415,-80.46 1387.82,-72.98 1351,-56 1302.28,-33.53 960.78,-19.17 801.03,-13.61"/>
<polygon fill="midnightblue" stroke="midnightblue" points="800.89,-10.11 790.78,-13.26 800.65,-17.1 800.89,-10.11"/>
</g>
<!-- Node5 -->
<g id="node5" class="node">
<title>Node5</title>
<g id="a_node5"><a xlink:href="../../d2/d3c/Arduino-Hardware-Types_8hpp.html" target="_top" xlink:title=" ">
<polygon fill="white" stroke="black" points="265,-627.5 265,-657.5 387,-657.5 387,-627.5 265,-627.5"/>
<text text-anchor="start" x="273" y="-645.5" font-family="Helvetica,sans-Serif" font-size="10.00">AH/Hardware/Arduino</text>
<text text-anchor="middle" x="326" y="-634.5" font-family="Helvetica,sans-Serif" font-size="10.00">&#45;Hardware&#45;Types.hpp</text>
</a>
</g>
</g>
<!-- Node4&#45;&gt;Node5 -->
<g id="edge5" class="edge">
<title>Node4&#45;&gt;Node5</title>
<path fill="none" stroke="midnightblue" d="M229.69,-694.4C247.5,-684.98 271.12,-672.5 290.51,-662.26"/>
<polygon fill="midnightblue" stroke="midnightblue" points="292.16,-665.34 299.36,-657.58 288.89,-659.15 292.16,-665.34"/>
</g>
<!-- Node11 -->
<g id="node11" class="node">
<title>Node11</title>
<g id="a_node11"><a xlink:href="../../dc/dc7/NamespaceSettings_8hpp.html" target="_top" xlink:title=" ">
<polygon fill="white" stroke="black" points="360.5,-56.5 360.5,-75.5 555.5,-75.5 555.5,-56.5 360.5,-56.5"/>
<text text-anchor="middle" x="458" y="-63.5" font-family="Helvetica,sans-Serif" font-size="10.00">AH/Settings/NamespaceSettings.hpp</text>
</a>
</g>
</g>
<!-- Node4&#45;&gt;Node11 -->
<g id="edge54" class="edge">
<title>Node4&#45;&gt;Node11</title>
<path fill="none" stroke="midnightblue" d="M183.34,-694.48C171.95,-685.34 158.26,-672.45 150,-658 131.54,-625.71 131,-613.69 131,-576.5 131,-576.5 131,-576.5 131,-457 131,-321.37 139.54,-269.95 229,-168 254.82,-138.57 262.29,-130.1 297,-112 328.35,-95.65 366.32,-84.67 397.51,-77.65"/>
<polygon fill="midnightblue" stroke="midnightblue" points="398.35,-81.05 407.38,-75.51 396.87,-74.21 398.35,-81.05"/>
</g>
<!-- Node29 -->
<g id="node29" class="node">
<title>Node29</title>
<g id="a_node29"><a xlink:title=" ">
<polygon fill="white" stroke="#bfbfbf" points="159.5,-633 159.5,-652 246.5,-652 246.5,-633 159.5,-633"/>
<text text-anchor="middle" x="203" y="-640" font-family="Helvetica,sans-Serif" font-size="10.00">AH/STL/climits</text>
</a>
</g>
</g>
<!-- Node4&#45;&gt;Node29 -->
<g id="edge53" class="edge">
<title>Node4&#45;&gt;Node29</title>
<path fill="none" stroke="midnightblue" d="M203,-694.4C203,-685.06 203,-672.71 203,-662.52"/>
<polygon fill="midnightblue" stroke="midnightblue" points="206.5,-662.19 203,-652.19 199.5,-662.19 206.5,-662.19"/>
</g>
<!-- Node5&#45;&gt;Node2 -->
<g id="edge6" class="edge">
<title>Node5&#45;&gt;Node2</title>
<path fill="none" stroke="midnightblue" d="M387.05,-640.61C611.36,-636.57 1377,-615.39 1377,-515 1377,-515 1377,-515 1377,-121 1377,-82.58 1354.38,-73.15 1320,-56 1274.73,-33.41 954.75,-19.27 801.04,-13.7"/>
<polygon fill="midnightblue" stroke="midnightblue" points="800.84,-10.19 790.72,-13.33 800.58,-17.19 800.84,-10.19"/>
</g>
<!-- Node6 -->
<g id="node6" class="node">
<title>Node6</title>
<g id="a_node6"><a xlink:href="../../d4/d35/Hardware-Types_8hpp.html" target="_top" xlink:title=" ">
<polygon fill="white" stroke="black" points="260.5,-560.5 260.5,-590.5 391.5,-590.5 391.5,-560.5 260.5,-560.5"/>
<text text-anchor="start" x="268.5" y="-578.5" font-family="Helvetica,sans-Serif" font-size="10.00">AH/Hardware/Hardware</text>
<text text-anchor="middle" x="326" y="-567.5" font-family="Helvetica,sans-Serif" font-size="10.00">&#45;Types.hpp</text>
</a>
</g>
</g>
<!-- Node5&#45;&gt;Node6 -->
<g id="edge7" class="edge">
<title>Node5&#45;&gt;Node6</title>
<path fill="none" stroke="midnightblue" d="M326,-627.4C326,-619.64 326,-609.81 326,-600.86"/>
<polygon fill="midnightblue" stroke="midnightblue" points="329.5,-600.58 326,-590.58 322.5,-600.58 329.5,-600.58"/>
</g>
<!-- Node12 -->
<g id="node12" class="node">
<title>Node12</title>
<g id="a_node12"><a xlink:href="../../d6/ddf/Arduino-Wrapper_8h.html" target="_top" xlink:title=" ">
<polygon fill="white" stroke="black" points="822,-168.5 822,-187.5 946,-187.5 946,-168.5 822,-168.5"/>
<text text-anchor="middle" x="884" y="-175.5" font-family="Helvetica,sans-Serif" font-size="10.00">AH/Arduino&#45;Wrapper.h</text>
</a>
</g>
</g>
<!-- Node5&#45;&gt;Node12 -->
<g id="edge52" class="edge">
<title>Node5&#45;&gt;Node12</title>
<path fill="none" stroke="midnightblue" d="M297.57,-627.42C268.77,-611.32 231.22,-584.1 252,-560 433.95,-349.06 633.35,-611.69 872,-468 929.19,-433.56 961,-413.76 961,-347 961,-347 961,-347 961,-289 961,-248.93 926.29,-213.08 903.47,-193.84"/>
<polygon fill="midnightblue" stroke="midnightblue" points="905.67,-191.11 895.69,-187.53 901.26,-196.55 905.67,-191.11"/>
</g>
<!-- Node26 -->
<g id="node26" class="node">
<title>Node26</title>
<g id="a_node26"><a xlink:href="../../d0/db1/FunctionTraits_8hpp.html" target="_top" xlink:title=" ">
<polygon fill="white" stroke="black" points="79.5,-112.5 79.5,-131.5 232.5,-131.5 232.5,-112.5 79.5,-112.5"/>
<text text-anchor="middle" x="156" y="-119.5" font-family="Helvetica,sans-Serif" font-size="10.00">AH/Types/FunctionTraits.hpp</text>
</a>
</g>
</g>
<!-- Node5&#45;&gt;Node26 -->
<g id="edge47" class="edge">
<title>Node5&#45;&gt;Node26</title>
<path fill="none" stroke="midnightblue" d="M282.27,-627.46C235.81,-609.48 169,-573.46 169,-515 169,-515 169,-515 169,-457 169,-378.85 111,-369.15 111,-291 111,-291 111,-291 111,-233 111,-197.93 130.84,-160.94 144.17,-140.04"/>
<polygon fill="midnightblue" stroke="midnightblue" points="147.13,-141.9 149.74,-131.63 141.3,-138.03 147.13,-141.9"/>
</g>
<!-- Node6&#45;&gt;Node2 -->
<g id="edge8" class="edge">
<title>Node6&#45;&gt;Node2</title>
<path fill="none" stroke="midnightblue" d="M391.77,-575.4C506.19,-575.58 748.61,-569.86 947,-524 1024.2,-506.15 1113,-538.23 1113,-459 1113,-459 1113,-459 1113,-121 1113,-56.8 916.49,-28.42 801.03,-17.28"/>
<polygon fill="midnightblue" stroke="midnightblue" points="801.09,-13.77 790.81,-16.32 800.44,-20.74 801.09,-13.77"/>
</g>
<!-- Node7 -->
<g id="node7" class="node">
<title>Node7</title>
<g id="a_node7"><a xlink:href="../../de/d76/Array_8hpp.html" target="_top" xlink:title=" ">
<polygon fill="white" stroke="black" points="802.5,-504.5 802.5,-523.5 937.5,-523.5 937.5,-504.5 802.5,-504.5"/>
<text text-anchor="middle" x="870" y="-511.5" font-family="Helvetica,sans-Serif" font-size="10.00">AH/Containers/Array.hpp</text>
</a>
</g>
</g>
<!-- Node6&#45;&gt;Node7 -->
<g id="edge9" class="edge">
<title>Node6&#45;&gt;Node7</title>
<path fill="none" stroke="midnightblue" d="M391.62,-567.32C492.36,-556.3 684.74,-535.26 792.3,-523.5"/>
<polygon fill="midnightblue" stroke="midnightblue" points="792.88,-526.96 802.44,-522.39 792.12,-520 792.88,-526.96"/>
</g>
<!-- Node6&#45;&gt;Node11 -->
<g id="edge45" class="edge">
<title>Node6&#45;&gt;Node11</title>
<path fill="none" stroke="midnightblue" d="M313.27,-560.4C270.7,-511.47 139.73,-345.42 207,-224 251.97,-142.82 358.36,-98.06 417.17,-78.72"/>
<polygon fill="midnightblue" stroke="midnightblue" points="418.41,-81.99 426.87,-75.62 416.28,-75.33 418.41,-81.99"/>
</g>
<!-- Node23 -->
<g id="node23" class="node">
<title>Node23</title>
<g id="a_node23"><a xlink:title=" ">
<polygon fill="white" stroke="#bfbfbf" points="215.5,-224.5 215.5,-243.5 268.5,-243.5 268.5,-224.5 215.5,-224.5"/>
<text text-anchor="middle" x="242" y="-231.5" font-family="Helvetica,sans-Serif" font-size="10.00">stdint.h</text>
</a>
</g>
</g>
<!-- Node6&#45;&gt;Node23 -->
<g id="edge46" class="edge">
<title>Node6&#45;&gt;Node23</title>
<path fill="none" stroke="midnightblue" d="M319.58,-560.24C310.5,-538.76 295,-496.58 295,-459 295,-459 295,-459 295,-345 295,-308.99 271.67,-272.34 255.96,-251.75"/>
<polygon fill="midnightblue" stroke="midnightblue" points="258.55,-249.38 249.59,-243.72 253.07,-253.73 258.55,-249.38"/>
</g>
<!-- Node7&#45;&gt;Node2 -->
<g id="edge10" class="edge">
<title>Node7&#45;&gt;Node2</title>
<path fill="none" stroke="midnightblue" d="M933.79,-504.49C980.42,-497.02 1038.45,-484.74 1056,-468 1077.78,-447.22 1075,-433.1 1075,-403 1075,-403 1075,-403 1075,-121 1075,-63.89 905.67,-33.24 800.58,-19.71"/>
<polygon fill="midnightblue" stroke="midnightblue" points="800.97,-16.23 790.61,-18.45 800.1,-23.17 800.97,-16.23"/>
</g>
<!-- Node8 -->
<g id="node8" class="node">
<title>Node8</title>
<g id="a_node8"><a xlink:href="../../d1/d93/Error_8hpp.html" target="_top" xlink:title=" ">
<polygon fill="white" stroke="black" points="759,-448.5 759,-467.5 863,-467.5 863,-448.5 759,-448.5"/>
<text text-anchor="middle" x="811" y="-455.5" font-family="Helvetica,sans-Serif" font-size="10.00">AH/Error/Error.hpp</text>
</a>
</g>
</g>
<!-- Node7&#45;&gt;Node8 -->
<g id="edge11" class="edge">
<title>Node7&#45;&gt;Node8</title>
<path fill="none" stroke="midnightblue" d="M860.52,-504.32C851.8,-496.34 838.66,-484.31 828.1,-474.65"/>
<polygon fill="midnightblue" stroke="midnightblue" points="830.39,-472 820.65,-467.83 825.67,-477.17 830.39,-472"/>
</g>
<!-- Node16 -->
<g id="node16" class="node">
<title>Node16</title>
<g id="a_node16"><a xlink:title=" ">
<polygon fill="white" stroke="#bfbfbf" points="901.5,-112.5 901.5,-131.5 1008.5,-131.5 1008.5,-112.5 901.5,-112.5"/>
<text text-anchor="middle" x="955" y="-119.5" font-family="Helvetica,sans-Serif" font-size="10.00">AH/STL/type_traits</text>
</a>
</g>
</g>
<!-- Node7&#45;&gt;Node16 -->
<g id="edge43" class="edge">
<title>Node7&#45;&gt;Node16</title>
<path fill="none" stroke="midnightblue" d="M881.08,-504.26C905.99,-484.31 965.04,-435.39 975,-412 1015.48,-316.89 978.07,-188.23 961.75,-141.18"/>
<polygon fill="midnightblue" stroke="midnightblue" points="964.95,-139.74 958.28,-131.5 958.36,-142.1 964.95,-139.74"/>
</g>
<!-- Node22 -->
<g id="node22" class="node">
<title>Node22</title>
<g id="a_node22"><a xlink:title=" ">
<polygon fill="white" stroke="#bfbfbf" points="287,-224.5 287,-243.5 343,-243.5 343,-224.5 287,-224.5"/>
<text text-anchor="middle" x="315" y="-231.5" font-family="Helvetica,sans-Serif" font-size="10.00">stddef.h</text>
</a>
</g>
</g>
<!-- Node7&#45;&gt;Node22 -->
<g id="edge44" class="edge">
<title>Node7&#45;&gt;Node22</title>
<path fill="none" stroke="midnightblue" d="M802.26,-513.15C657.9,-511.65 333,-497.75 333,-403 333,-403 333,-403 333,-345 333,-312.54 325.27,-275.38 319.94,-253.63"/>
<polygon fill="midnightblue" stroke="midnightblue" points="323.29,-252.59 317.43,-243.76 316.51,-254.32 323.29,-252.59"/>
</g>
<!-- Node25 -->
<g id="node25" class="node">
<title>Node25</title>
<g id="a_node25"><a xlink:title=" ">
<polygon fill="white" stroke="#bfbfbf" points="957,-448.5 957,-467.5 1047,-467.5 1047,-448.5 957,-448.5"/>
<text text-anchor="middle" x="1002" y="-455.5" font-family="Helvetica,sans-Serif" font-size="10.00">AH/STL/iterator</text>
</a>
</g>
</g>
<!-- Node7&#45;&gt;Node25 -->
<g id="edge42" class="edge">
<title>Node7&#45;&gt;Node25</title>
<path fill="none" stroke="midnightblue" d="M890.92,-504.44C912.74,-495.52 947.15,-481.44 971.89,-471.32"/>
<polygon fill="midnightblue" stroke="midnightblue" points="973.25,-474.54 981.18,-467.52 970.6,-468.06 973.25,-474.54"/>
</g>
<!-- Node8&#45;&gt;Node2 -->
<g id="edge12" class="edge">
<title>Node8&#45;&gt;Node2</title>
<path fill="none" stroke="midnightblue" d="M828.81,-448.36C843.5,-440.52 864.12,-427.78 878,-412 975.19,-301.53 1103.79,-231.54 1018,-112 968.97,-43.69 871.29,-20.99 800.9,-13.75"/>
<polygon fill="midnightblue" stroke="midnightblue" points="801,-10.25 790.72,-12.8 800.34,-17.22 801,-10.25"/>
</g>
<!-- Node9 -->
<g id="node9" class="node">
<title>Node9</title>
<g id="a_node9"><a xlink:href="../../df/dee/Debug_8hpp.html" target="_top" xlink:title=" ">
<polygon fill="white" stroke="black" points="747.5,-392.5 747.5,-411.5 868.5,-411.5 868.5,-392.5 747.5,-392.5"/>
<text text-anchor="middle" x="808" y="-399.5" font-family="Helvetica,sans-Serif" font-size="10.00">AH/Debug/Debug.hpp</text>
</a>
</g>
</g>
<!-- Node8&#45;&gt;Node9 -->
<g id="edge13" class="edge">
<title>Node8&#45;&gt;Node9</title>
<path fill="none" stroke="midnightblue" d="M810.5,-448.08C810.11,-441.01 809.55,-430.86 809.05,-421.99"/>
<polygon fill="midnightblue" stroke="midnightblue" points="812.54,-421.54 808.49,-411.75 805.55,-421.93 812.54,-421.54"/>
</g>
<!-- Node9&#45;&gt;Node2 -->
<g id="edge14" class="edge">
<title>Node9&#45;&gt;Node2</title>
<path fill="none" stroke="midnightblue" d="M815.49,-392.11C841.52,-360.74 925.32,-255.37 904,-224 879.55,-188.03 850.98,-209.2 813,-188 776.67,-167.73 759.48,-167.63 738,-132 718.67,-99.94 716.94,-54.76 717.75,-29.66"/>
<polygon fill="midnightblue" stroke="midnightblue" points="721.24,-29.82 718.24,-19.66 714.25,-29.47 721.24,-29.82"/>
</g>
<!-- Node10 -->
<g id="node10" class="node">
<title>Node10</title>
<g id="a_node10"><a xlink:href="../../dd/d80/PrintStream_8hpp.html" target="_top" xlink:title=" ">
<polygon fill="white" stroke="black" points="721.5,-224.5 721.5,-243.5 894.5,-243.5 894.5,-224.5 721.5,-224.5"/>
<text text-anchor="middle" x="808" y="-231.5" font-family="Helvetica,sans-Serif" font-size="10.00">AH/PrintStream/PrintStream.hpp</text>
</a>
</g>
</g>
<!-- Node9&#45;&gt;Node10 -->
<g id="edge15" class="edge">
<title>Node9&#45;&gt;Node10</title>
<path fill="none" stroke="midnightblue" d="M808,-392.08C808,-365.95 808,-289.21 808,-253.58"/>
<polygon fill="midnightblue" stroke="midnightblue" points="811.5,-253.57 808,-243.57 804.5,-253.57 811.5,-253.57"/>
</g>
<!-- Node17 -->
<g id="node17" class="node">
<title>Node17</title>
<g id="a_node17"><a xlink:href="../../d2/dd5/SettingsWrapper_8hpp.html" target="_top" xlink:title=" ">
<polygon fill="white" stroke="black" points="459,-336.5 459,-355.5 637,-355.5 637,-336.5 459,-336.5"/>
<text text-anchor="middle" x="548" y="-343.5" font-family="Helvetica,sans-Serif" font-size="10.00">AH/Settings/SettingsWrapper.hpp</text>
</a>
</g>
</g>
<!-- Node9&#45;&gt;Node17 -->
<g id="edge27" class="edge">
<title>Node9&#45;&gt;Node17</title>
<path fill="none" stroke="midnightblue" d="M761.71,-392.44C714.29,-383.02 641.17,-367.87 593.89,-357.68"/>
<polygon fill="midnightblue" stroke="midnightblue" points="594.44,-354.21 583.93,-355.52 592.96,-361.05 594.44,-354.21"/>
</g>
<!-- Node10&#45;&gt;Node2 -->
<g id="edge17" class="edge">
<title>Node10&#45;&gt;Node2</title>
<path fill="none" stroke="midnightblue" d="M793.22,-224.48C768.96,-209.48 721.69,-175.76 705,-132 691.8,-97.39 703.22,-53.49 711.75,-29.22"/>
<polygon fill="midnightblue" stroke="midnightblue" points="715.14,-30.15 715.36,-19.55 708.58,-27.69 715.14,-30.15"/>
</g>
<!-- Node10&#45;&gt;Node11 -->
<g id="edge16" class="edge">
<title>Node10&#45;&gt;Node11</title>
<path fill="none" stroke="midnightblue" d="M766.37,-224.46C737.29,-217.39 698.22,-205.61 667,-188 622.28,-162.78 624.15,-138.21 580,-112 555.17,-97.26 524.71,-86.02 500.43,-78.46"/>
<polygon fill="midnightblue" stroke="midnightblue" points="501.37,-75.08 490.78,-75.54 499.34,-81.79 501.37,-75.08"/>
</g>
<!-- Node10&#45;&gt;Node12 -->
<g id="edge18" class="edge">
<title>Node10&#45;&gt;Node12</title>
<path fill="none" stroke="midnightblue" d="M820.21,-224.32C831.78,-216.11 849.38,-203.6 863.16,-193.81"/>
<polygon fill="midnightblue" stroke="midnightblue" points="865.44,-196.48 871.57,-187.83 861.39,-190.77 865.44,-196.48"/>
</g>
<!-- Node13 -->
<g id="node13" class="node">
<title>Node13</title>
<g id="a_node13"><a xlink:href="../../d7/d79/MinMaxFix_8hpp.html" target="_top" xlink:title=" ">
<polygon fill="white" stroke="black" points="747,-112.5 747,-131.5 883,-131.5 883,-112.5 747,-112.5"/>
<text text-anchor="middle" x="815" y="-119.5" font-family="Helvetica,sans-Serif" font-size="10.00">AH/Math/MinMaxFix.hpp</text>
</a>
</g>
</g>
<!-- Node12&#45;&gt;Node13 -->
<g id="edge19" class="edge">
<title>Node12&#45;&gt;Node13</title>
<path fill="none" stroke="midnightblue" d="M872.91,-168.32C862.51,-160.18 846.74,-147.84 834.28,-138.09"/>
<polygon fill="midnightblue" stroke="midnightblue" points="836.32,-135.24 826.29,-131.83 832.01,-140.75 836.32,-135.24"/>
</g>
<!-- Node15 -->
<g id="node15" class="node">
<title>Node15</title>
<g id="a_node15"><a xlink:title=" ">
<polygon fill="white" stroke="#bfbfbf" points="1250.5,-0.5 1250.5,-19.5 1313.5,-19.5 1313.5,-0.5 1250.5,-0.5"/>
<text text-anchor="middle" x="1282" y="-7.5" font-family="Helvetica,sans-Serif" font-size="10.00">Arduino.h</text>
</a>
</g>
</g>
<!-- Node12&#45;&gt;Node15 -->
<g id="edge26" class="edge">
<title>Node12&#45;&gt;Node15</title>
<path fill="none" stroke="midnightblue" d="M946.41,-171.89C1055.58,-161.5 1274.01,-133.86 1320,-76 1332.42,-60.37 1316.5,-40.26 1301.63,-26.57"/>
<polygon fill="midnightblue" stroke="midnightblue" points="1303.52,-23.58 1293.66,-19.7 1298.95,-28.88 1303.52,-23.58"/>
</g>
<!-- Node12&#45;&gt;Node16 -->
<g id="edge25" class="edge">
<title>Node12&#45;&gt;Node16</title>
<path fill="none" stroke="midnightblue" d="M895.41,-168.32C906.11,-160.18 922.34,-147.84 935.16,-138.09"/>
<polygon fill="midnightblue" stroke="midnightblue" points="937.54,-140.67 943.39,-131.83 933.31,-135.1 937.54,-140.67"/>
</g>
<!-- Node13&#45;&gt;Node2 -->
<g id="edge20" class="edge">
<title>Node13&#45;&gt;Node2</title>
<path fill="none" stroke="midnightblue" d="M807.47,-112.37C791.48,-94.05 753.95,-51.05 733.28,-27.36"/>
<polygon fill="midnightblue" stroke="midnightblue" points="735.71,-24.82 726.5,-19.59 730.44,-29.43 735.71,-24.82"/>
</g>
<!-- Node13&#45;&gt;Node11 -->
<g id="edge24" class="edge">
<title>Node13&#45;&gt;Node11</title>
<path fill="none" stroke="midnightblue" d="M758.43,-112.44C694.85,-102.83 591.73,-87.23 524.38,-77.04"/>
<polygon fill="midnightblue" stroke="midnightblue" points="524.71,-73.55 514.3,-75.52 523.67,-80.47 524.71,-73.55"/>
</g>
<!-- Node14 -->
<g id="node14" class="node">
<title>Node14</title>
<g id="a_node14"><a xlink:href="../../d6/d3b/FixArduinoMacros_8hpp.html" target="_top" xlink:title=" ">
<polygon fill="white" stroke="black" points="1141,-56.5 1141,-75.5 1311,-75.5 1311,-56.5 1141,-56.5"/>
<text text-anchor="middle" x="1226" y="-63.5" font-family="Helvetica,sans-Serif" font-size="10.00">AH/Math/FixArduinoMacros.hpp</text>
</a>
</g>
</g>
<!-- Node13&#45;&gt;Node14 -->
<g id="edge21" class="edge">
<title>Node13&#45;&gt;Node14</title>
<path fill="none" stroke="midnightblue" d="M880.12,-112.44C953.78,-102.77 1073.51,-87.04 1151.01,-76.85"/>
<polygon fill="midnightblue" stroke="midnightblue" points="1151.72,-80.29 1161.18,-75.52 1150.81,-73.35 1151.72,-80.29"/>
</g>
<!-- Node14&#45;&gt;Node2 -->
<g id="edge22" class="edge">
<title>Node14&#45;&gt;Node2</title>
<path fill="none" stroke="midnightblue" d="M1145.94,-56.47C1051.71,-46.44 896.05,-29.86 800.99,-19.73"/>
<polygon fill="midnightblue" stroke="midnightblue" points="801.16,-16.23 790.85,-18.65 800.42,-23.19 801.16,-16.23"/>
</g>
<!-- Node14&#45;&gt;Node15 -->
<g id="edge23" class="edge">
<title>Node14&#45;&gt;Node15</title>
<path fill="none" stroke="midnightblue" d="M1235,-56.32C1243.19,-48.42 1255.51,-36.55 1265.47,-26.94"/>
<polygon fill="midnightblue" stroke="midnightblue" points="1268.07,-29.29 1272.84,-19.83 1263.21,-24.26 1268.07,-29.29"/>
</g>
<!-- Node17&#45;&gt;Node2 -->
<g id="edge28" class="edge">
<title>Node17&#45;&gt;Node2</title>
<path fill="none" stroke="midnightblue" d="M478.81,-336.44C454.09,-330.1 427.95,-319.1 410,-300 371.83,-259.39 315.07,-97.74 352,-56 370.6,-34.98 535.14,-21.67 637.48,-15.36"/>
<polygon fill="midnightblue" stroke="midnightblue" points="637.72,-18.85 647.49,-14.75 637.3,-11.86 637.72,-18.85"/>
</g>
<!-- Node17&#45;&gt;Node9 -->
<g id="edge41" class="edge">
<title>Node17&#45;&gt;Node9</title>
<path fill="none" stroke="midnightblue" d="M594.08,-355.52C641.43,-364.92 714.56,-380.08 761.9,-390.28"/>
<polygon fill="midnightblue" stroke="midnightblue" points="761.38,-393.75 771.89,-392.44 762.86,-386.91 761.38,-393.75"/>
</g>
<!-- Node17&#45;&gt;Node11 -->
<g id="edge29" class="edge">
<title>Node17&#45;&gt;Node11</title>
<path fill="none" stroke="midnightblue" d="M497.09,-336.43C473.52,-330.05 446.84,-319 429,-300 408.31,-277.96 409,-265.23 409,-235 409,-235 409,-235 409,-177 409,-141.47 430.6,-104.63 445.12,-83.88"/>
<polygon fill="midnightblue" stroke="midnightblue" points="448.13,-85.69 451.19,-75.54 442.47,-81.57 448.13,-85.69"/>
</g>
<!-- Node18 -->
<g id="node18" class="node">
<title>Node18</title>
<g id="a_node18"><a xlink:href="../../db/d02/Settings_8hpp.html" target="_top" xlink:title="All user settings and debugging options can be changed here.">
<polygon fill="white" stroke="black" points="437.5,-280.5 437.5,-299.5 514.5,-299.5 514.5,-280.5 437.5,-280.5"/>
<text text-anchor="middle" x="476" y="-287.5" font-family="Helvetica,sans-Serif" font-size="10.00">Settings.hpp</text>
</a>
</g>
</g>
<!-- Node17&#45;&gt;Node18 -->
<g id="edge30" class="edge">
<title>Node17&#45;&gt;Node18</title>
<path fill="none" stroke="midnightblue" d="M536.43,-336.32C525.58,-328.18 509.12,-315.84 496.12,-306.09"/>
<polygon fill="midnightblue" stroke="midnightblue" points="497.88,-303.03 487.78,-299.83 493.68,-308.63 497.88,-303.03"/>
</g>
<!-- Node24 -->
<g id="node24" class="node">
<title>Node24</title>
<g id="a_node24"><a xlink:href="../../d9/d98/TeensyUSBTypes_8hpp.html" target="_top" xlink:title=" ">
<polygon fill="white" stroke="black" points="532.5,-280.5 532.5,-299.5 705.5,-299.5 705.5,-280.5 532.5,-280.5"/>
<text text-anchor="middle" x="619" y="-287.5" font-family="Helvetica,sans-Serif" font-size="10.00">AH/Teensy/TeensyUSBTypes.hpp</text>
</a>
</g>
</g>
<!-- Node17&#45;&gt;Node24 -->
<g id="edge40" class="edge">
<title>Node17&#45;&gt;Node24</title>
<path fill="none" stroke="midnightblue" d="M559.41,-336.32C570.11,-328.18 586.34,-315.84 599.16,-306.09"/>
<polygon fill="midnightblue" stroke="midnightblue" points="601.54,-308.67 607.39,-299.83 597.31,-303.1 601.54,-308.67"/>
</g>
<!-- Node19 -->
<g id="node19" class="node">
<title>Node19</title>
<g id="a_node19"><a xlink:href="../../dc/d50/Frequency_8hpp.html" target="_top" xlink:title=" ">
<polygon fill="white" stroke="black" points="437,-112.5 437,-131.5 571,-131.5 571,-112.5 437,-112.5"/>
<text text-anchor="middle" x="504" y="-119.5" font-family="Helvetica,sans-Serif" font-size="10.00">AH/Types/Frequency.hpp</text>
</a>
</g>
</g>
<!-- Node18&#45;&gt;Node19 -->
<g id="edge31" class="edge">
<title>Node18&#45;&gt;Node19</title>
<path fill="none" stroke="midnightblue" d="M473.77,-280.45C471.54,-271.45 468.27,-256.84 467,-244 463.23,-205.92 481.73,-163.63 493.93,-140.5"/>
<polygon fill="midnightblue" stroke="midnightblue" points="497.09,-142.01 498.84,-131.56 490.96,-138.64 497.09,-142.01"/>
</g>
<!-- Node20 -->
<g id="node20" class="node">
<title>Node20</title>
<g id="a_node20"><a xlink:href="../../d7/d7c/ADCConfig_8hpp.html" target="_top" xlink:title="This file contains the platform&#45;specific ADC resolutions.">
<polygon fill="white" stroke="black" points="546.5,-224.5 546.5,-243.5 703.5,-243.5 703.5,-224.5 546.5,-224.5"/>
<text text-anchor="middle" x="625" y="-231.5" font-family="Helvetica,sans-Serif" font-size="10.00">AH/Hardware/ADCConfig.hpp</text>
</a>
</g>
</g>
<!-- Node18&#45;&gt;Node20 -->
<g id="edge34" class="edge">
<title>Node18&#45;&gt;Node20</title>
<path fill="none" stroke="midnightblue" d="M499.61,-280.44C524.46,-271.44 563.77,-257.19 591.75,-247.05"/>
<polygon fill="midnightblue" stroke="midnightblue" points="593.29,-250.21 601.5,-243.52 590.91,-243.63 593.29,-250.21"/>
</g>
<!-- Node21 -->
<g id="node21" class="node">
<title>Node21</title>
<g id="a_node21"><a xlink:title=" ">
<polygon fill="white" stroke="#bfbfbf" points="475.5,-224.5 475.5,-243.5 528.5,-243.5 528.5,-224.5 475.5,-224.5"/>
<text text-anchor="middle" x="502" y="-231.5" font-family="Helvetica,sans-Serif" font-size="10.00">limits.h</text>
</a>
</g>
</g>
<!-- Node18&#45;&gt;Node21 -->
<g id="edge37" class="edge">
<title>Node18&#45;&gt;Node21</title>
<path fill="none" stroke="midnightblue" d="M480.29,-280.08C483.85,-272.69 489.02,-261.95 493.42,-252.81"/>
<polygon fill="midnightblue" stroke="midnightblue" points="496.6,-254.28 497.79,-243.75 490.29,-251.24 496.6,-254.28"/>
</g>
<!-- Node18&#45;&gt;Node22 -->
<g id="edge38" class="edge">
<title>Node18&#45;&gt;Node22</title>
<path fill="none" stroke="midnightblue" d="M450.49,-280.44C423.4,-271.36 380.41,-256.94 350.13,-246.78"/>
<polygon fill="midnightblue" stroke="midnightblue" points="350.99,-243.38 340.39,-243.52 348.76,-250.01 350.99,-243.38"/>
</g>
<!-- Node18&#45;&gt;Node23 -->
<g id="edge39" class="edge">
<title>Node18&#45;&gt;Node23</title>
<path fill="none" stroke="midnightblue" d="M437.24,-280.45C399.32,-272.03 339.65,-258.62 278.54,-244.09"/>
<polygon fill="midnightblue" stroke="midnightblue" points="279.26,-240.66 268.72,-241.75 277.64,-247.47 279.26,-240.66"/>
</g>
<!-- Node19&#45;&gt;Node2 -->
<g id="edge32" class="edge">
<title>Node19&#45;&gt;Node2</title>
<path fill="none" stroke="midnightblue" d="M519.69,-112.39C542.82,-99.75 587.49,-75.57 626,-56 647.92,-44.86 673.04,-32.75 691.64,-23.9"/>
<polygon fill="midnightblue" stroke="midnightblue" points="693.19,-27.04 700.72,-19.59 690.19,-20.71 693.19,-27.04"/>
</g>
<!-- Node19&#45;&gt;Node11 -->
<g id="edge33" class="edge">
<title>Node19&#45;&gt;Node11</title>
<path fill="none" stroke="midnightblue" d="M496.4,-112.08C489.77,-104.3 479.98,-92.8 471.94,-83.37"/>
<polygon fill="midnightblue" stroke="midnightblue" points="474.6,-81.09 465.45,-75.75 469.27,-85.63 474.6,-81.09"/>
</g>
<!-- Node20&#45;&gt;Node2 -->
<g id="edge35" class="edge">
<title>Node20&#45;&gt;Node2</title>
<path fill="none" stroke="midnightblue" d="M628.13,-224.41C637.6,-198.6 667.07,-119.59 696,-56 700.18,-46.8 705.26,-36.77 709.58,-28.52"/>
<polygon fill="midnightblue" stroke="midnightblue" points="712.76,-29.99 714.36,-19.51 706.58,-26.71 712.76,-29.99"/>
</g>
<!-- Node20&#45;&gt;Node12 -->
<g id="edge36" class="edge">
<title>Node20&#45;&gt;Node12</title>
<path fill="none" stroke="midnightblue" d="M666.04,-224.44C711.32,-215 784.23,-199.8 833.11,-189.61"/>
<polygon fill="midnightblue" stroke="midnightblue" points="834.08,-192.98 843.15,-187.52 832.65,-186.13 834.08,-192.98"/>
</g>
<!-- Node26&#45;&gt;Node2 -->
<g id="edge50" class="edge">
<title>Node26&#45;&gt;Node2</title>
<path fill="none" stroke="midnightblue" d="M180.58,-112.41C204.99,-103.73 243.37,-89.68 276,-76 295.44,-67.85 298.71,-61.7 319,-56 426.38,-25.86 555.33,-15.81 637.23,-12.51"/>
<polygon fill="midnightblue" stroke="midnightblue" points="637.36,-16.01 647.22,-12.14 637.1,-9.02 637.36,-16.01"/>
</g>
<!-- Node26&#45;&gt;Node11 -->
<g id="edge51" class="edge">
<title>Node26&#45;&gt;Node11</title>
<path fill="none" stroke="midnightblue" d="M203.85,-112.44C257.2,-102.9 343.44,-87.48 400.44,-77.29"/>
<polygon fill="midnightblue" stroke="midnightblue" points="401.14,-80.72 410.37,-75.52 399.91,-73.83 401.14,-80.72"/>
</g>
<!-- Node27 -->
<g id="node27" class="node">
<title>Node27</title>
<g id="a_node27"><a xlink:title=" ">
<polygon fill="white" stroke="#bfbfbf" points="79,-56.5 79,-75.5 169,-75.5 169,-56.5 79,-56.5"/>
<text text-anchor="middle" x="124" y="-63.5" font-family="Helvetica,sans-Serif" font-size="10.00">AH/STL/cstddef</text>
</a>
</g>
</g>
<!-- Node26&#45;&gt;Node27 -->
<g id="edge48" class="edge">
<title>Node26&#45;&gt;Node27</title>
<path fill="none" stroke="midnightblue" d="M150.72,-112.08C146.29,-104.61 139.84,-93.72 134.38,-84.52"/>
<polygon fill="midnightblue" stroke="midnightblue" points="137.29,-82.57 129.19,-75.75 131.27,-86.14 137.29,-82.57"/>
</g>
<!-- Node28 -->
<g id="node28" class="node">
<title>Node28</title>
<g id="a_node28"><a xlink:title=" ">
<polygon fill="white" stroke="#bfbfbf" points="187.5,-56.5 187.5,-75.5 266.5,-75.5 266.5,-56.5 187.5,-56.5"/>
<text text-anchor="middle" x="227" y="-63.5" font-family="Helvetica,sans-Serif" font-size="10.00">AH/STL/tuple</text>
</a>
</g>
</g>
<!-- Node26&#45;&gt;Node28 -->
<g id="edge49" class="edge">
<title>Node26&#45;&gt;Node28</title>
<path fill="none" stroke="midnightblue" d="M167.41,-112.32C178.11,-104.18 194.34,-91.84 207.16,-82.09"/>
<polygon fill="midnightblue" stroke="midnightblue" points="209.54,-84.67 215.39,-75.83 205.31,-79.1 209.54,-84.67"/>
</g>
</g>
</svg>
