<?xml version="1.0" encoding="UTF-8" standalone="no"?>
<!DOCTYPE svg PUBLIC "-//W3C//DTD SVG 1.1//EN"
 "http://www.w3.org/Graphics/SVG/1.1/DTD/svg11.dtd">
<!-- Generated by graphviz version 2.43.0 (0)
 -->
<!-- Title: BiQuad.hpp Pages: 1 -->
<svg width="970pt" height="644pt"
 viewBox="0.00 0.00 970.00 644.00" xmlns="http://www.w3.org/2000/svg" xmlns:xlink="http://www.w3.org/1999/xlink">
<g id="graph0" class="graph" transform="scale(1 1) rotate(0) translate(4 640)">
<title>BiQuad.hpp</title>
<polygon fill="white" stroke="transparent" points="-4,4 -4,-640 966,-640 966,4 -4,4"/>
<!-- Node1 -->
<g id="node1" class="node">
<title>Node1</title>
<g id="a_node1"><a xlink:title=" ">
<polygon fill="#bfbfbf" stroke="black" points="754.5,-616.5 754.5,-635.5 827.5,-635.5 827.5,-616.5 754.5,-616.5"/>
<text text-anchor="middle" x="791" y="-623.5" font-family="Helvetica,sans-Serif" font-size="10.00">BiQuad.hpp</text>
</a>
</g>
</g>
<!-- Node2 -->
<g id="node2" class="node">
<title>Node2</title>
<g id="a_node2"><a xlink:href="../../de/d76/Array_8hpp.html" target="_top" xlink:title=" ">
<polygon fill="white" stroke="black" points="671.5,-504.5 671.5,-523.5 806.5,-523.5 806.5,-504.5 671.5,-504.5"/>
<text text-anchor="middle" x="739" y="-511.5" font-family="Helvetica,sans-Serif" font-size="10.00">AH/Containers/Array.hpp</text>
</a>
</g>
</g>
<!-- Node1&#45;&gt;Node2 -->
<g id="edge1" class="edge">
<title>Node1&#45;&gt;Node2</title>
<path fill="none" stroke="midnightblue" d="M789.24,-616.25C786.47,-603.45 780.4,-579.06 771,-560 766.08,-550.02 759.04,-539.85 752.82,-531.7"/>
<polygon fill="midnightblue" stroke="midnightblue" points="755.49,-529.43 746.53,-523.76 750,-533.77 755.49,-529.43"/>
</g>
<!-- Node23 -->
<g id="node23" class="node">
<title>Node23</title>
<g id="a_node23"><a xlink:title=" ">
<polygon fill="white" stroke="#bfbfbf" points="819.5,-560.5 819.5,-579.5 904.5,-579.5 904.5,-560.5 819.5,-560.5"/>
<text text-anchor="middle" x="862" y="-567.5" font-family="Helvetica,sans-Serif" font-size="10.00">AH/STL/cmath</text>
</a>
</g>
</g>
<!-- Node1&#45;&gt;Node23 -->
<g id="edge38" class="edge">
<title>Node1&#45;&gt;Node23</title>
<path fill="none" stroke="midnightblue" d="M802.41,-616.32C813.11,-608.18 829.34,-595.84 842.16,-586.09"/>
<polygon fill="midnightblue" stroke="midnightblue" points="844.54,-588.67 850.39,-579.83 840.31,-583.1 844.54,-588.67"/>
</g>
<!-- Node24 -->
<g id="node24" class="node">
<title>Node24</title>
<g id="a_node24"><a xlink:href="../../d2/d03/TransferFunction_8hpp.html" target="_top" xlink:title=" ">
<polygon fill="white" stroke="black" points="611.5,-560.5 611.5,-579.5 762.5,-579.5 762.5,-560.5 611.5,-560.5"/>
<text text-anchor="middle" x="687" y="-567.5" font-family="Helvetica,sans-Serif" font-size="10.00">Filters/TransferFunction.hpp</text>
</a>
</g>
</g>
<!-- Node1&#45;&gt;Node24 -->
<g id="edge39" class="edge">
<title>Node1&#45;&gt;Node24</title>
<path fill="none" stroke="midnightblue" d="M774.29,-616.32C757.69,-607.7 732,-594.36 712.78,-584.39"/>
<polygon fill="midnightblue" stroke="midnightblue" points="714.16,-581.16 703.67,-579.65 710.93,-587.37 714.16,-581.16"/>
</g>
<!-- Node3 -->
<g id="node3" class="node">
<title>Node3</title>
<g id="a_node3"><a xlink:href="../../d1/d65/Warnings_8hpp.html" target="_top" xlink:title=" ">
<polygon fill="white" stroke="black" points="245.5,-0.5 245.5,-19.5 388.5,-19.5 388.5,-0.5 245.5,-0.5"/>
<text text-anchor="middle" x="317" y="-7.5" font-family="Helvetica,sans-Serif" font-size="10.00">AH/Settings/Warnings.hpp</text>
</a>
</g>
</g>
<!-- Node2&#45;&gt;Node3 -->
<g id="edge2" class="edge">
<title>Node2&#45;&gt;Node3</title>
<path fill="none" stroke="midnightblue" d="M671.46,-510C489.03,-500.98 0,-470.53 0,-403 0,-403 0,-403 0,-121 0,-69.36 152.04,-36.49 245.53,-21.16"/>
<polygon fill="midnightblue" stroke="midnightblue" points="246.19,-24.6 255.5,-19.55 245.07,-17.68 246.19,-24.6"/>
</g>
<!-- Node4 -->
<g id="node4" class="node">
<title>Node4</title>
<g id="a_node4"><a xlink:href="../../d1/d93/Error_8hpp.html" target="_top" xlink:title=" ">
<polygon fill="white" stroke="black" points="607,-448.5 607,-467.5 711,-467.5 711,-448.5 607,-448.5"/>
<text text-anchor="middle" x="659" y="-455.5" font-family="Helvetica,sans-Serif" font-size="10.00">AH/Error/Error.hpp</text>
</a>
</g>
</g>
<!-- Node2&#45;&gt;Node4 -->
<g id="edge3" class="edge">
<title>Node2&#45;&gt;Node4</title>
<path fill="none" stroke="midnightblue" d="M726.15,-504.32C713.78,-495.98 694.87,-483.21 680.26,-473.35"/>
<polygon fill="midnightblue" stroke="midnightblue" points="682.07,-470.35 671.82,-467.65 678.15,-476.15 682.07,-470.35"/>
</g>
<!-- Node12 -->
<g id="node12" class="node">
<title>Node12</title>
<g id="a_node12"><a xlink:title=" ">
<polygon fill="white" stroke="#bfbfbf" points="787.5,-112.5 787.5,-131.5 894.5,-131.5 894.5,-112.5 787.5,-112.5"/>
<text text-anchor="middle" x="841" y="-119.5" font-family="Helvetica,sans-Serif" font-size="10.00">AH/STL/type_traits</text>
</a>
</g>
</g>
<!-- Node2&#45;&gt;Node12 -->
<g id="edge36" class="edge">
<title>Node2&#45;&gt;Node12</title>
<path fill="none" stroke="midnightblue" d="M757.29,-504.35C787.37,-488.69 844,-452.63 844,-403 844,-403 844,-403 844,-233 844,-200.94 842.71,-163.63 841.82,-141.74"/>
<polygon fill="midnightblue" stroke="midnightblue" points="845.31,-141.4 841.39,-131.56 838.32,-141.69 845.31,-141.4"/>
</g>
<!-- Node18 -->
<g id="node18" class="node">
<title>Node18</title>
<g id="a_node18"><a xlink:title=" ">
<polygon fill="white" stroke="#bfbfbf" points="549,-224.5 549,-243.5 605,-243.5 605,-224.5 549,-224.5"/>
<text text-anchor="middle" x="577" y="-231.5" font-family="Helvetica,sans-Serif" font-size="10.00">stddef.h</text>
</a>
</g>
</g>
<!-- Node2&#45;&gt;Node18 -->
<g id="edge37" class="edge">
<title>Node2&#45;&gt;Node18</title>
<path fill="none" stroke="midnightblue" d="M739.93,-504.14C742.95,-470.53 749.2,-349.24 691,-280 680.83,-267.91 644.11,-254.7 615.05,-245.74"/>
<polygon fill="midnightblue" stroke="midnightblue" points="615.73,-242.3 605.15,-242.76 613.71,-249 615.73,-242.3"/>
</g>
<!-- Node22 -->
<g id="node22" class="node">
<title>Node22</title>
<g id="a_node22"><a xlink:title=" ">
<polygon fill="white" stroke="#bfbfbf" points="872,-448.5 872,-467.5 962,-467.5 962,-448.5 872,-448.5"/>
<text text-anchor="middle" x="917" y="-455.5" font-family="Helvetica,sans-Serif" font-size="10.00">AH/STL/iterator</text>
</a>
</g>
</g>
<!-- Node2&#45;&gt;Node22 -->
<g id="edge35" class="edge">
<title>Node2&#45;&gt;Node22</title>
<path fill="none" stroke="midnightblue" d="M767.2,-504.44C797.41,-495.28 845.51,-480.69 879.03,-470.52"/>
<polygon fill="midnightblue" stroke="midnightblue" points="880.37,-473.77 888.93,-467.52 878.34,-467.07 880.37,-473.77"/>
</g>
<!-- Node4&#45;&gt;Node3 -->
<g id="edge4" class="edge">
<title>Node4&#45;&gt;Node3</title>
<path fill="none" stroke="midnightblue" d="M674.1,-448.4C738.43,-410.61 982.8,-254.81 903,-112 854.57,-25.34 548.15,-11.88 398.73,-10.55"/>
<polygon fill="midnightblue" stroke="midnightblue" points="398.7,-7.05 388.68,-10.48 398.65,-14.05 398.7,-7.05"/>
</g>
<!-- Node5 -->
<g id="node5" class="node">
<title>Node5</title>
<g id="a_node5"><a xlink:href="../../df/dee/Debug_8hpp.html" target="_top" xlink:title=" ">
<polygon fill="white" stroke="black" points="356.5,-392.5 356.5,-411.5 477.5,-411.5 477.5,-392.5 356.5,-392.5"/>
<text text-anchor="middle" x="417" y="-399.5" font-family="Helvetica,sans-Serif" font-size="10.00">AH/Debug/Debug.hpp</text>
</a>
</g>
</g>
<!-- Node4&#45;&gt;Node5 -->
<g id="edge5" class="edge">
<title>Node4&#45;&gt;Node5</title>
<path fill="none" stroke="midnightblue" d="M620.65,-448.44C578.53,-439.04 510.79,-423.93 465.13,-413.74"/>
<polygon fill="midnightblue" stroke="midnightblue" points="465.69,-410.28 455.17,-411.52 464.16,-417.11 465.69,-410.28"/>
</g>
<!-- Node5&#45;&gt;Node3 -->
<g id="edge6" class="edge">
<title>Node5&#45;&gt;Node3</title>
<path fill="none" stroke="midnightblue" d="M356.46,-397.14C261.68,-387.46 89,-353.55 89,-235 89,-235 89,-235 89,-121 89,-53.91 170.08,-27.71 235.54,-17.5"/>
<polygon fill="midnightblue" stroke="midnightblue" points="236.09,-20.96 245.48,-16.05 235.08,-14.03 236.09,-20.96"/>
</g>
<!-- Node6 -->
<g id="node6" class="node">
<title>Node6</title>
<g id="a_node6"><a xlink:href="../../dd/d80/PrintStream_8hpp.html" target="_top" xlink:title=" ">
<polygon fill="white" stroke="black" points="623.5,-224.5 623.5,-243.5 796.5,-243.5 796.5,-224.5 623.5,-224.5"/>
<text text-anchor="middle" x="710" y="-231.5" font-family="Helvetica,sans-Serif" font-size="10.00">AH/PrintStream/PrintStream.hpp</text>
</a>
</g>
</g>
<!-- Node5&#45;&gt;Node6 -->
<g id="edge7" class="edge">
<title>Node5&#45;&gt;Node6</title>
<path fill="none" stroke="midnightblue" d="M477.74,-394.48C539.83,-384.61 634.87,-360.13 691,-300 702.65,-287.52 707.2,-268.29 708.95,-253.98"/>
<polygon fill="midnightblue" stroke="midnightblue" points="712.46,-254.05 709.84,-243.78 705.48,-253.44 712.46,-254.05"/>
</g>
<!-- Node13 -->
<g id="node13" class="node">
<title>Node13</title>
<g id="a_node13"><a xlink:href="../../d2/dd5/SettingsWrapper_8hpp.html" target="_top" xlink:title=" ">
<polygon fill="white" stroke="black" points="328,-336.5 328,-355.5 506,-355.5 506,-336.5 328,-336.5"/>
<text text-anchor="middle" x="417" y="-343.5" font-family="Helvetica,sans-Serif" font-size="10.00">AH/Settings/SettingsWrapper.hpp</text>
</a>
</g>
</g>
<!-- Node5&#45;&gt;Node13 -->
<g id="edge19" class="edge">
<title>Node5&#45;&gt;Node13</title>
<path fill="none" stroke="midnightblue" d="M411.83,-392.08C410.32,-384.93 409.89,-374.64 410.54,-365.69"/>
<polygon fill="midnightblue" stroke="midnightblue" points="414.02,-366.13 411.87,-355.75 407.08,-365.2 414.02,-366.13"/>
</g>
<!-- Node21 -->
<g id="node21" class="node">
<title>Node21</title>
<g id="a_node21"><a xlink:href="../../d7/d52/DebugVal_8hpp.html" target="_top" xlink:title=" ">
<polygon fill="white" stroke="black" points="28,-336.5 28,-355.5 112,-355.5 112,-336.5 28,-336.5"/>
<text text-anchor="middle" x="70" y="-343.5" font-family="Helvetica,sans-Serif" font-size="10.00">DebugVal.hpp</text>
</a>
</g>
</g>
<!-- Node5&#45;&gt;Node21 -->
<g id="edge34" class="edge">
<title>Node5&#45;&gt;Node21</title>
<path fill="none" stroke="midnightblue" d="M361.2,-392.47C302.61,-383.49 207.81,-368.9 126,-356 124.74,-355.8 123.47,-355.6 122.18,-355.4"/>
<polygon fill="midnightblue" stroke="midnightblue" points="122.62,-351.92 112.19,-353.81 121.52,-358.84 122.62,-351.92"/>
</g>
<!-- Node6&#45;&gt;Node3 -->
<g id="edge9" class="edge">
<title>Node6&#45;&gt;Node3</title>
<path fill="none" stroke="midnightblue" d="M694.01,-224.39C679.09,-216.02 656.57,-202.47 639,-188 612.55,-166.22 605.65,-160.07 586,-132 564.34,-101.06 578.07,-78.85 548,-56 524.75,-38.34 455.47,-26.37 398.79,-19.24"/>
<polygon fill="midnightblue" stroke="midnightblue" points="399.08,-15.75 388.73,-18.01 398.23,-22.7 399.08,-15.75"/>
</g>
<!-- Node7 -->
<g id="node7" class="node">
<title>Node7</title>
<g id="a_node7"><a xlink:href="../../dc/dc7/NamespaceSettings_8hpp.html" target="_top" xlink:title=" ">
<polygon fill="white" stroke="black" points="344.5,-56.5 344.5,-75.5 539.5,-75.5 539.5,-56.5 344.5,-56.5"/>
<text text-anchor="middle" x="442" y="-63.5" font-family="Helvetica,sans-Serif" font-size="10.00">AH/Settings/NamespaceSettings.hpp</text>
</a>
</g>
</g>
<!-- Node6&#45;&gt;Node7 -->
<g id="edge8" class="edge">
<title>Node6&#45;&gt;Node7</title>
<path fill="none" stroke="midnightblue" d="M641.37,-224.47C611.93,-218.14 578.52,-207.13 553,-188 521.03,-164.04 532.43,-141.04 505,-112 493.56,-99.89 478.44,-88.96 465.87,-80.91"/>
<polygon fill="midnightblue" stroke="midnightblue" points="467.61,-77.86 457.26,-75.57 463.92,-83.82 467.61,-77.86"/>
</g>
<!-- Node8 -->
<g id="node8" class="node">
<title>Node8</title>
<g id="a_node8"><a xlink:href="../../d6/ddf/Arduino-Wrapper_8h.html" target="_top" xlink:title=" ">
<polygon fill="white" stroke="black" points="648,-168.5 648,-187.5 772,-187.5 772,-168.5 648,-168.5"/>
<text text-anchor="middle" x="710" y="-175.5" font-family="Helvetica,sans-Serif" font-size="10.00">AH/Arduino&#45;Wrapper.h</text>
</a>
</g>
</g>
<!-- Node6&#45;&gt;Node8 -->
<g id="edge10" class="edge">
<title>Node6&#45;&gt;Node8</title>
<path fill="none" stroke="midnightblue" d="M710,-224.08C710,-217.01 710,-206.86 710,-197.99"/>
<polygon fill="midnightblue" stroke="midnightblue" points="713.5,-197.75 710,-187.75 706.5,-197.75 713.5,-197.75"/>
</g>
<!-- Node9 -->
<g id="node9" class="node">
<title>Node9</title>
<g id="a_node9"><a xlink:href="../../d7/d79/MinMaxFix_8hpp.html" target="_top" xlink:title=" ">
<polygon fill="white" stroke="black" points="595,-112.5 595,-131.5 731,-131.5 731,-112.5 595,-112.5"/>
<text text-anchor="middle" x="663" y="-119.5" font-family="Helvetica,sans-Serif" font-size="10.00">AH/Math/MinMaxFix.hpp</text>
</a>
</g>
</g>
<!-- Node8&#45;&gt;Node9 -->
<g id="edge11" class="edge">
<title>Node8&#45;&gt;Node9</title>
<path fill="none" stroke="midnightblue" d="M702.24,-168.08C695.46,-160.3 685.46,-148.8 677.24,-139.37"/>
<polygon fill="midnightblue" stroke="midnightblue" points="679.82,-137 670.62,-131.75 674.54,-141.59 679.82,-137"/>
</g>
<!-- Node11 -->
<g id="node11" class="node">
<title>Node11</title>
<g id="a_node11"><a xlink:title=" ">
<polygon fill="white" stroke="#bfbfbf" points="742.5,-0.5 742.5,-19.5 805.5,-19.5 805.5,-0.5 742.5,-0.5"/>
<text text-anchor="middle" x="774" y="-7.5" font-family="Helvetica,sans-Serif" font-size="10.00">Arduino.h</text>
</a>
</g>
</g>
<!-- Node8&#45;&gt;Node11 -->
<g id="edge18" class="edge">
<title>Node8&#45;&gt;Node11</title>
<path fill="none" stroke="midnightblue" d="M719.15,-168.31C743.73,-144.92 809.51,-81.98 812,-76 819.4,-58.25 805.75,-39.43 792.79,-26.64"/>
<polygon fill="midnightblue" stroke="midnightblue" points="795.14,-24.04 785.41,-19.86 790.4,-29.2 795.14,-24.04"/>
</g>
<!-- Node8&#45;&gt;Node12 -->
<g id="edge17" class="edge">
<title>Node8&#45;&gt;Node12</title>
<path fill="none" stroke="midnightblue" d="M730.76,-168.44C752.32,-159.56 786.26,-145.56 810.79,-135.45"/>
<polygon fill="midnightblue" stroke="midnightblue" points="812.43,-138.56 820.34,-131.52 809.76,-132.09 812.43,-138.56"/>
</g>
<!-- Node9&#45;&gt;Node3 -->
<g id="edge12" class="edge">
<title>Node9&#45;&gt;Node3</title>
<path fill="none" stroke="midnightblue" d="M654.88,-112.17C641.16,-97.84 611.86,-69.76 581,-56 523.36,-30.29 452.61,-19.19 398.87,-14.44"/>
<polygon fill="midnightblue" stroke="midnightblue" points="398.95,-10.94 388.7,-13.6 398.38,-17.91 398.95,-10.94"/>
</g>
<!-- Node9&#45;&gt;Node7 -->
<g id="edge16" class="edge">
<title>Node9&#45;&gt;Node7</title>
<path fill="none" stroke="midnightblue" d="M627.98,-112.44C589.75,-103.1 528.43,-88.12 486.74,-77.93"/>
<polygon fill="midnightblue" stroke="midnightblue" points="487.4,-74.49 476.85,-75.52 485.74,-81.29 487.4,-74.49"/>
</g>
<!-- Node10 -->
<g id="node10" class="node">
<title>Node10</title>
<g id="a_node10"><a xlink:href="../../d6/d3b/FixArduinoMacros_8hpp.html" target="_top" xlink:title=" ">
<polygon fill="white" stroke="black" points="633,-56.5 633,-75.5 803,-75.5 803,-56.5 633,-56.5"/>
<text text-anchor="middle" x="718" y="-63.5" font-family="Helvetica,sans-Serif" font-size="10.00">AH/Math/FixArduinoMacros.hpp</text>
</a>
</g>
</g>
<!-- Node9&#45;&gt;Node10 -->
<g id="edge13" class="edge">
<title>Node9&#45;&gt;Node10</title>
<path fill="none" stroke="midnightblue" d="M672.08,-112.08C680.17,-104.14 692.2,-92.34 701.91,-82.8"/>
<polygon fill="midnightblue" stroke="midnightblue" points="704.4,-85.25 709.09,-75.75 699.5,-80.26 704.4,-85.25"/>
</g>
<!-- Node10&#45;&gt;Node3 -->
<g id="edge14" class="edge">
<title>Node10&#45;&gt;Node3</title>
<path fill="none" stroke="midnightblue" d="M654.46,-56.44C582.6,-46.77 465.78,-31.04 390.17,-20.85"/>
<polygon fill="midnightblue" stroke="midnightblue" points="390.62,-17.38 380.24,-19.52 389.69,-24.32 390.62,-17.38"/>
</g>
<!-- Node10&#45;&gt;Node11 -->
<g id="edge15" class="edge">
<title>Node10&#45;&gt;Node11</title>
<path fill="none" stroke="midnightblue" d="M727,-56.32C735.19,-48.42 747.51,-36.55 757.47,-26.94"/>
<polygon fill="midnightblue" stroke="midnightblue" points="760.07,-29.29 764.84,-19.83 755.21,-24.26 760.07,-29.29"/>
</g>
<!-- Node13&#45;&gt;Node3 -->
<g id="edge20" class="edge">
<title>Node13&#45;&gt;Node3</title>
<path fill="none" stroke="midnightblue" d="M366.15,-336.49C282.98,-321.12 127,-285.55 127,-235 127,-235 127,-235 127,-121 127,-62.69 194.85,-34.79 249.46,-21.78"/>
<polygon fill="midnightblue" stroke="midnightblue" points="250.49,-25.13 259.48,-19.52 248.95,-18.3 250.49,-25.13"/>
</g>
<!-- Node13&#45;&gt;Node5 -->
<g id="edge33" class="edge">
<title>Node13&#45;&gt;Node5</title>
<path fill="none" stroke="midnightblue" d="M422.13,-355.75C423.66,-362.86 424.1,-373.14 423.47,-382.1"/>
<polygon fill="midnightblue" stroke="midnightblue" points="419.99,-381.71 422.17,-392.08 426.93,-382.62 419.99,-381.71"/>
</g>
<!-- Node13&#45;&gt;Node7 -->
<g id="edge21" class="edge">
<title>Node13&#45;&gt;Node7</title>
<path fill="none" stroke="midnightblue" d="M427.93,-336.45C447.13,-320.65 486.27,-284.75 501,-244 522.15,-185.5 478.36,-115.16 455.17,-83.67"/>
<polygon fill="midnightblue" stroke="midnightblue" points="457.82,-81.37 448.98,-75.53 452.24,-85.61 457.82,-81.37"/>
</g>
<!-- Node14 -->
<g id="node14" class="node">
<title>Node14</title>
<g id="a_node14"><a xlink:href="../../db/d02/Settings_8hpp.html" target="_top" xlink:title="All user settings and debugging options can be changed here.">
<polygon fill="white" stroke="black" points="313.5,-280.5 313.5,-299.5 390.5,-299.5 390.5,-280.5 313.5,-280.5"/>
<text text-anchor="middle" x="352" y="-287.5" font-family="Helvetica,sans-Serif" font-size="10.00">Settings.hpp</text>
</a>
</g>
</g>
<!-- Node13&#45;&gt;Node14 -->
<g id="edge22" class="edge">
<title>Node13&#45;&gt;Node14</title>
<path fill="none" stroke="midnightblue" d="M406.56,-336.32C396.85,-328.26 382.18,-316.08 370.5,-306.37"/>
<polygon fill="midnightblue" stroke="midnightblue" points="372.56,-303.53 362.63,-299.83 368.09,-308.92 372.56,-303.53"/>
</g>
<!-- Node20 -->
<g id="node20" class="node">
<title>Node20</title>
<g id="a_node20"><a xlink:href="../../d9/d98/TeensyUSBTypes_8hpp.html" target="_top" xlink:title=" ">
<polygon fill="white" stroke="black" points="509.5,-280.5 509.5,-299.5 682.5,-299.5 682.5,-280.5 509.5,-280.5"/>
<text text-anchor="middle" x="596" y="-287.5" font-family="Helvetica,sans-Serif" font-size="10.00">AH/Teensy/TeensyUSBTypes.hpp</text>
</a>
</g>
</g>
<!-- Node13&#45;&gt;Node20 -->
<g id="edge32" class="edge">
<title>Node13&#45;&gt;Node20</title>
<path fill="none" stroke="midnightblue" d="M445.36,-336.44C475.74,-327.28 524.11,-312.69 557.82,-302.52"/>
<polygon fill="midnightblue" stroke="midnightblue" points="559.21,-305.76 567.77,-299.52 557.18,-299.05 559.21,-305.76"/>
</g>
<!-- Node15 -->
<g id="node15" class="node">
<title>Node15</title>
<g id="a_node15"><a xlink:href="../../dc/d50/Frequency_8hpp.html" target="_top" xlink:title=" ">
<polygon fill="white" stroke="black" points="155,-112.5 155,-131.5 289,-131.5 289,-112.5 155,-112.5"/>
<text text-anchor="middle" x="222" y="-119.5" font-family="Helvetica,sans-Serif" font-size="10.00">AH/Types/Frequency.hpp</text>
</a>
</g>
</g>
<!-- Node14&#45;&gt;Node15 -->
<g id="edge23" class="edge">
<title>Node14&#45;&gt;Node15</title>
<path fill="none" stroke="midnightblue" d="M313.15,-284.07C268.58,-277.52 199.63,-264.36 184,-244 159.65,-212.26 189,-164.63 208.1,-139.65"/>
<polygon fill="midnightblue" stroke="midnightblue" points="211.06,-141.54 214.55,-131.54 205.58,-137.18 211.06,-141.54"/>
</g>
<!-- Node16 -->
<g id="node16" class="node">
<title>Node16</title>
<g id="a_node16"><a xlink:href="../../d7/d7c/ADCConfig_8hpp.html" target="_top" xlink:title="This file contains the platform&#45;specific ADC resolutions.">
<polygon fill="white" stroke="black" points="335.5,-224.5 335.5,-243.5 492.5,-243.5 492.5,-224.5 335.5,-224.5"/>
<text text-anchor="middle" x="414" y="-231.5" font-family="Helvetica,sans-Serif" font-size="10.00">AH/Hardware/ADCConfig.hpp</text>
</a>
</g>
</g>
<!-- Node14&#45;&gt;Node16 -->
<g id="edge26" class="edge">
<title>Node14&#45;&gt;Node16</title>
<path fill="none" stroke="midnightblue" d="M361.96,-280.32C371.13,-272.34 384.94,-260.31 396.03,-250.65"/>
<polygon fill="midnightblue" stroke="midnightblue" points="398.62,-253.04 403.86,-243.83 394.02,-247.76 398.62,-253.04"/>
</g>
<!-- Node17 -->
<g id="node17" class="node">
<title>Node17</title>
<g id="a_node17"><a xlink:title=" ">
<polygon fill="white" stroke="#bfbfbf" points="193.5,-224.5 193.5,-243.5 246.5,-243.5 246.5,-224.5 193.5,-224.5"/>
<text text-anchor="middle" x="220" y="-231.5" font-family="Helvetica,sans-Serif" font-size="10.00">limits.h</text>
</a>
</g>
</g>
<!-- Node14&#45;&gt;Node17 -->
<g id="edge29" class="edge">
<title>Node14&#45;&gt;Node17</title>
<path fill="none" stroke="midnightblue" d="M331.08,-280.44C309.26,-271.52 274.85,-257.44 250.11,-247.32"/>
<polygon fill="midnightblue" stroke="midnightblue" points="251.4,-244.06 240.82,-243.52 248.75,-250.54 251.4,-244.06"/>
</g>
<!-- Node14&#45;&gt;Node18 -->
<g id="edge30" class="edge">
<title>Node14&#45;&gt;Node18</title>
<path fill="none" stroke="midnightblue" d="M387.65,-280.44C428.98,-270.53 496.8,-254.25 539.07,-244.1"/>
<polygon fill="midnightblue" stroke="midnightblue" points="540.07,-247.46 548.98,-241.73 538.44,-240.66 540.07,-247.46"/>
</g>
<!-- Node19 -->
<g id="node19" class="node">
<title>Node19</title>
<g id="a_node19"><a xlink:title=" ">
<polygon fill="white" stroke="#bfbfbf" points="264.5,-224.5 264.5,-243.5 317.5,-243.5 317.5,-224.5 264.5,-224.5"/>
<text text-anchor="middle" x="291" y="-231.5" font-family="Helvetica,sans-Serif" font-size="10.00">stdint.h</text>
</a>
</g>
</g>
<!-- Node14&#45;&gt;Node19 -->
<g id="edge31" class="edge">
<title>Node14&#45;&gt;Node19</title>
<path fill="none" stroke="midnightblue" d="M342.2,-280.32C333.18,-272.34 319.59,-260.31 308.68,-250.65"/>
<polygon fill="midnightblue" stroke="midnightblue" points="310.79,-247.84 300.98,-243.83 306.15,-253.08 310.79,-247.84"/>
</g>
<!-- Node15&#45;&gt;Node3 -->
<g id="edge24" class="edge">
<title>Node15&#45;&gt;Node3</title>
<path fill="none" stroke="midnightblue" d="M229.45,-112.37C245.27,-94.05 282.41,-51.05 302.87,-27.36"/>
<polygon fill="midnightblue" stroke="midnightblue" points="305.69,-29.45 309.58,-19.59 300.4,-24.87 305.69,-29.45"/>
</g>
<!-- Node15&#45;&gt;Node7 -->
<g id="edge25" class="edge">
<title>Node15&#45;&gt;Node7</title>
<path fill="none" stroke="midnightblue" d="M256.86,-112.44C294.92,-103.1 355.96,-88.12 397.46,-77.93"/>
<polygon fill="midnightblue" stroke="midnightblue" points="398.43,-81.3 407.3,-75.52 396.76,-74.5 398.43,-81.3"/>
</g>
<!-- Node16&#45;&gt;Node3 -->
<g id="edge27" class="edge">
<title>Node16&#45;&gt;Node3</title>
<path fill="none" stroke="midnightblue" d="M408.92,-224.42C395.35,-201.21 357.73,-134.93 335,-76 329.07,-60.64 324.23,-42.54 321.06,-29.35"/>
<polygon fill="midnightblue" stroke="midnightblue" points="324.47,-28.54 318.81,-19.59 317.65,-30.12 324.47,-28.54"/>
</g>
<!-- Node16&#45;&gt;Node8 -->
<g id="edge28" class="edge">
<title>Node16&#45;&gt;Node8</title>
<path fill="none" stroke="midnightblue" d="M460.9,-224.44C513.08,-214.92 597.37,-199.55 653.23,-189.36"/>
<polygon fill="midnightblue" stroke="midnightblue" points="654.11,-192.75 663.32,-187.52 652.85,-185.87 654.11,-192.75"/>
</g>
<!-- Node24&#45;&gt;Node2 -->
<g id="edge40" class="edge">
<title>Node24&#45;&gt;Node2</title>
<path fill="none" stroke="midnightblue" d="M695.59,-560.08C703.16,-552.22 714.38,-540.57 723.51,-531.08"/>
<polygon fill="midnightblue" stroke="midnightblue" points="726.16,-533.38 730.57,-523.75 721.12,-528.53 726.16,-533.38"/>
</g>
</g>
</svg>
