<?xml version="1.0" encoding="UTF-8" standalone="no"?>
<!DOCTYPE svg PUBLIC "-//W3C//DTD SVG 1.1//EN"
 "http://www.w3.org/Graphics/SVG/1.1/DTD/svg11.dtd">
<!-- Generated by graphviz version 2.38.0 (20140413.2041)
 -->
<!-- Title: NonNormalizingBiQuadFilterDF1&lt; T &gt; Pages: 1 -->
<svg width="182pt" height="270pt"
 viewBox="0.00 0.00 182.00 270.00" xmlns="http://www.w3.org/2000/svg" xmlns:xlink="http://www.w3.org/1999/xlink">
<g id="graph0" class="graph" transform="scale(1 1) rotate(0) translate(4 266)">
<title>NonNormalizingBiQuadFilterDF1&lt; T &gt;</title>
<polygon fill="white" stroke="none" points="-4,4 -4,-266 178,-266 178,4 -4,4"/>
<!-- Node1 -->
<g id="node1" class="node"><title>Node1</title>
<g id="a_node1"><a xlink:title="BiQuad filter Direct Form 1 implementation that does not normalize the coefficients upon initializati...">
<polygon fill="#bfbfbf" stroke="black" points="0,-0.5 0,-156.5 174,-156.5 174,-0.5 0,-0.5"/>
<text text-anchor="start" x="8" y="-144.5" font-family="Helvetica,sans-Serif" font-size="10.00">NonNormalizingBiQuadFilter</text>
<text text-anchor="middle" x="87" y="-133.5" font-family="Helvetica,sans-Serif" font-size="10.00">DF1&lt; T &gt;</text>
<polyline fill="none" stroke="black" points="0,-126.5 174,-126.5 "/>
<text text-anchor="start" x="8" y="-114.5" font-family="Helvetica,sans-Serif" font-size="10.00">&#45; x</text>
<text text-anchor="start" x="8" y="-103.5" font-family="Helvetica,sans-Serif" font-size="10.00">&#45; y</text>
<text text-anchor="start" x="8" y="-92.5" font-family="Helvetica,sans-Serif" font-size="10.00">&#45; b</text>
<text text-anchor="start" x="8" y="-81.5" font-family="Helvetica,sans-Serif" font-size="10.00">&#45; a</text>
<polyline fill="none" stroke="black" points="0,-74.5 174,-74.5 "/>
<text text-anchor="start" x="8" y="-62.5" font-family="Helvetica,sans-Serif" font-size="10.00">+ NonNormalizingBiQuadFilterDF1()</text>
<text text-anchor="start" x="8" y="-51.5" font-family="Helvetica,sans-Serif" font-size="10.00">+ NonNormalizingBiQuadFilterDF1()</text>
<text text-anchor="start" x="8" y="-40.5" font-family="Helvetica,sans-Serif" font-size="10.00">+ NonNormalizingBiQuadFilterDF1()</text>
<text text-anchor="start" x="8" y="-29.5" font-family="Helvetica,sans-Serif" font-size="10.00">+ operator()()</text>
<text text-anchor="start" x="8" y="-18.5" font-family="Helvetica,sans-Serif" font-size="10.00">+ update()</text>
<text text-anchor="start" x="8" y="-7.5" font-family="Helvetica,sans-Serif" font-size="10.00">+ update()</text>
</a>
</g>
</g>
<!-- Node2 -->
<g id="node2" class="node"><title>Node2</title>
<g id="a_node2"><a xlink:title=" ">
<polygon fill="white" stroke="#bfbfbf" points="72.5,-204.5 72.5,-261.5 101.5,-261.5 101.5,-204.5 72.5,-204.5"/>
<text text-anchor="middle" x="87" y="-249.5" font-family="Helvetica,sans-Serif" font-size="10.00">T</text>
<polyline fill="none" stroke="#bfbfbf" points="72.5,-242.5 101.5,-242.5 "/>
<text text-anchor="middle" x="87" y="-230.5" font-family="Helvetica,sans-Serif" font-size="10.00"> </text>
<polyline fill="none" stroke="#bfbfbf" points="72.5,-223.5 101.5,-223.5 "/>
<text text-anchor="middle" x="87" y="-211.5" font-family="Helvetica,sans-Serif" font-size="10.00"> </text>
</a>
</g>
</g>
<!-- Node2&#45;&gt;Node1 -->
<g id="edge1" class="edge"><title>Node2&#45;&gt;Node1</title>
<path fill="none" stroke="#404040" d="M87,-204.383C87,-194.106 87,-181.806 87,-168.991"/>
<polygon fill="none" stroke="#404040" points="87.0001,-168.596 83,-162.596 87,-156.596 91,-162.596 87.0001,-168.596"/>
<text text-anchor="middle" x="95.5" y="-178" font-family="Helvetica,sans-Serif" font-size="10.00"> &#45;a0</text>
</g>
</g>
</svg>
