<?xml version="1.0" encoding="UTF-8" standalone="no"?>
<!DOCTYPE svg PUBLIC "-//W3C//DTD SVG 1.1//EN"
 "http://www.w3.org/Graphics/SVG/1.1/DTD/svg11.dtd">
<!-- Generated by graphviz version 2.40.1 (20161225.0304)
 -->
<!-- Title: Debug.cpp Pages: 1 -->
<svg width="914pt" height="476pt"
 viewBox="0.00 0.00 914.18 476.00" xmlns="http://www.w3.org/2000/svg" xmlns:xlink="http://www.w3.org/1999/xlink">
<g id="graph0" class="graph" transform="scale(1 1) rotate(0) translate(4 472)">
<title>Debug.cpp</title>
<polygon fill="#ffffff" stroke="transparent" points="-4,4 -4,-472 910.1813,-472 910.1813,4 -4,4"/>
<!-- Node1 -->
<g id="node1" class="node">
<title>Node1</title>
<g id="a_node1"><a xlink:title=" ">
<polygon fill="#bfbfbf" stroke="#000000" points="540.1813,-448.5 540.1813,-467.5 604.1813,-467.5 604.1813,-448.5 540.1813,-448.5"/>
<text text-anchor="middle" x="572.1813" y="-455.5" font-family="Helvetica,sans-Serif" font-size="10.00" fill="#000000">Debug.cpp</text>
</a>
</g>
</g>
<!-- Node2 -->
<g id="node2" class="node">
<title>Node2</title>
<g id="a_node2"><a xlink:href="../../df/dee/Debug_8hpp.html" target="_top" xlink:title=" ">
<polygon fill="#ffffff" stroke="#000000" points="540.1813,-392.5 540.1813,-411.5 604.1813,-411.5 604.1813,-392.5 540.1813,-392.5"/>
<text text-anchor="middle" x="572.1813" y="-399.5" font-family="Helvetica,sans-Serif" font-size="10.00" fill="#000000">Debug.hpp</text>
</a>
</g>
</g>
<!-- Node1&#45;&gt;Node2 -->
<g id="edge1" class="edge">
<title>Node1&#45;&gt;Node2</title>
<path fill="none" stroke="#191970" d="M572.1813,-448.2455C572.1813,-440.9382 572.1813,-430.6944 572.1813,-421.7046"/>
<polygon fill="#191970" stroke="#191970" points="575.6814,-421.6426 572.1813,-411.6427 568.6814,-421.6427 575.6814,-421.6426"/>
</g>
<!-- Node3 -->
<g id="node3" class="node">
<title>Node3</title>
<g id="a_node3"><a xlink:href="../../d1/d65/Warnings_8hpp.html" target="_top" xlink:title=" ">
<polygon fill="#ffffff" stroke="#000000" points="381.6813,-.5 381.6813,-19.5 514.6813,-19.5 514.6813,-.5 381.6813,-.5"/>
<text text-anchor="middle" x="448.1813" y="-7.5" font-family="Helvetica,sans-Serif" font-size="10.00" fill="#000000">AH/Settings/Warnings.hpp</text>
</a>
</g>
</g>
<!-- Node2&#45;&gt;Node3 -->
<g id="edge2" class="edge">
<title>Node2&#45;&gt;Node3</title>
<path fill="none" stroke="#191970" d="M604.3645,-393.4137C667.2129,-375.6936 800.1813,-333.109 800.1813,-290 800.1813,-290 800.1813,-290 800.1813,-122 800.1813,-64.669 628.4778,-32.7876 524.914,-18.7724"/>
<polygon fill="#191970" stroke="#191970" points="525.177,-15.2767 514.8036,-17.4314 524.2566,-22.2159 525.177,-15.2767"/>
</g>
<!-- Node4 -->
<g id="node4" class="node">
<title>Node4</title>
<g id="a_node4"><a xlink:href="../../dd/d80/PrintStream_8hpp.html" target="_top" xlink:title=" ">
<polygon fill="#ffffff" stroke="#000000" points="12.6813,-224.5 12.6813,-243.5 171.6813,-243.5 171.6813,-224.5 12.6813,-224.5"/>
<text text-anchor="middle" x="92.1813" y="-231.5" font-family="Helvetica,sans-Serif" font-size="10.00" fill="#000000">AH/PrintStream/PrintStream.hpp</text>
</a>
</g>
</g>
<!-- Node2&#45;&gt;Node4 -->
<g id="edge3" class="edge">
<title>Node2&#45;&gt;Node4</title>
<path fill="none" stroke="#191970" d="M539.9645,-399.1091C445.8701,-390.0343 174.1385,-359.1375 111.1813,-300 98.5768,-288.1603 94.1558,-268.5527 92.6914,-253.7786"/>
<polygon fill="#191970" stroke="#191970" points="96.1744,-253.3955 92.0613,-243.6317 89.1879,-253.8294 96.1744,-253.3955"/>
</g>
<!-- Node11 -->
<g id="node11" class="node">
<title>Node11</title>
<g id="a_node11"><a xlink:href="../../d2/dd5/SettingsWrapper_8hpp.html" target="_top" xlink:title=" ">
<polygon fill="#ffffff" stroke="#000000" points="490.1813,-336.5 490.1813,-355.5 654.1813,-355.5 654.1813,-336.5 490.1813,-336.5"/>
<text text-anchor="middle" x="572.1813" y="-343.5" font-family="Helvetica,sans-Serif" font-size="10.00" fill="#000000">AH/Settings/SettingsWrapper.hpp</text>
</a>
</g>
</g>
<!-- Node2&#45;&gt;Node11 -->
<g id="edge14" class="edge">
<title>Node2&#45;&gt;Node11</title>
<path fill="none" stroke="#191970" d="M566.9144,-392.2455C565.5034,-384.9382 565.0992,-374.6944 565.7018,-365.7046"/>
<polygon fill="#191970" stroke="#191970" points="569.1924,-365.9945 566.9361,-355.6427 562.2444,-365.1421 569.1924,-365.9945"/>
</g>
<!-- Node19 -->
<g id="node19" class="node">
<title>Node19</title>
<g id="a_node19"><a xlink:href="../../d7/d52/DebugVal_8hpp.html" target="_top" xlink:title=" ">
<polygon fill="#ffffff" stroke="#000000" points="828.1813,-336.5 828.1813,-355.5 906.1813,-355.5 906.1813,-336.5 828.1813,-336.5"/>
<text text-anchor="middle" x="867.1813" y="-343.5" font-family="Helvetica,sans-Serif" font-size="10.00" fill="#000000">DebugVal.hpp</text>
</a>
</g>
</g>
<!-- Node2&#45;&gt;Node19 -->
<g id="edge29" class="edge">
<title>Node2&#45;&gt;Node19</title>
<path fill="none" stroke="#191970" d="M604.313,-395.9004C655.8381,-386.1194 757.2981,-366.8592 817.9903,-355.3379"/>
<polygon fill="#191970" stroke="#191970" points="818.925,-358.7231 828.0968,-353.4194 817.6195,-351.8459 818.925,-358.7231"/>
</g>
<!-- Node4&#45;&gt;Node3 -->
<g id="edge4" class="edge">
<title>Node4&#45;&gt;Node3</title>
<path fill="none" stroke="#191970" d="M76.0987,-224.3879C63.9671,-216.2556 47.9635,-203.4692 39.1813,-188 9.8865,-136.3995 -20.4761,-100.1371 19.1813,-56 42.2344,-30.3428 254.1965,-17.7931 371.2951,-12.7714"/>
<polygon fill="#191970" stroke="#191970" points="371.7864,-16.2539 381.6306,-12.3371 371.4924,-9.2601 371.7864,-16.2539"/>
</g>
<!-- Node5 -->
<g id="node5" class="node">
<title>Node5</title>
<g id="a_node5"><a xlink:href="../../d6/ddf/Arduino-Wrapper_8h.html" target="_top" xlink:title=" ">
<polygon fill="#ffffff" stroke="#000000" points="48.6813,-168.5 48.6813,-187.5 163.6813,-187.5 163.6813,-168.5 48.6813,-168.5"/>
<text text-anchor="middle" x="106.1813" y="-175.5" font-family="Helvetica,sans-Serif" font-size="10.00" fill="#000000">AH/Arduino&#45;Wrapper.h</text>
</a>
</g>
</g>
<!-- Node4&#45;&gt;Node5 -->
<g id="edge5" class="edge">
<title>Node4&#45;&gt;Node5</title>
<path fill="none" stroke="#191970" d="M94.6199,-224.2455C96.4668,-216.8579 99.064,-206.4689 101.3291,-197.4087"/>
<polygon fill="#191970" stroke="#191970" points="104.7407,-198.193 103.7706,-187.6427 97.9497,-196.4952 104.7407,-198.193"/>
</g>
<!-- Node6 -->
<g id="node6" class="node">
<title>Node6</title>
<g id="a_node6"><a xlink:href="../../d7/d79/MinMaxFix_8hpp.html" target="_top" xlink:title=" ">
<polygon fill="#ffffff" stroke="#000000" points="43.6813,-112.5 43.6813,-131.5 168.6813,-131.5 168.6813,-112.5 43.6813,-112.5"/>
<text text-anchor="middle" x="106.1813" y="-119.5" font-family="Helvetica,sans-Serif" font-size="10.00" fill="#000000">AH/Math/MinMaxFix.hpp</text>
</a>
</g>
</g>
<!-- Node5&#45;&gt;Node6 -->
<g id="edge6" class="edge">
<title>Node5&#45;&gt;Node6</title>
<path fill="none" stroke="#191970" d="M106.1813,-168.2455C106.1813,-160.9382 106.1813,-150.6944 106.1813,-141.7046"/>
<polygon fill="#191970" stroke="#191970" points="109.6814,-141.6426 106.1813,-131.6427 102.6814,-141.6427 109.6814,-141.6426"/>
</g>
<!-- Node8 -->
<g id="node8" class="node">
<title>Node8</title>
<g id="a_node8"><a xlink:title=" ">
<polygon fill="#ffffff" stroke="#bfbfbf" points="5.1813,-.5 5.1813,-19.5 63.1813,-19.5 63.1813,-.5 5.1813,-.5"/>
<text text-anchor="middle" x="34.1813" y="-7.5" font-family="Helvetica,sans-Serif" font-size="10.00" fill="#000000">Arduino.h</text>
</a>
</g>
</g>
<!-- Node5&#45;&gt;Node8 -->
<g id="edge13" class="edge">
<title>Node5&#45;&gt;Node8</title>
<path fill="none" stroke="#191970" d="M82.4431,-168.3822C66.5416,-160.7678 46.3616,-148.6359 34.1813,-132 13.842,-104.2206 13.7774,-90.0027 19.1813,-56 20.6113,-47.0016 23.5225,-37.3703 26.4028,-29.2579"/>
<polygon fill="#191970" stroke="#191970" points="29.7732,-30.2407 30.0445,-19.6493 23.2276,-27.7599 29.7732,-30.2407"/>
</g>
<!-- Node10 -->
<g id="node10" class="node">
<title>Node10</title>
<g id="a_node10"><a xlink:title=" ">
<polygon fill="#ffffff" stroke="#bfbfbf" points="186.6813,-112.5 186.6813,-131.5 287.6813,-131.5 287.6813,-112.5 186.6813,-112.5"/>
<text text-anchor="middle" x="237.1813" y="-119.5" font-family="Helvetica,sans-Serif" font-size="10.00" fill="#000000">AH/STL/type_traits</text>
</a>
</g>
</g>
<!-- Node5&#45;&gt;Node10 -->
<g id="edge12" class="edge">
<title>Node5&#45;&gt;Node10</title>
<path fill="none" stroke="#191970" d="M128.701,-168.3733C149.9185,-159.3032 181.9089,-145.6279 205.6581,-135.4755"/>
<polygon fill="#191970" stroke="#191970" points="207.1361,-138.6502 214.9554,-131.5011 204.3846,-132.2136 207.1361,-138.6502"/>
</g>
<!-- Node6&#45;&gt;Node3 -->
<g id="edge7" class="edge">
<title>Node6&#45;&gt;Node3</title>
<path fill="none" stroke="#191970" d="M124.2359,-112.447C158.6889,-94.2201 230.48,-56.2539 231.1813,-56 276.4379,-39.6162 329.2261,-28.2659 371.4054,-20.9393"/>
<polygon fill="#191970" stroke="#191970" points="372.0624,-24.3779 381.3359,-19.2543 370.8913,-17.4766 372.0624,-24.3779"/>
</g>
<!-- Node7 -->
<g id="node7" class="node">
<title>Node7</title>
<g id="a_node7"><a xlink:href="../../d6/d3b/FixArduinoMacros_8hpp.html" target="_top" xlink:title=" ">
<polygon fill="#ffffff" stroke="#000000" points="28.1813,-56.5 28.1813,-75.5 184.1813,-75.5 184.1813,-56.5 28.1813,-56.5"/>
<text text-anchor="middle" x="106.1813" y="-63.5" font-family="Helvetica,sans-Serif" font-size="10.00" fill="#000000">AH/Math/FixArduinoMacros.hpp</text>
</a>
</g>
</g>
<!-- Node6&#45;&gt;Node7 -->
<g id="edge8" class="edge">
<title>Node6&#45;&gt;Node7</title>
<path fill="none" stroke="#191970" d="M106.1813,-112.2455C106.1813,-104.9382 106.1813,-94.6944 106.1813,-85.7046"/>
<polygon fill="#191970" stroke="#191970" points="109.6814,-85.6426 106.1813,-75.6427 102.6814,-85.6427 109.6814,-85.6426"/>
</g>
<!-- Node9 -->
<g id="node9" class="node">
<title>Node9</title>
<g id="a_node9"><a xlink:href="../../dc/dc7/NamespaceSettings_8hpp.html" target="_top" xlink:title=" ">
<polygon fill="#ffffff" stroke="#000000" points="240.1813,-56.5 240.1813,-75.5 420.1813,-75.5 420.1813,-56.5 240.1813,-56.5"/>
<text text-anchor="middle" x="330.1813" y="-63.5" font-family="Helvetica,sans-Serif" font-size="10.00" fill="#000000">AH/Settings/NamespaceSettings.hpp</text>
</a>
</g>
</g>
<!-- Node6&#45;&gt;Node9 -->
<g id="edge11" class="edge">
<title>Node6&#45;&gt;Node9</title>
<path fill="none" stroke="#191970" d="M144.4337,-112.4369C182.528,-102.9133 241.1125,-88.2672 282.28,-77.9753"/>
<polygon fill="#191970" stroke="#191970" points="283.2341,-81.3446 292.0866,-75.5237 281.5363,-74.5536 283.2341,-81.3446"/>
</g>
<!-- Node7&#45;&gt;Node3 -->
<g id="edge9" class="edge">
<title>Node7&#45;&gt;Node3</title>
<path fill="none" stroke="#191970" d="M164.5846,-56.4369C224.2219,-46.6717 316.751,-31.5207 379.7778,-21.2006"/>
<polygon fill="#191970" stroke="#191970" points="380.7159,-24.5937 390.0189,-19.5237 379.5847,-17.6857 380.7159,-24.5937"/>
</g>
<!-- Node7&#45;&gt;Node8 -->
<g id="edge10" class="edge">
<title>Node7&#45;&gt;Node8</title>
<path fill="none" stroke="#191970" d="M93.6398,-56.2455C82.9025,-47.8943 67.2339,-35.7076 54.6766,-25.9408"/>
<polygon fill="#191970" stroke="#191970" points="56.6213,-23.0194 46.579,-19.6427 52.3237,-28.5449 56.6213,-23.0194"/>
</g>
<!-- Node11&#45;&gt;Node2 -->
<g id="edge28" class="edge">
<title>Node11&#45;&gt;Node2</title>
<path fill="none" stroke="#191970" d="M577.4264,-355.6427C578.8477,-362.9199 579.2622,-373.155 578.6699,-382.1575"/>
<polygon fill="#191970" stroke="#191970" points="575.176,-381.8972 577.4481,-392.2455 582.1252,-382.739 575.176,-381.8972"/>
</g>
<!-- Node11&#45;&gt;Node3 -->
<g id="edge15" class="edge">
<title>Node11&#45;&gt;Node3</title>
<path fill="none" stroke="#191970" d="M632.0377,-336.4681C687.7304,-323.7875 762.1813,-295.3607 762.1813,-234 762.1813,-234 762.1813,-234 762.1813,-122 762.1813,-71.2526 614.844,-37.4758 522.022,-21.232"/>
<polygon fill="#191970" stroke="#191970" points="522.5509,-17.7716 512.1023,-19.5262 521.3645,-24.6704 522.5509,-17.7716"/>
</g>
<!-- Node11&#45;&gt;Node9 -->
<g id="edge16" class="edge">
<title>Node11&#45;&gt;Node9</title>
<path fill="none" stroke="#191970" d="M529.0438,-336.49C456.0858,-319.1466 316.1813,-279.9043 316.1813,-234 316.1813,-234 316.1813,-234 316.1813,-178 316.1813,-145.311 322.1259,-107.6669 326.2678,-85.4058"/>
<polygon fill="#191970" stroke="#191970" points="329.7137,-86.0207 328.1754,-75.5381 322.8409,-84.692 329.7137,-86.0207"/>
</g>
<!-- Node12 -->
<g id="node12" class="node">
<title>Node12</title>
<g id="a_node12"><a xlink:href="../../db/d02/Settings_8hpp.html" target="_top" xlink:title="All user settings and debugging options can be changed here.">
<polygon fill="#ffffff" stroke="#000000" points="536.6813,-280.5 536.6813,-299.5 607.6813,-299.5 607.6813,-280.5 536.6813,-280.5"/>
<text text-anchor="middle" x="572.1813" y="-287.5" font-family="Helvetica,sans-Serif" font-size="10.00" fill="#000000">Settings.hpp</text>
</a>
</g>
</g>
<!-- Node11&#45;&gt;Node12 -->
<g id="edge17" class="edge">
<title>Node11&#45;&gt;Node12</title>
<path fill="none" stroke="#191970" d="M572.1813,-336.2455C572.1813,-328.9382 572.1813,-318.6944 572.1813,-309.7046"/>
<polygon fill="#191970" stroke="#191970" points="575.6814,-309.6426 572.1813,-299.6427 568.6814,-309.6427 575.6814,-309.6426"/>
</g>
<!-- Node18 -->
<g id="node18" class="node">
<title>Node18</title>
<g id="a_node18"><a xlink:href="../../d9/d98/TeensyUSBTypes_8hpp.html" target="_top" xlink:title=" ">
<polygon fill="#ffffff" stroke="#000000" points="120.1813,-280.5 120.1813,-299.5 288.1813,-299.5 288.1813,-280.5 120.1813,-280.5"/>
<text text-anchor="middle" x="204.1813" y="-287.5" font-family="Helvetica,sans-Serif" font-size="10.00" fill="#000000">AH/Teensy/TeensyUSBTypes.hpp</text>
</a>
</g>
</g>
<!-- Node11&#45;&gt;Node18 -->
<g id="edge27" class="edge">
<title>Node11&#45;&gt;Node18</title>
<path fill="none" stroke="#191970" d="M509.3379,-336.4369C444.9022,-326.6314 344.7815,-311.3957 276.9476,-301.0731"/>
<polygon fill="#191970" stroke="#191970" points="277.1782,-297.568 266.7654,-299.5237 276.125,-304.4883 277.1782,-297.568"/>
</g>
<!-- Node13 -->
<g id="node13" class="node">
<title>Node13</title>
<g id="a_node13"><a xlink:href="../../dc/d50/Frequency_8hpp.html" target="_top" xlink:title=" ">
<polygon fill="#ffffff" stroke="#000000" points="344.1813,-112.5 344.1813,-131.5 472.1813,-131.5 472.1813,-112.5 344.1813,-112.5"/>
<text text-anchor="middle" x="408.1813" y="-119.5" font-family="Helvetica,sans-Serif" font-size="10.00" fill="#000000">AH/Types/Frequency.hpp</text>
</a>
</g>
</g>
<!-- Node12&#45;&gt;Node13 -->
<g id="edge18" class="edge">
<title>Node12&#45;&gt;Node13</title>
<path fill="none" stroke="#191970" d="M536.5192,-286.9794C484.8678,-281.7818 393.2101,-269.1868 373.1813,-244 348.5221,-212.9905 375.7667,-165.3583 394.1703,-139.75"/>
<polygon fill="#191970" stroke="#191970" points="397.0243,-141.7779 400.2116,-131.6738 391.419,-137.5848 397.0243,-141.7779"/>
</g>
<!-- Node14 -->
<g id="node14" class="node">
<title>Node14</title>
<g id="a_node14"><a xlink:href="../../d7/d7c/ADCConfig_8hpp.html" target="_top" xlink:title="This file contains the platform&#45;specific ADC resolutions. By default, the library automatically selec...">
<polygon fill="#ffffff" stroke="#000000" points="382.1813,-224.5 382.1813,-243.5 530.1813,-243.5 530.1813,-224.5 382.1813,-224.5"/>
<text text-anchor="middle" x="456.1813" y="-231.5" font-family="Helvetica,sans-Serif" font-size="10.00" fill="#000000">AH/Hardware/ADCConfig.hpp</text>
</a>
</g>
</g>
<!-- Node12&#45;&gt;Node14 -->
<g id="edge21" class="edge">
<title>Node12&#45;&gt;Node14</title>
<path fill="none" stroke="#191970" d="M552.2402,-280.3733C533.7026,-271.4241 505.8785,-257.9917 484.9399,-247.8835"/>
<polygon fill="#191970" stroke="#191970" points="486.3893,-244.6967 475.8622,-243.5011 483.346,-251.0006 486.3893,-244.6967"/>
</g>
<!-- Node15 -->
<g id="node15" class="node">
<title>Node15</title>
<g id="a_node15"><a xlink:title=" ">
<polygon fill="#ffffff" stroke="#bfbfbf" points="548.1813,-224.5 548.1813,-243.5 596.1813,-243.5 596.1813,-224.5 548.1813,-224.5"/>
<text text-anchor="middle" x="572.1813" y="-231.5" font-family="Helvetica,sans-Serif" font-size="10.00" fill="#000000">limits.h</text>
</a>
</g>
</g>
<!-- Node12&#45;&gt;Node15 -->
<g id="edge24" class="edge">
<title>Node12&#45;&gt;Node15</title>
<path fill="none" stroke="#191970" d="M572.1813,-280.2455C572.1813,-272.9382 572.1813,-262.6944 572.1813,-253.7046"/>
<polygon fill="#191970" stroke="#191970" points="575.6814,-253.6426 572.1813,-243.6427 568.6814,-253.6427 575.6814,-253.6426"/>
</g>
<!-- Node16 -->
<g id="node16" class="node">
<title>Node16</title>
<g id="a_node16"><a xlink:title=" ">
<polygon fill="#ffffff" stroke="#bfbfbf" points="614.1813,-224.5 614.1813,-243.5 666.1813,-243.5 666.1813,-224.5 614.1813,-224.5"/>
<text text-anchor="middle" x="640.1813" y="-231.5" font-family="Helvetica,sans-Serif" font-size="10.00" fill="#000000">stddef.h</text>
</a>
</g>
</g>
<!-- Node12&#45;&gt;Node16 -->
<g id="edge25" class="edge">
<title>Node12&#45;&gt;Node16</title>
<path fill="none" stroke="#191970" d="M584.026,-280.2455C594.0692,-271.9746 608.6807,-259.9416 620.4816,-250.2232"/>
<polygon fill="#191970" stroke="#191970" points="622.978,-252.7015 628.4723,-243.6427 618.528,-247.298 622.978,-252.7015"/>
</g>
<!-- Node17 -->
<g id="node17" class="node">
<title>Node17</title>
<g id="a_node17"><a xlink:title=" ">
<polygon fill="#ffffff" stroke="#bfbfbf" points="684.6813,-224.5 684.6813,-243.5 733.6813,-243.5 733.6813,-224.5 684.6813,-224.5"/>
<text text-anchor="middle" x="709.1813" y="-231.5" font-family="Helvetica,sans-Serif" font-size="10.00" fill="#000000">stdint.h</text>
</a>
</g>
</g>
<!-- Node12&#45;&gt;Node17 -->
<g id="edge26" class="edge">
<title>Node12&#45;&gt;Node17</title>
<path fill="none" stroke="#191970" d="M595.7324,-280.3733C618.0203,-271.2629 651.6749,-257.5062 676.545,-247.3404"/>
<polygon fill="#191970" stroke="#191970" points="678.0052,-250.5247 685.9375,-243.5011 675.3566,-244.0451 678.0052,-250.5247"/>
</g>
<!-- Node13&#45;&gt;Node3 -->
<g id="edge19" class="edge">
<title>Node13&#45;&gt;Node3</title>
<path fill="none" stroke="#191970" d="M413.116,-112.3063C417.6714,-103.1164 424.4302,-88.8446 429.1813,-76 434.869,-60.6231 439.9281,-42.7243 443.393,-29.4486"/>
<polygon fill="#191970" stroke="#191970" points="446.8399,-30.095 445.9074,-19.5413 440.055,-28.373 446.8399,-30.095"/>
</g>
<!-- Node13&#45;&gt;Node9 -->
<g id="edge20" class="edge">
<title>Node13&#45;&gt;Node9</title>
<path fill="none" stroke="#191970" d="M394.5947,-112.2455C382.8508,-103.814 365.6614,-91.4729 351.9931,-81.6598"/>
<polygon fill="#191970" stroke="#191970" points="353.7766,-78.6316 343.6121,-75.6427 349.6942,-84.3179 353.7766,-78.6316"/>
</g>
<!-- Node14&#45;&gt;Node3 -->
<g id="edge22" class="edge">
<title>Node14&#45;&gt;Node3</title>
<path fill="none" stroke="#191970" d="M460.6104,-224.2507C469.4358,-203.6386 487.8178,-154.0725 481.1813,-112 476.4645,-82.0975 464.4203,-49.0181 456.2637,-28.8693"/>
<polygon fill="#191970" stroke="#191970" points="459.4804,-27.489 452.412,-19.5967 453.0159,-30.1743 459.4804,-27.489"/>
</g>
<!-- Node14&#45;&gt;Node5 -->
<g id="edge23" class="edge">
<title>Node14&#45;&gt;Node5</title>
<path fill="none" stroke="#191970" d="M396.4118,-224.4369C334.6976,-214.5626 238.5659,-199.1815 174.0345,-188.8565"/>
<polygon fill="#191970" stroke="#191970" points="174.3864,-185.3684 163.959,-187.2444 173.2804,-192.2805 174.3864,-185.3684"/>
</g>
</g>
</svg>
