<?xml version="1.0" encoding="UTF-8" standalone="no"?>
<!DOCTYPE svg PUBLIC "-//W3C//DTD SVG 1.1//EN"
 "http://www.w3.org/Graphics/SVG/1.1/DTD/svg11.dtd">
<!-- Generated by graphviz version 2.40.1 (20161225.0304)
 -->
<!-- Title: SPIShiftRegisterOut.ipp Pages: 1 -->
<svg width="133pt" height="84pt"
 viewBox="0.00 0.00 133.00 84.00" xmlns="http://www.w3.org/2000/svg" xmlns:xlink="http://www.w3.org/1999/xlink">
<g id="graph0" class="graph" transform="scale(1 1) rotate(0) translate(4 80)">
<title>SPIShiftRegisterOut.ipp</title>
<polygon fill="#ffffff" stroke="transparent" points="-4,4 -4,-80 129,-80 129,4 -4,4"/>
<!-- Node1 -->
<g id="node1" class="node">
<title>Node1</title>
<g id="a_node1"><a xlink:title=" ">
<polygon fill="#bfbfbf" stroke="#000000" points="1.5,-56.5 1.5,-75.5 123.5,-75.5 123.5,-56.5 1.5,-56.5"/>
<text text-anchor="middle" x="62.5" y="-63.5" font-family="Helvetica,sans-Serif" font-size="10.00" fill="#000000">SPIShiftRegisterOut.ipp</text>
</a>
</g>
</g>
<!-- Node2 -->
<g id="node2" class="node">
<title>Node2</title>
<g id="a_node2"><a xlink:href="../../d7/d88/SPIShiftRegisterOut_8hpp.html" target="_top" xlink:title=" ">
<polygon fill="#ffffff" stroke="#000000" points="0,-.5 0,-19.5 125,-19.5 125,-.5 0,-.5"/>
<text text-anchor="middle" x="62.5" y="-7.5" font-family="Helvetica,sans-Serif" font-size="10.00" fill="#000000">SPIShiftRegisterOut.hpp</text>
</a>
</g>
</g>
<!-- Node1&#45;&gt;Node2 -->
<g id="edge1" class="edge">
<title>Node1&#45;&gt;Node2</title>
<path fill="none" stroke="#191970" d="M56.0113,-46.1575C55.419,-37.155 55.8335,-26.9199 57.2549,-19.6427"/>
<polygon fill="#191970" stroke="#191970" points="52.5561,-46.739 57.2332,-56.2455 59.5053,-45.8972 52.5561,-46.739"/>
</g>
<!-- Node2&#45;&gt;Node1 -->
<g id="edge2" class="edge">
<title>Node2&#45;&gt;Node1</title>
<path fill="none" stroke="#191970" d="M68.9795,-29.7046C69.5821,-38.6944 69.1779,-48.9382 67.7668,-56.2455"/>
<polygon fill="#191970" stroke="#191970" points="72.4368,-29.1421 67.7451,-19.6427 65.4889,-29.9945 72.4368,-29.1421"/>
</g>
</g>
</svg>
