<?xml version="1.0" encoding="UTF-8" standalone="no"?>
<!DOCTYPE svg PUBLIC "-//W3C//DTD SVG 1.1//EN"
 "http://www.w3.org/Graphics/SVG/1.1/DTD/svg11.dtd">
<!-- Generated by graphviz version 2.40.1 (20161225.0304)
 -->
<!-- Title: Array.hpp Pages: 1 -->
<svg width="912pt" height="532pt"
 viewBox="0.00 0.00 911.50 532.00" xmlns="http://www.w3.org/2000/svg" xmlns:xlink="http://www.w3.org/1999/xlink">
<g id="graph0" class="graph" transform="scale(1 1) rotate(0) translate(4 528)">
<title>Array.hpp</title>
<polygon fill="#ffffff" stroke="transparent" points="-4,4 -4,-528 907.5,-528 907.5,4 -4,4"/>
<!-- Node1 -->
<g id="node1" class="node">
<title>Node1</title>
<g id="a_node1"><a xlink:title=" ">
<polygon fill="#bfbfbf" stroke="#000000" points="530.5,-504.5 530.5,-523.5 589.5,-523.5 589.5,-504.5 530.5,-504.5"/>
<text text-anchor="middle" x="560" y="-511.5" font-family="Helvetica,sans-Serif" font-size="10.00" fill="#000000">Array.hpp</text>
</a>
</g>
</g>
<!-- Node2 -->
<g id="node2" class="node">
<title>Node2</title>
<g id="a_node2"><a xlink:href="../../d1/d65/Warnings_8hpp.html" target="_top" xlink:title=" ">
<polygon fill="#ffffff" stroke="#000000" points="85.5,-.5 85.5,-19.5 218.5,-19.5 218.5,-.5 85.5,-.5"/>
<text text-anchor="middle" x="152" y="-7.5" font-family="Helvetica,sans-Serif" font-size="10.00" fill="#000000">AH/Settings/Warnings.hpp</text>
</a>
</g>
</g>
<!-- Node1&#45;&gt;Node2 -->
<g id="edge1" class="edge">
<title>Node1&#45;&gt;Node2</title>
<path fill="none" stroke="#191970" d="M530.1009,-512.8834C464.7818,-509.9121 304.7987,-499.734 175,-468 94.2529,-448.2585 0,-485.1254 0,-402 0,-402 0,-402 0,-122 0,-68.8635 60.9479,-38.1127 105.6564,-22.7035"/>
<polygon fill="#191970" stroke="#191970" points="106.8031,-26.0108 115.205,-19.5566 104.612,-19.3626 106.8031,-26.0108"/>
</g>
<!-- Node3 -->
<g id="node3" class="node">
<title>Node3</title>
<g id="a_node3"><a xlink:href="../../d1/d93/Error_8hpp.html" target="_top" xlink:title=" ">
<polygon fill="#ffffff" stroke="#000000" points="184,-448.5 184,-467.5 282,-467.5 282,-448.5 184,-448.5"/>
<text text-anchor="middle" x="233" y="-455.5" font-family="Helvetica,sans-Serif" font-size="10.00" fill="#000000">AH/Error/Error.hpp</text>
</a>
</g>
</g>
<!-- Node1&#45;&gt;Node3 -->
<g id="edge2" class="edge">
<title>Node1&#45;&gt;Node3</title>
<path fill="none" stroke="#191970" d="M530.4042,-508.9316C476.7595,-499.7448 362.5262,-480.1819 292.288,-468.1533"/>
<polygon fill="#191970" stroke="#191970" points="292.704,-464.6737 282.2566,-466.4354 291.5223,-471.5732 292.704,-464.6737"/>
</g>
<!-- Node11 -->
<g id="node11" class="node">
<title>Node11</title>
<g id="a_node11"><a xlink:title=" ">
<polygon fill="#ffffff" stroke="#bfbfbf" points="725.5,-112.5 725.5,-131.5 826.5,-131.5 826.5,-112.5 725.5,-112.5"/>
<text text-anchor="middle" x="776" y="-119.5" font-family="Helvetica,sans-Serif" font-size="10.00" fill="#000000">AH/STL/type_traits</text>
</a>
</g>
</g>
<!-- Node1&#45;&gt;Node11 -->
<g id="edge34" class="edge">
<title>Node1&#45;&gt;Node11</title>
<path fill="none" stroke="#191970" d="M589.5976,-506.2587C651.717,-489.1395 790,-446.0801 790,-402 790,-402 790,-402 790,-234 790,-201.311 784.0554,-163.6669 779.9134,-141.4058"/>
<polygon fill="#191970" stroke="#191970" points="783.3403,-140.692 778.0059,-131.5381 776.4676,-142.0207 783.3403,-140.692"/>
</g>
<!-- Node17 -->
<g id="node17" class="node">
<title>Node17</title>
<g id="a_node17"><a xlink:title=" ">
<polygon fill="#ffffff" stroke="#bfbfbf" points="534,-224.5 534,-243.5 586,-243.5 586,-224.5 534,-224.5"/>
<text text-anchor="middle" x="560" y="-231.5" font-family="Helvetica,sans-Serif" font-size="10.00" fill="#000000">stddef.h</text>
</a>
</g>
</g>
<!-- Node1&#45;&gt;Node17 -->
<g id="edge35" class="edge">
<title>Node1&#45;&gt;Node17</title>
<path fill="none" stroke="#191970" d="M560,-504.4116C560,-485.0538 560,-439.9167 560,-402 560,-402 560,-402 560,-346 560,-313.7116 560,-276.1872 560,-253.8048"/>
<polygon fill="#191970" stroke="#191970" points="563.5001,-253.5883 560,-243.5884 556.5001,-253.5884 563.5001,-253.5883"/>
</g>
<!-- Node21 -->
<g id="node21" class="node">
<title>Node21</title>
<g id="a_node21"><a xlink:title=" ">
<polygon fill="#ffffff" stroke="#bfbfbf" points="818.5,-448.5 818.5,-467.5 903.5,-467.5 903.5,-448.5 818.5,-448.5"/>
<text text-anchor="middle" x="861" y="-455.5" font-family="Helvetica,sans-Serif" font-size="10.00" fill="#000000">AH/STL/iterator</text>
</a>
</g>
</g>
<!-- Node1&#45;&gt;Node21 -->
<g id="edge33" class="edge">
<title>Node1&#45;&gt;Node21</title>
<path fill="none" stroke="#191970" d="M589.6848,-508.4772C640.4736,-499.0282 744.6904,-479.639 808.1486,-467.8328"/>
<polygon fill="#191970" stroke="#191970" points="809.1605,-471.2047 818.3516,-465.9346 807.8801,-464.3228 809.1605,-471.2047"/>
</g>
<!-- Node3&#45;&gt;Node2 -->
<g id="edge3" class="edge">
<title>Node3&#45;&gt;Node2</title>
<path fill="none" stroke="#191970" d="M183.7933,-451.4271C126.0261,-440.626 38,-413.1503 38,-346 38,-346 38,-346 38,-122 38,-75.4628 86.9383,-41.828 120.6864,-24.1659"/>
<polygon fill="#191970" stroke="#191970" points="122.3862,-27.2289 129.749,-19.6105 119.2424,-20.9746 122.3862,-27.2289"/>
</g>
<!-- Node4 -->
<g id="node4" class="node">
<title>Node4</title>
<g id="a_node4"><a xlink:href="../../df/dee/Debug_8hpp.html" target="_top" xlink:title=" ">
<polygon fill="#ffffff" stroke="#000000" points="176.5,-392.5 176.5,-411.5 289.5,-411.5 289.5,-392.5 176.5,-392.5"/>
<text text-anchor="middle" x="233" y="-399.5" font-family="Helvetica,sans-Serif" font-size="10.00" fill="#000000">AH/Debug/Debug.hpp</text>
</a>
</g>
</g>
<!-- Node3&#45;&gt;Node4 -->
<g id="edge4" class="edge">
<title>Node3&#45;&gt;Node4</title>
<path fill="none" stroke="#191970" d="M233,-448.2455C233,-440.9382 233,-430.6944 233,-421.7046"/>
<polygon fill="#191970" stroke="#191970" points="236.5001,-421.6426 233,-411.6427 229.5001,-421.6427 236.5001,-421.6426"/>
</g>
<!-- Node4&#45;&gt;Node2 -->
<g id="edge5" class="edge">
<title>Node4&#45;&gt;Node2</title>
<path fill="none" stroke="#191970" d="M193.7873,-392.4602C147.285,-378.5297 76,-347.756 76,-290 76,-290 76,-290 76,-122 76,-82.2361 109.2071,-46.1042 131.7208,-26.177"/>
<polygon fill="#191970" stroke="#191970" points="134.1079,-28.7412 139.4501,-19.5918 129.5683,-23.4128 134.1079,-28.7412"/>
</g>
<!-- Node5 -->
<g id="node5" class="node">
<title>Node5</title>
<g id="a_node5"><a xlink:href="../../dd/d80/PrintStream_8hpp.html" target="_top" xlink:title=" ">
<polygon fill="#ffffff" stroke="#000000" points="603.5,-224.5 603.5,-243.5 762.5,-243.5 762.5,-224.5 603.5,-224.5"/>
<text text-anchor="middle" x="683" y="-231.5" font-family="Helvetica,sans-Serif" font-size="10.00" fill="#000000">AH/PrintStream/PrintStream.hpp</text>
</a>
</g>
</g>
<!-- Node4&#45;&gt;Node5 -->
<g id="edge6" class="edge">
<title>Node4&#45;&gt;Node5</title>
<path fill="none" stroke="#191970" d="M282.9771,-392.4511C321.0866,-384.5144 374.5766,-371.9539 420,-356 509.5231,-324.557 609.8129,-273.2671 656.4686,-248.41"/>
<polygon fill="#191970" stroke="#191970" points="658.165,-251.4718 665.3266,-243.664 654.8591,-245.3016 658.165,-251.4718"/>
</g>
<!-- Node12 -->
<g id="node12" class="node">
<title>Node12</title>
<g id="a_node12"><a xlink:href="../../d2/dd5/SettingsWrapper_8hpp.html" target="_top" xlink:title=" ">
<polygon fill="#ffffff" stroke="#000000" points="151,-336.5 151,-355.5 315,-355.5 315,-336.5 151,-336.5"/>
<text text-anchor="middle" x="233" y="-343.5" font-family="Helvetica,sans-Serif" font-size="10.00" fill="#000000">AH/Settings/SettingsWrapper.hpp</text>
</a>
</g>
</g>
<!-- Node4&#45;&gt;Node12 -->
<g id="edge17" class="edge">
<title>Node4&#45;&gt;Node12</title>
<path fill="none" stroke="#191970" d="M227.7332,-392.2455C226.3221,-384.9382 225.9179,-374.6944 226.5205,-365.7046"/>
<polygon fill="#191970" stroke="#191970" points="230.0111,-365.9945 227.7549,-355.6427 223.0632,-365.1421 230.0111,-365.9945"/>
</g>
<!-- Node20 -->
<g id="node20" class="node">
<title>Node20</title>
<g id="a_node20"><a xlink:href="../../d7/d52/DebugVal_8hpp.html" target="_top" xlink:title=" ">
<polygon fill="#ffffff" stroke="#000000" points="333,-336.5 333,-355.5 411,-355.5 411,-336.5 333,-336.5"/>
<text text-anchor="middle" x="372" y="-343.5" font-family="Helvetica,sans-Serif" font-size="10.00" fill="#000000">DebugVal.hpp</text>
</a>
</g>
</g>
<!-- Node4&#45;&gt;Node20 -->
<g id="edge32" class="edge">
<title>Node4&#45;&gt;Node20</title>
<path fill="none" stroke="#191970" d="M256.895,-392.3733C279.5082,-383.2629 313.6542,-369.5062 338.8873,-359.3404"/>
<polygon fill="#191970" stroke="#191970" points="340.4493,-362.4845 348.4169,-355.5011 337.8334,-355.9917 340.4493,-362.4845"/>
</g>
<!-- Node5&#45;&gt;Node2 -->
<g id="edge7" class="edge">
<title>Node5&#45;&gt;Node2</title>
<path fill="none" stroke="#191970" d="M681.9705,-224.2111C680.1284,-210.5393 675.2408,-185.4457 663,-168 639.1062,-133.9463 624.7864,-131.4249 588,-112 544.3752,-88.9641 528.9184,-94.0355 483,-76 462.6287,-67.9987 458.9797,-62.2343 438,-56 368.7613,-35.4251 287.1908,-23.4576 228.9198,-16.9156"/>
<polygon fill="#191970" stroke="#191970" points="229.0049,-13.4041 218.6834,-15.7953 228.2432,-20.3626 229.0049,-13.4041"/>
</g>
<!-- Node6 -->
<g id="node6" class="node">
<title>Node6</title>
<g id="a_node6"><a xlink:href="../../d6/ddf/Arduino-Wrapper_8h.html" target="_top" xlink:title=" ">
<polygon fill="#ffffff" stroke="#000000" points="539.5,-168.5 539.5,-187.5 654.5,-187.5 654.5,-168.5 539.5,-168.5"/>
<text text-anchor="middle" x="597" y="-175.5" font-family="Helvetica,sans-Serif" font-size="10.00" fill="#000000">AH/Arduino&#45;Wrapper.h</text>
</a>
</g>
</g>
<!-- Node5&#45;&gt;Node6 -->
<g id="edge8" class="edge">
<title>Node5&#45;&gt;Node6</title>
<path fill="none" stroke="#191970" d="M668.0199,-224.2455C654.8249,-215.6534 635.3949,-203.0014 620.1921,-193.1018"/>
<polygon fill="#191970" stroke="#191970" points="622.0983,-190.1665 611.8084,-187.6427 618.2785,-196.0325 622.0983,-190.1665"/>
</g>
<!-- Node7 -->
<g id="node7" class="node">
<title>Node7</title>
<g id="a_node7"><a xlink:href="../../d7/d79/MinMaxFix_8hpp.html" target="_top" xlink:title=" ">
<polygon fill="#ffffff" stroke="#000000" points="454.5,-112.5 454.5,-131.5 579.5,-131.5 579.5,-112.5 454.5,-112.5"/>
<text text-anchor="middle" x="517" y="-119.5" font-family="Helvetica,sans-Serif" font-size="10.00" fill="#000000">AH/Math/MinMaxFix.hpp</text>
</a>
</g>
</g>
<!-- Node6&#45;&gt;Node7 -->
<g id="edge9" class="edge">
<title>Node6&#45;&gt;Node7</title>
<path fill="none" stroke="#191970" d="M583.0651,-168.2455C570.9053,-159.7337 553.0536,-147.2375 538.9715,-137.3801"/>
<polygon fill="#191970" stroke="#191970" points="540.9747,-134.51 530.7752,-131.6427 536.9605,-140.2447 540.9747,-134.51"/>
</g>
<!-- Node9 -->
<g id="node9" class="node">
<title>Node9</title>
<g id="a_node9"><a xlink:title=" ">
<polygon fill="#ffffff" stroke="#bfbfbf" points="594,-.5 594,-19.5 652,-19.5 652,-.5 594,-.5"/>
<text text-anchor="middle" x="623" y="-7.5" font-family="Helvetica,sans-Serif" font-size="10.00" fill="#000000">Arduino.h</text>
</a>
</g>
</g>
<!-- Node6&#45;&gt;Node9 -->
<g id="edge16" class="edge">
<title>Node6&#45;&gt;Node9</title>
<path fill="none" stroke="#191970" d="M605.0817,-168.3959C618.9562,-151.2069 646.7978,-113.4656 657,-76 659.3355,-67.4234 659.7814,-64.4425 657,-56 653.4944,-45.3594 646.4759,-35.164 639.7213,-27.0877"/>
<polygon fill="#191970" stroke="#191970" points="642.214,-24.6247 632.9362,-19.5087 636.9986,-29.2937 642.214,-24.6247"/>
</g>
<!-- Node6&#45;&gt;Node11 -->
<g id="edge15" class="edge">
<title>Node6&#45;&gt;Node11</title>
<path fill="none" stroke="#191970" d="M627.7712,-168.3733C657.665,-159.021 703.2093,-144.7725 735.9217,-134.5385"/>
<polygon fill="#191970" stroke="#191970" points="737.1315,-137.8273 745.6303,-131.5011 735.0414,-131.1466 737.1315,-137.8273"/>
</g>
<!-- Node7&#45;&gt;Node2 -->
<g id="edge10" class="edge">
<title>Node7&#45;&gt;Node2</title>
<path fill="none" stroke="#191970" d="M503.9277,-112.4986C483.3213,-97.9979 441.5505,-70.5039 402,-56 345.891,-35.4238 279.1872,-23.7446 228.7984,-17.3074"/>
<polygon fill="#191970" stroke="#191970" points="228.9788,-13.8032 218.6251,-16.0504 228.1204,-20.7504 228.9788,-13.8032"/>
</g>
<!-- Node8 -->
<g id="node8" class="node">
<title>Node8</title>
<g id="a_node8"><a xlink:href="../../d6/d3b/FixArduinoMacros_8hpp.html" target="_top" xlink:title=" ">
<polygon fill="#ffffff" stroke="#000000" points="492,-56.5 492,-75.5 648,-75.5 648,-56.5 492,-56.5"/>
<text text-anchor="middle" x="570" y="-63.5" font-family="Helvetica,sans-Serif" font-size="10.00" fill="#000000">AH/Math/FixArduinoMacros.hpp</text>
</a>
</g>
</g>
<!-- Node7&#45;&gt;Node8 -->
<g id="edge11" class="edge">
<title>Node7&#45;&gt;Node8</title>
<path fill="none" stroke="#191970" d="M526.2319,-112.2455C533.8317,-104.2155 544.7877,-92.6394 553.8368,-83.0781"/>
<polygon fill="#191970" stroke="#191970" points="556.5421,-85.3115 560.8739,-75.6427 551.458,-80.4998 556.5421,-85.3115"/>
</g>
<!-- Node10 -->
<g id="node10" class="node">
<title>Node10</title>
<g id="a_node10"><a xlink:href="../../dc/dc7/NamespaceSettings_8hpp.html" target="_top" xlink:title=" ">
<polygon fill="#ffffff" stroke="#000000" points="180,-56.5 180,-75.5 360,-75.5 360,-56.5 180,-56.5"/>
<text text-anchor="middle" x="270" y="-63.5" font-family="Helvetica,sans-Serif" font-size="10.00" fill="#000000">AH/Settings/NamespaceSettings.hpp</text>
</a>
</g>
</g>
<!-- Node7&#45;&gt;Node10 -->
<g id="edge14" class="edge">
<title>Node7&#45;&gt;Node10</title>
<path fill="none" stroke="#191970" d="M474.8198,-112.4369C432.5477,-102.8529 367.3938,-88.0812 321.9583,-77.78"/>
<polygon fill="#191970" stroke="#191970" points="322.5326,-74.3215 312.0062,-75.5237 320.9848,-81.1482 322.5326,-74.3215"/>
</g>
<!-- Node8&#45;&gt;Node2 -->
<g id="edge12" class="edge">
<title>Node8&#45;&gt;Node2</title>
<path fill="none" stroke="#191970" d="M498.6182,-56.4369C423.5262,-46.3767 305.7674,-30.6004 228.7238,-20.2788"/>
<polygon fill="#191970" stroke="#191970" points="228.9764,-16.7814 218.6002,-18.9225 228.0469,-23.7195 228.9764,-16.7814"/>
</g>
<!-- Node8&#45;&gt;Node9 -->
<g id="edge13" class="edge">
<title>Node8&#45;&gt;Node9</title>
<path fill="none" stroke="#191970" d="M579.2319,-56.2455C586.8317,-48.2155 597.7877,-36.6394 606.8368,-27.0781"/>
<polygon fill="#191970" stroke="#191970" points="609.5421,-29.3115 613.8739,-19.6427 604.458,-24.4998 609.5421,-29.3115"/>
</g>
<!-- Node12&#45;&gt;Node2 -->
<g id="edge18" class="edge">
<title>Node12&#45;&gt;Node2</title>
<path fill="none" stroke="#191970" d="M209.2046,-336.4085C174.4774,-320.6512 114,-285.777 114,-234 114,-234 114,-234 114,-122 114,-87.6118 130.2634,-50.2832 141.511,-28.5791"/>
<polygon fill="#191970" stroke="#191970" points="144.7317,-29.9804 146.393,-19.5166 138.569,-26.6605 144.7317,-29.9804"/>
</g>
<!-- Node12&#45;&gt;Node4 -->
<g id="edge31" class="edge">
<title>Node12&#45;&gt;Node4</title>
<path fill="none" stroke="#191970" d="M238.2451,-355.6427C239.6665,-362.9199 240.081,-373.155 239.4887,-382.1575"/>
<polygon fill="#191970" stroke="#191970" points="235.9947,-381.8972 238.2668,-392.2455 242.9439,-382.739 235.9947,-381.8972"/>
</g>
<!-- Node12&#45;&gt;Node10 -->
<g id="edge19" class="edge">
<title>Node12&#45;&gt;Node10</title>
<path fill="none" stroke="#191970" d="M218.3148,-336.2577C207.3846,-328.0536 193.3102,-315.2342 187,-300 183.5984,-291.7877 184.5599,-288.5474 187,-280 208.2612,-205.5247 257.7388,-206.4753 279,-132 283.365,-116.7098 280.4447,-98.8046 276.8058,-85.5044"/>
<polygon fill="#191970" stroke="#191970" points="280.0308,-84.0873 273.7243,-75.5738 273.3453,-86.1619 280.0308,-84.0873"/>
</g>
<!-- Node13 -->
<g id="node13" class="node">
<title>Node13</title>
<g id="a_node13"><a xlink:href="../../db/d02/Settings_8hpp.html" target="_top" xlink:title="All user settings and debugging options can be changed here.">
<polygon fill="#ffffff" stroke="#000000" points="385.5,-280.5 385.5,-299.5 456.5,-299.5 456.5,-280.5 385.5,-280.5"/>
<text text-anchor="middle" x="421" y="-287.5" font-family="Helvetica,sans-Serif" font-size="10.00" fill="#000000">Settings.hpp</text>
</a>
</g>
</g>
<!-- Node12&#45;&gt;Node13 -->
<g id="edge20" class="edge">
<title>Node12&#45;&gt;Node13</title>
<path fill="none" stroke="#191970" d="M265.3184,-336.3733C296.8506,-326.9807 344.9621,-312.6496 379.3501,-302.4064"/>
<polygon fill="#191970" stroke="#191970" points="380.5187,-305.7103 389.1034,-299.5011 378.5203,-299.0016 380.5187,-305.7103"/>
</g>
<!-- Node19 -->
<g id="node19" class="node">
<title>Node19</title>
<g id="a_node19"><a xlink:href="../../d9/d98/TeensyUSBTypes_8hpp.html" target="_top" xlink:title=" ">
<polygon fill="#ffffff" stroke="#000000" points="196,-280.5 196,-299.5 364,-299.5 364,-280.5 196,-280.5"/>
<text text-anchor="middle" x="280" y="-287.5" font-family="Helvetica,sans-Serif" font-size="10.00" fill="#000000">AH/Teensy/TeensyUSBTypes.hpp</text>
</a>
</g>
</g>
<!-- Node12&#45;&gt;Node19 -->
<g id="edge30" class="edge">
<title>Node12&#45;&gt;Node19</title>
<path fill="none" stroke="#191970" d="M241.1868,-336.2455C247.8589,-328.2958 257.4479,-316.8706 265.4253,-307.3656"/>
<polygon fill="#191970" stroke="#191970" points="268.1592,-309.5525 271.907,-299.6427 262.7974,-305.0524 268.1592,-309.5525"/>
</g>
<!-- Node14 -->
<g id="node14" class="node">
<title>Node14</title>
<g id="a_node14"><a xlink:href="../../dc/d50/Frequency_8hpp.html" target="_top" xlink:title=" ">
<polygon fill="#ffffff" stroke="#000000" points="142,-112.5 142,-131.5 270,-131.5 270,-112.5 142,-112.5"/>
<text text-anchor="middle" x="206" y="-119.5" font-family="Helvetica,sans-Serif" font-size="10.00" fill="#000000">AH/Types/Frequency.hpp</text>
</a>
</g>
</g>
<!-- Node13&#45;&gt;Node14 -->
<g id="edge21" class="edge">
<title>Node13&#45;&gt;Node14</title>
<path fill="none" stroke="#191970" d="M385.2199,-282.1318C329.4286,-269.7897 227.7544,-246.9722 225,-244 199.2467,-216.2104 199.9979,-168.6378 202.9311,-141.8468"/>
<polygon fill="#191970" stroke="#191970" points="206.4244,-142.125 204.2508,-131.7556 199.4835,-141.2172 206.4244,-142.125"/>
</g>
<!-- Node15 -->
<g id="node15" class="node">
<title>Node15</title>
<g id="a_node15"><a xlink:href="../../d7/d7c/ADCConfig_8hpp.html" target="_top" xlink:title="This file contains the platform&#45;specific ADC resolutions. By default, the library automatically selec...">
<polygon fill="#ffffff" stroke="#000000" points="234,-224.5 234,-243.5 382,-243.5 382,-224.5 234,-224.5"/>
<text text-anchor="middle" x="308" y="-231.5" font-family="Helvetica,sans-Serif" font-size="10.00" fill="#000000">AH/Hardware/ADCConfig.hpp</text>
</a>
</g>
</g>
<!-- Node13&#45;&gt;Node15 -->
<g id="edge24" class="edge">
<title>Node13&#45;&gt;Node15</title>
<path fill="none" stroke="#191970" d="M401.5746,-280.3733C383.5979,-271.4644 356.6559,-258.1127 336.291,-248.0203"/>
<polygon fill="#191970" stroke="#191970" points="337.6861,-244.8055 327.1719,-243.5011 334.5778,-251.0776 337.6861,-244.8055"/>
</g>
<!-- Node16 -->
<g id="node16" class="node">
<title>Node16</title>
<g id="a_node16"><a xlink:title=" ">
<polygon fill="#ffffff" stroke="#bfbfbf" points="400,-224.5 400,-243.5 448,-243.5 448,-224.5 400,-224.5"/>
<text text-anchor="middle" x="424" y="-231.5" font-family="Helvetica,sans-Serif" font-size="10.00" fill="#000000">limits.h</text>
</a>
</g>
</g>
<!-- Node13&#45;&gt;Node16 -->
<g id="edge27" class="edge">
<title>Node13&#45;&gt;Node16</title>
<path fill="none" stroke="#191970" d="M421.5226,-280.2455C421.914,-272.9382 422.4628,-262.6944 422.9444,-253.7046"/>
<polygon fill="#191970" stroke="#191970" points="426.4434,-253.8156 423.4834,-243.6427 419.4534,-253.4411 426.4434,-253.8156"/>
</g>
<!-- Node13&#45;&gt;Node17 -->
<g id="edge28" class="edge">
<title>Node13&#45;&gt;Node17</title>
<path fill="none" stroke="#191970" d="M444.895,-280.3733C467.5082,-271.2629 501.6542,-257.5062 526.8873,-247.3404"/>
<polygon fill="#191970" stroke="#191970" points="528.4493,-250.4845 536.4169,-243.5011 525.8334,-243.9917 528.4493,-250.4845"/>
</g>
<!-- Node18 -->
<g id="node18" class="node">
<title>Node18</title>
<g id="a_node18"><a xlink:title=" ">
<polygon fill="#ffffff" stroke="#bfbfbf" points="466.5,-224.5 466.5,-243.5 515.5,-243.5 515.5,-224.5 466.5,-224.5"/>
<text text-anchor="middle" x="491" y="-231.5" font-family="Helvetica,sans-Serif" font-size="10.00" fill="#000000">stdint.h</text>
</a>
</g>
</g>
<!-- Node13&#45;&gt;Node18 -->
<g id="edge29" class="edge">
<title>Node13&#45;&gt;Node18</title>
<path fill="none" stroke="#191970" d="M433.1931,-280.2455C443.6321,-271.8943 458.8655,-259.7076 471.074,-249.9408"/>
<polygon fill="#191970" stroke="#191970" points="473.3244,-252.6227 478.9467,-243.6427 468.9515,-247.1566 473.3244,-252.6227"/>
</g>
<!-- Node14&#45;&gt;Node2 -->
<g id="edge22" class="edge">
<title>Node14&#45;&gt;Node2</title>
<path fill="none" stroke="#191970" d="M197.0615,-112.4888C189.1919,-103.6516 177.9348,-89.8105 171,-76 163.6428,-61.3484 158.7076,-43.3957 155.7151,-29.9148"/>
<polygon fill="#191970" stroke="#191970" points="159.0818,-28.9084 153.6478,-19.8133 152.2239,-30.312 159.0818,-28.9084"/>
</g>
<!-- Node14&#45;&gt;Node10 -->
<g id="edge23" class="edge">
<title>Node14&#45;&gt;Node10</title>
<path fill="none" stroke="#191970" d="M217.1479,-112.2455C226.5087,-104.0549 240.0858,-92.1749 251.1349,-82.5069"/>
<polygon fill="#191970" stroke="#191970" points="253.7588,-84.8618 258.9798,-75.6427 249.1492,-79.5937 253.7588,-84.8618"/>
</g>
<!-- Node15&#45;&gt;Node2 -->
<g id="edge25" class="edge">
<title>Node15&#45;&gt;Node2</title>
<path fill="none" stroke="#191970" d="M317.0142,-224.3979C342.8155,-195.7498 412.3922,-109.5548 369,-56 351.3975,-34.275 283.9438,-22.3956 228.8571,-16.1824"/>
<polygon fill="#191970" stroke="#191970" points="229.0483,-12.6828 218.7299,-15.0871 228.2956,-19.6422 229.0483,-12.6828"/>
</g>
<!-- Node15&#45;&gt;Node6 -->
<g id="edge26" class="edge">
<title>Node15&#45;&gt;Node6</title>
<path fill="none" stroke="#191970" d="M357.3525,-224.4369C407.3322,-214.7522 484.6498,-199.7703 537.8742,-189.4569"/>
<polygon fill="#191970" stroke="#191970" points="538.6995,-192.8622 547.8511,-187.5237 537.3678,-185.99 538.6995,-192.8622"/>
</g>
</g>
</svg>
