<?xml version="1.0" encoding="UTF-8" standalone="no"?>
<!DOCTYPE svg PUBLIC "-//W3C//DTD SVG 1.1//EN"
 "http://www.w3.org/Graphics/SVG/1.1/DTD/svg11.dtd">
<!-- Generated by graphviz version 2.40.1 (20161225.0304)
 -->
<!-- Title: Settings.hpp Pages: 1 -->
<svg width="604pt" height="308pt"
 viewBox="0.00 0.00 603.74 308.00" xmlns="http://www.w3.org/2000/svg" xmlns:xlink="http://www.w3.org/1999/xlink">
<g id="graph0" class="graph" transform="scale(1 1) rotate(0) translate(4 304)">
<title>Settings.hpp</title>
<polygon fill="#ffffff" stroke="transparent" points="-4,4 -4,-304 599.7421,-304 599.7421,4 -4,4"/>
<!-- Node1 -->
<g id="node1" class="node">
<title>Node1</title>
<g id="a_node1"><a xlink:title="All user settings and debugging options can be changed here.">
<polygon fill="#bfbfbf" stroke="#000000" points="246.5,-280.5 246.5,-299.5 317.5,-299.5 317.5,-280.5 246.5,-280.5"/>
<text text-anchor="middle" x="282" y="-287.5" font-family="Helvetica,sans-Serif" font-size="10.00" fill="#000000">Settings.hpp</text>
</a>
</g>
</g>
<!-- Node2 -->
<g id="node2" class="node">
<title>Node2</title>
<g id="a_node2"><a xlink:href="../../dc/d50/Frequency_8hpp.html" target="_top" xlink:title=" ">
<polygon fill="#ffffff" stroke="#000000" points="0,-112.5 0,-131.5 128,-131.5 128,-112.5 0,-112.5"/>
<text text-anchor="middle" x="64" y="-119.5" font-family="Helvetica,sans-Serif" font-size="10.00" fill="#000000">AH/Types/Frequency.hpp</text>
</a>
</g>
</g>
<!-- Node1&#45;&gt;Node2 -->
<g id="edge1" class="edge">
<title>Node1&#45;&gt;Node2</title>
<path fill="none" stroke="#191970" d="M246.3939,-286.5201C195.2829,-280.7652 104.8524,-267.5011 83,-244 57.2001,-216.2537 57.9691,-168.6646 60.9177,-141.8592"/>
<polygon fill="#191970" stroke="#191970" points="64.4117,-142.1328 62.2437,-131.7622 57.4713,-141.2213 64.4117,-142.1328"/>
</g>
<!-- Node5 -->
<g id="node5" class="node">
<title>Node5</title>
<g id="a_node5"><a xlink:href="../../d7/d7c/ADCConfig_8hpp.html" target="_top" xlink:title="This file contains the platform&#45;specific ADC resolutions. By default, the library automatically selec...">
<polygon fill="#ffffff" stroke="#000000" points="92,-224.5 92,-243.5 240,-243.5 240,-224.5 92,-224.5"/>
<text text-anchor="middle" x="166" y="-231.5" font-family="Helvetica,sans-Serif" font-size="10.00" fill="#000000">AH/Hardware/ADCConfig.hpp</text>
</a>
</g>
</g>
<!-- Node1&#45;&gt;Node5 -->
<g id="edge4" class="edge">
<title>Node1&#45;&gt;Node5</title>
<path fill="none" stroke="#191970" d="M262.0589,-280.3733C243.5214,-271.4241 215.6972,-257.9917 194.7587,-247.8835"/>
<polygon fill="#191970" stroke="#191970" points="196.2081,-244.6967 185.6809,-243.5011 193.1648,-251.0006 196.2081,-244.6967"/>
</g>
<!-- Node11 -->
<g id="node11" class="node">
<title>Node11</title>
<g id="a_node11"><a xlink:title=" ">
<polygon fill="#ffffff" stroke="#bfbfbf" points="258,-224.5 258,-243.5 306,-243.5 306,-224.5 258,-224.5"/>
<text text-anchor="middle" x="282" y="-231.5" font-family="Helvetica,sans-Serif" font-size="10.00" fill="#000000">limits.h</text>
</a>
</g>
</g>
<!-- Node1&#45;&gt;Node11 -->
<g id="edge15" class="edge">
<title>Node1&#45;&gt;Node11</title>
<path fill="none" stroke="#191970" d="M282,-280.2455C282,-272.9382 282,-262.6944 282,-253.7046"/>
<polygon fill="#191970" stroke="#191970" points="285.5001,-253.6426 282,-243.6427 278.5001,-253.6427 285.5001,-253.6426"/>
</g>
<!-- Node12 -->
<g id="node12" class="node">
<title>Node12</title>
<g id="a_node12"><a xlink:title=" ">
<polygon fill="#ffffff" stroke="#bfbfbf" points="324,-224.5 324,-243.5 376,-243.5 376,-224.5 324,-224.5"/>
<text text-anchor="middle" x="350" y="-231.5" font-family="Helvetica,sans-Serif" font-size="10.00" fill="#000000">stddef.h</text>
</a>
</g>
</g>
<!-- Node1&#45;&gt;Node12 -->
<g id="edge16" class="edge">
<title>Node1&#45;&gt;Node12</title>
<path fill="none" stroke="#191970" d="M293.8447,-280.2455C303.888,-271.9746 318.4995,-259.9416 330.3004,-250.2232"/>
<polygon fill="#191970" stroke="#191970" points="332.7967,-252.7015 338.291,-243.6427 328.3467,-247.298 332.7967,-252.7015"/>
</g>
<!-- Node13 -->
<g id="node13" class="node">
<title>Node13</title>
<g id="a_node13"><a xlink:title=" ">
<polygon fill="#ffffff" stroke="#bfbfbf" points="394.5,-224.5 394.5,-243.5 443.5,-243.5 443.5,-224.5 394.5,-224.5"/>
<text text-anchor="middle" x="419" y="-231.5" font-family="Helvetica,sans-Serif" font-size="10.00" fill="#000000">stdint.h</text>
</a>
</g>
</g>
<!-- Node1&#45;&gt;Node13 -->
<g id="edge17" class="edge">
<title>Node1&#45;&gt;Node13</title>
<path fill="none" stroke="#191970" d="M305.5511,-280.3733C327.8391,-271.2629 361.4937,-257.5062 386.3637,-247.3404"/>
<polygon fill="#191970" stroke="#191970" points="387.8239,-250.5247 395.7562,-243.5011 385.1753,-244.0451 387.8239,-250.5247"/>
</g>
<!-- Node3 -->
<g id="node3" class="node">
<title>Node3</title>
<g id="a_node3"><a xlink:href="../../d1/d65/Warnings_8hpp.html" target="_top" xlink:title=" ">
<polygon fill="#ffffff" stroke="#000000" points="256.5,-.5 256.5,-19.5 389.5,-19.5 389.5,-.5 256.5,-.5"/>
<text text-anchor="middle" x="323" y="-7.5" font-family="Helvetica,sans-Serif" font-size="10.00" fill="#000000">AH/Settings/Warnings.hpp</text>
</a>
</g>
</g>
<!-- Node2&#45;&gt;Node3 -->
<g id="edge2" class="edge">
<title>Node2&#45;&gt;Node3</title>
<path fill="none" stroke="#191970" d="M72.5896,-112.3492C85.9827,-97.904 113.2977,-70.7814 142,-56 174.2612,-39.3859 212.9097,-28.5066 246.1942,-21.5232"/>
<polygon fill="#191970" stroke="#191970" points="247.2271,-24.8855 256.3387,-19.479 245.8443,-18.0234 247.2271,-24.8855"/>
</g>
<!-- Node4 -->
<g id="node4" class="node">
<title>Node4</title>
<g id="a_node4"><a xlink:href="../../dc/dc7/NamespaceSettings_8hpp.html" target="_top" xlink:title=" ">
<polygon fill="#ffffff" stroke="#000000" points="184,-56.5 184,-75.5 364,-75.5 364,-56.5 184,-56.5"/>
<text text-anchor="middle" x="274" y="-63.5" font-family="Helvetica,sans-Serif" font-size="10.00" fill="#000000">AH/Settings/NamespaceSettings.hpp</text>
</a>
</g>
</g>
<!-- Node2&#45;&gt;Node4 -->
<g id="edge3" class="edge">
<title>Node2&#45;&gt;Node4</title>
<path fill="none" stroke="#191970" d="M100.1003,-112.3733C135.6248,-102.9001 189.988,-88.4032 228.4619,-78.1435"/>
<polygon fill="#191970" stroke="#191970" points="229.6103,-81.4596 238.3708,-75.5011 227.8066,-74.696 229.6103,-81.4596"/>
</g>
<!-- Node5&#45;&gt;Node3 -->
<g id="edge5" class="edge">
<title>Node5&#45;&gt;Node3</title>
<path fill="none" stroke="#191970" d="M163.026,-224.2146C154.8135,-195.0547 134.9715,-107.5777 175,-56 186.0454,-41.7677 226.0311,-29.8383 261.6583,-21.6969"/>
<polygon fill="#191970" stroke="#191970" points="262.5576,-25.0826 271.5637,-19.5023 261.0434,-18.2483 262.5576,-25.0826"/>
</g>
<!-- Node6 -->
<g id="node6" class="node">
<title>Node6</title>
<g id="a_node6"><a xlink:href="../../d6/ddf/Arduino-Wrapper_8h.html" target="_top" xlink:title=" ">
<polygon fill="#ffffff" stroke="#000000" points="399.5,-168.5 399.5,-187.5 514.5,-187.5 514.5,-168.5 399.5,-168.5"/>
<text text-anchor="middle" x="457" y="-175.5" font-family="Helvetica,sans-Serif" font-size="10.00" fill="#000000">AH/Arduino&#45;Wrapper.h</text>
</a>
</g>
</g>
<!-- Node5&#45;&gt;Node6 -->
<g id="edge6" class="edge">
<title>Node5&#45;&gt;Node6</title>
<path fill="none" stroke="#191970" d="M215.694,-224.4369C266.0196,-214.7522 343.8723,-199.7703 397.4651,-189.4569"/>
<polygon fill="#191970" stroke="#191970" points="398.3525,-192.8504 407.5109,-187.5237 397.0297,-185.9765 398.3525,-192.8504"/>
</g>
<!-- Node7 -->
<g id="node7" class="node">
<title>Node7</title>
<g id="a_node7"><a xlink:href="../../d7/d79/MinMaxFix_8hpp.html" target="_top" xlink:title=" ">
<polygon fill="#ffffff" stroke="#000000" points="329.5,-112.5 329.5,-131.5 454.5,-131.5 454.5,-112.5 329.5,-112.5"/>
<text text-anchor="middle" x="392" y="-119.5" font-family="Helvetica,sans-Serif" font-size="10.00" fill="#000000">AH/Math/MinMaxFix.hpp</text>
</a>
</g>
</g>
<!-- Node6&#45;&gt;Node7 -->
<g id="edge7" class="edge">
<title>Node6&#45;&gt;Node7</title>
<path fill="none" stroke="#191970" d="M445.6779,-168.2455C436.0777,-159.9746 422.1108,-147.9416 410.8305,-138.2232"/>
<polygon fill="#191970" stroke="#191970" points="413.053,-135.5182 403.1924,-131.6427 408.484,-140.8214 413.053,-135.5182"/>
</g>
<!-- Node9 -->
<g id="node9" class="node">
<title>Node9</title>
<g id="a_node9"><a xlink:title=" ">
<polygon fill="#ffffff" stroke="#bfbfbf" points="522,-.5 522,-19.5 580,-19.5 580,-.5 522,-.5"/>
<text text-anchor="middle" x="551" y="-7.5" font-family="Helvetica,sans-Serif" font-size="10.00" fill="#000000">Arduino.h</text>
</a>
</g>
</g>
<!-- Node6&#45;&gt;Node9 -->
<g id="edge14" class="edge">
<title>Node6&#45;&gt;Node9</title>
<path fill="none" stroke="#191970" d="M497.339,-168.4826C530.1289,-159.8511 572.5986,-146.3192 583,-132 602.8584,-104.6619 595.573,-88.0927 585,-56 581.4944,-45.3594 574.4759,-35.164 567.7213,-27.0877"/>
<polygon fill="#191970" stroke="#191970" points="570.214,-24.6247 560.9362,-19.5087 564.9986,-29.2937 570.214,-24.6247"/>
</g>
<!-- Node10 -->
<g id="node10" class="node">
<title>Node10</title>
<g id="a_node10"><a xlink:title=" ">
<polygon fill="#ffffff" stroke="#bfbfbf" points="472.5,-112.5 472.5,-131.5 573.5,-131.5 573.5,-112.5 472.5,-112.5"/>
<text text-anchor="middle" x="523" y="-119.5" font-family="Helvetica,sans-Serif" font-size="10.00" fill="#000000">AH/STL/type_traits</text>
</a>
</g>
</g>
<!-- Node6&#45;&gt;Node10 -->
<g id="edge13" class="edge">
<title>Node6&#45;&gt;Node10</title>
<path fill="none" stroke="#191970" d="M468.4963,-168.2455C478.2442,-159.9746 492.4259,-147.9416 503.8798,-138.2232"/>
<polygon fill="#191970" stroke="#191970" points="506.2747,-140.7813 511.6354,-131.6427 501.7459,-135.4437 506.2747,-140.7813"/>
</g>
<!-- Node7&#45;&gt;Node3 -->
<g id="edge8" class="edge">
<title>Node7&#45;&gt;Node3</title>
<path fill="none" stroke="#191970" d="M390.8914,-112.3804C388.9863,-98.9095 384.1599,-74.0533 373,-56 365.9005,-44.5152 355.1531,-34.104 345.4396,-26.1025"/>
<polygon fill="#191970" stroke="#191970" points="347.32,-23.1298 337.2872,-19.7248 343.0068,-28.6432 347.32,-23.1298"/>
</g>
<!-- Node7&#45;&gt;Node4 -->
<g id="edge12" class="edge">
<title>Node7&#45;&gt;Node4</title>
<path fill="none" stroke="#191970" d="M371.7151,-112.3733C352.8579,-103.4241 324.554,-89.9917 303.2545,-79.8835"/>
<polygon fill="#191970" stroke="#191970" points="304.5551,-76.6266 294.0202,-75.5011 301.5539,-82.9506 304.5551,-76.6266"/>
</g>
<!-- Node8 -->
<g id="node8" class="node">
<title>Node8</title>
<g id="a_node8"><a xlink:href="../../d6/d3b/FixArduinoMacros_8hpp.html" target="_top" xlink:title=" ">
<polygon fill="#ffffff" stroke="#000000" points="420,-56.5 420,-75.5 576,-75.5 576,-56.5 420,-56.5"/>
<text text-anchor="middle" x="498" y="-63.5" font-family="Helvetica,sans-Serif" font-size="10.00" fill="#000000">AH/Math/FixArduinoMacros.hpp</text>
</a>
</g>
</g>
<!-- Node7&#45;&gt;Node8 -->
<g id="edge9" class="edge">
<title>Node7&#45;&gt;Node8</title>
<path fill="none" stroke="#191970" d="M410.4638,-112.2455C427.1074,-103.4527 451.7993,-90.4079 470.7192,-80.4125"/>
<polygon fill="#191970" stroke="#191970" points="472.5408,-83.4086 479.7478,-75.6427 469.2709,-77.2193 472.5408,-83.4086"/>
</g>
<!-- Node8&#45;&gt;Node3 -->
<g id="edge10" class="edge">
<title>Node8&#45;&gt;Node3</title>
<path fill="none" stroke="#191970" d="M467.9164,-56.3733C438.8166,-47.0613 394.5477,-32.8953 362.597,-22.671"/>
<polygon fill="#191970" stroke="#191970" points="363.282,-19.2155 352.691,-19.5011 361.1485,-25.8824 363.282,-19.2155"/>
</g>
<!-- Node8&#45;&gt;Node9 -->
<g id="edge11" class="edge">
<title>Node8&#45;&gt;Node9</title>
<path fill="none" stroke="#191970" d="M507.2319,-56.2455C514.8317,-48.2155 525.7877,-36.6394 534.8368,-27.0781"/>
<polygon fill="#191970" stroke="#191970" points="537.5421,-29.3115 541.8739,-19.6427 532.458,-24.4998 537.5421,-29.3115"/>
</g>
</g>
</svg>
