<?xml version="1.0" encoding="UTF-8" standalone="no"?>
<!DOCTYPE svg PUBLIC "-//W3C//DTD SVG 1.1//EN"
 "http://www.w3.org/Graphics/SVG/1.1/DTD/svg11.dtd">
<!-- Generated by graphviz version 2.43.0 (0)
 -->
<!-- Title: MAX7219.hpp Pages: 1 -->
<svg width="1866pt" height="901pt"
 viewBox="0.00 0.00 1866.00 901.00" xmlns="http://www.w3.org/2000/svg" xmlns:xlink="http://www.w3.org/1999/xlink">
<g id="graph0" class="graph" transform="scale(1 1) rotate(0) translate(4 897)">
<title>MAX7219.hpp</title>
<polygon fill="white" stroke="transparent" points="-4,4 -4,-897 1862,-897 1862,4 -4,4"/>
<!-- Node1 -->
<g id="node1" class="node">
<title>Node1</title>
<g id="a_node1"><a xlink:title=" ">
<polygon fill="#bfbfbf" stroke="black" points="1475,-873.5 1475,-892.5 1559,-892.5 1559,-873.5 1475,-873.5"/>
<text text-anchor="middle" x="1517" y="-880.5" font-family="Helvetica,sans-Serif" font-size="10.00">MAX7219.hpp</text>
</a>
</g>
</g>
<!-- Node2 -->
<g id="node2" class="node">
<title>Node2</title>
<g id="a_node2"><a xlink:href="../../d1/d65/Warnings_8hpp.html" target="_top" xlink:title=" ">
<polygon fill="white" stroke="black" points="1176.5,-0.5 1176.5,-19.5 1319.5,-19.5 1319.5,-0.5 1176.5,-0.5"/>
<text text-anchor="middle" x="1248" y="-7.5" font-family="Helvetica,sans-Serif" font-size="10.00">AH/Settings/Warnings.hpp</text>
</a>
</g>
</g>
<!-- Node1&#45;&gt;Node2 -->
<g id="edge1" class="edge">
<title>Node1&#45;&gt;Node2</title>
<path fill="none" stroke="midnightblue" d="M1559.16,-876.76C1650.39,-864.25 1858,-828.93 1858,-766.5 1858,-766.5 1858,-766.5 1858,-121 1858,-77.56 1824.92,-73.14 1785,-56 1705.38,-21.82 1459.83,-13.54 1330.16,-11.58"/>
<polygon fill="midnightblue" stroke="midnightblue" points="1329.94,-8.07 1319.89,-11.43 1329.84,-15.07 1329.94,-8.07"/>
</g>
<!-- Node3 -->
<g id="node3" class="node">
<title>Node3</title>
<g id="a_node3"><a xlink:href="../../d2/d05/StaticSizeExtendedIOElement_8hpp.html" target="_top" xlink:title=" ">
<polygon fill="white" stroke="black" points="1147,-817.5 1147,-836.5 1329,-836.5 1329,-817.5 1147,-817.5"/>
<text text-anchor="middle" x="1238" y="-824.5" font-family="Helvetica,sans-Serif" font-size="10.00">StaticSizeExtendedIOElement.hpp</text>
</a>
</g>
</g>
<!-- Node1&#45;&gt;Node3 -->
<g id="edge2" class="edge">
<title>Node1&#45;&gt;Node3</title>
<path fill="none" stroke="midnightblue" d="M1474.93,-873.86C1426.16,-864.42 1345.67,-848.84 1292.24,-838.5"/>
<polygon fill="midnightblue" stroke="midnightblue" points="1292.74,-835.03 1282.26,-836.57 1291.41,-841.9 1292.74,-835.03"/>
</g>
<!-- Node38 -->
<g id="node38" class="node">
<title>Node38</title>
<g id="a_node38"><a xlink:href="../../d1/d40/BitArray_8hpp.html" target="_top" xlink:title=" ">
<polygon fill="white" stroke="black" points="1223.5,-504.5 1223.5,-523.5 1372.5,-523.5 1372.5,-504.5 1223.5,-504.5"/>
<text text-anchor="middle" x="1298" y="-511.5" font-family="Helvetica,sans-Serif" font-size="10.00">AH/Containers/BitArray.hpp</text>
</a>
</g>
</g>
<!-- Node1&#45;&gt;Node38 -->
<g id="edge78" class="edge">
<title>Node1&#45;&gt;Node38</title>
<path fill="none" stroke="midnightblue" d="M1511.8,-873.29C1483.46,-825.8 1347.42,-597.82 1308.45,-532.52"/>
<polygon fill="midnightblue" stroke="midnightblue" points="1311.38,-530.59 1303.25,-523.79 1305.36,-534.17 1311.38,-530.59"/>
</g>
<!-- Node39 -->
<g id="node39" class="node">
<title>Node39</title>
<g id="a_node39"><a xlink:href="../../d7/d13/MAX7219__Base_8hpp.html" target="_top" xlink:title=" ">
<polygon fill="white" stroke="black" points="1578,-750.5 1578,-780.5 1736,-780.5 1736,-750.5 1578,-750.5"/>
<text text-anchor="start" x="1586" y="-768.5" font-family="Helvetica,sans-Serif" font-size="10.00">AH/Hardware/LEDs/MAX7219</text>
<text text-anchor="middle" x="1657" y="-757.5" font-family="Helvetica,sans-Serif" font-size="10.00">_Base.hpp</text>
</a>
</g>
</g>
<!-- Node1&#45;&gt;Node39 -->
<g id="edge83" class="edge">
<title>Node1&#45;&gt;Node39</title>
<path fill="none" stroke="midnightblue" d="M1527.52,-873.32C1549.59,-855.11 1601.21,-812.52 1632.2,-786.96"/>
<polygon fill="midnightblue" stroke="midnightblue" points="1634.49,-789.61 1639.98,-780.55 1630.03,-784.21 1634.49,-789.61"/>
</g>
<!-- Node3&#45;&gt;Node2 -->
<g id="edge3" class="edge">
<title>Node3&#45;&gt;Node2</title>
<path fill="none" stroke="midnightblue" d="M1247.11,-817.34C1286.24,-779.2 1438,-620.81 1438,-459 1438,-459 1438,-459 1438,-345 1438,-269.31 1400,-254.69 1400,-179 1400,-179 1400,-179 1400,-121 1400,-67.44 1337.29,-37.3 1292.43,-22.59"/>
<polygon fill="midnightblue" stroke="midnightblue" points="1293.46,-19.25 1282.87,-19.6 1291.37,-25.93 1293.46,-19.25"/>
</g>
<!-- Node4 -->
<g id="node4" class="node">
<title>Node4</title>
<g id="a_node4"><a xlink:href="../../d4/d57/ExtendedIOElement_8hpp.html" target="_top" xlink:title=" ">
<polygon fill="white" stroke="black" points="1129,-756 1129,-775 1263,-775 1263,-756 1129,-756"/>
<text text-anchor="middle" x="1196" y="-763" font-family="Helvetica,sans-Serif" font-size="10.00">ExtendedIOElement.hpp</text>
</a>
</g>
</g>
<!-- Node3&#45;&gt;Node4 -->
<g id="edge4" class="edge">
<title>Node3&#45;&gt;Node4</title>
<path fill="none" stroke="midnightblue" d="M1231.98,-817.48C1225.74,-808.64 1215.83,-794.59 1207.98,-783.48"/>
<polygon fill="midnightblue" stroke="midnightblue" points="1210.63,-781.16 1202.01,-775.01 1204.91,-785.2 1210.63,-781.16"/>
</g>
<!-- Node36 -->
<g id="node36" class="node">
<title>Node36</title>
<g id="a_node36"><a xlink:href="../../d5/db6/ArrayHelpers_8hpp.html" target="_top" xlink:title=" ">
<polygon fill="white" stroke="black" points="0,-566 0,-585 174,-585 174,-566 0,-566"/>
<text text-anchor="middle" x="87" y="-573" font-family="Helvetica,sans-Serif" font-size="10.00">AH/Containers/ArrayHelpers.hpp</text>
</a>
</g>
</g>
<!-- Node3&#45;&gt;Node36 -->
<g id="edge73" class="edge">
<title>Node3&#45;&gt;Node36</title>
<path fill="none" stroke="midnightblue" d="M1146.94,-825.56C922.72,-823.04 350.41,-807.37 188,-714 139.76,-686.27 107.93,-625.2 94.41,-594.65"/>
<polygon fill="midnightblue" stroke="midnightblue" points="97.53,-593.05 90.39,-585.22 91.09,-595.79 97.53,-593.05"/>
</g>
<!-- Node4&#45;&gt;Node2 -->
<g id="edge5" class="edge">
<title>Node4&#45;&gt;Node2</title>
<path fill="none" stroke="midnightblue" d="M1128.82,-758.9C902.79,-738.24 184,-656.98 184,-459 184,-459 184,-459 184,-121 184,-74.84 221.82,-72.3 265,-56 348.09,-24.63 944.81,-14.53 1165.89,-11.85"/>
<polygon fill="midnightblue" stroke="midnightblue" points="1166.17,-15.34 1176.13,-11.72 1166.09,-8.34 1166.17,-15.34"/>
</g>
<!-- Node5 -->
<g id="node5" class="node">
<title>Node5</title>
<g id="a_node5"><a xlink:href="../../dd/ddf/ExtendedInputOutput_8hpp.html" target="_top" xlink:title=" ">
<polygon fill="white" stroke="black" points="1541.5,-694.5 1541.5,-713.5 1682.5,-713.5 1682.5,-694.5 1541.5,-694.5"/>
<text text-anchor="middle" x="1612" y="-701.5" font-family="Helvetica,sans-Serif" font-size="10.00">ExtendedInputOutput.hpp</text>
</a>
</g>
</g>
<!-- Node4&#45;&gt;Node5 -->
<g id="edge6" class="edge">
<title>Node4&#45;&gt;Node5</title>
<path fill="none" stroke="midnightblue" d="M1255.6,-755.98C1331.44,-745.13 1462.2,-726.43 1542.49,-714.94"/>
<polygon fill="midnightblue" stroke="midnightblue" points="1543.1,-718.39 1552.51,-713.51 1542.11,-711.46 1543.1,-718.39"/>
</g>
<!-- Node7 -->
<g id="node7" class="node">
<title>Node7</title>
<g id="a_node7"><a xlink:href="../../d4/d35/Hardware-Types_8hpp.html" target="_top" xlink:title=" ">
<polygon fill="white" stroke="black" points="1130.5,-560.5 1130.5,-590.5 1261.5,-590.5 1261.5,-560.5 1130.5,-560.5"/>
<text text-anchor="start" x="1138.5" y="-578.5" font-family="Helvetica,sans-Serif" font-size="10.00">AH/Hardware/Hardware</text>
<text text-anchor="middle" x="1196" y="-567.5" font-family="Helvetica,sans-Serif" font-size="10.00">&#45;Types.hpp</text>
</a>
</g>
</g>
<!-- Node4&#45;&gt;Node7 -->
<g id="edge72" class="edge">
<title>Node4&#45;&gt;Node7</title>
<path fill="none" stroke="midnightblue" d="M1196,-755.93C1196,-728.64 1196,-643.05 1196,-600.71"/>
<polygon fill="midnightblue" stroke="midnightblue" points="1199.5,-600.7 1196,-590.7 1192.5,-600.7 1199.5,-600.7"/>
</g>
<!-- Node31 -->
<g id="node31" class="node">
<title>Node31</title>
<g id="a_node31"><a xlink:href="../../d4/d93/Updatable_8hpp.html" target="_top" xlink:title=" ">
<polygon fill="white" stroke="black" points="779.5,-504.5 779.5,-523.5 940.5,-523.5 940.5,-504.5 779.5,-504.5"/>
<text text-anchor="middle" x="860" y="-511.5" font-family="Helvetica,sans-Serif" font-size="10.00">AH/Containers/Updatable.hpp</text>
</a>
</g>
</g>
<!-- Node4&#45;&gt;Node31 -->
<g id="edge58" class="edge">
<title>Node4&#45;&gt;Node31</title>
<path fill="none" stroke="midnightblue" d="M1184.43,-755.91C1135.16,-719.32 942.42,-576.2 879.78,-529.69"/>
<polygon fill="midnightblue" stroke="midnightblue" points="881.63,-526.7 871.52,-523.55 877.46,-532.32 881.63,-526.7"/>
</g>
<!-- Node5&#45;&gt;Node2 -->
<g id="edge57" class="edge">
<title>Node5&#45;&gt;Node2</title>
<path fill="none" stroke="midnightblue" d="M1681.3,-694.42C1703.39,-688.04 1725.57,-677.01 1739,-658 1746.95,-646.75 1744.61,-639.58 1739,-627 1693.5,-524.96 1552,-570.73 1552,-459 1552,-459 1552,-459 1552,-345 1552,-275.88 1491,-99.14 1437,-56 1406.89,-31.95 1366.01,-20.4 1329.97,-14.99"/>
<polygon fill="midnightblue" stroke="midnightblue" points="1330.33,-11.5 1319.94,-13.62 1329.38,-18.44 1330.33,-11.5"/>
</g>
<!-- Node6 -->
<g id="node6" class="node">
<title>Node6</title>
<g id="a_node6"><a xlink:href="../../d2/d3c/Arduino-Hardware-Types_8hpp.html" target="_top" xlink:title=" ">
<polygon fill="white" stroke="black" points="1502,-627.5 1502,-657.5 1624,-657.5 1624,-627.5 1502,-627.5"/>
<text text-anchor="start" x="1510" y="-645.5" font-family="Helvetica,sans-Serif" font-size="10.00">AH/Hardware/Arduino</text>
<text text-anchor="middle" x="1563" y="-634.5" font-family="Helvetica,sans-Serif" font-size="10.00">&#45;Hardware&#45;Types.hpp</text>
</a>
</g>
</g>
<!-- Node5&#45;&gt;Node6 -->
<g id="edge7" class="edge">
<title>Node5&#45;&gt;Node6</title>
<path fill="none" stroke="midnightblue" d="M1604.98,-694.48C1598.72,-686.87 1589.27,-675.4 1580.92,-665.26"/>
<polygon fill="midnightblue" stroke="midnightblue" points="1583.61,-663.02 1574.55,-657.52 1578.2,-667.47 1583.61,-663.02"/>
</g>
<!-- Node12 -->
<g id="node12" class="node">
<title>Node12</title>
<g id="a_node12"><a xlink:href="../../dc/dc7/NamespaceSettings_8hpp.html" target="_top" xlink:title=" ">
<polygon fill="white" stroke="black" points="1011.5,-56.5 1011.5,-75.5 1206.5,-75.5 1206.5,-56.5 1011.5,-56.5"/>
<text text-anchor="middle" x="1109" y="-63.5" font-family="Helvetica,sans-Serif" font-size="10.00">AH/Settings/NamespaceSettings.hpp</text>
</a>
</g>
</g>
<!-- Node5&#45;&gt;Node12 -->
<g id="edge56" class="edge">
<title>Node5&#45;&gt;Node12</title>
<path fill="none" stroke="midnightblue" d="M1554.64,-694.46C1532.05,-688.14 1507.97,-677.14 1493,-658 1453.57,-607.59 1476,-579 1476,-515 1476,-515 1476,-515 1476,-345 1476,-185.39 1252.71,-105.63 1154.47,-78.27"/>
<polygon fill="midnightblue" stroke="midnightblue" points="1155.09,-74.81 1144.52,-75.56 1153.25,-81.57 1155.09,-74.81"/>
</g>
<!-- Node30 -->
<g id="node30" class="node">
<title>Node30</title>
<g id="a_node30"><a xlink:title=" ">
<polygon fill="white" stroke="#bfbfbf" points="1642.5,-633 1642.5,-652 1729.5,-652 1729.5,-633 1642.5,-633"/>
<text text-anchor="middle" x="1686" y="-640" font-family="Helvetica,sans-Serif" font-size="10.00">AH/STL/climits</text>
</a>
</g>
</g>
<!-- Node5&#45;&gt;Node30 -->
<g id="edge55" class="edge">
<title>Node5&#45;&gt;Node30</title>
<path fill="none" stroke="midnightblue" d="M1622.6,-694.48C1634.25,-685.11 1653.19,-669.88 1667.33,-658.51"/>
<polygon fill="midnightblue" stroke="midnightblue" points="1669.82,-661 1675.42,-652.01 1665.43,-655.55 1669.82,-661"/>
</g>
<!-- Node6&#45;&gt;Node2 -->
<g id="edge8" class="edge">
<title>Node6&#45;&gt;Node2</title>
<path fill="none" stroke="midnightblue" d="M1553.55,-627.39C1539.31,-604.73 1514,-558.34 1514,-515 1514,-515 1514,-515 1514,-345 1514,-277.04 1463.67,-102.38 1414,-56 1391.16,-34.67 1359.24,-23.26 1329.5,-17.22"/>
<polygon fill="midnightblue" stroke="midnightblue" points="1329.98,-13.75 1319.51,-15.37 1328.7,-20.63 1329.98,-13.75"/>
</g>
<!-- Node6&#45;&gt;Node7 -->
<g id="edge9" class="edge">
<title>Node6&#45;&gt;Node7</title>
<path fill="none" stroke="midnightblue" d="M1501.99,-630.69C1438.88,-619.52 1340.21,-602.04 1272.06,-589.97"/>
<polygon fill="midnightblue" stroke="midnightblue" points="1272.27,-586.45 1261.81,-588.16 1271.05,-593.35 1272.27,-586.45"/>
</g>
<!-- Node13 -->
<g id="node13" class="node">
<title>Node13</title>
<g id="a_node13"><a xlink:href="../../d6/ddf/Arduino-Wrapper_8h.html" target="_top" xlink:title=" ">
<polygon fill="white" stroke="black" points="469,-168.5 469,-187.5 593,-187.5 593,-168.5 469,-168.5"/>
<text text-anchor="middle" x="531" y="-175.5" font-family="Helvetica,sans-Serif" font-size="10.00">AH/Arduino&#45;Wrapper.h</text>
</a>
</g>
</g>
<!-- Node6&#45;&gt;Node13 -->
<g id="edge54" class="edge">
<title>Node6&#45;&gt;Node13</title>
<path fill="none" stroke="midnightblue" d="M1501.85,-637.54C1264.05,-621.55 410.18,-558.16 333,-468 327.22,-461.25 330.15,-456.42 333,-448 369.6,-339.89 423.31,-337.34 489,-244 500.2,-228.09 512.17,-209.37 520.46,-196.12"/>
<polygon fill="midnightblue" stroke="midnightblue" points="523.47,-197.9 525.77,-187.56 517.53,-194.21 523.47,-197.9"/>
</g>
<!-- Node27 -->
<g id="node27" class="node">
<title>Node27</title>
<g id="a_node27"><a xlink:href="../../d0/db1/FunctionTraits_8hpp.html" target="_top" xlink:title=" ">
<polygon fill="white" stroke="black" points="1510.5,-112.5 1510.5,-131.5 1663.5,-131.5 1663.5,-112.5 1510.5,-112.5"/>
<text text-anchor="middle" x="1587" y="-119.5" font-family="Helvetica,sans-Serif" font-size="10.00">AH/Types/FunctionTraits.hpp</text>
</a>
</g>
</g>
<!-- Node6&#45;&gt;Node27 -->
<g id="edge49" class="edge">
<title>Node6&#45;&gt;Node27</title>
<path fill="none" stroke="midnightblue" d="M1568.08,-627.29C1575.9,-604.11 1590,-556.54 1590,-515 1590,-515 1590,-515 1590,-233 1590,-200.94 1588.71,-163.63 1587.82,-141.74"/>
<polygon fill="midnightblue" stroke="midnightblue" points="1591.31,-141.4 1587.39,-131.56 1584.32,-141.69 1591.31,-141.4"/>
</g>
<!-- Node7&#45;&gt;Node2 -->
<g id="edge10" class="edge">
<title>Node7&#45;&gt;Node2</title>
<path fill="none" stroke="midnightblue" d="M1261.65,-572.16C1301.08,-567.35 1349.53,-554.91 1381,-524 1402.47,-502.91 1400,-489.1 1400,-459 1400,-459 1400,-459 1400,-345 1400,-269.31 1362,-254.69 1362,-179 1362,-179 1362,-179 1362,-121 1362,-74.11 1311.45,-40.89 1277.67,-23.93"/>
<polygon fill="midnightblue" stroke="midnightblue" points="1279.17,-20.77 1268.64,-19.58 1276.13,-27.07 1279.17,-20.77"/>
</g>
<!-- Node8 -->
<g id="node8" class="node">
<title>Node8</title>
<g id="a_node8"><a xlink:href="../../de/d76/Array_8hpp.html" target="_top" xlink:title=" ">
<polygon fill="white" stroke="black" points="986.5,-504.5 986.5,-523.5 1121.5,-523.5 1121.5,-504.5 986.5,-504.5"/>
<text text-anchor="middle" x="1054" y="-511.5" font-family="Helvetica,sans-Serif" font-size="10.00">AH/Containers/Array.hpp</text>
</a>
</g>
</g>
<!-- Node7&#45;&gt;Node8 -->
<g id="edge11" class="edge">
<title>Node7&#45;&gt;Node8</title>
<path fill="none" stroke="midnightblue" d="M1162.35,-560.4C1138.52,-550.42 1106.85,-537.15 1083.91,-527.53"/>
<polygon fill="midnightblue" stroke="midnightblue" points="1085.24,-524.29 1074.66,-523.66 1082.53,-530.75 1085.24,-524.29"/>
</g>
<!-- Node7&#45;&gt;Node12 -->
<g id="edge47" class="edge">
<title>Node7&#45;&gt;Node12</title>
<path fill="none" stroke="midnightblue" d="M1195.44,-560.4C1194.39,-536.97 1191.68,-488.58 1186,-448 1166.29,-307.3 1126.93,-140.35 1113.56,-85.48"/>
<polygon fill="midnightblue" stroke="midnightblue" points="1116.9,-84.4 1111.12,-75.52 1110.1,-86.06 1116.9,-84.4"/>
</g>
<!-- Node24 -->
<g id="node24" class="node">
<title>Node24</title>
<g id="a_node24"><a xlink:title=" ">
<polygon fill="white" stroke="#bfbfbf" points="1238.5,-224.5 1238.5,-243.5 1291.5,-243.5 1291.5,-224.5 1238.5,-224.5"/>
<text text-anchor="middle" x="1265" y="-231.5" font-family="Helvetica,sans-Serif" font-size="10.00">stdint.h</text>
</a>
</g>
</g>
<!-- Node7&#45;&gt;Node24 -->
<g id="edge48" class="edge">
<title>Node7&#45;&gt;Node24</title>
<path fill="none" stroke="midnightblue" d="M1199.28,-560.37C1202.67,-546.08 1208.27,-523.38 1214,-504 1227.42,-458.58 1248,-450.36 1248,-403 1248,-403 1248,-403 1248,-345 1248,-312.58 1255.3,-275.42 1260.33,-253.64"/>
<polygon fill="midnightblue" stroke="midnightblue" points="1263.77,-254.31 1262.71,-243.77 1256.97,-252.67 1263.77,-254.31"/>
</g>
<!-- Node8&#45;&gt;Node2 -->
<g id="edge12" class="edge">
<title>Node8&#45;&gt;Node2</title>
<path fill="none" stroke="midnightblue" d="M1076.29,-504.46C1093.04,-497.05 1115.49,-484.85 1130,-468 1206.36,-379.31 1178.98,-329.8 1229,-224 1248.89,-181.93 1267.54,-177.1 1279,-132 1282.28,-119.08 1285.71,-80.65 1278,-56 1274.75,-45.6 1268.28,-35.38 1262.18,-27.32"/>
<polygon fill="midnightblue" stroke="midnightblue" points="1264.88,-25.09 1255.88,-19.51 1259.44,-29.49 1264.88,-25.09"/>
</g>
<!-- Node9 -->
<g id="node9" class="node">
<title>Node9</title>
<g id="a_node9"><a xlink:href="../../d1/d93/Error_8hpp.html" target="_top" xlink:title=" ">
<polygon fill="white" stroke="black" points="1002,-448.5 1002,-467.5 1106,-467.5 1106,-448.5 1002,-448.5"/>
<text text-anchor="middle" x="1054" y="-455.5" font-family="Helvetica,sans-Serif" font-size="10.00">AH/Error/Error.hpp</text>
</a>
</g>
</g>
<!-- Node8&#45;&gt;Node9 -->
<g id="edge13" class="edge">
<title>Node8&#45;&gt;Node9</title>
<path fill="none" stroke="midnightblue" d="M1054,-504.08C1054,-497.01 1054,-486.86 1054,-477.99"/>
<polygon fill="midnightblue" stroke="midnightblue" points="1057.5,-477.75 1054,-467.75 1050.5,-477.75 1057.5,-477.75"/>
</g>
<!-- Node17 -->
<g id="node17" class="node">
<title>Node17</title>
<g id="a_node17"><a xlink:title=" ">
<polygon fill="white" stroke="#bfbfbf" points="998.5,-112.5 998.5,-131.5 1105.5,-131.5 1105.5,-112.5 998.5,-112.5"/>
<text text-anchor="middle" x="1052" y="-119.5" font-family="Helvetica,sans-Serif" font-size="10.00">AH/STL/type_traits</text>
</a>
</g>
</g>
<!-- Node8&#45;&gt;Node17 -->
<g id="edge45" class="edge">
<title>Node8&#45;&gt;Node17</title>
<path fill="none" stroke="midnightblue" d="M1073.91,-504.41C1088.22,-497.04 1106.46,-484.92 1115,-468 1119.01,-460.07 1115.85,-456.85 1115,-448 1103.66,-329.91 1069.65,-190.95 1056.9,-141.56"/>
<polygon fill="midnightblue" stroke="midnightblue" points="1060.24,-140.49 1054.33,-131.7 1053.46,-142.26 1060.24,-140.49"/>
</g>
<!-- Node23 -->
<g id="node23" class="node">
<title>Node23</title>
<g id="a_node23"><a xlink:title=" ">
<polygon fill="white" stroke="#bfbfbf" points="537,-224.5 537,-243.5 593,-243.5 593,-224.5 537,-224.5"/>
<text text-anchor="middle" x="565" y="-231.5" font-family="Helvetica,sans-Serif" font-size="10.00">stddef.h</text>
</a>
</g>
</g>
<!-- Node8&#45;&gt;Node23 -->
<g id="edge46" class="edge">
<title>Node8&#45;&gt;Node23</title>
<path fill="none" stroke="midnightblue" d="M1029.17,-504.43C991.08,-491.43 915.82,-466.29 851,-448 786.26,-429.73 762.31,-445.53 704,-412 644.05,-377.53 635.39,-356.83 596,-300 585.88,-285.41 577.45,-267 571.95,-253.5"/>
<polygon fill="midnightblue" stroke="midnightblue" points="575.09,-251.93 568.18,-243.89 568.57,-254.48 575.09,-251.93"/>
</g>
<!-- Node26 -->
<g id="node26" class="node">
<title>Node26</title>
<g id="a_node26"><a xlink:title=" ">
<polygon fill="white" stroke="#bfbfbf" points="567,-392.5 567,-411.5 657,-411.5 657,-392.5 567,-392.5"/>
<text text-anchor="middle" x="612" y="-399.5" font-family="Helvetica,sans-Serif" font-size="10.00">AH/STL/iterator</text>
</a>
</g>
</g>
<!-- Node8&#45;&gt;Node26 -->
<g id="edge44" class="edge">
<title>Node8&#45;&gt;Node26</title>
<path fill="none" stroke="midnightblue" d="M1020.89,-504.47C972.13,-491.93 878.11,-467.86 798,-448 750.25,-436.16 695.51,-422.96 657.84,-413.94"/>
<polygon fill="midnightblue" stroke="midnightblue" points="658.23,-410.43 647.69,-411.51 656.6,-417.24 658.23,-410.43"/>
</g>
<!-- Node9&#45;&gt;Node2 -->
<g id="edge14" class="edge">
<title>Node9&#45;&gt;Node2</title>
<path fill="none" stroke="midnightblue" d="M1058.82,-448.31C1076.18,-417.19 1137.6,-308.6 1196,-224 1207.52,-207.32 1212.08,-204.39 1224,-188 1241.69,-163.67 1253.17,-160.75 1262,-132 1271.92,-99.71 1267.07,-89.39 1262,-56 1260.63,-47 1257.81,-37.33 1255.05,-29.26"/>
<polygon fill="midnightblue" stroke="midnightblue" points="1258.31,-27.98 1251.6,-19.78 1251.73,-30.37 1258.31,-27.98"/>
</g>
<!-- Node10 -->
<g id="node10" class="node">
<title>Node10</title>
<g id="a_node10"><a xlink:href="../../df/dee/Debug_8hpp.html" target="_top" xlink:title=" ">
<polygon fill="white" stroke="black" points="713.5,-392.5 713.5,-411.5 834.5,-411.5 834.5,-392.5 713.5,-392.5"/>
<text text-anchor="middle" x="774" y="-399.5" font-family="Helvetica,sans-Serif" font-size="10.00">AH/Debug/Debug.hpp</text>
</a>
</g>
</g>
<!-- Node9&#45;&gt;Node10 -->
<g id="edge15" class="edge">
<title>Node9&#45;&gt;Node10</title>
<path fill="none" stroke="midnightblue" d="M1009.63,-448.44C960.38,-438.94 880.87,-423.61 828.03,-413.42"/>
<polygon fill="midnightblue" stroke="midnightblue" points="828.64,-409.97 818.16,-411.52 827.32,-416.85 828.64,-409.97"/>
</g>
<!-- Node10&#45;&gt;Node2 -->
<g id="edge16" class="edge">
<title>Node10&#45;&gt;Node2</title>
<path fill="none" stroke="midnightblue" d="M834.72,-394.64C896.12,-384.46 982,-358.2 982,-291 982,-291 982,-291 982,-233 982,-153.83 944.72,-110.64 1002,-56 1025.25,-33.82 1103.85,-22.25 1166.02,-16.43"/>
<polygon fill="midnightblue" stroke="midnightblue" points="1166.59,-19.89 1176.24,-15.51 1165.96,-12.92 1166.59,-19.89"/>
</g>
<!-- Node11 -->
<g id="node11" class="node">
<title>Node11</title>
<g id="a_node11"><a xlink:href="../../dd/d80/PrintStream_8hpp.html" target="_top" xlink:title=" ">
<polygon fill="white" stroke="black" points="307.5,-224.5 307.5,-243.5 480.5,-243.5 480.5,-224.5 307.5,-224.5"/>
<text text-anchor="middle" x="394" y="-231.5" font-family="Helvetica,sans-Serif" font-size="10.00">AH/PrintStream/PrintStream.hpp</text>
</a>
</g>
</g>
<!-- Node10&#45;&gt;Node11 -->
<g id="edge17" class="edge">
<title>Node10&#45;&gt;Node11</title>
<path fill="none" stroke="midnightblue" d="M754.37,-392.42C691.83,-365.1 497.01,-280 422.96,-247.65"/>
<polygon fill="midnightblue" stroke="midnightblue" points="424.31,-244.42 413.74,-243.62 421.5,-250.83 424.31,-244.42"/>
</g>
<!-- Node18 -->
<g id="node18" class="node">
<title>Node18</title>
<g id="a_node18"><a xlink:href="../../d2/dd5/SettingsWrapper_8hpp.html" target="_top" xlink:title=" ">
<polygon fill="white" stroke="black" points="718,-336.5 718,-355.5 896,-355.5 896,-336.5 718,-336.5"/>
<text text-anchor="middle" x="807" y="-343.5" font-family="Helvetica,sans-Serif" font-size="10.00">AH/Settings/SettingsWrapper.hpp</text>
</a>
</g>
</g>
<!-- Node10&#45;&gt;Node18 -->
<g id="edge29" class="edge">
<title>Node10&#45;&gt;Node18</title>
<path fill="none" stroke="midnightblue" d="M774.28,-392.08C777.34,-384.46 783.79,-373.26 790.33,-363.94"/>
<polygon fill="midnightblue" stroke="midnightblue" points="793.28,-365.84 796.52,-355.75 787.7,-361.62 793.28,-365.84"/>
</g>
<!-- Node11&#45;&gt;Node2 -->
<g id="edge19" class="edge">
<title>Node11&#45;&gt;Node2</title>
<path fill="none" stroke="midnightblue" d="M389.03,-224.14C373.64,-195.41 330.48,-103.93 376,-56 402.96,-27.61 954.42,-15.73 1166.18,-12.21"/>
<polygon fill="midnightblue" stroke="midnightblue" points="1166.37,-15.71 1176.31,-12.04 1166.25,-8.71 1166.37,-15.71"/>
</g>
<!-- Node11&#45;&gt;Node12 -->
<g id="edge18" class="edge">
<title>Node11&#45;&gt;Node12</title>
<path fill="none" stroke="midnightblue" d="M400.16,-224.18C410.66,-209.88 433.48,-181.84 460,-168 509.57,-142.14 864.17,-96.61 1027.28,-76.74"/>
<polygon fill="midnightblue" stroke="midnightblue" points="1027.77,-80.21 1037.27,-75.53 1026.92,-73.26 1027.77,-80.21"/>
</g>
<!-- Node11&#45;&gt;Node13 -->
<g id="edge20" class="edge">
<title>Node11&#45;&gt;Node13</title>
<path fill="none" stroke="midnightblue" d="M415.71,-224.44C438.35,-215.52 474.07,-201.44 499.75,-191.32"/>
<polygon fill="midnightblue" stroke="midnightblue" points="501.37,-194.44 509.39,-187.52 498.81,-187.93 501.37,-194.44"/>
</g>
<!-- Node14 -->
<g id="node14" class="node">
<title>Node14</title>
<g id="a_node14"><a xlink:href="../../d7/d79/MinMaxFix_8hpp.html" target="_top" xlink:title=" ">
<polygon fill="white" stroke="black" points="457,-112.5 457,-131.5 593,-131.5 593,-112.5 457,-112.5"/>
<text text-anchor="middle" x="525" y="-119.5" font-family="Helvetica,sans-Serif" font-size="10.00">AH/Math/MinMaxFix.hpp</text>
</a>
</g>
</g>
<!-- Node13&#45;&gt;Node14 -->
<g id="edge21" class="edge">
<title>Node13&#45;&gt;Node14</title>
<path fill="none" stroke="midnightblue" d="M530.01,-168.08C529.21,-160.93 528.07,-150.64 527.08,-141.69"/>
<polygon fill="midnightblue" stroke="midnightblue" points="530.56,-141.3 525.97,-131.75 523.6,-142.08 530.56,-141.3"/>
</g>
<!-- Node16 -->
<g id="node16" class="node">
<title>Node16</title>
<g id="a_node16"><a xlink:title=" ">
<polygon fill="white" stroke="#bfbfbf" points="363.5,-0.5 363.5,-19.5 426.5,-19.5 426.5,-0.5 363.5,-0.5"/>
<text text-anchor="middle" x="395" y="-7.5" font-family="Helvetica,sans-Serif" font-size="10.00">Arduino.h</text>
</a>
</g>
</g>
<!-- Node13&#45;&gt;Node16 -->
<g id="edge28" class="edge">
<title>Node13&#45;&gt;Node16</title>
<path fill="none" stroke="midnightblue" d="M502.33,-168.45C464.78,-155.48 400.84,-126.78 376,-76 368.52,-60.7 375.59,-41.91 383.13,-28.47"/>
<polygon fill="midnightblue" stroke="midnightblue" points="386.24,-30.11 388.51,-19.76 380.28,-26.43 386.24,-30.11"/>
</g>
<!-- Node13&#45;&gt;Node17 -->
<g id="edge27" class="edge">
<title>Node13&#45;&gt;Node17</title>
<path fill="none" stroke="midnightblue" d="M593.07,-170.57C692.72,-160.24 887.39,-140.06 988.16,-129.62"/>
<polygon fill="midnightblue" stroke="midnightblue" points="988.61,-133.09 998.2,-128.58 987.89,-126.13 988.61,-133.09"/>
</g>
<!-- Node14&#45;&gt;Node2 -->
<g id="edge22" class="edge">
<title>Node14&#45;&gt;Node2</title>
<path fill="none" stroke="midnightblue" d="M532.54,-112.29C545.86,-97.62 575.16,-68.36 607,-56 706.82,-17.26 1017.37,-11.32 1166.48,-10.77"/>
<polygon fill="midnightblue" stroke="midnightblue" points="1166.51,-14.27 1176.5,-10.74 1166.49,-7.27 1166.51,-14.27"/>
</g>
<!-- Node14&#45;&gt;Node12 -->
<g id="edge26" class="edge">
<title>Node14&#45;&gt;Node12</title>
<path fill="none" stroke="midnightblue" d="M593.14,-114.7C695.02,-105.28 887.79,-87.45 1006.66,-76.46"/>
<polygon fill="midnightblue" stroke="midnightblue" points="1007.22,-79.93 1016.86,-75.52 1006.58,-72.96 1007.22,-79.93"/>
</g>
<!-- Node15 -->
<g id="node15" class="node">
<title>Node15</title>
<g id="a_node15"><a xlink:href="../../d6/d3b/FixArduinoMacros_8hpp.html" target="_top" xlink:title=" ">
<polygon fill="white" stroke="black" points="385,-56.5 385,-75.5 555,-75.5 555,-56.5 385,-56.5"/>
<text text-anchor="middle" x="470" y="-63.5" font-family="Helvetica,sans-Serif" font-size="10.00">AH/Math/FixArduinoMacros.hpp</text>
</a>
</g>
</g>
<!-- Node14&#45;&gt;Node15 -->
<g id="edge23" class="edge">
<title>Node14&#45;&gt;Node15</title>
<path fill="none" stroke="midnightblue" d="M515.92,-112.08C507.83,-104.14 495.8,-92.34 486.09,-82.8"/>
<polygon fill="midnightblue" stroke="midnightblue" points="488.5,-80.26 478.91,-75.75 483.6,-85.25 488.5,-80.26"/>
</g>
<!-- Node15&#45;&gt;Node2 -->
<g id="edge24" class="edge">
<title>Node15&#45;&gt;Node2</title>
<path fill="none" stroke="midnightblue" d="M555.04,-57.13C559.76,-56.74 564.44,-56.36 569,-56 784.3,-39.08 1038.33,-23.38 1166.01,-15.78"/>
<polygon fill="midnightblue" stroke="midnightblue" points="1166.33,-19.27 1176.1,-15.18 1165.91,-12.28 1166.33,-19.27"/>
</g>
<!-- Node15&#45;&gt;Node16 -->
<g id="edge25" class="edge">
<title>Node15&#45;&gt;Node16</title>
<path fill="none" stroke="midnightblue" d="M457.95,-56.32C446.54,-48.11 429.17,-35.6 415.57,-25.81"/>
<polygon fill="midnightblue" stroke="midnightblue" points="417.43,-22.84 407.27,-19.83 413.34,-28.52 417.43,-22.84"/>
</g>
<!-- Node18&#45;&gt;Node2 -->
<g id="edge30" class="edge">
<title>Node18&#45;&gt;Node2</title>
<path fill="none" stroke="midnightblue" d="M806.91,-336.46C806.29,-322.55 802.97,-295.07 787,-280 738.07,-233.84 688.6,-290.5 640,-244 618.25,-223.19 621,-209.1 621,-179 621,-179 621,-179 621,-121 621,-32.17 723.25,-75.11 810,-56 932.38,-29.04 1077.63,-18.16 1166.28,-13.81"/>
<polygon fill="midnightblue" stroke="midnightblue" points="1166.45,-17.31 1176.27,-13.34 1166.12,-10.32 1166.45,-17.31"/>
</g>
<!-- Node18&#45;&gt;Node10 -->
<g id="edge43" class="edge">
<title>Node18&#45;&gt;Node10</title>
<path fill="none" stroke="midnightblue" d="M806.78,-355.75C803.78,-363.33 797.35,-374.5 790.81,-383.86"/>
<polygon fill="midnightblue" stroke="midnightblue" points="787.83,-381.99 784.62,-392.08 793.43,-386.2 787.83,-381.99"/>
</g>
<!-- Node18&#45;&gt;Node12 -->
<g id="edge31" class="edge">
<title>Node18&#45;&gt;Node12</title>
<path fill="none" stroke="midnightblue" d="M852.29,-336.46C875.51,-329.98 902.69,-318.85 921,-300 982.91,-236.27 926.54,-175.2 989,-112 1005.28,-95.53 1028.15,-85.02 1049.56,-78.34"/>
<polygon fill="midnightblue" stroke="midnightblue" points="1050.64,-81.67 1059.27,-75.53 1048.69,-74.94 1050.64,-81.67"/>
</g>
<!-- Node19 -->
<g id="node19" class="node">
<title>Node19</title>
<g id="a_node19"><a xlink:href="../../db/d02/Settings_8hpp.html" target="_top" xlink:title="All user settings and debugging options can be changed here.">
<polygon fill="white" stroke="black" points="835.5,-280.5 835.5,-299.5 912.5,-299.5 912.5,-280.5 835.5,-280.5"/>
<text text-anchor="middle" x="874" y="-287.5" font-family="Helvetica,sans-Serif" font-size="10.00">Settings.hpp</text>
</a>
</g>
</g>
<!-- Node18&#45;&gt;Node19 -->
<g id="edge32" class="edge">
<title>Node18&#45;&gt;Node19</title>
<path fill="none" stroke="midnightblue" d="M817.76,-336.32C827.77,-328.26 842.89,-316.08 854.93,-306.37"/>
<polygon fill="midnightblue" stroke="midnightblue" points="857.45,-308.83 863.04,-299.83 853.06,-303.38 857.45,-308.83"/>
</g>
<!-- Node25 -->
<g id="node25" class="node">
<title>Node25</title>
<g id="a_node25"><a xlink:href="../../d9/d98/TeensyUSBTypes_8hpp.html" target="_top" xlink:title=" ">
<polygon fill="white" stroke="black" points="605.5,-280.5 605.5,-299.5 778.5,-299.5 778.5,-280.5 605.5,-280.5"/>
<text text-anchor="middle" x="692" y="-287.5" font-family="Helvetica,sans-Serif" font-size="10.00">AH/Teensy/TeensyUSBTypes.hpp</text>
</a>
</g>
</g>
<!-- Node18&#45;&gt;Node25 -->
<g id="edge42" class="edge">
<title>Node18&#45;&gt;Node25</title>
<path fill="none" stroke="midnightblue" d="M788.78,-336.44C770.1,-327.68 740.84,-313.94 719.38,-303.86"/>
<polygon fill="midnightblue" stroke="midnightblue" points="720.68,-300.6 710.14,-299.52 717.7,-306.93 720.68,-300.6"/>
</g>
<!-- Node20 -->
<g id="node20" class="node">
<title>Node20</title>
<g id="a_node20"><a xlink:href="../../dc/d50/Frequency_8hpp.html" target="_top" xlink:title=" ">
<polygon fill="white" stroke="black" points="770,-112.5 770,-131.5 904,-131.5 904,-112.5 770,-112.5"/>
<text text-anchor="middle" x="837" y="-119.5" font-family="Helvetica,sans-Serif" font-size="10.00">AH/Types/Frequency.hpp</text>
</a>
</g>
</g>
<!-- Node19&#45;&gt;Node20 -->
<g id="edge33" class="edge">
<title>Node19&#45;&gt;Node20</title>
<path fill="none" stroke="midnightblue" d="M877.94,-280.12C882.99,-267.56 890.57,-243.91 886,-224 878.79,-192.64 860.5,-159.72 848.42,-140.3"/>
<polygon fill="midnightblue" stroke="midnightblue" points="851.25,-138.22 842.91,-131.68 845.35,-141.99 851.25,-138.22"/>
</g>
<!-- Node21 -->
<g id="node21" class="node">
<title>Node21</title>
<g id="a_node21"><a xlink:href="../../d7/d7c/ADCConfig_8hpp.html" target="_top" xlink:title="This file contains the platform&#45;specific ADC resolutions.">
<polygon fill="white" stroke="black" points="720.5,-224.5 720.5,-243.5 877.5,-243.5 877.5,-224.5 720.5,-224.5"/>
<text text-anchor="middle" x="799" y="-231.5" font-family="Helvetica,sans-Serif" font-size="10.00">AH/Hardware/ADCConfig.hpp</text>
</a>
</g>
</g>
<!-- Node19&#45;&gt;Node21 -->
<g id="edge36" class="edge">
<title>Node19&#45;&gt;Node21</title>
<path fill="none" stroke="midnightblue" d="M861.95,-280.32C850.54,-272.11 833.17,-259.6 819.57,-249.81"/>
<polygon fill="midnightblue" stroke="midnightblue" points="821.43,-246.84 811.27,-243.83 817.34,-252.52 821.43,-246.84"/>
</g>
<!-- Node22 -->
<g id="node22" class="node">
<title>Node22</title>
<g id="a_node22"><a xlink:title=" ">
<polygon fill="white" stroke="#bfbfbf" points="649.5,-224.5 649.5,-243.5 702.5,-243.5 702.5,-224.5 649.5,-224.5"/>
<text text-anchor="middle" x="676" y="-231.5" font-family="Helvetica,sans-Serif" font-size="10.00">limits.h</text>
</a>
</g>
</g>
<!-- Node19&#45;&gt;Node22 -->
<g id="edge39" class="edge">
<title>Node19&#45;&gt;Node22</title>
<path fill="none" stroke="midnightblue" d="M842.63,-280.44C807.34,-270.82 750.1,-255.21 712.75,-245.02"/>
<polygon fill="midnightblue" stroke="midnightblue" points="713.35,-241.56 702.78,-242.3 711.51,-248.31 713.35,-241.56"/>
</g>
<!-- Node19&#45;&gt;Node23 -->
<g id="edge40" class="edge">
<title>Node19&#45;&gt;Node23</title>
<path fill="none" stroke="midnightblue" d="M835.49,-282.27C775.97,-271.87 662.32,-252.01 603.07,-241.65"/>
<polygon fill="midnightblue" stroke="midnightblue" points="603.46,-238.17 593.01,-239.89 602.26,-245.06 603.46,-238.17"/>
</g>
<!-- Node19&#45;&gt;Node24 -->
<g id="edge41" class="edge">
<title>Node19&#45;&gt;Node24</title>
<path fill="none" stroke="midnightblue" d="M912.56,-283.67C987.85,-273.28 1153.52,-250.4 1227.75,-240.14"/>
<polygon fill="midnightblue" stroke="midnightblue" points="1228.59,-243.56 1238.02,-238.73 1227.63,-236.63 1228.59,-243.56"/>
</g>
<!-- Node20&#45;&gt;Node2 -->
<g id="edge34" class="edge">
<title>Node20&#45;&gt;Node2</title>
<path fill="none" stroke="midnightblue" d="M849.19,-112.46C870.03,-98.29 914.3,-70.12 956,-56 1024.78,-32.72 1106.78,-21.42 1166.35,-15.98"/>
<polygon fill="midnightblue" stroke="midnightblue" points="1166.8,-19.45 1176.45,-15.09 1166.18,-12.48 1166.8,-19.45"/>
</g>
<!-- Node20&#45;&gt;Node12 -->
<g id="edge35" class="edge">
<title>Node20&#45;&gt;Node12</title>
<path fill="none" stroke="midnightblue" d="M880.1,-112.44C927.85,-102.96 1004.86,-87.67 1056.19,-77.48"/>
<polygon fill="midnightblue" stroke="midnightblue" points="1056.98,-80.9 1066.1,-75.52 1055.61,-74.03 1056.98,-80.9"/>
</g>
<!-- Node21&#45;&gt;Node2 -->
<g id="edge37" class="edge">
<title>Node21&#45;&gt;Node2</title>
<path fill="none" stroke="midnightblue" d="M791.53,-224.32C774.39,-203.32 735.64,-148.8 761,-112 806.26,-46.32 1039.83,-22.84 1166.34,-14.85"/>
<polygon fill="midnightblue" stroke="midnightblue" points="1166.61,-18.34 1176.38,-14.24 1166.18,-11.36 1166.61,-18.34"/>
</g>
<!-- Node21&#45;&gt;Node13 -->
<g id="edge38" class="edge">
<title>Node21&#45;&gt;Node13</title>
<path fill="none" stroke="midnightblue" d="M756.53,-224.44C709.59,-214.98 633.92,-199.74 583.35,-189.55"/>
<polygon fill="midnightblue" stroke="midnightblue" points="583.76,-186.06 573.27,-187.52 582.38,-192.92 583.76,-186.06"/>
</g>
<!-- Node27&#45;&gt;Node2 -->
<g id="edge52" class="edge">
<title>Node27&#45;&gt;Node2</title>
<path fill="none" stroke="midnightblue" d="M1577.31,-112.5C1560.68,-98.4 1525.1,-70.31 1490,-56 1438.83,-35.14 1377.62,-23.87 1329.55,-17.83"/>
<polygon fill="midnightblue" stroke="midnightblue" points="1329.85,-14.34 1319.51,-16.62 1329.02,-21.29 1329.85,-14.34"/>
</g>
<!-- Node27&#45;&gt;Node12 -->
<g id="edge53" class="edge">
<title>Node27&#45;&gt;Node12</title>
<path fill="none" stroke="midnightblue" d="M1511.52,-112.47C1425.4,-102.74 1284.84,-86.86 1194.67,-76.68"/>
<polygon fill="midnightblue" stroke="midnightblue" points="1194.8,-73.17 1184.47,-75.53 1194.02,-80.13 1194.8,-73.17"/>
</g>
<!-- Node28 -->
<g id="node28" class="node">
<title>Node28</title>
<g id="a_node28"><a xlink:title=" ">
<polygon fill="white" stroke="#bfbfbf" points="1542,-56.5 1542,-75.5 1632,-75.5 1632,-56.5 1542,-56.5"/>
<text text-anchor="middle" x="1587" y="-63.5" font-family="Helvetica,sans-Serif" font-size="10.00">AH/STL/cstddef</text>
</a>
</g>
</g>
<!-- Node27&#45;&gt;Node28 -->
<g id="edge50" class="edge">
<title>Node27&#45;&gt;Node28</title>
<path fill="none" stroke="midnightblue" d="M1587,-112.08C1587,-105.01 1587,-94.86 1587,-85.99"/>
<polygon fill="midnightblue" stroke="midnightblue" points="1590.5,-85.75 1587,-75.75 1583.5,-85.75 1590.5,-85.75"/>
</g>
<!-- Node29 -->
<g id="node29" class="node">
<title>Node29</title>
<g id="a_node29"><a xlink:title=" ">
<polygon fill="white" stroke="#bfbfbf" points="1650.5,-56.5 1650.5,-75.5 1729.5,-75.5 1729.5,-56.5 1650.5,-56.5"/>
<text text-anchor="middle" x="1690" y="-63.5" font-family="Helvetica,sans-Serif" font-size="10.00">AH/STL/tuple</text>
</a>
</g>
</g>
<!-- Node27&#45;&gt;Node29 -->
<g id="edge51" class="edge">
<title>Node27&#45;&gt;Node29</title>
<path fill="none" stroke="midnightblue" d="M1603.55,-112.32C1619.99,-103.7 1645.43,-90.36 1664.47,-80.39"/>
<polygon fill="midnightblue" stroke="midnightblue" points="1666.26,-83.4 1673.49,-75.65 1663.01,-77.2 1666.26,-83.4"/>
</g>
<!-- Node31&#45;&gt;Node2 -->
<g id="edge59" class="edge">
<title>Node31&#45;&gt;Node2</title>
<path fill="none" stroke="midnightblue" d="M880.25,-504.36C897.8,-496.35 923.39,-483.36 943,-468 969.5,-447.24 973.35,-438.59 994,-412 1103.62,-270.82 1125.29,-230.6 1215,-76 1224.02,-60.45 1233.19,-42.15 1239.57,-28.93"/>
<polygon fill="midnightblue" stroke="midnightblue" points="1242.88,-30.11 1244.02,-19.58 1236.56,-27.1 1242.88,-30.11"/>
</g>
<!-- Node31&#45;&gt;Node9 -->
<g id="edge67" class="edge">
<title>Node31&#45;&gt;Node9</title>
<path fill="none" stroke="midnightblue" d="M890.74,-504.44C923.94,-495.2 976.99,-480.44 1013.56,-470.26"/>
<polygon fill="midnightblue" stroke="midnightblue" points="1014.71,-473.57 1023.4,-467.52 1012.83,-466.83 1014.71,-473.57"/>
</g>
<!-- Node31&#45;&gt;Node17 -->
<g id="edge68" class="edge">
<title>Node31&#45;&gt;Node17</title>
<path fill="none" stroke="midnightblue" d="M872.82,-504.32C910.79,-477.46 1020,-391.48 1020,-291 1020,-291 1020,-291 1020,-233 1020,-199.33 1033.99,-162.08 1043.47,-140.72"/>
<polygon fill="midnightblue" stroke="midnightblue" points="1046.67,-142.14 1047.68,-131.59 1040.32,-139.21 1046.67,-142.14"/>
</g>
<!-- Node31&#45;&gt;Node18 -->
<g id="edge70" class="edge">
<title>Node31&#45;&gt;Node18</title>
<path fill="none" stroke="midnightblue" d="M860.31,-504.37C860.74,-483.94 859.97,-431.35 843,-392 838.41,-381.36 830.61,-371.14 823.44,-363.14"/>
<polygon fill="midnightblue" stroke="midnightblue" points="825.78,-360.52 816.36,-355.67 820.7,-365.34 825.78,-360.52"/>
</g>
<!-- Node31&#45;&gt;Node23 -->
<g id="edge71" class="edge">
<title>Node31&#45;&gt;Node23</title>
<path fill="none" stroke="midnightblue" d="M848.69,-504.45C827.43,-488.53 782.01,-455.28 764,-448 677.83,-413.17 617.8,-483.15 558,-412 519.63,-366.34 543.41,-288.28 557.2,-253.11"/>
<polygon fill="midnightblue" stroke="midnightblue" points="560.52,-254.24 561.08,-243.66 554.04,-251.58 560.52,-254.24"/>
</g>
<!-- Node32 -->
<g id="node32" class="node">
<title>Node32</title>
<g id="a_node32"><a xlink:href="../../d4/dba/CRTP_8hpp.html" target="_top" xlink:title=" ">
<polygon fill="white" stroke="black" points="520,-448.5 520,-467.5 654,-467.5 654,-448.5 520,-448.5"/>
<text text-anchor="middle" x="587" y="-455.5" font-family="Helvetica,sans-Serif" font-size="10.00">AH/Containers/CRTP.hpp</text>
</a>
</g>
</g>
<!-- Node31&#45;&gt;Node32 -->
<g id="edge60" class="edge">
<title>Node31&#45;&gt;Node32</title>
<path fill="none" stroke="midnightblue" d="M816.74,-504.44C768.82,-494.96 691.52,-479.67 640,-469.48"/>
<polygon fill="midnightblue" stroke="midnightblue" points="640.54,-466.02 630.06,-467.52 639.19,-472.89 640.54,-466.02"/>
</g>
<!-- Node33 -->
<g id="node33" class="node">
<title>Node33</title>
<g id="a_node33"><a xlink:href="../../de/dd1/LinkedList_8hpp.html" target="_top" xlink:title=" ">
<polygon fill="white" stroke="black" points="342.5,-448.5 342.5,-467.5 501.5,-467.5 501.5,-448.5 342.5,-448.5"/>
<text text-anchor="middle" x="422" y="-455.5" font-family="Helvetica,sans-Serif" font-size="10.00">AH/Containers/LinkedList.hpp</text>
</a>
</g>
</g>
<!-- Node31&#45;&gt;Node33 -->
<g id="edge61" class="edge">
<title>Node31&#45;&gt;Node33</title>
<path fill="none" stroke="midnightblue" d="M790.6,-504.44C711.87,-494.74 583.73,-478.94 501.16,-468.76"/>
<polygon fill="midnightblue" stroke="midnightblue" points="501.43,-465.27 491.08,-467.52 500.57,-472.21 501.43,-465.27"/>
</g>
<!-- Node35 -->
<g id="node35" class="node">
<title>Node35</title>
<g id="a_node35"><a xlink:title=" ">
<polygon fill="white" stroke="#bfbfbf" points="672.5,-448.5 672.5,-467.5 755.5,-467.5 755.5,-448.5 672.5,-448.5"/>
<text text-anchor="middle" x="714" y="-455.5" font-family="Helvetica,sans-Serif" font-size="10.00">AH/STL/utility</text>
</a>
</g>
</g>
<!-- Node31&#45;&gt;Node35 -->
<g id="edge69" class="edge">
<title>Node31&#45;&gt;Node35</title>
<path fill="none" stroke="midnightblue" d="M836.87,-504.44C812.52,-495.44 773.99,-481.19 746.58,-471.05"/>
<polygon fill="midnightblue" stroke="midnightblue" points="747.62,-467.7 737.03,-467.52 745.19,-474.27 747.62,-467.7"/>
</g>
<!-- Node33&#45;&gt;Node2 -->
<g id="edge62" class="edge">
<title>Node33&#45;&gt;Node2</title>
<path fill="none" stroke="midnightblue" d="M403.81,-448.47C387.81,-440.44 364.43,-427.37 347,-412 261.67,-336.76 241,-292.77 241,-179 241,-179 241,-179 241,-121 241,-60.74 302,-72.38 360,-56 510.06,-13.61 976.34,-10.1 1166.26,-10.51"/>
<polygon fill="midnightblue" stroke="midnightblue" points="1166.45,-14.01 1176.45,-10.53 1166.46,-7.01 1166.45,-14.01"/>
</g>
<!-- Node33&#45;&gt;Node10 -->
<g id="edge63" class="edge">
<title>Node33&#45;&gt;Node10</title>
<path fill="none" stroke="midnightblue" d="M477.78,-448.44C540.47,-438.83 642.15,-423.23 708.55,-413.04"/>
<polygon fill="midnightblue" stroke="midnightblue" points="709.13,-416.49 718.49,-411.52 708.07,-409.57 709.13,-416.49"/>
</g>
<!-- Node33&#45;&gt;Node14 -->
<g id="edge64" class="edge">
<title>Node33&#45;&gt;Node14</title>
<path fill="none" stroke="midnightblue" d="M410.75,-448.45C371.18,-417.33 243.71,-307.58 298,-224 332.27,-171.24 401.17,-145.82 454.12,-133.7"/>
<polygon fill="midnightblue" stroke="midnightblue" points="455.12,-137.07 464.15,-131.52 453.63,-130.23 455.12,-137.07"/>
</g>
<!-- Node33&#45;&gt;Node26 -->
<g id="edge66" class="edge">
<title>Node33&#45;&gt;Node26</title>
<path fill="none" stroke="midnightblue" d="M452.11,-448.44C484.63,-439.2 536.58,-424.44 572.39,-414.26"/>
<polygon fill="midnightblue" stroke="midnightblue" points="573.37,-417.62 582.03,-411.52 571.46,-410.88 573.37,-417.62"/>
</g>
<!-- Node34 -->
<g id="node34" class="node">
<title>Node34</title>
<g id="a_node34"><a xlink:title=" ">
<polygon fill="white" stroke="#bfbfbf" points="395.5,-392.5 395.5,-411.5 448.5,-411.5 448.5,-392.5 395.5,-392.5"/>
<text text-anchor="middle" x="422" y="-399.5" font-family="Helvetica,sans-Serif" font-size="10.00">stdlib.h</text>
</a>
</g>
</g>
<!-- Node33&#45;&gt;Node34 -->
<g id="edge65" class="edge">
<title>Node33&#45;&gt;Node34</title>
<path fill="none" stroke="midnightblue" d="M422,-448.08C422,-441.01 422,-430.86 422,-421.99"/>
<polygon fill="midnightblue" stroke="midnightblue" points="425.5,-421.75 422,-411.75 418.5,-421.75 425.5,-421.75"/>
</g>
<!-- Node36&#45;&gt;Node2 -->
<g id="edge74" class="edge">
<title>Node36&#45;&gt;Node2</title>
<path fill="none" stroke="midnightblue" d="M77.68,-565.67C68.19,-556.2 53.68,-540.31 45,-524 30.86,-497.43 26,-489.1 26,-459 26,-459 26,-459 26,-121 26,-50.78 101.68,-72.2 170,-56 358.94,-11.19 948.94,-9.45 1166.42,-10.4"/>
<polygon fill="midnightblue" stroke="midnightblue" points="1166.48,-13.9 1176.5,-10.45 1166.51,-6.9 1166.48,-13.9"/>
</g>
<!-- Node36&#45;&gt;Node8 -->
<g id="edge75" class="edge">
<title>Node36&#45;&gt;Node8</title>
<path fill="none" stroke="midnightblue" d="M174.23,-570.17C329.91,-562.27 665.84,-544.43 949,-524 957.75,-523.37 966.91,-522.66 976.01,-521.92"/>
<polygon fill="midnightblue" stroke="midnightblue" points="976.56,-525.39 986.24,-521.08 975.99,-518.41 976.56,-525.39"/>
</g>
<!-- Node36&#45;&gt;Node11 -->
<g id="edge77" class="edge">
<title>Node36&#45;&gt;Node11</title>
<path fill="none" stroke="midnightblue" d="M112.39,-565.94C151.5,-550.97 222,-516.06 222,-459 222,-459 222,-459 222,-345 222,-288.51 288.66,-259.72 338.99,-246.04"/>
<polygon fill="midnightblue" stroke="midnightblue" points="340,-249.39 348.81,-243.5 338.25,-242.61 340,-249.39"/>
</g>
<!-- Node37 -->
<g id="node37" class="node">
<title>Node37</title>
<g id="a_node37"><a xlink:title=" ">
<polygon fill="white" stroke="#bfbfbf" points="54.5,-504.5 54.5,-523.5 155.5,-523.5 155.5,-504.5 54.5,-504.5"/>
<text text-anchor="middle" x="105" y="-511.5" font-family="Helvetica,sans-Serif" font-size="10.00">AH/STL/algorithm</text>
</a>
</g>
</g>
<!-- Node36&#45;&gt;Node37 -->
<g id="edge76" class="edge">
<title>Node36&#45;&gt;Node37</title>
<path fill="none" stroke="midnightblue" d="M89.58,-565.98C92.15,-557.49 96.17,-544.2 99.46,-533.32"/>
<polygon fill="midnightblue" stroke="midnightblue" points="102.88,-534.09 102.43,-523.51 96.18,-532.07 102.88,-534.09"/>
</g>
<!-- Node38&#45;&gt;Node2 -->
<g id="edge79" class="edge">
<title>Node38&#45;&gt;Node2</title>
<path fill="none" stroke="midnightblue" d="M1307.44,-504.31C1325.25,-486.93 1362,-445.86 1362,-403 1362,-403 1362,-403 1362,-345 1362,-133.88 1881.31,-211.95 1739,-56 1712.01,-26.42 1462.14,-16.04 1329.64,-12.6"/>
<polygon fill="midnightblue" stroke="midnightblue" points="1329.61,-9.09 1319.53,-12.34 1329.43,-16.09 1329.61,-9.09"/>
</g>
<!-- Node38&#45;&gt;Node9 -->
<g id="edge80" class="edge">
<title>Node38&#45;&gt;Node9</title>
<path fill="none" stroke="midnightblue" d="M1259.34,-504.44C1216.86,-495.04 1148.57,-479.93 1102.53,-469.74"/>
<polygon fill="midnightblue" stroke="midnightblue" points="1103,-466.26 1092.48,-467.52 1101.49,-473.09 1103,-466.26"/>
</g>
<!-- Node38&#45;&gt;Node12 -->
<g id="edge81" class="edge">
<title>Node38&#45;&gt;Node12</title>
<path fill="none" stroke="midnightblue" d="M1301.51,-504.32C1308.6,-485.96 1324,-441.66 1324,-403 1324,-403 1324,-403 1324,-233 1324,-146.38 1213.32,-98.61 1150.79,-78.52"/>
<polygon fill="midnightblue" stroke="midnightblue" points="1151.78,-75.16 1141.19,-75.54 1149.7,-81.85 1151.78,-75.16"/>
</g>
<!-- Node38&#45;&gt;Node24 -->
<g id="edge82" class="edge">
<title>Node38&#45;&gt;Node24</title>
<path fill="none" stroke="midnightblue" d="M1296.43,-504.48C1293.18,-486.04 1286,-441.04 1286,-403 1286,-403 1286,-403 1286,-345 1286,-312.38 1276.98,-275.28 1270.77,-253.57"/>
<polygon fill="midnightblue" stroke="midnightblue" points="1274.04,-252.32 1267.83,-243.73 1267.33,-254.32 1274.04,-252.32"/>
</g>
<!-- Node39&#45;&gt;Node2 -->
<g id="edge84" class="edge">
<title>Node39&#45;&gt;Node2</title>
<path fill="none" stroke="midnightblue" d="M1677.81,-750.4C1716.59,-722.26 1796,-655.04 1796,-576.5 1796,-576.5 1796,-576.5 1796,-121 1796,-87.76 1786.98,-73.95 1759,-56 1723.8,-33.41 1465.1,-19.74 1329.86,-14.07"/>
<polygon fill="midnightblue" stroke="midnightblue" points="1329.69,-10.56 1319.55,-13.64 1329.4,-17.55 1329.69,-10.56"/>
</g>
<!-- Node39&#45;&gt;Node5 -->
<g id="edge85" class="edge">
<title>Node39&#45;&gt;Node5</title>
<path fill="none" stroke="midnightblue" d="M1646.34,-750.4C1639.86,-741.84 1631.57,-730.87 1624.75,-721.86"/>
<polygon fill="midnightblue" stroke="midnightblue" points="1627.37,-719.52 1618.55,-713.66 1621.79,-723.74 1627.37,-719.52"/>
</g>
<!-- Node40 -->
<g id="node40" class="node">
<title>Node40</title>
<g id="a_node40"><a xlink:title=" ">
<polygon fill="white" stroke="#bfbfbf" points="1788.5,-694.5 1788.5,-713.5 1829.5,-713.5 1829.5,-694.5 1788.5,-694.5"/>
<text text-anchor="middle" x="1809" y="-701.5" font-family="Helvetica,sans-Serif" font-size="10.00">SPI.h</text>
</a>
</g>
</g>
<!-- Node39&#45;&gt;Node40 -->
<g id="edge86" class="edge">
<title>Node39&#45;&gt;Node40</title>
<path fill="none" stroke="midnightblue" d="M1693.02,-750.4C1719.1,-740.19 1753.96,-726.54 1778.63,-716.89"/>
<polygon fill="midnightblue" stroke="midnightblue" points="1780.16,-720.05 1788.2,-713.14 1777.61,-713.53 1780.16,-720.05"/>
</g>
</g>
</svg>
