<?xml version="1.0" encoding="UTF-8" standalone="no"?>
<!DOCTYPE svg PUBLIC "-//W3C//DTD SVG 1.1//EN"
 "http://www.w3.org/Graphics/SVG/1.1/DTD/svg11.dtd">
<!-- Generated by graphviz version 2.40.1 (20161225.0304)
 -->
<!-- Title: ShiftRegisterOutBase.hpp Pages: 1 -->
<svg width="406pt" height="140pt"
 viewBox="0.00 0.00 405.50 140.00" xmlns="http://www.w3.org/2000/svg" xmlns:xlink="http://www.w3.org/1999/xlink">
<g id="graph0" class="graph" transform="scale(1 1) rotate(0) translate(4 136)">
<title>ShiftRegisterOutBase.hpp</title>
<polygon fill="#ffffff" stroke="transparent" points="-4,4 -4,-136 401.5,-136 401.5,4 -4,4"/>
<!-- Node1 -->
<g id="node1" class="node">
<title>Node1</title>
<g id="a_node1"><a xlink:title=" ">
<polygon fill="#bfbfbf" stroke="#000000" points="124.5,-112.5 124.5,-131.5 255.5,-131.5 255.5,-112.5 124.5,-112.5"/>
<text text-anchor="middle" x="190" y="-119.5" font-family="Helvetica,sans-Serif" font-size="10.00" fill="#000000">ShiftRegisterOutBase.hpp</text>
</a>
</g>
</g>
<!-- Node2 -->
<g id="node2" class="node">
<title>Node2</title>
<g id="a_node2"><a xlink:href="../../d0/db4/ShiftRegisterOut_8hpp.html" target="_top" xlink:title=" ">
<polygon fill="#ffffff" stroke="#000000" points="0,-56.5 0,-75.5 108,-75.5 108,-56.5 0,-56.5"/>
<text text-anchor="middle" x="54" y="-63.5" font-family="Helvetica,sans-Serif" font-size="10.00" fill="#000000">ShiftRegisterOut.hpp</text>
</a>
</g>
</g>
<!-- Node1&#45;&gt;Node2 -->
<g id="edge1" class="edge">
<title>Node1&#45;&gt;Node2</title>
<path fill="none" stroke="#191970" d="M157.2601,-108.5189C132.4917,-98.3201 99.095,-84.5685 77.0742,-75.5011"/>
<polygon fill="#191970" stroke="#191970" points="156.0413,-111.8021 166.6208,-112.3733 158.7066,-105.3293 156.0413,-111.8021"/>
</g>
<!-- Node4 -->
<g id="node4" class="node">
<title>Node4</title>
<g id="a_node4"><a xlink:href="../../d5/d47/ShiftRegisterOutBase_8ipp.html" target="_top" xlink:title=" ">
<polygon fill="#ffffff" stroke="#000000" points="126,-56.5 126,-75.5 254,-75.5 254,-56.5 126,-56.5"/>
<text text-anchor="middle" x="190" y="-63.5" font-family="Helvetica,sans-Serif" font-size="10.00" fill="#000000">ShiftRegisterOutBase.ipp</text>
</a>
</g>
</g>
<!-- Node1&#45;&gt;Node4 -->
<g id="edge4" class="edge">
<title>Node1&#45;&gt;Node4</title>
<path fill="none" stroke="#191970" d="M183.5113,-102.1575C182.919,-93.155 183.3335,-82.9199 184.7549,-75.6427"/>
<polygon fill="#191970" stroke="#191970" points="180.0561,-102.739 184.7332,-112.2455 187.0053,-101.8972 180.0561,-102.739"/>
</g>
<!-- Node5 -->
<g id="node5" class="node">
<title>Node5</title>
<g id="a_node5"><a xlink:href="../../d7/d88/SPIShiftRegisterOut_8hpp.html" target="_top" xlink:title=" ">
<polygon fill="#ffffff" stroke="#000000" points="272.5,-56.5 272.5,-75.5 397.5,-75.5 397.5,-56.5 272.5,-56.5"/>
<text text-anchor="middle" x="335" y="-63.5" font-family="Helvetica,sans-Serif" font-size="10.00" fill="#000000">SPIShiftRegisterOut.hpp</text>
</a>
</g>
</g>
<!-- Node1&#45;&gt;Node5 -->
<g id="edge6" class="edge">
<title>Node1&#45;&gt;Node5</title>
<path fill="none" stroke="#191970" d="M224.5565,-108.6541C250.9986,-98.4419 286.8169,-84.6086 310.3989,-75.5011"/>
<polygon fill="#191970" stroke="#191970" points="222.9939,-105.5055 214.9264,-112.3733 225.5158,-112.0354 222.9939,-105.5055"/>
</g>
<!-- Node3 -->
<g id="node3" class="node">
<title>Node3</title>
<g id="a_node3"><a xlink:href="../../de/d95/ShiftRegisterOut_8ipp.html" target="_top" xlink:title=" ">
<polygon fill="#ffffff" stroke="#000000" points="1.5,-.5 1.5,-19.5 106.5,-19.5 106.5,-.5 1.5,-.5"/>
<text text-anchor="middle" x="54" y="-7.5" font-family="Helvetica,sans-Serif" font-size="10.00" fill="#000000">ShiftRegisterOut.ipp</text>
</a>
</g>
</g>
<!-- Node2&#45;&gt;Node3 -->
<g id="edge2" class="edge">
<title>Node2&#45;&gt;Node3</title>
<path fill="none" stroke="#191970" d="M47.5113,-46.1575C46.919,-37.155 47.3335,-26.9199 48.7549,-19.6427"/>
<polygon fill="#191970" stroke="#191970" points="44.0561,-46.739 48.7332,-56.2455 51.0053,-45.8972 44.0561,-46.739"/>
</g>
<!-- Node3&#45;&gt;Node2 -->
<g id="edge3" class="edge">
<title>Node3&#45;&gt;Node2</title>
<path fill="none" stroke="#191970" d="M60.4795,-29.7046C61.0821,-38.6944 60.6779,-48.9382 59.2668,-56.2455"/>
<polygon fill="#191970" stroke="#191970" points="63.9368,-29.1421 59.2451,-19.6427 56.9889,-29.9945 63.9368,-29.1421"/>
</g>
<!-- Node4&#45;&gt;Node1 -->
<g id="edge5" class="edge">
<title>Node4&#45;&gt;Node1</title>
<path fill="none" stroke="#191970" d="M196.4795,-85.7046C197.0821,-94.6944 196.6779,-104.9382 195.2668,-112.2455"/>
<polygon fill="#191970" stroke="#191970" points="199.9368,-85.1421 195.2451,-75.6427 192.9889,-85.9945 199.9368,-85.1421"/>
</g>
<!-- Node6 -->
<g id="node6" class="node">
<title>Node6</title>
<g id="a_node6"><a xlink:href="../../da/d45/SPIShiftRegisterOut_8ipp.html" target="_top" xlink:title=" ">
<polygon fill="#ffffff" stroke="#000000" points="274,-.5 274,-19.5 396,-19.5 396,-.5 274,-.5"/>
<text text-anchor="middle" x="335" y="-7.5" font-family="Helvetica,sans-Serif" font-size="10.00" fill="#000000">SPIShiftRegisterOut.ipp</text>
</a>
</g>
</g>
<!-- Node5&#45;&gt;Node6 -->
<g id="edge7" class="edge">
<title>Node5&#45;&gt;Node6</title>
<path fill="none" stroke="#191970" d="M328.5113,-46.1575C327.919,-37.155 328.3335,-26.9199 329.7549,-19.6427"/>
<polygon fill="#191970" stroke="#191970" points="325.0561,-46.739 329.7332,-56.2455 332.0053,-45.8972 325.0561,-46.739"/>
</g>
<!-- Node6&#45;&gt;Node5 -->
<g id="edge8" class="edge">
<title>Node6&#45;&gt;Node5</title>
<path fill="none" stroke="#191970" d="M341.4795,-29.7046C342.0821,-38.6944 341.6779,-48.9382 340.2668,-56.2455"/>
<polygon fill="#191970" stroke="#191970" points="344.9368,-29.1421 340.2451,-19.6427 337.9889,-29.9945 344.9368,-29.1421"/>
</g>
</g>
</svg>
