<?xml version="1.0" encoding="UTF-8" standalone="no"?>
<!DOCTYPE svg PUBLIC "-//W3C//DTD SVG 1.1//EN"
 "http://www.w3.org/Graphics/SVG/1.1/DTD/svg11.dtd">
<!-- Generated by graphviz version 2.40.1 (20161225.0304)
 -->
<!-- Title: IIRFilter.hpp Pages: 1 -->
<svg width="884pt" height="644pt"
 viewBox="0.00 0.00 884.00 644.00" xmlns="http://www.w3.org/2000/svg" xmlns:xlink="http://www.w3.org/1999/xlink">
<g id="graph0" class="graph" transform="scale(1 1) rotate(0) translate(4 640)">
<title>IIRFilter.hpp</title>
<polygon fill="#ffffff" stroke="transparent" points="-4,4 -4,-640 880,-640 880,4 -4,4"/>
<!-- Node1 -->
<g id="node1" class="node">
<title>Node1</title>
<g id="a_node1"><a xlink:title=" ">
<polygon fill="#bfbfbf" stroke="#000000" points="740,-616.5 740,-635.5 811,-635.5 811,-616.5 740,-616.5"/>
<text text-anchor="middle" x="775.5" y="-623.5" font-family="Helvetica,sans-Serif" font-size="10.00" fill="#000000">IIRFilter.hpp</text>
</a>
</g>
</g>
<!-- Node2 -->
<g id="node2" class="node">
<title>Node2</title>
<g id="a_node2"><a xlink:href="../../de/d76/Array_8hpp.html" target="_top" xlink:title=" ">
<polygon fill="#ffffff" stroke="#000000" points="614.5,-504.5 614.5,-523.5 740.5,-523.5 740.5,-504.5 614.5,-504.5"/>
<text text-anchor="middle" x="677.5" y="-511.5" font-family="Helvetica,sans-Serif" font-size="10.00" fill="#000000">AH/Containers/Array.hpp</text>
</a>
</g>
</g>
<!-- Node1&#45;&gt;Node2 -->
<g id="edge1" class="edge">
<title>Node1&#45;&gt;Node2</title>
<path fill="none" stroke="#191970" d="M774.7796,-616.4833C773.2946,-602.6901 768.8169,-576.9444 755.5,-560 744.4787,-545.9765 727.9066,-535.3481 712.8682,-527.8599"/>
<polygon fill="#191970" stroke="#191970" points="714.3071,-524.669 703.7663,-523.6009 711.3404,-531.0092 714.3071,-524.669"/>
</g>
<!-- Node12 -->
<g id="node12" class="node">
<title>Node12</title>
<g id="a_node12"><a xlink:title=" ">
<polygon fill="#ffffff" stroke="#bfbfbf" points="775,-112.5 775,-131.5 876,-131.5 876,-112.5 775,-112.5"/>
<text text-anchor="middle" x="825.5" y="-119.5" font-family="Helvetica,sans-Serif" font-size="10.00" fill="#000000">AH/STL/type_traits</text>
</a>
</g>
</g>
<!-- Node1&#45;&gt;Node12 -->
<g id="edge37" class="edge">
<title>Node1&#45;&gt;Node12</title>
<path fill="none" stroke="#191970" d="M782.942,-616.4319C796.6496,-597.819 824.5,-554.9622 824.5,-514 824.5,-514 824.5,-514 824.5,-234 824.5,-201.7103 824.9207,-164.1863 825.2164,-141.8043"/>
<polygon fill="#191970" stroke="#191970" points="828.719,-141.6353 825.3567,-131.5881 821.7196,-141.5391 828.719,-141.6353"/>
</g>
<!-- Node23 -->
<g id="node23" class="node">
<title>Node23</title>
<g id="a_node23"><a xlink:href="../../d2/d03/TransferFunction_8hpp.html" target="_top" xlink:title=" ">
<polygon fill="#ffffff" stroke="#000000" points="608,-560.5 608,-579.5 747,-579.5 747,-560.5 608,-560.5"/>
<text text-anchor="middle" x="677.5" y="-567.5" font-family="Helvetica,sans-Serif" font-size="10.00" fill="#000000">Filters/TransferFunction.hpp</text>
</a>
</g>
</g>
<!-- Node1&#45;&gt;Node23 -->
<g id="edge38" class="edge">
<title>Node1&#45;&gt;Node23</title>
<path fill="none" stroke="#191970" d="M758.4297,-616.2455C743.253,-607.5731 720.8379,-594.7645 703.4437,-584.825"/>
<polygon fill="#191970" stroke="#191970" points="704.7936,-581.5653 694.3747,-579.6427 701.3206,-587.643 704.7936,-581.5653"/>
</g>
<!-- Node3 -->
<g id="node3" class="node">
<title>Node3</title>
<g id="a_node3"><a xlink:href="../../d1/d65/Warnings_8hpp.html" target="_top" xlink:title=" ">
<polygon fill="#ffffff" stroke="#000000" points="474,-.5 474,-19.5 607,-19.5 607,-.5 474,-.5"/>
<text text-anchor="middle" x="540.5" y="-7.5" font-family="Helvetica,sans-Serif" font-size="10.00" fill="#000000">AH/Settings/Warnings.hpp</text>
</a>
</g>
</g>
<!-- Node2&#45;&gt;Node3 -->
<g id="edge2" class="edge">
<title>Node2&#45;&gt;Node3</title>
<path fill="none" stroke="#191970" d="M691.7872,-504.2752C703.0437,-495.9034 718.3208,-482.849 727.5,-468 743.5502,-442.0357 746.5,-432.5246 746.5,-402 746.5,-402 746.5,-402 746.5,-122 746.5,-60.9102 675.711,-32.9554 617.1267,-20.2805"/>
<polygon fill="#191970" stroke="#191970" points="617.5962,-16.8042 607.0978,-18.2307 616.1944,-23.6624 617.5962,-16.8042"/>
</g>
<!-- Node4 -->
<g id="node4" class="node">
<title>Node4</title>
<g id="a_node4"><a xlink:href="../../d1/d93/Error_8hpp.html" target="_top" xlink:title=" ">
<polygon fill="#ffffff" stroke="#000000" points="620.5,-448.5 620.5,-467.5 718.5,-467.5 718.5,-448.5 620.5,-448.5"/>
<text text-anchor="middle" x="669.5" y="-455.5" font-family="Helvetica,sans-Serif" font-size="10.00" fill="#000000">AH/Error/Error.hpp</text>
</a>
</g>
</g>
<!-- Node2&#45;&gt;Node4 -->
<g id="edge3" class="edge">
<title>Node2&#45;&gt;Node4</title>
<path fill="none" stroke="#191970" d="M676.1065,-504.2455C675.0626,-496.9382 673.5992,-486.6944 672.3149,-477.7046"/>
<polygon fill="#191970" stroke="#191970" points="675.7566,-477.0472 670.8775,-467.6427 668.827,-478.0372 675.7566,-477.0472"/>
</g>
<!-- Node2&#45;&gt;Node12 -->
<g id="edge35" class="edge">
<title>Node2&#45;&gt;Node12</title>
<path fill="none" stroke="#191970" d="M705.0555,-504.4849C722.9976,-497.0404 745.7296,-485.0664 760.5,-468 781.0271,-444.2821 785.5,-433.3672 785.5,-402 785.5,-402 785.5,-402 785.5,-234 785.5,-199.4432 802.597,-162.1996 814.4358,-140.5529"/>
<polygon fill="#191970" stroke="#191970" points="817.5287,-142.1941 819.4249,-131.7703 811.4422,-138.7365 817.5287,-142.1941"/>
</g>
<!-- Node18 -->
<g id="node18" class="node">
<title>Node18</title>
<g id="a_node18"><a xlink:title=" ">
<polygon fill="#ffffff" stroke="#bfbfbf" points="214.5,-224.5 214.5,-243.5 266.5,-243.5 266.5,-224.5 214.5,-224.5"/>
<text text-anchor="middle" x="240.5" y="-231.5" font-family="Helvetica,sans-Serif" font-size="10.00" fill="#000000">stddef.h</text>
</a>
</g>
</g>
<!-- Node2&#45;&gt;Node18 -->
<g id="edge36" class="edge">
<title>Node2&#45;&gt;Node18</title>
<path fill="none" stroke="#191970" d="M614.3817,-508.107C466.5903,-493.4606 110.5,-452.891 110.5,-402 110.5,-402 110.5,-402 110.5,-346 110.5,-296.0173 166.3406,-263.4427 204.8265,-246.9274"/>
<polygon fill="#191970" stroke="#191970" points="206.2765,-250.1156 214.1926,-243.0739 203.613,-243.6421 206.2765,-250.1156"/>
</g>
<!-- Node22 -->
<g id="node22" class="node">
<title>Node22</title>
<g id="a_node22"><a xlink:title=" ">
<polygon fill="#ffffff" stroke="#bfbfbf" points="517,-448.5 517,-467.5 602,-467.5 602,-448.5 517,-448.5"/>
<text text-anchor="middle" x="559.5" y="-455.5" font-family="Helvetica,sans-Serif" font-size="10.00" fill="#000000">AH/STL/iterator</text>
</a>
</g>
</g>
<!-- Node2&#45;&gt;Node22 -->
<g id="edge34" class="edge">
<title>Node2&#45;&gt;Node22</title>
<path fill="none" stroke="#191970" d="M657.2151,-504.3733C638.3579,-495.4241 610.054,-481.9917 588.7545,-471.8835"/>
<polygon fill="#191970" stroke="#191970" points="590.0551,-468.6266 579.5202,-467.5011 587.0539,-474.9506 590.0551,-468.6266"/>
</g>
<!-- Node4&#45;&gt;Node3 -->
<g id="edge4" class="edge">
<title>Node4&#45;&gt;Node3</title>
<path fill="none" stroke="#191970" d="M675.4233,-448.2094C686.3334,-429.2164 708.5,-385.7379 708.5,-346 708.5,-346 708.5,-346 708.5,-122 708.5,-66.741 644.7969,-37.0681 595.845,-22.4238"/>
<polygon fill="#191970" stroke="#191970" points="596.5396,-18.9825 585.9632,-19.6077 594.621,-25.7144 596.5396,-18.9825"/>
</g>
<!-- Node5 -->
<g id="node5" class="node">
<title>Node5</title>
<g id="a_node5"><a xlink:href="../../df/dee/Debug_8hpp.html" target="_top" xlink:title=" ">
<polygon fill="#ffffff" stroke="#000000" points="463,-392.5 463,-411.5 576,-411.5 576,-392.5 463,-392.5"/>
<text text-anchor="middle" x="519.5" y="-399.5" font-family="Helvetica,sans-Serif" font-size="10.00" fill="#000000">AH/Debug/Debug.hpp</text>
</a>
</g>
</g>
<!-- Node4&#45;&gt;Node5 -->
<g id="edge5" class="edge">
<title>Node4&#45;&gt;Node5</title>
<path fill="none" stroke="#191970" d="M643.7141,-448.3733C619.0953,-439.1822 581.81,-425.2624 554.5125,-415.0713"/>
<polygon fill="#191970" stroke="#191970" points="555.542,-411.7198 544.9494,-411.5011 553.0937,-418.2777 555.542,-411.7198"/>
</g>
<!-- Node5&#45;&gt;Node3 -->
<g id="edge6" class="edge">
<title>Node5&#45;&gt;Node3</title>
<path fill="none" stroke="#191970" d="M529.8788,-392.0747C563.994,-359.2485 670.5,-255.0789 670.5,-234 670.5,-234 670.5,-234 670.5,-122 670.5,-72.5666 615.8799,-40.1607 577.4485,-23.4777"/>
<polygon fill="#191970" stroke="#191970" points="578.6469,-20.1855 568.0697,-19.5743 575.9571,-26.6481 578.6469,-20.1855"/>
</g>
<!-- Node6 -->
<g id="node6" class="node">
<title>Node6</title>
<g id="a_node6"><a xlink:href="../../dd/d80/PrintStream_8hpp.html" target="_top" xlink:title=" ">
<polygon fill="#ffffff" stroke="#000000" points="0,-224.5 0,-243.5 159,-243.5 159,-224.5 0,-224.5"/>
<text text-anchor="middle" x="79.5" y="-231.5" font-family="Helvetica,sans-Serif" font-size="10.00" fill="#000000">AH/PrintStream/PrintStream.hpp</text>
</a>
</g>
</g>
<!-- Node5&#45;&gt;Node6 -->
<g id="edge7" class="edge">
<title>Node5&#45;&gt;Node6</title>
<path fill="none" stroke="#191970" d="M468.1511,-392.4706C398.66,-378.3504 271.9373,-348.2231 172.5,-300 144.7906,-286.562 116.4198,-265.0879 98.4213,-250.3043"/>
<polygon fill="#191970" stroke="#191970" points="100.3826,-247.3818 90.4672,-243.6489 95.8905,-252.7504 100.3826,-247.3818"/>
</g>
<!-- Node13 -->
<g id="node13" class="node">
<title>Node13</title>
<g id="a_node13"><a xlink:href="../../d2/dd5/SettingsWrapper_8hpp.html" target="_top" xlink:title=" ">
<polygon fill="#ffffff" stroke="#000000" points="382.5,-336.5 382.5,-355.5 546.5,-355.5 546.5,-336.5 382.5,-336.5"/>
<text text-anchor="middle" x="464.5" y="-343.5" font-family="Helvetica,sans-Serif" font-size="10.00" fill="#000000">AH/Settings/SettingsWrapper.hpp</text>
</a>
</g>
</g>
<!-- Node5&#45;&gt;Node13 -->
<g id="edge18" class="edge">
<title>Node5&#45;&gt;Node13</title>
<path fill="none" stroke="#191970" d="M504.6529,-392.2455C495.31,-384.2958 483.7453,-372.8706 475.2582,-363.3656"/>
<polygon fill="#191970" stroke="#191970" points="477.8559,-361.017 468.7253,-355.6427 472.5115,-365.5379 477.8559,-361.017"/>
</g>
<!-- Node21 -->
<g id="node21" class="node">
<title>Node21</title>
<g id="a_node21"><a xlink:href="../../d7/d52/DebugVal_8hpp.html" target="_top" xlink:title=" ">
<polygon fill="#ffffff" stroke="#000000" points="602.5,-336.5 602.5,-355.5 680.5,-355.5 680.5,-336.5 602.5,-336.5"/>
<text text-anchor="middle" x="641.5" y="-343.5" font-family="Helvetica,sans-Serif" font-size="10.00" fill="#000000">DebugVal.hpp</text>
</a>
</g>
</g>
<!-- Node5&#45;&gt;Node21 -->
<g id="edge33" class="edge">
<title>Node5&#45;&gt;Node21</title>
<path fill="none" stroke="#191970" d="M540.4725,-392.3733C560.0567,-383.3838 589.4961,-369.8706 611.551,-359.7471"/>
<polygon fill="#191970" stroke="#191970" points="613.1729,-362.8538 620.8011,-355.5011 610.2527,-356.4919 613.1729,-362.8538"/>
</g>
<!-- Node6&#45;&gt;Node3 -->
<g id="edge8" class="edge">
<title>Node6&#45;&gt;Node3</title>
<path fill="none" stroke="#191970" d="M70.2826,-224.1379C43.9242,-194.7638 -26.9669,-106.7503 19.5,-56 48.8689,-23.9238 326.0645,-14.0947 463.7107,-11.1791"/>
<polygon fill="#191970" stroke="#191970" points="463.85,-14.6771 473.7762,-10.973 463.7066,-7.6785 463.85,-14.6771"/>
</g>
<!-- Node7 -->
<g id="node7" class="node">
<title>Node7</title>
<g id="a_node7"><a xlink:href="../../d6/ddf/Arduino-Wrapper_8h.html" target="_top" xlink:title=" ">
<polygon fill="#ffffff" stroke="#000000" points="60,-168.5 60,-187.5 175,-187.5 175,-168.5 60,-168.5"/>
<text text-anchor="middle" x="117.5" y="-175.5" font-family="Helvetica,sans-Serif" font-size="10.00" fill="#000000">AH/Arduino&#45;Wrapper.h</text>
</a>
</g>
</g>
<!-- Node6&#45;&gt;Node7 -->
<g id="edge9" class="edge">
<title>Node6&#45;&gt;Node7</title>
<path fill="none" stroke="#191970" d="M86.1191,-224.2455C91.4046,-216.4564 98.9541,-205.3308 105.3238,-195.9439"/>
<polygon fill="#191970" stroke="#191970" points="108.2379,-197.8827 110.9568,-187.6427 102.4455,-193.9522 108.2379,-197.8827"/>
</g>
<!-- Node8 -->
<g id="node8" class="node">
<title>Node8</title>
<g id="a_node8"><a xlink:href="../../d7/d79/MinMaxFix_8hpp.html" target="_top" xlink:title=" ">
<polygon fill="#ffffff" stroke="#000000" points="55,-112.5 55,-131.5 180,-131.5 180,-112.5 55,-112.5"/>
<text text-anchor="middle" x="117.5" y="-119.5" font-family="Helvetica,sans-Serif" font-size="10.00" fill="#000000">AH/Math/MinMaxFix.hpp</text>
</a>
</g>
</g>
<!-- Node7&#45;&gt;Node8 -->
<g id="edge10" class="edge">
<title>Node7&#45;&gt;Node8</title>
<path fill="none" stroke="#191970" d="M117.5,-168.2455C117.5,-160.9382 117.5,-150.6944 117.5,-141.7046"/>
<polygon fill="#191970" stroke="#191970" points="121.0001,-141.6426 117.5,-131.6427 114.0001,-141.6427 121.0001,-141.6426"/>
</g>
<!-- Node10 -->
<g id="node10" class="node">
<title>Node10</title>
<g id="a_node10"><a xlink:title=" ">
<polygon fill="#ffffff" stroke="#bfbfbf" points="5.5,-.5 5.5,-19.5 63.5,-19.5 63.5,-.5 5.5,-.5"/>
<text text-anchor="middle" x="34.5" y="-7.5" font-family="Helvetica,sans-Serif" font-size="10.00" fill="#000000">Arduino.h</text>
</a>
</g>
</g>
<!-- Node7&#45;&gt;Node10 -->
<g id="edge17" class="edge">
<title>Node7&#45;&gt;Node10</title>
<path fill="none" stroke="#191970" d="M95.9604,-168.3583C80.292,-160.4504 59.4623,-147.9684 45.5,-132 22.0012,-105.1248 13.8967,-91.2572 19.5,-56 20.9301,-47.0016 23.8412,-37.3703 26.7216,-29.2579"/>
<polygon fill="#191970" stroke="#191970" points="30.092,-30.2407 30.3632,-19.6493 23.5463,-27.7599 30.092,-30.2407"/>
</g>
<!-- Node7&#45;&gt;Node12 -->
<g id="edge16" class="edge">
<title>Node7&#45;&gt;Node12</title>
<path fill="none" stroke="#191970" d="M175.1384,-173.441C307.0555,-163.0069 629.9147,-137.47 764.7646,-126.8039"/>
<polygon fill="#191970" stroke="#191970" points="765.2216,-130.2788 774.9145,-126.0011 764.6696,-123.3006 765.2216,-130.2788"/>
</g>
<!-- Node8&#45;&gt;Node3 -->
<g id="edge11" class="edge">
<title>Node8&#45;&gt;Node3</title>
<path fill="none" stroke="#191970" d="M133.3696,-112.3667C162.1938,-94.9362 221.1376,-59.6223 231.5,-56 307.7647,-29.3404 399.8951,-18.1313 463.6071,-13.4185"/>
<polygon fill="#191970" stroke="#191970" points="464.2456,-16.8824 473.9758,-12.6903 463.7551,-9.8996 464.2456,-16.8824"/>
</g>
<!-- Node9 -->
<g id="node9" class="node">
<title>Node9</title>
<g id="a_node9"><a xlink:href="../../d6/d3b/FixArduinoMacros_8hpp.html" target="_top" xlink:title=" ">
<polygon fill="#ffffff" stroke="#000000" points="28.5,-56.5 28.5,-75.5 184.5,-75.5 184.5,-56.5 28.5,-56.5"/>
<text text-anchor="middle" x="106.5" y="-63.5" font-family="Helvetica,sans-Serif" font-size="10.00" fill="#000000">AH/Math/FixArduinoMacros.hpp</text>
</a>
</g>
</g>
<!-- Node8&#45;&gt;Node9 -->
<g id="edge12" class="edge">
<title>Node8&#45;&gt;Node9</title>
<path fill="none" stroke="#191970" d="M115.5839,-112.2455C114.1486,-104.9382 112.1364,-94.6944 110.3705,-85.7046"/>
<polygon fill="#191970" stroke="#191970" points="113.756,-84.7805 108.3941,-75.6427 106.8873,-86.1298 113.756,-84.7805"/>
</g>
<!-- Node11 -->
<g id="node11" class="node">
<title>Node11</title>
<g id="a_node11"><a xlink:href="../../dc/dc7/NamespaceSettings_8hpp.html" target="_top" xlink:title=" ">
<polygon fill="#ffffff" stroke="#000000" points="240.5,-56.5 240.5,-75.5 420.5,-75.5 420.5,-56.5 240.5,-56.5"/>
<text text-anchor="middle" x="330.5" y="-63.5" font-family="Helvetica,sans-Serif" font-size="10.00" fill="#000000">AH/Settings/NamespaceSettings.hpp</text>
</a>
</g>
</g>
<!-- Node8&#45;&gt;Node11 -->
<g id="edge15" class="edge">
<title>Node8&#45;&gt;Node11</title>
<path fill="none" stroke="#191970" d="M154.116,-112.3733C190.148,-102.9001 245.2878,-88.4032 284.3114,-78.1435"/>
<polygon fill="#191970" stroke="#191970" points="285.5804,-81.4289 294.3618,-75.5011 283.8005,-74.6589 285.5804,-81.4289"/>
</g>
<!-- Node9&#45;&gt;Node3 -->
<g id="edge13" class="edge">
<title>Node9&#45;&gt;Node3</title>
<path fill="none" stroke="#191970" d="M180.6141,-56.4369C259.5522,-46.2513 383.9013,-30.2063 463.8105,-19.8954"/>
<polygon fill="#191970" stroke="#191970" points="464.3429,-23.3558 473.8127,-18.6048 463.447,-16.4134 464.3429,-23.3558"/>
</g>
<!-- Node9&#45;&gt;Node10 -->
<g id="edge14" class="edge">
<title>Node9&#45;&gt;Node10</title>
<path fill="none" stroke="#191970" d="M93.9586,-56.2455C83.2213,-47.8943 67.5527,-35.7076 54.9953,-25.9408"/>
<polygon fill="#191970" stroke="#191970" points="56.9401,-23.0194 46.8977,-19.6427 52.6425,-28.5449 56.9401,-23.0194"/>
</g>
<!-- Node13&#45;&gt;Node3 -->
<g id="edge19" class="edge">
<title>Node13&#45;&gt;Node3</title>
<path fill="none" stroke="#191970" d="M509.9632,-336.3923C559.7171,-322.899 632.5,-293.0659 632.5,-234 632.5,-234 632.5,-234 632.5,-122 632.5,-79.5397 592.5299,-44.3942 565.281,-25.3678"/>
<polygon fill="#191970" stroke="#191970" points="567.2,-22.4405 556.9478,-19.768 563.2957,-28.2506 567.2,-22.4405"/>
</g>
<!-- Node13&#45;&gt;Node5 -->
<g id="edge32" class="edge">
<title>Node13&#45;&gt;Node5</title>
<path fill="none" stroke="#191970" d="M479.2156,-355.6427C488.5375,-363.5596 500.1061,-374.9775 508.622,-384.5004"/>
<polygon fill="#191970" stroke="#191970" points="506.0508,-386.88 515.1866,-392.2455 511.3908,-382.354 506.0508,-386.88"/>
</g>
<!-- Node13&#45;&gt;Node11 -->
<g id="edge20" class="edge">
<title>Node13&#45;&gt;Node11</title>
<path fill="none" stroke="#191970" d="M382.498,-337.3535C325.8547,-329.969 256.702,-317.7063 233.5,-300 211.379,-283.1186 211.8932,-271.0822 205.5,-244 188.9708,-173.9811 266.2774,-109.5934 306.9057,-81.2361"/>
<polygon fill="#191970" stroke="#191970" points="308.9071,-84.1077 315.205,-75.5879 304.9687,-78.3207 308.9071,-84.1077"/>
</g>
<!-- Node14 -->
<g id="node14" class="node">
<title>Node14</title>
<g id="a_node14"><a xlink:href="../../db/d02/Settings_8hpp.html" target="_top" xlink:title="All user settings and debugging options can be changed here.">
<polygon fill="#ffffff" stroke="#000000" points="429,-280.5 429,-299.5 500,-299.5 500,-280.5 429,-280.5"/>
<text text-anchor="middle" x="464.5" y="-287.5" font-family="Helvetica,sans-Serif" font-size="10.00" fill="#000000">Settings.hpp</text>
</a>
</g>
</g>
<!-- Node13&#45;&gt;Node14 -->
<g id="edge21" class="edge">
<title>Node13&#45;&gt;Node14</title>
<path fill="none" stroke="#191970" d="M464.5,-336.2455C464.5,-328.9382 464.5,-318.6944 464.5,-309.7046"/>
<polygon fill="#191970" stroke="#191970" points="468.0001,-309.6426 464.5,-299.6427 461.0001,-309.6427 468.0001,-309.6426"/>
</g>
<!-- Node20 -->
<g id="node20" class="node">
<title>Node20</title>
<g id="a_node20"><a xlink:href="../../d9/d98/TeensyUSBTypes_8hpp.html" target="_top" xlink:title=" ">
<polygon fill="#ffffff" stroke="#000000" points="242.5,-280.5 242.5,-299.5 410.5,-299.5 410.5,-280.5 242.5,-280.5"/>
<text text-anchor="middle" x="326.5" y="-287.5" font-family="Helvetica,sans-Serif" font-size="10.00" fill="#000000">AH/Teensy/TeensyUSBTypes.hpp</text>
</a>
</g>
</g>
<!-- Node13&#45;&gt;Node20 -->
<g id="edge31" class="edge">
<title>Node13&#45;&gt;Node20</title>
<path fill="none" stroke="#191970" d="M440.777,-336.3733C418.3263,-327.2629 384.4261,-313.5062 359.3745,-303.3404"/>
<polygon fill="#191970" stroke="#191970" points="360.4957,-300.0182 349.9135,-299.5011 357.8635,-306.5045 360.4957,-300.0182"/>
</g>
<!-- Node15 -->
<g id="node15" class="node">
<title>Node15</title>
<g id="a_node15"><a xlink:href="../../dc/d50/Frequency_8hpp.html" target="_top" xlink:title=" ">
<polygon fill="#ffffff" stroke="#000000" points="476.5,-112.5 476.5,-131.5 604.5,-131.5 604.5,-112.5 476.5,-112.5"/>
<text text-anchor="middle" x="540.5" y="-119.5" font-family="Helvetica,sans-Serif" font-size="10.00" fill="#000000">AH/Types/Frequency.hpp</text>
</a>
</g>
</g>
<!-- Node14&#45;&gt;Node15 -->
<g id="edge22" class="edge">
<title>Node14&#45;&gt;Node15</title>
<path fill="none" stroke="#191970" d="M500.0663,-285.6326C525.7783,-280.41 558.8136,-268.9775 575.5,-244 597.3032,-211.3632 571.8202,-165.0789 554.2987,-139.9397"/>
<polygon fill="#191970" stroke="#191970" points="557.0181,-137.7282 548.306,-131.6991 551.3568,-141.8452 557.0181,-137.7282"/>
</g>
<!-- Node16 -->
<g id="node16" class="node">
<title>Node16</title>
<g id="a_node16"><a xlink:href="../../d7/d7c/ADCConfig_8hpp.html" target="_top" xlink:title="This file contains the platform&#45;specific ADC resolutions. By default, the library automatically selec...">
<polygon fill="#ffffff" stroke="#000000" points="418.5,-224.5 418.5,-243.5 566.5,-243.5 566.5,-224.5 418.5,-224.5"/>
<text text-anchor="middle" x="492.5" y="-231.5" font-family="Helvetica,sans-Serif" font-size="10.00" fill="#000000">AH/Hardware/ADCConfig.hpp</text>
</a>
</g>
</g>
<!-- Node14&#45;&gt;Node16 -->
<g id="edge25" class="edge">
<title>Node14&#45;&gt;Node16</title>
<path fill="none" stroke="#191970" d="M469.3772,-280.2455C473.1513,-272.6973 478.4921,-262.0158 483.0901,-252.8197"/>
<polygon fill="#191970" stroke="#191970" points="486.337,-254.1522 487.6787,-243.6427 480.076,-251.0217 486.337,-254.1522"/>
</g>
<!-- Node17 -->
<g id="node17" class="node">
<title>Node17</title>
<g id="a_node17"><a xlink:title=" ">
<polygon fill="#ffffff" stroke="#bfbfbf" points="352.5,-224.5 352.5,-243.5 400.5,-243.5 400.5,-224.5 352.5,-224.5"/>
<text text-anchor="middle" x="376.5" y="-231.5" font-family="Helvetica,sans-Serif" font-size="10.00" fill="#000000">limits.h</text>
</a>
</g>
</g>
<!-- Node14&#45;&gt;Node17 -->
<g id="edge28" class="edge">
<title>Node14&#45;&gt;Node17</title>
<path fill="none" stroke="#191970" d="M449.1716,-280.2455C435.6697,-271.6534 415.7878,-259.0014 400.2314,-249.1018"/>
<polygon fill="#191970" stroke="#191970" points="401.9685,-246.0587 391.6528,-243.6427 398.2103,-251.9643 401.9685,-246.0587"/>
</g>
<!-- Node14&#45;&gt;Node18 -->
<g id="edge29" class="edge">
<title>Node14&#45;&gt;Node18</title>
<path fill="none" stroke="#191970" d="M428.8632,-281.7701C392.7956,-273.3426 335.1963,-259.6172 276.6292,-244.2315"/>
<polygon fill="#191970" stroke="#191970" points="277.4047,-240.8164 266.8425,-241.6471 275.6174,-247.5844 277.4047,-240.8164"/>
</g>
<!-- Node19 -->
<g id="node19" class="node">
<title>Node19</title>
<g id="a_node19"><a xlink:title=" ">
<polygon fill="#ffffff" stroke="#bfbfbf" points="285,-224.5 285,-243.5 334,-243.5 334,-224.5 285,-224.5"/>
<text text-anchor="middle" x="309.5" y="-231.5" font-family="Helvetica,sans-Serif" font-size="10.00" fill="#000000">stdint.h</text>
</a>
</g>
</g>
<!-- Node14&#45;&gt;Node19 -->
<g id="edge30" class="edge">
<title>Node14&#45;&gt;Node19</title>
<path fill="none" stroke="#191970" d="M437.8546,-280.3733C411.839,-270.9741 372.1351,-256.6295 343.7793,-246.3848"/>
<polygon fill="#191970" stroke="#191970" points="344.8581,-243.0532 334.2638,-242.9469 342.4795,-249.6367 344.8581,-243.0532"/>
</g>
<!-- Node15&#45;&gt;Node3 -->
<g id="edge23" class="edge">
<title>Node15&#45;&gt;Node3</title>
<path fill="none" stroke="#191970" d="M540.5,-112.4509C540.5,-94.184 540.5,-53.9553 540.5,-29.6976"/>
<polygon fill="#191970" stroke="#191970" points="544.0001,-29.5249 540.5,-19.5249 537.0001,-29.5249 544.0001,-29.5249"/>
</g>
<!-- Node15&#45;&gt;Node11 -->
<g id="edge24" class="edge">
<title>Node15&#45;&gt;Node11</title>
<path fill="none" stroke="#191970" d="M504.3997,-112.3733C468.8752,-102.9001 414.512,-88.4032 376.0381,-78.1435"/>
<polygon fill="#191970" stroke="#191970" points="376.6934,-74.696 366.1292,-75.5011 374.8897,-81.4596 376.6934,-74.696"/>
</g>
<!-- Node16&#45;&gt;Node3 -->
<g id="edge26" class="edge">
<title>Node16&#45;&gt;Node3</title>
<path fill="none" stroke="#191970" d="M487.217,-224.3274C476.5268,-203.4508 454.4168,-152.7607 467.5,-112 478.4479,-77.892 505.4682,-45.5016 523.3849,-26.7049"/>
<polygon fill="#191970" stroke="#191970" points="525.9313,-29.1071 530.4327,-19.516 520.9328,-24.2066 525.9313,-29.1071"/>
</g>
<!-- Node16&#45;&gt;Node7 -->
<g id="edge27" class="edge">
<title>Node16&#45;&gt;Node7</title>
<path fill="none" stroke="#191970" d="M428.4613,-224.4369C360.6712,-214.3136 254.1215,-198.4021 185.0339,-188.0851"/>
<polygon fill="#191970" stroke="#191970" points="185.5288,-184.6202 175.1215,-186.6048 184.4949,-191.5435 185.5288,-184.6202"/>
</g>
<!-- Node23&#45;&gt;Node2 -->
<g id="edge39" class="edge">
<title>Node23&#45;&gt;Node2</title>
<path fill="none" stroke="#191970" d="M677.5,-560.2455C677.5,-552.9382 677.5,-542.6944 677.5,-533.7046"/>
<polygon fill="#191970" stroke="#191970" points="681.0001,-533.6426 677.5,-523.6427 674.0001,-533.6427 681.0001,-533.6426"/>
</g>
</g>
</svg>
