<?xml version="1.0" encoding="UTF-8" standalone="no"?>
<!DOCTYPE svg PUBLIC "-//W3C//DTD SVG 1.1//EN"
 "http://www.w3.org/Graphics/SVG/1.1/DTD/svg11.dtd">
<!-- Generated by graphviz version 2.43.0 (0)
 -->
<!-- Title: IIRFilter.hpp Pages: 1 -->
<svg width="1020pt" height="644pt"
 viewBox="0.00 0.00 1019.50 644.00" xmlns="http://www.w3.org/2000/svg" xmlns:xlink="http://www.w3.org/1999/xlink">
<g id="graph0" class="graph" transform="scale(1 1) rotate(0) translate(4 640)">
<title>IIRFilter.hpp</title>
<polygon fill="white" stroke="transparent" points="-4,4 -4,-640 1015.5,-640 1015.5,4 -4,4"/>
<!-- Node1 -->
<g id="node1" class="node">
<title>Node1</title>
<g id="a_node1"><a xlink:title=" ">
<polygon fill="#bfbfbf" stroke="black" points="775,-616.5 775,-635.5 849,-635.5 849,-616.5 775,-616.5"/>
<text text-anchor="middle" x="812" y="-623.5" font-family="Helvetica,sans-Serif" font-size="10.00">IIRFilter.hpp</text>
</a>
</g>
</g>
<!-- Node2 -->
<g id="node2" class="node">
<title>Node2</title>
<g id="a_node2"><a xlink:href="../../de/d76/Array_8hpp.html" target="_top" xlink:title=" ">
<polygon fill="white" stroke="black" points="640.5,-504.5 640.5,-523.5 775.5,-523.5 775.5,-504.5 640.5,-504.5"/>
<text text-anchor="middle" x="708" y="-511.5" font-family="Helvetica,sans-Serif" font-size="10.00">AH/Containers/Array.hpp</text>
</a>
</g>
</g>
<!-- Node1&#45;&gt;Node2 -->
<g id="edge1" class="edge">
<title>Node1&#45;&gt;Node2</title>
<path fill="none" stroke="midnightblue" d="M783.35,-616.36C764.78,-609.37 741.46,-597.73 727,-580 716.21,-566.77 711.55,-547.64 709.53,-533.56"/>
<polygon fill="midnightblue" stroke="midnightblue" points="713.01,-533.11 708.42,-523.55 706.05,-533.88 713.01,-533.11"/>
</g>
<!-- Node12 -->
<g id="node12" class="node">
<title>Node12</title>
<g id="a_node12"><a xlink:title=" ">
<polygon fill="white" stroke="#bfbfbf" points="904.5,-112.5 904.5,-131.5 1011.5,-131.5 1011.5,-112.5 904.5,-112.5"/>
<text text-anchor="middle" x="958" y="-119.5" font-family="Helvetica,sans-Serif" font-size="10.00">AH/STL/type_traits</text>
</a>
</g>
</g>
<!-- Node1&#45;&gt;Node12 -->
<g id="edge38" class="edge">
<title>Node1&#45;&gt;Node12</title>
<path fill="none" stroke="midnightblue" d="M838.39,-616.47C876.92,-602.16 944,-569.44 944,-515 944,-515 944,-515 944,-233 944,-200.54 950.07,-163.12 954.22,-141.36"/>
<polygon fill="midnightblue" stroke="midnightblue" points="957.66,-142 956.17,-131.51 950.79,-140.64 957.66,-142"/>
</g>
<!-- Node23 -->
<g id="node23" class="node">
<title>Node23</title>
<g id="a_node23"><a xlink:href="../../d2/d03/TransferFunction_8hpp.html" target="_top" xlink:title=" ">
<polygon fill="white" stroke="black" points="736.5,-560.5 736.5,-579.5 887.5,-579.5 887.5,-560.5 736.5,-560.5"/>
<text text-anchor="middle" x="812" y="-567.5" font-family="Helvetica,sans-Serif" font-size="10.00">Filters/TransferFunction.hpp</text>
</a>
</g>
</g>
<!-- Node1&#45;&gt;Node23 -->
<g id="edge39" class="edge">
<title>Node1&#45;&gt;Node23</title>
<path fill="none" stroke="midnightblue" d="M812,-616.08C812,-609.01 812,-598.86 812,-589.99"/>
<polygon fill="midnightblue" stroke="midnightblue" points="815.5,-589.75 812,-579.75 808.5,-589.75 815.5,-589.75"/>
</g>
<!-- Node3 -->
<g id="node3" class="node">
<title>Node3</title>
<g id="a_node3"><a xlink:href="../../d1/d65/Warnings_8hpp.html" target="_top" xlink:title=" ">
<polygon fill="white" stroke="black" points="260.5,-0.5 260.5,-19.5 403.5,-19.5 403.5,-0.5 260.5,-0.5"/>
<text text-anchor="middle" x="332" y="-7.5" font-family="Helvetica,sans-Serif" font-size="10.00">AH/Settings/Warnings.hpp</text>
</a>
</g>
</g>
<!-- Node2&#45;&gt;Node3 -->
<g id="edge2" class="edge">
<title>Node2&#45;&gt;Node3</title>
<path fill="none" stroke="midnightblue" d="M720.14,-504.34C730.8,-496.13 745.97,-482.87 755,-468 770.62,-442.27 774,-433.1 774,-403 774,-403 774,-403 774,-177 774,-146.9 774.91,-134.57 755,-112 749.83,-106.14 633.51,-58.16 626,-56 555.88,-35.78 473.58,-24.17 413.92,-17.83"/>
<polygon fill="midnightblue" stroke="midnightblue" points="414.11,-14.33 403.8,-16.78 413.39,-21.29 414.11,-14.33"/>
</g>
<!-- Node4 -->
<g id="node4" class="node">
<title>Node4</title>
<g id="a_node4"><a xlink:href="../../d1/d93/Error_8hpp.html" target="_top" xlink:title=" ">
<polygon fill="white" stroke="black" points="264,-448.5 264,-467.5 368,-467.5 368,-448.5 264,-448.5"/>
<text text-anchor="middle" x="316" y="-455.5" font-family="Helvetica,sans-Serif" font-size="10.00">AH/Error/Error.hpp</text>
</a>
</g>
</g>
<!-- Node2&#45;&gt;Node4 -->
<g id="edge3" class="edge">
<title>Node2&#45;&gt;Node4</title>
<path fill="none" stroke="midnightblue" d="M645.89,-504.44C572.59,-494.35 451.43,-477.66 378.13,-467.56"/>
<polygon fill="midnightblue" stroke="midnightblue" points="378.49,-464.08 368.11,-466.18 377.54,-471.01 378.49,-464.08"/>
</g>
<!-- Node2&#45;&gt;Node12 -->
<g id="edge36" class="edge">
<title>Node2&#45;&gt;Node12</title>
<path fill="none" stroke="midnightblue" d="M740.62,-504.39C783.93,-490.75 855,-459.74 855,-403 855,-403 855,-403 855,-233 855,-188.43 900.62,-154.46 931.14,-136.73"/>
<polygon fill="midnightblue" stroke="midnightblue" points="933.03,-139.68 940.06,-131.75 929.62,-133.57 933.03,-139.68"/>
</g>
<!-- Node18 -->
<g id="node18" class="node">
<title>Node18</title>
<g id="a_node18"><a xlink:title=" ">
<polygon fill="white" stroke="#bfbfbf" points="460,-224.5 460,-243.5 516,-243.5 516,-224.5 460,-224.5"/>
<text text-anchor="middle" x="488" y="-231.5" font-family="Helvetica,sans-Serif" font-size="10.00">stddef.h</text>
</a>
</g>
</g>
<!-- Node2&#45;&gt;Node18 -->
<g id="edge37" class="edge">
<title>Node2&#45;&gt;Node18</title>
<path fill="none" stroke="midnightblue" d="M691.27,-504.44C677.58,-496.65 658.64,-483.94 647,-468 629.01,-443.37 625,-433.5 625,-403 625,-403 625,-403 625,-345 625,-314.77 625.63,-302.09 605,-280 584.44,-257.98 551.91,-246.62 526.36,-240.82"/>
<polygon fill="midnightblue" stroke="midnightblue" points="526.75,-237.33 516.25,-238.73 525.33,-244.18 526.75,-237.33"/>
</g>
<!-- Node22 -->
<g id="node22" class="node">
<title>Node22</title>
<g id="a_node22"><a xlink:title=" ">
<polygon fill="white" stroke="#bfbfbf" points="656,-448.5 656,-467.5 746,-467.5 746,-448.5 656,-448.5"/>
<text text-anchor="middle" x="701" y="-455.5" font-family="Helvetica,sans-Serif" font-size="10.00">AH/STL/iterator</text>
</a>
</g>
</g>
<!-- Node2&#45;&gt;Node22 -->
<g id="edge35" class="edge">
<title>Node2&#45;&gt;Node22</title>
<path fill="none" stroke="midnightblue" d="M706.84,-504.08C705.92,-496.93 704.58,-486.64 703.42,-477.69"/>
<polygon fill="midnightblue" stroke="midnightblue" points="706.89,-477.22 702.13,-467.75 699.95,-478.12 706.89,-477.22"/>
</g>
<!-- Node4&#45;&gt;Node3 -->
<g id="edge4" class="edge">
<title>Node4&#45;&gt;Node3</title>
<path fill="none" stroke="midnightblue" d="M263.82,-449.84C174.07,-436.05 0,-402.19 0,-347 0,-347 0,-347 0,-121 0,-82.87 22.73,-74.64 56,-56 88.5,-37.79 181.21,-25.25 250.26,-18.11"/>
<polygon fill="midnightblue" stroke="midnightblue" points="250.67,-21.59 260.27,-17.1 249.97,-14.63 250.67,-21.59"/>
</g>
<!-- Node5 -->
<g id="node5" class="node">
<title>Node5</title>
<g id="a_node5"><a xlink:href="../../df/dee/Debug_8hpp.html" target="_top" xlink:title=" ">
<polygon fill="white" stroke="black" points="255.5,-392.5 255.5,-411.5 376.5,-411.5 376.5,-392.5 255.5,-392.5"/>
<text text-anchor="middle" x="316" y="-399.5" font-family="Helvetica,sans-Serif" font-size="10.00">AH/Debug/Debug.hpp</text>
</a>
</g>
</g>
<!-- Node4&#45;&gt;Node5 -->
<g id="edge5" class="edge">
<title>Node4&#45;&gt;Node5</title>
<path fill="none" stroke="midnightblue" d="M316,-448.08C316,-441.01 316,-430.86 316,-421.99"/>
<polygon fill="midnightblue" stroke="midnightblue" points="319.5,-421.75 316,-411.75 312.5,-421.75 319.5,-421.75"/>
</g>
<!-- Node5&#45;&gt;Node3 -->
<g id="edge6" class="edge">
<title>Node5&#45;&gt;Node3</title>
<path fill="none" stroke="midnightblue" d="M269.16,-392.48C189.93,-376.73 38,-340.11 38,-291 38,-291 38,-291 38,-121 38,-84 58.27,-75.02 90,-56 138.27,-27.07 200.91,-16 250.36,-12.06"/>
<polygon fill="midnightblue" stroke="midnightblue" points="250.66,-15.55 260.39,-11.35 250.16,-8.57 250.66,-15.55"/>
</g>
<!-- Node6 -->
<g id="node6" class="node">
<title>Node6</title>
<g id="a_node6"><a xlink:href="../../dd/d80/PrintStream_8hpp.html" target="_top" xlink:title=" ">
<polygon fill="white" stroke="black" points="572.5,-224.5 572.5,-243.5 745.5,-243.5 745.5,-224.5 572.5,-224.5"/>
<text text-anchor="middle" x="659" y="-231.5" font-family="Helvetica,sans-Serif" font-size="10.00">AH/PrintStream/PrintStream.hpp</text>
</a>
</g>
</g>
<!-- Node5&#45;&gt;Node6 -->
<g id="edge7" class="edge">
<title>Node5&#45;&gt;Node6</title>
<path fill="none" stroke="midnightblue" d="M376.7,-392.85C417.22,-386.1 471.09,-374.54 516,-356 559.2,-338.17 569.85,-330.8 605,-300 621.47,-285.56 637.1,-265.86 647.26,-251.94"/>
<polygon fill="midnightblue" stroke="midnightblue" points="650.15,-253.92 653.11,-243.74 644.45,-249.85 650.15,-253.92"/>
</g>
<!-- Node13 -->
<g id="node13" class="node">
<title>Node13</title>
<g id="a_node13"><a xlink:href="../../d2/dd5/SettingsWrapper_8hpp.html" target="_top" xlink:title=" ">
<polygon fill="white" stroke="black" points="227,-336.5 227,-355.5 405,-355.5 405,-336.5 227,-336.5"/>
<text text-anchor="middle" x="316" y="-343.5" font-family="Helvetica,sans-Serif" font-size="10.00">AH/Settings/SettingsWrapper.hpp</text>
</a>
</g>
</g>
<!-- Node5&#45;&gt;Node13 -->
<g id="edge19" class="edge">
<title>Node5&#45;&gt;Node13</title>
<path fill="none" stroke="midnightblue" d="M310.83,-392.08C309.32,-384.93 308.89,-374.64 309.54,-365.69"/>
<polygon fill="midnightblue" stroke="midnightblue" points="313.02,-366.13 310.87,-355.75 306.08,-365.2 313.02,-366.13"/>
</g>
<!-- Node21 -->
<g id="node21" class="node">
<title>Node21</title>
<g id="a_node21"><a xlink:href="../../d7/d52/DebugVal_8hpp.html" target="_top" xlink:title=" ">
<polygon fill="white" stroke="black" points="423,-336.5 423,-355.5 507,-355.5 507,-336.5 423,-336.5"/>
<text text-anchor="middle" x="465" y="-343.5" font-family="Helvetica,sans-Serif" font-size="10.00">DebugVal.hpp</text>
</a>
</g>
</g>
<!-- Node5&#45;&gt;Node21 -->
<g id="edge34" class="edge">
<title>Node5&#45;&gt;Node21</title>
<path fill="none" stroke="midnightblue" d="M339.61,-392.44C364.46,-383.44 403.77,-369.19 431.75,-359.05"/>
<polygon fill="midnightblue" stroke="midnightblue" points="433.29,-362.21 441.5,-355.52 430.91,-355.63 433.29,-362.21"/>
</g>
<!-- Node6&#45;&gt;Node3 -->
<g id="edge9" class="edge">
<title>Node6&#45;&gt;Node3</title>
<path fill="none" stroke="midnightblue" d="M645.22,-224.22C633.53,-216.12 617.09,-203.08 607,-188 572.62,-136.6 609.46,-96.81 563,-56 540.95,-36.64 470.94,-24.84 413.71,-18.21"/>
<polygon fill="midnightblue" stroke="midnightblue" points="413.88,-14.7 403.56,-17.07 413.1,-21.66 413.88,-14.7"/>
</g>
<!-- Node7 -->
<g id="node7" class="node">
<title>Node7</title>
<g id="a_node7"><a xlink:href="../../dc/dc7/NamespaceSettings_8hpp.html" target="_top" xlink:title=" ">
<polygon fill="white" stroke="black" points="359.5,-56.5 359.5,-75.5 554.5,-75.5 554.5,-56.5 359.5,-56.5"/>
<text text-anchor="middle" x="457" y="-63.5" font-family="Helvetica,sans-Serif" font-size="10.00">AH/Settings/NamespaceSettings.hpp</text>
</a>
</g>
</g>
<!-- Node6&#45;&gt;Node7 -->
<g id="edge8" class="edge">
<title>Node6&#45;&gt;Node7</title>
<path fill="none" stroke="midnightblue" d="M632.81,-224.45C613.29,-217.1 586.86,-204.99 568,-188 538.32,-161.26 547.43,-141.04 520,-112 508.56,-99.89 493.44,-88.96 480.87,-80.91"/>
<polygon fill="midnightblue" stroke="midnightblue" points="482.61,-77.86 472.26,-75.57 478.92,-83.82 482.61,-77.86"/>
</g>
<!-- Node8 -->
<g id="node8" class="node">
<title>Node8</title>
<g id="a_node8"><a xlink:href="../../d6/ddf/Arduino-Wrapper_8h.html" target="_top" xlink:title=" ">
<polygon fill="white" stroke="black" points="616,-168.5 616,-187.5 740,-187.5 740,-168.5 616,-168.5"/>
<text text-anchor="middle" x="678" y="-175.5" font-family="Helvetica,sans-Serif" font-size="10.00">AH/Arduino&#45;Wrapper.h</text>
</a>
</g>
</g>
<!-- Node6&#45;&gt;Node8 -->
<g id="edge10" class="edge">
<title>Node6&#45;&gt;Node8</title>
<path fill="none" stroke="midnightblue" d="M662.14,-224.08C664.68,-216.85 668.36,-206.41 671.53,-197.4"/>
<polygon fill="midnightblue" stroke="midnightblue" points="674.9,-198.35 674.92,-187.75 668.3,-196.02 674.9,-198.35"/>
</g>
<!-- Node9 -->
<g id="node9" class="node">
<title>Node9</title>
<g id="a_node9"><a xlink:href="../../d7/d79/MinMaxFix_8hpp.html" target="_top" xlink:title=" ">
<polygon fill="white" stroke="black" points="610,-112.5 610,-131.5 746,-131.5 746,-112.5 610,-112.5"/>
<text text-anchor="middle" x="678" y="-119.5" font-family="Helvetica,sans-Serif" font-size="10.00">AH/Math/MinMaxFix.hpp</text>
</a>
</g>
</g>
<!-- Node8&#45;&gt;Node9 -->
<g id="edge11" class="edge">
<title>Node8&#45;&gt;Node9</title>
<path fill="none" stroke="midnightblue" d="M678,-168.08C678,-161.01 678,-150.86 678,-141.99"/>
<polygon fill="midnightblue" stroke="midnightblue" points="681.5,-141.75 678,-131.75 674.5,-141.75 681.5,-141.75"/>
</g>
<!-- Node11 -->
<g id="node11" class="node">
<title>Node11</title>
<g id="a_node11"><a xlink:title=" ">
<polygon fill="white" stroke="#bfbfbf" points="795.5,-0.5 795.5,-19.5 858.5,-19.5 858.5,-0.5 795.5,-0.5"/>
<text text-anchor="middle" x="827" y="-7.5" font-family="Helvetica,sans-Serif" font-size="10.00">Arduino.h</text>
</a>
</g>
</g>
<!-- Node8&#45;&gt;Node11 -->
<g id="edge18" class="edge">
<title>Node8&#45;&gt;Node11</title>
<path fill="none" stroke="midnightblue" d="M717.05,-168.49C761.79,-156.42 833.06,-129.56 865,-76 875.11,-59.04 860.07,-39.47 846.03,-26.27"/>
<polygon fill="midnightblue" stroke="midnightblue" points="848.32,-23.63 838.5,-19.65 843.7,-28.88 848.32,-23.63"/>
</g>
<!-- Node8&#45;&gt;Node12 -->
<g id="edge17" class="edge">
<title>Node8&#45;&gt;Node12</title>
<path fill="none" stroke="midnightblue" d="M722.37,-168.44C771.62,-158.94 851.13,-143.61 903.97,-133.42"/>
<polygon fill="midnightblue" stroke="midnightblue" points="904.68,-136.85 913.84,-131.52 903.36,-129.97 904.68,-136.85"/>
</g>
<!-- Node9&#45;&gt;Node3 -->
<g id="edge12" class="edge">
<title>Node9&#45;&gt;Node3</title>
<path fill="none" stroke="midnightblue" d="M669.88,-112.17C656.16,-97.84 626.86,-69.76 596,-56 538.36,-30.29 467.61,-19.19 413.87,-14.44"/>
<polygon fill="midnightblue" stroke="midnightblue" points="413.95,-10.94 403.7,-13.6 413.38,-17.91 413.95,-10.94"/>
</g>
<!-- Node9&#45;&gt;Node7 -->
<g id="edge16" class="edge">
<title>Node9&#45;&gt;Node7</title>
<path fill="none" stroke="midnightblue" d="M642.98,-112.44C604.75,-103.1 543.43,-88.12 501.74,-77.93"/>
<polygon fill="midnightblue" stroke="midnightblue" points="502.4,-74.49 491.85,-75.52 500.74,-81.29 502.4,-74.49"/>
</g>
<!-- Node10 -->
<g id="node10" class="node">
<title>Node10</title>
<g id="a_node10"><a xlink:href="../../d6/d3b/FixArduinoMacros_8hpp.html" target="_top" xlink:title=" ">
<polygon fill="white" stroke="black" points="686,-56.5 686,-75.5 856,-75.5 856,-56.5 686,-56.5"/>
<text text-anchor="middle" x="771" y="-63.5" font-family="Helvetica,sans-Serif" font-size="10.00">AH/Math/FixArduinoMacros.hpp</text>
</a>
</g>
</g>
<!-- Node9&#45;&gt;Node10 -->
<g id="edge13" class="edge">
<title>Node9&#45;&gt;Node10</title>
<path fill="none" stroke="midnightblue" d="M692.94,-112.32C707.59,-103.82 730.13,-90.73 747.24,-80.8"/>
<polygon fill="midnightblue" stroke="midnightblue" points="749.2,-83.7 756.1,-75.65 745.69,-77.65 749.2,-83.7"/>
</g>
<!-- Node10&#45;&gt;Node3 -->
<g id="edge14" class="edge">
<title>Node10&#45;&gt;Node3</title>
<path fill="none" stroke="midnightblue" d="M701.44,-56.44C622.53,-46.74 494.09,-30.94 411.34,-20.76"/>
<polygon fill="midnightblue" stroke="midnightblue" points="411.59,-17.26 401.24,-19.52 410.73,-24.21 411.59,-17.26"/>
</g>
<!-- Node10&#45;&gt;Node11 -->
<g id="edge15" class="edge">
<title>Node10&#45;&gt;Node11</title>
<path fill="none" stroke="midnightblue" d="M780,-56.32C788.19,-48.42 800.51,-36.55 810.47,-26.94"/>
<polygon fill="midnightblue" stroke="midnightblue" points="813.07,-29.29 817.84,-19.83 808.21,-24.26 813.07,-29.29"/>
</g>
<!-- Node13&#45;&gt;Node3 -->
<g id="edge20" class="edge">
<title>Node13&#45;&gt;Node3</title>
<path fill="none" stroke="midnightblue" d="M226.97,-339.45C158.67,-329.79 76,-303.87 76,-235 76,-235 76,-235 76,-121 76,-43.96 175.08,-20.2 249.96,-13.25"/>
<polygon fill="midnightblue" stroke="midnightblue" points="250.68,-16.7 260.35,-12.37 250.09,-9.72 250.68,-16.7"/>
</g>
<!-- Node13&#45;&gt;Node5 -->
<g id="edge33" class="edge">
<title>Node13&#45;&gt;Node5</title>
<path fill="none" stroke="midnightblue" d="M321.13,-355.75C322.66,-362.86 323.1,-373.14 322.47,-382.1"/>
<polygon fill="midnightblue" stroke="midnightblue" points="318.99,-381.71 321.17,-392.08 325.93,-382.62 318.99,-381.71"/>
</g>
<!-- Node13&#45;&gt;Node7 -->
<g id="edge21" class="edge">
<title>Node13&#45;&gt;Node7</title>
<path fill="none" stroke="midnightblue" d="M326.87,-336.34C344.34,-322.76 380.17,-296.33 414,-280 460.71,-257.46 494.5,-285.95 525,-244 563.01,-191.72 502.7,-115.5 472.54,-82.83"/>
<polygon fill="midnightblue" stroke="midnightblue" points="475.02,-80.36 465.6,-75.5 469.94,-85.17 475.02,-80.36"/>
</g>
<!-- Node14 -->
<g id="node14" class="node">
<title>Node14</title>
<g id="a_node14"><a xlink:href="../../db/d02/Settings_8hpp.html" target="_top" xlink:title="All user settings and debugging options can be changed here.">
<polygon fill="white" stroke="black" points="239.5,-280.5 239.5,-299.5 316.5,-299.5 316.5,-280.5 239.5,-280.5"/>
<text text-anchor="middle" x="278" y="-287.5" font-family="Helvetica,sans-Serif" font-size="10.00">Settings.hpp</text>
</a>
</g>
</g>
<!-- Node13&#45;&gt;Node14 -->
<g id="edge22" class="edge">
<title>Node13&#45;&gt;Node14</title>
<path fill="none" stroke="midnightblue" d="M309.73,-336.08C304.36,-328.46 296.48,-317.26 289.92,-307.94"/>
<polygon fill="midnightblue" stroke="midnightblue" points="292.78,-305.91 284.16,-299.75 287.05,-309.94 292.78,-305.91"/>
</g>
<!-- Node20 -->
<g id="node20" class="node">
<title>Node20</title>
<g id="a_node20"><a xlink:href="../../d9/d98/TeensyUSBTypes_8hpp.html" target="_top" xlink:title=" ">
<polygon fill="white" stroke="black" points="423.5,-280.5 423.5,-299.5 596.5,-299.5 596.5,-280.5 423.5,-280.5"/>
<text text-anchor="middle" x="510" y="-287.5" font-family="Helvetica,sans-Serif" font-size="10.00">AH/Teensy/TeensyUSBTypes.hpp</text>
</a>
</g>
</g>
<!-- Node13&#45;&gt;Node20 -->
<g id="edge32" class="edge">
<title>Node13&#45;&gt;Node20</title>
<path fill="none" stroke="midnightblue" d="M346.74,-336.44C379.94,-327.2 432.99,-312.44 469.56,-302.26"/>
<polygon fill="midnightblue" stroke="midnightblue" points="470.71,-305.57 479.4,-299.52 468.83,-298.83 470.71,-305.57"/>
</g>
<!-- Node15 -->
<g id="node15" class="node">
<title>Node15</title>
<g id="a_node15"><a xlink:href="../../dc/d50/Frequency_8hpp.html" target="_top" xlink:title=" ">
<polygon fill="white" stroke="black" points="170,-112.5 170,-131.5 304,-131.5 304,-112.5 170,-112.5"/>
<text text-anchor="middle" x="237" y="-119.5" font-family="Helvetica,sans-Serif" font-size="10.00">AH/Types/Frequency.hpp</text>
</a>
</g>
</g>
<!-- Node14&#45;&gt;Node15 -->
<g id="edge23" class="edge">
<title>Node14&#45;&gt;Node15</title>
<path fill="none" stroke="midnightblue" d="M239.41,-288.87C205.28,-286.45 157.23,-276.89 133,-244 102.66,-202.81 170.23,-158.07 210.23,-136.35"/>
<polygon fill="midnightblue" stroke="midnightblue" points="212.04,-139.35 219.25,-131.58 208.77,-133.16 212.04,-139.35"/>
</g>
<!-- Node16 -->
<g id="node16" class="node">
<title>Node16</title>
<g id="a_node16"><a xlink:href="../../d7/d7c/ADCConfig_8hpp.html" target="_top" xlink:title="This file contains the platform&#45;specific ADC resolutions.">
<polygon fill="white" stroke="black" points="284.5,-224.5 284.5,-243.5 441.5,-243.5 441.5,-224.5 284.5,-224.5"/>
<text text-anchor="middle" x="363" y="-231.5" font-family="Helvetica,sans-Serif" font-size="10.00">AH/Hardware/ADCConfig.hpp</text>
</a>
</g>
</g>
<!-- Node14&#45;&gt;Node16 -->
<g id="edge26" class="edge">
<title>Node14&#45;&gt;Node16</title>
<path fill="none" stroke="midnightblue" d="M291.66,-280.32C304.92,-271.9 325.27,-258.97 340.85,-249.07"/>
<polygon fill="midnightblue" stroke="midnightblue" points="342.81,-251.97 349.38,-243.65 339.06,-246.06 342.81,-251.97"/>
</g>
<!-- Node17 -->
<g id="node17" class="node">
<title>Node17</title>
<g id="a_node17"><a xlink:title=" ">
<polygon fill="white" stroke="#bfbfbf" points="213.5,-224.5 213.5,-243.5 266.5,-243.5 266.5,-224.5 213.5,-224.5"/>
<text text-anchor="middle" x="240" y="-231.5" font-family="Helvetica,sans-Serif" font-size="10.00">limits.h</text>
</a>
</g>
</g>
<!-- Node14&#45;&gt;Node17 -->
<g id="edge29" class="edge">
<title>Node14&#45;&gt;Node17</title>
<path fill="none" stroke="midnightblue" d="M271.73,-280.08C266.36,-272.46 258.48,-261.26 251.92,-251.94"/>
<polygon fill="midnightblue" stroke="midnightblue" points="254.78,-249.91 246.16,-243.75 249.05,-253.94 254.78,-249.91"/>
</g>
<!-- Node14&#45;&gt;Node18 -->
<g id="edge30" class="edge">
<title>Node14&#45;&gt;Node18</title>
<path fill="none" stroke="midnightblue" d="M311.28,-280.44C349.04,-270.73 410.53,-254.92 450.11,-244.74"/>
<polygon fill="midnightblue" stroke="midnightblue" points="451.11,-248.1 459.92,-242.22 449.36,-241.32 451.11,-248.1"/>
</g>
<!-- Node19 -->
<g id="node19" class="node">
<title>Node19</title>
<g id="a_node19"><a xlink:title=" ">
<polygon fill="white" stroke="#bfbfbf" points="142.5,-224.5 142.5,-243.5 195.5,-243.5 195.5,-224.5 142.5,-224.5"/>
<text text-anchor="middle" x="169" y="-231.5" font-family="Helvetica,sans-Serif" font-size="10.00">stdint.h</text>
</a>
</g>
</g>
<!-- Node14&#45;&gt;Node19 -->
<g id="edge31" class="edge">
<title>Node14&#45;&gt;Node19</title>
<path fill="none" stroke="midnightblue" d="M260.49,-280.32C242.93,-271.62 215.67,-258.12 195.47,-248.11"/>
<polygon fill="midnightblue" stroke="midnightblue" points="196.98,-244.96 186.47,-243.65 193.88,-251.23 196.98,-244.96"/>
</g>
<!-- Node15&#45;&gt;Node3 -->
<g id="edge24" class="edge">
<title>Node15&#45;&gt;Node3</title>
<path fill="none" stroke="midnightblue" d="M244.45,-112.37C260.27,-94.05 297.41,-51.05 317.87,-27.36"/>
<polygon fill="midnightblue" stroke="midnightblue" points="320.69,-29.45 324.58,-19.59 315.4,-24.87 320.69,-29.45"/>
</g>
<!-- Node15&#45;&gt;Node7 -->
<g id="edge25" class="edge">
<title>Node15&#45;&gt;Node7</title>
<path fill="none" stroke="midnightblue" d="M271.86,-112.44C309.92,-103.1 370.96,-88.12 412.46,-77.93"/>
<polygon fill="midnightblue" stroke="midnightblue" points="413.43,-81.3 422.3,-75.52 411.76,-74.5 413.43,-81.3"/>
</g>
<!-- Node16&#45;&gt;Node3 -->
<g id="edge27" class="edge">
<title>Node16&#45;&gt;Node3</title>
<path fill="none" stroke="midnightblue" d="M361.78,-224.3C357.22,-191.63 341.06,-75.87 334.65,-29.96"/>
<polygon fill="midnightblue" stroke="midnightblue" points="338.09,-29.3 333.24,-19.88 331.16,-30.27 338.09,-29.3"/>
</g>
<!-- Node16&#45;&gt;Node8 -->
<g id="edge28" class="edge">
<title>Node16&#45;&gt;Node8</title>
<path fill="none" stroke="midnightblue" d="M412.91,-224.44C468.67,-214.89 558.89,-199.42 618.33,-189.23"/>
<polygon fill="midnightblue" stroke="midnightblue" points="619.06,-192.66 628.32,-187.52 617.87,-185.76 619.06,-192.66"/>
</g>
<!-- Node23&#45;&gt;Node2 -->
<g id="edge40" class="edge">
<title>Node23&#45;&gt;Node2</title>
<path fill="none" stroke="midnightblue" d="M795.29,-560.32C778.69,-551.7 753,-538.36 733.78,-528.39"/>
<polygon fill="midnightblue" stroke="midnightblue" points="735.16,-525.16 724.67,-523.65 731.93,-531.37 735.16,-525.16"/>
</g>
</g>
</svg>
