<?xml version="1.0" encoding="UTF-8" standalone="no"?>
<!DOCTYPE svg PUBLIC "-//W3C//DTD SVG 1.1//EN"
 "http://www.w3.org/Graphics/SVG/1.1/DTD/svg11.dtd">
<!-- Generated by graphviz version 2.38.0 (20140413.2041)
 -->
<!-- Title: IIRFilter.hpp Pages: 1 -->
<svg width="747pt" height="420pt"
 viewBox="0.00 0.00 746.50 420.00" xmlns="http://www.w3.org/2000/svg" xmlns:xlink="http://www.w3.org/1999/xlink">
<g id="graph0" class="graph" transform="scale(1 1) rotate(0) translate(4 416)">
<title>IIRFilter.hpp</title>
<polygon fill="white" stroke="none" points="-4,4 -4,-416 742.5,-416 742.5,4 -4,4"/>
<!-- Node1 -->
<g id="node1" class="node"><title>Node1</title>
<g id="a_node1"><a xlink:title=" ">
<polygon fill="#bfbfbf" stroke="black" points="239.5,-392.5 239.5,-411.5 310.5,-411.5 310.5,-392.5 239.5,-392.5"/>
<text text-anchor="middle" x="275" y="-399.5" font-family="Helvetica,sans-Serif" font-size="10.00">IIRFilter.hpp</text>
</a>
</g>
</g>
<!-- Node2 -->
<g id="node2" class="node"><title>Node2</title>
<g id="a_node2"><a xlink:href="../../de/d76/Array_8hpp.html" target="_top" xlink:title=" ">
<polygon fill="white" stroke="black" points="160,-336.5 160,-355.5 286,-355.5 286,-336.5 160,-336.5"/>
<text text-anchor="middle" x="223" y="-343.5" font-family="Helvetica,sans-Serif" font-size="10.00">AH/Containers/Array.hpp</text>
</a>
</g>
</g>
<!-- Node1&#45;&gt;Node2 -->
<g id="edge1" class="edge"><title>Node1&#45;&gt;Node2</title>
<path fill="none" stroke="midnightblue" d="M266.413,-392.083C258.841,-384.22 247.622,-372.569 238.486,-363.081"/>
<polygon fill="midnightblue" stroke="midnightblue" points="240.885,-360.527 231.427,-355.751 235.842,-365.382 240.885,-360.527"/>
</g>
<!-- Node17 -->
<g id="node17" class="node"><title>Node17</title>
<g id="a_node17"><a xlink:title=" ">
<polygon fill="white" stroke="#bfbfbf" points="283.5,-280.5 283.5,-299.5 384.5,-299.5 384.5,-280.5 283.5,-280.5"/>
<text text-anchor="middle" x="334" y="-287.5" font-family="Helvetica,sans-Serif" font-size="10.00">AH/STL/type_traits</text>
</a>
</g>
</g>
<!-- Node1&#45;&gt;Node17 -->
<g id="edge22" class="edge"><title>Node1&#45;&gt;Node17</title>
<path fill="none" stroke="midnightblue" d="M279.63,-392.368C289.28,-374.376 311.714,-332.55 324.546,-308.627"/>
<polygon fill="midnightblue" stroke="midnightblue" points="327.75,-310.058 329.392,-299.591 321.581,-306.749 327.75,-310.058"/>
</g>
<!-- Node3 -->
<g id="node3" class="node"><title>Node3</title>
<g id="a_node3"><a xlink:href="../../d1/d93/Error_8hpp.html" target="_top" xlink:title=" ">
<polygon fill="white" stroke="black" points="167,-280.5 167,-299.5 265,-299.5 265,-280.5 167,-280.5"/>
<text text-anchor="middle" x="216" y="-287.5" font-family="Helvetica,sans-Serif" font-size="10.00">AH/Error/Error.hpp</text>
</a>
</g>
</g>
<!-- Node2&#45;&gt;Node3 -->
<g id="edge2" class="edge"><title>Node2&#45;&gt;Node3</title>
<path fill="none" stroke="midnightblue" d="M221.844,-336.083C220.916,-328.927 219.582,-318.635 218.423,-309.691"/>
<polygon fill="midnightblue" stroke="midnightblue" points="221.891,-309.218 217.134,-299.751 214.949,-310.118 221.891,-309.218"/>
</g>
<!-- Node13 -->
<g id="node13" class="node"><title>Node13</title>
<g id="a_node13"><a xlink:title=" ">
<polygon fill="white" stroke="#bfbfbf" points="0,-56.5 0,-75.5 52,-75.5 52,-56.5 0,-56.5"/>
<text text-anchor="middle" x="26" y="-63.5" font-family="Helvetica,sans-Serif" font-size="10.00">stddef.h</text>
</a>
</g>
</g>
<!-- Node2&#45;&gt;Node13 -->
<g id="edge21" class="edge"><title>Node2&#45;&gt;Node13</title>
<path fill="none" stroke="midnightblue" d="M166.294,-336.497C110.623,-324.557 34,-296.883 34,-235 34,-235 34,-235 34,-177 34,-144.863 30.5614,-107.584 28.193,-85.7187"/>
<polygon fill="midnightblue" stroke="midnightblue" points="31.6441,-85.0874 27.0459,-75.5424 24.6881,-85.8715 31.6441,-85.0874"/>
</g>
<!-- Node2&#45;&gt;Node17 -->
<g id="edge20" class="edge"><title>Node2&#45;&gt;Node17</title>
<path fill="none" stroke="midnightblue" d="M240.834,-336.324C258.716,-327.625 286.475,-314.12 307.046,-304.113"/>
<polygon fill="midnightblue" stroke="midnightblue" points="308.749,-307.177 316.21,-299.655 305.687,-300.882 308.749,-307.177"/>
</g>
<!-- Node4 -->
<g id="node4" class="node"><title>Node4</title>
<g id="a_node4"><a xlink:href="../../df/dee/Debug_8hpp.html" target="_top" xlink:title=" ">
<polygon fill="white" stroke="black" points="350.5,-224.5 350.5,-243.5 463.5,-243.5 463.5,-224.5 350.5,-224.5"/>
<text text-anchor="middle" x="407" y="-231.5" font-family="Helvetica,sans-Serif" font-size="10.00">AH/Debug/Debug.hpp</text>
</a>
</g>
</g>
<!-- Node3&#45;&gt;Node4 -->
<g id="edge3" class="edge"><title>Node3&#45;&gt;Node4</title>
<path fill="none" stroke="midnightblue" d="M246.265,-280.444C278.955,-271.201 331.182,-256.436 367.183,-246.257"/>
<polygon fill="midnightblue" stroke="midnightblue" points="368.206,-249.605 376.877,-243.516 366.302,-242.869 368.206,-249.605"/>
</g>
<!-- Node5 -->
<g id="node5" class="node"><title>Node5</title>
<g id="a_node5"><a xlink:href="../../dd/d80/PrintStream_8hpp.html" target="_top" xlink:title=" ">
<polygon fill="white" stroke="black" points="579.5,-112.5 579.5,-131.5 738.5,-131.5 738.5,-112.5 579.5,-112.5"/>
<text text-anchor="middle" x="659" y="-119.5" font-family="Helvetica,sans-Serif" font-size="10.00">AH/PrintStream/PrintStream.hpp</text>
</a>
</g>
</g>
<!-- Node4&#45;&gt;Node5 -->
<g id="edge4" class="edge"><title>Node4&#45;&gt;Node5</title>
<path fill="none" stroke="midnightblue" d="M463.771,-230.358C528.372,-226.074 628.163,-215.149 653,-188 664.106,-175.86 664.545,-156.583 662.843,-142.169"/>
<polygon fill="midnightblue" stroke="midnightblue" points="666.232,-141.196 661.183,-131.882 659.321,-142.312 666.232,-141.196"/>
</g>
<!-- Node6 -->
<g id="node6" class="node"><title>Node6</title>
<g id="a_node6"><a xlink:title=" ">
<polygon fill="white" stroke="#bfbfbf" points="535,-0.5 535,-19.5 593,-19.5 593,-0.5 535,-0.5"/>
<text text-anchor="middle" x="564" y="-7.5" font-family="Helvetica,sans-Serif" font-size="10.00">Arduino.h</text>
</a>
</g>
</g>
<!-- Node4&#45;&gt;Node6 -->
<g id="edge18" class="edge"><title>Node4&#45;&gt;Node6</title>
<path fill="none" stroke="midnightblue" d="M417.353,-224.228C442.878,-202.05 509.33,-140.871 545,-76 552.966,-61.5125 557.914,-43.3278 560.755,-29.8793"/>
<polygon fill="midnightblue" stroke="midnightblue" points="564.226,-30.3611 562.667,-19.8817 557.351,-29.0465 564.226,-30.3611"/>
</g>
<!-- Node7 -->
<g id="node7" class="node"><title>Node7</title>
<g id="a_node7"><a xlink:href="../../d2/dd5/SettingsWrapper_8hpp.html" target="_top" xlink:title=" ">
<polygon fill="white" stroke="black" points="256,-168.5 256,-187.5 420,-187.5 420,-168.5 256,-168.5"/>
<text text-anchor="middle" x="338" y="-175.5" font-family="Helvetica,sans-Serif" font-size="10.00">AH/Settings/SettingsWrapper.hpp</text>
</a>
</g>
</g>
<!-- Node4&#45;&gt;Node7 -->
<g id="edge6" class="edge"><title>Node4&#45;&gt;Node7</title>
<path fill="none" stroke="midnightblue" d="M390.799,-224.324C378.871,-216.341 363.143,-204.313 351.811,-194.653"/>
<polygon fill="midnightblue" stroke="midnightblue" points="353.939,-191.861 344.139,-187.834 349.288,-197.093 353.939,-191.861"/>
</g>
<!-- Node16 -->
<g id="node16" class="node"><title>Node16</title>
<g id="a_node16"><a xlink:href="../../d7/d52/DebugVal_8hpp.html" target="_top" xlink:title=" ">
<polygon fill="white" stroke="black" points="566,-168.5 566,-187.5 644,-187.5 644,-168.5 566,-168.5"/>
<text text-anchor="middle" x="605" y="-175.5" font-family="Helvetica,sans-Serif" font-size="10.00">DebugVal.hpp</text>
</a>
</g>
</g>
<!-- Node4&#45;&gt;Node16 -->
<g id="edge19" class="edge"><title>Node4&#45;&gt;Node16</title>
<path fill="none" stroke="midnightblue" d="M438.374,-224.444C472.263,-215.201 526.403,-200.436 563.724,-190.257"/>
<polygon fill="midnightblue" stroke="midnightblue" points="565.046,-193.524 573.773,-187.516 563.205,-186.771 565.046,-193.524"/>
</g>
<!-- Node5&#45;&gt;Node6 -->
<g id="edge5" class="edge"><title>Node5&#45;&gt;Node6</title>
<path fill="none" stroke="midnightblue" d="M651.546,-112.368C635.729,-94.0547 598.588,-51.0489 578.131,-27.3624"/>
<polygon fill="midnightblue" stroke="midnightblue" points="580.605,-24.872 571.42,-19.5914 575.307,-29.4474 580.605,-24.872"/>
</g>
<!-- Node7&#45;&gt;Node4 -->
<g id="edge17" class="edge"><title>Node7&#45;&gt;Node4</title>
<path fill="none" stroke="midnightblue" d="M354.169,-187.655C366.161,-195.677 382.006,-207.8 393.36,-217.493"/>
<polygon fill="midnightblue" stroke="midnightblue" points="391.233,-220.286 401.029,-224.324 395.889,-215.059 391.233,-220.286"/>
</g>
<!-- Node8 -->
<g id="node8" class="node"><title>Node8</title>
<g id="a_node8"><a xlink:href="../../dc/dc7/NamespaceSettings_8hpp.html" target="_top" xlink:title=" ">
<polygon fill="white" stroke="black" points="64,-0.5 64,-19.5 188,-19.5 188,-0.5 64,-0.5"/>
<text text-anchor="middle" x="126" y="-7.5" font-family="Helvetica,sans-Serif" font-size="10.00">NamespaceSettings.hpp</text>
</a>
</g>
</g>
<!-- Node7&#45;&gt;Node8 -->
<g id="edge7" class="edge"><title>Node7&#45;&gt;Node8</title>
<path fill="none" stroke="midnightblue" d="M255.984,-170.971C198.071,-164.933 127.305,-153.357 107,-132 83.5975,-107.385 89.9338,-88.732 99,-56 101.792,-45.9205 107.509,-35.832 112.967,-27.7694"/>
<polygon fill="midnightblue" stroke="midnightblue" points="115.825,-29.7899 118.849,-19.6357 110.153,-25.6881 115.825,-29.7899"/>
</g>
<!-- Node9 -->
<g id="node9" class="node"><title>Node9</title>
<g id="a_node9"><a xlink:href="../../db/d02/Settings_8hpp.html" target="_top" xlink:title="All user settings and debugging options can be changed here.">
<polygon fill="white" stroke="black" points="302.5,-112.5 302.5,-131.5 373.5,-131.5 373.5,-112.5 302.5,-112.5"/>
<text text-anchor="middle" x="338" y="-119.5" font-family="Helvetica,sans-Serif" font-size="10.00">Settings.hpp</text>
</a>
</g>
</g>
<!-- Node7&#45;&gt;Node9 -->
<g id="edge8" class="edge"><title>Node7&#45;&gt;Node9</title>
<path fill="none" stroke="midnightblue" d="M338,-168.083C338,-161.006 338,-150.861 338,-141.986"/>
<polygon fill="midnightblue" stroke="midnightblue" points="341.5,-141.751 338,-131.751 334.5,-141.751 341.5,-141.751"/>
</g>
<!-- Node15 -->
<g id="node15" class="node"><title>Node15</title>
<g id="a_node15"><a xlink:href="../../d9/d98/TeensyUSBTypes_8hpp.html" target="_top" xlink:title=" ">
<polygon fill="white" stroke="black" points="116,-112.5 116,-131.5 284,-131.5 284,-112.5 116,-112.5"/>
<text text-anchor="middle" x="200" y="-119.5" font-family="Helvetica,sans-Serif" font-size="10.00">AH/Teensy/TeensyUSBTypes.hpp</text>
</a>
</g>
</g>
<!-- Node7&#45;&gt;Node15 -->
<g id="edge16" class="edge"><title>Node7&#45;&gt;Node15</title>
<path fill="none" stroke="midnightblue" d="M316.133,-168.444C293.221,-159.478 257.025,-145.314 231.134,-135.183"/>
<polygon fill="midnightblue" stroke="midnightblue" points="232.352,-131.901 221.764,-131.516 229.801,-138.42 232.352,-131.901"/>
</g>
<!-- Node10 -->
<g id="node10" class="node"><title>Node10</title>
<g id="a_node10"><a xlink:href="../../dc/d50/Frequency_8hpp.html" target="_top" xlink:title=" ">
<polygon fill="white" stroke="black" points="108,-56.5 108,-75.5 236,-75.5 236,-56.5 108,-56.5"/>
<text text-anchor="middle" x="172" y="-63.5" font-family="Helvetica,sans-Serif" font-size="10.00">AH/Types/Frequency.hpp</text>
</a>
</g>
</g>
<!-- Node9&#45;&gt;Node10 -->
<g id="edge9" class="edge"><title>Node9&#45;&gt;Node10</title>
<path fill="none" stroke="midnightblue" d="M311.697,-112.444C283.649,-103.32 239.056,-88.8133 207.816,-78.6509"/>
<polygon fill="midnightblue" stroke="midnightblue" points="208.772,-75.2816 198.18,-75.5164 206.607,-81.9383 208.772,-75.2816"/>
</g>
<!-- Node11 -->
<g id="node11" class="node"><title>Node11</title>
<g id="a_node11"><a xlink:href="../../d7/d7c/ADCConfig_8hpp.html" target="_top" xlink:title="This file contains the platform&#45;specific ADC resolutions. By default, the library automatically selec...">
<polygon fill="white" stroke="black" points="388,-56.5 388,-75.5 536,-75.5 536,-56.5 388,-56.5"/>
<text text-anchor="middle" x="462" y="-63.5" font-family="Helvetica,sans-Serif" font-size="10.00">AH/Hardware/ADCConfig.hpp</text>
</a>
</g>
</g>
<!-- Node9&#45;&gt;Node11 -->
<g id="edge11" class="edge"><title>Node9&#45;&gt;Node11</title>
<path fill="none" stroke="midnightblue" d="M357.648,-112.444C377.965,-103.596 409.903,-89.6875 433.098,-79.5865"/>
<polygon fill="midnightblue" stroke="midnightblue" points="434.673,-82.7181 442.444,-75.5164 431.878,-76.3002 434.673,-82.7181"/>
</g>
<!-- Node12 -->
<g id="node12" class="node"><title>Node12</title>
<g id="a_node12"><a xlink:title=" ">
<polygon fill="white" stroke="#bfbfbf" points="322,-56.5 322,-75.5 370,-75.5 370,-56.5 322,-56.5"/>
<text text-anchor="middle" x="346" y="-63.5" font-family="Helvetica,sans-Serif" font-size="10.00">limits.h</text>
</a>
</g>
</g>
<!-- Node9&#45;&gt;Node12 -->
<g id="edge13" class="edge"><title>Node9&#45;&gt;Node12</title>
<path fill="none" stroke="midnightblue" d="M339.321,-112.083C340.381,-104.927 341.906,-94.6353 343.231,-85.6911"/>
<polygon fill="midnightblue" stroke="midnightblue" points="346.7,-86.1561 344.704,-75.7511 339.776,-85.1302 346.7,-86.1561"/>
</g>
<!-- Node9&#45;&gt;Node13 -->
<g id="edge14" class="edge"><title>Node9&#45;&gt;Node13</title>
<path fill="none" stroke="midnightblue" d="M302.158,-113.729C299.062,-113.133 295.977,-112.549 293,-112 210.608,-96.8213 113.53,-80.9669 62.1461,-72.7341"/>
<polygon fill="midnightblue" stroke="midnightblue" points="62.6236,-69.2661 52.1965,-71.1438 61.5187,-76.1784 62.6236,-69.2661"/>
</g>
<!-- Node14 -->
<g id="node14" class="node"><title>Node14</title>
<g id="a_node14"><a xlink:title=" ">
<polygon fill="white" stroke="#bfbfbf" points="254.5,-56.5 254.5,-75.5 303.5,-75.5 303.5,-56.5 254.5,-56.5"/>
<text text-anchor="middle" x="279" y="-63.5" font-family="Helvetica,sans-Serif" font-size="10.00">stdint.h</text>
</a>
</g>
</g>
<!-- Node9&#45;&gt;Node14 -->
<g id="edge15" class="edge"><title>Node9&#45;&gt;Node14</title>
<path fill="none" stroke="midnightblue" d="M328.521,-112.324C319.799,-104.341 306.657,-92.3128 296.102,-82.6529"/>
<polygon fill="midnightblue" stroke="midnightblue" points="298.392,-80.0036 288.652,-75.8339 293.666,-85.1674 298.392,-80.0036"/>
</g>
<!-- Node10&#45;&gt;Node8 -->
<g id="edge10" class="edge"><title>Node10&#45;&gt;Node8</title>
<path fill="none" stroke="midnightblue" d="M164.404,-56.083C157.773,-48.2982 147.979,-36.8015 139.942,-27.3665"/>
<polygon fill="midnightblue" stroke="midnightblue" points="142.604,-25.0939 133.455,-19.7511 137.275,-29.6332 142.604,-25.0939"/>
</g>
<!-- Node11&#45;&gt;Node6 -->
<g id="edge12" class="edge"><title>Node11&#45;&gt;Node6</title>
<path fill="none" stroke="midnightblue" d="M478.388,-56.324C494.671,-47.7034 519.867,-34.3643 538.716,-24.3855"/>
<polygon fill="midnightblue" stroke="midnightblue" points="540.452,-27.4267 547.653,-19.6545 537.177,-21.2402 540.452,-27.4267"/>
</g>
</g>
</svg>
