<?xml version="1.0" encoding="UTF-8" standalone="no"?>
<!DOCTYPE svg PUBLIC "-//W3C//DTD SVG 1.1//EN"
 "http://www.w3.org/Graphics/SVG/1.1/DTD/svg11.dtd">
<!-- Generated by graphviz version 2.40.1 (20161225.0304)
 -->
<!-- Title: Arduino&#45;Wrapper.h Pages: 1 -->
<svg width="561pt" height="196pt"
 viewBox="0.00 0.00 561.00 196.00" xmlns="http://www.w3.org/2000/svg" xmlns:xlink="http://www.w3.org/1999/xlink">
<g id="graph0" class="graph" transform="scale(1 1) rotate(0) translate(4 192)">
<title>Arduino&#45;Wrapper.h</title>
<polygon fill="#ffffff" stroke="transparent" points="-4,4 -4,-192 557,-192 557,4 -4,4"/>
<!-- Node1 -->
<g id="node1" class="node">
<title>Node1</title>
<g id="a_node1"><a xlink:title=" ">
<polygon fill="#bfbfbf" stroke="#000000" points="374.5,-168.5 374.5,-187.5 472.5,-187.5 472.5,-168.5 374.5,-168.5"/>
<text text-anchor="middle" x="423.5" y="-175.5" font-family="Helvetica,sans-Serif" font-size="10.00" fill="#000000">Arduino&#45;Wrapper.h</text>
</a>
</g>
</g>
<!-- Node2 -->
<g id="node2" class="node">
<title>Node2</title>
<g id="a_node2"><a xlink:href="../../d7/d79/MinMaxFix_8hpp.html" target="_top" xlink:title=" ">
<polygon fill="#ffffff" stroke="#000000" points="150,-112.5 150,-131.5 275,-131.5 275,-112.5 150,-112.5"/>
<text text-anchor="middle" x="212.5" y="-119.5" font-family="Helvetica,sans-Serif" font-size="10.00" fill="#000000">AH/Math/MinMaxFix.hpp</text>
</a>
</g>
</g>
<!-- Node1&#45;&gt;Node2 -->
<g id="edge1" class="edge">
<title>Node1&#45;&gt;Node2</title>
<path fill="none" stroke="#191970" d="M387.2278,-168.3733C351.5342,-158.9001 296.9121,-144.4032 258.2549,-134.1435"/>
<polygon fill="#191970" stroke="#191970" points="258.8621,-130.6835 248.2989,-131.5011 257.0664,-137.4493 258.8621,-130.6835"/>
</g>
<!-- Node5 -->
<g id="node5" class="node">
<title>Node5</title>
<g id="a_node5"><a xlink:title=" ">
<polygon fill="#ffffff" stroke="#bfbfbf" points="272.5,-.5 272.5,-19.5 330.5,-19.5 330.5,-.5 272.5,-.5"/>
<text text-anchor="middle" x="301.5" y="-7.5" font-family="Helvetica,sans-Serif" font-size="10.00" fill="#000000">Arduino.h</text>
</a>
</g>
</g>
<!-- Node1&#45;&gt;Node5 -->
<g id="edge8" class="edge">
<title>Node1&#45;&gt;Node5</title>
<path fill="none" stroke="#191970" d="M424.8691,-168.266C427.4559,-145.9182 430.6654,-90.2313 404.5,-56 389.0296,-35.7606 362.6879,-24.2128 340.5168,-17.7493"/>
<polygon fill="#191970" stroke="#191970" points="341.2419,-14.3204 330.6777,-15.1244 339.4375,-21.0838 341.2419,-14.3204"/>
</g>
<!-- Node7 -->
<g id="node7" class="node">
<title>Node7</title>
<g id="a_node7"><a xlink:title=" ">
<polygon fill="#ffffff" stroke="#bfbfbf" points="452,-112.5 452,-131.5 553,-131.5 553,-112.5 452,-112.5"/>
<text text-anchor="middle" x="502.5" y="-119.5" font-family="Helvetica,sans-Serif" font-size="10.00" fill="#000000">AH/STL/type_traits</text>
</a>
</g>
</g>
<!-- Node1&#45;&gt;Node7 -->
<g id="edge7" class="edge">
<title>Node1&#45;&gt;Node7</title>
<path fill="none" stroke="#191970" d="M437.2607,-168.2455C449.1552,-159.814 466.565,-147.4729 480.4085,-137.6598"/>
<polygon fill="#191970" stroke="#191970" points="482.7628,-140.2811 488.8969,-131.6427 478.7146,-134.5704 482.7628,-140.2811"/>
</g>
<!-- Node3 -->
<g id="node3" class="node">
<title>Node3</title>
<g id="a_node3"><a xlink:href="../../d1/d65/Warnings_8hpp.html" target="_top" xlink:title=" ">
<polygon fill="#ffffff" stroke="#000000" points="0,-.5 0,-19.5 133,-19.5 133,-.5 0,-.5"/>
<text text-anchor="middle" x="66.5" y="-7.5" font-family="Helvetica,sans-Serif" font-size="10.00" fill="#000000">AH/Settings/Warnings.hpp</text>
</a>
</g>
</g>
<!-- Node2&#45;&gt;Node3 -->
<g id="edge2" class="edge">
<title>Node2&#45;&gt;Node3</title>
<path fill="none" stroke="#191970" d="M149.8297,-114.1937C103.8446,-107.0277 46.9912,-94.6603 32.5,-76 20.6266,-60.7107 34.3869,-40.6449 47.7905,-26.6694"/>
<polygon fill="#191970" stroke="#191970" points="50.3218,-29.0896 55.0351,-19.6009 45.4333,-24.0793 50.3218,-29.0896"/>
</g>
<!-- Node4 -->
<g id="node4" class="node">
<title>Node4</title>
<g id="a_node4"><a xlink:href="../../d6/d3b/FixArduinoMacros_8hpp.html" target="_top" xlink:title=" ">
<polygon fill="#ffffff" stroke="#000000" points="41.5,-56.5 41.5,-75.5 197.5,-75.5 197.5,-56.5 41.5,-56.5"/>
<text text-anchor="middle" x="119.5" y="-63.5" font-family="Helvetica,sans-Serif" font-size="10.00" fill="#000000">AH/Math/FixArduinoMacros.hpp</text>
</a>
</g>
</g>
<!-- Node2&#45;&gt;Node4 -->
<g id="edge3" class="edge">
<title>Node2&#45;&gt;Node4</title>
<path fill="none" stroke="#191970" d="M196.3006,-112.2455C181.8982,-103.5731 160.6268,-90.7645 144.1201,-80.825"/>
<polygon fill="#191970" stroke="#191970" points="145.886,-77.8028 135.5137,-75.6427 142.275,-83.7996 145.886,-77.8028"/>
</g>
<!-- Node6 -->
<g id="node6" class="node">
<title>Node6</title>
<g id="a_node6"><a xlink:href="../../dc/dc7/NamespaceSettings_8hpp.html" target="_top" xlink:title=" ">
<polygon fill="#ffffff" stroke="#000000" points="215.5,-56.5 215.5,-75.5 395.5,-75.5 395.5,-56.5 215.5,-56.5"/>
<text text-anchor="middle" x="305.5" y="-63.5" font-family="Helvetica,sans-Serif" font-size="10.00" fill="#000000">AH/Settings/NamespaceSettings.hpp</text>
</a>
</g>
</g>
<!-- Node2&#45;&gt;Node6 -->
<g id="edge6" class="edge">
<title>Node2&#45;&gt;Node6</title>
<path fill="none" stroke="#191970" d="M228.6994,-112.2455C243.1018,-103.5731 264.3732,-90.7645 280.8799,-80.825"/>
<polygon fill="#191970" stroke="#191970" points="282.725,-83.7996 289.4863,-75.6427 279.114,-77.8028 282.725,-83.7996"/>
</g>
<!-- Node4&#45;&gt;Node3 -->
<g id="edge4" class="edge">
<title>Node4&#45;&gt;Node3</title>
<path fill="none" stroke="#191970" d="M110.2681,-56.2455C102.6683,-48.2155 91.7123,-36.6394 82.6632,-27.0781"/>
<polygon fill="#191970" stroke="#191970" points="85.042,-24.4998 75.6261,-19.6427 79.9579,-29.3115 85.042,-24.4998"/>
</g>
<!-- Node4&#45;&gt;Node5 -->
<g id="edge5" class="edge">
<title>Node4&#45;&gt;Node5</title>
<path fill="none" stroke="#191970" d="M150.7869,-56.3733C181.7344,-46.851 229.1785,-32.2528 262.5511,-21.9843"/>
<polygon fill="#191970" stroke="#191970" points="263.8941,-25.2331 272.4225,-18.9469 261.8354,-18.5426 263.8941,-25.2331"/>
</g>
</g>
</svg>
