<?xml version="1.0" encoding="UTF-8" standalone="no"?>
<!DOCTYPE svg PUBLIC "-//W3C//DTD SVG 1.1//EN"
 "http://www.w3.org/Graphics/SVG/1.1/DTD/svg11.dtd">
<!-- Generated by graphviz version 2.43.0 (0)
 -->
<!-- Title: StaticSizeExtendedIOElement.hpp Pages: 1 -->
<svg width="1663pt" height="834pt"
 viewBox="0.00 0.00 1662.50 834.00" xmlns="http://www.w3.org/2000/svg" xmlns:xlink="http://www.w3.org/1999/xlink">
<g id="graph0" class="graph" transform="scale(1 1) rotate(0) translate(4 830)">
<title>StaticSizeExtendedIOElement.hpp</title>
<polygon fill="white" stroke="transparent" points="-4,4 -4,-830 1658.5,-830 1658.5,4 -4,4"/>
<!-- Node1 -->
<g id="node1" class="node">
<title>Node1</title>
<g id="a_node1"><a xlink:title=" ">
<polygon fill="#bfbfbf" stroke="black" points="536,-806.5 536,-825.5 718,-825.5 718,-806.5 536,-806.5"/>
<text text-anchor="middle" x="627" y="-813.5" font-family="Helvetica,sans-Serif" font-size="10.00">StaticSizeExtendedIOElement.hpp</text>
</a>
</g>
</g>
<!-- Node2 -->
<g id="node2" class="node">
<title>Node2</title>
<g id="a_node2"><a xlink:href="../../d1/d65/Warnings_8hpp.html" target="_top" xlink:title=" ">
<polygon fill="white" stroke="black" points="681.5,-0.5 681.5,-19.5 824.5,-19.5 824.5,-0.5 681.5,-0.5"/>
<text text-anchor="middle" x="753" y="-7.5" font-family="Helvetica,sans-Serif" font-size="10.00">AH/Settings/Warnings.hpp</text>
</a>
</g>
</g>
<!-- Node1&#45;&gt;Node2 -->
<g id="edge1" class="edge">
<title>Node1&#45;&gt;Node2</title>
<path fill="none" stroke="midnightblue" d="M535.83,-808.31C361.93,-794.32 0,-758.74 0,-705 0,-705 0,-705 0,-121 0,-82.58 22.53,-72.98 57,-56 110.88,-29.46 499.37,-17.03 671.39,-12.78"/>
<polygon fill="midnightblue" stroke="midnightblue" points="671.5,-16.28 681.41,-12.53 671.33,-9.28 671.5,-16.28"/>
</g>
<!-- Node3 -->
<g id="node3" class="node">
<title>Node3</title>
<g id="a_node3"><a xlink:href="../../d4/d57/ExtendedIOElement_8hpp.html" target="_top" xlink:title=" ">
<polygon fill="white" stroke="black" points="560,-750.5 560,-769.5 694,-769.5 694,-750.5 560,-750.5"/>
<text text-anchor="middle" x="627" y="-757.5" font-family="Helvetica,sans-Serif" font-size="10.00">ExtendedIOElement.hpp</text>
</a>
</g>
</g>
<!-- Node1&#45;&gt;Node3 -->
<g id="edge2" class="edge">
<title>Node1&#45;&gt;Node3</title>
<path fill="none" stroke="midnightblue" d="M627,-806.08C627,-799.01 627,-788.86 627,-779.99"/>
<polygon fill="midnightblue" stroke="midnightblue" points="630.5,-779.75 627,-769.75 623.5,-779.75 630.5,-779.75"/>
</g>
<!-- Node35 -->
<g id="node35" class="node">
<title>Node35</title>
<g id="a_node35"><a xlink:href="../../d5/db6/ArrayHelpers_8hpp.html" target="_top" xlink:title=" ">
<polygon fill="white" stroke="black" points="1216,-566 1216,-585 1390,-585 1390,-566 1216,-566"/>
<text text-anchor="middle" x="1303" y="-573" font-family="Helvetica,sans-Serif" font-size="10.00">AH/Containers/ArrayHelpers.hpp</text>
</a>
</g>
</g>
<!-- Node1&#45;&gt;Node35 -->
<g id="edge71" class="edge">
<title>Node1&#45;&gt;Node35</title>
<path fill="none" stroke="midnightblue" d="M696.95,-806.49C787.28,-793.91 948.18,-766 1077,-714 1159.4,-680.73 1246.35,-619.21 1283.89,-591.14"/>
<polygon fill="midnightblue" stroke="midnightblue" points="1286.07,-593.89 1291.94,-585.07 1281.85,-588.3 1286.07,-593.89"/>
</g>
<!-- Node3&#45;&gt;Node2 -->
<g id="edge3" class="edge">
<title>Node3&#45;&gt;Node2</title>
<path fill="none" stroke="midnightblue" d="M559.72,-759.8C405.18,-759.83 38,-748.81 38,-643.5 38,-643.5 38,-643.5 38,-121 38,-82.28 61.23,-73.03 96,-56 146.45,-31.3 506.58,-18 671.23,-13.16"/>
<polygon fill="midnightblue" stroke="midnightblue" points="671.41,-16.66 681.31,-12.87 671.21,-9.66 671.41,-16.66"/>
</g>
<!-- Node4 -->
<g id="node4" class="node">
<title>Node4</title>
<g id="a_node4"><a xlink:href="../../dd/ddf/ExtendedInputOutput_8hpp.html" target="_top" xlink:title=" ">
<polygon fill="white" stroke="black" points="149.5,-694.5 149.5,-713.5 290.5,-713.5 290.5,-694.5 149.5,-694.5"/>
<text text-anchor="middle" x="220" y="-701.5" font-family="Helvetica,sans-Serif" font-size="10.00">ExtendedInputOutput.hpp</text>
</a>
</g>
</g>
<!-- Node3&#45;&gt;Node4 -->
<g id="edge4" class="edge">
<title>Node3&#45;&gt;Node4</title>
<path fill="none" stroke="midnightblue" d="M562.51,-750.44C489.57,-740.77 371.01,-725.04 294.26,-714.85"/>
<polygon fill="midnightblue" stroke="midnightblue" points="294.56,-711.36 284.19,-713.52 293.64,-718.3 294.56,-711.36"/>
</g>
<!-- Node6 -->
<g id="node6" class="node">
<title>Node6</title>
<g id="a_node6"><a xlink:href="../../d4/d35/Hardware-Types_8hpp.html" target="_top" xlink:title=" ">
<polygon fill="white" stroke="black" points="1065.5,-560.5 1065.5,-590.5 1196.5,-590.5 1196.5,-560.5 1065.5,-560.5"/>
<text text-anchor="start" x="1073.5" y="-578.5" font-family="Helvetica,sans-Serif" font-size="10.00">AH/Hardware/Hardware</text>
<text text-anchor="middle" x="1131" y="-567.5" font-family="Helvetica,sans-Serif" font-size="10.00">&#45;Types.hpp</text>
</a>
</g>
</g>
<!-- Node3&#45;&gt;Node6 -->
<g id="edge70" class="edge">
<title>Node3&#45;&gt;Node6</title>
<path fill="none" stroke="midnightblue" d="M694.34,-759.12C798.75,-758.11 993.69,-751.13 1051,-714 1091.82,-687.56 1114.33,-632.43 1124.41,-600.6"/>
<polygon fill="midnightblue" stroke="midnightblue" points="1127.84,-601.35 1127.36,-590.77 1121.14,-599.34 1127.84,-601.35"/>
</g>
<!-- Node30 -->
<g id="node30" class="node">
<title>Node30</title>
<g id="a_node30"><a xlink:href="../../d4/d93/Updatable_8hpp.html" target="_top" xlink:title=" ">
<polygon fill="white" stroke="black" points="758.5,-504.5 758.5,-523.5 919.5,-523.5 919.5,-504.5 758.5,-504.5"/>
<text text-anchor="middle" x="839" y="-511.5" font-family="Helvetica,sans-Serif" font-size="10.00">AH/Containers/Updatable.hpp</text>
</a>
</g>
</g>
<!-- Node3&#45;&gt;Node30 -->
<g id="edge56" class="edge">
<title>Node3&#45;&gt;Node30</title>
<path fill="none" stroke="midnightblue" d="M634.55,-750.32C665.58,-714.59 783.71,-578.63 824.81,-531.34"/>
<polygon fill="midnightblue" stroke="midnightblue" points="827.63,-533.42 831.55,-523.58 822.34,-528.83 827.63,-533.42"/>
</g>
<!-- Node4&#45;&gt;Node2 -->
<g id="edge55" class="edge">
<title>Node4&#45;&gt;Node2</title>
<path fill="none" stroke="midnightblue" d="M161.5,-694.45C137.78,-688.13 112.02,-677.13 95,-658 70.28,-630.21 76,-613.69 76,-576.5 76,-576.5 76,-576.5 76,-121 76,-81.08 101.9,-73.04 138,-56 185.04,-33.8 515.14,-19.37 671.38,-13.71"/>
<polygon fill="midnightblue" stroke="midnightblue" points="671.55,-17.2 681.42,-13.35 671.3,-10.21 671.55,-17.2"/>
</g>
<!-- Node5 -->
<g id="node5" class="node">
<title>Node5</title>
<g id="a_node5"><a xlink:href="../../d2/d3c/Arduino-Hardware-Types_8hpp.html" target="_top" xlink:title=" ">
<polygon fill="white" stroke="black" points="248,-627.5 248,-657.5 370,-657.5 370,-627.5 248,-627.5"/>
<text text-anchor="start" x="256" y="-645.5" font-family="Helvetica,sans-Serif" font-size="10.00">AH/Hardware/Arduino</text>
<text text-anchor="middle" x="309" y="-634.5" font-family="Helvetica,sans-Serif" font-size="10.00">&#45;Hardware&#45;Types.hpp</text>
</a>
</g>
</g>
<!-- Node4&#45;&gt;Node5 -->
<g id="edge5" class="edge">
<title>Node4&#45;&gt;Node5</title>
<path fill="none" stroke="midnightblue" d="M232.75,-694.48C244.92,-686.34 263.69,-673.79 279.56,-663.18"/>
<polygon fill="midnightblue" stroke="midnightblue" points="281.66,-665.99 288.02,-657.52 277.77,-660.17 281.66,-665.99"/>
</g>
<!-- Node11 -->
<g id="node11" class="node">
<title>Node11</title>
<g id="a_node11"><a xlink:href="../../dc/dc7/NamespaceSettings_8hpp.html" target="_top" xlink:title=" ">
<polygon fill="white" stroke="black" points="461.5,-56.5 461.5,-75.5 656.5,-75.5 656.5,-56.5 461.5,-56.5"/>
<text text-anchor="middle" x="559" y="-63.5" font-family="Helvetica,sans-Serif" font-size="10.00">AH/Settings/NamespaceSettings.hpp</text>
</a>
</g>
</g>
<!-- Node4&#45;&gt;Node11 -->
<g id="edge54" class="edge">
<title>Node4&#45;&gt;Node11</title>
<path fill="none" stroke="midnightblue" d="M220.53,-694.31C223.95,-644.33 246.34,-389.85 356,-224 393.3,-167.59 404.16,-151.57 459,-112 478.41,-97.99 502.89,-86.89 522.76,-79.21"/>
<polygon fill="midnightblue" stroke="midnightblue" points="524.25,-82.39 532.39,-75.62 521.8,-75.84 524.25,-82.39"/>
</g>
<!-- Node29 -->
<g id="node29" class="node">
<title>Node29</title>
<g id="a_node29"><a xlink:title=" ">
<polygon fill="white" stroke="#bfbfbf" points="104.5,-633 104.5,-652 191.5,-652 191.5,-633 104.5,-633"/>
<text text-anchor="middle" x="148" y="-640" font-family="Helvetica,sans-Serif" font-size="10.00">AH/STL/climits</text>
</a>
</g>
</g>
<!-- Node4&#45;&gt;Node29 -->
<g id="edge53" class="edge">
<title>Node4&#45;&gt;Node29</title>
<path fill="none" stroke="midnightblue" d="M209.68,-694.48C198.35,-685.11 179.93,-669.88 166.16,-658.51"/>
<polygon fill="midnightblue" stroke="midnightblue" points="168.23,-655.68 158.3,-652.01 163.78,-661.08 168.23,-655.68"/>
</g>
<!-- Node5&#45;&gt;Node2 -->
<g id="edge6" class="edge">
<title>Node5&#45;&gt;Node2</title>
<path fill="none" stroke="midnightblue" d="M297.25,-627.17C236.8,-551.81 -29.09,-199.47 162,-56 201.77,-26.14 518.46,-15.72 671.19,-12.4"/>
<polygon fill="midnightblue" stroke="midnightblue" points="671.52,-15.9 681.45,-12.19 671.38,-8.9 671.52,-15.9"/>
</g>
<!-- Node5&#45;&gt;Node6 -->
<g id="edge7" class="edge">
<title>Node5&#45;&gt;Node6</title>
<path fill="none" stroke="midnightblue" d="M370.3,-638.15C492.65,-631.23 775.79,-614.07 1013,-591 1026.64,-589.67 1041.14,-588.06 1055.14,-586.4"/>
<polygon fill="midnightblue" stroke="midnightblue" points="1055.71,-589.85 1065.22,-585.18 1054.87,-582.9 1055.71,-589.85"/>
</g>
<!-- Node12 -->
<g id="node12" class="node">
<title>Node12</title>
<g id="a_node12"><a xlink:href="../../d6/ddf/Arduino-Wrapper_8h.html" target="_top" xlink:title=" ">
<polygon fill="white" stroke="black" points="1068,-168.5 1068,-187.5 1192,-187.5 1192,-168.5 1068,-168.5"/>
<text text-anchor="middle" x="1130" y="-175.5" font-family="Helvetica,sans-Serif" font-size="10.00">AH/Arduino&#45;Wrapper.h</text>
</a>
</g>
</g>
<!-- Node5&#45;&gt;Node12 -->
<g id="edge52" class="edge">
<title>Node5&#45;&gt;Node12</title>
<path fill="none" stroke="midnightblue" d="M370.27,-635.59C535.52,-618.51 985.27,-564.03 1094,-468 1176.84,-394.84 1177.38,-351.75 1202,-244 1203.98,-235.33 1206.31,-231.77 1202,-224 1193.91,-209.41 1178.9,-198.92 1164.66,-191.76"/>
<polygon fill="midnightblue" stroke="midnightblue" points="1166.05,-188.55 1155.5,-187.53 1163.11,-194.9 1166.05,-188.55"/>
</g>
<!-- Node26 -->
<g id="node26" class="node">
<title>Node26</title>
<g id="a_node26"><a xlink:href="../../d0/db1/FunctionTraits_8hpp.html" target="_top" xlink:title=" ">
<polygon fill="white" stroke="black" points="150.5,-112.5 150.5,-131.5 303.5,-131.5 303.5,-112.5 150.5,-112.5"/>
<text text-anchor="middle" x="227" y="-119.5" font-family="Helvetica,sans-Serif" font-size="10.00">AH/Types/FunctionTraits.hpp</text>
</a>
</g>
</g>
<!-- Node5&#45;&gt;Node26 -->
<g id="edge47" class="edge">
<title>Node5&#45;&gt;Node26</title>
<path fill="none" stroke="midnightblue" d="M306.18,-627.15C301.83,-603.76 294,-555.91 294,-515 294,-515 294,-515 294,-233 294,-194.7 264.01,-158.42 244.16,-138.59"/>
<polygon fill="midnightblue" stroke="midnightblue" points="246.52,-136 236.89,-131.6 241.67,-141.05 246.52,-136"/>
</g>
<!-- Node6&#45;&gt;Node2 -->
<g id="edge8" class="edge">
<title>Node6&#45;&gt;Node2</title>
<path fill="none" stroke="midnightblue" d="M1176.22,-560.46C1264.02,-531.83 1449,-464.24 1449,-403 1449,-403 1449,-403 1449,-121 1449,8.75 1200.44,-48.26 848,-20 843.61,-19.65 839.1,-19.27 834.56,-18.88"/>
<polygon fill="midnightblue" stroke="midnightblue" points="834.83,-15.39 824.57,-18 834.22,-22.36 834.83,-15.39"/>
</g>
<!-- Node7 -->
<g id="node7" class="node">
<title>Node7</title>
<g id="a_node7"><a xlink:href="../../de/d76/Array_8hpp.html" target="_top" xlink:title=" ">
<polygon fill="white" stroke="black" points="1063.5,-504.5 1063.5,-523.5 1198.5,-523.5 1198.5,-504.5 1063.5,-504.5"/>
<text text-anchor="middle" x="1131" y="-511.5" font-family="Helvetica,sans-Serif" font-size="10.00">AH/Containers/Array.hpp</text>
</a>
</g>
</g>
<!-- Node6&#45;&gt;Node7 -->
<g id="edge9" class="edge">
<title>Node6&#45;&gt;Node7</title>
<path fill="none" stroke="midnightblue" d="M1131,-560.4C1131,-552.47 1131,-542.46 1131,-533.86"/>
<polygon fill="midnightblue" stroke="midnightblue" points="1134.5,-533.66 1131,-523.66 1127.5,-533.66 1134.5,-533.66"/>
</g>
<!-- Node6&#45;&gt;Node11 -->
<g id="edge45" class="edge">
<title>Node6&#45;&gt;Node11</title>
<path fill="none" stroke="midnightblue" d="M1065.3,-569.96C892.02,-557.31 432.86,-519.21 389,-468 383.22,-461.25 387.84,-456.81 389,-448 401.78,-350.84 446,-333 446,-235 446,-235 446,-235 446,-177 446,-130.4 495.95,-97.14 529.43,-80.08"/>
<polygon fill="midnightblue" stroke="midnightblue" points="531.35,-83.04 538.8,-75.51 528.28,-76.75 531.35,-83.04"/>
</g>
<!-- Node23 -->
<g id="node23" class="node">
<title>Node23</title>
<g id="a_node23"><a xlink:title=" ">
<polygon fill="white" stroke="#bfbfbf" points="909.5,-224.5 909.5,-243.5 962.5,-243.5 962.5,-224.5 909.5,-224.5"/>
<text text-anchor="middle" x="936" y="-231.5" font-family="Helvetica,sans-Serif" font-size="10.00">stdint.h</text>
</a>
</g>
</g>
<!-- Node6&#45;&gt;Node23 -->
<g id="edge46" class="edge">
<title>Node6&#45;&gt;Node23</title>
<path fill="none" stroke="midnightblue" d="M1166.99,-560.35C1182.55,-552.22 1199.19,-540.32 1208,-524 1212.22,-516.18 1210.79,-512.44 1208,-504 1165.77,-376.49 1020.51,-282.56 961.36,-248.74"/>
<polygon fill="midnightblue" stroke="midnightblue" points="962.75,-245.5 952.31,-243.65 959.32,-251.6 962.75,-245.5"/>
</g>
<!-- Node7&#45;&gt;Node2 -->
<g id="edge10" class="edge">
<title>Node7&#45;&gt;Node2</title>
<path fill="none" stroke="midnightblue" d="M1178.5,-504.48C1258.38,-488.79 1411,-452.36 1411,-403 1411,-403 1411,-403 1411,-121 1411,7.79 1168.45,-49.08 848,-20 843.61,-19.6 839.11,-19.19 834.57,-18.77"/>
<polygon fill="midnightblue" stroke="midnightblue" points="834.86,-15.28 824.58,-17.84 834.21,-22.25 834.86,-15.28"/>
</g>
<!-- Node8 -->
<g id="node8" class="node">
<title>Node8</title>
<g id="a_node8"><a xlink:href="../../d1/d93/Error_8hpp.html" target="_top" xlink:title=" ">
<polygon fill="white" stroke="black" points="981,-448.5 981,-467.5 1085,-467.5 1085,-448.5 981,-448.5"/>
<text text-anchor="middle" x="1033" y="-455.5" font-family="Helvetica,sans-Serif" font-size="10.00">AH/Error/Error.hpp</text>
</a>
</g>
</g>
<!-- Node7&#45;&gt;Node8 -->
<g id="edge11" class="edge">
<title>Node7&#45;&gt;Node8</title>
<path fill="none" stroke="midnightblue" d="M1115.25,-504.32C1099.68,-495.74 1075.62,-482.49 1057.54,-472.52"/>
<polygon fill="midnightblue" stroke="midnightblue" points="1059.15,-469.42 1048.71,-467.65 1055.78,-475.55 1059.15,-469.42"/>
</g>
<!-- Node16 -->
<g id="node16" class="node">
<title>Node16</title>
<g id="a_node16"><a xlink:title=" ">
<polygon fill="white" stroke="#bfbfbf" points="1161.5,-112.5 1161.5,-131.5 1268.5,-131.5 1268.5,-112.5 1161.5,-112.5"/>
<text text-anchor="middle" x="1215" y="-119.5" font-family="Helvetica,sans-Serif" font-size="10.00">AH/STL/type_traits</text>
</a>
</g>
</g>
<!-- Node7&#45;&gt;Node16 -->
<g id="edge43" class="edge">
<title>Node7&#45;&gt;Node16</title>
<path fill="none" stroke="midnightblue" d="M1149.1,-504.36C1199.03,-479.14 1335,-400.4 1335,-291 1335,-291 1335,-291 1335,-233 1335,-185.08 1282.36,-152.38 1246.81,-135.76"/>
<polygon fill="midnightblue" stroke="midnightblue" points="1247.85,-132.4 1237.29,-131.5 1244.99,-138.78 1247.85,-132.4"/>
</g>
<!-- Node22 -->
<g id="node22" class="node">
<title>Node22</title>
<g id="a_node22"><a xlink:title=" ">
<polygon fill="white" stroke="#bfbfbf" points="660,-224.5 660,-243.5 716,-243.5 716,-224.5 660,-224.5"/>
<text text-anchor="middle" x="688" y="-231.5" font-family="Helvetica,sans-Serif" font-size="10.00">stddef.h</text>
</a>
</g>
</g>
<!-- Node7&#45;&gt;Node22 -->
<g id="edge44" class="edge">
<title>Node7&#45;&gt;Node22</title>
<path fill="none" stroke="midnightblue" d="M1130.63,-504.4C1129.39,-483.58 1124.01,-429.43 1101,-392 1061.05,-327.04 1040.38,-311.67 971,-280 873.42,-235.46 835.69,-263.33 726.32,-244.03"/>
<polygon fill="midnightblue" stroke="midnightblue" points="726.69,-240.54 716.22,-242.15 725.41,-247.42 726.69,-240.54"/>
</g>
<!-- Node25 -->
<g id="node25" class="node">
<title>Node25</title>
<g id="a_node25"><a xlink:title=" ">
<polygon fill="white" stroke="#bfbfbf" points="863,-392.5 863,-411.5 953,-411.5 953,-392.5 863,-392.5"/>
<text text-anchor="middle" x="908" y="-399.5" font-family="Helvetica,sans-Serif" font-size="10.00">AH/STL/iterator</text>
</a>
</g>
</g>
<!-- Node7&#45;&gt;Node25 -->
<g id="edge42" class="edge">
<title>Node7&#45;&gt;Node25</title>
<path fill="none" stroke="midnightblue" d="M1074.83,-504.45C1043.04,-497.87 1003.48,-486.63 972,-468 951.01,-455.57 932.11,-434.57 920.38,-419.81"/>
<polygon fill="midnightblue" stroke="midnightblue" points="922.92,-417.36 914.05,-411.56 917.36,-421.62 922.92,-417.36"/>
</g>
<!-- Node8&#45;&gt;Node2 -->
<g id="edge12" class="edge">
<title>Node8&#45;&gt;Node2</title>
<path fill="none" stroke="midnightblue" d="M1085.01,-451.12C1180.25,-438.9 1373,-406.79 1373,-347 1373,-347 1373,-347 1373,-121 1373,-13.49 1245.49,-76.72 1140,-56 1083.43,-44.89 930.6,-28.62 834.79,-18.99"/>
<polygon fill="midnightblue" stroke="midnightblue" points="835.14,-15.51 824.84,-18 834.44,-22.48 835.14,-15.51"/>
</g>
<!-- Node9 -->
<g id="node9" class="node">
<title>Node9</title>
<g id="a_node9"><a xlink:href="../../df/dee/Debug_8hpp.html" target="_top" xlink:title=" ">
<polygon fill="white" stroke="black" points="971.5,-392.5 971.5,-411.5 1092.5,-411.5 1092.5,-392.5 971.5,-392.5"/>
<text text-anchor="middle" x="1032" y="-399.5" font-family="Helvetica,sans-Serif" font-size="10.00">AH/Debug/Debug.hpp</text>
</a>
</g>
</g>
<!-- Node8&#45;&gt;Node9 -->
<g id="edge13" class="edge">
<title>Node8&#45;&gt;Node9</title>
<path fill="none" stroke="midnightblue" d="M1032.83,-448.08C1032.7,-441.01 1032.52,-430.86 1032.35,-421.99"/>
<polygon fill="midnightblue" stroke="midnightblue" points="1035.85,-421.68 1032.16,-411.75 1028.85,-421.81 1035.85,-421.68"/>
</g>
<!-- Node9&#45;&gt;Node2 -->
<g id="edge14" class="edge">
<title>Node9&#45;&gt;Node2</title>
<path fill="none" stroke="midnightblue" d="M1050.12,-392.41C1120.67,-357.87 1368.76,-225.44 1278,-112 1250.46,-77.58 974.62,-38.62 834.21,-20.81"/>
<polygon fill="midnightblue" stroke="midnightblue" points="834.29,-17.3 823.93,-19.52 833.41,-24.24 834.29,-17.3"/>
</g>
<!-- Node10 -->
<g id="node10" class="node">
<title>Node10</title>
<g id="a_node10"><a xlink:href="../../dd/d80/PrintStream_8hpp.html" target="_top" xlink:title=" ">
<polygon fill="white" stroke="black" points="1019.5,-224.5 1019.5,-243.5 1192.5,-243.5 1192.5,-224.5 1019.5,-224.5"/>
<text text-anchor="middle" x="1106" y="-231.5" font-family="Helvetica,sans-Serif" font-size="10.00">AH/PrintStream/PrintStream.hpp</text>
</a>
</g>
</g>
<!-- Node9&#45;&gt;Node10 -->
<g id="edge15" class="edge">
<title>Node9&#45;&gt;Node10</title>
<path fill="none" stroke="midnightblue" d="M1035.98,-392.08C1047.68,-365.83 1082.13,-288.55 1097.92,-253.12"/>
<polygon fill="midnightblue" stroke="midnightblue" points="1101.31,-254.13 1102.18,-243.57 1094.91,-251.28 1101.31,-254.13"/>
</g>
<!-- Node17 -->
<g id="node17" class="node">
<title>Node17</title>
<g id="a_node17"><a xlink:href="../../d2/dd5/SettingsWrapper_8hpp.html" target="_top" xlink:title=" ">
<polygon fill="white" stroke="black" points="835,-336.5 835,-355.5 1013,-355.5 1013,-336.5 835,-336.5"/>
<text text-anchor="middle" x="924" y="-343.5" font-family="Helvetica,sans-Serif" font-size="10.00">AH/Settings/SettingsWrapper.hpp</text>
</a>
</g>
</g>
<!-- Node9&#45;&gt;Node17 -->
<g id="edge27" class="edge">
<title>Node9&#45;&gt;Node17</title>
<path fill="none" stroke="midnightblue" d="M1009.8,-392.44C990.69,-383.83 963.6,-370.43 944.89,-360.41"/>
<polygon fill="midnightblue" stroke="midnightblue" points="946.41,-357.25 935.95,-355.52 943.05,-363.39 946.41,-357.25"/>
</g>
<!-- Node10&#45;&gt;Node2 -->
<g id="edge17" class="edge">
<title>Node10&#45;&gt;Node2</title>
<path fill="none" stroke="midnightblue" d="M1094.63,-224.43C1084.2,-216.09 1068.92,-202.57 1059,-188 1023.33,-135.6 1054.3,-95.84 1005,-56 991.35,-44.97 898.58,-30.42 829.54,-20.89"/>
<polygon fill="midnightblue" stroke="midnightblue" points="829.92,-17.41 819.54,-19.52 828.97,-24.34 829.92,-17.41"/>
</g>
<!-- Node10&#45;&gt;Node11 -->
<g id="edge16" class="edge">
<title>Node10&#45;&gt;Node11</title>
<path fill="none" stroke="midnightblue" d="M1026.95,-224.49C878.91,-207.75 571.94,-168.96 541,-132 529.66,-118.45 537.95,-98.28 546.66,-84.01"/>
<polygon fill="midnightblue" stroke="midnightblue" points="549.62,-85.88 552.25,-75.61 543.79,-82 549.62,-85.88"/>
</g>
<!-- Node10&#45;&gt;Node12 -->
<g id="edge18" class="edge">
<title>Node10&#45;&gt;Node12</title>
<path fill="none" stroke="midnightblue" d="M1109.96,-224.08C1113.21,-216.77 1117.92,-206.18 1121.95,-197.1"/>
<polygon fill="midnightblue" stroke="midnightblue" points="1125.25,-198.31 1126.11,-187.75 1118.85,-195.47 1125.25,-198.31"/>
</g>
<!-- Node13 -->
<g id="node13" class="node">
<title>Node13</title>
<g id="a_node13"><a xlink:href="../../d7/d79/MinMaxFix_8hpp.html" target="_top" xlink:title=" ">
<polygon fill="white" stroke="black" points="702,-112.5 702,-131.5 838,-131.5 838,-112.5 702,-112.5"/>
<text text-anchor="middle" x="770" y="-119.5" font-family="Helvetica,sans-Serif" font-size="10.00">AH/Math/MinMaxFix.hpp</text>
</a>
</g>
</g>
<!-- Node12&#45;&gt;Node13 -->
<g id="edge19" class="edge">
<title>Node12&#45;&gt;Node13</title>
<path fill="none" stroke="midnightblue" d="M1072.96,-168.44C1008.84,-158.83 904.85,-143.23 836.94,-133.04"/>
<polygon fill="midnightblue" stroke="midnightblue" points="837.18,-129.54 826.78,-131.52 836.15,-136.46 837.18,-129.54"/>
</g>
<!-- Node15 -->
<g id="node15" class="node">
<title>Node15</title>
<g id="a_node15"><a xlink:title=" ">
<polygon fill="white" stroke="#bfbfbf" points="857.5,-0.5 857.5,-19.5 920.5,-19.5 920.5,-0.5 857.5,-0.5"/>
<text text-anchor="middle" x="889" y="-7.5" font-family="Helvetica,sans-Serif" font-size="10.00">Arduino.h</text>
</a>
</g>
</g>
<!-- Node12&#45;&gt;Node15 -->
<g id="edge26" class="edge">
<title>Node12&#45;&gt;Node15</title>
<path fill="none" stroke="midnightblue" d="M1126.61,-168.46C1117.39,-146.32 1089.6,-86.64 1047,-56 1012.48,-31.17 964.59,-20 930.6,-15"/>
<polygon fill="midnightblue" stroke="midnightblue" points="930.91,-11.51 920.53,-13.64 929.97,-18.45 930.91,-11.51"/>
</g>
<!-- Node12&#45;&gt;Node16 -->
<g id="edge25" class="edge">
<title>Node12&#45;&gt;Node16</title>
<path fill="none" stroke="midnightblue" d="M1143.66,-168.32C1156.92,-159.9 1177.27,-146.97 1192.85,-137.07"/>
<polygon fill="midnightblue" stroke="midnightblue" points="1194.81,-139.97 1201.38,-131.65 1191.06,-134.06 1194.81,-139.97"/>
</g>
<!-- Node13&#45;&gt;Node2 -->
<g id="edge20" class="edge">
<title>Node13&#45;&gt;Node2</title>
<path fill="none" stroke="midnightblue" d="M765.12,-112.37C760.44,-103.55 753.69,-89.3 751,-76 747.88,-60.59 748.75,-42.72 750.18,-29.62"/>
<polygon fill="midnightblue" stroke="midnightblue" points="753.68,-29.89 751.51,-19.52 746.74,-28.98 753.68,-29.89"/>
</g>
<!-- Node13&#45;&gt;Node11 -->
<g id="edge24" class="edge">
<title>Node13&#45;&gt;Node11</title>
<path fill="none" stroke="midnightblue" d="M736.57,-112.44C700.14,-103.12 641.77,-88.18 601.97,-78"/>
<polygon fill="midnightblue" stroke="midnightblue" points="602.83,-74.61 592.28,-75.52 601.1,-81.39 602.83,-74.61"/>
</g>
<!-- Node14 -->
<g id="node14" class="node">
<title>Node14</title>
<g id="a_node14"><a xlink:href="../../d6/d3b/FixArduinoMacros_8hpp.html" target="_top" xlink:title=" ">
<polygon fill="white" stroke="black" points="793,-56.5 793,-75.5 963,-75.5 963,-56.5 793,-56.5"/>
<text text-anchor="middle" x="878" y="-63.5" font-family="Helvetica,sans-Serif" font-size="10.00">AH/Math/FixArduinoMacros.hpp</text>
</a>
</g>
</g>
<!-- Node13&#45;&gt;Node14 -->
<g id="edge21" class="edge">
<title>Node13&#45;&gt;Node14</title>
<path fill="none" stroke="midnightblue" d="M787.35,-112.32C804.67,-103.66 831.52,-90.24 851.5,-80.25"/>
<polygon fill="midnightblue" stroke="midnightblue" points="853.31,-83.26 860.69,-75.65 850.18,-77 853.31,-83.26"/>
</g>
<!-- Node14&#45;&gt;Node2 -->
<g id="edge22" class="edge">
<title>Node14&#45;&gt;Node2</title>
<path fill="none" stroke="midnightblue" d="M858.19,-56.44C837.71,-47.6 805.52,-33.69 782.14,-23.59"/>
<polygon fill="midnightblue" stroke="midnightblue" points="783.28,-20.27 772.71,-19.52 780.51,-26.7 783.28,-20.27"/>
</g>
<!-- Node14&#45;&gt;Node15 -->
<g id="edge23" class="edge">
<title>Node14&#45;&gt;Node15</title>
<path fill="none" stroke="midnightblue" d="M879.82,-56.08C881.27,-48.93 883.37,-38.64 885.19,-29.69"/>
<polygon fill="midnightblue" stroke="midnightblue" points="888.65,-30.25 887.22,-19.75 881.79,-28.85 888.65,-30.25"/>
</g>
<!-- Node17&#45;&gt;Node2 -->
<g id="edge28" class="edge">
<title>Node17&#45;&gt;Node2</title>
<path fill="none" stroke="midnightblue" d="M936.09,-336.31C946.71,-328.08 961.87,-314.81 971,-300 986.87,-274.28 991,-265.23 991,-235 991,-235 991,-235 991,-121 991,-90.9 994.13,-76.4 972,-56 952.02,-37.59 888.41,-25.86 834.86,-19.01"/>
<polygon fill="midnightblue" stroke="midnightblue" points="835,-15.5 824.65,-17.74 834.14,-22.45 835,-15.5"/>
</g>
<!-- Node17&#45;&gt;Node9 -->
<g id="edge41" class="edge">
<title>Node17&#45;&gt;Node9</title>
<path fill="none" stroke="midnightblue" d="M946.42,-355.65C965.43,-364.23 992.22,-377.48 1010.85,-387.45"/>
<polygon fill="midnightblue" stroke="midnightblue" points="1009.31,-390.6 1019.76,-392.32 1012.67,-384.46 1009.31,-390.6"/>
</g>
<!-- Node17&#45;&gt;Node11 -->
<g id="edge29" class="edge">
<title>Node17&#45;&gt;Node11</title>
<path fill="none" stroke="midnightblue" d="M834.96,-340.7C706.39,-332.02 484,-306.65 484,-235 484,-235 484,-235 484,-177 484,-137.44 517.52,-101.62 539.74,-82.21"/>
<polygon fill="midnightblue" stroke="midnightblue" points="542.2,-84.71 547.61,-75.6 537.7,-79.35 542.2,-84.71"/>
</g>
<!-- Node18 -->
<g id="node18" class="node">
<title>Node18</title>
<g id="a_node18"><a xlink:href="../../db/d02/Settings_8hpp.html" target="_top" xlink:title="All user settings and debugging options can be changed here.">
<polygon fill="white" stroke="black" points="885.5,-280.5 885.5,-299.5 962.5,-299.5 962.5,-280.5 885.5,-280.5"/>
<text text-anchor="middle" x="924" y="-287.5" font-family="Helvetica,sans-Serif" font-size="10.00">Settings.hpp</text>
</a>
</g>
</g>
<!-- Node17&#45;&gt;Node18 -->
<g id="edge30" class="edge">
<title>Node17&#45;&gt;Node18</title>
<path fill="none" stroke="midnightblue" d="M924,-336.08C924,-329.01 924,-318.86 924,-309.99"/>
<polygon fill="midnightblue" stroke="midnightblue" points="927.5,-309.75 924,-299.75 920.5,-309.75 927.5,-309.75"/>
</g>
<!-- Node24 -->
<g id="node24" class="node">
<title>Node24</title>
<g id="a_node24"><a xlink:href="../../d9/d98/TeensyUSBTypes_8hpp.html" target="_top" xlink:title=" ">
<polygon fill="white" stroke="black" points="694.5,-280.5 694.5,-299.5 867.5,-299.5 867.5,-280.5 694.5,-280.5"/>
<text text-anchor="middle" x="781" y="-287.5" font-family="Helvetica,sans-Serif" font-size="10.00">AH/Teensy/TeensyUSBTypes.hpp</text>
</a>
</g>
</g>
<!-- Node17&#45;&gt;Node24 -->
<g id="edge40" class="edge">
<title>Node17&#45;&gt;Node24</title>
<path fill="none" stroke="midnightblue" d="M901.34,-336.44C877.6,-327.48 840.09,-313.31 813.26,-303.18"/>
<polygon fill="midnightblue" stroke="midnightblue" points="814.14,-299.77 803.55,-299.52 811.67,-306.32 814.14,-299.77"/>
</g>
<!-- Node19 -->
<g id="node19" class="node">
<title>Node19</title>
<g id="a_node19"><a xlink:href="../../dc/d50/Frequency_8hpp.html" target="_top" xlink:title=" ">
<polygon fill="white" stroke="black" points="550,-112.5 550,-131.5 684,-131.5 684,-112.5 550,-112.5"/>
<text text-anchor="middle" x="617" y="-119.5" font-family="Helvetica,sans-Serif" font-size="10.00">AH/Types/Frequency.hpp</text>
</a>
</g>
</g>
<!-- Node18&#45;&gt;Node19 -->
<g id="edge31" class="edge">
<title>Node18&#45;&gt;Node19</title>
<path fill="none" stroke="midnightblue" d="M885.26,-281.51C882.13,-280.98 879.02,-280.47 876,-280 810.29,-269.87 623.09,-293.76 579,-244 552.35,-213.93 583,-165.24 602.81,-139.76"/>
<polygon fill="midnightblue" stroke="midnightblue" points="605.69,-141.77 609.25,-131.79 600.24,-137.37 605.69,-141.77"/>
</g>
<!-- Node20 -->
<g id="node20" class="node">
<title>Node20</title>
<g id="a_node20"><a xlink:href="../../d7/d7c/ADCConfig_8hpp.html" target="_top" xlink:title="This file contains the platform&#45;specific ADC resolutions.">
<polygon fill="white" stroke="black" points="734.5,-224.5 734.5,-243.5 891.5,-243.5 891.5,-224.5 734.5,-224.5"/>
<text text-anchor="middle" x="813" y="-231.5" font-family="Helvetica,sans-Serif" font-size="10.00">AH/Hardware/ADCConfig.hpp</text>
</a>
</g>
</g>
<!-- Node18&#45;&gt;Node20 -->
<g id="edge34" class="edge">
<title>Node18&#45;&gt;Node20</title>
<path fill="none" stroke="midnightblue" d="M906.17,-280.32C888.28,-271.62 860.52,-258.12 839.95,-248.11"/>
<polygon fill="midnightblue" stroke="midnightblue" points="841.31,-244.88 830.79,-243.65 838.25,-251.18 841.31,-244.88"/>
</g>
<!-- Node21 -->
<g id="node21" class="node">
<title>Node21</title>
<g id="a_node21"><a xlink:title=" ">
<polygon fill="white" stroke="#bfbfbf" points="588.5,-224.5 588.5,-243.5 641.5,-243.5 641.5,-224.5 588.5,-224.5"/>
<text text-anchor="middle" x="615" y="-231.5" font-family="Helvetica,sans-Serif" font-size="10.00">limits.h</text>
</a>
</g>
</g>
<!-- Node18&#45;&gt;Node21 -->
<g id="edge37" class="edge">
<title>Node18&#45;&gt;Node21</title>
<path fill="none" stroke="midnightblue" d="M885.24,-281.64C882.12,-281.08 879.01,-280.52 876,-280 779.34,-263.21 751.91,-264.22 651.62,-243.97"/>
<polygon fill="midnightblue" stroke="midnightblue" points="652.18,-240.51 641.68,-241.94 650.78,-247.37 652.18,-240.51"/>
</g>
<!-- Node18&#45;&gt;Node22 -->
<g id="edge38" class="edge">
<title>Node18&#45;&gt;Node22</title>
<path fill="none" stroke="midnightblue" d="M885.44,-280.47C847.35,-272.01 787.19,-258.53 726.08,-244.23"/>
<polygon fill="midnightblue" stroke="midnightblue" points="726.81,-240.8 716.27,-241.93 725.21,-247.62 726.81,-240.8"/>
</g>
<!-- Node18&#45;&gt;Node23 -->
<g id="edge39" class="edge">
<title>Node18&#45;&gt;Node23</title>
<path fill="none" stroke="midnightblue" d="M925.98,-280.08C927.57,-272.93 929.86,-262.64 931.85,-253.69"/>
<polygon fill="midnightblue" stroke="midnightblue" points="935.3,-254.27 934.06,-243.75 928.47,-252.75 935.3,-254.27"/>
</g>
<!-- Node19&#45;&gt;Node2 -->
<g id="edge32" class="edge">
<title>Node19&#45;&gt;Node2</title>
<path fill="none" stroke="midnightblue" d="M627.67,-112.37C650.71,-93.73 705.36,-49.53 734.29,-26.13"/>
<polygon fill="midnightblue" stroke="midnightblue" points="736.8,-28.6 742.38,-19.59 732.4,-23.16 736.8,-28.6"/>
</g>
<!-- Node19&#45;&gt;Node11 -->
<g id="edge33" class="edge">
<title>Node19&#45;&gt;Node11</title>
<path fill="none" stroke="midnightblue" d="M607.68,-112.32C599.11,-104.34 586.19,-92.31 575.81,-82.65"/>
<polygon fill="midnightblue" stroke="midnightblue" points="578.19,-80.09 568.49,-75.83 573.42,-85.21 578.19,-80.09"/>
</g>
<!-- Node20&#45;&gt;Node2 -->
<g id="edge35" class="edge">
<title>Node20&#45;&gt;Node2</title>
<path fill="none" stroke="midnightblue" d="M819.85,-224.21C835.16,-203.42 869.12,-150.12 847,-112 830.81,-84.11 805.94,-99.63 784,-76 771.53,-62.57 763.17,-43.2 758.31,-29.1"/>
<polygon fill="midnightblue" stroke="midnightblue" points="761.63,-28 755.26,-19.53 754.96,-30.12 761.63,-28"/>
</g>
<!-- Node20&#45;&gt;Node12 -->
<g id="edge36" class="edge">
<title>Node20&#45;&gt;Node12</title>
<path fill="none" stroke="midnightblue" d="M863.23,-224.44C919.34,-214.89 1010.13,-199.42 1069.95,-189.23"/>
<polygon fill="midnightblue" stroke="midnightblue" points="1070.74,-192.65 1080.01,-187.52 1069.56,-185.75 1070.74,-192.65"/>
</g>
<!-- Node26&#45;&gt;Node2 -->
<g id="edge50" class="edge">
<title>Node26&#45;&gt;Node2</title>
<path fill="none" stroke="midnightblue" d="M210.31,-112.42C187.87,-99.82 152.79,-75.68 171,-56 204.25,-20.08 518.75,-12.75 671.08,-11.31"/>
<polygon fill="midnightblue" stroke="midnightblue" points="671.35,-14.81 681.32,-11.22 671.29,-7.81 671.35,-14.81"/>
</g>
<!-- Node26&#45;&gt;Node11 -->
<g id="edge51" class="edge">
<title>Node26&#45;&gt;Node11</title>
<path fill="none" stroke="midnightblue" d="M279.61,-112.44C338.49,-102.87 433.85,-87.36 496.49,-77.17"/>
<polygon fill="midnightblue" stroke="midnightblue" points="497.33,-80.58 506.64,-75.52 496.21,-73.67 497.33,-80.58"/>
</g>
<!-- Node27 -->
<g id="node27" class="node">
<title>Node27</title>
<g id="a_node27"><a xlink:title=" ">
<polygon fill="white" stroke="#bfbfbf" points="180,-56.5 180,-75.5 270,-75.5 270,-56.5 180,-56.5"/>
<text text-anchor="middle" x="225" y="-63.5" font-family="Helvetica,sans-Serif" font-size="10.00">AH/STL/cstddef</text>
</a>
</g>
</g>
<!-- Node26&#45;&gt;Node27 -->
<g id="edge48" class="edge">
<title>Node26&#45;&gt;Node27</title>
<path fill="none" stroke="midnightblue" d="M226.67,-112.08C226.41,-105.01 226.03,-94.86 225.7,-85.99"/>
<polygon fill="midnightblue" stroke="midnightblue" points="229.19,-85.61 225.32,-75.75 222.2,-85.87 229.19,-85.61"/>
</g>
<!-- Node28 -->
<g id="node28" class="node">
<title>Node28</title>
<g id="a_node28"><a xlink:title=" ">
<polygon fill="white" stroke="#bfbfbf" points="288.5,-56.5 288.5,-75.5 367.5,-75.5 367.5,-56.5 288.5,-56.5"/>
<text text-anchor="middle" x="328" y="-63.5" font-family="Helvetica,sans-Serif" font-size="10.00">AH/STL/tuple</text>
</a>
</g>
</g>
<!-- Node26&#45;&gt;Node28 -->
<g id="edge49" class="edge">
<title>Node26&#45;&gt;Node28</title>
<path fill="none" stroke="midnightblue" d="M243.23,-112.32C259.35,-103.7 284.3,-90.36 302.96,-80.39"/>
<polygon fill="midnightblue" stroke="midnightblue" points="304.64,-83.46 311.81,-75.65 301.34,-77.28 304.64,-83.46"/>
</g>
<!-- Node30&#45;&gt;Node2 -->
<g id="edge57" class="edge">
<title>Node30&#45;&gt;Node2</title>
<path fill="none" stroke="midnightblue" d="M758.33,-509.78C636.5,-504.19 416.75,-491.04 389,-468 365.85,-448.77 370,-433.1 370,-403 370,-403 370,-403 370,-177 370,-117.36 379.84,-91.17 428,-56 465.59,-28.55 587.65,-17.81 671,-13.63"/>
<polygon fill="midnightblue" stroke="midnightblue" points="671.39,-17.11 681.22,-13.14 671.06,-10.12 671.39,-17.11"/>
</g>
<!-- Node30&#45;&gt;Node8 -->
<g id="edge65" class="edge">
<title>Node30&#45;&gt;Node8</title>
<path fill="none" stroke="midnightblue" d="M869.74,-504.44C902.94,-495.2 955.99,-480.44 992.56,-470.26"/>
<polygon fill="midnightblue" stroke="midnightblue" points="993.71,-473.57 1002.4,-467.52 991.83,-466.83 993.71,-473.57"/>
</g>
<!-- Node30&#45;&gt;Node16 -->
<g id="edge66" class="edge">
<title>Node30&#45;&gt;Node16</title>
<path fill="none" stroke="midnightblue" d="M854.15,-504.46C878.43,-491.03 927.8,-464.81 972,-448 1027.64,-426.84 1050.8,-443.98 1101,-412 1131.73,-392.42 1227.74,-265.37 1235,-244 1246.99,-208.7 1233.22,-165.09 1223.32,-141.04"/>
<polygon fill="midnightblue" stroke="midnightblue" points="1226.48,-139.52 1219.28,-131.74 1220.06,-142.31 1226.48,-139.52"/>
</g>
<!-- Node30&#45;&gt;Node17 -->
<g id="edge68" class="edge">
<title>Node30&#45;&gt;Node17</title>
<path fill="none" stroke="midnightblue" d="M842.56,-504.22C845.99,-495.27 850.95,-480.93 853,-468 858.29,-434.64 837.62,-421.54 854,-392 861.91,-377.73 876.47,-367.29 890.26,-360.08"/>
<polygon fill="midnightblue" stroke="midnightblue" points="892.1,-363.08 899.6,-355.6 889.07,-356.77 892.1,-363.08"/>
</g>
<!-- Node30&#45;&gt;Node22 -->
<g id="edge69" class="edge">
<title>Node30&#45;&gt;Node22</title>
<path fill="none" stroke="midnightblue" d="M837.71,-504.09C835.55,-491.09 830.37,-466.45 820,-448 776.39,-370.38 717.17,-383.02 685,-300 679.26,-285.19 680.73,-267.03 683.22,-253.68"/>
<polygon fill="midnightblue" stroke="midnightblue" points="686.67,-254.29 685.42,-243.77 679.84,-252.78 686.67,-254.29"/>
</g>
<!-- Node31 -->
<g id="node31" class="node">
<title>Node31</title>
<g id="a_node31"><a xlink:href="../../d4/dba/CRTP_8hpp.html" target="_top" xlink:title=" ">
<polygon fill="white" stroke="black" points="677,-448.5 677,-467.5 811,-467.5 811,-448.5 677,-448.5"/>
<text text-anchor="middle" x="744" y="-455.5" font-family="Helvetica,sans-Serif" font-size="10.00">AH/Containers/CRTP.hpp</text>
</a>
</g>
</g>
<!-- Node30&#45;&gt;Node31 -->
<g id="edge58" class="edge">
<title>Node30&#45;&gt;Node31</title>
<path fill="none" stroke="midnightblue" d="M823.74,-504.32C808.78,-495.82 785.75,-482.73 768.27,-472.8"/>
<polygon fill="midnightblue" stroke="midnightblue" points="769.65,-469.55 759.23,-467.65 766.19,-475.64 769.65,-469.55"/>
</g>
<!-- Node32 -->
<g id="node32" class="node">
<title>Node32</title>
<g id="a_node32"><a xlink:href="../../de/dd1/LinkedList_8hpp.html" target="_top" xlink:title=" ">
<polygon fill="white" stroke="black" points="499.5,-448.5 499.5,-467.5 658.5,-467.5 658.5,-448.5 499.5,-448.5"/>
<text text-anchor="middle" x="579" y="-455.5" font-family="Helvetica,sans-Serif" font-size="10.00">AH/Containers/LinkedList.hpp</text>
</a>
</g>
</g>
<!-- Node30&#45;&gt;Node32 -->
<g id="edge59" class="edge">
<title>Node30&#45;&gt;Node32</title>
<path fill="none" stroke="midnightblue" d="M797.8,-504.44C752.35,-495 679.16,-479.8 630.09,-469.61"/>
<polygon fill="midnightblue" stroke="midnightblue" points="630.51,-466.12 620.01,-467.52 629.08,-472.98 630.51,-466.12"/>
</g>
<!-- Node34 -->
<g id="node34" class="node">
<title>Node34</title>
<g id="a_node34"><a xlink:title=" ">
<polygon fill="white" stroke="#bfbfbf" points="398.5,-448.5 398.5,-467.5 481.5,-467.5 481.5,-448.5 398.5,-448.5"/>
<text text-anchor="middle" x="440" y="-455.5" font-family="Helvetica,sans-Serif" font-size="10.00">AH/STL/utility</text>
</a>
</g>
</g>
<!-- Node30&#45;&gt;Node34 -->
<g id="edge67" class="edge">
<title>Node30&#45;&gt;Node34</title>
<path fill="none" stroke="midnightblue" d="M764.3,-504.46C695.81,-496.38 591.34,-483.43 491.66,-468.2"/>
<polygon fill="midnightblue" stroke="midnightblue" points="492.13,-464.73 481.72,-466.67 491.07,-471.65 492.13,-464.73"/>
</g>
<!-- Node32&#45;&gt;Node2 -->
<g id="edge60" class="edge">
<title>Node32&#45;&gt;Node2</title>
<path fill="none" stroke="midnightblue" d="M565.01,-448.35C524.17,-421.9 408,-337.65 408,-235 408,-235 408,-235 408,-177 408,-119.78 407.69,-92.21 452,-56 484.64,-29.32 593.56,-18.42 670.97,-13.99"/>
<polygon fill="midnightblue" stroke="midnightblue" points="671.4,-17.47 681.19,-13.43 671.02,-10.48 671.4,-17.47"/>
</g>
<!-- Node32&#45;&gt;Node9 -->
<g id="edge61" class="edge">
<title>Node32&#45;&gt;Node9</title>
<path fill="none" stroke="midnightblue" d="M653.53,-448.49C728.47,-439.87 847.62,-426.02 961.05,-412.11"/>
<polygon fill="midnightblue" stroke="midnightblue" points="961.8,-415.54 971.3,-410.85 960.95,-408.59 961.8,-415.54"/>
</g>
<!-- Node32&#45;&gt;Node13 -->
<g id="edge62" class="edge">
<title>Node32&#45;&gt;Node13</title>
<path fill="none" stroke="midnightblue" d="M570.51,-448.39C562.45,-439.8 550.49,-425.92 543,-412 528.62,-385.26 522,-377.36 522,-347 522,-347 522,-347 522,-233 522,-189.65 650.24,-151.76 722.29,-133.9"/>
<polygon fill="midnightblue" stroke="midnightblue" points="723.18,-137.29 732.06,-131.51 721.52,-130.48 723.18,-137.29"/>
</g>
<!-- Node32&#45;&gt;Node25 -->
<g id="edge64" class="edge">
<title>Node32&#45;&gt;Node25</title>
<path fill="none" stroke="midnightblue" d="M631.13,-448.44C691.72,-438.5 791.26,-422.16 853.03,-412.02"/>
<polygon fill="midnightblue" stroke="midnightblue" points="853.68,-415.46 862.99,-410.39 852.55,-408.55 853.68,-415.46"/>
</g>
<!-- Node33 -->
<g id="node33" class="node">
<title>Node33</title>
<g id="a_node33"><a xlink:title=" ">
<polygon fill="white" stroke="#bfbfbf" points="552.5,-392.5 552.5,-411.5 605.5,-411.5 605.5,-392.5 552.5,-392.5"/>
<text text-anchor="middle" x="579" y="-399.5" font-family="Helvetica,sans-Serif" font-size="10.00">stdlib.h</text>
</a>
</g>
</g>
<!-- Node32&#45;&gt;Node33 -->
<g id="edge63" class="edge">
<title>Node32&#45;&gt;Node33</title>
<path fill="none" stroke="midnightblue" d="M579,-448.08C579,-441.01 579,-430.86 579,-421.99"/>
<polygon fill="midnightblue" stroke="midnightblue" points="582.5,-421.75 579,-411.75 575.5,-421.75 582.5,-421.75"/>
</g>
<!-- Node35&#45;&gt;Node2 -->
<g id="edge72" class="edge">
<title>Node35&#45;&gt;Node2</title>
<path fill="none" stroke="midnightblue" d="M1380.64,-565.97C1444.66,-554.11 1525,-525.91 1525,-459 1525,-459 1525,-459 1525,-121 1525,-14.29 1305.62,-55.75 848,-20 843.61,-19.66 839.1,-19.29 834.56,-18.9"/>
<polygon fill="midnightblue" stroke="midnightblue" points="834.83,-15.41 824.56,-18.03 834.22,-22.39 834.83,-15.41"/>
</g>
<!-- Node35&#45;&gt;Node7 -->
<g id="edge73" class="edge">
<title>Node35&#45;&gt;Node7</title>
<path fill="none" stroke="midnightblue" d="M1278.36,-565.98C1248.72,-555.72 1198.82,-538.46 1165.4,-526.9"/>
<polygon fill="midnightblue" stroke="midnightblue" points="1166.19,-523.47 1155.6,-523.51 1163.9,-530.09 1166.19,-523.47"/>
</g>
<!-- Node35&#45;&gt;Node10 -->
<g id="edge75" class="edge">
<title>Node35&#45;&gt;Node10</title>
<path fill="none" stroke="midnightblue" d="M1297.93,-565.77C1271.8,-520.74 1152.15,-314.52 1116.22,-252.62"/>
<polygon fill="midnightblue" stroke="midnightblue" points="1119.08,-250.57 1111.03,-243.68 1113.03,-254.08 1119.08,-250.57"/>
</g>
<!-- Node36 -->
<g id="node36" class="node">
<title>Node36</title>
<g id="a_node36"><a xlink:title=" ">
<polygon fill="white" stroke="#bfbfbf" points="1553.5,-504.5 1553.5,-523.5 1654.5,-523.5 1654.5,-504.5 1553.5,-504.5"/>
<text text-anchor="middle" x="1604" y="-511.5" font-family="Helvetica,sans-Serif" font-size="10.00">AH/STL/algorithm</text>
</a>
</g>
</g>
<!-- Node35&#45;&gt;Node36 -->
<g id="edge74" class="edge">
<title>Node35&#45;&gt;Node36</title>
<path fill="none" stroke="midnightblue" d="M1346.13,-565.98C1400.11,-555.3 1492.54,-537.03 1550.84,-525.51"/>
<polygon fill="midnightblue" stroke="midnightblue" points="1551.82,-528.88 1560.95,-523.51 1550.47,-522.01 1551.82,-528.88"/>
</g>
</g>
</svg>
