<?xml version="1.0" encoding="UTF-8" standalone="no"?>
<!DOCTYPE svg PUBLIC "-//W3C//DTD SVG 1.1//EN"
 "http://www.w3.org/Graphics/SVG/1.1/DTD/svg11.dtd">
<!-- Generated by graphviz version 2.38.0 (20140413.2041)
 -->
<!-- Title: Frequency.hpp Pages: 1 -->
<svg width="1531pt" height="644pt"
 viewBox="0.00 0.00 1530.50 644.00" xmlns="http://www.w3.org/2000/svg" xmlns:xlink="http://www.w3.org/1999/xlink">
<g id="graph0" class="graph" transform="scale(1 1) rotate(0) translate(4 640)">
<title>Frequency.hpp</title>
<polygon fill="white" stroke="none" points="-4,4 -4,-640 1526.5,-640 1526.5,4 -4,4"/>
<!-- Node1 -->
<g id="node1" class="node"><title>Node1</title>
<g id="a_node1"><a xlink:title=" ">
<polygon fill="#bfbfbf" stroke="black" points="958.5,-616.5 958.5,-635.5 1039.5,-635.5 1039.5,-616.5 958.5,-616.5"/>
<text text-anchor="middle" x="999" y="-623.5" font-family="Helvetica,sans-Serif" font-size="10.00">Frequency.hpp</text>
</a>
</g>
</g>
<!-- Node2 -->
<g id="node2" class="node"><title>Node2</title>
<g id="a_node2"><a xlink:href="../../db/d02/Settings_8hpp.html" target="_top" xlink:title="All user settings and debugging options can be changed here.">
<polygon fill="white" stroke="black" points="963.5,-560.5 963.5,-579.5 1034.5,-579.5 1034.5,-560.5 963.5,-560.5"/>
<text text-anchor="middle" x="999" y="-567.5" font-family="Helvetica,sans-Serif" font-size="10.00">Settings.hpp</text>
</a>
</g>
</g>
<!-- Node1&#45;&gt;Node2 -->
<g id="edge1" class="edge"><title>Node1&#45;&gt;Node2</title>
<path fill="none" stroke="midnightblue" d="M999,-605.805C999,-596.91 999,-586.78 999,-579.751"/>
<polygon fill="midnightblue" stroke="midnightblue" points="995.5,-606.083 999,-616.083 1002.5,-606.083 995.5,-606.083"/>
</g>
<!-- Node3 -->
<g id="node3" class="node"><title>Node3</title>
<g id="a_node3"><a xlink:href="../../d2/dd5/SettingsWrapper_8hpp.html" target="_top" xlink:title=" ">
<polygon fill="white" stroke="black" points="945,-504.5 945,-523.5 1053,-523.5 1053,-504.5 945,-504.5"/>
<text text-anchor="middle" x="999" y="-511.5" font-family="Helvetica,sans-Serif" font-size="10.00">SettingsWrapper.hpp</text>
</a>
</g>
</g>
<!-- Node2&#45;&gt;Node3 -->
<g id="edge2" class="edge"><title>Node2&#45;&gt;Node3</title>
<path fill="none" stroke="midnightblue" d="M999,-549.805C999,-540.91 999,-530.78 999,-523.751"/>
<polygon fill="midnightblue" stroke="midnightblue" points="995.5,-550.083 999,-560.083 1002.5,-550.083 995.5,-550.083"/>
</g>
<!-- Node4 -->
<g id="node4" class="node"><title>Node4</title>
<g id="a_node4"><a xlink:href="../../d4/d93/Updatable_8hpp.html" target="_top" xlink:title=" ">
<polygon fill="white" stroke="black" points="444,-336.5 444,-355.5 524,-355.5 524,-336.5 444,-336.5"/>
<text text-anchor="middle" x="484" y="-343.5" font-family="Helvetica,sans-Serif" font-size="10.00">Updatable.hpp</text>
</a>
</g>
</g>
<!-- Node3&#45;&gt;Node4 -->
<g id="edge3" class="edge"><title>Node3&#45;&gt;Node4</title>
<path fill="none" stroke="midnightblue" d="M934.782,-508.071C815.319,-497.626 565.376,-469.373 503,-412 486.905,-397.196 484.168,-369.591 483.875,-355.601"/>
<polygon fill="midnightblue" stroke="midnightblue" points="934.625,-511.57 944.888,-508.939 935.224,-504.596 934.625,-511.57"/>
</g>
<!-- Node5 -->
<g id="node5" class="node"><title>Node5</title>
<g id="a_node5"><a xlink:href="../../df/dee/Debug_8hpp.html" target="_top" xlink:title=" ">
<polygon fill="white" stroke="black" points="855,-448.5 855,-467.5 919,-467.5 919,-448.5 855,-448.5"/>
<text text-anchor="middle" x="887" y="-455.5" font-family="Helvetica,sans-Serif" font-size="10.00">Debug.hpp</text>
</a>
</g>
</g>
<!-- Node3&#45;&gt;Node5 -->
<g id="edge4" class="edge"><title>Node3&#45;&gt;Node5</title>
<path fill="none" stroke="midnightblue" d="M966.983,-500.368C944.554,-490.255 915.956,-476.349 899.584,-467.516"/>
<polygon fill="midnightblue" stroke="midnightblue" points="965.605,-503.585 976.165,-504.444 968.445,-497.187 965.605,-503.585"/>
</g>
<!-- Node9 -->
<g id="node9" class="node"><title>Node9</title>
<g id="a_node9"><a xlink:href="../../d4/db3/Button_8hpp.html" target="_top" xlink:title=" ">
<polygon fill="white" stroke="black" points="1258,-112.5 1258,-131.5 1322,-131.5 1322,-112.5 1258,-112.5"/>
<text text-anchor="middle" x="1290" y="-119.5" font-family="Helvetica,sans-Serif" font-size="10.00">Button.hpp</text>
</a>
</g>
</g>
<!-- Node3&#45;&gt;Node9 -->
<g id="edge65" class="edge"><title>Node3&#45;&gt;Node9</title>
<path fill="none" stroke="midnightblue" d="M1063.45,-512.679C1122.2,-510.112 1210.08,-500.448 1279,-468 1318.6,-449.353 1353,-446.775 1353,-403 1353,-403 1353,-403 1353,-233 1353,-190.305 1316.82,-149.149 1299.3,-131.718"/>
<polygon fill="midnightblue" stroke="midnightblue" points="1063.05,-509.192 1053.19,-513.069 1063.32,-516.187 1063.05,-509.192"/>
</g>
<!-- Node25 -->
<g id="node25" class="node"><title>Node25</title>
<g id="a_node25"><a xlink:href="../../d8/df3/FilteredAnalog_8hpp.html" target="_top" xlink:title=" ">
<polygon fill="white" stroke="black" points="1003,-112.5 1003,-131.5 1101,-131.5 1101,-112.5 1003,-112.5"/>
<text text-anchor="middle" x="1052" y="-119.5" font-family="Helvetica,sans-Serif" font-size="10.00">FilteredAnalog.hpp</text>
</a>
</g>
</g>
<!-- Node3&#45;&gt;Node25 -->
<g id="edge69" class="edge"><title>Node3&#45;&gt;Node25</title>
<path fill="none" stroke="midnightblue" d="M1028.57,-499.917C1062.05,-482.857 1112,-449.598 1112,-403 1112,-403 1112,-403 1112,-289 1112,-225.26 1072.39,-155.512 1057.54,-131.597"/>
<polygon fill="midnightblue" stroke="midnightblue" points="1026.65,-496.959 1019.2,-504.492 1029.72,-503.249 1026.65,-496.959"/>
</g>
<!-- Node43 -->
<g id="node43" class="node"><title>Node43</title>
<g id="a_node43"><a xlink:href="../../d1/d1f/ShiftRegisterOutRGB_8hpp.html" target="_top" xlink:title=" ">
<polygon fill="white" stroke="black" points="1140,-448.5 1140,-467.5 1270,-467.5 1270,-448.5 1140,-448.5"/>
<text text-anchor="middle" x="1205" y="-455.5" font-family="Helvetica,sans-Serif" font-size="10.00">ShiftRegisterOutRGB.hpp</text>
</a>
</g>
</g>
<!-- Node3&#45;&gt;Node43 -->
<g id="edge66" class="edge"><title>Node3&#45;&gt;Node43</title>
<path fill="none" stroke="midnightblue" d="M1041.62,-501.829C1080.51,-491.633 1137.16,-476.782 1172.51,-467.516"/>
<polygon fill="midnightblue" stroke="midnightblue" points="1040.43,-498.522 1031.64,-504.444 1042.2,-505.293 1040.43,-498.522"/>
</g>
<!-- Node5&#45;&gt;Node3 -->
<g id="edge64" class="edge"><title>Node5&#45;&gt;Node3</title>
<path fill="none" stroke="midnightblue" d="M919.482,-471.842C941.705,-481.875 969.814,-495.546 986.12,-504.324"/>
<polygon fill="midnightblue" stroke="midnightblue" points="920.62,-468.518 910.06,-467.655 917.777,-474.914 920.62,-468.518"/>
</g>
<!-- Node6 -->
<g id="node6" class="node"><title>Node6</title>
<g id="a_node6"><a xlink:href="../../de/dd1/LinkedList_8hpp.html" target="_top" xlink:title=" ">
<polygon fill="white" stroke="black" points="512,-392.5 512,-411.5 592,-411.5 592,-392.5 512,-392.5"/>
<text text-anchor="middle" x="552" y="-399.5" font-family="Helvetica,sans-Serif" font-size="10.00">LinkedList.hpp</text>
</a>
</g>
</g>
<!-- Node5&#45;&gt;Node6 -->
<g id="edge5" class="edge"><title>Node5&#45;&gt;Node6</title>
<path fill="none" stroke="midnightblue" d="M844.98,-450.227C780.036,-439.758 656.121,-419.784 592.261,-409.49"/>
<polygon fill="midnightblue" stroke="midnightblue" points="844.449,-453.686 854.879,-451.822 845.563,-446.775 844.449,-453.686"/>
</g>
<!-- Node33 -->
<g id="node33" class="node"><title>Node33</title>
<g id="a_node33"><a xlink:href="../../df/d66/Debug_8cpp.html" target="_top" xlink:title=" ">
<polygon fill="white" stroke="black" points="855,-392.5 855,-411.5 919,-411.5 919,-392.5 855,-392.5"/>
<text text-anchor="middle" x="887" y="-399.5" font-family="Helvetica,sans-Serif" font-size="10.00">Debug.cpp</text>
</a>
</g>
</g>
<!-- Node5&#45;&gt;Node33 -->
<g id="edge43" class="edge"><title>Node5&#45;&gt;Node33</title>
<path fill="none" stroke="midnightblue" d="M887,-437.805C887,-428.91 887,-418.78 887,-411.751"/>
<polygon fill="midnightblue" stroke="midnightblue" points="883.5,-438.083 887,-448.083 890.5,-438.083 883.5,-438.083"/>
</g>
<!-- Node34 -->
<g id="node34" class="node"><title>Node34</title>
<g id="a_node34"><a xlink:href="../../d1/d93/Error_8hpp.html" target="_top" xlink:title=" ">
<polygon fill="white" stroke="black" points="617,-392.5 617,-411.5 673,-411.5 673,-392.5 617,-392.5"/>
<text text-anchor="middle" x="645" y="-399.5" font-family="Helvetica,sans-Serif" font-size="10.00">Error.hpp</text>
</a>
</g>
</g>
<!-- Node5&#45;&gt;Node34 -->
<g id="edge44" class="edge"><title>Node5&#45;&gt;Node34</title>
<path fill="none" stroke="midnightblue" d="M844.843,-447.593C795.567,-436.598 715.395,-418.708 673.129,-409.277"/>
<polygon fill="midnightblue" stroke="midnightblue" points="844.342,-451.067 854.864,-449.829 845.867,-444.235 844.342,-451.067"/>
</g>
<!-- Node6&#45;&gt;Node4 -->
<g id="edge6" class="edge"><title>Node6&#45;&gt;Node4</title>
<path fill="none" stroke="midnightblue" d="M533.238,-386.101C521,-376.382 505.441,-364.027 495.124,-355.834"/>
<polygon fill="midnightblue" stroke="midnightblue" points="531.067,-388.846 541.075,-392.324 535.42,-383.364 531.067,-388.846"/>
</g>
<!-- Node7 -->
<g id="node7" class="node"><title>Node7</title>
<g id="a_node7"><a xlink:href="../../d4/d57/ExtendedIOElement_8hpp.html" target="_top" xlink:title=" ">
<polygon fill="white" stroke="black" points="619.5,-224.5 619.5,-243.5 742.5,-243.5 742.5,-224.5 619.5,-224.5"/>
<text text-anchor="middle" x="681" y="-231.5" font-family="Helvetica,sans-Serif" font-size="10.00">ExtendedIOElement.hpp</text>
</a>
</g>
</g>
<!-- Node6&#45;&gt;Node7 -->
<g id="edge7" class="edge"><title>Node6&#45;&gt;Node7</title>
<path fill="none" stroke="midnightblue" d="M502.168,-392.554C461.908,-383.375 414.977,-365.866 435,-336 475.878,-275.028 560.874,-250.833 619.416,-241.252"/>
<polygon fill="midnightblue" stroke="midnightblue" points="501.436,-395.977 511.949,-394.657 502.908,-389.133 501.436,-395.977"/>
</g>
<!-- Node8 -->
<g id="node8" class="node"><title>Node8</title>
<g id="a_node8"><a xlink:href="../../dd/ddf/ExtendedInputOutput_8hpp.html" target="_top" xlink:title=" ">
<polygon fill="white" stroke="black" points="689,-168.5 689,-187.5 817,-187.5 817,-168.5 689,-168.5"/>
<text text-anchor="middle" x="753" y="-175.5" font-family="Helvetica,sans-Serif" font-size="10.00">ExtendedInputOutput.hpp</text>
</a>
</g>
</g>
<!-- Node7&#45;&gt;Node8 -->
<g id="edge8" class="edge"><title>Node7&#45;&gt;Node8</title>
<path fill="none" stroke="midnightblue" d="M700.866,-218.101C713.823,-208.382 730.297,-196.027 741.221,-187.834"/>
<polygon fill="midnightblue" stroke="midnightblue" points="698.468,-215.524 692.568,-224.324 702.668,-221.124 698.468,-215.524"/>
</g>
<!-- Node18 -->
<g id="node18" class="node"><title>Node18</title>
<g id="a_node18"><a xlink:href="../../d6/d3c/ExtendedInputOutput_8cpp.html" target="_top" xlink:title=" ">
<polygon fill="white" stroke="black" points="435,-112.5 435,-131.5 563,-131.5 563,-112.5 435,-112.5"/>
<text text-anchor="middle" x="499" y="-119.5" font-family="Helvetica,sans-Serif" font-size="10.00">ExtendedInputOutput.cpp</text>
</a>
</g>
</g>
<!-- Node7&#45;&gt;Node18 -->
<g id="edge41" class="edge"><title>Node7&#45;&gt;Node18</title>
<path fill="none" stroke="midnightblue" d="M665.599,-217.316C650.988,-203.076 627.916,-182.192 605,-168 579.505,-152.21 547.495,-139.475 525.357,-131.635"/>
<polygon fill="midnightblue" stroke="midnightblue" points="663.23,-219.896 672.791,-224.459 668.162,-214.929 663.23,-219.896"/>
</g>
<!-- Node31 -->
<g id="node31" class="node"><title>Node31</title>
<g id="a_node31"><a xlink:href="../../d2/d05/StaticSizeExtendedIOElement_8hpp.html" target="_top" xlink:title=" ">
<polygon fill="white" stroke="black" points="247,-168.5 247,-187.5 415,-187.5 415,-168.5 247,-168.5"/>
<text text-anchor="middle" x="331" y="-175.5" font-family="Helvetica,sans-Serif" font-size="10.00">StaticSizeExtendedIOElement.hpp</text>
</a>
</g>
</g>
<!-- Node7&#45;&gt;Node31 -->
<g id="edge37" class="edge"><title>Node7&#45;&gt;Node31</title>
<path fill="none" stroke="midnightblue" d="M615.645,-222.917C549.523,-212.715 448.428,-197.117 386.199,-187.516"/>
<polygon fill="midnightblue" stroke="midnightblue" points="615.125,-226.378 625.541,-224.444 616.192,-219.46 615.125,-226.378"/>
</g>
<!-- Node32 -->
<g id="node32" class="node"><title>Node32</title>
<g id="a_node32"><a xlink:href="../../da/d1f/ExtendedIOElement_8cpp.html" target="_top" xlink:title=" ">
<polygon fill="white" stroke="black" points="852.5,-168.5 852.5,-187.5 975.5,-187.5 975.5,-168.5 852.5,-168.5"/>
<text text-anchor="middle" x="914" y="-175.5" font-family="Helvetica,sans-Serif" font-size="10.00">ExtendedIOElement.cpp</text>
</a>
</g>
</g>
<!-- Node7&#45;&gt;Node32 -->
<g id="edge42" class="edge"><title>Node7&#45;&gt;Node32</title>
<path fill="none" stroke="midnightblue" d="M727.803,-222.153C771.827,-211.95 836.847,-196.881 877.253,-187.516"/>
<polygon fill="midnightblue" stroke="midnightblue" points="726.871,-218.776 717.92,-224.444 728.452,-225.595 726.871,-218.776"/>
</g>
<!-- Node8&#45;&gt;Node9 -->
<g id="edge9" class="edge"><title>Node8&#45;&gt;Node9</title>
<path fill="none" stroke="midnightblue" d="M827.348,-169.524C946.18,-157.574 1174.06,-134.659 1257.96,-126.221"/>
<polygon fill="midnightblue" stroke="midnightblue" points="826.841,-166.057 817.241,-170.54 827.541,-173.022 826.841,-166.057"/>
</g>
<!-- Node15 -->
<g id="node15" class="node"><title>Node15</title>
<g id="a_node15"><a xlink:href="../../d5/d41/ButtonMatrix_8ipp.html" target="_top" xlink:title=" ">
<polygon fill="white" stroke="black" points="897,-112.5 897,-131.5 985,-131.5 985,-112.5 897,-112.5"/>
<text text-anchor="middle" x="941" y="-119.5" font-family="Helvetica,sans-Serif" font-size="10.00">ButtonMatrix.ipp</text>
</a>
</g>
</g>
<!-- Node8&#45;&gt;Node15 -->
<g id="edge15" class="edge"><title>Node8&#45;&gt;Node15</title>
<path fill="none" stroke="midnightblue" d="M792.801,-165.568C828.266,-155.381 879.366,-140.703 911.35,-131.516"/>
<polygon fill="midnightblue" stroke="midnightblue" points="791.434,-162.319 782.789,-168.444 793.367,-169.047 791.434,-162.319"/>
</g>
<!-- Node17 -->
<g id="node17" class="node"><title>Node17</title>
<g id="a_node17"><a xlink:href="../../d7/def/AnalogMultiplex_8hpp.html" target="_top" xlink:title=" ">
<polygon fill="white" stroke="black" points="313,-112.5 313,-131.5 417,-131.5 417,-112.5 313,-112.5"/>
<text text-anchor="middle" x="365" y="-119.5" font-family="Helvetica,sans-Serif" font-size="10.00">AnalogMultiplex.hpp</text>
</a>
</g>
</g>
<!-- Node8&#45;&gt;Node17 -->
<g id="edge18" class="edge"><title>Node8&#45;&gt;Node17</title>
<path fill="none" stroke="midnightblue" d="M679.742,-167.126C613.451,-158.142 513.149,-144.425 426,-132 423.139,-131.592 420.202,-131.17 417.239,-130.741"/>
<polygon fill="midnightblue" stroke="midnightblue" points="679.296,-170.598 689.676,-168.471 680.236,-163.661 679.296,-170.598"/>
</g>
<!-- Node8&#45;&gt;Node18 -->
<g id="edge19" class="edge"><title>Node8&#45;&gt;Node18</title>
<path fill="none" stroke="midnightblue" d="M702.885,-166.346C654.883,-156.141 583.385,-140.94 539.059,-131.516"/>
<polygon fill="midnightblue" stroke="midnightblue" points="702.244,-169.787 712.753,-168.444 703.699,-162.94 702.244,-169.787"/>
</g>
<!-- Node19 -->
<g id="node19" class="node"><title>Node19</title>
<g id="a_node19"><a xlink:href="../../d5/d47/ShiftRegisterOutBase_8ipp.html" target="_top" xlink:title=" ">
<polygon fill="white" stroke="black" points="270,-56.5 270,-75.5 398,-75.5 398,-56.5 270,-56.5"/>
<text text-anchor="middle" x="334" y="-63.5" font-family="Helvetica,sans-Serif" font-size="10.00">ShiftRegisterOutBase.ipp</text>
</a>
</g>
</g>
<!-- Node8&#45;&gt;Node19 -->
<g id="edge20" class="edge"><title>Node8&#45;&gt;Node19</title>
<path fill="none" stroke="midnightblue" d="M710.279,-165.732C681.478,-157.61 642.882,-145.697 610,-132 592.382,-124.662 590.02,-118.287 572,-112 539.045,-100.503 448.757,-84.9949 389.345,-75.5118"/>
<polygon fill="midnightblue" stroke="midnightblue" points="709.461,-169.137 720.033,-168.444 711.336,-162.393 709.461,-169.137"/>
</g>
<!-- Node22 -->
<g id="node22" class="node"><title>Node22</title>
<g id="a_node22"><a xlink:href="../../de/d95/ShiftRegisterOut_8ipp.html" target="_top" xlink:title=" ">
<polygon fill="white" stroke="black" points="1.5,-0.5 1.5,-19.5 106.5,-19.5 106.5,-0.5 1.5,-0.5"/>
<text text-anchor="middle" x="54" y="-7.5" font-family="Helvetica,sans-Serif" font-size="10.00">ShiftRegisterOut.ipp</text>
</a>
</g>
</g>
<!-- Node8&#45;&gt;Node22 -->
<g id="edge29" class="edge"><title>Node8&#45;&gt;Node22</title>
<path fill="none" stroke="midnightblue" d="M756.451,-158.251C760.22,-131.227 762.388,-81.7528 734,-56 683.302,-10.009 187.122,-26.6993 119,-20 115.032,-19.6098 110.934,-19.158 106.815,-18.6688"/>
<polygon fill="midnightblue" stroke="midnightblue" points="752.963,-157.893 754.822,-168.324 759.873,-159.011 752.963,-157.893"/>
</g>
<!-- Node24 -->
<g id="node24" class="node"><title>Node24</title>
<g id="a_node24"><a xlink:href="../../da/d45/SPIShiftRegisterOut_8ipp.html" target="_top" xlink:title=" ">
<polygon fill="white" stroke="black" points="128,-0.5 128,-19.5 250,-19.5 250,-0.5 128,-0.5"/>
<text text-anchor="middle" x="189" y="-7.5" font-family="Helvetica,sans-Serif" font-size="10.00">SPIShiftRegisterOut.ipp</text>
</a>
</g>
</g>
<!-- Node8&#45;&gt;Node24 -->
<g id="edge30" class="edge"><title>Node8&#45;&gt;Node24</title>
<path fill="none" stroke="midnightblue" d="M762.599,-159.153C775.237,-132.937 792.99,-84.0925 767,-56 732.439,-18.6437 391.722,-12.226 250.17,-11.1779"/>
<polygon fill="midnightblue" stroke="midnightblue" points="759.363,-157.795 757.951,-168.295 765.603,-160.968 759.363,-157.795"/>
</g>
<!-- Node8&#45;&gt;Node25 -->
<g id="edge31" class="edge"><title>Node8&#45;&gt;Node25</title>
<path fill="none" stroke="midnightblue" d="M810.23,-166.664C866.735,-156.459 952.12,-141.039 1004.84,-131.516"/>
<polygon fill="midnightblue" stroke="midnightblue" points="809.596,-163.222 800.377,-168.444 810.84,-170.11 809.596,-163.222"/>
</g>
<!-- Node26 -->
<g id="node26" class="node"><title>Node26</title>
<g id="a_node26"><a xlink:href="../../d9/d4f/LEDs_8hpp.html" target="_top" xlink:title=" ">
<polygon fill="white" stroke="black" points="819,-112.5 819,-131.5 879,-131.5 879,-112.5 819,-112.5"/>
<text text-anchor="middle" x="849" y="-119.5" font-family="Helvetica,sans-Serif" font-size="10.00">LEDs.hpp</text>
</a>
</g>
</g>
<!-- Node8&#45;&gt;Node26 -->
<g id="edge32" class="edge"><title>Node8&#45;&gt;Node26</title>
<path fill="none" stroke="midnightblue" d="M777.574,-163.177C795.239,-153.241 818.513,-140.149 833.614,-131.655"/>
<polygon fill="midnightblue" stroke="midnightblue" points="775.424,-160.371 768.424,-168.324 778.856,-166.472 775.424,-160.371"/>
</g>
<!-- Node28 -->
<g id="node28" class="node"><title>Node28</title>
<g id="a_node28"><a xlink:href="../../d7/d13/MAX7219__Base_8hpp.html" target="_top" xlink:title=" ">
<polygon fill="white" stroke="black" points="619,-112.5 619,-131.5 725,-131.5 725,-112.5 619,-112.5"/>
<text text-anchor="middle" x="672" y="-119.5" font-family="Helvetica,sans-Serif" font-size="10.00">MAX7219_Base.hpp</text>
</a>
</g>
</g>
<!-- Node8&#45;&gt;Node28 -->
<g id="edge34" class="edge"><title>Node8&#45;&gt;Node28</title>
<path fill="none" stroke="midnightblue" d="M731.433,-162.622C716.636,-152.757 697.488,-139.992 684.982,-131.655"/>
<polygon fill="midnightblue" stroke="midnightblue" points="729.724,-165.689 739.986,-168.324 733.607,-159.865 729.724,-165.689"/>
</g>
<!-- Node10 -->
<g id="node10" class="node"><title>Node10</title>
<g id="a_node10"><a xlink:href="../../de/dd1/Button_8cpp.html" target="_top" xlink:title=" ">
<polygon fill="white" stroke="black" points="1154,-56.5 1154,-75.5 1218,-75.5 1218,-56.5 1154,-56.5"/>
<text text-anchor="middle" x="1186" y="-63.5" font-family="Helvetica,sans-Serif" font-size="10.00">Button.cpp</text>
</a>
</g>
</g>
<!-- Node9&#45;&gt;Node10 -->
<g id="edge10" class="edge"><title>Node9&#45;&gt;Node10</title>
<path fill="none" stroke="midnightblue" d="M1264.17,-107.59C1244.94,-97.6052 1219.26,-84.2672 1202.67,-75.6545"/>
<polygon fill="midnightblue" stroke="midnightblue" points="1262.8,-110.822 1273.29,-112.324 1266.03,-104.61 1262.8,-110.822"/>
</g>
<!-- Node11 -->
<g id="node11" class="node"><title>Node11</title>
<g id="a_node11"><a xlink:href="../../d5/d04/IncrementButton_8hpp.html" target="_top" xlink:title=" ">
<polygon fill="white" stroke="black" points="1236.5,-56.5 1236.5,-75.5 1343.5,-75.5 1343.5,-56.5 1236.5,-56.5"/>
<text text-anchor="middle" x="1290" y="-63.5" font-family="Helvetica,sans-Serif" font-size="10.00">IncrementButton.hpp</text>
</a>
</g>
</g>
<!-- Node9&#45;&gt;Node11 -->
<g id="edge11" class="edge"><title>Node9&#45;&gt;Node11</title>
<path fill="none" stroke="midnightblue" d="M1290,-101.805C1290,-92.9102 1290,-82.7798 1290,-75.7511"/>
<polygon fill="midnightblue" stroke="midnightblue" points="1286.5,-102.083 1290,-112.083 1293.5,-102.083 1286.5,-102.083"/>
</g>
<!-- Node13 -->
<g id="node13" class="node"><title>Node13</title>
<g id="a_node13"><a xlink:href="../../df/df5/IncrementDecrementButtons_8hpp.html" target="_top" xlink:title=" ">
<polygon fill="white" stroke="black" points="1361.5,-56.5 1361.5,-75.5 1522.5,-75.5 1522.5,-56.5 1361.5,-56.5"/>
<text text-anchor="middle" x="1442" y="-63.5" font-family="Helvetica,sans-Serif" font-size="10.00">IncrementDecrementButtons.hpp</text>
</a>
</g>
</g>
<!-- Node9&#45;&gt;Node13 -->
<g id="edge13" class="edge"><title>Node9&#45;&gt;Node13</title>
<path fill="none" stroke="midnightblue" d="M1323.67,-109.039C1352.27,-98.8786 1392.61,-84.5457 1418.03,-75.5164"/>
<polygon fill="midnightblue" stroke="midnightblue" points="1322.34,-105.798 1314.08,-112.444 1324.68,-112.394 1322.34,-105.798"/>
</g>
<!-- Node12 -->
<g id="node12" class="node"><title>Node12</title>
<g id="a_node12"><a xlink:href="../../db/d9d/IncrementButton_8cpp.html" target="_top" xlink:title=" ">
<polygon fill="white" stroke="black" points="1236.5,-0.5 1236.5,-19.5 1343.5,-19.5 1343.5,-0.5 1236.5,-0.5"/>
<text text-anchor="middle" x="1290" y="-7.5" font-family="Helvetica,sans-Serif" font-size="10.00">IncrementButton.cpp</text>
</a>
</g>
</g>
<!-- Node11&#45;&gt;Node12 -->
<g id="edge12" class="edge"><title>Node11&#45;&gt;Node12</title>
<path fill="none" stroke="midnightblue" d="M1290,-45.8045C1290,-36.9102 1290,-26.7798 1290,-19.7511"/>
<polygon fill="midnightblue" stroke="midnightblue" points="1286.5,-46.083 1290,-56.083 1293.5,-46.083 1286.5,-46.083"/>
</g>
<!-- Node14 -->
<g id="node14" class="node"><title>Node14</title>
<g id="a_node14"><a xlink:href="../../da/d66/IncrementDecrementButtons_8cpp.html" target="_top" xlink:title=" ">
<polygon fill="white" stroke="black" points="1361.5,-0.5 1361.5,-19.5 1522.5,-19.5 1522.5,-0.5 1361.5,-0.5"/>
<text text-anchor="middle" x="1442" y="-7.5" font-family="Helvetica,sans-Serif" font-size="10.00">IncrementDecrementButtons.cpp</text>
</a>
</g>
</g>
<!-- Node13&#45;&gt;Node14 -->
<g id="edge14" class="edge"><title>Node13&#45;&gt;Node14</title>
<path fill="none" stroke="midnightblue" d="M1442,-45.8045C1442,-36.9102 1442,-26.7798 1442,-19.7511"/>
<polygon fill="midnightblue" stroke="midnightblue" points="1438.5,-46.083 1442,-56.083 1445.5,-46.083 1438.5,-46.083"/>
</g>
<!-- Node16 -->
<g id="node16" class="node"><title>Node16</title>
<g id="a_node16"><a xlink:href="../../d9/d4b/ButtonMatrix_8hpp.html" target="_top" xlink:title=" ">
<polygon fill="white" stroke="black" points="961.5,-56.5 961.5,-75.5 1052.5,-75.5 1052.5,-56.5 961.5,-56.5"/>
<text text-anchor="middle" x="1007" y="-63.5" font-family="Helvetica,sans-Serif" font-size="10.00">ButtonMatrix.hpp</text>
</a>
</g>
</g>
<!-- Node15&#45;&gt;Node16 -->
<g id="edge16" class="edge"><title>Node15&#45;&gt;Node16</title>
<path fill="none" stroke="midnightblue" d="M954.059,-105.242C964.892,-95.5587 979.967,-83.5263 991.429,-75.5732"/>
<polygon fill="midnightblue" stroke="midnightblue" points="951.653,-102.7 946.732,-112.083 956.43,-107.817 951.653,-102.7"/>
</g>
<!-- Node16&#45;&gt;Node15 -->
<g id="edge17" class="edge"><title>Node16&#45;&gt;Node15</title>
<path fill="none" stroke="midnightblue" d="M993.74,-82.9377C982.969,-92.5482 968.091,-104.42 956.719,-112.324"/>
<polygon fill="midnightblue" stroke="midnightblue" points="996.429,-85.2155 1001.35,-75.8339 991.653,-80.0978 996.429,-85.2155"/>
</g>
<!-- Node20 -->
<g id="node20" class="node"><title>Node20</title>
<g id="a_node20"><a xlink:href="../../d8/d93/ShiftRegisterOutBase_8hpp.html" target="_top" xlink:title=" ">
<polygon fill="white" stroke="black" points="87.5,-112.5 87.5,-131.5 218.5,-131.5 218.5,-112.5 87.5,-112.5"/>
<text text-anchor="middle" x="153" y="-119.5" font-family="Helvetica,sans-Serif" font-size="10.00">ShiftRegisterOutBase.hpp</text>
</a>
</g>
</g>
<!-- Node19&#45;&gt;Node20 -->
<g id="edge21" class="edge"><title>Node19&#45;&gt;Node20</title>
<path fill="none" stroke="midnightblue" d="M300.616,-78.6509C268.168,-88.8133 219.352,-103.32 186.769,-112.444"/>
<polygon fill="midnightblue" stroke="midnightblue" points="302.054,-81.8672 310.534,-75.5164 299.944,-75.1926 302.054,-81.8672"/>
</g>
<!-- Node20&#45;&gt;Node19 -->
<g id="edge25" class="edge"><title>Node20&#45;&gt;Node19</title>
<path fill="none" stroke="midnightblue" d="M186.527,-109.304C219.022,-99.1294 267.838,-84.6246 300.374,-75.5164"/>
<polygon fill="midnightblue" stroke="midnightblue" points="185.072,-106.093 176.591,-112.444 187.181,-112.768 185.072,-106.093"/>
</g>
<!-- Node21 -->
<g id="node21" class="node"><title>Node21</title>
<g id="a_node21"><a xlink:href="../../d0/db4/ShiftRegisterOut_8hpp.html" target="_top" xlink:title=" ">
<polygon fill="white" stroke="black" points="0,-56.5 0,-75.5 108,-75.5 108,-56.5 0,-56.5"/>
<text text-anchor="middle" x="54" y="-63.5" font-family="Helvetica,sans-Serif" font-size="10.00">ShiftRegisterOut.hpp</text>
</a>
</g>
</g>
<!-- Node20&#45;&gt;Node21 -->
<g id="edge22" class="edge"><title>Node20&#45;&gt;Node21</title>
<path fill="none" stroke="midnightblue" d="M128.163,-107.453C109.886,-97.4835 85.5844,-84.2279 69.8666,-75.6545"/>
<polygon fill="midnightblue" stroke="midnightblue" points="126.639,-110.608 137.094,-112.324 129.991,-104.463 126.639,-110.608"/>
</g>
<!-- Node23 -->
<g id="node23" class="node"><title>Node23</title>
<g id="a_node23"><a xlink:href="../../d7/d88/SPIShiftRegisterOut_8hpp.html" target="_top" xlink:title=" ">
<polygon fill="white" stroke="black" points="126.5,-56.5 126.5,-75.5 251.5,-75.5 251.5,-56.5 126.5,-56.5"/>
<text text-anchor="middle" x="189" y="-63.5" font-family="Helvetica,sans-Serif" font-size="10.00">SPIShiftRegisterOut.hpp</text>
</a>
</g>
</g>
<!-- Node20&#45;&gt;Node23 -->
<g id="edge26" class="edge"><title>Node20&#45;&gt;Node23</title>
<path fill="none" stroke="midnightblue" d="M164.623,-103.566C170.817,-94.2747 178.168,-83.2484 183.166,-75.7511"/>
<polygon fill="midnightblue" stroke="midnightblue" points="161.58,-101.821 158.945,-112.083 167.404,-105.704 161.58,-101.821"/>
</g>
<!-- Node21&#45;&gt;Node22 -->
<g id="edge23" class="edge"><title>Node21&#45;&gt;Node22</title>
<path fill="none" stroke="midnightblue" d="M47.5276,-46.1005C46.8956,-37.1357 47.3427,-26.8579 48.869,-19.7511"/>
<polygon fill="midnightblue" stroke="midnightblue" points="44.0658,-46.6216 48.8337,-56.083 51.0067,-45.7134 44.0658,-46.6216"/>
</g>
<!-- Node22&#45;&gt;Node21 -->
<g id="edge24" class="edge"><title>Node22&#45;&gt;Node21</title>
<path fill="none" stroke="midnightblue" d="M60.4575,-29.6911C61.1062,-38.6353 60.6758,-48.9272 59.1663,-56.083"/>
<polygon fill="midnightblue" stroke="midnightblue" points="63.9231,-29.2002 59.131,-19.7511 56.9846,-30.1262 63.9231,-29.2002"/>
</g>
<!-- Node23&#45;&gt;Node24 -->
<g id="edge27" class="edge"><title>Node23&#45;&gt;Node24</title>
<path fill="none" stroke="midnightblue" d="M182.528,-46.1005C181.896,-37.1357 182.343,-26.8579 183.869,-19.7511"/>
<polygon fill="midnightblue" stroke="midnightblue" points="179.066,-46.6216 183.834,-56.083 186.007,-45.7134 179.066,-46.6216"/>
</g>
<!-- Node24&#45;&gt;Node23 -->
<g id="edge28" class="edge"><title>Node24&#45;&gt;Node23</title>
<path fill="none" stroke="midnightblue" d="M195.458,-29.6911C196.106,-38.6353 195.676,-48.9272 194.166,-56.083"/>
<polygon fill="midnightblue" stroke="midnightblue" points="198.923,-29.2002 194.131,-19.7511 191.985,-30.1262 198.923,-29.2002"/>
</g>
<!-- Node27 -->
<g id="node27" class="node"><title>Node27</title>
<g id="a_node27"><a xlink:href="../../d6/d3a/DotBarDisplayLEDs_8hpp.html" target="_top" xlink:title=" ">
<polygon fill="white" stroke="black" points="819,-56.5 819,-75.5 943,-75.5 943,-56.5 819,-56.5"/>
<text text-anchor="middle" x="881" y="-63.5" font-family="Helvetica,sans-Serif" font-size="10.00">DotBarDisplayLEDs.hpp</text>
</a>
</g>
</g>
<!-- Node26&#45;&gt;Node27 -->
<g id="edge33" class="edge"><title>Node26&#45;&gt;Node27</title>
<path fill="none" stroke="midnightblue" d="M859.504,-103.275C864.973,-94.0454 871.418,-83.1703 875.814,-75.7511"/>
<polygon fill="midnightblue" stroke="midnightblue" points="856.371,-101.696 854.284,-112.083 862.393,-105.264 856.371,-101.696"/>
</g>
<!-- Node29 -->
<g id="node29" class="node"><title>Node29</title>
<g id="a_node29"><a xlink:href="../../d2/d25/MAX7219_8hpp.html" target="_top" xlink:title=" ">
<polygon fill="white" stroke="black" points="416,-56.5 416,-75.5 494,-75.5 494,-56.5 416,-56.5"/>
<text text-anchor="middle" x="455" y="-63.5" font-family="Helvetica,sans-Serif" font-size="10.00">MAX7219.hpp</text>
</a>
</g>
</g>
<!-- Node28&#45;&gt;Node29 -->
<g id="edge35" class="edge"><title>Node28&#45;&gt;Node29</title>
<path fill="none" stroke="midnightblue" d="M627.892,-110.024C586.9,-99.8232 526.696,-84.8414 489.223,-75.5164"/>
<polygon fill="midnightblue" stroke="midnightblue" points="627.066,-113.425 637.616,-112.444 628.757,-106.632 627.066,-113.425"/>
</g>
<!-- Node30 -->
<g id="node30" class="node"><title>Node30</title>
<g id="a_node30"><a xlink:href="../../d5/d0c/MAX7219SevenSegmentDisplay_8hpp.html" target="_top" xlink:title=" ">
<polygon fill="white" stroke="black" points="547,-56.5 547,-75.5 725,-75.5 725,-56.5 547,-56.5"/>
<text text-anchor="middle" x="636" y="-63.5" font-family="Helvetica,sans-Serif" font-size="10.00">MAX7219SevenSegmentDisplay.hpp</text>
</a>
</g>
</g>
<!-- Node28&#45;&gt;Node30 -->
<g id="edge36" class="edge"><title>Node28&#45;&gt;Node30</title>
<path fill="none" stroke="midnightblue" d="M660.377,-103.566C654.183,-94.2747 646.832,-83.2484 641.834,-75.7511"/>
<polygon fill="midnightblue" stroke="midnightblue" points="657.596,-105.704 666.055,-112.083 663.42,-101.821 657.596,-105.704"/>
</g>
<!-- Node31&#45;&gt;Node17 -->
<g id="edge38" class="edge"><title>Node31&#45;&gt;Node17</title>
<path fill="none" stroke="midnightblue" d="M341.977,-159.566C347.827,-150.275 354.77,-139.248 359.49,-131.751"/>
<polygon fill="midnightblue" stroke="midnightblue" points="338.981,-157.756 336.614,-168.083 344.904,-161.486 338.981,-157.756"/>
</g>
<!-- Node31&#45;&gt;Node20 -->
<g id="edge40" class="edge"><title>Node31&#45;&gt;Node20</title>
<path fill="none" stroke="midnightblue" d="M292.883,-165.436C259.322,-155.255 211.226,-140.664 181.073,-131.516"/>
<polygon fill="midnightblue" stroke="midnightblue" points="292.21,-168.89 302.795,-168.444 294.242,-162.191 292.21,-168.89"/>
</g>
<!-- Node31&#45;&gt;Node29 -->
<g id="edge39" class="edge"><title>Node31&#45;&gt;Node29</title>
<path fill="none" stroke="midnightblue" d="M315.471,-160.554C304.305,-146.675 292.993,-126.766 304,-112 310.969,-102.652 375.635,-85.7947 418.053,-75.5775"/>
<polygon fill="midnightblue" stroke="midnightblue" points="313.008,-163.055 322.204,-168.316 318.296,-158.468 313.008,-163.055"/>
</g>
<!-- Node34&#45;&gt;Node4 -->
<g id="edge60" class="edge"><title>Node34&#45;&gt;Node4</title>
<path fill="none" stroke="midnightblue" d="M609.735,-389.172C579.419,-379.004 536.43,-364.585 509.392,-355.516"/>
<polygon fill="midnightblue" stroke="midnightblue" points="608.895,-392.582 619.489,-392.444 611.121,-385.945 608.895,-392.582"/>
</g>
<!-- Node34&#45;&gt;Node18 -->
<g id="edge62" class="edge"><title>Node34&#45;&gt;Node18</title>
<path fill="none" stroke="midnightblue" d="M626.991,-385.707C611.125,-372.349 587.292,-352.561 566,-336 517.288,-298.112 485.359,-301.12 462,-244 445.287,-203.131 477.628,-151.846 492.296,-131.696"/>
<polygon fill="midnightblue" stroke="midnightblue" points="625.021,-388.625 634.918,-392.405 629.539,-383.278 625.021,-388.625"/>
</g>
<!-- Node34&#45;&gt;Node32 -->
<g id="edge63" class="edge"><title>Node34&#45;&gt;Node32</title>
<path fill="none" stroke="midnightblue" d="M683.225,-395.791C766.104,-383.633 957.964,-350.525 996,-300 1026.68,-259.25 958.631,-207.897 927.977,-187.713"/>
<polygon fill="midnightblue" stroke="midnightblue" points="682.607,-392.344 673.209,-397.236 683.606,-399.272 682.607,-392.344"/>
</g>
<!-- Node35 -->
<g id="node35" class="node"><title>Node35</title>
<g id="a_node35"><a xlink:href="../../de/d76/Array_8hpp.html" target="_top" xlink:title=" ">
<polygon fill="white" stroke="black" points="689.5,-336.5 689.5,-355.5 748.5,-355.5 748.5,-336.5 689.5,-336.5"/>
<text text-anchor="middle" x="719" y="-343.5" font-family="Helvetica,sans-Serif" font-size="10.00">Array.hpp</text>
</a>
</g>
</g>
<!-- Node34&#45;&gt;Node35 -->
<g id="edge45" class="edge"><title>Node34&#45;&gt;Node35</title>
<path fill="none" stroke="midnightblue" d="M665.034,-386.38C678.409,-376.62 695.559,-364.106 706.894,-355.834"/>
<polygon fill="midnightblue" stroke="midnightblue" points="662.904,-383.602 656.889,-392.324 667.03,-389.257 662.904,-383.602"/>
</g>
<!-- Node41 -->
<g id="node41" class="node"><title>Node41</title>
<g id="a_node41"><a xlink:href="../../d1/d40/BitArray_8hpp.html" target="_top" xlink:title=" ">
<polygon fill="white" stroke="black" points="137.5,-168.5 137.5,-187.5 208.5,-187.5 208.5,-168.5 137.5,-168.5"/>
<text text-anchor="middle" x="173" y="-175.5" font-family="Helvetica,sans-Serif" font-size="10.00">BitArray.hpp</text>
</a>
</g>
</g>
<!-- Node34&#45;&gt;Node41 -->
<g id="edge56" class="edge"><title>Node34&#45;&gt;Node41</title>
<path fill="none" stroke="midnightblue" d="M623.318,-386.985C601.168,-373.014 565.508,-351.465 533,-336 492.227,-316.603 479.67,-317.387 438,-300 343.714,-260.66 233.229,-208.067 190.813,-187.629"/>
<polygon fill="midnightblue" stroke="midnightblue" points="621.62,-390.053 631.935,-392.47 625.378,-384.148 621.62,-390.053"/>
</g>
<!-- Node42 -->
<g id="node42" class="node"><title>Node42</title>
<g id="a_node42"><a xlink:href="../../d6/df4/Exit_8cpp.html" target="_top" xlink:title=" ">
<polygon fill="white" stroke="black" points="618.5,-336.5 618.5,-355.5 671.5,-355.5 671.5,-336.5 618.5,-336.5"/>
<text text-anchor="middle" x="645" y="-343.5" font-family="Helvetica,sans-Serif" font-size="10.00">Exit.cpp</text>
</a>
</g>
</g>
<!-- Node34&#45;&gt;Node42 -->
<g id="edge61" class="edge"><title>Node34&#45;&gt;Node42</title>
<path fill="none" stroke="midnightblue" d="M645,-381.805C645,-372.91 645,-362.78 645,-355.751"/>
<polygon fill="midnightblue" stroke="midnightblue" points="641.5,-382.083 645,-392.083 648.5,-382.083 641.5,-382.083"/>
</g>
<!-- Node35&#45;&gt;Node17 -->
<g id="edge48" class="edge"><title>Node35&#45;&gt;Node17</title>
<path fill="none" stroke="midnightblue" d="M679.535,-333.386C650.521,-324.182 614.266,-311.073 603,-300 576.984,-274.428 596.921,-250.64 572,-224 524.194,-172.897 445.017,-144.464 399.698,-131.587"/>
<polygon fill="midnightblue" stroke="midnightblue" points="678.855,-336.839 689.443,-336.469 680.934,-330.156 678.855,-336.839"/>
</g>
<!-- Node36 -->
<g id="node36" class="node"><title>Node36</title>
<g id="a_node36"><a xlink:href="../../d5/db6/ArrayHelpers_8hpp.html" target="_top" xlink:title=" ">
<polygon fill="white" stroke="black" points="471,-224.5 471,-243.5 563,-243.5 563,-224.5 471,-224.5"/>
<text text-anchor="middle" x="517" y="-231.5" font-family="Helvetica,sans-Serif" font-size="10.00">ArrayHelpers.hpp</text>
</a>
</g>
</g>
<!-- Node35&#45;&gt;Node36 -->
<g id="edge46" class="edge"><title>Node35&#45;&gt;Node36</title>
<path fill="none" stroke="midnightblue" d="M679.178,-335.689C624.659,-322.904 533.318,-301.33 532,-300 517.002,-284.862 515.815,-257.906 516.333,-243.94"/>
<polygon fill="midnightblue" stroke="midnightblue" points="678.692,-339.17 689.227,-338.044 680.289,-332.354 678.692,-339.17"/>
</g>
<!-- Node37 -->
<g id="node37" class="node"><title>Node37</title>
<g id="a_node37"><a xlink:href="../../d4/d35/Hardware-Types_8hpp.html" target="_top" xlink:title=" ">
<polygon fill="white" stroke="black" points="612.5,-280.5 612.5,-299.5 719.5,-299.5 719.5,-280.5 612.5,-280.5"/>
<text text-anchor="middle" x="666" y="-287.5" font-family="Helvetica,sans-Serif" font-size="10.00">Hardware&#45;Types.hpp</text>
</a>
</g>
</g>
<!-- Node35&#45;&gt;Node37 -->
<g id="edge49" class="edge"><title>Node35&#45;&gt;Node37</title>
<path fill="none" stroke="midnightblue" d="M703.019,-328.718C693.678,-319.2 682.254,-307.561 674.589,-299.751"/>
<polygon fill="midnightblue" stroke="midnightblue" points="700.746,-331.398 710.248,-336.083 705.741,-326.494 700.746,-331.398"/>
</g>
<!-- Node38 -->
<g id="node38" class="node"><title>Node38</title>
<g id="a_node38"><a xlink:href="../../d1/dde/BiQuad_8hpp.html" target="_top" xlink:title=" ">
<polygon fill="white" stroke="black" points="738,-280.5 738,-299.5 806,-299.5 806,-280.5 738,-280.5"/>
<text text-anchor="middle" x="772" y="-287.5" font-family="Helvetica,sans-Serif" font-size="10.00">BiQuad.hpp</text>
</a>
</g>
</g>
<!-- Node35&#45;&gt;Node38 -->
<g id="edge53" class="edge"><title>Node35&#45;&gt;Node38</title>
<path fill="none" stroke="midnightblue" d="M734.981,-328.718C744.322,-319.2 755.746,-307.561 763.411,-299.751"/>
<polygon fill="midnightblue" stroke="midnightblue" points="732.259,-326.494 727.752,-336.083 737.254,-331.398 732.259,-326.494"/>
</g>
<!-- Node39 -->
<g id="node39" class="node"><title>Node39</title>
<g id="a_node39"><a xlink:href="../../d2/d3b/FIRFilter_8hpp.html" target="_top" xlink:title=" ">
<polygon fill="white" stroke="black" points="824,-280.5 824,-299.5 898,-299.5 898,-280.5 824,-280.5"/>
<text text-anchor="middle" x="861" y="-287.5" font-family="Helvetica,sans-Serif" font-size="10.00">FIRFilter.hpp</text>
</a>
</g>
</g>
<!-- Node35&#45;&gt;Node39 -->
<g id="edge54" class="edge"><title>Node35&#45;&gt;Node39</title>
<path fill="none" stroke="midnightblue" d="M751.155,-332.772C777.828,-322.629 815.069,-308.467 838.605,-299.516"/>
<polygon fill="midnightblue" stroke="midnightblue" points="749.603,-329.618 741.5,-336.444 752.091,-336.16 749.603,-329.618"/>
</g>
<!-- Node40 -->
<g id="node40" class="node"><title>Node40</title>
<g id="a_node40"><a xlink:href="../../dc/d64/IIRFilter_8hpp.html" target="_top" xlink:title=" ">
<polygon fill="white" stroke="black" points="916.5,-280.5 916.5,-299.5 987.5,-299.5 987.5,-280.5 916.5,-280.5"/>
<text text-anchor="middle" x="952" y="-287.5" font-family="Helvetica,sans-Serif" font-size="10.00">IIRFilter.hpp</text>
</a>
</g>
</g>
<!-- Node35&#45;&gt;Node40 -->
<g id="edge55" class="edge"><title>Node35&#45;&gt;Node40</title>
<path fill="none" stroke="midnightblue" d="M758.317,-335.888C802.495,-325.649 873.593,-309.172 916.253,-299.285"/>
<polygon fill="midnightblue" stroke="midnightblue" points="757.461,-332.493 748.51,-338.161 759.042,-339.313 757.461,-332.493"/>
</g>
<!-- Node36&#45;&gt;Node31 -->
<g id="edge47" class="edge"><title>Node36&#45;&gt;Node31</title>
<path fill="none" stroke="midnightblue" d="M477.622,-221.568C442.534,-211.381 391.979,-196.703 360.334,-187.516"/>
<polygon fill="midnightblue" stroke="midnightblue" points="476.948,-225.017 487.528,-224.444 478.9,-218.294 476.948,-225.017"/>
</g>
<!-- Node37&#45;&gt;Node7 -->
<g id="edge51" class="edge"><title>Node37&#45;&gt;Node7</title>
<path fill="none" stroke="midnightblue" d="M671.168,-270.396C673.677,-261.362 676.573,-250.936 678.569,-243.751"/>
<polygon fill="midnightblue" stroke="midnightblue" points="667.781,-269.511 668.477,-280.083 674.526,-271.385 667.781,-269.511"/>
</g>
<!-- Node37&#45;&gt;Node16 -->
<g id="edge50" class="edge"><title>Node37&#45;&gt;Node16</title>
<path fill="none" stroke="midnightblue" d="M728.702,-278.762C786.332,-269.002 867.318,-254.307 898,-244 951.511,-226.023 962.136,-214.461 1012,-188 1056.31,-164.485 1084.82,-175.388 1110,-132 1126.77,-103.104 1083.6,-85.1168 1048.1,-75.5798"/>
<polygon fill="midnightblue" stroke="midnightblue" points="727.87,-275.352 718.59,-280.464 729.032,-282.255 727.87,-275.352"/>
</g>
<!-- Node37&#45;&gt;Node25 -->
<g id="edge52" class="edge"><title>Node37&#45;&gt;Node25</title>
<path fill="none" stroke="midnightblue" d="M725.632,-278.506C792.16,-264.942 901.298,-237.035 984,-188 1009.85,-172.674 1033.67,-145.8 1045.02,-131.896"/>
<polygon fill="midnightblue" stroke="midnightblue" points="724.853,-275.093 715.732,-280.483 726.224,-281.957 724.853,-275.093"/>
</g>
<!-- Node41&#45;&gt;Node20 -->
<g id="edge58" class="edge"><title>Node41&#45;&gt;Node20</title>
<path fill="none" stroke="midnightblue" d="M166.218,-158.69C162.848,-149.589 158.931,-139.014 156.241,-131.751"/>
<polygon fill="midnightblue" stroke="midnightblue" points="162.942,-159.921 169.697,-168.083 169.506,-157.49 162.942,-159.921"/>
</g>
<!-- Node41&#45;&gt;Node23 -->
<g id="edge59" class="edge"><title>Node41&#45;&gt;Node23</title>
<path fill="none" stroke="midnightblue" d="M128.416,-165.386C96.3121,-154.682 61.3552,-136.709 78,-112 90.8957,-92.8568 113.477,-81.8542 134.92,-75.5318"/>
<polygon fill="midnightblue" stroke="midnightblue" points="127.638,-168.81 138.228,-168.474 129.74,-162.133 127.638,-168.81"/>
</g>
<!-- Node41&#45;&gt;Node29 -->
<g id="edge57" class="edge"><title>Node41&#45;&gt;Node29</title>
<path fill="none" stroke="midnightblue" d="M195.685,-163.145C219.857,-148.833 259.58,-126.588 296,-112 335.947,-95.9992 383.67,-83.2998 416.341,-75.5264"/>
<polygon fill="midnightblue" stroke="midnightblue" points="193.708,-160.249 186.926,-168.389 197.304,-166.255 193.708,-160.249"/>
</g>
<!-- Node43&#45;&gt;Node19 -->
<g id="edge67" class="edge"><title>Node43&#45;&gt;Node19</title>
<path fill="none" stroke="midnightblue" d="M1194.86,-439.429C1183.6,-418.236 1167,-381.187 1167,-347 1167,-347 1167,-347 1167,-177 1167,-26.201 1068.32,-133.625 407,-76 404.074,-75.745 401.085,-75.4633 398.067,-75.1615"/>
<polygon fill="midnightblue" stroke="midnightblue" points="1191.82,-441.168 1199.72,-448.231 1197.95,-437.785 1191.82,-441.168"/>
</g>
<!-- Node44 -->
<g id="node44" class="node"><title>Node44</title>
<g id="a_node44"><a xlink:href="../../db/d0b/ShiftRegisterOutRGB_8cpp.html" target="_top" xlink:title=" ">
<polygon fill="white" stroke="black" points="1195,-392.5 1195,-411.5 1325,-411.5 1325,-392.5 1195,-392.5"/>
<text text-anchor="middle" x="1260" y="-399.5" font-family="Helvetica,sans-Serif" font-size="10.00">ShiftRegisterOutRGB.cpp</text>
</a>
</g>
</g>
<!-- Node43&#45;&gt;Node44 -->
<g id="edge68" class="edge"><title>Node43&#45;&gt;Node44</title>
<path fill="none" stroke="midnightblue" d="M1221.29,-441.002C1231.04,-431.433 1243.05,-419.639 1251.09,-411.751"/>
<polygon fill="midnightblue" stroke="midnightblue" points="1218.77,-438.58 1214.08,-448.083 1223.67,-443.575 1218.77,-438.58"/>
</g>
</g>
</svg>
