<?xml version="1.0" encoding="UTF-8" standalone="no"?>
<!DOCTYPE svg PUBLIC "-//W3C//DTD SVG 1.1//EN"
 "http://www.w3.org/Graphics/SVG/1.1/DTD/svg11.dtd">
<!-- Generated by graphviz version 2.38.0 (20140413.2041)
 -->
<!-- Title: Frequency.hpp Pages: 1 -->
<svg width="1518pt" height="644pt"
 viewBox="0.00 0.00 1517.50 644.00" xmlns="http://www.w3.org/2000/svg" xmlns:xlink="http://www.w3.org/1999/xlink">
<g id="graph0" class="graph" transform="scale(1 1) rotate(0) translate(4 640)">
<title>Frequency.hpp</title>
<polygon fill="white" stroke="none" points="-4,4 -4,-640 1513.5,-640 1513.5,4 -4,4"/>
<!-- Node1 -->
<g id="node1" class="node"><title>Node1</title>
<g id="a_node1"><a xlink:title=" ">
<polygon fill="#bfbfbf" stroke="black" points="324,-616.5 324,-635.5 405,-635.5 405,-616.5 324,-616.5"/>
<text text-anchor="middle" x="364.5" y="-623.5" font-family="Helvetica,sans-Serif" font-size="10.00">Frequency.hpp</text>
</a>
</g>
</g>
<!-- Node2 -->
<g id="node2" class="node"><title>Node2</title>
<g id="a_node2"><a xlink:href="../../db/d02/Settings_8hpp.html" target="_top" xlink:title="All user settings and debugging options can be changed here.">
<polygon fill="white" stroke="black" points="329,-560.5 329,-579.5 400,-579.5 400,-560.5 329,-560.5"/>
<text text-anchor="middle" x="364.5" y="-567.5" font-family="Helvetica,sans-Serif" font-size="10.00">Settings.hpp</text>
</a>
</g>
</g>
<!-- Node1&#45;&gt;Node2 -->
<g id="edge1" class="edge"><title>Node1&#45;&gt;Node2</title>
<path fill="none" stroke="midnightblue" d="M364.5,-605.805C364.5,-596.91 364.5,-586.78 364.5,-579.751"/>
<polygon fill="midnightblue" stroke="midnightblue" points="361,-606.083 364.5,-616.083 368,-606.083 361,-606.083"/>
</g>
<!-- Node3 -->
<g id="node3" class="node"><title>Node3</title>
<g id="a_node3"><a xlink:href="../../d2/dd5/SettingsWrapper_8hpp.html" target="_top" xlink:title=" ">
<polygon fill="white" stroke="black" points="310.5,-504.5 310.5,-523.5 418.5,-523.5 418.5,-504.5 310.5,-504.5"/>
<text text-anchor="middle" x="364.5" y="-511.5" font-family="Helvetica,sans-Serif" font-size="10.00">SettingsWrapper.hpp</text>
</a>
</g>
</g>
<!-- Node2&#45;&gt;Node3 -->
<g id="edge2" class="edge"><title>Node2&#45;&gt;Node3</title>
<path fill="none" stroke="midnightblue" d="M364.5,-549.805C364.5,-540.91 364.5,-530.78 364.5,-523.751"/>
<polygon fill="midnightblue" stroke="midnightblue" points="361,-550.083 364.5,-560.083 368,-550.083 361,-550.083"/>
</g>
<!-- Node4 -->
<g id="node4" class="node"><title>Node4</title>
<g id="a_node4"><a xlink:href="../../d4/d93/Updatable_8hpp.html" target="_top" xlink:title=" ">
<polygon fill="white" stroke="black" points="373.5,-336.5 373.5,-355.5 453.5,-355.5 453.5,-336.5 373.5,-336.5"/>
<text text-anchor="middle" x="413.5" y="-343.5" font-family="Helvetica,sans-Serif" font-size="10.00">Updatable.hpp</text>
</a>
</g>
</g>
<!-- Node3&#45;&gt;Node4 -->
<g id="edge3" class="edge"><title>Node3&#45;&gt;Node4</title>
<path fill="none" stroke="midnightblue" d="M369.992,-494.395C380.562,-458.585 403.363,-381.342 410.971,-355.568"/>
<polygon fill="midnightblue" stroke="midnightblue" points="366.609,-493.493 367.134,-504.075 373.322,-495.475 366.609,-493.493"/>
</g>
<!-- Node5 -->
<g id="node5" class="node"><title>Node5</title>
<g id="a_node5"><a xlink:href="../../df/dee/Debug_8hpp.html" target="_top" xlink:title=" ">
<polygon fill="white" stroke="black" points="411.5,-448.5 411.5,-467.5 475.5,-467.5 475.5,-448.5 411.5,-448.5"/>
<text text-anchor="middle" x="443.5" y="-455.5" font-family="Helvetica,sans-Serif" font-size="10.00">Debug.hpp</text>
</a>
</g>
</g>
<!-- Node3&#45;&gt;Node5 -->
<g id="edge4" class="edge"><title>Node3&#45;&gt;Node5</title>
<path fill="none" stroke="midnightblue" d="M380.244,-498.061C393.449,-488.277 411.986,-475.835 425.729,-467.655"/>
<polygon fill="midnightblue" stroke="midnightblue" points="377.883,-495.461 372.078,-504.324 382.143,-501.015 377.883,-495.461"/>
</g>
<!-- Node9 -->
<g id="node9" class="node"><title>Node9</title>
<g id="a_node9"><a xlink:href="../../d4/db3/Button_8hpp.html" target="_top" xlink:title=" ">
<polygon fill="white" stroke="black" points="173.5,-112.5 173.5,-131.5 237.5,-131.5 237.5,-112.5 173.5,-112.5"/>
<text text-anchor="middle" x="205.5" y="-119.5" font-family="Helvetica,sans-Serif" font-size="10.00">Button.hpp</text>
</a>
</g>
</g>
<!-- Node3&#45;&gt;Node9 -->
<g id="edge67" class="edge"><title>Node3&#45;&gt;Node9</title>
<path fill="none" stroke="midnightblue" d="M353.68,-495.734C321.318,-444.06 227.5,-293.998 227.5,-291 227.5,-291 227.5,-291 227.5,-233 227.5,-194.633 214.472,-150.176 208.467,-131.721"/>
<polygon fill="midnightblue" stroke="midnightblue" points="350.854,-497.817 359.129,-504.433 356.787,-494.101 350.854,-497.817"/>
</g>
<!-- Node25 -->
<g id="node25" class="node"><title>Node25</title>
<g id="a_node25"><a xlink:href="../../d8/df3/FilteredAnalog_8hpp.html" target="_top" xlink:title=" ">
<polygon fill="white" stroke="black" points="293.5,-112.5 293.5,-131.5 391.5,-131.5 391.5,-112.5 293.5,-112.5"/>
<text text-anchor="middle" x="342.5" y="-119.5" font-family="Helvetica,sans-Serif" font-size="10.00">FilteredAnalog.hpp</text>
</a>
</g>
</g>
<!-- Node3&#45;&gt;Node25 -->
<g id="edge71" class="edge"><title>Node3&#45;&gt;Node25</title>
<path fill="none" stroke="midnightblue" d="M359.284,-494.39C353.659,-472.65 345.5,-435.511 345.5,-403 345.5,-403 345.5,-403 345.5,-233 345.5,-195.173 343.705,-150.057 342.892,-131.556"/>
<polygon fill="midnightblue" stroke="midnightblue" points="355.959,-495.502 361.938,-504.249 362.718,-493.683 355.959,-495.502"/>
</g>
<!-- Node45 -->
<g id="node45" class="node"><title>Node45</title>
<g id="a_node45"><a xlink:href="../../d1/d1f/ShiftRegisterOutRGB_8hpp.html" target="_top" xlink:title=" ">
<polygon fill="white" stroke="black" points="149.5,-448.5 149.5,-467.5 279.5,-467.5 279.5,-448.5 149.5,-448.5"/>
<text text-anchor="middle" x="214.5" y="-455.5" font-family="Helvetica,sans-Serif" font-size="10.00">ShiftRegisterOutRGB.hpp</text>
</a>
</g>
</g>
<!-- Node3&#45;&gt;Node45 -->
<g id="edge68" class="edge"><title>Node3&#45;&gt;Node45</title>
<path fill="none" stroke="midnightblue" d="M331.275,-501.039C303.052,-490.879 263.238,-476.546 238.157,-467.516"/>
<polygon fill="midnightblue" stroke="midnightblue" points="330.138,-504.349 340.732,-504.444 332.509,-497.763 330.138,-504.349"/>
</g>
<!-- Node5&#45;&gt;Node3 -->
<g id="edge66" class="edge"><title>Node5&#45;&gt;Node3</title>
<path fill="none" stroke="midnightblue" d="M427.556,-474.087C414.376,-483.839 395.977,-496.185 382.308,-504.324"/>
<polygon fill="midnightblue" stroke="midnightblue" points="429.912,-476.692 435.725,-467.834 425.657,-471.133 429.912,-476.692"/>
</g>
<!-- Node6 -->
<g id="node6" class="node"><title>Node6</title>
<g id="a_node6"><a xlink:href="../../de/dd1/LinkedList_8hpp.html" target="_top" xlink:title=" ">
<polygon fill="white" stroke="black" points="493.5,-392.5 493.5,-411.5 573.5,-411.5 573.5,-392.5 493.5,-392.5"/>
<text text-anchor="middle" x="533.5" y="-399.5" font-family="Helvetica,sans-Serif" font-size="10.00">LinkedList.hpp</text>
</a>
</g>
</g>
<!-- Node5&#45;&gt;Node6 -->
<g id="edge5" class="edge"><title>Node5&#45;&gt;Node6</title>
<path fill="none" stroke="midnightblue" d="M466.538,-443.177C483.099,-433.241 504.918,-420.149 519.076,-411.655"/>
<polygon fill="midnightblue" stroke="midnightblue" points="464.734,-440.178 457.96,-448.324 468.336,-446.18 464.734,-440.178"/>
</g>
<!-- Node33 -->
<g id="node33" class="node"><title>Node33</title>
<g id="a_node33"><a xlink:href="../../df/d66/Debug_8cpp.html" target="_top" xlink:title=" ">
<polygon fill="white" stroke="black" points="411.5,-392.5 411.5,-411.5 475.5,-411.5 475.5,-392.5 411.5,-392.5"/>
<text text-anchor="middle" x="443.5" y="-399.5" font-family="Helvetica,sans-Serif" font-size="10.00">Debug.cpp</text>
</a>
</g>
</g>
<!-- Node5&#45;&gt;Node33 -->
<g id="edge43" class="edge"><title>Node5&#45;&gt;Node33</title>
<path fill="none" stroke="midnightblue" d="M443.5,-437.805C443.5,-428.91 443.5,-418.78 443.5,-411.751"/>
<polygon fill="midnightblue" stroke="midnightblue" points="440,-438.083 443.5,-448.083 447,-438.083 440,-438.083"/>
</g>
<!-- Node34 -->
<g id="node34" class="node"><title>Node34</title>
<g id="a_node34"><a xlink:href="../../d1/d93/Error_8hpp.html" target="_top" xlink:title=" ">
<polygon fill="white" stroke="black" points="742.5,-392.5 742.5,-411.5 798.5,-411.5 798.5,-392.5 742.5,-392.5"/>
<text text-anchor="middle" x="770.5" y="-399.5" font-family="Helvetica,sans-Serif" font-size="10.00">Error.hpp</text>
</a>
</g>
</g>
<!-- Node5&#45;&gt;Node34 -->
<g id="edge44" class="edge"><title>Node5&#45;&gt;Node34</title>
<path fill="none" stroke="midnightblue" d="M485.659,-450.038C553.388,-438.853 684.654,-417.176 742.251,-407.665"/>
<polygon fill="midnightblue" stroke="midnightblue" points="485.045,-446.592 475.749,-451.674 486.186,-453.498 485.045,-446.592"/>
</g>
<!-- Node6&#45;&gt;Node4 -->
<g id="edge6" class="edge"><title>Node6&#45;&gt;Node4</title>
<path fill="none" stroke="midnightblue" d="M505.127,-388.232C482.68,-378.131 451.965,-364.309 432.425,-355.516"/>
<polygon fill="midnightblue" stroke="midnightblue" points="503.93,-391.532 514.486,-392.444 506.803,-385.148 503.93,-391.532"/>
</g>
<!-- Node7 -->
<g id="node7" class="node"><title>Node7</title>
<g id="a_node7"><a xlink:href="../../d4/d57/ExtendedIOElement_8hpp.html" target="_top" xlink:title=" ">
<polygon fill="white" stroke="black" points="746,-224.5 746,-243.5 869,-243.5 869,-224.5 746,-224.5"/>
<text text-anchor="middle" x="807.5" y="-231.5" font-family="Helvetica,sans-Serif" font-size="10.00">ExtendedIOElement.hpp</text>
</a>
</g>
</g>
<!-- Node6&#45;&gt;Node7 -->
<g id="edge7" class="edge"><title>Node6&#45;&gt;Node7</title>
<path fill="none" stroke="midnightblue" d="M543.077,-383.478C558.523,-356.914 591.499,-306.721 633.5,-280 667.198,-258.562 710.698,-247.312 745.773,-241.421"/>
<polygon fill="midnightblue" stroke="midnightblue" points="539.906,-381.976 538.033,-392.404 546,-385.42 539.906,-381.976"/>
</g>
<!-- Node8 -->
<g id="node8" class="node"><title>Node8</title>
<g id="a_node8"><a xlink:href="../../dd/ddf/ExtendedInputOutput_8hpp.html" target="_top" xlink:title=" ">
<polygon fill="white" stroke="black" points="689.5,-168.5 689.5,-187.5 817.5,-187.5 817.5,-168.5 689.5,-168.5"/>
<text text-anchor="middle" x="753.5" y="-175.5" font-family="Helvetica,sans-Serif" font-size="10.00">ExtendedInputOutput.hpp</text>
</a>
</g>
</g>
<!-- Node7&#45;&gt;Node8 -->
<g id="edge8" class="edge"><title>Node7&#45;&gt;Node8</title>
<path fill="none" stroke="midnightblue" d="M791.502,-217.002C781.933,-207.433 770.139,-195.639 762.251,-187.751"/>
<polygon fill="midnightblue" stroke="midnightblue" points="789.037,-219.487 798.583,-224.083 793.987,-214.537 789.037,-219.487"/>
</g>
<!-- Node18 -->
<g id="node18" class="node"><title>Node18</title>
<g id="a_node18"><a xlink:href="../../d6/d3c/ExtendedInputOutput_8cpp.html" target="_top" xlink:title=" ">
<polygon fill="white" stroke="black" points="409.5,-112.5 409.5,-131.5 537.5,-131.5 537.5,-112.5 409.5,-112.5"/>
<text text-anchor="middle" x="473.5" y="-119.5" font-family="Helvetica,sans-Serif" font-size="10.00">ExtendedInputOutput.cpp</text>
</a>
</g>
</g>
<!-- Node7&#45;&gt;Node18 -->
<g id="edge41" class="edge"><title>Node7&#45;&gt;Node18</title>
<path fill="none" stroke="midnightblue" d="M771.293,-221.19C745.696,-212.594 710.703,-200.343 680.5,-188 660.989,-180.027 657.288,-175.259 637.5,-168 595.229,-152.494 545.123,-139.493 511.516,-131.515"/>
<polygon fill="midnightblue" stroke="midnightblue" points="770.363,-224.57 780.957,-224.412 772.577,-217.929 770.363,-224.57"/>
</g>
<!-- Node31 -->
<g id="node31" class="node"><title>Node31</title>
<g id="a_node31"><a xlink:href="../../d2/d05/StaticSizeExtendedIOElement_8hpp.html" target="_top" xlink:title=" ">
<polygon fill="white" stroke="black" points="865.5,-168.5 865.5,-187.5 1033.5,-187.5 1033.5,-168.5 865.5,-168.5"/>
<text text-anchor="middle" x="949.5" y="-175.5" font-family="Helvetica,sans-Serif" font-size="10.00">StaticSizeExtendedIOElement.hpp</text>
</a>
</g>
</g>
<!-- Node7&#45;&gt;Node31 -->
<g id="edge37" class="edge"><title>Node7&#45;&gt;Node31</title>
<path fill="none" stroke="midnightblue" d="M839.655,-220.772C866.328,-210.629 903.569,-196.467 927.105,-187.516"/>
<polygon fill="midnightblue" stroke="midnightblue" points="838.103,-217.618 830,-224.444 840.591,-224.16 838.103,-217.618"/>
</g>
<!-- Node32 -->
<g id="node32" class="node"><title>Node32</title>
<g id="a_node32"><a xlink:href="../../da/d1f/ExtendedIOElement_8cpp.html" target="_top" xlink:title=" ">
<polygon fill="white" stroke="black" points="1128,-168.5 1128,-187.5 1251,-187.5 1251,-168.5 1128,-168.5"/>
<text text-anchor="middle" x="1189.5" y="-175.5" font-family="Helvetica,sans-Serif" font-size="10.00">ExtendedIOElement.cpp</text>
</a>
</g>
</g>
<!-- Node7&#45;&gt;Node32 -->
<g id="edge42" class="edge"><title>Node7&#45;&gt;Node32</title>
<path fill="none" stroke="midnightblue" d="M877.943,-223.042C950.091,-212.843 1061.06,-197.157 1129.25,-187.516"/>
<polygon fill="midnightblue" stroke="midnightblue" points="877.441,-219.578 868.029,-224.444 878.421,-226.509 877.441,-219.578"/>
</g>
<!-- Node8&#45;&gt;Node9 -->
<g id="edge9" class="edge"><title>Node8&#45;&gt;Node9</title>
<path fill="none" stroke="midnightblue" d="M679.26,-170.288C586.76,-161.829 423.876,-146.625 284.5,-132 269.124,-130.387 252.081,-128.462 237.772,-126.808"/>
<polygon fill="midnightblue" stroke="midnightblue" points="679.085,-173.786 689.362,-171.21 679.721,-166.815 679.085,-173.786"/>
</g>
<!-- Node15 -->
<g id="node15" class="node"><title>Node15</title>
<g id="a_node15"><a xlink:href="../../d5/d41/ButtonMatrix_8ipp.html" target="_top" xlink:title=" ">
<polygon fill="white" stroke="black" points="709.5,-112.5 709.5,-131.5 797.5,-131.5 797.5,-112.5 709.5,-112.5"/>
<text text-anchor="middle" x="753.5" y="-119.5" font-family="Helvetica,sans-Serif" font-size="10.00">ButtonMatrix.ipp</text>
</a>
</g>
</g>
<!-- Node8&#45;&gt;Node15 -->
<g id="edge15" class="edge"><title>Node8&#45;&gt;Node15</title>
<path fill="none" stroke="midnightblue" d="M753.5,-157.805C753.5,-148.91 753.5,-138.78 753.5,-131.751"/>
<polygon fill="midnightblue" stroke="midnightblue" points="750,-158.083 753.5,-168.083 757,-158.083 750,-158.083"/>
</g>
<!-- Node17 -->
<g id="node17" class="node"><title>Node17</title>
<g id="a_node17"><a xlink:href="../../d7/def/AnalogMultiplex_8hpp.html" target="_top" xlink:title=" ">
<polygon fill="white" stroke="black" points="977.5,-112.5 977.5,-131.5 1081.5,-131.5 1081.5,-112.5 977.5,-112.5"/>
<text text-anchor="middle" x="1029.5" y="-119.5" font-family="Helvetica,sans-Serif" font-size="10.00">AnalogMultiplex.hpp</text>
</a>
</g>
</g>
<!-- Node8&#45;&gt;Node17 -->
<g id="edge18" class="edge"><title>Node8&#45;&gt;Node17</title>
<path fill="none" stroke="midnightblue" d="M807.303,-166.473C859.464,-156.268 937.605,-140.979 985.972,-131.516"/>
<polygon fill="midnightblue" stroke="midnightblue" points="806.375,-163.088 797.233,-168.444 807.719,-169.958 806.375,-163.088"/>
</g>
<!-- Node8&#45;&gt;Node18 -->
<g id="edge19" class="edge"><title>Node8&#45;&gt;Node18</title>
<path fill="none" stroke="midnightblue" d="M699.248,-166.537C646.33,-156.332 566.829,-140.999 517.659,-131.516"/>
<polygon fill="midnightblue" stroke="midnightblue" points="698.651,-169.986 709.133,-168.444 699.977,-163.113 698.651,-169.986"/>
</g>
<!-- Node19 -->
<g id="node19" class="node"><title>Node19</title>
<g id="a_node19"><a xlink:href="../../d5/d47/ShiftRegisterOutBase_8ipp.html" target="_top" xlink:title=" ">
<polygon fill="white" stroke="black" points="1015.5,-56.5 1015.5,-75.5 1143.5,-75.5 1143.5,-56.5 1015.5,-56.5"/>
<text text-anchor="middle" x="1079.5" y="-63.5" font-family="Helvetica,sans-Serif" font-size="10.00">ShiftRegisterOutBase.ipp</text>
</a>
</g>
</g>
<!-- Node8&#45;&gt;Node19 -->
<g id="edge20" class="edge"><title>Node8&#45;&gt;Node19</title>
<path fill="none" stroke="midnightblue" d="M809.285,-166.347C844.662,-158.734 891.034,-147.159 930.5,-132 948.316,-125.157 951.191,-120.04 968.5,-112 998.298,-98.16 1033.6,-84.2624 1056.25,-75.6501"/>
<polygon fill="midnightblue" stroke="midnightblue" points="808.209,-162.997 799.147,-168.485 809.654,-169.846 808.209,-162.997"/>
</g>
<!-- Node22 -->
<g id="node22" class="node"><title>Node22</title>
<g id="a_node22"><a xlink:href="../../de/d95/ShiftRegisterOut_8ipp.html" target="_top" xlink:title=" ">
<polygon fill="white" stroke="black" points="1403,-0.5 1403,-19.5 1508,-19.5 1508,-0.5 1403,-0.5"/>
<text text-anchor="middle" x="1455.5" y="-7.5" font-family="Helvetica,sans-Serif" font-size="10.00">ShiftRegisterOut.ipp</text>
</a>
</g>
</g>
<!-- Node8&#45;&gt;Node22 -->
<g id="edge29" class="edge"><title>Node8&#45;&gt;Node22</title>
<path fill="none" stroke="midnightblue" d="M728.778,-162.9C717.968,-155.278 706.42,-144.793 700.5,-132 686.314,-101.346 677.246,-80.4988 700.5,-56 726.926,-28.1592 1352.29,-23.6357 1390.5,-20 1394.47,-19.6223 1398.57,-19.1797 1402.69,-18.697"/>
<polygon fill="midnightblue" stroke="midnightblue" points="726.882,-165.842 737.166,-168.387 730.714,-159.984 726.882,-165.842"/>
</g>
<!-- Node24 -->
<g id="node24" class="node"><title>Node24</title>
<g id="a_node24"><a xlink:href="../../da/d45/SPIShiftRegisterOut_8ipp.html" target="_top" xlink:title=" ">
<polygon fill="white" stroke="black" points="1259.5,-0.5 1259.5,-19.5 1381.5,-19.5 1381.5,-0.5 1259.5,-0.5"/>
<text text-anchor="middle" x="1320.5" y="-7.5" font-family="Helvetica,sans-Serif" font-size="10.00">SPIShiftRegisterOut.ipp</text>
</a>
</g>
</g>
<!-- Node8&#45;&gt;Node24 -->
<g id="edge30" class="edge"><title>Node8&#45;&gt;Node24</title>
<path fill="none" stroke="midnightblue" d="M709.88,-164.849C693.653,-157.978 676.91,-147.545 667.5,-132 650.008,-103.104 644.451,-80.6919 667.5,-56 707.361,-13.297 1104.48,-10.1615 1259.23,-10.5811"/>
<polygon fill="midnightblue" stroke="midnightblue" points="708.726,-168.155 719.316,-168.493 711.249,-161.625 708.726,-168.155"/>
</g>
<!-- Node8&#45;&gt;Node25 -->
<g id="edge31" class="edge"><title>Node8&#45;&gt;Node25</title>
<path fill="none" stroke="midnightblue" d="M679.083,-168.109C607.589,-159.426 496.558,-145.573 400.5,-132 397.574,-131.587 394.567,-131.151 391.534,-130.704"/>
<polygon fill="midnightblue" stroke="midnightblue" points="678.989,-171.623 689.338,-169.352 679.832,-164.674 678.989,-171.623"/>
</g>
<!-- Node26 -->
<g id="node26" class="node"><title>Node26</title>
<g id="a_node26"><a xlink:href="../../d9/d4f/LEDs_8hpp.html" target="_top" xlink:title=" ">
<polygon fill="white" stroke="black" points="555.5,-112.5 555.5,-131.5 615.5,-131.5 615.5,-112.5 555.5,-112.5"/>
<text text-anchor="middle" x="585.5" y="-119.5" font-family="Helvetica,sans-Serif" font-size="10.00">LEDs.hpp</text>
</a>
</g>
</g>
<!-- Node8&#45;&gt;Node26 -->
<g id="edge32" class="edge"><title>Node8&#45;&gt;Node26</title>
<path fill="none" stroke="midnightblue" d="M717.114,-165.304C685.458,-155.129 640.332,-140.625 611.996,-131.516"/>
<polygon fill="midnightblue" stroke="midnightblue" points="716.289,-168.715 726.88,-168.444 718.431,-162.051 716.289,-168.715"/>
</g>
<!-- Node28 -->
<g id="node28" class="node"><title>Node28</title>
<g id="a_node28"><a xlink:href="../../d7/d13/MAX7219__Base_8hpp.html" target="_top" xlink:title=" ">
<polygon fill="white" stroke="black" points="815.5,-112.5 815.5,-131.5 921.5,-131.5 921.5,-112.5 815.5,-112.5"/>
<text text-anchor="middle" x="868.5" y="-119.5" font-family="Helvetica,sans-Serif" font-size="10.00">MAX7219_Base.hpp</text>
</a>
</g>
</g>
<!-- Node8&#45;&gt;Node28 -->
<g id="edge34" class="edge"><title>Node8&#45;&gt;Node28</title>
<path fill="none" stroke="midnightblue" d="M780.981,-164.096C802.466,-154.007 831.722,-140.27 850.363,-131.516"/>
<polygon fill="midnightblue" stroke="midnightblue" points="779.286,-161.025 771.722,-168.444 782.262,-167.361 779.286,-161.025"/>
</g>
<!-- Node10 -->
<g id="node10" class="node"><title>Node10</title>
<g id="a_node10"><a xlink:href="../../de/dd1/Button_8cpp.html" target="_top" xlink:title=" ">
<polygon fill="white" stroke="black" points="304.5,-56.5 304.5,-75.5 368.5,-75.5 368.5,-56.5 304.5,-56.5"/>
<text text-anchor="middle" x="336.5" y="-63.5" font-family="Helvetica,sans-Serif" font-size="10.00">Button.cpp</text>
</a>
</g>
</g>
<!-- Node9&#45;&gt;Node10 -->
<g id="edge10" class="edge"><title>Node9&#45;&gt;Node10</title>
<path fill="none" stroke="midnightblue" d="M235.817,-108.503C260.376,-98.3795 294.318,-84.388 315.84,-75.5164"/>
<polygon fill="midnightblue" stroke="midnightblue" points="234.169,-105.397 226.257,-112.444 236.837,-111.868 234.169,-105.397"/>
</g>
<!-- Node11 -->
<g id="node11" class="node"><title>Node11</title>
<g id="a_node11"><a xlink:href="../../d5/d04/IncrementButton_8hpp.html" target="_top" xlink:title=" ">
<polygon fill="white" stroke="black" points="0,-56.5 0,-75.5 107,-75.5 107,-56.5 0,-56.5"/>
<text text-anchor="middle" x="53.5" y="-63.5" font-family="Helvetica,sans-Serif" font-size="10.00">IncrementButton.hpp</text>
</a>
</g>
</g>
<!-- Node9&#45;&gt;Node11 -->
<g id="edge11" class="edge"><title>Node9&#45;&gt;Node11</title>
<path fill="none" stroke="midnightblue" d="M171.832,-109.039C143.232,-98.8786 102.888,-84.5457 77.4722,-75.5164"/>
<polygon fill="midnightblue" stroke="midnightblue" points="170.82,-112.394 181.415,-112.444 173.164,-105.798 170.82,-112.394"/>
</g>
<!-- Node13 -->
<g id="node13" class="node"><title>Node13</title>
<g id="a_node13"><a xlink:href="../../df/df5/IncrementDecrementButtons_8hpp.html" target="_top" xlink:title=" ">
<polygon fill="white" stroke="black" points="125,-56.5 125,-75.5 286,-75.5 286,-56.5 125,-56.5"/>
<text text-anchor="middle" x="205.5" y="-63.5" font-family="Helvetica,sans-Serif" font-size="10.00">IncrementDecrementButtons.hpp</text>
</a>
</g>
</g>
<!-- Node9&#45;&gt;Node13 -->
<g id="edge13" class="edge"><title>Node9&#45;&gt;Node13</title>
<path fill="none" stroke="midnightblue" d="M205.5,-101.805C205.5,-92.9102 205.5,-82.7798 205.5,-75.7511"/>
<polygon fill="midnightblue" stroke="midnightblue" points="202,-102.083 205.5,-112.083 209,-102.083 202,-102.083"/>
</g>
<!-- Node12 -->
<g id="node12" class="node"><title>Node12</title>
<g id="a_node12"><a xlink:href="../../db/d9d/IncrementButton_8cpp.html" target="_top" xlink:title=" ">
<polygon fill="white" stroke="black" points="0,-0.5 0,-19.5 107,-19.5 107,-0.5 0,-0.5"/>
<text text-anchor="middle" x="53.5" y="-7.5" font-family="Helvetica,sans-Serif" font-size="10.00">IncrementButton.cpp</text>
</a>
</g>
</g>
<!-- Node11&#45;&gt;Node12 -->
<g id="edge12" class="edge"><title>Node11&#45;&gt;Node12</title>
<path fill="none" stroke="midnightblue" d="M53.5,-45.8045C53.5,-36.9102 53.5,-26.7798 53.5,-19.7511"/>
<polygon fill="midnightblue" stroke="midnightblue" points="50.0001,-46.083 53.5,-56.083 57.0001,-46.083 50.0001,-46.083"/>
</g>
<!-- Node14 -->
<g id="node14" class="node"><title>Node14</title>
<g id="a_node14"><a xlink:href="../../da/d66/IncrementDecrementButtons_8cpp.html" target="_top" xlink:title=" ">
<polygon fill="white" stroke="black" points="125,-0.5 125,-19.5 286,-19.5 286,-0.5 125,-0.5"/>
<text text-anchor="middle" x="205.5" y="-7.5" font-family="Helvetica,sans-Serif" font-size="10.00">IncrementDecrementButtons.cpp</text>
</a>
</g>
</g>
<!-- Node13&#45;&gt;Node14 -->
<g id="edge14" class="edge"><title>Node13&#45;&gt;Node14</title>
<path fill="none" stroke="midnightblue" d="M205.5,-45.8045C205.5,-36.9102 205.5,-26.7798 205.5,-19.7511"/>
<polygon fill="midnightblue" stroke="midnightblue" points="202,-46.083 205.5,-56.083 209,-46.083 202,-46.083"/>
</g>
<!-- Node16 -->
<g id="node16" class="node"><title>Node16</title>
<g id="a_node16"><a xlink:href="../../d9/d4b/ButtonMatrix_8hpp.html" target="_top" xlink:title=" ">
<polygon fill="white" stroke="black" points="710,-56.5 710,-75.5 801,-75.5 801,-56.5 710,-56.5"/>
<text text-anchor="middle" x="755.5" y="-63.5" font-family="Helvetica,sans-Serif" font-size="10.00">ButtonMatrix.hpp</text>
</a>
</g>
</g>
<!-- Node15&#45;&gt;Node16 -->
<g id="edge16" class="edge"><title>Node15&#45;&gt;Node16</title>
<path fill="none" stroke="midnightblue" d="M747.728,-102.101C747.428,-93.1357 748.255,-82.8579 750.045,-75.7511"/>
<polygon fill="midnightblue" stroke="midnightblue" points="744.245,-102.454 748.664,-112.083 751.215,-101.8 744.245,-102.454"/>
</g>
<!-- Node16&#45;&gt;Node15 -->
<g id="edge17" class="edge"><title>Node16&#45;&gt;Node15</title>
<path fill="none" stroke="midnightblue" d="M761.275,-85.9865C761.565,-94.8611 760.752,-105.006 758.997,-112.083"/>
<polygon fill="midnightblue" stroke="midnightblue" points="764.733,-85.3769 760.307,-75.7511 757.764,-86.0363 764.733,-85.3769"/>
</g>
<!-- Node20 -->
<g id="node20" class="node"><title>Node20</title>
<g id="a_node20"><a xlink:href="../../d8/d93/ShiftRegisterOutBase_8hpp.html" target="_top" xlink:title=" ">
<polygon fill="white" stroke="black" points="1176,-112.5 1176,-131.5 1307,-131.5 1307,-112.5 1176,-112.5"/>
<text text-anchor="middle" x="1241.5" y="-119.5" font-family="Helvetica,sans-Serif" font-size="10.00">ShiftRegisterOutBase.hpp</text>
</a>
</g>
</g>
<!-- Node19&#45;&gt;Node20 -->
<g id="edge21" class="edge"><title>Node19&#45;&gt;Node20</title>
<path fill="none" stroke="midnightblue" d="M1119.7,-78.5192C1151.85,-88.6876 1195.44,-103.28 1220.92,-112.444"/>
<polygon fill="midnightblue" stroke="midnightblue" points="1120.72,-75.1692 1110.13,-75.5164 1118.62,-81.8484 1120.72,-75.1692"/>
</g>
<!-- Node20&#45;&gt;Node19 -->
<g id="edge25" class="edge"><title>Node20&#45;&gt;Node19</title>
<path fill="none" stroke="midnightblue" d="M1201.15,-109.436C1168.98,-99.2551 1125.4,-84.664 1099.97,-75.5164"/>
<polygon fill="midnightblue" stroke="midnightblue" points="1200.15,-112.79 1210.74,-112.444 1202.25,-106.111 1200.15,-112.79"/>
</g>
<!-- Node21 -->
<g id="node21" class="node"><title>Node21</title>
<g id="a_node21"><a xlink:href="../../d0/db4/ShiftRegisterOut_8hpp.html" target="_top" xlink:title=" ">
<polygon fill="white" stroke="black" points="1401.5,-56.5 1401.5,-75.5 1509.5,-75.5 1509.5,-56.5 1401.5,-56.5"/>
<text text-anchor="middle" x="1455.5" y="-63.5" font-family="Helvetica,sans-Serif" font-size="10.00">ShiftRegisterOut.hpp</text>
</a>
</g>
</g>
<!-- Node20&#45;&gt;Node21 -->
<g id="edge22" class="edge"><title>Node20&#45;&gt;Node21</title>
<path fill="none" stroke="midnightblue" d="M1285.26,-109.959C1325.67,-99.7598 1384.87,-84.8217 1421.75,-75.5164"/>
<polygon fill="midnightblue" stroke="midnightblue" points="1284.25,-106.603 1275.41,-112.444 1285.96,-113.39 1284.25,-106.603"/>
</g>
<!-- Node23 -->
<g id="node23" class="node"><title>Node23</title>
<g id="a_node23"><a xlink:href="../../d7/d88/SPIShiftRegisterOut_8hpp.html" target="_top" xlink:title=" ">
<polygon fill="white" stroke="black" points="1258,-56.5 1258,-75.5 1383,-75.5 1383,-56.5 1258,-56.5"/>
<text text-anchor="middle" x="1320.5" y="-63.5" font-family="Helvetica,sans-Serif" font-size="10.00">SPIShiftRegisterOut.hpp</text>
</a>
</g>
</g>
<!-- Node20&#45;&gt;Node23 -->
<g id="edge26" class="edge"><title>Node20&#45;&gt;Node23</title>
<path fill="none" stroke="midnightblue" d="M1262.53,-106.622C1276.97,-96.7574 1295.64,-83.9919 1307.84,-75.6545"/>
<polygon fill="midnightblue" stroke="midnightblue" points="1260.47,-103.791 1254.19,-112.324 1264.42,-109.57 1260.47,-103.791"/>
</g>
<!-- Node21&#45;&gt;Node22 -->
<g id="edge23" class="edge"><title>Node21&#45;&gt;Node22</title>
<path fill="none" stroke="midnightblue" d="M1449.03,-46.1005C1448.4,-37.1357 1448.84,-26.8579 1450.37,-19.7511"/>
<polygon fill="midnightblue" stroke="midnightblue" points="1445.57,-46.6216 1450.33,-56.083 1452.51,-45.7134 1445.57,-46.6216"/>
</g>
<!-- Node22&#45;&gt;Node21 -->
<g id="edge24" class="edge"><title>Node22&#45;&gt;Node21</title>
<path fill="none" stroke="midnightblue" d="M1461.96,-29.6911C1462.61,-38.6353 1462.18,-48.9272 1460.67,-56.083"/>
<polygon fill="midnightblue" stroke="midnightblue" points="1465.42,-29.2002 1460.63,-19.7511 1458.48,-30.1262 1465.42,-29.2002"/>
</g>
<!-- Node23&#45;&gt;Node24 -->
<g id="edge27" class="edge"><title>Node23&#45;&gt;Node24</title>
<path fill="none" stroke="midnightblue" d="M1314.03,-46.1005C1313.4,-37.1357 1313.84,-26.8579 1315.37,-19.7511"/>
<polygon fill="midnightblue" stroke="midnightblue" points="1310.57,-46.6216 1315.33,-56.083 1317.51,-45.7134 1310.57,-46.6216"/>
</g>
<!-- Node24&#45;&gt;Node23 -->
<g id="edge28" class="edge"><title>Node24&#45;&gt;Node23</title>
<path fill="none" stroke="midnightblue" d="M1326.96,-29.6911C1327.61,-38.6353 1327.18,-48.9272 1325.67,-56.083"/>
<polygon fill="midnightblue" stroke="midnightblue" points="1330.42,-29.2002 1325.63,-19.7511 1323.48,-30.1262 1330.42,-29.2002"/>
</g>
<!-- Node27 -->
<g id="node27" class="node"><title>Node27</title>
<g id="a_node27"><a xlink:href="../../d6/d3a/DotBarDisplayLEDs_8hpp.html" target="_top" xlink:title=" ">
<polygon fill="white" stroke="black" points="491.5,-56.5 491.5,-75.5 615.5,-75.5 615.5,-56.5 491.5,-56.5"/>
<text text-anchor="middle" x="553.5" y="-63.5" font-family="Helvetica,sans-Serif" font-size="10.00">DotBarDisplayLEDs.hpp</text>
</a>
</g>
</g>
<!-- Node26&#45;&gt;Node27 -->
<g id="edge33" class="edge"><title>Node26&#45;&gt;Node27</title>
<path fill="none" stroke="midnightblue" d="M574.996,-103.275C569.527,-94.0454 563.082,-83.1703 558.686,-75.7511"/>
<polygon fill="midnightblue" stroke="midnightblue" points="572.107,-105.264 580.216,-112.083 578.129,-101.696 572.107,-105.264"/>
</g>
<!-- Node29 -->
<g id="node29" class="node"><title>Node29</title>
<g id="a_node29"><a xlink:href="../../d2/d25/MAX7219_8hpp.html" target="_top" xlink:title=" ">
<polygon fill="white" stroke="black" points="1161.5,-56.5 1161.5,-75.5 1239.5,-75.5 1239.5,-56.5 1161.5,-56.5"/>
<text text-anchor="middle" x="1200.5" y="-63.5" font-family="Helvetica,sans-Serif" font-size="10.00">MAX7219.hpp</text>
</a>
</g>
</g>
<!-- Node28&#45;&gt;Node29 -->
<g id="edge35" class="edge"><title>Node28&#45;&gt;Node29</title>
<path fill="none" stroke="midnightblue" d="M931.747,-111.501C989.357,-102.725 1076.74,-89.1011 1152.5,-76 1155.42,-75.4943 1158.45,-74.9587 1161.48,-74.4107"/>
<polygon fill="midnightblue" stroke="midnightblue" points="931.062,-108.065 921.702,-113.028 932.114,-114.986 931.062,-108.065"/>
</g>
<!-- Node30 -->
<g id="node30" class="node"><title>Node30</title>
<g id="a_node30"><a xlink:href="../../d5/d0c/MAX7219SevenSegmentDisplay_8hpp.html" target="_top" xlink:title=" ">
<polygon fill="white" stroke="black" points="819.5,-56.5 819.5,-75.5 997.5,-75.5 997.5,-56.5 819.5,-56.5"/>
<text text-anchor="middle" x="908.5" y="-63.5" font-family="Helvetica,sans-Serif" font-size="10.00">MAX7219SevenSegmentDisplay.hpp</text>
</a>
</g>
</g>
<!-- Node28&#45;&gt;Node30 -->
<g id="edge36" class="edge"><title>Node28&#45;&gt;Node30</title>
<path fill="none" stroke="midnightblue" d="M881.2,-103.855C888.126,-94.5048 896.406,-83.3265 902.018,-75.7511"/>
<polygon fill="midnightblue" stroke="midnightblue" points="878.245,-101.964 875.105,-112.083 883.87,-106.131 878.245,-101.964"/>
</g>
<!-- Node31&#45;&gt;Node17 -->
<g id="edge38" class="edge"><title>Node31&#45;&gt;Node17</title>
<path fill="none" stroke="midnightblue" d="M970.801,-162.622C985.415,-152.757 1004.33,-139.992 1016.68,-131.655"/>
<polygon fill="midnightblue" stroke="midnightblue" points="968.684,-159.828 962.353,-168.324 972.6,-165.63 968.684,-159.828"/>
</g>
<!-- Node31&#45;&gt;Node20 -->
<g id="edge40" class="edge"><title>Node31&#45;&gt;Node20</title>
<path fill="none" stroke="midnightblue" d="M1005.73,-166.601C1060.92,-156.395 1144.06,-141.019 1195.45,-131.516"/>
<polygon fill="midnightblue" stroke="midnightblue" points="1004.97,-163.183 995.768,-168.444 1006.24,-170.067 1004.97,-163.183"/>
</g>
<!-- Node31&#45;&gt;Node29 -->
<g id="edge39" class="edge"><title>Node31&#45;&gt;Node29</title>
<path fill="none" stroke="midnightblue" d="M993.614,-165.682C1021.9,-157.758 1059.07,-146.086 1090.5,-132 1127.75,-115.308 1168.28,-89.0317 1188.13,-75.5716"/>
<polygon fill="midnightblue" stroke="midnightblue" points="992.336,-162.403 983.622,-168.43 994.192,-169.153 992.336,-162.403"/>
</g>
<!-- Node34&#45;&gt;Node4 -->
<g id="edge62" class="edge"><title>Node34&#45;&gt;Node4</title>
<path fill="none" stroke="midnightblue" d="M732.412,-395.564C674.955,-387.314 562.701,-371.002 467.5,-356 462.994,-355.29 458.279,-354.53 453.592,-353.763"/>
<polygon fill="midnightblue" stroke="midnightblue" points="732.091,-399.054 742.486,-397.009 733.084,-392.125 732.091,-399.054"/>
</g>
<!-- Node34&#45;&gt;Node18 -->
<g id="edge64" class="edge"><title>Node34&#45;&gt;Node18</title>
<path fill="none" stroke="midnightblue" d="M732.275,-394.725C653.731,-380.747 481.5,-344.048 481.5,-291 481.5,-291 481.5,-291 481.5,-233 481.5,-195.088 476.714,-150.018 474.546,-131.542"/>
<polygon fill="midnightblue" stroke="midnightblue" points="731.81,-398.197 742.263,-396.47 733.015,-391.301 731.81,-398.197"/>
</g>
<!-- Node34&#45;&gt;Node32 -->
<g id="edge65" class="edge"><title>Node34&#45;&gt;Node32</title>
<path fill="none" stroke="midnightblue" d="M808.613,-392.476C865.12,-378.759 973.188,-348.324 1054.5,-300 1109.97,-267.036 1163.17,-209.275 1182.17,-187.569"/>
<polygon fill="midnightblue" stroke="midnightblue" points="807.596,-389.12 798.68,-394.844 809.219,-395.93 807.596,-389.12"/>
</g>
<!-- Node35 -->
<g id="node35" class="node"><title>Node35</title>
<g id="a_node35"><a xlink:href="../../de/d76/Array_8hpp.html" target="_top" xlink:title=" ">
<polygon fill="white" stroke="black" points="741,-336.5 741,-355.5 800,-355.5 800,-336.5 741,-336.5"/>
<text text-anchor="middle" x="770.5" y="-343.5" font-family="Helvetica,sans-Serif" font-size="10.00">Array.hpp</text>
</a>
</g>
</g>
<!-- Node34&#45;&gt;Node35 -->
<g id="edge45" class="edge"><title>Node34&#45;&gt;Node35</title>
<path fill="none" stroke="midnightblue" d="M770.5,-381.805C770.5,-372.91 770.5,-362.78 770.5,-355.751"/>
<polygon fill="midnightblue" stroke="midnightblue" points="767,-382.083 770.5,-392.083 774,-382.083 767,-382.083"/>
</g>
<!-- Node43 -->
<g id="node43" class="node"><title>Node43</title>
<g id="a_node43"><a xlink:href="../../d1/d40/BitArray_8hpp.html" target="_top" xlink:title=" ">
<polygon fill="white" stroke="black" points="1284,-168.5 1284,-187.5 1355,-187.5 1355,-168.5 1284,-168.5"/>
<text text-anchor="middle" x="1319.5" y="-175.5" font-family="Helvetica,sans-Serif" font-size="10.00">BitArray.hpp</text>
</a>
</g>
</g>
<!-- Node34&#45;&gt;Node43 -->
<g id="edge58" class="edge"><title>Node34&#45;&gt;Node43</title>
<path fill="none" stroke="midnightblue" d="M808.849,-395.273C849.881,-388.49 916.49,-375.58 971.5,-356 1108.48,-307.246 1260.23,-215.928 1305.83,-187.603"/>
<polygon fill="midnightblue" stroke="midnightblue" points="808.054,-391.856 798.74,-396.905 809.17,-398.766 808.054,-391.856"/>
</g>
<!-- Node44 -->
<g id="node44" class="node"><title>Node44</title>
<g id="a_node44"><a xlink:href="../../d6/df4/Exit_8cpp.html" target="_top" xlink:title=" ">
<polygon fill="white" stroke="black" points="818,-336.5 818,-355.5 871,-355.5 871,-336.5 818,-336.5"/>
<text text-anchor="middle" x="844.5" y="-343.5" font-family="Helvetica,sans-Serif" font-size="10.00">Exit.cpp</text>
</a>
</g>
</g>
<!-- Node34&#45;&gt;Node44 -->
<g id="edge63" class="edge"><title>Node34&#45;&gt;Node44</title>
<path fill="none" stroke="midnightblue" d="M790.534,-386.38C803.909,-376.62 821.059,-364.106 832.394,-355.834"/>
<polygon fill="midnightblue" stroke="midnightblue" points="788.404,-383.602 782.389,-392.324 792.53,-389.257 788.404,-383.602"/>
</g>
<!-- Node35&#45;&gt;Node17 -->
<g id="edge48" class="edge"><title>Node35&#45;&gt;Node17</title>
<path fill="none" stroke="midnightblue" d="M810.357,-335.711C936.983,-309.655 1015.5,-350.037 1080.5,-244 1104.57,-204.741 1058.9,-152.101 1038.56,-131.64"/>
<polygon fill="midnightblue" stroke="midnightblue" points="809.388,-332.339 800.362,-337.886 810.877,-339.179 809.388,-332.339"/>
</g>
<!-- Node36 -->
<g id="node36" class="node"><title>Node36</title>
<g id="a_node36"><a xlink:href="../../d5/db6/ArrayHelpers_8hpp.html" target="_top" xlink:title=" ">
<polygon fill="white" stroke="black" points="979.5,-224.5 979.5,-243.5 1071.5,-243.5 1071.5,-224.5 979.5,-224.5"/>
<text text-anchor="middle" x="1025.5" y="-231.5" font-family="Helvetica,sans-Serif" font-size="10.00">ArrayHelpers.hpp</text>
</a>
</g>
</g>
<!-- Node35&#45;&gt;Node36 -->
<g id="edge46" class="edge"><title>Node35&#45;&gt;Node36</title>
<path fill="none" stroke="midnightblue" d="M809.822,-335.378C855.995,-323.946 927.805,-305.703 939.5,-300 970.452,-284.906 1001.34,-257.931 1016.26,-243.951"/>
<polygon fill="midnightblue" stroke="midnightblue" points="808.975,-331.981 800.106,-337.776 810.653,-338.777 808.975,-331.981"/>
</g>
<!-- Node37 -->
<g id="node37" class="node"><title>Node37</title>
<g id="a_node37"><a xlink:href="../../d4/d35/Hardware-Types_8hpp.html" target="_top" xlink:title=" ">
<polygon fill="white" stroke="black" points="824,-280.5 824,-299.5 931,-299.5 931,-280.5 824,-280.5"/>
<text text-anchor="middle" x="877.5" y="-287.5" font-family="Helvetica,sans-Serif" font-size="10.00">Hardware&#45;Types.hpp</text>
</a>
</g>
</g>
<!-- Node35&#45;&gt;Node37 -->
<g id="edge49" class="edge"><title>Node35&#45;&gt;Node37</title>
<path fill="none" stroke="midnightblue" d="M796.802,-331.726C816.615,-321.727 843.207,-308.307 860.351,-299.655"/>
<polygon fill="midnightblue" stroke="midnightblue" points="795.042,-328.694 787.691,-336.324 798.196,-334.943 795.042,-328.694"/>
</g>
<!-- Node38 -->
<g id="node38" class="node"><title>Node38</title>
<g id="a_node38"><a xlink:href="../../d1/dde/BiQuad_8hpp.html" target="_top" xlink:title=" ">
<polygon fill="white" stroke="black" points="518.5,-280.5 518.5,-299.5 586.5,-299.5 586.5,-280.5 518.5,-280.5"/>
<text text-anchor="middle" x="552.5" y="-287.5" font-family="Helvetica,sans-Serif" font-size="10.00">BiQuad.hpp</text>
</a>
</g>
</g>
<!-- Node35&#45;&gt;Node38 -->
<g id="edge53" class="edge"><title>Node35&#45;&gt;Node38</title>
<path fill="none" stroke="midnightblue" d="M730.935,-335.2C689.7,-324.985 625.751,-309.145 586.651,-299.46"/>
<polygon fill="midnightblue" stroke="midnightblue" points="730.097,-338.598 740.645,-337.605 731.78,-331.803 730.097,-338.598"/>
</g>
<!-- Node41 -->
<g id="node41" class="node"><title>Node41</title>
<g id="a_node41"><a xlink:href="../../d2/d3b/FIRFilter_8hpp.html" target="_top" xlink:title=" ">
<polygon fill="white" stroke="black" points="642.5,-280.5 642.5,-299.5 716.5,-299.5 716.5,-280.5 642.5,-280.5"/>
<text text-anchor="middle" x="679.5" y="-287.5" font-family="Helvetica,sans-Serif" font-size="10.00">FIRFilter.hpp</text>
</a>
</g>
</g>
<!-- Node35&#45;&gt;Node41 -->
<g id="edge56" class="edge"><title>Node35&#45;&gt;Node41</title>
<path fill="none" stroke="midnightblue" d="M747.206,-331.177C730.461,-321.241 708.4,-308.149 694.084,-299.655"/>
<polygon fill="midnightblue" stroke="midnightblue" points="745.493,-334.231 755.879,-336.324 749.066,-328.211 745.493,-334.231"/>
</g>
<!-- Node42 -->
<g id="node42" class="node"><title>Node42</title>
<g id="a_node42"><a xlink:href="../../dc/d64/IIRFilter_8hpp.html" target="_top" xlink:title=" ">
<polygon fill="white" stroke="black" points="735,-280.5 735,-299.5 806,-299.5 806,-280.5 735,-280.5"/>
<text text-anchor="middle" x="770.5" y="-287.5" font-family="Helvetica,sans-Serif" font-size="10.00">IIRFilter.hpp</text>
</a>
</g>
</g>
<!-- Node35&#45;&gt;Node42 -->
<g id="edge57" class="edge"><title>Node35&#45;&gt;Node42</title>
<path fill="none" stroke="midnightblue" d="M770.5,-325.805C770.5,-316.91 770.5,-306.78 770.5,-299.751"/>
<polygon fill="midnightblue" stroke="midnightblue" points="767,-326.083 770.5,-336.083 774,-326.083 767,-326.083"/>
</g>
<!-- Node36&#45;&gt;Node31 -->
<g id="edge47" class="edge"><title>Node36&#45;&gt;Node31</title>
<path fill="none" stroke="midnightblue" d="M1004.92,-218.38C991.188,-208.62 973.575,-196.106 961.933,-187.834"/>
<polygon fill="midnightblue" stroke="midnightblue" points="1003.11,-221.385 1013.29,-224.324 1007.16,-215.679 1003.11,-221.385"/>
</g>
<!-- Node37&#45;&gt;Node7 -->
<g id="edge51" class="edge"><title>Node37&#45;&gt;Node7</title>
<path fill="none" stroke="midnightblue" d="M858.186,-274.101C845.588,-264.382 829.572,-252.027 818.951,-243.834"/>
<polygon fill="midnightblue" stroke="midnightblue" points="856.198,-276.987 866.253,-280.324 860.473,-271.445 856.198,-276.987"/>
</g>
<!-- Node37&#45;&gt;Node16 -->
<g id="edge50" class="edge"><title>Node37&#45;&gt;Node16</title>
<path fill="none" stroke="midnightblue" d="M896.753,-274.295C915.185,-260.523 944.024,-239.756 970.5,-224 1001.24,-205.703 1014.3,-210.018 1042.5,-188 1073.99,-163.414 1116.89,-141.997 1090.5,-112 1049.06,-64.8965 872.576,-85.0668 810.5,-76 807.436,-75.5525 804.279,-75.0763 801.1,-74.5855"/>
<polygon fill="midnightblue" stroke="midnightblue" points="894.477,-271.629 888.597,-280.442 898.69,-277.219 894.477,-271.629"/>
</g>
<!-- Node37&#45;&gt;Node25 -->
<g id="edge52" class="edge"><title>Node37&#45;&gt;Node25</title>
<path fill="none" stroke="midnightblue" d="M834.318,-277.717C805.969,-269.706 768.377,-257.925 736.5,-244 690.176,-223.764 681.121,-213.548 637.5,-188 622.701,-179.333 620.566,-174.001 604.5,-168 594.597,-164.301 464.623,-142.84 391.551,-130.941"/>
<polygon fill="midnightblue" stroke="midnightblue" points="833.745,-281.191 844.317,-280.495 835.619,-274.446 833.745,-281.191"/>
</g>
<!-- Node39 -->
<g id="node39" class="node"><title>Node39</title>
<g id="a_node39"><a xlink:href="../../df/ddc/SOSFilter_8hpp.html" target="_top" xlink:title=" ">
<polygon fill="white" stroke="black" points="513.5,-224.5 513.5,-243.5 591.5,-243.5 591.5,-224.5 513.5,-224.5"/>
<text text-anchor="middle" x="552.5" y="-231.5" font-family="Helvetica,sans-Serif" font-size="10.00">SOSFilter.hpp</text>
</a>
</g>
</g>
<!-- Node38&#45;&gt;Node39 -->
<g id="edge54" class="edge"><title>Node38&#45;&gt;Node39</title>
<path fill="none" stroke="midnightblue" d="M552.5,-269.805C552.5,-260.91 552.5,-250.78 552.5,-243.751"/>
<polygon fill="midnightblue" stroke="midnightblue" points="549,-270.083 552.5,-280.083 556,-270.083 549,-270.083"/>
</g>
<!-- Node40 -->
<g id="node40" class="node"><title>Node40</title>
<g id="a_node40"><a xlink:href="../../d4/d40/Butterworth_8hpp.html" target="_top" xlink:title=" ">
<polygon fill="white" stroke="black" points="509.5,-168.5 509.5,-187.5 595.5,-187.5 595.5,-168.5 509.5,-168.5"/>
<text text-anchor="middle" x="552.5" y="-175.5" font-family="Helvetica,sans-Serif" font-size="10.00">Butterworth.hpp</text>
</a>
</g>
</g>
<!-- Node39&#45;&gt;Node40 -->
<g id="edge55" class="edge"><title>Node39&#45;&gt;Node40</title>
<path fill="none" stroke="midnightblue" d="M552.5,-213.805C552.5,-204.91 552.5,-194.78 552.5,-187.751"/>
<polygon fill="midnightblue" stroke="midnightblue" points="549,-214.083 552.5,-224.083 556,-214.083 549,-214.083"/>
</g>
<!-- Node43&#45;&gt;Node20 -->
<g id="edge60" class="edge"><title>Node43&#45;&gt;Node20</title>
<path fill="none" stroke="midnightblue" d="M1298.73,-162.622C1284.48,-152.757 1266.04,-139.992 1254,-131.655"/>
<polygon fill="midnightblue" stroke="midnightblue" points="1296.75,-165.51 1306.97,-168.324 1300.74,-159.754 1296.75,-165.51"/>
</g>
<!-- Node43&#45;&gt;Node23 -->
<g id="edge61" class="edge"><title>Node43&#45;&gt;Node23</title>
<path fill="none" stroke="midnightblue" d="M1334,-160.398C1340.05,-152.388 1346.38,-142.295 1349.5,-132 1355.87,-110.948 1339.36,-87.7469 1328.71,-75.5627"/>
<polygon fill="midnightblue" stroke="midnightblue" points="1331.27,-158.203 1327.71,-168.182 1336.72,-162.601 1331.27,-158.203"/>
</g>
<!-- Node43&#45;&gt;Node29 -->
<g id="edge59" class="edge"><title>Node43&#45;&gt;Node29</title>
<path fill="none" stroke="midnightblue" d="M1323.33,-158.464C1325.15,-144.393 1325.17,-125.267 1315.5,-112 1305.46,-98.2241 1263.53,-84.2013 1233.2,-75.5525"/>
<polygon fill="midnightblue" stroke="midnightblue" points="1319.86,-158.012 1321.64,-168.457 1326.76,-159.185 1319.86,-158.012"/>
</g>
<!-- Node45&#45;&gt;Node19 -->
<g id="edge69" class="edge"><title>Node45&#45;&gt;Node19</title>
<path fill="none" stroke="midnightblue" d="M180.431,-444.319C156.142,-433.07 129.57,-414.884 140.5,-392 171.284,-327.55 265.5,-362.424 265.5,-291 265.5,-291 265.5,-291 265.5,-177 265.5,-146.902 260.874,-130.646 284.5,-112 347.552,-62.2399 926.477,-82.9187 1006.5,-76 1009.43,-75.747 1012.42,-75.4668 1015.43,-75.1664"/>
<polygon fill="midnightblue" stroke="midnightblue" points="179.323,-447.654 189.89,-448.428 182.112,-441.234 179.323,-447.654"/>
</g>
<!-- Node46 -->
<g id="node46" class="node"><title>Node46</title>
<g id="a_node46"><a xlink:href="../../db/d0b/ShiftRegisterOutRGB_8cpp.html" target="_top" xlink:title=" ">
<polygon fill="white" stroke="black" points="149.5,-392.5 149.5,-411.5 279.5,-411.5 279.5,-392.5 149.5,-392.5"/>
<text text-anchor="middle" x="214.5" y="-399.5" font-family="Helvetica,sans-Serif" font-size="10.00">ShiftRegisterOutRGB.cpp</text>
</a>
</g>
</g>
<!-- Node45&#45;&gt;Node46 -->
<g id="edge70" class="edge"><title>Node45&#45;&gt;Node46</title>
<path fill="none" stroke="midnightblue" d="M214.5,-437.805C214.5,-428.91 214.5,-418.78 214.5,-411.751"/>
<polygon fill="midnightblue" stroke="midnightblue" points="211,-438.083 214.5,-448.083 218,-438.083 211,-438.083"/>
</g>
</g>
</svg>
