<?xml version="1.0" encoding="UTF-8" standalone="no"?>
<!DOCTYPE svg PUBLIC "-//W3C//DTD SVG 1.1//EN"
 "http://www.w3.org/Graphics/SVG/1.1/DTD/svg11.dtd">
<!-- Generated by graphviz version 2.43.0 (0)
 -->
<!-- Title: FilteredAnalog.hpp Pages: 1 -->
<svg width="1599pt" height="789pt"
 viewBox="0.00 0.00 1599.00 789.00" xmlns="http://www.w3.org/2000/svg" xmlns:xlink="http://www.w3.org/1999/xlink">
<g id="graph0" class="graph" transform="scale(1 1) rotate(0) translate(4 785)">
<title>FilteredAnalog.hpp</title>
<polygon fill="white" stroke="transparent" points="-4,4 -4,-785 1595,-785 1595,4 -4,4"/>
<!-- Node1 -->
<g id="node1" class="node">
<title>Node1</title>
<g id="a_node1"><a xlink:title=" ">
<polygon fill="#bfbfbf" stroke="black" points="731,-761.5 731,-780.5 839,-780.5 839,-761.5 731,-761.5"/>
<text text-anchor="middle" x="785" y="-768.5" font-family="Helvetica,sans-Serif" font-size="10.00">FilteredAnalog.hpp</text>
</a>
</g>
</g>
<!-- Node2 -->
<g id="node2" class="node">
<title>Node2</title>
<g id="a_node2"><a xlink:href="../../d1/d65/Warnings_8hpp.html" target="_top" xlink:title=" ">
<polygon fill="white" stroke="black" points="609.5,-0.5 609.5,-19.5 752.5,-19.5 752.5,-0.5 609.5,-0.5"/>
<text text-anchor="middle" x="681" y="-7.5" font-family="Helvetica,sans-Serif" font-size="10.00">AH/Settings/Warnings.hpp</text>
</a>
</g>
</g>
<!-- Node1&#45;&gt;Node2 -->
<g id="edge1" class="edge">
<title>Node1&#45;&gt;Node2</title>
<path fill="none" stroke="midnightblue" d="M730.8,-769C598.44,-766.11 261.69,-755.85 154,-725 79.56,-703.68 0,-720.94 0,-643.5 0,-643.5 0,-643.5 0,-121 0,-52.4 73.68,-73.56 140,-56 224.38,-33.66 469.89,-20.09 599.18,-14.29"/>
<polygon fill="midnightblue" stroke="midnightblue" points="599.59,-17.78 609.42,-13.84 599.28,-10.79 599.59,-17.78"/>
</g>
<!-- Node3 -->
<g id="node3" class="node">
<title>Node3</title>
<g id="a_node3"><a xlink:href="../../d3/df0/EMA_8hpp.html" target="_top" xlink:title=" ">
<polygon fill="white" stroke="black" points="57,-280.5 57,-299.5 167,-299.5 167,-280.5 57,-280.5"/>
<text text-anchor="middle" x="112" y="-287.5" font-family="Helvetica,sans-Serif" font-size="10.00">AH/Filters/EMA.hpp</text>
</a>
</g>
</g>
<!-- Node1&#45;&gt;Node3 -->
<g id="edge2" class="edge">
<title>Node1&#45;&gt;Node3</title>
<path fill="none" stroke="midnightblue" d="M730.66,-769.47C610.68,-767.67 326.72,-759.76 238,-725 183.32,-703.58 134,-702.22 134,-643.5 134,-643.5 134,-643.5 134,-401 134,-368.33 124.55,-331.24 118.04,-309.55"/>
<polygon fill="midnightblue" stroke="midnightblue" points="121.29,-308.22 114.97,-299.72 114.61,-310.31 121.29,-308.22"/>
</g>
<!-- Node6 -->
<g id="node6" class="node">
<title>Node6</title>
<g id="a_node6"><a xlink:title=" ">
<polygon fill="white" stroke="#bfbfbf" points="319.5,-112.5 319.5,-131.5 426.5,-131.5 426.5,-112.5 319.5,-112.5"/>
<text text-anchor="middle" x="373" y="-119.5" font-family="Helvetica,sans-Serif" font-size="10.00">AH/STL/type_traits</text>
</a>
</g>
</g>
<!-- Node1&#45;&gt;Node6 -->
<g id="edge69" class="edge">
<title>Node1&#45;&gt;Node6</title>
<path fill="none" stroke="midnightblue" d="M730.96,-768.58C595.46,-763.57 252,-741.22 252,-643.5 252,-643.5 252,-643.5 252,-401 252,-293.83 328.54,-181.28 359.87,-139.7"/>
<polygon fill="midnightblue" stroke="midnightblue" points="362.84,-141.58 366.15,-131.52 357.28,-137.32 362.84,-141.58"/>
</g>
<!-- Node7 -->
<g id="node7" class="node">
<title>Node7</title>
<g id="a_node7"><a xlink:href="../../d3/d09/Hysteresis_8hpp.html" target="_top" xlink:title=" ">
<polygon fill="white" stroke="black" points="432,-280.5 432,-299.5 572,-299.5 572,-280.5 432,-280.5"/>
<text text-anchor="middle" x="502" y="-287.5" font-family="Helvetica,sans-Serif" font-size="10.00">AH/Filters/Hysteresis.hpp</text>
</a>
</g>
</g>
<!-- Node1&#45;&gt;Node7 -->
<g id="edge7" class="edge">
<title>Node1&#45;&gt;Node7</title>
<path fill="none" stroke="midnightblue" d="M782.82,-761.48C777.83,-741.19 766,-688.36 766,-643.5 766,-643.5 766,-643.5 766,-574.5 766,-473.77 676.32,-486.02 608,-412 574.09,-375.26 535.77,-330.74 515.79,-307.28"/>
<polygon fill="midnightblue" stroke="midnightblue" points="518.45,-305 509.3,-299.64 513.11,-309.53 518.45,-305"/>
</g>
<!-- Node8 -->
<g id="node8" class="node">
<title>Node8</title>
<g id="a_node8"><a xlink:href="../../dd/ddf/ExtendedInputOutput_8hpp.html" target="_top" xlink:title=" ">
<polygon fill="white" stroke="black" points="1270.5,-694.5 1270.5,-724.5 1447.5,-724.5 1447.5,-694.5 1270.5,-694.5"/>
<text text-anchor="start" x="1278.5" y="-712.5" font-family="Helvetica,sans-Serif" font-size="10.00">AH/Hardware/ExtendedInput</text>
<text text-anchor="middle" x="1359" y="-701.5" font-family="Helvetica,sans-Serif" font-size="10.00">Output/ExtendedInputOutput.hpp</text>
</a>
</g>
</g>
<!-- Node1&#45;&gt;Node8 -->
<g id="edge10" class="edge">
<title>Node1&#45;&gt;Node8</title>
<path fill="none" stroke="midnightblue" d="M839,-764.4C935.37,-754.41 1138.26,-733.38 1260.16,-720.75"/>
<polygon fill="midnightblue" stroke="midnightblue" points="1260.66,-724.21 1270.25,-719.7 1259.94,-717.25 1260.66,-724.21"/>
</g>
<!-- Node10 -->
<g id="node10" class="node">
<title>Node10</title>
<g id="a_node10"><a xlink:href="../../d4/d35/Hardware-Types_8hpp.html" target="_top" xlink:title=" ">
<polygon fill="white" stroke="black" points="606.5,-560.5 606.5,-590.5 737.5,-590.5 737.5,-560.5 606.5,-560.5"/>
<text text-anchor="start" x="614.5" y="-578.5" font-family="Helvetica,sans-Serif" font-size="10.00">AH/Hardware/Hardware</text>
<text text-anchor="middle" x="672" y="-567.5" font-family="Helvetica,sans-Serif" font-size="10.00">&#45;Types.hpp</text>
</a>
</g>
</g>
<!-- Node1&#45;&gt;Node10 -->
<g id="edge62" class="edge">
<title>Node1&#45;&gt;Node10</title>
<path fill="none" stroke="midnightblue" d="M778.05,-761.29C771.1,-752.41 760.28,-738.1 752,-725 725.02,-682.29 698.08,-629.71 683.37,-599.96"/>
<polygon fill="midnightblue" stroke="midnightblue" points="686.42,-598.23 678.87,-590.79 680.13,-601.31 686.42,-598.23"/>
</g>
<!-- Node17 -->
<g id="node17" class="node">
<title>Node17</title>
<g id="a_node17"><a xlink:href="../../d7/d79/MinMaxFix_8hpp.html" target="_top" xlink:title=" ">
<polygon fill="white" stroke="black" points="1069,-112.5 1069,-131.5 1205,-131.5 1205,-112.5 1069,-112.5"/>
<text text-anchor="middle" x="1137" y="-119.5" font-family="Helvetica,sans-Serif" font-size="10.00">AH/Math/MinMaxFix.hpp</text>
</a>
</g>
</g>
<!-- Node1&#45;&gt;Node17 -->
<g id="edge68" class="edge">
<title>Node1&#45;&gt;Node17</title>
<path fill="none" stroke="midnightblue" d="M839.31,-764.7C950.57,-752.34 1194,-716.9 1194,-643.5 1194,-643.5 1194,-643.5 1194,-574.5 1194,-433.38 1337,-432.12 1337,-291 1337,-291 1337,-291 1337,-233 1337,-174.03 1269.42,-146.45 1212.82,-133.69"/>
<polygon fill="midnightblue" stroke="midnightblue" points="1213.27,-130.21 1202.76,-131.55 1211.82,-137.05 1213.27,-130.21"/>
</g>
<!-- Node20 -->
<g id="node20" class="node">
<title>Node20</title>
<g id="a_node20"><a xlink:href="../../d2/dd5/SettingsWrapper_8hpp.html" target="_top" xlink:title=" ">
<polygon fill="white" stroke="black" points="628,-336.5 628,-355.5 806,-355.5 806,-336.5 628,-336.5"/>
<text text-anchor="middle" x="717" y="-343.5" font-family="Helvetica,sans-Serif" font-size="10.00">AH/Settings/SettingsWrapper.hpp</text>
</a>
</g>
</g>
<!-- Node1&#45;&gt;Node20 -->
<g id="edge71" class="edge">
<title>Node1&#45;&gt;Node20</title>
<path fill="none" stroke="midnightblue" d="M787.18,-761.48C792.17,-741.19 804,-688.36 804,-643.5 804,-643.5 804,-643.5 804,-457 804,-415.4 765.25,-380.33 739.47,-361.6"/>
<polygon fill="midnightblue" stroke="midnightblue" points="741.18,-358.53 730.98,-355.68 737.18,-364.27 741.18,-358.53"/>
</g>
<!-- Node32 -->
<g id="node32" class="node">
<title>Node32</title>
<g id="a_node32"><a xlink:href="../../d5/dee/IncreaseBitDepth_8hpp.html" target="_top" xlink:title=" ">
<polygon fill="white" stroke="black" points="990.5,-280.5 990.5,-299.5 1157.5,-299.5 1157.5,-280.5 990.5,-280.5"/>
<text text-anchor="middle" x="1074" y="-287.5" font-family="Helvetica,sans-Serif" font-size="10.00">AH/Math/IncreaseBitDepth.hpp</text>
</a>
</g>
</g>
<!-- Node1&#45;&gt;Node32 -->
<g id="edge63" class="edge">
<title>Node1&#45;&gt;Node32</title>
<path fill="none" stroke="midnightblue" d="M839.32,-768.88C920.74,-764 1065,-741.52 1065,-643.5 1065,-643.5 1065,-643.5 1065,-401 1065,-368.84 1068.87,-331.57 1071.53,-309.71"/>
<polygon fill="midnightblue" stroke="midnightblue" points="1075.04,-309.9 1072.82,-299.54 1068.09,-309.02 1075.04,-309.9"/>
</g>
<!-- Node33 -->
<g id="node33" class="node">
<title>Node33</title>
<g id="a_node33"><a xlink:title=" ">
<polygon fill="white" stroke="#bfbfbf" points="1465.5,-700 1465.5,-719 1548.5,-719 1548.5,-700 1465.5,-700"/>
<text text-anchor="middle" x="1507" y="-707" font-family="Helvetica,sans-Serif" font-size="10.00">AH/STL/utility</text>
</a>
</g>
</g>
<!-- Node1&#45;&gt;Node33 -->
<g id="edge70" class="edge">
<title>Node1&#45;&gt;Node33</title>
<path fill="none" stroke="midnightblue" d="M839.04,-770.31C953.79,-770.1 1229.86,-765.06 1457,-725 1461.81,-724.15 1466.82,-723.02 1471.72,-721.75"/>
<polygon fill="midnightblue" stroke="midnightblue" points="1472.85,-725.07 1481.56,-719.03 1470.98,-718.32 1472.85,-725.07"/>
</g>
<!-- Node3&#45;&gt;Node2 -->
<g id="edge3" class="edge">
<title>Node3&#45;&gt;Node2</title>
<path fill="none" stroke="midnightblue" d="M115.51,-280.32C122.6,-261.96 138,-217.66 138,-179 138,-179 138,-179 138,-121 138,-90.2 137.52,-74.68 162,-56 195.91,-30.12 461.69,-17.95 599.18,-13.33"/>
<polygon fill="midnightblue" stroke="midnightblue" points="599.38,-16.83 609.26,-13 599.15,-9.83 599.38,-16.83"/>
</g>
<!-- Node4 -->
<g id="node4" class="node">
<title>Node4</title>
<g id="a_node4"><a xlink:title=" ">
<polygon fill="white" stroke="#bfbfbf" points="396.5,-224.5 396.5,-243.5 449.5,-243.5 449.5,-224.5 396.5,-224.5"/>
<text text-anchor="middle" x="423" y="-231.5" font-family="Helvetica,sans-Serif" font-size="10.00">stdint.h</text>
</a>
</g>
</g>
<!-- Node3&#45;&gt;Node4 -->
<g id="edge4" class="edge">
<title>Node3&#45;&gt;Node4</title>
<path fill="none" stroke="midnightblue" d="M161.28,-280.44C223.87,-269.58 330.45,-251.07 386.33,-241.37"/>
<polygon fill="midnightblue" stroke="midnightblue" points="387.23,-244.76 396.48,-239.6 386.03,-237.87 387.23,-244.76"/>
</g>
<!-- Node5 -->
<g id="node5" class="node">
<title>Node5</title>
<g id="a_node5"><a xlink:title=" ">
<polygon fill="white" stroke="#bfbfbf" points="28,-224.5 28,-243.5 110,-243.5 110,-224.5 28,-224.5"/>
<text text-anchor="middle" x="69" y="-231.5" font-family="Helvetica,sans-Serif" font-size="10.00">AH/STL/limits</text>
</a>
</g>
</g>
<!-- Node3&#45;&gt;Node5 -->
<g id="edge5" class="edge">
<title>Node3&#45;&gt;Node5</title>
<path fill="none" stroke="midnightblue" d="M104.9,-280.08C98.76,-272.38 89.73,-261.03 82.26,-251.65"/>
<polygon fill="midnightblue" stroke="midnightblue" points="84.94,-249.39 75.97,-243.75 79.46,-253.75 84.94,-249.39"/>
</g>
<!-- Node3&#45;&gt;Node6 -->
<g id="edge6" class="edge">
<title>Node3&#45;&gt;Node6</title>
<path fill="none" stroke="midnightblue" d="M125.67,-280.31C168.21,-253.25 298.59,-170.32 350.92,-137.04"/>
<polygon fill="midnightblue" stroke="midnightblue" points="352.91,-139.93 359.47,-131.61 349.15,-134.02 352.91,-139.93"/>
</g>
<!-- Node7&#45;&gt;Node2 -->
<g id="edge8" class="edge">
<title>Node7&#45;&gt;Node2</title>
<path fill="none" stroke="midnightblue" d="M502.58,-280.15C505.25,-246.56 519.02,-125.33 582,-56 596.16,-40.41 616.78,-29.86 635.54,-22.92"/>
<polygon fill="midnightblue" stroke="midnightblue" points="636.82,-26.18 645.13,-19.62 634.54,-19.57 636.82,-26.18"/>
</g>
<!-- Node7&#45;&gt;Node4 -->
<g id="edge9" class="edge">
<title>Node7&#45;&gt;Node4</title>
<path fill="none" stroke="midnightblue" d="M489.31,-280.32C477.1,-271.98 458.42,-259.21 444,-249.35"/>
<polygon fill="midnightblue" stroke="midnightblue" points="445.89,-246.41 435.66,-243.65 441.94,-252.19 445.89,-246.41"/>
</g>
<!-- Node8&#45;&gt;Node2 -->
<g id="edge61" class="edge">
<title>Node8&#45;&gt;Node2</title>
<path fill="none" stroke="midnightblue" d="M1447.7,-694.54C1513.2,-678.6 1591,-645.2 1591,-576.5 1591,-576.5 1591,-576.5 1591,-121 1591,-77.23 1557.53,-72.53 1517,-56 1448.46,-28.05 959.65,-16.09 762.81,-12.37"/>
<polygon fill="midnightblue" stroke="midnightblue" points="762.88,-8.87 752.82,-12.18 762.75,-15.87 762.88,-8.87"/>
</g>
<!-- Node9 -->
<g id="node9" class="node">
<title>Node9</title>
<g id="a_node9"><a xlink:href="../../d2/d3c/Arduino-Hardware-Types_8hpp.html" target="_top" xlink:title=" ">
<polygon fill="white" stroke="black" points="1329,-627.5 1329,-657.5 1451,-657.5 1451,-627.5 1329,-627.5"/>
<text text-anchor="start" x="1337" y="-645.5" font-family="Helvetica,sans-Serif" font-size="10.00">AH/Hardware/Arduino</text>
<text text-anchor="middle" x="1390" y="-634.5" font-family="Helvetica,sans-Serif" font-size="10.00">&#45;Hardware&#45;Types.hpp</text>
</a>
</g>
</g>
<!-- Node8&#45;&gt;Node9 -->
<g id="edge11" class="edge">
<title>Node8&#45;&gt;Node9</title>
<path fill="none" stroke="midnightblue" d="M1365.73,-694.4C1369.59,-686.3 1374.53,-675.94 1378.94,-666.69"/>
<polygon fill="midnightblue" stroke="midnightblue" points="1382.14,-668.11 1383.29,-657.58 1375.82,-665.1 1382.14,-668.11"/>
</g>
<!-- Node15 -->
<g id="node15" class="node">
<title>Node15</title>
<g id="a_node15"><a xlink:href="../../dc/dc7/NamespaceSettings_8hpp.html" target="_top" xlink:title=" ">
<polygon fill="white" stroke="black" points="784.5,-56.5 784.5,-75.5 979.5,-75.5 979.5,-56.5 784.5,-56.5"/>
<text text-anchor="middle" x="882" y="-63.5" font-family="Helvetica,sans-Serif" font-size="10.00">AH/Settings/NamespaceSettings.hpp</text>
</a>
</g>
</g>
<!-- Node8&#45;&gt;Node15 -->
<g id="edge60" class="edge">
<title>Node8&#45;&gt;Node15</title>
<path fill="none" stroke="midnightblue" d="M1404.34,-694.47C1423.73,-686.48 1445.25,-674.66 1460,-658 1485.48,-629.21 1489,-614.95 1489,-576.5 1489,-576.5 1489,-576.5 1489,-457 1489,-279.7 1367.87,-256.09 1214,-168 1153,-133.08 1126.22,-155.56 1060,-132 1040.9,-125.21 1037.79,-119.63 1019,-112 986.77,-98.92 949.17,-86.78 921.52,-78.42"/>
<polygon fill="midnightblue" stroke="midnightblue" points="922.4,-75.03 911.82,-75.51 920.39,-81.73 922.4,-75.03"/>
</g>
<!-- Node31 -->
<g id="node31" class="node">
<title>Node31</title>
<g id="a_node31"><a xlink:title=" ">
<polygon fill="white" stroke="#bfbfbf" points="1223.5,-633 1223.5,-652 1310.5,-652 1310.5,-633 1223.5,-633"/>
<text text-anchor="middle" x="1267" y="-640" font-family="Helvetica,sans-Serif" font-size="10.00">AH/STL/climits</text>
</a>
</g>
</g>
<!-- Node8&#45;&gt;Node31 -->
<g id="edge59" class="edge">
<title>Node8&#45;&gt;Node31</title>
<path fill="none" stroke="midnightblue" d="M1339.04,-694.4C1323.75,-683.6 1302.75,-668.76 1287.36,-657.89"/>
<polygon fill="midnightblue" stroke="midnightblue" points="1289.23,-654.92 1279.04,-652.01 1285.19,-660.64 1289.23,-654.92"/>
</g>
<!-- Node9&#45;&gt;Node2 -->
<g id="edge12" class="edge">
<title>Node9&#45;&gt;Node2</title>
<path fill="none" stroke="midnightblue" d="M1402.05,-627.39C1419.83,-605.09 1451,-559.62 1451,-515 1451,-515 1451,-515 1451,-457 1451,-277.66 1619.27,-186.26 1496,-56 1471.08,-29.66 964.97,-16.67 763.09,-12.52"/>
<polygon fill="midnightblue" stroke="midnightblue" points="762.91,-9.02 752.84,-12.32 762.77,-16.02 762.91,-9.02"/>
</g>
<!-- Node9&#45;&gt;Node10 -->
<g id="edge13" class="edge">
<title>Node9&#45;&gt;Node10</title>
<path fill="none" stroke="midnightblue" d="M1329,-628.39C1325.96,-627.89 1322.95,-627.42 1320,-627 1114.28,-597.8 869.26,-584.48 747.9,-579.3"/>
<polygon fill="midnightblue" stroke="midnightblue" points="747.74,-575.79 737.6,-578.87 747.45,-582.79 747.74,-575.79"/>
</g>
<!-- Node16 -->
<g id="node16" class="node">
<title>Node16</title>
<g id="a_node16"><a xlink:href="../../d6/ddf/Arduino-Wrapper_8h.html" target="_top" xlink:title=" ">
<polygon fill="white" stroke="black" points="987,-168.5 987,-187.5 1111,-187.5 1111,-168.5 987,-168.5"/>
<text text-anchor="middle" x="1049" y="-175.5" font-family="Helvetica,sans-Serif" font-size="10.00">AH/Arduino&#45;Wrapper.h</text>
</a>
</g>
</g>
<!-- Node9&#45;&gt;Node16 -->
<g id="edge58" class="edge">
<title>Node9&#45;&gt;Node16</title>
<path fill="none" stroke="midnightblue" d="M1388.05,-627.49C1379.14,-568.72 1336.77,-339.77 1204,-224 1181.05,-203.98 1149.64,-192.85 1121.11,-186.67"/>
<polygon fill="midnightblue" stroke="midnightblue" points="1121.64,-183.21 1111.15,-184.68 1120.27,-190.07 1121.64,-183.21"/>
</g>
<!-- Node28 -->
<g id="node28" class="node">
<title>Node28</title>
<g id="a_node28"><a xlink:href="../../d0/db1/FunctionTraits_8hpp.html" target="_top" xlink:title=" ">
<polygon fill="white" stroke="black" points="1267.5,-112.5 1267.5,-131.5 1420.5,-131.5 1420.5,-112.5 1267.5,-112.5"/>
<text text-anchor="middle" x="1344" y="-119.5" font-family="Helvetica,sans-Serif" font-size="10.00">AH/Types/FunctionTraits.hpp</text>
</a>
</g>
</g>
<!-- Node9&#45;&gt;Node28 -->
<g id="edge53" class="edge">
<title>Node9&#45;&gt;Node28</title>
<path fill="none" stroke="midnightblue" d="M1394.33,-627.24C1400.99,-603.97 1413,-556.3 1413,-515 1413,-515 1413,-515 1413,-233 1413,-194.39 1382.12,-158.21 1361.67,-138.49"/>
<polygon fill="midnightblue" stroke="midnightblue" points="1363.89,-135.77 1354.18,-131.54 1359.13,-140.9 1363.89,-135.77"/>
</g>
<!-- Node10&#45;&gt;Node2 -->
<g id="edge14" class="edge">
<title>Node10&#45;&gt;Node2</title>
<path fill="none" stroke="midnightblue" d="M606.18,-572.23C475.32,-565.9 195,-542.61 195,-459 195,-459 195,-459 195,-345 195,-270.74 176,-253.26 176,-179 176,-179 176,-179 176,-121 176,-35.4 456.51,-16.29 599.4,-12.11"/>
<polygon fill="midnightblue" stroke="midnightblue" points="599.55,-15.61 609.45,-11.84 599.36,-8.61 599.55,-15.61"/>
</g>
<!-- Node10&#45;&gt;Node4 -->
<g id="edge52" class="edge">
<title>Node10&#45;&gt;Node4</title>
<path fill="none" stroke="midnightblue" d="M668.38,-560.18C661.48,-535.13 644.44,-482.73 615,-448 596.35,-426 584.22,-429.11 561,-412 497.4,-365.15 456.97,-371.31 423,-300 416.1,-285.51 416.86,-267.07 418.91,-253.53"/>
<polygon fill="midnightblue" stroke="midnightblue" points="422.39,-253.98 420.79,-243.51 415.5,-252.69 422.39,-253.98"/>
</g>
<!-- Node11 -->
<g id="node11" class="node">
<title>Node11</title>
<g id="a_node11"><a xlink:href="../../de/d76/Array_8hpp.html" target="_top" xlink:title=" ">
<polygon fill="white" stroke="black" points="436.5,-504.5 436.5,-523.5 571.5,-523.5 571.5,-504.5 436.5,-504.5"/>
<text text-anchor="middle" x="504" y="-511.5" font-family="Helvetica,sans-Serif" font-size="10.00">AH/Containers/Array.hpp</text>
</a>
</g>
</g>
<!-- Node10&#45;&gt;Node11 -->
<g id="edge15" class="edge">
<title>Node10&#45;&gt;Node11</title>
<path fill="none" stroke="midnightblue" d="M632.19,-560.4C603.5,-550.24 565.19,-536.67 537.94,-527.02"/>
<polygon fill="midnightblue" stroke="midnightblue" points="539.04,-523.7 528.45,-523.66 536.7,-530.3 539.04,-523.7"/>
</g>
<!-- Node10&#45;&gt;Node15 -->
<g id="edge51" class="edge">
<title>Node10&#45;&gt;Node15</title>
<path fill="none" stroke="midnightblue" d="M737.5,-563.98C871.88,-538.14 1170.25,-457.36 1219,-244 1227.05,-208.75 1218.67,-190.03 1190,-168 1131.17,-122.8 1097.38,-155.48 1027,-132 1006.62,-125.2 1002.59,-120.82 983,-112 958.63,-101.03 930.9,-88.69 910.66,-79.7"/>
<polygon fill="midnightblue" stroke="midnightblue" points="911.94,-76.44 901.38,-75.58 909.1,-82.84 911.94,-76.44"/>
</g>
<!-- Node11&#45;&gt;Node2 -->
<g id="edge16" class="edge">
<title>Node11&#45;&gt;Node2</title>
<path fill="none" stroke="midnightblue" d="M440.08,-504.42C414.58,-498.09 386.67,-487.09 367,-468 251.18,-355.56 208.97,-248.59 295,-112 316.23,-78.29 328.43,-71.81 365,-56 439.96,-23.59 533.33,-13.58 599.08,-10.92"/>
<polygon fill="midnightblue" stroke="midnightblue" points="599.52,-14.41 609.38,-10.56 599.27,-7.42 599.52,-14.41"/>
</g>
<!-- Node11&#45;&gt;Node6 -->
<g id="edge49" class="edge">
<title>Node11&#45;&gt;Node6</title>
<path fill="none" stroke="midnightblue" d="M452.68,-504.46C429.15,-498.09 402.63,-487.05 385,-468 364.55,-445.91 366,-433.1 366,-403 366,-403 366,-403 366,-345 366,-269.87 370.06,-180.5 371.99,-142.09"/>
<polygon fill="midnightblue" stroke="midnightblue" points="375.5,-142.05 372.52,-131.88 368.51,-141.69 375.5,-142.05"/>
</g>
<!-- Node12 -->
<g id="node12" class="node">
<title>Node12</title>
<g id="a_node12"><a xlink:href="../../d1/d93/Error_8hpp.html" target="_top" xlink:title=" ">
<polygon fill="white" stroke="black" points="394,-448.5 394,-467.5 498,-467.5 498,-448.5 394,-448.5"/>
<text text-anchor="middle" x="446" y="-455.5" font-family="Helvetica,sans-Serif" font-size="10.00">AH/Error/Error.hpp</text>
</a>
</g>
</g>
<!-- Node11&#45;&gt;Node12 -->
<g id="edge17" class="edge">
<title>Node11&#45;&gt;Node12</title>
<path fill="none" stroke="midnightblue" d="M494.68,-504.32C486.11,-496.34 473.19,-484.31 462.81,-474.65"/>
<polygon fill="midnightblue" stroke="midnightblue" points="465.19,-472.09 455.49,-467.83 460.42,-477.21 465.19,-472.09"/>
</g>
<!-- Node25 -->
<g id="node25" class="node">
<title>Node25</title>
<g id="a_node25"><a xlink:title=" ">
<polygon fill="white" stroke="#bfbfbf" points="1139,-224.5 1139,-243.5 1195,-243.5 1195,-224.5 1139,-224.5"/>
<text text-anchor="middle" x="1167" y="-231.5" font-family="Helvetica,sans-Serif" font-size="10.00">stddef.h</text>
</a>
</g>
</g>
<!-- Node11&#45;&gt;Node25 -->
<g id="edge50" class="edge">
<title>Node11&#45;&gt;Node25</title>
<path fill="none" stroke="midnightblue" d="M534.07,-504.41C660.98,-468.01 1147.19,-327.17 1167,-300 1176.65,-286.76 1175.36,-267.63 1172.43,-253.55"/>
<polygon fill="midnightblue" stroke="midnightblue" points="1175.74,-252.39 1169.9,-243.55 1168.96,-254.1 1175.74,-252.39"/>
</g>
<!-- Node27 -->
<g id="node27" class="node">
<title>Node27</title>
<g id="a_node27"><a xlink:title=" ">
<polygon fill="white" stroke="#bfbfbf" points="516,-448.5 516,-467.5 606,-467.5 606,-448.5 516,-448.5"/>
<text text-anchor="middle" x="561" y="-455.5" font-family="Helvetica,sans-Serif" font-size="10.00">AH/STL/iterator</text>
</a>
</g>
</g>
<!-- Node11&#45;&gt;Node27 -->
<g id="edge48" class="edge">
<title>Node11&#45;&gt;Node27</title>
<path fill="none" stroke="midnightblue" d="M513.16,-504.32C521.5,-496.42 534.03,-484.55 544.18,-474.94"/>
<polygon fill="midnightblue" stroke="midnightblue" points="546.82,-477.25 551.68,-467.83 542.01,-472.17 546.82,-477.25"/>
</g>
<!-- Node12&#45;&gt;Node2 -->
<g id="edge18" class="edge">
<title>Node12&#45;&gt;Node2</title>
<path fill="none" stroke="midnightblue" d="M436.96,-448.38C394.77,-407.16 222.98,-227.27 311,-112 346.37,-65.68 506.38,-35.48 604.03,-21.01"/>
<polygon fill="midnightblue" stroke="midnightblue" points="604.76,-24.44 614.15,-19.54 603.75,-17.52 604.76,-24.44"/>
</g>
<!-- Node13 -->
<g id="node13" class="node">
<title>Node13</title>
<g id="a_node13"><a xlink:href="../../df/dee/Debug_8hpp.html" target="_top" xlink:title=" ">
<polygon fill="white" stroke="black" points="616.5,-392.5 616.5,-411.5 737.5,-411.5 737.5,-392.5 616.5,-392.5"/>
<text text-anchor="middle" x="677" y="-399.5" font-family="Helvetica,sans-Serif" font-size="10.00">AH/Debug/Debug.hpp</text>
</a>
</g>
</g>
<!-- Node12&#45;&gt;Node13 -->
<g id="edge19" class="edge">
<title>Node12&#45;&gt;Node13</title>
<path fill="none" stroke="midnightblue" d="M482.6,-448.44C522.73,-439.06 587.2,-423.99 630.78,-413.8"/>
<polygon fill="midnightblue" stroke="midnightblue" points="631.63,-417.2 640.57,-411.52 630.03,-410.38 631.63,-417.2"/>
</g>
<!-- Node13&#45;&gt;Node2 -->
<g id="edge20" class="edge">
<title>Node13&#45;&gt;Node2</title>
<path fill="none" stroke="midnightblue" d="M660.32,-392.44C647.02,-384.73 629.02,-372.13 619,-356 583.19,-298.36 523.42,-111.83 562,-56 573.23,-39.75 591.13,-29.36 609.67,-22.73"/>
<polygon fill="midnightblue" stroke="midnightblue" points="610.96,-25.99 619.4,-19.58 608.8,-19.33 610.96,-25.99"/>
</g>
<!-- Node14 -->
<g id="node14" class="node">
<title>Node14</title>
<g id="a_node14"><a xlink:href="../../dd/d80/PrintStream_8hpp.html" target="_top" xlink:title=" ">
<polygon fill="white" stroke="black" points="838.5,-224.5 838.5,-243.5 1011.5,-243.5 1011.5,-224.5 838.5,-224.5"/>
<text text-anchor="middle" x="925" y="-231.5" font-family="Helvetica,sans-Serif" font-size="10.00">AH/PrintStream/PrintStream.hpp</text>
</a>
</g>
</g>
<!-- Node13&#45;&gt;Node14 -->
<g id="edge21" class="edge">
<title>Node13&#45;&gt;Node14</title>
<path fill="none" stroke="midnightblue" d="M714.61,-392.49C781.83,-376.41 918,-339.63 944,-300 953.54,-285.46 945.72,-266.03 937.41,-252.21"/>
<polygon fill="midnightblue" stroke="midnightblue" points="940.21,-250.1 931.79,-243.67 934.36,-253.95 940.21,-250.1"/>
</g>
<!-- Node13&#45;&gt;Node20 -->
<g id="edge33" class="edge">
<title>Node13&#45;&gt;Node20</title>
<path fill="none" stroke="midnightblue" d="M678.44,-392.08C682.56,-384.3 690.71,-372.8 698.62,-363.37"/>
<polygon fill="midnightblue" stroke="midnightblue" points="701.36,-365.55 705.39,-355.75 696.13,-360.9 701.36,-365.55"/>
</g>
<!-- Node14&#45;&gt;Node2 -->
<g id="edge23" class="edge">
<title>Node14&#45;&gt;Node2</title>
<path fill="none" stroke="midnightblue" d="M897.74,-224.45C857.97,-210.74 783.78,-180.37 738,-132 730.4,-123.97 702.56,-60.91 688.8,-29.15"/>
<polygon fill="midnightblue" stroke="midnightblue" points="691.9,-27.5 684.72,-19.7 685.47,-30.27 691.9,-27.5"/>
</g>
<!-- Node14&#45;&gt;Node15 -->
<g id="edge22" class="edge">
<title>Node14&#45;&gt;Node15</title>
<path fill="none" stroke="midnightblue" d="M922.69,-224.08C915.92,-197.95 896.04,-121.21 886.81,-85.58"/>
<polygon fill="midnightblue" stroke="midnightblue" points="890.12,-84.37 884.22,-75.57 883.34,-86.13 890.12,-84.37"/>
</g>
<!-- Node14&#45;&gt;Node16 -->
<g id="edge24" class="edge">
<title>Node14&#45;&gt;Node16</title>
<path fill="none" stroke="midnightblue" d="M944.65,-224.44C964.96,-215.6 996.9,-201.69 1020.1,-191.59"/>
<polygon fill="midnightblue" stroke="midnightblue" points="1021.67,-194.72 1029.44,-187.52 1018.88,-188.3 1021.67,-194.72"/>
</g>
<!-- Node16&#45;&gt;Node6 -->
<g id="edge31" class="edge">
<title>Node16&#45;&gt;Node6</title>
<path fill="none" stroke="midnightblue" d="M986.92,-172.04C858.85,-161.81 566.52,-138.46 436.91,-128.1"/>
<polygon fill="midnightblue" stroke="midnightblue" points="436.99,-124.6 426.74,-127.29 436.43,-131.58 436.99,-124.6"/>
</g>
<!-- Node16&#45;&gt;Node17 -->
<g id="edge25" class="edge">
<title>Node16&#45;&gt;Node17</title>
<path fill="none" stroke="midnightblue" d="M1063.14,-168.32C1076.87,-159.9 1097.94,-146.97 1114.06,-137.07"/>
<polygon fill="midnightblue" stroke="midnightblue" points="1116.2,-139.87 1122.9,-131.65 1112.54,-133.9 1116.2,-139.87"/>
</g>
<!-- Node19 -->
<g id="node19" class="node">
<title>Node19</title>
<g id="a_node19"><a xlink:title=" ">
<polygon fill="white" stroke="#bfbfbf" points="1285.5,-0.5 1285.5,-19.5 1348.5,-19.5 1348.5,-0.5 1285.5,-0.5"/>
<text text-anchor="middle" x="1317" y="-7.5" font-family="Helvetica,sans-Serif" font-size="10.00">Arduino.h</text>
</a>
</g>
</g>
<!-- Node16&#45;&gt;Node19 -->
<g id="edge32" class="edge">
<title>Node16&#45;&gt;Node19</title>
<path fill="none" stroke="midnightblue" d="M1111.02,-174.02C1203.91,-168.83 1374.2,-156.29 1430,-132 1465.27,-116.64 1479.84,-110.91 1496,-76 1521.41,-21.12 1419.12,-11.48 1358.65,-10.45"/>
<polygon fill="midnightblue" stroke="midnightblue" points="1358.64,-6.95 1348.6,-10.35 1358.57,-13.95 1358.64,-6.95"/>
</g>
<!-- Node17&#45;&gt;Node2 -->
<g id="edge26" class="edge">
<title>Node17&#45;&gt;Node2</title>
<path fill="none" stroke="midnightblue" d="M1113.72,-112.42C1091.04,-103.86 1055.72,-90 1026,-76 1009.09,-68.03 1006.74,-61.89 989,-56 914.78,-31.38 826.07,-20.21 762.95,-15.16"/>
<polygon fill="midnightblue" stroke="midnightblue" points="762.9,-11.65 752.66,-14.37 762.36,-18.63 762.9,-11.65"/>
</g>
<!-- Node17&#45;&gt;Node15 -->
<g id="edge30" class="edge">
<title>Node17&#45;&gt;Node15</title>
<path fill="none" stroke="midnightblue" d="M1096.59,-112.44C1052.02,-103 980.23,-87.8 932.11,-77.61"/>
<polygon fill="midnightblue" stroke="midnightblue" points="932.72,-74.16 922.22,-75.52 931.27,-81.01 932.72,-74.16"/>
</g>
<!-- Node18 -->
<g id="node18" class="node">
<title>Node18</title>
<g id="a_node18"><a xlink:href="../../d6/d3b/FixArduinoMacros_8hpp.html" target="_top" xlink:title=" ">
<polygon fill="white" stroke="black" points="1035,-56.5 1035,-75.5 1205,-75.5 1205,-56.5 1035,-56.5"/>
<text text-anchor="middle" x="1120" y="-63.5" font-family="Helvetica,sans-Serif" font-size="10.00">AH/Math/FixArduinoMacros.hpp</text>
</a>
</g>
</g>
<!-- Node17&#45;&gt;Node18 -->
<g id="edge27" class="edge">
<title>Node17&#45;&gt;Node18</title>
<path fill="none" stroke="midnightblue" d="M1134.19,-112.08C1131.92,-104.85 1128.63,-94.41 1125.79,-85.4"/>
<polygon fill="midnightblue" stroke="midnightblue" points="1129.1,-84.24 1122.75,-75.75 1122.42,-86.34 1129.1,-84.24"/>
</g>
<!-- Node18&#45;&gt;Node2 -->
<g id="edge28" class="edge">
<title>Node18&#45;&gt;Node2</title>
<path fill="none" stroke="midnightblue" d="M1050.44,-56.44C971.53,-46.74 843.09,-30.94 760.34,-20.76"/>
<polygon fill="midnightblue" stroke="midnightblue" points="760.59,-17.26 750.24,-19.52 759.73,-24.21 760.59,-17.26"/>
</g>
<!-- Node18&#45;&gt;Node19 -->
<g id="edge29" class="edge">
<title>Node18&#45;&gt;Node19</title>
<path fill="none" stroke="midnightblue" d="M1151.22,-56.44C1184.93,-47.2 1238.8,-32.44 1275.93,-22.26"/>
<polygon fill="midnightblue" stroke="midnightblue" points="1277.21,-25.54 1285.93,-19.52 1275.36,-18.78 1277.21,-25.54"/>
</g>
<!-- Node20&#45;&gt;Node2 -->
<g id="edge34" class="edge">
<title>Node20&#45;&gt;Node2</title>
<path fill="none" stroke="midnightblue" d="M703.5,-336.3C690.97,-327.86 672.15,-314.27 658,-300 615.45,-257.1 596,-239.43 596,-179 596,-179 596,-179 596,-121 596,-79.76 633.86,-44.57 659.05,-25.73"/>
<polygon fill="midnightblue" stroke="midnightblue" points="661.27,-28.44 667.34,-19.76 657.18,-22.76 661.27,-28.44"/>
</g>
<!-- Node20&#45;&gt;Node13 -->
<g id="edge47" class="edge">
<title>Node20&#45;&gt;Node13</title>
<path fill="none" stroke="midnightblue" d="M715.65,-355.75C711.58,-363.48 703.46,-374.97 695.55,-384.43"/>
<polygon fill="midnightblue" stroke="midnightblue" points="692.79,-382.28 688.77,-392.08 698.02,-386.92 692.79,-382.28"/>
</g>
<!-- Node20&#45;&gt;Node15 -->
<g id="edge35" class="edge">
<title>Node20&#45;&gt;Node15</title>
<path fill="none" stroke="midnightblue" d="M806.47,-345C920.04,-343.48 1108.28,-335.46 1167,-300 1192.54,-284.58 1195.41,-272.57 1204,-244 1235.01,-140.82 1087.94,-174.66 989,-132 956.83,-118.13 922.76,-95.97 901.93,-81.45"/>
<polygon fill="midnightblue" stroke="midnightblue" points="903.79,-78.47 893.61,-75.55 899.75,-84.19 903.79,-78.47"/>
</g>
<!-- Node21 -->
<g id="node21" class="node">
<title>Node21</title>
<g id="a_node21"><a xlink:href="../../db/d02/Settings_8hpp.html" target="_top" xlink:title="All user settings and debugging options can be changed here.">
<polygon fill="white" stroke="black" points="666.5,-280.5 666.5,-299.5 743.5,-299.5 743.5,-280.5 666.5,-280.5"/>
<text text-anchor="middle" x="705" y="-287.5" font-family="Helvetica,sans-Serif" font-size="10.00">Settings.hpp</text>
</a>
</g>
</g>
<!-- Node20&#45;&gt;Node21 -->
<g id="edge36" class="edge">
<title>Node20&#45;&gt;Node21</title>
<path fill="none" stroke="midnightblue" d="M715.02,-336.08C713.43,-328.93 711.14,-318.64 709.15,-309.69"/>
<polygon fill="midnightblue" stroke="midnightblue" points="712.53,-308.75 706.94,-299.75 705.7,-310.27 712.53,-308.75"/>
</g>
<!-- Node26 -->
<g id="node26" class="node">
<title>Node26</title>
<g id="a_node26"><a xlink:href="../../d9/d98/TeensyUSBTypes_8hpp.html" target="_top" xlink:title=" ">
<polygon fill="white" stroke="black" points="761.5,-280.5 761.5,-299.5 934.5,-299.5 934.5,-280.5 761.5,-280.5"/>
<text text-anchor="middle" x="848" y="-287.5" font-family="Helvetica,sans-Serif" font-size="10.00">AH/Teensy/TeensyUSBTypes.hpp</text>
</a>
</g>
</g>
<!-- Node20&#45;&gt;Node26 -->
<g id="edge46" class="edge">
<title>Node20&#45;&gt;Node26</title>
<path fill="none" stroke="midnightblue" d="M737.76,-336.44C759.32,-327.56 793.26,-313.56 817.79,-303.45"/>
<polygon fill="midnightblue" stroke="midnightblue" points="819.43,-306.56 827.34,-299.52 816.76,-300.09 819.43,-306.56"/>
</g>
<!-- Node21&#45;&gt;Node4 -->
<g id="edge45" class="edge">
<title>Node21&#45;&gt;Node4</title>
<path fill="none" stroke="midnightblue" d="M666.22,-281.85C619.08,-273.12 537.14,-257.8 467,-244 464.52,-243.51 461.97,-243 459.4,-242.49"/>
<polygon fill="midnightblue" stroke="midnightblue" points="460.01,-239.04 449.51,-240.49 458.62,-245.9 460.01,-239.04"/>
</g>
<!-- Node22 -->
<g id="node22" class="node">
<title>Node22</title>
<g id="a_node22"><a xlink:href="../../dc/d50/Frequency_8hpp.html" target="_top" xlink:title=" ">
<polygon fill="white" stroke="black" points="747,-112.5 747,-131.5 881,-131.5 881,-112.5 747,-112.5"/>
<text text-anchor="middle" x="814" y="-119.5" font-family="Helvetica,sans-Serif" font-size="10.00">AH/Types/Frequency.hpp</text>
</a>
</g>
</g>
<!-- Node21&#45;&gt;Node22 -->
<g id="edge37" class="edge">
<title>Node21&#45;&gt;Node22</title>
<path fill="none" stroke="midnightblue" d="M735.81,-280.44C754.61,-273.61 777.55,-262.13 791,-244 813.54,-213.62 815.91,-167.45 815.22,-141.81"/>
<polygon fill="midnightblue" stroke="midnightblue" points="818.71,-141.44 814.76,-131.61 811.72,-141.76 818.71,-141.44"/>
</g>
<!-- Node23 -->
<g id="node23" class="node">
<title>Node23</title>
<g id="a_node23"><a xlink:href="../../d7/d7c/ADCConfig_8hpp.html" target="_top" xlink:title="This file contains the platform&#45;specific ADC resolutions.">
<polygon fill="white" stroke="black" points="624.5,-224.5 624.5,-243.5 781.5,-243.5 781.5,-224.5 624.5,-224.5"/>
<text text-anchor="middle" x="703" y="-231.5" font-family="Helvetica,sans-Serif" font-size="10.00">AH/Hardware/ADCConfig.hpp</text>
</a>
</g>
</g>
<!-- Node21&#45;&gt;Node23 -->
<g id="edge40" class="edge">
<title>Node21&#45;&gt;Node23</title>
<path fill="none" stroke="midnightblue" d="M704.67,-280.08C704.41,-273.01 704.03,-262.86 703.7,-253.99"/>
<polygon fill="midnightblue" stroke="midnightblue" points="707.19,-253.61 703.32,-243.75 700.2,-253.87 707.19,-253.61"/>
</g>
<!-- Node24 -->
<g id="node24" class="node">
<title>Node24</title>
<g id="a_node24"><a xlink:title=" ">
<polygon fill="white" stroke="#bfbfbf" points="1029.5,-224.5 1029.5,-243.5 1082.5,-243.5 1082.5,-224.5 1029.5,-224.5"/>
<text text-anchor="middle" x="1056" y="-231.5" font-family="Helvetica,sans-Serif" font-size="10.00">limits.h</text>
</a>
</g>
</g>
<!-- Node21&#45;&gt;Node24 -->
<g id="edge43" class="edge">
<title>Node21&#45;&gt;Node24</title>
<path fill="none" stroke="midnightblue" d="M743.74,-281.56C746.87,-281.01 749.99,-280.48 753,-280 868.41,-261.44 901.26,-266.69 1019.17,-244.17"/>
<polygon fill="midnightblue" stroke="midnightblue" points="1020.17,-247.54 1029.32,-242.21 1018.84,-240.67 1020.17,-247.54"/>
</g>
<!-- Node21&#45;&gt;Node25 -->
<g id="edge44" class="edge">
<title>Node21&#45;&gt;Node25</title>
<path fill="none" stroke="midnightblue" d="M743.73,-281.46C746.86,-280.94 749.98,-280.44 753,-280 902.91,-258.02 941.45,-261.03 1092,-244 1103.99,-242.64 1117.06,-241.1 1128.87,-239.68"/>
<polygon fill="midnightblue" stroke="midnightblue" points="1129.37,-243.14 1138.87,-238.47 1128.53,-236.19 1129.37,-243.14"/>
</g>
<!-- Node22&#45;&gt;Node2 -->
<g id="edge38" class="edge">
<title>Node22&#45;&gt;Node2</title>
<path fill="none" stroke="midnightblue" d="M803.56,-112.37C781.03,-93.73 727.59,-49.53 699.3,-26.13"/>
<polygon fill="midnightblue" stroke="midnightblue" points="701.32,-23.27 691.39,-19.59 696.86,-28.66 701.32,-23.27"/>
</g>
<!-- Node22&#45;&gt;Node15 -->
<g id="edge39" class="edge">
<title>Node22&#45;&gt;Node15</title>
<path fill="none" stroke="midnightblue" d="M824.93,-112.32C835.17,-104.18 850.72,-91.84 863,-82.09"/>
<polygon fill="midnightblue" stroke="midnightblue" points="865.22,-84.79 870.88,-75.83 860.87,-79.31 865.22,-84.79"/>
</g>
<!-- Node23&#45;&gt;Node2 -->
<g id="edge41" class="edge">
<title>Node23&#45;&gt;Node2</title>
<path fill="none" stroke="midnightblue" d="M702.14,-224.3C698.9,-191.63 687.43,-75.87 682.88,-29.96"/>
<polygon fill="midnightblue" stroke="midnightblue" points="686.35,-29.49 681.88,-19.88 679.38,-30.18 686.35,-29.49"/>
</g>
<!-- Node23&#45;&gt;Node16 -->
<g id="edge42" class="edge">
<title>Node23&#45;&gt;Node16</title>
<path fill="none" stroke="midnightblue" d="M757.82,-224.44C819.32,-214.85 918.98,-199.29 984.26,-189.1"/>
<polygon fill="midnightblue" stroke="midnightblue" points="985.09,-192.52 994.43,-187.52 984.01,-185.6 985.09,-192.52"/>
</g>
<!-- Node28&#45;&gt;Node2 -->
<g id="edge56" class="edge">
<title>Node28&#45;&gt;Node2</title>
<path fill="none" stroke="midnightblue" d="M1334.72,-112.33C1318.43,-97.71 1282.99,-68.52 1247,-56 1159.89,-25.69 897.72,-15.65 762.95,-12.44"/>
<polygon fill="midnightblue" stroke="midnightblue" points="762.76,-8.93 752.68,-12.2 762.6,-15.93 762.76,-8.93"/>
</g>
<!-- Node28&#45;&gt;Node15 -->
<g id="edge57" class="edge">
<title>Node28&#45;&gt;Node15</title>
<path fill="none" stroke="midnightblue" d="M1271.05,-112.47C1187.89,-102.75 1052.23,-86.9 965.07,-76.71"/>
<polygon fill="midnightblue" stroke="midnightblue" points="965.29,-73.21 954.95,-75.53 964.47,-80.16 965.29,-73.21"/>
</g>
<!-- Node29 -->
<g id="node29" class="node">
<title>Node29</title>
<g id="a_node29"><a xlink:title=" ">
<polygon fill="white" stroke="#bfbfbf" points="1299,-56.5 1299,-75.5 1389,-75.5 1389,-56.5 1299,-56.5"/>
<text text-anchor="middle" x="1344" y="-63.5" font-family="Helvetica,sans-Serif" font-size="10.00">AH/STL/cstddef</text>
</a>
</g>
</g>
<!-- Node28&#45;&gt;Node29 -->
<g id="edge54" class="edge">
<title>Node28&#45;&gt;Node29</title>
<path fill="none" stroke="midnightblue" d="M1344,-112.08C1344,-105.01 1344,-94.86 1344,-85.99"/>
<polygon fill="midnightblue" stroke="midnightblue" points="1347.5,-85.75 1344,-75.75 1340.5,-85.75 1347.5,-85.75"/>
</g>
<!-- Node30 -->
<g id="node30" class="node">
<title>Node30</title>
<g id="a_node30"><a xlink:title=" ">
<polygon fill="white" stroke="#bfbfbf" points="1407.5,-56.5 1407.5,-75.5 1486.5,-75.5 1486.5,-56.5 1407.5,-56.5"/>
<text text-anchor="middle" x="1447" y="-63.5" font-family="Helvetica,sans-Serif" font-size="10.00">AH/STL/tuple</text>
</a>
</g>
</g>
<!-- Node28&#45;&gt;Node30 -->
<g id="edge55" class="edge">
<title>Node28&#45;&gt;Node30</title>
<path fill="none" stroke="midnightblue" d="M1360.55,-112.32C1376.99,-103.7 1402.43,-90.36 1421.47,-80.39"/>
<polygon fill="midnightblue" stroke="midnightblue" points="1423.26,-83.4 1430.49,-75.65 1420.01,-77.2 1423.26,-83.4"/>
</g>
<!-- Node32&#45;&gt;Node2 -->
<g id="edge64" class="edge">
<title>Node32&#45;&gt;Node2</title>
<path fill="none" stroke="midnightblue" d="M1081.53,-280.1C1092.21,-267.51 1112.41,-243.84 1130,-224 1166.74,-182.58 1193.98,-183.62 1214,-132 1226.21,-100.51 1236.86,-80.87 1214,-56 1184.15,-23.52 905.02,-14.47 763.07,-11.96"/>
<polygon fill="midnightblue" stroke="midnightblue" points="762.74,-8.45 752.68,-11.78 762.62,-15.45 762.74,-8.45"/>
</g>
<!-- Node32&#45;&gt;Node6 -->
<g id="edge65" class="edge">
<title>Node32&#45;&gt;Node6</title>
<path fill="none" stroke="midnightblue" d="M990.33,-282.43C867.98,-272.58 650.96,-254.05 616,-244 529.02,-218.99 435.79,-163.41 394.64,-137.2"/>
<polygon fill="midnightblue" stroke="midnightblue" points="396.3,-134.11 386,-131.64 392.51,-139.99 396.3,-134.11"/>
</g>
<!-- Node32&#45;&gt;Node24 -->
<g id="edge66" class="edge">
<title>Node32&#45;&gt;Node24</title>
<path fill="none" stroke="midnightblue" d="M1071.03,-280.08C1068.62,-272.85 1065.14,-262.41 1062.13,-253.4"/>
<polygon fill="midnightblue" stroke="midnightblue" points="1065.4,-252.13 1058.92,-243.75 1058.76,-254.34 1065.4,-252.13"/>
</g>
<!-- Node32&#45;&gt;Node25 -->
<g id="edge67" class="edge">
<title>Node32&#45;&gt;Node25</title>
<path fill="none" stroke="midnightblue" d="M1088.94,-280.32C1103.59,-271.82 1126.13,-258.73 1143.24,-248.8"/>
<polygon fill="midnightblue" stroke="midnightblue" points="1145.2,-251.7 1152.1,-243.65 1141.69,-245.65 1145.2,-251.7"/>
</g>
</g>
</svg>
