<?xml version="1.0" encoding="UTF-8" standalone="no"?>
<!DOCTYPE svg PUBLIC "-//W3C//DTD SVG 1.1//EN"
 "http://www.w3.org/Graphics/SVG/1.1/DTD/svg11.dtd">
<!-- Generated by graphviz version 2.43.0 (0)
 -->
<!-- Title: AnalogMultiplex.hpp Pages: 1 -->
<svg width="1698pt" height="890pt"
 viewBox="0.00 0.00 1697.50 890.00" xmlns="http://www.w3.org/2000/svg" xmlns:xlink="http://www.w3.org/1999/xlink">
<g id="graph0" class="graph" transform="scale(1 1) rotate(0) translate(4 886)">
<title>AnalogMultiplex.hpp</title>
<polygon fill="white" stroke="transparent" points="-4,4 -4,-886 1693.5,-886 1693.5,4 -4,4"/>
<!-- Node1 -->
<g id="node1" class="node">
<title>Node1</title>
<g id="a_node1"><a xlink:title=" ">
<polygon fill="#bfbfbf" stroke="black" points="1079,-862.5 1079,-881.5 1196,-881.5 1196,-862.5 1079,-862.5"/>
<text text-anchor="middle" x="1137.5" y="-869.5" font-family="Helvetica,sans-Serif" font-size="10.00">AnalogMultiplex.hpp</text>
</a>
</g>
</g>
<!-- Node2 -->
<g id="node2" class="node">
<title>Node2</title>
<g id="a_node2"><a xlink:href="../../d1/d65/Warnings_8hpp.html" target="_top" xlink:title=" ">
<polygon fill="white" stroke="black" points="730,-0.5 730,-19.5 873,-19.5 873,-0.5 730,-0.5"/>
<text text-anchor="middle" x="801.5" y="-7.5" font-family="Helvetica,sans-Serif" font-size="10.00">AH/Settings/Warnings.hpp</text>
</a>
</g>
</g>
<!-- Node1&#45;&gt;Node2 -->
<g id="edge1" class="edge">
<title>Node1&#45;&gt;Node2</title>
<path fill="none" stroke="midnightblue" d="M1196.05,-871.57C1338.11,-871.37 1689.5,-860.79 1689.5,-761 1689.5,-761 1689.5,-761 1689.5,-121 1689.5,-84 1670.4,-72.92 1637.5,-56 1571.63,-22.13 1080.66,-13.67 883.3,-11.63"/>
<polygon fill="midnightblue" stroke="midnightblue" points="883.31,-8.13 873.27,-11.52 883.24,-15.12 883.31,-8.13"/>
</g>
<!-- Node3 -->
<g id="node3" class="node">
<title>Node3</title>
<g id="a_node3"><a xlink:href="../../dd/ddf/ExtendedInputOutput_8hpp.html" target="_top" xlink:title=" ">
<polygon fill="white" stroke="black" points="1362,-694.5 1362,-713.5 1503,-713.5 1503,-694.5 1362,-694.5"/>
<text text-anchor="middle" x="1432.5" y="-701.5" font-family="Helvetica,sans-Serif" font-size="10.00">ExtendedInputOutput.hpp</text>
</a>
</g>
</g>
<!-- Node1&#45;&gt;Node3 -->
<g id="edge2" class="edge">
<title>Node1&#45;&gt;Node3</title>
<path fill="none" stroke="midnightblue" d="M1152.95,-862.31C1201.23,-835.14 1349.62,-751.64 1408.28,-718.63"/>
<polygon fill="midnightblue" stroke="midnightblue" points="1410.21,-721.56 1417.21,-713.61 1406.78,-715.46 1410.21,-721.56"/>
</g>
<!-- Node6 -->
<g id="node6" class="node">
<title>Node6</title>
<g id="a_node6"><a xlink:href="../../de/d76/Array_8hpp.html" target="_top" xlink:title=" ">
<polygon fill="white" stroke="black" points="272,-504.5 272,-523.5 407,-523.5 407,-504.5 272,-504.5"/>
<text text-anchor="middle" x="339.5" y="-511.5" font-family="Helvetica,sans-Serif" font-size="10.00">AH/Containers/Array.hpp</text>
</a>
</g>
</g>
<!-- Node1&#45;&gt;Node6 -->
<g id="edge79" class="edge">
<title>Node1&#45;&gt;Node6</title>
<path fill="none" stroke="midnightblue" d="M1078.81,-868.53C902.47,-860.35 389.5,-830.57 389.5,-761 389.5,-761 389.5,-761 389.5,-641.5 389.5,-599.99 365.93,-555.84 351.15,-532.25"/>
<polygon fill="midnightblue" stroke="midnightblue" points="354.01,-530.22 345.63,-523.73 348.13,-534.03 354.01,-530.22"/>
</g>
<!-- Node29 -->
<g id="node29" class="node">
<title>Node29</title>
<g id="a_node29"><a xlink:href="../../d2/d05/StaticSizeExtendedIOElement_8hpp.html" target="_top" xlink:title=" ">
<polygon fill="white" stroke="black" points="162.5,-806.5 162.5,-825.5 344.5,-825.5 344.5,-806.5 162.5,-806.5"/>
<text text-anchor="middle" x="253.5" y="-813.5" font-family="Helvetica,sans-Serif" font-size="10.00">StaticSizeExtendedIOElement.hpp</text>
</a>
</g>
</g>
<!-- Node1&#45;&gt;Node29 -->
<g id="edge54" class="edge">
<title>Node1&#45;&gt;Node29</title>
<path fill="none" stroke="midnightblue" d="M1078.68,-867.82C950.76,-860.84 637.65,-843.41 375.5,-826 368.81,-825.56 361.91,-825.08 354.96,-824.6"/>
<polygon fill="midnightblue" stroke="midnightblue" points="354.98,-821.09 344.76,-823.88 354.49,-828.07 354.98,-821.09"/>
</g>
<!-- Node34 -->
<g id="node34" class="node">
<title>Node34</title>
<g id="a_node34"><a xlink:title=" ">
<polygon fill="white" stroke="#bfbfbf" points="1094,-392.5 1094,-411.5 1147,-411.5 1147,-392.5 1094,-392.5"/>
<text text-anchor="middle" x="1120.5" y="-399.5" font-family="Helvetica,sans-Serif" font-size="10.00">stdlib.h</text>
</a>
</g>
</g>
<!-- Node1&#45;&gt;Node34 -->
<g id="edge80" class="edge">
<title>Node1&#45;&gt;Node34</title>
<path fill="none" stroke="midnightblue" d="M1137.5,-862.44C1137.5,-843.94 1137.5,-798.81 1137.5,-761 1137.5,-761 1137.5,-761 1137.5,-513 1137.5,-480.58 1130.2,-443.42 1125.17,-421.64"/>
<polygon fill="midnightblue" stroke="midnightblue" points="1128.53,-420.67 1122.79,-411.77 1121.73,-422.31 1128.53,-420.67"/>
</g>
<!-- Node3&#45;&gt;Node2 -->
<g id="edge53" class="edge">
<title>Node3&#45;&gt;Node2</title>
<path fill="none" stroke="midnightblue" d="M1503.1,-694.78C1552.34,-687.63 1612.36,-675.63 1630.5,-658 1657.33,-631.93 1651.5,-613.91 1651.5,-576.5 1651.5,-576.5 1651.5,-576.5 1651.5,-121 1651.5,-86.84 1639.94,-73.32 1610.5,-56 1548.97,-19.8 1076.36,-12.71 883.28,-11.33"/>
<polygon fill="midnightblue" stroke="midnightblue" points="883.21,-7.83 873.18,-11.26 883.16,-14.83 883.21,-7.83"/>
</g>
<!-- Node4 -->
<g id="node4" class="node">
<title>Node4</title>
<g id="a_node4"><a xlink:href="../../d2/d3c/Arduino-Hardware-Types_8hpp.html" target="_top" xlink:title=" ">
<polygon fill="white" stroke="black" points="1499.5,-627.5 1499.5,-657.5 1621.5,-657.5 1621.5,-627.5 1499.5,-627.5"/>
<text text-anchor="start" x="1507.5" y="-645.5" font-family="Helvetica,sans-Serif" font-size="10.00">AH/Hardware/Arduino</text>
<text text-anchor="middle" x="1560.5" y="-634.5" font-family="Helvetica,sans-Serif" font-size="10.00">&#45;Hardware&#45;Types.hpp</text>
</a>
</g>
</g>
<!-- Node3&#45;&gt;Node4 -->
<g id="edge3" class="edge">
<title>Node3&#45;&gt;Node4</title>
<path fill="none" stroke="midnightblue" d="M1450.84,-694.48C1469.07,-686 1497.6,-672.74 1521,-661.86"/>
<polygon fill="midnightblue" stroke="midnightblue" points="1522.74,-664.91 1530.33,-657.52 1519.79,-658.56 1522.74,-664.91"/>
</g>
<!-- Node10 -->
<g id="node10" class="node">
<title>Node10</title>
<g id="a_node10"><a xlink:href="../../dc/dc7/NamespaceSettings_8hpp.html" target="_top" xlink:title=" ">
<polygon fill="white" stroke="black" points="881,-56.5 881,-75.5 1076,-75.5 1076,-56.5 881,-56.5"/>
<text text-anchor="middle" x="978.5" y="-63.5" font-family="Helvetica,sans-Serif" font-size="10.00">AH/Settings/NamespaceSettings.hpp</text>
</a>
</g>
</g>
<!-- Node3&#45;&gt;Node10 -->
<g id="edge52" class="edge">
<title>Node3&#45;&gt;Node10</title>
<path fill="none" stroke="midnightblue" d="M1419.47,-694.2C1408.47,-686.08 1393.18,-673.04 1384.5,-658 1365.91,-625.78 1365.5,-613.69 1365.5,-576.5 1365.5,-576.5 1365.5,-576.5 1365.5,-289 1365.5,-149.53 1174.03,-96.43 1060.45,-77.2"/>
<polygon fill="midnightblue" stroke="midnightblue" points="1060.82,-73.71 1050.38,-75.55 1059.69,-80.62 1060.82,-73.71"/>
</g>
<!-- Node28 -->
<g id="node28" class="node">
<title>Node28</title>
<g id="a_node28"><a xlink:title=" ">
<polygon fill="white" stroke="#bfbfbf" points="1394,-633 1394,-652 1481,-652 1481,-633 1394,-633"/>
<text text-anchor="middle" x="1437.5" y="-640" font-family="Helvetica,sans-Serif" font-size="10.00">AH/STL/climits</text>
</a>
</g>
</g>
<!-- Node3&#45;&gt;Node28 -->
<g id="edge51" class="edge">
<title>Node3&#45;&gt;Node28</title>
<path fill="none" stroke="midnightblue" d="M1433.22,-694.48C1433.92,-686.08 1435.02,-672.98 1435.93,-662.16"/>
<polygon fill="midnightblue" stroke="midnightblue" points="1439.44,-662.27 1436.78,-652.01 1432.46,-661.68 1439.44,-662.27"/>
</g>
<!-- Node4&#45;&gt;Node2 -->
<g id="edge4" class="edge">
<title>Node4&#45;&gt;Node2</title>
<path fill="none" stroke="midnightblue" d="M1516.77,-627.46C1470.31,-609.48 1403.5,-573.46 1403.5,-515 1403.5,-515 1403.5,-515 1403.5,-289 1403.5,-182.28 1426.8,-125.13 1345.5,-56 1311.11,-26.76 1026.51,-16.11 883.24,-12.59"/>
<polygon fill="midnightblue" stroke="midnightblue" points="883.26,-9.08 873.18,-12.34 883.09,-16.08 883.26,-9.08"/>
</g>
<!-- Node5 -->
<g id="node5" class="node">
<title>Node5</title>
<g id="a_node5"><a xlink:href="../../d4/d35/Hardware-Types_8hpp.html" target="_top" xlink:title=" ">
<polygon fill="white" stroke="black" points="1168,-560.5 1168,-590.5 1299,-590.5 1299,-560.5 1168,-560.5"/>
<text text-anchor="start" x="1176" y="-578.5" font-family="Helvetica,sans-Serif" font-size="10.00">AH/Hardware/Hardware</text>
<text text-anchor="middle" x="1233.5" y="-567.5" font-family="Helvetica,sans-Serif" font-size="10.00">&#45;Types.hpp</text>
</a>
</g>
</g>
<!-- Node4&#45;&gt;Node5 -->
<g id="edge5" class="edge">
<title>Node4&#45;&gt;Node5</title>
<path fill="none" stroke="midnightblue" d="M1499.42,-628.81C1496.41,-628.2 1493.42,-627.59 1490.5,-627 1429.49,-614.69 1360.25,-601.1 1309.03,-591.13"/>
<polygon fill="midnightblue" stroke="midnightblue" points="1309.51,-587.66 1299.03,-589.18 1308.18,-594.53 1309.51,-587.66"/>
</g>
<!-- Node11 -->
<g id="node11" class="node">
<title>Node11</title>
<g id="a_node11"><a xlink:href="../../d6/ddf/Arduino-Wrapper_8h.html" target="_top" xlink:title=" ">
<polygon fill="white" stroke="black" points="400.5,-168.5 400.5,-187.5 524.5,-187.5 524.5,-168.5 400.5,-168.5"/>
<text text-anchor="middle" x="462.5" y="-175.5" font-family="Helvetica,sans-Serif" font-size="10.00">AH/Arduino&#45;Wrapper.h</text>
</a>
</g>
</g>
<!-- Node4&#45;&gt;Node11 -->
<g id="edge50" class="edge">
<title>Node4&#45;&gt;Node11</title>
<path fill="none" stroke="midnightblue" d="M1499.48,-628.5C1496.45,-627.97 1493.44,-627.46 1490.5,-627 1343.88,-603.92 1305.55,-611.11 1158.5,-591 826.44,-545.58 631.3,-723.59 414.5,-468 408.75,-461.22 412.18,-456.58 414.5,-448 441.89,-346.67 506.11,-345.33 533.5,-244 535.82,-235.42 537.78,-231.79 533.5,-224 525.61,-209.66 511.01,-199.25 497.1,-192.08"/>
<polygon fill="midnightblue" stroke="midnightblue" points="498.2,-188.73 487.66,-187.62 495.21,-195.06 498.2,-188.73"/>
</g>
<!-- Node25 -->
<g id="node25" class="node">
<title>Node25</title>
<g id="a_node25"><a xlink:href="../../d0/db1/FunctionTraits_8hpp.html" target="_top" xlink:title=" ">
<polygon fill="white" stroke="black" points="1464,-112.5 1464,-131.5 1617,-131.5 1617,-112.5 1464,-112.5"/>
<text text-anchor="middle" x="1540.5" y="-119.5" font-family="Helvetica,sans-Serif" font-size="10.00">AH/Types/FunctionTraits.hpp</text>
</a>
</g>
</g>
<!-- Node4&#45;&gt;Node25 -->
<g id="edge45" class="edge">
<title>Node4&#45;&gt;Node25</title>
<path fill="none" stroke="midnightblue" d="M1558.67,-627.49C1555.78,-604.19 1550.5,-555.98 1550.5,-515 1550.5,-515 1550.5,-515 1550.5,-233 1550.5,-200.82 1546.2,-163.55 1543.24,-141.7"/>
<polygon fill="midnightblue" stroke="midnightblue" points="1546.67,-140.95 1541.81,-131.53 1539.74,-141.92 1546.67,-140.95"/>
</g>
<!-- Node5&#45;&gt;Node2 -->
<g id="edge6" class="edge">
<title>Node5&#45;&gt;Node2</title>
<path fill="none" stroke="midnightblue" d="M1245.65,-560.26C1262.12,-539.46 1289.5,-498.89 1289.5,-459 1289.5,-459 1289.5,-459 1289.5,-289 1289.5,-162.87 1236.36,-119.69 1127.5,-56 1087.32,-32.49 966.2,-20.68 883.47,-15.2"/>
<polygon fill="midnightblue" stroke="midnightblue" points="883.53,-11.69 873.33,-14.54 883.08,-18.68 883.53,-11.69"/>
</g>
<!-- Node5&#45;&gt;Node6 -->
<g id="edge7" class="edge">
<title>Node5&#45;&gt;Node6</title>
<path fill="none" stroke="midnightblue" d="M1167.76,-570.12C1006.26,-559.38 590.58,-531.71 417.23,-520.17"/>
<polygon fill="midnightblue" stroke="midnightblue" points="417.37,-516.68 407.16,-519.5 416.91,-523.66 417.37,-516.68"/>
</g>
<!-- Node5&#45;&gt;Node10 -->
<g id="edge43" class="edge">
<title>Node5&#45;&gt;Node10</title>
<path fill="none" stroke="midnightblue" d="M1237.14,-560.39C1242.4,-538.73 1251.5,-495.94 1251.5,-459 1251.5,-459 1251.5,-459 1251.5,-289 1251.5,-170.17 1093.89,-103.75 1018.18,-78.7"/>
<polygon fill="midnightblue" stroke="midnightblue" points="1019.09,-75.32 1008.5,-75.58 1016.94,-81.98 1019.09,-75.32"/>
</g>
<!-- Node22 -->
<g id="node22" class="node">
<title>Node22</title>
<g id="a_node22"><a xlink:title=" ">
<polygon fill="white" stroke="#bfbfbf" points="1170,-224.5 1170,-243.5 1223,-243.5 1223,-224.5 1170,-224.5"/>
<text text-anchor="middle" x="1196.5" y="-231.5" font-family="Helvetica,sans-Serif" font-size="10.00">stdint.h</text>
</a>
</g>
</g>
<!-- Node5&#45;&gt;Node22 -->
<g id="edge44" class="edge">
<title>Node5&#45;&gt;Node22</title>
<path fill="none" stroke="midnightblue" d="M1229.45,-560.41C1223.61,-538.79 1213.5,-496.04 1213.5,-459 1213.5,-459 1213.5,-459 1213.5,-345 1213.5,-312.58 1206.2,-275.42 1201.17,-253.64"/>
<polygon fill="midnightblue" stroke="midnightblue" points="1204.53,-252.67 1198.79,-243.77 1197.73,-254.31 1204.53,-252.67"/>
</g>
<!-- Node6&#45;&gt;Node2 -->
<g id="edge8" class="edge">
<title>Node6&#45;&gt;Node2</title>
<path fill="none" stroke="midnightblue" d="M331.49,-504.49C285.42,-454.55 60.67,-196.84 191.5,-56 209.2,-36.94 557.19,-20.7 719.47,-14.12"/>
<polygon fill="midnightblue" stroke="midnightblue" points="720.03,-17.6 729.89,-13.7 719.75,-10.61 720.03,-17.6"/>
</g>
<!-- Node7 -->
<g id="node7" class="node">
<title>Node7</title>
<g id="a_node7"><a xlink:href="../../d1/d93/Error_8hpp.html" target="_top" xlink:title=" ">
<polygon fill="white" stroke="black" points="423.5,-448.5 423.5,-467.5 527.5,-467.5 527.5,-448.5 423.5,-448.5"/>
<text text-anchor="middle" x="475.5" y="-455.5" font-family="Helvetica,sans-Serif" font-size="10.00">AH/Error/Error.hpp</text>
</a>
</g>
</g>
<!-- Node6&#45;&gt;Node7 -->
<g id="edge9" class="edge">
<title>Node6&#45;&gt;Node7</title>
<path fill="none" stroke="midnightblue" d="M361.05,-504.44C383.53,-495.52 418.99,-481.44 444.48,-471.32"/>
<polygon fill="midnightblue" stroke="midnightblue" points="446.05,-474.46 454.05,-467.52 443.47,-467.95 446.05,-474.46"/>
</g>
<!-- Node15 -->
<g id="node15" class="node">
<title>Node15</title>
<g id="a_node15"><a xlink:title=" ">
<polygon fill="white" stroke="#bfbfbf" points="311,-112.5 311,-131.5 418,-131.5 418,-112.5 311,-112.5"/>
<text text-anchor="middle" x="364.5" y="-119.5" font-family="Helvetica,sans-Serif" font-size="10.00">AH/STL/type_traits</text>
</a>
</g>
</g>
<!-- Node6&#45;&gt;Node15 -->
<g id="edge41" class="edge">
<title>Node6&#45;&gt;Node15</title>
<path fill="none" stroke="midnightblue" d="M336.8,-504.26C331.34,-485.77 319.5,-441.24 319.5,-403 319.5,-403 319.5,-403 319.5,-345 319.5,-291.04 296.19,-276.29 309.5,-224 317.67,-191.91 338.34,-159 351.88,-139.81"/>
<polygon fill="midnightblue" stroke="midnightblue" points="354.84,-141.7 357.87,-131.56 349.17,-137.59 354.84,-141.7"/>
</g>
<!-- Node21 -->
<g id="node21" class="node">
<title>Node21</title>
<g id="a_node21"><a xlink:title=" ">
<polygon fill="white" stroke="#bfbfbf" points="1019.5,-224.5 1019.5,-243.5 1075.5,-243.5 1075.5,-224.5 1019.5,-224.5"/>
<text text-anchor="middle" x="1047.5" y="-231.5" font-family="Helvetica,sans-Serif" font-size="10.00">stddef.h</text>
</a>
</g>
</g>
<!-- Node6&#45;&gt;Node21 -->
<g id="edge42" class="edge">
<title>Node6&#45;&gt;Node21</title>
<path fill="none" stroke="midnightblue" d="M380.85,-504.49C420.86,-496.03 483.12,-482.29 536.5,-468 641.02,-440.02 906.21,-363.93 993.5,-300 1011.36,-286.92 1026.94,-266.66 1036.71,-252.25"/>
<polygon fill="midnightblue" stroke="midnightblue" points="1039.72,-254.03 1042.26,-243.75 1033.86,-250.21 1039.72,-254.03"/>
</g>
<!-- Node24 -->
<g id="node24" class="node">
<title>Node24</title>
<g id="a_node24"><a xlink:title=" ">
<polygon fill="white" stroke="#bfbfbf" points="480.5,-392.5 480.5,-411.5 570.5,-411.5 570.5,-392.5 480.5,-392.5"/>
<text text-anchor="middle" x="525.5" y="-399.5" font-family="Helvetica,sans-Serif" font-size="10.00">AH/STL/iterator</text>
</a>
</g>
</g>
<!-- Node6&#45;&gt;Node24 -->
<g id="edge40" class="edge">
<title>Node6&#45;&gt;Node24</title>
<path fill="none" stroke="midnightblue" d="M347.55,-504.4C360.55,-490.89 387.47,-464.56 414.5,-448 437.41,-433.96 465.47,-422.63 487.65,-414.85"/>
<polygon fill="midnightblue" stroke="midnightblue" points="489.05,-418.07 497.38,-411.53 486.79,-411.45 489.05,-418.07"/>
</g>
<!-- Node7&#45;&gt;Node2 -->
<g id="edge10" class="edge">
<title>Node7&#45;&gt;Node2</title>
<path fill="none" stroke="midnightblue" d="M464.11,-448.49C413.76,-409.83 216.86,-246.75 288.5,-112 309.39,-72.71 329.68,-71.21 371.5,-56 433.51,-33.44 613.19,-20.64 719.64,-14.84"/>
<polygon fill="midnightblue" stroke="midnightblue" points="719.91,-18.33 729.71,-14.3 719.54,-11.34 719.91,-18.33"/>
</g>
<!-- Node8 -->
<g id="node8" class="node">
<title>Node8</title>
<g id="a_node8"><a xlink:href="../../df/dee/Debug_8hpp.html" target="_top" xlink:title=" ">
<polygon fill="white" stroke="black" points="589,-392.5 589,-411.5 710,-411.5 710,-392.5 589,-392.5"/>
<text text-anchor="middle" x="649.5" y="-399.5" font-family="Helvetica,sans-Serif" font-size="10.00">AH/Debug/Debug.hpp</text>
</a>
</g>
</g>
<!-- Node7&#45;&gt;Node8 -->
<g id="edge11" class="edge">
<title>Node7&#45;&gt;Node8</title>
<path fill="none" stroke="midnightblue" d="M503.07,-448.44C532.6,-439.28 579.62,-424.69 612.38,-414.52"/>
<polygon fill="midnightblue" stroke="midnightblue" points="613.54,-417.82 622.06,-411.52 611.47,-411.14 613.54,-417.82"/>
</g>
<!-- Node8&#45;&gt;Node2 -->
<g id="edge12" class="edge">
<title>Node8&#45;&gt;Node2</title>
<path fill="none" stroke="midnightblue" d="M645.67,-392.28C625.76,-346.71 535.65,-137.02 552.5,-112 576.37,-76.56 693.59,-40.12 758.33,-22.26"/>
<polygon fill="midnightblue" stroke="midnightblue" points="759.52,-25.56 768.25,-19.56 757.68,-18.81 759.52,-25.56"/>
</g>
<!-- Node9 -->
<g id="node9" class="node">
<title>Node9</title>
<g id="a_node9"><a xlink:href="../../dd/d80/PrintStream_8hpp.html" target="_top" xlink:title=" ">
<polygon fill="white" stroke="black" points="352,-224.5 352,-243.5 525,-243.5 525,-224.5 352,-224.5"/>
<text text-anchor="middle" x="438.5" y="-231.5" font-family="Helvetica,sans-Serif" font-size="10.00">AH/PrintStream/PrintStream.hpp</text>
</a>
</g>
</g>
<!-- Node8&#45;&gt;Node9 -->
<g id="edge13" class="edge">
<title>Node8&#45;&gt;Node9</title>
<path fill="none" stroke="midnightblue" d="M634.15,-392.36C619.26,-383.75 596.22,-369.86 577.5,-356 530.63,-321.29 480.04,-274.67 454.78,-250.69"/>
<polygon fill="midnightblue" stroke="midnightblue" points="457.16,-248.12 447.51,-243.75 452.33,-253.18 457.16,-248.12"/>
</g>
<!-- Node16 -->
<g id="node16" class="node">
<title>Node16</title>
<g id="a_node16"><a xlink:href="../../d2/dd5/SettingsWrapper_8hpp.html" target="_top" xlink:title=" ">
<polygon fill="white" stroke="black" points="657.5,-336.5 657.5,-355.5 835.5,-355.5 835.5,-336.5 657.5,-336.5"/>
<text text-anchor="middle" x="746.5" y="-343.5" font-family="Helvetica,sans-Serif" font-size="10.00">AH/Settings/SettingsWrapper.hpp</text>
</a>
</g>
</g>
<!-- Node8&#45;&gt;Node16 -->
<g id="edge25" class="edge">
<title>Node8&#45;&gt;Node16</title>
<path fill="none" stroke="midnightblue" d="M659.97,-392.32C673.65,-383.66 697.5,-370.24 716.8,-360.25"/>
<polygon fill="midnightblue" stroke="midnightblue" points="718.51,-363.3 725.84,-355.65 715.34,-357.06 718.51,-363.3"/>
</g>
<!-- Node9&#45;&gt;Node2 -->
<g id="edge15" class="edge">
<title>Node9&#45;&gt;Node2</title>
<path fill="none" stroke="midnightblue" d="M414.24,-224.48C364.77,-205.86 260.26,-159.4 301.5,-112 339.5,-68.33 503.98,-92.39 559.5,-76 579.72,-70.03 582.55,-62.81 602.5,-56 647.62,-40.6 700.3,-28.96 740.12,-21.37"/>
<polygon fill="midnightblue" stroke="midnightblue" points="740.77,-24.81 749.96,-19.53 739.49,-17.93 740.77,-24.81"/>
</g>
<!-- Node9&#45;&gt;Node10 -->
<g id="edge14" class="edge">
<title>Node9&#45;&gt;Node10</title>
<path fill="none" stroke="midnightblue" d="M464.82,-224.37C526.68,-204.15 686.26,-152.37 820.5,-112 860.18,-100.07 905.71,-87.19 937.67,-78.28"/>
<polygon fill="midnightblue" stroke="midnightblue" points="938.85,-81.58 947.54,-75.53 936.97,-74.84 938.85,-81.58"/>
</g>
<!-- Node9&#45;&gt;Node11 -->
<g id="edge16" class="edge">
<title>Node9&#45;&gt;Node11</title>
<path fill="none" stroke="midnightblue" d="M442.46,-224.08C445.71,-216.77 450.42,-206.18 454.45,-197.1"/>
<polygon fill="midnightblue" stroke="midnightblue" points="457.75,-198.31 458.61,-187.75 451.35,-195.47 457.75,-198.31"/>
</g>
<!-- Node12 -->
<g id="node12" class="node">
<title>Node12</title>
<g id="a_node12"><a xlink:href="../../d7/d79/MinMaxFix_8hpp.html" target="_top" xlink:title=" ">
<polygon fill="white" stroke="black" points="561.5,-112.5 561.5,-131.5 697.5,-131.5 697.5,-112.5 561.5,-112.5"/>
<text text-anchor="middle" x="629.5" y="-119.5" font-family="Helvetica,sans-Serif" font-size="10.00">AH/Math/MinMaxFix.hpp</text>
</a>
</g>
</g>
<!-- Node11&#45;&gt;Node12 -->
<g id="edge17" class="edge">
<title>Node11&#45;&gt;Node12</title>
<path fill="none" stroke="midnightblue" d="M488.96,-168.44C517.18,-159.32 562.04,-144.81 593.47,-134.65"/>
<polygon fill="midnightblue" stroke="midnightblue" points="594.72,-137.92 603.16,-131.52 592.57,-131.26 594.72,-137.92"/>
</g>
<!-- Node14 -->
<g id="node14" class="node">
<title>Node14</title>
<g id="a_node14"><a xlink:title=" ">
<polygon fill="white" stroke="#bfbfbf" points="378,-0.5 378,-19.5 441,-19.5 441,-0.5 378,-0.5"/>
<text text-anchor="middle" x="409.5" y="-7.5" font-family="Helvetica,sans-Serif" font-size="10.00">Arduino.h</text>
</a>
</g>
</g>
<!-- Node11&#45;&gt;Node14 -->
<g id="edge24" class="edge">
<title>Node11&#45;&gt;Node14</title>
<path fill="none" stroke="midnightblue" d="M459.22,-168.16C453.93,-154.8 442.48,-129.2 426.5,-112 406.62,-90.59 385.39,-101.7 371.5,-76 362.25,-58.89 376.59,-39.71 390.22,-26.65"/>
<polygon fill="midnightblue" stroke="midnightblue" points="392.85,-28.99 397.98,-19.73 388.19,-23.77 392.85,-28.99"/>
</g>
<!-- Node11&#45;&gt;Node15 -->
<g id="edge23" class="edge">
<title>Node11&#45;&gt;Node15</title>
<path fill="none" stroke="midnightblue" d="M446.75,-168.32C431.18,-159.74 407.12,-146.49 389.04,-136.52"/>
<polygon fill="midnightblue" stroke="midnightblue" points="390.65,-133.42 380.21,-131.65 387.28,-139.55 390.65,-133.42"/>
</g>
<!-- Node12&#45;&gt;Node2 -->
<g id="edge18" class="edge">
<title>Node12&#45;&gt;Node2</title>
<path fill="none" stroke="midnightblue" d="M643,-112.37C672.51,-93.49 743.04,-48.38 779.24,-25.24"/>
<polygon fill="midnightblue" stroke="midnightblue" points="781.53,-27.93 788.07,-19.59 777.76,-22.03 781.53,-27.93"/>
</g>
<!-- Node12&#45;&gt;Node10 -->
<g id="edge22" class="edge">
<title>Node12&#45;&gt;Node10</title>
<path fill="none" stroke="midnightblue" d="M684.8,-112.44C746.83,-102.85 847.36,-87.29 913.2,-77.1"/>
<polygon fill="midnightblue" stroke="midnightblue" points="914.11,-80.5 923.46,-75.52 913.04,-73.59 914.11,-80.5"/>
</g>
<!-- Node13 -->
<g id="node13" class="node">
<title>Node13</title>
<g id="a_node13"><a xlink:href="../../d6/d3b/FixArduinoMacros_8hpp.html" target="_top" xlink:title=" ">
<polygon fill="white" stroke="black" points="380.5,-56.5 380.5,-75.5 550.5,-75.5 550.5,-56.5 380.5,-56.5"/>
<text text-anchor="middle" x="465.5" y="-63.5" font-family="Helvetica,sans-Serif" font-size="10.00">AH/Math/FixArduinoMacros.hpp</text>
</a>
</g>
</g>
<!-- Node12&#45;&gt;Node13 -->
<g id="edge19" class="edge">
<title>Node12&#45;&gt;Node13</title>
<path fill="none" stroke="midnightblue" d="M603.51,-112.44C575.8,-103.32 531.75,-88.81 500.88,-78.65"/>
<polygon fill="midnightblue" stroke="midnightblue" points="501.96,-75.32 491.36,-75.52 499.77,-81.97 501.96,-75.32"/>
</g>
<!-- Node13&#45;&gt;Node2 -->
<g id="edge20" class="edge">
<title>Node13&#45;&gt;Node2</title>
<path fill="none" stroke="midnightblue" d="M518.74,-56.44C578.46,-46.85 675.24,-31.29 738.63,-21.1"/>
<polygon fill="midnightblue" stroke="midnightblue" points="739.19,-24.56 748.51,-19.52 738.08,-17.65 739.19,-24.56"/>
</g>
<!-- Node13&#45;&gt;Node14 -->
<g id="edge21" class="edge">
<title>Node13&#45;&gt;Node14</title>
<path fill="none" stroke="midnightblue" d="M456.5,-56.32C448.31,-48.42 435.99,-36.55 426.03,-26.94"/>
<polygon fill="midnightblue" stroke="midnightblue" points="428.29,-24.26 418.66,-19.83 423.43,-29.29 428.29,-24.26"/>
</g>
<!-- Node16&#45;&gt;Node2 -->
<g id="edge26" class="edge">
<title>Node16&#45;&gt;Node2</title>
<path fill="none" stroke="midnightblue" d="M727.2,-336.48C713.07,-329.08 694.94,-316.89 686.5,-300 671.39,-269.79 678.22,-256.75 686.5,-224 706.63,-144.33 763.1,-62.11 788.65,-27.71"/>
<polygon fill="midnightblue" stroke="midnightblue" points="791.49,-29.76 794.71,-19.66 785.9,-25.54 791.49,-29.76"/>
</g>
<!-- Node16&#45;&gt;Node8 -->
<g id="edge39" class="edge">
<title>Node16&#45;&gt;Node8</title>
<path fill="none" stroke="midnightblue" d="M736.06,-355.65C722.4,-364.31 698.56,-377.73 679.25,-387.73"/>
<polygon fill="midnightblue" stroke="midnightblue" points="677.53,-384.67 670.2,-392.32 680.7,-390.91 677.53,-384.67"/>
</g>
<!-- Node16&#45;&gt;Node10 -->
<g id="edge27" class="edge">
<title>Node16&#45;&gt;Node10</title>
<path fill="none" stroke="midnightblue" d="M835.55,-338.52C890.9,-332.46 954.78,-321.04 972.5,-300 1025.13,-237.52 998.48,-128.67 984.86,-85.45"/>
<polygon fill="midnightblue" stroke="midnightblue" points="988.19,-84.35 981.74,-75.95 981.54,-86.54 988.19,-84.35"/>
</g>
<!-- Node17 -->
<g id="node17" class="node">
<title>Node17</title>
<g id="a_node17"><a xlink:href="../../db/d02/Settings_8hpp.html" target="_top" xlink:title="All user settings and debugging options can be changed here.">
<polygon fill="white" stroke="black" points="696,-280.5 696,-299.5 773,-299.5 773,-280.5 696,-280.5"/>
<text text-anchor="middle" x="734.5" y="-287.5" font-family="Helvetica,sans-Serif" font-size="10.00">Settings.hpp</text>
</a>
</g>
</g>
<!-- Node16&#45;&gt;Node17 -->
<g id="edge28" class="edge">
<title>Node16&#45;&gt;Node17</title>
<path fill="none" stroke="midnightblue" d="M744.52,-336.08C742.93,-328.93 740.64,-318.64 738.65,-309.69"/>
<polygon fill="midnightblue" stroke="midnightblue" points="742.03,-308.75 736.44,-299.75 735.2,-310.27 742.03,-308.75"/>
</g>
<!-- Node23 -->
<g id="node23" class="node">
<title>Node23</title>
<g id="a_node23"><a xlink:href="../../d9/d98/TeensyUSBTypes_8hpp.html" target="_top" xlink:title=" ">
<polygon fill="white" stroke="black" points="791,-280.5 791,-299.5 964,-299.5 964,-280.5 791,-280.5"/>
<text text-anchor="middle" x="877.5" y="-287.5" font-family="Helvetica,sans-Serif" font-size="10.00">AH/Teensy/TeensyUSBTypes.hpp</text>
</a>
</g>
</g>
<!-- Node16&#45;&gt;Node23 -->
<g id="edge38" class="edge">
<title>Node16&#45;&gt;Node23</title>
<path fill="none" stroke="midnightblue" d="M767.26,-336.44C788.82,-327.56 822.76,-313.56 847.29,-303.45"/>
<polygon fill="midnightblue" stroke="midnightblue" points="848.93,-306.56 856.84,-299.52 846.26,-300.09 848.93,-306.56"/>
</g>
<!-- Node18 -->
<g id="node18" class="node">
<title>Node18</title>
<g id="a_node18"><a xlink:href="../../dc/d50/Frequency_8hpp.html" target="_top" xlink:title=" ">
<polygon fill="white" stroke="black" points="829.5,-112.5 829.5,-131.5 963.5,-131.5 963.5,-112.5 829.5,-112.5"/>
<text text-anchor="middle" x="896.5" y="-119.5" font-family="Helvetica,sans-Serif" font-size="10.00">AH/Types/Frequency.hpp</text>
</a>
</g>
</g>
<!-- Node17&#45;&gt;Node18 -->
<g id="edge29" class="edge">
<title>Node17&#45;&gt;Node18</title>
<path fill="none" stroke="midnightblue" d="M769.58,-280.42C802.55,-271.7 848.7,-257.57 861.5,-244 888.29,-215.59 894.73,-167.94 896.18,-141.71"/>
<polygon fill="midnightblue" stroke="midnightblue" points="899.68,-141.73 896.55,-131.61 892.69,-141.48 899.68,-141.73"/>
</g>
<!-- Node19 -->
<g id="node19" class="node">
<title>Node19</title>
<g id="a_node19"><a xlink:href="../../d7/d7c/ADCConfig_8hpp.html" target="_top" xlink:title="This file contains the platform&#45;specific ADC resolutions.">
<polygon fill="white" stroke="black" points="696,-224.5 696,-243.5 853,-243.5 853,-224.5 696,-224.5"/>
<text text-anchor="middle" x="774.5" y="-231.5" font-family="Helvetica,sans-Serif" font-size="10.00">AH/Hardware/ADCConfig.hpp</text>
</a>
</g>
</g>
<!-- Node17&#45;&gt;Node19 -->
<g id="edge32" class="edge">
<title>Node17&#45;&gt;Node19</title>
<path fill="none" stroke="midnightblue" d="M741.11,-280.08C746.76,-272.46 755.04,-261.26 761.95,-251.94"/>
<polygon fill="midnightblue" stroke="midnightblue" points="764.88,-253.87 768.02,-243.75 759.25,-249.7 764.88,-253.87"/>
</g>
<!-- Node20 -->
<g id="node20" class="node">
<title>Node20</title>
<g id="a_node20"><a xlink:title=" ">
<polygon fill="white" stroke="#bfbfbf" points="910,-224.5 910,-243.5 963,-243.5 963,-224.5 910,-224.5"/>
<text text-anchor="middle" x="936.5" y="-231.5" font-family="Helvetica,sans-Serif" font-size="10.00">limits.h</text>
</a>
</g>
</g>
<!-- Node17&#45;&gt;Node20 -->
<g id="edge35" class="edge">
<title>Node17&#45;&gt;Node20</title>
<path fill="none" stroke="midnightblue" d="M766.51,-280.44C802.86,-270.72 862.06,-254.9 900.13,-244.72"/>
<polygon fill="midnightblue" stroke="midnightblue" points="901.05,-248.1 909.8,-242.14 899.24,-241.34 901.05,-248.1"/>
</g>
<!-- Node17&#45;&gt;Node21 -->
<g id="edge36" class="edge">
<title>Node17&#45;&gt;Node21</title>
<path fill="none" stroke="midnightblue" d="M773.22,-281.52C776.02,-281 778.8,-280.49 781.5,-280 862.35,-265.42 957.3,-249.69 1009.06,-241.24"/>
<polygon fill="midnightblue" stroke="midnightblue" points="1009.81,-244.66 1019.12,-239.59 1008.69,-237.75 1009.81,-244.66"/>
</g>
<!-- Node17&#45;&gt;Node22 -->
<g id="edge37" class="edge">
<title>Node17&#45;&gt;Node22</title>
<path fill="none" stroke="midnightblue" d="M773.19,-281.33C776,-280.86 778.79,-280.41 781.5,-280 920.52,-259.19 1087.11,-244.08 1159.69,-237.98"/>
<polygon fill="midnightblue" stroke="midnightblue" points="1160.03,-241.46 1169.7,-237.15 1159.44,-234.49 1160.03,-241.46"/>
</g>
<!-- Node18&#45;&gt;Node2 -->
<g id="edge30" class="edge">
<title>Node18&#45;&gt;Node2</title>
<path fill="none" stroke="midnightblue" d="M889.05,-112.37C873.23,-94.05 836.09,-51.05 815.63,-27.36"/>
<polygon fill="midnightblue" stroke="midnightblue" points="818.1,-24.87 808.92,-19.59 812.81,-29.45 818.1,-24.87"/>
</g>
<!-- Node18&#45;&gt;Node10 -->
<g id="edge31" class="edge">
<title>Node18&#45;&gt;Node10</title>
<path fill="none" stroke="midnightblue" d="M909.67,-112.32C922.35,-103.98 941.73,-91.21 956.71,-81.35"/>
<polygon fill="midnightblue" stroke="midnightblue" points="958.93,-84.08 965.36,-75.65 955.08,-78.23 958.93,-84.08"/>
</g>
<!-- Node19&#45;&gt;Node2 -->
<g id="edge33" class="edge">
<title>Node19&#45;&gt;Node2</title>
<path fill="none" stroke="midnightblue" d="M775.56,-224.3C779.53,-191.63 793.61,-75.87 799.19,-29.96"/>
<polygon fill="midnightblue" stroke="midnightblue" points="802.69,-30.23 800.42,-19.88 795.74,-29.39 802.69,-30.23"/>
</g>
<!-- Node19&#45;&gt;Node11 -->
<g id="edge34" class="edge">
<title>Node19&#45;&gt;Node11</title>
<path fill="none" stroke="midnightblue" d="M725.06,-224.44C669.84,-214.89 580.48,-199.42 521.61,-189.23"/>
<polygon fill="midnightblue" stroke="midnightblue" points="522.16,-185.77 511.71,-187.52 520.96,-192.67 522.16,-185.77"/>
</g>
<!-- Node25&#45;&gt;Node2 -->
<g id="edge48" class="edge">
<title>Node25&#45;&gt;Node2</title>
<path fill="none" stroke="midnightblue" d="M1556.75,-112.29C1578.57,-99.53 1612.64,-75.19 1594.5,-56 1570.34,-30.43 1080.76,-17.03 883.15,-12.65"/>
<polygon fill="midnightblue" stroke="midnightblue" points="883.19,-9.15 873.11,-12.43 883.03,-16.15 883.19,-9.15"/>
</g>
<!-- Node25&#45;&gt;Node10 -->
<g id="edge49" class="edge">
<title>Node25&#45;&gt;Node10</title>
<path fill="none" stroke="midnightblue" d="M1463.83,-113.63C1363.48,-103.99 1187.46,-87.08 1077.24,-76.49"/>
<polygon fill="midnightblue" stroke="midnightblue" points="1077.41,-72.99 1067.12,-75.51 1076.74,-79.96 1077.41,-72.99"/>
</g>
<!-- Node26 -->
<g id="node26" class="node">
<title>Node26</title>
<g id="a_node26"><a xlink:title=" ">
<polygon fill="white" stroke="#bfbfbf" points="1495.5,-56.5 1495.5,-75.5 1585.5,-75.5 1585.5,-56.5 1495.5,-56.5"/>
<text text-anchor="middle" x="1540.5" y="-63.5" font-family="Helvetica,sans-Serif" font-size="10.00">AH/STL/cstddef</text>
</a>
</g>
</g>
<!-- Node25&#45;&gt;Node26 -->
<g id="edge46" class="edge">
<title>Node25&#45;&gt;Node26</title>
<path fill="none" stroke="midnightblue" d="M1540.5,-112.08C1540.5,-105.01 1540.5,-94.86 1540.5,-85.99"/>
<polygon fill="midnightblue" stroke="midnightblue" points="1544,-85.75 1540.5,-75.75 1537,-85.75 1544,-85.75"/>
</g>
<!-- Node27 -->
<g id="node27" class="node">
<title>Node27</title>
<g id="a_node27"><a xlink:title=" ">
<polygon fill="white" stroke="#bfbfbf" points="1398,-56.5 1398,-75.5 1477,-75.5 1477,-56.5 1398,-56.5"/>
<text text-anchor="middle" x="1437.5" y="-63.5" font-family="Helvetica,sans-Serif" font-size="10.00">AH/STL/tuple</text>
</a>
</g>
</g>
<!-- Node25&#45;&gt;Node27 -->
<g id="edge47" class="edge">
<title>Node25&#45;&gt;Node27</title>
<path fill="none" stroke="midnightblue" d="M1523.95,-112.32C1507.51,-103.7 1482.07,-90.36 1463.03,-80.39"/>
<polygon fill="midnightblue" stroke="midnightblue" points="1464.49,-77.2 1454.01,-75.65 1461.24,-83.4 1464.49,-77.2"/>
</g>
<!-- Node29&#45;&gt;Node2 -->
<g id="edge55" class="edge">
<title>Node29&#45;&gt;Node2</title>
<path fill="none" stroke="midnightblue" d="M252.32,-806.46C249.88,-787.99 244.5,-742.94 244.5,-705 244.5,-705 244.5,-705 244.5,-641.5 244.5,-530.11 167.5,-514.39 167.5,-403 167.5,-403 167.5,-403 167.5,-345 167.5,-269.31 205.5,-254.69 205.5,-179 205.5,-179 205.5,-179 205.5,-121 205.5,-63.45 262.68,-73.52 317.5,-56 390.24,-32.76 602.02,-19.89 719.9,-14.34"/>
<polygon fill="midnightblue" stroke="midnightblue" points="720.13,-17.83 729.96,-13.87 719.81,-10.84 720.13,-17.83"/>
</g>
<!-- Node30 -->
<g id="node30" class="node">
<title>Node30</title>
<g id="a_node30"><a xlink:href="../../d4/d57/ExtendedIOElement_8hpp.html" target="_top" xlink:title=" ">
<polygon fill="white" stroke="black" points="1166.5,-750.5 1166.5,-769.5 1300.5,-769.5 1300.5,-750.5 1166.5,-750.5"/>
<text text-anchor="middle" x="1233.5" y="-757.5" font-family="Helvetica,sans-Serif" font-size="10.00">ExtendedIOElement.hpp</text>
</a>
</g>
</g>
<!-- Node29&#45;&gt;Node30 -->
<g id="edge56" class="edge">
<title>Node29&#45;&gt;Node30</title>
<path fill="none" stroke="midnightblue" d="M344.82,-809.97C536.39,-799.41 977.31,-775.12 1156.08,-765.27"/>
<polygon fill="midnightblue" stroke="midnightblue" points="1156.4,-768.75 1166.2,-764.71 1156.02,-761.76 1156.4,-768.75"/>
</g>
<!-- Node36 -->
<g id="node36" class="node">
<title>Node36</title>
<g id="a_node36"><a xlink:href="../../d5/db6/ArrayHelpers_8hpp.html" target="_top" xlink:title=" ">
<polygon fill="white" stroke="black" points="42.5,-566 42.5,-585 216.5,-585 216.5,-566 42.5,-566"/>
<text text-anchor="middle" x="129.5" y="-573" font-family="Helvetica,sans-Serif" font-size="10.00">AH/Containers/ArrayHelpers.hpp</text>
</a>
</g>
</g>
<!-- Node29&#45;&gt;Node36 -->
<g id="edge74" class="edge">
<title>Node29&#45;&gt;Node36</title>
<path fill="none" stroke="midnightblue" d="M248.94,-806.23C230.78,-771.31 163.43,-641.77 138.69,-594.18"/>
<polygon fill="midnightblue" stroke="midnightblue" points="141.69,-592.36 133.97,-585.1 135.48,-595.59 141.69,-592.36"/>
</g>
<!-- Node30&#45;&gt;Node2 -->
<g id="edge57" class="edge">
<title>Node30&#45;&gt;Node2</title>
<path fill="none" stroke="midnightblue" d="M1248.19,-750.26C1274.62,-733.29 1327.5,-693.14 1327.5,-643.5 1327.5,-643.5 1327.5,-643.5 1327.5,-289 1327.5,-160.81 1277.1,-102.14 1157.5,-56 1109.02,-37.3 972.55,-23.86 883.36,-16.77"/>
<polygon fill="midnightblue" stroke="midnightblue" points="883.5,-13.27 873.26,-15.98 882.96,-20.25 883.5,-13.27"/>
</g>
<!-- Node30&#45;&gt;Node3 -->
<g id="edge58" class="edge">
<title>Node30&#45;&gt;Node3</title>
<path fill="none" stroke="midnightblue" d="M1265.03,-750.44C1299.09,-741.2 1353.51,-726.44 1391.02,-716.26"/>
<polygon fill="midnightblue" stroke="midnightblue" points="1392.38,-719.51 1401.12,-713.52 1390.55,-712.76 1392.38,-719.51"/>
</g>
<!-- Node30&#45;&gt;Node5 -->
<g id="edge73" class="edge">
<title>Node30&#45;&gt;Node5</title>
<path fill="none" stroke="midnightblue" d="M1233.5,-750.2C1233.5,-723.39 1233.5,-642.09 1233.5,-600.93"/>
<polygon fill="midnightblue" stroke="midnightblue" points="1237,-600.69 1233.5,-590.69 1230,-600.69 1237,-600.69"/>
</g>
<!-- Node31 -->
<g id="node31" class="node">
<title>Node31</title>
<g id="a_node31"><a xlink:href="../../d4/d93/Updatable_8hpp.html" target="_top" xlink:title=" ">
<polygon fill="white" stroke="black" points="797,-504.5 797,-523.5 958,-523.5 958,-504.5 797,-504.5"/>
<text text-anchor="middle" x="877.5" y="-511.5" font-family="Helvetica,sans-Serif" font-size="10.00">AH/Containers/Updatable.hpp</text>
</a>
</g>
</g>
<!-- Node30&#45;&gt;Node31 -->
<g id="edge59" class="edge">
<title>Node30&#45;&gt;Node31</title>
<path fill="none" stroke="midnightblue" d="M1220.83,-750.32C1167.95,-714.07 964.55,-574.66 898.41,-529.33"/>
<polygon fill="midnightblue" stroke="midnightblue" points="900.25,-526.35 890.02,-523.58 896.29,-532.12 900.25,-526.35"/>
</g>
<!-- Node31&#45;&gt;Node2 -->
<g id="edge60" class="edge">
<title>Node31&#45;&gt;Node2</title>
<path fill="none" stroke="midnightblue" d="M958.1,-504.77C1017.61,-497.44 1092.56,-485.21 1118.5,-468 1149.81,-447.23 1158.03,-429.48 1155.5,-392 1150.41,-316.72 1161.11,-108.07 1106.5,-56 1075.36,-26.3 963.03,-16.16 883.77,-12.72"/>
<polygon fill="midnightblue" stroke="midnightblue" points="883.44,-9.2 873.31,-12.3 883.16,-16.2 883.44,-9.2"/>
</g>
<!-- Node31&#45;&gt;Node7 -->
<g id="edge68" class="edge">
<title>Node31&#45;&gt;Node7</title>
<path fill="none" stroke="midnightblue" d="M813.8,-504.44C738.21,-494.29 612.99,-477.47 537.95,-467.39"/>
<polygon fill="midnightblue" stroke="midnightblue" points="538.08,-463.87 527.7,-466.01 537.15,-470.81 538.08,-463.87"/>
</g>
<!-- Node31&#45;&gt;Node15 -->
<g id="edge69" class="edge">
<title>Node31&#45;&gt;Node15</title>
<path fill="none" stroke="midnightblue" d="M801.17,-504.47C747.47,-497.41 674.29,-485.65 611.5,-468 579.24,-458.93 496.73,-434.05 471.5,-412 442.28,-386.46 451.47,-367.28 428.5,-336 395.38,-290.88 363.05,-296.06 342.5,-244 335.24,-225.6 350.02,-170.43 358.73,-141.37"/>
<polygon fill="midnightblue" stroke="midnightblue" points="362.13,-142.23 361.72,-131.64 355.44,-140.17 362.13,-142.23"/>
</g>
<!-- Node31&#45;&gt;Node16 -->
<g id="edge71" class="edge">
<title>Node31&#45;&gt;Node16</title>
<path fill="none" stroke="midnightblue" d="M866.18,-504.45C855.3,-495.92 838.75,-482.08 826.5,-468 797.15,-434.27 770.03,-389.13 756.17,-364.63"/>
<polygon fill="midnightblue" stroke="midnightblue" points="759.15,-362.78 751.22,-355.76 753.04,-366.2 759.15,-362.78"/>
</g>
<!-- Node31&#45;&gt;Node21 -->
<g id="edge72" class="edge">
<title>Node31&#45;&gt;Node21</title>
<path fill="none" stroke="midnightblue" d="M888.66,-504.41C921.56,-478.24 1017.5,-395.4 1044.5,-300 1048.78,-284.87 1049.3,-266.97 1048.87,-253.79"/>
<polygon fill="midnightblue" stroke="midnightblue" points="1052.36,-253.41 1048.33,-243.61 1045.37,-253.78 1052.36,-253.41"/>
</g>
<!-- Node32 -->
<g id="node32" class="node">
<title>Node32</title>
<g id="a_node32"><a xlink:href="../../d4/dba/CRTP_8hpp.html" target="_top" xlink:title=" ">
<polygon fill="white" stroke="black" points="975.5,-448.5 975.5,-467.5 1109.5,-467.5 1109.5,-448.5 975.5,-448.5"/>
<text text-anchor="middle" x="1042.5" y="-455.5" font-family="Helvetica,sans-Serif" font-size="10.00">AH/Containers/CRTP.hpp</text>
</a>
</g>
</g>
<!-- Node31&#45;&gt;Node32 -->
<g id="edge61" class="edge">
<title>Node31&#45;&gt;Node32</title>
<path fill="none" stroke="midnightblue" d="M903.64,-504.44C931.52,-495.32 975.85,-480.81 1006.9,-470.65"/>
<polygon fill="midnightblue" stroke="midnightblue" points="1008.06,-473.95 1016.48,-467.52 1005.88,-467.3 1008.06,-473.95"/>
</g>
<!-- Node33 -->
<g id="node33" class="node">
<title>Node33</title>
<g id="a_node33"><a xlink:href="../../de/dd1/LinkedList_8hpp.html" target="_top" xlink:title=" ">
<polygon fill="white" stroke="black" points="621,-448.5 621,-467.5 780,-467.5 780,-448.5 621,-448.5"/>
<text text-anchor="middle" x="700.5" y="-455.5" font-family="Helvetica,sans-Serif" font-size="10.00">AH/Containers/LinkedList.hpp</text>
</a>
</g>
</g>
<!-- Node31&#45;&gt;Node33 -->
<g id="edge62" class="edge">
<title>Node31&#45;&gt;Node33</title>
<path fill="none" stroke="midnightblue" d="M849.45,-504.44C819.42,-495.28 771.59,-480.69 738.26,-470.52"/>
<polygon fill="midnightblue" stroke="midnightblue" points="739,-467.09 728.41,-467.52 736.96,-473.78 739,-467.09"/>
</g>
<!-- Node35 -->
<g id="node35" class="node">
<title>Node35</title>
<g id="a_node35"><a xlink:title=" ">
<polygon fill="white" stroke="#bfbfbf" points="836,-448.5 836,-467.5 919,-467.5 919,-448.5 836,-448.5"/>
<text text-anchor="middle" x="877.5" y="-455.5" font-family="Helvetica,sans-Serif" font-size="10.00">AH/STL/utility</text>
</a>
</g>
</g>
<!-- Node31&#45;&gt;Node35 -->
<g id="edge70" class="edge">
<title>Node31&#45;&gt;Node35</title>
<path fill="none" stroke="midnightblue" d="M877.5,-504.08C877.5,-497.01 877.5,-486.86 877.5,-477.99"/>
<polygon fill="midnightblue" stroke="midnightblue" points="881,-477.75 877.5,-467.75 874,-477.75 881,-477.75"/>
</g>
<!-- Node33&#45;&gt;Node2 -->
<g id="edge63" class="edge">
<title>Node33&#45;&gt;Node2</title>
<path fill="none" stroke="midnightblue" d="M746.18,-448.45C821.17,-432.19 970.99,-390.08 1060.5,-300 1100.73,-259.52 1103.5,-236.07 1103.5,-179 1103.5,-179 1103.5,-179 1103.5,-121 1103.5,-90.9 1107.09,-75.89 1084.5,-56 1055.26,-30.25 955.86,-19.16 883.1,-14.44"/>
<polygon fill="midnightblue" stroke="midnightblue" points="883.21,-10.94 873.02,-13.81 882.78,-17.92 883.21,-10.94"/>
</g>
<!-- Node33&#45;&gt;Node8 -->
<g id="edge64" class="edge">
<title>Node33&#45;&gt;Node8</title>
<path fill="none" stroke="midnightblue" d="M692.08,-448.08C684.65,-440.22 673.65,-428.57 664.69,-419.08"/>
<polygon fill="midnightblue" stroke="midnightblue" points="667.18,-416.62 657.76,-411.75 662.09,-421.42 667.18,-416.62"/>
</g>
<!-- Node33&#45;&gt;Node12 -->
<g id="edge65" class="edge">
<title>Node33&#45;&gt;Node12</title>
<path fill="none" stroke="midnightblue" d="M706.93,-448.41C715.82,-435.37 729.6,-410.19 718.5,-392 700.28,-362.14 670.77,-382.98 648.5,-356 629.34,-332.79 629.5,-321.1 629.5,-291 629.5,-291 629.5,-291 629.5,-233 629.5,-200.95 629.5,-163.64 629.5,-141.75"/>
<polygon fill="midnightblue" stroke="midnightblue" points="633,-141.56 629.5,-131.56 626,-141.56 633,-141.56"/>
</g>
<!-- Node33&#45;&gt;Node24 -->
<g id="edge67" class="edge">
<title>Node33&#45;&gt;Node24</title>
<path fill="none" stroke="midnightblue" d="M672.77,-448.44C643.07,-439.28 595.78,-424.69 562.83,-414.52"/>
<polygon fill="midnightblue" stroke="midnightblue" points="563.69,-411.12 553.1,-411.52 561.62,-417.81 563.69,-411.12"/>
</g>
<!-- Node33&#45;&gt;Node34 -->
<g id="edge66" class="edge">
<title>Node33&#45;&gt;Node34</title>
<path fill="none" stroke="midnightblue" d="M780.31,-449.82C857.23,-442.35 976.76,-429.33 1079.5,-412 1080.79,-411.78 1082.11,-411.55 1083.43,-411.31"/>
<polygon fill="midnightblue" stroke="midnightblue" points="1084.54,-414.66 1093.67,-409.28 1083.18,-407.79 1084.54,-414.66"/>
</g>
<!-- Node36&#45;&gt;Node2 -->
<g id="edge75" class="edge">
<title>Node36&#45;&gt;Node2</title>
<path fill="none" stroke="midnightblue" d="M129.5,-565.81C129.5,-546.56 129.5,-498.9 129.5,-459 129.5,-459 129.5,-459 129.5,-233 129.5,-149.65 125.33,-106.69 191.5,-56 232.48,-24.6 563.24,-14.94 719.85,-12.11"/>
<polygon fill="midnightblue" stroke="midnightblue" points="719.97,-15.61 729.91,-11.93 719.85,-8.61 719.97,-15.61"/>
</g>
<!-- Node36&#45;&gt;Node6 -->
<g id="edge76" class="edge">
<title>Node36&#45;&gt;Node6</title>
<path fill="none" stroke="midnightblue" d="M159.59,-565.98C196.39,-555.55 258.81,-537.86 299.59,-526.31"/>
<polygon fill="midnightblue" stroke="midnightblue" points="300.8,-529.6 309.47,-523.51 298.89,-522.87 300.8,-529.6"/>
</g>
<!-- Node36&#45;&gt;Node9 -->
<g id="edge78" class="edge">
<title>Node36&#45;&gt;Node9</title>
<path fill="none" stroke="midnightblue" d="M135.3,-565.8C160.42,-528.49 263.55,-379.41 372.5,-280 385.36,-268.27 401.48,-257.22 414.57,-249.01"/>
<polygon fill="midnightblue" stroke="midnightblue" points="416.77,-251.76 423.47,-243.56 413.11,-245.79 416.77,-251.76"/>
</g>
<!-- Node37 -->
<g id="node37" class="node">
<title>Node37</title>
<g id="a_node37"><a xlink:title=" ">
<polygon fill="white" stroke="#bfbfbf" points="0,-504.5 0,-523.5 101,-523.5 101,-504.5 0,-504.5"/>
<text text-anchor="middle" x="50.5" y="-511.5" font-family="Helvetica,sans-Serif" font-size="10.00">AH/STL/algorithm</text>
</a>
</g>
</g>
<!-- Node36&#45;&gt;Node37 -->
<g id="edge77" class="edge">
<title>Node36&#45;&gt;Node37</title>
<path fill="none" stroke="midnightblue" d="M118.18,-565.98C105.63,-556.52 85.15,-541.1 70,-529.69"/>
<polygon fill="midnightblue" stroke="midnightblue" points="71.89,-526.73 61.8,-523.51 67.68,-532.32 71.89,-526.73"/>
</g>
</g>
</svg>
