<?xml version="1.0" encoding="UTF-8" standalone="no"?>
<!DOCTYPE svg PUBLIC "-//W3C//DTD SVG 1.1//EN"
 "http://www.w3.org/Graphics/SVG/1.1/DTD/svg11.dtd">
<!-- Generated by graphviz version 2.38.0 (20140413.2041)
 -->
<!-- Title: TeensyUSBTypes.hpp Pages: 1 -->
<svg width="1466pt" height="588pt"
 viewBox="0.00 0.00 1465.50 588.00" xmlns="http://www.w3.org/2000/svg" xmlns:xlink="http://www.w3.org/1999/xlink">
<g id="graph0" class="graph" transform="scale(1 1) rotate(0) translate(4 584)">
<title>TeensyUSBTypes.hpp</title>
<polygon fill="white" stroke="none" points="-4,4 -4,-584 1461.5,-584 1461.5,4 -4,4"/>
<!-- Node1 -->
<g id="node1" class="node"><title>Node1</title>
<g id="a_node1"><a xlink:title=" ">
<polygon fill="#bfbfbf" stroke="black" points="564,-560.5 564,-579.5 680,-579.5 680,-560.5 564,-560.5"/>
<text text-anchor="middle" x="622" y="-567.5" font-family="Helvetica,sans-Serif" font-size="10.00">TeensyUSBTypes.hpp</text>
</a>
</g>
</g>
<!-- Node2 -->
<g id="node2" class="node"><title>Node2</title>
<g id="a_node2"><a xlink:href="../../d2/dd5/SettingsWrapper_8hpp.html" target="_top" xlink:title=" ">
<polygon fill="white" stroke="black" points="568,-504.5 568,-523.5 676,-523.5 676,-504.5 568,-504.5"/>
<text text-anchor="middle" x="622" y="-511.5" font-family="Helvetica,sans-Serif" font-size="10.00">SettingsWrapper.hpp</text>
</a>
</g>
</g>
<!-- Node1&#45;&gt;Node2 -->
<g id="edge1" class="edge"><title>Node1&#45;&gt;Node2</title>
<path fill="none" stroke="midnightblue" d="M622,-549.805C622,-540.91 622,-530.78 622,-523.751"/>
<polygon fill="midnightblue" stroke="midnightblue" points="618.5,-550.083 622,-560.083 625.5,-550.083 618.5,-550.083"/>
</g>
<!-- Node3 -->
<g id="node3" class="node"><title>Node3</title>
<g id="a_node3"><a xlink:href="../../d4/d93/Updatable_8hpp.html" target="_top" xlink:title=" ">
<polygon fill="white" stroke="black" points="548,-336.5 548,-355.5 628,-355.5 628,-336.5 548,-336.5"/>
<text text-anchor="middle" x="588" y="-343.5" font-family="Helvetica,sans-Serif" font-size="10.00">Updatable.hpp</text>
</a>
</g>
</g>
<!-- Node2&#45;&gt;Node3 -->
<g id="edge2" class="edge"><title>Node2&#45;&gt;Node3</title>
<path fill="none" stroke="midnightblue" d="M618.094,-493.93C610.719,-457.92 595.011,-381.231 589.755,-355.568"/>
<polygon fill="midnightblue" stroke="midnightblue" points="614.737,-494.981 620.172,-504.075 621.594,-493.576 614.737,-494.981"/>
</g>
<!-- Node4 -->
<g id="node4" class="node"><title>Node4</title>
<g id="a_node4"><a xlink:href="../../df/dee/Debug_8hpp.html" target="_top" xlink:title=" ">
<polygon fill="white" stroke="black" points="624,-448.5 624,-467.5 688,-467.5 688,-448.5 624,-448.5"/>
<text text-anchor="middle" x="656" y="-455.5" font-family="Helvetica,sans-Serif" font-size="10.00">Debug.hpp</text>
</a>
</g>
</g>
<!-- Node2&#45;&gt;Node4 -->
<g id="edge3" class="edge"><title>Node2&#45;&gt;Node4</title>
<path fill="none" stroke="midnightblue" d="M626.938,-494.983C631.983,-485.817 639.16,-475.092 645.359,-467.751"/>
<polygon fill="midnightblue" stroke="midnightblue" points="623.734,-493.566 622.448,-504.083 630.011,-496.664 623.734,-493.566"/>
</g>
<!-- Node8 -->
<g id="node8" class="node"><title>Node8</title>
<g id="a_node8"><a xlink:href="../../d4/db3/Button_8hpp.html" target="_top" xlink:title=" ">
<polygon fill="white" stroke="black" points="104,-112.5 104,-131.5 168,-131.5 168,-112.5 104,-112.5"/>
<text text-anchor="middle" x="136" y="-119.5" font-family="Helvetica,sans-Serif" font-size="10.00">Button.hpp</text>
</a>
</g>
</g>
<!-- Node2&#45;&gt;Node8 -->
<g id="edge70" class="edge"><title>Node2&#45;&gt;Node8</title>
<path fill="none" stroke="midnightblue" d="M557.551,-508.204C446.53,-498.155 231,-470.015 231,-403 231,-403 231,-403 231,-233 231,-185.057 178.67,-147.686 151.687,-131.604"/>
<polygon fill="midnightblue" stroke="midnightblue" points="557.364,-511.702 567.633,-509.093 557.979,-504.729 557.364,-511.702"/>
</g>
<!-- Node24 -->
<g id="node24" class="node"><title>Node24</title>
<g id="a_node24"><a xlink:href="../../d8/df3/FilteredAnalog_8hpp.html" target="_top" xlink:title=" ">
<polygon fill="white" stroke="black" points="328,-112.5 328,-131.5 426,-131.5 426,-112.5 328,-112.5"/>
<text text-anchor="middle" x="377" y="-119.5" font-family="Helvetica,sans-Serif" font-size="10.00">FilteredAnalog.hpp</text>
</a>
</g>
</g>
<!-- Node2&#45;&gt;Node24 -->
<g id="edge74" class="edge"><title>Node2&#45;&gt;Node24</title>
<path fill="none" stroke="midnightblue" d="M557.637,-512.441C480.931,-507.977 363,-487.39 363,-403 363,-403 363,-403 363,-233 363,-194.882 371.375,-149.925 375.17,-131.511"/>
<polygon fill="midnightblue" stroke="midnightblue" points="557.541,-515.941 567.705,-512.95 557.894,-508.95 557.541,-515.941"/>
</g>
<!-- Node45 -->
<g id="node45" class="node"><title>Node45</title>
<g id="a_node45"><a xlink:href="../../d1/d1f/ShiftRegisterOutRGB_8hpp.html" target="_top" xlink:title=" ">
<polygon fill="white" stroke="black" points="1155,-448.5 1155,-467.5 1285,-467.5 1285,-448.5 1155,-448.5"/>
<text text-anchor="middle" x="1220" y="-455.5" font-family="Helvetica,sans-Serif" font-size="10.00">ShiftRegisterOutRGB.hpp</text>
</a>
</g>
</g>
<!-- Node2&#45;&gt;Node45 -->
<g id="edge71" class="edge"><title>Node2&#45;&gt;Node45</title>
<path fill="none" stroke="midnightblue" d="M686.154,-507.207C800.757,-496.858 1039.43,-475.305 1154.79,-464.888"/>
<polygon fill="midnightblue" stroke="midnightblue" points="685.768,-503.727 676.123,-508.113 686.397,-510.699 685.768,-503.727"/>
</g>
<!-- Node4&#45;&gt;Node2 -->
<g id="edge69" class="edge"><title>Node4&#45;&gt;Node2</title>
<path fill="none" stroke="midnightblue" d="M651.175,-476.811C646.163,-485.953 638.994,-496.691 632.781,-504.083"/>
<polygon fill="midnightblue" stroke="midnightblue" points="654.358,-478.27 655.621,-467.751 648.074,-475.187 654.358,-478.27"/>
</g>
<!-- Node5 -->
<g id="node5" class="node"><title>Node5</title>
<g id="a_node5"><a xlink:href="../../de/dd1/LinkedList_8hpp.html" target="_top" xlink:title=" ">
<polygon fill="white" stroke="black" points="616,-392.5 616,-411.5 696,-411.5 696,-392.5 616,-392.5"/>
<text text-anchor="middle" x="656" y="-399.5" font-family="Helvetica,sans-Serif" font-size="10.00">LinkedList.hpp</text>
</a>
</g>
</g>
<!-- Node4&#45;&gt;Node5 -->
<g id="edge4" class="edge"><title>Node4&#45;&gt;Node5</title>
<path fill="none" stroke="midnightblue" d="M656,-437.805C656,-428.91 656,-418.78 656,-411.751"/>
<polygon fill="midnightblue" stroke="midnightblue" points="652.5,-438.083 656,-448.083 659.5,-438.083 652.5,-438.083"/>
</g>
<!-- Node32 -->
<g id="node32" class="node"><title>Node32</title>
<g id="a_node32"><a xlink:href="../../df/d66/Debug_8cpp.html" target="_top" xlink:title=" ">
<polygon fill="white" stroke="black" points="714,-392.5 714,-411.5 778,-411.5 778,-392.5 714,-392.5"/>
<text text-anchor="middle" x="746" y="-399.5" font-family="Helvetica,sans-Serif" font-size="10.00">Debug.cpp</text>
</a>
</g>
</g>
<!-- Node4&#45;&gt;Node32 -->
<g id="edge42" class="edge"><title>Node4&#45;&gt;Node32</title>
<path fill="none" stroke="midnightblue" d="M679.038,-443.177C695.599,-433.241 717.418,-420.149 731.576,-411.655"/>
<polygon fill="midnightblue" stroke="midnightblue" points="677.234,-440.178 670.46,-448.324 680.836,-446.18 677.234,-440.178"/>
</g>
<!-- Node33 -->
<g id="node33" class="node"><title>Node33</title>
<g id="a_node33"><a xlink:href="../../d1/d93/Error_8hpp.html" target="_top" xlink:title=" ">
<polygon fill="white" stroke="black" points="972,-392.5 972,-411.5 1028,-411.5 1028,-392.5 972,-392.5"/>
<text text-anchor="middle" x="1000" y="-399.5" font-family="Helvetica,sans-Serif" font-size="10.00">Error.hpp</text>
</a>
</g>
</g>
<!-- Node4&#45;&gt;Node33 -->
<g id="edge43" class="edge"><title>Node4&#45;&gt;Node33</title>
<path fill="none" stroke="midnightblue" d="M698.012,-450.405C769.127,-439.242 911.376,-416.912 971.803,-407.426"/>
<polygon fill="midnightblue" stroke="midnightblue" points="697.39,-446.96 688.054,-451.968 698.476,-453.875 697.39,-446.96"/>
</g>
<!-- Node5&#45;&gt;Node3 -->
<g id="edge5" class="edge"><title>Node5&#45;&gt;Node3</title>
<path fill="none" stroke="midnightblue" d="M637.238,-386.101C625,-376.382 609.441,-364.027 599.124,-355.834"/>
<polygon fill="midnightblue" stroke="midnightblue" points="635.067,-388.846 645.075,-392.324 639.42,-383.364 635.067,-388.846"/>
</g>
<!-- Node6 -->
<g id="node6" class="node"><title>Node6</title>
<g id="a_node6"><a xlink:href="../../d4/d57/ExtendedIOElement_8hpp.html" target="_top" xlink:title=" ">
<polygon fill="white" stroke="black" points="828.5,-224.5 828.5,-243.5 951.5,-243.5 951.5,-224.5 828.5,-224.5"/>
<text text-anchor="middle" x="890" y="-231.5" font-family="Helvetica,sans-Serif" font-size="10.00">ExtendedIOElement.hpp</text>
</a>
</g>
</g>
<!-- Node5&#45;&gt;Node6 -->
<g id="edge6" class="edge"><title>Node5&#45;&gt;Node6</title>
<path fill="none" stroke="midnightblue" d="M692.501,-389.157C749.347,-369.975 855.016,-331.122 879,-300 891.855,-283.319 891.913,-257.038 890.93,-243.574"/>
<polygon fill="midnightblue" stroke="midnightblue" points="691.192,-385.904 682.817,-392.393 693.411,-392.543 691.192,-385.904"/>
</g>
<!-- Node7 -->
<g id="node7" class="node"><title>Node7</title>
<g id="a_node7"><a xlink:href="../../dd/ddf/ExtendedInputOutput_8hpp.html" target="_top" xlink:title=" ">
<polygon fill="white" stroke="black" points="569,-168.5 569,-187.5 697,-187.5 697,-168.5 569,-168.5"/>
<text text-anchor="middle" x="633" y="-175.5" font-family="Helvetica,sans-Serif" font-size="10.00">ExtendedInputOutput.hpp</text>
</a>
</g>
</g>
<!-- Node6&#45;&gt;Node7 -->
<g id="edge7" class="edge"><title>Node6&#45;&gt;Node7</title>
<path fill="none" stroke="midnightblue" d="M839.293,-222.346C790.724,-212.141 718.381,-196.94 673.532,-187.516"/>
<polygon fill="midnightblue" stroke="midnightblue" points="838.772,-225.812 849.278,-224.444 840.211,-218.962 838.772,-225.812"/>
</g>
<!-- Node17 -->
<g id="node17" class="node"><title>Node17</title>
<g id="a_node17"><a xlink:href="../../d6/d3c/ExtendedInputOutput_8cpp.html" target="_top" xlink:title=" ">
<polygon fill="white" stroke="black" points="1026,-112.5 1026,-131.5 1154,-131.5 1154,-112.5 1026,-112.5"/>
<text text-anchor="middle" x="1090" y="-119.5" font-family="Helvetica,sans-Serif" font-size="10.00">ExtendedInputOutput.cpp</text>
</a>
</g>
</g>
<!-- Node6&#45;&gt;Node17 -->
<g id="edge40" class="edge"><title>Node6&#45;&gt;Node17</title>
<path fill="none" stroke="midnightblue" d="M905.725,-217.085C920.664,-202.684 944.306,-181.694 968,-168 996.635,-151.45 1032.45,-139.105 1057.85,-131.572"/>
<polygon fill="midnightblue" stroke="midnightblue" points="903.047,-214.809 898.375,-224.319 907.957,-219.798 903.047,-214.809"/>
</g>
<!-- Node30 -->
<g id="node30" class="node"><title>Node30</title>
<g id="a_node30"><a xlink:href="../../d2/d05/StaticSizeExtendedIOElement_8hpp.html" target="_top" xlink:title=" ">
<polygon fill="white" stroke="black" points="753,-168.5 753,-187.5 921,-187.5 921,-168.5 753,-168.5"/>
<text text-anchor="middle" x="837" y="-175.5" font-family="Helvetica,sans-Serif" font-size="10.00">StaticSizeExtendedIOElement.hpp</text>
</a>
</g>
</g>
<!-- Node6&#45;&gt;Node30 -->
<g id="edge36" class="edge"><title>Node6&#45;&gt;Node30</title>
<path fill="none" stroke="midnightblue" d="M874.019,-216.718C864.678,-207.2 853.254,-195.561 845.589,-187.751"/>
<polygon fill="midnightblue" stroke="midnightblue" points="871.746,-219.398 881.248,-224.083 876.741,-214.494 871.746,-219.398"/>
</g>
<!-- Node31 -->
<g id="node31" class="node"><title>Node31</title>
<g id="a_node31"><a xlink:href="../../da/d1f/ExtendedIOElement_8cpp.html" target="_top" xlink:title=" ">
<polygon fill="white" stroke="black" points="977.5,-168.5 977.5,-187.5 1100.5,-187.5 1100.5,-168.5 977.5,-168.5"/>
<text text-anchor="middle" x="1039" y="-175.5" font-family="Helvetica,sans-Serif" font-size="10.00">ExtendedIOElement.cpp</text>
</a>
</g>
</g>
<!-- Node6&#45;&gt;Node31 -->
<g id="edge41" class="edge"><title>Node6&#45;&gt;Node31</title>
<path fill="none" stroke="midnightblue" d="M923.371,-220.906C951.384,-210.754 990.696,-196.506 1015.5,-187.516"/>
<polygon fill="midnightblue" stroke="midnightblue" points="921.819,-217.746 913.609,-224.444 924.204,-224.327 921.819,-217.746"/>
</g>
<!-- Node7&#45;&gt;Node8 -->
<g id="edge8" class="edge"><title>Node7&#45;&gt;Node8</title>
<path fill="none" stroke="midnightblue" d="M558.718,-172.367C468.181,-166.1 310.719,-153.199 177,-132 174.121,-131.544 171.141,-131.01 168.161,-130.435"/>
<polygon fill="midnightblue" stroke="midnightblue" points="558.666,-175.872 568.882,-173.062 559.144,-168.888 558.666,-175.872"/>
</g>
<!-- Node14 -->
<g id="node14" class="node"><title>Node14</title>
<g id="a_node14"><a xlink:href="../../d5/d41/ButtonMatrix_8ipp.html" target="_top" xlink:title=" ">
<polygon fill="white" stroke="black" points="444,-112.5 444,-131.5 532,-131.5 532,-112.5 444,-112.5"/>
<text text-anchor="middle" x="488" y="-119.5" font-family="Helvetica,sans-Serif" font-size="10.00">ButtonMatrix.ipp</text>
</a>
</g>
</g>
<!-- Node7&#45;&gt;Node14 -->
<g id="edge14" class="edge"><title>Node7&#45;&gt;Node14</title>
<path fill="none" stroke="midnightblue" d="M600.525,-164.906C573.264,-154.754 535.008,-140.506 510.868,-131.516"/>
<polygon fill="midnightblue" stroke="midnightblue" points="599.432,-168.233 610.024,-168.444 601.875,-161.674 599.432,-168.233"/>
</g>
<!-- Node16 -->
<g id="node16" class="node"><title>Node16</title>
<g id="a_node16"><a xlink:href="../../d7/def/AnalogMultiplex_8hpp.html" target="_top" xlink:title=" ">
<polygon fill="white" stroke="black" points="828,-112.5 828,-131.5 932,-131.5 932,-112.5 828,-112.5"/>
<text text-anchor="middle" x="880" y="-119.5" font-family="Helvetica,sans-Serif" font-size="10.00">AnalogMultiplex.hpp</text>
</a>
</g>
</g>
<!-- Node7&#45;&gt;Node16 -->
<g id="edge17" class="edge"><title>Node7&#45;&gt;Node16</title>
<path fill="none" stroke="midnightblue" d="M682.027,-166.281C728.704,-156.077 798.031,-140.92 841.045,-131.516"/>
<polygon fill="midnightblue" stroke="midnightblue" points="681.16,-162.888 672.138,-168.444 682.655,-169.727 681.16,-162.888"/>
</g>
<!-- Node7&#45;&gt;Node17 -->
<g id="edge18" class="edge"><title>Node7&#45;&gt;Node17</title>
<path fill="none" stroke="midnightblue" d="M706.979,-168.259C795.364,-157.815 941.787,-140.513 1025.67,-130.601"/>
<polygon fill="midnightblue" stroke="midnightblue" points="706.545,-164.785 697.025,-169.435 707.367,-171.737 706.545,-164.785"/>
</g>
<!-- Node18 -->
<g id="node18" class="node"><title>Node18</title>
<g id="a_node18"><a xlink:href="../../d5/d47/ShiftRegisterOutBase_8ipp.html" target="_top" xlink:title=" ">
<polygon fill="white" stroke="black" points="1022,-56.5 1022,-75.5 1150,-75.5 1150,-56.5 1022,-56.5"/>
<text text-anchor="middle" x="1086" y="-63.5" font-family="Helvetica,sans-Serif" font-size="10.00">ShiftRegisterOutBase.ipp</text>
</a>
</g>
</g>
<!-- Node7&#45;&gt;Node18 -->
<g id="edge19" class="edge"><title>Node7&#45;&gt;Node18</title>
<path fill="none" stroke="midnightblue" d="M677.433,-165.856C707.23,-157.811 747.076,-145.938 781,-132 798.653,-124.747 800.918,-118.107 819,-112 855.575,-99.6465 955.128,-84.6207 1021.79,-75.437"/>
<polygon fill="midnightblue" stroke="midnightblue" points="676.501,-162.482 667.737,-168.435 678.3,-169.247 676.501,-162.482"/>
</g>
<!-- Node21 -->
<g id="node21" class="node"><title>Node21</title>
<g id="a_node21"><a xlink:href="../../de/d95/ShiftRegisterOut_8ipp.html" target="_top" xlink:title=" ">
<polygon fill="white" stroke="black" points="1169.5,-0.5 1169.5,-19.5 1274.5,-19.5 1274.5,-0.5 1169.5,-0.5"/>
<text text-anchor="middle" x="1222" y="-7.5" font-family="Helvetica,sans-Serif" font-size="10.00">ShiftRegisterOut.ipp</text>
</a>
</g>
</g>
<!-- Node7&#45;&gt;Node21 -->
<g id="edge28" class="edge"><title>Node7&#45;&gt;Node21</title>
<path fill="none" stroke="midnightblue" d="M607.823,-163C596.812,-155.401 585.045,-144.906 579,-132 564.673,-101.411 555.964,-80.7042 579,-56 618.923,-13.1852 1023.18,-10.2974 1169.5,-10.6705"/>
<polygon fill="midnightblue" stroke="midnightblue" points="606.057,-166.025 616.367,-168.464 609.828,-160.128 606.057,-166.025"/>
</g>
<!-- Node23 -->
<g id="node23" class="node"><title>Node23</title>
<g id="a_node23"><a xlink:href="../../da/d45/SPIShiftRegisterOut_8ipp.html" target="_top" xlink:title=" ">
<polygon fill="white" stroke="black" points="1334,-0.5 1334,-19.5 1456,-19.5 1456,-0.5 1334,-0.5"/>
<text text-anchor="middle" x="1395" y="-7.5" font-family="Helvetica,sans-Serif" font-size="10.00">SPIShiftRegisterOut.ipp</text>
</a>
</g>
</g>
<!-- Node7&#45;&gt;Node23 -->
<g id="edge29" class="edge"><title>Node7&#45;&gt;Node23</title>
<path fill="none" stroke="midnightblue" d="M707.253,-168.524C769.891,-160.809 861.751,-148.164 941,-132 975.223,-125.02 982.737,-118.782 1017,-112 1134.89,-88.6627 1171.45,-115.355 1285,-76 1295.22,-72.4589 1353.69,-36.5984 1380.98,-19.7097"/>
<polygon fill="midnightblue" stroke="midnightblue" points="706.573,-165.081 697.07,-169.767 707.421,-172.03 706.573,-165.081"/>
</g>
<!-- Node7&#45;&gt;Node24 -->
<g id="edge30" class="edge"><title>Node7&#45;&gt;Node24</title>
<path fill="none" stroke="midnightblue" d="M582.49,-166.346C534.111,-156.141 462.049,-140.94 417.374,-131.516"/>
<polygon fill="midnightblue" stroke="midnightblue" points="581.929,-169.804 592.436,-168.444 583.374,-162.955 581.929,-169.804"/>
</g>
<!-- Node25 -->
<g id="node25" class="node"><title>Node25</title>
<g id="a_node25"><a xlink:href="../../d9/d4f/LEDs_8hpp.html" target="_top" xlink:title=" ">
<polygon fill="white" stroke="black" points="588,-112.5 588,-131.5 648,-131.5 648,-112.5 588,-112.5"/>
<text text-anchor="middle" x="618" y="-119.5" font-family="Helvetica,sans-Serif" font-size="10.00">LEDs.hpp</text>
</a>
</g>
</g>
<!-- Node7&#45;&gt;Node25 -->
<g id="edge31" class="edge"><title>Node7&#45;&gt;Node25</title>
<path fill="none" stroke="midnightblue" d="M627.832,-158.396C625.323,-149.362 622.427,-138.936 620.431,-131.751"/>
<polygon fill="midnightblue" stroke="midnightblue" points="624.474,-159.385 630.523,-168.083 631.219,-157.511 624.474,-159.385"/>
</g>
<!-- Node27 -->
<g id="node27" class="node"><title>Node27</title>
<g id="a_node27"><a xlink:href="../../d7/d13/MAX7219__Base_8hpp.html" target="_top" xlink:title=" ">
<polygon fill="white" stroke="black" points="666,-112.5 666,-131.5 772,-131.5 772,-112.5 666,-112.5"/>
<text text-anchor="middle" x="719" y="-119.5" font-family="Helvetica,sans-Serif" font-size="10.00">MAX7219_Base.hpp</text>
</a>
</g>
</g>
<!-- Node7&#45;&gt;Node27 -->
<g id="edge33" class="edge"><title>Node7&#45;&gt;Node27</title>
<path fill="none" stroke="midnightblue" d="M655.455,-162.901C671.224,-152.999 691.814,-140.071 705.217,-131.655"/>
<polygon fill="midnightblue" stroke="midnightblue" points="653.425,-160.042 646.817,-168.324 657.148,-165.97 653.425,-160.042"/>
</g>
<!-- Node9 -->
<g id="node9" class="node"><title>Node9</title>
<g id="a_node9"><a xlink:href="../../de/dd1/Button_8cpp.html" target="_top" xlink:title=" ">
<polygon fill="white" stroke="black" points="0,-56.5 0,-75.5 64,-75.5 64,-56.5 0,-56.5"/>
<text text-anchor="middle" x="32" y="-63.5" font-family="Helvetica,sans-Serif" font-size="10.00">Button.cpp</text>
</a>
</g>
</g>
<!-- Node8&#45;&gt;Node9 -->
<g id="edge9" class="edge"><title>Node8&#45;&gt;Node9</title>
<path fill="none" stroke="midnightblue" d="M110.172,-107.59C90.9433,-97.6052 65.2553,-84.2672 48.6679,-75.6545"/>
<polygon fill="midnightblue" stroke="midnightblue" points="108.803,-110.822 119.291,-112.324 112.029,-104.61 108.803,-110.822"/>
</g>
<!-- Node10 -->
<g id="node10" class="node"><title>Node10</title>
<g id="a_node10"><a xlink:href="../../d5/d04/IncrementButton_8hpp.html" target="_top" xlink:title=" ">
<polygon fill="white" stroke="black" points="82.5,-56.5 82.5,-75.5 189.5,-75.5 189.5,-56.5 82.5,-56.5"/>
<text text-anchor="middle" x="136" y="-63.5" font-family="Helvetica,sans-Serif" font-size="10.00">IncrementButton.hpp</text>
</a>
</g>
</g>
<!-- Node8&#45;&gt;Node10 -->
<g id="edge10" class="edge"><title>Node8&#45;&gt;Node10</title>
<path fill="none" stroke="midnightblue" d="M136,-101.805C136,-92.9102 136,-82.7798 136,-75.7511"/>
<polygon fill="midnightblue" stroke="midnightblue" points="132.5,-102.083 136,-112.083 139.5,-102.083 132.5,-102.083"/>
</g>
<!-- Node12 -->
<g id="node12" class="node"><title>Node12</title>
<g id="a_node12"><a xlink:href="../../df/df5/IncrementDecrementButtons_8hpp.html" target="_top" xlink:title=" ">
<polygon fill="white" stroke="black" points="207.5,-56.5 207.5,-75.5 368.5,-75.5 368.5,-56.5 207.5,-56.5"/>
<text text-anchor="middle" x="288" y="-63.5" font-family="Helvetica,sans-Serif" font-size="10.00">IncrementDecrementButtons.hpp</text>
</a>
</g>
</g>
<!-- Node8&#45;&gt;Node12 -->
<g id="edge12" class="edge"><title>Node8&#45;&gt;Node12</title>
<path fill="none" stroke="midnightblue" d="M169.668,-109.039C198.268,-98.8786 238.612,-84.5457 264.028,-75.5164"/>
<polygon fill="midnightblue" stroke="midnightblue" points="168.336,-105.798 160.085,-112.444 170.68,-112.394 168.336,-105.798"/>
</g>
<!-- Node11 -->
<g id="node11" class="node"><title>Node11</title>
<g id="a_node11"><a xlink:href="../../db/d9d/IncrementButton_8cpp.html" target="_top" xlink:title=" ">
<polygon fill="white" stroke="black" points="82.5,-0.5 82.5,-19.5 189.5,-19.5 189.5,-0.5 82.5,-0.5"/>
<text text-anchor="middle" x="136" y="-7.5" font-family="Helvetica,sans-Serif" font-size="10.00">IncrementButton.cpp</text>
</a>
</g>
</g>
<!-- Node10&#45;&gt;Node11 -->
<g id="edge11" class="edge"><title>Node10&#45;&gt;Node11</title>
<path fill="none" stroke="midnightblue" d="M136,-45.8045C136,-36.9102 136,-26.7798 136,-19.7511"/>
<polygon fill="midnightblue" stroke="midnightblue" points="132.5,-46.083 136,-56.083 139.5,-46.083 132.5,-46.083"/>
</g>
<!-- Node13 -->
<g id="node13" class="node"><title>Node13</title>
<g id="a_node13"><a xlink:href="../../da/d66/IncrementDecrementButtons_8cpp.html" target="_top" xlink:title=" ">
<polygon fill="white" stroke="black" points="207.5,-0.5 207.5,-19.5 368.5,-19.5 368.5,-0.5 207.5,-0.5"/>
<text text-anchor="middle" x="288" y="-7.5" font-family="Helvetica,sans-Serif" font-size="10.00">IncrementDecrementButtons.cpp</text>
</a>
</g>
</g>
<!-- Node12&#45;&gt;Node13 -->
<g id="edge13" class="edge"><title>Node12&#45;&gt;Node13</title>
<path fill="none" stroke="midnightblue" d="M288,-45.8045C288,-36.9102 288,-26.7798 288,-19.7511"/>
<polygon fill="midnightblue" stroke="midnightblue" points="284.5,-46.083 288,-56.083 291.5,-46.083 284.5,-46.083"/>
</g>
<!-- Node15 -->
<g id="node15" class="node"><title>Node15</title>
<g id="a_node15"><a xlink:href="../../d9/d4b/ButtonMatrix_8hpp.html" target="_top" xlink:title=" ">
<polygon fill="white" stroke="black" points="440.5,-56.5 440.5,-75.5 531.5,-75.5 531.5,-56.5 440.5,-56.5"/>
<text text-anchor="middle" x="486" y="-63.5" font-family="Helvetica,sans-Serif" font-size="10.00">ButtonMatrix.hpp</text>
</a>
</g>
</g>
<!-- Node14&#45;&gt;Node15 -->
<g id="edge15" class="edge"><title>Node14&#45;&gt;Node15</title>
<path fill="none" stroke="midnightblue" d="M480.828,-102.101C479.864,-93.1357 479.93,-82.8579 481.193,-75.7511"/>
<polygon fill="midnightblue" stroke="midnightblue" points="477.396,-102.8 482.503,-112.083 484.299,-101.642 477.396,-102.8"/>
</g>
<!-- Node15&#45;&gt;Node14 -->
<g id="edge16" class="edge"><title>Node15&#45;&gt;Node14</title>
<path fill="none" stroke="midnightblue" d="M493.15,-85.6911C494.13,-94.6353 494.081,-104.927 492.836,-112.083"/>
<polygon fill="midnightblue" stroke="midnightblue" points="496.586,-85.0206 491.455,-75.7511 489.686,-86.1971 496.586,-85.0206"/>
</g>
<!-- Node19 -->
<g id="node19" class="node"><title>Node19</title>
<g id="a_node19"><a xlink:href="../../d8/d93/ShiftRegisterOutBase_8hpp.html" target="_top" xlink:title=" ">
<polygon fill="white" stroke="black" points="1248.5,-112.5 1248.5,-131.5 1379.5,-131.5 1379.5,-112.5 1248.5,-112.5"/>
<text text-anchor="middle" x="1314" y="-119.5" font-family="Helvetica,sans-Serif" font-size="10.00">ShiftRegisterOutBase.hpp</text>
</a>
</g>
</g>
<!-- Node18&#45;&gt;Node19 -->
<g id="edge20" class="edge"><title>Node18&#45;&gt;Node19</title>
<path fill="none" stroke="midnightblue" d="M1136.86,-77.7393C1181.66,-87.9291 1245.33,-103.043 1282.96,-112.444"/>
<polygon fill="midnightblue" stroke="midnightblue" points="1137.56,-74.3103 1127.04,-75.5164 1136.02,-81.1376 1137.56,-74.3103"/>
</g>
<!-- Node19&#45;&gt;Node18 -->
<g id="edge24" class="edge"><title>Node19&#45;&gt;Node18</title>
<path fill="none" stroke="midnightblue" d="M1262.95,-110.217C1218.09,-100.013 1154.43,-84.9006 1116.88,-75.5164"/>
<polygon fill="midnightblue" stroke="midnightblue" points="1262.26,-113.649 1272.78,-112.444 1263.8,-106.822 1262.26,-113.649"/>
</g>
<!-- Node20 -->
<g id="node20" class="node"><title>Node20</title>
<g id="a_node20"><a xlink:href="../../d0/db4/ShiftRegisterOut_8hpp.html" target="_top" xlink:title=" ">
<polygon fill="white" stroke="black" points="1168,-56.5 1168,-75.5 1276,-75.5 1276,-56.5 1168,-56.5"/>
<text text-anchor="middle" x="1222" y="-63.5" font-family="Helvetica,sans-Serif" font-size="10.00">ShiftRegisterOut.hpp</text>
</a>
</g>
</g>
<!-- Node19&#45;&gt;Node20 -->
<g id="edge21" class="edge"><title>Node19&#45;&gt;Node20</title>
<path fill="none" stroke="midnightblue" d="M1290.45,-107.177C1273.52,-97.2407 1251.22,-84.1492 1236.74,-75.6545"/>
<polygon fill="midnightblue" stroke="midnightblue" points="1288.82,-110.28 1299.22,-112.324 1292.37,-104.243 1288.82,-110.28"/>
</g>
<!-- Node22 -->
<g id="node22" class="node"><title>Node22</title>
<g id="a_node22"><a xlink:href="../../d7/d88/SPIShiftRegisterOut_8hpp.html" target="_top" xlink:title=" ">
<polygon fill="white" stroke="black" points="1332.5,-56.5 1332.5,-75.5 1457.5,-75.5 1457.5,-56.5 1332.5,-56.5"/>
<text text-anchor="middle" x="1395" y="-63.5" font-family="Helvetica,sans-Serif" font-size="10.00">SPIShiftRegisterOut.hpp</text>
</a>
</g>
</g>
<!-- Node19&#45;&gt;Node22 -->
<g id="edge25" class="edge"><title>Node19&#45;&gt;Node22</title>
<path fill="none" stroke="midnightblue" d="M1335.57,-106.622C1350.36,-96.7574 1369.51,-83.9919 1382.02,-75.6545"/>
<polygon fill="midnightblue" stroke="midnightblue" points="1333.39,-103.865 1327.01,-112.324 1337.28,-109.689 1333.39,-103.865"/>
</g>
<!-- Node20&#45;&gt;Node21 -->
<g id="edge22" class="edge"><title>Node20&#45;&gt;Node21</title>
<path fill="none" stroke="midnightblue" d="M1215.53,-46.1005C1214.9,-37.1357 1215.34,-26.8579 1216.87,-19.7511"/>
<polygon fill="midnightblue" stroke="midnightblue" points="1212.07,-46.6216 1216.83,-56.083 1219.01,-45.7134 1212.07,-46.6216"/>
</g>
<!-- Node21&#45;&gt;Node20 -->
<g id="edge23" class="edge"><title>Node21&#45;&gt;Node20</title>
<path fill="none" stroke="midnightblue" d="M1228.46,-29.6911C1229.11,-38.6353 1228.68,-48.9272 1227.17,-56.083"/>
<polygon fill="midnightblue" stroke="midnightblue" points="1231.92,-29.2002 1227.13,-19.7511 1224.98,-30.1262 1231.92,-29.2002"/>
</g>
<!-- Node22&#45;&gt;Node23 -->
<g id="edge26" class="edge"><title>Node22&#45;&gt;Node23</title>
<path fill="none" stroke="midnightblue" d="M1388.53,-46.1005C1387.9,-37.1357 1388.34,-26.8579 1389.87,-19.7511"/>
<polygon fill="midnightblue" stroke="midnightblue" points="1385.07,-46.6216 1389.83,-56.083 1392.01,-45.7134 1385.07,-46.6216"/>
</g>
<!-- Node23&#45;&gt;Node22 -->
<g id="edge27" class="edge"><title>Node23&#45;&gt;Node22</title>
<path fill="none" stroke="midnightblue" d="M1401.46,-29.6911C1402.11,-38.6353 1401.68,-48.9272 1400.17,-56.083"/>
<polygon fill="midnightblue" stroke="midnightblue" points="1404.92,-29.2002 1400.13,-19.7511 1397.98,-30.1262 1404.92,-29.2002"/>
</g>
<!-- Node26 -->
<g id="node26" class="node"><title>Node26</title>
<g id="a_node26"><a xlink:href="../../d6/d3a/DotBarDisplayLEDs_8hpp.html" target="_top" xlink:title=" ">
<polygon fill="white" stroke="black" points="588,-56.5 588,-75.5 712,-75.5 712,-56.5 588,-56.5"/>
<text text-anchor="middle" x="650" y="-63.5" font-family="Helvetica,sans-Serif" font-size="10.00">DotBarDisplayLEDs.hpp</text>
</a>
</g>
</g>
<!-- Node25&#45;&gt;Node26 -->
<g id="edge32" class="edge"><title>Node25&#45;&gt;Node26</title>
<path fill="none" stroke="midnightblue" d="M628.504,-103.275C633.973,-94.0454 640.418,-83.1703 644.814,-75.7511"/>
<polygon fill="midnightblue" stroke="midnightblue" points="625.371,-101.696 623.284,-112.083 631.393,-105.264 625.371,-101.696"/>
</g>
<!-- Node28 -->
<g id="node28" class="node"><title>Node28</title>
<g id="a_node28"><a xlink:href="../../d2/d25/MAX7219_8hpp.html" target="_top" xlink:title=" ">
<polygon fill="white" stroke="black" points="926,-56.5 926,-75.5 1004,-75.5 1004,-56.5 926,-56.5"/>
<text text-anchor="middle" x="965" y="-63.5" font-family="Helvetica,sans-Serif" font-size="10.00">MAX7219.hpp</text>
</a>
</g>
</g>
<!-- Node27&#45;&gt;Node28 -->
<g id="edge34" class="edge"><title>Node27&#45;&gt;Node28</title>
<path fill="none" stroke="midnightblue" d="M767.829,-110.281C814.316,-100.077 883.363,-84.9203 926.203,-75.5164"/>
<polygon fill="midnightblue" stroke="midnightblue" points="766.996,-106.881 757.979,-112.444 768.497,-113.718 766.996,-106.881"/>
</g>
<!-- Node29 -->
<g id="node29" class="node"><title>Node29</title>
<g id="a_node29"><a xlink:href="../../d5/d0c/MAX7219SevenSegmentDisplay_8hpp.html" target="_top" xlink:title=" ">
<polygon fill="white" stroke="black" points="730,-56.5 730,-75.5 908,-75.5 908,-56.5 730,-56.5"/>
<text text-anchor="middle" x="819" y="-63.5" font-family="Helvetica,sans-Serif" font-size="10.00">MAX7219SevenSegmentDisplay.hpp</text>
</a>
</g>
</g>
<!-- Node27&#45;&gt;Node29 -->
<g id="edge35" class="edge"><title>Node27&#45;&gt;Node29</title>
<path fill="none" stroke="midnightblue" d="M744.088,-107.453C762.549,-97.4835 787.097,-84.2279 802.973,-75.6545"/>
<polygon fill="midnightblue" stroke="midnightblue" points="742.203,-104.493 735.067,-112.324 745.529,-110.652 742.203,-104.493"/>
</g>
<!-- Node30&#45;&gt;Node16 -->
<g id="edge37" class="edge"><title>Node30&#45;&gt;Node16</title>
<path fill="none" stroke="midnightblue" d="M850.422,-160.144C857.914,-150.736 866.937,-139.405 873.032,-131.751"/>
<polygon fill="midnightblue" stroke="midnightblue" points="847.592,-158.08 844.101,-168.083 853.068,-162.44 847.592,-158.08"/>
</g>
<!-- Node30&#45;&gt;Node19 -->
<g id="edge39" class="edge"><title>Node30&#45;&gt;Node19</title>
<path fill="none" stroke="midnightblue" d="M922.307,-167.343C1015.71,-156.768 1163.46,-140.042 1248.28,-130.439"/>
<polygon fill="midnightblue" stroke="midnightblue" points="921.862,-163.871 912.319,-168.473 922.649,-170.826 921.862,-163.871"/>
</g>
<!-- Node30&#45;&gt;Node28 -->
<g id="edge38" class="edge"><title>Node30&#45;&gt;Node28</title>
<path fill="none" stroke="midnightblue" d="M884.963,-165.266C904.524,-158.383 926.016,-147.827 941,-132 956.218,-115.927 961.958,-89.3798 963.984,-75.7184"/>
<polygon fill="midnightblue" stroke="midnightblue" points="883.668,-162.007 875.255,-168.448 885.848,-168.659 883.668,-162.007"/>
</g>
<!-- Node33&#45;&gt;Node3 -->
<g id="edge65" class="edge"><title>Node33&#45;&gt;Node3</title>
<path fill="none" stroke="midnightblue" d="M961.69,-396.994C895.374,-389.894 754.966,-374.13 637,-356 634.093,-355.553 631.095,-355.066 628.079,-354.558"/>
<polygon fill="midnightblue" stroke="midnightblue" points="961.367,-400.479 971.682,-398.058 962.109,-393.519 961.367,-400.479"/>
</g>
<!-- Node33&#45;&gt;Node17 -->
<g id="edge67" class="edge"><title>Node33&#45;&gt;Node17</title>
<path fill="none" stroke="midnightblue" d="M1034.77,-388.672C1072.98,-372.635 1129,-340.654 1129,-291 1129,-291 1129,-291 1129,-233 1129,-193.287 1106.14,-149.904 1095.42,-131.75"/>
<polygon fill="midnightblue" stroke="midnightblue" points="1033.46,-385.428 1025.49,-392.407 1036.07,-391.922 1033.46,-385.428"/>
</g>
<!-- Node33&#45;&gt;Node31 -->
<g id="edge68" class="edge"><title>Node33&#45;&gt;Node31</title>
<path fill="none" stroke="midnightblue" d="M1003.29,-382.295C1011.31,-336.644 1031.65,-220.854 1037.44,-187.884"/>
<polygon fill="midnightblue" stroke="midnightblue" points="999.812,-381.843 1001.53,-392.297 1006.71,-383.054 999.812,-381.843"/>
</g>
<!-- Node34 -->
<g id="node34" class="node"><title>Node34</title>
<g id="a_node34"><a xlink:href="../../de/d76/Array_8hpp.html" target="_top" xlink:title=" ">
<polygon fill="white" stroke="black" points="646.5,-336.5 646.5,-355.5 705.5,-355.5 705.5,-336.5 646.5,-336.5"/>
<text text-anchor="middle" x="676" y="-343.5" font-family="Helvetica,sans-Serif" font-size="10.00">Array.hpp</text>
</a>
</g>
</g>
<!-- Node33&#45;&gt;Node34 -->
<g id="edge44" class="edge"><title>Node33&#45;&gt;Node34</title>
<path fill="none" stroke="midnightblue" d="M961.934,-394.656C896.68,-383.78 764.796,-361.799 705.755,-351.959"/>
<polygon fill="midnightblue" stroke="midnightblue" points="961.375,-398.111 971.814,-396.302 962.525,-391.206 961.375,-398.111"/>
</g>
<!-- Node43 -->
<g id="node43" class="node"><title>Node43</title>
<g id="a_node43"><a xlink:href="../../d1/d40/BitArray_8hpp.html" target="_top" xlink:title=" ">
<polygon fill="white" stroke="black" points="1263.5,-168.5 1263.5,-187.5 1334.5,-187.5 1334.5,-168.5 1263.5,-168.5"/>
<text text-anchor="middle" x="1299" y="-175.5" font-family="Helvetica,sans-Serif" font-size="10.00">BitArray.hpp</text>
</a>
</g>
</g>
<!-- Node33&#45;&gt;Node43 -->
<g id="edge61" class="edge"><title>Node33&#45;&gt;Node43</title>
<path fill="none" stroke="midnightblue" d="M1038.44,-394.78C1068.71,-388.553 1110.99,-376.817 1143,-356 1216.48,-308.21 1276.12,-216.633 1293.71,-187.87"/>
<polygon fill="midnightblue" stroke="midnightblue" points="1037.41,-391.413 1028.27,-396.758 1038.75,-398.284 1037.41,-391.413"/>
</g>
<!-- Node44 -->
<g id="node44" class="node"><title>Node44</title>
<g id="a_node44"><a xlink:href="../../d6/df4/Exit_8cpp.html" target="_top" xlink:title=" ">
<polygon fill="white" stroke="black" points="1028.5,-336.5 1028.5,-355.5 1081.5,-355.5 1081.5,-336.5 1028.5,-336.5"/>
<text text-anchor="middle" x="1055" y="-343.5" font-family="Helvetica,sans-Serif" font-size="10.00">Exit.cpp</text>
</a>
</g>
</g>
<!-- Node33&#45;&gt;Node44 -->
<g id="edge66" class="edge"><title>Node33&#45;&gt;Node44</title>
<path fill="none" stroke="midnightblue" d="M1016.29,-385.002C1026.04,-375.433 1038.05,-363.639 1046.09,-355.751"/>
<polygon fill="midnightblue" stroke="midnightblue" points="1013.77,-382.58 1009.08,-392.083 1018.67,-387.575 1013.77,-382.58"/>
</g>
<!-- Node34&#45;&gt;Node16 -->
<g id="edge49" class="edge"><title>Node34&#45;&gt;Node16</title>
<path fill="none" stroke="midnightblue" d="M659.58,-329.043C636.924,-305.037 601.31,-258.743 624,-224 645.764,-190.676 670.145,-205.28 706,-188 723.193,-179.714 726.436,-175.467 744,-168 779.361,-152.966 821.576,-139.688 849.492,-131.522"/>
<polygon fill="midnightblue" stroke="midnightblue" points="657.168,-331.583 666.664,-336.282 662.171,-326.687 657.168,-331.583"/>
</g>
<!-- Node35 -->
<g id="node35" class="node"><title>Node35</title>
<g id="a_node35"><a xlink:href="../../d5/db6/ArrayHelpers_8hpp.html" target="_top" xlink:title=" ">
<polygon fill="white" stroke="black" points="633,-224.5 633,-243.5 725,-243.5 725,-224.5 633,-224.5"/>
<text text-anchor="middle" x="679" y="-231.5" font-family="Helvetica,sans-Serif" font-size="10.00">ArrayHelpers.hpp</text>
</a>
</g>
</g>
<!-- Node34&#45;&gt;Node35 -->
<g id="edge45" class="edge"><title>Node34&#45;&gt;Node35</title>
<path fill="none" stroke="midnightblue" d="M668.1,-326.588C663.497,-313.607 659.117,-295.792 662,-280 664.4,-266.855 670.441,-252.563 674.634,-243.693"/>
<polygon fill="midnightblue" stroke="midnightblue" points="664.96,-328.168 671.865,-336.204 671.479,-325.616 664.96,-328.168"/>
</g>
<!-- Node38 -->
<g id="node38" class="node"><title>Node38</title>
<g id="a_node38"><a xlink:href="../../d4/d35/Hardware-Types_8hpp.html" target="_top" xlink:title=" ">
<polygon fill="white" stroke="black" points="763.5,-280.5 763.5,-299.5 870.5,-299.5 870.5,-280.5 763.5,-280.5"/>
<text text-anchor="middle" x="817" y="-287.5" font-family="Helvetica,sans-Serif" font-size="10.00">Hardware&#45;Types.hpp</text>
</a>
</g>
</g>
<!-- Node34&#45;&gt;Node38 -->
<g id="edge50" class="edge"><title>Node34&#45;&gt;Node38</title>
<path fill="none" stroke="midnightblue" d="M707.929,-332.772C734.414,-322.629 771.392,-308.467 794.763,-299.516"/>
<polygon fill="midnightblue" stroke="midnightblue" points="706.429,-329.599 698.342,-336.444 708.932,-336.136 706.429,-329.599"/>
</g>
<!-- Node39 -->
<g id="node39" class="node"><title>Node39</title>
<g id="a_node39"><a xlink:href="../../d1/dde/BiQuad_8hpp.html" target="_top" xlink:title=" ">
<polygon fill="white" stroke="black" points="399,-224.5 399,-243.5 467,-243.5 467,-224.5 399,-224.5"/>
<text text-anchor="middle" x="433" y="-231.5" font-family="Helvetica,sans-Serif" font-size="10.00">BiQuad.hpp</text>
</a>
</g>
</g>
<!-- Node34&#45;&gt;Node39 -->
<g id="edge54" class="edge"><title>Node34&#45;&gt;Node39</title>
<path fill="none" stroke="midnightblue" d="M636.16,-336.242C574.335,-327.536 449.881,-335.247 420,-300 406.307,-283.848 419.013,-257.335 427.244,-243.7"/>
<polygon fill="midnightblue" stroke="midnightblue" points="635.79,-339.728 646.231,-337.929 636.946,-332.824 635.79,-339.728"/>
</g>
<!-- Node40 -->
<g id="node40" class="node"><title>Node40</title>
<g id="a_node40"><a xlink:href="../../d2/d3b/FIRFilter_8hpp.html" target="_top" xlink:title=" ">
<polygon fill="white" stroke="black" points="671,-280.5 671,-299.5 745,-299.5 745,-280.5 671,-280.5"/>
<text text-anchor="middle" x="708" y="-287.5" font-family="Helvetica,sans-Serif" font-size="10.00">FIRFilter.hpp</text>
</a>
</g>
</g>
<!-- Node34&#45;&gt;Node40 -->
<g id="edge56" class="edge"><title>Node34&#45;&gt;Node40</title>
<path fill="none" stroke="midnightblue" d="M686.504,-327.275C691.973,-318.045 698.418,-307.17 702.814,-299.751"/>
<polygon fill="midnightblue" stroke="midnightblue" points="683.371,-325.696 681.284,-336.083 689.393,-329.264 683.371,-325.696"/>
</g>
<!-- Node41 -->
<g id="node41" class="node"><title>Node41</title>
<g id="a_node41"><a xlink:href="../../dc/d64/IIRFilter_8hpp.html" target="_top" xlink:title=" ">
<polygon fill="white" stroke="black" points="495.5,-224.5 495.5,-243.5 566.5,-243.5 566.5,-224.5 495.5,-224.5"/>
<text text-anchor="middle" x="531" y="-231.5" font-family="Helvetica,sans-Serif" font-size="10.00">IIRFilter.hpp</text>
</a>
</g>
</g>
<!-- Node34&#45;&gt;Node41 -->
<g id="edge57" class="edge"><title>Node34&#45;&gt;Node41</title>
<path fill="none" stroke="midnightblue" d="M645.826,-332.103C628.874,-324.124 607.811,-312.943 591,-300 568.853,-282.948 547.87,-257.289 537.59,-243.879"/>
<polygon fill="midnightblue" stroke="midnightblue" points="644.72,-335.445 655.27,-336.42 647.63,-329.079 644.72,-335.445"/>
</g>
<!-- Node42 -->
<g id="node42" class="node"><title>Node42</title>
<g id="a_node42"><a xlink:href="../../d2/d03/TransferFunction_8hpp.html" target="_top" xlink:title=" ">
<polygon fill="white" stroke="black" points="429.5,-280.5 429.5,-299.5 538.5,-299.5 538.5,-280.5 429.5,-280.5"/>
<text text-anchor="middle" x="484" y="-287.5" font-family="Helvetica,sans-Serif" font-size="10.00">TransferFunction.hpp</text>
</a>
</g>
</g>
<!-- Node34&#45;&gt;Node42 -->
<g id="edge58" class="edge"><title>Node34&#45;&gt;Node42</title>
<path fill="none" stroke="midnightblue" d="M636.666,-333.937C600.392,-323.735 547.306,-308.805 514.247,-299.507"/>
<polygon fill="midnightblue" stroke="midnightblue" points="635.847,-337.343 646.421,-336.681 637.742,-330.604 635.847,-337.343"/>
</g>
<!-- Node35&#45;&gt;Node30 -->
<g id="edge46" class="edge"><title>Node35&#45;&gt;Node30</title>
<path fill="none" stroke="midnightblue" d="M713.608,-221.172C743.359,-211.004 785.547,-196.585 812.082,-187.516"/>
<polygon fill="midnightblue" stroke="midnightblue" points="712.366,-217.898 704.036,-224.444 714.63,-224.521 712.366,-217.898"/>
</g>
<!-- Node36 -->
<g id="node36" class="node"><title>Node36</title>
<g id="a_node36"><a xlink:href="../../df/ddc/SOSFilter_8hpp.html" target="_top" xlink:title=" ">
<polygon fill="white" stroke="black" points="394,-168.5 394,-187.5 472,-187.5 472,-168.5 394,-168.5"/>
<text text-anchor="middle" x="433" y="-175.5" font-family="Helvetica,sans-Serif" font-size="10.00">SOSFilter.hpp</text>
</a>
</g>
</g>
<!-- Node35&#45;&gt;Node36 -->
<g id="edge47" class="edge"><title>Node35&#45;&gt;Node36</title>
<path fill="none" stroke="midnightblue" d="M630.171,-222.281C583.684,-212.077 514.637,-196.92 471.797,-187.516"/>
<polygon fill="midnightblue" stroke="midnightblue" points="629.503,-225.718 640.021,-224.444 631.004,-218.881 629.503,-225.718"/>
</g>
<!-- Node37 -->
<g id="node37" class="node"><title>Node37</title>
<g id="a_node37"><a xlink:href="../../d4/d40/Butterworth_8hpp.html" target="_top" xlink:title=" ">
<polygon fill="white" stroke="black" points="186,-112.5 186,-131.5 272,-131.5 272,-112.5 186,-112.5"/>
<text text-anchor="middle" x="229" y="-119.5" font-family="Helvetica,sans-Serif" font-size="10.00">Butterworth.hpp</text>
</a>
</g>
</g>
<!-- Node36&#45;&gt;Node37 -->
<g id="edge48" class="edge"><title>Node36&#45;&gt;Node37</title>
<path fill="none" stroke="midnightblue" d="M390.799,-165.829C352.282,-155.633 296.178,-140.782 261.173,-131.516"/>
<polygon fill="midnightblue" stroke="midnightblue" points="390.113,-169.268 400.676,-168.444 391.904,-162.501 390.113,-169.268"/>
</g>
<!-- Node38&#45;&gt;Node6 -->
<g id="edge52" class="edge"><title>Node38&#45;&gt;Node6</title>
<path fill="none" stroke="midnightblue" d="M837.142,-274.101C850.279,-264.382 866.982,-252.027 878.058,-243.834"/>
<polygon fill="midnightblue" stroke="midnightblue" points="834.687,-271.563 828.729,-280.324 838.85,-277.191 834.687,-271.563"/>
</g>
<!-- Node38&#45;&gt;Node15 -->
<g id="edge51" class="edge"><title>Node38&#45;&gt;Node15</title>
<path fill="none" stroke="midnightblue" d="M799.619,-273.699C779.749,-256.517 748.149,-230.217 734,-224 644.096,-184.495 608.533,-220.879 516,-188 499.118,-182.002 497.711,-174.46 481,-168 412.206,-141.404 365.151,-189.533 319,-132 284.153,-88.5594 379.685,-74.0888 440.306,-69.3139"/>
<polygon fill="midnightblue" stroke="midnightblue" points="797.493,-276.488 807.332,-280.419 802.092,-271.211 797.493,-276.488"/>
</g>
<!-- Node38&#45;&gt;Node24 -->
<g id="edge53" class="edge"><title>Node38&#45;&gt;Node24</title>
<path fill="none" stroke="midnightblue" d="M808.215,-271.247C799.783,-256.168 785.591,-235.236 767,-224 687.082,-175.698 649.227,-215.543 560,-188 539.475,-181.664 536.028,-175.765 516,-168 478.87,-153.605 435.002,-139.941 406.626,-131.526"/>
<polygon fill="midnightblue" stroke="midnightblue" points="805.15,-272.94 812.913,-280.15 811.341,-269.673 805.15,-272.94"/>
</g>
<!-- Node39&#45;&gt;Node36 -->
<g id="edge55" class="edge"><title>Node39&#45;&gt;Node36</title>
<path fill="none" stroke="midnightblue" d="M433,-213.805C433,-204.91 433,-194.78 433,-187.751"/>
<polygon fill="midnightblue" stroke="midnightblue" points="429.5,-214.083 433,-224.083 436.5,-214.083 429.5,-214.083"/>
</g>
<!-- Node42&#45;&gt;Node39 -->
<g id="edge59" class="edge"><title>Node42&#45;&gt;Node39</title>
<path fill="none" stroke="midnightblue" d="M468.622,-272.718C459.633,-263.2 448.641,-251.561 441.265,-243.751"/>
<polygon fill="midnightblue" stroke="midnightblue" points="466.168,-275.216 475.578,-280.083 471.257,-270.41 466.168,-275.216"/>
</g>
<!-- Node42&#45;&gt;Node41 -->
<g id="edge60" class="edge"><title>Node42&#45;&gt;Node41</title>
<path fill="none" stroke="midnightblue" d="M498.421,-272.431C506.658,-262.967 516.654,-251.483 523.383,-243.751"/>
<polygon fill="midnightblue" stroke="midnightblue" points="495.686,-270.242 491.761,-280.083 500.966,-274.838 495.686,-270.242"/>
</g>
<!-- Node43&#45;&gt;Node19 -->
<g id="edge63" class="edge"><title>Node43&#45;&gt;Node19</title>
<path fill="none" stroke="midnightblue" d="M1304.17,-158.396C1306.68,-149.362 1309.57,-138.936 1311.57,-131.751"/>
<polygon fill="midnightblue" stroke="midnightblue" points="1300.78,-157.511 1301.48,-168.083 1307.53,-159.385 1300.78,-157.511"/>
</g>
<!-- Node43&#45;&gt;Node22 -->
<g id="edge64" class="edge"><title>Node43&#45;&gt;Node22</title>
<path fill="none" stroke="midnightblue" d="M1342.87,-164.82C1359.65,-157.922 1377.3,-147.476 1388,-132 1399.75,-115.009 1398.33,-89.3242 1396.53,-75.8946"/>
<polygon fill="midnightblue" stroke="midnightblue" points="1341.28,-161.68 1333.15,-168.482 1343.75,-168.23 1341.28,-161.68"/>
</g>
<!-- Node43&#45;&gt;Node28 -->
<g id="edge62" class="edge"><title>Node43&#45;&gt;Node28</title>
<path fill="none" stroke="midnightblue" d="M1275.01,-163.514C1248.36,-149.02 1203.73,-126.162 1163,-112 1134.03,-101.927 1052.97,-84.758 1004.01,-74.7927"/>
<polygon fill="midnightblue" stroke="midnightblue" points="1273.52,-166.69 1283.97,-168.443 1276.9,-160.557 1273.52,-166.69"/>
</g>
<!-- Node45&#45;&gt;Node18 -->
<g id="edge72" class="edge"><title>Node45&#45;&gt;Node18</title>
<path fill="none" stroke="midnightblue" d="M1220,-438.251C1220,-416.357 1220,-379.052 1220,-347 1220,-347 1220,-347 1220,-177 1220,-122.221 1152.27,-89.7333 1113.12,-75.5286"/>
<polygon fill="midnightblue" stroke="midnightblue" points="1216.5,-438.442 1220,-448.442 1223.5,-438.442 1216.5,-438.442"/>
</g>
<!-- Node46 -->
<g id="node46" class="node"><title>Node46</title>
<g id="a_node46"><a xlink:href="../../db/d0b/ShiftRegisterOutRGB_8cpp.html" target="_top" xlink:title=" ">
<polygon fill="white" stroke="black" points="1248,-392.5 1248,-411.5 1378,-411.5 1378,-392.5 1248,-392.5"/>
<text text-anchor="middle" x="1313" y="-399.5" font-family="Helvetica,sans-Serif" font-size="10.00">ShiftRegisterOutRGB.cpp</text>
</a>
</g>
</g>
<!-- Node45&#45;&gt;Node46 -->
<g id="edge73" class="edge"><title>Node45&#45;&gt;Node46</title>
<path fill="none" stroke="midnightblue" d="M1243.81,-443.177C1260.92,-433.241 1283.47,-420.149 1298.1,-411.655"/>
<polygon fill="midnightblue" stroke="midnightblue" points="1241.83,-440.276 1234.94,-448.324 1245.35,-446.329 1241.83,-440.276"/>
</g>
</g>
</svg>
