<?xml version="1.0" encoding="UTF-8" standalone="no"?>
<!DOCTYPE svg PUBLIC "-//W3C//DTD SVG 1.1//EN"
 "http://www.w3.org/Graphics/SVG/1.1/DTD/svg11.dtd">
<!-- Generated by graphviz version 2.43.0 (0)
 -->
<!-- Title: ExtendedIOElement Pages: 1 -->
<svg width="363pt" height="1013pt"
 viewBox="0.00 0.00 363.34 1013.00" xmlns="http://www.w3.org/2000/svg" xmlns:xlink="http://www.w3.org/1999/xlink">
<g id="graph0" class="graph" transform="scale(1 1) rotate(0) translate(4 1009)">
<title>ExtendedIOElement</title>
<polygon fill="white" stroke="transparent" points="-4,4 -4,-1009 359.34,-1009 359.34,4 -4,4"/>
<!-- Node1 -->
<g id="node1" class="node">
<title>Node1</title>
<g id="a_node1"><a xlink:title="An abstract base class for Extended Input/Output elements.">
<polygon fill="#bfbfbf" stroke="black" points="165,-628.5 165,-1004.5 326,-1004.5 326,-628.5 165,-628.5"/>
<text text-anchor="middle" x="245.5" y="-992.5" font-family="Helvetica,sans-Serif" font-size="10.00">ExtendedIOElement</text>
<polyline fill="none" stroke="black" points="165,-985.5 326,-985.5 "/>
<text text-anchor="start" x="173" y="-973.5" font-family="Helvetica,sans-Serif" font-size="10.00">&#45; length</text>
<text text-anchor="start" x="173" y="-962.5" font-family="Helvetica,sans-Serif" font-size="10.00">&#45; start</text>
<text text-anchor="start" x="173" y="-951.5" font-family="Helvetica,sans-Serif" font-size="10.00">&#45; end</text>
<text text-anchor="start" x="173" y="-940.5" font-family="Helvetica,sans-Serif" font-size="10.00">&#45; offset</text>
<polyline fill="none" stroke="black" points="165,-933.5 326,-933.5 "/>
<text text-anchor="start" x="173" y="-921.5" font-family="Helvetica,sans-Serif" font-size="10.00">+ pinMode()</text>
<text text-anchor="start" x="173" y="-910.5" font-family="Helvetica,sans-Serif" font-size="10.00">+ pinModeBuffered()</text>
<text text-anchor="start" x="173" y="-899.5" font-family="Helvetica,sans-Serif" font-size="10.00">+ digitalWrite()</text>
<text text-anchor="start" x="173" y="-888.5" font-family="Helvetica,sans-Serif" font-size="10.00">+ digitalWriteBuffered()</text>
<text text-anchor="start" x="173" y="-877.5" font-family="Helvetica,sans-Serif" font-size="10.00">+ digitalRead()</text>
<text text-anchor="start" x="173" y="-866.5" font-family="Helvetica,sans-Serif" font-size="10.00">+ digitalReadBuffered()</text>
<text text-anchor="start" x="173" y="-855.5" font-family="Helvetica,sans-Serif" font-size="10.00">+ analogWrite()</text>
<text text-anchor="start" x="173" y="-844.5" font-family="Helvetica,sans-Serif" font-size="10.00">+ analogWriteBuffered()</text>
<text text-anchor="start" x="173" y="-833.5" font-family="Helvetica,sans-Serif" font-size="10.00">+ analogRead()</text>
<text text-anchor="start" x="173" y="-822.5" font-family="Helvetica,sans-Serif" font-size="10.00">+ analogReadBuffered()</text>
<text text-anchor="start" x="173" y="-811.5" font-family="Helvetica,sans-Serif" font-size="10.00">+ begin()</text>
<text text-anchor="start" x="173" y="-800.5" font-family="Helvetica,sans-Serif" font-size="10.00">+ updateBufferedOutputs()</text>
<text text-anchor="start" x="173" y="-789.5" font-family="Helvetica,sans-Serif" font-size="10.00">+ updateBufferedInputs()</text>
<text text-anchor="start" x="173" y="-778.5" font-family="Helvetica,sans-Serif" font-size="10.00">+ pin()</text>
<text text-anchor="start" x="173" y="-767.5" font-family="Helvetica,sans-Serif" font-size="10.00">+ operator[]()</text>
<text text-anchor="start" x="173" y="-756.5" font-family="Helvetica,sans-Serif" font-size="10.00">+ getLength()</text>
<text text-anchor="start" x="173" y="-745.5" font-family="Helvetica,sans-Serif" font-size="10.00">+ getEnd()</text>
<text text-anchor="start" x="173" y="-734.5" font-family="Helvetica,sans-Serif" font-size="10.00">+ getStart()</text>
<text text-anchor="start" x="173" y="-723.5" font-family="Helvetica,sans-Serif" font-size="10.00">+ beginAll()</text>
<text text-anchor="start" x="173" y="-712.5" font-family="Helvetica,sans-Serif" font-size="10.00">+ updateAllBufferedOutputs()</text>
<text text-anchor="start" x="173" y="-701.5" font-family="Helvetica,sans-Serif" font-size="10.00">+ updateAllBufferedInputs()</text>
<text text-anchor="start" x="173" y="-690.5" font-family="Helvetica,sans-Serif" font-size="10.00">+ getAll()</text>
<text text-anchor="start" x="173" y="-679.5" font-family="Helvetica,sans-Serif" font-size="10.00"># ExtendedIOElement()</text>
<text text-anchor="start" x="173" y="-668.5" font-family="Helvetica,sans-Serif" font-size="10.00"># ExtendedIOElement()</text>
<text text-anchor="start" x="173" y="-657.5" font-family="Helvetica,sans-Serif" font-size="10.00"># operator=()</text>
<text text-anchor="start" x="173" y="-646.5" font-family="Helvetica,sans-Serif" font-size="10.00"># ExtendedIOElement()</text>
<text text-anchor="start" x="173" y="-635.5" font-family="Helvetica,sans-Serif" font-size="10.00"># operator=()</text>
</a>
</g>
</g>
<!-- Node3 -->
<g id="node3" class="node">
<title>Node3</title>
<g id="a_node3"><a xlink:href="../../d4/d23/classDoublyLinkable.html" target="_top" xlink:title=" ">
<polygon fill="white" stroke="black" points="0,-358.5 0,-481.5 149,-481.5 149,-358.5 0,-358.5"/>
<text text-anchor="start" x="8" y="-469.5" font-family="Helvetica,sans-Serif" font-size="10.00">DoublyLinkable&lt; Extended</text>
<text text-anchor="middle" x="74.5" y="-458.5" font-family="Helvetica,sans-Serif" font-size="10.00">IOElement &gt;</text>
<polyline fill="none" stroke="black" points="0,-451.5 149,-451.5 "/>
<text text-anchor="middle" x="74.5" y="-439.5" font-family="Helvetica,sans-Serif" font-size="10.00"> </text>
<polyline fill="none" stroke="black" points="0,-432.5 149,-432.5 "/>
<text text-anchor="start" x="8" y="-420.5" font-family="Helvetica,sans-Serif" font-size="10.00"># ~DoublyLinkable()</text>
<text text-anchor="start" x="8" y="-409.5" font-family="Helvetica,sans-Serif" font-size="10.00"># DoublyLinkable()</text>
<text text-anchor="start" x="8" y="-398.5" font-family="Helvetica,sans-Serif" font-size="10.00"># DoublyLinkable()</text>
<text text-anchor="start" x="8" y="-387.5" font-family="Helvetica,sans-Serif" font-size="10.00"># DoublyLinkable()</text>
<text text-anchor="start" x="8" y="-376.5" font-family="Helvetica,sans-Serif" font-size="10.00"># operator=()</text>
<text text-anchor="start" x="8" y="-365.5" font-family="Helvetica,sans-Serif" font-size="10.00"># operator=()</text>
</a>
</g>
</g>
<!-- Node1&#45;&gt;Node3 -->
<g id="edge3" class="edge">
<title>Node1&#45;&gt;Node3</title>
<path fill="none" stroke="#404040" d="M164.88,-629.51C143.85,-580.99 122.42,-531.56 105.71,-493.01"/>
<polygon fill="none" stroke="#404040" points="105.68,-492.93 99.62,-489.01 100.91,-481.92 106.96,-485.83 105.68,-492.93"/>
<text text-anchor="middle" x="181" y="-602" font-family="Helvetica,sans-Serif" font-size="10.00"> #next</text>
<text text-anchor="middle" x="181" y="-591" font-family="Helvetica,sans-Serif" font-size="10.00">#previous</text>
</g>
<!-- Node4 -->
<g id="node4" class="node">
<title>Node4</title>
<g id="a_node4"><a xlink:href="../../dd/d16/classDoublyLinkedList.html" target="_top" xlink:title=" ">
<polygon fill="white" stroke="black" points="167,-270.5 167,-569.5 324,-569.5 324,-270.5 167,-270.5"/>
<text text-anchor="start" x="175" y="-557.5" font-family="Helvetica,sans-Serif" font-size="10.00">DoublyLinkedList&lt; Extended</text>
<text text-anchor="middle" x="245.5" y="-546.5" font-family="Helvetica,sans-Serif" font-size="10.00">IOElement &gt;</text>
<polyline fill="none" stroke="black" points="167,-539.5 324,-539.5 "/>
<text text-anchor="middle" x="245.5" y="-527.5" font-family="Helvetica,sans-Serif" font-size="10.00"> </text>
<polyline fill="none" stroke="black" points="167,-520.5 324,-520.5 "/>
<text text-anchor="start" x="175" y="-508.5" font-family="Helvetica,sans-Serif" font-size="10.00">+ append()</text>
<text text-anchor="start" x="175" y="-497.5" font-family="Helvetica,sans-Serif" font-size="10.00">+ append()</text>
<text text-anchor="start" x="175" y="-486.5" font-family="Helvetica,sans-Serif" font-size="10.00">+ insertBefore()</text>
<text text-anchor="start" x="175" y="-475.5" font-family="Helvetica,sans-Serif" font-size="10.00">+ insertBefore()</text>
<text text-anchor="start" x="175" y="-464.5" font-family="Helvetica,sans-Serif" font-size="10.00">+ insertSorted()</text>
<text text-anchor="start" x="175" y="-453.5" font-family="Helvetica,sans-Serif" font-size="10.00">+ insertSorted()</text>
<text text-anchor="start" x="175" y="-442.5" font-family="Helvetica,sans-Serif" font-size="10.00">+ remove()</text>
<text text-anchor="start" x="175" y="-431.5" font-family="Helvetica,sans-Serif" font-size="10.00">+ remove()</text>
<text text-anchor="start" x="175" y="-420.5" font-family="Helvetica,sans-Serif" font-size="10.00">+ moveDown()</text>
<text text-anchor="start" x="175" y="-409.5" font-family="Helvetica,sans-Serif" font-size="10.00">+ moveDown()</text>
<text text-anchor="start" x="175" y="-398.5" font-family="Helvetica,sans-Serif" font-size="10.00">+ couldContain()</text>
<text text-anchor="start" x="175" y="-387.5" font-family="Helvetica,sans-Serif" font-size="10.00">+ couldContain()</text>
<text text-anchor="start" x="175" y="-376.5" font-family="Helvetica,sans-Serif" font-size="10.00">+ begin()</text>
<text text-anchor="start" x="175" y="-365.5" font-family="Helvetica,sans-Serif" font-size="10.00">+ begin()</text>
<text text-anchor="start" x="175" y="-354.5" font-family="Helvetica,sans-Serif" font-size="10.00">+ end()</text>
<text text-anchor="start" x="175" y="-343.5" font-family="Helvetica,sans-Serif" font-size="10.00">+ end()</text>
<text text-anchor="start" x="175" y="-332.5" font-family="Helvetica,sans-Serif" font-size="10.00">+ rbegin()</text>
<text text-anchor="start" x="175" y="-321.5" font-family="Helvetica,sans-Serif" font-size="10.00">+ rbegin()</text>
<text text-anchor="start" x="175" y="-310.5" font-family="Helvetica,sans-Serif" font-size="10.00">+ rend()</text>
<text text-anchor="start" x="175" y="-299.5" font-family="Helvetica,sans-Serif" font-size="10.00">+ rend()</text>
<text text-anchor="start" x="175" y="-288.5" font-family="Helvetica,sans-Serif" font-size="10.00">+ getFirst()</text>
<text text-anchor="start" x="175" y="-277.5" font-family="Helvetica,sans-Serif" font-size="10.00">+ getLast()</text>
</a>
</g>
</g>
<!-- Node1&#45;&gt;Node4 -->
<g id="edge5" class="edge">
<title>Node1&#45;&gt;Node4</title>
<path fill="none" stroke="#404040" d="M245.5,-628.36C245.5,-612.82 245.5,-597.19 245.5,-581.86"/>
<polygon fill="none" stroke="#404040" points="245.5,-581.65 241.5,-575.65 245.5,-569.65 249.5,-575.65 245.5,-581.65"/>
<text text-anchor="middle" x="258.5" y="-602" font-family="Helvetica,sans-Serif" font-size="10.00"> &#45;first</text>
<text text-anchor="middle" x="258.5" y="-591" font-family="Helvetica,sans-Serif" font-size="10.00">&#45;last</text>
</g>
<!-- Node2 -->
<g id="node2" class="node">
<title>Node2</title>
<g id="a_node2"><a xlink:href="../../d2/dfb/classUpdatableCRTP.html" target="_top" xlink:title=" ">
<polygon fill="white" stroke="black" points="140,-0.5 140,-222.5 351,-222.5 351,-0.5 140,-0.5"/>
<text text-anchor="middle" x="245.5" y="-210.5" font-family="Helvetica,sans-Serif" font-size="10.00">UpdatableCRTP&lt; ExtendedIOElement &gt;</text>
<polyline fill="none" stroke="black" points="140,-203.5 351,-203.5 "/>
<text text-anchor="middle" x="245.5" y="-191.5" font-family="Helvetica,sans-Serif" font-size="10.00"> </text>
<polyline fill="none" stroke="black" points="140,-184.5 351,-184.5 "/>
<text text-anchor="start" x="148" y="-172.5" font-family="Helvetica,sans-Serif" font-size="10.00">+ ~UpdatableCRTP()</text>
<text text-anchor="start" x="148" y="-161.5" font-family="Helvetica,sans-Serif" font-size="10.00"># UpdatableCRTP()</text>
<text text-anchor="start" x="148" y="-150.5" font-family="Helvetica,sans-Serif" font-size="10.00"># UpdatableCRTP()</text>
<text text-anchor="start" x="148" y="-139.5" font-family="Helvetica,sans-Serif" font-size="10.00"># UpdatableCRTP()</text>
<text text-anchor="start" x="148" y="-128.5" font-family="Helvetica,sans-Serif" font-size="10.00"># operator=()</text>
<text text-anchor="start" x="148" y="-117.5" font-family="Helvetica,sans-Serif" font-size="10.00"># operator=()</text>
<text text-anchor="start" x="148" y="-106.5" font-family="Helvetica,sans-Serif" font-size="10.00">* enable()</text>
<text text-anchor="start" x="148" y="-95.5" font-family="Helvetica,sans-Serif" font-size="10.00">* disable()</text>
<text text-anchor="start" x="148" y="-84.5" font-family="Helvetica,sans-Serif" font-size="10.00">* isEnabled()</text>
<text text-anchor="start" x="148" y="-73.5" font-family="Helvetica,sans-Serif" font-size="10.00">* moveDown()</text>
<text text-anchor="start" x="148" y="-62.5" font-family="Helvetica,sans-Serif" font-size="10.00">* enable()</text>
<text text-anchor="start" x="148" y="-51.5" font-family="Helvetica,sans-Serif" font-size="10.00">* enable()</text>
<text text-anchor="start" x="148" y="-40.5" font-family="Helvetica,sans-Serif" font-size="10.00">* enable()</text>
<text text-anchor="start" x="148" y="-29.5" font-family="Helvetica,sans-Serif" font-size="10.00">* disable()</text>
<text text-anchor="start" x="148" y="-18.5" font-family="Helvetica,sans-Serif" font-size="10.00">* disable()</text>
<text text-anchor="start" x="148" y="-7.5" font-family="Helvetica,sans-Serif" font-size="10.00">* disable()</text>
</a>
</g>
</g>
<!-- Node2&#45;&gt;Node1 -->
<g id="edge1" class="edge">
<title>Node2&#45;&gt;Node1</title>
<path fill="none" stroke="midnightblue" d="M320.28,-232.13C325.62,-244.58 330.2,-257.32 333.5,-270 367.1,-399.03 356.33,-438.64 333.5,-570 330.17,-589.18 325.47,-608.85 319.96,-628.29"/>
<polygon fill="none" stroke="midnightblue" points="323.33,-230.38 316.06,-222.68 316.94,-233.24 323.33,-230.38"/>
</g>
<!-- Node3&#45;&gt;Node2 -->
<g id="edge2" class="edge">
<title>Node3&#45;&gt;Node2</title>
<path fill="none" stroke="midnightblue" d="M113.25,-349.4C127.19,-324.36 143.05,-295.91 157.5,-270 166.05,-254.68 175.06,-238.53 183.94,-222.64"/>
<polygon fill="none" stroke="midnightblue" points="110.01,-348.02 108.2,-358.46 116.13,-351.42 110.01,-348.02"/>
</g>
<!-- Node4&#45;&gt;Node2 -->
<g id="edge4" class="edge">
<title>Node4&#45;&gt;Node2</title>
<path fill="none" stroke="#404040" d="M245.5,-270.24C245.5,-258.35 245.5,-246.43 245.5,-234.76"/>
<polygon fill="none" stroke="#404040" points="245.5,-234.7 241.5,-228.7 245.5,-222.7 249.5,-228.7 245.5,-234.7"/>
<text text-anchor="middle" x="278.5" y="-244" font-family="Helvetica,sans-Serif" font-size="10.00"> #updatables</text>
</g>
</g>
</svg>
