<?xml version="1.0" encoding="UTF-8" standalone="no"?>
<!DOCTYPE svg PUBLIC "-//W3C//DTD SVG 1.1//EN"
 "http://www.w3.org/Graphics/SVG/1.1/DTD/svg11.dtd">
<!-- Generated by graphviz version 2.40.1 (20161225.0304)
 -->
<!-- Title: Filters.h Pages: 1 -->
<svg width="264pt" height="84pt"
 viewBox="0.00 0.00 264.00 84.00" xmlns="http://www.w3.org/2000/svg" xmlns:xlink="http://www.w3.org/1999/xlink">
<g id="graph0" class="graph" transform="scale(1 1) rotate(0) translate(4 80)">
<title>Filters.h</title>
<polygon fill="#ffffff" stroke="transparent" points="-4,4 -4,-80 260,-80 260,4 -4,4"/>
<!-- Node1 -->
<g id="node1" class="node">
<title>Node1</title>
<g id="a_node1"><a xlink:title="Dummy header file for Arduino builder. You have to add this file first, so the other headers are in t...">
<polygon fill="#bfbfbf" stroke="#000000" points="71,-56.5 71,-75.5 123,-75.5 123,-56.5 71,-56.5"/>
<text text-anchor="middle" x="97" y="-63.5" font-family="Helvetica,sans-Serif" font-size="10.00" fill="#000000">Filters.h</text>
</a>
</g>
</g>
<!-- Node2 -->
<g id="node2" class="node">
<title>Node2</title>
<g id="a_node2"><a xlink:title=" ">
<polygon fill="#ffffff" stroke="#bfbfbf" points="0,-.5 0,-19.5 58,-19.5 58,-.5 0,-.5"/>
<text text-anchor="middle" x="29" y="-7.5" font-family="Helvetica,sans-Serif" font-size="10.00" fill="#000000">Arduino.h</text>
</a>
</g>
</g>
<!-- Node1&#45;&gt;Node2 -->
<g id="edge1" class="edge">
<title>Node1&#45;&gt;Node2</title>
<path fill="none" stroke="#191970" d="M85.1553,-56.2455C75.112,-47.9746 60.5005,-35.9416 48.6996,-26.2232"/>
<polygon fill="#191970" stroke="#191970" points="50.6533,-23.298 40.709,-19.6427 46.2033,-28.7015 50.6533,-23.298"/>
</g>
<!-- Node3 -->
<g id="node3" class="node">
<title>Node3</title>
<g id="a_node3"><a xlink:href="../../dc/dc7/NamespaceSettings_8hpp.html" target="_top" xlink:title=" ">
<polygon fill="#ffffff" stroke="#000000" points="76,-.5 76,-19.5 256,-19.5 256,-.5 76,-.5"/>
<text text-anchor="middle" x="166" y="-7.5" font-family="Helvetica,sans-Serif" font-size="10.00" fill="#000000">AH/Settings/NamespaceSettings.hpp</text>
</a>
</g>
</g>
<!-- Node1&#45;&gt;Node3 -->
<g id="edge2" class="edge">
<title>Node1&#45;&gt;Node3</title>
<path fill="none" stroke="#191970" d="M109.0189,-56.2455C119.2098,-47.9746 134.0362,-35.9416 146.0107,-26.2232"/>
<polygon fill="#191970" stroke="#191970" points="148.5598,-28.662 154.1188,-19.6427 144.1486,-23.2268 148.5598,-28.662"/>
</g>
</g>
</svg>
