<?xml version="1.0" encoding="UTF-8" standalone="no"?>
<!DOCTYPE svg PUBLIC "-//W3C//DTD SVG 1.1//EN"
 "http://www.w3.org/Graphics/SVG/1.1/DTD/svg11.dtd">
<!-- Generated by graphviz version 2.43.0 (0)
 -->
<!-- Title: Quaternion.cpp Pages: 1 -->
<svg width="658pt" height="364pt"
 viewBox="0.00 0.00 657.75 364.00" xmlns="http://www.w3.org/2000/svg" xmlns:xlink="http://www.w3.org/1999/xlink">
<g id="graph0" class="graph" transform="scale(1 1) rotate(0) translate(4 360)">
<title>Quaternion.cpp</title>
<polygon fill="white" stroke="transparent" points="-4,4 -4,-360 653.75,-360 653.75,4 -4,4"/>
<!-- Node1 -->
<g id="node1" class="node">
<title>Node1</title>
<g id="a_node1"><a xlink:title=" ">
<polygon fill="#bfbfbf" stroke="black" points="248.25,-336.5 248.25,-355.5 339.25,-355.5 339.25,-336.5 248.25,-336.5"/>
<text text-anchor="middle" x="293.75" y="-343.5" font-family="Helvetica,sans-Serif" font-size="10.00">Quaternion.cpp</text>
</a>
</g>
</g>
<!-- Node2 -->
<g id="node2" class="node">
<title>Node2</title>
<g id="a_node2"><a xlink:href="../../d3/d1f/Quaternion_8hpp.html" target="_top" xlink:title="Definition of Quaternion and EulerAngles.">
<polygon fill="white" stroke="black" points="373.75,-280.5 373.75,-299.5 465.75,-299.5 465.75,-280.5 373.75,-280.5"/>
<text text-anchor="middle" x="419.75" y="-287.5" font-family="Helvetica,sans-Serif" font-size="10.00">Quaternion.hpp</text>
</a>
</g>
</g>
<!-- Node1&#45;&gt;Node2 -->
<g id="edge1" class="edge">
<title>Node1&#45;&gt;Node2</title>
<path fill="none" stroke="midnightblue" d="M313.71,-336.44C334.35,-327.6 366.81,-313.69 390.38,-303.59"/>
<polygon fill="midnightblue" stroke="midnightblue" points="392.06,-306.67 399.87,-299.52 389.3,-300.24 392.06,-306.67"/>
</g>
<!-- Node14 -->
<g id="node14" class="node">
<title>Node14</title>
<g id="a_node14"><a xlink:href="../../dd/d80/PrintStream_8hpp.html" target="_top" xlink:title=" ">
<polygon fill="white" stroke="black" points="80.25,-224.5 80.25,-243.5 253.25,-243.5 253.25,-224.5 80.25,-224.5"/>
<text text-anchor="middle" x="166.75" y="-231.5" font-family="Helvetica,sans-Serif" font-size="10.00">AH/PrintStream/PrintStream.hpp</text>
</a>
</g>
</g>
<!-- Node1&#45;&gt;Node14 -->
<g id="edge22" class="edge">
<title>Node1&#45;&gt;Node14</title>
<path fill="none" stroke="midnightblue" d="M283.78,-336.37C262.36,-317.81 211.67,-273.91 184.57,-250.44"/>
<polygon fill="midnightblue" stroke="midnightblue" points="186.52,-247.49 176.66,-243.59 181.93,-252.78 186.52,-247.49"/>
</g>
<!-- Node3 -->
<g id="node3" class="node">
<title>Node3</title>
<g id="a_node3"><a xlink:href="../../d1/d65/Warnings_8hpp.html" target="_top" xlink:title=" ">
<polygon fill="white" stroke="black" points="187.25,-0.5 187.25,-19.5 330.25,-19.5 330.25,-0.5 187.25,-0.5"/>
<text text-anchor="middle" x="258.75" y="-7.5" font-family="Helvetica,sans-Serif" font-size="10.00">AH/Settings/Warnings.hpp</text>
</a>
</g>
</g>
<!-- Node2&#45;&gt;Node3 -->
<g id="edge2" class="edge">
<title>Node2&#45;&gt;Node3</title>
<path fill="none" stroke="midnightblue" d="M466.01,-286.96C533.18,-281.23 649.75,-259.67 649.75,-179 649.75,-179 649.75,-179 649.75,-121 649.75,-57.34 455.26,-28.76 340.62,-17.44"/>
<polygon fill="midnightblue" stroke="midnightblue" points="340.75,-13.94 330.46,-16.47 340.08,-20.91 340.75,-13.94"/>
</g>
<!-- Node4 -->
<g id="node4" class="node">
<title>Node4</title>
<g id="a_node4"><a xlink:href="../../d6/ddf/Arduino-Wrapper_8h.html" target="_top" xlink:title=" ">
<polygon fill="white" stroke="black" points="213.75,-168.5 213.75,-187.5 337.75,-187.5 337.75,-168.5 213.75,-168.5"/>
<text text-anchor="middle" x="275.75" y="-175.5" font-family="Helvetica,sans-Serif" font-size="10.00">AH/Arduino&#45;Wrapper.h</text>
</a>
</g>
</g>
<!-- Node2&#45;&gt;Node4 -->
<g id="edge3" class="edge">
<title>Node2&#45;&gt;Node4</title>
<path fill="none" stroke="midnightblue" d="M373.53,-281C349.15,-274.65 320.32,-263.47 300.75,-244 288.3,-231.62 281.93,-212.38 278.75,-198.04"/>
<polygon fill="midnightblue" stroke="midnightblue" points="282.11,-196.99 276.82,-187.81 275.23,-198.28 282.11,-196.99"/>
</g>
<!-- Node10 -->
<g id="node10" class="node">
<title>Node10</title>
<g id="a_node10"><a xlink:href="../../de/d79/Degrees_8hpp.html" target="_top" xlink:title="Conversions between radians and degrees.">
<polygon fill="white" stroke="black" points="356.25,-168.5 356.25,-187.5 479.25,-187.5 479.25,-168.5 356.25,-168.5"/>
<text text-anchor="middle" x="417.75" y="-175.5" font-family="Helvetica,sans-Serif" font-size="10.00">AH/Math/Degrees.hpp</text>
</a>
</g>
</g>
<!-- Node2&#45;&gt;Node10 -->
<g id="edge12" class="edge">
<title>Node2&#45;&gt;Node10</title>
<path fill="none" stroke="midnightblue" d="M419.59,-280.37C419.27,-262.62 418.52,-221.67 418.08,-197.6"/>
<polygon fill="midnightblue" stroke="midnightblue" points="421.58,-197.53 417.9,-187.59 414.58,-197.65 421.58,-197.53"/>
</g>
<!-- Node11 -->
<g id="node11" class="node">
<title>Node11</title>
<g id="a_node11"><a xlink:href="../../de/dd9/Vector_8hpp.html" target="_top" xlink:title="Definition of Vec2f and Vec3f.">
<polygon fill="white" stroke="black" points="448.25,-224.5 448.25,-243.5 561.25,-243.5 561.25,-224.5 448.25,-224.5"/>
<text text-anchor="middle" x="504.75" y="-231.5" font-family="Helvetica,sans-Serif" font-size="10.00">AH/Math/Vector.hpp</text>
</a>
</g>
</g>
<!-- Node2&#45;&gt;Node11 -->
<g id="edge16" class="edge">
<title>Node2&#45;&gt;Node11</title>
<path fill="none" stroke="midnightblue" d="M433.4,-280.32C446.66,-271.9 467.01,-258.97 482.59,-249.07"/>
<polygon fill="midnightblue" stroke="midnightblue" points="484.56,-251.97 491.12,-243.65 480.81,-246.06 484.56,-251.97"/>
</g>
<!-- Node12 -->
<g id="node12" class="node">
<title>Node12</title>
<g id="a_node12"><a xlink:title=" ">
<polygon fill="white" stroke="#bfbfbf" points="536.25,-168.5 536.25,-187.5 621.25,-187.5 621.25,-168.5 536.25,-168.5"/>
<text text-anchor="middle" x="578.75" y="-175.5" font-family="Helvetica,sans-Serif" font-size="10.00">AH/STL/cmath</text>
</a>
</g>
</g>
<!-- Node2&#45;&gt;Node12 -->
<g id="edge20" class="edge">
<title>Node2&#45;&gt;Node12</title>
<path fill="none" stroke="midnightblue" d="M465.85,-288.04C500.1,-284.7 545.14,-274.29 570.75,-244 581.4,-231.39 582.54,-212.18 581.54,-197.91"/>
<polygon fill="midnightblue" stroke="midnightblue" points="584.99,-197.29 580.41,-187.74 578.03,-198.07 584.99,-197.29"/>
</g>
<!-- Node13 -->
<g id="node13" class="node">
<title>Node13</title>
<g id="a_node13"><a xlink:title=" ">
<polygon fill="white" stroke="#bfbfbf" points="309.75,-224.5 309.75,-243.5 391.75,-243.5 391.75,-224.5 309.75,-224.5"/>
<text text-anchor="middle" x="350.75" y="-231.5" font-family="Helvetica,sans-Serif" font-size="10.00">AH/STL/limits</text>
</a>
</g>
</g>
<!-- Node2&#45;&gt;Node13 -->
<g id="edge21" class="edge">
<title>Node2&#45;&gt;Node13</title>
<path fill="none" stroke="midnightblue" d="M408.66,-280.32C398.26,-272.18 382.48,-259.84 370.02,-250.09"/>
<polygon fill="midnightblue" stroke="midnightblue" points="372.07,-247.24 362.03,-243.83 367.75,-252.75 372.07,-247.24"/>
</g>
<!-- Node5 -->
<g id="node5" class="node">
<title>Node5</title>
<g id="a_node5"><a xlink:href="../../d7/d79/MinMaxFix_8hpp.html" target="_top" xlink:title=" ">
<polygon fill="white" stroke="black" points="59.75,-112.5 59.75,-131.5 195.75,-131.5 195.75,-112.5 59.75,-112.5"/>
<text text-anchor="middle" x="127.75" y="-119.5" font-family="Helvetica,sans-Serif" font-size="10.00">AH/Math/MinMaxFix.hpp</text>
</a>
</g>
</g>
<!-- Node4&#45;&gt;Node5 -->
<g id="edge4" class="edge">
<title>Node4&#45;&gt;Node5</title>
<path fill="none" stroke="midnightblue" d="M252.29,-168.44C227.61,-159.44 188.56,-145.19 160.77,-135.05"/>
<polygon fill="midnightblue" stroke="midnightblue" points="161.68,-131.66 151.09,-131.52 159.28,-138.23 161.68,-131.66"/>
</g>
<!-- Node7 -->
<g id="node7" class="node">
<title>Node7</title>
<g id="a_node7"><a xlink:title=" ">
<polygon fill="white" stroke="#bfbfbf" points="35.25,-0.5 35.25,-19.5 98.25,-19.5 98.25,-0.5 35.25,-0.5"/>
<text text-anchor="middle" x="66.75" y="-7.5" font-family="Helvetica,sans-Serif" font-size="10.00">Arduino.h</text>
</a>
</g>
</g>
<!-- Node4&#45;&gt;Node7 -->
<g id="edge11" class="edge">
<title>Node4&#45;&gt;Node7</title>
<path fill="none" stroke="midnightblue" d="M213.66,-177.03C165.57,-174.28 99.2,-164.16 50.75,-132 19.28,-111.11 -3.27,-90.2 12.75,-56 18.79,-43.09 30.56,-32.6 41.57,-25"/>
<polygon fill="midnightblue" stroke="midnightblue" points="43.57,-27.87 50.11,-19.54 39.8,-21.97 43.57,-27.87"/>
</g>
<!-- Node9 -->
<g id="node9" class="node">
<title>Node9</title>
<g id="a_node9"><a xlink:title=" ">
<polygon fill="white" stroke="#bfbfbf" points="260.25,-112.5 260.25,-131.5 367.25,-131.5 367.25,-112.5 260.25,-112.5"/>
<text text-anchor="middle" x="313.75" y="-119.5" font-family="Helvetica,sans-Serif" font-size="10.00">AH/STL/type_traits</text>
</a>
</g>
</g>
<!-- Node4&#45;&gt;Node9 -->
<g id="edge10" class="edge">
<title>Node4&#45;&gt;Node9</title>
<path fill="none" stroke="midnightblue" d="M282.02,-168.08C287.39,-160.46 295.26,-149.26 301.82,-139.94"/>
<polygon fill="midnightblue" stroke="midnightblue" points="304.69,-141.94 307.59,-131.75 298.97,-137.91 304.69,-141.94"/>
</g>
<!-- Node5&#45;&gt;Node3 -->
<g id="edge5" class="edge">
<title>Node5&#45;&gt;Node3</title>
<path fill="none" stroke="midnightblue" d="M144.61,-112.43C160.03,-104.19 183.06,-90.82 200.75,-76 218.05,-61.5 234.9,-41.81 245.94,-27.91"/>
<polygon fill="midnightblue" stroke="midnightblue" points="248.92,-29.77 252.3,-19.72 243.4,-25.47 248.92,-29.77"/>
</g>
<!-- Node6 -->
<g id="node6" class="node">
<title>Node6</title>
<g id="a_node6"><a xlink:href="../../d6/d3b/FixArduinoMacros_8hpp.html" target="_top" xlink:title=" ">
<polygon fill="white" stroke="black" points="21.75,-56.5 21.75,-75.5 191.75,-75.5 191.75,-56.5 21.75,-56.5"/>
<text text-anchor="middle" x="106.75" y="-63.5" font-family="Helvetica,sans-Serif" font-size="10.00">AH/Math/FixArduinoMacros.hpp</text>
</a>
</g>
</g>
<!-- Node5&#45;&gt;Node6 -->
<g id="edge6" class="edge">
<title>Node5&#45;&gt;Node6</title>
<path fill="none" stroke="midnightblue" d="M124.28,-112.08C121.43,-104.77 117.32,-94.18 113.79,-85.1"/>
<polygon fill="midnightblue" stroke="midnightblue" points="117.04,-83.8 110.15,-75.75 110.51,-86.34 117.04,-83.8"/>
</g>
<!-- Node8 -->
<g id="node8" class="node">
<title>Node8</title>
<g id="a_node8"><a xlink:href="../../dc/dc7/NamespaceSettings_8hpp.html" target="_top" xlink:title=" ">
<polygon fill="white" stroke="black" points="247.25,-56.5 247.25,-75.5 442.25,-75.5 442.25,-56.5 247.25,-56.5"/>
<text text-anchor="middle" x="344.75" y="-63.5" font-family="Helvetica,sans-Serif" font-size="10.00">AH/Settings/NamespaceSettings.hpp</text>
</a>
</g>
</g>
<!-- Node5&#45;&gt;Node8 -->
<g id="edge9" class="edge">
<title>Node5&#45;&gt;Node8</title>
<path fill="none" stroke="midnightblue" d="M162.13,-112.44C199.67,-103.1 259.88,-88.12 300.81,-77.93"/>
<polygon fill="midnightblue" stroke="midnightblue" points="301.66,-81.33 310.52,-75.52 299.97,-74.53 301.66,-81.33"/>
</g>
<!-- Node6&#45;&gt;Node3 -->
<g id="edge7" class="edge">
<title>Node6&#45;&gt;Node3</title>
<path fill="none" stroke="midnightblue" d="M130.83,-56.44C156.29,-47.4 196.64,-33.06 225.2,-22.92"/>
<polygon fill="midnightblue" stroke="midnightblue" points="226.52,-26.16 234.77,-19.52 224.18,-19.57 226.52,-26.16"/>
</g>
<!-- Node6&#45;&gt;Node7 -->
<g id="edge8" class="edge">
<title>Node6&#45;&gt;Node7</title>
<path fill="none" stroke="midnightblue" d="M100.14,-56.08C94.49,-48.46 86.2,-37.26 79.29,-27.94"/>
<polygon fill="midnightblue" stroke="midnightblue" points="81.99,-25.7 73.23,-19.75 76.37,-29.87 81.99,-25.7"/>
</g>
<!-- Node10&#45;&gt;Node3 -->
<g id="edge15" class="edge">
<title>Node10&#45;&gt;Node3</title>
<path fill="none" stroke="midnightblue" d="M424.81,-168.37C441.4,-147 479.42,-90.87 451.75,-56 437.6,-38.17 386.53,-26.75 340.48,-19.88"/>
<polygon fill="midnightblue" stroke="midnightblue" points="340.84,-16.4 330.44,-18.44 339.84,-23.33 340.84,-16.4"/>
</g>
<!-- Node10&#45;&gt;Node8 -->
<g id="edge14" class="edge">
<title>Node10&#45;&gt;Node8</title>
<path fill="none" stroke="midnightblue" d="M412.59,-168.49C404.95,-155.98 390.12,-131.95 376.75,-112 370.4,-102.53 363.04,-92.14 356.98,-83.73"/>
<polygon fill="midnightblue" stroke="midnightblue" points="359.73,-81.57 351.02,-75.53 354.06,-85.68 359.73,-81.57"/>
</g>
<!-- Node10&#45;&gt;Node9 -->
<g id="edge13" class="edge">
<title>Node10&#45;&gt;Node9</title>
<path fill="none" stroke="midnightblue" d="M401.04,-168.32C384.43,-159.7 358.74,-146.36 339.53,-136.39"/>
<polygon fill="midnightblue" stroke="midnightblue" points="340.9,-133.16 330.41,-131.65 337.68,-139.37 340.9,-133.16"/>
</g>
<!-- Node11&#45;&gt;Node3 -->
<g id="edge17" class="edge">
<title>Node11&#45;&gt;Node3</title>
<path fill="none" stroke="midnightblue" d="M506.03,-224.13C509.64,-195.35 516.79,-103.75 469.75,-56 451.63,-37.61 391.87,-25.98 340.56,-19.16"/>
<polygon fill="midnightblue" stroke="midnightblue" points="340.78,-15.66 330.42,-17.86 339.89,-22.61 340.78,-15.66"/>
</g>
<!-- Node11&#45;&gt;Node4 -->
<g id="edge18" class="edge">
<title>Node11&#45;&gt;Node4</title>
<path fill="none" stroke="midnightblue" d="M468.46,-224.44C428.76,-215.08 365.04,-200.06 321.83,-189.87"/>
<polygon fill="midnightblue" stroke="midnightblue" points="322.4,-186.41 311.86,-187.52 320.79,-193.22 322.4,-186.41"/>
</g>
<!-- Node11&#45;&gt;Node12 -->
<g id="edge19" class="edge">
<title>Node11&#45;&gt;Node12</title>
<path fill="none" stroke="midnightblue" d="M516.63,-224.32C527.9,-216.11 545.03,-203.6 558.45,-193.81"/>
<polygon fill="midnightblue" stroke="midnightblue" points="560.63,-196.56 566.64,-187.83 556.5,-190.9 560.63,-196.56"/>
</g>
<!-- Node14&#45;&gt;Node3 -->
<g id="edge24" class="edge">
<title>Node14&#45;&gt;Node3</title>
<path fill="none" stroke="midnightblue" d="M148.68,-224.45C97.35,-199.08 -42.16,-121.86 12.75,-56 33.53,-31.07 113.93,-19.91 177.24,-14.94"/>
<polygon fill="midnightblue" stroke="midnightblue" points="177.53,-18.43 187.24,-14.2 177.01,-11.45 177.53,-18.43"/>
</g>
<!-- Node14&#45;&gt;Node4 -->
<g id="edge25" class="edge">
<title>Node14&#45;&gt;Node4</title>
<path fill="none" stroke="midnightblue" d="M184.26,-224.32C201.82,-215.62 229.08,-202.12 249.28,-192.11"/>
<polygon fill="midnightblue" stroke="midnightblue" points="250.87,-195.23 258.28,-187.65 247.76,-188.96 250.87,-195.23"/>
</g>
<!-- Node14&#45;&gt;Node8 -->
<g id="edge23" class="edge">
<title>Node14&#45;&gt;Node8</title>
<path fill="none" stroke="midnightblue" d="M170.58,-224.36C180.69,-202.47 210.22,-144.33 251.75,-112 269.5,-98.18 292.19,-87.09 310.71,-79.39"/>
<polygon fill="midnightblue" stroke="midnightblue" points="312.26,-82.53 320.24,-75.56 309.65,-76.04 312.26,-82.53"/>
</g>
</g>
</svg>
