<?xml version="1.0" encoding="UTF-8" standalone="no"?>
<!DOCTYPE svg PUBLIC "-//W3C//DTD SVG 1.1//EN"
 "http://www.w3.org/Graphics/SVG/1.1/DTD/svg11.dtd">
<!-- Generated by graphviz version 2.43.0 (0)
 -->
<!-- Title: IIRFilter.hpp Pages: 1 -->
<svg width="1039pt" height="644pt"
 viewBox="0.00 0.00 1039.00 644.00" xmlns="http://www.w3.org/2000/svg" xmlns:xlink="http://www.w3.org/1999/xlink">
<g id="graph0" class="graph" transform="scale(1 1) rotate(0) translate(4 640)">
<title>IIRFilter.hpp</title>
<polygon fill="white" stroke="transparent" points="-4,4 -4,-640 1035,-640 1035,4 -4,4"/>
<!-- Node1 -->
<g id="node1" class="node">
<title>Node1</title>
<g id="a_node1"><a xlink:title=" ">
<polygon fill="#bfbfbf" stroke="black" points="919.5,-616.5 919.5,-635.5 993.5,-635.5 993.5,-616.5 919.5,-616.5"/>
<text text-anchor="middle" x="956.5" y="-623.5" font-family="Helvetica,sans-Serif" font-size="10.00">IIRFilter.hpp</text>
</a>
</g>
</g>
<!-- Node2 -->
<g id="node2" class="node">
<title>Node2</title>
<g id="a_node2"><a xlink:href="../../de/d76/Array_8hpp.html" target="_top" xlink:title=" ">
<polygon fill="white" stroke="black" points="785,-504.5 785,-523.5 920,-523.5 920,-504.5 785,-504.5"/>
<text text-anchor="middle" x="852.5" y="-511.5" font-family="Helvetica,sans-Serif" font-size="10.00">AH/Containers/Array.hpp</text>
</a>
</g>
</g>
<!-- Node1&#45;&gt;Node2 -->
<g id="edge1" class="edge">
<title>Node1&#45;&gt;Node2</title>
<path fill="none" stroke="midnightblue" d="M955.92,-616.45C954.6,-603.01 950.31,-576.77 936.5,-560 924.37,-545.27 906.12,-534.67 889.72,-527.48"/>
<polygon fill="midnightblue" stroke="midnightblue" points="890.92,-524.19 880.34,-523.63 888.26,-530.67 890.92,-524.19"/>
</g>
<!-- Node12 -->
<g id="node12" class="node">
<title>Node12</title>
<g id="a_node12"><a xlink:title=" ">
<polygon fill="white" stroke="#bfbfbf" points="924,-112.5 924,-131.5 1031,-131.5 1031,-112.5 924,-112.5"/>
<text text-anchor="middle" x="977.5" y="-119.5" font-family="Helvetica,sans-Serif" font-size="10.00">AH/STL/type_traits</text>
</a>
</g>
</g>
<!-- Node1&#45;&gt;Node12 -->
<g id="edge37" class="edge">
<title>Node1&#45;&gt;Node12</title>
<path fill="none" stroke="midnightblue" d="M964.95,-616.44C981.27,-598.96 1015.5,-557.26 1015.5,-515 1015.5,-515 1015.5,-515 1015.5,-233 1015.5,-198.81 998.9,-161.76 987.64,-140.57"/>
<polygon fill="midnightblue" stroke="midnightblue" points="990.68,-138.83 982.78,-131.77 984.55,-142.22 990.68,-138.83"/>
</g>
<!-- Node22 -->
<g id="node22" class="node">
<title>Node22</title>
<g id="a_node22"><a xlink:href="../../d2/d03/TransferFunction_8hpp.html" target="_top" xlink:title=" ">
<polygon fill="white" stroke="black" points="777,-560.5 777,-579.5 928,-579.5 928,-560.5 777,-560.5"/>
<text text-anchor="middle" x="852.5" y="-567.5" font-family="Helvetica,sans-Serif" font-size="10.00">Filters/TransferFunction.hpp</text>
</a>
</g>
</g>
<!-- Node1&#45;&gt;Node22 -->
<g id="edge38" class="edge">
<title>Node1&#45;&gt;Node22</title>
<path fill="none" stroke="midnightblue" d="M939.79,-616.32C923.19,-607.7 897.5,-594.36 878.28,-584.39"/>
<polygon fill="midnightblue" stroke="midnightblue" points="879.66,-581.16 869.17,-579.65 876.43,-587.37 879.66,-581.16"/>
</g>
<!-- Node3 -->
<g id="node3" class="node">
<title>Node3</title>
<g id="a_node3"><a xlink:href="../../d1/d65/Warnings_8hpp.html" target="_top" xlink:title=" ">
<polygon fill="white" stroke="black" points="520,-0.5 520,-19.5 663,-19.5 663,-0.5 520,-0.5"/>
<text text-anchor="middle" x="591.5" y="-7.5" font-family="Helvetica,sans-Serif" font-size="10.00">AH/Settings/Warnings.hpp</text>
</a>
</g>
</g>
<!-- Node2&#45;&gt;Node3 -->
<g id="edge2" class="edge">
<title>Node2&#45;&gt;Node3</title>
<path fill="none" stroke="midnightblue" d="M849.67,-504.27C843.94,-485.79 831.5,-441.3 831.5,-403 831.5,-403 831.5,-403 831.5,-121 831.5,-49.68 742.84,-24.42 673.29,-15.58"/>
<polygon fill="midnightblue" stroke="midnightblue" points="673.52,-12.08 663.18,-14.39 672.71,-19.03 673.52,-12.08"/>
</g>
<!-- Node4 -->
<g id="node4" class="node">
<title>Node4</title>
<g id="a_node4"><a xlink:href="../../d1/d93/Error_8hpp.html" target="_top" xlink:title=" ">
<polygon fill="white" stroke="black" points="661.5,-448.5 661.5,-467.5 765.5,-467.5 765.5,-448.5 661.5,-448.5"/>
<text text-anchor="middle" x="713.5" y="-455.5" font-family="Helvetica,sans-Serif" font-size="10.00">AH/Error/Error.hpp</text>
</a>
</g>
</g>
<!-- Node2&#45;&gt;Node4 -->
<g id="edge3" class="edge">
<title>Node2&#45;&gt;Node4</title>
<path fill="none" stroke="midnightblue" d="M830.48,-504.44C807.4,-495.48 770.94,-481.31 744.86,-471.18"/>
<polygon fill="midnightblue" stroke="midnightblue" points="746.01,-467.88 735.42,-467.52 743.48,-474.4 746.01,-467.88"/>
</g>
<!-- Node2&#45;&gt;Node12 -->
<g id="edge35" class="edge">
<title>Node2&#45;&gt;Node12</title>
<path fill="none" stroke="midnightblue" d="M894.05,-504.46C916.03,-497.93 941.83,-486.75 958.5,-468 978.5,-445.51 977.5,-433.1 977.5,-403 977.5,-403 977.5,-403 977.5,-233 977.5,-200.95 977.5,-163.64 977.5,-141.75"/>
<polygon fill="midnightblue" stroke="midnightblue" points="981,-141.56 977.5,-131.56 974,-141.56 981,-141.56"/>
</g>
<!-- Node18 -->
<g id="node18" class="node">
<title>Node18</title>
<g id="a_node18"><a xlink:title=" ">
<polygon fill="white" stroke="#bfbfbf" points="585.5,-224.5 585.5,-243.5 641.5,-243.5 641.5,-224.5 585.5,-224.5"/>
<text text-anchor="middle" x="613.5" y="-231.5" font-family="Helvetica,sans-Serif" font-size="10.00">stddef.h</text>
</a>
</g>
</g>
<!-- Node2&#45;&gt;Node18 -->
<g id="edge36" class="edge">
<title>Node2&#45;&gt;Node18</title>
<path fill="none" stroke="midnightblue" d="M845.28,-504.22C838.02,-495.28 826.63,-480.94 817.5,-468 760.34,-387.01 770.21,-347.37 697.5,-280 682.59,-266.18 662.64,-255.26 645.92,-247.64"/>
<polygon fill="midnightblue" stroke="midnightblue" points="647.08,-244.33 636.51,-243.54 644.28,-250.74 647.08,-244.33"/>
</g>
<!-- Node21 -->
<g id="node21" class="node">
<title>Node21</title>
<g id="a_node21"><a xlink:title=" ">
<polygon fill="white" stroke="#bfbfbf" points="859.5,-448.5 859.5,-467.5 949.5,-467.5 949.5,-448.5 859.5,-448.5"/>
<text text-anchor="middle" x="904.5" y="-455.5" font-family="Helvetica,sans-Serif" font-size="10.00">AH/STL/iterator</text>
</a>
</g>
</g>
<!-- Node2&#45;&gt;Node21 -->
<g id="edge34" class="edge">
<title>Node2&#45;&gt;Node21</title>
<path fill="none" stroke="midnightblue" d="M861.09,-504.08C868.66,-496.22 879.88,-484.57 889.01,-475.08"/>
<polygon fill="midnightblue" stroke="midnightblue" points="891.66,-477.38 896.07,-467.75 886.62,-472.53 891.66,-477.38"/>
</g>
<!-- Node4&#45;&gt;Node3 -->
<g id="edge4" class="edge">
<title>Node4&#45;&gt;Node3</title>
<path fill="none" stroke="midnightblue" d="M719.25,-448.11C737.6,-418.9 793.5,-322.67 793.5,-235 793.5,-235 793.5,-235 793.5,-121 793.5,-61.86 725.89,-34.33 668.9,-21.63"/>
<polygon fill="midnightblue" stroke="midnightblue" points="669.27,-18.13 658.76,-19.5 667.83,-24.98 669.27,-18.13"/>
</g>
<!-- Node5 -->
<g id="node5" class="node">
<title>Node5</title>
<g id="a_node5"><a xlink:href="../../df/dee/Debug_8hpp.html" target="_top" xlink:title=" ">
<polygon fill="white" stroke="black" points="427,-392.5 427,-411.5 548,-411.5 548,-392.5 427,-392.5"/>
<text text-anchor="middle" x="487.5" y="-399.5" font-family="Helvetica,sans-Serif" font-size="10.00">AH/Debug/Debug.hpp</text>
</a>
</g>
</g>
<!-- Node4&#45;&gt;Node5 -->
<g id="edge5" class="edge">
<title>Node4&#45;&gt;Node5</title>
<path fill="none" stroke="midnightblue" d="M677.69,-448.44C638.51,-439.08 575.62,-424.06 532.98,-413.87"/>
<polygon fill="midnightblue" stroke="midnightblue" points="533.68,-410.44 523.14,-411.52 532.06,-417.24 533.68,-410.44"/>
</g>
<!-- Node5&#45;&gt;Node3 -->
<g id="edge6" class="edge">
<title>Node5&#45;&gt;Node3</title>
<path fill="none" stroke="midnightblue" d="M548.23,-397.54C616.37,-389.99 717.5,-366.14 717.5,-291 717.5,-291 717.5,-291 717.5,-121 717.5,-71.95 662.65,-39.74 625.33,-23.5"/>
<polygon fill="midnightblue" stroke="midnightblue" points="626.37,-20.14 615.79,-19.53 623.68,-26.61 626.37,-20.14"/>
</g>
<!-- Node6 -->
<g id="node6" class="node">
<title>Node6</title>
<g id="a_node6"><a xlink:href="../../dd/d80/PrintStream_8hpp.html" target="_top" xlink:title=" ">
<polygon fill="white" stroke="black" points="0,-224.5 0,-243.5 173,-243.5 173,-224.5 0,-224.5"/>
<text text-anchor="middle" x="86.5" y="-231.5" font-family="Helvetica,sans-Serif" font-size="10.00">AH/PrintStream/PrintStream.hpp</text>
</a>
</g>
</g>
<!-- Node5&#45;&gt;Node6 -->
<g id="edge7" class="edge">
<title>Node5&#45;&gt;Node6</title>
<path fill="none" stroke="midnightblue" d="M453.14,-392.41C396.24,-377.55 279.62,-344.3 187.5,-300 157.52,-285.58 125.67,-263.88 105.93,-249.58"/>
<polygon fill="midnightblue" stroke="midnightblue" points="107.9,-246.68 97.77,-243.59 103.76,-252.33 107.9,-246.68"/>
</g>
<!-- Node13 -->
<g id="node13" class="node">
<title>Node13</title>
<g id="a_node13"><a xlink:href="../../d2/dd5/SettingsWrapper_8hpp.html" target="_top" xlink:title=" ">
<polygon fill="white" stroke="black" points="398.5,-336.5 398.5,-355.5 576.5,-355.5 576.5,-336.5 398.5,-336.5"/>
<text text-anchor="middle" x="487.5" y="-343.5" font-family="Helvetica,sans-Serif" font-size="10.00">AH/Settings/SettingsWrapper.hpp</text>
</a>
</g>
</g>
<!-- Node5&#45;&gt;Node13 -->
<g id="edge19" class="edge">
<title>Node5&#45;&gt;Node13</title>
<path fill="none" stroke="midnightblue" d="M482.33,-392.08C480.82,-384.93 480.39,-374.64 481.04,-365.69"/>
<polygon fill="midnightblue" stroke="midnightblue" points="484.52,-366.13 482.37,-355.75 477.58,-365.2 484.52,-366.13"/>
</g>
<!-- Node6&#45;&gt;Node3 -->
<g id="edge9" class="edge">
<title>Node6&#45;&gt;Node3</title>
<path fill="none" stroke="midnightblue" d="M83.4,-224.11C73.98,-195.3 49.01,-103.59 94.5,-56 122.56,-26.64 376.1,-16.15 509.8,-12.64"/>
<polygon fill="midnightblue" stroke="midnightblue" points="510.09,-16.13 520,-12.38 509.91,-9.13 510.09,-16.13"/>
</g>
<!-- Node7 -->
<g id="node7" class="node">
<title>Node7</title>
<g id="a_node7"><a xlink:href="../../dc/dc7/NamespaceSettings_8hpp.html" target="_top" xlink:title=" ">
<polygon fill="white" stroke="black" points="104,-56.5 104,-75.5 299,-75.5 299,-56.5 104,-56.5"/>
<text text-anchor="middle" x="201.5" y="-63.5" font-family="Helvetica,sans-Serif" font-size="10.00">AH/Settings/NamespaceSettings.hpp</text>
</a>
</g>
</g>
<!-- Node6&#45;&gt;Node7 -->
<g id="edge8" class="edge">
<title>Node6&#45;&gt;Node7</title>
<path fill="none" stroke="midnightblue" d="M92.68,-224.08C111.02,-197.61 165.33,-119.21 189.58,-84.21"/>
<polygon fill="midnightblue" stroke="midnightblue" points="192.75,-85.78 195.56,-75.57 186.99,-81.8 192.75,-85.78"/>
</g>
<!-- Node8 -->
<g id="node8" class="node">
<title>Node8</title>
<g id="a_node8"><a xlink:href="../../d6/ddf/Arduino-Wrapper_8h.html" target="_top" xlink:title=" ">
<polygon fill="white" stroke="black" points="246.5,-168.5 246.5,-187.5 370.5,-187.5 370.5,-168.5 246.5,-168.5"/>
<text text-anchor="middle" x="308.5" y="-175.5" font-family="Helvetica,sans-Serif" font-size="10.00">AH/Arduino&#45;Wrapper.h</text>
</a>
</g>
</g>
<!-- Node6&#45;&gt;Node8 -->
<g id="edge10" class="edge">
<title>Node6&#45;&gt;Node8</title>
<path fill="none" stroke="midnightblue" d="M121.68,-224.44C160.08,-215.1 221.68,-200.12 263.56,-189.93"/>
<polygon fill="midnightblue" stroke="midnightblue" points="264.6,-193.28 273.49,-187.52 262.94,-186.48 264.6,-193.28"/>
</g>
<!-- Node9 -->
<g id="node9" class="node">
<title>Node9</title>
<g id="a_node9"><a xlink:href="../../d7/d79/MinMaxFix_8hpp.html" target="_top" xlink:title=" ">
<polygon fill="white" stroke="black" points="277.5,-112.5 277.5,-131.5 413.5,-131.5 413.5,-112.5 277.5,-112.5"/>
<text text-anchor="middle" x="345.5" y="-119.5" font-family="Helvetica,sans-Serif" font-size="10.00">AH/Math/MinMaxFix.hpp</text>
</a>
</g>
</g>
<!-- Node8&#45;&gt;Node9 -->
<g id="edge11" class="edge">
<title>Node8&#45;&gt;Node9</title>
<path fill="none" stroke="midnightblue" d="M314.61,-168.08C319.78,-160.53 327.35,-149.49 333.69,-140.23"/>
<polygon fill="midnightblue" stroke="midnightblue" points="336.74,-141.98 339.5,-131.75 330.96,-138.02 336.74,-141.98"/>
</g>
<!-- Node11 -->
<g id="node11" class="node">
<title>Node11</title>
<g id="a_node11"><a xlink:title=" ">
<polygon fill="white" stroke="#bfbfbf" points="189,-0.5 189,-19.5 252,-19.5 252,-0.5 189,-0.5"/>
<text text-anchor="middle" x="220.5" y="-7.5" font-family="Helvetica,sans-Serif" font-size="10.00">Arduino.h</text>
</a>
</g>
</g>
<!-- Node8&#45;&gt;Node11 -->
<g id="edge18" class="edge">
<title>Node8&#45;&gt;Node11</title>
<path fill="none" stroke="midnightblue" d="M255.63,-168.47C204.49,-157.09 129.69,-131.52 94.5,-76 72.25,-40.9 134.16,-23.82 178.9,-16.27"/>
<polygon fill="midnightblue" stroke="midnightblue" points="179.66,-19.69 188.99,-14.67 178.57,-12.77 179.66,-19.69"/>
</g>
<!-- Node8&#45;&gt;Node12 -->
<g id="edge17" class="edge">
<title>Node8&#45;&gt;Node12</title>
<path fill="none" stroke="midnightblue" d="M370.54,-171.99C497.48,-161.75 785.68,-138.48 913.92,-128.13"/>
<polygon fill="midnightblue" stroke="midnightblue" points="914.29,-131.61 923.98,-127.32 913.73,-124.64 914.29,-131.61"/>
</g>
<!-- Node9&#45;&gt;Node3 -->
<g id="edge12" class="edge">
<title>Node9&#45;&gt;Node3</title>
<path fill="none" stroke="midnightblue" d="M386.5,-112.43C417.61,-105.07 460.94,-92.95 496.5,-76 525.18,-62.33 554.88,-40.57 573.27,-26.04"/>
<polygon fill="midnightblue" stroke="midnightblue" points="575.73,-28.55 581.33,-19.55 571.35,-23.09 575.73,-28.55"/>
</g>
<!-- Node9&#45;&gt;Node7 -->
<g id="edge16" class="edge">
<title>Node9&#45;&gt;Node7</title>
<path fill="none" stroke="midnightblue" d="M322.68,-112.44C298.67,-103.44 260.67,-89.19 233.63,-79.05"/>
<polygon fill="midnightblue" stroke="midnightblue" points="234.8,-75.75 224.21,-75.52 232.34,-82.3 234.8,-75.75"/>
</g>
<!-- Node10 -->
<g id="node10" class="node">
<title>Node10</title>
<g id="a_node10"><a xlink:href="../../d6/d3b/FixArduinoMacros_8hpp.html" target="_top" xlink:title=" ">
<polygon fill="white" stroke="black" points="317.5,-56.5 317.5,-75.5 487.5,-75.5 487.5,-56.5 317.5,-56.5"/>
<text text-anchor="middle" x="402.5" y="-63.5" font-family="Helvetica,sans-Serif" font-size="10.00">AH/Math/FixArduinoMacros.hpp</text>
</a>
</g>
</g>
<!-- Node9&#45;&gt;Node10 -->
<g id="edge13" class="edge">
<title>Node9&#45;&gt;Node10</title>
<path fill="none" stroke="midnightblue" d="M354.66,-112.32C363,-104.42 375.53,-92.55 385.68,-82.94"/>
<polygon fill="midnightblue" stroke="midnightblue" points="388.32,-85.25 393.18,-75.83 383.51,-80.17 388.32,-85.25"/>
</g>
<!-- Node10&#45;&gt;Node3 -->
<g id="edge14" class="edge">
<title>Node10&#45;&gt;Node3</title>
<path fill="none" stroke="midnightblue" d="M432.45,-56.44C464.66,-47.24 516.03,-32.56 551.64,-22.39"/>
<polygon fill="midnightblue" stroke="midnightblue" points="553.04,-25.63 561.69,-19.52 551.12,-18.9 553.04,-25.63"/>
</g>
<!-- Node10&#45;&gt;Node11 -->
<g id="edge15" class="edge">
<title>Node10&#45;&gt;Node11</title>
<path fill="none" stroke="midnightblue" d="M373.66,-56.44C342.64,-47.24 293.17,-32.56 258.88,-22.39"/>
<polygon fill="midnightblue" stroke="midnightblue" points="259.79,-19.01 249.2,-19.52 257.79,-25.72 259.79,-19.01"/>
</g>
<!-- Node13&#45;&gt;Node3 -->
<g id="edge20" class="edge">
<title>Node13&#45;&gt;Node3</title>
<path fill="none" stroke="midnightblue" d="M487.45,-336.48C487.85,-322.6 490.74,-295.16 506.5,-280 554.06,-234.28 602.94,-289.72 650.5,-244 672.2,-223.14 669.5,-209.1 669.5,-179 669.5,-179 669.5,-179 669.5,-121 669.5,-80.97 634.7,-45.34 611.59,-26.09"/>
<polygon fill="midnightblue" stroke="midnightblue" points="613.68,-23.28 603.69,-19.76 609.3,-28.74 613.68,-23.28"/>
</g>
<!-- Node13&#45;&gt;Node5 -->
<g id="edge33" class="edge">
<title>Node13&#45;&gt;Node5</title>
<path fill="none" stroke="midnightblue" d="M492.63,-355.75C494.16,-362.86 494.6,-373.14 493.97,-382.1"/>
<polygon fill="midnightblue" stroke="midnightblue" points="490.49,-381.71 492.67,-392.08 497.43,-382.62 490.49,-381.71"/>
</g>
<!-- Node13&#45;&gt;Node7 -->
<g id="edge21" class="edge">
<title>Node13&#45;&gt;Node7</title>
<path fill="none" stroke="midnightblue" d="M438.01,-336.49C356.15,-320.99 201.5,-285.07 201.5,-235 201.5,-235 201.5,-235 201.5,-177 201.5,-144.95 201.5,-107.64 201.5,-85.75"/>
<polygon fill="midnightblue" stroke="midnightblue" points="205,-85.56 201.5,-75.56 198,-85.56 205,-85.56"/>
</g>
<!-- Node14 -->
<g id="node14" class="node">
<title>Node14</title>
<g id="a_node14"><a xlink:href="../../db/d02/Settings_8hpp.html" target="_top" xlink:title="All user settings and debugging options can be changed here.">
<polygon fill="white" stroke="black" points="382,-280.5 382,-299.5 459,-299.5 459,-280.5 382,-280.5"/>
<text text-anchor="middle" x="420.5" y="-287.5" font-family="Helvetica,sans-Serif" font-size="10.00">Settings.hpp</text>
</a>
</g>
</g>
<!-- Node13&#45;&gt;Node14 -->
<g id="edge22" class="edge">
<title>Node13&#45;&gt;Node14</title>
<path fill="none" stroke="midnightblue" d="M476.74,-336.32C466.73,-328.26 451.61,-316.08 439.57,-306.37"/>
<polygon fill="midnightblue" stroke="midnightblue" points="441.44,-303.38 431.46,-299.83 437.05,-308.83 441.44,-303.38"/>
</g>
<!-- Node20 -->
<g id="node20" class="node">
<title>Node20</title>
<g id="a_node20"><a xlink:href="../../d9/d98/TeensyUSBTypes_8hpp.html" target="_top" xlink:title=" ">
<polygon fill="white" stroke="black" points="516,-280.5 516,-299.5 689,-299.5 689,-280.5 516,-280.5"/>
<text text-anchor="middle" x="602.5" y="-287.5" font-family="Helvetica,sans-Serif" font-size="10.00">AH/Teensy/TeensyUSBTypes.hpp</text>
</a>
</g>
</g>
<!-- Node13&#45;&gt;Node20 -->
<g id="edge32" class="edge">
<title>Node13&#45;&gt;Node20</title>
<path fill="none" stroke="midnightblue" d="M505.72,-336.44C524.4,-327.68 553.66,-313.94 575.12,-303.86"/>
<polygon fill="midnightblue" stroke="midnightblue" points="576.8,-306.93 584.36,-299.52 573.82,-300.6 576.8,-306.93"/>
</g>
<!-- Node15 -->
<g id="node15" class="node">
<title>Node15</title>
<g id="a_node15"><a xlink:href="../../dc/d50/Frequency_8hpp.html" target="_top" xlink:title=" ">
<polygon fill="white" stroke="black" points="507.5,-112.5 507.5,-131.5 641.5,-131.5 641.5,-112.5 507.5,-112.5"/>
<text text-anchor="middle" x="574.5" y="-119.5" font-family="Helvetica,sans-Serif" font-size="10.00">AH/Types/Frequency.hpp</text>
</a>
</g>
</g>
<!-- Node14&#45;&gt;Node15 -->
<g id="edge23" class="edge">
<title>Node14&#45;&gt;Node15</title>
<path fill="none" stroke="midnightblue" d="M459.11,-283.14C484.62,-277.33 517.02,-265.97 537.5,-244 564.24,-215.3 571.68,-167.76 573.73,-141.63"/>
<polygon fill="midnightblue" stroke="midnightblue" points="577.23,-141.76 574.34,-131.57 570.24,-141.34 577.23,-141.76"/>
</g>
<!-- Node16 -->
<g id="node16" class="node">
<title>Node16</title>
<g id="a_node16"><a xlink:href="../../d7/d7c/ADCConfig_8hpp.html" target="_top" xlink:title="This file contains the platform&#45;specific ADC resolutions.">
<polygon fill="white" stroke="black" points="230,-224.5 230,-243.5 387,-243.5 387,-224.5 230,-224.5"/>
<text text-anchor="middle" x="308.5" y="-231.5" font-family="Helvetica,sans-Serif" font-size="10.00">AH/Hardware/ADCConfig.hpp</text>
</a>
</g>
</g>
<!-- Node14&#45;&gt;Node16 -->
<g id="edge26" class="edge">
<title>Node14&#45;&gt;Node16</title>
<path fill="none" stroke="midnightblue" d="M402.51,-280.32C384.46,-271.62 356.45,-258.12 335.7,-248.11"/>
<polygon fill="midnightblue" stroke="midnightblue" points="336.98,-244.84 326.45,-243.65 333.94,-251.15 336.98,-244.84"/>
</g>
<!-- Node17 -->
<g id="node17" class="node">
<title>Node17</title>
<g id="a_node17"><a xlink:title=" ">
<polygon fill="white" stroke="#bfbfbf" points="405,-224.5 405,-243.5 458,-243.5 458,-224.5 405,-224.5"/>
<text text-anchor="middle" x="431.5" y="-231.5" font-family="Helvetica,sans-Serif" font-size="10.00">limits.h</text>
</a>
</g>
</g>
<!-- Node14&#45;&gt;Node17 -->
<g id="edge29" class="edge">
<title>Node14&#45;&gt;Node17</title>
<path fill="none" stroke="midnightblue" d="M422.32,-280.08C423.77,-272.93 425.87,-262.64 427.69,-253.69"/>
<polygon fill="midnightblue" stroke="midnightblue" points="431.15,-254.25 429.72,-243.75 424.29,-252.85 431.15,-254.25"/>
</g>
<!-- Node14&#45;&gt;Node18 -->
<g id="edge30" class="edge">
<title>Node14&#45;&gt;Node18</title>
<path fill="none" stroke="midnightblue" d="M451.08,-280.44C484.79,-271.01 539.07,-255.83 575.49,-245.63"/>
<polygon fill="midnightblue" stroke="midnightblue" points="576.57,-248.97 585.26,-242.9 574.69,-242.23 576.57,-248.97"/>
</g>
<!-- Node19 -->
<g id="node19" class="node">
<title>Node19</title>
<g id="a_node19"><a xlink:title=" ">
<polygon fill="white" stroke="#bfbfbf" points="476,-224.5 476,-243.5 529,-243.5 529,-224.5 476,-224.5"/>
<text text-anchor="middle" x="502.5" y="-231.5" font-family="Helvetica,sans-Serif" font-size="10.00">stdint.h</text>
</a>
</g>
</g>
<!-- Node14&#45;&gt;Node19 -->
<g id="edge31" class="edge">
<title>Node14&#45;&gt;Node19</title>
<path fill="none" stroke="midnightblue" d="M433.67,-280.32C446.35,-271.98 465.73,-259.21 480.71,-249.35"/>
<polygon fill="midnightblue" stroke="midnightblue" points="482.93,-252.08 489.36,-243.65 479.08,-246.23 482.93,-252.08"/>
</g>
<!-- Node15&#45;&gt;Node3 -->
<g id="edge24" class="edge">
<title>Node15&#45;&gt;Node3</title>
<path fill="none" stroke="midnightblue" d="M575.83,-112.37C578.58,-94.62 584.91,-53.67 588.63,-29.6"/>
<polygon fill="midnightblue" stroke="midnightblue" points="592.1,-30.01 590.17,-19.59 585.19,-28.94 592.1,-30.01"/>
</g>
<!-- Node15&#45;&gt;Node7 -->
<g id="edge25" class="edge">
<title>Node15&#45;&gt;Node7</title>
<path fill="none" stroke="midnightblue" d="M515.4,-112.44C448.83,-102.81 340.78,-87.16 270.42,-76.98"/>
<polygon fill="midnightblue" stroke="midnightblue" points="270.72,-73.49 260.33,-75.52 269.72,-80.41 270.72,-73.49"/>
</g>
<!-- Node16&#45;&gt;Node3 -->
<g id="edge27" class="edge">
<title>Node16&#45;&gt;Node3</title>
<path fill="none" stroke="midnightblue" d="M322.87,-224.38C337.38,-215.56 360.31,-201.31 379.5,-188 447.28,-140.99 465.51,-130.42 527.5,-76 545.24,-60.43 564.02,-40.95 576.61,-27.4"/>
<polygon fill="midnightblue" stroke="midnightblue" points="579.4,-29.54 583.59,-19.81 574.25,-24.8 579.4,-29.54"/>
</g>
<!-- Node16&#45;&gt;Node8 -->
<g id="edge28" class="edge">
<title>Node16&#45;&gt;Node8</title>
<path fill="none" stroke="midnightblue" d="M308.5,-224.08C308.5,-217.01 308.5,-206.86 308.5,-197.99"/>
<polygon fill="midnightblue" stroke="midnightblue" points="312,-197.75 308.5,-187.75 305,-197.75 312,-197.75"/>
</g>
<!-- Node22&#45;&gt;Node2 -->
<g id="edge39" class="edge">
<title>Node22&#45;&gt;Node2</title>
<path fill="none" stroke="midnightblue" d="M852.5,-560.08C852.5,-553.01 852.5,-542.86 852.5,-533.99"/>
<polygon fill="midnightblue" stroke="midnightblue" points="856,-533.75 852.5,-523.75 849,-533.75 856,-533.75"/>
</g>
</g>
</svg>
