<?xml version="1.0" encoding="UTF-8" standalone="no"?>
<!DOCTYPE svg PUBLIC "-//W3C//DTD SVG 1.1//EN"
 "http://www.w3.org/Graphics/SVG/1.1/DTD/svg11.dtd">
<!-- Generated by graphviz version 2.38.0 (20140413.2041)
 -->
<!-- Title: DebugVal.hpp Pages: 1 -->
<svg width="1621pt" height="588pt"
 viewBox="0.00 0.00 1620.50 588.00" xmlns="http://www.w3.org/2000/svg" xmlns:xlink="http://www.w3.org/1999/xlink">
<g id="graph0" class="graph" transform="scale(1 1) rotate(0) translate(4 584)">
<title>DebugVal.hpp</title>
<polygon fill="white" stroke="none" points="-4,4 -4,-584 1616.5,-584 1616.5,4 -4,4"/>
<!-- Node1 -->
<g id="node1" class="node"><title>Node1</title>
<g id="a_node1"><a xlink:title=" ">
<polygon fill="#bfbfbf" stroke="black" points="816,-560.5 816,-579.5 894,-579.5 894,-560.5 816,-560.5"/>
<text text-anchor="middle" x="855" y="-567.5" font-family="Helvetica,sans-Serif" font-size="10.00">DebugVal.hpp</text>
</a>
</g>
</g>
<!-- Node2 -->
<g id="node2" class="node"><title>Node2</title>
<g id="a_node2"><a xlink:href="../../df/dee/Debug_8hpp.html" target="_top" xlink:title=" ">
<polygon fill="white" stroke="black" points="823,-504.5 823,-523.5 887,-523.5 887,-504.5 823,-504.5"/>
<text text-anchor="middle" x="855" y="-511.5" font-family="Helvetica,sans-Serif" font-size="10.00">Debug.hpp</text>
</a>
</g>
</g>
<!-- Node1&#45;&gt;Node2 -->
<g id="edge1" class="edge"><title>Node1&#45;&gt;Node2</title>
<path fill="none" stroke="midnightblue" d="M855,-549.805C855,-540.91 855,-530.78 855,-523.751"/>
<polygon fill="midnightblue" stroke="midnightblue" points="851.5,-550.083 855,-560.083 858.5,-550.083 851.5,-550.083"/>
</g>
<!-- Node3 -->
<g id="node3" class="node"><title>Node3</title>
<g id="a_node3"><a xlink:href="../../de/dd1/LinkedList_8hpp.html" target="_top" xlink:title=" ">
<polygon fill="white" stroke="black" points="654,-448.5 654,-467.5 734,-467.5 734,-448.5 654,-448.5"/>
<text text-anchor="middle" x="694" y="-455.5" font-family="Helvetica,sans-Serif" font-size="10.00">LinkedList.hpp</text>
</a>
</g>
</g>
<!-- Node2&#45;&gt;Node3 -->
<g id="edge2" class="edge"><title>Node2&#45;&gt;Node3</title>
<path fill="none" stroke="midnightblue" d="M819.735,-501.172C789.419,-491.004 746.43,-476.585 719.392,-467.516"/>
<polygon fill="midnightblue" stroke="midnightblue" points="818.895,-504.582 829.489,-504.444 821.121,-497.945 818.895,-504.582"/>
</g>
<!-- Node31 -->
<g id="node31" class="node"><title>Node31</title>
<g id="a_node31"><a xlink:href="../../df/d66/Debug_8cpp.html" target="_top" xlink:title=" ">
<polygon fill="white" stroke="black" points="1099,-448.5 1099,-467.5 1163,-467.5 1163,-448.5 1099,-448.5"/>
<text text-anchor="middle" x="1131" y="-455.5" font-family="Helvetica,sans-Serif" font-size="10.00">Debug.cpp</text>
</a>
</g>
</g>
<!-- Node2&#45;&gt;Node31 -->
<g id="edge40" class="edge"><title>Node2&#45;&gt;Node31</title>
<path fill="none" stroke="midnightblue" d="M897.208,-505.271C944.298,-496.566 1022.71,-481.825 1090,-468 1092.86,-467.413 1095.82,-466.79 1098.79,-466.157"/>
<polygon fill="midnightblue" stroke="midnightblue" points="896.564,-501.831 887.365,-507.087 897.834,-508.715 896.564,-501.831"/>
</g>
<!-- Node32 -->
<g id="node32" class="node"><title>Node32</title>
<g id="a_node32"><a xlink:href="../../d1/d93/Error_8hpp.html" target="_top" xlink:title=" ">
<polygon fill="white" stroke="black" points="1025,-448.5 1025,-467.5 1081,-467.5 1081,-448.5 1025,-448.5"/>
<text text-anchor="middle" x="1053" y="-455.5" font-family="Helvetica,sans-Serif" font-size="10.00">Error.hpp</text>
</a>
</g>
</g>
<!-- Node2&#45;&gt;Node32 -->
<g id="edge41" class="edge"><title>Node2&#45;&gt;Node32</title>
<path fill="none" stroke="midnightblue" d="M896.255,-501.749C934.831,-491.228 991.391,-475.802 1024.97,-466.643"/>
<polygon fill="midnightblue" stroke="midnightblue" points="895.1,-498.436 886.374,-504.444 896.942,-505.189 895.1,-498.436"/>
</g>
<!-- Node40 -->
<g id="node40" class="node"><title>Node40</title>
<g id="a_node40"><a xlink:href="../../d2/dd5/SettingsWrapper_8hpp.html" target="_top" xlink:title=" ">
<polygon fill="white" stroke="black" points="801,-448.5 801,-467.5 909,-467.5 909,-448.5 801,-448.5"/>
<text text-anchor="middle" x="855" y="-455.5" font-family="Helvetica,sans-Serif" font-size="10.00">SettingsWrapper.hpp</text>
</a>
</g>
</g>
<!-- Node2&#45;&gt;Node40 -->
<g id="edge60" class="edge"><title>Node2&#45;&gt;Node40</title>
<path fill="none" stroke="midnightblue" d="M848.528,-494.101C847.896,-485.136 848.343,-474.858 849.869,-467.751"/>
<polygon fill="midnightblue" stroke="midnightblue" points="845.066,-494.622 849.834,-504.083 852.007,-493.713 845.066,-494.622"/>
</g>
<!-- Node4 -->
<g id="node4" class="node"><title>Node4</title>
<g id="a_node4"><a xlink:href="../../d4/d93/Updatable_8hpp.html" target="_top" xlink:title=" ">
<polygon fill="white" stroke="black" points="654,-392.5 654,-411.5 734,-411.5 734,-392.5 654,-392.5"/>
<text text-anchor="middle" x="694" y="-399.5" font-family="Helvetica,sans-Serif" font-size="10.00">Updatable.hpp</text>
</a>
</g>
</g>
<!-- Node3&#45;&gt;Node4 -->
<g id="edge3" class="edge"><title>Node3&#45;&gt;Node4</title>
<path fill="none" stroke="midnightblue" d="M694,-437.805C694,-428.91 694,-418.78 694,-411.751"/>
<polygon fill="midnightblue" stroke="midnightblue" points="690.5,-438.083 694,-448.083 697.5,-438.083 690.5,-438.083"/>
</g>
<!-- Node5 -->
<g id="node5" class="node"><title>Node5</title>
<g id="a_node5"><a xlink:href="../../d4/d57/ExtendedIOElement_8hpp.html" target="_top" xlink:title=" ">
<polygon fill="white" stroke="black" points="882.5,-280.5 882.5,-299.5 1005.5,-299.5 1005.5,-280.5 882.5,-280.5"/>
<text text-anchor="middle" x="944" y="-287.5" font-family="Helvetica,sans-Serif" font-size="10.00">ExtendedIOElement.hpp</text>
</a>
</g>
</g>
<!-- Node3&#45;&gt;Node5 -->
<g id="edge4" class="edge"><title>Node3&#45;&gt;Node5</title>
<path fill="none" stroke="midnightblue" d="M670.904,-442.354C660.958,-434.659 650.39,-424.268 645,-412 629.389,-376.469 654.813,-356.119 688,-336 719.884,-316.671 817.275,-303.546 882.318,-296.669"/>
<polygon fill="midnightblue" stroke="midnightblue" points="669.172,-445.419 679.339,-448.402 673.252,-439.73 669.172,-445.419"/>
</g>
<!-- Node6 -->
<g id="node6" class="node"><title>Node6</title>
<g id="a_node6"><a xlink:href="../../dd/ddf/ExtendedInputOutput_8hpp.html" target="_top" xlink:title=" ">
<polygon fill="white" stroke="black" points="698,-224.5 698,-243.5 826,-243.5 826,-224.5 698,-224.5"/>
<text text-anchor="middle" x="762" y="-231.5" font-family="Helvetica,sans-Serif" font-size="10.00">ExtendedInputOutput.hpp</text>
</a>
</g>
</g>
<!-- Node5&#45;&gt;Node6 -->
<g id="edge5" class="edge"><title>Node5&#45;&gt;Node6</title>
<path fill="none" stroke="midnightblue" d="M905.469,-277.568C871.136,-267.381 821.667,-252.703 790.704,-243.516"/>
<polygon fill="midnightblue" stroke="midnightblue" points="904.579,-280.954 915.162,-280.444 906.57,-274.244 904.579,-280.954"/>
</g>
<!-- Node16 -->
<g id="node16" class="node"><title>Node16</title>
<g id="a_node16"><a xlink:href="../../d6/d3c/ExtendedInputOutput_8cpp.html" target="_top" xlink:title=" ">
<polygon fill="white" stroke="black" points="983,-168.5 983,-187.5 1111,-187.5 1111,-168.5 983,-168.5"/>
<text text-anchor="middle" x="1047" y="-175.5" font-family="Helvetica,sans-Serif" font-size="10.00">ExtendedInputOutput.cpp</text>
</a>
</g>
</g>
<!-- Node5&#45;&gt;Node16 -->
<g id="edge38" class="edge"><title>Node5&#45;&gt;Node16</title>
<path fill="none" stroke="midnightblue" d="M926.115,-272.839C913.206,-259.182 899.848,-239.436 911,-224 922.141,-208.578 968.544,-195.516 1004.08,-187.502"/>
<polygon fill="midnightblue" stroke="midnightblue" points="923.897,-275.567 933.474,-280.098 928.812,-270.584 923.897,-275.567"/>
</g>
<!-- Node29 -->
<g id="node29" class="node"><title>Node29</title>
<g id="a_node29"><a xlink:href="../../d2/d05/StaticSizeExtendedIOElement_8hpp.html" target="_top" xlink:title=" ">
<polygon fill="white" stroke="black" points="1335,-224.5 1335,-243.5 1503,-243.5 1503,-224.5 1335,-224.5"/>
<text text-anchor="middle" x="1419" y="-231.5" font-family="Helvetica,sans-Serif" font-size="10.00">StaticSizeExtendedIOElement.hpp</text>
</a>
</g>
</g>
<!-- Node5&#45;&gt;Node29 -->
<g id="edge34" class="edge"><title>Node5&#45;&gt;Node29</title>
<path fill="none" stroke="midnightblue" d="M1015.57,-280.864C1104.12,-270.797 1254.19,-253.737 1344.2,-243.503"/>
<polygon fill="midnightblue" stroke="midnightblue" points="1015.15,-277.389 1005.61,-281.996 1015.94,-284.344 1015.15,-277.389"/>
</g>
<!-- Node30 -->
<g id="node30" class="node"><title>Node30</title>
<g id="a_node30"><a xlink:href="../../da/d1f/ExtendedIOElement_8cpp.html" target="_top" xlink:title=" ">
<polygon fill="white" stroke="black" points="920.5,-224.5 920.5,-243.5 1043.5,-243.5 1043.5,-224.5 920.5,-224.5"/>
<text text-anchor="middle" x="982" y="-231.5" font-family="Helvetica,sans-Serif" font-size="10.00">ExtendedIOElement.cpp</text>
</a>
</g>
</g>
<!-- Node5&#45;&gt;Node30 -->
<g id="edge39" class="edge"><title>Node5&#45;&gt;Node30</title>
<path fill="none" stroke="midnightblue" d="M956.065,-271.855C962.645,-262.505 970.511,-251.327 975.842,-243.751"/>
<polygon fill="midnightblue" stroke="midnightblue" points="953.168,-269.891 950.275,-280.083 958.892,-273.919 953.168,-269.891"/>
</g>
<!-- Node7 -->
<g id="node7" class="node"><title>Node7</title>
<g id="a_node7"><a xlink:href="../../d4/db3/Button_8hpp.html" target="_top" xlink:title=" ">
<polygon fill="white" stroke="black" points="256,-168.5 256,-187.5 320,-187.5 320,-168.5 256,-168.5"/>
<text text-anchor="middle" x="288" y="-175.5" font-family="Helvetica,sans-Serif" font-size="10.00">Button.hpp</text>
</a>
</g>
</g>
<!-- Node6&#45;&gt;Node7 -->
<g id="edge6" class="edge"><title>Node6&#45;&gt;Node7</title>
<path fill="none" stroke="midnightblue" d="M687.358,-224.496C582.218,-212.519 394.993,-191.189 320.183,-182.666"/>
<polygon fill="midnightblue" stroke="midnightblue" points="687.249,-228.007 697.581,-225.661 688.041,-221.052 687.249,-228.007"/>
</g>
<!-- Node13 -->
<g id="node13" class="node"><title>Node13</title>
<g id="a_node13"><a xlink:href="../../d5/d41/ButtonMatrix_8ipp.html" target="_top" xlink:title=" ">
<polygon fill="white" stroke="black" points="569,-168.5 569,-187.5 657,-187.5 657,-168.5 569,-168.5"/>
<text text-anchor="middle" x="613" y="-175.5" font-family="Helvetica,sans-Serif" font-size="10.00">ButtonMatrix.ipp</text>
</a>
</g>
</g>
<!-- Node6&#45;&gt;Node13 -->
<g id="edge12" class="edge"><title>Node6&#45;&gt;Node13</title>
<path fill="none" stroke="midnightblue" d="M728.629,-220.906C700.616,-210.754 661.304,-196.506 636.499,-187.516"/>
<polygon fill="midnightblue" stroke="midnightblue" points="727.796,-224.327 738.391,-224.444 730.181,-217.746 727.796,-224.327"/>
</g>
<!-- Node15 -->
<g id="node15" class="node"><title>Node15</title>
<g id="a_node15"><a xlink:href="../../d7/def/AnalogMultiplex_8hpp.html" target="_top" xlink:title=" ">
<polygon fill="white" stroke="black" points="1283,-168.5 1283,-187.5 1387,-187.5 1387,-168.5 1283,-168.5"/>
<text text-anchor="middle" x="1335" y="-175.5" font-family="Helvetica,sans-Serif" font-size="10.00">AnalogMultiplex.hpp</text>
</a>
</g>
</g>
<!-- Node6&#45;&gt;Node15 -->
<g id="edge15" class="edge"><title>Node6&#45;&gt;Node15</title>
<path fill="none" stroke="midnightblue" d="M836.066,-226.02C953.716,-214.933 1180.43,-193.567 1282.7,-183.929"/>
<polygon fill="midnightblue" stroke="midnightblue" points="835.69,-222.54 826.062,-226.963 836.347,-229.509 835.69,-222.54"/>
</g>
<!-- Node6&#45;&gt;Node16 -->
<g id="edge16" class="edge"><title>Node6&#45;&gt;Node16</title>
<path fill="none" stroke="midnightblue" d="M817.221,-222.537C871.083,-212.332 952.004,-196.999 1002.05,-187.516"/>
<polygon fill="midnightblue" stroke="midnightblue" points="816.333,-219.143 807.159,-224.444 817.636,-226.021 816.333,-219.143"/>
</g>
<!-- Node17 -->
<g id="node17" class="node"><title>Node17</title>
<g id="a_node17"><a xlink:href="../../d5/d47/ShiftRegisterOutBase_8ipp.html" target="_top" xlink:title=" ">
<polygon fill="white" stroke="black" points="837,-168.5 837,-187.5 965,-187.5 965,-168.5 837,-168.5"/>
<text text-anchor="middle" x="901" y="-175.5" font-family="Helvetica,sans-Serif" font-size="10.00">ShiftRegisterOutBase.ipp</text>
</a>
</g>
</g>
<!-- Node6&#45;&gt;Node17 -->
<g id="edge17" class="edge"><title>Node6&#45;&gt;Node17</title>
<path fill="none" stroke="midnightblue" d="M793.476,-220.772C819.585,-210.629 856.039,-196.467 879.078,-187.516"/>
<polygon fill="midnightblue" stroke="midnightblue" points="792.079,-217.56 784.025,-224.444 794.614,-224.085 792.079,-217.56"/>
</g>
<!-- Node20 -->
<g id="node20" class="node"><title>Node20</title>
<g id="a_node20"><a xlink:href="../../de/d95/ShiftRegisterOut_8ipp.html" target="_top" xlink:title=" ">
<polygon fill="white" stroke="black" points="489.5,-0.5 489.5,-19.5 594.5,-19.5 594.5,-0.5 489.5,-0.5"/>
<text text-anchor="middle" x="542" y="-7.5" font-family="Helvetica,sans-Serif" font-size="10.00">ShiftRegisterOut.ipp</text>
</a>
</g>
</g>
<!-- Node6&#45;&gt;Node20 -->
<g id="edge26" class="edge"><title>Node6&#45;&gt;Node20</title>
<path fill="none" stroke="midnightblue" d="M687.743,-224.445C606.204,-214.627 484.217,-198.527 465,-188 435.996,-172.111 427.632,-162.958 416,-132 395.465,-77.3484 477.058,-36.4702 518.798,-19.5534"/>
<polygon fill="midnightblue" stroke="midnightblue" points="687.627,-227.956 697.973,-225.669 688.459,-221.006 687.627,-227.956"/>
</g>
<!-- Node22 -->
<g id="node22" class="node"><title>Node22</title>
<g id="a_node22"><a xlink:href="../../da/d45/SPIShiftRegisterOut_8ipp.html" target="_top" xlink:title=" ">
<polygon fill="white" stroke="black" points="916,-0.5 916,-19.5 1038,-19.5 1038,-0.5 916,-0.5"/>
<text text-anchor="middle" x="977" y="-7.5" font-family="Helvetica,sans-Serif" font-size="10.00">SPIShiftRegisterOut.ipp</text>
</a>
</g>
</g>
<!-- Node6&#45;&gt;Node22 -->
<g id="edge27" class="edge"><title>Node6&#45;&gt;Node22</title>
<path fill="none" stroke="midnightblue" d="M734.873,-219.324C723.096,-211.823 710.523,-201.316 704,-188 697.224,-174.167 689.999,-134.184 706,-112 754.171,-45.2157 851.841,-22.5484 915.821,-14.8814"/>
<polygon fill="midnightblue" stroke="midnightblue" points="733.218,-222.411 743.611,-224.471 736.771,-216.379 733.218,-222.411"/>
</g>
<!-- Node23 -->
<g id="node23" class="node"><title>Node23</title>
<g id="a_node23"><a xlink:href="../../d8/df3/FilteredAnalog_8hpp.html" target="_top" xlink:title=" ">
<polygon fill="white" stroke="black" points="1129,-168.5 1129,-187.5 1227,-187.5 1227,-168.5 1129,-168.5"/>
<text text-anchor="middle" x="1178" y="-175.5" font-family="Helvetica,sans-Serif" font-size="10.00">FilteredAnalog.hpp</text>
</a>
</g>
</g>
<!-- Node6&#45;&gt;Node23 -->
<g id="edge28" class="edge"><title>Node6&#45;&gt;Node23</title>
<path fill="none" stroke="midnightblue" d="M836.043,-224.326C908.496,-215.689 1021.95,-201.767 1120,-188 1122.93,-187.589 1125.93,-187.156 1128.97,-186.71"/>
<polygon fill="midnightblue" stroke="midnightblue" points="835.614,-220.852 826.097,-225.509 836.441,-227.803 835.614,-220.852"/>
</g>
<!-- Node24 -->
<g id="node24" class="node"><title>Node24</title>
<g id="a_node24"><a xlink:href="../../d9/d4f/LEDs_8hpp.html" target="_top" xlink:title=" ">
<polygon fill="white" stroke="black" points="474,-168.5 474,-187.5 534,-187.5 534,-168.5 474,-168.5"/>
<text text-anchor="middle" x="504" y="-175.5" font-family="Helvetica,sans-Serif" font-size="10.00">LEDs.hpp</text>
</a>
</g>
</g>
<!-- Node6&#45;&gt;Node24 -->
<g id="edge29" class="edge"><title>Node6&#45;&gt;Node24</title>
<path fill="none" stroke="midnightblue" d="M711.288,-222.386C658.541,-211.346 577.709,-194.427 534.21,-185.323"/>
<polygon fill="midnightblue" stroke="midnightblue" points="710.614,-225.821 721.119,-224.444 712.048,-218.969 710.614,-225.821"/>
</g>
<!-- Node26 -->
<g id="node26" class="node"><title>Node26</title>
<g id="a_node26"><a xlink:href="../../d7/d13/MAX7219__Base_8hpp.html" target="_top" xlink:title=" ">
<polygon fill="white" stroke="black" points="713,-168.5 713,-187.5 819,-187.5 819,-168.5 713,-168.5"/>
<text text-anchor="middle" x="766" y="-175.5" font-family="Helvetica,sans-Serif" font-size="10.00">MAX7219_Base.hpp</text>
</a>
</g>
</g>
<!-- Node6&#45;&gt;Node26 -->
<g id="edge31" class="edge"><title>Node6&#45;&gt;Node26</title>
<path fill="none" stroke="midnightblue" d="M763.4,-214.101C764.064,-205.136 764.825,-194.858 765.352,-187.751"/>
<polygon fill="midnightblue" stroke="midnightblue" points="759.909,-213.852 762.661,-224.083 766.89,-214.369 759.909,-213.852"/>
</g>
<!-- Node8 -->
<g id="node8" class="node"><title>Node8</title>
<g id="a_node8"><a xlink:href="../../de/dd1/Button_8cpp.html" target="_top" xlink:title=" ">
<polygon fill="white" stroke="black" points="0,-112.5 0,-131.5 64,-131.5 64,-112.5 0,-112.5"/>
<text text-anchor="middle" x="32" y="-119.5" font-family="Helvetica,sans-Serif" font-size="10.00">Button.cpp</text>
</a>
</g>
</g>
<!-- Node7&#45;&gt;Node8 -->
<g id="edge7" class="edge"><title>Node7&#45;&gt;Node8</title>
<path fill="none" stroke="midnightblue" d="M246.022,-168.34C202.668,-159.367 133.065,-144.878 73,-132 70.1498,-131.389 67.1892,-130.749 64.2225,-130.104"/>
<polygon fill="midnightblue" stroke="midnightblue" points="245.423,-171.79 255.925,-170.388 246.841,-164.935 245.423,-171.79"/>
</g>
<!-- Node9 -->
<g id="node9" class="node"><title>Node9</title>
<g id="a_node9"><a xlink:href="../../d5/d04/IncrementButton_8hpp.html" target="_top" xlink:title=" ">
<polygon fill="white" stroke="black" points="82.5,-112.5 82.5,-131.5 189.5,-131.5 189.5,-112.5 82.5,-112.5"/>
<text text-anchor="middle" x="136" y="-119.5" font-family="Helvetica,sans-Serif" font-size="10.00">IncrementButton.hpp</text>
</a>
</g>
</g>
<!-- Node7&#45;&gt;Node9 -->
<g id="edge8" class="edge"><title>Node7&#45;&gt;Node9</title>
<path fill="none" stroke="midnightblue" d="M254.332,-165.039C225.732,-154.879 185.388,-140.546 159.972,-131.516"/>
<polygon fill="midnightblue" stroke="midnightblue" points="253.32,-168.394 263.915,-168.444 255.664,-161.798 253.32,-168.394"/>
</g>
<!-- Node11 -->
<g id="node11" class="node"><title>Node11</title>
<g id="a_node11"><a xlink:href="../../df/df5/IncrementDecrementButtons_8hpp.html" target="_top" xlink:title=" ">
<polygon fill="white" stroke="black" points="207.5,-112.5 207.5,-131.5 368.5,-131.5 368.5,-112.5 207.5,-112.5"/>
<text text-anchor="middle" x="288" y="-119.5" font-family="Helvetica,sans-Serif" font-size="10.00">IncrementDecrementButtons.hpp</text>
</a>
</g>
</g>
<!-- Node7&#45;&gt;Node11 -->
<g id="edge10" class="edge"><title>Node7&#45;&gt;Node11</title>
<path fill="none" stroke="midnightblue" d="M288,-157.805C288,-148.91 288,-138.78 288,-131.751"/>
<polygon fill="midnightblue" stroke="midnightblue" points="284.5,-158.083 288,-168.083 291.5,-158.083 284.5,-158.083"/>
</g>
<!-- Node10 -->
<g id="node10" class="node"><title>Node10</title>
<g id="a_node10"><a xlink:href="../../db/d9d/IncrementButton_8cpp.html" target="_top" xlink:title=" ">
<polygon fill="white" stroke="black" points="82.5,-56.5 82.5,-75.5 189.5,-75.5 189.5,-56.5 82.5,-56.5"/>
<text text-anchor="middle" x="136" y="-63.5" font-family="Helvetica,sans-Serif" font-size="10.00">IncrementButton.cpp</text>
</a>
</g>
</g>
<!-- Node9&#45;&gt;Node10 -->
<g id="edge9" class="edge"><title>Node9&#45;&gt;Node10</title>
<path fill="none" stroke="midnightblue" d="M136,-101.805C136,-92.9102 136,-82.7798 136,-75.7511"/>
<polygon fill="midnightblue" stroke="midnightblue" points="132.5,-102.083 136,-112.083 139.5,-102.083 132.5,-102.083"/>
</g>
<!-- Node12 -->
<g id="node12" class="node"><title>Node12</title>
<g id="a_node12"><a xlink:href="../../da/d66/IncrementDecrementButtons_8cpp.html" target="_top" xlink:title=" ">
<polygon fill="white" stroke="black" points="207.5,-56.5 207.5,-75.5 368.5,-75.5 368.5,-56.5 207.5,-56.5"/>
<text text-anchor="middle" x="288" y="-63.5" font-family="Helvetica,sans-Serif" font-size="10.00">IncrementDecrementButtons.cpp</text>
</a>
</g>
</g>
<!-- Node11&#45;&gt;Node12 -->
<g id="edge11" class="edge"><title>Node11&#45;&gt;Node12</title>
<path fill="none" stroke="midnightblue" d="M288,-101.805C288,-92.9102 288,-82.7798 288,-75.7511"/>
<polygon fill="midnightblue" stroke="midnightblue" points="284.5,-102.083 288,-112.083 291.5,-102.083 284.5,-102.083"/>
</g>
<!-- Node14 -->
<g id="node14" class="node"><title>Node14</title>
<g id="a_node14"><a xlink:href="../../d9/d4b/ButtonMatrix_8hpp.html" target="_top" xlink:title=" ">
<polygon fill="white" stroke="black" points="567.5,-112.5 567.5,-131.5 658.5,-131.5 658.5,-112.5 567.5,-112.5"/>
<text text-anchor="middle" x="613" y="-119.5" font-family="Helvetica,sans-Serif" font-size="10.00">ButtonMatrix.hpp</text>
</a>
</g>
</g>
<!-- Node13&#45;&gt;Node14 -->
<g id="edge13" class="edge"><title>Node13&#45;&gt;Node14</title>
<path fill="none" stroke="midnightblue" d="M606.528,-158.101C605.896,-149.136 606.343,-138.858 607.869,-131.751"/>
<polygon fill="midnightblue" stroke="midnightblue" points="603.066,-158.622 607.834,-168.083 610.007,-157.713 603.066,-158.622"/>
</g>
<!-- Node14&#45;&gt;Node13 -->
<g id="edge14" class="edge"><title>Node14&#45;&gt;Node13</title>
<path fill="none" stroke="midnightblue" d="M619.458,-141.691C620.106,-150.635 619.676,-160.927 618.166,-168.083"/>
<polygon fill="midnightblue" stroke="midnightblue" points="622.923,-141.2 618.131,-131.751 615.985,-142.126 622.923,-141.2"/>
</g>
<!-- Node18 -->
<g id="node18" class="node"><title>Node18</title>
<g id="a_node18"><a xlink:href="../../d8/d93/ShiftRegisterOutBase_8hpp.html" target="_top" xlink:title=" ">
<polygon fill="white" stroke="black" points="911.5,-112.5 911.5,-131.5 1042.5,-131.5 1042.5,-112.5 911.5,-112.5"/>
<text text-anchor="middle" x="977" y="-119.5" font-family="Helvetica,sans-Serif" font-size="10.00">ShiftRegisterOutBase.hpp</text>
</a>
</g>
</g>
<!-- Node17&#45;&gt;Node18 -->
<g id="edge18" class="edge"><title>Node17&#45;&gt;Node18</title>
<path fill="none" stroke="midnightblue" d="M915.914,-162.061C928.576,-152.277 946.421,-139.835 959.709,-131.655"/>
<polygon fill="midnightblue" stroke="midnightblue" points="913.712,-159.34 908.096,-168.324 918.089,-164.803 913.712,-159.34"/>
</g>
<!-- Node18&#45;&gt;Node17 -->
<g id="edge22" class="edge"><title>Node18&#45;&gt;Node17</title>
<path fill="none" stroke="midnightblue" d="M961.894,-138.087C949.256,-147.839 931.543,-160.185 918.326,-168.324"/>
<polygon fill="midnightblue" stroke="midnightblue" points="964.091,-140.812 969.716,-131.834 959.72,-135.345 964.091,-140.812"/>
</g>
<!-- Node19 -->
<g id="node19" class="node"><title>Node19</title>
<g id="a_node19"><a xlink:href="../../d0/db4/ShiftRegisterOut_8hpp.html" target="_top" xlink:title=" ">
<polygon fill="white" stroke="black" points="488,-56.5 488,-75.5 596,-75.5 596,-56.5 488,-56.5"/>
<text text-anchor="middle" x="542" y="-63.5" font-family="Helvetica,sans-Serif" font-size="10.00">ShiftRegisterOut.hpp</text>
</a>
</g>
</g>
<!-- Node18&#45;&gt;Node19 -->
<g id="edge19" class="edge"><title>Node18&#45;&gt;Node19</title>
<path fill="none" stroke="midnightblue" d="M901.306,-111.604C814.089,-100.777 672.944,-83.2551 596.086,-73.7142"/>
<polygon fill="midnightblue" stroke="midnightblue" points="901.05,-115.099 911.405,-112.857 901.912,-108.152 901.05,-115.099"/>
</g>
<!-- Node21 -->
<g id="node21" class="node"><title>Node21</title>
<g id="a_node21"><a xlink:href="../../d7/d88/SPIShiftRegisterOut_8hpp.html" target="_top" xlink:title=" ">
<polygon fill="white" stroke="black" points="914.5,-56.5 914.5,-75.5 1039.5,-75.5 1039.5,-56.5 914.5,-56.5"/>
<text text-anchor="middle" x="977" y="-63.5" font-family="Helvetica,sans-Serif" font-size="10.00">SPIShiftRegisterOut.hpp</text>
</a>
</g>
</g>
<!-- Node18&#45;&gt;Node21 -->
<g id="edge23" class="edge"><title>Node18&#45;&gt;Node21</title>
<path fill="none" stroke="midnightblue" d="M977,-101.805C977,-92.9102 977,-82.7798 977,-75.7511"/>
<polygon fill="midnightblue" stroke="midnightblue" points="973.5,-102.083 977,-112.083 980.5,-102.083 973.5,-102.083"/>
</g>
<!-- Node19&#45;&gt;Node20 -->
<g id="edge20" class="edge"><title>Node19&#45;&gt;Node20</title>
<path fill="none" stroke="midnightblue" d="M535.528,-46.1005C534.896,-37.1357 535.343,-26.8579 536.869,-19.7511"/>
<polygon fill="midnightblue" stroke="midnightblue" points="532.066,-46.6216 536.834,-56.083 539.007,-45.7134 532.066,-46.6216"/>
</g>
<!-- Node20&#45;&gt;Node19 -->
<g id="edge21" class="edge"><title>Node20&#45;&gt;Node19</title>
<path fill="none" stroke="midnightblue" d="M548.458,-29.6911C549.106,-38.6353 548.676,-48.9272 547.166,-56.083"/>
<polygon fill="midnightblue" stroke="midnightblue" points="551.923,-29.2002 547.131,-19.7511 544.985,-30.1262 551.923,-29.2002"/>
</g>
<!-- Node21&#45;&gt;Node22 -->
<g id="edge24" class="edge"><title>Node21&#45;&gt;Node22</title>
<path fill="none" stroke="midnightblue" d="M970.528,-46.1005C969.896,-37.1357 970.343,-26.8579 971.869,-19.7511"/>
<polygon fill="midnightblue" stroke="midnightblue" points="967.066,-46.6216 971.834,-56.083 974.007,-45.7134 967.066,-46.6216"/>
</g>
<!-- Node22&#45;&gt;Node21 -->
<g id="edge25" class="edge"><title>Node22&#45;&gt;Node21</title>
<path fill="none" stroke="midnightblue" d="M983.458,-29.6911C984.106,-38.6353 983.676,-48.9272 982.166,-56.083"/>
<polygon fill="midnightblue" stroke="midnightblue" points="986.923,-29.2002 982.131,-19.7511 979.985,-30.1262 986.923,-29.2002"/>
</g>
<!-- Node25 -->
<g id="node25" class="node"><title>Node25</title>
<g id="a_node25"><a xlink:href="../../d6/d3a/DotBarDisplayLEDs_8hpp.html" target="_top" xlink:title=" ">
<polygon fill="white" stroke="black" points="425,-112.5 425,-131.5 549,-131.5 549,-112.5 425,-112.5"/>
<text text-anchor="middle" x="487" y="-119.5" font-family="Helvetica,sans-Serif" font-size="10.00">DotBarDisplayLEDs.hpp</text>
</a>
</g>
</g>
<!-- Node24&#45;&gt;Node25 -->
<g id="edge30" class="edge"><title>Node24&#45;&gt;Node25</title>
<path fill="none" stroke="midnightblue" d="M498.143,-158.396C495.299,-149.362 492.017,-138.936 489.755,-131.751"/>
<polygon fill="midnightblue" stroke="midnightblue" points="494.851,-159.596 501.193,-168.083 501.528,-157.493 494.851,-159.596"/>
</g>
<!-- Node27 -->
<g id="node27" class="node"><title>Node27</title>
<g id="a_node27"><a xlink:href="../../d2/d25/MAX7219_8hpp.html" target="_top" xlink:title=" ">
<polygon fill="white" stroke="black" points="1411,-112.5 1411,-131.5 1489,-131.5 1489,-112.5 1411,-112.5"/>
<text text-anchor="middle" x="1450" y="-119.5" font-family="Helvetica,sans-Serif" font-size="10.00">MAX7219.hpp</text>
</a>
</g>
</g>
<!-- Node26&#45;&gt;Node27 -->
<g id="edge32" class="edge"><title>Node26&#45;&gt;Node27</title>
<path fill="none" stroke="midnightblue" d="M829.144,-167.952C1055.57,-143.702 1314.27,-129.63 1410.98,-124.846"/>
<polygon fill="midnightblue" stroke="midnightblue" points="828.634,-164.487 819.068,-169.04 829.386,-171.446 828.634,-164.487"/>
</g>
<!-- Node28 -->
<g id="node28" class="node"><title>Node28</title>
<g id="a_node28"><a xlink:href="../../d5/d0c/MAX7219SevenSegmentDisplay_8hpp.html" target="_top" xlink:title=" ">
<polygon fill="white" stroke="black" points="715,-112.5 715,-131.5 893,-131.5 893,-112.5 715,-112.5"/>
<text text-anchor="middle" x="804" y="-119.5" font-family="Helvetica,sans-Serif" font-size="10.00">MAX7219SevenSegmentDisplay.hpp</text>
</a>
</g>
</g>
<!-- Node26&#45;&gt;Node28 -->
<g id="edge33" class="edge"><title>Node26&#45;&gt;Node28</title>
<path fill="none" stroke="midnightblue" d="M778.065,-159.855C784.645,-150.505 792.511,-139.327 797.842,-131.751"/>
<polygon fill="midnightblue" stroke="midnightblue" points="775.168,-157.891 772.275,-168.083 780.892,-161.919 775.168,-157.891"/>
</g>
<!-- Node29&#45;&gt;Node15 -->
<g id="edge35" class="edge"><title>Node29&#45;&gt;Node15</title>
<path fill="none" stroke="midnightblue" d="M1397.07,-218.901C1381.66,-208.999 1361.55,-196.071 1348.46,-187.655"/>
<polygon fill="midnightblue" stroke="midnightblue" points="1395.2,-221.86 1405.5,-224.324 1398.98,-215.972 1395.2,-221.86"/>
</g>
<!-- Node29&#45;&gt;Node18 -->
<g id="edge37" class="edge"><title>Node29&#45;&gt;Node18</title>
<path fill="none" stroke="midnightblue" d="M1417.6,-213.987C1415.43,-199.053 1409.92,-179.002 1396,-168 1368.88,-146.565 1153.42,-132.252 1042.5,-126.229"/>
<polygon fill="midnightblue" stroke="midnightblue" points="1414.15,-214.606 1418.7,-224.175 1421.11,-213.858 1414.15,-214.606"/>
</g>
<!-- Node29&#45;&gt;Node27 -->
<g id="edge36" class="edge"><title>Node29&#45;&gt;Node27</title>
<path fill="none" stroke="midnightblue" d="M1424.16,-214.674C1430.94,-190.625 1442.56,-149.388 1447.58,-131.591"/>
<polygon fill="midnightblue" stroke="midnightblue" points="1420.78,-213.794 1421.43,-224.368 1427.51,-215.693 1420.78,-213.794"/>
</g>
<!-- Node32&#45;&gt;Node4 -->
<g id="edge56" class="edge"><title>Node32&#45;&gt;Node4</title>
<path fill="none" stroke="midnightblue" d="M1014.92,-451.271C946.589,-440.994 803.823,-419.519 734.077,-409.028"/>
<polygon fill="midnightblue" stroke="midnightblue" points="1014.42,-454.736 1024.83,-452.763 1015.46,-447.814 1014.42,-454.736"/>
</g>
<!-- Node32&#45;&gt;Node16 -->
<g id="edge58" class="edge"><title>Node32&#45;&gt;Node16</title>
<path fill="none" stroke="midnightblue" d="M1058.22,-438.39C1063.84,-416.65 1072,-379.511 1072,-347 1072,-347 1072,-347 1072,-289 1072,-250.419 1057.2,-206.077 1050.37,-187.687"/>
<polygon fill="midnightblue" stroke="midnightblue" points="1054.78,-437.683 1055.56,-448.249 1061.54,-439.502 1054.78,-437.683"/>
</g>
<!-- Node32&#45;&gt;Node30 -->
<g id="edge59" class="edge"><title>Node32&#45;&gt;Node30</title>
<path fill="none" stroke="midnightblue" d="M1051.33,-438.011C1047.85,-404.741 1038.08,-334.29 1014,-280 1007.86,-266.155 997.108,-252.258 989.778,-243.648"/>
<polygon fill="midnightblue" stroke="midnightblue" points="1047.86,-438.524 1052.3,-448.141 1054.83,-437.851 1047.86,-438.524"/>
</g>
<!-- Node33 -->
<g id="node33" class="node"><title>Node33</title>
<g id="a_node33"><a xlink:href="../../de/d76/Array_8hpp.html" target="_top" xlink:title=" ">
<polygon fill="white" stroke="black" points="1301.5,-392.5 1301.5,-411.5 1360.5,-411.5 1360.5,-392.5 1301.5,-392.5"/>
<text text-anchor="middle" x="1331" y="-399.5" font-family="Helvetica,sans-Serif" font-size="10.00">Array.hpp</text>
</a>
</g>
</g>
<!-- Node32&#45;&gt;Node33 -->
<g id="edge42" class="edge"><title>Node32&#45;&gt;Node33</title>
<path fill="none" stroke="midnightblue" d="M1091.17,-447.838C1172.69,-430.502 1257.38,-415.544 1301.22,-408.028"/>
<polygon fill="midnightblue" stroke="midnightblue" points="1090.29,-444.446 1081.25,-449.963 1091.76,-451.291 1090.29,-444.446"/>
</g>
<!-- Node38 -->
<g id="node38" class="node"><title>Node38</title>
<g id="a_node38"><a xlink:href="../../d1/d40/BitArray_8hpp.html" target="_top" xlink:title=" ">
<polygon fill="white" stroke="black" points="1481.5,-168.5 1481.5,-187.5 1552.5,-187.5 1552.5,-168.5 1481.5,-168.5"/>
<text text-anchor="middle" x="1517" y="-175.5" font-family="Helvetica,sans-Serif" font-size="10.00">BitArray.hpp</text>
</a>
</g>
</g>
<!-- Node32&#45;&gt;Node38 -->
<g id="edge52" class="edge"><title>Node32&#45;&gt;Node38</title>
<path fill="none" stroke="midnightblue" d="M1091.26,-448.122C1208.6,-430.604 1531,-444.592 1531,-347 1531,-347 1531,-347 1531,-289 1531,-250.882 1522.63,-205.925 1518.83,-187.511"/>
<polygon fill="midnightblue" stroke="midnightblue" points="1090.5,-444.7 1081.21,-449.798 1091.65,-451.605 1090.5,-444.7"/>
</g>
<!-- Node39 -->
<g id="node39" class="node"><title>Node39</title>
<g id="a_node39"><a xlink:href="../../d6/df4/Exit_8cpp.html" target="_top" xlink:title=" ">
<polygon fill="white" stroke="black" points="1559.5,-392.5 1559.5,-411.5 1612.5,-411.5 1612.5,-392.5 1559.5,-392.5"/>
<text text-anchor="middle" x="1586" y="-399.5" font-family="Helvetica,sans-Serif" font-size="10.00">Exit.cpp</text>
</a>
</g>
</g>
<!-- Node32&#45;&gt;Node39 -->
<g id="edge57" class="edge"><title>Node32&#45;&gt;Node39</title>
<path fill="none" stroke="midnightblue" d="M1091.18,-448.068C1292.08,-416.745 1347.58,-441.336 1545,-412 1549.61,-411.314 1554.48,-410.409 1559.19,-409.437"/>
<polygon fill="midnightblue" stroke="midnightblue" points="1090.52,-444.629 1081.19,-449.652 1091.61,-451.543 1090.52,-444.629"/>
</g>
<!-- Node33&#45;&gt;Node15 -->
<g id="edge45" class="edge"><title>Node33&#45;&gt;Node15</title>
<path fill="none" stroke="midnightblue" d="M1337.13,-382.39C1339.47,-374.367 1341.84,-364.819 1343,-356 1350.69,-297.35 1320.17,-282.863 1326,-224 1327.27,-211.156 1330.54,-196.547 1332.77,-187.551"/>
<polygon fill="midnightblue" stroke="midnightblue" points="1333.71,-381.585 1334.09,-392.173 1340.4,-383.663 1333.71,-381.585"/>
</g>
<!-- Node34 -->
<g id="node34" class="node"><title>Node34</title>
<g id="a_node34"><a xlink:href="../../d5/db6/ArrayHelpers_8hpp.html" target="_top" xlink:title=" ">
<polygon fill="white" stroke="black" points="1364,-280.5 1364,-299.5 1456,-299.5 1456,-280.5 1364,-280.5"/>
<text text-anchor="middle" x="1410" y="-287.5" font-family="Helvetica,sans-Serif" font-size="10.00">ArrayHelpers.hpp</text>
</a>
</g>
</g>
<!-- Node33&#45;&gt;Node34 -->
<g id="edge43" class="edge"><title>Node33&#45;&gt;Node34</title>
<path fill="none" stroke="midnightblue" d="M1349.56,-385.429C1358.56,-377.272 1369.11,-366.758 1377,-356 1390.48,-337.634 1401.32,-312.96 1406.57,-299.929"/>
<polygon fill="midnightblue" stroke="midnightblue" points="1347.06,-382.97 1341.85,-392.197 1351.68,-388.232 1347.06,-382.97"/>
</g>
<!-- Node35 -->
<g id="node35" class="node"><title>Node35</title>
<g id="a_node35"><a xlink:href="../../d4/d35/Hardware-Types_8hpp.html" target="_top" xlink:title=" ">
<polygon fill="white" stroke="black" points="1138.5,-336.5 1138.5,-355.5 1245.5,-355.5 1245.5,-336.5 1138.5,-336.5"/>
<text text-anchor="middle" x="1192" y="-343.5" font-family="Helvetica,sans-Serif" font-size="10.00">Hardware&#45;Types.hpp</text>
</a>
</g>
</g>
<!-- Node33&#45;&gt;Node35 -->
<g id="edge46" class="edge"><title>Node33&#45;&gt;Node35</title>
<path fill="none" stroke="midnightblue" d="M1299.52,-388.772C1273.41,-378.629 1236.96,-364.467 1213.92,-355.516"/>
<polygon fill="midnightblue" stroke="midnightblue" points="1298.39,-392.085 1308.98,-392.444 1300.92,-385.56 1298.39,-392.085"/>
</g>
<!-- Node36 -->
<g id="node36" class="node"><title>Node36</title>
<g id="a_node36"><a xlink:href="../../d2/d3b/FIRFilter_8hpp.html" target="_top" xlink:title=" ">
<polygon fill="white" stroke="black" points="1429,-336.5 1429,-355.5 1503,-355.5 1503,-336.5 1429,-336.5"/>
<text text-anchor="middle" x="1466" y="-343.5" font-family="Helvetica,sans-Serif" font-size="10.00">FIRFilter.hpp</text>
</a>
</g>
</g>
<!-- Node33&#45;&gt;Node36 -->
<g id="edge50" class="edge"><title>Node33&#45;&gt;Node36</title>
<path fill="none" stroke="midnightblue" d="M1361.91,-388.638C1387.24,-378.504 1422.43,-364.427 1444.71,-355.516"/>
<polygon fill="midnightblue" stroke="midnightblue" points="1360.38,-385.48 1352.39,-392.444 1362.98,-391.979 1360.38,-385.48"/>
</g>
<!-- Node37 -->
<g id="node37" class="node"><title>Node37</title>
<g id="a_node37"><a xlink:href="../../dc/d64/IIRFilter_8hpp.html" target="_top" xlink:title=" ">
<polygon fill="white" stroke="black" points="1263.5,-336.5 1263.5,-355.5 1334.5,-355.5 1334.5,-336.5 1263.5,-336.5"/>
<text text-anchor="middle" x="1299" y="-343.5" font-family="Helvetica,sans-Serif" font-size="10.00">IIRFilter.hpp</text>
</a>
</g>
</g>
<!-- Node33&#45;&gt;Node37 -->
<g id="edge51" class="edge"><title>Node33&#45;&gt;Node37</title>
<path fill="none" stroke="midnightblue" d="M1320.5,-383.275C1315.03,-374.045 1308.58,-363.17 1304.19,-355.751"/>
<polygon fill="midnightblue" stroke="midnightblue" points="1317.61,-385.264 1325.72,-392.083 1323.63,-381.696 1317.61,-385.264"/>
</g>
<!-- Node34&#45;&gt;Node29 -->
<g id="edge44" class="edge"><title>Node34&#45;&gt;Node29</title>
<path fill="none" stroke="midnightblue" d="M1413.15,-270.101C1414.64,-261.136 1416.36,-250.858 1417.54,-243.751"/>
<polygon fill="midnightblue" stroke="midnightblue" points="1409.68,-269.644 1411.49,-280.083 1416.58,-270.794 1409.68,-269.644"/>
</g>
<!-- Node35&#45;&gt;Node5 -->
<g id="edge48" class="edge"><title>Node35&#45;&gt;Node5</title>
<path fill="none" stroke="midnightblue" d="M1142.77,-334.281C1095.91,-324.077 1026.3,-308.92 983.112,-299.516"/>
<polygon fill="midnightblue" stroke="midnightblue" points="1142.19,-337.736 1152.7,-336.444 1143.68,-330.896 1142.19,-337.736"/>
</g>
<!-- Node35&#45;&gt;Node14 -->
<g id="edge47" class="edge"><title>Node35&#45;&gt;Node14</title>
<path fill="none" stroke="midnightblue" d="M1204.93,-328.099C1229.85,-293.373 1278.47,-213.45 1236,-168 1195.7,-124.872 764.826,-136.843 706,-132 690.642,-130.736 673.875,-129.17 658.86,-127.701"/>
<polygon fill="midnightblue" stroke="midnightblue" points="1202.02,-326.145 1198.9,-336.269 1207.65,-330.302 1202.02,-326.145"/>
</g>
<!-- Node35&#45;&gt;Node23 -->
<g id="edge49" class="edge"><title>Node35&#45;&gt;Node23</title>
<path fill="none" stroke="midnightblue" d="M1190.39,-325.93C1187.35,-289.92 1180.89,-213.231 1178.72,-187.568"/>
<polygon fill="midnightblue" stroke="midnightblue" points="1186.92,-326.405 1191.25,-336.075 1193.89,-325.816 1186.92,-326.405"/>
</g>
<!-- Node38&#45;&gt;Node18 -->
<g id="edge54" class="edge"><title>Node38&#45;&gt;Node18</title>
<path fill="none" stroke="midnightblue" d="M1471.35,-172.308C1457.73,-170.914 1442.76,-169.388 1429,-168 1291.5,-154.124 1130.43,-138.157 1042.5,-129.466"/>
<polygon fill="midnightblue" stroke="midnightblue" points="1471.16,-175.806 1481.46,-173.344 1471.87,-168.843 1471.16,-175.806"/>
</g>
<!-- Node38&#45;&gt;Node21 -->
<g id="edge55" class="edge"><title>Node38&#45;&gt;Node21</title>
<path fill="none" stroke="midnightblue" d="M1516.9,-158.008C1515.72,-143.087 1511.48,-123.042 1498,-112 1463.23,-83.5229 1170.58,-72.1771 1039.76,-68.4977"/>
<polygon fill="midnightblue" stroke="midnightblue" points="1513.41,-158.335 1517.31,-168.186 1520.41,-158.054 1513.41,-158.335"/>
</g>
<!-- Node38&#45;&gt;Node27 -->
<g id="edge53" class="edge"><title>Node38&#45;&gt;Node27</title>
<path fill="none" stroke="midnightblue" d="M1498.17,-161.82C1486.16,-152.145 1471.03,-139.948 1460.96,-131.834"/>
<polygon fill="midnightblue" stroke="midnightblue" points="1496.25,-164.774 1506.24,-168.324 1500.65,-159.324 1496.25,-164.774"/>
</g>
<!-- Node40&#45;&gt;Node2 -->
<g id="edge62" class="edge"><title>Node40&#45;&gt;Node2</title>
<path fill="none" stroke="midnightblue" d="M861.458,-477.691C862.106,-486.635 861.676,-496.927 860.166,-504.083"/>
<polygon fill="midnightblue" stroke="midnightblue" points="864.923,-477.2 860.131,-467.751 857.985,-478.126 864.923,-477.2"/>
</g>
<!-- Node40&#45;&gt;Node4 -->
<g id="edge61" class="edge"><title>Node40&#45;&gt;Node4</title>
<path fill="none" stroke="midnightblue" d="M819.735,-445.172C789.419,-435.004 746.43,-420.585 719.392,-411.516"/>
<polygon fill="midnightblue" stroke="midnightblue" points="818.895,-448.582 829.489,-448.444 821.121,-441.945 818.895,-448.582"/>
</g>
<!-- Node40&#45;&gt;Node7 -->
<g id="edge63" class="edge"><title>Node40&#45;&gt;Node7</title>
<path fill="none" stroke="midnightblue" d="M832.325,-443.05C809.93,-429.462 774.552,-408.5 743,-392 577.987,-305.706 371.744,-215.2 307.813,-187.527"/>
<polygon fill="midnightblue" stroke="midnightblue" points="830.718,-446.17 841.078,-448.388 834.362,-440.193 830.718,-446.17"/>
</g>
<!-- Node40&#45;&gt;Node23 -->
<g id="edge67" class="edge"><title>Node40&#45;&gt;Node23</title>
<path fill="none" stroke="midnightblue" d="M919.461,-456.021C995.004,-451.056 1110,-429.887 1110,-347 1110,-347 1110,-347 1110,-289 1110,-245.444 1149.05,-204.732 1167.97,-187.567"/>
<polygon fill="midnightblue" stroke="midnightblue" points="918.861,-452.549 909.079,-456.618 919.264,-459.538 918.861,-452.549"/>
</g>
<!-- Node41 -->
<g id="node41" class="node"><title>Node41</title>
<g id="a_node41"><a xlink:href="../../d1/d1f/ShiftRegisterOutRGB_8hpp.html" target="_top" xlink:title=" ">
<polygon fill="white" stroke="black" points="790,-392.5 790,-411.5 920,-411.5 920,-392.5 790,-392.5"/>
<text text-anchor="middle" x="855" y="-399.5" font-family="Helvetica,sans-Serif" font-size="10.00">ShiftRegisterOutRGB.hpp</text>
</a>
</g>
</g>
<!-- Node40&#45;&gt;Node41 -->
<g id="edge64" class="edge"><title>Node40&#45;&gt;Node41</title>
<path fill="none" stroke="midnightblue" d="M855,-437.805C855,-428.91 855,-418.78 855,-411.751"/>
<polygon fill="midnightblue" stroke="midnightblue" points="851.5,-438.083 855,-448.083 858.5,-438.083 851.5,-438.083"/>
</g>
<!-- Node41&#45;&gt;Node17 -->
<g id="edge65" class="edge"><title>Node41&#45;&gt;Node17</title>
<path fill="none" stroke="midnightblue" d="M857.058,-382.314C859.852,-358.434 865.386,-315.887 873,-280 880.364,-245.29 892.755,-204.857 898.243,-187.559"/>
<polygon fill="midnightblue" stroke="midnightblue" points="853.56,-382.096 855.909,-392.427 860.515,-382.886 853.56,-382.096"/>
</g>
<!-- Node42 -->
<g id="node42" class="node"><title>Node42</title>
<g id="a_node42"><a xlink:href="../../db/d0b/ShiftRegisterOutRGB_8cpp.html" target="_top" xlink:title=" ">
<polygon fill="white" stroke="black" points="697,-336.5 697,-355.5 827,-355.5 827,-336.5 697,-336.5"/>
<text text-anchor="middle" x="762" y="-343.5" font-family="Helvetica,sans-Serif" font-size="10.00">ShiftRegisterOutRGB.cpp</text>
</a>
</g>
</g>
<!-- Node41&#45;&gt;Node42 -->
<g id="edge66" class="edge"><title>Node41&#45;&gt;Node42</title>
<path fill="none" stroke="midnightblue" d="M831.194,-387.177C814.081,-377.241 791.535,-364.149 776.905,-355.655"/>
<polygon fill="midnightblue" stroke="midnightblue" points="829.653,-390.329 840.058,-392.324 833.168,-384.276 829.653,-390.329"/>
</g>
</g>
</svg>
