<?xml version="1.0" encoding="UTF-8" standalone="no"?>
<!DOCTYPE svg PUBLIC "-//W3C//DTD SVG 1.1//EN"
 "http://www.w3.org/Graphics/SVG/1.1/DTD/svg11.dtd">
<!-- Generated by graphviz version 2.38.0 (20140413.2041)
 -->
<!-- Title: DebugVal.hpp Pages: 1 -->
<svg width="1691pt" height="588pt"
 viewBox="0.00 0.00 1691.00 588.00" xmlns="http://www.w3.org/2000/svg" xmlns:xlink="http://www.w3.org/1999/xlink">
<g id="graph0" class="graph" transform="scale(1 1) rotate(0) translate(4 584)">
<title>DebugVal.hpp</title>
<polygon fill="white" stroke="none" points="-4,4 -4,-584 1687,-584 1687,4 -4,4"/>
<!-- Node1 -->
<g id="node1" class="node"><title>Node1</title>
<g id="a_node1"><a xlink:title=" ">
<polygon fill="#bfbfbf" stroke="black" points="877.5,-560.5 877.5,-579.5 955.5,-579.5 955.5,-560.5 877.5,-560.5"/>
<text text-anchor="middle" x="916.5" y="-567.5" font-family="Helvetica,sans-Serif" font-size="10.00">DebugVal.hpp</text>
</a>
</g>
</g>
<!-- Node2 -->
<g id="node2" class="node"><title>Node2</title>
<g id="a_node2"><a xlink:href="../../df/dee/Debug_8hpp.html" target="_top" xlink:title=" ">
<polygon fill="white" stroke="black" points="884.5,-504.5 884.5,-523.5 948.5,-523.5 948.5,-504.5 884.5,-504.5"/>
<text text-anchor="middle" x="916.5" y="-511.5" font-family="Helvetica,sans-Serif" font-size="10.00">Debug.hpp</text>
</a>
</g>
</g>
<!-- Node1&#45;&gt;Node2 -->
<g id="edge1" class="edge"><title>Node1&#45;&gt;Node2</title>
<path fill="none" stroke="midnightblue" d="M916.5,-549.805C916.5,-540.91 916.5,-530.78 916.5,-523.751"/>
<polygon fill="midnightblue" stroke="midnightblue" points="913,-550.083 916.5,-560.083 920,-550.083 913,-550.083"/>
</g>
<!-- Node3 -->
<g id="node3" class="node"><title>Node3</title>
<g id="a_node3"><a xlink:href="../../de/dd1/LinkedList_8hpp.html" target="_top" xlink:title=" ">
<polygon fill="white" stroke="black" points="876.5,-448.5 876.5,-467.5 956.5,-467.5 956.5,-448.5 876.5,-448.5"/>
<text text-anchor="middle" x="916.5" y="-455.5" font-family="Helvetica,sans-Serif" font-size="10.00">LinkedList.hpp</text>
</a>
</g>
</g>
<!-- Node2&#45;&gt;Node3 -->
<g id="edge2" class="edge"><title>Node2&#45;&gt;Node3</title>
<path fill="none" stroke="midnightblue" d="M916.5,-493.805C916.5,-484.91 916.5,-474.78 916.5,-467.751"/>
<polygon fill="midnightblue" stroke="midnightblue" points="913,-494.083 916.5,-504.083 920,-494.083 913,-494.083"/>
</g>
<!-- Node31 -->
<g id="node31" class="node"><title>Node31</title>
<g id="a_node31"><a xlink:href="../../df/d66/Debug_8cpp.html" target="_top" xlink:title=" ">
<polygon fill="white" stroke="black" points="1072.5,-448.5 1072.5,-467.5 1136.5,-467.5 1136.5,-448.5 1072.5,-448.5"/>
<text text-anchor="middle" x="1104.5" y="-455.5" font-family="Helvetica,sans-Serif" font-size="10.00">Debug.cpp</text>
</a>
</g>
</g>
<!-- Node2&#45;&gt;Node31 -->
<g id="edge40" class="edge"><title>Node2&#45;&gt;Node31</title>
<path fill="none" stroke="midnightblue" d="M956.301,-501.568C991.766,-491.381 1042.87,-476.703 1074.85,-467.516"/>
<polygon fill="midnightblue" stroke="midnightblue" points="954.934,-498.319 946.289,-504.444 956.867,-505.047 954.934,-498.319"/>
</g>
<!-- Node32 -->
<g id="node32" class="node"><title>Node32</title>
<g id="a_node32"><a xlink:href="../../d1/d93/Error_8hpp.html" target="_top" xlink:title=" ">
<polygon fill="white" stroke="black" points="998.5,-448.5 998.5,-467.5 1054.5,-467.5 1054.5,-448.5 998.5,-448.5"/>
<text text-anchor="middle" x="1026.5" y="-455.5" font-family="Helvetica,sans-Serif" font-size="10.00">Error.hpp</text>
</a>
</g>
</g>
<!-- Node2&#45;&gt;Node32 -->
<g id="edge41" class="edge"><title>Node2&#45;&gt;Node32</title>
<path fill="none" stroke="midnightblue" d="M943.262,-499.862C963.659,-489.849 991.166,-476.346 1008.87,-467.655"/>
<polygon fill="midnightblue" stroke="midnightblue" points="941.608,-496.775 934.173,-504.324 944.692,-503.059 941.608,-496.775"/>
</g>
<!-- Node48 -->
<g id="node48" class="node"><title>Node48</title>
<g id="a_node48"><a xlink:href="../../d2/dd5/SettingsWrapper_8hpp.html" target="_top" xlink:title=" ">
<polygon fill="white" stroke="black" points="719.5,-448.5 719.5,-467.5 827.5,-467.5 827.5,-448.5 719.5,-448.5"/>
<text text-anchor="middle" x="773.5" y="-455.5" font-family="Helvetica,sans-Serif" font-size="10.00">SettingsWrapper.hpp</text>
</a>
</g>
</g>
<!-- Node2&#45;&gt;Node48 -->
<g id="edge72" class="edge"><title>Node2&#45;&gt;Node48</title>
<path fill="none" stroke="midnightblue" d="M879.11,-501.039C850.638,-490.879 812.894,-476.546 790.973,-467.516"/>
<polygon fill="midnightblue" stroke="midnightblue" points="878.158,-504.415 888.752,-504.444 880.488,-497.814 878.158,-504.415"/>
</g>
<!-- Node4 -->
<g id="node4" class="node"><title>Node4</title>
<g id="a_node4"><a xlink:href="../../d4/d93/Updatable_8hpp.html" target="_top" xlink:title=" ">
<polygon fill="white" stroke="black" points="786.5,-392.5 786.5,-411.5 866.5,-411.5 866.5,-392.5 786.5,-392.5"/>
<text text-anchor="middle" x="826.5" y="-399.5" font-family="Helvetica,sans-Serif" font-size="10.00">Updatable.hpp</text>
</a>
</g>
</g>
<!-- Node3&#45;&gt;Node4 -->
<g id="edge3" class="edge"><title>Node3&#45;&gt;Node4</title>
<path fill="none" stroke="midnightblue" d="M893.462,-443.177C876.901,-433.241 855.082,-420.149 840.924,-411.655"/>
<polygon fill="midnightblue" stroke="midnightblue" points="891.664,-446.18 902.04,-448.324 895.266,-440.178 891.664,-446.18"/>
</g>
<!-- Node5 -->
<g id="node5" class="node"><title>Node5</title>
<g id="a_node5"><a xlink:href="../../d4/d57/ExtendedIOElement_8hpp.html" target="_top" xlink:title=" ">
<polygon fill="white" stroke="black" points="871,-280.5 871,-299.5 994,-299.5 994,-280.5 871,-280.5"/>
<text text-anchor="middle" x="932.5" y="-287.5" font-family="Helvetica,sans-Serif" font-size="10.00">ExtendedIOElement.hpp</text>
</a>
</g>
</g>
<!-- Node3&#45;&gt;Node5 -->
<g id="edge4" class="edge"><title>Node3&#45;&gt;Node5</title>
<path fill="none" stroke="midnightblue" d="M918.338,-437.93C921.809,-401.92 929.201,-325.231 931.674,-299.568"/>
<polygon fill="midnightblue" stroke="midnightblue" points="914.836,-437.785 917.36,-448.075 921.804,-438.457 914.836,-437.785"/>
</g>
<!-- Node6 -->
<g id="node6" class="node"><title>Node6</title>
<g id="a_node6"><a xlink:href="../../dd/ddf/ExtendedInputOutput_8hpp.html" target="_top" xlink:title=" ">
<polygon fill="white" stroke="black" points="572.5,-224.5 572.5,-243.5 700.5,-243.5 700.5,-224.5 572.5,-224.5"/>
<text text-anchor="middle" x="636.5" y="-231.5" font-family="Helvetica,sans-Serif" font-size="10.00">ExtendedInputOutput.hpp</text>
</a>
</g>
</g>
<!-- Node5&#45;&gt;Node6 -->
<g id="edge5" class="edge"><title>Node5&#45;&gt;Node6</title>
<path fill="none" stroke="midnightblue" d="M875.497,-278.601C819.556,-268.395 735.27,-253.019 683.183,-243.516"/>
<polygon fill="midnightblue" stroke="midnightblue" points="875.132,-282.092 885.598,-280.444 876.388,-275.206 875.132,-282.092"/>
</g>
<!-- Node16 -->
<g id="node16" class="node"><title>Node16</title>
<g id="a_node16"><a xlink:href="../../d6/d3c/ExtendedInputOutput_8cpp.html" target="_top" xlink:title=" ">
<polygon fill="white" stroke="black" points="919.5,-168.5 919.5,-187.5 1047.5,-187.5 1047.5,-168.5 919.5,-168.5"/>
<text text-anchor="middle" x="983.5" y="-175.5" font-family="Helvetica,sans-Serif" font-size="10.00">ExtendedInputOutput.cpp</text>
</a>
</g>
</g>
<!-- Node5&#45;&gt;Node16 -->
<g id="edge38" class="edge"><title>Node5&#45;&gt;Node16</title>
<path fill="none" stroke="midnightblue" d="M940.846,-270.998C951.974,-246.997 971.228,-205.468 979.517,-187.591"/>
<polygon fill="midnightblue" stroke="midnightblue" points="937.533,-269.824 936.502,-280.368 943.884,-272.768 937.533,-269.824"/>
</g>
<!-- Node29 -->
<g id="node29" class="node"><title>Node29</title>
<g id="a_node29"><a xlink:href="../../d2/d05/StaticSizeExtendedIOElement_8hpp.html" target="_top" xlink:title=" ">
<polygon fill="white" stroke="black" points="1230.5,-224.5 1230.5,-243.5 1398.5,-243.5 1398.5,-224.5 1230.5,-224.5"/>
<text text-anchor="middle" x="1314.5" y="-231.5" font-family="Helvetica,sans-Serif" font-size="10.00">StaticSizeExtendedIOElement.hpp</text>
</a>
</g>
</g>
<!-- Node5&#45;&gt;Node29 -->
<g id="edge34" class="edge"><title>Node5&#45;&gt;Node29</title>
<path fill="none" stroke="midnightblue" d="M1002.94,-279.042C1075.09,-268.843 1186.06,-253.157 1254.25,-243.516"/>
<polygon fill="midnightblue" stroke="midnightblue" points="1002.44,-275.578 993.029,-280.444 1003.42,-282.509 1002.44,-275.578"/>
</g>
<!-- Node30 -->
<g id="node30" class="node"><title>Node30</title>
<g id="a_node30"><a xlink:href="../../da/d1f/ExtendedIOElement_8cpp.html" target="_top" xlink:title=" ">
<polygon fill="white" stroke="black" points="1051,-224.5 1051,-243.5 1174,-243.5 1174,-224.5 1051,-224.5"/>
<text text-anchor="middle" x="1112.5" y="-231.5" font-family="Helvetica,sans-Serif" font-size="10.00">ExtendedIOElement.cpp</text>
</a>
</g>
</g>
<!-- Node5&#45;&gt;Node30 -->
<g id="edge39" class="edge"><title>Node5&#45;&gt;Node30</title>
<path fill="none" stroke="midnightblue" d="M970.608,-277.568C1004.56,-267.381 1053.49,-252.703 1084.11,-243.516"/>
<polygon fill="midnightblue" stroke="midnightblue" points="969.594,-274.218 961.022,-280.444 971.606,-280.922 969.594,-274.218"/>
</g>
<!-- Node7 -->
<g id="node7" class="node"><title>Node7</title>
<g id="a_node7"><a xlink:href="../../d4/db3/Button_8hpp.html" target="_top" xlink:title=" ">
<polygon fill="white" stroke="black" points="269.5,-168.5 269.5,-187.5 333.5,-187.5 333.5,-168.5 269.5,-168.5"/>
<text text-anchor="middle" x="301.5" y="-175.5" font-family="Helvetica,sans-Serif" font-size="10.00">Button.hpp</text>
</a>
</g>
</g>
<!-- Node6&#45;&gt;Node7 -->
<g id="edge6" class="edge"><title>Node6&#45;&gt;Node7</title>
<path fill="none" stroke="midnightblue" d="M573.206,-222.797C501.849,-211.295 388.632,-193.045 333.618,-184.177"/>
<polygon fill="midnightblue" stroke="midnightblue" points="572.989,-226.307 583.418,-224.444 574.103,-219.397 572.989,-226.307"/>
</g>
<!-- Node13 -->
<g id="node13" class="node"><title>Node13</title>
<g id="a_node13"><a xlink:href="../../d5/d41/ButtonMatrix_8ipp.html" target="_top" xlink:title=" ">
<polygon fill="white" stroke="black" points="427.5,-168.5 427.5,-187.5 515.5,-187.5 515.5,-168.5 427.5,-168.5"/>
<text text-anchor="middle" x="471.5" y="-175.5" font-family="Helvetica,sans-Serif" font-size="10.00">ButtonMatrix.ipp</text>
</a>
</g>
</g>
<!-- Node6&#45;&gt;Node13 -->
<g id="edge12" class="edge"><title>Node6&#45;&gt;Node13</title>
<path fill="none" stroke="midnightblue" d="M600.764,-221.304C569.673,-211.129 525.353,-196.625 497.522,-187.516"/>
<polygon fill="midnightblue" stroke="midnightblue" points="599.763,-224.659 610.355,-224.444 601.94,-218.007 599.763,-224.659"/>
</g>
<!-- Node15 -->
<g id="node15" class="node"><title>Node15</title>
<g id="a_node15"><a xlink:href="../../d7/def/AnalogMultiplex_8hpp.html" target="_top" xlink:title=" ">
<polygon fill="white" stroke="black" points="1181.5,-168.5 1181.5,-187.5 1285.5,-187.5 1285.5,-168.5 1181.5,-168.5"/>
<text text-anchor="middle" x="1233.5" y="-175.5" font-family="Helvetica,sans-Serif" font-size="10.00">AnalogMultiplex.hpp</text>
</a>
</g>
</g>
<!-- Node6&#45;&gt;Node15 -->
<g id="edge15" class="edge"><title>Node6&#45;&gt;Node15</title>
<path fill="none" stroke="midnightblue" d="M710.614,-228.254C814.178,-221.285 1007.99,-207.023 1172.5,-188 1175.37,-187.668 1178.32,-187.306 1181.28,-186.924"/>
<polygon fill="midnightblue" stroke="midnightblue" points="710.316,-224.766 700.572,-228.925 710.784,-231.75 710.316,-224.766"/>
</g>
<!-- Node6&#45;&gt;Node16 -->
<g id="edge16" class="edge"><title>Node6&#45;&gt;Node16</title>
<path fill="none" stroke="midnightblue" d="M701.699,-222.854C767.262,-212.651 867.205,-197.098 928.774,-187.516"/>
<polygon fill="midnightblue" stroke="midnightblue" points="700.826,-219.447 691.483,-224.444 701.902,-226.364 700.826,-219.447"/>
</g>
<!-- Node17 -->
<g id="node17" class="node"><title>Node17</title>
<g id="a_node17"><a xlink:href="../../d5/d47/ShiftRegisterOutBase_8ipp.html" target="_top" xlink:title=" ">
<polygon fill="white" stroke="black" points="773.5,-168.5 773.5,-187.5 901.5,-187.5 901.5,-168.5 773.5,-168.5"/>
<text text-anchor="middle" x="837.5" y="-175.5" font-family="Helvetica,sans-Serif" font-size="10.00">ShiftRegisterOutBase.ipp</text>
</a>
</g>
</g>
<!-- Node6&#45;&gt;Node17 -->
<g id="edge17" class="edge"><title>Node6&#45;&gt;Node17</title>
<path fill="none" stroke="midnightblue" d="M678.081,-221.829C716.031,-211.633 771.31,-196.782 805.8,-187.516"/>
<polygon fill="midnightblue" stroke="midnightblue" points="677.098,-218.469 668.349,-224.444 678.915,-225.229 677.098,-218.469"/>
</g>
<!-- Node20 -->
<g id="node20" class="node"><title>Node20</title>
<g id="a_node20"><a xlink:href="../../de/d95/ShiftRegisterOut_8ipp.html" target="_top" xlink:title=" ">
<polygon fill="white" stroke="black" points="490,-0.5 490,-19.5 595,-19.5 595,-0.5 490,-0.5"/>
<text text-anchor="middle" x="542.5" y="-7.5" font-family="Helvetica,sans-Serif" font-size="10.00">ShiftRegisterOut.ipp</text>
</a>
</g>
</g>
<!-- Node6&#45;&gt;Node20 -->
<g id="edge26" class="edge"><title>Node6&#45;&gt;Node20</title>
<path fill="none" stroke="midnightblue" d="M562.201,-227.342C506.523,-221.404 436.901,-209.781 418.5,-188 396.694,-162.188 402.658,-142.824 416.5,-112 437.517,-65.1978 492.873,-33.6969 522.733,-19.5373"/>
<polygon fill="midnightblue" stroke="midnightblue" points="562.116,-230.852 572.42,-228.386 562.827,-223.888 562.116,-230.852"/>
</g>
<!-- Node22 -->
<g id="node22" class="node"><title>Node22</title>
<g id="a_node22"><a xlink:href="../../da/d45/SPIShiftRegisterOut_8ipp.html" target="_top" xlink:title=" ">
<polygon fill="white" stroke="black" points="916.5,-0.5 916.5,-19.5 1038.5,-19.5 1038.5,-0.5 916.5,-0.5"/>
<text text-anchor="middle" x="977.5" y="-7.5" font-family="Helvetica,sans-Serif" font-size="10.00">SPIShiftRegisterOut.ipp</text>
</a>
</g>
</g>
<!-- Node6&#45;&gt;Node22 -->
<g id="edge27" class="edge"><title>Node6&#45;&gt;Node22</title>
<path fill="none" stroke="midnightblue" d="M633.9,-214.404C632.865,-200.833 633.301,-182.374 640.5,-168 657.727,-133.603 673.312,-131.454 706.5,-112 785.987,-65.4082 890.761,-33.7165 943.731,-19.503"/>
<polygon fill="midnightblue" stroke="midnightblue" points="630.433,-214.898 635,-224.458 637.392,-214.137 630.433,-214.898"/>
</g>
<!-- Node23 -->
<g id="node23" class="node"><title>Node23</title>
<g id="a_node23"><a xlink:href="../../d8/df3/FilteredAnalog_8hpp.html" target="_top" xlink:title=" ">
<polygon fill="white" stroke="black" points="1065.5,-168.5 1065.5,-187.5 1163.5,-187.5 1163.5,-168.5 1065.5,-168.5"/>
<text text-anchor="middle" x="1114.5" y="-175.5" font-family="Helvetica,sans-Serif" font-size="10.00">FilteredAnalog.hpp</text>
</a>
</g>
</g>
<!-- Node6&#45;&gt;Node23 -->
<g id="edge28" class="edge"><title>Node6&#45;&gt;Node23</title>
<path fill="none" stroke="midnightblue" d="M710.609,-226.127C794.623,-218.088 935.622,-203.845 1056.5,-188 1059.43,-187.616 1062.44,-187.203 1065.48,-186.774"/>
<polygon fill="midnightblue" stroke="midnightblue" points="710.274,-222.643 700.651,-227.076 710.938,-229.611 710.274,-222.643"/>
</g>
<!-- Node24 -->
<g id="node24" class="node"><title>Node24</title>
<g id="a_node24"><a xlink:href="../../d9/d4f/LEDs_8hpp.html" target="_top" xlink:title=" ">
<polygon fill="white" stroke="black" points="533.5,-168.5 533.5,-187.5 593.5,-187.5 593.5,-168.5 533.5,-168.5"/>
<text text-anchor="middle" x="563.5" y="-175.5" font-family="Helvetica,sans-Serif" font-size="10.00">LEDs.hpp</text>
</a>
</g>
</g>
<!-- Node6&#45;&gt;Node24 -->
<g id="edge29" class="edge"><title>Node6&#45;&gt;Node24</title>
<path fill="none" stroke="midnightblue" d="M616.358,-218.101C603.221,-208.382 586.518,-196.027 575.442,-187.834"/>
<polygon fill="midnightblue" stroke="midnightblue" points="614.65,-221.191 624.771,-224.324 618.813,-215.563 614.65,-221.191"/>
</g>
<!-- Node26 -->
<g id="node26" class="node"><title>Node26</title>
<g id="a_node26"><a xlink:href="../../d7/d13/MAX7219__Base_8hpp.html" target="_top" xlink:title=" ">
<polygon fill="white" stroke="black" points="649.5,-168.5 649.5,-187.5 755.5,-187.5 755.5,-168.5 649.5,-168.5"/>
<text text-anchor="middle" x="702.5" y="-175.5" font-family="Helvetica,sans-Serif" font-size="10.00">MAX7219_Base.hpp</text>
</a>
</g>
</g>
<!-- Node6&#45;&gt;Node26 -->
<g id="edge31" class="edge"><title>Node6&#45;&gt;Node26</title>
<path fill="none" stroke="midnightblue" d="M655.054,-217.82C666.878,-208.145 681.786,-195.948 691.703,-187.834"/>
<polygon fill="midnightblue" stroke="midnightblue" points="652.627,-215.283 647.104,-224.324 657.06,-220.7 652.627,-215.283"/>
</g>
<!-- Node8 -->
<g id="node8" class="node"><title>Node8</title>
<g id="a_node8"><a xlink:href="../../de/dd1/Button_8cpp.html" target="_top" xlink:title=" ">
<polygon fill="white" stroke="black" points="179.5,-112.5 179.5,-131.5 243.5,-131.5 243.5,-112.5 179.5,-112.5"/>
<text text-anchor="middle" x="211.5" y="-119.5" font-family="Helvetica,sans-Serif" font-size="10.00">Button.cpp</text>
</a>
</g>
</g>
<!-- Node7&#45;&gt;Node8 -->
<g id="edge7" class="edge"><title>Node7&#45;&gt;Node8</title>
<path fill="none" stroke="midnightblue" d="M278.462,-163.177C261.901,-153.241 240.082,-140.149 225.924,-131.655"/>
<polygon fill="midnightblue" stroke="midnightblue" points="276.664,-166.18 287.04,-168.324 280.266,-160.178 276.664,-166.18"/>
</g>
<!-- Node9 -->
<g id="node9" class="node"><title>Node9</title>
<g id="a_node9"><a xlink:href="../../d5/d04/IncrementButton_8hpp.html" target="_top" xlink:title=" ">
<polygon fill="white" stroke="black" points="262,-112.5 262,-131.5 369,-131.5 369,-112.5 262,-112.5"/>
<text text-anchor="middle" x="315.5" y="-119.5" font-family="Helvetica,sans-Serif" font-size="10.00">IncrementButton.hpp</text>
</a>
</g>
</g>
<!-- Node7&#45;&gt;Node9 -->
<g id="edge8" class="edge"><title>Node7&#45;&gt;Node9</title>
<path fill="none" stroke="midnightblue" d="M306.323,-158.396C308.665,-149.362 311.368,-138.936 313.231,-131.751"/>
<polygon fill="midnightblue" stroke="midnightblue" points="302.934,-157.525 303.812,-168.083 309.71,-159.281 302.934,-157.525"/>
</g>
<!-- Node11 -->
<g id="node11" class="node"><title>Node11</title>
<g id="a_node11"><a xlink:href="../../df/df5/IncrementDecrementButtons_8hpp.html" target="_top" xlink:title=" ">
<polygon fill="white" stroke="black" points="0,-112.5 0,-131.5 161,-131.5 161,-112.5 0,-112.5"/>
<text text-anchor="middle" x="80.5" y="-119.5" font-family="Helvetica,sans-Serif" font-size="10.00">IncrementDecrementButtons.hpp</text>
</a>
</g>
</g>
<!-- Node7&#45;&gt;Node11 -->
<g id="edge10" class="edge"><title>Node7&#45;&gt;Node11</title>
<path fill="none" stroke="midnightblue" d="M259.52,-166.742C217.844,-156.559 154.685,-141.127 115.596,-131.576"/>
<polygon fill="midnightblue" stroke="midnightblue" points="258.82,-170.174 269.365,-169.148 260.481,-163.374 258.82,-170.174"/>
</g>
<!-- Node10 -->
<g id="node10" class="node"><title>Node10</title>
<g id="a_node10"><a xlink:href="../../db/d9d/IncrementButton_8cpp.html" target="_top" xlink:title=" ">
<polygon fill="white" stroke="black" points="262,-56.5 262,-75.5 369,-75.5 369,-56.5 262,-56.5"/>
<text text-anchor="middle" x="315.5" y="-63.5" font-family="Helvetica,sans-Serif" font-size="10.00">IncrementButton.cpp</text>
</a>
</g>
</g>
<!-- Node9&#45;&gt;Node10 -->
<g id="edge9" class="edge"><title>Node9&#45;&gt;Node10</title>
<path fill="none" stroke="midnightblue" d="M315.5,-101.805C315.5,-92.9102 315.5,-82.7798 315.5,-75.7511"/>
<polygon fill="midnightblue" stroke="midnightblue" points="312,-102.083 315.5,-112.083 319,-102.083 312,-102.083"/>
</g>
<!-- Node12 -->
<g id="node12" class="node"><title>Node12</title>
<g id="a_node12"><a xlink:href="../../da/d66/IncrementDecrementButtons_8cpp.html" target="_top" xlink:title=" ">
<polygon fill="white" stroke="black" points="0,-56.5 0,-75.5 161,-75.5 161,-56.5 0,-56.5"/>
<text text-anchor="middle" x="80.5" y="-63.5" font-family="Helvetica,sans-Serif" font-size="10.00">IncrementDecrementButtons.cpp</text>
</a>
</g>
</g>
<!-- Node11&#45;&gt;Node12 -->
<g id="edge11" class="edge"><title>Node11&#45;&gt;Node12</title>
<path fill="none" stroke="midnightblue" d="M80.5,-101.805C80.5,-92.9102 80.5,-82.7798 80.5,-75.7511"/>
<polygon fill="midnightblue" stroke="midnightblue" points="77.0001,-102.083 80.5,-112.083 84.0001,-102.083 77.0001,-102.083"/>
</g>
<!-- Node14 -->
<g id="node14" class="node"><title>Node14</title>
<g id="a_node14"><a xlink:href="../../d9/d4b/ButtonMatrix_8hpp.html" target="_top" xlink:title=" ">
<polygon fill="white" stroke="black" points="426,-112.5 426,-131.5 517,-131.5 517,-112.5 426,-112.5"/>
<text text-anchor="middle" x="471.5" y="-119.5" font-family="Helvetica,sans-Serif" font-size="10.00">ButtonMatrix.hpp</text>
</a>
</g>
</g>
<!-- Node13&#45;&gt;Node14 -->
<g id="edge13" class="edge"><title>Node13&#45;&gt;Node14</title>
<path fill="none" stroke="midnightblue" d="M465.028,-158.101C464.396,-149.136 464.843,-138.858 466.369,-131.751"/>
<polygon fill="midnightblue" stroke="midnightblue" points="461.566,-158.622 466.334,-168.083 468.507,-157.713 461.566,-158.622"/>
</g>
<!-- Node14&#45;&gt;Node13 -->
<g id="edge14" class="edge"><title>Node14&#45;&gt;Node13</title>
<path fill="none" stroke="midnightblue" d="M477.958,-141.691C478.606,-150.635 478.176,-160.927 476.666,-168.083"/>
<polygon fill="midnightblue" stroke="midnightblue" points="481.423,-141.2 476.631,-131.751 474.485,-142.126 481.423,-141.2"/>
</g>
<!-- Node18 -->
<g id="node18" class="node"><title>Node18</title>
<g id="a_node18"><a xlink:href="../../d8/d93/ShiftRegisterOutBase_8hpp.html" target="_top" xlink:title=" ">
<polygon fill="white" stroke="black" points="912,-112.5 912,-131.5 1043,-131.5 1043,-112.5 912,-112.5"/>
<text text-anchor="middle" x="977.5" y="-119.5" font-family="Helvetica,sans-Serif" font-size="10.00">ShiftRegisterOutBase.hpp</text>
</a>
</g>
</g>
<!-- Node17&#45;&gt;Node18 -->
<g id="edge18" class="edge"><title>Node17&#45;&gt;Node18</title>
<path fill="none" stroke="midnightblue" d="M864.103,-164.503C888.872,-154.38 925.386,-140.388 950.34,-131.516"/>
<polygon fill="midnightblue" stroke="midnightblue" points="862.493,-161.382 854.595,-168.444 865.173,-167.848 862.493,-161.382"/>
</g>
<!-- Node18&#45;&gt;Node17 -->
<g id="edge22" class="edge"><title>Node18&#45;&gt;Node17</title>
<path fill="none" stroke="midnightblue" d="M951.009,-135.451C926.275,-145.563 889.762,-159.557 864.772,-168.444"/>
<polygon fill="midnightblue" stroke="midnightblue" points="952.603,-138.579 960.5,-131.516 949.922,-132.113 952.603,-138.579"/>
</g>
<!-- Node19 -->
<g id="node19" class="node"><title>Node19</title>
<g id="a_node19"><a xlink:href="../../d0/db4/ShiftRegisterOut_8hpp.html" target="_top" xlink:title=" ">
<polygon fill="white" stroke="black" points="488.5,-56.5 488.5,-75.5 596.5,-75.5 596.5,-56.5 488.5,-56.5"/>
<text text-anchor="middle" x="542.5" y="-63.5" font-family="Helvetica,sans-Serif" font-size="10.00">ShiftRegisterOut.hpp</text>
</a>
</g>
</g>
<!-- Node18&#45;&gt;Node19 -->
<g id="edge19" class="edge"><title>Node18&#45;&gt;Node19</title>
<path fill="none" stroke="midnightblue" d="M901.806,-111.604C814.589,-100.777 673.444,-83.2551 596.586,-73.7142"/>
<polygon fill="midnightblue" stroke="midnightblue" points="901.55,-115.099 911.905,-112.857 902.412,-108.152 901.55,-115.099"/>
</g>
<!-- Node21 -->
<g id="node21" class="node"><title>Node21</title>
<g id="a_node21"><a xlink:href="../../d7/d88/SPIShiftRegisterOut_8hpp.html" target="_top" xlink:title=" ">
<polygon fill="white" stroke="black" points="915,-56.5 915,-75.5 1040,-75.5 1040,-56.5 915,-56.5"/>
<text text-anchor="middle" x="977.5" y="-63.5" font-family="Helvetica,sans-Serif" font-size="10.00">SPIShiftRegisterOut.hpp</text>
</a>
</g>
</g>
<!-- Node18&#45;&gt;Node21 -->
<g id="edge23" class="edge"><title>Node18&#45;&gt;Node21</title>
<path fill="none" stroke="midnightblue" d="M977.5,-101.805C977.5,-92.9102 977.5,-82.7798 977.5,-75.7511"/>
<polygon fill="midnightblue" stroke="midnightblue" points="974,-102.083 977.5,-112.083 981,-102.083 974,-102.083"/>
</g>
<!-- Node19&#45;&gt;Node20 -->
<g id="edge20" class="edge"><title>Node19&#45;&gt;Node20</title>
<path fill="none" stroke="midnightblue" d="M536.028,-46.1005C535.396,-37.1357 535.843,-26.8579 537.369,-19.7511"/>
<polygon fill="midnightblue" stroke="midnightblue" points="532.566,-46.6216 537.334,-56.083 539.507,-45.7134 532.566,-46.6216"/>
</g>
<!-- Node20&#45;&gt;Node19 -->
<g id="edge21" class="edge"><title>Node20&#45;&gt;Node19</title>
<path fill="none" stroke="midnightblue" d="M548.958,-29.6911C549.606,-38.6353 549.176,-48.9272 547.666,-56.083"/>
<polygon fill="midnightblue" stroke="midnightblue" points="552.423,-29.2002 547.631,-19.7511 545.485,-30.1262 552.423,-29.2002"/>
</g>
<!-- Node21&#45;&gt;Node22 -->
<g id="edge24" class="edge"><title>Node21&#45;&gt;Node22</title>
<path fill="none" stroke="midnightblue" d="M971.028,-46.1005C970.396,-37.1357 970.843,-26.8579 972.369,-19.7511"/>
<polygon fill="midnightblue" stroke="midnightblue" points="967.566,-46.6216 972.334,-56.083 974.507,-45.7134 967.566,-46.6216"/>
</g>
<!-- Node22&#45;&gt;Node21 -->
<g id="edge25" class="edge"><title>Node22&#45;&gt;Node21</title>
<path fill="none" stroke="midnightblue" d="M983.958,-29.6911C984.606,-38.6353 984.176,-48.9272 982.666,-56.083"/>
<polygon fill="midnightblue" stroke="midnightblue" points="987.423,-29.2002 982.631,-19.7511 980.485,-30.1262 987.423,-29.2002"/>
</g>
<!-- Node25 -->
<g id="node25" class="node"><title>Node25</title>
<g id="a_node25"><a xlink:href="../../d6/d3a/DotBarDisplayLEDs_8hpp.html" target="_top" xlink:title=" ">
<polygon fill="white" stroke="black" points="535.5,-112.5 535.5,-131.5 659.5,-131.5 659.5,-112.5 535.5,-112.5"/>
<text text-anchor="middle" x="597.5" y="-119.5" font-family="Helvetica,sans-Serif" font-size="10.00">DotBarDisplayLEDs.hpp</text>
</a>
</g>
</g>
<!-- Node24&#45;&gt;Node25 -->
<g id="edge30" class="edge"><title>Node24&#45;&gt;Node25</title>
<path fill="none" stroke="midnightblue" d="M574.477,-159.566C580.327,-150.275 587.27,-139.248 591.99,-131.751"/>
<polygon fill="midnightblue" stroke="midnightblue" points="571.481,-157.756 569.114,-168.083 577.404,-161.486 571.481,-157.756"/>
</g>
<!-- Node27 -->
<g id="node27" class="node"><title>Node27</title>
<g id="a_node27"><a xlink:href="../../d2/d25/MAX7219_8hpp.html" target="_top" xlink:title=" ">
<polygon fill="white" stroke="black" points="1309.5,-112.5 1309.5,-131.5 1387.5,-131.5 1387.5,-112.5 1309.5,-112.5"/>
<text text-anchor="middle" x="1348.5" y="-119.5" font-family="Helvetica,sans-Serif" font-size="10.00">MAX7219.hpp</text>
</a>
</g>
</g>
<!-- Node26&#45;&gt;Node27 -->
<g id="edge32" class="edge"><title>Node26&#45;&gt;Node27</title>
<path fill="none" stroke="midnightblue" d="M765.605,-167.949C976.824,-144.822 1216.92,-130.268 1309.46,-125.099"/>
<polygon fill="midnightblue" stroke="midnightblue" points="765.125,-164.481 755.57,-169.057 765.893,-171.438 765.125,-164.481"/>
</g>
<!-- Node28 -->
<g id="node28" class="node"><title>Node28</title>
<g id="a_node28"><a xlink:href="../../d5/d0c/MAX7219SevenSegmentDisplay_8hpp.html" target="_top" xlink:title=" ">
<polygon fill="white" stroke="black" points="715.5,-112.5 715.5,-131.5 893.5,-131.5 893.5,-112.5 715.5,-112.5"/>
<text text-anchor="middle" x="804.5" y="-119.5" font-family="Helvetica,sans-Serif" font-size="10.00">MAX7219SevenSegmentDisplay.hpp</text>
</a>
</g>
</g>
<!-- Node26&#45;&gt;Node28 -->
<g id="edge33" class="edge"><title>Node26&#45;&gt;Node28</title>
<path fill="none" stroke="midnightblue" d="M727.831,-163.59C746.69,-153.605 771.884,-140.267 788.153,-131.655"/>
<polygon fill="midnightblue" stroke="midnightblue" points="726.088,-160.552 718.888,-168.324 729.364,-166.738 726.088,-160.552"/>
</g>
<!-- Node29&#45;&gt;Node15 -->
<g id="edge35" class="edge"><title>Node29&#45;&gt;Node15</title>
<path fill="none" stroke="midnightblue" d="M1292.93,-218.622C1278.14,-208.757 1258.99,-195.992 1246.48,-187.655"/>
<polygon fill="midnightblue" stroke="midnightblue" points="1291.22,-221.689 1301.49,-224.324 1295.11,-215.865 1291.22,-221.689"/>
</g>
<!-- Node29&#45;&gt;Node18 -->
<g id="edge37" class="edge"><title>Node29&#45;&gt;Node18</title>
<path fill="none" stroke="midnightblue" d="M1313.93,-214.179C1312.41,-199.357 1307.81,-179.363 1294.5,-168 1257.77,-136.645 1124.87,-127.123 1043.27,-124.241"/>
<polygon fill="midnightblue" stroke="midnightblue" points="1310.44,-214.522 1314.58,-224.276 1317.43,-214.072 1310.44,-214.522"/>
</g>
<!-- Node29&#45;&gt;Node27 -->
<g id="edge36" class="edge"><title>Node29&#45;&gt;Node27</title>
<path fill="none" stroke="midnightblue" d="M1320.16,-214.674C1327.6,-190.625 1340.34,-149.388 1345.84,-131.591"/>
<polygon fill="midnightblue" stroke="midnightblue" points="1316.78,-213.781 1317.17,-224.368 1323.46,-215.848 1316.78,-213.781"/>
</g>
<!-- Node32&#45;&gt;Node4 -->
<g id="edge67" class="edge"><title>Node32&#45;&gt;Node4</title>
<path fill="none" stroke="midnightblue" d="M988.17,-446.651C950.435,-436.463 893.483,-421.085 858.217,-411.564"/>
<polygon fill="midnightblue" stroke="midnightblue" points="987.702,-450.15 998.269,-449.378 989.527,-443.392 987.702,-450.15"/>
</g>
<!-- Node32&#45;&gt;Node16 -->
<g id="edge69" class="edge"><title>Node32&#45;&gt;Node16</title>
<path fill="none" stroke="midnightblue" d="M1002.3,-443.097C963.896,-419.449 890.377,-367.338 861.5,-300 838.75,-246.949 920.093,-204.966 961.167,-187.629"/>
<polygon fill="midnightblue" stroke="midnightblue" points="1000.89,-446.332 1011.26,-448.488 1004.5,-440.334 1000.89,-446.332"/>
</g>
<!-- Node32&#45;&gt;Node30 -->
<g id="edge70" class="edge"><title>Node32&#45;&gt;Node30</title>
<path fill="none" stroke="midnightblue" d="M1029.79,-438.145C1032.65,-424.709 1037.61,-406.528 1045.5,-392 1055.58,-373.446 1066.38,-374.529 1076.5,-356 1097.73,-317.148 1107.87,-264.272 1111.2,-243.694"/>
<polygon fill="midnightblue" stroke="midnightblue" points="1026.32,-437.649 1027.86,-448.132 1033.19,-438.979 1026.32,-437.649"/>
</g>
<!-- Node33 -->
<g id="node33" class="node"><title>Node33</title>
<g id="a_node33"><a xlink:href="../../de/d76/Array_8hpp.html" target="_top" xlink:title=" ">
<polygon fill="white" stroke="black" points="1287,-392.5 1287,-411.5 1346,-411.5 1346,-392.5 1287,-392.5"/>
<text text-anchor="middle" x="1316.5" y="-399.5" font-family="Helvetica,sans-Serif" font-size="10.00">Array.hpp</text>
</a>
</g>
</g>
<!-- Node32&#45;&gt;Node33 -->
<g id="edge42" class="edge"><title>Node32&#45;&gt;Node33</title>
<path fill="none" stroke="midnightblue" d="M1064.68,-447.854C1150.86,-429.938 1241.14,-414.967 1286.78,-407.667"/>
<polygon fill="midnightblue" stroke="midnightblue" points="1063.81,-444.461 1054.74,-449.938 1065.25,-451.312 1063.81,-444.461"/>
</g>
<!-- Node45 -->
<g id="node45" class="node"><title>Node45</title>
<g id="a_node45"><a xlink:href="../../d1/d40/BitArray_8hpp.html" target="_top" xlink:title=" ">
<polygon fill="white" stroke="black" points="1380,-168.5 1380,-187.5 1451,-187.5 1451,-168.5 1380,-168.5"/>
<text text-anchor="middle" x="1415.5" y="-175.5" font-family="Helvetica,sans-Serif" font-size="10.00">BitArray.hpp</text>
</a>
</g>
</g>
<!-- Node32&#45;&gt;Node45 -->
<g id="edge63" class="edge"><title>Node32&#45;&gt;Node45</title>
<path fill="none" stroke="midnightblue" d="M1063.25,-445.278C1092.88,-435.433 1131.8,-421.49 1145.5,-412 1209.71,-367.536 1194.75,-320.542 1261.5,-280 1318.62,-245.308 1363.14,-293.991 1407.5,-244 1421.38,-228.351 1419.44,-201.619 1417.25,-187.819"/>
<polygon fill="midnightblue" stroke="midnightblue" points="1062.02,-442 1053.61,-448.448 1064.2,-448.65 1062.02,-442"/>
</g>
<!-- Node46 -->
<g id="node46" class="node"><title>Node46</title>
<g id="a_node46"><a xlink:href="../../d6/df4/Exit_8cpp.html" target="_top" xlink:title=" ">
<polygon fill="white" stroke="black" points="1364,-392.5 1364,-411.5 1417,-411.5 1417,-392.5 1364,-392.5"/>
<text text-anchor="middle" x="1390.5" y="-399.5" font-family="Helvetica,sans-Serif" font-size="10.00">Exit.cpp</text>
</a>
</g>
</g>
<!-- Node32&#45;&gt;Node46 -->
<g id="edge68" class="edge"><title>Node32&#45;&gt;Node46</title>
<path fill="none" stroke="midnightblue" d="M1064.56,-448C1193.44,-425.091 1229.51,-435.266 1354.5,-412 1357.54,-411.434 1360.71,-410.764 1363.84,-410.049"/>
<polygon fill="midnightblue" stroke="midnightblue" points="1063.93,-444.558 1054.71,-449.783 1065.17,-451.446 1063.93,-444.558"/>
</g>
<!-- Node47 -->
<g id="node47" class="node"><title>Node47</title>
<g id="a_node47"><a xlink:href="../../d3/d50/FixedPoint_8hpp.html" target="_top" xlink:title=" ">
<polygon fill="white" stroke="black" points="1054.5,-392.5 1054.5,-411.5 1136.5,-411.5 1136.5,-392.5 1054.5,-392.5"/>
<text text-anchor="middle" x="1095.5" y="-399.5" font-family="Helvetica,sans-Serif" font-size="10.00">FixedPoint.hpp</text>
</a>
</g>
</g>
<!-- Node32&#45;&gt;Node47 -->
<g id="edge71" class="edge"><title>Node32&#45;&gt;Node47</title>
<path fill="none" stroke="midnightblue" d="M1045.54,-442.101C1057.96,-432.382 1073.74,-420.027 1084.21,-411.834"/>
<polygon fill="midnightblue" stroke="midnightblue" points="1043.3,-439.405 1037.59,-448.324 1047.62,-444.917 1043.3,-439.405"/>
</g>
<!-- Node33&#45;&gt;Node15 -->
<g id="edge48" class="edge"><title>Node33&#45;&gt;Node15</title>
<path fill="none" stroke="midnightblue" d="M1277.14,-392.924C1256.81,-386.541 1233.74,-375.349 1221.5,-356 1186.42,-300.564 1218.02,-214.844 1229.63,-187.612"/>
<polygon fill="midnightblue" stroke="midnightblue" points="1276.27,-396.315 1286.85,-395.686 1278.19,-389.582 1276.27,-396.315"/>
</g>
<!-- Node34 -->
<g id="node34" class="node"><title>Node34</title>
<g id="a_node34"><a xlink:href="../../d5/db6/ArrayHelpers_8hpp.html" target="_top" xlink:title=" ">
<polygon fill="white" stroke="black" points="1270.5,-280.5 1270.5,-299.5 1362.5,-299.5 1362.5,-280.5 1270.5,-280.5"/>
<text text-anchor="middle" x="1316.5" y="-287.5" font-family="Helvetica,sans-Serif" font-size="10.00">ArrayHelpers.hpp</text>
</a>
</g>
</g>
<!-- Node33&#45;&gt;Node34 -->
<g id="edge43" class="edge"><title>Node33&#45;&gt;Node34</title>
<path fill="none" stroke="midnightblue" d="M1316.5,-382.348C1316.5,-358.254 1316.5,-317.308 1316.5,-299.591"/>
<polygon fill="midnightblue" stroke="midnightblue" points="1313,-382.368 1316.5,-392.368 1320,-382.369 1313,-382.368"/>
</g>
<!-- Node37 -->
<g id="node37" class="node"><title>Node37</title>
<g id="a_node37"><a xlink:href="../../df/db0/ZeroPoleGain_8hpp.html" target="_top" xlink:title=" ">
<polygon fill="white" stroke="black" points="1588,-168.5 1588,-187.5 1683,-187.5 1683,-168.5 1588,-168.5"/>
<text text-anchor="middle" x="1635.5" y="-175.5" font-family="Helvetica,sans-Serif" font-size="10.00">ZeroPoleGain.hpp</text>
</a>
</g>
</g>
<!-- Node33&#45;&gt;Node37 -->
<g id="edge62" class="edge"><title>Node33&#45;&gt;Node37</title>
<path fill="none" stroke="midnightblue" d="M1356.26,-392.105C1430.97,-382.613 1591.87,-400.095 1631.5,-356 1675.47,-307.076 1648.72,-216.261 1638.76,-187.779"/>
<polygon fill="midnightblue" stroke="midnightblue" points="1355.66,-388.655 1346.31,-393.633 1356.72,-395.574 1355.66,-388.655"/>
</g>
<!-- Node38 -->
<g id="node38" class="node"><title>Node38</title>
<g id="a_node38"><a xlink:href="../../d4/d35/Hardware-Types_8hpp.html" target="_top" xlink:title=" ">
<polygon fill="white" stroke="black" points="961,-336.5 961,-355.5 1068,-355.5 1068,-336.5 961,-336.5"/>
<text text-anchor="middle" x="1014.5" y="-343.5" font-family="Helvetica,sans-Serif" font-size="10.00">Hardware&#45;Types.hpp</text>
</a>
</g>
</g>
<!-- Node33&#45;&gt;Node38 -->
<g id="edge49" class="edge"><title>Node33&#45;&gt;Node38</title>
<path fill="none" stroke="midnightblue" d="M1276.88,-393.916C1221.59,-384.03 1121.41,-366.117 1062.13,-355.516"/>
<polygon fill="midnightblue" stroke="midnightblue" points="1276.53,-397.409 1286.99,-395.724 1277.77,-390.518 1276.53,-397.409"/>
</g>
<!-- Node39 -->
<g id="node39" class="node"><title>Node39</title>
<g id="a_node39"><a xlink:href="../../d1/dde/BiQuad_8hpp.html" target="_top" xlink:title=" ">
<polygon fill="white" stroke="black" points="1473.5,-280.5 1473.5,-299.5 1541.5,-299.5 1541.5,-280.5 1473.5,-280.5"/>
<text text-anchor="middle" x="1507.5" y="-287.5" font-family="Helvetica,sans-Serif" font-size="10.00">BiQuad.hpp</text>
</a>
</g>
</g>
<!-- Node33&#45;&gt;Node39 -->
<g id="edge53" class="edge"><title>Node33&#45;&gt;Node39</title>
<path fill="none" stroke="midnightblue" d="M1356.13,-391.604C1409.85,-378.825 1499.29,-357.384 1500.5,-356 1514.26,-340.287 1511.85,-313.582 1509.41,-299.804"/>
<polygon fill="midnightblue" stroke="midnightblue" points="1355.14,-388.241 1346.22,-393.959 1356.76,-395.052 1355.14,-388.241"/>
</g>
<!-- Node40 -->
<g id="node40" class="node"><title>Node40</title>
<g id="a_node40"><a xlink:href="../../d2/d3b/FIRFilter_8hpp.html" target="_top" xlink:title=" ">
<polygon fill="white" stroke="black" points="1548.5,-336.5 1548.5,-355.5 1622.5,-355.5 1622.5,-336.5 1548.5,-336.5"/>
<text text-anchor="middle" x="1585.5" y="-343.5" font-family="Helvetica,sans-Serif" font-size="10.00">FIRFilter.hpp</text>
</a>
</g>
</g>
<!-- Node33&#45;&gt;Node40 -->
<g id="edge55" class="edge"><title>Node33&#45;&gt;Node40</title>
<path fill="none" stroke="midnightblue" d="M1356.19,-391.693C1429.4,-376.025 1504.42,-361.864 1548.2,-353.79"/>
<polygon fill="midnightblue" stroke="midnightblue" points="1355.38,-388.286 1346.35,-393.812 1356.86,-395.13 1355.38,-388.286"/>
</g>
<!-- Node42 -->
<g id="node42" class="node"><title>Node42</title>
<g id="a_node42"><a xlink:href="../../dc/d64/IIRFilter_8hpp.html" target="_top" xlink:title=" ">
<polygon fill="white" stroke="black" points="1382,-280.5 1382,-299.5 1453,-299.5 1453,-280.5 1382,-280.5"/>
<text text-anchor="middle" x="1417.5" y="-287.5" font-family="Helvetica,sans-Serif" font-size="10.00">IIRFilter.hpp</text>
</a>
</g>
</g>
<!-- Node33&#45;&gt;Node42 -->
<g id="edge57" class="edge"><title>Node33&#45;&gt;Node42</title>
<path fill="none" stroke="midnightblue" d="M1330.4,-384.665C1341.79,-371.387 1358.44,-352.26 1373.5,-336 1385.38,-323.173 1399.6,-308.802 1408.59,-299.827"/>
<polygon fill="midnightblue" stroke="midnightblue" points="1327.57,-382.581 1323.73,-392.456 1332.89,-387.129 1327.57,-382.581"/>
</g>
<!-- Node43 -->
<g id="node43" class="node"><title>Node43</title>
<g id="a_node43"><a xlink:href="../../dc/d9c/SMA_8hpp.html" target="_top" xlink:title=" ">
<polygon fill="white" stroke="black" points="1231,-336.5 1231,-355.5 1288,-355.5 1288,-336.5 1231,-336.5"/>
<text text-anchor="middle" x="1259.5" y="-343.5" font-family="Helvetica,sans-Serif" font-size="10.00">SMA.hpp</text>
</a>
</g>
</g>
<!-- Node33&#45;&gt;Node43 -->
<g id="edge58" class="edge"><title>Node33&#45;&gt;Node43</title>
<path fill="none" stroke="midnightblue" d="M1299.88,-385.253C1289.77,-375.673 1277.22,-363.791 1268.82,-355.834"/>
<polygon fill="midnightblue" stroke="midnightblue" points="1297.68,-387.987 1307.34,-392.324 1302.49,-382.906 1297.68,-387.987"/>
</g>
<!-- Node44 -->
<g id="node44" class="node"><title>Node44</title>
<g id="a_node44"><a xlink:href="../../d2/d03/TransferFunction_8hpp.html" target="_top" xlink:title=" ">
<polygon fill="white" stroke="black" points="1383,-336.5 1383,-355.5 1492,-355.5 1492,-336.5 1383,-336.5"/>
<text text-anchor="middle" x="1437.5" y="-343.5" font-family="Helvetica,sans-Serif" font-size="10.00">TransferFunction.hpp</text>
</a>
</g>
</g>
<!-- Node33&#45;&gt;Node44 -->
<g id="edge59" class="edge"><title>Node33&#45;&gt;Node44</title>
<path fill="none" stroke="midnightblue" d="M1344.81,-388.368C1367.47,-378.255 1398.63,-364.349 1418.42,-355.516"/>
<polygon fill="midnightblue" stroke="midnightblue" points="1343.38,-385.172 1335.67,-392.444 1346.23,-391.564 1343.38,-385.172"/>
</g>
<!-- Node34&#45;&gt;Node29 -->
<g id="edge44" class="edge"><title>Node34&#45;&gt;Node29</title>
<path fill="none" stroke="midnightblue" d="M1315.79,-269.805C1315.46,-260.91 1315.08,-250.78 1314.82,-243.751"/>
<polygon fill="midnightblue" stroke="midnightblue" points="1312.3,-270.219 1316.17,-280.083 1319.3,-269.96 1312.3,-270.219"/>
</g>
<!-- Node35 -->
<g id="node35" class="node"><title>Node35</title>
<g id="a_node35"><a xlink:href="../../df/ddc/SOSFilter_8hpp.html" target="_top" xlink:title=" ">
<polygon fill="white" stroke="black" points="1470.5,-224.5 1470.5,-243.5 1548.5,-243.5 1548.5,-224.5 1470.5,-224.5"/>
<text text-anchor="middle" x="1509.5" y="-231.5" font-family="Helvetica,sans-Serif" font-size="10.00">SOSFilter.hpp</text>
</a>
</g>
</g>
<!-- Node34&#45;&gt;Node35 -->
<g id="edge45" class="edge"><title>Node34&#45;&gt;Node35</title>
<path fill="none" stroke="midnightblue" d="M1356.89,-277.699C1393.32,-267.507 1446.09,-252.743 1479.06,-243.516"/>
<polygon fill="midnightblue" stroke="midnightblue" points="1355.77,-274.378 1347.08,-280.444 1357.65,-281.12 1355.77,-274.378"/>
</g>
<!-- Node36 -->
<g id="node36" class="node"><title>Node36</title>
<g id="a_node36"><a xlink:href="../../d4/d40/Butterworth_8hpp.html" target="_top" xlink:title=" ">
<polygon fill="white" stroke="black" points="1469.5,-168.5 1469.5,-187.5 1555.5,-187.5 1555.5,-168.5 1469.5,-168.5"/>
<text text-anchor="middle" x="1512.5" y="-175.5" font-family="Helvetica,sans-Serif" font-size="10.00">Butterworth.hpp</text>
</a>
</g>
</g>
<!-- Node35&#45;&gt;Node36 -->
<g id="edge46" class="edge"><title>Node35&#45;&gt;Node36</title>
<path fill="none" stroke="midnightblue" d="M1510.57,-213.805C1511.06,-204.91 1511.62,-194.78 1512.01,-187.751"/>
<polygon fill="midnightblue" stroke="midnightblue" points="1507.06,-213.904 1510,-224.083 1514.04,-214.293 1507.06,-213.904"/>
</g>
<!-- Node35&#45;&gt;Node37 -->
<g id="edge47" class="edge"><title>Node35&#45;&gt;Node37</title>
<path fill="none" stroke="midnightblue" d="M1538.66,-220.503C1562.28,-210.38 1594.93,-196.388 1615.63,-187.516"/>
<polygon fill="midnightblue" stroke="midnightblue" points="1537.28,-217.287 1529.47,-224.444 1540.04,-223.721 1537.28,-217.287"/>
</g>
<!-- Node38&#45;&gt;Node5 -->
<g id="edge51" class="edge"><title>Node38&#45;&gt;Node5</title>
<path fill="none" stroke="midnightblue" d="M992.667,-330.622C977.687,-320.757 958.303,-307.992 945.642,-299.655"/>
<polygon fill="midnightblue" stroke="midnightblue" points="991.049,-333.747 1001.33,-336.324 994.899,-327.901 991.049,-333.747"/>
</g>
<!-- Node38&#45;&gt;Node14 -->
<g id="edge50" class="edge"><title>Node38&#45;&gt;Node14</title>
<path fill="none" stroke="midnightblue" d="M950.612,-338.474C809.534,-322.543 479.089,-276.35 418.5,-188 403.924,-166.746 434.84,-143.809 455.309,-131.677"/>
<polygon fill="midnightblue" stroke="midnightblue" points="950.515,-341.985 960.841,-339.613 951.29,-335.028 950.515,-341.985"/>
</g>
<!-- Node38&#45;&gt;Node23 -->
<g id="edge52" class="edge"><title>Node38&#45;&gt;Node23</title>
<path fill="none" stroke="midnightblue" d="M1014.31,-326.368C1014.96,-300.945 1019.41,-255.013 1041.5,-224 1053.77,-206.781 1074.88,-194.819 1091.26,-187.58"/>
<polygon fill="midnightblue" stroke="midnightblue" points="1010.81,-326.451 1014.24,-336.478 1017.81,-326.504 1010.81,-326.451"/>
</g>
<!-- Node39&#45;&gt;Node35 -->
<g id="edge54" class="edge"><title>Node39&#45;&gt;Node35</title>
<path fill="none" stroke="midnightblue" d="M1508.21,-269.805C1508.54,-260.91 1508.92,-250.78 1509.18,-243.751"/>
<polygon fill="midnightblue" stroke="midnightblue" points="1504.7,-269.96 1507.83,-280.083 1511.7,-270.219 1504.7,-269.96"/>
</g>
<!-- Node41 -->
<g id="node41" class="node"><title>Node41</title>
<g id="a_node41"><a xlink:href="../../df/da1/Notch_8hpp.html" target="_top" xlink:title=" ">
<polygon fill="white" stroke="black" points="1559.5,-280.5 1559.5,-299.5 1621.5,-299.5 1621.5,-280.5 1559.5,-280.5"/>
<text text-anchor="middle" x="1590.5" y="-287.5" font-family="Helvetica,sans-Serif" font-size="10.00">Notch.hpp</text>
</a>
</g>
</g>
<!-- Node40&#45;&gt;Node41 -->
<g id="edge56" class="edge"><title>Node40&#45;&gt;Node41</title>
<path fill="none" stroke="midnightblue" d="M1587.25,-326.101C1588.08,-317.136 1589.03,-306.858 1589.69,-299.751"/>
<polygon fill="midnightblue" stroke="midnightblue" points="1583.76,-325.803 1586.33,-336.083 1590.73,-326.448 1583.76,-325.803"/>
</g>
<!-- Node44&#45;&gt;Node39 -->
<g id="edge60" class="edge"><title>Node44&#45;&gt;Node39</title>
<path fill="none" stroke="midnightblue" d="M1456.81,-330.101C1469.41,-320.382 1485.43,-308.027 1496.05,-299.834"/>
<polygon fill="midnightblue" stroke="midnightblue" points="1454.53,-327.445 1448.75,-336.324 1458.8,-332.987 1454.53,-327.445"/>
</g>
<!-- Node44&#45;&gt;Node42 -->
<g id="edge61" class="edge"><title>Node44&#45;&gt;Node42</title>
<path fill="none" stroke="midnightblue" d="M1430.72,-326.69C1427.35,-317.589 1423.43,-307.014 1420.74,-299.751"/>
<polygon fill="midnightblue" stroke="midnightblue" points="1427.44,-327.921 1434.2,-336.083 1434.01,-325.49 1427.44,-327.921"/>
</g>
<!-- Node45&#45;&gt;Node18 -->
<g id="edge65" class="edge"><title>Node45&#45;&gt;Node18</title>
<path fill="none" stroke="midnightblue" d="M1369.66,-171.349C1291.73,-161.74 1133.13,-142.188 1043.34,-131.117"/>
<polygon fill="midnightblue" stroke="midnightblue" points="1369.3,-174.831 1379.66,-172.581 1370.16,-167.884 1369.3,-174.831"/>
</g>
<!-- Node45&#45;&gt;Node21 -->
<g id="edge66" class="edge"><title>Node45&#45;&gt;Node21</title>
<path fill="none" stroke="midnightblue" d="M1415.34,-158.083C1414.12,-143.205 1409.87,-123.182 1396.5,-112 1369.74,-89.6122 1150.23,-75.6035 1040.07,-69.9167"/>
<polygon fill="midnightblue" stroke="midnightblue" points="1411.85,-158.386 1415.78,-168.226 1418.84,-158.084 1411.85,-158.386"/>
</g>
<!-- Node45&#45;&gt;Node27 -->
<g id="edge64" class="edge"><title>Node45&#45;&gt;Node27</title>
<path fill="none" stroke="midnightblue" d="M1396.67,-161.82C1384.66,-152.145 1369.53,-139.948 1359.46,-131.834"/>
<polygon fill="midnightblue" stroke="midnightblue" points="1394.75,-164.774 1404.74,-168.324 1399.15,-159.324 1394.75,-164.774"/>
</g>
<!-- Node48&#45;&gt;Node2 -->
<g id="edge74" class="edge"><title>Node48&#45;&gt;Node2</title>
<path fill="none" stroke="midnightblue" d="M810.764,-470.916C839.209,-481.064 876.962,-495.399 898.93,-504.444"/>
<polygon fill="midnightblue" stroke="midnightblue" points="811.728,-467.544 801.133,-467.516 809.398,-474.145 811.728,-467.544"/>
</g>
<!-- Node48&#45;&gt;Node4 -->
<g id="edge73" class="edge"><title>Node48&#45;&gt;Node4</title>
<path fill="none" stroke="midnightblue" d="M789.481,-440.718C798.822,-431.2 810.246,-419.561 817.911,-411.751"/>
<polygon fill="midnightblue" stroke="midnightblue" points="786.759,-438.494 782.252,-448.083 791.754,-443.398 786.759,-438.494"/>
</g>
<!-- Node48&#45;&gt;Node7 -->
<g id="edge75" class="edge"><title>Node48&#45;&gt;Node7</title>
<path fill="none" stroke="midnightblue" d="M709.019,-453.256C592.422,-444.707 358.5,-418.629 358.5,-347 358.5,-347 358.5,-347 358.5,-289 358.5,-247.058 325.428,-205.188 309.667,-187.616"/>
<polygon fill="midnightblue" stroke="midnightblue" points="709.023,-456.765 719.246,-453.983 709.519,-449.782 709.023,-456.765"/>
</g>
<!-- Node48&#45;&gt;Node23 -->
<g id="edge79" class="edge"><title>Node48&#45;&gt;Node23</title>
<path fill="none" stroke="midnightblue" d="M771.845,-437.984C771.359,-424.701 772.066,-406.772 777.5,-392 798.981,-333.603 812.1,-317.832 861.5,-280 927.585,-229.39 1022.38,-200.63 1075.18,-187.598"/>
<polygon fill="midnightblue" stroke="midnightblue" points="768.371,-438.504 772.491,-448.265 775.357,-438.066 768.371,-438.504"/>
</g>
<!-- Node49 -->
<g id="node49" class="node"><title>Node49</title>
<g id="a_node49"><a xlink:href="../../d1/d1f/ShiftRegisterOutRGB_8hpp.html" target="_top" xlink:title=" ">
<polygon fill="white" stroke="black" points="600.5,-392.5 600.5,-411.5 730.5,-411.5 730.5,-392.5 600.5,-392.5"/>
<text text-anchor="middle" x="665.5" y="-399.5" font-family="Helvetica,sans-Serif" font-size="10.00">ShiftRegisterOutRGB.hpp</text>
</a>
</g>
</g>
<!-- Node48&#45;&gt;Node49 -->
<g id="edge76" class="edge"><title>Node48&#45;&gt;Node49</title>
<path fill="none" stroke="midnightblue" d="M746.952,-443.726C726.954,-433.727 700.113,-420.307 682.809,-411.655"/>
<polygon fill="midnightblue" stroke="midnightblue" points="745.638,-446.982 756.148,-448.324 748.769,-440.721 745.638,-446.982"/>
</g>
<!-- Node49&#45;&gt;Node17 -->
<g id="edge77" class="edge"><title>Node49&#45;&gt;Node17</title>
<path fill="none" stroke="midnightblue" d="M682.683,-385.467C691.298,-377.194 701.559,-366.566 709.5,-356 732.817,-324.976 732.032,-312.973 752.5,-280 768.363,-254.445 771.085,-246.973 790.5,-224 802.021,-210.368 817.224,-196.421 827.176,-187.741"/>
<polygon fill="midnightblue" stroke="midnightblue" points="680.257,-382.944 675.347,-392.332 685.04,-388.054 680.257,-382.944"/>
</g>
<!-- Node50 -->
<g id="node50" class="node"><title>Node50</title>
<g id="a_node50"><a xlink:href="../../db/d0b/ShiftRegisterOutRGB_8cpp.html" target="_top" xlink:title=" ">
<polygon fill="white" stroke="black" points="570.5,-336.5 570.5,-355.5 700.5,-355.5 700.5,-336.5 570.5,-336.5"/>
<text text-anchor="middle" x="635.5" y="-343.5" font-family="Helvetica,sans-Serif" font-size="10.00">ShiftRegisterOutRGB.cpp</text>
</a>
</g>
</g>
<!-- Node49&#45;&gt;Node50 -->
<g id="edge78" class="edge"><title>Node49&#45;&gt;Node50</title>
<path fill="none" stroke="midnightblue" d="M655.653,-383.275C650.525,-374.045 644.484,-363.17 640.362,-355.751"/>
<polygon fill="midnightblue" stroke="midnightblue" points="652.63,-385.041 660.546,-392.083 658.749,-381.642 652.63,-385.041"/>
</g>
</g>
</svg>
