<?xml version="1.0" encoding="UTF-8" standalone="no"?>
<!DOCTYPE svg PUBLIC "-//W3C//DTD SVG 1.1//EN"
 "http://www.w3.org/Graphics/SVG/1.1/DTD/svg11.dtd">
<!-- Generated by graphviz version 2.38.0 (20140413.2041)
 -->
<!-- Title: DebugVal.hpp Pages: 1 -->
<svg width="1715pt" height="588pt"
 viewBox="0.00 0.00 1714.50 588.00" xmlns="http://www.w3.org/2000/svg" xmlns:xlink="http://www.w3.org/1999/xlink">
<g id="graph0" class="graph" transform="scale(1 1) rotate(0) translate(4 584)">
<title>DebugVal.hpp</title>
<polygon fill="white" stroke="none" points="-4,4 -4,-584 1710.5,-584 1710.5,4 -4,4"/>
<!-- Node1 -->
<g id="node1" class="node"><title>Node1</title>
<g id="a_node1"><a xlink:title=" ">
<polygon fill="#bfbfbf" stroke="black" points="953.5,-560.5 953.5,-579.5 1031.5,-579.5 1031.5,-560.5 953.5,-560.5"/>
<text text-anchor="middle" x="992.5" y="-567.5" font-family="Helvetica,sans-Serif" font-size="10.00">DebugVal.hpp</text>
</a>
</g>
</g>
<!-- Node2 -->
<g id="node2" class="node"><title>Node2</title>
<g id="a_node2"><a xlink:href="../../df/dee/Debug_8hpp.html" target="_top" xlink:title=" ">
<polygon fill="white" stroke="black" points="960.5,-504.5 960.5,-523.5 1024.5,-523.5 1024.5,-504.5 960.5,-504.5"/>
<text text-anchor="middle" x="992.5" y="-511.5" font-family="Helvetica,sans-Serif" font-size="10.00">Debug.hpp</text>
</a>
</g>
</g>
<!-- Node1&#45;&gt;Node2 -->
<g id="edge1" class="edge"><title>Node1&#45;&gt;Node2</title>
<path fill="none" stroke="midnightblue" d="M992.5,-549.805C992.5,-540.91 992.5,-530.78 992.5,-523.751"/>
<polygon fill="midnightblue" stroke="midnightblue" points="989,-550.083 992.5,-560.083 996,-550.083 989,-550.083"/>
</g>
<!-- Node3 -->
<g id="node3" class="node"><title>Node3</title>
<g id="a_node3"><a xlink:href="../../de/dd1/LinkedList_8hpp.html" target="_top" xlink:title=" ">
<polygon fill="white" stroke="black" points="952.5,-448.5 952.5,-467.5 1032.5,-467.5 1032.5,-448.5 952.5,-448.5"/>
<text text-anchor="middle" x="992.5" y="-455.5" font-family="Helvetica,sans-Serif" font-size="10.00">LinkedList.hpp</text>
</a>
</g>
</g>
<!-- Node2&#45;&gt;Node3 -->
<g id="edge2" class="edge"><title>Node2&#45;&gt;Node3</title>
<path fill="none" stroke="midnightblue" d="M992.5,-493.805C992.5,-484.91 992.5,-474.78 992.5,-467.751"/>
<polygon fill="midnightblue" stroke="midnightblue" points="989,-494.083 992.5,-504.083 996,-494.083 989,-494.083"/>
</g>
<!-- Node31 -->
<g id="node31" class="node"><title>Node31</title>
<g id="a_node31"><a xlink:href="../../df/d66/Debug_8cpp.html" target="_top" xlink:title=" ">
<polygon fill="white" stroke="black" points="1141.5,-448.5 1141.5,-467.5 1205.5,-467.5 1205.5,-448.5 1141.5,-448.5"/>
<text text-anchor="middle" x="1173.5" y="-455.5" font-family="Helvetica,sans-Serif" font-size="10.00">Debug.cpp</text>
</a>
</g>
</g>
<!-- Node2&#45;&gt;Node31 -->
<g id="edge40" class="edge"><title>Node2&#45;&gt;Node31</title>
<path fill="none" stroke="midnightblue" d="M1030.82,-501.568C1064.96,-491.381 1114.16,-476.703 1144.95,-467.516"/>
<polygon fill="midnightblue" stroke="midnightblue" points="1029.76,-498.231 1021.18,-504.444 1031.76,-504.938 1029.76,-498.231"/>
</g>
<!-- Node32 -->
<g id="node32" class="node"><title>Node32</title>
<g id="a_node32"><a xlink:href="../../d1/d93/Error_8hpp.html" target="_top" xlink:title=" ">
<polygon fill="white" stroke="black" points="1067.5,-448.5 1067.5,-467.5 1123.5,-467.5 1123.5,-448.5 1067.5,-448.5"/>
<text text-anchor="middle" x="1095.5" y="-455.5" font-family="Helvetica,sans-Serif" font-size="10.00">Error.hpp</text>
</a>
</g>
</g>
<!-- Node2&#45;&gt;Node32 -->
<g id="edge41" class="edge"><title>Node2&#45;&gt;Node32</title>
<path fill="none" stroke="midnightblue" d="M1018.08,-499.59C1037.12,-489.605 1062.56,-476.267 1078.99,-467.655"/>
<polygon fill="midnightblue" stroke="midnightblue" points="1016.28,-496.581 1009.05,-504.324 1019.53,-502.78 1016.28,-496.581"/>
</g>
<!-- Node47 -->
<g id="node47" class="node"><title>Node47</title>
<g id="a_node47"><a xlink:href="../../d2/dd5/SettingsWrapper_8hpp.html" target="_top" xlink:title=" ">
<polygon fill="white" stroke="black" points="826.5,-448.5 826.5,-467.5 934.5,-467.5 934.5,-448.5 826.5,-448.5"/>
<text text-anchor="middle" x="880.5" y="-455.5" font-family="Helvetica,sans-Serif" font-size="10.00">SettingsWrapper.hpp</text>
</a>
</g>
</g>
<!-- Node2&#45;&gt;Node47 -->
<g id="edge70" class="edge"><title>Node2&#45;&gt;Node47</title>
<path fill="none" stroke="midnightblue" d="M960.483,-500.368C938.054,-490.255 909.456,-476.349 893.084,-467.516"/>
<polygon fill="midnightblue" stroke="midnightblue" points="959.105,-503.585 969.665,-504.444 961.945,-497.187 959.105,-503.585"/>
</g>
<!-- Node4 -->
<g id="node4" class="node"><title>Node4</title>
<g id="a_node4"><a xlink:href="../../d4/d93/Updatable_8hpp.html" target="_top" xlink:title=" ">
<polygon fill="white" stroke="black" points="949.5,-392.5 949.5,-411.5 1029.5,-411.5 1029.5,-392.5 949.5,-392.5"/>
<text text-anchor="middle" x="989.5" y="-399.5" font-family="Helvetica,sans-Serif" font-size="10.00">Updatable.hpp</text>
</a>
</g>
</g>
<!-- Node3&#45;&gt;Node4 -->
<g id="edge3" class="edge"><title>Node3&#45;&gt;Node4</title>
<path fill="none" stroke="midnightblue" d="M991.434,-437.805C990.939,-428.91 990.377,-418.78 989.986,-411.751"/>
<polygon fill="midnightblue" stroke="midnightblue" points="987.955,-438.293 992.005,-448.083 994.944,-437.904 987.955,-438.293"/>
</g>
<!-- Node5 -->
<g id="node5" class="node"><title>Node5</title>
<g id="a_node5"><a xlink:href="../../d4/d57/ExtendedIOElement_8hpp.html" target="_top" xlink:title=" ">
<polygon fill="white" stroke="black" points="994,-280.5 994,-299.5 1117,-299.5 1117,-280.5 994,-280.5"/>
<text text-anchor="middle" x="1055.5" y="-287.5" font-family="Helvetica,sans-Serif" font-size="10.00">ExtendedIOElement.hpp</text>
</a>
</g>
</g>
<!-- Node3&#45;&gt;Node5 -->
<g id="edge4" class="edge"><title>Node3&#45;&gt;Node5</title>
<path fill="none" stroke="midnightblue" d="M967.895,-442.502C950.482,-430.209 931.67,-411.508 940.5,-392 960.772,-347.216 1011.8,-314.413 1038.55,-299.663"/>
<polygon fill="midnightblue" stroke="midnightblue" points="966.444,-445.737 976.721,-448.316 970.296,-439.892 966.444,-445.737"/>
</g>
<!-- Node6 -->
<g id="node6" class="node"><title>Node6</title>
<g id="a_node6"><a xlink:href="../../dd/ddf/ExtendedInputOutput_8hpp.html" target="_top" xlink:title=" ">
<polygon fill="white" stroke="black" points="585.5,-224.5 585.5,-243.5 713.5,-243.5 713.5,-224.5 585.5,-224.5"/>
<text text-anchor="middle" x="649.5" y="-231.5" font-family="Helvetica,sans-Serif" font-size="10.00">ExtendedInputOutput.hpp</text>
</a>
</g>
</g>
<!-- Node5&#45;&gt;Node6 -->
<g id="edge5" class="edge"><title>Node5&#45;&gt;Node6</title>
<path fill="none" stroke="midnightblue" d="M983.791,-279.462C907.186,-269.274 786.896,-253.274 713.421,-243.502"/>
<polygon fill="midnightblue" stroke="midnightblue" points="983.463,-282.949 993.837,-280.799 984.386,-276.011 983.463,-282.949"/>
</g>
<!-- Node16 -->
<g id="node16" class="node"><title>Node16</title>
<g id="a_node16"><a xlink:href="../../d6/d3c/ExtendedInputOutput_8cpp.html" target="_top" xlink:title=" ">
<polygon fill="white" stroke="black" points="983.5,-168.5 983.5,-187.5 1111.5,-187.5 1111.5,-168.5 983.5,-168.5"/>
<text text-anchor="middle" x="1047.5" y="-175.5" font-family="Helvetica,sans-Serif" font-size="10.00">ExtendedInputOutput.cpp</text>
</a>
</g>
</g>
<!-- Node5&#45;&gt;Node16 -->
<g id="edge38" class="edge"><title>Node5&#45;&gt;Node16</title>
<path fill="none" stroke="midnightblue" d="M1048.45,-270.74C1045.69,-262.675 1042.87,-252.999 1041.5,-244 1038.47,-224.057 1042.55,-200.422 1045.32,-187.871"/>
<polygon fill="midnightblue" stroke="midnightblue" points="1045.19,-272.024 1051.9,-280.222 1051.77,-269.628 1045.19,-272.024"/>
</g>
<!-- Node29 -->
<g id="node29" class="node"><title>Node29</title>
<g id="a_node29"><a xlink:href="../../d2/d05/StaticSizeExtendedIOElement_8hpp.html" target="_top" xlink:title=" ">
<polygon fill="white" stroke="black" points="1325.5,-224.5 1325.5,-243.5 1493.5,-243.5 1493.5,-224.5 1325.5,-224.5"/>
<text text-anchor="middle" x="1409.5" y="-231.5" font-family="Helvetica,sans-Serif" font-size="10.00">StaticSizeExtendedIOElement.hpp</text>
</a>
</g>
</g>
<!-- Node5&#45;&gt;Node29 -->
<g id="edge34" class="edge"><title>Node5&#45;&gt;Node29</title>
<path fill="none" stroke="midnightblue" d="M1121.6,-278.917C1188.48,-268.715 1290.73,-253.117 1353.67,-243.516"/>
<polygon fill="midnightblue" stroke="midnightblue" points="1120.95,-275.475 1111.59,-280.444 1122.01,-282.395 1120.95,-275.475"/>
</g>
<!-- Node30 -->
<g id="node30" class="node"><title>Node30</title>
<g id="a_node30"><a xlink:href="../../da/d1f/ExtendedIOElement_8cpp.html" target="_top" xlink:title=" ">
<polygon fill="white" stroke="black" points="1051,-224.5 1051,-243.5 1174,-243.5 1174,-224.5 1051,-224.5"/>
<text text-anchor="middle" x="1112.5" y="-231.5" font-family="Helvetica,sans-Serif" font-size="10.00">ExtendedIOElement.cpp</text>
</a>
</g>
</g>
<!-- Node5&#45;&gt;Node30 -->
<g id="edge39" class="edge"><title>Node5&#45;&gt;Node30</title>
<path fill="none" stroke="midnightblue" d="M1072.12,-273.253C1082.23,-263.673 1094.78,-251.791 1103.18,-243.834"/>
<polygon fill="midnightblue" stroke="midnightblue" points="1069.51,-270.906 1064.66,-280.324 1074.32,-275.987 1069.51,-270.906"/>
</g>
<!-- Node7 -->
<g id="node7" class="node"><title>Node7</title>
<g id="a_node7"><a xlink:href="../../d4/db3/Button_8hpp.html" target="_top" xlink:title=" ">
<polygon fill="white" stroke="black" points="256.5,-168.5 256.5,-187.5 320.5,-187.5 320.5,-168.5 256.5,-168.5"/>
<text text-anchor="middle" x="288.5" y="-175.5" font-family="Helvetica,sans-Serif" font-size="10.00">Button.hpp</text>
</a>
</g>
</g>
<!-- Node6&#45;&gt;Node7 -->
<g id="edge6" class="edge"><title>Node6&#45;&gt;Node7</title>
<path fill="none" stroke="midnightblue" d="M582.101,-222.918C504.201,-211.265 379.228,-192.571 320.698,-183.816"/>
<polygon fill="midnightblue" stroke="midnightblue" points="581.891,-226.426 592.298,-224.444 582.926,-219.503 581.891,-226.426"/>
</g>
<!-- Node13 -->
<g id="node13" class="node"><title>Node13</title>
<g id="a_node13"><a xlink:href="../../d5/d41/ButtonMatrix_8ipp.html" target="_top" xlink:title=" ">
<polygon fill="white" stroke="black" points="569.5,-168.5 569.5,-187.5 657.5,-187.5 657.5,-168.5 569.5,-168.5"/>
<text text-anchor="middle" x="613.5" y="-175.5" font-family="Helvetica,sans-Serif" font-size="10.00">ButtonMatrix.ipp</text>
</a>
</g>
</g>
<!-- Node6&#45;&gt;Node13 -->
<g id="edge12" class="edge"><title>Node6&#45;&gt;Node13</title>
<path fill="none" stroke="midnightblue" d="M637.877,-215.566C631.683,-206.275 624.332,-195.248 619.334,-187.751"/>
<polygon fill="midnightblue" stroke="midnightblue" points="635.096,-217.704 643.555,-224.083 640.92,-213.821 635.096,-217.704"/>
</g>
<!-- Node15 -->
<g id="node15" class="node"><title>Node15</title>
<g id="a_node15"><a xlink:href="../../d7/def/AnalogMultiplex_8hpp.html" target="_top" xlink:title=" ">
<polygon fill="white" stroke="black" points="1245.5,-168.5 1245.5,-187.5 1349.5,-187.5 1349.5,-168.5 1245.5,-168.5"/>
<text text-anchor="middle" x="1297.5" y="-175.5" font-family="Helvetica,sans-Serif" font-size="10.00">AnalogMultiplex.hpp</text>
</a>
</g>
</g>
<!-- Node6&#45;&gt;Node15 -->
<g id="edge15" class="edge"><title>Node6&#45;&gt;Node15</title>
<path fill="none" stroke="midnightblue" d="M724.057,-228.961C835.689,-222.534 1052.8,-208.568 1236.5,-188 1239.37,-187.678 1242.32,-187.325 1245.29,-186.949"/>
<polygon fill="midnightblue" stroke="midnightblue" points="723.699,-225.475 713.915,-229.541 724.098,-232.464 723.699,-225.475"/>
</g>
<!-- Node6&#45;&gt;Node16 -->
<g id="edge16" class="edge"><title>Node6&#45;&gt;Node16</title>
<path fill="none" stroke="midnightblue" d="M722.894,-223.042C798.063,-212.843 913.677,-197.157 984.731,-187.516"/>
<polygon fill="midnightblue" stroke="midnightblue" points="722.003,-219.631 712.564,-224.444 722.944,-226.567 722.003,-219.631"/>
</g>
<!-- Node17 -->
<g id="node17" class="node"><title>Node17</title>
<g id="a_node17"><a xlink:href="../../d5/d47/ShiftRegisterOutBase_8ipp.html" target="_top" xlink:title=" ">
<polygon fill="white" stroke="black" points="837.5,-168.5 837.5,-187.5 965.5,-187.5 965.5,-168.5 837.5,-168.5"/>
<text text-anchor="middle" x="901.5" y="-175.5" font-family="Helvetica,sans-Serif" font-size="10.00">ShiftRegisterOutBase.ipp</text>
</a>
</g>
</g>
<!-- Node6&#45;&gt;Node17 -->
<g id="edge17" class="edge"><title>Node6&#45;&gt;Node17</title>
<path fill="none" stroke="midnightblue" d="M699.221,-222.346C746.844,-212.141 817.78,-196.94 861.757,-187.516"/>
<polygon fill="midnightblue" stroke="midnightblue" points="698.475,-218.926 689.43,-224.444 699.942,-225.77 698.475,-218.926"/>
</g>
<!-- Node20 -->
<g id="node20" class="node"><title>Node20</title>
<g id="a_node20"><a xlink:href="../../de/d95/ShiftRegisterOut_8ipp.html" target="_top" xlink:title=" ">
<polygon fill="white" stroke="black" points="569,-0.5 569,-19.5 674,-19.5 674,-0.5 569,-0.5"/>
<text text-anchor="middle" x="621.5" y="-7.5" font-family="Helvetica,sans-Serif" font-size="10.00">ShiftRegisterOut.ipp</text>
</a>
</g>
</g>
<!-- Node6&#45;&gt;Node20 -->
<g id="edge26" class="edge"><title>Node6&#45;&gt;Node20</title>
<path fill="none" stroke="midnightblue" d="M603.904,-220.711C587.403,-213.864 570.407,-203.483 560.5,-188 553.977,-177.805 554.905,-62.9861 558.5,-56 567.295,-38.9095 585.922,-26.8711 600.653,-19.5733"/>
<polygon fill="midnightblue" stroke="midnightblue" points="602.915,-224.079 613.506,-224.346 605.393,-217.532 602.915,-224.079"/>
</g>
<!-- Node22 -->
<g id="node22" class="node"><title>Node22</title>
<g id="a_node22"><a xlink:href="../../da/d45/SPIShiftRegisterOut_8ipp.html" target="_top" xlink:title=" ">
<polygon fill="white" stroke="black" points="916.5,-0.5 916.5,-19.5 1038.5,-19.5 1038.5,-0.5 916.5,-0.5"/>
<text text-anchor="middle" x="977.5" y="-7.5" font-family="Helvetica,sans-Serif" font-size="10.00">SPIShiftRegisterOut.ipp</text>
</a>
</g>
</g>
<!-- Node6&#45;&gt;Node22 -->
<g id="edge27" class="edge"><title>Node6&#45;&gt;Node22</title>
<path fill="none" stroke="midnightblue" d="M656.202,-214.586C667.464,-184.506 690.517,-126.701 706.5,-112 766.459,-56.8494 859.273,-31.0359 919.211,-19.5259"/>
<polygon fill="midnightblue" stroke="midnightblue" points="652.802,-213.689 652.622,-224.282 659.369,-216.114 652.802,-213.689"/>
</g>
<!-- Node23 -->
<g id="node23" class="node"><title>Node23</title>
<g id="a_node23"><a xlink:href="../../d8/df3/FilteredAnalog_8hpp.html" target="_top" xlink:title=" ">
<polygon fill="white" stroke="black" points="1129.5,-168.5 1129.5,-187.5 1227.5,-187.5 1227.5,-168.5 1129.5,-168.5"/>
<text text-anchor="middle" x="1178.5" y="-175.5" font-family="Helvetica,sans-Serif" font-size="10.00">FilteredAnalog.hpp</text>
</a>
</g>
</g>
<!-- Node6&#45;&gt;Node23 -->
<g id="edge28" class="edge"><title>Node6&#45;&gt;Node23</title>
<path fill="none" stroke="midnightblue" d="M723.772,-227.26C816.708,-219.765 980.661,-205.514 1120.5,-188 1123.43,-187.633 1126.44,-187.233 1129.48,-186.813"/>
<polygon fill="midnightblue" stroke="midnightblue" points="723.313,-223.785 713.625,-228.074 723.872,-230.763 723.313,-223.785"/>
</g>
<!-- Node24 -->
<g id="node24" class="node"><title>Node24</title>
<g id="a_node24"><a xlink:href="../../d9/d4f/LEDs_8hpp.html" target="_top" xlink:title=" ">
<polygon fill="white" stroke="black" points="415.5,-168.5 415.5,-187.5 475.5,-187.5 475.5,-168.5 415.5,-168.5"/>
<text text-anchor="middle" x="445.5" y="-175.5" font-family="Helvetica,sans-Serif" font-size="10.00">LEDs.hpp</text>
</a>
</g>
</g>
<!-- Node6&#45;&gt;Node24 -->
<g id="edge29" class="edge"><title>Node6&#45;&gt;Node24</title>
<path fill="none" stroke="midnightblue" d="M607.367,-221.847C568.107,-211.455 510.534,-196.215 475.678,-186.988"/>
<polygon fill="midnightblue" stroke="midnightblue" points="606.613,-225.268 617.176,-224.444 608.404,-218.501 606.613,-225.268"/>
</g>
<!-- Node26 -->
<g id="node26" class="node"><title>Node26</title>
<g id="a_node26"><a xlink:href="../../d7/d13/MAX7219__Base_8hpp.html" target="_top" xlink:title=" ">
<polygon fill="white" stroke="black" points="713.5,-168.5 713.5,-187.5 819.5,-187.5 819.5,-168.5 713.5,-168.5"/>
<text text-anchor="middle" x="766.5" y="-175.5" font-family="Helvetica,sans-Serif" font-size="10.00">MAX7219_Base.hpp</text>
</a>
</g>
</g>
<!-- Node6&#45;&gt;Node26 -->
<g id="edge31" class="edge"><title>Node6&#45;&gt;Node26</title>
<path fill="none" stroke="midnightblue" d="M677.164,-220.232C699.049,-210.131 728.997,-196.309 748.048,-187.516"/>
<polygon fill="midnightblue" stroke="midnightblue" points="675.652,-217.075 668.039,-224.444 678.585,-223.431 675.652,-217.075"/>
</g>
<!-- Node8 -->
<g id="node8" class="node"><title>Node8</title>
<g id="a_node8"><a xlink:href="../../de/dd1/Button_8cpp.html" target="_top" xlink:title=" ">
<polygon fill="white" stroke="black" points="125.5,-112.5 125.5,-131.5 189.5,-131.5 189.5,-112.5 125.5,-112.5"/>
<text text-anchor="middle" x="157.5" y="-119.5" font-family="Helvetica,sans-Serif" font-size="10.00">Button.cpp</text>
</a>
</g>
</g>
<!-- Node7&#45;&gt;Node8 -->
<g id="edge7" class="edge"><title>Node7&#45;&gt;Node8</title>
<path fill="none" stroke="midnightblue" d="M258.183,-164.503C233.624,-154.38 199.682,-140.388 178.16,-131.516"/>
<polygon fill="midnightblue" stroke="midnightblue" points="257.163,-167.868 267.743,-168.444 259.831,-161.397 257.163,-167.868"/>
</g>
<!-- Node9 -->
<g id="node9" class="node"><title>Node9</title>
<g id="a_node9"><a xlink:href="../../d5/d04/IncrementButton_8hpp.html" target="_top" xlink:title=" ">
<polygon fill="white" stroke="black" points="0,-112.5 0,-131.5 107,-131.5 107,-112.5 0,-112.5"/>
<text text-anchor="middle" x="53.5" y="-119.5" font-family="Helvetica,sans-Serif" font-size="10.00">IncrementButton.hpp</text>
</a>
</g>
</g>
<!-- Node7&#45;&gt;Node9 -->
<g id="edge8" class="edge"><title>Node7&#45;&gt;Node9</title>
<path fill="none" stroke="midnightblue" d="M246.443,-167.336C202.153,-157.158 133.084,-141.287 90.7121,-131.551"/>
<polygon fill="midnightblue" stroke="midnightblue" points="245.787,-170.776 256.317,-169.605 247.355,-163.954 245.787,-170.776"/>
</g>
<!-- Node11 -->
<g id="node11" class="node"><title>Node11</title>
<g id="a_node11"><a xlink:href="../../df/df5/IncrementDecrementButtons_8hpp.html" target="_top" xlink:title=" ">
<polygon fill="white" stroke="black" points="208,-112.5 208,-131.5 369,-131.5 369,-112.5 208,-112.5"/>
<text text-anchor="middle" x="288.5" y="-119.5" font-family="Helvetica,sans-Serif" font-size="10.00">IncrementDecrementButtons.hpp</text>
</a>
</g>
</g>
<!-- Node7&#45;&gt;Node11 -->
<g id="edge10" class="edge"><title>Node7&#45;&gt;Node11</title>
<path fill="none" stroke="midnightblue" d="M288.5,-157.805C288.5,-148.91 288.5,-138.78 288.5,-131.751"/>
<polygon fill="midnightblue" stroke="midnightblue" points="285,-158.083 288.5,-168.083 292,-158.083 285,-158.083"/>
</g>
<!-- Node10 -->
<g id="node10" class="node"><title>Node10</title>
<g id="a_node10"><a xlink:href="../../db/d9d/IncrementButton_8cpp.html" target="_top" xlink:title=" ">
<polygon fill="white" stroke="black" points="0,-56.5 0,-75.5 107,-75.5 107,-56.5 0,-56.5"/>
<text text-anchor="middle" x="53.5" y="-63.5" font-family="Helvetica,sans-Serif" font-size="10.00">IncrementButton.cpp</text>
</a>
</g>
</g>
<!-- Node9&#45;&gt;Node10 -->
<g id="edge9" class="edge"><title>Node9&#45;&gt;Node10</title>
<path fill="none" stroke="midnightblue" d="M53.5,-101.805C53.5,-92.9102 53.5,-82.7798 53.5,-75.7511"/>
<polygon fill="midnightblue" stroke="midnightblue" points="50.0001,-102.083 53.5,-112.083 57.0001,-102.083 50.0001,-102.083"/>
</g>
<!-- Node12 -->
<g id="node12" class="node"><title>Node12</title>
<g id="a_node12"><a xlink:href="../../da/d66/IncrementDecrementButtons_8cpp.html" target="_top" xlink:title=" ">
<polygon fill="white" stroke="black" points="208,-56.5 208,-75.5 369,-75.5 369,-56.5 208,-56.5"/>
<text text-anchor="middle" x="288.5" y="-63.5" font-family="Helvetica,sans-Serif" font-size="10.00">IncrementDecrementButtons.cpp</text>
</a>
</g>
</g>
<!-- Node11&#45;&gt;Node12 -->
<g id="edge11" class="edge"><title>Node11&#45;&gt;Node12</title>
<path fill="none" stroke="midnightblue" d="M288.5,-101.805C288.5,-92.9102 288.5,-82.7798 288.5,-75.7511"/>
<polygon fill="midnightblue" stroke="midnightblue" points="285,-102.083 288.5,-112.083 292,-102.083 285,-102.083"/>
</g>
<!-- Node14 -->
<g id="node14" class="node"><title>Node14</title>
<g id="a_node14"><a xlink:href="../../d9/d4b/ButtonMatrix_8hpp.html" target="_top" xlink:title=" ">
<polygon fill="white" stroke="black" points="568,-112.5 568,-131.5 659,-131.5 659,-112.5 568,-112.5"/>
<text text-anchor="middle" x="613.5" y="-119.5" font-family="Helvetica,sans-Serif" font-size="10.00">ButtonMatrix.hpp</text>
</a>
</g>
</g>
<!-- Node13&#45;&gt;Node14 -->
<g id="edge13" class="edge"><title>Node13&#45;&gt;Node14</title>
<path fill="none" stroke="midnightblue" d="M607.028,-158.101C606.396,-149.136 606.843,-138.858 608.369,-131.751"/>
<polygon fill="midnightblue" stroke="midnightblue" points="603.566,-158.622 608.334,-168.083 610.507,-157.713 603.566,-158.622"/>
</g>
<!-- Node14&#45;&gt;Node13 -->
<g id="edge14" class="edge"><title>Node14&#45;&gt;Node13</title>
<path fill="none" stroke="midnightblue" d="M619.958,-141.691C620.606,-150.635 620.176,-160.927 618.666,-168.083"/>
<polygon fill="midnightblue" stroke="midnightblue" points="623.423,-141.2 618.631,-131.751 616.485,-142.126 623.423,-141.2"/>
</g>
<!-- Node18 -->
<g id="node18" class="node"><title>Node18</title>
<g id="a_node18"><a xlink:href="../../d8/d93/ShiftRegisterOutBase_8hpp.html" target="_top" xlink:title=" ">
<polygon fill="white" stroke="black" points="912,-112.5 912,-131.5 1043,-131.5 1043,-112.5 912,-112.5"/>
<text text-anchor="middle" x="977.5" y="-119.5" font-family="Helvetica,sans-Serif" font-size="10.00">ShiftRegisterOutBase.hpp</text>
</a>
</g>
</g>
<!-- Node17&#45;&gt;Node18 -->
<g id="edge18" class="edge"><title>Node17&#45;&gt;Node18</title>
<path fill="none" stroke="midnightblue" d="M916.414,-162.061C929.076,-152.277 946.921,-139.835 960.209,-131.655"/>
<polygon fill="midnightblue" stroke="midnightblue" points="914.212,-159.34 908.596,-168.324 918.589,-164.803 914.212,-159.34"/>
</g>
<!-- Node18&#45;&gt;Node17 -->
<g id="edge22" class="edge"><title>Node18&#45;&gt;Node17</title>
<path fill="none" stroke="midnightblue" d="M962.394,-138.087C949.756,-147.839 932.043,-160.185 918.826,-168.324"/>
<polygon fill="midnightblue" stroke="midnightblue" points="964.591,-140.812 970.216,-131.834 960.22,-135.345 964.591,-140.812"/>
</g>
<!-- Node19 -->
<g id="node19" class="node"><title>Node19</title>
<g id="a_node19"><a xlink:href="../../d0/db4/ShiftRegisterOut_8hpp.html" target="_top" xlink:title=" ">
<polygon fill="white" stroke="black" points="567.5,-56.5 567.5,-75.5 675.5,-75.5 675.5,-56.5 567.5,-56.5"/>
<text text-anchor="middle" x="621.5" y="-63.5" font-family="Helvetica,sans-Serif" font-size="10.00">ShiftRegisterOut.hpp</text>
</a>
</g>
</g>
<!-- Node18&#45;&gt;Node19 -->
<g id="edge19" class="edge"><title>Node18&#45;&gt;Node19</title>
<path fill="none" stroke="midnightblue" d="M910.918,-110.9C842.932,-100.588 738.678,-84.7742 675.604,-75.2068"/>
<polygon fill="midnightblue" stroke="midnightblue" points="910.679,-114.404 921.091,-112.444 911.729,-107.483 910.679,-114.404"/>
</g>
<!-- Node21 -->
<g id="node21" class="node"><title>Node21</title>
<g id="a_node21"><a xlink:href="../../d7/d88/SPIShiftRegisterOut_8hpp.html" target="_top" xlink:title=" ">
<polygon fill="white" stroke="black" points="915,-56.5 915,-75.5 1040,-75.5 1040,-56.5 915,-56.5"/>
<text text-anchor="middle" x="977.5" y="-63.5" font-family="Helvetica,sans-Serif" font-size="10.00">SPIShiftRegisterOut.hpp</text>
</a>
</g>
</g>
<!-- Node18&#45;&gt;Node21 -->
<g id="edge23" class="edge"><title>Node18&#45;&gt;Node21</title>
<path fill="none" stroke="midnightblue" d="M977.5,-101.805C977.5,-92.9102 977.5,-82.7798 977.5,-75.7511"/>
<polygon fill="midnightblue" stroke="midnightblue" points="974,-102.083 977.5,-112.083 981,-102.083 974,-102.083"/>
</g>
<!-- Node19&#45;&gt;Node20 -->
<g id="edge20" class="edge"><title>Node19&#45;&gt;Node20</title>
<path fill="none" stroke="midnightblue" d="M615.028,-46.1005C614.396,-37.1357 614.843,-26.8579 616.369,-19.7511"/>
<polygon fill="midnightblue" stroke="midnightblue" points="611.566,-46.6216 616.334,-56.083 618.507,-45.7134 611.566,-46.6216"/>
</g>
<!-- Node20&#45;&gt;Node19 -->
<g id="edge21" class="edge"><title>Node20&#45;&gt;Node19</title>
<path fill="none" stroke="midnightblue" d="M627.958,-29.6911C628.606,-38.6353 628.176,-48.9272 626.666,-56.083"/>
<polygon fill="midnightblue" stroke="midnightblue" points="631.423,-29.2002 626.631,-19.7511 624.485,-30.1262 631.423,-29.2002"/>
</g>
<!-- Node21&#45;&gt;Node22 -->
<g id="edge24" class="edge"><title>Node21&#45;&gt;Node22</title>
<path fill="none" stroke="midnightblue" d="M971.028,-46.1005C970.396,-37.1357 970.843,-26.8579 972.369,-19.7511"/>
<polygon fill="midnightblue" stroke="midnightblue" points="967.566,-46.6216 972.334,-56.083 974.507,-45.7134 967.566,-46.6216"/>
</g>
<!-- Node22&#45;&gt;Node21 -->
<g id="edge25" class="edge"><title>Node22&#45;&gt;Node21</title>
<path fill="none" stroke="midnightblue" d="M983.958,-29.6911C984.606,-38.6353 984.176,-48.9272 982.666,-56.083"/>
<polygon fill="midnightblue" stroke="midnightblue" points="987.423,-29.2002 982.631,-19.7511 980.485,-30.1262 987.423,-29.2002"/>
</g>
<!-- Node25 -->
<g id="node25" class="node"><title>Node25</title>
<g id="a_node25"><a xlink:href="../../d6/d3a/DotBarDisplayLEDs_8hpp.html" target="_top" xlink:title=" ">
<polygon fill="white" stroke="black" points="387.5,-112.5 387.5,-131.5 511.5,-131.5 511.5,-112.5 387.5,-112.5"/>
<text text-anchor="middle" x="449.5" y="-119.5" font-family="Helvetica,sans-Serif" font-size="10.00">DotBarDisplayLEDs.hpp</text>
</a>
</g>
</g>
<!-- Node24&#45;&gt;Node25 -->
<g id="edge30" class="edge"><title>Node24&#45;&gt;Node25</title>
<path fill="none" stroke="midnightblue" d="M446.9,-158.101C447.564,-149.136 448.325,-138.858 448.852,-131.751"/>
<polygon fill="midnightblue" stroke="midnightblue" points="443.409,-157.852 446.161,-168.083 450.39,-158.369 443.409,-157.852"/>
</g>
<!-- Node27 -->
<g id="node27" class="node"><title>Node27</title>
<g id="a_node27"><a xlink:href="../../d2/d25/MAX7219_8hpp.html" target="_top" xlink:title=" ">
<polygon fill="white" stroke="black" points="1376.5,-112.5 1376.5,-131.5 1454.5,-131.5 1454.5,-112.5 1376.5,-112.5"/>
<text text-anchor="middle" x="1415.5" y="-119.5" font-family="Helvetica,sans-Serif" font-size="10.00">MAX7219.hpp</text>
</a>
</g>
</g>
<!-- Node26&#45;&gt;Node27 -->
<g id="edge32" class="edge"><title>Node26&#45;&gt;Node27</title>
<path fill="none" stroke="midnightblue" d="M829.654,-167.944C1041.91,-144.747 1283.25,-130.236 1376.26,-125.089"/>
<polygon fill="midnightblue" stroke="midnightblue" points="829.126,-164.481 819.57,-169.055 829.893,-171.439 829.126,-164.481"/>
</g>
<!-- Node28 -->
<g id="node28" class="node"><title>Node28</title>
<g id="a_node28"><a xlink:href="../../d5/d0c/MAX7219SevenSegmentDisplay_8hpp.html" target="_top" xlink:title=" ">
<polygon fill="white" stroke="black" points="715.5,-112.5 715.5,-131.5 893.5,-131.5 893.5,-112.5 715.5,-112.5"/>
<text text-anchor="middle" x="804.5" y="-119.5" font-family="Helvetica,sans-Serif" font-size="10.00">MAX7219SevenSegmentDisplay.hpp</text>
</a>
</g>
</g>
<!-- Node26&#45;&gt;Node28 -->
<g id="edge33" class="edge"><title>Node26&#45;&gt;Node28</title>
<path fill="none" stroke="midnightblue" d="M778.565,-159.855C785.145,-150.505 793.011,-139.327 798.342,-131.751"/>
<polygon fill="midnightblue" stroke="midnightblue" points="775.668,-157.891 772.775,-168.083 781.392,-161.919 775.668,-157.891"/>
</g>
<!-- Node29&#45;&gt;Node15 -->
<g id="edge35" class="edge"><title>Node29&#45;&gt;Node15</title>
<path fill="none" stroke="midnightblue" d="M1382.25,-219.862C1361.48,-209.849 1333.48,-196.346 1315.45,-187.655"/>
<polygon fill="midnightblue" stroke="midnightblue" points="1380.98,-223.134 1391.51,-224.324 1384.02,-216.828 1380.98,-223.134"/>
</g>
<!-- Node29&#45;&gt;Node18 -->
<g id="edge37" class="edge"><title>Node29&#45;&gt;Node18</title>
<path fill="none" stroke="midnightblue" d="M1400.87,-215.481C1392.35,-200.199 1377.79,-178.828 1358.5,-168 1306.01,-138.534 1137.71,-128.244 1043.3,-124.741"/>
<polygon fill="midnightblue" stroke="midnightblue" points="1397.85,-217.246 1405.59,-224.472 1404.04,-213.991 1397.85,-217.246"/>
</g>
<!-- Node29&#45;&gt;Node27 -->
<g id="edge36" class="edge"><title>Node29&#45;&gt;Node27</title>
<path fill="none" stroke="midnightblue" d="M1410.52,-214.348C1411.83,-190.254 1414.07,-149.308 1415.03,-131.591"/>
<polygon fill="midnightblue" stroke="midnightblue" points="1407.02,-214.193 1409.97,-224.368 1414.01,-214.574 1407.02,-214.193"/>
</g>
<!-- Node32&#45;&gt;Node4 -->
<g id="edge65" class="edge"><title>Node32&#45;&gt;Node4</title>
<path fill="none" stroke="midnightblue" d="M1069.44,-443.726C1049.82,-433.727 1023.47,-420.307 1006.49,-411.655"/>
<polygon fill="midnightblue" stroke="midnightblue" points="1067.97,-446.903 1078.47,-448.324 1071.15,-440.666 1067.97,-446.903"/>
</g>
<!-- Node32&#45;&gt;Node16 -->
<g id="edge67" class="edge"><title>Node32&#45;&gt;Node16</title>
<path fill="none" stroke="midnightblue" d="M1081.89,-440.536C1054.48,-406.988 994.431,-331.248 984.5,-300 970.225,-255.083 1016.21,-206.882 1037.4,-187.644"/>
<polygon fill="midnightblue" stroke="midnightblue" points="1079.34,-442.951 1088.39,-448.458 1084.75,-438.508 1079.34,-442.951"/>
</g>
<!-- Node32&#45;&gt;Node30 -->
<g id="edge68" class="edge"><title>Node32&#45;&gt;Node30</title>
<path fill="none" stroke="midnightblue" d="M1097.61,-438.285C1100.49,-414.374 1106.26,-371.796 1114.5,-336 1118.25,-319.696 1123.03,-316.547 1125.5,-300 1126.81,-291.209 1126.75,-288.801 1125.5,-280 1123.68,-267.117 1119.05,-252.76 1115.84,-243.803"/>
<polygon fill="midnightblue" stroke="midnightblue" points="1094.11,-438.074 1096.43,-448.412 1101.06,-438.885 1094.11,-438.074"/>
</g>
<!-- Node33 -->
<g id="node33" class="node"><title>Node33</title>
<g id="a_node33"><a xlink:href="../../de/d76/Array_8hpp.html" target="_top" xlink:title=" ">
<polygon fill="white" stroke="black" points="1343,-392.5 1343,-411.5 1402,-411.5 1402,-392.5 1343,-392.5"/>
<text text-anchor="middle" x="1372.5" y="-399.5" font-family="Helvetica,sans-Serif" font-size="10.00">Array.hpp</text>
</a>
</g>
</g>
<!-- Node32&#45;&gt;Node33 -->
<g id="edge42" class="edge"><title>Node32&#45;&gt;Node33</title>
<path fill="none" stroke="midnightblue" d="M1133.63,-447.844C1214.85,-430.537 1299.19,-415.565 1342.84,-408.037"/>
<polygon fill="midnightblue" stroke="midnightblue" points="1132.79,-444.445 1123.75,-449.965 1134.26,-451.289 1132.79,-444.445"/>
</g>
<!-- Node44 -->
<g id="node44" class="node"><title>Node44</title>
<g id="a_node44"><a xlink:href="../../d1/d40/BitArray_8hpp.html" target="_top" xlink:title=" ">
<polygon fill="white" stroke="black" points="1548,-168.5 1548,-187.5 1619,-187.5 1619,-168.5 1548,-168.5"/>
<text text-anchor="middle" x="1583.5" y="-175.5" font-family="Helvetica,sans-Serif" font-size="10.00">BitArray.hpp</text>
</a>
</g>
</g>
<!-- Node32&#45;&gt;Node44 -->
<g id="edge61" class="edge"><title>Node32&#45;&gt;Node44</title>
<path fill="none" stroke="midnightblue" d="M1133.79,-448.134C1280.53,-426.688 1706.5,-473.48 1706.5,-347 1706.5,-347 1706.5,-347 1706.5,-289 1706.5,-236.145 1642.61,-202.34 1606.92,-187.58"/>
<polygon fill="midnightblue" stroke="midnightblue" points="1133.01,-444.715 1123.71,-449.799 1134.15,-451.621 1133.01,-444.715"/>
</g>
<!-- Node45 -->
<g id="node45" class="node"><title>Node45</title>
<g id="a_node45"><a xlink:href="../../d6/df4/Exit_8cpp.html" target="_top" xlink:title=" ">
<polygon fill="white" stroke="black" points="1124,-392.5 1124,-411.5 1177,-411.5 1177,-392.5 1124,-392.5"/>
<text text-anchor="middle" x="1150.5" y="-399.5" font-family="Helvetica,sans-Serif" font-size="10.00">Exit.cpp</text>
</a>
</g>
</g>
<!-- Node32&#45;&gt;Node45 -->
<g id="edge66" class="edge"><title>Node32&#45;&gt;Node45</title>
<path fill="none" stroke="midnightblue" d="M1111.79,-441.002C1121.54,-431.433 1133.55,-419.639 1141.59,-411.751"/>
<polygon fill="midnightblue" stroke="midnightblue" points="1109.27,-438.58 1104.58,-448.083 1114.17,-443.575 1109.27,-438.58"/>
</g>
<!-- Node46 -->
<g id="node46" class="node"><title>Node46</title>
<g id="a_node46"><a xlink:href="../../d3/d50/FixedPoint_8hpp.html" target="_top" xlink:title=" ">
<polygon fill="white" stroke="black" points="1195.5,-392.5 1195.5,-411.5 1277.5,-411.5 1277.5,-392.5 1195.5,-392.5"/>
<text text-anchor="middle" x="1236.5" y="-399.5" font-family="Helvetica,sans-Serif" font-size="10.00">FixedPoint.hpp</text>
</a>
</g>
</g>
<!-- Node32&#45;&gt;Node46 -->
<g id="edge69" class="edge"><title>Node32&#45;&gt;Node46</title>
<path fill="none" stroke="midnightblue" d="M1127.43,-444.772C1153.91,-434.629 1190.89,-420.467 1214.26,-411.516"/>
<polygon fill="midnightblue" stroke="midnightblue" points="1125.93,-441.599 1117.84,-448.444 1128.43,-448.136 1125.93,-441.599"/>
</g>
<!-- Node33&#45;&gt;Node15 -->
<g id="edge47" class="edge"><title>Node33&#45;&gt;Node15</title>
<path fill="none" stroke="midnightblue" d="M1360.85,-383.899C1348.17,-364.449 1328.27,-331.315 1317.5,-300 1303.58,-259.529 1299.19,-208.017 1297.95,-187.751"/>
<polygon fill="midnightblue" stroke="midnightblue" points="1357.97,-385.892 1366.42,-392.281 1363.8,-382.016 1357.97,-385.892"/>
</g>
<!-- Node34 -->
<g id="node34" class="node"><title>Node34</title>
<g id="a_node34"><a xlink:href="../../d5/db6/ArrayHelpers_8hpp.html" target="_top" xlink:title=" ">
<polygon fill="white" stroke="black" points="1326.5,-280.5 1326.5,-299.5 1418.5,-299.5 1418.5,-280.5 1326.5,-280.5"/>
<text text-anchor="middle" x="1372.5" y="-287.5" font-family="Helvetica,sans-Serif" font-size="10.00">ArrayHelpers.hpp</text>
</a>
</g>
</g>
<!-- Node33&#45;&gt;Node34 -->
<g id="edge43" class="edge"><title>Node33&#45;&gt;Node34</title>
<path fill="none" stroke="midnightblue" d="M1372.5,-382.348C1372.5,-358.254 1372.5,-317.308 1372.5,-299.591"/>
<polygon fill="midnightblue" stroke="midnightblue" points="1369,-382.368 1372.5,-392.368 1376,-382.369 1369,-382.368"/>
</g>
<!-- Node37 -->
<g id="node37" class="node"><title>Node37</title>
<g id="a_node37"><a xlink:href="../../d4/d35/Hardware-Types_8hpp.html" target="_top" xlink:title=" ">
<polygon fill="white" stroke="black" points="1124,-336.5 1124,-355.5 1231,-355.5 1231,-336.5 1124,-336.5"/>
<text text-anchor="middle" x="1177.5" y="-343.5" font-family="Helvetica,sans-Serif" font-size="10.00">Hardware&#45;Types.hpp</text>
</a>
</g>
</g>
<!-- Node33&#45;&gt;Node37 -->
<g id="edge48" class="edge"><title>Node33&#45;&gt;Node37</title>
<path fill="none" stroke="midnightblue" d="M1333,-390.06C1296.2,-379.87 1242.08,-364.885 1208.36,-355.547"/>
<polygon fill="midnightblue" stroke="midnightblue" points="1332.31,-393.503 1342.88,-392.799 1334.18,-386.757 1332.31,-393.503"/>
</g>
<!-- Node38 -->
<g id="node38" class="node"><title>Node38</title>
<g id="a_node38"><a xlink:href="../../d1/dde/BiQuad_8hpp.html" target="_top" xlink:title=" ">
<polygon fill="white" stroke="black" points="1526.5,-280.5 1526.5,-299.5 1594.5,-299.5 1594.5,-280.5 1526.5,-280.5"/>
<text text-anchor="middle" x="1560.5" y="-287.5" font-family="Helvetica,sans-Serif" font-size="10.00">BiQuad.hpp</text>
</a>
</g>
</g>
<!-- Node33&#45;&gt;Node38 -->
<g id="edge52" class="edge"><title>Node33&#45;&gt;Node38</title>
<path fill="none" stroke="midnightblue" d="M1412.38,-396.74C1460.8,-390.677 1538.28,-377.804 1556.5,-356 1569.84,-340.038 1566.07,-313.442 1562.89,-299.745"/>
<polygon fill="midnightblue" stroke="midnightblue" points="1411.74,-393.293 1402.23,-397.966 1412.57,-400.243 1411.74,-393.293"/>
</g>
<!-- Node39 -->
<g id="node39" class="node"><title>Node39</title>
<g id="a_node39"><a xlink:href="../../d2/d3b/FIRFilter_8hpp.html" target="_top" xlink:title=" ">
<polygon fill="white" stroke="black" points="1604.5,-336.5 1604.5,-355.5 1678.5,-355.5 1678.5,-336.5 1604.5,-336.5"/>
<text text-anchor="middle" x="1641.5" y="-343.5" font-family="Helvetica,sans-Serif" font-size="10.00">FIRFilter.hpp</text>
</a>
</g>
</g>
<!-- Node33&#45;&gt;Node39 -->
<g id="edge54" class="edge"><title>Node33&#45;&gt;Node39</title>
<path fill="none" stroke="midnightblue" d="M1412.18,-393.035C1463.88,-382.656 1553.64,-364.638 1604.16,-354.495"/>
<polygon fill="midnightblue" stroke="midnightblue" points="1411.17,-389.667 1402.06,-395.067 1412.55,-396.53 1411.17,-389.667"/>
</g>
<!-- Node41 -->
<g id="node41" class="node"><title>Node41</title>
<g id="a_node41"><a xlink:href="../../dc/d64/IIRFilter_8hpp.html" target="_top" xlink:title=" ">
<polygon fill="white" stroke="black" points="1437,-280.5 1437,-299.5 1508,-299.5 1508,-280.5 1437,-280.5"/>
<text text-anchor="middle" x="1472.5" y="-287.5" font-family="Helvetica,sans-Serif" font-size="10.00">IIRFilter.hpp</text>
</a>
</g>
</g>
<!-- Node33&#45;&gt;Node41 -->
<g id="edge56" class="edge"><title>Node33&#45;&gt;Node41</title>
<path fill="none" stroke="midnightblue" d="M1386.45,-384.711C1397.87,-371.46 1414.54,-352.346 1429.5,-336 1441.32,-323.088 1455.4,-308.498 1464.15,-299.523"/>
<polygon fill="midnightblue" stroke="midnightblue" points="1383.63,-382.619 1379.76,-392.484 1388.94,-387.182 1383.63,-382.619"/>
</g>
<!-- Node42 -->
<g id="node42" class="node"><title>Node42</title>
<g id="a_node42"><a xlink:href="../../dc/d9c/SMA_8hpp.html" target="_top" xlink:title=" ">
<polygon fill="white" stroke="black" points="1249,-336.5 1249,-355.5 1306,-355.5 1306,-336.5 1249,-336.5"/>
<text text-anchor="middle" x="1277.5" y="-343.5" font-family="Helvetica,sans-Serif" font-size="10.00">SMA.hpp</text>
</a>
</g>
</g>
<!-- Node33&#45;&gt;Node42 -->
<g id="edge57" class="edge"><title>Node33&#45;&gt;Node42</title>
<path fill="none" stroke="midnightblue" d="M1348.18,-387.177C1330.7,-377.241 1307.67,-364.149 1292.73,-355.655"/>
<polygon fill="midnightblue" stroke="midnightblue" points="1346.81,-390.425 1357.24,-392.324 1350.27,-384.339 1346.81,-390.425"/>
</g>
<!-- Node43 -->
<g id="node43" class="node"><title>Node43</title>
<g id="a_node43"><a xlink:href="../../d2/d03/TransferFunction_8hpp.html" target="_top" xlink:title=" ">
<polygon fill="white" stroke="black" points="1439,-336.5 1439,-355.5 1548,-355.5 1548,-336.5 1439,-336.5"/>
<text text-anchor="middle" x="1493.5" y="-343.5" font-family="Helvetica,sans-Serif" font-size="10.00">TransferFunction.hpp</text>
</a>
</g>
</g>
<!-- Node33&#45;&gt;Node43 -->
<g id="edge58" class="edge"><title>Node33&#45;&gt;Node43</title>
<path fill="none" stroke="midnightblue" d="M1400.81,-388.368C1423.47,-378.255 1454.63,-364.349 1474.42,-355.516"/>
<polygon fill="midnightblue" stroke="midnightblue" points="1399.38,-385.172 1391.67,-392.444 1402.23,-391.564 1399.38,-385.172"/>
</g>
<!-- Node34&#45;&gt;Node29 -->
<g id="edge44" class="edge"><title>Node34&#45;&gt;Node29</title>
<path fill="none" stroke="midnightblue" d="M1384.45,-271.566C1390.81,-262.275 1398.37,-251.248 1403.5,-243.751"/>
<polygon fill="midnightblue" stroke="midnightblue" points="1381.37,-269.855 1378.61,-280.083 1387.15,-273.812 1381.37,-269.855"/>
</g>
<!-- Node35 -->
<g id="node35" class="node"><title>Node35</title>
<g id="a_node35"><a xlink:href="../../df/ddc/SOSFilter_8hpp.html" target="_top" xlink:title=" ">
<polygon fill="white" stroke="black" points="1511.5,-224.5 1511.5,-243.5 1589.5,-243.5 1589.5,-224.5 1511.5,-224.5"/>
<text text-anchor="middle" x="1550.5" y="-231.5" font-family="Helvetica,sans-Serif" font-size="10.00">SOSFilter.hpp</text>
</a>
</g>
</g>
<!-- Node34&#45;&gt;Node35 -->
<g id="edge45" class="edge"><title>Node34&#45;&gt;Node35</title>
<path fill="none" stroke="midnightblue" d="M1410.62,-277.436C1444.18,-267.255 1492.27,-252.664 1522.43,-243.516"/>
<polygon fill="midnightblue" stroke="midnightblue" points="1409.26,-274.191 1400.7,-280.444 1411.29,-280.89 1409.26,-274.191"/>
</g>
<!-- Node36 -->
<g id="node36" class="node"><title>Node36</title>
<g id="a_node36"><a xlink:href="../../d4/d40/Butterworth_8hpp.html" target="_top" xlink:title=" ">
<polygon fill="white" stroke="black" points="1443.5,-168.5 1443.5,-187.5 1529.5,-187.5 1529.5,-168.5 1443.5,-168.5"/>
<text text-anchor="middle" x="1486.5" y="-175.5" font-family="Helvetica,sans-Serif" font-size="10.00">Butterworth.hpp</text>
</a>
</g>
</g>
<!-- Node35&#45;&gt;Node36 -->
<g id="edge46" class="edge"><title>Node35&#45;&gt;Node36</title>
<path fill="none" stroke="midnightblue" d="M1532.51,-217.82C1521.04,-208.145 1506.59,-195.948 1496.97,-187.834"/>
<polygon fill="midnightblue" stroke="midnightblue" points="1530.32,-220.55 1540.22,-224.324 1534.83,-215.2 1530.32,-220.55"/>
</g>
<!-- Node37&#45;&gt;Node5 -->
<g id="edge50" class="edge"><title>Node37&#45;&gt;Node5</title>
<path fill="none" stroke="midnightblue" d="M1148.96,-332.368C1126.11,-322.255 1094.69,-308.349 1074.74,-299.516"/>
<polygon fill="midnightblue" stroke="midnightblue" points="1147.61,-335.597 1158.17,-336.444 1150.44,-329.196 1147.61,-335.597"/>
</g>
<!-- Node37&#45;&gt;Node14 -->
<g id="edge49" class="edge"><title>Node37&#45;&gt;Node14</title>
<path fill="none" stroke="midnightblue" d="M1113.6,-342.669C975.458,-336.334 655.087,-314.258 576.5,-244 550.766,-220.994 546.003,-199.326 560.5,-168 568.003,-151.787 584.545,-139.28 597.166,-131.613"/>
<polygon fill="midnightblue" stroke="midnightblue" points="1113.48,-346.167 1123.63,-343.115 1113.79,-339.174 1113.48,-346.167"/>
</g>
<!-- Node37&#45;&gt;Node23 -->
<g id="edge51" class="edge"><title>Node37&#45;&gt;Node23</title>
<path fill="none" stroke="midnightblue" d="M1179.25,-326.44C1181.27,-302.69 1184.11,-260.282 1182.5,-224 1181.94,-211.306 1180.48,-196.658 1179.49,-187.612"/>
<polygon fill="midnightblue" stroke="midnightblue" points="1175.76,-326.218 1178.35,-336.491 1182.73,-326.843 1175.76,-326.218"/>
</g>
<!-- Node38&#45;&gt;Node35 -->
<g id="edge53" class="edge"><title>Node38&#45;&gt;Node35</title>
<path fill="none" stroke="midnightblue" d="M1557,-270.101C1555.34,-261.136 1553.44,-250.858 1552.12,-243.751"/>
<polygon fill="midnightblue" stroke="midnightblue" points="1553.59,-270.888 1558.85,-280.083 1560.47,-269.613 1553.59,-270.888"/>
</g>
<!-- Node40 -->
<g id="node40" class="node"><title>Node40</title>
<g id="a_node40"><a xlink:href="../../df/da1/Notch_8hpp.html" target="_top" xlink:title=" ">
<polygon fill="white" stroke="black" points="1612.5,-280.5 1612.5,-299.5 1674.5,-299.5 1674.5,-280.5 1612.5,-280.5"/>
<text text-anchor="middle" x="1643.5" y="-287.5" font-family="Helvetica,sans-Serif" font-size="10.00">Notch.hpp</text>
</a>
</g>
</g>
<!-- Node39&#45;&gt;Node40 -->
<g id="edge55" class="edge"><title>Node39&#45;&gt;Node40</title>
<path fill="none" stroke="midnightblue" d="M1642.21,-325.805C1642.54,-316.91 1642.92,-306.78 1643.18,-299.751"/>
<polygon fill="midnightblue" stroke="midnightblue" points="1638.7,-325.96 1641.83,-336.083 1645.7,-326.219 1638.7,-325.96"/>
</g>
<!-- Node43&#45;&gt;Node38 -->
<g id="edge59" class="edge"><title>Node43&#45;&gt;Node38</title>
<path fill="none" stroke="midnightblue" d="M1512.33,-329.82C1524.34,-320.145 1539.47,-307.948 1549.54,-299.834"/>
<polygon fill="midnightblue" stroke="midnightblue" points="1509.85,-327.324 1504.26,-336.324 1514.25,-332.774 1509.85,-327.324"/>
</g>
<!-- Node43&#45;&gt;Node41 -->
<g id="edge60" class="edge"><title>Node43&#45;&gt;Node41</title>
<path fill="none" stroke="midnightblue" d="M1486.38,-326.69C1482.84,-317.589 1478.73,-307.014 1475.9,-299.751"/>
<polygon fill="midnightblue" stroke="midnightblue" points="1483.15,-328.032 1490.03,-336.083 1489.67,-325.494 1483.15,-328.032"/>
</g>
<!-- Node44&#45;&gt;Node18 -->
<g id="edge63" class="edge"><title>Node44&#45;&gt;Node18</title>
<path fill="none" stroke="midnightblue" d="M1537.53,-168.035C1352.82,-142.696 1146.63,-130.679 1043.41,-125.777"/>
<polygon fill="midnightblue" stroke="midnightblue" points="1537.32,-171.538 1547.7,-169.447 1538.28,-164.605 1537.32,-171.538"/>
</g>
<!-- Node44&#45;&gt;Node21 -->
<g id="edge64" class="edge"><title>Node44&#45;&gt;Node21</title>
<path fill="none" stroke="midnightblue" d="M1563.07,-162.565C1540.06,-147.134 1500.97,-123.359 1463.5,-112 1385.96,-88.4901 1153.03,-74.9922 1040.16,-69.6681"/>
<polygon fill="midnightblue" stroke="midnightblue" points="1561.39,-165.656 1571.62,-168.413 1565.34,-159.878 1561.39,-165.656"/>
</g>
<!-- Node44&#45;&gt;Node27 -->
<g id="edge62" class="edge"><title>Node44&#45;&gt;Node27</title>
<path fill="none" stroke="midnightblue" d="M1547.11,-165.304C1515.46,-155.129 1470.33,-140.625 1442,-131.516"/>
<polygon fill="midnightblue" stroke="midnightblue" points="1546.29,-168.715 1556.88,-168.444 1548.43,-162.051 1546.29,-168.715"/>
</g>
<!-- Node47&#45;&gt;Node2 -->
<g id="edge72" class="edge"><title>Node47&#45;&gt;Node2</title>
<path fill="none" stroke="midnightblue" d="M912.982,-471.842C935.205,-481.875 963.314,-495.546 979.62,-504.324"/>
<polygon fill="midnightblue" stroke="midnightblue" points="914.12,-468.518 903.56,-467.655 911.277,-474.914 914.12,-468.518"/>
</g>
<!-- Node47&#45;&gt;Node4 -->
<g id="edge71" class="edge"><title>Node47&#45;&gt;Node4</title>
<path fill="none" stroke="midnightblue" d="M907.019,-443.862C927.23,-433.849 954.487,-420.346 972.031,-411.655"/>
<polygon fill="midnightblue" stroke="midnightblue" points="905.42,-440.748 898.013,-448.324 908.527,-447.021 905.42,-440.748"/>
</g>
<!-- Node47&#45;&gt;Node7 -->
<g id="edge73" class="edge"><title>Node47&#45;&gt;Node7</title>
<path fill="none" stroke="midnightblue" d="M815.929,-456.276C680.153,-453.003 377.5,-435.754 377.5,-347 377.5,-347 377.5,-347 377.5,-289 377.5,-242.08 327.958,-203.942 302.799,-187.599"/>
<polygon fill="midnightblue" stroke="midnightblue" points="816.117,-459.781 826.192,-456.504 816.273,-452.783 816.117,-459.781"/>
</g>
<!-- Node47&#45;&gt;Node23 -->
<g id="edge77" class="edge"><title>Node47&#45;&gt;Node23</title>
<path fill="none" stroke="midnightblue" d="M881.322,-438.255C882.211,-416.366 883.5,-379.064 883.5,-347 883.5,-347 883.5,-347 883.5,-289 883.5,-237.141 1045.57,-201.726 1129.46,-186.869"/>
<polygon fill="midnightblue" stroke="midnightblue" points="877.817,-438.306 880.892,-448.444 884.811,-438.601 877.817,-438.306"/>
</g>
<!-- Node48 -->
<g id="node48" class="node"><title>Node48</title>
<g id="a_node48"><a xlink:href="../../d1/d1f/ShiftRegisterOutRGB_8hpp.html" target="_top" xlink:title=" ">
<polygon fill="white" stroke="black" points="725.5,-392.5 725.5,-411.5 855.5,-411.5 855.5,-392.5 725.5,-392.5"/>
<text text-anchor="middle" x="790.5" y="-399.5" font-family="Helvetica,sans-Serif" font-size="10.00">ShiftRegisterOutRGB.hpp</text>
</a>
</g>
</g>
<!-- Node47&#45;&gt;Node48 -->
<g id="edge74" class="edge"><title>Node47&#45;&gt;Node48</title>
<path fill="none" stroke="midnightblue" d="M857.462,-443.177C840.901,-433.241 819.082,-420.149 804.924,-411.655"/>
<polygon fill="midnightblue" stroke="midnightblue" points="855.664,-446.18 866.04,-448.324 859.266,-440.178 855.664,-446.18"/>
</g>
<!-- Node48&#45;&gt;Node17 -->
<g id="edge75" class="edge"><title>Node48&#45;&gt;Node17</title>
<path fill="none" stroke="midnightblue" d="M756.578,-388.389C732.374,-377.179 705.846,-359.015 716.5,-336 751.716,-259.927 843.971,-207.254 883.307,-187.57"/>
<polygon fill="midnightblue" stroke="midnightblue" points="755.434,-391.708 766.001,-392.48 758.222,-385.287 755.434,-391.708"/>
</g>
<!-- Node49 -->
<g id="node49" class="node"><title>Node49</title>
<g id="a_node49"><a xlink:href="../../db/d0b/ShiftRegisterOutRGB_8cpp.html" target="_top" xlink:title=" ">
<polygon fill="white" stroke="black" points="725.5,-336.5 725.5,-355.5 855.5,-355.5 855.5,-336.5 725.5,-336.5"/>
<text text-anchor="middle" x="790.5" y="-343.5" font-family="Helvetica,sans-Serif" font-size="10.00">ShiftRegisterOutRGB.cpp</text>
</a>
</g>
</g>
<!-- Node48&#45;&gt;Node49 -->
<g id="edge76" class="edge"><title>Node48&#45;&gt;Node49</title>
<path fill="none" stroke="midnightblue" d="M790.5,-381.805C790.5,-372.91 790.5,-362.78 790.5,-355.751"/>
<polygon fill="midnightblue" stroke="midnightblue" points="787,-382.083 790.5,-392.083 794,-382.083 787,-382.083"/>
</g>
</g>
</svg>
