<?xml version="1.0" encoding="UTF-8" standalone="no"?>
<!DOCTYPE svg PUBLIC "-//W3C//DTD SVG 1.1//EN"
 "http://www.w3.org/Graphics/SVG/1.1/DTD/svg11.dtd">
<!-- Generated by graphviz version 2.38.0 (20140413.2041)
 -->
<!-- Title: DebugVal.hpp Pages: 1 -->
<svg width="1839pt" height="588pt"
 viewBox="0.00 0.00 1838.50 588.00" xmlns="http://www.w3.org/2000/svg" xmlns:xlink="http://www.w3.org/1999/xlink">
<g id="graph0" class="graph" transform="scale(1 1) rotate(0) translate(4 584)">
<title>DebugVal.hpp</title>
<polygon fill="white" stroke="none" points="-4,4 -4,-584 1834.5,-584 1834.5,4 -4,4"/>
<!-- Node1 -->
<g id="node1" class="node"><title>Node1</title>
<g id="a_node1"><a xlink:title=" ">
<polygon fill="#bfbfbf" stroke="black" points="1093.5,-560.5 1093.5,-579.5 1171.5,-579.5 1171.5,-560.5 1093.5,-560.5"/>
<text text-anchor="middle" x="1132.5" y="-567.5" font-family="Helvetica,sans-Serif" font-size="10.00">DebugVal.hpp</text>
</a>
</g>
</g>
<!-- Node2 -->
<g id="node2" class="node"><title>Node2</title>
<g id="a_node2"><a xlink:href="../../df/dee/Debug_8hpp.html" target="_top" xlink:title=" ">
<polygon fill="white" stroke="black" points="1100.5,-504.5 1100.5,-523.5 1164.5,-523.5 1164.5,-504.5 1100.5,-504.5"/>
<text text-anchor="middle" x="1132.5" y="-511.5" font-family="Helvetica,sans-Serif" font-size="10.00">Debug.hpp</text>
</a>
</g>
</g>
<!-- Node1&#45;&gt;Node2 -->
<g id="edge1" class="edge"><title>Node1&#45;&gt;Node2</title>
<path fill="none" stroke="midnightblue" d="M1132.5,-549.805C1132.5,-540.91 1132.5,-530.78 1132.5,-523.751"/>
<polygon fill="midnightblue" stroke="midnightblue" points="1129,-550.083 1132.5,-560.083 1136,-550.083 1129,-550.083"/>
</g>
<!-- Node3 -->
<g id="node3" class="node"><title>Node3</title>
<g id="a_node3"><a xlink:href="../../de/dd1/LinkedList_8hpp.html" target="_top" xlink:title=" ">
<polygon fill="white" stroke="black" points="1092.5,-448.5 1092.5,-467.5 1172.5,-467.5 1172.5,-448.5 1092.5,-448.5"/>
<text text-anchor="middle" x="1132.5" y="-455.5" font-family="Helvetica,sans-Serif" font-size="10.00">LinkedList.hpp</text>
</a>
</g>
</g>
<!-- Node2&#45;&gt;Node3 -->
<g id="edge2" class="edge"><title>Node2&#45;&gt;Node3</title>
<path fill="none" stroke="midnightblue" d="M1132.5,-493.805C1132.5,-484.91 1132.5,-474.78 1132.5,-467.751"/>
<polygon fill="midnightblue" stroke="midnightblue" points="1129,-494.083 1132.5,-504.083 1136,-494.083 1129,-494.083"/>
</g>
<!-- Node31 -->
<g id="node31" class="node"><title>Node31</title>
<g id="a_node31"><a xlink:href="../../df/d66/Debug_8cpp.html" target="_top" xlink:title=" ">
<polygon fill="white" stroke="black" points="1369.5,-448.5 1369.5,-467.5 1433.5,-467.5 1433.5,-448.5 1369.5,-448.5"/>
<text text-anchor="middle" x="1401.5" y="-455.5" font-family="Helvetica,sans-Serif" font-size="10.00">Debug.cpp</text>
</a>
</g>
</g>
<!-- Node2&#45;&gt;Node31 -->
<g id="edge40" class="edge"><title>Node2&#45;&gt;Node31</title>
<path fill="none" stroke="midnightblue" d="M1174.5,-504.987C1220.29,-496.188 1295.69,-481.508 1360.5,-468 1363.35,-467.405 1366.32,-466.777 1369.28,-466.139"/>
<polygon fill="midnightblue" stroke="midnightblue" points="1173.8,-501.558 1164.64,-506.88 1175.12,-508.432 1173.8,-501.558"/>
</g>
<!-- Node32 -->
<g id="node32" class="node"><title>Node32</title>
<g id="a_node32"><a xlink:href="../../d1/d93/Error_8hpp.html" target="_top" xlink:title=" ">
<polygon fill="white" stroke="black" points="1295.5,-448.5 1295.5,-467.5 1351.5,-467.5 1351.5,-448.5 1295.5,-448.5"/>
<text text-anchor="middle" x="1323.5" y="-455.5" font-family="Helvetica,sans-Serif" font-size="10.00">Error.hpp</text>
</a>
</g>
</g>
<!-- Node2&#45;&gt;Node32 -->
<g id="edge41" class="edge"><title>Node2&#45;&gt;Node32</title>
<path fill="none" stroke="midnightblue" d="M1172.65,-501.648C1209.39,-491.261 1262.82,-476.156 1295.25,-466.988"/>
<polygon fill="midnightblue" stroke="midnightblue" points="1171.44,-498.355 1162.76,-504.444 1173.34,-505.091 1171.44,-498.355"/>
</g>
<!-- Node45 -->
<g id="node45" class="node"><title>Node45</title>
<g id="a_node45"><a xlink:href="../../d2/dd5/SettingsWrapper_8hpp.html" target="_top" xlink:title=" ">
<polygon fill="white" stroke="black" points="955.5,-448.5 955.5,-467.5 1063.5,-467.5 1063.5,-448.5 955.5,-448.5"/>
<text text-anchor="middle" x="1009.5" y="-455.5" font-family="Helvetica,sans-Serif" font-size="10.00">SettingsWrapper.hpp</text>
</a>
</g>
</g>
<!-- Node2&#45;&gt;Node45 -->
<g id="edge68" class="edge"><title>Node2&#45;&gt;Node45</title>
<path fill="none" stroke="midnightblue" d="M1098.56,-500.638C1073.98,-490.504 1042.15,-476.427 1023.82,-467.516"/>
<polygon fill="midnightblue" stroke="midnightblue" points="1097.34,-503.918 1107.92,-504.444 1099.98,-497.434 1097.34,-503.918"/>
</g>
<!-- Node4 -->
<g id="node4" class="node"><title>Node4</title>
<g id="a_node4"><a xlink:href="../../d4/d93/Updatable_8hpp.html" target="_top" xlink:title=" ">
<polygon fill="white" stroke="black" points="1058.5,-392.5 1058.5,-411.5 1138.5,-411.5 1138.5,-392.5 1058.5,-392.5"/>
<text text-anchor="middle" x="1098.5" y="-399.5" font-family="Helvetica,sans-Serif" font-size="10.00">Updatable.hpp</text>
</a>
</g>
</g>
<!-- Node3&#45;&gt;Node4 -->
<g id="edge3" class="edge"><title>Node3&#45;&gt;Node4</title>
<path fill="none" stroke="midnightblue" d="M1121.52,-439.566C1115.67,-430.275 1108.73,-419.248 1104.01,-411.751"/>
<polygon fill="midnightblue" stroke="midnightblue" points="1118.6,-441.486 1126.89,-448.083 1124.52,-437.756 1118.6,-441.486"/>
</g>
<!-- Node5 -->
<g id="node5" class="node"><title>Node5</title>
<g id="a_node5"><a xlink:href="../../d4/d57/ExtendedIOElement_8hpp.html" target="_top" xlink:title=" ">
<polygon fill="white" stroke="black" points="1069,-280.5 1069,-299.5 1192,-299.5 1192,-280.5 1069,-280.5"/>
<text text-anchor="middle" x="1130.5" y="-287.5" font-family="Helvetica,sans-Serif" font-size="10.00">ExtendedIOElement.hpp</text>
</a>
</g>
</g>
<!-- Node3&#45;&gt;Node5 -->
<g id="edge4" class="edge"><title>Node3&#45;&gt;Node5</title>
<path fill="none" stroke="midnightblue" d="M1140.06,-438.782C1143.01,-430.725 1146.03,-421.043 1147.5,-412 1149.61,-398.976 1150.93,-360.363 1146.5,-336 1144.13,-322.947 1138.47,-308.632 1134.56,-299.732"/>
<polygon fill="midnightblue" stroke="midnightblue" points="1136.74,-437.661 1136.36,-448.249 1143.26,-440.209 1136.74,-437.661"/>
</g>
<!-- Node6 -->
<g id="node6" class="node"><title>Node6</title>
<g id="a_node6"><a xlink:href="../../dd/ddf/ExtendedInputOutput_8hpp.html" target="_top" xlink:title=" ">
<polygon fill="white" stroke="black" points="622.5,-224.5 622.5,-243.5 750.5,-243.5 750.5,-224.5 622.5,-224.5"/>
<text text-anchor="middle" x="686.5" y="-231.5" font-family="Helvetica,sans-Serif" font-size="10.00">ExtendedInputOutput.hpp</text>
</a>
</g>
</g>
<!-- Node5&#45;&gt;Node6 -->
<g id="edge5" class="edge"><title>Node5&#45;&gt;Node6</title>
<path fill="none" stroke="midnightblue" d="M1058.64,-280.261C973.329,-269.885 832.34,-252.737 750.587,-242.794"/>
<polygon fill="midnightblue" stroke="midnightblue" points="1058.41,-283.759 1068.76,-281.492 1059.26,-276.81 1058.41,-283.759"/>
</g>
<!-- Node16 -->
<g id="node16" class="node"><title>Node16</title>
<g id="a_node16"><a xlink:href="../../d6/d3c/ExtendedInputOutput_8cpp.html" target="_top" xlink:title=" ">
<polygon fill="white" stroke="black" points="1100.5,-168.5 1100.5,-187.5 1228.5,-187.5 1228.5,-168.5 1100.5,-168.5"/>
<text text-anchor="middle" x="1164.5" y="-175.5" font-family="Helvetica,sans-Serif" font-size="10.00">ExtendedInputOutput.cpp</text>
</a>
</g>
</g>
<!-- Node5&#45;&gt;Node16 -->
<g id="edge38" class="edge"><title>Node5&#45;&gt;Node16</title>
<path fill="none" stroke="midnightblue" d="M1136.16,-270.674C1143.6,-246.625 1156.34,-205.388 1161.84,-187.591"/>
<polygon fill="midnightblue" stroke="midnightblue" points="1132.78,-269.781 1133.17,-280.368 1139.46,-271.848 1132.78,-269.781"/>
</g>
<!-- Node29 -->
<g id="node29" class="node"><title>Node29</title>
<g id="a_node29"><a xlink:href="../../d2/d05/StaticSizeExtendedIOElement_8hpp.html" target="_top" xlink:title=" ">
<polygon fill="white" stroke="black" points="1214.5,-224.5 1214.5,-243.5 1382.5,-243.5 1382.5,-224.5 1214.5,-224.5"/>
<text text-anchor="middle" x="1298.5" y="-231.5" font-family="Helvetica,sans-Serif" font-size="10.00">StaticSizeExtendedIOElement.hpp</text>
</a>
</g>
</g>
<!-- Node5&#45;&gt;Node29 -->
<g id="edge34" class="edge"><title>Node5&#45;&gt;Node29</title>
<path fill="none" stroke="midnightblue" d="M1166.89,-277.304C1198.54,-267.129 1243.67,-252.625 1272,-243.516"/>
<polygon fill="midnightblue" stroke="midnightblue" points="1165.57,-274.051 1157.12,-280.444 1167.71,-280.715 1165.57,-274.051"/>
</g>
<!-- Node30 -->
<g id="node30" class="node"><title>Node30</title>
<g id="a_node30"><a xlink:href="../../da/d1f/ExtendedIOElement_8cpp.html" target="_top" xlink:title=" ">
<polygon fill="white" stroke="black" points="1401,-224.5 1401,-243.5 1524,-243.5 1524,-224.5 1401,-224.5"/>
<text text-anchor="middle" x="1462.5" y="-231.5" font-family="Helvetica,sans-Serif" font-size="10.00">ExtendedIOElement.cpp</text>
</a>
</g>
</g>
<!-- Node5&#45;&gt;Node30 -->
<g id="edge39" class="edge"><title>Node5&#45;&gt;Node30</title>
<path fill="none" stroke="midnightblue" d="M1193.27,-278.791C1256,-268.587 1351.35,-253.078 1410.14,-243.516"/>
<polygon fill="midnightblue" stroke="midnightblue" points="1192.41,-275.383 1183.11,-280.444 1193.54,-282.293 1192.41,-275.383"/>
</g>
<!-- Node7 -->
<g id="node7" class="node"><title>Node7</title>
<g id="a_node7"><a xlink:href="../../d4/db3/Button_8hpp.html" target="_top" xlink:title=" ">
<polygon fill="white" stroke="black" points="304.5,-168.5 304.5,-187.5 368.5,-187.5 368.5,-168.5 304.5,-168.5"/>
<text text-anchor="middle" x="336.5" y="-175.5" font-family="Helvetica,sans-Serif" font-size="10.00">Button.hpp</text>
</a>
</g>
</g>
<!-- Node6&#45;&gt;Node7 -->
<g id="edge6" class="edge"><title>Node6&#45;&gt;Node7</title>
<path fill="none" stroke="midnightblue" d="M620.747,-222.855C545.602,-211.262 425.671,-192.758 368.644,-183.959"/>
<polygon fill="midnightblue" stroke="midnightblue" points="620.625,-226.378 631.041,-224.444 621.692,-219.46 620.625,-226.378"/>
</g>
<!-- Node13 -->
<g id="node13" class="node"><title>Node13</title>
<g id="a_node13"><a xlink:href="../../d5/d41/ButtonMatrix_8ipp.html" target="_top" xlink:title=" ">
<polygon fill="white" stroke="black" points="454.5,-168.5 454.5,-187.5 542.5,-187.5 542.5,-168.5 454.5,-168.5"/>
<text text-anchor="middle" x="498.5" y="-175.5" font-family="Helvetica,sans-Serif" font-size="10.00">ButtonMatrix.ipp</text>
</a>
</g>
</g>
<!-- Node6&#45;&gt;Node13 -->
<g id="edge12" class="edge"><title>Node6&#45;&gt;Node13</title>
<path fill="none" stroke="midnightblue" d="M646.699,-221.568C611.234,-211.381 560.134,-196.703 528.15,-187.516"/>
<polygon fill="midnightblue" stroke="midnightblue" points="646.133,-225.047 656.711,-224.444 648.066,-218.319 646.133,-225.047"/>
</g>
<!-- Node15 -->
<g id="node15" class="node"><title>Node15</title>
<g id="a_node15"><a xlink:href="../../d7/def/AnalogMultiplex_8hpp.html" target="_top" xlink:title=" ">
<polygon fill="white" stroke="black" points="1246.5,-168.5 1246.5,-187.5 1350.5,-187.5 1350.5,-168.5 1246.5,-168.5"/>
<text text-anchor="middle" x="1298.5" y="-175.5" font-family="Helvetica,sans-Serif" font-size="10.00">AnalogMultiplex.hpp</text>
</a>
</g>
</g>
<!-- Node6&#45;&gt;Node15 -->
<g id="edge15" class="edge"><title>Node6&#45;&gt;Node15</title>
<path fill="none" stroke="midnightblue" d="M760.956,-228.461C866.981,-221.646 1067.47,-207.466 1237.5,-188 1240.37,-187.671 1243.32,-187.312 1246.29,-186.932"/>
<polygon fill="midnightblue" stroke="midnightblue" points="760.439,-224.986 750.683,-229.117 760.886,-231.972 760.439,-224.986"/>
</g>
<!-- Node6&#45;&gt;Node16 -->
<g id="edge16" class="edge"><title>Node6&#45;&gt;Node16</title>
<path fill="none" stroke="midnightblue" d="M760.84,-225.011C842.095,-216.215 976.108,-201.523 1091.5,-188 1094.42,-187.658 1097.4,-187.305 1100.41,-186.946"/>
<polygon fill="midnightblue" stroke="midnightblue" points="760.275,-221.551 750.709,-226.106 761.027,-228.511 760.275,-221.551"/>
</g>
<!-- Node17 -->
<g id="node17" class="node"><title>Node17</title>
<g id="a_node17"><a xlink:href="../../d5/d47/ShiftRegisterOutBase_8ipp.html" target="_top" xlink:title=" ">
<polygon fill="white" stroke="black" points="838.5,-168.5 838.5,-187.5 966.5,-187.5 966.5,-168.5 838.5,-168.5"/>
<text text-anchor="middle" x="902.5" y="-175.5" font-family="Helvetica,sans-Serif" font-size="10.00">ShiftRegisterOutBase.ipp</text>
</a>
</g>
</g>
<!-- Node6&#45;&gt;Node17 -->
<g id="edge17" class="edge"><title>Node6&#45;&gt;Node17</title>
<path fill="none" stroke="midnightblue" d="M730.664,-221.959C771.461,-211.76 831.213,-196.822 868.434,-187.516"/>
<polygon fill="midnightblue" stroke="midnightblue" points="729.578,-218.623 720.726,-224.444 731.276,-225.414 729.578,-218.623"/>
</g>
<!-- Node20 -->
<g id="node20" class="node"><title>Node20</title>
<g id="a_node20"><a xlink:href="../../de/d95/ShiftRegisterOut_8ipp.html" target="_top" xlink:title=" ">
<polygon fill="white" stroke="black" points="678,-0.5 678,-19.5 783,-19.5 783,-0.5 678,-0.5"/>
<text text-anchor="middle" x="730.5" y="-7.5" font-family="Helvetica,sans-Serif" font-size="10.00">ShiftRegisterOut.ipp</text>
</a>
</g>
</g>
<!-- Node6&#45;&gt;Node20 -->
<g id="edge26" class="edge"><title>Node6&#45;&gt;Node20</title>
<path fill="none" stroke="midnightblue" d="M678.288,-214.869C664.434,-181.408 640.447,-108.569 667.5,-56 676.295,-38.9095 694.922,-26.8711 709.653,-19.5733"/>
<polygon fill="midnightblue" stroke="midnightblue" points="675.172,-216.483 682.352,-224.274 681.598,-213.706 675.172,-216.483"/>
</g>
<!-- Node22 -->
<g id="node22" class="node"><title>Node22</title>
<g id="a_node22"><a xlink:href="../../da/d45/SPIShiftRegisterOut_8ipp.html" target="_top" xlink:title=" ">
<polygon fill="white" stroke="black" points="915.5,-0.5 915.5,-19.5 1037.5,-19.5 1037.5,-0.5 915.5,-0.5"/>
<text text-anchor="middle" x="976.5" y="-7.5" font-family="Helvetica,sans-Serif" font-size="10.00">SPIShiftRegisterOut.ipp</text>
</a>
</g>
</g>
<!-- Node6&#45;&gt;Node22 -->
<g id="edge27" class="edge"><title>Node6&#45;&gt;Node22</title>
<path fill="none" stroke="midnightblue" d="M684.037,-214.18C681.723,-188.205 681.596,-141.266 705.5,-112 709.639,-106.933 886.799,-43.1228 952.4,-19.6178"/>
<polygon fill="midnightblue" stroke="midnightblue" points="680.567,-214.651 685.137,-224.209 687.525,-213.887 680.567,-214.651"/>
</g>
<!-- Node23 -->
<g id="node23" class="node"><title>Node23</title>
<g id="a_node23"><a xlink:href="../../d8/df3/FilteredAnalog_8hpp.html" target="_top" xlink:title=" ">
<polygon fill="white" stroke="black" points="984.5,-168.5 984.5,-187.5 1082.5,-187.5 1082.5,-168.5 984.5,-168.5"/>
<text text-anchor="middle" x="1033.5" y="-175.5" font-family="Helvetica,sans-Serif" font-size="10.00">FilteredAnalog.hpp</text>
</a>
</g>
</g>
<!-- Node6&#45;&gt;Node23 -->
<g id="edge28" class="edge"><title>Node6&#45;&gt;Node23</title>
<path fill="none" stroke="midnightblue" d="M751.592,-222.87C819.183,-212.352 923.4,-196.134 984.385,-186.643"/>
<polygon fill="midnightblue" stroke="midnightblue" points="750.826,-219.447 741.483,-224.444 751.902,-226.364 750.826,-219.447"/>
</g>
<!-- Node24 -->
<g id="node24" class="node"><title>Node24</title>
<g id="a_node24"><a xlink:href="../../d9/d4f/LEDs_8hpp.html" target="_top" xlink:title=" ">
<polygon fill="white" stroke="black" points="560.5,-168.5 560.5,-187.5 620.5,-187.5 620.5,-168.5 560.5,-168.5"/>
<text text-anchor="middle" x="590.5" y="-175.5" font-family="Helvetica,sans-Serif" font-size="10.00">LEDs.hpp</text>
</a>
</g>
</g>
<!-- Node6&#45;&gt;Node24 -->
<g id="edge29" class="edge"><title>Node6&#45;&gt;Node24</title>
<path fill="none" stroke="midnightblue" d="M661.926,-219.177C644.261,-209.241 620.987,-196.149 605.886,-187.655"/>
<polygon fill="midnightblue" stroke="midnightblue" points="660.644,-222.472 671.076,-224.324 664.076,-216.371 660.644,-222.472"/>
</g>
<!-- Node26 -->
<g id="node26" class="node"><title>Node26</title>
<g id="a_node26"><a xlink:href="../../d7/d13/MAX7219__Base_8hpp.html" target="_top" xlink:title=" ">
<polygon fill="white" stroke="black" points="714.5,-168.5 714.5,-187.5 820.5,-187.5 820.5,-168.5 714.5,-168.5"/>
<text text-anchor="middle" x="767.5" y="-175.5" font-family="Helvetica,sans-Serif" font-size="10.00">MAX7219_Base.hpp</text>
</a>
</g>
</g>
<!-- Node6&#45;&gt;Node26 -->
<g id="edge31" class="edge"><title>Node6&#45;&gt;Node26</title>
<path fill="none" stroke="midnightblue" d="M708.067,-218.622C722.864,-208.757 742.012,-195.992 754.518,-187.655"/>
<polygon fill="midnightblue" stroke="midnightblue" points="705.893,-215.865 699.514,-224.324 709.776,-221.689 705.893,-215.865"/>
</g>
<!-- Node8 -->
<g id="node8" class="node"><title>Node8</title>
<g id="a_node8"><a xlink:href="../../de/dd1/Button_8cpp.html" target="_top" xlink:title=" ">
<polygon fill="white" stroke="black" points="304.5,-112.5 304.5,-131.5 368.5,-131.5 368.5,-112.5 304.5,-112.5"/>
<text text-anchor="middle" x="336.5" y="-119.5" font-family="Helvetica,sans-Serif" font-size="10.00">Button.cpp</text>
</a>
</g>
</g>
<!-- Node7&#45;&gt;Node8 -->
<g id="edge7" class="edge"><title>Node7&#45;&gt;Node8</title>
<path fill="none" stroke="midnightblue" d="M336.5,-157.805C336.5,-148.91 336.5,-138.78 336.5,-131.751"/>
<polygon fill="midnightblue" stroke="midnightblue" points="333,-158.083 336.5,-168.083 340,-158.083 333,-158.083"/>
</g>
<!-- Node9 -->
<g id="node9" class="node"><title>Node9</title>
<g id="a_node9"><a xlink:href="../../d5/d04/IncrementButton_8hpp.html" target="_top" xlink:title=" ">
<polygon fill="white" stroke="black" points="0,-112.5 0,-131.5 107,-131.5 107,-112.5 0,-112.5"/>
<text text-anchor="middle" x="53.5" y="-119.5" font-family="Helvetica,sans-Serif" font-size="10.00">IncrementButton.hpp</text>
</a>
</g>
</g>
<!-- Node7&#45;&gt;Node9 -->
<g id="edge8" class="edge"><title>Node7&#45;&gt;Node9</title>
<path fill="none" stroke="midnightblue" d="M294.295,-168.947C241.64,-158.9 151.997,-141.795 98.2025,-131.53"/>
<polygon fill="midnightblue" stroke="midnightblue" points="293.833,-172.422 304.312,-170.858 295.145,-165.546 293.833,-172.422"/>
</g>
<!-- Node11 -->
<g id="node11" class="node"><title>Node11</title>
<g id="a_node11"><a xlink:href="../../df/df5/IncrementDecrementButtons_8hpp.html" target="_top" xlink:title=" ">
<polygon fill="white" stroke="black" points="125,-112.5 125,-131.5 286,-131.5 286,-112.5 125,-112.5"/>
<text text-anchor="middle" x="205.5" y="-119.5" font-family="Helvetica,sans-Serif" font-size="10.00">IncrementDecrementButtons.hpp</text>
</a>
</g>
</g>
<!-- Node7&#45;&gt;Node11 -->
<g id="edge10" class="edge"><title>Node7&#45;&gt;Node11</title>
<path fill="none" stroke="midnightblue" d="M306.183,-164.503C281.624,-154.38 247.682,-140.388 226.16,-131.516"/>
<polygon fill="midnightblue" stroke="midnightblue" points="305.163,-167.868 315.743,-168.444 307.831,-161.397 305.163,-167.868"/>
</g>
<!-- Node10 -->
<g id="node10" class="node"><title>Node10</title>
<g id="a_node10"><a xlink:href="../../db/d9d/IncrementButton_8cpp.html" target="_top" xlink:title=" ">
<polygon fill="white" stroke="black" points="0,-56.5 0,-75.5 107,-75.5 107,-56.5 0,-56.5"/>
<text text-anchor="middle" x="53.5" y="-63.5" font-family="Helvetica,sans-Serif" font-size="10.00">IncrementButton.cpp</text>
</a>
</g>
</g>
<!-- Node9&#45;&gt;Node10 -->
<g id="edge9" class="edge"><title>Node9&#45;&gt;Node10</title>
<path fill="none" stroke="midnightblue" d="M53.5,-101.805C53.5,-92.9102 53.5,-82.7798 53.5,-75.7511"/>
<polygon fill="midnightblue" stroke="midnightblue" points="50.0001,-102.083 53.5,-112.083 57.0001,-102.083 50.0001,-102.083"/>
</g>
<!-- Node12 -->
<g id="node12" class="node"><title>Node12</title>
<g id="a_node12"><a xlink:href="../../da/d66/IncrementDecrementButtons_8cpp.html" target="_top" xlink:title=" ">
<polygon fill="white" stroke="black" points="125,-56.5 125,-75.5 286,-75.5 286,-56.5 125,-56.5"/>
<text text-anchor="middle" x="205.5" y="-63.5" font-family="Helvetica,sans-Serif" font-size="10.00">IncrementDecrementButtons.cpp</text>
</a>
</g>
</g>
<!-- Node11&#45;&gt;Node12 -->
<g id="edge11" class="edge"><title>Node11&#45;&gt;Node12</title>
<path fill="none" stroke="midnightblue" d="M205.5,-101.805C205.5,-92.9102 205.5,-82.7798 205.5,-75.7511"/>
<polygon fill="midnightblue" stroke="midnightblue" points="202,-102.083 205.5,-112.083 209,-102.083 202,-102.083"/>
</g>
<!-- Node14 -->
<g id="node14" class="node"><title>Node14</title>
<g id="a_node14"><a xlink:href="../../d9/d4b/ButtonMatrix_8hpp.html" target="_top" xlink:title=" ">
<polygon fill="white" stroke="black" points="387,-112.5 387,-131.5 478,-131.5 478,-112.5 387,-112.5"/>
<text text-anchor="middle" x="432.5" y="-119.5" font-family="Helvetica,sans-Serif" font-size="10.00">ButtonMatrix.hpp</text>
</a>
</g>
</g>
<!-- Node13&#45;&gt;Node14 -->
<g id="edge13" class="edge"><title>Node13&#45;&gt;Node14</title>
<path fill="none" stroke="midnightblue" d="M474.557,-162.38C461.485,-152.62 446.498,-140.106 438.148,-131.834"/>
<polygon fill="midnightblue" stroke="midnightblue" points="472.626,-165.303 482.781,-168.324 476.726,-159.63 472.626,-165.303"/>
</g>
<!-- Node14&#45;&gt;Node13 -->
<g id="edge14" class="edge"><title>Node14&#45;&gt;Node13</title>
<path fill="none" stroke="midnightblue" d="M456.286,-137.502C469.351,-147.246 484.368,-159.777 492.768,-168.083"/>
<polygon fill="midnightblue" stroke="midnightblue" points="458.228,-134.587 448.071,-131.573 454.131,-140.264 458.228,-134.587"/>
</g>
<!-- Node18 -->
<g id="node18" class="node"><title>Node18</title>
<g id="a_node18"><a xlink:href="../../d8/d93/ShiftRegisterOutBase_8hpp.html" target="_top" xlink:title=" ">
<polygon fill="white" stroke="black" points="911,-112.5 911,-131.5 1042,-131.5 1042,-112.5 911,-112.5"/>
<text text-anchor="middle" x="976.5" y="-119.5" font-family="Helvetica,sans-Serif" font-size="10.00">ShiftRegisterOutBase.hpp</text>
</a>
</g>
</g>
<!-- Node17&#45;&gt;Node18 -->
<g id="edge18" class="edge"><title>Node17&#45;&gt;Node18</title>
<path fill="none" stroke="midnightblue" d="M917.217,-161.778C929.494,-152.038 946.67,-139.756 959.53,-131.655"/>
<polygon fill="midnightblue" stroke="midnightblue" points="914.765,-159.263 909.275,-168.324 919.217,-164.664 914.765,-159.263"/>
</g>
<!-- Node18&#45;&gt;Node17 -->
<g id="edge22" class="edge"><title>Node18&#45;&gt;Node17</title>
<path fill="none" stroke="midnightblue" d="M961.598,-138.369C949.344,-148.077 932.296,-160.263 919.504,-168.324"/>
<polygon fill="midnightblue" stroke="midnightblue" points="964.043,-140.89 969.543,-131.834 959.597,-135.483 964.043,-140.89"/>
</g>
<!-- Node19 -->
<g id="node19" class="node"><title>Node19</title>
<g id="a_node19"><a xlink:href="../../d0/db4/ShiftRegisterOut_8hpp.html" target="_top" xlink:title=" ">
<polygon fill="white" stroke="black" points="676.5,-56.5 676.5,-75.5 784.5,-75.5 784.5,-56.5 676.5,-56.5"/>
<text text-anchor="middle" x="730.5" y="-63.5" font-family="Helvetica,sans-Serif" font-size="10.00">ShiftRegisterOut.hpp</text>
</a>
</g>
</g>
<!-- Node18&#45;&gt;Node19 -->
<g id="edge19" class="edge"><title>Node18&#45;&gt;Node19</title>
<path fill="none" stroke="midnightblue" d="M927.671,-110.281C881.184,-100.077 812.137,-84.9203 769.297,-75.5164"/>
<polygon fill="midnightblue" stroke="midnightblue" points="927.003,-113.718 937.521,-112.444 928.504,-106.881 927.003,-113.718"/>
</g>
<!-- Node21 -->
<g id="node21" class="node"><title>Node21</title>
<g id="a_node21"><a xlink:href="../../d7/d88/SPIShiftRegisterOut_8hpp.html" target="_top" xlink:title=" ">
<polygon fill="white" stroke="black" points="914,-56.5 914,-75.5 1039,-75.5 1039,-56.5 914,-56.5"/>
<text text-anchor="middle" x="976.5" y="-63.5" font-family="Helvetica,sans-Serif" font-size="10.00">SPIShiftRegisterOut.hpp</text>
</a>
</g>
</g>
<!-- Node18&#45;&gt;Node21 -->
<g id="edge23" class="edge"><title>Node18&#45;&gt;Node21</title>
<path fill="none" stroke="midnightblue" d="M976.5,-101.805C976.5,-92.9102 976.5,-82.7798 976.5,-75.7511"/>
<polygon fill="midnightblue" stroke="midnightblue" points="973,-102.083 976.5,-112.083 980,-102.083 973,-102.083"/>
</g>
<!-- Node19&#45;&gt;Node20 -->
<g id="edge20" class="edge"><title>Node19&#45;&gt;Node20</title>
<path fill="none" stroke="midnightblue" d="M724.028,-46.1005C723.396,-37.1357 723.843,-26.8579 725.369,-19.7511"/>
<polygon fill="midnightblue" stroke="midnightblue" points="720.566,-46.6216 725.334,-56.083 727.507,-45.7134 720.566,-46.6216"/>
</g>
<!-- Node20&#45;&gt;Node19 -->
<g id="edge21" class="edge"><title>Node20&#45;&gt;Node19</title>
<path fill="none" stroke="midnightblue" d="M736.958,-29.6911C737.606,-38.6353 737.176,-48.9272 735.666,-56.083"/>
<polygon fill="midnightblue" stroke="midnightblue" points="740.423,-29.2002 735.631,-19.7511 733.485,-30.1262 740.423,-29.2002"/>
</g>
<!-- Node21&#45;&gt;Node22 -->
<g id="edge24" class="edge"><title>Node21&#45;&gt;Node22</title>
<path fill="none" stroke="midnightblue" d="M970.028,-46.1005C969.396,-37.1357 969.843,-26.8579 971.369,-19.7511"/>
<polygon fill="midnightblue" stroke="midnightblue" points="966.566,-46.6216 971.334,-56.083 973.507,-45.7134 966.566,-46.6216"/>
</g>
<!-- Node22&#45;&gt;Node21 -->
<g id="edge25" class="edge"><title>Node22&#45;&gt;Node21</title>
<path fill="none" stroke="midnightblue" d="M982.958,-29.6911C983.606,-38.6353 983.176,-48.9272 981.666,-56.083"/>
<polygon fill="midnightblue" stroke="midnightblue" points="986.423,-29.2002 981.631,-19.7511 979.485,-30.1262 986.423,-29.2002"/>
</g>
<!-- Node25 -->
<g id="node25" class="node"><title>Node25</title>
<g id="a_node25"><a xlink:href="../../d6/d3a/DotBarDisplayLEDs_8hpp.html" target="_top" xlink:title=" ">
<polygon fill="white" stroke="black" points="496.5,-112.5 496.5,-131.5 620.5,-131.5 620.5,-112.5 496.5,-112.5"/>
<text text-anchor="middle" x="558.5" y="-119.5" font-family="Helvetica,sans-Serif" font-size="10.00">DotBarDisplayLEDs.hpp</text>
</a>
</g>
</g>
<!-- Node24&#45;&gt;Node25 -->
<g id="edge30" class="edge"><title>Node24&#45;&gt;Node25</title>
<path fill="none" stroke="midnightblue" d="M579.996,-159.275C574.527,-150.045 568.082,-139.17 563.686,-131.751"/>
<polygon fill="midnightblue" stroke="midnightblue" points="577.107,-161.264 585.216,-168.083 583.129,-157.696 577.107,-161.264"/>
</g>
<!-- Node27 -->
<g id="node27" class="node"><title>Node27</title>
<g id="a_node27"><a xlink:href="../../d2/d25/MAX7219_8hpp.html" target="_top" xlink:title=" ">
<polygon fill="white" stroke="black" points="1377.5,-112.5 1377.5,-131.5 1455.5,-131.5 1455.5,-112.5 1377.5,-112.5"/>
<text text-anchor="middle" x="1416.5" y="-119.5" font-family="Helvetica,sans-Serif" font-size="10.00">MAX7219.hpp</text>
</a>
</g>
</g>
<!-- Node26&#45;&gt;Node27 -->
<g id="edge32" class="edge"><title>Node26&#45;&gt;Node27</title>
<path fill="none" stroke="midnightblue" d="M830.654,-167.944C1042.91,-144.747 1284.25,-130.236 1377.26,-125.089"/>
<polygon fill="midnightblue" stroke="midnightblue" points="830.126,-164.481 820.57,-169.055 830.893,-171.439 830.126,-164.481"/>
</g>
<!-- Node28 -->
<g id="node28" class="node"><title>Node28</title>
<g id="a_node28"><a xlink:href="../../d5/d0c/MAX7219SevenSegmentDisplay_8hpp.html" target="_top" xlink:title=" ">
<polygon fill="white" stroke="black" points="714.5,-112.5 714.5,-131.5 892.5,-131.5 892.5,-112.5 714.5,-112.5"/>
<text text-anchor="middle" x="803.5" y="-119.5" font-family="Helvetica,sans-Serif" font-size="10.00">MAX7219SevenSegmentDisplay.hpp</text>
</a>
</g>
</g>
<!-- Node26&#45;&gt;Node28 -->
<g id="edge33" class="edge"><title>Node26&#45;&gt;Node28</title>
<path fill="none" stroke="midnightblue" d="M779.123,-159.566C785.317,-150.275 792.668,-139.248 797.666,-131.751"/>
<polygon fill="midnightblue" stroke="midnightblue" points="776.08,-157.821 773.445,-168.083 781.904,-161.704 776.08,-157.821"/>
</g>
<!-- Node29&#45;&gt;Node15 -->
<g id="edge35" class="edge"><title>Node29&#45;&gt;Node15</title>
<path fill="none" stroke="midnightblue" d="M1298.5,-213.805C1298.5,-204.91 1298.5,-194.78 1298.5,-187.751"/>
<polygon fill="midnightblue" stroke="midnightblue" points="1295,-214.083 1298.5,-224.083 1302,-214.083 1295,-214.083"/>
</g>
<!-- Node29&#45;&gt;Node18 -->
<g id="edge37" class="edge"><title>Node29&#45;&gt;Node18</title>
<path fill="none" stroke="midnightblue" d="M1325.99,-219.536C1349,-206.526 1375.66,-186.172 1359.5,-168 1338.81,-144.737 1146,-131.523 1042.11,-126.036"/>
<polygon fill="midnightblue" stroke="midnightblue" points="1324.28,-216.484 1317.14,-224.307 1327.6,-222.647 1324.28,-216.484"/>
</g>
<!-- Node29&#45;&gt;Node27 -->
<g id="edge36" class="edge"><title>Node29&#45;&gt;Node27</title>
<path fill="none" stroke="midnightblue" d="M1340.15,-220.976C1358.29,-213.917 1378.55,-203.303 1392.5,-188 1407.41,-171.64 1413.28,-145.218 1415.41,-131.65"/>
<polygon fill="midnightblue" stroke="midnightblue" points="1338.82,-217.735 1330.62,-224.444 1341.22,-224.313 1338.82,-217.735"/>
</g>
<!-- Node32&#45;&gt;Node4 -->
<g id="edge63" class="edge"><title>Node32&#45;&gt;Node4</title>
<path fill="none" stroke="midnightblue" d="M1285.54,-447.889C1243.19,-437.726 1175.24,-421.417 1133.95,-411.507"/>
<polygon fill="midnightblue" stroke="midnightblue" points="1284.92,-451.34 1295.46,-450.27 1286.55,-444.533 1284.92,-451.34"/>
</g>
<!-- Node32&#45;&gt;Node16 -->
<g id="edge65" class="edge"><title>Node32&#45;&gt;Node16</title>
<path fill="none" stroke="midnightblue" d="M1292.37,-444.692C1257.39,-431.052 1198.78,-408.77 1147.5,-392 1092.14,-373.898 1056.57,-402.497 1021.5,-356 971.542,-289.769 1099.77,-213.093 1147.47,-187.676"/>
<polygon fill="midnightblue" stroke="midnightblue" points="1291.42,-448.079 1302.01,-448.465 1293.97,-441.561 1291.42,-448.079"/>
</g>
<!-- Node32&#45;&gt;Node30 -->
<g id="edge66" class="edge"><title>Node32&#45;&gt;Node30</title>
<path fill="none" stroke="midnightblue" d="M1359.81,-445.118C1404.24,-429.419 1480.34,-398.681 1535.5,-356 1561.2,-336.114 1571.39,-330.533 1582.5,-300 1593.93,-268.608 1556.36,-252.078 1520.31,-243.561"/>
<polygon fill="midnightblue" stroke="midnightblue" points="1358.6,-441.835 1350.3,-448.421 1360.89,-448.448 1358.6,-441.835"/>
</g>
<!-- Node33 -->
<g id="node33" class="node"><title>Node33</title>
<g id="a_node33"><a xlink:href="../../de/d76/Array_8hpp.html" target="_top" xlink:title=" ">
<polygon fill="white" stroke="black" points="1294,-392.5 1294,-411.5 1353,-411.5 1353,-392.5 1294,-392.5"/>
<text text-anchor="middle" x="1323.5" y="-399.5" font-family="Helvetica,sans-Serif" font-size="10.00">Array.hpp</text>
</a>
</g>
</g>
<!-- Node32&#45;&gt;Node33 -->
<g id="edge42" class="edge"><title>Node32&#45;&gt;Node33</title>
<path fill="none" stroke="midnightblue" d="M1323.5,-437.805C1323.5,-428.91 1323.5,-418.78 1323.5,-411.751"/>
<polygon fill="midnightblue" stroke="midnightblue" points="1320,-438.083 1323.5,-448.083 1327,-438.083 1320,-438.083"/>
</g>
<!-- Node42 -->
<g id="node42" class="node"><title>Node42</title>
<g id="a_node42"><a xlink:href="../../d1/d40/BitArray_8hpp.html" target="_top" xlink:title=" ">
<polygon fill="white" stroke="black" points="1549,-168.5 1549,-187.5 1620,-187.5 1620,-168.5 1549,-168.5"/>
<text text-anchor="middle" x="1584.5" y="-175.5" font-family="Helvetica,sans-Serif" font-size="10.00">BitArray.hpp</text>
</a>
</g>
</g>
<!-- Node32&#45;&gt;Node42 -->
<g id="edge59" class="edge"><title>Node32&#45;&gt;Node42</title>
<path fill="none" stroke="midnightblue" d="M1361.39,-446.214C1447.11,-421.55 1648.5,-362.005 1648.5,-347 1648.5,-347 1648.5,-347 1648.5,-289 1648.5,-258.902 1644.84,-249.894 1629.5,-224 1620.83,-209.362 1606.3,-196.051 1596.11,-187.767"/>
<polygon fill="midnightblue" stroke="midnightblue" points="1360.42,-442.852 1351.77,-448.975 1362.35,-449.58 1360.42,-442.852"/>
</g>
<!-- Node43 -->
<g id="node43" class="node"><title>Node43</title>
<g id="a_node43"><a xlink:href="../../d6/df4/Exit_8cpp.html" target="_top" xlink:title=" ">
<polygon fill="white" stroke="black" points="1677,-392.5 1677,-411.5 1730,-411.5 1730,-392.5 1677,-392.5"/>
<text text-anchor="middle" x="1703.5" y="-399.5" font-family="Helvetica,sans-Serif" font-size="10.00">Exit.cpp</text>
</a>
</g>
</g>
<!-- Node32&#45;&gt;Node43 -->
<g id="edge64" class="edge"><title>Node32&#45;&gt;Node43</title>
<path fill="none" stroke="midnightblue" d="M1361.91,-447.945C1495.32,-424.477 1532.47,-433.968 1662.5,-412 1667.1,-411.223 1671.96,-410.272 1676.67,-409.283"/>
<polygon fill="midnightblue" stroke="midnightblue" points="1360.93,-444.563 1351.71,-449.77 1362.17,-451.454 1360.93,-444.563"/>
</g>
<!-- Node44 -->
<g id="node44" class="node"><title>Node44</title>
<g id="a_node44"><a xlink:href="../../d3/d50/FixedPoint_8hpp.html" target="_top" xlink:title=" ">
<polygon fill="white" stroke="black" points="1748.5,-392.5 1748.5,-411.5 1830.5,-411.5 1830.5,-392.5 1748.5,-392.5"/>
<text text-anchor="middle" x="1789.5" y="-399.5" font-family="Helvetica,sans-Serif" font-size="10.00">FixedPoint.hpp</text>
</a>
</g>
</g>
<!-- Node32&#45;&gt;Node44 -->
<g id="edge67" class="edge"><title>Node32&#45;&gt;Node44</title>
<path fill="none" stroke="midnightblue" d="M1361.81,-448.009C1528.7,-420.544 1574.54,-434.239 1738.5,-412 1741.71,-411.565 1745.02,-411.074 1748.35,-410.552"/>
<polygon fill="midnightblue" stroke="midnightblue" points="1360.98,-444.599 1351.7,-449.7 1362.14,-451.504 1360.98,-444.599"/>
</g>
<!-- Node33&#45;&gt;Node15 -->
<g id="edge47" class="edge"><title>Node33&#45;&gt;Node15</title>
<path fill="none" stroke="midnightblue" d="M1303.31,-386.089C1293.05,-377.91 1280.82,-367.176 1271.5,-356 1234.5,-311.622 1220.7,-299.742 1205.5,-244 1203.16,-235.424 1200.78,-231.531 1205.5,-224 1217.32,-205.157 1239.5,-194.01 1259.25,-187.525"/>
<polygon fill="midnightblue" stroke="midnightblue" points="1301.3,-388.964 1311.35,-392.313 1305.59,-383.427 1301.3,-388.964"/>
</g>
<!-- Node34 -->
<g id="node34" class="node"><title>Node34</title>
<g id="a_node34"><a xlink:href="../../d5/db6/ArrayHelpers_8hpp.html" target="_top" xlink:title=" ">
<polygon fill="white" stroke="black" points="1395.5,-280.5 1395.5,-299.5 1487.5,-299.5 1487.5,-280.5 1395.5,-280.5"/>
<text text-anchor="middle" x="1441.5" y="-287.5" font-family="Helvetica,sans-Serif" font-size="10.00">ArrayHelpers.hpp</text>
</a>
</g>
</g>
<!-- Node33&#45;&gt;Node34 -->
<g id="edge43" class="edge"><title>Node33&#45;&gt;Node34</title>
<path fill="none" stroke="midnightblue" d="M1363.01,-396.309C1408.87,-389.957 1480.31,-376.942 1496.5,-356 1512.59,-335.183 1479.72,-311.89 1458.19,-299.628"/>
<polygon fill="midnightblue" stroke="midnightblue" points="1362.52,-392.843 1353.08,-397.637 1363.45,-399.781 1362.52,-392.843"/>
</g>
<!-- Node37 -->
<g id="node37" class="node"><title>Node37</title>
<g id="a_node37"><a xlink:href="../../d4/d35/Hardware-Types_8hpp.html" target="_top" xlink:title=" ">
<polygon fill="white" stroke="black" points="1031,-336.5 1031,-355.5 1138,-355.5 1138,-336.5 1031,-336.5"/>
<text text-anchor="middle" x="1084.5" y="-343.5" font-family="Helvetica,sans-Serif" font-size="10.00">Hardware&#45;Types.hpp</text>
</a>
</g>
</g>
<!-- Node33&#45;&gt;Node37 -->
<g id="edge48" class="edge"><title>Node33&#45;&gt;Node37</title>
<path fill="none" stroke="midnightblue" d="M1283.74,-392.017C1238.81,-381.864 1166.2,-365.459 1122.15,-355.507"/>
<polygon fill="midnightblue" stroke="midnightblue" points="1283.19,-395.48 1293.71,-394.27 1284.73,-388.652 1283.19,-395.48"/>
</g>
<!-- Node38 -->
<g id="node38" class="node"><title>Node38</title>
<g id="a_node38"><a xlink:href="../../d1/dde/BiQuad_8hpp.html" target="_top" xlink:title=" ">
<polygon fill="white" stroke="black" points="1505.5,-280.5 1505.5,-299.5 1573.5,-299.5 1573.5,-280.5 1505.5,-280.5"/>
<text text-anchor="middle" x="1539.5" y="-287.5" font-family="Helvetica,sans-Serif" font-size="10.00">BiQuad.hpp</text>
</a>
</g>
</g>
<!-- Node33&#45;&gt;Node38 -->
<g id="edge52" class="edge"><title>Node33&#45;&gt;Node38</title>
<path fill="none" stroke="midnightblue" d="M1363.45,-401.797C1405.55,-400.52 1471.49,-392.217 1513.5,-356 1530.62,-341.24 1536.59,-313.615 1538.57,-299.611"/>
<polygon fill="midnightblue" stroke="midnightblue" points="1363.22,-398.301 1353.28,-401.983 1363.35,-405.299 1363.22,-398.301"/>
</g>
<!-- Node39 -->
<g id="node39" class="node"><title>Node39</title>
<g id="a_node39"><a xlink:href="../../d2/d3b/FIRFilter_8hpp.html" target="_top" xlink:title=" ">
<polygon fill="white" stroke="black" points="1286.5,-336.5 1286.5,-355.5 1360.5,-355.5 1360.5,-336.5 1286.5,-336.5"/>
<text text-anchor="middle" x="1323.5" y="-343.5" font-family="Helvetica,sans-Serif" font-size="10.00">FIRFilter.hpp</text>
</a>
</g>
</g>
<!-- Node33&#45;&gt;Node39 -->
<g id="edge54" class="edge"><title>Node33&#45;&gt;Node39</title>
<path fill="none" stroke="midnightblue" d="M1323.5,-381.805C1323.5,-372.91 1323.5,-362.78 1323.5,-355.751"/>
<polygon fill="midnightblue" stroke="midnightblue" points="1320,-382.083 1323.5,-392.083 1327,-382.083 1320,-382.083"/>
</g>
<!-- Node40 -->
<g id="node40" class="node"><title>Node40</title>
<g id="a_node40"><a xlink:href="../../dc/d64/IIRFilter_8hpp.html" target="_top" xlink:title=" ">
<polygon fill="white" stroke="black" points="1278,-280.5 1278,-299.5 1349,-299.5 1349,-280.5 1278,-280.5"/>
<text text-anchor="middle" x="1313.5" y="-287.5" font-family="Helvetica,sans-Serif" font-size="10.00">IIRFilter.hpp</text>
</a>
</g>
</g>
<!-- Node33&#45;&gt;Node40 -->
<g id="edge55" class="edge"><title>Node33&#45;&gt;Node40</title>
<path fill="none" stroke="midnightblue" d="M1301.79,-386.066C1292.44,-378.308 1282.53,-367.947 1277.5,-356 1268.6,-334.835 1289.48,-311.677 1303.03,-299.531"/>
<polygon fill="midnightblue" stroke="midnightblue" points="1299.66,-388.845 1309.71,-392.189 1303.94,-383.306 1299.66,-388.845"/>
</g>
<!-- Node41 -->
<g id="node41" class="node"><title>Node41</title>
<g id="a_node41"><a xlink:href="../../d2/d03/TransferFunction_8hpp.html" target="_top" xlink:title=" ">
<polygon fill="white" stroke="black" points="1379,-336.5 1379,-355.5 1488,-355.5 1488,-336.5 1379,-336.5"/>
<text text-anchor="middle" x="1433.5" y="-343.5" font-family="Helvetica,sans-Serif" font-size="10.00">TransferFunction.hpp</text>
</a>
</g>
</g>
<!-- Node33&#45;&gt;Node41 -->
<g id="edge56" class="edge"><title>Node33&#45;&gt;Node41</title>
<path fill="none" stroke="midnightblue" d="M1350.26,-387.862C1370.66,-377.849 1398.17,-364.346 1415.87,-355.655"/>
<polygon fill="midnightblue" stroke="midnightblue" points="1348.61,-384.775 1341.17,-392.324 1351.69,-391.059 1348.61,-384.775"/>
</g>
<!-- Node34&#45;&gt;Node29 -->
<g id="edge44" class="edge"><title>Node34&#45;&gt;Node29</title>
<path fill="none" stroke="midnightblue" d="M1409.47,-276.906C1382.59,-266.754 1344.86,-252.506 1321.05,-243.516"/>
<polygon fill="midnightblue" stroke="midnightblue" points="1408.25,-280.185 1418.84,-280.444 1410.72,-273.636 1408.25,-280.185"/>
</g>
<!-- Node35 -->
<g id="node35" class="node"><title>Node35</title>
<g id="a_node35"><a xlink:href="../../df/ddc/SOSFilter_8hpp.html" target="_top" xlink:title=" ">
<polygon fill="white" stroke="black" points="1542.5,-224.5 1542.5,-243.5 1620.5,-243.5 1620.5,-224.5 1542.5,-224.5"/>
<text text-anchor="middle" x="1581.5" y="-231.5" font-family="Helvetica,sans-Serif" font-size="10.00">SOSFilter.hpp</text>
</a>
</g>
</g>
<!-- Node34&#45;&gt;Node35 -->
<g id="edge45" class="edge"><title>Node34&#45;&gt;Node35</title>
<path fill="none" stroke="midnightblue" d="M1473.2,-276.772C1499.5,-266.629 1536.22,-252.467 1559.42,-243.516"/>
<polygon fill="midnightblue" stroke="midnightblue" points="1471.75,-273.579 1463.68,-280.444 1474.27,-280.11 1471.75,-273.579"/>
</g>
<!-- Node36 -->
<g id="node36" class="node"><title>Node36</title>
<g id="a_node36"><a xlink:href="../../d4/d40/Butterworth_8hpp.html" target="_top" xlink:title=" ">
<polygon fill="white" stroke="black" points="1444.5,-168.5 1444.5,-187.5 1530.5,-187.5 1530.5,-168.5 1444.5,-168.5"/>
<text text-anchor="middle" x="1487.5" y="-175.5" font-family="Helvetica,sans-Serif" font-size="10.00">Butterworth.hpp</text>
</a>
</g>
</g>
<!-- Node35&#45;&gt;Node36 -->
<g id="edge46" class="edge"><title>Node35&#45;&gt;Node36</title>
<path fill="none" stroke="midnightblue" d="M1557.44,-219.177C1540.14,-209.241 1517.35,-196.149 1502.57,-187.655"/>
<polygon fill="midnightblue" stroke="midnightblue" points="1555.98,-222.378 1566.4,-224.324 1559.47,-216.308 1555.98,-222.378"/>
</g>
<!-- Node37&#45;&gt;Node5 -->
<g id="edge50" class="edge"><title>Node37&#45;&gt;Node5</title>
<path fill="none" stroke="midnightblue" d="M1098.61,-328.431C1106.68,-318.967 1116.46,-307.483 1123.05,-299.751"/>
<polygon fill="midnightblue" stroke="midnightblue" points="1095.92,-326.201 1092.1,-336.083 1101.25,-330.74 1095.92,-326.201"/>
</g>
<!-- Node37&#45;&gt;Node14 -->
<g id="edge49" class="edge"><title>Node37&#45;&gt;Node14</title>
<path fill="none" stroke="midnightblue" d="M1026.33,-334.67C936.886,-318.307 760.516,-284.134 613.5,-244 537.573,-223.273 497.588,-247.004 445.5,-188 431.486,-172.125 430.901,-145.491 431.681,-131.766"/>
<polygon fill="midnightblue" stroke="midnightblue" points="1025.81,-338.133 1036.27,-336.482 1027.06,-331.247 1025.81,-338.133"/>
</g>
<!-- Node37&#45;&gt;Node23 -->
<g id="edge51" class="edge"><title>Node37&#45;&gt;Node23</title>
<path fill="none" stroke="midnightblue" d="M1073.39,-327.84C1068.53,-319.679 1063.11,-309.621 1059.5,-300 1044.31,-259.571 1036.95,-208.035 1034.48,-187.757"/>
<polygon fill="midnightblue" stroke="midnightblue" points="1070.46,-329.759 1078.71,-336.409 1076.41,-326.067 1070.46,-329.759"/>
</g>
<!-- Node38&#45;&gt;Node35 -->
<g id="edge53" class="edge"><title>Node38&#45;&gt;Node35</title>
<path fill="none" stroke="midnightblue" d="M1552.61,-272.144C1559.93,-262.736 1568.74,-251.405 1574.69,-243.751"/>
<polygon fill="midnightblue" stroke="midnightblue" points="1549.81,-270.041 1546.44,-280.083 1555.34,-274.338 1549.81,-270.041"/>
</g>
<!-- Node41&#45;&gt;Node38 -->
<g id="edge57" class="edge"><title>Node41&#45;&gt;Node38</title>
<path fill="none" stroke="midnightblue" d="M1459.56,-331.726C1479.18,-321.727 1505.53,-308.307 1522.51,-299.655"/>
<polygon fill="midnightblue" stroke="midnightblue" points="1457.85,-328.666 1450.53,-336.324 1461.03,-334.903 1457.85,-328.666"/>
</g>
<!-- Node41&#45;&gt;Node40 -->
<g id="edge58" class="edge"><title>Node41&#45;&gt;Node40</title>
<path fill="none" stroke="midnightblue" d="M1405.13,-332.232C1382.68,-322.131 1351.96,-308.309 1332.43,-299.516"/>
<polygon fill="midnightblue" stroke="midnightblue" points="1403.93,-335.532 1414.49,-336.444 1406.8,-329.148 1403.93,-335.532"/>
</g>
<!-- Node42&#45;&gt;Node18 -->
<g id="edge61" class="edge"><title>Node42&#45;&gt;Node18</title>
<path fill="none" stroke="midnightblue" d="M1538.76,-168.067C1353.11,-142.612 1145.71,-130.613 1042.22,-125.742"/>
<polygon fill="midnightblue" stroke="midnightblue" points="1538.32,-171.539 1548.7,-169.446 1539.28,-164.605 1538.32,-171.539"/>
</g>
<!-- Node42&#45;&gt;Node21 -->
<g id="edge62" class="edge"><title>Node42&#45;&gt;Node21</title>
<path fill="none" stroke="midnightblue" d="M1564.07,-162.562C1541.06,-147.129 1501.97,-123.352 1464.5,-112 1386.64,-88.4088 1152.75,-74.951 1039.42,-69.6525"/>
<polygon fill="midnightblue" stroke="midnightblue" points="1562.39,-165.653 1572.62,-168.412 1566.34,-159.876 1562.39,-165.653"/>
</g>
<!-- Node42&#45;&gt;Node27 -->
<g id="edge60" class="edge"><title>Node42&#45;&gt;Node27</title>
<path fill="none" stroke="midnightblue" d="M1548.11,-165.304C1516.46,-155.129 1471.33,-140.625 1443,-131.516"/>
<polygon fill="midnightblue" stroke="midnightblue" points="1547.29,-168.715 1557.88,-168.444 1549.43,-162.051 1547.29,-168.715"/>
</g>
<!-- Node45&#45;&gt;Node2 -->
<g id="edge70" class="edge"><title>Node45&#45;&gt;Node2</title>
<path fill="none" stroke="midnightblue" d="M1043.62,-471.439C1068.03,-481.507 1099.52,-495.428 1117.85,-504.324"/>
<polygon fill="midnightblue" stroke="midnightblue" points="1044.9,-468.183 1034.32,-467.655 1042.27,-474.666 1044.9,-468.183"/>
</g>
<!-- Node45&#45;&gt;Node4 -->
<g id="edge69" class="edge"><title>Node45&#45;&gt;Node4</title>
<path fill="none" stroke="midnightblue" d="M1032.74,-442.901C1049.06,-432.999 1070.37,-420.071 1084.24,-411.655"/>
<polygon fill="midnightblue" stroke="midnightblue" points="1030.53,-440.144 1023.8,-448.324 1034.16,-446.129 1030.53,-440.144"/>
</g>
<!-- Node45&#45;&gt;Node7 -->
<g id="edge71" class="edge"><title>Node45&#45;&gt;Node7</title>
<path fill="none" stroke="midnightblue" d="M944.895,-451.979C788.912,-438.992 404.5,-401.462 404.5,-347 404.5,-347 404.5,-347 404.5,-289 404.5,-245.444 365.449,-204.732 346.534,-187.567"/>
<polygon fill="midnightblue" stroke="midnightblue" points="945.024,-455.501 955.278,-452.835 945.599,-448.525 945.024,-455.501"/>
</g>
<!-- Node45&#45;&gt;Node23 -->
<g id="edge75" class="edge"><title>Node45&#45;&gt;Node23</title>
<path fill="none" stroke="midnightblue" d="M1003.4,-438.599C993.531,-406.233 976.349,-337.129 988.5,-280 996.208,-243.762 1017.87,-204.758 1028.07,-187.756"/>
<polygon fill="midnightblue" stroke="midnightblue" points="1000.16,-439.964 1006.52,-448.435 1006.83,-437.845 1000.16,-439.964"/>
</g>
<!-- Node46 -->
<g id="node46" class="node"><title>Node46</title>
<g id="a_node46"><a xlink:href="../../d1/d1f/ShiftRegisterOutRGB_8hpp.html" target="_top" xlink:title=" ">
<polygon fill="white" stroke="black" points="806.5,-392.5 806.5,-411.5 936.5,-411.5 936.5,-392.5 806.5,-392.5"/>
<text text-anchor="middle" x="871.5" y="-399.5" font-family="Helvetica,sans-Serif" font-size="10.00">ShiftRegisterOutRGB.hpp</text>
</a>
</g>
</g>
<!-- Node45&#45;&gt;Node46 -->
<g id="edge72" class="edge"><title>Node45&#45;&gt;Node46</title>
<path fill="none" stroke="midnightblue" d="M978.251,-444.772C952.329,-434.629 916.138,-420.467 893.264,-411.516"/>
<polygon fill="midnightblue" stroke="midnightblue" points="977.046,-448.059 987.633,-448.444 979.596,-441.54 977.046,-448.059"/>
</g>
<!-- Node46&#45;&gt;Node17 -->
<g id="edge73" class="edge"><title>Node46&#45;&gt;Node17</title>
<path fill="none" stroke="midnightblue" d="M835.263,-388.154C820.831,-381.046 805.721,-370.622 797.5,-356 793.143,-348.252 794.918,-344.506 797.5,-336 817.027,-271.677 872.612,-209.695 893.984,-187.552"/>
<polygon fill="midnightblue" stroke="midnightblue" points="834.016,-391.431 844.571,-392.356 836.897,-385.051 834.016,-391.431"/>
</g>
<!-- Node47 -->
<g id="node47" class="node"><title>Node47</title>
<g id="a_node47"><a xlink:href="../../db/d0b/ShiftRegisterOutRGB_8cpp.html" target="_top" xlink:title=" ">
<polygon fill="white" stroke="black" points="806.5,-336.5 806.5,-355.5 936.5,-355.5 936.5,-336.5 806.5,-336.5"/>
<text text-anchor="middle" x="871.5" y="-343.5" font-family="Helvetica,sans-Serif" font-size="10.00">ShiftRegisterOutRGB.cpp</text>
</a>
</g>
</g>
<!-- Node46&#45;&gt;Node47 -->
<g id="edge74" class="edge"><title>Node46&#45;&gt;Node47</title>
<path fill="none" stroke="midnightblue" d="M871.5,-381.805C871.5,-372.91 871.5,-362.78 871.5,-355.751"/>
<polygon fill="midnightblue" stroke="midnightblue" points="868,-382.083 871.5,-392.083 875,-382.083 868,-382.083"/>
</g>
</g>
</svg>
