<?xml version="1.0" encoding="UTF-8" standalone="no"?>
<!DOCTYPE svg PUBLIC "-//W3C//DTD SVG 1.1//EN"
 "http://www.w3.org/Graphics/SVG/1.1/DTD/svg11.dtd">
<!-- Generated by graphviz version 2.38.0 (20140413.2041)
 -->
<!-- Title: DebugVal.hpp Pages: 1 -->
<svg width="1777pt" height="588pt"
 viewBox="0.00 0.00 1777.00 588.00" xmlns="http://www.w3.org/2000/svg" xmlns:xlink="http://www.w3.org/1999/xlink">
<g id="graph0" class="graph" transform="scale(1 1) rotate(0) translate(4 584)">
<title>DebugVal.hpp</title>
<polygon fill="white" stroke="none" points="-4,4 -4,-584 1773,-584 1773,4 -4,4"/>
<!-- Node1 -->
<g id="node1" class="node"><title>Node1</title>
<g id="a_node1"><a xlink:title=" ">
<polygon fill="#bfbfbf" stroke="black" points="955.5,-560.5 955.5,-579.5 1033.5,-579.5 1033.5,-560.5 955.5,-560.5"/>
<text text-anchor="middle" x="994.5" y="-567.5" font-family="Helvetica,sans-Serif" font-size="10.00">DebugVal.hpp</text>
</a>
</g>
</g>
<!-- Node2 -->
<g id="node2" class="node"><title>Node2</title>
<g id="a_node2"><a xlink:href="../../df/dee/Debug_8hpp.html" target="_top" xlink:title=" ">
<polygon fill="white" stroke="black" points="962.5,-504.5 962.5,-523.5 1026.5,-523.5 1026.5,-504.5 962.5,-504.5"/>
<text text-anchor="middle" x="994.5" y="-511.5" font-family="Helvetica,sans-Serif" font-size="10.00">Debug.hpp</text>
</a>
</g>
</g>
<!-- Node1&#45;&gt;Node2 -->
<g id="edge1" class="edge"><title>Node1&#45;&gt;Node2</title>
<path fill="none" stroke="midnightblue" d="M994.5,-549.805C994.5,-540.91 994.5,-530.78 994.5,-523.751"/>
<polygon fill="midnightblue" stroke="midnightblue" points="991,-550.083 994.5,-560.083 998,-550.083 991,-550.083"/>
</g>
<!-- Node3 -->
<g id="node3" class="node"><title>Node3</title>
<g id="a_node3"><a xlink:href="../../de/dd1/LinkedList_8hpp.html" target="_top" xlink:title=" ">
<polygon fill="white" stroke="black" points="954.5,-448.5 954.5,-467.5 1034.5,-467.5 1034.5,-448.5 954.5,-448.5"/>
<text text-anchor="middle" x="994.5" y="-455.5" font-family="Helvetica,sans-Serif" font-size="10.00">LinkedList.hpp</text>
</a>
</g>
</g>
<!-- Node2&#45;&gt;Node3 -->
<g id="edge2" class="edge"><title>Node2&#45;&gt;Node3</title>
<path fill="none" stroke="midnightblue" d="M994.5,-493.805C994.5,-484.91 994.5,-474.78 994.5,-467.751"/>
<polygon fill="midnightblue" stroke="midnightblue" points="991,-494.083 994.5,-504.083 998,-494.083 991,-494.083"/>
</g>
<!-- Node31 -->
<g id="node31" class="node"><title>Node31</title>
<g id="a_node31"><a xlink:href="../../df/d66/Debug_8cpp.html" target="_top" xlink:title=" ">
<polygon fill="white" stroke="black" points="1136.5,-448.5 1136.5,-467.5 1200.5,-467.5 1200.5,-448.5 1136.5,-448.5"/>
<text text-anchor="middle" x="1168.5" y="-455.5" font-family="Helvetica,sans-Serif" font-size="10.00">Debug.cpp</text>
</a>
</g>
</g>
<!-- Node2&#45;&gt;Node31 -->
<g id="edge40" class="edge"><title>Node2&#45;&gt;Node31</title>
<path fill="none" stroke="midnightblue" d="M1031.76,-501.436C1064.57,-491.255 1111.58,-476.664 1141.06,-467.516"/>
<polygon fill="midnightblue" stroke="midnightblue" points="1030.58,-498.137 1022.07,-504.444 1032.66,-504.822 1030.58,-498.137"/>
</g>
<!-- Node32 -->
<g id="node32" class="node"><title>Node32</title>
<g id="a_node32"><a xlink:href="../../d1/d93/Error_8hpp.html" target="_top" xlink:title=" ">
<polygon fill="white" stroke="black" points="1062.5,-448.5 1062.5,-467.5 1118.5,-467.5 1118.5,-448.5 1062.5,-448.5"/>
<text text-anchor="middle" x="1090.5" y="-455.5" font-family="Helvetica,sans-Serif" font-size="10.00">Error.hpp</text>
</a>
</g>
</g>
<!-- Node2&#45;&gt;Node32 -->
<g id="edge41" class="edge"><title>Node2&#45;&gt;Node32</title>
<path fill="none" stroke="midnightblue" d="M1019.07,-499.177C1036.74,-489.241 1060.01,-476.149 1075.11,-467.655"/>
<polygon fill="midnightblue" stroke="midnightblue" points="1016.92,-496.371 1009.92,-504.324 1020.36,-502.472 1016.92,-496.371"/>
</g>
<!-- Node44 -->
<g id="node44" class="node"><title>Node44</title>
<g id="a_node44"><a xlink:href="../../d2/dd5/SettingsWrapper_8hpp.html" target="_top" xlink:title=" ">
<polygon fill="white" stroke="black" points="828.5,-448.5 828.5,-467.5 936.5,-467.5 936.5,-448.5 828.5,-448.5"/>
<text text-anchor="middle" x="882.5" y="-455.5" font-family="Helvetica,sans-Serif" font-size="10.00">SettingsWrapper.hpp</text>
</a>
</g>
</g>
<!-- Node2&#45;&gt;Node44 -->
<g id="edge67" class="edge"><title>Node2&#45;&gt;Node44</title>
<path fill="none" stroke="midnightblue" d="M962.483,-500.368C940.054,-490.255 911.456,-476.349 895.084,-467.516"/>
<polygon fill="midnightblue" stroke="midnightblue" points="961.105,-503.585 971.665,-504.444 963.945,-497.187 961.105,-503.585"/>
</g>
<!-- Node4 -->
<g id="node4" class="node"><title>Node4</title>
<g id="a_node4"><a xlink:href="../../d4/d93/Updatable_8hpp.html" target="_top" xlink:title=" ">
<polygon fill="white" stroke="black" points="951.5,-392.5 951.5,-411.5 1031.5,-411.5 1031.5,-392.5 951.5,-392.5"/>
<text text-anchor="middle" x="991.5" y="-399.5" font-family="Helvetica,sans-Serif" font-size="10.00">Updatable.hpp</text>
</a>
</g>
</g>
<!-- Node3&#45;&gt;Node4 -->
<g id="edge3" class="edge"><title>Node3&#45;&gt;Node4</title>
<path fill="none" stroke="midnightblue" d="M993.434,-437.805C992.939,-428.91 992.377,-418.78 991.986,-411.751"/>
<polygon fill="midnightblue" stroke="midnightblue" points="989.955,-438.293 994.005,-448.083 996.944,-437.904 989.955,-438.293"/>
</g>
<!-- Node5 -->
<g id="node5" class="node"><title>Node5</title>
<g id="a_node5"><a xlink:href="../../d4/d57/ExtendedIOElement_8hpp.html" target="_top" xlink:title=" ">
<polygon fill="white" stroke="black" points="1126,-280.5 1126,-299.5 1249,-299.5 1249,-280.5 1126,-280.5"/>
<text text-anchor="middle" x="1187.5" y="-287.5" font-family="Helvetica,sans-Serif" font-size="10.00">ExtendedIOElement.hpp</text>
</a>
</g>
</g>
<!-- Node3&#45;&gt;Node5 -->
<g id="edge4" class="edge"><title>Node3&#45;&gt;Node5</title>
<path fill="none" stroke="midnightblue" d="M969.973,-442.774C951.122,-429.952 930.216,-410.35 942.5,-392 983.128,-331.306 1067.58,-307.048 1125.88,-297.376"/>
<polygon fill="midnightblue" stroke="midnightblue" points="968.327,-445.875 978.635,-448.323 972.103,-439.981 968.327,-445.875"/>
</g>
<!-- Node6 -->
<g id="node6" class="node"><title>Node6</title>
<g id="a_node6"><a xlink:href="../../dd/ddf/ExtendedInputOutput_8hpp.html" target="_top" xlink:title=" ">
<polygon fill="white" stroke="black" points="811.5,-224.5 811.5,-243.5 939.5,-243.5 939.5,-224.5 811.5,-224.5"/>
<text text-anchor="middle" x="875.5" y="-231.5" font-family="Helvetica,sans-Serif" font-size="10.00">ExtendedInputOutput.hpp</text>
</a>
</g>
</g>
<!-- Node5&#45;&gt;Node6 -->
<g id="edge5" class="edge"><title>Node5&#45;&gt;Node6</title>
<path fill="none" stroke="midnightblue" d="M1128.15,-278.727C1069.19,-268.523 979.837,-253.058 924.706,-243.516"/>
<polygon fill="midnightblue" stroke="midnightblue" points="1127.61,-282.187 1138.06,-280.444 1128.81,-275.289 1127.61,-282.187"/>
</g>
<!-- Node16 -->
<g id="node16" class="node"><title>Node16</title>
<g id="a_node16"><a xlink:href="../../d6/d3c/ExtendedInputOutput_8cpp.html" target="_top" xlink:title=" ">
<polygon fill="white" stroke="black" points="1125.5,-168.5 1125.5,-187.5 1253.5,-187.5 1253.5,-168.5 1125.5,-168.5"/>
<text text-anchor="middle" x="1189.5" y="-175.5" font-family="Helvetica,sans-Serif" font-size="10.00">ExtendedInputOutput.cpp</text>
</a>
</g>
</g>
<!-- Node5&#45;&gt;Node16 -->
<g id="edge38" class="edge"><title>Node5&#45;&gt;Node16</title>
<path fill="none" stroke="midnightblue" d="M1187.84,-270.348C1188.28,-246.254 1189.02,-205.308 1189.34,-187.591"/>
<polygon fill="midnightblue" stroke="midnightblue" points="1184.34,-270.306 1187.66,-280.368 1191.34,-270.434 1184.34,-270.306"/>
</g>
<!-- Node29 -->
<g id="node29" class="node"><title>Node29</title>
<g id="a_node29"><a xlink:href="../../d2/d05/StaticSizeExtendedIOElement_8hpp.html" target="_top" xlink:title=" ">
<polygon fill="white" stroke="black" points="1283.5,-224.5 1283.5,-243.5 1451.5,-243.5 1451.5,-224.5 1283.5,-224.5"/>
<text text-anchor="middle" x="1367.5" y="-231.5" font-family="Helvetica,sans-Serif" font-size="10.00">StaticSizeExtendedIOElement.hpp</text>
</a>
</g>
</g>
<!-- Node5&#45;&gt;Node29 -->
<g id="edge34" class="edge"><title>Node5&#45;&gt;Node29</title>
<path fill="none" stroke="midnightblue" d="M1225.61,-277.568C1259.56,-267.381 1308.49,-252.703 1339.11,-243.516"/>
<polygon fill="midnightblue" stroke="midnightblue" points="1224.59,-274.218 1216.02,-280.444 1226.61,-280.922 1224.59,-274.218"/>
</g>
<!-- Node30 -->
<g id="node30" class="node"><title>Node30</title>
<g id="a_node30"><a xlink:href="../../da/d1f/ExtendedIOElement_8cpp.html" target="_top" xlink:title=" ">
<polygon fill="white" stroke="black" points="1508,-224.5 1508,-243.5 1631,-243.5 1631,-224.5 1508,-224.5"/>
<text text-anchor="middle" x="1569.5" y="-231.5" font-family="Helvetica,sans-Serif" font-size="10.00">ExtendedIOElement.cpp</text>
</a>
</g>
</g>
<!-- Node5&#45;&gt;Node30 -->
<g id="edge39" class="edge"><title>Node5&#45;&gt;Node30</title>
<path fill="none" stroke="midnightblue" d="M1257.94,-279.042C1330.09,-268.843 1441.06,-253.157 1509.25,-243.516"/>
<polygon fill="midnightblue" stroke="midnightblue" points="1257.44,-275.578 1248.03,-280.444 1258.42,-282.509 1257.44,-275.578"/>
</g>
<!-- Node7 -->
<g id="node7" class="node"><title>Node7</title>
<g id="a_node7"><a xlink:href="../../d4/db3/Button_8hpp.html" target="_top" xlink:title=" ">
<polygon fill="white" stroke="black" points="283.5,-168.5 283.5,-187.5 347.5,-187.5 347.5,-168.5 283.5,-168.5"/>
<text text-anchor="middle" x="315.5" y="-175.5" font-family="Helvetica,sans-Serif" font-size="10.00">Button.hpp</text>
</a>
</g>
</g>
<!-- Node6&#45;&gt;Node7 -->
<g id="edge6" class="edge"><title>Node6&#45;&gt;Node7</title>
<path fill="none" stroke="midnightblue" d="M801.106,-227.137C704.671,-219.321 531.335,-204.537 383.5,-188 371.784,-186.689 358.96,-185.046 347.637,-183.524"/>
<polygon fill="midnightblue" stroke="midnightblue" points="801.087,-230.647 811.337,-227.963 801.651,-223.669 801.087,-230.647"/>
</g>
<!-- Node13 -->
<g id="node13" class="node"><title>Node13</title>
<g id="a_node13"><a xlink:href="../../d5/d41/ButtonMatrix_8ipp.html" target="_top" xlink:title=" ">
<polygon fill="white" stroke="black" points="903.5,-168.5 903.5,-187.5 991.5,-187.5 991.5,-168.5 903.5,-168.5"/>
<text text-anchor="middle" x="947.5" y="-175.5" font-family="Helvetica,sans-Serif" font-size="10.00">ButtonMatrix.ipp</text>
</a>
</g>
</g>
<!-- Node6&#45;&gt;Node13 -->
<g id="edge12" class="edge"><title>Node6&#45;&gt;Node13</title>
<path fill="none" stroke="midnightblue" d="M895.366,-218.101C908.323,-208.382 924.797,-196.027 935.721,-187.834"/>
<polygon fill="midnightblue" stroke="midnightblue" points="892.968,-215.524 887.068,-224.324 897.168,-221.124 892.968,-215.524"/>
</g>
<!-- Node15 -->
<g id="node15" class="node"><title>Node15</title>
<g id="a_node15"><a xlink:href="../../d7/def/AnalogMultiplex_8hpp.html" target="_top" xlink:title=" ">
<polygon fill="white" stroke="black" points="1271.5,-168.5 1271.5,-187.5 1375.5,-187.5 1375.5,-168.5 1271.5,-168.5"/>
<text text-anchor="middle" x="1323.5" y="-175.5" font-family="Helvetica,sans-Serif" font-size="10.00">AnalogMultiplex.hpp</text>
</a>
</g>
</g>
<!-- Node6&#45;&gt;Node15 -->
<g id="edge15" class="edge"><title>Node6&#45;&gt;Node15</title>
<path fill="none" stroke="midnightblue" d="M949.807,-225.045C1027.78,-216.538 1153.88,-202.325 1262.5,-188 1265.37,-187.622 1268.31,-187.224 1271.27,-186.814"/>
<polygon fill="midnightblue" stroke="midnightblue" points="949.164,-221.595 939.601,-226.156 949.921,-228.553 949.164,-221.595"/>
</g>
<!-- Node6&#45;&gt;Node16 -->
<g id="edge16" class="edge"><title>Node6&#45;&gt;Node16</title>
<path fill="none" stroke="midnightblue" d="M935.233,-222.727C994.57,-212.523 1084.49,-197.058 1139.98,-187.516"/>
<polygon fill="midnightblue" stroke="midnightblue" points="934.516,-219.299 925.254,-224.444 935.703,-226.198 934.516,-219.299"/>
</g>
<!-- Node17 -->
<g id="node17" class="node"><title>Node17</title>
<g id="a_node17"><a xlink:href="../../d5/d47/ShiftRegisterOutBase_8ipp.html" target="_top" xlink:title=" ">
<polygon fill="white" stroke="black" points="427.5,-168.5 427.5,-187.5 555.5,-187.5 555.5,-168.5 427.5,-168.5"/>
<text text-anchor="middle" x="491.5" y="-175.5" font-family="Helvetica,sans-Serif" font-size="10.00">ShiftRegisterOutBase.ipp</text>
</a>
</g>
</g>
<!-- Node6&#45;&gt;Node17 -->
<g id="edge17" class="edge"><title>Node6&#45;&gt;Node17</title>
<path fill="none" stroke="midnightblue" d="M804.688,-223.042C732.163,-212.843 620.616,-197.157 552.061,-187.516"/>
<polygon fill="midnightblue" stroke="midnightblue" points="804.264,-226.517 814.654,-224.444 805.239,-219.585 804.264,-226.517"/>
</g>
<!-- Node20 -->
<g id="node20" class="node"><title>Node20</title>
<g id="a_node20"><a xlink:href="../../de/d95/ShiftRegisterOut_8ipp.html" target="_top" xlink:title=" ">
<polygon fill="white" stroke="black" points="427,-0.5 427,-19.5 532,-19.5 532,-0.5 427,-0.5"/>
<text text-anchor="middle" x="479.5" y="-7.5" font-family="Helvetica,sans-Serif" font-size="10.00">ShiftRegisterOut.ipp</text>
</a>
</g>
</g>
<!-- Node6&#45;&gt;Node20 -->
<g id="edge26" class="edge"><title>Node6&#45;&gt;Node20</title>
<path fill="none" stroke="midnightblue" d="M801.26,-230.94C678.507,-226.773 444.151,-215.305 418.5,-188 410.896,-179.906 411.439,-65.8352 416.5,-56 425.295,-38.9095 443.922,-26.8711 458.653,-19.5733"/>
<polygon fill="midnightblue" stroke="midnightblue" points="801.231,-234.441 811.341,-231.274 801.463,-227.445 801.231,-234.441"/>
</g>
<!-- Node22 -->
<g id="node22" class="node"><title>Node22</title>
<g id="a_node22"><a xlink:href="../../da/d45/SPIShiftRegisterOut_8ipp.html" target="_top" xlink:title=" ">
<polygon fill="white" stroke="black" points="553.5,-0.5 553.5,-19.5 675.5,-19.5 675.5,-0.5 553.5,-0.5"/>
<text text-anchor="middle" x="614.5" y="-7.5" font-family="Helvetica,sans-Serif" font-size="10.00">SPIShiftRegisterOut.ipp</text>
</a>
</g>
</g>
<!-- Node6&#45;&gt;Node22 -->
<g id="edge27" class="edge"><title>Node6&#45;&gt;Node22</title>
<path fill="none" stroke="midnightblue" d="M876.131,-214.128C877.64,-199.569 882.061,-179.958 894.5,-168 944.004,-120.41 1081.06,-165.889 1038.5,-112 993.945,-55.5852 781.969,-27.276 675.631,-16.4289"/>
<polygon fill="midnightblue" stroke="midnightblue" points="872.615,-214.269 875.449,-224.477 879.599,-214.729 872.615,-214.269"/>
</g>
<!-- Node23 -->
<g id="node23" class="node"><title>Node23</title>
<g id="a_node23"><a xlink:href="../../d8/df3/FilteredAnalog_8hpp.html" target="_top" xlink:title=" ">
<polygon fill="white" stroke="black" points="1009.5,-168.5 1009.5,-187.5 1107.5,-187.5 1107.5,-168.5 1009.5,-168.5"/>
<text text-anchor="middle" x="1058.5" y="-175.5" font-family="Helvetica,sans-Serif" font-size="10.00">FilteredAnalog.hpp</text>
</a>
</g>
</g>
<!-- Node6&#45;&gt;Node23 -->
<g id="edge28" class="edge"><title>Node6&#45;&gt;Node23</title>
<path fill="none" stroke="midnightblue" d="M914.243,-221.568C948.765,-211.381 998.505,-196.703 1029.64,-187.516"/>
<polygon fill="midnightblue" stroke="midnightblue" points="913.097,-218.256 904.497,-224.444 915.079,-224.97 913.097,-218.256"/>
</g>
<!-- Node24 -->
<g id="node24" class="node"><title>Node24</title>
<g id="a_node24"><a xlink:href="../../d9/d4f/LEDs_8hpp.html" target="_top" xlink:title=" ">
<polygon fill="white" stroke="black" points="787.5,-168.5 787.5,-187.5 847.5,-187.5 847.5,-168.5 787.5,-168.5"/>
<text text-anchor="middle" x="817.5" y="-175.5" font-family="Helvetica,sans-Serif" font-size="10.00">LEDs.hpp</text>
</a>
</g>
</g>
<!-- Node6&#45;&gt;Node24 -->
<g id="edge29" class="edge"><title>Node6&#45;&gt;Node24</title>
<path fill="none" stroke="midnightblue" d="M858.587,-217.253C848.297,-207.673 835.534,-195.791 826.988,-187.834"/>
<polygon fill="midnightblue" stroke="midnightblue" points="856.477,-220.071 866.181,-224.324 861.247,-214.948 856.477,-220.071"/>
</g>
<!-- Node26 -->
<g id="node26" class="node"><title>Node26</title>
<g id="a_node26"><a xlink:href="../../d7/d13/MAX7219__Base_8hpp.html" target="_top" xlink:title=" ">
<polygon fill="white" stroke="black" points="663.5,-168.5 663.5,-187.5 769.5,-187.5 769.5,-168.5 663.5,-168.5"/>
<text text-anchor="middle" x="716.5" y="-175.5" font-family="Helvetica,sans-Serif" font-size="10.00">MAX7219_Base.hpp</text>
</a>
</g>
</g>
<!-- Node6&#45;&gt;Node26 -->
<g id="edge31" class="edge"><title>Node6&#45;&gt;Node26</title>
<path fill="none" stroke="midnightblue" d="M840.673,-221.172C810.734,-211.004 768.279,-196.585 741.576,-187.516"/>
<polygon fill="midnightblue" stroke="midnightblue" points="839.712,-224.542 850.306,-224.444 841.963,-217.914 839.712,-224.542"/>
</g>
<!-- Node8 -->
<g id="node8" class="node"><title>Node8</title>
<g id="a_node8"><a xlink:href="../../de/dd1/Button_8cpp.html" target="_top" xlink:title=" ">
<polygon fill="white" stroke="black" points="179.5,-112.5 179.5,-131.5 243.5,-131.5 243.5,-112.5 179.5,-112.5"/>
<text text-anchor="middle" x="211.5" y="-119.5" font-family="Helvetica,sans-Serif" font-size="10.00">Button.cpp</text>
</a>
</g>
</g>
<!-- Node7&#45;&gt;Node8 -->
<g id="edge7" class="edge"><title>Node7&#45;&gt;Node8</title>
<path fill="none" stroke="midnightblue" d="M289.672,-163.59C270.443,-153.605 244.755,-140.267 228.168,-131.655"/>
<polygon fill="midnightblue" stroke="midnightblue" points="288.303,-166.822 298.791,-168.324 291.529,-160.61 288.303,-166.822"/>
</g>
<!-- Node9 -->
<g id="node9" class="node"><title>Node9</title>
<g id="a_node9"><a xlink:href="../../d5/d04/IncrementButton_8hpp.html" target="_top" xlink:title=" ">
<polygon fill="white" stroke="black" points="262,-112.5 262,-131.5 369,-131.5 369,-112.5 262,-112.5"/>
<text text-anchor="middle" x="315.5" y="-119.5" font-family="Helvetica,sans-Serif" font-size="10.00">IncrementButton.hpp</text>
</a>
</g>
</g>
<!-- Node7&#45;&gt;Node9 -->
<g id="edge8" class="edge"><title>Node7&#45;&gt;Node9</title>
<path fill="none" stroke="midnightblue" d="M315.5,-157.805C315.5,-148.91 315.5,-138.78 315.5,-131.751"/>
<polygon fill="midnightblue" stroke="midnightblue" points="312,-158.083 315.5,-168.083 319,-158.083 312,-158.083"/>
</g>
<!-- Node11 -->
<g id="node11" class="node"><title>Node11</title>
<g id="a_node11"><a xlink:href="../../df/df5/IncrementDecrementButtons_8hpp.html" target="_top" xlink:title=" ">
<polygon fill="white" stroke="black" points="0,-112.5 0,-131.5 161,-131.5 161,-112.5 0,-112.5"/>
<text text-anchor="middle" x="80.5" y="-119.5" font-family="Helvetica,sans-Serif" font-size="10.00">IncrementDecrementButtons.hpp</text>
</a>
</g>
</g>
<!-- Node7&#45;&gt;Node11 -->
<g id="edge10" class="edge"><title>Node7&#45;&gt;Node11</title>
<path fill="none" stroke="midnightblue" d="M273.443,-167.336C229.153,-157.158 160.084,-141.287 117.712,-131.551"/>
<polygon fill="midnightblue" stroke="midnightblue" points="272.787,-170.776 283.317,-169.605 274.355,-163.954 272.787,-170.776"/>
</g>
<!-- Node10 -->
<g id="node10" class="node"><title>Node10</title>
<g id="a_node10"><a xlink:href="../../db/d9d/IncrementButton_8cpp.html" target="_top" xlink:title=" ">
<polygon fill="white" stroke="black" points="262,-56.5 262,-75.5 369,-75.5 369,-56.5 262,-56.5"/>
<text text-anchor="middle" x="315.5" y="-63.5" font-family="Helvetica,sans-Serif" font-size="10.00">IncrementButton.cpp</text>
</a>
</g>
</g>
<!-- Node9&#45;&gt;Node10 -->
<g id="edge9" class="edge"><title>Node9&#45;&gt;Node10</title>
<path fill="none" stroke="midnightblue" d="M315.5,-101.805C315.5,-92.9102 315.5,-82.7798 315.5,-75.7511"/>
<polygon fill="midnightblue" stroke="midnightblue" points="312,-102.083 315.5,-112.083 319,-102.083 312,-102.083"/>
</g>
<!-- Node12 -->
<g id="node12" class="node"><title>Node12</title>
<g id="a_node12"><a xlink:href="../../da/d66/IncrementDecrementButtons_8cpp.html" target="_top" xlink:title=" ">
<polygon fill="white" stroke="black" points="0,-56.5 0,-75.5 161,-75.5 161,-56.5 0,-56.5"/>
<text text-anchor="middle" x="80.5" y="-63.5" font-family="Helvetica,sans-Serif" font-size="10.00">IncrementDecrementButtons.cpp</text>
</a>
</g>
</g>
<!-- Node11&#45;&gt;Node12 -->
<g id="edge11" class="edge"><title>Node11&#45;&gt;Node12</title>
<path fill="none" stroke="midnightblue" d="M80.5,-101.805C80.5,-92.9102 80.5,-82.7798 80.5,-75.7511"/>
<polygon fill="midnightblue" stroke="midnightblue" points="77.0001,-102.083 80.5,-112.083 84.0001,-102.083 77.0001,-102.083"/>
</g>
<!-- Node14 -->
<g id="node14" class="node"><title>Node14</title>
<g id="a_node14"><a xlink:href="../../d9/d4b/ButtonMatrix_8hpp.html" target="_top" xlink:title=" ">
<polygon fill="white" stroke="black" points="1086,-112.5 1086,-131.5 1177,-131.5 1177,-112.5 1086,-112.5"/>
<text text-anchor="middle" x="1131.5" y="-119.5" font-family="Helvetica,sans-Serif" font-size="10.00">ButtonMatrix.hpp</text>
</a>
</g>
</g>
<!-- Node13&#45;&gt;Node14 -->
<g id="edge13" class="edge"><title>Node13&#45;&gt;Node14</title>
<path fill="none" stroke="midnightblue" d="M981.248,-165.436C1014.31,-155.255 1064.22,-140.664 1097.4,-131.516"/>
<polygon fill="midnightblue" stroke="midnightblue" points="980.078,-162.135 971.567,-168.444 982.155,-168.82 980.078,-162.135"/>
</g>
<!-- Node14&#45;&gt;Node13 -->
<g id="edge14" class="edge"><title>Node14&#45;&gt;Node13</title>
<path fill="none" stroke="midnightblue" d="M1097.9,-134.519C1064.89,-144.688 1014.98,-159.28 981.744,-168.444"/>
<polygon fill="midnightblue" stroke="midnightblue" points="1099.05,-137.826 1107.56,-131.516 1096.97,-131.141 1099.05,-137.826"/>
</g>
<!-- Node18 -->
<g id="node18" class="node"><title>Node18</title>
<g id="a_node18"><a xlink:href="../../d8/d93/ShiftRegisterOutBase_8hpp.html" target="_top" xlink:title=" ">
<polygon fill="white" stroke="black" points="426,-112.5 426,-131.5 557,-131.5 557,-112.5 426,-112.5"/>
<text text-anchor="middle" x="491.5" y="-119.5" font-family="Helvetica,sans-Serif" font-size="10.00">ShiftRegisterOutBase.hpp</text>
</a>
</g>
</g>
<!-- Node17&#45;&gt;Node18 -->
<g id="edge18" class="edge"><title>Node17&#45;&gt;Node18</title>
<path fill="none" stroke="midnightblue" d="M485.028,-158.101C484.396,-149.136 484.843,-138.858 486.369,-131.751"/>
<polygon fill="midnightblue" stroke="midnightblue" points="481.566,-158.622 486.334,-168.083 488.507,-157.713 481.566,-158.622"/>
</g>
<!-- Node18&#45;&gt;Node17 -->
<g id="edge22" class="edge"><title>Node18&#45;&gt;Node17</title>
<path fill="none" stroke="midnightblue" d="M497.958,-141.691C498.606,-150.635 498.176,-160.927 496.666,-168.083"/>
<polygon fill="midnightblue" stroke="midnightblue" points="501.423,-141.2 496.631,-131.751 494.485,-142.126 501.423,-141.2"/>
</g>
<!-- Node19 -->
<g id="node19" class="node"><title>Node19</title>
<g id="a_node19"><a xlink:href="../../d0/db4/ShiftRegisterOut_8hpp.html" target="_top" xlink:title=" ">
<polygon fill="white" stroke="black" points="425.5,-56.5 425.5,-75.5 533.5,-75.5 533.5,-56.5 425.5,-56.5"/>
<text text-anchor="middle" x="479.5" y="-63.5" font-family="Helvetica,sans-Serif" font-size="10.00">ShiftRegisterOut.hpp</text>
</a>
</g>
</g>
<!-- Node18&#45;&gt;Node19 -->
<g id="edge19" class="edge"><title>Node18&#45;&gt;Node19</title>
<path fill="none" stroke="midnightblue" d="M487.3,-102.101C485.308,-93.1357 483.024,-82.8579 481.445,-75.7511"/>
<polygon fill="midnightblue" stroke="midnightblue" points="483.932,-103.08 489.518,-112.083 490.766,-101.562 483.932,-103.08"/>
</g>
<!-- Node21 -->
<g id="node21" class="node"><title>Node21</title>
<g id="a_node21"><a xlink:href="../../d7/d88/SPIShiftRegisterOut_8hpp.html" target="_top" xlink:title=" ">
<polygon fill="white" stroke="black" points="552,-56.5 552,-75.5 677,-75.5 677,-56.5 552,-56.5"/>
<text text-anchor="middle" x="614.5" y="-63.5" font-family="Helvetica,sans-Serif" font-size="10.00">SPIShiftRegisterOut.hpp</text>
</a>
</g>
</g>
<!-- Node18&#45;&gt;Node21 -->
<g id="edge23" class="edge"><title>Node18&#45;&gt;Node21</title>
<path fill="none" stroke="midnightblue" d="M520.273,-108.368C543.307,-98.2553 574.984,-84.3486 595.101,-75.5164"/>
<polygon fill="midnightblue" stroke="midnightblue" points="518.739,-105.219 510.99,-112.444 521.553,-111.628 518.739,-105.219"/>
</g>
<!-- Node19&#45;&gt;Node20 -->
<g id="edge20" class="edge"><title>Node19&#45;&gt;Node20</title>
<path fill="none" stroke="midnightblue" d="M473.028,-46.1005C472.396,-37.1357 472.843,-26.8579 474.369,-19.7511"/>
<polygon fill="midnightblue" stroke="midnightblue" points="469.566,-46.6216 474.334,-56.083 476.507,-45.7134 469.566,-46.6216"/>
</g>
<!-- Node20&#45;&gt;Node19 -->
<g id="edge21" class="edge"><title>Node20&#45;&gt;Node19</title>
<path fill="none" stroke="midnightblue" d="M485.958,-29.6911C486.606,-38.6353 486.176,-48.9272 484.666,-56.083"/>
<polygon fill="midnightblue" stroke="midnightblue" points="489.423,-29.2002 484.631,-19.7511 482.485,-30.1262 489.423,-29.2002"/>
</g>
<!-- Node21&#45;&gt;Node22 -->
<g id="edge24" class="edge"><title>Node21&#45;&gt;Node22</title>
<path fill="none" stroke="midnightblue" d="M608.028,-46.1005C607.396,-37.1357 607.843,-26.8579 609.369,-19.7511"/>
<polygon fill="midnightblue" stroke="midnightblue" points="604.566,-46.6216 609.334,-56.083 611.507,-45.7134 604.566,-46.6216"/>
</g>
<!-- Node22&#45;&gt;Node21 -->
<g id="edge25" class="edge"><title>Node22&#45;&gt;Node21</title>
<path fill="none" stroke="midnightblue" d="M620.958,-29.6911C621.606,-38.6353 621.176,-48.9272 619.666,-56.083"/>
<polygon fill="midnightblue" stroke="midnightblue" points="624.423,-29.2002 619.631,-19.7511 617.485,-30.1262 624.423,-29.2002"/>
</g>
<!-- Node25 -->
<g id="node25" class="node"><title>Node25</title>
<g id="a_node25"><a xlink:href="../../d6/d3a/DotBarDisplayLEDs_8hpp.html" target="_top" xlink:title=" ">
<polygon fill="white" stroke="black" points="905.5,-112.5 905.5,-131.5 1029.5,-131.5 1029.5,-112.5 905.5,-112.5"/>
<text text-anchor="middle" x="967.5" y="-119.5" font-family="Helvetica,sans-Serif" font-size="10.00">DotBarDisplayLEDs.hpp</text>
</a>
</g>
</g>
<!-- Node24&#45;&gt;Node25 -->
<g id="edge30" class="edge"><title>Node24&#45;&gt;Node25</title>
<path fill="none" stroke="midnightblue" d="M850.725,-165.039C878.948,-154.879 918.762,-140.546 943.843,-131.516"/>
<polygon fill="midnightblue" stroke="midnightblue" points="849.491,-161.763 841.268,-168.444 851.862,-168.349 849.491,-161.763"/>
</g>
<!-- Node27 -->
<g id="node27" class="node"><title>Node27</title>
<g id="a_node27"><a xlink:href="../../d2/d25/MAX7219_8hpp.html" target="_top" xlink:title=" ">
<polygon fill="white" stroke="black" points="613.5,-112.5 613.5,-131.5 691.5,-131.5 691.5,-112.5 613.5,-112.5"/>
<text text-anchor="middle" x="652.5" y="-119.5" font-family="Helvetica,sans-Serif" font-size="10.00">MAX7219.hpp</text>
</a>
</g>
</g>
<!-- Node26&#45;&gt;Node27 -->
<g id="edge32" class="edge"><title>Node26&#45;&gt;Node27</title>
<path fill="none" stroke="midnightblue" d="M698.509,-161.82C687.042,-152.145 672.587,-139.948 662.97,-131.834"/>
<polygon fill="midnightblue" stroke="midnightblue" points="696.317,-164.55 706.217,-168.324 700.831,-159.2 696.317,-164.55"/>
</g>
<!-- Node28 -->
<g id="node28" class="node"><title>Node28</title>
<g id="a_node28"><a xlink:href="../../d5/d0c/MAX7219SevenSegmentDisplay_8hpp.html" target="_top" xlink:title=" ">
<polygon fill="white" stroke="black" points="709.5,-112.5 709.5,-131.5 887.5,-131.5 887.5,-112.5 709.5,-112.5"/>
<text text-anchor="middle" x="798.5" y="-119.5" font-family="Helvetica,sans-Serif" font-size="10.00">MAX7219SevenSegmentDisplay.hpp</text>
</a>
</g>
</g>
<!-- Node26&#45;&gt;Node28 -->
<g id="edge33" class="edge"><title>Node26&#45;&gt;Node28</title>
<path fill="none" stroke="midnightblue" d="M738.333,-162.622C753.313,-152.757 772.697,-139.992 785.358,-131.655"/>
<polygon fill="midnightblue" stroke="midnightblue" points="736.101,-159.901 729.675,-168.324 739.951,-165.747 736.101,-159.901"/>
</g>
<!-- Node29&#45;&gt;Node15 -->
<g id="edge35" class="edge"><title>Node29&#45;&gt;Node15</title>
<path fill="none" stroke="midnightblue" d="M1353.77,-216.144C1346.1,-206.736 1336.87,-195.405 1330.63,-187.751"/>
<polygon fill="midnightblue" stroke="midnightblue" points="1351.2,-218.541 1360.23,-224.083 1356.63,-214.12 1351.2,-218.541"/>
</g>
<!-- Node29&#45;&gt;Node18 -->
<g id="edge37" class="edge"><title>Node29&#45;&gt;Node18</title>
<path fill="none" stroke="midnightblue" d="M1379.88,-215.576C1388.57,-201.047 1396.66,-180.733 1384.5,-168 1354.54,-136.627 647.794,-134.722 604.5,-132 589.18,-131.037 572.705,-129.825 557.201,-128.605"/>
<polygon fill="midnightblue" stroke="midnightblue" points="1376.82,-213.862 1374.3,-224.151 1382.69,-217.684 1376.82,-213.862"/>
</g>
<!-- Node29&#45;&gt;Node27 -->
<g id="edge36" class="edge"><title>Node29&#45;&gt;Node27</title>
<path fill="none" stroke="midnightblue" d="M1390.81,-218.797C1410.42,-205.152 1432.97,-184.266 1417.5,-168 1390.01,-139.1 740.107,-136.686 700.5,-132 697.637,-131.661 694.688,-131.254 691.726,-130.802"/>
<polygon fill="midnightblue" stroke="midnightblue" points="1388.84,-215.903 1382.43,-224.34 1392.7,-221.741 1388.84,-215.903"/>
</g>
<!-- Node32&#45;&gt;Node4 -->
<g id="edge63" class="edge"><title>Node32&#45;&gt;Node4</title>
<path fill="none" stroke="midnightblue" d="M1065.66,-443.453C1047.39,-433.483 1023.08,-420.228 1007.37,-411.655"/>
<polygon fill="midnightblue" stroke="midnightblue" points="1064.14,-446.608 1074.59,-448.324 1067.49,-440.463 1064.14,-446.608"/>
</g>
<!-- Node32&#45;&gt;Node16 -->
<g id="edge65" class="edge"><title>Node32&#45;&gt;Node16</title>
<path fill="none" stroke="midnightblue" d="M1092.42,-438.274C1094.49,-416.402 1097.5,-379.117 1097.5,-347 1097.5,-347 1097.5,-347 1097.5,-289 1097.5,-241.697 1148.18,-204.017 1174.31,-187.732"/>
<polygon fill="midnightblue" stroke="midnightblue" points="1088.91,-438.159 1091.42,-448.454 1095.88,-438.846 1088.91,-438.159"/>
</g>
<!-- Node32&#45;&gt;Node30 -->
<g id="edge66" class="edge"><title>Node32&#45;&gt;Node30</title>
<path fill="none" stroke="midnightblue" d="M1128.81,-447.996C1361.51,-408.331 1473.86,-508.919 1647.5,-356 1673.8,-332.839 1687.47,-309.464 1668.5,-280 1656.29,-261.031 1633.9,-249.966 1613.51,-243.559"/>
<polygon fill="midnightblue" stroke="midnightblue" points="1127.94,-444.595 1118.71,-449.793 1129.17,-451.487 1127.94,-444.595"/>
</g>
<!-- Node33 -->
<g id="node33" class="node"><title>Node33</title>
<g id="a_node33"><a xlink:href="../../de/d76/Array_8hpp.html" target="_top" xlink:title=" ">
<polygon fill="white" stroke="black" points="1343,-392.5 1343,-411.5 1402,-411.5 1402,-392.5 1343,-392.5"/>
<text text-anchor="middle" x="1372.5" y="-399.5" font-family="Helvetica,sans-Serif" font-size="10.00">Array.hpp</text>
</a>
</g>
</g>
<!-- Node32&#45;&gt;Node33 -->
<g id="edge42" class="edge"><title>Node32&#45;&gt;Node33</title>
<path fill="none" stroke="midnightblue" d="M1128.61,-447.857C1211.84,-430.293 1298.59,-415.296 1342.98,-407.864"/>
<polygon fill="midnightblue" stroke="midnightblue" points="1127.8,-444.451 1118.74,-449.954 1129.25,-451.298 1127.8,-444.451"/>
</g>
<!-- Node42 -->
<g id="node42" class="node"><title>Node42</title>
<g id="a_node42"><a xlink:href="../../d1/d40/BitArray_8hpp.html" target="_top" xlink:title=" ">
<polygon fill="white" stroke="black" points="574,-168.5 574,-187.5 645,-187.5 645,-168.5 574,-168.5"/>
<text text-anchor="middle" x="609.5" y="-175.5" font-family="Helvetica,sans-Serif" font-size="10.00">BitArray.hpp</text>
</a>
</g>
</g>
<!-- Node32&#45;&gt;Node42 -->
<g id="edge59" class="edge"><title>Node32&#45;&gt;Node42</title>
<path fill="none" stroke="midnightblue" d="M1080.28,-439.621C1071.24,-425.4 1056.96,-405.5 1040.5,-392 907.248,-282.682 708.531,-211.132 636.665,-187.55"/>
<polygon fill="midnightblue" stroke="midnightblue" points="1077.46,-441.71 1085.67,-448.41 1083.43,-438.054 1077.46,-441.71"/>
</g>
<!-- Node43 -->
<g id="node43" class="node"><title>Node43</title>
<g id="a_node43"><a xlink:href="../../d6/df4/Exit_8cpp.html" target="_top" xlink:title=" ">
<polygon fill="white" stroke="black" points="1716,-392.5 1716,-411.5 1769,-411.5 1769,-392.5 1716,-392.5"/>
<text text-anchor="middle" x="1742.5" y="-399.5" font-family="Helvetica,sans-Serif" font-size="10.00">Exit.cpp</text>
</a>
</g>
</g>
<!-- Node32&#45;&gt;Node43 -->
<g id="edge64" class="edge"><title>Node32&#45;&gt;Node43</title>
<path fill="none" stroke="midnightblue" d="M1128.92,-448.064C1382.05,-410.63 1451.7,-447.039 1701.5,-412 1706.12,-411.352 1710.99,-410.466 1715.7,-409.5"/>
<polygon fill="midnightblue" stroke="midnightblue" points="1128.05,-444.656 1118.68,-449.604 1129.09,-451.578 1128.05,-444.656"/>
</g>
<!-- Node33&#45;&gt;Node15 -->
<g id="edge47" class="edge"><title>Node33&#45;&gt;Node15</title>
<path fill="none" stroke="midnightblue" d="M1357.84,-384.647C1334.75,-357.676 1290.87,-301.138 1274.5,-244 1272.05,-235.455 1270.92,-232.138 1274.5,-224 1281.47,-208.138 1297.09,-195.415 1308.84,-187.598"/>
<polygon fill="midnightblue" stroke="midnightblue" points="1355.33,-387.096 1364.54,-392.329 1360.6,-382.493 1355.33,-387.096"/>
</g>
<!-- Node34 -->
<g id="node34" class="node"><title>Node34</title>
<g id="a_node34"><a xlink:href="../../d5/db6/ArrayHelpers_8hpp.html" target="_top" xlink:title=" ">
<polygon fill="white" stroke="black" points="1343.5,-280.5 1343.5,-299.5 1435.5,-299.5 1435.5,-280.5 1343.5,-280.5"/>
<text text-anchor="middle" x="1389.5" y="-287.5" font-family="Helvetica,sans-Serif" font-size="10.00">ArrayHelpers.hpp</text>
</a>
</g>
</g>
<!-- Node33&#45;&gt;Node34 -->
<g id="edge43" class="edge"><title>Node33&#45;&gt;Node34</title>
<path fill="none" stroke="midnightblue" d="M1373.04,-382.022C1373.64,-368.998 1374.88,-351.361 1377.5,-336 1379.7,-323.087 1383.92,-308.497 1386.72,-299.523"/>
<polygon fill="midnightblue" stroke="midnightblue" points="1369.54,-381.983 1372.67,-392.106 1376.53,-382.242 1369.54,-381.983"/>
</g>
<!-- Node37 -->
<g id="node37" class="node"><title>Node37</title>
<g id="a_node37"><a xlink:href="../../d4/d35/Hardware-Types_8hpp.html" target="_top" xlink:title=" ">
<polygon fill="white" stroke="black" points="1157,-336.5 1157,-355.5 1264,-355.5 1264,-336.5 1157,-336.5"/>
<text text-anchor="middle" x="1210.5" y="-343.5" font-family="Helvetica,sans-Serif" font-size="10.00">Hardware&#45;Types.hpp</text>
</a>
</g>
</g>
<!-- Node33&#45;&gt;Node37 -->
<g id="edge48" class="edge"><title>Node33&#45;&gt;Node37</title>
<path fill="none" stroke="midnightblue" d="M1337.02,-389.172C1306.51,-379.004 1263.26,-364.585 1236.05,-355.516"/>
<polygon fill="midnightblue" stroke="midnightblue" points="1336.24,-392.602 1346.83,-392.444 1338.45,-385.961 1336.24,-392.602"/>
</g>
<!-- Node38 -->
<g id="node38" class="node"><title>Node38</title>
<g id="a_node38"><a xlink:href="../../d1/dde/BiQuad_8hpp.html" target="_top" xlink:title=" ">
<polygon fill="white" stroke="black" points="1591.5,-280.5 1591.5,-299.5 1659.5,-299.5 1659.5,-280.5 1591.5,-280.5"/>
<text text-anchor="middle" x="1625.5" y="-287.5" font-family="Helvetica,sans-Serif" font-size="10.00">BiQuad.hpp</text>
</a>
</g>
</g>
<!-- Node33&#45;&gt;Node38 -->
<g id="edge52" class="edge"><title>Node33&#45;&gt;Node38</title>
<path fill="none" stroke="midnightblue" d="M1412.42,-400.026C1477.57,-397.5 1602.24,-388.442 1629.5,-356 1642.88,-340.072 1634.96,-313.461 1629.45,-299.753"/>
<polygon fill="midnightblue" stroke="midnightblue" points="1411.99,-396.539 1402.12,-400.39 1412.24,-403.534 1411.99,-396.539"/>
</g>
<!-- Node39 -->
<g id="node39" class="node"><title>Node39</title>
<g id="a_node39"><a xlink:href="../../d2/d3b/FIRFilter_8hpp.html" target="_top" xlink:title=" ">
<polygon fill="white" stroke="black" points="1419.5,-336.5 1419.5,-355.5 1493.5,-355.5 1493.5,-336.5 1419.5,-336.5"/>
<text text-anchor="middle" x="1456.5" y="-343.5" font-family="Helvetica,sans-Serif" font-size="10.00">FIRFilter.hpp</text>
</a>
</g>
</g>
<!-- Node33&#45;&gt;Node39 -->
<g id="edge54" class="edge"><title>Node33&#45;&gt;Node39</title>
<path fill="none" stroke="midnightblue" d="M1394.43,-386.901C1409.84,-376.999 1429.95,-364.071 1443.04,-355.655"/>
<polygon fill="midnightblue" stroke="midnightblue" points="1392.52,-383.972 1386,-392.324 1396.3,-389.86 1392.52,-383.972"/>
</g>
<!-- Node40 -->
<g id="node40" class="node"><title>Node40</title>
<g id="a_node40"><a xlink:href="../../dc/d64/IIRFilter_8hpp.html" target="_top" xlink:title=" ">
<polygon fill="white" stroke="black" points="1478,-280.5 1478,-299.5 1549,-299.5 1549,-280.5 1478,-280.5"/>
<text text-anchor="middle" x="1513.5" y="-287.5" font-family="Helvetica,sans-Serif" font-size="10.00">IIRFilter.hpp</text>
</a>
</g>
</g>
<!-- Node33&#45;&gt;Node40 -->
<g id="edge55" class="edge"><title>Node33&#45;&gt;Node40</title>
<path fill="none" stroke="midnightblue" d="M1379.36,-382.937C1385.59,-368.588 1396.04,-348.861 1410.5,-336 1430.48,-318.235 1458.57,-306.596 1480.37,-299.615"/>
<polygon fill="midnightblue" stroke="midnightblue" points="1376.09,-381.678 1375.56,-392.26 1382.57,-384.317 1376.09,-381.678"/>
</g>
<!-- Node41 -->
<g id="node41" class="node"><title>Node41</title>
<g id="a_node41"><a xlink:href="../../d2/d03/TransferFunction_8hpp.html" target="_top" xlink:title=" ">
<polygon fill="white" stroke="black" points="1512,-336.5 1512,-355.5 1621,-355.5 1621,-336.5 1512,-336.5"/>
<text text-anchor="middle" x="1566.5" y="-343.5" font-family="Helvetica,sans-Serif" font-size="10.00">TransferFunction.hpp</text>
</a>
</g>
</g>
<!-- Node33&#45;&gt;Node41 -->
<g id="edge56" class="edge"><title>Node33&#45;&gt;Node41</title>
<path fill="none" stroke="midnightblue" d="M1412.24,-389.937C1448.9,-379.735 1502.53,-364.805 1535.94,-355.507"/>
<polygon fill="midnightblue" stroke="midnightblue" points="1411.08,-386.627 1402.39,-392.681 1412.96,-393.371 1411.08,-386.627"/>
</g>
<!-- Node34&#45;&gt;Node29 -->
<g id="edge44" class="edge"><title>Node34&#45;&gt;Node29</title>
<path fill="none" stroke="midnightblue" d="M1382.04,-270.69C1378.33,-261.589 1374.02,-251.014 1371.07,-243.751"/>
<polygon fill="midnightblue" stroke="midnightblue" points="1378.85,-272.143 1385.87,-280.083 1385.34,-269.502 1378.85,-272.143"/>
</g>
<!-- Node35 -->
<g id="node35" class="node"><title>Node35</title>
<g id="a_node35"><a xlink:href="../../df/ddc/SOSFilter_8hpp.html" target="_top" xlink:title=" ">
<polygon fill="white" stroke="black" points="1649.5,-224.5 1649.5,-243.5 1727.5,-243.5 1727.5,-224.5 1649.5,-224.5"/>
<text text-anchor="middle" x="1688.5" y="-231.5" font-family="Helvetica,sans-Serif" font-size="10.00">SOSFilter.hpp</text>
</a>
</g>
</g>
<!-- Node34&#45;&gt;Node35 -->
<g id="edge45" class="edge"><title>Node34&#45;&gt;Node35</title>
<path fill="none" stroke="midnightblue" d="M1445.68,-278.947C1496.35,-269.864 1572.93,-256.105 1639.5,-244 1642.73,-243.412 1646.09,-242.8 1649.45,-242.185"/>
<polygon fill="midnightblue" stroke="midnightblue" points="1444.81,-275.546 1435.59,-280.755 1446.05,-282.436 1444.81,-275.546"/>
</g>
<!-- Node36 -->
<g id="node36" class="node"><title>Node36</title>
<g id="a_node36"><a xlink:href="../../d4/d40/Butterworth_8hpp.html" target="_top" xlink:title=" ">
<polygon fill="white" stroke="black" points="1645.5,-168.5 1645.5,-187.5 1731.5,-187.5 1731.5,-168.5 1645.5,-168.5"/>
<text text-anchor="middle" x="1688.5" y="-175.5" font-family="Helvetica,sans-Serif" font-size="10.00">Butterworth.hpp</text>
</a>
</g>
</g>
<!-- Node35&#45;&gt;Node36 -->
<g id="edge46" class="edge"><title>Node35&#45;&gt;Node36</title>
<path fill="none" stroke="midnightblue" d="M1688.5,-213.805C1688.5,-204.91 1688.5,-194.78 1688.5,-187.751"/>
<polygon fill="midnightblue" stroke="midnightblue" points="1685,-214.083 1688.5,-224.083 1692,-214.083 1685,-214.083"/>
</g>
<!-- Node37&#45;&gt;Node5 -->
<g id="edge50" class="edge"><title>Node37&#45;&gt;Node5</title>
<path fill="none" stroke="midnightblue" d="M1202.7,-326.69C1198.82,-317.589 1194.32,-307.014 1191.23,-299.751"/>
<polygon fill="midnightblue" stroke="midnightblue" points="1199.56,-328.254 1206.7,-336.083 1206,-325.511 1199.56,-328.254"/>
</g>
<!-- Node37&#45;&gt;Node14 -->
<g id="edge49" class="edge"><title>Node37&#45;&gt;Node14</title>
<path fill="none" stroke="midnightblue" d="M1233.39,-331.176C1257.78,-316.89 1297.84,-294.665 1334.5,-280 1391.4,-257.238 1473.71,-283.84 1460.5,-224 1454.58,-197.205 1456.48,-184.427 1434.5,-168 1394.72,-138.274 1251.74,-127.97 1177.29,-124.571"/>
<polygon fill="midnightblue" stroke="midnightblue" points="1231.38,-328.303 1224.55,-336.409 1234.94,-334.326 1231.38,-328.303"/>
</g>
<!-- Node37&#45;&gt;Node23 -->
<g id="edge51" class="edge"><title>Node37&#45;&gt;Node23</title>
<path fill="none" stroke="midnightblue" d="M1170.69,-332.838C1152.39,-325.646 1131.47,-314.962 1116.5,-300 1082.89,-266.405 1066.01,-209.516 1060.55,-187.791"/>
<polygon fill="midnightblue" stroke="midnightblue" points="1169.66,-336.19 1180.25,-336.382 1172.09,-329.626 1169.66,-336.19"/>
</g>
<!-- Node38&#45;&gt;Node35 -->
<g id="edge53" class="edge"><title>Node38&#45;&gt;Node35</title>
<path fill="none" stroke="midnightblue" d="M1643.54,-273.537C1654.77,-263.909 1668.82,-251.869 1678.19,-243.834"/>
<polygon fill="midnightblue" stroke="midnightblue" points="1640.94,-271.159 1635.62,-280.324 1645.49,-276.473 1640.94,-271.159"/>
</g>
<!-- Node41&#45;&gt;Node38 -->
<g id="edge57" class="edge"><title>Node41&#45;&gt;Node38</title>
<path fill="none" stroke="midnightblue" d="M1583.39,-329.537C1593.91,-319.909 1607.07,-307.869 1615.85,-299.834"/>
<polygon fill="midnightblue" stroke="midnightblue" points="1580.99,-326.99 1575.98,-336.324 1585.72,-332.154 1580.99,-326.99"/>
</g>
<!-- Node41&#45;&gt;Node40 -->
<g id="edge58" class="edge"><title>Node41&#45;&gt;Node40</title>
<path fill="none" stroke="midnightblue" d="M1550.52,-328.718C1541.18,-319.2 1529.75,-307.561 1522.09,-299.751"/>
<polygon fill="midnightblue" stroke="midnightblue" points="1548.25,-331.398 1557.75,-336.083 1553.24,-326.494 1548.25,-331.398"/>
</g>
<!-- Node42&#45;&gt;Node18 -->
<g id="edge61" class="edge"><title>Node42&#45;&gt;Node18</title>
<path fill="none" stroke="midnightblue" d="M581.6,-164.232C559.527,-154.131 529.324,-140.309 510.11,-131.516"/>
<polygon fill="midnightblue" stroke="midnightblue" points="580.253,-167.465 590.803,-168.444 583.166,-161.1 580.253,-167.465"/>
</g>
<!-- Node42&#45;&gt;Node21 -->
<g id="edge62" class="edge"><title>Node42&#45;&gt;Node21</title>
<path fill="none" stroke="midnightblue" d="M606.193,-158.104C604.374,-145.117 602.8,-127.489 604.5,-112 605.915,-99.1124 609.543,-84.5154 612.018,-75.5332"/>
<polygon fill="midnightblue" stroke="midnightblue" points="602.763,-158.819 607.778,-168.152 609.677,-157.728 602.763,-158.819"/>
</g>
<!-- Node42&#45;&gt;Node27 -->
<g id="edge60" class="edge"><title>Node42&#45;&gt;Node27</title>
<path fill="none" stroke="midnightblue" d="M622.922,-160.144C630.414,-150.736 639.437,-139.405 645.532,-131.751"/>
<polygon fill="midnightblue" stroke="midnightblue" points="620.092,-158.08 616.601,-168.083 625.568,-162.44 620.092,-158.08"/>
</g>
<!-- Node44&#45;&gt;Node2 -->
<g id="edge69" class="edge"><title>Node44&#45;&gt;Node2</title>
<path fill="none" stroke="midnightblue" d="M914.982,-471.842C937.205,-481.875 965.314,-495.546 981.62,-504.324"/>
<polygon fill="midnightblue" stroke="midnightblue" points="916.12,-468.518 905.56,-467.655 913.277,-474.914 916.12,-468.518"/>
</g>
<!-- Node44&#45;&gt;Node4 -->
<g id="edge68" class="edge"><title>Node44&#45;&gt;Node4</title>
<path fill="none" stroke="midnightblue" d="M909.019,-443.862C929.23,-433.849 956.487,-420.346 974.031,-411.655"/>
<polygon fill="midnightblue" stroke="midnightblue" points="907.42,-440.748 900.013,-448.324 910.527,-447.021 907.42,-440.748"/>
</g>
<!-- Node44&#45;&gt;Node7 -->
<g id="edge70" class="edge"><title>Node44&#45;&gt;Node7</title>
<path fill="none" stroke="midnightblue" d="M818.262,-455.876C685.567,-451.809 393.5,-433.08 393.5,-347 393.5,-347 393.5,-347 393.5,-289 393.5,-244.051 349.625,-204.65 327.688,-187.759"/>
<polygon fill="midnightblue" stroke="midnightblue" points="818.203,-459.376 828.3,-456.165 818.405,-452.378 818.203,-459.376"/>
</g>
<!-- Node44&#45;&gt;Node23 -->
<g id="edge74" class="edge"><title>Node44&#45;&gt;Node23</title>
<path fill="none" stroke="midnightblue" d="M893.427,-439.74C927.111,-386.535 1028.55,-226.312 1053.1,-187.524"/>
<polygon fill="midnightblue" stroke="midnightblue" points="890.352,-438.054 887.96,-448.375 896.267,-441.798 890.352,-438.054"/>
</g>
<!-- Node45 -->
<g id="node45" class="node"><title>Node45</title>
<g id="a_node45"><a xlink:href="../../d1/d1f/ShiftRegisterOutRGB_8hpp.html" target="_top" xlink:title=" ">
<polygon fill="white" stroke="black" points="625.5,-392.5 625.5,-411.5 755.5,-411.5 755.5,-392.5 625.5,-392.5"/>
<text text-anchor="middle" x="690.5" y="-399.5" font-family="Helvetica,sans-Serif" font-size="10.00">ShiftRegisterOutRGB.hpp</text>
</a>
</g>
</g>
<!-- Node44&#45;&gt;Node45 -->
<g id="edge71" class="edge"><title>Node44&#45;&gt;Node45</title>
<path fill="none" stroke="midnightblue" d="M842.317,-445.699C806.081,-435.507 753.586,-420.743 720.781,-411.516"/>
<polygon fill="midnightblue" stroke="midnightblue" points="841.503,-449.105 852.077,-448.444 843.398,-442.367 841.503,-449.105"/>
</g>
<!-- Node45&#45;&gt;Node17 -->
<g id="edge72" class="edge"><title>Node45&#45;&gt;Node17</title>
<path fill="none" stroke="midnightblue" d="M662.88,-387.726C648.113,-379.801 630.203,-368.795 616.5,-356 557.932,-301.314 510.29,-215.096 495.938,-187.675"/>
<polygon fill="midnightblue" stroke="midnightblue" points="661.566,-390.987 672.055,-392.477 664.784,-384.771 661.566,-390.987"/>
</g>
<!-- Node46 -->
<g id="node46" class="node"><title>Node46</title>
<g id="a_node46"><a xlink:href="../../db/d0b/ShiftRegisterOutRGB_8cpp.html" target="_top" xlink:title=" ">
<polygon fill="white" stroke="black" points="625.5,-336.5 625.5,-355.5 755.5,-355.5 755.5,-336.5 625.5,-336.5"/>
<text text-anchor="middle" x="690.5" y="-343.5" font-family="Helvetica,sans-Serif" font-size="10.00">ShiftRegisterOutRGB.cpp</text>
</a>
</g>
</g>
<!-- Node45&#45;&gt;Node46 -->
<g id="edge73" class="edge"><title>Node45&#45;&gt;Node46</title>
<path fill="none" stroke="midnightblue" d="M690.5,-381.805C690.5,-372.91 690.5,-362.78 690.5,-355.751"/>
<polygon fill="midnightblue" stroke="midnightblue" points="687,-382.083 690.5,-392.083 694,-382.083 687,-382.083"/>
</g>
</g>
</svg>
