<?xml version="1.0" encoding="UTF-8" standalone="no"?>
<!DOCTYPE svg PUBLIC "-//W3C//DTD SVG 1.1//EN"
 "http://www.w3.org/Graphics/SVG/1.1/DTD/svg11.dtd">
<!-- Generated by graphviz version 2.43.0 (0)
 -->
<!-- Title: vector.cpp Pages: 1 -->
<svg width="796pt" height="532pt"
 viewBox="0.00 0.00 796.00 532.00" xmlns="http://www.w3.org/2000/svg" xmlns:xlink="http://www.w3.org/1999/xlink">
<g id="graph0" class="graph" transform="scale(1 1) rotate(0) translate(4 528)">
<title>vector.cpp</title>
<polygon fill="white" stroke="transparent" points="-4,4 -4,-528 792,-528 792,4 -4,4"/>
<!-- Node1 -->
<g id="node1" class="node">
<title>Node1</title>
<g id="a_node1"><a xlink:title=" ">
<polygon fill="#bfbfbf" stroke="black" points="630.5,-504.5 630.5,-523.5 697.5,-523.5 697.5,-504.5 630.5,-504.5"/>
<text text-anchor="middle" x="664" y="-511.5" font-family="Helvetica,sans-Serif" font-size="10.00">vector.cpp</text>
</a>
</g>
</g>
<!-- Node2 -->
<g id="node2" class="node">
<title>Node2</title>
<g id="a_node2"><a xlink:title=" ">
<polygon fill="white" stroke="#bfbfbf" points="593.5,-448.5 593.5,-467.5 640.5,-467.5 640.5,-448.5 593.5,-448.5"/>
<text text-anchor="middle" x="617" y="-455.5" font-family="Helvetica,sans-Serif" font-size="10.00">vector</text>
</a>
</g>
</g>
<!-- Node1&#45;&gt;Node2 -->
<g id="edge1" class="edge">
<title>Node1&#45;&gt;Node2</title>
<path fill="none" stroke="midnightblue" d="M656.24,-504.08C649.46,-496.3 639.46,-484.8 631.24,-475.37"/>
<polygon fill="midnightblue" stroke="midnightblue" points="633.82,-473 624.62,-467.75 628.54,-477.59 633.82,-473"/>
</g>
<!-- Node3 -->
<g id="node3" class="node">
<title>Node3</title>
<g id="a_node3"><a xlink:href="../../d1/d93/Error_8hpp.html" target="_top" xlink:title=" ">
<polygon fill="white" stroke="black" points="659,-448.5 659,-467.5 763,-467.5 763,-448.5 659,-448.5"/>
<text text-anchor="middle" x="711" y="-455.5" font-family="Helvetica,sans-Serif" font-size="10.00">AH/Error/Error.hpp</text>
</a>
</g>
</g>
<!-- Node1&#45;&gt;Node3 -->
<g id="edge2" class="edge">
<title>Node1&#45;&gt;Node3</title>
<path fill="none" stroke="midnightblue" d="M671.76,-504.08C678.54,-496.3 688.54,-484.8 696.76,-475.37"/>
<polygon fill="midnightblue" stroke="midnightblue" points="699.46,-477.59 703.38,-467.75 694.18,-473 699.46,-477.59"/>
</g>
<!-- Node4 -->
<g id="node4" class="node">
<title>Node4</title>
<g id="a_node4"><a xlink:href="../../d1/d65/Warnings_8hpp.html" target="_top" xlink:title=" ">
<polygon fill="white" stroke="black" points="500.5,-0.5 500.5,-19.5 643.5,-19.5 643.5,-0.5 500.5,-0.5"/>
<text text-anchor="middle" x="572" y="-7.5" font-family="Helvetica,sans-Serif" font-size="10.00">AH/Settings/Warnings.hpp</text>
</a>
</g>
</g>
<!-- Node3&#45;&gt;Node4 -->
<g id="edge3" class="edge">
<title>Node3&#45;&gt;Node4</title>
<path fill="none" stroke="midnightblue" d="M722.69,-448.47C744.24,-431.66 788,-391.99 788,-347 788,-347 788,-347 788,-121 788,-58.31 714.87,-31.34 653.71,-19.73"/>
<polygon fill="midnightblue" stroke="midnightblue" points="654.08,-16.24 643.62,-17.94 652.86,-23.14 654.08,-16.24"/>
</g>
<!-- Node5 -->
<g id="node5" class="node">
<title>Node5</title>
<g id="a_node5"><a xlink:href="../../df/dee/Debug_8hpp.html" target="_top" xlink:title=" ">
<polygon fill="white" stroke="black" points="574.5,-392.5 574.5,-411.5 695.5,-411.5 695.5,-392.5 574.5,-392.5"/>
<text text-anchor="middle" x="635" y="-399.5" font-family="Helvetica,sans-Serif" font-size="10.00">AH/Debug/Debug.hpp</text>
</a>
</g>
</g>
<!-- Node3&#45;&gt;Node5 -->
<g id="edge4" class="edge">
<title>Node3&#45;&gt;Node5</title>
<path fill="none" stroke="midnightblue" d="M698.79,-448.32C687.22,-440.11 669.62,-427.6 655.84,-417.81"/>
<polygon fill="midnightblue" stroke="midnightblue" points="657.61,-414.77 647.43,-411.83 653.56,-420.48 657.61,-414.77"/>
</g>
<!-- Node5&#45;&gt;Node4 -->
<g id="edge5" class="edge">
<title>Node5&#45;&gt;Node4</title>
<path fill="none" stroke="midnightblue" d="M655.83,-392.47C688.97,-377.36 750,-342.53 750,-291 750,-291 750,-291 750,-121 750,-63.84 682.75,-35.39 630.92,-21.95"/>
<polygon fill="midnightblue" stroke="midnightblue" points="631.66,-18.53 621.11,-19.53 629.98,-25.32 631.66,-18.53"/>
</g>
<!-- Node6 -->
<g id="node6" class="node">
<title>Node6</title>
<g id="a_node6"><a xlink:href="../../dd/d80/PrintStream_8hpp.html" target="_top" xlink:title=" ">
<polygon fill="white" stroke="black" points="548.5,-224.5 548.5,-243.5 721.5,-243.5 721.5,-224.5 548.5,-224.5"/>
<text text-anchor="middle" x="635" y="-231.5" font-family="Helvetica,sans-Serif" font-size="10.00">AH/PrintStream/PrintStream.hpp</text>
</a>
</g>
</g>
<!-- Node5&#45;&gt;Node6 -->
<g id="edge6" class="edge">
<title>Node5&#45;&gt;Node6</title>
<path fill="none" stroke="midnightblue" d="M635,-392.08C635,-365.95 635,-289.21 635,-253.58"/>
<polygon fill="midnightblue" stroke="midnightblue" points="638.5,-253.57 635,-243.57 631.5,-253.57 638.5,-253.57"/>
</g>
<!-- Node13 -->
<g id="node13" class="node">
<title>Node13</title>
<g id="a_node13"><a xlink:href="../../d2/dd5/SettingsWrapper_8hpp.html" target="_top" xlink:title=" ">
<polygon fill="white" stroke="black" points="373,-336.5 373,-355.5 551,-355.5 551,-336.5 373,-336.5"/>
<text text-anchor="middle" x="462" y="-343.5" font-family="Helvetica,sans-Serif" font-size="10.00">AH/Settings/SettingsWrapper.hpp</text>
</a>
</g>
</g>
<!-- Node5&#45;&gt;Node13 -->
<g id="edge18" class="edge">
<title>Node5&#45;&gt;Node13</title>
<path fill="none" stroke="midnightblue" d="M602.5,-392.44C571.4,-383.36 525,-368.94 494.06,-358.78"/>
<polygon fill="midnightblue" stroke="midnightblue" points="494.8,-355.34 484.2,-355.52 492.6,-361.98 494.8,-355.34"/>
</g>
<!-- Node6&#45;&gt;Node4 -->
<g id="edge8" class="edge">
<title>Node6&#45;&gt;Node4</title>
<path fill="none" stroke="midnightblue" d="M634.92,-224.13C634.39,-197.53 630.63,-116.56 605,-56 600.62,-45.65 593.43,-35.44 586.88,-27.36"/>
<polygon fill="midnightblue" stroke="midnightblue" points="589.34,-24.86 580.18,-19.54 584.03,-29.41 589.34,-24.86"/>
</g>
<!-- Node7 -->
<g id="node7" class="node">
<title>Node7</title>
<g id="a_node7"><a xlink:href="../../dc/dc7/NamespaceSettings_8hpp.html" target="_top" xlink:title=" ">
<polygon fill="white" stroke="black" points="103.5,-56.5 103.5,-75.5 298.5,-75.5 298.5,-56.5 103.5,-56.5"/>
<text text-anchor="middle" x="201" y="-63.5" font-family="Helvetica,sans-Serif" font-size="10.00">AH/Settings/NamespaceSettings.hpp</text>
</a>
</g>
</g>
<!-- Node6&#45;&gt;Node7 -->
<g id="edge7" class="edge">
<title>Node6&#45;&gt;Node7</title>
<path fill="none" stroke="midnightblue" d="M628.28,-224.46C609.89,-201.77 556.09,-139.84 496,-112 462.62,-96.54 375.49,-84.38 304.52,-76.62"/>
<polygon fill="midnightblue" stroke="midnightblue" points="304.49,-73.1 294.17,-75.51 303.74,-80.06 304.49,-73.1"/>
</g>
<!-- Node8 -->
<g id="node8" class="node">
<title>Node8</title>
<g id="a_node8"><a xlink:href="../../d6/ddf/Arduino-Wrapper_8h.html" target="_top" xlink:title=" ">
<polygon fill="white" stroke="black" points="351,-168.5 351,-187.5 475,-187.5 475,-168.5 351,-168.5"/>
<text text-anchor="middle" x="413" y="-175.5" font-family="Helvetica,sans-Serif" font-size="10.00">AH/Arduino&#45;Wrapper.h</text>
</a>
</g>
</g>
<!-- Node6&#45;&gt;Node8 -->
<g id="edge9" class="edge">
<title>Node6&#45;&gt;Node8</title>
<path fill="none" stroke="midnightblue" d="M599.82,-224.44C561.42,-215.1 499.82,-200.12 457.94,-189.93"/>
<polygon fill="midnightblue" stroke="midnightblue" points="458.56,-186.48 448.01,-187.52 456.9,-193.28 458.56,-186.48"/>
</g>
<!-- Node9 -->
<g id="node9" class="node">
<title>Node9</title>
<g id="a_node9"><a xlink:href="../../d7/d79/MinMaxFix_8hpp.html" target="_top" xlink:title=" ">
<polygon fill="white" stroke="black" points="225,-112.5 225,-131.5 361,-131.5 361,-112.5 225,-112.5"/>
<text text-anchor="middle" x="293" y="-119.5" font-family="Helvetica,sans-Serif" font-size="10.00">AH/Math/MinMaxFix.hpp</text>
</a>
</g>
</g>
<!-- Node8&#45;&gt;Node9 -->
<g id="edge10" class="edge">
<title>Node8&#45;&gt;Node9</title>
<path fill="none" stroke="midnightblue" d="M393.99,-168.44C374.41,-159.64 343.69,-145.81 321.27,-135.72"/>
<polygon fill="midnightblue" stroke="midnightblue" points="322.48,-132.43 311.93,-131.52 319.61,-138.81 322.48,-132.43"/>
</g>
<!-- Node11 -->
<g id="node11" class="node">
<title>Node11</title>
<g id="a_node11"><a xlink:title=" ">
<polygon fill="white" stroke="#bfbfbf" points="188.5,-0.5 188.5,-19.5 251.5,-19.5 251.5,-0.5 188.5,-0.5"/>
<text text-anchor="middle" x="220" y="-7.5" font-family="Helvetica,sans-Serif" font-size="10.00">Arduino.h</text>
</a>
</g>
</g>
<!-- Node8&#45;&gt;Node11 -->
<g id="edge17" class="edge">
<title>Node8&#45;&gt;Node11</title>
<path fill="none" stroke="midnightblue" d="M350.83,-173.55C253.96,-167.53 76.08,-153.64 57,-132 36.85,-109.14 65.21,-73.82 86,-56 111.97,-33.74 149.39,-22.38 178.08,-16.65"/>
<polygon fill="midnightblue" stroke="midnightblue" points="179.02,-20.04 188.22,-14.78 177.76,-13.15 179.02,-20.04"/>
</g>
<!-- Node12 -->
<g id="node12" class="node">
<title>Node12</title>
<g id="a_node12"><a xlink:title=" ">
<polygon fill="white" stroke="#bfbfbf" points="379.5,-112.5 379.5,-131.5 486.5,-131.5 486.5,-112.5 379.5,-112.5"/>
<text text-anchor="middle" x="433" y="-119.5" font-family="Helvetica,sans-Serif" font-size="10.00">AH/STL/type_traits</text>
</a>
</g>
</g>
<!-- Node8&#45;&gt;Node12 -->
<g id="edge16" class="edge">
<title>Node8&#45;&gt;Node12</title>
<path fill="none" stroke="midnightblue" d="M416.3,-168.08C418.98,-160.85 422.85,-150.41 426.19,-141.4"/>
<polygon fill="midnightblue" stroke="midnightblue" points="429.57,-142.34 429.76,-131.75 423,-139.91 429.57,-142.34"/>
</g>
<!-- Node9&#45;&gt;Node4 -->
<g id="edge11" class="edge">
<title>Node9&#45;&gt;Node4</title>
<path fill="none" stroke="midnightblue" d="M344.9,-112.45C395.95,-103.52 469.92,-89.02 496,-76 520.38,-63.83 543.43,-42.16 557.62,-27.2"/>
<polygon fill="midnightblue" stroke="midnightblue" points="560.34,-29.41 564.54,-19.69 555.19,-24.67 560.34,-29.41"/>
</g>
<!-- Node9&#45;&gt;Node7 -->
<g id="edge15" class="edge">
<title>Node9&#45;&gt;Node7</title>
<path fill="none" stroke="midnightblue" d="M278.22,-112.32C263.73,-103.82 241.43,-90.73 224.51,-80.8"/>
<polygon fill="midnightblue" stroke="midnightblue" points="226.14,-77.7 215.74,-75.65 222.6,-83.74 226.14,-77.7"/>
</g>
<!-- Node10 -->
<g id="node10" class="node">
<title>Node10</title>
<g id="a_node10"><a xlink:href="../../d6/d3b/FixArduinoMacros_8hpp.html" target="_top" xlink:title=" ">
<polygon fill="white" stroke="black" points="317,-56.5 317,-75.5 487,-75.5 487,-56.5 317,-56.5"/>
<text text-anchor="middle" x="402" y="-63.5" font-family="Helvetica,sans-Serif" font-size="10.00">AH/Math/FixArduinoMacros.hpp</text>
</a>
</g>
</g>
<!-- Node9&#45;&gt;Node10 -->
<g id="edge12" class="edge">
<title>Node9&#45;&gt;Node10</title>
<path fill="none" stroke="midnightblue" d="M310.51,-112.32C328.07,-103.62 355.33,-90.12 375.53,-80.11"/>
<polygon fill="midnightblue" stroke="midnightblue" points="377.12,-83.23 384.53,-75.65 374.02,-76.96 377.12,-83.23"/>
</g>
<!-- Node10&#45;&gt;Node4 -->
<g id="edge13" class="edge">
<title>Node10&#45;&gt;Node4</title>
<path fill="none" stroke="midnightblue" d="M428.94,-56.44C457.66,-47.32 503.33,-32.81 535.32,-22.65"/>
<polygon fill="midnightblue" stroke="midnightblue" points="536.72,-25.88 545.19,-19.52 534.6,-19.21 536.72,-25.88"/>
</g>
<!-- Node10&#45;&gt;Node11 -->
<g id="edge14" class="edge">
<title>Node10&#45;&gt;Node11</title>
<path fill="none" stroke="midnightblue" d="M373.16,-56.44C342.14,-47.24 292.67,-32.56 258.38,-22.39"/>
<polygon fill="midnightblue" stroke="midnightblue" points="259.29,-19.01 248.7,-19.52 257.29,-25.72 259.29,-19.01"/>
</g>
<!-- Node13&#45;&gt;Node4 -->
<g id="edge19" class="edge">
<title>Node13&#45;&gt;Node4</title>
<path fill="none" stroke="midnightblue" d="M471.66,-336.24C480.47,-327.77 493.26,-314.15 501,-300 550.79,-208.93 548.25,-178.08 567,-76 569.81,-60.67 571.05,-43.03 571.59,-30"/>
<polygon fill="midnightblue" stroke="midnightblue" points="575.09,-30.01 571.9,-19.91 568.09,-29.79 575.09,-30.01"/>
</g>
<!-- Node13&#45;&gt;Node5 -->
<g id="edge32" class="edge">
<title>Node13&#45;&gt;Node5</title>
<path fill="none" stroke="midnightblue" d="M494.36,-355.52C525.42,-364.59 571.81,-379 602.8,-389.17"/>
<polygon fill="midnightblue" stroke="midnightblue" points="602.08,-392.62 612.68,-392.44 604.28,-385.98 602.08,-392.62"/>
</g>
<!-- Node13&#45;&gt;Node7 -->
<g id="edge20" class="edge">
<title>Node13&#45;&gt;Node7</title>
<path fill="none" stroke="midnightblue" d="M372.92,-341.79C238.67,-334.49 0,-310.85 0,-235 0,-235 0,-235 0,-177 0,-117.99 67.49,-90.43 124.26,-77.69"/>
<polygon fill="midnightblue" stroke="midnightblue" points="125.29,-81.05 134.35,-75.55 123.84,-74.2 125.29,-81.05"/>
</g>
<!-- Node14 -->
<g id="node14" class="node">
<title>Node14</title>
<g id="a_node14"><a xlink:href="../../db/d02/Settings_8hpp.html" target="_top" xlink:title="All user settings and debugging options can be changed here.">
<polygon fill="white" stroke="black" points="200.5,-280.5 200.5,-299.5 277.5,-299.5 277.5,-280.5 200.5,-280.5"/>
<text text-anchor="middle" x="239" y="-287.5" font-family="Helvetica,sans-Serif" font-size="10.00">Settings.hpp</text>
</a>
</g>
</g>
<!-- Node13&#45;&gt;Node14 -->
<g id="edge21" class="edge">
<title>Node13&#45;&gt;Node14</title>
<path fill="none" stroke="midnightblue" d="M426.66,-336.44C388.09,-327.1 326.22,-312.12 284.15,-301.93"/>
<polygon fill="midnightblue" stroke="midnightblue" points="284.71,-298.47 274.17,-299.52 283.07,-305.27 284.71,-298.47"/>
</g>
<!-- Node20 -->
<g id="node20" class="node">
<title>Node20</title>
<g id="a_node20"><a xlink:href="../../d9/d98/TeensyUSBTypes_8hpp.html" target="_top" xlink:title=" ">
<polygon fill="white" stroke="black" points="318.5,-280.5 318.5,-299.5 491.5,-299.5 491.5,-280.5 318.5,-280.5"/>
<text text-anchor="middle" x="405" y="-287.5" font-family="Helvetica,sans-Serif" font-size="10.00">AH/Teensy/TeensyUSBTypes.hpp</text>
</a>
</g>
</g>
<!-- Node13&#45;&gt;Node20 -->
<g id="edge31" class="edge">
<title>Node13&#45;&gt;Node20</title>
<path fill="none" stroke="midnightblue" d="M452.84,-336.32C444.5,-328.42 431.97,-316.55 421.82,-306.94"/>
<polygon fill="midnightblue" stroke="midnightblue" points="423.99,-304.17 414.32,-299.83 419.18,-309.25 423.99,-304.17"/>
</g>
<!-- Node15 -->
<g id="node15" class="node">
<title>Node15</title>
<g id="a_node15"><a xlink:href="../../dc/d50/Frequency_8hpp.html" target="_top" xlink:title=" ">
<polygon fill="white" stroke="black" points="66,-112.5 66,-131.5 200,-131.5 200,-112.5 66,-112.5"/>
<text text-anchor="middle" x="133" y="-119.5" font-family="Helvetica,sans-Serif" font-size="10.00">AH/Types/Frequency.hpp</text>
</a>
</g>
</g>
<!-- Node14&#45;&gt;Node15 -->
<g id="edge22" class="edge">
<title>Node14&#45;&gt;Node15</title>
<path fill="none" stroke="midnightblue" d="M200.38,-287.27C169.78,-283.62 128.82,-273.16 108,-244 85.56,-212.56 107.06,-165.47 121.79,-140.31"/>
<polygon fill="midnightblue" stroke="midnightblue" points="124.93,-141.89 127.18,-131.54 118.96,-138.23 124.93,-141.89"/>
</g>
<!-- Node16 -->
<g id="node16" class="node">
<title>Node16</title>
<g id="a_node16"><a xlink:href="../../d7/d7c/ADCConfig_8hpp.html" target="_top" xlink:title="This file contains the platform&#45;specific ADC resolutions.">
<polygon fill="white" stroke="black" points="334.5,-224.5 334.5,-243.5 491.5,-243.5 491.5,-224.5 334.5,-224.5"/>
<text text-anchor="middle" x="413" y="-231.5" font-family="Helvetica,sans-Serif" font-size="10.00">AH/Hardware/ADCConfig.hpp</text>
</a>
</g>
</g>
<!-- Node14&#45;&gt;Node16 -->
<g id="edge25" class="edge">
<title>Node14&#45;&gt;Node16</title>
<path fill="none" stroke="midnightblue" d="M266.57,-280.44C296.1,-271.28 343.12,-256.69 375.88,-246.52"/>
<polygon fill="midnightblue" stroke="midnightblue" points="377.04,-249.82 385.56,-243.52 374.97,-243.14 377.04,-249.82"/>
</g>
<!-- Node17 -->
<g id="node17" class="node">
<title>Node17</title>
<g id="a_node17"><a xlink:title=" ">
<polygon fill="white" stroke="#bfbfbf" points="117.5,-224.5 117.5,-243.5 170.5,-243.5 170.5,-224.5 117.5,-224.5"/>
<text text-anchor="middle" x="144" y="-231.5" font-family="Helvetica,sans-Serif" font-size="10.00">limits.h</text>
</a>
</g>
</g>
<!-- Node14&#45;&gt;Node17 -->
<g id="edge28" class="edge">
<title>Node14&#45;&gt;Node17</title>
<path fill="none" stroke="midnightblue" d="M223.74,-280.32C208.78,-271.82 185.75,-258.73 168.27,-248.8"/>
<polygon fill="midnightblue" stroke="midnightblue" points="169.65,-245.55 159.23,-243.65 166.19,-251.64 169.65,-245.55"/>
</g>
<!-- Node18 -->
<g id="node18" class="node">
<title>Node18</title>
<g id="a_node18"><a xlink:title=" ">
<polygon fill="white" stroke="#bfbfbf" points="189,-224.5 189,-243.5 245,-243.5 245,-224.5 189,-224.5"/>
<text text-anchor="middle" x="217" y="-231.5" font-family="Helvetica,sans-Serif" font-size="10.00">stddef.h</text>
</a>
</g>
</g>
<!-- Node14&#45;&gt;Node18 -->
<g id="edge29" class="edge">
<title>Node14&#45;&gt;Node18</title>
<path fill="none" stroke="midnightblue" d="M235.37,-280.08C232.39,-272.77 228.07,-262.18 224.38,-253.1"/>
<polygon fill="midnightblue" stroke="midnightblue" points="227.58,-251.69 220.57,-243.75 221.1,-254.33 227.58,-251.69"/>
</g>
<!-- Node19 -->
<g id="node19" class="node">
<title>Node19</title>
<g id="a_node19"><a xlink:title=" ">
<polygon fill="white" stroke="#bfbfbf" points="263.5,-224.5 263.5,-243.5 316.5,-243.5 316.5,-224.5 263.5,-224.5"/>
<text text-anchor="middle" x="290" y="-231.5" font-family="Helvetica,sans-Serif" font-size="10.00">stdint.h</text>
</a>
</g>
</g>
<!-- Node14&#45;&gt;Node19 -->
<g id="edge30" class="edge">
<title>Node14&#45;&gt;Node19</title>
<path fill="none" stroke="midnightblue" d="M247.42,-280.08C254.85,-272.22 265.85,-260.57 274.81,-251.08"/>
<polygon fill="midnightblue" stroke="midnightblue" points="277.41,-253.42 281.74,-243.75 272.32,-248.62 277.41,-253.42"/>
</g>
<!-- Node15&#45;&gt;Node4 -->
<g id="edge23" class="edge">
<title>Node15&#45;&gt;Node4</title>
<path fill="none" stroke="midnightblue" d="M121.56,-112.47C105.24,-99.3 78.9,-73.69 95,-56 120.99,-27.44 360.32,-16.63 489.77,-12.85"/>
<polygon fill="midnightblue" stroke="midnightblue" points="490.14,-16.35 500.04,-12.56 489.94,-9.35 490.14,-16.35"/>
</g>
<!-- Node15&#45;&gt;Node7 -->
<g id="edge24" class="edge">
<title>Node15&#45;&gt;Node7</title>
<path fill="none" stroke="midnightblue" d="M143.93,-112.32C154.17,-104.18 169.72,-91.84 182,-82.09"/>
<polygon fill="midnightblue" stroke="midnightblue" points="184.22,-84.79 189.88,-75.83 179.87,-79.31 184.22,-84.79"/>
</g>
<!-- Node16&#45;&gt;Node4 -->
<g id="edge26" class="edge">
<title>Node16&#45;&gt;Node4</title>
<path fill="none" stroke="midnightblue" d="M432.21,-224.45C447.78,-216.75 469.44,-204.15 484,-188 528.16,-139.01 555.62,-63.81 566.56,-29.37"/>
<polygon fill="midnightblue" stroke="midnightblue" points="569.93,-30.3 569.53,-19.71 563.24,-28.24 569.93,-30.3"/>
</g>
<!-- Node16&#45;&gt;Node8 -->
<g id="edge27" class="edge">
<title>Node16&#45;&gt;Node8</title>
<path fill="none" stroke="midnightblue" d="M413,-224.08C413,-217.01 413,-206.86 413,-197.99"/>
<polygon fill="midnightblue" stroke="midnightblue" points="416.5,-197.75 413,-187.75 409.5,-197.75 416.5,-197.75"/>
</g>
</g>
</svg>
