<?xml version="1.0" encoding="UTF-8" standalone="no"?>
<!DOCTYPE svg PUBLIC "-//W3C//DTD SVG 1.1//EN"
 "http://www.w3.org/Graphics/SVG/1.1/DTD/svg11.dtd">
<!-- Generated by graphviz version 2.38.0 (20140413.2041)
 -->
<!-- Title: Butterworth.hpp Pages: 1 -->
<svg width="992pt" height="588pt"
 viewBox="0.00 0.00 991.50 588.00" xmlns="http://www.w3.org/2000/svg" xmlns:xlink="http://www.w3.org/1999/xlink">
<g id="graph0" class="graph" transform="scale(1 1) rotate(0) translate(4 584)">
<title>Butterworth.hpp</title>
<polygon fill="white" stroke="none" points="-4,4 -4,-584 987.5,-584 987.5,4 -4,4"/>
<!-- Node1 -->
<g id="node1" class="node"><title>Node1</title>
<g id="a_node1"><a xlink:title=" ">
<polygon fill="#bfbfbf" stroke="black" points="180,-560.5 180,-579.5 266,-579.5 266,-560.5 180,-560.5"/>
<text text-anchor="middle" x="223" y="-567.5" font-family="Helvetica,sans-Serif" font-size="10.00">Butterworth.hpp</text>
</a>
</g>
</g>
<!-- Node2 -->
<g id="node2" class="node"><title>Node2</title>
<g id="a_node2"><a xlink:title=" ">
<polygon fill="white" stroke="#bfbfbf" points="98,-392.5 98,-411.5 180,-411.5 180,-392.5 98,-392.5"/>
<text text-anchor="middle" x="139" y="-399.5" font-family="Helvetica,sans-Serif" font-size="10.00">AH/STL/cmath</text>
</a>
</g>
</g>
<!-- Node1&#45;&gt;Node2 -->
<g id="edge1" class="edge"><title>Node1&#45;&gt;Node2</title>
<path fill="none" stroke="midnightblue" d="M218.484,-560.075C205.147,-533.719 165.758,-455.878 147.937,-420.661"/>
<polygon fill="midnightblue" stroke="midnightblue" points="150.974,-418.91 143.336,-411.568 144.728,-422.071 150.974,-418.91"/>
</g>
<!-- Node3 -->
<g id="node3" class="node"><title>Node3</title>
<g id="a_node3"><a xlink:href="../../df/ddc/SOSFilter_8hpp.html" target="_top" xlink:title=" ">
<polygon fill="white" stroke="black" points="224,-504.5 224,-523.5 332,-523.5 332,-504.5 224,-504.5"/>
<text text-anchor="middle" x="278" y="-511.5" font-family="Helvetica,sans-Serif" font-size="10.00">Filters/SOSFilter.hpp</text>
</a>
</g>
</g>
<!-- Node1&#45;&gt;Node3 -->
<g id="edge2" class="edge"><title>Node1&#45;&gt;Node3</title>
<path fill="none" stroke="midnightblue" d="M232.082,-560.083C240.171,-552.141 252.195,-540.335 261.91,-530.797"/>
<polygon fill="midnightblue" stroke="midnightblue" points="264.403,-533.254 269.087,-523.751 259.499,-528.26 264.403,-533.254"/>
</g>
<!-- Node4 -->
<g id="node4" class="node"><title>Node4</title>
<g id="a_node4"><a xlink:href="../../d5/db6/ArrayHelpers_8hpp.html" target="_top" xlink:title=" ">
<polygon fill="white" stroke="black" points="198,-392.5 198,-411.5 358,-411.5 358,-392.5 198,-392.5"/>
<text text-anchor="middle" x="278" y="-399.5" font-family="Helvetica,sans-Serif" font-size="10.00">AH/Containers/ArrayHelpers.hpp</text>
</a>
</g>
</g>
<!-- Node3&#45;&gt;Node4 -->
<g id="edge3" class="edge"><title>Node3&#45;&gt;Node4</title>
<path fill="none" stroke="midnightblue" d="M278,-504.368C278,-486.617 278,-445.666 278,-421.597"/>
<polygon fill="midnightblue" stroke="midnightblue" points="281.5,-421.591 278,-411.591 274.5,-421.591 281.5,-421.591"/>
</g>
<!-- Node24 -->
<g id="node24" class="node"><title>Node24</title>
<g id="a_node24"><a xlink:href="../../d1/dde/BiQuad_8hpp.html" target="_top" xlink:title=" ">
<polygon fill="white" stroke="black" points="321,-448.5 321,-467.5 419,-467.5 419,-448.5 321,-448.5"/>
<text text-anchor="middle" x="370" y="-455.5" font-family="Helvetica,sans-Serif" font-size="10.00">Filters/BiQuad.hpp</text>
</a>
</g>
</g>
<!-- Node3&#45;&gt;Node24 -->
<g id="edge35" class="edge"><title>Node3&#45;&gt;Node24</title>
<path fill="none" stroke="midnightblue" d="M292.781,-504.324C307.267,-495.822 329.573,-482.729 346.493,-472.797"/>
<polygon fill="midnightblue" stroke="midnightblue" points="348.403,-475.735 355.255,-467.655 344.859,-469.698 348.403,-475.735"/>
</g>
<!-- Node5 -->
<g id="node5" class="node"><title>Node5</title>
<g id="a_node5"><a xlink:href="../../d1/d65/Warnings_8hpp.html" target="_top" xlink:title=" ">
<polygon fill="white" stroke="black" points="66.5,-0.5 66.5,-19.5 199.5,-19.5 199.5,-0.5 66.5,-0.5"/>
<text text-anchor="middle" x="133" y="-7.5" font-family="Helvetica,sans-Serif" font-size="10.00">AH/Settings/Warnings.hpp</text>
</a>
</g>
</g>
<!-- Node4&#45;&gt;Node5 -->
<g id="edge4" class="edge"><title>Node4&#45;&gt;Node5</title>
<path fill="none" stroke="midnightblue" d="M231.155,-392.482C151.928,-376.728 0,-340.115 0,-291 0,-291 0,-291 0,-121 0,-70.7254 57.1293,-39.1005 96.5033,-23.2746"/>
<polygon fill="midnightblue" stroke="midnightblue" points="98.0081,-26.4459 106.085,-19.5897 95.4955,-19.9123 98.0081,-26.4459"/>
</g>
<!-- Node6 -->
<g id="node6" class="node"><title>Node6</title>
<g id="a_node6"><a xlink:href="../../de/d76/Array_8hpp.html" target="_top" xlink:title=" ">
<polygon fill="white" stroke="black" points="434.5,-336.5 434.5,-355.5 493.5,-355.5 493.5,-336.5 434.5,-336.5"/>
<text text-anchor="middle" x="464" y="-343.5" font-family="Helvetica,sans-Serif" font-size="10.00">Array.hpp</text>
</a>
</g>
</g>
<!-- Node4&#45;&gt;Node6 -->
<g id="edge5" class="edge"><title>Node4&#45;&gt;Node6</title>
<path fill="none" stroke="midnightblue" d="M307.472,-392.444C339.171,-383.241 389.732,-368.562 424.775,-358.388"/>
<polygon fill="midnightblue" stroke="midnightblue" points="426.038,-361.666 434.666,-355.516 424.086,-354.943 426.038,-361.666"/>
</g>
<!-- Node9 -->
<g id="node9" class="node"><title>Node9</title>
<g id="a_node9"><a xlink:href="../../dd/d80/PrintStream_8hpp.html" target="_top" xlink:title=" ">
<polygon fill="white" stroke="black" points="141.5,-112.5 141.5,-131.5 300.5,-131.5 300.5,-112.5 141.5,-112.5"/>
<text text-anchor="middle" x="221" y="-119.5" font-family="Helvetica,sans-Serif" font-size="10.00">AH/PrintStream/PrintStream.hpp</text>
</a>
</g>
</g>
<!-- Node4&#45;&gt;Node9 -->
<g id="edge34" class="edge"><title>Node4&#45;&gt;Node9</title>
<path fill="none" stroke="midnightblue" d="M268.59,-392.198C260.007,-383.689 247.547,-370.053 240,-356 225.76,-329.484 221,-321.098 221,-291 221,-291 221,-291 221,-233 221,-200.948 221,-163.643 221,-141.749"/>
<polygon fill="midnightblue" stroke="midnightblue" points="224.5,-141.558 221,-131.558 217.5,-141.558 224.5,-141.558"/>
</g>
<!-- Node23 -->
<g id="node23" class="node"><title>Node23</title>
<g id="a_node23"><a xlink:title=" ">
<polygon fill="white" stroke="#bfbfbf" points="249.5,-336.5 249.5,-355.5 344.5,-355.5 344.5,-336.5 249.5,-336.5"/>
<text text-anchor="middle" x="297" y="-343.5" font-family="Helvetica,sans-Serif" font-size="10.00">AH/STL/algorithm</text>
</a>
</g>
</g>
<!-- Node4&#45;&gt;Node23 -->
<g id="edge33" class="edge"><title>Node4&#45;&gt;Node23</title>
<path fill="none" stroke="midnightblue" d="M281.137,-392.083C283.683,-384.849 287.356,-374.409 290.527,-365.397"/>
<polygon fill="midnightblue" stroke="midnightblue" points="293.903,-366.346 293.921,-355.751 287.3,-364.023 293.903,-366.346"/>
</g>
<!-- Node6&#45;&gt;Node5 -->
<g id="edge6" class="edge"><title>Node6&#45;&gt;Node5</title>
<path fill="none" stroke="midnightblue" d="M434.383,-340.547C337.775,-325.623 38,-276.009 38,-235 38,-235 38,-235 38,-121 38,-77.7385 80.6084,-43.0862 108.755,-24.9149"/>
<polygon fill="midnightblue" stroke="midnightblue" points="110.661,-27.851 117.313,-19.6042 106.97,-21.9032 110.661,-27.851"/>
</g>
<!-- Node7 -->
<g id="node7" class="node"><title>Node7</title>
<g id="a_node7"><a xlink:href="../../d1/d93/Error_8hpp.html" target="_top" xlink:title=" ">
<polygon fill="white" stroke="black" points="375,-280.5 375,-299.5 473,-299.5 473,-280.5 375,-280.5"/>
<text text-anchor="middle" x="424" y="-287.5" font-family="Helvetica,sans-Serif" font-size="10.00">AH/Error/Error.hpp</text>
</a>
</g>
</g>
<!-- Node6&#45;&gt;Node7 -->
<g id="edge7" class="edge"><title>Node6&#45;&gt;Node7</title>
<path fill="none" stroke="midnightblue" d="M457.395,-336.083C451.745,-328.455 443.455,-317.264 436.549,-307.941"/>
<polygon fill="midnightblue" stroke="midnightblue" points="439.247,-305.703 430.482,-299.751 433.622,-309.87 439.247,-305.703"/>
</g>
<!-- Node17 -->
<g id="node17" class="node"><title>Node17</title>
<g id="a_node17"><a xlink:title=" ">
<polygon fill="white" stroke="#bfbfbf" points="740,-56.5 740,-75.5 792,-75.5 792,-56.5 740,-56.5"/>
<text text-anchor="middle" x="766" y="-63.5" font-family="Helvetica,sans-Serif" font-size="10.00">stddef.h</text>
</a>
</g>
</g>
<!-- Node6&#45;&gt;Node17 -->
<g id="edge32" class="edge"><title>Node6&#45;&gt;Node17</title>
<path fill="none" stroke="midnightblue" d="M493.633,-340.155C566.961,-327.33 751,-289.695 751,-235 751,-235 751,-235 751,-177 751,-144.502 757.507,-107.095 761.949,-85.343"/>
<polygon fill="midnightblue" stroke="midnightblue" points="765.385,-86.0128 764.039,-75.5039 758.538,-84.5586 765.385,-86.0128"/>
</g>
<!-- Node21 -->
<g id="node21" class="node"><title>Node21</title>
<g id="a_node21"><a xlink:title=" ">
<polygon fill="white" stroke="#bfbfbf" points="779.5,-280.5 779.5,-299.5 864.5,-299.5 864.5,-280.5 779.5,-280.5"/>
<text text-anchor="middle" x="822" y="-287.5" font-family="Helvetica,sans-Serif" font-size="10.00">AH/STL/iterator</text>
</a>
</g>
</g>
<!-- Node6&#45;&gt;Node21 -->
<g id="edge30" class="edge"><title>Node6&#45;&gt;Node21</title>
<path fill="none" stroke="midnightblue" d="M493.918,-340.61C548.033,-332.652 665.773,-315.251 765,-300 766.454,-299.776 767.929,-299.549 769.418,-299.319"/>
<polygon fill="midnightblue" stroke="midnightblue" points="770.021,-302.767 779.364,-297.771 768.945,-295.85 770.021,-302.767"/>
</g>
<!-- Node22 -->
<g id="node22" class="node"><title>Node22</title>
<g id="a_node22"><a xlink:title=" ">
<polygon fill="white" stroke="#bfbfbf" points="882.5,-280.5 882.5,-299.5 983.5,-299.5 983.5,-280.5 882.5,-280.5"/>
<text text-anchor="middle" x="933" y="-287.5" font-family="Helvetica,sans-Serif" font-size="10.00">AH/STL/type_traits</text>
</a>
</g>
</g>
<!-- Node6&#45;&gt;Node22 -->
<g id="edge31" class="edge"><title>Node6&#45;&gt;Node22</title>
<path fill="none" stroke="midnightblue" d="M493.636,-342.179C559.687,-335.799 724.209,-319.397 872.308,-300.177"/>
<polygon fill="midnightblue" stroke="midnightblue" points="873.027,-303.613 882.489,-298.848 872.12,-296.672 873.027,-303.613"/>
</g>
<!-- Node7&#45;&gt;Node5 -->
<g id="edge8" class="edge"><title>Node7&#45;&gt;Node5</title>
<path fill="none" stroke="midnightblue" d="M374.878,-283.851C278.952,-272.427 76,-240.937 76,-179 76,-179 76,-179 76,-121 76,-84.3005 101.321,-47.6567 118.21,-27.2973"/>
<polygon fill="midnightblue" stroke="midnightblue" points="120.954,-29.475 124.833,-19.6161 115.652,-24.9037 120.954,-29.475"/>
</g>
<!-- Node8 -->
<g id="node8" class="node"><title>Node8</title>
<g id="a_node8"><a xlink:href="../../df/dee/Debug_8hpp.html" target="_top" xlink:title=" ">
<polygon fill="white" stroke="black" points="367.5,-224.5 367.5,-243.5 480.5,-243.5 480.5,-224.5 367.5,-224.5"/>
<text text-anchor="middle" x="424" y="-231.5" font-family="Helvetica,sans-Serif" font-size="10.00">AH/Debug/Debug.hpp</text>
</a>
</g>
</g>
<!-- Node7&#45;&gt;Node8 -->
<g id="edge9" class="edge"><title>Node7&#45;&gt;Node8</title>
<path fill="none" stroke="midnightblue" d="M424,-280.083C424,-273.006 424,-262.861 424,-253.986"/>
<polygon fill="midnightblue" stroke="midnightblue" points="427.5,-253.751 424,-243.751 420.5,-253.751 427.5,-253.751"/>
</g>
<!-- Node8&#45;&gt;Node5 -->
<g id="edge10" class="edge"><title>Node8&#45;&gt;Node5</title>
<path fill="none" stroke="midnightblue" d="M367.305,-231.765C298.61,-226.853 185.447,-207.041 132,-132 110.343,-101.593 119.234,-55.0965 126.699,-29.4993"/>
<polygon fill="midnightblue" stroke="midnightblue" points="130.142,-30.2182 129.816,-19.6284 123.467,-28.1106 130.142,-30.2182"/>
</g>
<!-- Node8&#45;&gt;Node9 -->
<g id="edge11" class="edge"><title>Node8&#45;&gt;Node9</title>
<path fill="none" stroke="midnightblue" d="M405.69,-224.387C387.183,-215.579 357.848,-201.335 333,-188 301.627,-171.163 266.206,-150.281 243.753,-136.803"/>
<polygon fill="midnightblue" stroke="midnightblue" points="245.346,-133.676 234.974,-131.513 241.733,-139.672 245.346,-133.676"/>
</g>
<!-- Node11 -->
<g id="node11" class="node"><title>Node11</title>
<g id="a_node11"><a xlink:href="../../d2/dd5/SettingsWrapper_8hpp.html" target="_top" xlink:title=" ">
<polygon fill="white" stroke="black" points="342,-168.5 342,-187.5 506,-187.5 506,-168.5 342,-168.5"/>
<text text-anchor="middle" x="424" y="-175.5" font-family="Helvetica,sans-Serif" font-size="10.00">AH/Settings/SettingsWrapper.hpp</text>
</a>
</g>
</g>
<!-- Node8&#45;&gt;Node11 -->
<g id="edge14" class="edge"><title>Node8&#45;&gt;Node11</title>
<path fill="none" stroke="midnightblue" d="M418.834,-224.083C417.324,-216.927 416.894,-206.635 417.542,-197.691"/>
<polygon fill="midnightblue" stroke="midnightblue" points="421.015,-198.126 418.869,-187.751 414.077,-197.2 421.015,-198.126"/>
</g>
<!-- Node20 -->
<g id="node20" class="node"><title>Node20</title>
<g id="a_node20"><a xlink:href="../../d7/d52/DebugVal_8hpp.html" target="_top" xlink:title=" ">
<polygon fill="white" stroke="black" points="524,-168.5 524,-187.5 602,-187.5 602,-168.5 524,-168.5"/>
<text text-anchor="middle" x="563" y="-175.5" font-family="Helvetica,sans-Serif" font-size="10.00">DebugVal.hpp</text>
</a>
</g>
</g>
<!-- Node8&#45;&gt;Node20 -->
<g id="edge29" class="edge"><title>Node8&#45;&gt;Node20</title>
<path fill="none" stroke="midnightblue" d="M446.025,-224.444C469.104,-215.478 505.562,-201.314 531.641,-191.183"/>
<polygon fill="midnightblue" stroke="midnightblue" points="533.024,-194.4 541.078,-187.516 530.489,-187.875 533.024,-194.4"/>
</g>
<!-- Node9&#45;&gt;Node5 -->
<g id="edge12" class="edge"><title>Node9&#45;&gt;Node5</title>
<path fill="none" stroke="midnightblue" d="M211.12,-112.209C201.596,-103.492 187.043,-89.5197 176,-76 163.602,-60.8219 151.468,-42.011 143.268,-28.5372"/>
<polygon fill="midnightblue" stroke="midnightblue" points="146.18,-26.5861 138.045,-19.7976 140.171,-30.177 146.18,-26.5861"/>
</g>
<!-- Node10 -->
<g id="node10" class="node"><title>Node10</title>
<g id="a_node10"><a xlink:title=" ">
<polygon fill="white" stroke="#bfbfbf" points="314,-0.5 314,-19.5 372,-19.5 372,-0.5 314,-0.5"/>
<text text-anchor="middle" x="343" y="-7.5" font-family="Helvetica,sans-Serif" font-size="10.00">Arduino.h</text>
</a>
</g>
</g>
<!-- Node9&#45;&gt;Node10 -->
<g id="edge13" class="edge"><title>Node9&#45;&gt;Node10</title>
<path fill="none" stroke="midnightblue" d="M273.901,-112.46C313.432,-104.872 362.679,-92.437 375,-76 386.478,-60.688 373.011,-40.6184 360.195,-26.8541"/>
<polygon fill="midnightblue" stroke="midnightblue" points="362.459,-24.1679 352.918,-19.5621 357.504,-29.1127 362.459,-24.1679"/>
</g>
<!-- Node11&#45;&gt;Node5 -->
<g id="edge15" class="edge"><title>Node11&#45;&gt;Node5</title>
<path fill="none" stroke="midnightblue" d="M410.586,-168.426C389.522,-155.193 347.148,-129.496 309,-112 266.063,-92.3082 249.838,-99.7389 209,-76 185.697,-62.454 162.707,-41.4324 148.22,-26.9841"/>
<polygon fill="midnightblue" stroke="midnightblue" points="150.6,-24.4119 141.099,-19.7228 145.602,-29.3132 150.6,-24.4119"/>
</g>
<!-- Node11&#45;&gt;Node8 -->
<g id="edge28" class="edge"><title>Node11&#45;&gt;Node8</title>
<path fill="none" stroke="midnightblue" d="M429.131,-187.751C430.657,-194.858 431.104,-205.136 430.472,-214.101"/>
<polygon fill="midnightblue" stroke="midnightblue" points="426.993,-213.713 429.166,-224.083 433.934,-214.622 426.993,-213.713"/>
</g>
<!-- Node12 -->
<g id="node12" class="node"><title>Node12</title>
<g id="a_node12"><a xlink:href="../../dc/dc7/NamespaceSettings_8hpp.html" target="_top" xlink:title=" ">
<polygon fill="white" stroke="black" points="470,-0.5 470,-19.5 594,-19.5 594,-0.5 470,-0.5"/>
<text text-anchor="middle" x="532" y="-7.5" font-family="Helvetica,sans-Serif" font-size="10.00">NamespaceSettings.hpp</text>
</a>
</g>
</g>
<!-- Node11&#45;&gt;Node12 -->
<g id="edge16" class="edge"><title>Node11&#45;&gt;Node12</title>
<path fill="none" stroke="midnightblue" d="M426.209,-168.112C430.106,-154.218 439.495,-127.358 457,-112 493.137,-80.2952 531.234,-115.245 559,-76 569.637,-60.9653 558.39,-41.1035 547.341,-27.3098"/>
<polygon fill="midnightblue" stroke="midnightblue" points="549.869,-24.8826 540.684,-19.6028 544.572,-29.4584 549.869,-24.8826"/>
</g>
<!-- Node13 -->
<g id="node13" class="node"><title>Node13</title>
<g id="a_node13"><a xlink:href="../../db/d02/Settings_8hpp.html" target="_top" xlink:title="All user settings and debugging options can be changed here.">
<polygon fill="white" stroke="black" points="465.5,-112.5 465.5,-131.5 536.5,-131.5 536.5,-112.5 465.5,-112.5"/>
<text text-anchor="middle" x="501" y="-119.5" font-family="Helvetica,sans-Serif" font-size="10.00">Settings.hpp</text>
</a>
</g>
</g>
<!-- Node11&#45;&gt;Node13 -->
<g id="edge17" class="edge"><title>Node11&#45;&gt;Node13</title>
<path fill="none" stroke="midnightblue" d="M436.371,-168.324C448.158,-160.058 466.132,-147.453 480.136,-137.632"/>
<polygon fill="midnightblue" stroke="midnightblue" points="482.482,-140.262 488.659,-131.655 478.462,-134.531 482.482,-140.262"/>
</g>
<!-- Node19 -->
<g id="node19" class="node"><title>Node19</title>
<g id="a_node19"><a xlink:href="../../d9/d98/TeensyUSBTypes_8hpp.html" target="_top" xlink:title=" ">
<polygon fill="white" stroke="black" points="555,-112.5 555,-131.5 723,-131.5 723,-112.5 555,-112.5"/>
<text text-anchor="middle" x="639" y="-119.5" font-family="Helvetica,sans-Serif" font-size="10.00">AH/Teensy/TeensyUSBTypes.hpp</text>
</a>
</g>
</g>
<!-- Node11&#45;&gt;Node19 -->
<g id="edge27" class="edge"><title>Node11&#45;&gt;Node19</title>
<path fill="none" stroke="midnightblue" d="M458.067,-168.444C495.18,-159.122 554.661,-144.183 595.215,-133.997"/>
<polygon fill="midnightblue" stroke="midnightblue" points="596.246,-137.347 605.092,-131.516 594.541,-130.558 596.246,-137.347"/>
</g>
<!-- Node14 -->
<g id="node14" class="node"><title>Node14</title>
<g id="a_node14"><a xlink:href="../../dc/d50/Frequency_8hpp.html" target="_top" xlink:title=" ">
<polygon fill="white" stroke="black" points="422,-56.5 422,-75.5 550,-75.5 550,-56.5 422,-56.5"/>
<text text-anchor="middle" x="486" y="-63.5" font-family="Helvetica,sans-Serif" font-size="10.00">AH/Types/Frequency.hpp</text>
</a>
</g>
</g>
<!-- Node13&#45;&gt;Node14 -->
<g id="edge18" class="edge"><title>Node13&#45;&gt;Node14</title>
<path fill="none" stroke="midnightblue" d="M498.523,-112.083C496.514,-104.849 493.614,-94.4087 491.11,-85.3968"/>
<polygon fill="midnightblue" stroke="midnightblue" points="494.48,-84.4495 488.431,-75.7511 487.735,-86.323 494.48,-84.4495"/>
</g>
<!-- Node15 -->
<g id="node15" class="node"><title>Node15</title>
<g id="a_node15"><a xlink:href="../../d7/d7c/ADCConfig_8hpp.html" target="_top" xlink:title="This file contains the platform&#45;specific ADC resolutions. By default, the library automatically selec...">
<polygon fill="white" stroke="black" points="218,-56.5 218,-75.5 366,-75.5 366,-56.5 218,-56.5"/>
<text text-anchor="middle" x="292" y="-63.5" font-family="Helvetica,sans-Serif" font-size="10.00">AH/Hardware/ADCConfig.hpp</text>
</a>
</g>
</g>
<!-- Node13&#45;&gt;Node15 -->
<g id="edge21" class="edge"><title>Node13&#45;&gt;Node15</title>
<path fill="none" stroke="midnightblue" d="M467.883,-112.444C431.882,-103.142 374.23,-88.246 334.814,-78.062"/>
<polygon fill="midnightblue" stroke="midnightblue" points="335.519,-74.6294 324.962,-75.5164 333.768,-81.4068 335.519,-74.6294"/>
</g>
<!-- Node16 -->
<g id="node16" class="node"><title>Node16</title>
<g id="a_node16"><a xlink:title=" ">
<polygon fill="white" stroke="#bfbfbf" points="606,-56.5 606,-75.5 654,-75.5 654,-56.5 606,-56.5"/>
<text text-anchor="middle" x="630" y="-63.5" font-family="Helvetica,sans-Serif" font-size="10.00">limits.h</text>
</a>
</g>
</g>
<!-- Node13&#45;&gt;Node16 -->
<g id="edge24" class="edge"><title>Node13&#45;&gt;Node16</title>
<path fill="none" stroke="midnightblue" d="M521.44,-112.444C542.67,-103.557 576.099,-89.5632 600.255,-79.4514"/>
<polygon fill="midnightblue" stroke="midnightblue" points="601.782,-82.6064 609.655,-75.5164 599.079,-76.1493 601.782,-82.6064"/>
</g>
<!-- Node13&#45;&gt;Node17 -->
<g id="edge25" class="edge"><title>Node13&#45;&gt;Node17</title>
<path fill="none" stroke="midnightblue" d="M536.858,-113.811C539.95,-113.196 543.03,-112.586 546,-112 625.131,-96.3878 647.639,-94.559 729.885,-76.1538"/>
<polygon fill="midnightblue" stroke="midnightblue" points="730.681,-79.5623 739.667,-73.9502 729.143,-72.7334 730.681,-79.5623"/>
</g>
<!-- Node18 -->
<g id="node18" class="node"><title>Node18</title>
<g id="a_node18"><a xlink:title=" ">
<polygon fill="white" stroke="#bfbfbf" points="672.5,-56.5 672.5,-75.5 721.5,-75.5 721.5,-56.5 672.5,-56.5"/>
<text text-anchor="middle" x="697" y="-63.5" font-family="Helvetica,sans-Serif" font-size="10.00">stdint.h</text>
</a>
</g>
</g>
<!-- Node13&#45;&gt;Node18 -->
<g id="edge26" class="edge"><title>Node13&#45;&gt;Node18</title>
<path fill="none" stroke="midnightblue" d="M532.057,-112.444C567.577,-102.657 625.571,-86.6793 662.48,-76.5107"/>
<polygon fill="midnightblue" stroke="midnightblue" points="663.583,-79.8371 672.294,-73.8067 661.724,-73.0886 663.583,-79.8371"/>
</g>
<!-- Node14&#45;&gt;Node5 -->
<g id="edge19" class="edge"><title>Node14&#45;&gt;Node5</title>
<path fill="none" stroke="midnightblue" d="M430.066,-56.4435C367.195,-46.8259 265.228,-31.2275 198.638,-21.0409"/>
<polygon fill="midnightblue" stroke="midnightblue" points="199.087,-17.5689 188.672,-19.5164 198.028,-24.4884 199.087,-17.5689"/>
</g>
<!-- Node14&#45;&gt;Node12 -->
<g id="edge20" class="edge"><title>Node14&#45;&gt;Node12</title>
<path fill="none" stroke="midnightblue" d="M493.596,-56.083C500.227,-48.2982 510.021,-36.8015 518.058,-27.3665"/>
<polygon fill="midnightblue" stroke="midnightblue" points="520.725,-29.6332 524.545,-19.7511 515.396,-25.0939 520.725,-29.6332"/>
</g>
<!-- Node15&#45;&gt;Node5 -->
<g id="edge22" class="edge"><title>Node15&#45;&gt;Node5</title>
<path fill="none" stroke="midnightblue" d="M266.806,-56.4435C240.057,-47.3591 197.597,-32.9388 167.695,-22.7831"/>
<polygon fill="midnightblue" stroke="midnightblue" points="168.671,-19.4182 158.076,-19.5164 166.419,-26.0464 168.671,-19.4182"/>
</g>
<!-- Node15&#45;&gt;Node10 -->
<g id="edge23" class="edge"><title>Node15&#45;&gt;Node10</title>
<path fill="none" stroke="midnightblue" d="M300.422,-56.083C307.848,-48.2195 318.852,-36.5688 327.812,-27.0813"/>
<polygon fill="midnightblue" stroke="midnightblue" points="330.413,-29.4244 334.735,-19.7511 325.324,-24.618 330.413,-29.4244"/>
</g>
<!-- Node24&#45;&gt;Node2 -->
<g id="edge37" class="edge"><title>Node24&#45;&gt;Node2</title>
<path fill="none" stroke="midnightblue" d="M333.397,-448.444C293.269,-439.063 228.802,-423.993 185.215,-413.804"/>
<polygon fill="midnightblue" stroke="midnightblue" points="185.966,-410.385 175.431,-411.516 184.372,-417.201 185.966,-410.385"/>
</g>
<!-- Node24&#45;&gt;Node6 -->
<g id="edge36" class="edge"><title>Node24&#45;&gt;Node6</title>
<path fill="none" stroke="midnightblue" d="M373.287,-448.294C378.555,-435.11 389.856,-409.742 405,-392 415.264,-379.976 429.245,-369.139 441.021,-361.114"/>
<polygon fill="midnightblue" stroke="midnightblue" points="443.057,-363.964 449.499,-355.552 439.218,-358.111 443.057,-363.964"/>
</g>
<!-- Node25 -->
<g id="node25" class="node"><title>Node25</title>
<g id="a_node25"><a xlink:href="../../d2/d03/TransferFunction_8hpp.html" target="_top" xlink:title=" ">
<polygon fill="white" stroke="black" points="414.5,-392.5 414.5,-411.5 553.5,-411.5 553.5,-392.5 414.5,-392.5"/>
<text text-anchor="middle" x="484" y="-399.5" font-family="Helvetica,sans-Serif" font-size="10.00">Filters/TransferFunction.hpp</text>
</a>
</g>
</g>
<!-- Node24&#45;&gt;Node25 -->
<g id="edge38" class="edge"><title>Node24&#45;&gt;Node25</title>
<path fill="none" stroke="midnightblue" d="M388.064,-448.444C406.575,-439.675 435.581,-425.935 456.855,-415.858"/>
<polygon fill="midnightblue" stroke="midnightblue" points="458.482,-418.96 466.021,-411.516 455.485,-412.634 458.482,-418.96"/>
</g>
<!-- Node25&#45;&gt;Node6 -->
<g id="edge39" class="edge"><title>Node25&#45;&gt;Node6</title>
<path fill="none" stroke="midnightblue" d="M480.697,-392.083C478.018,-384.849 474.151,-374.409 470.814,-365.397"/>
<polygon fill="midnightblue" stroke="midnightblue" points="473.996,-363.913 467.241,-355.751 467.432,-366.344 473.996,-363.913"/>
</g>
</g>
</svg>
