<?xml version="1.0" encoding="UTF-8" standalone="no"?>
<!DOCTYPE svg PUBLIC "-//W3C//DTD SVG 1.1//EN"
 "http://www.w3.org/Graphics/SVG/1.1/DTD/svg11.dtd">
<!-- Generated by graphviz version 2.40.1 (20161225.0304)
 -->
<!-- Title: Math Utilities Pages: 1 -->
<svg width="308pt" height="27pt"
 viewBox="0.00 0.00 308.00 27.00" xmlns="http://www.w3.org/2000/svg" xmlns:xlink="http://www.w3.org/1999/xlink">
<g id="graph0" class="graph" transform="scale(1 1) rotate(0) translate(4 23)">
<title>Math Utilities</title>
<polygon fill="#ffffff" stroke="transparent" points="-4,4 -4,-23 304,-23 304,4 -4,4"/>
<!-- Node1 -->
<g id="node1" class="node">
<title>Node1</title>
<g id="a_node1"><a xlink:title="Mathematics helper functions. Min/max functions, functions to uniformly increase the effective bid de...">
<polygon fill="#bfbfbf" stroke="#000000" points="196,-19 122,-19 122,0 196,0 196,-19"/>
<text text-anchor="middle" x="159" y="-7" font-family="Helvetica,sans-Serif" font-size="10.00" fill="#000000">Math Utilities</text>
</a>
</g>
</g>
<!-- Node3 -->
<g id="node2" class="node">
<title>Node3</title>
<g id="a_node2"><a xlink:href="../../d5/d99/group__math-types.html" target="_top" xlink:title="Vector and Quaternion types with the necessary operators and functions.">
<polygon fill="#ffffff" stroke="#000000" points="300,-19 232,-19 232,0 300,0 300,-19"/>
<text text-anchor="middle" x="266" y="-7" font-family="Helvetica,sans-Serif" font-size="10.00" fill="#000000">Math Types</text>
</a>
</g>
</g>
<!-- Node1&#45;&gt;Node3 -->
<g id="edge2" class="edge">
<title>Node1&#45;&gt;Node3</title>
<path fill="none" stroke="#000000" d="M206.3975,-9.5C214.9556,-9.5 223.7247,-9.5 231.8135,-9.5"/>
<polygon fill="#000000" stroke="#000000" points="206.1231,-6.0001 196.1231,-9.5 206.1231,-13.0001 206.1231,-6.0001"/>
</g>
<!-- Node2 -->
<g id="node3" class="node">
<title>Node2</title>
<g id="a_node3"><a xlink:href="../../d7/d07/group__AH__group.html" target="_top" xlink:title="Common utility library: https://github.com/tttapa/Arduino&#45;Helpers">
<polygon fill="#ffffff" stroke="#000000" points="86,-19 0,-19 0,0 86,0 86,-19"/>
<text text-anchor="middle" x="43" y="-7" font-family="Helvetica,sans-Serif" font-size="10.00" fill="#000000">Arduino Helpers</text>
</a>
</g>
</g>
<!-- Node2&#45;&gt;Node1 -->
<g id="edge1" class="edge">
<title>Node2&#45;&gt;Node1</title>
<path fill="none" stroke="#000000" d="M96.2444,-9.5C104.9012,-9.5 113.7003,-9.5 121.8632,-9.5"/>
<polygon fill="#000000" stroke="#000000" points="96.1942,-6.0001 86.1941,-9.5 96.1941,-13.0001 96.1942,-6.0001"/>
</g>
</g>
</svg>
