<?xml version="1.0" encoding="UTF-8" standalone="no"?>
<!DOCTYPE svg PUBLIC "-//W3C//DTD SVG 1.1//EN"
 "http://www.w3.org/Graphics/SVG/1.1/DTD/svg11.dtd">
<!-- Generated by graphviz version 2.40.1 (20161225.0304)
 -->
<!-- Title: DoublyLinkedList&lt; Node &gt;::node_iterator_base&lt; INode &gt; Pages: 1 -->
<svg width="239pt" height="226pt"
 viewBox="0.00 0.00 238.50 226.00" xmlns="http://www.w3.org/2000/svg" xmlns:xlink="http://www.w3.org/1999/xlink">
<g id="graph0" class="graph" transform="scale(1 1) rotate(0) translate(4 222)">
<title>DoublyLinkedList&lt; Node &gt;::node_iterator_base&lt; INode &gt;</title>
<polygon fill="#ffffff" stroke="transparent" points="-4,4 -4,-222 234.5,-222 234.5,4 -4,4"/>
<!-- Node1 -->
<g id="node1" class="node">
<title>Node1</title>
<g id="a_node1"><a xlink:title="Base class for doubly linked list iterators.">
<polygon fill="#bfbfbf" stroke="#000000" points="44,-116.5 44,-217.5 168,-217.5 168,-116.5 44,-116.5"/>
<text text-anchor="start" x="52" y="-205.5" font-family="Helvetica,sans-Serif" font-size="10.00" fill="#000000">DoublyLinkedList&lt; Node</text>
<text text-anchor="start" x="52" y="-194.5" font-family="Helvetica,sans-Serif" font-size="10.00" fill="#000000"> &gt;::node_iterator_base</text>
<text text-anchor="middle" x="106" y="-183.5" font-family="Helvetica,sans-Serif" font-size="10.00" fill="#000000">&lt; INode &gt;</text>
<polyline fill="none" stroke="#000000" points="44,-176.5 168,-176.5 "/>
<text text-anchor="start" x="52" y="-164.5" font-family="Helvetica,sans-Serif" font-size="10.00" fill="#000000"># node</text>
<polyline fill="none" stroke="#000000" points="44,-157.5 168,-157.5 "/>
<text text-anchor="start" x="52" y="-145.5" font-family="Helvetica,sans-Serif" font-size="10.00" fill="#000000">+ node_iterator_base()</text>
<text text-anchor="start" x="52" y="-134.5" font-family="Helvetica,sans-Serif" font-size="10.00" fill="#000000">+ operator!=()</text>
<text text-anchor="start" x="52" y="-123.5" font-family="Helvetica,sans-Serif" font-size="10.00" fill="#000000">+ operator*()</text>
</a>
</g>
</g>
<!-- Node2 -->
<g id="node2" class="node">
<title>Node2</title>
<g id="a_node2"><a xlink:href="../../dd/d02/classDoublyLinkedList_1_1node__iterator.html" target="_top" xlink:title="Forward bidirectional doubly linked list iterator.">
<polygon fill="#ffffff" stroke="#000000" points="0,-.5 0,-79.5 88,-79.5 88,-.5 0,-.5"/>
<text text-anchor="middle" x="44" y="-67.5" font-family="Helvetica,sans-Serif" font-size="10.00" fill="#000000">node_iterator</text>
<polyline fill="none" stroke="#000000" points="0,-60.5 88,-60.5 "/>
<text text-anchor="middle" x="44" y="-48.5" font-family="Helvetica,sans-Serif" font-size="10.00" fill="#000000"> </text>
<polyline fill="none" stroke="#000000" points="0,-41.5 88,-41.5 "/>
<text text-anchor="start" x="8" y="-29.5" font-family="Helvetica,sans-Serif" font-size="10.00" fill="#000000">+ node_iterator()</text>
<text text-anchor="start" x="8" y="-18.5" font-family="Helvetica,sans-Serif" font-size="10.00" fill="#000000">+ operator++()</text>
<text text-anchor="start" x="8" y="-7.5" font-family="Helvetica,sans-Serif" font-size="10.00" fill="#000000">+ operator&#45;&#45;()</text>
</a>
</g>
</g>
<!-- Node1&#45;&gt;Node2 -->
<g id="edge1" class="edge">
<title>Node1&#45;&gt;Node2</title>
<path fill="none" stroke="#191970" d="M76.8141,-107.2159C72.2786,-97.9254 67.6911,-88.5285 63.4418,-79.8243"/>
<polygon fill="none" stroke="#191970" points="73.7855,-108.9905 81.3178,-116.4413 80.0759,-105.9195 73.7855,-108.9905"/>
</g>
<!-- Node3 -->
<g id="node3" class="node">
<title>Node3</title>
<g id="a_node3"><a xlink:href="../../d1/d4c/classDoublyLinkedList_1_1reverse__node__iterator.html" target="_top" xlink:title="Reverse bidirectional doubly linked list iterator.">
<polygon fill="#ffffff" stroke="#000000" points="105.5,-.5 105.5,-79.5 230.5,-79.5 230.5,-.5 105.5,-.5"/>
<text text-anchor="middle" x="168" y="-67.5" font-family="Helvetica,sans-Serif" font-size="10.00" fill="#000000">reverse_node_iterator</text>
<polyline fill="none" stroke="#000000" points="105.5,-60.5 230.5,-60.5 "/>
<text text-anchor="middle" x="168" y="-48.5" font-family="Helvetica,sans-Serif" font-size="10.00" fill="#000000"> </text>
<polyline fill="none" stroke="#000000" points="105.5,-41.5 230.5,-41.5 "/>
<text text-anchor="start" x="113.5" y="-29.5" font-family="Helvetica,sans-Serif" font-size="10.00" fill="#000000">+ reverse_node_iterator()</text>
<text text-anchor="start" x="113.5" y="-18.5" font-family="Helvetica,sans-Serif" font-size="10.00" fill="#000000">+ operator++()</text>
<text text-anchor="start" x="113.5" y="-7.5" font-family="Helvetica,sans-Serif" font-size="10.00" fill="#000000">+ operator&#45;&#45;()</text>
</a>
</g>
</g>
<!-- Node1&#45;&gt;Node3 -->
<g id="edge2" class="edge">
<title>Node1&#45;&gt;Node3</title>
<path fill="none" stroke="#191970" d="M135.1859,-107.2159C139.7214,-97.9254 144.3089,-88.5285 148.5582,-79.8243"/>
<polygon fill="none" stroke="#191970" points="131.9241,-105.9195 130.6822,-116.4413 138.2145,-108.9905 131.9241,-105.9195"/>
</g>
</g>
</svg>
