<?xml version="1.0" encoding="UTF-8" standalone="no"?>
<!DOCTYPE svg PUBLIC "-//W3C//DTD SVG 1.1//EN"
 "http://www.w3.org/Graphics/SVG/1.1/DTD/svg11.dtd">
<!-- Generated by graphviz version 2.43.0 (0)
 -->
<!-- Title: Arduino&#45;Hardware&#45;Types.hpp Pages: 1 -->
<svg width="1895pt" height="364pt"
 viewBox="0.00 0.00 1894.50 364.00" xmlns="http://www.w3.org/2000/svg" xmlns:xlink="http://www.w3.org/1999/xlink">
<g id="graph0" class="graph" transform="scale(1 1) rotate(0) translate(4 360)">
<title>Arduino&#45;Hardware&#45;Types.hpp</title>
<polygon fill="white" stroke="transparent" points="-4,4 -4,-360 1890.5,-360 1890.5,4 -4,4"/>
<!-- Node1 -->
<g id="node1" class="node">
<title>Node1</title>
<g id="a_node1"><a xlink:title=" ">
<polygon fill="#bfbfbf" stroke="black" points="1246,-336.5 1246,-355.5 1403,-355.5 1403,-336.5 1246,-336.5"/>
<text text-anchor="middle" x="1324.5" y="-343.5" font-family="Helvetica,sans-Serif" font-size="10.00">Arduino&#45;Hardware&#45;Types.hpp</text>
</a>
</g>
</g>
<!-- Node2 -->
<g id="node2" class="node">
<title>Node2</title>
<g id="a_node2"><a xlink:href="../../dd/ddf/ExtendedInputOutput_8hpp.html" target="_top" xlink:title=" ">
<polygon fill="white" stroke="black" points="1254,-280.5 1254,-299.5 1395,-299.5 1395,-280.5 1254,-280.5"/>
<text text-anchor="middle" x="1324.5" y="-287.5" font-family="Helvetica,sans-Serif" font-size="10.00">ExtendedInputOutput.hpp</text>
</a>
</g>
</g>
<!-- Node1&#45;&gt;Node2 -->
<g id="edge1" class="edge">
<title>Node1&#45;&gt;Node2</title>
<path fill="none" stroke="midnightblue" d="M1324.5,-325.8C1324.5,-316.91 1324.5,-306.78 1324.5,-299.75"/>
<polygon fill="midnightblue" stroke="midnightblue" points="1321,-326.08 1324.5,-336.08 1328,-326.08 1321,-326.08"/>
</g>
<!-- Node3 -->
<g id="node3" class="node">
<title>Node3</title>
<g id="a_node3"><a xlink:href="../../d7/def/AnalogMultiplex_8hpp.html" target="_top" xlink:title=" ">
<polygon fill="white" stroke="black" points="391,-112.5 391,-131.5 508,-131.5 508,-112.5 391,-112.5"/>
<text text-anchor="middle" x="449.5" y="-119.5" font-family="Helvetica,sans-Serif" font-size="10.00">AnalogMultiplex.hpp</text>
</a>
</g>
</g>
<!-- Node2&#45;&gt;Node3 -->
<g id="edge2" class="edge">
<title>Node2&#45;&gt;Node3</title>
<path fill="none" stroke="midnightblue" d="M1243.87,-287.76C1033.09,-284.12 480.01,-271.95 452.5,-244 422.13,-213.15 438.7,-153.6 446.32,-131.51"/>
<polygon fill="midnightblue" stroke="midnightblue" points="1243.89,-291.26 1253.94,-287.93 1244.01,-284.26 1243.89,-291.26"/>
</g>
<!-- Node4 -->
<g id="node4" class="node">
<title>Node4</title>
<g id="a_node4"><a xlink:href="../../d4/db3/Button_8hpp.html" target="_top" xlink:title=" ">
<polygon fill="white" stroke="black" points="262.5,-224.5 262.5,-243.5 332.5,-243.5 332.5,-224.5 262.5,-224.5"/>
<text text-anchor="middle" x="297.5" y="-231.5" font-family="Helvetica,sans-Serif" font-size="10.00">Button.hpp</text>
</a>
</g>
</g>
<!-- Node2&#45;&gt;Node4 -->
<g id="edge3" class="edge">
<title>Node2&#45;&gt;Node4</title>
<path fill="none" stroke="midnightblue" d="M1243.76,-285.68C1085.28,-279.01 722.37,-262.99 417.5,-244 388.93,-242.22 356.58,-239.77 332.66,-237.87"/>
<polygon fill="midnightblue" stroke="midnightblue" points="1243.77,-289.18 1253.9,-286.11 1244.06,-282.19 1243.77,-289.18"/>
</g>
<!-- Node10 -->
<g id="node10" class="node">
<title>Node10</title>
<g id="a_node10"><a xlink:href="../../d5/d41/ButtonMatrix_8ipp.html" target="_top" xlink:title=" ">
<polygon fill="white" stroke="black" points="461.5,-224.5 461.5,-243.5 559.5,-243.5 559.5,-224.5 461.5,-224.5"/>
<text text-anchor="middle" x="510.5" y="-231.5" font-family="Helvetica,sans-Serif" font-size="10.00">ButtonMatrix.ipp</text>
</a>
</g>
</g>
<!-- Node2&#45;&gt;Node10 -->
<g id="edge9" class="edge">
<title>Node2&#45;&gt;Node10</title>
<path fill="none" stroke="midnightblue" d="M1243.85,-286.21C1106.42,-280.99 818.16,-268.05 575.5,-244 570.4,-243.49 565.08,-242.89 559.78,-242.23"/>
<polygon fill="midnightblue" stroke="midnightblue" points="1243.75,-289.71 1253.88,-286.58 1244.02,-282.71 1243.75,-289.71"/>
</g>
<!-- Node12 -->
<g id="node12" class="node">
<title>Node12</title>
<g id="a_node12"><a xlink:href="../../d4/d57/ExtendedIOElement_8hpp.html" target="_top" xlink:title=" ">
<polygon fill="white" stroke="black" points="835.5,-224.5 835.5,-243.5 969.5,-243.5 969.5,-224.5 835.5,-224.5"/>
<text text-anchor="middle" x="902.5" y="-231.5" font-family="Helvetica,sans-Serif" font-size="10.00">ExtendedIOElement.hpp</text>
</a>
</g>
</g>
<!-- Node2&#45;&gt;Node12 -->
<g id="edge12" class="edge">
<title>Node2&#45;&gt;Node12</title>
<path fill="none" stroke="midnightblue" d="M1247.66,-279.17C1167.98,-268.97 1044.7,-253.2 969.05,-243.52"/>
<polygon fill="midnightblue" stroke="midnightblue" points="1247.27,-282.65 1257.63,-280.44 1248.16,-275.7 1247.27,-282.65"/>
</g>
<!-- Node14 -->
<g id="node14" class="node">
<title>Node14</title>
<g id="a_node14"><a xlink:href="../../d6/d3c/ExtendedInputOutput_8cpp.html" target="_top" xlink:title=" ">
<polygon fill="white" stroke="black" points="969.5,-168.5 969.5,-187.5 1109.5,-187.5 1109.5,-168.5 969.5,-168.5"/>
<text text-anchor="middle" x="1039.5" y="-175.5" font-family="Helvetica,sans-Serif" font-size="10.00">ExtendedInputOutput.cpp</text>
</a>
</g>
</g>
<!-- Node2&#45;&gt;Node14 -->
<g id="edge30" class="edge">
<title>Node2&#45;&gt;Node14</title>
<path fill="none" stroke="midnightblue" d="M1289.43,-277.1C1263.83,-268.28 1228.36,-255.81 1197.5,-244 1147.36,-224.82 1089.14,-200.27 1059.33,-187.53"/>
<polygon fill="midnightblue" stroke="midnightblue" points="1288.47,-280.47 1299.06,-280.4 1290.74,-273.85 1288.47,-280.47"/>
</g>
<!-- Node17 -->
<g id="node17" class="node">
<title>Node17</title>
<g id="a_node17"><a xlink:href="../../d7/dca/MCP23017_8hpp.html" target="_top" xlink:title=" ">
<polygon fill="white" stroke="black" points="680,-112.5 680,-131.5 769,-131.5 769,-112.5 680,-112.5"/>
<text text-anchor="middle" x="724.5" y="-119.5" font-family="Helvetica,sans-Serif" font-size="10.00">MCP23017.hpp</text>
</a>
</g>
</g>
<!-- Node2&#45;&gt;Node17 -->
<g id="edge37" class="edge">
<title>Node2&#45;&gt;Node17</title>
<path fill="none" stroke="midnightblue" d="M1243.71,-285.71C1144.76,-280.76 972.33,-269.15 826.5,-244 727.92,-227 669.81,-267.05 608.5,-188 585.58,-158.45 638.12,-140.27 679.8,-130.9"/>
<polygon fill="midnightblue" stroke="midnightblue" points="1243.77,-289.22 1253.93,-286.21 1244.12,-282.22 1243.77,-289.22"/>
</g>
<!-- Node19 -->
<g id="node19" class="node">
<title>Node19</title>
<g id="a_node19"><a xlink:href="../../d8/d93/ShiftRegisterOutBase_8hpp.html" target="_top" xlink:title=" ">
<polygon fill="white" stroke="black" points="1294,-112.5 1294,-131.5 1435,-131.5 1435,-112.5 1294,-112.5"/>
<text text-anchor="middle" x="1364.5" y="-119.5" font-family="Helvetica,sans-Serif" font-size="10.00">ShiftRegisterOutBase.hpp</text>
</a>
</g>
</g>
<!-- Node2&#45;&gt;Node19 -->
<g id="edge41" class="edge">
<title>Node2&#45;&gt;Node19</title>
<path fill="none" stroke="midnightblue" d="M1362.07,-276.54C1377.11,-269.5 1392.88,-259.01 1401.5,-244 1418.31,-214.7 1412.89,-199.8 1401.5,-168 1396.25,-153.34 1383.92,-140.03 1374.94,-131.76"/>
<polygon fill="midnightblue" stroke="midnightblue" points="1360.68,-273.33 1352.87,-280.49 1363.44,-279.76 1360.68,-273.33"/>
</g>
<!-- Node21 -->
<g id="node21" class="node">
<title>Node21</title>
<g id="a_node21"><a xlink:href="../../da/d45/SPIShiftRegisterOut_8ipp.html" target="_top" xlink:title=" ">
<polygon fill="white" stroke="black" points="1274,-0.5 1274,-19.5 1403,-19.5 1403,-0.5 1274,-0.5"/>
<text text-anchor="middle" x="1338.5" y="-7.5" font-family="Helvetica,sans-Serif" font-size="10.00">SPIShiftRegisterOut.ipp</text>
</a>
</g>
</g>
<!-- Node2&#45;&gt;Node21 -->
<g id="edge39" class="edge">
<title>Node2&#45;&gt;Node21</title>
<path fill="none" stroke="midnightblue" d="M1339.14,-272.88C1359.31,-248.61 1390.77,-201.93 1368.5,-168 1346.44,-134.38 1313.43,-160.92 1285.5,-132 1261.07,-106.7 1246.17,-86.6 1263.5,-56 1273.67,-38.03 1294.21,-26.45 1311.22,-19.55"/>
<polygon fill="midnightblue" stroke="midnightblue" points="1336.47,-270.61 1332.58,-280.47 1341.76,-275.19 1336.47,-270.61"/>
</g>
<!-- Node23 -->
<g id="node23" class="node">
<title>Node23</title>
<g id="a_node23"><a xlink:href="../../de/d95/ShiftRegisterOut_8ipp.html" target="_top" xlink:title=" ">
<polygon fill="white" stroke="black" points="1424.5,-0.5 1424.5,-19.5 1538.5,-19.5 1538.5,-0.5 1424.5,-0.5"/>
<text text-anchor="middle" x="1481.5" y="-7.5" font-family="Helvetica,sans-Serif" font-size="10.00">ShiftRegisterOut.ipp</text>
</a>
</g>
</g>
<!-- Node2&#45;&gt;Node23 -->
<g id="edge40" class="edge">
<title>Node2&#45;&gt;Node23</title>
<path fill="none" stroke="midnightblue" d="M1405.54,-287.41C1498.46,-284.15 1643.74,-274.23 1688.5,-244 1715.87,-225.52 1724.5,-212.02 1724.5,-179 1724.5,-179 1724.5,-179 1724.5,-121 1724.5,-90.9 1727.68,-76.35 1705.5,-56 1681.6,-34.08 1596.86,-21.8 1538.74,-15.79"/>
<polygon fill="midnightblue" stroke="midnightblue" points="1405.2,-283.92 1395.32,-287.75 1405.43,-290.92 1405.2,-283.92"/>
</g>
<!-- Node24 -->
<g id="node24" class="node">
<title>Node24</title>
<g id="a_node24"><a xlink:href="../../d5/d47/ShiftRegisterOutBase_8ipp.html" target="_top" xlink:title=" ">
<polygon fill="white" stroke="black" points="1558.5,-56.5 1558.5,-75.5 1696.5,-75.5 1696.5,-56.5 1558.5,-56.5"/>
<text text-anchor="middle" x="1627.5" y="-63.5" font-family="Helvetica,sans-Serif" font-size="10.00">ShiftRegisterOutBase.ipp</text>
</a>
</g>
</g>
<!-- Node2&#45;&gt;Node24 -->
<g id="edge42" class="edge">
<title>Node2&#45;&gt;Node24</title>
<path fill="none" stroke="midnightblue" d="M1356.28,-276.44C1375.28,-268.33 1399.53,-256.91 1419.5,-244 1504.33,-189.18 1591.99,-103.05 1619.05,-75.66"/>
<polygon fill="midnightblue" stroke="midnightblue" points="1354.75,-273.28 1346.87,-280.37 1357.45,-279.74 1354.75,-273.28"/>
</g>
<!-- Node25 -->
<g id="node25" class="node">
<title>Node25</title>
<g id="a_node25"><a xlink:href="../../d8/df3/FilteredAnalog_8hpp.html" target="_top" xlink:title=" ">
<polygon fill="white" stroke="black" points="1491.5,-224.5 1491.5,-243.5 1599.5,-243.5 1599.5,-224.5 1491.5,-224.5"/>
<text text-anchor="middle" x="1545.5" y="-231.5" font-family="Helvetica,sans-Serif" font-size="10.00">FilteredAnalog.hpp</text>
</a>
</g>
</g>
<!-- Node2&#45;&gt;Node25 -->
<g id="edge31" class="edge">
<title>Node2&#45;&gt;Node25</title>
<path fill="none" stroke="midnightblue" d="M1369.42,-278.02C1411.17,-267.82 1472.48,-252.84 1510.65,-243.52"/>
<polygon fill="midnightblue" stroke="midnightblue" points="1368.4,-274.67 1359.52,-280.44 1370.06,-281.47 1368.4,-274.67"/>
</g>
<!-- Node26 -->
<g id="node26" class="node">
<title>Node26</title>
<g id="a_node26"><a xlink:href="../../d9/d4f/LEDs_8hpp.html" target="_top" xlink:title=" ">
<polygon fill="white" stroke="black" points="1617.5,-224.5 1617.5,-243.5 1679.5,-243.5 1679.5,-224.5 1617.5,-224.5"/>
<text text-anchor="middle" x="1648.5" y="-231.5" font-family="Helvetica,sans-Serif" font-size="10.00">LEDs.hpp</text>
</a>
</g>
</g>
<!-- Node2&#45;&gt;Node26 -->
<g id="edge32" class="edge">
<title>Node2&#45;&gt;Node26</title>
<path fill="none" stroke="midnightblue" d="M1395.72,-279.01C1453.3,-270.62 1536.35,-257.82 1608.5,-244 1611.3,-243.46 1614.2,-242.88 1617.1,-242.27"/>
<polygon fill="midnightblue" stroke="midnightblue" points="1395.03,-275.57 1385.64,-280.47 1396.04,-282.5 1395.03,-275.57"/>
</g>
<!-- Node28 -->
<g id="node28" class="node">
<title>Node28</title>
<g id="a_node28"><a xlink:href="../../d7/d13/MAX7219__Base_8hpp.html" target="_top" xlink:title=" ">
<polygon fill="white" stroke="black" points="1206,-224.5 1206,-243.5 1319,-243.5 1319,-224.5 1206,-224.5"/>
<text text-anchor="middle" x="1262.5" y="-231.5" font-family="Helvetica,sans-Serif" font-size="10.00">MAX7219_Base.hpp</text>
</a>
</g>
</g>
<!-- Node2&#45;&gt;Node28 -->
<g id="edge34" class="edge">
<title>Node2&#45;&gt;Node28</title>
<path fill="none" stroke="midnightblue" d="M1306.75,-273.54C1295.69,-263.91 1281.87,-251.87 1272.64,-243.83"/>
<polygon fill="midnightblue" stroke="midnightblue" points="1304.7,-276.4 1314.54,-280.32 1309.3,-271.12 1304.7,-276.4"/>
</g>
<!-- Node30 -->
<g id="node30" class="node">
<title>Node30</title>
<g id="a_node30"><a xlink:href="../../d8/dd2/MCP23017Encoders_8hpp.html" target="_top" xlink:title=" ">
<polygon fill="white" stroke="black" points="1752.5,-224.5 1752.5,-243.5 1886.5,-243.5 1886.5,-224.5 1752.5,-224.5"/>
<text text-anchor="middle" x="1819.5" y="-231.5" font-family="Helvetica,sans-Serif" font-size="10.00">MCP23017Encoders.hpp</text>
</a>
</g>
</g>
<!-- Node2&#45;&gt;Node30 -->
<g id="edge38" class="edge">
<title>Node2&#45;&gt;Node30</title>
<path fill="none" stroke="midnightblue" d="M1405.37,-280.27C1488.82,-271.24 1622.77,-256.72 1738.5,-244 1743,-243.51 1747.64,-242.99 1752.32,-242.48"/>
<polygon fill="midnightblue" stroke="midnightblue" points="1404.76,-276.81 1395.2,-281.37 1405.51,-283.77 1404.76,-276.81"/>
</g>
<!-- Node5 -->
<g id="node5" class="node">
<title>Node5</title>
<g id="a_node5"><a xlink:href="../../de/dd1/Button_8cpp.html" target="_top" xlink:title=" ">
<polygon fill="white" stroke="black" points="334,-168.5 334,-187.5 403,-187.5 403,-168.5 334,-168.5"/>
<text text-anchor="middle" x="368.5" y="-175.5" font-family="Helvetica,sans-Serif" font-size="10.00">Button.cpp</text>
</a>
</g>
</g>
<!-- Node4&#45;&gt;Node5 -->
<g id="edge4" class="edge">
<title>Node4&#45;&gt;Node5</title>
<path fill="none" stroke="midnightblue" d="M317.09,-218.1C329.87,-208.38 346.11,-196.03 356.89,-187.83"/>
<polygon fill="midnightblue" stroke="midnightblue" points="314.75,-215.48 308.91,-224.32 318.99,-221.06 314.75,-215.48"/>
</g>
<!-- Node6 -->
<g id="node6" class="node">
<title>Node6</title>
<g id="a_node6"><a xlink:href="../../d5/d04/IncrementButton_8hpp.html" target="_top" xlink:title=" ">
<polygon fill="white" stroke="black" points="0,-168.5 0,-187.5 119,-187.5 119,-168.5 0,-168.5"/>
<text text-anchor="middle" x="59.5" y="-175.5" font-family="Helvetica,sans-Serif" font-size="10.00">IncrementButton.hpp</text>
</a>
</g>
</g>
<!-- Node4&#45;&gt;Node6 -->
<g id="edge5" class="edge">
<title>Node4&#45;&gt;Node6</title>
<path fill="none" stroke="midnightblue" d="M252.61,-222.81C207.67,-212.62 139.3,-197.11 97.12,-187.54"/>
<polygon fill="midnightblue" stroke="midnightblue" points="251.86,-226.23 262.38,-225.03 253.4,-219.41 251.86,-226.23"/>
</g>
<!-- Node8 -->
<g id="node8" class="node">
<title>Node8</title>
<g id="a_node8"><a xlink:href="../../df/df5/IncrementDecrementButtons_8hpp.html" target="_top" xlink:title=" ">
<polygon fill="white" stroke="black" points="137,-168.5 137,-187.5 316,-187.5 316,-168.5 137,-168.5"/>
<text text-anchor="middle" x="226.5" y="-175.5" font-family="Helvetica,sans-Serif" font-size="10.00">IncrementDecrementButtons.hpp</text>
</a>
</g>
</g>
<!-- Node4&#45;&gt;Node8 -->
<g id="edge7" class="edge">
<title>Node4&#45;&gt;Node8</title>
<path fill="none" stroke="midnightblue" d="M277.91,-218.1C265.13,-208.38 248.89,-196.03 238.11,-187.83"/>
<polygon fill="midnightblue" stroke="midnightblue" points="276.01,-221.06 286.09,-224.32 280.25,-215.48 276.01,-221.06"/>
</g>
<!-- Node7 -->
<g id="node7" class="node">
<title>Node7</title>
<g id="a_node7"><a xlink:href="../../db/d9d/IncrementButton_8cpp.html" target="_top" xlink:title=" ">
<polygon fill="white" stroke="black" points="0,-112.5 0,-131.5 119,-131.5 119,-112.5 0,-112.5"/>
<text text-anchor="middle" x="59.5" y="-119.5" font-family="Helvetica,sans-Serif" font-size="10.00">IncrementButton.cpp</text>
</a>
</g>
</g>
<!-- Node6&#45;&gt;Node7 -->
<g id="edge6" class="edge">
<title>Node6&#45;&gt;Node7</title>
<path fill="none" stroke="midnightblue" d="M59.5,-157.8C59.5,-148.91 59.5,-138.78 59.5,-131.75"/>
<polygon fill="midnightblue" stroke="midnightblue" points="56,-158.08 59.5,-168.08 63,-158.08 56,-158.08"/>
</g>
<!-- Node9 -->
<g id="node9" class="node">
<title>Node9</title>
<g id="a_node9"><a xlink:href="../../da/d66/IncrementDecrementButtons_8cpp.html" target="_top" xlink:title=" ">
<polygon fill="white" stroke="black" points="137.5,-112.5 137.5,-131.5 315.5,-131.5 315.5,-112.5 137.5,-112.5"/>
<text text-anchor="middle" x="226.5" y="-119.5" font-family="Helvetica,sans-Serif" font-size="10.00">IncrementDecrementButtons.cpp</text>
</a>
</g>
</g>
<!-- Node8&#45;&gt;Node9 -->
<g id="edge8" class="edge">
<title>Node8&#45;&gt;Node9</title>
<path fill="none" stroke="midnightblue" d="M226.5,-157.8C226.5,-148.91 226.5,-138.78 226.5,-131.75"/>
<polygon fill="midnightblue" stroke="midnightblue" points="223,-158.08 226.5,-168.08 230,-158.08 223,-158.08"/>
</g>
<!-- Node11 -->
<g id="node11" class="node">
<title>Node11</title>
<g id="a_node11"><a xlink:href="../../d9/d4b/ButtonMatrix_8hpp.html" target="_top" xlink:title=" ">
<polygon fill="white" stroke="black" points="460,-168.5 460,-187.5 561,-187.5 561,-168.5 460,-168.5"/>
<text text-anchor="middle" x="510.5" y="-175.5" font-family="Helvetica,sans-Serif" font-size="10.00">ButtonMatrix.hpp</text>
</a>
</g>
</g>
<!-- Node10&#45;&gt;Node11 -->
<g id="edge10" class="edge">
<title>Node10&#45;&gt;Node11</title>
<path fill="none" stroke="midnightblue" d="M504.03,-214.1C503.4,-205.14 503.84,-194.86 505.37,-187.75"/>
<polygon fill="midnightblue" stroke="midnightblue" points="500.57,-214.62 505.33,-224.08 507.51,-213.71 500.57,-214.62"/>
</g>
<!-- Node11&#45;&gt;Node10 -->
<g id="edge11" class="edge">
<title>Node11&#45;&gt;Node10</title>
<path fill="none" stroke="midnightblue" d="M516.96,-197.69C517.61,-206.64 517.18,-216.93 515.67,-224.08"/>
<polygon fill="midnightblue" stroke="midnightblue" points="520.42,-197.2 515.63,-187.75 513.48,-198.13 520.42,-197.2"/>
</g>
<!-- Node13 -->
<g id="node13" class="node">
<title>Node13</title>
<g id="a_node13"><a xlink:href="../../da/d1f/ExtendedIOElement_8cpp.html" target="_top" xlink:title=" ">
<polygon fill="white" stroke="black" points="617.5,-168.5 617.5,-187.5 751.5,-187.5 751.5,-168.5 617.5,-168.5"/>
<text text-anchor="middle" x="684.5" y="-175.5" font-family="Helvetica,sans-Serif" font-size="10.00">ExtendedIOElement.cpp</text>
</a>
</g>
</g>
<!-- Node12&#45;&gt;Node13 -->
<g id="edge13" class="edge">
<title>Node12&#45;&gt;Node13</title>
<path fill="none" stroke="midnightblue" d="M858.19,-222.02C817.01,-211.82 756.53,-196.84 718.88,-187.52"/>
<polygon fill="midnightblue" stroke="midnightblue" points="857.41,-225.44 867.96,-224.44 859.09,-218.64 857.41,-225.44"/>
</g>
<!-- Node12&#45;&gt;Node14 -->
<g id="edge14" class="edge">
<title>Node12&#45;&gt;Node14</title>
<path fill="none" stroke="midnightblue" d="M933.52,-220.77C959.26,-210.63 995.19,-196.47 1017.89,-187.52"/>
<polygon fill="midnightblue" stroke="midnightblue" points="932.23,-217.52 924.21,-224.44 934.79,-224.03 932.23,-217.52"/>
</g>
<!-- Node15 -->
<g id="node15" class="node">
<title>Node15</title>
<g id="a_node15"><a xlink:href="../../d2/d05/StaticSizeExtendedIOElement_8hpp.html" target="_top" xlink:title=" ">
<polygon fill="white" stroke="black" points="769.5,-168.5 769.5,-187.5 951.5,-187.5 951.5,-168.5 769.5,-168.5"/>
<text text-anchor="middle" x="860.5" y="-175.5" font-family="Helvetica,sans-Serif" font-size="10.00">StaticSizeExtendedIOElement.hpp</text>
</a>
</g>
</g>
<!-- Node12&#45;&gt;Node15 -->
<g id="edge15" class="edge">
<title>Node12&#45;&gt;Node15</title>
<path fill="none" stroke="midnightblue" d="M889.39,-216.14C882.07,-206.74 873.26,-195.4 867.31,-187.75"/>
<polygon fill="midnightblue" stroke="midnightblue" points="886.66,-218.34 895.56,-224.08 892.19,-214.04 886.66,-218.34"/>
</g>
<!-- Node15&#45;&gt;Node3 -->
<g id="edge16" class="edge">
<title>Node15&#45;&gt;Node3</title>
<path fill="none" stroke="midnightblue" d="M785.38,-167.13C705.51,-156.64 580.88,-140.26 508,-130.69"/>
<polygon fill="midnightblue" stroke="midnightblue" points="785.01,-170.61 795.38,-168.44 785.92,-163.67 785.01,-170.61"/>
</g>
<!-- Node16 -->
<g id="node16" class="node">
<title>Node16</title>
<g id="a_node16"><a xlink:href="../../d2/d25/MAX7219_8hpp.html" target="_top" xlink:title=" ">
<polygon fill="white" stroke="black" points="956.5,-112.5 956.5,-131.5 1040.5,-131.5 1040.5,-112.5 956.5,-112.5"/>
<text text-anchor="middle" x="998.5" y="-119.5" font-family="Helvetica,sans-Serif" font-size="10.00">MAX7219.hpp</text>
</a>
</g>
</g>
<!-- Node15&#45;&gt;Node16 -->
<g id="edge17" class="edge">
<title>Node15&#45;&gt;Node16</title>
<path fill="none" stroke="midnightblue" d="M891.75,-164.77C917.67,-154.63 953.86,-140.47 976.74,-131.52"/>
<polygon fill="midnightblue" stroke="midnightblue" points="890.4,-161.54 882.37,-168.44 892.95,-168.06 890.4,-161.54"/>
</g>
<!-- Node15&#45;&gt;Node17 -->
<g id="edge18" class="edge">
<title>Node15&#45;&gt;Node17</title>
<path fill="none" stroke="midnightblue" d="M829.37,-164.64C803.84,-154.5 768.39,-140.43 745.95,-131.52"/>
<polygon fill="midnightblue" stroke="midnightblue" points="828.36,-168.01 838.95,-168.44 830.95,-161.5 828.36,-168.01"/>
</g>
<!-- Node15&#45;&gt;Node19 -->
<g id="edge21" class="edge">
<title>Node15&#45;&gt;Node19</title>
<path fill="none" stroke="midnightblue" d="M950.29,-167.38C1048.53,-156.85 1203.96,-140.2 1293.88,-130.57"/>
<polygon fill="midnightblue" stroke="midnightblue" points="949.65,-163.93 940.08,-168.47 950.4,-170.89 949.65,-163.93"/>
</g>
<!-- Node18 -->
<g id="node18" class="node">
<title>Node18</title>
<g id="a_node18"><a xlink:href="../../d2/d94/MCP23017_8ipp.html" target="_top" xlink:title=" ">
<polygon fill="white" stroke="black" points="681.5,-56.5 681.5,-75.5 767.5,-75.5 767.5,-56.5 681.5,-56.5"/>
<text text-anchor="middle" x="724.5" y="-63.5" font-family="Helvetica,sans-Serif" font-size="10.00">MCP23017.ipp</text>
</a>
</g>
</g>
<!-- Node17&#45;&gt;Node18 -->
<g id="edge19" class="edge">
<title>Node17&#45;&gt;Node18</title>
<path fill="none" stroke="midnightblue" d="M718.03,-102.1C717.4,-93.14 717.84,-82.86 719.37,-75.75"/>
<polygon fill="midnightblue" stroke="midnightblue" points="714.57,-102.62 719.33,-112.08 721.51,-101.71 714.57,-102.62"/>
</g>
<!-- Node18&#45;&gt;Node17 -->
<g id="edge20" class="edge">
<title>Node18&#45;&gt;Node17</title>
<path fill="none" stroke="midnightblue" d="M730.96,-85.69C731.61,-94.64 731.18,-104.93 729.67,-112.08"/>
<polygon fill="midnightblue" stroke="midnightblue" points="734.42,-85.2 729.63,-75.75 727.48,-86.13 734.42,-85.2"/>
</g>
<!-- Node20 -->
<g id="node20" class="node">
<title>Node20</title>
<g id="a_node20"><a xlink:href="../../d7/d88/SPIShiftRegisterOut_8hpp.html" target="_top" xlink:title=" ">
<polygon fill="white" stroke="black" points="1272.5,-56.5 1272.5,-75.5 1404.5,-75.5 1404.5,-56.5 1272.5,-56.5"/>
<text text-anchor="middle" x="1338.5" y="-63.5" font-family="Helvetica,sans-Serif" font-size="10.00">SPIShiftRegisterOut.hpp</text>
</a>
</g>
</g>
<!-- Node19&#45;&gt;Node20 -->
<g id="edge22" class="edge">
<title>Node19&#45;&gt;Node20</title>
<path fill="none" stroke="midnightblue" d="M1355.83,-102.98C1351.41,-93.82 1346.25,-83.09 1342.71,-75.75"/>
<polygon fill="midnightblue" stroke="midnightblue" points="1352.71,-104.59 1360.21,-112.08 1359.02,-101.55 1352.71,-104.59"/>
</g>
<!-- Node22 -->
<g id="node22" class="node">
<title>Node22</title>
<g id="a_node22"><a xlink:href="../../d0/db4/ShiftRegisterOut_8hpp.html" target="_top" xlink:title=" ">
<polygon fill="white" stroke="black" points="1423,-56.5 1423,-75.5 1540,-75.5 1540,-56.5 1423,-56.5"/>
<text text-anchor="middle" x="1481.5" y="-63.5" font-family="Helvetica,sans-Serif" font-size="10.00">ShiftRegisterOut.hpp</text>
</a>
</g>
</g>
<!-- Node19&#45;&gt;Node22 -->
<g id="edge25" class="edge">
<title>Node19&#45;&gt;Node22</title>
<path fill="none" stroke="midnightblue" d="M1392.16,-108.23C1414.05,-98.13 1444,-84.31 1463.05,-75.52"/>
<polygon fill="midnightblue" stroke="midnightblue" points="1390.65,-105.08 1383.04,-112.44 1393.59,-111.43 1390.65,-105.08"/>
</g>
<!-- Node19&#45;&gt;Node24 -->
<g id="edge28" class="edge">
<title>Node19&#45;&gt;Node24</title>
<path fill="none" stroke="midnightblue" d="M1410.89,-110.35C1458.8,-100.14 1532.97,-84.94 1580.94,-75.52"/>
<polygon fill="midnightblue" stroke="midnightblue" points="1410.13,-106.93 1401.08,-112.44 1411.6,-113.77 1410.13,-106.93"/>
</g>
<!-- Node20&#45;&gt;Node21 -->
<g id="edge23" class="edge">
<title>Node20&#45;&gt;Node21</title>
<path fill="none" stroke="midnightblue" d="M1332.03,-46.1C1331.4,-37.14 1331.84,-26.86 1333.37,-19.75"/>
<polygon fill="midnightblue" stroke="midnightblue" points="1328.57,-46.62 1333.33,-56.08 1335.51,-45.71 1328.57,-46.62"/>
</g>
<!-- Node21&#45;&gt;Node20 -->
<g id="edge24" class="edge">
<title>Node21&#45;&gt;Node20</title>
<path fill="none" stroke="midnightblue" d="M1344.96,-29.69C1345.61,-38.64 1345.18,-48.93 1343.67,-56.08"/>
<polygon fill="midnightblue" stroke="midnightblue" points="1348.42,-29.2 1343.63,-19.75 1341.48,-30.13 1348.42,-29.2"/>
</g>
<!-- Node22&#45;&gt;Node23 -->
<g id="edge26" class="edge">
<title>Node22&#45;&gt;Node23</title>
<path fill="none" stroke="midnightblue" d="M1475.03,-46.1C1474.4,-37.14 1474.84,-26.86 1476.37,-19.75"/>
<polygon fill="midnightblue" stroke="midnightblue" points="1471.57,-46.62 1476.33,-56.08 1478.51,-45.71 1471.57,-46.62"/>
</g>
<!-- Node23&#45;&gt;Node22 -->
<g id="edge27" class="edge">
<title>Node23&#45;&gt;Node22</title>
<path fill="none" stroke="midnightblue" d="M1487.96,-29.69C1488.61,-38.64 1488.18,-48.93 1486.67,-56.08"/>
<polygon fill="midnightblue" stroke="midnightblue" points="1491.42,-29.2 1486.63,-19.75 1484.48,-30.13 1491.42,-29.2"/>
</g>
<!-- Node24&#45;&gt;Node19 -->
<g id="edge29" class="edge">
<title>Node24&#45;&gt;Node19</title>
<path fill="none" stroke="midnightblue" d="M1581.31,-77.61C1533.48,-87.8 1459.31,-103 1411.26,-112.44"/>
<polygon fill="midnightblue" stroke="midnightblue" points="1582.06,-81.03 1591.1,-75.52 1580.59,-74.19 1582.06,-81.03"/>
</g>
<!-- Node27 -->
<g id="node27" class="node">
<title>Node27</title>
<g id="a_node27"><a xlink:href="../../d6/d3a/DotBarDisplayLEDs_8hpp.html" target="_top" xlink:title=" ">
<polygon fill="white" stroke="black" points="1564.5,-168.5 1564.5,-187.5 1696.5,-187.5 1696.5,-168.5 1564.5,-168.5"/>
<text text-anchor="middle" x="1630.5" y="-175.5" font-family="Helvetica,sans-Serif" font-size="10.00">DotBarDisplayLEDs.hpp</text>
</a>
</g>
</g>
<!-- Node26&#45;&gt;Node27 -->
<g id="edge33" class="edge">
<title>Node26&#45;&gt;Node27</title>
<path fill="none" stroke="midnightblue" d="M1642.3,-214.4C1639.29,-205.36 1635.81,-194.94 1633.42,-187.75"/>
<polygon fill="midnightblue" stroke="midnightblue" points="1639.04,-215.7 1645.53,-224.08 1645.69,-213.49 1639.04,-215.7"/>
</g>
<!-- Node28&#45;&gt;Node16 -->
<g id="edge35" class="edge">
<title>Node28&#45;&gt;Node16</title>
<path fill="none" stroke="midnightblue" d="M1231.99,-220.58C1210.9,-211.83 1182.29,-199.65 1157.5,-188 1139.87,-179.71 1136.32,-175.88 1118.5,-168 1086.55,-153.87 1048.66,-140.15 1024.12,-131.65"/>
<polygon fill="midnightblue" stroke="midnightblue" points="1230.81,-223.88 1241.39,-224.46 1233.48,-217.41 1230.81,-223.88"/>
</g>
<!-- Node29 -->
<g id="node29" class="node">
<title>Node29</title>
<g id="a_node29"><a xlink:href="../../d5/d0c/MAX7219SevenSegmentDisplay_8hpp.html" target="_top" xlink:title=" ">
<polygon fill="white" stroke="black" points="1166,-168.5 1166,-187.5 1359,-187.5 1359,-168.5 1166,-168.5"/>
<text text-anchor="middle" x="1262.5" y="-175.5" font-family="Helvetica,sans-Serif" font-size="10.00">MAX7219SevenSegmentDisplay.hpp</text>
</a>
</g>
</g>
<!-- Node28&#45;&gt;Node29 -->
<g id="edge36" class="edge">
<title>Node28&#45;&gt;Node29</title>
<path fill="none" stroke="midnightblue" d="M1262.5,-213.8C1262.5,-204.91 1262.5,-194.78 1262.5,-187.75"/>
<polygon fill="midnightblue" stroke="midnightblue" points="1259,-214.08 1262.5,-224.08 1266,-214.08 1259,-214.08"/>
</g>
</g>
</svg>
