<?xml version="1.0" encoding="UTF-8" standalone="no"?>
<!DOCTYPE svg PUBLIC "-//W3C//DTD SVG 1.1//EN"
 "http://www.w3.org/Graphics/SVG/1.1/DTD/svg11.dtd">
<!-- Generated by graphviz version 2.40.1 (20161225.0304)
 -->
<!-- Title: MillisMicrosTimer.hpp Pages: 1 -->
<svg width="435pt" height="252pt"
 viewBox="0.00 0.00 435.05 252.00" xmlns="http://www.w3.org/2000/svg" xmlns:xlink="http://www.w3.org/1999/xlink">
<g id="graph0" class="graph" transform="scale(1 1) rotate(0) translate(4 248)">
<title>MillisMicrosTimer.hpp</title>
<polygon fill="#ffffff" stroke="transparent" points="-4,4 -4,-248 431.0532,-248 431.0532,4 -4,4"/>
<!-- Node1 -->
<g id="node1" class="node">
<title>Node1</title>
<g id="a_node1"><a xlink:title=" ">
<polygon fill="#bfbfbf" stroke="#000000" points="297.7414,-224.5 297.7414,-243.5 409.7414,-243.5 409.7414,-224.5 297.7414,-224.5"/>
<text text-anchor="middle" x="353.7414" y="-231.5" font-family="Helvetica,sans-Serif" font-size="10.00" fill="#000000">MillisMicrosTimer.hpp</text>
</a>
</g>
</g>
<!-- Node2 -->
<g id="node2" class="node">
<title>Node2</title>
<g id="a_node2"><a xlink:href="../../d1/d65/Warnings_8hpp.html" target="_top" xlink:title=" ">
<polygon fill="#ffffff" stroke="#000000" points="129.2414,-.5 129.2414,-19.5 262.2414,-19.5 262.2414,-.5 129.2414,-.5"/>
<text text-anchor="middle" x="195.7414" y="-7.5" font-family="Helvetica,sans-Serif" font-size="10.00" fill="#000000">AH/Settings/Warnings.hpp</text>
</a>
</g>
</g>
<!-- Node1&#45;&gt;Node2 -->
<g id="edge1" class="edge">
<title>Node1&#45;&gt;Node2</title>
<path fill="none" stroke="#191970" d="M362.5783,-224.381C387.8638,-195.6858 455.9863,-109.3729 412.7414,-56 395.1389,-34.275 327.6852,-22.3956 272.5985,-16.1824"/>
<polygon fill="#191970" stroke="#191970" points="272.7897,-12.6828 262.4713,-15.0871 272.037,-19.6422 272.7897,-12.6828"/>
</g>
<!-- Node3 -->
<g id="node3" class="node">
<title>Node3</title>
<g id="a_node3"><a xlink:href="../../d6/ddf/Arduino-Wrapper_8h.html" target="_top" xlink:title=" ">
<polygon fill="#ffffff" stroke="#000000" points="148.2414,-168.5 148.2414,-187.5 263.2414,-187.5 263.2414,-168.5 148.2414,-168.5"/>
<text text-anchor="middle" x="205.7414" y="-175.5" font-family="Helvetica,sans-Serif" font-size="10.00" fill="#000000">AH/Arduino&#45;Wrapper.h</text>
</a>
</g>
</g>
<!-- Node1&#45;&gt;Node3 -->
<g id="edge2" class="edge">
<title>Node1&#45;&gt;Node3</title>
<path fill="none" stroke="#191970" d="M328.2993,-224.3733C304.0088,-215.1822 267.2206,-201.2624 240.2871,-191.0713"/>
<polygon fill="#191970" stroke="#191970" points="241.443,-187.7666 230.8515,-187.5011 238.9657,-194.3136 241.443,-187.7666"/>
</g>
<!-- Node7 -->
<g id="node7" class="node">
<title>Node7</title>
<g id="a_node7"><a xlink:href="../../dc/dc7/NamespaceSettings_8hpp.html" target="_top" xlink:title=" ">
<polygon fill="#ffffff" stroke="#000000" points="223.7414,-56.5 223.7414,-75.5 403.7414,-75.5 403.7414,-56.5 223.7414,-56.5"/>
<text text-anchor="middle" x="313.7414" y="-63.5" font-family="Helvetica,sans-Serif" font-size="10.00" fill="#000000">AH/Settings/NamespaceSettings.hpp</text>
</a>
</g>
</g>
<!-- Node1&#45;&gt;Node7 -->
<g id="edge11" class="edge">
<title>Node1&#45;&gt;Node7</title>
<path fill="none" stroke="#191970" d="M352.9749,-224.3285C351.1438,-203.4538 345.7432,-152.7674 333.7414,-112 331.0138,-102.7351 326.8959,-92.8643 323.1041,-84.6514"/>
<polygon fill="#191970" stroke="#191970" points="326.2437,-83.1039 318.7563,-75.608 319.9349,-86.137 326.2437,-83.1039"/>
</g>
<!-- Node4 -->
<g id="node4" class="node">
<title>Node4</title>
<g id="a_node4"><a xlink:href="../../d7/d79/MinMaxFix_8hpp.html" target="_top" xlink:title=" ">
<polygon fill="#ffffff" stroke="#000000" points="81.2414,-112.5 81.2414,-131.5 206.2414,-131.5 206.2414,-112.5 81.2414,-112.5"/>
<text text-anchor="middle" x="143.7414" y="-119.5" font-family="Helvetica,sans-Serif" font-size="10.00" fill="#000000">AH/Math/MinMaxFix.hpp</text>
</a>
</g>
</g>
<!-- Node3&#45;&gt;Node4 -->
<g id="edge3" class="edge">
<title>Node3&#45;&gt;Node4</title>
<path fill="none" stroke="#191970" d="M194.9418,-168.2455C185.8736,-160.0549 172.7208,-148.1749 162.0169,-138.5069"/>
<polygon fill="#191970" stroke="#191970" points="164.1843,-135.7482 154.4172,-131.6427 159.4923,-140.9429 164.1843,-135.7482"/>
</g>
<!-- Node6 -->
<g id="node6" class="node">
<title>Node6</title>
<g id="a_node6"><a xlink:title=" ">
<polygon fill="#ffffff" stroke="#bfbfbf" points="3.7414,-.5 3.7414,-19.5 61.7414,-19.5 61.7414,-.5 3.7414,-.5"/>
<text text-anchor="middle" x="32.7414" y="-7.5" font-family="Helvetica,sans-Serif" font-size="10.00" fill="#000000">Arduino.h</text>
</a>
</g>
</g>
<!-- Node3&#45;&gt;Node6 -->
<g id="edge10" class="edge">
<title>Node3&#45;&gt;Node6</title>
<path fill="none" stroke="#191970" d="M148.1564,-168.6709C97.9034,-156.9438 29.0305,-131.1938 2.7414,-76 -4.984,-59.7806 5.2314,-41.1303 15.7831,-27.8019"/>
<polygon fill="#191970" stroke="#191970" points="18.7181,-29.7566 22.5805,-19.8909 13.4088,-25.1947 18.7181,-29.7566"/>
</g>
<!-- Node8 -->
<g id="node8" class="node">
<title>Node8</title>
<g id="a_node8"><a xlink:title=" ">
<polygon fill="#ffffff" stroke="#bfbfbf" points="224.2414,-112.5 224.2414,-131.5 325.2414,-131.5 325.2414,-112.5 224.2414,-112.5"/>
<text text-anchor="middle" x="274.7414" y="-119.5" font-family="Helvetica,sans-Serif" font-size="10.00" fill="#000000">AH/STL/type_traits</text>
</a>
</g>
</g>
<!-- Node3&#45;&gt;Node8 -->
<g id="edge9" class="edge">
<title>Node3&#45;&gt;Node8</title>
<path fill="none" stroke="#191970" d="M217.7603,-168.2455C227.9512,-159.9746 242.7776,-147.9416 254.7521,-138.2232"/>
<polygon fill="#191970" stroke="#191970" points="257.3012,-140.662 262.8602,-131.6427 252.89,-135.2268 257.3012,-140.662"/>
</g>
<!-- Node4&#45;&gt;Node2 -->
<g id="edge4" class="edge">
<title>Node4&#45;&gt;Node2</title>
<path fill="none" stroke="#191970" d="M152.1392,-112.3984C159.539,-103.5003 170.14,-89.6206 176.7414,-76 183.8919,-61.2464 188.8424,-43.3013 191.8934,-29.8493"/>
<polygon fill="#191970" stroke="#191970" points="195.3791,-30.2818 194.0161,-19.775 188.5295,-28.8385 195.3791,-30.2818"/>
</g>
<!-- Node5 -->
<g id="node5" class="node">
<title>Node5</title>
<g id="a_node5"><a xlink:href="../../d6/d3b/FixArduinoMacros_8hpp.html" target="_top" xlink:title=" ">
<polygon fill="#ffffff" stroke="#000000" points="11.7414,-56.5 11.7414,-75.5 167.7414,-75.5 167.7414,-56.5 11.7414,-56.5"/>
<text text-anchor="middle" x="89.7414" y="-63.5" font-family="Helvetica,sans-Serif" font-size="10.00" fill="#000000">AH/Math/FixArduinoMacros.hpp</text>
</a>
</g>
</g>
<!-- Node4&#45;&gt;Node5 -->
<g id="edge5" class="edge">
<title>Node4&#45;&gt;Node5</title>
<path fill="none" stroke="#191970" d="M134.3353,-112.2455C126.5921,-104.2155 115.4294,-92.6394 106.2096,-83.0781"/>
<polygon fill="#191970" stroke="#191970" points="108.5005,-80.4117 99.0397,-75.6427 103.4616,-85.2706 108.5005,-80.4117"/>
</g>
<!-- Node4&#45;&gt;Node7 -->
<g id="edge8" class="edge">
<title>Node4&#45;&gt;Node7</title>
<path fill="none" stroke="#191970" d="M172.9654,-112.3733C201.2339,-103.0613 244.2379,-88.8953 275.2758,-78.671"/>
<polygon fill="#191970" stroke="#191970" points="276.4958,-81.9542 284.8987,-75.5011 274.3057,-75.3056 276.4958,-81.9542"/>
</g>
<!-- Node5&#45;&gt;Node2 -->
<g id="edge6" class="edge">
<title>Node5&#45;&gt;Node2</title>
<path fill="none" stroke="#191970" d="M108.2052,-56.2455C124.8488,-47.4527 149.5407,-34.4079 168.4606,-24.4125"/>
<polygon fill="#191970" stroke="#191970" points="170.2822,-27.4086 177.4892,-19.6427 167.0123,-21.2193 170.2822,-27.4086"/>
</g>
<!-- Node5&#45;&gt;Node6 -->
<g id="edge7" class="edge">
<title>Node5&#45;&gt;Node6</title>
<path fill="none" stroke="#191970" d="M79.8128,-56.2455C71.5576,-48.1352 59.6205,-36.4075 49.8332,-26.7919"/>
<polygon fill="#191970" stroke="#191970" points="52.1425,-24.1542 42.5563,-19.6427 47.2368,-29.1476 52.1425,-24.1542"/>
</g>
</g>
</svg>
