<?xml version="1.0" encoding="UTF-8" standalone="no"?>
<!DOCTYPE svg PUBLIC "-//W3C//DTD SVG 1.1//EN"
 "http://www.w3.org/Graphics/SVG/1.1/DTD/svg11.dtd">
<!-- Generated by graphviz version 2.43.0 (0)
 -->
<!-- Title: ExtendedInputOutput.hpp Pages: 1 -->
<svg width="2039pt" height="308pt"
 viewBox="0.00 0.00 2038.50 308.00" xmlns="http://www.w3.org/2000/svg" xmlns:xlink="http://www.w3.org/1999/xlink">
<g id="graph0" class="graph" transform="scale(1 1) rotate(0) translate(4 304)">
<title>ExtendedInputOutput.hpp</title>
<polygon fill="white" stroke="transparent" points="-4,4 -4,-304 2034.5,-304 2034.5,4 -4,4"/>
<!-- Node1 -->
<g id="node1" class="node">
<title>Node1</title>
<g id="a_node1"><a xlink:title=" ">
<polygon fill="#bfbfbf" stroke="black" points="1406,-280.5 1406,-299.5 1547,-299.5 1547,-280.5 1406,-280.5"/>
<text text-anchor="middle" x="1476.5" y="-287.5" font-family="Helvetica,sans-Serif" font-size="10.00">ExtendedInputOutput.hpp</text>
</a>
</g>
</g>
<!-- Node2 -->
<g id="node2" class="node">
<title>Node2</title>
<g id="a_node2"><a xlink:href="../../d7/def/AnalogMultiplex_8hpp.html" target="_top" xlink:title=" ">
<polygon fill="white" stroke="black" points="543,-112.5 543,-131.5 660,-131.5 660,-112.5 543,-112.5"/>
<text text-anchor="middle" x="601.5" y="-119.5" font-family="Helvetica,sans-Serif" font-size="10.00">AnalogMultiplex.hpp</text>
</a>
</g>
</g>
<!-- Node1&#45;&gt;Node2 -->
<g id="edge1" class="edge">
<title>Node1&#45;&gt;Node2</title>
<path fill="none" stroke="midnightblue" d="M1395.87,-287.76C1185.09,-284.12 632.01,-271.95 604.5,-244 574.13,-213.15 590.7,-153.6 598.32,-131.51"/>
<polygon fill="midnightblue" stroke="midnightblue" points="1395.89,-291.26 1405.94,-287.93 1396.01,-284.26 1395.89,-291.26"/>
</g>
<!-- Node3 -->
<g id="node3" class="node">
<title>Node3</title>
<g id="a_node3"><a xlink:href="../../d4/db3/Button_8hpp.html" target="_top" xlink:title=" ">
<polygon fill="white" stroke="black" points="278.5,-224.5 278.5,-243.5 348.5,-243.5 348.5,-224.5 278.5,-224.5"/>
<text text-anchor="middle" x="313.5" y="-231.5" font-family="Helvetica,sans-Serif" font-size="10.00">Button.hpp</text>
</a>
</g>
</g>
<!-- Node1&#45;&gt;Node3 -->
<g id="edge2" class="edge">
<title>Node1&#45;&gt;Node3</title>
<path fill="none" stroke="midnightblue" d="M1395.93,-285.26C1165.2,-274.55 508.3,-244.04 348.74,-236.64"/>
<polygon fill="midnightblue" stroke="midnightblue" points="1395.78,-288.76 1405.93,-285.72 1396.11,-281.76 1395.78,-288.76"/>
</g>
<!-- Node10 -->
<g id="node10" class="node">
<title>Node10</title>
<g id="a_node10"><a xlink:href="../../d5/d41/ButtonMatrix_8ipp.html" target="_top" xlink:title=" ">
<polygon fill="white" stroke="black" points="613.5,-224.5 613.5,-243.5 711.5,-243.5 711.5,-224.5 613.5,-224.5"/>
<text text-anchor="middle" x="662.5" y="-231.5" font-family="Helvetica,sans-Serif" font-size="10.00">ButtonMatrix.ipp</text>
</a>
</g>
</g>
<!-- Node1&#45;&gt;Node10 -->
<g id="edge9" class="edge">
<title>Node1&#45;&gt;Node10</title>
<path fill="none" stroke="midnightblue" d="M1395.85,-286.21C1258.42,-280.99 970.16,-268.05 727.5,-244 722.4,-243.49 717.08,-242.89 711.78,-242.23"/>
<polygon fill="midnightblue" stroke="midnightblue" points="1395.75,-289.71 1405.88,-286.58 1396.02,-282.71 1395.75,-289.71"/>
</g>
<!-- Node12 -->
<g id="node12" class="node">
<title>Node12</title>
<g id="a_node12"><a xlink:href="../../d4/d57/ExtendedIOElement_8hpp.html" target="_top" xlink:title=" ">
<polygon fill="white" stroke="black" points="999.5,-224.5 999.5,-243.5 1133.5,-243.5 1133.5,-224.5 999.5,-224.5"/>
<text text-anchor="middle" x="1066.5" y="-231.5" font-family="Helvetica,sans-Serif" font-size="10.00">ExtendedIOElement.hpp</text>
</a>
</g>
</g>
<!-- Node1&#45;&gt;Node12 -->
<g id="edge12" class="edge">
<title>Node1&#45;&gt;Node12</title>
<path fill="none" stroke="midnightblue" d="M1401.37,-279.1C1323.94,-268.91 1204.51,-253.18 1131.16,-243.52"/>
<polygon fill="midnightblue" stroke="midnightblue" points="1401.16,-282.61 1411.53,-280.44 1402.08,-275.67 1401.16,-282.61"/>
</g>
<!-- Node14 -->
<g id="node14" class="node">
<title>Node14</title>
<g id="a_node14"><a xlink:href="../../d6/d3c/ExtendedInputOutput_8cpp.html" target="_top" xlink:title=" ">
<polygon fill="white" stroke="black" points="1121.5,-168.5 1121.5,-187.5 1261.5,-187.5 1261.5,-168.5 1121.5,-168.5"/>
<text text-anchor="middle" x="1191.5" y="-175.5" font-family="Helvetica,sans-Serif" font-size="10.00">ExtendedInputOutput.cpp</text>
</a>
</g>
</g>
<!-- Node1&#45;&gt;Node14 -->
<g id="edge30" class="edge">
<title>Node1&#45;&gt;Node14</title>
<path fill="none" stroke="midnightblue" d="M1441.43,-277.1C1415.83,-268.28 1380.36,-255.81 1349.5,-244 1299.36,-224.82 1241.14,-200.27 1211.33,-187.53"/>
<polygon fill="midnightblue" stroke="midnightblue" points="1440.47,-280.47 1451.06,-280.4 1442.74,-273.85 1440.47,-280.47"/>
</g>
<!-- Node17 -->
<g id="node17" class="node">
<title>Node17</title>
<g id="a_node17"><a xlink:href="../../d7/dca/MCP23017_8hpp.html" target="_top" xlink:title=" ">
<polygon fill="white" stroke="black" points="756,-112.5 756,-131.5 845,-131.5 845,-112.5 756,-112.5"/>
<text text-anchor="middle" x="800.5" y="-119.5" font-family="Helvetica,sans-Serif" font-size="10.00">MCP23017.hpp</text>
</a>
</g>
</g>
<!-- Node1&#45;&gt;Node17 -->
<g id="edge37" class="edge">
<title>Node1&#45;&gt;Node17</title>
<path fill="none" stroke="midnightblue" d="M1395.57,-283.79C1216.49,-271.4 799.37,-237.47 760.5,-188 745.68,-169.14 771.81,-144.46 788.4,-131.61"/>
<polygon fill="midnightblue" stroke="midnightblue" points="1395.51,-287.29 1405.73,-284.49 1395.99,-280.31 1395.51,-287.29"/>
</g>
<!-- Node19 -->
<g id="node19" class="node">
<title>Node19</title>
<g id="a_node19"><a xlink:href="../../d8/d93/ShiftRegisterOutBase_8hpp.html" target="_top" xlink:title=" ">
<polygon fill="white" stroke="black" points="1446,-112.5 1446,-131.5 1587,-131.5 1587,-112.5 1446,-112.5"/>
<text text-anchor="middle" x="1516.5" y="-119.5" font-family="Helvetica,sans-Serif" font-size="10.00">ShiftRegisterOutBase.hpp</text>
</a>
</g>
</g>
<!-- Node1&#45;&gt;Node19 -->
<g id="edge41" class="edge">
<title>Node1&#45;&gt;Node19</title>
<path fill="none" stroke="midnightblue" d="M1514.07,-276.54C1529.11,-269.5 1544.88,-259.01 1553.5,-244 1570.31,-214.7 1564.89,-199.8 1553.5,-168 1548.25,-153.34 1535.92,-140.03 1526.94,-131.76"/>
<polygon fill="midnightblue" stroke="midnightblue" points="1512.68,-273.33 1504.87,-280.49 1515.44,-279.76 1512.68,-273.33"/>
</g>
<!-- Node21 -->
<g id="node21" class="node">
<title>Node21</title>
<g id="a_node21"><a xlink:href="../../da/d45/SPIShiftRegisterOut_8ipp.html" target="_top" xlink:title=" ">
<polygon fill="white" stroke="black" points="1418,-0.5 1418,-19.5 1547,-19.5 1547,-0.5 1418,-0.5"/>
<text text-anchor="middle" x="1482.5" y="-7.5" font-family="Helvetica,sans-Serif" font-size="10.00">SPIShiftRegisterOut.ipp</text>
</a>
</g>
</g>
<!-- Node1&#45;&gt;Node21 -->
<g id="edge39" class="edge">
<title>Node1&#45;&gt;Node21</title>
<path fill="none" stroke="midnightblue" d="M1491.14,-272.88C1511.31,-248.61 1542.77,-201.93 1520.5,-168 1498.44,-134.38 1467.08,-159.23 1437.5,-132 1416.73,-112.88 1414.37,-103.39 1407.5,-76 1405.34,-67.38 1403.12,-63.74 1407.5,-56 1417.67,-38.03 1438.21,-26.45 1455.22,-19.55"/>
<polygon fill="midnightblue" stroke="midnightblue" points="1488.47,-270.61 1484.58,-280.47 1493.76,-275.19 1488.47,-270.61"/>
</g>
<!-- Node23 -->
<g id="node23" class="node">
<title>Node23</title>
<g id="a_node23"><a xlink:href="../../de/d95/ShiftRegisterOut_8ipp.html" target="_top" xlink:title=" ">
<polygon fill="white" stroke="black" points="1568.5,-0.5 1568.5,-19.5 1682.5,-19.5 1682.5,-0.5 1568.5,-0.5"/>
<text text-anchor="middle" x="1625.5" y="-7.5" font-family="Helvetica,sans-Serif" font-size="10.00">ShiftRegisterOut.ipp</text>
</a>
</g>
</g>
<!-- Node1&#45;&gt;Node23 -->
<g id="edge40" class="edge">
<title>Node1&#45;&gt;Node23</title>
<path fill="none" stroke="midnightblue" d="M1557.28,-288.18C1650.68,-285.68 1797.17,-276.5 1840.5,-244 1865.66,-225.13 1868.5,-210.46 1868.5,-179 1868.5,-179 1868.5,-179 1868.5,-121 1868.5,-90.9 1871.68,-76.35 1849.5,-56 1825.6,-34.08 1740.86,-21.8 1682.74,-15.79"/>
<polygon fill="midnightblue" stroke="midnightblue" points="1556.91,-284.68 1547,-288.43 1557.09,-291.68 1556.91,-284.68"/>
</g>
<!-- Node24 -->
<g id="node24" class="node">
<title>Node24</title>
<g id="a_node24"><a xlink:href="../../d5/d47/ShiftRegisterOutBase_8ipp.html" target="_top" xlink:title=" ">
<polygon fill="white" stroke="black" points="1702.5,-56.5 1702.5,-75.5 1840.5,-75.5 1840.5,-56.5 1702.5,-56.5"/>
<text text-anchor="middle" x="1771.5" y="-63.5" font-family="Helvetica,sans-Serif" font-size="10.00">ShiftRegisterOutBase.ipp</text>
</a>
</g>
</g>
<!-- Node1&#45;&gt;Node24 -->
<g id="edge42" class="edge">
<title>Node1&#45;&gt;Node24</title>
<path fill="none" stroke="midnightblue" d="M1508.37,-276.58C1527.4,-268.52 1551.66,-257.1 1571.5,-244 1653.93,-189.59 1737.64,-103.19 1763.44,-75.7"/>
<polygon fill="midnightblue" stroke="midnightblue" points="1506.85,-273.42 1498.94,-280.48 1509.52,-279.89 1506.85,-273.42"/>
</g>
<!-- Node25 -->
<g id="node25" class="node">
<title>Node25</title>
<g id="a_node25"><a xlink:href="../../d8/df3/FilteredAnalog_8hpp.html" target="_top" xlink:title=" ">
<polygon fill="white" stroke="black" points="1643.5,-224.5 1643.5,-243.5 1751.5,-243.5 1751.5,-224.5 1643.5,-224.5"/>
<text text-anchor="middle" x="1697.5" y="-231.5" font-family="Helvetica,sans-Serif" font-size="10.00">FilteredAnalog.hpp</text>
</a>
</g>
</g>
<!-- Node1&#45;&gt;Node25 -->
<g id="edge31" class="edge">
<title>Node1&#45;&gt;Node25</title>
<path fill="none" stroke="midnightblue" d="M1521.42,-278.02C1563.17,-267.82 1624.48,-252.84 1662.65,-243.52"/>
<polygon fill="midnightblue" stroke="midnightblue" points="1520.4,-274.67 1511.52,-280.44 1522.06,-281.47 1520.4,-274.67"/>
</g>
<!-- Node26 -->
<g id="node26" class="node">
<title>Node26</title>
<g id="a_node26"><a xlink:href="../../d9/d4f/LEDs_8hpp.html" target="_top" xlink:title=" ">
<polygon fill="white" stroke="black" points="1769.5,-224.5 1769.5,-243.5 1831.5,-243.5 1831.5,-224.5 1769.5,-224.5"/>
<text text-anchor="middle" x="1800.5" y="-231.5" font-family="Helvetica,sans-Serif" font-size="10.00">LEDs.hpp</text>
</a>
</g>
</g>
<!-- Node1&#45;&gt;Node26 -->
<g id="edge32" class="edge">
<title>Node1&#45;&gt;Node26</title>
<path fill="none" stroke="midnightblue" d="M1547.72,-279.01C1605.3,-270.62 1688.35,-257.82 1760.5,-244 1763.3,-243.46 1766.2,-242.88 1769.1,-242.27"/>
<polygon fill="midnightblue" stroke="midnightblue" points="1547.03,-275.57 1537.64,-280.47 1548.04,-282.5 1547.03,-275.57"/>
</g>
<!-- Node28 -->
<g id="node28" class="node">
<title>Node28</title>
<g id="a_node28"><a xlink:href="../../d7/d13/MAX7219__Base_8hpp.html" target="_top" xlink:title=" ">
<polygon fill="white" stroke="black" points="1358,-224.5 1358,-243.5 1471,-243.5 1471,-224.5 1358,-224.5"/>
<text text-anchor="middle" x="1414.5" y="-231.5" font-family="Helvetica,sans-Serif" font-size="10.00">MAX7219_Base.hpp</text>
</a>
</g>
</g>
<!-- Node1&#45;&gt;Node28 -->
<g id="edge34" class="edge">
<title>Node1&#45;&gt;Node28</title>
<path fill="none" stroke="midnightblue" d="M1458.75,-273.54C1447.69,-263.91 1433.87,-251.87 1424.64,-243.83"/>
<polygon fill="midnightblue" stroke="midnightblue" points="1456.7,-276.4 1466.54,-280.32 1461.3,-271.12 1456.7,-276.4"/>
</g>
<!-- Node30 -->
<g id="node30" class="node">
<title>Node30</title>
<g id="a_node30"><a xlink:href="../../d8/dd2/MCP23017Encoders_8hpp.html" target="_top" xlink:title=" ">
<polygon fill="white" stroke="black" points="1896.5,-224.5 1896.5,-243.5 2030.5,-243.5 2030.5,-224.5 1896.5,-224.5"/>
<text text-anchor="middle" x="1963.5" y="-231.5" font-family="Helvetica,sans-Serif" font-size="10.00">MCP23017Encoders.hpp</text>
</a>
</g>
</g>
<!-- Node1&#45;&gt;Node30 -->
<g id="edge38" class="edge">
<title>Node1&#45;&gt;Node30</title>
<path fill="none" stroke="midnightblue" d="M1557.27,-280.05C1639.2,-270.98 1769.67,-256.52 1882.5,-244 1887,-243.5 1891.64,-242.99 1896.32,-242.47"/>
<polygon fill="midnightblue" stroke="midnightblue" points="1556.83,-276.58 1547.28,-281.16 1557.6,-283.54 1556.83,-276.58"/>
</g>
<!-- Node4 -->
<g id="node4" class="node">
<title>Node4</title>
<g id="a_node4"><a xlink:href="../../de/dd1/Button_8cpp.html" target="_top" xlink:title=" ">
<polygon fill="white" stroke="black" points="0,-168.5 0,-187.5 69,-187.5 69,-168.5 0,-168.5"/>
<text text-anchor="middle" x="34.5" y="-175.5" font-family="Helvetica,sans-Serif" font-size="10.00">Button.cpp</text>
</a>
</g>
</g>
<!-- Node3&#45;&gt;Node4 -->
<g id="edge3" class="edge">
<title>Node3&#45;&gt;Node4</title>
<path fill="none" stroke="midnightblue" d="M268.3,-224.63C220.77,-215.77 143.8,-201.26 77.5,-188 74.81,-187.46 72.02,-186.9 69.22,-186.32"/>
<polygon fill="midnightblue" stroke="midnightblue" points="267.8,-228.1 278.28,-226.49 269.09,-221.22 267.8,-228.1"/>
</g>
<!-- Node5 -->
<g id="node5" class="node">
<title>Node5</title>
<g id="a_node5"><a xlink:href="../../d5/d04/IncrementButton_8hpp.html" target="_top" xlink:title=" ">
<polygon fill="white" stroke="black" points="87,-168.5 87,-187.5 206,-187.5 206,-168.5 87,-168.5"/>
<text text-anchor="middle" x="146.5" y="-175.5" font-family="Helvetica,sans-Serif" font-size="10.00">IncrementButton.hpp</text>
</a>
</g>
</g>
<!-- Node3&#45;&gt;Node5 -->
<g id="edge4" class="edge">
<title>Node3&#45;&gt;Node5</title>
<path fill="none" stroke="midnightblue" d="M277.33,-221.3C245.86,-211.13 201.01,-196.62 172.84,-187.52"/>
<polygon fill="midnightblue" stroke="midnightblue" points="276.45,-224.7 287.04,-224.44 278.6,-218.04 276.45,-224.7"/>
</g>
<!-- Node7 -->
<g id="node7" class="node">
<title>Node7</title>
<g id="a_node7"><a xlink:href="../../df/df5/IncrementDecrementButtons_8hpp.html" target="_top" xlink:title=" ">
<polygon fill="white" stroke="black" points="224,-168.5 224,-187.5 403,-187.5 403,-168.5 224,-168.5"/>
<text text-anchor="middle" x="313.5" y="-175.5" font-family="Helvetica,sans-Serif" font-size="10.00">IncrementDecrementButtons.hpp</text>
</a>
</g>
</g>
<!-- Node3&#45;&gt;Node7 -->
<g id="edge6" class="edge">
<title>Node3&#45;&gt;Node7</title>
<path fill="none" stroke="midnightblue" d="M313.5,-213.8C313.5,-204.91 313.5,-194.78 313.5,-187.75"/>
<polygon fill="midnightblue" stroke="midnightblue" points="310,-214.08 313.5,-224.08 317,-214.08 310,-214.08"/>
</g>
<!-- Node9 -->
<g id="node9" class="node">
<title>Node9</title>
<g id="a_node9"><a xlink:href="../../dc/dc5/MultiPurposeButton_8hpp.html" target="_top" xlink:title=" ">
<polygon fill="white" stroke="black" points="421.5,-168.5 421.5,-187.5 555.5,-187.5 555.5,-168.5 421.5,-168.5"/>
<text text-anchor="middle" x="488.5" y="-175.5" font-family="Helvetica,sans-Serif" font-size="10.00">MultiPurposeButton.hpp</text>
</a>
</g>
</g>
<!-- Node3&#45;&gt;Node9 -->
<g id="edge8" class="edge">
<title>Node3&#45;&gt;Node9</title>
<path fill="none" stroke="midnightblue" d="M350.97,-221.44C383.97,-211.26 431.26,-196.66 460.9,-187.52"/>
<polygon fill="midnightblue" stroke="midnightblue" points="349.75,-218.15 341.23,-224.44 351.82,-224.84 349.75,-218.15"/>
</g>
<!-- Node6 -->
<g id="node6" class="node">
<title>Node6</title>
<g id="a_node6"><a xlink:href="../../db/d9d/IncrementButton_8cpp.html" target="_top" xlink:title=" ">
<polygon fill="white" stroke="black" points="87,-112.5 87,-131.5 206,-131.5 206,-112.5 87,-112.5"/>
<text text-anchor="middle" x="146.5" y="-119.5" font-family="Helvetica,sans-Serif" font-size="10.00">IncrementButton.cpp</text>
</a>
</g>
</g>
<!-- Node5&#45;&gt;Node6 -->
<g id="edge5" class="edge">
<title>Node5&#45;&gt;Node6</title>
<path fill="none" stroke="midnightblue" d="M146.5,-157.8C146.5,-148.91 146.5,-138.78 146.5,-131.75"/>
<polygon fill="midnightblue" stroke="midnightblue" points="143,-158.08 146.5,-168.08 150,-158.08 143,-158.08"/>
</g>
<!-- Node8 -->
<g id="node8" class="node">
<title>Node8</title>
<g id="a_node8"><a xlink:href="../../da/d66/IncrementDecrementButtons_8cpp.html" target="_top" xlink:title=" ">
<polygon fill="white" stroke="black" points="224.5,-112.5 224.5,-131.5 402.5,-131.5 402.5,-112.5 224.5,-112.5"/>
<text text-anchor="middle" x="313.5" y="-119.5" font-family="Helvetica,sans-Serif" font-size="10.00">IncrementDecrementButtons.cpp</text>
</a>
</g>
</g>
<!-- Node7&#45;&gt;Node8 -->
<g id="edge7" class="edge">
<title>Node7&#45;&gt;Node8</title>
<path fill="none" stroke="midnightblue" d="M313.5,-157.8C313.5,-148.91 313.5,-138.78 313.5,-131.75"/>
<polygon fill="midnightblue" stroke="midnightblue" points="310,-158.08 313.5,-168.08 317,-158.08 310,-158.08"/>
</g>
<!-- Node11 -->
<g id="node11" class="node">
<title>Node11</title>
<g id="a_node11"><a xlink:href="../../d9/d4b/ButtonMatrix_8hpp.html" target="_top" xlink:title=" ">
<polygon fill="white" stroke="black" points="612,-168.5 612,-187.5 713,-187.5 713,-168.5 612,-168.5"/>
<text text-anchor="middle" x="662.5" y="-175.5" font-family="Helvetica,sans-Serif" font-size="10.00">ButtonMatrix.hpp</text>
</a>
</g>
</g>
<!-- Node10&#45;&gt;Node11 -->
<g id="edge10" class="edge">
<title>Node10&#45;&gt;Node11</title>
<path fill="none" stroke="midnightblue" d="M656.03,-214.1C655.4,-205.14 655.84,-194.86 657.37,-187.75"/>
<polygon fill="midnightblue" stroke="midnightblue" points="652.57,-214.62 657.33,-224.08 659.51,-213.71 652.57,-214.62"/>
</g>
<!-- Node11&#45;&gt;Node10 -->
<g id="edge11" class="edge">
<title>Node11&#45;&gt;Node10</title>
<path fill="none" stroke="midnightblue" d="M668.96,-197.69C669.61,-206.64 669.18,-216.93 667.67,-224.08"/>
<polygon fill="midnightblue" stroke="midnightblue" points="672.42,-197.2 667.63,-187.75 665.48,-198.13 672.42,-197.2"/>
</g>
<!-- Node13 -->
<g id="node13" class="node">
<title>Node13</title>
<g id="a_node13"><a xlink:href="../../da/d1f/ExtendedIOElement_8cpp.html" target="_top" xlink:title=" ">
<polygon fill="white" stroke="black" points="969.5,-168.5 969.5,-187.5 1103.5,-187.5 1103.5,-168.5 969.5,-168.5"/>
<text text-anchor="middle" x="1036.5" y="-175.5" font-family="Helvetica,sans-Serif" font-size="10.00">ExtendedIOElement.cpp</text>
</a>
</g>
</g>
<!-- Node12&#45;&gt;Node13 -->
<g id="edge13" class="edge">
<title>Node12&#45;&gt;Node13</title>
<path fill="none" stroke="midnightblue" d="M1056.65,-215.27C1051.53,-206.05 1045.48,-195.17 1041.36,-187.75"/>
<polygon fill="midnightblue" stroke="midnightblue" points="1053.63,-217.04 1061.55,-224.08 1059.75,-213.64 1053.63,-217.04"/>
</g>
<!-- Node12&#45;&gt;Node14 -->
<g id="edge14" class="edge">
<title>Node12&#45;&gt;Node14</title>
<path fill="none" stroke="midnightblue" d="M1095.74,-220.37C1119.15,-210.26 1151.34,-196.35 1171.79,-187.52"/>
<polygon fill="midnightblue" stroke="midnightblue" points="1094.1,-217.26 1086.31,-224.44 1096.87,-223.69 1094.1,-217.26"/>
</g>
<!-- Node15 -->
<g id="node15" class="node">
<title>Node15</title>
<g id="a_node15"><a xlink:href="../../d2/d05/StaticSizeExtendedIOElement_8hpp.html" target="_top" xlink:title=" ">
<polygon fill="white" stroke="black" points="769.5,-168.5 769.5,-187.5 951.5,-187.5 951.5,-168.5 769.5,-168.5"/>
<text text-anchor="middle" x="860.5" y="-175.5" font-family="Helvetica,sans-Serif" font-size="10.00">StaticSizeExtendedIOElement.hpp</text>
</a>
</g>
</g>
<!-- Node12&#45;&gt;Node15 -->
<g id="edge15" class="edge">
<title>Node12&#45;&gt;Node15</title>
<path fill="none" stroke="midnightblue" d="M1023.88,-221.83C984.99,-211.63 928.34,-196.78 892.99,-187.52"/>
<polygon fill="midnightblue" stroke="midnightblue" points="1023.3,-225.29 1033.86,-224.44 1025.07,-218.52 1023.3,-225.29"/>
</g>
<!-- Node15&#45;&gt;Node2 -->
<g id="edge16" class="edge">
<title>Node15&#45;&gt;Node2</title>
<path fill="none" stroke="midnightblue" d="M809.4,-166.35C760.45,-156.14 687.55,-140.94 642.35,-131.52"/>
<polygon fill="midnightblue" stroke="midnightblue" points="808.96,-169.83 819.46,-168.44 810.39,-162.98 808.96,-169.83"/>
</g>
<!-- Node16 -->
<g id="node16" class="node">
<title>Node16</title>
<g id="a_node16"><a xlink:href="../../d2/d25/MAX7219_8hpp.html" target="_top" xlink:title=" ">
<polygon fill="white" stroke="black" points="1032.5,-112.5 1032.5,-131.5 1116.5,-131.5 1116.5,-112.5 1032.5,-112.5"/>
<text text-anchor="middle" x="1074.5" y="-119.5" font-family="Helvetica,sans-Serif" font-size="10.00">MAX7219.hpp</text>
</a>
</g>
</g>
<!-- Node15&#45;&gt;Node16 -->
<g id="edge17" class="edge">
<title>Node15&#45;&gt;Node16</title>
<path fill="none" stroke="midnightblue" d="M904.26,-165.96C944.67,-155.76 1003.87,-140.82 1040.75,-131.52"/>
<polygon fill="midnightblue" stroke="midnightblue" points="903.25,-162.6 894.41,-168.44 904.96,-169.39 903.25,-162.6"/>
</g>
<!-- Node15&#45;&gt;Node17 -->
<g id="edge18" class="edge">
<title>Node15&#45;&gt;Node17</title>
<path fill="none" stroke="midnightblue" d="M843.32,-161.54C832.62,-151.91 819.24,-139.87 810.32,-131.83"/>
<polygon fill="midnightblue" stroke="midnightblue" points="841.09,-164.24 850.86,-168.32 845.77,-159.03 841.09,-164.24"/>
</g>
<!-- Node15&#45;&gt;Node19 -->
<g id="edge21" class="edge">
<title>Node15&#45;&gt;Node19</title>
<path fill="none" stroke="midnightblue" d="M961.75,-167.9C1142.49,-152.49 1342.17,-136.65 1445.83,-128.51"/>
<polygon fill="midnightblue" stroke="midnightblue" points="961.18,-164.44 951.52,-168.77 961.78,-171.41 961.18,-164.44"/>
</g>
<!-- Node18 -->
<g id="node18" class="node">
<title>Node18</title>
<g id="a_node18"><a xlink:href="../../d2/d94/MCP23017_8ipp.html" target="_top" xlink:title=" ">
<polygon fill="white" stroke="black" points="757.5,-56.5 757.5,-75.5 843.5,-75.5 843.5,-56.5 757.5,-56.5"/>
<text text-anchor="middle" x="800.5" y="-63.5" font-family="Helvetica,sans-Serif" font-size="10.00">MCP23017.ipp</text>
</a>
</g>
</g>
<!-- Node17&#45;&gt;Node18 -->
<g id="edge19" class="edge">
<title>Node17&#45;&gt;Node18</title>
<path fill="none" stroke="midnightblue" d="M794.03,-102.1C793.4,-93.14 793.84,-82.86 795.37,-75.75"/>
<polygon fill="midnightblue" stroke="midnightblue" points="790.57,-102.62 795.33,-112.08 797.51,-101.71 790.57,-102.62"/>
</g>
<!-- Node18&#45;&gt;Node17 -->
<g id="edge20" class="edge">
<title>Node18&#45;&gt;Node17</title>
<path fill="none" stroke="midnightblue" d="M806.96,-85.69C807.61,-94.64 807.18,-104.93 805.67,-112.08"/>
<polygon fill="midnightblue" stroke="midnightblue" points="810.42,-85.2 805.63,-75.75 803.48,-86.13 810.42,-85.2"/>
</g>
<!-- Node20 -->
<g id="node20" class="node">
<title>Node20</title>
<g id="a_node20"><a xlink:href="../../d7/d88/SPIShiftRegisterOut_8hpp.html" target="_top" xlink:title=" ">
<polygon fill="white" stroke="black" points="1416.5,-56.5 1416.5,-75.5 1548.5,-75.5 1548.5,-56.5 1416.5,-56.5"/>
<text text-anchor="middle" x="1482.5" y="-63.5" font-family="Helvetica,sans-Serif" font-size="10.00">SPIShiftRegisterOut.hpp</text>
</a>
</g>
</g>
<!-- Node19&#45;&gt;Node20 -->
<g id="edge22" class="edge">
<title>Node19&#45;&gt;Node20</title>
<path fill="none" stroke="midnightblue" d="M1505.52,-103.57C1499.67,-94.27 1492.73,-83.25 1488.01,-75.75"/>
<polygon fill="midnightblue" stroke="midnightblue" points="1502.6,-105.49 1510.89,-112.08 1508.52,-101.76 1502.6,-105.49"/>
</g>
<!-- Node22 -->
<g id="node22" class="node">
<title>Node22</title>
<g id="a_node22"><a xlink:href="../../d0/db4/ShiftRegisterOut_8hpp.html" target="_top" xlink:title=" ">
<polygon fill="white" stroke="black" points="1567,-56.5 1567,-75.5 1684,-75.5 1684,-56.5 1567,-56.5"/>
<text text-anchor="middle" x="1625.5" y="-63.5" font-family="Helvetica,sans-Serif" font-size="10.00">ShiftRegisterOut.hpp</text>
</a>
</g>
</g>
<!-- Node19&#45;&gt;Node22 -->
<g id="edge25" class="edge">
<title>Node19&#45;&gt;Node22</title>
<path fill="none" stroke="midnightblue" d="M1543.02,-107.86C1563.23,-97.85 1590.49,-84.35 1608.03,-75.65"/>
<polygon fill="midnightblue" stroke="midnightblue" points="1541.42,-104.75 1534.01,-112.32 1544.53,-111.02 1541.42,-104.75"/>
</g>
<!-- Node19&#45;&gt;Node24 -->
<g id="edge28" class="edge">
<title>Node19&#45;&gt;Node24</title>
<path fill="none" stroke="midnightblue" d="M1561.6,-110.28C1608.01,-100.08 1679.72,-84.92 1726.2,-75.52"/>
<polygon fill="midnightblue" stroke="midnightblue" points="1560.83,-106.87 1551.82,-112.44 1562.34,-113.7 1560.83,-106.87"/>
</g>
<!-- Node20&#45;&gt;Node21 -->
<g id="edge23" class="edge">
<title>Node20&#45;&gt;Node21</title>
<path fill="none" stroke="midnightblue" d="M1476.03,-46.1C1475.4,-37.14 1475.84,-26.86 1477.37,-19.75"/>
<polygon fill="midnightblue" stroke="midnightblue" points="1472.57,-46.62 1477.33,-56.08 1479.51,-45.71 1472.57,-46.62"/>
</g>
<!-- Node21&#45;&gt;Node20 -->
<g id="edge24" class="edge">
<title>Node21&#45;&gt;Node20</title>
<path fill="none" stroke="midnightblue" d="M1488.96,-29.69C1489.61,-38.64 1489.18,-48.93 1487.67,-56.08"/>
<polygon fill="midnightblue" stroke="midnightblue" points="1492.42,-29.2 1487.63,-19.75 1485.48,-30.13 1492.42,-29.2"/>
</g>
<!-- Node22&#45;&gt;Node23 -->
<g id="edge26" class="edge">
<title>Node22&#45;&gt;Node23</title>
<path fill="none" stroke="midnightblue" d="M1619.03,-46.1C1618.4,-37.14 1618.84,-26.86 1620.37,-19.75"/>
<polygon fill="midnightblue" stroke="midnightblue" points="1615.57,-46.62 1620.33,-56.08 1622.51,-45.71 1615.57,-46.62"/>
</g>
<!-- Node23&#45;&gt;Node22 -->
<g id="edge27" class="edge">
<title>Node23&#45;&gt;Node22</title>
<path fill="none" stroke="midnightblue" d="M1631.96,-29.69C1632.61,-38.64 1632.18,-48.93 1630.67,-56.08"/>
<polygon fill="midnightblue" stroke="midnightblue" points="1635.42,-29.2 1630.63,-19.75 1628.48,-30.13 1635.42,-29.2"/>
</g>
<!-- Node24&#45;&gt;Node19 -->
<g id="edge29" class="edge">
<title>Node24&#45;&gt;Node19</title>
<path fill="none" stroke="midnightblue" d="M1726.59,-77.68C1680.26,-87.87 1608.54,-103.02 1561.99,-112.44"/>
<polygon fill="midnightblue" stroke="midnightblue" points="1727.35,-81.09 1736.36,-75.52 1725.84,-74.26 1727.35,-81.09"/>
</g>
<!-- Node27 -->
<g id="node27" class="node">
<title>Node27</title>
<g id="a_node27"><a xlink:href="../../d6/d3a/DotBarDisplayLEDs_8hpp.html" target="_top" xlink:title=" ">
<polygon fill="white" stroke="black" points="1708.5,-168.5 1708.5,-187.5 1840.5,-187.5 1840.5,-168.5 1708.5,-168.5"/>
<text text-anchor="middle" x="1774.5" y="-175.5" font-family="Helvetica,sans-Serif" font-size="10.00">DotBarDisplayLEDs.hpp</text>
</a>
</g>
</g>
<!-- Node26&#45;&gt;Node27 -->
<g id="edge33" class="edge">
<title>Node26&#45;&gt;Node27</title>
<path fill="none" stroke="midnightblue" d="M1791.83,-214.98C1787.41,-205.82 1782.25,-195.09 1778.71,-187.75"/>
<polygon fill="midnightblue" stroke="midnightblue" points="1788.71,-216.59 1796.21,-224.08 1795.02,-213.55 1788.71,-216.59"/>
</g>
<!-- Node28&#45;&gt;Node16 -->
<g id="edge35" class="edge">
<title>Node28&#45;&gt;Node16</title>
<path fill="none" stroke="midnightblue" d="M1383.99,-220.58C1362.9,-211.83 1334.29,-199.65 1309.5,-188 1291.87,-179.71 1288.8,-174.68 1270.5,-168 1219.01,-149.22 1156.95,-136.55 1116.66,-129.56"/>
<polygon fill="midnightblue" stroke="midnightblue" points="1382.81,-223.88 1393.39,-224.46 1385.48,-217.41 1382.81,-223.88"/>
</g>
<!-- Node29 -->
<g id="node29" class="node">
<title>Node29</title>
<g id="a_node29"><a xlink:href="../../d5/d0c/MAX7219SevenSegmentDisplay_8hpp.html" target="_top" xlink:title=" ">
<polygon fill="white" stroke="black" points="1318,-168.5 1318,-187.5 1511,-187.5 1511,-168.5 1318,-168.5"/>
<text text-anchor="middle" x="1414.5" y="-175.5" font-family="Helvetica,sans-Serif" font-size="10.00">MAX7219SevenSegmentDisplay.hpp</text>
</a>
</g>
</g>
<!-- Node28&#45;&gt;Node29 -->
<g id="edge36" class="edge">
<title>Node28&#45;&gt;Node29</title>
<path fill="none" stroke="midnightblue" d="M1414.5,-213.8C1414.5,-204.91 1414.5,-194.78 1414.5,-187.75"/>
<polygon fill="midnightblue" stroke="midnightblue" points="1411,-214.08 1414.5,-224.08 1418,-214.08 1411,-214.08"/>
</g>
</g>
</svg>
