<?xml version="1.0" encoding="UTF-8" standalone="no"?>
<!DOCTYPE svg PUBLIC "-//W3C//DTD SVG 1.1//EN"
 "http://www.w3.org/Graphics/SVG/1.1/DTD/svg11.dtd">
<!-- Generated by graphviz version 2.40.1 (20161225.0304)
 -->
<!-- Title: Divide.hpp Pages: 1 -->
<svg width="512pt" height="84pt"
 viewBox="0.00 0.00 512.00 84.00" xmlns="http://www.w3.org/2000/svg" xmlns:xlink="http://www.w3.org/1999/xlink">
<g id="graph0" class="graph" transform="scale(1 1) rotate(0) translate(4 80)">
<title>Divide.hpp</title>
<polygon fill="#ffffff" stroke="transparent" points="-4,4 -4,-80 508,-80 508,4 -4,4"/>
<!-- Node1 -->
<g id="node1" class="node">
<title>Node1</title>
<g id="a_node1"><a xlink:title=" ">
<polygon fill="#bfbfbf" stroke="#000000" points="247.5,-56.5 247.5,-75.5 310.5,-75.5 310.5,-56.5 247.5,-56.5"/>
<text text-anchor="middle" x="279" y="-63.5" font-family="Helvetica,sans-Serif" font-size="10.00" fill="#000000">Divide.hpp</text>
</a>
</g>
</g>
<!-- Node2 -->
<g id="node2" class="node">
<title>Node2</title>
<g id="a_node2"><a xlink:title=" ">
<polygon fill="#ffffff" stroke="#bfbfbf" points="0,-.5 0,-19.5 84,-19.5 84,-.5 0,-.5"/>
<text text-anchor="middle" x="42" y="-7.5" font-family="Helvetica,sans-Serif" font-size="10.00" fill="#000000">AH/STL/cstdint</text>
</a>
</g>
</g>
<!-- Node1&#45;&gt;Node2 -->
<g id="edge1" class="edge">
<title>Node1&#45;&gt;Node2</title>
<path fill="none" stroke="#191970" d="M247.0371,-58.4476C207.3681,-49.0743 139.2508,-32.9791 92.4912,-21.9304"/>
<polygon fill="#191970" stroke="#191970" points="93.0997,-18.4779 82.5629,-19.5845 91.49,-25.2903 93.0997,-18.4779"/>
</g>
<!-- Node3 -->
<g id="node3" class="node">
<title>Node3</title>
<g id="a_node3"><a xlink:href="../../dc/dc7/NamespaceSettings_8hpp.html" target="_top" xlink:title=" ">
<polygon fill="#ffffff" stroke="#000000" points="102,-.5 102,-19.5 282,-19.5 282,-.5 102,-.5"/>
<text text-anchor="middle" x="192" y="-7.5" font-family="Helvetica,sans-Serif" font-size="10.00" fill="#000000">AH/Settings/NamespaceSettings.hpp</text>
</a>
</g>
</g>
<!-- Node1&#45;&gt;Node3 -->
<g id="edge2" class="edge">
<title>Node1&#45;&gt;Node3</title>
<path fill="none" stroke="#191970" d="M263.8458,-56.2455C250.4973,-47.6534 230.8414,-35.0014 215.4617,-25.1018"/>
<polygon fill="#191970" stroke="#191970" points="217.2836,-22.1121 206.9806,-19.6427 213.4949,-27.9982 217.2836,-22.1121"/>
</g>
<!-- Node4 -->
<g id="node4" class="node">
<title>Node4</title>
<g id="a_node4"><a xlink:href="../../d1/d65/Warnings_8hpp.html" target="_top" xlink:title=" ">
<polygon fill="#ffffff" stroke="#000000" points="300.5,-.5 300.5,-19.5 433.5,-19.5 433.5,-.5 300.5,-.5"/>
<text text-anchor="middle" x="367" y="-7.5" font-family="Helvetica,sans-Serif" font-size="10.00" fill="#000000">AH/Settings/Warnings.hpp</text>
</a>
</g>
</g>
<!-- Node1&#45;&gt;Node4 -->
<g id="edge3" class="edge">
<title>Node1&#45;&gt;Node4</title>
<path fill="none" stroke="#191970" d="M294.3284,-56.2455C307.8303,-47.6534 327.7122,-35.0014 343.2686,-25.1018"/>
<polygon fill="#191970" stroke="#191970" points="345.2897,-27.9643 351.8472,-19.6427 341.5315,-22.0587 345.2897,-27.9643"/>
</g>
<!-- Node5 -->
<g id="node5" class="node">
<title>Node5</title>
<g id="a_node5"><a xlink:title=" ">
<polygon fill="#ffffff" stroke="#bfbfbf" points="452,-.5 452,-19.5 504,-19.5 504,-.5 452,-.5"/>
<text text-anchor="middle" x="478" y="-7.5" font-family="Helvetica,sans-Serif" font-size="10.00" fill="#000000">stddef.h</text>
</a>
</g>
</g>
<!-- Node1&#45;&gt;Node5 -->
<g id="edge4" class="edge">
<title>Node1&#45;&gt;Node5</title>
<path fill="none" stroke="#191970" d="M310.759,-57.1411C341.8048,-48.4702 390.6753,-34.7926 441.7352,-20.3498"/>
<polygon fill="#191970" stroke="#191970" points="442.9619,-23.6401 451.6306,-17.5489 441.0554,-16.9047 442.9619,-23.6401"/>
</g>
</g>
</svg>
