<?xml version="1.0" encoding="UTF-8" standalone="no"?>
<!DOCTYPE svg PUBLIC "-//W3C//DTD SVG 1.1//EN"
 "http://www.w3.org/Graphics/SVG/1.1/DTD/svg11.dtd">
<!-- Generated by graphviz version 2.38.0 (20140413.2041)
 -->
<!-- Title: BiQuadFilterDF2&lt; T &gt; Pages: 1 -->
<svg width="166pt" height="182pt"
 viewBox="0.00 0.00 166.00 182.00" xmlns="http://www.w3.org/2000/svg" xmlns:xlink="http://www.w3.org/1999/xlink">
<g id="graph0" class="graph" transform="scale(1 1) rotate(0) translate(4 178)">
<title>BiQuadFilterDF2&lt; T &gt;</title>
<polygon fill="white" stroke="none" points="-4,4 -4,-178 162,-178 162,4 -4,4"/>
<!-- Node1 -->
<g id="node1" class="node"><title>Node1</title>
<g id="a_node1"><a xlink:title="Generic BiQuad (Bi&#45;Quadratic) filter class, Direct Form 2 implementation.">
<polygon fill="#bfbfbf" stroke="black" points="22.5,-0.5 22.5,-79.5 135.5,-79.5 135.5,-0.5 22.5,-0.5"/>
<text text-anchor="middle" x="79" y="-67.5" font-family="Helvetica,sans-Serif" font-size="10.00">BiQuadFilterDF2&lt; T &gt;</text>
<polyline fill="none" stroke="black" points="22.5,-60.5 135.5,-60.5 "/>
<text text-anchor="middle" x="79" y="-48.5" font-family="Helvetica,sans-Serif" font-size="10.00"> </text>
<polyline fill="none" stroke="black" points="22.5,-41.5 135.5,-41.5 "/>
<text text-anchor="start" x="30.5" y="-29.5" font-family="Helvetica,sans-Serif" font-size="10.00">+ BiQuadFilterDF2()</text>
<text text-anchor="start" x="30.5" y="-18.5" font-family="Helvetica,sans-Serif" font-size="10.00">+ BiQuadFilterDF2()</text>
<text text-anchor="start" x="30.5" y="-7.5" font-family="Helvetica,sans-Serif" font-size="10.00">+ operator()()</text>
</a>
</g>
</g>
<!-- Node2 -->
<g id="node2" class="node"><title>Node2</title>
<g id="a_node2"><a xlink:title=" ">
<polygon fill="white" stroke="#bfbfbf" points="-1.42109e-14,-116.5 -1.42109e-14,-173.5 158,-173.5 158,-116.5 -1.42109e-14,-116.5"/>
<text text-anchor="middle" x="79" y="-161.5" font-family="Helvetica,sans-Serif" font-size="10.00">BiQuadDF2Implementation&lt; T &gt;</text>
<polyline fill="none" stroke="#bfbfbf" points="-1.42109e-14,-154.5 158,-154.5 "/>
<text text-anchor="middle" x="79" y="-142.5" font-family="Helvetica,sans-Serif" font-size="10.00"> </text>
<polyline fill="none" stroke="#bfbfbf" points="-1.42109e-14,-135.5 158,-135.5 "/>
<text text-anchor="middle" x="79" y="-123.5" font-family="Helvetica,sans-Serif" font-size="10.00"> </text>
</a>
</g>
</g>
<!-- Node2&#45;&gt;Node1 -->
<g id="edge1" class="edge"><title>Node2&#45;&gt;Node1</title>
<path fill="none" stroke="midnightblue" d="M79,-106.156C79,-97.4733 79,-88.2318 79,-79.5205"/>
<polygon fill="none" stroke="midnightblue" points="75.5001,-106.398 79,-116.398 82.5001,-106.398 75.5001,-106.398"/>
</g>
</g>
</svg>
