<?xml version="1.0" encoding="UTF-8" standalone="no"?>
<!DOCTYPE svg PUBLIC "-//W3C//DTD SVG 1.1//EN"
 "http://www.w3.org/Graphics/SVG/1.1/DTD/svg11.dtd">
<!-- Generated by graphviz version 2.40.1 (20161225.0304)
 -->
<!-- Title: IncreaseBitDepth.hpp Pages: 1 -->
<svg width="397pt" height="84pt"
 viewBox="0.00 0.00 396.50 84.00" xmlns="http://www.w3.org/2000/svg" xmlns:xlink="http://www.w3.org/1999/xlink">
<g id="graph0" class="graph" transform="scale(1 1) rotate(0) translate(4 80)">
<title>IncreaseBitDepth.hpp</title>
<polygon fill="#ffffff" stroke="transparent" points="-4,4 -4,-80 392.5,-80 392.5,4 -4,4"/>
<!-- Node1 -->
<g id="node1" class="node">
<title>Node1</title>
<g id="a_node1"><a xlink:title=" ">
<polygon fill="#bfbfbf" stroke="#000000" points="192,-56.5 192,-75.5 303,-75.5 303,-56.5 192,-56.5"/>
<text text-anchor="middle" x="247.5" y="-63.5" font-family="Helvetica,sans-Serif" font-size="10.00" fill="#000000">IncreaseBitDepth.hpp</text>
</a>
</g>
</g>
<!-- Node2 -->
<g id="node2" class="node">
<title>Node2</title>
<g id="a_node2"><a xlink:href="../../d1/d65/Warnings_8hpp.html" target="_top" xlink:title=" ">
<polygon fill="#ffffff" stroke="#000000" points="0,-.5 0,-19.5 133,-19.5 133,-.5 0,-.5"/>
<text text-anchor="middle" x="66.5" y="-7.5" font-family="Helvetica,sans-Serif" font-size="10.00" fill="#000000">AH/Settings/Warnings.hpp</text>
</a>
</g>
</g>
<!-- Node1&#45;&gt;Node2 -->
<g id="edge1" class="edge">
<title>Node1&#45;&gt;Node2</title>
<path fill="none" stroke="#191970" d="M216.385,-56.3733C186.1571,-47.021 140.104,-32.7725 107.0261,-22.5385"/>
<polygon fill="#191970" stroke="#191970" points="107.7967,-19.1133 97.209,-19.5011 105.7277,-25.8005 107.7967,-19.1133"/>
</g>
<!-- Node3 -->
<g id="node3" class="node">
<title>Node3</title>
<g id="a_node3"><a xlink:title=" ">
<polygon fill="#ffffff" stroke="#bfbfbf" points="151,-.5 151,-19.5 252,-19.5 252,-.5 151,-.5"/>
<text text-anchor="middle" x="201.5" y="-7.5" font-family="Helvetica,sans-Serif" font-size="10.00" fill="#000000">AH/STL/type_traits</text>
</a>
</g>
</g>
<!-- Node1&#45;&gt;Node3 -->
<g id="edge2" class="edge">
<title>Node1&#45;&gt;Node3</title>
<path fill="none" stroke="#191970" d="M239.4874,-56.2455C233.0232,-48.3761 223.7615,-37.101 216.0017,-27.6542"/>
<polygon fill="#191970" stroke="#191970" points="218.4727,-25.1484 209.4208,-19.6427 213.0636,-29.5916 218.4727,-25.1484"/>
</g>
<!-- Node4 -->
<g id="node4" class="node">
<title>Node4</title>
<g id="a_node4"><a xlink:title=" ">
<polygon fill="#ffffff" stroke="#bfbfbf" points="270.5,-.5 270.5,-19.5 318.5,-19.5 318.5,-.5 270.5,-.5"/>
<text text-anchor="middle" x="294.5" y="-7.5" font-family="Helvetica,sans-Serif" font-size="10.00" fill="#000000">limits.h</text>
</a>
</g>
</g>
<!-- Node1&#45;&gt;Node4 -->
<g id="edge3" class="edge">
<title>Node1&#45;&gt;Node4</title>
<path fill="none" stroke="#191970" d="M255.6868,-56.2455C262.3589,-48.2958 271.9479,-36.8706 279.9253,-27.3656"/>
<polygon fill="#191970" stroke="#191970" points="282.6592,-29.5525 286.407,-19.6427 277.2974,-25.0524 282.6592,-29.5525"/>
</g>
<!-- Node5 -->
<g id="node5" class="node">
<title>Node5</title>
<g id="a_node5"><a xlink:title=" ">
<polygon fill="#ffffff" stroke="#bfbfbf" points="336.5,-.5 336.5,-19.5 388.5,-19.5 388.5,-.5 336.5,-.5"/>
<text text-anchor="middle" x="362.5" y="-7.5" font-family="Helvetica,sans-Serif" font-size="10.00" fill="#000000">stddef.h</text>
</a>
</g>
</g>
<!-- Node1&#45;&gt;Node5 -->
<g id="edge4" class="edge">
<title>Node1&#45;&gt;Node5</title>
<path fill="none" stroke="#191970" d="M267.2692,-56.3733C285.6469,-47.4241 313.2312,-33.9917 333.9893,-23.8835"/>
<polygon fill="#191970" stroke="#191970" points="335.5304,-27.026 342.9888,-19.5011 332.4657,-20.7325 335.5304,-27.026"/>
</g>
</g>
</svg>
