<?xml version="1.0" encoding="UTF-8" standalone="no"?>
<!DOCTYPE svg PUBLIC "-//W3C//DTD SVG 1.1//EN"
 "http://www.w3.org/Graphics/SVG/1.1/DTD/svg11.dtd">
<!-- Generated by graphviz version 2.38.0 (20140413.2041)
 -->
<!-- Title: SOSFilter.hpp Pages: 1 -->
<svg width="802pt" height="532pt"
 viewBox="0.00 0.00 801.50 532.00" xmlns="http://www.w3.org/2000/svg" xmlns:xlink="http://www.w3.org/1999/xlink">
<g id="graph0" class="graph" transform="scale(1 1) rotate(0) translate(4 528)">
<title>SOSFilter.hpp</title>
<polygon fill="white" stroke="none" points="-4,4 -4,-528 797.5,-528 797.5,4 -4,4"/>
<!-- Node1 -->
<g id="node1" class="node"><title>Node1</title>
<g id="a_node1"><a xlink:title=" ">
<polygon fill="#bfbfbf" stroke="black" points="483,-504.5 483,-523.5 561,-523.5 561,-504.5 483,-504.5"/>
<text text-anchor="middle" x="522" y="-511.5" font-family="Helvetica,sans-Serif" font-size="10.00">SOSFilter.hpp</text>
</a>
</g>
</g>
<!-- Node2 -->
<g id="node2" class="node"><title>Node2</title>
<g id="a_node2"><a xlink:href="../../d5/db6/ArrayHelpers_8hpp.html" target="_top" xlink:title=" ">
<polygon fill="white" stroke="black" points="531,-392.5 531,-411.5 691,-411.5 691,-392.5 531,-392.5"/>
<text text-anchor="middle" x="611" y="-399.5" font-family="Helvetica,sans-Serif" font-size="10.00">AH/Containers/ArrayHelpers.hpp</text>
</a>
</g>
</g>
<!-- Node1&#45;&gt;Node2 -->
<g id="edge1" class="edge"><title>Node1&#45;&gt;Node2</title>
<path fill="none" stroke="midnightblue" d="M528.984,-504.368C543.736,-486.135 578.292,-443.426 597.508,-419.675"/>
<polygon fill="midnightblue" stroke="midnightblue" points="600.48,-421.567 604.049,-411.591 595.038,-417.164 600.48,-421.567"/>
</g>
<!-- Node20 -->
<g id="node20" class="node"><title>Node20</title>
<g id="a_node20"><a xlink:href="../../d1/dde/BiQuad_8hpp.html" target="_top" xlink:title=" ">
<polygon fill="white" stroke="black" points="410,-448.5 410,-467.5 508,-467.5 508,-448.5 410,-448.5"/>
<text text-anchor="middle" x="459" y="-455.5" font-family="Helvetica,sans-Serif" font-size="10.00">Filters/BiQuad.hpp</text>
</a>
</g>
</g>
<!-- Node1&#45;&gt;Node20 -->
<g id="edge25" class="edge"><title>Node1&#45;&gt;Node20</title>
<path fill="none" stroke="midnightblue" d="M511.878,-504.324C502.474,-496.263 488.256,-484.077 476.931,-474.369"/>
<polygon fill="midnightblue" stroke="midnightblue" points="479.177,-471.684 469.306,-467.834 474.621,-476.999 479.177,-471.684"/>
</g>
<!-- Node3 -->
<g id="node3" class="node"><title>Node3</title>
<g id="a_node3"><a xlink:href="../../de/d76/Array_8hpp.html" target="_top" xlink:title=" ">
<polygon fill="white" stroke="black" points="370.5,-336.5 370.5,-355.5 429.5,-355.5 429.5,-336.5 370.5,-336.5"/>
<text text-anchor="middle" x="400" y="-343.5" font-family="Helvetica,sans-Serif" font-size="10.00">Array.hpp</text>
</a>
</g>
</g>
<!-- Node2&#45;&gt;Node3 -->
<g id="edge2" class="edge"><title>Node2&#45;&gt;Node3</title>
<path fill="none" stroke="midnightblue" d="M577.566,-392.444C540.045,-382.841 479.228,-367.276 439.421,-357.089"/>
<polygon fill="midnightblue" stroke="midnightblue" points="440.088,-353.647 429.532,-354.558 438.352,-360.428 440.088,-353.647"/>
</g>
<!-- Node6 -->
<g id="node6" class="node"><title>Node6</title>
<g id="a_node6"><a xlink:href="../../dd/d80/PrintStream_8hpp.html" target="_top" xlink:title=" ">
<polygon fill="white" stroke="black" points="634.5,-168.5 634.5,-187.5 793.5,-187.5 793.5,-168.5 634.5,-168.5"/>
<text text-anchor="middle" x="714" y="-175.5" font-family="Helvetica,sans-Serif" font-size="10.00">AH/PrintStream/PrintStream.hpp</text>
</a>
</g>
</g>
<!-- Node2&#45;&gt;Node6 -->
<g id="edge24" class="edge"><title>Node2&#45;&gt;Node6</title>
<path fill="none" stroke="midnightblue" d="M615.038,-392.297C630.289,-359.425 684.589,-242.391 705.607,-197.09"/>
<polygon fill="midnightblue" stroke="midnightblue" points="708.844,-198.428 709.878,-187.884 702.495,-195.482 708.844,-198.428"/>
</g>
<!-- Node4 -->
<g id="node4" class="node"><title>Node4</title>
<g id="a_node4"><a xlink:href="../../d1/d93/Error_8hpp.html" target="_top" xlink:title=" ">
<polygon fill="white" stroke="black" points="461,-280.5 461,-299.5 559,-299.5 559,-280.5 461,-280.5"/>
<text text-anchor="middle" x="510" y="-287.5" font-family="Helvetica,sans-Serif" font-size="10.00">AH/Error/Error.hpp</text>
</a>
</g>
</g>
<!-- Node3&#45;&gt;Node4 -->
<g id="edge3" class="edge"><title>Node3&#45;&gt;Node4</title>
<path fill="none" stroke="midnightblue" d="M417.673,-336.324C435.394,-327.625 462.903,-314.12 483.288,-304.113"/>
<polygon fill="midnightblue" stroke="midnightblue" points="484.936,-307.203 492.37,-299.655 481.851,-300.919 484.936,-307.203"/>
</g>
<!-- Node14 -->
<g id="node14" class="node"><title>Node14</title>
<g id="a_node14"><a xlink:title=" ">
<polygon fill="white" stroke="#bfbfbf" points="0,-56.5 0,-75.5 52,-75.5 52,-56.5 0,-56.5"/>
<text text-anchor="middle" x="26" y="-63.5" font-family="Helvetica,sans-Serif" font-size="10.00">stddef.h</text>
</a>
</g>
</g>
<!-- Node3&#45;&gt;Node14 -->
<g id="edge23" class="edge"><title>Node3&#45;&gt;Node14</title>
<path fill="none" stroke="midnightblue" d="M370.359,-342.516C283.227,-334.405 34,-305.082 34,-235 34,-235 34,-235 34,-177 34,-144.863 30.5614,-107.584 28.193,-85.7187"/>
<polygon fill="midnightblue" stroke="midnightblue" points="31.6441,-85.0874 27.0459,-75.5424 24.6881,-85.8715 31.6441,-85.0874"/>
</g>
<!-- Node18 -->
<g id="node18" class="node"><title>Node18</title>
<g id="a_node18"><a xlink:title=" ">
<polygon fill="white" stroke="#bfbfbf" points="238.5,-280.5 238.5,-299.5 339.5,-299.5 339.5,-280.5 238.5,-280.5"/>
<text text-anchor="middle" x="289" y="-287.5" font-family="Helvetica,sans-Serif" font-size="10.00">AH/STL/type_traits</text>
</a>
</g>
</g>
<!-- Node3&#45;&gt;Node18 -->
<g id="edge21" class="edge"><title>Node3&#45;&gt;Node18</title>
<path fill="none" stroke="midnightblue" d="M382.166,-336.324C364.284,-327.625 336.525,-314.12 315.954,-304.113"/>
<polygon fill="midnightblue" stroke="midnightblue" points="317.313,-300.882 306.79,-299.655 314.251,-307.177 317.313,-300.882"/>
</g>
<!-- Node19 -->
<g id="node19" class="node"><title>Node19</title>
<g id="a_node19"><a xlink:title=" ">
<polygon fill="white" stroke="#bfbfbf" points="357.5,-280.5 357.5,-299.5 442.5,-299.5 442.5,-280.5 357.5,-280.5"/>
<text text-anchor="middle" x="400" y="-287.5" font-family="Helvetica,sans-Serif" font-size="10.00">AH/STL/iterator</text>
</a>
</g>
</g>
<!-- Node3&#45;&gt;Node19 -->
<g id="edge22" class="edge"><title>Node3&#45;&gt;Node19</title>
<path fill="none" stroke="midnightblue" d="M400,-336.083C400,-329.006 400,-318.861 400,-309.986"/>
<polygon fill="midnightblue" stroke="midnightblue" points="403.5,-309.751 400,-299.751 396.5,-309.751 403.5,-309.751"/>
</g>
<!-- Node5 -->
<g id="node5" class="node"><title>Node5</title>
<g id="a_node5"><a xlink:href="../../df/dee/Debug_8hpp.html" target="_top" xlink:title=" ">
<polygon fill="white" stroke="black" points="453.5,-224.5 453.5,-243.5 566.5,-243.5 566.5,-224.5 453.5,-224.5"/>
<text text-anchor="middle" x="510" y="-231.5" font-family="Helvetica,sans-Serif" font-size="10.00">AH/Debug/Debug.hpp</text>
</a>
</g>
</g>
<!-- Node4&#45;&gt;Node5 -->
<g id="edge4" class="edge"><title>Node4&#45;&gt;Node5</title>
<path fill="none" stroke="midnightblue" d="M510,-280.083C510,-273.006 510,-262.861 510,-253.986"/>
<polygon fill="midnightblue" stroke="midnightblue" points="513.5,-253.751 510,-243.751 506.5,-253.751 513.5,-253.751"/>
</g>
<!-- Node5&#45;&gt;Node6 -->
<g id="edge5" class="edge"><title>Node5&#45;&gt;Node6</title>
<path fill="none" stroke="midnightblue" d="M542.324,-224.444C577.389,-215.162 633.498,-200.309 671.965,-190.127"/>
<polygon fill="midnightblue" stroke="midnightblue" points="673.055,-193.459 681.827,-187.516 671.264,-186.692 673.055,-193.459"/>
</g>
<!-- Node7 -->
<g id="node7" class="node"><title>Node7</title>
<g id="a_node7"><a xlink:title=" ">
<polygon fill="white" stroke="#bfbfbf" points="535,-0.5 535,-19.5 593,-19.5 593,-0.5 535,-0.5"/>
<text text-anchor="middle" x="564" y="-7.5" font-family="Helvetica,sans-Serif" font-size="10.00">Arduino.h</text>
</a>
</g>
</g>
<!-- Node5&#45;&gt;Node7 -->
<g id="edge19" class="edge"><title>Node5&#45;&gt;Node7</title>
<path fill="none" stroke="midnightblue" d="M512.117,-224.297C520.079,-191.563 548.341,-75.3752 559.46,-29.6664"/>
<polygon fill="midnightblue" stroke="midnightblue" points="562.876,-30.4277 561.839,-19.8837 556.075,-28.7732 562.876,-30.4277"/>
</g>
<!-- Node8 -->
<g id="node8" class="node"><title>Node8</title>
<g id="a_node8"><a xlink:href="../../d2/dd5/SettingsWrapper_8hpp.html" target="_top" xlink:title=" ">
<polygon fill="white" stroke="black" points="256,-168.5 256,-187.5 420,-187.5 420,-168.5 256,-168.5"/>
<text text-anchor="middle" x="338" y="-175.5" font-family="Helvetica,sans-Serif" font-size="10.00">AH/Settings/SettingsWrapper.hpp</text>
</a>
</g>
</g>
<!-- Node5&#45;&gt;Node8 -->
<g id="edge7" class="edge"><title>Node5&#45;&gt;Node8</title>
<path fill="none" stroke="midnightblue" d="M477.657,-224.444C446.729,-215.359 400.598,-200.939 369.843,-190.783"/>
<polygon fill="midnightblue" stroke="midnightblue" points="370.64,-187.36 360.046,-187.516 368.426,-194 370.64,-187.36"/>
</g>
<!-- Node17 -->
<g id="node17" class="node"><title>Node17</title>
<g id="a_node17"><a xlink:href="../../d7/d52/DebugVal_8hpp.html" target="_top" xlink:title=" ">
<polygon fill="white" stroke="black" points="538,-168.5 538,-187.5 616,-187.5 616,-168.5 538,-168.5"/>
<text text-anchor="middle" x="577" y="-175.5" font-family="Helvetica,sans-Serif" font-size="10.00">DebugVal.hpp</text>
</a>
</g>
</g>
<!-- Node5&#45;&gt;Node17 -->
<g id="edge20" class="edge"><title>Node5&#45;&gt;Node17</title>
<path fill="none" stroke="midnightblue" d="M520.765,-224.324C530.766,-216.263 545.887,-204.077 557.93,-194.369"/>
<polygon fill="midnightblue" stroke="midnightblue" points="560.45,-196.834 566.039,-187.834 556.057,-191.384 560.45,-196.834"/>
</g>
<!-- Node6&#45;&gt;Node7 -->
<g id="edge6" class="edge"><title>Node6&#45;&gt;Node7</title>
<path fill="none" stroke="midnightblue" d="M705.935,-168.075C681.813,-141.38 609.962,-61.865 578.749,-27.3218"/>
<polygon fill="midnightblue" stroke="midnightblue" points="581.044,-24.6412 571.742,-19.5681 575.85,-29.3343 581.044,-24.6412"/>
</g>
<!-- Node8&#45;&gt;Node5 -->
<g id="edge18" class="edge"><title>Node8&#45;&gt;Node5</title>
<path fill="none" stroke="midnightblue" d="M370.206,-187.516C401.09,-196.585 447.222,-211.004 478.022,-221.172"/>
<polygon fill="midnightblue" stroke="midnightblue" points="477.241,-224.601 487.835,-224.444 479.455,-217.96 477.241,-224.601"/>
</g>
<!-- Node9 -->
<g id="node9" class="node"><title>Node9</title>
<g id="a_node9"><a xlink:href="../../dc/dc7/NamespaceSettings_8hpp.html" target="_top" xlink:title=" ">
<polygon fill="white" stroke="black" points="64,-0.5 64,-19.5 188,-19.5 188,-0.5 64,-0.5"/>
<text text-anchor="middle" x="126" y="-7.5" font-family="Helvetica,sans-Serif" font-size="10.00">NamespaceSettings.hpp</text>
</a>
</g>
</g>
<!-- Node8&#45;&gt;Node9 -->
<g id="edge8" class="edge"><title>Node8&#45;&gt;Node9</title>
<path fill="none" stroke="midnightblue" d="M255.984,-170.971C198.071,-164.933 127.305,-153.357 107,-132 83.5975,-107.385 89.9338,-88.732 99,-56 101.792,-45.9205 107.509,-35.832 112.967,-27.7694"/>
<polygon fill="midnightblue" stroke="midnightblue" points="115.825,-29.7899 118.849,-19.6357 110.153,-25.6881 115.825,-29.7899"/>
</g>
<!-- Node10 -->
<g id="node10" class="node"><title>Node10</title>
<g id="a_node10"><a xlink:href="../../db/d02/Settings_8hpp.html" target="_top" xlink:title="All user settings and debugging options can be changed here.">
<polygon fill="white" stroke="black" points="302.5,-112.5 302.5,-131.5 373.5,-131.5 373.5,-112.5 302.5,-112.5"/>
<text text-anchor="middle" x="338" y="-119.5" font-family="Helvetica,sans-Serif" font-size="10.00">Settings.hpp</text>
</a>
</g>
</g>
<!-- Node8&#45;&gt;Node10 -->
<g id="edge9" class="edge"><title>Node8&#45;&gt;Node10</title>
<path fill="none" stroke="midnightblue" d="M338,-168.083C338,-161.006 338,-150.861 338,-141.986"/>
<polygon fill="midnightblue" stroke="midnightblue" points="341.5,-141.751 338,-131.751 334.5,-141.751 341.5,-141.751"/>
</g>
<!-- Node16 -->
<g id="node16" class="node"><title>Node16</title>
<g id="a_node16"><a xlink:href="../../d9/d98/TeensyUSBTypes_8hpp.html" target="_top" xlink:title=" ">
<polygon fill="white" stroke="black" points="116,-112.5 116,-131.5 284,-131.5 284,-112.5 116,-112.5"/>
<text text-anchor="middle" x="200" y="-119.5" font-family="Helvetica,sans-Serif" font-size="10.00">AH/Teensy/TeensyUSBTypes.hpp</text>
</a>
</g>
</g>
<!-- Node8&#45;&gt;Node16 -->
<g id="edge17" class="edge"><title>Node8&#45;&gt;Node16</title>
<path fill="none" stroke="midnightblue" d="M316.133,-168.444C293.221,-159.478 257.025,-145.314 231.134,-135.183"/>
<polygon fill="midnightblue" stroke="midnightblue" points="232.352,-131.901 221.764,-131.516 229.801,-138.42 232.352,-131.901"/>
</g>
<!-- Node11 -->
<g id="node11" class="node"><title>Node11</title>
<g id="a_node11"><a xlink:href="../../dc/d50/Frequency_8hpp.html" target="_top" xlink:title=" ">
<polygon fill="white" stroke="black" points="108,-56.5 108,-75.5 236,-75.5 236,-56.5 108,-56.5"/>
<text text-anchor="middle" x="172" y="-63.5" font-family="Helvetica,sans-Serif" font-size="10.00">AH/Types/Frequency.hpp</text>
</a>
</g>
</g>
<!-- Node10&#45;&gt;Node11 -->
<g id="edge10" class="edge"><title>Node10&#45;&gt;Node11</title>
<path fill="none" stroke="midnightblue" d="M311.697,-112.444C283.649,-103.32 239.056,-88.8133 207.816,-78.6509"/>
<polygon fill="midnightblue" stroke="midnightblue" points="208.772,-75.2816 198.18,-75.5164 206.607,-81.9383 208.772,-75.2816"/>
</g>
<!-- Node12 -->
<g id="node12" class="node"><title>Node12</title>
<g id="a_node12"><a xlink:href="../../d7/d7c/ADCConfig_8hpp.html" target="_top" xlink:title="This file contains the platform&#45;specific ADC resolutions. By default, the library automatically selec...">
<polygon fill="white" stroke="black" points="388,-56.5 388,-75.5 536,-75.5 536,-56.5 388,-56.5"/>
<text text-anchor="middle" x="462" y="-63.5" font-family="Helvetica,sans-Serif" font-size="10.00">AH/Hardware/ADCConfig.hpp</text>
</a>
</g>
</g>
<!-- Node10&#45;&gt;Node12 -->
<g id="edge12" class="edge"><title>Node10&#45;&gt;Node12</title>
<path fill="none" stroke="midnightblue" d="M357.648,-112.444C377.965,-103.596 409.903,-89.6875 433.098,-79.5865"/>
<polygon fill="midnightblue" stroke="midnightblue" points="434.673,-82.7181 442.444,-75.5164 431.878,-76.3002 434.673,-82.7181"/>
</g>
<!-- Node13 -->
<g id="node13" class="node"><title>Node13</title>
<g id="a_node13"><a xlink:title=" ">
<polygon fill="white" stroke="#bfbfbf" points="322,-56.5 322,-75.5 370,-75.5 370,-56.5 322,-56.5"/>
<text text-anchor="middle" x="346" y="-63.5" font-family="Helvetica,sans-Serif" font-size="10.00">limits.h</text>
</a>
</g>
</g>
<!-- Node10&#45;&gt;Node13 -->
<g id="edge14" class="edge"><title>Node10&#45;&gt;Node13</title>
<path fill="none" stroke="midnightblue" d="M339.321,-112.083C340.381,-104.927 341.906,-94.6353 343.231,-85.6911"/>
<polygon fill="midnightblue" stroke="midnightblue" points="346.7,-86.1561 344.704,-75.7511 339.776,-85.1302 346.7,-86.1561"/>
</g>
<!-- Node10&#45;&gt;Node14 -->
<g id="edge15" class="edge"><title>Node10&#45;&gt;Node14</title>
<path fill="none" stroke="midnightblue" d="M302.158,-113.729C299.062,-113.133 295.977,-112.549 293,-112 210.608,-96.8213 113.53,-80.9669 62.1461,-72.7341"/>
<polygon fill="midnightblue" stroke="midnightblue" points="62.6236,-69.2661 52.1965,-71.1438 61.5187,-76.1784 62.6236,-69.2661"/>
</g>
<!-- Node15 -->
<g id="node15" class="node"><title>Node15</title>
<g id="a_node15"><a xlink:title=" ">
<polygon fill="white" stroke="#bfbfbf" points="254.5,-56.5 254.5,-75.5 303.5,-75.5 303.5,-56.5 254.5,-56.5"/>
<text text-anchor="middle" x="279" y="-63.5" font-family="Helvetica,sans-Serif" font-size="10.00">stdint.h</text>
</a>
</g>
</g>
<!-- Node10&#45;&gt;Node15 -->
<g id="edge16" class="edge"><title>Node10&#45;&gt;Node15</title>
<path fill="none" stroke="midnightblue" d="M328.521,-112.324C319.799,-104.341 306.657,-92.3128 296.102,-82.6529"/>
<polygon fill="midnightblue" stroke="midnightblue" points="298.392,-80.0036 288.652,-75.8339 293.666,-85.1674 298.392,-80.0036"/>
</g>
<!-- Node11&#45;&gt;Node9 -->
<g id="edge11" class="edge"><title>Node11&#45;&gt;Node9</title>
<path fill="none" stroke="midnightblue" d="M164.404,-56.083C157.773,-48.2982 147.979,-36.8015 139.942,-27.3665"/>
<polygon fill="midnightblue" stroke="midnightblue" points="142.604,-25.0939 133.455,-19.7511 137.275,-29.6332 142.604,-25.0939"/>
</g>
<!-- Node12&#45;&gt;Node7 -->
<g id="edge13" class="edge"><title>Node12&#45;&gt;Node7</title>
<path fill="none" stroke="midnightblue" d="M478.388,-56.324C494.671,-47.7034 519.867,-34.3643 538.716,-24.3855"/>
<polygon fill="midnightblue" stroke="midnightblue" points="540.452,-27.4267 547.653,-19.6545 537.177,-21.2402 540.452,-27.4267"/>
</g>
<!-- Node20&#45;&gt;Node3 -->
<g id="edge26" class="edge"><title>Node20&#45;&gt;Node3</title>
<path fill="none" stroke="midnightblue" d="M467.258,-448.152C478.278,-435.222 495.18,-410.672 484,-392 474.196,-375.625 456.171,-364.871 439.324,-357.996"/>
<polygon fill="midnightblue" stroke="midnightblue" points="440.205,-354.589 429.613,-354.383 437.765,-361.15 440.205,-354.589"/>
</g>
<!-- Node21 -->
<g id="node21" class="node"><title>Node21</title>
<g id="a_node21"><a xlink:title=" ">
<polygon fill="white" stroke="#bfbfbf" points="393,-392.5 393,-411.5 475,-411.5 475,-392.5 393,-392.5"/>
<text text-anchor="middle" x="434" y="-399.5" font-family="Helvetica,sans-Serif" font-size="10.00">AH/STL/cmath</text>
</a>
</g>
</g>
<!-- Node20&#45;&gt;Node21 -->
<g id="edge27" class="edge"><title>Node20&#45;&gt;Node21</title>
<path fill="none" stroke="midnightblue" d="M454.872,-448.083C451.486,-440.77 446.584,-430.181 442.381,-421.103"/>
<polygon fill="midnightblue" stroke="midnightblue" points="445.429,-419.355 438.051,-411.751 439.077,-422.296 445.429,-419.355"/>
</g>
<!-- Node22 -->
<g id="node22" class="node"><title>Node22</title>
<g id="a_node22"><a xlink:href="../../d2/d03/TransferFunction_8hpp.html" target="_top" xlink:title=" ">
<polygon fill="white" stroke="black" points="235.5,-392.5 235.5,-411.5 374.5,-411.5 374.5,-392.5 235.5,-392.5"/>
<text text-anchor="middle" x="305" y="-399.5" font-family="Helvetica,sans-Serif" font-size="10.00">Filters/TransferFunction.hpp</text>
</a>
</g>
</g>
<!-- Node20&#45;&gt;Node22 -->
<g id="edge28" class="edge"><title>Node20&#45;&gt;Node22</title>
<path fill="none" stroke="midnightblue" d="M434.598,-448.444C408.803,-439.399 367.923,-425.064 338.982,-414.916"/>
<polygon fill="midnightblue" stroke="midnightblue" points="339.882,-411.523 329.288,-411.516 337.566,-418.128 339.882,-411.523"/>
</g>
<!-- Node22&#45;&gt;Node3 -->
<g id="edge29" class="edge"><title>Node22&#45;&gt;Node3</title>
<path fill="none" stroke="midnightblue" d="M320.263,-392.324C335.221,-383.822 358.255,-370.729 375.727,-360.797"/>
<polygon fill="midnightblue" stroke="midnightblue" points="377.81,-363.639 384.774,-355.655 374.351,-357.553 377.81,-363.639"/>
</g>
</g>
</svg>
