<?xml version="1.0" encoding="UTF-8" standalone="no"?>
<!DOCTYPE svg PUBLIC "-//W3C//DTD SVG 1.1//EN"
 "http://www.w3.org/Graphics/SVG/1.1/DTD/svg11.dtd">
<!-- Generated by graphviz version 2.40.1 (20161225.0304)
 -->
<!-- Title: SOSFilter.hpp Pages: 1 -->
<svg width="952pt" height="700pt"
 viewBox="0.00 0.00 952.00 700.00" xmlns="http://www.w3.org/2000/svg" xmlns:xlink="http://www.w3.org/1999/xlink">
<g id="graph0" class="graph" transform="scale(1 1) rotate(0) translate(4 696)">
<title>SOSFilter.hpp</title>
<polygon fill="#ffffff" stroke="transparent" points="-4,4 -4,-696 948,-696 948,4 -4,4"/>
<!-- Node1 -->
<g id="node1" class="node">
<title>Node1</title>
<g id="a_node1"><a xlink:title=" ">
<polygon fill="#bfbfbf" stroke="#000000" points="488,-672.5 488,-691.5 566,-691.5 566,-672.5 488,-672.5"/>
<text text-anchor="middle" x="527" y="-679.5" font-family="Helvetica,sans-Serif" font-size="10.00" fill="#000000">SOSFilter.hpp</text>
</a>
</g>
</g>
<!-- Node2 -->
<g id="node2" class="node">
<title>Node2</title>
<g id="a_node2"><a xlink:href="../../d5/db6/ArrayHelpers_8hpp.html" target="_top" xlink:title=" ">
<polygon fill="#ffffff" stroke="#000000" points="676,-560.5 676,-579.5 836,-579.5 836,-560.5 676,-560.5"/>
<text text-anchor="middle" x="756" y="-567.5" font-family="Helvetica,sans-Serif" font-size="10.00" fill="#000000">AH/Containers/ArrayHelpers.hpp</text>
</a>
</g>
</g>
<!-- Node1&#45;&gt;Node2 -->
<g id="edge1" class="edge">
<title>Node1&#45;&gt;Node2</title>
<path fill="none" stroke="#191970" d="M546.5244,-672.4509C587.0004,-652.6548 680.2127,-607.0663 727.4491,-583.9638"/>
<polygon fill="#191970" stroke="#191970" points="729.0796,-587.0626 736.525,-579.5249 726.0041,-580.7743 729.0796,-587.0626"/>
</g>
<!-- Node25 -->
<g id="node25" class="node">
<title>Node25</title>
<g id="a_node25"><a xlink:href="../../d1/dde/BiQuad_8hpp.html" target="_top" xlink:title=" ">
<polygon fill="#ffffff" stroke="#000000" points="440,-616.5 440,-635.5 538,-635.5 538,-616.5 440,-616.5"/>
<text text-anchor="middle" x="489" y="-623.5" font-family="Helvetica,sans-Serif" font-size="10.00" fill="#000000">Filters/BiQuad.hpp</text>
</a>
</g>
</g>
<!-- Node1&#45;&gt;Node25 -->
<g id="edge41" class="edge">
<title>Node1&#45;&gt;Node25</title>
<path fill="none" stroke="#191970" d="M520.3809,-672.2455C515.0954,-664.4564 507.5459,-653.3308 501.1762,-643.9439"/>
<polygon fill="#191970" stroke="#191970" points="504.0545,-641.9522 495.5432,-635.6427 498.2621,-645.8827 504.0545,-641.9522"/>
</g>
<!-- Node3 -->
<g id="node3" class="node">
<title>Node3</title>
<g id="a_node3"><a xlink:href="../../d1/d65/Warnings_8hpp.html" target="_top" xlink:title=" ">
<polygon fill="#ffffff" stroke="#000000" points="432.5,-.5 432.5,-19.5 565.5,-19.5 565.5,-.5 432.5,-.5"/>
<text text-anchor="middle" x="499" y="-7.5" font-family="Helvetica,sans-Serif" font-size="10.00" fill="#000000">AH/Settings/Warnings.hpp</text>
</a>
</g>
</g>
<!-- Node2&#45;&gt;Node3 -->
<g id="edge2" class="edge">
<title>Node2&#45;&gt;Node3</title>
<path fill="none" stroke="#191970" d="M814.4538,-560.4464C869.6417,-547.6959 944,-519.1669 944,-458 944,-458 944,-458 944,-122 944,-46.9551 702.9915,-21.7074 575.705,-13.6062"/>
<polygon fill="#191970" stroke="#191970" points="575.8173,-10.1065 565.621,-12.9851 575.3869,-17.0933 575.8173,-10.1065"/>
</g>
<!-- Node4 -->
<g id="node4" class="node">
<title>Node4</title>
<g id="a_node4"><a xlink:href="../../de/d76/Array_8hpp.html" target="_top" xlink:title=" ">
<polygon fill="#ffffff" stroke="#000000" points="297.5,-504.5 297.5,-523.5 356.5,-523.5 356.5,-504.5 297.5,-504.5"/>
<text text-anchor="middle" x="327" y="-511.5" font-family="Helvetica,sans-Serif" font-size="10.00" fill="#000000">Array.hpp</text>
</a>
</g>
</g>
<!-- Node2&#45;&gt;Node4 -->
<g id="edge3" class="edge">
<title>Node2&#45;&gt;Node4</title>
<path fill="none" stroke="#191970" d="M682.7397,-560.4369C591.5022,-548.5271 438.8931,-528.6061 366.8992,-519.2083"/>
<polygon fill="#191970" stroke="#191970" points="367.2479,-515.7242 356.879,-517.9003 366.3418,-522.6653 367.2479,-515.7242"/>
</g>
<!-- Node7 -->
<g id="node7" class="node">
<title>Node7</title>
<g id="a_node7"><a xlink:href="../../dd/d80/PrintStream_8hpp.html" target="_top" xlink:title=" ">
<polygon fill="#ffffff" stroke="#000000" points="719.5,-280.5 719.5,-299.5 878.5,-299.5 878.5,-280.5 719.5,-280.5"/>
<text text-anchor="middle" x="799" y="-287.5" font-family="Helvetica,sans-Serif" font-size="10.00" fill="#000000">AH/PrintStream/PrintStream.hpp</text>
</a>
</g>
</g>
<!-- Node2&#45;&gt;Node7 -->
<g id="edge40" class="edge">
<title>Node2&#45;&gt;Node7</title>
<path fill="none" stroke="#191970" d="M776.314,-560.4652C807.5989,-544.209 864,-507.9722 864,-458 864,-458 864,-458 864,-402 864,-371.4754 860.5062,-362.2928 845,-336 838.4111,-324.8277 828.4764,-314.4219 819.5238,-306.3433"/>
<polygon fill="#191970" stroke="#191970" points="821.5682,-303.4853 811.7023,-299.6232 817.0064,-308.7948 821.5682,-303.4853"/>
</g>
<!-- Node24 -->
<g id="node24" class="node">
<title>Node24</title>
<g id="a_node24"><a xlink:title=" ">
<polygon fill="#ffffff" stroke="#bfbfbf" points="708.5,-504.5 708.5,-523.5 803.5,-523.5 803.5,-504.5 708.5,-504.5"/>
<text text-anchor="middle" x="756" y="-511.5" font-family="Helvetica,sans-Serif" font-size="10.00" fill="#000000">AH/STL/algorithm</text>
</a>
</g>
</g>
<!-- Node2&#45;&gt;Node24 -->
<g id="edge39" class="edge">
<title>Node2&#45;&gt;Node24</title>
<path fill="none" stroke="#191970" d="M756,-560.2455C756,-552.9382 756,-542.6944 756,-533.7046"/>
<polygon fill="#191970" stroke="#191970" points="759.5001,-533.6426 756,-523.6427 752.5001,-533.6427 759.5001,-533.6426"/>
</g>
<!-- Node4&#45;&gt;Node3 -->
<g id="edge4" class="edge">
<title>Node4&#45;&gt;Node3</title>
<path fill="none" stroke="#191970" d="M297.4042,-510.3245C216.9102,-499.5086 0,-464.5588 0,-402 0,-402 0,-402 0,-122 0,-64.2222 57.2543,-74.4712 112,-56 167.6703,-37.2169 325.9172,-22.7481 421.9422,-15.3846"/>
<polygon fill="#191970" stroke="#191970" points="422.4763,-18.8542 432.183,-14.6081 421.947,-11.8743 422.4763,-18.8542"/>
</g>
<!-- Node5 -->
<g id="node5" class="node">
<title>Node5</title>
<g id="a_node5"><a xlink:href="../../d1/d93/Error_8hpp.html" target="_top" xlink:title=" ">
<polygon fill="#ffffff" stroke="#000000" points="643,-448.5 643,-467.5 741,-467.5 741,-448.5 643,-448.5"/>
<text text-anchor="middle" x="692" y="-455.5" font-family="Helvetica,sans-Serif" font-size="10.00" fill="#000000">AH/Error/Error.hpp</text>
</a>
</g>
</g>
<!-- Node4&#45;&gt;Node5 -->
<g id="edge5" class="edge">
<title>Node4&#45;&gt;Node5</title>
<path fill="none" stroke="#191970" d="M356.5603,-509.4647C416.4941,-500.2694 553.3314,-479.2752 632.4734,-467.1328"/>
<polygon fill="#191970" stroke="#191970" points="633.4187,-470.5289 642.7723,-465.5528 632.3571,-463.6098 633.4187,-470.5289"/>
</g>
<!-- Node13 -->
<g id="node13" class="node">
<title>Node13</title>
<g id="a_node13"><a xlink:title=" ">
<polygon fill="#ffffff" stroke="#bfbfbf" points="28.5,-112.5 28.5,-131.5 129.5,-131.5 129.5,-112.5 28.5,-112.5"/>
<text text-anchor="middle" x="79" y="-119.5" font-family="Helvetica,sans-Serif" font-size="10.00" fill="#000000">AH/STL/type_traits</text>
</a>
</g>
</g>
<!-- Node4&#45;&gt;Node13 -->
<g id="edge37" class="edge">
<title>Node4&#45;&gt;Node13</title>
<path fill="none" stroke="#191970" d="M297.0854,-507.1682C231.125,-491.2369 79,-449.3607 79,-402 79,-402 79,-402 79,-234 79,-201.7116 79,-164.1872 79,-141.8048"/>
<polygon fill="#191970" stroke="#191970" points="82.5001,-141.5883 79,-131.5884 75.5001,-141.5884 82.5001,-141.5883"/>
</g>
<!-- Node19 -->
<g id="node19" class="node">
<title>Node19</title>
<g id="a_node19"><a xlink:title=" ">
<polygon fill="#ffffff" stroke="#bfbfbf" points="120,-224.5 120,-243.5 172,-243.5 172,-224.5 120,-224.5"/>
<text text-anchor="middle" x="146" y="-231.5" font-family="Helvetica,sans-Serif" font-size="10.00" fill="#000000">stddef.h</text>
</a>
</g>
</g>
<!-- Node4&#45;&gt;Node19 -->
<g id="edge38" class="edge">
<title>Node4&#45;&gt;Node19</title>
<path fill="none" stroke="#191970" d="M308.1082,-504.4787C278.373,-487.9949 224,-451.1354 224,-402 224,-402 224,-402 224,-346 224,-305.9033 189.9191,-269.8785 166.8129,-250.0622"/>
<polygon fill="#191970" stroke="#191970" points="168.8211,-247.1816 158.8801,-243.5173 164.3663,-252.5811 168.8211,-247.1816"/>
</g>
<!-- Node23 -->
<g id="node23" class="node">
<title>Node23</title>
<g id="a_node23"><a xlink:title=" ">
<polygon fill="#ffffff" stroke="#bfbfbf" points="284.5,-448.5 284.5,-467.5 369.5,-467.5 369.5,-448.5 284.5,-448.5"/>
<text text-anchor="middle" x="327" y="-455.5" font-family="Helvetica,sans-Serif" font-size="10.00" fill="#000000">AH/STL/iterator</text>
</a>
</g>
</g>
<!-- Node4&#45;&gt;Node23 -->
<g id="edge36" class="edge">
<title>Node4&#45;&gt;Node23</title>
<path fill="none" stroke="#191970" d="M327,-504.2455C327,-496.9382 327,-486.6944 327,-477.7046"/>
<polygon fill="#191970" stroke="#191970" points="330.5001,-477.6426 327,-467.6427 323.5001,-477.6427 330.5001,-477.6426"/>
</g>
<!-- Node5&#45;&gt;Node3 -->
<g id="edge6" class="edge">
<title>Node5&#45;&gt;Node3</title>
<path fill="none" stroke="#191970" d="M741.0959,-453.7181C804.276,-445.2074 906,-420.0126 906,-346 906,-346 906,-346 906,-122 906,-54.2607 693.7684,-25.9501 575.8175,-15.4467"/>
<polygon fill="#191970" stroke="#191970" points="576.0172,-11.951 565.752,-14.5732 575.4119,-18.9248 576.0172,-11.951"/>
</g>
<!-- Node6 -->
<g id="node6" class="node">
<title>Node6</title>
<g id="a_node6"><a xlink:href="../../df/dee/Debug_8hpp.html" target="_top" xlink:title=" ">
<polygon fill="#ffffff" stroke="#000000" points="635.5,-392.5 635.5,-411.5 748.5,-411.5 748.5,-392.5 635.5,-392.5"/>
<text text-anchor="middle" x="692" y="-399.5" font-family="Helvetica,sans-Serif" font-size="10.00" fill="#000000">AH/Debug/Debug.hpp</text>
</a>
</g>
</g>
<!-- Node5&#45;&gt;Node6 -->
<g id="edge7" class="edge">
<title>Node5&#45;&gt;Node6</title>
<path fill="none" stroke="#191970" d="M692,-448.2455C692,-440.9382 692,-430.6944 692,-421.7046"/>
<polygon fill="#191970" stroke="#191970" points="695.5001,-421.6426 692,-411.6427 688.5001,-421.6427 695.5001,-421.6426"/>
</g>
<!-- Node6&#45;&gt;Node3 -->
<g id="edge8" class="edge">
<title>Node6&#45;&gt;Node3</title>
<path fill="none" stroke="#191970" d="M692,-392.4116C692,-373.0538 692,-327.9167 692,-290 692,-290 692,-290 692,-122 692,-63.892 625.7439,-35.4275 570.8725,-21.8176"/>
<polygon fill="#191970" stroke="#191970" points="571.6648,-18.4085 561.1288,-19.5236 570.0605,-25.2222 571.6648,-18.4085"/>
</g>
<!-- Node6&#45;&gt;Node7 -->
<g id="edge9" class="edge">
<title>Node6&#45;&gt;Node7</title>
<path fill="none" stroke="#191970" d="M699.7875,-392.2984C710.4687,-379.1549 730.4562,-355.1354 749,-336 758.9042,-325.7798 770.5792,-314.9752 780.1558,-306.4073"/>
<polygon fill="#191970" stroke="#191970" points="782.7644,-308.7726 787.9341,-299.5246 778.1257,-303.5302 782.7644,-308.7726"/>
</g>
<!-- Node14 -->
<g id="node14" class="node">
<title>Node14</title>
<g id="a_node14"><a xlink:href="../../d2/dd5/SettingsWrapper_8hpp.html" target="_top" xlink:title=" ">
<polygon fill="#ffffff" stroke="#000000" points="442,-336.5 442,-355.5 606,-355.5 606,-336.5 442,-336.5"/>
<text text-anchor="middle" x="524" y="-343.5" font-family="Helvetica,sans-Serif" font-size="10.00" fill="#000000">AH/Settings/SettingsWrapper.hpp</text>
</a>
</g>
</g>
<!-- Node6&#45;&gt;Node14 -->
<g id="edge20" class="edge">
<title>Node6&#45;&gt;Node14</title>
<path fill="none" stroke="#191970" d="M657.8777,-392.3733C628.3778,-383.1419 586.1888,-369.1402 557.0188,-358.9375"/>
<polygon fill="#191970" stroke="#191970" points="557.8809,-355.5302 547.2861,-355.5011 555.5503,-362.1308 557.8809,-355.5302"/>
</g>
<!-- Node22 -->
<g id="node22" class="node">
<title>Node22</title>
<g id="a_node22"><a xlink:href="../../d7/d52/DebugVal_8hpp.html" target="_top" xlink:title=" ">
<polygon fill="#ffffff" stroke="#000000" points="758,-336.5 758,-355.5 836,-355.5 836,-336.5 758,-336.5"/>
<text text-anchor="middle" x="797" y="-343.5" font-family="Helvetica,sans-Serif" font-size="10.00" fill="#000000">DebugVal.hpp</text>
</a>
</g>
</g>
<!-- Node6&#45;&gt;Node22 -->
<g id="edge35" class="edge">
<title>Node6&#45;&gt;Node22</title>
<path fill="none" stroke="#191970" d="M710.2896,-392.2455C726.7762,-383.4527 751.2352,-370.4079 769.9765,-360.4125"/>
<polygon fill="#191970" stroke="#191970" points="771.7435,-363.4368 778.92,-355.6427 768.4494,-357.2604 771.7435,-363.4368"/>
</g>
<!-- Node7&#45;&gt;Node3 -->
<g id="edge10" class="edge">
<title>Node7&#45;&gt;Node3</title>
<path fill="none" stroke="#191970" d="M793.8356,-280.4283C784.0998,-261.4624 764,-217.5212 764,-178 764,-178 764,-178 764,-122 764,-82.9495 739.6089,-75.8842 706,-56 683.3879,-42.6219 621.641,-29.8619 571.4283,-21.1896"/>
<polygon fill="#191970" stroke="#191970" points="571.9999,-17.7366 561.5546,-19.5107 570.8264,-24.6376 571.9999,-17.7366"/>
</g>
<!-- Node8 -->
<g id="node8" class="node">
<title>Node8</title>
<g id="a_node8"><a xlink:href="../../d6/ddf/Arduino-Wrapper_8h.html" target="_top" xlink:title=" ">
<polygon fill="#ffffff" stroke="#000000" points="107.5,-168.5 107.5,-187.5 222.5,-187.5 222.5,-168.5 107.5,-168.5"/>
<text text-anchor="middle" x="165" y="-175.5" font-family="Helvetica,sans-Serif" font-size="10.00" fill="#000000">AH/Arduino&#45;Wrapper.h</text>
</a>
</g>
</g>
<!-- Node7&#45;&gt;Node8 -->
<g id="edge11" class="edge">
<title>Node7&#45;&gt;Node8</title>
<path fill="none" stroke="#191970" d="M763.4441,-280.3837C710.5084,-266.349 607.6855,-240.1705 519,-224 420.0646,-205.9606 304.3206,-192.3082 232.8276,-184.7292"/>
<polygon fill="#191970" stroke="#191970" points="232.9189,-181.2196 222.6079,-183.6552 232.1873,-188.1813 232.9189,-181.2196"/>
</g>
<!-- Node9 -->
<g id="node9" class="node">
<title>Node9</title>
<g id="a_node9"><a xlink:href="../../d7/d79/MinMaxFix_8hpp.html" target="_top" xlink:title=" ">
<polygon fill="#ffffff" stroke="#000000" points="279.5,-112.5 279.5,-131.5 404.5,-131.5 404.5,-112.5 279.5,-112.5"/>
<text text-anchor="middle" x="342" y="-119.5" font-family="Helvetica,sans-Serif" font-size="10.00" fill="#000000">AH/Math/MinMaxFix.hpp</text>
</a>
</g>
</g>
<!-- Node8&#45;&gt;Node9 -->
<g id="edge12" class="edge">
<title>Node8&#45;&gt;Node9</title>
<path fill="none" stroke="#191970" d="M195.4274,-168.3733C224.9872,-159.021 270.0226,-144.7725 302.3695,-134.5385"/>
<polygon fill="#191970" stroke="#191970" points="303.4913,-137.8546 311.9697,-131.5011 301.3797,-131.1807 303.4913,-137.8546"/>
</g>
<!-- Node11 -->
<g id="node11" class="node">
<title>Node11</title>
<g id="a_node11"><a xlink:title=" ">
<polygon fill="#ffffff" stroke="#bfbfbf" points="117,-.5 117,-19.5 175,-19.5 175,-.5 117,-.5"/>
<text text-anchor="middle" x="146" y="-7.5" font-family="Helvetica,sans-Serif" font-size="10.00" fill="#000000">Arduino.h</text>
</a>
</g>
</g>
<!-- Node8&#45;&gt;Node11 -->
<g id="edge19" class="edge">
<title>Node8&#45;&gt;Node11</title>
<path fill="none" stroke="#191970" d="M161.8368,-168.2732C157.3729,-155.101 148.5779,-131.049 138,-112 128.4185,-94.7453 118.0723,-94.7792 112,-76 106.4047,-58.696 117.305,-40.4177 128.2176,-27.4954"/>
<polygon fill="#191970" stroke="#191970" points="131.0516,-29.5827 135.2172,-19.8412 125.8859,-24.8588 131.0516,-29.5827"/>
</g>
<!-- Node8&#45;&gt;Node13 -->
<g id="edge18" class="edge">
<title>Node8&#45;&gt;Node13</title>
<path fill="none" stroke="#191970" d="M150.0199,-168.2455C136.8249,-159.6534 117.3949,-147.0014 102.1921,-137.1018"/>
<polygon fill="#191970" stroke="#191970" points="104.0983,-134.1665 93.8084,-131.6427 100.2785,-140.0325 104.0983,-134.1665"/>
</g>
<!-- Node9&#45;&gt;Node3 -->
<g id="edge13" class="edge">
<title>Node9&#45;&gt;Node3</title>
<path fill="none" stroke="#191970" d="M347.3763,-112.2349C355.5714,-98.1324 372.4274,-72.0051 393,-56 411.6415,-41.4972 435.5564,-30.6047 455.9514,-23.0692"/>
<polygon fill="#191970" stroke="#191970" points="457.3835,-26.2751 465.6422,-19.6385 455.0474,-19.6764 457.3835,-26.2751"/>
</g>
<!-- Node10 -->
<g id="node10" class="node">
<title>Node10</title>
<g id="a_node10"><a xlink:href="../../d6/d3b/FixArduinoMacros_8hpp.html" target="_top" xlink:title=" ">
<polygon fill="#ffffff" stroke="#000000" points="121,-56.5 121,-75.5 277,-75.5 277,-56.5 121,-56.5"/>
<text text-anchor="middle" x="199" y="-63.5" font-family="Helvetica,sans-Serif" font-size="10.00" fill="#000000">AH/Math/FixArduinoMacros.hpp</text>
</a>
</g>
</g>
<!-- Node9&#45;&gt;Node10 -->
<g id="edge14" class="edge">
<title>Node9&#45;&gt;Node10</title>
<path fill="none" stroke="#191970" d="M317.4174,-112.3733C294.0504,-103.2226 258.7138,-89.3844 232.7216,-79.2057"/>
<polygon fill="#191970" stroke="#191970" points="233.8495,-75.8886 223.2618,-75.5011 231.297,-82.4066 233.8495,-75.8886"/>
</g>
<!-- Node12 -->
<g id="node12" class="node">
<title>Node12</title>
<g id="a_node12"><a xlink:href="../../dc/dc7/NamespaceSettings_8hpp.html" target="_top" xlink:title=" ">
<polygon fill="#ffffff" stroke="#000000" points="409,-56.5 409,-75.5 589,-75.5 589,-56.5 409,-56.5"/>
<text text-anchor="middle" x="499" y="-63.5" font-family="Helvetica,sans-Serif" font-size="10.00" fill="#000000">AH/Settings/NamespaceSettings.hpp</text>
</a>
</g>
</g>
<!-- Node9&#45;&gt;Node12 -->
<g id="edge17" class="edge">
<title>Node9&#45;&gt;Node12</title>
<path fill="none" stroke="#191970" d="M368.9893,-112.3733C394.8699,-103.1419 434.1248,-89.1402 462.7289,-78.9375"/>
<polygon fill="#191970" stroke="#191970" points="464.12,-82.1573 472.3629,-75.5011 461.7683,-75.5642 464.12,-82.1573"/>
</g>
<!-- Node10&#45;&gt;Node3 -->
<g id="edge15" class="edge">
<title>Node10&#45;&gt;Node3</title>
<path fill="none" stroke="#191970" d="M250.231,-56.4369C302.2208,-46.7321 382.7073,-31.708 437.9681,-21.3926"/>
<polygon fill="#191970" stroke="#191970" points="438.7924,-24.7993 447.9803,-19.5237 437.5079,-17.9182 438.7924,-24.7993"/>
</g>
<!-- Node10&#45;&gt;Node11 -->
<g id="edge16" class="edge">
<title>Node10&#45;&gt;Node11</title>
<path fill="none" stroke="#191970" d="M189.7681,-56.2455C182.1683,-48.2155 171.2123,-36.6394 162.1632,-27.0781"/>
<polygon fill="#191970" stroke="#191970" points="164.542,-24.4998 155.1261,-19.6427 159.4579,-29.3115 164.542,-24.4998"/>
</g>
<!-- Node14&#45;&gt;Node3 -->
<g id="edge21" class="edge">
<title>Node14&#45;&gt;Node3</title>
<path fill="none" stroke="#191970" d="M512.0001,-336.4602C497.4815,-323.6973 476.2407,-300.3148 487,-280 500.3277,-254.8358 521.5597,-265.6984 540,-244 596.6253,-177.3697 645.0326,-129.7154 598,-56 587.9797,-40.2949 571.0584,-29.8684 554.013,-22.9824"/>
<polygon fill="#191970" stroke="#191970" points="555.1671,-19.6777 544.5736,-19.51 552.7504,-26.2473 555.1671,-19.6777"/>
</g>
<!-- Node14&#45;&gt;Node6 -->
<g id="edge34" class="edge">
<title>Node14&#45;&gt;Node6</title>
<path fill="none" stroke="#191970" d="M557.7207,-355.5011C587.1046,-364.6889 629.2947,-378.686 658.5825,-388.9231"/>
<polygon fill="#191970" stroke="#191970" points="657.767,-392.3468 668.3618,-392.3733 660.096,-385.7456 657.767,-392.3468"/>
</g>
<!-- Node14&#45;&gt;Node12 -->
<g id="edge22" class="edge">
<title>Node14&#45;&gt;Node12</title>
<path fill="none" stroke="#191970" d="M498.115,-336.4647C482.2773,-329.1252 463.3206,-317.2779 454,-300 435.896,-266.44 494.2035,-272.9682 519,-244 553.4706,-203.7302 550.7468,-184.1944 560,-132 561.5517,-123.2476 563.9648,-119.9557 560,-112 553.3997,-98.756 540.9673,-88.3192 529.0395,-80.7581"/>
<polygon fill="#191970" stroke="#191970" points="530.5199,-77.5691 520.1216,-75.5378 526.9835,-83.6102 530.5199,-77.5691"/>
</g>
<!-- Node15 -->
<g id="node15" class="node">
<title>Node15</title>
<g id="a_node15"><a xlink:href="../../db/d02/Settings_8hpp.html" target="_top" xlink:title="All user settings and debugging options can be changed here.">
<polygon fill="#ffffff" stroke="#000000" points="330.5,-280.5 330.5,-299.5 401.5,-299.5 401.5,-280.5 330.5,-280.5"/>
<text text-anchor="middle" x="366" y="-287.5" font-family="Helvetica,sans-Serif" font-size="10.00" fill="#000000">Settings.hpp</text>
</a>
</g>
</g>
<!-- Node14&#45;&gt;Node15 -->
<g id="edge23" class="edge">
<title>Node14&#45;&gt;Node15</title>
<path fill="none" stroke="#191970" d="M496.8388,-336.3733C470.7933,-327.1419 431.2884,-313.1402 402.5021,-302.9375"/>
<polygon fill="#191970" stroke="#191970" points="403.4015,-299.5429 392.8067,-299.5011 401.063,-306.1408 403.4015,-299.5429"/>
</g>
<!-- Node21 -->
<g id="node21" class="node">
<title>Node21</title>
<g id="a_node21"><a xlink:href="../../d9/d98/TeensyUSBTypes_8hpp.html" target="_top" xlink:title=" ">
<polygon fill="#ffffff" stroke="#000000" points="496,-280.5 496,-299.5 664,-299.5 664,-280.5 496,-280.5"/>
<text text-anchor="middle" x="580" y="-287.5" font-family="Helvetica,sans-Serif" font-size="10.00" fill="#000000">AH/Teensy/TeensyUSBTypes.hpp</text>
</a>
</g>
</g>
<!-- Node14&#45;&gt;Node21 -->
<g id="edge33" class="edge">
<title>Node14&#45;&gt;Node21</title>
<path fill="none" stroke="#191970" d="M533.7545,-336.2455C541.8648,-328.1352 553.5925,-316.4075 563.2081,-306.7919"/>
<polygon fill="#191970" stroke="#191970" points="565.7611,-309.1887 570.3573,-299.6427 560.8113,-304.2389 565.7611,-309.1887"/>
</g>
<!-- Node16 -->
<g id="node16" class="node">
<title>Node16</title>
<g id="a_node16"><a xlink:href="../../dc/d50/Frequency_8hpp.html" target="_top" xlink:title=" ">
<polygon fill="#ffffff" stroke="#000000" points="423,-112.5 423,-131.5 551,-131.5 551,-112.5 423,-112.5"/>
<text text-anchor="middle" x="487" y="-119.5" font-family="Helvetica,sans-Serif" font-size="10.00" fill="#000000">AH/Types/Frequency.hpp</text>
</a>
</g>
</g>
<!-- Node15&#45;&gt;Node16 -->
<g id="edge24" class="edge">
<title>Node15&#45;&gt;Node16</title>
<path fill="none" stroke="#191970" d="M367.214,-280.444C369.2442,-267.0487 374.2184,-242.2817 385,-224 405.982,-188.4223 442.2652,-156.3501 465.4249,-138.0337"/>
<polygon fill="#191970" stroke="#191970" points="467.8322,-140.5964 473.5992,-131.7086 463.5485,-135.0602 467.8322,-140.5964"/>
</g>
<!-- Node17 -->
<g id="node17" class="node">
<title>Node17</title>
<g id="a_node17"><a xlink:href="../../d7/d7c/ADCConfig_8hpp.html" target="_top" xlink:title="This file contains the platform&#45;specific ADC resolutions. By default, the library automatically selec...">
<polygon fill="#ffffff" stroke="#000000" points="190,-224.5 190,-243.5 338,-243.5 338,-224.5 190,-224.5"/>
<text text-anchor="middle" x="264" y="-231.5" font-family="Helvetica,sans-Serif" font-size="10.00" fill="#000000">AH/Hardware/ADCConfig.hpp</text>
</a>
</g>
</g>
<!-- Node15&#45;&gt;Node17 -->
<g id="edge27" class="edge">
<title>Node15&#45;&gt;Node17</title>
<path fill="none" stroke="#191970" d="M348.233,-280.2455C332.2905,-271.4928 308.6741,-258.527 290.5011,-248.5496"/>
<polygon fill="#191970" stroke="#191970" points="292.0137,-245.3873 281.5634,-243.6427 288.6448,-251.5233 292.0137,-245.3873"/>
</g>
<!-- Node18 -->
<g id="node18" class="node">
<title>Node18</title>
<g id="a_node18"><a xlink:title=" ">
<polygon fill="#ffffff" stroke="#bfbfbf" points="462,-224.5 462,-243.5 510,-243.5 510,-224.5 462,-224.5"/>
<text text-anchor="middle" x="486" y="-231.5" font-family="Helvetica,sans-Serif" font-size="10.00" fill="#000000">limits.h</text>
</a>
</g>
</g>
<!-- Node15&#45;&gt;Node18 -->
<g id="edge30" class="edge">
<title>Node15&#45;&gt;Node18</title>
<path fill="none" stroke="#191970" d="M386.6287,-280.3733C405.8919,-271.3838 434.8486,-257.8706 456.5419,-247.7471"/>
<polygon fill="#191970" stroke="#191970" points="458.0587,-250.9017 465.6405,-243.5011 455.0985,-244.5584 458.0587,-250.9017"/>
</g>
<!-- Node15&#45;&gt;Node19 -->
<g id="edge31" class="edge">
<title>Node15&#45;&gt;Node19</title>
<path fill="none" stroke="#191970" d="M330.4406,-281.5447C295.1647,-273.0714 239.3289,-259.431 182.2595,-244.2775"/>
<polygon fill="#191970" stroke="#191970" points="182.9105,-240.8288 172.3462,-241.6331 181.1062,-247.5923 182.9105,-240.8288"/>
</g>
<!-- Node20 -->
<g id="node20" class="node">
<title>Node20</title>
<g id="a_node20"><a xlink:title=" ">
<polygon fill="#ffffff" stroke="#bfbfbf" points="394.5,-224.5 394.5,-243.5 443.5,-243.5 443.5,-224.5 394.5,-224.5"/>
<text text-anchor="middle" x="419" y="-231.5" font-family="Helvetica,sans-Serif" font-size="10.00" fill="#000000">stdint.h</text>
</a>
</g>
</g>
<!-- Node15&#45;&gt;Node20 -->
<g id="edge32" class="edge">
<title>Node15&#45;&gt;Node20</title>
<path fill="none" stroke="#191970" d="M375.2319,-280.2455C382.8317,-272.2155 393.7877,-260.6394 402.8368,-251.0781"/>
<polygon fill="#191970" stroke="#191970" points="405.5421,-253.3115 409.8739,-243.6427 400.458,-248.4998 405.5421,-253.3115"/>
</g>
<!-- Node16&#45;&gt;Node3 -->
<g id="edge25" class="edge">
<title>Node16&#45;&gt;Node3</title>
<path fill="none" stroke="#191970" d="M454.0296,-112.4123C422.9503,-101.5647 383.4293,-81.9717 400,-56 410.0203,-40.2949 426.9416,-29.8684 443.987,-22.9824"/>
<polygon fill="#191970" stroke="#191970" points="445.2496,-26.2473 453.4264,-19.51 442.8329,-19.6777 445.2496,-26.2473"/>
</g>
<!-- Node16&#45;&gt;Node12 -->
<g id="edge26" class="edge">
<title>Node16&#45;&gt;Node12</title>
<path fill="none" stroke="#191970" d="M489.0902,-112.2455C490.6561,-104.9382 492.8512,-94.6944 494.7776,-85.7046"/>
<polygon fill="#191970" stroke="#191970" points="498.2607,-86.1541 496.9337,-75.6427 491.416,-84.6873 498.2607,-86.1541"/>
</g>
<!-- Node17&#45;&gt;Node3 -->
<g id="edge28" class="edge">
<title>Node17&#45;&gt;Node3</title>
<path fill="none" stroke="#191970" d="M261.5289,-224.2159C256.5646,-202.2358 247.6611,-148.0524 270,-112 302.5189,-59.5184 369.3153,-33.8799 422.4154,-21.4504"/>
<polygon fill="#191970" stroke="#191970" points="423.4969,-24.7955 432.4987,-19.2082 421.9773,-17.9624 423.4969,-24.7955"/>
</g>
<!-- Node17&#45;&gt;Node8 -->
<g id="edge29" class="edge">
<title>Node17&#45;&gt;Node8</title>
<path fill="none" stroke="#191970" d="M246.7555,-224.2455C231.4239,-215.5731 208.7801,-202.7645 191.2084,-192.825"/>
<polygon fill="#191970" stroke="#191970" points="192.4741,-189.5198 182.0469,-187.6427 189.0276,-195.6126 192.4741,-189.5198"/>
</g>
<!-- Node25&#45;&gt;Node4 -->
<g id="edge42" class="edge">
<title>Node25&#45;&gt;Node4</title>
<path fill="none" stroke="#191970" d="M444.2047,-616.4385C407.6229,-607.7787 359.7966,-594.23 346,-580 334.0948,-567.7208 329.5658,-548.4817 327.8847,-533.937"/>
<polygon fill="#191970" stroke="#191970" points="331.3697,-533.6098 327.0792,-523.9226 324.3923,-534.1711 331.3697,-533.6098"/>
</g>
<!-- Node26 -->
<g id="node26" class="node">
<title>Node26</title>
<g id="a_node26"><a xlink:title=" ">
<polygon fill="#ffffff" stroke="#bfbfbf" points="513,-560.5 513,-579.5 595,-579.5 595,-560.5 513,-560.5"/>
<text text-anchor="middle" x="554" y="-567.5" font-family="Helvetica,sans-Serif" font-size="10.00" fill="#000000">AH/STL/cmath</text>
</a>
</g>
</g>
<!-- Node25&#45;&gt;Node26 -->
<g id="edge43" class="edge">
<title>Node25&#45;&gt;Node26</title>
<path fill="none" stroke="#191970" d="M500.3221,-616.2455C509.9223,-607.9746 523.8892,-595.9416 535.1695,-586.2232"/>
<polygon fill="#191970" stroke="#191970" points="537.516,-588.8214 542.8076,-579.6427 532.947,-583.5182 537.516,-588.8214"/>
</g>
<!-- Node27 -->
<g id="node27" class="node">
<title>Node27</title>
<g id="a_node27"><a xlink:href="../../d2/d03/TransferFunction_8hpp.html" target="_top" xlink:title=" ">
<polygon fill="#ffffff" stroke="#000000" points="355.5,-560.5 355.5,-579.5 494.5,-579.5 494.5,-560.5 355.5,-560.5"/>
<text text-anchor="middle" x="425" y="-567.5" font-family="Helvetica,sans-Serif" font-size="10.00" fill="#000000">Filters/TransferFunction.hpp</text>
</a>
</g>
</g>
<!-- Node25&#45;&gt;Node27 -->
<g id="edge44" class="edge">
<title>Node25&#45;&gt;Node27</title>
<path fill="none" stroke="#191970" d="M477.8521,-616.2455C468.4913,-608.0549 454.9142,-596.1749 443.8651,-586.5069"/>
<polygon fill="#191970" stroke="#191970" points="445.8508,-583.5937 436.0202,-579.6427 441.2412,-588.8618 445.8508,-583.5937"/>
</g>
<!-- Node27&#45;&gt;Node4 -->
<g id="edge45" class="edge">
<title>Node27&#45;&gt;Node4</title>
<path fill="none" stroke="#191970" d="M407.9297,-560.2455C392.753,-551.5731 370.3379,-538.7645 352.9437,-528.825"/>
<polygon fill="#191970" stroke="#191970" points="354.2936,-525.5653 343.8747,-523.6427 350.8206,-531.643 354.2936,-525.5653"/>
</g>
</g>
</svg>
