<?xml version="1.0" encoding="UTF-8" standalone="no"?>
<!DOCTYPE svg PUBLIC "-//W3C//DTD SVG 1.1//EN"
 "http://www.w3.org/Graphics/SVG/1.1/DTD/svg11.dtd">
<!-- Generated by graphviz version 2.38.0 (20140413.2041)
 -->
<!-- Title: SOSFilter.hpp Pages: 1 -->
<svg width="961pt" height="700pt"
 viewBox="0.00 0.00 961.00 700.00" xmlns="http://www.w3.org/2000/svg" xmlns:xlink="http://www.w3.org/1999/xlink">
<g id="graph0" class="graph" transform="scale(1 1) rotate(0) translate(4 696)">
<title>SOSFilter.hpp</title>
<polygon fill="white" stroke="none" points="-4,4 -4,-696 957,-696 957,4 -4,4"/>
<!-- Node1 -->
<g id="node1" class="node"><title>Node1</title>
<g id="a_node1"><a xlink:title=" ">
<polygon fill="#bfbfbf" stroke="black" points="548,-672.5 548,-691.5 626,-691.5 626,-672.5 548,-672.5"/>
<text text-anchor="middle" x="587" y="-679.5" font-family="Helvetica,sans-Serif" font-size="10.00">SOSFilter.hpp</text>
</a>
</g>
</g>
<!-- Node2 -->
<g id="node2" class="node"><title>Node2</title>
<g id="a_node2"><a xlink:href="../../d5/db6/ArrayHelpers_8hpp.html" target="_top" xlink:title=" ">
<polygon fill="white" stroke="black" points="693,-560.5 693,-579.5 853,-579.5 853,-560.5 693,-560.5"/>
<text text-anchor="middle" x="773" y="-567.5" font-family="Helvetica,sans-Serif" font-size="10.00">AH/Containers/ArrayHelpers.hpp</text>
</a>
</g>
</g>
<!-- Node1&#45;&gt;Node2 -->
<g id="edge1" class="edge"><title>Node1&#45;&gt;Node2</title>
<path fill="none" stroke="midnightblue" d="M601.595,-672.368C633.649,-653.412 710.435,-608.001 749.425,-584.942"/>
<polygon fill="midnightblue" stroke="midnightblue" points="751.647,-587.694 758.473,-579.591 748.084,-581.669 751.647,-587.694"/>
</g>
<!-- Node25 -->
<g id="node25" class="node"><title>Node25</title>
<g id="a_node25"><a xlink:href="../../d1/dde/BiQuad_8hpp.html" target="_top" xlink:title=" ">
<polygon fill="white" stroke="black" points="429,-616.5 429,-635.5 527,-635.5 527,-616.5 429,-616.5"/>
<text text-anchor="middle" x="478" y="-623.5" font-family="Helvetica,sans-Serif" font-size="10.00">Filters/BiQuad.hpp</text>
</a>
</g>
</g>
<!-- Node1&#45;&gt;Node25 -->
<g id="edge41" class="edge"><title>Node1&#45;&gt;Node25</title>
<path fill="none" stroke="midnightblue" d="M569.487,-672.324C551.928,-663.625 524.669,-650.12 504.469,-640.113"/>
<polygon fill="midnightblue" stroke="midnightblue" points="505.984,-636.958 495.469,-635.655 502.876,-643.23 505.984,-636.958"/>
</g>
<!-- Node3 -->
<g id="node3" class="node"><title>Node3</title>
<g id="a_node3"><a xlink:href="../../d1/d65/Warnings_8hpp.html" target="_top" xlink:title=" ">
<polygon fill="white" stroke="black" points="432.5,-0.5 432.5,-19.5 565.5,-19.5 565.5,-0.5 432.5,-0.5"/>
<text text-anchor="middle" x="499" y="-7.5" font-family="Helvetica,sans-Serif" font-size="10.00">AH/Settings/Warnings.hpp</text>
</a>
</g>
</g>
<!-- Node2&#45;&gt;Node3 -->
<g id="edge2" class="edge"><title>Node2&#45;&gt;Node3</title>
<path fill="none" stroke="midnightblue" d="M823.619,-560.425C876.859,-548.168 953,-519.978 953,-459 953,-459 953,-459 953,-121 953,-44.3085 705.207,-20.8957 575.752,-13.8971"/>
<polygon fill="midnightblue" stroke="midnightblue" points="575.67,-10.3882 565.502,-13.3639 575.306,-17.3788 575.67,-10.3882"/>
</g>
<!-- Node4 -->
<g id="node4" class="node"><title>Node4</title>
<g id="a_node4"><a xlink:href="../../de/d76/Array_8hpp.html" target="_top" xlink:title=" ">
<polygon fill="white" stroke="black" points="286.5,-504.5 286.5,-523.5 345.5,-523.5 345.5,-504.5 286.5,-504.5"/>
<text text-anchor="middle" x="316" y="-511.5" font-family="Helvetica,sans-Serif" font-size="10.00">Array.hpp</text>
</a>
</g>
</g>
<!-- Node2&#45;&gt;Node4 -->
<g id="edge3" class="edge"><title>Node2&#45;&gt;Node4</title>
<path fill="none" stroke="midnightblue" d="M700.839,-560.473C603.308,-548.949 432.773,-528.798 355.754,-519.697"/>
<polygon fill="midnightblue" stroke="midnightblue" points="355.866,-516.186 345.524,-518.489 355.044,-523.138 355.866,-516.186"/>
</g>
<!-- Node7 -->
<g id="node7" class="node"><title>Node7</title>
<g id="a_node7"><a xlink:href="../../dd/d80/PrintStream_8hpp.html" target="_top" xlink:title=" ">
<polygon fill="white" stroke="black" points="728.5,-280.5 728.5,-299.5 887.5,-299.5 887.5,-280.5 728.5,-280.5"/>
<text text-anchor="middle" x="808" y="-287.5" font-family="Helvetica,sans-Serif" font-size="10.00">AH/PrintStream/PrintStream.hpp</text>
</a>
</g>
</g>
<!-- Node2&#45;&gt;Node7 -->
<g id="edge40" class="edge"><title>Node2&#45;&gt;Node7</title>
<path fill="none" stroke="midnightblue" d="M789.964,-560.364C818.494,-544.489 873,-507.779 873,-459 873,-459 873,-459 873,-401 873,-370.902 869.484,-361.809 854,-336 847.223,-324.704 836.931,-314.268 827.799,-306.295"/>
<polygon fill="midnightblue" stroke="midnightblue" points="829.802,-303.409 819.873,-299.712 825.33,-308.794 829.802,-303.409"/>
</g>
<!-- Node24 -->
<g id="node24" class="node"><title>Node24</title>
<g id="a_node24"><a xlink:title=" ">
<polygon fill="white" stroke="#bfbfbf" points="725.5,-504.5 725.5,-523.5 820.5,-523.5 820.5,-504.5 725.5,-504.5"/>
<text text-anchor="middle" x="773" y="-511.5" font-family="Helvetica,sans-Serif" font-size="10.00">AH/STL/algorithm</text>
</a>
</g>
</g>
<!-- Node2&#45;&gt;Node24 -->
<g id="edge39" class="edge"><title>Node2&#45;&gt;Node24</title>
<path fill="none" stroke="midnightblue" d="M773,-560.083C773,-553.006 773,-542.861 773,-533.986"/>
<polygon fill="midnightblue" stroke="midnightblue" points="776.5,-533.751 773,-523.751 769.5,-533.751 776.5,-533.751"/>
</g>
<!-- Node4&#45;&gt;Node3 -->
<g id="edge4" class="edge"><title>Node4&#45;&gt;Node3</title>
<path fill="none" stroke="midnightblue" d="M286.201,-510.956C242.145,-507.076 157.758,-496.32 92,-468 46.0185,-448.197 0,-453.065 0,-403 0,-403 0,-403 0,-121 0,-35.5899 282.316,-16.4321 422.248,-12.1822"/>
<polygon fill="midnightblue" stroke="midnightblue" points="422.583,-15.6741 432.479,-11.8903 422.383,-8.67696 422.583,-15.6741"/>
</g>
<!-- Node5 -->
<g id="node5" class="node"><title>Node5</title>
<g id="a_node5"><a xlink:href="../../d1/d93/Error_8hpp.html" target="_top" xlink:title=" ">
<polygon fill="white" stroke="black" points="652,-448.5 652,-467.5 750,-467.5 750,-448.5 652,-448.5"/>
<text text-anchor="middle" x="701" y="-455.5" font-family="Helvetica,sans-Serif" font-size="10.00">AH/Error/Error.hpp</text>
</a>
</g>
</g>
<!-- Node4&#45;&gt;Node5 -->
<g id="edge5" class="edge"><title>Node4&#45;&gt;Node5</title>
<path fill="none" stroke="midnightblue" d="M345.571,-508.852C408.788,-499.986 558.115,-479.041 641.704,-467.317"/>
<polygon fill="midnightblue" stroke="midnightblue" points="642.392,-470.755 651.809,-465.9 641.419,-463.823 642.392,-470.755"/>
</g>
<!-- Node13 -->
<g id="node13" class="node"><title>Node13</title>
<g id="a_node13"><a xlink:title=" ">
<polygon fill="white" stroke="#bfbfbf" points="28.5,-112.5 28.5,-131.5 129.5,-131.5 129.5,-112.5 28.5,-112.5"/>
<text text-anchor="middle" x="79" y="-119.5" font-family="Helvetica,sans-Serif" font-size="10.00">AH/STL/type_traits</text>
</a>
</g>
</g>
<!-- Node4&#45;&gt;Node13 -->
<g id="edge37" class="edge"><title>Node4&#45;&gt;Node13</title>
<path fill="none" stroke="midnightblue" d="M286.463,-512.515C222.931,-509.749 79,-493.497 79,-403 79,-403 79,-403 79,-233 79,-200.948 79,-163.643 79,-141.749"/>
<polygon fill="midnightblue" stroke="midnightblue" points="82.5001,-141.558 79,-131.558 75.5001,-141.558 82.5001,-141.558"/>
</g>
<!-- Node19 -->
<g id="node19" class="node"><title>Node19</title>
<g id="a_node19"><a xlink:title=" ">
<polygon fill="white" stroke="#bfbfbf" points="129,-224.5 129,-243.5 181,-243.5 181,-224.5 129,-224.5"/>
<text text-anchor="middle" x="155" y="-231.5" font-family="Helvetica,sans-Serif" font-size="10.00">stddef.h</text>
</a>
</g>
</g>
<!-- Node4&#45;&gt;Node19 -->
<g id="edge38" class="edge"><title>Node4&#45;&gt;Node19</title>
<path fill="none" stroke="midnightblue" d="M303.031,-504.425C279.688,-487.842 233,-448.934 233,-403 233,-403 233,-403 233,-345 233,-304.967 198.198,-269.336 175.087,-250.087"/>
<polygon fill="midnightblue" stroke="midnightblue" points="177.18,-247.28 167.188,-243.759 172.804,-252.743 177.18,-247.28"/>
</g>
<!-- Node23 -->
<g id="node23" class="node"><title>Node23</title>
<g id="a_node23"><a xlink:title=" ">
<polygon fill="white" stroke="#bfbfbf" points="273.5,-448.5 273.5,-467.5 358.5,-467.5 358.5,-448.5 273.5,-448.5"/>
<text text-anchor="middle" x="316" y="-455.5" font-family="Helvetica,sans-Serif" font-size="10.00">AH/STL/iterator</text>
</a>
</g>
</g>
<!-- Node4&#45;&gt;Node23 -->
<g id="edge36" class="edge"><title>Node4&#45;&gt;Node23</title>
<path fill="none" stroke="midnightblue" d="M316,-504.083C316,-497.006 316,-486.861 316,-477.986"/>
<polygon fill="midnightblue" stroke="midnightblue" points="319.5,-477.751 316,-467.751 312.5,-477.751 319.5,-477.751"/>
</g>
<!-- Node5&#45;&gt;Node3 -->
<g id="edge6" class="edge"><title>Node5&#45;&gt;Node3</title>
<path fill="none" stroke="midnightblue" d="M750.096,-453.095C813.276,-445.081 915,-420.73 915,-347 915,-347 915,-347 915,-121 915,-51.6777 696.362,-25.0547 576.095,-15.6541"/>
<polygon fill="midnightblue" stroke="midnightblue" points="576.074,-12.1425 565.838,-14.8753 575.544,-19.1224 576.074,-12.1425"/>
</g>
<!-- Node6 -->
<g id="node6" class="node"><title>Node6</title>
<g id="a_node6"><a xlink:href="../../df/dee/Debug_8hpp.html" target="_top" xlink:title=" ">
<polygon fill="white" stroke="black" points="644.5,-392.5 644.5,-411.5 757.5,-411.5 757.5,-392.5 644.5,-392.5"/>
<text text-anchor="middle" x="701" y="-399.5" font-family="Helvetica,sans-Serif" font-size="10.00">AH/Debug/Debug.hpp</text>
</a>
</g>
</g>
<!-- Node5&#45;&gt;Node6 -->
<g id="edge7" class="edge"><title>Node5&#45;&gt;Node6</title>
<path fill="none" stroke="midnightblue" d="M701,-448.083C701,-441.006 701,-430.861 701,-421.986"/>
<polygon fill="midnightblue" stroke="midnightblue" points="704.5,-421.751 701,-411.751 697.5,-421.751 704.5,-421.751"/>
</g>
<!-- Node6&#45;&gt;Node3 -->
<g id="edge8" class="edge"><title>Node6&#45;&gt;Node3</title>
<path fill="none" stroke="midnightblue" d="M701,-392.442C701,-373.936 701,-328.812 701,-291 701,-291 701,-291 701,-121 701,-61.5465 632.674,-34.0409 575.498,-21.4321"/>
<polygon fill="midnightblue" stroke="midnightblue" points="576.206,-18.0045 565.702,-19.3901 574.777,-24.8572 576.206,-18.0045"/>
</g>
<!-- Node6&#45;&gt;Node7 -->
<g id="edge9" class="edge"><title>Node6&#45;&gt;Node7</title>
<path fill="none" stroke="midnightblue" d="M708.07,-392.299C718.551,-379.551 739.02,-355.226 758,-336 768.153,-325.715 780.174,-314.858 789.884,-306.386"/>
<polygon fill="midnightblue" stroke="midnightblue" points="792.432,-308.81 797.718,-299.628 787.86,-303.51 792.432,-308.81"/>
</g>
<!-- Node14 -->
<g id="node14" class="node"><title>Node14</title>
<g id="a_node14"><a xlink:href="../../d2/dd5/SettingsWrapper_8hpp.html" target="_top" xlink:title=" ">
<polygon fill="white" stroke="black" points="451,-336.5 451,-355.5 615,-355.5 615,-336.5 451,-336.5"/>
<text text-anchor="middle" x="533" y="-343.5" font-family="Helvetica,sans-Serif" font-size="10.00">AH/Settings/SettingsWrapper.hpp</text>
</a>
</g>
</g>
<!-- Node6&#45;&gt;Node14 -->
<g id="edge20" class="edge"><title>Node6&#45;&gt;Node14</title>
<path fill="none" stroke="midnightblue" d="M669.291,-392.444C639.036,-383.359 593.972,-368.939 563.97,-358.783"/>
<polygon fill="midnightblue" stroke="midnightblue" points="565.01,-355.44 554.416,-355.516 562.745,-362.064 565.01,-355.44"/>
</g>
<!-- Node22 -->
<g id="node22" class="node"><title>Node22</title>
<g id="a_node22"><a xlink:href="../../d7/d52/DebugVal_8hpp.html" target="_top" xlink:title=" ">
<polygon fill="white" stroke="black" points="767,-336.5 767,-355.5 845,-355.5 845,-336.5 767,-336.5"/>
<text text-anchor="middle" x="806" y="-343.5" font-family="Helvetica,sans-Serif" font-size="10.00">DebugVal.hpp</text>
</a>
</g>
</g>
<!-- Node6&#45;&gt;Node22 -->
<g id="edge35" class="edge"><title>Node6&#45;&gt;Node22</title>
<path fill="none" stroke="midnightblue" d="M717.87,-392.324C734.709,-383.664 760.807,-370.242 780.238,-360.249"/>
<polygon fill="midnightblue" stroke="midnightblue" points="781.88,-363.341 789.172,-355.655 778.678,-357.116 781.88,-363.341"/>
</g>
<!-- Node7&#45;&gt;Node3 -->
<g id="edge10" class="edge"><title>Node7&#45;&gt;Node3</title>
<path fill="none" stroke="midnightblue" d="M803.28,-280.456C793.726,-262.337 773,-218.48 773,-179 773,-179 773,-179 773,-121 773,-82.2823 748.526,-75.3663 715,-56 672.778,-31.6103 619.138,-20.3496 575.876,-15.1916"/>
<polygon fill="midnightblue" stroke="midnightblue" points="576.006,-11.6848 565.682,-14.0651 575.237,-18.6424 576.006,-11.6848"/>
</g>
<!-- Node8 -->
<g id="node8" class="node"><title>Node8</title>
<g id="a_node8"><a xlink:href="../../d6/ddf/Arduino-Wrapper_8h.html" target="_top" xlink:title=" ">
<polygon fill="white" stroke="black" points="107.5,-168.5 107.5,-187.5 222.5,-187.5 222.5,-168.5 107.5,-168.5"/>
<text text-anchor="middle" x="165" y="-175.5" font-family="Helvetica,sans-Serif" font-size="10.00">AH/Arduino&#45;Wrapper.h</text>
</a>
</g>
</g>
<!-- Node7&#45;&gt;Node8 -->
<g id="edge11" class="edge"><title>Node7&#45;&gt;Node8</title>
<path fill="none" stroke="midnightblue" d="M776.31,-280.498C724.646,-266.897 618.9,-240.139 528,-224 425.735,-205.843 305.972,-192.518 232.812,-185.263"/>
<polygon fill="midnightblue" stroke="midnightblue" points="233.099,-181.774 222.805,-184.279 232.415,-188.741 233.099,-181.774"/>
</g>
<!-- Node9 -->
<g id="node9" class="node"><title>Node9</title>
<g id="a_node9"><a xlink:href="../../d7/d79/MinMaxFix_8hpp.html" target="_top" xlink:title=" ">
<polygon fill="white" stroke="black" points="279.5,-112.5 279.5,-131.5 404.5,-131.5 404.5,-112.5 279.5,-112.5"/>
<text text-anchor="middle" x="342" y="-119.5" font-family="Helvetica,sans-Serif" font-size="10.00">AH/Math/MinMaxFix.hpp</text>
</a>
</g>
</g>
<!-- Node8&#45;&gt;Node9 -->
<g id="edge12" class="edge"><title>Node8&#45;&gt;Node9</title>
<path fill="none" stroke="midnightblue" d="M193.046,-168.444C223.082,-159.28 270.913,-144.688 304.243,-134.519"/>
<polygon fill="midnightblue" stroke="midnightblue" points="305.542,-137.782 314.085,-131.516 303.499,-131.087 305.542,-137.782"/>
</g>
<!-- Node11 -->
<g id="node11" class="node"><title>Node11</title>
<g id="a_node11"><a xlink:title=" ">
<polygon fill="white" stroke="#bfbfbf" points="117,-0.5 117,-19.5 175,-19.5 175,-0.5 117,-0.5"/>
<text text-anchor="middle" x="146" y="-7.5" font-family="Helvetica,sans-Serif" font-size="10.00">Arduino.h</text>
</a>
</g>
</g>
<!-- Node8&#45;&gt;Node11 -->
<g id="edge19" class="edge"><title>Node8&#45;&gt;Node11</title>
<path fill="none" stroke="midnightblue" d="M162.111,-168.292C157.719,-155.535 148.73,-131.201 138,-112 128.372,-94.7711 118.072,-94.7792 112,-76 109.265,-67.5423 109.174,-64.4277 112,-56 115.604,-45.2512 122.903,-35.0204 129.817,-27.0378"/>
<polygon fill="midnightblue" stroke="midnightblue" points="132.477,-29.3168 136.712,-19.6053 127.345,-24.5561 132.477,-29.3168"/>
</g>
<!-- Node8&#45;&gt;Node13 -->
<g id="edge18" class="edge"><title>Node8&#45;&gt;Node13</title>
<path fill="none" stroke="midnightblue" d="M151.183,-168.324C137.767,-159.9 117.176,-146.971 101.414,-137.074"/>
<polygon fill="midnightblue" stroke="midnightblue" points="103.113,-134.008 92.7831,-131.655 99.3908,-139.936 103.113,-134.008"/>
</g>
<!-- Node9&#45;&gt;Node3 -->
<g id="edge13" class="edge"><title>Node9&#45;&gt;Node3</title>
<path fill="none" stroke="midnightblue" d="M346.861,-112.275C354.866,-98.6047 372.045,-72.0455 393,-56 412.458,-41.1002 437.587,-30.1515 458.494,-22.7865"/>
<polygon fill="midnightblue" stroke="midnightblue" points="459.714,-26.0688 468.07,-19.5554 457.476,-19.4362 459.714,-26.0688"/>
</g>
<!-- Node10 -->
<g id="node10" class="node"><title>Node10</title>
<g id="a_node10"><a xlink:href="../../d6/d3b/FixArduinoMacros_8hpp.html" target="_top" xlink:title=" ">
<polygon fill="white" stroke="black" points="121,-56.5 121,-75.5 277,-75.5 277,-56.5 121,-56.5"/>
<text text-anchor="middle" x="199" y="-63.5" font-family="Helvetica,sans-Serif" font-size="10.00">AH/Math/FixArduinoMacros.hpp</text>
</a>
</g>
</g>
<!-- Node9&#45;&gt;Node10 -->
<g id="edge14" class="edge"><title>Node9&#45;&gt;Node10</title>
<path fill="none" stroke="midnightblue" d="M319.341,-112.444C295.598,-103.478 258.091,-89.314 231.262,-79.1827"/>
<polygon fill="midnightblue" stroke="midnightblue" points="232.144,-75.7749 221.553,-75.5164 229.671,-82.3235 232.144,-75.7749"/>
</g>
<!-- Node12 -->
<g id="node12" class="node"><title>Node12</title>
<g id="a_node12"><a xlink:href="../../dc/dc7/NamespaceSettings_8hpp.html" target="_top" xlink:title=" ">
<polygon fill="white" stroke="black" points="409,-56.5 409,-75.5 589,-75.5 589,-56.5 409,-56.5"/>
<text text-anchor="middle" x="499" y="-63.5" font-family="Helvetica,sans-Serif" font-size="10.00">AH/Settings/NamespaceSettings.hpp</text>
</a>
</g>
</g>
<!-- Node9&#45;&gt;Node12 -->
<g id="edge17" class="edge"><title>Node9&#45;&gt;Node12</title>
<path fill="none" stroke="midnightblue" d="M366.877,-112.444C393.289,-103.359 435.215,-88.9388 464.742,-78.7831"/>
<polygon fill="midnightblue" stroke="midnightblue" points="465.921,-82.0787 474.239,-75.5164 463.645,-75.4593 465.921,-82.0787"/>
</g>
<!-- Node10&#45;&gt;Node3 -->
<g id="edge15" class="edge"><title>Node10&#45;&gt;Node3</title>
<path fill="none" stroke="midnightblue" d="M246.536,-56.4435C299.528,-46.9049 385.203,-31.4834 441.817,-21.293"/>
<polygon fill="midnightblue" stroke="midnightblue" points="442.465,-24.7327 451.687,-19.5164 441.225,-17.8434 442.465,-24.7327"/>
</g>
<!-- Node10&#45;&gt;Node11 -->
<g id="edge16" class="edge"><title>Node10&#45;&gt;Node11</title>
<path fill="none" stroke="midnightblue" d="M190.248,-56.083C182.53,-48.2195 171.095,-36.5688 161.783,-27.0813"/>
<polygon fill="midnightblue" stroke="midnightblue" points="164.092,-24.4363 154.589,-19.7511 159.096,-29.3396 164.092,-24.4363"/>
</g>
<!-- Node14&#45;&gt;Node3 -->
<g id="edge21" class="edge"><title>Node14&#45;&gt;Node3</title>
<path fill="none" stroke="midnightblue" d="M521.776,-336.263C507.296,-323.872 485.182,-300.425 496,-280 509.328,-254.836 531.396,-266.382 549,-244 602.38,-176.13 644.747,-128.598 598,-56 587.694,-39.9949 570.149,-29.6167 552.666,-22.9158"/>
<polygon fill="midnightblue" stroke="midnightblue" points="553.6,-19.5353 543.006,-19.559 551.303,-26.1475 553.6,-19.5353"/>
</g>
<!-- Node14&#45;&gt;Node6 -->
<g id="edge34" class="edge"><title>Node14&#45;&gt;Node6</title>
<path fill="none" stroke="midnightblue" d="M564.576,-355.516C594.787,-364.585 639.851,-379.004 669.898,-389.172"/>
<polygon fill="midnightblue" stroke="midnightblue" points="668.874,-392.521 679.469,-392.444 671.138,-385.897 668.874,-392.521"/>
</g>
<!-- Node14&#45;&gt;Node12 -->
<g id="edge22" class="edge"><title>Node14&#45;&gt;Node12</title>
<path fill="none" stroke="midnightblue" d="M508.531,-336.438C492.433,-329.378 472.623,-317.626 463,-300 458.741,-292.198 458.487,-287.658 463,-280 479.766,-251.549 507.45,-269.851 528,-244 560.215,-203.475 552.819,-183.269 560,-132 561.233,-123.197 564.007,-119.935 560,-112 553.193,-98.5199 540.232,-88.083 528.002,-80.6696"/>
<polygon fill="midnightblue" stroke="midnightblue" points="529.343,-77.4099 518.906,-75.5896 525.93,-83.5214 529.343,-77.4099"/>
</g>
<!-- Node15 -->
<g id="node15" class="node"><title>Node15</title>
<g id="a_node15"><a xlink:href="../../db/d02/Settings_8hpp.html" target="_top" xlink:title="All user settings and debugging options can be changed here.">
<polygon fill="white" stroke="black" points="339.5,-280.5 339.5,-299.5 410.5,-299.5 410.5,-280.5 339.5,-280.5"/>
<text text-anchor="middle" x="375" y="-287.5" font-family="Helvetica,sans-Serif" font-size="10.00">Settings.hpp</text>
</a>
</g>
</g>
<!-- Node14&#45;&gt;Node15 -->
<g id="edge23" class="edge"><title>Node14&#45;&gt;Node15</title>
<path fill="none" stroke="midnightblue" d="M507.964,-336.444C481.384,-327.359 439.191,-312.939 409.477,-302.783"/>
<polygon fill="midnightblue" stroke="midnightblue" points="410.513,-299.439 399.918,-299.516 408.249,-306.062 410.513,-299.439"/>
</g>
<!-- Node21 -->
<g id="node21" class="node"><title>Node21</title>
<g id="a_node21"><a xlink:href="../../d9/d98/TeensyUSBTypes_8hpp.html" target="_top" xlink:title=" ">
<polygon fill="white" stroke="black" points="505,-280.5 505,-299.5 673,-299.5 673,-280.5 505,-280.5"/>
<text text-anchor="middle" x="589" y="-287.5" font-family="Helvetica,sans-Serif" font-size="10.00">AH/Teensy/TeensyUSBTypes.hpp</text>
</a>
</g>
</g>
<!-- Node14&#45;&gt;Node21 -->
<g id="edge33" class="edge"><title>Node14&#45;&gt;Node21</title>
<path fill="none" stroke="midnightblue" d="M541.997,-336.324C550.194,-328.42 562.506,-316.548 572.472,-306.938"/>
<polygon fill="midnightblue" stroke="midnightblue" points="575.07,-309.295 579.839,-299.834 570.211,-304.256 575.07,-309.295"/>
</g>
<!-- Node16 -->
<g id="node16" class="node"><title>Node16</title>
<g id="a_node16"><a xlink:href="../../dc/d50/Frequency_8hpp.html" target="_top" xlink:title=" ">
<polygon fill="white" stroke="black" points="423,-112.5 423,-131.5 551,-131.5 551,-112.5 423,-112.5"/>
<text text-anchor="middle" x="487" y="-119.5" font-family="Helvetica,sans-Serif" font-size="10.00">AH/Types/Frequency.hpp</text>
</a>
</g>
</g>
<!-- Node15&#45;&gt;Node16 -->
<g id="edge24" class="edge"><title>Node15&#45;&gt;Node16</title>
<path fill="none" stroke="midnightblue" d="M376.277,-280.087C378.426,-267.075 383.59,-242.425 394,-224 413.683,-189.162 447.542,-156.584 468.522,-138.282"/>
<polygon fill="midnightblue" stroke="midnightblue" points="471.059,-140.718 476.389,-131.561 466.512,-135.395 471.059,-140.718"/>
</g>
<!-- Node17 -->
<g id="node17" class="node"><title>Node17</title>
<g id="a_node17"><a xlink:href="../../d7/d7c/ADCConfig_8hpp.html" target="_top" xlink:title="This file contains the platform&#45;specific ADC resolutions. By default, the library automatically selec...">
<polygon fill="white" stroke="black" points="199,-224.5 199,-243.5 347,-243.5 347,-224.5 199,-224.5"/>
<text text-anchor="middle" x="273" y="-231.5" font-family="Helvetica,sans-Serif" font-size="10.00">AH/Hardware/ADCConfig.hpp</text>
</a>
</g>
</g>
<!-- Node15&#45;&gt;Node17 -->
<g id="edge27" class="edge"><title>Node15&#45;&gt;Node17</title>
<path fill="none" stroke="midnightblue" d="M358.612,-280.324C342.329,-271.703 317.133,-258.364 298.284,-248.386"/>
<polygon fill="midnightblue" stroke="midnightblue" points="299.823,-245.24 289.347,-243.655 296.548,-251.427 299.823,-245.24"/>
</g>
<!-- Node18 -->
<g id="node18" class="node"><title>Node18</title>
<g id="a_node18"><a xlink:title=" ">
<polygon fill="white" stroke="#bfbfbf" points="471,-224.5 471,-243.5 519,-243.5 519,-224.5 471,-224.5"/>
<text text-anchor="middle" x="495" y="-231.5" font-family="Helvetica,sans-Serif" font-size="10.00">limits.h</text>
</a>
</g>
</g>
<!-- Node15&#45;&gt;Node18 -->
<g id="edge30" class="edge"><title>Node15&#45;&gt;Node18</title>
<path fill="none" stroke="midnightblue" d="M394.014,-280.444C413.588,-271.636 444.308,-257.812 466.729,-247.722"/>
<polygon fill="midnightblue" stroke="midnightblue" points="468.392,-250.812 476.075,-243.516 465.519,-244.428 468.392,-250.812"/>
</g>
<!-- Node15&#45;&gt;Node19 -->
<g id="edge31" class="edge"><title>Node15&#45;&gt;Node19</title>
<path fill="none" stroke="midnightblue" d="M339.155,-280.428C303.9,-271.964 248.289,-258.527 191.27,-244.296"/>
<polygon fill="midnightblue" stroke="midnightblue" points="191.914,-240.849 181.364,-241.819 190.216,-247.64 191.914,-240.849"/>
</g>
<!-- Node20 -->
<g id="node20" class="node"><title>Node20</title>
<g id="a_node20"><a xlink:title=" ">
<polygon fill="white" stroke="#bfbfbf" points="403.5,-224.5 403.5,-243.5 452.5,-243.5 452.5,-224.5 403.5,-224.5"/>
<text text-anchor="middle" x="428" y="-231.5" font-family="Helvetica,sans-Serif" font-size="10.00">stdint.h</text>
</a>
</g>
</g>
<!-- Node15&#45;&gt;Node20 -->
<g id="edge32" class="edge"><title>Node15&#45;&gt;Node20</title>
<path fill="none" stroke="midnightblue" d="M383.752,-280.083C391.47,-272.22 402.905,-260.569 412.217,-251.081"/>
<polygon fill="midnightblue" stroke="midnightblue" points="414.904,-253.34 419.411,-243.751 409.908,-248.436 414.904,-253.34"/>
</g>
<!-- Node16&#45;&gt;Node3 -->
<g id="edge25" class="edge"><title>Node16&#45;&gt;Node3</title>
<path fill="none" stroke="midnightblue" d="M456.585,-112.493C425.171,-102.068 382.954,-82.4731 400,-56 410.306,-39.9949 427.851,-29.6167 445.334,-22.9158"/>
<polygon fill="midnightblue" stroke="midnightblue" points="446.697,-26.1475 454.994,-19.559 444.4,-19.5353 446.697,-26.1475"/>
</g>
<!-- Node16&#45;&gt;Node12 -->
<g id="edge26" class="edge"><title>Node16&#45;&gt;Node12</title>
<path fill="none" stroke="midnightblue" d="M488.982,-112.083C490.572,-104.927 492.859,-94.6353 494.846,-85.6911"/>
<polygon fill="midnightblue" stroke="midnightblue" points="498.303,-86.2722 497.055,-75.7511 491.469,-84.7537 498.303,-86.2722"/>
</g>
<!-- Node17&#45;&gt;Node3 -->
<g id="edge28" class="edge"><title>Node17&#45;&gt;Node3</title>
<path fill="none" stroke="midnightblue" d="M269.894,-224.321C262.955,-203.323 248.43,-148.802 270,-112 301.337,-58.5344 368.835,-33.2936 422.476,-21.4233"/>
<polygon fill="midnightblue" stroke="midnightblue" points="423.25,-24.8371 432.318,-19.3586 421.813,-17.9862 423.25,-24.8371"/>
</g>
<!-- Node17&#45;&gt;Node8 -->
<g id="edge29" class="edge"><title>Node17&#45;&gt;Node8</title>
<path fill="none" stroke="midnightblue" d="M255.648,-224.324C238.328,-215.664 211.485,-202.242 191.498,-192.249"/>
<polygon fill="midnightblue" stroke="midnightblue" points="192.819,-188.996 182.309,-187.655 189.688,-195.257 192.819,-188.996"/>
</g>
<!-- Node25&#45;&gt;Node4 -->
<g id="edge42" class="edge"><title>Node25&#45;&gt;Node4</title>
<path fill="none" stroke="midnightblue" d="M428.839,-621.165C398.011,-616.24 359.589,-605.098 335,-580 323.054,-567.807 318.547,-548.537 316.883,-534.14"/>
<polygon fill="midnightblue" stroke="midnightblue" points="320.348,-533.559 316.071,-523.866 313.37,-534.111 320.348,-533.559"/>
</g>
<!-- Node26 -->
<g id="node26" class="node"><title>Node26</title>
<g id="a_node26"><a xlink:title=" ">
<polygon fill="white" stroke="#bfbfbf" points="502,-560.5 502,-579.5 584,-579.5 584,-560.5 502,-560.5"/>
<text text-anchor="middle" x="543" y="-567.5" font-family="Helvetica,sans-Serif" font-size="10.00">AH/STL/cmath</text>
</a>
</g>
</g>
<!-- Node25&#45;&gt;Node26 -->
<g id="edge43" class="edge"><title>Node25&#45;&gt;Node26</title>
<path fill="none" stroke="midnightblue" d="M488.443,-616.324C498.146,-608.263 512.815,-596.077 524.5,-586.369"/>
<polygon fill="midnightblue" stroke="midnightblue" points="526.911,-588.916 532.367,-579.834 522.438,-583.532 526.911,-588.916"/>
</g>
<!-- Node27 -->
<g id="node27" class="node"><title>Node27</title>
<g id="a_node27"><a xlink:href="../../d2/d03/TransferFunction_8hpp.html" target="_top" xlink:title=" ">
<polygon fill="white" stroke="black" points="344.5,-560.5 344.5,-579.5 483.5,-579.5 483.5,-560.5 344.5,-560.5"/>
<text text-anchor="middle" x="414" y="-567.5" font-family="Helvetica,sans-Serif" font-size="10.00">Filters/TransferFunction.hpp</text>
</a>
</g>
</g>
<!-- Node25&#45;&gt;Node27 -->
<g id="edge44" class="edge"><title>Node25&#45;&gt;Node27</title>
<path fill="none" stroke="midnightblue" d="M467.717,-616.324C458.164,-608.263 443.72,-596.077 432.216,-586.369"/>
<polygon fill="midnightblue" stroke="midnightblue" points="434.37,-583.608 424.47,-579.834 429.856,-588.958 434.37,-583.608"/>
</g>
<!-- Node27&#45;&gt;Node4 -->
<g id="edge45" class="edge"><title>Node27&#45;&gt;Node4</title>
<path fill="none" stroke="midnightblue" d="M398.255,-560.324C382.681,-551.743 358.623,-538.486 340.541,-528.522"/>
<polygon fill="midnightblue" stroke="midnightblue" points="342.154,-525.415 331.706,-523.655 338.776,-531.546 342.154,-525.415"/>
</g>
</g>
</svg>
