<?xml version="1.0" encoding="UTF-8" standalone="no"?>
<!DOCTYPE svg PUBLIC "-//W3C//DTD SVG 1.1//EN"
 "http://www.w3.org/Graphics/SVG/1.1/DTD/svg11.dtd">
<!-- Generated by graphviz version 2.43.0 (0)
 -->
<!-- Title: SOSFilter.hpp Pages: 1 -->
<svg width="877pt" height="700pt"
 viewBox="0.00 0.00 876.92 700.00" xmlns="http://www.w3.org/2000/svg" xmlns:xlink="http://www.w3.org/1999/xlink">
<g id="graph0" class="graph" transform="scale(1 1) rotate(0) translate(4 696)">
<title>SOSFilter.hpp</title>
<polygon fill="white" stroke="transparent" points="-4,4 -4,-696 872.92,-696 872.92,4 -4,4"/>
<!-- Node1 -->
<g id="node1" class="node">
<title>Node1</title>
<g id="a_node1"><a xlink:title=" ">
<polygon fill="#bfbfbf" stroke="black" points="558.5,-672.5 558.5,-691.5 639.5,-691.5 639.5,-672.5 558.5,-672.5"/>
<text text-anchor="middle" x="599" y="-679.5" font-family="Helvetica,sans-Serif" font-size="10.00">SOSFilter.hpp</text>
</a>
</g>
</g>
<!-- Node2 -->
<g id="node2" class="node">
<title>Node2</title>
<g id="a_node2"><a xlink:href="../../d5/db6/ArrayHelpers_8hpp.html" target="_top" xlink:title=" ">
<polygon fill="white" stroke="black" points="639,-560.5 639,-579.5 813,-579.5 813,-560.5 639,-560.5"/>
<text text-anchor="middle" x="726" y="-567.5" font-family="Helvetica,sans-Serif" font-size="10.00">AH/Containers/ArrayHelpers.hpp</text>
</a>
</g>
</g>
<!-- Node1&#45;&gt;Node2 -->
<g id="edge1" class="edge">
<title>Node1&#45;&gt;Node2</title>
<path fill="none" stroke="midnightblue" d="M608.97,-672.37C630.39,-653.81 681.07,-609.91 708.18,-586.44"/>
<polygon fill="midnightblue" stroke="midnightblue" points="710.81,-588.78 716.08,-579.59 706.23,-583.49 710.81,-588.78"/>
</g>
<!-- Node25 -->
<g id="node25" class="node">
<title>Node25</title>
<g id="a_node25"><a xlink:href="../../d1/dde/BiQuad_8hpp.html" target="_top" xlink:title=" ">
<polygon fill="white" stroke="black" points="506,-616.5 506,-635.5 612,-635.5 612,-616.5 506,-616.5"/>
<text text-anchor="middle" x="559" y="-623.5" font-family="Helvetica,sans-Serif" font-size="10.00">Filters/BiQuad.hpp</text>
</a>
</g>
</g>
<!-- Node1&#45;&gt;Node25 -->
<g id="edge42" class="edge">
<title>Node1&#45;&gt;Node25</title>
<path fill="none" stroke="midnightblue" d="M592.39,-672.08C586.74,-664.46 578.46,-653.26 571.55,-643.94"/>
<polygon fill="midnightblue" stroke="midnightblue" points="574.25,-641.7 565.48,-635.75 568.62,-645.87 574.25,-641.7"/>
</g>
<!-- Node3 -->
<g id="node3" class="node">
<title>Node3</title>
<g id="a_node3"><a xlink:href="../../d1/d65/Warnings_8hpp.html" target="_top" xlink:title=" ">
<polygon fill="white" stroke="black" points="382.5,-0.5 382.5,-19.5 525.5,-19.5 525.5,-0.5 382.5,-0.5"/>
<text text-anchor="middle" x="454" y="-7.5" font-family="Helvetica,sans-Serif" font-size="10.00">AH/Settings/Warnings.hpp</text>
</a>
</g>
</g>
<!-- Node2&#45;&gt;Node3 -->
<g id="edge2" class="edge">
<title>Node2&#45;&gt;Node3</title>
<path fill="none" stroke="midnightblue" d="M756.46,-560.4C798.19,-546.53 868,-514.98 868,-459 868,-459 868,-459 868,-177 868,-146.9 871.69,-131.77 849,-112 766.68,-40.28 711.06,-105.71 606,-76 581.54,-69.08 518.13,-40.61 481.4,-23.73"/>
<polygon fill="midnightblue" stroke="midnightblue" points="482.79,-20.51 472.24,-19.5 479.86,-26.87 482.79,-20.51"/>
</g>
<!-- Node4 -->
<g id="node4" class="node">
<title>Node4</title>
<g id="a_node4"><a xlink:href="../../de/d76/Array_8hpp.html" target="_top" xlink:title=" ">
<polygon fill="white" stroke="black" points="501,-504.5 501,-523.5 563,-523.5 563,-504.5 501,-504.5"/>
<text text-anchor="middle" x="532" y="-511.5" font-family="Helvetica,sans-Serif" font-size="10.00">Array.hpp</text>
</a>
</g>
</g>
<!-- Node2&#45;&gt;Node4 -->
<g id="edge3" class="edge">
<title>Node2&#45;&gt;Node4</title>
<path fill="none" stroke="midnightblue" d="M695.26,-560.44C662.06,-551.2 609.01,-536.44 572.44,-526.26"/>
<polygon fill="midnightblue" stroke="midnightblue" points="573.17,-522.83 562.6,-523.52 571.29,-529.57 573.17,-522.83"/>
</g>
<!-- Node7 -->
<g id="node7" class="node">
<title>Node7</title>
<g id="a_node7"><a xlink:href="../../dd/d80/PrintStream_8hpp.html" target="_top" xlink:title=" ">
<polygon fill="white" stroke="black" points="628.5,-224.5 628.5,-243.5 801.5,-243.5 801.5,-224.5 628.5,-224.5"/>
<text text-anchor="middle" x="715" y="-231.5" font-family="Helvetica,sans-Serif" font-size="10.00">AH/PrintStream/PrintStream.hpp</text>
</a>
</g>
</g>
<!-- Node2&#45;&gt;Node7 -->
<g id="edge41" class="edge">
<title>Node2&#45;&gt;Node7</title>
<path fill="none" stroke="midnightblue" d="M738.14,-560.34C748.8,-552.13 763.97,-538.87 773,-524 788.62,-498.27 792,-489.1 792,-459 792,-459 792,-459 792,-345 792,-304.93 757.29,-269.08 734.47,-249.84"/>
<polygon fill="midnightblue" stroke="midnightblue" points="736.67,-247.11 726.69,-243.53 732.26,-252.55 736.67,-247.11"/>
</g>
<!-- Node24 -->
<g id="node24" class="node">
<title>Node24</title>
<g id="a_node24"><a xlink:title=" ">
<polygon fill="white" stroke="#bfbfbf" points="662.5,-504.5 662.5,-523.5 763.5,-523.5 763.5,-504.5 662.5,-504.5"/>
<text text-anchor="middle" x="713" y="-511.5" font-family="Helvetica,sans-Serif" font-size="10.00">AH/STL/algorithm</text>
</a>
</g>
</g>
<!-- Node2&#45;&gt;Node24 -->
<g id="edge40" class="edge">
<title>Node2&#45;&gt;Node24</title>
<path fill="none" stroke="midnightblue" d="M723.85,-560.08C722.13,-552.93 719.65,-542.64 717.5,-533.69"/>
<polygon fill="midnightblue" stroke="midnightblue" points="720.85,-532.65 715.11,-523.75 714.04,-534.29 720.85,-532.65"/>
</g>
<!-- Node4&#45;&gt;Node3 -->
<g id="edge4" class="edge">
<title>Node4&#45;&gt;Node3</title>
<path fill="none" stroke="midnightblue" d="M500.71,-513.24C386.67,-513.3 0,-505.92 0,-403 0,-403 0,-403 0,-121 0,-81.08 26.26,-73.78 62,-56 114.72,-29.77 273.41,-18.48 371.97,-13.89"/>
<polygon fill="midnightblue" stroke="midnightblue" points="372.37,-17.37 382.2,-13.42 372.06,-10.38 372.37,-17.37"/>
</g>
<!-- Node5 -->
<g id="node5" class="node">
<title>Node5</title>
<g id="a_node5"><a xlink:href="../../d1/d93/Error_8hpp.html" target="_top" xlink:title=" ">
<polygon fill="white" stroke="black" points="375,-448.5 375,-467.5 479,-467.5 479,-448.5 375,-448.5"/>
<text text-anchor="middle" x="427" y="-455.5" font-family="Helvetica,sans-Serif" font-size="10.00">AH/Error/Error.hpp</text>
</a>
</g>
</g>
<!-- Node4&#45;&gt;Node5 -->
<g id="edge5" class="edge">
<title>Node4&#45;&gt;Node5</title>
<path fill="none" stroke="midnightblue" d="M515.13,-504.32C498.29,-495.66 472.19,-482.24 452.76,-472.25"/>
<polygon fill="midnightblue" stroke="midnightblue" points="454.32,-469.12 443.83,-467.65 451.12,-475.34 454.32,-469.12"/>
</g>
<!-- Node13 -->
<g id="node13" class="node">
<title>Node13</title>
<g id="a_node13"><a xlink:title=" ">
<polygon fill="white" stroke="#bfbfbf" points="732.5,-112.5 732.5,-131.5 839.5,-131.5 839.5,-112.5 732.5,-112.5"/>
<text text-anchor="middle" x="786" y="-119.5" font-family="Helvetica,sans-Serif" font-size="10.00">AH/STL/type_traits</text>
</a>
</g>
</g>
<!-- Node4&#45;&gt;Node13 -->
<g id="edge38" class="edge">
<title>Node4&#45;&gt;Node13</title>
<path fill="none" stroke="midnightblue" d="M563.05,-505.75C639.37,-485.9 830,-423.09 830,-291 830,-291 830,-291 830,-233 830,-198.04 810.6,-161.01 797.57,-140.07"/>
<polygon fill="midnightblue" stroke="midnightblue" points="800.49,-138.15 792.12,-131.65 794.61,-141.95 800.49,-138.15"/>
</g>
<!-- Node19 -->
<g id="node19" class="node">
<title>Node19</title>
<g id="a_node19"><a xlink:title=" ">
<polygon fill="white" stroke="#bfbfbf" points="516,-224.5 516,-243.5 572,-243.5 572,-224.5 516,-224.5"/>
<text text-anchor="middle" x="544" y="-231.5" font-family="Helvetica,sans-Serif" font-size="10.00">stddef.h</text>
</a>
</g>
</g>
<!-- Node4&#45;&gt;Node19 -->
<g id="edge39" class="edge">
<title>Node4&#45;&gt;Node19</title>
<path fill="none" stroke="midnightblue" d="M533.57,-504.48C536.82,-486.04 544,-441.04 544,-403 544,-403 544,-403 544,-345 544,-312.95 544,-275.64 544,-253.75"/>
<polygon fill="midnightblue" stroke="midnightblue" points="547.5,-253.56 544,-243.56 540.5,-253.56 547.5,-253.56"/>
</g>
<!-- Node23 -->
<g id="node23" class="node">
<title>Node23</title>
<g id="a_node23"><a xlink:title=" ">
<polygon fill="white" stroke="#bfbfbf" points="267,-448.5 267,-467.5 357,-467.5 357,-448.5 267,-448.5"/>
<text text-anchor="middle" x="312" y="-455.5" font-family="Helvetica,sans-Serif" font-size="10.00">AH/STL/iterator</text>
</a>
</g>
</g>
<!-- Node4&#45;&gt;Node23 -->
<g id="edge37" class="edge">
<title>Node4&#45;&gt;Node23</title>
<path fill="none" stroke="midnightblue" d="M500.95,-505.38C463.34,-496.15 399.7,-480.53 356.79,-469.99"/>
<polygon fill="midnightblue" stroke="midnightblue" points="357.44,-466.55 346.89,-467.56 355.77,-473.35 357.44,-466.55"/>
</g>
<!-- Node5&#45;&gt;Node3 -->
<g id="edge6" class="edge">
<title>Node5&#45;&gt;Node3</title>
<path fill="none" stroke="midnightblue" d="M378.91,-448.48C274.83,-429.37 38,-382.05 38,-347 38,-347 38,-347 38,-121 38,-77.23 72.13,-74.08 112,-56 157.05,-35.57 286.39,-22.77 372.46,-16.26"/>
<polygon fill="midnightblue" stroke="midnightblue" points="372.76,-19.74 382.47,-15.51 372.24,-12.76 372.76,-19.74"/>
</g>
<!-- Node6 -->
<g id="node6" class="node">
<title>Node6</title>
<g id="a_node6"><a xlink:href="../../df/dee/Debug_8hpp.html" target="_top" xlink:title=" ">
<polygon fill="white" stroke="black" points="329.5,-392.5 329.5,-411.5 450.5,-411.5 450.5,-392.5 329.5,-392.5"/>
<text text-anchor="middle" x="390" y="-399.5" font-family="Helvetica,sans-Serif" font-size="10.00">AH/Debug/Debug.hpp</text>
</a>
</g>
</g>
<!-- Node5&#45;&gt;Node6 -->
<g id="edge7" class="edge">
<title>Node5&#45;&gt;Node6</title>
<path fill="none" stroke="midnightblue" d="M420.89,-448.08C415.72,-440.53 408.15,-429.49 401.81,-420.23"/>
<polygon fill="midnightblue" stroke="midnightblue" points="404.54,-418.02 396,-411.75 398.76,-421.98 404.54,-418.02"/>
</g>
<!-- Node6&#45;&gt;Node3 -->
<g id="edge8" class="edge">
<title>Node6&#45;&gt;Node3</title>
<path fill="none" stroke="midnightblue" d="M329.83,-392.46C238.65,-377.81 76,-344.21 76,-291 76,-291 76,-291 76,-121 76,-59.78 261.13,-30.37 372.27,-18.23"/>
<polygon fill="midnightblue" stroke="midnightblue" points="372.88,-21.69 382.46,-17.15 372.14,-14.73 372.88,-21.69"/>
</g>
<!-- Node6&#45;&gt;Node7 -->
<g id="edge9" class="edge">
<title>Node6&#45;&gt;Node7</title>
<path fill="none" stroke="midnightblue" d="M422.76,-392.47C450.64,-384.65 491.39,-371.89 525,-356 567.25,-336.02 574.57,-325.09 614,-300 641.31,-282.62 672.63,-262.42 693.06,-249.21"/>
<polygon fill="midnightblue" stroke="midnightblue" points="695.14,-252.04 701.63,-243.67 691.33,-246.16 695.14,-252.04"/>
</g>
<!-- Node14 -->
<g id="node14" class="node">
<title>Node14</title>
<g id="a_node14"><a xlink:href="../../d2/dd5/SettingsWrapper_8hpp.html" target="_top" xlink:title=" ">
<polygon fill="white" stroke="black" points="236,-336.5 236,-355.5 414,-355.5 414,-336.5 236,-336.5"/>
<text text-anchor="middle" x="325" y="-343.5" font-family="Helvetica,sans-Serif" font-size="10.00">AH/Settings/SettingsWrapper.hpp</text>
</a>
</g>
</g>
<!-- Node6&#45;&gt;Node14 -->
<g id="edge21" class="edge">
<title>Node6&#45;&gt;Node14</title>
<path fill="none" stroke="midnightblue" d="M374.44,-392.32C363.22,-384.42 348.56,-372.55 337.97,-362.94"/>
<polygon fill="midnightblue" stroke="midnightblue" points="340.15,-360.18 330.48,-355.83 335.33,-365.26 340.15,-360.18"/>
</g>
<!-- Node22 -->
<g id="node22" class="node">
<title>Node22</title>
<g id="a_node22"><a xlink:href="../../d7/d52/DebugVal_8hpp.html" target="_top" xlink:title=" ">
<polygon fill="white" stroke="black" points="432,-336.5 432,-355.5 516,-355.5 516,-336.5 432,-336.5"/>
<text text-anchor="middle" x="474" y="-343.5" font-family="Helvetica,sans-Serif" font-size="10.00">DebugVal.hpp</text>
</a>
</g>
</g>
<!-- Node6&#45;&gt;Node22 -->
<g id="edge36" class="edge">
<title>Node6&#45;&gt;Node22</title>
<path fill="none" stroke="midnightblue" d="M403.5,-392.32C416.6,-383.9 436.71,-370.97 452.11,-361.07"/>
<polygon fill="midnightblue" stroke="midnightblue" points="454.02,-364.01 460.54,-355.65 450.23,-358.12 454.02,-364.01"/>
</g>
<!-- Node7&#45;&gt;Node3 -->
<g id="edge11" class="edge">
<title>Node7&#45;&gt;Node3</title>
<path fill="none" stroke="midnightblue" d="M689.77,-224.39C651.34,-210.24 577.58,-178.86 530,-132 502.35,-104.77 508.07,-88.59 487,-56 480.82,-46.44 473.36,-36.18 467.1,-27.87"/>
<polygon fill="midnightblue" stroke="midnightblue" points="469.75,-25.57 460.89,-19.75 464.18,-29.82 469.75,-25.57"/>
</g>
<!-- Node8 -->
<g id="node8" class="node">
<title>Node8</title>
<g id="a_node8"><a xlink:href="../../dc/dc7/NamespaceSettings_8hpp.html" target="_top" xlink:title=" ">
<polygon fill="white" stroke="black" points="206.5,-56.5 206.5,-75.5 401.5,-75.5 401.5,-56.5 206.5,-56.5"/>
<text text-anchor="middle" x="304" y="-63.5" font-family="Helvetica,sans-Serif" font-size="10.00">AH/Settings/NamespaceSettings.hpp</text>
</a>
</g>
</g>
<!-- Node7&#45;&gt;Node8 -->
<g id="edge10" class="edge">
<title>Node7&#45;&gt;Node8</title>
<path fill="none" stroke="midnightblue" d="M641.43,-224.48C598.26,-217.85 543.26,-206.57 497,-188 427.6,-160.14 355.42,-107.41 322.43,-81.76"/>
<polygon fill="midnightblue" stroke="midnightblue" points="324.58,-79 314.56,-75.57 320.26,-84.5 324.58,-79"/>
</g>
<!-- Node9 -->
<g id="node9" class="node">
<title>Node9</title>
<g id="a_node9"><a xlink:href="../../d6/ddf/Arduino-Wrapper_8h.html" target="_top" xlink:title=" ">
<polygon fill="white" stroke="black" points="642,-168.5 642,-187.5 766,-187.5 766,-168.5 642,-168.5"/>
<text text-anchor="middle" x="704" y="-175.5" font-family="Helvetica,sans-Serif" font-size="10.00">AH/Arduino&#45;Wrapper.h</text>
</a>
</g>
</g>
<!-- Node7&#45;&gt;Node9 -->
<g id="edge12" class="edge">
<title>Node7&#45;&gt;Node9</title>
<path fill="none" stroke="midnightblue" d="M713.18,-224.08C711.73,-216.93 709.63,-206.64 707.81,-197.69"/>
<polygon fill="midnightblue" stroke="midnightblue" points="711.21,-196.85 705.78,-187.75 704.35,-198.25 711.21,-196.85"/>
</g>
<!-- Node10 -->
<g id="node10" class="node">
<title>Node10</title>
<g id="a_node10"><a xlink:href="../../d7/d79/MinMaxFix_8hpp.html" target="_top" xlink:title=" ">
<polygon fill="white" stroke="black" points="539,-112.5 539,-131.5 675,-131.5 675,-112.5 539,-112.5"/>
<text text-anchor="middle" x="607" y="-119.5" font-family="Helvetica,sans-Serif" font-size="10.00">AH/Math/MinMaxFix.hpp</text>
</a>
</g>
</g>
<!-- Node9&#45;&gt;Node10 -->
<g id="edge13" class="edge">
<title>Node9&#45;&gt;Node10</title>
<path fill="none" stroke="midnightblue" d="M688.42,-168.32C673,-159.74 649.19,-146.49 631.29,-136.52"/>
<polygon fill="midnightblue" stroke="midnightblue" points="632.99,-133.46 622.55,-131.65 629.58,-139.58 632.99,-133.46"/>
</g>
<!-- Node12 -->
<g id="node12" class="node">
<title>Node12</title>
<g id="a_node12"><a xlink:title=" ">
<polygon fill="white" stroke="#bfbfbf" points="724.5,-0.5 724.5,-19.5 787.5,-19.5 787.5,-0.5 724.5,-0.5"/>
<text text-anchor="middle" x="756" y="-7.5" font-family="Helvetica,sans-Serif" font-size="10.00">Arduino.h</text>
</a>
</g>
</g>
<!-- Node9&#45;&gt;Node12 -->
<g id="edge20" class="edge">
<title>Node9&#45;&gt;Node12</title>
<path fill="none" stroke="midnightblue" d="M704.55,-168.42C705.82,-154.95 710.05,-128.66 724,-112 746.46,-85.18 775.78,-105.86 794,-76 804.28,-59.15 789.21,-39.56 775.11,-26.32"/>
<polygon fill="midnightblue" stroke="midnightblue" points="777.38,-23.65 767.55,-19.68 772.76,-28.91 777.38,-23.65"/>
</g>
<!-- Node9&#45;&gt;Node13 -->
<g id="edge19" class="edge">
<title>Node9&#45;&gt;Node13</title>
<path fill="none" stroke="midnightblue" d="M717.17,-168.32C729.85,-159.98 749.23,-147.21 764.21,-137.35"/>
<polygon fill="midnightblue" stroke="midnightblue" points="766.43,-140.08 772.86,-131.65 762.58,-134.23 766.43,-140.08"/>
</g>
<!-- Node10&#45;&gt;Node3 -->
<g id="edge14" class="edge">
<title>Node10&#45;&gt;Node3</title>
<path fill="none" stroke="midnightblue" d="M596.91,-112.43C581.7,-99.65 551.81,-75.04 525,-56 509.38,-44.91 491.12,-33.36 477.02,-24.74"/>
<polygon fill="midnightblue" stroke="midnightblue" points="478.8,-21.73 468.43,-19.53 475.17,-27.71 478.8,-21.73"/>
</g>
<!-- Node10&#45;&gt;Node8 -->
<g id="edge18" class="edge">
<title>Node10&#45;&gt;Node8</title>
<path fill="none" stroke="midnightblue" d="M558.99,-112.44C505.47,-102.9 418.93,-87.48 361.76,-77.29"/>
<polygon fill="midnightblue" stroke="midnightblue" points="362.25,-73.83 351.79,-75.52 361.02,-80.72 362.25,-73.83"/>
</g>
<!-- Node11 -->
<g id="node11" class="node">
<title>Node11</title>
<g id="a_node11"><a xlink:href="../../d6/d3b/FixArduinoMacros_8hpp.html" target="_top" xlink:title=" ">
<polygon fill="white" stroke="black" points="615,-56.5 615,-75.5 785,-75.5 785,-56.5 615,-56.5"/>
<text text-anchor="middle" x="700" y="-63.5" font-family="Helvetica,sans-Serif" font-size="10.00">AH/Math/FixArduinoMacros.hpp</text>
</a>
</g>
</g>
<!-- Node10&#45;&gt;Node11 -->
<g id="edge15" class="edge">
<title>Node10&#45;&gt;Node11</title>
<path fill="none" stroke="midnightblue" d="M621.94,-112.32C636.59,-103.82 659.13,-90.73 676.24,-80.8"/>
<polygon fill="midnightblue" stroke="midnightblue" points="678.2,-83.7 685.1,-75.65 674.69,-77.65 678.2,-83.7"/>
</g>
<!-- Node11&#45;&gt;Node3 -->
<g id="edge16" class="edge">
<title>Node11&#45;&gt;Node3</title>
<path fill="none" stroke="midnightblue" d="M661.02,-56.44C618.11,-47.02 549.05,-31.87 502.63,-21.68"/>
<polygon fill="midnightblue" stroke="midnightblue" points="503.31,-18.24 492.8,-19.52 501.81,-25.08 503.31,-18.24"/>
</g>
<!-- Node11&#45;&gt;Node12 -->
<g id="edge17" class="edge">
<title>Node11&#45;&gt;Node12</title>
<path fill="none" stroke="midnightblue" d="M709,-56.32C717.19,-48.42 729.51,-36.55 739.47,-26.94"/>
<polygon fill="midnightblue" stroke="midnightblue" points="742.07,-29.29 746.84,-19.83 737.21,-24.26 742.07,-29.29"/>
</g>
<!-- Node14&#45;&gt;Node3 -->
<g id="edge22" class="edge">
<title>Node14&#45;&gt;Node3</title>
<path fill="none" stroke="midnightblue" d="M407.52,-336.47C466.66,-325.55 542.43,-300.68 581,-244 608.27,-203.92 566.82,-227.3 509,-132 488.03,-97.44 470.01,-53.52 460.72,-29.23"/>
<polygon fill="midnightblue" stroke="midnightblue" points="463.87,-27.69 457.08,-19.56 457.32,-30.15 463.87,-27.69"/>
</g>
<!-- Node14&#45;&gt;Node6 -->
<g id="edge35" class="edge">
<title>Node14&#45;&gt;Node6</title>
<path fill="none" stroke="midnightblue" d="M340.66,-355.75C351.85,-363.64 366.41,-375.43 376.97,-385"/>
<polygon fill="midnightblue" stroke="midnightblue" points="374.77,-387.74 384.43,-392.08 379.59,-382.66 374.77,-387.74"/>
</g>
<!-- Node14&#45;&gt;Node8 -->
<g id="edge23" class="edge">
<title>Node14&#45;&gt;Node8</title>
<path fill="none" stroke="midnightblue" d="M321.9,-336.14C316.63,-322.28 304.63,-295.47 286,-280 250.62,-250.63 215.26,-281.75 189,-244 183.92,-236.7 186.24,-232.45 189,-224 199.32,-192.46 261.52,-116.88 289.9,-83.42"/>
<polygon fill="midnightblue" stroke="midnightblue" points="292.81,-85.4 296.64,-75.52 287.48,-80.85 292.81,-85.4"/>
</g>
<!-- Node15 -->
<g id="node15" class="node">
<title>Node15</title>
<g id="a_node15"><a xlink:href="../../db/d02/Settings_8hpp.html" target="_top" xlink:title="All user settings and debugging options can be changed here.">
<polygon fill="white" stroke="black" points="334.5,-280.5 334.5,-299.5 411.5,-299.5 411.5,-280.5 334.5,-280.5"/>
<text text-anchor="middle" x="373" y="-287.5" font-family="Helvetica,sans-Serif" font-size="10.00">Settings.hpp</text>
</a>
</g>
</g>
<!-- Node14&#45;&gt;Node15 -->
<g id="edge24" class="edge">
<title>Node14&#45;&gt;Node15</title>
<path fill="none" stroke="midnightblue" d="M332.93,-336.08C339.85,-328.3 350.07,-316.8 358.45,-307.37"/>
<polygon fill="midnightblue" stroke="midnightblue" points="361.19,-309.55 365.22,-299.75 355.96,-304.9 361.19,-309.55"/>
</g>
<!-- Node21 -->
<g id="node21" class="node">
<title>Node21</title>
<g id="a_node21"><a xlink:href="../../d9/d98/TeensyUSBTypes_8hpp.html" target="_top" xlink:title=" ">
<polygon fill="white" stroke="black" points="104.5,-280.5 104.5,-299.5 277.5,-299.5 277.5,-280.5 104.5,-280.5"/>
<text text-anchor="middle" x="191" y="-287.5" font-family="Helvetica,sans-Serif" font-size="10.00">AH/Teensy/TeensyUSBTypes.hpp</text>
</a>
</g>
</g>
<!-- Node14&#45;&gt;Node21 -->
<g id="edge34" class="edge">
<title>Node14&#45;&gt;Node21</title>
<path fill="none" stroke="midnightblue" d="M303.77,-336.44C281.62,-327.52 246.68,-313.44 221.56,-303.32"/>
<polygon fill="midnightblue" stroke="midnightblue" points="222.72,-300.01 212.13,-299.52 220.1,-306.5 222.72,-300.01"/>
</g>
<!-- Node16 -->
<g id="node16" class="node">
<title>Node16</title>
<g id="a_node16"><a xlink:href="../../dc/d50/Frequency_8hpp.html" target="_top" xlink:title=" ">
<polygon fill="white" stroke="black" points="104,-112.5 104,-131.5 238,-131.5 238,-112.5 104,-112.5"/>
<text text-anchor="middle" x="171" y="-119.5" font-family="Helvetica,sans-Serif" font-size="10.00">AH/Types/Frequency.hpp</text>
</a>
</g>
</g>
<!-- Node15&#45;&gt;Node16 -->
<g id="edge25" class="edge">
<title>Node15&#45;&gt;Node16</title>
<path fill="none" stroke="midnightblue" d="M334.48,-281.94C283.49,-272.25 198.83,-254.78 189,-244 163.45,-215.98 164.78,-168.17 167.93,-141.82"/>
<polygon fill="midnightblue" stroke="midnightblue" points="171.43,-142.05 169.37,-131.66 164.5,-141.08 171.43,-142.05"/>
</g>
<!-- Node17 -->
<g id="node17" class="node">
<title>Node17</title>
<g id="a_node17"><a xlink:href="../../d7/d7c/ADCConfig_8hpp.html" target="_top" xlink:title="This file contains the platform&#45;specific ADC resolutions.">
<polygon fill="white" stroke="black" points="340.5,-224.5 340.5,-243.5 497.5,-243.5 497.5,-224.5 340.5,-224.5"/>
<text text-anchor="middle" x="419" y="-231.5" font-family="Helvetica,sans-Serif" font-size="10.00">AH/Hardware/ADCConfig.hpp</text>
</a>
</g>
</g>
<!-- Node15&#45;&gt;Node17 -->
<g id="edge28" class="edge">
<title>Node15&#45;&gt;Node17</title>
<path fill="none" stroke="midnightblue" d="M380.6,-280.08C387.23,-272.3 397.02,-260.8 405.06,-251.37"/>
<polygon fill="midnightblue" stroke="midnightblue" points="407.73,-253.63 411.55,-243.75 402.4,-249.09 407.73,-253.63"/>
</g>
<!-- Node18 -->
<g id="node18" class="node">
<title>Node18</title>
<g id="a_node18"><a xlink:title=" ">
<polygon fill="white" stroke="#bfbfbf" points="269.5,-224.5 269.5,-243.5 322.5,-243.5 322.5,-224.5 269.5,-224.5"/>
<text text-anchor="middle" x="296" y="-231.5" font-family="Helvetica,sans-Serif" font-size="10.00">limits.h</text>
</a>
</g>
</g>
<!-- Node15&#45;&gt;Node18 -->
<g id="edge31" class="edge">
<title>Node15&#45;&gt;Node18</title>
<path fill="none" stroke="midnightblue" d="M360.63,-280.32C348.84,-272.06 330.87,-259.45 316.86,-249.63"/>
<polygon fill="midnightblue" stroke="midnightblue" points="318.54,-246.53 308.34,-243.65 314.52,-252.26 318.54,-246.53"/>
</g>
<!-- Node15&#45;&gt;Node19 -->
<g id="edge32" class="edge">
<title>Node15&#45;&gt;Node19</title>
<path fill="none" stroke="midnightblue" d="M400.1,-280.44C428.99,-271.32 474.92,-256.81 507.11,-246.65"/>
<polygon fill="midnightblue" stroke="midnightblue" points="508.55,-249.87 517.03,-243.52 506.44,-243.19 508.55,-249.87"/>
</g>
<!-- Node20 -->
<g id="node20" class="node">
<title>Node20</title>
<g id="a_node20"><a xlink:title=" ">
<polygon fill="white" stroke="#bfbfbf" points="198.5,-224.5 198.5,-243.5 251.5,-243.5 251.5,-224.5 198.5,-224.5"/>
<text text-anchor="middle" x="225" y="-231.5" font-family="Helvetica,sans-Serif" font-size="10.00">stdint.h</text>
</a>
</g>
</g>
<!-- Node15&#45;&gt;Node20 -->
<g id="edge33" class="edge">
<title>Node15&#45;&gt;Node20</title>
<path fill="none" stroke="midnightblue" d="M349.55,-280.44C324.87,-271.44 285.81,-257.19 258.02,-247.05"/>
<polygon fill="midnightblue" stroke="midnightblue" points="258.94,-243.66 248.34,-243.52 256.54,-250.23 258.94,-243.66"/>
</g>
<!-- Node16&#45;&gt;Node3 -->
<g id="edge26" class="edge">
<title>Node16&#45;&gt;Node3</title>
<path fill="none" stroke="midnightblue" d="M171.83,-112.27C173.68,-98.1 179.45,-70.25 197,-56 223.41,-34.56 307.32,-22.79 372.15,-16.72"/>
<polygon fill="midnightblue" stroke="midnightblue" points="372.73,-20.18 382.38,-15.79 372.1,-13.21 372.73,-20.18"/>
</g>
<!-- Node16&#45;&gt;Node8 -->
<g id="edge27" class="edge">
<title>Node16&#45;&gt;Node8</title>
<path fill="none" stroke="midnightblue" d="M192.07,-112.44C214.06,-103.52 248.73,-89.44 273.66,-79.32"/>
<polygon fill="midnightblue" stroke="midnightblue" points="275.08,-82.52 283.02,-75.52 272.44,-76.04 275.08,-82.52"/>
</g>
<!-- Node17&#45;&gt;Node3 -->
<g id="edge29" class="edge">
<title>Node17&#45;&gt;Node3</title>
<path fill="none" stroke="midnightblue" d="M420.37,-224.3C425.52,-191.63 443.77,-75.87 451.01,-29.96"/>
<polygon fill="midnightblue" stroke="midnightblue" points="454.5,-30.31 452.6,-19.88 447.58,-29.22 454.5,-30.31"/>
</g>
<!-- Node17&#45;&gt;Node9 -->
<g id="edge30" class="edge">
<title>Node17&#45;&gt;Node9</title>
<path fill="none" stroke="midnightblue" d="M464.16,-224.44C514.29,-214.94 595.22,-199.61 649.01,-189.42"/>
<polygon fill="midnightblue" stroke="midnightblue" points="649.88,-192.82 659.05,-187.52 648.58,-185.94 649.88,-192.82"/>
</g>
<!-- Node25&#45;&gt;Node4 -->
<g id="edge43" class="edge">
<title>Node25&#45;&gt;Node4</title>
<path fill="none" stroke="midnightblue" d="M569.13,-616.19C582.18,-603.7 602.07,-580.15 592,-560 585.27,-546.54 572.39,-536.07 560.29,-528.62"/>
<polygon fill="midnightblue" stroke="midnightblue" points="561.72,-525.41 551.3,-523.52 558.27,-531.5 561.72,-525.41"/>
</g>
<!-- Node26 -->
<g id="node26" class="node">
<title>Node26</title>
<g id="a_node26"><a xlink:title=" ">
<polygon fill="white" stroke="#bfbfbf" points="328.5,-560.5 328.5,-579.5 413.5,-579.5 413.5,-560.5 328.5,-560.5"/>
<text text-anchor="middle" x="371" y="-567.5" font-family="Helvetica,sans-Serif" font-size="10.00">AH/STL/cmath</text>
</a>
</g>
</g>
<!-- Node25&#45;&gt;Node26 -->
<g id="edge44" class="edge">
<title>Node25&#45;&gt;Node26</title>
<path fill="none" stroke="midnightblue" d="M529.21,-616.44C497.17,-607.24 446.07,-592.56 410.65,-582.39"/>
<polygon fill="midnightblue" stroke="midnightblue" points="411.23,-578.91 400.65,-579.52 409.29,-585.64 411.23,-578.91"/>
</g>
<!-- Node27 -->
<g id="node27" class="node">
<title>Node27</title>
<g id="a_node27"><a xlink:href="../../d2/d03/TransferFunction_8hpp.html" target="_top" xlink:title=" ">
<polygon fill="white" stroke="black" points="431.5,-560.5 431.5,-579.5 582.5,-579.5 582.5,-560.5 431.5,-560.5"/>
<text text-anchor="middle" x="507" y="-567.5" font-family="Helvetica,sans-Serif" font-size="10.00">Filters/TransferFunction.hpp</text>
</a>
</g>
</g>
<!-- Node25&#45;&gt;Node27 -->
<g id="edge45" class="edge">
<title>Node25&#45;&gt;Node27</title>
<path fill="none" stroke="midnightblue" d="M550.41,-616.08C542.84,-608.22 531.62,-596.57 522.49,-587.08"/>
<polygon fill="midnightblue" stroke="midnightblue" points="524.88,-584.53 515.43,-579.75 519.84,-589.38 524.88,-584.53"/>
</g>
<!-- Node27&#45;&gt;Node4 -->
<g id="edge46" class="edge">
<title>Node27&#45;&gt;Node4</title>
<path fill="none" stroke="midnightblue" d="M511.13,-560.08C514.51,-552.77 519.42,-542.18 523.62,-533.1"/>
<polygon fill="midnightblue" stroke="midnightblue" points="526.92,-534.3 527.95,-523.75 520.57,-531.36 526.92,-534.3"/>
</g>
</g>
</svg>
