<?xml version="1.0" encoding="UTF-8" standalone="no"?>
<!DOCTYPE svg PUBLIC "-//W3C//DTD SVG 1.1//EN"
 "http://www.w3.org/Graphics/SVG/1.1/DTD/svg11.dtd">
<!-- Generated by graphviz version 2.43.0 (0)
 -->
<!-- Title: ButtonMatrix.hpp Pages: 1 -->
<svg width="1331pt" height="845pt"
 viewBox="0.00 0.00 1331.12 845.00" xmlns="http://www.w3.org/2000/svg" xmlns:xlink="http://www.w3.org/1999/xlink">
<g id="graph0" class="graph" transform="scale(1 1) rotate(0) translate(4 841)">
<title>ButtonMatrix.hpp</title>
<polygon fill="white" stroke="transparent" points="-4,4 -4,-841 1327.12,-841 1327.12,4 -4,4"/>
<!-- Node1 -->
<g id="node1" class="node">
<title>Node1</title>
<g id="a_node1"><a xlink:title=" ">
<polygon fill="#bfbfbf" stroke="black" points="476.5,-817.5 476.5,-836.5 577.5,-836.5 577.5,-817.5 476.5,-817.5"/>
<text text-anchor="middle" x="527" y="-824.5" font-family="Helvetica,sans-Serif" font-size="10.00">ButtonMatrix.hpp</text>
</a>
</g>
</g>
<!-- Node2 -->
<g id="node2" class="node">
<title>Node2</title>
<g id="a_node2"><a xlink:href="../../d1/d65/Warnings_8hpp.html" target="_top" xlink:title=" ">
<polygon fill="white" stroke="black" points="531.5,-0.5 531.5,-19.5 674.5,-19.5 674.5,-0.5 531.5,-0.5"/>
<text text-anchor="middle" x="603" y="-7.5" font-family="Helvetica,sans-Serif" font-size="10.00">AH/Settings/Warnings.hpp</text>
</a>
</g>
</g>
<!-- Node1&#45;&gt;Node2 -->
<g id="edge1" class="edge">
<title>Node1&#45;&gt;Node2</title>
<path fill="none" stroke="midnightblue" d="M577.64,-824C752.75,-816.44 1322,-786.03 1322,-710.5 1322,-710.5 1322,-710.5 1322,-121 1322,-90.9 1326.49,-74.82 1303,-56 1255.73,-18.14 859.31,-11.95 684.85,-11.07"/>
<polygon fill="midnightblue" stroke="midnightblue" points="684.71,-7.57 674.7,-11.02 684.68,-14.57 684.71,-7.57"/>
</g>
<!-- Node3 -->
<g id="node3" class="node">
<title>Node3</title>
<g id="a_node3"><a xlink:href="../../d4/d35/Hardware-Types_8hpp.html" target="_top" xlink:title=" ">
<polygon fill="white" stroke="black" points="377.5,-560.5 377.5,-590.5 508.5,-590.5 508.5,-560.5 377.5,-560.5"/>
<text text-anchor="start" x="385.5" y="-578.5" font-family="Helvetica,sans-Serif" font-size="10.00">AH/Hardware/Hardware</text>
<text text-anchor="middle" x="443" y="-567.5" font-family="Helvetica,sans-Serif" font-size="10.00">&#45;Types.hpp</text>
</a>
</g>
</g>
<!-- Node1&#45;&gt;Node3 -->
<g id="edge2" class="edge">
<title>Node1&#45;&gt;Node3</title>
<path fill="none" stroke="midnightblue" d="M495.31,-817.42C455.29,-804.68 388.15,-776.54 359,-725 333.26,-679.49 382.97,-626.12 416.3,-597.38"/>
<polygon fill="midnightblue" stroke="midnightblue" points="418.95,-599.73 424.37,-590.63 414.46,-594.37 418.95,-599.73"/>
</g>
<!-- Node23 -->
<g id="node23" class="node">
<title>Node23</title>
<g id="a_node23"><a xlink:href="../../d5/d41/ButtonMatrix_8ipp.html" target="_top" xlink:title=" ">
<polygon fill="white" stroke="black" points="478,-761.5 478,-780.5 576,-780.5 576,-761.5 478,-761.5"/>
<text text-anchor="middle" x="527" y="-768.5" font-family="Helvetica,sans-Serif" font-size="10.00">ButtonMatrix.ipp</text>
</a>
</g>
</g>
<!-- Node1&#45;&gt;Node23 -->
<g id="edge42" class="edge">
<title>Node1&#45;&gt;Node23</title>
<path fill="none" stroke="midnightblue" d="M521.83,-817.08C520.32,-809.93 519.89,-799.64 520.54,-790.69"/>
<polygon fill="midnightblue" stroke="midnightblue" points="524.02,-791.13 521.87,-780.75 517.08,-790.2 524.02,-791.13"/>
</g>
<!-- Node3&#45;&gt;Node2 -->
<g id="edge3" class="edge">
<title>Node3&#45;&gt;Node2</title>
<path fill="none" stroke="midnightblue" d="M508.77,-574.59C656.54,-573.03 1002,-558.72 1002,-459 1002,-459 1002,-459 1002,-121 1002,-55.81 801.52,-27.77 684.78,-16.96"/>
<polygon fill="midnightblue" stroke="midnightblue" points="685.07,-13.48 674.79,-16.06 684.44,-20.45 685.07,-13.48"/>
</g>
<!-- Node4 -->
<g id="node4" class="node">
<title>Node4</title>
<g id="a_node4"><a xlink:href="../../de/d76/Array_8hpp.html" target="_top" xlink:title=" ">
<polygon fill="white" stroke="black" points="193.5,-504.5 193.5,-523.5 328.5,-523.5 328.5,-504.5 193.5,-504.5"/>
<text text-anchor="middle" x="261" y="-511.5" font-family="Helvetica,sans-Serif" font-size="10.00">AH/Containers/Array.hpp</text>
</a>
</g>
</g>
<!-- Node3&#45;&gt;Node4 -->
<g id="edge4" class="edge">
<title>Node3&#45;&gt;Node4</title>
<path fill="none" stroke="midnightblue" d="M399.87,-560.4C368.42,-550.12 326.31,-536.35 296.73,-526.68"/>
<polygon fill="midnightblue" stroke="midnightblue" points="297.81,-523.35 287.22,-523.57 295.63,-530.01 297.81,-523.35"/>
</g>
<!-- Node8 -->
<g id="node8" class="node">
<title>Node8</title>
<g id="a_node8"><a xlink:href="../../dc/dc7/NamespaceSettings_8hpp.html" target="_top" xlink:title=" ">
<polygon fill="white" stroke="black" points="649.5,-56.5 649.5,-75.5 844.5,-75.5 844.5,-56.5 649.5,-56.5"/>
<text text-anchor="middle" x="747" y="-63.5" font-family="Helvetica,sans-Serif" font-size="10.00">AH/Settings/NamespaceSettings.hpp</text>
</a>
</g>
</g>
<!-- Node3&#45;&gt;Node8 -->
<g id="edge40" class="edge">
<title>Node3&#45;&gt;Node8</title>
<path fill="none" stroke="midnightblue" d="M508.64,-572.43C640.7,-566.48 926,-543.82 926,-459 926,-459 926,-459 926,-233 926,-153.96 831.02,-101.99 779.43,-79.59"/>
<polygon fill="midnightblue" stroke="midnightblue" points="780.61,-76.29 770.03,-75.63 777.89,-82.74 780.61,-76.29"/>
</g>
<!-- Node20 -->
<g id="node20" class="node">
<title>Node20</title>
<g id="a_node20"><a xlink:title=" ">
<polygon fill="white" stroke="#bfbfbf" points="180.5,-224.5 180.5,-243.5 233.5,-243.5 233.5,-224.5 180.5,-224.5"/>
<text text-anchor="middle" x="207" y="-231.5" font-family="Helvetica,sans-Serif" font-size="10.00">stdint.h</text>
</a>
</g>
</g>
<!-- Node3&#45;&gt;Node20 -->
<g id="edge41" class="edge">
<title>Node3&#45;&gt;Node20</title>
<path fill="none" stroke="midnightblue" d="M377.39,-567.46C271.83,-554.3 76,-521.45 76,-459 76,-459 76,-459 76,-401 76,-332.13 146.35,-275.05 183.94,-249.47"/>
<polygon fill="midnightblue" stroke="midnightblue" points="186.32,-252.09 192.73,-243.65 182.46,-246.25 186.32,-252.09"/>
</g>
<!-- Node4&#45;&gt;Node2 -->
<g id="edge5" class="edge">
<title>Node4&#45;&gt;Node2</title>
<path fill="none" stroke="midnightblue" d="M228.67,-504.39C209.22,-497.6 185.49,-486.16 171,-468 154.38,-447.17 114,-261.65 114,-235 114,-235 114,-235 114,-121 114,-38.55 381.97,-17.89 521.17,-12.72"/>
<polygon fill="midnightblue" stroke="midnightblue" points="521.5,-16.21 531.37,-12.36 521.25,-9.22 521.5,-16.21"/>
</g>
<!-- Node5 -->
<g id="node5" class="node">
<title>Node5</title>
<g id="a_node5"><a xlink:href="../../d1/d93/Error_8hpp.html" target="_top" xlink:title=" ">
<polygon fill="white" stroke="black" points="588,-448.5 588,-467.5 692,-467.5 692,-448.5 588,-448.5"/>
<text text-anchor="middle" x="640" y="-455.5" font-family="Helvetica,sans-Serif" font-size="10.00">AH/Error/Error.hpp</text>
</a>
</g>
</g>
<!-- Node4&#45;&gt;Node5 -->
<g id="edge6" class="edge">
<title>Node4&#45;&gt;Node5</title>
<path fill="none" stroke="midnightblue" d="M321.05,-504.44C391.18,-494.45 506.61,-478.01 577.69,-467.88"/>
<polygon fill="midnightblue" stroke="midnightblue" points="578.44,-471.31 587.85,-466.43 577.45,-464.38 578.44,-471.31"/>
</g>
<!-- Node13 -->
<g id="node13" class="node">
<title>Node13</title>
<g id="a_node13"><a xlink:title=" ">
<polygon fill="white" stroke="#bfbfbf" points="180.5,-112.5 180.5,-131.5 287.5,-131.5 287.5,-112.5 180.5,-112.5"/>
<text text-anchor="middle" x="234" y="-119.5" font-family="Helvetica,sans-Serif" font-size="10.00">AH/STL/type_traits</text>
</a>
</g>
</g>
<!-- Node4&#45;&gt;Node13 -->
<g id="edge38" class="edge">
<title>Node4&#45;&gt;Node13</title>
<path fill="none" stroke="midnightblue" d="M195.77,-504.47C173.73,-498.12 151.35,-487.1 138,-468 62.07,-359.37 179.16,-192.44 220.46,-139.62"/>
<polygon fill="midnightblue" stroke="midnightblue" points="223.33,-141.64 226.82,-131.63 217.85,-137.28 223.33,-141.64"/>
</g>
<!-- Node19 -->
<g id="node19" class="node">
<title>Node19</title>
<g id="a_node19"><a xlink:title=" ">
<polygon fill="white" stroke="#bfbfbf" points="252,-224.5 252,-243.5 308,-243.5 308,-224.5 252,-224.5"/>
<text text-anchor="middle" x="280" y="-231.5" font-family="Helvetica,sans-Serif" font-size="10.00">stddef.h</text>
</a>
</g>
</g>
<!-- Node4&#45;&gt;Node19 -->
<g id="edge39" class="edge">
<title>Node4&#45;&gt;Node19</title>
<path fill="none" stroke="midnightblue" d="M265.99,-504.49C276.09,-486.44 298,-442.69 298,-403 298,-403 298,-403 298,-345 298,-312.54 290.27,-275.38 284.94,-253.63"/>
<polygon fill="midnightblue" stroke="midnightblue" points="288.29,-252.59 282.43,-243.76 281.51,-254.32 288.29,-252.59"/>
</g>
<!-- Node22 -->
<g id="node22" class="node">
<title>Node22</title>
<g id="a_node22"><a xlink:title=" ">
<polygon fill="white" stroke="#bfbfbf" points="180,-448.5 180,-467.5 270,-467.5 270,-448.5 180,-448.5"/>
<text text-anchor="middle" x="225" y="-455.5" font-family="Helvetica,sans-Serif" font-size="10.00">AH/STL/iterator</text>
</a>
</g>
</g>
<!-- Node4&#45;&gt;Node22 -->
<g id="edge37" class="edge">
<title>Node4&#45;&gt;Node22</title>
<path fill="none" stroke="midnightblue" d="M255.06,-504.08C250.02,-496.53 242.66,-485.49 236.49,-476.23"/>
<polygon fill="midnightblue" stroke="midnightblue" points="239.29,-474.13 230.83,-467.75 233.47,-478.01 239.29,-474.13"/>
</g>
<!-- Node5&#45;&gt;Node2 -->
<g id="edge7" class="edge">
<title>Node5&#45;&gt;Node2</title>
<path fill="none" stroke="midnightblue" d="M692.29,-456.11C765.05,-451.78 888,-431.9 888,-347 888,-347 888,-347 888,-233 888,-154.05 926.53,-114.03 873,-56 848.09,-28.99 754.75,-18.19 684.74,-13.88"/>
<polygon fill="midnightblue" stroke="midnightblue" points="684.78,-10.37 674.59,-13.28 684.37,-17.36 684.78,-10.37"/>
</g>
<!-- Node6 -->
<g id="node6" class="node">
<title>Node6</title>
<g id="a_node6"><a xlink:href="../../df/dee/Debug_8hpp.html" target="_top" xlink:title=" ">
<polygon fill="white" stroke="black" points="579.5,-392.5 579.5,-411.5 700.5,-411.5 700.5,-392.5 579.5,-392.5"/>
<text text-anchor="middle" x="640" y="-399.5" font-family="Helvetica,sans-Serif" font-size="10.00">AH/Debug/Debug.hpp</text>
</a>
</g>
</g>
<!-- Node5&#45;&gt;Node6 -->
<g id="edge8" class="edge">
<title>Node5&#45;&gt;Node6</title>
<path fill="none" stroke="midnightblue" d="M640,-448.08C640,-441.01 640,-430.86 640,-421.99"/>
<polygon fill="midnightblue" stroke="midnightblue" points="643.5,-421.75 640,-411.75 636.5,-421.75 643.5,-421.75"/>
</g>
<!-- Node6&#45;&gt;Node2 -->
<g id="edge9" class="edge">
<title>Node6&#45;&gt;Node2</title>
<path fill="none" stroke="midnightblue" d="M579.18,-393.36C448.36,-375.21 152,-324.27 152,-235 152,-235 152,-235 152,-177 152,-146.77 148.89,-131.48 172,-112 219.8,-71.71 390.74,-92.63 451,-76 472.49,-70.07 476.52,-64.8 497,-56 522.69,-44.96 551.94,-32.56 573.2,-23.57"/>
<polygon fill="midnightblue" stroke="midnightblue" points="574.81,-26.69 582.66,-19.57 572.08,-20.24 574.81,-26.69"/>
</g>
<!-- Node7 -->
<g id="node7" class="node">
<title>Node7</title>
<g id="a_node7"><a xlink:href="../../dd/d80/PrintStream_8hpp.html" target="_top" xlink:title=" ">
<polygon fill="white" stroke="black" points="572.5,-224.5 572.5,-243.5 745.5,-243.5 745.5,-224.5 572.5,-224.5"/>
<text text-anchor="middle" x="659" y="-231.5" font-family="Helvetica,sans-Serif" font-size="10.00">AH/PrintStream/PrintStream.hpp</text>
</a>
</g>
</g>
<!-- Node6&#45;&gt;Node7 -->
<g id="edge10" class="edge">
<title>Node6&#45;&gt;Node7</title>
<path fill="none" stroke="midnightblue" d="M628.73,-392.43C619.03,-384.27 605.72,-371.05 600,-356 594.82,-342.37 590.47,-302.76 602,-280 608.68,-266.83 621.18,-256.29 632.78,-248.73"/>
<polygon fill="midnightblue" stroke="midnightblue" points="634.61,-251.71 641.36,-243.54 630.99,-245.72 634.61,-251.71"/>
</g>
<!-- Node14 -->
<g id="node14" class="node">
<title>Node14</title>
<g id="a_node14"><a xlink:href="../../d2/dd5/SettingsWrapper_8hpp.html" target="_top" xlink:title=" ">
<polygon fill="white" stroke="black" points="609,-336.5 609,-355.5 787,-355.5 787,-336.5 609,-336.5"/>
<text text-anchor="middle" x="698" y="-343.5" font-family="Helvetica,sans-Serif" font-size="10.00">AH/Settings/SettingsWrapper.hpp</text>
</a>
</g>
</g>
<!-- Node6&#45;&gt;Node14 -->
<g id="edge22" class="edge">
<title>Node6&#45;&gt;Node14</title>
<path fill="none" stroke="midnightblue" d="M644.41,-392.08C651.4,-383.98 664.09,-371.87 675.49,-362.23"/>
<polygon fill="midnightblue" stroke="midnightblue" points="677.92,-364.77 683.47,-355.75 673.5,-359.34 677.92,-364.77"/>
</g>
<!-- Node7&#45;&gt;Node2 -->
<g id="edge12" class="edge">
<title>Node7&#45;&gt;Node2</title>
<path fill="none" stroke="midnightblue" d="M651.65,-224.21C633.21,-201.52 585.42,-138.35 570,-76 567.87,-67.37 567.23,-64.45 570,-56 573.49,-45.34 580.57,-35.12 587.29,-27.12"/>
<polygon fill="midnightblue" stroke="midnightblue" points="589.9,-29.44 593.98,-19.66 584.7,-24.76 589.9,-29.44"/>
</g>
<!-- Node7&#45;&gt;Node8 -->
<g id="edge11" class="edge">
<title>Node7&#45;&gt;Node8</title>
<path fill="none" stroke="midnightblue" d="M653.95,-224.21C642.47,-202.97 617.2,-147.95 641,-112 651.66,-95.89 669.37,-85.53 687.29,-78.88"/>
<polygon fill="midnightblue" stroke="midnightblue" points="688.86,-82.05 697.23,-75.55 686.63,-75.41 688.86,-82.05"/>
</g>
<!-- Node9 -->
<g id="node9" class="node">
<title>Node9</title>
<g id="a_node9"><a xlink:href="../../d6/ddf/Arduino-Wrapper_8h.html" target="_top" xlink:title=" ">
<polygon fill="white" stroke="black" points="299,-168.5 299,-187.5 423,-187.5 423,-168.5 299,-168.5"/>
<text text-anchor="middle" x="361" y="-175.5" font-family="Helvetica,sans-Serif" font-size="10.00">AH/Arduino&#45;Wrapper.h</text>
</a>
</g>
</g>
<!-- Node7&#45;&gt;Node9 -->
<g id="edge13" class="edge">
<title>Node7&#45;&gt;Node9</title>
<path fill="none" stroke="midnightblue" d="M611.78,-224.44C559.25,-214.92 474.39,-199.55 418.15,-189.36"/>
<polygon fill="midnightblue" stroke="midnightblue" points="418.46,-185.86 408,-187.52 417.21,-192.74 418.46,-185.86"/>
</g>
<!-- Node10 -->
<g id="node10" class="node">
<title>Node10</title>
<g id="a_node10"><a xlink:href="../../d7/d79/MinMaxFix_8hpp.html" target="_top" xlink:title=" ">
<polygon fill="white" stroke="black" points="363,-112.5 363,-131.5 499,-131.5 499,-112.5 363,-112.5"/>
<text text-anchor="middle" x="431" y="-119.5" font-family="Helvetica,sans-Serif" font-size="10.00">AH/Math/MinMaxFix.hpp</text>
</a>
</g>
</g>
<!-- Node9&#45;&gt;Node10 -->
<g id="edge14" class="edge">
<title>Node9&#45;&gt;Node10</title>
<path fill="none" stroke="midnightblue" d="M372.25,-168.32C382.8,-160.18 398.8,-147.84 411.44,-138.09"/>
<polygon fill="midnightblue" stroke="midnightblue" points="413.77,-140.71 419.55,-131.83 409.49,-135.17 413.77,-140.71"/>
</g>
<!-- Node12 -->
<g id="node12" class="node">
<title>Node12</title>
<g id="a_node12"><a xlink:title=" ">
<polygon fill="white" stroke="#bfbfbf" points="269.5,-0.5 269.5,-19.5 332.5,-19.5 332.5,-0.5 269.5,-0.5"/>
<text text-anchor="middle" x="301" y="-7.5" font-family="Helvetica,sans-Serif" font-size="10.00">Arduino.h</text>
</a>
</g>
</g>
<!-- Node9&#45;&gt;Node12 -->
<g id="edge21" class="edge">
<title>Node9&#45;&gt;Node12</title>
<path fill="none" stroke="midnightblue" d="M352.42,-168.34C328.76,-144.4 264.2,-78.96 263,-76 255.84,-58.34 269.15,-39.72 281.94,-26.96"/>
<polygon fill="midnightblue" stroke="midnightblue" points="284.69,-29.19 289.65,-19.83 279.94,-24.05 284.69,-29.19"/>
</g>
<!-- Node9&#45;&gt;Node13 -->
<g id="edge20" class="edge">
<title>Node9&#45;&gt;Node13</title>
<path fill="none" stroke="midnightblue" d="M340.88,-168.44C319.98,-159.56 287.07,-145.56 263.28,-135.45"/>
<polygon fill="midnightblue" stroke="midnightblue" points="264.6,-132.21 254.03,-131.52 261.86,-138.65 264.6,-132.21"/>
</g>
<!-- Node10&#45;&gt;Node2 -->
<g id="edge15" class="edge">
<title>Node10&#45;&gt;Node2</title>
<path fill="none" stroke="midnightblue" d="M444.38,-112.35C463.7,-99.86 500.54,-76.09 532,-56 548.34,-45.56 566.85,-33.83 580.87,-24.97"/>
<polygon fill="midnightblue" stroke="midnightblue" points="582.79,-27.9 589.37,-19.6 579.05,-21.98 582.79,-27.9"/>
</g>
<!-- Node10&#45;&gt;Node8 -->
<g id="edge19" class="edge">
<title>Node10&#45;&gt;Node8</title>
<path fill="none" stroke="midnightblue" d="M481.07,-112.44C537.01,-102.89 627.51,-87.42 687.14,-77.23"/>
<polygon fill="midnightblue" stroke="midnightblue" points="687.9,-80.65 697.16,-75.52 686.72,-73.75 687.9,-80.65"/>
</g>
<!-- Node11 -->
<g id="node11" class="node">
<title>Node11</title>
<g id="a_node11"><a xlink:href="../../d6/d3b/FixArduinoMacros_8hpp.html" target="_top" xlink:title=" ">
<polygon fill="white" stroke="black" points="272,-56.5 272,-75.5 442,-75.5 442,-56.5 272,-56.5"/>
<text text-anchor="middle" x="357" y="-63.5" font-family="Helvetica,sans-Serif" font-size="10.00">AH/Math/FixArduinoMacros.hpp</text>
</a>
</g>
</g>
<!-- Node10&#45;&gt;Node11 -->
<g id="edge16" class="edge">
<title>Node10&#45;&gt;Node11</title>
<path fill="none" stroke="midnightblue" d="M419.11,-112.32C407.85,-104.11 390.71,-91.6 377.29,-81.81"/>
<polygon fill="midnightblue" stroke="midnightblue" points="379.25,-78.9 369.11,-75.83 375.12,-84.56 379.25,-78.9"/>
</g>
<!-- Node11&#45;&gt;Node2 -->
<g id="edge17" class="edge">
<title>Node11&#45;&gt;Node2</title>
<path fill="none" stroke="midnightblue" d="M395.98,-56.44C438.89,-47.02 507.95,-31.87 554.37,-21.68"/>
<polygon fill="midnightblue" stroke="midnightblue" points="555.19,-25.08 564.2,-19.52 553.69,-18.24 555.19,-25.08"/>
</g>
<!-- Node11&#45;&gt;Node12 -->
<g id="edge18" class="edge">
<title>Node11&#45;&gt;Node12</title>
<path fill="none" stroke="midnightblue" d="M348,-56.32C339.81,-48.42 327.49,-36.55 317.53,-26.94"/>
<polygon fill="midnightblue" stroke="midnightblue" points="319.79,-24.26 310.16,-19.83 314.93,-29.29 319.79,-24.26"/>
</g>
<!-- Node14&#45;&gt;Node2 -->
<g id="edge23" class="edge">
<title>Node14&#45;&gt;Node2</title>
<path fill="none" stroke="midnightblue" d="M738.29,-336.43C762.14,-329.73 791.76,-318.37 813,-300 838.14,-278.25 850,-268.24 850,-235 850,-235 850,-235 850,-177 850,-123.19 888.53,-97.27 854,-56 832.63,-30.46 749.68,-19.4 684.92,-14.61"/>
<polygon fill="midnightblue" stroke="midnightblue" points="684.92,-11.11 674.7,-13.9 684.43,-18.09 684.92,-11.11"/>
</g>
<!-- Node14&#45;&gt;Node6 -->
<g id="edge36" class="edge">
<title>Node14&#45;&gt;Node6</title>
<path fill="none" stroke="midnightblue" d="M693.66,-355.83C686.67,-363.95 673.9,-376.15 662.44,-385.82"/>
<polygon fill="midnightblue" stroke="midnightblue" points="659.99,-383.3 654.43,-392.32 664.4,-388.74 659.99,-383.3"/>
</g>
<!-- Node14&#45;&gt;Node8 -->
<g id="edge24" class="edge">
<title>Node14&#45;&gt;Node8</title>
<path fill="none" stroke="midnightblue" d="M732.27,-336.45C752.59,-329.72 777.36,-318.33 793,-300 812.54,-277.1 812,-265.1 812,-235 812,-235 812,-235 812,-177 812,-146.9 808.48,-137.81 793,-112 786.22,-100.7 775.93,-90.27 766.8,-82.3"/>
<polygon fill="midnightblue" stroke="midnightblue" points="768.8,-79.41 758.87,-75.71 764.33,-84.79 768.8,-79.41"/>
</g>
<!-- Node15 -->
<g id="node15" class="node">
<title>Node15</title>
<g id="a_node15"><a xlink:href="../../db/d02/Settings_8hpp.html" target="_top" xlink:title="All user settings and debugging options can be changed here.">
<polygon fill="white" stroke="black" points="420.5,-280.5 420.5,-299.5 497.5,-299.5 497.5,-280.5 420.5,-280.5"/>
<text text-anchor="middle" x="459" y="-287.5" font-family="Helvetica,sans-Serif" font-size="10.00">Settings.hpp</text>
</a>
</g>
</g>
<!-- Node14&#45;&gt;Node15 -->
<g id="edge25" class="edge">
<title>Node14&#45;&gt;Node15</title>
<path fill="none" stroke="midnightblue" d="M660.13,-336.44C618.52,-327.04 551.63,-311.93 506.53,-301.74"/>
<polygon fill="midnightblue" stroke="midnightblue" points="507.22,-298.31 496.69,-299.52 505.68,-305.13 507.22,-298.31"/>
</g>
<!-- Node21 -->
<g id="node21" class="node">
<title>Node21</title>
<g id="a_node21"><a xlink:href="../../d9/d98/TeensyUSBTypes_8hpp.html" target="_top" xlink:title=" ">
<polygon fill="white" stroke="black" points="610.5,-280.5 610.5,-299.5 783.5,-299.5 783.5,-280.5 610.5,-280.5"/>
<text text-anchor="middle" x="697" y="-287.5" font-family="Helvetica,sans-Serif" font-size="10.00">AH/Teensy/TeensyUSBTypes.hpp</text>
</a>
</g>
</g>
<!-- Node14&#45;&gt;Node21 -->
<g id="edge35" class="edge">
<title>Node14&#45;&gt;Node21</title>
<path fill="none" stroke="midnightblue" d="M697.83,-336.08C697.7,-329.01 697.52,-318.86 697.35,-309.99"/>
<polygon fill="midnightblue" stroke="midnightblue" points="700.85,-309.68 697.16,-299.75 693.85,-309.81 700.85,-309.68"/>
</g>
<!-- Node16 -->
<g id="node16" class="node">
<title>Node16</title>
<g id="a_node16"><a xlink:href="../../dc/d50/Frequency_8hpp.html" target="_top" xlink:title=" ">
<polygon fill="white" stroke="black" points="650,-112.5 650,-131.5 784,-131.5 784,-112.5 650,-112.5"/>
<text text-anchor="middle" x="717" y="-119.5" font-family="Helvetica,sans-Serif" font-size="10.00">AH/Types/Frequency.hpp</text>
</a>
</g>
</g>
<!-- Node15&#45;&gt;Node16 -->
<g id="edge26" class="edge">
<title>Node15&#45;&gt;Node16</title>
<path fill="none" stroke="midnightblue" d="M497.71,-285.9C574.13,-279.39 738.42,-263.29 755,-244 781.19,-213.53 750.73,-165.02 731.08,-139.67"/>
<polygon fill="midnightblue" stroke="midnightblue" points="733.69,-137.32 724.69,-131.73 728.24,-141.72 733.69,-137.32"/>
</g>
<!-- Node17 -->
<g id="node17" class="node">
<title>Node17</title>
<g id="a_node17"><a xlink:href="../../d7/d7c/ADCConfig_8hpp.html" target="_top" xlink:title="This file contains the platform&#45;specific ADC resolutions.">
<polygon fill="white" stroke="black" points="326.5,-224.5 326.5,-243.5 483.5,-243.5 483.5,-224.5 326.5,-224.5"/>
<text text-anchor="middle" x="405" y="-231.5" font-family="Helvetica,sans-Serif" font-size="10.00">AH/Hardware/ADCConfig.hpp</text>
</a>
</g>
</g>
<!-- Node15&#45;&gt;Node17 -->
<g id="edge29" class="edge">
<title>Node15&#45;&gt;Node17</title>
<path fill="none" stroke="midnightblue" d="M450.08,-280.08C442.22,-272.22 430.57,-260.57 421.08,-251.08"/>
<polygon fill="midnightblue" stroke="midnightblue" points="423.3,-248.35 413.75,-243.75 418.35,-253.3 423.3,-248.35"/>
</g>
<!-- Node18 -->
<g id="node18" class="node">
<title>Node18</title>
<g id="a_node18"><a xlink:title=" ">
<polygon fill="white" stroke="#bfbfbf" points="501.5,-224.5 501.5,-243.5 554.5,-243.5 554.5,-224.5 501.5,-224.5"/>
<text text-anchor="middle" x="528" y="-231.5" font-family="Helvetica,sans-Serif" font-size="10.00">limits.h</text>
</a>
</g>
</g>
<!-- Node15&#45;&gt;Node18 -->
<g id="edge32" class="edge">
<title>Node15&#45;&gt;Node18</title>
<path fill="none" stroke="midnightblue" d="M470.09,-280.32C480.49,-272.18 496.26,-259.84 508.72,-250.09"/>
<polygon fill="midnightblue" stroke="midnightblue" points="510.99,-252.75 516.71,-243.83 506.68,-247.24 510.99,-252.75"/>
</g>
<!-- Node15&#45;&gt;Node19 -->
<g id="edge33" class="edge">
<title>Node15&#45;&gt;Node19</title>
<path fill="none" stroke="midnightblue" d="M430.64,-280.44C400.26,-271.28 351.89,-256.69 318.18,-246.52"/>
<polygon fill="midnightblue" stroke="midnightblue" points="318.82,-243.05 308.23,-243.52 316.79,-249.76 318.82,-243.05"/>
</g>
<!-- Node15&#45;&gt;Node20 -->
<g id="edge34" class="edge">
<title>Node15&#45;&gt;Node20</title>
<path fill="none" stroke="midnightblue" d="M420.27,-281.41C379,-273.22 311.5,-259.52 243.71,-244.09"/>
<polygon fill="midnightblue" stroke="midnightblue" points="244.24,-240.62 233.71,-241.8 242.68,-247.44 244.24,-240.62"/>
</g>
<!-- Node16&#45;&gt;Node2 -->
<g id="edge27" class="edge">
<title>Node16&#45;&gt;Node2</title>
<path fill="none" stroke="midnightblue" d="M696.71,-112.48C680.21,-104.79 657.11,-92.2 641,-76 627.63,-62.56 617.21,-43.48 610.69,-29.47"/>
<polygon fill="midnightblue" stroke="midnightblue" points="613.72,-27.66 606.48,-19.93 607.32,-30.49 613.72,-27.66"/>
</g>
<!-- Node16&#45;&gt;Node8 -->
<g id="edge28" class="edge">
<title>Node16&#45;&gt;Node8</title>
<path fill="none" stroke="midnightblue" d="M721.95,-112.08C726.1,-104.61 732.15,-93.72 737.27,-84.52"/>
<polygon fill="midnightblue" stroke="midnightblue" points="740.34,-86.19 742.14,-75.75 734.22,-82.79 740.34,-86.19"/>
</g>
<!-- Node17&#45;&gt;Node2 -->
<g id="edge30" class="edge">
<title>Node17&#45;&gt;Node2</title>
<path fill="none" stroke="midnightblue" d="M416.7,-224.21C445.65,-201.98 521.83,-140.7 570,-76 580.85,-61.42 589.92,-42.74 595.78,-29.16"/>
<polygon fill="midnightblue" stroke="midnightblue" points="599.18,-30.1 599.77,-19.52 592.71,-27.42 599.18,-30.1"/>
</g>
<!-- Node17&#45;&gt;Node9 -->
<g id="edge31" class="edge">
<title>Node17&#45;&gt;Node9</title>
<path fill="none" stroke="midnightblue" d="M397.73,-224.08C391.46,-216.38 382.21,-205.03 374.57,-195.65"/>
<polygon fill="midnightblue" stroke="midnightblue" points="377.16,-193.29 368.13,-187.75 371.73,-197.71 377.16,-193.29"/>
</g>
<!-- Node23&#45;&gt;Node1 -->
<g id="edge43" class="edge">
<title>Node23&#45;&gt;Node1</title>
<path fill="none" stroke="midnightblue" d="M532.13,-780.75C533.66,-787.86 534.1,-798.14 533.47,-807.1"/>
<polygon fill="midnightblue" stroke="midnightblue" points="529.99,-806.71 532.17,-817.08 536.93,-807.62 529.99,-806.71"/>
</g>
<!-- Node24 -->
<g id="node24" class="node">
<title>Node24</title>
<g id="a_node24"><a xlink:href="../../d4/dba/CRTP_8hpp.html" target="_top" xlink:title=" ">
<polygon fill="white" stroke="black" points="634,-700 634,-719 768,-719 768,-700 634,-700"/>
<text text-anchor="middle" x="701" y="-707" font-family="Helvetica,sans-Serif" font-size="10.00">AH/Containers/CRTP.hpp</text>
</a>
</g>
</g>
<!-- Node23&#45;&gt;Node24 -->
<g id="edge44" class="edge">
<title>Node23&#45;&gt;Node24</title>
<path fill="none" stroke="midnightblue" d="M551.93,-761.48C582.04,-751.18 632.83,-733.81 666.64,-722.25"/>
<polygon fill="midnightblue" stroke="midnightblue" points="667.79,-725.56 676.12,-719.01 665.52,-718.93 667.79,-725.56"/>
</g>
<!-- Node25 -->
<g id="node25" class="node">
<title>Node25</title>
<g id="a_node25"><a xlink:href="../../dd/ddf/ExtendedInputOutput_8hpp.html" target="_top" xlink:title=" ">
<polygon fill="white" stroke="black" points="438.5,-694.5 438.5,-724.5 615.5,-724.5 615.5,-694.5 438.5,-694.5"/>
<text text-anchor="start" x="446.5" y="-712.5" font-family="Helvetica,sans-Serif" font-size="10.00">AH/Hardware/ExtendedInput</text>
<text text-anchor="middle" x="527" y="-701.5" font-family="Helvetica,sans-Serif" font-size="10.00">Output/ExtendedInputOutput.hpp</text>
</a>
</g>
</g>
<!-- Node23&#45;&gt;Node25 -->
<g id="edge45" class="edge">
<title>Node23&#45;&gt;Node25</title>
<path fill="none" stroke="midnightblue" d="M527,-761.48C527,-754.47 527,-744.19 527,-734.7"/>
<polygon fill="midnightblue" stroke="midnightblue" points="530.5,-734.52 527,-724.52 523.5,-734.52 530.5,-734.52"/>
</g>
<!-- Node31 -->
<g id="node31" class="node">
<title>Node31</title>
<g id="a_node31"><a xlink:title=" ">
<polygon fill="white" stroke="#bfbfbf" points="367.5,-700 367.5,-719 420.5,-719 420.5,-700 367.5,-700"/>
<text text-anchor="middle" x="394" y="-707" font-family="Helvetica,sans-Serif" font-size="10.00">string.h</text>
</a>
</g>
</g>
<!-- Node23&#45;&gt;Node31 -->
<g id="edge58" class="edge">
<title>Node23&#45;&gt;Node31</title>
<path fill="none" stroke="midnightblue" d="M507.94,-761.48C485.53,-751.45 448.09,-734.7 422.29,-723.15"/>
<polygon fill="midnightblue" stroke="midnightblue" points="423.58,-719.9 413.02,-719.01 420.72,-726.29 423.58,-719.9"/>
</g>
<!-- Node25&#45;&gt;Node2 -->
<g id="edge57" class="edge">
<title>Node25&#45;&gt;Node2</title>
<path fill="none" stroke="midnightblue" d="M456.2,-694.45C312.47,-665.46 0,-599.74 0,-576.5 0,-576.5 0,-576.5 0,-121 0,-51.19 75.57,-74.09 143,-56 272.05,-21.38 427.83,-12.76 520.97,-10.96"/>
<polygon fill="midnightblue" stroke="midnightblue" points="521.24,-14.46 531.18,-10.79 521.12,-7.46 521.24,-14.46"/>
</g>
<!-- Node25&#45;&gt;Node8 -->
<g id="edge56" class="edge">
<title>Node25&#45;&gt;Node8</title>
<path fill="none" stroke="midnightblue" d="M608.28,-694.49C769.86,-666.07 1116,-602.21 1116,-576.5 1116,-576.5 1116,-576.5 1116,-289 1116,-151.93 926.75,-97.33 819.31,-77.37"/>
<polygon fill="midnightblue" stroke="midnightblue" points="819.64,-73.88 809.18,-75.55 818.4,-80.77 819.64,-73.88"/>
</g>
<!-- Node26 -->
<g id="node26" class="node">
<title>Node26</title>
<g id="a_node26"><a xlink:href="../../d2/d3c/Arduino-Hardware-Types_8hpp.html" target="_top" xlink:title=" ">
<polygon fill="white" stroke="black" points="528,-627.5 528,-657.5 650,-657.5 650,-627.5 528,-627.5"/>
<text text-anchor="start" x="536" y="-645.5" font-family="Helvetica,sans-Serif" font-size="10.00">AH/Hardware/Arduino</text>
<text text-anchor="middle" x="589" y="-634.5" font-family="Helvetica,sans-Serif" font-size="10.00">&#45;Hardware&#45;Types.hpp</text>
</a>
</g>
</g>
<!-- Node25&#45;&gt;Node26 -->
<g id="edge46" class="edge">
<title>Node25&#45;&gt;Node26</title>
<path fill="none" stroke="midnightblue" d="M540.45,-694.4C548.66,-685.79 559.31,-674.63 568.55,-664.94"/>
<polygon fill="midnightblue" stroke="midnightblue" points="571.2,-667.23 575.57,-657.58 566.14,-662.4 571.2,-667.23"/>
</g>
<!-- Node30 -->
<g id="node30" class="node">
<title>Node30</title>
<g id="a_node30"><a xlink:title=" ">
<polygon fill="white" stroke="#bfbfbf" points="422.5,-633 422.5,-652 509.5,-652 509.5,-633 422.5,-633"/>
<text text-anchor="middle" x="466" y="-640" font-family="Helvetica,sans-Serif" font-size="10.00">AH/STL/climits</text>
</a>
</g>
</g>
<!-- Node25&#45;&gt;Node30 -->
<g id="edge55" class="edge">
<title>Node25&#45;&gt;Node30</title>
<path fill="none" stroke="midnightblue" d="M513.76,-694.4C504.16,-684.16 491.15,-670.3 481.13,-659.62"/>
<polygon fill="midnightblue" stroke="midnightblue" points="483.55,-657.09 474.16,-652.19 478.45,-661.88 483.55,-657.09"/>
</g>
<!-- Node26&#45;&gt;Node2 -->
<g id="edge47" class="edge">
<title>Node26&#45;&gt;Node2</title>
<path fill="none" stroke="midnightblue" d="M650.29,-637.16C773.6,-626.75 1040,-595 1040,-515 1040,-515 1040,-515 1040,-121 1040,-48.54 811.21,-23.35 684.72,-14.96"/>
<polygon fill="midnightblue" stroke="midnightblue" points="684.88,-11.46 674.67,-14.31 684.43,-18.45 684.88,-11.46"/>
</g>
<!-- Node26&#45;&gt;Node3 -->
<g id="edge48" class="edge">
<title>Node26&#45;&gt;Node3</title>
<path fill="none" stroke="midnightblue" d="M557.32,-627.4C535.8,-617.81 507.13,-605.05 483.88,-594.7"/>
<polygon fill="midnightblue" stroke="midnightblue" points="485.18,-591.45 474.62,-590.58 482.33,-597.84 485.18,-591.45"/>
</g>
<!-- Node26&#45;&gt;Node9 -->
<g id="edge54" class="edge">
<title>Node26&#45;&gt;Node9</title>
<path fill="none" stroke="midnightblue" d="M527.93,-628.28C384.47,-597.12 38,-521.23 38,-515 38,-515 38,-515 38,-289 38,-236.42 193.34,-203.86 288.56,-188.85"/>
<polygon fill="midnightblue" stroke="midnightblue" points="289.38,-192.26 298.72,-187.28 288.3,-185.35 289.38,-192.26"/>
</g>
<!-- Node27 -->
<g id="node27" class="node">
<title>Node27</title>
<g id="a_node27"><a xlink:href="../../d0/db1/FunctionTraits_8hpp.html" target="_top" xlink:title=" ">
<polygon fill="white" stroke="black" points="1068.5,-112.5 1068.5,-131.5 1221.5,-131.5 1221.5,-112.5 1068.5,-112.5"/>
<text text-anchor="middle" x="1145" y="-119.5" font-family="Helvetica,sans-Serif" font-size="10.00">AH/Types/FunctionTraits.hpp</text>
</a>
</g>
</g>
<!-- Node26&#45;&gt;Node27 -->
<g id="edge49" class="edge">
<title>Node26&#45;&gt;Node27</title>
<path fill="none" stroke="midnightblue" d="M650.41,-638.54C769.61,-632.26 1023.38,-616.09 1054,-591 1081.4,-568.55 1078,-550.42 1078,-515 1078,-515 1078,-515 1078,-289 1078,-230.92 1113.7,-169.18 1132.98,-140.07"/>
<polygon fill="midnightblue" stroke="midnightblue" points="1136.08,-141.74 1138.82,-131.5 1130.3,-137.8 1136.08,-141.74"/>
</g>
<!-- Node27&#45;&gt;Node2 -->
<g id="edge52" class="edge">
<title>Node27&#45;&gt;Node2</title>
<path fill="none" stroke="midnightblue" d="M1136.38,-112.4C1121.23,-97.88 1088.16,-68.85 1054,-56 988.47,-31.35 796.14,-19.22 684.94,-14.12"/>
<polygon fill="midnightblue" stroke="midnightblue" points="684.92,-10.62 674.77,-13.67 684.6,-17.61 684.92,-10.62"/>
</g>
<!-- Node27&#45;&gt;Node8 -->
<g id="edge53" class="edge">
<title>Node27&#45;&gt;Node8</title>
<path fill="none" stroke="midnightblue" d="M1081.94,-112.44C1010.76,-102.79 895.14,-87.1 820.08,-76.92"/>
<polygon fill="midnightblue" stroke="midnightblue" points="820.15,-73.39 809.77,-75.52 819.21,-80.33 820.15,-73.39"/>
</g>
<!-- Node28 -->
<g id="node28" class="node">
<title>Node28</title>
<g id="a_node28"><a xlink:title=" ">
<polygon fill="white" stroke="#bfbfbf" points="1204,-56.5 1204,-75.5 1294,-75.5 1294,-56.5 1204,-56.5"/>
<text text-anchor="middle" x="1249" y="-63.5" font-family="Helvetica,sans-Serif" font-size="10.00">AH/STL/cstddef</text>
</a>
</g>
</g>
<!-- Node27&#45;&gt;Node28 -->
<g id="edge50" class="edge">
<title>Node27&#45;&gt;Node28</title>
<path fill="none" stroke="midnightblue" d="M1161.71,-112.32C1178.31,-103.7 1204,-90.36 1223.22,-80.39"/>
<polygon fill="midnightblue" stroke="midnightblue" points="1225.07,-83.37 1232.33,-75.65 1221.84,-77.16 1225.07,-83.37"/>
</g>
<!-- Node29 -->
<g id="node29" class="node">
<title>Node29</title>
<g id="a_node29"><a xlink:title=" ">
<polygon fill="white" stroke="#bfbfbf" points="1106.5,-56.5 1106.5,-75.5 1185.5,-75.5 1185.5,-56.5 1106.5,-56.5"/>
<text text-anchor="middle" x="1146" y="-63.5" font-family="Helvetica,sans-Serif" font-size="10.00">AH/STL/tuple</text>
</a>
</g>
</g>
<!-- Node27&#45;&gt;Node29 -->
<g id="edge51" class="edge">
<title>Node27&#45;&gt;Node29</title>
<path fill="none" stroke="midnightblue" d="M1145.17,-112.08C1145.3,-105.01 1145.48,-94.86 1145.65,-85.99"/>
<polygon fill="midnightblue" stroke="midnightblue" points="1149.15,-85.81 1145.84,-75.75 1142.15,-85.68 1149.15,-85.81"/>
</g>
</g>
</svg>
