<?xml version="1.0" encoding="UTF-8" standalone="no"?>
<!DOCTYPE svg PUBLIC "-//W3C//DTD SVG 1.1//EN"
 "http://www.w3.org/Graphics/SVG/1.1/DTD/svg11.dtd">
<!-- Generated by graphviz version 2.40.1 (20161225.0304)
 -->
<!-- Title: round_div_int&lt; N, T &gt; Pages: 1 -->
<svg width="120pt" height="160pt"
 viewBox="0.00 0.00 120.00 160.00" xmlns="http://www.w3.org/2000/svg" xmlns:xlink="http://www.w3.org/1999/xlink">
<g id="graph0" class="graph" transform="scale(1 1) rotate(0) translate(4 156)">
<title>round_div_int&lt; N, T &gt;</title>
<polygon fill="#ffffff" stroke="transparent" points="-4,4 -4,-156 116,-156 116,4 -4,4"/>
<!-- Node1 -->
<g id="node1" class="node">
<title>Node1</title>
<g id="a_node1"><a xlink:title="Select the right rounding division operator, depending on whether T is a signed or unsigned integer.">
<polygon fill="#bfbfbf" stroke="#000000" points="0,-.5 0,-57.5 112,-57.5 112,-.5 0,-.5"/>
<text text-anchor="middle" x="56" y="-45.5" font-family="Helvetica,sans-Serif" font-size="10.00" fill="#000000">round_div_int&lt; N, T &gt;</text>
<polyline fill="none" stroke="#000000" points="0,-38.5 112,-38.5 "/>
<text text-anchor="middle" x="56" y="-26.5" font-family="Helvetica,sans-Serif" font-size="10.00" fill="#000000"> </text>
<polyline fill="none" stroke="#000000" points="0,-19.5 112,-19.5 "/>
<text text-anchor="middle" x="56" y="-7.5" font-family="Helvetica,sans-Serif" font-size="10.00" fill="#000000"> </text>
</a>
</g>
</g>
<!-- Node2 -->
<g id="node2" class="node">
<title>Node2</title>
<g id="a_node2"><a xlink:title=" ">
<polygon fill="#ffffff" stroke="#bfbfbf" points="38.5,-94.5 38.5,-151.5 73.5,-151.5 73.5,-94.5 38.5,-94.5"/>
<text text-anchor="middle" x="56" y="-139.5" font-family="Helvetica,sans-Serif" font-size="10.00" fill="#000000">type</text>
<polyline fill="none" stroke="#bfbfbf" points="38.5,-132.5 73.5,-132.5 "/>
<text text-anchor="middle" x="56" y="-120.5" font-family="Helvetica,sans-Serif" font-size="10.00" fill="#000000"> </text>
<polyline fill="none" stroke="#bfbfbf" points="38.5,-113.5 73.5,-113.5 "/>
<text text-anchor="middle" x="56" y="-101.5" font-family="Helvetica,sans-Serif" font-size="10.00" fill="#000000"> </text>
</a>
</g>
</g>
<!-- Node2&#45;&gt;Node1 -->
<g id="edge1" class="edge">
<title>Node2&#45;&gt;Node1</title>
<path fill="none" stroke="#191970" d="M56,-84.1035C56,-75.2052 56,-65.9073 56,-57.538"/>
<polygon fill="none" stroke="#191970" points="52.5001,-84.2861 56,-94.2861 59.5001,-84.2862 52.5001,-84.2861"/>
</g>
</g>
</svg>
