<?xml version="1.0" encoding="UTF-8" standalone="no"?>
<!DOCTYPE svg PUBLIC "-//W3C//DTD SVG 1.1//EN"
 "http://www.w3.org/Graphics/SVG/1.1/DTD/svg11.dtd">
<!-- Generated by graphviz version 2.40.1 (20161225.0304)
 -->
<!-- Title: Arduino Helpers Pages: 1 -->
<svg width="245pt" height="397pt"
 viewBox="0.00 0.00 245.00 397.00" xmlns="http://www.w3.org/2000/svg" xmlns:xlink="http://www.w3.org/1999/xlink">
<g id="graph0" class="graph" transform="scale(1 1) rotate(0) translate(4 393)">
<title>Arduino Helpers</title>
<polygon fill="#ffffff" stroke="transparent" points="-4,4 -4,-393 241,-393 241,4 -4,4"/>
<!-- Node12 -->
<g id="node1" class="node">
<title>Node12</title>
<g id="a_node1"><a xlink:href="../../d1/df1/group__AH__Timing.html" target="_top" xlink:title="Blink Without Delay&#45;style timers.">
<polygon fill="#ffffff" stroke="#000000" points="202.5,-389 156.5,-389 156.5,-370 202.5,-370 202.5,-389"/>
<text text-anchor="middle" x="179.5" y="-377" font-family="Helvetica,sans-Serif" font-size="10.00" fill="#000000">Timing</text>
</a>
</g>
</g>
<!-- Node6 -->
<g id="node2" class="node">
<title>Node6</title>
<g id="a_node2"><a xlink:href="../../db/dd3/group__AH__ExtIO.html" target="_top" xlink:title="All Elements that extend the number of IO pins of the Arduino: Currently only shift registers and mul...">
<polygon fill="#ffffff" stroke="#000000" points="237,-352 122,-352 122,-333 237,-333 237,-352"/>
<text text-anchor="middle" x="179.5" y="-340" font-family="Helvetica,sans-Serif" font-size="10.00" fill="#000000">Extended Input/Output</text>
</a>
</g>
</g>
<!-- Node8 -->
<g id="node3" class="node">
<title>Node8</title>
<g id="a_node3"><a xlink:href="../../dd/d5e/group__AH__Math.html" target="_top" xlink:title="Mathematics helper functions. Min/max functions, functions to uniformly increase the effective bid de...">
<polygon fill="#ffffff" stroke="#000000" points="216.5,-315 142.5,-315 142.5,-296 216.5,-296 216.5,-315"/>
<text text-anchor="middle" x="179.5" y="-303" font-family="Helvetica,sans-Serif" font-size="10.00" fill="#000000">Math Utilities</text>
</a>
</g>
</g>
<!-- Node3 -->
<g id="node4" class="node">
<title>Node3</title>
<g id="a_node4"><a xlink:href="../../d4/da5/group__AH__Debug.html" target="_top" xlink:title="Macros for printing debug information that can be easily enabled or disabled.">
<polygon fill="#ffffff" stroke="#000000" points="202,-278 157,-278 157,-259 202,-259 202,-278"/>
<text text-anchor="middle" x="179.5" y="-266" font-family="Helvetica,sans-Serif" font-size="10.00" fill="#000000">Debug</text>
</a>
</g>
</g>
<!-- Node9 -->
<g id="node5" class="node">
<title>Node9</title>
<g id="a_node5"><a xlink:href="../../d5/d99/group__math-types.html" target="_top" xlink:title="Vector and Quaternion types with the necessary operators and functions.">
<polygon fill="#ffffff" stroke="#000000" points="213.5,-241 145.5,-241 145.5,-222 213.5,-222 213.5,-241"/>
<text text-anchor="middle" x="179.5" y="-229" font-family="Helvetica,sans-Serif" font-size="10.00" fill="#000000">Math Types</text>
</a>
</g>
</g>
<!-- Node2 -->
<g id="node6" class="node">
<title>Node2</title>
<g id="a_node6"><a xlink:href="../../da/de8/group__AH__Containers.html" target="_top" xlink:title="Containers like Array, BitArray, DoublyLinkedList and UniquePtr.">
<polygon fill="#ffffff" stroke="#000000" points="211.5,-204 147.5,-204 147.5,-185 211.5,-185 211.5,-204"/>
<text text-anchor="middle" x="179.5" y="-192" font-family="Helvetica,sans-Serif" font-size="10.00" fill="#000000">Containers</text>
</a>
</g>
</g>
<!-- Node10 -->
<g id="node7" class="node">
<title>Node10</title>
<g id="a_node7"><a xlink:href="../../d8/d4b/group__AH__PrintStream.html" target="_top" xlink:title="Functions for printing to Streams using the streaming operator &lt;&lt;.">
<polygon fill="#ffffff" stroke="#000000" points="213.5,-167 145.5,-167 145.5,-148 213.5,-148 213.5,-167"/>
<text text-anchor="middle" x="179.5" y="-155" font-family="Helvetica,sans-Serif" font-size="10.00" fill="#000000">PrintStream</text>
</a>
</g>
</g>
<!-- Node7 -->
<g id="node8" class="node">
<title>Node7</title>
<g id="a_node8"><a xlink:href="../../d8/d53/group__AH__HardwareUtils.html" target="_top" xlink:title="Classes used for debouncing buttons, incrementing/decrementing push buttons, scanning switch matrices...">
<polygon fill="#ffffff" stroke="#000000" points="227,-130 132,-130 132,-111 227,-111 227,-130"/>
<text text-anchor="middle" x="179.5" y="-118" font-family="Helvetica,sans-Serif" font-size="10.00" fill="#000000">Hardware Utilities</text>
</a>
</g>
</g>
<!-- Node1 -->
<g id="node9" class="node">
<title>Node1</title>
<g id="a_node9"><a xlink:title="Common utility library: https://github.com/tttapa/Arduino&#45;Helpers">
<polygon fill="#bfbfbf" stroke="#000000" points="86,-204 0,-204 0,-185 86,-185 86,-204"/>
<text text-anchor="middle" x="43" y="-192" font-family="Helvetica,sans-Serif" font-size="10.00" fill="#000000">Arduino Helpers</text>
</a>
</g>
</g>
<!-- Node1&#45;&gt;Node12 -->
<g id="edge11" class="edge">
<title>Node1&#45;&gt;Node12</title>
<path fill="none" stroke="#000000" d="M46.8299,-213.8831C54.6927,-248.5794 75.9358,-321.4106 122,-361.5 131.5476,-369.8092 144.9155,-374.2849 156.3593,-376.6946"/>
<polygon fill="#000000" stroke="#000000" points="50.2413,-213.0982 44.7328,-204.048 43.3952,-214.558 50.2413,-213.0982"/>
</g>
<!-- Node1&#45;&gt;Node6 -->
<g id="edge5" class="edge">
<title>Node1&#45;&gt;Node6</title>
<path fill="none" stroke="#000000" d="M49.6954,-213.9015C60.4803,-242.3152 84.3787,-295.0564 122,-324.5 126.3659,-327.9169 131.3886,-330.6904 136.609,-332.9406"/>
<polygon fill="#000000" stroke="#000000" points="52.911,-212.5028 46.2027,-204.3022 46.3329,-214.8962 52.911,-212.5028"/>
</g>
<!-- Node1&#45;&gt;Node8 -->
<g id="edge7" class="edge">
<title>Node1&#45;&gt;Node8</title>
<path fill="none" stroke="#000000" d="M54.012,-212.8581C67.5088,-233.8422 92.2863,-267.8196 122,-287.5 128.1046,-291.5433 135.17,-294.7213 142.2142,-297.2048"/>
<polygon fill="#000000" stroke="#000000" points="56.8907,-210.8599 48.6274,-204.229 50.9521,-214.5657 56.8907,-210.8599"/>
</g>
<!-- Node1&#45;&gt;Node3 -->
<g id="edge2" class="edge">
<title>Node1&#45;&gt;Node3</title>
<path fill="none" stroke="#000000" d="M62.2138,-210.7356C77.5735,-223.0459 100.089,-239.6438 122,-250.5 132.9663,-255.9335 145.9192,-260.1602 156.7522,-263.1483"/>
<polygon fill="#000000" stroke="#000000" points="64.0112,-207.6838 54.0558,-204.0587 59.5776,-213.1008 64.0112,-207.6838"/>
</g>
<!-- Node1&#45;&gt;Node9 -->
<g id="edge8" class="edge">
<title>Node1&#45;&gt;Node9</title>
<path fill="none" stroke="#000000" d="M87.9453,-206.683C106.6576,-211.7552 128.0259,-217.5473 145.4101,-222.2595"/>
<polygon fill="#000000" stroke="#000000" points="88.7196,-203.2666 78.1521,-204.0284 86.8882,-210.0228 88.7196,-203.2666"/>
</g>
<!-- Node1&#45;&gt;Node2 -->
<g id="edge1" class="edge">
<title>Node1&#45;&gt;Node2</title>
<path fill="none" stroke="#000000" d="M96.6683,-194.5C113.8322,-194.5 132.2868,-194.5 147.4106,-194.5"/>
<polygon fill="#000000" stroke="#000000" points="96.1895,-191.0001 86.1895,-194.5 96.1894,-198.0001 96.1895,-191.0001"/>
</g>
<!-- Node1&#45;&gt;Node10 -->
<g id="edge9" class="edge">
<title>Node1&#45;&gt;Node10</title>
<path fill="none" stroke="#000000" d="M87.9453,-182.317C106.6576,-177.2448 128.0259,-171.4527 145.4101,-166.7405"/>
<polygon fill="#000000" stroke="#000000" points="86.8882,-178.9772 78.1521,-184.9716 88.7196,-185.7334 86.8882,-178.9772"/>
</g>
<!-- Node1&#45;&gt;Node7 -->
<g id="edge6" class="edge">
<title>Node1&#45;&gt;Node7</title>
<path fill="none" stroke="#000000" d="M62.5751,-178.4633C77.9789,-166.4572 100.3834,-150.3085 122,-139.5 129.2407,-135.8796 137.3277,-132.7181 145.0968,-130.0671"/>
<polygon fill="#000000" stroke="#000000" points="60.0242,-176.0199 54.3733,-184.982 64.3796,-181.4999 60.0242,-176.0199"/>
</g>
<!-- Node5 -->
<g id="node10" class="node">
<title>Node5</title>
<g id="a_node10"><a xlink:href="../../dc/def/group__AH__Filters.html" target="_top" xlink:title="Classes for basic filtering and hysteresis.">
<polygon fill="#ffffff" stroke="#000000" points="201.5,-93 157.5,-93 157.5,-74 201.5,-74 201.5,-93"/>
<text text-anchor="middle" x="179.5" y="-81" font-family="Helvetica,sans-Serif" font-size="10.00" fill="#000000">Filters</text>
</a>
</g>
</g>
<!-- Node1&#45;&gt;Node5 -->
<g id="edge4" class="edge">
<title>Node1&#45;&gt;Node5</title>
<path fill="none" stroke="#000000" d="M54.1134,-176.4249C67.7059,-155.7472 92.5738,-122.2113 122,-102.5 132.6566,-95.3616 146.215,-90.7119 157.4893,-87.8"/>
<polygon fill="#000000" stroke="#000000" points="51.1178,-174.6129 48.6857,-184.9248 57.0176,-178.3802 51.1178,-174.6129"/>
</g>
<!-- Node11 -->
<g id="node11" class="node">
<title>Node11</title>
<g id="a_node11"><a xlink:href="../../d4/dc6/group__AH__Settings.html" target="_top" xlink:title="User settings and debugging options.">
<polygon fill="#ffffff" stroke="#000000" points="206,-56 153,-56 153,-37 206,-37 206,-56"/>
<text text-anchor="middle" x="179.5" y="-44" font-family="Helvetica,sans-Serif" font-size="10.00" fill="#000000">Settings</text>
</a>
</g>
</g>
<!-- Node1&#45;&gt;Node11 -->
<g id="edge10" class="edge">
<title>Node1&#45;&gt;Node11</title>
<path fill="none" stroke="#000000" d="M49.7967,-175.3229C60.7105,-147.2236 84.771,-95.0083 122,-65.5 130.8984,-58.447 142.5225,-53.9633 152.9889,-51.1365"/>
<polygon fill="#000000" stroke="#000000" points="46.4721,-174.2212 46.2575,-184.8139 53.031,-176.667 46.4721,-174.2212"/>
</g>
<!-- Node4 -->
<g id="node12" class="node">
<title>Node4</title>
<g id="a_node12"><a xlink:href="../../d0/df7/group__AH__Error.html" target="_top" xlink:title="Macros for handling and reporting both fatal and non&#45;fatal errors.">
<polygon fill="#ffffff" stroke="#000000" points="198.5,-19 160.5,-19 160.5,0 198.5,0 198.5,-19"/>
<text text-anchor="middle" x="179.5" y="-7" font-family="Helvetica,sans-Serif" font-size="10.00" fill="#000000">Error</text>
</a>
</g>
</g>
<!-- Node1&#45;&gt;Node4 -->
<g id="edge3" class="edge">
<title>Node1&#45;&gt;Node4</title>
<path fill="none" stroke="#000000" d="M47.0422,-174.8108C55.1502,-140.2405 76.646,-68.5098 122,-28.5 132.6436,-19.1106 148.0518,-14.3403 160.2395,-11.9286"/>
<polygon fill="#000000" stroke="#000000" points="43.6101,-174.1218 44.8669,-184.6418 50.4448,-175.6342 43.6101,-174.1218"/>
</g>
</g>
</svg>
