<?xml version="1.0" encoding="UTF-8" standalone="no"?>
<!DOCTYPE svg PUBLIC "-//W3C//DTD SVG 1.1//EN"
 "http://www.w3.org/Graphics/SVG/1.1/DTD/svg11.dtd">
<!-- Generated by graphviz version 2.38.0 (20140413.2041)
 -->
<!-- Title: SMA.hpp Pages: 1 -->
<svg width="1146pt" height="420pt"
 viewBox="0.00 0.00 1145.50 420.00" xmlns="http://www.w3.org/2000/svg" xmlns:xlink="http://www.w3.org/1999/xlink">
<g id="graph0" class="graph" transform="scale(1 1) rotate(0) translate(4 416)">
<title>SMA.hpp</title>
<polygon fill="white" stroke="none" points="-4,4 -4,-416 1141.5,-416 1141.5,4 -4,4"/>
<!-- Node1 -->
<g id="node1" class="node"><title>Node1</title>
<g id="a_node1"><a xlink:title=" ">
<polygon fill="#bfbfbf" stroke="black" points="947.5,-392.5 947.5,-411.5 1004.5,-411.5 1004.5,-392.5 947.5,-392.5"/>
<text text-anchor="middle" x="976" y="-399.5" font-family="Helvetica,sans-Serif" font-size="10.00">SMA.hpp</text>
</a>
</g>
</g>
<!-- Node2 -->
<g id="node2" class="node"><title>Node2</title>
<g id="a_node2"><a xlink:href="../../de/d76/Array_8hpp.html" target="_top" xlink:title=" ">
<polygon fill="white" stroke="black" points="688,-336.5 688,-355.5 814,-355.5 814,-336.5 688,-336.5"/>
<text text-anchor="middle" x="751" y="-343.5" font-family="Helvetica,sans-Serif" font-size="10.00">AH/Containers/Array.hpp</text>
</a>
</g>
</g>
<!-- Node1&#45;&gt;Node2 -->
<g id="edge1" class="edge"><title>Node1&#45;&gt;Node2</title>
<path fill="none" stroke="midnightblue" d="M947.046,-394.051C908.867,-384.888 841.278,-368.667 796.304,-357.873"/>
<polygon fill="midnightblue" stroke="midnightblue" points="797.051,-354.453 786.51,-355.522 795.417,-361.26 797.051,-354.453"/>
</g>
<!-- Node19 -->
<g id="node19" class="node"><title>Node19</title>
<g id="a_node19"><a xlink:title=" ">
<polygon fill="white" stroke="#bfbfbf" points="846.5,-280.5 846.5,-299.5 947.5,-299.5 947.5,-280.5 846.5,-280.5"/>
<text text-anchor="middle" x="897" y="-287.5" font-family="Helvetica,sans-Serif" font-size="10.00">AH/STL/type_traits</text>
</a>
</g>
</g>
<!-- Node1&#45;&gt;Node19 -->
<g id="edge36" class="edge"><title>Node1&#45;&gt;Node19</title>
<path fill="none" stroke="midnightblue" d="M969.801,-392.368C956.764,-374.215 926.303,-331.802 909.202,-307.99"/>
<polygon fill="midnightblue" stroke="midnightblue" points="911.846,-305.672 903.17,-299.591 906.161,-309.755 911.846,-305.672"/>
</g>
<!-- Node20 -->
<g id="node20" class="node"><title>Node20</title>
<g id="a_node20"><a xlink:href="../../dc/d30/Divide_8hpp.html" target="_top" xlink:title=" ">
<polygon fill="white" stroke="black" points="867.5,-112.5 867.5,-131.5 972.5,-131.5 972.5,-112.5 867.5,-112.5"/>
<text text-anchor="middle" x="920" y="-119.5" font-family="Helvetica,sans-Serif" font-size="10.00">AH/Math/Divide.hpp</text>
</a>
</g>
</g>
<!-- Node1&#45;&gt;Node20 -->
<g id="edge29" class="edge"><title>Node1&#45;&gt;Node20</title>
<path fill="none" stroke="midnightblue" d="M976,-392.442C976,-373.936 976,-328.812 976,-291 976,-291 976,-291 976,-233 976,-196.436 951.123,-159.747 934.531,-139.342"/>
<polygon fill="midnightblue" stroke="midnightblue" points="937.151,-137.021 928.023,-131.642 931.805,-141.539 937.151,-137.021"/>
</g>
<!-- Node21 -->
<g id="node21" class="node"><title>Node21</title>
<g id="a_node21"><a xlink:title=" ">
<polygon fill="white" stroke="#bfbfbf" points="960,-56.5 960,-75.5 1044,-75.5 1044,-56.5 960,-56.5"/>
<text text-anchor="middle" x="1002" y="-63.5" font-family="Helvetica,sans-Serif" font-size="10.00">AH/STL/cstdint</text>
</a>
</g>
</g>
<!-- Node1&#45;&gt;Node21 -->
<g id="edge35" class="edge"><title>Node1&#45;&gt;Node21</title>
<path fill="none" stroke="midnightblue" d="M981.284,-392.231C991.725,-374.043 1014,-330.601 1014,-291 1014,-291 1014,-291 1014,-177 1014,-144.758 1008.84,-107.512 1005.29,-85.6812"/>
<polygon fill="midnightblue" stroke="midnightblue" points="1008.69,-84.7982 1003.57,-75.5232 1001.79,-85.9673 1008.69,-84.7982"/>
</g>
<!-- Node22 -->
<g id="node22" class="node"><title>Node22</title>
<g id="a_node22"><a xlink:title=" ">
<polygon fill="white" stroke="#bfbfbf" points="1042.5,-336.5 1042.5,-355.5 1137.5,-355.5 1137.5,-336.5 1042.5,-336.5"/>
<text text-anchor="middle" x="1090" y="-343.5" font-family="Helvetica,sans-Serif" font-size="10.00">AH/STL/algorithm</text>
</a>
</g>
</g>
<!-- Node1&#45;&gt;Node22 -->
<g id="edge34" class="edge"><title>Node1&#45;&gt;Node22</title>
<path fill="none" stroke="midnightblue" d="M994.064,-392.444C1012.57,-383.675 1041.58,-369.935 1062.86,-359.858"/>
<polygon fill="midnightblue" stroke="midnightblue" points="1064.48,-362.96 1072.02,-355.516 1061.49,-356.634 1064.48,-362.96"/>
</g>
<!-- Node3 -->
<g id="node3" class="node"><title>Node3</title>
<g id="a_node3"><a xlink:href="../../d1/d65/Warnings_8hpp.html" target="_top" xlink:title=" ">
<polygon fill="white" stroke="black" points="140.5,-0.5 140.5,-19.5 273.5,-19.5 273.5,-0.5 140.5,-0.5"/>
<text text-anchor="middle" x="207" y="-7.5" font-family="Helvetica,sans-Serif" font-size="10.00">AH/Settings/Warnings.hpp</text>
</a>
</g>
</g>
<!-- Node2&#45;&gt;Node3 -->
<g id="edge2" class="edge"><title>Node2&#45;&gt;Node3</title>
<path fill="none" stroke="midnightblue" d="M687.94,-342.368C507.164,-333.988 0,-304.304 0,-235 0,-235 0,-235 0,-121 0,-59.8312 71.3568,-32.5711 130.279,-20.4883"/>
<polygon fill="midnightblue" stroke="midnightblue" points="131.21,-23.8733 140.364,-18.54 129.882,-17.0004 131.21,-23.8733"/>
</g>
<!-- Node4 -->
<g id="node4" class="node"><title>Node4</title>
<g id="a_node4"><a xlink:href="../../d1/d93/Error_8hpp.html" target="_top" xlink:title=" ">
<polygon fill="white" stroke="black" points="345,-280.5 345,-299.5 443,-299.5 443,-280.5 345,-280.5"/>
<text text-anchor="middle" x="394" y="-287.5" font-family="Helvetica,sans-Serif" font-size="10.00">AH/Error/Error.hpp</text>
</a>
</g>
</g>
<!-- Node2&#45;&gt;Node4 -->
<g id="edge3" class="edge"><title>Node2&#45;&gt;Node4</title>
<path fill="none" stroke="midnightblue" d="M694.432,-336.444C628.511,-326.472 520.091,-310.073 453.102,-299.94"/>
<polygon fill="midnightblue" stroke="midnightblue" points="453.536,-296.466 443.125,-298.431 452.489,-303.387 453.536,-296.466"/>
</g>
<!-- Node14 -->
<g id="node14" class="node"><title>Node14</title>
<g id="a_node14"><a xlink:title=" ">
<polygon fill="white" stroke="#bfbfbf" points="802,-56.5 802,-75.5 854,-75.5 854,-56.5 802,-56.5"/>
<text text-anchor="middle" x="828" y="-63.5" font-family="Helvetica,sans-Serif" font-size="10.00">stddef.h</text>
</a>
</g>
</g>
<!-- Node2&#45;&gt;Node14 -->
<g id="edge28" class="edge"><title>Node2&#45;&gt;Node14</title>
<path fill="none" stroke="midnightblue" d="M746.034,-336.232C739.609,-323.805 729.716,-300.316 734,-280 750.236,-202.997 796.146,-119.92 817.203,-84.5467"/>
<polygon fill="midnightblue" stroke="midnightblue" points="820.264,-86.2487 822.438,-75.8793 814.272,-82.6297 820.264,-86.2487"/>
</g>
<!-- Node18 -->
<g id="node18" class="node"><title>Node18</title>
<g id="a_node18"><a xlink:title=" ">
<polygon fill="white" stroke="#bfbfbf" points="743.5,-280.5 743.5,-299.5 828.5,-299.5 828.5,-280.5 743.5,-280.5"/>
<text text-anchor="middle" x="786" y="-287.5" font-family="Helvetica,sans-Serif" font-size="10.00">AH/STL/iterator</text>
</a>
</g>
</g>
<!-- Node2&#45;&gt;Node18 -->
<g id="edge26" class="edge"><title>Node2&#45;&gt;Node18</title>
<path fill="none" stroke="midnightblue" d="M756.78,-336.083C761.672,-328.534 768.827,-317.495 774.833,-308.23"/>
<polygon fill="midnightblue" stroke="midnightblue" points="777.826,-310.046 780.328,-299.751 771.952,-306.239 777.826,-310.046"/>
</g>
<!-- Node2&#45;&gt;Node19 -->
<g id="edge27" class="edge"><title>Node2&#45;&gt;Node19</title>
<path fill="none" stroke="midnightblue" d="M774.134,-336.444C798.482,-327.438 837.007,-313.189 864.423,-303.049"/>
<polygon fill="midnightblue" stroke="midnightblue" points="865.809,-306.268 873.974,-299.516 863.381,-299.703 865.809,-306.268"/>
</g>
<!-- Node4&#45;&gt;Node3 -->
<g id="edge4" class="edge"><title>Node4&#45;&gt;Node3</title>
<path fill="none" stroke="midnightblue" d="M344.873,-284.194C247.213,-273.275 38,-242.476 38,-179 38,-179 38,-179 38,-121 38,-64.9948 103.998,-36.0295 153.507,-22.1799"/>
<polygon fill="midnightblue" stroke="midnightblue" points="154.713,-25.4809 163.478,-19.5288 152.915,-18.716 154.713,-25.4809"/>
</g>
<!-- Node5 -->
<g id="node5" class="node"><title>Node5</title>
<g id="a_node5"><a xlink:href="../../df/dee/Debug_8hpp.html" target="_top" xlink:title=" ">
<polygon fill="white" stroke="black" points="337.5,-224.5 337.5,-243.5 450.5,-243.5 450.5,-224.5 337.5,-224.5"/>
<text text-anchor="middle" x="394" y="-231.5" font-family="Helvetica,sans-Serif" font-size="10.00">AH/Debug/Debug.hpp</text>
</a>
</g>
</g>
<!-- Node4&#45;&gt;Node5 -->
<g id="edge5" class="edge"><title>Node4&#45;&gt;Node5</title>
<path fill="none" stroke="midnightblue" d="M394,-280.083C394,-273.006 394,-262.861 394,-253.986"/>
<polygon fill="midnightblue" stroke="midnightblue" points="397.5,-253.751 394,-243.751 390.5,-253.751 397.5,-253.751"/>
</g>
<!-- Node5&#45;&gt;Node3 -->
<g id="edge6" class="edge"><title>Node5&#45;&gt;Node3</title>
<path fill="none" stroke="midnightblue" d="M345.497,-224.45C274.734,-209.017 145.974,-169.011 94,-76 78.6108,-48.4601 113.484,-31.6398 148.446,-22.0305"/>
<polygon fill="midnightblue" stroke="midnightblue" points="149.452,-25.3857 158.268,-19.5085 147.711,-18.6057 149.452,-25.3857"/>
</g>
<!-- Node6 -->
<g id="node6" class="node"><title>Node6</title>
<g id="a_node6"><a xlink:href="../../dd/d80/PrintStream_8hpp.html" target="_top" xlink:title=" ">
<polygon fill="white" stroke="black" points="103.5,-56.5 103.5,-75.5 262.5,-75.5 262.5,-56.5 103.5,-56.5"/>
<text text-anchor="middle" x="183" y="-63.5" font-family="Helvetica,sans-Serif" font-size="10.00">AH/PrintStream/PrintStream.hpp</text>
</a>
</g>
</g>
<!-- Node5&#45;&gt;Node6 -->
<g id="edge7" class="edge"><title>Node5&#45;&gt;Node6</title>
<path fill="none" stroke="midnightblue" d="M371.529,-224.351C352.372,-216.419 324.592,-203.558 303,-188 259.197,-156.437 216.867,-108.389 196.168,-83.3958"/>
<polygon fill="midnightblue" stroke="midnightblue" points="198.819,-81.1096 189.781,-75.5817 193.399,-85.5395 198.819,-81.1096"/>
</g>
<!-- Node8 -->
<g id="node8" class="node"><title>Node8</title>
<g id="a_node8"><a xlink:href="../../d2/dd5/SettingsWrapper_8hpp.html" target="_top" xlink:title=" ">
<polygon fill="white" stroke="black" points="312,-168.5 312,-187.5 476,-187.5 476,-168.5 312,-168.5"/>
<text text-anchor="middle" x="394" y="-175.5" font-family="Helvetica,sans-Serif" font-size="10.00">AH/Settings/SettingsWrapper.hpp</text>
</a>
</g>
</g>
<!-- Node5&#45;&gt;Node8 -->
<g id="edge10" class="edge"><title>Node5&#45;&gt;Node8</title>
<path fill="none" stroke="midnightblue" d="M388.834,-224.083C387.324,-216.927 386.894,-206.635 387.542,-197.691"/>
<polygon fill="midnightblue" stroke="midnightblue" points="391.015,-198.126 388.869,-187.751 384.077,-197.2 391.015,-198.126"/>
</g>
<!-- Node17 -->
<g id="node17" class="node"><title>Node17</title>
<g id="a_node17"><a xlink:href="../../d7/d52/DebugVal_8hpp.html" target="_top" xlink:title=" ">
<polygon fill="white" stroke="black" points="494,-168.5 494,-187.5 572,-187.5 572,-168.5 494,-168.5"/>
<text text-anchor="middle" x="533" y="-175.5" font-family="Helvetica,sans-Serif" font-size="10.00">DebugVal.hpp</text>
</a>
</g>
</g>
<!-- Node5&#45;&gt;Node17 -->
<g id="edge25" class="edge"><title>Node5&#45;&gt;Node17</title>
<path fill="none" stroke="midnightblue" d="M416.025,-224.444C439.104,-215.478 475.562,-201.314 501.641,-191.183"/>
<polygon fill="midnightblue" stroke="midnightblue" points="503.024,-194.4 511.078,-187.516 500.489,-187.875 503.024,-194.4"/>
</g>
<!-- Node6&#45;&gt;Node3 -->
<g id="edge8" class="edge"><title>Node6&#45;&gt;Node3</title>
<path fill="none" stroke="midnightblue" d="M186.963,-56.083C190.213,-48.77 194.919,-38.1814 198.954,-29.1034"/>
<polygon fill="midnightblue" stroke="midnightblue" points="202.248,-30.3107 203.111,-19.7511 195.851,-27.4677 202.248,-30.3107"/>
</g>
<!-- Node7 -->
<g id="node7" class="node"><title>Node7</title>
<g id="a_node7"><a xlink:title=" ">
<polygon fill="white" stroke="#bfbfbf" points="316,-0.5 316,-19.5 374,-19.5 374,-0.5 316,-0.5"/>
<text text-anchor="middle" x="345" y="-7.5" font-family="Helvetica,sans-Serif" font-size="10.00">Arduino.h</text>
</a>
</g>
</g>
<!-- Node6&#45;&gt;Node7 -->
<g id="edge9" class="edge"><title>Node6&#45;&gt;Node7</title>
<path fill="none" stroke="midnightblue" d="M208.669,-56.4435C235.923,-47.3591 279.184,-32.9388 309.651,-22.7831"/>
<polygon fill="midnightblue" stroke="midnightblue" points="311.071,-25.9992 319.451,-19.5164 308.857,-19.3584 311.071,-25.9992"/>
</g>
<!-- Node8&#45;&gt;Node3 -->
<g id="edge11" class="edge"><title>Node8&#45;&gt;Node3</title>
<path fill="none" stroke="midnightblue" d="M386.094,-168.292C367.188,-147.684 317.474,-94.7494 271,-56 257.652,-44.8709 241.66,-33.6258 229.001,-25.1605"/>
<polygon fill="midnightblue" stroke="midnightblue" points="230.734,-22.1104 220.458,-19.5291 226.881,-27.9549 230.734,-22.1104"/>
</g>
<!-- Node8&#45;&gt;Node5 -->
<g id="edge24" class="edge"><title>Node8&#45;&gt;Node5</title>
<path fill="none" stroke="midnightblue" d="M399.131,-187.751C400.657,-194.858 401.104,-205.136 400.472,-214.101"/>
<polygon fill="midnightblue" stroke="midnightblue" points="396.993,-213.713 399.166,-224.083 403.934,-214.622 396.993,-213.713"/>
</g>
<!-- Node9 -->
<g id="node9" class="node"><title>Node9</title>
<g id="a_node9"><a xlink:href="../../dc/dc7/NamespaceSettings_8hpp.html" target="_top" xlink:title=" ">
<polygon fill="white" stroke="black" points="524,-0.5 524,-19.5 648,-19.5 648,-0.5 524,-0.5"/>
<text text-anchor="middle" x="586" y="-7.5" font-family="Helvetica,sans-Serif" font-size="10.00">NamespaceSettings.hpp</text>
</a>
</g>
</g>
<!-- Node8&#45;&gt;Node9 -->
<g id="edge12" class="edge"><title>Node8&#45;&gt;Node9</title>
<path fill="none" stroke="midnightblue" d="M401.176,-168.383C418.808,-147.524 466.233,-93.2861 513,-56 527.897,-44.123 546.142,-32.8756 560.665,-24.5962"/>
<polygon fill="midnightblue" stroke="midnightblue" points="562.574,-27.5387 569.599,-19.6072 559.161,-21.4271 562.574,-27.5387"/>
</g>
<!-- Node10 -->
<g id="node10" class="node"><title>Node10</title>
<g id="a_node10"><a xlink:href="../../db/d02/Settings_8hpp.html" target="_top" xlink:title="All user settings and debugging options can be changed here.">
<polygon fill="white" stroke="black" points="522.5,-112.5 522.5,-131.5 593.5,-131.5 593.5,-112.5 522.5,-112.5"/>
<text text-anchor="middle" x="558" y="-119.5" font-family="Helvetica,sans-Serif" font-size="10.00">Settings.hpp</text>
</a>
</g>
</g>
<!-- Node8&#45;&gt;Node10 -->
<g id="edge13" class="edge"><title>Node8&#45;&gt;Node10</title>
<path fill="none" stroke="midnightblue" d="M419.986,-168.444C447.696,-159.32 491.752,-144.813 522.616,-134.651"/>
<polygon fill="midnightblue" stroke="midnightblue" points="523.732,-137.968 532.135,-131.516 521.542,-131.32 523.732,-137.968"/>
</g>
<!-- Node16 -->
<g id="node16" class="node"><title>Node16</title>
<g id="a_node16"><a xlink:href="../../d9/d98/TeensyUSBTypes_8hpp.html" target="_top" xlink:title=" ">
<polygon fill="white" stroke="black" points="612,-112.5 612,-131.5 780,-131.5 780,-112.5 612,-112.5"/>
<text text-anchor="middle" x="696" y="-119.5" font-family="Helvetica,sans-Serif" font-size="10.00">AH/Teensy/TeensyUSBTypes.hpp</text>
</a>
</g>
</g>
<!-- Node8&#45;&gt;Node16 -->
<g id="edge23" class="edge"><title>Node8&#45;&gt;Node16</title>
<path fill="none" stroke="midnightblue" d="M441.853,-168.444C495.199,-158.905 581.445,-143.483 638.436,-133.293"/>
<polygon fill="midnightblue" stroke="midnightblue" points="639.143,-136.722 648.371,-131.516 637.911,-129.831 639.143,-136.722"/>
</g>
<!-- Node11 -->
<g id="node11" class="node"><title>Node11</title>
<g id="a_node11"><a xlink:href="../../dc/d50/Frequency_8hpp.html" target="_top" xlink:title=" ">
<polygon fill="white" stroke="black" points="522,-56.5 522,-75.5 650,-75.5 650,-56.5 522,-56.5"/>
<text text-anchor="middle" x="586" y="-63.5" font-family="Helvetica,sans-Serif" font-size="10.00">AH/Types/Frequency.hpp</text>
</a>
</g>
</g>
<!-- Node10&#45;&gt;Node11 -->
<g id="edge14" class="edge"><title>Node10&#45;&gt;Node11</title>
<path fill="none" stroke="midnightblue" d="M562.624,-112.083C566.456,-104.691 572.024,-93.9533 576.765,-84.8111"/>
<polygon fill="midnightblue" stroke="midnightblue" points="579.966,-86.2398 581.462,-75.7511 573.752,-83.0175 579.966,-86.2398"/>
</g>
<!-- Node12 -->
<g id="node12" class="node"><title>Node12</title>
<g id="a_node12"><a xlink:href="../../d7/d7c/ADCConfig_8hpp.html" target="_top" xlink:title="This file contains the platform&#45;specific ADC resolutions. By default, the library automatically selec...">
<polygon fill="white" stroke="black" points="318,-56.5 318,-75.5 466,-75.5 466,-56.5 318,-56.5"/>
<text text-anchor="middle" x="392" y="-63.5" font-family="Helvetica,sans-Serif" font-size="10.00">AH/Hardware/ADCConfig.hpp</text>
</a>
</g>
</g>
<!-- Node10&#45;&gt;Node12 -->
<g id="edge17" class="edge"><title>Node10&#45;&gt;Node12</title>
<path fill="none" stroke="midnightblue" d="M531.697,-112.444C503.649,-103.32 459.056,-88.8133 427.816,-78.6509"/>
<polygon fill="midnightblue" stroke="midnightblue" points="428.772,-75.2816 418.18,-75.5164 426.607,-81.9383 428.772,-75.2816"/>
</g>
<!-- Node13 -->
<g id="node13" class="node"><title>Node13</title>
<g id="a_node13"><a xlink:title=" ">
<polygon fill="white" stroke="#bfbfbf" points="668,-56.5 668,-75.5 716,-75.5 716,-56.5 668,-56.5"/>
<text text-anchor="middle" x="692" y="-63.5" font-family="Helvetica,sans-Serif" font-size="10.00">limits.h</text>
</a>
</g>
</g>
<!-- Node10&#45;&gt;Node13 -->
<g id="edge20" class="edge"><title>Node10&#45;&gt;Node13</title>
<path fill="none" stroke="midnightblue" d="M579.233,-112.444C601.384,-103.517 636.319,-89.4387 661.436,-79.3168"/>
<polygon fill="midnightblue" stroke="midnightblue" points="662.9,-82.5006 670.867,-75.5164 660.283,-76.0079 662.9,-82.5006"/>
</g>
<!-- Node10&#45;&gt;Node14 -->
<g id="edge21" class="edge"><title>Node10&#45;&gt;Node14</title>
<path fill="none" stroke="midnightblue" d="M593.856,-113.798C596.948,-113.186 600.029,-112.58 603,-112 683.893,-96.2069 706.848,-94.4863 791.865,-75.92"/>
<polygon fill="midnightblue" stroke="midnightblue" points="792.679,-79.3248 801.695,-73.7594 791.176,-72.488 792.679,-79.3248"/>
</g>
<!-- Node15 -->
<g id="node15" class="node"><title>Node15</title>
<g id="a_node15"><a xlink:title=" ">
<polygon fill="white" stroke="#bfbfbf" points="734.5,-56.5 734.5,-75.5 783.5,-75.5 783.5,-56.5 734.5,-56.5"/>
<text text-anchor="middle" x="759" y="-63.5" font-family="Helvetica,sans-Serif" font-size="10.00">stdint.h</text>
</a>
</g>
</g>
<!-- Node10&#45;&gt;Node15 -->
<g id="edge22" class="edge"><title>Node10&#45;&gt;Node15</title>
<path fill="none" stroke="midnightblue" d="M589.849,-112.444C626.477,-102.603 686.411,-86.5016 724.228,-76.3418"/>
<polygon fill="midnightblue" stroke="midnightblue" points="725.521,-79.6186 734.27,-73.6439 723.704,-72.8584 725.521,-79.6186"/>
</g>
<!-- Node11&#45;&gt;Node3 -->
<g id="edge15" class="edge"><title>Node11&#45;&gt;Node3</title>
<path fill="none" stroke="midnightblue" d="M525.946,-56.4435C458.306,-46.8061 348.518,-31.1635 277.032,-20.9782"/>
<polygon fill="midnightblue" stroke="midnightblue" points="277.166,-17.4621 266.773,-19.5164 276.179,-24.3921 277.166,-17.4621"/>
</g>
<!-- Node11&#45;&gt;Node9 -->
<g id="edge16" class="edge"><title>Node11&#45;&gt;Node9</title>
<path fill="none" stroke="midnightblue" d="M586,-56.083C586,-49.0059 586,-38.8611 586,-29.9865"/>
<polygon fill="midnightblue" stroke="midnightblue" points="589.5,-29.751 586,-19.7511 582.5,-29.7511 589.5,-29.751"/>
</g>
<!-- Node12&#45;&gt;Node3 -->
<g id="edge18" class="edge"><title>Node12&#45;&gt;Node3</title>
<path fill="none" stroke="midnightblue" d="M362.686,-56.4435C331.158,-47.2406 280.869,-32.5617 246.014,-22.3879"/>
<polygon fill="midnightblue" stroke="midnightblue" points="246.757,-18.9587 236.177,-19.5164 244.795,-25.6783 246.757,-18.9587"/>
</g>
<!-- Node12&#45;&gt;Node7 -->
<g id="edge19" class="edge"><title>Node12&#45;&gt;Node7</title>
<path fill="none" stroke="midnightblue" d="M384.239,-56.083C377.463,-48.2982 367.457,-36.8015 359.245,-27.3665"/>
<polygon fill="midnightblue" stroke="midnightblue" points="361.822,-24.9963 352.617,-19.7511 356.542,-29.592 361.822,-24.9963"/>
</g>
<!-- Node20&#45;&gt;Node3 -->
<g id="edge32" class="edge"><title>Node20&#45;&gt;Node3</title>
<path fill="none" stroke="midnightblue" d="M915.429,-112.317C907.187,-97.6799 888.312,-68.4705 863,-56 751.934,-1.28064 430.445,-29.55 307,-20 299.508,-19.4204 291.703,-18.7808 283.904,-18.1178"/>
<polygon fill="midnightblue" stroke="midnightblue" points="283.945,-14.6084 273.681,-17.2359 283.343,-21.5825 283.945,-14.6084"/>
</g>
<!-- Node20&#45;&gt;Node9 -->
<g id="edge31" class="edge"><title>Node20&#45;&gt;Node9</title>
<path fill="none" stroke="midnightblue" d="M919.498,-112.236C918.179,-98.013 913.389,-70.0799 896,-56 860.484,-27.2426 737.995,-16.849 658.035,-13.1018"/>
<polygon fill="midnightblue" stroke="midnightblue" points="658.164,-9.60418 648.019,-12.6565 657.853,-16.5973 658.164,-9.60418"/>
</g>
<!-- Node20&#45;&gt;Node14 -->
<g id="edge33" class="edge"><title>Node20&#45;&gt;Node14</title>
<path fill="none" stroke="midnightblue" d="M905.219,-112.324C890.733,-103.822 868.427,-90.7288 851.507,-80.7975"/>
<polygon fill="midnightblue" stroke="midnightblue" points="853.141,-77.6981 842.745,-75.6545 849.597,-83.735 853.141,-77.6981"/>
</g>
<!-- Node20&#45;&gt;Node21 -->
<g id="edge30" class="edge"><title>Node20&#45;&gt;Node21</title>
<path fill="none" stroke="midnightblue" d="M933.175,-112.324C945.847,-103.979 965.233,-91.2122 980.206,-81.3524"/>
<polygon fill="midnightblue" stroke="midnightblue" points="982.431,-84.0776 988.858,-75.6545 978.581,-78.2313 982.431,-84.0776"/>
</g>
</g>
</svg>
