<?xml version="1.0" encoding="UTF-8" standalone="no"?>
<!DOCTYPE svg PUBLIC "-//W3C//DTD SVG 1.1//EN"
 "http://www.w3.org/Graphics/SVG/1.1/DTD/svg11.dtd">
<!-- Generated by graphviz version 2.38.0 (20140413.2041)
 -->
<!-- Title: SMA.hpp Pages: 1 -->
<svg width="1218pt" height="588pt"
 viewBox="0.00 0.00 1217.50 588.00" xmlns="http://www.w3.org/2000/svg" xmlns:xlink="http://www.w3.org/1999/xlink">
<g id="graph0" class="graph" transform="scale(1 1) rotate(0) translate(4 584)">
<title>SMA.hpp</title>
<polygon fill="white" stroke="none" points="-4,4 -4,-584 1213.5,-584 1213.5,4 -4,4"/>
<!-- Node1 -->
<g id="node1" class="node"><title>Node1</title>
<g id="a_node1"><a xlink:title=" ">
<polygon fill="#bfbfbf" stroke="black" points="1005.5,-560.5 1005.5,-579.5 1062.5,-579.5 1062.5,-560.5 1005.5,-560.5"/>
<text text-anchor="middle" x="1034" y="-567.5" font-family="Helvetica,sans-Serif" font-size="10.00">SMA.hpp</text>
</a>
</g>
</g>
<!-- Node2 -->
<g id="node2" class="node"><title>Node2</title>
<g id="a_node2"><a xlink:href="../../de/d76/Array_8hpp.html" target="_top" xlink:title=" ">
<polygon fill="white" stroke="black" points="772,-504.5 772,-523.5 898,-523.5 898,-504.5 772,-504.5"/>
<text text-anchor="middle" x="835" y="-511.5" font-family="Helvetica,sans-Serif" font-size="10.00">AH/Containers/Array.hpp</text>
</a>
</g>
</g>
<!-- Node1&#45;&gt;Node2 -->
<g id="edge1" class="edge"><title>Node1&#45;&gt;Node2</title>
<path fill="none" stroke="midnightblue" d="M1005.49,-561.263C971.649,-552.081 914.954,-536.696 876.312,-526.21"/>
<polygon fill="midnightblue" stroke="midnightblue" points="876.981,-522.765 866.414,-523.524 875.148,-529.521 876.981,-522.765"/>
</g>
<!-- Node12 -->
<g id="node12" class="node"><title>Node12</title>
<g id="a_node12"><a xlink:title=" ">
<polygon fill="white" stroke="#bfbfbf" points="765.5,-112.5 765.5,-131.5 866.5,-131.5 866.5,-112.5 765.5,-112.5"/>
<text text-anchor="middle" x="816" y="-119.5" font-family="Helvetica,sans-Serif" font-size="10.00">AH/STL/type_traits</text>
</a>
</g>
</g>
<!-- Node1&#45;&gt;Node12 -->
<g id="edge44" class="edge"><title>Node1&#45;&gt;Node12</title>
<path fill="none" stroke="midnightblue" d="M1031.25,-560.392C1016.17,-513.31 942.649,-286.797 905,-224 884.721,-190.174 852.505,-157.057 832.901,-138.412"/>
<polygon fill="midnightblue" stroke="midnightblue" points="835.274,-135.839 825.58,-131.565 830.493,-140.952 835.274,-135.839"/>
</g>
<!-- Node23 -->
<g id="node23" class="node"><title>Node23</title>
<g id="a_node23"><a xlink:href="../../dc/d30/Divide_8hpp.html" target="_top" xlink:title=" ">
<polygon fill="white" stroke="black" points="952.5,-280.5 952.5,-299.5 1057.5,-299.5 1057.5,-280.5 952.5,-280.5"/>
<text text-anchor="middle" x="1005" y="-287.5" font-family="Helvetica,sans-Serif" font-size="10.00">AH/Math/Divide.hpp</text>
</a>
</g>
</g>
<!-- Node1&#45;&gt;Node23 -->
<g id="edge37" class="edge"><title>Node1&#45;&gt;Node23</title>
<path fill="none" stroke="midnightblue" d="M1034,-560.442C1034,-541.936 1034,-496.812 1034,-459 1034,-459 1034,-459 1034,-401 1034,-367.716 1021.43,-330.584 1012.84,-309.094"/>
<polygon fill="midnightblue" stroke="midnightblue" points="1015.98,-307.525 1008.91,-299.635 1009.52,-310.213 1015.98,-307.525"/>
</g>
<!-- Node24 -->
<g id="node24" class="node"><title>Node24</title>
<g id="a_node24"><a xlink:title=" ">
<polygon fill="white" stroke="#bfbfbf" points="1038,-224.5 1038,-243.5 1122,-243.5 1122,-224.5 1038,-224.5"/>
<text text-anchor="middle" x="1080" y="-231.5" font-family="Helvetica,sans-Serif" font-size="10.00">AH/STL/cstdint</text>
</a>
</g>
</g>
<!-- Node1&#45;&gt;Node24 -->
<g id="edge43" class="edge"><title>Node1&#45;&gt;Node24</title>
<path fill="none" stroke="midnightblue" d="M1041.45,-560.256C1055.83,-542.454 1086,-500.191 1086,-459 1086,-459 1086,-459 1086,-345 1086,-312.9 1083.42,-275.61 1081.64,-253.732"/>
<polygon fill="midnightblue" stroke="midnightblue" points="1085.11,-253.219 1080.78,-243.549 1078.14,-253.808 1085.11,-253.219"/>
</g>
<!-- Node25 -->
<g id="node25" class="node"><title>Node25</title>
<g id="a_node25"><a xlink:title=" ">
<polygon fill="white" stroke="#bfbfbf" points="1114.5,-504.5 1114.5,-523.5 1209.5,-523.5 1209.5,-504.5 1114.5,-504.5"/>
<text text-anchor="middle" x="1162" y="-511.5" font-family="Helvetica,sans-Serif" font-size="10.00">AH/STL/algorithm</text>
</a>
</g>
</g>
<!-- Node1&#45;&gt;Node25 -->
<g id="edge42" class="edge"><title>Node1&#45;&gt;Node25</title>
<path fill="none" stroke="midnightblue" d="M1054.28,-560.444C1075.35,-551.557 1108.52,-537.563 1132.49,-527.451"/>
<polygon fill="midnightblue" stroke="midnightblue" points="1133.96,-530.628 1141.81,-523.516 1131.24,-524.179 1133.96,-530.628"/>
</g>
<!-- Node3 -->
<g id="node3" class="node"><title>Node3</title>
<g id="a_node3"><a xlink:href="../../d1/d65/Warnings_8hpp.html" target="_top" xlink:title=" ">
<polygon fill="white" stroke="black" points="109.5,-0.5 109.5,-19.5 242.5,-19.5 242.5,-0.5 109.5,-0.5"/>
<text text-anchor="middle" x="176" y="-7.5" font-family="Helvetica,sans-Serif" font-size="10.00">AH/Settings/Warnings.hpp</text>
</a>
</g>
</g>
<!-- Node2&#45;&gt;Node3 -->
<g id="edge2" class="edge"><title>Node2&#45;&gt;Node3</title>
<path fill="none" stroke="midnightblue" d="M771.897,-511.312C577.372,-505.278 0,-480.815 0,-403 0,-403 0,-403 0,-121 0,-64.1305 66.8962,-35.5728 118.203,-22.0332"/>
<polygon fill="midnightblue" stroke="midnightblue" points="119.059,-25.427 127.907,-19.5989 117.356,-18.6373 119.059,-25.427"/>
</g>
<!-- Node4 -->
<g id="node4" class="node"><title>Node4</title>
<g id="a_node4"><a xlink:href="../../d1/d93/Error_8hpp.html" target="_top" xlink:title=" ">
<polygon fill="white" stroke="black" points="382,-448.5 382,-467.5 480,-467.5 480,-448.5 382,-448.5"/>
<text text-anchor="middle" x="431" y="-455.5" font-family="Helvetica,sans-Serif" font-size="10.00">AH/Error/Error.hpp</text>
</a>
</g>
</g>
<!-- Node2&#45;&gt;Node4 -->
<g id="edge3" class="edge"><title>Node2&#45;&gt;Node4</title>
<path fill="none" stroke="midnightblue" d="M771.875,-504.562C694.83,-494.264 565.542,-476.983 490.283,-466.924"/>
<polygon fill="midnightblue" stroke="midnightblue" points="490.409,-463.41 480.034,-465.554 489.482,-470.348 490.409,-463.41"/>
</g>
<!-- Node2&#45;&gt;Node12 -->
<g id="edge35" class="edge"><title>Node2&#45;&gt;Node12</title>
<path fill="none" stroke="midnightblue" d="M832.438,-504.249C827.251,-485.738 816,-441.179 816,-403 816,-403 816,-403 816,-233 816,-200.948 816,-163.643 816,-141.749"/>
<polygon fill="midnightblue" stroke="midnightblue" points="819.5,-141.558 816,-131.558 812.5,-141.558 819.5,-141.558"/>
</g>
<!-- Node18 -->
<g id="node18" class="node"><title>Node18</title>
<g id="a_node18"><a xlink:title=" ">
<polygon fill="white" stroke="#bfbfbf" points="844,-224.5 844,-243.5 896,-243.5 896,-224.5 844,-224.5"/>
<text text-anchor="middle" x="870" y="-231.5" font-family="Helvetica,sans-Serif" font-size="10.00">stddef.h</text>
</a>
</g>
</g>
<!-- Node2&#45;&gt;Node18 -->
<g id="edge36" class="edge"><title>Node2&#45;&gt;Node18</title>
<path fill="none" stroke="midnightblue" d="M837.562,-504.249C842.749,-485.738 854,-441.179 854,-403 854,-403 854,-403 854,-345 854,-312.626 860.871,-275.445 865.607,-253.659"/>
<polygon fill="midnightblue" stroke="midnightblue" points="869.05,-254.303 867.842,-243.777 862.223,-252.759 869.05,-254.303"/>
</g>
<!-- Node22 -->
<g id="node22" class="node"><title>Node22</title>
<g id="a_node22"><a xlink:title=" ">
<polygon fill="white" stroke="#bfbfbf" points="882.5,-448.5 882.5,-467.5 967.5,-467.5 967.5,-448.5 882.5,-448.5"/>
<text text-anchor="middle" x="925" y="-455.5" font-family="Helvetica,sans-Serif" font-size="10.00">AH/STL/iterator</text>
</a>
</g>
</g>
<!-- Node2&#45;&gt;Node22 -->
<g id="edge34" class="edge"><title>Node2&#45;&gt;Node22</title>
<path fill="none" stroke="midnightblue" d="M849.46,-504.324C863.5,-495.9 885.048,-482.971 901.543,-473.074"/>
<polygon fill="midnightblue" stroke="midnightblue" points="903.802,-475.801 910.576,-467.655 900.2,-469.798 903.802,-475.801"/>
</g>
<!-- Node4&#45;&gt;Node3 -->
<g id="edge4" class="edge"><title>Node4&#45;&gt;Node3</title>
<path fill="none" stroke="midnightblue" d="M381.624,-453.586C276.073,-444.931 38,-417.586 38,-347 38,-347 38,-347 38,-121 38,-69.6605 97.1253,-38.4014 137.974,-22.9312"/>
<polygon fill="midnightblue" stroke="midnightblue" points="139.197,-26.2108 147.406,-19.5128 136.812,-19.6296 139.197,-26.2108"/>
</g>
<!-- Node5 -->
<g id="node5" class="node"><title>Node5</title>
<g id="a_node5"><a xlink:href="../../df/dee/Debug_8hpp.html" target="_top" xlink:title=" ">
<polygon fill="white" stroke="black" points="374.5,-392.5 374.5,-411.5 487.5,-411.5 487.5,-392.5 374.5,-392.5"/>
<text text-anchor="middle" x="431" y="-399.5" font-family="Helvetica,sans-Serif" font-size="10.00">AH/Debug/Debug.hpp</text>
</a>
</g>
</g>
<!-- Node4&#45;&gt;Node5 -->
<g id="edge5" class="edge"><title>Node4&#45;&gt;Node5</title>
<path fill="none" stroke="midnightblue" d="M431,-448.083C431,-441.006 431,-430.861 431,-421.986"/>
<polygon fill="midnightblue" stroke="midnightblue" points="434.5,-421.751 431,-411.751 427.5,-421.751 434.5,-421.751"/>
</g>
<!-- Node5&#45;&gt;Node3 -->
<g id="edge6" class="edge"><title>Node5&#45;&gt;Node3</title>
<path fill="none" stroke="midnightblue" d="M374.357,-395.29C274.13,-383.604 76,-352.7 76,-291 76,-291 76,-291 76,-121 76,-76.9843 120.38,-42.7956 150.01,-24.875"/>
<polygon fill="midnightblue" stroke="midnightblue" points="152.144,-27.683 159.036,-19.6363 148.631,-21.6286 152.144,-27.683"/>
</g>
<!-- Node6 -->
<g id="node6" class="node"><title>Node6</title>
<g id="a_node6"><a xlink:href="../../dd/d80/PrintStream_8hpp.html" target="_top" xlink:title=" ">
<polygon fill="white" stroke="black" points="215.5,-224.5 215.5,-243.5 374.5,-243.5 374.5,-224.5 215.5,-224.5"/>
<text text-anchor="middle" x="295" y="-231.5" font-family="Helvetica,sans-Serif" font-size="10.00">AH/PrintStream/PrintStream.hpp</text>
</a>
</g>
</g>
<!-- Node5&#45;&gt;Node6 -->
<g id="edge7" class="edge"><title>Node5&#45;&gt;Node6</title>
<path fill="none" stroke="midnightblue" d="M400.773,-392.493C381.095,-385.558 356.17,-373.932 340,-356 313.327,-326.422 302.001,-279.604 297.568,-253.732"/>
<polygon fill="midnightblue" stroke="midnightblue" points="301.011,-253.095 296.026,-243.746 294.093,-254.163 301.011,-253.095"/>
</g>
<!-- Node13 -->
<g id="node13" class="node"><title>Node13</title>
<g id="a_node13"><a xlink:href="../../d2/dd5/SettingsWrapper_8hpp.html" target="_top" xlink:title=" ">
<polygon fill="white" stroke="black" points="349,-336.5 349,-355.5 513,-355.5 513,-336.5 349,-336.5"/>
<text text-anchor="middle" x="431" y="-343.5" font-family="Helvetica,sans-Serif" font-size="10.00">AH/Settings/SettingsWrapper.hpp</text>
</a>
</g>
</g>
<!-- Node5&#45;&gt;Node13 -->
<g id="edge18" class="edge"><title>Node5&#45;&gt;Node13</title>
<path fill="none" stroke="midnightblue" d="M425.834,-392.083C424.324,-384.927 423.894,-374.635 424.542,-365.691"/>
<polygon fill="midnightblue" stroke="midnightblue" points="428.015,-366.126 425.869,-355.751 421.077,-365.2 428.015,-366.126"/>
</g>
<!-- Node21 -->
<g id="node21" class="node"><title>Node21</title>
<g id="a_node21"><a xlink:href="../../d7/d52/DebugVal_8hpp.html" target="_top" xlink:title=" ">
<polygon fill="white" stroke="black" points="531,-336.5 531,-355.5 609,-355.5 609,-336.5 531,-336.5"/>
<text text-anchor="middle" x="570" y="-343.5" font-family="Helvetica,sans-Serif" font-size="10.00">DebugVal.hpp</text>
</a>
</g>
</g>
<!-- Node5&#45;&gt;Node21 -->
<g id="edge33" class="edge"><title>Node5&#45;&gt;Node21</title>
<path fill="none" stroke="midnightblue" d="M453.025,-392.444C476.104,-383.478 512.562,-369.314 538.641,-359.183"/>
<polygon fill="midnightblue" stroke="midnightblue" points="540.024,-362.4 548.078,-355.516 537.489,-355.875 540.024,-362.4"/>
</g>
<!-- Node6&#45;&gt;Node3 -->
<g id="edge8" class="edge"><title>Node6&#45;&gt;Node3</title>
<path fill="none" stroke="midnightblue" d="M282.152,-224.316C252.422,-203.226 180.048,-145.866 162,-76 157.945,-60.3021 162.554,-42.2636 167.54,-29.1781"/>
<polygon fill="midnightblue" stroke="midnightblue" points="170.798,-30.459 171.462,-19.8849 164.349,-27.7374 170.798,-30.459"/>
</g>
<!-- Node7 -->
<g id="node7" class="node"><title>Node7</title>
<g id="a_node7"><a xlink:href="../../d6/ddf/Arduino-Wrapper_8h.html" target="_top" xlink:title=" ">
<polygon fill="white" stroke="black" points="258.5,-168.5 258.5,-187.5 373.5,-187.5 373.5,-168.5 258.5,-168.5"/>
<text text-anchor="middle" x="316" y="-175.5" font-family="Helvetica,sans-Serif" font-size="10.00">AH/Arduino&#45;Wrapper.h</text>
</a>
</g>
</g>
<!-- Node6&#45;&gt;Node7 -->
<g id="edge9" class="edge"><title>Node6&#45;&gt;Node7</title>
<path fill="none" stroke="midnightblue" d="M298.468,-224.083C301.312,-216.77 305.429,-206.181 308.96,-197.103"/>
<polygon fill="midnightblue" stroke="midnightblue" points="312.234,-198.34 312.597,-187.751 305.71,-195.803 312.234,-198.34"/>
</g>
<!-- Node8 -->
<g id="node8" class="node"><title>Node8</title>
<g id="a_node8"><a xlink:href="../../d7/d79/MinMaxFix_8hpp.html" target="_top" xlink:title=" ">
<polygon fill="white" stroke="black" points="202.5,-112.5 202.5,-131.5 327.5,-131.5 327.5,-112.5 202.5,-112.5"/>
<text text-anchor="middle" x="265" y="-119.5" font-family="Helvetica,sans-Serif" font-size="10.00">AH/Math/MinMaxFix.hpp</text>
</a>
</g>
</g>
<!-- Node7&#45;&gt;Node8 -->
<g id="edge10" class="edge"><title>Node7&#45;&gt;Node8</title>
<path fill="none" stroke="midnightblue" d="M307.578,-168.083C300.152,-160.22 289.148,-148.569 280.188,-139.081"/>
<polygon fill="midnightblue" stroke="midnightblue" points="282.676,-136.618 273.265,-131.751 277.587,-141.424 282.676,-136.618"/>
</g>
<!-- Node10 -->
<g id="node10" class="node"><title>Node10</title>
<g id="a_node10"><a xlink:title=" ">
<polygon fill="white" stroke="#bfbfbf" points="310,-0.5 310,-19.5 368,-19.5 368,-0.5 310,-0.5"/>
<text text-anchor="middle" x="339" y="-7.5" font-family="Helvetica,sans-Serif" font-size="10.00">Arduino.h</text>
</a>
</g>
</g>
<!-- Node7&#45;&gt;Node10 -->
<g id="edge17" class="edge"><title>Node7&#45;&gt;Node10</title>
<path fill="none" stroke="midnightblue" d="M320.685,-168.294C325.266,-159.413 332.104,-145.113 336,-132 345.687,-99.3947 347.253,-89.9391 345,-56 344.425,-47.3406 343.235,-37.8054 342.065,-29.7496"/>
<polygon fill="midnightblue" stroke="midnightblue" points="345.481,-28.9388 340.491,-19.5928 338.564,-30.0109 345.481,-28.9388"/>
</g>
<!-- Node7&#45;&gt;Node12 -->
<g id="edge16" class="edge"><title>Node7&#45;&gt;Node12</title>
<path fill="none" stroke="midnightblue" d="M373.845,-170.753C469.182,-160.456 658.403,-140.021 755.471,-129.537"/>
<polygon fill="midnightblue" stroke="midnightblue" points="755.855,-133.016 765.422,-128.462 755.104,-126.057 755.855,-133.016"/>
</g>
<!-- Node8&#45;&gt;Node3 -->
<g id="edge11" class="edge"><title>Node8&#45;&gt;Node3</title>
<path fill="none" stroke="midnightblue" d="M224.853,-112.429C205.025,-105.953 182.862,-94.8297 171,-76 162.337,-62.2475 164.966,-43.4697 168.946,-29.6324"/>
<polygon fill="midnightblue" stroke="midnightblue" points="172.386,-30.3786 172.236,-19.7848 165.747,-28.1602 172.386,-30.3786"/>
</g>
<!-- Node9 -->
<g id="node9" class="node"><title>Node9</title>
<g id="a_node9"><a xlink:href="../../d6/d3b/FixArduinoMacros_8hpp.html" target="_top" xlink:title=" ">
<polygon fill="white" stroke="black" points="180,-56.5 180,-75.5 336,-75.5 336,-56.5 180,-56.5"/>
<text text-anchor="middle" x="258" y="-63.5" font-family="Helvetica,sans-Serif" font-size="10.00">AH/Math/FixArduinoMacros.hpp</text>
</a>
</g>
</g>
<!-- Node8&#45;&gt;Node9 -->
<g id="edge12" class="edge"><title>Node8&#45;&gt;Node9</title>
<path fill="none" stroke="midnightblue" d="M263.844,-112.083C262.916,-104.927 261.582,-94.6353 260.423,-85.6911"/>
<polygon fill="midnightblue" stroke="midnightblue" points="263.891,-85.2181 259.134,-75.7511 256.949,-86.1181 263.891,-85.2181"/>
</g>
<!-- Node11 -->
<g id="node11" class="node"><title>Node11</title>
<g id="a_node11"><a xlink:href="../../dc/dc7/NamespaceSettings_8hpp.html" target="_top" xlink:title=" ">
<polygon fill="white" stroke="black" points="430,-56.5 430,-75.5 610,-75.5 610,-56.5 430,-56.5"/>
<text text-anchor="middle" x="520" y="-63.5" font-family="Helvetica,sans-Serif" font-size="10.00">AH/Settings/NamespaceSettings.hpp</text>
</a>
</g>
</g>
<!-- Node8&#45;&gt;Node11 -->
<g id="edge15" class="edge"><title>Node8&#45;&gt;Node11</title>
<path fill="none" stroke="midnightblue" d="M305.406,-112.444C349.983,-103.004 421.768,-87.802 469.892,-77.6111"/>
<polygon fill="midnightblue" stroke="midnightblue" points="470.726,-81.0123 479.784,-75.5164 469.275,-74.1641 470.726,-81.0123"/>
</g>
<!-- Node9&#45;&gt;Node3 -->
<g id="edge13" class="edge"><title>Node9&#45;&gt;Node3</title>
<path fill="none" stroke="midnightblue" d="M244.825,-56.324C232.153,-47.979 212.767,-35.2122 197.794,-25.3524"/>
<polygon fill="midnightblue" stroke="midnightblue" points="199.419,-22.2313 189.142,-19.6545 195.569,-28.0776 199.419,-22.2313"/>
</g>
<!-- Node9&#45;&gt;Node10 -->
<g id="edge14" class="edge"><title>Node9&#45;&gt;Node10</title>
<path fill="none" stroke="midnightblue" d="M271.014,-56.324C283.532,-47.979 302.682,-35.2122 317.471,-25.3524"/>
<polygon fill="midnightblue" stroke="midnightblue" points="319.639,-28.1137 326.018,-19.6545 315.756,-22.2894 319.639,-28.1137"/>
</g>
<!-- Node13&#45;&gt;Node3 -->
<g id="edge19" class="edge"><title>Node13&#45;&gt;Node3</title>
<path fill="none" stroke="midnightblue" d="M427.089,-336.365C419.173,-318.073 402,-273.907 402,-235 402,-235 402,-235 402,-121 402,-52.9299 318.086,-26.973 252.523,-17.0809"/>
<polygon fill="midnightblue" stroke="midnightblue" points="252.976,-13.6101 242.585,-15.6809 251.999,-20.5417 252.976,-13.6101"/>
</g>
<!-- Node13&#45;&gt;Node5 -->
<g id="edge32" class="edge"><title>Node13&#45;&gt;Node5</title>
<path fill="none" stroke="midnightblue" d="M436.131,-355.751C437.657,-362.858 438.104,-373.136 437.472,-382.101"/>
<polygon fill="midnightblue" stroke="midnightblue" points="433.993,-381.713 436.166,-392.083 440.934,-382.622 433.993,-381.713"/>
</g>
<!-- Node13&#45;&gt;Node11 -->
<g id="edge20" class="edge"><title>Node13&#45;&gt;Node11</title>
<path fill="none" stroke="midnightblue" d="M432.177,-336.462C434.616,-317.994 440,-272.939 440,-235 440,-235 440,-235 440,-177 440,-146.902 441.763,-136.673 459,-112 467.949,-99.1907 481.719,-88.5832 493.912,-80.8906"/>
<polygon fill="midnightblue" stroke="midnightblue" points="496.02,-83.7094 502.824,-75.5881 492.441,-77.6938 496.02,-83.7094"/>
</g>
<!-- Node14 -->
<g id="node14" class="node"><title>Node14</title>
<g id="a_node14"><a xlink:href="../../db/d02/Settings_8hpp.html" target="_top" xlink:title="All user settings and debugging options can be changed here.">
<polygon fill="white" stroke="black" points="530.5,-280.5 530.5,-299.5 601.5,-299.5 601.5,-280.5 530.5,-280.5"/>
<text text-anchor="middle" x="566" y="-287.5" font-family="Helvetica,sans-Serif" font-size="10.00">Settings.hpp</text>
</a>
</g>
</g>
<!-- Node13&#45;&gt;Node14 -->
<g id="edge21" class="edge"><title>Node13&#45;&gt;Node14</title>
<path fill="none" stroke="midnightblue" d="M452.391,-336.444C474.707,-327.517 509.903,-313.439 535.208,-303.317"/>
<polygon fill="midnightblue" stroke="midnightblue" points="536.724,-306.48 544.709,-299.516 534.124,-299.981 536.724,-306.48"/>
</g>
<!-- Node20 -->
<g id="node20" class="node"><title>Node20</title>
<g id="a_node20"><a xlink:href="../../d9/d98/TeensyUSBTypes_8hpp.html" target="_top" xlink:title=" ">
<polygon fill="white" stroke="black" points="620,-280.5 620,-299.5 788,-299.5 788,-280.5 620,-280.5"/>
<text text-anchor="middle" x="704" y="-287.5" font-family="Helvetica,sans-Serif" font-size="10.00">AH/Teensy/TeensyUSBTypes.hpp</text>
</a>
</g>
</g>
<!-- Node13&#45;&gt;Node20 -->
<g id="edge31" class="edge"><title>Node13&#45;&gt;Node20</title>
<path fill="none" stroke="midnightblue" d="M474.258,-336.444C522.181,-326.964 599.478,-311.675 651,-301.483"/>
<polygon fill="midnightblue" stroke="midnightblue" points="651.814,-304.89 660.945,-299.516 650.456,-298.023 651.814,-304.89"/>
</g>
<!-- Node15 -->
<g id="node15" class="node"><title>Node15</title>
<g id="a_node15"><a xlink:href="../../dc/d50/Frequency_8hpp.html" target="_top" xlink:title=" ">
<polygon fill="white" stroke="black" points="468,-112.5 468,-131.5 596,-131.5 596,-112.5 468,-112.5"/>
<text text-anchor="middle" x="532" y="-119.5" font-family="Helvetica,sans-Serif" font-size="10.00">AH/Types/Frequency.hpp</text>
</a>
</g>
</g>
<!-- Node14&#45;&gt;Node15 -->
<g id="edge22" class="edge"><title>Node14&#45;&gt;Node15</title>
<path fill="none" stroke="midnightblue" d="M542.212,-280.499C526.279,-273.413 506.537,-261.605 497,-244 478.343,-209.559 502.928,-164.078 519.378,-139.866"/>
<polygon fill="midnightblue" stroke="midnightblue" points="522.243,-141.876 525.177,-131.696 516.535,-137.825 522.243,-141.876"/>
</g>
<!-- Node16 -->
<g id="node16" class="node"><title>Node16</title>
<g id="a_node16"><a xlink:href="../../d7/d7c/ADCConfig_8hpp.html" target="_top" xlink:title="This file contains the platform&#45;specific ADC resolutions. By default, the library automatically selec...">
<polygon fill="white" stroke="black" points="506,-224.5 506,-243.5 654,-243.5 654,-224.5 506,-224.5"/>
<text text-anchor="middle" x="580" y="-231.5" font-family="Helvetica,sans-Serif" font-size="10.00">AH/Hardware/ADCConfig.hpp</text>
</a>
</g>
</g>
<!-- Node14&#45;&gt;Node16 -->
<g id="edge25" class="edge"><title>Node14&#45;&gt;Node16</title>
<path fill="none" stroke="midnightblue" d="M568.312,-280.083C570.167,-272.927 572.835,-262.635 575.154,-253.691"/>
<polygon fill="midnightblue" stroke="midnightblue" points="578.609,-254.309 577.731,-243.751 571.834,-252.553 578.609,-254.309"/>
</g>
<!-- Node17 -->
<g id="node17" class="node"><title>Node17</title>
<g id="a_node17"><a xlink:title=" ">
<polygon fill="white" stroke="#bfbfbf" points="672,-224.5 672,-243.5 720,-243.5 720,-224.5 672,-224.5"/>
<text text-anchor="middle" x="696" y="-231.5" font-family="Helvetica,sans-Serif" font-size="10.00">limits.h</text>
</a>
</g>
</g>
<!-- Node14&#45;&gt;Node17 -->
<g id="edge28" class="edge"><title>Node14&#45;&gt;Node17</title>
<path fill="none" stroke="midnightblue" d="M586.599,-280.444C607.993,-271.557 641.681,-257.563 666.024,-247.451"/>
<polygon fill="midnightblue" stroke="midnightblue" points="667.605,-250.585 675.497,-243.516 664.92,-244.12 667.605,-250.585"/>
</g>
<!-- Node14&#45;&gt;Node18 -->
<g id="edge29" class="edge"><title>Node14&#45;&gt;Node18</title>
<path fill="none" stroke="midnightblue" d="M601.845,-281.746C604.94,-281.145 608.024,-280.556 611,-280 690.369,-265.171 783.733,-249.346 833.843,-240.984"/>
<polygon fill="midnightblue" stroke="midnightblue" points="834.57,-244.412 843.859,-239.316 833.42,-237.507 834.57,-244.412"/>
</g>
<!-- Node19 -->
<g id="node19" class="node"><title>Node19</title>
<g id="a_node19"><a xlink:title=" ">
<polygon fill="white" stroke="#bfbfbf" points="738.5,-224.5 738.5,-243.5 787.5,-243.5 787.5,-224.5 738.5,-224.5"/>
<text text-anchor="middle" x="763" y="-231.5" font-family="Helvetica,sans-Serif" font-size="10.00">stdint.h</text>
</a>
</g>
</g>
<!-- Node14&#45;&gt;Node19 -->
<g id="edge30" class="edge"><title>Node14&#45;&gt;Node19</title>
<path fill="none" stroke="midnightblue" d="M597.215,-280.444C633.016,-270.63 691.531,-254.591 728.612,-244.426"/>
<polygon fill="midnightblue" stroke="midnightblue" points="729.747,-247.744 738.466,-241.725 727.896,-240.993 729.747,-247.744"/>
</g>
<!-- Node15&#45;&gt;Node3 -->
<g id="edge23" class="edge"><title>Node15&#45;&gt;Node3</title>
<path fill="none" stroke="midnightblue" d="M560.689,-112.467C593.722,-101.255 640.805,-80.1317 619,-56 612.927,-49.279 378.157,-28.2675 252.916,-17.5013"/>
<polygon fill="midnightblue" stroke="midnightblue" points="252.884,-13.9857 242.621,-16.6181 252.285,-20.9601 252.884,-13.9857"/>
</g>
<!-- Node15&#45;&gt;Node11 -->
<g id="edge24" class="edge"><title>Node15&#45;&gt;Node11</title>
<path fill="none" stroke="midnightblue" d="M530.018,-112.083C528.428,-104.927 526.141,-94.6353 524.154,-85.6911"/>
<polygon fill="midnightblue" stroke="midnightblue" points="527.531,-84.7537 521.945,-75.7511 520.697,-86.2722 527.531,-84.7537"/>
</g>
<!-- Node16&#45;&gt;Node3 -->
<g id="edge26" class="edge"><title>Node16&#45;&gt;Node3</title>
<path fill="none" stroke="midnightblue" d="M587.769,-224.396C612.072,-196.45 682.336,-107.091 636,-56 629.636,-48.9832 382.242,-27.8231 252.961,-17.2103"/>
<polygon fill="midnightblue" stroke="midnightblue" points="252.977,-13.7 242.724,-16.3718 252.405,-20.6766 252.977,-13.7"/>
</g>
<!-- Node16&#45;&gt;Node7 -->
<g id="edge27" class="edge"><title>Node16&#45;&gt;Node7</title>
<path fill="none" stroke="midnightblue" d="M538.168,-224.444C491.921,-214.984 417.388,-199.738 367.564,-189.547"/>
<polygon fill="midnightblue" stroke="midnightblue" points="368.134,-186.091 357.636,-187.516 366.732,-192.949 368.134,-186.091"/>
</g>
<!-- Node23&#45;&gt;Node3 -->
<g id="edge40" class="edge"><title>Node23&#45;&gt;Node3</title>
<path fill="none" stroke="midnightblue" d="M998.717,-280.481C992.564,-271.746 983.357,-257.558 978,-244 967.141,-216.516 964,-208.551 964,-179 964,-179 964,-179 964,-121 964,18.904 794.318,-77.0082 656,-56 580.394,-44.5166 368.154,-26.4986 252.863,-17.1259"/>
<polygon fill="midnightblue" stroke="midnightblue" points="252.946,-13.6213 242.696,-16.3014 252.38,-20.5984 252.946,-13.6213"/>
</g>
<!-- Node23&#45;&gt;Node11 -->
<g id="edge39" class="edge"><title>Node23&#45;&gt;Node11</title>
<path fill="none" stroke="midnightblue" d="M1002.1,-280.299C997.689,-267.552 988.679,-243.229 978,-224 945.165,-164.879 936.573,-139.968 875,-112 830.952,-91.9921 709.102,-79.6732 620.421,-73.0932"/>
<polygon fill="midnightblue" stroke="midnightblue" points="620.55,-69.5934 610.323,-72.3578 620.042,-76.5749 620.55,-69.5934"/>
</g>
<!-- Node23&#45;&gt;Node18 -->
<g id="edge41" class="edge"><title>Node23&#45;&gt;Node18</title>
<path fill="none" stroke="midnightblue" d="M983.609,-280.444C961.293,-271.517 926.097,-257.439 900.792,-247.317"/>
<polygon fill="midnightblue" stroke="midnightblue" points="901.876,-243.981 891.291,-243.516 899.276,-250.48 901.876,-243.981"/>
</g>
<!-- Node23&#45;&gt;Node24 -->
<g id="edge38" class="edge"><title>Node23&#45;&gt;Node24</title>
<path fill="none" stroke="midnightblue" d="M1017.05,-280.324C1028.46,-272.107 1045.83,-259.602 1059.43,-249.807"/>
<polygon fill="midnightblue" stroke="midnightblue" points="1061.66,-252.517 1067.73,-243.834 1057.57,-246.837 1061.66,-252.517"/>
</g>
</g>
</svg>
