<?xml version="1.0" encoding="UTF-8" standalone="no"?>
<!DOCTYPE svg PUBLIC "-//W3C//DTD SVG 1.1//EN"
 "http://www.w3.org/Graphics/SVG/1.1/DTD/svg11.dtd">
<!-- Generated by graphviz version 2.38.0 (20140413.2041)
 -->
<!-- Title: SMA.hpp Pages: 1 -->
<svg width="1107pt" height="420pt"
 viewBox="0.00 0.00 1107.00 420.00" xmlns="http://www.w3.org/2000/svg" xmlns:xlink="http://www.w3.org/1999/xlink">
<g id="graph0" class="graph" transform="scale(1 1) rotate(0) translate(4 416)">
<title>SMA.hpp</title>
<polygon fill="white" stroke="none" points="-4,4 -4,-416 1103,-416 1103,4 -4,4"/>
<!-- Node1 -->
<g id="node1" class="node"><title>Node1</title>
<g id="a_node1"><a xlink:title=" ">
<polygon fill="#bfbfbf" stroke="black" points="958.5,-392.5 958.5,-411.5 1015.5,-411.5 1015.5,-392.5 958.5,-392.5"/>
<text text-anchor="middle" x="987" y="-399.5" font-family="Helvetica,sans-Serif" font-size="10.00">SMA.hpp</text>
</a>
</g>
</g>
<!-- Node2 -->
<g id="node2" class="node"><title>Node2</title>
<g id="a_node2"><a xlink:href="../../de/d76/Array_8hpp.html" target="_top" xlink:title=" ">
<polygon fill="white" stroke="black" points="788,-336.5 788,-355.5 914,-355.5 914,-336.5 788,-336.5"/>
<text text-anchor="middle" x="851" y="-343.5" font-family="Helvetica,sans-Serif" font-size="10.00">AH/Containers/Array.hpp</text>
</a>
</g>
</g>
<!-- Node1&#45;&gt;Node2 -->
<g id="edge1" class="edge"><title>Node1&#45;&gt;Node2</title>
<path fill="none" stroke="midnightblue" d="M965.45,-392.444C942.969,-383.517 907.512,-369.439 882.02,-359.317"/>
<polygon fill="midnightblue" stroke="midnightblue" points="883.035,-355.954 872.449,-355.516 880.451,-362.46 883.035,-355.954"/>
</g>
<!-- Node19 -->
<g id="node19" class="node"><title>Node19</title>
<g id="a_node19"><a xlink:title=" ">
<polygon fill="white" stroke="#bfbfbf" points="959.5,-280.5 959.5,-299.5 1060.5,-299.5 1060.5,-280.5 959.5,-280.5"/>
<text text-anchor="middle" x="1010" y="-287.5" font-family="Helvetica,sans-Serif" font-size="10.00">AH/STL/type_traits</text>
</a>
</g>
</g>
<!-- Node1&#45;&gt;Node19 -->
<g id="edge30" class="edge"><title>Node1&#45;&gt;Node19</title>
<path fill="none" stroke="midnightblue" d="M988.805,-392.368C992.516,-374.617 1001.08,-333.666 1006.11,-309.597"/>
<polygon fill="midnightblue" stroke="midnightblue" points="1009.58,-310.096 1008.2,-299.591 1002.73,-308.663 1009.58,-310.096"/>
</g>
<!-- Node20 -->
<g id="node20" class="node"><title>Node20</title>
<g id="a_node20"><a xlink:title=" ">
<polygon fill="white" stroke="#bfbfbf" points="1015,-336.5 1015,-355.5 1099,-355.5 1099,-336.5 1015,-336.5"/>
<text text-anchor="middle" x="1057" y="-343.5" font-family="Helvetica,sans-Serif" font-size="10.00">AH/STL/cstdint</text>
</a>
</g>
</g>
<!-- Node1&#45;&gt;Node20 -->
<g id="edge29" class="edge"><title>Node1&#45;&gt;Node20</title>
<path fill="none" stroke="midnightblue" d="M998.247,-392.324C1008.8,-384.185 1024.8,-371.839 1037.44,-362.087"/>
<polygon fill="midnightblue" stroke="midnightblue" points="1039.77,-364.713 1045.55,-355.834 1035.49,-359.171 1039.77,-364.713"/>
</g>
<!-- Node3 -->
<g id="node3" class="node"><title>Node3</title>
<g id="a_node3"><a xlink:href="../../d1/d65/Warnings_8hpp.html" target="_top" xlink:title=" ">
<polygon fill="white" stroke="black" points="116.5,-0.5 116.5,-19.5 249.5,-19.5 249.5,-0.5 116.5,-0.5"/>
<text text-anchor="middle" x="183" y="-7.5" font-family="Helvetica,sans-Serif" font-size="10.00">AH/Settings/Warnings.hpp</text>
</a>
</g>
</g>
<!-- Node2&#45;&gt;Node3 -->
<g id="edge2" class="edge"><title>Node2&#45;&gt;Node3</title>
<path fill="none" stroke="midnightblue" d="M787.732,-343.466C590.511,-337.855 0,-314.421 0,-235 0,-235 0,-235 0,-121 0,-63.3657 67.5021,-35.1638 120.513,-21.9025"/>
<polygon fill="midnightblue" stroke="midnightblue" points="121.637,-25.2331 130.56,-19.5207 120.022,-18.4219 121.637,-25.2331"/>
</g>
<!-- Node4 -->
<g id="node4" class="node"><title>Node4</title>
<g id="a_node4"><a xlink:href="../../d1/d93/Error_8hpp.html" target="_top" xlink:title=" ">
<polygon fill="white" stroke="black" points="355,-280.5 355,-299.5 453,-299.5 453,-280.5 355,-280.5"/>
<text text-anchor="middle" x="404" y="-287.5" font-family="Helvetica,sans-Serif" font-size="10.00">AH/Error/Error.hpp</text>
</a>
</g>
</g>
<!-- Node2&#45;&gt;Node4 -->
<g id="edge3" class="edge"><title>Node2&#45;&gt;Node4</title>
<path fill="none" stroke="midnightblue" d="M787.904,-337.378C701.502,-326.94 547.504,-308.336 463.194,-298.151"/>
<polygon fill="midnightblue" stroke="midnightblue" points="463.366,-294.646 453.018,-296.922 462.526,-301.596 463.366,-294.646"/>
</g>
<!-- Node14 -->
<g id="node14" class="node"><title>Node14</title>
<g id="a_node14"><a xlink:title=" ">
<polygon fill="white" stroke="#bfbfbf" points="802,-56.5 802,-75.5 854,-75.5 854,-56.5 802,-56.5"/>
<text text-anchor="middle" x="828" y="-63.5" font-family="Helvetica,sans-Serif" font-size="10.00">stddef.h</text>
</a>
</g>
</g>
<!-- Node2&#45;&gt;Node14 -->
<g id="edge28" class="edge"><title>Node2&#45;&gt;Node14</title>
<path fill="none" stroke="midnightblue" d="M847.898,-336.289C841.62,-317.856 828,-273.435 828,-235 828,-235 828,-235 828,-177 828,-144.948 828,-107.643 828,-85.7489"/>
<polygon fill="midnightblue" stroke="midnightblue" points="831.5,-85.5577 828,-75.5578 824.5,-85.5578 831.5,-85.5577"/>
</g>
<!-- Node18 -->
<g id="node18" class="node"><title>Node18</title>
<g id="a_node18"><a xlink:title=" ">
<polygon fill="white" stroke="#bfbfbf" points="856.5,-280.5 856.5,-299.5 941.5,-299.5 941.5,-280.5 856.5,-280.5"/>
<text text-anchor="middle" x="899" y="-287.5" font-family="Helvetica,sans-Serif" font-size="10.00">AH/STL/iterator</text>
</a>
</g>
</g>
<!-- Node2&#45;&gt;Node18 -->
<g id="edge26" class="edge"><title>Node2&#45;&gt;Node18</title>
<path fill="none" stroke="midnightblue" d="M858.926,-336.083C865.846,-328.298 876.065,-316.801 884.452,-307.367"/>
<polygon fill="midnightblue" stroke="midnightblue" points="887.194,-309.55 891.221,-299.751 881.962,-304.9 887.194,-309.55"/>
</g>
<!-- Node2&#45;&gt;Node19 -->
<g id="edge27" class="edge"><title>Node2&#45;&gt;Node19</title>
<path fill="none" stroke="midnightblue" d="M876.194,-336.444C902.943,-327.359 945.403,-312.939 975.305,-302.783"/>
<polygon fill="midnightblue" stroke="midnightblue" points="976.581,-306.046 984.924,-299.516 974.329,-299.418 976.581,-306.046"/>
</g>
<!-- Node4&#45;&gt;Node3 -->
<g id="edge4" class="edge"><title>Node4&#45;&gt;Node3</title>
<path fill="none" stroke="midnightblue" d="M354.64,-284.579C254.737,-274.264 38,-244.354 38,-179 38,-179 38,-179 38,-121 38,-68.5275 99.0157,-37.8439 141.887,-22.7611"/>
<polygon fill="midnightblue" stroke="midnightblue" points="143.173,-26.0211 151.537,-19.5176 140.943,-19.3859 143.173,-26.0211"/>
</g>
<!-- Node5 -->
<g id="node5" class="node"><title>Node5</title>
<g id="a_node5"><a xlink:href="../../df/dee/Debug_8hpp.html" target="_top" xlink:title=" ">
<polygon fill="white" stroke="black" points="347.5,-224.5 347.5,-243.5 460.5,-243.5 460.5,-224.5 347.5,-224.5"/>
<text text-anchor="middle" x="404" y="-231.5" font-family="Helvetica,sans-Serif" font-size="10.00">AH/Debug/Debug.hpp</text>
</a>
</g>
</g>
<!-- Node4&#45;&gt;Node5 -->
<g id="edge5" class="edge"><title>Node4&#45;&gt;Node5</title>
<path fill="none" stroke="midnightblue" d="M404,-280.083C404,-273.006 404,-262.861 404,-253.986"/>
<polygon fill="midnightblue" stroke="midnightblue" points="407.5,-253.751 404,-243.751 400.5,-253.751 407.5,-253.751"/>
</g>
<!-- Node5&#45;&gt;Node3 -->
<g id="edge6" class="edge"><title>Node5&#45;&gt;Node3</title>
<path fill="none" stroke="midnightblue" d="M351.917,-224.492C278.579,-209.345 147.828,-169.963 94,-76 79.9438,-51.463 111.78,-33.5931 141.206,-22.8703"/>
<polygon fill="midnightblue" stroke="midnightblue" points="142.696,-26.0596 151.022,-19.5085 140.428,-19.4372 142.696,-26.0596"/>
</g>
<!-- Node6 -->
<g id="node6" class="node"><title>Node6</title>
<g id="a_node6"><a xlink:href="../../dd/d80/PrintStream_8hpp.html" target="_top" xlink:title=" ">
<polygon fill="white" stroke="black" points="103.5,-56.5 103.5,-75.5 262.5,-75.5 262.5,-56.5 103.5,-56.5"/>
<text text-anchor="middle" x="183" y="-63.5" font-family="Helvetica,sans-Serif" font-size="10.00">AH/PrintStream/PrintStream.hpp</text>
</a>
</g>
</g>
<!-- Node5&#45;&gt;Node6 -->
<g id="edge7" class="edge"><title>Node5&#45;&gt;Node6</title>
<path fill="none" stroke="midnightblue" d="M382.436,-224.45C363.36,-216.405 335.189,-203.324 313,-188 266.5,-155.887 219.948,-107.734 197.253,-82.9697"/>
<polygon fill="midnightblue" stroke="midnightblue" points="199.815,-80.5841 190.506,-75.5248 194.628,-85.2849 199.815,-80.5841"/>
</g>
<!-- Node8 -->
<g id="node8" class="node"><title>Node8</title>
<g id="a_node8"><a xlink:href="../../d2/dd5/SettingsWrapper_8hpp.html" target="_top" xlink:title=" ">
<polygon fill="white" stroke="black" points="322,-168.5 322,-187.5 486,-187.5 486,-168.5 322,-168.5"/>
<text text-anchor="middle" x="404" y="-175.5" font-family="Helvetica,sans-Serif" font-size="10.00">AH/Settings/SettingsWrapper.hpp</text>
</a>
</g>
</g>
<!-- Node5&#45;&gt;Node8 -->
<g id="edge10" class="edge"><title>Node5&#45;&gt;Node8</title>
<path fill="none" stroke="midnightblue" d="M398.834,-224.083C397.324,-216.927 396.894,-206.635 397.542,-197.691"/>
<polygon fill="midnightblue" stroke="midnightblue" points="401.015,-198.126 398.869,-187.751 394.077,-197.2 401.015,-198.126"/>
</g>
<!-- Node17 -->
<g id="node17" class="node"><title>Node17</title>
<g id="a_node17"><a xlink:href="../../d7/d52/DebugVal_8hpp.html" target="_top" xlink:title=" ">
<polygon fill="white" stroke="black" points="504,-168.5 504,-187.5 582,-187.5 582,-168.5 504,-168.5"/>
<text text-anchor="middle" x="543" y="-175.5" font-family="Helvetica,sans-Serif" font-size="10.00">DebugVal.hpp</text>
</a>
</g>
</g>
<!-- Node5&#45;&gt;Node17 -->
<g id="edge25" class="edge"><title>Node5&#45;&gt;Node17</title>
<path fill="none" stroke="midnightblue" d="M426.025,-224.444C449.104,-215.478 485.562,-201.314 511.641,-191.183"/>
<polygon fill="midnightblue" stroke="midnightblue" points="513.024,-194.4 521.078,-187.516 510.489,-187.875 513.024,-194.4"/>
</g>
<!-- Node6&#45;&gt;Node3 -->
<g id="edge8" class="edge"><title>Node6&#45;&gt;Node3</title>
<path fill="none" stroke="midnightblue" d="M183,-56.083C183,-49.0059 183,-38.8611 183,-29.9865"/>
<polygon fill="midnightblue" stroke="midnightblue" points="186.5,-29.751 183,-19.7511 179.5,-29.7511 186.5,-29.751"/>
</g>
<!-- Node7 -->
<g id="node7" class="node"><title>Node7</title>
<g id="a_node7"><a xlink:title=" ">
<polygon fill="white" stroke="#bfbfbf" points="316,-0.5 316,-19.5 374,-19.5 374,-0.5 316,-0.5"/>
<text text-anchor="middle" x="345" y="-7.5" font-family="Helvetica,sans-Serif" font-size="10.00">Arduino.h</text>
</a>
</g>
</g>
<!-- Node6&#45;&gt;Node7 -->
<g id="edge9" class="edge"><title>Node6&#45;&gt;Node7</title>
<path fill="none" stroke="midnightblue" d="M208.669,-56.4435C235.923,-47.3591 279.184,-32.9388 309.651,-22.7831"/>
<polygon fill="midnightblue" stroke="midnightblue" points="311.071,-25.9992 319.451,-19.5164 308.857,-19.3584 311.071,-25.9992"/>
</g>
<!-- Node8&#45;&gt;Node3 -->
<g id="edge11" class="edge"><title>Node8&#45;&gt;Node3</title>
<path fill="none" stroke="midnightblue" d="M395.958,-168.226C376.205,-147.018 323.105,-92.0649 271,-56 252.667,-43.3105 230.273,-31.9094 212.664,-23.758"/>
<polygon fill="midnightblue" stroke="midnightblue" points="213.983,-20.5131 203.43,-19.5762 211.095,-26.8898 213.983,-20.5131"/>
</g>
<!-- Node8&#45;&gt;Node5 -->
<g id="edge24" class="edge"><title>Node8&#45;&gt;Node5</title>
<path fill="none" stroke="midnightblue" d="M409.131,-187.751C410.657,-194.858 411.104,-205.136 410.472,-214.101"/>
<polygon fill="midnightblue" stroke="midnightblue" points="406.993,-213.713 409.166,-224.083 413.934,-214.622 406.993,-213.713"/>
</g>
<!-- Node9 -->
<g id="node9" class="node"><title>Node9</title>
<g id="a_node9"><a xlink:href="../../dc/dc7/NamespaceSettings_8hpp.html" target="_top" xlink:title=" ">
<polygon fill="white" stroke="black" points="532,-0.5 532,-19.5 656,-19.5 656,-0.5 532,-0.5"/>
<text text-anchor="middle" x="594" y="-7.5" font-family="Helvetica,sans-Serif" font-size="10.00">NamespaceSettings.hpp</text>
</a>
</g>
</g>
<!-- Node8&#45;&gt;Node9 -->
<g id="edge12" class="edge"><title>Node8&#45;&gt;Node9</title>
<path fill="none" stroke="midnightblue" d="M420.093,-168.378C444.311,-155.521 491.694,-130.821 533,-112 571.454,-94.4791 597.446,-111.084 621,-76 631.266,-60.7091 620.085,-40.8928 609.152,-27.1798"/>
<polygon fill="midnightblue" stroke="midnightblue" points="611.745,-24.8262 602.571,-19.5252 606.437,-29.3898 611.745,-24.8262"/>
</g>
<!-- Node10 -->
<g id="node10" class="node"><title>Node10</title>
<g id="a_node10"><a xlink:href="../../db/d02/Settings_8hpp.html" target="_top" xlink:title="All user settings and debugging options can be changed here.">
<polygon fill="white" stroke="black" points="542.5,-112.5 542.5,-131.5 613.5,-131.5 613.5,-112.5 542.5,-112.5"/>
<text text-anchor="middle" x="578" y="-119.5" font-family="Helvetica,sans-Serif" font-size="10.00">Settings.hpp</text>
</a>
</g>
</g>
<!-- Node8&#45;&gt;Node10 -->
<g id="edge13" class="edge"><title>Node8&#45;&gt;Node10</title>
<path fill="none" stroke="midnightblue" d="M431.571,-168.444C461.097,-159.28 508.118,-144.688 540.883,-134.519"/>
<polygon fill="midnightblue" stroke="midnightblue" points="542.045,-137.823 550.558,-131.516 539.97,-131.138 542.045,-137.823"/>
</g>
<!-- Node16 -->
<g id="node16" class="node"><title>Node16</title>
<g id="a_node16"><a xlink:href="../../d9/d98/TeensyUSBTypes_8hpp.html" target="_top" xlink:title=" ">
<polygon fill="white" stroke="black" points="632,-112.5 632,-131.5 800,-131.5 800,-112.5 632,-112.5"/>
<text text-anchor="middle" x="716" y="-119.5" font-family="Helvetica,sans-Serif" font-size="10.00">AH/Teensy/TeensyUSBTypes.hpp</text>
</a>
</g>
</g>
<!-- Node8&#45;&gt;Node16 -->
<g id="edge23" class="edge"><title>Node8&#45;&gt;Node16</title>
<path fill="none" stroke="midnightblue" d="M453.437,-168.444C508.664,-158.885 598.021,-143.419 656.895,-133.23"/>
<polygon fill="midnightblue" stroke="midnightblue" points="657.537,-136.671 666.794,-131.516 656.344,-129.773 657.537,-136.671"/>
</g>
<!-- Node11 -->
<g id="node11" class="node"><title>Node11</title>
<g id="a_node11"><a xlink:href="../../dc/d50/Frequency_8hpp.html" target="_top" xlink:title=" ">
<polygon fill="white" stroke="black" points="484,-56.5 484,-75.5 612,-75.5 612,-56.5 484,-56.5"/>
<text text-anchor="middle" x="548" y="-63.5" font-family="Helvetica,sans-Serif" font-size="10.00">AH/Types/Frequency.hpp</text>
</a>
</g>
</g>
<!-- Node10&#45;&gt;Node11 -->
<g id="edge14" class="edge"><title>Node10&#45;&gt;Node11</title>
<path fill="none" stroke="midnightblue" d="M573.046,-112.083C568.896,-104.613 562.847,-93.7244 557.733,-84.5199"/>
<polygon fill="midnightblue" stroke="midnightblue" points="560.778,-82.7929 552.862,-75.7511 554.659,-86.1924 560.778,-82.7929"/>
</g>
<!-- Node12 -->
<g id="node12" class="node"><title>Node12</title>
<g id="a_node12"><a xlink:href="../../d7/d7c/ADCConfig_8hpp.html" target="_top" xlink:title="This file contains the platform&#45;specific ADC resolutions. By default, the library automatically selec...">
<polygon fill="white" stroke="black" points="318,-56.5 318,-75.5 466,-75.5 466,-56.5 318,-56.5"/>
<text text-anchor="middle" x="392" y="-63.5" font-family="Helvetica,sans-Serif" font-size="10.00">AH/Hardware/ADCConfig.hpp</text>
</a>
</g>
</g>
<!-- Node10&#45;&gt;Node12 -->
<g id="edge17" class="edge"><title>Node10&#45;&gt;Node12</title>
<path fill="none" stroke="midnightblue" d="M548.528,-112.444C516.829,-103.241 466.268,-88.5617 431.225,-78.3879"/>
<polygon fill="midnightblue" stroke="midnightblue" points="431.914,-74.9434 421.334,-75.5164 429.962,-81.6658 431.914,-74.9434"/>
</g>
<!-- Node13 -->
<g id="node13" class="node"><title>Node13</title>
<g id="a_node13"><a xlink:title=" ">
<polygon fill="white" stroke="#bfbfbf" points="668,-56.5 668,-75.5 716,-75.5 716,-56.5 668,-56.5"/>
<text text-anchor="middle" x="692" y="-63.5" font-family="Helvetica,sans-Serif" font-size="10.00">limits.h</text>
</a>
</g>
</g>
<!-- Node10&#45;&gt;Node13 -->
<g id="edge20" class="edge"><title>Node10&#45;&gt;Node13</title>
<path fill="none" stroke="midnightblue" d="M596.064,-112.444C614.575,-103.675 643.581,-89.9355 664.855,-79.8579"/>
<polygon fill="midnightblue" stroke="midnightblue" points="666.482,-82.9604 674.021,-75.5164 663.485,-76.6343 666.482,-82.9604"/>
</g>
<!-- Node10&#45;&gt;Node14 -->
<g id="edge21" class="edge"><title>Node10&#45;&gt;Node14</title>
<path fill="none" stroke="midnightblue" d="M613.719,-113.659C661.769,-103.758 745.627,-86.3752 791.867,-75.9428"/>
<polygon fill="midnightblue" stroke="midnightblue" points="792.712,-79.3401 801.681,-73.7013 791.153,-72.5158 792.712,-79.3401"/>
</g>
<!-- Node15 -->
<g id="node15" class="node"><title>Node15</title>
<g id="a_node15"><a xlink:title=" ">
<polygon fill="white" stroke="#bfbfbf" points="734.5,-56.5 734.5,-75.5 783.5,-75.5 783.5,-56.5 734.5,-56.5"/>
<text text-anchor="middle" x="759" y="-63.5" font-family="Helvetica,sans-Serif" font-size="10.00">stdint.h</text>
</a>
</g>
</g>
<!-- Node10&#45;&gt;Node15 -->
<g id="edge22" class="edge"><title>Node10&#45;&gt;Node15</title>
<path fill="none" stroke="midnightblue" d="M606.68,-112.444C638.569,-102.93 690.073,-87.5637 724.232,-77.3728"/>
<polygon fill="midnightblue" stroke="midnightblue" points="725.653,-80.6013 734.235,-74.3884 723.652,-73.8935 725.653,-80.6013"/>
</g>
<!-- Node11&#45;&gt;Node3 -->
<g id="edge15" class="edge"><title>Node11&#45;&gt;Node3</title>
<path fill="none" stroke="midnightblue" d="M490.165,-56.4435C425.156,-46.8259 319.723,-31.2275 250.869,-21.0409"/>
<polygon fill="midnightblue" stroke="midnightblue" points="250.969,-17.5177 240.565,-19.5164 249.945,-24.4423 250.969,-17.5177"/>
</g>
<!-- Node11&#45;&gt;Node9 -->
<g id="edge16" class="edge"><title>Node11&#45;&gt;Node9</title>
<path fill="none" stroke="midnightblue" d="M555.596,-56.083C562.227,-48.2982 572.021,-36.8015 580.058,-27.3665"/>
<polygon fill="midnightblue" stroke="midnightblue" points="582.725,-29.6332 586.545,-19.7511 577.396,-25.0939 582.725,-29.6332"/>
</g>
<!-- Node12&#45;&gt;Node3 -->
<g id="edge18" class="edge"><title>Node12&#45;&gt;Node3</title>
<path fill="none" stroke="midnightblue" d="M358.883,-56.4435C322.882,-47.1419 265.23,-32.246 225.814,-22.062"/>
<polygon fill="midnightblue" stroke="midnightblue" points="226.519,-18.6294 215.962,-19.5164 224.768,-25.4068 226.519,-18.6294"/>
</g>
<!-- Node12&#45;&gt;Node7 -->
<g id="edge19" class="edge"><title>Node12&#45;&gt;Node7</title>
<path fill="none" stroke="midnightblue" d="M384.239,-56.083C377.463,-48.2982 367.457,-36.8015 359.245,-27.3665"/>
<polygon fill="midnightblue" stroke="midnightblue" points="361.822,-24.9963 352.617,-19.7511 356.542,-29.592 361.822,-24.9963"/>
</g>
</g>
</svg>
