<?xml version="1.0" encoding="UTF-8" standalone="no"?>
<!DOCTYPE svg PUBLIC "-//W3C//DTD SVG 1.1//EN"
 "http://www.w3.org/Graphics/SVG/1.1/DTD/svg11.dtd">
<!-- Generated by graphviz version 2.38.0 (20140413.2041)
 -->
<!-- Title: SMA.hpp Pages: 1 -->
<svg width="1059pt" height="420pt"
 viewBox="0.00 0.00 1058.50 420.00" xmlns="http://www.w3.org/2000/svg" xmlns:xlink="http://www.w3.org/1999/xlink">
<g id="graph0" class="graph" transform="scale(1 1) rotate(0) translate(4 416)">
<title>SMA.hpp</title>
<polygon fill="white" stroke="none" points="-4,4 -4,-416 1054.5,-416 1054.5,4 -4,4"/>
<!-- Node1 -->
<g id="node1" class="node"><title>Node1</title>
<g id="a_node1"><a xlink:title=" ">
<polygon fill="#bfbfbf" stroke="black" points="910,-392.5 910,-411.5 967,-411.5 967,-392.5 910,-392.5"/>
<text text-anchor="middle" x="938.5" y="-399.5" font-family="Helvetica,sans-Serif" font-size="10.00">SMA.hpp</text>
</a>
</g>
</g>
<!-- Node2 -->
<g id="node2" class="node"><title>Node2</title>
<g id="a_node2"><a xlink:href="../../de/d76/Array_8hpp.html" target="_top" xlink:title=" ">
<polygon fill="white" stroke="black" points="774.5,-336.5 774.5,-355.5 900.5,-355.5 900.5,-336.5 774.5,-336.5"/>
<text text-anchor="middle" x="837.5" y="-343.5" font-family="Helvetica,sans-Serif" font-size="10.00">AH/Containers/Array.hpp</text>
</a>
</g>
</g>
<!-- Node1&#45;&gt;Node2 -->
<g id="edge1" class="edge"><title>Node1&#45;&gt;Node2</title>
<path fill="none" stroke="midnightblue" d="M922.273,-392.324C906.149,-383.703 881.2,-370.364 862.536,-360.386"/>
<polygon fill="midnightblue" stroke="midnightblue" points="864.156,-357.283 853.687,-355.655 860.856,-363.456 864.156,-357.283"/>
</g>
<!-- Node17 -->
<g id="node17" class="node"><title>Node17</title>
<g id="a_node17"><a xlink:title=" ">
<polygon fill="white" stroke="#bfbfbf" points="898,-280.5 898,-299.5 999,-299.5 999,-280.5 898,-280.5"/>
<text text-anchor="middle" x="948.5" y="-287.5" font-family="Helvetica,sans-Serif" font-size="10.00">AH/STL/type_traits</text>
</a>
</g>
</g>
<!-- Node1&#45;&gt;Node17 -->
<g id="edge24" class="edge"><title>Node1&#45;&gt;Node17</title>
<path fill="none" stroke="midnightblue" d="M939.285,-392.368C940.898,-374.617 944.621,-333.666 946.809,-309.597"/>
<polygon fill="midnightblue" stroke="midnightblue" points="950.299,-309.867 947.719,-299.591 943.328,-309.233 950.299,-309.867"/>
</g>
<!-- Node19 -->
<g id="node19" class="node"><title>Node19</title>
<g id="a_node19"><a xlink:title=" ">
<polygon fill="white" stroke="#bfbfbf" points="966.5,-336.5 966.5,-355.5 1050.5,-355.5 1050.5,-336.5 966.5,-336.5"/>
<text text-anchor="middle" x="1008.5" y="-343.5" font-family="Helvetica,sans-Serif" font-size="10.00">AH/STL/cstdint</text>
</a>
</g>
</g>
<!-- Node1&#45;&gt;Node19 -->
<g id="edge23" class="edge"><title>Node1&#45;&gt;Node19</title>
<path fill="none" stroke="midnightblue" d="M949.747,-392.324C960.297,-384.185 976.301,-371.839 988.942,-362.087"/>
<polygon fill="midnightblue" stroke="midnightblue" points="991.269,-364.713 997.049,-355.834 986.993,-359.171 991.269,-364.713"/>
</g>
<!-- Node3 -->
<g id="node3" class="node"><title>Node3</title>
<g id="a_node3"><a xlink:href="../../d1/d93/Error_8hpp.html" target="_top" xlink:title=" ">
<polygon fill="white" stroke="black" points="472.5,-280.5 472.5,-299.5 570.5,-299.5 570.5,-280.5 472.5,-280.5"/>
<text text-anchor="middle" x="521.5" y="-287.5" font-family="Helvetica,sans-Serif" font-size="10.00">AH/Error/Error.hpp</text>
</a>
</g>
</g>
<!-- Node2&#45;&gt;Node3 -->
<g id="edge2" class="edge"><title>Node2&#45;&gt;Node3</title>
<path fill="none" stroke="midnightblue" d="M787.429,-336.444C731.248,-326.843 640.193,-311.283 580.576,-301.095"/>
<polygon fill="midnightblue" stroke="midnightblue" points="581.004,-297.618 570.557,-299.383 579.825,-304.518 581.004,-297.618"/>
</g>
<!-- Node13 -->
<g id="node13" class="node"><title>Node13</title>
<g id="a_node13"><a xlink:title=" ">
<polygon fill="white" stroke="#bfbfbf" points="648.5,-56.5 648.5,-75.5 700.5,-75.5 700.5,-56.5 648.5,-56.5"/>
<text text-anchor="middle" x="674.5" y="-63.5" font-family="Helvetica,sans-Serif" font-size="10.00">stddef.h</text>
</a>
</g>
</g>
<!-- Node2&#45;&gt;Node13 -->
<g id="edge22" class="edge"><title>Node2&#45;&gt;Node13</title>
<path fill="none" stroke="midnightblue" d="M823.582,-336.314C811.8,-328.27 795.307,-315.269 785.5,-300 769.235,-274.675 766.5,-265.098 766.5,-235 766.5,-235 766.5,-235 766.5,-177 766.5,-134.502 725.594,-99.77 698.334,-81.3436"/>
<polygon fill="midnightblue" stroke="midnightblue" points="699.985,-78.2424 689.692,-75.732 696.173,-84.1133 699.985,-78.2424"/>
</g>
<!-- Node2&#45;&gt;Node17 -->
<g id="edge20" class="edge"><title>Node2&#45;&gt;Node17</title>
<path fill="none" stroke="midnightblue" d="M855.334,-336.324C873.216,-327.625 900.975,-314.12 921.546,-304.113"/>
<polygon fill="midnightblue" stroke="midnightblue" points="923.249,-307.177 930.71,-299.655 920.187,-300.882 923.249,-307.177"/>
</g>
<!-- Node18 -->
<g id="node18" class="node"><title>Node18</title>
<g id="a_node18"><a xlink:title=" ">
<polygon fill="white" stroke="#bfbfbf" points="795,-280.5 795,-299.5 880,-299.5 880,-280.5 795,-280.5"/>
<text text-anchor="middle" x="837.5" y="-287.5" font-family="Helvetica,sans-Serif" font-size="10.00">AH/STL/iterator</text>
</a>
</g>
</g>
<!-- Node2&#45;&gt;Node18 -->
<g id="edge21" class="edge"><title>Node2&#45;&gt;Node18</title>
<path fill="none" stroke="midnightblue" d="M837.5,-336.083C837.5,-329.006 837.5,-318.861 837.5,-309.986"/>
<polygon fill="midnightblue" stroke="midnightblue" points="841,-309.751 837.5,-299.751 834,-309.751 841,-309.751"/>
</g>
<!-- Node4 -->
<g id="node4" class="node"><title>Node4</title>
<g id="a_node4"><a xlink:href="../../df/dee/Debug_8hpp.html" target="_top" xlink:title=" ">
<polygon fill="white" stroke="black" points="256,-224.5 256,-243.5 369,-243.5 369,-224.5 256,-224.5"/>
<text text-anchor="middle" x="312.5" y="-231.5" font-family="Helvetica,sans-Serif" font-size="10.00">AH/Debug/Debug.hpp</text>
</a>
</g>
</g>
<!-- Node3&#45;&gt;Node4 -->
<g id="edge3" class="edge"><title>Node3&#45;&gt;Node4</title>
<path fill="none" stroke="midnightblue" d="M488.383,-280.444C452.382,-271.142 394.73,-256.246 355.314,-246.062"/>
<polygon fill="midnightblue" stroke="midnightblue" points="356.019,-242.629 345.462,-243.516 354.268,-249.407 356.019,-242.629"/>
</g>
<!-- Node5 -->
<g id="node5" class="node"><title>Node5</title>
<g id="a_node5"><a xlink:href="../../dd/d80/PrintStream_8hpp.html" target="_top" xlink:title=" ">
<polygon fill="white" stroke="black" points="0,-112.5 0,-131.5 159,-131.5 159,-112.5 0,-112.5"/>
<text text-anchor="middle" x="79.5" y="-119.5" font-family="Helvetica,sans-Serif" font-size="10.00">AH/PrintStream/PrintStream.hpp</text>
</a>
</g>
</g>
<!-- Node4&#45;&gt;Node5 -->
<g id="edge4" class="edge"><title>Node4&#45;&gt;Node5</title>
<path fill="none" stroke="midnightblue" d="M255.796,-229.363C196.111,-224.267 107.759,-212.695 85.5,-188 74.4838,-175.778 74.0332,-156.512 75.7071,-142.123"/>
<polygon fill="midnightblue" stroke="midnightblue" points="79.2257,-142.283 77.3438,-131.857 72.313,-141.181 79.2257,-142.283"/>
</g>
<!-- Node6 -->
<g id="node6" class="node"><title>Node6</title>
<g id="a_node6"><a xlink:title=" ">
<polygon fill="white" stroke="#bfbfbf" points="145.5,-0.5 145.5,-19.5 203.5,-19.5 203.5,-0.5 145.5,-0.5"/>
<text text-anchor="middle" x="174.5" y="-7.5" font-family="Helvetica,sans-Serif" font-size="10.00">Arduino.h</text>
</a>
</g>
</g>
<!-- Node4&#45;&gt;Node6 -->
<g id="edge18" class="edge"><title>Node4&#45;&gt;Node6</title>
<path fill="none" stroke="midnightblue" d="M303.968,-224.246C282.373,-201.628 225.033,-138.623 193.5,-76 186.064,-61.2333 181.064,-43.0761 178.068,-29.7092"/>
<polygon fill="midnightblue" stroke="midnightblue" points="181.469,-28.8694 176.013,-19.7872 174.614,-30.2893 181.469,-28.8694"/>
</g>
<!-- Node7 -->
<g id="node7" class="node"><title>Node7</title>
<g id="a_node7"><a xlink:href="../../d2/dd5/SettingsWrapper_8hpp.html" target="_top" xlink:title=" ">
<polygon fill="white" stroke="black" points="343.5,-168.5 343.5,-187.5 507.5,-187.5 507.5,-168.5 343.5,-168.5"/>
<text text-anchor="middle" x="425.5" y="-175.5" font-family="Helvetica,sans-Serif" font-size="10.00">AH/Settings/SettingsWrapper.hpp</text>
</a>
</g>
</g>
<!-- Node4&#45;&gt;Node7 -->
<g id="edge6" class="edge"><title>Node4&#45;&gt;Node7</title>
<path fill="none" stroke="midnightblue" d="M325.541,-224.324C342.083,-215.507 370.626,-201.753 393.081,-191.707"/>
<polygon fill="midnightblue" stroke="midnightblue" points="394.54,-194.89 402.279,-187.655 391.717,-188.484 394.54,-194.89"/>
</g>
<!-- Node16 -->
<g id="node16" class="node"><title>Node16</title>
<g id="a_node16"><a xlink:href="../../d7/d52/DebugVal_8hpp.html" target="_top" xlink:title=" ">
<polygon fill="white" stroke="black" points="94.5,-168.5 94.5,-187.5 172.5,-187.5 172.5,-168.5 94.5,-168.5"/>
<text text-anchor="middle" x="133.5" y="-175.5" font-family="Helvetica,sans-Serif" font-size="10.00">DebugVal.hpp</text>
</a>
</g>
</g>
<!-- Node4&#45;&gt;Node16 -->
<g id="edge19" class="edge"><title>Node4&#45;&gt;Node16</title>
<path fill="none" stroke="midnightblue" d="M284.137,-224.444C253.762,-215.28 205.39,-200.688 171.684,-190.519"/>
<polygon fill="midnightblue" stroke="midnightblue" points="172.315,-187.054 161.73,-187.516 170.293,-193.756 172.315,-187.054"/>
</g>
<!-- Node5&#45;&gt;Node6 -->
<g id="edge5" class="edge"><title>Node5&#45;&gt;Node6</title>
<path fill="none" stroke="midnightblue" d="M86.9545,-112.368C102.771,-94.0547 139.912,-51.0489 160.369,-27.3624"/>
<polygon fill="midnightblue" stroke="midnightblue" points="163.193,-29.4474 167.08,-19.5914 157.895,-24.872 163.193,-29.4474"/>
</g>
<!-- Node7&#45;&gt;Node4 -->
<g id="edge17" class="edge"><title>Node7&#45;&gt;Node4</title>
<path fill="none" stroke="midnightblue" d="M412.759,-187.516C396.222,-196.349 367.367,-210.255 344.75,-220.368"/>
<polygon fill="midnightblue" stroke="midnightblue" points="343.236,-217.21 335.494,-224.444 346.056,-223.617 343.236,-217.21"/>
</g>
<!-- Node8 -->
<g id="node8" class="node"><title>Node8</title>
<g id="a_node8"><a xlink:href="../../dc/dc7/NamespaceSettings_8hpp.html" target="_top" xlink:title=" ">
<polygon fill="white" stroke="black" points="585.5,-0.5 585.5,-19.5 709.5,-19.5 709.5,-0.5 585.5,-0.5"/>
<text text-anchor="middle" x="647.5" y="-7.5" font-family="Helvetica,sans-Serif" font-size="10.00">NamespaceSettings.hpp</text>
</a>
</g>
</g>
<!-- Node7&#45;&gt;Node8 -->
<g id="edge7" class="edge"><title>Node7&#45;&gt;Node8</title>
<path fill="none" stroke="midnightblue" d="M507.715,-173.279C553.822,-168.268 611.029,-156.998 656.5,-132 692.586,-112.161 728.204,-92.6873 709.5,-56 702.5,-42.2698 689.134,-31.7496 676.6,-24.3465"/>
<polygon fill="midnightblue" stroke="midnightblue" points="678.178,-21.2204 667.723,-19.5055 674.826,-27.366 678.178,-21.2204"/>
</g>
<!-- Node9 -->
<g id="node9" class="node"><title>Node9</title>
<g id="a_node9"><a xlink:href="../../db/d02/Settings_8hpp.html" target="_top" xlink:title="All user settings and debugging options can be changed here.">
<polygon fill="white" stroke="black" points="390,-112.5 390,-131.5 461,-131.5 461,-112.5 390,-112.5"/>
<text text-anchor="middle" x="425.5" y="-119.5" font-family="Helvetica,sans-Serif" font-size="10.00">Settings.hpp</text>
</a>
</g>
</g>
<!-- Node7&#45;&gt;Node9 -->
<g id="edge8" class="edge"><title>Node7&#45;&gt;Node9</title>
<path fill="none" stroke="midnightblue" d="M425.5,-168.083C425.5,-161.006 425.5,-150.861 425.5,-141.986"/>
<polygon fill="midnightblue" stroke="midnightblue" points="429,-141.751 425.5,-131.751 422,-141.751 429,-141.751"/>
</g>
<!-- Node15 -->
<g id="node15" class="node"><title>Node15</title>
<g id="a_node15"><a xlink:href="../../d9/d98/TeensyUSBTypes_8hpp.html" target="_top" xlink:title=" ">
<polygon fill="white" stroke="black" points="479.5,-112.5 479.5,-131.5 647.5,-131.5 647.5,-112.5 479.5,-112.5"/>
<text text-anchor="middle" x="563.5" y="-119.5" font-family="Helvetica,sans-Serif" font-size="10.00">AH/Teensy/TeensyUSBTypes.hpp</text>
</a>
</g>
</g>
<!-- Node7&#45;&gt;Node15 -->
<g id="edge16" class="edge"><title>Node7&#45;&gt;Node15</title>
<path fill="none" stroke="midnightblue" d="M447.367,-168.444C470.279,-159.478 506.475,-145.314 532.366,-135.183"/>
<polygon fill="midnightblue" stroke="midnightblue" points="533.699,-138.42 541.736,-131.516 531.148,-131.901 533.699,-138.42"/>
</g>
<!-- Node10 -->
<g id="node10" class="node"><title>Node10</title>
<g id="a_node10"><a xlink:href="../../dc/d50/Frequency_8hpp.html" target="_top" xlink:title=" ">
<polygon fill="white" stroke="black" points="502.5,-56.5 502.5,-75.5 630.5,-75.5 630.5,-56.5 502.5,-56.5"/>
<text text-anchor="middle" x="566.5" y="-63.5" font-family="Helvetica,sans-Serif" font-size="10.00">AH/Types/Frequency.hpp</text>
</a>
</g>
</g>
<!-- Node9&#45;&gt;Node10 -->
<g id="edge9" class="edge"><title>Node9&#45;&gt;Node10</title>
<path fill="none" stroke="midnightblue" d="M447.842,-112.444C471.253,-103.478 508.236,-89.314 534.69,-79.1827"/>
<polygon fill="midnightblue" stroke="midnightblue" points="536.176,-82.3615 544.263,-75.5164 533.672,-75.8245 536.176,-82.3615"/>
</g>
<!-- Node11 -->
<g id="node11" class="node"><title>Node11</title>
<g id="a_node11"><a xlink:href="../../d7/d7c/ADCConfig_8hpp.html" target="_top" xlink:title="This file contains the platform&#45;specific ADC resolutions. By default, the library automatically selec...">
<polygon fill="white" stroke="black" points="202.5,-56.5 202.5,-75.5 350.5,-75.5 350.5,-56.5 202.5,-56.5"/>
<text text-anchor="middle" x="276.5" y="-63.5" font-family="Helvetica,sans-Serif" font-size="10.00">AH/Hardware/ADCConfig.hpp</text>
</a>
</g>
</g>
<!-- Node9&#45;&gt;Node11 -->
<g id="edge11" class="edge"><title>Node9&#45;&gt;Node11</title>
<path fill="none" stroke="midnightblue" d="M401.891,-112.444C377.042,-103.438 337.726,-89.1891 309.746,-79.049"/>
<polygon fill="midnightblue" stroke="midnightblue" points="310.593,-75.6332 299.999,-75.5164 308.208,-82.2144 310.593,-75.6332"/>
</g>
<!-- Node12 -->
<g id="node12" class="node"><title>Node12</title>
<g id="a_node12"><a xlink:title=" ">
<polygon fill="white" stroke="#bfbfbf" points="368.5,-56.5 368.5,-75.5 416.5,-75.5 416.5,-56.5 368.5,-56.5"/>
<text text-anchor="middle" x="392.5" y="-63.5" font-family="Helvetica,sans-Serif" font-size="10.00">limits.h</text>
</a>
</g>
</g>
<!-- Node9&#45;&gt;Node12 -->
<g id="edge13" class="edge"><title>Node9&#45;&gt;Node12</title>
<path fill="none" stroke="midnightblue" d="M420.051,-112.083C415.486,-104.613 408.832,-93.7244 403.207,-84.5199"/>
<polygon fill="midnightblue" stroke="midnightblue" points="406.049,-82.4588 397.848,-75.7511 400.076,-86.109 406.049,-82.4588"/>
</g>
<!-- Node9&#45;&gt;Node13 -->
<g id="edge14" class="edge"><title>Node9&#45;&gt;Node13</title>
<path fill="none" stroke="midnightblue" d="M461.226,-113.688C509.183,-103.842 592.799,-86.5538 638.263,-76.1951"/>
<polygon fill="midnightblue" stroke="midnightblue" points="639.203,-79.5702 648.158,-73.9074 637.626,-72.7501 639.203,-79.5702"/>
</g>
<!-- Node14 -->
<g id="node14" class="node"><title>Node14</title>
<g id="a_node14"><a xlink:title=" ">
<polygon fill="white" stroke="#bfbfbf" points="435,-56.5 435,-75.5 484,-75.5 484,-56.5 435,-56.5"/>
<text text-anchor="middle" x="459.5" y="-63.5" font-family="Helvetica,sans-Serif" font-size="10.00">stdint.h</text>
</a>
</g>
</g>
<!-- Node9&#45;&gt;Node14 -->
<g id="edge15" class="edge"><title>Node9&#45;&gt;Node14</title>
<path fill="none" stroke="midnightblue" d="M431.114,-112.083C435.867,-104.534 442.818,-93.4948 448.652,-84.2298"/>
<polygon fill="midnightblue" stroke="midnightblue" points="451.624,-86.0783 453.99,-75.7511 445.7,-82.3486 451.624,-86.0783"/>
</g>
<!-- Node10&#45;&gt;Node8 -->
<g id="edge10" class="edge"><title>Node10&#45;&gt;Node8</title>
<path fill="none" stroke="midnightblue" d="M579.514,-56.324C592.032,-47.979 611.182,-35.2122 625.971,-25.3524"/>
<polygon fill="midnightblue" stroke="midnightblue" points="628.139,-28.1137 634.518,-19.6545 624.256,-22.2894 628.139,-28.1137"/>
</g>
<!-- Node11&#45;&gt;Node6 -->
<g id="edge12" class="edge"><title>Node11&#45;&gt;Node6</title>
<path fill="none" stroke="midnightblue" d="M260.112,-56.324C243.829,-47.7034 218.633,-34.3643 199.784,-24.3855"/>
<polygon fill="midnightblue" stroke="midnightblue" points="201.323,-21.2402 190.847,-19.6545 198.048,-27.4267 201.323,-21.2402"/>
</g>
</g>
</svg>
