<?xml version="1.0" encoding="UTF-8" standalone="no"?>
<!DOCTYPE svg PUBLIC "-//W3C//DTD SVG 1.1//EN"
 "http://www.w3.org/Graphics/SVG/1.1/DTD/svg11.dtd">
<!-- Generated by graphviz version 2.43.0 (0)
 -->
<!-- Title: SMA.hpp Pages: 1 -->
<svg width="1289pt" height="588pt"
 viewBox="0.00 0.00 1288.50 588.00" xmlns="http://www.w3.org/2000/svg" xmlns:xlink="http://www.w3.org/1999/xlink">
<g id="graph0" class="graph" transform="scale(1 1) rotate(0) translate(4 584)">
<title>SMA.hpp</title>
<polygon fill="white" stroke="transparent" points="-4,4 -4,-584 1284.5,-584 1284.5,4 -4,4"/>
<!-- Node1 -->
<g id="node1" class="node">
<title>Node1</title>
<g id="a_node1"><a xlink:title=" ">
<polygon fill="#bfbfbf" stroke="black" points="1036.5,-560.5 1036.5,-579.5 1095.5,-579.5 1095.5,-560.5 1036.5,-560.5"/>
<text text-anchor="middle" x="1066" y="-567.5" font-family="Helvetica,sans-Serif" font-size="10.00">SMA.hpp</text>
</a>
</g>
</g>
<!-- Node2 -->
<g id="node2" class="node">
<title>Node2</title>
<g id="a_node2"><a xlink:href="../../de/d76/Array_8hpp.html" target="_top" xlink:title=" ">
<polygon fill="white" stroke="black" points="752.5,-504.5 752.5,-523.5 887.5,-523.5 887.5,-504.5 752.5,-504.5"/>
<text text-anchor="middle" x="820" y="-511.5" font-family="Helvetica,sans-Serif" font-size="10.00">AH/Containers/Array.hpp</text>
</a>
</g>
</g>
<!-- Node1&#45;&gt;Node2 -->
<g id="edge1" class="edge">
<title>Node1&#45;&gt;Node2</title>
<path fill="none" stroke="midnightblue" d="M1036.33,-562.49C994.84,-553.38 919,-536.73 869.04,-525.76"/>
<polygon fill="midnightblue" stroke="midnightblue" points="869.62,-522.31 859.1,-523.58 868.12,-529.15 869.62,-522.31"/>
</g>
<!-- Node12 -->
<g id="node12" class="node">
<title>Node12</title>
<g id="a_node12"><a xlink:title=" ">
<polygon fill="white" stroke="#bfbfbf" points="892.5,-112.5 892.5,-131.5 999.5,-131.5 999.5,-112.5 892.5,-112.5"/>
<text text-anchor="middle" x="946" y="-119.5" font-family="Helvetica,sans-Serif" font-size="10.00">AH/STL/type_traits</text>
</a>
</g>
</g>
<!-- Node1&#45;&gt;Node12 -->
<g id="edge45" class="edge">
<title>Node1&#45;&gt;Node12</title>
<path fill="none" stroke="midnightblue" d="M1052.34,-560.24C1028.32,-543.64 981,-505.1 981,-459 981,-459 981,-459 981,-233 981,-199.07 965.69,-161.91 955.32,-140.63"/>
<polygon fill="midnightblue" stroke="midnightblue" points="958.36,-138.88 950.72,-131.54 952.12,-142.05 958.36,-138.88"/>
</g>
<!-- Node23 -->
<g id="node23" class="node">
<title>Node23</title>
<g id="a_node23"><a xlink:href="../../dc/d30/Divide_8hpp.html" target="_top" xlink:title=" ">
<polygon fill="white" stroke="black" points="1009,-280.5 1009,-299.5 1123,-299.5 1123,-280.5 1009,-280.5"/>
<text text-anchor="middle" x="1066" y="-287.5" font-family="Helvetica,sans-Serif" font-size="10.00">AH/Math/Divide.hpp</text>
</a>
</g>
</g>
<!-- Node1&#45;&gt;Node23 -->
<g id="edge38" class="edge">
<title>Node1&#45;&gt;Node23</title>
<path fill="none" stroke="midnightblue" d="M1066,-560.44C1066,-541.94 1066,-496.81 1066,-459 1066,-459 1066,-459 1066,-401 1066,-368.95 1066,-331.64 1066,-309.75"/>
<polygon fill="midnightblue" stroke="midnightblue" points="1069.5,-309.56 1066,-299.56 1062.5,-309.56 1069.5,-309.56"/>
</g>
<!-- Node24 -->
<g id="node24" class="node">
<title>Node24</title>
<g id="a_node24"><a xlink:title=" ">
<polygon fill="white" stroke="#bfbfbf" points="1101.5,-224.5 1101.5,-243.5 1188.5,-243.5 1188.5,-224.5 1101.5,-224.5"/>
<text text-anchor="middle" x="1145" y="-231.5" font-family="Helvetica,sans-Serif" font-size="10.00">AH/STL/cstdint</text>
</a>
</g>
</g>
<!-- Node1&#45;&gt;Node24 -->
<g id="edge44" class="edge">
<title>Node1&#45;&gt;Node24</title>
<path fill="none" stroke="midnightblue" d="M1079.66,-560.24C1103.68,-543.64 1151,-505.1 1151,-459 1151,-459 1151,-459 1151,-345 1151,-312.9 1148.42,-275.61 1146.64,-253.73"/>
<polygon fill="midnightblue" stroke="midnightblue" points="1150.11,-253.22 1145.78,-243.55 1143.14,-253.81 1150.11,-253.22"/>
</g>
<!-- Node25 -->
<g id="node25" class="node">
<title>Node25</title>
<g id="a_node25"><a xlink:title=" ">
<polygon fill="white" stroke="#bfbfbf" points="1179.5,-504.5 1179.5,-523.5 1280.5,-523.5 1280.5,-504.5 1179.5,-504.5"/>
<text text-anchor="middle" x="1230" y="-511.5" font-family="Helvetica,sans-Serif" font-size="10.00">AH/STL/algorithm</text>
</a>
</g>
</g>
<!-- Node1&#45;&gt;Node25 -->
<g id="edge43" class="edge">
<title>Node1&#45;&gt;Node25</title>
<path fill="none" stroke="midnightblue" d="M1091.99,-560.44C1119.7,-551.32 1163.75,-536.81 1194.62,-526.65"/>
<polygon fill="midnightblue" stroke="midnightblue" points="1195.73,-529.97 1204.14,-523.52 1193.54,-523.32 1195.73,-529.97"/>
</g>
<!-- Node3 -->
<g id="node3" class="node">
<title>Node3</title>
<g id="a_node3"><a xlink:href="../../d1/d65/Warnings_8hpp.html" target="_top" xlink:title=" ">
<polygon fill="white" stroke="black" points="259.5,-0.5 259.5,-19.5 402.5,-19.5 402.5,-0.5 259.5,-0.5"/>
<text text-anchor="middle" x="331" y="-7.5" font-family="Helvetica,sans-Serif" font-size="10.00">AH/Settings/Warnings.hpp</text>
</a>
</g>
</g>
<!-- Node2&#45;&gt;Node3 -->
<g id="edge2" class="edge">
<title>Node2&#45;&gt;Node3</title>
<path fill="none" stroke="midnightblue" d="M752.37,-509.45C576.43,-499.32 118,-466.8 118,-403 118,-403 118,-403 118,-121 118,-59.3 189.43,-32.17 249.56,-20.27"/>
<polygon fill="midnightblue" stroke="midnightblue" points="250.29,-23.69 259.48,-18.42 249.01,-16.81 250.29,-23.69"/>
</g>
<!-- Node4 -->
<g id="node4" class="node">
<title>Node4</title>
<g id="a_node4"><a xlink:href="../../d1/d93/Error_8hpp.html" target="_top" xlink:title=" ">
<polygon fill="white" stroke="black" points="387,-448.5 387,-467.5 491,-467.5 491,-448.5 387,-448.5"/>
<text text-anchor="middle" x="439" y="-455.5" font-family="Helvetica,sans-Serif" font-size="10.00">AH/Error/Error.hpp</text>
</a>
</g>
</g>
<!-- Node2&#45;&gt;Node4 -->
<g id="edge3" class="edge">
<title>Node2&#45;&gt;Node4</title>
<path fill="none" stroke="midnightblue" d="M759.63,-504.44C689.03,-494.44 572.76,-477.96 501.33,-467.83"/>
<polygon fill="midnightblue" stroke="midnightblue" points="501.52,-464.33 491.13,-466.39 500.54,-471.26 501.52,-464.33"/>
</g>
<!-- Node2&#45;&gt;Node12 -->
<g id="edge36" class="edge">
<title>Node2&#45;&gt;Node12</title>
<path fill="none" stroke="midnightblue" d="M843.42,-504.42C879.11,-489.66 943,-455.86 943,-403 943,-403 943,-403 943,-233 943,-200.94 944.29,-163.63 945.18,-141.74"/>
<polygon fill="midnightblue" stroke="midnightblue" points="948.68,-141.69 945.61,-131.56 941.69,-141.4 948.68,-141.69"/>
</g>
<!-- Node18 -->
<g id="node18" class="node">
<title>Node18</title>
<g id="a_node18"><a xlink:title=" ">
<polygon fill="white" stroke="#bfbfbf" points="859,-224.5 859,-243.5 915,-243.5 915,-224.5 859,-224.5"/>
<text text-anchor="middle" x="887" y="-231.5" font-family="Helvetica,sans-Serif" font-size="10.00">stddef.h</text>
</a>
</g>
</g>
<!-- Node2&#45;&gt;Node18 -->
<g id="edge37" class="edge">
<title>Node2&#45;&gt;Node18</title>
<path fill="none" stroke="midnightblue" d="M824.45,-504.42C833.46,-486.24 853,-442.28 853,-403 853,-403 853,-403 853,-345 853,-311.16 867.87,-273.97 877.94,-252.66"/>
<polygon fill="midnightblue" stroke="midnightblue" points="881.14,-254.08 882.41,-243.56 874.86,-250.99 881.14,-254.08"/>
</g>
<!-- Node22 -->
<g id="node22" class="node">
<title>Node22</title>
<g id="a_node22"><a xlink:title=" ">
<polygon fill="white" stroke="#bfbfbf" points="0,-448.5 0,-467.5 90,-467.5 90,-448.5 0,-448.5"/>
<text text-anchor="middle" x="45" y="-455.5" font-family="Helvetica,sans-Serif" font-size="10.00">AH/STL/iterator</text>
</a>
</g>
</g>
<!-- Node2&#45;&gt;Node22 -->
<g id="edge35" class="edge">
<title>Node2&#45;&gt;Node22</title>
<path fill="none" stroke="midnightblue" d="M752.21,-510.74C624.89,-506.06 341.46,-493.52 104,-468 102.73,-467.86 101.44,-467.72 100.14,-467.57"/>
<polygon fill="midnightblue" stroke="midnightblue" points="100.4,-464.07 90.04,-466.29 99.53,-471.02 100.4,-464.07"/>
</g>
<!-- Node4&#45;&gt;Node3 -->
<g id="edge4" class="edge">
<title>Node4&#45;&gt;Node3</title>
<path fill="none" stroke="midnightblue" d="M390.35,-448.45C309.44,-432.84 156,-396.68 156,-347 156,-347 156,-347 156,-121 156,-64.31 222.63,-35.7 273.67,-22.1"/>
<polygon fill="midnightblue" stroke="midnightblue" points="274.81,-25.42 283.64,-19.58 273.09,-18.64 274.81,-25.42"/>
</g>
<!-- Node5 -->
<g id="node5" class="node">
<title>Node5</title>
<g id="a_node5"><a xlink:href="../../df/dee/Debug_8hpp.html" target="_top" xlink:title=" ">
<polygon fill="white" stroke="black" points="378.5,-392.5 378.5,-411.5 499.5,-411.5 499.5,-392.5 378.5,-392.5"/>
<text text-anchor="middle" x="439" y="-399.5" font-family="Helvetica,sans-Serif" font-size="10.00">AH/Debug/Debug.hpp</text>
</a>
</g>
</g>
<!-- Node4&#45;&gt;Node5 -->
<g id="edge5" class="edge">
<title>Node4&#45;&gt;Node5</title>
<path fill="none" stroke="midnightblue" d="M439,-448.08C439,-441.01 439,-430.86 439,-421.99"/>
<polygon fill="midnightblue" stroke="midnightblue" points="442.5,-421.75 439,-411.75 435.5,-421.75 442.5,-421.75"/>
</g>
<!-- Node5&#45;&gt;Node3 -->
<g id="edge6" class="edge">
<title>Node5&#45;&gt;Node3</title>
<path fill="none" stroke="midnightblue" d="M378.44,-399.25C305.89,-393.54 194,-371.66 194,-291 194,-291 194,-291 194,-121 194,-70 252.45,-38.69 292.99,-23.11"/>
<polygon fill="midnightblue" stroke="midnightblue" points="294.43,-26.31 302.61,-19.58 292.02,-19.74 294.43,-26.31"/>
</g>
<!-- Node6 -->
<g id="node6" class="node">
<title>Node6</title>
<g id="a_node6"><a xlink:href="../../dd/d80/PrintStream_8hpp.html" target="_top" xlink:title=" ">
<polygon fill="white" stroke="black" points="667.5,-224.5 667.5,-243.5 840.5,-243.5 840.5,-224.5 667.5,-224.5"/>
<text text-anchor="middle" x="754" y="-231.5" font-family="Helvetica,sans-Serif" font-size="10.00">AH/PrintStream/PrintStream.hpp</text>
</a>
</g>
</g>
<!-- Node5&#45;&gt;Node6 -->
<g id="edge7" class="edge">
<title>Node5&#45;&gt;Node6</title>
<path fill="none" stroke="midnightblue" d="M499.63,-396.64C541.1,-391.5 596.13,-380.32 639,-356 685.25,-329.76 724.27,-278.98 742.67,-252.32"/>
<polygon fill="midnightblue" stroke="midnightblue" points="745.81,-253.92 748.5,-243.67 740.01,-250.01 745.81,-253.92"/>
</g>
<!-- Node13 -->
<g id="node13" class="node">
<title>Node13</title>
<g id="a_node13"><a xlink:href="../../d2/dd5/SettingsWrapper_8hpp.html" target="_top" xlink:title=" ">
<polygon fill="white" stroke="black" points="350,-336.5 350,-355.5 528,-355.5 528,-336.5 350,-336.5"/>
<text text-anchor="middle" x="439" y="-343.5" font-family="Helvetica,sans-Serif" font-size="10.00">AH/Settings/SettingsWrapper.hpp</text>
</a>
</g>
</g>
<!-- Node5&#45;&gt;Node13 -->
<g id="edge19" class="edge">
<title>Node5&#45;&gt;Node13</title>
<path fill="none" stroke="midnightblue" d="M433.83,-392.08C432.32,-384.93 431.89,-374.64 432.54,-365.69"/>
<polygon fill="midnightblue" stroke="midnightblue" points="436.02,-366.13 433.87,-355.75 429.08,-365.2 436.02,-366.13"/>
</g>
<!-- Node21 -->
<g id="node21" class="node">
<title>Node21</title>
<g id="a_node21"><a xlink:href="../../d7/d52/DebugVal_8hpp.html" target="_top" xlink:title=" ">
<polygon fill="white" stroke="black" points="546,-336.5 546,-355.5 630,-355.5 630,-336.5 546,-336.5"/>
<text text-anchor="middle" x="588" y="-343.5" font-family="Helvetica,sans-Serif" font-size="10.00">DebugVal.hpp</text>
</a>
</g>
</g>
<!-- Node5&#45;&gt;Node21 -->
<g id="edge34" class="edge">
<title>Node5&#45;&gt;Node21</title>
<path fill="none" stroke="midnightblue" d="M462.61,-392.44C487.46,-383.44 526.77,-369.19 554.75,-359.05"/>
<polygon fill="midnightblue" stroke="midnightblue" points="556.29,-362.21 564.5,-355.52 553.91,-355.63 556.29,-362.21"/>
</g>
<!-- Node6&#45;&gt;Node3 -->
<g id="edge9" class="edge">
<title>Node6&#45;&gt;Node3</title>
<path fill="none" stroke="midnightblue" d="M765.13,-224.3C799.05,-196.8 895.84,-110.38 846,-56 831.59,-40.28 554.55,-23.09 412.91,-15.28"/>
<polygon fill="midnightblue" stroke="midnightblue" points="412.71,-11.77 402.53,-14.71 412.33,-18.76 412.71,-11.77"/>
</g>
<!-- Node7 -->
<g id="node7" class="node">
<title>Node7</title>
<g id="a_node7"><a xlink:href="../../dc/dc7/NamespaceSettings_8hpp.html" target="_top" xlink:title=" ">
<polygon fill="white" stroke="black" points="641.5,-56.5 641.5,-75.5 836.5,-75.5 836.5,-56.5 641.5,-56.5"/>
<text text-anchor="middle" x="739" y="-63.5" font-family="Helvetica,sans-Serif" font-size="10.00">AH/Settings/NamespaceSettings.hpp</text>
</a>
</g>
</g>
<!-- Node6&#45;&gt;Node7 -->
<g id="edge8" class="edge">
<title>Node6&#45;&gt;Node7</title>
<path fill="none" stroke="midnightblue" d="M753.19,-224.08C750.83,-197.95 743.9,-121.21 740.68,-85.58"/>
<polygon fill="midnightblue" stroke="midnightblue" points="744.16,-85.21 739.77,-75.57 737.19,-85.84 744.16,-85.21"/>
</g>
<!-- Node8 -->
<g id="node8" class="node">
<title>Node8</title>
<g id="a_node8"><a xlink:href="../../d6/ddf/Arduino-Wrapper_8h.html" target="_top" xlink:title=" ">
<polygon fill="white" stroke="black" points="500,-168.5 500,-187.5 624,-187.5 624,-168.5 500,-168.5"/>
<text text-anchor="middle" x="562" y="-175.5" font-family="Helvetica,sans-Serif" font-size="10.00">AH/Arduino&#45;Wrapper.h</text>
</a>
</g>
</g>
<!-- Node6&#45;&gt;Node8 -->
<g id="edge10" class="edge">
<title>Node6&#45;&gt;Node8</title>
<path fill="none" stroke="midnightblue" d="M723.58,-224.44C690.72,-215.2 638.22,-200.44 602.03,-190.26"/>
<polygon fill="midnightblue" stroke="midnightblue" points="602.85,-186.85 592.28,-187.52 600.96,-193.59 602.85,-186.85"/>
</g>
<!-- Node9 -->
<g id="node9" class="node">
<title>Node9</title>
<g id="a_node9"><a xlink:href="../../d7/d79/MinMaxFix_8hpp.html" target="_top" xlink:title=" ">
<polygon fill="white" stroke="black" points="450,-112.5 450,-131.5 586,-131.5 586,-112.5 450,-112.5"/>
<text text-anchor="middle" x="518" y="-119.5" font-family="Helvetica,sans-Serif" font-size="10.00">AH/Math/MinMaxFix.hpp</text>
</a>
</g>
</g>
<!-- Node8&#45;&gt;Node9 -->
<g id="edge11" class="edge">
<title>Node8&#45;&gt;Node9</title>
<path fill="none" stroke="midnightblue" d="M554.73,-168.08C548.46,-160.38 539.21,-149.03 531.57,-139.65"/>
<polygon fill="midnightblue" stroke="midnightblue" points="534.16,-137.29 525.13,-131.75 528.73,-141.71 534.16,-137.29"/>
</g>
<!-- Node11 -->
<g id="node11" class="node">
<title>Node11</title>
<g id="a_node11"><a xlink:title=" ">
<polygon fill="white" stroke="#bfbfbf" points="525.5,-0.5 525.5,-19.5 588.5,-19.5 588.5,-0.5 525.5,-0.5"/>
<text text-anchor="middle" x="557" y="-7.5" font-family="Helvetica,sans-Serif" font-size="10.00">Arduino.h</text>
</a>
</g>
</g>
<!-- Node8&#45;&gt;Node11 -->
<g id="edge18" class="edge">
<title>Node8&#45;&gt;Node11</title>
<path fill="none" stroke="midnightblue" d="M571.02,-168.34C579.07,-159.93 590.3,-146.36 595,-132 605.51,-99.9 606.6,-87.72 595,-56 590.94,-44.91 582.81,-34.67 575.11,-26.76"/>
<polygon fill="midnightblue" stroke="midnightblue" points="577.36,-24.07 567.71,-19.7 572.53,-29.14 577.36,-24.07"/>
</g>
<!-- Node8&#45;&gt;Node12 -->
<g id="edge17" class="edge">
<title>Node8&#45;&gt;Node12</title>
<path fill="none" stroke="midnightblue" d="M622.85,-168.44C693.6,-158.49 809.86,-142.15 881.95,-132.01"/>
<polygon fill="midnightblue" stroke="midnightblue" points="882.84,-135.42 892.25,-130.56 881.86,-128.48 882.84,-135.42"/>
</g>
<!-- Node9&#45;&gt;Node3 -->
<g id="edge12" class="edge">
<title>Node9&#45;&gt;Node3</title>
<path fill="none" stroke="midnightblue" d="M489.91,-112.42C466.73,-104.7 433.47,-92.1 407,-76 383.97,-62 360.92,-41.07 346.35,-26.77"/>
<polygon fill="midnightblue" stroke="midnightblue" points="348.72,-24.19 339.18,-19.59 343.77,-29.14 348.72,-24.19"/>
</g>
<!-- Node9&#45;&gt;Node7 -->
<g id="edge16" class="edge">
<title>Node9&#45;&gt;Node7</title>
<path fill="none" stroke="midnightblue" d="M553.02,-112.44C591.25,-103.1 652.57,-88.12 694.26,-77.93"/>
<polygon fill="midnightblue" stroke="midnightblue" points="695.26,-81.29 704.15,-75.52 693.6,-74.49 695.26,-81.29"/>
</g>
<!-- Node10 -->
<g id="node10" class="node">
<title>Node10</title>
<g id="a_node10"><a xlink:href="../../d6/d3b/FixArduinoMacros_8hpp.html" target="_top" xlink:title=" ">
<polygon fill="white" stroke="black" points="416,-56.5 416,-75.5 586,-75.5 586,-56.5 416,-56.5"/>
<text text-anchor="middle" x="501" y="-63.5" font-family="Helvetica,sans-Serif" font-size="10.00">AH/Math/FixArduinoMacros.hpp</text>
</a>
</g>
</g>
<!-- Node9&#45;&gt;Node10 -->
<g id="edge13" class="edge">
<title>Node9&#45;&gt;Node10</title>
<path fill="none" stroke="midnightblue" d="M515.19,-112.08C512.92,-104.85 509.63,-94.41 506.79,-85.4"/>
<polygon fill="midnightblue" stroke="midnightblue" points="510.1,-84.24 503.75,-75.75 503.42,-86.34 510.1,-84.24"/>
</g>
<!-- Node10&#45;&gt;Node3 -->
<g id="edge14" class="edge">
<title>Node10&#45;&gt;Node3</title>
<path fill="none" stroke="midnightblue" d="M474.06,-56.44C445.34,-47.32 399.67,-32.81 367.68,-22.65"/>
<polygon fill="midnightblue" stroke="midnightblue" points="368.4,-19.21 357.81,-19.52 366.28,-25.88 368.4,-19.21"/>
</g>
<!-- Node10&#45;&gt;Node11 -->
<g id="edge15" class="edge">
<title>Node10&#45;&gt;Node11</title>
<path fill="none" stroke="midnightblue" d="M510,-56.32C518.19,-48.42 530.51,-36.55 540.47,-26.94"/>
<polygon fill="midnightblue" stroke="midnightblue" points="543.07,-29.29 547.84,-19.83 538.21,-24.26 543.07,-29.29"/>
</g>
<!-- Node13&#45;&gt;Node3 -->
<g id="edge20" class="edge">
<title>Node13&#45;&gt;Node3</title>
<path fill="none" stroke="midnightblue" d="M367.18,-336.49C307.4,-324.92 232,-297.88 232,-235 232,-235 232,-235 232,-121 232,-77.18 275.94,-42.93 305.27,-24.94"/>
<polygon fill="midnightblue" stroke="midnightblue" points="307.36,-27.77 314.21,-19.68 303.81,-21.74 307.36,-27.77"/>
</g>
<!-- Node13&#45;&gt;Node5 -->
<g id="edge33" class="edge">
<title>Node13&#45;&gt;Node5</title>
<path fill="none" stroke="midnightblue" d="M444.13,-355.75C445.66,-362.86 446.1,-373.14 445.47,-382.1"/>
<polygon fill="midnightblue" stroke="midnightblue" points="441.99,-381.71 444.17,-392.08 448.93,-382.62 441.99,-381.71"/>
</g>
<!-- Node13&#45;&gt;Node7 -->
<g id="edge21" class="edge">
<title>Node13&#45;&gt;Node7</title>
<path fill="none" stroke="midnightblue" d="M493.9,-336.49C539.74,-328.47 600.6,-315.4 620,-300 620.59,-299.53 702.42,-138.86 730.02,-84.64"/>
<polygon fill="midnightblue" stroke="midnightblue" points="733.23,-86.05 734.65,-75.55 726.99,-82.87 733.23,-86.05"/>
</g>
<!-- Node14 -->
<g id="node14" class="node">
<title>Node14</title>
<g id="a_node14"><a xlink:href="../../db/d02/Settings_8hpp.html" target="_top" xlink:title="All user settings and debugging options can be changed here.">
<polygon fill="white" stroke="black" points="342.5,-280.5 342.5,-299.5 419.5,-299.5 419.5,-280.5 342.5,-280.5"/>
<text text-anchor="middle" x="381" y="-287.5" font-family="Helvetica,sans-Serif" font-size="10.00">Settings.hpp</text>
</a>
</g>
</g>
<!-- Node13&#45;&gt;Node14 -->
<g id="edge22" class="edge">
<title>Node13&#45;&gt;Node14</title>
<path fill="none" stroke="midnightblue" d="M429.68,-336.32C421.11,-328.34 408.19,-316.31 397.81,-306.65"/>
<polygon fill="midnightblue" stroke="midnightblue" points="400.19,-304.09 390.49,-299.83 395.42,-309.21 400.19,-304.09"/>
</g>
<!-- Node20 -->
<g id="node20" class="node">
<title>Node20</title>
<g id="a_node20"><a xlink:href="../../d9/d98/TeensyUSBTypes_8hpp.html" target="_top" xlink:title=" ">
<polygon fill="white" stroke="black" points="437.5,-280.5 437.5,-299.5 610.5,-299.5 610.5,-280.5 437.5,-280.5"/>
<text text-anchor="middle" x="524" y="-287.5" font-family="Helvetica,sans-Serif" font-size="10.00">AH/Teensy/TeensyUSBTypes.hpp</text>
</a>
</g>
</g>
<!-- Node13&#45;&gt;Node20 -->
<g id="edge32" class="edge">
<title>Node13&#45;&gt;Node20</title>
<path fill="none" stroke="midnightblue" d="M452.66,-336.32C465.92,-327.9 486.27,-314.97 501.85,-305.07"/>
<polygon fill="midnightblue" stroke="midnightblue" points="503.81,-307.97 510.38,-299.65 500.06,-302.06 503.81,-307.97"/>
</g>
<!-- Node15 -->
<g id="node15" class="node">
<title>Node15</title>
<g id="a_node15"><a xlink:href="../../dc/d50/Frequency_8hpp.html" target="_top" xlink:title=" ">
<polygon fill="white" stroke="black" points="260,-112.5 260,-131.5 394,-131.5 394,-112.5 260,-112.5"/>
<text text-anchor="middle" x="327" y="-119.5" font-family="Helvetica,sans-Serif" font-size="10.00">AH/Types/Frequency.hpp</text>
</a>
</g>
</g>
<!-- Node14&#45;&gt;Node15 -->
<g id="edge23" class="edge">
<title>Node14&#45;&gt;Node15</title>
<path fill="none" stroke="midnightblue" d="M351.12,-280.39C333.46,-273.59 312.55,-262.15 302,-244 282.77,-210.91 302.49,-165.17 316.2,-140.49"/>
<polygon fill="midnightblue" stroke="midnightblue" points="319.39,-141.97 321.42,-131.57 313.35,-138.44 319.39,-141.97"/>
</g>
<!-- Node16 -->
<g id="node16" class="node">
<title>Node16</title>
<g id="a_node16"><a xlink:href="../../d7/d7c/ADCConfig_8hpp.html" target="_top" xlink:title="This file contains the platform&#45;specific ADC resolutions.">
<polygon fill="white" stroke="black" points="311.5,-224.5 311.5,-243.5 468.5,-243.5 468.5,-224.5 311.5,-224.5"/>
<text text-anchor="middle" x="390" y="-231.5" font-family="Helvetica,sans-Serif" font-size="10.00">AH/Hardware/ADCConfig.hpp</text>
</a>
</g>
</g>
<!-- Node14&#45;&gt;Node16 -->
<g id="edge26" class="edge">
<title>Node14&#45;&gt;Node16</title>
<path fill="none" stroke="midnightblue" d="M382.49,-280.08C383.68,-272.93 385.39,-262.64 386.88,-253.69"/>
<polygon fill="midnightblue" stroke="midnightblue" points="390.35,-254.19 388.54,-243.75 383.45,-253.04 390.35,-254.19"/>
</g>
<!-- Node17 -->
<g id="node17" class="node">
<title>Node17</title>
<g id="a_node17"><a xlink:title=" ">
<polygon fill="white" stroke="#bfbfbf" points="557.5,-224.5 557.5,-243.5 610.5,-243.5 610.5,-224.5 557.5,-224.5"/>
<text text-anchor="middle" x="584" y="-231.5" font-family="Helvetica,sans-Serif" font-size="10.00">limits.h</text>
</a>
</g>
</g>
<!-- Node14&#45;&gt;Node17 -->
<g id="edge29" class="edge">
<title>Node14&#45;&gt;Node17</title>
<path fill="none" stroke="midnightblue" d="M413.17,-280.44C449.8,-270.7 509.53,-254.81 547.78,-244.64"/>
<polygon fill="midnightblue" stroke="midnightblue" points="548.72,-248.01 557.48,-242.05 546.92,-241.24 548.72,-248.01"/>
</g>
<!-- Node14&#45;&gt;Node18 -->
<g id="edge30" class="edge">
<title>Node14&#45;&gt;Node18</title>
<path fill="none" stroke="midnightblue" d="M419.68,-281.26C422.49,-280.8 425.28,-280.37 428,-280 611.19,-254.72 662.43,-273.64 848.68,-243.97"/>
<polygon fill="midnightblue" stroke="midnightblue" points="849.5,-247.38 858.81,-242.33 848.38,-240.47 849.5,-247.38"/>
</g>
<!-- Node19 -->
<g id="node19" class="node">
<title>Node19</title>
<g id="a_node19"><a xlink:title=" ">
<polygon fill="white" stroke="#bfbfbf" points="486.5,-224.5 486.5,-243.5 539.5,-243.5 539.5,-224.5 486.5,-224.5"/>
<text text-anchor="middle" x="513" y="-231.5" font-family="Helvetica,sans-Serif" font-size="10.00">stdint.h</text>
</a>
</g>
</g>
<!-- Node14&#45;&gt;Node19 -->
<g id="edge31" class="edge">
<title>Node14&#45;&gt;Node19</title>
<path fill="none" stroke="midnightblue" d="M401.92,-280.44C423.74,-271.52 458.15,-257.44 482.89,-247.32"/>
<polygon fill="midnightblue" stroke="midnightblue" points="484.25,-250.54 492.18,-243.52 481.6,-244.06 484.25,-250.54"/>
</g>
<!-- Node15&#45;&gt;Node3 -->
<g id="edge24" class="edge">
<title>Node15&#45;&gt;Node3</title>
<path fill="none" stroke="midnightblue" d="M327.31,-112.37C327.96,-94.62 329.45,-53.67 330.32,-29.6"/>
<polygon fill="midnightblue" stroke="midnightblue" points="333.82,-29.71 330.69,-19.59 326.83,-29.46 333.82,-29.71"/>
</g>
<!-- Node15&#45;&gt;Node7 -->
<g id="edge25" class="edge">
<title>Node15&#45;&gt;Node7</title>
<path fill="none" stroke="midnightblue" d="M392.28,-112.44C466.11,-102.77 586.14,-87.04 663.82,-76.85"/>
<polygon fill="midnightblue" stroke="midnightblue" points="664.56,-80.29 674.02,-75.52 663.65,-73.35 664.56,-80.29"/>
</g>
<!-- Node16&#45;&gt;Node3 -->
<g id="edge27" class="edge">
<title>Node16&#45;&gt;Node3</title>
<path fill="none" stroke="midnightblue" d="M393.35,-224.24C400.6,-203.96 416.07,-152.41 403,-112 396.93,-93.22 388.48,-92.06 377,-76 365.48,-59.89 352.45,-41.46 343.21,-28.35"/>
<polygon fill="midnightblue" stroke="midnightblue" points="345.84,-26.01 337.22,-19.85 340.12,-30.04 345.84,-26.01"/>
</g>
<!-- Node16&#45;&gt;Node8 -->
<g id="edge28" class="edge">
<title>Node16&#45;&gt;Node8</title>
<path fill="none" stroke="midnightblue" d="M417.25,-224.44C446.44,-215.28 492.92,-200.69 525.31,-190.52"/>
<polygon fill="midnightblue" stroke="midnightblue" points="526.38,-193.85 534.87,-187.52 524.28,-187.17 526.38,-193.85"/>
</g>
<!-- Node23&#45;&gt;Node3 -->
<g id="edge41" class="edge">
<title>Node23&#45;&gt;Node3</title>
<path fill="none" stroke="midnightblue" d="M1066,-280.44C1066,-261.94 1066,-216.81 1066,-179 1066,-179 1066,-179 1066,-121 1066,-55.56 604.42,-24.76 412.83,-14.79"/>
<polygon fill="midnightblue" stroke="midnightblue" points="412.98,-11.29 402.81,-14.28 412.62,-18.29 412.98,-11.29"/>
</g>
<!-- Node23&#45;&gt;Node7 -->
<g id="edge40" class="edge">
<title>Node23&#45;&gt;Node7</title>
<path fill="none" stroke="midnightblue" d="M1063.19,-280.06C1051.94,-244.31 1010.69,-113.46 1009,-112 984.76,-91.07 911.19,-79.71 846.97,-73.64"/>
<polygon fill="midnightblue" stroke="midnightblue" points="847.02,-70.13 836.75,-72.71 846.39,-77.1 847.02,-70.13"/>
</g>
<!-- Node23&#45;&gt;Node18 -->
<g id="edge42" class="edge">
<title>Node23&#45;&gt;Node18</title>
<path fill="none" stroke="midnightblue" d="M1037.64,-280.44C1007.26,-271.28 958.89,-256.69 925.18,-246.52"/>
<polygon fill="midnightblue" stroke="midnightblue" points="925.82,-243.05 915.23,-243.52 923.79,-249.76 925.82,-243.05"/>
</g>
<!-- Node23&#45;&gt;Node24 -->
<g id="edge39" class="edge">
<title>Node23&#45;&gt;Node24</title>
<path fill="none" stroke="midnightblue" d="M1078.69,-280.32C1090.9,-271.98 1109.58,-259.21 1124,-249.35"/>
<polygon fill="midnightblue" stroke="midnightblue" points="1126.06,-252.19 1132.34,-243.65 1122.11,-246.41 1126.06,-252.19"/>
</g>
</g>
</svg>
