<?xml version="1.0" encoding="UTF-8" standalone="no"?>
<!DOCTYPE svg PUBLIC "-//W3C//DTD SVG 1.1//EN"
 "http://www.w3.org/Graphics/SVG/1.1/DTD/svg11.dtd">
<!-- Generated by graphviz version 2.40.1 (20161225.0304)
 -->
<!-- Title: SMA.hpp Pages: 1 -->
<svg width="1218pt" height="588pt"
 viewBox="0.00 0.00 1217.50 588.00" xmlns="http://www.w3.org/2000/svg" xmlns:xlink="http://www.w3.org/1999/xlink">
<g id="graph0" class="graph" transform="scale(1 1) rotate(0) translate(4 584)">
<title>SMA.hpp</title>
<polygon fill="#ffffff" stroke="transparent" points="-4,4 -4,-584 1213.5,-584 1213.5,4 -4,4"/>
<!-- Node1 -->
<g id="node1" class="node">
<title>Node1</title>
<g id="a_node1"><a xlink:title=" ">
<polygon fill="#bfbfbf" stroke="#000000" points="1005.5,-560.5 1005.5,-579.5 1062.5,-579.5 1062.5,-560.5 1005.5,-560.5"/>
<text text-anchor="middle" x="1034" y="-567.5" font-family="Helvetica,sans-Serif" font-size="10.00" fill="#000000">SMA.hpp</text>
</a>
</g>
</g>
<!-- Node2 -->
<g id="node2" class="node">
<title>Node2</title>
<g id="a_node2"><a xlink:href="../../de/d76/Array_8hpp.html" target="_top" xlink:title=" ">
<polygon fill="#ffffff" stroke="#000000" points="772,-504.5 772,-523.5 898,-523.5 898,-504.5 772,-504.5"/>
<text text-anchor="middle" x="835" y="-511.5" font-family="Helvetica,sans-Serif" font-size="10.00" fill="#000000">AH/Containers/Array.hpp</text>
</a>
</g>
</g>
<!-- Node1&#45;&gt;Node2 -->
<g id="edge1" class="edge">
<title>Node1&#45;&gt;Node2</title>
<path fill="none" stroke="#191970" d="M1005.4882,-561.9766C972.34,-552.6484 917.2586,-537.1482 878.6996,-526.2974"/>
<polygon fill="#191970" stroke="#191970" points="879.36,-522.8473 868.7858,-523.5076 877.4638,-529.5856 879.36,-522.8473"/>
</g>
<!-- Node12 -->
<g id="node12" class="node">
<title>Node12</title>
<g id="a_node12"><a xlink:title=" ">
<polygon fill="#ffffff" stroke="#bfbfbf" points="765.5,-112.5 765.5,-131.5 866.5,-131.5 866.5,-112.5 765.5,-112.5"/>
<text text-anchor="middle" x="816" y="-119.5" font-family="Helvetica,sans-Serif" font-size="10.00" fill="#000000">AH/STL/type_traits</text>
</a>
</g>
</g>
<!-- Node1&#45;&gt;Node12 -->
<g id="edge44" class="edge">
<title>Node1&#45;&gt;Node12</title>
<path fill="none" stroke="#191970" d="M1030.9469,-560.4195C1015.1845,-511.1995 942.3145,-286.6536 905,-224 885.1295,-190.636 853.8321,-157.848 834.1369,-138.792"/>
<polygon fill="#191970" stroke="#191970" points="836.3743,-136.0896 826.7171,-131.7319 831.549,-141.1608 836.3743,-136.0896"/>
</g>
<!-- Node23 -->
<g id="node23" class="node">
<title>Node23</title>
<g id="a_node23"><a xlink:href="../../dc/d30/Divide_8hpp.html" target="_top" xlink:title=" ">
<polygon fill="#ffffff" stroke="#000000" points="952.5,-280.5 952.5,-299.5 1057.5,-299.5 1057.5,-280.5 952.5,-280.5"/>
<text text-anchor="middle" x="1005" y="-287.5" font-family="Helvetica,sans-Serif" font-size="10.00" fill="#000000">AH/Math/Divide.hpp</text>
</a>
</g>
</g>
<!-- Node1&#45;&gt;Node23 -->
<g id="edge37" class="edge">
<title>Node1&#45;&gt;Node23</title>
<path fill="none" stroke="#191970" d="M1034,-560.4116C1034,-541.0538 1034,-495.9167 1034,-458 1034,-458 1034,-458 1034,-402 1034,-368.5134 1021.7005,-331.1413 1013.1215,-309.1469"/>
<polygon fill="#191970" stroke="#191970" points="1016.2799,-307.6216 1009.279,-299.6693 1009.7928,-310.2517 1016.2799,-307.6216"/>
</g>
<!-- Node24 -->
<g id="node24" class="node">
<title>Node24</title>
<g id="a_node24"><a xlink:title=" ">
<polygon fill="#ffffff" stroke="#bfbfbf" points="1038,-224.5 1038,-243.5 1122,-243.5 1122,-224.5 1038,-224.5"/>
<text text-anchor="middle" x="1080" y="-231.5" font-family="Helvetica,sans-Serif" font-size="10.00" fill="#000000">AH/STL/cstdint</text>
</a>
</g>
</g>
<!-- Node1&#45;&gt;Node24 -->
<g id="edge43" class="edge">
<title>Node1&#45;&gt;Node24</title>
<path fill="none" stroke="#191970" d="M1042.125,-560.2177C1056.75,-541.5805 1086,-499.1609 1086,-458 1086,-458 1086,-458 1086,-346 1086,-313.6653 1083.4755,-276.1547 1081.7016,-253.7876"/>
<polygon fill="#191970" stroke="#191970" points="1085.1698,-253.2576 1080.8597,-243.5791 1078.1935,-253.833 1085.1698,-253.2576"/>
</g>
<!-- Node25 -->
<g id="node25" class="node">
<title>Node25</title>
<g id="a_node25"><a xlink:title=" ">
<polygon fill="#ffffff" stroke="#bfbfbf" points="1114.5,-504.5 1114.5,-523.5 1209.5,-523.5 1209.5,-504.5 1114.5,-504.5"/>
<text text-anchor="middle" x="1162" y="-511.5" font-family="Helvetica,sans-Serif" font-size="10.00" fill="#000000">AH/STL/algorithm</text>
</a>
</g>
</g>
<!-- Node1&#45;&gt;Node25 -->
<g id="edge42" class="edge">
<title>Node1&#45;&gt;Node25</title>
<path fill="none" stroke="#191970" d="M1056.004,-560.3733C1076.6435,-551.3435 1107.7158,-537.7494 1130.8889,-527.6111"/>
<polygon fill="#191970" stroke="#191970" points="1132.5245,-530.7159 1140.2831,-523.5011 1129.7187,-524.3028 1132.5245,-530.7159"/>
</g>
<!-- Node3 -->
<g id="node3" class="node">
<title>Node3</title>
<g id="a_node3"><a xlink:href="../../d1/d65/Warnings_8hpp.html" target="_top" xlink:title=" ">
<polygon fill="#ffffff" stroke="#000000" points="134.5,-.5 134.5,-19.5 267.5,-19.5 267.5,-.5 134.5,-.5"/>
<text text-anchor="middle" x="201" y="-7.5" font-family="Helvetica,sans-Serif" font-size="10.00" fill="#000000">AH/Settings/Warnings.hpp</text>
</a>
</g>
</g>
<!-- Node2&#45;&gt;Node3 -->
<g id="edge2" class="edge">
<title>Node2&#45;&gt;Node3</title>
<path fill="none" stroke="#191970" d="M771.897,-512.1626C577.3722,-505.6692 0,-479.8396 0,-402 0,-402 0,-402 0,-122 0,-62.7405 67.4919,-34.5513 124.2572,-21.3222"/>
<polygon fill="#191970" stroke="#191970" points="125.337,-24.6683 134.3491,-19.0976 123.8301,-17.8324 125.337,-24.6683"/>
</g>
<!-- Node4 -->
<g id="node4" class="node">
<title>Node4</title>
<g id="a_node4"><a xlink:href="../../d1/d93/Error_8hpp.html" target="_top" xlink:title=" ">
<polygon fill="#ffffff" stroke="#000000" points="382,-448.5 382,-467.5 480,-467.5 480,-448.5 382,-448.5"/>
<text text-anchor="middle" x="431" y="-455.5" font-family="Helvetica,sans-Serif" font-size="10.00" fill="#000000">AH/Error/Error.hpp</text>
</a>
</g>
</g>
<!-- Node2&#45;&gt;Node4 -->
<g id="edge3" class="edge">
<title>Node2&#45;&gt;Node4</title>
<path fill="none" stroke="#191970" d="M771.875,-505.25C694.8295,-494.5704 565.5419,-476.6494 490.2833,-466.2175"/>
<polygon fill="#191970" stroke="#191970" points="490.4195,-462.703 480.0337,-464.7967 489.4584,-469.6367 490.4195,-462.703"/>
</g>
<!-- Node2&#45;&gt;Node12 -->
<g id="edge35" class="edge">
<title>Node2&#45;&gt;Node12</title>
<path fill="none" stroke="#191970" d="M832.1965,-504.2066C826.9113,-484.8521 816,-440.2612 816,-402 816,-402 816,-402 816,-234 816,-201.7116 816,-164.1872 816,-141.8048"/>
<polygon fill="#191970" stroke="#191970" points="819.5001,-141.5883 816,-131.5884 812.5001,-141.5884 819.5001,-141.5883"/>
</g>
<!-- Node18 -->
<g id="node18" class="node">
<title>Node18</title>
<g id="a_node18"><a xlink:title=" ">
<polygon fill="#ffffff" stroke="#bfbfbf" points="844,-224.5 844,-243.5 896,-243.5 896,-224.5 844,-224.5"/>
<text text-anchor="middle" x="870" y="-231.5" font-family="Helvetica,sans-Serif" font-size="10.00" fill="#000000">stddef.h</text>
</a>
</g>
</g>
<!-- Node2&#45;&gt;Node18 -->
<g id="edge36" class="edge">
<title>Node2&#45;&gt;Node18</title>
<path fill="none" stroke="#191970" d="M837.8035,-504.2066C843.0887,-484.8521 854,-440.2612 854,-402 854,-402 854,-402 854,-346 854,-313.2342 860.7939,-275.6134 865.5275,-253.3778"/>
<polygon fill="#191970" stroke="#191970" points="868.9649,-254.0428 867.7076,-243.5228 862.1302,-252.5307 868.9649,-254.0428"/>
</g>
<!-- Node22 -->
<g id="node22" class="node">
<title>Node22</title>
<g id="a_node22"><a xlink:title=" ">
<polygon fill="#ffffff" stroke="#bfbfbf" points="882.5,-448.5 882.5,-467.5 967.5,-467.5 967.5,-448.5 882.5,-448.5"/>
<text text-anchor="middle" x="925" y="-455.5" font-family="Helvetica,sans-Serif" font-size="10.00" fill="#000000">AH/STL/iterator</text>
</a>
</g>
</g>
<!-- Node2&#45;&gt;Node22 -->
<g id="edge34" class="edge">
<title>Node2&#45;&gt;Node22</title>
<path fill="none" stroke="#191970" d="M850.6768,-504.2455C864.4856,-495.6534 884.8193,-483.0014 900.7292,-473.1018"/>
<polygon fill="#191970" stroke="#191970" points="902.8613,-475.8974 909.5028,-467.6427 899.1632,-469.954 902.8613,-475.8974"/>
</g>
<!-- Node4&#45;&gt;Node3 -->
<g id="edge4" class="edge">
<title>Node4&#45;&gt;Node3</title>
<path fill="none" stroke="#191970" d="M381.6242,-454.3485C276.0725,-445.1842 38,-416.6797 38,-346 38,-346 38,-346 38,-122 38,-67.2319 101.2831,-37.2317 148.9873,-22.3974"/>
<polygon fill="#191970" stroke="#191970" points="150.0086,-25.7452 158.5992,-19.5442 148.0166,-19.0346 150.0086,-25.7452"/>
</g>
<!-- Node5 -->
<g id="node5" class="node">
<title>Node5</title>
<g id="a_node5"><a xlink:href="../../df/dee/Debug_8hpp.html" target="_top" xlink:title=" ">
<polygon fill="#ffffff" stroke="#000000" points="374.5,-392.5 374.5,-411.5 487.5,-411.5 487.5,-392.5 374.5,-392.5"/>
<text text-anchor="middle" x="431" y="-399.5" font-family="Helvetica,sans-Serif" font-size="10.00" fill="#000000">AH/Debug/Debug.hpp</text>
</a>
</g>
</g>
<!-- Node4&#45;&gt;Node5 -->
<g id="edge5" class="edge">
<title>Node4&#45;&gt;Node5</title>
<path fill="none" stroke="#191970" d="M431,-448.2455C431,-440.9382 431,-430.6944 431,-421.7046"/>
<polygon fill="#191970" stroke="#191970" points="434.5001,-421.6426 431,-411.6427 427.5001,-421.6427 434.5001,-421.6426"/>
</g>
<!-- Node5&#45;&gt;Node3 -->
<g id="edge6" class="edge">
<title>Node5&#45;&gt;Node3</title>
<path fill="none" stroke="#191970" d="M374.3567,-395.9899C274.1305,-383.7704 76,-351.7991 76,-290 76,-290 76,-290 76,-122 76,-95.1382 140.8387,-48.8735 177.1205,-25.0878"/>
<polygon fill="#191970" stroke="#191970" points="179.1808,-27.9235 185.6725,-19.5505 175.3762,-22.0477 179.1808,-27.9235"/>
</g>
<!-- Node6 -->
<g id="node6" class="node">
<title>Node6</title>
<g id="a_node6"><a xlink:href="../../dd/d80/PrintStream_8hpp.html" target="_top" xlink:title=" ">
<polygon fill="#ffffff" stroke="#000000" points="215.5,-224.5 215.5,-243.5 374.5,-243.5 374.5,-224.5 215.5,-224.5"/>
<text text-anchor="middle" x="295" y="-231.5" font-family="Helvetica,sans-Serif" font-size="10.00" fill="#000000">AH/PrintStream/PrintStream.hpp</text>
</a>
</g>
</g>
<!-- Node5&#45;&gt;Node6 -->
<g id="edge7" class="edge">
<title>Node5&#45;&gt;Node6</title>
<path fill="none" stroke="#191970" d="M398.5765,-392.3549C379.2573,-385.1276 355.5491,-373.4427 340,-356 313.6974,-326.4943 302.3237,-280.28 297.7617,-254.0147"/>
<polygon fill="#191970" stroke="#191970" points="301.1644,-253.1209 296.1576,-243.7837 294.2489,-254.2052 301.1644,-253.1209"/>
</g>
<!-- Node13 -->
<g id="node13" class="node">
<title>Node13</title>
<g id="a_node13"><a xlink:href="../../d2/dd5/SettingsWrapper_8hpp.html" target="_top" xlink:title=" ">
<polygon fill="#ffffff" stroke="#000000" points="349,-336.5 349,-355.5 513,-355.5 513,-336.5 349,-336.5"/>
<text text-anchor="middle" x="431" y="-343.5" font-family="Helvetica,sans-Serif" font-size="10.00" fill="#000000">AH/Settings/SettingsWrapper.hpp</text>
</a>
</g>
</g>
<!-- Node5&#45;&gt;Node13 -->
<g id="edge18" class="edge">
<title>Node5&#45;&gt;Node13</title>
<path fill="none" stroke="#191970" d="M425.7332,-392.2455C424.3221,-384.9382 423.9179,-374.6944 424.5205,-365.7046"/>
<polygon fill="#191970" stroke="#191970" points="428.0111,-365.9945 425.7549,-355.6427 421.0632,-365.1421 428.0111,-365.9945"/>
</g>
<!-- Node21 -->
<g id="node21" class="node">
<title>Node21</title>
<g id="a_node21"><a xlink:href="../../d7/d52/DebugVal_8hpp.html" target="_top" xlink:title=" ">
<polygon fill="#ffffff" stroke="#000000" points="531,-336.5 531,-355.5 609,-355.5 609,-336.5 531,-336.5"/>
<text text-anchor="middle" x="570" y="-343.5" font-family="Helvetica,sans-Serif" font-size="10.00" fill="#000000">DebugVal.hpp</text>
</a>
</g>
</g>
<!-- Node5&#45;&gt;Node21 -->
<g id="edge33" class="edge">
<title>Node5&#45;&gt;Node21</title>
<path fill="none" stroke="#191970" d="M454.895,-392.3733C477.5082,-383.2629 511.6542,-369.5062 536.8873,-359.3404"/>
<polygon fill="#191970" stroke="#191970" points="538.4493,-362.4845 546.4169,-355.5011 535.8334,-355.9917 538.4493,-362.4845"/>
</g>
<!-- Node6&#45;&gt;Node3 -->
<g id="edge8" class="edge">
<title>Node6&#45;&gt;Node3</title>
<path fill="none" stroke="#191970" d="M280.9045,-224.2357C250.6311,-202.1533 180.7805,-144.8947 164,-76 161.8965,-67.3636 161.0466,-64.3839 164,-56 167.8309,-45.125 175.4402,-34.9246 182.7672,-26.9061"/>
<polygon fill="#191970" stroke="#191970" points="185.3557,-29.2652 189.8498,-19.6707 180.3534,-24.3686 185.3557,-29.2652"/>
</g>
<!-- Node7 -->
<g id="node7" class="node">
<title>Node7</title>
<g id="a_node7"><a xlink:href="../../d6/ddf/Arduino-Wrapper_8h.html" target="_top" xlink:title=" ">
<polygon fill="#ffffff" stroke="#000000" points="258.5,-168.5 258.5,-187.5 373.5,-187.5 373.5,-168.5 258.5,-168.5"/>
<text text-anchor="middle" x="316" y="-175.5" font-family="Helvetica,sans-Serif" font-size="10.00" fill="#000000">AH/Arduino&#45;Wrapper.h</text>
</a>
</g>
</g>
<!-- Node6&#45;&gt;Node7 -->
<g id="edge9" class="edge">
<title>Node6&#45;&gt;Node7</title>
<path fill="none" stroke="#191970" d="M298.6579,-224.2455C301.4584,-216.7776 305.409,-206.2427 308.8324,-197.1137"/>
<polygon fill="#191970" stroke="#191970" points="312.1499,-198.2349 312.384,-187.6427 305.5955,-195.777 312.1499,-198.2349"/>
</g>
<!-- Node8 -->
<g id="node8" class="node">
<title>Node8</title>
<g id="a_node8"><a xlink:href="../../d7/d79/MinMaxFix_8hpp.html" target="_top" xlink:title=" ">
<polygon fill="#ffffff" stroke="#000000" points="202.5,-112.5 202.5,-131.5 327.5,-131.5 327.5,-112.5 202.5,-112.5"/>
<text text-anchor="middle" x="265" y="-119.5" font-family="Helvetica,sans-Serif" font-size="10.00" fill="#000000">AH/Math/MinMaxFix.hpp</text>
</a>
</g>
</g>
<!-- Node7&#45;&gt;Node8 -->
<g id="edge10" class="edge">
<title>Node7&#45;&gt;Node8</title>
<path fill="none" stroke="#191970" d="M307.1165,-168.2455C299.8034,-160.2155 289.2609,-148.6394 280.5533,-139.0781"/>
<polygon fill="#191970" stroke="#191970" points="283.1028,-136.6795 273.7817,-131.6427 277.9273,-141.3928 283.1028,-136.6795"/>
</g>
<!-- Node10 -->
<g id="node10" class="node">
<title>Node10</title>
<g id="a_node10"><a xlink:title=" ">
<polygon fill="#ffffff" stroke="#bfbfbf" points="310,-.5 310,-19.5 368,-19.5 368,-.5 310,-.5"/>
<text text-anchor="middle" x="339" y="-7.5" font-family="Helvetica,sans-Serif" font-size="10.00" fill="#000000">Arduino.h</text>
</a>
</g>
</g>
<!-- Node7&#45;&gt;Node10 -->
<g id="edge17" class="edge">
<title>Node7&#45;&gt;Node10</title>
<path fill="none" stroke="#191970" d="M321.0242,-168.3948C325.5919,-159.2674 332.1839,-145.0379 336,-132 345.5547,-99.3558 347.2043,-89.9423 345,-56 344.4402,-47.3805 343.2964,-37.9095 342.1561,-29.8133"/>
<polygon fill="#191970" stroke="#191970" points="345.604,-29.2041 340.6586,-19.8343 338.6815,-30.243 345.604,-29.2041"/>
</g>
<!-- Node7&#45;&gt;Node12 -->
<g id="edge16" class="edge">
<title>Node7&#45;&gt;Node12</title>
<path fill="none" stroke="#191970" d="M373.8448,-171.5214C469.1825,-160.8436 658.4026,-139.6509 755.4707,-128.7793"/>
<polygon fill="#191970" stroke="#191970" points="755.8734,-132.2562 765.4217,-127.6648 755.0942,-125.2996 755.8734,-132.2562"/>
</g>
<!-- Node8&#45;&gt;Node3 -->
<g id="edge11" class="edge">
<title>Node8&#45;&gt;Node3</title>
<path fill="none" stroke="#191970" d="M222.8846,-112.3381C203.5614,-105.5724 182.4452,-94.343 171,-76 161.289,-60.4363 172.3599,-41.2011 183.6967,-27.5199"/>
<polygon fill="#191970" stroke="#191970" points="186.5441,-29.5867 190.6065,-19.8016 181.3287,-24.9176 186.5441,-29.5867"/>
</g>
<!-- Node9 -->
<g id="node9" class="node">
<title>Node9</title>
<g id="a_node9"><a xlink:href="../../d6/d3b/FixArduinoMacros_8hpp.html" target="_top" xlink:title=" ">
<polygon fill="#ffffff" stroke="#000000" points="180,-56.5 180,-75.5 336,-75.5 336,-56.5 180,-56.5"/>
<text text-anchor="middle" x="258" y="-63.5" font-family="Helvetica,sans-Serif" font-size="10.00" fill="#000000">AH/Math/FixArduinoMacros.hpp</text>
</a>
</g>
</g>
<!-- Node8&#45;&gt;Node9 -->
<g id="edge12" class="edge">
<title>Node8&#45;&gt;Node9</title>
<path fill="none" stroke="#191970" d="M263.7807,-112.2455C262.8673,-104.9382 261.5868,-94.6944 260.4631,-85.7046"/>
<polygon fill="#191970" stroke="#191970" points="263.9187,-85.1313 259.2053,-75.6427 256.9728,-85.9996 263.9187,-85.1313"/>
</g>
<!-- Node11 -->
<g id="node11" class="node">
<title>Node11</title>
<g id="a_node11"><a xlink:href="../../dc/dc7/NamespaceSettings_8hpp.html" target="_top" xlink:title=" ">
<polygon fill="#ffffff" stroke="#000000" points="430,-56.5 430,-75.5 610,-75.5 610,-56.5 430,-56.5"/>
<text text-anchor="middle" x="520" y="-63.5" font-family="Helvetica,sans-Serif" font-size="10.00" fill="#000000">AH/Settings/NamespaceSettings.hpp</text>
</a>
</g>
</g>
<!-- Node8&#45;&gt;Node11 -->
<g id="edge15" class="edge">
<title>Node8&#45;&gt;Node11</title>
<path fill="none" stroke="#191970" d="M308.5463,-112.4369C352.2793,-102.8328 419.7345,-88.0191 466.6542,-77.7152"/>
<polygon fill="#191970" stroke="#191970" points="467.6168,-81.0872 476.6333,-75.5237 466.1153,-74.2502 467.6168,-81.0872"/>
</g>
<!-- Node9&#45;&gt;Node3 -->
<g id="edge13" class="edge">
<title>Node9&#45;&gt;Node3</title>
<path fill="none" stroke="#191970" d="M248.0714,-56.2455C239.8162,-48.1352 227.8791,-36.4075 218.0918,-26.7919"/>
<polygon fill="#191970" stroke="#191970" points="220.4011,-24.1542 210.8149,-19.6427 215.4954,-29.1476 220.4011,-24.1542"/>
</g>
<!-- Node9&#45;&gt;Node10 -->
<g id="edge14" class="edge">
<title>Node9&#45;&gt;Node10</title>
<path fill="none" stroke="#191970" d="M272.1091,-56.2455C284.4209,-47.7337 302.4958,-35.2375 316.7538,-25.3801"/>
<polygon fill="#191970" stroke="#191970" points="318.8174,-28.2085 325.0526,-19.6427 314.8366,-22.4506 318.8174,-28.2085"/>
</g>
<!-- Node13&#45;&gt;Node3 -->
<g id="edge19" class="edge">
<title>Node13&#45;&gt;Node3</title>
<path fill="none" stroke="#191970" d="M426.721,-336.3307C418.6541,-317.1936 402,-272.9662 402,-234 402,-234 402,-234 402,-122 402,-62.7405 334.5081,-34.5513 277.7428,-21.3222"/>
<polygon fill="#191970" stroke="#191970" points="278.1699,-17.8324 267.6509,-19.0976 276.663,-24.6683 278.1699,-17.8324"/>
</g>
<!-- Node13&#45;&gt;Node5 -->
<g id="edge32" class="edge">
<title>Node13&#45;&gt;Node5</title>
<path fill="none" stroke="#191970" d="M436.2451,-355.6427C437.6665,-362.9199 438.081,-373.155 437.4887,-382.1575"/>
<polygon fill="#191970" stroke="#191970" points="433.9947,-381.8972 436.2668,-392.2455 440.9439,-382.739 433.9947,-381.8972"/>
</g>
<!-- Node13&#45;&gt;Node11 -->
<g id="edge20" class="edge">
<title>Node13&#45;&gt;Node11</title>
<path fill="none" stroke="#191970" d="M432.2895,-336.4324C434.7781,-317.112 440,-272.0389 440,-234 440,-234 440,-234 440,-178 440,-147.4754 441.7019,-137.1501 459,-112 467.6852,-99.3724 480.9572,-88.7727 492.9061,-80.9428"/>
<polygon fill="#191970" stroke="#191970" points="495.0267,-83.7465 501.6876,-75.5074 491.3426,-77.7944 495.0267,-83.7465"/>
</g>
<!-- Node14 -->
<g id="node14" class="node">
<title>Node14</title>
<g id="a_node14"><a xlink:href="../../db/d02/Settings_8hpp.html" target="_top" xlink:title="All user settings and debugging options can be changed here.">
<polygon fill="#ffffff" stroke="#000000" points="530.5,-280.5 530.5,-299.5 601.5,-299.5 601.5,-280.5 530.5,-280.5"/>
<text text-anchor="middle" x="566" y="-287.5" font-family="Helvetica,sans-Serif" font-size="10.00" fill="#000000">Settings.hpp</text>
</a>
</g>
</g>
<!-- Node13&#45;&gt;Node14 -->
<g id="edge21" class="edge">
<title>Node13&#45;&gt;Node14</title>
<path fill="none" stroke="#191970" d="M454.2073,-336.3733C476.1699,-327.2629 509.3332,-313.5062 533.8401,-303.3404"/>
<polygon fill="#191970" stroke="#191970" points="535.1997,-306.5657 543.0955,-299.5011 532.5176,-300.0999 535.1997,-306.5657"/>
</g>
<!-- Node20 -->
<g id="node20" class="node">
<title>Node20</title>
<g id="a_node20"><a xlink:href="../../d9/d98/TeensyUSBTypes_8hpp.html" target="_top" xlink:title=" ">
<polygon fill="#ffffff" stroke="#000000" points="620,-280.5 620,-299.5 788,-299.5 788,-280.5 620,-280.5"/>
<text text-anchor="middle" x="704" y="-287.5" font-family="Helvetica,sans-Serif" font-size="10.00" fill="#000000">AH/Teensy/TeensyUSBTypes.hpp</text>
</a>
</g>
</g>
<!-- Node13&#45;&gt;Node20 -->
<g id="edge31" class="edge">
<title>Node13&#45;&gt;Node20</title>
<path fill="none" stroke="#191970" d="M477.6202,-336.4369C524.6365,-326.7925 597.2629,-311.8948 647.5193,-301.5858"/>
<polygon fill="#191970" stroke="#191970" points="648.4794,-304.9618 657.5721,-299.5237 647.0727,-298.1046 648.4794,-304.9618"/>
</g>
<!-- Node15 -->
<g id="node15" class="node">
<title>Node15</title>
<g id="a_node15"><a xlink:href="../../dc/d50/Frequency_8hpp.html" target="_top" xlink:title=" ">
<polygon fill="#ffffff" stroke="#000000" points="468,-112.5 468,-131.5 596,-131.5 596,-112.5 468,-112.5"/>
<text text-anchor="middle" x="532" y="-119.5" font-family="Helvetica,sans-Serif" font-size="10.00" fill="#000000">AH/Types/Frequency.hpp</text>
</a>
</g>
</g>
<!-- Node14&#45;&gt;Node15 -->
<g id="edge22" class="edge">
<title>Node14&#45;&gt;Node15</title>
<path fill="none" stroke="#191970" d="M540.4738,-280.3698C524.8579,-272.9914 506.1711,-261.1364 497,-244 478.6531,-209.7186 502.2277,-164.7326 518.6489,-140.0866"/>
<polygon fill="#191970" stroke="#191970" points="521.646,-141.9074 524.4899,-131.7014 515.9022,-137.9063 521.646,-141.9074"/>
</g>
<!-- Node16 -->
<g id="node16" class="node">
<title>Node16</title>
<g id="a_node16"><a xlink:href="../../d7/d7c/ADCConfig_8hpp.html" target="_top" xlink:title="This file contains the platform&#45;specific ADC resolutions. By default, the library automatically selec...">
<polygon fill="#ffffff" stroke="#000000" points="506,-224.5 506,-243.5 654,-243.5 654,-224.5 506,-224.5"/>
<text text-anchor="middle" x="580" y="-231.5" font-family="Helvetica,sans-Serif" font-size="10.00" fill="#000000">AH/Hardware/ADCConfig.hpp</text>
</a>
</g>
</g>
<!-- Node14&#45;&gt;Node16 -->
<g id="edge25" class="edge">
<title>Node14&#45;&gt;Node16</title>
<path fill="none" stroke="#191970" d="M568.4386,-280.2455C570.2855,-272.8579 572.8828,-262.4689 575.1478,-253.4087"/>
<polygon fill="#191970" stroke="#191970" points="578.5594,-254.193 577.5893,-243.6427 571.7684,-252.4952 578.5594,-254.193"/>
</g>
<!-- Node17 -->
<g id="node17" class="node">
<title>Node17</title>
<g id="a_node17"><a xlink:title=" ">
<polygon fill="#ffffff" stroke="#bfbfbf" points="672,-224.5 672,-243.5 720,-243.5 720,-224.5 672,-224.5"/>
<text text-anchor="middle" x="696" y="-231.5" font-family="Helvetica,sans-Serif" font-size="10.00" fill="#000000">limits.h</text>
</a>
</g>
</g>
<!-- Node14&#45;&gt;Node17 -->
<g id="edge28" class="edge">
<title>Node14&#45;&gt;Node17</title>
<path fill="none" stroke="#191970" d="M588.3478,-280.3733C609.4033,-271.3032 641.1495,-257.6279 664.7175,-247.4755"/>
<polygon fill="#191970" stroke="#191970" points="666.1444,-250.6719 673.9438,-243.5011 663.375,-244.243 666.1444,-250.6719"/>
</g>
<!-- Node14&#45;&gt;Node18 -->
<g id="edge29" class="edge">
<title>Node14&#45;&gt;Node18</title>
<path fill="none" stroke="#191970" d="M601.8321,-281.892C604.9294,-281.2352 608.0178,-280.5959 611,-280 690.2295,-264.1685 783.647,-248.2495 833.8033,-239.9249"/>
<polygon fill="#191970" stroke="#191970" points="834.5341,-243.3517 843.8288,-238.2666 833.3917,-236.4455 834.5341,-243.3517"/>
</g>
<!-- Node19 -->
<g id="node19" class="node">
<title>Node19</title>
<g id="a_node19"><a xlink:title=" ">
<polygon fill="#ffffff" stroke="#bfbfbf" points="738.5,-224.5 738.5,-243.5 787.5,-243.5 787.5,-224.5 738.5,-224.5"/>
<text text-anchor="middle" x="763" y="-231.5" font-family="Helvetica,sans-Serif" font-size="10.00" fill="#000000">stdint.h</text>
</a>
</g>
</g>
<!-- Node14&#45;&gt;Node19 -->
<g id="edge30" class="edge">
<title>Node14&#45;&gt;Node19</title>
<path fill="none" stroke="#191970" d="M600.3747,-280.4175C631.3857,-271.7464 678.5008,-258.5077 728.7452,-244.0515"/>
<polygon fill="#191970" stroke="#191970" points="729.8553,-247.3741 738.4953,-241.2422 727.9172,-240.6478 729.8553,-247.3741"/>
</g>
<!-- Node15&#45;&gt;Node3 -->
<g id="edge23" class="edge">
<title>Node15&#45;&gt;Node3</title>
<path fill="none" stroke="#191970" d="M563.0147,-112.478C595.8814,-100.8574 640.3175,-79.7921 619,-56 616.1744,-52.8464 397.7562,-30.089 277.8243,-17.8093"/>
<polygon fill="#191970" stroke="#191970" points="277.9008,-14.2989 267.5965,-16.763 277.1884,-21.2626 277.9008,-14.2989"/>
</g>
<!-- Node15&#45;&gt;Node11 -->
<g id="edge24" class="edge">
<title>Node15&#45;&gt;Node11</title>
<path fill="none" stroke="#191970" d="M529.9098,-112.2455C528.3439,-104.9382 526.1488,-94.6944 524.2224,-85.7046"/>
<polygon fill="#191970" stroke="#191970" points="527.584,-84.6873 522.0663,-75.6427 520.7393,-86.1541 527.584,-84.6873"/>
</g>
<!-- Node16&#45;&gt;Node3 -->
<g id="edge26" class="edge">
<title>Node16&#45;&gt;Node3</title>
<path fill="none" stroke="#191970" d="M588.8211,-224.1437C614.0315,-194.7857 681.7227,-106.8127 636,-56 634.5139,-54.3485 402.5053,-30.5058 277.9737,-17.8163"/>
<polygon fill="#191970" stroke="#191970" points="278.0366,-14.3047 267.7334,-16.7733 277.3273,-21.2686 278.0366,-14.3047"/>
</g>
<!-- Node16&#45;&gt;Node7 -->
<g id="edge27" class="edge">
<title>Node16&#45;&gt;Node7</title>
<path fill="none" stroke="#191970" d="M534.9167,-224.4369C489.5454,-214.8127 419.5114,-199.957 370.9234,-189.6504"/>
<polygon fill="#191970" stroke="#191970" points="371.4059,-186.175 360.8973,-187.5237 369.9534,-193.0226 371.4059,-186.175"/>
</g>
<!-- Node23&#45;&gt;Node3 -->
<g id="edge40" class="edge">
<title>Node23&#45;&gt;Node3</title>
<path fill="none" stroke="#191970" d="M998.0121,-280.2438C991.879,-271.2417 983.1555,-257.2961 978,-244 967.1594,-216.0421 964,-207.986 964,-178 964,-178 964,-178 964,-122 964,17.9965 794.2981,-77.7406 656,-56 651.3764,-55.2732 406.5052,-30.6398 277.9645,-17.7272"/>
<polygon fill="#191970" stroke="#191970" points="278.0842,-14.2216 267.7844,-16.7046 277.3845,-21.1866 278.0842,-14.2216"/>
</g>
<!-- Node23&#45;&gt;Node11 -->
<g id="edge39" class="edge">
<title>Node23&#45;&gt;Node11</title>
<path fill="none" stroke="#191970" d="M1001.8222,-280.2812C997.3417,-267.1182 988.528,-243.0766 978,-224 945.4688,-165.0537 937.1545,-140.1614 876,-112 831.8507,-91.6694 709.3279,-79.0359 620.334,-72.2677"/>
<polygon fill="#191970" stroke="#191970" points="620.4332,-68.7655 610.2004,-71.5112 619.9121,-75.7461 620.4332,-68.7655"/>
</g>
<!-- Node23&#45;&gt;Node18 -->
<g id="edge41" class="edge">
<title>Node23&#45;&gt;Node18</title>
<path fill="none" stroke="#191970" d="M981.7927,-280.3733C959.8301,-271.2629 926.6668,-257.5062 902.1599,-247.3404"/>
<polygon fill="#191970" stroke="#191970" points="903.4824,-244.0999 892.9045,-243.5011 900.8003,-250.5657 903.4824,-244.0999"/>
</g>
<!-- Node23&#45;&gt;Node24 -->
<g id="edge38" class="edge">
<title>Node23&#45;&gt;Node24</title>
<path fill="none" stroke="#191970" d="M1018.064,-280.2455C1029.3562,-271.814 1045.8845,-259.4729 1059.0271,-249.6598"/>
<polygon fill="#191970" stroke="#191970" points="1061.1669,-252.4301 1067.0857,-243.6427 1056.9789,-246.8211 1061.1669,-252.4301"/>
</g>
</g>
</svg>
