<?xml version="1.0" encoding="UTF-8" standalone="no"?>
<!DOCTYPE svg PUBLIC "-//W3C//DTD SVG 1.1//EN"
 "http://www.w3.org/Graphics/SVG/1.1/DTD/svg11.dtd">
<!-- Generated by graphviz version 2.40.1 (20161225.0304)
 -->
<!-- Title: Hardware&#45;Types.hpp Pages: 1 -->
<svg width="950pt" height="588pt"
 viewBox="0.00 0.00 950.00 588.00" xmlns="http://www.w3.org/2000/svg" xmlns:xlink="http://www.w3.org/1999/xlink">
<g id="graph0" class="graph" transform="scale(1 1) rotate(0) translate(4 584)">
<title>Hardware&#45;Types.hpp</title>
<polygon fill="#ffffff" stroke="transparent" points="-4,4 -4,-584 946,-584 946,4 -4,4"/>
<!-- Node1 -->
<g id="node1" class="node">
<title>Node1</title>
<g id="a_node1"><a xlink:title=" ">
<polygon fill="#bfbfbf" stroke="#000000" points="531.5,-560.5 531.5,-579.5 638.5,-579.5 638.5,-560.5 531.5,-560.5"/>
<text text-anchor="middle" x="585" y="-567.5" font-family="Helvetica,sans-Serif" font-size="10.00" fill="#000000">Hardware&#45;Types.hpp</text>
</a>
</g>
</g>
<!-- Node2 -->
<g id="node2" class="node">
<title>Node2</title>
<g id="a_node2"><a xlink:href="../../d1/d65/Warnings_8hpp.html" target="_top" xlink:title=" ">
<polygon fill="#ffffff" stroke="#000000" points="253.5,-.5 253.5,-19.5 386.5,-19.5 386.5,-.5 253.5,-.5"/>
<text text-anchor="middle" x="320" y="-7.5" font-family="Helvetica,sans-Serif" font-size="10.00" fill="#000000">AH/Settings/Warnings.hpp</text>
</a>
</g>
</g>
<!-- Node1&#45;&gt;Node2 -->
<g id="edge1" class="edge">
<title>Node1&#45;&gt;Node2</title>
<path fill="none" stroke="#191970" d="M531.274,-565.3591C386.6557,-552.1504 0,-511.804 0,-458 0,-458 0,-458 0,-122 0,-80.201 29.9026,-75.2599 67,-56 97.0261,-40.4113 180.1785,-27.1573 243.0268,-18.9376"/>
<polygon fill="#191970" stroke="#191970" points="243.8505,-22.3605 253.3217,-17.6121 242.9566,-15.4178 243.8505,-22.3605"/>
</g>
<!-- Node3 -->
<g id="node3" class="node">
<title>Node3</title>
<g id="a_node3"><a xlink:href="../../de/d76/Array_8hpp.html" target="_top" xlink:title=" ">
<polygon fill="#ffffff" stroke="#000000" points="220,-504.5 220,-523.5 346,-523.5 346,-504.5 220,-504.5"/>
<text text-anchor="middle" x="283" y="-511.5" font-family="Helvetica,sans-Serif" font-size="10.00" fill="#000000">AH/Containers/Array.hpp</text>
</a>
</g>
</g>
<!-- Node1&#45;&gt;Node3 -->
<g id="edge2" class="edge">
<title>Node1&#45;&gt;Node3</title>
<path fill="none" stroke="#191970" d="M533.4275,-560.4369C481.091,-550.7321 400.068,-535.708 344.4388,-525.3926"/>
<polygon fill="#191970" stroke="#191970" points="344.8303,-521.9056 334.3598,-523.5237 343.554,-528.7883 344.8303,-521.9056"/>
</g>
<!-- Node11 -->
<g id="node11" class="node">
<title>Node11</title>
<g id="a_node11"><a xlink:href="../../dc/dc7/NamespaceSettings_8hpp.html" target="_top" xlink:title=" ">
<polygon fill="#ffffff" stroke="#000000" points="762,-56.5 762,-75.5 942,-75.5 942,-56.5 762,-56.5"/>
<text text-anchor="middle" x="852" y="-63.5" font-family="Helvetica,sans-Serif" font-size="10.00" fill="#000000">AH/Settings/NamespaceSettings.hpp</text>
</a>
</g>
</g>
<!-- Node1&#45;&gt;Node11 -->
<g id="edge38" class="edge">
<title>Node1&#45;&gt;Node11</title>
<path fill="none" stroke="#191970" d="M638.6347,-562.0596C727.8401,-547.3281 897,-512.2418 897,-458 897,-458 897,-458 897,-178 897,-142.7698 877.5922,-105.5087 864.2676,-84.0783"/>
<polygon fill="#191970" stroke="#191970" points="867.1988,-82.1655 858.8345,-75.6623 861.3178,-85.9621 867.1988,-82.1655"/>
</g>
<!-- Node19 -->
<g id="node19" class="node">
<title>Node19</title>
<g id="a_node19"><a xlink:title=" ">
<polygon fill="#ffffff" stroke="#bfbfbf" points="658.5,-224.5 658.5,-243.5 707.5,-243.5 707.5,-224.5 658.5,-224.5"/>
<text text-anchor="middle" x="683" y="-231.5" font-family="Helvetica,sans-Serif" font-size="10.00" fill="#000000">stdint.h</text>
</a>
</g>
</g>
<!-- Node1&#45;&gt;Node19 -->
<g id="edge39" class="edge">
<title>Node1&#45;&gt;Node19</title>
<path fill="none" stroke="#191970" d="M608.2575,-560.383C652.9896,-540.4384 749.9478,-489.8367 788,-412 818.3986,-349.8191 743.3593,-280.2752 704.527,-249.7743"/>
<polygon fill="#191970" stroke="#191970" points="706.4649,-246.8497 696.3989,-243.5439 702.2063,-252.4054 706.4649,-246.8497"/>
</g>
<!-- Node3&#45;&gt;Node2 -->
<g id="edge3" class="edge">
<title>Node3&#45;&gt;Node2</title>
<path fill="none" stroke="#191970" d="M219.8769,-504.623C169.938,-496.2735 105.066,-483.071 83,-468 53.6828,-447.9764 38,-437.5027 38,-402 38,-402 38,-402 38,-122 38,-75.5625 77.2736,-76.3802 119,-56 157.6812,-37.1071 204.3741,-25.8136 243.0167,-19.1487"/>
<polygon fill="#191970" stroke="#191970" points="243.8762,-22.5542 253.1718,-17.4708 242.735,-15.6479 243.8762,-22.5542"/>
</g>
<!-- Node4 -->
<g id="node4" class="node">
<title>Node4</title>
<g id="a_node4"><a xlink:href="../../d1/d93/Error_8hpp.html" target="_top" xlink:title=" ">
<polygon fill="#ffffff" stroke="#000000" points="196,-448.5 196,-467.5 294,-467.5 294,-448.5 196,-448.5"/>
<text text-anchor="middle" x="245" y="-455.5" font-family="Helvetica,sans-Serif" font-size="10.00" fill="#000000">AH/Error/Error.hpp</text>
</a>
</g>
</g>
<!-- Node3&#45;&gt;Node4 -->
<g id="edge4" class="edge">
<title>Node3&#45;&gt;Node4</title>
<path fill="none" stroke="#191970" d="M276.3809,-504.2455C271.0954,-496.4564 263.5459,-485.3308 257.1762,-475.9439"/>
<polygon fill="#191970" stroke="#191970" points="260.0545,-473.9522 251.5432,-467.6427 254.2621,-477.8827 260.0545,-473.9522"/>
</g>
<!-- Node12 -->
<g id="node12" class="node">
<title>Node12</title>
<g id="a_node12"><a xlink:title=" ">
<polygon fill="#ffffff" stroke="#bfbfbf" points="729.5,-112.5 729.5,-131.5 830.5,-131.5 830.5,-112.5 729.5,-112.5"/>
<text text-anchor="middle" x="780" y="-119.5" font-family="Helvetica,sans-Serif" font-size="10.00" fill="#000000">AH/STL/type_traits</text>
</a>
</g>
</g>
<!-- Node3&#45;&gt;Node12 -->
<g id="edge36" class="edge">
<title>Node3&#45;&gt;Node12</title>
<path fill="none" stroke="#191970" d="M346.2845,-508.0937C465.8425,-495.8453 719.1069,-464.3681 788,-412 836.4213,-375.1933 850,-350.8223 850,-290 850,-290 850,-290 850,-234 850,-195.1653 819.3623,-158.6944 798.6251,-138.4569"/>
<polygon fill="#191970" stroke="#191970" points="800.9312,-135.821 791.2467,-131.5244 796.138,-140.9226 800.9312,-135.821"/>
</g>
<!-- Node18 -->
<g id="node18" class="node">
<title>Node18</title>
<g id="a_node18"><a xlink:title=" ">
<polygon fill="#ffffff" stroke="#bfbfbf" points="280,-224.5 280,-243.5 332,-243.5 332,-224.5 280,-224.5"/>
<text text-anchor="middle" x="306" y="-231.5" font-family="Helvetica,sans-Serif" font-size="10.00" fill="#000000">stddef.h</text>
</a>
</g>
</g>
<!-- Node3&#45;&gt;Node18 -->
<g id="edge37" class="edge">
<title>Node3&#45;&gt;Node18</title>
<path fill="none" stroke="#191970" d="M288.9233,-504.2094C299.8334,-485.2164 322,-441.7379 322,-402 322,-402 322,-402 322,-346 322,-313.2342 315.2061,-275.6134 310.4725,-253.3778"/>
<polygon fill="#191970" stroke="#191970" points="313.8698,-252.5307 308.2924,-243.5228 307.0351,-254.0428 313.8698,-252.5307"/>
</g>
<!-- Node22 -->
<g id="node22" class="node">
<title>Node22</title>
<g id="a_node22"><a xlink:title=" ">
<polygon fill="#ffffff" stroke="#bfbfbf" points="92.5,-448.5 92.5,-467.5 177.5,-467.5 177.5,-448.5 92.5,-448.5"/>
<text text-anchor="middle" x="135" y="-455.5" font-family="Helvetica,sans-Serif" font-size="10.00" fill="#000000">AH/STL/iterator</text>
</a>
</g>
</g>
<!-- Node3&#45;&gt;Node22 -->
<g id="edge35" class="edge">
<title>Node3&#45;&gt;Node22</title>
<path fill="none" stroke="#191970" d="M257.5579,-504.3733C233.2674,-495.1822 196.4792,-481.2624 169.5457,-471.0713"/>
<polygon fill="#191970" stroke="#191970" points="170.7016,-467.7666 160.1101,-467.5011 168.2243,-474.3136 170.7016,-467.7666"/>
</g>
<!-- Node4&#45;&gt;Node2 -->
<g id="edge5" class="edge">
<title>Node4&#45;&gt;Node2</title>
<path fill="none" stroke="#191970" d="M294.292,-452.7599C425.6163,-438.1389 774,-394.7569 774,-346 774,-346 774,-346 774,-290 774,-177.7701 638.69,-246.6428 543,-188 506.0709,-165.3683 510.3098,-144.7796 482,-112 459.8001,-86.295 457.8534,-75.4362 430,-56 409.3908,-41.6188 383.5894,-30.5323 362.1557,-22.8499"/>
<polygon fill="#191970" stroke="#191970" points="363.2442,-19.523 352.6495,-19.5601 360.9549,-26.1381 363.2442,-19.523"/>
</g>
<!-- Node5 -->
<g id="node5" class="node">
<title>Node5</title>
<g id="a_node5"><a xlink:href="../../df/dee/Debug_8hpp.html" target="_top" xlink:title=" ">
<polygon fill="#ffffff" stroke="#000000" points="180.5,-392.5 180.5,-411.5 293.5,-411.5 293.5,-392.5 180.5,-392.5"/>
<text text-anchor="middle" x="237" y="-399.5" font-family="Helvetica,sans-Serif" font-size="10.00" fill="#000000">AH/Debug/Debug.hpp</text>
</a>
</g>
</g>
<!-- Node4&#45;&gt;Node5 -->
<g id="edge6" class="edge">
<title>Node4&#45;&gt;Node5</title>
<path fill="none" stroke="#191970" d="M243.6065,-448.2455C242.5626,-440.9382 241.0992,-430.6944 239.8149,-421.7046"/>
<polygon fill="#191970" stroke="#191970" points="243.2566,-421.0472 238.3775,-411.6427 236.327,-422.0372 243.2566,-421.0472"/>
</g>
<!-- Node5&#45;&gt;Node2 -->
<g id="edge7" class="edge">
<title>Node5&#45;&gt;Node2</title>
<path fill="none" stroke="#191970" d="M195.5385,-392.4141C147.8353,-378.6372 76,-348.2246 76,-290 76,-290 76,-290 76,-122 76,-79.5978 199.2474,-40.8946 270.5552,-22.0504"/>
<polygon fill="#191970" stroke="#191970" points="271.4588,-25.4319 280.2541,-19.5249 269.6948,-18.6578 271.4588,-25.4319"/>
</g>
<!-- Node6 -->
<g id="node6" class="node">
<title>Node6</title>
<g id="a_node6"><a xlink:href="../../dd/d80/PrintStream_8hpp.html" target="_top" xlink:title=" ">
<polygon fill="#ffffff" stroke="#000000" points="103.5,-224.5 103.5,-243.5 262.5,-243.5 262.5,-224.5 103.5,-224.5"/>
<text text-anchor="middle" x="183" y="-231.5" font-family="Helvetica,sans-Serif" font-size="10.00" fill="#000000">AH/PrintStream/PrintStream.hpp</text>
</a>
</g>
</g>
<!-- Node5&#45;&gt;Node6 -->
<g id="edge8" class="edge">
<title>Node5&#45;&gt;Node6</title>
<path fill="none" stroke="#191970" d="M227.3222,-392.3416C219.1931,-383.6198 207.9744,-370.0344 202,-356 187.5762,-322.117 183.9548,-278.7692 183.133,-253.9182"/>
<polygon fill="#191970" stroke="#191970" points="186.626,-253.54 182.9214,-243.614 179.6275,-253.6837 186.626,-253.54"/>
</g>
<!-- Node13 -->
<g id="node13" class="node">
<title>Node13</title>
<g id="a_node13"><a xlink:href="../../d2/dd5/SettingsWrapper_8hpp.html" target="_top" xlink:title=" ">
<polygon fill="#ffffff" stroke="#000000" points="350,-336.5 350,-355.5 514,-355.5 514,-336.5 350,-336.5"/>
<text text-anchor="middle" x="432" y="-343.5" font-family="Helvetica,sans-Serif" font-size="10.00" fill="#000000">AH/Settings/SettingsWrapper.hpp</text>
</a>
</g>
</g>
<!-- Node5&#45;&gt;Node13 -->
<g id="edge19" class="edge">
<title>Node5&#45;&gt;Node13</title>
<path fill="none" stroke="#191970" d="M265.2797,-392.3733C296.4135,-382.9001 346.7485,-368.4032 384.0374,-358.1435"/>
<polygon fill="#191970" stroke="#191970" points="384.9761,-361.5154 393.6984,-355.5011 383.1293,-354.7634 384.9761,-361.5154"/>
</g>
<!-- Node21 -->
<g id="node21" class="node">
<title>Node21</title>
<g id="a_node21"><a xlink:href="../../d7/d52/DebugVal_8hpp.html" target="_top" xlink:title=" ">
<polygon fill="#ffffff" stroke="#000000" points="211,-336.5 211,-355.5 289,-355.5 289,-336.5 211,-336.5"/>
<text text-anchor="middle" x="250" y="-343.5" font-family="Helvetica,sans-Serif" font-size="10.00" fill="#000000">DebugVal.hpp</text>
</a>
</g>
</g>
<!-- Node5&#45;&gt;Node21 -->
<g id="edge34" class="edge">
<title>Node5&#45;&gt;Node21</title>
<path fill="none" stroke="#191970" d="M239.2644,-392.2455C240.9794,-384.8579 243.3912,-374.4689 245.4944,-365.4087"/>
<polygon fill="#191970" stroke="#191970" points="248.9095,-366.1751 247.7615,-355.6427 242.0908,-364.5922 248.9095,-366.1751"/>
</g>
<!-- Node6&#45;&gt;Node2 -->
<g id="edge9" class="edge">
<title>Node6&#45;&gt;Node2</title>
<path fill="none" stroke="#191970" d="M187.6779,-224.409C201.1098,-197.1733 241.5,-117.366 283,-56 289.7174,-46.0669 298.0232,-35.6049 305.0623,-27.1723"/>
<polygon fill="#191970" stroke="#191970" points="307.7646,-29.3973 311.5735,-19.5108 302.4306,-24.8642 307.7646,-29.3973"/>
</g>
<!-- Node7 -->
<g id="node7" class="node">
<title>Node7</title>
<g id="a_node7"><a xlink:href="../../d6/ddf/Arduino-Wrapper_8h.html" target="_top" xlink:title=" ">
<polygon fill="#ffffff" stroke="#000000" points="552.5,-168.5 552.5,-187.5 667.5,-187.5 667.5,-168.5 552.5,-168.5"/>
<text text-anchor="middle" x="610" y="-175.5" font-family="Helvetica,sans-Serif" font-size="10.00" fill="#000000">AH/Arduino&#45;Wrapper.h</text>
</a>
</g>
</g>
<!-- Node6&#45;&gt;Node7 -->
<g id="edge10" class="edge">
<title>Node6&#45;&gt;Node7</title>
<path fill="none" stroke="#191970" d="M255.9187,-224.4369C336.161,-213.9133 464.0963,-197.1349 542.2269,-186.8883"/>
<polygon fill="#191970" stroke="#191970" points="542.9807,-190.3195 552.4406,-185.5488 542.0704,-183.3789 542.9807,-190.3195"/>
</g>
<!-- Node8 -->
<g id="node8" class="node">
<title>Node8</title>
<g id="a_node8"><a xlink:href="../../d7/d79/MinMaxFix_8hpp.html" target="_top" xlink:title=" ">
<polygon fill="#ffffff" stroke="#000000" points="547.5,-112.5 547.5,-131.5 672.5,-131.5 672.5,-112.5 547.5,-112.5"/>
<text text-anchor="middle" x="610" y="-119.5" font-family="Helvetica,sans-Serif" font-size="10.00" fill="#000000">AH/Math/MinMaxFix.hpp</text>
</a>
</g>
</g>
<!-- Node7&#45;&gt;Node8 -->
<g id="edge11" class="edge">
<title>Node7&#45;&gt;Node8</title>
<path fill="none" stroke="#191970" d="M610,-168.2455C610,-160.9382 610,-150.6944 610,-141.7046"/>
<polygon fill="#191970" stroke="#191970" points="613.5001,-141.6426 610,-131.6427 606.5001,-141.6427 613.5001,-141.6426"/>
</g>
<!-- Node10 -->
<g id="node10" class="node">
<title>Node10</title>
<g id="a_node10"><a xlink:title=" ">
<polygon fill="#ffffff" stroke="#bfbfbf" points="640,-.5 640,-19.5 698,-19.5 698,-.5 640,-.5"/>
<text text-anchor="middle" x="669" y="-7.5" font-family="Helvetica,sans-Serif" font-size="10.00" fill="#000000">Arduino.h</text>
</a>
</g>
</g>
<!-- Node7&#45;&gt;Node10 -->
<g id="edge18" class="edge">
<title>Node7&#45;&gt;Node10</title>
<path fill="none" stroke="#191970" d="M631.848,-168.366C647.4013,-160.5365 667.803,-148.1497 681,-132 697.9206,-111.2936 698.0242,-102.2736 703,-76 704.654,-67.2664 705.7814,-64.4425 703,-56 699.4944,-45.3594 692.4759,-35.164 685.7213,-27.0877"/>
<polygon fill="#191970" stroke="#191970" points="688.214,-24.6247 678.9362,-19.5087 682.9986,-29.2937 688.214,-24.6247"/>
</g>
<!-- Node7&#45;&gt;Node12 -->
<g id="edge17" class="edge">
<title>Node7&#45;&gt;Node12</title>
<path fill="none" stroke="#191970" d="M639.224,-168.3733C667.4925,-159.0613 710.4965,-144.8953 741.5344,-134.671"/>
<polygon fill="#191970" stroke="#191970" points="742.7544,-137.9542 751.1573,-131.5011 740.5643,-131.3056 742.7544,-137.9542"/>
</g>
<!-- Node8&#45;&gt;Node2 -->
<g id="edge12" class="edge">
<title>Node8&#45;&gt;Node2</title>
<path fill="none" stroke="#191970" d="M592.9075,-112.3023C564.1849,-96.1083 507.2911,-64.4971 486,-56 449.7533,-41.5343 407.3243,-29.8632 374.4352,-21.8966"/>
<polygon fill="#191970" stroke="#191970" points="375.0906,-18.4549 364.5519,-19.5442 373.4697,-25.2647 375.0906,-18.4549"/>
</g>
<!-- Node9 -->
<g id="node9" class="node">
<title>Node9</title>
<g id="a_node9"><a xlink:href="../../d6/d3b/FixArduinoMacros_8hpp.html" target="_top" xlink:title=" ">
<polygon fill="#ffffff" stroke="#000000" points="538,-56.5 538,-75.5 694,-75.5 694,-56.5 538,-56.5"/>
<text text-anchor="middle" x="616" y="-63.5" font-family="Helvetica,sans-Serif" font-size="10.00" fill="#000000">AH/Math/FixArduinoMacros.hpp</text>
</a>
</g>
</g>
<!-- Node8&#45;&gt;Node9 -->
<g id="edge13" class="edge">
<title>Node8&#45;&gt;Node9</title>
<path fill="none" stroke="#191970" d="M611.0451,-112.2455C611.828,-104.9382 612.9256,-94.6944 613.8888,-85.7046"/>
<polygon fill="#191970" stroke="#191970" points="617.3815,-85.9587 614.9669,-75.6427 610.4214,-85.2129 617.3815,-85.9587"/>
</g>
<!-- Node8&#45;&gt;Node11 -->
<g id="edge16" class="edge">
<title>Node8&#45;&gt;Node11</title>
<path fill="none" stroke="#191970" d="M651.3263,-112.4369C692.7427,-102.8529 756.5777,-88.0812 801.0935,-77.78"/>
<polygon fill="#191970" stroke="#191970" points="801.8907,-81.1881 810.8441,-75.5237 800.3125,-74.3683 801.8907,-81.1881"/>
</g>
<!-- Node9&#45;&gt;Node2 -->
<g id="edge14" class="edge">
<title>Node9&#45;&gt;Node2</title>
<path fill="none" stroke="#191970" d="M565.4521,-56.4369C514.1555,-46.7321 434.7421,-31.708 380.2182,-21.3926"/>
<polygon fill="#191970" stroke="#191970" points="380.8158,-17.9437 370.3394,-19.5237 379.5145,-24.8217 380.8158,-17.9437"/>
</g>
<!-- Node9&#45;&gt;Node10 -->
<g id="edge15" class="edge">
<title>Node9&#45;&gt;Node10</title>
<path fill="none" stroke="#191970" d="M625.2319,-56.2455C632.8317,-48.2155 643.7877,-36.6394 652.8368,-27.0781"/>
<polygon fill="#191970" stroke="#191970" points="655.5421,-29.3115 659.8739,-19.6427 650.458,-24.4998 655.5421,-29.3115"/>
</g>
<!-- Node13&#45;&gt;Node2 -->
<g id="edge20" class="edge">
<title>Node13&#45;&gt;Node2</title>
<path fill="none" stroke="#191970" d="M420.4117,-336.3927C410.5077,-327.7036 396.4073,-314.1376 387,-300 342.0943,-232.5141 332.0984,-211.4462 316,-132 308.8062,-96.4982 313.0022,-54.0156 316.5853,-29.7015"/>
<polygon fill="#191970" stroke="#191970" points="320.0749,-30.0431 318.1938,-19.6166 313.1623,-28.9404 320.0749,-30.0431"/>
</g>
<!-- Node13&#45;&gt;Node5 -->
<g id="edge33" class="edge">
<title>Node13&#45;&gt;Node5</title>
<path fill="none" stroke="#191970" d="M404.133,-355.5011C373.17,-364.9296 322.8629,-379.4228 285.459,-389.7199"/>
<polygon fill="#191970" stroke="#191970" points="284.4851,-386.3576 275.7637,-392.3733 286.333,-393.1094 284.4851,-386.3576"/>
</g>
<!-- Node13&#45;&gt;Node11 -->
<g id="edge21" class="edge">
<title>Node13&#45;&gt;Node11</title>
<path fill="none" stroke="#191970" d="M501.7335,-336.4702C559.1424,-327.8308 635.4048,-314.2942 663,-300 759.3064,-250.1137 788.4145,-227.407 840,-132 847.7029,-117.7536 850.5781,-99.5096 851.5976,-85.8149"/>
<polygon fill="#191970" stroke="#191970" points="855.1058,-85.7233 852.0828,-75.5689 848.1136,-85.3922 855.1058,-85.7233"/>
</g>
<!-- Node14 -->
<g id="node14" class="node">
<title>Node14</title>
<g id="a_node14"><a xlink:href="../../db/d02/Settings_8hpp.html" target="_top" xlink:title="All user settings and debugging options can be changed here.">
<polygon fill="#ffffff" stroke="#000000" points="396.5,-280.5 396.5,-299.5 467.5,-299.5 467.5,-280.5 396.5,-280.5"/>
<text text-anchor="middle" x="432" y="-287.5" font-family="Helvetica,sans-Serif" font-size="10.00" fill="#000000">Settings.hpp</text>
</a>
</g>
</g>
<!-- Node13&#45;&gt;Node14 -->
<g id="edge22" class="edge">
<title>Node13&#45;&gt;Node14</title>
<path fill="none" stroke="#191970" d="M432,-336.2455C432,-328.9382 432,-318.6944 432,-309.7046"/>
<polygon fill="#191970" stroke="#191970" points="435.5001,-309.6426 432,-299.6427 428.5001,-309.6427 435.5001,-309.6426"/>
</g>
<!-- Node20 -->
<g id="node20" class="node">
<title>Node20</title>
<g id="a_node20"><a xlink:href="../../d9/d98/TeensyUSBTypes_8hpp.html" target="_top" xlink:title=" ">
<polygon fill="#ffffff" stroke="#000000" points="486,-280.5 486,-299.5 654,-299.5 654,-280.5 486,-280.5"/>
<text text-anchor="middle" x="570" y="-287.5" font-family="Helvetica,sans-Serif" font-size="10.00" fill="#000000">AH/Teensy/TeensyUSBTypes.hpp</text>
</a>
</g>
</g>
<!-- Node13&#45;&gt;Node20 -->
<g id="edge32" class="edge">
<title>Node13&#45;&gt;Node20</title>
<path fill="none" stroke="#191970" d="M455.723,-336.3733C478.1737,-327.2629 512.0739,-313.5062 537.1255,-303.3404"/>
<polygon fill="#191970" stroke="#191970" points="538.6365,-306.5045 546.5865,-299.5011 536.0043,-300.0182 538.6365,-306.5045"/>
</g>
<!-- Node15 -->
<g id="node15" class="node">
<title>Node15</title>
<g id="a_node15"><a xlink:href="../../dc/d50/Frequency_8hpp.html" target="_top" xlink:title=" ">
<polygon fill="#ffffff" stroke="#000000" points="325,-112.5 325,-131.5 453,-131.5 453,-112.5 325,-112.5"/>
<text text-anchor="middle" x="389" y="-119.5" font-family="Helvetica,sans-Serif" font-size="10.00" fill="#000000">AH/Types/Frequency.hpp</text>
</a>
</g>
</g>
<!-- Node14&#45;&gt;Node15 -->
<g id="edge23" class="edge">
<title>Node14&#45;&gt;Node15</title>
<path fill="none" stroke="#191970" d="M428.524,-280.207C425.3047,-270.947 420.5004,-256.6278 417,-244 407.0776,-208.2047 397.9226,-165.8205 392.9338,-141.6043"/>
<polygon fill="#191970" stroke="#191970" points="396.3146,-140.6653 390.8906,-131.5642 389.4552,-142.0614 396.3146,-140.6653"/>
</g>
<!-- Node16 -->
<g id="node16" class="node">
<title>Node16</title>
<g id="a_node16"><a xlink:href="../../d7/d7c/ADCConfig_8hpp.html" target="_top" xlink:title="This file contains the platform&#45;specific ADC resolutions. By default, the library automatically selec...">
<polygon fill="#ffffff" stroke="#000000" points="426,-224.5 426,-243.5 574,-243.5 574,-224.5 426,-224.5"/>
<text text-anchor="middle" x="500" y="-231.5" font-family="Helvetica,sans-Serif" font-size="10.00" fill="#000000">AH/Hardware/ADCConfig.hpp</text>
</a>
</g>
</g>
<!-- Node14&#45;&gt;Node16 -->
<g id="edge26" class="edge">
<title>Node14&#45;&gt;Node16</title>
<path fill="none" stroke="#191970" d="M443.8447,-280.2455C453.888,-271.9746 468.4995,-259.9416 480.3004,-250.2232"/>
<polygon fill="#191970" stroke="#191970" points="482.7967,-252.7015 488.291,-243.6427 478.3467,-247.298 482.7967,-252.7015"/>
</g>
<!-- Node17 -->
<g id="node17" class="node">
<title>Node17</title>
<g id="a_node17"><a xlink:title=" ">
<polygon fill="#ffffff" stroke="#bfbfbf" points="592,-224.5 592,-243.5 640,-243.5 640,-224.5 592,-224.5"/>
<text text-anchor="middle" x="616" y="-231.5" font-family="Helvetica,sans-Serif" font-size="10.00" fill="#000000">limits.h</text>
</a>
</g>
</g>
<!-- Node14&#45;&gt;Node17 -->
<g id="edge29" class="edge">
<title>Node14&#45;&gt;Node17</title>
<path fill="none" stroke="#191970" d="M463.6307,-280.3733C496.5944,-270.3408 548.0707,-254.6741 581.9183,-244.3727"/>
<polygon fill="#191970" stroke="#191970" points="583.269,-247.6202 591.8167,-241.3601 581.2308,-240.9235 583.269,-247.6202"/>
</g>
<!-- Node14&#45;&gt;Node18 -->
<g id="edge30" class="edge">
<title>Node14&#45;&gt;Node18</title>
<path fill="none" stroke="#191970" d="M410.3398,-280.3733C390.0228,-271.3435 359.436,-257.7494 336.625,-247.6111"/>
<polygon fill="#191970" stroke="#191970" points="337.9372,-244.3642 327.3775,-243.5011 335.0941,-250.7609 337.9372,-244.3642"/>
</g>
<!-- Node14&#45;&gt;Node19 -->
<g id="edge31" class="edge">
<title>Node14&#45;&gt;Node19</title>
<path fill="none" stroke="#191970" d="M467.8526,-281.9909C470.9455,-281.3127 474.0272,-280.6414 477,-280 550.2129,-264.204 571.5258,-263.1013 648.0501,-244.0885"/>
<polygon fill="#191970" stroke="#191970" points="649.332,-247.3755 658.1803,-241.5482 647.6292,-240.5858 649.332,-247.3755"/>
</g>
<!-- Node15&#45;&gt;Node2 -->
<g id="edge24" class="edge">
<title>Node15&#45;&gt;Node2</title>
<path fill="none" stroke="#191970" d="M383.1171,-112.4509C371.6087,-93.7707 345.9512,-52.1238 331.1362,-28.0761"/>
<polygon fill="#191970" stroke="#191970" points="334.0932,-26.203 325.868,-19.5249 328.1334,-29.8747 334.0932,-26.203"/>
</g>
<!-- Node15&#45;&gt;Node11 -->
<g id="edge25" class="edge">
<title>Node15&#45;&gt;Node11</title>
<path fill="none" stroke="#191970" d="M453.3782,-114.2134C533.9692,-104.4659 672.42,-87.7203 763.0839,-76.7544"/>
<polygon fill="#191970" stroke="#191970" points="763.5657,-80.2218 773.0731,-75.5462 762.7251,-73.2724 763.5657,-80.2218"/>
</g>
<!-- Node16&#45;&gt;Node2 -->
<g id="edge27" class="edge">
<title>Node16&#45;&gt;Node2</title>
<path fill="none" stroke="#191970" d="M499.0667,-224.206C496.5495,-202.2056 487.9569,-147.9833 462,-112 432.6652,-71.3341 382.0611,-40.6783 349.8521,-24.0468"/>
<polygon fill="#191970" stroke="#191970" points="351.3956,-20.9054 340.8897,-19.5355 348.2482,-27.158 351.3956,-20.9054"/>
</g>
<!-- Node16&#45;&gt;Node7 -->
<g id="edge28" class="edge">
<title>Node16&#45;&gt;Node7</title>
<path fill="none" stroke="#191970" d="M519.1605,-224.2455C536.5111,-215.4125 562.2901,-202.2887 581.9583,-192.2758"/>
<polygon fill="#191970" stroke="#191970" points="583.7353,-195.2986 591.059,-187.6427 580.5595,-189.0605 583.7353,-195.2986"/>
</g>
</g>
</svg>
