<?xml version="1.0" encoding="UTF-8" standalone="no"?>
<!DOCTYPE svg PUBLIC "-//W3C//DTD SVG 1.1//EN"
 "http://www.w3.org/Graphics/SVG/1.1/DTD/svg11.dtd">
<!-- Generated by graphviz version 2.40.1 (20161225.0304)
 -->
<!-- Title: ShiftRegisterOutRGB.hpp Pages: 1 -->
<svg width="804pt" height="420pt"
 viewBox="0.00 0.00 804.00 420.00" xmlns="http://www.w3.org/2000/svg" xmlns:xlink="http://www.w3.org/1999/xlink">
<g id="graph0" class="graph" transform="scale(1 1) rotate(0) translate(4 416)">
<title>ShiftRegisterOutRGB.hpp</title>
<polygon fill="#ffffff" stroke="transparent" points="-4,4 -4,-416 800,-416 800,4 -4,4"/>
<!-- Node1 -->
<g id="node1" class="node">
<title>Node1</title>
<g id="a_node1"><a xlink:title=" ">
<polygon fill="#bfbfbf" stroke="#000000" points="422,-392.5 422,-411.5 552,-411.5 552,-392.5 422,-392.5"/>
<text text-anchor="middle" x="487" y="-399.5" font-family="Helvetica,sans-Serif" font-size="10.00" fill="#000000">ShiftRegisterOutRGB.hpp</text>
</a>
</g>
</g>
<!-- Node2 -->
<g id="node2" class="node">
<title>Node2</title>
<g id="a_node2"><a xlink:href="../../d1/d65/Warnings_8hpp.html" target="_top" xlink:title=" ">
<polygon fill="#ffffff" stroke="#000000" points="430.5,-.5 430.5,-19.5 563.5,-19.5 563.5,-.5 430.5,-.5"/>
<text text-anchor="middle" x="497" y="-7.5" font-family="Helvetica,sans-Serif" font-size="10.00" fill="#000000">AH/Settings/Warnings.hpp</text>
</a>
</g>
</g>
<!-- Node1&#45;&gt;Node2 -->
<g id="edge1" class="edge">
<title>Node1&#45;&gt;Node2</title>
<path fill="none" stroke="#191970" d="M548.7881,-392.4805C638.9622,-376.8184 796,-342.0682 796,-290 796,-290 796,-290 796,-122 796,-82.9495 771.904,-75.3768 738,-56 710.4694,-40.2658 633.4446,-27.2739 573.8083,-19.1567"/>
<polygon fill="#191970" stroke="#191970" points="574.0215,-15.6541 563.6457,-17.7972 573.0933,-22.5923 574.0215,-15.6541"/>
</g>
<!-- Node3 -->
<g id="node3" class="node">
<title>Node3</title>
<g id="a_node3"><a xlink:title=" ">
<polygon fill="#ffffff" stroke="#bfbfbf" points="28.5,-224.5 28.5,-243.5 77.5,-243.5 77.5,-224.5 28.5,-224.5"/>
<text text-anchor="middle" x="53" y="-231.5" font-family="Helvetica,sans-Serif" font-size="10.00" fill="#000000">stdint.h</text>
</a>
</g>
</g>
<!-- Node1&#45;&gt;Node3 -->
<g id="edge2" class="edge">
<title>Node1&#45;&gt;Node3</title>
<path fill="none" stroke="#191970" d="M441.8935,-392.4506C376.4582,-377.6598 252.2863,-346.0338 154,-300 124.2259,-286.0549 92.9939,-264.3989 73.2847,-249.7299"/>
<polygon fill="#191970" stroke="#191970" points="75.1748,-246.7713 65.0865,-243.5346 70.9545,-252.356 75.1748,-246.7713"/>
</g>
<!-- Node4 -->
<g id="node4" class="node">
<title>Node4</title>
<g id="a_node4"><a xlink:href="../../d2/dd5/SettingsWrapper_8hpp.html" target="_top" xlink:title=" ">
<polygon fill="#ffffff" stroke="#000000" points="405,-336.5 405,-355.5 569,-355.5 569,-336.5 405,-336.5"/>
<text text-anchor="middle" x="487" y="-343.5" font-family="Helvetica,sans-Serif" font-size="10.00" fill="#000000">AH/Settings/SettingsWrapper.hpp</text>
</a>
</g>
</g>
<!-- Node1&#45;&gt;Node4 -->
<g id="edge3" class="edge">
<title>Node1&#45;&gt;Node4</title>
<path fill="none" stroke="#191970" d="M487,-392.2455C487,-384.9382 487,-374.6944 487,-365.7046"/>
<polygon fill="#191970" stroke="#191970" points="490.5001,-365.6426 487,-355.6427 483.5001,-365.6427 490.5001,-365.6426"/>
</g>
<!-- Node4&#45;&gt;Node2 -->
<g id="edge4" class="edge">
<title>Node4&#45;&gt;Node2</title>
<path fill="none" stroke="#191970" d="M569.0745,-340.2911C632.8229,-334.2067 714.3919,-322.2683 739,-300 761.6334,-279.5187 758,-264.5246 758,-234 758,-234 758,-234 758,-122 758,-85.4662 739.7002,-75.8044 709,-56 686.7473,-41.645 624.9715,-29.1805 573.8086,-20.861"/>
<polygon fill="#191970" stroke="#191970" points="574.159,-17.3727 563.7324,-19.2531 573.0559,-24.2853 574.159,-17.3727"/>
</g>
<!-- Node5 -->
<g id="node5" class="node">
<title>Node5</title>
<g id="a_node5"><a xlink:href="../../dc/dc7/NamespaceSettings_8hpp.html" target="_top" xlink:title=" ">
<polygon fill="#ffffff" stroke="#000000" points="65,-56.5 65,-75.5 189,-75.5 189,-56.5 65,-56.5"/>
<text text-anchor="middle" x="127" y="-63.5" font-family="Helvetica,sans-Serif" font-size="10.00" fill="#000000">NamespaceSettings.hpp</text>
</a>
</g>
</g>
<!-- Node4&#45;&gt;Node5 -->
<g id="edge5" class="edge">
<title>Node4&#45;&gt;Node5</title>
<path fill="none" stroke="#191970" d="M404.9378,-343.8709C266.1465,-338.0182 0,-316.0926 0,-234 0,-234 0,-234 0,-178 0,-145.2043 9.7111,-135.0907 33,-112 47.6962,-97.4289 67.9242,-86.7175 85.8518,-79.3159"/>
<polygon fill="#191970" stroke="#191970" points="87.4818,-82.437 95.5252,-75.541 84.937,-75.9159 87.4818,-82.437"/>
</g>
<!-- Node6 -->
<g id="node6" class="node">
<title>Node6</title>
<g id="a_node6"><a xlink:href="../../db/d02/Settings_8hpp.html" target="_top" xlink:title="All user settings and debugging options can be changed here.">
<polygon fill="#ffffff" stroke="#000000" points="163.5,-280.5 163.5,-299.5 234.5,-299.5 234.5,-280.5 163.5,-280.5"/>
<text text-anchor="middle" x="199" y="-287.5" font-family="Helvetica,sans-Serif" font-size="10.00" fill="#000000">Settings.hpp</text>
</a>
</g>
</g>
<!-- Node4&#45;&gt;Node6 -->
<g id="edge6" class="edge">
<title>Node4&#45;&gt;Node6</title>
<path fill="none" stroke="#191970" d="M437.8183,-336.4369C383.7473,-325.9231 297.5682,-309.166 244.8579,-298.9168"/>
<polygon fill="#191970" stroke="#191970" points="245.2657,-295.4306 234.7815,-296.9575 243.9296,-302.3019 245.2657,-295.4306"/>
</g>
<!-- Node16 -->
<g id="node16" class="node">
<title>Node16</title>
<g id="a_node16"><a xlink:href="../../d9/d98/TeensyUSBTypes_8hpp.html" target="_top" xlink:title=" ">
<polygon fill="#ffffff" stroke="#000000" points="562,-280.5 562,-299.5 730,-299.5 730,-280.5 562,-280.5"/>
<text text-anchor="middle" x="646" y="-287.5" font-family="Helvetica,sans-Serif" font-size="10.00" fill="#000000">AH/Teensy/TeensyUSBTypes.hpp</text>
</a>
</g>
</g>
<!-- Node4&#45;&gt;Node16 -->
<g id="edge24" class="edge">
<title>Node4&#45;&gt;Node16</title>
<path fill="none" stroke="#191970" d="M514.3331,-336.3733C540.5434,-327.1419 580.2984,-313.1402 609.2668,-302.9375"/>
<polygon fill="#191970" stroke="#191970" points="610.7542,-306.1244 619.0236,-299.5011 608.4288,-299.5219 610.7542,-306.1244"/>
</g>
<!-- Node17 -->
<g id="node17" class="node">
<title>Node17</title>
<g id="a_node17"><a xlink:href="../../df/dee/Debug_8hpp.html" target="_top" xlink:title=" ">
<polygon fill="#ffffff" stroke="#000000" points="430.5,-280.5 430.5,-299.5 543.5,-299.5 543.5,-280.5 430.5,-280.5"/>
<text text-anchor="middle" x="487" y="-287.5" font-family="Helvetica,sans-Serif" font-size="10.00" fill="#000000">AH/Debug/Debug.hpp</text>
</a>
</g>
</g>
<!-- Node4&#45;&gt;Node17 -->
<g id="edge25" class="edge">
<title>Node4&#45;&gt;Node17</title>
<path fill="none" stroke="#191970" d="M481.7332,-336.2455C480.3221,-328.9382 479.9179,-318.6944 480.5205,-309.7046"/>
<polygon fill="#191970" stroke="#191970" points="484.0111,-309.9945 481.7549,-299.6427 477.0632,-309.1421 484.0111,-309.9945"/>
</g>
<!-- Node6&#45;&gt;Node3 -->
<g id="edge23" class="edge">
<title>Node6&#45;&gt;Node3</title>
<path fill="none" stroke="#191970" d="M173.9017,-280.3733C150.0445,-271.2226 113.9665,-257.3844 87.429,-247.2057"/>
<polygon fill="#191970" stroke="#191970" points="88.361,-243.8145 77.7708,-243.5011 85.8541,-250.3503 88.361,-243.8145"/>
</g>
<!-- Node7 -->
<g id="node7" class="node">
<title>Node7</title>
<g id="a_node7"><a xlink:href="../../dc/d50/Frequency_8hpp.html" target="_top" xlink:title=" ">
<polygon fill="#ffffff" stroke="#000000" points="42,-112.5 42,-131.5 170,-131.5 170,-112.5 42,-112.5"/>
<text text-anchor="middle" x="106" y="-119.5" font-family="Helvetica,sans-Serif" font-size="10.00" fill="#000000">AH/Types/Frequency.hpp</text>
</a>
</g>
</g>
<!-- Node6&#45;&gt;Node7 -->
<g id="edge7" class="edge">
<title>Node6&#45;&gt;Node7</title>
<path fill="none" stroke="#191970" d="M172.9478,-280.4629C156.528,-273.0669 136.3528,-261.1568 125,-244 104.3915,-212.8558 103.0333,-167.5987 104.2687,-141.8616"/>
<polygon fill="#191970" stroke="#191970" points="107.7647,-142.0366 104.9335,-131.8271 100.78,-141.5738 107.7647,-142.0366"/>
</g>
<!-- Node8 -->
<g id="node8" class="node">
<title>Node8</title>
<g id="a_node8"><a xlink:href="../../d7/d7c/ADCConfig_8hpp.html" target="_top" xlink:title="This file contains the platform&#45;specific ADC resolutions. By default, the library automatically selec...">
<polygon fill="#ffffff" stroke="#000000" points="270,-224.5 270,-243.5 418,-243.5 418,-224.5 270,-224.5"/>
<text text-anchor="middle" x="344" y="-231.5" font-family="Helvetica,sans-Serif" font-size="10.00" fill="#000000">AH/Hardware/ADCConfig.hpp</text>
</a>
</g>
</g>
<!-- Node6&#45;&gt;Node8 -->
<g id="edge10" class="edge">
<title>Node6&#45;&gt;Node8</title>
<path fill="none" stroke="#191970" d="M223.9264,-280.3733C247.6202,-271.2226 283.4511,-257.3844 309.8068,-247.2057"/>
<polygon fill="#191970" stroke="#191970" points="311.3314,-250.3689 319.3989,-243.5011 308.8094,-243.8389 311.3314,-250.3689"/>
</g>
<!-- Node14 -->
<g id="node14" class="node">
<title>Node14</title>
<g id="a_node14"><a xlink:title=" ">
<polygon fill="#ffffff" stroke="#bfbfbf" points="134,-224.5 134,-243.5 182,-243.5 182,-224.5 134,-224.5"/>
<text text-anchor="middle" x="158" y="-231.5" font-family="Helvetica,sans-Serif" font-size="10.00" fill="#000000">limits.h</text>
</a>
</g>
</g>
<!-- Node6&#45;&gt;Node14 -->
<g id="edge21" class="edge">
<title>Node6&#45;&gt;Node14</title>
<path fill="none" stroke="#191970" d="M191.8583,-280.2455C186.1556,-272.4564 178.01,-261.3308 171.1375,-251.9439"/>
<polygon fill="#191970" stroke="#191970" points="173.7913,-249.6437 165.0598,-243.6427 168.1432,-253.7789 173.7913,-249.6437"/>
</g>
<!-- Node15 -->
<g id="node15" class="node">
<title>Node15</title>
<g id="a_node15"><a xlink:title=" ">
<polygon fill="#ffffff" stroke="#bfbfbf" points="200,-224.5 200,-243.5 252,-243.5 252,-224.5 200,-224.5"/>
<text text-anchor="middle" x="226" y="-231.5" font-family="Helvetica,sans-Serif" font-size="10.00" fill="#000000">stddef.h</text>
</a>
</g>
</g>
<!-- Node6&#45;&gt;Node15 -->
<g id="edge22" class="edge">
<title>Node6&#45;&gt;Node15</title>
<path fill="none" stroke="#191970" d="M203.703,-280.2455C207.3424,-272.6973 212.4924,-262.0158 216.9262,-252.8197"/>
<polygon fill="#191970" stroke="#191970" points="220.1605,-254.1704 221.3509,-243.6427 213.8551,-251.1303 220.1605,-254.1704"/>
</g>
<!-- Node7&#45;&gt;Node2 -->
<g id="edge8" class="edge">
<title>Node7&#45;&gt;Node2</title>
<path fill="none" stroke="#191970" d="M89.7881,-112.4237C69.3897,-99.2168 38.9672,-74.9019 56,-56 79.8778,-29.502 300.3512,-17.2608 420.227,-12.5223"/>
<polygon fill="#191970" stroke="#191970" points="420.5877,-16.0111 430.4449,-12.127 420.317,-9.0163 420.5877,-16.0111"/>
</g>
<!-- Node7&#45;&gt;Node5 -->
<g id="edge9" class="edge">
<title>Node7&#45;&gt;Node5</title>
<path fill="none" stroke="#191970" d="M109.6579,-112.2455C112.4584,-104.7776 116.409,-94.2427 119.8324,-85.1137"/>
<polygon fill="#191970" stroke="#191970" points="123.1499,-86.2349 123.384,-75.6427 116.5955,-83.777 123.1499,-86.2349"/>
</g>
<!-- Node8&#45;&gt;Node2 -->
<g id="edge11" class="edge">
<title>Node8&#45;&gt;Node2</title>
<path fill="none" stroke="#191970" d="M360.3294,-224.4593C385.7126,-208.6956 434.1869,-174.6706 458,-132 476.7001,-98.4913 487.9108,-54.7206 493.2317,-29.7501"/>
<polygon fill="#191970" stroke="#191970" points="496.7116,-30.2005 495.2678,-19.7045 489.851,-28.8099 496.7116,-30.2005"/>
</g>
<!-- Node9 -->
<g id="node9" class="node">
<title>Node9</title>
<g id="a_node9"><a xlink:href="../../d6/ddf/Arduino-Wrapper_8h.html" target="_top" xlink:title=" ">
<polygon fill="#ffffff" stroke="#000000" points="286.5,-168.5 286.5,-187.5 401.5,-187.5 401.5,-168.5 286.5,-168.5"/>
<text text-anchor="middle" x="344" y="-175.5" font-family="Helvetica,sans-Serif" font-size="10.00" fill="#000000">AH/Arduino&#45;Wrapper.h</text>
</a>
</g>
</g>
<!-- Node8&#45;&gt;Node9 -->
<g id="edge12" class="edge">
<title>Node8&#45;&gt;Node9</title>
<path fill="none" stroke="#191970" d="M344,-224.2455C344,-216.9382 344,-206.6944 344,-197.7046"/>
<polygon fill="#191970" stroke="#191970" points="347.5001,-197.6426 344,-187.6427 340.5001,-197.6427 347.5001,-197.6426"/>
</g>
<!-- Node10 -->
<g id="node10" class="node">
<title>Node10</title>
<g id="a_node10"><a xlink:href="../../d7/d79/MinMaxFix_8hpp.html" target="_top" xlink:title=" ">
<polygon fill="#ffffff" stroke="#000000" points="205.5,-112.5 205.5,-131.5 330.5,-131.5 330.5,-112.5 205.5,-112.5"/>
<text text-anchor="middle" x="268" y="-119.5" font-family="Helvetica,sans-Serif" font-size="10.00" fill="#000000">AH/Math/MinMaxFix.hpp</text>
</a>
</g>
</g>
<!-- Node9&#45;&gt;Node10 -->
<g id="edge13" class="edge">
<title>Node9&#45;&gt;Node10</title>
<path fill="none" stroke="#191970" d="M330.7618,-168.2455C319.319,-159.814 302.5704,-147.4729 289.2525,-137.6598"/>
<polygon fill="#191970" stroke="#191970" points="291.2133,-134.757 281.0865,-131.6427 287.0609,-140.3924 291.2133,-134.757"/>
</g>
<!-- Node12 -->
<g id="node12" class="node">
<title>Node12</title>
<g id="a_node12"><a xlink:title=" ">
<polygon fill="#ffffff" stroke="#bfbfbf" points="95,-.5 95,-19.5 153,-19.5 153,-.5 95,-.5"/>
<text text-anchor="middle" x="124" y="-7.5" font-family="Helvetica,sans-Serif" font-size="10.00" fill="#000000">Arduino.h</text>
</a>
</g>
</g>
<!-- Node9&#45;&gt;Node12 -->
<g id="edge20" class="edge">
<title>Node9&#45;&gt;Node12</title>
<path fill="none" stroke="#191970" d="M286.1861,-173.4938C200.8108,-166.2455 49.2917,-150.8787 33,-132 19.3651,-116.2001 30.7764,-78.9355 48,-56 58.4082,-42.1401 74.3246,-31.5841 88.9072,-24.1022"/>
<polygon fill="#191970" stroke="#191970" points="90.7278,-27.1106 98.2262,-19.6256 87.6967,-20.8008 90.7278,-27.1106"/>
</g>
<!-- Node13 -->
<g id="node13" class="node">
<title>Node13</title>
<g id="a_node13"><a xlink:title=" ">
<polygon fill="#ffffff" stroke="#bfbfbf" points="348.5,-112.5 348.5,-131.5 449.5,-131.5 449.5,-112.5 348.5,-112.5"/>
<text text-anchor="middle" x="399" y="-119.5" font-family="Helvetica,sans-Serif" font-size="10.00" fill="#000000">AH/STL/type_traits</text>
</a>
</g>
</g>
<!-- Node9&#45;&gt;Node13 -->
<g id="edge19" class="edge">
<title>Node9&#45;&gt;Node13</title>
<path fill="none" stroke="#191970" d="M353.5803,-168.2455C361.5458,-160.1352 373.0641,-148.4075 382.5079,-138.7919"/>
<polygon fill="#191970" stroke="#191970" points="385.0195,-141.2297 389.5295,-131.6427 380.0253,-136.3247 385.0195,-141.2297"/>
</g>
<!-- Node10&#45;&gt;Node2 -->
<g id="edge14" class="edge">
<title>Node10&#45;&gt;Node2</title>
<path fill="none" stroke="#191970" d="M290.9306,-112.3994C312.1435,-103.3904 344.4599,-89.3414 372,-76 406.6632,-59.208 445.8074,-38.1983 470.9093,-24.4541"/>
<polygon fill="#191970" stroke="#191970" points="472.7255,-27.4498 479.8036,-19.5662 469.3541,-21.3151 472.7255,-27.4498"/>
</g>
<!-- Node10&#45;&gt;Node5 -->
<g id="edge18" class="edge">
<title>Node10&#45;&gt;Node5</title>
<path fill="none" stroke="#191970" d="M243.7612,-112.3733C220.7211,-103.2226 185.8786,-89.3844 160.2499,-79.2057"/>
<polygon fill="#191970" stroke="#191970" points="161.5082,-75.9395 150.9225,-75.5011 158.9244,-82.4452 161.5082,-75.9395"/>
</g>
<!-- Node11 -->
<g id="node11" class="node">
<title>Node11</title>
<g id="a_node11"><a xlink:href="../../d6/d3b/FixArduinoMacros_8hpp.html" target="_top" xlink:title=" ">
<polygon fill="#ffffff" stroke="#000000" points="207,-56.5 207,-75.5 363,-75.5 363,-56.5 207,-56.5"/>
<text text-anchor="middle" x="285" y="-63.5" font-family="Helvetica,sans-Serif" font-size="10.00" fill="#000000">AH/Math/FixArduinoMacros.hpp</text>
</a>
</g>
</g>
<!-- Node10&#45;&gt;Node11 -->
<g id="edge15" class="edge">
<title>Node10&#45;&gt;Node11</title>
<path fill="none" stroke="#191970" d="M270.9612,-112.2455C273.2038,-104.8579 276.3577,-94.4689 279.1081,-85.4087"/>
<polygon fill="#191970" stroke="#191970" points="282.517,-86.2282 282.0728,-75.6427 275.8188,-84.1948 282.517,-86.2282"/>
</g>
<!-- Node11&#45;&gt;Node2 -->
<g id="edge16" class="edge">
<title>Node11&#45;&gt;Node2</title>
<path fill="none" stroke="#191970" d="M321.4441,-56.3733C357.3069,-46.9001 412.1878,-32.4032 451.0282,-22.1435"/>
<polygon fill="#191970" stroke="#191970" points="452.257,-25.439 461.0315,-19.5011 450.4692,-18.6712 452.257,-25.439"/>
</g>
<!-- Node11&#45;&gt;Node12 -->
<g id="edge17" class="edge">
<title>Node11&#45;&gt;Node12</title>
<path fill="none" stroke="#191970" d="M257.3231,-56.3733C230.6672,-47.1016 190.1762,-33.0178 160.8116,-22.804"/>
<polygon fill="#191970" stroke="#191970" points="161.9105,-19.4807 151.3157,-19.5011 159.6109,-26.0921 161.9105,-19.4807"/>
</g>
<!-- Node17&#45;&gt;Node2 -->
<g id="edge26" class="edge">
<title>Node17&#45;&gt;Node2</title>
<path fill="none" stroke="#191970" d="M543.746,-280.8866C603.1747,-270.8606 689.4902,-254.7465 701,-244 723.3113,-223.1684 720,-208.5246 720,-178 720,-178 720,-178 720,-122 720,-54.8653 638.2921,-27.9684 573.7939,-17.1948"/>
<polygon fill="#191970" stroke="#191970" points="574.0262,-13.6886 563.6053,-15.6004 572.9439,-20.6044 574.0262,-13.6886"/>
</g>
<!-- Node17&#45;&gt;Node4 -->
<g id="edge30" class="edge">
<title>Node17&#45;&gt;Node4</title>
<path fill="none" stroke="#191970" d="M492.2451,-299.6427C493.6665,-306.9199 494.081,-317.155 493.4887,-326.1575"/>
<polygon fill="#191970" stroke="#191970" points="489.9947,-325.8972 492.2668,-336.2455 496.9439,-326.739 489.9947,-325.8972"/>
</g>
<!-- Node18 -->
<g id="node18" class="node">
<title>Node18</title>
<g id="a_node18"><a xlink:href="../../dd/d80/PrintStream_8hpp.html" target="_top" xlink:title=" ">
<polygon fill="#ffffff" stroke="#000000" points="436.5,-224.5 436.5,-243.5 595.5,-243.5 595.5,-224.5 436.5,-224.5"/>
<text text-anchor="middle" x="516" y="-231.5" font-family="Helvetica,sans-Serif" font-size="10.00" fill="#000000">AH/PrintStream/PrintStream.hpp</text>
</a>
</g>
</g>
<!-- Node17&#45;&gt;Node18 -->
<g id="edge27" class="edge">
<title>Node17&#45;&gt;Node18</title>
<path fill="none" stroke="#191970" d="M492.0514,-280.2455C496.0019,-272.617 501.6097,-261.7881 506.4058,-252.5267"/>
<polygon fill="#191970" stroke="#191970" points="509.5159,-254.1321 511.0065,-243.6427 503.2999,-250.9131 509.5159,-254.1321"/>
</g>
<!-- Node19 -->
<g id="node19" class="node">
<title>Node19</title>
<g id="a_node19"><a xlink:href="../../d7/d52/DebugVal_8hpp.html" target="_top" xlink:title=" ">
<polygon fill="#ffffff" stroke="#000000" points="614,-224.5 614,-243.5 692,-243.5 692,-224.5 614,-224.5"/>
<text text-anchor="middle" x="653" y="-231.5" font-family="Helvetica,sans-Serif" font-size="10.00" fill="#000000">DebugVal.hpp</text>
</a>
</g>
</g>
<!-- Node17&#45;&gt;Node19 -->
<g id="edge31" class="edge">
<title>Node17&#45;&gt;Node19</title>
<path fill="none" stroke="#191970" d="M515.5364,-280.3733C543.0202,-271.1016 584.7686,-257.0178 615.0452,-246.804"/>
<polygon fill="#191970" stroke="#191970" points="616.4794,-250.0141 624.836,-243.5011 614.2418,-243.3813 616.4794,-250.0141"/>
</g>
<!-- Node18&#45;&gt;Node2 -->
<g id="edge28" class="edge">
<title>Node18&#45;&gt;Node2</title>
<path fill="none" stroke="#191970" d="M515.1836,-224.375C512.309,-190.4851 502.6179,-76.2317 498.6823,-29.8332"/>
<polygon fill="#191970" stroke="#191970" points="502.1461,-29.2575 497.8134,-19.5891 495.1712,-29.8492 502.1461,-29.2575"/>
</g>
<!-- Node18&#45;&gt;Node9 -->
<g id="edge29" class="edge">
<title>Node18&#45;&gt;Node9</title>
<path fill="none" stroke="#191970" d="M486.4321,-224.3733C457.8312,-215.0613 414.3212,-200.8953 382.9181,-190.671"/>
<polygon fill="#191970" stroke="#191970" points="383.7743,-187.269 373.182,-187.5011 381.6072,-193.9251 383.7743,-187.269"/>
</g>
</g>
</svg>
