<?xml version="1.0" encoding="UTF-8" standalone="no"?>
<!DOCTYPE svg PUBLIC "-//W3C//DTD SVG 1.1//EN"
 "http://www.w3.org/Graphics/SVG/1.1/DTD/svg11.dtd">
<!-- Generated by graphviz version 2.40.1 (20161225.0304)
 -->
<!-- Title: LinkedList.hpp Pages: 1 -->
<svg width="886pt" height="476pt"
 viewBox="0.00 0.00 885.50 476.00" xmlns="http://www.w3.org/2000/svg" xmlns:xlink="http://www.w3.org/1999/xlink">
<g id="graph0" class="graph" transform="scale(1 1) rotate(0) translate(4 472)">
<title>LinkedList.hpp</title>
<polygon fill="#ffffff" stroke="transparent" points="-4,4 -4,-472 881.5,-472 881.5,4 -4,4"/>
<!-- Node1 -->
<g id="node1" class="node">
<title>Node1</title>
<g id="a_node1"><a xlink:title=" ">
<polygon fill="#bfbfbf" stroke="#000000" points="696,-448.5 696,-467.5 776,-467.5 776,-448.5 696,-448.5"/>
<text text-anchor="middle" x="736" y="-455.5" font-family="Helvetica,sans-Serif" font-size="10.00" fill="#000000">LinkedList.hpp</text>
</a>
</g>
</g>
<!-- Node2 -->
<g id="node2" class="node">
<title>Node2</title>
<g id="a_node2"><a xlink:href="../../d1/d65/Warnings_8hpp.html" target="_top" xlink:title=" ">
<polygon fill="#ffffff" stroke="#000000" points="368.5,-.5 368.5,-19.5 501.5,-19.5 501.5,-.5 368.5,-.5"/>
<text text-anchor="middle" x="435" y="-7.5" font-family="Helvetica,sans-Serif" font-size="10.00" fill="#000000">AH/Settings/Warnings.hpp</text>
</a>
</g>
</g>
<!-- Node1&#45;&gt;Node2 -->
<g id="edge1" class="edge">
<title>Node1&#45;&gt;Node2</title>
<path fill="none" stroke="#191970" d="M695.9068,-456.1701C542.32,-448.6361 0,-417.006 0,-346 0,-346 0,-346 0,-122 0,-77.2632 35.1744,-74.2936 76,-56 124.9338,-34.0732 268.1865,-20.9373 358.2457,-14.6166"/>
<polygon fill="#191970" stroke="#191970" points="358.677,-18.0953 368.4127,-13.9161 358.1957,-11.1118 358.677,-18.0953"/>
</g>
<!-- Node3 -->
<g id="node3" class="node">
<title>Node3</title>
<g id="a_node3"><a xlink:href="../../df/dee/Debug_8hpp.html" target="_top" xlink:title=" ">
<polygon fill="#ffffff" stroke="#000000" points="432.5,-392.5 432.5,-411.5 545.5,-411.5 545.5,-392.5 432.5,-392.5"/>
<text text-anchor="middle" x="489" y="-399.5" font-family="Helvetica,sans-Serif" font-size="10.00" fill="#000000">AH/Debug/Debug.hpp</text>
</a>
</g>
</g>
<!-- Node1&#45;&gt;Node3 -->
<g id="edge2" class="edge">
<title>Node1&#45;&gt;Node3</title>
<path fill="none" stroke="#191970" d="M695.7655,-448.878C653.6109,-439.3207 587.2298,-424.2707 541.0969,-413.8114"/>
<polygon fill="#191970" stroke="#191970" points="541.8128,-410.385 531.2864,-411.5872 540.265,-417.2117 541.8128,-410.385"/>
</g>
<!-- Node6 -->
<g id="node6" class="node">
<title>Node6</title>
<g id="a_node6"><a xlink:href="../../d7/d79/MinMaxFix_8hpp.html" target="_top" xlink:title=" ">
<polygon fill="#ffffff" stroke="#000000" points="669.5,-112.5 669.5,-131.5 794.5,-131.5 794.5,-112.5 669.5,-112.5"/>
<text text-anchor="middle" x="732" y="-119.5" font-family="Helvetica,sans-Serif" font-size="10.00" fill="#000000">AH/Math/MinMaxFix.hpp</text>
</a>
</g>
</g>
<!-- Node1&#45;&gt;Node6 -->
<g id="edge31" class="edge">
<title>Node1&#45;&gt;Node6</title>
<path fill="none" stroke="#191970" d="M736,-448.4116C736,-429.0538 736,-383.9167 736,-346 736,-346 736,-346 736,-234 736,-201.691 734.317,-164.1727 733.1344,-141.7971"/>
<polygon fill="#191970" stroke="#191970" points="736.6167,-141.3771 732.5731,-131.5843 729.6272,-141.7613 736.6167,-141.3771"/>
</g>
<!-- Node20 -->
<g id="node20" class="node">
<title>Node20</title>
<g id="a_node20"><a xlink:title=" ">
<polygon fill="#ffffff" stroke="#bfbfbf" points="764,-392.5 764,-411.5 812,-411.5 812,-392.5 764,-392.5"/>
<text text-anchor="middle" x="788" y="-399.5" font-family="Helvetica,sans-Serif" font-size="10.00" fill="#000000">stdlib.h</text>
</a>
</g>
</g>
<!-- Node1&#45;&gt;Node20 -->
<g id="edge32" class="edge">
<title>Node1&#45;&gt;Node20</title>
<path fill="none" stroke="#191970" d="M745.0577,-448.2455C752.5142,-440.2155 763.2634,-428.6394 772.1417,-419.0781"/>
<polygon fill="#191970" stroke="#191970" points="774.8063,-421.3522 779.0461,-411.6427 769.6768,-416.589 774.8063,-421.3522"/>
</g>
<!-- Node21 -->
<g id="node21" class="node">
<title>Node21</title>
<g id="a_node21"><a xlink:title=" ">
<polygon fill="#ffffff" stroke="#bfbfbf" points="830.5,-392.5 830.5,-411.5 877.5,-411.5 877.5,-392.5 830.5,-392.5"/>
<text text-anchor="middle" x="854" y="-399.5" font-family="Helvetica,sans-Serif" font-size="10.00" fill="#000000">iterator</text>
</a>
</g>
</g>
<!-- Node1&#45;&gt;Node21 -->
<g id="edge33" class="edge">
<title>Node1&#45;&gt;Node21</title>
<path fill="none" stroke="#191970" d="M756.2849,-448.3733C775.1421,-439.4241 803.446,-425.9917 824.7455,-415.8835"/>
<polygon fill="#191970" stroke="#191970" points="826.4461,-418.9506 833.9798,-411.5011 823.4449,-412.6266 826.4461,-418.9506"/>
</g>
<!-- Node3&#45;&gt;Node2 -->
<g id="edge3" class="edge">
<title>Node3&#45;&gt;Node2</title>
<path fill="none" stroke="#191970" d="M493.8693,-392.3939C503.0488,-373.3677 522,-329.3256 522,-290 522,-290 522,-290 522,-178 522,-123.5161 563.3055,-101.9312 534,-56 523.9797,-40.2949 507.0584,-29.8684 490.013,-22.9824"/>
<polygon fill="#191970" stroke="#191970" points="491.1671,-19.6777 480.5736,-19.51 488.7504,-26.2473 491.1671,-19.6777"/>
</g>
<!-- Node4 -->
<g id="node4" class="node">
<title>Node4</title>
<g id="a_node4"><a xlink:href="../../dd/d80/PrintStream_8hpp.html" target="_top" xlink:title=" ">
<polygon fill="#ffffff" stroke="#000000" points="549.5,-224.5 549.5,-243.5 708.5,-243.5 708.5,-224.5 549.5,-224.5"/>
<text text-anchor="middle" x="629" y="-231.5" font-family="Helvetica,sans-Serif" font-size="10.00" fill="#000000">AH/PrintStream/PrintStream.hpp</text>
</a>
</g>
</g>
<!-- Node3&#45;&gt;Node4 -->
<g id="edge4" class="edge">
<title>Node3&#45;&gt;Node4</title>
<path fill="none" stroke="#191970" d="M499.8931,-392.1864C509.7136,-383.1456 524.3568,-369.1755 536,-356 567.1198,-320.7847 599.5244,-276.1522 616.6571,-251.8161"/>
<polygon fill="#191970" stroke="#191970" points="619.5787,-253.7456 622.4412,-243.5448 613.8421,-249.7341 619.5787,-253.7456"/>
</g>
<!-- Node11 -->
<g id="node11" class="node">
<title>Node11</title>
<g id="a_node11"><a xlink:href="../../d2/dd5/SettingsWrapper_8hpp.html" target="_top" xlink:title=" ">
<polygon fill="#ffffff" stroke="#000000" points="234,-336.5 234,-355.5 398,-355.5 398,-336.5 234,-336.5"/>
<text text-anchor="middle" x="316" y="-343.5" font-family="Helvetica,sans-Serif" font-size="10.00" fill="#000000">AH/Settings/SettingsWrapper.hpp</text>
</a>
</g>
</g>
<!-- Node3&#45;&gt;Node11 -->
<g id="edge15" class="edge">
<title>Node3&#45;&gt;Node11</title>
<path fill="none" stroke="#191970" d="M454.0182,-392.3733C423.5617,-383.1016 379.8752,-369.0178 349.7806,-358.804"/>
<polygon fill="#191970" stroke="#191970" points="350.729,-355.4293 340.1344,-355.5011 348.4614,-362.0519 350.729,-355.4293"/>
</g>
<!-- Node19 -->
<g id="node19" class="node">
<title>Node19</title>
<g id="a_node19"><a xlink:href="../../d7/d52/DebugVal_8hpp.html" target="_top" xlink:title=" ">
<polygon fill="#ffffff" stroke="#000000" points="416,-336.5 416,-355.5 494,-355.5 494,-336.5 416,-336.5"/>
<text text-anchor="middle" x="455" y="-343.5" font-family="Helvetica,sans-Serif" font-size="10.00" fill="#000000">DebugVal.hpp</text>
</a>
</g>
</g>
<!-- Node3&#45;&gt;Node19 -->
<g id="edge30" class="edge">
<title>Node3&#45;&gt;Node19</title>
<path fill="none" stroke="#191970" d="M483.0777,-392.2455C478.3973,-384.5367 471.7327,-373.5598 466.0711,-364.2348"/>
<polygon fill="#191970" stroke="#191970" points="469.0361,-362.3741 460.8545,-355.6427 463.0525,-366.007 469.0361,-362.3741"/>
</g>
<!-- Node4&#45;&gt;Node2 -->
<g id="edge5" class="edge">
<title>Node4&#45;&gt;Node2</title>
<path fill="none" stroke="#191970" d="M665.4357,-224.4565C707.174,-211.3519 773.5811,-183.3466 803,-132 815.7328,-109.7767 793.4586,-63.7649 784,-56 763.3562,-39.0529 608.1659,-23.8009 511.8096,-15.8315"/>
<polygon fill="#191970" stroke="#191970" points="512.0615,-12.3405 501.8093,-15.013 511.4904,-19.3172 512.0615,-12.3405"/>
</g>
<!-- Node5 -->
<g id="node5" class="node">
<title>Node5</title>
<g id="a_node5"><a xlink:href="../../d6/ddf/Arduino-Wrapper_8h.html" target="_top" xlink:title=" ">
<polygon fill="#ffffff" stroke="#000000" points="571.5,-168.5 571.5,-187.5 686.5,-187.5 686.5,-168.5 571.5,-168.5"/>
<text text-anchor="middle" x="629" y="-175.5" font-family="Helvetica,sans-Serif" font-size="10.00" fill="#000000">AH/Arduino&#45;Wrapper.h</text>
</a>
</g>
</g>
<!-- Node4&#45;&gt;Node5 -->
<g id="edge6" class="edge">
<title>Node4&#45;&gt;Node5</title>
<path fill="none" stroke="#191970" d="M629,-224.2455C629,-216.9382 629,-206.6944 629,-197.7046"/>
<polygon fill="#191970" stroke="#191970" points="632.5001,-197.6426 629,-187.6427 625.5001,-197.6427 632.5001,-197.6426"/>
</g>
<!-- Node5&#45;&gt;Node6 -->
<g id="edge7" class="edge">
<title>Node5&#45;&gt;Node6</title>
<path fill="none" stroke="#191970" d="M646.9412,-168.2455C663.04,-159.4928 686.8879,-146.527 705.2391,-136.5496"/>
<polygon fill="#191970" stroke="#191970" points="707.1507,-139.4942 714.2644,-131.6427 703.8071,-133.3444 707.1507,-139.4942"/>
</g>
<!-- Node8 -->
<g id="node8" class="node">
<title>Node8</title>
<g id="a_node8"><a xlink:title=" ">
<polygon fill="#ffffff" stroke="#bfbfbf" points="740,-.5 740,-19.5 798,-19.5 798,-.5 740,-.5"/>
<text text-anchor="middle" x="769" y="-7.5" font-family="Helvetica,sans-Serif" font-size="10.00" fill="#000000">Arduino.h</text>
</a>
</g>
</g>
<!-- Node5&#45;&gt;Node8 -->
<g id="edge14" class="edge">
<title>Node5&#45;&gt;Node8</title>
<path fill="none" stroke="#191970" d="M686.8878,-170.3489C731.8034,-163.0854 788.7505,-150.5061 803,-132 827.0139,-100.8126 800.8172,-53.5856 782.8898,-28.0017"/>
<polygon fill="#191970" stroke="#191970" points="785.494,-25.6333 776.7674,-19.6251 779.8425,-29.7639 785.494,-25.6333"/>
</g>
<!-- Node10 -->
<g id="node10" class="node">
<title>Node10</title>
<g id="a_node10"><a xlink:title=" ">
<polygon fill="#ffffff" stroke="#bfbfbf" points="550.5,-112.5 550.5,-131.5 651.5,-131.5 651.5,-112.5 550.5,-112.5"/>
<text text-anchor="middle" x="601" y="-119.5" font-family="Helvetica,sans-Serif" font-size="10.00" fill="#000000">AH/STL/type_traits</text>
</a>
</g>
</g>
<!-- Node5&#45;&gt;Node10 -->
<g id="edge13" class="edge">
<title>Node5&#45;&gt;Node10</title>
<path fill="none" stroke="#191970" d="M624.1228,-168.2455C620.3487,-160.6973 615.0079,-150.0158 610.4099,-140.8197"/>
<polygon fill="#191970" stroke="#191970" points="613.424,-139.0217 605.8213,-131.6427 607.163,-142.1522 613.424,-139.0217"/>
</g>
<!-- Node6&#45;&gt;Node2 -->
<g id="edge8" class="edge">
<title>Node6&#45;&gt;Node2</title>
<path fill="none" stroke="#191970" d="M704.6351,-112.3454C679.757,-103.4117 642.1355,-89.5094 610,-76 590.5699,-67.8318 586.5316,-63.9223 567,-56 536.49,-43.6246 501.2455,-31.4469 474.8534,-22.7329"/>
<polygon fill="#191970" stroke="#191970" points="475.7928,-19.3577 465.2001,-19.5696 473.613,-26.0096 475.7928,-19.3577"/>
</g>
<!-- Node7 -->
<g id="node7" class="node">
<title>Node7</title>
<g id="a_node7"><a xlink:href="../../d6/d3b/FixArduinoMacros_8hpp.html" target="_top" xlink:title=" ">
<polygon fill="#ffffff" stroke="#000000" points="619,-56.5 619,-75.5 775,-75.5 775,-56.5 619,-56.5"/>
<text text-anchor="middle" x="697" y="-63.5" font-family="Helvetica,sans-Serif" font-size="10.00" fill="#000000">AH/Math/FixArduinoMacros.hpp</text>
</a>
</g>
</g>
<!-- Node6&#45;&gt;Node7 -->
<g id="edge9" class="edge">
<title>Node6&#45;&gt;Node7</title>
<path fill="none" stroke="#191970" d="M725.9035,-112.2455C721.0855,-104.5367 714.2249,-93.5598 708.3968,-84.2348"/>
<polygon fill="#191970" stroke="#191970" points="711.2947,-82.2677 703.0267,-75.6427 705.3587,-85.9777 711.2947,-82.2677"/>
</g>
<!-- Node9 -->
<g id="node9" class="node">
<title>Node9</title>
<g id="a_node9"><a xlink:href="../../dc/dc7/NamespaceSettings_8hpp.html" target="_top" xlink:title=" ">
<polygon fill="#ffffff" stroke="#000000" points="345,-56.5 345,-75.5 525,-75.5 525,-56.5 345,-56.5"/>
<text text-anchor="middle" x="435" y="-63.5" font-family="Helvetica,sans-Serif" font-size="10.00" fill="#000000">AH/Settings/NamespaceSettings.hpp</text>
</a>
</g>
</g>
<!-- Node6&#45;&gt;Node9 -->
<g id="edge12" class="edge">
<title>Node6&#45;&gt;Node9</title>
<path fill="none" stroke="#191970" d="M681.2813,-112.4369C629.8114,-102.7321 550.1298,-87.708 495.4216,-77.3926"/>
<polygon fill="#191970" stroke="#191970" points="495.9848,-73.9372 485.5095,-75.5237 494.6878,-80.816 495.9848,-73.9372"/>
</g>
<!-- Node7&#45;&gt;Node2 -->
<g id="edge10" class="edge">
<title>Node7&#45;&gt;Node2</title>
<path fill="none" stroke="#191970" d="M652.2583,-56.4369C607.2306,-46.8127 537.7272,-31.957 489.5073,-21.6504"/>
<polygon fill="#191970" stroke="#191970" points="490.0679,-18.1912 479.5572,-19.5237 488.6047,-25.0366 490.0679,-18.1912"/>
</g>
<!-- Node7&#45;&gt;Node8 -->
<g id="edge11" class="edge">
<title>Node7&#45;&gt;Node8</title>
<path fill="none" stroke="#191970" d="M709.5414,-56.2455C720.2787,-47.8943 735.9473,-35.7076 748.5047,-25.9408"/>
<polygon fill="#191970" stroke="#191970" points="750.8575,-28.5449 756.6023,-19.6427 746.5599,-23.0194 750.8575,-28.5449"/>
</g>
<!-- Node11&#45;&gt;Node2 -->
<g id="edge16" class="edge">
<title>Node11&#45;&gt;Node2</title>
<path fill="none" stroke="#191970" d="M265.6563,-336.4462C185.5443,-319.7879 38,-282.5213 38,-234 38,-234 38,-234 38,-122 38,-56.2206 242.435,-27.1734 357.8999,-16.0135"/>
<polygon fill="#191970" stroke="#191970" points="358.476,-19.4748 368.1033,-15.0514 357.8189,-12.5057 358.476,-19.4748"/>
</g>
<!-- Node11&#45;&gt;Node3 -->
<g id="edge29" class="edge">
<title>Node11&#45;&gt;Node3</title>
<path fill="none" stroke="#191970" d="M350.569,-355.5011C380.9052,-364.729 424.5927,-378.8084 454.8099,-389.057"/>
<polygon fill="#191970" stroke="#191970" points="453.9077,-392.4475 464.5023,-392.3733 456.1738,-385.8244 453.9077,-392.4475"/>
</g>
<!-- Node11&#45;&gt;Node9 -->
<g id="edge17" class="edge">
<title>Node11&#45;&gt;Node9</title>
<path fill="none" stroke="#191970" d="M384.8722,-336.4113C410.46,-329.827 438.0783,-318.7234 458,-300 480.9734,-278.4084 484,-265.5274 484,-234 484,-234 484,-234 484,-178 484,-142.3181 462.867,-105.1985 448.3581,-83.9186"/>
<polygon fill="#191970" stroke="#191970" points="451.0789,-81.7046 442.442,-75.5681 445.3671,-85.7512 451.0789,-81.7046"/>
</g>
<!-- Node12 -->
<g id="node12" class="node">
<title>Node12</title>
<g id="a_node12"><a xlink:href="../../db/d02/Settings_8hpp.html" target="_top" xlink:title="All user settings and debugging options can be changed here.">
<polygon fill="#ffffff" stroke="#000000" points="191.5,-280.5 191.5,-299.5 262.5,-299.5 262.5,-280.5 191.5,-280.5"/>
<text text-anchor="middle" x="227" y="-287.5" font-family="Helvetica,sans-Serif" font-size="10.00" fill="#000000">Settings.hpp</text>
</a>
</g>
</g>
<!-- Node11&#45;&gt;Node12 -->
<g id="edge18" class="edge">
<title>Node11&#45;&gt;Node12</title>
<path fill="none" stroke="#191970" d="M300.4974,-336.2455C286.842,-327.6534 266.7343,-315.0014 251.0011,-305.1018"/>
<polygon fill="#191970" stroke="#191970" points="252.6529,-302.006 242.325,-299.6427 248.9249,-307.9307 252.6529,-302.006"/>
</g>
<!-- Node18 -->
<g id="node18" class="node">
<title>Node18</title>
<g id="a_node18"><a xlink:href="../../d9/d98/TeensyUSBTypes_8hpp.html" target="_top" xlink:title=" ">
<polygon fill="#ffffff" stroke="#000000" points="281,-280.5 281,-299.5 449,-299.5 449,-280.5 281,-280.5"/>
<text text-anchor="middle" x="365" y="-287.5" font-family="Helvetica,sans-Serif" font-size="10.00" fill="#000000">AH/Teensy/TeensyUSBTypes.hpp</text>
</a>
</g>
</g>
<!-- Node11&#45;&gt;Node18 -->
<g id="edge28" class="edge">
<title>Node11&#45;&gt;Node18</title>
<path fill="none" stroke="#191970" d="M324.5351,-336.2455C331.4912,-328.2958 341.4883,-316.8706 349.8051,-307.3656"/>
<polygon fill="#191970" stroke="#191970" points="352.6116,-309.4732 356.5627,-299.6427 347.3436,-304.8637 352.6116,-309.4732"/>
</g>
<!-- Node13 -->
<g id="node13" class="node">
<title>Node13</title>
<g id="a_node13"><a xlink:href="../../dc/d50/Frequency_8hpp.html" target="_top" xlink:title=" ">
<polygon fill="#ffffff" stroke="#000000" points="179,-112.5 179,-131.5 307,-131.5 307,-112.5 179,-112.5"/>
<text text-anchor="middle" x="243" y="-119.5" font-family="Helvetica,sans-Serif" font-size="10.00" fill="#000000">AH/Types/Frequency.hpp</text>
</a>
</g>
</g>
<!-- Node12&#45;&gt;Node13 -->
<g id="edge19" class="edge">
<title>Node12&#45;&gt;Node13</title>
<path fill="none" stroke="#191970" d="M236.6492,-280.4346C244.65,-271.7723 255.4262,-258.2221 260,-244 271.2924,-208.8867 259.6519,-165.7093 250.8542,-141.2726"/>
<polygon fill="#191970" stroke="#191970" points="254.053,-139.8379 247.2187,-131.742 247.5127,-142.3328 254.053,-139.8379"/>
</g>
<!-- Node14 -->
<g id="node14" class="node">
<title>Node14</title>
<g id="a_node14"><a xlink:href="../../d7/d7c/ADCConfig_8hpp.html" target="_top" xlink:title="This file contains the platform&#45;specific ADC resolutions. By default, the library automatically selec...">
<polygon fill="#ffffff" stroke="#000000" points="308,-224.5 308,-243.5 456,-243.5 456,-224.5 308,-224.5"/>
<text text-anchor="middle" x="382" y="-231.5" font-family="Helvetica,sans-Serif" font-size="10.00" fill="#000000">AH/Hardware/ADCConfig.hpp</text>
</a>
</g>
</g>
<!-- Node12&#45;&gt;Node14 -->
<g id="edge22" class="edge">
<title>Node12&#45;&gt;Node14</title>
<path fill="none" stroke="#191970" d="M253.6454,-280.3733C279.1964,-271.1419 317.9512,-257.1402 346.1909,-246.9375"/>
<polygon fill="#191970" stroke="#191970" points="347.4865,-250.1909 355.7022,-243.5011 345.1079,-243.6074 347.4865,-250.1909"/>
</g>
<!-- Node15 -->
<g id="node15" class="node">
<title>Node15</title>
<g id="a_node15"><a xlink:title=" ">
<polygon fill="#ffffff" stroke="#bfbfbf" points="66,-224.5 66,-243.5 114,-243.5 114,-224.5 66,-224.5"/>
<text text-anchor="middle" x="90" y="-231.5" font-family="Helvetica,sans-Serif" font-size="10.00" fill="#000000">limits.h</text>
</a>
</g>
</g>
<!-- Node12&#45;&gt;Node15 -->
<g id="edge25" class="edge">
<title>Node12&#45;&gt;Node15</title>
<path fill="none" stroke="#191970" d="M203.4489,-280.3733C181.1609,-271.2629 147.5063,-257.5062 122.6363,-247.3404"/>
<polygon fill="#191970" stroke="#191970" points="123.8247,-244.0451 113.2438,-243.5011 121.1761,-250.5247 123.8247,-244.0451"/>
</g>
<!-- Node16 -->
<g id="node16" class="node">
<title>Node16</title>
<g id="a_node16"><a xlink:title=" ">
<polygon fill="#ffffff" stroke="#bfbfbf" points="132,-224.5 132,-243.5 184,-243.5 184,-224.5 132,-224.5"/>
<text text-anchor="middle" x="158" y="-231.5" font-family="Helvetica,sans-Serif" font-size="10.00" fill="#000000">stddef.h</text>
</a>
</g>
</g>
<!-- Node12&#45;&gt;Node16 -->
<g id="edge26" class="edge">
<title>Node12&#45;&gt;Node16</title>
<path fill="none" stroke="#191970" d="M214.9811,-280.2455C204.7902,-271.9746 189.9638,-259.9416 177.9893,-250.2232"/>
<polygon fill="#191970" stroke="#191970" points="179.8514,-247.2268 169.8812,-243.6427 175.4402,-252.662 179.8514,-247.2268"/>
</g>
<!-- Node17 -->
<g id="node17" class="node">
<title>Node17</title>
<g id="a_node17"><a xlink:title=" ">
<polygon fill="#ffffff" stroke="#bfbfbf" points="202.5,-224.5 202.5,-243.5 251.5,-243.5 251.5,-224.5 202.5,-224.5"/>
<text text-anchor="middle" x="227" y="-231.5" font-family="Helvetica,sans-Serif" font-size="10.00" fill="#000000">stdint.h</text>
</a>
</g>
</g>
<!-- Node12&#45;&gt;Node17 -->
<g id="edge27" class="edge">
<title>Node12&#45;&gt;Node17</title>
<path fill="none" stroke="#191970" d="M227,-280.2455C227,-272.9382 227,-262.6944 227,-253.7046"/>
<polygon fill="#191970" stroke="#191970" points="230.5001,-253.6426 227,-243.6427 223.5001,-253.6427 230.5001,-253.6426"/>
</g>
<!-- Node13&#45;&gt;Node2 -->
<g id="edge20" class="edge">
<title>Node13&#45;&gt;Node2</title>
<path fill="none" stroke="#191970" d="M249.5766,-112.0676C259.5311,-97.7567 279.7482,-71.3722 303,-56 326.5014,-40.4628 355.8327,-29.5576 380.8736,-22.2785"/>
<polygon fill="#191970" stroke="#191970" points="381.902,-25.6254 390.5952,-19.5691 380.0226,-18.8823 381.902,-25.6254"/>
</g>
<!-- Node13&#45;&gt;Node9 -->
<g id="edge21" class="edge">
<title>Node13&#45;&gt;Node9</title>
<path fill="none" stroke="#191970" d="M276.006,-112.3733C308.2091,-102.9807 357.3442,-88.6496 392.4639,-78.4064"/>
<polygon fill="#191970" stroke="#191970" points="393.8047,-81.6612 402.4247,-75.5011 391.8447,-74.9412 393.8047,-81.6612"/>
</g>
<!-- Node14&#45;&gt;Node2 -->
<g id="edge23" class="edge">
<title>Node14&#45;&gt;Node2</title>
<path fill="none" stroke="#191970" d="M374.5859,-224.2972C353.9976,-196.0853 299.9474,-112.5061 336,-56 346.0203,-40.2949 362.9416,-29.8684 379.987,-22.9824"/>
<polygon fill="#191970" stroke="#191970" points="381.2496,-26.2473 389.4264,-19.51 378.8329,-19.6777 381.2496,-26.2473"/>
</g>
<!-- Node14&#45;&gt;Node5 -->
<g id="edge24" class="edge">
<title>Node14&#45;&gt;Node5</title>
<path fill="none" stroke="#191970" d="M424.1802,-224.4369C466.4523,-214.8529 531.6062,-200.0812 577.0417,-189.78"/>
<polygon fill="#191970" stroke="#191970" points="578.0152,-193.1482 586.9938,-187.5237 576.4674,-186.3215 578.0152,-193.1482"/>
</g>
</g>
</svg>
