<?xml version="1.0" encoding="UTF-8" standalone="no"?>
<!DOCTYPE svg PUBLIC "-//W3C//DTD SVG 1.1//EN"
 "http://www.w3.org/Graphics/SVG/1.1/DTD/svg11.dtd">
<!-- Generated by graphviz version 2.43.0 (0)
 -->
<!-- Title: BitArray.hpp Pages: 1 -->
<svg width="860pt" height="532pt"
 viewBox="0.00 0.00 860.00 532.00" xmlns="http://www.w3.org/2000/svg" xmlns:xlink="http://www.w3.org/1999/xlink">
<g id="graph0" class="graph" transform="scale(1 1) rotate(0) translate(4 528)">
<title>BitArray.hpp</title>
<polygon fill="white" stroke="transparent" points="-4,4 -4,-528 856,-528 856,4 -4,4"/>
<!-- Node1 -->
<g id="node1" class="node">
<title>Node1</title>
<g id="a_node1"><a xlink:title=" ">
<polygon fill="#bfbfbf" stroke="black" points="273,-504.5 273,-523.5 349,-523.5 349,-504.5 273,-504.5"/>
<text text-anchor="middle" x="311" y="-511.5" font-family="Helvetica,sans-Serif" font-size="10.00">BitArray.hpp</text>
</a>
</g>
</g>
<!-- Node2 -->
<g id="node2" class="node">
<title>Node2</title>
<g id="a_node2"><a xlink:href="../../d1/d65/Warnings_8hpp.html" target="_top" xlink:title=" ">
<polygon fill="white" stroke="black" points="550.5,-0.5 550.5,-19.5 693.5,-19.5 693.5,-0.5 550.5,-0.5"/>
<text text-anchor="middle" x="622" y="-7.5" font-family="Helvetica,sans-Serif" font-size="10.00">AH/Settings/Warnings.hpp</text>
</a>
</g>
</g>
<!-- Node1&#45;&gt;Node2 -->
<g id="edge1" class="edge">
<title>Node1&#45;&gt;Node2</title>
<path fill="none" stroke="midnightblue" d="M349.04,-513.37C472.19,-513.55 852,-505.79 852,-403 852,-403 852,-403 852,-121 852,-53.22 769.7,-27.17 703.56,-17.18"/>
<polygon fill="midnightblue" stroke="midnightblue" points="703.9,-13.69 693.51,-15.76 702.93,-20.62 703.9,-13.69"/>
</g>
<!-- Node3 -->
<g id="node3" class="node">
<title>Node3</title>
<g id="a_node3"><a xlink:href="../../d1/d93/Error_8hpp.html" target="_top" xlink:title=" ">
<polygon fill="white" stroke="black" points="493,-448.5 493,-467.5 597,-467.5 597,-448.5 493,-448.5"/>
<text text-anchor="middle" x="545" y="-455.5" font-family="Helvetica,sans-Serif" font-size="10.00">AH/Error/Error.hpp</text>
</a>
</g>
</g>
<!-- Node1&#45;&gt;Node3 -->
<g id="edge2" class="edge">
<title>Node1&#45;&gt;Node3</title>
<path fill="none" stroke="midnightblue" d="M348.08,-504.44C388.73,-495.06 454.03,-479.99 498.18,-469.8"/>
<polygon fill="midnightblue" stroke="midnightblue" points="499.14,-473.18 508.1,-467.52 497.56,-466.35 499.14,-473.18"/>
</g>
<!-- Node6 -->
<g id="node6" class="node">
<title>Node6</title>
<g id="a_node6"><a xlink:href="../../dc/dc7/NamespaceSettings_8hpp.html" target="_top" xlink:title=" ">
<polygon fill="white" stroke="black" points="65.5,-56.5 65.5,-75.5 260.5,-75.5 260.5,-56.5 65.5,-56.5"/>
<text text-anchor="middle" x="163" y="-63.5" font-family="Helvetica,sans-Serif" font-size="10.00">AH/Settings/NamespaceSettings.hpp</text>
</a>
</g>
</g>
<!-- Node1&#45;&gt;Node6 -->
<g id="edge33" class="edge">
<title>Node1&#45;&gt;Node6</title>
<path fill="none" stroke="midnightblue" d="M272.66,-511.32C225.15,-507.98 142.66,-497.97 79,-468 37.86,-448.63 0,-448.47 0,-403 0,-403 0,-403 0,-177 0,-121.75 65.15,-92.39 113.08,-78.27"/>
<polygon fill="midnightblue" stroke="midnightblue" points="114.03,-81.64 122.71,-75.57 112.13,-74.9 114.03,-81.64"/>
</g>
<!-- Node18 -->
<g id="node18" class="node">
<title>Node18</title>
<g id="a_node18"><a xlink:title=" ">
<polygon fill="white" stroke="#bfbfbf" points="104.5,-224.5 104.5,-243.5 157.5,-243.5 157.5,-224.5 104.5,-224.5"/>
<text text-anchor="middle" x="131" y="-231.5" font-family="Helvetica,sans-Serif" font-size="10.00">stdint.h</text>
</a>
</g>
</g>
<!-- Node1&#45;&gt;Node18 -->
<g id="edge34" class="edge">
<title>Node1&#45;&gt;Node18</title>
<path fill="none" stroke="midnightblue" d="M272.75,-505.9C197.62,-490.86 38,-453.01 38,-403 38,-403 38,-403 38,-345 38,-302.31 79.35,-267.64 106.91,-249.28"/>
<polygon fill="midnightblue" stroke="midnightblue" points="109.11,-252.03 115.64,-243.69 105.33,-246.13 109.11,-252.03"/>
</g>
<!-- Node3&#45;&gt;Node2 -->
<g id="edge3" class="edge">
<title>Node3&#45;&gt;Node2</title>
<path fill="none" stroke="midnightblue" d="M589.12,-448.46C665.43,-432.41 814,-395 814,-347 814,-347 814,-347 814,-121 814,-62.59 746.28,-34.76 691.28,-21.79"/>
<polygon fill="midnightblue" stroke="midnightblue" points="691.7,-18.3 681.17,-19.54 690.17,-25.13 691.7,-18.3"/>
</g>
<!-- Node4 -->
<g id="node4" class="node">
<title>Node4</title>
<g id="a_node4"><a xlink:href="../../df/dee/Debug_8hpp.html" target="_top" xlink:title=" ">
<polygon fill="white" stroke="black" points="484.5,-392.5 484.5,-411.5 605.5,-411.5 605.5,-392.5 484.5,-392.5"/>
<text text-anchor="middle" x="545" y="-399.5" font-family="Helvetica,sans-Serif" font-size="10.00">AH/Debug/Debug.hpp</text>
</a>
</g>
</g>
<!-- Node3&#45;&gt;Node4 -->
<g id="edge4" class="edge">
<title>Node3&#45;&gt;Node4</title>
<path fill="none" stroke="midnightblue" d="M545,-448.08C545,-441.01 545,-430.86 545,-421.99"/>
<polygon fill="midnightblue" stroke="midnightblue" points="548.5,-421.75 545,-411.75 541.5,-421.75 548.5,-421.75"/>
</g>
<!-- Node4&#45;&gt;Node2 -->
<g id="edge5" class="edge">
<title>Node4&#45;&gt;Node2</title>
<path fill="none" stroke="midnightblue" d="M605.69,-397.66C674.13,-390.24 776,-366.51 776,-291 776,-291 776,-291 776,-121 776,-67.13 712.82,-37.14 667.4,-22.54"/>
<polygon fill="midnightblue" stroke="midnightblue" points="668.3,-19.16 657.72,-19.57 666.25,-25.85 668.3,-19.16"/>
</g>
<!-- Node5 -->
<g id="node5" class="node">
<title>Node5</title>
<g id="a_node5"><a xlink:href="../../dd/d80/PrintStream_8hpp.html" target="_top" xlink:title=" ">
<polygon fill="white" stroke="black" points="574.5,-224.5 574.5,-243.5 747.5,-243.5 747.5,-224.5 574.5,-224.5"/>
<text text-anchor="middle" x="661" y="-231.5" font-family="Helvetica,sans-Serif" font-size="10.00">AH/PrintStream/PrintStream.hpp</text>
</a>
</g>
</g>
<!-- Node4&#45;&gt;Node5 -->
<g id="edge6" class="edge">
<title>Node4&#45;&gt;Node5</title>
<path fill="none" stroke="midnightblue" d="M551.24,-392.08C569.73,-365.61 624.52,-287.21 648.97,-252.21"/>
<polygon fill="midnightblue" stroke="midnightblue" points="652.15,-253.77 655.01,-243.57 646.42,-249.76 652.15,-253.77"/>
</g>
<!-- Node12 -->
<g id="node12" class="node">
<title>Node12</title>
<g id="a_node12"><a xlink:href="../../d2/dd5/SettingsWrapper_8hpp.html" target="_top" xlink:title=" ">
<polygon fill="white" stroke="black" points="379,-336.5 379,-355.5 557,-355.5 557,-336.5 379,-336.5"/>
<text text-anchor="middle" x="468" y="-343.5" font-family="Helvetica,sans-Serif" font-size="10.00">AH/Settings/SettingsWrapper.hpp</text>
</a>
</g>
</g>
<!-- Node4&#45;&gt;Node12 -->
<g id="edge18" class="edge">
<title>Node4&#45;&gt;Node12</title>
<path fill="none" stroke="midnightblue" d="M527.51,-392.32C514.15,-384.18 496.2,-371.84 483.39,-362.09"/>
<polygon fill="midnightblue" stroke="midnightblue" points="485.47,-359.27 475.45,-355.83 481.14,-364.77 485.47,-359.27"/>
</g>
<!-- Node5&#45;&gt;Node2 -->
<g id="edge8" class="edge">
<title>Node5&#45;&gt;Node2</title>
<path fill="none" stroke="midnightblue" d="M660.28,-224.44C658.03,-198.7 650.35,-119.89 636,-56 633.98,-47.01 631.03,-37.22 628.35,-29.07"/>
<polygon fill="midnightblue" stroke="midnightblue" points="631.64,-27.85 625.1,-19.52 625.01,-30.11 631.64,-27.85"/>
</g>
<!-- Node5&#45;&gt;Node6 -->
<g id="edge7" class="edge">
<title>Node5&#45;&gt;Node6</title>
<path fill="none" stroke="midnightblue" d="M645.7,-224.5C619.05,-210.13 561.98,-181.32 510,-168 428.48,-147.11 189.61,-194.27 133,-132 120.14,-117.85 133.56,-97.24 146.33,-83.04"/>
<polygon fill="midnightblue" stroke="midnightblue" points="149.16,-85.15 153.57,-75.52 144.11,-80.3 149.16,-85.15"/>
</g>
<!-- Node7 -->
<g id="node7" class="node">
<title>Node7</title>
<g id="a_node7"><a xlink:href="../../d6/ddf/Arduino-Wrapper_8h.html" target="_top" xlink:title=" ">
<polygon fill="white" stroke="black" points="377,-168.5 377,-187.5 501,-187.5 501,-168.5 377,-168.5"/>
<text text-anchor="middle" x="439" y="-175.5" font-family="Helvetica,sans-Serif" font-size="10.00">AH/Arduino&#45;Wrapper.h</text>
</a>
</g>
</g>
<!-- Node5&#45;&gt;Node7 -->
<g id="edge9" class="edge">
<title>Node5&#45;&gt;Node7</title>
<path fill="none" stroke="midnightblue" d="M625.82,-224.44C587.42,-215.1 525.82,-200.12 483.94,-189.93"/>
<polygon fill="midnightblue" stroke="midnightblue" points="484.56,-186.48 474.01,-187.52 482.9,-193.28 484.56,-186.48"/>
</g>
<!-- Node8 -->
<g id="node8" class="node">
<title>Node8</title>
<g id="a_node8"><a xlink:href="../../d7/d79/MinMaxFix_8hpp.html" target="_top" xlink:title=" ">
<polygon fill="white" stroke="black" points="294,-112.5 294,-131.5 430,-131.5 430,-112.5 294,-112.5"/>
<text text-anchor="middle" x="362" y="-119.5" font-family="Helvetica,sans-Serif" font-size="10.00">AH/Math/MinMaxFix.hpp</text>
</a>
</g>
</g>
<!-- Node7&#45;&gt;Node8 -->
<g id="edge10" class="edge">
<title>Node7&#45;&gt;Node8</title>
<path fill="none" stroke="midnightblue" d="M426.63,-168.32C414.84,-160.06 396.87,-147.45 382.86,-137.63"/>
<polygon fill="midnightblue" stroke="midnightblue" points="384.54,-134.53 374.34,-131.65 380.52,-140.26 384.54,-134.53"/>
</g>
<!-- Node10 -->
<g id="node10" class="node">
<title>Node10</title>
<g id="a_node10"><a xlink:title=" ">
<polygon fill="white" stroke="#bfbfbf" points="169.5,-0.5 169.5,-19.5 232.5,-19.5 232.5,-0.5 169.5,-0.5"/>
<text text-anchor="middle" x="201" y="-7.5" font-family="Helvetica,sans-Serif" font-size="10.00">Arduino.h</text>
</a>
</g>
</g>
<!-- Node7&#45;&gt;Node10 -->
<g id="edge17" class="edge">
<title>Node7&#45;&gt;Node10</title>
<path fill="none" stroke="midnightblue" d="M376.86,-174.39C292.18,-169.9 145.82,-158.47 100,-132 66.4,-112.58 34.01,-87.27 57,-56 80.27,-24.35 125.7,-14.34 159.34,-11.48"/>
<polygon fill="midnightblue" stroke="midnightblue" points="159.62,-14.97 169.36,-10.8 159.15,-7.98 159.62,-14.97"/>
</g>
<!-- Node11 -->
<g id="node11" class="node">
<title>Node11</title>
<g id="a_node11"><a xlink:title=" ">
<polygon fill="white" stroke="#bfbfbf" points="448.5,-112.5 448.5,-131.5 555.5,-131.5 555.5,-112.5 448.5,-112.5"/>
<text text-anchor="middle" x="502" y="-119.5" font-family="Helvetica,sans-Serif" font-size="10.00">AH/STL/type_traits</text>
</a>
</g>
</g>
<!-- Node7&#45;&gt;Node11 -->
<g id="edge16" class="edge">
<title>Node7&#45;&gt;Node11</title>
<path fill="none" stroke="midnightblue" d="M449.12,-168.32C458.53,-160.26 472.74,-148.08 484.07,-138.37"/>
<polygon fill="midnightblue" stroke="midnightblue" points="486.38,-141 491.69,-131.83 481.82,-135.68 486.38,-141"/>
</g>
<!-- Node8&#45;&gt;Node2 -->
<g id="edge11" class="edge">
<title>Node8&#45;&gt;Node2</title>
<path fill="none" stroke="midnightblue" d="M396.18,-112.48C425.82,-104.58 469.56,-91.7 506,-76 540.29,-61.23 577.55,-39.18 600.34,-24.94"/>
<polygon fill="midnightblue" stroke="midnightblue" points="602.3,-27.84 608.89,-19.54 598.57,-21.92 602.3,-27.84"/>
</g>
<!-- Node8&#45;&gt;Node6 -->
<g id="edge15" class="edge">
<title>Node8&#45;&gt;Node6</title>
<path fill="none" stroke="midnightblue" d="M330.47,-112.44C296.41,-103.2 241.99,-88.44 204.48,-78.26"/>
<polygon fill="midnightblue" stroke="midnightblue" points="204.95,-74.76 194.38,-75.52 203.12,-81.51 204.95,-74.76"/>
</g>
<!-- Node9 -->
<g id="node9" class="node">
<title>Node9</title>
<g id="a_node9"><a xlink:href="../../d6/d3b/FixArduinoMacros_8hpp.html" target="_top" xlink:title=" ">
<polygon fill="white" stroke="black" points="279,-56.5 279,-75.5 449,-75.5 449,-56.5 279,-56.5"/>
<text text-anchor="middle" x="364" y="-63.5" font-family="Helvetica,sans-Serif" font-size="10.00">AH/Math/FixArduinoMacros.hpp</text>
</a>
</g>
</g>
<!-- Node8&#45;&gt;Node9 -->
<g id="edge12" class="edge">
<title>Node8&#45;&gt;Node9</title>
<path fill="none" stroke="midnightblue" d="M362.33,-112.08C362.59,-105.01 362.97,-94.86 363.3,-85.99"/>
<polygon fill="midnightblue" stroke="midnightblue" points="366.8,-85.87 363.68,-75.75 359.81,-85.61 366.8,-85.87"/>
</g>
<!-- Node9&#45;&gt;Node2 -->
<g id="edge13" class="edge">
<title>Node9&#45;&gt;Node2</title>
<path fill="none" stroke="midnightblue" d="M404.88,-56.44C449.98,-47 522.61,-31.8 571.3,-21.61"/>
<polygon fill="midnightblue" stroke="midnightblue" points="572.24,-24.99 581.31,-19.52 570.81,-18.14 572.24,-24.99"/>
</g>
<!-- Node9&#45;&gt;Node10 -->
<g id="edge14" class="edge">
<title>Node9&#45;&gt;Node10</title>
<path fill="none" stroke="midnightblue" d="M338.17,-56.44C310.75,-47.36 267.22,-32.94 236.57,-22.78"/>
<polygon fill="midnightblue" stroke="midnightblue" points="237.3,-19.34 226.71,-19.52 235.1,-25.98 237.3,-19.34"/>
</g>
<!-- Node12&#45;&gt;Node2 -->
<g id="edge19" class="edge">
<title>Node12&#45;&gt;Node2</title>
<path fill="none" stroke="midnightblue" d="M483.83,-336.41C497.03,-328.52 515.49,-315.68 527,-300 558.32,-257.33 593.39,-126.88 608,-76 612.43,-60.55 616.19,-42.68 618.69,-29.59"/>
<polygon fill="midnightblue" stroke="midnightblue" points="622.18,-29.97 620.55,-19.5 615.29,-28.7 622.18,-29.97"/>
</g>
<!-- Node12&#45;&gt;Node4 -->
<g id="edge32" class="edge">
<title>Node12&#45;&gt;Node4</title>
<path fill="none" stroke="midnightblue" d="M485.45,-355.65C498.89,-363.83 516.97,-376.28 529.81,-386.06"/>
<polygon fill="midnightblue" stroke="midnightblue" points="527.73,-388.87 537.74,-392.32 532.06,-383.38 527.73,-388.87"/>
</g>
<!-- Node12&#45;&gt;Node6 -->
<g id="edge20" class="edge">
<title>Node12&#45;&gt;Node6</title>
<path fill="none" stroke="midnightblue" d="M378.56,-337.86C262.86,-326.11 76,-297.47 76,-235 76,-235 76,-235 76,-177 76,-135.4 114.75,-100.33 140.53,-81.6"/>
<polygon fill="midnightblue" stroke="midnightblue" points="142.82,-84.27 149.02,-75.68 138.82,-78.53 142.82,-84.27"/>
</g>
<!-- Node13 -->
<g id="node13" class="node">
<title>Node13</title>
<g id="a_node13"><a xlink:href="../../db/d02/Settings_8hpp.html" target="_top" xlink:title="All user settings and debugging options can be changed here.">
<polygon fill="white" stroke="black" points="226.5,-280.5 226.5,-299.5 303.5,-299.5 303.5,-280.5 226.5,-280.5"/>
<text text-anchor="middle" x="265" y="-287.5" font-family="Helvetica,sans-Serif" font-size="10.00">Settings.hpp</text>
</a>
</g>
</g>
<!-- Node12&#45;&gt;Node13 -->
<g id="edge21" class="edge">
<title>Node12&#45;&gt;Node13</title>
<path fill="none" stroke="midnightblue" d="M435.83,-336.44C400.94,-327.16 345.11,-312.31 306.83,-302.13"/>
<polygon fill="midnightblue" stroke="midnightblue" points="307.58,-298.7 297.02,-299.52 305.78,-305.47 307.58,-298.7"/>
</g>
<!-- Node19 -->
<g id="node19" class="node">
<title>Node19</title>
<g id="a_node19"><a xlink:href="../../d9/d98/TeensyUSBTypes_8hpp.html" target="_top" xlink:title=" ">
<polygon fill="white" stroke="black" points="344.5,-280.5 344.5,-299.5 517.5,-299.5 517.5,-280.5 344.5,-280.5"/>
<text text-anchor="middle" x="431" y="-287.5" font-family="Helvetica,sans-Serif" font-size="10.00">AH/Teensy/TeensyUSBTypes.hpp</text>
</a>
</g>
</g>
<!-- Node12&#45;&gt;Node19 -->
<g id="edge31" class="edge">
<title>Node12&#45;&gt;Node19</title>
<path fill="none" stroke="midnightblue" d="M461.89,-336.08C456.72,-328.53 449.15,-317.49 442.81,-308.23"/>
<polygon fill="midnightblue" stroke="midnightblue" points="445.54,-306.02 437,-299.75 439.76,-309.98 445.54,-306.02"/>
</g>
<!-- Node14 -->
<g id="node14" class="node">
<title>Node14</title>
<g id="a_node14"><a xlink:href="../../dc/d50/Frequency_8hpp.html" target="_top" xlink:title=" ">
<polygon fill="white" stroke="black" points="142,-112.5 142,-131.5 276,-131.5 276,-112.5 142,-112.5"/>
<text text-anchor="middle" x="209" y="-119.5" font-family="Helvetica,sans-Serif" font-size="10.00">AH/Types/Frequency.hpp</text>
</a>
</g>
</g>
<!-- Node13&#45;&gt;Node14 -->
<g id="edge22" class="edge">
<title>Node13&#45;&gt;Node14</title>
<path fill="none" stroke="midnightblue" d="M246.02,-280.4C232.11,-272.95 214.29,-260.74 206,-244 189.67,-211.01 197.09,-166.51 203.41,-141.7"/>
<polygon fill="midnightblue" stroke="midnightblue" points="206.85,-142.37 206.14,-131.8 200.11,-140.51 206.85,-142.37"/>
</g>
<!-- Node15 -->
<g id="node15" class="node">
<title>Node15</title>
<g id="a_node15"><a xlink:href="../../d7/d7c/ADCConfig_8hpp.html" target="_top" xlink:title="This file contains the platform&#45;specific ADC resolutions.">
<polygon fill="white" stroke="black" points="360.5,-224.5 360.5,-243.5 517.5,-243.5 517.5,-224.5 360.5,-224.5"/>
<text text-anchor="middle" x="439" y="-231.5" font-family="Helvetica,sans-Serif" font-size="10.00">AH/Hardware/ADCConfig.hpp</text>
</a>
</g>
</g>
<!-- Node13&#45;&gt;Node15 -->
<g id="edge25" class="edge">
<title>Node13&#45;&gt;Node15</title>
<path fill="none" stroke="midnightblue" d="M292.57,-280.44C322.1,-271.28 369.12,-256.69 401.88,-246.52"/>
<polygon fill="midnightblue" stroke="midnightblue" points="403.04,-249.82 411.56,-243.52 400.97,-243.14 403.04,-249.82"/>
</g>
<!-- Node16 -->
<g id="node16" class="node">
<title>Node16</title>
<g id="a_node16"><a xlink:title=" ">
<polygon fill="white" stroke="#bfbfbf" points="214.5,-224.5 214.5,-243.5 267.5,-243.5 267.5,-224.5 214.5,-224.5"/>
<text text-anchor="middle" x="241" y="-231.5" font-family="Helvetica,sans-Serif" font-size="10.00">limits.h</text>
</a>
</g>
</g>
<!-- Node13&#45;&gt;Node16 -->
<g id="edge28" class="edge">
<title>Node13&#45;&gt;Node16</title>
<path fill="none" stroke="midnightblue" d="M261.04,-280.08C257.79,-272.77 253.08,-262.18 249.05,-253.1"/>
<polygon fill="midnightblue" stroke="midnightblue" points="252.15,-251.47 244.89,-243.75 245.75,-254.31 252.15,-251.47"/>
</g>
<!-- Node17 -->
<g id="node17" class="node">
<title>Node17</title>
<g id="a_node17"><a xlink:title=" ">
<polygon fill="white" stroke="#bfbfbf" points="286,-224.5 286,-243.5 342,-243.5 342,-224.5 286,-224.5"/>
<text text-anchor="middle" x="314" y="-231.5" font-family="Helvetica,sans-Serif" font-size="10.00">stddef.h</text>
</a>
</g>
</g>
<!-- Node13&#45;&gt;Node17 -->
<g id="edge29" class="edge">
<title>Node13&#45;&gt;Node17</title>
<path fill="none" stroke="midnightblue" d="M273.09,-280.08C280.16,-272.3 290.59,-260.8 299.15,-251.37"/>
<polygon fill="midnightblue" stroke="midnightblue" points="301.93,-253.51 306.06,-243.75 296.75,-248.8 301.93,-253.51"/>
</g>
<!-- Node13&#45;&gt;Node18 -->
<g id="edge30" class="edge">
<title>Node13&#45;&gt;Node18</title>
<path fill="none" stroke="midnightblue" d="M243.77,-280.44C221.62,-271.52 186.68,-257.44 161.56,-247.32"/>
<polygon fill="midnightblue" stroke="midnightblue" points="162.72,-244.01 152.13,-243.52 160.1,-250.5 162.72,-244.01"/>
</g>
<!-- Node14&#45;&gt;Node2 -->
<g id="edge23" class="edge">
<title>Node14&#45;&gt;Node2</title>
<path fill="none" stroke="midnightblue" d="M276.23,-112.86C326.87,-105.77 397.64,-93.8 458,-76 480.17,-69.46 484.56,-64.62 506,-56 534.23,-44.64 566.52,-32.16 589.85,-23.23"/>
<polygon fill="midnightblue" stroke="midnightblue" points="591.17,-26.47 599.26,-19.63 588.67,-19.93 591.17,-26.47"/>
</g>
<!-- Node14&#45;&gt;Node6 -->
<g id="edge24" class="edge">
<title>Node14&#45;&gt;Node6</title>
<path fill="none" stroke="midnightblue" d="M201.4,-112.08C194.77,-104.3 184.98,-92.8 176.94,-83.37"/>
<polygon fill="midnightblue" stroke="midnightblue" points="179.6,-81.09 170.45,-75.75 174.27,-85.63 179.6,-81.09"/>
</g>
<!-- Node15&#45;&gt;Node2 -->
<g id="edge26" class="edge">
<title>Node15&#45;&gt;Node2</title>
<path fill="none" stroke="midnightblue" d="M454.65,-224.48C469.51,-216.06 492.18,-202.4 510,-188 537.13,-166.07 545.06,-160.63 565,-132 588.35,-98.47 606.53,-53.87 615.62,-29.25"/>
<polygon fill="midnightblue" stroke="midnightblue" points="618.95,-30.34 619.04,-19.74 612.36,-27.97 618.95,-30.34"/>
</g>
<!-- Node15&#45;&gt;Node7 -->
<g id="edge27" class="edge">
<title>Node15&#45;&gt;Node7</title>
<path fill="none" stroke="midnightblue" d="M439,-224.08C439,-217.01 439,-206.86 439,-197.99"/>
<polygon fill="midnightblue" stroke="midnightblue" points="442.5,-197.75 439,-187.75 435.5,-197.75 442.5,-197.75"/>
</g>
</g>
</svg>
