<?xml version="1.0" encoding="UTF-8" standalone="no"?>
<!DOCTYPE svg PUBLIC "-//W3C//DTD SVG 1.1//EN"
 "http://www.w3.org/Graphics/SVG/1.1/DTD/svg11.dtd">
<!-- Generated by graphviz version 2.43.0 (0)
 -->
<!-- Title: Button.cpp Pages: 1 -->
<svg width="1384pt" height="845pt"
 viewBox="0.00 0.00 1384.25 845.00" xmlns="http://www.w3.org/2000/svg" xmlns:xlink="http://www.w3.org/1999/xlink">
<g id="graph0" class="graph" transform="scale(1 1) rotate(0) translate(4 841)">
<title>Button.cpp</title>
<polygon fill="white" stroke="transparent" points="-4,4 -4,-841 1380.25,-841 1380.25,4 -4,4"/>
<!-- Node1 -->
<g id="node1" class="node">
<title>Node1</title>
<g id="a_node1"><a xlink:title=" ">
<polygon fill="#bfbfbf" stroke="black" points="200.5,-817.5 200.5,-836.5 269.5,-836.5 269.5,-817.5 200.5,-817.5"/>
<text text-anchor="middle" x="235" y="-824.5" font-family="Helvetica,sans-Serif" font-size="10.00">Button.cpp</text>
</a>
</g>
</g>
<!-- Node2 -->
<g id="node2" class="node">
<title>Node2</title>
<g id="a_node2"><a xlink:href="../../d4/db3/Button_8hpp.html" target="_top" xlink:title=" ">
<polygon fill="white" stroke="black" points="200,-761.5 200,-780.5 270,-780.5 270,-761.5 200,-761.5"/>
<text text-anchor="middle" x="235" y="-768.5" font-family="Helvetica,sans-Serif" font-size="10.00">Button.hpp</text>
</a>
</g>
</g>
<!-- Node1&#45;&gt;Node2 -->
<g id="edge1" class="edge">
<title>Node1&#45;&gt;Node2</title>
<path fill="none" stroke="midnightblue" d="M235,-817.08C235,-810.01 235,-799.86 235,-790.99"/>
<polygon fill="midnightblue" stroke="midnightblue" points="238.5,-790.75 235,-780.75 231.5,-790.75 238.5,-790.75"/>
</g>
<!-- Node3 -->
<g id="node3" class="node">
<title>Node3</title>
<g id="a_node3"><a xlink:href="../../d1/d65/Warnings_8hpp.html" target="_top" xlink:title=" ">
<polygon fill="white" stroke="black" points="387.5,-0.5 387.5,-19.5 530.5,-19.5 530.5,-0.5 387.5,-0.5"/>
<text text-anchor="middle" x="459" y="-7.5" font-family="Helvetica,sans-Serif" font-size="10.00">AH/Settings/Warnings.hpp</text>
</a>
</g>
</g>
<!-- Node2&#45;&gt;Node3 -->
<g id="edge2" class="edge">
<title>Node2&#45;&gt;Node3</title>
<path fill="none" stroke="midnightblue" d="M199.82,-767.09C134.26,-759.55 0,-733.16 0,-643.5 0,-643.5 0,-643.5 0,-121 0,-85.09 16.87,-73.9 48,-56 102.35,-24.75 273.89,-15.19 377.39,-12.28"/>
<polygon fill="midnightblue" stroke="midnightblue" points="377.59,-15.77 387.49,-12.01 377.4,-8.77 377.59,-15.77"/>
</g>
<!-- Node4 -->
<g id="node4" class="node">
<title>Node4</title>
<g id="a_node4"><a xlink:href="../../dd/ddf/ExtendedInputOutput_8hpp.html" target="_top" xlink:title=" ">
<polygon fill="white" stroke="black" points="146.5,-694.5 146.5,-724.5 323.5,-724.5 323.5,-694.5 146.5,-694.5"/>
<text text-anchor="start" x="154.5" y="-712.5" font-family="Helvetica,sans-Serif" font-size="10.00">AH/Hardware/ExtendedInput</text>
<text text-anchor="middle" x="235" y="-701.5" font-family="Helvetica,sans-Serif" font-size="10.00">Output/ExtendedInputOutput.hpp</text>
</a>
</g>
</g>
<!-- Node2&#45;&gt;Node4 -->
<g id="edge3" class="edge">
<title>Node2&#45;&gt;Node4</title>
<path fill="none" stroke="midnightblue" d="M235,-761.48C235,-754.47 235,-744.19 235,-734.7"/>
<polygon fill="midnightblue" stroke="midnightblue" points="238.5,-734.52 235,-724.52 231.5,-734.52 238.5,-734.52"/>
</g>
<!-- Node17 -->
<g id="node17" class="node">
<title>Node17</title>
<g id="a_node17"><a xlink:href="../../d2/dd5/SettingsWrapper_8hpp.html" target="_top" xlink:title=" ">
<polygon fill="white" stroke="black" points="774,-336.5 774,-355.5 952,-355.5 952,-336.5 774,-336.5"/>
<text text-anchor="middle" x="863" y="-343.5" font-family="Helvetica,sans-Serif" font-size="10.00">AH/Settings/SettingsWrapper.hpp</text>
</a>
</g>
</g>
<!-- Node2&#45;&gt;Node17 -->
<g id="edge55" class="edge">
<title>Node2&#45;&gt;Node17</title>
<path fill="none" stroke="midnightblue" d="M270.06,-769.19C443.78,-764.72 1204,-739.67 1204,-643.5 1204,-643.5 1204,-643.5 1204,-513 1204,-404.62 1063.03,-366.99 962.37,-353.93"/>
<polygon fill="midnightblue" stroke="midnightblue" points="962.5,-350.42 952.15,-352.67 961.64,-357.36 962.5,-350.42"/>
</g>
<!-- Node4&#45;&gt;Node3 -->
<g id="edge54" class="edge">
<title>Node4&#45;&gt;Node3</title>
<path fill="none" stroke="midnightblue" d="M228.09,-694.49C186.37,-608.95 -27.31,-157.15 63,-56 83.53,-33.01 267.33,-20.22 377.17,-14.57"/>
<polygon fill="midnightblue" stroke="midnightblue" points="377.43,-18.06 387.24,-14.06 377.07,-11.07 377.43,-18.06"/>
</g>
<!-- Node5 -->
<g id="node5" class="node">
<title>Node5</title>
<g id="a_node5"><a xlink:href="../../d2/d3c/Arduino-Hardware-Types_8hpp.html" target="_top" xlink:title=" ">
<polygon fill="white" stroke="black" points="265,-627.5 265,-657.5 387,-657.5 387,-627.5 265,-627.5"/>
<text text-anchor="start" x="273" y="-645.5" font-family="Helvetica,sans-Serif" font-size="10.00">AH/Hardware/Arduino</text>
<text text-anchor="middle" x="326" y="-634.5" font-family="Helvetica,sans-Serif" font-size="10.00">&#45;Hardware&#45;Types.hpp</text>
</a>
</g>
</g>
<!-- Node4&#45;&gt;Node5 -->
<g id="edge4" class="edge">
<title>Node4&#45;&gt;Node5</title>
<path fill="none" stroke="midnightblue" d="M254.75,-694.4C267.39,-685.37 283.98,-673.51 297.97,-663.52"/>
<polygon fill="midnightblue" stroke="midnightblue" points="300.19,-666.24 306.29,-657.58 296.12,-660.54 300.19,-666.24"/>
</g>
<!-- Node11 -->
<g id="node11" class="node">
<title>Node11</title>
<g id="a_node11"><a xlink:href="../../dc/dc7/NamespaceSettings_8hpp.html" target="_top" xlink:title=" ">
<polygon fill="white" stroke="black" points="705.5,-56.5 705.5,-75.5 900.5,-75.5 900.5,-56.5 705.5,-56.5"/>
<text text-anchor="middle" x="803" y="-63.5" font-family="Helvetica,sans-Serif" font-size="10.00">AH/Settings/NamespaceSettings.hpp</text>
</a>
</g>
</g>
<!-- Node4&#45;&gt;Node11 -->
<g id="edge53" class="edge">
<title>Node4&#45;&gt;Node11</title>
<path fill="none" stroke="midnightblue" d="M323.85,-705.15C556.55,-695.19 1166,-661.03 1166,-576.5 1166,-576.5 1166,-576.5 1166,-513 1166,-449.97 1088.03,-311.12 1053,-280 1019.87,-250.56 996.44,-269.23 960,-244 905.14,-206.01 904.22,-181.98 860,-132 845.48,-115.59 828.98,-96.75 817.48,-83.6"/>
<polygon fill="midnightblue" stroke="midnightblue" points="819.93,-81.08 810.72,-75.85 814.66,-85.69 819.93,-81.08"/>
</g>
<!-- Node29 -->
<g id="node29" class="node">
<title>Node29</title>
<g id="a_node29"><a xlink:title=" ">
<polygon fill="white" stroke="#bfbfbf" points="28.5,-633 28.5,-652 115.5,-652 115.5,-633 28.5,-633"/>
<text text-anchor="middle" x="72" y="-640" font-family="Helvetica,sans-Serif" font-size="10.00">AH/STL/climits</text>
</a>
</g>
</g>
<!-- Node4&#45;&gt;Node29 -->
<g id="edge52" class="edge">
<title>Node4&#45;&gt;Node29</title>
<path fill="none" stroke="midnightblue" d="M199.63,-694.4C170.78,-682.89 130.42,-666.8 102.86,-655.81"/>
<polygon fill="midnightblue" stroke="midnightblue" points="103.92,-652.46 93.33,-652.01 101.33,-658.96 103.92,-652.46"/>
</g>
<!-- Node5&#45;&gt;Node3 -->
<g id="edge5" class="edge">
<title>Node5&#45;&gt;Node3</title>
<path fill="none" stroke="midnightblue" d="M326,-627.46C326,-604.12 326,-555.85 326,-515 326,-515 326,-515 326,-121 326,-70.73 383.13,-39.1 422.5,-23.27"/>
<polygon fill="midnightblue" stroke="midnightblue" points="424.01,-26.45 432.09,-19.59 421.5,-19.91 424.01,-26.45"/>
</g>
<!-- Node6 -->
<g id="node6" class="node">
<title>Node6</title>
<g id="a_node6"><a xlink:href="../../d4/d35/Hardware-Types_8hpp.html" target="_top" xlink:title=" ">
<polygon fill="white" stroke="black" points="549.5,-560.5 549.5,-590.5 680.5,-590.5 680.5,-560.5 549.5,-560.5"/>
<text text-anchor="start" x="557.5" y="-578.5" font-family="Helvetica,sans-Serif" font-size="10.00">AH/Hardware/Hardware</text>
<text text-anchor="middle" x="615" y="-567.5" font-family="Helvetica,sans-Serif" font-size="10.00">&#45;Types.hpp</text>
</a>
</g>
</g>
<!-- Node5&#45;&gt;Node6 -->
<g id="edge6" class="edge">
<title>Node5&#45;&gt;Node6</title>
<path fill="none" stroke="midnightblue" d="M387.29,-627.72C432.69,-617.5 494.72,-603.55 542.57,-592.79"/>
<polygon fill="midnightblue" stroke="midnightblue" points="543.56,-596.15 552.55,-590.55 542.03,-589.32 543.56,-596.15"/>
</g>
<!-- Node12 -->
<g id="node12" class="node">
<title>Node12</title>
<g id="a_node12"><a xlink:href="../../d6/ddf/Arduino-Wrapper_8h.html" target="_top" xlink:title=" ">
<polygon fill="white" stroke="black" points="1188,-168.5 1188,-187.5 1312,-187.5 1312,-168.5 1188,-168.5"/>
<text text-anchor="middle" x="1250" y="-175.5" font-family="Helvetica,sans-Serif" font-size="10.00">AH/Arduino&#45;Wrapper.h</text>
</a>
</g>
</g>
<!-- Node5&#45;&gt;Node12 -->
<g id="edge51" class="edge">
<title>Node5&#45;&gt;Node12</title>
<path fill="none" stroke="midnightblue" d="M387.27,-638.29C574.75,-627.66 1128,-589.93 1128,-515 1128,-515 1128,-515 1128,-457 1128,-330.73 1271.33,-362.1 1316,-244 1319.14,-235.69 1320.15,-231.86 1316,-224 1308.58,-209.95 1294.58,-199.47 1281.38,-192.17"/>
<polygon fill="midnightblue" stroke="midnightblue" points="1282.96,-189.04 1272.46,-187.62 1279.78,-195.28 1282.96,-189.04"/>
</g>
<!-- Node26 -->
<g id="node26" class="node">
<title>Node26</title>
<g id="a_node26"><a xlink:href="../../d0/db1/FunctionTraits_8hpp.html" target="_top" xlink:title=" ">
<polygon fill="white" stroke="black" points="144.5,-112.5 144.5,-131.5 297.5,-131.5 297.5,-112.5 144.5,-112.5"/>
<text text-anchor="middle" x="221" y="-119.5" font-family="Helvetica,sans-Serif" font-size="10.00">AH/Types/FunctionTraits.hpp</text>
</a>
</g>
</g>
<!-- Node5&#45;&gt;Node26 -->
<g id="edge46" class="edge">
<title>Node5&#45;&gt;Node26</title>
<path fill="none" stroke="midnightblue" d="M311.43,-627.43C290.39,-605.53 254,-560.99 254,-515 254,-515 254,-515 254,-233 254,-199.25 239.57,-162.03 229.79,-140.69"/>
<polygon fill="midnightblue" stroke="midnightblue" points="232.91,-139.1 225.45,-131.58 226.59,-142.11 232.91,-139.1"/>
</g>
<!-- Node6&#45;&gt;Node3 -->
<g id="edge7" class="edge">
<title>Node6&#45;&gt;Node3</title>
<path fill="none" stroke="midnightblue" d="M549.38,-571.79C475.01,-564.79 364,-540.67 364,-459 364,-459 364,-459 364,-121 364,-77.74 406.61,-43.09 434.75,-24.91"/>
<polygon fill="midnightblue" stroke="midnightblue" points="436.66,-27.85 443.31,-19.6 432.97,-21.9 436.66,-27.85"/>
</g>
<!-- Node7 -->
<g id="node7" class="node">
<title>Node7</title>
<g id="a_node7"><a xlink:href="../../de/d76/Array_8hpp.html" target="_top" xlink:title=" ">
<polygon fill="white" stroke="black" points="547.5,-504.5 547.5,-523.5 682.5,-523.5 682.5,-504.5 547.5,-504.5"/>
<text text-anchor="middle" x="615" y="-511.5" font-family="Helvetica,sans-Serif" font-size="10.00">AH/Containers/Array.hpp</text>
</a>
</g>
</g>
<!-- Node6&#45;&gt;Node7 -->
<g id="edge8" class="edge">
<title>Node6&#45;&gt;Node7</title>
<path fill="none" stroke="midnightblue" d="M615,-560.4C615,-552.47 615,-542.46 615,-533.86"/>
<polygon fill="midnightblue" stroke="midnightblue" points="618.5,-533.66 615,-523.66 611.5,-533.66 618.5,-533.66"/>
</g>
<!-- Node6&#45;&gt;Node11 -->
<g id="edge44" class="edge">
<title>Node6&#45;&gt;Node11</title>
<path fill="none" stroke="midnightblue" d="M648.97,-560.5C664.66,-552.24 682,-540.19 692,-524 762.53,-409.79 689.45,-352.88 727,-224 742.61,-170.42 775.12,-112.63 792.12,-84.45"/>
<polygon fill="midnightblue" stroke="midnightblue" points="795.2,-86.13 797.43,-75.77 789.23,-82.48 795.2,-86.13"/>
</g>
<!-- Node23 -->
<g id="node23" class="node">
<title>Node23</title>
<g id="a_node23"><a xlink:title=" ">
<polygon fill="white" stroke="#bfbfbf" points="1253.5,-224.5 1253.5,-243.5 1306.5,-243.5 1306.5,-224.5 1253.5,-224.5"/>
<text text-anchor="middle" x="1280" y="-231.5" font-family="Helvetica,sans-Serif" font-size="10.00">stdint.h</text>
</a>
</g>
</g>
<!-- Node6&#45;&gt;Node23 -->
<g id="edge45" class="edge">
<title>Node6&#45;&gt;Node23</title>
<path fill="none" stroke="midnightblue" d="M680.72,-574.76C775.05,-571.91 950.18,-554.26 1066,-468 1120.29,-427.56 1094.05,-383.79 1142,-336 1164.84,-313.23 1178.69,-318.65 1205,-300 1226.59,-284.7 1249.26,-264.37 1263.95,-250.54"/>
<polygon fill="midnightblue" stroke="midnightblue" points="1266.41,-253.04 1271.24,-243.61 1261.58,-247.97 1266.41,-253.04"/>
</g>
<!-- Node7&#45;&gt;Node3 -->
<g id="edge9" class="edge">
<title>Node7&#45;&gt;Node3</title>
<path fill="none" stroke="midnightblue" d="M617.5,-504.47C620.87,-491.06 625.15,-464.85 613,-448 585.86,-410.36 546.89,-445.71 515,-412 476.35,-371.15 478,-347.24 478,-291 478,-291 478,-291 478,-121 478,-88.49 469.84,-51.35 464.22,-29.61"/>
<polygon fill="midnightblue" stroke="midnightblue" points="467.54,-28.5 461.56,-19.75 460.78,-30.32 467.54,-28.5"/>
</g>
<!-- Node8 -->
<g id="node8" class="node">
<title>Node8</title>
<g id="a_node8"><a xlink:href="../../d1/d93/Error_8hpp.html" target="_top" xlink:title=" ">
<polygon fill="white" stroke="black" points="392,-448.5 392,-467.5 496,-467.5 496,-448.5 392,-448.5"/>
<text text-anchor="middle" x="444" y="-455.5" font-family="Helvetica,sans-Serif" font-size="10.00">AH/Error/Error.hpp</text>
</a>
</g>
</g>
<!-- Node7&#45;&gt;Node8 -->
<g id="edge10" class="edge">
<title>Node7&#45;&gt;Node8</title>
<path fill="none" stroke="midnightblue" d="M587.9,-504.44C559.01,-495.32 513.08,-480.81 480.89,-470.65"/>
<polygon fill="midnightblue" stroke="midnightblue" points="481.56,-467.19 470.97,-467.52 479.45,-473.87 481.56,-467.19"/>
</g>
<!-- Node16 -->
<g id="node16" class="node">
<title>Node16</title>
<g id="a_node16"><a xlink:title=" ">
<polygon fill="white" stroke="#bfbfbf" points="1021.5,-112.5 1021.5,-131.5 1128.5,-131.5 1128.5,-112.5 1021.5,-112.5"/>
<text text-anchor="middle" x="1075" y="-119.5" font-family="Helvetica,sans-Serif" font-size="10.00">AH/STL/type_traits</text>
</a>
</g>
</g>
<!-- Node7&#45;&gt;Node16 -->
<g id="edge42" class="edge">
<title>Node7&#45;&gt;Node16</title>
<path fill="none" stroke="midnightblue" d="M682.8,-509.92C805.55,-502.49 1052,-478.2 1052,-403 1052,-403 1052,-403 1052,-345 1052,-314.9 1052.36,-303.05 1033,-280 1009.74,-252.3 979.1,-274.72 960,-244 955.31,-236.45 956.33,-232.1 960,-224 978.21,-183.76 1021.25,-153.2 1049.2,-136.71"/>
<polygon fill="midnightblue" stroke="midnightblue" points="1051.1,-139.66 1058.05,-131.66 1047.63,-133.58 1051.1,-139.66"/>
</g>
<!-- Node22 -->
<g id="node22" class="node">
<title>Node22</title>
<g id="a_node22"><a xlink:title=" ">
<polygon fill="white" stroke="#bfbfbf" points="736,-224.5 736,-243.5 792,-243.5 792,-224.5 736,-224.5"/>
<text text-anchor="middle" x="764" y="-231.5" font-family="Helvetica,sans-Serif" font-size="10.00">stddef.h</text>
</a>
</g>
</g>
<!-- Node7&#45;&gt;Node22 -->
<g id="edge43" class="edge">
<title>Node7&#45;&gt;Node22</title>
<path fill="none" stroke="midnightblue" d="M621.54,-504.27C628.08,-495.37 638.25,-481.05 646,-468 692.13,-390.34 737.92,-292.46 755.96,-252.85"/>
<polygon fill="midnightblue" stroke="midnightblue" points="759.18,-254.24 760.12,-243.69 752.8,-251.35 759.18,-254.24"/>
</g>
<!-- Node25 -->
<g id="node25" class="node">
<title>Node25</title>
<g id="a_node25"><a xlink:title=" ">
<polygon fill="white" stroke="#bfbfbf" points="514,-448.5 514,-467.5 604,-467.5 604,-448.5 514,-448.5"/>
<text text-anchor="middle" x="559" y="-455.5" font-family="Helvetica,sans-Serif" font-size="10.00">AH/STL/iterator</text>
</a>
</g>
</g>
<!-- Node7&#45;&gt;Node25 -->
<g id="edge41" class="edge">
<title>Node7&#45;&gt;Node25</title>
<path fill="none" stroke="midnightblue" d="M606,-504.32C597.81,-496.42 585.49,-484.55 575.53,-474.94"/>
<polygon fill="midnightblue" stroke="midnightblue" points="577.79,-472.26 568.16,-467.83 572.93,-477.29 577.79,-472.26"/>
</g>
<!-- Node8&#45;&gt;Node3 -->
<g id="edge11" class="edge">
<title>Node8&#45;&gt;Node3</title>
<path fill="none" stroke="midnightblue" d="M438.16,-448.31C426.62,-430.26 402,-387.07 402,-347 402,-347 402,-347 402,-121 402,-84.3 427.32,-47.66 444.21,-27.3"/>
<polygon fill="midnightblue" stroke="midnightblue" points="446.95,-29.48 450.83,-19.62 441.65,-24.9 446.95,-29.48"/>
</g>
<!-- Node9 -->
<g id="node9" class="node">
<title>Node9</title>
<g id="a_node9"><a xlink:href="../../df/dee/Debug_8hpp.html" target="_top" xlink:title=" ">
<polygon fill="white" stroke="black" points="523.5,-392.5 523.5,-411.5 644.5,-411.5 644.5,-392.5 523.5,-392.5"/>
<text text-anchor="middle" x="584" y="-399.5" font-family="Helvetica,sans-Serif" font-size="10.00">AH/Debug/Debug.hpp</text>
</a>
</g>
</g>
<!-- Node8&#45;&gt;Node9 -->
<g id="edge12" class="edge">
<title>Node8&#45;&gt;Node9</title>
<path fill="none" stroke="midnightblue" d="M466.18,-448.44C489.43,-439.48 526.15,-425.31 552.42,-415.18"/>
<polygon fill="midnightblue" stroke="midnightblue" points="553.85,-418.38 561.92,-411.52 551.33,-411.85 553.85,-418.38"/>
</g>
<!-- Node9&#45;&gt;Node3 -->
<g id="edge13" class="edge">
<title>Node9&#45;&gt;Node3</title>
<path fill="none" stroke="midnightblue" d="M572.7,-392.21C538.75,-364.72 440,-276.39 440,-179 440,-179 440,-179 440,-121 440,-88.49 448.16,-51.35 453.78,-29.61"/>
<polygon fill="midnightblue" stroke="midnightblue" points="457.22,-30.32 456.44,-19.75 450.46,-28.5 457.22,-30.32"/>
</g>
<!-- Node10 -->
<g id="node10" class="node">
<title>Node10</title>
<g id="a_node10"><a xlink:href="../../dd/d80/PrintStream_8hpp.html" target="_top" xlink:title=" ">
<polygon fill="white" stroke="black" points="506.5,-224.5 506.5,-243.5 679.5,-243.5 679.5,-224.5 506.5,-224.5"/>
<text text-anchor="middle" x="593" y="-231.5" font-family="Helvetica,sans-Serif" font-size="10.00">AH/PrintStream/PrintStream.hpp</text>
</a>
</g>
</g>
<!-- Node9&#45;&gt;Node10 -->
<g id="edge14" class="edge">
<title>Node9&#45;&gt;Node10</title>
<path fill="none" stroke="midnightblue" d="M584.48,-392.08C585.9,-365.95 590.06,-289.21 591.99,-253.58"/>
<polygon fill="midnightblue" stroke="midnightblue" points="595.49,-253.74 592.54,-243.57 588.5,-253.36 595.49,-253.74"/>
</g>
<!-- Node9&#45;&gt;Node17 -->
<g id="edge26" class="edge">
<title>Node9&#45;&gt;Node17</title>
<path fill="none" stroke="midnightblue" d="M623.12,-392.44C670.21,-382.92 749.54,-367.55 804.04,-357.36"/>
<polygon fill="midnightblue" stroke="midnightblue" points="804.73,-360.79 813.92,-355.52 803.45,-353.91 804.73,-360.79"/>
</g>
<!-- Node10&#45;&gt;Node3 -->
<g id="edge16" class="edge">
<title>Node10&#45;&gt;Node3</title>
<path fill="none" stroke="midnightblue" d="M588.5,-224.32C574.9,-198.26 532.64,-118.62 492,-56 485.8,-46.45 478.34,-36.19 472.08,-27.88"/>
<polygon fill="midnightblue" stroke="midnightblue" points="474.73,-25.58 465.88,-19.75 469.17,-29.83 474.73,-25.58"/>
</g>
<!-- Node10&#45;&gt;Node11 -->
<g id="edge15" class="edge">
<title>Node10&#45;&gt;Node11</title>
<path fill="none" stroke="midnightblue" d="M598.73,-224.22C613.27,-202.52 653.75,-145.67 700,-112 719.66,-97.69 744.58,-86.65 764.99,-79.08"/>
<polygon fill="midnightblue" stroke="midnightblue" points="766.36,-82.31 774.6,-75.65 764.01,-75.72 766.36,-82.31"/>
</g>
<!-- Node10&#45;&gt;Node12 -->
<g id="edge17" class="edge">
<title>Node10&#45;&gt;Node12</title>
<path fill="none" stroke="midnightblue" d="M679.57,-225.88C810.39,-215.13 1056.08,-194.94 1177.83,-184.93"/>
<polygon fill="midnightblue" stroke="midnightblue" points="1178.12,-188.42 1187.8,-184.11 1177.55,-181.44 1178.12,-188.42"/>
</g>
<!-- Node13 -->
<g id="node13" class="node">
<title>Node13</title>
<g id="a_node13"><a xlink:href="../../d7/d79/MinMaxFix_8hpp.html" target="_top" xlink:title=" ">
<polygon fill="white" stroke="black" points="1185,-112.5 1185,-131.5 1321,-131.5 1321,-112.5 1185,-112.5"/>
<text text-anchor="middle" x="1253" y="-119.5" font-family="Helvetica,sans-Serif" font-size="10.00">AH/Math/MinMaxFix.hpp</text>
</a>
</g>
</g>
<!-- Node12&#45;&gt;Node13 -->
<g id="edge18" class="edge">
<title>Node12&#45;&gt;Node13</title>
<path fill="none" stroke="midnightblue" d="M1250.5,-168.08C1250.89,-161.01 1251.45,-150.86 1251.95,-141.99"/>
<polygon fill="midnightblue" stroke="midnightblue" points="1255.45,-141.93 1252.51,-131.75 1248.46,-141.54 1255.45,-141.93"/>
</g>
<!-- Node15 -->
<g id="node15" class="node">
<title>Node15</title>
<g id="a_node15"><a xlink:title=" ">
<polygon fill="white" stroke="#bfbfbf" points="1304.5,-0.5 1304.5,-19.5 1367.5,-19.5 1367.5,-0.5 1304.5,-0.5"/>
<text text-anchor="middle" x="1336" y="-7.5" font-family="Helvetica,sans-Serif" font-size="10.00">Arduino.h</text>
</a>
</g>
</g>
<!-- Node12&#45;&gt;Node15 -->
<g id="edge25" class="edge">
<title>Node12&#45;&gt;Node15</title>
<path fill="none" stroke="midnightblue" d="M1271.21,-168.42C1302.08,-154.49 1357.53,-123.63 1374,-76 1376.91,-67.6 1377.05,-64.35 1374,-56 1369.94,-44.91 1361.81,-34.67 1354.11,-26.76"/>
<polygon fill="midnightblue" stroke="midnightblue" points="1356.36,-24.07 1346.71,-19.7 1351.53,-29.14 1356.36,-24.07"/>
</g>
<!-- Node12&#45;&gt;Node16 -->
<g id="edge24" class="edge">
<title>Node12&#45;&gt;Node16</title>
<path fill="none" stroke="midnightblue" d="M1222.27,-168.44C1192.57,-159.28 1145.28,-144.69 1112.33,-134.52"/>
<polygon fill="midnightblue" stroke="midnightblue" points="1113.19,-131.12 1102.6,-131.52 1111.12,-137.81 1113.19,-131.12"/>
</g>
<!-- Node13&#45;&gt;Node3 -->
<g id="edge19" class="edge">
<title>Node13&#45;&gt;Node3</title>
<path fill="none" stroke="midnightblue" d="M1240.01,-112.28C1215.59,-96.05 1163.45,-62.32 1143,-56 1032.71,-21.92 696.8,-13.65 540.54,-11.64"/>
<polygon fill="midnightblue" stroke="midnightblue" points="540.56,-8.14 530.51,-11.52 540.47,-15.14 540.56,-8.14"/>
</g>
<!-- Node13&#45;&gt;Node11 -->
<g id="edge23" class="edge">
<title>Node13&#45;&gt;Node11</title>
<path fill="none" stroke="midnightblue" d="M1184.65,-112.8C1103.89,-103.11 969.66,-87 883.81,-76.7"/>
<polygon fill="midnightblue" stroke="midnightblue" points="884.19,-73.22 873.85,-75.5 883.36,-80.17 884.19,-73.22"/>
</g>
<!-- Node14 -->
<g id="node14" class="node">
<title>Node14</title>
<g id="a_node14"><a xlink:href="../../d6/d3b/FixArduinoMacros_8hpp.html" target="_top" xlink:title=" ">
<polygon fill="white" stroke="black" points="1195,-56.5 1195,-75.5 1365,-75.5 1365,-56.5 1195,-56.5"/>
<text text-anchor="middle" x="1280" y="-63.5" font-family="Helvetica,sans-Serif" font-size="10.00">AH/Math/FixArduinoMacros.hpp</text>
</a>
</g>
</g>
<!-- Node13&#45;&gt;Node14 -->
<g id="edge20" class="edge">
<title>Node13&#45;&gt;Node14</title>
<path fill="none" stroke="midnightblue" d="M1257.46,-112.08C1261.15,-104.69 1266.52,-93.95 1271.09,-84.81"/>
<polygon fill="midnightblue" stroke="midnightblue" points="1274.28,-86.26 1275.62,-75.75 1268.02,-83.13 1274.28,-86.26"/>
</g>
<!-- Node14&#45;&gt;Node3 -->
<g id="edge21" class="edge">
<title>Node14&#45;&gt;Node3</title>
<path fill="none" stroke="midnightblue" d="M1194.96,-57.11C1190.24,-56.72 1185.56,-56.35 1181,-56 948.96,-38.23 674.57,-22.61 540.7,-15.33"/>
<polygon fill="midnightblue" stroke="midnightblue" points="540.7,-11.83 530.52,-14.78 540.32,-18.82 540.7,-11.83"/>
</g>
<!-- Node14&#45;&gt;Node15 -->
<g id="edge22" class="edge">
<title>Node14&#45;&gt;Node15</title>
<path fill="none" stroke="midnightblue" d="M1289,-56.32C1297.19,-48.42 1309.51,-36.55 1319.47,-26.94"/>
<polygon fill="midnightblue" stroke="midnightblue" points="1322.07,-29.29 1326.84,-19.83 1317.21,-24.26 1322.07,-29.29"/>
</g>
<!-- Node17&#45;&gt;Node3 -->
<g id="edge27" class="edge">
<title>Node17&#45;&gt;Node3</title>
<path fill="none" stroke="midnightblue" d="M856.51,-336.34C850.05,-327.5 840.11,-313.23 833,-300 815.65,-267.72 824.78,-251.89 801,-224 712.06,-119.72 558.92,-50.29 491.95,-23.45"/>
<polygon fill="midnightblue" stroke="midnightblue" points="492.93,-20.07 482.34,-19.66 490.36,-26.58 492.93,-20.07"/>
</g>
<!-- Node17&#45;&gt;Node9 -->
<g id="edge40" class="edge">
<title>Node17&#45;&gt;Node9</title>
<path fill="none" stroke="midnightblue" d="M824.08,-355.52C777.08,-365.02 697.76,-380.4 643.19,-390.6"/>
<polygon fill="midnightblue" stroke="midnightblue" points="642.49,-387.17 633.3,-392.44 643.77,-394.05 642.49,-387.17"/>
</g>
<!-- Node17&#45;&gt;Node11 -->
<g id="edge28" class="edge">
<title>Node17&#45;&gt;Node11</title>
<path fill="none" stroke="midnightblue" d="M857.91,-336.37C852.97,-327.55 845.69,-313.29 842,-300 832.92,-267.27 839.07,-257.58 834,-224 826.42,-173.8 813.86,-115.27 807.3,-85.88"/>
<polygon fill="midnightblue" stroke="midnightblue" points="810.64,-84.79 805.03,-75.8 803.81,-86.33 810.64,-84.79"/>
</g>
<!-- Node18 -->
<g id="node18" class="node">
<title>Node18</title>
<g id="a_node18"><a xlink:href="../../db/d02/Settings_8hpp.html" target="_top" xlink:title="All user settings and debugging options can be changed here.">
<polygon fill="white" stroke="black" points="1118.5,-280.5 1118.5,-299.5 1195.5,-299.5 1195.5,-280.5 1118.5,-280.5"/>
<text text-anchor="middle" x="1157" y="-287.5" font-family="Helvetica,sans-Serif" font-size="10.00">Settings.hpp</text>
</a>
</g>
</g>
<!-- Node17&#45;&gt;Node18 -->
<g id="edge29" class="edge">
<title>Node17&#45;&gt;Node18</title>
<path fill="none" stroke="midnightblue" d="M909.59,-336.44C963.85,-326.48 1053.08,-310.09 1108.25,-299.95"/>
<polygon fill="midnightblue" stroke="midnightblue" points="1108.94,-303.39 1118.14,-298.14 1107.68,-296.5 1108.94,-303.39"/>
</g>
<!-- Node24 -->
<g id="node24" class="node">
<title>Node24</title>
<g id="a_node24"><a xlink:href="../../d9/d98/TeensyUSBTypes_8hpp.html" target="_top" xlink:title=" ">
<polygon fill="white" stroke="black" points="850.5,-280.5 850.5,-299.5 1023.5,-299.5 1023.5,-280.5 850.5,-280.5"/>
<text text-anchor="middle" x="937" y="-287.5" font-family="Helvetica,sans-Serif" font-size="10.00">AH/Teensy/TeensyUSBTypes.hpp</text>
</a>
</g>
</g>
<!-- Node17&#45;&gt;Node24 -->
<g id="edge39" class="edge">
<title>Node17&#45;&gt;Node24</title>
<path fill="none" stroke="midnightblue" d="M874.89,-336.32C886.15,-328.11 903.29,-315.6 916.71,-305.81"/>
<polygon fill="midnightblue" stroke="midnightblue" points="918.88,-308.56 924.89,-299.83 914.75,-302.9 918.88,-308.56"/>
</g>
<!-- Node19 -->
<g id="node19" class="node">
<title>Node19</title>
<g id="a_node19"><a xlink:href="../../dc/d50/Frequency_8hpp.html" target="_top" xlink:title=" ">
<polygon fill="white" stroke="black" points="869,-112.5 869,-131.5 1003,-131.5 1003,-112.5 869,-112.5"/>
<text text-anchor="middle" x="936" y="-119.5" font-family="Helvetica,sans-Serif" font-size="10.00">AH/Types/Frequency.hpp</text>
</a>
</g>
</g>
<!-- Node18&#45;&gt;Node19 -->
<g id="edge30" class="edge">
<title>Node18&#45;&gt;Node19</title>
<path fill="none" stroke="midnightblue" d="M1136.82,-280.36C1118.64,-272.17 1091.53,-258.91 1070,-244 1023.01,-211.44 974.96,-163.86 951.21,-139.19"/>
<polygon fill="midnightblue" stroke="midnightblue" points="953.56,-136.58 944.13,-131.75 948.49,-141.41 953.56,-136.58"/>
</g>
<!-- Node20 -->
<g id="node20" class="node">
<title>Node20</title>
<g id="a_node20"><a xlink:href="../../d7/d7c/ADCConfig_8hpp.html" target="_top" xlink:title="This file contains the platform&#45;specific ADC resolutions.">
<polygon fill="white" stroke="black" points="1078.5,-224.5 1078.5,-243.5 1235.5,-243.5 1235.5,-224.5 1078.5,-224.5"/>
<text text-anchor="middle" x="1157" y="-231.5" font-family="Helvetica,sans-Serif" font-size="10.00">AH/Hardware/ADCConfig.hpp</text>
</a>
</g>
</g>
<!-- Node18&#45;&gt;Node20 -->
<g id="edge33" class="edge">
<title>Node18&#45;&gt;Node20</title>
<path fill="none" stroke="midnightblue" d="M1157,-280.08C1157,-273.01 1157,-262.86 1157,-253.99"/>
<polygon fill="midnightblue" stroke="midnightblue" points="1160.5,-253.75 1157,-243.75 1153.5,-253.75 1160.5,-253.75"/>
</g>
<!-- Node21 -->
<g id="node21" class="node">
<title>Node21</title>
<g id="a_node21"><a xlink:title=" ">
<polygon fill="white" stroke="#bfbfbf" points="968.5,-224.5 968.5,-243.5 1021.5,-243.5 1021.5,-224.5 968.5,-224.5"/>
<text text-anchor="middle" x="995" y="-231.5" font-family="Helvetica,sans-Serif" font-size="10.00">limits.h</text>
</a>
</g>
</g>
<!-- Node18&#45;&gt;Node21 -->
<g id="edge36" class="edge">
<title>Node18&#45;&gt;Node21</title>
<path fill="none" stroke="midnightblue" d="M1131.33,-280.44C1104.08,-271.36 1060.82,-256.94 1030.35,-246.78"/>
<polygon fill="midnightblue" stroke="midnightblue" points="1031.14,-243.36 1020.55,-243.52 1028.93,-250 1031.14,-243.36"/>
</g>
<!-- Node18&#45;&gt;Node22 -->
<g id="edge37" class="edge">
<title>Node18&#45;&gt;Node22</title>
<path fill="none" stroke="midnightblue" d="M1118.24,-283.67C1042.78,-273.31 876.99,-250.53 802.08,-240.23"/>
<polygon fill="midnightblue" stroke="midnightblue" points="802.51,-236.76 792.13,-238.87 801.56,-243.69 802.51,-236.76"/>
</g>
<!-- Node18&#45;&gt;Node23 -->
<g id="edge38" class="edge">
<title>Node18&#45;&gt;Node23</title>
<path fill="none" stroke="midnightblue" d="M1176.49,-280.44C1196.64,-271.6 1228.32,-257.69 1251.33,-247.59"/>
<polygon fill="midnightblue" stroke="midnightblue" points="1252.85,-250.74 1260.6,-243.52 1250.04,-244.33 1252.85,-250.74"/>
</g>
<!-- Node19&#45;&gt;Node3 -->
<g id="edge31" class="edge">
<title>Node19&#45;&gt;Node3</title>
<path fill="none" stroke="midnightblue" d="M935.28,-112.13C933.61,-97.74 928.07,-69.59 910,-56 881.21,-34.35 662.89,-20.65 540.88,-14.6"/>
<polygon fill="midnightblue" stroke="midnightblue" points="540.98,-11.1 530.82,-14.11 540.64,-18.09 540.98,-11.1"/>
</g>
<!-- Node19&#45;&gt;Node11 -->
<g id="edge32" class="edge">
<title>Node19&#45;&gt;Node11</title>
<path fill="none" stroke="midnightblue" d="M914.93,-112.44C892.94,-103.52 858.27,-89.44 833.34,-79.32"/>
<polygon fill="midnightblue" stroke="midnightblue" points="834.56,-76.04 823.98,-75.52 831.92,-82.52 834.56,-76.04"/>
</g>
<!-- Node20&#45;&gt;Node3 -->
<g id="edge34" class="edge">
<title>Node20&#45;&gt;Node3</title>
<path fill="none" stroke="midnightblue" d="M1158.5,-224.37C1161.78,-202.52 1167.11,-144.45 1138,-112 1060.08,-25.14 704.06,-12.07 541,-10.72"/>
<polygon fill="midnightblue" stroke="midnightblue" points="540.56,-7.22 530.54,-10.65 540.51,-14.22 540.56,-7.22"/>
</g>
<!-- Node20&#45;&gt;Node12 -->
<g id="edge35" class="edge">
<title>Node20&#45;&gt;Node12</title>
<path fill="none" stroke="midnightblue" d="M1171.94,-224.32C1186.59,-215.82 1209.13,-202.73 1226.24,-192.8"/>
<polygon fill="midnightblue" stroke="midnightblue" points="1228.2,-195.7 1235.1,-187.65 1224.69,-189.65 1228.2,-195.7"/>
</g>
<!-- Node26&#45;&gt;Node3 -->
<g id="edge49" class="edge">
<title>Node26&#45;&gt;Node3</title>
<path fill="none" stroke="midnightblue" d="M230.68,-112.44C246.61,-98.77 279.79,-71.9 312,-56 342.83,-40.78 379.85,-29.48 409.03,-22.01"/>
<polygon fill="midnightblue" stroke="midnightblue" points="410.14,-25.34 419,-19.53 408.45,-18.55 410.14,-25.34"/>
</g>
<!-- Node26&#45;&gt;Node11 -->
<g id="edge50" class="edge">
<title>Node26&#45;&gt;Node11</title>
<path fill="none" stroke="midnightblue" d="M297.68,-113.88C401.21,-104.28 585.92,-87.14 701.05,-76.46"/>
<polygon fill="midnightblue" stroke="midnightblue" points="701.64,-79.92 711.28,-75.51 700.99,-72.95 701.64,-79.92"/>
</g>
<!-- Node27 -->
<g id="node27" class="node">
<title>Node27</title>
<g id="a_node27"><a xlink:title=" ">
<polygon fill="white" stroke="#bfbfbf" points="72,-56.5 72,-75.5 162,-75.5 162,-56.5 72,-56.5"/>
<text text-anchor="middle" x="117" y="-63.5" font-family="Helvetica,sans-Serif" font-size="10.00">AH/STL/cstddef</text>
</a>
</g>
</g>
<!-- Node26&#45;&gt;Node27 -->
<g id="edge47" class="edge">
<title>Node26&#45;&gt;Node27</title>
<path fill="none" stroke="midnightblue" d="M204.29,-112.32C187.69,-103.7 162,-90.36 142.78,-80.39"/>
<polygon fill="midnightblue" stroke="midnightblue" points="144.16,-77.16 133.67,-75.65 140.93,-83.37 144.16,-77.16"/>
</g>
<!-- Node28 -->
<g id="node28" class="node">
<title>Node28</title>
<g id="a_node28"><a xlink:title=" ">
<polygon fill="white" stroke="#bfbfbf" points="180.5,-56.5 180.5,-75.5 259.5,-75.5 259.5,-56.5 180.5,-56.5"/>
<text text-anchor="middle" x="220" y="-63.5" font-family="Helvetica,sans-Serif" font-size="10.00">AH/STL/tuple</text>
</a>
</g>
</g>
<!-- Node26&#45;&gt;Node28 -->
<g id="edge48" class="edge">
<title>Node26&#45;&gt;Node28</title>
<path fill="none" stroke="midnightblue" d="M220.83,-112.08C220.7,-105.01 220.52,-94.86 220.35,-85.99"/>
<polygon fill="midnightblue" stroke="midnightblue" points="223.85,-85.68 220.16,-75.75 216.85,-85.81 223.85,-85.68"/>
</g>
</g>
</svg>
