<?xml version="1.0" encoding="UTF-8" standalone="no"?>
<!DOCTYPE svg PUBLIC "-//W3C//DTD SVG 1.1//EN"
 "http://www.w3.org/Graphics/SVG/1.1/DTD/svg11.dtd">
<!-- Generated by graphviz version 2.38.0 (20140413.2041)
 -->
<!-- Title: round_div_int&lt; N, T &gt; Pages: 1 -->
<svg width="149pt" height="193pt"
 viewBox="0.00 0.00 149.00 193.00" xmlns="http://www.w3.org/2000/svg" xmlns:xlink="http://www.w3.org/1999/xlink">
<g id="graph0" class="graph" transform="scale(1 1) rotate(0) translate(4 189)">
<title>round_div_int&lt; N, T &gt;</title>
<polygon fill="white" stroke="none" points="-4,4 -4,-189 145,-189 145,4 -4,4"/>
<!-- Node1 -->
<g id="node1" class="node"><title>Node1</title>
<g id="a_node1"><a xlink:title="Select the right rounding division operator, depending on whether T is a signed or unsigned integer.">
<polygon fill="#bfbfbf" stroke="black" points="14.5,-0.5 14.5,-57.5 126.5,-57.5 126.5,-0.5 14.5,-0.5"/>
<text text-anchor="middle" x="70.5" y="-45.5" font-family="Helvetica,sans-Serif" font-size="10.00">round_div_int&lt; N, T &gt;</text>
<polyline fill="none" stroke="black" points="14.5,-38.5 126.5,-38.5 "/>
<text text-anchor="middle" x="70.5" y="-26.5" font-family="Helvetica,sans-Serif" font-size="10.00"> </text>
<polyline fill="none" stroke="black" points="14.5,-19.5 126.5,-19.5 "/>
<text text-anchor="middle" x="70.5" y="-7.5" font-family="Helvetica,sans-Serif" font-size="10.00"> </text>
</a>
</g>
</g>
<!-- Node2 -->
<g id="node2" class="node"><title>Node2</title>
<g id="a_node2"><a xlink:title=" ">
<polygon fill="white" stroke="#bfbfbf" points="0,-94.5 0,-184.5 141,-184.5 141,-94.5 0,-94.5"/>
<text text-anchor="start" x="8" y="-172.5" font-family="Helvetica,sans-Serif" font-size="10.00">type&lt; std::is_signed</text>
<text text-anchor="start" x="8" y="-161.5" font-family="Helvetica,sans-Serif" font-size="10.00">&lt; T &gt;::value, round_div</text>
<text text-anchor="start" x="8" y="-150.5" font-family="Helvetica,sans-Serif" font-size="10.00">_signed_int&lt; N, T &gt;, round</text>
<text text-anchor="middle" x="70.5" y="-139.5" font-family="Helvetica,sans-Serif" font-size="10.00">_div_unsigned_int&lt; N, T &gt; &gt;</text>
<polyline fill="none" stroke="#bfbfbf" points="0,-132.5 141,-132.5 "/>
<text text-anchor="middle" x="70.5" y="-120.5" font-family="Helvetica,sans-Serif" font-size="10.00"> </text>
<polyline fill="none" stroke="#bfbfbf" points="0,-113.5 141,-113.5 "/>
<text text-anchor="middle" x="70.5" y="-101.5" font-family="Helvetica,sans-Serif" font-size="10.00"> </text>
</a>
</g>
</g>
<!-- Node2&#45;&gt;Node1 -->
<g id="edge1" class="edge"><title>Node2&#45;&gt;Node1</title>
<path fill="none" stroke="midnightblue" d="M70.5,-84.3531C70.5,-75.074 70.5,-65.7909 70.5,-57.5896"/>
<polygon fill="none" stroke="midnightblue" points="67.0001,-84.3689 70.5,-94.3689 74.0001,-84.3689 67.0001,-84.3689"/>
</g>
</g>
</svg>
