<?xml version="1.0" encoding="UTF-8" standalone="no"?>
<!DOCTYPE svg PUBLIC "-//W3C//DTD SVG 1.1//EN"
 "http://www.w3.org/Graphics/SVG/1.1/DTD/svg11.dtd">
<!-- Generated by graphviz version 2.38.0 (20140413.2041)
 -->
<!-- Title: BiQuadFilterDF1&lt; T &gt; Pages: 1 -->
<svg width="166pt" height="193pt"
 viewBox="0.00 0.00 166.00 193.00" xmlns="http://www.w3.org/2000/svg" xmlns:xlink="http://www.w3.org/1999/xlink">
<g id="graph0" class="graph" transform="scale(1 1) rotate(0) translate(4 189)">
<title>BiQuadFilterDF1&lt; T &gt;</title>
<polygon fill="white" stroke="none" points="-4,4 -4,-189 162,-189 162,4 -4,4"/>
<!-- Node1 -->
<g id="node1" class="node"><title>Node1</title>
<g id="a_node1"><a xlink:title="Generic BiQuad (Bi&#45;Quadratic) filter class, Direct Form 1 implementation.">
<polygon fill="#bfbfbf" stroke="black" points="22.5,-0.5 22.5,-90.5 135.5,-90.5 135.5,-0.5 22.5,-0.5"/>
<text text-anchor="middle" x="79" y="-78.5" font-family="Helvetica,sans-Serif" font-size="10.00">BiQuadFilterDF1&lt; T &gt;</text>
<polyline fill="none" stroke="black" points="22.5,-71.5 135.5,-71.5 "/>
<text text-anchor="middle" x="79" y="-59.5" font-family="Helvetica,sans-Serif" font-size="10.00"> </text>
<polyline fill="none" stroke="black" points="22.5,-52.5 135.5,-52.5 "/>
<text text-anchor="start" x="30.5" y="-40.5" font-family="Helvetica,sans-Serif" font-size="10.00">+ BiQuadFilterDF1()</text>
<text text-anchor="start" x="30.5" y="-29.5" font-family="Helvetica,sans-Serif" font-size="10.00">+ BiQuadFilterDF1()</text>
<text text-anchor="start" x="30.5" y="-18.5" font-family="Helvetica,sans-Serif" font-size="10.00">+ BiQuadFilterDF1()</text>
<text text-anchor="start" x="30.5" y="-7.5" font-family="Helvetica,sans-Serif" font-size="10.00">+ operator()()</text>
</a>
</g>
</g>
<!-- Node2 -->
<g id="node2" class="node"><title>Node2</title>
<g id="a_node2"><a xlink:title=" ">
<polygon fill="white" stroke="#bfbfbf" points="-1.42109e-14,-127.5 -1.42109e-14,-184.5 158,-184.5 158,-127.5 -1.42109e-14,-127.5"/>
<text text-anchor="middle" x="79" y="-172.5" font-family="Helvetica,sans-Serif" font-size="10.00">BiQuadDF1Implementation&lt; T &gt;</text>
<polyline fill="none" stroke="#bfbfbf" points="-1.42109e-14,-165.5 158,-165.5 "/>
<text text-anchor="middle" x="79" y="-153.5" font-family="Helvetica,sans-Serif" font-size="10.00"> </text>
<polyline fill="none" stroke="#bfbfbf" points="-1.42109e-14,-146.5 158,-146.5 "/>
<text text-anchor="middle" x="79" y="-134.5" font-family="Helvetica,sans-Serif" font-size="10.00"> </text>
</a>
</g>
</g>
<!-- Node2&#45;&gt;Node1 -->
<g id="edge1" class="edge"><title>Node2&#45;&gt;Node1</title>
<path fill="none" stroke="midnightblue" d="M79,-117.214C79,-108.609 79,-99.3943 79,-90.5541"/>
<polygon fill="none" stroke="midnightblue" points="75.5001,-117.34 79,-127.34 82.5001,-117.34 75.5001,-117.34"/>
</g>
</g>
</svg>
