<?xml version="1.0" encoding="UTF-8" standalone="no"?>
<!DOCTYPE svg PUBLIC "-//W3C//DTD SVG 1.1//EN"
 "http://www.w3.org/Graphics/SVG/1.1/DTD/svg11.dtd">
<!-- Generated by graphviz version 2.43.0 (0)
 -->
<!-- Title: ButtonMatrix.ipp Pages: 1 -->
<svg width="1409pt" height="789pt"
 viewBox="0.00 0.00 1408.50 789.00" xmlns="http://www.w3.org/2000/svg" xmlns:xlink="http://www.w3.org/1999/xlink">
<g id="graph0" class="graph" transform="scale(1 1) rotate(0) translate(4 785)">
<title>ButtonMatrix.ipp</title>
<polygon fill="white" stroke="transparent" points="-4,4 -4,-785 1404.5,-785 1404.5,4 -4,4"/>
<!-- Node1 -->
<g id="node1" class="node">
<title>Node1</title>
<g id="a_node1"><a xlink:title=" ">
<polygon fill="#bfbfbf" stroke="black" points="998,-761.5 998,-780.5 1096,-780.5 1096,-761.5 998,-761.5"/>
<text text-anchor="middle" x="1047" y="-768.5" font-family="Helvetica,sans-Serif" font-size="10.00">ButtonMatrix.ipp</text>
</a>
</g>
</g>
<!-- Node2 -->
<g id="node2" class="node">
<title>Node2</title>
<g id="a_node2"><a xlink:href="../../d9/d4b/ButtonMatrix_8hpp.html" target="_top" xlink:title=" ">
<polygon fill="white" stroke="black" points="822.5,-633 822.5,-652 923.5,-652 923.5,-633 822.5,-633"/>
<text text-anchor="middle" x="873" y="-640" font-family="Helvetica,sans-Serif" font-size="10.00">ButtonMatrix.hpp</text>
</a>
</g>
</g>
<!-- Node1&#45;&gt;Node2 -->
<g id="edge1" class="edge">
<title>Node1&#45;&gt;Node2</title>
<path fill="none" stroke="midnightblue" d="M1014.87,-761.46C992.62,-753.76 963.45,-741.16 941,-725 915.41,-706.57 891.37,-678.83 879.45,-660.94"/>
<polygon fill="midnightblue" stroke="midnightblue" points="882.3,-658.89 874.14,-652.14 876.31,-662.51 882.3,-658.89"/>
</g>
<!-- Node24 -->
<g id="node24" class="node">
<title>Node24</title>
<g id="a_node24"><a xlink:href="../../d4/dba/CRTP_8hpp.html" target="_top" xlink:title=" ">
<polygon fill="white" stroke="black" points="1154,-700 1154,-719 1288,-719 1288,-700 1154,-700"/>
<text text-anchor="middle" x="1221" y="-707" font-family="Helvetica,sans-Serif" font-size="10.00">AH/Containers/CRTP.hpp</text>
</a>
</g>
</g>
<!-- Node1&#45;&gt;Node24 -->
<g id="edge44" class="edge">
<title>Node1&#45;&gt;Node24</title>
<path fill="none" stroke="midnightblue" d="M1071.93,-761.48C1102.04,-751.18 1152.83,-733.81 1186.64,-722.25"/>
<polygon fill="midnightblue" stroke="midnightblue" points="1187.79,-725.56 1196.12,-719.01 1185.52,-718.93 1187.79,-725.56"/>
</g>
<!-- Node25 -->
<g id="node25" class="node">
<title>Node25</title>
<g id="a_node25"><a xlink:href="../../dd/ddf/ExtendedInputOutput_8hpp.html" target="_top" xlink:title=" ">
<polygon fill="white" stroke="black" points="958.5,-694.5 958.5,-724.5 1135.5,-724.5 1135.5,-694.5 958.5,-694.5"/>
<text text-anchor="start" x="966.5" y="-712.5" font-family="Helvetica,sans-Serif" font-size="10.00">AH/Hardware/ExtendedInput</text>
<text text-anchor="middle" x="1047" y="-701.5" font-family="Helvetica,sans-Serif" font-size="10.00">Output/ExtendedInputOutput.hpp</text>
</a>
</g>
</g>
<!-- Node1&#45;&gt;Node25 -->
<g id="edge45" class="edge">
<title>Node1&#45;&gt;Node25</title>
<path fill="none" stroke="midnightblue" d="M1047,-761.48C1047,-754.47 1047,-744.19 1047,-734.7"/>
<polygon fill="midnightblue" stroke="midnightblue" points="1050.5,-734.52 1047,-724.52 1043.5,-734.52 1050.5,-734.52"/>
</g>
<!-- Node31 -->
<g id="node31" class="node">
<title>Node31</title>
<g id="a_node31"><a xlink:title=" ">
<polygon fill="white" stroke="#bfbfbf" points="1306.5,-700 1306.5,-719 1359.5,-719 1359.5,-700 1306.5,-700"/>
<text text-anchor="middle" x="1333" y="-707" font-family="Helvetica,sans-Serif" font-size="10.00">string.h</text>
</a>
</g>
</g>
<!-- Node1&#45;&gt;Node31 -->
<g id="edge58" class="edge">
<title>Node1&#45;&gt;Node31</title>
<path fill="none" stroke="midnightblue" d="M1096.07,-764.19C1146.98,-757.47 1228.56,-744.72 1297,-725 1299.44,-724.3 1301.93,-723.49 1304.42,-722.62"/>
<polygon fill="midnightblue" stroke="midnightblue" points="1305.71,-725.88 1313.82,-719.07 1303.23,-719.33 1305.71,-725.88"/>
</g>
<!-- Node2&#45;&gt;Node1 -->
<g id="edge43" class="edge">
<title>Node2&#45;&gt;Node1</title>
<path fill="none" stroke="midnightblue" d="M884.55,-652.14C900.52,-668.24 928.67,-703.16 959,-725 977.94,-738.64 1001.67,-749.73 1019.85,-757.49"/>
<polygon fill="midnightblue" stroke="midnightblue" points="1018.74,-760.82 1029.32,-761.46 1021.45,-754.37 1018.74,-760.82"/>
</g>
<!-- Node3 -->
<g id="node3" class="node">
<title>Node3</title>
<g id="a_node3"><a xlink:href="../../d1/d65/Warnings_8hpp.html" target="_top" xlink:title=" ">
<polygon fill="white" stroke="black" points="472.5,-0.5 472.5,-19.5 615.5,-19.5 615.5,-0.5 472.5,-0.5"/>
<text text-anchor="middle" x="544" y="-7.5" font-family="Helvetica,sans-Serif" font-size="10.00">AH/Settings/Warnings.hpp</text>
</a>
</g>
</g>
<!-- Node2&#45;&gt;Node3 -->
<g id="edge2" class="edge">
<title>Node2&#45;&gt;Node3</title>
<path fill="none" stroke="midnightblue" d="M822.37,-641.4C675.13,-640.58 249.27,-634.43 118,-591 58.78,-571.41 0,-577.38 0,-515 0,-515 0,-515 0,-121 0,-27.87 310.18,-12.66 462.11,-10.8"/>
<polygon fill="midnightblue" stroke="midnightblue" points="462.36,-14.3 472.32,-10.7 462.29,-7.3 462.36,-14.3"/>
</g>
<!-- Node4 -->
<g id="node4" class="node">
<title>Node4</title>
<g id="a_node4"><a xlink:href="../../d4/d35/Hardware-Types_8hpp.html" target="_top" xlink:title=" ">
<polygon fill="white" stroke="black" points="833.5,-560.5 833.5,-590.5 964.5,-590.5 964.5,-560.5 833.5,-560.5"/>
<text text-anchor="start" x="841.5" y="-578.5" font-family="Helvetica,sans-Serif" font-size="10.00">AH/Hardware/Hardware</text>
<text text-anchor="middle" x="899" y="-567.5" font-family="Helvetica,sans-Serif" font-size="10.00">&#45;Types.hpp</text>
</a>
</g>
</g>
<!-- Node2&#45;&gt;Node4 -->
<g id="edge3" class="edge">
<title>Node2&#45;&gt;Node4</title>
<path fill="none" stroke="midnightblue" d="M876.51,-632.73C879.85,-624.37 885.04,-611.4 889.59,-600.02"/>
<polygon fill="midnightblue" stroke="midnightblue" points="892.9,-601.17 893.36,-590.59 886.4,-598.57 892.9,-601.17"/>
</g>
<!-- Node4&#45;&gt;Node3 -->
<g id="edge4" class="edge">
<title>Node4&#45;&gt;Node3</title>
<path fill="none" stroke="midnightblue" d="M913.65,-560.32C933.09,-539.89 965,-500.11 965,-459 965,-459 965,-459 965,-121 965,-51.65 748.48,-25.2 625.99,-15.78"/>
<polygon fill="midnightblue" stroke="midnightblue" points="626.13,-12.28 615.89,-15.02 625.61,-19.26 626.13,-12.28"/>
</g>
<!-- Node5 -->
<g id="node5" class="node">
<title>Node5</title>
<g id="a_node5"><a xlink:href="../../de/d76/Array_8hpp.html" target="_top" xlink:title=" ">
<polygon fill="white" stroke="black" points="164.5,-504.5 164.5,-523.5 299.5,-523.5 299.5,-504.5 164.5,-504.5"/>
<text text-anchor="middle" x="232" y="-511.5" font-family="Helvetica,sans-Serif" font-size="10.00">AH/Containers/Array.hpp</text>
</a>
</g>
</g>
<!-- Node4&#45;&gt;Node5 -->
<g id="edge5" class="edge">
<title>Node4&#45;&gt;Node5</title>
<path fill="none" stroke="midnightblue" d="M833.22,-568.63C709.42,-557.59 442.36,-533.76 309.84,-521.94"/>
<polygon fill="midnightblue" stroke="midnightblue" points="310.03,-518.45 299.76,-521.04 309.41,-525.42 310.03,-518.45"/>
</g>
<!-- Node9 -->
<g id="node9" class="node">
<title>Node9</title>
<g id="a_node9"><a xlink:href="../../dc/dc7/NamespaceSettings_8hpp.html" target="_top" xlink:title=" ">
<polygon fill="white" stroke="black" points="590.5,-56.5 590.5,-75.5 785.5,-75.5 785.5,-56.5 590.5,-56.5"/>
<text text-anchor="middle" x="688" y="-63.5" font-family="Helvetica,sans-Serif" font-size="10.00">AH/Settings/NamespaceSettings.hpp</text>
</a>
</g>
</g>
<!-- Node4&#45;&gt;Node9 -->
<g id="edge41" class="edge">
<title>Node4&#45;&gt;Node9</title>
<path fill="none" stroke="midnightblue" d="M904.8,-560.18C913,-538.62 927,-496.35 927,-459 927,-459 927,-459 927,-233 927,-141.99 808.66,-96.87 738.52,-78.12"/>
<polygon fill="midnightblue" stroke="midnightblue" points="739.1,-74.65 728.54,-75.54 737.35,-81.43 739.1,-74.65"/>
</g>
<!-- Node21 -->
<g id="node21" class="node">
<title>Node21</title>
<g id="a_node21"><a xlink:title=" ">
<polygon fill="white" stroke="#bfbfbf" points="731.5,-224.5 731.5,-243.5 784.5,-243.5 784.5,-224.5 731.5,-224.5"/>
<text text-anchor="middle" x="758" y="-231.5" font-family="Helvetica,sans-Serif" font-size="10.00">stdint.h</text>
</a>
</g>
</g>
<!-- Node4&#45;&gt;Node21 -->
<g id="edge42" class="edge">
<title>Node4&#45;&gt;Node21</title>
<path fill="none" stroke="midnightblue" d="M896.98,-560.31C894.05,-538.55 889,-495.63 889,-459 889,-459 889,-459 889,-401 889,-332.13 818.65,-275.05 781.06,-249.47"/>
<polygon fill="midnightblue" stroke="midnightblue" points="782.54,-246.25 772.27,-243.65 778.68,-252.09 782.54,-246.25"/>
</g>
<!-- Node5&#45;&gt;Node3 -->
<g id="edge6" class="edge">
<title>Node5&#45;&gt;Node3</title>
<path fill="none" stroke="midnightblue" d="M195.42,-504.46C149.32,-491.27 76,-461.16 76,-403 76,-403 76,-403 76,-345 76,-241.1 -11.52,-190.11 57,-112 97.5,-65.83 272.28,-93.98 331,-76 350.01,-70.18 352.39,-62.98 371,-56 410.27,-41.26 456.3,-29.54 491,-21.76"/>
<polygon fill="midnightblue" stroke="midnightblue" points="491.91,-25.14 500.93,-19.57 490.41,-18.31 491.91,-25.14"/>
</g>
<!-- Node6 -->
<g id="node6" class="node">
<title>Node6</title>
<g id="a_node6"><a xlink:href="../../d1/d93/Error_8hpp.html" target="_top" xlink:title=" ">
<polygon fill="white" stroke="black" points="427,-448.5 427,-467.5 531,-467.5 531,-448.5 427,-448.5"/>
<text text-anchor="middle" x="479" y="-455.5" font-family="Helvetica,sans-Serif" font-size="10.00">AH/Error/Error.hpp</text>
</a>
</g>
</g>
<!-- Node5&#45;&gt;Node6 -->
<g id="edge7" class="edge">
<title>Node5&#45;&gt;Node6</title>
<path fill="none" stroke="midnightblue" d="M271.14,-504.44C314.23,-495.02 383.56,-479.87 430.17,-469.68"/>
<polygon fill="midnightblue" stroke="midnightblue" points="431.02,-473.07 440.05,-467.52 429.53,-466.23 431.02,-473.07"/>
</g>
<!-- Node14 -->
<g id="node14" class="node">
<title>Node14</title>
<g id="a_node14"><a xlink:title=" ">
<polygon fill="white" stroke="#bfbfbf" points="66.5,-112.5 66.5,-131.5 173.5,-131.5 173.5,-112.5 66.5,-112.5"/>
<text text-anchor="middle" x="120" y="-119.5" font-family="Helvetica,sans-Serif" font-size="10.00">AH/STL/type_traits</text>
</a>
</g>
</g>
<!-- Node5&#45;&gt;Node14 -->
<g id="edge39" class="edge">
<title>Node5&#45;&gt;Node14</title>
<path fill="none" stroke="midnightblue" d="M202.42,-504.45C182.77,-497.44 157.63,-485.75 141,-468 119.62,-445.17 114,-434.28 114,-403 114,-403 114,-403 114,-345 114,-269.88 117.48,-180.51 119.14,-142.09"/>
<polygon fill="midnightblue" stroke="midnightblue" points="122.64,-142.02 119.59,-131.88 115.65,-141.72 122.64,-142.02"/>
</g>
<!-- Node20 -->
<g id="node20" class="node">
<title>Node20</title>
<g id="a_node20"><a xlink:title=" ">
<polygon fill="white" stroke="#bfbfbf" points="372,-224.5 372,-243.5 428,-243.5 428,-224.5 372,-224.5"/>
<text text-anchor="middle" x="400" y="-231.5" font-family="Helvetica,sans-Serif" font-size="10.00">stddef.h</text>
</a>
</g>
</g>
<!-- Node5&#45;&gt;Node20 -->
<g id="edge40" class="edge">
<title>Node5&#45;&gt;Node20</title>
<path fill="none" stroke="midnightblue" d="M236.23,-504.21C251.54,-472.74 306.13,-363.1 363,-280 369.78,-270.09 378.23,-259.69 385.35,-251.39"/>
<polygon fill="midnightblue" stroke="midnightblue" points="388.2,-253.44 392.15,-243.6 382.93,-248.83 388.2,-253.44"/>
</g>
<!-- Node23 -->
<g id="node23" class="node">
<title>Node23</title>
<g id="a_node23"><a xlink:title=" ">
<polygon fill="white" stroke="#bfbfbf" points="150,-448.5 150,-467.5 240,-467.5 240,-448.5 150,-448.5"/>
<text text-anchor="middle" x="195" y="-455.5" font-family="Helvetica,sans-Serif" font-size="10.00">AH/STL/iterator</text>
</a>
</g>
</g>
<!-- Node5&#45;&gt;Node23 -->
<g id="edge38" class="edge">
<title>Node5&#45;&gt;Node23</title>
<path fill="none" stroke="midnightblue" d="M225.89,-504.08C220.72,-496.53 213.15,-485.49 206.81,-476.23"/>
<polygon fill="midnightblue" stroke="midnightblue" points="209.54,-474.02 201,-467.75 203.76,-477.98 209.54,-474.02"/>
</g>
<!-- Node6&#45;&gt;Node3 -->
<g id="edge8" class="edge">
<title>Node6&#45;&gt;Node3</title>
<path fill="none" stroke="midnightblue" d="M523.01,-448.44C606.57,-429.33 784,-374.22 830,-244 857.91,-165 879.44,-110.73 816,-56 788.07,-31.9 695.13,-20.51 625.62,-15.26"/>
<polygon fill="midnightblue" stroke="midnightblue" points="625.77,-11.76 615.54,-14.52 625.26,-18.74 625.77,-11.76"/>
</g>
<!-- Node7 -->
<g id="node7" class="node">
<title>Node7</title>
<g id="a_node7"><a xlink:href="../../df/dee/Debug_8hpp.html" target="_top" xlink:title=" ">
<polygon fill="white" stroke="black" points="418.5,-392.5 418.5,-411.5 539.5,-411.5 539.5,-392.5 418.5,-392.5"/>
<text text-anchor="middle" x="479" y="-399.5" font-family="Helvetica,sans-Serif" font-size="10.00">AH/Debug/Debug.hpp</text>
</a>
</g>
</g>
<!-- Node6&#45;&gt;Node7 -->
<g id="edge9" class="edge">
<title>Node6&#45;&gt;Node7</title>
<path fill="none" stroke="midnightblue" d="M479,-448.08C479,-441.01 479,-430.86 479,-421.99"/>
<polygon fill="midnightblue" stroke="midnightblue" points="482.5,-421.75 479,-411.75 475.5,-421.75 482.5,-421.75"/>
</g>
<!-- Node7&#45;&gt;Node3 -->
<g id="edge10" class="edge">
<title>Node7&#45;&gt;Node3</title>
<path fill="none" stroke="midnightblue" d="M461.9,-392.38C434.93,-377.68 383.47,-344.96 363,-300 349,-269.26 351.35,-255.7 363,-224 380.22,-177.14 486.67,-68.03 527.8,-26.99"/>
<polygon fill="midnightblue" stroke="midnightblue" points="530.27,-29.47 534.9,-19.94 525.34,-24.5 530.27,-29.47"/>
</g>
<!-- Node8 -->
<g id="node8" class="node">
<title>Node8</title>
<g id="a_node8"><a xlink:href="../../dd/d80/PrintStream_8hpp.html" target="_top" xlink:title=" ">
<polygon fill="white" stroke="black" points="142.5,-224.5 142.5,-243.5 315.5,-243.5 315.5,-224.5 142.5,-224.5"/>
<text text-anchor="middle" x="229" y="-231.5" font-family="Helvetica,sans-Serif" font-size="10.00">AH/PrintStream/PrintStream.hpp</text>
</a>
</g>
</g>
<!-- Node7&#45;&gt;Node8 -->
<g id="edge11" class="edge">
<title>Node7&#45;&gt;Node8</title>
<path fill="none" stroke="midnightblue" d="M424.37,-392.42C394.65,-385.89 358.29,-374.71 330,-356 288.51,-328.56 255.02,-279.08 239.08,-252.7"/>
<polygon fill="midnightblue" stroke="midnightblue" points="241.94,-250.65 233.86,-243.81 235.91,-254.2 241.94,-250.65"/>
</g>
<!-- Node15 -->
<g id="node15" class="node">
<title>Node15</title>
<g id="a_node15"><a xlink:href="../../d2/dd5/SettingsWrapper_8hpp.html" target="_top" xlink:title=" ">
<polygon fill="white" stroke="black" points="452,-336.5 452,-355.5 630,-355.5 630,-336.5 452,-336.5"/>
<text text-anchor="middle" x="541" y="-343.5" font-family="Helvetica,sans-Serif" font-size="10.00">AH/Settings/SettingsWrapper.hpp</text>
</a>
</g>
</g>
<!-- Node7&#45;&gt;Node15 -->
<g id="edge23" class="edge">
<title>Node7&#45;&gt;Node15</title>
<path fill="none" stroke="midnightblue" d="M484.07,-392.08C491.74,-383.9 505.51,-371.63 517.72,-361.95"/>
<polygon fill="midnightblue" stroke="midnightblue" points="520.01,-364.61 525.82,-355.75 515.75,-359.05 520.01,-364.61"/>
</g>
<!-- Node8&#45;&gt;Node3 -->
<g id="edge13" class="edge">
<title>Node8&#45;&gt;Node3</title>
<path fill="none" stroke="midnightblue" d="M243.12,-224.34C270.29,-207.49 331.47,-168.75 380,-132 421.47,-100.6 426.77,-86.37 469,-56 484.98,-44.51 504,-33.12 518.89,-24.67"/>
<polygon fill="midnightblue" stroke="midnightblue" points="520.98,-27.51 528,-19.58 517.57,-21.4 520.98,-27.51"/>
</g>
<!-- Node8&#45;&gt;Node9 -->
<g id="edge12" class="edge">
<title>Node8&#45;&gt;Node9</title>
<path fill="none" stroke="midnightblue" d="M277.07,-224.44C316.35,-216.81 373.03,-204.32 421,-188 512.99,-156.71 616.27,-104.79 662.84,-80.42"/>
<polygon fill="midnightblue" stroke="midnightblue" points="664.68,-83.41 671.89,-75.65 661.41,-77.21 664.68,-83.41"/>
</g>
<!-- Node10 -->
<g id="node10" class="node">
<title>Node10</title>
<g id="a_node10"><a xlink:href="../../d6/ddf/Arduino-Wrapper_8h.html" target="_top" xlink:title=" ">
<polygon fill="white" stroke="black" points="153,-168.5 153,-187.5 277,-187.5 277,-168.5 153,-168.5"/>
<text text-anchor="middle" x="215" y="-175.5" font-family="Helvetica,sans-Serif" font-size="10.00">AH/Arduino&#45;Wrapper.h</text>
</a>
</g>
</g>
<!-- Node8&#45;&gt;Node10 -->
<g id="edge14" class="edge">
<title>Node8&#45;&gt;Node10</title>
<path fill="none" stroke="midnightblue" d="M226.69,-224.08C224.83,-216.93 222.16,-206.64 219.85,-197.69"/>
<polygon fill="midnightblue" stroke="midnightblue" points="223.17,-196.55 217.27,-187.75 216.39,-198.31 223.17,-196.55"/>
</g>
<!-- Node11 -->
<g id="node11" class="node">
<title>Node11</title>
<g id="a_node11"><a xlink:href="../../d7/d79/MinMaxFix_8hpp.html" target="_top" xlink:title=" ">
<polygon fill="white" stroke="black" points="235,-112.5 235,-131.5 371,-131.5 371,-112.5 235,-112.5"/>
<text text-anchor="middle" x="303" y="-119.5" font-family="Helvetica,sans-Serif" font-size="10.00">AH/Math/MinMaxFix.hpp</text>
</a>
</g>
</g>
<!-- Node10&#45;&gt;Node11 -->
<g id="edge15" class="edge">
<title>Node10&#45;&gt;Node11</title>
<path fill="none" stroke="midnightblue" d="M229.14,-168.32C242.87,-159.9 263.94,-146.97 280.06,-137.07"/>
<polygon fill="midnightblue" stroke="midnightblue" points="282.2,-139.87 288.9,-131.65 278.54,-133.9 282.2,-139.87"/>
</g>
<!-- Node13 -->
<g id="node13" class="node">
<title>Node13</title>
<g id="a_node13"><a xlink:title=" ">
<polygon fill="white" stroke="#bfbfbf" points="149.5,-0.5 149.5,-19.5 212.5,-19.5 212.5,-0.5 149.5,-0.5"/>
<text text-anchor="middle" x="181" y="-7.5" font-family="Helvetica,sans-Serif" font-size="10.00">Arduino.h</text>
</a>
</g>
</g>
<!-- Node10&#45;&gt;Node13 -->
<g id="edge22" class="edge">
<title>Node10&#45;&gt;Node13</title>
<path fill="none" stroke="midnightblue" d="M211.81,-168.45C206.71,-155.47 195.9,-130.37 182,-112 167.77,-93.19 152.46,-97.61 143,-76 135.29,-58.38 148.99,-39.55 162.04,-26.71"/>
<polygon fill="midnightblue" stroke="midnightblue" points="164.47,-29.23 169.48,-19.9 159.74,-24.07 164.47,-29.23"/>
</g>
<!-- Node10&#45;&gt;Node14 -->
<g id="edge21" class="edge">
<title>Node10&#45;&gt;Node14</title>
<path fill="none" stroke="midnightblue" d="M199.74,-168.32C184.78,-159.82 161.75,-146.73 144.27,-136.8"/>
<polygon fill="midnightblue" stroke="midnightblue" points="145.65,-133.55 135.23,-131.65 142.19,-139.64 145.65,-133.55"/>
</g>
<!-- Node11&#45;&gt;Node3 -->
<g id="edge16" class="edge">
<title>Node11&#45;&gt;Node3</title>
<path fill="none" stroke="midnightblue" d="M315.61,-112.29C335.43,-98.87 375.4,-72.92 412,-56 441.72,-42.26 476.87,-30.48 503.42,-22.42"/>
<polygon fill="midnightblue" stroke="midnightblue" points="504.57,-25.73 513.15,-19.52 502.57,-19.02 504.57,-25.73"/>
</g>
<!-- Node11&#45;&gt;Node9 -->
<g id="edge20" class="edge">
<title>Node11&#45;&gt;Node9</title>
<path fill="none" stroke="midnightblue" d="M364,-112.44C432.86,-102.79 544.7,-87.1 617.3,-76.92"/>
<polygon fill="midnightblue" stroke="midnightblue" points="617.86,-80.37 627.28,-75.52 616.89,-73.44 617.86,-80.37"/>
</g>
<!-- Node12 -->
<g id="node12" class="node">
<title>Node12</title>
<g id="a_node12"><a xlink:href="../../d6/d3b/FixArduinoMacros_8hpp.html" target="_top" xlink:title=" ">
<polygon fill="white" stroke="black" points="152,-56.5 152,-75.5 322,-75.5 322,-56.5 152,-56.5"/>
<text text-anchor="middle" x="237" y="-63.5" font-family="Helvetica,sans-Serif" font-size="10.00">AH/Math/FixArduinoMacros.hpp</text>
</a>
</g>
</g>
<!-- Node11&#45;&gt;Node12 -->
<g id="edge17" class="edge">
<title>Node11&#45;&gt;Node12</title>
<path fill="none" stroke="midnightblue" d="M292.4,-112.32C282.54,-104.26 267.65,-92.08 255.78,-82.37"/>
<polygon fill="midnightblue" stroke="midnightblue" points="257.75,-79.46 247.8,-75.83 253.32,-84.88 257.75,-79.46"/>
</g>
<!-- Node12&#45;&gt;Node3 -->
<g id="edge18" class="edge">
<title>Node12&#45;&gt;Node3</title>
<path fill="none" stroke="midnightblue" d="M285.65,-56.44C339.87,-46.9 427.55,-31.48 485.48,-21.29"/>
<polygon fill="midnightblue" stroke="midnightblue" points="486.34,-24.7 495.58,-19.52 485.13,-17.8 486.34,-24.7"/>
</g>
<!-- Node12&#45;&gt;Node13 -->
<g id="edge19" class="edge">
<title>Node12&#45;&gt;Node13</title>
<path fill="none" stroke="midnightblue" d="M228,-56.32C219.81,-48.42 207.49,-36.55 197.53,-26.94"/>
<polygon fill="midnightblue" stroke="midnightblue" points="199.79,-24.26 190.16,-19.83 194.93,-29.29 199.79,-24.26"/>
</g>
<!-- Node15&#45;&gt;Node3 -->
<g id="edge24" class="edge">
<title>Node15&#45;&gt;Node3</title>
<path fill="none" stroke="midnightblue" d="M630.01,-338.29C670.9,-332.33 718.89,-321.11 758,-300 788.97,-283.28 799.95,-276.27 814,-244 823.94,-221.16 815.56,-212.9 816,-188 817.06,-128.53 836.39,-97.72 794,-56 770.51,-32.88 689.19,-21.41 625.6,-15.88"/>
<polygon fill="midnightblue" stroke="midnightblue" points="625.82,-12.38 615.56,-15.04 625.23,-19.36 625.82,-12.38"/>
</g>
<!-- Node15&#45;&gt;Node7 -->
<g id="edge37" class="edge">
<title>Node15&#45;&gt;Node7</title>
<path fill="none" stroke="midnightblue" d="M536.01,-355.83C528.34,-364.03 514.48,-376.38 502.21,-386.1"/>
<polygon fill="midnightblue" stroke="midnightblue" points="499.89,-383.47 494.08,-392.32 504.15,-389.03 499.89,-383.47"/>
</g>
<!-- Node15&#45;&gt;Node9 -->
<g id="edge25" class="edge">
<title>Node15&#45;&gt;Node9</title>
<path fill="none" stroke="midnightblue" d="M620.14,-336.48C678.68,-325.58 754.64,-300.7 793,-244 815.93,-210.1 839.13,-220.76 756,-112 745.73,-98.57 730.24,-87.87 716.64,-80.29"/>
<polygon fill="midnightblue" stroke="midnightblue" points="718.09,-77.09 707.61,-75.54 714.83,-83.29 718.09,-77.09"/>
</g>
<!-- Node16 -->
<g id="node16" class="node">
<title>Node16</title>
<g id="a_node16"><a xlink:href="../../db/d02/Settings_8hpp.html" target="_top" xlink:title="All user settings and debugging options can be changed here.">
<polygon fill="white" stroke="black" points="563.5,-280.5 563.5,-299.5 640.5,-299.5 640.5,-280.5 563.5,-280.5"/>
<text text-anchor="middle" x="602" y="-287.5" font-family="Helvetica,sans-Serif" font-size="10.00">Settings.hpp</text>
</a>
</g>
</g>
<!-- Node15&#45;&gt;Node16 -->
<g id="edge26" class="edge">
<title>Node15&#45;&gt;Node16</title>
<path fill="none" stroke="midnightblue" d="M550.8,-336.32C559.82,-328.34 573.41,-316.31 584.32,-306.65"/>
<polygon fill="midnightblue" stroke="midnightblue" points="586.85,-309.08 592.02,-299.83 582.21,-303.84 586.85,-309.08"/>
</g>
<!-- Node22 -->
<g id="node22" class="node">
<title>Node22</title>
<g id="a_node22"><a xlink:href="../../d9/d98/TeensyUSBTypes_8hpp.html" target="_top" xlink:title=" ">
<polygon fill="white" stroke="black" points="372.5,-280.5 372.5,-299.5 545.5,-299.5 545.5,-280.5 372.5,-280.5"/>
<text text-anchor="middle" x="459" y="-287.5" font-family="Helvetica,sans-Serif" font-size="10.00">AH/Teensy/TeensyUSBTypes.hpp</text>
</a>
</g>
</g>
<!-- Node15&#45;&gt;Node22 -->
<g id="edge36" class="edge">
<title>Node15&#45;&gt;Node22</title>
<path fill="none" stroke="midnightblue" d="M527.83,-336.32C515.15,-327.98 495.77,-315.21 480.79,-305.35"/>
<polygon fill="midnightblue" stroke="midnightblue" points="482.42,-302.23 472.14,-299.65 478.57,-308.08 482.42,-302.23"/>
</g>
<!-- Node17 -->
<g id="node17" class="node">
<title>Node17</title>
<g id="a_node17"><a xlink:href="../../dc/d50/Frequency_8hpp.html" target="_top" xlink:title=" ">
<polygon fill="white" stroke="black" points="613,-112.5 613,-131.5 747,-131.5 747,-112.5 613,-112.5"/>
<text text-anchor="middle" x="680" y="-119.5" font-family="Helvetica,sans-Serif" font-size="10.00">AH/Types/Frequency.hpp</text>
</a>
</g>
</g>
<!-- Node16&#45;&gt;Node17 -->
<g id="edge27" class="edge">
<title>Node16&#45;&gt;Node17</title>
<path fill="none" stroke="midnightblue" d="M633.02,-280.44C651.03,-273.69 672.23,-262.3 683,-244 701.84,-211.97 693.22,-166.46 686.09,-141.37"/>
<polygon fill="midnightblue" stroke="midnightblue" points="689.4,-140.22 683.11,-131.68 682.71,-142.27 689.4,-140.22"/>
</g>
<!-- Node18 -->
<g id="node18" class="node">
<title>Node18</title>
<g id="a_node18"><a xlink:href="../../d7/d7c/ADCConfig_8hpp.html" target="_top" xlink:title="This file contains the platform&#45;specific ADC resolutions.">
<polygon fill="white" stroke="black" points="517.5,-224.5 517.5,-243.5 674.5,-243.5 674.5,-224.5 517.5,-224.5"/>
<text text-anchor="middle" x="596" y="-231.5" font-family="Helvetica,sans-Serif" font-size="10.00">AH/Hardware/ADCConfig.hpp</text>
</a>
</g>
</g>
<!-- Node16&#45;&gt;Node18 -->
<g id="edge30" class="edge">
<title>Node16&#45;&gt;Node18</title>
<path fill="none" stroke="midnightblue" d="M601.01,-280.08C600.21,-272.93 599.07,-262.64 598.08,-253.69"/>
<polygon fill="midnightblue" stroke="midnightblue" points="601.56,-253.3 596.97,-243.75 594.6,-254.08 601.56,-253.3"/>
</g>
<!-- Node19 -->
<g id="node19" class="node">
<title>Node19</title>
<g id="a_node19"><a xlink:title=" ">
<polygon fill="white" stroke="#bfbfbf" points="446.5,-224.5 446.5,-243.5 499.5,-243.5 499.5,-224.5 446.5,-224.5"/>
<text text-anchor="middle" x="473" y="-231.5" font-family="Helvetica,sans-Serif" font-size="10.00">limits.h</text>
</a>
</g>
</g>
<!-- Node16&#45;&gt;Node19 -->
<g id="edge33" class="edge">
<title>Node16&#45;&gt;Node19</title>
<path fill="none" stroke="midnightblue" d="M581.56,-280.44C560.33,-271.56 526.9,-257.56 502.75,-247.45"/>
<polygon fill="midnightblue" stroke="midnightblue" points="503.92,-244.15 493.34,-243.52 501.22,-250.61 503.92,-244.15"/>
</g>
<!-- Node16&#45;&gt;Node20 -->
<g id="edge34" class="edge">
<title>Node16&#45;&gt;Node20</title>
<path fill="none" stroke="midnightblue" d="M569.99,-280.44C534.15,-270.86 476.1,-255.34 437.98,-245.15"/>
<polygon fill="midnightblue" stroke="midnightblue" points="438.84,-241.76 428.27,-242.56 437.03,-248.52 438.84,-241.76"/>
</g>
<!-- Node16&#45;&gt;Node21 -->
<g id="edge35" class="edge">
<title>Node16&#45;&gt;Node21</title>
<path fill="none" stroke="midnightblue" d="M626.72,-280.44C652.85,-271.4 694.26,-257.06 723.58,-246.92"/>
<polygon fill="midnightblue" stroke="midnightblue" points="725.09,-250.1 733.4,-243.52 722.8,-243.48 725.09,-250.1"/>
</g>
<!-- Node17&#45;&gt;Node3 -->
<g id="edge28" class="edge">
<title>Node17&#45;&gt;Node3</title>
<path fill="none" stroke="midnightblue" d="M649.01,-112.48C627.9,-105.44 600.38,-93.69 581,-76 566.94,-63.16 556.85,-43.71 550.79,-29.43"/>
<polygon fill="midnightblue" stroke="midnightblue" points="553.88,-27.72 546.95,-19.71 547.37,-30.3 553.88,-27.72"/>
</g>
<!-- Node17&#45;&gt;Node9 -->
<g id="edge29" class="edge">
<title>Node17&#45;&gt;Node9</title>
<path fill="none" stroke="midnightblue" d="M681.32,-112.08C682.38,-104.93 683.91,-94.64 685.23,-85.69"/>
<polygon fill="midnightblue" stroke="midnightblue" points="688.7,-86.16 686.7,-75.75 681.78,-85.13 688.7,-86.16"/>
</g>
<!-- Node18&#45;&gt;Node3 -->
<g id="edge31" class="edge">
<title>Node18&#45;&gt;Node3</title>
<path fill="none" stroke="midnightblue" d="M593.96,-224.3C586.29,-191.56 559.08,-75.38 548.37,-29.67"/>
<polygon fill="midnightblue" stroke="midnightblue" points="551.77,-28.82 546.08,-19.88 544.95,-30.42 551.77,-28.82"/>
</g>
<!-- Node18&#45;&gt;Node10 -->
<g id="edge32" class="edge">
<title>Node18&#45;&gt;Node10</title>
<path fill="none" stroke="midnightblue" d="M535.63,-224.44C467.63,-214.81 357.26,-199.16 285.4,-188.98"/>
<polygon fill="midnightblue" stroke="midnightblue" points="285.48,-185.45 275.09,-187.52 284.5,-192.39 285.48,-185.45"/>
</g>
<!-- Node25&#45;&gt;Node3 -->
<g id="edge57" class="edge">
<title>Node25&#45;&gt;Node3</title>
<path fill="none" stroke="midnightblue" d="M1135.62,-695.8C1203.29,-680.51 1285,-647.37 1285,-576.5 1285,-576.5 1285,-576.5 1285,-121 1285,-90.9 1289.51,-74.79 1266,-56 1216.98,-16.82 804.4,-11.39 625.84,-10.89"/>
<polygon fill="midnightblue" stroke="midnightblue" points="625.72,-7.39 615.71,-10.87 625.7,-14.39 625.72,-7.39"/>
</g>
<!-- Node25&#45;&gt;Node9 -->
<g id="edge56" class="edge">
<title>Node25&#45;&gt;Node9</title>
<path fill="none" stroke="midnightblue" d="M1055.49,-694.34C1061.12,-684.45 1068.3,-670.77 1073,-658 1085.83,-623.09 1092,-613.69 1092,-576.5 1092,-576.5 1092,-576.5 1092,-289 1092,-147.86 900.27,-95.82 780.97,-77.11"/>
<polygon fill="midnightblue" stroke="midnightblue" points="781.14,-73.59 770.73,-75.56 780.09,-80.52 781.14,-73.59"/>
</g>
<!-- Node26 -->
<g id="node26" class="node">
<title>Node26</title>
<g id="a_node26"><a xlink:href="../../d2/d3c/Arduino-Hardware-Types_8hpp.html" target="_top" xlink:title=" ">
<polygon fill="white" stroke="black" points="942,-627.5 942,-657.5 1064,-657.5 1064,-627.5 942,-627.5"/>
<text text-anchor="start" x="950" y="-645.5" font-family="Helvetica,sans-Serif" font-size="10.00">AH/Hardware/Arduino</text>
<text text-anchor="middle" x="1003" y="-634.5" font-family="Helvetica,sans-Serif" font-size="10.00">&#45;Hardware&#45;Types.hpp</text>
</a>
</g>
</g>
<!-- Node25&#45;&gt;Node26 -->
<g id="edge46" class="edge">
<title>Node25&#45;&gt;Node26</title>
<path fill="none" stroke="midnightblue" d="M1037.45,-694.4C1031.86,-686.13 1024.67,-675.51 1018.3,-666.1"/>
<polygon fill="midnightblue" stroke="midnightblue" points="1021.03,-663.9 1012.53,-657.58 1015.24,-667.82 1021.03,-663.9"/>
</g>
<!-- Node30 -->
<g id="node30" class="node">
<title>Node30</title>
<g id="a_node30"><a xlink:title=" ">
<polygon fill="white" stroke="#bfbfbf" points="1313.5,-633 1313.5,-652 1400.5,-652 1400.5,-633 1313.5,-633"/>
<text text-anchor="middle" x="1357" y="-640" font-family="Helvetica,sans-Serif" font-size="10.00">AH/STL/climits</text>
</a>
</g>
</g>
<!-- Node25&#45;&gt;Node30 -->
<g id="edge55" class="edge">
<title>Node25&#45;&gt;Node30</title>
<path fill="none" stroke="midnightblue" d="M1121.9,-694.45C1172.13,-684.79 1239.69,-671.35 1299,-658 1303.94,-656.89 1309.1,-655.68 1314.21,-654.44"/>
<polygon fill="midnightblue" stroke="midnightblue" points="1315.06,-657.83 1323.94,-652.05 1313.39,-651.04 1315.06,-657.83"/>
</g>
<!-- Node26&#45;&gt;Node3 -->
<g id="edge47" class="edge">
<title>Node26&#45;&gt;Node3</title>
<path fill="none" stroke="midnightblue" d="M1003,-627.46C1003,-604.12 1003,-555.85 1003,-515 1003,-515 1003,-515 1003,-121 1003,-44.33 757.76,-20.97 625.8,-13.95"/>
<polygon fill="midnightblue" stroke="midnightblue" points="625.88,-10.45 615.72,-13.44 625.53,-17.44 625.88,-10.45"/>
</g>
<!-- Node26&#45;&gt;Node4 -->
<g id="edge48" class="edge">
<title>Node26&#45;&gt;Node4</title>
<path fill="none" stroke="midnightblue" d="M980.43,-627.4C965.71,-618.2 946.31,-606.07 930.13,-595.95"/>
<polygon fill="midnightblue" stroke="midnightblue" points="931.86,-592.91 921.52,-590.58 928.15,-598.84 931.86,-592.91"/>
</g>
<!-- Node26&#45;&gt;Node10 -->
<g id="edge54" class="edge">
<title>Node26&#45;&gt;Node10</title>
<path fill="none" stroke="midnightblue" d="M941.97,-628.56C938.94,-628.01 935.94,-627.49 933,-627 834.13,-610.6 38,-615.22 38,-515 38,-515 38,-515 38,-345 38,-266.24 132.4,-213.98 183.32,-191.53"/>
<polygon fill="midnightblue" stroke="midnightblue" points="184.77,-194.71 192.58,-187.56 182.01,-188.28 184.77,-194.71"/>
</g>
<!-- Node27 -->
<g id="node27" class="node">
<title>Node27</title>
<g id="a_node27"><a xlink:href="../../d0/db1/FunctionTraits_8hpp.html" target="_top" xlink:title=" ">
<polygon fill="white" stroke="black" points="1031.5,-112.5 1031.5,-131.5 1184.5,-131.5 1184.5,-112.5 1031.5,-112.5"/>
<text text-anchor="middle" x="1108" y="-119.5" font-family="Helvetica,sans-Serif" font-size="10.00">AH/Types/FunctionTraits.hpp</text>
</a>
</g>
</g>
<!-- Node26&#45;&gt;Node27 -->
<g id="edge49" class="edge">
<title>Node26&#45;&gt;Node27</title>
<path fill="none" stroke="midnightblue" d="M1012.83,-627.45C1027.65,-604.86 1054,-558.57 1054,-515 1054,-515 1054,-515 1054,-289 1054,-232.61 1082.53,-170.5 1098.11,-140.77"/>
<polygon fill="midnightblue" stroke="midnightblue" points="1101.35,-142.13 1103.02,-131.67 1095.19,-138.81 1101.35,-142.13"/>
</g>
<!-- Node27&#45;&gt;Node3 -->
<g id="edge52" class="edge">
<title>Node27&#45;&gt;Node3</title>
<path fill="none" stroke="midnightblue" d="M1099.39,-112.38C1084.24,-97.84 1051.19,-68.77 1017,-56 947.43,-30.01 741.71,-18.32 625.8,-13.67"/>
<polygon fill="midnightblue" stroke="midnightblue" points="625.68,-10.16 615.55,-13.27 625.41,-17.16 625.68,-10.16"/>
</g>
<!-- Node27&#45;&gt;Node9 -->
<g id="edge53" class="edge">
<title>Node27&#45;&gt;Node9</title>
<path fill="none" stroke="midnightblue" d="M1041.45,-112.44C966.18,-102.77 843.83,-87.04 764.64,-76.85"/>
<polygon fill="midnightblue" stroke="midnightblue" points="764.6,-73.32 754.24,-75.52 763.71,-80.26 764.6,-73.32"/>
</g>
<!-- Node28 -->
<g id="node28" class="node">
<title>Node28</title>
<g id="a_node28"><a xlink:title=" ">
<polygon fill="white" stroke="#bfbfbf" points="1167,-56.5 1167,-75.5 1257,-75.5 1257,-56.5 1167,-56.5"/>
<text text-anchor="middle" x="1212" y="-63.5" font-family="Helvetica,sans-Serif" font-size="10.00">AH/STL/cstddef</text>
</a>
</g>
</g>
<!-- Node27&#45;&gt;Node28 -->
<g id="edge50" class="edge">
<title>Node27&#45;&gt;Node28</title>
<path fill="none" stroke="midnightblue" d="M1124.71,-112.32C1141.31,-103.7 1167,-90.36 1186.22,-80.39"/>
<polygon fill="midnightblue" stroke="midnightblue" points="1188.07,-83.37 1195.33,-75.65 1184.84,-77.16 1188.07,-83.37"/>
</g>
<!-- Node29 -->
<g id="node29" class="node">
<title>Node29</title>
<g id="a_node29"><a xlink:title=" ">
<polygon fill="white" stroke="#bfbfbf" points="1069.5,-56.5 1069.5,-75.5 1148.5,-75.5 1148.5,-56.5 1069.5,-56.5"/>
<text text-anchor="middle" x="1109" y="-63.5" font-family="Helvetica,sans-Serif" font-size="10.00">AH/STL/tuple</text>
</a>
</g>
</g>
<!-- Node27&#45;&gt;Node29 -->
<g id="edge51" class="edge">
<title>Node27&#45;&gt;Node29</title>
<path fill="none" stroke="midnightblue" d="M1108.17,-112.08C1108.3,-105.01 1108.48,-94.86 1108.65,-85.99"/>
<polygon fill="midnightblue" stroke="midnightblue" points="1112.15,-85.81 1108.84,-75.75 1105.15,-85.68 1112.15,-85.81"/>
</g>
</g>
</svg>
