<?xml version="1.0" encoding="UTF-8" standalone="no"?>
<!DOCTYPE svg PUBLIC "-//W3C//DTD SVG 1.1//EN"
 "http://www.w3.org/Graphics/SVG/1.1/DTD/svg11.dtd">
<!-- Generated by graphviz version 2.43.0 (0)
 -->
<!-- Title: Updatable.hpp Pages: 1 -->
<svg width="1248pt" height="532pt"
 viewBox="0.00 0.00 1247.50 532.00" xmlns="http://www.w3.org/2000/svg" xmlns:xlink="http://www.w3.org/1999/xlink">
<g id="graph0" class="graph" transform="scale(1 1) rotate(0) translate(4 528)">
<title>Updatable.hpp</title>
<polygon fill="white" stroke="transparent" points="-4,4 -4,-528 1243.5,-528 1243.5,4 -4,4"/>
<!-- Node1 -->
<g id="node1" class="node">
<title>Node1</title>
<g id="a_node1"><a xlink:title=" ">
<polygon fill="#bfbfbf" stroke="black" points="862,-504.5 862,-523.5 950,-523.5 950,-504.5 862,-504.5"/>
<text text-anchor="middle" x="906" y="-511.5" font-family="Helvetica,sans-Serif" font-size="10.00">Updatable.hpp</text>
</a>
</g>
</g>
<!-- Node2 -->
<g id="node2" class="node">
<title>Node2</title>
<g id="a_node2"><a xlink:href="../../d1/d65/Warnings_8hpp.html" target="_top" xlink:title=" ">
<polygon fill="white" stroke="black" points="118.5,-0.5 118.5,-19.5 261.5,-19.5 261.5,-0.5 118.5,-0.5"/>
<text text-anchor="middle" x="190" y="-7.5" font-family="Helvetica,sans-Serif" font-size="10.00">AH/Settings/Warnings.hpp</text>
</a>
</g>
</g>
<!-- Node1&#45;&gt;Node2 -->
<g id="edge1" class="edge">
<title>Node1&#45;&gt;Node2</title>
<path fill="none" stroke="midnightblue" d="M862,-512.34C680.56,-509.06 0,-490.89 0,-403 0,-403 0,-403 0,-121 0,-62.69 67.85,-34.79 122.46,-21.78"/>
<polygon fill="midnightblue" stroke="midnightblue" points="123.49,-25.13 132.48,-19.52 121.95,-18.3 123.49,-25.13"/>
</g>
<!-- Node3 -->
<g id="node3" class="node">
<title>Node3</title>
<g id="a_node3"><a xlink:href="../../d4/dba/CRTP_8hpp.html" target="_top" xlink:title=" ">
<polygon fill="white" stroke="black" points="1004,-448.5 1004,-467.5 1138,-467.5 1138,-448.5 1004,-448.5"/>
<text text-anchor="middle" x="1071" y="-455.5" font-family="Helvetica,sans-Serif" font-size="10.00">AH/Containers/CRTP.hpp</text>
</a>
</g>
</g>
<!-- Node1&#45;&gt;Node3 -->
<g id="edge2" class="edge">
<title>Node1&#45;&gt;Node3</title>
<path fill="none" stroke="midnightblue" d="M932.14,-504.44C960.02,-495.32 1004.35,-480.81 1035.4,-470.65"/>
<polygon fill="midnightblue" stroke="midnightblue" points="1036.56,-473.95 1044.98,-467.52 1034.38,-467.3 1036.56,-473.95"/>
</g>
<!-- Node4 -->
<g id="node4" class="node">
<title>Node4</title>
<g id="a_node4"><a xlink:href="../../de/dd1/LinkedList_8hpp.html" target="_top" xlink:title=" ">
<polygon fill="white" stroke="black" points="577.5,-448.5 577.5,-467.5 736.5,-467.5 736.5,-448.5 577.5,-448.5"/>
<text text-anchor="middle" x="657" y="-455.5" font-family="Helvetica,sans-Serif" font-size="10.00">AH/Containers/LinkedList.hpp</text>
</a>
</g>
</g>
<!-- Node1&#45;&gt;Node4 -->
<g id="edge3" class="edge">
<title>Node1&#45;&gt;Node4</title>
<path fill="none" stroke="midnightblue" d="M866.55,-504.44C823.11,-495.02 753.21,-479.87 706.22,-469.68"/>
<polygon fill="midnightblue" stroke="midnightblue" points="706.78,-466.22 696.27,-467.52 705.3,-473.06 706.78,-466.22"/>
</g>
<!-- Node12 -->
<g id="node12" class="node">
<title>Node12</title>
<g id="a_node12"><a xlink:title=" ">
<polygon fill="white" stroke="#bfbfbf" points="922.5,-112.5 922.5,-131.5 1029.5,-131.5 1029.5,-112.5 922.5,-112.5"/>
<text text-anchor="middle" x="976" y="-119.5" font-family="Helvetica,sans-Serif" font-size="10.00">AH/STL/type_traits</text>
</a>
</g>
</g>
<!-- Node1&#45;&gt;Node12 -->
<g id="edge40" class="edge">
<title>Node1&#45;&gt;Node12</title>
<path fill="none" stroke="midnightblue" d="M916.33,-504.5C935.8,-487.44 976,-446.91 976,-403 976,-403 976,-403 976,-233 976,-200.95 976,-163.64 976,-141.75"/>
<polygon fill="midnightblue" stroke="midnightblue" points="979.5,-141.56 976,-131.56 972.5,-141.56 979.5,-141.56"/>
</g>
<!-- Node13 -->
<g id="node13" class="node">
<title>Node13</title>
<g id="a_node13"><a xlink:href="../../d2/dd5/SettingsWrapper_8hpp.html" target="_top" xlink:title=" ">
<polygon fill="white" stroke="black" points="361,-336.5 361,-355.5 539,-355.5 539,-336.5 361,-336.5"/>
<text text-anchor="middle" x="450" y="-343.5" font-family="Helvetica,sans-Serif" font-size="10.00">AH/Settings/SettingsWrapper.hpp</text>
</a>
</g>
</g>
<!-- Node1&#45;&gt;Node13 -->
<g id="edge42" class="edge">
<title>Node1&#45;&gt;Node13</title>
<path fill="none" stroke="midnightblue" d="M898.59,-504.45C878.36,-481.74 819.45,-419.76 756,-392 690.76,-363.46 610.99,-352.41 549.26,-348.39"/>
<polygon fill="midnightblue" stroke="midnightblue" points="549.32,-344.89 539.12,-347.79 548.9,-351.88 549.32,-344.89"/>
</g>
<!-- Node18 -->
<g id="node18" class="node">
<title>Node18</title>
<g id="a_node18"><a xlink:title=" ">
<polygon fill="white" stroke="#bfbfbf" points="765,-224.5 765,-243.5 821,-243.5 821,-224.5 765,-224.5"/>
<text text-anchor="middle" x="793" y="-231.5" font-family="Helvetica,sans-Serif" font-size="10.00">stddef.h</text>
</a>
</g>
</g>
<!-- Node1&#45;&gt;Node18 -->
<g id="edge43" class="edge">
<title>Node1&#45;&gt;Node18</title>
<path fill="none" stroke="midnightblue" d="M908.56,-504.25C913.75,-485.74 925,-441.18 925,-403 925,-403 925,-403 925,-345 925,-294.81 867.99,-263.08 828.9,-247.22"/>
<polygon fill="midnightblue" stroke="midnightblue" points="829.98,-243.89 819.39,-243.53 827.45,-250.42 829.98,-243.89"/>
</g>
<!-- Node23 -->
<g id="node23" class="node">
<title>Node23</title>
<g id="a_node23"><a xlink:href="../../d1/d93/Error_8hpp.html" target="_top" xlink:title=" ">
<polygon fill="white" stroke="black" points="398,-448.5 398,-467.5 502,-467.5 502,-448.5 398,-448.5"/>
<text text-anchor="middle" x="450" y="-455.5" font-family="Helvetica,sans-Serif" font-size="10.00">AH/Error/Error.hpp</text>
</a>
</g>
</g>
<!-- Node1&#45;&gt;Node23 -->
<g id="edge37" class="edge">
<title>Node1&#45;&gt;Node23</title>
<path fill="none" stroke="midnightblue" d="M861.86,-507.77C780.32,-498.12 605.87,-477.46 512.32,-466.38"/>
<polygon fill="midnightblue" stroke="midnightblue" points="512.49,-462.88 502.15,-465.18 511.67,-469.83 512.49,-462.88"/>
</g>
<!-- Node24 -->
<g id="node24" class="node">
<title>Node24</title>
<g id="a_node24"><a xlink:title=" ">
<polygon fill="white" stroke="#bfbfbf" points="1156.5,-448.5 1156.5,-467.5 1239.5,-467.5 1239.5,-448.5 1156.5,-448.5"/>
<text text-anchor="middle" x="1198" y="-455.5" font-family="Helvetica,sans-Serif" font-size="10.00">AH/STL/utility</text>
</a>
</g>
</g>
<!-- Node1&#45;&gt;Node24 -->
<g id="edge41" class="edge">
<title>Node1&#45;&gt;Node24</title>
<path fill="none" stroke="midnightblue" d="M950.03,-504.86C1002.68,-495.12 1090.65,-478.85 1146.43,-468.54"/>
<polygon fill="midnightblue" stroke="midnightblue" points="1147.25,-471.94 1156.45,-466.68 1145.98,-465.06 1147.25,-471.94"/>
</g>
<!-- Node4&#45;&gt;Node2 -->
<g id="edge4" class="edge">
<title>Node4&#45;&gt;Node2</title>
<path fill="none" stroke="midnightblue" d="M577.46,-452.19C426.64,-438.31 114,-384.73 114,-179 114,-179 114,-179 114,-121 114,-81.28 147.96,-45.5 170.48,-26.15"/>
<polygon fill="midnightblue" stroke="midnightblue" points="172.98,-28.63 178.46,-19.57 168.52,-23.24 172.98,-28.63"/>
</g>
<!-- Node5 -->
<g id="node5" class="node">
<title>Node5</title>
<g id="a_node5"><a xlink:href="../../df/dee/Debug_8hpp.html" target="_top" xlink:title=" ">
<polygon fill="white" stroke="black" points="389.5,-392.5 389.5,-411.5 510.5,-411.5 510.5,-392.5 389.5,-392.5"/>
<text text-anchor="middle" x="450" y="-399.5" font-family="Helvetica,sans-Serif" font-size="10.00">AH/Debug/Debug.hpp</text>
</a>
</g>
</g>
<!-- Node4&#45;&gt;Node5 -->
<g id="edge5" class="edge">
<title>Node4&#45;&gt;Node5</title>
<path fill="none" stroke="midnightblue" d="M624.2,-448.44C588.62,-439.16 531.69,-424.31 492.65,-414.13"/>
<polygon fill="midnightblue" stroke="midnightblue" points="493.21,-410.65 482.65,-411.52 491.44,-417.43 493.21,-410.65"/>
</g>
<!-- Node9 -->
<g id="node9" class="node">
<title>Node9</title>
<g id="a_node9"><a xlink:href="../../d7/d79/MinMaxFix_8hpp.html" target="_top" xlink:title=" ">
<polygon fill="white" stroke="black" points="729,-112.5 729,-131.5 865,-131.5 865,-112.5 729,-112.5"/>
<text text-anchor="middle" x="797" y="-119.5" font-family="Helvetica,sans-Serif" font-size="10.00">AH/Math/MinMaxFix.hpp</text>
</a>
</g>
</g>
<!-- Node4&#45;&gt;Node9 -->
<g id="edge34" class="edge">
<title>Node4&#45;&gt;Node9</title>
<path fill="none" stroke="midnightblue" d="M716.17,-448.46C772.59,-436.58 849,-409.04 849,-347 849,-347 849,-347 849,-289 849,-241.64 830.46,-232.77 815,-188 809.68,-172.59 804.82,-154.72 801.5,-141.62"/>
<polygon fill="midnightblue" stroke="midnightblue" points="804.8,-140.38 799,-131.52 798,-142.07 804.8,-140.38"/>
</g>
<!-- Node21 -->
<g id="node21" class="node">
<title>Node21</title>
<g id="a_node21"><a xlink:title=" ">
<polygon fill="white" stroke="#bfbfbf" points="585.5,-392.5 585.5,-411.5 638.5,-411.5 638.5,-392.5 585.5,-392.5"/>
<text text-anchor="middle" x="612" y="-399.5" font-family="Helvetica,sans-Serif" font-size="10.00">stdlib.h</text>
</a>
</g>
</g>
<!-- Node4&#45;&gt;Node21 -->
<g id="edge35" class="edge">
<title>Node4&#45;&gt;Node21</title>
<path fill="none" stroke="midnightblue" d="M649.57,-448.08C643.15,-440.38 633.69,-429.03 625.88,-419.65"/>
<polygon fill="midnightblue" stroke="midnightblue" points="628.38,-417.19 619.29,-411.75 623.01,-421.67 628.38,-417.19"/>
</g>
<!-- Node22 -->
<g id="node22" class="node">
<title>Node22</title>
<g id="a_node22"><a xlink:title=" ">
<polygon fill="white" stroke="#bfbfbf" points="657,-392.5 657,-411.5 747,-411.5 747,-392.5 657,-392.5"/>
<text text-anchor="middle" x="702" y="-399.5" font-family="Helvetica,sans-Serif" font-size="10.00">AH/STL/iterator</text>
</a>
</g>
</g>
<!-- Node4&#45;&gt;Node22 -->
<g id="edge36" class="edge">
<title>Node4&#45;&gt;Node22</title>
<path fill="none" stroke="midnightblue" d="M664.43,-448.08C670.85,-440.38 680.31,-429.03 688.12,-419.65"/>
<polygon fill="midnightblue" stroke="midnightblue" points="690.99,-421.67 694.71,-411.75 685.62,-417.19 690.99,-421.67"/>
</g>
<!-- Node5&#45;&gt;Node2 -->
<g id="edge6" class="edge">
<title>Node5&#45;&gt;Node2</title>
<path fill="none" stroke="midnightblue" d="M389.49,-393.16C283.64,-375.68 76,-323.03 76,-179 76,-179 76,-179 76,-121 76,-90.2 79.45,-78.94 100,-56 113.47,-40.96 133.13,-30.33 150.64,-23.19"/>
<polygon fill="midnightblue" stroke="midnightblue" points="152,-26.41 160.09,-19.57 149.5,-19.87 152,-26.41"/>
</g>
<!-- Node6 -->
<g id="node6" class="node">
<title>Node6</title>
<g id="a_node6"><a xlink:href="../../dd/d80/PrintStream_8hpp.html" target="_top" xlink:title=" ">
<polygon fill="white" stroke="black" points="218.5,-224.5 218.5,-243.5 391.5,-243.5 391.5,-224.5 218.5,-224.5"/>
<text text-anchor="middle" x="305" y="-231.5" font-family="Helvetica,sans-Serif" font-size="10.00">AH/PrintStream/PrintStream.hpp</text>
</a>
</g>
</g>
<!-- Node5&#45;&gt;Node6 -->
<g id="edge7" class="edge">
<title>Node5&#45;&gt;Node6</title>
<path fill="none" stroke="midnightblue" d="M417.57,-392.36C396.69,-385.42 370.17,-373.83 352,-356 323.28,-327.81 311.76,-280.07 307.42,-253.77"/>
<polygon fill="midnightblue" stroke="midnightblue" points="310.84,-253.03 305.93,-243.64 303.92,-254.04 310.84,-253.03"/>
</g>
<!-- Node5&#45;&gt;Node13 -->
<g id="edge19" class="edge">
<title>Node5&#45;&gt;Node13</title>
<path fill="none" stroke="midnightblue" d="M444.83,-392.08C443.32,-384.93 442.89,-374.64 443.54,-365.69"/>
<polygon fill="midnightblue" stroke="midnightblue" points="447.02,-366.13 444.87,-355.75 440.08,-365.2 447.02,-366.13"/>
</g>
<!-- Node6&#45;&gt;Node2 -->
<g id="edge9" class="edge">
<title>Node6&#45;&gt;Node2</title>
<path fill="none" stroke="midnightblue" d="M299.8,-224.48C289.34,-207.26 265.23,-166.96 247,-132 228.2,-95.95 208.45,-52.61 197.85,-28.82"/>
<polygon fill="midnightblue" stroke="midnightblue" points="201.03,-27.35 193.77,-19.62 194.63,-30.19 201.03,-27.35"/>
</g>
<!-- Node7 -->
<g id="node7" class="node">
<title>Node7</title>
<g id="a_node7"><a xlink:href="../../dc/dc7/NamespaceSettings_8hpp.html" target="_top" xlink:title=" ">
<polygon fill="white" stroke="black" points="445.5,-56.5 445.5,-75.5 640.5,-75.5 640.5,-56.5 445.5,-56.5"/>
<text text-anchor="middle" x="543" y="-63.5" font-family="Helvetica,sans-Serif" font-size="10.00">AH/Settings/NamespaceSettings.hpp</text>
</a>
</g>
</g>
<!-- Node6&#45;&gt;Node7 -->
<g id="edge8" class="edge">
<title>Node6&#45;&gt;Node7</title>
<path fill="none" stroke="midnightblue" d="M317.46,-224.31C356.1,-197.36 474.17,-115.01 522.27,-81.46"/>
<polygon fill="midnightblue" stroke="midnightblue" points="524.46,-84.2 530.66,-75.61 520.46,-78.46 524.46,-84.2"/>
</g>
<!-- Node8 -->
<g id="node8" class="node">
<title>Node8</title>
<g id="a_node8"><a xlink:href="../../d6/ddf/Arduino-Wrapper_8h.html" target="_top" xlink:title=" ">
<polygon fill="white" stroke="black" points="824,-168.5 824,-187.5 948,-187.5 948,-168.5 824,-168.5"/>
<text text-anchor="middle" x="886" y="-175.5" font-family="Helvetica,sans-Serif" font-size="10.00">AH/Arduino&#45;Wrapper.h</text>
</a>
</g>
</g>
<!-- Node6&#45;&gt;Node8 -->
<g id="edge10" class="edge">
<title>Node6&#45;&gt;Node8</title>
<path fill="none" stroke="midnightblue" d="M391.61,-224.88C394.78,-224.58 397.92,-224.29 401,-224 547.63,-210.32 719.22,-194.43 813.94,-185.66"/>
<polygon fill="midnightblue" stroke="midnightblue" points="814.35,-189.14 823.98,-184.73 813.7,-182.17 814.35,-189.14"/>
</g>
<!-- Node8&#45;&gt;Node9 -->
<g id="edge11" class="edge">
<title>Node8&#45;&gt;Node9</title>
<path fill="none" stroke="midnightblue" d="M871.7,-168.32C857.82,-159.9 836.51,-146.97 820.2,-137.07"/>
<polygon fill="midnightblue" stroke="midnightblue" points="821.63,-133.85 811.26,-131.65 818,-139.83 821.63,-133.85"/>
</g>
<!-- Node11 -->
<g id="node11" class="node">
<title>Node11</title>
<g id="a_node11"><a xlink:title=" ">
<polygon fill="white" stroke="#bfbfbf" points="805.5,-0.5 805.5,-19.5 868.5,-19.5 868.5,-0.5 805.5,-0.5"/>
<text text-anchor="middle" x="837" y="-7.5" font-family="Helvetica,sans-Serif" font-size="10.00">Arduino.h</text>
</a>
</g>
</g>
<!-- Node8&#45;&gt;Node11 -->
<g id="edge18" class="edge">
<title>Node8&#45;&gt;Node11</title>
<path fill="none" stroke="midnightblue" d="M886.93,-168.37C888.78,-147.92 891.43,-95.31 875,-56 870.44,-45.1 862.26,-34.88 854.66,-26.94"/>
<polygon fill="midnightblue" stroke="midnightblue" points="856.99,-24.32 847.4,-19.82 852.09,-29.32 856.99,-24.32"/>
</g>
<!-- Node8&#45;&gt;Node12 -->
<g id="edge17" class="edge">
<title>Node8&#45;&gt;Node12</title>
<path fill="none" stroke="midnightblue" d="M900.46,-168.32C914.5,-159.9 936.05,-146.97 952.54,-137.07"/>
<polygon fill="midnightblue" stroke="midnightblue" points="954.8,-139.8 961.58,-131.65 951.2,-133.8 954.8,-139.8"/>
</g>
<!-- Node9&#45;&gt;Node2 -->
<g id="edge12" class="edge">
<title>Node9&#45;&gt;Node2</title>
<path fill="none" stroke="midnightblue" d="M773.94,-112.4C751.46,-103.82 716.47,-89.94 687,-76 670.1,-68.01 667.88,-61.46 650,-56 581.54,-35.08 385.04,-21.46 272.25,-15.13"/>
<polygon fill="midnightblue" stroke="midnightblue" points="272.12,-11.62 261.94,-14.56 271.73,-18.61 272.12,-11.62"/>
</g>
<!-- Node9&#45;&gt;Node7 -->
<g id="edge16" class="edge">
<title>Node9&#45;&gt;Node7</title>
<path fill="none" stroke="midnightblue" d="M756.75,-112.44C712.35,-103 640.85,-87.8 592.91,-77.61"/>
<polygon fill="midnightblue" stroke="midnightblue" points="593.57,-74.17 583.06,-75.52 592.11,-81.02 593.57,-74.17"/>
</g>
<!-- Node10 -->
<g id="node10" class="node">
<title>Node10</title>
<g id="a_node10"><a xlink:href="../../d6/d3b/FixArduinoMacros_8hpp.html" target="_top" xlink:title=" ">
<polygon fill="white" stroke="black" points="696,-56.5 696,-75.5 866,-75.5 866,-56.5 696,-56.5"/>
<text text-anchor="middle" x="781" y="-63.5" font-family="Helvetica,sans-Serif" font-size="10.00">AH/Math/FixArduinoMacros.hpp</text>
</a>
</g>
</g>
<!-- Node9&#45;&gt;Node10 -->
<g id="edge13" class="edge">
<title>Node9&#45;&gt;Node10</title>
<path fill="none" stroke="midnightblue" d="M794.36,-112.08C792.21,-104.85 789.12,-94.41 786.45,-85.4"/>
<polygon fill="midnightblue" stroke="midnightblue" points="789.79,-84.34 783.59,-75.75 783.08,-86.33 789.79,-84.34"/>
</g>
<!-- Node10&#45;&gt;Node2 -->
<g id="edge14" class="edge">
<title>Node10&#45;&gt;Node2</title>
<path fill="none" stroke="midnightblue" d="M695.69,-57.21C582.4,-46.85 383.62,-28.69 272.01,-18.49"/>
<polygon fill="midnightblue" stroke="midnightblue" points="272.09,-14.99 261.82,-17.56 271.46,-21.96 272.09,-14.99"/>
</g>
<!-- Node10&#45;&gt;Node11 -->
<g id="edge15" class="edge">
<title>Node10&#45;&gt;Node11</title>
<path fill="none" stroke="midnightblue" d="M790,-56.32C798.19,-48.42 810.51,-36.55 820.47,-26.94"/>
<polygon fill="midnightblue" stroke="midnightblue" points="823.07,-29.29 827.84,-19.83 818.21,-24.26 823.07,-29.29"/>
</g>
<!-- Node13&#45;&gt;Node2 -->
<g id="edge20" class="edge">
<title>Node13&#45;&gt;Node2</title>
<path fill="none" stroke="midnightblue" d="M396.03,-336.45C310.16,-321.3 152,-286.43 152,-235 152,-235 152,-235 152,-121 152,-86.81 168.6,-49.76 179.86,-28.57"/>
<polygon fill="midnightblue" stroke="midnightblue" points="182.95,-30.22 184.72,-19.77 176.82,-26.83 182.95,-30.22"/>
</g>
<!-- Node13&#45;&gt;Node5 -->
<g id="edge33" class="edge">
<title>Node13&#45;&gt;Node5</title>
<path fill="none" stroke="midnightblue" d="M455.13,-355.75C456.66,-362.86 457.1,-373.14 456.47,-382.1"/>
<polygon fill="midnightblue" stroke="midnightblue" points="452.99,-381.71 455.17,-392.08 459.93,-382.62 452.99,-381.71"/>
</g>
<!-- Node13&#45;&gt;Node7 -->
<g id="edge21" class="edge">
<title>Node13&#45;&gt;Node7</title>
<path fill="none" stroke="midnightblue" d="M539.03,-338.89C601.87,-329.21 681.18,-304.83 718,-244 761.97,-171.36 635.35,-105.96 574.1,-79.47"/>
<polygon fill="midnightblue" stroke="midnightblue" points="575.44,-76.24 564.87,-75.56 572.71,-82.68 575.44,-76.24"/>
</g>
<!-- Node14 -->
<g id="node14" class="node">
<title>Node14</title>
<g id="a_node14"><a xlink:href="../../db/d02/Settings_8hpp.html" target="_top" xlink:title="All user settings and debugging options can be changed here.">
<polygon fill="white" stroke="black" points="524.5,-280.5 524.5,-299.5 601.5,-299.5 601.5,-280.5 524.5,-280.5"/>
<text text-anchor="middle" x="563" y="-287.5" font-family="Helvetica,sans-Serif" font-size="10.00">Settings.hpp</text>
</a>
</g>
</g>
<!-- Node13&#45;&gt;Node14 -->
<g id="edge22" class="edge">
<title>Node13&#45;&gt;Node14</title>
<path fill="none" stroke="midnightblue" d="M467.91,-336.44C486.25,-327.68 515.01,-313.94 536.09,-303.86"/>
<polygon fill="midnightblue" stroke="midnightblue" points="537.67,-306.99 545.18,-299.52 534.65,-300.67 537.67,-306.99"/>
</g>
<!-- Node20 -->
<g id="node20" class="node">
<title>Node20</title>
<g id="a_node20"><a xlink:href="../../d9/d98/TeensyUSBTypes_8hpp.html" target="_top" xlink:title=" ">
<polygon fill="white" stroke="black" points="333.5,-280.5 333.5,-299.5 506.5,-299.5 506.5,-280.5 333.5,-280.5"/>
<text text-anchor="middle" x="420" y="-287.5" font-family="Helvetica,sans-Serif" font-size="10.00">AH/Teensy/TeensyUSBTypes.hpp</text>
</a>
</g>
</g>
<!-- Node13&#45;&gt;Node20 -->
<g id="edge32" class="edge">
<title>Node13&#45;&gt;Node20</title>
<path fill="none" stroke="midnightblue" d="M445.05,-336.08C440.9,-328.61 434.85,-317.72 429.73,-308.52"/>
<polygon fill="midnightblue" stroke="midnightblue" points="432.78,-306.79 424.86,-299.75 426.66,-310.19 432.78,-306.79"/>
</g>
<!-- Node15 -->
<g id="node15" class="node">
<title>Node15</title>
<g id="a_node15"><a xlink:href="../../dc/d50/Frequency_8hpp.html" target="_top" xlink:title=" ">
<polygon fill="white" stroke="black" points="256,-112.5 256,-131.5 390,-131.5 390,-112.5 256,-112.5"/>
<text text-anchor="middle" x="323" y="-119.5" font-family="Helvetica,sans-Serif" font-size="10.00">AH/Types/Frequency.hpp</text>
</a>
</g>
</g>
<!-- Node14&#45;&gt;Node15 -->
<g id="edge23" class="edge">
<title>Node14&#45;&gt;Node15</title>
<path fill="none" stroke="midnightblue" d="M524.31,-281.36C521.5,-280.88 518.71,-280.42 516,-280 448.33,-269.55 255.5,-295.17 210,-244 174.32,-203.88 250.87,-157.89 294.87,-135.95"/>
<polygon fill="midnightblue" stroke="midnightblue" points="296.51,-139.05 303.97,-131.52 293.45,-132.75 296.51,-139.05"/>
</g>
<!-- Node16 -->
<g id="node16" class="node">
<title>Node16</title>
<g id="a_node16"><a xlink:href="../../d7/d7c/ADCConfig_8hpp.html" target="_top" xlink:title="This file contains the platform&#45;specific ADC resolutions.">
<polygon fill="white" stroke="black" points="551.5,-224.5 551.5,-243.5 708.5,-243.5 708.5,-224.5 551.5,-224.5"/>
<text text-anchor="middle" x="630" y="-231.5" font-family="Helvetica,sans-Serif" font-size="10.00">AH/Hardware/ADCConfig.hpp</text>
</a>
</g>
</g>
<!-- Node14&#45;&gt;Node16 -->
<g id="edge26" class="edge">
<title>Node14&#45;&gt;Node16</title>
<path fill="none" stroke="midnightblue" d="M573.76,-280.32C583.77,-272.26 598.89,-260.08 610.93,-250.37"/>
<polygon fill="midnightblue" stroke="midnightblue" points="613.45,-252.83 619.04,-243.83 609.06,-247.38 613.45,-252.83"/>
</g>
<!-- Node17 -->
<g id="node17" class="node">
<title>Node17</title>
<g id="a_node17"><a xlink:title=" ">
<polygon fill="white" stroke="#bfbfbf" points="409.5,-224.5 409.5,-243.5 462.5,-243.5 462.5,-224.5 409.5,-224.5"/>
<text text-anchor="middle" x="436" y="-231.5" font-family="Helvetica,sans-Serif" font-size="10.00">limits.h</text>
</a>
</g>
</g>
<!-- Node14&#45;&gt;Node17 -->
<g id="edge29" class="edge">
<title>Node14&#45;&gt;Node17</title>
<path fill="none" stroke="midnightblue" d="M542.88,-280.44C521.98,-271.56 489.07,-257.56 465.28,-247.45"/>
<polygon fill="midnightblue" stroke="midnightblue" points="466.6,-244.21 456.03,-243.52 463.86,-250.65 466.6,-244.21"/>
</g>
<!-- Node14&#45;&gt;Node18 -->
<g id="edge30" class="edge">
<title>Node14&#45;&gt;Node18</title>
<path fill="none" stroke="midnightblue" d="M599.44,-280.44C641.89,-270.48 711.7,-254.09 754.86,-243.95"/>
<polygon fill="midnightblue" stroke="midnightblue" points="755.77,-247.34 764.7,-241.64 754.17,-240.52 755.77,-247.34"/>
</g>
<!-- Node19 -->
<g id="node19" class="node">
<title>Node19</title>
<g id="a_node19"><a xlink:title=" ">
<polygon fill="white" stroke="#bfbfbf" points="480.5,-224.5 480.5,-243.5 533.5,-243.5 533.5,-224.5 480.5,-224.5"/>
<text text-anchor="middle" x="507" y="-231.5" font-family="Helvetica,sans-Serif" font-size="10.00">stdint.h</text>
</a>
</g>
</g>
<!-- Node14&#45;&gt;Node19 -->
<g id="edge31" class="edge">
<title>Node14&#45;&gt;Node19</title>
<path fill="none" stroke="midnightblue" d="M554,-280.32C545.81,-272.42 533.49,-260.55 523.53,-250.94"/>
<polygon fill="midnightblue" stroke="midnightblue" points="525.79,-248.26 516.16,-243.83 520.93,-253.29 525.79,-248.26"/>
</g>
<!-- Node15&#45;&gt;Node2 -->
<g id="edge24" class="edge">
<title>Node15&#45;&gt;Node2</title>
<path fill="none" stroke="midnightblue" d="M312.56,-112.37C290.03,-93.73 236.59,-49.53 208.3,-26.13"/>
<polygon fill="midnightblue" stroke="midnightblue" points="210.32,-23.27 200.39,-19.59 205.86,-28.66 210.32,-23.27"/>
</g>
<!-- Node15&#45;&gt;Node7 -->
<g id="edge25" class="edge">
<title>Node15&#45;&gt;Node7</title>
<path fill="none" stroke="midnightblue" d="M357.86,-112.44C395.92,-103.1 456.96,-88.12 498.46,-77.93"/>
<polygon fill="midnightblue" stroke="midnightblue" points="499.43,-81.3 508.3,-75.52 497.76,-74.5 499.43,-81.3"/>
</g>
<!-- Node16&#45;&gt;Node2 -->
<g id="edge27" class="edge">
<title>Node16&#45;&gt;Node2</title>
<path fill="none" stroke="midnightblue" d="M614.13,-224.46C576.81,-204.43 480.48,-153.02 399,-112 334.32,-79.44 257.47,-42.83 217.4,-23.9"/>
<polygon fill="midnightblue" stroke="midnightblue" points="218.81,-20.69 208.27,-19.58 215.82,-27.02 218.81,-20.69"/>
</g>
<!-- Node16&#45;&gt;Node8 -->
<g id="edge28" class="edge">
<title>Node16&#45;&gt;Node8</title>
<path fill="none" stroke="midnightblue" d="M670.56,-224.44C715.32,-215 787.38,-199.8 835.7,-189.61"/>
<polygon fill="midnightblue" stroke="midnightblue" points="836.56,-193.01 845.63,-187.52 835.12,-186.16 836.56,-193.01"/>
</g>
<!-- Node23&#45;&gt;Node2 -->
<g id="edge38" class="edge">
<title>Node23&#45;&gt;Node2</title>
<path fill="none" stroke="midnightblue" d="M397.87,-457.51C304.34,-457.39 112.98,-452.08 62,-412 37.79,-392.97 38,-377.8 38,-347 38,-347 38,-347 38,-121 38,-67.44 100.71,-37.3 145.57,-22.59"/>
<polygon fill="midnightblue" stroke="midnightblue" points="146.63,-25.93 155.13,-19.6 144.54,-19.25 146.63,-25.93"/>
</g>
<!-- Node23&#45;&gt;Node5 -->
<g id="edge39" class="edge">
<title>Node23&#45;&gt;Node5</title>
<path fill="none" stroke="midnightblue" d="M450,-448.08C450,-441.01 450,-430.86 450,-421.99"/>
<polygon fill="midnightblue" stroke="midnightblue" points="453.5,-421.75 450,-411.75 446.5,-421.75 453.5,-421.75"/>
</g>
</g>
</svg>
