<?xml version="1.0" encoding="UTF-8" standalone="no"?>
<!DOCTYPE svg PUBLIC "-//W3C//DTD SVG 1.1//EN"
 "http://www.w3.org/Graphics/SVG/1.1/DTD/svg11.dtd">
<!-- Generated by graphviz version 2.40.1 (20161225.0304)
 -->
<!-- Title: Settings Pages: 1 -->
<svg width="284pt" height="151pt"
 viewBox="0.00 0.00 284.00 151.00" xmlns="http://www.w3.org/2000/svg" xmlns:xlink="http://www.w3.org/1999/xlink">
<g id="graph0" class="graph" transform="scale(1 1) rotate(0) translate(4 147)">
<title>Settings</title>
<polygon fill="#ffffff" stroke="transparent" points="-4,4 -4,-147 280,-147 280,4 -4,4"/>
<g id="clust1" class="cluster">
<title>clusterdir_15b6432dff6a6d357bf70f8fbf2cdf14</title>
<g id="a_clust1"><a xlink:href="dir_15b6432dff6a6d357bf70f8fbf2cdf14.html" target="_top" xlink:title="AH">
<polygon fill="#ddddee" stroke="#000000" points="101,-64 101,-135 171,-135 171,-64 101,-64"/>
<text text-anchor="middle" x="136" y="-123" font-family="Helvetica,sans-Serif" font-size="10.00" fill="#000000">AH</text>
</a>
</g>
</g>
<!-- dir_c93ba603db00711c7f5106968469b448 -->
<g id="node1" class="node">
<title>dir_c93ba603db00711c7f5106968469b448</title>
<g id="a_node1"><a xlink:href="dir_c93ba603db00711c7f5106968469b448.html" target="_top" xlink:title="Settings">
<polygon fill="#eeeeff" stroke="#000000" points="163,-108 109,-108 109,-72 163,-72 163,-108"/>
<text text-anchor="middle" x="136" y="-87.5" font-family="Helvetica,sans-Serif" font-size="10.00" fill="#000000">Settings</text>
</a>
</g>
</g>
<!-- dir_dbe54f2115b12050a4f51da0d7c3487b -->
<g id="node2" class="node">
<title>dir_dbe54f2115b12050a4f51da0d7c3487b</title>
<g id="a_node2"><a xlink:href="dir_dbe54f2115b12050a4f51da0d7c3487b.html" target="_top" xlink:title="Types">
<polygon fill="none" stroke="#000000" points="54,-36 0,-36 0,0 54,0 54,-36"/>
<text text-anchor="middle" x="27" y="-15.5" font-family="Helvetica,sans-Serif" font-size="10.00" fill="#000000">Types</text>
</a>
</g>
</g>
<!-- dir_c93ba603db00711c7f5106968469b448&#45;&gt;dir_dbe54f2115b12050a4f51da0d7c3487b -->
<g id="edge1" class="edge">
<title>dir_c93ba603db00711c7f5106968469b448&#45;&gt;dir_dbe54f2115b12050a4f51da0d7c3487b</title>
<path fill="none" stroke="#000000" d="M108.9614,-75.7751C93.142,-66.1622 73.2647,-53.2312 56.9864,-42.0399"/>
<polygon fill="#000000" stroke="#000000" points="58.5681,-38.8764 48.3618,-36.0336 54.5677,-44.6207 58.5681,-38.8764"/>
<g id="a_edge1&#45;headlabel"><a xlink:href="dir_000015_000013.html" target="_top" xlink:title="1">
<text text-anchor="middle" x="63.1405" y="-36.1007" font-family="Helvetica,sans-Serif" font-size="10.00" fill="#000000">1</text>
</a>
</g>
</g>
<!-- dir_22cc041e64085de06e5f66b2732f928a -->
<g id="node3" class="node">
<title>dir_22cc041e64085de06e5f66b2732f928a</title>
<g id="a_node3"><a xlink:href="dir_22cc041e64085de06e5f66b2732f928a.html" target="_top" xlink:title="Teensy">
<polygon fill="none" stroke="#000000" points="126,-36 72,-36 72,0 126,0 126,-36"/>
<text text-anchor="middle" x="99" y="-15.5" font-family="Helvetica,sans-Serif" font-size="10.00" fill="#000000">Teensy</text>
</a>
</g>
</g>
<!-- dir_c93ba603db00711c7f5106968469b448&#45;&gt;dir_22cc041e64085de06e5f66b2732f928a -->
<g id="edge2" class="edge">
<title>dir_c93ba603db00711c7f5106968469b448&#45;&gt;dir_22cc041e64085de06e5f66b2732f928a</title>
<path fill="none" stroke="#000000" d="M126.6633,-71.8314C122.5757,-63.8771 117.6896,-54.369 113.1691,-45.5723"/>
<polygon fill="#000000" stroke="#000000" points="116.1461,-43.7078 108.4624,-36.4133 109.9201,-46.9074 116.1461,-43.7078"/>
<g id="a_edge2&#45;headlabel"><a xlink:href="dir_000015_000017.html" target="_top" xlink:title="1">
<text text-anchor="middle" x="120.3144" y="-43.1073" font-family="Helvetica,sans-Serif" font-size="10.00" fill="#000000">1</text>
</a>
</g>
</g>
<!-- dir_fe496568715fe26a65b354e6e2365ccd -->
<g id="node4" class="node">
<title>dir_fe496568715fe26a65b354e6e2365ccd</title>
<g id="a_node4"><a xlink:href="dir_fe496568715fe26a65b354e6e2365ccd.html" target="_top" xlink:title="Hardware">
<polygon fill="#ffffff" stroke="#ff0000" points="203.5,-36 144.5,-36 144.5,0 203.5,0 203.5,-36"/>
<text text-anchor="middle" x="174" y="-15.5" font-family="Helvetica,sans-Serif" font-size="10.00" fill="#000000">Hardware</text>
</a>
</g>
</g>
<!-- dir_c93ba603db00711c7f5106968469b448&#45;&gt;dir_fe496568715fe26a65b354e6e2365ccd -->
<g id="edge3" class="edge">
<title>dir_c93ba603db00711c7f5106968469b448&#45;&gt;dir_fe496568715fe26a65b354e6e2365ccd</title>
<path fill="none" stroke="#000000" d="M145.589,-71.8314C149.8317,-63.7925 154.9121,-54.1666 159.596,-45.2918"/>
<polygon fill="#000000" stroke="#000000" points="162.7096,-46.8908 164.2819,-36.4133 156.5189,-43.6235 162.7096,-46.8908"/>
<g id="a_edge3&#45;headlabel"><a xlink:href="dir_000015_000002.html" target="_top" xlink:title="1">
<text text-anchor="middle" x="163.5428" y="-48.895" font-family="Helvetica,sans-Serif" font-size="10.00" fill="#000000">1</text>
</a>
</g>
</g>
<!-- dir_54ed9a2f055393fe51924247a0779d9a -->
<g id="node5" class="node">
<title>dir_54ed9a2f055393fe51924247a0779d9a</title>
<g id="a_node5"><a xlink:href="dir_54ed9a2f055393fe51924247a0779d9a.html" target="_top" xlink:title="Debug">
<polygon fill="none" stroke="#000000" points="276,-36 222,-36 222,0 276,0 276,-36"/>
<text text-anchor="middle" x="249" y="-15.5" font-family="Helvetica,sans-Serif" font-size="10.00" fill="#000000">Debug</text>
</a>
</g>
</g>
<!-- dir_c93ba603db00711c7f5106968469b448&#45;&gt;dir_54ed9a2f055393fe51924247a0779d9a -->
<g id="edge4" class="edge">
<title>dir_c93ba603db00711c7f5106968469b448&#45;&gt;dir_54ed9a2f055393fe51924247a0779d9a</title>
<path fill="none" stroke="#000000" d="M158.5623,-71.8314C174.1236,-61.2597 194.9905,-47.9435 212.8172,-37.2003"/>
<polygon fill="#000000" stroke="#000000" points="215.0137,-39.9661 221.818,-31.845 211.4345,-33.9504 215.0137,-39.9661"/>
<g id="a_edge4&#45;headlabel"><a xlink:href="dir_000015_000006.html" target="_top" xlink:title="1">
<text text-anchor="middle" x="213.3763" y="-41.7441" font-family="Helvetica,sans-Serif" font-size="10.00" fill="#000000">1</text>
</a>
</g>
</g>
<!-- dir_dbe54f2115b12050a4f51da0d7c3487b&#45;&gt;dir_c93ba603db00711c7f5106968469b448 -->
<g id="edge5" class="edge">
<title>dir_dbe54f2115b12050a4f51da0d7c3487b&#45;&gt;dir_c93ba603db00711c7f5106968469b448</title>
<path fill="none" stroke="#000000" d="M54.1714,-32.3056C69.9181,-41.8791 89.653,-54.7169 105.8563,-65.852"/>
<polygon fill="#000000" stroke="#000000" points="104.24,-68.9913 114.4471,-71.8314 108.2389,-63.2459 104.24,-68.9913"/>
<g id="a_edge5&#45;headlabel"><a xlink:href="dir_000013_000015.html" target="_top" xlink:title="2">
<text text-anchor="middle" x="99.6677" y="-66.7682" font-family="Helvetica,sans-Serif" font-size="10.00" fill="#000000">2</text>
</a>
</g>
</g>
<!-- dir_54ed9a2f055393fe51924247a0779d9a&#45;&gt;dir_c93ba603db00711c7f5106968469b448 -->
<g id="edge6" class="edge">
<title>dir_54ed9a2f055393fe51924247a0779d9a&#45;&gt;dir_c93ba603db00711c7f5106968469b448</title>
<path fill="none" stroke="#000000" d="M226.3864,-36.2035C210.845,-46.7597 190.0287,-60.0435 172.2326,-70.7697"/>
<polygon fill="#000000" stroke="#000000" points="170.0492,-67.9961 163.2455,-76.1177 173.6289,-74.0116 170.0492,-67.9961"/>
<g id="a_edge6&#45;headlabel"><a xlink:href="dir_000006_000015.html" target="_top" xlink:title="2">
<text text-anchor="middle" x="171.6863" y="-61.218" font-family="Helvetica,sans-Serif" font-size="10.00" fill="#000000">2</text>
</a>
</g>
</g>
</g>
</svg>
