<?xml version="1.0" encoding="UTF-8" standalone="no"?>
<!DOCTYPE svg PUBLIC "-//W3C//DTD SVG 1.1//EN"
 "http://www.w3.org/Graphics/SVG/1.1/DTD/svg11.dtd">
<!-- Generated by graphviz version 2.40.1 (20161225.0304)
 -->
<!-- Title: Graphical Class Hierarchy Pages: 1 -->
<svg width="207pt" height="66pt"
 viewBox="0.00 0.00 207.00 66.00" xmlns="http://www.w3.org/2000/svg" xmlns:xlink="http://www.w3.org/1999/xlink">
<g id="graph0" class="graph" transform="scale(1 1) rotate(0) translate(4 62)">
<title>Graphical Class Hierarchy</title>
<polygon fill="#ffffff" stroke="transparent" points="-4,4 -4,-62 203,-62 203,4 -4,4"/>
<!-- Node4 -->
<g id="node1" class="node">
<title>Node4</title>
<g id="a_node1"><a xlink:title=" ">
<polygon fill="#ffffff" stroke="#bfbfbf" points="0,-19.5 0,-38.5 35,-38.5 35,-19.5 0,-19.5"/>
<text text-anchor="middle" x="17.5" y="-26.5" font-family="Helvetica,sans-Serif" font-size="10.00" fill="#000000">type</text>
</a>
</g>
</g>
<!-- Node0 -->
<g id="node2" class="node">
<title>Node0</title>
<g id="a_node2"><a xlink:href="d0/d89/structround__div__helper.html" target="_top" xlink:title="Select the right rounding division operator, depending on whether T is an integer or not.">
<polygon fill="#ffffff" stroke="#000000" points="71,-38.5 71,-57.5 199,-57.5 199,-38.5 71,-38.5"/>
<text text-anchor="middle" x="135" y="-45.5" font-family="Helvetica,sans-Serif" font-size="10.00" fill="#000000">round_div_helper&lt; N, T &gt;</text>
</a>
</g>
</g>
<!-- Node4&#45;&gt;Node0 -->
<g id="edge1" class="edge">
<title>Node4&#45;&gt;Node0</title>
<path fill="none" stroke="#191970" d="M44.976,-33.4429C54.3688,-34.9618 65.2669,-36.724 76.1686,-38.4868"/>
<polygon fill="#191970" stroke="#191970" points="45.5214,-29.9857 35.0909,-31.8445 44.404,-36.896 45.5214,-29.9857"/>
</g>
<!-- Node6 -->
<g id="node3" class="node">
<title>Node6</title>
<g id="a_node3"><a xlink:href="d1/de0/structround__div__int.html" target="_top" xlink:title="Select the right rounding division operator, depending on whether T is a signed or unsigned integer.">
<polygon fill="#ffffff" stroke="#000000" points="79,-.5 79,-19.5 191,-19.5 191,-.5 79,-.5"/>
<text text-anchor="middle" x="135" y="-7.5" font-family="Helvetica,sans-Serif" font-size="10.00" fill="#000000">round_div_int&lt; N, T &gt;</text>
</a>
</g>
</g>
<!-- Node4&#45;&gt;Node6 -->
<g id="edge2" class="edge">
<title>Node4&#45;&gt;Node6</title>
<path fill="none" stroke="#191970" d="M45.269,-24.5097C55.3448,-22.8804 67.1235,-20.9758 78.7699,-19.0925"/>
<polygon fill="#191970" stroke="#191970" points="44.404,-21.104 35.0909,-26.1555 45.5214,-28.0143 44.404,-21.104"/>
</g>
</g>
</svg>
