<?xml version="1.0" encoding="UTF-8" standalone="no"?>
<!DOCTYPE svg PUBLIC "-//W3C//DTD SVG 1.1//EN"
 "http://www.w3.org/Graphics/SVG/1.1/DTD/svg11.dtd">
<!-- Generated by graphviz version 2.43.0 (0)
 -->
<!-- Title: BitArray.hpp Pages: 1 -->
<svg width="639pt" height="196pt"
 viewBox="0.00 0.00 639.00 196.00" xmlns="http://www.w3.org/2000/svg" xmlns:xlink="http://www.w3.org/1999/xlink">
<g id="graph0" class="graph" transform="scale(1 1) rotate(0) translate(4 192)">
<title>BitArray.hpp</title>
<polygon fill="white" stroke="transparent" points="-4,4 -4,-192 635,-192 635,4 -4,4"/>
<!-- Node1 -->
<g id="node1" class="node">
<title>Node1</title>
<g id="a_node1"><a xlink:title=" ">
<polygon fill="#bfbfbf" stroke="black" points="108,-168.5 108,-187.5 184,-187.5 184,-168.5 108,-168.5"/>
<text text-anchor="middle" x="146" y="-175.5" font-family="Helvetica,sans-Serif" font-size="10.00">BitArray.hpp</text>
</a>
</g>
</g>
<!-- Node2 -->
<g id="node2" class="node">
<title>Node2</title>
<g id="a_node2"><a xlink:href="../../d2/d25/MAX7219_8hpp.html" target="_top" xlink:title=" ">
<polygon fill="white" stroke="black" points="0,-112.5 0,-131.5 84,-131.5 84,-112.5 0,-112.5"/>
<text text-anchor="middle" x="42" y="-119.5" font-family="Helvetica,sans-Serif" font-size="10.00">MAX7219.hpp</text>
</a>
</g>
</g>
<!-- Node1&#45;&gt;Node2 -->
<g id="edge1" class="edge">
<title>Node1&#45;&gt;Node2</title>
<path fill="none" stroke="midnightblue" d="M120.17,-163.59C100.94,-153.61 75.26,-140.27 58.67,-131.65"/>
<polygon fill="midnightblue" stroke="midnightblue" points="118.8,-166.82 129.29,-168.32 122.03,-160.61 118.8,-166.82"/>
</g>
<!-- Node3 -->
<g id="node3" class="node">
<title>Node3</title>
<g id="a_node3"><a xlink:href="../../d7/dca/MCP23017_8hpp.html" target="_top" xlink:title=" ">
<polygon fill="white" stroke="black" points="101.5,-112.5 101.5,-131.5 190.5,-131.5 190.5,-112.5 101.5,-112.5"/>
<text text-anchor="middle" x="146" y="-119.5" font-family="Helvetica,sans-Serif" font-size="10.00">MCP23017.hpp</text>
</a>
</g>
</g>
<!-- Node1&#45;&gt;Node3 -->
<g id="edge2" class="edge">
<title>Node1&#45;&gt;Node3</title>
<path fill="none" stroke="midnightblue" d="M146,-157.8C146,-148.91 146,-138.78 146,-131.75"/>
<polygon fill="midnightblue" stroke="midnightblue" points="142.5,-158.08 146,-168.08 149.5,-158.08 142.5,-158.08"/>
</g>
<!-- Node5 -->
<g id="node5" class="node">
<title>Node5</title>
<g id="a_node5"><a xlink:href="../../d8/d93/ShiftRegisterOutBase_8hpp.html" target="_top" xlink:title=" ">
<polygon fill="white" stroke="black" points="345.5,-112.5 345.5,-131.5 486.5,-131.5 486.5,-112.5 345.5,-112.5"/>
<text text-anchor="middle" x="416" y="-119.5" font-family="Helvetica,sans-Serif" font-size="10.00">ShiftRegisterOutBase.hpp</text>
</a>
</g>
</g>
<!-- Node1&#45;&gt;Node5 -->
<g id="edge5" class="edge">
<title>Node1&#45;&gt;Node5</title>
<path fill="none" stroke="midnightblue" d="M194.2,-167.36C245.06,-157.19 324.45,-141.31 373.18,-131.56"/>
<polygon fill="midnightblue" stroke="midnightblue" points="193.23,-163.98 184.11,-169.38 194.6,-170.85 193.23,-163.98"/>
</g>
<!-- Node4 -->
<g id="node4" class="node">
<title>Node4</title>
<g id="a_node4"><a xlink:href="../../d2/d94/MCP23017_8ipp.html" target="_top" xlink:title=" ">
<polygon fill="white" stroke="black" points="103,-56.5 103,-75.5 189,-75.5 189,-56.5 103,-56.5"/>
<text text-anchor="middle" x="146" y="-63.5" font-family="Helvetica,sans-Serif" font-size="10.00">MCP23017.ipp</text>
</a>
</g>
</g>
<!-- Node3&#45;&gt;Node4 -->
<g id="edge3" class="edge">
<title>Node3&#45;&gt;Node4</title>
<path fill="none" stroke="midnightblue" d="M139.53,-102.1C138.9,-93.14 139.34,-82.86 140.87,-75.75"/>
<polygon fill="midnightblue" stroke="midnightblue" points="136.07,-102.62 140.83,-112.08 143.01,-101.71 136.07,-102.62"/>
</g>
<!-- Node4&#45;&gt;Node3 -->
<g id="edge4" class="edge">
<title>Node4&#45;&gt;Node3</title>
<path fill="none" stroke="midnightblue" d="M152.46,-85.69C153.11,-94.64 152.68,-104.93 151.17,-112.08"/>
<polygon fill="midnightblue" stroke="midnightblue" points="155.92,-85.2 151.13,-75.75 148.98,-86.13 155.92,-85.2"/>
</g>
<!-- Node6 -->
<g id="node6" class="node">
<title>Node6</title>
<g id="a_node6"><a xlink:href="../../d7/d88/SPIShiftRegisterOut_8hpp.html" target="_top" xlink:title=" ">
<polygon fill="white" stroke="black" points="207,-56.5 207,-75.5 339,-75.5 339,-56.5 207,-56.5"/>
<text text-anchor="middle" x="273" y="-63.5" font-family="Helvetica,sans-Serif" font-size="10.00">SPIShiftRegisterOut.hpp</text>
</a>
</g>
</g>
<!-- Node5&#45;&gt;Node6 -->
<g id="edge6" class="edge">
<title>Node5&#45;&gt;Node6</title>
<path fill="none" stroke="midnightblue" d="M383.97,-108.91C357.09,-98.75 319.36,-84.51 295.55,-75.52"/>
<polygon fill="midnightblue" stroke="midnightblue" points="382.75,-112.19 393.34,-112.44 385.22,-105.64 382.75,-112.19"/>
</g>
<!-- Node8 -->
<g id="node8" class="node">
<title>Node8</title>
<g id="a_node8"><a xlink:href="../../d0/db4/ShiftRegisterOut_8hpp.html" target="_top" xlink:title=" ">
<polygon fill="white" stroke="black" points="357.5,-56.5 357.5,-75.5 474.5,-75.5 474.5,-56.5 357.5,-56.5"/>
<text text-anchor="middle" x="416" y="-63.5" font-family="Helvetica,sans-Serif" font-size="10.00">ShiftRegisterOut.hpp</text>
</a>
</g>
</g>
<!-- Node5&#45;&gt;Node8 -->
<g id="edge9" class="edge">
<title>Node5&#45;&gt;Node8</title>
<path fill="none" stroke="midnightblue" d="M416,-101.8C416,-92.91 416,-82.78 416,-75.75"/>
<polygon fill="midnightblue" stroke="midnightblue" points="412.5,-102.08 416,-112.08 419.5,-102.08 412.5,-102.08"/>
</g>
<!-- Node10 -->
<g id="node10" class="node">
<title>Node10</title>
<g id="a_node10"><a xlink:href="../../d5/d47/ShiftRegisterOutBase_8ipp.html" target="_top" xlink:title=" ">
<polygon fill="white" stroke="black" points="493,-56.5 493,-75.5 631,-75.5 631,-56.5 493,-56.5"/>
<text text-anchor="middle" x="562" y="-63.5" font-family="Helvetica,sans-Serif" font-size="10.00">ShiftRegisterOutBase.ipp</text>
</a>
</g>
</g>
<!-- Node5&#45;&gt;Node10 -->
<g id="edge12" class="edge">
<title>Node5&#45;&gt;Node10</title>
<path fill="none" stroke="midnightblue" d="M443.65,-108.64C469.55,-98.5 507.84,-84.43 533.89,-75.52"/>
<polygon fill="midnightblue" stroke="midnightblue" points="442.05,-105.5 434.05,-112.44 444.63,-112.01 442.05,-105.5"/>
</g>
<!-- Node7 -->
<g id="node7" class="node">
<title>Node7</title>
<g id="a_node7"><a xlink:href="../../da/d45/SPIShiftRegisterOut_8ipp.html" target="_top" xlink:title=" ">
<polygon fill="white" stroke="black" points="208.5,-0.5 208.5,-19.5 337.5,-19.5 337.5,-0.5 208.5,-0.5"/>
<text text-anchor="middle" x="273" y="-7.5" font-family="Helvetica,sans-Serif" font-size="10.00">SPIShiftRegisterOut.ipp</text>
</a>
</g>
</g>
<!-- Node6&#45;&gt;Node7 -->
<g id="edge7" class="edge">
<title>Node6&#45;&gt;Node7</title>
<path fill="none" stroke="midnightblue" d="M266.53,-46.1C265.9,-37.14 266.34,-26.86 267.87,-19.75"/>
<polygon fill="midnightblue" stroke="midnightblue" points="263.07,-46.62 267.83,-56.08 270.01,-45.71 263.07,-46.62"/>
</g>
<!-- Node7&#45;&gt;Node6 -->
<g id="edge8" class="edge">
<title>Node7&#45;&gt;Node6</title>
<path fill="none" stroke="midnightblue" d="M279.46,-29.69C280.11,-38.64 279.68,-48.93 278.17,-56.08"/>
<polygon fill="midnightblue" stroke="midnightblue" points="282.92,-29.2 278.13,-19.75 275.98,-30.13 282.92,-29.2"/>
</g>
<!-- Node9 -->
<g id="node9" class="node">
<title>Node9</title>
<g id="a_node9"><a xlink:href="../../de/d95/ShiftRegisterOut_8ipp.html" target="_top" xlink:title=" ">
<polygon fill="white" stroke="black" points="359,-0.5 359,-19.5 473,-19.5 473,-0.5 359,-0.5"/>
<text text-anchor="middle" x="416" y="-7.5" font-family="Helvetica,sans-Serif" font-size="10.00">ShiftRegisterOut.ipp</text>
</a>
</g>
</g>
<!-- Node8&#45;&gt;Node9 -->
<g id="edge10" class="edge">
<title>Node8&#45;&gt;Node9</title>
<path fill="none" stroke="midnightblue" d="M409.53,-46.1C408.9,-37.14 409.34,-26.86 410.87,-19.75"/>
<polygon fill="midnightblue" stroke="midnightblue" points="406.07,-46.62 410.83,-56.08 413.01,-45.71 406.07,-46.62"/>
</g>
<!-- Node9&#45;&gt;Node8 -->
<g id="edge11" class="edge">
<title>Node9&#45;&gt;Node8</title>
<path fill="none" stroke="midnightblue" d="M422.46,-29.69C423.11,-38.64 422.68,-48.93 421.17,-56.08"/>
<polygon fill="midnightblue" stroke="midnightblue" points="425.92,-29.2 421.13,-19.75 418.98,-30.13 425.92,-29.2"/>
</g>
<!-- Node10&#45;&gt;Node5 -->
<g id="edge13" class="edge">
<title>Node10&#45;&gt;Node5</title>
<path fill="none" stroke="midnightblue" d="M534.47,-79.32C508.61,-89.44 470.32,-103.52 444.22,-112.44"/>
<polygon fill="midnightblue" stroke="midnightblue" points="536.05,-82.46 544.05,-75.52 533.47,-75.95 536.05,-82.46"/>
</g>
</g>
</svg>
