<?xml version="1.0" encoding="UTF-8" standalone="no"?>
<!DOCTYPE svg PUBLIC "-//W3C//DTD SVG 1.1//EN"
 "http://www.w3.org/Graphics/SVG/1.1/DTD/svg11.dtd">
<!-- Generated by graphviz version 2.43.0 (0)
 -->
<!-- Title: Error.hpp Pages: 1 -->
<svg width="1930pt" height="532pt"
 viewBox="0.00 0.00 1929.65 532.00" xmlns="http://www.w3.org/2000/svg" xmlns:xlink="http://www.w3.org/1999/xlink">
<g id="graph0" class="graph" transform="scale(1 1) rotate(0) translate(4 528)">
<title>Error.hpp</title>
<polygon fill="white" stroke="transparent" points="-4,4 -4,-528 1925.65,-528 1925.65,4 -4,4"/>
<!-- Node1 -->
<g id="node1" class="node">
<title>Node1</title>
<g id="a_node1"><a xlink:title=" ">
<polygon fill="#bfbfbf" stroke="black" points="689.15,-504.5 689.15,-523.5 749.15,-523.5 749.15,-504.5 689.15,-504.5"/>
<text text-anchor="middle" x="719.15" y="-511.5" font-family="Helvetica,sans-Serif" font-size="10.00">Error.hpp</text>
</a>
</g>
</g>
<!-- Node2 -->
<g id="node2" class="node">
<title>Node2</title>
<g id="a_node2"><a xlink:href="../../de/d76/Array_8hpp.html" target="_top" xlink:title=" ">
<polygon fill="white" stroke="black" points="568.15,-448.5 568.15,-467.5 630.15,-467.5 630.15,-448.5 568.15,-448.5"/>
<text text-anchor="middle" x="599.15" y="-455.5" font-family="Helvetica,sans-Serif" font-size="10.00">Array.hpp</text>
</a>
</g>
</g>
<!-- Node1&#45;&gt;Node2 -->
<g id="edge1" class="edge">
<title>Node1&#45;&gt;Node2</title>
<path fill="none" stroke="midnightblue" d="M690.78,-500.23C668.33,-490.13 637.62,-476.31 618.08,-467.52"/>
<polygon fill="midnightblue" stroke="midnightblue" points="689.58,-503.53 700.14,-504.44 692.45,-497.15 689.58,-503.53"/>
</g>
<!-- Node33 -->
<g id="node33" class="node">
<title>Node33</title>
<g id="a_node33"><a xlink:href="../../da/d1f/ExtendedIOElement_8cpp.html" target="_top" xlink:title=" ">
<polygon fill="white" stroke="black" points="108.15,-168.5 108.15,-187.5 242.15,-187.5 242.15,-168.5 108.15,-168.5"/>
<text text-anchor="middle" x="175.15" y="-175.5" font-family="Helvetica,sans-Serif" font-size="10.00">ExtendedIOElement.cpp</text>
</a>
</g>
</g>
<!-- Node1&#45;&gt;Node33 -->
<g id="edge71" class="edge">
<title>Node1&#45;&gt;Node33</title>
<path fill="none" stroke="midnightblue" d="M678.69,-512.12C559.71,-509.18 216.83,-498.16 177.15,-468 152.63,-449.36 153.15,-433.8 153.15,-403 153.15,-403 153.15,-403 153.15,-289 153.15,-250.63 166.18,-206.18 172.18,-187.72"/>
<polygon fill="midnightblue" stroke="midnightblue" points="678.75,-515.62 688.84,-512.36 678.92,-508.62 678.75,-515.62"/>
</g>
<!-- Node34 -->
<g id="node34" class="node">
<title>Node34</title>
<g id="a_node34"><a xlink:href="../../d6/d3c/ExtendedInputOutput_8cpp.html" target="_top" xlink:title=" ">
<polygon fill="white" stroke="black" points="672.15,-168.5 672.15,-187.5 812.15,-187.5 812.15,-168.5 672.15,-168.5"/>
<text text-anchor="middle" x="742.15" y="-175.5" font-family="Helvetica,sans-Serif" font-size="10.00">ExtendedInputOutput.cpp</text>
</a>
</g>
</g>
<!-- Node1&#45;&gt;Node34 -->
<g id="edge72" class="edge">
<title>Node1&#45;&gt;Node34</title>
<path fill="none" stroke="midnightblue" d="M751.23,-500.5C800.56,-479.31 893.29,-431.16 931.15,-356 952.94,-312.74 804.12,-216.89 756.48,-187.64"/>
<polygon fill="midnightblue" stroke="midnightblue" points="749.84,-497.29 741.97,-504.38 752.55,-503.74 749.84,-497.29"/>
</g>
<!-- Node45 -->
<g id="node45" class="node">
<title>Node45</title>
<g id="a_node45"><a xlink:href="../../d1/d40/BitArray_8hpp.html" target="_top" xlink:title=" ">
<polygon fill="white" stroke="black" points="14.15,-168.5 14.15,-187.5 90.15,-187.5 90.15,-168.5 14.15,-168.5"/>
<text text-anchor="middle" x="52.15" y="-175.5" font-family="Helvetica,sans-Serif" font-size="10.00">BitArray.hpp</text>
</a>
</g>
</g>
<!-- Node1&#45;&gt;Node45 -->
<g id="edge66" class="edge">
<title>Node1&#45;&gt;Node45</title>
<path fill="none" stroke="midnightblue" d="M678.9,-511.24C598.24,-506.16 413.15,-486.6 280.15,-412 171.56,-351.09 81.22,-222.79 57.97,-187.91"/>
<polygon fill="midnightblue" stroke="midnightblue" points="678.93,-514.74 689.12,-511.84 679.34,-507.76 678.93,-514.74"/>
</g>
<!-- Node46 -->
<g id="node46" class="node">
<title>Node46</title>
<g id="a_node46"><a xlink:href="../../d6/df4/Exit_8cpp.html" target="_top" xlink:title=" ">
<polygon fill="white" stroke="black" points="891.15,-448.5 891.15,-467.5 947.15,-467.5 947.15,-448.5 891.15,-448.5"/>
<text text-anchor="middle" x="919.15" y="-455.5" font-family="Helvetica,sans-Serif" font-size="10.00">Exit.cpp</text>
</a>
</g>
</g>
<!-- Node1&#45;&gt;Node46 -->
<g id="edge70" class="edge">
<title>Node1&#45;&gt;Node46</title>
<path fill="none" stroke="midnightblue" d="M759.51,-502.1C798.59,-491.55 856.8,-475.83 891.08,-466.58"/>
<polygon fill="midnightblue" stroke="midnightblue" points="758.27,-498.81 749.53,-504.8 760.09,-505.57 758.27,-498.81"/>
</g>
<!-- Node47 -->
<g id="node47" class="node">
<title>Node47</title>
<g id="a_node47"><a xlink:href="../../d3/d50/FixedPoint_8hpp.html" target="_top" xlink:title=" ">
<polygon fill="white" stroke="black" points="965.15,-448.5 965.15,-467.5 1053.15,-467.5 1053.15,-448.5 965.15,-448.5"/>
<text text-anchor="middle" x="1009.15" y="-455.5" font-family="Helvetica,sans-Serif" font-size="10.00">FixedPoint.hpp</text>
</a>
</g>
</g>
<!-- Node1&#45;&gt;Node47 -->
<g id="edge73" class="edge">
<title>Node1&#45;&gt;Node47</title>
<path fill="none" stroke="midnightblue" d="M759.27,-505.53C813.31,-495.47 909.15,-477.62 965.13,-467.2"/>
<polygon fill="midnightblue" stroke="midnightblue" points="758.56,-502.1 749.37,-507.37 759.84,-508.98 758.56,-502.1"/>
</g>
<!-- Node48 -->
<g id="node48" class="node">
<title>Node48</title>
<g id="a_node48"><a xlink:href="../../d4/d93/Updatable_8hpp.html" target="_top" xlink:title=" ">
<polygon fill="white" stroke="black" points="582.15,-280.5 582.15,-299.5 670.15,-299.5 670.15,-280.5 582.15,-280.5"/>
<text text-anchor="middle" x="626.15" y="-287.5" font-family="Helvetica,sans-Serif" font-size="10.00">Updatable.hpp</text>
</a>
</g>
</g>
<!-- Node1&#45;&gt;Node48 -->
<g id="edge74" class="edge">
<title>Node1&#45;&gt;Node48</title>
<path fill="none" stroke="midnightblue" d="M714.51,-494.36C708.23,-470.25 696.08,-427.17 681.15,-392 666.01,-356.35 642.23,-316.73 631.6,-299.63"/>
<polygon fill="midnightblue" stroke="midnightblue" points="711.18,-495.46 717.04,-504.29 717.96,-493.73 711.18,-495.46"/>
</g>
<!-- Node49 -->
<g id="node49" class="node">
<title>Node49</title>
<g id="a_node49"><a xlink:href="../../d4/d1b/vector_8cpp.html" target="_top" xlink:title=" ">
<polygon fill="white" stroke="black" points="1071.65,-448.5 1071.65,-467.5 1138.65,-467.5 1138.65,-448.5 1071.65,-448.5"/>
<text text-anchor="middle" x="1105.15" y="-455.5" font-family="Helvetica,sans-Serif" font-size="10.00">vector.cpp</text>
</a>
</g>
</g>
<!-- Node1&#45;&gt;Node49 -->
<g id="edge76" class="edge">
<title>Node1&#45;&gt;Node49</title>
<path fill="none" stroke="midnightblue" d="M759.67,-508.69C824,-501.63 953.34,-486.5 1062.15,-468 1065.16,-467.49 1068.28,-466.92 1071.4,-466.32"/>
<polygon fill="midnightblue" stroke="midnightblue" points="759.11,-505.23 749.55,-509.8 759.87,-512.19 759.11,-505.23"/>
</g>
<!-- Node3 -->
<g id="node3" class="node">
<title>Node3</title>
<g id="a_node3"><a xlink:href="../../d7/def/AnalogMultiplex_8hpp.html" target="_top" xlink:title=" ">
<polygon fill="white" stroke="black" points="1045.65,-112.5 1045.65,-131.5 1162.65,-131.5 1162.65,-112.5 1045.65,-112.5"/>
<text text-anchor="middle" x="1104.15" y="-119.5" font-family="Helvetica,sans-Serif" font-size="10.00">AnalogMultiplex.hpp</text>
</a>
</g>
</g>
<!-- Node2&#45;&gt;Node3 -->
<g id="edge2" class="edge">
<title>Node2&#45;&gt;Node3</title>
<path fill="none" stroke="midnightblue" d="M640.56,-453.56C773.4,-441.96 1180.15,-401.97 1180.15,-347 1180.15,-347 1180.15,-347 1180.15,-233 1180.15,-188.2 1136.95,-148.43 1115.69,-131.57"/>
<polygon fill="midnightblue" stroke="midnightblue" points="640.05,-450.09 630.39,-454.44 640.65,-457.06 640.05,-450.09"/>
</g>
<!-- Node4 -->
<g id="node4" class="node">
<title>Node4</title>
<g id="a_node4"><a xlink:href="../../d5/db6/ArrayHelpers_8hpp.html" target="_top" xlink:title=" ">
<polygon fill="white" stroke="black" points="436.65,-336.5 436.65,-355.5 537.65,-355.5 537.65,-336.5 436.65,-336.5"/>
<text text-anchor="middle" x="487.15" y="-343.5" font-family="Helvetica,sans-Serif" font-size="10.00">ArrayHelpers.hpp</text>
</a>
</g>
</g>
<!-- Node2&#45;&gt;Node4 -->
<g id="edge3" class="edge">
<title>Node2&#45;&gt;Node4</title>
<path fill="none" stroke="midnightblue" d="M559.22,-444.82C541.77,-437.72 522.32,-427.11 509.15,-412 494.75,-395.47 489.69,-369.12 487.98,-355.61"/>
<polygon fill="midnightblue" stroke="midnightblue" points="558.06,-448.13 568.65,-448.41 560.55,-441.59 558.06,-448.13"/>
</g>
<!-- Node17 -->
<g id="node17" class="node">
<title>Node17</title>
<g id="a_node17"><a xlink:href="../../d1/dde/BiQuad_8hpp.html" target="_top" xlink:title=" ">
<polygon fill="white" stroke="black" points="242.65,-336.5 242.65,-355.5 315.65,-355.5 315.65,-336.5 242.65,-336.5"/>
<text text-anchor="middle" x="279.15" y="-343.5" font-family="Helvetica,sans-Serif" font-size="10.00">BiQuad.hpp</text>
</a>
</g>
</g>
<!-- Node2&#45;&gt;Node17 -->
<g id="edge21" class="edge">
<title>Node2&#45;&gt;Node17</title>
<path fill="none" stroke="midnightblue" d="M557.62,-456.32C483.8,-454.26 333.93,-445.89 296.15,-412 280,-397.51 278.35,-369.76 278.65,-355.67"/>
<polygon fill="midnightblue" stroke="midnightblue" points="557.85,-459.83 567.94,-456.59 558.03,-452.83 557.85,-459.83"/>
</g>
<!-- Node18 -->
<g id="node18" class="node">
<title>Node18</title>
<g id="a_node18"><a xlink:href="../../d2/d3b/FIRFilter_8hpp.html" target="_top" xlink:title=" ">
<polygon fill="white" stroke="black" points="517.65,-392.5 517.65,-411.5 594.65,-411.5 594.65,-392.5 517.65,-392.5"/>
<text text-anchor="middle" x="556.15" y="-399.5" font-family="Helvetica,sans-Serif" font-size="10.00">FIRFilter.hpp</text>
</a>
</g>
</g>
<!-- Node2&#45;&gt;Node18 -->
<g id="edge23" class="edge">
<title>Node2&#45;&gt;Node18</title>
<path fill="none" stroke="midnightblue" d="M585.73,-440.14C578.24,-430.74 569.21,-419.4 563.12,-411.75"/>
<polygon fill="midnightblue" stroke="midnightblue" points="583.08,-442.44 592.05,-448.08 588.56,-438.08 583.08,-442.44"/>
</g>
<!-- Node20 -->
<g id="node20" class="node">
<title>Node20</title>
<g id="a_node20"><a xlink:href="../../d4/d35/Hardware-Types_8hpp.html" target="_top" xlink:title=" ">
<polygon fill="white" stroke="black" points="728.15,-392.5 728.15,-411.5 844.15,-411.5 844.15,-392.5 728.15,-392.5"/>
<text text-anchor="middle" x="786.15" y="-399.5" font-family="Helvetica,sans-Serif" font-size="10.00">Hardware&#45;Types.hpp</text>
</a>
</g>
</g>
<!-- Node2&#45;&gt;Node20 -->
<g id="edge25" class="edge">
<title>Node2&#45;&gt;Node20</title>
<path fill="none" stroke="midnightblue" d="M638.74,-445.57C674.02,-435.38 724.84,-420.7 756.66,-411.52"/>
<polygon fill="midnightblue" stroke="midnightblue" points="637.42,-442.31 628.78,-448.44 639.36,-449.03 637.42,-442.31"/>
</g>
<!-- Node41 -->
<g id="node41" class="node">
<title>Node41</title>
<g id="a_node41"><a xlink:href="../../dc/d64/IIRFilter_8hpp.html" target="_top" xlink:title=" ">
<polygon fill="white" stroke="black" points="341.15,-336.5 341.15,-355.5 415.15,-355.5 415.15,-336.5 341.15,-336.5"/>
<text text-anchor="middle" x="378.15" y="-343.5" font-family="Helvetica,sans-Serif" font-size="10.00">IIRFilter.hpp</text>
</a>
</g>
</g>
<!-- Node2&#45;&gt;Node41 -->
<g id="edge59" class="edge">
<title>Node2&#45;&gt;Node41</title>
<path fill="none" stroke="midnightblue" d="M567.38,-444.61C546.1,-436.04 517.61,-424.06 493.15,-412 455.71,-393.55 413.38,-368.48 392.04,-355.53"/>
<polygon fill="midnightblue" stroke="midnightblue" points="566.31,-447.95 576.9,-448.41 568.91,-441.45 566.31,-447.95"/>
</g>
<!-- Node42 -->
<g id="node42" class="node">
<title>Node42</title>
<g id="a_node42"><a xlink:href="../../dd/ddf/RegisterEncoders_8hpp.html" target="_top" xlink:title=" ">
<polygon fill="white" stroke="black" points="1450.15,-280.5 1450.15,-299.5 1572.15,-299.5 1572.15,-280.5 1450.15,-280.5"/>
<text text-anchor="middle" x="1511.15" y="-287.5" font-family="Helvetica,sans-Serif" font-size="10.00">RegisterEncoders.hpp</text>
</a>
</g>
</g>
<!-- Node2&#45;&gt;Node42 -->
<g id="edge60" class="edge">
<title>Node2&#45;&gt;Node42</title>
<path fill="none" stroke="midnightblue" d="M640.41,-456.77C737.66,-455.59 988.54,-448.9 1194.15,-412 1282.9,-396.07 1305.57,-389.83 1389.15,-356 1430.08,-339.43 1475.2,-313.1 1497.34,-299.6"/>
<polygon fill="midnightblue" stroke="midnightblue" points="640.37,-453.27 630.4,-456.87 640.44,-460.27 640.37,-453.27"/>
</g>
<!-- Node43 -->
<g id="node43" class="node">
<title>Node43</title>
<g id="a_node43"><a xlink:href="../../dc/d9c/SMA_8hpp.html" target="_top" xlink:title=" ">
<polygon fill="white" stroke="black" points="612.65,-392.5 612.65,-411.5 671.65,-411.5 671.65,-392.5 612.65,-392.5"/>
<text text-anchor="middle" x="642.15" y="-399.5" font-family="Helvetica,sans-Serif" font-size="10.00">SMA.hpp</text>
</a>
</g>
</g>
<!-- Node2&#45;&gt;Node43 -->
<g id="edge62" class="edge">
<title>Node2&#45;&gt;Node43</title>
<path fill="none" stroke="midnightblue" d="M612.57,-440.14C620.07,-430.74 629.09,-419.4 635.18,-411.75"/>
<polygon fill="midnightblue" stroke="midnightblue" points="609.74,-438.08 606.25,-448.08 615.22,-442.44 609.74,-438.08"/>
</g>
<!-- Node44 -->
<g id="node44" class="node">
<title>Node44</title>
<g id="a_node44"><a xlink:href="../../d2/d03/TransferFunction_8hpp.html" target="_top" xlink:title=" ">
<polygon fill="white" stroke="black" points="305.15,-392.5 305.15,-411.5 423.15,-411.5 423.15,-392.5 305.15,-392.5"/>
<text text-anchor="middle" x="364.15" y="-399.5" font-family="Helvetica,sans-Serif" font-size="10.00">TransferFunction.hpp</text>
</a>
</g>
</g>
<!-- Node2&#45;&gt;Node44 -->
<g id="edge63" class="edge">
<title>Node2&#45;&gt;Node44</title>
<path fill="none" stroke="midnightblue" d="M558.09,-447.56C513.83,-437.39 443.99,-421.35 401.3,-411.54"/>
<polygon fill="midnightblue" stroke="midnightblue" points="557.42,-451 567.94,-449.83 558.98,-444.18 557.42,-451"/>
</g>
<!-- Node5 -->
<g id="node5" class="node">
<title>Node5</title>
<g id="a_node5"><a xlink:href="../../df/ddc/SOSFilter_8hpp.html" target="_top" xlink:title=" ">
<polygon fill="white" stroke="black" points="238.65,-280.5 238.65,-299.5 319.65,-299.5 319.65,-280.5 238.65,-280.5"/>
<text text-anchor="middle" x="279.15" y="-287.5" font-family="Helvetica,sans-Serif" font-size="10.00">SOSFilter.hpp</text>
</a>
</g>
</g>
<!-- Node4&#45;&gt;Node5 -->
<g id="edge4" class="edge">
<title>Node4&#45;&gt;Node5</title>
<path fill="none" stroke="midnightblue" d="M444.37,-333.89C405.09,-323.7 347.72,-308.8 311.96,-299.52"/>
<polygon fill="midnightblue" stroke="midnightblue" points="443.63,-337.32 454.19,-336.44 445.39,-330.54 443.63,-337.32"/>
</g>
<!-- Node7 -->
<g id="node7" class="node">
<title>Node7</title>
<g id="a_node7"><a xlink:href="../../d2/d05/StaticSizeExtendedIOElement_8hpp.html" target="_top" xlink:title=" ">
<polygon fill="white" stroke="black" points="472.15,-168.5 472.15,-187.5 654.15,-187.5 654.15,-168.5 472.15,-168.5"/>
<text text-anchor="middle" x="563.15" y="-175.5" font-family="Helvetica,sans-Serif" font-size="10.00">StaticSizeExtendedIOElement.hpp</text>
</a>
</g>
</g>
<!-- Node4&#45;&gt;Node7 -->
<g id="edge6" class="edge">
<title>Node4&#45;&gt;Node7</title>
<path fill="none" stroke="midnightblue" d="M498.35,-328C510.88,-308.41 531.11,-274.93 544.15,-244 552.37,-224.5 558.43,-200.29 561.3,-187.63"/>
<polygon fill="midnightblue" stroke="midnightblue" points="495.39,-326.14 492.89,-336.43 501.27,-329.94 495.39,-326.14"/>
</g>
<!-- Node6 -->
<g id="node6" class="node">
<title>Node6</title>
<g id="a_node6"><a xlink:href="../../d4/d40/Butterworth_8hpp.html" target="_top" xlink:title=" ">
<polygon fill="white" stroke="black" points="181.65,-224.5 181.65,-243.5 276.65,-243.5 276.65,-224.5 181.65,-224.5"/>
<text text-anchor="middle" x="229.15" y="-231.5" font-family="Helvetica,sans-Serif" font-size="10.00">Butterworth.hpp</text>
</a>
</g>
</g>
<!-- Node5&#45;&gt;Node6 -->
<g id="edge5" class="edge">
<title>Node5&#45;&gt;Node6</title>
<path fill="none" stroke="midnightblue" d="M264.07,-272.72C255.26,-263.2 244.49,-251.56 237.25,-243.75"/>
<polygon fill="midnightblue" stroke="midnightblue" points="261.53,-275.12 270.89,-280.08 266.67,-270.37 261.53,-275.12"/>
</g>
<!-- Node7&#45;&gt;Node3 -->
<g id="edge7" class="edge">
<title>Node7&#45;&gt;Node3</title>
<path fill="none" stroke="midnightblue" d="M664.47,-167.85C781.66,-157.18 967.43,-139.99 1037.15,-132 1039.83,-131.69 1042.57,-131.37 1045.34,-131.03"/>
<polygon fill="midnightblue" stroke="midnightblue" points="664.04,-164.37 654.4,-168.76 664.68,-171.34 664.04,-164.37"/>
</g>
<!-- Node8 -->
<g id="node8" class="node">
<title>Node8</title>
<g id="a_node8"><a xlink:href="../../d2/d25/MAX7219_8hpp.html" target="_top" xlink:title=" ">
<polygon fill="white" stroke="black" points="10.15,-112.5 10.15,-131.5 94.15,-131.5 94.15,-112.5 10.15,-112.5"/>
<text text-anchor="middle" x="52.15" y="-119.5" font-family="Helvetica,sans-Serif" font-size="10.00">MAX7219.hpp</text>
</a>
</g>
</g>
<!-- Node7&#45;&gt;Node8 -->
<g id="edge8" class="edge">
<title>Node7&#45;&gt;Node8</title>
<path fill="none" stroke="midnightblue" d="M472.25,-167.39C360.91,-155.63 176.96,-136.19 94.47,-127.47"/>
<polygon fill="midnightblue" stroke="midnightblue" points="472.15,-170.9 482.46,-168.47 472.89,-163.94 472.15,-170.9"/>
</g>
<!-- Node9 -->
<g id="node9" class="node">
<title>Node9</title>
<g id="a_node9"><a xlink:href="../../d7/dca/MCP23017_8hpp.html" target="_top" xlink:title=" ">
<polygon fill="white" stroke="black" points="518.65,-112.5 518.65,-131.5 607.65,-131.5 607.65,-112.5 518.65,-112.5"/>
<text text-anchor="middle" x="563.15" y="-119.5" font-family="Helvetica,sans-Serif" font-size="10.00">MCP23017.hpp</text>
</a>
</g>
</g>
<!-- Node7&#45;&gt;Node9 -->
<g id="edge9" class="edge">
<title>Node7&#45;&gt;Node9</title>
<path fill="none" stroke="midnightblue" d="M563.15,-157.8C563.15,-148.91 563.15,-138.78 563.15,-131.75"/>
<polygon fill="midnightblue" stroke="midnightblue" points="559.65,-158.08 563.15,-168.08 566.65,-158.08 559.65,-158.08"/>
</g>
<!-- Node11 -->
<g id="node11" class="node">
<title>Node11</title>
<g id="a_node11"><a xlink:href="../../d8/d93/ShiftRegisterOutBase_8hpp.html" target="_top" xlink:title=" ">
<polygon fill="white" stroke="black" points="886.65,-112.5 886.65,-131.5 1027.65,-131.5 1027.65,-112.5 886.65,-112.5"/>
<text text-anchor="middle" x="957.15" y="-119.5" font-family="Helvetica,sans-Serif" font-size="10.00">ShiftRegisterOutBase.hpp</text>
</a>
</g>
</g>
<!-- Node7&#45;&gt;Node11 -->
<g id="edge12" class="edge">
<title>Node7&#45;&gt;Node11</title>
<path fill="none" stroke="midnightblue" d="M635.81,-167.04C710.22,-156.84 824.67,-141.16 895.01,-131.52"/>
<polygon fill="midnightblue" stroke="midnightblue" points="635.01,-163.62 625.58,-168.44 635.96,-170.55 635.01,-163.62"/>
</g>
<!-- Node10 -->
<g id="node10" class="node">
<title>Node10</title>
<g id="a_node10"><a xlink:href="../../d2/d94/MCP23017_8ipp.html" target="_top" xlink:title=" ">
<polygon fill="white" stroke="black" points="520.15,-56.5 520.15,-75.5 606.15,-75.5 606.15,-56.5 520.15,-56.5"/>
<text text-anchor="middle" x="563.15" y="-63.5" font-family="Helvetica,sans-Serif" font-size="10.00">MCP23017.ipp</text>
</a>
</g>
</g>
<!-- Node9&#45;&gt;Node10 -->
<g id="edge10" class="edge">
<title>Node9&#45;&gt;Node10</title>
<path fill="none" stroke="midnightblue" d="M556.68,-102.1C556.05,-93.14 556.49,-82.86 558.02,-75.75"/>
<polygon fill="midnightblue" stroke="midnightblue" points="553.22,-102.62 557.98,-112.08 560.16,-101.71 553.22,-102.62"/>
</g>
<!-- Node10&#45;&gt;Node9 -->
<g id="edge11" class="edge">
<title>Node10&#45;&gt;Node9</title>
<path fill="none" stroke="midnightblue" d="M569.61,-85.69C570.26,-94.64 569.83,-104.93 568.32,-112.08"/>
<polygon fill="midnightblue" stroke="midnightblue" points="573.07,-85.2 568.28,-75.75 566.14,-86.13 573.07,-85.2"/>
</g>
<!-- Node12 -->
<g id="node12" class="node">
<title>Node12</title>
<g id="a_node12"><a xlink:href="../../d7/d88/SPIShiftRegisterOut_8hpp.html" target="_top" xlink:title=" ">
<polygon fill="white" stroke="black" points="886.15,-56.5 886.15,-75.5 1018.15,-75.5 1018.15,-56.5 886.15,-56.5"/>
<text text-anchor="middle" x="952.15" y="-63.5" font-family="Helvetica,sans-Serif" font-size="10.00">SPIShiftRegisterOut.hpp</text>
</a>
</g>
</g>
<!-- Node11&#45;&gt;Node12 -->
<g id="edge13" class="edge">
<title>Node11&#45;&gt;Node12</title>
<path fill="none" stroke="midnightblue" d="M955.4,-102.1C954.57,-93.14 953.62,-82.86 952.96,-75.75"/>
<polygon fill="midnightblue" stroke="midnightblue" points="951.92,-102.45 956.33,-112.08 958.89,-101.8 951.92,-102.45"/>
</g>
<!-- Node14 -->
<g id="node14" class="node">
<title>Node14</title>
<g id="a_node14"><a xlink:href="../../d0/db4/ShiftRegisterOut_8hpp.html" target="_top" xlink:title=" ">
<polygon fill="white" stroke="black" points="1036.65,-56.5 1036.65,-75.5 1153.65,-75.5 1153.65,-56.5 1036.65,-56.5"/>
<text text-anchor="middle" x="1095.15" y="-63.5" font-family="Helvetica,sans-Serif" font-size="10.00">ShiftRegisterOut.hpp</text>
</a>
</g>
</g>
<!-- Node11&#45;&gt;Node14 -->
<g id="edge16" class="edge">
<title>Node11&#45;&gt;Node14</title>
<path fill="none" stroke="midnightblue" d="M988.4,-108.77C1014.32,-98.63 1050.51,-84.47 1073.39,-75.52"/>
<polygon fill="midnightblue" stroke="midnightblue" points="987.05,-105.54 979.02,-112.44 989.61,-112.06 987.05,-105.54"/>
</g>
<!-- Node16 -->
<g id="node16" class="node">
<title>Node16</title>
<g id="a_node16"><a xlink:href="../../d5/d47/ShiftRegisterOutBase_8ipp.html" target="_top" xlink:title=" ">
<polygon fill="white" stroke="black" points="1172.15,-56.5 1172.15,-75.5 1310.15,-75.5 1310.15,-56.5 1172.15,-56.5"/>
<text text-anchor="middle" x="1241.15" y="-63.5" font-family="Helvetica,sans-Serif" font-size="10.00">ShiftRegisterOutBase.ipp</text>
</a>
</g>
</g>
<!-- Node11&#45;&gt;Node16 -->
<g id="edge19" class="edge">
<title>Node11&#45;&gt;Node16</title>
<path fill="none" stroke="midnightblue" d="M1007.03,-110.47C1058.89,-100.27 1139.43,-84.98 1191.28,-75.52"/>
<polygon fill="midnightblue" stroke="midnightblue" points="1006.19,-107.07 997.06,-112.44 1007.55,-113.94 1006.19,-107.07"/>
</g>
<!-- Node13 -->
<g id="node13" class="node">
<title>Node13</title>
<g id="a_node13"><a xlink:href="../../da/d45/SPIShiftRegisterOut_8ipp.html" target="_top" xlink:title=" ">
<polygon fill="white" stroke="black" points="887.65,-0.5 887.65,-19.5 1016.65,-19.5 1016.65,-0.5 887.65,-0.5"/>
<text text-anchor="middle" x="952.15" y="-7.5" font-family="Helvetica,sans-Serif" font-size="10.00">SPIShiftRegisterOut.ipp</text>
</a>
</g>
</g>
<!-- Node12&#45;&gt;Node13 -->
<g id="edge14" class="edge">
<title>Node12&#45;&gt;Node13</title>
<path fill="none" stroke="midnightblue" d="M945.68,-46.1C945.05,-37.14 945.49,-26.86 947.02,-19.75"/>
<polygon fill="midnightblue" stroke="midnightblue" points="942.22,-46.62 946.98,-56.08 949.16,-45.71 942.22,-46.62"/>
</g>
<!-- Node13&#45;&gt;Node12 -->
<g id="edge15" class="edge">
<title>Node13&#45;&gt;Node12</title>
<path fill="none" stroke="midnightblue" d="M958.61,-29.69C959.26,-38.64 958.83,-48.93 957.32,-56.08"/>
<polygon fill="midnightblue" stroke="midnightblue" points="962.07,-29.2 957.28,-19.75 955.14,-30.13 962.07,-29.2"/>
</g>
<!-- Node15 -->
<g id="node15" class="node">
<title>Node15</title>
<g id="a_node15"><a xlink:href="../../de/d95/ShiftRegisterOut_8ipp.html" target="_top" xlink:title=" ">
<polygon fill="white" stroke="black" points="1038.15,-0.5 1038.15,-19.5 1152.15,-19.5 1152.15,-0.5 1038.15,-0.5"/>
<text text-anchor="middle" x="1095.15" y="-7.5" font-family="Helvetica,sans-Serif" font-size="10.00">ShiftRegisterOut.ipp</text>
</a>
</g>
</g>
<!-- Node14&#45;&gt;Node15 -->
<g id="edge17" class="edge">
<title>Node14&#45;&gt;Node15</title>
<path fill="none" stroke="midnightblue" d="M1088.68,-46.1C1088.05,-37.14 1088.49,-26.86 1090.02,-19.75"/>
<polygon fill="midnightblue" stroke="midnightblue" points="1085.22,-46.62 1089.98,-56.08 1092.16,-45.71 1085.22,-46.62"/>
</g>
<!-- Node15&#45;&gt;Node14 -->
<g id="edge18" class="edge">
<title>Node15&#45;&gt;Node14</title>
<path fill="none" stroke="midnightblue" d="M1101.61,-29.69C1102.26,-38.64 1101.83,-48.93 1100.32,-56.08"/>
<polygon fill="midnightblue" stroke="midnightblue" points="1105.07,-29.2 1100.28,-19.75 1098.14,-30.13 1105.07,-29.2"/>
</g>
<!-- Node16&#45;&gt;Node11 -->
<g id="edge20" class="edge">
<title>Node16&#45;&gt;Node11</title>
<path fill="none" stroke="midnightblue" d="M1191.49,-77.48C1139.71,-87.67 1059.17,-102.96 1007.24,-112.44"/>
<polygon fill="midnightblue" stroke="midnightblue" points="1192.31,-80.89 1201.44,-75.52 1190.95,-74.02 1192.31,-80.89"/>
</g>
<!-- Node17&#45;&gt;Node5 -->
<g id="edge22" class="edge">
<title>Node17&#45;&gt;Node5</title>
<path fill="none" stroke="midnightblue" d="M279.15,-325.8C279.15,-316.91 279.15,-306.78 279.15,-299.75"/>
<polygon fill="midnightblue" stroke="midnightblue" points="275.65,-326.08 279.15,-336.08 282.65,-326.08 275.65,-326.08"/>
</g>
<!-- Node19 -->
<g id="node19" class="node">
<title>Node19</title>
<g id="a_node19"><a xlink:href="../../df/da1/Notch_8hpp.html" target="_top" xlink:title=" ">
<polygon fill="white" stroke="black" points="556.15,-336.5 556.15,-355.5 622.15,-355.5 622.15,-336.5 556.15,-336.5"/>
<text text-anchor="middle" x="589.15" y="-343.5" font-family="Helvetica,sans-Serif" font-size="10.00">Notch.hpp</text>
</a>
</g>
</g>
<!-- Node18&#45;&gt;Node19 -->
<g id="edge24" class="edge">
<title>Node18&#45;&gt;Node19</title>
<path fill="none" stroke="midnightblue" d="M566.98,-383.27C572.62,-374.05 579.27,-363.17 583.8,-355.75"/>
<polygon fill="midnightblue" stroke="midnightblue" points="563.83,-381.73 561.6,-392.08 569.8,-385.38 563.83,-381.73"/>
</g>
<!-- Node21 -->
<g id="node21" class="node">
<title>Node21</title>
<g id="a_node21"><a xlink:href="../../d2/d3c/Arduino-Hardware-Types_8hpp.html" target="_top" xlink:title=" ">
<polygon fill="white" stroke="black" points="764.65,-336.5 764.65,-355.5 921.65,-355.5 921.65,-336.5 764.65,-336.5"/>
<text text-anchor="middle" x="843.15" y="-343.5" font-family="Helvetica,sans-Serif" font-size="10.00">Arduino&#45;Hardware&#45;Types.hpp</text>
</a>
</g>
</g>
<!-- Node20&#45;&gt;Node21 -->
<g id="edge26" class="edge">
<title>Node20&#45;&gt;Node21</title>
<path fill="none" stroke="midnightblue" d="M802.77,-385.25C812.89,-375.67 825.43,-363.79 833.83,-355.83"/>
<polygon fill="midnightblue" stroke="midnightblue" points="800.16,-382.91 795.31,-392.32 804.98,-387.99 800.16,-382.91"/>
</g>
<!-- Node31 -->
<g id="node31" class="node">
<title>Node31</title>
<g id="a_node31"><a xlink:href="../../d9/d4b/ButtonMatrix_8hpp.html" target="_top" xlink:title=" ">
<polygon fill="white" stroke="black" points="1208.65,-168.5 1208.65,-187.5 1309.65,-187.5 1309.65,-168.5 1208.65,-168.5"/>
<text text-anchor="middle" x="1259.15" y="-175.5" font-family="Helvetica,sans-Serif" font-size="10.00">ButtonMatrix.hpp</text>
</a>
</g>
</g>
<!-- Node20&#45;&gt;Node31 -->
<g id="edge56" class="edge">
<title>Node20&#45;&gt;Node31</title>
<path fill="none" stroke="midnightblue" d="M854.3,-391.04C984.63,-370.45 1261.28,-318.78 1317.15,-244 1333.17,-222.55 1299.31,-199.69 1276.89,-187.62"/>
<polygon fill="midnightblue" stroke="midnightblue" points="853.75,-387.58 844.41,-392.59 854.84,-394.5 853.75,-387.58"/>
</g>
<!-- Node32 -->
<g id="node32" class="node">
<title>Node32</title>
<g id="a_node32"><a xlink:href="../../d4/d57/ExtendedIOElement_8hpp.html" target="_top" xlink:title=" ">
<polygon fill="white" stroke="black" points="661.15,-224.5 661.15,-243.5 795.15,-243.5 795.15,-224.5 661.15,-224.5"/>
<text text-anchor="middle" x="728.15" y="-231.5" font-family="Helvetica,sans-Serif" font-size="10.00">ExtendedIOElement.hpp</text>
</a>
</g>
</g>
<!-- Node20&#45;&gt;Node32 -->
<g id="edge57" class="edge">
<title>Node20&#45;&gt;Node32</title>
<path fill="none" stroke="midnightblue" d="M772.74,-384.06C766.9,-375.96 760.42,-365.9 756.15,-356 738.88,-316.01 731.43,-263.79 729.06,-243.54"/>
<polygon fill="midnightblue" stroke="midnightblue" points="770.1,-386.37 778.91,-392.25 775.69,-382.16 770.1,-386.37"/>
</g>
<!-- Node35 -->
<g id="node35" class="node">
<title>Node35</title>
<g id="a_node35"><a xlink:href="../../d8/df3/FilteredAnalog_8hpp.html" target="_top" xlink:title=" ">
<polygon fill="white" stroke="black" points="295.15,-224.5 295.15,-243.5 403.15,-243.5 403.15,-224.5 295.15,-224.5"/>
<text text-anchor="middle" x="349.15" y="-231.5" font-family="Helvetica,sans-Serif" font-size="10.00">FilteredAnalog.hpp</text>
</a>
</g>
</g>
<!-- Node20&#45;&gt;Node35 -->
<g id="edge58" class="edge">
<title>Node20&#45;&gt;Node35</title>
<path fill="none" stroke="midnightblue" d="M771.4,-385C763.56,-376.44 753.77,-365.69 745.15,-356 715.42,-322.57 718.52,-301.25 679.15,-280 573.78,-223.13 530.75,-260.47 412.15,-244 409.31,-243.6 406.39,-243.2 403.44,-242.78"/>
<polygon fill="midnightblue" stroke="midnightblue" points="768.89,-387.43 778.23,-392.43 774.04,-382.7 768.89,-387.43"/>
</g>
<!-- Node22 -->
<g id="node22" class="node">
<title>Node22</title>
<g id="a_node22"><a xlink:href="../../dd/ddf/ExtendedInputOutput_8hpp.html" target="_top" xlink:title=" ">
<polygon fill="white" stroke="black" points="957.65,-280.5 957.65,-299.5 1098.65,-299.5 1098.65,-280.5 957.65,-280.5"/>
<text text-anchor="middle" x="1028.15" y="-287.5" font-family="Helvetica,sans-Serif" font-size="10.00">ExtendedInputOutput.hpp</text>
</a>
</g>
</g>
<!-- Node21&#45;&gt;Node22 -->
<g id="edge27" class="edge">
<title>Node21&#45;&gt;Node22</title>
<path fill="none" stroke="midnightblue" d="M882.32,-333.57C917.22,-323.38 967.5,-308.7 998.97,-299.52"/>
<polygon fill="midnightblue" stroke="midnightblue" points="881.08,-330.28 872.46,-336.44 883.05,-337 881.08,-330.28"/>
</g>
<!-- Node22&#45;&gt;Node3 -->
<g id="edge28" class="edge">
<title>Node22&#45;&gt;Node3</title>
<path fill="none" stroke="midnightblue" d="M1042.24,-272.26C1048.62,-264.11 1055.89,-253.93 1061.15,-244 1082.23,-204.2 1096.82,-151.87 1102.03,-131.57"/>
<polygon fill="midnightblue" stroke="midnightblue" points="1039.38,-270.24 1035.81,-280.21 1044.82,-274.64 1039.38,-270.24"/>
</g>
<!-- Node22&#45;&gt;Node9 -->
<g id="edge50" class="edge">
<title>Node22&#45;&gt;Node9</title>
<path fill="none" stroke="midnightblue" d="M996.04,-276.65C975.78,-268.38 949.33,-256.72 927.15,-244 876.86,-215.17 874.6,-190.43 821.15,-168 750.3,-138.26 660.55,-128.18 607.74,-124.76"/>
<polygon fill="midnightblue" stroke="midnightblue" points="994.86,-279.95 1005.45,-280.42 997.47,-273.45 994.86,-279.95"/>
</g>
<!-- Node22&#45;&gt;Node11 -->
<g id="edge54" class="edge">
<title>Node22&#45;&gt;Node11</title>
<path fill="none" stroke="midnightblue" d="M1036.73,-270.97C1047.27,-245.96 1061.53,-200.18 1042.15,-168 1031.04,-149.55 1009.54,-138.26 990.95,-131.61"/>
<polygon fill="midnightblue" stroke="midnightblue" points="1033.44,-269.76 1032.55,-280.32 1039.83,-272.62 1033.44,-269.76"/>
</g>
<!-- Node22&#45;&gt;Node13 -->
<g id="edge52" class="edge">
<title>Node22&#45;&gt;Node13</title>
<path fill="none" stroke="midnightblue" d="M1030.93,-270.26C1033.7,-244.01 1034.45,-196.32 1009.15,-168 968.92,-122.97 915.18,-179.69 878.15,-132 857.43,-105.32 860.51,-85.4 877.15,-56 887.33,-38.03 907.86,-26.45 924.87,-19.55"/>
<polygon fill="midnightblue" stroke="midnightblue" points="1027.43,-270.02 1029.65,-280.38 1034.38,-270.9 1027.43,-270.02"/>
</g>
<!-- Node22&#45;&gt;Node15 -->
<g id="edge53" class="edge">
<title>Node22&#45;&gt;Node15</title>
<path fill="none" stroke="midnightblue" d="M1108.81,-287.55C1184.58,-284.31 1290.25,-274.3 1317.15,-244 1340.08,-218.17 1361.95,-108.25 1319.15,-56 1298.45,-30.72 1211.62,-19.34 1152.35,-14.44"/>
<polygon fill="midnightblue" stroke="midnightblue" points="1108.64,-284.06 1098.79,-287.95 1108.92,-291.05 1108.64,-284.06"/>
</g>
<!-- Node22&#45;&gt;Node16 -->
<g id="edge55" class="edge">
<title>Node22&#45;&gt;Node16</title>
<path fill="none" stroke="midnightblue" d="M1046.27,-273.83C1056.21,-265.31 1068.62,-254.34 1079.15,-244 1141.87,-182.42 1211.25,-102.11 1233.71,-75.78"/>
<polygon fill="midnightblue" stroke="midnightblue" points="1043.96,-271.21 1038.6,-280.35 1048.49,-276.54 1043.96,-271.21"/>
</g>
<!-- Node23 -->
<g id="node23" class="node">
<title>Node23</title>
<g id="a_node23"><a xlink:href="../../d4/db3/Button_8hpp.html" target="_top" xlink:title=" ">
<polygon fill="white" stroke="black" points="1403.15,-224.5 1403.15,-243.5 1473.15,-243.5 1473.15,-224.5 1403.15,-224.5"/>
<text text-anchor="middle" x="1438.15" y="-231.5" font-family="Helvetica,sans-Serif" font-size="10.00">Button.hpp</text>
</a>
</g>
</g>
<!-- Node22&#45;&gt;Node23 -->
<g id="edge29" class="edge">
<title>Node22&#45;&gt;Node23</title>
<path fill="none" stroke="midnightblue" d="M1103.15,-279.12C1192.1,-267.41 1336.65,-248.37 1402.92,-239.64"/>
<polygon fill="midnightblue" stroke="midnightblue" points="1102.57,-275.67 1093.12,-280.44 1103.49,-282.61 1102.57,-275.67"/>
</g>
<!-- Node30 -->
<g id="node30" class="node">
<title>Node30</title>
<g id="a_node30"><a xlink:href="../../d5/d41/ButtonMatrix_8ipp.html" target="_top" xlink:title=" ">
<polygon fill="white" stroke="black" points="1210.15,-224.5 1210.15,-243.5 1308.15,-243.5 1308.15,-224.5 1210.15,-224.5"/>
<text text-anchor="middle" x="1259.15" y="-231.5" font-family="Helvetica,sans-Serif" font-size="10.00">ButtonMatrix.ipp</text>
</a>
</g>
</g>
<!-- Node22&#45;&gt;Node30 -->
<g id="edge36" class="edge">
<title>Node22&#45;&gt;Node30</title>
<path fill="none" stroke="midnightblue" d="M1074.55,-278.15C1118.2,-267.95 1182.66,-252.88 1222.72,-243.52"/>
<polygon fill="midnightblue" stroke="midnightblue" points="1073.69,-274.76 1064.75,-280.44 1075.29,-281.58 1073.69,-274.76"/>
</g>
<!-- Node22&#45;&gt;Node32 -->
<g id="edge39" class="edge">
<title>Node22&#45;&gt;Node32</title>
<path fill="none" stroke="midnightblue" d="M970.73,-278.66C914.04,-268.46 828.37,-253.04 775.46,-243.52"/>
<polygon fill="midnightblue" stroke="midnightblue" points="970.15,-282.12 980.62,-280.44 971.39,-275.23 970.15,-282.12"/>
</g>
<!-- Node22&#45;&gt;Node34 -->
<g id="edge43" class="edge">
<title>Node22&#45;&gt;Node34</title>
<path fill="none" stroke="midnightblue" d="M989.85,-277.48C962.19,-268.9 924.07,-256.55 891.15,-244 865.97,-234.4 795.42,-202.94 761.22,-187.59"/>
<polygon fill="midnightblue" stroke="midnightblue" points="988.95,-280.87 999.54,-280.46 991.01,-274.17 988.95,-280.87"/>
</g>
<!-- Node22&#45;&gt;Node35 -->
<g id="edge44" class="edge">
<title>Node22&#45;&gt;Node35</title>
<path fill="none" stroke="midnightblue" d="M947.31,-284.88C829.42,-278.46 603.54,-264.64 412.15,-244 409.29,-243.69 406.37,-243.35 403.42,-242.99"/>
<polygon fill="midnightblue" stroke="midnightblue" points="947.16,-288.37 957.33,-285.42 947.54,-281.38 947.16,-288.37"/>
</g>
<!-- Node36 -->
<g id="node36" class="node">
<title>Node36</title>
<g id="a_node36"><a xlink:href="../../d9/d4f/LEDs_8hpp.html" target="_top" xlink:title=" ">
<polygon fill="white" stroke="black" points="936.15,-224.5 936.15,-243.5 998.15,-243.5 998.15,-224.5 936.15,-224.5"/>
<text text-anchor="middle" x="967.15" y="-231.5" font-family="Helvetica,sans-Serif" font-size="10.00">LEDs.hpp</text>
</a>
</g>
</g>
<!-- Node22&#45;&gt;Node36 -->
<g id="edge45" class="edge">
<title>Node22&#45;&gt;Node36</title>
<path fill="none" stroke="midnightblue" d="M1010.68,-273.54C999.81,-263.91 986.21,-251.87 977.13,-243.83"/>
<polygon fill="midnightblue" stroke="midnightblue" points="1008.54,-276.32 1018.35,-280.32 1013.18,-271.07 1008.54,-276.32"/>
</g>
<!-- Node38 -->
<g id="node38" class="node">
<title>Node38</title>
<g id="a_node38"><a xlink:href="../../d7/d13/MAX7219__Base_8hpp.html" target="_top" xlink:title=" ">
<polygon fill="white" stroke="black" points="421.65,-224.5 421.65,-243.5 534.65,-243.5 534.65,-224.5 421.65,-224.5"/>
<text text-anchor="middle" x="478.15" y="-231.5" font-family="Helvetica,sans-Serif" font-size="10.00">MAX7219_Base.hpp</text>
</a>
</g>
</g>
<!-- Node22&#45;&gt;Node38 -->
<g id="edge47" class="edge">
<title>Node22&#45;&gt;Node38</title>
<path fill="none" stroke="midnightblue" d="M947.42,-281.07C834.71,-270.01 633.03,-250.21 534.9,-240.57"/>
<polygon fill="midnightblue" stroke="midnightblue" points="947.08,-284.56 957.37,-282.05 947.76,-277.59 947.08,-284.56"/>
</g>
<!-- Node40 -->
<g id="node40" class="node">
<title>Node40</title>
<g id="a_node40"><a xlink:href="../../d8/dd2/MCP23017Encoders_8hpp.html" target="_top" xlink:title=" ">
<polygon fill="white" stroke="black" points="1491.15,-224.5 1491.15,-243.5 1625.15,-243.5 1625.15,-224.5 1491.15,-224.5"/>
<text text-anchor="middle" x="1558.15" y="-231.5" font-family="Helvetica,sans-Serif" font-size="10.00">MCP23017Encoders.hpp</text>
</a>
</g>
</g>
<!-- Node22&#45;&gt;Node40 -->
<g id="edge51" class="edge">
<title>Node22&#45;&gt;Node40</title>
<path fill="none" stroke="midnightblue" d="M1109.2,-281.44C1200.05,-272.85 1351.74,-258.18 1482.15,-244 1485.06,-243.68 1488.02,-243.36 1491.02,-243.02"/>
<polygon fill="midnightblue" stroke="midnightblue" points="1108.6,-277.98 1098.97,-282.4 1109.25,-284.95 1108.6,-277.98"/>
</g>
<!-- Node24 -->
<g id="node24" class="node">
<title>Node24</title>
<g id="a_node24"><a xlink:href="../../de/dd1/Button_8cpp.html" target="_top" xlink:title=" ">
<polygon fill="white" stroke="black" points="1518.65,-168.5 1518.65,-187.5 1587.65,-187.5 1587.65,-168.5 1518.65,-168.5"/>
<text text-anchor="middle" x="1553.15" y="-175.5" font-family="Helvetica,sans-Serif" font-size="10.00">Button.cpp</text>
</a>
</g>
</g>
<!-- Node23&#45;&gt;Node24 -->
<g id="edge30" class="edge">
<title>Node23&#45;&gt;Node24</title>
<path fill="none" stroke="midnightblue" d="M1465.63,-220.1C1487.12,-210.01 1516.37,-196.27 1535.01,-187.52"/>
<polygon fill="midnightblue" stroke="midnightblue" points="1463.94,-217.02 1456.37,-224.44 1466.91,-223.36 1463.94,-217.02"/>
</g>
<!-- Node25 -->
<g id="node25" class="node">
<title>Node25</title>
<g id="a_node25"><a xlink:href="../../d5/d04/IncrementButton_8hpp.html" target="_top" xlink:title=" ">
<polygon fill="white" stroke="black" points="1605.65,-168.5 1605.65,-187.5 1724.65,-187.5 1724.65,-168.5 1605.65,-168.5"/>
<text text-anchor="middle" x="1665.15" y="-175.5" font-family="Helvetica,sans-Serif" font-size="10.00">IncrementButton.hpp</text>
</a>
</g>
</g>
<!-- Node23&#45;&gt;Node25 -->
<g id="edge31" class="edge">
<title>Node23&#45;&gt;Node25</title>
<path fill="none" stroke="midnightblue" d="M1483.5,-222.21C1526.33,-212.02 1589.73,-196.94 1629.18,-187.56"/>
<polygon fill="midnightblue" stroke="midnightblue" points="1482.54,-218.84 1473.62,-224.56 1484.16,-225.65 1482.54,-218.84"/>
</g>
<!-- Node27 -->
<g id="node27" class="node">
<title>Node27</title>
<g id="a_node27"><a xlink:href="../../df/df5/IncrementDecrementButtons_8hpp.html" target="_top" xlink:title=" ">
<polygon fill="white" stroke="black" points="1742.65,-168.5 1742.65,-187.5 1921.65,-187.5 1921.65,-168.5 1742.65,-168.5"/>
<text text-anchor="middle" x="1832.15" y="-175.5" font-family="Helvetica,sans-Serif" font-size="10.00">IncrementDecrementButtons.hpp</text>
</a>
</g>
</g>
<!-- Node23&#45;&gt;Node27 -->
<g id="edge33" class="edge">
<title>Node23&#45;&gt;Node27</title>
<path fill="none" stroke="midnightblue" d="M1483.29,-223.92C1581.68,-207.76 1683.93,-195.28 1752.67,-187.52"/>
<polygon fill="midnightblue" stroke="midnightblue" points="1482.47,-220.51 1473.17,-225.59 1483.61,-227.41 1482.47,-220.51"/>
</g>
<!-- Node29 -->
<g id="node29" class="node">
<title>Node29</title>
<g id="a_node29"><a xlink:href="../../dc/dc5/MultiPurposeButton_8hpp.html" target="_top" xlink:title=" ">
<polygon fill="white" stroke="black" points="1366.15,-168.5 1366.15,-187.5 1500.15,-187.5 1500.15,-168.5 1366.15,-168.5"/>
<text text-anchor="middle" x="1433.15" y="-175.5" font-family="Helvetica,sans-Serif" font-size="10.00">MultiPurposeButton.hpp</text>
</a>
</g>
</g>
<!-- Node23&#45;&gt;Node29 -->
<g id="edge35" class="edge">
<title>Node23&#45;&gt;Node29</title>
<path fill="none" stroke="midnightblue" d="M1436.4,-214.1C1435.57,-205.14 1434.62,-194.86 1433.96,-187.75"/>
<polygon fill="midnightblue" stroke="midnightblue" points="1432.92,-214.45 1437.33,-224.08 1439.89,-213.8 1432.92,-214.45"/>
</g>
<!-- Node26 -->
<g id="node26" class="node">
<title>Node26</title>
<g id="a_node26"><a xlink:href="../../db/d9d/IncrementButton_8cpp.html" target="_top" xlink:title=" ">
<polygon fill="white" stroke="black" points="1605.65,-112.5 1605.65,-131.5 1724.65,-131.5 1724.65,-112.5 1605.65,-112.5"/>
<text text-anchor="middle" x="1665.15" y="-119.5" font-family="Helvetica,sans-Serif" font-size="10.00">IncrementButton.cpp</text>
</a>
</g>
</g>
<!-- Node25&#45;&gt;Node26 -->
<g id="edge32" class="edge">
<title>Node25&#45;&gt;Node26</title>
<path fill="none" stroke="midnightblue" d="M1665.15,-157.8C1665.15,-148.91 1665.15,-138.78 1665.15,-131.75"/>
<polygon fill="midnightblue" stroke="midnightblue" points="1661.65,-158.08 1665.15,-168.08 1668.65,-158.08 1661.65,-158.08"/>
</g>
<!-- Node28 -->
<g id="node28" class="node">
<title>Node28</title>
<g id="a_node28"><a xlink:href="../../da/d66/IncrementDecrementButtons_8cpp.html" target="_top" xlink:title=" ">
<polygon fill="white" stroke="black" points="1743.15,-112.5 1743.15,-131.5 1921.15,-131.5 1921.15,-112.5 1743.15,-112.5"/>
<text text-anchor="middle" x="1832.15" y="-119.5" font-family="Helvetica,sans-Serif" font-size="10.00">IncrementDecrementButtons.cpp</text>
</a>
</g>
</g>
<!-- Node27&#45;&gt;Node28 -->
<g id="edge34" class="edge">
<title>Node27&#45;&gt;Node28</title>
<path fill="none" stroke="midnightblue" d="M1832.15,-157.8C1832.15,-148.91 1832.15,-138.78 1832.15,-131.75"/>
<polygon fill="midnightblue" stroke="midnightblue" points="1828.65,-158.08 1832.15,-168.08 1835.65,-158.08 1828.65,-158.08"/>
</g>
<!-- Node30&#45;&gt;Node31 -->
<g id="edge37" class="edge">
<title>Node30&#45;&gt;Node31</title>
<path fill="none" stroke="midnightblue" d="M1252.68,-214.1C1252.05,-205.14 1252.49,-194.86 1254.02,-187.75"/>
<polygon fill="midnightblue" stroke="midnightblue" points="1249.22,-214.62 1253.98,-224.08 1256.16,-213.71 1249.22,-214.62"/>
</g>
<!-- Node31&#45;&gt;Node30 -->
<g id="edge38" class="edge">
<title>Node31&#45;&gt;Node30</title>
<path fill="none" stroke="midnightblue" d="M1265.61,-197.69C1266.26,-206.64 1265.83,-216.93 1264.32,-224.08"/>
<polygon fill="midnightblue" stroke="midnightblue" points="1269.07,-197.2 1264.28,-187.75 1262.14,-198.13 1269.07,-197.2"/>
</g>
<!-- Node32&#45;&gt;Node7 -->
<g id="edge42" class="edge">
<title>Node32&#45;&gt;Node7</title>
<path fill="none" stroke="midnightblue" d="M692.41,-221.3C661.32,-211.13 617,-196.62 589.17,-187.52"/>
<polygon fill="midnightblue" stroke="midnightblue" points="691.41,-224.66 702.01,-224.44 693.59,-218.01 691.41,-224.66"/>
</g>
<!-- Node32&#45;&gt;Node33 -->
<g id="edge40" class="edge">
<title>Node32&#45;&gt;Node33</title>
<path fill="none" stroke="midnightblue" d="M650.92,-226.28C556.54,-217.94 392.01,-202.98 251.15,-188 248.24,-187.69 245.28,-187.37 242.28,-187.04"/>
<polygon fill="midnightblue" stroke="midnightblue" points="650.69,-229.78 660.96,-227.17 651.3,-222.8 650.69,-229.78"/>
</g>
<!-- Node32&#45;&gt;Node34 -->
<g id="edge41" class="edge">
<title>Node32&#45;&gt;Node34</title>
<path fill="none" stroke="midnightblue" d="M732.97,-214.4C735.32,-205.36 738.02,-194.94 739.88,-187.75"/>
<polygon fill="midnightblue" stroke="midnightblue" points="729.58,-213.52 730.46,-224.08 736.36,-215.28 729.58,-213.52"/>
</g>
<!-- Node37 -->
<g id="node37" class="node">
<title>Node37</title>
<g id="a_node37"><a xlink:href="../../d6/d3a/DotBarDisplayLEDs_8hpp.html" target="_top" xlink:title=" ">
<polygon fill="white" stroke="black" points="868.15,-168.5 868.15,-187.5 1000.15,-187.5 1000.15,-168.5 868.15,-168.5"/>
<text text-anchor="middle" x="934.15" y="-175.5" font-family="Helvetica,sans-Serif" font-size="10.00">DotBarDisplayLEDs.hpp</text>
</a>
</g>
</g>
<!-- Node36&#45;&gt;Node37 -->
<g id="edge46" class="edge">
<title>Node36&#45;&gt;Node37</title>
<path fill="none" stroke="midnightblue" d="M956.32,-215.27C950.68,-206.05 944.03,-195.17 939.5,-187.75"/>
<polygon fill="midnightblue" stroke="midnightblue" points="953.5,-217.38 961.7,-224.08 959.47,-213.73 953.5,-217.38"/>
</g>
<!-- Node38&#45;&gt;Node8 -->
<g id="edge48" class="edge">
<title>Node38&#45;&gt;Node8</title>
<path fill="none" stroke="midnightblue" d="M411.26,-224.24C334.17,-219.1 34.25,-219.79 5.15,-188 -11.87,-169.41 18.67,-144.61 38.03,-131.68"/>
<polygon fill="midnightblue" stroke="midnightblue" points="411.39,-227.76 421.65,-225.12 411.98,-220.78 411.39,-227.76"/>
</g>
<!-- Node39 -->
<g id="node39" class="node">
<title>Node39</title>
<g id="a_node39"><a xlink:href="../../d5/d0c/MAX7219SevenSegmentDisplay_8hpp.html" target="_top" xlink:title=" ">
<polygon fill="white" stroke="black" points="260.65,-168.5 260.65,-187.5 453.65,-187.5 453.65,-168.5 260.65,-168.5"/>
<text text-anchor="middle" x="357.15" y="-175.5" font-family="Helvetica,sans-Serif" font-size="10.00">MAX7219SevenSegmentDisplay.hpp</text>
</a>
</g>
</g>
<!-- Node38&#45;&gt;Node39 -->
<g id="edge49" class="edge">
<title>Node38&#45;&gt;Node39</title>
<path fill="none" stroke="midnightblue" d="M449.85,-220.37C427.19,-210.26 396.02,-196.35 376.23,-187.52"/>
<polygon fill="midnightblue" stroke="midnightblue" points="448.42,-223.56 458.98,-224.44 451.27,-217.17 448.42,-223.56"/>
</g>
<!-- Node42&#45;&gt;Node40 -->
<g id="edge61" class="edge">
<title>Node42&#45;&gt;Node40</title>
<path fill="none" stroke="midnightblue" d="M1525.57,-272.43C1533.81,-262.97 1543.81,-251.48 1550.53,-243.75"/>
<polygon fill="midnightblue" stroke="midnightblue" points="1522.84,-270.24 1518.91,-280.08 1528.12,-274.84 1522.84,-270.24"/>
</g>
<!-- Node44&#45;&gt;Node17 -->
<g id="edge64" class="edge">
<title>Node44&#45;&gt;Node17</title>
<path fill="none" stroke="midnightblue" d="M341.96,-386.9C326.37,-377 306.02,-364.07 292.77,-355.65"/>
<polygon fill="midnightblue" stroke="midnightblue" points="340.18,-389.92 350.49,-392.32 343.93,-384.01 340.18,-389.92"/>
</g>
<!-- Node44&#45;&gt;Node41 -->
<g id="edge65" class="edge">
<title>Node44&#45;&gt;Node41</title>
<path fill="none" stroke="midnightblue" d="M368.97,-382.4C371.32,-373.36 374.02,-362.94 375.88,-355.75"/>
<polygon fill="midnightblue" stroke="midnightblue" points="365.58,-381.52 366.46,-392.08 372.36,-383.28 365.58,-381.52"/>
</g>
<!-- Node45&#45;&gt;Node8 -->
<g id="edge67" class="edge">
<title>Node45&#45;&gt;Node8</title>
<path fill="none" stroke="midnightblue" d="M52.15,-157.8C52.15,-148.91 52.15,-138.78 52.15,-131.75"/>
<polygon fill="midnightblue" stroke="midnightblue" points="48.65,-158.08 52.15,-168.08 55.65,-158.08 48.65,-158.08"/>
</g>
<!-- Node45&#45;&gt;Node9 -->
<g id="edge68" class="edge">
<title>Node45&#45;&gt;Node9</title>
<path fill="none" stroke="midnightblue" d="M100.32,-167.95C259.83,-145.37 437.32,-131.61 518.52,-125.95"/>
<polygon fill="midnightblue" stroke="midnightblue" points="99.72,-164.5 90.32,-169.38 100.72,-171.43 99.72,-164.5"/>
</g>
<!-- Node45&#45;&gt;Node11 -->
<g id="edge69" class="edge">
<title>Node45&#45;&gt;Node11</title>
<path fill="none" stroke="midnightblue" d="M100.3,-168.06C269.19,-148.87 713.36,-131.68 886.63,-125.45"/>
<polygon fill="midnightblue" stroke="midnightblue" points="99.82,-164.6 90.3,-169.24 100.64,-171.55 99.82,-164.6"/>
</g>
<!-- Node48&#45;&gt;Node32 -->
<g id="edge75" class="edge">
<title>Node48&#45;&gt;Node32</title>
<path fill="none" stroke="midnightblue" d="M651.48,-275.59C670.34,-265.61 695.54,-252.27 711.8,-243.65"/>
<polygon fill="midnightblue" stroke="midnightblue" points="649.74,-272.55 642.54,-280.32 653.01,-278.74 649.74,-272.55"/>
</g>
</g>
</svg>
