<?xml version="1.0" encoding="UTF-8" standalone="no"?>
<!DOCTYPE svg PUBLIC "-//W3C//DTD SVG 1.1//EN"
 "http://www.w3.org/Graphics/SVG/1.1/DTD/svg11.dtd">
<!-- Generated by graphviz version 2.43.0 (0)
 -->
<!-- Title: Array.hpp Pages: 1 -->
<svg width="919pt" height="532pt"
 viewBox="0.00 0.00 919.00 532.00" xmlns="http://www.w3.org/2000/svg" xmlns:xlink="http://www.w3.org/1999/xlink">
<g id="graph0" class="graph" transform="scale(1 1) rotate(0) translate(4 528)">
<title>Array.hpp</title>
<polygon fill="white" stroke="transparent" points="-4,4 -4,-528 915,-528 915,4 -4,4"/>
<!-- Node1 -->
<g id="node1" class="node">
<title>Node1</title>
<g id="a_node1"><a xlink:title=" ">
<polygon fill="#bfbfbf" stroke="black" points="677,-504.5 677,-523.5 739,-523.5 739,-504.5 677,-504.5"/>
<text text-anchor="middle" x="708" y="-511.5" font-family="Helvetica,sans-Serif" font-size="10.00">Array.hpp</text>
</a>
</g>
</g>
<!-- Node2 -->
<g id="node2" class="node">
<title>Node2</title>
<g id="a_node2"><a xlink:href="../../d1/d65/Warnings_8hpp.html" target="_top" xlink:title=" ">
<polygon fill="white" stroke="black" points="194.5,-0.5 194.5,-19.5 337.5,-19.5 337.5,-0.5 194.5,-0.5"/>
<text text-anchor="middle" x="266" y="-7.5" font-family="Helvetica,sans-Serif" font-size="10.00">AH/Settings/Warnings.hpp</text>
</a>
</g>
</g>
<!-- Node1&#45;&gt;Node2 -->
<g id="edge1" class="edge">
<title>Node1&#45;&gt;Node2</title>
<path fill="none" stroke="midnightblue" d="M676.66,-511.49C539.65,-504.49 0,-472.5 0,-403 0,-403 0,-403 0,-121 0,-40.29 105.86,-17.64 184.02,-11.91"/>
<polygon fill="midnightblue" stroke="midnightblue" points="184.62,-15.38 194.37,-11.24 184.16,-8.39 184.62,-15.38"/>
</g>
<!-- Node3 -->
<g id="node3" class="node">
<title>Node3</title>
<g id="a_node3"><a xlink:href="../../d1/d93/Error_8hpp.html" target="_top" xlink:title=" ">
<polygon fill="white" stroke="black" points="576,-448.5 576,-467.5 680,-467.5 680,-448.5 576,-448.5"/>
<text text-anchor="middle" x="628" y="-455.5" font-family="Helvetica,sans-Serif" font-size="10.00">AH/Error/Error.hpp</text>
</a>
</g>
</g>
<!-- Node1&#45;&gt;Node3 -->
<g id="edge2" class="edge">
<title>Node1&#45;&gt;Node3</title>
<path fill="none" stroke="midnightblue" d="M695.15,-504.32C682.78,-495.98 663.87,-483.21 649.26,-473.35"/>
<polygon fill="midnightblue" stroke="midnightblue" points="651.07,-470.35 640.82,-467.65 647.15,-476.15 651.07,-470.35"/>
</g>
<!-- Node11 -->
<g id="node11" class="node">
<title>Node11</title>
<g id="a_node11"><a xlink:title=" ">
<polygon fill="white" stroke="#bfbfbf" points="736.5,-112.5 736.5,-131.5 843.5,-131.5 843.5,-112.5 736.5,-112.5"/>
<text text-anchor="middle" x="790" y="-119.5" font-family="Helvetica,sans-Serif" font-size="10.00">AH/STL/type_traits</text>
</a>
</g>
</g>
<!-- Node1&#45;&gt;Node11 -->
<g id="edge34" class="edge">
<title>Node1&#45;&gt;Node11</title>
<path fill="none" stroke="midnightblue" d="M721.66,-504.24C745.68,-487.64 793,-449.1 793,-403 793,-403 793,-403 793,-233 793,-200.94 791.71,-163.63 790.82,-141.74"/>
<polygon fill="midnightblue" stroke="midnightblue" points="794.31,-141.4 790.39,-131.56 787.32,-141.69 794.31,-141.4"/>
</g>
<!-- Node17 -->
<g id="node17" class="node">
<title>Node17</title>
<g id="a_node17"><a xlink:title=" ">
<polygon fill="white" stroke="#bfbfbf" points="498,-224.5 498,-243.5 554,-243.5 554,-224.5 498,-224.5"/>
<text text-anchor="middle" x="526" y="-231.5" font-family="Helvetica,sans-Serif" font-size="10.00">stddef.h</text>
</a>
</g>
</g>
<!-- Node1&#45;&gt;Node17 -->
<g id="edge35" class="edge">
<title>Node1&#45;&gt;Node17</title>
<path fill="none" stroke="midnightblue" d="M710.08,-504.07C717.4,-470.2 738.58,-348.11 681,-280 677.11,-275.4 608.48,-256.67 563.86,-244.87"/>
<polygon fill="midnightblue" stroke="midnightblue" points="564.75,-241.49 554.19,-242.32 562.97,-248.25 564.75,-241.49"/>
</g>
<!-- Node20 -->
<g id="node20" class="node">
<title>Node20</title>
<g id="a_node20"><a xlink:title=" ">
<polygon fill="white" stroke="#bfbfbf" points="821,-448.5 821,-467.5 911,-467.5 911,-448.5 821,-448.5"/>
<text text-anchor="middle" x="866" y="-455.5" font-family="Helvetica,sans-Serif" font-size="10.00">AH/STL/iterator</text>
</a>
</g>
</g>
<!-- Node1&#45;&gt;Node20 -->
<g id="edge33" class="edge">
<title>Node1&#45;&gt;Node20</title>
<path fill="none" stroke="midnightblue" d="M733.04,-504.44C759.62,-495.36 801.81,-480.94 831.52,-470.78"/>
<polygon fill="midnightblue" stroke="midnightblue" points="832.75,-474.06 841.08,-467.52 830.49,-467.44 832.75,-474.06"/>
</g>
<!-- Node3&#45;&gt;Node2 -->
<g id="edge3" class="edge">
<title>Node3&#45;&gt;Node2</title>
<path fill="none" stroke="midnightblue" d="M641.74,-448.47C701.38,-410.34 931.3,-251.33 853,-112 804.28,-25.31 497.44,-11.87 347.83,-10.55"/>
<polygon fill="midnightblue" stroke="midnightblue" points="347.79,-7.05 337.77,-10.48 347.74,-14.05 347.79,-7.05"/>
</g>
<!-- Node4 -->
<g id="node4" class="node">
<title>Node4</title>
<g id="a_node4"><a xlink:href="../../df/dee/Debug_8hpp.html" target="_top" xlink:title=" ">
<polygon fill="white" stroke="black" points="409.5,-392.5 409.5,-411.5 530.5,-411.5 530.5,-392.5 409.5,-392.5"/>
<text text-anchor="middle" x="470" y="-399.5" font-family="Helvetica,sans-Serif" font-size="10.00">AH/Debug/Debug.hpp</text>
</a>
</g>
</g>
<!-- Node3&#45;&gt;Node4 -->
<g id="edge4" class="edge">
<title>Node3&#45;&gt;Node4</title>
<path fill="none" stroke="midnightblue" d="M602.96,-448.44C576.38,-439.36 534.19,-424.94 504.48,-414.78"/>
<polygon fill="midnightblue" stroke="midnightblue" points="505.51,-411.44 494.92,-411.52 503.25,-418.06 505.51,-411.44"/>
</g>
<!-- Node4&#45;&gt;Node2 -->
<g id="edge5" class="edge">
<title>Node4&#45;&gt;Node2</title>
<path fill="none" stroke="midnightblue" d="M409.48,-398.18C290.58,-390.97 38,-366.75 38,-291 38,-291 38,-291 38,-121 38,-53.91 119.08,-27.71 184.54,-17.5"/>
<polygon fill="midnightblue" stroke="midnightblue" points="185.09,-20.96 194.48,-16.05 184.08,-14.03 185.09,-20.96"/>
</g>
<!-- Node5 -->
<g id="node5" class="node">
<title>Node5</title>
<g id="a_node5"><a xlink:href="../../dd/d80/PrintStream_8hpp.html" target="_top" xlink:title=" ">
<polygon fill="white" stroke="black" points="572.5,-224.5 572.5,-243.5 745.5,-243.5 745.5,-224.5 572.5,-224.5"/>
<text text-anchor="middle" x="659" y="-231.5" font-family="Helvetica,sans-Serif" font-size="10.00">AH/PrintStream/PrintStream.hpp</text>
</a>
</g>
</g>
<!-- Node4&#45;&gt;Node5 -->
<g id="edge6" class="edge">
<title>Node4&#45;&gt;Node5</title>
<path fill="none" stroke="midnightblue" d="M521.83,-392.44C572.42,-381.02 646.63,-355.39 681,-300 690.29,-285.03 681.51,-265.67 672.43,-251.98"/>
<polygon fill="midnightblue" stroke="midnightblue" points="675.02,-249.58 666.32,-243.54 669.35,-253.69 675.02,-249.58"/>
</g>
<!-- Node12 -->
<g id="node12" class="node">
<title>Node12</title>
<g id="a_node12"><a xlink:href="../../d2/dd5/SettingsWrapper_8hpp.html" target="_top" xlink:title=" ">
<polygon fill="white" stroke="black" points="381,-336.5 381,-355.5 559,-355.5 559,-336.5 381,-336.5"/>
<text text-anchor="middle" x="470" y="-343.5" font-family="Helvetica,sans-Serif" font-size="10.00">AH/Settings/SettingsWrapper.hpp</text>
</a>
</g>
</g>
<!-- Node4&#45;&gt;Node12 -->
<g id="edge18" class="edge">
<title>Node4&#45;&gt;Node12</title>
<path fill="none" stroke="midnightblue" d="M464.83,-392.08C463.32,-384.93 462.89,-374.64 463.54,-365.69"/>
<polygon fill="midnightblue" stroke="midnightblue" points="467.02,-366.13 464.87,-355.75 460.08,-365.2 467.02,-366.13"/>
</g>
<!-- Node5&#45;&gt;Node2 -->
<g id="edge8" class="edge">
<title>Node5&#45;&gt;Node2</title>
<path fill="none" stroke="midnightblue" d="M643.01,-224.39C628.09,-216.02 605.57,-202.47 588,-188 561.55,-166.22 554.5,-160.18 535,-132 513.62,-101.11 527.8,-78.87 498,-56 474.67,-38.09 404.69,-26.12 347.63,-19.06"/>
<polygon fill="midnightblue" stroke="midnightblue" points="347.86,-15.57 337.51,-17.85 347.02,-22.52 347.86,-15.57"/>
</g>
<!-- Node6 -->
<g id="node6" class="node">
<title>Node6</title>
<g id="a_node6"><a xlink:href="../../dc/dc7/NamespaceSettings_8hpp.html" target="_top" xlink:title=" ">
<polygon fill="white" stroke="black" points="293.5,-56.5 293.5,-75.5 488.5,-75.5 488.5,-56.5 293.5,-56.5"/>
<text text-anchor="middle" x="391" y="-63.5" font-family="Helvetica,sans-Serif" font-size="10.00">AH/Settings/NamespaceSettings.hpp</text>
</a>
</g>
</g>
<!-- Node5&#45;&gt;Node6 -->
<g id="edge7" class="edge">
<title>Node5&#45;&gt;Node6</title>
<path fill="none" stroke="midnightblue" d="M590.37,-224.47C560.93,-218.14 527.52,-207.13 502,-188 470.03,-164.04 481.43,-141.04 454,-112 442.56,-99.89 427.44,-88.96 414.87,-80.91"/>
<polygon fill="midnightblue" stroke="midnightblue" points="416.61,-77.86 406.26,-75.57 412.92,-83.82 416.61,-77.86"/>
</g>
<!-- Node7 -->
<g id="node7" class="node">
<title>Node7</title>
<g id="a_node7"><a xlink:href="../../d6/ddf/Arduino-Wrapper_8h.html" target="_top" xlink:title=" ">
<polygon fill="white" stroke="black" points="597,-168.5 597,-187.5 721,-187.5 721,-168.5 597,-168.5"/>
<text text-anchor="middle" x="659" y="-175.5" font-family="Helvetica,sans-Serif" font-size="10.00">AH/Arduino&#45;Wrapper.h</text>
</a>
</g>
</g>
<!-- Node5&#45;&gt;Node7 -->
<g id="edge9" class="edge">
<title>Node5&#45;&gt;Node7</title>
<path fill="none" stroke="midnightblue" d="M659,-224.08C659,-217.01 659,-206.86 659,-197.99"/>
<polygon fill="midnightblue" stroke="midnightblue" points="662.5,-197.75 659,-187.75 655.5,-197.75 662.5,-197.75"/>
</g>
<!-- Node8 -->
<g id="node8" class="node">
<title>Node8</title>
<g id="a_node8"><a xlink:href="../../d7/d79/MinMaxFix_8hpp.html" target="_top" xlink:title=" ">
<polygon fill="white" stroke="black" points="544,-112.5 544,-131.5 680,-131.5 680,-112.5 544,-112.5"/>
<text text-anchor="middle" x="612" y="-119.5" font-family="Helvetica,sans-Serif" font-size="10.00">AH/Math/MinMaxFix.hpp</text>
</a>
</g>
</g>
<!-- Node7&#45;&gt;Node8 -->
<g id="edge10" class="edge">
<title>Node7&#45;&gt;Node8</title>
<path fill="none" stroke="midnightblue" d="M651.24,-168.08C644.46,-160.3 634.46,-148.8 626.24,-139.37"/>
<polygon fill="midnightblue" stroke="midnightblue" points="628.82,-137 619.62,-131.75 623.54,-141.59 628.82,-137"/>
</g>
<!-- Node10 -->
<g id="node10" class="node">
<title>Node10</title>
<g id="a_node10"><a xlink:title=" ">
<polygon fill="white" stroke="#bfbfbf" points="691.5,-0.5 691.5,-19.5 754.5,-19.5 754.5,-0.5 691.5,-0.5"/>
<text text-anchor="middle" x="723" y="-7.5" font-family="Helvetica,sans-Serif" font-size="10.00">Arduino.h</text>
</a>
</g>
</g>
<!-- Node7&#45;&gt;Node10 -->
<g id="edge17" class="edge">
<title>Node7&#45;&gt;Node10</title>
<path fill="none" stroke="midnightblue" d="M668.15,-168.31C692.73,-144.92 758.51,-81.98 761,-76 768.4,-58.25 754.75,-39.43 741.79,-26.64"/>
<polygon fill="midnightblue" stroke="midnightblue" points="744.14,-24.04 734.41,-19.86 739.4,-29.2 744.14,-24.04"/>
</g>
<!-- Node7&#45;&gt;Node11 -->
<g id="edge16" class="edge">
<title>Node7&#45;&gt;Node11</title>
<path fill="none" stroke="midnightblue" d="M679.76,-168.44C701.32,-159.56 735.26,-145.56 759.79,-135.45"/>
<polygon fill="midnightblue" stroke="midnightblue" points="761.43,-138.56 769.34,-131.52 758.76,-132.09 761.43,-138.56"/>
</g>
<!-- Node8&#45;&gt;Node2 -->
<g id="edge11" class="edge">
<title>Node8&#45;&gt;Node2</title>
<path fill="none" stroke="midnightblue" d="M603.88,-112.17C590.16,-97.84 560.86,-69.76 530,-56 472.36,-30.29 401.61,-19.19 347.87,-14.44"/>
<polygon fill="midnightblue" stroke="midnightblue" points="347.95,-10.94 337.7,-13.6 347.38,-17.91 347.95,-10.94"/>
</g>
<!-- Node8&#45;&gt;Node6 -->
<g id="edge15" class="edge">
<title>Node8&#45;&gt;Node6</title>
<path fill="none" stroke="midnightblue" d="M576.98,-112.44C538.75,-103.1 477.43,-88.12 435.74,-77.93"/>
<polygon fill="midnightblue" stroke="midnightblue" points="436.4,-74.49 425.85,-75.52 434.74,-81.29 436.4,-74.49"/>
</g>
<!-- Node9 -->
<g id="node9" class="node">
<title>Node9</title>
<g id="a_node9"><a xlink:href="../../d6/d3b/FixArduinoMacros_8hpp.html" target="_top" xlink:title=" ">
<polygon fill="white" stroke="black" points="582,-56.5 582,-75.5 752,-75.5 752,-56.5 582,-56.5"/>
<text text-anchor="middle" x="667" y="-63.5" font-family="Helvetica,sans-Serif" font-size="10.00">AH/Math/FixArduinoMacros.hpp</text>
</a>
</g>
</g>
<!-- Node8&#45;&gt;Node9 -->
<g id="edge12" class="edge">
<title>Node8&#45;&gt;Node9</title>
<path fill="none" stroke="midnightblue" d="M621.08,-112.08C629.17,-104.14 641.2,-92.34 650.91,-82.8"/>
<polygon fill="midnightblue" stroke="midnightblue" points="653.4,-85.25 658.09,-75.75 648.5,-80.26 653.4,-85.25"/>
</g>
<!-- Node9&#45;&gt;Node2 -->
<g id="edge13" class="edge">
<title>Node9&#45;&gt;Node2</title>
<path fill="none" stroke="midnightblue" d="M603.46,-56.44C531.6,-46.77 414.78,-31.04 339.17,-20.85"/>
<polygon fill="midnightblue" stroke="midnightblue" points="339.62,-17.38 329.24,-19.52 338.69,-24.32 339.62,-17.38"/>
</g>
<!-- Node9&#45;&gt;Node10 -->
<g id="edge14" class="edge">
<title>Node9&#45;&gt;Node10</title>
<path fill="none" stroke="midnightblue" d="M676,-56.32C684.19,-48.42 696.51,-36.55 706.47,-26.94"/>
<polygon fill="midnightblue" stroke="midnightblue" points="709.07,-29.29 713.84,-19.83 704.21,-24.26 709.07,-29.29"/>
</g>
<!-- Node12&#45;&gt;Node2 -->
<g id="edge19" class="edge">
<title>Node12&#45;&gt;Node2</title>
<path fill="none" stroke="midnightblue" d="M380.6,-338C264.35,-326.38 76,-297.85 76,-235 76,-235 76,-235 76,-121 76,-62.69 143.85,-34.79 198.46,-21.78"/>
<polygon fill="midnightblue" stroke="midnightblue" points="199.49,-25.13 208.48,-19.52 197.95,-18.3 199.49,-25.13"/>
</g>
<!-- Node12&#45;&gt;Node4 -->
<g id="edge32" class="edge">
<title>Node12&#45;&gt;Node4</title>
<path fill="none" stroke="midnightblue" d="M475.13,-355.75C476.66,-362.86 477.1,-373.14 476.47,-382.1"/>
<polygon fill="midnightblue" stroke="midnightblue" points="472.99,-381.71 475.17,-392.08 479.93,-382.62 472.99,-381.71"/>
</g>
<!-- Node12&#45;&gt;Node6 -->
<g id="edge20" class="edge">
<title>Node12&#45;&gt;Node6</title>
<path fill="none" stroke="midnightblue" d="M469.27,-336.36C467.44,-316.34 462,-265.3 451,-224 437.15,-172.02 412.13,-113.48 399.21,-84.79"/>
<polygon fill="midnightblue" stroke="midnightblue" points="402.37,-83.29 395.04,-75.64 396,-86.19 402.37,-83.29"/>
</g>
<!-- Node13 -->
<g id="node13" class="node">
<title>Node13</title>
<g id="a_node13"><a xlink:href="../../db/d02/Settings_8hpp.html" target="_top" xlink:title="All user settings and debugging options can be changed here.">
<polygon fill="white" stroke="black" points="262.5,-280.5 262.5,-299.5 339.5,-299.5 339.5,-280.5 262.5,-280.5"/>
<text text-anchor="middle" x="301" y="-287.5" font-family="Helvetica,sans-Serif" font-size="10.00">Settings.hpp</text>
</a>
</g>
</g>
<!-- Node12&#45;&gt;Node13 -->
<g id="edge21" class="edge">
<title>Node12&#45;&gt;Node13</title>
<path fill="none" stroke="midnightblue" d="M443.22,-336.44C414.67,-327.32 369.27,-312.81 337.46,-302.65"/>
<polygon fill="midnightblue" stroke="midnightblue" points="338.24,-299.23 327.65,-299.52 336.11,-305.89 338.24,-299.23"/>
</g>
<!-- Node19 -->
<g id="node19" class="node">
<title>Node19</title>
<g id="a_node19"><a xlink:href="../../d9/d98/TeensyUSBTypes_8hpp.html" target="_top" xlink:title=" ">
<polygon fill="white" stroke="black" points="498.5,-280.5 498.5,-299.5 671.5,-299.5 671.5,-280.5 498.5,-280.5"/>
<text text-anchor="middle" x="585" y="-287.5" font-family="Helvetica,sans-Serif" font-size="10.00">AH/Teensy/TeensyUSBTypes.hpp</text>
</a>
</g>
</g>
<!-- Node12&#45;&gt;Node19 -->
<g id="edge31" class="edge">
<title>Node12&#45;&gt;Node19</title>
<path fill="none" stroke="midnightblue" d="M488.22,-336.44C506.9,-327.68 536.16,-313.94 557.62,-303.86"/>
<polygon fill="midnightblue" stroke="midnightblue" points="559.3,-306.93 566.86,-299.52 556.32,-300.6 559.3,-306.93"/>
</g>
<!-- Node14 -->
<g id="node14" class="node">
<title>Node14</title>
<g id="a_node14"><a xlink:href="../../dc/d50/Frequency_8hpp.html" target="_top" xlink:title=" ">
<polygon fill="white" stroke="black" points="104,-112.5 104,-131.5 238,-131.5 238,-112.5 104,-112.5"/>
<text text-anchor="middle" x="171" y="-119.5" font-family="Helvetica,sans-Serif" font-size="10.00">AH/Types/Frequency.hpp</text>
</a>
</g>
</g>
<!-- Node13&#45;&gt;Node14 -->
<g id="edge22" class="edge">
<title>Node13&#45;&gt;Node14</title>
<path fill="none" stroke="midnightblue" d="M262.15,-284.07C217.58,-277.52 148.63,-264.36 133,-244 108.65,-212.26 138,-164.63 157.1,-139.65"/>
<polygon fill="midnightblue" stroke="midnightblue" points="160.06,-141.54 163.55,-131.54 154.58,-137.18 160.06,-141.54"/>
</g>
<!-- Node15 -->
<g id="node15" class="node">
<title>Node15</title>
<g id="a_node15"><a xlink:href="../../d7/d7c/ADCConfig_8hpp.html" target="_top" xlink:title="This file contains the platform&#45;specific ADC resolutions.">
<polygon fill="white" stroke="black" points="284.5,-224.5 284.5,-243.5 441.5,-243.5 441.5,-224.5 284.5,-224.5"/>
<text text-anchor="middle" x="363" y="-231.5" font-family="Helvetica,sans-Serif" font-size="10.00">AH/Hardware/ADCConfig.hpp</text>
</a>
</g>
</g>
<!-- Node13&#45;&gt;Node15 -->
<g id="edge25" class="edge">
<title>Node13&#45;&gt;Node15</title>
<path fill="none" stroke="midnightblue" d="M310.96,-280.32C320.13,-272.34 333.94,-260.31 345.03,-250.65"/>
<polygon fill="midnightblue" stroke="midnightblue" points="347.62,-253.04 352.86,-243.83 343.02,-247.76 347.62,-253.04"/>
</g>
<!-- Node16 -->
<g id="node16" class="node">
<title>Node16</title>
<g id="a_node16"><a xlink:title=" ">
<polygon fill="white" stroke="#bfbfbf" points="142.5,-224.5 142.5,-243.5 195.5,-243.5 195.5,-224.5 142.5,-224.5"/>
<text text-anchor="middle" x="169" y="-231.5" font-family="Helvetica,sans-Serif" font-size="10.00">limits.h</text>
</a>
</g>
</g>
<!-- Node13&#45;&gt;Node16 -->
<g id="edge28" class="edge">
<title>Node13&#45;&gt;Node16</title>
<path fill="none" stroke="midnightblue" d="M280.08,-280.44C258.26,-271.52 223.85,-257.44 199.11,-247.32"/>
<polygon fill="midnightblue" stroke="midnightblue" points="200.4,-244.06 189.82,-243.52 197.75,-250.54 200.4,-244.06"/>
</g>
<!-- Node13&#45;&gt;Node17 -->
<g id="edge29" class="edge">
<title>Node13&#45;&gt;Node17</title>
<path fill="none" stroke="midnightblue" d="M336.65,-280.44C377.98,-270.53 445.8,-254.25 488.07,-244.1"/>
<polygon fill="midnightblue" stroke="midnightblue" points="489.07,-247.46 497.98,-241.73 487.44,-240.66 489.07,-247.46"/>
</g>
<!-- Node18 -->
<g id="node18" class="node">
<title>Node18</title>
<g id="a_node18"><a xlink:title=" ">
<polygon fill="white" stroke="#bfbfbf" points="213.5,-224.5 213.5,-243.5 266.5,-243.5 266.5,-224.5 213.5,-224.5"/>
<text text-anchor="middle" x="240" y="-231.5" font-family="Helvetica,sans-Serif" font-size="10.00">stdint.h</text>
</a>
</g>
</g>
<!-- Node13&#45;&gt;Node18 -->
<g id="edge30" class="edge">
<title>Node13&#45;&gt;Node18</title>
<path fill="none" stroke="midnightblue" d="M291.2,-280.32C282.18,-272.34 268.59,-260.31 257.68,-250.65"/>
<polygon fill="midnightblue" stroke="midnightblue" points="259.79,-247.84 249.98,-243.83 255.15,-253.08 259.79,-247.84"/>
</g>
<!-- Node14&#45;&gt;Node2 -->
<g id="edge23" class="edge">
<title>Node14&#45;&gt;Node2</title>
<path fill="none" stroke="midnightblue" d="M178.45,-112.37C194.27,-94.05 231.41,-51.05 251.87,-27.36"/>
<polygon fill="midnightblue" stroke="midnightblue" points="254.69,-29.45 258.58,-19.59 249.4,-24.87 254.69,-29.45"/>
</g>
<!-- Node14&#45;&gt;Node6 -->
<g id="edge24" class="edge">
<title>Node14&#45;&gt;Node6</title>
<path fill="none" stroke="midnightblue" d="M205.86,-112.44C243.92,-103.1 304.96,-88.12 346.46,-77.93"/>
<polygon fill="midnightblue" stroke="midnightblue" points="347.43,-81.3 356.3,-75.52 345.76,-74.5 347.43,-81.3"/>
</g>
<!-- Node15&#45;&gt;Node2 -->
<g id="edge26" class="edge">
<title>Node15&#45;&gt;Node2</title>
<path fill="none" stroke="midnightblue" d="M358.04,-224.4C344.78,-201.11 307.94,-134.68 285,-76 278.98,-60.6 273.84,-42.51 270.43,-29.32"/>
<polygon fill="midnightblue" stroke="midnightblue" points="273.81,-28.43 267.99,-19.57 267.02,-30.12 273.81,-28.43"/>
</g>
<!-- Node15&#45;&gt;Node7 -->
<g id="edge27" class="edge">
<title>Node15&#45;&gt;Node7</title>
<path fill="none" stroke="midnightblue" d="M409.9,-224.44C462.08,-214.92 546.37,-199.55 602.23,-189.36"/>
<polygon fill="midnightblue" stroke="midnightblue" points="603.11,-192.75 612.32,-187.52 601.85,-185.87 603.11,-192.75"/>
</g>
</g>
</svg>
