<?xml version="1.0" encoding="UTF-8" standalone="no"?>
<!DOCTYPE svg PUBLIC "-//W3C//DTD SVG 1.1//EN"
 "http://www.w3.org/Graphics/SVG/1.1/DTD/svg11.dtd">
<!-- Generated by graphviz version 2.40.1 (20161225.0304)
 -->
<!-- Title: ShiftRegisterOut.hpp Pages: 1 -->
<svg width="116pt" height="84pt"
 viewBox="0.00 0.00 116.00 84.00" xmlns="http://www.w3.org/2000/svg" xmlns:xlink="http://www.w3.org/1999/xlink">
<g id="graph0" class="graph" transform="scale(1 1) rotate(0) translate(4 80)">
<title>ShiftRegisterOut.hpp</title>
<polygon fill="#ffffff" stroke="transparent" points="-4,4 -4,-80 112,-80 112,4 -4,4"/>
<!-- Node1 -->
<g id="node1" class="node">
<title>Node1</title>
<g id="a_node1"><a xlink:title=" ">
<polygon fill="#bfbfbf" stroke="#000000" points="0,-56.5 0,-75.5 108,-75.5 108,-56.5 0,-56.5"/>
<text text-anchor="middle" x="54" y="-63.5" font-family="Helvetica,sans-Serif" font-size="10.00" fill="#000000">ShiftRegisterOut.hpp</text>
</a>
</g>
</g>
<!-- Node2 -->
<g id="node2" class="node">
<title>Node2</title>
<g id="a_node2"><a xlink:href="../../de/d95/ShiftRegisterOut_8ipp.html" target="_top" xlink:title=" ">
<polygon fill="#ffffff" stroke="#000000" points="1.5,-.5 1.5,-19.5 106.5,-19.5 106.5,-.5 1.5,-.5"/>
<text text-anchor="middle" x="54" y="-7.5" font-family="Helvetica,sans-Serif" font-size="10.00" fill="#000000">ShiftRegisterOut.ipp</text>
</a>
</g>
</g>
<!-- Node1&#45;&gt;Node2 -->
<g id="edge1" class="edge">
<title>Node1&#45;&gt;Node2</title>
<path fill="none" stroke="#191970" d="M47.5113,-46.1575C46.919,-37.155 47.3335,-26.9199 48.7549,-19.6427"/>
<polygon fill="#191970" stroke="#191970" points="44.0561,-46.739 48.7332,-56.2455 51.0053,-45.8972 44.0561,-46.739"/>
</g>
<!-- Node2&#45;&gt;Node1 -->
<g id="edge2" class="edge">
<title>Node2&#45;&gt;Node1</title>
<path fill="none" stroke="#191970" d="M60.4795,-29.7046C61.0821,-38.6944 60.6779,-48.9382 59.2668,-56.2455"/>
<polygon fill="#191970" stroke="#191970" points="63.9368,-29.1421 59.2451,-19.6427 56.9889,-29.9945 63.9368,-29.1421"/>
</g>
</g>
</svg>
