<?xml version="1.0" encoding="UTF-8" standalone="no"?>
<!DOCTYPE svg PUBLIC "-//W3C//DTD SVG 1.1//EN"
 "http://www.w3.org/Graphics/SVG/1.1/DTD/svg11.dtd">
<!-- Generated by graphviz version 2.43.0 (0)
 -->
<!-- Title: Hardware&#45;Types.hpp Pages: 1 -->
<svg width="1833pt" height="420pt"
 viewBox="0.00 0.00 1832.99 420.00" xmlns="http://www.w3.org/2000/svg" xmlns:xlink="http://www.w3.org/1999/xlink">
<g id="graph0" class="graph" transform="scale(1 1) rotate(0) translate(4 416)">
<title>Hardware&#45;Types.hpp</title>
<polygon fill="white" stroke="transparent" points="-4,4 -4,-416 1828.99,-416 1828.99,4 -4,4"/>
<!-- Node1 -->
<g id="node1" class="node">
<title>Node1</title>
<g id="a_node1"><a xlink:title=" ">
<polygon fill="#bfbfbf" stroke="black" points="1334.59,-392.5 1334.59,-411.5 1450.59,-411.5 1450.59,-392.5 1334.59,-392.5"/>
<text text-anchor="middle" x="1392.59" y="-399.5" font-family="Helvetica,sans-Serif" font-size="10.00">Hardware&#45;Types.hpp</text>
</a>
</g>
</g>
<!-- Node2 -->
<g id="node2" class="node">
<title>Node2</title>
<g id="a_node2"><a xlink:href="../../d2/d3c/Arduino-Hardware-Types_8hpp.html" target="_top" xlink:title=" ">
<polygon fill="white" stroke="black" points="972.09,-336.5 972.09,-355.5 1129.09,-355.5 1129.09,-336.5 972.09,-336.5"/>
<text text-anchor="middle" x="1050.59" y="-343.5" font-family="Helvetica,sans-Serif" font-size="10.00">Arduino&#45;Hardware&#45;Types.hpp</text>
</a>
</g>
</g>
<!-- Node1&#45;&gt;Node2 -->
<g id="edge1" class="edge">
<title>Node1&#45;&gt;Node2</title>
<path fill="none" stroke="midnightblue" d="M1328.33,-390.85C1263.71,-380.65 1165.21,-365.1 1104.53,-355.52"/>
<polygon fill="midnightblue" stroke="midnightblue" points="1327.98,-394.34 1338.4,-392.44 1329.07,-387.43 1327.98,-394.34"/>
</g>
<!-- Node13 -->
<g id="node13" class="node">
<title>Node13</title>
<g id="a_node13"><a xlink:href="../../d9/d4b/ButtonMatrix_8hpp.html" target="_top" xlink:title=" ">
<polygon fill="white" stroke="black" points="1689.09,-168.5 1689.09,-187.5 1790.09,-187.5 1790.09,-168.5 1689.09,-168.5"/>
<text text-anchor="middle" x="1739.59" y="-175.5" font-family="Helvetica,sans-Serif" font-size="10.00">ButtonMatrix.hpp</text>
</a>
</g>
</g>
<!-- Node1&#45;&gt;Node13 -->
<g id="edge45" class="edge">
<title>Node1&#45;&gt;Node13</title>
<path fill="none" stroke="midnightblue" d="M1460.93,-398.76C1559.67,-391.39 1739.28,-361.57 1820.59,-244 1838.03,-218.79 1796.59,-198.4 1766.78,-187.54"/>
<polygon fill="midnightblue" stroke="midnightblue" points="1460.5,-395.28 1450.76,-399.46 1460.98,-402.26 1460.5,-395.28"/>
</g>
<!-- Node14 -->
<g id="node14" class="node">
<title>Node14</title>
<g id="a_node14"><a xlink:href="../../d4/d57/ExtendedIOElement_8hpp.html" target="_top" xlink:title=" ">
<polygon fill="white" stroke="black" points="502.59,-224.5 502.59,-243.5 636.59,-243.5 636.59,-224.5 502.59,-224.5"/>
<text text-anchor="middle" x="569.59" y="-231.5" font-family="Helvetica,sans-Serif" font-size="10.00">ExtendedIOElement.hpp</text>
</a>
</g>
</g>
<!-- Node1&#45;&gt;Node14 -->
<g id="edge46" class="edge">
<title>Node1&#45;&gt;Node14</title>
<path fill="none" stroke="midnightblue" d="M1324.4,-397.92C1239.25,-393.15 1089.45,-381.68 963.59,-356 818.81,-326.46 651.24,-265.85 591.85,-243.51"/>
<polygon fill="midnightblue" stroke="midnightblue" points="1324.28,-401.42 1334.46,-398.47 1324.66,-394.43 1324.28,-401.42"/>
</g>
<!-- Node27 -->
<g id="node27" class="node">
<title>Node27</title>
<g id="a_node27"><a xlink:href="../../d8/df3/FilteredAnalog_8hpp.html" target="_top" xlink:title=" ">
<polygon fill="white" stroke="black" points="1703.59,-224.5 1703.59,-243.5 1811.59,-243.5 1811.59,-224.5 1703.59,-224.5"/>
<text text-anchor="middle" x="1757.59" y="-231.5" font-family="Helvetica,sans-Serif" font-size="10.00">FilteredAnalog.hpp</text>
</a>
</g>
</g>
<!-- Node1&#45;&gt;Node27 -->
<g id="edge47" class="edge">
<title>Node1&#45;&gt;Node27</title>
<path fill="none" stroke="midnightblue" d="M1420.72,-388.21C1492.04,-355.77 1678.53,-270.96 1738.63,-243.62"/>
<polygon fill="midnightblue" stroke="midnightblue" points="1419.1,-385.1 1411.45,-392.42 1422,-391.47 1419.1,-385.1"/>
</g>
<!-- Node3 -->
<g id="node3" class="node">
<title>Node3</title>
<g id="a_node3"><a xlink:href="../../dd/ddf/ExtendedInputOutput_8hpp.html" target="_top" xlink:title=" ">
<polygon fill="white" stroke="black" points="902.09,-280.5 902.09,-299.5 1043.09,-299.5 1043.09,-280.5 902.09,-280.5"/>
<text text-anchor="middle" x="972.59" y="-287.5" font-family="Helvetica,sans-Serif" font-size="10.00">ExtendedInputOutput.hpp</text>
</a>
</g>
</g>
<!-- Node2&#45;&gt;Node3 -->
<g id="edge2" class="edge">
<title>Node2&#45;&gt;Node3</title>
<path fill="none" stroke="midnightblue" d="M1029.82,-330.62C1015.58,-320.76 997.14,-307.99 985.09,-299.65"/>
<polygon fill="midnightblue" stroke="midnightblue" points="1027.85,-333.51 1038.06,-336.32 1031.83,-327.75 1027.85,-333.51"/>
</g>
<!-- Node4 -->
<g id="node4" class="node">
<title>Node4</title>
<g id="a_node4"><a xlink:href="../../d7/def/AnalogMultiplex_8hpp.html" target="_top" xlink:title=" ">
<polygon fill="white" stroke="black" points="607.09,-112.5 607.09,-131.5 724.09,-131.5 724.09,-112.5 607.09,-112.5"/>
<text text-anchor="middle" x="665.59" y="-119.5" font-family="Helvetica,sans-Serif" font-size="10.00">AnalogMultiplex.hpp</text>
</a>
</g>
</g>
<!-- Node3&#45;&gt;Node4 -->
<g id="edge3" class="edge">
<title>Node3&#45;&gt;Node4</title>
<path fill="none" stroke="midnightblue" d="M966.32,-270.7C955.51,-240.26 932.9,-181.28 915.59,-168 886.33,-145.55 788.6,-133.23 724.35,-127.38"/>
<polygon fill="midnightblue" stroke="midnightblue" points="963.13,-272.19 969.73,-280.48 969.74,-269.89 963.13,-272.19"/>
</g>
<!-- Node5 -->
<g id="node5" class="node">
<title>Node5</title>
<g id="a_node5"><a xlink:href="../../d4/db3/Button_8hpp.html" target="_top" xlink:title=" ">
<polygon fill="white" stroke="black" points="1228.59,-224.5 1228.59,-243.5 1298.59,-243.5 1298.59,-224.5 1228.59,-224.5"/>
<text text-anchor="middle" x="1263.59" y="-231.5" font-family="Helvetica,sans-Serif" font-size="10.00">Button.hpp</text>
</a>
</g>
</g>
<!-- Node3&#45;&gt;Node5 -->
<g id="edge4" class="edge">
<title>Node3&#45;&gt;Node5</title>
<path fill="none" stroke="midnightblue" d="M1028.6,-278.61C1087.54,-267.67 1178.53,-250.78 1228.22,-241.56"/>
<polygon fill="midnightblue" stroke="midnightblue" points="1027.9,-275.18 1018.7,-280.44 1029.17,-282.06 1027.9,-275.18"/>
</g>
<!-- Node12 -->
<g id="node12" class="node">
<title>Node12</title>
<g id="a_node12"><a xlink:href="../../d5/d41/ButtonMatrix_8ipp.html" target="_top" xlink:title=" ">
<polygon fill="white" stroke="black" points="1587.59,-224.5 1587.59,-243.5 1685.59,-243.5 1685.59,-224.5 1587.59,-224.5"/>
<text text-anchor="middle" x="1636.59" y="-231.5" font-family="Helvetica,sans-Serif" font-size="10.00">ButtonMatrix.ipp</text>
</a>
</g>
</g>
<!-- Node3&#45;&gt;Node12 -->
<g id="edge11" class="edge">
<title>Node3&#45;&gt;Node12</title>
<path fill="none" stroke="midnightblue" d="M1053.69,-284.66C1169.31,-278.08 1388.06,-264.18 1573.59,-244 1578.1,-243.51 1582.77,-242.95 1587.45,-242.35"/>
<polygon fill="midnightblue" stroke="midnightblue" points="1053.3,-281.18 1043.51,-285.24 1053.69,-288.17 1053.3,-281.18"/>
</g>
<!-- Node3&#45;&gt;Node14 -->
<g id="edge14" class="edge">
<title>Node3&#45;&gt;Node14</title>
<path fill="none" stroke="midnightblue" d="M898.74,-279.1C822.64,-268.91 705.24,-253.18 633.15,-243.52"/>
<polygon fill="midnightblue" stroke="midnightblue" points="898.36,-282.58 908.74,-280.44 899.29,-275.65 898.36,-282.58"/>
</g>
<!-- Node16 -->
<g id="node16" class="node">
<title>Node16</title>
<g id="a_node16"><a xlink:href="../../d6/d3c/ExtendedInputOutput_8cpp.html" target="_top" xlink:title=" ">
<polygon fill="white" stroke="black" points="616.59,-168.5 616.59,-187.5 756.59,-187.5 756.59,-168.5 616.59,-168.5"/>
<text text-anchor="middle" x="686.59" y="-175.5" font-family="Helvetica,sans-Serif" font-size="10.00">ExtendedInputOutput.cpp</text>
</a>
</g>
</g>
<!-- Node3&#45;&gt;Node16 -->
<g id="edge32" class="edge">
<title>Node3&#45;&gt;Node16</title>
<path fill="none" stroke="midnightblue" d="M954.82,-273.84C936.58,-259.03 906.81,-236.9 877.59,-224 836.14,-205.7 786.21,-194.27 747.79,-187.51"/>
<polygon fill="midnightblue" stroke="midnightblue" points="952.86,-276.76 962.8,-280.45 957.33,-271.37 952.86,-276.76"/>
</g>
<!-- Node19 -->
<g id="node19" class="node">
<title>Node19</title>
<g id="a_node19"><a xlink:href="../../d7/dca/MCP23017_8hpp.html" target="_top" xlink:title=" ">
<polygon fill="white" stroke="black" points="327.09,-112.5 327.09,-131.5 416.09,-131.5 416.09,-112.5 327.09,-112.5"/>
<text text-anchor="middle" x="371.59" y="-119.5" font-family="Helvetica,sans-Serif" font-size="10.00">MCP23017.hpp</text>
</a>
</g>
</g>
<!-- Node3&#45;&gt;Node19 -->
<g id="edge39" class="edge">
<title>Node3&#45;&gt;Node19</title>
<path fill="none" stroke="midnightblue" d="M891.9,-283.8C712.81,-271.41 294.73,-237.42 255.59,-188 232.37,-158.68 284.99,-140.44 326.77,-131"/>
<polygon fill="midnightblue" stroke="midnightblue" points="891.84,-287.31 902.06,-284.5 892.32,-280.32 891.84,-287.31"/>
</g>
<!-- Node21 -->
<g id="node21" class="node">
<title>Node21</title>
<g id="a_node21"><a xlink:href="../../d8/d93/ShiftRegisterOutBase_8hpp.html" target="_top" xlink:title=" ">
<polygon fill="white" stroke="black" points="940.09,-112.5 940.09,-131.5 1081.09,-131.5 1081.09,-112.5 940.09,-112.5"/>
<text text-anchor="middle" x="1010.59" y="-119.5" font-family="Helvetica,sans-Serif" font-size="10.00">ShiftRegisterOutBase.hpp</text>
</a>
</g>
</g>
<!-- Node3&#45;&gt;Node21 -->
<g id="edge43" class="edge">
<title>Node3&#45;&gt;Node21</title>
<path fill="none" stroke="midnightblue" d="M978.71,-270.87C981.34,-262.72 984.32,-252.93 986.59,-244 997.19,-202.28 1005.94,-151.48 1009.21,-131.58"/>
<polygon fill="midnightblue" stroke="midnightblue" points="975.36,-269.86 975.55,-280.45 982.01,-272.05 975.36,-269.86"/>
</g>
<!-- Node23 -->
<g id="node23" class="node">
<title>Node23</title>
<g id="a_node23"><a xlink:href="../../da/d45/SPIShiftRegisterOut_8ipp.html" target="_top" xlink:title=" ">
<polygon fill="white" stroke="black" points="1077.09,-0.5 1077.09,-19.5 1206.09,-19.5 1206.09,-0.5 1077.09,-0.5"/>
<text text-anchor="middle" x="1141.59" y="-7.5" font-family="Helvetica,sans-Serif" font-size="10.00">SPIShiftRegisterOut.ipp</text>
</a>
</g>
</g>
<!-- Node3&#45;&gt;Node23 -->
<g id="edge41" class="edge">
<title>Node3&#45;&gt;Node23</title>
<path fill="none" stroke="midnightblue" d="M1053.44,-282.7C1223.13,-268.65 1603.97,-232.46 1641.59,-188 1763.91,-43.46 1367.15,-16.92 1206.26,-12.07"/>
<polygon fill="midnightblue" stroke="midnightblue" points="1052.98,-279.22 1043.31,-283.53 1053.56,-286.2 1052.98,-279.22"/>
</g>
<!-- Node25 -->
<g id="node25" class="node">
<title>Node25</title>
<g id="a_node25"><a xlink:href="../../de/d95/ShiftRegisterOut_8ipp.html" target="_top" xlink:title=" ">
<polygon fill="white" stroke="black" points="941.59,-0.5 941.59,-19.5 1055.59,-19.5 1055.59,-0.5 941.59,-0.5"/>
<text text-anchor="middle" x="998.59" y="-7.5" font-family="Helvetica,sans-Serif" font-size="10.00">ShiftRegisterOut.ipp</text>
</a>
</g>
</g>
<!-- Node3&#45;&gt;Node25 -->
<g id="edge42" class="edge">
<title>Node3&#45;&gt;Node25</title>
<path fill="none" stroke="midnightblue" d="M968.89,-270.05C966.26,-257.04 962.51,-239.4 958.59,-224 939.97,-150.7 896.02,-122.74 931.59,-56 940.88,-38.56 960.27,-26.68 975.8,-19.53"/>
<polygon fill="midnightblue" stroke="midnightblue" points="965.51,-270.99 970.89,-280.12 972.38,-269.63 965.51,-270.99"/>
</g>
<!-- Node26 -->
<g id="node26" class="node">
<title>Node26</title>
<g id="a_node26"><a xlink:href="../../d5/d47/ShiftRegisterOutBase_8ipp.html" target="_top" xlink:title=" ">
<polygon fill="white" stroke="black" points="1225.59,-56.5 1225.59,-75.5 1363.59,-75.5 1363.59,-56.5 1225.59,-56.5"/>
<text text-anchor="middle" x="1294.59" y="-63.5" font-family="Helvetica,sans-Serif" font-size="10.00">ShiftRegisterOutBase.ipp</text>
</a>
</g>
</g>
<!-- Node3&#45;&gt;Node26 -->
<g id="edge44" class="edge">
<title>Node3&#45;&gt;Node26</title>
<path fill="none" stroke="midnightblue" d="M984.45,-271.89C1005.17,-242.38 1047.63,-183.55 1067.59,-168 1129.18,-120.01 1217.15,-89.39 1263.42,-75.57"/>
<polygon fill="midnightblue" stroke="midnightblue" points="981.4,-270.15 978.55,-280.35 987.14,-274.16 981.4,-270.15"/>
</g>
<!-- Node3&#45;&gt;Node27 -->
<g id="edge33" class="edge">
<title>Node3&#45;&gt;Node27</title>
<path fill="none" stroke="midnightblue" d="M1053.36,-286.07C1187.01,-280.74 1462.48,-267.77 1694.59,-244 1697.45,-243.71 1700.38,-243.38 1703.33,-243.03"/>
<polygon fill="midnightblue" stroke="midnightblue" points="1053.06,-282.58 1043.2,-286.47 1053.33,-289.57 1053.06,-282.58"/>
</g>
<!-- Node28 -->
<g id="node28" class="node">
<title>Node28</title>
<g id="a_node28"><a xlink:href="../../d9/d4f/LEDs_8hpp.html" target="_top" xlink:title=" ">
<polygon fill="white" stroke="black" points="654.59,-224.5 654.59,-243.5 716.59,-243.5 716.59,-224.5 654.59,-224.5"/>
<text text-anchor="middle" x="685.59" y="-231.5" font-family="Helvetica,sans-Serif" font-size="10.00">LEDs.hpp</text>
</a>
</g>
</g>
<!-- Node3&#45;&gt;Node28 -->
<g id="edge34" class="edge">
<title>Node3&#45;&gt;Node28</title>
<path fill="none" stroke="midnightblue" d="M912.32,-278.73C862.22,-270.03 789.13,-256.93 725.59,-244 722.8,-243.43 719.91,-242.82 717.01,-242.2"/>
<polygon fill="midnightblue" stroke="midnightblue" points="911.88,-282.21 922.33,-280.47 913.08,-275.31 911.88,-282.21"/>
</g>
<!-- Node30 -->
<g id="node30" class="node">
<title>Node30</title>
<g id="a_node30"><a xlink:href="../../d7/d13/MAX7219__Base_8hpp.html" target="_top" xlink:title=" ">
<polygon fill="white" stroke="black" points="55.09,-224.5 55.09,-243.5 168.09,-243.5 168.09,-224.5 55.09,-224.5"/>
<text text-anchor="middle" x="111.59" y="-231.5" font-family="Helvetica,sans-Serif" font-size="10.00">MAX7219_Base.hpp</text>
</a>
</g>
</g>
<!-- Node3&#45;&gt;Node30 -->
<g id="edge36" class="edge">
<title>Node3&#45;&gt;Node30</title>
<path fill="none" stroke="midnightblue" d="M891.96,-284.72C754.53,-277.3 466.16,-261.18 222.59,-244 204.95,-242.76 185.73,-241.25 168.33,-239.83"/>
<polygon fill="midnightblue" stroke="midnightblue" points="891.81,-288.22 901.99,-285.26 892.19,-281.23 891.81,-288.22"/>
</g>
<!-- Node32 -->
<g id="node32" class="node">
<title>Node32</title>
<g id="a_node32"><a xlink:href="../../d8/dd2/MCP23017Encoders_8hpp.html" target="_top" xlink:title=" ">
<polygon fill="white" stroke="black" points="734.59,-224.5 734.59,-243.5 868.59,-243.5 868.59,-224.5 734.59,-224.5"/>
<text text-anchor="middle" x="801.59" y="-231.5" font-family="Helvetica,sans-Serif" font-size="10.00">MCP23017Encoders.hpp</text>
</a>
</g>
</g>
<!-- Node3&#45;&gt;Node32 -->
<g id="edge40" class="edge">
<title>Node3&#45;&gt;Node32</title>
<path fill="none" stroke="midnightblue" d="M935.56,-277.3C903.34,-267.13 857.4,-252.62 828.56,-243.52"/>
<polygon fill="midnightblue" stroke="midnightblue" points="934.91,-280.77 945.5,-280.44 937.01,-274.09 934.91,-280.77"/>
</g>
<!-- Node6 -->
<g id="node6" class="node">
<title>Node6</title>
<g id="a_node6"><a xlink:href="../../de/dd1/Button_8cpp.html" target="_top" xlink:title=" ">
<polygon fill="white" stroke="black" points="1229.09,-168.5 1229.09,-187.5 1298.09,-187.5 1298.09,-168.5 1229.09,-168.5"/>
<text text-anchor="middle" x="1263.59" y="-175.5" font-family="Helvetica,sans-Serif" font-size="10.00">Button.cpp</text>
</a>
</g>
</g>
<!-- Node5&#45;&gt;Node6 -->
<g id="edge5" class="edge">
<title>Node5&#45;&gt;Node6</title>
<path fill="none" stroke="midnightblue" d="M1263.59,-213.8C1263.59,-204.91 1263.59,-194.78 1263.59,-187.75"/>
<polygon fill="midnightblue" stroke="midnightblue" points="1260.09,-214.08 1263.59,-224.08 1267.09,-214.08 1260.09,-214.08"/>
</g>
<!-- Node7 -->
<g id="node7" class="node">
<title>Node7</title>
<g id="a_node7"><a xlink:href="../../d5/d04/IncrementButton_8hpp.html" target="_top" xlink:title=" ">
<polygon fill="white" stroke="black" points="1316.09,-168.5 1316.09,-187.5 1435.09,-187.5 1435.09,-168.5 1316.09,-168.5"/>
<text text-anchor="middle" x="1375.59" y="-175.5" font-family="Helvetica,sans-Serif" font-size="10.00">IncrementButton.hpp</text>
</a>
</g>
</g>
<!-- Node5&#45;&gt;Node7 -->
<g id="edge6" class="edge">
<title>Node5&#45;&gt;Node7</title>
<path fill="none" stroke="midnightblue" d="M1290.84,-219.86C1311.61,-209.85 1339.62,-196.35 1357.64,-187.65"/>
<polygon fill="midnightblue" stroke="midnightblue" points="1289.07,-216.83 1281.59,-224.32 1292.11,-223.13 1289.07,-216.83"/>
</g>
<!-- Node9 -->
<g id="node9" class="node">
<title>Node9</title>
<g id="a_node9"><a xlink:href="../../df/df5/IncrementDecrementButtons_8hpp.html" target="_top" xlink:title=" ">
<polygon fill="white" stroke="black" points="1453.09,-168.5 1453.09,-187.5 1632.09,-187.5 1632.09,-168.5 1453.09,-168.5"/>
<text text-anchor="middle" x="1542.59" y="-175.5" font-family="Helvetica,sans-Serif" font-size="10.00">IncrementDecrementButtons.hpp</text>
</a>
</g>
</g>
<!-- Node5&#45;&gt;Node9 -->
<g id="edge8" class="edge">
<title>Node5&#45;&gt;Node9</title>
<path fill="none" stroke="midnightblue" d="M1308.62,-224.28C1360.84,-214.18 1446.35,-197.63 1498.26,-187.58"/>
<polygon fill="midnightblue" stroke="midnightblue" points="1307.8,-220.88 1298.65,-226.22 1309.13,-227.75 1307.8,-220.88"/>
</g>
<!-- Node11 -->
<g id="node11" class="node">
<title>Node11</title>
<g id="a_node11"><a xlink:href="../../dc/dc5/MultiPurposeButton_8hpp.html" target="_top" xlink:title=" ">
<polygon fill="white" stroke="black" points="1076.59,-168.5 1076.59,-187.5 1210.59,-187.5 1210.59,-168.5 1076.59,-168.5"/>
<text text-anchor="middle" x="1143.59" y="-175.5" font-family="Helvetica,sans-Serif" font-size="10.00">MultiPurposeButton.hpp</text>
</a>
</g>
</g>
<!-- Node5&#45;&gt;Node11 -->
<g id="edge10" class="edge">
<title>Node5&#45;&gt;Node11</title>
<path fill="none" stroke="midnightblue" d="M1235.22,-220.23C1212.77,-210.13 1182.06,-196.31 1162.52,-187.52"/>
<polygon fill="midnightblue" stroke="midnightblue" points="1234.02,-223.53 1244.58,-224.44 1236.9,-217.15 1234.02,-223.53"/>
</g>
<!-- Node8 -->
<g id="node8" class="node">
<title>Node8</title>
<g id="a_node8"><a xlink:href="../../db/d9d/IncrementButton_8cpp.html" target="_top" xlink:title=" ">
<polygon fill="white" stroke="black" points="1316.09,-112.5 1316.09,-131.5 1435.09,-131.5 1435.09,-112.5 1316.09,-112.5"/>
<text text-anchor="middle" x="1375.59" y="-119.5" font-family="Helvetica,sans-Serif" font-size="10.00">IncrementButton.cpp</text>
</a>
</g>
</g>
<!-- Node7&#45;&gt;Node8 -->
<g id="edge7" class="edge">
<title>Node7&#45;&gt;Node8</title>
<path fill="none" stroke="midnightblue" d="M1375.59,-157.8C1375.59,-148.91 1375.59,-138.78 1375.59,-131.75"/>
<polygon fill="midnightblue" stroke="midnightblue" points="1372.09,-158.08 1375.59,-168.08 1379.09,-158.08 1372.09,-158.08"/>
</g>
<!-- Node10 -->
<g id="node10" class="node">
<title>Node10</title>
<g id="a_node10"><a xlink:href="../../da/d66/IncrementDecrementButtons_8cpp.html" target="_top" xlink:title=" ">
<polygon fill="white" stroke="black" points="1453.59,-112.5 1453.59,-131.5 1631.59,-131.5 1631.59,-112.5 1453.59,-112.5"/>
<text text-anchor="middle" x="1542.59" y="-119.5" font-family="Helvetica,sans-Serif" font-size="10.00">IncrementDecrementButtons.cpp</text>
</a>
</g>
</g>
<!-- Node9&#45;&gt;Node10 -->
<g id="edge9" class="edge">
<title>Node9&#45;&gt;Node10</title>
<path fill="none" stroke="midnightblue" d="M1542.59,-157.8C1542.59,-148.91 1542.59,-138.78 1542.59,-131.75"/>
<polygon fill="midnightblue" stroke="midnightblue" points="1539.09,-158.08 1542.59,-168.08 1546.09,-158.08 1539.09,-158.08"/>
</g>
<!-- Node12&#45;&gt;Node13 -->
<g id="edge12" class="edge">
<title>Node12&#45;&gt;Node13</title>
<path fill="none" stroke="midnightblue" d="M1656.98,-219.18C1674.67,-209.24 1699.93,-196.15 1717.97,-187.65"/>
<polygon fill="midnightblue" stroke="midnightblue" points="1654.95,-216.31 1648.03,-224.32 1658.44,-222.38 1654.95,-216.31"/>
</g>
<!-- Node13&#45;&gt;Node12 -->
<g id="edge13" class="edge">
<title>Node13&#45;&gt;Node12</title>
<path fill="none" stroke="midnightblue" d="M1719.45,-192.68C1701.69,-202.67 1676.15,-215.91 1658,-224.44"/>
<polygon fill="midnightblue" stroke="midnightblue" points="1721.51,-195.54 1728.43,-187.52 1718.02,-189.47 1721.51,-195.54"/>
</g>
<!-- Node15 -->
<g id="node15" class="node">
<title>Node15</title>
<g id="a_node15"><a xlink:href="../../da/d1f/ExtendedIOElement_8cpp.html" target="_top" xlink:title=" ">
<polygon fill="white" stroke="black" points="264.59,-168.5 264.59,-187.5 398.59,-187.5 398.59,-168.5 264.59,-168.5"/>
<text text-anchor="middle" x="331.59" y="-175.5" font-family="Helvetica,sans-Serif" font-size="10.00">ExtendedIOElement.cpp</text>
</a>
</g>
</g>
<!-- Node14&#45;&gt;Node15 -->
<g id="edge15" class="edge">
<title>Node14&#45;&gt;Node15</title>
<path fill="none" stroke="midnightblue" d="M522.07,-222.22C477.1,-212.01 410.49,-196.9 369.13,-187.52"/>
<polygon fill="midnightblue" stroke="midnightblue" points="521.35,-225.64 531.88,-224.44 522.9,-218.82 521.35,-225.64"/>
</g>
<!-- Node14&#45;&gt;Node16 -->
<g id="edge16" class="edge">
<title>Node14&#45;&gt;Node16</title>
<path fill="none" stroke="midnightblue" d="M597.26,-220.23C619.14,-210.13 649.09,-196.31 668.14,-187.52"/>
<polygon fill="midnightblue" stroke="midnightblue" points="595.74,-217.08 588.13,-224.44 598.68,-223.43 595.74,-217.08"/>
</g>
<!-- Node17 -->
<g id="node17" class="node">
<title>Node17</title>
<g id="a_node17"><a xlink:href="../../d2/d05/StaticSizeExtendedIOElement_8hpp.html" target="_top" xlink:title=" ">
<polygon fill="white" stroke="black" points="416.59,-168.5 416.59,-187.5 598.59,-187.5 598.59,-168.5 416.59,-168.5"/>
<text text-anchor="middle" x="507.59" y="-175.5" font-family="Helvetica,sans-Serif" font-size="10.00">StaticSizeExtendedIOElement.hpp</text>
</a>
</g>
</g>
<!-- Node14&#45;&gt;Node17 -->
<g id="edge17" class="edge">
<title>Node14&#45;&gt;Node17</title>
<path fill="none" stroke="midnightblue" d="M551.84,-217.54C540.78,-207.91 526.96,-195.87 517.73,-187.83"/>
<polygon fill="midnightblue" stroke="midnightblue" points="549.79,-220.4 559.63,-224.32 554.39,-215.12 549.79,-220.4"/>
</g>
<!-- Node17&#45;&gt;Node4 -->
<g id="edge18" class="edge">
<title>Node17&#45;&gt;Node4</title>
<path fill="none" stroke="midnightblue" d="M542.2,-165.17C571.95,-155 614.14,-140.59 640.67,-131.52"/>
<polygon fill="midnightblue" stroke="midnightblue" points="540.96,-161.9 532.63,-168.44 543.22,-168.52 540.96,-161.9"/>
</g>
<!-- Node18 -->
<g id="node18" class="node">
<title>Node18</title>
<g id="a_node18"><a xlink:href="../../d2/d25/MAX7219_8hpp.html" target="_top" xlink:title=" ">
<polygon fill="white" stroke="black" points="152.59,-112.5 152.59,-131.5 236.59,-131.5 236.59,-112.5 152.59,-112.5"/>
<text text-anchor="middle" x="194.59" y="-119.5" font-family="Helvetica,sans-Serif" font-size="10.00">MAX7219.hpp</text>
</a>
</g>
</g>
<!-- Node17&#45;&gt;Node18 -->
<g id="edge19" class="edge">
<title>Node17&#45;&gt;Node18</title>
<path fill="none" stroke="midnightblue" d="M448.01,-166.72C386.28,-156.07 291.38,-139.7 236.93,-130.3"/>
<polygon fill="midnightblue" stroke="midnightblue" points="447.55,-170.19 458,-168.44 448.74,-163.29 447.55,-170.19"/>
</g>
<!-- Node17&#45;&gt;Node19 -->
<g id="edge20" class="edge">
<title>Node17&#45;&gt;Node19</title>
<path fill="none" stroke="midnightblue" d="M476.46,-164.64C450.94,-154.5 415.48,-140.43 393.04,-131.52"/>
<polygon fill="midnightblue" stroke="midnightblue" points="475.46,-168.01 486.04,-168.44 478.04,-161.5 475.46,-168.01"/>
</g>
<!-- Node17&#45;&gt;Node21 -->
<g id="edge23" class="edge">
<title>Node17&#45;&gt;Node21</title>
<path fill="none" stroke="midnightblue" d="M597.19,-167.38C695.09,-156.87 849.91,-140.25 939.71,-130.61"/>
<polygon fill="midnightblue" stroke="midnightblue" points="596.59,-163.93 587.02,-168.47 597.33,-170.89 596.59,-163.93"/>
</g>
<!-- Node20 -->
<g id="node20" class="node">
<title>Node20</title>
<g id="a_node20"><a xlink:href="../../d2/d94/MCP23017_8ipp.html" target="_top" xlink:title=" ">
<polygon fill="white" stroke="black" points="328.59,-56.5 328.59,-75.5 414.59,-75.5 414.59,-56.5 328.59,-56.5"/>
<text text-anchor="middle" x="371.59" y="-63.5" font-family="Helvetica,sans-Serif" font-size="10.00">MCP23017.ipp</text>
</a>
</g>
</g>
<!-- Node19&#45;&gt;Node20 -->
<g id="edge21" class="edge">
<title>Node19&#45;&gt;Node20</title>
<path fill="none" stroke="midnightblue" d="M365.12,-102.1C364.49,-93.14 364.94,-82.86 366.46,-75.75"/>
<polygon fill="midnightblue" stroke="midnightblue" points="361.66,-102.62 366.43,-112.08 368.6,-101.71 361.66,-102.62"/>
</g>
<!-- Node20&#45;&gt;Node19 -->
<g id="edge22" class="edge">
<title>Node20&#45;&gt;Node19</title>
<path fill="none" stroke="midnightblue" d="M378.05,-85.69C378.7,-94.64 378.27,-104.93 376.76,-112.08"/>
<polygon fill="midnightblue" stroke="midnightblue" points="381.52,-85.2 376.72,-75.75 374.58,-86.13 381.52,-85.2"/>
</g>
<!-- Node22 -->
<g id="node22" class="node">
<title>Node22</title>
<g id="a_node22"><a xlink:href="../../d7/d88/SPIShiftRegisterOut_8hpp.html" target="_top" xlink:title=" ">
<polygon fill="white" stroke="black" points="1075.59,-56.5 1075.59,-75.5 1207.59,-75.5 1207.59,-56.5 1075.59,-56.5"/>
<text text-anchor="middle" x="1141.59" y="-63.5" font-family="Helvetica,sans-Serif" font-size="10.00">SPIShiftRegisterOut.hpp</text>
</a>
</g>
</g>
<!-- Node21&#45;&gt;Node22 -->
<g id="edge24" class="edge">
<title>Node21&#45;&gt;Node22</title>
<path fill="none" stroke="midnightblue" d="M1040.91,-108.5C1065.47,-98.38 1099.41,-84.39 1120.93,-75.52"/>
<polygon fill="midnightblue" stroke="midnightblue" points="1039.26,-105.4 1031.35,-112.44 1041.93,-111.87 1039.26,-105.4"/>
</g>
<!-- Node24 -->
<g id="node24" class="node">
<title>Node24</title>
<g id="a_node24"><a xlink:href="../../d0/db4/ShiftRegisterOut_8hpp.html" target="_top" xlink:title=" ">
<polygon fill="white" stroke="black" points="940.09,-56.5 940.09,-75.5 1057.09,-75.5 1057.09,-56.5 940.09,-56.5"/>
<text text-anchor="middle" x="998.59" y="-63.5" font-family="Helvetica,sans-Serif" font-size="10.00">ShiftRegisterOut.hpp</text>
</a>
</g>
</g>
<!-- Node21&#45;&gt;Node24 -->
<g id="edge27" class="edge">
<title>Node21&#45;&gt;Node24</title>
<path fill="none" stroke="midnightblue" d="M1006.39,-102.1C1004.4,-93.14 1002.12,-82.86 1000.54,-75.75"/>
<polygon fill="midnightblue" stroke="midnightblue" points="1003.02,-103.08 1008.61,-112.08 1009.86,-101.56 1003.02,-103.08"/>
</g>
<!-- Node21&#45;&gt;Node26 -->
<g id="edge30" class="edge">
<title>Node21&#45;&gt;Node26</title>
<path fill="none" stroke="midnightblue" d="M1060.48,-110.47C1112.33,-100.27 1192.87,-84.98 1244.72,-75.52"/>
<polygon fill="midnightblue" stroke="midnightblue" points="1059.64,-107.07 1050.5,-112.44 1060.99,-113.94 1059.64,-107.07"/>
</g>
<!-- Node22&#45;&gt;Node23 -->
<g id="edge25" class="edge">
<title>Node22&#45;&gt;Node23</title>
<path fill="none" stroke="midnightblue" d="M1135.12,-46.1C1134.49,-37.14 1134.94,-26.86 1136.46,-19.75"/>
<polygon fill="midnightblue" stroke="midnightblue" points="1131.66,-46.62 1136.43,-56.08 1138.6,-45.71 1131.66,-46.62"/>
</g>
<!-- Node23&#45;&gt;Node22 -->
<g id="edge26" class="edge">
<title>Node23&#45;&gt;Node22</title>
<path fill="none" stroke="midnightblue" d="M1148.05,-29.69C1148.7,-38.64 1148.27,-48.93 1146.76,-56.08"/>
<polygon fill="midnightblue" stroke="midnightblue" points="1151.52,-29.2 1146.72,-19.75 1144.58,-30.13 1151.52,-29.2"/>
</g>
<!-- Node24&#45;&gt;Node25 -->
<g id="edge28" class="edge">
<title>Node24&#45;&gt;Node25</title>
<path fill="none" stroke="midnightblue" d="M992.12,-46.1C991.49,-37.14 991.94,-26.86 993.46,-19.75"/>
<polygon fill="midnightblue" stroke="midnightblue" points="988.66,-46.62 993.43,-56.08 995.6,-45.71 988.66,-46.62"/>
</g>
<!-- Node25&#45;&gt;Node24 -->
<g id="edge29" class="edge">
<title>Node25&#45;&gt;Node24</title>
<path fill="none" stroke="midnightblue" d="M1005.05,-29.69C1005.7,-38.64 1005.27,-48.93 1003.76,-56.08"/>
<polygon fill="midnightblue" stroke="midnightblue" points="1008.52,-29.2 1003.72,-19.75 1001.58,-30.13 1008.52,-29.2"/>
</g>
<!-- Node26&#45;&gt;Node21 -->
<g id="edge31" class="edge">
<title>Node26&#45;&gt;Node21</title>
<path fill="none" stroke="midnightblue" d="M1244.93,-77.48C1193.15,-87.67 1112.62,-102.96 1060.68,-112.44"/>
<polygon fill="midnightblue" stroke="midnightblue" points="1245.75,-80.89 1254.88,-75.52 1244.39,-74.02 1245.75,-80.89"/>
</g>
<!-- Node29 -->
<g id="node29" class="node">
<title>Node29</title>
<g id="a_node29"><a xlink:href="../../d6/d3a/DotBarDisplayLEDs_8hpp.html" target="_top" xlink:title=" ">
<polygon fill="white" stroke="black" points="774.59,-168.5 774.59,-187.5 906.59,-187.5 906.59,-168.5 774.59,-168.5"/>
<text text-anchor="middle" x="840.59" y="-175.5" font-family="Helvetica,sans-Serif" font-size="10.00">DotBarDisplayLEDs.hpp</text>
</a>
</g>
</g>
<!-- Node28&#45;&gt;Node29 -->
<g id="edge35" class="edge">
<title>Node28&#45;&gt;Node29</title>
<path fill="none" stroke="midnightblue" d="M719.92,-221.04C749.09,-210.88 790.23,-196.55 816.15,-187.52"/>
<polygon fill="midnightblue" stroke="midnightblue" points="718.44,-217.85 710.15,-224.44 720.75,-224.46 718.44,-217.85"/>
</g>
<!-- Node30&#45;&gt;Node18 -->
<g id="edge37" class="edge">
<title>Node30&#45;&gt;Node18</title>
<path fill="none" stroke="midnightblue" d="M61.06,-221.65C24.83,-211.12 -14.34,-193.24 5.59,-168 23.52,-145.3 102.25,-132.82 152.27,-127.05"/>
<polygon fill="midnightblue" stroke="midnightblue" points="60.58,-225.15 71.15,-224.43 62.44,-218.4 60.58,-225.15"/>
</g>
<!-- Node31 -->
<g id="node31" class="node">
<title>Node31</title>
<g id="a_node31"><a xlink:href="../../d5/d0c/MAX7219SevenSegmentDisplay_8hpp.html" target="_top" xlink:title=" ">
<polygon fill="white" stroke="black" points="15.09,-168.5 15.09,-187.5 208.09,-187.5 208.09,-168.5 15.09,-168.5"/>
<text text-anchor="middle" x="111.59" y="-175.5" font-family="Helvetica,sans-Serif" font-size="10.00">MAX7219SevenSegmentDisplay.hpp</text>
</a>
</g>
</g>
<!-- Node30&#45;&gt;Node31 -->
<g id="edge38" class="edge">
<title>Node30&#45;&gt;Node31</title>
<path fill="none" stroke="midnightblue" d="M111.59,-213.8C111.59,-204.91 111.59,-194.78 111.59,-187.75"/>
<polygon fill="midnightblue" stroke="midnightblue" points="108.09,-214.08 111.59,-224.08 115.09,-214.08 108.09,-214.08"/>
</g>
</g>
</svg>
