<?xml version="1.0" encoding="UTF-8" standalone="no"?>
<!DOCTYPE svg PUBLIC "-//W3C//DTD SVG 1.1//EN"
 "http://www.w3.org/Graphics/SVG/1.1/DTD/svg11.dtd">
<!-- Generated by graphviz version 2.43.0 (0)
 -->
<!-- Title: MCP23017.ipp Pages: 1 -->
<svg width="1854pt" height="946pt"
 viewBox="0.00 0.00 1854.00 946.00" xmlns="http://www.w3.org/2000/svg" xmlns:xlink="http://www.w3.org/1999/xlink">
<g id="graph0" class="graph" transform="scale(1 1) rotate(0) translate(4 942)">
<title>MCP23017.ipp</title>
<polygon fill="white" stroke="transparent" points="-4,4 -4,-942 1850,-942 1850,4 -4,4"/>
<!-- Node1 -->
<g id="node1" class="node">
<title>Node1</title>
<g id="a_node1"><a xlink:title=" ">
<polygon fill="#bfbfbf" stroke="black" points="793,-918.5 793,-937.5 879,-937.5 879,-918.5 793,-918.5"/>
<text text-anchor="middle" x="836" y="-925.5" font-family="Helvetica,sans-Serif" font-size="10.00">MCP23017.ipp</text>
</a>
</g>
</g>
<!-- Node2 -->
<g id="node2" class="node">
<title>Node2</title>
<g id="a_node2"><a xlink:href="../../d7/dca/MCP23017_8hpp.html" target="_top" xlink:title=" ">
<polygon fill="white" stroke="black" points="791.5,-862.5 791.5,-881.5 880.5,-881.5 880.5,-862.5 791.5,-862.5"/>
<text text-anchor="middle" x="836" y="-869.5" font-family="Helvetica,sans-Serif" font-size="10.00">MCP23017.hpp</text>
</a>
</g>
</g>
<!-- Node1&#45;&gt;Node2 -->
<g id="edge1" class="edge">
<title>Node1&#45;&gt;Node2</title>
<path fill="none" stroke="midnightblue" d="M830.83,-918.08C829.32,-910.93 828.89,-900.64 829.54,-891.69"/>
<polygon fill="midnightblue" stroke="midnightblue" points="833.02,-892.13 830.87,-881.75 826.08,-891.2 833.02,-892.13"/>
</g>
<!-- Node2&#45;&gt;Node1 -->
<g id="edge85" class="edge">
<title>Node2&#45;&gt;Node1</title>
<path fill="none" stroke="midnightblue" d="M841.13,-881.75C842.66,-888.86 843.1,-899.14 842.47,-908.1"/>
<polygon fill="midnightblue" stroke="midnightblue" points="838.99,-907.71 841.17,-918.08 845.93,-908.62 838.99,-907.71"/>
</g>
<!-- Node3 -->
<g id="node3" class="node">
<title>Node3</title>
<g id="a_node3"><a xlink:href="../../d1/d65/Warnings_8hpp.html" target="_top" xlink:title=" ">
<polygon fill="white" stroke="black" points="445.5,-0.5 445.5,-19.5 588.5,-19.5 588.5,-0.5 445.5,-0.5"/>
<text text-anchor="middle" x="517" y="-7.5" font-family="Helvetica,sans-Serif" font-size="10.00">AH/Settings/Warnings.hpp</text>
</a>
</g>
</g>
<!-- Node2&#45;&gt;Node3 -->
<g id="edge2" class="edge">
<title>Node2&#45;&gt;Node3</title>
<path fill="none" stroke="midnightblue" d="M791.35,-869.87C618.11,-864.91 0,-841.56 0,-761 0,-761 0,-761 0,-121 0,-82.28 23.48,-73.53 58,-56 122.01,-23.48 321.59,-14.44 435.39,-11.94"/>
<polygon fill="midnightblue" stroke="midnightblue" points="435.53,-15.44 445.45,-11.73 435.38,-8.44 435.53,-15.44"/>
</g>
<!-- Node4 -->
<g id="node4" class="node">
<title>Node4</title>
<g id="a_node4"><a xlink:href="../../dd/ddf/ExtendedInputOutput_8hpp.html" target="_top" xlink:title=" ">
<polygon fill="white" stroke="black" points="1183.5,-694.5 1183.5,-713.5 1324.5,-713.5 1324.5,-694.5 1183.5,-694.5"/>
<text text-anchor="middle" x="1254" y="-701.5" font-family="Helvetica,sans-Serif" font-size="10.00">ExtendedInputOutput.hpp</text>
</a>
</g>
</g>
<!-- Node2&#45;&gt;Node4 -->
<g id="edge3" class="edge">
<title>Node2&#45;&gt;Node4</title>
<path fill="none" stroke="midnightblue" d="M880.71,-869.16C932.67,-865.65 1020.1,-855.49 1089,-826 1150.23,-799.79 1210.28,-747.07 1238.03,-720.73"/>
<polygon fill="midnightblue" stroke="midnightblue" points="1240.5,-723.21 1245.27,-713.75 1235.64,-718.17 1240.5,-723.21"/>
</g>
<!-- Node30 -->
<g id="node30" class="node">
<title>Node30</title>
<g id="a_node30"><a xlink:href="../../d2/d05/StaticSizeExtendedIOElement_8hpp.html" target="_top" xlink:title=" ">
<polygon fill="white" stroke="black" points="267,-806.5 267,-825.5 449,-825.5 449,-806.5 267,-806.5"/>
<text text-anchor="middle" x="358" y="-813.5" font-family="Helvetica,sans-Serif" font-size="10.00">StaticSizeExtendedIOElement.hpp</text>
</a>
</g>
</g>
<!-- Node2&#45;&gt;Node30 -->
<g id="edge55" class="edge">
<title>Node2&#45;&gt;Node30</title>
<path fill="none" stroke="midnightblue" d="M791.46,-865.97C712.17,-857.01 545.32,-838.16 443.32,-826.64"/>
<polygon fill="midnightblue" stroke="midnightblue" points="443.68,-823.16 433.35,-825.51 442.89,-830.11 443.68,-823.16"/>
</g>
<!-- Node39 -->
<g id="node39" class="node">
<title>Node39</title>
<g id="a_node39"><a xlink:href="../../d1/d40/BitArray_8hpp.html" target="_top" xlink:title=" ">
<polygon fill="white" stroke="black" points="1027.5,-504.5 1027.5,-523.5 1176.5,-523.5 1176.5,-504.5 1027.5,-504.5"/>
<text text-anchor="middle" x="1102" y="-511.5" font-family="Helvetica,sans-Serif" font-size="10.00">AH/Containers/BitArray.hpp</text>
</a>
</g>
</g>
<!-- Node2&#45;&gt;Node39 -->
<g id="edge80" class="edge">
<title>Node2&#45;&gt;Node39</title>
<path fill="none" stroke="midnightblue" d="M880.67,-869.83C949.85,-865.37 1075,-845.62 1075,-761 1075,-761 1075,-761 1075,-641.5 1075,-602.36 1087.52,-557.87 1095.51,-533.47"/>
<polygon fill="midnightblue" stroke="midnightblue" points="1098.9,-534.35 1098.8,-523.76 1092.27,-532.1 1098.9,-534.35"/>
</g>
<!-- Node4&#45;&gt;Node3 -->
<g id="edge54" class="edge">
<title>Node4&#45;&gt;Node3</title>
<path fill="none" stroke="midnightblue" d="M1324.53,-702.61C1481.5,-699.85 1846,-682.06 1846,-576.5 1846,-576.5 1846,-576.5 1846,-121 1846,-82.58 1823.71,-72.47 1789,-56 1735.26,-30.5 871.77,-16.06 598.94,-12.11"/>
<polygon fill="midnightblue" stroke="midnightblue" points="598.76,-8.61 588.72,-11.97 598.66,-15.61 598.76,-8.61"/>
</g>
<!-- Node5 -->
<g id="node5" class="node">
<title>Node5</title>
<g id="a_node5"><a xlink:href="../../d2/d3c/Arduino-Hardware-Types_8hpp.html" target="_top" xlink:title=" ">
<polygon fill="white" stroke="black" points="1263,-627.5 1263,-657.5 1385,-657.5 1385,-627.5 1263,-627.5"/>
<text text-anchor="start" x="1271" y="-645.5" font-family="Helvetica,sans-Serif" font-size="10.00">AH/Hardware/Arduino</text>
<text text-anchor="middle" x="1324" y="-634.5" font-family="Helvetica,sans-Serif" font-size="10.00">&#45;Hardware&#45;Types.hpp</text>
</a>
</g>
</g>
<!-- Node4&#45;&gt;Node5 -->
<g id="edge4" class="edge">
<title>Node4&#45;&gt;Node5</title>
<path fill="none" stroke="midnightblue" d="M1264.03,-694.48C1273.33,-686.57 1287.55,-674.48 1299.8,-664.07"/>
<polygon fill="midnightblue" stroke="midnightblue" points="1302.15,-666.67 1307.5,-657.52 1297.62,-661.33 1302.15,-666.67"/>
</g>
<!-- Node11 -->
<g id="node11" class="node">
<title>Node11</title>
<g id="a_node11"><a xlink:href="../../dc/dc7/NamespaceSettings_8hpp.html" target="_top" xlink:title=" ">
<polygon fill="white" stroke="black" points="1077.5,-56.5 1077.5,-75.5 1272.5,-75.5 1272.5,-56.5 1077.5,-56.5"/>
<text text-anchor="middle" x="1175" y="-63.5" font-family="Helvetica,sans-Serif" font-size="10.00">AH/Settings/NamespaceSettings.hpp</text>
</a>
</g>
</g>
<!-- Node4&#45;&gt;Node11 -->
<g id="edge53" class="edge">
<title>Node4&#45;&gt;Node11</title>
<path fill="none" stroke="midnightblue" d="M1310.79,-694.49C1374.18,-681.39 1468,-649.65 1468,-576.5 1468,-576.5 1468,-576.5 1468,-401 1468,-245.05 1387.56,-213.31 1269,-112 1252.13,-97.59 1229.86,-86.66 1211.22,-79.18"/>
<polygon fill="midnightblue" stroke="midnightblue" points="1212.45,-75.9 1201.86,-75.58 1209.94,-82.44 1212.45,-75.9"/>
</g>
<!-- Node29 -->
<g id="node29" class="node">
<title>Node29</title>
<g id="a_node29"><a xlink:title=" ">
<polygon fill="white" stroke="#bfbfbf" points="1157.5,-633 1157.5,-652 1244.5,-652 1244.5,-633 1157.5,-633"/>
<text text-anchor="middle" x="1201" y="-640" font-family="Helvetica,sans-Serif" font-size="10.00">AH/STL/climits</text>
</a>
</g>
</g>
<!-- Node4&#45;&gt;Node29 -->
<g id="edge52" class="edge">
<title>Node4&#45;&gt;Node29</title>
<path fill="none" stroke="midnightblue" d="M1246.41,-694.48C1238.3,-685.37 1225.27,-670.74 1215.24,-659.48"/>
<polygon fill="midnightblue" stroke="midnightblue" points="1217.84,-657.15 1208.58,-652.01 1212.62,-661.8 1217.84,-657.15"/>
</g>
<!-- Node5&#45;&gt;Node3 -->
<g id="edge5" class="edge">
<title>Node5&#45;&gt;Node3</title>
<path fill="none" stroke="midnightblue" d="M1341.83,-627.35C1352.38,-618.08 1365.16,-605.09 1373,-591 1389.93,-560.57 1392,-549.82 1392,-515 1392,-515 1392,-515 1392,-345 1392,-210.73 1419.08,-125.16 1304,-56 1244.72,-20.37 788.31,-12.95 598.93,-11.41"/>
<polygon fill="midnightblue" stroke="midnightblue" points="598.78,-7.91 588.76,-11.33 598.73,-14.91 598.78,-7.91"/>
</g>
<!-- Node6 -->
<g id="node6" class="node">
<title>Node6</title>
<g id="a_node6"><a xlink:href="../../d4/d35/Hardware-Types_8hpp.html" target="_top" xlink:title=" ">
<polygon fill="white" stroke="black" points="1232.5,-560.5 1232.5,-590.5 1363.5,-590.5 1363.5,-560.5 1232.5,-560.5"/>
<text text-anchor="start" x="1240.5" y="-578.5" font-family="Helvetica,sans-Serif" font-size="10.00">AH/Hardware/Hardware</text>
<text text-anchor="middle" x="1298" y="-567.5" font-family="Helvetica,sans-Serif" font-size="10.00">&#45;Types.hpp</text>
</a>
</g>
</g>
<!-- Node5&#45;&gt;Node6 -->
<g id="edge6" class="edge">
<title>Node5&#45;&gt;Node6</title>
<path fill="none" stroke="midnightblue" d="M1318.36,-627.4C1315.16,-619.39 1311.06,-609.16 1307.39,-599.98"/>
<polygon fill="midnightblue" stroke="midnightblue" points="1310.59,-598.56 1303.63,-590.58 1304.09,-601.16 1310.59,-598.56"/>
</g>
<!-- Node12 -->
<g id="node12" class="node">
<title>Node12</title>
<g id="a_node12"><a xlink:href="../../d6/ddf/Arduino-Wrapper_8h.html" target="_top" xlink:title=" ">
<polygon fill="white" stroke="black" points="862,-168.5 862,-187.5 986,-187.5 986,-168.5 862,-168.5"/>
<text text-anchor="middle" x="924" y="-175.5" font-family="Helvetica,sans-Serif" font-size="10.00">AH/Arduino&#45;Wrapper.h</text>
</a>
</g>
</g>
<!-- Node5&#45;&gt;Node12 -->
<g id="edge51" class="edge">
<title>Node5&#45;&gt;Node12</title>
<path fill="none" stroke="midnightblue" d="M1273.94,-627.41C1255.37,-619.66 1235.94,-608.04 1224,-591 1129.72,-456.47 1292.94,-343.3 1180,-224 1155.4,-198.01 1063.01,-186.95 996.28,-182.3"/>
<polygon fill="midnightblue" stroke="midnightblue" points="996.43,-178.8 986.22,-181.63 995.97,-185.79 996.43,-178.8"/>
</g>
<!-- Node26 -->
<g id="node26" class="node">
<title>Node26</title>
<g id="a_node26"><a xlink:href="../../d0/db1/FunctionTraits_8hpp.html" target="_top" xlink:title=" ">
<polygon fill="white" stroke="black" points="1487.5,-112.5 1487.5,-131.5 1640.5,-131.5 1640.5,-112.5 1487.5,-112.5"/>
<text text-anchor="middle" x="1564" y="-119.5" font-family="Helvetica,sans-Serif" font-size="10.00">AH/Types/FunctionTraits.hpp</text>
</a>
</g>
</g>
<!-- Node5&#45;&gt;Node26 -->
<g id="edge46" class="edge">
<title>Node5&#45;&gt;Node26</title>
<path fill="none" stroke="midnightblue" d="M1357.98,-627.49C1374.56,-619.11 1393.56,-606.95 1406,-591 1427.78,-563.07 1430,-550.42 1430,-515 1430,-515 1430,-515 1430,-401 1430,-291.96 1514.69,-180.59 1549.42,-139.51"/>
<polygon fill="midnightblue" stroke="midnightblue" points="1552.15,-141.7 1556.02,-131.84 1546.84,-137.13 1552.15,-141.7"/>
</g>
<!-- Node6&#45;&gt;Node3 -->
<g id="edge7" class="edge">
<title>Node6&#45;&gt;Node3</title>
<path fill="none" stroke="midnightblue" d="M1302.05,-560.41C1307.89,-538.79 1318,-496.04 1318,-459 1318,-459 1318,-459 1318,-289 1318,-184.15 1358.71,-126.4 1281,-56 1256.03,-33.38 790.85,-18.35 598.84,-13.09"/>
<polygon fill="midnightblue" stroke="midnightblue" points="598.89,-9.59 588.8,-12.81 598.7,-16.58 598.89,-9.59"/>
</g>
<!-- Node7 -->
<g id="node7" class="node">
<title>Node7</title>
<g id="a_node7"><a xlink:href="../../de/d76/Array_8hpp.html" target="_top" xlink:title=" ">
<polygon fill="white" stroke="black" points="261.5,-504.5 261.5,-523.5 396.5,-523.5 396.5,-504.5 261.5,-504.5"/>
<text text-anchor="middle" x="329" y="-511.5" font-family="Helvetica,sans-Serif" font-size="10.00">AH/Containers/Array.hpp</text>
</a>
</g>
</g>
<!-- Node6&#45;&gt;Node7 -->
<g id="edge8" class="edge">
<title>Node6&#45;&gt;Node7</title>
<path fill="none" stroke="midnightblue" d="M1232.16,-570.46C1059.18,-559.84 592.48,-531.18 406.77,-519.78"/>
<polygon fill="midnightblue" stroke="midnightblue" points="406.73,-516.27 396.54,-519.15 406.31,-523.25 406.73,-516.27"/>
</g>
<!-- Node6&#45;&gt;Node11 -->
<g id="edge44" class="edge">
<title>Node6&#45;&gt;Node11</title>
<path fill="none" stroke="midnightblue" d="M1294.36,-560.39C1289.1,-538.73 1280,-495.94 1280,-459 1280,-459 1280,-459 1280,-177 1280,-132.02 1233.49,-98.19 1202.38,-80.59"/>
<polygon fill="midnightblue" stroke="midnightblue" points="1203.75,-77.35 1193.29,-75.65 1200.41,-83.5 1203.75,-77.35"/>
</g>
<!-- Node23 -->
<g id="node23" class="node">
<title>Node23</title>
<g id="a_node23"><a xlink:title=" ">
<polygon fill="white" stroke="#bfbfbf" points="1118.5,-224.5 1118.5,-243.5 1171.5,-243.5 1171.5,-224.5 1118.5,-224.5"/>
<text text-anchor="middle" x="1145" y="-231.5" font-family="Helvetica,sans-Serif" font-size="10.00">stdint.h</text>
</a>
</g>
</g>
<!-- Node6&#45;&gt;Node23 -->
<g id="edge45" class="edge">
<title>Node6&#45;&gt;Node23</title>
<path fill="none" stroke="midnightblue" d="M1288.09,-560.3C1281.4,-550.38 1272.62,-536.7 1266,-524 1214.54,-425.32 1168.05,-299.78 1151.45,-253.34"/>
<polygon fill="midnightblue" stroke="midnightblue" points="1154.69,-252.01 1148.05,-243.75 1148.1,-254.35 1154.69,-252.01"/>
</g>
<!-- Node7&#45;&gt;Node3 -->
<g id="edge9" class="edge">
<title>Node7&#45;&gt;Node3</title>
<path fill="none" stroke="midnightblue" d="M280.63,-504.49C228.23,-492.16 152,-463.78 152,-403 152,-403 152,-403 152,-121 152,-62.25 327.52,-32.09 435.13,-19.11"/>
<polygon fill="midnightblue" stroke="midnightblue" points="435.8,-22.56 445.32,-17.91 434.98,-15.61 435.8,-22.56"/>
</g>
<!-- Node8 -->
<g id="node8" class="node">
<title>Node8</title>
<g id="a_node8"><a xlink:href="../../d1/d93/Error_8hpp.html" target="_top" xlink:title=" ">
<polygon fill="white" stroke="black" points="370,-448.5 370,-467.5 474,-467.5 474,-448.5 370,-448.5"/>
<text text-anchor="middle" x="422" y="-455.5" font-family="Helvetica,sans-Serif" font-size="10.00">AH/Error/Error.hpp</text>
</a>
</g>
</g>
<!-- Node7&#45;&gt;Node8 -->
<g id="edge10" class="edge">
<title>Node7&#45;&gt;Node8</title>
<path fill="none" stroke="midnightblue" d="M343.94,-504.32C358.59,-495.82 381.13,-482.73 398.24,-472.8"/>
<polygon fill="midnightblue" stroke="midnightblue" points="400.2,-475.7 407.1,-467.65 396.69,-469.65 400.2,-475.7"/>
</g>
<!-- Node16 -->
<g id="node16" class="node">
<title>Node16</title>
<g id="a_node16"><a xlink:title=" ">
<polygon fill="white" stroke="#bfbfbf" points="180.5,-112.5 180.5,-131.5 287.5,-131.5 287.5,-112.5 180.5,-112.5"/>
<text text-anchor="middle" x="234" y="-119.5" font-family="Helvetica,sans-Serif" font-size="10.00">AH/STL/type_traits</text>
</a>
</g>
</g>
<!-- Node7&#45;&gt;Node16 -->
<g id="edge42" class="edge">
<title>Node7&#45;&gt;Node16</title>
<path fill="none" stroke="midnightblue" d="M299.86,-504.43C259.1,-490.45 190,-458.55 190,-403 190,-403 190,-403 190,-233 190,-198.04 209.4,-161.01 222.43,-140.07"/>
<polygon fill="midnightblue" stroke="midnightblue" points="225.39,-141.95 227.88,-131.65 219.51,-138.15 225.39,-141.95"/>
</g>
<!-- Node22 -->
<g id="node22" class="node">
<title>Node22</title>
<g id="a_node22"><a xlink:title=" ">
<polygon fill="white" stroke="#bfbfbf" points="300,-224.5 300,-243.5 356,-243.5 356,-224.5 300,-224.5"/>
<text text-anchor="middle" x="328" y="-231.5" font-family="Helvetica,sans-Serif" font-size="10.00">stddef.h</text>
</a>
</g>
</g>
<!-- Node7&#45;&gt;Node22 -->
<g id="edge43" class="edge">
<title>Node7&#45;&gt;Node22</title>
<path fill="none" stroke="midnightblue" d="M300.63,-504.49C283.25,-497.65 262.4,-486.13 252,-468 209.08,-393.2 281.75,-290.8 313.89,-251.38"/>
<polygon fill="midnightblue" stroke="midnightblue" points="316.7,-253.48 320.42,-243.56 311.33,-248.99 316.7,-253.48"/>
</g>
<!-- Node25 -->
<g id="node25" class="node">
<title>Node25</title>
<g id="a_node25"><a xlink:title=" ">
<polygon fill="white" stroke="#bfbfbf" points="332,-392.5 332,-411.5 422,-411.5 422,-392.5 332,-392.5"/>
<text text-anchor="middle" x="377" y="-399.5" font-family="Helvetica,sans-Serif" font-size="10.00">AH/STL/iterator</text>
</a>
</g>
</g>
<!-- Node7&#45;&gt;Node25 -->
<g id="edge41" class="edge">
<title>Node7&#45;&gt;Node25</title>
<path fill="none" stroke="midnightblue" d="M332.77,-504.37C340.58,-486.46 358.71,-444.92 369.17,-420.95"/>
<polygon fill="midnightblue" stroke="midnightblue" points="372.46,-422.16 373.25,-411.59 366.04,-419.36 372.46,-422.16"/>
</g>
<!-- Node8&#45;&gt;Node3 -->
<g id="edge11" class="edge">
<title>Node8&#45;&gt;Node3</title>
<path fill="none" stroke="midnightblue" d="M425.91,-448.25C431.05,-435.45 438.58,-411.05 431,-392 395.06,-301.7 263.41,-317.2 291,-224 316.26,-138.65 330.86,-112.05 400,-56 419.59,-40.12 445.41,-29.4 467.81,-22.42"/>
<polygon fill="midnightblue" stroke="midnightblue" points="468.9,-25.75 477.5,-19.56 466.92,-19.03 468.9,-25.75"/>
</g>
<!-- Node9 -->
<g id="node9" class="node">
<title>Node9</title>
<g id="a_node9"><a xlink:href="../../df/dee/Debug_8hpp.html" target="_top" xlink:title=" ">
<polygon fill="white" stroke="black" points="516.5,-392.5 516.5,-411.5 637.5,-411.5 637.5,-392.5 516.5,-392.5"/>
<text text-anchor="middle" x="577" y="-399.5" font-family="Helvetica,sans-Serif" font-size="10.00">AH/Debug/Debug.hpp</text>
</a>
</g>
</g>
<!-- Node8&#45;&gt;Node9 -->
<g id="edge12" class="edge">
<title>Node8&#45;&gt;Node9</title>
<path fill="none" stroke="midnightblue" d="M446.56,-448.44C472.52,-439.4 513.67,-425.06 542.8,-414.92"/>
<polygon fill="midnightblue" stroke="midnightblue" points="544.26,-418.11 552.55,-411.52 541.96,-411.5 544.26,-418.11"/>
</g>
<!-- Node9&#45;&gt;Node3 -->
<g id="edge13" class="edge">
<title>Node9&#45;&gt;Node3</title>
<path fill="none" stroke="midnightblue" d="M545.73,-392.41C524.83,-385.39 497.83,-373.69 479,-356 413.94,-294.86 384,-268.28 384,-179 384,-179 384,-179 384,-121 384,-70.73 441.13,-39.1 480.5,-23.27"/>
<polygon fill="midnightblue" stroke="midnightblue" points="482.01,-26.45 490.09,-19.59 479.5,-19.91 482.01,-26.45"/>
</g>
<!-- Node10 -->
<g id="node10" class="node">
<title>Node10</title>
<g id="a_node10"><a xlink:href="../../dd/d80/PrintStream_8hpp.html" target="_top" xlink:title=" ">
<polygon fill="white" stroke="black" points="812.5,-224.5 812.5,-243.5 985.5,-243.5 985.5,-224.5 812.5,-224.5"/>
<text text-anchor="middle" x="899" y="-231.5" font-family="Helvetica,sans-Serif" font-size="10.00">AH/PrintStream/PrintStream.hpp</text>
</a>
</g>
</g>
<!-- Node9&#45;&gt;Node10 -->
<g id="edge14" class="edge">
<title>Node9&#45;&gt;Node10</title>
<path fill="none" stroke="midnightblue" d="M599.44,-392.49C640.77,-376.49 731.27,-339.91 803,-300 830.63,-284.62 860.51,-263.64 879.46,-249.72"/>
<polygon fill="midnightblue" stroke="midnightblue" points="881.65,-252.46 887.6,-243.69 877.48,-246.83 881.65,-252.46"/>
</g>
<!-- Node17 -->
<g id="node17" class="node">
<title>Node17</title>
<g id="a_node17"><a xlink:href="../../d2/dd5/SettingsWrapper_8hpp.html" target="_top" xlink:title=" ">
<polygon fill="white" stroke="black" points="488,-336.5 488,-355.5 666,-355.5 666,-336.5 488,-336.5"/>
<text text-anchor="middle" x="577" y="-343.5" font-family="Helvetica,sans-Serif" font-size="10.00">AH/Settings/SettingsWrapper.hpp</text>
</a>
</g>
</g>
<!-- Node9&#45;&gt;Node17 -->
<g id="edge26" class="edge">
<title>Node9&#45;&gt;Node17</title>
<path fill="none" stroke="midnightblue" d="M571.83,-392.08C570.32,-384.93 569.89,-374.64 570.54,-365.69"/>
<polygon fill="midnightblue" stroke="midnightblue" points="574.02,-366.13 571.87,-355.75 567.08,-365.2 574.02,-366.13"/>
</g>
<!-- Node10&#45;&gt;Node3 -->
<g id="edge16" class="edge">
<title>Node10&#45;&gt;Node3</title>
<path fill="none" stroke="midnightblue" d="M861.36,-224.39C802.85,-210.14 687.5,-178.52 598,-132 560.77,-112.65 542.35,-112.69 522,-76 514.2,-61.93 513.52,-43.43 514.46,-29.77"/>
<polygon fill="midnightblue" stroke="midnightblue" points="517.96,-29.95 515.51,-19.64 511,-29.22 517.96,-29.95"/>
</g>
<!-- Node10&#45;&gt;Node11 -->
<g id="edge15" class="edge">
<title>Node10&#45;&gt;Node11</title>
<path fill="none" stroke="midnightblue" d="M885.04,-224.31C866.68,-211.78 838.35,-187.95 853,-168 884.07,-125.69 1029.45,-93.12 1113.86,-77.39"/>
<polygon fill="midnightblue" stroke="midnightblue" points="1114.64,-80.8 1123.84,-75.55 1113.37,-73.92 1114.64,-80.8"/>
</g>
<!-- Node10&#45;&gt;Node12 -->
<g id="edge17" class="edge">
<title>Node10&#45;&gt;Node12</title>
<path fill="none" stroke="midnightblue" d="M903.13,-224.08C906.51,-216.77 911.42,-206.18 915.62,-197.1"/>
<polygon fill="midnightblue" stroke="midnightblue" points="918.92,-198.3 919.95,-187.75 912.57,-195.36 918.92,-198.3"/>
</g>
<!-- Node13 -->
<g id="node13" class="node">
<title>Node13</title>
<g id="a_node13"><a xlink:href="../../d7/d79/MinMaxFix_8hpp.html" target="_top" xlink:title=" ">
<polygon fill="white" stroke="black" points="1078,-112.5 1078,-131.5 1214,-131.5 1214,-112.5 1078,-112.5"/>
<text text-anchor="middle" x="1146" y="-119.5" font-family="Helvetica,sans-Serif" font-size="10.00">AH/Math/MinMaxFix.hpp</text>
</a>
</g>
</g>
<!-- Node12&#45;&gt;Node13 -->
<g id="edge18" class="edge">
<title>Node12&#45;&gt;Node13</title>
<path fill="none" stroke="midnightblue" d="M959.18,-168.44C997.58,-159.1 1059.18,-144.12 1101.06,-133.93"/>
<polygon fill="midnightblue" stroke="midnightblue" points="1102.1,-137.28 1110.99,-131.52 1100.44,-130.48 1102.1,-137.28"/>
</g>
<!-- Node15 -->
<g id="node15" class="node">
<title>Node15</title>
<g id="a_node15"><a xlink:title=" ">
<polygon fill="white" stroke="#bfbfbf" points="1597.5,-0.5 1597.5,-19.5 1660.5,-19.5 1660.5,-0.5 1597.5,-0.5"/>
<text text-anchor="middle" x="1629" y="-7.5" font-family="Helvetica,sans-Serif" font-size="10.00">Arduino.h</text>
</a>
</g>
</g>
<!-- Node12&#45;&gt;Node15 -->
<g id="edge25" class="edge">
<title>Node12&#45;&gt;Node15</title>
<path fill="none" stroke="midnightblue" d="M986.14,-175.7C1137.94,-172.12 1524.36,-160.42 1650,-132 1714.96,-117.31 1751.73,-131.2 1789,-76 1819.17,-31.32 1728.02,-17.34 1671.1,-12.97"/>
<polygon fill="midnightblue" stroke="midnightblue" points="1671.12,-9.47 1660.9,-12.26 1670.64,-16.45 1671.12,-9.47"/>
</g>
<!-- Node12&#45;&gt;Node16 -->
<g id="edge24" class="edge">
<title>Node12&#45;&gt;Node16</title>
<path fill="none" stroke="midnightblue" d="M861.86,-172.14C731.39,-161.93 430.15,-138.35 298.04,-128.01"/>
<polygon fill="midnightblue" stroke="midnightblue" points="297.93,-124.49 287.69,-127.2 297.39,-131.47 297.93,-124.49"/>
</g>
<!-- Node13&#45;&gt;Node3 -->
<g id="edge19" class="edge">
<title>Node13&#45;&gt;Node3</title>
<path fill="none" stroke="midnightblue" d="M1131.75,-112.32C1104.98,-96.19 1047.89,-62.59 1026,-56 948.33,-32.63 721.92,-19.69 598.88,-14.2"/>
<polygon fill="midnightblue" stroke="midnightblue" points="598.9,-10.69 588.76,-13.75 598.6,-17.69 598.9,-10.69"/>
</g>
<!-- Node13&#45;&gt;Node11 -->
<g id="edge23" class="edge">
<title>Node13&#45;&gt;Node11</title>
<path fill="none" stroke="midnightblue" d="M1150.79,-112.08C1154.76,-104.69 1160.53,-93.95 1165.43,-84.81"/>
<polygon fill="midnightblue" stroke="midnightblue" points="1168.65,-86.22 1170.3,-75.75 1162.49,-82.91 1168.65,-86.22"/>
</g>
<!-- Node14 -->
<g id="node14" class="node">
<title>Node14</title>
<g id="a_node14"><a xlink:href="../../d6/d3b/FixArduinoMacros_8hpp.html" target="_top" xlink:title=" ">
<polygon fill="white" stroke="black" points="1366,-56.5 1366,-75.5 1536,-75.5 1536,-56.5 1366,-56.5"/>
<text text-anchor="middle" x="1451" y="-63.5" font-family="Helvetica,sans-Serif" font-size="10.00">AH/Math/FixArduinoMacros.hpp</text>
</a>
</g>
</g>
<!-- Node13&#45;&gt;Node14 -->
<g id="edge20" class="edge">
<title>Node13&#45;&gt;Node14</title>
<path fill="none" stroke="midnightblue" d="M1194.33,-112.44C1248.2,-102.9 1335.31,-87.48 1392.86,-77.29"/>
<polygon fill="midnightblue" stroke="midnightblue" points="1393.66,-80.71 1402.9,-75.52 1392.44,-73.81 1393.66,-80.71"/>
</g>
<!-- Node14&#45;&gt;Node3 -->
<g id="edge21" class="edge">
<title>Node14&#45;&gt;Node3</title>
<path fill="none" stroke="midnightblue" d="M1365.96,-57.07C1361.24,-56.69 1356.56,-56.33 1352,-56 1075.99,-36.02 748.06,-20.85 598.56,-14.4"/>
<polygon fill="midnightblue" stroke="midnightblue" points="598.68,-10.9 588.54,-13.97 598.38,-17.89 598.68,-10.9"/>
</g>
<!-- Node14&#45;&gt;Node15 -->
<g id="edge22" class="edge">
<title>Node14&#45;&gt;Node15</title>
<path fill="none" stroke="midnightblue" d="M1479.2,-56.44C1509.41,-47.28 1557.51,-32.69 1591.03,-22.52"/>
<polygon fill="midnightblue" stroke="midnightblue" points="1592.37,-25.77 1600.93,-19.52 1590.34,-19.07 1592.37,-25.77"/>
</g>
<!-- Node17&#45;&gt;Node3 -->
<g id="edge27" class="edge">
<title>Node17&#45;&gt;Node3</title>
<path fill="none" stroke="midnightblue" d="M558.92,-336.44C518.03,-315.67 422,-258.45 422,-179 422,-179 422,-179 422,-121 422,-77.74 464.61,-43.09 492.75,-24.91"/>
<polygon fill="midnightblue" stroke="midnightblue" points="494.66,-27.85 501.31,-19.6 490.97,-21.9 494.66,-27.85"/>
</g>
<!-- Node17&#45;&gt;Node9 -->
<g id="edge40" class="edge">
<title>Node17&#45;&gt;Node9</title>
<path fill="none" stroke="midnightblue" d="M582.13,-355.75C583.66,-362.86 584.1,-373.14 583.47,-382.1"/>
<polygon fill="midnightblue" stroke="midnightblue" points="579.99,-381.71 582.17,-392.08 586.93,-382.62 579.99,-381.71"/>
</g>
<!-- Node17&#45;&gt;Node11 -->
<g id="edge28" class="edge">
<title>Node17&#45;&gt;Node11</title>
<path fill="none" stroke="midnightblue" d="M666.1,-343.86C757.18,-338.38 898.46,-317.41 994,-244 1017.09,-226.26 1013.53,-213.27 1028,-188 1047.08,-154.7 1040.63,-137.84 1069,-112 1086.02,-96.5 1109.18,-85.84 1129.51,-78.8"/>
<polygon fill="midnightblue" stroke="midnightblue" points="1130.8,-82.06 1139.22,-75.63 1128.63,-75.4 1130.8,-82.06"/>
</g>
<!-- Node18 -->
<g id="node18" class="node">
<title>Node18</title>
<g id="a_node18"><a xlink:href="../../db/d02/Settings_8hpp.html" target="_top" xlink:title="All user settings and debugging options can be changed here.">
<polygon fill="white" stroke="black" points="526.5,-280.5 526.5,-299.5 603.5,-299.5 603.5,-280.5 526.5,-280.5"/>
<text text-anchor="middle" x="565" y="-287.5" font-family="Helvetica,sans-Serif" font-size="10.00">Settings.hpp</text>
</a>
</g>
</g>
<!-- Node17&#45;&gt;Node18 -->
<g id="edge29" class="edge">
<title>Node17&#45;&gt;Node18</title>
<path fill="none" stroke="midnightblue" d="M575.02,-336.08C573.43,-328.93 571.14,-318.64 569.15,-309.69"/>
<polygon fill="midnightblue" stroke="midnightblue" points="572.53,-308.75 566.94,-299.75 565.7,-310.27 572.53,-308.75"/>
</g>
<!-- Node24 -->
<g id="node24" class="node">
<title>Node24</title>
<g id="a_node24"><a xlink:href="../../d9/d98/TeensyUSBTypes_8hpp.html" target="_top" xlink:title=" ">
<polygon fill="white" stroke="black" points="621.5,-280.5 621.5,-299.5 794.5,-299.5 794.5,-280.5 621.5,-280.5"/>
<text text-anchor="middle" x="708" y="-287.5" font-family="Helvetica,sans-Serif" font-size="10.00">AH/Teensy/TeensyUSBTypes.hpp</text>
</a>
</g>
</g>
<!-- Node17&#45;&gt;Node24 -->
<g id="edge39" class="edge">
<title>Node17&#45;&gt;Node24</title>
<path fill="none" stroke="midnightblue" d="M597.76,-336.44C619.32,-327.56 653.26,-313.56 677.79,-303.45"/>
<polygon fill="midnightblue" stroke="midnightblue" points="679.43,-306.56 687.34,-299.52 676.76,-300.09 679.43,-306.56"/>
</g>
<!-- Node19 -->
<g id="node19" class="node">
<title>Node19</title>
<g id="a_node19"><a xlink:href="../../dc/d50/Frequency_8hpp.html" target="_top" xlink:title=" ">
<polygon fill="white" stroke="black" points="607,-112.5 607,-131.5 741,-131.5 741,-112.5 607,-112.5"/>
<text text-anchor="middle" x="674" y="-119.5" font-family="Helvetica,sans-Serif" font-size="10.00">AH/Types/Frequency.hpp</text>
</a>
</g>
</g>
<!-- Node18&#45;&gt;Node19 -->
<g id="edge30" class="edge">
<title>Node18&#45;&gt;Node19</title>
<path fill="none" stroke="midnightblue" d="M598.34,-280.37C617.59,-273.64 640.58,-262.28 654,-244 676.29,-213.64 677.32,-167.46 675.84,-141.82"/>
<polygon fill="midnightblue" stroke="midnightblue" points="679.31,-141.31 675.04,-131.62 672.33,-141.86 679.31,-141.31"/>
</g>
<!-- Node20 -->
<g id="node20" class="node">
<title>Node20</title>
<g id="a_node20"><a xlink:href="../../d7/d7c/ADCConfig_8hpp.html" target="_top" xlink:title="This file contains the platform&#45;specific ADC resolutions.">
<polygon fill="white" stroke="black" points="488.5,-224.5 488.5,-243.5 645.5,-243.5 645.5,-224.5 488.5,-224.5"/>
<text text-anchor="middle" x="567" y="-231.5" font-family="Helvetica,sans-Serif" font-size="10.00">AH/Hardware/ADCConfig.hpp</text>
</a>
</g>
</g>
<!-- Node18&#45;&gt;Node20 -->
<g id="edge33" class="edge">
<title>Node18&#45;&gt;Node20</title>
<path fill="none" stroke="midnightblue" d="M565.33,-280.08C565.59,-273.01 565.97,-262.86 566.3,-253.99"/>
<polygon fill="midnightblue" stroke="midnightblue" points="569.8,-253.87 566.68,-243.75 562.81,-253.61 569.8,-253.87"/>
</g>
<!-- Node21 -->
<g id="node21" class="node">
<title>Node21</title>
<g id="a_node21"><a xlink:title=" ">
<polygon fill="white" stroke="#bfbfbf" points="702.5,-224.5 702.5,-243.5 755.5,-243.5 755.5,-224.5 702.5,-224.5"/>
<text text-anchor="middle" x="729" y="-231.5" font-family="Helvetica,sans-Serif" font-size="10.00">limits.h</text>
</a>
</g>
</g>
<!-- Node18&#45;&gt;Node21 -->
<g id="edge36" class="edge">
<title>Node18&#45;&gt;Node21</title>
<path fill="none" stroke="midnightblue" d="M590.99,-280.44C618.7,-271.32 662.75,-256.81 693.62,-246.65"/>
<polygon fill="midnightblue" stroke="midnightblue" points="694.73,-249.97 703.14,-243.52 692.54,-243.32 694.73,-249.97"/>
</g>
<!-- Node18&#45;&gt;Node22 -->
<g id="edge37" class="edge">
<title>Node18&#45;&gt;Node22</title>
<path fill="none" stroke="midnightblue" d="M527.45,-280.44C483.25,-270.37 410.27,-253.75 365.92,-243.64"/>
<polygon fill="midnightblue" stroke="midnightblue" points="366.63,-240.21 356.1,-241.4 365.07,-247.04 366.63,-240.21"/>
</g>
<!-- Node18&#45;&gt;Node23 -->
<g id="edge38" class="edge">
<title>Node18&#45;&gt;Node23</title>
<path fill="none" stroke="midnightblue" d="M603.68,-281.26C606.49,-280.8 609.28,-280.37 612,-280 708.39,-266.74 1004.12,-245.04 1108.25,-237.6"/>
<polygon fill="midnightblue" stroke="midnightblue" points="1108.56,-241.08 1118.29,-236.88 1108.06,-234.1 1108.56,-241.08"/>
</g>
<!-- Node19&#45;&gt;Node3 -->
<g id="edge31" class="edge">
<title>Node19&#45;&gt;Node3</title>
<path fill="none" stroke="midnightblue" d="M661.68,-112.37C634.85,-93.57 570.91,-48.77 537.74,-25.53"/>
<polygon fill="midnightblue" stroke="midnightblue" points="539.46,-22.46 529.26,-19.59 535.44,-28.2 539.46,-22.46"/>
</g>
<!-- Node19&#45;&gt;Node11 -->
<g id="edge32" class="edge">
<title>Node19&#45;&gt;Node11</title>
<path fill="none" stroke="midnightblue" d="M741.05,-113.77C829.98,-104.19 987.21,-87.24 1086.01,-76.59"/>
<polygon fill="midnightblue" stroke="midnightblue" points="1086.41,-80.07 1095.97,-75.52 1085.66,-73.11 1086.41,-80.07"/>
</g>
<!-- Node20&#45;&gt;Node3 -->
<g id="edge34" class="edge">
<title>Node20&#45;&gt;Node3</title>
<path fill="none" stroke="midnightblue" d="M534.82,-224.49C516.46,-217.8 494.98,-206.45 484,-188 453.99,-137.59 465.75,-111.76 484,-56 487.49,-45.34 494.57,-35.12 501.29,-27.12"/>
<polygon fill="midnightblue" stroke="midnightblue" points="503.9,-29.44 507.98,-19.66 498.7,-24.76 503.9,-29.44"/>
</g>
<!-- Node20&#45;&gt;Node12 -->
<g id="edge35" class="edge">
<title>Node20&#45;&gt;Node12</title>
<path fill="none" stroke="midnightblue" d="M623.57,-224.44C687.15,-214.83 790.27,-199.23 857.62,-189.04"/>
<polygon fill="midnightblue" stroke="midnightblue" points="858.33,-192.47 867.7,-187.52 857.29,-185.55 858.33,-192.47"/>
</g>
<!-- Node26&#45;&gt;Node3 -->
<g id="edge49" class="edge">
<title>Node26&#45;&gt;Node3</title>
<path fill="none" stroke="midnightblue" d="M1564.37,-112.11C1564.44,-97.69 1562.21,-69.5 1545,-56 1507.99,-26.98 836.04,-15.25 598.97,-12"/>
<polygon fill="midnightblue" stroke="midnightblue" points="598.74,-8.5 588.69,-11.87 598.64,-15.5 598.74,-8.5"/>
</g>
<!-- Node26&#45;&gt;Node11 -->
<g id="edge50" class="edge">
<title>Node26&#45;&gt;Node11</title>
<path fill="none" stroke="midnightblue" d="M1502.36,-112.44C1432.79,-102.79 1319.79,-87.1 1246.43,-76.92"/>
<polygon fill="midnightblue" stroke="midnightblue" points="1246.74,-73.42 1236.35,-75.52 1245.77,-80.36 1246.74,-73.42"/>
</g>
<!-- Node27 -->
<g id="node27" class="node">
<title>Node27</title>
<g id="a_node27"><a xlink:title=" ">
<polygon fill="white" stroke="#bfbfbf" points="1592,-56.5 1592,-75.5 1682,-75.5 1682,-56.5 1592,-56.5"/>
<text text-anchor="middle" x="1637" y="-63.5" font-family="Helvetica,sans-Serif" font-size="10.00">AH/STL/cstddef</text>
</a>
</g>
</g>
<!-- Node26&#45;&gt;Node27 -->
<g id="edge47" class="edge">
<title>Node26&#45;&gt;Node27</title>
<path fill="none" stroke="midnightblue" d="M1575.73,-112.32C1586.84,-104.11 1603.74,-91.6 1616.98,-81.81"/>
<polygon fill="midnightblue" stroke="midnightblue" points="1619.1,-84.59 1625.06,-75.83 1614.94,-78.97 1619.1,-84.59"/>
</g>
<!-- Node28 -->
<g id="node28" class="node">
<title>Node28</title>
<g id="a_node28"><a xlink:title=" ">
<polygon fill="white" stroke="#bfbfbf" points="1700.5,-56.5 1700.5,-75.5 1779.5,-75.5 1779.5,-56.5 1700.5,-56.5"/>
<text text-anchor="middle" x="1740" y="-63.5" font-family="Helvetica,sans-Serif" font-size="10.00">AH/STL/tuple</text>
</a>
</g>
</g>
<!-- Node26&#45;&gt;Node28 -->
<g id="edge48" class="edge">
<title>Node26&#45;&gt;Node28</title>
<path fill="none" stroke="midnightblue" d="M1591.89,-112.44C1621.75,-103.28 1669.31,-88.69 1702.46,-78.52"/>
<polygon fill="midnightblue" stroke="midnightblue" points="1703.71,-81.8 1712.24,-75.52 1701.66,-75.1 1703.71,-81.8"/>
</g>
<!-- Node30&#45;&gt;Node3 -->
<g id="edge56" class="edge">
<title>Node30&#45;&gt;Node3</title>
<path fill="none" stroke="midnightblue" d="M295.54,-806.5C202.42,-792.05 38,-758.9 38,-705 38,-705 38,-705 38,-121 38,-81.98 62.22,-73.68 97,-56 154.26,-26.9 329.8,-16.55 434.95,-12.92"/>
<polygon fill="midnightblue" stroke="midnightblue" points="435.33,-16.41 445.21,-12.58 435.1,-9.41 435.33,-16.41"/>
</g>
<!-- Node31 -->
<g id="node31" class="node">
<title>Node31</title>
<g id="a_node31"><a xlink:href="../../d4/d57/ExtendedIOElement_8hpp.html" target="_top" xlink:title=" ">
<polygon fill="white" stroke="black" points="559,-750.5 559,-769.5 693,-769.5 693,-750.5 559,-750.5"/>
<text text-anchor="middle" x="626" y="-757.5" font-family="Helvetica,sans-Serif" font-size="10.00">ExtendedIOElement.hpp</text>
</a>
</g>
</g>
<!-- Node30&#45;&gt;Node31 -->
<g id="edge57" class="edge">
<title>Node30&#45;&gt;Node31</title>
<path fill="none" stroke="midnightblue" d="M400.47,-806.44C447.41,-796.98 523.08,-781.74 573.65,-771.55"/>
<polygon fill="midnightblue" stroke="midnightblue" points="574.62,-774.92 583.73,-769.52 573.24,-768.06 574.62,-774.92"/>
</g>
<!-- Node37 -->
<g id="node37" class="node">
<title>Node37</title>
<g id="a_node37"><a xlink:href="../../d5/db6/ArrayHelpers_8hpp.html" target="_top" xlink:title=" ">
<polygon fill="white" stroke="black" points="106,-566 106,-585 280,-585 280,-566 106,-566"/>
<text text-anchor="middle" x="193" y="-573" font-family="Helvetica,sans-Serif" font-size="10.00">AH/Containers/ArrayHelpers.hpp</text>
</a>
</g>
</g>
<!-- Node30&#45;&gt;Node37 -->
<g id="edge75" class="edge">
<title>Node30&#45;&gt;Node37</title>
<path fill="none" stroke="midnightblue" d="M351.93,-806.23C327.67,-771.16 237.4,-640.68 204.82,-593.59"/>
<polygon fill="midnightblue" stroke="midnightblue" points="207.52,-591.33 198.95,-585.1 201.76,-595.31 207.52,-591.33"/>
</g>
<!-- Node31&#45;&gt;Node3 -->
<g id="edge58" class="edge">
<title>Node31&#45;&gt;Node3</title>
<path fill="none" stroke="midnightblue" d="M558.87,-758.8C445.06,-754.56 215.16,-728.32 97,-591 58.25,-545.97 76,-518.4 76,-459 76,-459 76,-459 76,-121 76,-80.46 103.6,-73.85 140,-56 190.32,-31.32 340.14,-19.57 435.07,-14.47"/>
<polygon fill="midnightblue" stroke="midnightblue" points="435.42,-17.95 445.22,-13.93 435.05,-10.96 435.42,-17.95"/>
</g>
<!-- Node31&#45;&gt;Node4 -->
<g id="edge59" class="edge">
<title>Node31&#45;&gt;Node4</title>
<path fill="none" stroke="midnightblue" d="M693.21,-753.22C809.54,-743.22 1047.98,-722.72 1173.16,-711.95"/>
<polygon fill="midnightblue" stroke="midnightblue" points="1173.78,-715.41 1183.45,-711.07 1173.18,-708.44 1173.78,-715.41"/>
</g>
<!-- Node31&#45;&gt;Node6 -->
<g id="edge74" class="edge">
<title>Node31&#45;&gt;Node6</title>
<path fill="none" stroke="midnightblue" d="M657.51,-750.44C761.79,-722.12 1096.93,-631.1 1236.31,-593.25"/>
<polygon fill="midnightblue" stroke="midnightblue" points="1237.26,-596.62 1246,-590.62 1235.43,-589.87 1237.26,-596.62"/>
</g>
<!-- Node32 -->
<g id="node32" class="node">
<title>Node32</title>
<g id="a_node32"><a xlink:href="../../d4/d93/Updatable_8hpp.html" target="_top" xlink:title=" ">
<polygon fill="white" stroke="black" points="545.5,-504.5 545.5,-523.5 706.5,-523.5 706.5,-504.5 545.5,-504.5"/>
<text text-anchor="middle" x="626" y="-511.5" font-family="Helvetica,sans-Serif" font-size="10.00">AH/Containers/Updatable.hpp</text>
</a>
</g>
</g>
<!-- Node31&#45;&gt;Node32 -->
<g id="edge60" class="edge">
<title>Node31&#45;&gt;Node32</title>
<path fill="none" stroke="midnightblue" d="M626,-750.32C626,-715.18 626,-583.12 626,-533.76"/>
<polygon fill="midnightblue" stroke="midnightblue" points="629.5,-533.58 626,-523.58 622.5,-533.58 629.5,-533.58"/>
</g>
<!-- Node32&#45;&gt;Node3 -->
<g id="edge61" class="edge">
<title>Node32&#45;&gt;Node3</title>
<path fill="none" stroke="midnightblue" d="M646.86,-504.35C663.54,-496.66 686.73,-484.14 703,-468 764.69,-406.8 779.95,-383.78 803,-300 805.36,-291.43 803.83,-288.85 803,-280 798.76,-234.52 784,-224.68 784,-179 784,-179 784,-179 784,-121 784,-39.91 677.42,-17.38 598.94,-11.78"/>
<polygon fill="midnightblue" stroke="midnightblue" points="598.75,-8.26 588.55,-11.12 598.31,-15.25 598.75,-8.26"/>
</g>
<!-- Node32&#45;&gt;Node8 -->
<g id="edge69" class="edge">
<title>Node32&#45;&gt;Node8</title>
<path fill="none" stroke="midnightblue" d="M593.68,-504.44C558.61,-495.16 502.5,-480.31 464.04,-470.13"/>
<polygon fill="midnightblue" stroke="midnightblue" points="464.74,-466.69 454.17,-467.52 462.94,-473.46 464.74,-466.69"/>
</g>
<!-- Node32&#45;&gt;Node16 -->
<g id="edge70" class="edge">
<title>Node32&#45;&gt;Node16</title>
<path fill="none" stroke="midnightblue" d="M545.49,-508.84C471.67,-503.55 369.11,-492.05 337,-468 230.29,-388.08 229.89,-201.86 232.73,-141.94"/>
<polygon fill="midnightblue" stroke="midnightblue" points="236.24,-141.89 233.31,-131.71 229.25,-141.49 236.24,-141.89"/>
</g>
<!-- Node32&#45;&gt;Node17 -->
<g id="edge72" class="edge">
<title>Node32&#45;&gt;Node17</title>
<path fill="none" stroke="midnightblue" d="M638.15,-504.42C659.03,-488.85 701.01,-453.64 717,-412 720.19,-403.7 722.24,-399.18 717,-392 705.29,-375.94 687.76,-365.49 669.03,-358.71"/>
<polygon fill="midnightblue" stroke="midnightblue" points="670.04,-355.36 659.45,-355.59 667.87,-362.02 670.04,-355.36"/>
</g>
<!-- Node32&#45;&gt;Node22 -->
<g id="edge73" class="edge">
<title>Node32&#45;&gt;Node22</title>
<path fill="none" stroke="midnightblue" d="M545.43,-506.28C478.95,-499.49 390.88,-487.21 361,-468 290.52,-422.69 311.79,-300.43 323.03,-253.6"/>
<polygon fill="midnightblue" stroke="midnightblue" points="326.49,-254.2 325.55,-243.64 319.71,-252.48 326.49,-254.2"/>
</g>
<!-- Node33 -->
<g id="node33" class="node">
<title>Node33</title>
<g id="a_node33"><a xlink:href="../../d4/dba/CRTP_8hpp.html" target="_top" xlink:title=" ">
<polygon fill="white" stroke="black" points="745,-448.5 745,-467.5 879,-467.5 879,-448.5 745,-448.5"/>
<text text-anchor="middle" x="812" y="-455.5" font-family="Helvetica,sans-Serif" font-size="10.00">AH/Containers/CRTP.hpp</text>
</a>
</g>
</g>
<!-- Node32&#45;&gt;Node33 -->
<g id="edge62" class="edge">
<title>Node32&#45;&gt;Node33</title>
<path fill="none" stroke="midnightblue" d="M655.47,-504.44C687.17,-495.24 737.73,-480.56 772.77,-470.39"/>
<polygon fill="midnightblue" stroke="midnightblue" points="774.04,-473.67 782.67,-467.52 772.09,-466.94 774.04,-473.67"/>
</g>
<!-- Node34 -->
<g id="node34" class="node">
<title>Node34</title>
<g id="a_node34"><a xlink:href="../../de/dd1/LinkedList_8hpp.html" target="_top" xlink:title=" ">
<polygon fill="white" stroke="black" points="492.5,-448.5 492.5,-467.5 651.5,-467.5 651.5,-448.5 492.5,-448.5"/>
<text text-anchor="middle" x="572" y="-455.5" font-family="Helvetica,sans-Serif" font-size="10.00">AH/Containers/LinkedList.hpp</text>
</a>
</g>
</g>
<!-- Node32&#45;&gt;Node34 -->
<g id="edge63" class="edge">
<title>Node32&#45;&gt;Node34</title>
<path fill="none" stroke="midnightblue" d="M617.08,-504.08C609.22,-496.22 597.57,-484.57 588.08,-475.08"/>
<polygon fill="midnightblue" stroke="midnightblue" points="590.3,-472.35 580.75,-467.75 585.35,-477.3 590.3,-472.35"/>
</g>
<!-- Node36 -->
<g id="node36" class="node">
<title>Node36</title>
<g id="a_node36"><a xlink:title=" ">
<polygon fill="white" stroke="#bfbfbf" points="897.5,-448.5 897.5,-467.5 980.5,-467.5 980.5,-448.5 897.5,-448.5"/>
<text text-anchor="middle" x="939" y="-455.5" font-family="Helvetica,sans-Serif" font-size="10.00">AH/STL/utility</text>
</a>
</g>
</g>
<!-- Node32&#45;&gt;Node36 -->
<g id="edge71" class="edge">
<title>Node32&#45;&gt;Node36</title>
<path fill="none" stroke="midnightblue" d="M676.24,-504.44C726.83,-495.81 807.39,-482.01 887.04,-468.16"/>
<polygon fill="midnightblue" stroke="midnightblue" points="888,-471.55 897.25,-466.38 886.8,-464.65 888,-471.55"/>
</g>
<!-- Node34&#45;&gt;Node3 -->
<g id="edge64" class="edge">
<title>Node34&#45;&gt;Node3</title>
<path fill="none" stroke="midnightblue" d="M555.02,-448.4C540.75,-440.5 520.58,-427.66 507,-412 488.77,-390.98 485.39,-383.08 479,-356 465.52,-298.9 470.73,-282.08 479,-224 488.65,-156.19 512.35,-143.81 522,-76 524.2,-60.57 522.58,-42.94 520.62,-29.94"/>
<polygon fill="midnightblue" stroke="midnightblue" points="524.04,-29.14 518.9,-19.87 517.14,-30.32 524.04,-29.14"/>
</g>
<!-- Node34&#45;&gt;Node9 -->
<g id="edge65" class="edge">
<title>Node34&#45;&gt;Node9</title>
<path fill="none" stroke="midnightblue" d="M572.83,-448.08C573.48,-441.01 574.42,-430.86 575.24,-421.99"/>
<polygon fill="midnightblue" stroke="midnightblue" points="578.75,-422.03 576.19,-411.75 571.78,-421.39 578.75,-422.03"/>
</g>
<!-- Node34&#45;&gt;Node13 -->
<g id="edge66" class="edge">
<title>Node34&#45;&gt;Node13</title>
<path fill="none" stroke="midnightblue" d="M605.75,-448.47C635.55,-440.49 679.91,-427.48 717,-412 858.02,-353.13 895.81,-337.09 1017,-244 1061.41,-209.89 1108.02,-162.96 1131.15,-138.8"/>
<polygon fill="midnightblue" stroke="midnightblue" points="1133.71,-141.19 1138.06,-131.53 1128.63,-136.37 1133.71,-141.19"/>
</g>
<!-- Node34&#45;&gt;Node25 -->
<g id="edge68" class="edge">
<title>Node34&#45;&gt;Node25</title>
<path fill="none" stroke="midnightblue" d="M541.1,-448.44C507.73,-439.2 454.41,-424.44 417.65,-414.26"/>
<polygon fill="midnightblue" stroke="midnightblue" points="418.33,-410.81 407.75,-411.52 416.46,-417.56 418.33,-410.81"/>
</g>
<!-- Node35 -->
<g id="node35" class="node">
<title>Node35</title>
<g id="a_node35"><a xlink:title=" ">
<polygon fill="white" stroke="#bfbfbf" points="655.5,-392.5 655.5,-411.5 708.5,-411.5 708.5,-392.5 655.5,-392.5"/>
<text text-anchor="middle" x="682" y="-399.5" font-family="Helvetica,sans-Serif" font-size="10.00">stdlib.h</text>
</a>
</g>
</g>
<!-- Node34&#45;&gt;Node35 -->
<g id="edge67" class="edge">
<title>Node34&#45;&gt;Node35</title>
<path fill="none" stroke="midnightblue" d="M589.67,-448.32C607.39,-439.62 634.9,-426.12 655.29,-416.11"/>
<polygon fill="midnightblue" stroke="midnightblue" points="656.94,-419.2 664.37,-411.65 653.85,-412.92 656.94,-419.2"/>
</g>
<!-- Node37&#45;&gt;Node3 -->
<g id="edge76" class="edge">
<title>Node37&#45;&gt;Node3</title>
<path fill="none" stroke="midnightblue" d="M178.52,-565.89C164.85,-557.03 144.75,-542.02 133,-524 116.56,-498.79 114,-489.1 114,-459 114,-459 114,-459 114,-121 114,-75.19 151.99,-74.28 194,-56 236.01,-37.72 353.98,-24.57 435.09,-17.37"/>
<polygon fill="midnightblue" stroke="midnightblue" points="435.62,-20.83 445.28,-16.48 435.02,-13.86 435.62,-20.83"/>
</g>
<!-- Node37&#45;&gt;Node7 -->
<g id="edge77" class="edge">
<title>Node37&#45;&gt;Node7</title>
<path fill="none" stroke="midnightblue" d="M212.49,-565.98C235.41,-555.95 273.69,-539.2 300.08,-527.65"/>
<polygon fill="midnightblue" stroke="midnightblue" points="301.79,-530.72 309.55,-523.51 298.99,-524.31 301.79,-530.72"/>
</g>
<!-- Node37&#45;&gt;Node10 -->
<g id="edge79" class="edge">
<title>Node37&#45;&gt;Node10</title>
<path fill="none" stroke="midnightblue" d="M280.2,-569.45C477.51,-557.1 944.61,-522.38 989,-468 1045.18,-399.17 953.79,-291.27 915.05,-250.93"/>
<polygon fill="midnightblue" stroke="midnightblue" points="917.36,-248.28 907.86,-243.58 912.36,-253.18 917.36,-248.28"/>
</g>
<!-- Node38 -->
<g id="node38" class="node">
<title>Node38</title>
<g id="a_node38"><a xlink:title=" ">
<polygon fill="white" stroke="#bfbfbf" points="142.5,-504.5 142.5,-523.5 243.5,-523.5 243.5,-504.5 142.5,-504.5"/>
<text text-anchor="middle" x="193" y="-511.5" font-family="Helvetica,sans-Serif" font-size="10.00">AH/STL/algorithm</text>
</a>
</g>
</g>
<!-- Node37&#45;&gt;Node38 -->
<g id="edge78" class="edge">
<title>Node37&#45;&gt;Node38</title>
<path fill="none" stroke="midnightblue" d="M193,-565.98C193,-557.58 193,-544.48 193,-533.66"/>
<polygon fill="midnightblue" stroke="midnightblue" points="196.5,-533.51 193,-523.51 189.5,-533.51 196.5,-533.51"/>
</g>
<!-- Node39&#45;&gt;Node3 -->
<g id="edge81" class="edge">
<title>Node39&#45;&gt;Node3</title>
<path fill="none" stroke="midnightblue" d="M1101.69,-504.37C1099.75,-462.32 1086.14,-276.54 995,-168 896.1,-50.22 707.13,-20.19 598.77,-12.91"/>
<polygon fill="midnightblue" stroke="midnightblue" points="598.74,-9.4 588.54,-12.28 598.31,-16.39 598.74,-9.4"/>
</g>
<!-- Node39&#45;&gt;Node8 -->
<g id="edge82" class="edge">
<title>Node39&#45;&gt;Node8</title>
<path fill="none" stroke="midnightblue" d="M1027.04,-509.34C912.39,-503.35 686.39,-489.98 484.42,-468.08"/>
<polygon fill="midnightblue" stroke="midnightblue" points="484.53,-464.57 474.21,-466.96 483.77,-471.53 484.53,-464.57"/>
</g>
<!-- Node39&#45;&gt;Node11 -->
<g id="edge83" class="edge">
<title>Node39&#45;&gt;Node11</title>
<path fill="none" stroke="midnightblue" d="M1110.34,-504.23C1140.48,-471.57 1242,-352.8 1242,-235 1242,-235 1242,-235 1242,-177 1242,-146.9 1238.76,-137.64 1223,-112 1215.88,-100.41 1204.99,-89.86 1195.39,-81.9"/>
<polygon fill="midnightblue" stroke="midnightblue" points="1197.42,-79.04 1187.4,-75.6 1193.09,-84.54 1197.42,-79.04"/>
</g>
<!-- Node39&#45;&gt;Node23 -->
<g id="edge84" class="edge">
<title>Node39&#45;&gt;Node23</title>
<path fill="none" stroke="midnightblue" d="M1105.51,-504.32C1112.6,-485.96 1128,-441.66 1128,-403 1128,-403 1128,-403 1128,-345 1128,-312.58 1135.3,-275.42 1140.33,-253.64"/>
<polygon fill="midnightblue" stroke="midnightblue" points="1143.77,-254.31 1142.71,-243.77 1136.97,-252.67 1143.77,-254.31"/>
</g>
</g>
</svg>
