<?xml version="1.0" encoding="UTF-8" standalone="no"?>
<!DOCTYPE svg PUBLIC "-//W3C//DTD SVG 1.1//EN"
 "http://www.w3.org/Graphics/SVG/1.1/DTD/svg11.dtd">
<!-- Generated by graphviz version 2.43.0 (0)
 -->
<!-- Title: Array.hpp Pages: 1 -->
<svg width="1871pt" height="476pt"
 viewBox="0.00 0.00 1870.50 476.00" xmlns="http://www.w3.org/2000/svg" xmlns:xlink="http://www.w3.org/1999/xlink">
<g id="graph0" class="graph" transform="scale(1 1) rotate(0) translate(4 472)">
<title>Array.hpp</title>
<polygon fill="white" stroke="transparent" points="-4,4 -4,-472 1866.5,-472 1866.5,4 -4,4"/>
<!-- Node1 -->
<g id="node1" class="node">
<title>Node1</title>
<g id="a_node1"><a xlink:title=" ">
<polygon fill="#bfbfbf" stroke="black" points="305.5,-448.5 305.5,-467.5 367.5,-467.5 367.5,-448.5 305.5,-448.5"/>
<text text-anchor="middle" x="336.5" y="-455.5" font-family="Helvetica,sans-Serif" font-size="10.00">Array.hpp</text>
</a>
</g>
</g>
<!-- Node2 -->
<g id="node2" class="node">
<title>Node2</title>
<g id="a_node2"><a xlink:href="../../d7/def/AnalogMultiplex_8hpp.html" target="_top" xlink:title=" ">
<polygon fill="white" stroke="black" points="0,-112.5 0,-131.5 117,-131.5 117,-112.5 0,-112.5"/>
<text text-anchor="middle" x="58.5" y="-119.5" font-family="Helvetica,sans-Serif" font-size="10.00">AnalogMultiplex.hpp</text>
</a>
</g>
</g>
<!-- Node1&#45;&gt;Node2 -->
<g id="edge1" class="edge">
<title>Node1&#45;&gt;Node2</title>
<path fill="none" stroke="midnightblue" d="M295.01,-455.45C224.49,-452.02 85.2,-441.61 47.5,-412 22.9,-392.68 20.5,-378.28 20.5,-347 20.5,-347 20.5,-347 20.5,-233 20.5,-193.4 42.77,-149.96 53.22,-131.77"/>
<polygon fill="midnightblue" stroke="midnightblue" points="295.16,-458.96 305.31,-455.92 295.48,-451.96 295.16,-458.96"/>
</g>
<!-- Node3 -->
<g id="node3" class="node">
<title>Node3</title>
<g id="a_node3"><a xlink:href="../../d5/db6/ArrayHelpers_8hpp.html" target="_top" xlink:title=" ">
<polygon fill="white" stroke="black" points="317,-336.5 317,-355.5 418,-355.5 418,-336.5 317,-336.5"/>
<text text-anchor="middle" x="367.5" y="-343.5" font-family="Helvetica,sans-Serif" font-size="10.00">ArrayHelpers.hpp</text>
</a>
</g>
</g>
<!-- Node1&#45;&gt;Node3 -->
<g id="edge2" class="edge">
<title>Node1&#45;&gt;Node3</title>
<path fill="none" stroke="midnightblue" d="M342.37,-438.81C344.95,-430.64 347.96,-420.86 350.5,-412 356.21,-392.04 362.2,-368.41 365.32,-355.87"/>
<polygon fill="midnightblue" stroke="midnightblue" points="339.01,-437.82 339.3,-448.41 345.68,-439.95 339.01,-437.82"/>
</g>
<!-- Node16 -->
<g id="node16" class="node">
<title>Node16</title>
<g id="a_node16"><a xlink:href="../../d1/dde/BiQuad_8hpp.html" target="_top" xlink:title=" ">
<polygon fill="white" stroke="black" points="133,-336.5 133,-355.5 206,-355.5 206,-336.5 133,-336.5"/>
<text text-anchor="middle" x="169.5" y="-343.5" font-family="Helvetica,sans-Serif" font-size="10.00">BiQuad.hpp</text>
</a>
</g>
</g>
<!-- Node1&#45;&gt;Node16 -->
<g id="edge20" class="edge">
<title>Node1&#45;&gt;Node16</title>
<path fill="none" stroke="midnightblue" d="M295.32,-456.44C259.95,-453.64 210.24,-443.77 181.5,-412 167.33,-396.34 167.33,-369.61 168.45,-355.82"/>
<polygon fill="midnightblue" stroke="midnightblue" points="295.14,-459.94 305.34,-457.08 295.58,-452.95 295.14,-459.94"/>
</g>
<!-- Node17 -->
<g id="node17" class="node">
<title>Node17</title>
<g id="a_node17"><a xlink:href="../../d2/d3b/FIRFilter_8hpp.html" target="_top" xlink:title=" ">
<polygon fill="white" stroke="black" points="57,-392.5 57,-411.5 134,-411.5 134,-392.5 57,-392.5"/>
<text text-anchor="middle" x="95.5" y="-399.5" font-family="Helvetica,sans-Serif" font-size="10.00">FIRFilter.hpp</text>
</a>
</g>
</g>
<!-- Node1&#45;&gt;Node17 -->
<g id="edge22" class="edge">
<title>Node1&#45;&gt;Node17</title>
<path fill="none" stroke="midnightblue" d="M295.69,-447.86C250.35,-437.7 177.73,-421.42 133.54,-411.52"/>
<polygon fill="midnightblue" stroke="midnightblue" points="294.96,-451.28 305.49,-450.05 296.49,-444.45 294.96,-451.28"/>
</g>
<!-- Node19 -->
<g id="node19" class="node">
<title>Node19</title>
<g id="a_node19"><a xlink:href="../../d4/d35/Hardware-Types_8hpp.html" target="_top" xlink:title=" ">
<polygon fill="white" stroke="black" points="503.5,-392.5 503.5,-411.5 619.5,-411.5 619.5,-392.5 503.5,-392.5"/>
<text text-anchor="middle" x="561.5" y="-399.5" font-family="Helvetica,sans-Serif" font-size="10.00">Hardware&#45;Types.hpp</text>
</a>
</g>
</g>
<!-- Node1&#45;&gt;Node19 -->
<g id="edge24" class="edge">
<title>Node1&#45;&gt;Node19</title>
<path fill="none" stroke="midnightblue" d="M377.53,-447.15C420.02,-436.96 485.72,-421.19 526.03,-411.51"/>
<polygon fill="midnightblue" stroke="midnightblue" points="376.69,-443.75 367.79,-449.49 378.33,-450.56 376.69,-443.75"/>
</g>
<!-- Node40 -->
<g id="node40" class="node">
<title>Node40</title>
<g id="a_node40"><a xlink:href="../../dc/d64/IIRFilter_8hpp.html" target="_top" xlink:title=" ">
<polygon fill="white" stroke="black" points="224.5,-336.5 224.5,-355.5 298.5,-355.5 298.5,-336.5 224.5,-336.5"/>
<text text-anchor="middle" x="261.5" y="-343.5" font-family="Helvetica,sans-Serif" font-size="10.00">IIRFilter.hpp</text>
</a>
</g>
</g>
<!-- Node1&#45;&gt;Node40 -->
<g id="edge58" class="edge">
<title>Node1&#45;&gt;Node40</title>
<path fill="none" stroke="midnightblue" d="M334.08,-438.12C331.62,-424.41 326.79,-405.9 317.5,-392 307.04,-376.34 289.43,-363.5 276.75,-355.6"/>
<polygon fill="midnightblue" stroke="midnightblue" points="330.67,-438.95 335.64,-448.31 337.59,-437.89 330.67,-438.95"/>
</g>
<!-- Node41 -->
<g id="node41" class="node">
<title>Node41</title>
<g id="a_node41"><a xlink:href="../../dd/ddf/RegisterEncoders_8hpp.html" target="_top" xlink:title=" ">
<polygon fill="white" stroke="black" points="1651.5,-280.5 1651.5,-299.5 1773.5,-299.5 1773.5,-280.5 1651.5,-280.5"/>
<text text-anchor="middle" x="1712.5" y="-287.5" font-family="Helvetica,sans-Serif" font-size="10.00">RegisterEncoders.hpp</text>
</a>
</g>
</g>
<!-- Node1&#45;&gt;Node41 -->
<g id="edge59" class="edge">
<title>Node1&#45;&gt;Node41</title>
<path fill="none" stroke="midnightblue" d="M377.71,-457.13C572.18,-457.23 1398.58,-451.93 1634.5,-356 1665.2,-343.52 1692.87,-314.31 1705.41,-299.68"/>
<polygon fill="midnightblue" stroke="midnightblue" points="377.63,-453.63 367.62,-457.12 377.62,-460.63 377.63,-453.63"/>
</g>
<!-- Node42 -->
<g id="node42" class="node">
<title>Node42</title>
<g id="a_node42"><a xlink:href="../../dc/d9c/SMA_8hpp.html" target="_top" xlink:title=" ">
<polygon fill="white" stroke="black" points="638,-392.5 638,-411.5 697,-411.5 697,-392.5 638,-392.5"/>
<text text-anchor="middle" x="667.5" y="-399.5" font-family="Helvetica,sans-Serif" font-size="10.00">SMA.hpp</text>
</a>
</g>
</g>
<!-- Node1&#45;&gt;Node42 -->
<g id="edge61" class="edge">
<title>Node1&#45;&gt;Node42</title>
<path fill="none" stroke="midnightblue" d="M377.76,-451.62C434.46,-444 539.59,-429.09 628.5,-412 631.5,-411.42 634.63,-410.78 637.74,-410.11"/>
<polygon fill="midnightblue" stroke="midnightblue" points="377.19,-448.16 367.75,-452.96 378.12,-455.1 377.19,-448.16"/>
</g>
<!-- Node43 -->
<g id="node43" class="node">
<title>Node43</title>
<g id="a_node43"><a xlink:href="../../d2/d03/TransferFunction_8hpp.html" target="_top" xlink:title=" ">
<polygon fill="white" stroke="black" points="190.5,-392.5 190.5,-411.5 308.5,-411.5 308.5,-392.5 190.5,-392.5"/>
<text text-anchor="middle" x="249.5" y="-399.5" font-family="Helvetica,sans-Serif" font-size="10.00">TransferFunction.hpp</text>
</a>
</g>
</g>
<!-- Node1&#45;&gt;Node43 -->
<g id="edge62" class="edge">
<title>Node1&#45;&gt;Node43</title>
<path fill="none" stroke="midnightblue" d="M313.78,-442.9C297.83,-433 277,-420.07 263.44,-411.65"/>
<polygon fill="midnightblue" stroke="midnightblue" points="312.18,-446.02 322.52,-448.32 315.87,-440.08 312.18,-446.02"/>
</g>
<!-- Node4 -->
<g id="node4" class="node">
<title>Node4</title>
<g id="a_node4"><a xlink:href="../../df/ddc/SOSFilter_8hpp.html" target="_top" xlink:title=" ">
<polygon fill="white" stroke="black" points="68,-280.5 68,-299.5 149,-299.5 149,-280.5 68,-280.5"/>
<text text-anchor="middle" x="108.5" y="-287.5" font-family="Helvetica,sans-Serif" font-size="10.00">SOSFilter.hpp</text>
</a>
</g>
</g>
<!-- Node3&#45;&gt;Node4 -->
<g id="edge3" class="edge">
<title>Node3&#45;&gt;Node4</title>
<path fill="none" stroke="midnightblue" d="M316.4,-334.35C267.45,-324.14 194.55,-308.94 149.35,-299.52"/>
<polygon fill="midnightblue" stroke="midnightblue" points="315.96,-337.83 326.46,-336.44 317.39,-330.98 315.96,-337.83"/>
</g>
<!-- Node6 -->
<g id="node6" class="node">
<title>Node6</title>
<g id="a_node6"><a xlink:href="../../d2/d05/StaticSizeExtendedIOElement_8hpp.html" target="_top" xlink:title=" ">
<polygon fill="white" stroke="black" points="86.5,-168.5 86.5,-187.5 268.5,-187.5 268.5,-168.5 86.5,-168.5"/>
<text text-anchor="middle" x="177.5" y="-175.5" font-family="Helvetica,sans-Serif" font-size="10.00">StaticSizeExtendedIOElement.hpp</text>
</a>
</g>
</g>
<!-- Node3&#45;&gt;Node6 -->
<g id="edge5" class="edge">
<title>Node3&#45;&gt;Node6</title>
<path fill="none" stroke="midnightblue" d="M349.61,-329.37C310.35,-295.07 217.74,-214.16 187.35,-187.61"/>
<polygon fill="midnightblue" stroke="midnightblue" points="347.72,-332.37 357.55,-336.31 352.32,-327.09 347.72,-332.37"/>
</g>
<!-- Node5 -->
<g id="node5" class="node">
<title>Node5</title>
<g id="a_node5"><a xlink:href="../../d4/d40/Butterworth_8hpp.html" target="_top" xlink:title=" ">
<polygon fill="white" stroke="black" points="54,-224.5 54,-243.5 149,-243.5 149,-224.5 54,-224.5"/>
<text text-anchor="middle" x="101.5" y="-231.5" font-family="Helvetica,sans-Serif" font-size="10.00">Butterworth.hpp</text>
</a>
</g>
</g>
<!-- Node4&#45;&gt;Node5 -->
<g id="edge4" class="edge">
<title>Node4&#45;&gt;Node5</title>
<path fill="none" stroke="midnightblue" d="M106.05,-270.1C104.89,-261.14 103.56,-250.86 102.63,-243.75"/>
<polygon fill="midnightblue" stroke="midnightblue" points="102.59,-270.62 107.34,-280.08 109.53,-269.72 102.59,-270.62"/>
</g>
<!-- Node6&#45;&gt;Node2 -->
<g id="edge6" class="edge">
<title>Node6&#45;&gt;Node2</title>
<path fill="none" stroke="midnightblue" d="M149.36,-164.23C127.1,-154.13 96.64,-140.31 77.27,-131.52"/>
<polygon fill="midnightblue" stroke="midnightblue" points="148.09,-167.5 158.64,-168.44 150.98,-161.12 148.09,-167.5"/>
</g>
<!-- Node7 -->
<g id="node7" class="node">
<title>Node7</title>
<g id="a_node7"><a xlink:href="../../d2/d25/MAX7219_8hpp.html" target="_top" xlink:title=" ">
<polygon fill="white" stroke="black" points="847.5,-112.5 847.5,-131.5 931.5,-131.5 931.5,-112.5 847.5,-112.5"/>
<text text-anchor="middle" x="889.5" y="-119.5" font-family="Helvetica,sans-Serif" font-size="10.00">MAX7219.hpp</text>
</a>
</g>
</g>
<!-- Node6&#45;&gt;Node7 -->
<g id="edge7" class="edge">
<title>Node6&#45;&gt;Node7</title>
<path fill="none" stroke="midnightblue" d="M278.86,-167.91C407.1,-157.59 731.04,-134.33 847.27,-126.01"/>
<polygon fill="midnightblue" stroke="midnightblue" points="278.2,-164.45 268.51,-168.75 278.76,-171.43 278.2,-164.45"/>
</g>
<!-- Node8 -->
<g id="node8" class="node">
<title>Node8</title>
<g id="a_node8"><a xlink:href="../../d7/dca/MCP23017_8hpp.html" target="_top" xlink:title=" ">
<polygon fill="white" stroke="black" points="301,-112.5 301,-131.5 390,-131.5 390,-112.5 301,-112.5"/>
<text text-anchor="middle" x="345.5" y="-119.5" font-family="Helvetica,sans-Serif" font-size="10.00">MCP23017.hpp</text>
</a>
</g>
</g>
<!-- Node6&#45;&gt;Node8 -->
<g id="edge8" class="edge">
<title>Node6&#45;&gt;Node8</title>
<path fill="none" stroke="midnightblue" d="M213.89,-165.3C245.54,-155.13 290.67,-140.62 319,-131.52"/>
<polygon fill="midnightblue" stroke="midnightblue" points="212.57,-162.05 204.12,-168.44 214.71,-168.72 212.57,-162.05"/>
</g>
<!-- Node10 -->
<g id="node10" class="node">
<title>Node10</title>
<g id="a_node10"><a xlink:href="../../d8/d93/ShiftRegisterOutBase_8hpp.html" target="_top" xlink:title=" ">
<polygon fill="white" stroke="black" points="612,-112.5 612,-131.5 753,-131.5 753,-112.5 612,-112.5"/>
<text text-anchor="middle" x="682.5" y="-119.5" font-family="Helvetica,sans-Serif" font-size="10.00">ShiftRegisterOutBase.hpp</text>
</a>
</g>
</g>
<!-- Node6&#45;&gt;Node10 -->
<g id="edge11" class="edge">
<title>Node6&#45;&gt;Node10</title>
<path fill="none" stroke="midnightblue" d="M267.47,-167.38C365.9,-156.85 521.64,-140.2 611.74,-130.57"/>
<polygon fill="midnightblue" stroke="midnightblue" points="266.81,-163.93 257.24,-168.47 267.56,-170.89 266.81,-163.93"/>
</g>
<!-- Node9 -->
<g id="node9" class="node">
<title>Node9</title>
<g id="a_node9"><a xlink:href="../../d2/d94/MCP23017_8ipp.html" target="_top" xlink:title=" ">
<polygon fill="white" stroke="black" points="302.5,-56.5 302.5,-75.5 388.5,-75.5 388.5,-56.5 302.5,-56.5"/>
<text text-anchor="middle" x="345.5" y="-63.5" font-family="Helvetica,sans-Serif" font-size="10.00">MCP23017.ipp</text>
</a>
</g>
</g>
<!-- Node8&#45;&gt;Node9 -->
<g id="edge9" class="edge">
<title>Node8&#45;&gt;Node9</title>
<path fill="none" stroke="midnightblue" d="M339.03,-102.1C338.4,-93.14 338.84,-82.86 340.37,-75.75"/>
<polygon fill="midnightblue" stroke="midnightblue" points="335.57,-102.62 340.33,-112.08 342.51,-101.71 335.57,-102.62"/>
</g>
<!-- Node9&#45;&gt;Node8 -->
<g id="edge10" class="edge">
<title>Node9&#45;&gt;Node8</title>
<path fill="none" stroke="midnightblue" d="M351.96,-85.69C352.61,-94.64 352.18,-104.93 350.67,-112.08"/>
<polygon fill="midnightblue" stroke="midnightblue" points="355.42,-85.2 350.63,-75.75 348.48,-86.13 355.42,-85.2"/>
</g>
<!-- Node11 -->
<g id="node11" class="node">
<title>Node11</title>
<g id="a_node11"><a xlink:href="../../d7/d88/SPIShiftRegisterOut_8hpp.html" target="_top" xlink:title=" ">
<polygon fill="white" stroke="black" points="611.5,-56.5 611.5,-75.5 743.5,-75.5 743.5,-56.5 611.5,-56.5"/>
<text text-anchor="middle" x="677.5" y="-63.5" font-family="Helvetica,sans-Serif" font-size="10.00">SPIShiftRegisterOut.hpp</text>
</a>
</g>
</g>
<!-- Node10&#45;&gt;Node11 -->
<g id="edge12" class="edge">
<title>Node10&#45;&gt;Node11</title>
<path fill="none" stroke="midnightblue" d="M680.75,-102.1C679.92,-93.14 678.97,-82.86 678.31,-75.75"/>
<polygon fill="midnightblue" stroke="midnightblue" points="677.27,-102.45 681.67,-112.08 684.24,-101.8 677.27,-102.45"/>
</g>
<!-- Node13 -->
<g id="node13" class="node">
<title>Node13</title>
<g id="a_node13"><a xlink:href="../../d0/db4/ShiftRegisterOut_8hpp.html" target="_top" xlink:title=" ">
<polygon fill="white" stroke="black" points="762,-56.5 762,-75.5 879,-75.5 879,-56.5 762,-56.5"/>
<text text-anchor="middle" x="820.5" y="-63.5" font-family="Helvetica,sans-Serif" font-size="10.00">ShiftRegisterOut.hpp</text>
</a>
</g>
</g>
<!-- Node10&#45;&gt;Node13 -->
<g id="edge15" class="edge">
<title>Node10&#45;&gt;Node13</title>
<path fill="none" stroke="midnightblue" d="M713.75,-108.77C739.67,-98.63 775.86,-84.47 798.74,-75.52"/>
<polygon fill="midnightblue" stroke="midnightblue" points="712.4,-105.54 704.37,-112.44 714.95,-112.06 712.4,-105.54"/>
</g>
<!-- Node15 -->
<g id="node15" class="node">
<title>Node15</title>
<g id="a_node15"><a xlink:href="../../d5/d47/ShiftRegisterOutBase_8ipp.html" target="_top" xlink:title=" ">
<polygon fill="white" stroke="black" points="897.5,-56.5 897.5,-75.5 1035.5,-75.5 1035.5,-56.5 897.5,-56.5"/>
<text text-anchor="middle" x="966.5" y="-63.5" font-family="Helvetica,sans-Serif" font-size="10.00">ShiftRegisterOutBase.ipp</text>
</a>
</g>
</g>
<!-- Node10&#45;&gt;Node15 -->
<g id="edge18" class="edge">
<title>Node10&#45;&gt;Node15</title>
<path fill="none" stroke="midnightblue" d="M732.38,-110.47C784.24,-100.27 864.78,-84.98 916.63,-75.52"/>
<polygon fill="midnightblue" stroke="midnightblue" points="731.54,-107.07 722.41,-112.44 732.9,-113.94 731.54,-107.07"/>
</g>
<!-- Node12 -->
<g id="node12" class="node">
<title>Node12</title>
<g id="a_node12"><a xlink:href="../../da/d45/SPIShiftRegisterOut_8ipp.html" target="_top" xlink:title=" ">
<polygon fill="white" stroke="black" points="613,-0.5 613,-19.5 742,-19.5 742,-0.5 613,-0.5"/>
<text text-anchor="middle" x="677.5" y="-7.5" font-family="Helvetica,sans-Serif" font-size="10.00">SPIShiftRegisterOut.ipp</text>
</a>
</g>
</g>
<!-- Node11&#45;&gt;Node12 -->
<g id="edge13" class="edge">
<title>Node11&#45;&gt;Node12</title>
<path fill="none" stroke="midnightblue" d="M671.03,-46.1C670.4,-37.14 670.84,-26.86 672.37,-19.75"/>
<polygon fill="midnightblue" stroke="midnightblue" points="667.57,-46.62 672.33,-56.08 674.51,-45.71 667.57,-46.62"/>
</g>
<!-- Node12&#45;&gt;Node11 -->
<g id="edge14" class="edge">
<title>Node12&#45;&gt;Node11</title>
<path fill="none" stroke="midnightblue" d="M683.96,-29.69C684.61,-38.64 684.18,-48.93 682.67,-56.08"/>
<polygon fill="midnightblue" stroke="midnightblue" points="687.42,-29.2 682.63,-19.75 680.48,-30.13 687.42,-29.2"/>
</g>
<!-- Node14 -->
<g id="node14" class="node">
<title>Node14</title>
<g id="a_node14"><a xlink:href="../../de/d95/ShiftRegisterOut_8ipp.html" target="_top" xlink:title=" ">
<polygon fill="white" stroke="black" points="763.5,-0.5 763.5,-19.5 877.5,-19.5 877.5,-0.5 763.5,-0.5"/>
<text text-anchor="middle" x="820.5" y="-7.5" font-family="Helvetica,sans-Serif" font-size="10.00">ShiftRegisterOut.ipp</text>
</a>
</g>
</g>
<!-- Node13&#45;&gt;Node14 -->
<g id="edge16" class="edge">
<title>Node13&#45;&gt;Node14</title>
<path fill="none" stroke="midnightblue" d="M814.03,-46.1C813.4,-37.14 813.84,-26.86 815.37,-19.75"/>
<polygon fill="midnightblue" stroke="midnightblue" points="810.57,-46.62 815.33,-56.08 817.51,-45.71 810.57,-46.62"/>
</g>
<!-- Node14&#45;&gt;Node13 -->
<g id="edge17" class="edge">
<title>Node14&#45;&gt;Node13</title>
<path fill="none" stroke="midnightblue" d="M826.96,-29.69C827.61,-38.64 827.18,-48.93 825.67,-56.08"/>
<polygon fill="midnightblue" stroke="midnightblue" points="830.42,-29.2 825.63,-19.75 823.48,-30.13 830.42,-29.2"/>
</g>
<!-- Node15&#45;&gt;Node10 -->
<g id="edge19" class="edge">
<title>Node15&#45;&gt;Node10</title>
<path fill="none" stroke="midnightblue" d="M916.84,-77.48C865.06,-87.67 784.52,-102.96 732.59,-112.44"/>
<polygon fill="midnightblue" stroke="midnightblue" points="917.66,-80.89 926.79,-75.52 916.3,-74.02 917.66,-80.89"/>
</g>
<!-- Node16&#45;&gt;Node4 -->
<g id="edge21" class="edge">
<title>Node16&#45;&gt;Node4</title>
<path fill="none" stroke="midnightblue" d="M152.03,-329.54C141.16,-319.91 127.56,-307.87 118.48,-299.83"/>
<polygon fill="midnightblue" stroke="midnightblue" points="149.89,-332.32 159.7,-336.32 154.53,-327.07 149.89,-332.32"/>
</g>
<!-- Node18 -->
<g id="node18" class="node">
<title>Node18</title>
<g id="a_node18"><a xlink:href="../../df/da1/Notch_8hpp.html" target="_top" xlink:title=" ">
<polygon fill="white" stroke="black" points="48.5,-336.5 48.5,-355.5 114.5,-355.5 114.5,-336.5 48.5,-336.5"/>
<text text-anchor="middle" x="81.5" y="-343.5" font-family="Helvetica,sans-Serif" font-size="10.00">Notch.hpp</text>
</a>
</g>
</g>
<!-- Node17&#45;&gt;Node18 -->
<g id="edge23" class="edge">
<title>Node17&#45;&gt;Node18</title>
<path fill="none" stroke="midnightblue" d="M90.68,-382.4C88.33,-373.36 85.63,-362.94 83.77,-355.75"/>
<polygon fill="midnightblue" stroke="midnightblue" points="87.29,-383.28 93.19,-392.08 94.07,-381.52 87.29,-383.28"/>
</g>
<!-- Node20 -->
<g id="node20" class="node">
<title>Node20</title>
<g id="a_node20"><a xlink:href="../../d2/d3c/Arduino-Hardware-Types_8hpp.html" target="_top" xlink:title=" ">
<polygon fill="white" stroke="black" points="607,-336.5 607,-355.5 764,-355.5 764,-336.5 607,-336.5"/>
<text text-anchor="middle" x="685.5" y="-343.5" font-family="Helvetica,sans-Serif" font-size="10.00">Arduino&#45;Hardware&#45;Types.hpp</text>
</a>
</g>
</g>
<!-- Node19&#45;&gt;Node20 -->
<g id="edge25" class="edge">
<title>Node19&#45;&gt;Node20</title>
<path fill="none" stroke="midnightblue" d="M590.51,-388.37C613.73,-378.26 645.66,-364.35 665.94,-355.52"/>
<polygon fill="midnightblue" stroke="midnightblue" points="588.92,-385.24 581.15,-392.44 591.71,-391.66 588.92,-385.24"/>
</g>
<!-- Node30 -->
<g id="node30" class="node">
<title>Node30</title>
<g id="a_node30"><a xlink:href="../../d9/d4b/ButtonMatrix_8hpp.html" target="_top" xlink:title=" ">
<polygon fill="white" stroke="black" points="1611,-168.5 1611,-187.5 1712,-187.5 1712,-168.5 1611,-168.5"/>
<text text-anchor="middle" x="1661.5" y="-175.5" font-family="Helvetica,sans-Serif" font-size="10.00">ButtonMatrix.hpp</text>
</a>
</g>
</g>
<!-- Node19&#45;&gt;Node30 -->
<g id="edge55" class="edge">
<title>Node19&#45;&gt;Node30</title>
<path fill="none" stroke="midnightblue" d="M629.63,-391.81C710.59,-380.87 840.83,-363.17 889.5,-356 1206.42,-309.34 1318.96,-394.96 1601.5,-244 1626.69,-230.54 1646.95,-202.33 1656.15,-187.9"/>
<polygon fill="midnightblue" stroke="midnightblue" points="628.97,-388.37 619.53,-393.18 629.91,-395.31 628.97,-388.37"/>
</g>
<!-- Node31 -->
<g id="node31" class="node">
<title>Node31</title>
<g id="a_node31"><a xlink:href="../../d4/d57/ExtendedIOElement_8hpp.html" target="_top" xlink:title=" ">
<polygon fill="white" stroke="black" points="406.5,-224.5 406.5,-243.5 540.5,-243.5 540.5,-224.5 406.5,-224.5"/>
<text text-anchor="middle" x="473.5" y="-231.5" font-family="Helvetica,sans-Serif" font-size="10.00">ExtendedIOElement.hpp</text>
</a>
</g>
</g>
<!-- Node19&#45;&gt;Node31 -->
<g id="edge56" class="edge">
<title>Node19&#45;&gt;Node31</title>
<path fill="none" stroke="midnightblue" d="M551.88,-382.86C533.01,-347.25 491.76,-269.45 478.04,-243.57"/>
<polygon fill="midnightblue" stroke="midnightblue" points="548.99,-384.88 556.77,-392.08 555.18,-381.6 548.99,-384.88"/>
</g>
<!-- Node34 -->
<g id="node34" class="node">
<title>Node34</title>
<g id="a_node34"><a xlink:href="../../d8/df3/FilteredAnalog_8hpp.html" target="_top" xlink:title=" ">
<polygon fill="white" stroke="black" points="1484.5,-224.5 1484.5,-243.5 1592.5,-243.5 1592.5,-224.5 1484.5,-224.5"/>
<text text-anchor="middle" x="1538.5" y="-231.5" font-family="Helvetica,sans-Serif" font-size="10.00">FilteredAnalog.hpp</text>
</a>
</g>
</g>
<!-- Node19&#45;&gt;Node34 -->
<g id="edge57" class="edge">
<title>Node19&#45;&gt;Node34</title>
<path fill="none" stroke="midnightblue" d="M621.62,-390.79C799.91,-360.49 1323.53,-271.53 1488.28,-243.53"/>
<polygon fill="midnightblue" stroke="midnightblue" points="620.9,-387.36 611.63,-392.48 622.08,-394.26 620.9,-387.36"/>
</g>
<!-- Node21 -->
<g id="node21" class="node">
<title>Node21</title>
<g id="a_node21"><a xlink:href="../../dd/ddf/ExtendedInputOutput_8hpp.html" target="_top" xlink:title=" ">
<polygon fill="white" stroke="black" points="650,-280.5 650,-299.5 791,-299.5 791,-280.5 650,-280.5"/>
<text text-anchor="middle" x="720.5" y="-287.5" font-family="Helvetica,sans-Serif" font-size="10.00">ExtendedInputOutput.hpp</text>
</a>
</g>
</g>
<!-- Node20&#45;&gt;Node21 -->
<g id="edge26" class="edge">
<title>Node20&#45;&gt;Node21</title>
<path fill="none" stroke="midnightblue" d="M696.8,-327.57C702.82,-318.27 709.97,-307.25 714.83,-299.75"/>
<polygon fill="midnightblue" stroke="midnightblue" points="693.78,-325.79 691.28,-336.08 699.66,-329.6 693.78,-325.79"/>
</g>
<!-- Node21&#45;&gt;Node2 -->
<g id="edge27" class="edge">
<title>Node21&#45;&gt;Node2</title>
<path fill="none" stroke="midnightblue" d="M639.78,-281.23C476.5,-264.81 118.93,-225.06 77.5,-188 61.2,-173.42 58.56,-145.71 58.33,-131.65"/>
<polygon fill="midnightblue" stroke="midnightblue" points="639.48,-284.72 649.78,-282.23 640.18,-277.75 639.48,-284.72"/>
</g>
<!-- Node21&#45;&gt;Node8 -->
<g id="edge49" class="edge">
<title>Node21&#45;&gt;Node8</title>
<path fill="none" stroke="midnightblue" d="M684.45,-276.74C666.65,-269.35 645.78,-258.52 630.5,-244 602.36,-217.27 619.09,-190.55 587.5,-168 556.46,-145.84 451.05,-132.71 390.07,-126.78"/>
<polygon fill="midnightblue" stroke="midnightblue" points="683.37,-280.08 693.96,-280.49 685.94,-273.57 683.37,-280.08"/>
</g>
<!-- Node21&#45;&gt;Node10 -->
<g id="edge53" class="edge">
<title>Node21&#45;&gt;Node10</title>
<path fill="none" stroke="midnightblue" d="M714.38,-270.87C711.75,-262.72 708.77,-252.93 706.5,-244 695.9,-202.28 687.15,-151.48 683.88,-131.58"/>
<polygon fill="midnightblue" stroke="midnightblue" points="711.08,-272.05 717.54,-280.45 717.73,-269.86 711.08,-272.05"/>
</g>
<!-- Node21&#45;&gt;Node12 -->
<g id="edge51" class="edge">
<title>Node21&#45;&gt;Node12</title>
<path fill="none" stroke="midnightblue" d="M703.13,-273.15C675.81,-246.93 623.81,-191.47 603.5,-132 592.58,-100.03 585.86,-85.4 602.5,-56 612.67,-38.03 633.21,-26.45 650.22,-19.55"/>
<polygon fill="midnightblue" stroke="midnightblue" points="701.07,-276.02 710.75,-280.32 705.87,-270.92 701.07,-276.02"/>
</g>
<!-- Node21&#45;&gt;Node14 -->
<g id="edge52" class="edge">
<title>Node21&#45;&gt;Node14</title>
<path fill="none" stroke="midnightblue" d="M801.27,-285.34C897.26,-280.09 1061.98,-268.26 1201.5,-244 1236.76,-237.87 1244.35,-230.71 1279.5,-224 1341.99,-212.08 1521.44,-235.73 1563.5,-188 1657.91,-80.87 1067.57,-28.72 877.83,-14.86"/>
<polygon fill="midnightblue" stroke="midnightblue" points="800.86,-281.86 791.06,-285.89 801.23,-288.85 800.86,-281.86"/>
</g>
<!-- Node21&#45;&gt;Node15 -->
<g id="edge54" class="edge">
<title>Node21&#45;&gt;Node15</title>
<path fill="none" stroke="midnightblue" d="M718.69,-270.34C717.19,-244.89 718.08,-198.92 739.5,-168 778.19,-112.16 855.2,-86.8 908.73,-75.55"/>
<polygon fill="midnightblue" stroke="midnightblue" points="715.21,-270.77 719.48,-280.46 722.19,-270.22 715.21,-270.77"/>
</g>
<!-- Node22 -->
<g id="node22" class="node">
<title>Node22</title>
<g id="a_node22"><a xlink:href="../../d4/db3/Button_8hpp.html" target="_top" xlink:title=" ">
<polygon fill="white" stroke="black" points="900.5,-224.5 900.5,-243.5 970.5,-243.5 970.5,-224.5 900.5,-224.5"/>
<text text-anchor="middle" x="935.5" y="-231.5" font-family="Helvetica,sans-Serif" font-size="10.00">Button.hpp</text>
</a>
</g>
</g>
<!-- Node21&#45;&gt;Node22 -->
<g id="edge28" class="edge">
<title>Node21&#45;&gt;Node22</title>
<path fill="none" stroke="midnightblue" d="M764.46,-277.96C805.07,-267.76 864.54,-252.82 901.59,-243.52"/>
<polygon fill="midnightblue" stroke="midnightblue" points="763.41,-274.61 754.57,-280.44 765.12,-281.4 763.41,-274.61"/>
</g>
<!-- Node29 -->
<g id="node29" class="node">
<title>Node29</title>
<g id="a_node29"><a xlink:href="../../d5/d41/ButtonMatrix_8ipp.html" target="_top" xlink:title=" ">
<polygon fill="white" stroke="black" points="1288.5,-224.5 1288.5,-243.5 1386.5,-243.5 1386.5,-224.5 1288.5,-224.5"/>
<text text-anchor="middle" x="1337.5" y="-231.5" font-family="Helvetica,sans-Serif" font-size="10.00">ButtonMatrix.ipp</text>
</a>
</g>
</g>
<!-- Node21&#45;&gt;Node29 -->
<g id="edge35" class="edge">
<title>Node21&#45;&gt;Node29</title>
<path fill="none" stroke="midnightblue" d="M801.2,-283.99C909.19,-276.93 1106.58,-262.8 1274.5,-244 1279,-243.5 1283.68,-242.92 1288.36,-242.32"/>
<polygon fill="midnightblue" stroke="midnightblue" points="800.78,-280.51 791.03,-284.65 801.24,-287.49 800.78,-280.51"/>
</g>
<!-- Node21&#45;&gt;Node31 -->
<g id="edge38" class="edge">
<title>Node21&#45;&gt;Node31</title>
<path fill="none" stroke="midnightblue" d="M671.47,-278.28C624.8,-268.08 555.47,-252.92 512.45,-243.52"/>
<polygon fill="midnightblue" stroke="midnightblue" points="670.85,-281.73 681.36,-280.44 672.34,-274.89 670.85,-281.73"/>
</g>
<!-- Node33 -->
<g id="node33" class="node">
<title>Node33</title>
<g id="a_node33"><a xlink:href="../../d6/d3c/ExtendedInputOutput_8cpp.html" target="_top" xlink:title=" ">
<polygon fill="white" stroke="black" points="438.5,-168.5 438.5,-187.5 578.5,-187.5 578.5,-168.5 438.5,-168.5"/>
<text text-anchor="middle" x="508.5" y="-175.5" font-family="Helvetica,sans-Serif" font-size="10.00">ExtendedInputOutput.cpp</text>
</a>
</g>
</g>
<!-- Node21&#45;&gt;Node33 -->
<g id="edge42" class="edge">
<title>Node21&#45;&gt;Node33</title>
<path fill="none" stroke="midnightblue" d="M677.41,-277.62C651.87,-269.97 619.35,-258.61 592.5,-244 562.7,-227.78 532.34,-201.3 517.62,-187.68"/>
<polygon fill="midnightblue" stroke="midnightblue" points="676.61,-281.03 687.19,-280.47 678.57,-274.31 676.61,-281.03"/>
</g>
<!-- Node21&#45;&gt;Node34 -->
<g id="edge43" class="edge">
<title>Node21&#45;&gt;Node34</title>
<path fill="none" stroke="midnightblue" d="M801.27,-286.37C939.6,-281.38 1230.63,-268.75 1475.5,-244 1478.36,-243.71 1481.29,-243.39 1484.24,-243.04"/>
<polygon fill="midnightblue" stroke="midnightblue" points="801.04,-282.88 791.18,-286.73 801.29,-289.87 801.04,-282.88"/>
</g>
<!-- Node35 -->
<g id="node35" class="node">
<title>Node35</title>
<g id="a_node35"><a xlink:href="../../d9/d4f/LEDs_8hpp.html" target="_top" xlink:title=" ">
<polygon fill="white" stroke="black" points="1404.5,-224.5 1404.5,-243.5 1466.5,-243.5 1466.5,-224.5 1404.5,-224.5"/>
<text text-anchor="middle" x="1435.5" y="-231.5" font-family="Helvetica,sans-Serif" font-size="10.00">LEDs.hpp</text>
</a>
</g>
</g>
<!-- Node21&#45;&gt;Node35 -->
<g id="edge44" class="edge">
<title>Node21&#45;&gt;Node35</title>
<path fill="none" stroke="midnightblue" d="M801.37,-287.64C928.47,-284.61 1182.46,-274.88 1395.5,-244 1398.32,-243.59 1401.23,-243.09 1404.14,-242.54"/>
<polygon fill="midnightblue" stroke="midnightblue" points="801.25,-284.15 791.33,-287.88 801.41,-291.14 801.25,-284.15"/>
</g>
<!-- Node37 -->
<g id="node37" class="node">
<title>Node37</title>
<g id="a_node37"><a xlink:href="../../d7/d13/MAX7219__Base_8hpp.html" target="_top" xlink:title=" ">
<polygon fill="white" stroke="black" points="1079,-224.5 1079,-243.5 1192,-243.5 1192,-224.5 1079,-224.5"/>
<text text-anchor="middle" x="1135.5" y="-231.5" font-family="Helvetica,sans-Serif" font-size="10.00">MAX7219_Base.hpp</text>
</a>
</g>
</g>
<!-- Node21&#45;&gt;Node37 -->
<g id="edge46" class="edge">
<title>Node21&#45;&gt;Node37</title>
<path fill="none" stroke="midnightblue" d="M796.45,-279.12C877.95,-268.51 1005.51,-251.91 1078.72,-242.39"/>
<polygon fill="midnightblue" stroke="midnightblue" points="795.72,-275.68 786.26,-280.44 796.63,-282.62 795.72,-275.68"/>
</g>
<!-- Node39 -->
<g id="node39" class="node">
<title>Node39</title>
<g id="a_node39"><a xlink:href="../../d8/dd2/MCP23017Encoders_8hpp.html" target="_top" xlink:title=" ">
<polygon fill="white" stroke="black" points="1648.5,-224.5 1648.5,-243.5 1782.5,-243.5 1782.5,-224.5 1648.5,-224.5"/>
<text text-anchor="middle" x="1715.5" y="-231.5" font-family="Helvetica,sans-Serif" font-size="10.00">MCP23017Encoders.hpp</text>
</a>
</g>
</g>
<!-- Node21&#45;&gt;Node39 -->
<g id="edge50" class="edge">
<title>Node21&#45;&gt;Node39</title>
<path fill="none" stroke="midnightblue" d="M801.44,-285.62C956.69,-278.96 1307,-263.14 1601.5,-244 1616.66,-243.01 1632.93,-241.81 1648.31,-240.62"/>
<polygon fill="midnightblue" stroke="midnightblue" points="800.9,-282.14 791.06,-286.06 801.2,-289.13 800.9,-282.14"/>
</g>
<!-- Node23 -->
<g id="node23" class="node">
<title>Node23</title>
<g id="a_node23"><a xlink:href="../../de/dd1/Button_8cpp.html" target="_top" xlink:title=" ">
<polygon fill="white" stroke="black" points="901,-168.5 901,-187.5 970,-187.5 970,-168.5 901,-168.5"/>
<text text-anchor="middle" x="935.5" y="-175.5" font-family="Helvetica,sans-Serif" font-size="10.00">Button.cpp</text>
</a>
</g>
</g>
<!-- Node22&#45;&gt;Node23 -->
<g id="edge29" class="edge">
<title>Node22&#45;&gt;Node23</title>
<path fill="none" stroke="midnightblue" d="M935.5,-213.8C935.5,-204.91 935.5,-194.78 935.5,-187.75"/>
<polygon fill="midnightblue" stroke="midnightblue" points="932,-214.08 935.5,-224.08 939,-214.08 932,-214.08"/>
</g>
<!-- Node24 -->
<g id="node24" class="node">
<title>Node24</title>
<g id="a_node24"><a xlink:href="../../d5/d04/IncrementButton_8hpp.html" target="_top" xlink:title=" ">
<polygon fill="white" stroke="black" points="988,-168.5 988,-187.5 1107,-187.5 1107,-168.5 988,-168.5"/>
<text text-anchor="middle" x="1047.5" y="-175.5" font-family="Helvetica,sans-Serif" font-size="10.00">IncrementButton.hpp</text>
</a>
</g>
</g>
<!-- Node22&#45;&gt;Node24 -->
<g id="edge30" class="edge">
<title>Node22&#45;&gt;Node24</title>
<path fill="none" stroke="midnightblue" d="M962.75,-219.86C983.52,-209.85 1011.52,-196.35 1029.55,-187.65"/>
<polygon fill="midnightblue" stroke="midnightblue" points="960.98,-216.83 953.49,-224.32 964.02,-223.13 960.98,-216.83"/>
</g>
<!-- Node26 -->
<g id="node26" class="node">
<title>Node26</title>
<g id="a_node26"><a xlink:href="../../df/df5/IncrementDecrementButtons_8hpp.html" target="_top" xlink:title=" ">
<polygon fill="white" stroke="black" points="1164,-168.5 1164,-187.5 1343,-187.5 1343,-168.5 1164,-168.5"/>
<text text-anchor="middle" x="1253.5" y="-175.5" font-family="Helvetica,sans-Serif" font-size="10.00">IncrementDecrementButtons.hpp</text>
</a>
</g>
</g>
<!-- Node22&#45;&gt;Node26 -->
<g id="edge32" class="edge">
<title>Node22&#45;&gt;Node26</title>
<path fill="none" stroke="midnightblue" d="M980.86,-225.3C1039.7,-215.31 1142.05,-197.93 1203.21,-187.54"/>
<polygon fill="midnightblue" stroke="midnightblue" points="980.02,-221.89 970.75,-227.01 981.19,-228.79 980.02,-221.89"/>
</g>
<!-- Node28 -->
<g id="node28" class="node">
<title>Node28</title>
<g id="a_node28"><a xlink:href="../../dc/dc5/MultiPurposeButton_8hpp.html" target="_top" xlink:title=" ">
<polygon fill="white" stroke="black" points="748.5,-168.5 748.5,-187.5 882.5,-187.5 882.5,-168.5 748.5,-168.5"/>
<text text-anchor="middle" x="815.5" y="-175.5" font-family="Helvetica,sans-Serif" font-size="10.00">MultiPurposeButton.hpp</text>
</a>
</g>
</g>
<!-- Node22&#45;&gt;Node28 -->
<g id="edge34" class="edge">
<title>Node22&#45;&gt;Node28</title>
<path fill="none" stroke="midnightblue" d="M907.13,-220.23C884.68,-210.13 853.96,-196.31 834.43,-187.52"/>
<polygon fill="midnightblue" stroke="midnightblue" points="905.93,-223.53 916.49,-224.44 908.8,-217.15 905.93,-223.53"/>
</g>
<!-- Node25 -->
<g id="node25" class="node">
<title>Node25</title>
<g id="a_node25"><a xlink:href="../../db/d9d/IncrementButton_8cpp.html" target="_top" xlink:title=" ">
<polygon fill="white" stroke="black" points="988,-112.5 988,-131.5 1107,-131.5 1107,-112.5 988,-112.5"/>
<text text-anchor="middle" x="1047.5" y="-119.5" font-family="Helvetica,sans-Serif" font-size="10.00">IncrementButton.cpp</text>
</a>
</g>
</g>
<!-- Node24&#45;&gt;Node25 -->
<g id="edge31" class="edge">
<title>Node24&#45;&gt;Node25</title>
<path fill="none" stroke="midnightblue" d="M1047.5,-157.8C1047.5,-148.91 1047.5,-138.78 1047.5,-131.75"/>
<polygon fill="midnightblue" stroke="midnightblue" points="1044,-158.08 1047.5,-168.08 1051,-158.08 1044,-158.08"/>
</g>
<!-- Node27 -->
<g id="node27" class="node">
<title>Node27</title>
<g id="a_node27"><a xlink:href="../../da/d66/IncrementDecrementButtons_8cpp.html" target="_top" xlink:title=" ">
<polygon fill="white" stroke="black" points="1164.5,-112.5 1164.5,-131.5 1342.5,-131.5 1342.5,-112.5 1164.5,-112.5"/>
<text text-anchor="middle" x="1253.5" y="-119.5" font-family="Helvetica,sans-Serif" font-size="10.00">IncrementDecrementButtons.cpp</text>
</a>
</g>
</g>
<!-- Node26&#45;&gt;Node27 -->
<g id="edge33" class="edge">
<title>Node26&#45;&gt;Node27</title>
<path fill="none" stroke="midnightblue" d="M1253.5,-157.8C1253.5,-148.91 1253.5,-138.78 1253.5,-131.75"/>
<polygon fill="midnightblue" stroke="midnightblue" points="1250,-158.08 1253.5,-168.08 1257,-158.08 1250,-158.08"/>
</g>
<!-- Node29&#45;&gt;Node30 -->
<g id="edge36" class="edge">
<title>Node29&#45;&gt;Node30</title>
<path fill="none" stroke="midnightblue" d="M1393.63,-222.74C1454.83,-212.22 1551.76,-196.09 1610.76,-186.64"/>
<polygon fill="midnightblue" stroke="midnightblue" points="1393.01,-219.3 1383.75,-224.44 1394.2,-226.19 1393.01,-219.3"/>
</g>
<!-- Node30&#45;&gt;Node29 -->
<g id="edge37" class="edge">
<title>Node30&#45;&gt;Node29</title>
<path fill="none" stroke="midnightblue" d="M1605.59,-189.22C1543.86,-199.84 1445.6,-216.18 1386.69,-225.6"/>
<polygon fill="midnightblue" stroke="midnightblue" points="1606.29,-192.65 1615.55,-187.51 1605.1,-185.76 1606.29,-192.65"/>
</g>
<!-- Node31&#45;&gt;Node6 -->
<g id="edge41" class="edge">
<title>Node31&#45;&gt;Node6</title>
<path fill="none" stroke="midnightblue" d="M416.5,-222.6C360.56,-212.4 276.27,-197.02 224.18,-187.52"/>
<polygon fill="midnightblue" stroke="midnightblue" points="416.13,-226.09 426.6,-224.44 417.39,-219.21 416.13,-226.09"/>
</g>
<!-- Node32 -->
<g id="node32" class="node">
<title>Node32</title>
<g id="a_node32"><a xlink:href="../../da/d1f/ExtendedIOElement_8cpp.html" target="_top" xlink:title=" ">
<polygon fill="white" stroke="black" points="286.5,-168.5 286.5,-187.5 420.5,-187.5 420.5,-168.5 286.5,-168.5"/>
<text text-anchor="middle" x="353.5" y="-175.5" font-family="Helvetica,sans-Serif" font-size="10.00">ExtendedIOElement.cpp</text>
</a>
</g>
</g>
<!-- Node31&#45;&gt;Node32 -->
<g id="edge39" class="edge">
<title>Node31&#45;&gt;Node32</title>
<path fill="none" stroke="midnightblue" d="M445.13,-220.23C422.68,-210.13 391.96,-196.31 372.43,-187.52"/>
<polygon fill="midnightblue" stroke="midnightblue" points="443.93,-223.53 454.49,-224.44 446.8,-217.15 443.93,-223.53"/>
</g>
<!-- Node31&#45;&gt;Node33 -->
<g id="edge40" class="edge">
<title>Node31&#45;&gt;Node33</title>
<path fill="none" stroke="midnightblue" d="M484.8,-215.57C490.82,-206.27 497.97,-195.25 502.83,-187.75"/>
<polygon fill="midnightblue" stroke="midnightblue" points="481.78,-213.79 479.28,-224.08 487.66,-217.6 481.78,-213.79"/>
</g>
<!-- Node36 -->
<g id="node36" class="node">
<title>Node36</title>
<g id="a_node36"><a xlink:href="../../d6/d3a/DotBarDisplayLEDs_8hpp.html" target="_top" xlink:title=" ">
<polygon fill="white" stroke="black" points="1730.5,-168.5 1730.5,-187.5 1862.5,-187.5 1862.5,-168.5 1730.5,-168.5"/>
<text text-anchor="middle" x="1796.5" y="-175.5" font-family="Helvetica,sans-Serif" font-size="10.00">DotBarDisplayLEDs.hpp</text>
</a>
</g>
</g>
<!-- Node35&#45;&gt;Node36 -->
<g id="edge45" class="edge">
<title>Node35&#45;&gt;Node36</title>
<path fill="none" stroke="midnightblue" d="M1476.76,-223.92C1537.12,-213.43 1656.35,-197.37 1731.22,-187.51"/>
<polygon fill="midnightblue" stroke="midnightblue" points="1476.12,-220.48 1466.89,-225.68 1477.35,-227.37 1476.12,-220.48"/>
</g>
<!-- Node37&#45;&gt;Node7 -->
<g id="edge47" class="edge">
<title>Node37&#45;&gt;Node7</title>
<path fill="none" stroke="midnightblue" d="M1135.07,-214.39C1133.69,-199.69 1129.36,-179.76 1116.5,-168 1102.98,-155.63 993.37,-138.02 931.55,-128.94"/>
<polygon fill="midnightblue" stroke="midnightblue" points="1131.57,-214.6 1135.63,-224.39 1138.56,-214.21 1131.57,-214.6"/>
</g>
<!-- Node38 -->
<g id="node38" class="node">
<title>Node38</title>
<g id="a_node38"><a xlink:href="../../d5/d0c/MAX7219SevenSegmentDisplay_8hpp.html" target="_top" xlink:title=" ">
<polygon fill="white" stroke="black" points="1361,-168.5 1361,-187.5 1554,-187.5 1554,-168.5 1361,-168.5"/>
<text text-anchor="middle" x="1457.5" y="-175.5" font-family="Helvetica,sans-Serif" font-size="10.00">MAX7219SevenSegmentDisplay.hpp</text>
</a>
</g>
</g>
<!-- Node37&#45;&gt;Node38 -->
<g id="edge48" class="edge">
<title>Node37&#45;&gt;Node38</title>
<path fill="none" stroke="midnightblue" d="M1196.75,-222.73C1257.6,-212.52 1349.82,-197.06 1406.72,-187.52"/>
<polygon fill="midnightblue" stroke="midnightblue" points="1195.81,-219.34 1186.52,-224.44 1196.96,-226.24 1195.81,-219.34"/>
</g>
<!-- Node41&#45;&gt;Node39 -->
<g id="edge60" class="edge">
<title>Node41&#45;&gt;Node39</title>
<path fill="none" stroke="midnightblue" d="M1713.57,-269.8C1714.06,-260.91 1714.62,-250.78 1715.01,-243.75"/>
<polygon fill="midnightblue" stroke="midnightblue" points="1710.06,-269.9 1713,-280.08 1717.04,-270.29 1710.06,-269.9"/>
</g>
<!-- Node43&#45;&gt;Node16 -->
<g id="edge63" class="edge">
<title>Node43&#45;&gt;Node16</title>
<path fill="none" stroke="midnightblue" d="M228.2,-386.62C213.58,-376.76 194.67,-363.99 182.32,-355.65"/>
<polygon fill="midnightblue" stroke="midnightblue" points="226.4,-389.63 236.65,-392.32 230.32,-383.83 226.4,-389.63"/>
</g>
<!-- Node43&#45;&gt;Node40 -->
<g id="edge64" class="edge">
<title>Node43&#45;&gt;Node40</title>
<path fill="none" stroke="midnightblue" d="M253.7,-382.1C255.69,-373.14 257.98,-362.86 259.56,-355.75"/>
<polygon fill="midnightblue" stroke="midnightblue" points="250.23,-381.56 251.48,-392.08 257.07,-383.08 250.23,-381.56"/>
</g>
</g>
</svg>
