<?xml version="1.0" encoding="UTF-8" standalone="no"?>
<!DOCTYPE svg PUBLIC "-//W3C//DTD SVG 1.1//EN"
 "http://www.w3.org/Graphics/SVG/1.1/DTD/svg11.dtd">
<!-- Generated by graphviz version 2.38.0 (20140413.2041)
 -->
<!-- Title: ADCConfig.hpp Pages: 1 -->
<svg width="1574pt" height="644pt"
 viewBox="0.00 0.00 1574.00 644.00" xmlns="http://www.w3.org/2000/svg" xmlns:xlink="http://www.w3.org/1999/xlink">
<g id="graph0" class="graph" transform="scale(1 1) rotate(0) translate(4 640)">
<title>ADCConfig.hpp</title>
<polygon fill="white" stroke="none" points="-4,4 -4,-640 1570,-640 1570,4 -4,4"/>
<!-- Node1 -->
<g id="node1" class="node"><title>Node1</title>
<g id="a_node1"><a xlink:title="This file contains the platform&#45;specific ADC resolutions. By default, the library automatically selec...">
<polygon fill="#bfbfbf" stroke="black" points="556,-616.5 556,-635.5 642,-635.5 642,-616.5 556,-616.5"/>
<text text-anchor="middle" x="599" y="-623.5" font-family="Helvetica,sans-Serif" font-size="10.00">ADCConfig.hpp</text>
</a>
</g>
</g>
<!-- Node2 -->
<g id="node2" class="node"><title>Node2</title>
<g id="a_node2"><a xlink:href="../../db/d02/Settings_8hpp.html" target="_top" xlink:title="All user settings and debugging options can be changed here.">
<polygon fill="white" stroke="black" points="563.5,-560.5 563.5,-579.5 634.5,-579.5 634.5,-560.5 563.5,-560.5"/>
<text text-anchor="middle" x="599" y="-567.5" font-family="Helvetica,sans-Serif" font-size="10.00">Settings.hpp</text>
</a>
</g>
</g>
<!-- Node1&#45;&gt;Node2 -->
<g id="edge1" class="edge"><title>Node1&#45;&gt;Node2</title>
<path fill="none" stroke="midnightblue" d="M599,-605.805C599,-596.91 599,-586.78 599,-579.751"/>
<polygon fill="midnightblue" stroke="midnightblue" points="595.5,-606.083 599,-616.083 602.5,-606.083 595.5,-606.083"/>
</g>
<!-- Node3 -->
<g id="node3" class="node"><title>Node3</title>
<g id="a_node3"><a xlink:href="../../d2/dd5/SettingsWrapper_8hpp.html" target="_top" xlink:title=" ">
<polygon fill="white" stroke="black" points="545,-504.5 545,-523.5 653,-523.5 653,-504.5 545,-504.5"/>
<text text-anchor="middle" x="599" y="-511.5" font-family="Helvetica,sans-Serif" font-size="10.00">SettingsWrapper.hpp</text>
</a>
</g>
</g>
<!-- Node2&#45;&gt;Node3 -->
<g id="edge2" class="edge"><title>Node2&#45;&gt;Node3</title>
<path fill="none" stroke="midnightblue" d="M599,-549.805C599,-540.91 599,-530.78 599,-523.751"/>
<polygon fill="midnightblue" stroke="midnightblue" points="595.5,-550.083 599,-560.083 602.5,-550.083 595.5,-550.083"/>
</g>
<!-- Node4 -->
<g id="node4" class="node"><title>Node4</title>
<g id="a_node4"><a xlink:href="../../d4/d93/Updatable_8hpp.html" target="_top" xlink:title=" ">
<polygon fill="white" stroke="black" points="525,-336.5 525,-355.5 605,-355.5 605,-336.5 525,-336.5"/>
<text text-anchor="middle" x="565" y="-343.5" font-family="Helvetica,sans-Serif" font-size="10.00">Updatable.hpp</text>
</a>
</g>
</g>
<!-- Node3&#45;&gt;Node4 -->
<g id="edge3" class="edge"><title>Node3&#45;&gt;Node4</title>
<path fill="none" stroke="midnightblue" d="M595.094,-493.93C587.719,-457.92 572.011,-381.231 566.755,-355.568"/>
<polygon fill="midnightblue" stroke="midnightblue" points="591.737,-494.981 597.172,-504.075 598.594,-493.576 591.737,-494.981"/>
</g>
<!-- Node5 -->
<g id="node5" class="node"><title>Node5</title>
<g id="a_node5"><a xlink:href="../../df/dee/Debug_8hpp.html" target="_top" xlink:title=" ">
<polygon fill="white" stroke="black" points="601,-448.5 601,-467.5 665,-467.5 665,-448.5 601,-448.5"/>
<text text-anchor="middle" x="633" y="-455.5" font-family="Helvetica,sans-Serif" font-size="10.00">Debug.hpp</text>
</a>
</g>
</g>
<!-- Node3&#45;&gt;Node5 -->
<g id="edge4" class="edge"><title>Node3&#45;&gt;Node5</title>
<path fill="none" stroke="midnightblue" d="M603.938,-494.983C608.983,-485.817 616.16,-475.092 622.359,-467.751"/>
<polygon fill="midnightblue" stroke="midnightblue" points="600.734,-493.566 599.448,-504.083 607.011,-496.664 600.734,-493.566"/>
</g>
<!-- Node9 -->
<g id="node9" class="node"><title>Node9</title>
<g id="a_node9"><a xlink:href="../../d4/db3/Button_8hpp.html" target="_top" xlink:title=" ">
<polygon fill="white" stroke="black" points="104,-112.5 104,-131.5 168,-131.5 168,-112.5 104,-112.5"/>
<text text-anchor="middle" x="136" y="-119.5" font-family="Helvetica,sans-Serif" font-size="10.00">Button.hpp</text>
</a>
</g>
</g>
<!-- Node3&#45;&gt;Node9 -->
<g id="edge72" class="edge"><title>Node3&#45;&gt;Node9</title>
<path fill="none" stroke="midnightblue" d="M534.538,-507.872C425.169,-497.378 215,-468.669 215,-403 215,-403 215,-403 215,-233 215,-187.857 170.562,-148.554 148.344,-131.723"/>
<polygon fill="midnightblue" stroke="midnightblue" points="534.514,-511.385 544.797,-508.831 535.166,-504.415 534.514,-511.385"/>
</g>
<!-- Node25 -->
<g id="node25" class="node"><title>Node25</title>
<g id="a_node25"><a xlink:href="../../d8/df3/FilteredAnalog_8hpp.html" target="_top" xlink:title=" ">
<polygon fill="white" stroke="black" points="328,-112.5 328,-131.5 426,-131.5 426,-112.5 328,-112.5"/>
<text text-anchor="middle" x="377" y="-119.5" font-family="Helvetica,sans-Serif" font-size="10.00">FilteredAnalog.hpp</text>
</a>
</g>
</g>
<!-- Node3&#45;&gt;Node25 -->
<g id="edge76" class="edge"><title>Node3&#45;&gt;Node25</title>
<path fill="none" stroke="midnightblue" d="M534.611,-513.233C455.602,-509.741 332,-490.323 332,-403 332,-403 332,-403 332,-233 332,-192.558 358.378,-149.563 370.743,-131.63"/>
<polygon fill="midnightblue" stroke="midnightblue" points="534.847,-516.744 544.969,-513.612 535.103,-509.749 534.847,-516.744"/>
</g>
<!-- Node47 -->
<g id="node47" class="node"><title>Node47</title>
<g id="a_node47"><a xlink:href="../../d1/d1f/ShiftRegisterOutRGB_8hpp.html" target="_top" xlink:title=" ">
<polygon fill="white" stroke="black" points="1343,-448.5 1343,-467.5 1473,-467.5 1473,-448.5 1343,-448.5"/>
<text text-anchor="middle" x="1408" y="-455.5" font-family="Helvetica,sans-Serif" font-size="10.00">ShiftRegisterOutRGB.hpp</text>
</a>
</g>
</g>
<!-- Node3&#45;&gt;Node47 -->
<g id="edge73" class="edge"><title>Node3&#45;&gt;Node47</title>
<path fill="none" stroke="midnightblue" d="M663.063,-508.724C814.008,-498.648 1190.69,-473.505 1342.78,-463.353"/>
<polygon fill="midnightblue" stroke="midnightblue" points="662.766,-505.236 653.022,-509.394 663.233,-512.22 662.766,-505.236"/>
</g>
<!-- Node5&#45;&gt;Node3 -->
<g id="edge71" class="edge"><title>Node5&#45;&gt;Node3</title>
<path fill="none" stroke="midnightblue" d="M628.175,-476.811C623.163,-485.953 615.994,-496.691 609.781,-504.083"/>
<polygon fill="midnightblue" stroke="midnightblue" points="631.358,-478.27 632.621,-467.751 625.074,-475.187 631.358,-478.27"/>
</g>
<!-- Node6 -->
<g id="node6" class="node"><title>Node6</title>
<g id="a_node6"><a xlink:href="../../de/dd1/LinkedList_8hpp.html" target="_top" xlink:title=" ">
<polygon fill="white" stroke="black" points="593,-392.5 593,-411.5 673,-411.5 673,-392.5 593,-392.5"/>
<text text-anchor="middle" x="633" y="-399.5" font-family="Helvetica,sans-Serif" font-size="10.00">LinkedList.hpp</text>
</a>
</g>
</g>
<!-- Node5&#45;&gt;Node6 -->
<g id="edge5" class="edge"><title>Node5&#45;&gt;Node6</title>
<path fill="none" stroke="midnightblue" d="M633,-437.805C633,-428.91 633,-418.78 633,-411.751"/>
<polygon fill="midnightblue" stroke="midnightblue" points="629.5,-438.083 633,-448.083 636.5,-438.083 629.5,-438.083"/>
</g>
<!-- Node33 -->
<g id="node33" class="node"><title>Node33</title>
<g id="a_node33"><a xlink:href="../../df/d66/Debug_8cpp.html" target="_top" xlink:title=" ">
<polygon fill="white" stroke="black" points="691,-392.5 691,-411.5 755,-411.5 755,-392.5 691,-392.5"/>
<text text-anchor="middle" x="723" y="-399.5" font-family="Helvetica,sans-Serif" font-size="10.00">Debug.cpp</text>
</a>
</g>
</g>
<!-- Node5&#45;&gt;Node33 -->
<g id="edge43" class="edge"><title>Node5&#45;&gt;Node33</title>
<path fill="none" stroke="midnightblue" d="M656.038,-443.177C672.599,-433.241 694.418,-420.149 708.576,-411.655"/>
<polygon fill="midnightblue" stroke="midnightblue" points="654.234,-440.178 647.46,-448.324 657.836,-446.18 654.234,-440.178"/>
</g>
<!-- Node34 -->
<g id="node34" class="node"><title>Node34</title>
<g id="a_node34"><a xlink:href="../../d1/d93/Error_8hpp.html" target="_top" xlink:title=" ">
<polygon fill="white" stroke="black" points="953,-392.5 953,-411.5 1009,-411.5 1009,-392.5 953,-392.5"/>
<text text-anchor="middle" x="981" y="-399.5" font-family="Helvetica,sans-Serif" font-size="10.00">Error.hpp</text>
</a>
</g>
</g>
<!-- Node5&#45;&gt;Node34 -->
<g id="edge44" class="edge"><title>Node5&#45;&gt;Node34</title>
<path fill="none" stroke="midnightblue" d="M675.192,-450.453C747.194,-439.28 891.912,-416.824 952.89,-407.362"/>
<polygon fill="midnightblue" stroke="midnightblue" points="674.46,-447.025 665.115,-452.017 675.534,-453.942 674.46,-447.025"/>
</g>
<!-- Node6&#45;&gt;Node4 -->
<g id="edge6" class="edge"><title>Node6&#45;&gt;Node4</title>
<path fill="none" stroke="midnightblue" d="M614.238,-386.101C602,-376.382 586.441,-364.027 576.124,-355.834"/>
<polygon fill="midnightblue" stroke="midnightblue" points="612.067,-388.846 622.075,-392.324 616.42,-383.364 612.067,-388.846"/>
</g>
<!-- Node7 -->
<g id="node7" class="node"><title>Node7</title>
<g id="a_node7"><a xlink:href="../../d4/d57/ExtendedIOElement_8hpp.html" target="_top" xlink:title=" ">
<polygon fill="white" stroke="black" points="789.5,-224.5 789.5,-243.5 912.5,-243.5 912.5,-224.5 789.5,-224.5"/>
<text text-anchor="middle" x="851" y="-231.5" font-family="Helvetica,sans-Serif" font-size="10.00">ExtendedIOElement.hpp</text>
</a>
</g>
</g>
<!-- Node6&#45;&gt;Node7 -->
<g id="edge7" class="edge"><title>Node6&#45;&gt;Node7</title>
<path fill="none" stroke="midnightblue" d="M669.29,-389.208C725.161,-370.249 828.013,-331.887 849,-300 860.297,-282.836 856.542,-257.224 853.427,-243.851"/>
<polygon fill="midnightblue" stroke="midnightblue" points="668.128,-385.906 659.762,-392.407 670.356,-392.542 668.128,-385.906"/>
</g>
<!-- Node8 -->
<g id="node8" class="node"><title>Node8</title>
<g id="a_node8"><a xlink:href="../../dd/ddf/ExtendedInputOutput_8hpp.html" target="_top" xlink:title=" ">
<polygon fill="white" stroke="black" points="575,-168.5 575,-187.5 703,-187.5 703,-168.5 575,-168.5"/>
<text text-anchor="middle" x="639" y="-175.5" font-family="Helvetica,sans-Serif" font-size="10.00">ExtendedInputOutput.hpp</text>
</a>
</g>
</g>
<!-- Node7&#45;&gt;Node8 -->
<g id="edge8" class="edge"><title>Node7&#45;&gt;Node8</title>
<path fill="none" stroke="midnightblue" d="M807.654,-221.959C767.613,-211.76 708.967,-196.822 672.435,-187.516"/>
<polygon fill="midnightblue" stroke="midnightblue" points="806.853,-225.367 817.408,-224.444 808.581,-218.583 806.853,-225.367"/>
</g>
<!-- Node18 -->
<g id="node18" class="node"><title>Node18</title>
<g id="a_node18"><a xlink:href="../../d6/d3c/ExtendedInputOutput_8cpp.html" target="_top" xlink:title=" ">
<polygon fill="white" stroke="black" points="1026,-112.5 1026,-131.5 1154,-131.5 1154,-112.5 1026,-112.5"/>
<text text-anchor="middle" x="1090" y="-119.5" font-family="Helvetica,sans-Serif" font-size="10.00">ExtendedInputOutput.cpp</text>
</a>
</g>
</g>
<!-- Node7&#45;&gt;Node18 -->
<g id="edge41" class="edge"><title>Node7&#45;&gt;Node18</title>
<path fill="none" stroke="midnightblue" d="M875.989,-219.771C911.583,-200.932 972.755,-168.568 974,-168 1005.05,-153.831 1041.96,-140.01 1065.67,-131.506"/>
<polygon fill="midnightblue" stroke="midnightblue" points="874.322,-216.694 867.121,-224.465 877.597,-222.881 874.322,-216.694"/>
</g>
<!-- Node31 -->
<g id="node31" class="node"><title>Node31</title>
<g id="a_node31"><a xlink:href="../../d2/d05/StaticSizeExtendedIOElement_8hpp.html" target="_top" xlink:title=" ">
<polygon fill="white" stroke="black" points="759,-168.5 759,-187.5 927,-187.5 927,-168.5 759,-168.5"/>
<text text-anchor="middle" x="843" y="-175.5" font-family="Helvetica,sans-Serif" font-size="10.00">StaticSizeExtendedIOElement.hpp</text>
</a>
</g>
</g>
<!-- Node7&#45;&gt;Node31 -->
<g id="edge37" class="edge"><title>Node7&#45;&gt;Node31</title>
<path fill="none" stroke="midnightblue" d="M848.2,-214.101C846.872,-205.136 845.349,-194.858 844.296,-187.751"/>
<polygon fill="midnightblue" stroke="midnightblue" points="844.751,-214.704 849.679,-224.083 851.676,-213.678 844.751,-214.704"/>
</g>
<!-- Node32 -->
<g id="node32" class="node"><title>Node32</title>
<g id="a_node32"><a xlink:href="../../da/d1f/ExtendedIOElement_8cpp.html" target="_top" xlink:title=" ">
<polygon fill="white" stroke="black" points="983.5,-168.5 983.5,-187.5 1106.5,-187.5 1106.5,-168.5 983.5,-168.5"/>
<text text-anchor="middle" x="1045" y="-175.5" font-family="Helvetica,sans-Serif" font-size="10.00">ExtendedIOElement.cpp</text>
</a>
</g>
</g>
<!-- Node7&#45;&gt;Node32 -->
<g id="edge42" class="edge"><title>Node7&#45;&gt;Node32</title>
<path fill="none" stroke="midnightblue" d="M891.601,-221.699C928.215,-211.507 981.257,-196.743 1014.4,-187.516"/>
<polygon fill="midnightblue" stroke="midnightblue" points="890.435,-218.39 881.74,-224.444 892.312,-225.134 890.435,-218.39"/>
</g>
<!-- Node8&#45;&gt;Node9 -->
<g id="edge9" class="edge"><title>Node8&#45;&gt;Node9</title>
<path fill="none" stroke="midnightblue" d="M564.795,-172.502C473.238,-166.326 312.996,-153.472 177,-132 174.121,-131.545 171.14,-131.013 168.16,-130.439"/>
<polygon fill="midnightblue" stroke="midnightblue" points="564.586,-175.996 574.797,-173.169 565.052,-169.012 564.586,-175.996"/>
</g>
<!-- Node15 -->
<g id="node15" class="node"><title>Node15</title>
<g id="a_node15"><a xlink:href="../../d5/d41/ButtonMatrix_8ipp.html" target="_top" xlink:title=" ">
<polygon fill="white" stroke="black" points="444,-112.5 444,-131.5 532,-131.5 532,-112.5 444,-112.5"/>
<text text-anchor="middle" x="488" y="-119.5" font-family="Helvetica,sans-Serif" font-size="10.00">ButtonMatrix.ipp</text>
</a>
</g>
</g>
<!-- Node8&#45;&gt;Node15 -->
<g id="edge15" class="edge"><title>Node8&#45;&gt;Node15</title>
<path fill="none" stroke="midnightblue" d="M605.554,-165.039C577.142,-154.879 537.063,-140.546 511.814,-131.516"/>
<polygon fill="midnightblue" stroke="midnightblue" points="604.479,-168.372 615.074,-168.444 606.836,-161.781 604.479,-168.372"/>
</g>
<!-- Node17 -->
<g id="node17" class="node"><title>Node17</title>
<g id="a_node17"><a xlink:href="../../d7/def/AnalogMultiplex_8hpp.html" target="_top" xlink:title=" ">
<polygon fill="white" stroke="black" points="866,-112.5 866,-131.5 970,-131.5 970,-112.5 866,-112.5"/>
<text text-anchor="middle" x="918" y="-119.5" font-family="Helvetica,sans-Serif" font-size="10.00">AnalogMultiplex.hpp</text>
</a>
</g>
</g>
<!-- Node8&#45;&gt;Node17 -->
<g id="edge18" class="edge"><title>Node8&#45;&gt;Node17</title>
<path fill="none" stroke="midnightblue" d="M693.058,-166.537C745.787,-156.332 825.004,-140.999 873.998,-131.516"/>
<polygon fill="midnightblue" stroke="midnightblue" points="692.361,-163.107 683.208,-168.444 693.691,-169.979 692.361,-163.107"/>
</g>
<!-- Node8&#45;&gt;Node18 -->
<g id="edge19" class="edge"><title>Node8&#45;&gt;Node18</title>
<path fill="none" stroke="midnightblue" d="M713.21,-168.115C800.274,-157.69 943.189,-140.578 1025.72,-130.697"/>
<polygon fill="midnightblue" stroke="midnightblue" points="712.651,-164.656 703.138,-169.32 713.484,-171.607 712.651,-164.656"/>
</g>
<!-- Node19 -->
<g id="node19" class="node"><title>Node19</title>
<g id="a_node19"><a xlink:href="../../d5/d47/ShiftRegisterOutBase_8ipp.html" target="_top" xlink:title=" ">
<polygon fill="white" stroke="black" points="1186,-56.5 1186,-75.5 1314,-75.5 1314,-56.5 1186,-56.5"/>
<text text-anchor="middle" x="1250" y="-63.5" font-family="Helvetica,sans-Serif" font-size="10.00">ShiftRegisterOutBase.ipp</text>
</a>
</g>
</g>
<!-- Node8&#45;&gt;Node19 -->
<g id="edge20" class="edge"><title>Node8&#45;&gt;Node19</title>
<path fill="none" stroke="midnightblue" d="M691.071,-166.249C726.275,-158.341 773.54,-146.473 814,-132 833.846,-124.901 836.712,-117.715 857,-112 992.633,-73.7939 1032.01,-92.0759 1172,-76 1176.47,-75.4868 1181.08,-74.9564 1185.73,-74.4216"/>
<polygon fill="midnightblue" stroke="midnightblue" points="690.025,-162.896 681.017,-168.473 691.537,-169.73 690.025,-162.896"/>
</g>
<!-- Node22 -->
<g id="node22" class="node"><title>Node22</title>
<g id="a_node22"><a xlink:href="../../de/d95/ShiftRegisterOut_8ipp.html" target="_top" xlink:title=" ">
<polygon fill="white" stroke="black" points="1023.5,-0.5 1023.5,-19.5 1128.5,-19.5 1128.5,-0.5 1023.5,-0.5"/>
<text text-anchor="middle" x="1076" y="-7.5" font-family="Helvetica,sans-Serif" font-size="10.00">ShiftRegisterOut.ipp</text>
</a>
</g>
</g>
<!-- Node8&#45;&gt;Node22 -->
<g id="edge29" class="edge"><title>Node8&#45;&gt;Node22</title>
<path fill="none" stroke="midnightblue" d="M610.712,-163.379C598.606,-155.933 585.728,-145.457 579,-132 563.894,-101.788 556.218,-80.9381 579,-56 608.546,-23.6579 901.615,-14.3316 1023.38,-11.841"/>
<polygon fill="midnightblue" stroke="midnightblue" points="609.279,-166.59 619.704,-168.48 612.733,-160.502 609.279,-166.59"/>
</g>
<!-- Node24 -->
<g id="node24" class="node"><title>Node24</title>
<g id="a_node24"><a xlink:href="../../da/d45/SPIShiftRegisterOut_8ipp.html" target="_top" xlink:title=" ">
<polygon fill="white" stroke="black" points="1334,-0.5 1334,-19.5 1456,-19.5 1456,-0.5 1334,-0.5"/>
<text text-anchor="middle" x="1395" y="-7.5" font-family="Helvetica,sans-Serif" font-size="10.00">SPIShiftRegisterOut.ipp</text>
</a>
</g>
</g>
<!-- Node8&#45;&gt;Node24 -->
<g id="edge30" class="edge"><title>Node8&#45;&gt;Node24</title>
<path fill="none" stroke="midnightblue" d="M683.395,-165.867C711.914,-158.006 749.399,-146.335 781,-132 796.618,-124.915 797.762,-117.518 814,-112 951.599,-65.2388 1000.05,-118.586 1139,-76 1157.25,-70.4074 1159.03,-62.437 1177,-56 1228.3,-37.622 1289.22,-25.8373 1333.6,-18.9582"/>
<polygon fill="midnightblue" stroke="midnightblue" points="682.445,-162.498 673.706,-168.486 684.272,-169.255 682.445,-162.498"/>
</g>
<!-- Node8&#45;&gt;Node25 -->
<g id="edge31" class="edge"><title>Node8&#45;&gt;Node25</title>
<path fill="none" stroke="midnightblue" d="M587.617,-166.41C538.102,-156.204 464.138,-140.96 418.32,-131.516"/>
<polygon fill="midnightblue" stroke="midnightblue" points="586.985,-169.853 597.485,-168.444 588.398,-162.997 586.985,-169.853"/>
</g>
<!-- Node26 -->
<g id="node26" class="node"><title>Node26</title>
<g id="a_node26"><a xlink:href="../../d9/d4f/LEDs_8hpp.html" target="_top" xlink:title=" ">
<polygon fill="white" stroke="black" points="588,-112.5 588,-131.5 648,-131.5 648,-112.5 588,-112.5"/>
<text text-anchor="middle" x="618" y="-119.5" font-family="Helvetica,sans-Serif" font-size="10.00">LEDs.hpp</text>
</a>
</g>
</g>
<!-- Node8&#45;&gt;Node26 -->
<g id="edge32" class="edge"><title>Node8&#45;&gt;Node26</title>
<path fill="none" stroke="midnightblue" d="M631.879,-158.69C628.34,-149.589 624.228,-139.014 621.403,-131.751"/>
<polygon fill="midnightblue" stroke="midnightblue" points="628.646,-160.032 635.532,-168.083 635.17,-157.494 628.646,-160.032"/>
</g>
<!-- Node28 -->
<g id="node28" class="node"><title>Node28</title>
<g id="a_node28"><a xlink:href="../../d7/d13/MAX7219__Base_8hpp.html" target="_top" xlink:title=" ">
<polygon fill="white" stroke="black" points="666,-112.5 666,-131.5 772,-131.5 772,-112.5 666,-112.5"/>
<text text-anchor="middle" x="719" y="-119.5" font-family="Helvetica,sans-Serif" font-size="10.00">MAX7219_Base.hpp</text>
</a>
</g>
</g>
<!-- Node8&#45;&gt;Node28 -->
<g id="edge34" class="edge"><title>Node8&#45;&gt;Node28</title>
<path fill="none" stroke="midnightblue" d="M660.301,-162.622C674.915,-152.757 693.827,-139.992 706.179,-131.655"/>
<polygon fill="midnightblue" stroke="midnightblue" points="658.184,-159.828 651.853,-168.324 662.1,-165.63 658.184,-159.828"/>
</g>
<!-- Node10 -->
<g id="node10" class="node"><title>Node10</title>
<g id="a_node10"><a xlink:href="../../de/dd1/Button_8cpp.html" target="_top" xlink:title=" ">
<polygon fill="white" stroke="black" points="0,-56.5 0,-75.5 64,-75.5 64,-56.5 0,-56.5"/>
<text text-anchor="middle" x="32" y="-63.5" font-family="Helvetica,sans-Serif" font-size="10.00">Button.cpp</text>
</a>
</g>
</g>
<!-- Node9&#45;&gt;Node10 -->
<g id="edge10" class="edge"><title>Node9&#45;&gt;Node10</title>
<path fill="none" stroke="midnightblue" d="M110.172,-107.59C90.9433,-97.6052 65.2553,-84.2672 48.6679,-75.6545"/>
<polygon fill="midnightblue" stroke="midnightblue" points="108.803,-110.822 119.291,-112.324 112.029,-104.61 108.803,-110.822"/>
</g>
<!-- Node11 -->
<g id="node11" class="node"><title>Node11</title>
<g id="a_node11"><a xlink:href="../../d5/d04/IncrementButton_8hpp.html" target="_top" xlink:title=" ">
<polygon fill="white" stroke="black" points="82.5,-56.5 82.5,-75.5 189.5,-75.5 189.5,-56.5 82.5,-56.5"/>
<text text-anchor="middle" x="136" y="-63.5" font-family="Helvetica,sans-Serif" font-size="10.00">IncrementButton.hpp</text>
</a>
</g>
</g>
<!-- Node9&#45;&gt;Node11 -->
<g id="edge11" class="edge"><title>Node9&#45;&gt;Node11</title>
<path fill="none" stroke="midnightblue" d="M136,-101.805C136,-92.9102 136,-82.7798 136,-75.7511"/>
<polygon fill="midnightblue" stroke="midnightblue" points="132.5,-102.083 136,-112.083 139.5,-102.083 132.5,-102.083"/>
</g>
<!-- Node13 -->
<g id="node13" class="node"><title>Node13</title>
<g id="a_node13"><a xlink:href="../../df/df5/IncrementDecrementButtons_8hpp.html" target="_top" xlink:title=" ">
<polygon fill="white" stroke="black" points="207.5,-56.5 207.5,-75.5 368.5,-75.5 368.5,-56.5 207.5,-56.5"/>
<text text-anchor="middle" x="288" y="-63.5" font-family="Helvetica,sans-Serif" font-size="10.00">IncrementDecrementButtons.hpp</text>
</a>
</g>
</g>
<!-- Node9&#45;&gt;Node13 -->
<g id="edge13" class="edge"><title>Node9&#45;&gt;Node13</title>
<path fill="none" stroke="midnightblue" d="M169.668,-109.039C198.268,-98.8786 238.612,-84.5457 264.028,-75.5164"/>
<polygon fill="midnightblue" stroke="midnightblue" points="168.336,-105.798 160.085,-112.444 170.68,-112.394 168.336,-105.798"/>
</g>
<!-- Node12 -->
<g id="node12" class="node"><title>Node12</title>
<g id="a_node12"><a xlink:href="../../db/d9d/IncrementButton_8cpp.html" target="_top" xlink:title=" ">
<polygon fill="white" stroke="black" points="82.5,-0.5 82.5,-19.5 189.5,-19.5 189.5,-0.5 82.5,-0.5"/>
<text text-anchor="middle" x="136" y="-7.5" font-family="Helvetica,sans-Serif" font-size="10.00">IncrementButton.cpp</text>
</a>
</g>
</g>
<!-- Node11&#45;&gt;Node12 -->
<g id="edge12" class="edge"><title>Node11&#45;&gt;Node12</title>
<path fill="none" stroke="midnightblue" d="M136,-45.8045C136,-36.9102 136,-26.7798 136,-19.7511"/>
<polygon fill="midnightblue" stroke="midnightblue" points="132.5,-46.083 136,-56.083 139.5,-46.083 132.5,-46.083"/>
</g>
<!-- Node14 -->
<g id="node14" class="node"><title>Node14</title>
<g id="a_node14"><a xlink:href="../../da/d66/IncrementDecrementButtons_8cpp.html" target="_top" xlink:title=" ">
<polygon fill="white" stroke="black" points="207.5,-0.5 207.5,-19.5 368.5,-19.5 368.5,-0.5 207.5,-0.5"/>
<text text-anchor="middle" x="288" y="-7.5" font-family="Helvetica,sans-Serif" font-size="10.00">IncrementDecrementButtons.cpp</text>
</a>
</g>
</g>
<!-- Node13&#45;&gt;Node14 -->
<g id="edge14" class="edge"><title>Node13&#45;&gt;Node14</title>
<path fill="none" stroke="midnightblue" d="M288,-45.8045C288,-36.9102 288,-26.7798 288,-19.7511"/>
<polygon fill="midnightblue" stroke="midnightblue" points="284.5,-46.083 288,-56.083 291.5,-46.083 284.5,-46.083"/>
</g>
<!-- Node16 -->
<g id="node16" class="node"><title>Node16</title>
<g id="a_node16"><a xlink:href="../../d9/d4b/ButtonMatrix_8hpp.html" target="_top" xlink:title=" ">
<polygon fill="white" stroke="black" points="440.5,-56.5 440.5,-75.5 531.5,-75.5 531.5,-56.5 440.5,-56.5"/>
<text text-anchor="middle" x="486" y="-63.5" font-family="Helvetica,sans-Serif" font-size="10.00">ButtonMatrix.hpp</text>
</a>
</g>
</g>
<!-- Node15&#45;&gt;Node16 -->
<g id="edge16" class="edge"><title>Node15&#45;&gt;Node16</title>
<path fill="none" stroke="midnightblue" d="M480.828,-102.101C479.864,-93.1357 479.93,-82.8579 481.193,-75.7511"/>
<polygon fill="midnightblue" stroke="midnightblue" points="477.396,-102.8 482.503,-112.083 484.299,-101.642 477.396,-102.8"/>
</g>
<!-- Node16&#45;&gt;Node15 -->
<g id="edge17" class="edge"><title>Node16&#45;&gt;Node15</title>
<path fill="none" stroke="midnightblue" d="M493.15,-85.6911C494.13,-94.6353 494.081,-104.927 492.836,-112.083"/>
<polygon fill="midnightblue" stroke="midnightblue" points="496.586,-85.0206 491.455,-75.7511 489.686,-86.1971 496.586,-85.0206"/>
</g>
<!-- Node20 -->
<g id="node20" class="node"><title>Node20</title>
<g id="a_node20"><a xlink:href="../../d8/d93/ShiftRegisterOutBase_8hpp.html" target="_top" xlink:title=" ">
<polygon fill="white" stroke="black" points="1210.5,-112.5 1210.5,-131.5 1341.5,-131.5 1341.5,-112.5 1210.5,-112.5"/>
<text text-anchor="middle" x="1276" y="-119.5" font-family="Helvetica,sans-Serif" font-size="10.00">ShiftRegisterOutBase.hpp</text>
</a>
</g>
</g>
<!-- Node19&#45;&gt;Node20 -->
<g id="edge21" class="edge"><title>Node19&#45;&gt;Node20</title>
<path fill="none" stroke="midnightblue" d="M1264.8,-84.5199C1270.01,-93.7244 1274.85,-104.613 1276.87,-112.083"/>
<polygon fill="midnightblue" stroke="midnightblue" points="1267.6,-82.3922 1259.34,-75.7511 1261.66,-86.0906 1267.6,-82.3922"/>
</g>
<!-- Node20&#45;&gt;Node19 -->
<g id="edge25" class="edge"><title>Node20&#45;&gt;Node19</title>
<path fill="none" stroke="midnightblue" d="M1261.25,-103.566C1255.98,-94.2747 1251.08,-83.2484 1249.08,-75.7511"/>
<polygon fill="midnightblue" stroke="midnightblue" points="1258.29,-105.437 1266.54,-112.083 1264.23,-101.742 1258.29,-105.437"/>
</g>
<!-- Node21 -->
<g id="node21" class="node"><title>Node21</title>
<g id="a_node21"><a xlink:href="../../d0/db4/ShiftRegisterOut_8hpp.html" target="_top" xlink:title=" ">
<polygon fill="white" stroke="black" points="1022,-56.5 1022,-75.5 1130,-75.5 1130,-56.5 1022,-56.5"/>
<text text-anchor="middle" x="1076" y="-63.5" font-family="Helvetica,sans-Serif" font-size="10.00">ShiftRegisterOut.hpp</text>
</a>
</g>
</g>
<!-- Node20&#45;&gt;Node21 -->
<g id="edge22" class="edge"><title>Node20&#45;&gt;Node21</title>
<path fill="none" stroke="midnightblue" d="M1234.63,-109.829C1196.86,-99.6333 1141.86,-84.7823 1107.54,-75.5164"/>
<polygon fill="midnightblue" stroke="midnightblue" points="1233.74,-113.216 1244.31,-112.444 1235.57,-106.458 1233.74,-113.216"/>
</g>
<!-- Node23 -->
<g id="node23" class="node"><title>Node23</title>
<g id="a_node23"><a xlink:href="../../d7/d88/SPIShiftRegisterOut_8hpp.html" target="_top" xlink:title=" ">
<polygon fill="white" stroke="black" points="1332.5,-56.5 1332.5,-75.5 1457.5,-75.5 1457.5,-56.5 1332.5,-56.5"/>
<text text-anchor="middle" x="1395" y="-63.5" font-family="Helvetica,sans-Serif" font-size="10.00">SPIShiftRegisterOut.hpp</text>
</a>
</g>
</g>
<!-- Node20&#45;&gt;Node23 -->
<g id="edge26" class="edge"><title>Node20&#45;&gt;Node23</title>
<path fill="none" stroke="midnightblue" d="M1304.14,-108.232C1326.4,-98.1312 1356.86,-84.3091 1376.23,-75.5164"/>
<polygon fill="midnightblue" stroke="midnightblue" points="1302.52,-105.124 1294.86,-112.444 1305.41,-111.498 1302.52,-105.124"/>
</g>
<!-- Node21&#45;&gt;Node22 -->
<g id="edge23" class="edge"><title>Node21&#45;&gt;Node22</title>
<path fill="none" stroke="midnightblue" d="M1069.53,-46.1005C1068.9,-37.1357 1069.34,-26.8579 1070.87,-19.7511"/>
<polygon fill="midnightblue" stroke="midnightblue" points="1066.07,-46.6216 1070.83,-56.083 1073.01,-45.7134 1066.07,-46.6216"/>
</g>
<!-- Node22&#45;&gt;Node21 -->
<g id="edge24" class="edge"><title>Node22&#45;&gt;Node21</title>
<path fill="none" stroke="midnightblue" d="M1082.46,-29.6911C1083.11,-38.6353 1082.68,-48.9272 1081.17,-56.083"/>
<polygon fill="midnightblue" stroke="midnightblue" points="1085.92,-29.2002 1081.13,-19.7511 1078.98,-30.1262 1085.92,-29.2002"/>
</g>
<!-- Node23&#45;&gt;Node24 -->
<g id="edge27" class="edge"><title>Node23&#45;&gt;Node24</title>
<path fill="none" stroke="midnightblue" d="M1388.53,-46.1005C1387.9,-37.1357 1388.34,-26.8579 1389.87,-19.7511"/>
<polygon fill="midnightblue" stroke="midnightblue" points="1385.07,-46.6216 1389.83,-56.083 1392.01,-45.7134 1385.07,-46.6216"/>
</g>
<!-- Node24&#45;&gt;Node23 -->
<g id="edge28" class="edge"><title>Node24&#45;&gt;Node23</title>
<path fill="none" stroke="midnightblue" d="M1401.46,-29.6911C1402.11,-38.6353 1401.68,-48.9272 1400.17,-56.083"/>
<polygon fill="midnightblue" stroke="midnightblue" points="1404.92,-29.2002 1400.13,-19.7511 1397.98,-30.1262 1404.92,-29.2002"/>
</g>
<!-- Node27 -->
<g id="node27" class="node"><title>Node27</title>
<g id="a_node27"><a xlink:href="../../d6/d3a/DotBarDisplayLEDs_8hpp.html" target="_top" xlink:title=" ">
<polygon fill="white" stroke="black" points="588,-56.5 588,-75.5 712,-75.5 712,-56.5 588,-56.5"/>
<text text-anchor="middle" x="650" y="-63.5" font-family="Helvetica,sans-Serif" font-size="10.00">DotBarDisplayLEDs.hpp</text>
</a>
</g>
</g>
<!-- Node26&#45;&gt;Node27 -->
<g id="edge33" class="edge"><title>Node26&#45;&gt;Node27</title>
<path fill="none" stroke="midnightblue" d="M628.504,-103.275C633.973,-94.0454 640.418,-83.1703 644.814,-75.7511"/>
<polygon fill="midnightblue" stroke="midnightblue" points="625.371,-101.696 623.284,-112.083 631.393,-105.264 625.371,-101.696"/>
</g>
<!-- Node29 -->
<g id="node29" class="node"><title>Node29</title>
<g id="a_node29"><a xlink:href="../../d2/d25/MAX7219_8hpp.html" target="_top" xlink:title=" ">
<polygon fill="white" stroke="black" points="926,-56.5 926,-75.5 1004,-75.5 1004,-56.5 926,-56.5"/>
<text text-anchor="middle" x="965" y="-63.5" font-family="Helvetica,sans-Serif" font-size="10.00">MAX7219.hpp</text>
</a>
</g>
</g>
<!-- Node28&#45;&gt;Node29 -->
<g id="edge35" class="edge"><title>Node28&#45;&gt;Node29</title>
<path fill="none" stroke="midnightblue" d="M767.829,-110.281C814.316,-100.077 883.363,-84.9203 926.203,-75.5164"/>
<polygon fill="midnightblue" stroke="midnightblue" points="766.996,-106.881 757.979,-112.444 768.497,-113.718 766.996,-106.881"/>
</g>
<!-- Node30 -->
<g id="node30" class="node"><title>Node30</title>
<g id="a_node30"><a xlink:href="../../d5/d0c/MAX7219SevenSegmentDisplay_8hpp.html" target="_top" xlink:title=" ">
<polygon fill="white" stroke="black" points="730,-56.5 730,-75.5 908,-75.5 908,-56.5 730,-56.5"/>
<text text-anchor="middle" x="819" y="-63.5" font-family="Helvetica,sans-Serif" font-size="10.00">MAX7219SevenSegmentDisplay.hpp</text>
</a>
</g>
</g>
<!-- Node28&#45;&gt;Node30 -->
<g id="edge36" class="edge"><title>Node28&#45;&gt;Node30</title>
<path fill="none" stroke="midnightblue" d="M744.088,-107.453C762.549,-97.4835 787.097,-84.2279 802.973,-75.6545"/>
<polygon fill="midnightblue" stroke="midnightblue" points="742.203,-104.493 735.067,-112.324 745.529,-110.652 742.203,-104.493"/>
</g>
<!-- Node31&#45;&gt;Node17 -->
<g id="edge38" class="edge"><title>Node31&#45;&gt;Node17</title>
<path fill="none" stroke="midnightblue" d="M863.305,-162.38C876.861,-152.62 894.242,-140.106 905.731,-131.834"/>
<polygon fill="midnightblue" stroke="midnightblue" points="861.12,-159.641 855.05,-168.324 865.21,-165.321 861.12,-159.641"/>
</g>
<!-- Node31&#45;&gt;Node20 -->
<g id="edge40" class="edge"><title>Node31&#45;&gt;Node20</title>
<path fill="none" stroke="midnightblue" d="M921.702,-167.185C1004.33,-156.881 1132.77,-140.863 1210.19,-131.207"/>
<polygon fill="midnightblue" stroke="midnightblue" points="921.1,-163.733 911.61,-168.444 921.966,-170.679 921.1,-163.733"/>
</g>
<!-- Node31&#45;&gt;Node29 -->
<g id="edge39" class="edge"><title>Node31&#45;&gt;Node29</title>
<path fill="none" stroke="midnightblue" d="M930.946,-165.302C949.704,-158.566 967.351,-148.125 979,-132 991.303,-114.97 979.037,-89.3015 970.917,-75.8848"/>
<polygon fill="midnightblue" stroke="midnightblue" points="929.799,-161.994 921.366,-168.408 931.958,-168.653 929.799,-161.994"/>
</g>
<!-- Node34&#45;&gt;Node4 -->
<g id="edge66" class="edge"><title>Node34&#45;&gt;Node4</title>
<path fill="none" stroke="midnightblue" d="M942.772,-397.072C875.935,-390.036 733.56,-374.293 614,-356 611.093,-355.555 608.094,-355.07 605.079,-354.562"/>
<polygon fill="midnightblue" stroke="midnightblue" points="942.526,-400.566 952.836,-398.126 943.255,-393.604 942.526,-400.566"/>
</g>
<!-- Node34&#45;&gt;Node18 -->
<g id="edge68" class="edge"><title>Node34&#45;&gt;Node18</title>
<path fill="none" stroke="midnightblue" d="M1019.08,-395.419C1046.23,-389.673 1082.02,-378.266 1106,-356 1129.18,-334.475 1135,-322.634 1135,-291 1135,-291 1135,-291 1135,-233 1135,-192.558 1108.62,-149.563 1096.26,-131.63"/>
<polygon fill="midnightblue" stroke="midnightblue" points="1018.29,-392.008 1009.14,-397.355 1019.63,-398.879 1018.29,-392.008"/>
</g>
<!-- Node34&#45;&gt;Node32 -->
<g id="edge69" class="edge"><title>Node34&#45;&gt;Node32</title>
<path fill="none" stroke="midnightblue" d="M987.809,-382.856C990.779,-374.695 994.211,-364.914 997,-356 1017.06,-291.884 1036.66,-213.217 1042.93,-187.541"/>
<polygon fill="midnightblue" stroke="midnightblue" points="984.451,-381.846 984.265,-392.439 991.017,-384.274 984.451,-381.846"/>
</g>
<!-- Node35 -->
<g id="node35" class="node"><title>Node35</title>
<g id="a_node35"><a xlink:href="../../de/d76/Array_8hpp.html" target="_top" xlink:title=" ">
<polygon fill="white" stroke="black" points="623.5,-336.5 623.5,-355.5 682.5,-355.5 682.5,-336.5 623.5,-336.5"/>
<text text-anchor="middle" x="653" y="-343.5" font-family="Helvetica,sans-Serif" font-size="10.00">Array.hpp</text>
</a>
</g>
</g>
<!-- Node34&#45;&gt;Node35 -->
<g id="edge45" class="edge"><title>Node34&#45;&gt;Node35</title>
<path fill="none" stroke="midnightblue" d="M942.748,-394.702C876.636,-383.818 742.364,-361.712 682.711,-351.891"/>
<polygon fill="midnightblue" stroke="midnightblue" points="942.315,-398.178 952.751,-396.349 943.452,-391.271 942.315,-398.178"/>
</g>
<!-- Node44 -->
<g id="node44" class="node"><title>Node44</title>
<g id="a_node44"><a xlink:href="../../d1/d40/BitArray_8hpp.html" target="_top" xlink:title=" ">
<polygon fill="white" stroke="black" points="1237.5,-168.5 1237.5,-187.5 1308.5,-187.5 1308.5,-168.5 1237.5,-168.5"/>
<text text-anchor="middle" x="1273" y="-175.5" font-family="Helvetica,sans-Serif" font-size="10.00">BitArray.hpp</text>
</a>
</g>
</g>
<!-- Node34&#45;&gt;Node44 -->
<g id="edge62" class="edge"><title>Node34&#45;&gt;Node44</title>
<path fill="none" stroke="midnightblue" d="M1019.2,-398.249C1055.46,-394.013 1110.05,-383.264 1149,-356 1215.09,-309.742 1257.63,-216.338 1269.56,-187.606"/>
<polygon fill="midnightblue" stroke="midnightblue" points="1018.61,-394.792 1009.03,-399.323 1019.34,-401.753 1018.61,-394.792"/>
</g>
<!-- Node45 -->
<g id="node45" class="node"><title>Node45</title>
<g id="a_node45"><a xlink:href="../../d6/df4/Exit_8cpp.html" target="_top" xlink:title=" ">
<polygon fill="white" stroke="black" points="1044.5,-336.5 1044.5,-355.5 1097.5,-355.5 1097.5,-336.5 1044.5,-336.5"/>
<text text-anchor="middle" x="1071" y="-343.5" font-family="Helvetica,sans-Serif" font-size="10.00">Exit.cpp</text>
</a>
</g>
</g>
<!-- Node34&#45;&gt;Node45 -->
<g id="edge67" class="edge"><title>Node34&#45;&gt;Node45</title>
<path fill="none" stroke="midnightblue" d="M1004.04,-387.177C1020.6,-377.241 1042.42,-364.149 1056.58,-355.655"/>
<polygon fill="midnightblue" stroke="midnightblue" points="1002.23,-384.178 995.46,-392.324 1005.84,-390.18 1002.23,-384.178"/>
</g>
<!-- Node46 -->
<g id="node46" class="node"><title>Node46</title>
<g id="a_node46"><a xlink:href="../../d3/d50/FixedPoint_8hpp.html" target="_top" xlink:title=" ">
<polygon fill="white" stroke="black" points="906,-336.5 906,-355.5 988,-355.5 988,-336.5 906,-336.5"/>
<text text-anchor="middle" x="947" y="-343.5" font-family="Helvetica,sans-Serif" font-size="10.00">FixedPoint.hpp</text>
</a>
</g>
</g>
<!-- Node34&#45;&gt;Node46 -->
<g id="edge70" class="edge"><title>Node34&#45;&gt;Node46</title>
<path fill="none" stroke="midnightblue" d="M970.023,-383.566C964.173,-374.275 957.23,-363.248 952.51,-355.751"/>
<polygon fill="midnightblue" stroke="midnightblue" points="967.096,-385.486 975.386,-392.083 973.019,-381.756 967.096,-385.486"/>
</g>
<!-- Node35&#45;&gt;Node17 -->
<g id="edge50" class="edge"><title>Node35&#45;&gt;Node17</title>
<path fill="none" stroke="midnightblue" d="M629.324,-330.784C594.191,-307.915 535.414,-261.705 565,-224 606.522,-171.082 649.103,-211.842 712,-188 729.846,-181.235 732.228,-174.957 750,-168 791.614,-151.711 841.262,-139.216 875.746,-131.572"/>
<polygon fill="midnightblue" stroke="midnightblue" points="627.774,-333.945 638.097,-336.332 631.516,-328.029 627.774,-333.945"/>
</g>
<!-- Node36 -->
<g id="node36" class="node"><title>Node36</title>
<g id="a_node36"><a xlink:href="../../d5/db6/ArrayHelpers_8hpp.html" target="_top" xlink:title=" ">
<polygon fill="white" stroke="black" points="574,-224.5 574,-243.5 666,-243.5 666,-224.5 574,-224.5"/>
<text text-anchor="middle" x="620" y="-231.5" font-family="Helvetica,sans-Serif" font-size="10.00">ArrayHelpers.hpp</text>
</a>
</g>
</g>
<!-- Node35&#45;&gt;Node36 -->
<g id="edge46" class="edge"><title>Node35&#45;&gt;Node36</title>
<path fill="none" stroke="midnightblue" d="M642.976,-327.481C638.709,-319.35 634.029,-309.417 631,-300 624.692,-280.388 621.817,-256.22 620.665,-243.599"/>
<polygon fill="midnightblue" stroke="midnightblue" points="639.961,-329.262 647.836,-336.35 646.1,-325.898 639.961,-329.262"/>
</g>
<!-- Node39 -->
<g id="node39" class="node"><title>Node39</title>
<g id="a_node39"><a xlink:href="../../d4/d35/Hardware-Types_8hpp.html" target="_top" xlink:title=" ">
<polygon fill="white" stroke="black" points="640.5,-280.5 640.5,-299.5 747.5,-299.5 747.5,-280.5 640.5,-280.5"/>
<text text-anchor="middle" x="694" y="-287.5" font-family="Helvetica,sans-Serif" font-size="10.00">Hardware&#45;Types.hpp</text>
</a>
</g>
</g>
<!-- Node35&#45;&gt;Node39 -->
<g id="edge51" class="edge"><title>Node35&#45;&gt;Node39</title>
<path fill="none" stroke="midnightblue" d="M666.017,-327.855C673.117,-318.505 681.604,-307.327 687.356,-299.751"/>
<polygon fill="midnightblue" stroke="midnightblue" points="663.03,-326.002 659.77,-336.083 668.605,-330.235 663.03,-326.002"/>
</g>
<!-- Node40 -->
<g id="node40" class="node"><title>Node40</title>
<g id="a_node40"><a xlink:href="../../d1/dde/BiQuad_8hpp.html" target="_top" xlink:title=" ">
<polygon fill="white" stroke="black" points="360,-224.5 360,-243.5 428,-243.5 428,-224.5 360,-224.5"/>
<text text-anchor="middle" x="394" y="-231.5" font-family="Helvetica,sans-Serif" font-size="10.00">BiQuad.hpp</text>
</a>
</g>
</g>
<!-- Node35&#45;&gt;Node40 -->
<g id="edge55" class="edge"><title>Node35&#45;&gt;Node40</title>
<path fill="none" stroke="midnightblue" d="M613.242,-336.262C549.583,-327.45 420.122,-336.498 389,-300 375.488,-284.154 383.982,-257.507 389.829,-243.772"/>
<polygon fill="midnightblue" stroke="midnightblue" points="612.798,-339.736 623.234,-337.911 613.937,-332.83 612.798,-339.736"/>
</g>
<!-- Node41 -->
<g id="node41" class="node"><title>Node41</title>
<g id="a_node41"><a xlink:href="../../d2/d3b/FIRFilter_8hpp.html" target="_top" xlink:title=" ">
<polygon fill="white" stroke="black" points="766,-280.5 766,-299.5 840,-299.5 840,-280.5 766,-280.5"/>
<text text-anchor="middle" x="803" y="-287.5" font-family="Helvetica,sans-Serif" font-size="10.00">FIRFilter.hpp</text>
</a>
</g>
</g>
<!-- Node35&#45;&gt;Node41 -->
<g id="edge57" class="edge"><title>Node35&#45;&gt;Node41</title>
<path fill="none" stroke="midnightblue" d="M686.225,-333.039C714.448,-322.879 754.262,-308.546 779.343,-299.516"/>
<polygon fill="midnightblue" stroke="midnightblue" points="684.991,-329.763 676.768,-336.444 687.362,-336.349 684.991,-329.763"/>
</g>
<!-- Node42 -->
<g id="node42" class="node"><title>Node42</title>
<g id="a_node42"><a xlink:href="../../dc/d64/IIRFilter_8hpp.html" target="_top" xlink:title=" ">
<polygon fill="white" stroke="black" points="446.5,-224.5 446.5,-243.5 517.5,-243.5 517.5,-224.5 446.5,-224.5"/>
<text text-anchor="middle" x="482" y="-231.5" font-family="Helvetica,sans-Serif" font-size="10.00">IIRFilter.hpp</text>
</a>
</g>
</g>
<!-- Node35&#45;&gt;Node42 -->
<g id="edge58" class="edge"><title>Node35&#45;&gt;Node42</title>
<path fill="none" stroke="midnightblue" d="M622.319,-332.425C603.689,-324.243 579.769,-312.747 560,-300 533.037,-282.615 504.988,-257.096 491.026,-243.796"/>
<polygon fill="midnightblue" stroke="midnightblue" points="620.96,-335.65 631.529,-336.39 623.729,-329.221 620.96,-335.65"/>
</g>
<!-- Node43 -->
<g id="node43" class="node"><title>Node43</title>
<g id="a_node43"><a xlink:href="../../d2/d03/TransferFunction_8hpp.html" target="_top" xlink:title=" ">
<polygon fill="white" stroke="black" points="398.5,-280.5 398.5,-299.5 507.5,-299.5 507.5,-280.5 398.5,-280.5"/>
<text text-anchor="middle" x="453" y="-287.5" font-family="Helvetica,sans-Serif" font-size="10.00">TransferFunction.hpp</text>
</a>
</g>
</g>
<!-- Node35&#45;&gt;Node43 -->
<g id="edge59" class="edge"><title>Node35&#45;&gt;Node43</title>
<path fill="none" stroke="midnightblue" d="M613.356,-334.296C575.587,-324.099 519.466,-308.946 484.615,-299.536"/>
<polygon fill="midnightblue" stroke="midnightblue" points="612.923,-337.804 623.489,-337.032 614.747,-331.046 612.923,-337.804"/>
</g>
<!-- Node36&#45;&gt;Node31 -->
<g id="edge47" class="edge"><title>Node36&#45;&gt;Node31</title>
<path fill="none" stroke="midnightblue" d="M665.061,-222.088C707.191,-211.887 769.24,-196.861 807.83,-187.516"/>
<polygon fill="midnightblue" stroke="midnightblue" points="664.23,-218.688 655.335,-224.444 665.878,-225.492 664.23,-218.688"/>
</g>
<!-- Node37 -->
<g id="node37" class="node"><title>Node37</title>
<g id="a_node37"><a xlink:href="../../df/ddc/SOSFilter_8hpp.html" target="_top" xlink:title=" ">
<polygon fill="white" stroke="black" points="360,-168.5 360,-187.5 438,-187.5 438,-168.5 360,-168.5"/>
<text text-anchor="middle" x="399" y="-175.5" font-family="Helvetica,sans-Serif" font-size="10.00">SOSFilter.hpp</text>
</a>
</g>
</g>
<!-- Node36&#45;&gt;Node37 -->
<g id="edge48" class="edge"><title>Node36&#45;&gt;Node37</title>
<path fill="none" stroke="midnightblue" d="M575.079,-222.024C533.332,-211.823 472.018,-196.841 433.854,-187.516"/>
<polygon fill="midnightblue" stroke="midnightblue" points="574.437,-225.47 584.982,-224.444 576.098,-218.67 574.437,-225.47"/>
</g>
<!-- Node38 -->
<g id="node38" class="node"><title>Node38</title>
<g id="a_node38"><a xlink:href="../../d4/d40/Butterworth_8hpp.html" target="_top" xlink:title=" ">
<polygon fill="white" stroke="black" points="186,-112.5 186,-131.5 272,-131.5 272,-112.5 186,-112.5"/>
<text text-anchor="middle" x="229" y="-119.5" font-family="Helvetica,sans-Serif" font-size="10.00">Butterworth.hpp</text>
</a>
</g>
</g>
<!-- Node37&#45;&gt;Node38 -->
<g id="edge49" class="edge"><title>Node37&#45;&gt;Node38</title>
<path fill="none" stroke="midnightblue" d="M362.181,-165.304C330.148,-155.129 284.485,-140.625 255.811,-131.516"/>
<polygon fill="midnightblue" stroke="midnightblue" points="361.473,-168.752 372.063,-168.444 363.592,-162.08 361.473,-168.752"/>
</g>
<!-- Node39&#45;&gt;Node7 -->
<g id="edge53" class="edge"><title>Node39&#45;&gt;Node7</title>
<path fill="none" stroke="midnightblue" d="M728.389,-277.172C757.952,-267.004 799.873,-252.585 826.239,-243.516"/>
<polygon fill="midnightblue" stroke="midnightblue" points="727.195,-273.881 718.877,-280.444 729.472,-280.501 727.195,-273.881"/>
</g>
<!-- Node39&#45;&gt;Node16 -->
<g id="edge52" class="edge"><title>Node39&#45;&gt;Node16</title>
<path fill="none" stroke="midnightblue" d="M693.494,-269.995C692.056,-255.362 687.668,-235.716 675,-224 617.661,-170.971 578.173,-209.184 503,-188 477.562,-180.832 472.18,-176.027 447,-168 390.696,-150.051 354.685,-179.106 319,-132 285.419,-87.6713 380.153,-73.5567 440.384,-69.0748"/>
<polygon fill="midnightblue" stroke="midnightblue" points="690.026,-270.635 694.116,-280.408 697.013,-270.217 690.026,-270.635"/>
</g>
<!-- Node39&#45;&gt;Node25 -->
<g id="edge54" class="edge"><title>Node39&#45;&gt;Node25</title>
<path fill="none" stroke="midnightblue" d="M704.755,-271.683C712.043,-257.5 718.598,-237.62 708,-224 668.017,-172.615 628.393,-206.603 566,-188 505.315,-169.906 435.101,-144.576 399.786,-131.523"/>
<polygon fill="midnightblue" stroke="midnightblue" points="701.676,-270.019 699.795,-280.445 707.767,-273.468 701.676,-270.019"/>
</g>
<!-- Node40&#45;&gt;Node37 -->
<g id="edge56" class="edge"><title>Node40&#45;&gt;Node37</title>
<path fill="none" stroke="midnightblue" d="M395.75,-214.101C396.58,-205.136 397.532,-194.858 398.19,-187.751"/>
<polygon fill="midnightblue" stroke="midnightblue" points="392.263,-213.803 394.826,-224.083 399.233,-214.448 392.263,-213.803"/>
</g>
<!-- Node43&#45;&gt;Node40 -->
<g id="edge60" class="edge"><title>Node43&#45;&gt;Node40</title>
<path fill="none" stroke="midnightblue" d="M436.105,-273.537C425.585,-263.909 412.431,-251.869 403.652,-243.834"/>
<polygon fill="midnightblue" stroke="midnightblue" points="433.781,-276.154 443.521,-280.324 438.507,-270.99 433.781,-276.154"/>
</g>
<!-- Node43&#45;&gt;Node42 -->
<g id="edge61" class="edge"><title>Node43&#45;&gt;Node42</title>
<path fill="none" stroke="midnightblue" d="M462.676,-270.983C467.598,-261.817 473.358,-251.092 477.3,-243.751"/>
<polygon fill="midnightblue" stroke="midnightblue" points="459.437,-269.617 457.789,-280.083 465.604,-272.929 459.437,-269.617"/>
</g>
<!-- Node44&#45;&gt;Node20 -->
<g id="edge64" class="edge"><title>Node44&#45;&gt;Node20</title>
<path fill="none" stroke="midnightblue" d="M1274.07,-157.805C1274.56,-148.91 1275.12,-138.78 1275.51,-131.751"/>
<polygon fill="midnightblue" stroke="midnightblue" points="1270.56,-157.904 1273.5,-168.083 1277.54,-158.293 1270.56,-157.904"/>
</g>
<!-- Node44&#45;&gt;Node23 -->
<g id="edge65" class="edge"><title>Node44&#45;&gt;Node23</title>
<path fill="none" stroke="midnightblue" d="M1301.99,-163.893C1317.34,-156.05 1335.89,-145.069 1350,-132 1368.33,-115.026 1383.34,-89.3341 1390.49,-75.8989"/>
<polygon fill="midnightblue" stroke="midnightblue" points="1300.33,-160.805 1292.91,-168.361 1303.43,-167.086 1300.33,-160.805"/>
</g>
<!-- Node44&#45;&gt;Node29 -->
<g id="edge63" class="edge"><title>Node44&#45;&gt;Node29</title>
<path fill="none" stroke="midnightblue" d="M1250.85,-162.801C1224.16,-145.891 1180.7,-119.041 1163,-112 1134.5,-100.664 1053.27,-83.9492 1004.16,-74.4041"/>
<polygon fill="midnightblue" stroke="midnightblue" points="1249.21,-165.904 1259.52,-168.32 1252.97,-159.998 1249.21,-165.904"/>
</g>
<!-- Node47&#45;&gt;Node19 -->
<g id="edge74" class="edge"><title>Node47&#45;&gt;Node19</title>
<path fill="none" stroke="midnightblue" d="M1408,-438.251C1408,-416.357 1408,-379.052 1408,-347 1408,-347 1408,-347 1408,-177 1408,-118.509 1334.17,-88.5829 1287.44,-75.5012"/>
<polygon fill="midnightblue" stroke="midnightblue" points="1404.5,-438.442 1408,-448.442 1411.5,-438.442 1404.5,-438.442"/>
</g>
<!-- Node48 -->
<g id="node48" class="node"><title>Node48</title>
<g id="a_node48"><a xlink:href="../../db/d0b/ShiftRegisterOutRGB_8cpp.html" target="_top" xlink:title=" ">
<polygon fill="white" stroke="black" points="1436,-392.5 1436,-411.5 1566,-411.5 1566,-392.5 1436,-392.5"/>
<text text-anchor="middle" x="1501" y="-399.5" font-family="Helvetica,sans-Serif" font-size="10.00">ShiftRegisterOutRGB.cpp</text>
</a>
</g>
</g>
<!-- Node47&#45;&gt;Node48 -->
<g id="edge75" class="edge"><title>Node47&#45;&gt;Node48</title>
<path fill="none" stroke="midnightblue" d="M1431.81,-443.177C1448.92,-433.241 1471.47,-420.149 1486.1,-411.655"/>
<polygon fill="midnightblue" stroke="midnightblue" points="1429.83,-440.276 1422.94,-448.324 1433.35,-446.329 1429.83,-440.276"/>
</g>
</g>
</svg>
