<?xml version="1.0" encoding="UTF-8" standalone="no"?>
<!DOCTYPE svg PUBLIC "-//W3C//DTD SVG 1.1//EN"
 "http://www.w3.org/Graphics/SVG/1.1/DTD/svg11.dtd">
<!-- Generated by graphviz version 2.38.0 (20140413.2041)
 -->
<!-- Title: Debug.hpp Pages: 1 -->
<svg width="1408pt" height="532pt"
 viewBox="0.00 0.00 1407.50 532.00" xmlns="http://www.w3.org/2000/svg" xmlns:xlink="http://www.w3.org/1999/xlink">
<g id="graph0" class="graph" transform="scale(1 1) rotate(0) translate(4 528)">
<title>Debug.hpp</title>
<polygon fill="white" stroke="none" points="-4,4 -4,-528 1403.5,-528 1403.5,4 -4,4"/>
<!-- Node1 -->
<g id="node1" class="node"><title>Node1</title>
<g id="a_node1"><a xlink:title=" ">
<polygon fill="#bfbfbf" stroke="black" points="612,-504.5 612,-523.5 676,-523.5 676,-504.5 612,-504.5"/>
<text text-anchor="middle" x="644" y="-511.5" font-family="Helvetica,sans-Serif" font-size="10.00">Debug.hpp</text>
</a>
</g>
</g>
<!-- Node2 -->
<g id="node2" class="node"><title>Node2</title>
<g id="a_node2"><a xlink:href="../../de/dd1/LinkedList_8hpp.html" target="_top" xlink:title=" ">
<polygon fill="white" stroke="black" points="436,-448.5 436,-467.5 516,-467.5 516,-448.5 436,-448.5"/>
<text text-anchor="middle" x="476" y="-455.5" font-family="Helvetica,sans-Serif" font-size="10.00">LinkedList.hpp</text>
</a>
</g>
</g>
<!-- Node1&#45;&gt;Node2 -->
<g id="edge1" class="edge"><title>Node1&#45;&gt;Node2</title>
<path fill="none" stroke="midnightblue" d="M607.614,-501.304C575.958,-491.129 530.832,-476.625 502.496,-467.516"/>
<polygon fill="midnightblue" stroke="midnightblue" points="606.789,-504.715 617.38,-504.444 608.931,-498.051 606.789,-504.715"/>
</g>
<!-- Node30 -->
<g id="node30" class="node"><title>Node30</title>
<g id="a_node30"><a xlink:href="../../df/d66/Debug_8cpp.html" target="_top" xlink:title=" ">
<polygon fill="white" stroke="black" points="534,-448.5 534,-467.5 598,-467.5 598,-448.5 534,-448.5"/>
<text text-anchor="middle" x="566" y="-455.5" font-family="Helvetica,sans-Serif" font-size="10.00">Debug.cpp</text>
</a>
</g>
</g>
<!-- Node1&#45;&gt;Node30 -->
<g id="edge39" class="edge"><title>Node1&#45;&gt;Node30</title>
<path fill="none" stroke="midnightblue" d="M623.232,-498.622C608.983,-488.757 590.544,-475.992 578.501,-467.655"/>
<polygon fill="midnightblue" stroke="midnightblue" points="621.254,-501.51 631.468,-504.324 625.238,-495.754 621.254,-501.51"/>
</g>
<!-- Node31 -->
<g id="node31" class="node"><title>Node31</title>
<g id="a_node31"><a xlink:href="../../d1/d93/Error_8hpp.html" target="_top" xlink:title=" ">
<polygon fill="white" stroke="black" points="616,-448.5 616,-467.5 672,-467.5 672,-448.5 616,-448.5"/>
<text text-anchor="middle" x="644" y="-455.5" font-family="Helvetica,sans-Serif" font-size="10.00">Error.hpp</text>
</a>
</g>
</g>
<!-- Node1&#45;&gt;Node31 -->
<g id="edge40" class="edge"><title>Node1&#45;&gt;Node31</title>
<path fill="none" stroke="midnightblue" d="M644,-493.805C644,-484.91 644,-474.78 644,-467.751"/>
<polygon fill="midnightblue" stroke="midnightblue" points="640.5,-494.083 644,-504.083 647.5,-494.083 640.5,-494.083"/>
</g>
<!-- Node40 -->
<g id="node40" class="node"><title>Node40</title>
<g id="a_node40"><a xlink:href="../../d2/dd5/SettingsWrapper_8hpp.html" target="_top" xlink:title=" ">
<polygon fill="white" stroke="black" points="724,-448.5 724,-467.5 832,-467.5 832,-448.5 724,-448.5"/>
<text text-anchor="middle" x="778" y="-455.5" font-family="Helvetica,sans-Serif" font-size="10.00">SettingsWrapper.hpp</text>
</a>
</g>
</g>
<!-- Node1&#45;&gt;Node40 -->
<g id="edge60" class="edge"><title>Node1&#45;&gt;Node40</title>
<path fill="none" stroke="midnightblue" d="M669.53,-500.368C693.169,-490.255 727.924,-476.349 751.787,-467.516"/>
<polygon fill="midnightblue" stroke="midnightblue" points="667.922,-497.25 660.144,-504.444 670.711,-503.671 667.922,-497.25"/>
</g>
<!-- Node3 -->
<g id="node3" class="node"><title>Node3</title>
<g id="a_node3"><a xlink:href="../../d4/d93/Updatable_8hpp.html" target="_top" xlink:title=" ">
<polygon fill="white" stroke="black" points="648,-392.5 648,-411.5 728,-411.5 728,-392.5 648,-392.5"/>
<text text-anchor="middle" x="688" y="-399.5" font-family="Helvetica,sans-Serif" font-size="10.00">Updatable.hpp</text>
</a>
</g>
</g>
<!-- Node2&#45;&gt;Node3 -->
<g id="edge2" class="edge"><title>Node2&#45;&gt;Node3</title>
<path fill="none" stroke="midnightblue" d="M519.346,-445.959C559.387,-435.76 618.033,-420.822 654.565,-411.516"/>
<polygon fill="midnightblue" stroke="midnightblue" points="518.419,-442.583 509.592,-448.444 520.147,-449.367 518.419,-442.583"/>
</g>
<!-- Node4 -->
<g id="node4" class="node"><title>Node4</title>
<g id="a_node4"><a xlink:href="../../d4/d57/ExtendedIOElement_8hpp.html" target="_top" xlink:title=" ">
<polygon fill="white" stroke="black" points="142.5,-280.5 142.5,-299.5 265.5,-299.5 265.5,-280.5 142.5,-280.5"/>
<text text-anchor="middle" x="204" y="-287.5" font-family="Helvetica,sans-Serif" font-size="10.00">ExtendedIOElement.hpp</text>
</a>
</g>
</g>
<!-- Node2&#45;&gt;Node4 -->
<g id="edge3" class="edge"><title>Node2&#45;&gt;Node4</title>
<path fill="none" stroke="midnightblue" d="M425.65,-455.164C358.724,-451.601 245.665,-441.303 218,-412 188.24,-380.477 197.165,-321.849 201.902,-299.74"/>
<polygon fill="midnightblue" stroke="midnightblue" points="425.813,-458.676 435.975,-455.68 426.162,-451.685 425.813,-458.676"/>
</g>
<!-- Node5 -->
<g id="node5" class="node"><title>Node5</title>
<g id="a_node5"><a xlink:href="../../dd/ddf/ExtendedInputOutput_8hpp.html" target="_top" xlink:title=" ">
<polygon fill="white" stroke="black" points="130,-224.5 130,-243.5 258,-243.5 258,-224.5 130,-224.5"/>
<text text-anchor="middle" x="194" y="-231.5" font-family="Helvetica,sans-Serif" font-size="10.00">ExtendedInputOutput.hpp</text>
</a>
</g>
</g>
<!-- Node4&#45;&gt;Node5 -->
<g id="edge4" class="edge"><title>Node4&#45;&gt;Node5</title>
<path fill="none" stroke="midnightblue" d="M200.5,-270.101C198.84,-261.136 196.937,-250.858 195.621,-243.751"/>
<polygon fill="midnightblue" stroke="midnightblue" points="197.086,-270.888 202.349,-280.083 203.969,-269.613 197.086,-270.888"/>
</g>
<!-- Node15 -->
<g id="node15" class="node"><title>Node15</title>
<g id="a_node15"><a xlink:href="../../d6/d3c/ExtendedInputOutput_8cpp.html" target="_top" xlink:title=" ">
<polygon fill="white" stroke="black" points="0,-168.5 0,-187.5 128,-187.5 128,-168.5 0,-168.5"/>
<text text-anchor="middle" x="64" y="-175.5" font-family="Helvetica,sans-Serif" font-size="10.00">ExtendedInputOutput.cpp</text>
</a>
</g>
</g>
<!-- Node4&#45;&gt;Node15 -->
<g id="edge37" class="edge"><title>Node4&#45;&gt;Node15</title>
<path fill="none" stroke="midnightblue" d="M174.43,-276.143C157.841,-268.177 137.275,-256.996 121,-244 99.6541,-226.955 79.8498,-201.293 70.184,-187.881"/>
<polygon fill="midnightblue" stroke="midnightblue" points="173.132,-279.4 183.675,-280.451 176.089,-273.055 173.132,-279.4"/>
</g>
<!-- Node28 -->
<g id="node28" class="node"><title>Node28</title>
<g id="a_node28"><a xlink:href="../../d2/d05/StaticSizeExtendedIOElement_8hpp.html" target="_top" xlink:title=" ">
<polygon fill="white" stroke="black" points="816,-224.5 816,-243.5 984,-243.5 984,-224.5 816,-224.5"/>
<text text-anchor="middle" x="900" y="-231.5" font-family="Helvetica,sans-Serif" font-size="10.00">StaticSizeExtendedIOElement.hpp</text>
</a>
</g>
</g>
<!-- Node4&#45;&gt;Node28 -->
<g id="edge33" class="edge"><title>Node4&#45;&gt;Node28</title>
<path fill="none" stroke="midnightblue" d="M275.978,-283.416C405.605,-273.358 677.63,-252.253 815.72,-241.539"/>
<polygon fill="midnightblue" stroke="midnightblue" points="275.465,-279.945 265.765,-284.208 276.006,-286.924 275.465,-279.945"/>
</g>
<!-- Node29 -->
<g id="node29" class="node"><title>Node29</title>
<g id="a_node29"><a xlink:href="../../da/d1f/ExtendedIOElement_8cpp.html" target="_top" xlink:title=" ">
<polygon fill="white" stroke="black" points="276.5,-224.5 276.5,-243.5 399.5,-243.5 399.5,-224.5 276.5,-224.5"/>
<text text-anchor="middle" x="338" y="-231.5" font-family="Helvetica,sans-Serif" font-size="10.00">ExtendedIOElement.cpp</text>
</a>
</g>
</g>
<!-- Node4&#45;&gt;Node29 -->
<g id="edge38" class="edge"><title>Node4&#45;&gt;Node29</title>
<path fill="none" stroke="midnightblue" d="M234.677,-276.638C259.823,-266.504 294.754,-252.427 316.867,-243.516"/>
<polygon fill="midnightblue" stroke="midnightblue" points="233.2,-273.459 225.233,-280.444 235.816,-279.952 233.2,-273.459"/>
</g>
<!-- Node6 -->
<g id="node6" class="node"><title>Node6</title>
<g id="a_node6"><a xlink:href="../../d4/db3/Button_8hpp.html" target="_top" xlink:title=" ">
<polygon fill="white" stroke="black" points="1118,-168.5 1118,-187.5 1182,-187.5 1182,-168.5 1118,-168.5"/>
<text text-anchor="middle" x="1150" y="-175.5" font-family="Helvetica,sans-Serif" font-size="10.00">Button.hpp</text>
</a>
</g>
</g>
<!-- Node5&#45;&gt;Node6 -->
<g id="edge5" class="edge"><title>Node5&#45;&gt;Node6</title>
<path fill="none" stroke="midnightblue" d="M268.077,-223.988C642.015,-193.813 740.832,-235.911 1109,-188 1111.89,-187.624 1114.88,-187.145 1117.86,-186.606"/>
<polygon fill="midnightblue" stroke="midnightblue" points="267.745,-220.503 258.064,-224.808 268.316,-227.48 267.745,-220.503"/>
</g>
<!-- Node12 -->
<g id="node12" class="node"><title>Node12</title>
<g id="a_node12"><a xlink:href="../../d5/d41/ButtonMatrix_8ipp.html" target="_top" xlink:title=" ">
<polygon fill="white" stroke="black" points="300,-168.5 300,-187.5 388,-187.5 388,-168.5 300,-168.5"/>
<text text-anchor="middle" x="344" y="-175.5" font-family="Helvetica,sans-Serif" font-size="10.00">ButtonMatrix.ipp</text>
</a>
</g>
</g>
<!-- Node5&#45;&gt;Node12 -->
<g id="edge11" class="edge"><title>Node5&#45;&gt;Node12</title>
<path fill="none" stroke="midnightblue" d="M227.225,-221.039C255.448,-210.879 295.262,-196.546 320.343,-187.516"/>
<polygon fill="midnightblue" stroke="midnightblue" points="225.991,-217.763 217.768,-224.444 228.362,-224.349 225.991,-217.763"/>
</g>
<!-- Node14 -->
<g id="node14" class="node"><title>Node14</title>
<g id="a_node14"><a xlink:href="../../d7/def/AnalogMultiplex_8hpp.html" target="_top" xlink:title=" ">
<polygon fill="white" stroke="black" points="684,-168.5 684,-187.5 788,-187.5 788,-168.5 684,-168.5"/>
<text text-anchor="middle" x="736" y="-175.5" font-family="Helvetica,sans-Serif" font-size="10.00">AnalogMultiplex.hpp</text>
</a>
</g>
</g>
<!-- Node5&#45;&gt;Node14 -->
<g id="edge14" class="edge"><title>Node5&#45;&gt;Node14</title>
<path fill="none" stroke="midnightblue" d="M268.236,-223.906C449.741,-205.012 497.478,-208.91 675,-188 677.87,-187.662 680.814,-187.295 683.783,-186.909"/>
<polygon fill="midnightblue" stroke="midnightblue" points="267.66,-220.447 258.08,-224.972 268.391,-227.409 267.66,-220.447"/>
</g>
<!-- Node5&#45;&gt;Node15 -->
<g id="edge15" class="edge"><title>Node5&#45;&gt;Node15</title>
<path fill="none" stroke="midnightblue" d="M163.915,-220.503C139.543,-210.38 105.86,-196.388 84.5025,-187.516"/>
<polygon fill="midnightblue" stroke="midnightblue" points="162.823,-223.84 173.401,-224.444 165.509,-217.375 162.823,-223.84"/>
</g>
<!-- Node16 -->
<g id="node16" class="node"><title>Node16</title>
<g id="a_node16"><a xlink:href="../../d5/d47/ShiftRegisterOutBase_8ipp.html" target="_top" xlink:title=" ">
<polygon fill="white" stroke="black" points="844,-168.5 844,-187.5 972,-187.5 972,-168.5 844,-168.5"/>
<text text-anchor="middle" x="908" y="-175.5" font-family="Helvetica,sans-Serif" font-size="10.00">ShiftRegisterOutBase.ipp</text>
</a>
</g>
</g>
<!-- Node5&#45;&gt;Node16 -->
<g id="edge16" class="edge"><title>Node5&#45;&gt;Node16</title>
<path fill="none" stroke="midnightblue" d="M268.326,-223.923C503.749,-201.656 564.888,-205.292 797,-188 812.135,-186.872 828.426,-185.59 843.739,-184.354"/>
<polygon fill="midnightblue" stroke="midnightblue" points="267.696,-220.467 258.072,-224.899 268.359,-227.436 267.696,-220.467"/>
</g>
<!-- Node19 -->
<g id="node19" class="node"><title>Node19</title>
<g id="a_node19"><a xlink:href="../../de/d95/ShiftRegisterOut_8ipp.html" target="_top" xlink:title=" ">
<polygon fill="white" stroke="black" points="185.5,-0.5 185.5,-19.5 290.5,-19.5 290.5,-0.5 185.5,-0.5"/>
<text text-anchor="middle" x="238" y="-7.5" font-family="Helvetica,sans-Serif" font-size="10.00">ShiftRegisterOut.ipp</text>
</a>
</g>
</g>
<!-- Node5&#45;&gt;Node19 -->
<g id="edge25" class="edge"><title>Node5&#45;&gt;Node19</title>
<path fill="none" stroke="midnightblue" d="M185.788,-214.869C171.934,-181.408 147.947,-108.569 175,-56 183.795,-38.9095 202.422,-26.8711 217.153,-19.5733"/>
<polygon fill="midnightblue" stroke="midnightblue" points="182.672,-216.483 189.852,-224.274 189.098,-213.706 182.672,-216.483"/>
</g>
<!-- Node21 -->
<g id="node21" class="node"><title>Node21</title>
<g id="a_node21"><a xlink:href="../../da/d45/SPIShiftRegisterOut_8ipp.html" target="_top" xlink:title=" ">
<polygon fill="white" stroke="black" points="847,-0.5 847,-19.5 969,-19.5 969,-0.5 847,-0.5"/>
<text text-anchor="middle" x="908" y="-7.5" font-family="Helvetica,sans-Serif" font-size="10.00">SPIShiftRegisterOut.ipp</text>
</a>
</g>
</g>
<!-- Node5&#45;&gt;Node21 -->
<g id="edge26" class="edge"><title>Node5&#45;&gt;Node21</title>
<path fill="none" stroke="midnightblue" d="M190.847,-214.565C187.45,-187.934 185.743,-138.947 213,-112 257.925,-67.5858 685.616,-28.8886 846.877,-15.7611"/>
<polygon fill="midnightblue" stroke="midnightblue" points="187.389,-215.106 192.326,-224.48 194.312,-214.073 187.389,-215.106"/>
</g>
<!-- Node22 -->
<g id="node22" class="node"><title>Node22</title>
<g id="a_node22"><a xlink:href="../../d8/df3/FilteredAnalog_8hpp.html" target="_top" xlink:title=" ">
<polygon fill="white" stroke="black" points="568,-168.5 568,-187.5 666,-187.5 666,-168.5 568,-168.5"/>
<text text-anchor="middle" x="617" y="-175.5" font-family="Helvetica,sans-Serif" font-size="10.00">FilteredAnalog.hpp</text>
</a>
</g>
</g>
<!-- Node5&#45;&gt;Node22 -->
<g id="edge27" class="edge"><title>Node5&#45;&gt;Node22</title>
<path fill="none" stroke="midnightblue" d="M268.269,-223.847C374.724,-210.727 558.103,-188.125 559,-188 561.927,-187.593 564.935,-187.162 567.968,-186.719"/>
<polygon fill="midnightblue" stroke="midnightblue" points="267.712,-220.389 258.216,-225.086 268.569,-227.337 267.712,-220.389"/>
</g>
<!-- Node23 -->
<g id="node23" class="node"><title>Node23</title>
<g id="a_node23"><a xlink:href="../../d9/d4f/LEDs_8hpp.html" target="_top" xlink:title=" ">
<polygon fill="white" stroke="black" points="222,-168.5 222,-187.5 282,-187.5 282,-168.5 222,-168.5"/>
<text text-anchor="middle" x="252" y="-175.5" font-family="Helvetica,sans-Serif" font-size="10.00">LEDs.hpp</text>
</a>
</g>
</g>
<!-- Node5&#45;&gt;Node23 -->
<g id="edge28" class="edge"><title>Node5&#45;&gt;Node23</title>
<path fill="none" stroke="midnightblue" d="M210.913,-217.253C221.203,-207.673 233.966,-195.791 242.512,-187.834"/>
<polygon fill="midnightblue" stroke="midnightblue" points="208.253,-214.948 203.319,-224.324 213.023,-220.071 208.253,-214.948"/>
</g>
<!-- Node25 -->
<g id="node25" class="node"><title>Node25</title>
<g id="a_node25"><a xlink:href="../../d7/d13/MAX7219__Base_8hpp.html" target="_top" xlink:title=" ">
<polygon fill="white" stroke="black" points="444,-168.5 444,-187.5 550,-187.5 550,-168.5 444,-168.5"/>
<text text-anchor="middle" x="497" y="-175.5" font-family="Helvetica,sans-Serif" font-size="10.00">MAX7219_Base.hpp</text>
</a>
</g>
</g>
<!-- Node5&#45;&gt;Node25 -->
<g id="edge30" class="edge"><title>Node5&#45;&gt;Node25</title>
<path fill="none" stroke="midnightblue" d="M251.995,-222.664C309.257,-212.459 395.783,-197.039 449.213,-187.516"/>
<polygon fill="midnightblue" stroke="midnightblue" points="251.242,-219.243 242.011,-224.444 252.47,-226.135 251.242,-219.243"/>
</g>
<!-- Node7 -->
<g id="node7" class="node"><title>Node7</title>
<g id="a_node7"><a xlink:href="../../de/dd1/Button_8cpp.html" target="_top" xlink:title=" ">
<polygon fill="white" stroke="black" points="1210,-112.5 1210,-131.5 1274,-131.5 1274,-112.5 1210,-112.5"/>
<text text-anchor="middle" x="1242" y="-119.5" font-family="Helvetica,sans-Serif" font-size="10.00">Button.cpp</text>
</a>
</g>
</g>
<!-- Node6&#45;&gt;Node7 -->
<g id="edge6" class="edge"><title>Node6&#45;&gt;Node7</title>
<path fill="none" stroke="midnightblue" d="M1173.55,-163.177C1190.48,-153.241 1212.78,-140.149 1227.26,-131.655"/>
<polygon fill="midnightblue" stroke="midnightblue" points="1171.63,-160.243 1164.78,-168.324 1175.18,-166.28 1171.63,-160.243"/>
</g>
<!-- Node8 -->
<g id="node8" class="node"><title>Node8</title>
<g id="a_node8"><a xlink:href="../../d5/d04/IncrementButton_8hpp.html" target="_top" xlink:title=" ">
<polygon fill="white" stroke="black" points="1292.5,-112.5 1292.5,-131.5 1399.5,-131.5 1399.5,-112.5 1292.5,-112.5"/>
<text text-anchor="middle" x="1346" y="-119.5" font-family="Helvetica,sans-Serif" font-size="10.00">IncrementButton.hpp</text>
</a>
</g>
</g>
<!-- Node6&#45;&gt;Node8 -->
<g id="edge7" class="edge"><title>Node6&#45;&gt;Node8</title>
<path fill="none" stroke="midnightblue" d="M1191.02,-165.699C1228.01,-155.507 1281.6,-140.743 1315.09,-131.516"/>
<polygon fill="midnightblue" stroke="midnightblue" points="1189.77,-162.413 1181.06,-168.444 1191.63,-169.162 1189.77,-162.413"/>
</g>
<!-- Node10 -->
<g id="node10" class="node"><title>Node10</title>
<g id="a_node10"><a xlink:href="../../df/df5/IncrementDecrementButtons_8hpp.html" target="_top" xlink:title=" ">
<polygon fill="white" stroke="black" points="1030.5,-112.5 1030.5,-131.5 1191.5,-131.5 1191.5,-112.5 1030.5,-112.5"/>
<text text-anchor="middle" x="1111" y="-119.5" font-family="Helvetica,sans-Serif" font-size="10.00">IncrementDecrementButtons.hpp</text>
</a>
</g>
</g>
<!-- Node6&#45;&gt;Node10 -->
<g id="edge9" class="edge"><title>Node6&#45;&gt;Node10</title>
<path fill="none" stroke="midnightblue" d="M1137.62,-159.855C1130.86,-150.505 1122.79,-139.327 1117.32,-131.751"/>
<polygon fill="midnightblue" stroke="midnightblue" points="1134.87,-162.025 1143.56,-168.083 1140.54,-157.927 1134.87,-162.025"/>
</g>
<!-- Node9 -->
<g id="node9" class="node"><title>Node9</title>
<g id="a_node9"><a xlink:href="../../db/d9d/IncrementButton_8cpp.html" target="_top" xlink:title=" ">
<polygon fill="white" stroke="black" points="1292.5,-56.5 1292.5,-75.5 1399.5,-75.5 1399.5,-56.5 1292.5,-56.5"/>
<text text-anchor="middle" x="1346" y="-63.5" font-family="Helvetica,sans-Serif" font-size="10.00">IncrementButton.cpp</text>
</a>
</g>
</g>
<!-- Node8&#45;&gt;Node9 -->
<g id="edge8" class="edge"><title>Node8&#45;&gt;Node9</title>
<path fill="none" stroke="midnightblue" d="M1346,-101.805C1346,-92.9102 1346,-82.7798 1346,-75.7511"/>
<polygon fill="midnightblue" stroke="midnightblue" points="1342.5,-102.083 1346,-112.083 1349.5,-102.083 1342.5,-102.083"/>
</g>
<!-- Node11 -->
<g id="node11" class="node"><title>Node11</title>
<g id="a_node11"><a xlink:href="../../da/d66/IncrementDecrementButtons_8cpp.html" target="_top" xlink:title=" ">
<polygon fill="white" stroke="black" points="1030.5,-56.5 1030.5,-75.5 1191.5,-75.5 1191.5,-56.5 1030.5,-56.5"/>
<text text-anchor="middle" x="1111" y="-63.5" font-family="Helvetica,sans-Serif" font-size="10.00">IncrementDecrementButtons.cpp</text>
</a>
</g>
</g>
<!-- Node10&#45;&gt;Node11 -->
<g id="edge10" class="edge"><title>Node10&#45;&gt;Node11</title>
<path fill="none" stroke="midnightblue" d="M1111,-101.805C1111,-92.9102 1111,-82.7798 1111,-75.7511"/>
<polygon fill="midnightblue" stroke="midnightblue" points="1107.5,-102.083 1111,-112.083 1114.5,-102.083 1107.5,-102.083"/>
</g>
<!-- Node13 -->
<g id="node13" class="node"><title>Node13</title>
<g id="a_node13"><a xlink:href="../../d9/d4b/ButtonMatrix_8hpp.html" target="_top" xlink:title=" ">
<polygon fill="white" stroke="black" points="364.5,-112.5 364.5,-131.5 455.5,-131.5 455.5,-112.5 364.5,-112.5"/>
<text text-anchor="middle" x="410" y="-119.5" font-family="Helvetica,sans-Serif" font-size="10.00">ButtonMatrix.hpp</text>
</a>
</g>
</g>
<!-- Node12&#45;&gt;Node13 -->
<g id="edge12" class="edge"><title>Node12&#45;&gt;Node13</title>
<path fill="none" stroke="midnightblue" d="M357.059,-161.242C367.892,-151.559 382.967,-139.526 394.429,-131.573"/>
<polygon fill="midnightblue" stroke="midnightblue" points="354.653,-158.7 349.732,-168.083 359.43,-163.817 354.653,-158.7"/>
</g>
<!-- Node13&#45;&gt;Node12 -->
<g id="edge13" class="edge"><title>Node13&#45;&gt;Node12</title>
<path fill="none" stroke="midnightblue" d="M396.74,-138.938C385.969,-148.548 371.091,-160.42 359.719,-168.324"/>
<polygon fill="midnightblue" stroke="midnightblue" points="399.429,-141.215 404.352,-131.834 394.653,-136.098 399.429,-141.215"/>
</g>
<!-- Node17 -->
<g id="node17" class="node"><title>Node17</title>
<g id="a_node17"><a xlink:href="../../d8/d93/ShiftRegisterOutBase_8hpp.html" target="_top" xlink:title=" ">
<polygon fill="white" stroke="black" points="842.5,-112.5 842.5,-131.5 973.5,-131.5 973.5,-112.5 842.5,-112.5"/>
<text text-anchor="middle" x="908" y="-119.5" font-family="Helvetica,sans-Serif" font-size="10.00">ShiftRegisterOutBase.hpp</text>
</a>
</g>
</g>
<!-- Node16&#45;&gt;Node17 -->
<g id="edge17" class="edge"><title>Node16&#45;&gt;Node17</title>
<path fill="none" stroke="midnightblue" d="M901.528,-158.101C900.896,-149.136 901.343,-138.858 902.869,-131.751"/>
<polygon fill="midnightblue" stroke="midnightblue" points="898.066,-158.622 902.834,-168.083 905.007,-157.713 898.066,-158.622"/>
</g>
<!-- Node17&#45;&gt;Node16 -->
<g id="edge21" class="edge"><title>Node17&#45;&gt;Node16</title>
<path fill="none" stroke="midnightblue" d="M914.458,-141.691C915.106,-150.635 914.676,-160.927 913.166,-168.083"/>
<polygon fill="midnightblue" stroke="midnightblue" points="917.923,-141.2 913.131,-131.751 910.985,-142.126 917.923,-141.2"/>
</g>
<!-- Node18 -->
<g id="node18" class="node"><title>Node18</title>
<g id="a_node18"><a xlink:href="../../d0/db4/ShiftRegisterOut_8hpp.html" target="_top" xlink:title=" ">
<polygon fill="white" stroke="black" points="184,-56.5 184,-75.5 292,-75.5 292,-56.5 184,-56.5"/>
<text text-anchor="middle" x="238" y="-63.5" font-family="Helvetica,sans-Serif" font-size="10.00">ShiftRegisterOut.hpp</text>
</a>
</g>
</g>
<!-- Node17&#45;&gt;Node18 -->
<g id="edge18" class="edge"><title>Node17&#45;&gt;Node18</title>
<path fill="none" stroke="midnightblue" d="M832.084,-111.952C626.405,-92.042 395.192,-76.7424 292.214,-70.2999"/>
<polygon fill="midnightblue" stroke="midnightblue" points="831.876,-115.449 842.168,-112.934 832.554,-108.482 831.876,-115.449"/>
</g>
<!-- Node20 -->
<g id="node20" class="node"><title>Node20</title>
<g id="a_node20"><a xlink:href="../../d7/d88/SPIShiftRegisterOut_8hpp.html" target="_top" xlink:title=" ">
<polygon fill="white" stroke="black" points="845.5,-56.5 845.5,-75.5 970.5,-75.5 970.5,-56.5 845.5,-56.5"/>
<text text-anchor="middle" x="908" y="-63.5" font-family="Helvetica,sans-Serif" font-size="10.00">SPIShiftRegisterOut.hpp</text>
</a>
</g>
</g>
<!-- Node17&#45;&gt;Node20 -->
<g id="edge22" class="edge"><title>Node17&#45;&gt;Node20</title>
<path fill="none" stroke="midnightblue" d="M908,-101.805C908,-92.9102 908,-82.7798 908,-75.7511"/>
<polygon fill="midnightblue" stroke="midnightblue" points="904.5,-102.083 908,-112.083 911.5,-102.083 904.5,-102.083"/>
</g>
<!-- Node18&#45;&gt;Node19 -->
<g id="edge19" class="edge"><title>Node18&#45;&gt;Node19</title>
<path fill="none" stroke="midnightblue" d="M231.528,-46.1005C230.896,-37.1357 231.343,-26.8579 232.869,-19.7511"/>
<polygon fill="midnightblue" stroke="midnightblue" points="228.066,-46.6216 232.834,-56.083 235.007,-45.7134 228.066,-46.6216"/>
</g>
<!-- Node19&#45;&gt;Node18 -->
<g id="edge20" class="edge"><title>Node19&#45;&gt;Node18</title>
<path fill="none" stroke="midnightblue" d="M244.458,-29.6911C245.106,-38.6353 244.676,-48.9272 243.166,-56.083"/>
<polygon fill="midnightblue" stroke="midnightblue" points="247.923,-29.2002 243.131,-19.7511 240.985,-30.1262 247.923,-29.2002"/>
</g>
<!-- Node20&#45;&gt;Node21 -->
<g id="edge23" class="edge"><title>Node20&#45;&gt;Node21</title>
<path fill="none" stroke="midnightblue" d="M901.528,-46.1005C900.896,-37.1357 901.343,-26.8579 902.869,-19.7511"/>
<polygon fill="midnightblue" stroke="midnightblue" points="898.066,-46.6216 902.834,-56.083 905.007,-45.7134 898.066,-46.6216"/>
</g>
<!-- Node21&#45;&gt;Node20 -->
<g id="edge24" class="edge"><title>Node21&#45;&gt;Node20</title>
<path fill="none" stroke="midnightblue" d="M914.458,-29.6911C915.106,-38.6353 914.676,-48.9272 913.166,-56.083"/>
<polygon fill="midnightblue" stroke="midnightblue" points="917.923,-29.2002 913.131,-19.7511 910.985,-30.1262 917.923,-29.2002"/>
</g>
<!-- Node24 -->
<g id="node24" class="node"><title>Node24</title>
<g id="a_node24"><a xlink:href="../../d6/d3a/DotBarDisplayLEDs_8hpp.html" target="_top" xlink:title=" ">
<polygon fill="white" stroke="black" points="222,-112.5 222,-131.5 346,-131.5 346,-112.5 222,-112.5"/>
<text text-anchor="middle" x="284" y="-119.5" font-family="Helvetica,sans-Serif" font-size="10.00">DotBarDisplayLEDs.hpp</text>
</a>
</g>
</g>
<!-- Node23&#45;&gt;Node24 -->
<g id="edge29" class="edge"><title>Node23&#45;&gt;Node24</title>
<path fill="none" stroke="midnightblue" d="M262.504,-159.275C267.973,-150.045 274.418,-139.17 278.814,-131.751"/>
<polygon fill="midnightblue" stroke="midnightblue" points="259.371,-157.696 257.284,-168.083 265.393,-161.264 259.371,-157.696"/>
</g>
<!-- Node26 -->
<g id="node26" class="node"><title>Node26</title>
<g id="a_node26"><a xlink:href="../../d2/d25/MAX7219_8hpp.html" target="_top" xlink:title=" ">
<polygon fill="white" stroke="black" points="746,-112.5 746,-131.5 824,-131.5 824,-112.5 746,-112.5"/>
<text text-anchor="middle" x="785" y="-119.5" font-family="Helvetica,sans-Serif" font-size="10.00">MAX7219.hpp</text>
</a>
</g>
</g>
<!-- Node25&#45;&gt;Node26 -->
<g id="edge31" class="edge"><title>Node25&#45;&gt;Node26</title>
<path fill="none" stroke="midnightblue" d="M552.5,-166.594C609.14,-155.974 695.617,-139.759 745.595,-130.388"/>
<polygon fill="midnightblue" stroke="midnightblue" points="551.818,-163.161 542.634,-168.444 553.108,-170.041 551.818,-163.161"/>
</g>
<!-- Node27 -->
<g id="node27" class="node"><title>Node27</title>
<g id="a_node27"><a xlink:href="../../d5/d0c/MAX7219SevenSegmentDisplay_8hpp.html" target="_top" xlink:title=" ">
<polygon fill="white" stroke="black" points="474,-112.5 474,-131.5 652,-131.5 652,-112.5 474,-112.5"/>
<text text-anchor="middle" x="563" y="-119.5" font-family="Helvetica,sans-Serif" font-size="10.00">MAX7219SevenSegmentDisplay.hpp</text>
</a>
</g>
</g>
<!-- Node25&#45;&gt;Node27 -->
<g id="edge32" class="edge"><title>Node25&#45;&gt;Node27</title>
<path fill="none" stroke="midnightblue" d="M515.554,-161.82C527.378,-152.145 542.286,-139.948 552.203,-131.834"/>
<polygon fill="midnightblue" stroke="midnightblue" points="513.127,-159.283 507.604,-168.324 517.56,-164.7 513.127,-159.283"/>
</g>
<!-- Node28&#45;&gt;Node14 -->
<g id="edge34" class="edge"><title>Node28&#45;&gt;Node14</title>
<path fill="none" stroke="midnightblue" d="M864.48,-221.304C833.578,-211.129 789.527,-196.625 761.865,-187.516"/>
<polygon fill="midnightblue" stroke="midnightblue" points="863.421,-224.64 874.014,-224.444 865.61,-217.992 863.421,-224.64"/>
</g>
<!-- Node28&#45;&gt;Node17 -->
<g id="edge36" class="edge"><title>Node28&#45;&gt;Node17</title>
<path fill="none" stroke="midnightblue" d="M940.522,-220.536C956.011,-213.574 972.082,-203.156 981,-188 995.63,-163.137 958.638,-142.631 932.133,-131.66"/>
<polygon fill="midnightblue" stroke="midnightblue" points="938.944,-217.4 931.023,-224.436 941.603,-223.876 938.944,-217.4"/>
</g>
<!-- Node28&#45;&gt;Node26 -->
<g id="edge35" class="edge"><title>Node28&#45;&gt;Node26</title>
<path fill="none" stroke="midnightblue" d="M876.039,-218.944C863.151,-210.781 847.405,-199.798 835,-188 816.224,-170.143 798.874,-144.823 790.412,-131.677"/>
<polygon fill="midnightblue" stroke="midnightblue" points="874.479,-222.094 884.829,-224.36 878.152,-216.134 874.479,-222.094"/>
</g>
<!-- Node31&#45;&gt;Node3 -->
<g id="edge56" class="edge"><title>Node31&#45;&gt;Node3</title>
<path fill="none" stroke="midnightblue" d="M657.735,-440.144C665.401,-430.736 674.633,-419.405 680.869,-411.751"/>
<polygon fill="midnightblue" stroke="midnightblue" points="654.869,-438.12 651.266,-448.083 660.296,-442.541 654.869,-438.12"/>
</g>
<!-- Node31&#45;&gt;Node15 -->
<g id="edge58" class="edge"><title>Node31&#45;&gt;Node15</title>
<path fill="none" stroke="midnightblue" d="M605.916,-448.072C433.871,-420.672 383.283,-453.472 218,-412 145.942,-393.92 64,-421.291 64,-347 64,-347 64,-347 64,-289 64,-251.188 64,-206.064 64,-187.558"/>
<polygon fill="midnightblue" stroke="midnightblue" points="605.372,-451.53 615.806,-449.692 606.503,-444.622 605.372,-451.53"/>
</g>
<!-- Node31&#45;&gt;Node29 -->
<g id="edge59" class="edge"><title>Node31&#45;&gt;Node29</title>
<path fill="none" stroke="midnightblue" d="M605.889,-447.69C524.605,-427.461 340.193,-379.433 323,-356 297.456,-321.184 322.148,-265.02 333.233,-243.64"/>
<polygon fill="midnightblue" stroke="midnightblue" points="605.183,-451.121 615.732,-450.129 606.867,-444.327 605.183,-451.121"/>
</g>
<!-- Node32 -->
<g id="node32" class="node"><title>Node32</title>
<g id="a_node32"><a xlink:href="../../de/d76/Array_8hpp.html" target="_top" xlink:title=" ">
<polygon fill="white" stroke="black" points="570.5,-392.5 570.5,-411.5 629.5,-411.5 629.5,-392.5 570.5,-392.5"/>
<text text-anchor="middle" x="600" y="-399.5" font-family="Helvetica,sans-Serif" font-size="10.00">Array.hpp</text>
</a>
</g>
</g>
<!-- Node31&#45;&gt;Node32 -->
<g id="edge41" class="edge"><title>Node31&#45;&gt;Node32</title>
<path fill="none" stroke="midnightblue" d="M630.265,-440.144C622.599,-430.736 613.367,-419.405 607.131,-411.751"/>
<polygon fill="midnightblue" stroke="midnightblue" points="627.704,-442.541 636.734,-448.083 633.131,-438.12 627.704,-442.541"/>
</g>
<!-- Node38 -->
<g id="node38" class="node"><title>Node38</title>
<g id="a_node38"><a xlink:href="../../d1/d40/BitArray_8hpp.html" target="_top" xlink:title=" ">
<polygon fill="white" stroke="black" points="1028.5,-168.5 1028.5,-187.5 1099.5,-187.5 1099.5,-168.5 1028.5,-168.5"/>
<text text-anchor="middle" x="1064" y="-175.5" font-family="Helvetica,sans-Serif" font-size="10.00">BitArray.hpp</text>
</a>
</g>
</g>
<!-- Node31&#45;&gt;Node38 -->
<g id="edge52" class="edge"><title>Node31&#45;&gt;Node38</title>
<path fill="none" stroke="midnightblue" d="M671.83,-444.173C690.446,-435.437 715.397,-423.427 737,-412 796.84,-380.348 809.029,-367.404 869,-336 902.111,-318.662 914.539,-321.657 945,-300 993.987,-265.172 1040.47,-209.015 1057.33,-187.638"/>
<polygon fill="midnightblue" stroke="midnightblue" points="670.305,-441.022 662.723,-448.423 673.265,-447.365 670.305,-441.022"/>
</g>
<!-- Node39 -->
<g id="node39" class="node"><title>Node39</title>
<g id="a_node39"><a xlink:href="../../d6/df4/Exit_8cpp.html" target="_top" xlink:title=" ">
<polygon fill="white" stroke="black" points="227.5,-392.5 227.5,-411.5 280.5,-411.5 280.5,-392.5 227.5,-392.5"/>
<text text-anchor="middle" x="254" y="-399.5" font-family="Helvetica,sans-Serif" font-size="10.00">Exit.cpp</text>
</a>
</g>
</g>
<!-- Node31&#45;&gt;Node39 -->
<g id="edge57" class="edge"><title>Node31&#45;&gt;Node39</title>
<path fill="none" stroke="midnightblue" d="M605.692,-447.971C467.802,-423.979 429.453,-434.455 295,-412 290.4,-411.232 285.537,-410.285 280.831,-409.297"/>
<polygon fill="midnightblue" stroke="midnightblue" points="605.338,-451.462 615.795,-449.758 606.558,-444.569 605.338,-451.462"/>
</g>
<!-- Node32&#45;&gt;Node14 -->
<g id="edge44" class="edge"><title>Node32&#45;&gt;Node14</title>
<path fill="none" stroke="midnightblue" d="M639.431,-390.454C669.1,-381.686 706.256,-368.643 716,-356 756.21,-303.828 743.354,-215.94 737.9,-187.888"/>
<polygon fill="midnightblue" stroke="midnightblue" points="638.347,-387.124 629.707,-393.256 640.285,-393.85 638.347,-387.124"/>
</g>
<!-- Node33 -->
<g id="node33" class="node"><title>Node33</title>
<g id="a_node33"><a xlink:href="../../d5/db6/ArrayHelpers_8hpp.html" target="_top" xlink:title=" ">
<polygon fill="white" stroke="black" points="844,-280.5 844,-299.5 936,-299.5 936,-280.5 844,-280.5"/>
<text text-anchor="middle" x="890" y="-287.5" font-family="Helvetica,sans-Serif" font-size="10.00">ArrayHelpers.hpp</text>
</a>
</g>
</g>
<!-- Node32&#45;&gt;Node33 -->
<g id="edge42" class="edge"><title>Node32&#45;&gt;Node33</title>
<path fill="none" stroke="midnightblue" d="M639.583,-390.792C670.129,-382.517 713.236,-369.967 750,-356 795.843,-338.584 847.685,-312.852 873.523,-299.593"/>
<polygon fill="midnightblue" stroke="midnightblue" points="638.487,-387.462 629.733,-393.431 640.299,-394.224 638.487,-387.462"/>
</g>
<!-- Node34 -->
<g id="node34" class="node"><title>Node34</title>
<g id="a_node34"><a xlink:href="../../d4/d35/Hardware-Types_8hpp.html" target="_top" xlink:title=" ">
<polygon fill="white" stroke="black" points="332.5,-336.5 332.5,-355.5 439.5,-355.5 439.5,-336.5 332.5,-336.5"/>
<text text-anchor="middle" x="386" y="-343.5" font-family="Helvetica,sans-Serif" font-size="10.00">Hardware&#45;Types.hpp</text>
</a>
</g>
</g>
<!-- Node32&#45;&gt;Node34 -->
<g id="edge45" class="edge"><title>Node32&#45;&gt;Node34</title>
<path fill="none" stroke="midnightblue" d="M560.462,-391.023C520.036,-380.822 457.911,-365.146 419.732,-355.512"/>
<polygon fill="midnightblue" stroke="midnightblue" points="559.692,-394.438 570.244,-393.492 561.405,-387.651 559.692,-394.438"/>
</g>
<!-- Node35 -->
<g id="node35" class="node"><title>Node35</title>
<g id="a_node35"><a xlink:href="../../d1/dde/BiQuad_8hpp.html" target="_top" xlink:title=" ">
<polygon fill="white" stroke="black" points="458,-336.5 458,-355.5 526,-355.5 526,-336.5 458,-336.5"/>
<text text-anchor="middle" x="492" y="-343.5" font-family="Helvetica,sans-Serif" font-size="10.00">BiQuad.hpp</text>
</a>
</g>
</g>
<!-- Node32&#45;&gt;Node35 -->
<g id="edge49" class="edge"><title>Node32&#45;&gt;Node35</title>
<path fill="none" stroke="midnightblue" d="M573.452,-387.726C553.454,-377.727 526.613,-364.307 509.309,-355.655"/>
<polygon fill="midnightblue" stroke="midnightblue" points="572.138,-390.982 582.648,-392.324 575.269,-384.721 572.138,-390.982"/>
</g>
<!-- Node36 -->
<g id="node36" class="node"><title>Node36</title>
<g id="a_node36"><a xlink:href="../../d2/d3b/FIRFilter_8hpp.html" target="_top" xlink:title=" ">
<polygon fill="white" stroke="black" points="544,-336.5 544,-355.5 618,-355.5 618,-336.5 544,-336.5"/>
<text text-anchor="middle" x="581" y="-343.5" font-family="Helvetica,sans-Serif" font-size="10.00">FIRFilter.hpp</text>
</a>
</g>
</g>
<!-- Node32&#45;&gt;Node36 -->
<g id="edge50" class="edge"><title>Node32&#45;&gt;Node36</title>
<path fill="none" stroke="midnightblue" d="M593.454,-382.396C590.276,-373.362 586.607,-362.936 584.079,-355.751"/>
<polygon fill="midnightblue" stroke="midnightblue" points="590.242,-383.812 596.863,-392.083 596.845,-381.488 590.242,-383.812"/>
</g>
<!-- Node37 -->
<g id="node37" class="node"><title>Node37</title>
<g id="a_node37"><a xlink:href="../../dc/d64/IIRFilter_8hpp.html" target="_top" xlink:title=" ">
<polygon fill="white" stroke="black" points="636.5,-336.5 636.5,-355.5 707.5,-355.5 707.5,-336.5 636.5,-336.5"/>
<text text-anchor="middle" x="672" y="-343.5" font-family="Helvetica,sans-Serif" font-size="10.00">IIRFilter.hpp</text>
</a>
</g>
</g>
<!-- Node32&#45;&gt;Node37 -->
<g id="edge51" class="edge"><title>Node32&#45;&gt;Node37</title>
<path fill="none" stroke="midnightblue" d="M619.866,-386.101C632.823,-376.382 649.297,-364.027 660.221,-355.834"/>
<polygon fill="midnightblue" stroke="midnightblue" points="617.468,-383.524 611.568,-392.324 621.668,-389.124 617.468,-383.524"/>
</g>
<!-- Node33&#45;&gt;Node28 -->
<g id="edge43" class="edge"><title>Node33&#45;&gt;Node28</title>
<path fill="none" stroke="midnightblue" d="M893.5,-270.101C895.16,-261.136 897.063,-250.858 898.379,-243.751"/>
<polygon fill="midnightblue" stroke="midnightblue" points="890.031,-269.613 891.651,-280.083 896.914,-270.888 890.031,-269.613"/>
</g>
<!-- Node34&#45;&gt;Node4 -->
<g id="edge47" class="edge"><title>Node34&#45;&gt;Node4</title>
<path fill="none" stroke="midnightblue" d="M347.469,-333.568C313.136,-323.381 263.667,-308.703 232.704,-299.516"/>
<polygon fill="midnightblue" stroke="midnightblue" points="346.579,-336.954 357.162,-336.444 348.57,-330.244 346.579,-336.954"/>
</g>
<!-- Node34&#45;&gt;Node13 -->
<g id="edge46" class="edge"><title>Node34&#45;&gt;Node13</title>
<path fill="none" stroke="midnightblue" d="M391.116,-326.765C396.481,-306.679 404.597,-273.33 408,-244 412.867,-202.052 411.324,-151.382 410.437,-131.547"/>
<polygon fill="midnightblue" stroke="midnightblue" points="387.729,-325.881 388.465,-336.45 394.481,-327.729 387.729,-325.881"/>
</g>
<!-- Node34&#45;&gt;Node22 -->
<g id="edge48" class="edge"><title>Node34&#45;&gt;Node22</title>
<path fill="none" stroke="midnightblue" d="M406.267,-330.436C453.103,-296.779 567.689,-214.436 605.025,-187.605"/>
<polygon fill="midnightblue" stroke="midnightblue" points="404.173,-327.631 398.094,-336.309 408.258,-333.315 404.173,-327.631"/>
</g>
<!-- Node38&#45;&gt;Node17 -->
<g id="edge54" class="edge"><title>Node38&#45;&gt;Node17</title>
<path fill="none" stroke="midnightblue" d="M1029.83,-165.172C1000.46,-155.004 958.802,-140.585 932.603,-131.516"/>
<polygon fill="midnightblue" stroke="midnightblue" points="1028.69,-168.48 1039.28,-168.444 1030.98,-161.865 1028.69,-168.48"/>
</g>
<!-- Node38&#45;&gt;Node20 -->
<g id="edge55" class="edge"><title>Node38&#45;&gt;Node20</title>
<path fill="none" stroke="midnightblue" d="M1045.85,-161.255C1029.79,-147.608 1005.47,-127.65 983,-112 963.188,-98.2018 939.054,-84.1845 923.61,-75.543"/>
<polygon fill="midnightblue" stroke="midnightblue" points="1043.99,-164.27 1053.86,-168.119 1048.55,-158.955 1043.99,-164.27"/>
</g>
<!-- Node38&#45;&gt;Node26 -->
<g id="edge53" class="edge"><title>Node38&#45;&gt;Node26</title>
<path fill="none" stroke="midnightblue" d="M1018.41,-168.176C964.466,-157.735 875.554,-140.526 824.449,-130.635"/>
<polygon fill="midnightblue" stroke="midnightblue" points="1017.9,-171.642 1028.38,-170.106 1019.23,-164.769 1017.9,-171.642"/>
</g>
<!-- Node40&#45;&gt;Node1 -->
<g id="edge62" class="edge"><title>Node40&#45;&gt;Node1</title>
<path fill="none" stroke="midnightblue" d="M752.577,-471.586C728.971,-481.687 694.217,-495.596 670.321,-504.444"/>
<polygon fill="midnightblue" stroke="midnightblue" points="754.169,-474.711 761.947,-467.516 751.38,-468.29 754.169,-474.711"/>
</g>
<!-- Node40&#45;&gt;Node3 -->
<g id="edge61" class="edge"><title>Node40&#45;&gt;Node3</title>
<path fill="none" stroke="midnightblue" d="M754.962,-443.177C738.401,-433.241 716.582,-420.149 702.424,-411.655"/>
<polygon fill="midnightblue" stroke="midnightblue" points="753.164,-446.18 763.54,-448.324 756.766,-440.178 753.164,-446.18"/>
</g>
<!-- Node40&#45;&gt;Node6 -->
<g id="edge63" class="edge"><title>Node40&#45;&gt;Node6</title>
<path fill="none" stroke="midnightblue" d="M842.535,-450.354C944.892,-438 1133,-407.119 1133,-347 1133,-347 1133,-347 1133,-289 1133,-250.932 1143.07,-206.313 1147.71,-187.769"/>
<polygon fill="midnightblue" stroke="midnightblue" points="841.824,-446.913 832.303,-451.561 842.645,-453.865 841.824,-446.913"/>
</g>
<!-- Node40&#45;&gt;Node22 -->
<g id="edge67" class="edge"><title>Node40&#45;&gt;Node22</title>
<path fill="none" stroke="midnightblue" d="M773.579,-438.701C767.27,-414.342 754.378,-370.344 736,-336 702.759,-273.879 645.96,-210.073 625.041,-187.519"/>
<polygon fill="midnightblue" stroke="midnightblue" points="770.185,-439.557 776.011,-448.406 776.976,-437.855 770.185,-439.557"/>
</g>
<!-- Node41 -->
<g id="node41" class="node"><title>Node41</title>
<g id="a_node41"><a xlink:href="../../d1/d1f/ShiftRegisterOutRGB_8hpp.html" target="_top" xlink:title=" ">
<polygon fill="white" stroke="black" points="878,-392.5 878,-411.5 1008,-411.5 1008,-392.5 878,-392.5"/>
<text text-anchor="middle" x="943" y="-399.5" font-family="Helvetica,sans-Serif" font-size="10.00">ShiftRegisterOutRGB.hpp</text>
</a>
</g>
</g>
<!-- Node40&#45;&gt;Node41 -->
<g id="edge64" class="edge"><title>Node40&#45;&gt;Node41</title>
<path fill="none" stroke="midnightblue" d="M813.736,-445.304C844.827,-435.129 889.147,-420.625 916.978,-411.516"/>
<polygon fill="midnightblue" stroke="midnightblue" points="812.56,-442.007 804.145,-448.444 814.737,-448.659 812.56,-442.007"/>
</g>
<!-- Node41&#45;&gt;Node16 -->
<g id="edge65" class="edge"><title>Node41&#45;&gt;Node16</title>
<path fill="none" stroke="midnightblue" d="M979.237,-388.154C993.669,-381.046 1008.78,-370.622 1017,-356 1021.36,-348.252 1017.94,-344.839 1017,-336 1011.64,-285.375 1023.71,-264.604 993,-224 979.403,-206.021 956.509,-194.49 937.904,-187.606"/>
<polygon fill="midnightblue" stroke="midnightblue" points="977.603,-385.051 969.929,-392.356 980.484,-391.431 977.603,-385.051"/>
</g>
<!-- Node42 -->
<g id="node42" class="node"><title>Node42</title>
<g id="a_node42"><a xlink:href="../../db/d0b/ShiftRegisterOutRGB_8cpp.html" target="_top" xlink:title=" ">
<polygon fill="white" stroke="black" points="878,-336.5 878,-355.5 1008,-355.5 1008,-336.5 878,-336.5"/>
<text text-anchor="middle" x="943" y="-343.5" font-family="Helvetica,sans-Serif" font-size="10.00">ShiftRegisterOutRGB.cpp</text>
</a>
</g>
</g>
<!-- Node41&#45;&gt;Node42 -->
<g id="edge66" class="edge"><title>Node41&#45;&gt;Node42</title>
<path fill="none" stroke="midnightblue" d="M943,-381.805C943,-372.91 943,-362.78 943,-355.751"/>
<polygon fill="midnightblue" stroke="midnightblue" points="939.5,-382.083 943,-392.083 946.5,-382.083 939.5,-382.083"/>
</g>
</g>
</svg>
