<?xml version="1.0" encoding="UTF-8" standalone="no"?>
<!DOCTYPE svg PUBLIC "-//W3C//DTD SVG 1.1//EN"
 "http://www.w3.org/Graphics/SVG/1.1/DTD/svg11.dtd">
<!-- Generated by graphviz version 2.38.0 (20140413.2041)
 -->
<!-- Title: Debug.hpp Pages: 1 -->
<svg width="2079pt" height="532pt"
 viewBox="0.00 0.00 2078.50 532.00" xmlns="http://www.w3.org/2000/svg" xmlns:xlink="http://www.w3.org/1999/xlink">
<g id="graph0" class="graph" transform="scale(1 1) rotate(0) translate(4 528)">
<title>Debug.hpp</title>
<polygon fill="white" stroke="none" points="-4,4 -4,-528 2074.5,-528 2074.5,4 -4,4"/>
<!-- Node1 -->
<g id="node1" class="node"><title>Node1</title>
<g id="a_node1"><a xlink:title=" ">
<polygon fill="#bfbfbf" stroke="black" points="904.5,-504.5 904.5,-523.5 968.5,-523.5 968.5,-504.5 904.5,-504.5"/>
<text text-anchor="middle" x="936.5" y="-511.5" font-family="Helvetica,sans-Serif" font-size="10.00">Debug.hpp</text>
</a>
</g>
</g>
<!-- Node2 -->
<g id="node2" class="node"><title>Node2</title>
<g id="a_node2"><a xlink:href="../../de/dd1/LinkedList_8hpp.html" target="_top" xlink:title=" ">
<polygon fill="white" stroke="black" points="896.5,-448.5 896.5,-467.5 976.5,-467.5 976.5,-448.5 896.5,-448.5"/>
<text text-anchor="middle" x="936.5" y="-455.5" font-family="Helvetica,sans-Serif" font-size="10.00">LinkedList.hpp</text>
</a>
</g>
</g>
<!-- Node1&#45;&gt;Node2 -->
<g id="edge1" class="edge"><title>Node1&#45;&gt;Node2</title>
<path fill="none" stroke="midnightblue" d="M936.5,-493.805C936.5,-484.91 936.5,-474.78 936.5,-467.751"/>
<polygon fill="midnightblue" stroke="midnightblue" points="933,-494.083 936.5,-504.083 940,-494.083 933,-494.083"/>
</g>
<!-- Node16 -->
<g id="node16" class="node"><title>Node16</title>
<g id="a_node16"><a xlink:href="../../df/d66/Debug_8cpp.html" target="_top" xlink:title=" ">
<polygon fill="white" stroke="black" points="1630.5,-448.5 1630.5,-467.5 1694.5,-467.5 1694.5,-448.5 1630.5,-448.5"/>
<text text-anchor="middle" x="1662.5" y="-455.5" font-family="Helvetica,sans-Serif" font-size="10.00">Debug.cpp</text>
</a>
</g>
</g>
<!-- Node1&#45;&gt;Node16 -->
<g id="edge18" class="edge"><title>Node1&#45;&gt;Node16</title>
<path fill="none" stroke="midnightblue" d="M978.923,-512.428C1086.77,-510.496 1379.97,-502.244 1621.5,-468 1624.39,-467.591 1627.37,-467.09 1630.35,-466.536"/>
<polygon fill="midnightblue" stroke="midnightblue" points="978.714,-508.931 968.775,-512.601 978.833,-515.93 978.714,-508.931"/>
</g>
<!-- Node17 -->
<g id="node17" class="node"><title>Node17</title>
<g id="a_node17"><a xlink:href="../../d1/d93/Error_8hpp.html" target="_top" xlink:title=" ">
<polygon fill="white" stroke="black" points="1556.5,-448.5 1556.5,-467.5 1612.5,-467.5 1612.5,-448.5 1556.5,-448.5"/>
<text text-anchor="middle" x="1584.5" y="-455.5" font-family="Helvetica,sans-Serif" font-size="10.00">Error.hpp</text>
</a>
</g>
</g>
<!-- Node1&#45;&gt;Node17 -->
<g id="edge19" class="edge"><title>Node1&#45;&gt;Node17</title>
<path fill="none" stroke="midnightblue" d="M978.738,-509.48C1101.13,-499.281 1453.81,-469.891 1556.27,-461.352"/>
<polygon fill="midnightblue" stroke="midnightblue" points="978.309,-506.004 968.634,-510.322 978.891,-512.979 978.309,-506.004"/>
</g>
<!-- Node46 -->
<g id="node46" class="node"><title>Node46</title>
<g id="a_node46"><a xlink:href="../../d2/dd5/SettingsWrapper_8hpp.html" target="_top" xlink:title=" ">
<polygon fill="white" stroke="black" points="632.5,-448.5 632.5,-467.5 740.5,-467.5 740.5,-448.5 632.5,-448.5"/>
<text text-anchor="middle" x="686.5" y="-455.5" font-family="Helvetica,sans-Serif" font-size="10.00">SettingsWrapper.hpp</text>
</a>
</g>
</g>
<!-- Node1&#45;&gt;Node46 -->
<g id="edge71" class="edge"><title>Node1&#45;&gt;Node46</title>
<path fill="none" stroke="midnightblue" d="M894.443,-504.988C845.704,-494.965 766.526,-477.872 721.158,-467.587"/>
<polygon fill="midnightblue" stroke="midnightblue" points="893.86,-508.441 904.358,-507.015 895.261,-501.583 893.86,-508.441"/>
</g>
<!-- Node3 -->
<g id="node3" class="node"><title>Node3</title>
<g id="a_node3"><a xlink:href="../../d4/d93/Updatable_8hpp.html" target="_top" xlink:title=" ">
<polygon fill="white" stroke="black" points="930.5,-392.5 930.5,-411.5 1010.5,-411.5 1010.5,-392.5 930.5,-392.5"/>
<text text-anchor="middle" x="970.5" y="-399.5" font-family="Helvetica,sans-Serif" font-size="10.00">Updatable.hpp</text>
</a>
</g>
</g>
<!-- Node2&#45;&gt;Node3 -->
<g id="edge2" class="edge"><title>Node2&#45;&gt;Node3</title>
<path fill="none" stroke="midnightblue" d="M947.477,-439.566C953.327,-430.275 960.27,-419.248 964.99,-411.751"/>
<polygon fill="midnightblue" stroke="midnightblue" points="944.481,-437.756 942.114,-448.083 950.404,-441.486 944.481,-437.756"/>
</g>
<!-- Node4 -->
<g id="node4" class="node"><title>Node4</title>
<g id="a_node4"><a xlink:href="../../d4/d57/ExtendedIOElement_8hpp.html" target="_top" xlink:title=" ">
<polygon fill="white" stroke="black" points="1090,-224.5 1090,-243.5 1213,-243.5 1213,-224.5 1090,-224.5"/>
<text text-anchor="middle" x="1151.5" y="-231.5" font-family="Helvetica,sans-Serif" font-size="10.00">ExtendedIOElement.hpp</text>
</a>
</g>
</g>
<!-- Node2&#45;&gt;Node4 -->
<g id="edge3" class="edge"><title>Node2&#45;&gt;Node4</title>
<path fill="none" stroke="midnightblue" d="M925.851,-438.871C919.387,-425.324 913.742,-406.689 921.5,-392 965.303,-309.064 1074.8,-261.666 1125.27,-243.572"/>
<polygon fill="midnightblue" stroke="midnightblue" points="922.964,-440.898 930.745,-448.089 929.147,-437.615 922.964,-440.898"/>
</g>
<!-- Node5 -->
<g id="node5" class="node"><title>Node5</title>
<g id="a_node5"><a xlink:href="../../d2/d05/StaticSizeExtendedIOElement_8hpp.html" target="_top" xlink:title=" ">
<polygon fill="white" stroke="black" points="1246.5,-168.5 1246.5,-187.5 1414.5,-187.5 1414.5,-168.5 1246.5,-168.5"/>
<text text-anchor="middle" x="1330.5" y="-175.5" font-family="Helvetica,sans-Serif" font-size="10.00">StaticSizeExtendedIOElement.hpp</text>
</a>
</g>
</g>
<!-- Node4&#45;&gt;Node5 -->
<g id="edge4" class="edge"><title>Node4&#45;&gt;Node5</title>
<path fill="none" stroke="midnightblue" d="M1189.83,-221.436C1223.58,-211.255 1271.95,-196.664 1302.27,-187.516"/>
<polygon fill="midnightblue" stroke="midnightblue" points="1188.43,-218.204 1179.86,-224.444 1190.45,-224.906 1188.43,-218.204"/>
</g>
<!-- Node14 -->
<g id="node14" class="node"><title>Node14</title>
<g id="a_node14"><a xlink:href="../../d6/d3c/ExtendedInputOutput_8cpp.html" target="_top" xlink:title=" ">
<polygon fill="white" stroke="black" points="1100.5,-168.5 1100.5,-187.5 1228.5,-187.5 1228.5,-168.5 1100.5,-168.5"/>
<text text-anchor="middle" x="1164.5" y="-175.5" font-family="Helvetica,sans-Serif" font-size="10.00">ExtendedInputOutput.cpp</text>
</a>
</g>
</g>
<!-- Node4&#45;&gt;Node14 -->
<g id="edge16" class="edge"><title>Node4&#45;&gt;Node14</title>
<path fill="none" stroke="midnightblue" d="M1156.05,-214.101C1158.21,-205.136 1160.68,-194.858 1162.39,-187.751"/>
<polygon fill="midnightblue" stroke="midnightblue" points="1152.58,-213.542 1153.65,-224.083 1159.39,-215.18 1152.58,-213.542"/>
</g>
<!-- Node15 -->
<g id="node15" class="node"><title>Node15</title>
<g id="a_node15"><a xlink:href="../../da/d1f/ExtendedIOElement_8cpp.html" target="_top" xlink:title=" ">
<polygon fill="white" stroke="black" points="1433,-168.5 1433,-187.5 1556,-187.5 1556,-168.5 1433,-168.5"/>
<text text-anchor="middle" x="1494.5" y="-175.5" font-family="Helvetica,sans-Serif" font-size="10.00">ExtendedIOElement.cpp</text>
</a>
</g>
</g>
<!-- Node4&#45;&gt;Node15 -->
<g id="edge17" class="edge"><title>Node4&#45;&gt;Node15</title>
<path fill="none" stroke="midnightblue" d="M1215.95,-222.854C1280.75,-212.651 1379.55,-197.098 1440.4,-187.516"/>
<polygon fill="midnightblue" stroke="midnightblue" points="1215.18,-219.431 1205.85,-224.444 1216.27,-226.346 1215.18,-219.431"/>
</g>
<!-- Node6 -->
<g id="node6" class="node"><title>Node6</title>
<g id="a_node6"><a xlink:href="../../d7/def/AnalogMultiplex_8hpp.html" target="_top" xlink:title=" ">
<polygon fill="white" stroke="black" points="1528.5,-112.5 1528.5,-131.5 1632.5,-131.5 1632.5,-112.5 1528.5,-112.5"/>
<text text-anchor="middle" x="1580.5" y="-119.5" font-family="Helvetica,sans-Serif" font-size="10.00">AnalogMultiplex.hpp</text>
</a>
</g>
</g>
<!-- Node5&#45;&gt;Node6 -->
<g id="edge5" class="edge"><title>Node5&#45;&gt;Node6</title>
<path fill="none" stroke="midnightblue" d="M1380.12,-166.281C1427.37,-156.077 1497.54,-140.92 1541.07,-131.516"/>
<polygon fill="midnightblue" stroke="midnightblue" points="1379.15,-162.911 1370.11,-168.444 1380.63,-169.753 1379.15,-162.911"/>
</g>
<!-- Node7 -->
<g id="node7" class="node"><title>Node7</title>
<g id="a_node7"><a xlink:href="../../d2/d25/MAX7219_8hpp.html" target="_top" xlink:title=" ">
<polygon fill="white" stroke="black" points="837.5,-112.5 837.5,-131.5 915.5,-131.5 915.5,-112.5 837.5,-112.5"/>
<text text-anchor="middle" x="876.5" y="-119.5" font-family="Helvetica,sans-Serif" font-size="10.00">MAX7219.hpp</text>
</a>
</g>
</g>
<!-- Node5&#45;&gt;Node7 -->
<g id="edge6" class="edge"><title>Node5&#45;&gt;Node7</title>
<path fill="none" stroke="midnightblue" d="M1248.61,-167.26C1150.23,-155.559 989.253,-136.411 915.557,-127.646"/>
<polygon fill="midnightblue" stroke="midnightblue" points="1248.47,-170.768 1258.81,-168.473 1249.3,-163.817 1248.47,-170.768"/>
</g>
<!-- Node8 -->
<g id="node8" class="node"><title>Node8</title>
<g id="a_node8"><a xlink:href="../../d8/d93/ShiftRegisterOutBase_8hpp.html" target="_top" xlink:title=" ">
<polygon fill="white" stroke="black" points="661,-112.5 661,-131.5 792,-131.5 792,-112.5 661,-112.5"/>
<text text-anchor="middle" x="726.5" y="-119.5" font-family="Helvetica,sans-Serif" font-size="10.00">ShiftRegisterOutBase.hpp</text>
</a>
</g>
</g>
<!-- Node5&#45;&gt;Node8 -->
<g id="edge7" class="edge"><title>Node5&#45;&gt;Node8</title>
<path fill="none" stroke="midnightblue" d="M1236.17,-167.883C1054.1,-151.092 1006.99,-147.73 828.5,-132 816.724,-130.962 804.183,-129.856 792.069,-128.788"/>
<polygon fill="midnightblue" stroke="midnightblue" points="1236.07,-171.389 1246.35,-168.824 1236.72,-164.419 1236.07,-171.389"/>
</g>
<!-- Node9 -->
<g id="node9" class="node"><title>Node9</title>
<g id="a_node9"><a xlink:href="../../d0/db4/ShiftRegisterOut_8hpp.html" target="_top" xlink:title=" ">
<polygon fill="white" stroke="black" points="1186.5,-56.5 1186.5,-75.5 1294.5,-75.5 1294.5,-56.5 1186.5,-56.5"/>
<text text-anchor="middle" x="1240.5" y="-63.5" font-family="Helvetica,sans-Serif" font-size="10.00">ShiftRegisterOut.hpp</text>
</a>
</g>
</g>
<!-- Node8&#45;&gt;Node9 -->
<g id="edge8" class="edge"><title>Node8&#45;&gt;Node9</title>
<path fill="none" stroke="midnightblue" d="M802.323,-113.034C907.247,-102.011 1094.16,-82.3738 1186.22,-72.703"/>
<polygon fill="midnightblue" stroke="midnightblue" points="801.7,-109.58 792.121,-114.106 802.432,-116.542 801.7,-109.58"/>
</g>
<!-- Node11 -->
<g id="node11" class="node"><title>Node11</title>
<g id="a_node11"><a xlink:href="../../d5/d47/ShiftRegisterOutBase_8ipp.html" target="_top" xlink:title=" ">
<polygon fill="white" stroke="black" points="558.5,-56.5 558.5,-75.5 686.5,-75.5 686.5,-56.5 558.5,-56.5"/>
<text text-anchor="middle" x="622.5" y="-63.5" font-family="Helvetica,sans-Serif" font-size="10.00">ShiftRegisterOutBase.ipp</text>
</a>
</g>
</g>
<!-- Node8&#45;&gt;Node11 -->
<g id="edge11" class="edge"><title>Node8&#45;&gt;Node11</title>
<path fill="none" stroke="midnightblue" d="M695.793,-108.096C674.951,-98.0073 648.752,-84.2697 633.822,-75.5164"/>
<polygon fill="midnightblue" stroke="midnightblue" points="694.398,-111.308 704.932,-112.444 697.405,-104.987 694.398,-111.308"/>
</g>
<!-- Node12 -->
<g id="node12" class="node"><title>Node12</title>
<g id="a_node12"><a xlink:href="../../d7/d88/SPIShiftRegisterOut_8hpp.html" target="_top" xlink:title=" ">
<polygon fill="white" stroke="black" points="705,-56.5 705,-75.5 830,-75.5 830,-56.5 705,-56.5"/>
<text text-anchor="middle" x="767.5" y="-63.5" font-family="Helvetica,sans-Serif" font-size="10.00">SPIShiftRegisterOut.hpp</text>
</a>
</g>
</g>
<!-- Node8&#45;&gt;Node12 -->
<g id="edge13" class="edge"><title>Node8&#45;&gt;Node12</title>
<path fill="none" stroke="midnightblue" d="M739.517,-103.855C746.617,-94.5048 755.104,-83.3265 760.856,-75.7511"/>
<polygon fill="midnightblue" stroke="midnightblue" points="736.53,-102.002 733.27,-112.083 742.105,-106.235 736.53,-102.002"/>
</g>
<!-- Node10 -->
<g id="node10" class="node"><title>Node10</title>
<g id="a_node10"><a xlink:href="../../de/d95/ShiftRegisterOut_8ipp.html" target="_top" xlink:title=" ">
<polygon fill="white" stroke="black" points="1188,-0.5 1188,-19.5 1293,-19.5 1293,-0.5 1188,-0.5"/>
<text text-anchor="middle" x="1240.5" y="-7.5" font-family="Helvetica,sans-Serif" font-size="10.00">ShiftRegisterOut.ipp</text>
</a>
</g>
</g>
<!-- Node9&#45;&gt;Node10 -->
<g id="edge9" class="edge"><title>Node9&#45;&gt;Node10</title>
<path fill="none" stroke="midnightblue" d="M1234.03,-46.1005C1233.4,-37.1357 1233.84,-26.8579 1235.37,-19.7511"/>
<polygon fill="midnightblue" stroke="midnightblue" points="1230.57,-46.6216 1235.33,-56.083 1237.51,-45.7134 1230.57,-46.6216"/>
</g>
<!-- Node10&#45;&gt;Node9 -->
<g id="edge10" class="edge"><title>Node10&#45;&gt;Node9</title>
<path fill="none" stroke="midnightblue" d="M1246.96,-29.6911C1247.61,-38.6353 1247.18,-48.9272 1245.67,-56.083"/>
<polygon fill="midnightblue" stroke="midnightblue" points="1250.42,-29.2002 1245.63,-19.7511 1243.48,-30.1262 1250.42,-29.2002"/>
</g>
<!-- Node11&#45;&gt;Node8 -->
<g id="edge12" class="edge"><title>Node11&#45;&gt;Node8</title>
<path fill="none" stroke="midnightblue" d="M653.359,-79.9773C674.049,-89.9979 699.967,-103.585 714.905,-112.324"/>
<polygon fill="midnightblue" stroke="midnightblue" points="654.812,-76.7927 644.278,-75.6545 651.803,-83.1131 654.812,-76.7927"/>
</g>
<!-- Node13 -->
<g id="node13" class="node"><title>Node13</title>
<g id="a_node13"><a xlink:href="../../da/d45/SPIShiftRegisterOut_8ipp.html" target="_top" xlink:title=" ">
<polygon fill="white" stroke="black" points="706.5,-0.5 706.5,-19.5 828.5,-19.5 828.5,-0.5 706.5,-0.5"/>
<text text-anchor="middle" x="767.5" y="-7.5" font-family="Helvetica,sans-Serif" font-size="10.00">SPIShiftRegisterOut.ipp</text>
</a>
</g>
</g>
<!-- Node12&#45;&gt;Node13 -->
<g id="edge14" class="edge"><title>Node12&#45;&gt;Node13</title>
<path fill="none" stroke="midnightblue" d="M761.028,-46.1005C760.396,-37.1357 760.843,-26.8579 762.369,-19.7511"/>
<polygon fill="midnightblue" stroke="midnightblue" points="757.566,-46.6216 762.334,-56.083 764.507,-45.7134 757.566,-46.6216"/>
</g>
<!-- Node13&#45;&gt;Node12 -->
<g id="edge15" class="edge"><title>Node13&#45;&gt;Node12</title>
<path fill="none" stroke="midnightblue" d="M773.958,-29.6911C774.606,-38.6353 774.176,-48.9272 772.666,-56.083"/>
<polygon fill="midnightblue" stroke="midnightblue" points="777.423,-29.2002 772.631,-19.7511 770.485,-30.1262 777.423,-29.2002"/>
</g>
<!-- Node17&#45;&gt;Node3 -->
<g id="edge66" class="edge"><title>Node17&#45;&gt;Node3</title>
<path fill="none" stroke="midnightblue" d="M1546.37,-455.056C1455.67,-450.188 1220.04,-436.108 1024.5,-412 1019.97,-411.442 1015.24,-410.776 1010.55,-410.064"/>
<polygon fill="midnightblue" stroke="midnightblue" points="1546.27,-458.556 1556.45,-455.591 1546.65,-451.566 1546.27,-458.556"/>
</g>
<!-- Node17&#45;&gt;Node14 -->
<g id="edge68" class="edge"><title>Node17&#45;&gt;Node14</title>
<path fill="none" stroke="midnightblue" d="M1584.5,-438.251C1584.5,-416.357 1584.5,-379.052 1584.5,-347 1584.5,-347 1584.5,-347 1584.5,-289 1584.5,-251.642 1332.62,-206.176 1218.98,-187.564"/>
<polygon fill="midnightblue" stroke="midnightblue" points="1581,-438.442 1584.5,-448.442 1588,-438.442 1581,-438.442"/>
</g>
<!-- Node17&#45;&gt;Node15 -->
<g id="edge69" class="edge"><title>Node17&#45;&gt;Node15</title>
<path fill="none" stroke="midnightblue" d="M1622.92,-448.063C1741.95,-429.223 2070.5,-446.275 2070.5,-347 2070.5,-347 2070.5,-347 2070.5,-289 2070.5,-207.279 1977.95,-243.117 1898.5,-224 1779.45,-195.356 1636.2,-184.869 1556.24,-181.084"/>
<polygon fill="midnightblue" stroke="midnightblue" points="1621.96,-444.678 1612.73,-449.871 1623.18,-451.57 1621.96,-444.678"/>
</g>
<!-- Node18 -->
<g id="node18" class="node"><title>Node18</title>
<g id="a_node18"><a xlink:href="../../de/d76/Array_8hpp.html" target="_top" xlink:title=" ">
<polygon fill="white" stroke="black" points="1686,-392.5 1686,-411.5 1745,-411.5 1745,-392.5 1686,-392.5"/>
<text text-anchor="middle" x="1715.5" y="-399.5" font-family="Helvetica,sans-Serif" font-size="10.00">Array.hpp</text>
</a>
</g>
</g>
<!-- Node17&#45;&gt;Node18 -->
<g id="edge20" class="edge"><title>Node17&#45;&gt;Node18</title>
<path fill="none" stroke="midnightblue" d="M1614.82,-444.503C1639.38,-434.38 1673.32,-420.388 1694.84,-411.516"/>
<polygon fill="midnightblue" stroke="midnightblue" points="1613.17,-441.397 1605.26,-448.444 1615.84,-447.868 1613.17,-441.397"/>
</g>
<!-- Node43 -->
<g id="node43" class="node"><title>Node43</title>
<g id="a_node43"><a xlink:href="../../d1/d40/BitArray_8hpp.html" target="_top" xlink:title=" ">
<polygon fill="white" stroke="black" points="597,-168.5 597,-187.5 668,-187.5 668,-168.5 597,-168.5"/>
<text text-anchor="middle" x="632.5" y="-175.5" font-family="Helvetica,sans-Serif" font-size="10.00">BitArray.hpp</text>
</a>
</g>
</g>
<!-- Node17&#45;&gt;Node43 -->
<g id="edge62" class="edge"><title>Node17&#45;&gt;Node43</title>
<path fill="none" stroke="midnightblue" d="M1546.36,-452.612C1378.3,-433.276 712.103,-356.606 709.5,-356 592.892,-328.848 522.114,-348.954 464.5,-244 436.283,-192.598 539.522,-181.623 596.791,-179.43"/>
<polygon fill="midnightblue" stroke="midnightblue" points="1546.14,-456.109 1556.47,-453.775 1546.94,-449.155 1546.14,-456.109"/>
</g>
<!-- Node44 -->
<g id="node44" class="node"><title>Node44</title>
<g id="a_node44"><a xlink:href="../../d6/df4/Exit_8cpp.html" target="_top" xlink:title=" ">
<polygon fill="white" stroke="black" points="1613,-392.5 1613,-411.5 1666,-411.5 1666,-392.5 1613,-392.5"/>
<text text-anchor="middle" x="1639.5" y="-399.5" font-family="Helvetica,sans-Serif" font-size="10.00">Exit.cpp</text>
</a>
</g>
</g>
<!-- Node17&#45;&gt;Node44 -->
<g id="edge67" class="edge"><title>Node17&#45;&gt;Node44</title>
<path fill="none" stroke="midnightblue" d="M1600.79,-441.002C1610.54,-431.433 1622.55,-419.639 1630.59,-411.751"/>
<polygon fill="midnightblue" stroke="midnightblue" points="1598.27,-438.58 1593.58,-448.083 1603.17,-443.575 1598.27,-438.58"/>
</g>
<!-- Node45 -->
<g id="node45" class="node"><title>Node45</title>
<g id="a_node45"><a xlink:href="../../d3/d50/FixedPoint_8hpp.html" target="_top" xlink:title=" ">
<polygon fill="white" stroke="black" points="1763.5,-392.5 1763.5,-411.5 1845.5,-411.5 1845.5,-392.5 1763.5,-392.5"/>
<text text-anchor="middle" x="1804.5" y="-399.5" font-family="Helvetica,sans-Serif" font-size="10.00">FixedPoint.hpp</text>
</a>
</g>
</g>
<!-- Node17&#45;&gt;Node45 -->
<g id="edge70" class="edge"><title>Node17&#45;&gt;Node45</title>
<path fill="none" stroke="midnightblue" d="M1622.54,-447.663C1663.98,-437.492 1729.69,-421.362 1769.78,-411.522"/>
<polygon fill="midnightblue" stroke="midnightblue" points="1621.69,-444.268 1612.81,-450.051 1623.36,-451.066 1621.69,-444.268"/>
</g>
<!-- Node18&#45;&gt;Node6 -->
<g id="edge25" class="edge"><title>Node18&#45;&gt;Node6</title>
<path fill="none" stroke="midnightblue" d="M1691.41,-386.72C1663.85,-368.357 1622.5,-333.689 1622.5,-291 1622.5,-291 1622.5,-291 1622.5,-233 1622.5,-192.934 1597.88,-149.739 1586.34,-131.692"/>
<polygon fill="midnightblue" stroke="midnightblue" points="1689.83,-389.868 1700.14,-392.31 1693.61,-383.972 1689.83,-389.868"/>
</g>
<!-- Node19 -->
<g id="node19" class="node"><title>Node19</title>
<g id="a_node19"><a xlink:href="../../d5/db6/ArrayHelpers_8hpp.html" target="_top" xlink:title=" ">
<polygon fill="white" stroke="black" points="1650.5,-280.5 1650.5,-299.5 1742.5,-299.5 1742.5,-280.5 1650.5,-280.5"/>
<text text-anchor="middle" x="1696.5" y="-287.5" font-family="Helvetica,sans-Serif" font-size="10.00">ArrayHelpers.hpp</text>
</a>
</g>
</g>
<!-- Node18&#45;&gt;Node19 -->
<g id="edge21" class="edge"><title>Node18&#45;&gt;Node19</title>
<path fill="none" stroke="midnightblue" d="M1698.1,-384.819C1690.87,-376.916 1683.29,-366.791 1679.5,-356 1672.55,-336.188 1683.78,-312.102 1691.06,-299.546"/>
<polygon fill="midnightblue" stroke="midnightblue" points="1695.83,-387.506 1705.34,-392.185 1700.83,-382.6 1695.83,-387.506"/>
</g>
<!-- Node22 -->
<g id="node22" class="node"><title>Node22</title>
<g id="a_node22"><a xlink:href="../../d4/d35/Hardware-Types_8hpp.html" target="_top" xlink:title=" ">
<polygon fill="white" stroke="black" points="719,-336.5 719,-355.5 826,-355.5 826,-336.5 719,-336.5"/>
<text text-anchor="middle" x="772.5" y="-343.5" font-family="Helvetica,sans-Serif" font-size="10.00">Hardware&#45;Types.hpp</text>
</a>
</g>
</g>
<!-- Node18&#45;&gt;Node22 -->
<g id="edge26" class="edge"><title>Node18&#45;&gt;Node22</title>
<path fill="none" stroke="midnightblue" d="M1675.52,-392.14C1675.18,-392.092 1674.84,-392.045 1674.5,-392 1354.75,-349.231 966.324,-346.142 826.158,-346.577"/>
<polygon fill="midnightblue" stroke="midnightblue" points="1675.15,-395.628 1685.6,-393.834 1676.32,-388.725 1675.15,-395.628"/>
</g>
<!-- Node37 -->
<g id="node37" class="node"><title>Node37</title>
<g id="a_node37"><a xlink:href="../../d1/dde/BiQuad_8hpp.html" target="_top" xlink:title=" ">
<polygon fill="white" stroke="black" points="1935.5,-280.5 1935.5,-299.5 2003.5,-299.5 2003.5,-280.5 1935.5,-280.5"/>
<text text-anchor="middle" x="1969.5" y="-287.5" font-family="Helvetica,sans-Serif" font-size="10.00">BiQuad.hpp</text>
</a>
</g>
</g>
<!-- Node18&#45;&gt;Node37 -->
<g id="edge53" class="edge"><title>Node18&#45;&gt;Node37</title>
<path fill="none" stroke="midnightblue" d="M1755.21,-392.298C1826.72,-383.042 1977.13,-397.772 2013.5,-356 2029.7,-337.397 2000.99,-312.607 1982.79,-299.678"/>
<polygon fill="midnightblue" stroke="midnightblue" points="1754.6,-388.851 1745.25,-393.848 1755.67,-395.768 1754.6,-388.851"/>
</g>
<!-- Node38 -->
<g id="node38" class="node"><title>Node38</title>
<g id="a_node38"><a xlink:href="../../d2/d3b/FIRFilter_8hpp.html" target="_top" xlink:title=" ">
<polygon fill="white" stroke="black" points="1764.5,-336.5 1764.5,-355.5 1838.5,-355.5 1838.5,-336.5 1764.5,-336.5"/>
<text text-anchor="middle" x="1801.5" y="-343.5" font-family="Helvetica,sans-Serif" font-size="10.00">FIRFilter.hpp</text>
</a>
</g>
</g>
<!-- Node18&#45;&gt;Node38 -->
<g id="edge55" class="edge"><title>Node18&#45;&gt;Node38</title>
<path fill="none" stroke="midnightblue" d="M1737.95,-386.901C1753.72,-376.999 1774.31,-364.071 1787.72,-355.655"/>
<polygon fill="midnightblue" stroke="midnightblue" points="1735.93,-384.042 1729.32,-392.324 1739.65,-389.97 1735.93,-384.042"/>
</g>
<!-- Node40 -->
<g id="node40" class="node"><title>Node40</title>
<g id="a_node40"><a xlink:href="../../dc/d64/IIRFilter_8hpp.html" target="_top" xlink:title=" ">
<polygon fill="white" stroke="black" points="1846,-280.5 1846,-299.5 1917,-299.5 1917,-280.5 1846,-280.5"/>
<text text-anchor="middle" x="1881.5" y="-287.5" font-family="Helvetica,sans-Serif" font-size="10.00">IIRFilter.hpp</text>
</a>
</g>
</g>
<!-- Node18&#45;&gt;Node40 -->
<g id="edge57" class="edge"><title>Node18&#45;&gt;Node40</title>
<path fill="none" stroke="midnightblue" d="M1755.18,-390.971C1788.68,-381.884 1833.38,-368.103 1847.5,-356 1865.29,-340.749 1875.07,-313.842 1879.17,-299.913"/>
<polygon fill="midnightblue" stroke="midnightblue" points="1753.95,-387.676 1745.19,-393.633 1755.76,-394.44 1753.95,-387.676"/>
</g>
<!-- Node41 -->
<g id="node41" class="node"><title>Node41</title>
<g id="a_node41"><a xlink:href="../../dc/d9c/SMA_8hpp.html" target="_top" xlink:title=" ">
<polygon fill="white" stroke="black" points="1689,-336.5 1689,-355.5 1746,-355.5 1746,-336.5 1689,-336.5"/>
<text text-anchor="middle" x="1717.5" y="-343.5" font-family="Helvetica,sans-Serif" font-size="10.00">SMA.hpp</text>
</a>
</g>
</g>
<!-- Node18&#45;&gt;Node41 -->
<g id="edge58" class="edge"><title>Node18&#45;&gt;Node41</title>
<path fill="none" stroke="midnightblue" d="M1716.21,-381.805C1716.54,-372.91 1716.92,-362.78 1717.18,-355.751"/>
<polygon fill="midnightblue" stroke="midnightblue" points="1712.7,-381.96 1715.83,-392.083 1719.7,-382.219 1712.7,-381.96"/>
</g>
<!-- Node42 -->
<g id="node42" class="node"><title>Node42</title>
<g id="a_node42"><a xlink:href="../../d2/d03/TransferFunction_8hpp.html" target="_top" xlink:title=" ">
<polygon fill="white" stroke="black" points="1895,-336.5 1895,-355.5 2004,-355.5 2004,-336.5 1895,-336.5"/>
<text text-anchor="middle" x="1949.5" y="-343.5" font-family="Helvetica,sans-Serif" font-size="10.00">TransferFunction.hpp</text>
</a>
</g>
</g>
<!-- Node18&#45;&gt;Node42 -->
<g id="edge59" class="edge"><title>Node18&#45;&gt;Node42</title>
<path fill="none" stroke="midnightblue" d="M1754.9,-391.908C1798.85,-381.766 1869.41,-365.483 1912.4,-355.561"/>
<polygon fill="midnightblue" stroke="midnightblue" points="1754.09,-388.502 1745.14,-394.161 1755.67,-395.323 1754.09,-388.502"/>
</g>
<!-- Node19&#45;&gt;Node5 -->
<g id="edge22" class="edge"><title>Node19&#45;&gt;Node5</title>
<path fill="none" stroke="midnightblue" d="M1678.81,-273.898C1660.12,-258.789 1629.16,-236.102 1598.5,-224 1563.56,-210.205 1468.38,-196.16 1401.43,-187.513"/>
<polygon fill="midnightblue" stroke="midnightblue" points="1676.78,-276.761 1686.72,-280.435 1681.24,-271.366 1676.78,-276.761"/>
</g>
<!-- Node20 -->
<g id="node20" class="node"><title>Node20</title>
<g id="a_node20"><a xlink:href="../../df/ddc/SOSFilter_8hpp.html" target="_top" xlink:title=" ">
<polygon fill="white" stroke="black" points="1811.5,-224.5 1811.5,-243.5 1889.5,-243.5 1889.5,-224.5 1811.5,-224.5"/>
<text text-anchor="middle" x="1850.5" y="-231.5" font-family="Helvetica,sans-Serif" font-size="10.00">SOSFilter.hpp</text>
</a>
</g>
</g>
<!-- Node19&#45;&gt;Node20 -->
<g id="edge23" class="edge"><title>Node19&#45;&gt;Node20</title>
<path fill="none" stroke="midnightblue" d="M1730.61,-277.039C1759.59,-266.879 1800.46,-252.546 1826.21,-243.516"/>
<polygon fill="midnightblue" stroke="midnightblue" points="1729.18,-273.832 1720.9,-280.444 1731.5,-280.437 1729.18,-273.832"/>
</g>
<!-- Node21 -->
<g id="node21" class="node"><title>Node21</title>
<g id="a_node21"><a xlink:href="../../d4/d40/Butterworth_8hpp.html" target="_top" xlink:title=" ">
<polygon fill="white" stroke="black" points="1807.5,-168.5 1807.5,-187.5 1893.5,-187.5 1893.5,-168.5 1807.5,-168.5"/>
<text text-anchor="middle" x="1850.5" y="-175.5" font-family="Helvetica,sans-Serif" font-size="10.00">Butterworth.hpp</text>
</a>
</g>
</g>
<!-- Node20&#45;&gt;Node21 -->
<g id="edge24" class="edge"><title>Node20&#45;&gt;Node21</title>
<path fill="none" stroke="midnightblue" d="M1850.5,-213.805C1850.5,-204.91 1850.5,-194.78 1850.5,-187.751"/>
<polygon fill="midnightblue" stroke="midnightblue" points="1847,-214.083 1850.5,-224.083 1854,-214.083 1847,-214.083"/>
</g>
<!-- Node22&#45;&gt;Node4 -->
<g id="edge51" class="edge"><title>Node22&#45;&gt;Node4</title>
<path fill="none" stroke="midnightblue" d="M795.044,-331.151C823.105,-314.13 869.632,-286.677 888.5,-280 955.097,-256.434 1035.68,-244.976 1089.95,-239.563"/>
<polygon fill="midnightblue" stroke="midnightblue" points="793.02,-328.285 786.302,-336.478 796.663,-334.263 793.02,-328.285"/>
</g>
<!-- Node23 -->
<g id="node23" class="node"><title>Node23</title>
<g id="a_node23"><a xlink:href="../../d9/d4b/ButtonMatrix_8hpp.html" target="_top" xlink:title=" ">
<polygon fill="white" stroke="black" points="589,-280.5 589,-299.5 680,-299.5 680,-280.5 589,-280.5"/>
<text text-anchor="middle" x="634.5" y="-287.5" font-family="Helvetica,sans-Serif" font-size="10.00">ButtonMatrix.hpp</text>
</a>
</g>
</g>
<!-- Node22&#45;&gt;Node23 -->
<g id="edge27" class="edge"><title>Node22&#45;&gt;Node23</title>
<path fill="none" stroke="midnightblue" d="M741.251,-332.772C715.329,-322.629 679.138,-308.467 656.264,-299.516"/>
<polygon fill="midnightblue" stroke="midnightblue" points="740.046,-336.059 750.633,-336.444 742.596,-329.54 740.046,-336.059"/>
</g>
<!-- Node25 -->
<g id="node25" class="node"><title>Node25</title>
<g id="a_node25"><a xlink:href="../../dd/ddf/ExtendedInputOutput_8hpp.html" target="_top" xlink:title=" ">
<polygon fill="white" stroke="black" points="708.5,-280.5 708.5,-299.5 836.5,-299.5 836.5,-280.5 708.5,-280.5"/>
<text text-anchor="middle" x="772.5" y="-287.5" font-family="Helvetica,sans-Serif" font-size="10.00">ExtendedInputOutput.hpp</text>
</a>
</g>
</g>
<!-- Node22&#45;&gt;Node25 -->
<g id="edge30" class="edge"><title>Node22&#45;&gt;Node25</title>
<path fill="none" stroke="midnightblue" d="M772.5,-325.805C772.5,-316.91 772.5,-306.78 772.5,-299.751"/>
<polygon fill="midnightblue" stroke="midnightblue" points="769,-326.083 772.5,-336.083 776,-326.083 769,-326.083"/>
</g>
<!-- Node32 -->
<g id="node32" class="node"><title>Node32</title>
<g id="a_node32"><a xlink:href="../../d8/df3/FilteredAnalog_8hpp.html" target="_top" xlink:title=" ">
<polygon fill="white" stroke="black" points="473.5,-224.5 473.5,-243.5 571.5,-243.5 571.5,-224.5 473.5,-224.5"/>
<text text-anchor="middle" x="522.5" y="-231.5" font-family="Helvetica,sans-Serif" font-size="10.00">FilteredAnalog.hpp</text>
</a>
</g>
</g>
<!-- Node22&#45;&gt;Node32 -->
<g id="edge52" class="edge"><title>Node22&#45;&gt;Node32</title>
<path fill="none" stroke="midnightblue" d="M708.77,-340.102C669.255,-334.741 618.728,-323.513 579.5,-300 555.555,-285.648 536.315,-257.838 527.584,-243.703"/>
<polygon fill="midnightblue" stroke="midnightblue" points="708.464,-343.591 718.824,-341.373 709.342,-336.646 708.464,-343.591"/>
</g>
<!-- Node24 -->
<g id="node24" class="node"><title>Node24</title>
<g id="a_node24"><a xlink:href="../../d5/d41/ButtonMatrix_8ipp.html" target="_top" xlink:title=" ">
<polygon fill="white" stroke="black" points="589.5,-224.5 589.5,-243.5 677.5,-243.5 677.5,-224.5 589.5,-224.5"/>
<text text-anchor="middle" x="633.5" y="-231.5" font-family="Helvetica,sans-Serif" font-size="10.00">ButtonMatrix.ipp</text>
</a>
</g>
</g>
<!-- Node23&#45;&gt;Node24 -->
<g id="edge28" class="edge"><title>Node23&#45;&gt;Node24</title>
<path fill="none" stroke="midnightblue" d="M627.678,-270.101C626.88,-261.136 627.136,-250.858 628.531,-243.751"/>
<polygon fill="midnightblue" stroke="midnightblue" points="624.23,-270.71 629.169,-280.083 631.153,-269.676 624.23,-270.71"/>
</g>
<!-- Node24&#45;&gt;Node23 -->
<g id="edge29" class="edge"><title>Node24&#45;&gt;Node23</title>
<path fill="none" stroke="midnightblue" d="M640.304,-253.691C641.118,-262.635 640.878,-272.927 639.501,-280.083"/>
<polygon fill="midnightblue" stroke="midnightblue" points="643.756,-253.112 638.793,-243.751 636.835,-254.163 643.756,-253.112"/>
</g>
<!-- Node25&#45;&gt;Node4 -->
<g id="edge39" class="edge"><title>Node25&#45;&gt;Node4</title>
<path fill="none" stroke="midnightblue" d="M842.83,-278.979C914.421,-268.779 1024.2,-253.137 1091.73,-243.516"/>
<polygon fill="midnightblue" stroke="midnightblue" points="841.96,-275.568 832.554,-280.444 842.947,-282.498 841.96,-275.568"/>
</g>
<!-- Node25&#45;&gt;Node6 -->
<g id="edge38" class="edge"><title>Node25&#45;&gt;Node6</title>
<path fill="none" stroke="midnightblue" d="M846.775,-284.395C1033.65,-272.133 1512.19,-236.307 1564.5,-188 1580.38,-173.335 1581.63,-145.667 1581.13,-131.633"/>
<polygon fill="midnightblue" stroke="midnightblue" points="846.512,-280.904 836.761,-285.047 846.967,-287.889 846.512,-280.904"/>
</g>
<!-- Node25&#45;&gt;Node8 -->
<g id="edge41" class="edge"><title>Node25&#45;&gt;Node8</title>
<path fill="none" stroke="midnightblue" d="M771.3,-270.234C769.712,-256.577 766.03,-238.086 757.5,-224 744.765,-202.97 725.773,-210.336 715.5,-188 706.892,-169.283 715.827,-144.752 721.891,-131.836"/>
<polygon fill="midnightblue" stroke="midnightblue" points="767.828,-270.716 772.201,-280.366 774.801,-270.095 767.828,-270.716"/>
</g>
<!-- Node25&#45;&gt;Node10 -->
<g id="edge43" class="edge"><title>Node25&#45;&gt;Node10</title>
<path fill="none" stroke="midnightblue" d="M846.901,-288.565C963.619,-286.767 1196.47,-278.677 1390.5,-244 1510.75,-222.508 1594.25,-244.651 1641.5,-132 1644.94,-123.803 1646.96,-119.011 1641.5,-112 1598.86,-57.2852 1392.09,-27.6223 1293.28,-16.3679"/>
<polygon fill="midnightblue" stroke="midnightblue" points="846.604,-285.069 836.655,-288.711 846.704,-292.068 846.604,-285.069"/>
</g>
<!-- Node25&#45;&gt;Node11 -->
<g id="edge42" class="edge"><title>Node25&#45;&gt;Node11</title>
<path fill="none" stroke="midnightblue" d="M762.658,-271.675C753.376,-256.874 738.126,-236.11 719.5,-224 668.519,-190.853 624.411,-236.326 587.5,-188 560.421,-152.547 598.725,-96.7612 615.403,-75.5608"/>
<polygon fill="midnightblue" stroke="midnightblue" points="759.734,-273.605 767.872,-280.389 765.741,-270.011 759.734,-273.605"/>
</g>
<!-- Node25&#45;&gt;Node13 -->
<g id="edge44" class="edge"><title>Node25&#45;&gt;Node13</title>
<path fill="none" stroke="midnightblue" d="M755.455,-273.362C738.894,-258.865 712.505,-237.552 686.5,-224 640.508,-200.032 610.572,-226.207 575.5,-188 535.065,-143.951 511.734,-102.358 549.5,-56 568.996,-32.0684 649.051,-20.4813 706.492,-15.1513"/>
<polygon fill="midnightblue" stroke="midnightblue" points="753.374,-276.196 763.165,-280.244 758.036,-270.974 753.374,-276.196"/>
</g>
<!-- Node25&#45;&gt;Node14 -->
<g id="edge40" class="edge"><title>Node25&#45;&gt;Node14</title>
<path fill="none" stroke="midnightblue" d="M842.207,-278.871C888.243,-271.328 949.608,-259.633 1002.5,-244 1056.26,-228.109 1116.92,-201.24 1146.44,-187.559"/>
<polygon fill="midnightblue" stroke="midnightblue" points="841.645,-275.417 832.33,-280.465 842.76,-282.327 841.645,-275.417"/>
</g>
<!-- Node25&#45;&gt;Node24 -->
<g id="edge37" class="edge"><title>Node25&#45;&gt;Node24</title>
<path fill="none" stroke="midnightblue" d="M741.024,-276.772C714.915,-266.629 678.461,-252.467 655.422,-243.516"/>
<polygon fill="midnightblue" stroke="midnightblue" points="739.886,-280.085 750.475,-280.444 742.421,-273.56 739.886,-280.085"/>
</g>
<!-- Node26 -->
<g id="node26" class="node"><title>Node26</title>
<g id="a_node26"><a xlink:href="../../d4/db3/Button_8hpp.html" target="_top" xlink:title=" ">
<polygon fill="white" stroke="black" points="200.5,-224.5 200.5,-243.5 264.5,-243.5 264.5,-224.5 200.5,-224.5"/>
<text text-anchor="middle" x="232.5" y="-231.5" font-family="Helvetica,sans-Serif" font-size="10.00">Button.hpp</text>
</a>
</g>
</g>
<!-- Node25&#45;&gt;Node26 -->
<g id="edge31" class="edge"><title>Node25&#45;&gt;Node26</title>
<path fill="none" stroke="midnightblue" d="M698.3,-281.016C694.988,-280.67 691.71,-280.33 688.5,-280 529.442,-263.631 339.044,-245.225 264.575,-238.072"/>
<polygon fill="midnightblue" stroke="midnightblue" points="697.988,-284.502 708.299,-282.065 698.719,-277.541 697.988,-284.502"/>
</g>
<!-- Node25&#45;&gt;Node32 -->
<g id="edge45" class="edge"><title>Node25&#45;&gt;Node32</title>
<path fill="none" stroke="midnightblue" d="M722.877,-278.281C675.634,-268.077 605.464,-252.92 561.928,-243.516"/>
<polygon fill="midnightblue" stroke="midnightblue" points="722.373,-281.753 732.887,-280.444 723.851,-274.911 722.373,-281.753"/>
</g>
<!-- Node33 -->
<g id="node33" class="node"><title>Node33</title>
<g id="a_node33"><a xlink:href="../../d9/d4f/LEDs_8hpp.html" target="_top" xlink:title=" ">
<polygon fill="white" stroke="black" points="809.5,-224.5 809.5,-243.5 869.5,-243.5 869.5,-224.5 809.5,-224.5"/>
<text text-anchor="middle" x="839.5" y="-231.5" font-family="Helvetica,sans-Serif" font-size="10.00">LEDs.hpp</text>
</a>
</g>
</g>
<!-- Node25&#45;&gt;Node33 -->
<g id="edge46" class="edge"><title>Node25&#45;&gt;Node33</title>
<path fill="none" stroke="midnightblue" d="M791.335,-273.82C803.338,-264.145 818.472,-251.948 828.539,-243.834"/>
<polygon fill="midnightblue" stroke="midnightblue" points="788.854,-271.324 783.265,-280.324 793.247,-276.774 788.854,-271.324"/>
</g>
<!-- Node35 -->
<g id="node35" class="node"><title>Node35</title>
<g id="a_node35"><a xlink:href="../../d7/d13/MAX7219__Base_8hpp.html" target="_top" xlink:title=" ">
<polygon fill="white" stroke="black" points="887.5,-224.5 887.5,-243.5 993.5,-243.5 993.5,-224.5 887.5,-224.5"/>
<text text-anchor="middle" x="940.5" y="-231.5" font-family="Helvetica,sans-Serif" font-size="10.00">MAX7219_Base.hpp</text>
</a>
</g>
</g>
<!-- Node25&#45;&gt;Node35 -->
<g id="edge48" class="edge"><title>Node25&#45;&gt;Node35</title>
<path fill="none" stroke="midnightblue" d="M808.886,-277.304C840.542,-267.129 885.668,-252.625 914.004,-243.516"/>
<polygon fill="midnightblue" stroke="midnightblue" points="807.569,-274.051 799.12,-280.444 809.711,-280.715 807.569,-274.051"/>
</g>
<!-- Node27 -->
<g id="node27" class="node"><title>Node27</title>
<g id="a_node27"><a xlink:href="../../de/dd1/Button_8cpp.html" target="_top" xlink:title=" ">
<polygon fill="white" stroke="black" points="304.5,-168.5 304.5,-187.5 368.5,-187.5 368.5,-168.5 304.5,-168.5"/>
<text text-anchor="middle" x="336.5" y="-175.5" font-family="Helvetica,sans-Serif" font-size="10.00">Button.cpp</text>
</a>
</g>
</g>
<!-- Node26&#45;&gt;Node27 -->
<g id="edge32" class="edge"><title>Node26&#45;&gt;Node27</title>
<path fill="none" stroke="midnightblue" d="M258.328,-219.59C277.557,-209.605 303.245,-196.267 319.832,-187.655"/>
<polygon fill="midnightblue" stroke="midnightblue" points="256.471,-216.61 249.209,-224.324 259.697,-222.822 256.471,-216.61"/>
</g>
<!-- Node28 -->
<g id="node28" class="node"><title>Node28</title>
<g id="a_node28"><a xlink:href="../../d5/d04/IncrementButton_8hpp.html" target="_top" xlink:title=" ">
<polygon fill="white" stroke="black" points="179,-168.5 179,-187.5 286,-187.5 286,-168.5 179,-168.5"/>
<text text-anchor="middle" x="232.5" y="-175.5" font-family="Helvetica,sans-Serif" font-size="10.00">IncrementButton.hpp</text>
</a>
</g>
</g>
<!-- Node26&#45;&gt;Node28 -->
<g id="edge33" class="edge"><title>Node26&#45;&gt;Node28</title>
<path fill="none" stroke="midnightblue" d="M232.5,-213.805C232.5,-204.91 232.5,-194.78 232.5,-187.751"/>
<polygon fill="midnightblue" stroke="midnightblue" points="229,-214.083 232.5,-224.083 236,-214.083 229,-214.083"/>
</g>
<!-- Node30 -->
<g id="node30" class="node"><title>Node30</title>
<g id="a_node30"><a xlink:href="../../df/df5/IncrementDecrementButtons_8hpp.html" target="_top" xlink:title=" ">
<polygon fill="white" stroke="black" points="0,-168.5 0,-187.5 161,-187.5 161,-168.5 0,-168.5"/>
<text text-anchor="middle" x="80.5" y="-175.5" font-family="Helvetica,sans-Serif" font-size="10.00">IncrementDecrementButtons.hpp</text>
</a>
</g>
</g>
<!-- Node26&#45;&gt;Node30 -->
<g id="edge35" class="edge"><title>Node26&#45;&gt;Node30</title>
<path fill="none" stroke="midnightblue" d="M198.832,-221.039C170.232,-210.879 129.888,-196.546 104.472,-187.516"/>
<polygon fill="midnightblue" stroke="midnightblue" points="197.82,-224.394 208.415,-224.444 200.164,-217.798 197.82,-224.394"/>
</g>
<!-- Node29 -->
<g id="node29" class="node"><title>Node29</title>
<g id="a_node29"><a xlink:href="../../db/d9d/IncrementButton_8cpp.html" target="_top" xlink:title=" ">
<polygon fill="white" stroke="black" points="179,-112.5 179,-131.5 286,-131.5 286,-112.5 179,-112.5"/>
<text text-anchor="middle" x="232.5" y="-119.5" font-family="Helvetica,sans-Serif" font-size="10.00">IncrementButton.cpp</text>
</a>
</g>
</g>
<!-- Node28&#45;&gt;Node29 -->
<g id="edge34" class="edge"><title>Node28&#45;&gt;Node29</title>
<path fill="none" stroke="midnightblue" d="M232.5,-157.805C232.5,-148.91 232.5,-138.78 232.5,-131.751"/>
<polygon fill="midnightblue" stroke="midnightblue" points="229,-158.083 232.5,-168.083 236,-158.083 229,-158.083"/>
</g>
<!-- Node31 -->
<g id="node31" class="node"><title>Node31</title>
<g id="a_node31"><a xlink:href="../../da/d66/IncrementDecrementButtons_8cpp.html" target="_top" xlink:title=" ">
<polygon fill="white" stroke="black" points="0,-112.5 0,-131.5 161,-131.5 161,-112.5 0,-112.5"/>
<text text-anchor="middle" x="80.5" y="-119.5" font-family="Helvetica,sans-Serif" font-size="10.00">IncrementDecrementButtons.cpp</text>
</a>
</g>
</g>
<!-- Node30&#45;&gt;Node31 -->
<g id="edge36" class="edge"><title>Node30&#45;&gt;Node31</title>
<path fill="none" stroke="midnightblue" d="M80.5,-157.805C80.5,-148.91 80.5,-138.78 80.5,-131.751"/>
<polygon fill="midnightblue" stroke="midnightblue" points="77.0001,-158.083 80.5,-168.083 84.0001,-158.083 77.0001,-158.083"/>
</g>
<!-- Node34 -->
<g id="node34" class="node"><title>Node34</title>
<g id="a_node34"><a xlink:href="../../d6/d3a/DotBarDisplayLEDs_8hpp.html" target="_top" xlink:title=" ">
<polygon fill="white" stroke="black" points="724.5,-168.5 724.5,-187.5 848.5,-187.5 848.5,-168.5 724.5,-168.5"/>
<text text-anchor="middle" x="786.5" y="-175.5" font-family="Helvetica,sans-Serif" font-size="10.00">DotBarDisplayLEDs.hpp</text>
</a>
</g>
</g>
<!-- Node33&#45;&gt;Node34 -->
<g id="edge47" class="edge"><title>Node33&#45;&gt;Node34</title>
<path fill="none" stroke="midnightblue" d="M823.519,-216.718C814.178,-207.2 802.754,-195.561 795.089,-187.751"/>
<polygon fill="midnightblue" stroke="midnightblue" points="821.246,-219.398 830.748,-224.083 826.241,-214.494 821.246,-219.398"/>
</g>
<!-- Node35&#45;&gt;Node7 -->
<g id="edge49" class="edge"><title>Node35&#45;&gt;Node7</title>
<path fill="none" stroke="midnightblue" d="M921.141,-217.628C912.21,-209.637 902.14,-199.207 895.5,-188 884.593,-169.591 879.591,-144.504 877.611,-131.539"/>
<polygon fill="midnightblue" stroke="midnightblue" points="919.01,-220.411 928.892,-224.233 923.551,-215.083 919.01,-220.411"/>
</g>
<!-- Node36 -->
<g id="node36" class="node"><title>Node36</title>
<g id="a_node36"><a xlink:href="../../d5/d0c/MAX7219SevenSegmentDisplay_8hpp.html" target="_top" xlink:title=" ">
<polygon fill="white" stroke="black" points="904.5,-168.5 904.5,-187.5 1082.5,-187.5 1082.5,-168.5 904.5,-168.5"/>
<text text-anchor="middle" x="993.5" y="-175.5" font-family="Helvetica,sans-Serif" font-size="10.00">MAX7219SevenSegmentDisplay.hpp</text>
</a>
</g>
</g>
<!-- Node35&#45;&gt;Node36 -->
<g id="edge50" class="edge"><title>Node35&#45;&gt;Node36</title>
<path fill="none" stroke="midnightblue" d="M956.481,-216.718C965.822,-207.2 977.246,-195.561 984.911,-187.751"/>
<polygon fill="midnightblue" stroke="midnightblue" points="953.759,-214.494 949.252,-224.083 958.754,-219.398 953.759,-214.494"/>
</g>
<!-- Node37&#45;&gt;Node20 -->
<g id="edge54" class="edge"><title>Node37&#45;&gt;Node20</title>
<path fill="none" stroke="midnightblue" d="M1941.36,-276.232C1919.1,-266.131 1888.64,-252.309 1869.27,-243.516"/>
<polygon fill="midnightblue" stroke="midnightblue" points="1940.09,-279.498 1950.64,-280.444 1942.98,-273.124 1940.09,-279.498"/>
</g>
<!-- Node39 -->
<g id="node39" class="node"><title>Node39</title>
<g id="a_node39"><a xlink:href="../../df/da1/Notch_8hpp.html" target="_top" xlink:title=" ">
<polygon fill="white" stroke="black" points="1765.5,-280.5 1765.5,-299.5 1827.5,-299.5 1827.5,-280.5 1765.5,-280.5"/>
<text text-anchor="middle" x="1796.5" y="-287.5" font-family="Helvetica,sans-Serif" font-size="10.00">Notch.hpp</text>
</a>
</g>
</g>
<!-- Node38&#45;&gt;Node39 -->
<g id="edge56" class="edge"><title>Node38&#45;&gt;Node39</title>
<path fill="none" stroke="midnightblue" d="M1799.75,-326.101C1798.92,-317.136 1797.97,-306.858 1797.31,-299.751"/>
<polygon fill="midnightblue" stroke="midnightblue" points="1796.27,-326.448 1800.67,-336.083 1803.24,-325.803 1796.27,-326.448"/>
</g>
<!-- Node42&#45;&gt;Node37 -->
<g id="edge60" class="edge"><title>Node42&#45;&gt;Node37</title>
<path fill="none" stroke="midnightblue" d="M1956.28,-326.69C1959.65,-317.589 1963.57,-307.014 1966.26,-299.751"/>
<polygon fill="midnightblue" stroke="midnightblue" points="1952.99,-325.49 1952.8,-336.083 1959.56,-327.921 1952.99,-325.49"/>
</g>
<!-- Node42&#45;&gt;Node40 -->
<g id="edge61" class="edge"><title>Node42&#45;&gt;Node40</title>
<path fill="none" stroke="midnightblue" d="M1930.74,-330.101C1918.5,-320.382 1902.94,-308.027 1892.62,-299.834"/>
<polygon fill="midnightblue" stroke="midnightblue" points="1928.57,-332.846 1938.57,-336.324 1932.92,-327.364 1928.57,-332.846"/>
</g>
<!-- Node43&#45;&gt;Node7 -->
<g id="edge63" class="edge"><title>Node43&#45;&gt;Node7</title>
<path fill="none" stroke="midnightblue" d="M678.249,-166.875C724.286,-156.687 794.503,-141.147 837.841,-131.556"/>
<polygon fill="midnightblue" stroke="midnightblue" points="677.248,-163.512 668.241,-169.09 678.761,-170.347 677.248,-163.512"/>
</g>
<!-- Node43&#45;&gt;Node8 -->
<g id="edge64" class="edge"><title>Node43&#45;&gt;Node8</title>
<path fill="none" stroke="midnightblue" d="M656.562,-163.177C673.859,-153.241 696.648,-140.149 711.435,-131.655"/>
<polygon fill="midnightblue" stroke="midnightblue" points="654.53,-160.308 647.603,-168.324 658.017,-166.378 654.53,-160.308"/>
</g>
<!-- Node43&#45;&gt;Node12 -->
<g id="edge65" class="edge"><title>Node43&#45;&gt;Node12</title>
<path fill="none" stroke="midnightblue" d="M633.61,-158.076C635.396,-143.794 639.958,-124.576 651.5,-112 668.954,-92.9823 695.39,-81.9139 718.618,-75.5174"/>
<polygon fill="midnightblue" stroke="midnightblue" points="630.105,-157.975 632.692,-168.249 637.077,-158.604 630.105,-157.975"/>
</g>
<!-- Node46&#45;&gt;Node1 -->
<g id="edge73" class="edge"><title>Node46&#45;&gt;Node1</title>
<path fill="none" stroke="midnightblue" d="M740.99,-469.584C790.904,-479.968 862.977,-495.574 904.311,-504.974"/>
<polygon fill="midnightblue" stroke="midnightblue" points="741.509,-466.117 731.007,-467.516 740.089,-472.972 741.509,-466.117"/>
</g>
<!-- Node46&#45;&gt;Node3 -->
<g id="edge72" class="edge"><title>Node46&#45;&gt;Node3</title>
<path fill="none" stroke="midnightblue" d="M741.488,-446.545C796.841,-436.02 880.902,-420.036 930.302,-410.643"/>
<polygon fill="midnightblue" stroke="midnightblue" points="740.671,-443.137 731.501,-448.444 741.978,-450.014 740.671,-443.137"/>
</g>
<!-- Node46&#45;&gt;Node26 -->
<g id="edge74" class="edge"><title>Node46&#45;&gt;Node26</title>
<path fill="none" stroke="midnightblue" d="M622.005,-456.699C549.816,-454.571 430.284,-445.627 333.5,-412 287.924,-396.165 265.612,-397.198 240.5,-356 218.256,-319.508 226.259,-264.805 230.526,-243.719"/>
<polygon fill="midnightblue" stroke="midnightblue" points="622.216,-460.206 632.304,-456.966 622.398,-453.208 622.216,-460.206"/>
</g>
<!-- Node46&#45;&gt;Node32 -->
<g id="edge78" class="edge"><title>Node46&#45;&gt;Node32</title>
<path fill="none" stroke="midnightblue" d="M670.283,-441.096C643.294,-414.002 588.571,-356.342 552.5,-300 540.438,-281.159 530.506,-256.678 525.673,-243.803"/>
<polygon fill="midnightblue" stroke="midnightblue" points="668.158,-443.918 677.717,-448.487 673.093,-438.954 668.158,-443.918"/>
</g>
<!-- Node47 -->
<g id="node47" class="node"><title>Node47</title>
<g id="a_node47"><a xlink:href="../../d1/d1f/ShiftRegisterOutRGB_8hpp.html" target="_top" xlink:title=" ">
<polygon fill="white" stroke="black" points="342.5,-392.5 342.5,-411.5 472.5,-411.5 472.5,-392.5 342.5,-392.5"/>
<text text-anchor="middle" x="407.5" y="-399.5" font-family="Helvetica,sans-Serif" font-size="10.00">ShiftRegisterOutRGB.hpp</text>
</a>
</g>
</g>
<!-- Node46&#45;&gt;Node47 -->
<g id="edge75" class="edge"><title>Node46&#45;&gt;Node47</title>
<path fill="none" stroke="midnightblue" d="M632.442,-446.537C579.713,-436.332 500.496,-420.999 451.502,-411.516"/>
<polygon fill="midnightblue" stroke="midnightblue" points="631.809,-449.979 642.292,-448.444 633.139,-443.107 631.809,-449.979"/>
</g>
<!-- Node47&#45;&gt;Node11 -->
<g id="edge76" class="edge"><title>Node47&#45;&gt;Node11</title>
<path fill="none" stroke="midnightblue" d="M407.5,-382.251C407.5,-360.357 407.5,-323.052 407.5,-291 407.5,-291 407.5,-291 407.5,-177 407.5,-108.552 494.931,-82.6702 558.284,-72.9004"/>
<polygon fill="midnightblue" stroke="midnightblue" points="404,-382.442 407.5,-392.442 411,-382.442 404,-382.442"/>
</g>
<!-- Node48 -->
<g id="node48" class="node"><title>Node48</title>
<g id="a_node48"><a xlink:href="../../db/d0b/ShiftRegisterOutRGB_8cpp.html" target="_top" xlink:title=" ">
<polygon fill="white" stroke="black" points="249.5,-336.5 249.5,-355.5 379.5,-355.5 379.5,-336.5 249.5,-336.5"/>
<text text-anchor="middle" x="314.5" y="-343.5" font-family="Helvetica,sans-Serif" font-size="10.00">ShiftRegisterOutRGB.cpp</text>
</a>
</g>
</g>
<!-- Node47&#45;&gt;Node48 -->
<g id="edge77" class="edge"><title>Node47&#45;&gt;Node48</title>
<path fill="none" stroke="midnightblue" d="M383.694,-387.177C366.581,-377.241 344.035,-364.149 329.405,-355.655"/>
<polygon fill="midnightblue" stroke="midnightblue" points="382.153,-390.329 392.558,-392.324 385.668,-384.276 382.153,-390.329"/>
</g>
</g>
</svg>
