<?xml version="1.0" encoding="UTF-8" standalone="no"?>
<!DOCTYPE svg PUBLIC "-//W3C//DTD SVG 1.1//EN"
 "http://www.w3.org/Graphics/SVG/1.1/DTD/svg11.dtd">
<!-- Generated by graphviz version 2.43.0 (0)
 -->
<!-- Title: RegisterEncoders.hpp Pages: 1 -->
<svg width="1180pt" height="588pt"
 viewBox="0.00 0.00 1179.50 588.00" xmlns="http://www.w3.org/2000/svg" xmlns:xlink="http://www.w3.org/1999/xlink">
<g id="graph0" class="graph" transform="scale(1 1) rotate(0) translate(4 584)">
<title>RegisterEncoders.hpp</title>
<polygon fill="white" stroke="transparent" points="-4,4 -4,-584 1175.5,-584 1175.5,4 -4,4"/>
<!-- Node1 -->
<g id="node1" class="node">
<title>Node1</title>
<g id="a_node1"><a xlink:title=" ">
<polygon fill="#bfbfbf" stroke="black" points="246.5,-560.5 246.5,-579.5 368.5,-579.5 368.5,-560.5 246.5,-560.5"/>
<text text-anchor="middle" x="307.5" y="-567.5" font-family="Helvetica,sans-Serif" font-size="10.00">RegisterEncoders.hpp</text>
</a>
</g>
</g>
<!-- Node2 -->
<g id="node2" class="node">
<title>Node2</title>
<g id="a_node2"><a xlink:href="../../dc/dc7/NamespaceSettings_8hpp.html" target="_top" xlink:title=" ">
<polygon fill="white" stroke="black" points="377,-56.5 377,-75.5 572,-75.5 572,-56.5 377,-56.5"/>
<text text-anchor="middle" x="474.5" y="-63.5" font-family="Helvetica,sans-Serif" font-size="10.00">AH/Settings/NamespaceSettings.hpp</text>
</a>
</g>
</g>
<!-- Node1&#45;&gt;Node2 -->
<g id="edge1" class="edge">
<title>Node1&#45;&gt;Node2</title>
<path fill="none" stroke="midnightblue" d="M291.65,-560.44C264.38,-544.43 211.5,-507.16 211.5,-459 211.5,-459 211.5,-459 211.5,-289 211.5,-258.77 211.25,-246.44 231.5,-224 258.99,-193.55 281.1,-208.74 316.5,-188 364.05,-160.13 370.67,-145.43 414.5,-112 427.87,-101.81 443.01,-90.45 454.74,-81.7"/>
<polygon fill="midnightblue" stroke="midnightblue" points="457.03,-84.35 462.96,-75.57 452.85,-78.74 457.03,-84.35"/>
</g>
<!-- Node3 -->
<g id="node3" class="node">
<title>Node3</title>
<g id="a_node3"><a xlink:href="../../d1/d65/Warnings_8hpp.html" target="_top" xlink:title=" ">
<polygon fill="white" stroke="black" points="804,-0.5 804,-19.5 947,-19.5 947,-0.5 804,-0.5"/>
<text text-anchor="middle" x="875.5" y="-7.5" font-family="Helvetica,sans-Serif" font-size="10.00">AH/Settings/Warnings.hpp</text>
</a>
</g>
</g>
<!-- Node1&#45;&gt;Node3 -->
<g id="edge2" class="edge">
<title>Node1&#45;&gt;Node3</title>
<path fill="none" stroke="midnightblue" d="M368.56,-566.5C548.07,-558.33 1061.5,-528.86 1061.5,-459 1061.5,-459 1061.5,-459 1061.5,-121 1061.5,-62.99 993.64,-34.93 939.9,-21.8"/>
<polygon fill="midnightblue" stroke="midnightblue" points="940.58,-18.36 930.05,-19.52 939,-25.18 940.58,-18.36"/>
</g>
<!-- Node4 -->
<g id="node4" class="node">
<title>Node4</title>
<g id="a_node4"><a xlink:href="../../d6/ddf/Arduino-Wrapper_8h.html" target="_top" xlink:title=" ">
<polygon fill="white" stroke="black" points="183.5,-168.5 183.5,-187.5 307.5,-187.5 307.5,-168.5 183.5,-168.5"/>
<text text-anchor="middle" x="245.5" y="-175.5" font-family="Helvetica,sans-Serif" font-size="10.00">AH/Arduino&#45;Wrapper.h</text>
</a>
</g>
</g>
<!-- Node1&#45;&gt;Node4 -->
<g id="edge3" class="edge">
<title>Node1&#45;&gt;Node4</title>
<path fill="none" stroke="midnightblue" d="M262.31,-560.5C211.35,-547.99 135.5,-519.26 135.5,-459 135.5,-459 135.5,-459 135.5,-289 135.5,-242.91 184.38,-209.39 216.97,-192.16"/>
<polygon fill="midnightblue" stroke="midnightblue" points="218.75,-195.18 226.09,-187.54 215.59,-188.94 218.75,-195.18"/>
</g>
<!-- Node8 -->
<g id="node8" class="node">
<title>Node8</title>
<g id="a_node8"><a xlink:title=" ">
<polygon fill="white" stroke="#bfbfbf" points="0,-112.5 0,-131.5 107,-131.5 107,-112.5 0,-112.5"/>
<text text-anchor="middle" x="53.5" y="-119.5" font-family="Helvetica,sans-Serif" font-size="10.00">AH/STL/type_traits</text>
</a>
</g>
</g>
<!-- Node1&#45;&gt;Node8 -->
<g id="edge42" class="edge">
<title>Node1&#45;&gt;Node8</title>
<path fill="none" stroke="midnightblue" d="M246.24,-565.72C177.51,-558.35 75.5,-534.67 75.5,-459 75.5,-459 75.5,-459 75.5,-233 75.5,-200.33 66.05,-163.24 59.54,-141.55"/>
<polygon fill="midnightblue" stroke="midnightblue" points="62.79,-140.22 56.47,-131.72 56.11,-142.31 62.79,-140.22"/>
</g>
<!-- Node9 -->
<g id="node9" class="node">
<title>Node9</title>
<g id="a_node9"><a xlink:href="../../de/d76/Array_8hpp.html" target="_top" xlink:title=" ">
<polygon fill="white" stroke="black" points="498,-504.5 498,-523.5 633,-523.5 633,-504.5 498,-504.5"/>
<text text-anchor="middle" x="565.5" y="-511.5" font-family="Helvetica,sans-Serif" font-size="10.00">AH/Containers/Array.hpp</text>
</a>
</g>
</g>
<!-- Node1&#45;&gt;Node9 -->
<g id="edge12" class="edge">
<title>Node1&#45;&gt;Node9</title>
<path fill="none" stroke="midnightblue" d="M348.38,-560.44C393.48,-551 466.11,-535.8 514.8,-525.61"/>
<polygon fill="midnightblue" stroke="midnightblue" points="515.74,-528.99 524.81,-523.52 514.31,-522.14 515.74,-528.99"/>
</g>
<!-- Node23 -->
<g id="node23" class="node">
<title>Node23</title>
<g id="a_node23"><a xlink:title=" ">
<polygon fill="white" stroke="#bfbfbf" points="1089.5,-504.5 1089.5,-523.5 1171.5,-523.5 1171.5,-504.5 1089.5,-504.5"/>
<text text-anchor="middle" x="1130.5" y="-511.5" font-family="Helvetica,sans-Serif" font-size="10.00">AH/STL/limits</text>
</a>
</g>
</g>
<!-- Node1&#45;&gt;Node23 -->
<g id="edge41" class="edge">
<title>Node1&#45;&gt;Node23</title>
<path fill="none" stroke="midnightblue" d="M368.91,-567.56C499.37,-564.03 813.65,-553.02 1075.5,-524 1076.77,-523.86 1078.06,-523.71 1079.35,-523.55"/>
<polygon fill="midnightblue" stroke="midnightblue" points="1079.97,-527 1089.42,-522.2 1079.04,-520.06 1079.97,-527"/>
</g>
<!-- Node5 -->
<g id="node5" class="node">
<title>Node5</title>
<g id="a_node5"><a xlink:href="../../d7/d79/MinMaxFix_8hpp.html" target="_top" xlink:title=" ">
<polygon fill="white" stroke="black" points="171.5,-112.5 171.5,-131.5 307.5,-131.5 307.5,-112.5 171.5,-112.5"/>
<text text-anchor="middle" x="239.5" y="-119.5" font-family="Helvetica,sans-Serif" font-size="10.00">AH/Math/MinMaxFix.hpp</text>
</a>
</g>
</g>
<!-- Node4&#45;&gt;Node5 -->
<g id="edge4" class="edge">
<title>Node4&#45;&gt;Node5</title>
<path fill="none" stroke="midnightblue" d="M244.51,-168.08C243.71,-160.93 242.57,-150.64 241.58,-141.69"/>
<polygon fill="midnightblue" stroke="midnightblue" points="245.06,-141.3 240.47,-131.75 238.1,-142.08 245.06,-141.3"/>
</g>
<!-- Node7 -->
<g id="node7" class="node">
<title>Node7</title>
<g id="a_node7"><a xlink:title=" ">
<polygon fill="white" stroke="#bfbfbf" points="149,-0.5 149,-19.5 212,-19.5 212,-0.5 149,-0.5"/>
<text text-anchor="middle" x="180.5" y="-7.5" font-family="Helvetica,sans-Serif" font-size="10.00">Arduino.h</text>
</a>
</g>
</g>
<!-- Node4&#45;&gt;Node7 -->
<g id="edge11" class="edge">
<title>Node4&#45;&gt;Node7</title>
<path fill="none" stroke="midnightblue" d="M219.02,-168.39C200.86,-161.25 177.43,-149.43 162.5,-132 139.77,-105.48 130.5,-88.8 142.5,-56 146.56,-44.91 154.69,-34.67 162.39,-26.76"/>
<polygon fill="midnightblue" stroke="midnightblue" points="164.97,-29.14 169.79,-19.7 160.14,-24.07 164.97,-29.14"/>
</g>
<!-- Node4&#45;&gt;Node8 -->
<g id="edge10" class="edge">
<title>Node4&#45;&gt;Node8</title>
<path fill="none" stroke="midnightblue" d="M215.08,-168.44C182.22,-159.2 129.72,-144.44 93.53,-134.26"/>
<polygon fill="midnightblue" stroke="midnightblue" points="94.35,-130.85 83.78,-131.52 92.46,-137.59 94.35,-130.85"/>
</g>
<!-- Node5&#45;&gt;Node2 -->
<g id="edge9" class="edge">
<title>Node5&#45;&gt;Node2</title>
<path fill="none" stroke="midnightblue" d="M276.74,-112.44C317.56,-103.06 383.14,-87.99 427.48,-77.8"/>
<polygon fill="midnightblue" stroke="midnightblue" points="428.48,-81.17 437.44,-75.52 426.91,-74.34 428.48,-81.17"/>
</g>
<!-- Node5&#45;&gt;Node3 -->
<g id="edge5" class="edge">
<title>Node5&#45;&gt;Node3</title>
<path fill="none" stroke="midnightblue" d="M257.35,-112.34C275.75,-103.37 305.22,-88.9 330.5,-76 347.5,-67.32 350.19,-61.39 368.5,-56 445.9,-33.2 670.86,-20.03 793.48,-14.35"/>
<polygon fill="midnightblue" stroke="midnightblue" points="793.74,-17.84 803.57,-13.89 793.43,-10.85 793.74,-17.84"/>
</g>
<!-- Node6 -->
<g id="node6" class="node">
<title>Node6</title>
<g id="a_node6"><a xlink:href="../../d6/d3b/FixArduinoMacros_8hpp.html" target="_top" xlink:title=" ">
<polygon fill="white" stroke="black" points="151.5,-56.5 151.5,-75.5 321.5,-75.5 321.5,-56.5 151.5,-56.5"/>
<text text-anchor="middle" x="236.5" y="-63.5" font-family="Helvetica,sans-Serif" font-size="10.00">AH/Math/FixArduinoMacros.hpp</text>
</a>
</g>
</g>
<!-- Node5&#45;&gt;Node6 -->
<g id="edge6" class="edge">
<title>Node5&#45;&gt;Node6</title>
<path fill="none" stroke="midnightblue" d="M239,-112.08C238.61,-105.01 238.05,-94.86 237.55,-85.99"/>
<polygon fill="midnightblue" stroke="midnightblue" points="241.04,-85.54 236.99,-75.75 234.05,-85.93 241.04,-85.54"/>
</g>
<!-- Node6&#45;&gt;Node3 -->
<g id="edge7" class="edge">
<title>Node6&#45;&gt;Node3</title>
<path fill="none" stroke="midnightblue" d="M321.55,-57.23C326.27,-56.81 330.94,-56.4 335.5,-56 498.02,-41.84 688.13,-26.22 793.89,-17.61"/>
<polygon fill="midnightblue" stroke="midnightblue" points="794.18,-21.1 803.86,-16.8 793.61,-14.12 794.18,-21.1"/>
</g>
<!-- Node6&#45;&gt;Node7 -->
<g id="edge8" class="edge">
<title>Node6&#45;&gt;Node7</title>
<path fill="none" stroke="midnightblue" d="M227.5,-56.32C219.31,-48.42 206.99,-36.55 197.03,-26.94"/>
<polygon fill="midnightblue" stroke="midnightblue" points="199.29,-24.26 189.66,-19.83 194.43,-29.29 199.29,-24.26"/>
</g>
<!-- Node9&#45;&gt;Node3 -->
<g id="edge13" class="edge">
<title>Node9&#45;&gt;Node3</title>
<path fill="none" stroke="midnightblue" d="M633.08,-510.73C760.48,-504.59 1023.5,-482.32 1023.5,-403 1023.5,-403 1023.5,-403 1023.5,-121 1023.5,-68.02 961.66,-37.57 917.92,-22.66"/>
<polygon fill="midnightblue" stroke="midnightblue" points="918.94,-19.31 908.35,-19.54 916.77,-25.97 918.94,-19.31"/>
</g>
<!-- Node9&#45;&gt;Node8 -->
<g id="edge39" class="edge">
<title>Node9&#45;&gt;Node8</title>
<path fill="none" stroke="midnightblue" d="M504.57,-504.47C412.75,-489.89 249.5,-456.44 249.5,-403 249.5,-403 249.5,-403 249.5,-345 249.5,-243.39 132.69,-166.36 79.42,-136.51"/>
<polygon fill="midnightblue" stroke="midnightblue" points="81,-133.39 70.55,-131.65 77.64,-139.53 81,-133.39"/>
</g>
<!-- Node10 -->
<g id="node10" class="node">
<title>Node10</title>
<g id="a_node10"><a xlink:href="../../d1/d93/Error_8hpp.html" target="_top" xlink:title=" ">
<polygon fill="white" stroke="black" points="557.5,-448.5 557.5,-467.5 661.5,-467.5 661.5,-448.5 557.5,-448.5"/>
<text text-anchor="middle" x="609.5" y="-455.5" font-family="Helvetica,sans-Serif" font-size="10.00">AH/Error/Error.hpp</text>
</a>
</g>
</g>
<!-- Node9&#45;&gt;Node10 -->
<g id="edge14" class="edge">
<title>Node9&#45;&gt;Node10</title>
<path fill="none" stroke="midnightblue" d="M572.77,-504.08C579.04,-496.38 588.29,-485.03 595.93,-475.65"/>
<polygon fill="midnightblue" stroke="midnightblue" points="598.77,-477.71 602.37,-467.75 593.34,-473.29 598.77,-477.71"/>
</g>
<!-- Node18 -->
<g id="node18" class="node">
<title>Node18</title>
<g id="a_node18"><a xlink:title=" ">
<polygon fill="white" stroke="#bfbfbf" points="469.5,-224.5 469.5,-243.5 525.5,-243.5 525.5,-224.5 469.5,-224.5"/>
<text text-anchor="middle" x="497.5" y="-231.5" font-family="Helvetica,sans-Serif" font-size="10.00">stddef.h</text>
</a>
</g>
</g>
<!-- Node9&#45;&gt;Node18 -->
<g id="edge40" class="edge">
<title>Node9&#45;&gt;Node18</title>
<path fill="none" stroke="midnightblue" d="M525.87,-504.47C477.91,-491.54 403.5,-461.98 403.5,-403 403.5,-403 403.5,-403 403.5,-345 403.5,-301.93 445.66,-267.21 473.51,-248.98"/>
<polygon fill="midnightblue" stroke="midnightblue" points="475.38,-251.94 481.98,-243.65 471.65,-246.01 475.38,-251.94"/>
</g>
<!-- Node22 -->
<g id="node22" class="node">
<title>Node22</title>
<g id="a_node22"><a xlink:title=" ">
<polygon fill="white" stroke="#bfbfbf" points="679.5,-448.5 679.5,-467.5 769.5,-467.5 769.5,-448.5 679.5,-448.5"/>
<text text-anchor="middle" x="724.5" y="-455.5" font-family="Helvetica,sans-Serif" font-size="10.00">AH/STL/iterator</text>
</a>
</g>
</g>
<!-- Node9&#45;&gt;Node22 -->
<g id="edge38" class="edge">
<title>Node9&#45;&gt;Node22</title>
<path fill="none" stroke="midnightblue" d="M590.69,-504.44C617.44,-495.36 659.9,-480.94 689.81,-470.78"/>
<polygon fill="midnightblue" stroke="midnightblue" points="691.08,-474.05 699.42,-467.52 688.83,-467.42 691.08,-474.05"/>
</g>
<!-- Node10&#45;&gt;Node3 -->
<g id="edge15" class="edge">
<title>Node10&#45;&gt;Node3</title>
<path fill="none" stroke="midnightblue" d="M655.23,-448.47C755.43,-429.14 985.5,-381.05 985.5,-347 985.5,-347 985.5,-347 985.5,-121 985.5,-74.91 936.62,-41.39 904.03,-24.16"/>
<polygon fill="midnightblue" stroke="midnightblue" points="905.41,-20.94 894.91,-19.54 902.25,-27.18 905.41,-20.94"/>
</g>
<!-- Node11 -->
<g id="node11" class="node">
<title>Node11</title>
<g id="a_node11"><a xlink:href="../../df/dee/Debug_8hpp.html" target="_top" xlink:title=" ">
<polygon fill="white" stroke="black" points="630,-392.5 630,-411.5 751,-411.5 751,-392.5 630,-392.5"/>
<text text-anchor="middle" x="690.5" y="-399.5" font-family="Helvetica,sans-Serif" font-size="10.00">AH/Debug/Debug.hpp</text>
</a>
</g>
</g>
<!-- Node10&#45;&gt;Node11 -->
<g id="edge16" class="edge">
<title>Node10&#45;&gt;Node11</title>
<path fill="none" stroke="midnightblue" d="M622.51,-448.32C635.03,-439.98 654.18,-427.21 668.97,-417.35"/>
<polygon fill="midnightblue" stroke="midnightblue" points="671.14,-420.11 677.52,-411.65 667.26,-414.29 671.14,-420.11"/>
</g>
<!-- Node11&#45;&gt;Node3 -->
<g id="edge17" class="edge">
<title>Node11&#45;&gt;Node3</title>
<path fill="none" stroke="midnightblue" d="M725.39,-392.46C772.51,-379.42 856.86,-350.58 911.5,-300 935.73,-277.57 947.5,-268.02 947.5,-235 947.5,-235 947.5,-235 947.5,-121 947.5,-81.94 915.32,-45.94 893.99,-26.37"/>
<polygon fill="midnightblue" stroke="midnightblue" points="896.25,-23.7 886.44,-19.7 891.62,-28.94 896.25,-23.7"/>
</g>
<!-- Node12 -->
<g id="node12" class="node">
<title>Node12</title>
<g id="a_node12"><a xlink:href="../../dd/d80/PrintStream_8hpp.html" target="_top" xlink:title=" ">
<polygon fill="white" stroke="black" points="240,-224.5 240,-243.5 413,-243.5 413,-224.5 240,-224.5"/>
<text text-anchor="middle" x="326.5" y="-231.5" font-family="Helvetica,sans-Serif" font-size="10.00">AH/PrintStream/PrintStream.hpp</text>
</a>
</g>
</g>
<!-- Node11&#45;&gt;Node12 -->
<g id="edge18" class="edge">
<title>Node11&#45;&gt;Node12</title>
<path fill="none" stroke="midnightblue" d="M662.83,-392.46C614.01,-376.93 509.95,-341.8 427.5,-300 397.99,-285.04 366.25,-263.65 346.39,-249.55"/>
<polygon fill="midnightblue" stroke="midnightblue" points="348.32,-246.62 338.15,-243.63 344.23,-252.31 348.32,-246.62"/>
</g>
<!-- Node13 -->
<g id="node13" class="node">
<title>Node13</title>
<g id="a_node13"><a xlink:href="../../d2/dd5/SettingsWrapper_8hpp.html" target="_top" xlink:title=" ">
<polygon fill="white" stroke="black" points="601.5,-336.5 601.5,-355.5 779.5,-355.5 779.5,-336.5 601.5,-336.5"/>
<text text-anchor="middle" x="690.5" y="-343.5" font-family="Helvetica,sans-Serif" font-size="10.00">AH/Settings/SettingsWrapper.hpp</text>
</a>
</g>
</g>
<!-- Node11&#45;&gt;Node13 -->
<g id="edge22" class="edge">
<title>Node11&#45;&gt;Node13</title>
<path fill="none" stroke="midnightblue" d="M685.33,-392.08C683.82,-384.93 683.39,-374.64 684.04,-365.69"/>
<polygon fill="midnightblue" stroke="midnightblue" points="687.52,-366.13 685.37,-355.75 680.58,-365.2 687.52,-366.13"/>
</g>
<!-- Node21 -->
<g id="node21" class="node">
<title>Node21</title>
<g id="a_node21"><a xlink:href="../../d7/d52/DebugVal_8hpp.html" target="_top" xlink:title=" ">
<polygon fill="white" stroke="black" points="873.5,-336.5 873.5,-355.5 957.5,-355.5 957.5,-336.5 873.5,-336.5"/>
<text text-anchor="middle" x="915.5" y="-343.5" font-family="Helvetica,sans-Serif" font-size="10.00">DebugVal.hpp</text>
</a>
</g>
</g>
<!-- Node11&#45;&gt;Node21 -->
<g id="edge37" class="edge">
<title>Node11&#45;&gt;Node21</title>
<path fill="none" stroke="midnightblue" d="M726.15,-392.44C765.16,-383.08 827.77,-368.06 870.22,-357.87"/>
<polygon fill="midnightblue" stroke="midnightblue" points="871.11,-361.25 880.01,-355.52 869.47,-354.45 871.11,-361.25"/>
</g>
<!-- Node12&#45;&gt;Node2 -->
<g id="edge19" class="edge">
<title>Node12&#45;&gt;Node2</title>
<path fill="none" stroke="midnightblue" d="M334.46,-224.08C358.26,-197.38 429.15,-117.87 459.95,-83.32"/>
<polygon fill="midnightblue" stroke="midnightblue" points="462.82,-85.36 466.86,-75.57 457.59,-80.7 462.82,-85.36"/>
</g>
<!-- Node12&#45;&gt;Node3 -->
<g id="edge20" class="edge">
<title>Node12&#45;&gt;Node3</title>
<path fill="none" stroke="midnightblue" d="M347.69,-224.43C432.18,-190.27 745.32,-63.64 844.89,-23.38"/>
<polygon fill="midnightblue" stroke="midnightblue" points="846.42,-26.53 854.38,-19.54 843.8,-20.05 846.42,-26.53"/>
</g>
<!-- Node12&#45;&gt;Node4 -->
<g id="edge21" class="edge">
<title>Node12&#45;&gt;Node4</title>
<path fill="none" stroke="midnightblue" d="M313.49,-224.32C300.97,-215.98 281.82,-203.21 267.03,-193.35"/>
<polygon fill="midnightblue" stroke="midnightblue" points="268.74,-190.29 258.48,-187.65 264.86,-196.11 268.74,-190.29"/>
</g>
<!-- Node13&#45;&gt;Node2 -->
<g id="edge24" class="edge">
<title>Node13&#45;&gt;Node2</title>
<path fill="none" stroke="midnightblue" d="M627.55,-336.46C572.99,-325.36 497.22,-300.23 460.5,-244 428.11,-194.39 452.24,-119.51 466.29,-85.26"/>
<polygon fill="midnightblue" stroke="midnightblue" points="469.68,-86.22 470.41,-75.65 463.25,-83.46 469.68,-86.22"/>
</g>
<!-- Node13&#45;&gt;Node3 -->
<g id="edge23" class="edge">
<title>Node13&#45;&gt;Node3</title>
<path fill="none" stroke="midnightblue" d="M763.2,-336.47C812.56,-329.25 872.08,-317.3 890.5,-300 912.44,-279.4 909.5,-265.1 909.5,-235 909.5,-235 909.5,-235 909.5,-121 909.5,-87.16 894.63,-49.97 884.56,-28.66"/>
<polygon fill="midnightblue" stroke="midnightblue" points="887.64,-26.99 880.09,-19.56 881.36,-30.08 887.64,-26.99"/>
</g>
<!-- Node13&#45;&gt;Node11 -->
<g id="edge36" class="edge">
<title>Node13&#45;&gt;Node11</title>
<path fill="none" stroke="midnightblue" d="M695.63,-355.75C697.16,-362.86 697.6,-373.14 696.97,-382.1"/>
<polygon fill="midnightblue" stroke="midnightblue" points="693.49,-381.71 695.67,-392.08 700.43,-382.62 693.49,-381.71"/>
</g>
<!-- Node14 -->
<g id="node14" class="node">
<title>Node14</title>
<g id="a_node14"><a xlink:href="../../db/d02/Settings_8hpp.html" target="_top" xlink:title="All user settings and debugging options can be changed here.">
<polygon fill="white" stroke="black" points="613,-280.5 613,-299.5 690,-299.5 690,-280.5 613,-280.5"/>
<text text-anchor="middle" x="651.5" y="-287.5" font-family="Helvetica,sans-Serif" font-size="10.00">Settings.hpp</text>
</a>
</g>
</g>
<!-- Node13&#45;&gt;Node14 -->
<g id="edge25" class="edge">
<title>Node13&#45;&gt;Node14</title>
<path fill="none" stroke="midnightblue" d="M684.06,-336.08C678.55,-328.46 670.47,-317.26 663.74,-307.94"/>
<polygon fill="midnightblue" stroke="midnightblue" points="666.51,-305.81 657.82,-299.75 660.84,-309.91 666.51,-305.81"/>
</g>
<!-- Node20 -->
<g id="node20" class="node">
<title>Node20</title>
<g id="a_node20"><a xlink:href="../../d9/d98/TeensyUSBTypes_8hpp.html" target="_top" xlink:title=" ">
<polygon fill="white" stroke="black" points="708,-280.5 708,-299.5 881,-299.5 881,-280.5 708,-280.5"/>
<text text-anchor="middle" x="794.5" y="-287.5" font-family="Helvetica,sans-Serif" font-size="10.00">AH/Teensy/TeensyUSBTypes.hpp</text>
</a>
</g>
</g>
<!-- Node13&#45;&gt;Node20 -->
<g id="edge35" class="edge">
<title>Node13&#45;&gt;Node20</title>
<path fill="none" stroke="midnightblue" d="M707.21,-336.32C723.81,-327.7 749.5,-314.36 768.72,-304.39"/>
<polygon fill="midnightblue" stroke="midnightblue" points="770.57,-307.37 777.83,-299.65 767.34,-301.16 770.57,-307.37"/>
</g>
<!-- Node15 -->
<g id="node15" class="node">
<title>Node15</title>
<g id="a_node15"><a xlink:href="../../dc/d50/Frequency_8hpp.html" target="_top" xlink:title=" ">
<polygon fill="white" stroke="black" points="747.5,-112.5 747.5,-131.5 881.5,-131.5 881.5,-112.5 747.5,-112.5"/>
<text text-anchor="middle" x="814.5" y="-119.5" font-family="Helvetica,sans-Serif" font-size="10.00">AH/Types/Frequency.hpp</text>
</a>
</g>
</g>
<!-- Node14&#45;&gt;Node15 -->
<g id="edge26" class="edge">
<title>Node14&#45;&gt;Node15</title>
<path fill="none" stroke="midnightblue" d="M690.43,-281.58C747.42,-270.53 847.4,-250.37 852.5,-244 877.62,-212.64 847.62,-164.5 828.32,-139.45"/>
<polygon fill="midnightblue" stroke="midnightblue" points="831.02,-137.23 822.04,-131.61 825.56,-141.6 831.02,-137.23"/>
</g>
<!-- Node16 -->
<g id="node16" class="node">
<title>Node16</title>
<g id="a_node16"><a xlink:href="../../d7/d7c/ADCConfig_8hpp.html" target="_top" xlink:title="This file contains the platform&#45;specific ADC resolutions.">
<polygon fill="white" stroke="black" points="544,-224.5 544,-243.5 701,-243.5 701,-224.5 544,-224.5"/>
<text text-anchor="middle" x="622.5" y="-231.5" font-family="Helvetica,sans-Serif" font-size="10.00">AH/Hardware/ADCConfig.hpp</text>
</a>
</g>
</g>
<!-- Node14&#45;&gt;Node16 -->
<g id="edge29" class="edge">
<title>Node14&#45;&gt;Node16</title>
<path fill="none" stroke="midnightblue" d="M646.71,-280.08C642.74,-272.69 636.97,-261.95 632.07,-252.81"/>
<polygon fill="midnightblue" stroke="midnightblue" points="635.01,-250.91 627.2,-243.75 628.85,-254.22 635.01,-250.91"/>
</g>
<!-- Node17 -->
<g id="node17" class="node">
<title>Node17</title>
<g id="a_node17"><a xlink:title=" ">
<polygon fill="white" stroke="#bfbfbf" points="790,-224.5 790,-243.5 843,-243.5 843,-224.5 790,-224.5"/>
<text text-anchor="middle" x="816.5" y="-231.5" font-family="Helvetica,sans-Serif" font-size="10.00">limits.h</text>
</a>
</g>
</g>
<!-- Node14&#45;&gt;Node17 -->
<g id="edge32" class="edge">
<title>Node14&#45;&gt;Node17</title>
<path fill="none" stroke="midnightblue" d="M677.64,-280.44C705.52,-271.32 749.85,-256.81 780.9,-246.65"/>
<polygon fill="midnightblue" stroke="midnightblue" points="782.06,-249.95 790.48,-243.52 779.88,-243.3 782.06,-249.95"/>
</g>
<!-- Node14&#45;&gt;Node18 -->
<g id="edge33" class="edge">
<title>Node14&#45;&gt;Node18</title>
<path fill="none" stroke="midnightblue" d="M627.1,-280.44C601.3,-271.4 560.42,-257.06 531.48,-246.92"/>
<polygon fill="midnightblue" stroke="midnightblue" points="532.38,-243.52 521.79,-243.52 530.07,-250.13 532.38,-243.52"/>
</g>
<!-- Node19 -->
<g id="node19" class="node">
<title>Node19</title>
<g id="a_node19"><a xlink:title=" ">
<polygon fill="white" stroke="#bfbfbf" points="719,-224.5 719,-243.5 772,-243.5 772,-224.5 719,-224.5"/>
<text text-anchor="middle" x="745.5" y="-231.5" font-family="Helvetica,sans-Serif" font-size="10.00">stdint.h</text>
</a>
</g>
</g>
<!-- Node14&#45;&gt;Node19 -->
<g id="edge34" class="edge">
<title>Node14&#45;&gt;Node19</title>
<path fill="none" stroke="midnightblue" d="M666.6,-280.32C681.4,-271.82 704.19,-258.73 721.48,-248.8"/>
<polygon fill="midnightblue" stroke="midnightblue" points="723.51,-251.67 730.43,-243.65 720.02,-245.6 723.51,-251.67"/>
</g>
<!-- Node15&#45;&gt;Node2 -->
<g id="edge28" class="edge">
<title>Node15&#45;&gt;Node2</title>
<path fill="none" stroke="midnightblue" d="M760.63,-112.44C700.19,-102.85 602.26,-87.29 538.12,-77.1"/>
<polygon fill="midnightblue" stroke="midnightblue" points="538.55,-73.63 528.12,-75.52 537.45,-80.54 538.55,-73.63"/>
</g>
<!-- Node15&#45;&gt;Node3 -->
<g id="edge27" class="edge">
<title>Node15&#45;&gt;Node3</title>
<path fill="none" stroke="midnightblue" d="M819.29,-112.37C829.26,-94.38 852.46,-52.55 865.73,-28.63"/>
<polygon fill="midnightblue" stroke="midnightblue" points="868.95,-30.03 870.74,-19.59 862.83,-26.64 868.95,-30.03"/>
</g>
<!-- Node16&#45;&gt;Node3 -->
<g id="edge30" class="edge">
<title>Node16&#45;&gt;Node3</title>
<path fill="none" stroke="midnightblue" d="M629.91,-224.3C647.65,-203.71 694.34,-150.8 738.5,-112 776.99,-78.18 826.19,-43.84 853.94,-25.2"/>
<polygon fill="midnightblue" stroke="midnightblue" points="856.1,-27.96 862.48,-19.5 852.22,-22.14 856.1,-27.96"/>
</g>
<!-- Node16&#45;&gt;Node4 -->
<g id="edge31" class="edge">
<title>Node16&#45;&gt;Node4</title>
<path fill="none" stroke="midnightblue" d="M562.76,-224.44C495.48,-214.81 386.27,-199.16 315.16,-188.98"/>
<polygon fill="midnightblue" stroke="midnightblue" points="315.35,-185.47 304.96,-187.52 314.36,-192.4 315.35,-185.47"/>
</g>
</g>
</svg>
