<?xml version="1.0" encoding="UTF-8" standalone="no"?>
<!DOCTYPE svg PUBLIC "-//W3C//DTD SVG 1.1//EN"
 "http://www.w3.org/Graphics/SVG/1.1/DTD/svg11.dtd">
<!-- Generated by graphviz version 2.38.0 (20140413.2041)
 -->
<!-- Title: ZeroPoleGain.hpp Pages: 1 -->
<svg width="867pt" height="588pt"
 viewBox="0.00 0.00 866.62 588.00" xmlns="http://www.w3.org/2000/svg" xmlns:xlink="http://www.w3.org/1999/xlink">
<g id="graph0" class="graph" transform="scale(1 1) rotate(0) translate(4 584)">
<title>ZeroPoleGain.hpp</title>
<polygon fill="white" stroke="none" points="-4,4 -4,-584 862.623,-584 862.623,4 -4,4"/>
<!-- Node1 -->
<g id="node1" class="node"><title>Node1</title>
<g id="a_node1"><a xlink:title=" ">
<polygon fill="#bfbfbf" stroke="black" points="460.123,-560.5 460.123,-579.5 555.123,-579.5 555.123,-560.5 460.123,-560.5"/>
<text text-anchor="middle" x="507.623" y="-567.5" font-family="Helvetica,sans-Serif" font-size="10.00">ZeroPoleGain.hpp</text>
</a>
</g>
</g>
<!-- Node2 -->
<g id="node2" class="node"><title>Node2</title>
<g id="a_node2"><a xlink:href="../../de/d76/Array_8hpp.html" target="_top" xlink:title=" ">
<polygon fill="white" stroke="black" points="122.623,-336.5 122.623,-355.5 248.623,-355.5 248.623,-336.5 122.623,-336.5"/>
<text text-anchor="middle" x="185.623" y="-343.5" font-family="Helvetica,sans-Serif" font-size="10.00">AH/Containers/Array.hpp</text>
</a>
</g>
</g>
<!-- Node1&#45;&gt;Node2 -->
<g id="edge1" class="edge"><title>Node1&#45;&gt;Node2</title>
<path fill="none" stroke="midnightblue" d="M460.048,-568.438C368.668,-564.384 171.221,-540.459 98.6226,-412 84.871,-387.667 116.219,-369.719 145.046,-358.921"/>
<polygon fill="midnightblue" stroke="midnightblue" points="146.388,-362.159 154.656,-355.534 144.062,-355.557 146.388,-362.159"/>
</g>
<!-- Node20 -->
<g id="node20" class="node"><title>Node20</title>
<g id="a_node20"><a xlink:title=" ">
<polygon fill="white" stroke="#bfbfbf" points="498.123,-336.5 498.123,-355.5 593.123,-355.5 593.123,-336.5 498.123,-336.5"/>
<text text-anchor="middle" x="545.623" y="-343.5" font-family="Helvetica,sans-Serif" font-size="10.00">AH/STL/algorithm</text>
</a>
</g>
</g>
<!-- Node1&#45;&gt;Node20 -->
<g id="edge29" class="edge"><title>Node1&#45;&gt;Node20</title>
<path fill="none" stroke="midnightblue" d="M510.138,-560.244C516.81,-536.585 534.972,-469.298 542.623,-412 544.681,-396.584 545.393,-378.951 545.612,-365.943"/>
<polygon fill="midnightblue" stroke="midnightblue" points="549.112,-365.904 545.698,-355.875 542.112,-365.844 549.112,-365.904"/>
</g>
<!-- Node21 -->
<g id="node21" class="node"><title>Node21</title>
<g id="a_node21"><a xlink:title=" ">
<polygon fill="white" stroke="#bfbfbf" points="589.623,-504.5 589.623,-523.5 681.623,-523.5 681.623,-504.5 589.623,-504.5"/>
<text text-anchor="middle" x="635.623" y="-511.5" font-family="Helvetica,sans-Serif" font-size="10.00">AH/STL/complex</text>
</a>
</g>
</g>
<!-- Node1&#45;&gt;Node21 -->
<g id="edge30" class="edge"><title>Node1&#45;&gt;Node21</title>
<path fill="none" stroke="midnightblue" d="M527.905,-560.444C548.97,-551.557 582.139,-537.563 606.108,-527.451"/>
<polygon fill="midnightblue" stroke="midnightblue" points="607.582,-530.628 615.436,-523.516 604.861,-524.179 607.582,-530.628"/>
</g>
<!-- Node22 -->
<g id="node22" class="node"><title>Node22</title>
<g id="a_node22"><a xlink:href="../../df/ddc/SOSFilter_8hpp.html" target="_top" xlink:title=" ">
<polygon fill="white" stroke="black" points="399.623,-504.5 399.623,-523.5 507.623,-523.5 507.623,-504.5 399.623,-504.5"/>
<text text-anchor="middle" x="453.623" y="-511.5" font-family="Helvetica,sans-Serif" font-size="10.00">Filters/SOSFilter.hpp</text>
</a>
</g>
</g>
<!-- Node1&#45;&gt;Node22 -->
<g id="edge31" class="edge"><title>Node1&#45;&gt;Node22</title>
<path fill="none" stroke="midnightblue" d="M498.706,-560.083C490.842,-552.22 479.191,-540.569 469.704,-531.081"/>
<polygon fill="midnightblue" stroke="midnightblue" points="471.92,-528.347 462.374,-523.751 466.97,-533.297 471.92,-528.347"/>
</g>
<!-- Node3 -->
<g id="node3" class="node"><title>Node3</title>
<g id="a_node3"><a xlink:href="../../d1/d65/Warnings_8hpp.html" target="_top" xlink:title=" ">
<polygon fill="white" stroke="black" points="133.123,-0.5 133.123,-19.5 266.123,-19.5 266.123,-0.5 133.123,-0.5"/>
<text text-anchor="middle" x="199.623" y="-7.5" font-family="Helvetica,sans-Serif" font-size="10.00">AH/Settings/Warnings.hpp</text>
</a>
</g>
</g>
<!-- Node2&#45;&gt;Node3 -->
<g id="edge2" class="edge"><title>Node2&#45;&gt;Node3</title>
<path fill="none" stroke="midnightblue" d="M122.276,-342.461C87.7653,-337.832 46.6996,-326.55 19.6226,-300 -1.86791,-278.928 0.622637,-265.098 0.622637,-235 0.622637,-235 0.622637,-235 0.622637,-121 0.622637,-62.0684 68.2956,-34.4617 124.714,-21.6862"/>
<polygon fill="midnightblue" stroke="midnightblue" points="125.691,-25.0564 134.738,-19.5418 124.227,-18.2113 125.691,-25.0564"/>
</g>
<!-- Node4 -->
<g id="node4" class="node"><title>Node4</title>
<g id="a_node4"><a xlink:href="../../d1/d93/Error_8hpp.html" target="_top" xlink:title=" ">
<polygon fill="white" stroke="black" points="28.6226,-280.5 28.6226,-299.5 126.623,-299.5 126.623,-280.5 28.6226,-280.5"/>
<text text-anchor="middle" x="77.6226" y="-287.5" font-family="Helvetica,sans-Serif" font-size="10.00">AH/Error/Error.hpp</text>
</a>
</g>
</g>
<!-- Node2&#45;&gt;Node4 -->
<g id="edge3" class="edge"><title>Node2&#45;&gt;Node4</title>
<path fill="none" stroke="midnightblue" d="M168.271,-336.324C150.951,-327.664 124.107,-314.242 104.121,-304.249"/>
<polygon fill="midnightblue" stroke="midnightblue" points="105.441,-300.996 94.9316,-299.655 102.311,-307.257 105.441,-300.996"/>
</g>
<!-- Node14 -->
<g id="node14" class="node"><title>Node14</title>
<g id="a_node14"><a xlink:title=" ">
<polygon fill="white" stroke="#bfbfbf" points="806.623,-56.5 806.623,-75.5 858.623,-75.5 858.623,-56.5 806.623,-56.5"/>
<text text-anchor="middle" x="832.623" y="-63.5" font-family="Helvetica,sans-Serif" font-size="10.00">stddef.h</text>
</a>
</g>
</g>
<!-- Node2&#45;&gt;Node14 -->
<g id="edge28" class="edge"><title>Node2&#45;&gt;Node14</title>
<path fill="none" stroke="midnightblue" d="M222.851,-336.452C257.907,-328.123 311.741,-314.609 357.623,-300 492.047,-257.199 529.414,-252.997 654.623,-188 716.464,-155.898 782.655,-106.364 814.049,-81.8251"/>
<polygon fill="midnightblue" stroke="midnightblue" points="816.259,-84.5397 821.948,-75.6019 811.927,-79.041 816.259,-84.5397"/>
</g>
<!-- Node18 -->
<g id="node18" class="node"><title>Node18</title>
<g id="a_node18"><a xlink:title=" ">
<polygon fill="white" stroke="#bfbfbf" points="145.123,-280.5 145.123,-299.5 230.123,-299.5 230.123,-280.5 145.123,-280.5"/>
<text text-anchor="middle" x="187.623" y="-287.5" font-family="Helvetica,sans-Serif" font-size="10.00">AH/STL/iterator</text>
</a>
</g>
</g>
<!-- Node2&#45;&gt;Node18 -->
<g id="edge26" class="edge"><title>Node2&#45;&gt;Node18</title>
<path fill="none" stroke="midnightblue" d="M185.953,-336.083C186.215,-329.006 186.591,-318.861 186.919,-309.986"/>
<polygon fill="midnightblue" stroke="midnightblue" points="190.426,-309.874 187.299,-299.751 183.431,-309.615 190.426,-309.874"/>
</g>
<!-- Node19 -->
<g id="node19" class="node"><title>Node19</title>
<g id="a_node19"><a xlink:title=" ">
<polygon fill="white" stroke="#bfbfbf" points="248.123,-280.5 248.123,-299.5 349.123,-299.5 349.123,-280.5 248.123,-280.5"/>
<text text-anchor="middle" x="298.623" y="-287.5" font-family="Helvetica,sans-Serif" font-size="10.00">AH/STL/type_traits</text>
</a>
</g>
</g>
<!-- Node2&#45;&gt;Node19 -->
<g id="edge27" class="edge"><title>Node2&#45;&gt;Node19</title>
<path fill="none" stroke="midnightblue" d="M203.528,-336.444C221.877,-327.675 250.628,-313.935 271.716,-303.858"/>
<polygon fill="midnightblue" stroke="midnightblue" points="273.288,-306.986 280.801,-299.516 270.269,-300.67 273.288,-306.986"/>
</g>
<!-- Node4&#45;&gt;Node3 -->
<g id="edge4" class="edge"><title>Node4&#45;&gt;Node3</title>
<path fill="none" stroke="midnightblue" d="M78.7992,-280.462C81.2388,-261.994 86.6226,-216.939 86.6226,-179 86.6226,-179 86.6226,-179 86.6226,-121 86.6226,-74.4023 136.57,-41.1433 170.051,-24.0835"/>
<polygon fill="midnightblue" stroke="midnightblue" points="171.971,-27.0411 179.421,-19.5078 168.899,-20.7511 171.971,-27.0411"/>
</g>
<!-- Node5 -->
<g id="node5" class="node"><title>Node5</title>
<g id="a_node5"><a xlink:href="../../df/dee/Debug_8hpp.html" target="_top" xlink:title=" ">
<polygon fill="white" stroke="black" points="246.123,-224.5 246.123,-243.5 359.123,-243.5 359.123,-224.5 246.123,-224.5"/>
<text text-anchor="middle" x="302.623" y="-231.5" font-family="Helvetica,sans-Serif" font-size="10.00">AH/Debug/Debug.hpp</text>
</a>
</g>
</g>
<!-- Node4&#45;&gt;Node5 -->
<g id="edge5" class="edge"><title>Node4&#45;&gt;Node5</title>
<path fill="none" stroke="midnightblue" d="M113.275,-280.444C152.278,-271.083 214.889,-256.056 257.339,-245.868"/>
<polygon fill="midnightblue" stroke="midnightblue" points="258.23,-249.254 267.138,-243.516 256.597,-242.447 258.23,-249.254"/>
</g>
<!-- Node5&#45;&gt;Node3 -->
<g id="edge6" class="edge"><title>Node5&#45;&gt;Node3</title>
<path fill="none" stroke="midnightblue" d="M263.26,-224.473C241.693,-217.896 216.079,-206.661 199.623,-188 159.625,-142.645 147.808,-113.471 166.623,-56 170.112,-45.3397 177.196,-35.1174 183.908,-27.1175"/>
<polygon fill="midnightblue" stroke="midnightblue" points="186.527,-29.4395 190.603,-19.66 181.318,-24.7633 186.527,-29.4395"/>
</g>
<!-- Node6 -->
<g id="node6" class="node"><title>Node6</title>
<g id="a_node6"><a xlink:href="../../dd/d80/PrintStream_8hpp.html" target="_top" xlink:title=" ">
<polygon fill="white" stroke="black" points="208.123,-112.5 208.123,-131.5 367.123,-131.5 367.123,-112.5 208.123,-112.5"/>
<text text-anchor="middle" x="287.623" y="-119.5" font-family="Helvetica,sans-Serif" font-size="10.00">AH/PrintStream/PrintStream.hpp</text>
</a>
</g>
</g>
<!-- Node5&#45;&gt;Node6 -->
<g id="edge7" class="edge"><title>Node5&#45;&gt;Node6</title>
<path fill="none" stroke="midnightblue" d="M301.863,-224.145C300.744,-211.613 298.474,-188.001 295.623,-168 294.375,-159.251 292.699,-149.597 291.203,-141.482"/>
<polygon fill="midnightblue" stroke="midnightblue" points="294.631,-140.773 289.333,-131.599 287.754,-142.075 294.631,-140.773"/>
</g>
<!-- Node8 -->
<g id="node8" class="node"><title>Node8</title>
<g id="a_node8"><a xlink:href="../../d2/dd5/SettingsWrapper_8hpp.html" target="_top" xlink:title=" ">
<polygon fill="white" stroke="black" points="481.623,-168.5 481.623,-187.5 645.623,-187.5 645.623,-168.5 481.623,-168.5"/>
<text text-anchor="middle" x="563.623" y="-175.5" font-family="Helvetica,sans-Serif" font-size="10.00">AH/Settings/SettingsWrapper.hpp</text>
</a>
</g>
</g>
<!-- Node5&#45;&gt;Node8 -->
<g id="edge10" class="edge"><title>Node5&#45;&gt;Node8</title>
<path fill="none" stroke="midnightblue" d="M338.89,-224.444C382.628,-214.964 456.399,-199.675 507.482,-189.483"/>
<polygon fill="midnightblue" stroke="midnightblue" points="508.254,-192.899 517.38,-187.516 506.89,-186.033 508.254,-192.899"/>
</g>
<!-- Node17 -->
<g id="node17" class="node"><title>Node17</title>
<g id="a_node17"><a xlink:href="../../d7/d52/DebugVal_8hpp.html" target="_top" xlink:title=" ">
<polygon fill="white" stroke="black" points="208.623,-168.5 208.623,-187.5 286.623,-187.5 286.623,-168.5 208.623,-168.5"/>
<text text-anchor="middle" x="247.623" y="-175.5" font-family="Helvetica,sans-Serif" font-size="10.00">DebugVal.hpp</text>
</a>
</g>
</g>
<!-- Node5&#45;&gt;Node17 -->
<g id="edge25" class="edge"><title>Node5&#45;&gt;Node17</title>
<path fill="none" stroke="midnightblue" d="M293.541,-224.083C285.451,-216.141 273.427,-204.335 263.712,-194.797"/>
<polygon fill="midnightblue" stroke="midnightblue" points="266.124,-192.26 256.536,-187.751 261.219,-197.254 266.124,-192.26"/>
</g>
<!-- Node6&#45;&gt;Node3 -->
<g id="edge8" class="edge"><title>Node6&#45;&gt;Node3</title>
<path fill="none" stroke="midnightblue" d="M277.743,-112.209C268.219,-103.492 253.666,-89.5197 242.623,-76 230.225,-60.8219 218.091,-42.011 209.891,-28.5372"/>
<polygon fill="midnightblue" stroke="midnightblue" points="212.802,-26.5861 204.668,-19.7976 206.794,-30.177 212.802,-26.5861"/>
</g>
<!-- Node7 -->
<g id="node7" class="node"><title>Node7</title>
<g id="a_node7"><a xlink:title=" ">
<polygon fill="white" stroke="#bfbfbf" points="383.623,-0.5 383.623,-19.5 441.623,-19.5 441.623,-0.5 383.623,-0.5"/>
<text text-anchor="middle" x="412.623" y="-7.5" font-family="Helvetica,sans-Serif" font-size="10.00">Arduino.h</text>
</a>
</g>
</g>
<!-- Node6&#45;&gt;Node7 -->
<g id="edge9" class="edge"><title>Node6&#45;&gt;Node7</title>
<path fill="none" stroke="midnightblue" d="M288.971,-112.305C291.503,-98.6768 298.178,-72.1737 313.623,-56 329.87,-38.9855 353.757,-27.8729 373.996,-20.9479"/>
<polygon fill="midnightblue" stroke="midnightblue" points="375.132,-24.2592 383.589,-17.8772 372.998,-17.5924 375.132,-24.2592"/>
</g>
<!-- Node8&#45;&gt;Node3 -->
<g id="edge11" class="edge"><title>Node8&#45;&gt;Node3</title>
<path fill="none" stroke="midnightblue" d="M527.081,-168.431C496.215,-160.632 451.17,-147.918 413.623,-132 401.898,-127.029 324.71,-82.265 313.623,-76 282.417,-58.3666 246.512,-37.8579 223.469,-24.6674"/>
<polygon fill="midnightblue" stroke="midnightblue" points="225.14,-21.5911 214.723,-19.6588 221.661,-27.6656 225.14,-21.5911"/>
</g>
<!-- Node8&#45;&gt;Node5 -->
<g id="edge24" class="edge"><title>Node8&#45;&gt;Node5</title>
<path fill="none" stroke="midnightblue" d="M527.54,-187.516C483.887,-196.979 410.126,-212.268 358.98,-222.473"/>
<polygon fill="midnightblue" stroke="midnightblue" points="358.193,-219.061 349.068,-224.444 359.558,-225.927 358.193,-219.061"/>
</g>
<!-- Node9 -->
<g id="node9" class="node"><title>Node9</title>
<g id="a_node9"><a xlink:href="../../dc/dc7/NamespaceSettings_8hpp.html" target="_top" xlink:title=" ">
<polygon fill="white" stroke="black" points="670.623,-0.5 670.623,-19.5 794.623,-19.5 794.623,-0.5 670.623,-0.5"/>
<text text-anchor="middle" x="732.623" y="-7.5" font-family="Helvetica,sans-Serif" font-size="10.00">NamespaceSettings.hpp</text>
</a>
</g>
</g>
<!-- Node8&#45;&gt;Node9 -->
<g id="edge12" class="edge"><title>Node8&#45;&gt;Node9</title>
<path fill="none" stroke="midnightblue" d="M613.909,-168.4C662.581,-156.947 732.817,-131.283 759.623,-76 767.495,-59.7649 757.304,-40.634 747.267,-27.3488"/>
<polygon fill="midnightblue" stroke="midnightblue" points="749.928,-25.0737 740.886,-19.5519 744.511,-29.5073 749.928,-25.0737"/>
</g>
<!-- Node10 -->
<g id="node10" class="node"><title>Node10</title>
<g id="a_node10"><a xlink:href="../../db/d02/Settings_8hpp.html" target="_top" xlink:title="All user settings and debugging options can be changed here.">
<polygon fill="white" stroke="black" points="609.123,-112.5 609.123,-131.5 680.123,-131.5 680.123,-112.5 609.123,-112.5"/>
<text text-anchor="middle" x="644.623" y="-119.5" font-family="Helvetica,sans-Serif" font-size="10.00">Settings.hpp</text>
</a>
</g>
</g>
<!-- Node8&#45;&gt;Node10 -->
<g id="edge13" class="edge"><title>Node8&#45;&gt;Node10</title>
<path fill="none" stroke="midnightblue" d="M576.637,-168.324C589.154,-159.979 608.304,-147.212 623.094,-137.352"/>
<polygon fill="midnightblue" stroke="midnightblue" points="625.262,-140.114 631.641,-131.655 621.379,-134.289 625.262,-140.114"/>
</g>
<!-- Node16 -->
<g id="node16" class="node"><title>Node16</title>
<g id="a_node16"><a xlink:href="../../d9/d98/TeensyUSBTypes_8hpp.html" target="_top" xlink:title=" ">
<polygon fill="white" stroke="black" points="422.623,-112.5 422.623,-131.5 590.623,-131.5 590.623,-112.5 422.623,-112.5"/>
<text text-anchor="middle" x="506.623" y="-119.5" font-family="Helvetica,sans-Serif" font-size="10.00">AH/Teensy/TeensyUSBTypes.hpp</text>
</a>
</g>
</g>
<!-- Node8&#45;&gt;Node16 -->
<g id="edge23" class="edge"><title>Node8&#45;&gt;Node16</title>
<path fill="none" stroke="midnightblue" d="M554.465,-168.324C546.121,-160.42 533.59,-148.548 523.446,-138.938"/>
<polygon fill="midnightblue" stroke="midnightblue" points="525.614,-136.171 515.947,-131.834 520.8,-141.252 525.614,-136.171"/>
</g>
<!-- Node11 -->
<g id="node11" class="node"><title>Node11</title>
<g id="a_node11"><a xlink:href="../../dc/d50/Frequency_8hpp.html" target="_top" xlink:title=" ">
<polygon fill="white" stroke="black" points="622.623,-56.5 622.623,-75.5 750.623,-75.5 750.623,-56.5 622.623,-56.5"/>
<text text-anchor="middle" x="686.623" y="-63.5" font-family="Helvetica,sans-Serif" font-size="10.00">AH/Types/Frequency.hpp</text>
</a>
</g>
</g>
<!-- Node10&#45;&gt;Node11 -->
<g id="edge14" class="edge"><title>Node10&#45;&gt;Node11</title>
<path fill="none" stroke="midnightblue" d="M651.558,-112.083C657.552,-104.377 666.374,-93.0333 673.67,-83.6531"/>
<polygon fill="midnightblue" stroke="midnightblue" points="676.44,-85.7934 679.816,-75.7511 670.914,-81.4958 676.44,-85.7934"/>
</g>
<!-- Node12 -->
<g id="node12" class="node"><title>Node12</title>
<g id="a_node12"><a xlink:href="../../d7/d7c/ADCConfig_8hpp.html" target="_top" xlink:title="This file contains the platform&#45;specific ADC resolutions. By default, the library automatically selec...">
<polygon fill="white" stroke="black" points="456.623,-56.5 456.623,-75.5 604.623,-75.5 604.623,-56.5 456.623,-56.5"/>
<text text-anchor="middle" x="530.623" y="-63.5" font-family="Helvetica,sans-Serif" font-size="10.00">AH/Hardware/ADCConfig.hpp</text>
</a>
</g>
</g>
<!-- Node10&#45;&gt;Node12 -->
<g id="edge17" class="edge"><title>Node10&#45;&gt;Node12</title>
<path fill="none" stroke="midnightblue" d="M626.559,-112.444C608.048,-103.675 579.042,-89.9355 557.767,-79.8579"/>
<polygon fill="midnightblue" stroke="midnightblue" points="559.137,-76.6343 548.602,-75.5164 556.141,-82.9604 559.137,-76.6343"/>
</g>
<!-- Node13 -->
<g id="node13" class="node"><title>Node13</title>
<g id="a_node13"><a xlink:title=" ">
<polygon fill="white" stroke="#bfbfbf" points="322.623,-56.5 322.623,-75.5 370.623,-75.5 370.623,-56.5 322.623,-56.5"/>
<text text-anchor="middle" x="346.623" y="-63.5" font-family="Helvetica,sans-Serif" font-size="10.00">limits.h</text>
</a>
</g>
</g>
<!-- Node10&#45;&gt;Node13 -->
<g id="edge20" class="edge"><title>Node10&#45;&gt;Node13</title>
<path fill="none" stroke="midnightblue" d="M608.783,-113.714C605.687,-113.12 602.601,-112.541 599.623,-112 505.283,-94.8528 478.167,-96.9051 380.68,-76.0401"/>
<polygon fill="midnightblue" stroke="midnightblue" points="381.216,-72.5752 370.702,-73.8779 379.734,-79.4164 381.216,-72.5752"/>
</g>
<!-- Node10&#45;&gt;Node14 -->
<g id="edge21" class="edge"><title>Node10&#45;&gt;Node14</title>
<path fill="none" stroke="midnightblue" d="M674.412,-112.444C707.582,-102.916 761.187,-87.5187 796.666,-77.328"/>
<polygon fill="midnightblue" stroke="midnightblue" points="797.96,-80.5978 806.605,-74.473 796.028,-73.8698 797.96,-80.5978"/>
</g>
<!-- Node15 -->
<g id="node15" class="node"><title>Node15</title>
<g id="a_node15"><a xlink:title=" ">
<polygon fill="white" stroke="#bfbfbf" points="389.123,-56.5 389.123,-75.5 438.123,-75.5 438.123,-56.5 389.123,-56.5"/>
<text text-anchor="middle" x="413.623" y="-63.5" font-family="Helvetica,sans-Serif" font-size="10.00">stdint.h</text>
</a>
</g>
</g>
<!-- Node10&#45;&gt;Node15 -->
<g id="edge22" class="edge"><title>Node10&#45;&gt;Node15</title>
<path fill="none" stroke="midnightblue" d="M608.947,-113.236C571.425,-104.984 510.421,-91.33 448.433,-76.1359"/>
<polygon fill="midnightblue" stroke="midnightblue" points="449.027,-72.6776 438.48,-73.6848 447.353,-79.4745 449.027,-72.6776"/>
</g>
<!-- Node11&#45;&gt;Node3 -->
<g id="edge15" class="edge"><title>Node11&#45;&gt;Node3</title>
<path fill="none" stroke="midnightblue" d="M622.535,-57.0458C619.523,-56.6886 616.54,-56.3384 613.623,-56 496.078,-42.3665 359.608,-27.7716 276.46,-19.0176"/>
<polygon fill="midnightblue" stroke="midnightblue" points="276.651,-15.5184 266.34,-17.9532 275.919,-22.48 276.651,-15.5184"/>
</g>
<!-- Node11&#45;&gt;Node9 -->
<g id="edge16" class="edge"><title>Node11&#45;&gt;Node9</title>
<path fill="none" stroke="midnightblue" d="M694.219,-56.083C700.85,-48.2982 710.644,-36.8015 718.681,-27.3665"/>
<polygon fill="midnightblue" stroke="midnightblue" points="721.348,-29.6332 725.168,-19.7511 716.019,-25.0939 721.348,-29.6332"/>
</g>
<!-- Node12&#45;&gt;Node3 -->
<g id="edge18" class="edge"><title>Node12&#45;&gt;Node3</title>
<path fill="none" stroke="midnightblue" d="M478.175,-56.4435C419.464,-46.8654 324.395,-31.3556 261.941,-21.1667"/>
<polygon fill="midnightblue" stroke="midnightblue" points="262.258,-17.6723 251.825,-19.5164 261.131,-24.581 262.258,-17.6723"/>
</g>
<!-- Node12&#45;&gt;Node7 -->
<g id="edge19" class="edge"><title>Node12&#45;&gt;Node7</title>
<path fill="none" stroke="midnightblue" d="M511.925,-56.4435C492.678,-47.6356 462.47,-33.8116 440.423,-23.722"/>
<polygon fill="midnightblue" stroke="midnightblue" points="441.782,-20.4951 431.233,-19.5164 438.869,-26.8603 441.782,-20.4951"/>
</g>
<!-- Node23 -->
<g id="node23" class="node"><title>Node23</title>
<g id="a_node23"><a xlink:href="../../d5/db6/ArrayHelpers_8hpp.html" target="_top" xlink:title=" ">
<polygon fill="white" stroke="black" points="373.623,-392.5 373.623,-411.5 533.623,-411.5 533.623,-392.5 373.623,-392.5"/>
<text text-anchor="middle" x="453.623" y="-399.5" font-family="Helvetica,sans-Serif" font-size="10.00">AH/Containers/ArrayHelpers.hpp</text>
</a>
</g>
</g>
<!-- Node22&#45;&gt;Node23 -->
<g id="edge32" class="edge"><title>Node22&#45;&gt;Node23</title>
<path fill="none" stroke="midnightblue" d="M453.623,-504.368C453.623,-486.617 453.623,-445.666 453.623,-421.597"/>
<polygon fill="midnightblue" stroke="midnightblue" points="457.123,-421.591 453.623,-411.591 450.123,-421.591 457.123,-421.591"/>
</g>
<!-- Node24 -->
<g id="node24" class="node"><title>Node24</title>
<g id="a_node24"><a xlink:href="../../d1/dde/BiQuad_8hpp.html" target="_top" xlink:title=" ">
<polygon fill="white" stroke="black" points="200.623,-448.5 200.623,-467.5 298.623,-467.5 298.623,-448.5 200.623,-448.5"/>
<text text-anchor="middle" x="249.623" y="-455.5" font-family="Helvetica,sans-Serif" font-size="10.00">Filters/BiQuad.hpp</text>
</a>
</g>
</g>
<!-- Node22&#45;&gt;Node24 -->
<g id="edge37" class="edge"><title>Node22&#45;&gt;Node24</title>
<path fill="none" stroke="midnightblue" d="M421.298,-504.444C386.233,-495.162 330.124,-480.309 291.658,-470.127"/>
<polygon fill="midnightblue" stroke="midnightblue" points="292.359,-466.692 281.796,-467.516 290.567,-473.459 292.359,-466.692"/>
</g>
<!-- Node23&#45;&gt;Node2 -->
<g id="edge34" class="edge"><title>Node23&#45;&gt;Node2</title>
<path fill="none" stroke="midnightblue" d="M411.157,-392.444C364.209,-382.984 288.547,-367.738 237.968,-357.547"/>
<polygon fill="midnightblue" stroke="midnightblue" points="238.384,-354.061 227.889,-355.516 237.001,-360.923 238.384,-354.061"/>
</g>
<!-- Node23&#45;&gt;Node3 -->
<g id="edge33" class="edge"><title>Node23&#45;&gt;Node3</title>
<path fill="none" stroke="midnightblue" d="M449.303,-392.497C437.659,-370.438 403.381,-310.946 357.623,-280 311.146,-248.568 281.691,-277.419 236.623,-244 212.661,-226.232 208.463,-216.491 199.623,-188 182.435,-132.605 190.592,-62.678 196.064,-29.7599"/>
<polygon fill="midnightblue" stroke="midnightblue" points="199.54,-30.2021 197.842,-19.7443 192.648,-28.9787 199.54,-30.2021"/>
</g>
<!-- Node23&#45;&gt;Node6 -->
<g id="edge36" class="edge"><title>Node23&#45;&gt;Node6</title>
<path fill="none" stroke="midnightblue" d="M453.623,-392.442C453.623,-373.936 453.623,-328.812 453.623,-291 453.623,-291 453.623,-291 453.623,-233 453.623,-177.368 388.036,-148.212 339.314,-134.228"/>
<polygon fill="midnightblue" stroke="midnightblue" points="340.08,-130.81 329.511,-131.551 338.236,-137.562 340.08,-130.81"/>
</g>
<!-- Node23&#45;&gt;Node20 -->
<g id="edge35" class="edge"><title>Node23&#45;&gt;Node20</title>
<path fill="none" stroke="midnightblue" d="M468.404,-392.324C482.89,-383.822 505.196,-370.729 522.116,-360.797"/>
<polygon fill="midnightblue" stroke="midnightblue" points="524.025,-363.735 530.878,-355.655 520.482,-357.698 524.025,-363.735"/>
</g>
<!-- Node24&#45;&gt;Node2 -->
<g id="edge38" class="edge"><title>Node24&#45;&gt;Node2</title>
<path fill="none" stroke="midnightblue" d="M200.377,-455.631C168.052,-451.851 127.946,-441.064 106.623,-412 90.5048,-390.031 122.075,-371.05 149.966,-359.365"/>
<polygon fill="midnightblue" stroke="midnightblue" points="151.591,-362.486 159.594,-355.543 149.008,-355.98 151.591,-362.486"/>
</g>
<!-- Node25 -->
<g id="node25" class="node"><title>Node25</title>
<g id="a_node25"><a xlink:title=" ">
<polygon fill="white" stroke="#bfbfbf" points="273.623,-392.5 273.623,-411.5 355.623,-411.5 355.623,-392.5 273.623,-392.5"/>
<text text-anchor="middle" x="314.623" y="-399.5" font-family="Helvetica,sans-Serif" font-size="10.00">AH/STL/cmath</text>
</a>
</g>
</g>
<!-- Node24&#45;&gt;Node25 -->
<g id="edge39" class="edge"><title>Node24&#45;&gt;Node25</title>
<path fill="none" stroke="midnightblue" d="M260.066,-448.324C269.769,-440.263 284.438,-428.077 296.122,-418.369"/>
<polygon fill="midnightblue" stroke="midnightblue" points="298.534,-420.916 303.989,-411.834 294.061,-415.532 298.534,-420.916"/>
</g>
<!-- Node26 -->
<g id="node26" class="node"><title>Node26</title>
<g id="a_node26"><a xlink:href="../../d2/d03/TransferFunction_8hpp.html" target="_top" xlink:title=" ">
<polygon fill="white" stroke="black" points="116.123,-392.5 116.123,-411.5 255.123,-411.5 255.123,-392.5 116.123,-392.5"/>
<text text-anchor="middle" x="185.623" y="-399.5" font-family="Helvetica,sans-Serif" font-size="10.00">Filters/TransferFunction.hpp</text>
</a>
</g>
</g>
<!-- Node24&#45;&gt;Node26 -->
<g id="edge40" class="edge"><title>Node24&#45;&gt;Node26</title>
<path fill="none" stroke="midnightblue" d="M239.34,-448.324C229.786,-440.263 215.343,-428.077 203.838,-418.369"/>
<polygon fill="midnightblue" stroke="midnightblue" points="205.992,-415.608 196.092,-411.834 201.478,-420.958 205.992,-415.608"/>
</g>
<!-- Node26&#45;&gt;Node2 -->
<g id="edge41" class="edge"><title>Node26&#45;&gt;Node2</title>
<path fill="none" stroke="midnightblue" d="M185.623,-392.083C185.623,-385.006 185.623,-374.861 185.623,-365.986"/>
<polygon fill="midnightblue" stroke="midnightblue" points="189.123,-365.751 185.623,-355.751 182.123,-365.751 189.123,-365.751"/>
</g>
</g>
</svg>
