<?xml version="1.0" encoding="UTF-8" standalone="no"?>
<!DOCTYPE svg PUBLIC "-//W3C//DTD SVG 1.1//EN"
 "http://www.w3.org/Graphics/SVG/1.1/DTD/svg11.dtd">
<!-- Generated by graphviz version 2.43.0 (0)
 -->
<!-- Title: ArrayHelpers.hpp Pages: 1 -->
<svg width="1123pt" height="588pt"
 viewBox="0.00 0.00 1123.47 588.00" xmlns="http://www.w3.org/2000/svg" xmlns:xlink="http://www.w3.org/1999/xlink">
<g id="graph0" class="graph" transform="scale(1 1) rotate(0) translate(4 584)">
<title>ArrayHelpers.hpp</title>
<polygon fill="white" stroke="transparent" points="-4,4 -4,-584 1119.47,-584 1119.47,4 -4,4"/>
<!-- Node1 -->
<g id="node1" class="node">
<title>Node1</title>
<g id="a_node1"><a xlink:title=" ">
<polygon fill="#bfbfbf" stroke="black" points="763.47,-560.5 763.47,-579.5 864.47,-579.5 864.47,-560.5 763.47,-560.5"/>
<text text-anchor="middle" x="813.97" y="-567.5" font-family="Helvetica,sans-Serif" font-size="10.00">ArrayHelpers.hpp</text>
</a>
</g>
</g>
<!-- Node2 -->
<g id="node2" class="node">
<title>Node2</title>
<g id="a_node2"><a xlink:href="../../d1/d65/Warnings_8hpp.html" target="_top" xlink:title=" ">
<polygon fill="white" stroke="black" points="721.47,-0.5 721.47,-19.5 864.47,-19.5 864.47,-0.5 721.47,-0.5"/>
<text text-anchor="middle" x="792.97" y="-7.5" font-family="Helvetica,sans-Serif" font-size="10.00">AH/Settings/Warnings.hpp</text>
</a>
</g>
</g>
<!-- Node1&#45;&gt;Node2 -->
<g id="edge1" class="edge">
<title>Node1&#45;&gt;Node2</title>
<path fill="none" stroke="midnightblue" d="M859.16,-560.5C910.12,-547.99 985.97,-519.26 985.97,-459 985.97,-459 985.97,-459 985.97,-121 985.97,-62.42 918.04,-34.63 862.78,-21.72"/>
<polygon fill="midnightblue" stroke="midnightblue" points="863.5,-18.29 852.98,-19.55 861.99,-25.13 863.5,-18.29"/>
</g>
<!-- Node3 -->
<g id="node3" class="node">
<title>Node3</title>
<g id="a_node3"><a xlink:href="../../de/d76/Array_8hpp.html" target="_top" xlink:title=" ">
<polygon fill="white" stroke="black" points="727.97,-504.5 727.97,-523.5 789.97,-523.5 789.97,-504.5 727.97,-504.5"/>
<text text-anchor="middle" x="758.97" y="-511.5" font-family="Helvetica,sans-Serif" font-size="10.00">Array.hpp</text>
</a>
</g>
</g>
<!-- Node1&#45;&gt;Node3 -->
<g id="edge2" class="edge">
<title>Node1&#45;&gt;Node3</title>
<path fill="none" stroke="midnightblue" d="M804.89,-560.08C796.8,-552.14 784.77,-540.34 775.06,-530.8"/>
<polygon fill="midnightblue" stroke="midnightblue" points="777.47,-528.26 767.88,-523.75 772.57,-533.25 777.47,-528.26"/>
</g>
<!-- Node6 -->
<g id="node6" class="node">
<title>Node6</title>
<g id="a_node6"><a xlink:href="../../dd/d80/PrintStream_8hpp.html" target="_top" xlink:title=" ">
<polygon fill="white" stroke="black" points="163.47,-224.5 163.47,-243.5 336.47,-243.5 336.47,-224.5 163.47,-224.5"/>
<text text-anchor="middle" x="249.97" y="-231.5" font-family="Helvetica,sans-Serif" font-size="10.00">AH/PrintStream/PrintStream.hpp</text>
</a>
</g>
</g>
<!-- Node1&#45;&gt;Node6 -->
<g id="edge39" class="edge">
<title>Node1&#45;&gt;Node6</title>
<path fill="none" stroke="midnightblue" d="M763.4,-565.65C612.04,-554.97 172.97,-518.81 172.97,-459 172.97,-459 172.97,-459 172.97,-345 172.97,-304.93 207.68,-269.08 230.5,-249.84"/>
<polygon fill="midnightblue" stroke="midnightblue" points="232.71,-252.55 238.28,-243.53 228.3,-247.11 232.71,-252.55"/>
</g>
<!-- Node22 -->
<g id="node22" class="node">
<title>Node22</title>
<g id="a_node22"><a xlink:title=" ">
<polygon fill="white" stroke="#bfbfbf" points="1014.47,-504.5 1014.47,-523.5 1115.47,-523.5 1115.47,-504.5 1014.47,-504.5"/>
<text text-anchor="middle" x="1064.97" y="-511.5" font-family="Helvetica,sans-Serif" font-size="10.00">AH/STL/algorithm</text>
</a>
</g>
</g>
<!-- Node1&#45;&gt;Node22 -->
<g id="edge38" class="edge">
<title>Node1&#45;&gt;Node22</title>
<path fill="none" stroke="midnightblue" d="M853.74,-560.44C897.53,-551.02 967.98,-535.87 1015.35,-525.68"/>
<polygon fill="midnightblue" stroke="midnightblue" points="1016.34,-529.04 1025.38,-523.52 1014.87,-522.2 1016.34,-529.04"/>
</g>
<!-- Node3&#45;&gt;Node2 -->
<g id="edge3" class="edge">
<title>Node3&#45;&gt;Node2</title>
<path fill="none" stroke="midnightblue" d="M790.18,-509.22C843.86,-500.79 947.97,-475.13 947.97,-403 947.97,-403 947.97,-403 947.97,-121 947.97,-67.05 884.74,-37.14 839.05,-22.57"/>
<polygon fill="midnightblue" stroke="midnightblue" points="839.9,-19.17 829.31,-19.61 837.86,-25.87 839.9,-19.17"/>
</g>
<!-- Node4 -->
<g id="node4" class="node">
<title>Node4</title>
<g id="a_node4"><a xlink:href="../../d1/d93/Error_8hpp.html" target="_top" xlink:title=" ">
<polygon fill="white" stroke="black" points="648.97,-448.5 648.97,-467.5 752.97,-467.5 752.97,-448.5 648.97,-448.5"/>
<text text-anchor="middle" x="700.97" y="-455.5" font-family="Helvetica,sans-Serif" font-size="10.00">AH/Error/Error.hpp</text>
</a>
</g>
</g>
<!-- Node3&#45;&gt;Node4 -->
<g id="edge4" class="edge">
<title>Node3&#45;&gt;Node4</title>
<path fill="none" stroke="midnightblue" d="M749.65,-504.32C741.08,-496.34 728.16,-484.31 717.78,-474.65"/>
<polygon fill="midnightblue" stroke="midnightblue" points="720.16,-472.09 710.46,-467.83 715.39,-477.21 720.16,-472.09"/>
</g>
<!-- Node12 -->
<g id="node12" class="node">
<title>Node12</title>
<g id="a_node12"><a xlink:title=" ">
<polygon fill="white" stroke="#bfbfbf" points="19.47,-112.5 19.47,-131.5 126.47,-131.5 126.47,-112.5 19.47,-112.5"/>
<text text-anchor="middle" x="72.97" y="-119.5" font-family="Helvetica,sans-Serif" font-size="10.00">AH/STL/type_traits</text>
</a>
</g>
</g>
<!-- Node3&#45;&gt;Node12 -->
<g id="edge36" class="edge">
<title>Node3&#45;&gt;Node12</title>
<path fill="none" stroke="midnightblue" d="M727.7,-512.29C645.17,-509.98 423.43,-500.81 358.97,-468 209.84,-392.09 109.41,-200.2 81.12,-140.8"/>
<polygon fill="midnightblue" stroke="midnightblue" points="84.22,-139.16 76.81,-131.59 77.88,-142.13 84.22,-139.16"/>
</g>
<!-- Node18 -->
<g id="node18" class="node">
<title>Node18</title>
<g id="a_node18"><a xlink:title=" ">
<polygon fill="white" stroke="#bfbfbf" points="392.97,-224.5 392.97,-243.5 448.97,-243.5 448.97,-224.5 392.97,-224.5"/>
<text text-anchor="middle" x="420.97" y="-231.5" font-family="Helvetica,sans-Serif" font-size="10.00">stddef.h</text>
</a>
</g>
</g>
<!-- Node3&#45;&gt;Node18 -->
<g id="edge37" class="edge">
<title>Node3&#45;&gt;Node18</title>
<path fill="none" stroke="midnightblue" d="M727.9,-511.78C628.85,-507.04 326.97,-485.81 326.97,-403 326.97,-403 326.97,-403 326.97,-345 326.97,-301.93 369.13,-267.21 396.98,-248.98"/>
<polygon fill="midnightblue" stroke="midnightblue" points="398.85,-251.94 405.45,-243.65 395.12,-246.01 398.85,-251.94"/>
</g>
<!-- Node21 -->
<g id="node21" class="node">
<title>Node21</title>
<g id="a_node21"><a xlink:title=" ">
<polygon fill="white" stroke="#bfbfbf" points="770.97,-448.5 770.97,-467.5 860.97,-467.5 860.97,-448.5 770.97,-448.5"/>
<text text-anchor="middle" x="815.97" y="-455.5" font-family="Helvetica,sans-Serif" font-size="10.00">AH/STL/iterator</text>
</a>
</g>
</g>
<!-- Node3&#45;&gt;Node21 -->
<g id="edge35" class="edge">
<title>Node3&#45;&gt;Node21</title>
<path fill="none" stroke="midnightblue" d="M768.13,-504.32C776.47,-496.42 789,-484.55 799.15,-474.94"/>
<polygon fill="midnightblue" stroke="midnightblue" points="801.79,-477.25 806.65,-467.83 796.98,-472.17 801.79,-477.25"/>
</g>
<!-- Node4&#45;&gt;Node2 -->
<g id="edge5" class="edge">
<title>Node4&#45;&gt;Node2</title>
<path fill="none" stroke="midnightblue" d="M729.59,-448.46C786.83,-430.54 909.97,-387.29 909.97,-347 909.97,-347 909.97,-347 909.97,-121 909.97,-73.6 858.37,-40.64 823.7,-23.85"/>
<polygon fill="midnightblue" stroke="midnightblue" points="824.97,-20.58 814.43,-19.54 822.02,-26.93 824.97,-20.58"/>
</g>
<!-- Node5 -->
<g id="node5" class="node">
<title>Node5</title>
<g id="a_node5"><a xlink:href="../../df/dee/Debug_8hpp.html" target="_top" xlink:title=" ">
<polygon fill="white" stroke="black" points="581.47,-392.5 581.47,-411.5 702.47,-411.5 702.47,-392.5 581.47,-392.5"/>
<text text-anchor="middle" x="641.97" y="-399.5" font-family="Helvetica,sans-Serif" font-size="10.00">AH/Debug/Debug.hpp</text>
</a>
</g>
</g>
<!-- Node4&#45;&gt;Node5 -->
<g id="edge6" class="edge">
<title>Node4&#45;&gt;Node5</title>
<path fill="none" stroke="midnightblue" d="M691.49,-448.32C682.77,-440.34 669.63,-428.31 659.07,-418.65"/>
<polygon fill="midnightblue" stroke="midnightblue" points="661.36,-416 651.62,-411.83 656.64,-421.17 661.36,-416"/>
</g>
<!-- Node5&#45;&gt;Node2 -->
<g id="edge7" class="edge">
<title>Node5&#45;&gt;Node2</title>
<path fill="none" stroke="midnightblue" d="M702.7,-397.54C770.84,-389.99 871.97,-366.14 871.97,-291 871.97,-291 871.97,-291 871.97,-121 871.97,-80.79 836.72,-45.22 813.31,-26.03"/>
<polygon fill="midnightblue" stroke="midnightblue" points="815.33,-23.17 805.31,-19.72 811,-28.66 815.33,-23.17"/>
</g>
<!-- Node5&#45;&gt;Node6 -->
<g id="edge8" class="edge">
<title>Node5&#45;&gt;Node6</title>
<path fill="none" stroke="midnightblue" d="M609.54,-392.48C554.71,-377.48 440.89,-343.76 350.97,-300 321.05,-285.44 289.19,-263.78 269.43,-249.52"/>
<polygon fill="midnightblue" stroke="midnightblue" points="271.4,-246.62 261.26,-243.55 267.27,-252.27 271.4,-246.62"/>
</g>
<!-- Node13 -->
<g id="node13" class="node">
<title>Node13</title>
<g id="a_node13"><a xlink:href="../../d2/dd5/SettingsWrapper_8hpp.html" target="_top" xlink:title=" ">
<polygon fill="white" stroke="black" points="552.97,-336.5 552.97,-355.5 730.97,-355.5 730.97,-336.5 552.97,-336.5"/>
<text text-anchor="middle" x="641.97" y="-343.5" font-family="Helvetica,sans-Serif" font-size="10.00">AH/Settings/SettingsWrapper.hpp</text>
</a>
</g>
</g>
<!-- Node5&#45;&gt;Node13 -->
<g id="edge20" class="edge">
<title>Node5&#45;&gt;Node13</title>
<path fill="none" stroke="midnightblue" d="M636.8,-392.08C635.29,-384.93 634.86,-374.64 635.51,-365.69"/>
<polygon fill="midnightblue" stroke="midnightblue" points="638.99,-366.13 636.84,-355.75 632.05,-365.2 638.99,-366.13"/>
</g>
<!-- Node6&#45;&gt;Node2 -->
<g id="edge10" class="edge">
<title>Node6&#45;&gt;Node2</title>
<path fill="none" stroke="midnightblue" d="M178.78,-224.45C92.38,-210.97 -36.38,-179.09 9.97,-112 49.94,-54.14 89.28,-71.09 157.97,-56 261.08,-33.35 563.92,-19.44 710.98,-13.85"/>
<polygon fill="midnightblue" stroke="midnightblue" points="711.43,-17.33 721.29,-13.46 711.17,-10.34 711.43,-17.33"/>
</g>
<!-- Node7 -->
<g id="node7" class="node">
<title>Node7</title>
<g id="a_node7"><a xlink:href="../../dc/dc7/NamespaceSettings_8hpp.html" target="_top" xlink:title=" ">
<polygon fill="white" stroke="black" points="392.47,-56.5 392.47,-75.5 587.47,-75.5 587.47,-56.5 392.47,-56.5"/>
<text text-anchor="middle" x="489.97" y="-63.5" font-family="Helvetica,sans-Serif" font-size="10.00">AH/Settings/NamespaceSettings.hpp</text>
</a>
</g>
</g>
<!-- Node6&#45;&gt;Node7 -->
<g id="edge9" class="edge">
<title>Node6&#45;&gt;Node7</title>
<path fill="none" stroke="midnightblue" d="M267.77,-224.45C283.09,-216.5 305.15,-203.55 320.97,-188 349.8,-159.65 339.41,-137.27 370.97,-112 390.87,-96.07 417.01,-85.35 439.73,-78.39"/>
<polygon fill="midnightblue" stroke="midnightblue" points="440.93,-81.69 449.56,-75.54 438.98,-74.96 440.93,-81.69"/>
</g>
<!-- Node8 -->
<g id="node8" class="node">
<title>Node8</title>
<g id="a_node8"><a xlink:href="../../d6/ddf/Arduino-Wrapper_8h.html" target="_top" xlink:title=" ">
<polygon fill="white" stroke="black" points="187.97,-168.5 187.97,-187.5 311.97,-187.5 311.97,-168.5 187.97,-168.5"/>
<text text-anchor="middle" x="249.97" y="-175.5" font-family="Helvetica,sans-Serif" font-size="10.00">AH/Arduino&#45;Wrapper.h</text>
</a>
</g>
</g>
<!-- Node6&#45;&gt;Node8 -->
<g id="edge11" class="edge">
<title>Node6&#45;&gt;Node8</title>
<path fill="none" stroke="midnightblue" d="M249.97,-224.08C249.97,-217.01 249.97,-206.86 249.97,-197.99"/>
<polygon fill="midnightblue" stroke="midnightblue" points="253.47,-197.75 249.97,-187.75 246.47,-197.75 253.47,-197.75"/>
</g>
<!-- Node9 -->
<g id="node9" class="node">
<title>Node9</title>
<g id="a_node9"><a xlink:href="../../d7/d79/MinMaxFix_8hpp.html" target="_top" xlink:title=" ">
<polygon fill="white" stroke="black" points="182.97,-112.5 182.97,-131.5 318.97,-131.5 318.97,-112.5 182.97,-112.5"/>
<text text-anchor="middle" x="250.97" y="-119.5" font-family="Helvetica,sans-Serif" font-size="10.00">AH/Math/MinMaxFix.hpp</text>
</a>
</g>
</g>
<!-- Node8&#45;&gt;Node9 -->
<g id="edge12" class="edge">
<title>Node8&#45;&gt;Node9</title>
<path fill="none" stroke="midnightblue" d="M250.13,-168.08C250.27,-161.01 250.45,-150.86 250.62,-141.99"/>
<polygon fill="midnightblue" stroke="midnightblue" points="254.12,-141.81 250.81,-131.75 247.12,-141.68 254.12,-141.81"/>
</g>
<!-- Node11 -->
<g id="node11" class="node">
<title>Node11</title>
<g id="a_node11"><a xlink:title=" ">
<polygon fill="white" stroke="#bfbfbf" points="164.47,-0.5 164.47,-19.5 227.47,-19.5 227.47,-0.5 164.47,-0.5"/>
<text text-anchor="middle" x="195.97" y="-7.5" font-family="Helvetica,sans-Serif" font-size="10.00">Arduino.h</text>
</a>
</g>
</g>
<!-- Node8&#45;&gt;Node11 -->
<g id="edge19" class="edge">
<title>Node8&#45;&gt;Node11</title>
<path fill="none" stroke="midnightblue" d="M226.09,-168.43C209.2,-161.2 187.27,-149.24 173.97,-132 152.88,-104.67 146.11,-88.42 157.97,-56 162.03,-44.91 170.16,-34.67 177.86,-26.76"/>
<polygon fill="midnightblue" stroke="midnightblue" points="180.44,-29.14 185.26,-19.7 175.61,-24.07 180.44,-29.14"/>
</g>
<!-- Node8&#45;&gt;Node12 -->
<g id="edge18" class="edge">
<title>Node8&#45;&gt;Node12</title>
<path fill="none" stroke="midnightblue" d="M221.92,-168.44C191.89,-159.28 144.06,-144.69 110.73,-134.52"/>
<polygon fill="midnightblue" stroke="midnightblue" points="111.47,-131.09 100.88,-131.52 109.43,-137.78 111.47,-131.09"/>
</g>
<!-- Node9&#45;&gt;Node2 -->
<g id="edge13" class="edge">
<title>Node9&#45;&gt;Node2</title>
<path fill="none" stroke="midnightblue" d="M269.65,-112.43C288.89,-103.55 319.69,-89.13 345.97,-76 363.04,-67.47 365.72,-61.59 383.97,-56 493.8,-22.38 627.02,-13.24 710.91,-11.09"/>
<polygon fill="midnightblue" stroke="midnightblue" points="711.23,-14.59 721.15,-10.86 711.07,-7.59 711.23,-14.59"/>
</g>
<!-- Node9&#45;&gt;Node7 -->
<g id="edge17" class="edge">
<title>Node9&#45;&gt;Node7</title>
<path fill="none" stroke="midnightblue" d="M288.84,-112.44C330.45,-103.04 397.34,-87.93 442.44,-77.74"/>
<polygon fill="midnightblue" stroke="midnightblue" points="443.29,-81.13 452.28,-75.52 441.75,-74.31 443.29,-81.13"/>
</g>
<!-- Node10 -->
<g id="node10" class="node">
<title>Node10</title>
<g id="a_node10"><a xlink:href="../../d6/d3b/FixArduinoMacros_8hpp.html" target="_top" xlink:title=" ">
<polygon fill="white" stroke="black" points="166.97,-56.5 166.97,-75.5 336.97,-75.5 336.97,-56.5 166.97,-56.5"/>
<text text-anchor="middle" x="251.97" y="-63.5" font-family="Helvetica,sans-Serif" font-size="10.00">AH/Math/FixArduinoMacros.hpp</text>
</a>
</g>
</g>
<!-- Node9&#45;&gt;Node10 -->
<g id="edge14" class="edge">
<title>Node9&#45;&gt;Node10</title>
<path fill="none" stroke="midnightblue" d="M251.13,-112.08C251.27,-105.01 251.45,-94.86 251.62,-85.99"/>
<polygon fill="midnightblue" stroke="midnightblue" points="255.12,-85.81 251.81,-75.75 248.12,-85.68 255.12,-85.81"/>
</g>
<!-- Node10&#45;&gt;Node2 -->
<g id="edge15" class="edge">
<title>Node10&#45;&gt;Node2</title>
<path fill="none" stroke="midnightblue" d="M337.1,-56.5C439.51,-46.28 610.24,-29.24 711.15,-19.17"/>
<polygon fill="midnightblue" stroke="midnightblue" points="711.7,-22.63 721.3,-18.15 711,-15.66 711.7,-22.63"/>
</g>
<!-- Node10&#45;&gt;Node11 -->
<g id="edge16" class="edge">
<title>Node10&#45;&gt;Node11</title>
<path fill="none" stroke="midnightblue" d="M242.97,-56.32C234.78,-48.42 222.46,-36.55 212.5,-26.94"/>
<polygon fill="midnightblue" stroke="midnightblue" points="214.76,-24.26 205.13,-19.83 209.9,-29.29 214.76,-24.26"/>
</g>
<!-- Node13&#45;&gt;Node2 -->
<g id="edge21" class="edge">
<title>Node13&#45;&gt;Node2</title>
<path fill="none" stroke="midnightblue" d="M642.04,-336.44C642.64,-322.51 645.93,-295 661.97,-280 713,-232.3 764.27,-292.06 814.97,-244 836.81,-223.29 833.97,-209.1 833.97,-179 833.97,-179 833.97,-179 833.97,-121 833.97,-86.52 816.06,-49.56 803.91,-28.47"/>
<polygon fill="midnightblue" stroke="midnightblue" points="806.81,-26.49 798.67,-19.71 800.8,-30.09 806.81,-26.49"/>
</g>
<!-- Node13&#45;&gt;Node5 -->
<g id="edge34" class="edge">
<title>Node13&#45;&gt;Node5</title>
<path fill="none" stroke="midnightblue" d="M647.1,-355.75C648.63,-362.86 649.07,-373.14 648.44,-382.1"/>
<polygon fill="midnightblue" stroke="midnightblue" points="644.96,-381.71 647.14,-392.08 651.9,-382.62 644.96,-381.71"/>
</g>
<!-- Node13&#45;&gt;Node7 -->
<g id="edge22" class="edge">
<title>Node13&#45;&gt;Node7</title>
<path fill="none" stroke="midnightblue" d="M557.89,-336.49C498.44,-325.59 422.67,-300.72 383.97,-244 344.19,-185.7 428.44,-112.29 469.36,-81.56"/>
<polygon fill="midnightblue" stroke="midnightblue" points="471.61,-84.25 477.6,-75.51 467.47,-78.61 471.61,-84.25"/>
</g>
<!-- Node14 -->
<g id="node14" class="node">
<title>Node14</title>
<g id="a_node14"><a xlink:href="../../db/d02/Settings_8hpp.html" target="_top" xlink:title="All user settings and debugging options can be changed here.">
<polygon fill="white" stroke="black" points="536.47,-280.5 536.47,-299.5 613.47,-299.5 613.47,-280.5 536.47,-280.5"/>
<text text-anchor="middle" x="574.97" y="-287.5" font-family="Helvetica,sans-Serif" font-size="10.00">Settings.hpp</text>
</a>
</g>
</g>
<!-- Node13&#45;&gt;Node14 -->
<g id="edge23" class="edge">
<title>Node13&#45;&gt;Node14</title>
<path fill="none" stroke="midnightblue" d="M631.21,-336.32C621.2,-328.26 606.08,-316.08 594.04,-306.37"/>
<polygon fill="midnightblue" stroke="midnightblue" points="595.91,-303.38 585.93,-299.83 591.52,-308.83 595.91,-303.38"/>
</g>
<!-- Node20 -->
<g id="node20" class="node">
<title>Node20</title>
<g id="a_node20"><a xlink:href="../../d9/d98/TeensyUSBTypes_8hpp.html" target="_top" xlink:title=" ">
<polygon fill="white" stroke="black" points="670.47,-280.5 670.47,-299.5 843.47,-299.5 843.47,-280.5 670.47,-280.5"/>
<text text-anchor="middle" x="756.97" y="-287.5" font-family="Helvetica,sans-Serif" font-size="10.00">AH/Teensy/TeensyUSBTypes.hpp</text>
</a>
</g>
</g>
<!-- Node13&#45;&gt;Node20 -->
<g id="edge33" class="edge">
<title>Node13&#45;&gt;Node20</title>
<path fill="none" stroke="midnightblue" d="M660.19,-336.44C678.87,-327.68 708.13,-313.94 729.59,-303.86"/>
<polygon fill="midnightblue" stroke="midnightblue" points="731.27,-306.93 738.83,-299.52 728.29,-300.6 731.27,-306.93"/>
</g>
<!-- Node15 -->
<g id="node15" class="node">
<title>Node15</title>
<g id="a_node15"><a xlink:href="../../dc/d50/Frequency_8hpp.html" target="_top" xlink:title=" ">
<polygon fill="white" stroke="black" points="642.97,-112.5 642.97,-131.5 776.97,-131.5 776.97,-112.5 642.97,-112.5"/>
<text text-anchor="middle" x="709.97" y="-119.5" font-family="Helvetica,sans-Serif" font-size="10.00">AH/Types/Frequency.hpp</text>
</a>
</g>
</g>
<!-- Node14&#45;&gt;Node15 -->
<g id="edge24" class="edge">
<title>Node14&#45;&gt;Node15</title>
<path fill="none" stroke="midnightblue" d="M589.23,-280.24C601.96,-271.96 620.59,-258.65 633.97,-244 663.81,-211.32 688.97,-165.42 701.48,-140.6"/>
<polygon fill="midnightblue" stroke="midnightblue" points="704.62,-142.15 705.91,-131.63 698.35,-139.05 704.62,-142.15"/>
</g>
<!-- Node16 -->
<g id="node16" class="node">
<title>Node16</title>
<g id="a_node16"><a xlink:href="../../d7/d7c/ADCConfig_8hpp.html" target="_top" xlink:title="This file contains the platform&#45;specific ADC resolutions.">
<polygon fill="white" stroke="black" points="467.47,-224.5 467.47,-243.5 624.47,-243.5 624.47,-224.5 467.47,-224.5"/>
<text text-anchor="middle" x="545.97" y="-231.5" font-family="Helvetica,sans-Serif" font-size="10.00">AH/Hardware/ADCConfig.hpp</text>
</a>
</g>
</g>
<!-- Node14&#45;&gt;Node16 -->
<g id="edge27" class="edge">
<title>Node14&#45;&gt;Node16</title>
<path fill="none" stroke="midnightblue" d="M570.18,-280.08C566.21,-272.69 560.44,-261.95 555.54,-252.81"/>
<polygon fill="midnightblue" stroke="midnightblue" points="558.48,-250.91 550.67,-243.75 552.32,-254.22 558.48,-250.91"/>
</g>
<!-- Node17 -->
<g id="node17" class="node">
<title>Node17</title>
<g id="a_node17"><a xlink:title=" ">
<polygon fill="white" stroke="#bfbfbf" points="681.47,-224.5 681.47,-243.5 734.47,-243.5 734.47,-224.5 681.47,-224.5"/>
<text text-anchor="middle" x="707.97" y="-231.5" font-family="Helvetica,sans-Serif" font-size="10.00">limits.h</text>
</a>
</g>
</g>
<!-- Node14&#45;&gt;Node17 -->
<g id="edge30" class="edge">
<title>Node14&#45;&gt;Node17</title>
<path fill="none" stroke="midnightblue" d="M596.04,-280.44C618.03,-271.52 652.7,-257.44 677.63,-247.32"/>
<polygon fill="midnightblue" stroke="midnightblue" points="679.05,-250.52 686.99,-243.52 676.41,-244.04 679.05,-250.52"/>
</g>
<!-- Node14&#45;&gt;Node18 -->
<g id="edge31" class="edge">
<title>Node14&#45;&gt;Node18</title>
<path fill="none" stroke="midnightblue" d="M550.57,-280.44C524.77,-271.4 483.89,-257.06 454.95,-246.92"/>
<polygon fill="midnightblue" stroke="midnightblue" points="455.85,-243.52 445.26,-243.52 453.54,-250.13 455.85,-243.52"/>
</g>
<!-- Node19 -->
<g id="node19" class="node">
<title>Node19</title>
<g id="a_node19"><a xlink:title=" ">
<polygon fill="white" stroke="#bfbfbf" points="752.47,-224.5 752.47,-243.5 805.47,-243.5 805.47,-224.5 752.47,-224.5"/>
<text text-anchor="middle" x="778.97" y="-231.5" font-family="Helvetica,sans-Serif" font-size="10.00">stdint.h</text>
</a>
</g>
</g>
<!-- Node14&#45;&gt;Node19 -->
<g id="edge32" class="edge">
<title>Node14&#45;&gt;Node19</title>
<path fill="none" stroke="midnightblue" d="M607.29,-280.44C644.11,-270.7 704.13,-254.81 742.57,-244.64"/>
<polygon fill="midnightblue" stroke="midnightblue" points="743.55,-248 752.32,-242.05 741.76,-241.23 743.55,-248"/>
</g>
<!-- Node15&#45;&gt;Node2 -->
<g id="edge25" class="edge">
<title>Node15&#45;&gt;Node2</title>
<path fill="none" stroke="midnightblue" d="M716.48,-112.37C730.24,-94.14 762.47,-51.43 780.39,-27.68"/>
<polygon fill="midnightblue" stroke="midnightblue" points="783.26,-29.68 786.49,-19.59 777.67,-25.47 783.26,-29.68"/>
</g>
<!-- Node15&#45;&gt;Node7 -->
<g id="edge26" class="edge">
<title>Node15&#45;&gt;Node7</title>
<path fill="none" stroke="midnightblue" d="M675.11,-112.44C637.05,-103.1 576.01,-88.12 534.51,-77.93"/>
<polygon fill="midnightblue" stroke="midnightblue" points="535.21,-74.5 524.67,-75.52 533.54,-81.3 535.21,-74.5"/>
</g>
<!-- Node16&#45;&gt;Node2 -->
<g id="edge28" class="edge">
<title>Node16&#45;&gt;Node2</title>
<path fill="none" stroke="midnightblue" d="M550.78,-224.23C562.72,-203.03 595.53,-148.09 633.97,-112 674.76,-73.7 732.06,-41.47 765.57,-24.32"/>
<polygon fill="midnightblue" stroke="midnightblue" points="767.41,-27.31 774.76,-19.68 764.26,-21.06 767.41,-27.31"/>
</g>
<!-- Node16&#45;&gt;Node8 -->
<g id="edge29" class="edge">
<title>Node16&#45;&gt;Node8</title>
<path fill="none" stroke="midnightblue" d="M499.07,-224.44C446.89,-214.92 362.6,-199.55 306.74,-189.36"/>
<polygon fill="midnightblue" stroke="midnightblue" points="307.12,-185.87 296.65,-187.52 305.86,-192.75 307.12,-185.87"/>
</g>
</g>
</svg>
