<?xml version="1.0" encoding="UTF-8" standalone="no"?>
<!DOCTYPE svg PUBLIC "-//W3C//DTD SVG 1.1//EN"
 "http://www.w3.org/Graphics/SVG/1.1/DTD/svg11.dtd">
<!-- Generated by graphviz version 2.38.0 (20140413.2041)
 -->
<!-- Title: FixedPoint.hpp Pages: 1 -->
<svg width="947pt" height="364pt"
 viewBox="0.00 0.00 946.50 364.00" xmlns="http://www.w3.org/2000/svg" xmlns:xlink="http://www.w3.org/1999/xlink">
<g id="graph0" class="graph" transform="scale(1 1) rotate(0) translate(4 360)">
<title>FixedPoint.hpp</title>
<polygon fill="white" stroke="none" points="-4,4 -4,-360 942.5,-360 942.5,4 -4,4"/>
<!-- Node1 -->
<g id="node1" class="node"><title>Node1</title>
<g id="a_node1"><a xlink:title=" ">
<polygon fill="#bfbfbf" stroke="black" points="254,-336.5 254,-355.5 336,-355.5 336,-336.5 254,-336.5"/>
<text text-anchor="middle" x="295" y="-343.5" font-family="Helvetica,sans-Serif" font-size="10.00">FixedPoint.hpp</text>
</a>
</g>
</g>
<!-- Node2 -->
<g id="node2" class="node"><title>Node2</title>
<g id="a_node2"><a xlink:title=" ">
<polygon fill="white" stroke="#bfbfbf" points="0,-280.5 0,-299.5 82,-299.5 82,-280.5 0,-280.5"/>
<text text-anchor="middle" x="41" y="-287.5" font-family="Helvetica,sans-Serif" font-size="10.00">AH/STL/cmath</text>
</a>
</g>
</g>
<!-- Node1&#45;&gt;Node2 -->
<g id="edge1" class="edge"><title>Node1&#45;&gt;Node2</title>
<path fill="none" stroke="midnightblue" d="M254.753,-336.444C210.35,-327.004 138.847,-311.802 90.9116,-301.611"/>
<polygon fill="midnightblue" stroke="midnightblue" points="91.568,-298.173 81.0588,-299.516 90.1123,-305.02 91.568,-298.173"/>
</g>
<!-- Node3 -->
<g id="node3" class="node"><title>Node3</title>
<g id="a_node3"><a xlink:title=" ">
<polygon fill="white" stroke="#bfbfbf" points="100,-280.5 100,-299.5 184,-299.5 184,-280.5 100,-280.5"/>
<text text-anchor="middle" x="142" y="-287.5" font-family="Helvetica,sans-Serif" font-size="10.00">AH/STL/cstdint</text>
</a>
</g>
</g>
<!-- Node1&#45;&gt;Node3 -->
<g id="edge2" class="edge"><title>Node1&#45;&gt;Node3</title>
<path fill="none" stroke="midnightblue" d="M270.757,-336.444C245.129,-327.399 204.515,-313.064 175.762,-302.916"/>
<polygon fill="midnightblue" stroke="midnightblue" points="176.725,-299.544 166.13,-299.516 174.395,-306.145 176.725,-299.544"/>
</g>
<!-- Node4 -->
<g id="node4" class="node"><title>Node4</title>
<g id="a_node4"><a xlink:title=" ">
<polygon fill="white" stroke="#bfbfbf" points="202,-280.5 202,-299.5 280,-299.5 280,-280.5 202,-280.5"/>
<text text-anchor="middle" x="241" y="-287.5" font-family="Helvetica,sans-Serif" font-size="10.00">AH/STL/limits</text>
</a>
</g>
</g>
<!-- Node1&#45;&gt;Node4 -->
<g id="edge3" class="edge"><title>Node1&#45;&gt;Node4</title>
<path fill="none" stroke="midnightblue" d="M286.083,-336.083C278.22,-328.22 266.569,-316.569 257.081,-307.081"/>
<polygon fill="midnightblue" stroke="midnightblue" points="259.297,-304.347 249.751,-299.751 254.347,-309.297 259.297,-304.347"/>
</g>
<!-- Node5 -->
<g id="node5" class="node"><title>Node5</title>
<g id="a_node5"><a xlink:title=" ">
<polygon fill="white" stroke="#bfbfbf" points="298.5,-280.5 298.5,-299.5 399.5,-299.5 399.5,-280.5 298.5,-280.5"/>
<text text-anchor="middle" x="349" y="-287.5" font-family="Helvetica,sans-Serif" font-size="10.00">AH/STL/type_traits</text>
</a>
</g>
</g>
<!-- Node1&#45;&gt;Node5 -->
<g id="edge4" class="edge"><title>Node1&#45;&gt;Node5</title>
<path fill="none" stroke="midnightblue" d="M303.917,-336.083C311.78,-328.22 323.431,-316.569 332.919,-307.081"/>
<polygon fill="midnightblue" stroke="midnightblue" points="335.653,-309.297 340.249,-299.751 330.703,-304.347 335.653,-309.297"/>
</g>
<!-- Node6 -->
<g id="node6" class="node"><title>Node6</title>
<g id="a_node6"><a xlink:href="../../d1/d93/Error_8hpp.html" target="_top" xlink:title=" ">
<polygon fill="white" stroke="black" points="418,-280.5 418,-299.5 516,-299.5 516,-280.5 418,-280.5"/>
<text text-anchor="middle" x="467" y="-287.5" font-family="Helvetica,sans-Serif" font-size="10.00">AH/Error/Error.hpp</text>
</a>
</g>
</g>
<!-- Node1&#45;&gt;Node6 -->
<g id="edge5" class="edge"><title>Node1&#45;&gt;Node6</title>
<path fill="none" stroke="midnightblue" d="M322.254,-336.444C351.441,-327.28 397.921,-312.688 430.309,-302.519"/>
<polygon fill="midnightblue" stroke="midnightblue" points="431.381,-305.851 439.874,-299.516 429.284,-299.173 431.381,-305.851"/>
</g>
<!-- Node9 -->
<g id="node9" class="node"><title>Node9</title>
<g id="a_node9"><a xlink:href="../../dd/d80/PrintStream_8hpp.html" target="_top" xlink:title=" ">
<polygon fill="white" stroke="black" points="779.5,-112.5 779.5,-131.5 938.5,-131.5 938.5,-112.5 779.5,-112.5"/>
<text text-anchor="middle" x="859" y="-119.5" font-family="Helvetica,sans-Serif" font-size="10.00">AH/PrintStream/PrintStream.hpp</text>
</a>
</g>
</g>
<!-- Node1&#45;&gt;Node9 -->
<g id="edge28" class="edge"><title>Node1&#45;&gt;Node9</title>
<path fill="none" stroke="midnightblue" d="M336.263,-340.635C383.055,-334.844 461.139,-322.609 525,-300 650.212,-255.671 786.214,-170.795 837.674,-137.198"/>
<polygon fill="midnightblue" stroke="midnightblue" points="839.844,-139.96 846.278,-131.543 835.999,-134.111 839.844,-139.96"/>
</g>
<!-- Node7 -->
<g id="node7" class="node"><title>Node7</title>
<g id="a_node7"><a xlink:href="../../d1/d65/Warnings_8hpp.html" target="_top" xlink:title=" ">
<polygon fill="white" stroke="black" points="270.5,-0.5 270.5,-19.5 403.5,-19.5 403.5,-0.5 270.5,-0.5"/>
<text text-anchor="middle" x="337" y="-7.5" font-family="Helvetica,sans-Serif" font-size="10.00">AH/Settings/Warnings.hpp</text>
</a>
</g>
</g>
<!-- Node6&#45;&gt;Node7 -->
<g id="edge6" class="edge"><title>Node6&#45;&gt;Node7</title>
<path fill="none" stroke="midnightblue" d="M431.591,-280.427C349.472,-260.05 153,-208.242 153,-179 153,-179 153,-179 153,-121 153,-63.1891 220.742,-35.0354 274.019,-21.833"/>
<polygon fill="midnightblue" stroke="midnightblue" points="274.846,-25.2341 283.78,-19.538 273.244,-18.4199 274.846,-25.2341"/>
</g>
<!-- Node8 -->
<g id="node8" class="node"><title>Node8</title>
<g id="a_node8"><a xlink:href="../../df/dee/Debug_8hpp.html" target="_top" xlink:title=" ">
<polygon fill="white" stroke="black" points="410.5,-224.5 410.5,-243.5 523.5,-243.5 523.5,-224.5 410.5,-224.5"/>
<text text-anchor="middle" x="467" y="-231.5" font-family="Helvetica,sans-Serif" font-size="10.00">AH/Debug/Debug.hpp</text>
</a>
</g>
</g>
<!-- Node6&#45;&gt;Node8 -->
<g id="edge7" class="edge"><title>Node6&#45;&gt;Node8</title>
<path fill="none" stroke="midnightblue" d="M467,-280.083C467,-273.006 467,-262.861 467,-253.986"/>
<polygon fill="midnightblue" stroke="midnightblue" points="470.5,-253.751 467,-243.751 463.5,-253.751 470.5,-253.751"/>
</g>
<!-- Node8&#45;&gt;Node7 -->
<g id="edge8" class="edge"><title>Node8&#45;&gt;Node7</title>
<path fill="none" stroke="midnightblue" d="M434.89,-224.409C378.961,-207.306 267.125,-162.931 241,-76 238.442,-67.4872 236.232,-63.5016 241,-56 251.165,-40.0096 268.676,-29.6029 285.983,-22.8748"/>
<polygon fill="midnightblue" stroke="midnightblue" points="287.266,-26.1339 295.529,-19.5034 284.935,-19.5334 287.266,-26.1339"/>
</g>
<!-- Node8&#45;&gt;Node9 -->
<g id="edge9" class="edge"><title>Node8&#45;&gt;Node9</title>
<path fill="none" stroke="midnightblue" d="M484.852,-224.337C503.249,-215.371 532.725,-200.898 558,-188 575,-179.325 577.926,-174.13 596,-168 630.146,-156.42 720.015,-142.283 785.212,-132.981"/>
<polygon fill="midnightblue" stroke="midnightblue" points="786.041,-136.399 795.451,-131.531 785.059,-129.468 786.041,-136.399"/>
</g>
<!-- Node11 -->
<g id="node11" class="node"><title>Node11</title>
<g id="a_node11"><a xlink:href="../../d2/dd5/SettingsWrapper_8hpp.html" target="_top" xlink:title=" ">
<polygon fill="white" stroke="black" points="385,-168.5 385,-187.5 549,-187.5 549,-168.5 385,-168.5"/>
<text text-anchor="middle" x="467" y="-175.5" font-family="Helvetica,sans-Serif" font-size="10.00">AH/Settings/SettingsWrapper.hpp</text>
</a>
</g>
</g>
<!-- Node8&#45;&gt;Node11 -->
<g id="edge12" class="edge"><title>Node8&#45;&gt;Node11</title>
<path fill="none" stroke="midnightblue" d="M461.834,-224.083C460.324,-216.927 459.894,-206.635 460.542,-197.691"/>
<polygon fill="midnightblue" stroke="midnightblue" points="464.015,-198.126 461.869,-187.751 457.077,-197.2 464.015,-198.126"/>
</g>
<!-- Node20 -->
<g id="node20" class="node"><title>Node20</title>
<g id="a_node20"><a xlink:href="../../d7/d52/DebugVal_8hpp.html" target="_top" xlink:title=" ">
<polygon fill="white" stroke="black" points="605,-168.5 605,-187.5 683,-187.5 683,-168.5 605,-168.5"/>
<text text-anchor="middle" x="644" y="-175.5" font-family="Helvetica,sans-Serif" font-size="10.00">DebugVal.hpp</text>
</a>
</g>
</g>
<!-- Node8&#45;&gt;Node20 -->
<g id="edge27" class="edge"><title>Node8&#45;&gt;Node20</title>
<path fill="none" stroke="midnightblue" d="M495.046,-224.444C525.082,-215.28 572.913,-200.688 606.243,-190.519"/>
<polygon fill="midnightblue" stroke="midnightblue" points="607.542,-193.782 616.085,-187.516 605.499,-187.087 607.542,-193.782"/>
</g>
<!-- Node9&#45;&gt;Node7 -->
<g id="edge10" class="edge"><title>Node9&#45;&gt;Node7</title>
<path fill="none" stroke="midnightblue" d="M849.916,-112.424C833.966,-97.9462 799.26,-68.9718 764,-56 701.628,-33.0538 518.982,-20.241 413.872,-14.5777"/>
<polygon fill="midnightblue" stroke="midnightblue" points="413.808,-11.0695 403.637,-14.0356 413.437,-18.0597 413.808,-11.0695"/>
</g>
<!-- Node10 -->
<g id="node10" class="node"><title>Node10</title>
<g id="a_node10"><a xlink:title=" ">
<polygon fill="white" stroke="#bfbfbf" points="741,-0.5 741,-19.5 799,-19.5 799,-0.5 741,-0.5"/>
<text text-anchor="middle" x="770" y="-7.5" font-family="Helvetica,sans-Serif" font-size="10.00">Arduino.h</text>
</a>
</g>
</g>
<!-- Node9&#45;&gt;Node10 -->
<g id="edge11" class="edge"><title>Node9&#45;&gt;Node10</title>
<path fill="none" stroke="midnightblue" d="M857.506,-112.184C854.885,-98.8562 848.414,-73.3027 835,-56 824.917,-42.9944 810.021,-32.3003 797.032,-24.6053"/>
<polygon fill="midnightblue" stroke="midnightblue" points="798.441,-21.3825 788.007,-19.542 795.016,-27.4874 798.441,-21.3825"/>
</g>
<!-- Node11&#45;&gt;Node7 -->
<g id="edge13" class="edge"><title>Node11&#45;&gt;Node7</title>
<path fill="none" stroke="midnightblue" d="M410.969,-168.425C358.725,-157.132 283.662,-131.718 248,-76 232.55,-51.861 265.65,-33.7169 295.775,-22.8164"/>
<polygon fill="midnightblue" stroke="midnightblue" points="297.054,-26.0781 305.386,-19.5334 294.791,-19.4539 297.054,-26.0781"/>
</g>
<!-- Node11&#45;&gt;Node8 -->
<g id="edge26" class="edge"><title>Node11&#45;&gt;Node8</title>
<path fill="none" stroke="midnightblue" d="M472.131,-187.751C473.657,-194.858 474.104,-205.136 473.472,-214.101"/>
<polygon fill="midnightblue" stroke="midnightblue" points="469.993,-213.713 472.166,-224.083 476.934,-214.622 469.993,-213.713"/>
</g>
<!-- Node12 -->
<g id="node12" class="node"><title>Node12</title>
<g id="a_node12"><a xlink:href="../../dc/dc7/NamespaceSettings_8hpp.html" target="_top" xlink:title=" ">
<polygon fill="white" stroke="black" points="531,-0.5 531,-19.5 655,-19.5 655,-0.5 531,-0.5"/>
<text text-anchor="middle" x="593" y="-7.5" font-family="Helvetica,sans-Serif" font-size="10.00">NamespaceSettings.hpp</text>
</a>
</g>
</g>
<!-- Node11&#45;&gt;Node12 -->
<g id="edge14" class="edge"><title>Node11&#45;&gt;Node12</title>
<path fill="none" stroke="midnightblue" d="M513.599,-168.475C590.19,-153.348 736.93,-119.292 764,-76 789.892,-34.5924 722.986,-19.4771 665.419,-14.0081"/>
<polygon fill="midnightblue" stroke="midnightblue" points="665.436,-10.4967 655.172,-13.1238 664.834,-17.4708 665.436,-10.4967"/>
</g>
<!-- Node13 -->
<g id="node13" class="node"><title>Node13</title>
<g id="a_node13"><a xlink:href="../../db/d02/Settings_8hpp.html" target="_top" xlink:title="All user settings and debugging options can be changed here.">
<polygon fill="white" stroke="black" points="382.5,-112.5 382.5,-131.5 453.5,-131.5 453.5,-112.5 382.5,-112.5"/>
<text text-anchor="middle" x="418" y="-119.5" font-family="Helvetica,sans-Serif" font-size="10.00">Settings.hpp</text>
</a>
</g>
</g>
<!-- Node11&#45;&gt;Node13 -->
<g id="edge15" class="edge"><title>Node11&#45;&gt;Node13</title>
<path fill="none" stroke="midnightblue" d="M458.909,-168.083C451.845,-160.298 441.412,-148.801 432.851,-139.367"/>
<polygon fill="midnightblue" stroke="midnightblue" points="435.253,-136.805 425.941,-131.751 430.069,-141.509 435.253,-136.805"/>
</g>
<!-- Node19 -->
<g id="node19" class="node"><title>Node19</title>
<g id="a_node19"><a xlink:href="../../d9/d98/TeensyUSBTypes_8hpp.html" target="_top" xlink:title=" ">
<polygon fill="white" stroke="black" points="472,-112.5 472,-131.5 640,-131.5 640,-112.5 472,-112.5"/>
<text text-anchor="middle" x="556" y="-119.5" font-family="Helvetica,sans-Serif" font-size="10.00">AH/Teensy/TeensyUSBTypes.hpp</text>
</a>
</g>
</g>
<!-- Node11&#45;&gt;Node19 -->
<g id="edge25" class="edge"><title>Node11&#45;&gt;Node19</title>
<path fill="none" stroke="midnightblue" d="M481.299,-168.324C495.183,-159.9 516.492,-146.971 532.804,-137.074"/>
<polygon fill="midnightblue" stroke="midnightblue" points="535.002,-139.834 541.736,-131.655 531.371,-133.85 535.002,-139.834"/>
</g>
<!-- Node14 -->
<g id="node14" class="node"><title>Node14</title>
<g id="a_node14"><a xlink:href="../../dc/d50/Frequency_8hpp.html" target="_top" xlink:title=" ">
<polygon fill="white" stroke="black" points="461,-56.5 461,-75.5 589,-75.5 589,-56.5 461,-56.5"/>
<text text-anchor="middle" x="525" y="-63.5" font-family="Helvetica,sans-Serif" font-size="10.00">AH/Types/Frequency.hpp</text>
</a>
</g>
</g>
<!-- Node13&#45;&gt;Node14 -->
<g id="edge16" class="edge"><title>Node13&#45;&gt;Node14</title>
<path fill="none" stroke="midnightblue" d="M435.191,-112.324C452.351,-103.664 478.946,-90.2424 498.747,-80.249"/>
<polygon fill="midnightblue" stroke="midnightblue" points="500.501,-83.2847 507.851,-75.6545 497.347,-77.0354 500.501,-83.2847"/>
</g>
<!-- Node15 -->
<g id="node15" class="node"><title>Node15</title>
<g id="a_node15"><a xlink:href="../../d7/d7c/ADCConfig_8hpp.html" target="_top" xlink:title="This file contains the platform&#45;specific ADC resolutions. By default, the library automatically selec...">
<polygon fill="white" stroke="black" points="607,-56.5 607,-75.5 755,-75.5 755,-56.5 607,-56.5"/>
<text text-anchor="middle" x="681" y="-63.5" font-family="Helvetica,sans-Serif" font-size="10.00">AH/Hardware/ADCConfig.hpp</text>
</a>
</g>
</g>
<!-- Node13&#45;&gt;Node15 -->
<g id="edge19" class="edge"><title>Node13&#45;&gt;Node15</title>
<path fill="none" stroke="midnightblue" d="M453.743,-113.661C499.037,-104.361 577.436,-88.2641 629.265,-77.6224"/>
<polygon fill="midnightblue" stroke="midnightblue" points="630.167,-81.0103 639.259,-75.5704 628.759,-74.1533 630.167,-81.0103"/>
</g>
<!-- Node16 -->
<g id="node16" class="node"><title>Node16</title>
<g id="a_node16"><a xlink:title=" ">
<polygon fill="white" stroke="#bfbfbf" points="257,-56.5 257,-75.5 305,-75.5 305,-56.5 257,-56.5"/>
<text text-anchor="middle" x="281" y="-63.5" font-family="Helvetica,sans-Serif" font-size="10.00">limits.h</text>
</a>
</g>
</g>
<!-- Node13&#45;&gt;Node16 -->
<g id="edge22" class="edge"><title>Node13&#45;&gt;Node16</title>
<path fill="none" stroke="midnightblue" d="M396.292,-112.444C373.645,-103.517 337.928,-89.4387 312.248,-79.3168"/>
<polygon fill="midnightblue" stroke="midnightblue" points="313.193,-75.9273 302.606,-75.5164 310.626,-82.4397 313.193,-75.9273"/>
</g>
<!-- Node17 -->
<g id="node17" class="node"><title>Node17</title>
<g id="a_node17"><a xlink:title=" ">
<polygon fill="white" stroke="#bfbfbf" points="323,-56.5 323,-75.5 375,-75.5 375,-56.5 323,-56.5"/>
<text text-anchor="middle" x="349" y="-63.5" font-family="Helvetica,sans-Serif" font-size="10.00">stddef.h</text>
</a>
</g>
</g>
<!-- Node13&#45;&gt;Node17 -->
<g id="edge23" class="edge"><title>Node13&#45;&gt;Node17</title>
<path fill="none" stroke="midnightblue" d="M406.914,-112.324C396.514,-104.185 380.739,-91.8395 368.278,-82.0874"/>
<polygon fill="midnightblue" stroke="midnightblue" points="370.32,-79.2407 360.288,-75.8339 366.006,-84.7533 370.32,-79.2407"/>
</g>
<!-- Node18 -->
<g id="node18" class="node"><title>Node18</title>
<g id="a_node18"><a xlink:title=" ">
<polygon fill="white" stroke="#bfbfbf" points="393.5,-56.5 393.5,-75.5 442.5,-75.5 442.5,-56.5 393.5,-56.5"/>
<text text-anchor="middle" x="418" y="-63.5" font-family="Helvetica,sans-Serif" font-size="10.00">stdint.h</text>
</a>
</g>
</g>
<!-- Node13&#45;&gt;Node18 -->
<g id="edge24" class="edge"><title>Node13&#45;&gt;Node18</title>
<path fill="none" stroke="midnightblue" d="M418,-112.083C418,-105.006 418,-94.8611 418,-85.9865"/>
<polygon fill="midnightblue" stroke="midnightblue" points="421.5,-85.751 418,-75.7511 414.5,-85.7511 421.5,-85.751"/>
</g>
<!-- Node14&#45;&gt;Node7 -->
<g id="edge17" class="edge"><title>Node14&#45;&gt;Node7</title>
<path fill="none" stroke="midnightblue" d="M495.211,-56.4435C463.171,-47.2406 412.067,-32.5617 376.647,-22.3879"/>
<polygon fill="midnightblue" stroke="midnightblue" points="377.227,-18.9132 366.65,-19.5164 375.295,-25.6412 377.227,-18.9132"/>
</g>
<!-- Node14&#45;&gt;Node12 -->
<g id="edge18" class="edge"><title>Node14&#45;&gt;Node12</title>
<path fill="none" stroke="midnightblue" d="M535.925,-56.324C546.175,-48.1849 561.721,-35.8395 574.001,-26.0874"/>
<polygon fill="midnightblue" stroke="midnightblue" points="576.221,-28.7937 581.876,-19.8339 571.868,-23.3119 576.221,-28.7937"/>
</g>
<!-- Node15&#45;&gt;Node7 -->
<g id="edge20" class="edge"><title>Node15&#45;&gt;Node7</title>
<path fill="none" stroke="midnightblue" d="M626.492,-56.4435C565.35,-46.8456 466.265,-31.2916 401.364,-21.1037"/>
<polygon fill="midnightblue" stroke="midnightblue" points="401.675,-17.6096 391.253,-19.5164 400.589,-24.5249 401.675,-17.6096"/>
</g>
<!-- Node15&#45;&gt;Node10 -->
<g id="edge21" class="edge"><title>Node15&#45;&gt;Node10</title>
<path fill="none" stroke="midnightblue" d="M695.299,-56.324C709.183,-47.9002 730.492,-34.9709 746.804,-25.0741"/>
<polygon fill="midnightblue" stroke="midnightblue" points="749.002,-27.8341 755.736,-19.6545 745.371,-21.8495 749.002,-27.8341"/>
</g>
</g>
</svg>
