<?xml version="1.0" encoding="UTF-8" standalone="no"?>
<!DOCTYPE svg PUBLIC "-//W3C//DTD SVG 1.1//EN"
 "http://www.w3.org/Graphics/SVG/1.1/DTD/svg11.dtd">
<!-- Generated by graphviz version 2.40.1 (20161225.0304)
 -->
<!-- Title: FixedPoint.hpp Pages: 1 -->
<svg width="776pt" height="532pt"
 viewBox="0.00 0.00 775.50 532.00" xmlns="http://www.w3.org/2000/svg" xmlns:xlink="http://www.w3.org/1999/xlink">
<g id="graph0" class="graph" transform="scale(1 1) rotate(0) translate(4 528)">
<title>FixedPoint.hpp</title>
<polygon fill="#ffffff" stroke="transparent" points="-4,4 -4,-528 771.5,-528 771.5,4 -4,4"/>
<!-- Node1 -->
<g id="node1" class="node">
<title>Node1</title>
<g id="a_node1"><a xlink:title=" ">
<polygon fill="#bfbfbf" stroke="#000000" points="336,-504.5 336,-523.5 418,-523.5 418,-504.5 336,-504.5"/>
<text text-anchor="middle" x="377" y="-511.5" font-family="Helvetica,sans-Serif" font-size="10.00" fill="#000000">FixedPoint.hpp</text>
</a>
</g>
</g>
<!-- Node2 -->
<g id="node2" class="node">
<title>Node2</title>
<g id="a_node2"><a xlink:title=" ">
<polygon fill="#ffffff" stroke="#bfbfbf" points="83,-448.5 83,-467.5 165,-467.5 165,-448.5 83,-448.5"/>
<text text-anchor="middle" x="124" y="-455.5" font-family="Helvetica,sans-Serif" font-size="10.00" fill="#000000">AH/STL/cmath</text>
</a>
</g>
</g>
<!-- Node1&#45;&gt;Node2 -->
<g id="edge1" class="edge">
<title>Node1&#45;&gt;Node2</title>
<path fill="none" stroke="#191970" d="M335.7881,-504.878C291.9573,-495.1763 222.5561,-479.8148 175.2353,-469.3406"/>
<polygon fill="#191970" stroke="#191970" points="175.7144,-465.862 165.1943,-467.1181 174.2015,-472.6966 175.7144,-465.862"/>
</g>
<!-- Node3 -->
<g id="node3" class="node">
<title>Node3</title>
<g id="a_node3"><a xlink:title=" ">
<polygon fill="#ffffff" stroke="#bfbfbf" points="183,-448.5 183,-467.5 267,-467.5 267,-448.5 183,-448.5"/>
<text text-anchor="middle" x="225" y="-455.5" font-family="Helvetica,sans-Serif" font-size="10.00" fill="#000000">AH/STL/cstdint</text>
</a>
</g>
</g>
<!-- Node1&#45;&gt;Node3 -->
<g id="edge2" class="edge">
<title>Node1&#45;&gt;Node3</title>
<path fill="none" stroke="#191970" d="M350.8703,-504.3733C325.9232,-495.1822 288.1408,-481.2624 260.4794,-471.0713"/>
<polygon fill="#191970" stroke="#191970" points="261.3822,-467.674 250.7888,-467.5011 258.9622,-474.2424 261.3822,-467.674"/>
</g>
<!-- Node4 -->
<g id="node4" class="node">
<title>Node4</title>
<g id="a_node4"><a xlink:title=" ">
<polygon fill="#ffffff" stroke="#bfbfbf" points="285,-448.5 285,-467.5 363,-467.5 363,-448.5 285,-448.5"/>
<text text-anchor="middle" x="324" y="-455.5" font-family="Helvetica,sans-Serif" font-size="10.00" fill="#000000">AH/STL/limits</text>
</a>
</g>
</g>
<!-- Node1&#45;&gt;Node4 -->
<g id="edge3" class="edge">
<title>Node1&#45;&gt;Node4</title>
<path fill="none" stroke="#191970" d="M367.7681,-504.2455C360.1683,-496.2155 349.2123,-484.6394 340.1632,-475.0781"/>
<polygon fill="#191970" stroke="#191970" points="342.542,-472.4998 333.1261,-467.6427 337.4579,-477.3115 342.542,-472.4998"/>
</g>
<!-- Node5 -->
<g id="node5" class="node">
<title>Node5</title>
<g id="a_node5"><a xlink:title=" ">
<polygon fill="#ffffff" stroke="#bfbfbf" points="666.5,-112.5 666.5,-131.5 767.5,-131.5 767.5,-112.5 666.5,-112.5"/>
<text text-anchor="middle" x="717" y="-119.5" font-family="Helvetica,sans-Serif" font-size="10.00" fill="#000000">AH/STL/type_traits</text>
</a>
</g>
</g>
<!-- Node1&#45;&gt;Node5 -->
<g id="edge4" class="edge">
<title>Node1&#45;&gt;Node5</title>
<path fill="none" stroke="#191970" d="M418.1075,-509.1848C508.1851,-497.4888 715,-463.8955 715,-402 715,-402 715,-402 715,-234 715,-201.7064 715.8415,-164.1836 716.4328,-141.8029"/>
<polygon fill="#191970" stroke="#191970" points="719.9374,-141.6797 716.7134,-131.5873 712.9401,-141.4874 719.9374,-141.6797"/>
</g>
<!-- Node6 -->
<g id="node6" class="node">
<title>Node6</title>
<g id="a_node6"><a xlink:href="../../d1/d93/Error_8hpp.html" target="_top" xlink:title=" ">
<polygon fill="#ffffff" stroke="#000000" points="381,-448.5 381,-467.5 479,-467.5 479,-448.5 381,-448.5"/>
<text text-anchor="middle" x="430" y="-455.5" font-family="Helvetica,sans-Serif" font-size="10.00" fill="#000000">AH/Error/Error.hpp</text>
</a>
</g>
</g>
<!-- Node1&#45;&gt;Node6 -->
<g id="edge5" class="edge">
<title>Node1&#45;&gt;Node6</title>
<path fill="none" stroke="#191970" d="M386.2319,-504.2455C393.8317,-496.2155 404.7877,-484.6394 413.8368,-475.0781"/>
<polygon fill="#191970" stroke="#191970" points="416.5421,-477.3115 420.8739,-467.6427 411.458,-472.4998 416.5421,-477.3115"/>
</g>
<!-- Node9 -->
<g id="node9" class="node">
<title>Node9</title>
<g id="a_node9"><a xlink:href="../../dd/d80/PrintStream_8hpp.html" target="_top" xlink:title=" ">
<polygon fill="#ffffff" stroke="#000000" points="516.5,-280.5 516.5,-299.5 675.5,-299.5 675.5,-280.5 516.5,-280.5"/>
<text text-anchor="middle" x="596" y="-287.5" font-family="Helvetica,sans-Serif" font-size="10.00" fill="#000000">AH/PrintStream/PrintStream.hpp</text>
</a>
</g>
</g>
<!-- Node1&#45;&gt;Node9 -->
<g id="edge36" class="edge">
<title>Node1&#45;&gt;Node9</title>
<path fill="none" stroke="#191970" d="M415.979,-504.4547C438.8995,-497.3344 467.3405,-485.727 488,-468 540.7034,-422.7775 575.1294,-345.1775 589.0276,-309.2687"/>
<polygon fill="#191970" stroke="#191970" points="592.4401,-310.1372 592.6793,-299.545 585.887,-307.6761 592.4401,-310.1372"/>
</g>
<!-- Node7 -->
<g id="node7" class="node">
<title>Node7</title>
<g id="a_node7"><a xlink:href="../../d1/d65/Warnings_8hpp.html" target="_top" xlink:title=" ">
<polygon fill="#ffffff" stroke="#000000" points="199.5,-.5 199.5,-19.5 332.5,-19.5 332.5,-.5 199.5,-.5"/>
<text text-anchor="middle" x="266" y="-7.5" font-family="Helvetica,sans-Serif" font-size="10.00" fill="#000000">AH/Settings/Warnings.hpp</text>
</a>
</g>
</g>
<!-- Node6&#45;&gt;Node7 -->
<g id="edge6" class="edge">
<title>Node6&#45;&gt;Node7</title>
<path fill="none" stroke="#191970" d="M383.9825,-448.449C273.0542,-425.1127 0,-365.6716 0,-346 0,-346 0,-346 0,-122 0,-82.9495 24.381,-75.8671 58,-56 80.6857,-42.5939 142.5644,-29.8595 192.9741,-21.2029"/>
<polygon fill="#191970" stroke="#191970" points="193.6115,-24.6449 202.8881,-19.5269 192.4446,-17.7428 193.6115,-24.6449"/>
</g>
<!-- Node8 -->
<g id="node8" class="node">
<title>Node8</title>
<g id="a_node8"><a xlink:href="../../df/dee/Debug_8hpp.html" target="_top" xlink:title=" ">
<polygon fill="#ffffff" stroke="#000000" points="271.5,-392.5 271.5,-411.5 384.5,-411.5 384.5,-392.5 271.5,-392.5"/>
<text text-anchor="middle" x="328" y="-399.5" font-family="Helvetica,sans-Serif" font-size="10.00" fill="#000000">AH/Debug/Debug.hpp</text>
</a>
</g>
</g>
<!-- Node6&#45;&gt;Node8 -->
<g id="edge7" class="edge">
<title>Node6&#45;&gt;Node8</title>
<path fill="none" stroke="#191970" d="M412.233,-448.2455C396.2905,-439.4928 372.6741,-426.527 354.5011,-416.5496"/>
<polygon fill="#191970" stroke="#191970" points="356.0137,-413.3873 345.5634,-411.6427 352.6448,-419.5233 356.0137,-413.3873"/>
</g>
<!-- Node8&#45;&gt;Node7 -->
<g id="edge8" class="edge">
<title>Node8&#45;&gt;Node7</title>
<path fill="none" stroke="#191970" d="M273.4532,-392.454C189.4473,-376.182 38,-339.9237 38,-290 38,-290 38,-290 38,-122 38,-84.0995 60.1276,-76.5085 92,-56 120.9266,-37.387 157.1511,-26.2757 189.0478,-19.6562"/>
<polygon fill="#191970" stroke="#191970" points="190.096,-23.0175 199.2371,-17.6611 188.7508,-16.148 190.096,-23.0175"/>
</g>
<!-- Node8&#45;&gt;Node9 -->
<g id="edge9" class="edge">
<title>Node8&#45;&gt;Node9</title>
<path fill="none" stroke="#191970" d="M336.5687,-392.3083C349.9346,-377.8098 377.2143,-350.6184 406,-336 439.0503,-319.2159 478.4831,-308.3804 512.8367,-301.4727"/>
<polygon fill="#191970" stroke="#191970" points="513.6951,-304.8717 522.8506,-299.5399 512.3685,-297.9985 513.6951,-304.8717"/>
</g>
<!-- Node15 -->
<g id="node15" class="node">
<title>Node15</title>
<g id="a_node15"><a xlink:href="../../d2/dd5/SettingsWrapper_8hpp.html" target="_top" xlink:title=" ">
<polygon fill="#ffffff" stroke="#000000" points="195,-336.5 195,-355.5 359,-355.5 359,-336.5 195,-336.5"/>
<text text-anchor="middle" x="277" y="-343.5" font-family="Helvetica,sans-Serif" font-size="10.00" fill="#000000">AH/Settings/SettingsWrapper.hpp</text>
</a>
</g>
</g>
<!-- Node8&#45;&gt;Node15 -->
<g id="edge20" class="edge">
<title>Node8&#45;&gt;Node15</title>
<path fill="none" stroke="#191970" d="M313.8496,-392.2455C305.1633,-384.3761 294.543,-373.101 286.7554,-363.6542"/>
<polygon fill="#191970" stroke="#191970" points="289.4332,-361.396 280.5366,-355.6427 283.9036,-365.6883 289.4332,-361.396"/>
</g>
<!-- Node23 -->
<g id="node23" class="node">
<title>Node23</title>
<g id="a_node23"><a xlink:href="../../d7/d52/DebugVal_8hpp.html" target="_top" xlink:title=" ">
<polygon fill="#ffffff" stroke="#000000" points="415,-336.5 415,-355.5 493,-355.5 493,-336.5 415,-336.5"/>
<text text-anchor="middle" x="454" y="-343.5" font-family="Helvetica,sans-Serif" font-size="10.00" fill="#000000">DebugVal.hpp</text>
</a>
</g>
</g>
<!-- Node8&#45;&gt;Node23 -->
<g id="edge35" class="edge">
<title>Node8&#45;&gt;Node23</title>
<path fill="none" stroke="#191970" d="M349.6602,-392.3733C369.9772,-383.3435 400.564,-369.7494 423.375,-359.6111"/>
<polygon fill="#191970" stroke="#191970" points="424.9059,-362.7609 432.6225,-355.5011 422.0628,-356.3642 424.9059,-362.7609"/>
</g>
<!-- Node9&#45;&gt;Node7 -->
<g id="edge10" class="edge">
<title>Node9&#45;&gt;Node7</title>
<path fill="none" stroke="#191970" d="M602.3789,-280.2715C614.1283,-261.3847 638,-218.0797 638,-178 638,-178 638,-178 638,-122 638,-91.4754 642.1479,-75.8979 619,-56 598.4608,-38.3446 440.5338,-23.2996 343.0026,-15.5684"/>
<polygon fill="#191970" stroke="#191970" points="343.1265,-12.0675 332.8836,-14.7753 342.5795,-19.0461 343.1265,-12.0675"/>
</g>
<!-- Node10 -->
<g id="node10" class="node">
<title>Node10</title>
<g id="a_node10"><a xlink:href="../../d6/ddf/Arduino-Wrapper_8h.html" target="_top" xlink:title=" ">
<polygon fill="#ffffff" stroke="#000000" points="421.5,-168.5 421.5,-187.5 536.5,-187.5 536.5,-168.5 421.5,-168.5"/>
<text text-anchor="middle" x="479" y="-175.5" font-family="Helvetica,sans-Serif" font-size="10.00" fill="#000000">AH/Arduino&#45;Wrapper.h</text>
</a>
</g>
</g>
<!-- Node9&#45;&gt;Node10 -->
<g id="edge11" class="edge">
<title>Node9&#45;&gt;Node10</title>
<path fill="none" stroke="#191970" d="M594.9541,-280.3237C592.9756,-266.3318 587.4922,-240.341 573,-224 559.7769,-209.09 540.6282,-198.5121 523.0594,-191.2911"/>
<polygon fill="#191970" stroke="#191970" points="524.099,-187.9411 513.5091,-187.6186 521.5866,-194.4747 524.099,-187.9411"/>
</g>
<!-- Node10&#45;&gt;Node5 -->
<g id="edge18" class="edge">
<title>Node10&#45;&gt;Node5</title>
<path fill="none" stroke="#191970" d="M519.6432,-168.4369C560.2895,-158.8731 622.8913,-144.1432 666.6587,-133.845"/>
<polygon fill="#191970" stroke="#191970" points="667.5919,-137.2211 676.5244,-131.5237 665.9886,-130.4072 667.5919,-137.2211"/>
</g>
<!-- Node11 -->
<g id="node11" class="node">
<title>Node11</title>
<g id="a_node11"><a xlink:href="../../d7/d79/MinMaxFix_8hpp.html" target="_top" xlink:title=" ">
<polygon fill="#ffffff" stroke="#000000" points="416.5,-112.5 416.5,-131.5 541.5,-131.5 541.5,-112.5 416.5,-112.5"/>
<text text-anchor="middle" x="479" y="-119.5" font-family="Helvetica,sans-Serif" font-size="10.00" fill="#000000">AH/Math/MinMaxFix.hpp</text>
</a>
</g>
</g>
<!-- Node10&#45;&gt;Node11 -->
<g id="edge12" class="edge">
<title>Node10&#45;&gt;Node11</title>
<path fill="none" stroke="#191970" d="M479,-168.2455C479,-160.9382 479,-150.6944 479,-141.7046"/>
<polygon fill="#191970" stroke="#191970" points="482.5001,-141.6426 479,-131.6427 475.5001,-141.6427 482.5001,-141.6426"/>
</g>
<!-- Node13 -->
<g id="node13" class="node">
<title>Node13</title>
<g id="a_node13"><a xlink:title=" ">
<polygon fill="#ffffff" stroke="#bfbfbf" points="431,-.5 431,-19.5 489,-19.5 489,-.5 431,-.5"/>
<text text-anchor="middle" x="460" y="-7.5" font-family="Helvetica,sans-Serif" font-size="10.00" fill="#000000">Arduino.h</text>
</a>
</g>
</g>
<!-- Node10&#45;&gt;Node13 -->
<g id="edge19" class="edge">
<title>Node10&#45;&gt;Node13</title>
<path fill="none" stroke="#191970" d="M452.399,-168.397C436.4127,-161.0839 417.4002,-149.291 408,-132 388.4373,-96.0159 421.1713,-51.1318 442.9677,-27.0922"/>
<polygon fill="#191970" stroke="#191970" points="445.5434,-29.4623 449.8489,-19.7817 440.4462,-24.6645 445.5434,-29.4623"/>
</g>
<!-- Node11&#45;&gt;Node7 -->
<g id="edge13" class="edge">
<title>Node11&#45;&gt;Node7</title>
<path fill="none" stroke="#191970" d="M463.23,-112.3982C441.2811,-99.1619 400.1416,-74.8129 364,-56 341.8939,-44.4931 316.3963,-32.5654 296.9512,-23.74"/>
<polygon fill="#191970" stroke="#191970" points="298.214,-20.4701 287.6592,-19.5494 295.3362,-26.8512 298.214,-20.4701"/>
</g>
<!-- Node12 -->
<g id="node12" class="node">
<title>Node12</title>
<g id="a_node12"><a xlink:href="../../d6/d3b/FixArduinoMacros_8hpp.html" target="_top" xlink:title=" ">
<polygon fill="#ffffff" stroke="#000000" points="454,-56.5 454,-75.5 610,-75.5 610,-56.5 454,-56.5"/>
<text text-anchor="middle" x="532" y="-63.5" font-family="Helvetica,sans-Serif" font-size="10.00" fill="#000000">AH/Math/FixArduinoMacros.hpp</text>
</a>
</g>
</g>
<!-- Node11&#45;&gt;Node12 -->
<g id="edge14" class="edge">
<title>Node11&#45;&gt;Node12</title>
<path fill="none" stroke="#191970" d="M488.2319,-112.2455C495.8317,-104.2155 506.7877,-92.6394 515.8368,-83.0781"/>
<polygon fill="#191970" stroke="#191970" points="518.5421,-85.3115 522.8739,-75.6427 513.458,-80.4998 518.5421,-85.3115"/>
</g>
<!-- Node14 -->
<g id="node14" class="node">
<title>Node14</title>
<g id="a_node14"><a xlink:href="../../dc/dc7/NamespaceSettings_8hpp.html" target="_top" xlink:title=" ">
<polygon fill="#ffffff" stroke="#000000" points="142,-56.5 142,-75.5 322,-75.5 322,-56.5 142,-56.5"/>
<text text-anchor="middle" x="232" y="-63.5" font-family="Helvetica,sans-Serif" font-size="10.00" fill="#000000">AH/Settings/NamespaceSettings.hpp</text>
</a>
</g>
</g>
<!-- Node11&#45;&gt;Node14 -->
<g id="edge17" class="edge">
<title>Node11&#45;&gt;Node14</title>
<path fill="none" stroke="#191970" d="M436.8198,-112.4369C394.5477,-102.8529 329.3938,-88.0812 283.9583,-77.78"/>
<polygon fill="#191970" stroke="#191970" points="284.5326,-74.3215 274.0062,-75.5237 282.9848,-81.1482 284.5326,-74.3215"/>
</g>
<!-- Node12&#45;&gt;Node7 -->
<g id="edge15" class="edge">
<title>Node12&#45;&gt;Node7</title>
<path fill="none" stroke="#191970" d="M486.5752,-56.4369C440.7645,-46.7925 370.0002,-31.8948 321.0325,-21.5858"/>
<polygon fill="#191970" stroke="#191970" points="321.744,-18.1589 311.2374,-19.5237 320.3019,-25.0088 321.744,-18.1589"/>
</g>
<!-- Node12&#45;&gt;Node13 -->
<g id="edge16" class="edge">
<title>Node12&#45;&gt;Node13</title>
<path fill="none" stroke="#191970" d="M519.4586,-56.2455C508.7213,-47.8943 493.0527,-35.7076 480.4953,-25.9408"/>
<polygon fill="#191970" stroke="#191970" points="482.4401,-23.0194 472.3977,-19.6427 478.1425,-28.5449 482.4401,-23.0194"/>
</g>
<!-- Node15&#45;&gt;Node7 -->
<g id="edge21" class="edge">
<title>Node15&#45;&gt;Node7</title>
<path fill="none" stroke="#191970" d="M208.3894,-336.4898C150.1612,-324.0963 76,-296.1184 76,-234 76,-234 76,-234 76,-122 76,-64.2347 141.9818,-35.6568 196.1794,-21.9265"/>
<polygon fill="#191970" stroke="#191970" points="197.2383,-25.2718 206.1436,-19.5319 195.6026,-18.4656 197.2383,-25.2718"/>
</g>
<!-- Node15&#45;&gt;Node8 -->
<g id="edge34" class="edge">
<title>Node15&#45;&gt;Node8</title>
<path fill="none" stroke="#191970" d="M291.0269,-355.6427C299.6948,-363.4797 310.3192,-374.7472 318.1336,-384.2112"/>
<polygon fill="#191970" stroke="#191970" points="315.4808,-386.5014 324.3833,-392.2455 321.006,-382.2034 315.4808,-386.5014"/>
</g>
<!-- Node15&#45;&gt;Node14 -->
<g id="edge22" class="edge">
<title>Node15&#45;&gt;Node14</title>
<path fill="none" stroke="#191970" d="M246.9348,-336.4984C206.6066,-321.6545 140,-288.8376 140,-234 140,-234 140,-234 140,-178 140,-147.4754 140.6631,-136.4031 159,-112 165.322,-103.5865 186.6952,-90.5514 204.6931,-80.5023"/>
<polygon fill="#191970" stroke="#191970" points="206.6167,-83.4391 213.6996,-75.5598 203.2491,-77.3024 206.6167,-83.4391"/>
</g>
<!-- Node16 -->
<g id="node16" class="node">
<title>Node16</title>
<g id="a_node16"><a xlink:href="../../db/d02/Settings_8hpp.html" target="_top" xlink:title="All user settings and debugging options can be changed here.">
<polygon fill="#ffffff" stroke="#000000" points="241.5,-280.5 241.5,-299.5 312.5,-299.5 312.5,-280.5 241.5,-280.5"/>
<text text-anchor="middle" x="277" y="-287.5" font-family="Helvetica,sans-Serif" font-size="10.00" fill="#000000">Settings.hpp</text>
</a>
</g>
</g>
<!-- Node15&#45;&gt;Node16 -->
<g id="edge23" class="edge">
<title>Node15&#45;&gt;Node16</title>
<path fill="none" stroke="#191970" d="M277,-336.2455C277,-328.9382 277,-318.6944 277,-309.7046"/>
<polygon fill="#191970" stroke="#191970" points="280.5001,-309.6426 277,-299.6427 273.5001,-309.6427 280.5001,-309.6426"/>
</g>
<!-- Node22 -->
<g id="node22" class="node">
<title>Node22</title>
<g id="a_node22"><a xlink:href="../../d9/d98/TeensyUSBTypes_8hpp.html" target="_top" xlink:title=" ">
<polygon fill="#ffffff" stroke="#000000" points="331,-280.5 331,-299.5 499,-299.5 499,-280.5 331,-280.5"/>
<text text-anchor="middle" x="415" y="-287.5" font-family="Helvetica,sans-Serif" font-size="10.00" fill="#000000">AH/Teensy/TeensyUSBTypes.hpp</text>
</a>
</g>
</g>
<!-- Node15&#45;&gt;Node22 -->
<g id="edge33" class="edge">
<title>Node15&#45;&gt;Node22</title>
<path fill="none" stroke="#191970" d="M300.723,-336.3733C323.1737,-327.2629 357.0739,-313.5062 382.1255,-303.3404"/>
<polygon fill="#191970" stroke="#191970" points="383.6365,-306.5045 391.5865,-299.5011 381.0043,-300.0182 383.6365,-306.5045"/>
</g>
<!-- Node17 -->
<g id="node17" class="node">
<title>Node17</title>
<g id="a_node17"><a xlink:href="../../dc/d50/Frequency_8hpp.html" target="_top" xlink:title=" ">
<polygon fill="#ffffff" stroke="#000000" points="168,-112.5 168,-131.5 296,-131.5 296,-112.5 168,-112.5"/>
<text text-anchor="middle" x="232" y="-119.5" font-family="Helvetica,sans-Serif" font-size="10.00" fill="#000000">AH/Types/Frequency.hpp</text>
</a>
</g>
</g>
<!-- Node16&#45;&gt;Node17 -->
<g id="edge24" class="edge">
<title>Node16&#45;&gt;Node17</title>
<path fill="none" stroke="#191970" d="M248.5619,-280.3621C232.0721,-273.1374 212.701,-261.4529 203,-244 184.4185,-210.5704 204.9972,-165.5685 219.7396,-140.6205"/>
<polygon fill="#191970" stroke="#191970" points="222.9015,-142.1627 225.1967,-131.8195 216.9523,-138.4739 222.9015,-142.1627"/>
</g>
<!-- Node18 -->
<g id="node18" class="node">
<title>Node18</title>
<g id="a_node18"><a xlink:href="../../d7/d7c/ADCConfig_8hpp.html" target="_top" xlink:title="This file contains the platform&#45;specific ADC resolutions. By default, the library automatically selec...">
<polygon fill="#ffffff" stroke="#000000" points="212,-224.5 212,-243.5 360,-243.5 360,-224.5 212,-224.5"/>
<text text-anchor="middle" x="286" y="-231.5" font-family="Helvetica,sans-Serif" font-size="10.00" fill="#000000">AH/Hardware/ADCConfig.hpp</text>
</a>
</g>
</g>
<!-- Node16&#45;&gt;Node18 -->
<g id="edge27" class="edge">
<title>Node16&#45;&gt;Node18</title>
<path fill="none" stroke="#191970" d="M278.5677,-280.2455C279.7421,-272.9382 281.3884,-262.6944 282.8332,-253.7046"/>
<polygon fill="#191970" stroke="#191970" points="286.3191,-254.0714 284.4503,-243.6427 279.4078,-252.9606 286.3191,-254.0714"/>
</g>
<!-- Node19 -->
<g id="node19" class="node">
<title>Node19</title>
<g id="a_node19"><a xlink:title=" ">
<polygon fill="#ffffff" stroke="#bfbfbf" points="516,-224.5 516,-243.5 564,-243.5 564,-224.5 516,-224.5"/>
<text text-anchor="middle" x="540" y="-231.5" font-family="Helvetica,sans-Serif" font-size="10.00" fill="#000000">limits.h</text>
</a>
</g>
</g>
<!-- Node16&#45;&gt;Node19 -->
<g id="edge30" class="edge">
<title>Node16&#45;&gt;Node19</title>
<path fill="none" stroke="#191970" d="M312.8429,-281.9452C315.9379,-281.2769 319.0228,-280.6204 322,-280 400.9601,-263.5471 424.0073,-264.1042 506.1599,-244.0205"/>
<polygon fill="#191970" stroke="#191970" points="507.0612,-247.4031 515.9282,-241.6043 505.3803,-240.6079 507.0612,-247.4031"/>
</g>
<!-- Node20 -->
<g id="node20" class="node">
<title>Node20</title>
<g id="a_node20"><a xlink:title=" ">
<polygon fill="#ffffff" stroke="#bfbfbf" points="378,-224.5 378,-243.5 430,-243.5 430,-224.5 378,-224.5"/>
<text text-anchor="middle" x="404" y="-231.5" font-family="Helvetica,sans-Serif" font-size="10.00" fill="#000000">stddef.h</text>
</a>
</g>
</g>
<!-- Node16&#45;&gt;Node20 -->
<g id="edge31" class="edge">
<title>Node16&#45;&gt;Node20</title>
<path fill="none" stroke="#191970" d="M298.8321,-280.3733C319.3103,-271.3435 350.1399,-257.7494 373.1319,-247.6111"/>
<polygon fill="#191970" stroke="#191970" points="374.715,-250.7383 382.4528,-243.5011 371.8907,-244.3333 374.715,-250.7383"/>
</g>
<!-- Node21 -->
<g id="node21" class="node">
<title>Node21</title>
<g id="a_node21"><a xlink:title=" ">
<polygon fill="#ffffff" stroke="#bfbfbf" points="448.5,-224.5 448.5,-243.5 497.5,-243.5 497.5,-224.5 448.5,-224.5"/>
<text text-anchor="middle" x="473" y="-231.5" font-family="Helvetica,sans-Serif" font-size="10.00" fill="#000000">stdint.h</text>
</a>
</g>
</g>
<!-- Node16&#45;&gt;Node21 -->
<g id="edge32" class="edge">
<title>Node16&#45;&gt;Node21</title>
<path fill="none" stroke="#191970" d="M310.8465,-280.489C341.6533,-271.81 388.639,-258.5183 438.7664,-244.0488"/>
<polygon fill="#191970" stroke="#191970" points="439.8589,-247.3764 448.494,-241.2375 437.9154,-240.6516 439.8589,-247.3764"/>
</g>
<!-- Node17&#45;&gt;Node7 -->
<g id="edge25" class="edge">
<title>Node17&#45;&gt;Node7</title>
<path fill="none" stroke="#191970" d="M192.5866,-112.4742C157.2912,-101.9716 113.8257,-82.9204 133,-56 142.602,-42.519 179.2926,-30.4231 211.7098,-22.0221"/>
<polygon fill="#191970" stroke="#191970" points="212.7536,-25.3687 221.5984,-19.5361 211.0468,-18.5799 212.7536,-25.3687"/>
</g>
<!-- Node17&#45;&gt;Node14 -->
<g id="edge26" class="edge">
<title>Node17&#45;&gt;Node14</title>
<path fill="none" stroke="#191970" d="M232,-112.2455C232,-104.9382 232,-94.6944 232,-85.7046"/>
<polygon fill="#191970" stroke="#191970" points="235.5001,-85.6426 232,-75.6427 228.5001,-85.6427 235.5001,-85.6426"/>
</g>
<!-- Node18&#45;&gt;Node7 -->
<g id="edge28" class="edge">
<title>Node18&#45;&gt;Node7</title>
<path fill="none" stroke="#191970" d="M293.0891,-224.1868C312.2474,-196.3663 361.6132,-115.1684 331,-56 323.9454,-42.365 310.7805,-31.9036 298.1337,-24.4282"/>
<polygon fill="#191970" stroke="#191970" points="299.5666,-21.2231 289.1112,-19.5099 296.2163,-27.3692 299.5666,-21.2231"/>
</g>
<!-- Node18&#45;&gt;Node10 -->
<g id="edge29" class="edge">
<title>Node18&#45;&gt;Node10</title>
<path fill="none" stroke="#191970" d="M319.1779,-224.3733C351.5487,-214.9807 400.9398,-200.6496 436.2424,-190.4064"/>
<polygon fill="#191970" stroke="#191970" points="437.6265,-193.6492 446.2551,-187.5011 435.6758,-186.9264 437.6265,-193.6492"/>
</g>
</g>
</svg>
