<?xml version="1.0" encoding="UTF-8" standalone="no"?>
<!DOCTYPE svg PUBLIC "-//W3C//DTD SVG 1.1//EN"
 "http://www.w3.org/Graphics/SVG/1.1/DTD/svg11.dtd">
<!-- Generated by graphviz version 2.38.0 (20140413.2041)
 -->
<!-- Title: FixedPoint.hpp Pages: 1 -->
<svg width="776pt" height="532pt"
 viewBox="0.00 0.00 775.50 532.00" xmlns="http://www.w3.org/2000/svg" xmlns:xlink="http://www.w3.org/1999/xlink">
<g id="graph0" class="graph" transform="scale(1 1) rotate(0) translate(4 528)">
<title>FixedPoint.hpp</title>
<polygon fill="white" stroke="none" points="-4,4 -4,-528 771.5,-528 771.5,4 -4,4"/>
<!-- Node1 -->
<g id="node1" class="node"><title>Node1</title>
<g id="a_node1"><a xlink:title=" ">
<polygon fill="#bfbfbf" stroke="black" points="289,-504.5 289,-523.5 371,-523.5 371,-504.5 289,-504.5"/>
<text text-anchor="middle" x="330" y="-511.5" font-family="Helvetica,sans-Serif" font-size="10.00">FixedPoint.hpp</text>
</a>
</g>
</g>
<!-- Node2 -->
<g id="node2" class="node"><title>Node2</title>
<g id="a_node2"><a xlink:title=" ">
<polygon fill="white" stroke="#bfbfbf" points="36,-448.5 36,-467.5 118,-467.5 118,-448.5 36,-448.5"/>
<text text-anchor="middle" x="77" y="-455.5" font-family="Helvetica,sans-Serif" font-size="10.00">AH/STL/cmath</text>
</a>
</g>
</g>
<!-- Node1&#45;&gt;Node2 -->
<g id="edge1" class="edge"><title>Node1&#45;&gt;Node2</title>
<path fill="none" stroke="midnightblue" d="M289.911,-504.444C245.684,-495.004 174.461,-479.802 126.715,-469.611"/>
<polygon fill="midnightblue" stroke="midnightblue" points="127.411,-466.181 116.901,-467.516 125.95,-473.027 127.411,-466.181"/>
</g>
<!-- Node3 -->
<g id="node3" class="node"><title>Node3</title>
<g id="a_node3"><a xlink:title=" ">
<polygon fill="white" stroke="#bfbfbf" points="136,-448.5 136,-467.5 220,-467.5 220,-448.5 136,-448.5"/>
<text text-anchor="middle" x="178" y="-455.5" font-family="Helvetica,sans-Serif" font-size="10.00">AH/STL/cstdint</text>
</a>
</g>
</g>
<!-- Node1&#45;&gt;Node3 -->
<g id="edge2" class="edge"><title>Node1&#45;&gt;Node3</title>
<path fill="none" stroke="midnightblue" d="M305.915,-504.444C280.455,-495.399 240.106,-481.064 211.541,-470.916"/>
<polygon fill="midnightblue" stroke="midnightblue" points="212.567,-467.566 201.972,-467.516 210.223,-474.162 212.567,-467.566"/>
</g>
<!-- Node4 -->
<g id="node4" class="node"><title>Node4</title>
<g id="a_node4"><a xlink:title=" ">
<polygon fill="white" stroke="#bfbfbf" points="238,-448.5 238,-467.5 316,-467.5 316,-448.5 238,-448.5"/>
<text text-anchor="middle" x="277" y="-455.5" font-family="Helvetica,sans-Serif" font-size="10.00">AH/STL/limits</text>
</a>
</g>
</g>
<!-- Node1&#45;&gt;Node4 -->
<g id="edge3" class="edge"><title>Node1&#45;&gt;Node4</title>
<path fill="none" stroke="midnightblue" d="M321.248,-504.083C313.53,-496.22 302.095,-484.569 292.783,-475.081"/>
<polygon fill="midnightblue" stroke="midnightblue" points="295.092,-472.436 285.589,-467.751 290.096,-477.34 295.092,-472.436"/>
</g>
<!-- Node5 -->
<g id="node5" class="node"><title>Node5</title>
<g id="a_node5"><a xlink:title=" ">
<polygon fill="white" stroke="#bfbfbf" points="666.5,-112.5 666.5,-131.5 767.5,-131.5 767.5,-112.5 666.5,-112.5"/>
<text text-anchor="middle" x="717" y="-119.5" font-family="Helvetica,sans-Serif" font-size="10.00">AH/STL/type_traits</text>
</a>
</g>
</g>
<!-- Node1&#45;&gt;Node5 -->
<g id="edge4" class="edge"><title>Node1&#45;&gt;Node5</title>
<path fill="none" stroke="midnightblue" d="M371.352,-509.931C470.387,-501.449 713,-473.478 713,-403 713,-403 713,-403 713,-233 713,-200.927 714.719,-163.628 715.904,-141.741"/>
<polygon fill="midnightblue" stroke="midnightblue" points="719.409,-141.735 716.477,-131.554 712.42,-141.341 719.409,-141.735"/>
</g>
<!-- Node6 -->
<g id="node6" class="node"><title>Node6</title>
<g id="a_node6"><a xlink:href="../../d1/d93/Error_8hpp.html" target="_top" xlink:title=" ">
<polygon fill="white" stroke="black" points="334,-448.5 334,-467.5 432,-467.5 432,-448.5 334,-448.5"/>
<text text-anchor="middle" x="383" y="-455.5" font-family="Helvetica,sans-Serif" font-size="10.00">AH/Error/Error.hpp</text>
</a>
</g>
</g>
<!-- Node1&#45;&gt;Node6 -->
<g id="edge5" class="edge"><title>Node1&#45;&gt;Node6</title>
<path fill="none" stroke="midnightblue" d="M338.752,-504.083C346.47,-496.22 357.905,-484.569 367.217,-475.081"/>
<polygon fill="midnightblue" stroke="midnightblue" points="369.904,-477.34 374.411,-467.751 364.908,-472.436 369.904,-477.34"/>
</g>
<!-- Node9 -->
<g id="node9" class="node"><title>Node9</title>
<g id="a_node9"><a xlink:href="../../dd/d80/PrintStream_8hpp.html" target="_top" xlink:title=" ">
<polygon fill="white" stroke="black" points="519.5,-280.5 519.5,-299.5 678.5,-299.5 678.5,-280.5 519.5,-280.5"/>
<text text-anchor="middle" x="599" y="-287.5" font-family="Helvetica,sans-Serif" font-size="10.00">AH/PrintStream/PrintStream.hpp</text>
</a>
</g>
</g>
<!-- Node1&#45;&gt;Node9 -->
<g id="edge36" class="edge"><title>Node1&#45;&gt;Node9</title>
<path fill="none" stroke="midnightblue" d="M361.578,-504.445C384.903,-497.157 416.689,-485.122 441,-468 506.875,-421.604 564.328,-342.769 587.768,-308.157"/>
<polygon fill="midnightblue" stroke="midnightblue" points="590.818,-309.892 593.457,-299.631 584.995,-306.007 590.818,-309.892"/>
</g>
<!-- Node7 -->
<g id="node7" class="node"><title>Node7</title>
<g id="a_node7"><a xlink:href="../../d1/d65/Warnings_8hpp.html" target="_top" xlink:title=" ">
<polygon fill="white" stroke="black" points="163.5,-0.5 163.5,-19.5 296.5,-19.5 296.5,-0.5 163.5,-0.5"/>
<text text-anchor="middle" x="230" y="-7.5" font-family="Helvetica,sans-Serif" font-size="10.00">AH/Settings/Warnings.hpp</text>
</a>
</g>
</g>
<!-- Node6&#45;&gt;Node7 -->
<g id="edge6" class="edge"><title>Node6&#45;&gt;Node7</title>
<path fill="none" stroke="midnightblue" d="M336.037,-448.477C233.765,-429.272 0,-381.591 0,-347 0,-347 0,-347 0,-121 0,-51.5332 86.4438,-25.8984 153.341,-16.4608"/>
<polygon fill="midnightblue" stroke="midnightblue" points="154.015,-19.9025 163.474,-15.1317 153.104,-12.962 154.015,-19.9025"/>
</g>
<!-- Node8 -->
<g id="node8" class="node"><title>Node8</title>
<g id="a_node8"><a xlink:href="../../df/dee/Debug_8hpp.html" target="_top" xlink:title=" ">
<polygon fill="white" stroke="black" points="274.5,-392.5 274.5,-411.5 387.5,-411.5 387.5,-392.5 274.5,-392.5"/>
<text text-anchor="middle" x="331" y="-399.5" font-family="Helvetica,sans-Serif" font-size="10.00">AH/Debug/Debug.hpp</text>
</a>
</g>
</g>
<!-- Node6&#45;&gt;Node8 -->
<g id="edge7" class="edge"><title>Node6&#45;&gt;Node8</title>
<path fill="none" stroke="midnightblue" d="M374.413,-448.083C366.841,-440.22 355.622,-428.569 346.486,-419.081"/>
<polygon fill="midnightblue" stroke="midnightblue" points="348.885,-416.527 339.427,-411.751 343.842,-421.382 348.885,-416.527"/>
</g>
<!-- Node8&#45;&gt;Node7 -->
<g id="edge8" class="edge"><title>Node8&#45;&gt;Node7</title>
<path fill="none" stroke="midnightblue" d="M278.955,-392.468C194.759,-377.175 38,-341.871 38,-291 38,-291 38,-291 38,-121 38,-62.5929 105.721,-34.7629 160.724,-21.7917"/>
<polygon fill="midnightblue" stroke="midnightblue" points="161.829,-25.1314 170.827,-19.5386 160.305,-18.2992 161.829,-25.1314"/>
</g>
<!-- Node8&#45;&gt;Node9 -->
<g id="edge9" class="edge"><title>Node8&#45;&gt;Node9</title>
<path fill="none" stroke="midnightblue" d="M338.729,-392.367C351.787,-378.332 379.675,-350.663 409,-336 443.219,-318.891 484.194,-308.121 519.317,-301.426"/>
<polygon fill="midnightblue" stroke="midnightblue" points="520.327,-304.8 529.536,-299.561 519.07,-297.914 520.327,-304.8"/>
</g>
<!-- Node15 -->
<g id="node15" class="node"><title>Node15</title>
<g id="a_node15"><a xlink:href="../../d2/dd5/SettingsWrapper_8hpp.html" target="_top" xlink:title=" ">
<polygon fill="white" stroke="black" points="198,-336.5 198,-355.5 362,-355.5 362,-336.5 198,-336.5"/>
<text text-anchor="middle" x="280" y="-343.5" font-family="Helvetica,sans-Serif" font-size="10.00">AH/Settings/SettingsWrapper.hpp</text>
</a>
</g>
</g>
<!-- Node8&#45;&gt;Node15 -->
<g id="edge20" class="edge"><title>Node8&#45;&gt;Node15</title>
<path fill="none" stroke="midnightblue" d="M317.691,-392.324C308.787,-384.654 297.62,-373.25 289.564,-363.8"/>
<polygon fill="midnightblue" stroke="midnightblue" points="292.173,-361.458 283.194,-355.834 286.706,-365.83 292.173,-361.458"/>
</g>
<!-- Node23 -->
<g id="node23" class="node"><title>Node23</title>
<g id="a_node23"><a xlink:href="../../d7/d52/DebugVal_8hpp.html" target="_top" xlink:title=" ">
<polygon fill="white" stroke="black" points="418,-336.5 418,-355.5 496,-355.5 496,-336.5 418,-336.5"/>
<text text-anchor="middle" x="457" y="-343.5" font-family="Helvetica,sans-Serif" font-size="10.00">DebugVal.hpp</text>
</a>
</g>
</g>
<!-- Node8&#45;&gt;Node23 -->
<g id="edge35" class="edge"><title>Node8&#45;&gt;Node23</title>
<path fill="none" stroke="midnightblue" d="M350.965,-392.444C371.609,-383.596 404.063,-369.687 427.632,-359.586"/>
<polygon fill="midnightblue" stroke="midnightblue" points="429.316,-362.673 437.128,-355.516 426.558,-356.239 429.316,-362.673"/>
</g>
<!-- Node9&#45;&gt;Node7 -->
<g id="edge10" class="edge"><title>Node9&#45;&gt;Node7</title>
<path fill="none" stroke="midnightblue" d="M604.423,-280.25C615.139,-262.096 638,-218.713 638,-179 638,-179 638,-179 638,-121 638,-90.9022 642.005,-75.4077 619,-56 595.655,-36.3053 413.403,-22.0866 306.842,-15.3607"/>
<polygon fill="midnightblue" stroke="midnightblue" points="306.972,-11.8621 296.773,-14.7332 306.536,-18.8485 306.972,-11.8621"/>
</g>
<!-- Node10 -->
<g id="node10" class="node"><title>Node10</title>
<g id="a_node10"><a xlink:href="../../d6/ddf/Arduino-Wrapper_8h.html" target="_top" xlink:title=" ">
<polygon fill="white" stroke="black" points="421.5,-168.5 421.5,-187.5 536.5,-187.5 536.5,-168.5 421.5,-168.5"/>
<text text-anchor="middle" x="479" y="-175.5" font-family="Helvetica,sans-Serif" font-size="10.00">AH/Arduino&#45;Wrapper.h</text>
</a>
</g>
</g>
<!-- Node9&#45;&gt;Node10 -->
<g id="edge11" class="edge"><title>Node9&#45;&gt;Node10</title>
<path fill="none" stroke="midnightblue" d="M597.303,-280.351C594.238,-266.786 586.597,-240.367 571,-224 556.717,-209.012 536.395,-198.349 518.481,-191.177"/>
<polygon fill="midnightblue" stroke="midnightblue" points="519.423,-187.792 508.831,-187.547 516.958,-194.344 519.423,-187.792"/>
</g>
<!-- Node10&#45;&gt;Node5 -->
<g id="edge18" class="edge"><title>Node10&#45;&gt;Node5</title>
<path fill="none" stroke="midnightblue" d="M516.712,-168.444C558.143,-159.043 624.757,-143.929 669.667,-133.739"/>
<polygon fill="midnightblue" stroke="midnightblue" points="670.487,-137.142 679.465,-131.516 668.938,-130.316 670.487,-137.142"/>
</g>
<!-- Node11 -->
<g id="node11" class="node"><title>Node11</title>
<g id="a_node11"><a xlink:href="../../d7/d79/MinMaxFix_8hpp.html" target="_top" xlink:title=" ">
<polygon fill="white" stroke="black" points="416.5,-112.5 416.5,-131.5 541.5,-131.5 541.5,-112.5 416.5,-112.5"/>
<text text-anchor="middle" x="479" y="-119.5" font-family="Helvetica,sans-Serif" font-size="10.00">AH/Math/MinMaxFix.hpp</text>
</a>
</g>
</g>
<!-- Node10&#45;&gt;Node11 -->
<g id="edge12" class="edge"><title>Node10&#45;&gt;Node11</title>
<path fill="none" stroke="midnightblue" d="M479,-168.083C479,-161.006 479,-150.861 479,-141.986"/>
<polygon fill="midnightblue" stroke="midnightblue" points="482.5,-141.751 479,-131.751 475.5,-141.751 482.5,-141.751"/>
</g>
<!-- Node13 -->
<g id="node13" class="node"><title>Node13</title>
<g id="a_node13"><a xlink:title=" ">
<polygon fill="white" stroke="#bfbfbf" points="431,-0.5 431,-19.5 489,-19.5 489,-0.5 431,-0.5"/>
<text text-anchor="middle" x="460" y="-7.5" font-family="Helvetica,sans-Serif" font-size="10.00">Arduino.h</text>
</a>
</g>
</g>
<!-- Node10&#45;&gt;Node13 -->
<g id="edge19" class="edge"><title>Node10&#45;&gt;Node13</title>
<path fill="none" stroke="midnightblue" d="M453.839,-168.378C437.581,-161.343 417.707,-149.645 408,-132 388.184,-95.9801 421.855,-50.8689 443.655,-27.2052"/>
<polygon fill="midnightblue" stroke="midnightblue" points="446.376,-29.4235 450.763,-19.7796 441.32,-24.5828 446.376,-29.4235"/>
</g>
<!-- Node11&#45;&gt;Node7 -->
<g id="edge13" class="edge"><title>Node11&#45;&gt;Node7</title>
<path fill="none" stroke="midnightblue" d="M465.631,-112.325C444.628,-98.9579 402.335,-73.0833 364,-56 333.589,-42.4478 297.777,-30.6214 270.829,-22.4978"/>
<polygon fill="midnightblue" stroke="midnightblue" points="271.548,-19.0601 260.965,-19.5697 269.556,-25.7707 271.548,-19.0601"/>
</g>
<!-- Node12 -->
<g id="node12" class="node"><title>Node12</title>
<g id="a_node12"><a xlink:href="../../d6/d3b/FixArduinoMacros_8hpp.html" target="_top" xlink:title=" ">
<polygon fill="white" stroke="black" points="454,-56.5 454,-75.5 610,-75.5 610,-56.5 454,-56.5"/>
<text text-anchor="middle" x="532" y="-63.5" font-family="Helvetica,sans-Serif" font-size="10.00">AH/Math/FixArduinoMacros.hpp</text>
</a>
</g>
</g>
<!-- Node11&#45;&gt;Node12 -->
<g id="edge14" class="edge"><title>Node11&#45;&gt;Node12</title>
<path fill="none" stroke="midnightblue" d="M487.752,-112.083C495.47,-104.22 506.905,-92.5688 516.217,-83.0813"/>
<polygon fill="midnightblue" stroke="midnightblue" points="518.904,-85.3396 523.411,-75.7511 513.908,-80.4363 518.904,-85.3396"/>
</g>
<!-- Node14 -->
<g id="node14" class="node"><title>Node14</title>
<g id="a_node14"><a xlink:href="../../dc/dc7/NamespaceSettings_8hpp.html" target="_top" xlink:title=" ">
<polygon fill="white" stroke="black" points="142,-56.5 142,-75.5 322,-75.5 322,-56.5 142,-56.5"/>
<text text-anchor="middle" x="232" y="-63.5" font-family="Helvetica,sans-Serif" font-size="10.00">AH/Settings/NamespaceSettings.hpp</text>
</a>
</g>
</g>
<!-- Node11&#45;&gt;Node14 -->
<g id="edge17" class="edge"><title>Node11&#45;&gt;Node14</title>
<path fill="none" stroke="midnightblue" d="M439.862,-112.444C396.774,-103.023 327.441,-87.8656 280.829,-77.6752"/>
<polygon fill="midnightblue" stroke="midnightblue" points="281.472,-74.2331 270.955,-75.5164 279.976,-81.0715 281.472,-74.2331"/>
</g>
<!-- Node12&#45;&gt;Node7 -->
<g id="edge15" class="edge"><title>Node12&#45;&gt;Node7</title>
<path fill="none" stroke="midnightblue" d="M484.147,-56.4435C430.801,-46.9049 344.555,-31.4834 287.564,-21.293"/>
<polygon fill="midnightblue" stroke="midnightblue" points="288.089,-17.8313 277.629,-19.5164 286.857,-24.722 288.089,-17.8313"/>
</g>
<!-- Node12&#45;&gt;Node13 -->
<g id="edge16" class="edge"><title>Node12&#45;&gt;Node13</title>
<path fill="none" stroke="midnightblue" d="M520.432,-56.324C509.58,-48.1849 493.119,-35.8395 480.117,-26.0874"/>
<polygon fill="midnightblue" stroke="midnightblue" points="481.879,-23.0339 471.779,-19.8339 477.679,-28.6339 481.879,-23.0339"/>
</g>
<!-- Node15&#45;&gt;Node7 -->
<g id="edge21" class="edge"><title>Node15&#45;&gt;Node7</title>
<path fill="none" stroke="midnightblue" d="M210.935,-336.493C151.753,-324.886 76,-297.77 76,-235 76,-235 76,-235 76,-121 76,-67.1263 139.178,-37.1383 184.602,-22.5396"/>
<polygon fill="midnightblue" stroke="midnightblue" points="185.748,-25.8492 194.282,-19.5713 183.696,-19.1567 185.748,-25.8492"/>
</g>
<!-- Node15&#45;&gt;Node8 -->
<g id="edge34" class="edge"><title>Node15&#45;&gt;Node8</title>
<path fill="none" stroke="midnightblue" d="M293.396,-355.751C302.268,-363.405 313.362,-374.736 321.388,-384.144"/>
<polygon fill="midnightblue" stroke="midnightblue" points="318.762,-386.465 327.745,-392.083 324.226,-382.089 318.762,-386.465"/>
</g>
<!-- Node15&#45;&gt;Node14 -->
<g id="edge22" class="edge"><title>Node15&#45;&gt;Node14</title>
<path fill="none" stroke="midnightblue" d="M250.651,-336.499C209.599,-322.594 140,-290.794 140,-235 140,-235 140,-235 140,-177 140,-146.902 140.752,-135.935 159,-112 169.662,-98.0143 186.028,-87.3542 200.563,-79.9285"/>
<polygon fill="midnightblue" stroke="midnightblue" points="202.268,-82.9926 209.772,-75.5133 199.241,-76.6805 202.268,-82.9926"/>
</g>
<!-- Node16 -->
<g id="node16" class="node"><title>Node16</title>
<g id="a_node16"><a xlink:href="../../db/d02/Settings_8hpp.html" target="_top" xlink:title="All user settings and debugging options can be changed here.">
<polygon fill="white" stroke="black" points="244.5,-280.5 244.5,-299.5 315.5,-299.5 315.5,-280.5 244.5,-280.5"/>
<text text-anchor="middle" x="280" y="-287.5" font-family="Helvetica,sans-Serif" font-size="10.00">Settings.hpp</text>
</a>
</g>
</g>
<!-- Node15&#45;&gt;Node16 -->
<g id="edge23" class="edge"><title>Node15&#45;&gt;Node16</title>
<path fill="none" stroke="midnightblue" d="M280,-336.083C280,-329.006 280,-318.861 280,-309.986"/>
<polygon fill="midnightblue" stroke="midnightblue" points="283.5,-309.751 280,-299.751 276.5,-309.751 283.5,-309.751"/>
</g>
<!-- Node22 -->
<g id="node22" class="node"><title>Node22</title>
<g id="a_node22"><a xlink:href="../../d9/d98/TeensyUSBTypes_8hpp.html" target="_top" xlink:title=" ">
<polygon fill="white" stroke="black" points="334,-280.5 334,-299.5 502,-299.5 502,-280.5 334,-280.5"/>
<text text-anchor="middle" x="418" y="-287.5" font-family="Helvetica,sans-Serif" font-size="10.00">AH/Teensy/TeensyUSBTypes.hpp</text>
</a>
</g>
</g>
<!-- Node15&#45;&gt;Node22 -->
<g id="edge33" class="edge"><title>Node15&#45;&gt;Node22</title>
<path fill="none" stroke="midnightblue" d="M301.867,-336.444C324.779,-327.478 360.975,-313.314 386.866,-303.183"/>
<polygon fill="midnightblue" stroke="midnightblue" points="388.199,-306.42 396.236,-299.516 385.648,-299.901 388.199,-306.42"/>
</g>
<!-- Node17 -->
<g id="node17" class="node"><title>Node17</title>
<g id="a_node17"><a xlink:href="../../dc/d50/Frequency_8hpp.html" target="_top" xlink:title=" ">
<polygon fill="white" stroke="black" points="168,-112.5 168,-131.5 296,-131.5 296,-112.5 168,-112.5"/>
<text text-anchor="middle" x="232" y="-119.5" font-family="Helvetica,sans-Serif" font-size="10.00">AH/Types/Frequency.hpp</text>
</a>
</g>
</g>
<!-- Node16&#45;&gt;Node17 -->
<g id="edge24" class="edge"><title>Node16&#45;&gt;Node17</title>
<path fill="none" stroke="midnightblue" d="M250.119,-280.387C232.46,-273.587 211.549,-262.15 201,-244 181.471,-210.401 204.476,-164.546 220.034,-140.06"/>
<polygon fill="midnightblue" stroke="midnightblue" points="223.093,-141.782 225.72,-131.518 217.265,-137.903 223.093,-141.782"/>
</g>
<!-- Node18 -->
<g id="node18" class="node"><title>Node18</title>
<g id="a_node18"><a xlink:href="../../d7/d7c/ADCConfig_8hpp.html" target="_top" xlink:title="This file contains the platform&#45;specific ADC resolutions. By default, the library automatically selec...">
<polygon fill="white" stroke="black" points="210,-224.5 210,-243.5 358,-243.5 358,-224.5 210,-224.5"/>
<text text-anchor="middle" x="284" y="-231.5" font-family="Helvetica,sans-Serif" font-size="10.00">AH/Hardware/ADCConfig.hpp</text>
</a>
</g>
</g>
<!-- Node16&#45;&gt;Node18 -->
<g id="edge27" class="edge"><title>Node16&#45;&gt;Node18</title>
<path fill="none" stroke="midnightblue" d="M280.661,-280.083C281.185,-273.006 281.936,-262.861 282.594,-253.986"/>
<polygon fill="midnightblue" stroke="midnightblue" points="286.103,-253.982 283.352,-243.751 279.123,-253.465 286.103,-253.982"/>
</g>
<!-- Node19 -->
<g id="node19" class="node"><title>Node19</title>
<g id="a_node19"><a xlink:title=" ">
<polygon fill="white" stroke="#bfbfbf" points="514,-224.5 514,-243.5 562,-243.5 562,-224.5 514,-224.5"/>
<text text-anchor="middle" x="538" y="-231.5" font-family="Helvetica,sans-Serif" font-size="10.00">limits.h</text>
</a>
</g>
</g>
<!-- Node16&#45;&gt;Node19 -->
<g id="edge30" class="edge"><title>Node16&#45;&gt;Node19</title>
<path fill="none" stroke="midnightblue" d="M315.541,-281.896C370.154,-270.979 471.237,-250.771 503.954,-243.932"/>
<polygon fill="midnightblue" stroke="midnightblue" points="504.866,-247.316 513.898,-241.779 503.384,-240.475 504.866,-247.316"/>
</g>
<!-- Node20 -->
<g id="node20" class="node"><title>Node20</title>
<g id="a_node20"><a xlink:title=" ">
<polygon fill="white" stroke="#bfbfbf" points="376,-224.5 376,-243.5 428,-243.5 428,-224.5 376,-224.5"/>
<text text-anchor="middle" x="402" y="-231.5" font-family="Helvetica,sans-Serif" font-size="10.00">stddef.h</text>
</a>
</g>
</g>
<!-- Node16&#45;&gt;Node20 -->
<g id="edge31" class="edge"><title>Node16&#45;&gt;Node20</title>
<path fill="none" stroke="midnightblue" d="M299.331,-280.444C319.32,-271.596 350.743,-257.687 373.564,-247.586"/>
<polygon fill="midnightblue" stroke="midnightblue" points="375.032,-250.764 382.759,-243.516 372.198,-244.363 375.032,-250.764"/>
</g>
<!-- Node21 -->
<g id="node21" class="node"><title>Node21</title>
<g id="a_node21"><a xlink:title=" ">
<polygon fill="white" stroke="#bfbfbf" points="446.5,-224.5 446.5,-243.5 495.5,-243.5 495.5,-224.5 446.5,-224.5"/>
<text text-anchor="middle" x="471" y="-231.5" font-family="Helvetica,sans-Serif" font-size="10.00">stdint.h</text>
</a>
</g>
</g>
<!-- Node16&#45;&gt;Node21 -->
<g id="edge32" class="edge"><title>Node16&#45;&gt;Node21</title>
<path fill="none" stroke="midnightblue" d="M310.265,-280.444C344.539,-270.753 400.287,-254.992 436.296,-244.811"/>
<polygon fill="midnightblue" stroke="midnightblue" points="437.673,-248.06 446.343,-241.971 435.768,-241.324 437.673,-248.06"/>
</g>
<!-- Node17&#45;&gt;Node7 -->
<g id="edge25" class="edge"><title>Node17&#45;&gt;Node7</title>
<path fill="none" stroke="midnightblue" d="M187.994,-112.441C167.598,-106.034 145.214,-94.969 133,-76 116.788,-50.823 151.583,-33.0592 183.917,-22.5363"/>
<polygon fill="midnightblue" stroke="midnightblue" points="185.279,-25.7798 193.814,-19.5029 183.228,-19.0871 185.279,-25.7798"/>
</g>
<!-- Node17&#45;&gt;Node14 -->
<g id="edge26" class="edge"><title>Node17&#45;&gt;Node14</title>
<path fill="none" stroke="midnightblue" d="M232,-112.083C232,-105.006 232,-94.8611 232,-85.9865"/>
<polygon fill="midnightblue" stroke="midnightblue" points="235.5,-85.751 232,-75.7511 228.5,-85.7511 235.5,-85.751"/>
</g>
<!-- Node18&#45;&gt;Node7 -->
<g id="edge28" class="edge"><title>Node18&#45;&gt;Node7</title>
<path fill="none" stroke="midnightblue" d="M290.941,-224.121C311.385,-196.819 367.703,-112.534 331,-56 320.593,-39.9696 303.004,-29.6017 285.393,-22.9164"/>
<polygon fill="midnightblue" stroke="midnightblue" points="286.248,-19.5092 275.653,-19.5687 283.972,-26.1291 286.248,-19.5092"/>
</g>
<!-- Node18&#45;&gt;Node10 -->
<g id="edge29" class="edge"><title>Node18&#45;&gt;Node10</title>
<path fill="none" stroke="midnightblue" d="M314.898,-224.444C348.274,-215.201 401.594,-200.436 438.349,-190.257"/>
<polygon fill="midnightblue" stroke="midnightblue" points="439.543,-193.558 448.246,-187.516 437.675,-186.812 439.543,-193.558"/>
</g>
</g>
</svg>
