<?xml version="1.0" encoding="UTF-8" standalone="no"?>
<!DOCTYPE svg PUBLIC "-//W3C//DTD SVG 1.1//EN"
 "http://www.w3.org/Graphics/SVG/1.1/DTD/svg11.dtd">
<!-- Generated by graphviz version 2.38.0 (20140413.2041)
 -->
<!-- Title: FixedPoint.hpp Pages: 1 -->
<svg width="862pt" height="364pt"
 viewBox="0.00 0.00 861.50 364.00" xmlns="http://www.w3.org/2000/svg" xmlns:xlink="http://www.w3.org/1999/xlink">
<g id="graph0" class="graph" transform="scale(1 1) rotate(0) translate(4 360)">
<title>FixedPoint.hpp</title>
<polygon fill="white" stroke="none" points="-4,4 -4,-360 857.5,-360 857.5,4 -4,4"/>
<!-- Node1 -->
<g id="node1" class="node"><title>Node1</title>
<g id="a_node1"><a xlink:title=" ">
<polygon fill="#bfbfbf" stroke="black" points="450,-336.5 450,-355.5 532,-355.5 532,-336.5 450,-336.5"/>
<text text-anchor="middle" x="491" y="-343.5" font-family="Helvetica,sans-Serif" font-size="10.00">FixedPoint.hpp</text>
</a>
</g>
</g>
<!-- Node2 -->
<g id="node2" class="node"><title>Node2</title>
<g id="a_node2"><a xlink:title=" ">
<polygon fill="white" stroke="#bfbfbf" points="196,-280.5 196,-299.5 278,-299.5 278,-280.5 196,-280.5"/>
<text text-anchor="middle" x="237" y="-287.5" font-family="Helvetica,sans-Serif" font-size="10.00">AH/STL/cmath</text>
</a>
</g>
</g>
<!-- Node1&#45;&gt;Node2 -->
<g id="edge1" class="edge"><title>Node1&#45;&gt;Node2</title>
<path fill="none" stroke="midnightblue" d="M450.753,-336.444C406.35,-327.004 334.847,-311.802 286.912,-301.611"/>
<polygon fill="midnightblue" stroke="midnightblue" points="287.568,-298.173 277.059,-299.516 286.112,-305.02 287.568,-298.173"/>
</g>
<!-- Node3 -->
<g id="node3" class="node"><title>Node3</title>
<g id="a_node3"><a xlink:title=" ">
<polygon fill="white" stroke="#bfbfbf" points="296,-280.5 296,-299.5 380,-299.5 380,-280.5 296,-280.5"/>
<text text-anchor="middle" x="338" y="-287.5" font-family="Helvetica,sans-Serif" font-size="10.00">AH/STL/cstdint</text>
</a>
</g>
</g>
<!-- Node1&#45;&gt;Node3 -->
<g id="edge2" class="edge"><title>Node1&#45;&gt;Node3</title>
<path fill="none" stroke="midnightblue" d="M466.757,-336.444C441.129,-327.399 400.515,-313.064 371.762,-302.916"/>
<polygon fill="midnightblue" stroke="midnightblue" points="372.725,-299.544 362.13,-299.516 370.395,-306.145 372.725,-299.544"/>
</g>
<!-- Node4 -->
<g id="node4" class="node"><title>Node4</title>
<g id="a_node4"><a xlink:title=" ">
<polygon fill="white" stroke="#bfbfbf" points="398,-280.5 398,-299.5 476,-299.5 476,-280.5 398,-280.5"/>
<text text-anchor="middle" x="437" y="-287.5" font-family="Helvetica,sans-Serif" font-size="10.00">AH/STL/limits</text>
</a>
</g>
</g>
<!-- Node1&#45;&gt;Node4 -->
<g id="edge3" class="edge"><title>Node1&#45;&gt;Node4</title>
<path fill="none" stroke="midnightblue" d="M482.083,-336.083C474.22,-328.22 462.569,-316.569 453.081,-307.081"/>
<polygon fill="midnightblue" stroke="midnightblue" points="455.297,-304.347 445.751,-299.751 450.347,-309.297 455.297,-304.347"/>
</g>
<!-- Node5 -->
<g id="node5" class="node"><title>Node5</title>
<g id="a_node5"><a xlink:title=" ">
<polygon fill="white" stroke="#bfbfbf" points="494.5,-280.5 494.5,-299.5 595.5,-299.5 595.5,-280.5 494.5,-280.5"/>
<text text-anchor="middle" x="545" y="-287.5" font-family="Helvetica,sans-Serif" font-size="10.00">AH/STL/type_traits</text>
</a>
</g>
</g>
<!-- Node1&#45;&gt;Node5 -->
<g id="edge4" class="edge"><title>Node1&#45;&gt;Node5</title>
<path fill="none" stroke="midnightblue" d="M499.917,-336.083C507.78,-328.22 519.431,-316.569 528.919,-307.081"/>
<polygon fill="midnightblue" stroke="midnightblue" points="531.653,-309.297 536.249,-299.751 526.703,-304.347 531.653,-309.297"/>
</g>
<!-- Node6 -->
<g id="node6" class="node"><title>Node6</title>
<g id="a_node6"><a xlink:href="../../d1/d93/Error_8hpp.html" target="_top" xlink:title=" ">
<polygon fill="white" stroke="black" points="614,-280.5 614,-299.5 712,-299.5 712,-280.5 614,-280.5"/>
<text text-anchor="middle" x="663" y="-287.5" font-family="Helvetica,sans-Serif" font-size="10.00">AH/Error/Error.hpp</text>
</a>
</g>
</g>
<!-- Node1&#45;&gt;Node6 -->
<g id="edge5" class="edge"><title>Node1&#45;&gt;Node6</title>
<path fill="none" stroke="midnightblue" d="M518.254,-336.444C547.441,-327.28 593.921,-312.688 626.309,-302.519"/>
<polygon fill="midnightblue" stroke="midnightblue" points="627.381,-305.851 635.874,-299.516 625.284,-299.173 627.381,-305.851"/>
</g>
<!-- Node8 -->
<g id="node8" class="node"><title>Node8</title>
<g id="a_node8"><a xlink:href="../../dd/d80/PrintStream_8hpp.html" target="_top" xlink:title=" ">
<polygon fill="white" stroke="black" points="694.5,-168.5 694.5,-187.5 853.5,-187.5 853.5,-168.5 694.5,-168.5"/>
<text text-anchor="middle" x="774" y="-175.5" font-family="Helvetica,sans-Serif" font-size="10.00">AH/PrintStream/PrintStream.hpp</text>
</a>
</g>
</g>
<!-- Node1&#45;&gt;Node8 -->
<g id="edge23" class="edge"><title>Node1&#45;&gt;Node8</title>
<path fill="none" stroke="midnightblue" d="M532.222,-341.511C590.325,-335.844 692.425,-322.9 721,-300 753.258,-274.149 766.365,-224.715 771.298,-197.723"/>
<polygon fill="midnightblue" stroke="midnightblue" points="774.783,-198.097 772.943,-187.663 767.875,-196.967 774.783,-198.097"/>
</g>
<!-- Node7 -->
<g id="node7" class="node"><title>Node7</title>
<g id="a_node7"><a xlink:href="../../df/dee/Debug_8hpp.html" target="_top" xlink:title=" ">
<polygon fill="white" stroke="black" points="543.5,-224.5 543.5,-243.5 656.5,-243.5 656.5,-224.5 543.5,-224.5"/>
<text text-anchor="middle" x="600" y="-231.5" font-family="Helvetica,sans-Serif" font-size="10.00">AH/Debug/Debug.hpp</text>
</a>
</g>
</g>
<!-- Node6&#45;&gt;Node7 -->
<g id="edge6" class="edge"><title>Node6&#45;&gt;Node7</title>
<path fill="none" stroke="midnightblue" d="M652.878,-280.324C643.474,-272.263 629.256,-260.077 617.931,-250.369"/>
<polygon fill="midnightblue" stroke="midnightblue" points="620.177,-247.684 610.306,-243.834 615.621,-252.999 620.177,-247.684"/>
</g>
<!-- Node7&#45;&gt;Node8 -->
<g id="edge7" class="edge"><title>Node7&#45;&gt;Node8</title>
<path fill="none" stroke="midnightblue" d="M627.571,-224.444C657.097,-215.28 704.118,-200.688 736.883,-190.519"/>
<polygon fill="midnightblue" stroke="midnightblue" points="738.045,-193.823 746.558,-187.516 735.97,-187.138 738.045,-193.823"/>
</g>
<!-- Node9 -->
<g id="node9" class="node"><title>Node9</title>
<g id="a_node9"><a xlink:title=" ">
<polygon fill="white" stroke="#bfbfbf" points="541,-0.5 541,-19.5 599,-19.5 599,-0.5 541,-0.5"/>
<text text-anchor="middle" x="570" y="-7.5" font-family="Helvetica,sans-Serif" font-size="10.00">Arduino.h</text>
</a>
</g>
</g>
<!-- Node7&#45;&gt;Node9 -->
<g id="edge21" class="edge"><title>Node7&#45;&gt;Node9</title>
<path fill="none" stroke="midnightblue" d="M597.549,-224.445C595.055,-215.445 591.247,-200.834 589,-188 578.983,-130.792 573.434,-62.1953 571.191,-29.7572"/>
<polygon fill="midnightblue" stroke="midnightblue" points="574.667,-29.2765 570.512,-19.5304 567.682,-29.7403 574.667,-29.2765"/>
</g>
<!-- Node10 -->
<g id="node10" class="node"><title>Node10</title>
<g id="a_node10"><a xlink:href="../../d2/dd5/SettingsWrapper_8hpp.html" target="_top" xlink:title=" ">
<polygon fill="white" stroke="black" points="366,-168.5 366,-187.5 530,-187.5 530,-168.5 366,-168.5"/>
<text text-anchor="middle" x="448" y="-175.5" font-family="Helvetica,sans-Serif" font-size="10.00">AH/Settings/SettingsWrapper.hpp</text>
</a>
</g>
</g>
<!-- Node7&#45;&gt;Node10 -->
<g id="edge9" class="edge"><title>Node7&#45;&gt;Node10</title>
<path fill="none" stroke="midnightblue" d="M570.826,-224.444C543.622,-215.478 503.534,-201.314 476.542,-191.183"/>
<polygon fill="midnightblue" stroke="midnightblue" points="477.483,-187.796 466.892,-187.516 474.997,-194.34 477.483,-187.796"/>
</g>
<!-- Node19 -->
<g id="node19" class="node"><title>Node19</title>
<g id="a_node19"><a xlink:href="../../d7/d52/DebugVal_8hpp.html" target="_top" xlink:title=" ">
<polygon fill="white" stroke="black" points="598,-168.5 598,-187.5 676,-187.5 676,-168.5 598,-168.5"/>
<text text-anchor="middle" x="637" y="-175.5" font-family="Helvetica,sans-Serif" font-size="10.00">DebugVal.hpp</text>
</a>
</g>
</g>
<!-- Node7&#45;&gt;Node19 -->
<g id="edge22" class="edge"><title>Node7&#45;&gt;Node19</title>
<path fill="none" stroke="midnightblue" d="M606.11,-224.083C611.282,-216.534 618.846,-205.495 625.194,-196.23"/>
<polygon fill="midnightblue" stroke="midnightblue" points="628.239,-197.979 631.004,-187.751 622.464,-194.022 628.239,-197.979"/>
</g>
<!-- Node8&#45;&gt;Node9 -->
<g id="edge8" class="edge"><title>Node8&#45;&gt;Node9</title>
<path fill="none" stroke="midnightblue" d="M763.319,-168.309C730.408,-141.528 630.26,-60.0347 588.544,-26.09"/>
<polygon fill="midnightblue" stroke="midnightblue" points="590.541,-23.202 580.575,-19.6051 586.122,-28.6316 590.541,-23.202"/>
</g>
<!-- Node10&#45;&gt;Node7 -->
<g id="edge20" class="edge"><title>Node10&#45;&gt;Node7</title>
<path fill="none" stroke="midnightblue" d="M477.052,-187.516C504.218,-196.467 544.306,-210.629 571.337,-220.772"/>
<polygon fill="midnightblue" stroke="midnightblue" points="570.413,-224.165 581.004,-224.444 572.898,-217.621 570.413,-224.165"/>
</g>
<!-- Node11 -->
<g id="node11" class="node"><title>Node11</title>
<g id="a_node11"><a xlink:href="../../dc/dc7/NamespaceSettings_8hpp.html" target="_top" xlink:title=" ">
<polygon fill="white" stroke="black" points="0,-0.5 0,-19.5 124,-19.5 124,-0.5 0,-0.5"/>
<text text-anchor="middle" x="62" y="-7.5" font-family="Helvetica,sans-Serif" font-size="10.00">NamespaceSettings.hpp</text>
</a>
</g>
</g>
<!-- Node10&#45;&gt;Node11 -->
<g id="edge10" class="edge"><title>Node10&#45;&gt;Node11</title>
<path fill="none" stroke="midnightblue" d="M365.671,-168.868C257.032,-156.225 74.8596,-127.756 35,-76 23.7624,-61.4086 35.1158,-41.4681 46.3546,-27.5346"/>
<polygon fill="midnightblue" stroke="midnightblue" points="49.2143,-29.5798 53.1346,-19.7369 43.9319,-24.9868 49.2143,-29.5798"/>
</g>
<!-- Node12 -->
<g id="node12" class="node"><title>Node12</title>
<g id="a_node12"><a xlink:href="../../db/d02/Settings_8hpp.html" target="_top" xlink:title="All user settings and debugging options can be changed here.">
<polygon fill="white" stroke="black" points="255.5,-112.5 255.5,-131.5 326.5,-131.5 326.5,-112.5 255.5,-112.5"/>
<text text-anchor="middle" x="291" y="-119.5" font-family="Helvetica,sans-Serif" font-size="10.00">Settings.hpp</text>
</a>
</g>
</g>
<!-- Node10&#45;&gt;Node12 -->
<g id="edge11" class="edge"><title>Node10&#45;&gt;Node12</title>
<path fill="none" stroke="midnightblue" d="M423.123,-168.444C396.711,-159.359 354.785,-144.939 325.258,-134.783"/>
<polygon fill="midnightblue" stroke="midnightblue" points="326.355,-131.459 315.761,-131.516 324.079,-138.079 326.355,-131.459"/>
</g>
<!-- Node18 -->
<g id="node18" class="node"><title>Node18</title>
<g id="a_node18"><a xlink:href="../../d9/d98/TeensyUSBTypes_8hpp.html" target="_top" xlink:title=" ">
<polygon fill="white" stroke="black" points="364,-112.5 364,-131.5 532,-131.5 532,-112.5 364,-112.5"/>
<text text-anchor="middle" x="448" y="-119.5" font-family="Helvetica,sans-Serif" font-size="10.00">AH/Teensy/TeensyUSBTypes.hpp</text>
</a>
</g>
</g>
<!-- Node10&#45;&gt;Node18 -->
<g id="edge19" class="edge"><title>Node10&#45;&gt;Node18</title>
<path fill="none" stroke="midnightblue" d="M448,-168.083C448,-161.006 448,-150.861 448,-141.986"/>
<polygon fill="midnightblue" stroke="midnightblue" points="451.5,-141.751 448,-131.751 444.5,-141.751 451.5,-141.751"/>
</g>
<!-- Node13 -->
<g id="node13" class="node"><title>Node13</title>
<g id="a_node13"><a xlink:href="../../dc/d50/Frequency_8hpp.html" target="_top" xlink:title=" ">
<polygon fill="white" stroke="black" points="44,-56.5 44,-75.5 172,-75.5 172,-56.5 44,-56.5"/>
<text text-anchor="middle" x="108" y="-63.5" font-family="Helvetica,sans-Serif" font-size="10.00">AH/Types/Frequency.hpp</text>
</a>
</g>
</g>
<!-- Node12&#45;&gt;Node13 -->
<g id="edge12" class="edge"><title>Node12&#45;&gt;Node13</title>
<path fill="none" stroke="midnightblue" d="M262.003,-112.444C230.815,-103.241 181.07,-88.5617 146.592,-78.3879"/>
<polygon fill="midnightblue" stroke="midnightblue" points="147.443,-74.9898 136.861,-75.5164 145.462,-81.7036 147.443,-74.9898"/>
</g>
<!-- Node14 -->
<g id="node14" class="node"><title>Node14</title>
<g id="a_node14"><a xlink:href="../../d7/d7c/ADCConfig_8hpp.html" target="_top" xlink:title="This file contains the platform&#45;specific ADC resolutions. By default, the library automatically selec...">
<polygon fill="white" stroke="black" points="394,-56.5 394,-75.5 542,-75.5 542,-56.5 394,-56.5"/>
<text text-anchor="middle" x="468" y="-63.5" font-family="Helvetica,sans-Serif" font-size="10.00">AH/Hardware/ADCConfig.hpp</text>
</a>
</g>
</g>
<!-- Node12&#45;&gt;Node14 -->
<g id="edge14" class="edge"><title>Node12&#45;&gt;Node14</title>
<path fill="none" stroke="midnightblue" d="M319.046,-112.444C349.082,-103.28 396.913,-88.6876 430.243,-78.5192"/>
<polygon fill="midnightblue" stroke="midnightblue" points="431.542,-81.7822 440.085,-75.5164 429.499,-75.0869 431.542,-81.7822"/>
</g>
<!-- Node15 -->
<g id="node15" class="node"><title>Node15</title>
<g id="a_node15"><a xlink:title=" ">
<polygon fill="white" stroke="#bfbfbf" points="190,-56.5 190,-75.5 238,-75.5 238,-56.5 190,-56.5"/>
<text text-anchor="middle" x="214" y="-63.5" font-family="Helvetica,sans-Serif" font-size="10.00">limits.h</text>
</a>
</g>
</g>
<!-- Node12&#45;&gt;Node15 -->
<g id="edge16" class="edge"><title>Node12&#45;&gt;Node15</title>
<path fill="none" stroke="midnightblue" d="M278.629,-112.324C266.842,-104.058 248.868,-91.4527 234.864,-81.6322"/>
<polygon fill="midnightblue" stroke="midnightblue" points="236.538,-78.5307 226.341,-75.6545 232.518,-84.2619 236.538,-78.5307"/>
</g>
<!-- Node16 -->
<g id="node16" class="node"><title>Node16</title>
<g id="a_node16"><a xlink:title=" ">
<polygon fill="white" stroke="#bfbfbf" points="256,-56.5 256,-75.5 308,-75.5 308,-56.5 256,-56.5"/>
<text text-anchor="middle" x="282" y="-63.5" font-family="Helvetica,sans-Serif" font-size="10.00">stddef.h</text>
</a>
</g>
</g>
<!-- Node12&#45;&gt;Node16 -->
<g id="edge17" class="edge"><title>Node12&#45;&gt;Node16</title>
<path fill="none" stroke="midnightblue" d="M289.514,-112.083C288.321,-104.927 286.606,-94.6353 285.115,-85.6911"/>
<polygon fill="midnightblue" stroke="midnightblue" points="288.555,-85.0396 283.459,-75.7511 281.65,-86.1904 288.555,-85.0396"/>
</g>
<!-- Node17 -->
<g id="node17" class="node"><title>Node17</title>
<g id="a_node17"><a xlink:title=" ">
<polygon fill="white" stroke="#bfbfbf" points="326.5,-56.5 326.5,-75.5 375.5,-75.5 375.5,-56.5 326.5,-56.5"/>
<text text-anchor="middle" x="351" y="-63.5" font-family="Helvetica,sans-Serif" font-size="10.00">stdint.h</text>
</a>
</g>
</g>
<!-- Node12&#45;&gt;Node17 -->
<g id="edge18" class="edge"><title>Node12&#45;&gt;Node17</title>
<path fill="none" stroke="midnightblue" d="M300.64,-112.324C309.51,-104.341 322.875,-92.3128 333.608,-82.6529"/>
<polygon fill="midnightblue" stroke="midnightblue" points="336.093,-85.1251 341.185,-75.8339 331.41,-79.922 336.093,-85.1251"/>
</g>
<!-- Node13&#45;&gt;Node11 -->
<g id="edge13" class="edge"><title>Node13&#45;&gt;Node11</title>
<path fill="none" stroke="midnightblue" d="M100.404,-56.083C93.7725,-48.2982 83.979,-36.8015 75.9419,-27.3665"/>
<polygon fill="midnightblue" stroke="midnightblue" points="78.6037,-25.0939 69.4546,-19.7511 73.275,-29.6332 78.6037,-25.0939"/>
</g>
<!-- Node14&#45;&gt;Node9 -->
<g id="edge15" class="edge"><title>Node14&#45;&gt;Node9</title>
<path fill="none" stroke="midnightblue" d="M484.388,-56.324C500.671,-47.7034 525.867,-34.3643 544.716,-24.3855"/>
<polygon fill="midnightblue" stroke="midnightblue" points="546.452,-27.4267 553.653,-19.6545 543.177,-21.2402 546.452,-27.4267"/>
</g>
</g>
</svg>
