<?xml version="1.0" encoding="UTF-8" standalone="no"?>
<!DOCTYPE svg PUBLIC "-//W3C//DTD SVG 1.1//EN"
 "http://www.w3.org/Graphics/SVG/1.1/DTD/svg11.dtd">
<!-- Generated by graphviz version 2.43.0 (0)
 -->
<!-- Title: FixedPoint.hpp Pages: 1 -->
<svg width="1259pt" height="532pt"
 viewBox="0.00 0.00 1258.50 532.00" xmlns="http://www.w3.org/2000/svg" xmlns:xlink="http://www.w3.org/1999/xlink">
<g id="graph0" class="graph" transform="scale(1 1) rotate(0) translate(4 528)">
<title>FixedPoint.hpp</title>
<polygon fill="white" stroke="transparent" points="-4,4 -4,-528 1254.5,-528 1254.5,4 -4,4"/>
<!-- Node1 -->
<g id="node1" class="node">
<title>Node1</title>
<g id="a_node1"><a xlink:title=" ">
<polygon fill="#bfbfbf" stroke="black" points="239.5,-504.5 239.5,-523.5 327.5,-523.5 327.5,-504.5 239.5,-504.5"/>
<text text-anchor="middle" x="283.5" y="-511.5" font-family="Helvetica,sans-Serif" font-size="10.00">FixedPoint.hpp</text>
</a>
</g>
</g>
<!-- Node2 -->
<g id="node2" class="node">
<title>Node2</title>
<g id="a_node2"><a xlink:title=" ">
<polygon fill="white" stroke="#bfbfbf" points="0,-448.5 0,-467.5 85,-467.5 85,-448.5 0,-448.5"/>
<text text-anchor="middle" x="42.5" y="-455.5" font-family="Helvetica,sans-Serif" font-size="10.00">AH/STL/cmath</text>
</a>
</g>
</g>
<!-- Node1&#45;&gt;Node2 -->
<g id="edge1" class="edge">
<title>Node1&#45;&gt;Node2</title>
<path fill="none" stroke="midnightblue" d="M245.31,-504.44C203.36,-495.04 135.91,-479.93 90.43,-469.74"/>
<polygon fill="midnightblue" stroke="midnightblue" points="91.03,-466.29 80.51,-467.52 89.5,-473.12 91.03,-466.29"/>
</g>
<!-- Node3 -->
<g id="node3" class="node">
<title>Node3</title>
<g id="a_node3"><a xlink:title=" ">
<polygon fill="white" stroke="#bfbfbf" points="103,-448.5 103,-467.5 190,-467.5 190,-448.5 103,-448.5"/>
<text text-anchor="middle" x="146.5" y="-455.5" font-family="Helvetica,sans-Serif" font-size="10.00">AH/STL/cstdint</text>
</a>
</g>
</g>
<!-- Node1&#45;&gt;Node3 -->
<g id="edge2" class="edge">
<title>Node1&#45;&gt;Node3</title>
<path fill="none" stroke="midnightblue" d="M261.79,-504.44C239.15,-495.52 203.43,-481.44 177.75,-471.32"/>
<polygon fill="midnightblue" stroke="midnightblue" points="178.69,-467.93 168.11,-467.52 176.13,-474.44 178.69,-467.93"/>
</g>
<!-- Node4 -->
<g id="node4" class="node">
<title>Node4</title>
<g id="a_node4"><a xlink:title=" ">
<polygon fill="white" stroke="#bfbfbf" points="208.5,-448.5 208.5,-467.5 290.5,-467.5 290.5,-448.5 208.5,-448.5"/>
<text text-anchor="middle" x="249.5" y="-455.5" font-family="Helvetica,sans-Serif" font-size="10.00">AH/STL/limits</text>
</a>
</g>
</g>
<!-- Node1&#45;&gt;Node4 -->
<g id="edge3" class="edge">
<title>Node1&#45;&gt;Node4</title>
<path fill="none" stroke="midnightblue" d="M277.89,-504.08C273.13,-496.53 266.18,-485.49 260.35,-476.23"/>
<polygon fill="midnightblue" stroke="midnightblue" points="263.3,-474.35 255.01,-467.75 257.38,-478.08 263.3,-474.35"/>
</g>
<!-- Node5 -->
<g id="node5" class="node">
<title>Node5</title>
<g id="a_node5"><a xlink:title=" ">
<polygon fill="white" stroke="#bfbfbf" points="325,-112.5 325,-131.5 432,-131.5 432,-112.5 325,-112.5"/>
<text text-anchor="middle" x="378.5" y="-119.5" font-family="Helvetica,sans-Serif" font-size="10.00">AH/STL/type_traits</text>
</a>
</g>
</g>
<!-- Node1&#45;&gt;Node5 -->
<g id="edge4" class="edge">
<title>Node1&#45;&gt;Node5</title>
<path fill="none" stroke="midnightblue" d="M288.22,-504.46C297.77,-486.34 318.5,-442.48 318.5,-403 318.5,-403 318.5,-403 318.5,-233 318.5,-195.88 345.15,-159.38 362.93,-139.16"/>
<polygon fill="midnightblue" stroke="midnightblue" points="365.74,-141.28 369.9,-131.53 360.57,-136.55 365.74,-141.28"/>
</g>
<!-- Node6 -->
<g id="node6" class="node">
<title>Node6</title>
<g id="a_node6"><a xlink:href="../../d1/d93/Error_8hpp.html" target="_top" xlink:title=" ">
<polygon fill="white" stroke="black" points="460.5,-448.5 460.5,-467.5 564.5,-467.5 564.5,-448.5 460.5,-448.5"/>
<text text-anchor="middle" x="512.5" y="-455.5" font-family="Helvetica,sans-Serif" font-size="10.00">AH/Error/Error.hpp</text>
</a>
</g>
</g>
<!-- Node1&#45;&gt;Node6 -->
<g id="edge5" class="edge">
<title>Node1&#45;&gt;Node6</title>
<path fill="none" stroke="midnightblue" d="M319.79,-504.44C359.48,-495.08 423.21,-480.06 466.41,-469.87"/>
<polygon fill="midnightblue" stroke="midnightblue" points="467.45,-473.22 476.38,-467.52 465.85,-466.41 467.45,-473.22"/>
</g>
<!-- Node9 -->
<g id="node9" class="node">
<title>Node9</title>
<g id="a_node9"><a xlink:href="../../dd/d80/PrintStream_8hpp.html" target="_top" xlink:title=" ">
<polygon fill="white" stroke="black" points="541,-224.5 541,-243.5 714,-243.5 714,-224.5 541,-224.5"/>
<text text-anchor="middle" x="627.5" y="-231.5" font-family="Helvetica,sans-Serif" font-size="10.00">AH/PrintStream/PrintStream.hpp</text>
</a>
</g>
</g>
<!-- Node1&#45;&gt;Node9 -->
<g id="edge37" class="edge">
<title>Node1&#45;&gt;Node9</title>
<path fill="none" stroke="midnightblue" d="M295.78,-504.2C306.64,-495.9 322.3,-482.57 332.5,-468 350.44,-442.37 359.5,-434.28 359.5,-403 359.5,-403 359.5,-403 359.5,-345 359.5,-268.59 453.89,-244.13 530.64,-236.87"/>
<polygon fill="midnightblue" stroke="midnightblue" points="531.19,-240.34 540.86,-236 530.6,-233.36 531.19,-240.34"/>
</g>
<!-- Node7 -->
<g id="node7" class="node">
<title>Node7</title>
<g id="a_node7"><a xlink:href="../../d1/d65/Warnings_8hpp.html" target="_top" xlink:title=" ">
<polygon fill="white" stroke="black" points="652,-0.5 652,-19.5 795,-19.5 795,-0.5 652,-0.5"/>
<text text-anchor="middle" x="723.5" y="-7.5" font-family="Helvetica,sans-Serif" font-size="10.00">AH/Settings/Warnings.hpp</text>
</a>
</g>
</g>
<!-- Node6&#45;&gt;Node7 -->
<g id="edge6" class="edge">
<title>Node6&#45;&gt;Node7</title>
<path fill="none" stroke="midnightblue" d="M512.5,-448.44C512.5,-429.94 512.5,-384.81 512.5,-347 512.5,-347 512.5,-347 512.5,-177 512.5,-109.44 545.47,-88.86 604.5,-56 629.66,-41.99 660.06,-30.58 683.83,-22.76"/>
<polygon fill="midnightblue" stroke="midnightblue" points="685.13,-26.01 693.58,-19.62 682.99,-19.35 685.13,-26.01"/>
</g>
<!-- Node8 -->
<g id="node8" class="node">
<title>Node8</title>
<g id="a_node8"><a xlink:href="../../df/dee/Debug_8hpp.html" target="_top" xlink:title=" ">
<polygon fill="white" stroke="black" points="711,-392.5 711,-411.5 832,-411.5 832,-392.5 711,-392.5"/>
<text text-anchor="middle" x="771.5" y="-399.5" font-family="Helvetica,sans-Serif" font-size="10.00">AH/Debug/Debug.hpp</text>
</a>
</g>
</g>
<!-- Node6&#45;&gt;Node8 -->
<g id="edge7" class="edge">
<title>Node6&#45;&gt;Node8</title>
<path fill="none" stroke="midnightblue" d="M553.54,-448.44C598.82,-439 671.73,-423.8 720.61,-413.61"/>
<polygon fill="midnightblue" stroke="midnightblue" points="721.58,-416.98 730.65,-411.52 720.15,-410.13 721.58,-416.98"/>
</g>
<!-- Node8&#45;&gt;Node7 -->
<g id="edge8" class="edge">
<title>Node8&#45;&gt;Node7</title>
<path fill="none" stroke="midnightblue" d="M832.17,-399.7C961.06,-395.27 1250.5,-375.9 1250.5,-291 1250.5,-291 1250.5,-291 1250.5,-121 1250.5,-31.21 953.63,-14.24 805.52,-11.36"/>
<polygon fill="midnightblue" stroke="midnightblue" points="805.18,-7.85 795.12,-11.17 805.06,-14.85 805.18,-7.85"/>
</g>
<!-- Node8&#45;&gt;Node9 -->
<g id="edge9" class="edge">
<title>Node8&#45;&gt;Node9</title>
<path fill="none" stroke="midnightblue" d="M710.7,-392.61C687.32,-386.32 662.44,-375.29 646.5,-356 622.43,-326.87 622.62,-279.88 624.99,-253.86"/>
<polygon fill="midnightblue" stroke="midnightblue" points="628.48,-254.14 626.11,-243.81 621.52,-253.36 628.48,-254.14"/>
</g>
<!-- Node15 -->
<g id="node15" class="node">
<title>Node15</title>
<g id="a_node15"><a xlink:href="../../d2/dd5/SettingsWrapper_8hpp.html" target="_top" xlink:title=" ">
<polygon fill="white" stroke="black" points="757.5,-336.5 757.5,-355.5 935.5,-355.5 935.5,-336.5 757.5,-336.5"/>
<text text-anchor="middle" x="846.5" y="-343.5" font-family="Helvetica,sans-Serif" font-size="10.00">AH/Settings/SettingsWrapper.hpp</text>
</a>
</g>
</g>
<!-- Node8&#45;&gt;Node15 -->
<g id="edge21" class="edge">
<title>Node8&#45;&gt;Node15</title>
<path fill="none" stroke="midnightblue" d="M778.44,-392.32C788.31,-383.9 805.97,-370.97 820.94,-361.07"/>
<polygon fill="midnightblue" stroke="midnightblue" points="822.85,-364.01 829.37,-355.65 819.07,-358.12 822.85,-364.01"/>
</g>
<!-- Node23 -->
<g id="node23" class="node">
<title>Node23</title>
<g id="a_node23"><a xlink:href="../../d7/d52/DebugVal_8hpp.html" target="_top" xlink:title=" ">
<polygon fill="white" stroke="black" points="655.5,-336.5 655.5,-355.5 739.5,-355.5 739.5,-336.5 655.5,-336.5"/>
<text text-anchor="middle" x="697.5" y="-343.5" font-family="Helvetica,sans-Serif" font-size="10.00">DebugVal.hpp</text>
</a>
</g>
</g>
<!-- Node8&#45;&gt;Node23 -->
<g id="edge36" class="edge">
<title>Node8&#45;&gt;Node23</title>
<path fill="none" stroke="midnightblue" d="M759.61,-392.32C748.35,-384.11 731.21,-371.6 717.79,-361.81"/>
<polygon fill="midnightblue" stroke="midnightblue" points="719.75,-358.9 709.61,-355.83 715.62,-364.56 719.75,-358.9"/>
</g>
<!-- Node9&#45;&gt;Node7 -->
<g id="edge11" class="edge">
<title>Node9&#45;&gt;Node7</title>
<path fill="none" stroke="midnightblue" d="M540.7,-231.13C467.68,-224.4 367.31,-201.92 316.5,-132 311.27,-124.81 313.94,-120.51 316.5,-112 325.09,-83.43 328.13,-71.69 353.5,-56 400.23,-27.1 547.76,-16.74 641.81,-13.04"/>
<polygon fill="midnightblue" stroke="midnightblue" points="642.01,-16.53 651.87,-12.66 641.75,-9.54 642.01,-16.53"/>
</g>
<!-- Node10 -->
<g id="node10" class="node">
<title>Node10</title>
<g id="a_node10"><a xlink:href="../../dc/dc7/NamespaceSettings_8hpp.html" target="_top" xlink:title=" ">
<polygon fill="white" stroke="black" points="626,-56.5 626,-75.5 821,-75.5 821,-56.5 626,-56.5"/>
<text text-anchor="middle" x="723.5" y="-63.5" font-family="Helvetica,sans-Serif" font-size="10.00">AH/Settings/NamespaceSettings.hpp</text>
</a>
</g>
</g>
<!-- Node9&#45;&gt;Node10 -->
<g id="edge10" class="edge">
<title>Node9&#45;&gt;Node10</title>
<path fill="none" stroke="midnightblue" d="M640.72,-224.47C652.37,-216.35 669.07,-203.14 679.5,-188 701.82,-155.59 714.25,-110.54 719.84,-85.56"/>
<polygon fill="midnightblue" stroke="midnightblue" points="723.3,-86.11 721.93,-75.61 716.45,-84.67 723.3,-86.11"/>
</g>
<!-- Node11 -->
<g id="node11" class="node">
<title>Node11</title>
<g id="a_node11"><a xlink:href="../../d6/ddf/Arduino-Wrapper_8h.html" target="_top" xlink:title=" ">
<polygon fill="white" stroke="black" points="546.5,-168.5 546.5,-187.5 670.5,-187.5 670.5,-168.5 546.5,-168.5"/>
<text text-anchor="middle" x="608.5" y="-175.5" font-family="Helvetica,sans-Serif" font-size="10.00">AH/Arduino&#45;Wrapper.h</text>
</a>
</g>
</g>
<!-- Node9&#45;&gt;Node11 -->
<g id="edge12" class="edge">
<title>Node9&#45;&gt;Node11</title>
<path fill="none" stroke="midnightblue" d="M624.36,-224.08C621.82,-216.85 618.14,-206.41 614.97,-197.4"/>
<polygon fill="midnightblue" stroke="midnightblue" points="618.2,-196.02 611.58,-187.75 611.6,-198.35 618.2,-196.02"/>
</g>
<!-- Node11&#45;&gt;Node5 -->
<g id="edge19" class="edge">
<title>Node11&#45;&gt;Node5</title>
<path fill="none" stroke="midnightblue" d="M572.06,-168.44C532.1,-159.06 467.91,-143.99 424.52,-133.8"/>
<polygon fill="midnightblue" stroke="midnightblue" points="425.31,-130.39 414.77,-131.52 423.71,-137.21 425.31,-130.39"/>
</g>
<!-- Node12 -->
<g id="node12" class="node">
<title>Node12</title>
<g id="a_node12"><a xlink:href="../../d7/d79/MinMaxFix_8hpp.html" target="_top" xlink:title=" ">
<polygon fill="white" stroke="black" points="540.5,-112.5 540.5,-131.5 676.5,-131.5 676.5,-112.5 540.5,-112.5"/>
<text text-anchor="middle" x="608.5" y="-119.5" font-family="Helvetica,sans-Serif" font-size="10.00">AH/Math/MinMaxFix.hpp</text>
</a>
</g>
</g>
<!-- Node11&#45;&gt;Node12 -->
<g id="edge13" class="edge">
<title>Node11&#45;&gt;Node12</title>
<path fill="none" stroke="midnightblue" d="M608.5,-168.08C608.5,-161.01 608.5,-150.86 608.5,-141.99"/>
<polygon fill="midnightblue" stroke="midnightblue" points="612,-141.75 608.5,-131.75 605,-141.75 612,-141.75"/>
</g>
<!-- Node14 -->
<g id="node14" class="node">
<title>Node14</title>
<g id="a_node14"><a xlink:title=" ">
<polygon fill="white" stroke="#bfbfbf" points="360,-0.5 360,-19.5 423,-19.5 423,-0.5 360,-0.5"/>
<text text-anchor="middle" x="391.5" y="-7.5" font-family="Helvetica,sans-Serif" font-size="10.00">Arduino.h</text>
</a>
</g>
</g>
<!-- Node11&#45;&gt;Node14 -->
<g id="edge20" class="edge">
<title>Node11&#45;&gt;Node14</title>
<path fill="none" stroke="midnightblue" d="M586.49,-168.47C524.91,-144.58 355.25,-78.58 353.5,-76 342.34,-59.58 357.8,-39.77 372.22,-26.36"/>
<polygon fill="midnightblue" stroke="midnightblue" points="374.7,-28.84 379.94,-19.64 370.1,-23.56 374.7,-28.84"/>
</g>
<!-- Node12&#45;&gt;Node7 -->
<g id="edge14" class="edge">
<title>Node12&#45;&gt;Node7</title>
<path fill="none" stroke="midnightblue" d="M607.21,-112.42C605.68,-98.94 604.76,-72.64 617.5,-56 629.87,-39.85 649.15,-29.42 667.9,-22.73"/>
<polygon fill="midnightblue" stroke="midnightblue" points="669.2,-25.99 677.62,-19.56 667.02,-19.33 669.2,-25.99"/>
</g>
<!-- Node12&#45;&gt;Node10 -->
<g id="edge18" class="edge">
<title>Node12&#45;&gt;Node10</title>
<path fill="none" stroke="midnightblue" d="M626.72,-112.44C645.4,-103.68 674.66,-89.94 696.12,-79.86"/>
<polygon fill="midnightblue" stroke="midnightblue" points="697.8,-82.93 705.36,-75.52 694.82,-76.6 697.8,-82.93"/>
</g>
<!-- Node13 -->
<g id="node13" class="node">
<title>Node13</title>
<g id="a_node13"><a xlink:href="../../d6/d3b/FixArduinoMacros_8hpp.html" target="_top" xlink:title=" ">
<polygon fill="white" stroke="black" points="362.5,-56.5 362.5,-75.5 532.5,-75.5 532.5,-56.5 362.5,-56.5"/>
<text text-anchor="middle" x="447.5" y="-63.5" font-family="Helvetica,sans-Serif" font-size="10.00">AH/Math/FixArduinoMacros.hpp</text>
</a>
</g>
</g>
<!-- Node12&#45;&gt;Node13 -->
<g id="edge15" class="edge">
<title>Node12&#45;&gt;Node13</title>
<path fill="none" stroke="midnightblue" d="M582.99,-112.44C555.9,-103.36 512.91,-88.94 482.63,-78.78"/>
<polygon fill="midnightblue" stroke="midnightblue" points="483.49,-75.38 472.89,-75.52 481.26,-82.01 483.49,-75.38"/>
</g>
<!-- Node13&#45;&gt;Node7 -->
<g id="edge16" class="edge">
<title>Node13&#45;&gt;Node7</title>
<path fill="none" stroke="midnightblue" d="M491.23,-56.44C539.68,-46.96 617.83,-31.67 669.92,-21.48"/>
<polygon fill="midnightblue" stroke="midnightblue" points="670.83,-24.87 679.97,-19.52 669.49,-18 670.83,-24.87"/>
</g>
<!-- Node13&#45;&gt;Node14 -->
<g id="edge17" class="edge">
<title>Node13&#45;&gt;Node14</title>
<path fill="none" stroke="midnightblue" d="M438.5,-56.32C430.31,-48.42 417.99,-36.55 408.03,-26.94"/>
<polygon fill="midnightblue" stroke="midnightblue" points="410.29,-24.26 400.66,-19.83 405.43,-29.29 410.29,-24.26"/>
</g>
<!-- Node15&#45;&gt;Node7 -->
<g id="edge22" class="edge">
<title>Node15&#45;&gt;Node7</title>
<path fill="none" stroke="midnightblue" d="M836.76,-336.37C818.4,-319.1 780.5,-278.21 780.5,-235 780.5,-235 780.5,-235 780.5,-177 780.5,-146.9 785.13,-138.45 799.5,-112 809.58,-93.45 823.15,-95.79 830.5,-76 833.59,-67.67 835.42,-63.4 830.5,-56 819.72,-39.78 801.84,-29.39 783.74,-22.75"/>
<polygon fill="midnightblue" stroke="midnightblue" points="784.6,-19.34 774.01,-19.51 782.4,-25.99 784.6,-19.34"/>
</g>
<!-- Node15&#45;&gt;Node8 -->
<g id="edge35" class="edge">
<title>Node15&#45;&gt;Node8</title>
<path fill="none" stroke="midnightblue" d="M839.38,-355.83C829.56,-364.18 812.25,-376.86 797.46,-386.66"/>
<polygon fill="midnightblue" stroke="midnightblue" points="795.18,-383.97 788.66,-392.32 798.97,-389.85 795.18,-383.97"/>
</g>
<!-- Node15&#45;&gt;Node10 -->
<g id="edge23" class="edge">
<title>Node15&#45;&gt;Node10</title>
<path fill="none" stroke="midnightblue" d="M821.77,-336.42C804.19,-329.18 781.18,-317.22 766.5,-300 746.52,-276.57 742.5,-265.8 742.5,-235 742.5,-235 742.5,-235 742.5,-177 742.5,-144.49 734.34,-107.35 728.72,-85.61"/>
<polygon fill="midnightblue" stroke="midnightblue" points="732.04,-84.5 726.06,-75.75 725.28,-86.32 732.04,-84.5"/>
</g>
<!-- Node16 -->
<g id="node16" class="node">
<title>Node16</title>
<g id="a_node16"><a xlink:href="../../db/d02/Settings_8hpp.html" target="_top" xlink:title="All user settings and debugging options can be changed here.">
<polygon fill="white" stroke="black" points="954,-280.5 954,-299.5 1031,-299.5 1031,-280.5 954,-280.5"/>
<text text-anchor="middle" x="992.5" y="-287.5" font-family="Helvetica,sans-Serif" font-size="10.00">Settings.hpp</text>
</a>
</g>
</g>
<!-- Node15&#45;&gt;Node16 -->
<g id="edge24" class="edge">
<title>Node15&#45;&gt;Node16</title>
<path fill="none" stroke="midnightblue" d="M869.63,-336.44C893.98,-327.44 932.51,-313.19 959.92,-303.05"/>
<polygon fill="midnightblue" stroke="midnightblue" points="961.31,-306.27 969.47,-299.52 958.88,-299.7 961.31,-306.27"/>
</g>
<!-- Node22 -->
<g id="node22" class="node">
<title>Node22</title>
<g id="a_node22"><a xlink:href="../../d9/d98/TeensyUSBTypes_8hpp.html" target="_top" xlink:title=" ">
<polygon fill="white" stroke="black" points="1049,-280.5 1049,-299.5 1222,-299.5 1222,-280.5 1049,-280.5"/>
<text text-anchor="middle" x="1135.5" y="-287.5" font-family="Helvetica,sans-Serif" font-size="10.00">AH/Teensy/TeensyUSBTypes.hpp</text>
</a>
</g>
</g>
<!-- Node15&#45;&gt;Node22 -->
<g id="edge34" class="edge">
<title>Node15&#45;&gt;Node22</title>
<path fill="none" stroke="midnightblue" d="M892.29,-336.44C943.24,-326.92 1025.53,-311.55 1080.07,-301.36"/>
<polygon fill="midnightblue" stroke="midnightblue" points="1080.73,-304.79 1089.92,-299.52 1079.45,-297.91 1080.73,-304.79"/>
</g>
<!-- Node17 -->
<g id="node17" class="node">
<title>Node17</title>
<g id="a_node17"><a xlink:href="../../dc/d50/Frequency_8hpp.html" target="_top" xlink:title=" ">
<polygon fill="white" stroke="black" points="808.5,-112.5 808.5,-131.5 942.5,-131.5 942.5,-112.5 808.5,-112.5"/>
<text text-anchor="middle" x="875.5" y="-119.5" font-family="Helvetica,sans-Serif" font-size="10.00">AH/Types/Frequency.hpp</text>
</a>
</g>
</g>
<!-- Node16&#45;&gt;Node17 -->
<g id="edge25" class="edge">
<title>Node16&#45;&gt;Node17</title>
<path fill="none" stroke="midnightblue" d="M991.7,-280.47C990.17,-267.52 986.01,-242.44 975.5,-224 954.91,-187.88 918.11,-155.56 895.35,-137.68"/>
<polygon fill="midnightblue" stroke="midnightblue" points="897.45,-134.87 887.38,-131.56 893.18,-140.42 897.45,-134.87"/>
</g>
<!-- Node18 -->
<g id="node18" class="node">
<title>Node18</title>
<g id="a_node18"><a xlink:href="../../d7/d7c/ADCConfig_8hpp.html" target="_top" xlink:title="This file contains the platform&#45;specific ADC resolutions.">
<polygon fill="white" stroke="black" points="809,-224.5 809,-243.5 966,-243.5 966,-224.5 809,-224.5"/>
<text text-anchor="middle" x="887.5" y="-231.5" font-family="Helvetica,sans-Serif" font-size="10.00">AH/Hardware/ADCConfig.hpp</text>
</a>
</g>
</g>
<!-- Node16&#45;&gt;Node18 -->
<g id="edge28" class="edge">
<title>Node16&#45;&gt;Node18</title>
<path fill="none" stroke="midnightblue" d="M975.63,-280.32C958.79,-271.66 932.69,-258.24 913.26,-248.25"/>
<polygon fill="midnightblue" stroke="midnightblue" points="914.82,-245.12 904.33,-243.65 911.62,-251.34 914.82,-245.12"/>
</g>
<!-- Node19 -->
<g id="node19" class="node">
<title>Node19</title>
<g id="a_node19"><a xlink:title=" ">
<polygon fill="white" stroke="#bfbfbf" points="1023,-224.5 1023,-243.5 1076,-243.5 1076,-224.5 1023,-224.5"/>
<text text-anchor="middle" x="1049.5" y="-231.5" font-family="Helvetica,sans-Serif" font-size="10.00">limits.h</text>
</a>
</g>
</g>
<!-- Node16&#45;&gt;Node19 -->
<g id="edge31" class="edge">
<title>Node16&#45;&gt;Node19</title>
<path fill="none" stroke="midnightblue" d="M1001.66,-280.32C1010,-272.42 1022.53,-260.55 1032.68,-250.94"/>
<polygon fill="midnightblue" stroke="midnightblue" points="1035.32,-253.25 1040.18,-243.83 1030.51,-248.17 1035.32,-253.25"/>
</g>
<!-- Node20 -->
<g id="node20" class="node">
<title>Node20</title>
<g id="a_node20"><a xlink:title=" ">
<polygon fill="white" stroke="#bfbfbf" points="1094.5,-224.5 1094.5,-243.5 1150.5,-243.5 1150.5,-224.5 1094.5,-224.5"/>
<text text-anchor="middle" x="1122.5" y="-231.5" font-family="Helvetica,sans-Serif" font-size="10.00">stddef.h</text>
</a>
</g>
</g>
<!-- Node16&#45;&gt;Node20 -->
<g id="edge32" class="edge">
<title>Node16&#45;&gt;Node20</title>
<path fill="none" stroke="midnightblue" d="M1013.1,-280.44C1034.49,-271.56 1068.18,-257.56 1092.52,-247.45"/>
<polygon fill="midnightblue" stroke="midnightblue" points="1094.11,-250.58 1102,-243.52 1091.42,-244.12 1094.11,-250.58"/>
</g>
<!-- Node21 -->
<g id="node21" class="node">
<title>Node21</title>
<g id="a_node21"><a xlink:title=" ">
<polygon fill="white" stroke="#bfbfbf" points="1169,-224.5 1169,-243.5 1222,-243.5 1222,-224.5 1169,-224.5"/>
<text text-anchor="middle" x="1195.5" y="-231.5" font-family="Helvetica,sans-Serif" font-size="10.00">stdint.h</text>
</a>
</g>
</g>
<!-- Node16&#45;&gt;Node21 -->
<g id="edge33" class="edge">
<title>Node16&#45;&gt;Node21</title>
<path fill="none" stroke="midnightblue" d="M1024.67,-280.44C1061.3,-270.7 1121.03,-254.81 1159.28,-244.64"/>
<polygon fill="midnightblue" stroke="midnightblue" points="1160.22,-248.01 1168.98,-242.05 1158.42,-241.24 1160.22,-248.01"/>
</g>
<!-- Node17&#45;&gt;Node7 -->
<g id="edge26" class="edge">
<title>Node17&#45;&gt;Node7</title>
<path fill="none" stroke="midnightblue" d="M876.34,-112.22C877.14,-98.47 876.58,-71.81 862.5,-56 847.58,-39.24 826.37,-28.7 805.01,-22.06"/>
<polygon fill="midnightblue" stroke="midnightblue" points="805.78,-18.64 795.2,-19.28 803.87,-25.38 805.78,-18.64"/>
</g>
<!-- Node17&#45;&gt;Node10 -->
<g id="edge27" class="edge">
<title>Node17&#45;&gt;Node10</title>
<path fill="none" stroke="midnightblue" d="M851.42,-112.44C825.96,-103.4 785.61,-89.06 757.04,-78.92"/>
<polygon fill="midnightblue" stroke="midnightblue" points="758.07,-75.57 747.47,-75.52 755.72,-82.16 758.07,-75.57"/>
</g>
<!-- Node18&#45;&gt;Node7 -->
<g id="edge29" class="edge">
<title>Node18&#45;&gt;Node7</title>
<path fill="none" stroke="midnightblue" d="M898.3,-224.31C921.45,-204.59 972.09,-154.84 951.5,-112 925.19,-57.27 859.26,-32.19 805.03,-20.7"/>
<polygon fill="midnightblue" stroke="midnightblue" points="805.54,-17.24 795.05,-18.71 804.17,-24.1 805.54,-17.24"/>
</g>
<!-- Node18&#45;&gt;Node11 -->
<g id="edge30" class="edge">
<title>Node18&#45;&gt;Node11</title>
<path fill="none" stroke="midnightblue" d="M843.29,-224.44C794.21,-214.94 714.99,-199.61 662.34,-189.42"/>
<polygon fill="midnightblue" stroke="midnightblue" points="662.98,-185.98 652.5,-187.52 661.65,-192.85 662.98,-185.98"/>
</g>
</g>
</svg>
