<?xml version="1.0" encoding="UTF-8" standalone="no"?>
<!DOCTYPE svg PUBLIC "-//W3C//DTD SVG 1.1//EN"
 "http://www.w3.org/Graphics/SVG/1.1/DTD/svg11.dtd">
<!-- Generated by graphviz version 2.43.0 (0)
 -->
<!-- Title: ShiftRegisterOutRGB.cpp Pages: 1 -->
<svg width="1091pt" height="476pt"
 viewBox="0.00 0.00 1090.50 476.00" xmlns="http://www.w3.org/2000/svg" xmlns:xlink="http://www.w3.org/1999/xlink">
<g id="graph0" class="graph" transform="scale(1 1) rotate(0) translate(4 472)">
<title>ShiftRegisterOutRGB.cpp</title>
<polygon fill="white" stroke="transparent" points="-4,4 -4,-472 1086.5,-472 1086.5,4 -4,4"/>
<!-- Node1 -->
<g id="node1" class="node">
<title>Node1</title>
<g id="a_node1"><a xlink:title=" ">
<polygon fill="#bfbfbf" stroke="black" points="282.5,-448.5 282.5,-467.5 419.5,-467.5 419.5,-448.5 282.5,-448.5"/>
<text text-anchor="middle" x="351" y="-455.5" font-family="Helvetica,sans-Serif" font-size="10.00">ShiftRegisterOutRGB.cpp</text>
</a>
</g>
</g>
<!-- Node2 -->
<g id="node2" class="node">
<title>Node2</title>
<g id="a_node2"><a xlink:href="../../d1/d1f/ShiftRegisterOutRGB_8hpp.html" target="_top" xlink:title=" ">
<polygon fill="white" stroke="black" points="282,-392.5 282,-411.5 420,-411.5 420,-392.5 282,-392.5"/>
<text text-anchor="middle" x="351" y="-399.5" font-family="Helvetica,sans-Serif" font-size="10.00">ShiftRegisterOutRGB.hpp</text>
</a>
</g>
</g>
<!-- Node1&#45;&gt;Node2 -->
<g id="edge1" class="edge">
<title>Node1&#45;&gt;Node2</title>
<path fill="none" stroke="midnightblue" d="M351,-448.08C351,-441.01 351,-430.86 351,-421.99"/>
<polygon fill="midnightblue" stroke="midnightblue" points="354.5,-421.75 351,-411.75 347.5,-421.75 354.5,-421.75"/>
</g>
<!-- Node3 -->
<g id="node3" class="node">
<title>Node3</title>
<g id="a_node3"><a xlink:href="../../d1/d65/Warnings_8hpp.html" target="_top" xlink:title=" ">
<polygon fill="white" stroke="black" points="369.5,-0.5 369.5,-19.5 512.5,-19.5 512.5,-0.5 369.5,-0.5"/>
<text text-anchor="middle" x="441" y="-7.5" font-family="Helvetica,sans-Serif" font-size="10.00">AH/Settings/Warnings.hpp</text>
</a>
</g>
</g>
<!-- Node2&#45;&gt;Node3 -->
<g id="edge2" class="edge">
<title>Node2&#45;&gt;Node3</title>
<path fill="none" stroke="midnightblue" d="M281.65,-393.52C179.36,-380.53 0,-349.43 0,-291 0,-291 0,-291 0,-121 0,-47.82 231.49,-22.94 359.04,-14.78"/>
<polygon fill="midnightblue" stroke="midnightblue" points="359.4,-18.27 369.16,-14.16 358.97,-11.28 359.4,-18.27"/>
</g>
<!-- Node4 -->
<g id="node4" class="node">
<title>Node4</title>
<g id="a_node4"><a xlink:title=" ">
<polygon fill="white" stroke="#bfbfbf" points="1029.5,-224.5 1029.5,-243.5 1082.5,-243.5 1082.5,-224.5 1029.5,-224.5"/>
<text text-anchor="middle" x="1056" y="-231.5" font-family="Helvetica,sans-Serif" font-size="10.00">stdint.h</text>
</a>
</g>
</g>
<!-- Node2&#45;&gt;Node4 -->
<g id="edge3" class="edge">
<title>Node2&#45;&gt;Node4</title>
<path fill="none" stroke="midnightblue" d="M420.41,-395.73C530.79,-385.85 752.05,-359.86 930,-300 968.48,-287.06 1009.67,-263.81 1034.12,-248.91"/>
<polygon fill="midnightblue" stroke="midnightblue" points="1035.96,-251.89 1042.62,-243.65 1032.28,-245.93 1035.96,-251.89"/>
</g>
<!-- Node5 -->
<g id="node5" class="node">
<title>Node5</title>
<g id="a_node5"><a xlink:href="../../d2/dd5/SettingsWrapper_8hpp.html" target="_top" xlink:title=" ">
<polygon fill="white" stroke="black" points="262,-336.5 262,-355.5 440,-355.5 440,-336.5 262,-336.5"/>
<text text-anchor="middle" x="351" y="-343.5" font-family="Helvetica,sans-Serif" font-size="10.00">AH/Settings/SettingsWrapper.hpp</text>
</a>
</g>
</g>
<!-- Node2&#45;&gt;Node5 -->
<g id="edge4" class="edge">
<title>Node2&#45;&gt;Node5</title>
<path fill="none" stroke="midnightblue" d="M351,-392.08C351,-385.01 351,-374.86 351,-365.99"/>
<polygon fill="midnightblue" stroke="midnightblue" points="354.5,-365.75 351,-355.75 347.5,-365.75 354.5,-365.75"/>
</g>
<!-- Node5&#45;&gt;Node3 -->
<g id="edge5" class="edge">
<title>Node5&#45;&gt;Node3</title>
<path fill="none" stroke="midnightblue" d="M333.15,-336.46C318.11,-328.59 296.76,-315.77 282,-300 239.84,-254.97 214,-240.69 214,-179 214,-179 214,-179 214,-121 214,-54.25 294.47,-27.99 359.59,-17.67"/>
<polygon fill="midnightblue" stroke="midnightblue" points="360.11,-21.13 369.49,-16.2 359.08,-14.21 360.11,-21.13"/>
</g>
<!-- Node6 -->
<g id="node6" class="node">
<title>Node6</title>
<g id="a_node6"><a xlink:href="../../dc/dc7/NamespaceSettings_8hpp.html" target="_top" xlink:title=" ">
<polygon fill="white" stroke="black" points="327.5,-56.5 327.5,-75.5 462.5,-75.5 462.5,-56.5 327.5,-56.5"/>
<text text-anchor="middle" x="395" y="-63.5" font-family="Helvetica,sans-Serif" font-size="10.00">NamespaceSettings.hpp</text>
</a>
</g>
</g>
<!-- Node5&#45;&gt;Node6 -->
<g id="edge6" class="edge">
<title>Node5&#45;&gt;Node6</title>
<path fill="none" stroke="midnightblue" d="M368.98,-336.37C396.57,-321.89 447.77,-289.7 463,-244 477.79,-199.62 421.59,-150.62 414,-132 407.76,-116.69 402.64,-98.59 399.3,-85.38"/>
<polygon fill="midnightblue" stroke="midnightblue" points="402.68,-84.49 396.92,-75.6 395.88,-86.15 402.68,-84.49"/>
</g>
<!-- Node7 -->
<g id="node7" class="node">
<title>Node7</title>
<g id="a_node7"><a xlink:href="../../db/d02/Settings_8hpp.html" target="_top" xlink:title="All user settings and debugging options can be changed here.">
<polygon fill="white" stroke="black" points="843.5,-280.5 843.5,-299.5 920.5,-299.5 920.5,-280.5 843.5,-280.5"/>
<text text-anchor="middle" x="882" y="-287.5" font-family="Helvetica,sans-Serif" font-size="10.00">Settings.hpp</text>
</a>
</g>
</g>
<!-- Node5&#45;&gt;Node7 -->
<g id="edge7" class="edge">
<title>Node5&#45;&gt;Node7</title>
<path fill="none" stroke="midnightblue" d="M434.85,-336.47C547.13,-325.05 742.68,-305.17 833.31,-295.95"/>
<polygon fill="midnightblue" stroke="midnightblue" points="833.72,-299.43 843.31,-294.93 833.01,-292.46 833.72,-299.43"/>
</g>
<!-- Node17 -->
<g id="node17" class="node">
<title>Node17</title>
<g id="a_node17"><a xlink:href="../../d9/d98/TeensyUSBTypes_8hpp.html" target="_top" xlink:title=" ">
<polygon fill="white" stroke="black" points="28.5,-280.5 28.5,-299.5 201.5,-299.5 201.5,-280.5 28.5,-280.5"/>
<text text-anchor="middle" x="115" y="-287.5" font-family="Helvetica,sans-Serif" font-size="10.00">AH/Teensy/TeensyUSBTypes.hpp</text>
</a>
</g>
</g>
<!-- Node5&#45;&gt;Node17 -->
<g id="edge25" class="edge">
<title>Node5&#45;&gt;Node17</title>
<path fill="none" stroke="midnightblue" d="M313.61,-336.44C272.61,-327.06 206.75,-311.99 162.22,-301.8"/>
<polygon fill="midnightblue" stroke="midnightblue" points="162.75,-298.34 152.22,-299.52 161.19,-305.16 162.75,-298.34"/>
</g>
<!-- Node18 -->
<g id="node18" class="node">
<title>Node18</title>
<g id="a_node18"><a xlink:href="../../df/dee/Debug_8hpp.html" target="_top" xlink:title=" ">
<polygon fill="white" stroke="black" points="290.5,-280.5 290.5,-299.5 411.5,-299.5 411.5,-280.5 290.5,-280.5"/>
<text text-anchor="middle" x="351" y="-287.5" font-family="Helvetica,sans-Serif" font-size="10.00">AH/Debug/Debug.hpp</text>
</a>
</g>
</g>
<!-- Node5&#45;&gt;Node18 -->
<g id="edge26" class="edge">
<title>Node5&#45;&gt;Node18</title>
<path fill="none" stroke="midnightblue" d="M345.83,-336.08C344.32,-328.93 343.89,-318.64 344.54,-309.69"/>
<polygon fill="midnightblue" stroke="midnightblue" points="348.02,-310.13 345.87,-299.75 341.08,-309.2 348.02,-310.13"/>
</g>
<!-- Node7&#45;&gt;Node4 -->
<g id="edge24" class="edge">
<title>Node7&#45;&gt;Node4</title>
<path fill="none" stroke="midnightblue" d="M909.57,-280.44C939.36,-271.2 986.95,-256.43 1019.75,-246.25"/>
<polygon fill="midnightblue" stroke="midnightblue" points="1020.9,-249.56 1029.41,-243.25 1018.83,-242.87 1020.9,-249.56"/>
</g>
<!-- Node8 -->
<g id="node8" class="node">
<title>Node8</title>
<g id="a_node8"><a xlink:href="../../dc/d50/Frequency_8hpp.html" target="_top" xlink:title=" ">
<polygon fill="white" stroke="black" points="703,-112.5 703,-131.5 837,-131.5 837,-112.5 703,-112.5"/>
<text text-anchor="middle" x="770" y="-119.5" font-family="Helvetica,sans-Serif" font-size="10.00">AH/Types/Frequency.hpp</text>
</a>
</g>
</g>
<!-- Node7&#45;&gt;Node8 -->
<g id="edge8" class="edge">
<title>Node7&#45;&gt;Node8</title>
<path fill="none" stroke="midnightblue" d="M875.98,-280.08C858.12,-253.61 805.23,-175.21 781.61,-140.21"/>
<polygon fill="midnightblue" stroke="midnightblue" points="784.28,-137.9 775.78,-131.57 778.47,-141.82 784.28,-137.9"/>
</g>
<!-- Node9 -->
<g id="node9" class="node">
<title>Node9</title>
<g id="a_node9"><a xlink:href="../../d7/d7c/ADCConfig_8hpp.html" target="_top" xlink:title="This file contains the platform&#45;specific ADC resolutions.">
<polygon fill="white" stroke="black" points="669.5,-224.5 669.5,-243.5 826.5,-243.5 826.5,-224.5 669.5,-224.5"/>
<text text-anchor="middle" x="748" y="-231.5" font-family="Helvetica,sans-Serif" font-size="10.00">AH/Hardware/ADCConfig.hpp</text>
</a>
</g>
</g>
<!-- Node7&#45;&gt;Node9 -->
<g id="edge11" class="edge">
<title>Node7&#45;&gt;Node9</title>
<path fill="none" stroke="midnightblue" d="M860.77,-280.44C838.62,-271.52 803.68,-257.44 778.56,-247.32"/>
<polygon fill="midnightblue" stroke="midnightblue" points="779.72,-244.01 769.13,-243.52 777.1,-250.5 779.72,-244.01"/>
</g>
<!-- Node15 -->
<g id="node15" class="node">
<title>Node15</title>
<g id="a_node15"><a xlink:title=" ">
<polygon fill="white" stroke="#bfbfbf" points="883.5,-224.5 883.5,-243.5 936.5,-243.5 936.5,-224.5 883.5,-224.5"/>
<text text-anchor="middle" x="910" y="-231.5" font-family="Helvetica,sans-Serif" font-size="10.00">limits.h</text>
</a>
</g>
</g>
<!-- Node7&#45;&gt;Node15 -->
<g id="edge22" class="edge">
<title>Node7&#45;&gt;Node15</title>
<path fill="none" stroke="midnightblue" d="M886.62,-280.08C890.46,-272.69 896.02,-261.95 900.76,-252.81"/>
<polygon fill="midnightblue" stroke="midnightblue" points="903.97,-254.24 905.46,-243.75 897.75,-251.02 903.97,-254.24"/>
</g>
<!-- Node16 -->
<g id="node16" class="node">
<title>Node16</title>
<g id="a_node16"><a xlink:title=" ">
<polygon fill="white" stroke="#bfbfbf" points="955,-224.5 955,-243.5 1011,-243.5 1011,-224.5 955,-224.5"/>
<text text-anchor="middle" x="983" y="-231.5" font-family="Helvetica,sans-Serif" font-size="10.00">stddef.h</text>
</a>
</g>
</g>
<!-- Node7&#45;&gt;Node16 -->
<g id="edge23" class="edge">
<title>Node7&#45;&gt;Node16</title>
<path fill="none" stroke="midnightblue" d="M898.23,-280.32C914.35,-271.7 939.3,-258.36 957.96,-248.39"/>
<polygon fill="midnightblue" stroke="midnightblue" points="959.64,-251.46 966.81,-243.65 956.34,-245.28 959.64,-251.46"/>
</g>
<!-- Node8&#45;&gt;Node3 -->
<g id="edge9" class="edge">
<title>Node8&#45;&gt;Node3</title>
<path fill="none" stroke="midnightblue" d="M763.11,-112.16C751.4,-97.82 726.15,-69.73 698,-56 643.33,-29.33 575.29,-18.26 522.96,-13.76"/>
<polygon fill="midnightblue" stroke="midnightblue" points="522.95,-10.25 512.71,-12.94 522.4,-17.22 522.95,-10.25"/>
</g>
<!-- Node8&#45;&gt;Node6 -->
<g id="edge10" class="edge">
<title>Node8&#45;&gt;Node6</title>
<path fill="none" stroke="midnightblue" d="M710.58,-112.44C643.65,-102.81 535.02,-87.16 464.29,-76.98"/>
<polygon fill="midnightblue" stroke="midnightblue" points="464.54,-73.48 454.14,-75.52 463.54,-80.41 464.54,-73.48"/>
</g>
<!-- Node9&#45;&gt;Node3 -->
<g id="edge12" class="edge">
<title>Node9&#45;&gt;Node3</title>
<path fill="none" stroke="midnightblue" d="M764.71,-224.42C799.65,-205.32 874.9,-157.37 846,-112 811.54,-57.89 631.05,-30.32 522.99,-18.46"/>
<polygon fill="midnightblue" stroke="midnightblue" points="523.08,-14.95 512.76,-17.36 522.33,-21.91 523.08,-14.95"/>
</g>
<!-- Node10 -->
<g id="node10" class="node">
<title>Node10</title>
<g id="a_node10"><a xlink:href="../../d6/ddf/Arduino-Wrapper_8h.html" target="_top" xlink:title=" ">
<polygon fill="white" stroke="black" points="569,-168.5 569,-187.5 693,-187.5 693,-168.5 569,-168.5"/>
<text text-anchor="middle" x="631" y="-175.5" font-family="Helvetica,sans-Serif" font-size="10.00">AH/Arduino&#45;Wrapper.h</text>
</a>
</g>
</g>
<!-- Node9&#45;&gt;Node10 -->
<g id="edge13" class="edge">
<title>Node9&#45;&gt;Node10</title>
<path fill="none" stroke="midnightblue" d="M729.46,-224.44C710.38,-215.64 680.43,-201.81 658.56,-191.72"/>
<polygon fill="midnightblue" stroke="midnightblue" points="660,-188.53 649.45,-187.52 657.07,-194.88 660,-188.53"/>
</g>
<!-- Node11 -->
<g id="node11" class="node">
<title>Node11</title>
<g id="a_node11"><a xlink:href="../../d7/d79/MinMaxFix_8hpp.html" target="_top" xlink:title=" ">
<polygon fill="white" stroke="black" points="423,-112.5 423,-131.5 559,-131.5 559,-112.5 423,-112.5"/>
<text text-anchor="middle" x="491" y="-119.5" font-family="Helvetica,sans-Serif" font-size="10.00">AH/Math/MinMaxFix.hpp</text>
</a>
</g>
</g>
<!-- Node10&#45;&gt;Node11 -->
<g id="edge14" class="edge">
<title>Node10&#45;&gt;Node11</title>
<path fill="none" stroke="midnightblue" d="M608.82,-168.44C585.57,-159.48 548.85,-145.31 522.58,-135.18"/>
<polygon fill="midnightblue" stroke="midnightblue" points="523.67,-131.85 513.08,-131.52 521.15,-138.38 523.67,-131.85"/>
</g>
<!-- Node13 -->
<g id="node13" class="node">
<title>Node13</title>
<g id="a_node13"><a xlink:title=" ">
<polygon fill="white" stroke="#bfbfbf" points="622.5,-0.5 622.5,-19.5 685.5,-19.5 685.5,-0.5 622.5,-0.5"/>
<text text-anchor="middle" x="654" y="-7.5" font-family="Helvetica,sans-Serif" font-size="10.00">Arduino.h</text>
</a>
</g>
</g>
<!-- Node10&#45;&gt;Node13 -->
<g id="edge21" class="edge">
<title>Node10&#45;&gt;Node13</title>
<path fill="none" stroke="midnightblue" d="M693.05,-172.55C749.56,-167.04 827,-155.38 846,-132 893.12,-74 765.02,-35.52 695.48,-19.48"/>
<polygon fill="midnightblue" stroke="midnightblue" points="696.19,-16.05 685.67,-17.27 694.66,-22.88 696.19,-16.05"/>
</g>
<!-- Node14 -->
<g id="node14" class="node">
<title>Node14</title>
<g id="a_node14"><a xlink:title=" ">
<polygon fill="white" stroke="#bfbfbf" points="577.5,-112.5 577.5,-131.5 684.5,-131.5 684.5,-112.5 577.5,-112.5"/>
<text text-anchor="middle" x="631" y="-119.5" font-family="Helvetica,sans-Serif" font-size="10.00">AH/STL/type_traits</text>
</a>
</g>
</g>
<!-- Node10&#45;&gt;Node14 -->
<g id="edge20" class="edge">
<title>Node10&#45;&gt;Node14</title>
<path fill="none" stroke="midnightblue" d="M631,-168.08C631,-161.01 631,-150.86 631,-141.99"/>
<polygon fill="midnightblue" stroke="midnightblue" points="634.5,-141.75 631,-131.75 627.5,-141.75 634.5,-141.75"/>
</g>
<!-- Node11&#45;&gt;Node3 -->
<g id="edge15" class="edge">
<title>Node11&#45;&gt;Node3</title>
<path fill="none" stroke="midnightblue" d="M489.37,-112.27C486.79,-99.48 481.09,-75.11 472,-56 467.27,-46.06 460.46,-35.88 454.43,-27.73"/>
<polygon fill="midnightblue" stroke="midnightblue" points="457.19,-25.58 448.32,-19.78 451.64,-29.85 457.19,-25.58"/>
</g>
<!-- Node11&#45;&gt;Node6 -->
<g id="edge19" class="edge">
<title>Node11&#45;&gt;Node6</title>
<path fill="none" stroke="midnightblue" d="M475.58,-112.32C460.46,-103.82 437.18,-90.73 419.53,-80.8"/>
<polygon fill="midnightblue" stroke="midnightblue" points="420.82,-77.51 410.39,-75.65 417.39,-83.61 420.82,-77.51"/>
</g>
<!-- Node12 -->
<g id="node12" class="node">
<title>Node12</title>
<g id="a_node12"><a xlink:href="../../d6/d3b/FixArduinoMacros_8hpp.html" target="_top" xlink:title=" ">
<polygon fill="white" stroke="black" points="519,-56.5 519,-75.5 689,-75.5 689,-56.5 519,-56.5"/>
<text text-anchor="middle" x="604" y="-63.5" font-family="Helvetica,sans-Serif" font-size="10.00">AH/Math/FixArduinoMacros.hpp</text>
</a>
</g>
</g>
<!-- Node11&#45;&gt;Node12 -->
<g id="edge16" class="edge">
<title>Node11&#45;&gt;Node12</title>
<path fill="none" stroke="midnightblue" d="M508.91,-112.44C527.25,-103.68 556.01,-89.94 577.09,-79.86"/>
<polygon fill="midnightblue" stroke="midnightblue" points="578.67,-82.99 586.18,-75.52 575.65,-76.67 578.67,-82.99"/>
</g>
<!-- Node12&#45;&gt;Node3 -->
<g id="edge17" class="edge">
<title>Node12&#45;&gt;Node3</title>
<path fill="none" stroke="midnightblue" d="M578.17,-56.44C550.75,-47.36 507.22,-32.94 476.57,-22.78"/>
<polygon fill="midnightblue" stroke="midnightblue" points="477.3,-19.34 466.71,-19.52 475.1,-25.98 477.3,-19.34"/>
</g>
<!-- Node12&#45;&gt;Node13 -->
<g id="edge18" class="edge">
<title>Node12&#45;&gt;Node13</title>
<path fill="none" stroke="midnightblue" d="M612.26,-56.08C619.46,-48.3 630.11,-36.8 638.85,-27.37"/>
<polygon fill="midnightblue" stroke="midnightblue" points="641.67,-29.47 645.9,-19.75 636.53,-24.71 641.67,-29.47"/>
</g>
<!-- Node18&#45;&gt;Node3 -->
<g id="edge27" class="edge">
<title>Node18&#45;&gt;Node3</title>
<path fill="none" stroke="midnightblue" d="M325.16,-280.41C307.5,-273.29 284.88,-261.47 271,-244 252.28,-220.43 252,-209.1 252,-179 252,-179 252,-179 252,-121 252,-62.74 319.91,-34.8 374.31,-21.77"/>
<polygon fill="midnightblue" stroke="midnightblue" points="375.32,-25.13 384.29,-19.5 373.77,-18.3 375.32,-25.13"/>
</g>
<!-- Node18&#45;&gt;Node5 -->
<g id="edge32" class="edge">
<title>Node18&#45;&gt;Node5</title>
<path fill="none" stroke="midnightblue" d="M356.13,-299.75C357.66,-306.86 358.1,-317.14 357.47,-326.1"/>
<polygon fill="midnightblue" stroke="midnightblue" points="353.99,-325.71 356.17,-336.08 360.93,-326.62 353.99,-325.71"/>
</g>
<!-- Node19 -->
<g id="node19" class="node">
<title>Node19</title>
<g id="a_node19"><a xlink:href="../../dd/d80/PrintStream_8hpp.html" target="_top" xlink:title=" ">
<polygon fill="white" stroke="black" points="280.5,-224.5 280.5,-243.5 453.5,-243.5 453.5,-224.5 280.5,-224.5"/>
<text text-anchor="middle" x="367" y="-231.5" font-family="Helvetica,sans-Serif" font-size="10.00">AH/PrintStream/PrintStream.hpp</text>
</a>
</g>
</g>
<!-- Node18&#45;&gt;Node19 -->
<g id="edge28" class="edge">
<title>Node18&#45;&gt;Node19</title>
<path fill="none" stroke="midnightblue" d="M353.64,-280.08C355.79,-272.85 358.88,-262.41 361.55,-253.4"/>
<polygon fill="midnightblue" stroke="midnightblue" points="364.92,-254.33 364.41,-243.75 358.21,-252.34 364.92,-254.33"/>
</g>
<!-- Node19&#45;&gt;Node3 -->
<g id="edge30" class="edge">
<title>Node19&#45;&gt;Node3</title>
<path fill="none" stroke="midnightblue" d="M360.02,-224.41C338.85,-197.23 279.09,-111.67 318,-56 329.42,-39.66 347.45,-29.23 366.22,-22.59"/>
<polygon fill="midnightblue" stroke="midnightblue" points="367.31,-25.91 375.77,-19.53 365.18,-19.24 367.31,-25.91"/>
</g>
<!-- Node19&#45;&gt;Node6 -->
<g id="edge29" class="edge">
<title>Node19&#45;&gt;Node6</title>
<path fill="none" stroke="midnightblue" d="M367.44,-224.4C368.59,-204.46 372.21,-153.59 381,-112 382.91,-102.98 385.85,-93.19 388.54,-85.05"/>
<polygon fill="midnightblue" stroke="midnightblue" points="391.88,-86.1 391.83,-75.5 385.26,-83.81 391.88,-86.1"/>
</g>
<!-- Node19&#45;&gt;Node10 -->
<g id="edge31" class="edge">
<title>Node19&#45;&gt;Node10</title>
<path fill="none" stroke="midnightblue" d="M408.83,-224.44C455.08,-214.98 529.61,-199.74 579.44,-189.55"/>
<polygon fill="midnightblue" stroke="midnightblue" points="580.27,-192.95 589.36,-187.52 578.87,-186.09 580.27,-192.95"/>
</g>
</g>
</svg>
