<?xml version="1.0" encoding="UTF-8" standalone="no"?>
<!DOCTYPE svg PUBLIC "-//W3C//DTD SVG 1.1//EN"
 "http://www.w3.org/Graphics/SVG/1.1/DTD/svg11.dtd">
<!-- Generated by graphviz version 2.43.0 (0)
 -->
<!-- Title: ShiftRegisterOutBase.ipp Pages: 1 -->
<svg width="1873pt" height="946pt"
 viewBox="0.00 0.00 1873.00 946.00" xmlns="http://www.w3.org/2000/svg" xmlns:xlink="http://www.w3.org/1999/xlink">
<g id="graph0" class="graph" transform="scale(1 1) rotate(0) translate(4 942)">
<title>ShiftRegisterOutBase.ipp</title>
<polygon fill="white" stroke="transparent" points="-4,4 -4,-942 1869,-942 1869,4 -4,4"/>
<!-- Node1 -->
<g id="node1" class="node">
<title>Node1</title>
<g id="a_node1"><a xlink:title=" ">
<polygon fill="#bfbfbf" stroke="black" points="454,-918.5 454,-937.5 592,-937.5 592,-918.5 454,-918.5"/>
<text text-anchor="middle" x="523" y="-925.5" font-family="Helvetica,sans-Serif" font-size="10.00">ShiftRegisterOutBase.ipp</text>
</a>
</g>
</g>
<!-- Node2 -->
<g id="node2" class="node">
<title>Node2</title>
<g id="a_node2"><a xlink:href="../../dd/ddf/ExtendedInputOutput_8hpp.html" target="_top" xlink:title=" ">
<polygon fill="white" stroke="black" points="293.5,-694.5 293.5,-713.5 434.5,-713.5 434.5,-694.5 293.5,-694.5"/>
<text text-anchor="middle" x="364" y="-701.5" font-family="Helvetica,sans-Serif" font-size="10.00">ExtendedInputOutput.hpp</text>
</a>
</g>
</g>
<!-- Node1&#45;&gt;Node2 -->
<g id="edge1" class="edge">
<title>Node1&#45;&gt;Node2</title>
<path fill="none" stroke="midnightblue" d="M507.22,-918.49C493.46,-910.47 473.62,-897.41 460,-882 415.51,-831.65 383.71,-757.14 370.63,-723.12"/>
<polygon fill="midnightblue" stroke="midnightblue" points="373.84,-721.71 367.04,-713.58 367.28,-724.17 373.84,-721.71"/>
</g>
<!-- Node29 -->
<g id="node29" class="node">
<title>Node29</title>
<g id="a_node29"><a xlink:href="../../d8/d93/ShiftRegisterOutBase_8hpp.html" target="_top" xlink:title=" ">
<polygon fill="white" stroke="black" points="502.5,-862.5 502.5,-881.5 643.5,-881.5 643.5,-862.5 502.5,-862.5"/>
<text text-anchor="middle" x="573" y="-869.5" font-family="Helvetica,sans-Serif" font-size="10.00">ShiftRegisterOutBase.hpp</text>
</a>
</g>
</g>
<!-- Node1&#45;&gt;Node29 -->
<g id="edge53" class="edge">
<title>Node1&#45;&gt;Node29</title>
<path fill="none" stroke="midnightblue" d="M526.09,-918.08C531.77,-910.14 542.35,-898.34 552.17,-888.8"/>
<polygon fill="midnightblue" stroke="midnightblue" points="554.81,-891.12 559.77,-881.75 550.05,-885.98 554.81,-891.12"/>
</g>
<!-- Node40 -->
<g id="node40" class="node">
<title>Node40</title>
<g id="a_node40"><a xlink:href="../../d1/d1f/ShiftRegisterOutRGB_8hpp.html" target="_top" xlink:title=" ">
<polygon fill="white" stroke="black" points="383,-392.5 383,-411.5 521,-411.5 521,-392.5 383,-392.5"/>
<text text-anchor="middle" x="452" y="-399.5" font-family="Helvetica,sans-Serif" font-size="10.00">ShiftRegisterOutRGB.hpp</text>
</a>
</g>
</g>
<!-- Node1&#45;&gt;Node40 -->
<g id="edge87" class="edge">
<title>Node1&#45;&gt;Node40</title>
<path fill="none" stroke="midnightblue" d="M516.19,-918.46C502.72,-900.69 474,-857.98 474,-817 474,-817 474,-817 474,-703 474,-651.69 452.27,-641.93 446,-591 444.32,-577.33 445.74,-573.78 446,-560 446.96,-509.92 449.63,-450.91 451.06,-421.54"/>
<polygon fill="midnightblue" stroke="midnightblue" points="454.56,-421.67 451.56,-411.51 447.57,-421.32 454.56,-421.67"/>
</g>
<!-- Node3 -->
<g id="node3" class="node">
<title>Node3</title>
<g id="a_node3"><a xlink:href="../../d2/d3c/Arduino-Hardware-Types_8hpp.html" target="_top" xlink:title=" ">
<polygon fill="white" stroke="black" points="180,-627.5 180,-657.5 302,-657.5 302,-627.5 180,-627.5"/>
<text text-anchor="start" x="188" y="-645.5" font-family="Helvetica,sans-Serif" font-size="10.00">AH/Hardware/Arduino</text>
<text text-anchor="middle" x="241" y="-634.5" font-family="Helvetica,sans-Serif" font-size="10.00">&#45;Hardware&#45;Types.hpp</text>
</a>
</g>
</g>
<!-- Node2&#45;&gt;Node3 -->
<g id="edge2" class="edge">
<title>Node2&#45;&gt;Node3</title>
<path fill="none" stroke="midnightblue" d="M346.38,-694.48C328.94,-686.04 301.68,-672.86 279.26,-662.01"/>
<polygon fill="midnightblue" stroke="midnightblue" points="280.51,-658.73 269.99,-657.52 277.47,-665.03 280.51,-658.73"/>
</g>
<!-- Node4 -->
<g id="node4" class="node">
<title>Node4</title>
<g id="a_node4"><a xlink:href="../../d1/d65/Warnings_8hpp.html" target="_top" xlink:title=" ">
<polygon fill="white" stroke="black" points="1021.5,-0.5 1021.5,-19.5 1164.5,-19.5 1164.5,-0.5 1021.5,-0.5"/>
<text text-anchor="middle" x="1093" y="-7.5" font-family="Helvetica,sans-Serif" font-size="10.00">AH/Settings/Warnings.hpp</text>
</a>
</g>
</g>
<!-- Node2&#45;&gt;Node4 -->
<g id="edge52" class="edge">
<title>Node2&#45;&gt;Node4</title>
<path fill="none" stroke="midnightblue" d="M314.84,-694.5C223.77,-677.34 38,-635.16 38,-576.5 38,-576.5 38,-576.5 38,-121 38,-85.86 52.25,-73 83,-56 163.23,-11.66 785.15,-9.72 1011.21,-10.51"/>
<polygon fill="midnightblue" stroke="midnightblue" points="1011.33,-14.01 1021.35,-10.54 1011.36,-7.01 1011.33,-14.01"/>
</g>
<!-- Node10 -->
<g id="node10" class="node">
<title>Node10</title>
<g id="a_node10"><a xlink:href="../../dc/dc7/NamespaceSettings_8hpp.html" target="_top" xlink:title=" ">
<polygon fill="white" stroke="black" points="731.5,-56.5 731.5,-75.5 926.5,-75.5 926.5,-56.5 731.5,-56.5"/>
<text text-anchor="middle" x="829" y="-63.5" font-family="Helvetica,sans-Serif" font-size="10.00">AH/Settings/NamespaceSettings.hpp</text>
</a>
</g>
</g>
<!-- Node2&#45;&gt;Node10 -->
<g id="edge51" class="edge">
<title>Node2&#45;&gt;Node10</title>
<path fill="none" stroke="midnightblue" d="M415.01,-694.45C470.25,-682.18 555.72,-653.7 595,-591 681.31,-453.24 511,-397.57 511,-235 511,-235 511,-235 511,-177 511,-125.22 663.52,-92.4 757.3,-77.12"/>
<polygon fill="midnightblue" stroke="midnightblue" points="757.99,-80.55 767.31,-75.51 756.88,-73.64 757.99,-80.55"/>
</g>
<!-- Node28 -->
<g id="node28" class="node">
<title>Node28</title>
<g id="a_node28"><a xlink:title=" ">
<polygon fill="white" stroke="#bfbfbf" points="320.5,-633 320.5,-652 407.5,-652 407.5,-633 320.5,-633"/>
<text text-anchor="middle" x="364" y="-640" font-family="Helvetica,sans-Serif" font-size="10.00">AH/STL/climits</text>
</a>
</g>
</g>
<!-- Node2&#45;&gt;Node28 -->
<g id="edge50" class="edge">
<title>Node2&#45;&gt;Node28</title>
<path fill="none" stroke="midnightblue" d="M364,-694.48C364,-686.08 364,-672.98 364,-662.16"/>
<polygon fill="midnightblue" stroke="midnightblue" points="367.5,-662.01 364,-652.01 360.5,-662.01 367.5,-662.01"/>
</g>
<!-- Node3&#45;&gt;Node4 -->
<g id="edge3" class="edge">
<title>Node3&#45;&gt;Node4</title>
<path fill="none" stroke="midnightblue" d="M241,-627.46C241,-604.12 241,-555.85 241,-515 241,-515 241,-515 241,-401 241,-213.96 313.81,-137.83 482,-56 528.37,-33.44 855.08,-19.24 1010.81,-13.68"/>
<polygon fill="midnightblue" stroke="midnightblue" points="1011.4,-17.16 1021.27,-13.31 1011.15,-10.16 1011.4,-17.16"/>
</g>
<!-- Node5 -->
<g id="node5" class="node">
<title>Node5</title>
<g id="a_node5"><a xlink:href="../../d4/d35/Hardware-Types_8hpp.html" target="_top" xlink:title=" ">
<polygon fill="white" stroke="black" points="454.5,-560.5 454.5,-590.5 585.5,-590.5 585.5,-560.5 454.5,-560.5"/>
<text text-anchor="start" x="462.5" y="-578.5" font-family="Helvetica,sans-Serif" font-size="10.00">AH/Hardware/Hardware</text>
<text text-anchor="middle" x="520" y="-567.5" font-family="Helvetica,sans-Serif" font-size="10.00">&#45;Types.hpp</text>
</a>
</g>
</g>
<!-- Node3&#45;&gt;Node5 -->
<g id="edge4" class="edge">
<title>Node3&#45;&gt;Node5</title>
<path fill="none" stroke="midnightblue" d="M301.2,-627.48C344.77,-617.32 403.81,-603.57 449.58,-592.91"/>
<polygon fill="midnightblue" stroke="midnightblue" points="450.49,-596.29 459.43,-590.61 448.9,-589.47 450.49,-596.29"/>
</g>
<!-- Node11 -->
<g id="node11" class="node">
<title>Node11</title>
<g id="a_node11"><a xlink:href="../../d6/ddf/Arduino-Wrapper_8h.html" target="_top" xlink:title=" ">
<polygon fill="white" stroke="black" points="1340,-168.5 1340,-187.5 1464,-187.5 1464,-168.5 1340,-168.5"/>
<text text-anchor="middle" x="1402" y="-175.5" font-family="Helvetica,sans-Serif" font-size="10.00">AH/Arduino&#45;Wrapper.h</text>
</a>
</g>
</g>
<!-- Node3&#45;&gt;Node11 -->
<g id="edge49" class="edge">
<title>Node3&#45;&gt;Node11</title>
<path fill="none" stroke="midnightblue" d="M302.14,-628.71C305.47,-628.11 308.77,-627.53 312,-627 437.09,-606.3 469.74,-610.67 595,-591 754.91,-565.89 797.77,-569.88 953,-524 1038.24,-498.8 1053.93,-476.89 1138,-448 1194.29,-428.66 1213.41,-437.92 1267,-412 1295.57,-398.18 1483.6,-272.28 1498,-244 1511.15,-218.19 1479.17,-200.85 1448.65,-190.62"/>
<polygon fill="midnightblue" stroke="midnightblue" points="1449.44,-187.2 1438.85,-187.55 1447.34,-193.88 1449.44,-187.2"/>
</g>
<!-- Node25 -->
<g id="node25" class="node">
<title>Node25</title>
<g id="a_node25"><a xlink:href="../../d0/db1/FunctionTraits_8hpp.html" target="_top" xlink:title=" ">
<polygon fill="white" stroke="black" points="170.5,-112.5 170.5,-131.5 323.5,-131.5 323.5,-112.5 170.5,-112.5"/>
<text text-anchor="middle" x="247" y="-119.5" font-family="Helvetica,sans-Serif" font-size="10.00">AH/Types/FunctionTraits.hpp</text>
</a>
</g>
</g>
<!-- Node3&#45;&gt;Node25 -->
<g id="edge44" class="edge">
<title>Node3&#45;&gt;Node25</title>
<path fill="none" stroke="midnightblue" d="M233.85,-627.5C222.84,-604.59 203,-557.42 203,-515 203,-515 203,-515 203,-233 203,-198.04 222.4,-161.01 235.43,-140.07"/>
<polygon fill="midnightblue" stroke="midnightblue" points="238.39,-141.95 240.88,-131.65 232.51,-138.15 238.39,-141.95"/>
</g>
<!-- Node5&#45;&gt;Node4 -->
<g id="edge5" class="edge">
<title>Node5&#45;&gt;Node4</title>
<path fill="none" stroke="midnightblue" d="M498.39,-560.42C461.8,-535.33 388.14,-479.19 352,-412 339.74,-389.2 339.59,-381.63 336,-356 319.21,-236.12 373.09,-199.25 457,-112 481.84,-86.17 482.32,-70.7 515,-56 601.41,-17.12 873.39,-11.09 1011.22,-10.62"/>
<polygon fill="midnightblue" stroke="midnightblue" points="1011.32,-14.12 1021.31,-10.59 1011.3,-7.12 1011.32,-14.12"/>
</g>
<!-- Node6 -->
<g id="node6" class="node">
<title>Node6</title>
<g id="a_node6"><a xlink:href="../../de/d76/Array_8hpp.html" target="_top" xlink:title=" ">
<polygon fill="white" stroke="black" points="808.5,-504.5 808.5,-523.5 943.5,-523.5 943.5,-504.5 808.5,-504.5"/>
<text text-anchor="middle" x="876" y="-511.5" font-family="Helvetica,sans-Serif" font-size="10.00">AH/Containers/Array.hpp</text>
</a>
</g>
</g>
<!-- Node5&#45;&gt;Node6 -->
<g id="edge6" class="edge">
<title>Node5&#45;&gt;Node6</title>
<path fill="none" stroke="midnightblue" d="M585.71,-563.52C651.31,-552.55 751.31,-535.84 815.15,-525.17"/>
<polygon fill="midnightblue" stroke="midnightblue" points="815.78,-528.61 825.07,-523.51 814.63,-521.71 815.78,-528.61"/>
</g>
<!-- Node5&#45;&gt;Node10 -->
<g id="edge42" class="edge">
<title>Node5&#45;&gt;Node10</title>
<path fill="none" stroke="midnightblue" d="M531.96,-560.44C539.5,-550.8 548.77,-537.39 554,-524 603.07,-398.35 541.59,-345.59 600,-224 629.28,-163.04 646.62,-149.35 703,-112 726.57,-96.38 756.22,-85.44 780.83,-78.26"/>
<polygon fill="midnightblue" stroke="midnightblue" points="782,-81.57 790.68,-75.51 780.11,-74.83 782,-81.57"/>
</g>
<!-- Node22 -->
<g id="node22" class="node">
<title>Node22</title>
<g id="a_node22"><a xlink:title=" ">
<polygon fill="white" stroke="#bfbfbf" points="608.5,-224.5 608.5,-243.5 661.5,-243.5 661.5,-224.5 608.5,-224.5"/>
<text text-anchor="middle" x="635" y="-231.5" font-family="Helvetica,sans-Serif" font-size="10.00">stdint.h</text>
</a>
</g>
</g>
<!-- Node5&#45;&gt;Node22 -->
<g id="edge43" class="edge">
<title>Node5&#45;&gt;Node22</title>
<path fill="none" stroke="midnightblue" d="M524.79,-560.34C543.04,-506.47 608.16,-314.23 628.73,-253.51"/>
<polygon fill="midnightblue" stroke="midnightblue" points="632.14,-254.37 632.03,-243.77 625.51,-252.12 632.14,-254.37"/>
</g>
<!-- Node6&#45;&gt;Node4 -->
<g id="edge7" class="edge">
<title>Node6&#45;&gt;Node4</title>
<path fill="none" stroke="midnightblue" d="M810.25,-504.44C680.49,-486.9 401.56,-445.66 374,-412 368.37,-405.12 372.17,-400.7 374,-392 380.98,-358.74 471.23,-134.15 497,-112 572.88,-46.79 866.36,-22.69 1011.2,-14.63"/>
<polygon fill="midnightblue" stroke="midnightblue" points="1011.57,-18.12 1021.37,-14.08 1011.19,-11.13 1011.57,-18.12"/>
</g>
<!-- Node7 -->
<g id="node7" class="node">
<title>Node7</title>
<g id="a_node7"><a xlink:href="../../d1/d93/Error_8hpp.html" target="_top" xlink:title=" ">
<polygon fill="white" stroke="black" points="824,-448.5 824,-467.5 928,-467.5 928,-448.5 824,-448.5"/>
<text text-anchor="middle" x="876" y="-455.5" font-family="Helvetica,sans-Serif" font-size="10.00">AH/Error/Error.hpp</text>
</a>
</g>
</g>
<!-- Node6&#45;&gt;Node7 -->
<g id="edge8" class="edge">
<title>Node6&#45;&gt;Node7</title>
<path fill="none" stroke="midnightblue" d="M876,-504.08C876,-497.01 876,-486.86 876,-477.99"/>
<polygon fill="midnightblue" stroke="midnightblue" points="879.5,-477.75 876,-467.75 872.5,-477.75 879.5,-477.75"/>
</g>
<!-- Node15 -->
<g id="node15" class="node">
<title>Node15</title>
<g id="a_node15"><a xlink:title=" ">
<polygon fill="white" stroke="#bfbfbf" points="729.5,-112.5 729.5,-131.5 836.5,-131.5 836.5,-112.5 729.5,-112.5"/>
<text text-anchor="middle" x="783" y="-119.5" font-family="Helvetica,sans-Serif" font-size="10.00">AH/STL/type_traits</text>
</a>
</g>
</g>
<!-- Node6&#45;&gt;Node15 -->
<g id="edge40" class="edge">
<title>Node6&#45;&gt;Node15</title>
<path fill="none" stroke="midnightblue" d="M851.01,-504.42C834.47,-497.36 813.88,-485.6 803,-468 736.58,-360.57 765.88,-196.51 778.38,-141.62"/>
<polygon fill="midnightblue" stroke="midnightblue" points="781.85,-142.16 780.75,-131.62 775.04,-140.55 781.85,-142.16"/>
</g>
<!-- Node21 -->
<g id="node21" class="node">
<title>Node21</title>
<g id="a_node21"><a xlink:title=" ">
<polygon fill="white" stroke="#bfbfbf" points="843,-224.5 843,-243.5 899,-243.5 899,-224.5 843,-224.5"/>
<text text-anchor="middle" x="871" y="-231.5" font-family="Helvetica,sans-Serif" font-size="10.00">stddef.h</text>
</a>
</g>
</g>
<!-- Node6&#45;&gt;Node21 -->
<g id="edge41" class="edge">
<title>Node6&#45;&gt;Node21</title>
<path fill="none" stroke="midnightblue" d="M856.09,-504.41C841.78,-497.04 823.54,-484.92 815,-468 777.31,-393.37 833.31,-292.32 859.12,-252.33"/>
<polygon fill="midnightblue" stroke="midnightblue" points="862.35,-253.79 864.96,-243.53 856.52,-249.92 862.35,-253.79"/>
</g>
<!-- Node24 -->
<g id="node24" class="node">
<title>Node24</title>
<g id="a_node24"><a xlink:title=" ">
<polygon fill="white" stroke="#bfbfbf" points="1314,-392.5 1314,-411.5 1404,-411.5 1404,-392.5 1314,-392.5"/>
<text text-anchor="middle" x="1359" y="-399.5" font-family="Helvetica,sans-Serif" font-size="10.00">AH/STL/iterator</text>
</a>
</g>
</g>
<!-- Node6&#45;&gt;Node24 -->
<g id="edge39" class="edge">
<title>Node6&#45;&gt;Node24</title>
<path fill="none" stroke="midnightblue" d="M908.57,-504.45C958.01,-491.57 1055.03,-466.73 1138,-448 1194.34,-435.28 1259.13,-422.28 1303.92,-413.54"/>
<polygon fill="midnightblue" stroke="midnightblue" points="1304.87,-416.93 1314.01,-411.58 1303.53,-410.05 1304.87,-416.93"/>
</g>
<!-- Node7&#45;&gt;Node4 -->
<g id="edge9" class="edge">
<title>Node7&#45;&gt;Node4</title>
<path fill="none" stroke="midnightblue" d="M867.1,-448.45C820.16,-402.42 607.85,-181.42 723,-56 742.16,-35.13 908.33,-21.75 1011.36,-15.38"/>
<polygon fill="midnightblue" stroke="midnightblue" points="1011.67,-18.87 1021.43,-14.77 1011.24,-11.88 1011.67,-18.87"/>
</g>
<!-- Node8 -->
<g id="node8" class="node">
<title>Node8</title>
<g id="a_node8"><a xlink:href="../../df/dee/Debug_8hpp.html" target="_top" xlink:title=" ">
<polygon fill="white" stroke="black" points="1136.5,-392.5 1136.5,-411.5 1257.5,-411.5 1257.5,-392.5 1136.5,-392.5"/>
<text text-anchor="middle" x="1197" y="-399.5" font-family="Helvetica,sans-Serif" font-size="10.00">AH/Debug/Debug.hpp</text>
</a>
</g>
</g>
<!-- Node7&#45;&gt;Node8 -->
<g id="edge10" class="edge">
<title>Node7&#45;&gt;Node8</title>
<path fill="none" stroke="midnightblue" d="M926.86,-448.44C983.68,-438.89 1075.62,-423.42 1136.19,-413.23"/>
<polygon fill="midnightblue" stroke="midnightblue" points="1137.09,-416.63 1146.37,-411.52 1135.93,-409.72 1137.09,-416.63"/>
</g>
<!-- Node8&#45;&gt;Node4 -->
<g id="edge11" class="edge">
<title>Node8&#45;&gt;Node4</title>
<path fill="none" stroke="midnightblue" d="M1210.17,-392.25C1239.76,-371.54 1306.47,-318.42 1274,-280 1212.03,-206.67 1122.97,-317.33 1061,-244 1055.26,-237.21 1060.34,-232.86 1061,-224 1061.36,-219.14 1082.4,-80.62 1090.17,-29.62"/>
<polygon fill="midnightblue" stroke="midnightblue" points="1093.64,-30.06 1091.68,-19.64 1086.72,-29 1093.64,-30.06"/>
</g>
<!-- Node9 -->
<g id="node9" class="node">
<title>Node9</title>
<g id="a_node9"><a xlink:href="../../dd/d80/PrintStream_8hpp.html" target="_top" xlink:title=" ">
<polygon fill="white" stroke="black" points="1315.5,-224.5 1315.5,-243.5 1488.5,-243.5 1488.5,-224.5 1315.5,-224.5"/>
<text text-anchor="middle" x="1402" y="-231.5" font-family="Helvetica,sans-Serif" font-size="10.00">AH/PrintStream/PrintStream.hpp</text>
</a>
</g>
</g>
<!-- Node8&#45;&gt;Node9 -->
<g id="edge12" class="edge">
<title>Node8&#45;&gt;Node9</title>
<path fill="none" stroke="midnightblue" d="M1230.09,-392.38C1253.21,-385.23 1283.95,-373.41 1307,-356 1345.57,-326.87 1377.09,-278.46 1392.24,-252.58"/>
<polygon fill="midnightblue" stroke="midnightblue" points="1395.47,-253.98 1397.39,-243.57 1389.39,-250.51 1395.47,-253.98"/>
</g>
<!-- Node16 -->
<g id="node16" class="node">
<title>Node16</title>
<g id="a_node16"><a xlink:href="../../d2/dd5/SettingsWrapper_8hpp.html" target="_top" xlink:title=" ">
<polygon fill="white" stroke="black" points="1001,-336.5 1001,-355.5 1179,-355.5 1179,-336.5 1001,-336.5"/>
<text text-anchor="middle" x="1090" y="-343.5" font-family="Helvetica,sans-Serif" font-size="10.00">AH/Settings/SettingsWrapper.hpp</text>
</a>
</g>
</g>
<!-- Node8&#45;&gt;Node16 -->
<g id="edge24" class="edge">
<title>Node8&#45;&gt;Node16</title>
<path fill="none" stroke="midnightblue" d="M1174.96,-392.44C1156.01,-383.83 1129.17,-370.43 1110.64,-360.41"/>
<polygon fill="midnightblue" stroke="midnightblue" points="1112.24,-357.29 1101.8,-355.52 1108.85,-363.42 1112.24,-357.29"/>
</g>
<!-- Node9&#45;&gt;Node4 -->
<g id="edge14" class="edge">
<title>Node9&#45;&gt;Node4</title>
<path fill="none" stroke="midnightblue" d="M1387.59,-224.44C1373.05,-215.67 1350.09,-201.45 1331,-188 1253.1,-133.09 1239.54,-111.42 1162,-56 1146.87,-45.19 1129.32,-33.75 1115.7,-25.12"/>
<polygon fill="midnightblue" stroke="midnightblue" points="1117.31,-21.99 1106.98,-19.63 1113.58,-27.92 1117.31,-21.99"/>
</g>
<!-- Node9&#45;&gt;Node10 -->
<g id="edge13" class="edge">
<title>Node9&#45;&gt;Node10</title>
<path fill="none" stroke="midnightblue" d="M1355.43,-224.45C1316.36,-216.7 1259.34,-204.05 1211,-188 1130.52,-161.28 1116.7,-138.02 1036,-112 988.47,-96.67 933.11,-84.95 891.61,-77.31"/>
<polygon fill="midnightblue" stroke="midnightblue" points="892.1,-73.84 881.64,-75.5 890.86,-80.73 892.1,-73.84"/>
</g>
<!-- Node9&#45;&gt;Node11 -->
<g id="edge15" class="edge">
<title>Node9&#45;&gt;Node11</title>
<path fill="none" stroke="midnightblue" d="M1402,-224.08C1402,-217.01 1402,-206.86 1402,-197.99"/>
<polygon fill="midnightblue" stroke="midnightblue" points="1405.5,-197.75 1402,-187.75 1398.5,-197.75 1405.5,-197.75"/>
</g>
<!-- Node12 -->
<g id="node12" class="node">
<title>Node12</title>
<g id="a_node12"><a xlink:href="../../d7/d79/MinMaxFix_8hpp.html" target="_top" xlink:title=" ">
<polygon fill="white" stroke="black" points="1334,-112.5 1334,-131.5 1470,-131.5 1470,-112.5 1334,-112.5"/>
<text text-anchor="middle" x="1402" y="-119.5" font-family="Helvetica,sans-Serif" font-size="10.00">AH/Math/MinMaxFix.hpp</text>
</a>
</g>
</g>
<!-- Node11&#45;&gt;Node12 -->
<g id="edge16" class="edge">
<title>Node11&#45;&gt;Node12</title>
<path fill="none" stroke="midnightblue" d="M1402,-168.08C1402,-161.01 1402,-150.86 1402,-141.99"/>
<polygon fill="midnightblue" stroke="midnightblue" points="1405.5,-141.75 1402,-131.75 1398.5,-141.75 1405.5,-141.75"/>
</g>
<!-- Node14 -->
<g id="node14" class="node">
<title>Node14</title>
<g id="a_node14"><a xlink:title=" ">
<polygon fill="white" stroke="#bfbfbf" points="1489.5,-0.5 1489.5,-19.5 1552.5,-19.5 1552.5,-0.5 1489.5,-0.5"/>
<text text-anchor="middle" x="1521" y="-7.5" font-family="Helvetica,sans-Serif" font-size="10.00">Arduino.h</text>
</a>
</g>
</g>
<!-- Node11&#45;&gt;Node14 -->
<g id="edge23" class="edge">
<title>Node11&#45;&gt;Node14</title>
<path fill="none" stroke="midnightblue" d="M1430.7,-168.4C1468.33,-155.36 1532.66,-126.59 1559,-76 1567.98,-58.75 1553.69,-39.59 1540.14,-26.57"/>
<polygon fill="midnightblue" stroke="midnightblue" points="1542.21,-23.74 1532.43,-19.68 1537.55,-28.95 1542.21,-23.74"/>
</g>
<!-- Node11&#45;&gt;Node15 -->
<g id="edge22" class="edge">
<title>Node11&#45;&gt;Node15</title>
<path fill="none" stroke="midnightblue" d="M1339.8,-171.64C1242.55,-163.25 1048.56,-146.48 884,-132 872.01,-130.95 859.22,-129.81 846.92,-128.72"/>
<polygon fill="midnightblue" stroke="midnightblue" points="847,-125.21 836.72,-127.81 846.38,-132.18 847,-125.21"/>
</g>
<!-- Node12&#45;&gt;Node4 -->
<g id="edge17" class="edge">
<title>Node12&#45;&gt;Node4</title>
<path fill="none" stroke="midnightblue" d="M1382.12,-112.47C1351.61,-99.52 1291.29,-74.45 1239,-56 1203.54,-43.49 1162.57,-31.03 1133.08,-22.41"/>
<polygon fill="midnightblue" stroke="midnightblue" points="1133.73,-18.95 1123.15,-19.52 1131.78,-25.67 1133.73,-18.95"/>
</g>
<!-- Node12&#45;&gt;Node10 -->
<g id="edge21" class="edge">
<title>Node12&#45;&gt;Node10</title>
<path fill="none" stroke="midnightblue" d="M1333.74,-114.57C1233.39,-105.11 1045.43,-87.4 929.36,-76.46"/>
<polygon fill="midnightblue" stroke="midnightblue" points="929.68,-72.97 919.4,-75.52 929.02,-79.94 929.68,-72.97"/>
</g>
<!-- Node13 -->
<g id="node13" class="node">
<title>Node13</title>
<g id="a_node13"><a xlink:href="../../d6/d3b/FixArduinoMacros_8hpp.html" target="_top" xlink:title=" ">
<polygon fill="white" stroke="black" points="1380,-56.5 1380,-75.5 1550,-75.5 1550,-56.5 1380,-56.5"/>
<text text-anchor="middle" x="1465" y="-63.5" font-family="Helvetica,sans-Serif" font-size="10.00">AH/Math/FixArduinoMacros.hpp</text>
</a>
</g>
</g>
<!-- Node12&#45;&gt;Node13 -->
<g id="edge18" class="edge">
<title>Node12&#45;&gt;Node13</title>
<path fill="none" stroke="midnightblue" d="M1412.12,-112.32C1421.53,-104.26 1435.74,-92.08 1447.07,-82.37"/>
<polygon fill="midnightblue" stroke="midnightblue" points="1449.38,-85 1454.69,-75.83 1444.82,-79.68 1449.38,-85"/>
</g>
<!-- Node13&#45;&gt;Node4 -->
<g id="edge19" class="edge">
<title>Node13&#45;&gt;Node4</title>
<path fill="none" stroke="midnightblue" d="M1406.06,-56.44C1339.66,-46.81 1231.9,-31.16 1161.74,-20.98"/>
<polygon fill="midnightblue" stroke="midnightblue" points="1162.07,-17.49 1151.67,-19.52 1161.06,-24.42 1162.07,-17.49"/>
</g>
<!-- Node13&#45;&gt;Node14 -->
<g id="edge20" class="edge">
<title>Node13&#45;&gt;Node14</title>
<path fill="none" stroke="midnightblue" d="M1474,-56.32C1482.19,-48.42 1494.51,-36.55 1504.47,-26.94"/>
<polygon fill="midnightblue" stroke="midnightblue" points="1507.07,-29.29 1511.84,-19.83 1502.21,-24.26 1507.07,-29.29"/>
</g>
<!-- Node16&#45;&gt;Node4 -->
<g id="edge25" class="edge">
<title>Node16&#45;&gt;Node4</title>
<path fill="none" stroke="midnightblue" d="M1083.76,-336.4C1069.01,-315.86 1032.77,-264.17 1027,-244 1015.06,-202.29 1065.27,-76.39 1085.18,-29.16"/>
<polygon fill="midnightblue" stroke="midnightblue" points="1088.44,-30.44 1089.14,-19.86 1082,-27.69 1088.44,-30.44"/>
</g>
<!-- Node16&#45;&gt;Node8 -->
<g id="edge38" class="edge">
<title>Node16&#45;&gt;Node8</title>
<path fill="none" stroke="midnightblue" d="M1112.26,-355.65C1131.11,-364.23 1157.65,-377.48 1176.1,-387.45"/>
<polygon fill="midnightblue" stroke="midnightblue" points="1174.48,-390.56 1184.92,-392.32 1177.86,-384.43 1174.48,-390.56"/>
</g>
<!-- Node16&#45;&gt;Node10 -->
<g id="edge26" class="edge">
<title>Node16&#45;&gt;Node10</title>
<path fill="none" stroke="midnightblue" d="M1029.33,-336.45C1002.31,-330.1 971.56,-319.08 949,-300 944.39,-296.1 864.89,-138.4 837.89,-84.7"/>
<polygon fill="midnightblue" stroke="midnightblue" points="840.97,-83.04 833.36,-75.68 834.72,-86.19 840.97,-83.04"/>
</g>
<!-- Node17 -->
<g id="node17" class="node">
<title>Node17</title>
<g id="a_node17"><a xlink:href="../../db/d02/Settings_8hpp.html" target="_top" xlink:title="All user settings and debugging options can be changed here.">
<polygon fill="white" stroke="black" points="957.5,-280.5 957.5,-299.5 1034.5,-299.5 1034.5,-280.5 957.5,-280.5"/>
<text text-anchor="middle" x="996" y="-287.5" font-family="Helvetica,sans-Serif" font-size="10.00">Settings.hpp</text>
</a>
</g>
</g>
<!-- Node16&#45;&gt;Node17 -->
<g id="edge27" class="edge">
<title>Node16&#45;&gt;Node17</title>
<path fill="none" stroke="midnightblue" d="M1074.9,-336.32C1060.1,-327.82 1037.31,-314.73 1020.02,-304.8"/>
<polygon fill="midnightblue" stroke="midnightblue" points="1021.48,-301.6 1011.07,-299.65 1017.99,-307.67 1021.48,-301.6"/>
</g>
<!-- Node23 -->
<g id="node23" class="node">
<title>Node23</title>
<g id="a_node23"><a xlink:href="../../d9/d98/TeensyUSBTypes_8hpp.html" target="_top" xlink:title=" ">
<polygon fill="white" stroke="black" points="1091.5,-280.5 1091.5,-299.5 1264.5,-299.5 1264.5,-280.5 1091.5,-280.5"/>
<text text-anchor="middle" x="1178" y="-287.5" font-family="Helvetica,sans-Serif" font-size="10.00">AH/Teensy/TeensyUSBTypes.hpp</text>
</a>
</g>
</g>
<!-- Node16&#45;&gt;Node23 -->
<g id="edge37" class="edge">
<title>Node16&#45;&gt;Node23</title>
<path fill="none" stroke="midnightblue" d="M1104.14,-336.32C1117.87,-327.9 1138.94,-314.97 1155.06,-305.07"/>
<polygon fill="midnightblue" stroke="midnightblue" points="1157.2,-307.87 1163.9,-299.65 1153.54,-301.9 1157.2,-307.87"/>
</g>
<!-- Node18 -->
<g id="node18" class="node">
<title>Node18</title>
<g id="a_node18"><a xlink:href="../../dc/d50/Frequency_8hpp.html" target="_top" xlink:title=" ">
<polygon fill="white" stroke="black" points="893,-112.5 893,-131.5 1027,-131.5 1027,-112.5 893,-112.5"/>
<text text-anchor="middle" x="960" y="-119.5" font-family="Helvetica,sans-Serif" font-size="10.00">AH/Types/Frequency.hpp</text>
</a>
</g>
</g>
<!-- Node17&#45;&gt;Node18 -->
<g id="edge28" class="edge">
<title>Node17&#45;&gt;Node18</title>
<path fill="none" stroke="midnightblue" d="M994.06,-280.08C988.4,-253.95 971.76,-177.21 964.03,-141.58"/>
<polygon fill="midnightblue" stroke="midnightblue" points="967.4,-140.6 961.86,-131.57 960.56,-142.08 967.4,-140.6"/>
</g>
<!-- Node19 -->
<g id="node19" class="node">
<title>Node19</title>
<g id="a_node19"><a xlink:href="../../d7/d7c/ADCConfig_8hpp.html" target="_top" xlink:title="This file contains the platform&#45;specific ADC resolutions.">
<polygon fill="white" stroke="black" points="1069.5,-224.5 1069.5,-243.5 1226.5,-243.5 1226.5,-224.5 1069.5,-224.5"/>
<text text-anchor="middle" x="1148" y="-231.5" font-family="Helvetica,sans-Serif" font-size="10.00">AH/Hardware/ADCConfig.hpp</text>
</a>
</g>
</g>
<!-- Node17&#45;&gt;Node19 -->
<g id="edge31" class="edge">
<title>Node17&#45;&gt;Node19</title>
<path fill="none" stroke="midnightblue" d="M1020.08,-280.44C1045.54,-271.4 1085.89,-257.06 1114.46,-246.92"/>
<polygon fill="midnightblue" stroke="midnightblue" points="1115.78,-250.16 1124.03,-243.52 1113.43,-243.57 1115.78,-250.16"/>
</g>
<!-- Node20 -->
<g id="node20" class="node">
<title>Node20</title>
<g id="a_node20"><a xlink:title=" ">
<polygon fill="white" stroke="#bfbfbf" points="1244.5,-224.5 1244.5,-243.5 1297.5,-243.5 1297.5,-224.5 1244.5,-224.5"/>
<text text-anchor="middle" x="1271" y="-231.5" font-family="Helvetica,sans-Serif" font-size="10.00">limits.h</text>
</a>
</g>
</g>
<!-- Node17&#45;&gt;Node20 -->
<g id="edge34" class="edge">
<title>Node17&#45;&gt;Node20</title>
<path fill="none" stroke="midnightblue" d="M1034.82,-282.54C1080.36,-274.78 1158.37,-260.93 1234.11,-244.32"/>
<polygon fill="midnightblue" stroke="midnightblue" points="1235.28,-247.64 1244.29,-242.06 1233.77,-240.81 1235.28,-247.64"/>
</g>
<!-- Node17&#45;&gt;Node21 -->
<g id="edge35" class="edge">
<title>Node17&#45;&gt;Node21</title>
<path fill="none" stroke="midnightblue" d="M976.19,-280.44C955.71,-271.6 923.52,-257.69 900.14,-247.59"/>
<polygon fill="midnightblue" stroke="midnightblue" points="901.28,-244.27 890.71,-243.52 898.51,-250.7 901.28,-244.27"/>
</g>
<!-- Node17&#45;&gt;Node22 -->
<g id="edge36" class="edge">
<title>Node17&#45;&gt;Node22</title>
<path fill="none" stroke="midnightblue" d="M957.37,-283.22C887.3,-272.74 740.18,-250.73 671.62,-240.48"/>
<polygon fill="midnightblue" stroke="midnightblue" points="672.11,-237.01 661.7,-238.99 671.07,-243.94 672.11,-237.01"/>
</g>
<!-- Node18&#45;&gt;Node4 -->
<g id="edge29" class="edge">
<title>Node18&#45;&gt;Node4</title>
<path fill="none" stroke="midnightblue" d="M970.44,-112.37C992.97,-93.73 1046.41,-49.53 1074.7,-26.13"/>
<polygon fill="midnightblue" stroke="midnightblue" points="1077.14,-28.66 1082.61,-19.59 1072.68,-23.27 1077.14,-28.66"/>
</g>
<!-- Node18&#45;&gt;Node10 -->
<g id="edge30" class="edge">
<title>Node18&#45;&gt;Node10</title>
<path fill="none" stroke="midnightblue" d="M939.24,-112.44C917.68,-103.56 883.74,-89.56 859.21,-79.45"/>
<polygon fill="midnightblue" stroke="midnightblue" points="860.24,-76.09 849.66,-75.52 857.57,-82.56 860.24,-76.09"/>
</g>
<!-- Node19&#45;&gt;Node4 -->
<g id="edge32" class="edge">
<title>Node19&#45;&gt;Node4</title>
<path fill="none" stroke="midnightblue" d="M1150.21,-224.34C1156.54,-197.68 1172.59,-115.03 1145,-56 1139.16,-43.49 1127.98,-33.11 1117.49,-25.47"/>
<polygon fill="midnightblue" stroke="midnightblue" points="1119.21,-22.41 1108.96,-19.72 1115.3,-28.22 1119.21,-22.41"/>
</g>
<!-- Node19&#45;&gt;Node11 -->
<g id="edge33" class="edge">
<title>Node19&#45;&gt;Node11</title>
<path fill="none" stroke="midnightblue" d="M1188.25,-224.44C1232.65,-215 1304.15,-199.8 1352.09,-189.61"/>
<polygon fill="midnightblue" stroke="midnightblue" points="1352.89,-193.02 1361.94,-187.52 1351.43,-186.17 1352.89,-193.02"/>
</g>
<!-- Node25&#45;&gt;Node4 -->
<g id="edge47" class="edge">
<title>Node25&#45;&gt;Node4</title>
<path fill="none" stroke="midnightblue" d="M255.99,-112.49C272.13,-97.84 307.69,-68.24 344,-56 465.58,-15.01 843.5,-10.46 1011.3,-10.54"/>
<polygon fill="midnightblue" stroke="midnightblue" points="1011.31,-14.04 1021.32,-10.55 1011.32,-7.04 1011.31,-14.04"/>
</g>
<!-- Node25&#45;&gt;Node10 -->
<g id="edge48" class="edge">
<title>Node25&#45;&gt;Node10</title>
<path fill="none" stroke="midnightblue" d="M323.68,-113.88C427.21,-104.28 611.92,-87.14 727.05,-76.46"/>
<polygon fill="midnightblue" stroke="midnightblue" points="727.64,-79.92 737.28,-75.51 726.99,-72.95 727.64,-79.92"/>
</g>
<!-- Node26 -->
<g id="node26" class="node">
<title>Node26</title>
<g id="a_node26"><a xlink:title=" ">
<polygon fill="white" stroke="#bfbfbf" points="202,-56.5 202,-75.5 292,-75.5 292,-56.5 202,-56.5"/>
<text text-anchor="middle" x="247" y="-63.5" font-family="Helvetica,sans-Serif" font-size="10.00">AH/STL/cstddef</text>
</a>
</g>
</g>
<!-- Node25&#45;&gt;Node26 -->
<g id="edge45" class="edge">
<title>Node25&#45;&gt;Node26</title>
<path fill="none" stroke="midnightblue" d="M247,-112.08C247,-105.01 247,-94.86 247,-85.99"/>
<polygon fill="midnightblue" stroke="midnightblue" points="250.5,-85.75 247,-75.75 243.5,-85.75 250.5,-85.75"/>
</g>
<!-- Node27 -->
<g id="node27" class="node">
<title>Node27</title>
<g id="a_node27"><a xlink:title=" ">
<polygon fill="white" stroke="#bfbfbf" points="104.5,-56.5 104.5,-75.5 183.5,-75.5 183.5,-56.5 104.5,-56.5"/>
<text text-anchor="middle" x="144" y="-63.5" font-family="Helvetica,sans-Serif" font-size="10.00">AH/STL/tuple</text>
</a>
</g>
</g>
<!-- Node25&#45;&gt;Node27 -->
<g id="edge46" class="edge">
<title>Node25&#45;&gt;Node27</title>
<path fill="none" stroke="midnightblue" d="M230.45,-112.32C214.01,-103.7 188.57,-90.36 169.53,-80.39"/>
<polygon fill="midnightblue" stroke="midnightblue" points="170.99,-77.2 160.51,-75.65 167.74,-83.4 170.99,-77.2"/>
</g>
<!-- Node29&#45;&gt;Node1 -->
<g id="edge86" class="edge">
<title>Node29&#45;&gt;Node1</title>
<path fill="none" stroke="midnightblue" d="M569.97,-881.83C564.3,-889.79 553.64,-901.67 543.78,-911.25"/>
<polygon fill="midnightblue" stroke="midnightblue" points="541.1,-908.96 536.15,-918.32 545.86,-914.09 541.1,-908.96"/>
</g>
<!-- Node29&#45;&gt;Node2 -->
<g id="edge55" class="edge">
<title>Node29&#45;&gt;Node2</title>
<path fill="none" stroke="midnightblue" d="M562.06,-862.31C528.27,-835.47 425.31,-753.69 382.73,-719.88"/>
<polygon fill="midnightblue" stroke="midnightblue" points="384.84,-717.08 374.83,-713.61 380.49,-722.57 384.84,-717.08"/>
</g>
<!-- Node29&#45;&gt;Node4 -->
<g id="edge54" class="edge">
<title>Node29&#45;&gt;Node4</title>
<path fill="none" stroke="midnightblue" d="M502.45,-864.76C349.29,-850.25 0,-811.62 0,-761 0,-761 0,-761 0,-121 0,-84.28 18.33,-72.77 51,-56 135.42,-12.66 780.31,-10.12 1011.14,-10.63"/>
<polygon fill="midnightblue" stroke="midnightblue" points="1011.15,-14.13 1021.16,-10.65 1011.17,-7.13 1011.15,-14.13"/>
</g>
<!-- Node30 -->
<g id="node30" class="node">
<title>Node30</title>
<g id="a_node30"><a xlink:href="../../d2/d05/StaticSizeExtendedIOElement_8hpp.html" target="_top" xlink:title=" ">
<polygon fill="white" stroke="black" points="1302,-806.5 1302,-825.5 1484,-825.5 1484,-806.5 1302,-806.5"/>
<text text-anchor="middle" x="1393" y="-813.5" font-family="Helvetica,sans-Serif" font-size="10.00">StaticSizeExtendedIOElement.hpp</text>
</a>
</g>
</g>
<!-- Node29&#45;&gt;Node30 -->
<g id="edge56" class="edge">
<title>Node29&#45;&gt;Node30</title>
<path fill="none" stroke="midnightblue" d="M643.62,-866.35C789.24,-856.76 1123.3,-834.76 1291.83,-823.66"/>
<polygon fill="midnightblue" stroke="midnightblue" points="1292.2,-827.15 1301.95,-823 1291.74,-820.16 1292.2,-827.15"/>
</g>
<!-- Node39 -->
<g id="node39" class="node">
<title>Node39</title>
<g id="a_node39"><a xlink:href="../../d1/d40/BitArray_8hpp.html" target="_top" xlink:title=" ">
<polygon fill="white" stroke="black" points="641.5,-504.5 641.5,-523.5 790.5,-523.5 790.5,-504.5 641.5,-504.5"/>
<text text-anchor="middle" x="716" y="-511.5" font-family="Helvetica,sans-Serif" font-size="10.00">AH/Containers/BitArray.hpp</text>
</a>
</g>
</g>
<!-- Node29&#45;&gt;Node39 -->
<g id="edge81" class="edge">
<title>Node29&#45;&gt;Node39</title>
<path fill="none" stroke="midnightblue" d="M592.84,-862.39C624.77,-847.04 684,-811.73 684,-761 684,-761 684,-761 684,-641.5 684,-601.84 698.97,-557.25 708.43,-533.03"/>
<polygon fill="midnightblue" stroke="midnightblue" points="711.7,-534.29 712.2,-523.7 705.21,-531.66 711.7,-534.29"/>
</g>
<!-- Node30&#45;&gt;Node4 -->
<g id="edge57" class="edge">
<title>Node30&#45;&gt;Node4</title>
<path fill="none" stroke="midnightblue" d="M1484.01,-812.16C1621.16,-805.37 1865,-782.41 1865,-705 1865,-705 1865,-705 1865,-121 1865,-44.24 1779.74,-73.47 1705,-56 1606.48,-32.97 1317.25,-19.34 1174.54,-13.84"/>
<polygon fill="midnightblue" stroke="midnightblue" points="1174.65,-10.34 1164.52,-13.46 1174.38,-17.34 1174.65,-10.34"/>
</g>
<!-- Node31 -->
<g id="node31" class="node">
<title>Node31</title>
<g id="a_node31"><a xlink:href="../../d4/d57/ExtendedIOElement_8hpp.html" target="_top" xlink:title=" ">
<polygon fill="white" stroke="black" points="1105,-750.5 1105,-769.5 1239,-769.5 1239,-750.5 1105,-750.5"/>
<text text-anchor="middle" x="1172" y="-757.5" font-family="Helvetica,sans-Serif" font-size="10.00">ExtendedIOElement.hpp</text>
</a>
</g>
</g>
<!-- Node30&#45;&gt;Node31 -->
<g id="edge58" class="edge">
<title>Node30&#45;&gt;Node31</title>
<path fill="none" stroke="midnightblue" d="M1357.98,-806.44C1319.75,-797.1 1258.43,-782.12 1216.74,-771.93"/>
<polygon fill="midnightblue" stroke="midnightblue" points="1217.4,-768.49 1206.85,-769.52 1215.74,-775.29 1217.4,-768.49"/>
</g>
<!-- Node37 -->
<g id="node37" class="node">
<title>Node37</title>
<g id="a_node37"><a xlink:href="../../d5/db6/ArrayHelpers_8hpp.html" target="_top" xlink:title=" ">
<polygon fill="white" stroke="black" points="1629,-566 1629,-585 1803,-585 1803,-566 1629,-566"/>
<text text-anchor="middle" x="1716" y="-573" font-family="Helvetica,sans-Serif" font-size="10.00">AH/Containers/ArrayHelpers.hpp</text>
</a>
</g>
</g>
<!-- Node30&#45;&gt;Node37 -->
<g id="edge76" class="edge">
<title>Node30&#45;&gt;Node37</title>
<path fill="none" stroke="midnightblue" d="M1424.06,-806.4C1469.64,-792.63 1555.67,-762.18 1615,-714 1657.59,-679.41 1691.43,-622.88 1706.88,-594.28"/>
<polygon fill="midnightblue" stroke="midnightblue" points="1710.15,-595.57 1711.72,-585.09 1703.96,-592.31 1710.15,-595.57"/>
</g>
<!-- Node31&#45;&gt;Node2 -->
<g id="edge60" class="edge">
<title>Node31&#45;&gt;Node2</title>
<path fill="none" stroke="midnightblue" d="M1104.85,-754.51C957.09,-744.64 604.28,-721.06 444.76,-710.4"/>
<polygon fill="midnightblue" stroke="midnightblue" points="444.75,-706.89 434.54,-709.71 444.28,-713.87 444.75,-706.89"/>
</g>
<!-- Node31&#45;&gt;Node4 -->
<g id="edge59" class="edge">
<title>Node31&#45;&gt;Node4</title>
<path fill="none" stroke="midnightblue" d="M1202.34,-750.39C1310.25,-717.72 1669,-590.77 1669,-347 1669,-347 1669,-347 1669,-121 1669,-77.23 1635.23,-73.25 1595,-56 1521.57,-24.51 1297.45,-15.05 1175,-12.21"/>
<polygon fill="midnightblue" stroke="midnightblue" points="1174.99,-8.71 1164.92,-11.99 1174.84,-15.71 1174.99,-8.71"/>
</g>
<!-- Node31&#45;&gt;Node5 -->
<g id="edge75" class="edge">
<title>Node31&#45;&gt;Node5</title>
<path fill="none" stroke="midnightblue" d="M1141.43,-750.44C1040.36,-722.15 715.73,-631.29 580.26,-593.37"/>
<polygon fill="midnightblue" stroke="midnightblue" points="581.03,-589.95 570.46,-590.62 579.14,-596.69 581.03,-589.95"/>
</g>
<!-- Node32 -->
<g id="node32" class="node">
<title>Node32</title>
<g id="a_node32"><a xlink:href="../../d4/d93/Updatable_8hpp.html" target="_top" xlink:title=" ">
<polygon fill="white" stroke="black" points="1091.5,-504.5 1091.5,-523.5 1252.5,-523.5 1252.5,-504.5 1091.5,-504.5"/>
<text text-anchor="middle" x="1172" y="-511.5" font-family="Helvetica,sans-Serif" font-size="10.00">AH/Containers/Updatable.hpp</text>
</a>
</g>
</g>
<!-- Node31&#45;&gt;Node32 -->
<g id="edge61" class="edge">
<title>Node31&#45;&gt;Node32</title>
<path fill="none" stroke="midnightblue" d="M1172,-750.32C1172,-715.18 1172,-583.12 1172,-533.76"/>
<polygon fill="midnightblue" stroke="midnightblue" points="1175.5,-533.58 1172,-523.58 1168.5,-533.58 1175.5,-533.58"/>
</g>
<!-- Node32&#45;&gt;Node4 -->
<g id="edge62" class="edge">
<title>Node32&#45;&gt;Node4</title>
<path fill="none" stroke="midnightblue" d="M1252.68,-508.68C1361.8,-502.12 1545.56,-488.22 1569,-468 1650.14,-398 1631,-342.16 1631,-235 1631,-235 1631,-235 1631,-121 1631,-77.89 1598.45,-73.39 1559,-56 1492.22,-26.55 1289.82,-16.28 1174.93,-12.76"/>
<polygon fill="midnightblue" stroke="midnightblue" points="1174.88,-9.26 1164.78,-12.46 1174.67,-16.26 1174.88,-9.26"/>
</g>
<!-- Node32&#45;&gt;Node7 -->
<g id="edge70" class="edge">
<title>Node32&#45;&gt;Node7</title>
<path fill="none" stroke="midnightblue" d="M1125.1,-504.44C1072.92,-494.92 988.63,-479.55 932.77,-469.36"/>
<polygon fill="midnightblue" stroke="midnightblue" points="933.15,-465.87 922.68,-467.52 931.89,-472.75 933.15,-465.87"/>
</g>
<!-- Node32&#45;&gt;Node15 -->
<g id="edge71" class="edge">
<title>Node32&#45;&gt;Node15</title>
<path fill="none" stroke="midnightblue" d="M1149.12,-504.42C1070.33,-474.16 815,-370.01 815,-291 815,-291 815,-291 815,-233 815,-199.33 801.01,-162.08 791.53,-140.72"/>
<polygon fill="midnightblue" stroke="midnightblue" points="794.68,-139.21 787.32,-131.59 788.33,-142.14 794.68,-139.21"/>
</g>
<!-- Node32&#45;&gt;Node16 -->
<g id="edge73" class="edge">
<title>Node32&#45;&gt;Node16</title>
<path fill="none" stroke="midnightblue" d="M1164.2,-504.19C1156.76,-495.47 1145.58,-481.48 1138,-468 1118.59,-433.5 1103.27,-389.56 1095.53,-365.25"/>
<polygon fill="midnightblue" stroke="midnightblue" points="1098.83,-364.08 1092.52,-355.57 1092.15,-366.16 1098.83,-364.08"/>
</g>
<!-- Node32&#45;&gt;Node21 -->
<g id="edge74" class="edge">
<title>Node32&#45;&gt;Node21</title>
<path fill="none" stroke="midnightblue" d="M1161.69,-504.33C1133.9,-480.87 1055.24,-414.04 992,-356 965.6,-331.77 959.36,-325.31 934,-300 917.42,-283.45 898.79,-264.14 886.12,-250.89"/>
<polygon fill="midnightblue" stroke="midnightblue" points="888.5,-248.32 879.07,-243.5 883.44,-253.15 888.5,-248.32"/>
</g>
<!-- Node33 -->
<g id="node33" class="node">
<title>Node33</title>
<g id="a_node33"><a xlink:href="../../d4/dba/CRTP_8hpp.html" target="_top" xlink:title=" ">
<polygon fill="white" stroke="black" points="1324,-448.5 1324,-467.5 1458,-467.5 1458,-448.5 1324,-448.5"/>
<text text-anchor="middle" x="1391" y="-455.5" font-family="Helvetica,sans-Serif" font-size="10.00">AH/Containers/CRTP.hpp</text>
</a>
</g>
</g>
<!-- Node32&#45;&gt;Node33 -->
<g id="edge63" class="edge">
<title>Node32&#45;&gt;Node33</title>
<path fill="none" stroke="midnightblue" d="M1206.7,-504.44C1244.58,-495.1 1305.35,-480.12 1346.66,-469.93"/>
<polygon fill="midnightblue" stroke="midnightblue" points="1347.59,-473.31 1356.46,-467.52 1345.91,-466.51 1347.59,-473.31"/>
</g>
<!-- Node34 -->
<g id="node34" class="node">
<title>Node34</title>
<g id="a_node34"><a xlink:href="../../de/dd1/LinkedList_8hpp.html" target="_top" xlink:title=" ">
<polygon fill="white" stroke="black" points="1146.5,-448.5 1146.5,-467.5 1305.5,-467.5 1305.5,-448.5 1146.5,-448.5"/>
<text text-anchor="middle" x="1226" y="-455.5" font-family="Helvetica,sans-Serif" font-size="10.00">AH/Containers/LinkedList.hpp</text>
</a>
</g>
</g>
<!-- Node32&#45;&gt;Node34 -->
<g id="edge64" class="edge">
<title>Node32&#45;&gt;Node34</title>
<path fill="none" stroke="midnightblue" d="M1180.92,-504.08C1188.78,-496.22 1200.43,-484.57 1209.92,-475.08"/>
<polygon fill="midnightblue" stroke="midnightblue" points="1212.65,-477.3 1217.25,-467.75 1207.7,-472.35 1212.65,-477.3"/>
</g>
<!-- Node36 -->
<g id="node36" class="node">
<title>Node36</title>
<g id="a_node36"><a xlink:title=" ">
<polygon fill="white" stroke="#bfbfbf" points="1476.5,-448.5 1476.5,-467.5 1559.5,-467.5 1559.5,-448.5 1476.5,-448.5"/>
<text text-anchor="middle" x="1518" y="-455.5" font-family="Helvetica,sans-Serif" font-size="10.00">AH/STL/utility</text>
</a>
</g>
</g>
<!-- Node32&#45;&gt;Node36 -->
<g id="edge72" class="edge">
<title>Node32&#45;&gt;Node36</title>
<path fill="none" stroke="midnightblue" d="M1230.55,-504.48C1287.97,-496.03 1378.26,-482.5 1466.37,-468.07"/>
<polygon fill="midnightblue" stroke="midnightblue" points="1466.96,-471.52 1476.26,-466.45 1465.83,-464.61 1466.96,-471.52"/>
</g>
<!-- Node34&#45;&gt;Node4 -->
<g id="edge65" class="edge">
<title>Node34&#45;&gt;Node4</title>
<path fill="none" stroke="midnightblue" d="M1301.28,-448.47C1390.47,-438.01 1528.08,-420.62 1536,-412 1592.61,-350.38 1564.64,-305.57 1546,-224 1533.08,-167.45 1526.53,-145.25 1479,-112 1451.15,-92.51 1239.04,-43.52 1141.64,-21.74"/>
<polygon fill="midnightblue" stroke="midnightblue" points="1142.26,-18.29 1131.74,-19.53 1140.74,-25.12 1142.26,-18.29"/>
</g>
<!-- Node34&#45;&gt;Node8 -->
<g id="edge66" class="edge">
<title>Node34&#45;&gt;Node8</title>
<path fill="none" stroke="midnightblue" d="M1221.21,-448.08C1217.24,-440.69 1211.47,-429.95 1206.57,-420.81"/>
<polygon fill="midnightblue" stroke="midnightblue" points="1209.51,-418.91 1201.7,-411.75 1203.35,-422.22 1209.51,-418.91"/>
</g>
<!-- Node34&#45;&gt;Node12 -->
<g id="edge67" class="edge">
<title>Node34&#45;&gt;Node12</title>
<path fill="none" stroke="midnightblue" d="M1279.45,-448.47C1326.73,-440.15 1391.46,-426.65 1413,-412 1488.45,-360.68 1503.5,-331 1531,-244 1547.43,-192.01 1479,-153.93 1435.53,-135.47"/>
<polygon fill="midnightblue" stroke="midnightblue" points="1436.73,-132.18 1426.14,-131.63 1434.07,-138.66 1436.73,-132.18"/>
</g>
<!-- Node34&#45;&gt;Node24 -->
<g id="edge69" class="edge">
<title>Node34&#45;&gt;Node24</title>
<path fill="none" stroke="midnightblue" d="M1247.07,-448.44C1269.06,-439.52 1303.73,-425.44 1328.66,-415.32"/>
<polygon fill="midnightblue" stroke="midnightblue" points="1330.08,-418.52 1338.02,-411.52 1327.44,-412.04 1330.08,-418.52"/>
</g>
<!-- Node35 -->
<g id="node35" class="node">
<title>Node35</title>
<g id="a_node35"><a xlink:title=" ">
<polygon fill="white" stroke="#bfbfbf" points="1473.5,-392.5 1473.5,-411.5 1526.5,-411.5 1526.5,-392.5 1473.5,-392.5"/>
<text text-anchor="middle" x="1500" y="-399.5" font-family="Helvetica,sans-Serif" font-size="10.00">stdlib.h</text>
</a>
</g>
</g>
<!-- Node34&#45;&gt;Node35 -->
<g id="edge68" class="edge">
<title>Node34&#45;&gt;Node35</title>
<path fill="none" stroke="midnightblue" d="M1272.05,-448.46C1319.1,-439.66 1394.24,-425.36 1459,-412 1460.28,-411.73 1461.59,-411.46 1462.91,-411.19"/>
<polygon fill="midnightblue" stroke="midnightblue" points="1464.07,-414.52 1473.11,-409 1462.6,-407.67 1464.07,-414.52"/>
</g>
<!-- Node37&#45;&gt;Node4 -->
<g id="edge77" class="edge">
<title>Node37&#45;&gt;Node4</title>
<path fill="none" stroke="midnightblue" d="M1714.86,-565.82C1712.44,-546.62 1707,-499.02 1707,-459 1707,-459 1707,-459 1707,-121 1707,-90.2 1707.58,-74.55 1683,-56 1643.4,-26.11 1327.58,-15.7 1174.98,-12.4"/>
<polygon fill="midnightblue" stroke="midnightblue" points="1174.8,-8.89 1164.72,-12.18 1174.65,-15.89 1174.8,-8.89"/>
</g>
<!-- Node37&#45;&gt;Node6 -->
<g id="edge78" class="edge">
<title>Node37&#45;&gt;Node6</title>
<path fill="none" stroke="midnightblue" d="M1628.88,-568.33C1464.4,-556.68 1110.62,-531.62 953.7,-520.5"/>
<polygon fill="midnightblue" stroke="midnightblue" points="953.87,-517.01 943.65,-519.79 953.38,-523.99 953.87,-517.01"/>
</g>
<!-- Node37&#45;&gt;Node9 -->
<g id="edge80" class="edge">
<title>Node37&#45;&gt;Node9</title>
<path fill="none" stroke="midnightblue" d="M1708.5,-565.82C1690.62,-545.19 1644.03,-491.68 1604,-448 1535.79,-373.56 1452.17,-286.77 1417.85,-251.33"/>
<polygon fill="midnightblue" stroke="midnightblue" points="1420.05,-248.57 1410.58,-243.83 1415.02,-253.44 1420.05,-248.57"/>
</g>
<!-- Node38 -->
<g id="node38" class="node">
<title>Node38</title>
<g id="a_node38"><a xlink:title=" ">
<polygon fill="white" stroke="#bfbfbf" points="1735.5,-504.5 1735.5,-523.5 1836.5,-523.5 1836.5,-504.5 1735.5,-504.5"/>
<text text-anchor="middle" x="1786" y="-511.5" font-family="Helvetica,sans-Serif" font-size="10.00">AH/STL/algorithm</text>
</a>
</g>
</g>
<!-- Node37&#45;&gt;Node38 -->
<g id="edge79" class="edge">
<title>Node37&#45;&gt;Node38</title>
<path fill="none" stroke="midnightblue" d="M1726.03,-565.98C1737.05,-556.61 1754.96,-541.38 1768.34,-530.01"/>
<polygon fill="midnightblue" stroke="midnightblue" points="1770.64,-532.65 1775.99,-523.51 1766.1,-527.32 1770.64,-532.65"/>
</g>
<!-- Node39&#45;&gt;Node4 -->
<g id="edge82" class="edge">
<title>Node39&#45;&gt;Node4</title>
<path fill="none" stroke="midnightblue" d="M641.28,-505.42C591.93,-498.93 526.39,-487.46 471,-468 421.47,-450.6 393.92,-457.07 367,-412 294.02,-289.81 383.68,-217.69 479,-112 510.05,-77.57 523.08,-70.85 567,-56 646.99,-28.95 884.33,-17.53 1011.07,-13.25"/>
<polygon fill="midnightblue" stroke="midnightblue" points="1011.24,-16.75 1021.12,-12.92 1011.01,-9.75 1011.24,-16.75"/>
</g>
<!-- Node39&#45;&gt;Node7 -->
<g id="edge83" class="edge">
<title>Node39&#45;&gt;Node7</title>
<path fill="none" stroke="midnightblue" d="M741.35,-504.44C768.27,-495.36 811,-480.94 841.09,-470.78"/>
<polygon fill="midnightblue" stroke="midnightblue" points="842.41,-474.03 850.77,-467.52 840.17,-467.4 842.41,-474.03"/>
</g>
<!-- Node39&#45;&gt;Node10 -->
<g id="edge84" class="edge">
<title>Node39&#45;&gt;Node10</title>
<path fill="none" stroke="midnightblue" d="M714.04,-504.5C709.97,-486.09 701,-441.16 701,-403 701,-403 701,-403 701,-177 701,-146.77 700.68,-134.38 721,-112 735.67,-95.85 757.04,-85.33 776.91,-78.56"/>
<polygon fill="midnightblue" stroke="midnightblue" points="778.03,-81.87 786.51,-75.52 775.92,-75.2 778.03,-81.87"/>
</g>
<!-- Node39&#45;&gt;Node22 -->
<g id="edge85" class="edge">
<title>Node39&#45;&gt;Node22</title>
<path fill="none" stroke="midnightblue" d="M708.41,-504.28C693.75,-486.52 663,-444.34 663,-403 663,-403 663,-403 663,-345 663,-311.79 650.87,-274.63 642.57,-253.12"/>
<polygon fill="midnightblue" stroke="midnightblue" points="645.75,-251.63 638.78,-243.65 639.25,-254.23 645.75,-251.63"/>
</g>
<!-- Node40&#45;&gt;Node4 -->
<g id="edge88" class="edge">
<title>Node40&#45;&gt;Node4</title>
<path fill="none" stroke="midnightblue" d="M438.17,-392.38C364.8,-346.15 26.96,-127.18 95,-56 126.48,-23.07 778.66,-13.88 1011.38,-11.64"/>
<polygon fill="midnightblue" stroke="midnightblue" points="1011.51,-15.14 1021.48,-11.55 1011.44,-8.14 1011.51,-15.14"/>
</g>
<!-- Node40&#45;&gt;Node16 -->
<g id="edge90" class="edge">
<title>Node40&#45;&gt;Node16</title>
<path fill="none" stroke="midnightblue" d="M521.19,-395.14C634.61,-385.54 860.48,-366.43 990.88,-355.39"/>
<polygon fill="midnightblue" stroke="midnightblue" points="991.21,-358.87 1000.88,-354.54 990.62,-351.9 991.21,-358.87"/>
</g>
<!-- Node40&#45;&gt;Node22 -->
<g id="edge89" class="edge">
<title>Node40&#45;&gt;Node22</title>
<path fill="none" stroke="midnightblue" d="M461.58,-392.31C490.98,-365.64 580.19,-284.72 617.89,-250.52"/>
<polygon fill="midnightblue" stroke="midnightblue" points="620.46,-252.92 625.51,-243.61 615.76,-247.73 620.46,-252.92"/>
</g>
</g>
</svg>
