<?xml version="1.0" encoding="UTF-8" standalone="no"?>
<!DOCTYPE svg PUBLIC "-//W3C//DTD SVG 1.1//EN"
 "http://www.w3.org/Graphics/SVG/1.1/DTD/svg11.dtd">
<!-- Generated by graphviz version 2.43.0 (0)
 -->
<!-- Title: MAX7219SevenSegmentDisplay.hpp Pages: 1 -->
<svg width="1423pt" height="845pt"
 viewBox="0.00 0.00 1422.50 845.00" xmlns="http://www.w3.org/2000/svg" xmlns:xlink="http://www.w3.org/1999/xlink">
<g id="graph0" class="graph" transform="scale(1 1) rotate(0) translate(4 841)">
<title>MAX7219SevenSegmentDisplay.hpp</title>
<polygon fill="white" stroke="transparent" points="-4,4 -4,-841 1418.5,-841 1418.5,4 -4,4"/>
<!-- Node1 -->
<g id="node1" class="node">
<title>Node1</title>
<g id="a_node1"><a xlink:title=" ">
<polygon fill="#bfbfbf" stroke="black" points="1221.5,-817.5 1221.5,-836.5 1414.5,-836.5 1414.5,-817.5 1221.5,-817.5"/>
<text text-anchor="middle" x="1318" y="-824.5" font-family="Helvetica,sans-Serif" font-size="10.00">MAX7219SevenSegmentDisplay.hpp</text>
</a>
</g>
</g>
<!-- Node2 -->
<g id="node2" class="node">
<title>Node2</title>
<g id="a_node2"><a xlink:href="../../d1/d65/Warnings_8hpp.html" target="_top" xlink:title=" ">
<polygon fill="white" stroke="black" points="512.5,-0.5 512.5,-19.5 655.5,-19.5 655.5,-0.5 512.5,-0.5"/>
<text text-anchor="middle" x="584" y="-7.5" font-family="Helvetica,sans-Serif" font-size="10.00">AH/Settings/Warnings.hpp</text>
</a>
</g>
</g>
<!-- Node1&#45;&gt;Node2 -->
<g id="edge1" class="edge">
<title>Node1&#45;&gt;Node2</title>
<path fill="none" stroke="midnightblue" d="M1323.75,-817.44C1335.68,-798.84 1362,-752.99 1362,-710.5 1362,-710.5 1362,-710.5 1362,-121 1362,-84.82 1344.87,-73.13 1313,-56 1257.19,-26 844.16,-15.41 665.72,-12.21"/>
<polygon fill="midnightblue" stroke="midnightblue" points="665.66,-8.71 655.6,-12.04 665.54,-15.71 665.66,-8.71"/>
</g>
<!-- Node3 -->
<g id="node3" class="node">
<title>Node3</title>
<g id="a_node3"><a xlink:href="../../d7/d13/MAX7219__Base_8hpp.html" target="_top" xlink:title=" ">
<polygon fill="white" stroke="black" points="1219.5,-761.5 1219.5,-780.5 1332.5,-780.5 1332.5,-761.5 1219.5,-761.5"/>
<text text-anchor="middle" x="1276" y="-768.5" font-family="Helvetica,sans-Serif" font-size="10.00">MAX7219_Base.hpp</text>
</a>
</g>
</g>
<!-- Node1&#45;&gt;Node3 -->
<g id="edge2" class="edge">
<title>Node1&#45;&gt;Node3</title>
<path fill="none" stroke="midnightblue" d="M1311.06,-817.08C1305.07,-809.38 1296.25,-798.03 1288.95,-788.65"/>
<polygon fill="midnightblue" stroke="midnightblue" points="1291.71,-786.5 1282.81,-780.75 1286.18,-790.79 1291.71,-786.5"/>
</g>
<!-- Node3&#45;&gt;Node2 -->
<g id="edge3" class="edge">
<title>Node3&#45;&gt;Node2</title>
<path fill="none" stroke="midnightblue" d="M1282.98,-761.21C1289.57,-752.49 1299.27,-738.52 1305,-725 1319.51,-690.75 1324,-680.69 1324,-643.5 1324,-643.5 1324,-643.5 1324,-121 1324,-87.98 1315.9,-73.67 1288,-56 1236.54,-23.42 840.02,-14.3 665.74,-11.86"/>
<polygon fill="midnightblue" stroke="midnightblue" points="665.64,-8.35 655.59,-11.72 665.54,-15.35 665.64,-8.35"/>
</g>
<!-- Node4 -->
<g id="node4" class="node">
<title>Node4</title>
<g id="a_node4"><a xlink:href="../../dd/ddf/ExtendedInputOutput_8hpp.html" target="_top" xlink:title=" ">
<polygon fill="white" stroke="black" points="1058.5,-694.5 1058.5,-724.5 1235.5,-724.5 1235.5,-694.5 1058.5,-694.5"/>
<text text-anchor="start" x="1066.5" y="-712.5" font-family="Helvetica,sans-Serif" font-size="10.00">AH/Hardware/ExtendedInput</text>
<text text-anchor="middle" x="1147" y="-701.5" font-family="Helvetica,sans-Serif" font-size="10.00">Output/ExtendedInputOutput.hpp</text>
</a>
</g>
</g>
<!-- Node3&#45;&gt;Node4 -->
<g id="edge4" class="edge">
<title>Node3&#45;&gt;Node4</title>
<path fill="none" stroke="midnightblue" d="M1257.52,-761.48C1239.07,-752.96 1210.13,-739.62 1186.5,-728.72"/>
<polygon fill="midnightblue" stroke="midnightblue" points="1187.95,-725.53 1177.4,-724.52 1185.02,-731.89 1187.95,-725.53"/>
</g>
<!-- Node30 -->
<g id="node30" class="node">
<title>Node30</title>
<g id="a_node30"><a xlink:title=" ">
<polygon fill="white" stroke="#bfbfbf" points="1254.5,-700 1254.5,-719 1295.5,-719 1295.5,-700 1254.5,-700"/>
<text text-anchor="middle" x="1275" y="-707" font-family="Helvetica,sans-Serif" font-size="10.00">SPI.h</text>
</a>
</g>
</g>
<!-- Node3&#45;&gt;Node30 -->
<g id="edge56" class="edge">
<title>Node3&#45;&gt;Node30</title>
<path fill="none" stroke="midnightblue" d="M1275.86,-761.48C1275.72,-753.08 1275.5,-739.98 1275.31,-729.16"/>
<polygon fill="midnightblue" stroke="midnightblue" points="1278.81,-728.95 1275.14,-719.01 1271.81,-729.07 1278.81,-728.95"/>
</g>
<!-- Node4&#45;&gt;Node2 -->
<g id="edge55" class="edge">
<title>Node4&#45;&gt;Node2</title>
<path fill="none" stroke="midnightblue" d="M1180.65,-694.37C1221.79,-674.58 1286,-634.41 1286,-576.5 1286,-576.5 1286,-576.5 1286,-121 1286,-90.77 1289.71,-74.75 1266,-56 1219.91,-19.55 836.84,-12.57 665.86,-11.27"/>
<polygon fill="midnightblue" stroke="midnightblue" points="665.68,-7.77 655.65,-11.2 665.63,-14.77 665.68,-7.77"/>
</g>
<!-- Node5 -->
<g id="node5" class="node">
<title>Node5</title>
<g id="a_node5"><a xlink:href="../../d2/d3c/Arduino-Hardware-Types_8hpp.html" target="_top" xlink:title=" ">
<polygon fill="white" stroke="black" points="891,-627.5 891,-657.5 1013,-657.5 1013,-627.5 891,-627.5"/>
<text text-anchor="start" x="899" y="-645.5" font-family="Helvetica,sans-Serif" font-size="10.00">AH/Hardware/Arduino</text>
<text text-anchor="middle" x="952" y="-634.5" font-family="Helvetica,sans-Serif" font-size="10.00">&#45;Hardware&#45;Types.hpp</text>
</a>
</g>
</g>
<!-- Node4&#45;&gt;Node5 -->
<g id="edge5" class="edge">
<title>Node4&#45;&gt;Node5</title>
<path fill="none" stroke="midnightblue" d="M1104.69,-694.4C1075.05,-684.52 1035.26,-671.25 1003.73,-660.74"/>
<polygon fill="midnightblue" stroke="midnightblue" points="1004.82,-657.42 994.23,-657.58 1002.61,-664.06 1004.82,-657.42"/>
</g>
<!-- Node11 -->
<g id="node11" class="node">
<title>Node11</title>
<g id="a_node11"><a xlink:href="../../dc/dc7/NamespaceSettings_8hpp.html" target="_top" xlink:title=" ">
<polygon fill="white" stroke="black" points="705.5,-56.5 705.5,-75.5 900.5,-75.5 900.5,-56.5 705.5,-56.5"/>
<text text-anchor="middle" x="803" y="-63.5" font-family="Helvetica,sans-Serif" font-size="10.00">AH/Settings/NamespaceSettings.hpp</text>
</a>
</g>
</g>
<!-- Node4&#45;&gt;Node11 -->
<g id="edge54" class="edge">
<title>Node4&#45;&gt;Node11</title>
<path fill="none" stroke="midnightblue" d="M1147,-694.24C1147,-670.03 1147,-619.35 1147,-576.5 1147,-576.5 1147,-576.5 1147,-401 1147,-227.65 919.35,-115.3 834.43,-79.43"/>
<polygon fill="midnightblue" stroke="midnightblue" points="835.62,-76.13 825.04,-75.53 832.93,-82.6 835.62,-76.13"/>
</g>
<!-- Node29 -->
<g id="node29" class="node">
<title>Node29</title>
<g id="a_node29"><a xlink:title=" ">
<polygon fill="white" stroke="#bfbfbf" points="1031.5,-633 1031.5,-652 1118.5,-652 1118.5,-633 1031.5,-633"/>
<text text-anchor="middle" x="1075" y="-640" font-family="Helvetica,sans-Serif" font-size="10.00">AH/STL/climits</text>
</a>
</g>
</g>
<!-- Node4&#45;&gt;Node29 -->
<g id="edge53" class="edge">
<title>Node4&#45;&gt;Node29</title>
<path fill="none" stroke="midnightblue" d="M1131.38,-694.4C1119.82,-683.96 1104.08,-669.75 1092.17,-659"/>
<polygon fill="midnightblue" stroke="midnightblue" points="1094.4,-656.3 1084.63,-652.19 1089.71,-661.49 1094.4,-656.3"/>
</g>
<!-- Node5&#45;&gt;Node2 -->
<g id="edge6" class="edge">
<title>Node5&#45;&gt;Node2</title>
<path fill="none" stroke="midnightblue" d="M968.78,-627.44C992.51,-605.89 1033,-562.2 1033,-515 1033,-515 1033,-515 1033,-345 1033,-211.96 1062.04,-135 955,-56 910.55,-23.19 761.07,-14.12 665.96,-11.72"/>
<polygon fill="midnightblue" stroke="midnightblue" points="665.86,-8.22 655.79,-11.49 665.7,-15.22 665.86,-8.22"/>
</g>
<!-- Node6 -->
<g id="node6" class="node">
<title>Node6</title>
<g id="a_node6"><a xlink:href="../../d4/d35/Hardware-Types_8hpp.html" target="_top" xlink:title=" ">
<polygon fill="white" stroke="black" points="862.5,-560.5 862.5,-590.5 993.5,-590.5 993.5,-560.5 862.5,-560.5"/>
<text text-anchor="start" x="870.5" y="-578.5" font-family="Helvetica,sans-Serif" font-size="10.00">AH/Hardware/Hardware</text>
<text text-anchor="middle" x="928" y="-567.5" font-family="Helvetica,sans-Serif" font-size="10.00">&#45;Types.hpp</text>
</a>
</g>
</g>
<!-- Node5&#45;&gt;Node6 -->
<g id="edge7" class="edge">
<title>Node5&#45;&gt;Node6</title>
<path fill="none" stroke="midnightblue" d="M946.79,-627.4C943.84,-619.39 940.06,-609.16 936.67,-599.98"/>
<polygon fill="midnightblue" stroke="midnightblue" points="939.94,-598.75 933.2,-590.58 933.38,-601.17 939.94,-598.75"/>
</g>
<!-- Node12 -->
<g id="node12" class="node">
<title>Node12</title>
<g id="a_node12"><a xlink:href="../../d6/ddf/Arduino-Wrapper_8h.html" target="_top" xlink:title=" ">
<polygon fill="white" stroke="black" points="248,-168.5 248,-187.5 372,-187.5 372,-168.5 248,-168.5"/>
<text text-anchor="middle" x="310" y="-175.5" font-family="Helvetica,sans-Serif" font-size="10.00">AH/Arduino&#45;Wrapper.h</text>
</a>
</g>
</g>
<!-- Node5&#45;&gt;Node12 -->
<g id="edge52" class="edge">
<title>Node5&#45;&gt;Node12</title>
<path fill="none" stroke="midnightblue" d="M890.89,-634.52C720.67,-614.2 245.07,-551.22 114,-468 81.42,-447.31 57.56,-427.79 72,-392 112.54,-291.55 229.79,-220.38 283.07,-192.29"/>
<polygon fill="midnightblue" stroke="midnightblue" points="284.97,-195.25 292.25,-187.55 281.76,-189.03 284.97,-195.25"/>
</g>
<!-- Node26 -->
<g id="node26" class="node">
<title>Node26</title>
<g id="a_node26"><a xlink:href="../../d0/db1/FunctionTraits_8hpp.html" target="_top" xlink:title=" ">
<polygon fill="white" stroke="black" points="1032.5,-112.5 1032.5,-131.5 1185.5,-131.5 1185.5,-112.5 1032.5,-112.5"/>
<text text-anchor="middle" x="1109" y="-119.5" font-family="Helvetica,sans-Serif" font-size="10.00">AH/Types/FunctionTraits.hpp</text>
</a>
</g>
</g>
<!-- Node5&#45;&gt;Node26 -->
<g id="edge47" class="edge">
<title>Node5&#45;&gt;Node26</title>
<path fill="none" stroke="midnightblue" d="M995.73,-627.46C1042.19,-609.48 1109,-573.46 1109,-515 1109,-515 1109,-515 1109,-233 1109,-200.95 1109,-163.64 1109,-141.75"/>
<polygon fill="midnightblue" stroke="midnightblue" points="1112.5,-141.56 1109,-131.56 1105.5,-141.56 1112.5,-141.56"/>
</g>
<!-- Node6&#45;&gt;Node2 -->
<g id="edge8" class="edge">
<title>Node6&#45;&gt;Node2</title>
<path fill="none" stroke="midnightblue" d="M935.87,-560.41C947,-539.13 966,-497.21 966,-459 966,-459 966,-459 966,-121 966,-87.76 956.59,-74.54 929,-56 887.28,-27.98 754.02,-17.37 665.85,-13.38"/>
<polygon fill="midnightblue" stroke="midnightblue" points="665.75,-9.87 655.6,-12.94 665.44,-16.87 665.75,-9.87"/>
</g>
<!-- Node7 -->
<g id="node7" class="node">
<title>Node7</title>
<g id="a_node7"><a xlink:href="../../de/d76/Array_8hpp.html" target="_top" xlink:title=" ">
<polygon fill="white" stroke="black" points="493.5,-504.5 493.5,-523.5 628.5,-523.5 628.5,-504.5 493.5,-504.5"/>
<text text-anchor="middle" x="561" y="-511.5" font-family="Helvetica,sans-Serif" font-size="10.00">AH/Containers/Array.hpp</text>
</a>
</g>
</g>
<!-- Node6&#45;&gt;Node7 -->
<g id="edge9" class="edge">
<title>Node6&#45;&gt;Node7</title>
<path fill="none" stroke="midnightblue" d="M862.39,-563.86C794.73,-552.89 689.99,-535.91 623.5,-525.13"/>
<polygon fill="midnightblue" stroke="midnightblue" points="624,-521.67 613.57,-523.52 622.88,-528.58 624,-521.67"/>
</g>
<!-- Node6&#45;&gt;Node11 -->
<g id="edge45" class="edge">
<title>Node6&#45;&gt;Node11</title>
<path fill="none" stroke="midnightblue" d="M928,-560.28C928,-538.48 928,-495.49 928,-459 928,-459 928,-459 928,-289 928,-201.78 853.83,-117.21 819.76,-82.96"/>
<polygon fill="midnightblue" stroke="midnightblue" points="821.98,-80.23 812.4,-75.71 817.07,-85.22 821.98,-80.23"/>
</g>
<!-- Node23 -->
<g id="node23" class="node">
<title>Node23</title>
<g id="a_node23"><a xlink:title=" ">
<polygon fill="white" stroke="#bfbfbf" points="616.5,-224.5 616.5,-243.5 669.5,-243.5 669.5,-224.5 616.5,-224.5"/>
<text text-anchor="middle" x="643" y="-231.5" font-family="Helvetica,sans-Serif" font-size="10.00">stdint.h</text>
</a>
</g>
</g>
<!-- Node6&#45;&gt;Node23 -->
<g id="edge46" class="edge">
<title>Node6&#45;&gt;Node23</title>
<path fill="none" stroke="midnightblue" d="M878.85,-560.36C833.78,-544.02 774,-512.31 774,-459 774,-459 774,-459 774,-345 774,-295.04 717.42,-263.23 678.63,-247.3"/>
<polygon fill="midnightblue" stroke="midnightblue" points="679.78,-244 669.19,-243.59 677.22,-250.51 679.78,-244"/>
</g>
<!-- Node7&#45;&gt;Node2 -->
<g id="edge10" class="edge">
<title>Node7&#45;&gt;Node2</title>
<path fill="none" stroke="midnightblue" d="M493.17,-511.93C385,-509.26 178.98,-500.01 114,-468 47.72,-435.35 0,-420.89 0,-347 0,-347 0,-347 0,-121 0,-78.22 31.84,-73.23 71,-56 146.12,-22.96 377.33,-14.16 502.12,-11.83"/>
<polygon fill="midnightblue" stroke="midnightblue" points="502.45,-15.33 512.38,-11.65 502.32,-8.33 502.45,-15.33"/>
</g>
<!-- Node8 -->
<g id="node8" class="node">
<title>Node8</title>
<g id="a_node8"><a xlink:href="../../d1/d93/Error_8hpp.html" target="_top" xlink:title=" ">
<polygon fill="white" stroke="black" points="442,-448.5 442,-467.5 546,-467.5 546,-448.5 442,-448.5"/>
<text text-anchor="middle" x="494" y="-455.5" font-family="Helvetica,sans-Serif" font-size="10.00">AH/Error/Error.hpp</text>
</a>
</g>
</g>
<!-- Node7&#45;&gt;Node8 -->
<g id="edge11" class="edge">
<title>Node7&#45;&gt;Node8</title>
<path fill="none" stroke="midnightblue" d="M550.24,-504.32C540.23,-496.26 525.11,-484.08 513.07,-474.37"/>
<polygon fill="midnightblue" stroke="midnightblue" points="514.94,-471.38 504.96,-467.83 510.55,-476.83 514.94,-471.38"/>
</g>
<!-- Node16 -->
<g id="node16" class="node">
<title>Node16</title>
<g id="a_node16"><a xlink:title=" ">
<polygon fill="white" stroke="#bfbfbf" points="66.5,-112.5 66.5,-131.5 173.5,-131.5 173.5,-112.5 66.5,-112.5"/>
<text text-anchor="middle" x="120" y="-119.5" font-family="Helvetica,sans-Serif" font-size="10.00">AH/STL/type_traits</text>
</a>
</g>
</g>
<!-- Node7&#45;&gt;Node16 -->
<g id="edge43" class="edge">
<title>Node7&#45;&gt;Node16</title>
<path fill="none" stroke="midnightblue" d="M493.31,-511.64C359.94,-507.12 76,-487.56 76,-403 76,-403 76,-403 76,-233 76,-198.04 95.4,-161.01 108.43,-140.07"/>
<polygon fill="midnightblue" stroke="midnightblue" points="111.39,-141.95 113.88,-131.65 105.51,-138.15 111.39,-141.95"/>
</g>
<!-- Node22 -->
<g id="node22" class="node">
<title>Node22</title>
<g id="a_node22"><a xlink:title=" ">
<polygon fill="white" stroke="#bfbfbf" points="542,-224.5 542,-243.5 598,-243.5 598,-224.5 542,-224.5"/>
<text text-anchor="middle" x="570" y="-231.5" font-family="Helvetica,sans-Serif" font-size="10.00">stddef.h</text>
</a>
</g>
</g>
<!-- Node7&#45;&gt;Node22 -->
<g id="edge44" class="edge">
<title>Node7&#45;&gt;Node22</title>
<path fill="none" stroke="midnightblue" d="M567.9,-504.36C589.5,-476.7 655.67,-387.05 678,-300 680.21,-291.39 682.93,-287.4 678,-280 669.77,-267.66 635.77,-254.75 608.09,-245.94"/>
<polygon fill="midnightblue" stroke="midnightblue" points="608.83,-242.5 598.24,-242.89 606.76,-249.19 608.83,-242.5"/>
</g>
<!-- Node25 -->
<g id="node25" class="node">
<title>Node25</title>
<g id="a_node25"><a xlink:title=" ">
<polygon fill="white" stroke="#bfbfbf" points="656,-448.5 656,-467.5 746,-467.5 746,-448.5 656,-448.5"/>
<text text-anchor="middle" x="701" y="-455.5" font-family="Helvetica,sans-Serif" font-size="10.00">AH/STL/iterator</text>
</a>
</g>
</g>
<!-- Node7&#45;&gt;Node25 -->
<g id="edge42" class="edge">
<title>Node7&#45;&gt;Node25</title>
<path fill="none" stroke="midnightblue" d="M583.18,-504.44C606.43,-495.48 643.15,-481.31 669.42,-471.18"/>
<polygon fill="midnightblue" stroke="midnightblue" points="670.85,-474.38 678.92,-467.52 668.33,-467.85 670.85,-474.38"/>
</g>
<!-- Node8&#45;&gt;Node2 -->
<g id="edge12" class="edge">
<title>Node8&#45;&gt;Node2</title>
<path fill="none" stroke="midnightblue" d="M441.96,-452.87C337.89,-443.18 114,-414.48 114,-347 114,-347 114,-347 114,-233 114,-173.55 18.83,-157.57 57,-112 115.55,-42.09 172.3,-104.26 259,-76 278.28,-69.72 280.66,-62.1 300,-56 366.36,-35.07 444.65,-23.59 502.2,-17.48"/>
<polygon fill="midnightblue" stroke="midnightblue" points="502.75,-20.94 512.34,-16.43 502.03,-13.98 502.75,-20.94"/>
</g>
<!-- Node9 -->
<g id="node9" class="node">
<title>Node9</title>
<g id="a_node9"><a xlink:href="../../df/dee/Debug_8hpp.html" target="_top" xlink:title=" ">
<polygon fill="white" stroke="black" points="433.5,-392.5 433.5,-411.5 554.5,-411.5 554.5,-392.5 433.5,-392.5"/>
<text text-anchor="middle" x="494" y="-399.5" font-family="Helvetica,sans-Serif" font-size="10.00">AH/Debug/Debug.hpp</text>
</a>
</g>
</g>
<!-- Node8&#45;&gt;Node9 -->
<g id="edge13" class="edge">
<title>Node8&#45;&gt;Node9</title>
<path fill="none" stroke="midnightblue" d="M494,-448.08C494,-441.01 494,-430.86 494,-421.99"/>
<polygon fill="midnightblue" stroke="midnightblue" points="497.5,-421.75 494,-411.75 490.5,-421.75 497.5,-421.75"/>
</g>
<!-- Node9&#45;&gt;Node2 -->
<g id="edge14" class="edge">
<title>Node9&#45;&gt;Node2</title>
<path fill="none" stroke="midnightblue" d="M433.27,-392.63C376.33,-381.49 293.11,-356.21 246,-300 208.26,-254.97 226.41,-225.38 239,-168 244.67,-142.19 241.09,-131.43 259,-112 321.35,-44.37 428.05,-21.65 502.11,-14.22"/>
<polygon fill="midnightblue" stroke="midnightblue" points="502.7,-17.68 512.34,-13.27 502.05,-10.71 502.7,-17.68"/>
</g>
<!-- Node10 -->
<g id="node10" class="node">
<title>Node10</title>
<g id="a_node10"><a xlink:href="../../dd/d80/PrintStream_8hpp.html" target="_top" xlink:title=" ">
<polygon fill="white" stroke="black" points="726.5,-224.5 726.5,-243.5 899.5,-243.5 899.5,-224.5 726.5,-224.5"/>
<text text-anchor="middle" x="813" y="-231.5" font-family="Helvetica,sans-Serif" font-size="10.00">AH/PrintStream/PrintStream.hpp</text>
</a>
</g>
</g>
<!-- Node9&#45;&gt;Node10 -->
<g id="edge15" class="edge">
<title>Node9&#45;&gt;Node10</title>
<path fill="none" stroke="midnightblue" d="M512.8,-392.41C532.54,-383.38 564.48,-368.74 592,-356 645.41,-331.28 660.47,-328.43 712,-300 740.81,-284.1 772.49,-263.1 792.55,-249.33"/>
<polygon fill="midnightblue" stroke="midnightblue" points="794.66,-252.13 800.89,-243.56 790.68,-246.37 794.66,-252.13"/>
</g>
<!-- Node17 -->
<g id="node17" class="node">
<title>Node17</title>
<g id="a_node17"><a xlink:href="../../d2/dd5/SettingsWrapper_8hpp.html" target="_top" xlink:title=" ">
<polygon fill="white" stroke="black" points="405,-336.5 405,-355.5 583,-355.5 583,-336.5 405,-336.5"/>
<text text-anchor="middle" x="494" y="-343.5" font-family="Helvetica,sans-Serif" font-size="10.00">AH/Settings/SettingsWrapper.hpp</text>
</a>
</g>
</g>
<!-- Node9&#45;&gt;Node17 -->
<g id="edge27" class="edge">
<title>Node9&#45;&gt;Node17</title>
<path fill="none" stroke="midnightblue" d="M488.83,-392.08C487.32,-384.93 486.89,-374.64 487.54,-365.69"/>
<polygon fill="midnightblue" stroke="midnightblue" points="491.02,-366.13 488.87,-355.75 484.08,-365.2 491.02,-366.13"/>
</g>
<!-- Node10&#45;&gt;Node2 -->
<g id="edge17" class="edge">
<title>Node10&#45;&gt;Node2</title>
<path fill="none" stroke="midnightblue" d="M824.36,-224.45C858.97,-197.39 957.91,-112.15 909,-56 878.08,-20.5 751.61,-12.09 665.86,-10.58"/>
<polygon fill="midnightblue" stroke="midnightblue" points="665.67,-7.07 655.62,-10.42 665.57,-14.07 665.67,-7.07"/>
</g>
<!-- Node10&#45;&gt;Node11 -->
<g id="edge16" class="edge">
<title>Node10&#45;&gt;Node11</title>
<path fill="none" stroke="midnightblue" d="M812.46,-224.08C810.89,-197.95 806.27,-121.21 804.12,-85.58"/>
<polygon fill="midnightblue" stroke="midnightblue" points="807.61,-85.34 803.52,-75.57 800.62,-85.76 807.61,-85.34"/>
</g>
<!-- Node10&#45;&gt;Node12 -->
<g id="edge18" class="edge">
<title>Node10&#45;&gt;Node12</title>
<path fill="none" stroke="midnightblue" d="M733.58,-224.47C637.11,-214.12 475.77,-196.8 382.53,-186.79"/>
<polygon fill="midnightblue" stroke="midnightblue" points="382.65,-183.28 372.34,-185.69 381.91,-190.24 382.65,-183.28"/>
</g>
<!-- Node13 -->
<g id="node13" class="node">
<title>Node13</title>
<g id="a_node13"><a xlink:href="../../d7/d79/MinMaxFix_8hpp.html" target="_top" xlink:title=" ">
<polygon fill="white" stroke="black" points="268,-112.5 268,-131.5 404,-131.5 404,-112.5 268,-112.5"/>
<text text-anchor="middle" x="336" y="-119.5" font-family="Helvetica,sans-Serif" font-size="10.00">AH/Math/MinMaxFix.hpp</text>
</a>
</g>
</g>
<!-- Node12&#45;&gt;Node13 -->
<g id="edge19" class="edge">
<title>Node12&#45;&gt;Node13</title>
<path fill="none" stroke="midnightblue" d="M314.29,-168.08C317.85,-160.69 323.02,-149.95 327.42,-140.81"/>
<polygon fill="midnightblue" stroke="midnightblue" points="330.6,-142.28 331.79,-131.75 324.29,-139.24 330.6,-142.28"/>
</g>
<!-- Node15 -->
<g id="node15" class="node">
<title>Node15</title>
<g id="a_node15"><a xlink:title=" ">
<polygon fill="white" stroke="#bfbfbf" points="77.5,-0.5 77.5,-19.5 140.5,-19.5 140.5,-0.5 77.5,-0.5"/>
<text text-anchor="middle" x="109" y="-7.5" font-family="Helvetica,sans-Serif" font-size="10.00">Arduino.h</text>
</a>
</g>
</g>
<!-- Node12&#45;&gt;Node15 -->
<g id="edge26" class="edge">
<title>Node12&#45;&gt;Node15</title>
<path fill="none" stroke="midnightblue" d="M294.99,-168.41C271.45,-155.15 224.15,-129.41 182,-112 134.07,-92.2 101.5,-117.95 71,-76 59.26,-59.85 75.05,-39.84 89.7,-26.32"/>
<polygon fill="midnightblue" stroke="midnightblue" points="92.27,-28.73 97.54,-19.54 87.69,-23.43 92.27,-28.73"/>
</g>
<!-- Node12&#45;&gt;Node16 -->
<g id="edge25" class="edge">
<title>Node12&#45;&gt;Node16</title>
<path fill="none" stroke="midnightblue" d="M279.89,-168.44C247.37,-159.2 195.42,-144.44 159.61,-134.26"/>
<polygon fill="midnightblue" stroke="midnightblue" points="160.54,-130.88 149.97,-131.52 158.63,-137.62 160.54,-130.88"/>
</g>
<!-- Node13&#45;&gt;Node2 -->
<g id="edge20" class="edge">
<title>Node13&#45;&gt;Node2</title>
<path fill="none" stroke="midnightblue" d="M344.27,-112.49C358.22,-98.64 387.84,-71.23 418,-56 450.35,-39.67 489.34,-28.71 521.4,-21.7"/>
<polygon fill="midnightblue" stroke="midnightblue" points="522.48,-25.04 531.54,-19.56 521.04,-18.2 522.48,-25.04"/>
</g>
<!-- Node13&#45;&gt;Node11 -->
<g id="edge24" class="edge">
<title>Node13&#45;&gt;Node11</title>
<path fill="none" stroke="midnightblue" d="M404.16,-113.12C487.65,-103.46 629.06,-87.11 719.13,-76.7"/>
<polygon fill="midnightblue" stroke="midnightblue" points="719.78,-80.15 729.31,-75.52 718.98,-73.19 719.78,-80.15"/>
</g>
<!-- Node14 -->
<g id="node14" class="node">
<title>Node14</title>
<g id="a_node14"><a xlink:href="../../d6/d3b/FixArduinoMacros_8hpp.html" target="_top" xlink:title=" ">
<polygon fill="white" stroke="black" points="80,-56.5 80,-75.5 250,-75.5 250,-56.5 80,-56.5"/>
<text text-anchor="middle" x="165" y="-63.5" font-family="Helvetica,sans-Serif" font-size="10.00">AH/Math/FixArduinoMacros.hpp</text>
</a>
</g>
</g>
<!-- Node13&#45;&gt;Node14 -->
<g id="edge21" class="edge">
<title>Node13&#45;&gt;Node14</title>
<path fill="none" stroke="midnightblue" d="M308.9,-112.44C280.01,-103.32 234.08,-88.81 201.89,-78.65"/>
<polygon fill="midnightblue" stroke="midnightblue" points="202.56,-75.19 191.97,-75.52 200.45,-81.87 202.56,-75.19"/>
</g>
<!-- Node14&#45;&gt;Node2 -->
<g id="edge22" class="edge">
<title>Node14&#45;&gt;Node2</title>
<path fill="none" stroke="midnightblue" d="M231.39,-56.44C306.48,-46.77 428.54,-31.04 507.55,-20.85"/>
<polygon fill="midnightblue" stroke="midnightblue" points="508.45,-24.27 517.92,-19.52 507.55,-17.32 508.45,-24.27"/>
</g>
<!-- Node14&#45;&gt;Node15 -->
<g id="edge23" class="edge">
<title>Node14&#45;&gt;Node15</title>
<path fill="none" stroke="midnightblue" d="M156,-56.32C147.81,-48.42 135.49,-36.55 125.53,-26.94"/>
<polygon fill="midnightblue" stroke="midnightblue" points="127.79,-24.26 118.16,-19.83 122.93,-29.29 127.79,-24.26"/>
</g>
<!-- Node17&#45;&gt;Node2 -->
<g id="edge28" class="edge">
<title>Node17&#45;&gt;Node2</title>
<path fill="none" stroke="midnightblue" d="M421.73,-336.47C331.78,-322.87 195.86,-290.69 247,-224 284.52,-175.06 326.65,-217.13 381,-188 459.27,-146.05 463.82,-114.07 531,-56 542.56,-46.01 555.64,-34.9 565.92,-26.22"/>
<polygon fill="midnightblue" stroke="midnightblue" points="568.41,-28.7 573.79,-19.57 563.89,-23.35 568.41,-28.7"/>
</g>
<!-- Node17&#45;&gt;Node9 -->
<g id="edge41" class="edge">
<title>Node17&#45;&gt;Node9</title>
<path fill="none" stroke="midnightblue" d="M499.13,-355.75C500.66,-362.86 501.1,-373.14 500.47,-382.1"/>
<polygon fill="midnightblue" stroke="midnightblue" points="496.99,-381.71 499.17,-392.08 503.93,-382.62 496.99,-381.71"/>
</g>
<!-- Node17&#45;&gt;Node11 -->
<g id="edge29" class="edge">
<title>Node17&#45;&gt;Node11</title>
<path fill="none" stroke="midnightblue" d="M556.1,-336.49C602.36,-328.96 660.41,-316.58 678,-300 699.99,-279.26 698,-265.23 698,-235 698,-235 698,-235 698,-177 698,-132.02 744.51,-98.19 775.62,-80.59"/>
<polygon fill="midnightblue" stroke="midnightblue" points="777.59,-83.5 784.71,-75.65 774.25,-77.35 777.59,-83.5"/>
</g>
<!-- Node18 -->
<g id="node18" class="node">
<title>Node18</title>
<g id="a_node18"><a xlink:href="../../db/d02/Settings_8hpp.html" target="_top" xlink:title="All user settings and debugging options can be changed here.">
<polygon fill="white" stroke="black" points="401.5,-280.5 401.5,-299.5 478.5,-299.5 478.5,-280.5 401.5,-280.5"/>
<text text-anchor="middle" x="440" y="-287.5" font-family="Helvetica,sans-Serif" font-size="10.00">Settings.hpp</text>
</a>
</g>
</g>
<!-- Node17&#45;&gt;Node18 -->
<g id="edge30" class="edge">
<title>Node17&#45;&gt;Node18</title>
<path fill="none" stroke="midnightblue" d="M485.08,-336.08C477.22,-328.22 465.57,-316.57 456.08,-307.08"/>
<polygon fill="midnightblue" stroke="midnightblue" points="458.3,-304.35 448.75,-299.75 453.35,-309.3 458.3,-304.35"/>
</g>
<!-- Node24 -->
<g id="node24" class="node">
<title>Node24</title>
<g id="a_node24"><a xlink:href="../../d9/d98/TeensyUSBTypes_8hpp.html" target="_top" xlink:title=" ">
<polygon fill="white" stroke="black" points="496.5,-280.5 496.5,-299.5 669.5,-299.5 669.5,-280.5 496.5,-280.5"/>
<text text-anchor="middle" x="583" y="-287.5" font-family="Helvetica,sans-Serif" font-size="10.00">AH/Teensy/TeensyUSBTypes.hpp</text>
</a>
</g>
</g>
<!-- Node17&#45;&gt;Node24 -->
<g id="edge40" class="edge">
<title>Node17&#45;&gt;Node24</title>
<path fill="none" stroke="midnightblue" d="M508.3,-336.32C522.18,-327.9 543.49,-314.97 559.8,-305.07"/>
<polygon fill="midnightblue" stroke="midnightblue" points="562,-307.83 568.74,-299.65 558.37,-301.85 562,-307.83"/>
</g>
<!-- Node19 -->
<g id="node19" class="node">
<title>Node19</title>
<g id="a_node19"><a xlink:href="../../dc/d50/Frequency_8hpp.html" target="_top" xlink:title=" ">
<polygon fill="white" stroke="black" points="517,-112.5 517,-131.5 651,-131.5 651,-112.5 517,-112.5"/>
<text text-anchor="middle" x="584" y="-119.5" font-family="Helvetica,sans-Serif" font-size="10.00">AH/Types/Frequency.hpp</text>
</a>
</g>
</g>
<!-- Node18&#45;&gt;Node19 -->
<g id="edge31" class="edge">
<title>Node18&#45;&gt;Node19</title>
<path fill="none" stroke="midnightblue" d="M441.2,-280.32C443.36,-267.17 448.85,-241.84 461,-224 487.27,-185.43 532.42,-153.79 560.1,-136.72"/>
<polygon fill="midnightblue" stroke="midnightblue" points="562,-139.66 568.76,-131.5 558.39,-133.66 562,-139.66"/>
</g>
<!-- Node20 -->
<g id="node20" class="node">
<title>Node20</title>
<g id="a_node20"><a xlink:href="../../d7/d7c/ADCConfig_8hpp.html" target="_top" xlink:title="This file contains the platform&#45;specific ADC resolutions.">
<polygon fill="white" stroke="black" points="256.5,-224.5 256.5,-243.5 413.5,-243.5 413.5,-224.5 256.5,-224.5"/>
<text text-anchor="middle" x="335" y="-231.5" font-family="Helvetica,sans-Serif" font-size="10.00">AH/Hardware/ADCConfig.hpp</text>
</a>
</g>
</g>
<!-- Node18&#45;&gt;Node20 -->
<g id="edge34" class="edge">
<title>Node18&#45;&gt;Node20</title>
<path fill="none" stroke="midnightblue" d="M423.13,-280.32C406.29,-271.66 380.19,-258.24 360.76,-248.25"/>
<polygon fill="midnightblue" stroke="midnightblue" points="362.32,-245.12 351.83,-243.65 359.12,-251.34 362.32,-245.12"/>
</g>
<!-- Node21 -->
<g id="node21" class="node">
<title>Node21</title>
<g id="a_node21"><a xlink:title=" ">
<polygon fill="white" stroke="#bfbfbf" points="470.5,-224.5 470.5,-243.5 523.5,-243.5 523.5,-224.5 470.5,-224.5"/>
<text text-anchor="middle" x="497" y="-231.5" font-family="Helvetica,sans-Serif" font-size="10.00">limits.h</text>
</a>
</g>
</g>
<!-- Node18&#45;&gt;Node21 -->
<g id="edge37" class="edge">
<title>Node18&#45;&gt;Node21</title>
<path fill="none" stroke="midnightblue" d="M449.16,-280.32C457.5,-272.42 470.03,-260.55 480.18,-250.94"/>
<polygon fill="midnightblue" stroke="midnightblue" points="482.82,-253.25 487.68,-243.83 478.01,-248.17 482.82,-253.25"/>
</g>
<!-- Node18&#45;&gt;Node22 -->
<g id="edge38" class="edge">
<title>Node18&#45;&gt;Node22</title>
<path fill="none" stroke="midnightblue" d="M460.6,-280.44C481.99,-271.56 515.68,-257.56 540.02,-247.45"/>
<polygon fill="midnightblue" stroke="midnightblue" points="541.61,-250.58 549.5,-243.52 538.92,-244.12 541.61,-250.58"/>
</g>
<!-- Node18&#45;&gt;Node23 -->
<g id="edge39" class="edge">
<title>Node18&#45;&gt;Node23</title>
<path fill="none" stroke="midnightblue" d="M472.17,-280.44C508.8,-270.7 568.53,-254.81 606.78,-244.64"/>
<polygon fill="midnightblue" stroke="midnightblue" points="607.72,-248.01 616.48,-242.05 605.92,-241.24 607.72,-248.01"/>
</g>
<!-- Node19&#45;&gt;Node2 -->
<g id="edge32" class="edge">
<title>Node19&#45;&gt;Node2</title>
<path fill="none" stroke="midnightblue" d="M584,-112.37C584,-94.62 584,-53.67 584,-29.6"/>
<polygon fill="midnightblue" stroke="midnightblue" points="587.5,-29.59 584,-19.59 580.5,-29.59 587.5,-29.59"/>
</g>
<!-- Node19&#45;&gt;Node11 -->
<g id="edge33" class="edge">
<title>Node19&#45;&gt;Node11</title>
<path fill="none" stroke="midnightblue" d="M618.7,-112.44C656.58,-103.1 717.35,-88.12 758.66,-77.93"/>
<polygon fill="midnightblue" stroke="midnightblue" points="759.59,-81.31 768.46,-75.52 757.91,-74.51 759.59,-81.31"/>
</g>
<!-- Node20&#45;&gt;Node2 -->
<g id="edge35" class="edge">
<title>Node20&#45;&gt;Node2</title>
<path fill="none" stroke="midnightblue" d="M356.61,-224.38C375.01,-216.46 401.61,-203.61 422,-188 486.39,-138.69 546.54,-62.01 571.66,-28.11"/>
<polygon fill="midnightblue" stroke="midnightblue" points="574.7,-29.87 577.79,-19.74 569.05,-25.74 574.7,-29.87"/>
</g>
<!-- Node20&#45;&gt;Node12 -->
<g id="edge36" class="edge">
<title>Node20&#45;&gt;Node12</title>
<path fill="none" stroke="midnightblue" d="M330.87,-224.08C327.49,-216.77 322.58,-206.18 318.38,-197.1"/>
<polygon fill="midnightblue" stroke="midnightblue" points="321.43,-195.36 314.05,-187.75 315.08,-198.3 321.43,-195.36"/>
</g>
<!-- Node26&#45;&gt;Node2 -->
<g id="edge50" class="edge">
<title>Node26&#45;&gt;Node2</title>
<path fill="none" stroke="midnightblue" d="M1100.37,-112.41C1085.21,-97.92 1052.14,-68.92 1018,-56 955.54,-32.36 773.26,-19.94 665.82,-14.5"/>
<polygon fill="midnightblue" stroke="midnightblue" points="665.83,-10.99 655.67,-13.99 665.48,-17.98 665.83,-10.99"/>
</g>
<!-- Node26&#45;&gt;Node11 -->
<g id="edge51" class="edge">
<title>Node26&#45;&gt;Node11</title>
<path fill="none" stroke="midnightblue" d="M1060.51,-112.44C1006.46,-102.9 919.07,-87.48 861.33,-77.29"/>
<polygon fill="midnightblue" stroke="midnightblue" points="861.72,-73.81 851.26,-75.52 860.5,-80.7 861.72,-73.81"/>
</g>
<!-- Node27 -->
<g id="node27" class="node">
<title>Node27</title>
<g id="a_node27"><a xlink:title=" ">
<polygon fill="white" stroke="#bfbfbf" points="1070,-56.5 1070,-75.5 1160,-75.5 1160,-56.5 1070,-56.5"/>
<text text-anchor="middle" x="1115" y="-63.5" font-family="Helvetica,sans-Serif" font-size="10.00">AH/STL/cstddef</text>
</a>
</g>
</g>
<!-- Node26&#45;&gt;Node27 -->
<g id="edge48" class="edge">
<title>Node26&#45;&gt;Node27</title>
<path fill="none" stroke="midnightblue" d="M1109.99,-112.08C1110.79,-104.93 1111.93,-94.64 1112.92,-85.69"/>
<polygon fill="midnightblue" stroke="midnightblue" points="1116.4,-86.08 1114.03,-75.75 1109.44,-85.3 1116.4,-86.08"/>
</g>
<!-- Node28 -->
<g id="node28" class="node">
<title>Node28</title>
<g id="a_node28"><a xlink:title=" ">
<polygon fill="white" stroke="#bfbfbf" points="1178.5,-56.5 1178.5,-75.5 1257.5,-75.5 1257.5,-56.5 1178.5,-56.5"/>
<text text-anchor="middle" x="1218" y="-63.5" font-family="Helvetica,sans-Serif" font-size="10.00">AH/STL/tuple</text>
</a>
</g>
</g>
<!-- Node26&#45;&gt;Node28 -->
<g id="edge49" class="edge">
<title>Node26&#45;&gt;Node28</title>
<path fill="none" stroke="midnightblue" d="M1126.51,-112.32C1144.07,-103.62 1171.33,-90.12 1191.53,-80.11"/>
<polygon fill="midnightblue" stroke="midnightblue" points="1193.12,-83.23 1200.53,-75.65 1190.02,-76.96 1193.12,-83.23"/>
</g>
</g>
</svg>
