<?xml version="1.0" encoding="UTF-8" standalone="no"?>
<!DOCTYPE svg PUBLIC "-//W3C//DTD SVG 1.1//EN"
 "http://www.w3.org/Graphics/SVG/1.1/DTD/svg11.dtd">
<!-- Generated by graphviz version 2.43.0 (0)
 -->
<!-- Title: BiQuadFilterDF1&lt; T &gt; Pages: 1 -->
<svg width="157pt" height="226pt"
 viewBox="0.00 0.00 157.00 226.00" xmlns="http://www.w3.org/2000/svg" xmlns:xlink="http://www.w3.org/1999/xlink">
<g id="graph0" class="graph" transform="scale(1 1) rotate(0) translate(4 222)">
<title>BiQuadFilterDF1&lt; T &gt;</title>
<polygon fill="white" stroke="transparent" points="-4,4 -4,-222 153,-222 153,4 -4,4"/>
<!-- Node1 -->
<g id="node1" class="node">
<title>Node1</title>
<g id="a_node1"><a xlink:title="Generic BiQuad (Bi&#45;Quadratic) filter class, Direct Form 1 implementation.">
<polygon fill="#bfbfbf" stroke="black" points="12,-0.5 12,-112.5 137,-112.5 137,-0.5 12,-0.5"/>
<text text-anchor="middle" x="74.5" y="-100.5" font-family="Helvetica,sans-Serif" font-size="10.00">BiQuadFilterDF1&lt; T &gt;</text>
<polyline fill="none" stroke="black" points="12,-93.5 137,-93.5 "/>
<text text-anchor="middle" x="74.5" y="-81.5" font-family="Helvetica,sans-Serif" font-size="10.00"> </text>
<polyline fill="none" stroke="black" points="12,-74.5 137,-74.5 "/>
<text text-anchor="start" x="20" y="-62.5" font-family="Helvetica,sans-Serif" font-size="10.00">+ BiQuadFilterDF1()</text>
<text text-anchor="start" x="20" y="-51.5" font-family="Helvetica,sans-Serif" font-size="10.00">+ BiQuadFilterDF1()</text>
<text text-anchor="start" x="20" y="-40.5" font-family="Helvetica,sans-Serif" font-size="10.00">+ BiQuadFilterDF1()</text>
<text text-anchor="start" x="20" y="-29.5" font-family="Helvetica,sans-Serif" font-size="10.00">+ BiQuadFilterDF1()</text>
<text text-anchor="start" x="20" y="-18.5" font-family="Helvetica,sans-Serif" font-size="10.00">+ BiQuadFilterDF1()</text>
<text text-anchor="start" x="20" y="-7.5" font-family="Helvetica,sans-Serif" font-size="10.00">+ operator()()</text>
</a>
</g>
</g>
<!-- Node2 -->
<g id="node2" class="node">
<title>Node2</title>
<g id="a_node2"><a xlink:title=" ">
<polygon fill="white" stroke="black" points="0,-149.5 0,-217.5 149,-217.5 149,-149.5 0,-149.5"/>
<text text-anchor="start" x="8" y="-205.5" font-family="Helvetica,sans-Serif" font-size="10.00">BiQuadDF1Implementation</text>
<text text-anchor="middle" x="74.5" y="-194.5" font-family="Helvetica,sans-Serif" font-size="10.00">&lt; float &gt;</text>
<polyline fill="none" stroke="black" points="0,-187.5 149,-187.5 "/>
<text text-anchor="middle" x="74.5" y="-175.5" font-family="Helvetica,sans-Serif" font-size="10.00"> </text>
<polyline fill="none" stroke="black" points="0,-168.5 149,-168.5 "/>
<text text-anchor="middle" x="74.5" y="-156.5" font-family="Helvetica,sans-Serif" font-size="10.00"> </text>
</a>
</g>
</g>
<!-- Node2&#45;&gt;Node1 -->
<g id="edge1" class="edge">
<title>Node2&#45;&gt;Node1</title>
<path fill="none" stroke="midnightblue" d="M74.5,-139.18C74.5,-130.6 74.5,-121.49 74.5,-112.59"/>
<polygon fill="none" stroke="midnightblue" points="71,-139.33 74.5,-149.33 78,-139.33 71,-139.33"/>
</g>
</g>
</svg>
