<?xml version="1.0" encoding="UTF-8" standalone="no"?>
<!DOCTYPE svg PUBLIC "-//W3C//DTD SVG 1.1//EN"
 "http://www.w3.org/Graphics/SVG/1.1/DTD/svg11.dtd">
<!-- Generated by graphviz version 2.43.0 (0)
 -->
<!-- Title: LEDs.hpp Pages: 1 -->
<svg width="1338pt" height="789pt"
 viewBox="0.00 0.00 1337.50 789.00" xmlns="http://www.w3.org/2000/svg" xmlns:xlink="http://www.w3.org/1999/xlink">
<g id="graph0" class="graph" transform="scale(1 1) rotate(0) translate(4 785)">
<title>LEDs.hpp</title>
<polygon fill="white" stroke="transparent" points="-4,4 -4,-785 1333.5,-785 1333.5,4 -4,4"/>
<!-- Node1 -->
<g id="node1" class="node">
<title>Node1</title>
<g id="a_node1"><a xlink:title=" ">
<polygon fill="#bfbfbf" stroke="black" points="461,-761.5 461,-780.5 523,-780.5 523,-761.5 461,-761.5"/>
<text text-anchor="middle" x="492" y="-768.5" font-family="Helvetica,sans-Serif" font-size="10.00">LEDs.hpp</text>
</a>
</g>
</g>
<!-- Node2 -->
<g id="node2" class="node">
<title>Node2</title>
<g id="a_node2"><a xlink:href="../../d1/d65/Warnings_8hpp.html" target="_top" xlink:title=" ">
<polygon fill="white" stroke="black" points="175.5,-0.5 175.5,-19.5 318.5,-19.5 318.5,-0.5 175.5,-0.5"/>
<text text-anchor="middle" x="247" y="-7.5" font-family="Helvetica,sans-Serif" font-size="10.00">AH/Settings/Warnings.hpp</text>
</a>
</g>
</g>
<!-- Node1&#45;&gt;Node2 -->
<g id="edge1" class="edge">
<title>Node1&#45;&gt;Node2</title>
<path fill="none" stroke="midnightblue" d="M460.85,-768.73C352.7,-763.49 0,-739.08 0,-643.5 0,-643.5 0,-643.5 0,-121 0,-47.14 93.31,-22.52 165.23,-14.51"/>
<polygon fill="midnightblue" stroke="midnightblue" points="165.63,-17.99 175.23,-13.49 164.92,-11.02 165.63,-17.99"/>
</g>
<!-- Node3 -->
<g id="node3" class="node">
<title>Node3</title>
<g id="a_node3"><a xlink:href="../../dd/ddf/ExtendedInputOutput_8hpp.html" target="_top" xlink:title=" ">
<polygon fill="white" stroke="black" points="967.5,-694.5 967.5,-724.5 1144.5,-724.5 1144.5,-694.5 967.5,-694.5"/>
<text text-anchor="start" x="975.5" y="-712.5" font-family="Helvetica,sans-Serif" font-size="10.00">AH/Hardware/ExtendedInput</text>
<text text-anchor="middle" x="1056" y="-701.5" font-family="Helvetica,sans-Serif" font-size="10.00">Output/ExtendedInputOutput.hpp</text>
</a>
</g>
</g>
<!-- Node1&#45;&gt;Node3 -->
<g id="edge2" class="edge">
<title>Node1&#45;&gt;Node3</title>
<path fill="none" stroke="midnightblue" d="M523.13,-766.72C604.66,-758.12 827.12,-734.65 957.39,-720.9"/>
<polygon fill="midnightblue" stroke="midnightblue" points="957.8,-724.38 967.38,-719.85 957.07,-717.42 957.8,-724.38"/>
</g>
<!-- Node3&#45;&gt;Node2 -->
<g id="edge53" class="edge">
<title>Node3&#45;&gt;Node2</title>
<path fill="none" stroke="midnightblue" d="M967.44,-706.26C719.77,-698.81 38,-669.84 38,-576.5 38,-576.5 38,-576.5 38,-121 38,-60.82 106.69,-33.49 165.31,-21.12"/>
<polygon fill="midnightblue" stroke="midnightblue" points="166.24,-24.51 175.37,-19.12 164.88,-17.64 166.24,-24.51"/>
</g>
<!-- Node4 -->
<g id="node4" class="node">
<title>Node4</title>
<g id="a_node4"><a xlink:href="../../d2/d3c/Arduino-Hardware-Types_8hpp.html" target="_top" xlink:title=" ">
<polygon fill="white" stroke="black" points="995,-627.5 995,-657.5 1117,-657.5 1117,-627.5 995,-627.5"/>
<text text-anchor="start" x="1003" y="-645.5" font-family="Helvetica,sans-Serif" font-size="10.00">AH/Hardware/Arduino</text>
<text text-anchor="middle" x="1056" y="-634.5" font-family="Helvetica,sans-Serif" font-size="10.00">&#45;Hardware&#45;Types.hpp</text>
</a>
</g>
</g>
<!-- Node3&#45;&gt;Node4 -->
<g id="edge3" class="edge">
<title>Node3&#45;&gt;Node4</title>
<path fill="none" stroke="midnightblue" d="M1056,-694.4C1056,-686.64 1056,-676.81 1056,-667.86"/>
<polygon fill="midnightblue" stroke="midnightblue" points="1059.5,-667.58 1056,-657.58 1052.5,-667.58 1059.5,-667.58"/>
</g>
<!-- Node10 -->
<g id="node10" class="node">
<title>Node10</title>
<g id="a_node10"><a xlink:href="../../dc/dc7/NamespaceSettings_8hpp.html" target="_top" xlink:title=" ">
<polygon fill="white" stroke="black" points="657.5,-56.5 657.5,-75.5 852.5,-75.5 852.5,-56.5 657.5,-56.5"/>
<text text-anchor="middle" x="755" y="-63.5" font-family="Helvetica,sans-Serif" font-size="10.00">AH/Settings/NamespaceSettings.hpp</text>
</a>
</g>
</g>
<!-- Node3&#45;&gt;Node10 -->
<g id="edge52" class="edge">
<title>Node3&#45;&gt;Node10</title>
<path fill="none" stroke="midnightblue" d="M1086.15,-694.47C1124.55,-674.27 1186,-633.11 1186,-576.5 1186,-576.5 1186,-576.5 1186,-233 1186,-126.82 1079.22,-149.83 980,-112 935.12,-94.89 882.6,-83.91 839.59,-77.09"/>
<polygon fill="midnightblue" stroke="midnightblue" points="839.86,-73.59 829.44,-75.53 838.79,-80.51 839.86,-73.59"/>
</g>
<!-- Node28 -->
<g id="node28" class="node">
<title>Node28</title>
<g id="a_node28"><a xlink:title=" ">
<polygon fill="white" stroke="#bfbfbf" points="1214.5,-633 1214.5,-652 1301.5,-652 1301.5,-633 1214.5,-633"/>
<text text-anchor="middle" x="1258" y="-640" font-family="Helvetica,sans-Serif" font-size="10.00">AH/STL/climits</text>
</a>
</g>
</g>
<!-- Node3&#45;&gt;Node28 -->
<g id="edge51" class="edge">
<title>Node3&#45;&gt;Node28</title>
<path fill="none" stroke="midnightblue" d="M1099.83,-694.4C1136.37,-682.64 1187.8,-666.09 1221.98,-655.09"/>
<polygon fill="midnightblue" stroke="midnightblue" points="1223.12,-658.4 1231.56,-652.01 1220.97,-651.74 1223.12,-658.4"/>
</g>
<!-- Node4&#45;&gt;Node2 -->
<g id="edge4" class="edge">
<title>Node4&#45;&gt;Node2</title>
<path fill="none" stroke="midnightblue" d="M994.7,-640.07C780.15,-634.25 76,-608.07 76,-515 76,-515 76,-515 76,-121 76,-64.74 142.28,-35.9 192.31,-22.14"/>
<polygon fill="midnightblue" stroke="midnightblue" points="193.28,-25.5 202.07,-19.58 191.51,-18.73 193.28,-25.5"/>
</g>
<!-- Node5 -->
<g id="node5" class="node">
<title>Node5</title>
<g id="a_node5"><a xlink:href="../../d4/d35/Hardware-Types_8hpp.html" target="_top" xlink:title=" ">
<polygon fill="white" stroke="black" points="950.5,-560.5 950.5,-590.5 1081.5,-590.5 1081.5,-560.5 950.5,-560.5"/>
<text text-anchor="start" x="958.5" y="-578.5" font-family="Helvetica,sans-Serif" font-size="10.00">AH/Hardware/Hardware</text>
<text text-anchor="middle" x="1016" y="-567.5" font-family="Helvetica,sans-Serif" font-size="10.00">&#45;Types.hpp</text>
</a>
</g>
</g>
<!-- Node4&#45;&gt;Node5 -->
<g id="edge5" class="edge">
<title>Node4&#45;&gt;Node5</title>
<path fill="none" stroke="midnightblue" d="M1047.32,-627.4C1042.24,-619.13 1035.7,-608.51 1029.91,-599.1"/>
<polygon fill="midnightblue" stroke="midnightblue" points="1032.88,-597.26 1024.66,-590.58 1026.92,-600.93 1032.88,-597.26"/>
</g>
<!-- Node11 -->
<g id="node11" class="node">
<title>Node11</title>
<g id="a_node11"><a xlink:href="../../d6/ddf/Arduino-Wrapper_8h.html" target="_top" xlink:title=" ">
<polygon fill="white" stroke="black" points="460,-168.5 460,-187.5 584,-187.5 584,-168.5 460,-168.5"/>
<text text-anchor="middle" x="522" y="-175.5" font-family="Helvetica,sans-Serif" font-size="10.00">AH/Arduino&#45;Wrapper.h</text>
</a>
</g>
</g>
<!-- Node4&#45;&gt;Node11 -->
<g id="edge50" class="edge">
<title>Node4&#45;&gt;Node11</title>
<path fill="none" stroke="midnightblue" d="M1067.5,-627.25C1074.85,-617.53 1084.07,-604.1 1090,-591 1104.4,-559.18 1110,-549.93 1110,-515 1110,-515 1110,-515 1110,-289 1110,-222.81 1039.7,-241.99 976,-224 844.99,-187 685.25,-179.4 594.41,-178.4"/>
<polygon fill="midnightblue" stroke="midnightblue" points="594.25,-174.9 584.22,-178.31 594.19,-181.9 594.25,-174.9"/>
</g>
<!-- Node25 -->
<g id="node25" class="node">
<title>Node25</title>
<g id="a_node25"><a xlink:href="../../d0/db1/FunctionTraits_8hpp.html" target="_top" xlink:title=" ">
<polygon fill="white" stroke="black" points="1162.5,-112.5 1162.5,-131.5 1315.5,-131.5 1315.5,-112.5 1162.5,-112.5"/>
<text text-anchor="middle" x="1239" y="-119.5" font-family="Helvetica,sans-Serif" font-size="10.00">AH/Types/FunctionTraits.hpp</text>
</a>
</g>
</g>
<!-- Node4&#45;&gt;Node25 -->
<g id="edge45" class="edge">
<title>Node4&#45;&gt;Node25</title>
<path fill="none" stroke="midnightblue" d="M1075.96,-627.24C1103.02,-606.09 1148,-563.61 1148,-515 1148,-515 1148,-515 1148,-233 1148,-190.47 1188.89,-155.53 1215.85,-137.12"/>
<polygon fill="midnightblue" stroke="midnightblue" points="1217.94,-139.93 1224.38,-131.52 1214.1,-134.08 1217.94,-139.93"/>
</g>
<!-- Node5&#45;&gt;Node2 -->
<g id="edge6" class="edge">
<title>Node5&#45;&gt;Node2</title>
<path fill="none" stroke="midnightblue" d="M950.4,-572.99C742.84,-567.37 114,-543.36 114,-459 114,-459 114,-459 114,-121 114,-70.73 171.13,-39.1 210.5,-23.27"/>
<polygon fill="midnightblue" stroke="midnightblue" points="212.01,-26.45 220.09,-19.59 209.5,-19.91 212.01,-26.45"/>
</g>
<!-- Node6 -->
<g id="node6" class="node">
<title>Node6</title>
<g id="a_node6"><a xlink:href="../../de/d76/Array_8hpp.html" target="_top" xlink:title=" ">
<polygon fill="white" stroke="black" points="801.5,-504.5 801.5,-523.5 936.5,-523.5 936.5,-504.5 801.5,-504.5"/>
<text text-anchor="middle" x="869" y="-511.5" font-family="Helvetica,sans-Serif" font-size="10.00">AH/Containers/Array.hpp</text>
</a>
</g>
</g>
<!-- Node5&#45;&gt;Node6 -->
<g id="edge7" class="edge">
<title>Node5&#45;&gt;Node6</title>
<path fill="none" stroke="midnightblue" d="M981.16,-560.4C956.5,-550.42 923.71,-537.15 899.97,-527.53"/>
<polygon fill="midnightblue" stroke="midnightblue" points="900.97,-524.17 890.39,-523.66 898.35,-530.65 900.97,-524.17"/>
</g>
<!-- Node5&#45;&gt;Node10 -->
<g id="edge43" class="edge">
<title>Node5&#45;&gt;Node10</title>
<path fill="none" stroke="midnightblue" d="M1019.64,-560.39C1024.9,-538.73 1034,-495.94 1034,-459 1034,-459 1034,-459 1034,-177 1034,-129.82 894.15,-94.31 812.47,-77.59"/>
<polygon fill="midnightblue" stroke="midnightblue" points="812.82,-74.09 802.33,-75.55 811.44,-80.95 812.82,-74.09"/>
</g>
<!-- Node22 -->
<g id="node22" class="node">
<title>Node22</title>
<g id="a_node22"><a xlink:title=" ">
<polygon fill="white" stroke="#bfbfbf" points="914.5,-224.5 914.5,-243.5 967.5,-243.5 967.5,-224.5 914.5,-224.5"/>
<text text-anchor="middle" x="941" y="-231.5" font-family="Helvetica,sans-Serif" font-size="10.00">stdint.h</text>
</a>
</g>
</g>
<!-- Node5&#45;&gt;Node22 -->
<g id="edge44" class="edge">
<title>Node5&#45;&gt;Node22</title>
<path fill="none" stroke="midnightblue" d="M1028.15,-560.26C1044.62,-539.46 1072,-498.89 1072,-459 1072,-459 1072,-459 1072,-345 1072,-295.04 1015.42,-263.23 976.63,-247.3"/>
<polygon fill="midnightblue" stroke="midnightblue" points="977.78,-244 967.19,-243.59 975.22,-250.51 977.78,-244"/>
</g>
<!-- Node6&#45;&gt;Node2 -->
<g id="edge8" class="edge">
<title>Node6&#45;&gt;Node2</title>
<path fill="none" stroke="midnightblue" d="M801.22,-509.67C622.49,-499.98 152,-468.29 152,-403 152,-403 152,-403 152,-121 152,-77.74 194.61,-43.09 222.75,-24.91"/>
<polygon fill="midnightblue" stroke="midnightblue" points="224.66,-27.85 231.31,-19.6 220.97,-21.9 224.66,-27.85"/>
</g>
<!-- Node7 -->
<g id="node7" class="node">
<title>Node7</title>
<g id="a_node7"><a xlink:href="../../d1/d93/Error_8hpp.html" target="_top" xlink:title=" ">
<polygon fill="white" stroke="black" points="389,-448.5 389,-467.5 493,-467.5 493,-448.5 389,-448.5"/>
<text text-anchor="middle" x="441" y="-455.5" font-family="Helvetica,sans-Serif" font-size="10.00">AH/Error/Error.hpp</text>
</a>
</g>
</g>
<!-- Node6&#45;&gt;Node7 -->
<g id="edge9" class="edge">
<title>Node6&#45;&gt;Node7</title>
<path fill="none" stroke="midnightblue" d="M801.18,-504.44C719.3,-494.11 582.71,-476.88 503.35,-466.87"/>
<polygon fill="midnightblue" stroke="midnightblue" points="503.38,-463.34 493.02,-465.56 502.5,-470.29 503.38,-463.34"/>
</g>
<!-- Node15 -->
<g id="node15" class="node">
<title>Node15</title>
<g id="a_node15"><a xlink:title=" ">
<polygon fill="white" stroke="#bfbfbf" points="524.5,-112.5 524.5,-131.5 631.5,-131.5 631.5,-112.5 524.5,-112.5"/>
<text text-anchor="middle" x="578" y="-119.5" font-family="Helvetica,sans-Serif" font-size="10.00">AH/STL/type_traits</text>
</a>
</g>
</g>
<!-- Node6&#45;&gt;Node15 -->
<g id="edge41" class="edge">
<title>Node6&#45;&gt;Node15</title>
<path fill="none" stroke="midnightblue" d="M866.75,-504.5C861.83,-484.33 851.57,-432.28 865,-392 893.3,-307.1 1030.95,-294.64 976,-224 935.27,-171.64 743.41,-142.03 641.69,-129.77"/>
<polygon fill="midnightblue" stroke="midnightblue" points="641.88,-126.26 631.54,-128.56 641.06,-133.22 641.88,-126.26"/>
</g>
<!-- Node21 -->
<g id="node21" class="node">
<title>Node21</title>
<g id="a_node21"><a xlink:title=" ">
<polygon fill="white" stroke="#bfbfbf" points="840,-224.5 840,-243.5 896,-243.5 896,-224.5 840,-224.5"/>
<text text-anchor="middle" x="868" y="-231.5" font-family="Helvetica,sans-Serif" font-size="10.00">stddef.h</text>
</a>
</g>
</g>
<!-- Node6&#45;&gt;Node21 -->
<g id="edge42" class="edge">
<title>Node6&#45;&gt;Node21</title>
<path fill="none" stroke="midnightblue" d="M868.97,-504.38C868.83,-465.78 868.26,-308.45 868.07,-253.81"/>
<polygon fill="midnightblue" stroke="midnightblue" points="871.57,-253.51 868.03,-243.52 864.57,-253.54 871.57,-253.51"/>
</g>
<!-- Node24 -->
<g id="node24" class="node">
<title>Node24</title>
<g id="a_node24"><a xlink:title=" ">
<polygon fill="white" stroke="#bfbfbf" points="916,-448.5 916,-467.5 1006,-467.5 1006,-448.5 916,-448.5"/>
<text text-anchor="middle" x="961" y="-455.5" font-family="Helvetica,sans-Serif" font-size="10.00">AH/STL/iterator</text>
</a>
</g>
</g>
<!-- Node6&#45;&gt;Node24 -->
<g id="edge40" class="edge">
<title>Node6&#45;&gt;Node24</title>
<path fill="none" stroke="midnightblue" d="M883.78,-504.32C898.27,-495.82 920.57,-482.73 937.49,-472.8"/>
<polygon fill="midnightblue" stroke="midnightblue" points="939.4,-475.74 946.26,-467.65 935.86,-469.7 939.4,-475.74"/>
</g>
<!-- Node7&#45;&gt;Node2 -->
<g id="edge10" class="edge">
<title>Node7&#45;&gt;Node2</title>
<path fill="none" stroke="midnightblue" d="M388.99,-456.38C315.47,-452.45 190,-433.12 190,-347 190,-347 190,-347 190,-121 190,-84.3 215.32,-47.66 232.21,-27.3"/>
<polygon fill="midnightblue" stroke="midnightblue" points="234.95,-29.48 238.83,-19.62 229.65,-24.9 234.95,-29.48"/>
</g>
<!-- Node8 -->
<g id="node8" class="node">
<title>Node8</title>
<g id="a_node8"><a xlink:href="../../df/dee/Debug_8hpp.html" target="_top" xlink:title=" ">
<polygon fill="white" stroke="black" points="380.5,-392.5 380.5,-411.5 501.5,-411.5 501.5,-392.5 380.5,-392.5"/>
<text text-anchor="middle" x="441" y="-399.5" font-family="Helvetica,sans-Serif" font-size="10.00">AH/Debug/Debug.hpp</text>
</a>
</g>
</g>
<!-- Node7&#45;&gt;Node8 -->
<g id="edge11" class="edge">
<title>Node7&#45;&gt;Node8</title>
<path fill="none" stroke="midnightblue" d="M441,-448.08C441,-441.01 441,-430.86 441,-421.99"/>
<polygon fill="midnightblue" stroke="midnightblue" points="444.5,-421.75 441,-411.75 437.5,-421.75 444.5,-421.75"/>
</g>
<!-- Node8&#45;&gt;Node2 -->
<g id="edge12" class="edge">
<title>Node8&#45;&gt;Node2</title>
<path fill="none" stroke="midnightblue" d="M380.25,-395.35C317.29,-385.75 228,-359.98 228,-291 228,-291 228,-291 228,-121 228,-88.49 236.16,-51.35 241.78,-29.61"/>
<polygon fill="midnightblue" stroke="midnightblue" points="245.22,-30.32 244.44,-19.75 238.46,-28.5 245.22,-30.32"/>
</g>
<!-- Node9 -->
<g id="node9" class="node">
<title>Node9</title>
<g id="a_node9"><a xlink:href="../../dd/d80/PrintStream_8hpp.html" target="_top" xlink:title=" ">
<polygon fill="white" stroke="black" points="287.5,-224.5 287.5,-243.5 460.5,-243.5 460.5,-224.5 287.5,-224.5"/>
<text text-anchor="middle" x="374" y="-231.5" font-family="Helvetica,sans-Serif" font-size="10.00">AH/PrintStream/PrintStream.hpp</text>
</a>
</g>
</g>
<!-- Node8&#45;&gt;Node9 -->
<g id="edge13" class="edge">
<title>Node8&#45;&gt;Node9</title>
<path fill="none" stroke="midnightblue" d="M436.78,-392.46C432.4,-383.47 425.44,-368.86 420,-356 404.75,-319.92 388.94,-276.88 380.4,-253.08"/>
<polygon fill="midnightblue" stroke="midnightblue" points="383.68,-251.84 377.02,-243.59 377.08,-254.19 383.68,-251.84"/>
</g>
<!-- Node16 -->
<g id="node16" class="node">
<title>Node16</title>
<g id="a_node16"><a xlink:href="../../d2/dd5/SettingsWrapper_8hpp.html" target="_top" xlink:title=" ">
<polygon fill="white" stroke="black" points="429,-336.5 429,-355.5 607,-355.5 607,-336.5 429,-336.5"/>
<text text-anchor="middle" x="518" y="-343.5" font-family="Helvetica,sans-Serif" font-size="10.00">AH/Settings/SettingsWrapper.hpp</text>
</a>
</g>
</g>
<!-- Node8&#45;&gt;Node16 -->
<g id="edge25" class="edge">
<title>Node8&#45;&gt;Node16</title>
<path fill="none" stroke="midnightblue" d="M448.26,-392.32C458.44,-383.9 476.58,-370.97 491.92,-361.07"/>
<polygon fill="midnightblue" stroke="midnightblue" points="493.94,-363.94 500.55,-355.65 490.22,-358.01 493.94,-363.94"/>
</g>
<!-- Node9&#45;&gt;Node2 -->
<g id="edge15" class="edge">
<title>Node9&#45;&gt;Node2</title>
<path fill="none" stroke="midnightblue" d="M363.94,-224.29C345.67,-207.97 306.92,-170.89 285,-132 266.14,-98.55 255.34,-54.53 250.38,-29.86"/>
<polygon fill="midnightblue" stroke="midnightblue" points="253.75,-28.88 248.44,-19.71 246.88,-30.19 253.75,-28.88"/>
</g>
<!-- Node9&#45;&gt;Node10 -->
<g id="edge14" class="edge">
<title>Node9&#45;&gt;Node10</title>
<path fill="none" stroke="midnightblue" d="M381.18,-224.24C400.3,-201.58 455.09,-140.74 515,-112 555.87,-92.39 604.47,-81.32 647.21,-75.06"/>
<polygon fill="midnightblue" stroke="midnightblue" points="647.95,-78.49 657.37,-73.65 646.98,-71.56 647.95,-78.49"/>
</g>
<!-- Node9&#45;&gt;Node11 -->
<g id="edge16" class="edge">
<title>Node9&#45;&gt;Node11</title>
<path fill="none" stroke="midnightblue" d="M397.45,-224.44C422.13,-215.44 461.19,-201.19 488.98,-191.05"/>
<polygon fill="midnightblue" stroke="midnightblue" points="490.46,-194.23 498.66,-187.52 488.06,-187.66 490.46,-194.23"/>
</g>
<!-- Node12 -->
<g id="node12" class="node">
<title>Node12</title>
<g id="a_node12"><a xlink:href="../../d7/d79/MinMaxFix_8hpp.html" target="_top" xlink:title=" ">
<polygon fill="white" stroke="black" points="294,-112.5 294,-131.5 430,-131.5 430,-112.5 294,-112.5"/>
<text text-anchor="middle" x="362" y="-119.5" font-family="Helvetica,sans-Serif" font-size="10.00">AH/Math/MinMaxFix.hpp</text>
</a>
</g>
</g>
<!-- Node11&#45;&gt;Node12 -->
<g id="edge17" class="edge">
<title>Node11&#45;&gt;Node12</title>
<path fill="none" stroke="midnightblue" d="M496.65,-168.44C469.73,-159.36 427,-144.94 396.91,-134.78"/>
<polygon fill="midnightblue" stroke="midnightblue" points="397.83,-131.4 387.23,-131.52 395.59,-138.03 397.83,-131.4"/>
</g>
<!-- Node14 -->
<g id="node14" class="node">
<title>Node14</title>
<g id="a_node14"><a xlink:title=" ">
<polygon fill="white" stroke="#bfbfbf" points="441.5,-0.5 441.5,-19.5 504.5,-19.5 504.5,-0.5 441.5,-0.5"/>
<text text-anchor="middle" x="473" y="-7.5" font-family="Helvetica,sans-Serif" font-size="10.00">Arduino.h</text>
</a>
</g>
</g>
<!-- Node11&#45;&gt;Node14 -->
<g id="edge24" class="edge">
<title>Node11&#45;&gt;Node14</title>
<path fill="none" stroke="midnightblue" d="M520.4,-168.41C518.77,-159.38 516.32,-144.74 515,-132 511.51,-98.36 523.45,-87.45 511,-56 506.65,-45.02 498.49,-34.79 490.85,-26.86"/>
<polygon fill="midnightblue" stroke="midnightblue" points="493.15,-24.22 483.53,-19.77 488.27,-29.24 493.15,-24.22"/>
</g>
<!-- Node11&#45;&gt;Node15 -->
<g id="edge23" class="edge">
<title>Node11&#45;&gt;Node15</title>
<path fill="none" stroke="midnightblue" d="M531,-168.32C539.19,-160.42 551.51,-148.55 561.47,-138.94"/>
<polygon fill="midnightblue" stroke="midnightblue" points="564.07,-141.29 568.84,-131.83 559.21,-136.26 564.07,-141.29"/>
</g>
<!-- Node12&#45;&gt;Node2 -->
<g id="edge18" class="edge">
<title>Node12&#45;&gt;Node2</title>
<path fill="none" stroke="midnightblue" d="M352.98,-112.37C333.66,-93.89 288.08,-50.29 263.46,-26.74"/>
<polygon fill="midnightblue" stroke="midnightblue" points="265.63,-23.97 255.98,-19.59 260.79,-29.03 265.63,-23.97"/>
</g>
<!-- Node12&#45;&gt;Node10 -->
<g id="edge22" class="edge">
<title>Node12&#45;&gt;Node10</title>
<path fill="none" stroke="midnightblue" d="M424.27,-112.44C494.55,-102.79 608.72,-87.1 682.84,-76.92"/>
<polygon fill="midnightblue" stroke="midnightblue" points="683.59,-80.35 693.02,-75.52 682.64,-73.41 683.59,-80.35"/>
</g>
<!-- Node13 -->
<g id="node13" class="node">
<title>Node13</title>
<g id="a_node13"><a xlink:href="../../d6/d3b/FixArduinoMacros_8hpp.html" target="_top" xlink:title=" ">
<polygon fill="white" stroke="black" points="332,-56.5 332,-75.5 502,-75.5 502,-56.5 332,-56.5"/>
<text text-anchor="middle" x="417" y="-63.5" font-family="Helvetica,sans-Serif" font-size="10.00">AH/Math/FixArduinoMacros.hpp</text>
</a>
</g>
</g>
<!-- Node12&#45;&gt;Node13 -->
<g id="edge19" class="edge">
<title>Node12&#45;&gt;Node13</title>
<path fill="none" stroke="midnightblue" d="M371.08,-112.08C379.17,-104.14 391.2,-92.34 400.91,-82.8"/>
<polygon fill="midnightblue" stroke="midnightblue" points="403.4,-85.25 408.09,-75.75 398.5,-80.26 403.4,-85.25"/>
</g>
<!-- Node13&#45;&gt;Node2 -->
<g id="edge20" class="edge">
<title>Node13&#45;&gt;Node2</title>
<path fill="none" stroke="midnightblue" d="M390.06,-56.44C361.34,-47.32 315.67,-32.81 283.68,-22.65"/>
<polygon fill="midnightblue" stroke="midnightblue" points="284.4,-19.21 273.81,-19.52 282.28,-25.88 284.4,-19.21"/>
</g>
<!-- Node13&#45;&gt;Node14 -->
<g id="edge21" class="edge">
<title>Node13&#45;&gt;Node14</title>
<path fill="none" stroke="midnightblue" d="M426,-56.32C434.19,-48.42 446.51,-36.55 456.47,-26.94"/>
<polygon fill="midnightblue" stroke="midnightblue" points="459.07,-29.29 463.84,-19.83 454.21,-24.26 459.07,-29.29"/>
</g>
<!-- Node16&#45;&gt;Node2 -->
<g id="edge26" class="edge">
<title>Node16&#45;&gt;Node2</title>
<path fill="none" stroke="midnightblue" d="M518.64,-336.39C519.76,-323.76 522.6,-299.58 529,-280 537.64,-253.55 540.73,-246.57 557,-224 593.23,-173.74 673.99,-163.8 640,-112 606.06,-60.27 433.68,-31.98 328.81,-19.31"/>
<polygon fill="midnightblue" stroke="midnightblue" points="328.91,-15.8 318.57,-18.1 328.09,-22.75 328.91,-15.8"/>
</g>
<!-- Node16&#45;&gt;Node8 -->
<g id="edge39" class="edge">
<title>Node16&#45;&gt;Node8</title>
<path fill="none" stroke="midnightblue" d="M510.55,-355.83C500.33,-364.26 482.31,-377.1 467.06,-386.94"/>
<polygon fill="midnightblue" stroke="midnightblue" points="465.09,-384.04 458.49,-392.32 468.82,-389.97 465.09,-384.04"/>
</g>
<!-- Node16&#45;&gt;Node10 -->
<g id="edge27" class="edge">
<title>Node16&#45;&gt;Node10</title>
<path fill="none" stroke="midnightblue" d="M520.25,-336.47C526.16,-315.34 543.87,-259.71 575,-224 593.23,-203.09 604.5,-205.53 626,-188 669.19,-152.78 715.97,-106.69 739.55,-82.84"/>
<polygon fill="midnightblue" stroke="midnightblue" points="742.1,-85.23 746.62,-75.65 737.11,-80.33 742.1,-85.23"/>
</g>
<!-- Node17 -->
<g id="node17" class="node">
<title>Node17</title>
<g id="a_node17"><a xlink:href="../../db/d02/Settings_8hpp.html" target="_top" xlink:title="All user settings and debugging options can be changed here.">
<polygon fill="white" stroke="black" points="555.5,-280.5 555.5,-299.5 632.5,-299.5 632.5,-280.5 555.5,-280.5"/>
<text text-anchor="middle" x="594" y="-287.5" font-family="Helvetica,sans-Serif" font-size="10.00">Settings.hpp</text>
</a>
</g>
</g>
<!-- Node16&#45;&gt;Node17 -->
<g id="edge28" class="edge">
<title>Node16&#45;&gt;Node17</title>
<path fill="none" stroke="midnightblue" d="M530.21,-336.32C541.78,-328.11 559.38,-315.6 573.16,-305.81"/>
<polygon fill="midnightblue" stroke="midnightblue" points="575.44,-308.48 581.57,-299.83 571.39,-302.77 575.44,-308.48"/>
</g>
<!-- Node23 -->
<g id="node23" class="node">
<title>Node23</title>
<g id="a_node23"><a xlink:href="../../d9/d98/TeensyUSBTypes_8hpp.html" target="_top" xlink:title=" ">
<polygon fill="white" stroke="black" points="650.5,-280.5 650.5,-299.5 823.5,-299.5 823.5,-280.5 650.5,-280.5"/>
<text text-anchor="middle" x="737" y="-287.5" font-family="Helvetica,sans-Serif" font-size="10.00">AH/Teensy/TeensyUSBTypes.hpp</text>
</a>
</g>
</g>
<!-- Node16&#45;&gt;Node23 -->
<g id="edge38" class="edge">
<title>Node16&#45;&gt;Node23</title>
<path fill="none" stroke="midnightblue" d="M552.7,-336.44C590.58,-327.1 651.35,-312.12 692.66,-301.93"/>
<polygon fill="midnightblue" stroke="midnightblue" points="693.59,-305.31 702.46,-299.52 691.91,-298.51 693.59,-305.31"/>
</g>
<!-- Node18 -->
<g id="node18" class="node">
<title>Node18</title>
<g id="a_node18"><a xlink:href="../../dc/d50/Frequency_8hpp.html" target="_top" xlink:title=" ">
<polygon fill="white" stroke="black" points="726,-112.5 726,-131.5 860,-131.5 860,-112.5 726,-112.5"/>
<text text-anchor="middle" x="793" y="-119.5" font-family="Helvetica,sans-Serif" font-size="10.00">AH/Types/Frequency.hpp</text>
</a>
</g>
</g>
<!-- Node17&#45;&gt;Node18 -->
<g id="edge29" class="edge">
<title>Node17&#45;&gt;Node18</title>
<path fill="none" stroke="midnightblue" d="M589.15,-280.22C582.53,-266.94 572.72,-241.45 584,-224 605.17,-191.26 628.8,-204.78 664,-188 700.13,-170.78 741.35,-149.76 767.27,-136.38"/>
<polygon fill="midnightblue" stroke="midnightblue" points="769.14,-139.35 776.42,-131.65 765.93,-133.14 769.14,-139.35"/>
</g>
<!-- Node19 -->
<g id="node19" class="node">
<title>Node19</title>
<g id="a_node19"><a xlink:href="../../d7/d7c/ADCConfig_8hpp.html" target="_top" xlink:title="This file contains the platform&#45;specific ADC resolutions.">
<polygon fill="white" stroke="black" points="593.5,-224.5 593.5,-243.5 750.5,-243.5 750.5,-224.5 593.5,-224.5"/>
<text text-anchor="middle" x="672" y="-231.5" font-family="Helvetica,sans-Serif" font-size="10.00">AH/Hardware/ADCConfig.hpp</text>
</a>
</g>
</g>
<!-- Node17&#45;&gt;Node19 -->
<g id="edge32" class="edge">
<title>Node17&#45;&gt;Node19</title>
<path fill="none" stroke="midnightblue" d="M606.53,-280.32C618.59,-271.98 637.03,-259.21 651.27,-249.35"/>
<polygon fill="midnightblue" stroke="midnightblue" points="653.27,-252.22 659.5,-243.65 649.28,-246.47 653.27,-252.22"/>
</g>
<!-- Node20 -->
<g id="node20" class="node">
<title>Node20</title>
<g id="a_node20"><a xlink:title=" ">
<polygon fill="white" stroke="#bfbfbf" points="768.5,-224.5 768.5,-243.5 821.5,-243.5 821.5,-224.5 768.5,-224.5"/>
<text text-anchor="middle" x="795" y="-231.5" font-family="Helvetica,sans-Serif" font-size="10.00">limits.h</text>
</a>
</g>
</g>
<!-- Node17&#45;&gt;Node20 -->
<g id="edge35" class="edge">
<title>Node17&#45;&gt;Node20</title>
<path fill="none" stroke="midnightblue" d="M625.85,-280.44C661.87,-270.77 720.43,-255.03 758.33,-244.85"/>
<polygon fill="midnightblue" stroke="midnightblue" points="759.69,-248.11 768.44,-242.14 757.87,-241.35 759.69,-248.11"/>
</g>
<!-- Node17&#45;&gt;Node21 -->
<g id="edge36" class="edge">
<title>Node17&#45;&gt;Node21</title>
<path fill="none" stroke="midnightblue" d="M632.73,-281.58C635.53,-281.05 638.31,-280.51 641,-280 724.99,-263.96 746.38,-261.86 830,-244 830.1,-243.98 830.2,-243.96 830.3,-243.94"/>
<polygon fill="midnightblue" stroke="midnightblue" points="830.81,-247.41 839.81,-241.82 829.29,-240.58 830.81,-247.41"/>
</g>
<!-- Node17&#45;&gt;Node22 -->
<g id="edge37" class="edge">
<title>Node17&#45;&gt;Node22</title>
<path fill="none" stroke="midnightblue" d="M632.7,-281.42C635.51,-280.92 638.29,-280.44 641,-280 754.67,-261.38 786.97,-266.11 904.24,-243.95"/>
<polygon fill="midnightblue" stroke="midnightblue" points="905.17,-247.33 914.34,-242.01 903.86,-240.46 905.17,-247.33"/>
</g>
<!-- Node18&#45;&gt;Node2 -->
<g id="edge30" class="edge">
<title>Node18&#45;&gt;Node2</title>
<path fill="none" stroke="midnightblue" d="M814.05,-112.3C840.64,-100.14 880.68,-77.17 861,-56 852.05,-46.37 493.72,-24.94 328.69,-15.55"/>
<polygon fill="midnightblue" stroke="midnightblue" points="328.76,-12.05 318.58,-14.98 328.36,-19.04 328.76,-12.05"/>
</g>
<!-- Node18&#45;&gt;Node10 -->
<g id="edge31" class="edge">
<title>Node18&#45;&gt;Node10</title>
<path fill="none" stroke="midnightblue" d="M786.73,-112.08C781.36,-104.46 773.48,-93.26 766.92,-83.94"/>
<polygon fill="midnightblue" stroke="midnightblue" points="769.78,-81.91 761.16,-75.75 764.05,-85.94 769.78,-81.91"/>
</g>
<!-- Node19&#45;&gt;Node2 -->
<g id="edge33" class="edge">
<title>Node19&#45;&gt;Node2</title>
<path fill="none" stroke="midnightblue" d="M697.56,-224.41C766.22,-200.11 945,-127.95 878,-56 868.75,-46.07 497.42,-24.64 328.8,-15.39"/>
<polygon fill="midnightblue" stroke="midnightblue" points="328.9,-11.89 318.73,-14.84 328.52,-18.88 328.9,-11.89"/>
</g>
<!-- Node19&#45;&gt;Node11 -->
<g id="edge34" class="edge">
<title>Node19&#45;&gt;Node11</title>
<path fill="none" stroke="midnightblue" d="M648.23,-224.44C623.11,-215.4 583.29,-201.06 555.1,-190.92"/>
<polygon fill="midnightblue" stroke="midnightblue" points="556.25,-187.61 545.66,-187.52 553.88,-194.2 556.25,-187.61"/>
</g>
<!-- Node25&#45;&gt;Node2 -->
<g id="edge48" class="edge">
<title>Node25&#45;&gt;Node2</title>
<path fill="none" stroke="midnightblue" d="M1206.11,-112.41C1150.21,-98.19 1032.92,-69.93 932,-56 817.74,-40.23 484.69,-22.58 329,-14.91"/>
<polygon fill="midnightblue" stroke="midnightblue" points="328.71,-11.39 318.55,-14.4 328.37,-18.39 328.71,-11.39"/>
</g>
<!-- Node25&#45;&gt;Node10 -->
<g id="edge49" class="edge">
<title>Node25&#45;&gt;Node10</title>
<path fill="none" stroke="midnightblue" d="M1162.58,-112.47C1075.28,-102.73 932.75,-86.83 841.47,-76.65"/>
<polygon fill="midnightblue" stroke="midnightblue" points="841.75,-73.16 831.42,-75.53 840.97,-80.11 841.75,-73.16"/>
</g>
<!-- Node26 -->
<g id="node26" class="node">
<title>Node26</title>
<g id="a_node26"><a xlink:title=" ">
<polygon fill="white" stroke="#bfbfbf" points="1142,-56.5 1142,-75.5 1232,-75.5 1232,-56.5 1142,-56.5"/>
<text text-anchor="middle" x="1187" y="-63.5" font-family="Helvetica,sans-Serif" font-size="10.00">AH/STL/cstddef</text>
</a>
</g>
</g>
<!-- Node25&#45;&gt;Node26 -->
<g id="edge46" class="edge">
<title>Node25&#45;&gt;Node26</title>
<path fill="none" stroke="midnightblue" d="M1230.41,-112.08C1222.84,-104.22 1211.62,-92.57 1202.49,-83.08"/>
<polygon fill="midnightblue" stroke="midnightblue" points="1204.88,-80.53 1195.43,-75.75 1199.84,-85.38 1204.88,-80.53"/>
</g>
<!-- Node27 -->
<g id="node27" class="node">
<title>Node27</title>
<g id="a_node27"><a xlink:title=" ">
<polygon fill="white" stroke="#bfbfbf" points="1250.5,-56.5 1250.5,-75.5 1329.5,-75.5 1329.5,-56.5 1250.5,-56.5"/>
<text text-anchor="middle" x="1290" y="-63.5" font-family="Helvetica,sans-Serif" font-size="10.00">AH/STL/tuple</text>
</a>
</g>
</g>
<!-- Node25&#45;&gt;Node27 -->
<g id="edge47" class="edge">
<title>Node25&#45;&gt;Node27</title>
<path fill="none" stroke="midnightblue" d="M1247.42,-112.08C1254.85,-104.22 1265.85,-92.57 1274.81,-83.08"/>
<polygon fill="midnightblue" stroke="midnightblue" points="1277.41,-85.42 1281.74,-75.75 1272.32,-80.62 1277.41,-85.42"/>
</g>
</g>
</svg>
