<?xml version="1.0" encoding="UTF-8" standalone="no"?>
<!DOCTYPE svg PUBLIC "-//W3C//DTD SVG 1.1//EN"
 "http://www.w3.org/Graphics/SVG/1.1/DTD/svg11.dtd">
<!-- Generated by graphviz version 2.38.0 (20140413.2041)
 -->
<!-- Title: SettingsWrapper.hpp Pages: 1 -->
<svg width="1607pt" height="532pt"
 viewBox="0.00 0.00 1606.50 532.00" xmlns="http://www.w3.org/2000/svg" xmlns:xlink="http://www.w3.org/1999/xlink">
<g id="graph0" class="graph" transform="scale(1 1) rotate(0) translate(4 528)">
<title>SettingsWrapper.hpp</title>
<polygon fill="white" stroke="none" points="-4,4 -4,-528 1602.5,-528 1602.5,4 -4,4"/>
<!-- Node1 -->
<g id="node1" class="node"><title>Node1</title>
<g id="a_node1"><a xlink:title=" ">
<polygon fill="#bfbfbf" stroke="black" points="720,-504.5 720,-523.5 828,-523.5 828,-504.5 720,-504.5"/>
<text text-anchor="middle" x="774" y="-511.5" font-family="Helvetica,sans-Serif" font-size="10.00">SettingsWrapper.hpp</text>
</a>
</g>
</g>
<!-- Node2 -->
<g id="node2" class="node"><title>Node2</title>
<g id="a_node2"><a xlink:href="../../d4/d93/Updatable_8hpp.html" target="_top" xlink:title=" ">
<polygon fill="white" stroke="black" points="768,-336.5 768,-355.5 848,-355.5 848,-336.5 768,-336.5"/>
<text text-anchor="middle" x="808" y="-343.5" font-family="Helvetica,sans-Serif" font-size="10.00">Updatable.hpp</text>
</a>
</g>
</g>
<!-- Node1&#45;&gt;Node2 -->
<g id="edge1" class="edge"><title>Node1&#45;&gt;Node2</title>
<path fill="none" stroke="midnightblue" d="M766.124,-494.912C756.718,-470.489 744.018,-426.101 759,-392 765.969,-376.138 781.594,-363.415 793.339,-355.598"/>
<polygon fill="midnightblue" stroke="midnightblue" points="762.958,-496.415 769.983,-504.345 769.436,-493.765 762.958,-496.415"/>
</g>
<!-- Node3 -->
<g id="node3" class="node"><title>Node3</title>
<g id="a_node3"><a xlink:href="../../df/dee/Debug_8hpp.html" target="_top" xlink:title=" ">
<polygon fill="white" stroke="black" points="776,-448.5 776,-467.5 840,-467.5 840,-448.5 776,-448.5"/>
<text text-anchor="middle" x="808" y="-455.5" font-family="Helvetica,sans-Serif" font-size="10.00">Debug.hpp</text>
</a>
</g>
</g>
<!-- Node1&#45;&gt;Node3 -->
<g id="edge2" class="edge"><title>Node1&#45;&gt;Node3</title>
<path fill="none" stroke="midnightblue" d="M778.938,-494.983C783.983,-485.817 791.16,-475.092 797.359,-467.751"/>
<polygon fill="midnightblue" stroke="midnightblue" points="775.734,-493.566 774.448,-504.083 782.011,-496.664 775.734,-493.566"/>
</g>
<!-- Node7 -->
<g id="node7" class="node"><title>Node7</title>
<g id="a_node7"><a xlink:href="../../d4/db3/Button_8hpp.html" target="_top" xlink:title=" ">
<polygon fill="white" stroke="black" points="223,-112.5 223,-131.5 287,-131.5 287,-112.5 223,-112.5"/>
<text text-anchor="middle" x="255" y="-119.5" font-family="Helvetica,sans-Serif" font-size="10.00">Button.hpp</text>
</a>
</g>
</g>
<!-- Node1&#45;&gt;Node7 -->
<g id="edge62" class="edge"><title>Node1&#45;&gt;Node7</title>
<path fill="none" stroke="midnightblue" d="M709.637,-512.441C632.931,-507.977 515,-487.39 515,-403 515,-403 515,-403 515,-233 515,-207.942 349.087,-152.724 282.333,-131.522"/>
<polygon fill="midnightblue" stroke="midnightblue" points="709.541,-515.941 719.705,-512.95 709.894,-508.95 709.541,-515.941"/>
</g>
<!-- Node23 -->
<g id="node23" class="node"><title>Node23</title>
<g id="a_node23"><a xlink:href="../../d8/df3/FilteredAnalog_8hpp.html" target="_top" xlink:title=" ">
<polygon fill="white" stroke="black" points="873,-112.5 873,-131.5 971,-131.5 971,-112.5 873,-112.5"/>
<text text-anchor="middle" x="922" y="-119.5" font-family="Helvetica,sans-Serif" font-size="10.00">FilteredAnalog.hpp</text>
</a>
</g>
</g>
<!-- Node1&#45;&gt;Node23 -->
<g id="edge66" class="edge"><title>Node1&#45;&gt;Node23</title>
<path fill="none" stroke="midnightblue" d="M755.509,-497.628C734.177,-478.056 702,-442.061 702,-403 702,-403 702,-403 702,-345 702,-289.801 696.289,-267.709 730,-224 769.909,-172.255 843.913,-144.257 887.466,-131.585"/>
<polygon fill="midnightblue" stroke="midnightblue" points="753.251,-500.303 763.065,-504.297 757.884,-495.055 753.251,-500.303"/>
</g>
<!-- Node40 -->
<g id="node40" class="node"><title>Node40</title>
<g id="a_node40"><a xlink:href="../../d1/d1f/ShiftRegisterOutRGB_8hpp.html" target="_top" xlink:title=" ">
<polygon fill="white" stroke="black" points="1148,-448.5 1148,-467.5 1278,-467.5 1278,-448.5 1148,-448.5"/>
<text text-anchor="middle" x="1213" y="-455.5" font-family="Helvetica,sans-Serif" font-size="10.00">ShiftRegisterOutRGB.hpp</text>
</a>
</g>
</g>
<!-- Node1&#45;&gt;Node40 -->
<g id="edge63" class="edge"><title>Node1&#45;&gt;Node40</title>
<path fill="none" stroke="midnightblue" d="M838.316,-505.089C921.193,-494.894 1064.49,-477.268 1147.8,-467.021"/>
<polygon fill="midnightblue" stroke="midnightblue" points="837.768,-501.63 828.27,-506.324 838.623,-508.577 837.768,-501.63"/>
</g>
<!-- Node3&#45;&gt;Node1 -->
<g id="edge61" class="edge"><title>Node3&#45;&gt;Node1</title>
<path fill="none" stroke="midnightblue" d="M803.175,-476.811C798.163,-485.953 790.994,-496.691 784.781,-504.083"/>
<polygon fill="midnightblue" stroke="midnightblue" points="806.358,-478.27 807.621,-467.751 800.074,-475.187 806.358,-478.27"/>
</g>
<!-- Node4 -->
<g id="node4" class="node"><title>Node4</title>
<g id="a_node4"><a xlink:href="../../de/dd1/LinkedList_8hpp.html" target="_top" xlink:title=" ">
<polygon fill="white" stroke="black" points="768,-392.5 768,-411.5 848,-411.5 848,-392.5 768,-392.5"/>
<text text-anchor="middle" x="808" y="-399.5" font-family="Helvetica,sans-Serif" font-size="10.00">LinkedList.hpp</text>
</a>
</g>
</g>
<!-- Node3&#45;&gt;Node4 -->
<g id="edge3" class="edge"><title>Node3&#45;&gt;Node4</title>
<path fill="none" stroke="midnightblue" d="M808,-437.805C808,-428.91 808,-418.78 808,-411.751"/>
<polygon fill="midnightblue" stroke="midnightblue" points="804.5,-438.083 808,-448.083 811.5,-438.083 804.5,-438.083"/>
</g>
<!-- Node31 -->
<g id="node31" class="node"><title>Node31</title>
<g id="a_node31"><a xlink:href="../../df/d66/Debug_8cpp.html" target="_top" xlink:title=" ">
<polygon fill="white" stroke="black" points="866,-392.5 866,-411.5 930,-411.5 930,-392.5 866,-392.5"/>
<text text-anchor="middle" x="898" y="-399.5" font-family="Helvetica,sans-Serif" font-size="10.00">Debug.cpp</text>
</a>
</g>
</g>
<!-- Node3&#45;&gt;Node31 -->
<g id="edge41" class="edge"><title>Node3&#45;&gt;Node31</title>
<path fill="none" stroke="midnightblue" d="M831.038,-443.177C847.599,-433.241 869.418,-420.149 883.576,-411.655"/>
<polygon fill="midnightblue" stroke="midnightblue" points="829.234,-440.178 822.46,-448.324 832.836,-446.18 829.234,-440.178"/>
</g>
<!-- Node32 -->
<g id="node32" class="node"><title>Node32</title>
<g id="a_node32"><a xlink:href="../../d1/d93/Error_8hpp.html" target="_top" xlink:title=" ">
<polygon fill="white" stroke="black" points="1032,-392.5 1032,-411.5 1088,-411.5 1088,-392.5 1032,-392.5"/>
<text text-anchor="middle" x="1060" y="-399.5" font-family="Helvetica,sans-Serif" font-size="10.00">Error.hpp</text>
</a>
</g>
</g>
<!-- Node3&#45;&gt;Node32 -->
<g id="edge42" class="edge"><title>Node3&#45;&gt;Node32</title>
<path fill="none" stroke="midnightblue" d="M850.007,-447.999C901.593,-436.944 987.673,-418.499 1031.89,-409.023"/>
<polygon fill="midnightblue" stroke="midnightblue" points="849.217,-444.588 840.172,-450.106 850.683,-451.433 849.217,-444.588"/>
</g>
<!-- Node4&#45;&gt;Node2 -->
<g id="edge4" class="edge"><title>Node4&#45;&gt;Node2</title>
<path fill="none" stroke="midnightblue" d="M808,-381.805C808,-372.91 808,-362.78 808,-355.751"/>
<polygon fill="midnightblue" stroke="midnightblue" points="804.5,-382.083 808,-392.083 811.5,-382.083 804.5,-382.083"/>
</g>
<!-- Node5 -->
<g id="node5" class="node"><title>Node5</title>
<g id="a_node5"><a xlink:href="../../d4/d57/ExtendedIOElement_8hpp.html" target="_top" xlink:title=" ">
<polygon fill="white" stroke="black" points="739.5,-224.5 739.5,-243.5 862.5,-243.5 862.5,-224.5 739.5,-224.5"/>
<text text-anchor="middle" x="801" y="-231.5" font-family="Helvetica,sans-Serif" font-size="10.00">ExtendedIOElement.hpp</text>
</a>
</g>
</g>
<!-- Node4&#45;&gt;Node5 -->
<g id="edge5" class="edge"><title>Node4&#45;&gt;Node5</title>
<path fill="none" stroke="midnightblue" d="M784.904,-386.354C774.958,-378.659 764.39,-368.268 759,-356 741.022,-315.08 777.167,-263.824 793.528,-243.689"/>
<polygon fill="midnightblue" stroke="midnightblue" points="783.172,-389.419 793.339,-392.402 787.252,-383.73 783.172,-389.419"/>
</g>
<!-- Node6 -->
<g id="node6" class="node"><title>Node6</title>
<g id="a_node6"><a xlink:href="../../dd/ddf/ExtendedInputOutput_8hpp.html" target="_top" xlink:title=" ">
<polygon fill="white" stroke="black" points="619,-168.5 619,-187.5 747,-187.5 747,-168.5 619,-168.5"/>
<text text-anchor="middle" x="683" y="-175.5" font-family="Helvetica,sans-Serif" font-size="10.00">ExtendedInputOutput.hpp</text>
</a>
</g>
</g>
<!-- Node5&#45;&gt;Node6 -->
<g id="edge6" class="edge"><title>Node5&#45;&gt;Node6</title>
<path fill="none" stroke="midnightblue" d="M773.1,-220.232C751.027,-210.131 720.824,-196.309 701.61,-187.516"/>
<polygon fill="midnightblue" stroke="midnightblue" points="771.753,-223.465 782.303,-224.444 774.666,-217.1 771.753,-223.465"/>
</g>
<!-- Node16 -->
<g id="node16" class="node"><title>Node16</title>
<g id="a_node16"><a xlink:href="../../d6/d3c/ExtendedInputOutput_8cpp.html" target="_top" xlink:title=" ">
<polygon fill="white" stroke="black" points="305,-112.5 305,-131.5 433,-131.5 433,-112.5 305,-112.5"/>
<text text-anchor="middle" x="369" y="-119.5" font-family="Helvetica,sans-Serif" font-size="10.00">ExtendedInputOutput.cpp</text>
</a>
</g>
</g>
<!-- Node5&#45;&gt;Node16 -->
<g id="edge39" class="edge"><title>Node5&#45;&gt;Node16</title>
<path fill="none" stroke="midnightblue" d="M742.793,-222.499C704.499,-214.81 653.588,-203.094 610,-188 590.083,-181.103 586.944,-174.818 567,-168 518.3,-151.351 460.748,-139.056 420.28,-131.563"/>
<polygon fill="midnightblue" stroke="midnightblue" points="742.254,-225.96 752.743,-224.463 743.61,-219.092 742.254,-225.96"/>
</g>
<!-- Node29 -->
<g id="node29" class="node"><title>Node29</title>
<g id="a_node29"><a xlink:href="../../d2/d05/StaticSizeExtendedIOElement_8hpp.html" target="_top" xlink:title=" ">
<polygon fill="white" stroke="black" points="1010,-168.5 1010,-187.5 1178,-187.5 1178,-168.5 1010,-168.5"/>
<text text-anchor="middle" x="1094" y="-175.5" font-family="Helvetica,sans-Serif" font-size="10.00">StaticSizeExtendedIOElement.hpp</text>
</a>
</g>
</g>
<!-- Node5&#45;&gt;Node29 -->
<g id="edge35" class="edge"><title>Node5&#45;&gt;Node29</title>
<path fill="none" stroke="midnightblue" d="M857.426,-222.601C912.799,-212.395 996.231,-197.019 1047.79,-187.516"/>
<polygon fill="midnightblue" stroke="midnightblue" points="856.627,-219.189 847.427,-224.444 857.895,-226.073 856.627,-219.189"/>
</g>
<!-- Node30 -->
<g id="node30" class="node"><title>Node30</title>
<g id="a_node30"><a xlink:href="../../da/d1f/ExtendedIOElement_8cpp.html" target="_top" xlink:title=" ">
<polygon fill="white" stroke="black" points="1196.5,-168.5 1196.5,-187.5 1319.5,-187.5 1319.5,-168.5 1196.5,-168.5"/>
<text text-anchor="middle" x="1258" y="-175.5" font-family="Helvetica,sans-Serif" font-size="10.00">ExtendedIOElement.cpp</text>
</a>
</g>
</g>
<!-- Node5&#45;&gt;Node30 -->
<g id="edge40" class="edge"><title>Node5&#45;&gt;Node30</title>
<path fill="none" stroke="midnightblue" d="M872.662,-224.863C950.181,-216.011 1077.4,-201.335 1187,-188 1190.08,-187.625 1193.24,-187.237 1196.43,-186.843"/>
<polygon fill="midnightblue" stroke="midnightblue" points="872.066,-221.409 862.527,-226.02 872.86,-228.363 872.066,-221.409"/>
</g>
<!-- Node6&#45;&gt;Node7 -->
<g id="edge7" class="edge"><title>Node6&#45;&gt;Node7</title>
<path fill="none" stroke="midnightblue" d="M608.465,-170.571C530.305,-163.307 404.057,-150.095 296,-132 293.125,-131.519 290.147,-130.968 287.17,-130.381"/>
<polygon fill="midnightblue" stroke="midnightblue" points="608.417,-174.082 618.696,-171.514 609.059,-167.111 608.417,-174.082"/>
</g>
<!-- Node13 -->
<g id="node13" class="node"><title>Node13</title>
<g id="a_node13"><a xlink:href="../../d5/d41/ButtonMatrix_8ipp.html" target="_top" xlink:title=" ">
<polygon fill="white" stroke="black" points="567,-112.5 567,-131.5 655,-131.5 655,-112.5 567,-112.5"/>
<text text-anchor="middle" x="611" y="-119.5" font-family="Helvetica,sans-Serif" font-size="10.00">ButtonMatrix.ipp</text>
</a>
</g>
</g>
<!-- Node6&#45;&gt;Node13 -->
<g id="edge13" class="edge"><title>Node6&#45;&gt;Node13</title>
<path fill="none" stroke="midnightblue" d="M663.134,-162.101C650.177,-152.382 633.703,-140.027 622.779,-131.834"/>
<polygon fill="midnightblue" stroke="midnightblue" points="661.332,-165.124 671.432,-168.324 665.532,-159.524 661.332,-165.124"/>
</g>
<!-- Node15 -->
<g id="node15" class="node"><title>Node15</title>
<g id="a_node15"><a xlink:href="../../d7/def/AnalogMultiplex_8hpp.html" target="_top" xlink:title=" ">
<polygon fill="white" stroke="black" points="1027,-112.5 1027,-131.5 1131,-131.5 1131,-112.5 1027,-112.5"/>
<text text-anchor="middle" x="1079" y="-119.5" font-family="Helvetica,sans-Serif" font-size="10.00">AnalogMultiplex.hpp</text>
</a>
</g>
</g>
<!-- Node6&#45;&gt;Node15 -->
<g id="edge16" class="edge"><title>Node6&#45;&gt;Node15</title>
<path fill="none" stroke="midnightblue" d="M756.056,-167.038C834.649,-156.321 957.653,-139.547 1026.97,-130.095"/>
<polygon fill="midnightblue" stroke="midnightblue" points="755.183,-163.624 745.747,-168.444 756.129,-170.56 755.183,-163.624"/>
</g>
<!-- Node6&#45;&gt;Node16 -->
<g id="edge17" class="edge"><title>Node6&#45;&gt;Node16</title>
<path fill="none" stroke="midnightblue" d="M623.267,-166.727C563.93,-156.523 474.006,-141.058 418.521,-131.516"/>
<polygon fill="midnightblue" stroke="midnightblue" points="622.797,-170.198 633.246,-168.444 623.984,-163.299 622.797,-170.198"/>
</g>
<!-- Node17 -->
<g id="node17" class="node"><title>Node17</title>
<g id="a_node17"><a xlink:href="../../d5/d47/ShiftRegisterOutBase_8ipp.html" target="_top" xlink:title=" ">
<polygon fill="white" stroke="black" points="1201,-56.5 1201,-75.5 1329,-75.5 1329,-56.5 1201,-56.5"/>
<text text-anchor="middle" x="1265" y="-63.5" font-family="Helvetica,sans-Serif" font-size="10.00">ShiftRegisterOutBase.ipp</text>
</a>
</g>
</g>
<!-- Node6&#45;&gt;Node17 -->
<g id="edge18" class="edge"><title>Node6&#45;&gt;Node17</title>
<path fill="none" stroke="midnightblue" d="M725.721,-165.732C754.522,-157.61 793.118,-145.697 826,-132 843.618,-124.662 845.75,-117.583 864,-112 1004.24,-69.0958 1046.33,-92.9727 1192,-76 1194.92,-75.6601 1197.9,-75.3086 1200.91,-74.9504"/>
<polygon fill="midnightblue" stroke="midnightblue" points="724.664,-162.393 715.967,-168.444 726.539,-169.137 724.664,-162.393"/>
</g>
<!-- Node20 -->
<g id="node20" class="node"><title>Node20</title>
<g id="a_node20"><a xlink:href="../../de/d95/ShiftRegisterOut_8ipp.html" target="_top" xlink:title=" ">
<polygon fill="white" stroke="black" points="1348.5,-0.5 1348.5,-19.5 1453.5,-19.5 1453.5,-0.5 1348.5,-0.5"/>
<text text-anchor="middle" x="1401" y="-7.5" font-family="Helvetica,sans-Serif" font-size="10.00">ShiftRegisterOut.ipp</text>
</a>
</g>
</g>
<!-- Node6&#45;&gt;Node20 -->
<g id="edge27" class="edge"><title>Node6&#45;&gt;Node20</title>
<path fill="none" stroke="midnightblue" d="M608.976,-166.343C589.21,-159.743 570.024,-149.109 558,-132 538.577,-104.365 534.761,-80.5128 558,-56 585.257,-27.2491 1168,-14.9612 1348.31,-11.8384"/>
<polygon fill="midnightblue" stroke="midnightblue" points="608.113,-169.739 618.698,-169.27 610.131,-163.036 608.113,-169.739"/>
</g>
<!-- Node22 -->
<g id="node22" class="node"><title>Node22</title>
<g id="a_node22"><a xlink:href="../../da/d45/SPIShiftRegisterOut_8ipp.html" target="_top" xlink:title=" ">
<polygon fill="white" stroke="black" points="1475,-0.5 1475,-19.5 1597,-19.5 1597,-0.5 1475,-0.5"/>
<text text-anchor="middle" x="1536" y="-7.5" font-family="Helvetica,sans-Serif" font-size="10.00">SPIShiftRegisterOut.ipp</text>
</a>
</g>
</g>
<!-- Node6&#45;&gt;Node22 -->
<g id="edge28" class="edge"><title>Node6&#45;&gt;Node22</title>
<path fill="none" stroke="midnightblue" d="M680.207,-158.126C677.378,-130.945 676.902,-81.2764 706,-56 737.785,-28.3889 1421.05,-23.5784 1463,-20 1466.82,-19.6744 1470.74,-19.3015 1474.7,-18.8969"/>
<polygon fill="midnightblue" stroke="midnightblue" points="676.761,-158.778 681.484,-168.262 683.706,-157.902 676.761,-158.778"/>
</g>
<!-- Node6&#45;&gt;Node23 -->
<g id="edge29" class="edge"><title>Node6&#45;&gt;Node23</title>
<path fill="none" stroke="midnightblue" d="M730.724,-166.217C775.885,-156.013 842.773,-140.901 884.307,-131.516"/>
<polygon fill="midnightblue" stroke="midnightblue" points="729.853,-162.826 720.87,-168.444 731.396,-169.654 729.853,-162.826"/>
</g>
<!-- Node24 -->
<g id="node24" class="node"><title>Node24</title>
<g id="a_node24"><a xlink:href="../../d9/d4f/LEDs_8hpp.html" target="_top" xlink:title=" ">
<polygon fill="white" stroke="black" points="451,-112.5 451,-131.5 511,-131.5 511,-112.5 451,-112.5"/>
<text text-anchor="middle" x="481" y="-119.5" font-family="Helvetica,sans-Serif" font-size="10.00">LEDs.hpp</text>
</a>
</g>
</g>
<!-- Node6&#45;&gt;Node24 -->
<g id="edge30" class="edge"><title>Node6&#45;&gt;Node24</title>
<path fill="none" stroke="midnightblue" d="M641.062,-165.789C602.315,-155.431 545.69,-140.293 511.208,-131.075"/>
<polygon fill="midnightblue" stroke="midnightblue" points="640.428,-169.242 650.992,-168.444 642.236,-162.48 640.428,-169.242"/>
</g>
<!-- Node26 -->
<g id="node26" class="node"><title>Node26</title>
<g id="a_node26"><a xlink:href="../../d7/d13/MAX7219__Base_8hpp.html" target="_top" xlink:title=" ">
<polygon fill="white" stroke="black" points="711,-112.5 711,-131.5 817,-131.5 817,-112.5 711,-112.5"/>
<text text-anchor="middle" x="764" y="-119.5" font-family="Helvetica,sans-Serif" font-size="10.00">MAX7219_Base.hpp</text>
</a>
</g>
</g>
<!-- Node6&#45;&gt;Node26 -->
<g id="edge32" class="edge"><title>Node6&#45;&gt;Node26</title>
<path fill="none" stroke="midnightblue" d="M704.567,-162.622C719.364,-152.757 738.512,-139.992 751.018,-131.655"/>
<polygon fill="midnightblue" stroke="midnightblue" points="702.393,-159.865 696.014,-168.324 706.276,-165.689 702.393,-159.865"/>
</g>
<!-- Node8 -->
<g id="node8" class="node"><title>Node8</title>
<g id="a_node8"><a xlink:href="../../de/dd1/Button_8cpp.html" target="_top" xlink:title=" ">
<polygon fill="white" stroke="black" points="0,-56.5 0,-75.5 64,-75.5 64,-56.5 0,-56.5"/>
<text text-anchor="middle" x="32" y="-63.5" font-family="Helvetica,sans-Serif" font-size="10.00">Button.cpp</text>
</a>
</g>
</g>
<!-- Node7&#45;&gt;Node8 -->
<g id="edge8" class="edge"><title>Node7&#45;&gt;Node8</title>
<path fill="none" stroke="midnightblue" d="M212.64,-110.742C169.389,-100.269 103.208,-84.2433 64.1035,-74.7739"/>
<polygon fill="midnightblue" stroke="midnightblue" points="212.031,-114.196 222.574,-113.148 213.679,-107.393 212.031,-114.196"/>
</g>
<!-- Node9 -->
<g id="node9" class="node"><title>Node9</title>
<g id="a_node9"><a xlink:href="../../d5/d04/IncrementButton_8hpp.html" target="_top" xlink:title=" ">
<polygon fill="white" stroke="black" points="82.5,-56.5 82.5,-75.5 189.5,-75.5 189.5,-56.5 82.5,-56.5"/>
<text text-anchor="middle" x="136" y="-63.5" font-family="Helvetica,sans-Serif" font-size="10.00">IncrementButton.hpp</text>
</a>
</g>
</g>
<!-- Node7&#45;&gt;Node9 -->
<g id="edge9" class="edge"><title>Node7&#45;&gt;Node9</title>
<path fill="none" stroke="midnightblue" d="M226.863,-108.232C204.604,-98.1312 174.144,-84.3091 154.768,-75.5164"/>
<polygon fill="midnightblue" stroke="midnightblue" points="225.591,-111.498 236.144,-112.444 228.484,-105.124 225.591,-111.498"/>
</g>
<!-- Node11 -->
<g id="node11" class="node"><title>Node11</title>
<g id="a_node11"><a xlink:href="../../df/df5/IncrementDecrementButtons_8hpp.html" target="_top" xlink:title=" ">
<polygon fill="white" stroke="black" points="207.5,-56.5 207.5,-75.5 368.5,-75.5 368.5,-56.5 207.5,-56.5"/>
<text text-anchor="middle" x="288" y="-63.5" font-family="Helvetica,sans-Serif" font-size="10.00">IncrementDecrementButtons.hpp</text>
</a>
</g>
</g>
<!-- Node7&#45;&gt;Node11 -->
<g id="edge11" class="edge"><title>Node7&#45;&gt;Node11</title>
<path fill="none" stroke="midnightblue" d="M265.832,-103.275C271.472,-94.0454 278.118,-83.1703 282.652,-75.7511"/>
<polygon fill="midnightblue" stroke="midnightblue" points="262.677,-101.725 260.449,-112.083 268.65,-105.375 262.677,-101.725"/>
</g>
<!-- Node10 -->
<g id="node10" class="node"><title>Node10</title>
<g id="a_node10"><a xlink:href="../../db/d9d/IncrementButton_8cpp.html" target="_top" xlink:title=" ">
<polygon fill="white" stroke="black" points="82.5,-0.5 82.5,-19.5 189.5,-19.5 189.5,-0.5 82.5,-0.5"/>
<text text-anchor="middle" x="136" y="-7.5" font-family="Helvetica,sans-Serif" font-size="10.00">IncrementButton.cpp</text>
</a>
</g>
</g>
<!-- Node9&#45;&gt;Node10 -->
<g id="edge10" class="edge"><title>Node9&#45;&gt;Node10</title>
<path fill="none" stroke="midnightblue" d="M136,-45.8045C136,-36.9102 136,-26.7798 136,-19.7511"/>
<polygon fill="midnightblue" stroke="midnightblue" points="132.5,-46.083 136,-56.083 139.5,-46.083 132.5,-46.083"/>
</g>
<!-- Node12 -->
<g id="node12" class="node"><title>Node12</title>
<g id="a_node12"><a xlink:href="../../da/d66/IncrementDecrementButtons_8cpp.html" target="_top" xlink:title=" ">
<polygon fill="white" stroke="black" points="207.5,-0.5 207.5,-19.5 368.5,-19.5 368.5,-0.5 207.5,-0.5"/>
<text text-anchor="middle" x="288" y="-7.5" font-family="Helvetica,sans-Serif" font-size="10.00">IncrementDecrementButtons.cpp</text>
</a>
</g>
</g>
<!-- Node11&#45;&gt;Node12 -->
<g id="edge12" class="edge"><title>Node11&#45;&gt;Node12</title>
<path fill="none" stroke="midnightblue" d="M288,-45.8045C288,-36.9102 288,-26.7798 288,-19.7511"/>
<polygon fill="midnightblue" stroke="midnightblue" points="284.5,-46.083 288,-56.083 291.5,-46.083 284.5,-46.083"/>
</g>
<!-- Node14 -->
<g id="node14" class="node"><title>Node14</title>
<g id="a_node14"><a xlink:href="../../d9/d4b/ButtonMatrix_8hpp.html" target="_top" xlink:title=" ">
<polygon fill="white" stroke="black" points="567.5,-56.5 567.5,-75.5 658.5,-75.5 658.5,-56.5 567.5,-56.5"/>
<text text-anchor="middle" x="613" y="-63.5" font-family="Helvetica,sans-Serif" font-size="10.00">ButtonMatrix.hpp</text>
</a>
</g>
</g>
<!-- Node13&#45;&gt;Node14 -->
<g id="edge14" class="edge"><title>Node13&#45;&gt;Node14</title>
<path fill="none" stroke="midnightblue" d="M605.228,-102.101C604.928,-93.1357 605.755,-82.8579 607.545,-75.7511"/>
<polygon fill="midnightblue" stroke="midnightblue" points="601.745,-102.454 606.164,-112.083 608.715,-101.8 601.745,-102.454"/>
</g>
<!-- Node14&#45;&gt;Node13 -->
<g id="edge15" class="edge"><title>Node14&#45;&gt;Node13</title>
<path fill="none" stroke="midnightblue" d="M618.775,-85.9865C619.065,-94.8611 618.252,-105.006 616.497,-112.083"/>
<polygon fill="midnightblue" stroke="midnightblue" points="622.233,-85.3769 617.807,-75.7511 615.264,-86.0363 622.233,-85.3769"/>
</g>
<!-- Node18 -->
<g id="node18" class="node"><title>Node18</title>
<g id="a_node18"><a xlink:href="../../d8/d93/ShiftRegisterOutBase_8hpp.html" target="_top" xlink:title=" ">
<polygon fill="white" stroke="black" points="1346.5,-112.5 1346.5,-131.5 1477.5,-131.5 1477.5,-112.5 1346.5,-112.5"/>
<text text-anchor="middle" x="1412" y="-119.5" font-family="Helvetica,sans-Serif" font-size="10.00">ShiftRegisterOutBase.hpp</text>
</a>
</g>
</g>
<!-- Node17&#45;&gt;Node18 -->
<g id="edge19" class="edge"><title>Node17&#45;&gt;Node18</title>
<path fill="none" stroke="midnightblue" d="M1302.77,-78.7831C1332,-88.9388 1371.06,-103.359 1393.8,-112.444"/>
<polygon fill="midnightblue" stroke="midnightblue" points="1303.86,-75.4579 1293.26,-75.5164 1301.58,-82.0776 1303.86,-75.4579"/>
</g>
<!-- Node18&#45;&gt;Node17 -->
<g id="edge23" class="edge"><title>Node18&#45;&gt;Node17</title>
<path fill="none" stroke="midnightblue" d="M1374.11,-109.172C1344.84,-99.0039 1305.79,-84.5852 1283.1,-75.5164"/>
<polygon fill="midnightblue" stroke="midnightblue" points="1373.02,-112.501 1383.62,-112.444 1375.3,-105.882 1373.02,-112.501"/>
</g>
<!-- Node19 -->
<g id="node19" class="node"><title>Node19</title>
<g id="a_node19"><a xlink:href="../../d0/db4/ShiftRegisterOut_8hpp.html" target="_top" xlink:title=" ">
<polygon fill="white" stroke="black" points="1347,-56.5 1347,-75.5 1455,-75.5 1455,-56.5 1347,-56.5"/>
<text text-anchor="middle" x="1401" y="-63.5" font-family="Helvetica,sans-Serif" font-size="10.00">ShiftRegisterOut.hpp</text>
</a>
</g>
</g>
<!-- Node18&#45;&gt;Node19 -->
<g id="edge20" class="edge"><title>Node18&#45;&gt;Node19</title>
<path fill="none" stroke="midnightblue" d="M1408.15,-102.101C1406.32,-93.1357 1404.23,-82.8579 1402.78,-75.7511"/>
<polygon fill="midnightblue" stroke="midnightblue" points="1404.76,-102.983 1410.18,-112.083 1411.62,-101.586 1404.76,-102.983"/>
</g>
<!-- Node21 -->
<g id="node21" class="node"><title>Node21</title>
<g id="a_node21"><a xlink:href="../../d7/d88/SPIShiftRegisterOut_8hpp.html" target="_top" xlink:title=" ">
<polygon fill="white" stroke="black" points="1473.5,-56.5 1473.5,-75.5 1598.5,-75.5 1598.5,-56.5 1473.5,-56.5"/>
<text text-anchor="middle" x="1536" y="-63.5" font-family="Helvetica,sans-Serif" font-size="10.00">SPIShiftRegisterOut.hpp</text>
</a>
</g>
</g>
<!-- Node18&#45;&gt;Node21 -->
<g id="edge24" class="edge"><title>Node18&#45;&gt;Node21</title>
<path fill="none" stroke="midnightblue" d="M1441.01,-108.368C1464.23,-98.2553 1496.16,-84.3486 1516.44,-75.5164"/>
<polygon fill="midnightblue" stroke="midnightblue" points="1439.42,-105.242 1431.65,-112.444 1442.21,-111.66 1439.42,-105.242"/>
</g>
<!-- Node19&#45;&gt;Node20 -->
<g id="edge21" class="edge"><title>Node19&#45;&gt;Node20</title>
<path fill="none" stroke="midnightblue" d="M1394.53,-46.1005C1393.9,-37.1357 1394.34,-26.8579 1395.87,-19.7511"/>
<polygon fill="midnightblue" stroke="midnightblue" points="1391.07,-46.6216 1395.83,-56.083 1398.01,-45.7134 1391.07,-46.6216"/>
</g>
<!-- Node20&#45;&gt;Node19 -->
<g id="edge22" class="edge"><title>Node20&#45;&gt;Node19</title>
<path fill="none" stroke="midnightblue" d="M1407.46,-29.6911C1408.11,-38.6353 1407.68,-48.9272 1406.17,-56.083"/>
<polygon fill="midnightblue" stroke="midnightblue" points="1410.92,-29.2002 1406.13,-19.7511 1403.98,-30.1262 1410.92,-29.2002"/>
</g>
<!-- Node21&#45;&gt;Node22 -->
<g id="edge25" class="edge"><title>Node21&#45;&gt;Node22</title>
<path fill="none" stroke="midnightblue" d="M1529.53,-46.1005C1528.9,-37.1357 1529.34,-26.8579 1530.87,-19.7511"/>
<polygon fill="midnightblue" stroke="midnightblue" points="1526.07,-46.6216 1530.83,-56.083 1533.01,-45.7134 1526.07,-46.6216"/>
</g>
<!-- Node22&#45;&gt;Node21 -->
<g id="edge26" class="edge"><title>Node22&#45;&gt;Node21</title>
<path fill="none" stroke="midnightblue" d="M1542.46,-29.6911C1543.11,-38.6353 1542.68,-48.9272 1541.17,-56.083"/>
<polygon fill="midnightblue" stroke="midnightblue" points="1545.92,-29.2002 1541.13,-19.7511 1538.98,-30.1262 1545.92,-29.2002"/>
</g>
<!-- Node25 -->
<g id="node25" class="node"><title>Node25</title>
<g id="a_node25"><a xlink:href="../../d6/d3a/DotBarDisplayLEDs_8hpp.html" target="_top" xlink:title=" ">
<polygon fill="white" stroke="black" points="387,-56.5 387,-75.5 511,-75.5 511,-56.5 387,-56.5"/>
<text text-anchor="middle" x="449" y="-63.5" font-family="Helvetica,sans-Serif" font-size="10.00">DotBarDisplayLEDs.hpp</text>
</a>
</g>
</g>
<!-- Node24&#45;&gt;Node25 -->
<g id="edge31" class="edge"><title>Node24&#45;&gt;Node25</title>
<path fill="none" stroke="midnightblue" d="M470.496,-103.275C465.027,-94.0454 458.582,-83.1703 454.186,-75.7511"/>
<polygon fill="midnightblue" stroke="midnightblue" points="467.607,-105.264 475.716,-112.083 473.629,-101.696 467.607,-105.264"/>
</g>
<!-- Node27 -->
<g id="node27" class="node"><title>Node27</title>
<g id="a_node27"><a xlink:href="../../d2/d25/MAX7219_8hpp.html" target="_top" xlink:title=" ">
<polygon fill="white" stroke="black" points="1105,-56.5 1105,-75.5 1183,-75.5 1183,-56.5 1105,-56.5"/>
<text text-anchor="middle" x="1144" y="-63.5" font-family="Helvetica,sans-Serif" font-size="10.00">MAX7219.hpp</text>
</a>
</g>
</g>
<!-- Node26&#45;&gt;Node27 -->
<g id="edge33" class="edge"><title>Node26&#45;&gt;Node27</title>
<path fill="none" stroke="midnightblue" d="M827.563,-111.967C906.707,-100.721 1039.45,-81.8574 1104.98,-72.5451"/>
<polygon fill="midnightblue" stroke="midnightblue" points="826.646,-108.562 817.237,-113.435 827.63,-115.493 826.646,-108.562"/>
</g>
<!-- Node28 -->
<g id="node28" class="node"><title>Node28</title>
<g id="a_node28"><a xlink:href="../../d5/d0c/MAX7219SevenSegmentDisplay_8hpp.html" target="_top" xlink:title=" ">
<polygon fill="white" stroke="black" points="715,-56.5 715,-75.5 893,-75.5 893,-56.5 715,-56.5"/>
<text text-anchor="middle" x="804" y="-63.5" font-family="Helvetica,sans-Serif" font-size="10.00">MAX7219SevenSegmentDisplay.hpp</text>
</a>
</g>
</g>
<!-- Node26&#45;&gt;Node28 -->
<g id="edge34" class="edge"><title>Node26&#45;&gt;Node28</title>
<path fill="none" stroke="midnightblue" d="M776.7,-103.855C783.626,-94.5048 791.906,-83.3265 797.518,-75.7511"/>
<polygon fill="midnightblue" stroke="midnightblue" points="773.745,-101.964 770.605,-112.083 779.37,-106.131 773.745,-101.964"/>
</g>
<!-- Node29&#45;&gt;Node15 -->
<g id="edge36" class="edge"><title>Node29&#45;&gt;Node15</title>
<path fill="none" stroke="midnightblue" d="M1088.83,-158.396C1086.32,-149.362 1083.43,-138.936 1081.43,-131.751"/>
<polygon fill="midnightblue" stroke="midnightblue" points="1085.47,-159.385 1091.52,-168.083 1092.22,-157.511 1085.47,-159.385"/>
</g>
<!-- Node29&#45;&gt;Node18 -->
<g id="edge38" class="edge"><title>Node29&#45;&gt;Node18</title>
<path fill="none" stroke="midnightblue" d="M1154.49,-166.727C1214.59,-156.523 1305.66,-141.058 1361.85,-131.516"/>
<polygon fill="midnightblue" stroke="midnightblue" points="1153.66,-163.319 1144.39,-168.444 1154.83,-170.22 1153.66,-163.319"/>
</g>
<!-- Node29&#45;&gt;Node27 -->
<g id="edge37" class="edge"><title>Node29&#45;&gt;Node27</title>
<path fill="none" stroke="midnightblue" d="M1115.01,-162.233C1124.39,-154.408 1134.54,-143.944 1140,-132 1148.46,-113.493 1147,-88.8762 1145.39,-75.8914"/>
<polygon fill="midnightblue" stroke="midnightblue" points="1112.84,-159.489 1107.11,-168.4 1117.15,-165.008 1112.84,-159.489"/>
</g>
<!-- Node32&#45;&gt;Node2 -->
<g id="edge57" class="edge"><title>Node32&#45;&gt;Node2</title>
<path fill="none" stroke="midnightblue" d="M1021.8,-392.814C974.857,-382.755 895.595,-365.77 847.894,-355.549"/>
<polygon fill="midnightblue" stroke="midnightblue" points="1021.07,-396.237 1031.58,-394.91 1022.54,-389.393 1021.07,-396.237"/>
</g>
<!-- Node32&#45;&gt;Node16 -->
<g id="edge59" class="edge"><title>Node32&#45;&gt;Node16</title>
<path fill="none" stroke="midnightblue" d="M1026.36,-389.139C975.979,-371.137 878.167,-335.269 797,-300 692.721,-254.688 668.43,-239.372 567,-188 549.974,-179.377 546.729,-175.067 529,-168 488.794,-151.973 440.772,-139.278 407.898,-131.513"/>
<polygon fill="midnightblue" stroke="midnightblue" points="1025.19,-392.437 1035.79,-392.495 1027.54,-385.843 1025.19,-392.437"/>
</g>
<!-- Node32&#45;&gt;Node30 -->
<g id="edge60" class="edge"><title>Node32&#45;&gt;Node30</title>
<path fill="none" stroke="midnightblue" d="M1074.42,-384.829C1113.43,-341.09 1220.11,-221.482 1250.08,-187.884"/>
<polygon fill="midnightblue" stroke="midnightblue" points="1071.81,-382.505 1067.76,-392.297 1077.03,-387.164 1071.81,-382.505"/>
</g>
<!-- Node33 -->
<g id="node33" class="node"><title>Node33</title>
<g id="a_node33"><a xlink:href="../../de/d76/Array_8hpp.html" target="_top" xlink:title=" ">
<polygon fill="white" stroke="black" points="1030.5,-336.5 1030.5,-355.5 1089.5,-355.5 1089.5,-336.5 1030.5,-336.5"/>
<text text-anchor="middle" x="1060" y="-343.5" font-family="Helvetica,sans-Serif" font-size="10.00">Array.hpp</text>
</a>
</g>
</g>
<!-- Node32&#45;&gt;Node33 -->
<g id="edge43" class="edge"><title>Node32&#45;&gt;Node33</title>
<path fill="none" stroke="midnightblue" d="M1060,-381.805C1060,-372.91 1060,-362.78 1060,-355.751"/>
<polygon fill="midnightblue" stroke="midnightblue" points="1056.5,-382.083 1060,-392.083 1063.5,-382.083 1056.5,-382.083"/>
</g>
<!-- Node38 -->
<g id="node38" class="node"><title>Node38</title>
<g id="a_node38"><a xlink:href="../../d1/d40/BitArray_8hpp.html" target="_top" xlink:title=" ">
<polygon fill="white" stroke="black" points="1376.5,-168.5 1376.5,-187.5 1447.5,-187.5 1447.5,-168.5 1376.5,-168.5"/>
<text text-anchor="middle" x="1412" y="-175.5" font-family="Helvetica,sans-Serif" font-size="10.00">BitArray.hpp</text>
</a>
</g>
</g>
<!-- Node32&#45;&gt;Node38 -->
<g id="edge53" class="edge"><title>Node32&#45;&gt;Node38</title>
<path fill="none" stroke="midnightblue" d="M1098.19,-397.05C1155.13,-390.578 1258.93,-376.37 1290,-356 1357.11,-312.008 1397.55,-217.064 1408.78,-187.781"/>
<polygon fill="midnightblue" stroke="midnightblue" points="1097.68,-393.584 1088.13,-398.168 1098.45,-400.541 1097.68,-393.584"/>
</g>
<!-- Node39 -->
<g id="node39" class="node"><title>Node39</title>
<g id="a_node39"><a xlink:href="../../d6/df4/Exit_8cpp.html" target="_top" xlink:title=" ">
<polygon fill="white" stroke="black" points="1228.5,-336.5 1228.5,-355.5 1281.5,-355.5 1281.5,-336.5 1228.5,-336.5"/>
<text text-anchor="middle" x="1255" y="-343.5" font-family="Helvetica,sans-Serif" font-size="10.00">Exit.cpp</text>
</a>
</g>
</g>
<!-- Node32&#45;&gt;Node39 -->
<g id="edge58" class="edge"><title>Node32&#45;&gt;Node39</title>
<path fill="none" stroke="midnightblue" d="M1098.15,-390.436C1136.57,-379.796 1194.84,-363.659 1228.49,-354.342"/>
<polygon fill="midnightblue" stroke="midnightblue" points="1097.06,-387.106 1088.35,-393.148 1098.93,-393.852 1097.06,-387.106"/>
</g>
<!-- Node33&#45;&gt;Node15 -->
<g id="edge46" class="edge"><title>Node33&#45;&gt;Node15</title>
<path fill="none" stroke="midnightblue" d="M1082.56,-330.641C1116,-307.575 1171.86,-261.096 1143,-224 1103.02,-172.615 1040.98,-239.385 1001,-188 982.327,-164.002 1024.23,-142.832 1053.56,-131.575"/>
<polygon fill="midnightblue" stroke="midnightblue" points="1080.56,-327.765 1074.2,-336.24 1084.46,-333.58 1080.56,-327.765"/>
</g>
<!-- Node34 -->
<g id="node34" class="node"><title>Node34</title>
<g id="a_node34"><a xlink:href="../../d5/db6/ArrayHelpers_8hpp.html" target="_top" xlink:title=" ">
<polygon fill="white" stroke="black" points="1042,-224.5 1042,-243.5 1134,-243.5 1134,-224.5 1042,-224.5"/>
<text text-anchor="middle" x="1088" y="-231.5" font-family="Helvetica,sans-Serif" font-size="10.00">ArrayHelpers.hpp</text>
</a>
</g>
</g>
<!-- Node33&#45;&gt;Node34 -->
<g id="edge44" class="edge"><title>Node33&#45;&gt;Node34</title>
<path fill="none" stroke="midnightblue" d="M1080.71,-329.951C1089.67,-322.144 1099.2,-311.775 1104,-300 1111.9,-280.629 1100.78,-256.363 1093.48,-243.663"/>
<polygon fill="midnightblue" stroke="midnightblue" points="1078.35,-327.355 1072.78,-336.369 1082.75,-332.795 1078.35,-327.355"/>
</g>
<!-- Node35 -->
<g id="node35" class="node"><title>Node35</title>
<g id="a_node35"><a xlink:href="../../d4/d35/Hardware-Types_8hpp.html" target="_top" xlink:title=" ">
<polygon fill="white" stroke="black" points="806.5,-280.5 806.5,-299.5 913.5,-299.5 913.5,-280.5 806.5,-280.5"/>
<text text-anchor="middle" x="860" y="-287.5" font-family="Helvetica,sans-Serif" font-size="10.00">Hardware&#45;Types.hpp</text>
</a>
</g>
</g>
<!-- Node33&#45;&gt;Node35 -->
<g id="edge47" class="edge"><title>Node33&#45;&gt;Node35</title>
<path fill="none" stroke="midnightblue" d="M1020.36,-334.296C982.587,-324.099 926.466,-308.946 891.615,-299.536"/>
<polygon fill="midnightblue" stroke="midnightblue" points="1019.92,-337.804 1030.49,-337.032 1021.75,-331.046 1019.92,-337.804"/>
</g>
<!-- Node36 -->
<g id="node36" class="node"><title>Node36</title>
<g id="a_node36"><a xlink:href="../../d2/d3b/FIRFilter_8hpp.html" target="_top" xlink:title=" ">
<polygon fill="white" stroke="black" points="932,-280.5 932,-299.5 1006,-299.5 1006,-280.5 932,-280.5"/>
<text text-anchor="middle" x="969" y="-287.5" font-family="Helvetica,sans-Serif" font-size="10.00">FIRFilter.hpp</text>
</a>
</g>
</g>
<!-- Node33&#45;&gt;Node36 -->
<g id="edge51" class="edge"><title>Node33&#45;&gt;Node36</title>
<path fill="none" stroke="midnightblue" d="M1036.71,-331.177C1019.96,-321.241 997.9,-308.149 983.584,-299.655"/>
<polygon fill="midnightblue" stroke="midnightblue" points="1034.99,-334.231 1045.38,-336.324 1038.57,-328.211 1034.99,-334.231"/>
</g>
<!-- Node37 -->
<g id="node37" class="node"><title>Node37</title>
<g id="a_node37"><a xlink:href="../../dc/d64/IIRFilter_8hpp.html" target="_top" xlink:title=" ">
<polygon fill="white" stroke="black" points="1024.5,-280.5 1024.5,-299.5 1095.5,-299.5 1095.5,-280.5 1024.5,-280.5"/>
<text text-anchor="middle" x="1060" y="-287.5" font-family="Helvetica,sans-Serif" font-size="10.00">IIRFilter.hpp</text>
</a>
</g>
</g>
<!-- Node33&#45;&gt;Node37 -->
<g id="edge52" class="edge"><title>Node33&#45;&gt;Node37</title>
<path fill="none" stroke="midnightblue" d="M1060,-325.805C1060,-316.91 1060,-306.78 1060,-299.751"/>
<polygon fill="midnightblue" stroke="midnightblue" points="1056.5,-326.083 1060,-336.083 1063.5,-326.083 1056.5,-326.083"/>
</g>
<!-- Node34&#45;&gt;Node29 -->
<g id="edge45" class="edge"><title>Node34&#45;&gt;Node29</title>
<path fill="none" stroke="midnightblue" d="M1090.1,-214.101C1091.1,-205.136 1092.24,-194.858 1093.03,-187.751"/>
<polygon fill="midnightblue" stroke="midnightblue" points="1086.62,-213.758 1088.99,-224.083 1093.57,-214.531 1086.62,-213.758"/>
</g>
<!-- Node35&#45;&gt;Node5 -->
<g id="edge49" class="edge"><title>Node35&#45;&gt;Node5</title>
<path fill="none" stroke="midnightblue" d="M843.105,-273.537C832.585,-263.909 819.431,-251.869 810.652,-243.834"/>
<polygon fill="midnightblue" stroke="midnightblue" points="840.781,-276.154 850.521,-280.324 845.507,-270.99 840.781,-276.154"/>
</g>
<!-- Node35&#45;&gt;Node14 -->
<g id="edge48" class="edge"><title>Node35&#45;&gt;Node14</title>
<path fill="none" stroke="midnightblue" d="M882.656,-274.694C929.541,-243.402 1028.9,-167.259 980,-112 974.709,-106.021 755.879,-82.1455 658.694,-71.81"/>
<polygon fill="midnightblue" stroke="midnightblue" points="880.489,-271.93 874.039,-280.335 884.322,-277.786 880.489,-271.93"/>
</g>
<!-- Node35&#45;&gt;Node23 -->
<g id="edge50" class="edge"><title>Node35&#45;&gt;Node23</title>
<path fill="none" stroke="midnightblue" d="M866.949,-270.395C880.324,-234.585 909.173,-157.342 918.8,-131.568"/>
<polygon fill="midnightblue" stroke="midnightblue" points="863.554,-269.483 863.333,-280.075 870.111,-271.932 863.554,-269.483"/>
</g>
<!-- Node38&#45;&gt;Node18 -->
<g id="edge55" class="edge"><title>Node38&#45;&gt;Node18</title>
<path fill="none" stroke="midnightblue" d="M1412,-157.805C1412,-148.91 1412,-138.78 1412,-131.751"/>
<polygon fill="midnightblue" stroke="midnightblue" points="1408.5,-158.083 1412,-168.083 1415.5,-158.083 1408.5,-158.083"/>
</g>
<!-- Node38&#45;&gt;Node21 -->
<g id="edge56" class="edge"><title>Node38&#45;&gt;Node21</title>
<path fill="none" stroke="midnightblue" d="M1439.85,-163.622C1454.77,-155.666 1472.92,-144.663 1487,-132 1506.12,-114.798 1522.82,-89.2018 1530.88,-75.8416"/>
<polygon fill="midnightblue" stroke="midnightblue" points="1437.87,-160.704 1430.58,-168.397 1441.07,-166.927 1437.87,-160.704"/>
</g>
<!-- Node38&#45;&gt;Node27 -->
<g id="edge54" class="edge"><title>Node38&#45;&gt;Node27</title>
<path fill="none" stroke="midnightblue" d="M1381.41,-164.446C1326.37,-141.855 1212,-94.9113 1164.93,-75.5914"/>
<polygon fill="midnightblue" stroke="midnightblue" points="1380.39,-167.809 1390.97,-168.368 1383.05,-161.333 1380.39,-167.809"/>
</g>
<!-- Node40&#45;&gt;Node17 -->
<g id="edge64" class="edge"><title>Node40&#45;&gt;Node17</title>
<path fill="none" stroke="midnightblue" d="M1250.12,-444.856C1290.09,-429.17 1348,-397.693 1348,-347 1348,-347 1348,-347 1348,-233 1348,-166.302 1293.73,-98.9325 1272.96,-75.5861"/>
<polygon fill="midnightblue" stroke="midnightblue" points="1248.78,-441.623 1240.65,-448.416 1251.24,-448.176 1248.78,-441.623"/>
</g>
<!-- Node41 -->
<g id="node41" class="node"><title>Node41</title>
<g id="a_node41"><a xlink:href="../../db/d0b/ShiftRegisterOutRGB_8cpp.html" target="_top" xlink:title=" ">
<polygon fill="white" stroke="black" points="1148,-392.5 1148,-411.5 1278,-411.5 1278,-392.5 1148,-392.5"/>
<text text-anchor="middle" x="1213" y="-399.5" font-family="Helvetica,sans-Serif" font-size="10.00">ShiftRegisterOutRGB.cpp</text>
</a>
</g>
</g>
<!-- Node40&#45;&gt;Node41 -->
<g id="edge65" class="edge"><title>Node40&#45;&gt;Node41</title>
<path fill="none" stroke="midnightblue" d="M1213,-437.805C1213,-428.91 1213,-418.78 1213,-411.751"/>
<polygon fill="midnightblue" stroke="midnightblue" points="1209.5,-438.083 1213,-448.083 1216.5,-438.083 1209.5,-438.083"/>
</g>
</g>
</svg>
