<?xml version="1.0" encoding="UTF-8" standalone="no"?>
<!DOCTYPE svg PUBLIC "-//W3C//DTD SVG 1.1//EN"
 "http://www.w3.org/Graphics/SVG/1.1/DTD/svg11.dtd">
<!-- Generated by graphviz version 2.38.0 (20140413.2041)
 -->
<!-- Title: SettingsWrapper.hpp Pages: 1 -->
<svg width="1615pt" height="532pt"
 viewBox="0.00 0.00 1614.50 532.00" xmlns="http://www.w3.org/2000/svg" xmlns:xlink="http://www.w3.org/1999/xlink">
<g id="graph0" class="graph" transform="scale(1 1) rotate(0) translate(4 528)">
<title>SettingsWrapper.hpp</title>
<polygon fill="white" stroke="none" points="-4,4 -4,-528 1610.5,-528 1610.5,4 -4,4"/>
<!-- Node1 -->
<g id="node1" class="node"><title>Node1</title>
<g id="a_node1"><a xlink:title=" ">
<polygon fill="#bfbfbf" stroke="black" points="1114.5,-504.5 1114.5,-523.5 1222.5,-523.5 1222.5,-504.5 1114.5,-504.5"/>
<text text-anchor="middle" x="1168.5" y="-511.5" font-family="Helvetica,sans-Serif" font-size="10.00">SettingsWrapper.hpp</text>
</a>
</g>
</g>
<!-- Node2 -->
<g id="node2" class="node"><title>Node2</title>
<g id="a_node2"><a xlink:href="../../d4/d93/Updatable_8hpp.html" target="_top" xlink:title=" ">
<polygon fill="white" stroke="black" points="1255.5,-336.5 1255.5,-355.5 1335.5,-355.5 1335.5,-336.5 1255.5,-336.5"/>
<text text-anchor="middle" x="1295.5" y="-343.5" font-family="Helvetica,sans-Serif" font-size="10.00">Updatable.hpp</text>
</a>
</g>
</g>
<!-- Node1&#45;&gt;Node2 -->
<g id="edge1" class="edge"><title>Node1&#45;&gt;Node2</title>
<path fill="none" stroke="midnightblue" d="M1198.24,-500.017C1229.99,-484.328 1278.54,-454.623 1299.5,-412 1308.58,-393.535 1302.73,-368.472 1298.59,-355.525"/>
<polygon fill="midnightblue" stroke="midnightblue" points="1196.5,-496.971 1188.98,-504.435 1199.51,-503.289 1196.5,-496.971"/>
</g>
<!-- Node3 -->
<g id="node3" class="node"><title>Node3</title>
<g id="a_node3"><a xlink:href="../../df/dee/Debug_8hpp.html" target="_top" xlink:title=" ">
<polygon fill="white" stroke="black" points="1136.5,-448.5 1136.5,-467.5 1200.5,-467.5 1200.5,-448.5 1136.5,-448.5"/>
<text text-anchor="middle" x="1168.5" y="-455.5" font-family="Helvetica,sans-Serif" font-size="10.00">Debug.hpp</text>
</a>
</g>
</g>
<!-- Node1&#45;&gt;Node3 -->
<g id="edge2" class="edge"><title>Node1&#45;&gt;Node3</title>
<path fill="none" stroke="midnightblue" d="M1162.03,-494.101C1161.4,-485.136 1161.84,-474.858 1163.37,-467.751"/>
<polygon fill="midnightblue" stroke="midnightblue" points="1158.57,-494.622 1163.33,-504.083 1165.51,-493.713 1158.57,-494.622"/>
</g>
<!-- Node7 -->
<g id="node7" class="node"><title>Node7</title>
<g id="a_node7"><a xlink:href="../../d4/db3/Button_8hpp.html" target="_top" xlink:title=" ">
<polygon fill="white" stroke="black" points="374.5,-112.5 374.5,-131.5 438.5,-131.5 438.5,-112.5 374.5,-112.5"/>
<text text-anchor="middle" x="406.5" y="-119.5" font-family="Helvetica,sans-Serif" font-size="10.00">Button.hpp</text>
</a>
</g>
</g>
<!-- Node1&#45;&gt;Node7 -->
<g id="edge74" class="edge"><title>Node1&#45;&gt;Node7</title>
<path fill="none" stroke="midnightblue" d="M1103.98,-513.226C871.511,-513.198 90.5,-505.481 90.5,-403 90.5,-403 90.5,-403 90.5,-233 90.5,-196.004 110.543,-186.64 142.5,-168 229.219,-117.416 266.876,-150.77 365.5,-132 368.364,-131.455 371.333,-130.861 374.306,-130.246"/>
<polygon fill="midnightblue" stroke="midnightblue" points="1104.3,-516.726 1114.3,-513.222 1104.3,-509.726 1104.3,-516.726"/>
</g>
<!-- Node23 -->
<g id="node23" class="node"><title>Node23</title>
<g id="a_node23"><a xlink:href="../../d8/df3/FilteredAnalog_8hpp.html" target="_top" xlink:title=" ">
<polygon fill="white" stroke="black" points="258.5,-112.5 258.5,-131.5 356.5,-131.5 356.5,-112.5 258.5,-112.5"/>
<text text-anchor="middle" x="307.5" y="-119.5" font-family="Helvetica,sans-Serif" font-size="10.00">FilteredAnalog.hpp</text>
</a>
</g>
</g>
<!-- Node1&#45;&gt;Node23 -->
<g id="edge78" class="edge"><title>Node1&#45;&gt;Node23</title>
<path fill="none" stroke="midnightblue" d="M1104.01,-511.964C895.874,-508.365 250.327,-495.119 160.5,-468 106.868,-451.809 52.5,-459.023 52.5,-403 52.5,-403 52.5,-403 52.5,-233 52.5,-194.868 75.8141,-187.638 108.5,-168 133.321,-153.087 207.61,-138.868 258.054,-130.539"/>
<polygon fill="midnightblue" stroke="midnightblue" points="1104.11,-515.466 1114.17,-512.138 1104.23,-508.467 1104.11,-515.466"/>
</g>
<!-- Node48 -->
<g id="node48" class="node"><title>Node48</title>
<g id="a_node48"><a xlink:href="../../d1/d1f/ShiftRegisterOutRGB_8hpp.html" target="_top" xlink:title=" ">
<polygon fill="white" stroke="black" points="1383.5,-448.5 1383.5,-467.5 1513.5,-467.5 1513.5,-448.5 1383.5,-448.5"/>
<text text-anchor="middle" x="1448.5" y="-455.5" font-family="Helvetica,sans-Serif" font-size="10.00">ShiftRegisterOutRGB.hpp</text>
</a>
</g>
</g>
<!-- Node1&#45;&gt;Node48 -->
<g id="edge75" class="edge"><title>Node1&#45;&gt;Node48</title>
<path fill="none" stroke="midnightblue" d="M1222.75,-502.537C1275.67,-492.332 1355.17,-476.999 1404.34,-467.516"/>
<polygon fill="midnightblue" stroke="midnightblue" points="1222.02,-499.113 1212.87,-504.444 1223.35,-505.986 1222.02,-499.113"/>
</g>
<!-- Node3&#45;&gt;Node1 -->
<g id="edge73" class="edge"><title>Node3&#45;&gt;Node1</title>
<path fill="none" stroke="midnightblue" d="M1174.96,-477.691C1175.61,-486.635 1175.18,-496.927 1173.67,-504.083"/>
<polygon fill="midnightblue" stroke="midnightblue" points="1178.42,-477.2 1173.63,-467.751 1171.48,-478.126 1178.42,-477.2"/>
</g>
<!-- Node4 -->
<g id="node4" class="node"><title>Node4</title>
<g id="a_node4"><a xlink:href="../../de/dd1/LinkedList_8hpp.html" target="_top" xlink:title=" ">
<polygon fill="white" stroke="black" points="1128.5,-392.5 1128.5,-411.5 1208.5,-411.5 1208.5,-392.5 1128.5,-392.5"/>
<text text-anchor="middle" x="1168.5" y="-399.5" font-family="Helvetica,sans-Serif" font-size="10.00">LinkedList.hpp</text>
</a>
</g>
</g>
<!-- Node3&#45;&gt;Node4 -->
<g id="edge3" class="edge"><title>Node3&#45;&gt;Node4</title>
<path fill="none" stroke="midnightblue" d="M1168.5,-437.805C1168.5,-428.91 1168.5,-418.78 1168.5,-411.751"/>
<polygon fill="midnightblue" stroke="midnightblue" points="1165,-438.083 1168.5,-448.083 1172,-438.083 1165,-438.083"/>
</g>
<!-- Node31 -->
<g id="node31" class="node"><title>Node31</title>
<g id="a_node31"><a xlink:href="../../df/d66/Debug_8cpp.html" target="_top" xlink:title=" ">
<polygon fill="white" stroke="black" points="1226.5,-392.5 1226.5,-411.5 1290.5,-411.5 1290.5,-392.5 1226.5,-392.5"/>
<text text-anchor="middle" x="1258.5" y="-399.5" font-family="Helvetica,sans-Serif" font-size="10.00">Debug.cpp</text>
</a>
</g>
</g>
<!-- Node3&#45;&gt;Node31 -->
<g id="edge41" class="edge"><title>Node3&#45;&gt;Node31</title>
<path fill="none" stroke="midnightblue" d="M1191.54,-443.177C1208.1,-433.241 1229.92,-420.149 1244.08,-411.655"/>
<polygon fill="midnightblue" stroke="midnightblue" points="1189.73,-440.178 1182.96,-448.324 1193.34,-446.18 1189.73,-440.178"/>
</g>
<!-- Node32 -->
<g id="node32" class="node"><title>Node32</title>
<g id="a_node32"><a xlink:href="../../d1/d93/Error_8hpp.html" target="_top" xlink:title=" ">
<polygon fill="white" stroke="black" points="1054.5,-392.5 1054.5,-411.5 1110.5,-411.5 1110.5,-392.5 1054.5,-392.5"/>
<text text-anchor="middle" x="1082.5" y="-399.5" font-family="Helvetica,sans-Serif" font-size="10.00">Error.hpp</text>
</a>
</g>
</g>
<!-- Node3&#45;&gt;Node32 -->
<g id="edge42" class="edge"><title>Node3&#45;&gt;Node32</title>
<path fill="none" stroke="midnightblue" d="M1146.05,-442.901C1130.28,-432.999 1109.69,-420.071 1096.28,-411.655"/>
<polygon fill="midnightblue" stroke="midnightblue" points="1144.35,-445.97 1154.68,-448.324 1148.07,-440.042 1144.35,-445.97"/>
</g>
<!-- Node4&#45;&gt;Node2 -->
<g id="edge4" class="edge"><title>Node4&#45;&gt;Node2</title>
<path fill="none" stroke="midnightblue" d="M1197.89,-388.503C1221.7,-378.38 1254.61,-364.388 1275.47,-355.516"/>
<polygon fill="midnightblue" stroke="midnightblue" points="1196.46,-385.31 1188.62,-392.444 1199.2,-391.751 1196.46,-385.31"/>
</g>
<!-- Node5 -->
<g id="node5" class="node"><title>Node5</title>
<g id="a_node5"><a xlink:href="../../d4/d57/ExtendedIOElement_8hpp.html" target="_top" xlink:title=" ">
<polygon fill="white" stroke="black" points="924,-224.5 924,-243.5 1047,-243.5 1047,-224.5 924,-224.5"/>
<text text-anchor="middle" x="985.5" y="-231.5" font-family="Helvetica,sans-Serif" font-size="10.00">ExtendedIOElement.hpp</text>
</a>
</g>
</g>
<!-- Node4&#45;&gt;Node5 -->
<g id="edge5" class="edge"><title>Node4&#45;&gt;Node5</title>
<path fill="none" stroke="midnightblue" d="M1161.16,-382.755C1154.96,-368.869 1145.08,-349.85 1132.5,-336 1093.57,-293.135 1033.08,-259.001 1003.3,-243.715"/>
<polygon fill="midnightblue" stroke="midnightblue" points="1158.04,-384.365 1165.17,-392.203 1164.49,-381.63 1158.04,-384.365"/>
</g>
<!-- Node6 -->
<g id="node6" class="node"><title>Node6</title>
<g id="a_node6"><a xlink:href="../../dd/ddf/ExtendedInputOutput_8hpp.html" target="_top" xlink:title=" ">
<polygon fill="white" stroke="black" points="733.5,-168.5 733.5,-187.5 861.5,-187.5 861.5,-168.5 733.5,-168.5"/>
<text text-anchor="middle" x="797.5" y="-175.5" font-family="Helvetica,sans-Serif" font-size="10.00">ExtendedInputOutput.hpp</text>
</a>
</g>
</g>
<!-- Node5&#45;&gt;Node6 -->
<g id="edge6" class="edge"><title>Node5&#45;&gt;Node6</title>
<path fill="none" stroke="midnightblue" d="M945.699,-221.568C910.234,-211.381 859.134,-196.703 827.15,-187.516"/>
<polygon fill="midnightblue" stroke="midnightblue" points="945.133,-225.047 955.711,-224.444 947.066,-218.319 945.133,-225.047"/>
</g>
<!-- Node16 -->
<g id="node16" class="node"><title>Node16</title>
<g id="a_node16"><a xlink:href="../../d6/d3c/ExtendedInputOutput_8cpp.html" target="_top" xlink:title=" ">
<polygon fill="white" stroke="black" points="1104.5,-112.5 1104.5,-131.5 1232.5,-131.5 1232.5,-112.5 1104.5,-112.5"/>
<text text-anchor="middle" x="1168.5" y="-119.5" font-family="Helvetica,sans-Serif" font-size="10.00">ExtendedInputOutput.cpp</text>
</a>
</g>
</g>
<!-- Node5&#45;&gt;Node16 -->
<g id="edge39" class="edge"><title>Node5&#45;&gt;Node16</title>
<path fill="none" stroke="midnightblue" d="M1008.78,-219.009C1047.19,-195.919 1122.73,-150.51 1154.21,-131.591"/>
<polygon fill="midnightblue" stroke="midnightblue" points="1006.63,-216.217 999.86,-224.368 1010.23,-222.216 1006.63,-216.217"/>
</g>
<!-- Node29 -->
<g id="node29" class="node"><title>Node29</title>
<g id="a_node29"><a xlink:href="../../d2/d05/StaticSizeExtendedIOElement_8hpp.html" target="_top" xlink:title=" ">
<polygon fill="white" stroke="black" points="879.5,-168.5 879.5,-187.5 1047.5,-187.5 1047.5,-168.5 879.5,-168.5"/>
<text text-anchor="middle" x="963.5" y="-175.5" font-family="Helvetica,sans-Serif" font-size="10.00">StaticSizeExtendedIOElement.hpp</text>
</a>
</g>
</g>
<!-- Node5&#45;&gt;Node29 -->
<g id="edge35" class="edge"><title>Node5&#45;&gt;Node29</title>
<path fill="none" stroke="midnightblue" d="M978.04,-214.69C974.333,-205.589 970.024,-195.014 967.065,-187.751"/>
<polygon fill="midnightblue" stroke="midnightblue" points="974.853,-216.143 981.867,-224.083 981.335,-213.502 974.853,-216.143"/>
</g>
<!-- Node30 -->
<g id="node30" class="node"><title>Node30</title>
<g id="a_node30"><a xlink:href="../../da/d1f/ExtendedIOElement_8cpp.html" target="_top" xlink:title=" ">
<polygon fill="white" stroke="black" points="592,-168.5 592,-187.5 715,-187.5 715,-168.5 592,-168.5"/>
<text text-anchor="middle" x="653.5" y="-175.5" font-family="Helvetica,sans-Serif" font-size="10.00">ExtendedIOElement.cpp</text>
</a>
</g>
</g>
<!-- Node5&#45;&gt;Node30 -->
<g id="edge40" class="edge"><title>Node5&#45;&gt;Node30</title>
<path fill="none" stroke="midnightblue" d="M922.732,-222.791C859.998,-212.587 764.646,-197.078 705.86,-187.516"/>
<polygon fill="midnightblue" stroke="midnightblue" points="922.461,-226.293 932.894,-224.444 923.585,-219.383 922.461,-226.293"/>
</g>
<!-- Node6&#45;&gt;Node7 -->
<g id="edge7" class="edge"><title>Node6&#45;&gt;Node7</title>
<path fill="none" stroke="midnightblue" d="M725.384,-167.04C639.824,-155.224 500.94,-136.043 438.59,-127.432"/>
<polygon fill="midnightblue" stroke="midnightblue" points="725.16,-170.542 735.545,-168.444 726.118,-163.608 725.16,-170.542"/>
</g>
<!-- Node13 -->
<g id="node13" class="node"><title>Node13</title>
<g id="a_node13"><a xlink:href="../../d5/d41/ButtonMatrix_8ipp.html" target="_top" xlink:title=" ">
<polygon fill="white" stroke="black" points="522.5,-112.5 522.5,-131.5 610.5,-131.5 610.5,-112.5 522.5,-112.5"/>
<text text-anchor="middle" x="566.5" y="-119.5" font-family="Helvetica,sans-Serif" font-size="10.00">ButtonMatrix.ipp</text>
</a>
</g>
</g>
<!-- Node6&#45;&gt;Node13 -->
<g id="edge13" class="edge"><title>Node6&#45;&gt;Node13</title>
<path fill="none" stroke="midnightblue" d="M751.098,-166.153C707.453,-155.95 642.99,-140.881 602.931,-131.516"/>
<polygon fill="midnightblue" stroke="midnightblue" points="750.363,-169.575 760.897,-168.444 751.957,-162.759 750.363,-169.575"/>
</g>
<!-- Node15 -->
<g id="node15" class="node"><title>Node15</title>
<g id="a_node15"><a xlink:href="../../d7/def/AnalogMultiplex_8hpp.html" target="_top" xlink:title=" ">
<polygon fill="white" stroke="black" points="982.5,-112.5 982.5,-131.5 1086.5,-131.5 1086.5,-112.5 982.5,-112.5"/>
<text text-anchor="middle" x="1034.5" y="-119.5" font-family="Helvetica,sans-Serif" font-size="10.00">AnalogMultiplex.hpp</text>
</a>
</g>
</g>
<!-- Node6&#45;&gt;Node15 -->
<g id="edge16" class="edge"><title>Node6&#45;&gt;Node15</title>
<path fill="none" stroke="midnightblue" d="M844.824,-166.217C889.608,-156.013 955.936,-140.901 997.122,-131.516"/>
<polygon fill="midnightblue" stroke="midnightblue" points="844.026,-162.809 835.053,-168.444 845.581,-169.634 844.026,-162.809"/>
</g>
<!-- Node6&#45;&gt;Node16 -->
<g id="edge17" class="edge"><title>Node6&#45;&gt;Node16</title>
<path fill="none" stroke="midnightblue" d="M866.345,-166.979C936.425,-156.779 1043.89,-141.137 1109.99,-131.516"/>
<polygon fill="midnightblue" stroke="midnightblue" points="865.678,-163.54 856.286,-168.444 866.686,-170.467 865.678,-163.54"/>
</g>
<!-- Node17 -->
<g id="node17" class="node"><title>Node17</title>
<g id="a_node17"><a xlink:href="../../d5/d47/ShiftRegisterOutBase_8ipp.html" target="_top" xlink:title=" ">
<polygon fill="white" stroke="black" points="1277.5,-56.5 1277.5,-75.5 1405.5,-75.5 1405.5,-56.5 1277.5,-56.5"/>
<text text-anchor="middle" x="1341.5" y="-63.5" font-family="Helvetica,sans-Serif" font-size="10.00">ShiftRegisterOutBase.ipp</text>
</a>
</g>
</g>
<!-- Node6&#45;&gt;Node17 -->
<g id="edge18" class="edge"><title>Node6&#45;&gt;Node17</title>
<path fill="none" stroke="midnightblue" d="M825.676,-164.27C859.91,-149.352 919.765,-125.021 973.5,-112 1002.28,-105.027 1179.8,-84.8309 1277.37,-74.0218"/>
<polygon fill="midnightblue" stroke="midnightblue" points="824.058,-161.158 816.318,-168.392 826.88,-167.564 824.058,-161.158"/>
</g>
<!-- Node20 -->
<g id="node20" class="node"><title>Node20</title>
<g id="a_node20"><a xlink:href="../../de/d95/ShiftRegisterOut_8ipp.html" target="_top" xlink:title=" ">
<polygon fill="white" stroke="black" points="1102,-0.5 1102,-19.5 1207,-19.5 1207,-0.5 1102,-0.5"/>
<text text-anchor="middle" x="1154.5" y="-7.5" font-family="Helvetica,sans-Serif" font-size="10.00">ShiftRegisterOut.ipp</text>
</a>
</g>
</g>
<!-- Node6&#45;&gt;Node20 -->
<g id="edge27" class="edge"><title>Node6&#45;&gt;Node20</title>
<path fill="none" stroke="midnightblue" d="M742.217,-166.185C707.684,-158.18 667.869,-146.224 657.5,-132 637.603,-104.705 634.718,-80.9381 657.5,-56 687.046,-23.6579 980.115,-14.3316 1101.88,-11.841"/>
<polygon fill="midnightblue" stroke="midnightblue" points="741.732,-169.663 752.255,-168.439 743.265,-162.833 741.732,-169.663"/>
</g>
<!-- Node22 -->
<g id="node22" class="node"><title>Node22</title>
<g id="a_node22"><a xlink:href="../../da/d45/SPIShiftRegisterOut_8ipp.html" target="_top" xlink:title=" ">
<polygon fill="white" stroke="black" points="1425.5,-0.5 1425.5,-19.5 1547.5,-19.5 1547.5,-0.5 1425.5,-0.5"/>
<text text-anchor="middle" x="1486.5" y="-7.5" font-family="Helvetica,sans-Serif" font-size="10.00">SPIShiftRegisterOut.ipp</text>
</a>
</g>
</g>
<!-- Node6&#45;&gt;Node22 -->
<g id="edge28" class="edge"><title>Node6&#45;&gt;Node22</title>
<path fill="none" stroke="midnightblue" d="M816.245,-162.268C836.858,-146.927 871.576,-123.556 905.5,-112 1037.63,-66.9887 1082.06,-109.763 1217.5,-76 1241.12,-70.1109 1245.16,-62.9305 1268.5,-56 1323.33,-39.7193 1387.62,-27.2229 1432.11,-19.5766"/>
<polygon fill="midnightblue" stroke="midnightblue" points="813.91,-159.647 808.069,-168.486 818.147,-165.218 813.91,-159.647"/>
</g>
<!-- Node6&#45;&gt;Node23 -->
<g id="edge29" class="edge"><title>Node6&#45;&gt;Node23</title>
<path fill="none" stroke="midnightblue" d="M723.111,-167.984C562.856,-150.415 520.871,-151.852 365.5,-132 362.569,-131.625 359.557,-131.22 356.521,-130.796"/>
<polygon fill="midnightblue" stroke="midnightblue" points="723.01,-171.494 733.334,-169.113 723.779,-164.537 723.01,-171.494"/>
</g>
<!-- Node24 -->
<g id="node24" class="node"><title>Node24</title>
<g id="a_node24"><a xlink:href="../../d9/d4f/LEDs_8hpp.html" target="_top" xlink:title=" ">
<polygon fill="white" stroke="black" points="666.5,-112.5 666.5,-131.5 726.5,-131.5 726.5,-112.5 666.5,-112.5"/>
<text text-anchor="middle" x="696.5" y="-119.5" font-family="Helvetica,sans-Serif" font-size="10.00">LEDs.hpp</text>
</a>
</g>
</g>
<!-- Node6&#45;&gt;Node24 -->
<g id="edge30" class="edge"><title>Node6&#45;&gt;Node24</title>
<path fill="none" stroke="midnightblue" d="M772.417,-163.59C753.743,-153.605 728.796,-140.267 712.687,-131.655"/>
<polygon fill="midnightblue" stroke="midnightblue" points="770.804,-166.696 781.273,-168.324 774.104,-160.522 770.804,-166.696"/>
</g>
<!-- Node26 -->
<g id="node26" class="node"><title>Node26</title>
<g id="a_node26"><a xlink:href="../../d7/d13/MAX7219__Base_8hpp.html" target="_top" xlink:title=" ">
<polygon fill="white" stroke="black" points="744.5,-112.5 744.5,-131.5 850.5,-131.5 850.5,-112.5 744.5,-112.5"/>
<text text-anchor="middle" x="797.5" y="-119.5" font-family="Helvetica,sans-Serif" font-size="10.00">MAX7219_Base.hpp</text>
</a>
</g>
</g>
<!-- Node6&#45;&gt;Node26 -->
<g id="edge32" class="edge"><title>Node6&#45;&gt;Node26</title>
<path fill="none" stroke="midnightblue" d="M797.5,-157.805C797.5,-148.91 797.5,-138.78 797.5,-131.751"/>
<polygon fill="midnightblue" stroke="midnightblue" points="794,-158.083 797.5,-168.083 801,-158.083 794,-158.083"/>
</g>
<!-- Node8 -->
<g id="node8" class="node"><title>Node8</title>
<g id="a_node8"><a xlink:href="../../de/dd1/Button_8cpp.html" target="_top" xlink:title=" ">
<polygon fill="white" stroke="black" points="132.5,-56.5 132.5,-75.5 196.5,-75.5 196.5,-56.5 132.5,-56.5"/>
<text text-anchor="middle" x="164.5" y="-63.5" font-family="Helvetica,sans-Serif" font-size="10.00">Button.cpp</text>
</a>
</g>
</g>
<!-- Node7&#45;&gt;Node8 -->
<g id="edge8" class="edge"><title>Node7&#45;&gt;Node8</title>
<path fill="none" stroke="midnightblue" d="M364.355,-111.596C316.645,-100.95 239.959,-83.838 196.769,-74.2004"/>
<polygon fill="midnightblue" stroke="midnightblue" points="363.842,-115.067 374.364,-113.829 365.367,-108.235 363.842,-115.067"/>
</g>
<!-- Node9 -->
<g id="node9" class="node"><title>Node9</title>
<g id="a_node9"><a xlink:href="../../d5/d04/IncrementButton_8hpp.html" target="_top" xlink:title=" ">
<polygon fill="white" stroke="black" points="215,-56.5 215,-75.5 322,-75.5 322,-56.5 215,-56.5"/>
<text text-anchor="middle" x="268.5" y="-63.5" font-family="Helvetica,sans-Serif" font-size="10.00">IncrementButton.hpp</text>
</a>
</g>
</g>
<!-- Node7&#45;&gt;Node9 -->
<g id="edge9" class="edge"><title>Node7&#45;&gt;Node9</title>
<path fill="none" stroke="midnightblue" d="M375.251,-108.772C349.329,-98.6287 313.138,-84.4669 290.264,-75.5164"/>
<polygon fill="midnightblue" stroke="midnightblue" points="374.046,-112.059 384.633,-112.444 376.596,-105.54 374.046,-112.059"/>
</g>
<!-- Node11 -->
<g id="node11" class="node"><title>Node11</title>
<g id="a_node11"><a xlink:href="../../df/df5/IncrementDecrementButtons_8hpp.html" target="_top" xlink:title=" ">
<polygon fill="white" stroke="black" points="340,-56.5 340,-75.5 501,-75.5 501,-56.5 340,-56.5"/>
<text text-anchor="middle" x="420.5" y="-63.5" font-family="Helvetica,sans-Serif" font-size="10.00">IncrementDecrementButtons.hpp</text>
</a>
</g>
</g>
<!-- Node7&#45;&gt;Node11 -->
<g id="edge11" class="edge"><title>Node7&#45;&gt;Node11</title>
<path fill="none" stroke="midnightblue" d="M411.323,-102.396C413.665,-93.362 416.368,-82.936 418.231,-75.7511"/>
<polygon fill="midnightblue" stroke="midnightblue" points="407.934,-101.525 408.812,-112.083 414.71,-103.281 407.934,-101.525"/>
</g>
<!-- Node10 -->
<g id="node10" class="node"><title>Node10</title>
<g id="a_node10"><a xlink:href="../../db/d9d/IncrementButton_8cpp.html" target="_top" xlink:title=" ">
<polygon fill="white" stroke="black" points="215,-0.5 215,-19.5 322,-19.5 322,-0.5 215,-0.5"/>
<text text-anchor="middle" x="268.5" y="-7.5" font-family="Helvetica,sans-Serif" font-size="10.00">IncrementButton.cpp</text>
</a>
</g>
</g>
<!-- Node9&#45;&gt;Node10 -->
<g id="edge10" class="edge"><title>Node9&#45;&gt;Node10</title>
<path fill="none" stroke="midnightblue" d="M268.5,-45.8045C268.5,-36.9102 268.5,-26.7798 268.5,-19.7511"/>
<polygon fill="midnightblue" stroke="midnightblue" points="265,-46.083 268.5,-56.083 272,-46.083 265,-46.083"/>
</g>
<!-- Node12 -->
<g id="node12" class="node"><title>Node12</title>
<g id="a_node12"><a xlink:href="../../da/d66/IncrementDecrementButtons_8cpp.html" target="_top" xlink:title=" ">
<polygon fill="white" stroke="black" points="340,-0.5 340,-19.5 501,-19.5 501,-0.5 340,-0.5"/>
<text text-anchor="middle" x="420.5" y="-7.5" font-family="Helvetica,sans-Serif" font-size="10.00">IncrementDecrementButtons.cpp</text>
</a>
</g>
</g>
<!-- Node11&#45;&gt;Node12 -->
<g id="edge12" class="edge"><title>Node11&#45;&gt;Node12</title>
<path fill="none" stroke="midnightblue" d="M420.5,-45.8045C420.5,-36.9102 420.5,-26.7798 420.5,-19.7511"/>
<polygon fill="midnightblue" stroke="midnightblue" points="417,-46.083 420.5,-56.083 424,-46.083 417,-46.083"/>
</g>
<!-- Node14 -->
<g id="node14" class="node"><title>Node14</title>
<g id="a_node14"><a xlink:href="../../d9/d4b/ButtonMatrix_8hpp.html" target="_top" xlink:title=" ">
<polygon fill="white" stroke="black" points="519,-56.5 519,-75.5 610,-75.5 610,-56.5 519,-56.5"/>
<text text-anchor="middle" x="564.5" y="-63.5" font-family="Helvetica,sans-Serif" font-size="10.00">ButtonMatrix.hpp</text>
</a>
</g>
</g>
<!-- Node13&#45;&gt;Node14 -->
<g id="edge14" class="edge"><title>Node13&#45;&gt;Node14</title>
<path fill="none" stroke="midnightblue" d="M559.328,-102.101C558.364,-93.1357 558.43,-82.8579 559.693,-75.7511"/>
<polygon fill="midnightblue" stroke="midnightblue" points="555.896,-102.8 561.003,-112.083 562.799,-101.642 555.896,-102.8"/>
</g>
<!-- Node14&#45;&gt;Node13 -->
<g id="edge15" class="edge"><title>Node14&#45;&gt;Node13</title>
<path fill="none" stroke="midnightblue" d="M571.65,-85.6911C572.63,-94.6353 572.581,-104.927 571.336,-112.083"/>
<polygon fill="midnightblue" stroke="midnightblue" points="575.086,-85.0206 569.955,-75.7511 568.186,-86.1971 575.086,-85.0206"/>
</g>
<!-- Node18 -->
<g id="node18" class="node"><title>Node18</title>
<g id="a_node18"><a xlink:href="../../d8/d93/ShiftRegisterOutBase_8hpp.html" target="_top" xlink:title=" ">
<polygon fill="white" stroke="black" points="1289,-112.5 1289,-131.5 1420,-131.5 1420,-112.5 1289,-112.5"/>
<text text-anchor="middle" x="1354.5" y="-119.5" font-family="Helvetica,sans-Serif" font-size="10.00">ShiftRegisterOutBase.hpp</text>
</a>
</g>
</g>
<!-- Node17&#45;&gt;Node18 -->
<g id="edge19" class="edge"><title>Node17&#45;&gt;Node18</title>
<path fill="none" stroke="midnightblue" d="M1352.36,-85.3968C1355.21,-94.4087 1357.3,-104.849 1357.52,-112.083"/>
<polygon fill="midnightblue" stroke="midnightblue" points="1355.53,-83.8794 1348.74,-75.7511 1348.98,-86.3431 1355.53,-83.8794"/>
</g>
<!-- Node18&#45;&gt;Node17 -->
<g id="edge23" class="edge"><title>Node18&#45;&gt;Node17</title>
<path fill="none" stroke="midnightblue" d="M1343.66,-102.69C1340.78,-93.589 1338.66,-83.0141 1338.48,-75.7511"/>
<polygon fill="midnightblue" stroke="midnightblue" points="1340.4,-103.95 1347.19,-112.083 1346.95,-101.491 1340.4,-103.95"/>
</g>
<!-- Node19 -->
<g id="node19" class="node"><title>Node19</title>
<g id="a_node19"><a xlink:href="../../d0/db4/ShiftRegisterOut_8hpp.html" target="_top" xlink:title=" ">
<polygon fill="white" stroke="black" points="1100.5,-56.5 1100.5,-75.5 1208.5,-75.5 1208.5,-56.5 1100.5,-56.5"/>
<text text-anchor="middle" x="1154.5" y="-63.5" font-family="Helvetica,sans-Serif" font-size="10.00">ShiftRegisterOut.hpp</text>
</a>
</g>
</g>
<!-- Node18&#45;&gt;Node19 -->
<g id="edge20" class="edge"><title>Node18&#45;&gt;Node19</title>
<path fill="none" stroke="midnightblue" d="M1313.13,-109.829C1275.36,-99.6333 1220.36,-84.7823 1186.04,-75.5164"/>
<polygon fill="midnightblue" stroke="midnightblue" points="1312.24,-113.216 1322.81,-112.444 1314.07,-106.458 1312.24,-113.216"/>
</g>
<!-- Node21 -->
<g id="node21" class="node"><title>Node21</title>
<g id="a_node21"><a xlink:href="../../d7/d88/SPIShiftRegisterOut_8hpp.html" target="_top" xlink:title=" ">
<polygon fill="white" stroke="black" points="1424,-56.5 1424,-75.5 1549,-75.5 1549,-56.5 1424,-56.5"/>
<text text-anchor="middle" x="1486.5" y="-63.5" font-family="Helvetica,sans-Serif" font-size="10.00">SPIShiftRegisterOut.hpp</text>
</a>
</g>
</g>
<!-- Node18&#45;&gt;Node21 -->
<g id="edge24" class="edge"><title>Node18&#45;&gt;Node21</title>
<path fill="none" stroke="midnightblue" d="M1384.72,-108.638C1409.49,-98.504 1443.9,-84.4274 1465.68,-75.5164"/>
<polygon fill="midnightblue" stroke="midnightblue" points="1383.35,-105.418 1375.42,-112.444 1386,-111.897 1383.35,-105.418"/>
</g>
<!-- Node19&#45;&gt;Node20 -->
<g id="edge21" class="edge"><title>Node19&#45;&gt;Node20</title>
<path fill="none" stroke="midnightblue" d="M1148.03,-46.1005C1147.4,-37.1357 1147.84,-26.8579 1149.37,-19.7511"/>
<polygon fill="midnightblue" stroke="midnightblue" points="1144.57,-46.6216 1149.33,-56.083 1151.51,-45.7134 1144.57,-46.6216"/>
</g>
<!-- Node20&#45;&gt;Node19 -->
<g id="edge22" class="edge"><title>Node20&#45;&gt;Node19</title>
<path fill="none" stroke="midnightblue" d="M1160.96,-29.6911C1161.61,-38.6353 1161.18,-48.9272 1159.67,-56.083"/>
<polygon fill="midnightblue" stroke="midnightblue" points="1164.42,-29.2002 1159.63,-19.7511 1157.48,-30.1262 1164.42,-29.2002"/>
</g>
<!-- Node21&#45;&gt;Node22 -->
<g id="edge25" class="edge"><title>Node21&#45;&gt;Node22</title>
<path fill="none" stroke="midnightblue" d="M1480.03,-46.1005C1479.4,-37.1357 1479.84,-26.8579 1481.37,-19.7511"/>
<polygon fill="midnightblue" stroke="midnightblue" points="1476.57,-46.6216 1481.33,-56.083 1483.51,-45.7134 1476.57,-46.6216"/>
</g>
<!-- Node22&#45;&gt;Node21 -->
<g id="edge26" class="edge"><title>Node22&#45;&gt;Node21</title>
<path fill="none" stroke="midnightblue" d="M1492.96,-29.6911C1493.61,-38.6353 1493.18,-48.9272 1491.67,-56.083"/>
<polygon fill="midnightblue" stroke="midnightblue" points="1496.42,-29.2002 1491.63,-19.7511 1489.48,-30.1262 1496.42,-29.2002"/>
</g>
<!-- Node25 -->
<g id="node25" class="node"><title>Node25</title>
<g id="a_node25"><a xlink:href="../../d6/d3a/DotBarDisplayLEDs_8hpp.html" target="_top" xlink:title=" ">
<polygon fill="white" stroke="black" points="666.5,-56.5 666.5,-75.5 790.5,-75.5 790.5,-56.5 666.5,-56.5"/>
<text text-anchor="middle" x="728.5" y="-63.5" font-family="Helvetica,sans-Serif" font-size="10.00">DotBarDisplayLEDs.hpp</text>
</a>
</g>
</g>
<!-- Node24&#45;&gt;Node25 -->
<g id="edge31" class="edge"><title>Node24&#45;&gt;Node25</title>
<path fill="none" stroke="midnightblue" d="M707.004,-103.275C712.473,-94.0454 718.918,-83.1703 723.314,-75.7511"/>
<polygon fill="midnightblue" stroke="midnightblue" points="703.871,-101.696 701.784,-112.083 709.893,-105.264 703.871,-101.696"/>
</g>
<!-- Node27 -->
<g id="node27" class="node"><title>Node27</title>
<g id="a_node27"><a xlink:href="../../d2/d25/MAX7219_8hpp.html" target="_top" xlink:title=" ">
<polygon fill="white" stroke="black" points="1004.5,-56.5 1004.5,-75.5 1082.5,-75.5 1082.5,-56.5 1004.5,-56.5"/>
<text text-anchor="middle" x="1043.5" y="-63.5" font-family="Helvetica,sans-Serif" font-size="10.00">MAX7219.hpp</text>
</a>
</g>
</g>
<!-- Node26&#45;&gt;Node27 -->
<g id="edge33" class="edge"><title>Node26&#45;&gt;Node27</title>
<path fill="none" stroke="midnightblue" d="M846.329,-110.281C892.816,-100.077 961.863,-84.9203 1004.7,-75.5164"/>
<polygon fill="midnightblue" stroke="midnightblue" points="845.496,-106.881 836.479,-112.444 846.997,-113.718 845.496,-106.881"/>
</g>
<!-- Node28 -->
<g id="node28" class="node"><title>Node28</title>
<g id="a_node28"><a xlink:href="../../d5/d0c/MAX7219SevenSegmentDisplay_8hpp.html" target="_top" xlink:title=" ">
<polygon fill="white" stroke="black" points="808.5,-56.5 808.5,-75.5 986.5,-75.5 986.5,-56.5 808.5,-56.5"/>
<text text-anchor="middle" x="897.5" y="-63.5" font-family="Helvetica,sans-Serif" font-size="10.00">MAX7219SevenSegmentDisplay.hpp</text>
</a>
</g>
</g>
<!-- Node26&#45;&gt;Node28 -->
<g id="edge34" class="edge"><title>Node26&#45;&gt;Node28</title>
<path fill="none" stroke="midnightblue" d="M822.588,-107.453C841.049,-97.4835 865.597,-84.2279 881.473,-75.6545"/>
<polygon fill="midnightblue" stroke="midnightblue" points="820.703,-104.493 813.567,-112.324 824.029,-110.652 820.703,-104.493"/>
</g>
<!-- Node29&#45;&gt;Node15 -->
<g id="edge36" class="edge"><title>Node29&#45;&gt;Node15</title>
<path fill="none" stroke="midnightblue" d="M983.09,-162.101C995.868,-152.382 1012.11,-140.027 1022.89,-131.834"/>
<polygon fill="midnightblue" stroke="midnightblue" points="980.748,-159.484 974.907,-168.324 984.986,-165.056 980.748,-159.484"/>
</g>
<!-- Node29&#45;&gt;Node18 -->
<g id="edge38" class="edge"><title>Node29&#45;&gt;Node18</title>
<path fill="none" stroke="midnightblue" d="M1035.6,-167.042C1109.45,-156.843 1223.03,-141.157 1292.83,-131.516"/>
<polygon fill="midnightblue" stroke="midnightblue" points="1034.88,-163.608 1025.46,-168.444 1035.84,-170.542 1034.88,-163.608"/>
</g>
<!-- Node29&#45;&gt;Node27 -->
<g id="edge37" class="edge"><title>Node29&#45;&gt;Node27</title>
<path fill="none" stroke="midnightblue" d="M962.429,-157.954C962.552,-144.157 964.657,-125.614 973.5,-112 984.675,-94.7956 1004.99,-82.8318 1020.87,-75.5882"/>
<polygon fill="midnightblue" stroke="midnightblue" points="958.936,-158.306 962.686,-168.215 965.934,-158.13 958.936,-158.306"/>
</g>
<!-- Node32&#45;&gt;Node2 -->
<g id="edge68" class="edge"><title>Node32&#45;&gt;Node2</title>
<path fill="none" stroke="midnightblue" d="M1120.48,-391.372C1160.64,-381.191 1223.38,-365.284 1261.83,-355.537"/>
<polygon fill="midnightblue" stroke="midnightblue" points="1119.62,-387.979 1110.78,-393.829 1121.34,-394.764 1119.62,-387.979"/>
</g>
<!-- Node32&#45;&gt;Node16 -->
<g id="edge70" class="edge"><title>Node32&#45;&gt;Node16</title>
<path fill="none" stroke="midnightblue" d="M1104.14,-385.952C1114.05,-378.062 1125.19,-367.624 1132.5,-356 1148.52,-330.518 1151.5,-321.098 1151.5,-291 1151.5,-291 1151.5,-291 1151.5,-233 1151.5,-194.932 1161.57,-150.313 1166.21,-131.769"/>
<polygon fill="midnightblue" stroke="midnightblue" points="1101.74,-383.375 1095.87,-392.195 1105.96,-388.961 1101.74,-383.375"/>
</g>
<!-- Node32&#45;&gt;Node30 -->
<g id="edge71" class="edge"><title>Node32&#45;&gt;Node30</title>
<path fill="none" stroke="midnightblue" d="M1045.66,-389.236C1021.11,-380.953 988.349,-369.049 960.5,-356 841.837,-300.399 708.108,-214.789 666.531,-187.598"/>
<polygon fill="midnightblue" stroke="midnightblue" points="1044.72,-392.61 1055.31,-392.447 1046.93,-385.968 1044.72,-392.61"/>
</g>
<!-- Node33 -->
<g id="node33" class="node"><title>Node33</title>
<g id="a_node33"><a xlink:href="../../de/d76/Array_8hpp.html" target="_top" xlink:title=" ">
<polygon fill="white" stroke="black" points="401,-336.5 401,-355.5 460,-355.5 460,-336.5 401,-336.5"/>
<text text-anchor="middle" x="430.5" y="-343.5" font-family="Helvetica,sans-Serif" font-size="10.00">Array.hpp</text>
</a>
</g>
</g>
<!-- Node32&#45;&gt;Node33 -->
<g id="edge43" class="edge"><title>Node32&#45;&gt;Node33</title>
<path fill="none" stroke="midnightblue" d="M1044.45,-397.848C926.143,-388.05 566.378,-358.254 460.263,-349.465"/>
<polygon fill="midnightblue" stroke="midnightblue" points="1044.23,-401.342 1054.48,-398.68 1044.81,-394.366 1044.23,-401.342"/>
</g>
<!-- Node45 -->
<g id="node45" class="node"><title>Node45</title>
<g id="a_node45"><a xlink:href="../../d1/d40/BitArray_8hpp.html" target="_top" xlink:title=" ">
<polygon fill="white" stroke="black" points="1227,-168.5 1227,-187.5 1298,-187.5 1298,-168.5 1227,-168.5"/>
<text text-anchor="middle" x="1262.5" y="-175.5" font-family="Helvetica,sans-Serif" font-size="10.00">BitArray.hpp</text>
</a>
</g>
</g>
<!-- Node32&#45;&gt;Node45 -->
<g id="edge64" class="edge"><title>Node32&#45;&gt;Node45</title>
<path fill="none" stroke="midnightblue" d="M1115.59,-388.369C1132.07,-380.849 1151.42,-370.017 1165.5,-356 1218.4,-303.343 1250.42,-215.778 1259.69,-187.847"/>
<polygon fill="midnightblue" stroke="midnightblue" points="1114.06,-385.218 1106.28,-392.413 1116.85,-391.638 1114.06,-385.218"/>
</g>
<!-- Node46 -->
<g id="node46" class="node"><title>Node46</title>
<g id="a_node46"><a xlink:href="../../d6/df4/Exit_8cpp.html" target="_top" xlink:title=" ">
<polygon fill="white" stroke="black" points="970,-336.5 970,-355.5 1023,-355.5 1023,-336.5 970,-336.5"/>
<text text-anchor="middle" x="996.5" y="-343.5" font-family="Helvetica,sans-Serif" font-size="10.00">Exit.cpp</text>
</a>
</g>
</g>
<!-- Node32&#45;&gt;Node46 -->
<g id="edge69" class="edge"><title>Node32&#45;&gt;Node46</title>
<path fill="none" stroke="midnightblue" d="M1060.05,-386.901C1044.28,-376.999 1023.69,-364.071 1010.28,-355.655"/>
<polygon fill="midnightblue" stroke="midnightblue" points="1058.35,-389.97 1068.68,-392.324 1062.07,-384.042 1058.35,-389.97"/>
</g>
<!-- Node47 -->
<g id="node47" class="node"><title>Node47</title>
<g id="a_node47"><a xlink:href="../../d3/d50/FixedPoint_8hpp.html" target="_top" xlink:title=" ">
<polygon fill="white" stroke="black" points="1041.5,-336.5 1041.5,-355.5 1123.5,-355.5 1123.5,-336.5 1041.5,-336.5"/>
<text text-anchor="middle" x="1082.5" y="-343.5" font-family="Helvetica,sans-Serif" font-size="10.00">FixedPoint.hpp</text>
</a>
</g>
</g>
<!-- Node32&#45;&gt;Node47 -->
<g id="edge72" class="edge"><title>Node32&#45;&gt;Node47</title>
<path fill="none" stroke="midnightblue" d="M1082.5,-381.805C1082.5,-372.91 1082.5,-362.78 1082.5,-355.751"/>
<polygon fill="midnightblue" stroke="midnightblue" points="1079,-382.083 1082.5,-392.083 1086,-382.083 1079,-382.083"/>
</g>
<!-- Node33&#45;&gt;Node15 -->
<g id="edge49" class="edge"><title>Node33&#45;&gt;Node15</title>
<path fill="none" stroke="midnightblue" d="M470.484,-344.9C596.051,-343.663 978.721,-332.568 1055.5,-244 1084.13,-210.974 1053.44,-153.25 1040.08,-131.561"/>
<polygon fill="midnightblue" stroke="midnightblue" points="470.145,-341.403 460.174,-344.985 470.203,-348.402 470.145,-341.403"/>
</g>
<!-- Node34 -->
<g id="node34" class="node"><title>Node34</title>
<g id="a_node34"><a xlink:href="../../d5/db6/ArrayHelpers_8hpp.html" target="_top" xlink:title=" ">
<polygon fill="white" stroke="black" points="412.5,-224.5 412.5,-243.5 504.5,-243.5 504.5,-224.5 412.5,-224.5"/>
<text text-anchor="middle" x="458.5" y="-231.5" font-family="Helvetica,sans-Serif" font-size="10.00">ArrayHelpers.hpp</text>
</a>
</g>
</g>
<!-- Node33&#45;&gt;Node34 -->
<g id="edge44" class="edge"><title>Node33&#45;&gt;Node34</title>
<path fill="none" stroke="midnightblue" d="M435.999,-326.811C438.405,-318.642 441.198,-308.866 443.5,-300 448.68,-280.047 453.909,-256.416 456.614,-243.869"/>
<polygon fill="midnightblue" stroke="midnightblue" points="432.64,-325.828 433.132,-336.412 439.347,-327.831 432.64,-325.828"/>
</g>
<!-- Node37 -->
<g id="node37" class="node"><title>Node37</title>
<g id="a_node37"><a xlink:href="../../df/db0/ZeroPoleGain_8hpp.html" target="_top" xlink:title=" ">
<polygon fill="white" stroke="black" points="0,-112.5 0,-131.5 95,-131.5 95,-112.5 0,-112.5"/>
<text text-anchor="middle" x="47.5" y="-119.5" font-family="Helvetica,sans-Serif" font-size="10.00">ZeroPoleGain.hpp</text>
</a>
</g>
</g>
<!-- Node33&#45;&gt;Node37 -->
<g id="edge63" class="edge"><title>Node33&#45;&gt;Node37</title>
<path fill="none" stroke="midnightblue" d="M390.474,-341.612C327.973,-335.718 210.702,-322.054 175.5,-300 106.407,-256.713 63.0854,-161.29 50.9812,-131.835"/>
<polygon fill="midnightblue" stroke="midnightblue" points="390.466,-345.126 400.745,-342.557 391.108,-338.156 390.466,-345.126"/>
</g>
<!-- Node38 -->
<g id="node38" class="node"><title>Node38</title>
<g id="a_node38"><a xlink:href="../../d4/d35/Hardware-Types_8hpp.html" target="_top" xlink:title=" ">
<polygon fill="white" stroke="black" points="566,-280.5 566,-299.5 673,-299.5 673,-280.5 566,-280.5"/>
<text text-anchor="middle" x="619.5" y="-287.5" font-family="Helvetica,sans-Serif" font-size="10.00">Hardware&#45;Types.hpp</text>
</a>
</g>
</g>
<!-- Node33&#45;&gt;Node38 -->
<g id="edge50" class="edge"><title>Node33&#45;&gt;Node38</title>
<path fill="none" stroke="midnightblue" d="M470.079,-333.692C505.697,-323.515 557.258,-308.783 589.552,-299.556"/>
<polygon fill="midnightblue" stroke="midnightblue" points="468.685,-330.45 460.031,-336.562 470.608,-337.181 468.685,-330.45"/>
</g>
<!-- Node39 -->
<g id="node39" class="node"><title>Node39</title>
<g id="a_node39"><a xlink:href="../../d1/dde/BiQuad_8hpp.html" target="_top" xlink:title=" ">
<polygon fill="white" stroke="black" points="156.5,-224.5 156.5,-243.5 224.5,-243.5 224.5,-224.5 156.5,-224.5"/>
<text text-anchor="middle" x="190.5" y="-231.5" font-family="Helvetica,sans-Serif" font-size="10.00">BiQuad.hpp</text>
</a>
</g>
</g>
<!-- Node33&#45;&gt;Node39 -->
<g id="edge54" class="edge"><title>Node33&#45;&gt;Node39</title>
<path fill="none" stroke="midnightblue" d="M390.611,-343.642C328.004,-340.579 211.143,-330.782 185.5,-300 172.171,-283.999 180.585,-257.421 186.373,-243.736"/>
<polygon fill="midnightblue" stroke="midnightblue" points="390.756,-347.152 400.904,-344.109 391.073,-340.16 390.756,-347.152"/>
</g>
<!-- Node40 -->
<g id="node40" class="node"><title>Node40</title>
<g id="a_node40"><a xlink:href="../../d2/d3b/FIRFilter_8hpp.html" target="_top" xlink:title=" ">
<polygon fill="white" stroke="black" points="360.5,-280.5 360.5,-299.5 434.5,-299.5 434.5,-280.5 360.5,-280.5"/>
<text text-anchor="middle" x="397.5" y="-287.5" font-family="Helvetica,sans-Serif" font-size="10.00">FIRFilter.hpp</text>
</a>
</g>
</g>
<!-- Node33&#45;&gt;Node40 -->
<g id="edge56" class="edge"><title>Node33&#45;&gt;Node40</title>
<path fill="none" stroke="midnightblue" d="M419.668,-327.275C414.028,-318.045 407.382,-307.17 402.848,-299.751"/>
<polygon fill="midnightblue" stroke="midnightblue" points="416.85,-329.375 425.051,-336.083 422.823,-325.725 416.85,-329.375"/>
</g>
<!-- Node42 -->
<g id="node42" class="node"><title>Node42</title>
<g id="a_node42"><a xlink:href="../../dc/d64/IIRFilter_8hpp.html" target="_top" xlink:title=" ">
<polygon fill="white" stroke="black" points="243,-224.5 243,-243.5 314,-243.5 314,-224.5 243,-224.5"/>
<text text-anchor="middle" x="278.5" y="-231.5" font-family="Helvetica,sans-Serif" font-size="10.00">IIRFilter.hpp</text>
</a>
</g>
</g>
<!-- Node33&#45;&gt;Node42 -->
<g id="edge58" class="edge"><title>Node33&#45;&gt;Node42</title>
<path fill="none" stroke="midnightblue" d="M404.045,-331.727C388.285,-323.387 368.171,-311.968 351.5,-300 326.411,-281.989 300.099,-256.734 286.984,-243.639"/>
<polygon fill="midnightblue" stroke="midnightblue" points="402.739,-334.992 413.226,-336.5 405.968,-328.782 402.739,-334.992"/>
</g>
<!-- Node43 -->
<g id="node43" class="node"><title>Node43</title>
<g id="a_node43"><a xlink:href="../../dc/d9c/SMA_8hpp.html" target="_top" xlink:title=" ">
<polygon fill="white" stroke="black" points="491,-280.5 491,-299.5 548,-299.5 548,-280.5 491,-280.5"/>
<text text-anchor="middle" x="519.5" y="-287.5" font-family="Helvetica,sans-Serif" font-size="10.00">SMA.hpp</text>
</a>
</g>
</g>
<!-- Node33&#45;&gt;Node43 -->
<g id="edge59" class="edge"><title>Node33&#45;&gt;Node43</title>
<path fill="none" stroke="midnightblue" d="M453.738,-330.901C470.058,-320.999 491.365,-308.071 505.236,-299.655"/>
<polygon fill="midnightblue" stroke="midnightblue" points="451.533,-328.144 444.799,-336.324 455.164,-334.129 451.533,-328.144"/>
</g>
<!-- Node44 -->
<g id="node44" class="node"><title>Node44</title>
<g id="a_node44"><a xlink:href="../../d2/d03/TransferFunction_8hpp.html" target="_top" xlink:title=" ">
<polygon fill="white" stroke="black" points="195,-280.5 195,-299.5 304,-299.5 304,-280.5 195,-280.5"/>
<text text-anchor="middle" x="249.5" y="-287.5" font-family="Helvetica,sans-Serif" font-size="10.00">TransferFunction.hpp</text>
</a>
</g>
</g>
<!-- Node33&#45;&gt;Node44 -->
<g id="edge60" class="edge"><title>Node33&#45;&gt;Node44</title>
<path fill="none" stroke="midnightblue" d="M392.181,-333.568C358.036,-323.381 308.839,-308.703 278.046,-299.516"/>
<polygon fill="midnightblue" stroke="midnightblue" points="391.237,-336.938 401.82,-336.444 393.238,-330.231 391.237,-336.938"/>
</g>
<!-- Node34&#45;&gt;Node29 -->
<g id="edge45" class="edge"><title>Node34&#45;&gt;Node29</title>
<path fill="none" stroke="midnightblue" d="M514.655,-226.995C604.57,-217.381 781.163,-198.497 884.006,-187.5"/>
<polygon fill="midnightblue" stroke="midnightblue" points="514.225,-223.521 504.654,-228.065 514.97,-230.482 514.225,-223.521"/>
</g>
<!-- Node35 -->
<g id="node35" class="node"><title>Node35</title>
<g id="a_node35"><a xlink:href="../../df/ddc/SOSFilter_8hpp.html" target="_top" xlink:title=" ">
<polygon fill="white" stroke="black" points="151.5,-168.5 151.5,-187.5 229.5,-187.5 229.5,-168.5 151.5,-168.5"/>
<text text-anchor="middle" x="190.5" y="-175.5" font-family="Helvetica,sans-Serif" font-size="10.00">SOSFilter.hpp</text>
</a>
</g>
</g>
<!-- Node34&#45;&gt;Node35 -->
<g id="edge46" class="edge"><title>Node34&#45;&gt;Node35</title>
<path fill="none" stroke="midnightblue" d="M406.048,-222.431C354.285,-212.001 276.324,-196.293 229.715,-186.902"/>
<polygon fill="midnightblue" stroke="midnightblue" points="405.54,-225.899 416.035,-224.444 406.923,-219.037 405.54,-225.899"/>
</g>
<!-- Node36 -->
<g id="node36" class="node"><title>Node36</title>
<g id="a_node36"><a xlink:href="../../d4/d40/Butterworth_8hpp.html" target="_top" xlink:title=" ">
<polygon fill="white" stroke="black" points="147.5,-112.5 147.5,-131.5 233.5,-131.5 233.5,-112.5 147.5,-112.5"/>
<text text-anchor="middle" x="190.5" y="-119.5" font-family="Helvetica,sans-Serif" font-size="10.00">Butterworth.hpp</text>
</a>
</g>
</g>
<!-- Node35&#45;&gt;Node36 -->
<g id="edge47" class="edge"><title>Node35&#45;&gt;Node36</title>
<path fill="none" stroke="midnightblue" d="M190.5,-157.805C190.5,-148.91 190.5,-138.78 190.5,-131.751"/>
<polygon fill="midnightblue" stroke="midnightblue" points="187,-158.083 190.5,-168.083 194,-158.083 187,-158.083"/>
</g>
<!-- Node35&#45;&gt;Node37 -->
<g id="edge48" class="edge"><title>Node35&#45;&gt;Node37</title>
<path fill="none" stroke="midnightblue" d="M158.473,-164.906C131.588,-154.754 93.8593,-140.506 70.0528,-131.516"/>
<polygon fill="midnightblue" stroke="midnightblue" points="157.25,-168.185 167.841,-168.444 159.722,-161.636 157.25,-168.185"/>
</g>
<!-- Node38&#45;&gt;Node5 -->
<g id="edge52" class="edge"><title>Node38&#45;&gt;Node5</title>
<path fill="none" stroke="midnightblue" d="M683.411,-279.57C752.412,-269.39 861.341,-253.319 927.817,-243.511"/>
<polygon fill="midnightblue" stroke="midnightblue" points="682.494,-276.168 673.112,-281.09 683.515,-283.093 682.494,-276.168"/>
</g>
<!-- Node38&#45;&gt;Node14 -->
<g id="edge51" class="edge"><title>Node38&#45;&gt;Node14</title>
<path fill="none" stroke="midnightblue" d="M603.985,-273.231C579.132,-246.736 531.377,-190.426 513.5,-132 510.899,-123.5 509.844,-120.102 513.5,-112 520.688,-96.0708 536.611,-83.5195 548.766,-75.7643"/>
<polygon fill="midnightblue" stroke="midnightblue" points="601.463,-275.658 610.904,-280.466 606.522,-270.82 601.463,-275.658"/>
</g>
<!-- Node38&#45;&gt;Node23 -->
<g id="edge53" class="edge"><title>Node38&#45;&gt;Node23</title>
<path fill="none" stroke="midnightblue" d="M597.796,-274.859C576.617,-261.259 543.321,-240.406 513.5,-224 446.146,-186.945 363.264,-148.356 326.55,-131.607"/>
<polygon fill="midnightblue" stroke="midnightblue" points="596.052,-277.899 606.352,-280.382 599.848,-272.018 596.052,-277.899"/>
</g>
<!-- Node39&#45;&gt;Node35 -->
<g id="edge55" class="edge"><title>Node39&#45;&gt;Node35</title>
<path fill="none" stroke="midnightblue" d="M190.5,-213.805C190.5,-204.91 190.5,-194.78 190.5,-187.751"/>
<polygon fill="midnightblue" stroke="midnightblue" points="187,-214.083 190.5,-224.083 194,-214.083 187,-214.083"/>
</g>
<!-- Node41 -->
<g id="node41" class="node"><title>Node41</title>
<g id="a_node41"><a xlink:href="../../df/da1/Notch_8hpp.html" target="_top" xlink:title=" ">
<polygon fill="white" stroke="black" points="332.5,-224.5 332.5,-243.5 394.5,-243.5 394.5,-224.5 332.5,-224.5"/>
<text text-anchor="middle" x="363.5" y="-231.5" font-family="Helvetica,sans-Serif" font-size="10.00">Notch.hpp</text>
</a>
</g>
</g>
<!-- Node40&#45;&gt;Node41 -->
<g id="edge57" class="edge"><title>Node40&#45;&gt;Node41</title>
<path fill="none" stroke="midnightblue" d="M386.523,-271.566C380.673,-262.275 373.73,-251.248 369.01,-243.751"/>
<polygon fill="midnightblue" stroke="midnightblue" points="383.596,-273.486 391.886,-280.083 389.519,-269.756 383.596,-273.486"/>
</g>
<!-- Node44&#45;&gt;Node39 -->
<g id="edge61" class="edge"><title>Node44&#45;&gt;Node39</title>
<path fill="none" stroke="midnightblue" d="M232.605,-273.537C222.085,-263.909 208.931,-251.869 200.152,-243.834"/>
<polygon fill="midnightblue" stroke="midnightblue" points="230.281,-276.154 240.021,-280.324 235.007,-270.99 230.281,-276.154"/>
</g>
<!-- Node44&#45;&gt;Node42 -->
<g id="edge62" class="edge"><title>Node44&#45;&gt;Node42</title>
<path fill="none" stroke="midnightblue" d="M259.176,-270.983C264.098,-261.817 269.858,-251.092 273.8,-243.751"/>
<polygon fill="midnightblue" stroke="midnightblue" points="255.937,-269.617 254.289,-280.083 262.104,-272.929 255.937,-269.617"/>
</g>
<!-- Node45&#45;&gt;Node18 -->
<g id="edge66" class="edge"><title>Node45&#45;&gt;Node18</title>
<path fill="none" stroke="midnightblue" d="M1286.05,-163.177C1302.98,-153.241 1325.28,-140.149 1339.76,-131.655"/>
<polygon fill="midnightblue" stroke="midnightblue" points="1284.13,-160.243 1277.28,-168.324 1287.68,-166.28 1284.13,-160.243"/>
</g>
<!-- Node45&#45;&gt;Node21 -->
<g id="edge67" class="edge"><title>Node45&#45;&gt;Node21</title>
<path fill="none" stroke="midnightblue" d="M1308.17,-171.812C1343.19,-166.2 1391.62,-154.786 1428.5,-132 1452.43,-117.213 1472.2,-89.6002 1481.23,-75.6052"/>
<polygon fill="midnightblue" stroke="midnightblue" points="1307.58,-168.361 1298.21,-173.31 1308.62,-175.283 1307.58,-168.361"/>
</g>
<!-- Node45&#45;&gt;Node27 -->
<g id="edge65" class="edge"><title>Node45&#45;&gt;Node27</title>
<path fill="none" stroke="midnightblue" d="M1261.36,-158.445C1259.46,-143.779 1254.47,-123.864 1241.5,-112 1235.6,-106.602 1138.54,-86.2385 1082.55,-74.8435"/>
<polygon fill="midnightblue" stroke="midnightblue" points="1257.88,-158.788 1262.3,-168.417 1264.85,-158.134 1257.88,-158.788"/>
</g>
<!-- Node48&#45;&gt;Node17 -->
<g id="edge76" class="edge"><title>Node48&#45;&gt;Node17</title>
<path fill="none" stroke="midnightblue" d="M1448.5,-438.251C1448.5,-416.357 1448.5,-379.052 1448.5,-347 1448.5,-347 1448.5,-347 1448.5,-177 1448.5,-146.775 1447.88,-135.196 1428.5,-112 1413.56,-94.1213 1389.7,-82.4907 1370.74,-75.5412"/>
<polygon fill="midnightblue" stroke="midnightblue" points="1445,-438.442 1448.5,-448.442 1452,-438.442 1445,-438.442"/>
</g>
<!-- Node49 -->
<g id="node49" class="node"><title>Node49</title>
<g id="a_node49"><a xlink:href="../../db/d0b/ShiftRegisterOutRGB_8cpp.html" target="_top" xlink:title=" ">
<polygon fill="white" stroke="black" points="1476.5,-392.5 1476.5,-411.5 1606.5,-411.5 1606.5,-392.5 1476.5,-392.5"/>
<text text-anchor="middle" x="1541.5" y="-399.5" font-family="Helvetica,sans-Serif" font-size="10.00">ShiftRegisterOutRGB.cpp</text>
</a>
</g>
</g>
<!-- Node48&#45;&gt;Node49 -->
<g id="edge77" class="edge"><title>Node48&#45;&gt;Node49</title>
<path fill="none" stroke="midnightblue" d="M1472.31,-443.177C1489.42,-433.241 1511.97,-420.149 1526.6,-411.655"/>
<polygon fill="midnightblue" stroke="midnightblue" points="1470.33,-440.276 1463.44,-448.324 1473.85,-446.329 1470.33,-440.276"/>
</g>
</g>
</svg>
