<?xml version="1.0" encoding="UTF-8" standalone="no"?>
<!DOCTYPE svg PUBLIC "-//W3C//DTD SVG 1.1//EN"
 "http://www.w3.org/Graphics/SVG/1.1/DTD/svg11.dtd">
<!-- Generated by graphviz version 2.38.0 (20140413.2041)
 -->
<!-- Title: SOSFilter.hpp Pages: 1 -->
<svg width="985pt" height="532pt"
 viewBox="0.00 0.00 984.50 532.00" xmlns="http://www.w3.org/2000/svg" xmlns:xlink="http://www.w3.org/1999/xlink">
<g id="graph0" class="graph" transform="scale(1 1) rotate(0) translate(4 528)">
<title>SOSFilter.hpp</title>
<polygon fill="white" stroke="none" points="-4,4 -4,-528 980.5,-528 980.5,4 -4,4"/>
<!-- Node1 -->
<g id="node1" class="node"><title>Node1</title>
<g id="a_node1"><a xlink:title=" ">
<polygon fill="#bfbfbf" stroke="black" points="331,-504.5 331,-523.5 409,-523.5 409,-504.5 331,-504.5"/>
<text text-anchor="middle" x="370" y="-511.5" font-family="Helvetica,sans-Serif" font-size="10.00">SOSFilter.hpp</text>
</a>
</g>
</g>
<!-- Node2 -->
<g id="node2" class="node"><title>Node2</title>
<g id="a_node2"><a xlink:href="../../d5/db6/ArrayHelpers_8hpp.html" target="_top" xlink:title=" ">
<polygon fill="white" stroke="black" points="179,-392.5 179,-411.5 339,-411.5 339,-392.5 179,-392.5"/>
<text text-anchor="middle" x="259" y="-399.5" font-family="Helvetica,sans-Serif" font-size="10.00">AH/Containers/ArrayHelpers.hpp</text>
</a>
</g>
</g>
<!-- Node1&#45;&gt;Node2 -->
<g id="edge1" class="edge"><title>Node1&#45;&gt;Node2</title>
<path fill="none" stroke="midnightblue" d="M361.29,-504.368C342.648,-485.894 298.65,-442.293 274.887,-418.744"/>
<polygon fill="midnightblue" stroke="midnightblue" points="277.236,-416.144 267.67,-411.591 272.309,-421.117 277.236,-416.144"/>
</g>
<!-- Node22 -->
<g id="node22" class="node"><title>Node22</title>
<g id="a_node22"><a xlink:href="../../d1/dde/BiQuad_8hpp.html" target="_top" xlink:title=" ">
<polygon fill="white" stroke="black" points="367,-448.5 367,-467.5 465,-467.5 465,-448.5 367,-448.5"/>
<text text-anchor="middle" x="416" y="-455.5" font-family="Helvetica,sans-Serif" font-size="10.00">Filters/BiQuad.hpp</text>
</a>
</g>
</g>
<!-- Node1&#45;&gt;Node22 -->
<g id="edge33" class="edge"><title>Node1&#45;&gt;Node22</title>
<path fill="none" stroke="midnightblue" d="M377.596,-504.083C384.227,-496.298 394.021,-484.801 402.058,-475.367"/>
<polygon fill="midnightblue" stroke="midnightblue" points="404.725,-477.633 408.545,-467.751 399.396,-473.094 404.725,-477.633"/>
</g>
<!-- Node3 -->
<g id="node3" class="node"><title>Node3</title>
<g id="a_node3"><a xlink:href="../../d1/d65/Warnings_8hpp.html" target="_top" xlink:title=" ">
<polygon fill="white" stroke="black" points="66.5,-0.5 66.5,-19.5 199.5,-19.5 199.5,-0.5 66.5,-0.5"/>
<text text-anchor="middle" x="133" y="-7.5" font-family="Helvetica,sans-Serif" font-size="10.00">AH/Settings/Warnings.hpp</text>
</a>
</g>
</g>
<!-- Node2&#45;&gt;Node3 -->
<g id="edge2" class="edge"><title>Node2&#45;&gt;Node3</title>
<path fill="none" stroke="midnightblue" d="M178.825,-399.322C102.759,-392.955 0,-369.775 0,-291 0,-291 0,-291 0,-121 0,-70.7254 57.1293,-39.1005 96.5033,-23.2746"/>
<polygon fill="midnightblue" stroke="midnightblue" points="98.0081,-26.4459 106.085,-19.5897 95.4955,-19.9123 98.0081,-26.4459"/>
</g>
<!-- Node4 -->
<g id="node4" class="node"><title>Node4</title>
<g id="a_node4"><a xlink:href="../../de/d76/Array_8hpp.html" target="_top" xlink:title=" ">
<polygon fill="white" stroke="black" points="433.5,-336.5 433.5,-355.5 492.5,-355.5 492.5,-336.5 433.5,-336.5"/>
<text text-anchor="middle" x="463" y="-343.5" font-family="Helvetica,sans-Serif" font-size="10.00">Array.hpp</text>
</a>
</g>
</g>
<!-- Node2&#45;&gt;Node4 -->
<g id="edge3" class="edge"><title>Node2&#45;&gt;Node4</title>
<path fill="none" stroke="midnightblue" d="M291.324,-392.444C327.215,-382.943 385.15,-367.607 423.65,-357.416"/>
<polygon fill="midnightblue" stroke="midnightblue" points="424.705,-360.758 433.476,-354.815 422.914,-353.991 424.705,-360.758"/>
</g>
<!-- Node7 -->
<g id="node7" class="node"><title>Node7</title>
<g id="a_node7"><a xlink:href="../../dd/d80/PrintStream_8hpp.html" target="_top" xlink:title=" ">
<polygon fill="white" stroke="black" points="141.5,-112.5 141.5,-131.5 300.5,-131.5 300.5,-112.5 141.5,-112.5"/>
<text text-anchor="middle" x="221" y="-119.5" font-family="Helvetica,sans-Serif" font-size="10.00">AH/PrintStream/PrintStream.hpp</text>
</a>
</g>
</g>
<!-- Node2&#45;&gt;Node7 -->
<g id="edge32" class="edge"><title>Node2&#45;&gt;Node7</title>
<path fill="none" stroke="midnightblue" d="M253.716,-392.231C243.275,-374.043 221,-330.601 221,-291 221,-291 221,-291 221,-233 221,-200.948 221,-163.643 221,-141.749"/>
<polygon fill="midnightblue" stroke="midnightblue" points="224.5,-141.558 221,-131.558 217.5,-141.558 224.5,-141.558"/>
</g>
<!-- Node21 -->
<g id="node21" class="node"><title>Node21</title>
<g id="a_node21"><a xlink:title=" ">
<polygon fill="white" stroke="#bfbfbf" points="249.5,-336.5 249.5,-355.5 344.5,-355.5 344.5,-336.5 249.5,-336.5"/>
<text text-anchor="middle" x="297" y="-343.5" font-family="Helvetica,sans-Serif" font-size="10.00">AH/STL/algorithm</text>
</a>
</g>
</g>
<!-- Node2&#45;&gt;Node21 -->
<g id="edge31" class="edge"><title>Node2&#45;&gt;Node21</title>
<path fill="none" stroke="midnightblue" d="M265.275,-392.083C270.642,-384.455 278.518,-373.264 285.079,-363.941"/>
<polygon fill="midnightblue" stroke="midnightblue" points="287.949,-365.943 290.842,-355.751 282.225,-361.915 287.949,-365.943"/>
</g>
<!-- Node4&#45;&gt;Node3 -->
<g id="edge4" class="edge"><title>Node4&#45;&gt;Node3</title>
<path fill="none" stroke="midnightblue" d="M433.452,-340.54C337.072,-325.593 38,-275.919 38,-235 38,-235 38,-235 38,-121 38,-77.7385 80.6084,-43.0862 108.755,-24.9149"/>
<polygon fill="midnightblue" stroke="midnightblue" points="110.661,-27.851 117.313,-19.6042 106.97,-21.9032 110.661,-27.851"/>
</g>
<!-- Node5 -->
<g id="node5" class="node"><title>Node5</title>
<g id="a_node5"><a xlink:href="../../d1/d93/Error_8hpp.html" target="_top" xlink:title=" ">
<polygon fill="white" stroke="black" points="368,-280.5 368,-299.5 466,-299.5 466,-280.5 368,-280.5"/>
<text text-anchor="middle" x="417" y="-287.5" font-family="Helvetica,sans-Serif" font-size="10.00">AH/Error/Error.hpp</text>
</a>
</g>
</g>
<!-- Node4&#45;&gt;Node5 -->
<g id="edge5" class="edge"><title>Node4&#45;&gt;Node5</title>
<path fill="none" stroke="midnightblue" d="M455.404,-336.083C448.773,-328.298 438.979,-316.801 430.942,-307.367"/>
<polygon fill="midnightblue" stroke="midnightblue" points="433.604,-305.094 424.455,-299.751 428.275,-309.633 433.604,-305.094"/>
</g>
<!-- Node15 -->
<g id="node15" class="node"><title>Node15</title>
<g id="a_node15"><a xlink:title=" ">
<polygon fill="white" stroke="#bfbfbf" points="740,-56.5 740,-75.5 792,-75.5 792,-56.5 740,-56.5"/>
<text text-anchor="middle" x="766" y="-63.5" font-family="Helvetica,sans-Serif" font-size="10.00">stddef.h</text>
</a>
</g>
</g>
<!-- Node4&#45;&gt;Node15 -->
<g id="edge30" class="edge"><title>Node4&#45;&gt;Node15</title>
<path fill="none" stroke="midnightblue" d="M492.541,-339.94C564.686,-326.747 744,-288.568 744,-235 744,-235 744,-235 744,-177 744,-144.328 753.447,-107.24 759.96,-85.5533"/>
<polygon fill="midnightblue" stroke="midnightblue" points="763.391,-86.3103 763.033,-75.7215 756.709,-84.2221 763.391,-86.3103"/>
</g>
<!-- Node19 -->
<g id="node19" class="node"><title>Node19</title>
<g id="a_node19"><a xlink:title=" ">
<polygon fill="white" stroke="#bfbfbf" points="772.5,-280.5 772.5,-299.5 857.5,-299.5 857.5,-280.5 772.5,-280.5"/>
<text text-anchor="middle" x="815" y="-287.5" font-family="Helvetica,sans-Serif" font-size="10.00">AH/STL/iterator</text>
</a>
</g>
</g>
<!-- Node4&#45;&gt;Node19 -->
<g id="edge28" class="edge"><title>Node4&#45;&gt;Node19</title>
<path fill="none" stroke="midnightblue" d="M492.737,-340.516C545.954,-332.481 660.986,-315.058 758,-300 759.454,-299.774 760.929,-299.545 762.417,-299.313"/>
<polygon fill="midnightblue" stroke="midnightblue" points="763.023,-302.761 772.362,-297.757 761.941,-295.845 763.023,-302.761"/>
</g>
<!-- Node20 -->
<g id="node20" class="node"><title>Node20</title>
<g id="a_node20"><a xlink:title=" ">
<polygon fill="white" stroke="#bfbfbf" points="875.5,-280.5 875.5,-299.5 976.5,-299.5 976.5,-280.5 875.5,-280.5"/>
<text text-anchor="middle" x="926" y="-287.5" font-family="Helvetica,sans-Serif" font-size="10.00">AH/STL/type_traits</text>
</a>
</g>
</g>
<!-- Node4&#45;&gt;Node20 -->
<g id="edge29" class="edge"><title>Node4&#45;&gt;Node20</title>
<path fill="none" stroke="midnightblue" d="M492.624,-342.078C557.868,-335.561 719.103,-319.002 865.232,-300.055"/>
<polygon fill="midnightblue" stroke="midnightblue" points="865.816,-303.509 875.28,-298.745 864.911,-296.567 865.816,-303.509"/>
</g>
<!-- Node5&#45;&gt;Node3 -->
<g id="edge6" class="edge"><title>Node5&#45;&gt;Node3</title>
<path fill="none" stroke="midnightblue" d="M367.78,-283.525C273.346,-271.645 76,-239.572 76,-179 76,-179 76,-179 76,-121 76,-84.3005 101.321,-47.6567 118.21,-27.2973"/>
<polygon fill="midnightblue" stroke="midnightblue" points="120.954,-29.475 124.833,-19.6161 115.652,-24.9037 120.954,-29.475"/>
</g>
<!-- Node6 -->
<g id="node6" class="node"><title>Node6</title>
<g id="a_node6"><a xlink:href="../../df/dee/Debug_8hpp.html" target="_top" xlink:title=" ">
<polygon fill="white" stroke="black" points="360.5,-224.5 360.5,-243.5 473.5,-243.5 473.5,-224.5 360.5,-224.5"/>
<text text-anchor="middle" x="417" y="-231.5" font-family="Helvetica,sans-Serif" font-size="10.00">AH/Debug/Debug.hpp</text>
</a>
</g>
</g>
<!-- Node5&#45;&gt;Node6 -->
<g id="edge7" class="edge"><title>Node5&#45;&gt;Node6</title>
<path fill="none" stroke="midnightblue" d="M417,-280.083C417,-273.006 417,-262.861 417,-253.986"/>
<polygon fill="midnightblue" stroke="midnightblue" points="420.5,-253.751 417,-243.751 413.5,-253.751 420.5,-253.751"/>
</g>
<!-- Node6&#45;&gt;Node3 -->
<g id="edge8" class="edge"><title>Node6&#45;&gt;Node3</title>
<path fill="none" stroke="midnightblue" d="M360.442,-231.213C293.238,-225.689 183.722,-205.206 132,-132 110.459,-101.511 119.305,-55.0463 126.731,-29.4763"/>
<polygon fill="midnightblue" stroke="midnightblue" points="130.171,-30.2061 129.832,-19.6167 123.493,-28.1062 130.171,-30.2061"/>
</g>
<!-- Node6&#45;&gt;Node7 -->
<g id="edge9" class="edge"><title>Node6&#45;&gt;Node7</title>
<path fill="none" stroke="midnightblue" d="M398.259,-224.372C379.671,-215.666 350.501,-201.601 326,-188 296.446,-171.593 263.467,-150.74 242.493,-137.141"/>
<polygon fill="midnightblue" stroke="midnightblue" points="244.309,-134.147 234.02,-131.618 240.486,-140.011 244.309,-134.147"/>
</g>
<!-- Node9 -->
<g id="node9" class="node"><title>Node9</title>
<g id="a_node9"><a xlink:href="../../d2/dd5/SettingsWrapper_8hpp.html" target="_top" xlink:title=" ">
<polygon fill="white" stroke="black" points="335,-168.5 335,-187.5 499,-187.5 499,-168.5 335,-168.5"/>
<text text-anchor="middle" x="417" y="-175.5" font-family="Helvetica,sans-Serif" font-size="10.00">AH/Settings/SettingsWrapper.hpp</text>
</a>
</g>
</g>
<!-- Node6&#45;&gt;Node9 -->
<g id="edge12" class="edge"><title>Node6&#45;&gt;Node9</title>
<path fill="none" stroke="midnightblue" d="M411.834,-224.083C410.324,-216.927 409.894,-206.635 410.542,-197.691"/>
<polygon fill="midnightblue" stroke="midnightblue" points="414.015,-198.126 411.869,-187.751 407.077,-197.2 414.015,-198.126"/>
</g>
<!-- Node18 -->
<g id="node18" class="node"><title>Node18</title>
<g id="a_node18"><a xlink:href="../../d7/d52/DebugVal_8hpp.html" target="_top" xlink:title=" ">
<polygon fill="white" stroke="black" points="517,-168.5 517,-187.5 595,-187.5 595,-168.5 517,-168.5"/>
<text text-anchor="middle" x="556" y="-175.5" font-family="Helvetica,sans-Serif" font-size="10.00">DebugVal.hpp</text>
</a>
</g>
</g>
<!-- Node6&#45;&gt;Node18 -->
<g id="edge27" class="edge"><title>Node6&#45;&gt;Node18</title>
<path fill="none" stroke="midnightblue" d="M439.025,-224.444C462.104,-215.478 498.562,-201.314 524.641,-191.183"/>
<polygon fill="midnightblue" stroke="midnightblue" points="526.024,-194.4 534.078,-187.516 523.489,-187.875 526.024,-194.4"/>
</g>
<!-- Node7&#45;&gt;Node3 -->
<g id="edge10" class="edge"><title>Node7&#45;&gt;Node3</title>
<path fill="none" stroke="midnightblue" d="M211.12,-112.209C201.596,-103.492 187.043,-89.5197 176,-76 163.602,-60.8219 151.468,-42.011 143.268,-28.5372"/>
<polygon fill="midnightblue" stroke="midnightblue" points="146.18,-26.5861 138.045,-19.7976 140.171,-30.177 146.18,-26.5861"/>
</g>
<!-- Node8 -->
<g id="node8" class="node"><title>Node8</title>
<g id="a_node8"><a xlink:title=" ">
<polygon fill="white" stroke="#bfbfbf" points="314,-0.5 314,-19.5 372,-19.5 372,-0.5 314,-0.5"/>
<text text-anchor="middle" x="343" y="-7.5" font-family="Helvetica,sans-Serif" font-size="10.00">Arduino.h</text>
</a>
</g>
</g>
<!-- Node7&#45;&gt;Node8 -->
<g id="edge11" class="edge"><title>Node7&#45;&gt;Node8</title>
<path fill="none" stroke="midnightblue" d="M273.901,-112.46C313.432,-104.872 362.679,-92.437 375,-76 386.478,-60.688 373.011,-40.6184 360.195,-26.8541"/>
<polygon fill="midnightblue" stroke="midnightblue" points="362.459,-24.1679 352.918,-19.5621 357.504,-29.1127 362.459,-24.1679"/>
</g>
<!-- Node9&#45;&gt;Node3 -->
<g id="edge13" class="edge"><title>Node9&#45;&gt;Node3</title>
<path fill="none" stroke="midnightblue" d="M404.486,-168.352C384.817,-155.019 345.17,-129.191 309,-112 266.337,-91.7234 249.838,-99.7389 209,-76 185.697,-62.454 162.707,-41.4324 148.22,-26.9841"/>
<polygon fill="midnightblue" stroke="midnightblue" points="150.6,-24.4119 141.099,-19.7228 145.602,-29.3132 150.6,-24.4119"/>
</g>
<!-- Node9&#45;&gt;Node6 -->
<g id="edge26" class="edge"><title>Node9&#45;&gt;Node6</title>
<path fill="none" stroke="midnightblue" d="M422.131,-187.751C423.657,-194.858 424.104,-205.136 423.472,-214.101"/>
<polygon fill="midnightblue" stroke="midnightblue" points="419.993,-213.713 422.166,-224.083 426.934,-214.622 419.993,-213.713"/>
</g>
<!-- Node10 -->
<g id="node10" class="node"><title>Node10</title>
<g id="a_node10"><a xlink:href="../../dc/dc7/NamespaceSettings_8hpp.html" target="_top" xlink:title=" ">
<polygon fill="white" stroke="black" points="470,-0.5 470,-19.5 594,-19.5 594,-0.5 470,-0.5"/>
<text text-anchor="middle" x="532" y="-7.5" font-family="Helvetica,sans-Serif" font-size="10.00">NamespaceSettings.hpp</text>
</a>
</g>
</g>
<!-- Node9&#45;&gt;Node10 -->
<g id="edge14" class="edge"><title>Node9&#45;&gt;Node10</title>
<path fill="none" stroke="midnightblue" d="M419.022,-168.067C422.637,-154.112 431.521,-127.17 449,-112 487.849,-78.2823 528.808,-117.648 559,-76 569.809,-61.0887 558.532,-41.205 547.428,-27.3723"/>
<polygon fill="midnightblue" stroke="midnightblue" points="549.927,-24.9108 540.736,-19.6401 544.634,-29.4919 549.927,-24.9108"/>
</g>
<!-- Node11 -->
<g id="node11" class="node"><title>Node11</title>
<g id="a_node11"><a xlink:href="../../db/d02/Settings_8hpp.html" target="_top" xlink:title="All user settings and debugging options can be changed here.">
<polygon fill="white" stroke="black" points="458.5,-112.5 458.5,-131.5 529.5,-131.5 529.5,-112.5 458.5,-112.5"/>
<text text-anchor="middle" x="494" y="-119.5" font-family="Helvetica,sans-Serif" font-size="10.00">Settings.hpp</text>
</a>
</g>
</g>
<!-- Node9&#45;&gt;Node11 -->
<g id="edge15" class="edge"><title>Node9&#45;&gt;Node11</title>
<path fill="none" stroke="midnightblue" d="M429.371,-168.324C441.158,-160.058 459.132,-147.453 473.136,-137.632"/>
<polygon fill="midnightblue" stroke="midnightblue" points="475.482,-140.262 481.659,-131.655 471.462,-134.531 475.482,-140.262"/>
</g>
<!-- Node17 -->
<g id="node17" class="node"><title>Node17</title>
<g id="a_node17"><a xlink:href="../../d9/d98/TeensyUSBTypes_8hpp.html" target="_top" xlink:title=" ">
<polygon fill="white" stroke="black" points="548,-112.5 548,-131.5 716,-131.5 716,-112.5 548,-112.5"/>
<text text-anchor="middle" x="632" y="-119.5" font-family="Helvetica,sans-Serif" font-size="10.00">AH/Teensy/TeensyUSBTypes.hpp</text>
</a>
</g>
</g>
<!-- Node9&#45;&gt;Node17 -->
<g id="edge25" class="edge"><title>Node9&#45;&gt;Node17</title>
<path fill="none" stroke="midnightblue" d="M451.067,-168.444C488.18,-159.122 547.661,-144.183 588.215,-133.997"/>
<polygon fill="midnightblue" stroke="midnightblue" points="589.246,-137.347 598.092,-131.516 587.541,-130.558 589.246,-137.347"/>
</g>
<!-- Node12 -->
<g id="node12" class="node"><title>Node12</title>
<g id="a_node12"><a xlink:href="../../dc/d50/Frequency_8hpp.html" target="_top" xlink:title=" ">
<polygon fill="white" stroke="black" points="422,-56.5 422,-75.5 550,-75.5 550,-56.5 422,-56.5"/>
<text text-anchor="middle" x="486" y="-63.5" font-family="Helvetica,sans-Serif" font-size="10.00">AH/Types/Frequency.hpp</text>
</a>
</g>
</g>
<!-- Node11&#45;&gt;Node12 -->
<g id="edge16" class="edge"><title>Node11&#45;&gt;Node12</title>
<path fill="none" stroke="midnightblue" d="M492.679,-112.083C491.619,-104.927 490.094,-94.6353 488.769,-85.6911"/>
<polygon fill="midnightblue" stroke="midnightblue" points="492.224,-85.1302 487.296,-75.7511 485.3,-86.1561 492.224,-85.1302"/>
</g>
<!-- Node13 -->
<g id="node13" class="node"><title>Node13</title>
<g id="a_node13"><a xlink:href="../../d7/d7c/ADCConfig_8hpp.html" target="_top" xlink:title="This file contains the platform&#45;specific ADC resolutions. By default, the library automatically selec...">
<polygon fill="white" stroke="black" points="218,-56.5 218,-75.5 366,-75.5 366,-56.5 218,-56.5"/>
<text text-anchor="middle" x="292" y="-63.5" font-family="Helvetica,sans-Serif" font-size="10.00">AH/Hardware/ADCConfig.hpp</text>
</a>
</g>
</g>
<!-- Node11&#45;&gt;Node13 -->
<g id="edge19" class="edge"><title>Node11&#45;&gt;Node13</title>
<path fill="none" stroke="midnightblue" d="M461.992,-112.444C427.271,-103.162 371.712,-88.3093 333.623,-78.127"/>
<polygon fill="midnightblue" stroke="midnightblue" points="334.422,-74.7178 323.858,-75.5164 332.615,-81.4803 334.422,-74.7178"/>
</g>
<!-- Node14 -->
<g id="node14" class="node"><title>Node14</title>
<g id="a_node14"><a xlink:title=" ">
<polygon fill="white" stroke="#bfbfbf" points="606,-56.5 606,-75.5 654,-75.5 654,-56.5 606,-56.5"/>
<text text-anchor="middle" x="630" y="-63.5" font-family="Helvetica,sans-Serif" font-size="10.00">limits.h</text>
</a>
</g>
</g>
<!-- Node11&#45;&gt;Node14 -->
<g id="edge22" class="edge"><title>Node11&#45;&gt;Node14</title>
<path fill="none" stroke="midnightblue" d="M515.55,-112.444C538.031,-103.517 573.488,-89.4387 598.98,-79.3168"/>
<polygon fill="midnightblue" stroke="midnightblue" points="600.549,-82.4598 608.551,-75.5164 597.965,-75.9539 600.549,-82.4598"/>
</g>
<!-- Node11&#45;&gt;Node15 -->
<g id="edge23" class="edge"><title>Node11&#45;&gt;Node15</title>
<path fill="none" stroke="midnightblue" d="M529.854,-113.792C532.947,-113.181 536.028,-112.577 539,-112 620.735,-96.1243 643.958,-94.5792 729.775,-75.9357"/>
<polygon fill="midnightblue" stroke="midnightblue" points="730.675,-79.3216 739.696,-73.7653 729.179,-72.4833 730.675,-79.3216"/>
</g>
<!-- Node16 -->
<g id="node16" class="node"><title>Node16</title>
<g id="a_node16"><a xlink:title=" ">
<polygon fill="white" stroke="#bfbfbf" points="672.5,-56.5 672.5,-75.5 721.5,-75.5 721.5,-56.5 672.5,-56.5"/>
<text text-anchor="middle" x="697" y="-63.5" font-family="Helvetica,sans-Serif" font-size="10.00">stdint.h</text>
</a>
</g>
</g>
<!-- Node11&#45;&gt;Node16 -->
<g id="edge24" class="edge"><title>Node11&#45;&gt;Node16</title>
<path fill="none" stroke="midnightblue" d="M526.166,-112.444C563.261,-102.576 624.023,-86.4126 662.198,-76.2577"/>
<polygon fill="midnightblue" stroke="midnightblue" points="663.564,-79.5162 672.328,-73.5631 661.764,-72.7514 663.564,-79.5162"/>
</g>
<!-- Node12&#45;&gt;Node3 -->
<g id="edge17" class="edge"><title>Node12&#45;&gt;Node3</title>
<path fill="none" stroke="midnightblue" d="M430.066,-56.4435C367.195,-46.8259 265.228,-31.2275 198.638,-21.0409"/>
<polygon fill="midnightblue" stroke="midnightblue" points="199.087,-17.5689 188.672,-19.5164 198.028,-24.4884 199.087,-17.5689"/>
</g>
<!-- Node12&#45;&gt;Node10 -->
<g id="edge18" class="edge"><title>Node12&#45;&gt;Node10</title>
<path fill="none" stroke="midnightblue" d="M493.596,-56.083C500.227,-48.2982 510.021,-36.8015 518.058,-27.3665"/>
<polygon fill="midnightblue" stroke="midnightblue" points="520.725,-29.6332 524.545,-19.7511 515.396,-25.0939 520.725,-29.6332"/>
</g>
<!-- Node13&#45;&gt;Node3 -->
<g id="edge20" class="edge"><title>Node13&#45;&gt;Node3</title>
<path fill="none" stroke="midnightblue" d="M266.806,-56.4435C240.057,-47.3591 197.597,-32.9388 167.695,-22.7831"/>
<polygon fill="midnightblue" stroke="midnightblue" points="168.671,-19.4182 158.076,-19.5164 166.419,-26.0464 168.671,-19.4182"/>
</g>
<!-- Node13&#45;&gt;Node8 -->
<g id="edge21" class="edge"><title>Node13&#45;&gt;Node8</title>
<path fill="none" stroke="midnightblue" d="M300.422,-56.083C307.848,-48.2195 318.852,-36.5688 327.812,-27.0813"/>
<polygon fill="midnightblue" stroke="midnightblue" points="330.413,-29.4244 334.735,-19.7511 325.324,-24.618 330.413,-29.4244"/>
</g>
<!-- Node22&#45;&gt;Node4 -->
<g id="edge34" class="edge"><title>Node22&#45;&gt;Node4</title>
<path fill="none" stroke="midnightblue" d="M406.694,-448.346C394.22,-435.656 374.865,-411.404 386,-392 394.615,-376.986 410.391,-366.504 425.43,-359.458"/>
<polygon fill="midnightblue" stroke="midnightblue" points="426.822,-362.669 434.628,-355.505 424.058,-356.238 426.822,-362.669"/>
</g>
<!-- Node23 -->
<g id="node23" class="node"><title>Node23</title>
<g id="a_node23"><a xlink:title=" ">
<polygon fill="white" stroke="#bfbfbf" points="553,-392.5 553,-411.5 635,-411.5 635,-392.5 553,-392.5"/>
<text text-anchor="middle" x="594" y="-399.5" font-family="Helvetica,sans-Serif" font-size="10.00">AH/STL/cmath</text>
</a>
</g>
</g>
<!-- Node22&#45;&gt;Node23 -->
<g id="edge35" class="edge"><title>Node22&#45;&gt;Node23</title>
<path fill="none" stroke="midnightblue" d="M444.205,-448.444C474.41,-439.28 522.511,-424.688 556.029,-414.519"/>
<polygon fill="midnightblue" stroke="midnightblue" points="557.374,-417.769 565.927,-411.516 555.342,-411.07 557.374,-417.769"/>
</g>
<!-- Node24 -->
<g id="node24" class="node"><title>Node24</title>
<g id="a_node24"><a xlink:href="../../d2/d03/TransferFunction_8hpp.html" target="_top" xlink:title=" ">
<polygon fill="white" stroke="black" points="395.5,-392.5 395.5,-411.5 534.5,-411.5 534.5,-392.5 395.5,-392.5"/>
<text text-anchor="middle" x="465" y="-399.5" font-family="Helvetica,sans-Serif" font-size="10.00">Filters/TransferFunction.hpp</text>
</a>
</g>
</g>
<!-- Node22&#45;&gt;Node24 -->
<g id="edge36" class="edge"><title>Node22&#45;&gt;Node24</title>
<path fill="none" stroke="midnightblue" d="M424.091,-448.083C431.155,-440.298 441.588,-428.801 450.149,-419.367"/>
<polygon fill="midnightblue" stroke="midnightblue" points="452.931,-421.509 457.059,-411.751 447.747,-416.805 452.931,-421.509"/>
</g>
<!-- Node24&#45;&gt;Node4 -->
<g id="edge37" class="edge"><title>Node24&#45;&gt;Node4</title>
<path fill="none" stroke="midnightblue" d="M464.67,-392.083C464.408,-385.006 464.032,-374.861 463.703,-365.986"/>
<polygon fill="midnightblue" stroke="midnightblue" points="467.192,-365.615 463.324,-355.751 460.197,-365.874 467.192,-365.615"/>
</g>
</g>
</svg>
