<?xml version="1.0" encoding="UTF-8" standalone="no"?>
<!DOCTYPE svg PUBLIC "-//W3C//DTD SVG 1.1//EN"
 "http://www.w3.org/Graphics/SVG/1.1/DTD/svg11.dtd">
<!-- Generated by graphviz version 2.38.0 (20140413.2041)
 -->
<!-- Title: Error.hpp Pages: 1 -->
<svg width="1415pt" height="420pt"
 viewBox="0.00 0.00 1414.50 420.00" xmlns="http://www.w3.org/2000/svg" xmlns:xlink="http://www.w3.org/1999/xlink">
<g id="graph0" class="graph" transform="scale(1 1) rotate(0) translate(4 416)">
<title>Error.hpp</title>
<polygon fill="white" stroke="none" points="-4,4 -4,-416 1410.5,-416 1410.5,4 -4,4"/>
<!-- Node1 -->
<g id="node1" class="node"><title>Node1</title>
<g id="a_node1"><a xlink:title=" ">
<polygon fill="#bfbfbf" stroke="black" points="1131.5,-392.5 1131.5,-411.5 1187.5,-411.5 1187.5,-392.5 1131.5,-392.5"/>
<text text-anchor="middle" x="1159.5" y="-399.5" font-family="Helvetica,sans-Serif" font-size="10.00">Error.hpp</text>
</a>
</g>
</g>
<!-- Node2 -->
<g id="node2" class="node"><title>Node2</title>
<g id="a_node2"><a xlink:href="../../de/d76/Array_8hpp.html" target="_top" xlink:title=" ">
<polygon fill="white" stroke="black" points="848,-336.5 848,-355.5 907,-355.5 907,-336.5 848,-336.5"/>
<text text-anchor="middle" x="877.5" y="-343.5" font-family="Helvetica,sans-Serif" font-size="10.00">Array.hpp</text>
</a>
</g>
</g>
<!-- Node1&#45;&gt;Node2 -->
<g id="edge1" class="edge"><title>Node1&#45;&gt;Node2</title>
<path fill="none" stroke="midnightblue" d="M1121.41,-393.705C1064.54,-382.816 958.641,-362.538 907.146,-352.677"/>
<polygon fill="midnightblue" stroke="midnightblue" points="1120.95,-397.182 1131.43,-395.625 1122.27,-390.307 1120.95,-397.182"/>
</g>
<!-- Node26 -->
<g id="node26" class="node"><title>Node26</title>
<g id="a_node26"><a xlink:href="../../d6/d3c/ExtendedInputOutput_8cpp.html" target="_top" xlink:title=" ">
<polygon fill="white" stroke="black" points="825.5,-112.5 825.5,-131.5 953.5,-131.5 953.5,-112.5 825.5,-112.5"/>
<text text-anchor="middle" x="889.5" y="-119.5" font-family="Helvetica,sans-Serif" font-size="10.00">ExtendedInputOutput.cpp</text>
</a>
</g>
</g>
<!-- Node1&#45;&gt;Node26 -->
<g id="edge59" class="edge"><title>Node1&#45;&gt;Node26</title>
<path fill="none" stroke="midnightblue" d="M1154.28,-382.39C1148.66,-360.65 1140.5,-323.511 1140.5,-291 1140.5,-291 1140.5,-291 1140.5,-233 1140.5,-199.976 1131.07,-187.607 1104.5,-168 1080.91,-150.594 1008.1,-137.864 953.708,-130.472"/>
<polygon fill="midnightblue" stroke="midnightblue" points="1150.96,-383.502 1156.94,-392.249 1157.72,-381.683 1150.96,-383.502"/>
</g>
<!-- Node32 -->
<g id="node32" class="node"><title>Node32</title>
<g id="a_node32"><a xlink:href="../../da/d1f/ExtendedIOElement_8cpp.html" target="_top" xlink:title=" ">
<polygon fill="white" stroke="black" points="690,-168.5 690,-187.5 813,-187.5 813,-168.5 690,-168.5"/>
<text text-anchor="middle" x="751.5" y="-175.5" font-family="Helvetica,sans-Serif" font-size="10.00">ExtendedIOElement.cpp</text>
</a>
</g>
</g>
<!-- Node1&#45;&gt;Node32 -->
<g id="edge60" class="edge"><title>Node1&#45;&gt;Node32</title>
<path fill="none" stroke="midnightblue" d="M1120.98,-400.03C1045.79,-397.435 882.924,-388.16 838.5,-356 778.869,-312.83 758.035,-217.327 752.891,-187.844"/>
<polygon fill="midnightblue" stroke="midnightblue" points="1121.31,-403.542 1131.41,-400.366 1121.53,-396.545 1121.31,-403.542"/>
</g>
<!-- Node37 -->
<g id="node37" class="node"><title>Node37</title>
<g id="a_node37"><a xlink:href="../../d1/d40/BitArray_8hpp.html" target="_top" xlink:title=" ">
<polygon fill="white" stroke="black" points="1177,-168.5 1177,-187.5 1248,-187.5 1248,-168.5 1177,-168.5"/>
<text text-anchor="middle" x="1212.5" y="-175.5" font-family="Helvetica,sans-Serif" font-size="10.00">BitArray.hpp</text>
</a>
</g>
</g>
<!-- Node1&#45;&gt;Node37 -->
<g id="edge53" class="edge"><title>Node1&#45;&gt;Node37</title>
<path fill="none" stroke="midnightblue" d="M1163.97,-382.295C1174.86,-336.644 1202.51,-220.854 1210.38,-187.884"/>
<polygon fill="midnightblue" stroke="midnightblue" points="1160.5,-381.758 1161.58,-392.297 1167.3,-383.383 1160.5,-381.758"/>
</g>
<!-- Node38 -->
<g id="node38" class="node"><title>Node38</title>
<g id="a_node38"><a xlink:href="../../d4/d93/Updatable_8hpp.html" target="_top" xlink:title=" ">
<polygon fill="white" stroke="black" points="1206.5,-336.5 1206.5,-355.5 1286.5,-355.5 1286.5,-336.5 1206.5,-336.5"/>
<text text-anchor="middle" x="1246.5" y="-343.5" font-family="Helvetica,sans-Serif" font-size="10.00">Updatable.hpp</text>
</a>
</g>
</g>
<!-- Node1&#45;&gt;Node38 -->
<g id="edge57" class="edge"><title>Node1&#45;&gt;Node38</title>
<path fill="none" stroke="midnightblue" d="M1182.22,-386.901C1198.17,-376.999 1219,-364.071 1232.56,-355.655"/>
<polygon fill="midnightblue" stroke="midnightblue" points="1180.13,-384.077 1173.48,-392.324 1183.82,-390.024 1180.13,-384.077"/>
</g>
<!-- Node39 -->
<g id="node39" class="node"><title>Node39</title>
<g id="a_node39"><a xlink:href="../../d6/df4/Exit_8cpp.html" target="_top" xlink:title=" ">
<polygon fill="white" stroke="black" points="1305,-336.5 1305,-355.5 1358,-355.5 1358,-336.5 1305,-336.5"/>
<text text-anchor="middle" x="1331.5" y="-343.5" font-family="Helvetica,sans-Serif" font-size="10.00">Exit.cpp</text>
</a>
</g>
</g>
<!-- Node1&#45;&gt;Node39 -->
<g id="edge58" class="edge"><title>Node1&#45;&gt;Node39</title>
<path fill="none" stroke="midnightblue" d="M1196.39,-389.418C1229.03,-379.171 1275.86,-364.469 1304.94,-355.339"/>
<polygon fill="midnightblue" stroke="midnightblue" points="1195.25,-386.109 1186.75,-392.444 1197.34,-392.787 1195.25,-386.109"/>
</g>
<!-- Node3 -->
<g id="node3" class="node"><title>Node3</title>
<g id="a_node3"><a xlink:href="../../d5/db6/ArrayHelpers_8hpp.html" target="_top" xlink:title=" ">
<polygon fill="white" stroke="black" points="824.5,-224.5 824.5,-243.5 916.5,-243.5 916.5,-224.5 824.5,-224.5"/>
<text text-anchor="middle" x="870.5" y="-231.5" font-family="Helvetica,sans-Serif" font-size="10.00">ArrayHelpers.hpp</text>
</a>
</g>
</g>
<!-- Node2&#45;&gt;Node3 -->
<g id="edge2" class="edge"><title>Node2&#45;&gt;Node3</title>
<path fill="none" stroke="midnightblue" d="M855.326,-330.161C845.781,-322.424 835.647,-312.053 830.5,-300 821.342,-278.553 843.683,-255.873 858.54,-243.792"/>
<polygon fill="midnightblue" stroke="midnightblue" points="853.328,-333.038 863.422,-336.259 857.54,-327.447 853.328,-333.038"/>
</g>
<!-- Node5 -->
<g id="node5" class="node"><title>Node5</title>
<g id="a_node5"><a xlink:href="../../d7/def/AnalogMultiplex_8hpp.html" target="_top" xlink:title=" ">
<polygon fill="white" stroke="black" points="703.5,-112.5 703.5,-131.5 807.5,-131.5 807.5,-112.5 703.5,-112.5"/>
<text text-anchor="middle" x="755.5" y="-119.5" font-family="Helvetica,sans-Serif" font-size="10.00">AnalogMultiplex.hpp</text>
</a>
</g>
</g>
<!-- Node2&#45;&gt;Node5 -->
<g id="edge17" class="edge"><title>Node2&#45;&gt;Node5</title>
<path fill="none" stroke="midnightblue" d="M837.759,-343.472C776.331,-338.711 659.944,-319.611 607.5,-244 570.804,-191.094 674.719,-148.886 727.205,-131.544"/>
<polygon fill="midnightblue" stroke="midnightblue" points="837.629,-346.971 847.845,-344.162 838.107,-339.987 837.629,-346.971"/>
</g>
<!-- Node15 -->
<g id="node15" class="node"><title>Node15</title>
<g id="a_node15"><a xlink:href="../../d4/d35/Hardware-Types_8hpp.html" target="_top" xlink:title=" ">
<polygon fill="white" stroke="black" points="360,-280.5 360,-299.5 467,-299.5 467,-280.5 360,-280.5"/>
<text text-anchor="middle" x="413.5" y="-287.5" font-family="Helvetica,sans-Serif" font-size="10.00">Hardware&#45;Types.hpp</text>
</a>
</g>
</g>
<!-- Node2&#45;&gt;Node15 -->
<g id="edge18" class="edge"><title>Node2&#45;&gt;Node15</title>
<path fill="none" stroke="midnightblue" d="M837.697,-340.368C754.39,-330.673 561.594,-308.235 467.337,-297.266"/>
<polygon fill="midnightblue" stroke="midnightblue" points="837.431,-343.86 847.769,-341.54 838.241,-336.907 837.431,-343.86"/>
</g>
<!-- Node33 -->
<g id="node33" class="node"><title>Node33</title>
<g id="a_node33"><a xlink:href="../../d1/dde/BiQuad_8hpp.html" target="_top" xlink:title=" ">
<polygon fill="white" stroke="black" points="1024.5,-224.5 1024.5,-243.5 1092.5,-243.5 1092.5,-224.5 1024.5,-224.5"/>
<text text-anchor="middle" x="1058.5" y="-231.5" font-family="Helvetica,sans-Serif" font-size="10.00">BiQuad.hpp</text>
</a>
</g>
</g>
<!-- Node2&#45;&gt;Node33 -->
<g id="edge46" class="edge"><title>Node2&#45;&gt;Node33</title>
<path fill="none" stroke="midnightblue" d="M917.223,-342.061C970.877,-337.171 1062.16,-325.288 1082.5,-300 1096.22,-282.94 1078.3,-257.284 1066.8,-243.877"/>
<polygon fill="midnightblue" stroke="midnightblue" points="916.685,-338.595 907.026,-342.948 917.291,-345.568 916.685,-338.595"/>
</g>
<!-- Node34 -->
<g id="node34" class="node"><title>Node34</title>
<g id="a_node34"><a xlink:href="../../d2/d3b/FIRFilter_8hpp.html" target="_top" xlink:title=" ">
<polygon fill="white" stroke="black" points="872.5,-280.5 872.5,-299.5 946.5,-299.5 946.5,-280.5 872.5,-280.5"/>
<text text-anchor="middle" x="909.5" y="-287.5" font-family="Helvetica,sans-Serif" font-size="10.00">FIRFilter.hpp</text>
</a>
</g>
</g>
<!-- Node2&#45;&gt;Node34 -->
<g id="edge48" class="edge"><title>Node2&#45;&gt;Node34</title>
<path fill="none" stroke="midnightblue" d="M888.004,-327.275C893.473,-318.045 899.918,-307.17 904.314,-299.751"/>
<polygon fill="midnightblue" stroke="midnightblue" points="884.871,-325.696 882.784,-336.083 890.893,-329.264 884.871,-325.696"/>
</g>
<!-- Node35 -->
<g id="node35" class="node"><title>Node35</title>
<g id="a_node35"><a xlink:href="../../dc/d64/IIRFilter_8hpp.html" target="_top" xlink:title=" ">
<polygon fill="white" stroke="black" points="935,-224.5 935,-243.5 1006,-243.5 1006,-224.5 935,-224.5"/>
<text text-anchor="middle" x="970.5" y="-231.5" font-family="Helvetica,sans-Serif" font-size="10.00">IIRFilter.hpp</text>
</a>
</g>
</g>
<!-- Node2&#45;&gt;Node35 -->
<g id="edge49" class="edge"><title>Node2&#45;&gt;Node35</title>
<path fill="none" stroke="midnightblue" d="M866.865,-327.215C860.076,-313.325 854.146,-294.082 863.5,-280 872.421,-266.571 911.987,-252.35 940.408,-243.573"/>
<polygon fill="midnightblue" stroke="midnightblue" points="863.91,-329.11 871.753,-336.233 870.064,-325.774 863.91,-329.11"/>
</g>
<!-- Node36 -->
<g id="node36" class="node"><title>Node36</title>
<g id="a_node36"><a xlink:href="../../d2/d03/TransferFunction_8hpp.html" target="_top" xlink:title=" ">
<polygon fill="white" stroke="black" points="965,-280.5 965,-299.5 1074,-299.5 1074,-280.5 965,-280.5"/>
<text text-anchor="middle" x="1019.5" y="-287.5" font-family="Helvetica,sans-Serif" font-size="10.00">TransferFunction.hpp</text>
</a>
</g>
</g>
<!-- Node2&#45;&gt;Node36 -->
<g id="edge50" class="edge"><title>Node2&#45;&gt;Node36</title>
<path fill="none" stroke="midnightblue" d="M909.655,-332.772C936.328,-322.629 973.569,-308.467 997.105,-299.516"/>
<polygon fill="midnightblue" stroke="midnightblue" points="908.103,-329.618 900,-336.444 910.591,-336.16 908.103,-329.618"/>
</g>
<!-- Node4 -->
<g id="node4" class="node"><title>Node4</title>
<g id="a_node4"><a xlink:href="../../d2/d05/StaticSizeExtendedIOElement_8hpp.html" target="_top" xlink:title=" ">
<polygon fill="white" stroke="black" points="831.5,-168.5 831.5,-187.5 999.5,-187.5 999.5,-168.5 831.5,-168.5"/>
<text text-anchor="middle" x="915.5" y="-175.5" font-family="Helvetica,sans-Serif" font-size="10.00">StaticSizeExtendedIOElement.hpp</text>
</a>
</g>
</g>
<!-- Node3&#45;&gt;Node4 -->
<g id="edge3" class="edge"><title>Node3&#45;&gt;Node4</title>
<path fill="none" stroke="midnightblue" d="M884.547,-216.144C892.387,-206.736 901.829,-195.405 908.207,-187.751"/>
<polygon fill="midnightblue" stroke="midnightblue" points="881.644,-214.16 877.931,-224.083 887.021,-218.641 881.644,-214.16"/>
</g>
<!-- Node13 -->
<g id="node13" class="node"><title>Node13</title>
<g id="a_node13"><a xlink:href="../../df/ddc/SOSFilter_8hpp.html" target="_top" xlink:title=" ">
<polygon fill="white" stroke="black" points="1017.5,-168.5 1017.5,-187.5 1095.5,-187.5 1095.5,-168.5 1017.5,-168.5"/>
<text text-anchor="middle" x="1056.5" y="-175.5" font-family="Helvetica,sans-Serif" font-size="10.00">SOSFilter.hpp</text>
</a>
</g>
</g>
<!-- Node3&#45;&gt;Node13 -->
<g id="edge15" class="edge"><title>Node3&#45;&gt;Node13</title>
<path fill="none" stroke="midnightblue" d="M909.878,-221.568C944.966,-211.381 995.521,-196.703 1027.17,-187.516"/>
<polygon fill="midnightblue" stroke="midnightblue" points="908.6,-218.294 899.972,-224.444 910.552,-225.017 908.6,-218.294"/>
</g>
<!-- Node4&#45;&gt;Node5 -->
<g id="edge4" class="edge"><title>Node4&#45;&gt;Node5</title>
<path fill="none" stroke="midnightblue" d="M880.454,-165.172C850.326,-155.004 807.604,-140.585 780.734,-131.516"/>
<polygon fill="midnightblue" stroke="midnightblue" points="879.553,-168.562 890.148,-168.444 881.792,-161.929 879.553,-168.562"/>
</g>
<!-- Node6 -->
<g id="node6" class="node"><title>Node6</title>
<g id="a_node6"><a xlink:href="../../d2/d25/MAX7219_8hpp.html" target="_top" xlink:title=" ">
<polygon fill="white" stroke="black" points="912.5,-56.5 912.5,-75.5 990.5,-75.5 990.5,-56.5 912.5,-56.5"/>
<text text-anchor="middle" x="951.5" y="-63.5" font-family="Helvetica,sans-Serif" font-size="10.00">MAX7219.hpp</text>
</a>
</g>
</g>
<!-- Node4&#45;&gt;Node6 -->
<g id="edge5" class="edge"><title>Node4&#45;&gt;Node6</title>
<path fill="none" stroke="midnightblue" d="M937.674,-162.161C947.219,-154.424 957.353,-144.053 962.5,-132 970.59,-113.054 961.865,-88.6156 955.972,-75.7753"/>
<polygon fill="midnightblue" stroke="midnightblue" points="935.46,-159.447 929.578,-168.259 939.672,-165.038 935.46,-159.447"/>
</g>
<!-- Node7 -->
<g id="node7" class="node"><title>Node7</title>
<g id="a_node7"><a xlink:href="../../d8/d93/ShiftRegisterOutBase_8hpp.html" target="_top" xlink:title=" ">
<polygon fill="white" stroke="black" points="1152,-112.5 1152,-131.5 1283,-131.5 1283,-112.5 1152,-112.5"/>
<text text-anchor="middle" x="1217.5" y="-119.5" font-family="Helvetica,sans-Serif" font-size="10.00">ShiftRegisterOutBase.hpp</text>
</a>
</g>
</g>
<!-- Node4&#45;&gt;Node7 -->
<g id="edge6" class="edge"><title>Node4&#45;&gt;Node7</title>
<path fill="none" stroke="midnightblue" d="M973.304,-166.664C1030.38,-156.459 1116.62,-141.039 1169.87,-131.516"/>
<polygon fill="midnightblue" stroke="midnightblue" points="972.581,-163.238 963.353,-168.444 973.813,-170.129 972.581,-163.238"/>
</g>
<!-- Node8 -->
<g id="node8" class="node"><title>Node8</title>
<g id="a_node8"><a xlink:href="../../d0/db4/ShiftRegisterOut_8hpp.html" target="_top" xlink:title=" ">
<polygon fill="white" stroke="black" points="1298.5,-56.5 1298.5,-75.5 1406.5,-75.5 1406.5,-56.5 1298.5,-56.5"/>
<text text-anchor="middle" x="1352.5" y="-63.5" font-family="Helvetica,sans-Serif" font-size="10.00">ShiftRegisterOut.hpp</text>
</a>
</g>
</g>
<!-- Node7&#45;&gt;Node8 -->
<g id="edge7" class="edge"><title>Node7&#45;&gt;Node8</title>
<path fill="none" stroke="midnightblue" d="M1248.41,-108.638C1273.74,-98.504 1308.93,-84.4274 1331.21,-75.5164"/>
<polygon fill="midnightblue" stroke="midnightblue" points="1246.88,-105.48 1238.89,-112.444 1249.48,-111.979 1246.88,-105.48"/>
</g>
<!-- Node10 -->
<g id="node10" class="node"><title>Node10</title>
<g id="a_node10"><a xlink:href="../../d5/d47/ShiftRegisterOutBase_8ipp.html" target="_top" xlink:title=" ">
<polygon fill="white" stroke="black" points="1008.5,-56.5 1008.5,-75.5 1136.5,-75.5 1136.5,-56.5 1008.5,-56.5"/>
<text text-anchor="middle" x="1072.5" y="-63.5" font-family="Helvetica,sans-Serif" font-size="10.00">ShiftRegisterOutBase.ipp</text>
</a>
</g>
</g>
<!-- Node7&#45;&gt;Node10 -->
<g id="edge10" class="edge"><title>Node7&#45;&gt;Node10</title>
<path fill="none" stroke="midnightblue" d="M1179.67,-109.039C1150.82,-98.8786 1112.54,-84.5457 1090.29,-75.5164"/>
<polygon fill="midnightblue" stroke="midnightblue" points="1178.84,-112.458 1189.44,-112.444 1181.14,-105.848 1178.84,-112.458"/>
</g>
<!-- Node11 -->
<g id="node11" class="node"><title>Node11</title>
<g id="a_node11"><a xlink:href="../../d7/d88/SPIShiftRegisterOut_8hpp.html" target="_top" xlink:title=" ">
<polygon fill="white" stroke="black" points="1155,-56.5 1155,-75.5 1280,-75.5 1280,-56.5 1155,-56.5"/>
<text text-anchor="middle" x="1217.5" y="-63.5" font-family="Helvetica,sans-Serif" font-size="10.00">SPIShiftRegisterOut.hpp</text>
</a>
</g>
</g>
<!-- Node7&#45;&gt;Node11 -->
<g id="edge12" class="edge"><title>Node7&#45;&gt;Node11</title>
<path fill="none" stroke="midnightblue" d="M1217.5,-101.805C1217.5,-92.9102 1217.5,-82.7798 1217.5,-75.7511"/>
<polygon fill="midnightblue" stroke="midnightblue" points="1214,-102.083 1217.5,-112.083 1221,-102.083 1214,-102.083"/>
</g>
<!-- Node9 -->
<g id="node9" class="node"><title>Node9</title>
<g id="a_node9"><a xlink:href="../../de/d95/ShiftRegisterOut_8ipp.html" target="_top" xlink:title=" ">
<polygon fill="white" stroke="black" points="1300,-0.5 1300,-19.5 1405,-19.5 1405,-0.5 1300,-0.5"/>
<text text-anchor="middle" x="1352.5" y="-7.5" font-family="Helvetica,sans-Serif" font-size="10.00">ShiftRegisterOut.ipp</text>
</a>
</g>
</g>
<!-- Node8&#45;&gt;Node9 -->
<g id="edge8" class="edge"><title>Node8&#45;&gt;Node9</title>
<path fill="none" stroke="midnightblue" d="M1346.03,-46.1005C1345.4,-37.1357 1345.84,-26.8579 1347.37,-19.7511"/>
<polygon fill="midnightblue" stroke="midnightblue" points="1342.57,-46.6216 1347.33,-56.083 1349.51,-45.7134 1342.57,-46.6216"/>
</g>
<!-- Node9&#45;&gt;Node8 -->
<g id="edge9" class="edge"><title>Node9&#45;&gt;Node8</title>
<path fill="none" stroke="midnightblue" d="M1358.96,-29.6911C1359.61,-38.6353 1359.18,-48.9272 1357.67,-56.083"/>
<polygon fill="midnightblue" stroke="midnightblue" points="1362.42,-29.2002 1357.63,-19.7511 1355.48,-30.1262 1362.42,-29.2002"/>
</g>
<!-- Node10&#45;&gt;Node7 -->
<g id="edge11" class="edge"><title>Node10&#45;&gt;Node7</title>
<path fill="none" stroke="midnightblue" d="M1110.21,-78.9158C1139.03,-89.064 1177.31,-103.399 1199.61,-112.444"/>
<polygon fill="midnightblue" stroke="midnightblue" points="1111.04,-75.5013 1100.45,-75.5164 1108.74,-82.1116 1111.04,-75.5013"/>
</g>
<!-- Node12 -->
<g id="node12" class="node"><title>Node12</title>
<g id="a_node12"><a xlink:href="../../da/d45/SPIShiftRegisterOut_8ipp.html" target="_top" xlink:title=" ">
<polygon fill="white" stroke="black" points="1156.5,-0.5 1156.5,-19.5 1278.5,-19.5 1278.5,-0.5 1156.5,-0.5"/>
<text text-anchor="middle" x="1217.5" y="-7.5" font-family="Helvetica,sans-Serif" font-size="10.00">SPIShiftRegisterOut.ipp</text>
</a>
</g>
</g>
<!-- Node11&#45;&gt;Node12 -->
<g id="edge13" class="edge"><title>Node11&#45;&gt;Node12</title>
<path fill="none" stroke="midnightblue" d="M1211.03,-46.1005C1210.4,-37.1357 1210.84,-26.8579 1212.37,-19.7511"/>
<polygon fill="midnightblue" stroke="midnightblue" points="1207.57,-46.6216 1212.33,-56.083 1214.51,-45.7134 1207.57,-46.6216"/>
</g>
<!-- Node12&#45;&gt;Node11 -->
<g id="edge14" class="edge"><title>Node12&#45;&gt;Node11</title>
<path fill="none" stroke="midnightblue" d="M1223.96,-29.6911C1224.61,-38.6353 1224.18,-48.9272 1222.67,-56.083"/>
<polygon fill="midnightblue" stroke="midnightblue" points="1227.42,-29.2002 1222.63,-19.7511 1220.48,-30.1262 1227.42,-29.2002"/>
</g>
<!-- Node14 -->
<g id="node14" class="node"><title>Node14</title>
<g id="a_node14"><a xlink:href="../../d4/d40/Butterworth_8hpp.html" target="_top" xlink:title=" ">
<polygon fill="white" stroke="black" points="1009.5,-112.5 1009.5,-131.5 1095.5,-131.5 1095.5,-112.5 1009.5,-112.5"/>
<text text-anchor="middle" x="1052.5" y="-119.5" font-family="Helvetica,sans-Serif" font-size="10.00">Butterworth.hpp</text>
</a>
</g>
</g>
<!-- Node13&#45;&gt;Node14 -->
<g id="edge16" class="edge"><title>Node13&#45;&gt;Node14</title>
<path fill="none" stroke="midnightblue" d="M1055.1,-158.101C1054.44,-149.136 1053.67,-138.858 1053.15,-131.751"/>
<polygon fill="midnightblue" stroke="midnightblue" points="1051.61,-158.369 1055.84,-168.083 1058.59,-157.852 1051.61,-158.369"/>
</g>
<!-- Node16 -->
<g id="node16" class="node"><title>Node16</title>
<g id="a_node16"><a xlink:href="../../d9/d4b/ButtonMatrix_8hpp.html" target="_top" xlink:title=" ">
<polygon fill="white" stroke="black" points="82,-168.5 82,-187.5 173,-187.5 173,-168.5 82,-168.5"/>
<text text-anchor="middle" x="127.5" y="-175.5" font-family="Helvetica,sans-Serif" font-size="10.00">ButtonMatrix.hpp</text>
</a>
</g>
</g>
<!-- Node15&#45;&gt;Node16 -->
<g id="edge19" class="edge"><title>Node15&#45;&gt;Node16</title>
<path fill="none" stroke="midnightblue" d="M381.587,-276.726C323.137,-254.245 200.278,-206.991 149.838,-187.591"/>
<polygon fill="midnightblue" stroke="midnightblue" points="380.468,-280.045 391.058,-280.368 382.981,-273.512 380.468,-280.045"/>
</g>
<!-- Node18 -->
<g id="node18" class="node"><title>Node18</title>
<g id="a_node18"><a xlink:href="../../d4/d57/ExtendedIOElement_8hpp.html" target="_top" xlink:title=" ">
<polygon fill="white" stroke="black" points="617,-224.5 617,-243.5 740,-243.5 740,-224.5 617,-224.5"/>
<text text-anchor="middle" x="678.5" y="-231.5" font-family="Helvetica,sans-Serif" font-size="10.00">ExtendedIOElement.hpp</text>
</a>
</g>
</g>
<!-- Node15&#45;&gt;Node18 -->
<g id="edge22" class="edge"><title>Node15&#45;&gt;Node18</title>
<path fill="none" stroke="midnightblue" d="M465.472,-278.41C515.554,-268.204 590.364,-252.96 636.706,-243.516"/>
<polygon fill="midnightblue" stroke="midnightblue" points="464.59,-275.017 455.49,-280.444 465.988,-281.876 464.59,-275.017"/>
</g>
<!-- Node27 -->
<g id="node27" class="node"><title>Node27</title>
<g id="a_node27"><a xlink:href="../../d8/df3/FilteredAnalog_8hpp.html" target="_top" xlink:title=" ">
<polygon fill="white" stroke="black" points="189.5,-112.5 189.5,-131.5 287.5,-131.5 287.5,-112.5 189.5,-112.5"/>
<text text-anchor="middle" x="238.5" y="-119.5" font-family="Helvetica,sans-Serif" font-size="10.00">FilteredAnalog.hpp</text>
</a>
</g>
</g>
<!-- Node15&#45;&gt;Node27 -->
<g id="edge45" class="edge"><title>Node15&#45;&gt;Node27</title>
<path fill="none" stroke="midnightblue" d="M396.726,-273.088C360.383,-238.615 275.407,-158.009 247.533,-131.568"/>
<polygon fill="midnightblue" stroke="midnightblue" points="394.427,-275.732 404.091,-280.075 399.245,-270.654 394.427,-275.732"/>
</g>
<!-- Node17 -->
<g id="node17" class="node"><title>Node17</title>
<g id="a_node17"><a xlink:href="../../d5/d41/ButtonMatrix_8ipp.html" target="_top" xlink:title=" ">
<polygon fill="white" stroke="black" points="83.5,-112.5 83.5,-131.5 171.5,-131.5 171.5,-112.5 83.5,-112.5"/>
<text text-anchor="middle" x="127.5" y="-119.5" font-family="Helvetica,sans-Serif" font-size="10.00">ButtonMatrix.ipp</text>
</a>
</g>
</g>
<!-- Node16&#45;&gt;Node17 -->
<g id="edge20" class="edge"><title>Node16&#45;&gt;Node17</title>
<path fill="none" stroke="midnightblue" d="M121.028,-158.101C120.396,-149.136 120.843,-138.858 122.369,-131.751"/>
<polygon fill="midnightblue" stroke="midnightblue" points="117.566,-158.622 122.334,-168.083 124.507,-157.713 117.566,-158.622"/>
</g>
<!-- Node17&#45;&gt;Node16 -->
<g id="edge21" class="edge"><title>Node17&#45;&gt;Node16</title>
<path fill="none" stroke="midnightblue" d="M133.958,-141.691C134.606,-150.635 134.176,-160.927 132.666,-168.083"/>
<polygon fill="midnightblue" stroke="midnightblue" points="137.423,-141.2 132.631,-131.751 130.485,-142.126 137.423,-141.2"/>
</g>
<!-- Node18&#45;&gt;Node4 -->
<g id="edge42" class="edge"><title>Node18&#45;&gt;Node4</title>
<path fill="none" stroke="midnightblue" d="M725.824,-222.217C770.608,-212.013 836.936,-196.901 878.122,-187.516"/>
<polygon fill="midnightblue" stroke="midnightblue" points="725.026,-218.809 716.053,-224.444 726.581,-225.634 725.026,-218.809"/>
</g>
<!-- Node19 -->
<g id="node19" class="node"><title>Node19</title>
<g id="a_node19"><a xlink:href="../../dd/ddf/ExtendedInputOutput_8hpp.html" target="_top" xlink:title=" ">
<polygon fill="white" stroke="black" points="432.5,-168.5 432.5,-187.5 560.5,-187.5 560.5,-168.5 432.5,-168.5"/>
<text text-anchor="middle" x="496.5" y="-175.5" font-family="Helvetica,sans-Serif" font-size="10.00">ExtendedInputOutput.hpp</text>
</a>
</g>
</g>
<!-- Node18&#45;&gt;Node19 -->
<g id="edge23" class="edge"><title>Node18&#45;&gt;Node19</title>
<path fill="none" stroke="midnightblue" d="M639.969,-221.568C605.636,-211.381 556.167,-196.703 525.204,-187.516"/>
<polygon fill="midnightblue" stroke="midnightblue" points="639.079,-224.954 649.662,-224.444 641.07,-218.244 639.079,-224.954"/>
</g>
<!-- Node18&#45;&gt;Node26 -->
<g id="edge43" class="edge"><title>Node18&#45;&gt;Node26</title>
<path fill="none" stroke="midnightblue" d="M673.48,-214.508C670.788,-200.19 669.902,-180.717 680.5,-168 690.316,-156.22 774.546,-140.898 833.03,-131.515"/>
<polygon fill="midnightblue" stroke="midnightblue" points="670.07,-215.298 675.73,-224.254 676.891,-213.723 670.07,-215.298"/>
</g>
<!-- Node18&#45;&gt;Node32 -->
<g id="edge44" class="edge"><title>Node18&#45;&gt;Node32</title>
<path fill="none" stroke="midnightblue" d="M698.642,-218.101C711.779,-208.382 728.482,-196.027 739.558,-187.834"/>
<polygon fill="midnightblue" stroke="midnightblue" points="696.187,-215.563 690.229,-224.324 700.35,-221.191 696.187,-215.563"/>
</g>
<!-- Node19&#45;&gt;Node5 -->
<g id="edge31" class="edge"><title>Node19&#45;&gt;Node5</title>
<path fill="none" stroke="midnightblue" d="M547.602,-166.346C596.548,-156.141 669.454,-140.94 714.653,-131.516"/>
<polygon fill="midnightblue" stroke="midnightblue" points="546.614,-162.976 537.539,-168.444 548.043,-169.829 546.614,-162.976"/>
</g>
<!-- Node19&#45;&gt;Node9 -->
<g id="edge34" class="edge"><title>Node19&#45;&gt;Node9</title>
<path fill="none" stroke="midnightblue" d="M504.275,-159.147C517.976,-130.381 549.494,-75.0721 596.5,-56 738.983,1.8102 1134.43,-34.5579 1287.5,-20 1291.47,-19.6225 1295.57,-19.18 1299.69,-18.6973"/>
<polygon fill="midnightblue" stroke="midnightblue" points="501.007,-157.877 500.037,-168.427 507.375,-160.784 501.007,-157.877"/>
</g>
<!-- Node19&#45;&gt;Node10 -->
<g id="edge33" class="edge"><title>Node19&#45;&gt;Node10</title>
<path fill="none" stroke="midnightblue" d="M545.441,-166.073C577.577,-158.211 620.22,-146.462 656.5,-132 674.229,-124.933 676.273,-117.658 694.5,-112 824.86,-71.5343 863.986,-92.351 999.5,-76 1002.42,-75.6482 1005.4,-75.2869 1008.41,-74.9208"/>
<polygon fill="midnightblue" stroke="midnightblue" points="544.303,-162.747 535.398,-168.487 545.939,-169.553 544.303,-162.747"/>
</g>
<!-- Node19&#45;&gt;Node12 -->
<g id="edge35" class="edge"><title>Node19&#45;&gt;Node12</title>
<path fill="none" stroke="midnightblue" d="M456.812,-164.576C441.405,-157.594 425.361,-147.15 416.5,-132 399.447,-102.843 393.295,-80.5452 416.5,-56 441.827,-29.2106 973.279,-15.951 1156.25,-12.1675"/>
<polygon fill="midnightblue" stroke="midnightblue" points="455.675,-167.894 466.253,-168.488 458.354,-161.427 455.675,-167.894"/>
</g>
<!-- Node19&#45;&gt;Node17 -->
<g id="edge30" class="edge"><title>Node19&#45;&gt;Node17</title>
<path fill="none" stroke="midnightblue" d="M423.163,-167.122C359.064,-158.354 263.524,-144.958 180.5,-132 177.641,-131.554 174.698,-131.084 171.732,-130.602"/>
<polygon fill="midnightblue" stroke="midnightblue" points="422.792,-170.604 433.174,-168.489 423.739,-163.669 422.792,-170.604"/>
</g>
<!-- Node20 -->
<g id="node20" class="node"><title>Node20</title>
<g id="a_node20"><a xlink:href="../../d4/db3/Button_8hpp.html" target="_top" xlink:title=" ">
<polygon fill="white" stroke="black" points="305.5,-112.5 305.5,-131.5 369.5,-131.5 369.5,-112.5 305.5,-112.5"/>
<text text-anchor="middle" x="337.5" y="-119.5" font-family="Helvetica,sans-Serif" font-size="10.00">Button.hpp</text>
</a>
</g>
</g>
<!-- Node19&#45;&gt;Node20 -->
<g id="edge24" class="edge"><title>Node19&#45;&gt;Node20</title>
<path fill="none" stroke="midnightblue" d="M461.673,-165.172C431.734,-155.004 389.279,-140.585 362.576,-131.516"/>
<polygon fill="midnightblue" stroke="midnightblue" points="460.712,-168.542 471.306,-168.444 462.963,-161.914 460.712,-168.542"/>
</g>
<!-- Node19&#45;&gt;Node26 -->
<g id="edge32" class="edge"><title>Node19&#45;&gt;Node26</title>
<path fill="none" stroke="midnightblue" d="M568.972,-167.042C643.197,-156.843 757.358,-141.157 827.519,-131.516"/>
<polygon fill="midnightblue" stroke="midnightblue" points="568.202,-163.615 558.772,-168.444 569.155,-170.55 568.202,-163.615"/>
</g>
<!-- Node19&#45;&gt;Node27 -->
<g id="edge36" class="edge"><title>Node19&#45;&gt;Node27</title>
<path fill="none" stroke="midnightblue" d="M445.596,-166.346C396.838,-156.141 324.213,-140.94 279.19,-131.516"/>
<polygon fill="midnightblue" stroke="midnightblue" points="445.114,-169.821 455.619,-168.444 446.548,-162.969 445.114,-169.821"/>
</g>
<!-- Node28 -->
<g id="node28" class="node"><title>Node28</title>
<g id="a_node28"><a xlink:href="../../d9/d4f/LEDs_8hpp.html" target="_top" xlink:title=" ">
<polygon fill="white" stroke="black" points="425.5,-112.5 425.5,-131.5 485.5,-131.5 485.5,-112.5 425.5,-112.5"/>
<text text-anchor="middle" x="455.5" y="-119.5" font-family="Helvetica,sans-Serif" font-size="10.00">LEDs.hpp</text>
</a>
</g>
</g>
<!-- Node19&#45;&gt;Node28 -->
<g id="edge37" class="edge"><title>Node19&#45;&gt;Node28</title>
<path fill="none" stroke="midnightblue" d="M483.483,-159.855C476.383,-150.505 467.896,-139.327 462.144,-131.751"/>
<polygon fill="midnightblue" stroke="midnightblue" points="480.895,-162.235 489.73,-168.083 486.47,-158.002 480.895,-162.235"/>
</g>
<!-- Node30 -->
<g id="node30" class="node"><title>Node30</title>
<g id="a_node30"><a xlink:href="../../d7/d13/MAX7219__Base_8hpp.html" target="_top" xlink:title=" ">
<polygon fill="white" stroke="black" points="541.5,-112.5 541.5,-131.5 647.5,-131.5 647.5,-112.5 541.5,-112.5"/>
<text text-anchor="middle" x="594.5" y="-119.5" font-family="Helvetica,sans-Serif" font-size="10.00">MAX7219_Base.hpp</text>
</a>
</g>
</g>
<!-- Node19&#45;&gt;Node30 -->
<g id="edge39" class="edge"><title>Node19&#45;&gt;Node30</title>
<path fill="none" stroke="midnightblue" d="M521.086,-163.453C539.178,-153.483 563.235,-140.228 578.794,-131.655"/>
<polygon fill="midnightblue" stroke="midnightblue" points="519.315,-160.432 512.245,-168.324 522.693,-166.563 519.315,-160.432"/>
</g>
<!-- Node21 -->
<g id="node21" class="node"><title>Node21</title>
<g id="a_node21"><a xlink:href="../../de/dd1/Button_8cpp.html" target="_top" xlink:title=" ">
<polygon fill="white" stroke="black" points="125.5,-56.5 125.5,-75.5 189.5,-75.5 189.5,-56.5 125.5,-56.5"/>
<text text-anchor="middle" x="157.5" y="-63.5" font-family="Helvetica,sans-Serif" font-size="10.00">Button.cpp</text>
</a>
</g>
</g>
<!-- Node20&#45;&gt;Node21 -->
<g id="edge25" class="edge"><title>Node20&#45;&gt;Node21</title>
<path fill="none" stroke="midnightblue" d="M299.392,-109.568C265.437,-99.381 216.511,-84.7034 185.888,-75.5164"/>
<polygon fill="midnightblue" stroke="midnightblue" points="298.394,-112.922 308.978,-112.444 300.406,-106.218 298.394,-112.922"/>
</g>
<!-- Node22 -->
<g id="node22" class="node"><title>Node22</title>
<g id="a_node22"><a xlink:href="../../d5/d04/IncrementButton_8hpp.html" target="_top" xlink:title=" ">
<polygon fill="white" stroke="black" points="0,-56.5 0,-75.5 107,-75.5 107,-56.5 0,-56.5"/>
<text text-anchor="middle" x="53.5" y="-63.5" font-family="Helvetica,sans-Serif" font-size="10.00">IncrementButton.hpp</text>
</a>
</g>
</g>
<!-- Node20&#45;&gt;Node22 -->
<g id="edge26" class="edge"><title>Node20&#45;&gt;Node22</title>
<path fill="none" stroke="midnightblue" d="M295.059,-111.758C222.491,-97.1729 149.395,-83.9102 102.462,-75.578"/>
<polygon fill="midnightblue" stroke="midnightblue" points="294.797,-115.276 305.292,-113.825 296.183,-108.415 294.797,-115.276"/>
</g>
<!-- Node24 -->
<g id="node24" class="node"><title>Node24</title>
<g id="a_node24"><a xlink:href="../../df/df5/IncrementDecrementButtons_8hpp.html" target="_top" xlink:title=" ">
<polygon fill="white" stroke="black" points="208,-56.5 208,-75.5 369,-75.5 369,-56.5 208,-56.5"/>
<text text-anchor="middle" x="288.5" y="-63.5" font-family="Helvetica,sans-Serif" font-size="10.00">IncrementDecrementButtons.hpp</text>
</a>
</g>
</g>
<!-- Node20&#45;&gt;Node24 -->
<g id="edge28" class="edge"><title>Node20&#45;&gt;Node24</title>
<path fill="none" stroke="midnightblue" d="M322.466,-104.431C313.878,-94.9673 303.457,-83.4827 296.441,-75.7511"/>
<polygon fill="midnightblue" stroke="midnightblue" points="320.097,-107.029 329.409,-112.083 325.281,-102.325 320.097,-107.029"/>
</g>
<!-- Node23 -->
<g id="node23" class="node"><title>Node23</title>
<g id="a_node23"><a xlink:href="../../db/d9d/IncrementButton_8cpp.html" target="_top" xlink:title=" ">
<polygon fill="white" stroke="black" points="0,-0.5 0,-19.5 107,-19.5 107,-0.5 0,-0.5"/>
<text text-anchor="middle" x="53.5" y="-7.5" font-family="Helvetica,sans-Serif" font-size="10.00">IncrementButton.cpp</text>
</a>
</g>
</g>
<!-- Node22&#45;&gt;Node23 -->
<g id="edge27" class="edge"><title>Node22&#45;&gt;Node23</title>
<path fill="none" stroke="midnightblue" d="M53.5,-45.8045C53.5,-36.9102 53.5,-26.7798 53.5,-19.7511"/>
<polygon fill="midnightblue" stroke="midnightblue" points="50.0001,-46.083 53.5,-56.083 57.0001,-46.083 50.0001,-46.083"/>
</g>
<!-- Node25 -->
<g id="node25" class="node"><title>Node25</title>
<g id="a_node25"><a xlink:href="../../da/d66/IncrementDecrementButtons_8cpp.html" target="_top" xlink:title=" ">
<polygon fill="white" stroke="black" points="208,-0.5 208,-19.5 369,-19.5 369,-0.5 208,-0.5"/>
<text text-anchor="middle" x="288.5" y="-7.5" font-family="Helvetica,sans-Serif" font-size="10.00">IncrementDecrementButtons.cpp</text>
</a>
</g>
</g>
<!-- Node24&#45;&gt;Node25 -->
<g id="edge29" class="edge"><title>Node24&#45;&gt;Node25</title>
<path fill="none" stroke="midnightblue" d="M288.5,-45.8045C288.5,-36.9102 288.5,-26.7798 288.5,-19.7511"/>
<polygon fill="midnightblue" stroke="midnightblue" points="285,-46.083 288.5,-56.083 292,-46.083 285,-46.083"/>
</g>
<!-- Node29 -->
<g id="node29" class="node"><title>Node29</title>
<g id="a_node29"><a xlink:href="../../d6/d3a/DotBarDisplayLEDs_8hpp.html" target="_top" xlink:title=" ">
<polygon fill="white" stroke="black" points="425.5,-56.5 425.5,-75.5 549.5,-75.5 549.5,-56.5 425.5,-56.5"/>
<text text-anchor="middle" x="487.5" y="-63.5" font-family="Helvetica,sans-Serif" font-size="10.00">DotBarDisplayLEDs.hpp</text>
</a>
</g>
</g>
<!-- Node28&#45;&gt;Node29 -->
<g id="edge38" class="edge"><title>Node28&#45;&gt;Node29</title>
<path fill="none" stroke="midnightblue" d="M466.004,-103.275C471.473,-94.0454 477.918,-83.1703 482.314,-75.7511"/>
<polygon fill="midnightblue" stroke="midnightblue" points="462.871,-101.696 460.784,-112.083 468.893,-105.264 462.871,-101.696"/>
</g>
<!-- Node30&#45;&gt;Node6 -->
<g id="edge40" class="edge"><title>Node30&#45;&gt;Node6</title>
<path fill="none" stroke="midnightblue" d="M657.651,-111.448C731.4,-100.292 851.097,-82.187 912.479,-72.9024"/>
<polygon fill="midnightblue" stroke="midnightblue" points="656.925,-108.018 647.561,-112.974 657.972,-114.939 656.925,-108.018"/>
</g>
<!-- Node31 -->
<g id="node31" class="node"><title>Node31</title>
<g id="a_node31"><a xlink:href="../../d5/d0c/MAX7219SevenSegmentDisplay_8hpp.html" target="_top" xlink:title=" ">
<polygon fill="white" stroke="black" points="605.5,-56.5 605.5,-75.5 783.5,-75.5 783.5,-56.5 605.5,-56.5"/>
<text text-anchor="middle" x="694.5" y="-63.5" font-family="Helvetica,sans-Serif" font-size="10.00">MAX7219SevenSegmentDisplay.hpp</text>
</a>
</g>
</g>
<!-- Node30&#45;&gt;Node31 -->
<g id="edge41" class="edge"><title>Node30&#45;&gt;Node31</title>
<path fill="none" stroke="midnightblue" d="M619.588,-107.453C638.049,-97.4835 662.597,-84.2279 678.473,-75.6545"/>
<polygon fill="midnightblue" stroke="midnightblue" points="617.703,-104.493 610.567,-112.324 621.029,-110.652 617.703,-104.493"/>
</g>
<!-- Node33&#45;&gt;Node13 -->
<g id="edge47" class="edge"><title>Node33&#45;&gt;Node13</title>
<path fill="none" stroke="midnightblue" d="M1057.79,-213.805C1057.46,-204.91 1057.08,-194.78 1056.82,-187.751"/>
<polygon fill="midnightblue" stroke="midnightblue" points="1054.3,-214.219 1058.17,-224.083 1061.3,-213.96 1054.3,-214.219"/>
</g>
<!-- Node36&#45;&gt;Node33 -->
<g id="edge51" class="edge"><title>Node36&#45;&gt;Node33</title>
<path fill="none" stroke="midnightblue" d="M1031.88,-271.855C1038.64,-262.505 1046.71,-251.327 1052.18,-243.751"/>
<polygon fill="midnightblue" stroke="midnightblue" points="1028.96,-269.927 1025.94,-280.083 1034.63,-274.025 1028.96,-269.927"/>
</g>
<!-- Node36&#45;&gt;Node35 -->
<g id="edge52" class="edge"><title>Node36&#45;&gt;Node35</title>
<path fill="none" stroke="midnightblue" d="M1004.47,-272.431C995.878,-262.967 985.457,-251.483 978.441,-243.751"/>
<polygon fill="midnightblue" stroke="midnightblue" points="1002.1,-275.029 1011.41,-280.083 1007.28,-270.325 1002.1,-275.029"/>
</g>
<!-- Node37&#45;&gt;Node6 -->
<g id="edge54" class="edge"><title>Node37&#45;&gt;Node6</title>
<path fill="none" stroke="midnightblue" d="M1190.7,-162.97C1164.44,-146.232 1121.71,-119.558 1104.5,-112 1067.11,-95.5746 1022.01,-83.1381 990.504,-75.5467"/>
<polygon fill="midnightblue" stroke="midnightblue" points="1188.92,-165.988 1199.23,-168.428 1192.69,-160.091 1188.92,-165.988"/>
</g>
<!-- Node37&#45;&gt;Node7 -->
<g id="edge55" class="edge"><title>Node37&#45;&gt;Node7</title>
<path fill="none" stroke="midnightblue" d="M1214.25,-158.101C1215.08,-149.136 1216.03,-138.858 1216.69,-131.751"/>
<polygon fill="midnightblue" stroke="midnightblue" points="1210.76,-157.803 1213.33,-168.083 1217.73,-158.448 1210.76,-157.803"/>
</g>
<!-- Node37&#45;&gt;Node11 -->
<g id="edge56" class="edge"><title>Node37&#45;&gt;Node11</title>
<path fill="none" stroke="midnightblue" d="M1251.71,-164.46C1266.92,-157.457 1282.76,-147.03 1291.5,-132 1306.11,-106.868 1268.68,-86.4505 1241.89,-75.5691"/>
<polygon fill="midnightblue" stroke="midnightblue" points="1250.24,-161.28 1242.38,-168.387 1252.96,-167.731 1250.24,-161.28"/>
</g>
</g>
</svg>
