<?xml version="1.0" encoding="UTF-8" standalone="no"?>
<!DOCTYPE svg PUBLIC "-//W3C//DTD SVG 1.1//EN"
 "http://www.w3.org/Graphics/SVG/1.1/DTD/svg11.dtd">
<!-- Generated by graphviz version 2.38.0 (20140413.2041)
 -->
<!-- Title: Error.hpp Pages: 1 -->
<svg width="1883pt" height="476pt"
 viewBox="0.00 0.00 1883.00 476.00" xmlns="http://www.w3.org/2000/svg" xmlns:xlink="http://www.w3.org/1999/xlink">
<g id="graph0" class="graph" transform="scale(1 1) rotate(0) translate(4 472)">
<title>Error.hpp</title>
<polygon fill="white" stroke="none" points="-4,4 -4,-472 1879,-472 1879,4 -4,4"/>
<!-- Node1 -->
<g id="node1" class="node"><title>Node1</title>
<g id="a_node1"><a xlink:title=" ">
<polygon fill="#bfbfbf" stroke="black" points="1521,-448.5 1521,-467.5 1577,-467.5 1577,-448.5 1521,-448.5"/>
<text text-anchor="middle" x="1549" y="-455.5" font-family="Helvetica,sans-Serif" font-size="10.00">Error.hpp</text>
</a>
</g>
</g>
<!-- Node2 -->
<g id="node2" class="node"><title>Node2</title>
<g id="a_node2"><a xlink:href="../../de/d76/Array_8hpp.html" target="_top" xlink:title=" ">
<polygon fill="white" stroke="black" points="509.5,-392.5 509.5,-411.5 568.5,-411.5 568.5,-392.5 509.5,-392.5"/>
<text text-anchor="middle" x="539" y="-399.5" font-family="Helvetica,sans-Serif" font-size="10.00">Array.hpp</text>
</a>
</g>
</g>
<!-- Node1&#45;&gt;Node2 -->
<g id="edge1" class="edge"><title>Node1&#45;&gt;Node2</title>
<path fill="none" stroke="midnightblue" d="M1510.92,-454.964C1348.37,-446.273 714.357,-412.376 568.869,-404.597"/>
<polygon fill="midnightblue" stroke="midnightblue" points="1510.76,-458.46 1520.93,-455.499 1511.13,-451.47 1510.76,-458.46"/>
</g>
<!-- Node26 -->
<g id="node26" class="node"><title>Node26</title>
<g id="a_node26"><a xlink:href="../../d6/d3c/ExtendedInputOutput_8cpp.html" target="_top" xlink:title=" ">
<polygon fill="white" stroke="black" points="1285,-168.5 1285,-187.5 1413,-187.5 1413,-168.5 1285,-168.5"/>
<text text-anchor="middle" x="1349" y="-175.5" font-family="Helvetica,sans-Serif" font-size="10.00">ExtendedInputOutput.cpp</text>
</a>
</g>
</g>
<!-- Node1&#45;&gt;Node26 -->
<g id="edge63" class="edge"><title>Node1&#45;&gt;Node26</title>
<path fill="none" stroke="midnightblue" d="M1520.47,-443.842C1487.88,-426.613 1439,-393.09 1439,-347 1439,-347 1439,-347 1439,-289 1439,-258.775 1437.27,-248.081 1419,-224 1406.34,-207.31 1385.56,-195.09 1369.93,-187.631"/>
<polygon fill="midnightblue" stroke="midnightblue" points="1519.09,-447.062 1529.59,-448.464 1522.25,-440.819 1519.09,-447.062"/>
</g>
<!-- Node27 -->
<g id="node27" class="node"><title>Node27</title>
<g id="a_node27"><a xlink:href="../../da/d1f/ExtendedIOElement_8cpp.html" target="_top" xlink:title=" ">
<polygon fill="white" stroke="black" points="1431.5,-168.5 1431.5,-187.5 1554.5,-187.5 1554.5,-168.5 1431.5,-168.5"/>
<text text-anchor="middle" x="1493" y="-175.5" font-family="Helvetica,sans-Serif" font-size="10.00">ExtendedIOElement.cpp</text>
</a>
</g>
</g>
<!-- Node1&#45;&gt;Node27 -->
<g id="edge64" class="edge"><title>Node1&#45;&gt;Node27</title>
<path fill="none" stroke="midnightblue" d="M1542.3,-438.93C1539.45,-430.783 1536.28,-420.992 1534,-412 1512.12,-325.598 1497.88,-218.259 1494.04,-187.559"/>
<polygon fill="midnightblue" stroke="midnightblue" points="1539.06,-440.264 1545.74,-448.485 1545.64,-437.891 1539.06,-440.264"/>
</g>
<!-- Node39 -->
<g id="node39" class="node"><title>Node39</title>
<g id="a_node39"><a xlink:href="../../d1/d40/BitArray_8hpp.html" target="_top" xlink:title=" ">
<polygon fill="white" stroke="black" points="1572.5,-168.5 1572.5,-187.5 1643.5,-187.5 1643.5,-168.5 1572.5,-168.5"/>
<text text-anchor="middle" x="1608" y="-175.5" font-family="Helvetica,sans-Serif" font-size="10.00">BitArray.hpp</text>
</a>
</g>
</g>
<!-- Node1&#45;&gt;Node39 -->
<g id="edge57" class="edge"><title>Node1&#45;&gt;Node39</title>
<path fill="none" stroke="midnightblue" d="M1540.79,-438.644C1535.98,-425.688 1531.32,-407.881 1534,-392 1547.94,-309.393 1590.28,-216.052 1603.8,-187.648"/>
<polygon fill="midnightblue" stroke="midnightblue" points="1537.69,-440.305 1544.72,-448.236 1544.17,-437.655 1537.69,-440.305"/>
</g>
<!-- Node40 -->
<g id="node40" class="node"><title>Node40</title>
<g id="a_node40"><a xlink:href="../../d4/d93/Updatable_8hpp.html" target="_top" xlink:title=" ">
<polygon fill="white" stroke="black" points="1543,-392.5 1543,-411.5 1623,-411.5 1623,-392.5 1543,-392.5"/>
<text text-anchor="middle" x="1583" y="-399.5" font-family="Helvetica,sans-Serif" font-size="10.00">Updatable.hpp</text>
</a>
</g>
</g>
<!-- Node1&#45;&gt;Node40 -->
<g id="edge61" class="edge"><title>Node1&#45;&gt;Node40</title>
<path fill="none" stroke="midnightblue" d="M1559.98,-439.566C1565.83,-430.275 1572.77,-419.248 1577.49,-411.751"/>
<polygon fill="midnightblue" stroke="midnightblue" points="1556.98,-437.756 1554.61,-448.083 1562.9,-441.486 1556.98,-437.756"/>
</g>
<!-- Node41 -->
<g id="node41" class="node"><title>Node41</title>
<g id="a_node41"><a xlink:href="../../d6/df4/Exit_8cpp.html" target="_top" xlink:title=" ">
<polygon fill="white" stroke="black" points="1641.5,-392.5 1641.5,-411.5 1694.5,-411.5 1694.5,-392.5 1641.5,-392.5"/>
<text text-anchor="middle" x="1668" y="-399.5" font-family="Helvetica,sans-Serif" font-size="10.00">Exit.cpp</text>
</a>
</g>
</g>
<!-- Node1&#45;&gt;Node41 -->
<g id="edge62" class="edge"><title>Node1&#45;&gt;Node41</title>
<path fill="none" stroke="midnightblue" d="M1577.14,-444.232C1599.4,-434.131 1629.86,-420.309 1649.23,-411.516"/>
<polygon fill="midnightblue" stroke="midnightblue" points="1575.52,-441.124 1567.86,-448.444 1578.41,-447.498 1575.52,-441.124"/>
</g>
<!-- Node42 -->
<g id="node42" class="node"><title>Node42</title>
<g id="a_node42"><a xlink:href="../../d4/d1b/vector_8cpp.html" target="_top" xlink:title=" ">
<polygon fill="white" stroke="black" points="1713,-392.5 1713,-411.5 1775,-411.5 1775,-392.5 1713,-392.5"/>
<text text-anchor="middle" x="1744" y="-399.5" font-family="Helvetica,sans-Serif" font-size="10.00">vector.cpp</text>
</a>
</g>
</g>
<!-- Node1&#45;&gt;Node42 -->
<g id="edge65" class="edge"><title>Node1&#45;&gt;Node42</title>
<path fill="none" stroke="midnightblue" d="M1587.21,-446.418C1623.99,-436.233 1678.91,-421.026 1713.03,-411.576"/>
<polygon fill="midnightblue" stroke="midnightblue" points="1586.06,-443.106 1577.35,-449.148 1587.93,-449.852 1586.06,-443.106"/>
</g>
<!-- Node43 -->
<g id="node43" class="node"><title>Node43</title>
<g id="a_node43"><a xlink:href="../../d3/d50/FixedPoint_8hpp.html" target="_top" xlink:title=" ">
<polygon fill="white" stroke="black" points="1793,-392.5 1793,-411.5 1875,-411.5 1875,-392.5 1793,-392.5"/>
<text text-anchor="middle" x="1834" y="-399.5" font-family="Helvetica,sans-Serif" font-size="10.00">FixedPoint.hpp</text>
</a>
</g>
</g>
<!-- Node1&#45;&gt;Node43 -->
<g id="edge66" class="edge"><title>Node1&#45;&gt;Node43</title>
<path fill="none" stroke="midnightblue" d="M1587.22,-449.759C1640.78,-439.609 1737.8,-421.227 1792.89,-410.79"/>
<polygon fill="midnightblue" stroke="midnightblue" points="1586.28,-446.374 1577.11,-451.674 1587.58,-453.252 1586.28,-446.374"/>
</g>
<!-- Node3 -->
<g id="node3" class="node"><title>Node3</title>
<g id="a_node3"><a xlink:href="../../d5/db6/ArrayHelpers_8hpp.html" target="_top" xlink:title=" ">
<polygon fill="white" stroke="black" points="567,-280.5 567,-299.5 659,-299.5 659,-280.5 567,-280.5"/>
<text text-anchor="middle" x="613" y="-287.5" font-family="Helvetica,sans-Serif" font-size="10.00">ArrayHelpers.hpp</text>
</a>
</g>
</g>
<!-- Node2&#45;&gt;Node3 -->
<g id="edge2" class="edge"><title>Node2&#45;&gt;Node3</title>
<path fill="none" stroke="midnightblue" d="M550.465,-383.957C566.502,-360.118 595.032,-317.709 607.22,-299.591"/>
<polygon fill="midnightblue" stroke="midnightblue" points="547.484,-382.118 544.807,-392.368 553.292,-386.025 547.484,-382.118"/>
</g>
<!-- Node5 -->
<g id="node5" class="node"><title>Node5</title>
<g id="a_node5"><a xlink:href="../../d7/def/AnalogMultiplex_8hpp.html" target="_top" xlink:title=" ">
<polygon fill="white" stroke="black" points="487,-112.5 487,-131.5 591,-131.5 591,-112.5 487,-112.5"/>
<text text-anchor="middle" x="539" y="-119.5" font-family="Helvetica,sans-Serif" font-size="10.00">AnalogMultiplex.hpp</text>
</a>
</g>
</g>
<!-- Node2&#45;&gt;Node5 -->
<g id="edge17" class="edge"><title>Node2&#45;&gt;Node5</title>
<path fill="none" stroke="midnightblue" d="M539,-382.251C539,-360.357 539,-323.052 539,-291 539,-291 539,-291 539,-233 539,-195.188 539,-150.064 539,-131.558"/>
<polygon fill="midnightblue" stroke="midnightblue" points="535.5,-382.442 539,-392.442 542.5,-382.442 535.5,-382.442"/>
</g>
<!-- Node15 -->
<g id="node15" class="node"><title>Node15</title>
<g id="a_node15"><a xlink:href="../../d4/d35/Hardware-Types_8hpp.html" target="_top" xlink:title=" ">
<polygon fill="white" stroke="black" points="1060.5,-336.5 1060.5,-355.5 1167.5,-355.5 1167.5,-336.5 1060.5,-336.5"/>
<text text-anchor="middle" x="1114" y="-343.5" font-family="Helvetica,sans-Serif" font-size="10.00">Hardware&#45;Types.hpp</text>
</a>
</g>
</g>
<!-- Node2&#45;&gt;Node15 -->
<g id="edge18" class="edge"><title>Node2&#45;&gt;Node15</title>
<path fill="none" stroke="midnightblue" d="M578.785,-397.264C679.716,-387.785 945.823,-362.794 1060.34,-352.039"/>
<polygon fill="midnightblue" stroke="midnightblue" points="578.333,-393.791 568.704,-398.21 578.987,-400.76 578.333,-393.791"/>
</g>
<!-- Node33 -->
<g id="node33" class="node"><title>Node33</title>
<g id="a_node33"><a xlink:href="../../d1/dde/BiQuad_8hpp.html" target="_top" xlink:title=" ">
<polygon fill="white" stroke="black" points="389,-280.5 389,-299.5 457,-299.5 457,-280.5 389,-280.5"/>
<text text-anchor="middle" x="423" y="-287.5" font-family="Helvetica,sans-Serif" font-size="10.00">BiQuad.hpp</text>
</a>
</g>
</g>
<!-- Node2&#45;&gt;Node33 -->
<g id="edge48" class="edge"><title>Node2&#45;&gt;Node33</title>
<path fill="none" stroke="midnightblue" d="M525.399,-384.116C514.112,-370.523 497.324,-351.239 481,-336 466.281,-322.259 447.637,-308.338 435.52,-299.693"/>
<polygon fill="midnightblue" stroke="midnightblue" points="522.917,-386.609 531.961,-392.127 528.332,-382.173 522.917,-386.609"/>
</g>
<!-- Node34 -->
<g id="node34" class="node"><title>Node34</title>
<g id="a_node34"><a xlink:href="../../d2/d3b/FIRFilter_8hpp.html" target="_top" xlink:title=" ">
<polygon fill="white" stroke="black" points="638,-336.5 638,-355.5 712,-355.5 712,-336.5 638,-336.5"/>
<text text-anchor="middle" x="675" y="-343.5" font-family="Helvetica,sans-Serif" font-size="10.00">FIRFilter.hpp</text>
</a>
</g>
</g>
<!-- Node2&#45;&gt;Node34 -->
<g id="edge50" class="edge"><title>Node2&#45;&gt;Node34</title>
<path fill="none" stroke="midnightblue" d="M570.135,-388.638C595.657,-378.504 631.109,-364.427 653.551,-355.516"/>
<polygon fill="midnightblue" stroke="midnightblue" points="568.552,-385.5 560.55,-392.444 571.135,-392.006 568.552,-385.5"/>
</g>
<!-- Node36 -->
<g id="node36" class="node"><title>Node36</title>
<g id="a_node36"><a xlink:href="../../dc/d64/IIRFilter_8hpp.html" target="_top" xlink:title=" ">
<polygon fill="white" stroke="black" points="299.5,-280.5 299.5,-299.5 370.5,-299.5 370.5,-280.5 299.5,-280.5"/>
<text text-anchor="middle" x="335" y="-287.5" font-family="Helvetica,sans-Serif" font-size="10.00">IIRFilter.hpp</text>
</a>
</g>
</g>
<!-- Node2&#45;&gt;Node36 -->
<g id="edge52" class="edge"><title>Node2&#45;&gt;Node36</title>
<path fill="none" stroke="midnightblue" d="M499.251,-396.029C451.316,-389.255 374.598,-375.676 354,-356 338.187,-340.895 335.322,-313.426 334.938,-299.534"/>
<polygon fill="midnightblue" stroke="midnightblue" points="498.922,-399.516 509.305,-397.409 499.874,-392.581 498.922,-399.516"/>
</g>
<!-- Node37 -->
<g id="node37" class="node"><title>Node37</title>
<g id="a_node37"><a xlink:href="../../dc/d9c/SMA_8hpp.html" target="_top" xlink:title=" ">
<polygon fill="white" stroke="black" points="249.5,-336.5 249.5,-355.5 306.5,-355.5 306.5,-336.5 249.5,-336.5"/>
<text text-anchor="middle" x="278" y="-343.5" font-family="Helvetica,sans-Serif" font-size="10.00">SMA.hpp</text>
</a>
</g>
</g>
<!-- Node2&#45;&gt;Node37 -->
<g id="edge53" class="edge"><title>Node2&#45;&gt;Node37</title>
<path fill="none" stroke="midnightblue" d="M499.443,-392.869C455.76,-383.881 383.35,-368.96 321,-356 316.37,-355.038 311.461,-354.014 306.679,-353.014"/>
<polygon fill="midnightblue" stroke="midnightblue" points="498.875,-396.325 509.376,-394.912 500.286,-389.469 498.875,-396.325"/>
</g>
<!-- Node38 -->
<g id="node38" class="node"><title>Node38</title>
<g id="a_node38"><a xlink:href="../../d2/d03/TransferFunction_8hpp.html" target="_top" xlink:title=" ">
<polygon fill="white" stroke="black" points="363.5,-336.5 363.5,-355.5 472.5,-355.5 472.5,-336.5 363.5,-336.5"/>
<text text-anchor="middle" x="418" y="-343.5" font-family="Helvetica,sans-Serif" font-size="10.00">TransferFunction.hpp</text>
</a>
</g>
</g>
<!-- Node2&#45;&gt;Node38 -->
<g id="edge54" class="edge"><title>Node2&#45;&gt;Node38</title>
<path fill="none" stroke="midnightblue" d="M510.694,-388.368C488.035,-378.255 456.874,-364.349 437.083,-355.516"/>
<polygon fill="midnightblue" stroke="midnightblue" points="509.269,-391.564 519.827,-392.444 512.122,-385.172 509.269,-391.564"/>
</g>
<!-- Node4 -->
<g id="node4" class="node"><title>Node4</title>
<g id="a_node4"><a xlink:href="../../d2/d05/StaticSizeExtendedIOElement_8hpp.html" target="_top" xlink:title=" ">
<polygon fill="white" stroke="black" points="685,-168.5 685,-187.5 853,-187.5 853,-168.5 685,-168.5"/>
<text text-anchor="middle" x="769" y="-175.5" font-family="Helvetica,sans-Serif" font-size="10.00">StaticSizeExtendedIOElement.hpp</text>
</a>
</g>
</g>
<!-- Node3&#45;&gt;Node4 -->
<g id="edge3" class="edge"><title>Node3&#45;&gt;Node4</title>
<path fill="none" stroke="midnightblue" d="M633.681,-274.417C666.676,-251.151 730.213,-206.35 756.816,-187.591"/>
<polygon fill="midnightblue" stroke="midnightblue" points="631.397,-271.745 625.241,-280.368 635.431,-277.466 631.397,-271.745"/>
</g>
<!-- Node13 -->
<g id="node13" class="node"><title>Node13</title>
<g id="a_node13"><a xlink:href="../../df/ddc/SOSFilter_8hpp.html" target="_top" xlink:title=" ">
<polygon fill="white" stroke="black" points="8,-224.5 8,-243.5 86,-243.5 86,-224.5 8,-224.5"/>
<text text-anchor="middle" x="47" y="-231.5" font-family="Helvetica,sans-Serif" font-size="10.00">SOSFilter.hpp</text>
</a>
</g>
</g>
<!-- Node3&#45;&gt;Node13 -->
<g id="edge15" class="edge"><title>Node3&#45;&gt;Node13</title>
<path fill="none" stroke="midnightblue" d="M556.679,-285.552C462.08,-279.428 265.386,-265.261 100,-244 95.4641,-243.417 90.7229,-242.727 86.0211,-241.993"/>
<polygon fill="midnightblue" stroke="midnightblue" points="556.677,-289.059 566.881,-286.207 557.125,-282.074 556.677,-289.059"/>
</g>
<!-- Node4&#45;&gt;Node5 -->
<g id="edge4" class="edge"><title>Node4&#45;&gt;Node5</title>
<path fill="none" stroke="midnightblue" d="M722.799,-166.153C679.342,-155.95 615.159,-140.881 575.274,-131.516"/>
<polygon fill="midnightblue" stroke="midnightblue" points="722.021,-169.565 732.556,-168.444 723.621,-162.75 722.021,-169.565"/>
</g>
<!-- Node6 -->
<g id="node6" class="node"><title>Node6</title>
<g id="a_node6"><a xlink:href="../../d2/d25/MAX7219_8hpp.html" target="_top" xlink:title=" ">
<polygon fill="white" stroke="black" points="1113,-112.5 1113,-131.5 1191,-131.5 1191,-112.5 1113,-112.5"/>
<text text-anchor="middle" x="1152" y="-119.5" font-family="Helvetica,sans-Serif" font-size="10.00">MAX7219.hpp</text>
</a>
</g>
</g>
<!-- Node4&#45;&gt;Node6 -->
<g id="edge5" class="edge"><title>Node4&#45;&gt;Node6</title>
<path fill="none" stroke="midnightblue" d="M839.741,-167.026C920.215,-155.68 1048.75,-137.557 1112.91,-128.511"/>
<polygon fill="midnightblue" stroke="midnightblue" points="839.101,-163.582 829.687,-168.444 840.078,-170.513 839.101,-163.582"/>
</g>
<!-- Node7 -->
<g id="node7" class="node"><title>Node7</title>
<g id="a_node7"><a xlink:href="../../d8/d93/ShiftRegisterOutBase_8hpp.html" target="_top" xlink:title=" ">
<polygon fill="white" stroke="black" points="703.5,-112.5 703.5,-131.5 834.5,-131.5 834.5,-112.5 703.5,-112.5"/>
<text text-anchor="middle" x="769" y="-119.5" font-family="Helvetica,sans-Serif" font-size="10.00">ShiftRegisterOutBase.hpp</text>
</a>
</g>
</g>
<!-- Node4&#45;&gt;Node7 -->
<g id="edge6" class="edge"><title>Node4&#45;&gt;Node7</title>
<path fill="none" stroke="midnightblue" d="M769,-157.805C769,-148.91 769,-138.78 769,-131.751"/>
<polygon fill="midnightblue" stroke="midnightblue" points="765.5,-158.083 769,-168.083 772.5,-158.083 765.5,-158.083"/>
</g>
<!-- Node8 -->
<g id="node8" class="node"><title>Node8</title>
<g id="a_node8"><a xlink:href="../../d0/db4/ShiftRegisterOut_8hpp.html" target="_top" xlink:title=" ">
<polygon fill="white" stroke="black" points="1053,-56.5 1053,-75.5 1161,-75.5 1161,-56.5 1053,-56.5"/>
<text text-anchor="middle" x="1107" y="-63.5" font-family="Helvetica,sans-Serif" font-size="10.00">ShiftRegisterOut.hpp</text>
</a>
</g>
</g>
<!-- Node7&#45;&gt;Node8 -->
<g id="edge7" class="edge"><title>Node7&#45;&gt;Node8</title>
<path fill="none" stroke="midnightblue" d="M832.508,-110.854C896.37,-100.651 993.722,-85.0977 1053.69,-75.5164"/>
<polygon fill="midnightblue" stroke="midnightblue" points="831.88,-107.41 822.557,-112.444 832.984,-114.322 831.88,-107.41"/>
</g>
<!-- Node10 -->
<g id="node10" class="node"><title>Node10</title>
<g id="a_node10"><a xlink:href="../../d5/d47/ShiftRegisterOutBase_8ipp.html" target="_top" xlink:title=" ">
<polygon fill="white" stroke="black" points="628,-56.5 628,-75.5 756,-75.5 756,-56.5 628,-56.5"/>
<text text-anchor="middle" x="692" y="-63.5" font-family="Helvetica,sans-Serif" font-size="10.00">ShiftRegisterOutBase.ipp</text>
</a>
</g>
</g>
<!-- Node7&#45;&gt;Node10 -->
<g id="edge10" class="edge"><title>Node7&#45;&gt;Node10</title>
<path fill="none" stroke="midnightblue" d="M742.936,-106.935C727.689,-97.0987 709.673,-84.2633 699.448,-75.8339"/>
<polygon fill="midnightblue" stroke="midnightblue" points="741.184,-109.968 751.514,-112.324 744.908,-104.04 741.184,-109.968"/>
</g>
<!-- Node11 -->
<g id="node11" class="node"><title>Node11</title>
<g id="a_node11"><a xlink:href="../../d7/d88/SPIShiftRegisterOut_8hpp.html" target="_top" xlink:title=" ">
<polygon fill="white" stroke="black" points="774.5,-56.5 774.5,-75.5 899.5,-75.5 899.5,-56.5 774.5,-56.5"/>
<text text-anchor="middle" x="837" y="-63.5" font-family="Helvetica,sans-Serif" font-size="10.00">SPIShiftRegisterOut.hpp</text>
</a>
</g>
</g>
<!-- Node7&#45;&gt;Node11 -->
<g id="edge12" class="edge"><title>Node7&#45;&gt;Node11</title>
<path fill="none" stroke="midnightblue" d="M787.762,-106.101C800,-96.3824 815.559,-84.0269 825.876,-75.8339"/>
<polygon fill="midnightblue" stroke="midnightblue" points="785.58,-103.364 779.925,-112.324 789.933,-108.846 785.58,-103.364"/>
</g>
<!-- Node9 -->
<g id="node9" class="node"><title>Node9</title>
<g id="a_node9"><a xlink:href="../../de/d95/ShiftRegisterOut_8ipp.html" target="_top" xlink:title=" ">
<polygon fill="white" stroke="black" points="1054.5,-0.5 1054.5,-19.5 1159.5,-19.5 1159.5,-0.5 1054.5,-0.5"/>
<text text-anchor="middle" x="1107" y="-7.5" font-family="Helvetica,sans-Serif" font-size="10.00">ShiftRegisterOut.ipp</text>
</a>
</g>
</g>
<!-- Node8&#45;&gt;Node9 -->
<g id="edge8" class="edge"><title>Node8&#45;&gt;Node9</title>
<path fill="none" stroke="midnightblue" d="M1100.53,-46.1005C1099.9,-37.1357 1100.34,-26.8579 1101.87,-19.7511"/>
<polygon fill="midnightblue" stroke="midnightblue" points="1097.07,-46.6216 1101.83,-56.083 1104.01,-45.7134 1097.07,-46.6216"/>
</g>
<!-- Node9&#45;&gt;Node8 -->
<g id="edge9" class="edge"><title>Node9&#45;&gt;Node8</title>
<path fill="none" stroke="midnightblue" d="M1113.46,-29.6911C1114.11,-38.6353 1113.68,-48.9272 1112.17,-56.083"/>
<polygon fill="midnightblue" stroke="midnightblue" points="1116.92,-29.2002 1112.13,-19.7511 1109.98,-30.1262 1116.92,-29.2002"/>
</g>
<!-- Node10&#45;&gt;Node7 -->
<g id="edge11" class="edge"><title>Node10&#45;&gt;Node7</title>
<path fill="none" stroke="midnightblue" d="M718.078,-81.0741C733.418,-90.9709 751.556,-103.9 761.743,-112.324"/>
<polygon fill="midnightblue" stroke="midnightblue" points="719.78,-78.0104 709.451,-75.6545 716.057,-83.9378 719.78,-78.0104"/>
</g>
<!-- Node12 -->
<g id="node12" class="node"><title>Node12</title>
<g id="a_node12"><a xlink:href="../../da/d45/SPIShiftRegisterOut_8ipp.html" target="_top" xlink:title=" ">
<polygon fill="white" stroke="black" points="776,-0.5 776,-19.5 898,-19.5 898,-0.5 776,-0.5"/>
<text text-anchor="middle" x="837" y="-7.5" font-family="Helvetica,sans-Serif" font-size="10.00">SPIShiftRegisterOut.ipp</text>
</a>
</g>
</g>
<!-- Node11&#45;&gt;Node12 -->
<g id="edge13" class="edge"><title>Node11&#45;&gt;Node12</title>
<path fill="none" stroke="midnightblue" d="M830.528,-46.1005C829.896,-37.1357 830.343,-26.8579 831.869,-19.7511"/>
<polygon fill="midnightblue" stroke="midnightblue" points="827.066,-46.6216 831.834,-56.083 834.007,-45.7134 827.066,-46.6216"/>
</g>
<!-- Node12&#45;&gt;Node11 -->
<g id="edge14" class="edge"><title>Node12&#45;&gt;Node11</title>
<path fill="none" stroke="midnightblue" d="M843.458,-29.6911C844.106,-38.6353 843.676,-48.9272 842.166,-56.083"/>
<polygon fill="midnightblue" stroke="midnightblue" points="846.923,-29.2002 842.131,-19.7511 839.985,-30.1262 846.923,-29.2002"/>
</g>
<!-- Node14 -->
<g id="node14" class="node"><title>Node14</title>
<g id="a_node14"><a xlink:href="../../d4/d40/Butterworth_8hpp.html" target="_top" xlink:title=" ">
<polygon fill="white" stroke="black" points="0,-168.5 0,-187.5 86,-187.5 86,-168.5 0,-168.5"/>
<text text-anchor="middle" x="43" y="-175.5" font-family="Helvetica,sans-Serif" font-size="10.00">Butterworth.hpp</text>
</a>
</g>
</g>
<!-- Node13&#45;&gt;Node14 -->
<g id="edge16" class="edge"><title>Node13&#45;&gt;Node14</title>
<path fill="none" stroke="midnightblue" d="M45.6,-214.101C44.936,-205.136 44.1747,-194.858 43.6482,-187.751"/>
<polygon fill="midnightblue" stroke="midnightblue" points="42.1102,-214.369 46.3395,-224.083 49.0911,-213.852 42.1102,-214.369"/>
</g>
<!-- Node16 -->
<g id="node16" class="node"><title>Node16</title>
<g id="a_node16"><a xlink:href="../../d9/d4b/ButtonMatrix_8hpp.html" target="_top" xlink:title=" ">
<polygon fill="white" stroke="black" points="1179.5,-280.5 1179.5,-299.5 1270.5,-299.5 1270.5,-280.5 1179.5,-280.5"/>
<text text-anchor="middle" x="1225" y="-287.5" font-family="Helvetica,sans-Serif" font-size="10.00">ButtonMatrix.hpp</text>
</a>
</g>
</g>
<!-- Node15&#45;&gt;Node16 -->
<g id="edge19" class="edge"><title>Node15&#45;&gt;Node16</title>
<path fill="none" stroke="midnightblue" d="M1141.01,-331.862C1161.59,-321.849 1189.34,-308.346 1207.21,-299.655"/>
<polygon fill="midnightblue" stroke="midnightblue" points="1139.3,-328.802 1131.83,-336.324 1142.36,-335.097 1139.3,-328.802"/>
</g>
<!-- Node18 -->
<g id="node18" class="node"><title>Node18</title>
<g id="a_node18"><a xlink:href="../../dd/ddf/ExtendedInputOutput_8hpp.html" target="_top" xlink:title=" ">
<polygon fill="white" stroke="black" points="854,-280.5 854,-299.5 982,-299.5 982,-280.5 854,-280.5"/>
<text text-anchor="middle" x="918" y="-287.5" font-family="Helvetica,sans-Serif" font-size="10.00">ExtendedInputOutput.hpp</text>
</a>
</g>
</g>
<!-- Node15&#45;&gt;Node18 -->
<g id="edge22" class="edge"><title>Node15&#45;&gt;Node18</title>
<path fill="none" stroke="midnightblue" d="M1072.98,-333.699C1035.99,-323.507 982.4,-308.743 948.911,-299.516"/>
<polygon fill="midnightblue" stroke="midnightblue" points="1072.37,-337.162 1082.94,-336.444 1074.23,-330.413 1072.37,-337.162"/>
</g>
<!-- Node25 -->
<g id="node25" class="node"><title>Node25</title>
<g id="a_node25"><a xlink:href="../../d4/d57/ExtendedIOElement_8hpp.html" target="_top" xlink:title=" ">
<polygon fill="white" stroke="black" points="1287.5,-224.5 1287.5,-243.5 1410.5,-243.5 1410.5,-224.5 1287.5,-224.5"/>
<text text-anchor="middle" x="1349" y="-231.5" font-family="Helvetica,sans-Serif" font-size="10.00">ExtendedIOElement.hpp</text>
</a>
</g>
</g>
<!-- Node15&#45;&gt;Node25 -->
<g id="edge46" class="edge"><title>Node15&#45;&gt;Node25</title>
<path fill="none" stroke="midnightblue" d="M1177.85,-335.052C1209.65,-328.282 1247.85,-317.312 1279,-300 1305.96,-285.014 1330.7,-257.491 1342.21,-243.561"/>
<polygon fill="midnightblue" stroke="midnightblue" points="1176.86,-331.68 1167.76,-337.105 1178.26,-338.539 1176.86,-331.68"/>
</g>
<!-- Node28 -->
<g id="node28" class="node"><title>Node28</title>
<g id="a_node28"><a xlink:href="../../d8/df3/FilteredAnalog_8hpp.html" target="_top" xlink:title=" ">
<polygon fill="white" stroke="black" points="1065,-224.5 1065,-243.5 1163,-243.5 1163,-224.5 1065,-224.5"/>
<text text-anchor="middle" x="1114" y="-231.5" font-family="Helvetica,sans-Serif" font-size="10.00">FilteredAnalog.hpp</text>
</a>
</g>
</g>
<!-- Node15&#45;&gt;Node28 -->
<g id="edge47" class="edge"><title>Node15&#45;&gt;Node28</title>
<path fill="none" stroke="midnightblue" d="M1114,-326.348C1114,-302.254 1114,-261.308 1114,-243.591"/>
<polygon fill="midnightblue" stroke="midnightblue" points="1110.5,-326.368 1114,-336.368 1117.5,-326.369 1110.5,-326.368"/>
</g>
<!-- Node17 -->
<g id="node17" class="node"><title>Node17</title>
<g id="a_node17"><a xlink:href="../../d5/d41/ButtonMatrix_8ipp.html" target="_top" xlink:title=" ">
<polygon fill="white" stroke="black" points="1181,-224.5 1181,-243.5 1269,-243.5 1269,-224.5 1181,-224.5"/>
<text text-anchor="middle" x="1225" y="-231.5" font-family="Helvetica,sans-Serif" font-size="10.00">ButtonMatrix.ipp</text>
</a>
</g>
</g>
<!-- Node16&#45;&gt;Node17 -->
<g id="edge20" class="edge"><title>Node16&#45;&gt;Node17</title>
<path fill="none" stroke="midnightblue" d="M1218.53,-270.101C1217.9,-261.136 1218.34,-250.858 1219.87,-243.751"/>
<polygon fill="midnightblue" stroke="midnightblue" points="1215.07,-270.622 1219.83,-280.083 1222.01,-269.713 1215.07,-270.622"/>
</g>
<!-- Node17&#45;&gt;Node16 -->
<g id="edge21" class="edge"><title>Node17&#45;&gt;Node16</title>
<path fill="none" stroke="midnightblue" d="M1231.46,-253.691C1232.11,-262.635 1231.68,-272.927 1230.17,-280.083"/>
<polygon fill="midnightblue" stroke="midnightblue" points="1234.92,-253.2 1230.13,-243.751 1227.98,-254.126 1234.92,-253.2"/>
</g>
<!-- Node18&#45;&gt;Node5 -->
<g id="edge30" class="edge"><title>Node18&#45;&gt;Node5</title>
<path fill="none" stroke="midnightblue" d="M843.627,-282.945C773.09,-276.15 672.987,-263.461 639,-244 590.045,-215.968 554.877,-154.156 543.208,-131.521"/>
<polygon fill="midnightblue" stroke="midnightblue" points="843.524,-286.451 853.808,-283.905 844.181,-279.482 843.524,-286.451"/>
</g>
<!-- Node18&#45;&gt;Node7 -->
<g id="edge36" class="edge"><title>Node18&#45;&gt;Node7</title>
<path fill="none" stroke="midnightblue" d="M843.576,-281.223C785.946,-270.719 710.34,-246.028 676,-188 659.648,-160.367 701.822,-141.571 734.623,-131.562"/>
<polygon fill="midnightblue" stroke="midnightblue" points="843.302,-284.727 853.749,-282.966 844.484,-277.828 843.302,-284.727"/>
</g>
<!-- Node18&#45;&gt;Node9 -->
<g id="edge38" class="edge"><title>Node18&#45;&gt;Node9</title>
<path fill="none" stroke="midnightblue" d="M938.329,-274.412C963.751,-256.276 1004.93,-227.292 1013,-224 1098.25,-189.222 1157.82,-258.532 1217,-188 1257.03,-140.292 1211.12,-102.77 1170,-56 1156.51,-40.6561 1136.83,-27.6688 1123.07,-19.649"/>
<polygon fill="midnightblue" stroke="midnightblue" points="936.173,-271.65 930.075,-280.314 940.245,-277.345 936.173,-271.65"/>
</g>
<!-- Node18&#45;&gt;Node10 -->
<g id="edge37" class="edge"><title>Node18&#45;&gt;Node10</title>
<path fill="none" stroke="midnightblue" d="M843.738,-287.336C800.03,-283.126 745.553,-271.973 705,-244 680.644,-227.2 677.338,-216.389 669,-188 656.888,-146.762 677.975,-95.6876 687.594,-75.6451"/>
<polygon fill="midnightblue" stroke="midnightblue" points="843.481,-290.827 853.745,-288.198 844.082,-283.853 843.481,-290.827"/>
</g>
<!-- Node18&#45;&gt;Node12 -->
<g id="edge39" class="edge"><title>Node18&#45;&gt;Node12</title>
<path fill="none" stroke="midnightblue" d="M843.528,-284.212C716.14,-275.793 461.578,-257.914 373,-244 255.757,-225.583 114,-297.681 114,-179 114,-179 114,-179 114,-121 114,-54.2639 601.675,-22.9503 775.981,-13.8896"/>
<polygon fill="midnightblue" stroke="midnightblue" points="843.384,-287.71 853.592,-284.875 843.844,-280.725 843.384,-287.71"/>
</g>
<!-- Node18&#45;&gt;Node17 -->
<g id="edge29" class="edge"><title>Node18&#45;&gt;Node17</title>
<path fill="none" stroke="midnightblue" d="M976.638,-278.686C1036.1,-268.227 1126.8,-252.273 1180.57,-242.815"/>
<polygon fill="midnightblue" stroke="midnightblue" points="975.888,-275.264 966.645,-280.444 977.1,-282.158 975.888,-275.264"/>
</g>
<!-- Node19 -->
<g id="node19" class="node"><title>Node19</title>
<g id="a_node19"><a xlink:href="../../d4/db3/Button_8hpp.html" target="_top" xlink:title=" ">
<polygon fill="white" stroke="black" points="382,-224.5 382,-243.5 446,-243.5 446,-224.5 382,-224.5"/>
<text text-anchor="middle" x="414" y="-231.5" font-family="Helvetica,sans-Serif" font-size="10.00">Button.hpp</text>
</a>
</g>
</g>
<!-- Node18&#45;&gt;Node19 -->
<g id="edge23" class="edge"><title>Node18&#45;&gt;Node19</title>
<path fill="none" stroke="midnightblue" d="M843.737,-281.043C732.056,-269.077 525.502,-246.947 446.179,-238.448"/>
<polygon fill="midnightblue" stroke="midnightblue" points="843.596,-284.548 853.912,-282.133 844.342,-277.588 843.596,-284.548"/>
</g>
<!-- Node18&#45;&gt;Node25 -->
<g id="edge31" class="edge"><title>Node18&#45;&gt;Node25</title>
<path fill="none" stroke="midnightblue" d="M992.048,-279.782C1064.83,-270.712 1179.07,-256.453 1278,-244 1281.08,-243.612 1284.24,-243.214 1287.43,-242.812"/>
<polygon fill="midnightblue" stroke="midnightblue" points="991.549,-276.317 982.059,-281.027 992.415,-283.263 991.549,-276.317"/>
</g>
<!-- Node18&#45;&gt;Node26 -->
<g id="edge35" class="edge"><title>Node18&#45;&gt;Node26</title>
<path fill="none" stroke="midnightblue" d="M945.266,-276.098C985.071,-257.271 1054.56,-224.441 1056,-224 1097.59,-211.303 1211.96,-195.759 1284.89,-186.66"/>
<polygon fill="midnightblue" stroke="midnightblue" points="943.623,-273.003 936.08,-280.443 946.617,-279.331 943.623,-273.003"/>
</g>
<!-- Node18&#45;&gt;Node28 -->
<g id="edge40" class="edge"><title>Node18&#45;&gt;Node28</title>
<path fill="none" stroke="midnightblue" d="M959.02,-277.699C996.011,-267.507 1049.6,-252.743 1083.09,-243.516"/>
<polygon fill="midnightblue" stroke="midnightblue" points="957.768,-274.413 949.057,-280.444 959.627,-281.162 957.768,-274.413"/>
</g>
<!-- Node29 -->
<g id="node29" class="node"><title>Node29</title>
<g id="a_node29"><a xlink:href="../../d9/d4f/LEDs_8hpp.html" target="_top" xlink:title=" ">
<polygon fill="white" stroke="black" points="787,-224.5 787,-243.5 847,-243.5 847,-224.5 787,-224.5"/>
<text text-anchor="middle" x="817" y="-231.5" font-family="Helvetica,sans-Serif" font-size="10.00">LEDs.hpp</text>
</a>
</g>
</g>
<!-- Node18&#45;&gt;Node29 -->
<g id="edge41" class="edge"><title>Node18&#45;&gt;Node29</title>
<path fill="none" stroke="midnightblue" d="M892.917,-275.59C874.243,-265.605 849.296,-252.267 833.187,-243.655"/>
<polygon fill="midnightblue" stroke="midnightblue" points="891.304,-278.696 901.773,-280.324 894.604,-272.522 891.304,-278.696"/>
</g>
<!-- Node31 -->
<g id="node31" class="node"><title>Node31</title>
<g id="a_node31"><a xlink:href="../../d7/d13/MAX7219__Base_8hpp.html" target="_top" xlink:title=" ">
<polygon fill="white" stroke="black" points="865,-224.5 865,-243.5 971,-243.5 971,-224.5 865,-224.5"/>
<text text-anchor="middle" x="918" y="-231.5" font-family="Helvetica,sans-Serif" font-size="10.00">MAX7219_Base.hpp</text>
</a>
</g>
</g>
<!-- Node18&#45;&gt;Node31 -->
<g id="edge43" class="edge"><title>Node18&#45;&gt;Node31</title>
<path fill="none" stroke="midnightblue" d="M918,-269.805C918,-260.91 918,-250.78 918,-243.751"/>
<polygon fill="midnightblue" stroke="midnightblue" points="914.5,-270.083 918,-280.083 921.5,-270.083 914.5,-270.083"/>
</g>
<!-- Node20 -->
<g id="node20" class="node"><title>Node20</title>
<g id="a_node20"><a xlink:href="../../de/dd1/Button_8cpp.html" target="_top" xlink:title=" ">
<polygon fill="white" stroke="black" points="447,-168.5 447,-187.5 511,-187.5 511,-168.5 447,-168.5"/>
<text text-anchor="middle" x="479" y="-175.5" font-family="Helvetica,sans-Serif" font-size="10.00">Button.cpp</text>
</a>
</g>
</g>
<!-- Node19&#45;&gt;Node20 -->
<g id="edge24" class="edge"><title>Node19&#45;&gt;Node20</title>
<path fill="none" stroke="midnightblue" d="M432.273,-217.82C443.918,-208.145 458.599,-195.948 468.367,-187.834"/>
<polygon fill="midnightblue" stroke="midnightblue" points="429.899,-215.242 424.443,-224.324 434.372,-220.626 429.899,-215.242"/>
</g>
<!-- Node21 -->
<g id="node21" class="node"><title>Node21</title>
<g id="a_node21"><a xlink:href="../../d5/d04/IncrementButton_8hpp.html" target="_top" xlink:title=" ">
<polygon fill="white" stroke="black" points="142.5,-168.5 142.5,-187.5 249.5,-187.5 249.5,-168.5 142.5,-168.5"/>
<text text-anchor="middle" x="196" y="-175.5" font-family="Helvetica,sans-Serif" font-size="10.00">IncrementButton.hpp</text>
</a>
</g>
</g>
<!-- Node19&#45;&gt;Node21 -->
<g id="edge25" class="edge"><title>Node19&#45;&gt;Node21</title>
<path fill="none" stroke="midnightblue" d="M372.101,-222.621C330.93,-212.423 268.854,-197.046 230.46,-187.536"/>
<polygon fill="midnightblue" stroke="midnightblue" points="371.285,-226.025 381.833,-225.032 372.968,-219.23 371.285,-226.025"/>
</g>
<!-- Node23 -->
<g id="node23" class="node"><title>Node23</title>
<g id="a_node23"><a xlink:href="../../df/df5/IncrementDecrementButtons_8hpp.html" target="_top" xlink:title=" ">
<polygon fill="white" stroke="black" points="267.5,-168.5 267.5,-187.5 428.5,-187.5 428.5,-168.5 267.5,-168.5"/>
<text text-anchor="middle" x="348" y="-175.5" font-family="Helvetica,sans-Serif" font-size="10.00">IncrementDecrementButtons.hpp</text>
</a>
</g>
</g>
<!-- Node19&#45;&gt;Node23 -->
<g id="edge27" class="edge"><title>Node19&#45;&gt;Node23</title>
<path fill="none" stroke="midnightblue" d="M395.446,-217.82C383.622,-208.145 368.714,-195.948 358.797,-187.834"/>
<polygon fill="midnightblue" stroke="midnightblue" points="393.44,-220.7 403.396,-224.324 397.873,-215.283 393.44,-220.7"/>
</g>
<!-- Node22 -->
<g id="node22" class="node"><title>Node22</title>
<g id="a_node22"><a xlink:href="../../db/d9d/IncrementButton_8cpp.html" target="_top" xlink:title=" ">
<polygon fill="white" stroke="black" points="142.5,-112.5 142.5,-131.5 249.5,-131.5 249.5,-112.5 142.5,-112.5"/>
<text text-anchor="middle" x="196" y="-119.5" font-family="Helvetica,sans-Serif" font-size="10.00">IncrementButton.cpp</text>
</a>
</g>
</g>
<!-- Node21&#45;&gt;Node22 -->
<g id="edge26" class="edge"><title>Node21&#45;&gt;Node22</title>
<path fill="none" stroke="midnightblue" d="M196,-157.805C196,-148.91 196,-138.78 196,-131.751"/>
<polygon fill="midnightblue" stroke="midnightblue" points="192.5,-158.083 196,-168.083 199.5,-158.083 192.5,-158.083"/>
</g>
<!-- Node24 -->
<g id="node24" class="node"><title>Node24</title>
<g id="a_node24"><a xlink:href="../../da/d66/IncrementDecrementButtons_8cpp.html" target="_top" xlink:title=" ">
<polygon fill="white" stroke="black" points="267.5,-112.5 267.5,-131.5 428.5,-131.5 428.5,-112.5 267.5,-112.5"/>
<text text-anchor="middle" x="348" y="-119.5" font-family="Helvetica,sans-Serif" font-size="10.00">IncrementDecrementButtons.cpp</text>
</a>
</g>
</g>
<!-- Node23&#45;&gt;Node24 -->
<g id="edge28" class="edge"><title>Node23&#45;&gt;Node24</title>
<path fill="none" stroke="midnightblue" d="M348,-157.805C348,-148.91 348,-138.78 348,-131.751"/>
<polygon fill="midnightblue" stroke="midnightblue" points="344.5,-158.083 348,-168.083 351.5,-158.083 344.5,-158.083"/>
</g>
<!-- Node25&#45;&gt;Node4 -->
<g id="edge32" class="edge"><title>Node25&#45;&gt;Node4</title>
<path fill="none" stroke="midnightblue" d="M1277.35,-223.972C1091.78,-204.343 1043.56,-204.64 862,-188 859.092,-187.734 856.134,-187.46 853.146,-187.182"/>
<polygon fill="midnightblue" stroke="midnightblue" points="1277.13,-227.468 1287.44,-225.045 1277.87,-220.508 1277.13,-227.468"/>
</g>
<!-- Node25&#45;&gt;Node26 -->
<g id="edge33" class="edge"><title>Node25&#45;&gt;Node26</title>
<path fill="none" stroke="midnightblue" d="M1349,-213.805C1349,-204.91 1349,-194.78 1349,-187.751"/>
<polygon fill="midnightblue" stroke="midnightblue" points="1345.5,-214.083 1349,-224.083 1352.5,-214.083 1345.5,-214.083"/>
</g>
<!-- Node25&#45;&gt;Node27 -->
<g id="edge34" class="edge"><title>Node25&#45;&gt;Node27</title>
<path fill="none" stroke="midnightblue" d="M1381.25,-220.906C1408.32,-210.754 1446.32,-196.506 1470.29,-187.516"/>
<polygon fill="midnightblue" stroke="midnightblue" points="1379.95,-217.655 1371.82,-224.444 1382.41,-224.209 1379.95,-217.655"/>
</g>
<!-- Node30 -->
<g id="node30" class="node"><title>Node30</title>
<g id="a_node30"><a xlink:href="../../d6/d3a/DotBarDisplayLEDs_8hpp.html" target="_top" xlink:title=" ">
<polygon fill="white" stroke="black" points="871,-168.5 871,-187.5 995,-187.5 995,-168.5 871,-168.5"/>
<text text-anchor="middle" x="933" y="-175.5" font-family="Helvetica,sans-Serif" font-size="10.00">DotBarDisplayLEDs.hpp</text>
</a>
</g>
</g>
<!-- Node29&#45;&gt;Node30 -->
<g id="edge42" class="edge"><title>Node29&#45;&gt;Node30</title>
<path fill="none" stroke="midnightblue" d="M844.72,-220.096C866.392,-210.007 895.902,-196.27 914.705,-187.516"/>
<polygon fill="midnightblue" stroke="midnightblue" points="842.969,-217.05 835.381,-224.444 845.923,-223.396 842.969,-217.05"/>
</g>
<!-- Node31&#45;&gt;Node6 -->
<g id="edge44" class="edge"><title>Node31&#45;&gt;Node6</title>
<path fill="none" stroke="midnightblue" d="M981.15,-223.955C1063.19,-212.059 1196.44,-192.17 1200,-188 1216.39,-168.79 1186,-144.459 1166.51,-131.706"/>
<polygon fill="midnightblue" stroke="midnightblue" points="980.561,-220.504 971.166,-225.4 981.564,-227.432 980.561,-220.504"/>
</g>
<!-- Node32 -->
<g id="node32" class="node"><title>Node32</title>
<g id="a_node32"><a xlink:href="../../d5/d0c/MAX7219SevenSegmentDisplay_8hpp.html" target="_top" xlink:title=" ">
<polygon fill="white" stroke="black" points="1013,-168.5 1013,-187.5 1191,-187.5 1191,-168.5 1013,-168.5"/>
<text text-anchor="middle" x="1102" y="-175.5" font-family="Helvetica,sans-Serif" font-size="10.00">MAX7219SevenSegmentDisplay.hpp</text>
</a>
</g>
</g>
<!-- Node31&#45;&gt;Node32 -->
<g id="edge45" class="edge"><title>Node31&#45;&gt;Node32</title>
<path fill="none" stroke="midnightblue" d="M956.954,-221.568C991.665,-211.381 1041.68,-196.703 1072.98,-187.516"/>
<polygon fill="midnightblue" stroke="midnightblue" points="955.765,-218.269 947.155,-224.444 957.736,-224.986 955.765,-218.269"/>
</g>
<!-- Node33&#45;&gt;Node13 -->
<g id="edge49" class="edge"><title>Node33&#45;&gt;Node13</title>
<path fill="none" stroke="midnightblue" d="M379.303,-280.051C379.202,-280.034 379.101,-280.017 379,-280 255.671,-259.459 223.656,-262.469 100,-244 95.4769,-243.324 90.7437,-242.578 86.0463,-241.812"/>
<polygon fill="midnightblue" stroke="midnightblue" points="378.476,-283.458 388.936,-281.775 379.71,-276.568 378.476,-283.458"/>
</g>
<!-- Node35 -->
<g id="node35" class="node"><title>Node35</title>
<g id="a_node35"><a xlink:href="../../df/da1/Notch_8hpp.html" target="_top" xlink:title=" ">
<polygon fill="white" stroke="black" points="677,-280.5 677,-299.5 739,-299.5 739,-280.5 677,-280.5"/>
<text text-anchor="middle" x="708" y="-287.5" font-family="Helvetica,sans-Serif" font-size="10.00">Notch.hpp</text>
</a>
</g>
</g>
<!-- Node34&#45;&gt;Node35 -->
<g id="edge51" class="edge"><title>Node34&#45;&gt;Node35</title>
<path fill="none" stroke="midnightblue" d="M685.832,-327.275C691.472,-318.045 698.118,-307.17 702.652,-299.751"/>
<polygon fill="midnightblue" stroke="midnightblue" points="682.677,-325.725 680.449,-336.083 688.65,-329.375 682.677,-325.725"/>
</g>
<!-- Node38&#45;&gt;Node33 -->
<g id="edge55" class="edge"><title>Node38&#45;&gt;Node33</title>
<path fill="none" stroke="midnightblue" d="M419.75,-326.101C420.58,-317.136 421.532,-306.858 422.19,-299.751"/>
<polygon fill="midnightblue" stroke="midnightblue" points="416.263,-325.803 418.826,-336.083 423.233,-326.448 416.263,-325.803"/>
</g>
<!-- Node38&#45;&gt;Node36 -->
<g id="edge56" class="edge"><title>Node38&#45;&gt;Node36</title>
<path fill="none" stroke="midnightblue" d="M395.901,-330.622C380.738,-320.757 361.117,-307.992 348.302,-299.655"/>
<polygon fill="midnightblue" stroke="midnightblue" points="394.374,-333.804 404.665,-336.324 398.191,-327.937 394.374,-333.804"/>
</g>
<!-- Node39&#45;&gt;Node6 -->
<g id="edge58" class="edge"><title>Node39&#45;&gt;Node6</title>
<path fill="none" stroke="midnightblue" d="M1561.94,-167.812C1403.71,-144.279 1360.66,-152.996 1205,-132 1200.47,-131.389 1195.73,-130.682 1191.03,-129.938"/>
<polygon fill="midnightblue" stroke="midnightblue" points="1561.63,-171.303 1572.04,-169.333 1562.67,-164.382 1561.63,-171.303"/>
</g>
<!-- Node39&#45;&gt;Node7 -->
<g id="edge59" class="edge"><title>Node39&#45;&gt;Node7</title>
<path fill="none" stroke="midnightblue" d="M1562.11,-167.953C1405.43,-148.999 995.212,-131.756 834.654,-125.485"/>
<polygon fill="midnightblue" stroke="midnightblue" points="1561.69,-171.429 1572.05,-169.204 1562.57,-164.484 1561.69,-171.429"/>
</g>
<!-- Node39&#45;&gt;Node11 -->
<g id="edge60" class="edge"><title>Node39&#45;&gt;Node11</title>
<path fill="none" stroke="midnightblue" d="M1562.47,-167.793C1312.02,-123.317 1024.71,-88.4232 899.985,-74.0657"/>
<polygon fill="midnightblue" stroke="midnightblue" points="1562.03,-171.269 1572.49,-169.58 1563.26,-164.378 1562.03,-171.269"/>
</g>
</g>
</svg>
