<?xml version="1.0" encoding="UTF-8" standalone="no"?>
<!DOCTYPE svg PUBLIC "-//W3C//DTD SVG 1.1//EN"
 "http://www.w3.org/Graphics/SVG/1.1/DTD/svg11.dtd">
<!-- Generated by graphviz version 2.40.1 (20161225.0304)
 -->
<!-- Title: Error.hpp Pages: 1 -->
<svg width="1715pt" height="476pt"
 viewBox="0.00 0.00 1714.54 476.00" xmlns="http://www.w3.org/2000/svg" xmlns:xlink="http://www.w3.org/1999/xlink">
<g id="graph0" class="graph" transform="scale(1 1) rotate(0) translate(4 472)">
<title>Error.hpp</title>
<polygon fill="#ffffff" stroke="transparent" points="-4,4 -4,-472 1710.5416,-472 1710.5416,4 -4,4"/>
<!-- Node1 -->
<g id="node1" class="node">
<title>Node1</title>
<g id="a_node1"><a xlink:title=" ">
<polygon fill="#bfbfbf" stroke="#000000" points="852,-448.5 852,-467.5 908,-467.5 908,-448.5 852,-448.5"/>
<text text-anchor="middle" x="880" y="-455.5" font-family="Helvetica,sans-Serif" font-size="10.00" fill="#000000">Error.hpp</text>
</a>
</g>
</g>
<!-- Node2 -->
<g id="node2" class="node">
<title>Node2</title>
<g id="a_node2"><a xlink:href="../../de/d76/Array_8hpp.html" target="_top" xlink:title=" ">
<polygon fill="#ffffff" stroke="#000000" points="250.5,-392.5 250.5,-411.5 309.5,-411.5 309.5,-392.5 250.5,-392.5"/>
<text text-anchor="middle" x="280" y="-399.5" font-family="Helvetica,sans-Serif" font-size="10.00" fill="#000000">Array.hpp</text>
</a>
</g>
</g>
<!-- Node1&#45;&gt;Node2 -->
<g id="edge1" class="edge">
<title>Node1&#45;&gt;Node2</title>
<path fill="none" stroke="#191970" d="M841.7864,-454.4334C730.7067,-444.066 409.4715,-414.084 309.8334,-404.7845"/>
<polygon fill="#191970" stroke="#191970" points="841.5835,-457.9296 851.8655,-455.3741 842.2341,-450.9599 841.5835,-457.9296"/>
</g>
<!-- Node26 -->
<g id="node26" class="node">
<title>Node26</title>
<g id="a_node26"><a xlink:href="../../d6/d3c/ExtendedInputOutput_8cpp.html" target="_top" xlink:title=" ">
<polygon fill="#ffffff" stroke="#000000" points="586,-168.5 586,-187.5 714,-187.5 714,-168.5 586,-168.5"/>
<text text-anchor="middle" x="650" y="-175.5" font-family="Helvetica,sans-Serif" font-size="10.00" fill="#000000">ExtendedInputOutput.cpp</text>
</a>
</g>
</g>
<!-- Node1&#45;&gt;Node26 -->
<g id="edge65" class="edge">
<title>Node1&#45;&gt;Node26</title>
<path fill="none" stroke="#191970" d="M841.8174,-455.3179C742.9046,-447.328 486,-419.5014 486,-346 486,-346 486,-346 486,-290 486,-259.3494 484.4895,-245.8348 506,-224 519.9979,-209.791 568.139,-196.2384 604.9433,-187.5719"/>
<polygon fill="#191970" stroke="#191970" points="841.7377,-458.8222 851.9803,-456.1135 842.284,-451.8436 841.7377,-458.8222"/>
</g>
<!-- Node27 -->
<g id="node27" class="node">
<title>Node27</title>
<g id="a_node27"><a xlink:href="../../da/d1f/ExtendedIOElement_8cpp.html" target="_top" xlink:title=" ">
<polygon fill="#ffffff" stroke="#000000" points="220.5,-168.5 220.5,-187.5 343.5,-187.5 343.5,-168.5 220.5,-168.5"/>
<text text-anchor="middle" x="282" y="-175.5" font-family="Helvetica,sans-Serif" font-size="10.00" fill="#000000">ExtendedIOElement.cpp</text>
</a>
</g>
</g>
<!-- Node1&#45;&gt;Node27 -->
<g id="edge66" class="edge">
<title>Node1&#45;&gt;Node27</title>
<path fill="none" stroke="#191970" d="M841.5135,-457.2146C671.9609,-453.2553 0,-432.1311 0,-346 0,-346 0,-346 0,-290 0,-254.245 16.0396,-243.5139 46,-224 74.1575,-205.6604 160.2416,-192.1945 220.2545,-184.7259"/>
<polygon fill="#191970" stroke="#191970" points="841.6407,-460.7182 851.7175,-457.4461 841.7995,-453.72 841.6407,-460.7182"/>
</g>
<!-- Node40 -->
<g id="node40" class="node">
<title>Node40</title>
<g id="a_node40"><a xlink:href="../../d1/d40/BitArray_8hpp.html" target="_top" xlink:title=" ">
<polygon fill="#ffffff" stroke="#000000" points="1184.5,-168.5 1184.5,-187.5 1255.5,-187.5 1255.5,-168.5 1184.5,-168.5"/>
<text text-anchor="middle" x="1220" y="-175.5" font-family="Helvetica,sans-Serif" font-size="10.00" fill="#000000">BitArray.hpp</text>
</a>
</g>
</g>
<!-- Node1&#45;&gt;Node40 -->
<g id="edge58" class="edge">
<title>Node1&#45;&gt;Node40</title>
<path fill="none" stroke="#191970" d="M912.437,-444.3458C951.1118,-427.1503 1016.591,-395.076 1065,-356 1132.278,-301.6929 1193.9496,-215.9857 1213.5522,-187.5324"/>
<polygon fill="#191970" stroke="#191970" points="910.9615,-441.171 903.2086,-448.3921 913.7725,-447.5818 910.9615,-441.171"/>
</g>
<!-- Node41 -->
<g id="node41" class="node">
<title>Node41</title>
<g id="a_node41"><a xlink:href="../../d4/d93/Updatable_8hpp.html" target="_top" xlink:title=" ">
<polygon fill="#ffffff" stroke="#000000" points="764,-336.5 764,-355.5 844,-355.5 844,-336.5 764,-336.5"/>
<text text-anchor="middle" x="804" y="-343.5" font-family="Helvetica,sans-Serif" font-size="10.00" fill="#000000">Updatable.hpp</text>
</a>
</g>
</g>
<!-- Node1&#45;&gt;Node41 -->
<g id="edge62" class="edge">
<title>Node1&#45;&gt;Node41</title>
<path fill="none" stroke="#191970" d="M867.7129,-439.8927C851.3846,-415.8299 823.1258,-374.1853 810.4633,-355.5249"/>
<polygon fill="#191970" stroke="#191970" points="865.0091,-442.1414 873.5203,-448.4509 870.8014,-438.2109 865.0091,-442.1414"/>
</g>
<!-- Node42 -->
<g id="node42" class="node">
<title>Node42</title>
<g id="a_node42"><a xlink:href="../../d6/df4/Exit_8cpp.html" target="_top" xlink:title=" ">
<polygon fill="#ffffff" stroke="#000000" points="1088.5,-392.5 1088.5,-411.5 1141.5,-411.5 1141.5,-392.5 1088.5,-392.5"/>
<text text-anchor="middle" x="1115" y="-399.5" font-family="Helvetica,sans-Serif" font-size="10.00" fill="#000000">Exit.cpp</text>
</a>
</g>
</g>
<!-- Node1&#45;&gt;Node42 -->
<g id="edge64" class="edge">
<title>Node1&#45;&gt;Node42</title>
<path fill="none" stroke="#191970" d="M918.1936,-449.0201C957.3308,-439.8004 1019.9355,-425.0028 1074,-412 1078.5591,-410.9035 1083.4011,-409.7303 1088.0997,-408.5872"/>
<polygon fill="#191970" stroke="#191970" points="917.2182,-445.654 908.2866,-451.3529 918.8226,-452.4677 917.2182,-445.654"/>
</g>
<!-- Node43 -->
<g id="node43" class="node">
<title>Node43</title>
<g id="a_node43"><a xlink:href="../../d4/d1b/vector_8cpp.html" target="_top" xlink:title=" ">
<polygon fill="#ffffff" stroke="#000000" points="1160,-392.5 1160,-411.5 1222,-411.5 1222,-392.5 1160,-392.5"/>
<text text-anchor="middle" x="1191" y="-399.5" font-family="Helvetica,sans-Serif" font-size="10.00" fill="#000000">vector.cpp</text>
</a>
</g>
</g>
<!-- Node1&#45;&gt;Node43 -->
<g id="edge67" class="edge">
<title>Node1&#45;&gt;Node43</title>
<path fill="none" stroke="#191970" d="M918.1265,-452.4737C970.7376,-444.6331 1068.4597,-429.2961 1151,-412 1153.8024,-411.4128 1156.7056,-410.7649 1159.6097,-410.0897"/>
<polygon fill="#191970" stroke="#191970" points="917.6029,-449.013 908.2236,-453.9402 918.6284,-455.9375 917.6029,-449.013"/>
</g>
<!-- Node44 -->
<g id="node44" class="node">
<title>Node44</title>
<g id="a_node44"><a xlink:href="../../d3/d50/FixedPoint_8hpp.html" target="_top" xlink:title=" ">
<polygon fill="#ffffff" stroke="#000000" points="1240,-392.5 1240,-411.5 1322,-411.5 1322,-392.5 1240,-392.5"/>
<text text-anchor="middle" x="1281" y="-399.5" font-family="Helvetica,sans-Serif" font-size="10.00" fill="#000000">FixedPoint.hpp</text>
</a>
</g>
</g>
<!-- Node1&#45;&gt;Node44 -->
<g id="edge68" class="edge">
<title>Node1&#45;&gt;Node44</title>
<path fill="none" stroke="#191970" d="M918.4432,-453.8168C983.1497,-446.5846 1117.8475,-430.7082 1231,-412 1233.8822,-411.5235 1236.8521,-411.0036 1239.8394,-410.4596"/>
<polygon fill="#191970" stroke="#191970" points="917.8555,-450.3605 908.3031,-454.9433 918.6284,-457.3177 917.8555,-450.3605"/>
</g>
<!-- Node3 -->
<g id="node3" class="node">
<title>Node3</title>
<g id="a_node3"><a xlink:href="../../d5/db6/ArrayHelpers_8hpp.html" target="_top" xlink:title=" ">
<polygon fill="#ffffff" stroke="#000000" points="242,-280.5 242,-299.5 334,-299.5 334,-280.5 242,-280.5"/>
<text text-anchor="middle" x="288" y="-287.5" font-family="Helvetica,sans-Serif" font-size="10.00" fill="#000000">ArrayHelpers.hpp</text>
</a>
</g>
</g>
<!-- Node2&#45;&gt;Node3 -->
<g id="edge2" class="edge">
<title>Node2&#45;&gt;Node3</title>
<path fill="none" stroke="#191970" d="M281.4093,-382.2702C283.143,-357.9985 286.0163,-317.7725 287.3197,-299.5249"/>
<polygon fill="#191970" stroke="#191970" points="277.9035,-382.227 280.6821,-392.4509 284.8857,-382.7258 277.9035,-382.227"/>
</g>
<!-- Node5 -->
<g id="node5" class="node">
<title>Node5</title>
<g id="a_node5"><a xlink:href="../../d7/def/AnalogMultiplex_8hpp.html" target="_top" xlink:title=" ">
<polygon fill="#ffffff" stroke="#000000" points="432,-112.5 432,-131.5 536,-131.5 536,-112.5 432,-112.5"/>
<text text-anchor="middle" x="484" y="-119.5" font-family="Helvetica,sans-Serif" font-size="10.00" fill="#000000">AnalogMultiplex.hpp</text>
</a>
</g>
</g>
<!-- Node2&#45;&gt;Node5 -->
<g id="edge17" class="edge">
<title>Node2&#45;&gt;Node5</title>
<path fill="none" stroke="#191970" d="M265.1314,-384.2418C231.5022,-341.8602 156.6793,-233.462 212,-168 226.0268,-151.4018 356.8873,-135.217 431.8642,-127.2027"/>
<polygon fill="#191970" stroke="#191970" points="262.6036,-386.6815 271.6206,-392.2443 268.0407,-382.2726 262.6036,-386.6815"/>
</g>
<!-- Node15 -->
<g id="node15" class="node">
<title>Node15</title>
<g id="a_node15"><a xlink:href="../../d4/d35/Hardware-Types_8hpp.html" target="_top" xlink:title=" ">
<polygon fill="#ffffff" stroke="#000000" points="948.5,-336.5 948.5,-355.5 1055.5,-355.5 1055.5,-336.5 948.5,-336.5"/>
<text text-anchor="middle" x="1002" y="-343.5" font-family="Helvetica,sans-Serif" font-size="10.00" fill="#000000">Hardware&#45;Types.hpp</text>
</a>
</g>
</g>
<!-- Node2&#45;&gt;Node15 -->
<g id="edge18" class="edge">
<title>Node2&#45;&gt;Node15</title>
<path fill="none" stroke="#191970" d="M319.6521,-398.9245C441.3772,-389.4832 809.8157,-360.9063 948.4652,-350.1523"/>
<polygon fill="#191970" stroke="#191970" points="319.3487,-395.4374 309.6493,-399.7003 319.89,-402.4165 319.3487,-395.4374"/>
</g>
<!-- Node34 -->
<g id="node34" class="node">
<title>Node34</title>
<g id="a_node34"><a xlink:href="../../d1/dde/BiQuad_8hpp.html" target="_top" xlink:title=" ">
<polygon fill="#ffffff" stroke="#000000" points="28,-280.5 28,-299.5 96,-299.5 96,-280.5 28,-280.5"/>
<text text-anchor="middle" x="62" y="-287.5" font-family="Helvetica,sans-Serif" font-size="10.00" fill="#000000">BiQuad.hpp</text>
</a>
</g>
</g>
<!-- Node2&#45;&gt;Node34 -->
<g id="edge49" class="edge">
<title>Node2&#45;&gt;Node34</title>
<path fill="none" stroke="#191970" d="M239.8245,-399.6261C181.966,-395.2739 79.625,-383.7684 57,-356 43.9348,-339.9647 51.7145,-313.8496 57.4851,-299.7571"/>
<polygon fill="#191970" stroke="#191970" points="239.8573,-403.1373 250.081,-400.3579 240.3555,-396.155 239.8573,-403.1373"/>
</g>
<!-- Node35 -->
<g id="node35" class="node">
<title>Node35</title>
<g id="a_node35"><a xlink:href="../../d2/d3b/FIRFilter_8hpp.html" target="_top" xlink:title=" ">
<polygon fill="#ffffff" stroke="#000000" points="308,-336.5 308,-355.5 382,-355.5 382,-336.5 308,-336.5"/>
<text text-anchor="middle" x="345" y="-343.5" font-family="Helvetica,sans-Serif" font-size="10.00" fill="#000000">FIRFilter.hpp</text>
</a>
</g>
</g>
<!-- Node2&#45;&gt;Node35 -->
<g id="edge51" class="edge">
<title>Node2&#45;&gt;Node35</title>
<path fill="none" stroke="#191970" d="M298.9835,-385.645C310.2879,-375.9058 324.247,-363.8795 333.8076,-355.6427"/>
<polygon fill="#191970" stroke="#191970" points="296.6138,-383.0668 291.3221,-392.2455 301.1827,-388.3701 296.6138,-383.0668"/>
</g>
<!-- Node37 -->
<g id="node37" class="node">
<title>Node37</title>
<g id="a_node37"><a xlink:href="../../dc/d64/IIRFilter_8hpp.html" target="_top" xlink:title=" ">
<polygon fill="#ffffff" stroke="#000000" points="114.5,-280.5 114.5,-299.5 185.5,-299.5 185.5,-280.5 114.5,-280.5"/>
<text text-anchor="middle" x="150" y="-287.5" font-family="Helvetica,sans-Serif" font-size="10.00" fill="#000000">IIRFilter.hpp</text>
</a>
</g>
</g>
<!-- Node2&#45;&gt;Node37 -->
<g id="edge53" class="edge">
<title>Node2&#45;&gt;Node37</title>
<path fill="none" stroke="#191970" d="M261.1631,-385.7713C233.638,-362.0573 183.2901,-318.6807 161.0557,-299.5249"/>
<polygon fill="#191970" stroke="#191970" points="259.0557,-388.5755 268.9163,-392.4509 263.6247,-383.2722 259.0557,-388.5755"/>
</g>
<!-- Node38 -->
<g id="node38" class="node">
<title>Node38</title>
<g id="a_node38"><a xlink:href="../../dc/d9c/SMA_8hpp.html" target="_top" xlink:title=" ">
<polygon fill="#ffffff" stroke="#000000" points="400.5,-336.5 400.5,-355.5 457.5,-355.5 457.5,-336.5 400.5,-336.5"/>
<text text-anchor="middle" x="429" y="-343.5" font-family="Helvetica,sans-Serif" font-size="10.00" fill="#000000">SMA.hpp</text>
</a>
</g>
</g>
<!-- Node2&#45;&gt;Node38 -->
<g id="edge54" class="edge">
<title>Node2&#45;&gt;Node38</title>
<path fill="none" stroke="#191970" d="M315.1512,-388.7888C342.3568,-378.5639 379.3809,-364.6488 403.7202,-355.5011"/>
<polygon fill="#191970" stroke="#191970" points="313.7434,-385.5788 305.614,-392.3733 316.2061,-392.1313 313.7434,-385.5788"/>
</g>
<!-- Node39 -->
<g id="node39" class="node">
<title>Node39</title>
<g id="a_node39"><a xlink:href="../../d2/d03/TransferFunction_8hpp.html" target="_top" xlink:title=" ">
<polygon fill="#ffffff" stroke="#000000" points="66.5,-336.5 66.5,-355.5 175.5,-355.5 175.5,-336.5 66.5,-336.5"/>
<text text-anchor="middle" x="121" y="-343.5" font-family="Helvetica,sans-Serif" font-size="10.00" fill="#000000">TransferFunction.hpp</text>
</a>
</g>
</g>
<!-- Node2&#45;&gt;Node39 -->
<g id="edge55" class="edge">
<title>Node2&#45;&gt;Node39</title>
<path fill="none" stroke="#191970" d="M242.871,-388.9231C213.805,-378.686 174.0631,-364.6889 147.9764,-355.5011"/>
<polygon fill="#191970" stroke="#191970" points="242.0721,-392.3524 252.6669,-392.3733 244.3975,-385.75 242.0721,-392.3524"/>
</g>
<!-- Node4 -->
<g id="node4" class="node">
<title>Node4</title>
<g id="a_node4"><a xlink:href="../../d2/d05/StaticSizeExtendedIOElement_8hpp.html" target="_top" xlink:title=" ">
<polygon fill="#ffffff" stroke="#000000" points="400,-168.5 400,-187.5 568,-187.5 568,-168.5 400,-168.5"/>
<text text-anchor="middle" x="484" y="-175.5" font-family="Helvetica,sans-Serif" font-size="10.00" fill="#000000">StaticSizeExtendedIOElement.hpp</text>
</a>
</g>
</g>
<!-- Node3&#45;&gt;Node4 -->
<g id="edge3" class="edge">
<title>Node3&#45;&gt;Node4</title>
<path fill="none" stroke="#191970" d="M313.5078,-275.4241C354.2767,-252.1276 433.014,-207.1349 467.3314,-187.5249"/>
<polygon fill="#191970" stroke="#191970" points="311.6568,-272.4506 304.7108,-280.4509 315.1298,-278.5284 311.6568,-272.4506"/>
</g>
<!-- Node13 -->
<g id="node13" class="node">
<title>Node13</title>
<g id="a_node13"><a xlink:href="../../df/ddc/SOSFilter_8hpp.html" target="_top" xlink:title=" ">
<polygon fill="#ffffff" stroke="#000000" points="55,-224.5 55,-243.5 133,-243.5 133,-224.5 55,-224.5"/>
<text text-anchor="middle" x="94" y="-231.5" font-family="Helvetica,sans-Serif" font-size="10.00" fill="#000000">SOSFilter.hpp</text>
</a>
</g>
</g>
<!-- Node3&#45;&gt;Node13 -->
<g id="edge15" class="edge">
<title>Node3&#45;&gt;Node13</title>
<path fill="none" stroke="#191970" d="M245.002,-277.5882C209.3592,-267.2996 159.4386,-252.8895 126.9146,-243.5011"/>
<polygon fill="#191970" stroke="#191970" points="244.0718,-280.9625 254.6502,-280.3733 246.0132,-274.2371 244.0718,-280.9625"/>
</g>
<!-- Node4&#45;&gt;Node5 -->
<g id="edge4" class="edge">
<title>Node4&#45;&gt;Node5</title>
<path fill="none" stroke="#191970" d="M484,-158.1575C484,-149.155 484,-138.9199 484,-131.6427"/>
<polygon fill="#191970" stroke="#191970" points="480.5001,-158.2455 484,-168.2455 487.5001,-158.2456 480.5001,-158.2455"/>
</g>
<!-- Node6 -->
<g id="node6" class="node">
<title>Node6</title>
<g id="a_node6"><a xlink:href="../../d2/d25/MAX7219_8hpp.html" target="_top" xlink:title=" ">
<polygon fill="#ffffff" stroke="#000000" points="1115,-112.5 1115,-131.5 1193,-131.5 1193,-112.5 1115,-112.5"/>
<text text-anchor="middle" x="1154" y="-119.5" font-family="Helvetica,sans-Serif" font-size="10.00" fill="#000000">MAX7219.hpp</text>
</a>
</g>
</g>
<!-- Node4&#45;&gt;Node6 -->
<g id="edge5" class="edge">
<title>Node4&#45;&gt;Node6</title>
<path fill="none" stroke="#191970" d="M578.3751,-167.9173C813.5089,-147.8624 875.8484,-163.6526 1106,-132 1108.8672,-131.6057 1111.8194,-131.1397 1114.7836,-130.6281"/>
<polygon fill="#191970" stroke="#191970" points="577.7959,-164.4543 568.1351,-168.8039 578.3998,-171.4282 577.7959,-164.4543"/>
</g>
<!-- Node7 -->
<g id="node7" class="node">
<title>Node7</title>
<g id="a_node7"><a xlink:href="../../d8/d93/ShiftRegisterOutBase_8hpp.html" target="_top" xlink:title=" ">
<polygon fill="#ffffff" stroke="#000000" points="965.5,-112.5 965.5,-131.5 1096.5,-131.5 1096.5,-112.5 965.5,-112.5"/>
<text text-anchor="middle" x="1031" y="-119.5" font-family="Helvetica,sans-Serif" font-size="10.00" fill="#000000">ShiftRegisterOutBase.hpp</text>
</a>
</g>
</g>
<!-- Node4&#45;&gt;Node7 -->
<g id="edge6" class="edge">
<title>Node4&#45;&gt;Node7</title>
<path fill="none" stroke="#191970" d="M578.5022,-167.848C722.6309,-152.8235 878.9449,-137.1396 965.2006,-128.5391"/>
<polygon fill="#191970" stroke="#191970" points="577.7298,-164.4095 568.1471,-168.9285 578.4564,-171.3717 577.7298,-164.4095"/>
</g>
<!-- Node8 -->
<g id="node8" class="node">
<title>Node8</title>
<g id="a_node8"><a xlink:href="../../d0/db4/ShiftRegisterOut_8hpp.html" target="_top" xlink:title=" ">
<polygon fill="#ffffff" stroke="#000000" points="676,-56.5 676,-75.5 784,-75.5 784,-56.5 676,-56.5"/>
<text text-anchor="middle" x="730" y="-63.5" font-family="Helvetica,sans-Serif" font-size="10.00" fill="#000000">ShiftRegisterOut.hpp</text>
</a>
</g>
</g>
<!-- Node7&#45;&gt;Node8 -->
<g id="edge7" class="edge">
<title>Node7&#45;&gt;Node8</title>
<path fill="none" stroke="#191970" d="M969.539,-110.5654C914.0255,-100.2373 833.2753,-85.214 781.1897,-75.5237"/>
<polygon fill="#191970" stroke="#191970" points="969.1268,-114.0487 979.5983,-112.4369 970.4072,-107.1668 969.1268,-114.0487"/>
</g>
<!-- Node10 -->
<g id="node10" class="node">
<title>Node10</title>
<g id="a_node10"><a xlink:href="../../d5/d47/ShiftRegisterOutBase_8ipp.html" target="_top" xlink:title=" ">
<polygon fill="#ffffff" stroke="#000000" points="1166,-56.5 1166,-75.5 1294,-75.5 1294,-56.5 1166,-56.5"/>
<text text-anchor="middle" x="1230" y="-63.5" font-family="Helvetica,sans-Serif" font-size="10.00" fill="#000000">ShiftRegisterOutBase.ipp</text>
</a>
</g>
</g>
<!-- Node7&#45;&gt;Node10 -->
<g id="edge10" class="edge">
<title>Node7&#45;&gt;Node10</title>
<path fill="none" stroke="#191970" d="M1069.8386,-109.4561C1104.862,-99.1765 1155.9476,-84.8494 1191.0198,-75.5011"/>
<polygon fill="#191970" stroke="#191970" points="1068.5654,-106.1826 1059.9673,-112.3733 1070.5492,-112.8957 1068.5654,-106.1826"/>
</g>
<!-- Node11 -->
<g id="node11" class="node">
<title>Node11</title>
<g id="a_node11"><a xlink:href="../../d7/d88/SPIShiftRegisterOut_8hpp.html" target="_top" xlink:title=" ">
<polygon fill="#ffffff" stroke="#000000" points="1022.5,-56.5 1022.5,-75.5 1147.5,-75.5 1147.5,-56.5 1022.5,-56.5"/>
<text text-anchor="middle" x="1085" y="-63.5" font-family="Helvetica,sans-Serif" font-size="10.00" fill="#000000">SPIShiftRegisterOut.hpp</text>
</a>
</g>
</g>
<!-- Node7&#45;&gt;Node11 -->
<g id="edge12" class="edge">
<title>Node7&#45;&gt;Node11</title>
<path fill="none" stroke="#191970" d="M1047.5969,-104.7884C1056.8347,-95.2085 1067.9904,-83.6396 1075.7017,-75.6427"/>
<polygon fill="#191970" stroke="#191970" points="1044.828,-102.6176 1040.4061,-112.2455 1049.8669,-107.4766 1044.828,-102.6176"/>
</g>
<!-- Node9 -->
<g id="node9" class="node">
<title>Node9</title>
<g id="a_node9"><a xlink:href="../../de/d95/ShiftRegisterOut_8ipp.html" target="_top" xlink:title=" ">
<polygon fill="#ffffff" stroke="#000000" points="677.5,-.5 677.5,-19.5 782.5,-19.5 782.5,-.5 677.5,-.5"/>
<text text-anchor="middle" x="730" y="-7.5" font-family="Helvetica,sans-Serif" font-size="10.00" fill="#000000">ShiftRegisterOut.ipp</text>
</a>
</g>
</g>
<!-- Node8&#45;&gt;Node9 -->
<g id="edge8" class="edge">
<title>Node8&#45;&gt;Node9</title>
<path fill="none" stroke="#191970" d="M723.5113,-46.1575C722.919,-37.155 723.3335,-26.9199 724.7549,-19.6427"/>
<polygon fill="#191970" stroke="#191970" points="720.0561,-46.739 724.7332,-56.2455 727.0053,-45.8972 720.0561,-46.739"/>
</g>
<!-- Node9&#45;&gt;Node8 -->
<g id="edge9" class="edge">
<title>Node9&#45;&gt;Node8</title>
<path fill="none" stroke="#191970" d="M736.4795,-29.7046C737.0821,-38.6944 736.6779,-48.9382 735.2668,-56.2455"/>
<polygon fill="#191970" stroke="#191970" points="739.9368,-29.1421 735.2451,-19.6427 732.9889,-29.9945 739.9368,-29.1421"/>
</g>
<!-- Node10&#45;&gt;Node7 -->
<g id="edge11" class="edge">
<title>Node10&#45;&gt;Node7</title>
<path fill="none" stroke="#191970" d="M1191.6299,-78.4064C1156.7508,-88.6496 1105.666,-102.9807 1070.4513,-112.3733"/>
<polygon fill="#191970" stroke="#191970" points="1192.8574,-81.6933 1201.4544,-75.5011 1190.8723,-74.9806 1192.8574,-81.6933"/>
</g>
<!-- Node12 -->
<g id="node12" class="node">
<title>Node12</title>
<g id="a_node12"><a xlink:href="../../da/d45/SPIShiftRegisterOut_8ipp.html" target="_top" xlink:title=" ">
<polygon fill="#ffffff" stroke="#000000" points="1024,-.5 1024,-19.5 1146,-19.5 1146,-.5 1024,-.5"/>
<text text-anchor="middle" x="1085" y="-7.5" font-family="Helvetica,sans-Serif" font-size="10.00" fill="#000000">SPIShiftRegisterOut.ipp</text>
</a>
</g>
</g>
<!-- Node11&#45;&gt;Node12 -->
<g id="edge13" class="edge">
<title>Node11&#45;&gt;Node12</title>
<path fill="none" stroke="#191970" d="M1078.5113,-46.1575C1077.919,-37.155 1078.3335,-26.9199 1079.7549,-19.6427"/>
<polygon fill="#191970" stroke="#191970" points="1075.0561,-46.739 1079.7332,-56.2455 1082.0053,-45.8972 1075.0561,-46.739"/>
</g>
<!-- Node12&#45;&gt;Node11 -->
<g id="edge14" class="edge">
<title>Node12&#45;&gt;Node11</title>
<path fill="none" stroke="#191970" d="M1091.4795,-29.7046C1092.0821,-38.6944 1091.6779,-48.9382 1090.2668,-56.2455"/>
<polygon fill="#191970" stroke="#191970" points="1094.9368,-29.1421 1090.2451,-19.6427 1087.9889,-29.9945 1094.9368,-29.1421"/>
</g>
<!-- Node14 -->
<g id="node14" class="node">
<title>Node14</title>
<g id="a_node14"><a xlink:href="../../d4/d40/Butterworth_8hpp.html" target="_top" xlink:title=" ">
<polygon fill="#ffffff" stroke="#000000" points="51,-168.5 51,-187.5 137,-187.5 137,-168.5 51,-168.5"/>
<text text-anchor="middle" x="94" y="-175.5" font-family="Helvetica,sans-Serif" font-size="10.00" fill="#000000">Butterworth.hpp</text>
</a>
</g>
</g>
<!-- Node13&#45;&gt;Node14 -->
<g id="edge16" class="edge">
<title>Node13&#45;&gt;Node14</title>
<path fill="none" stroke="#191970" d="M94,-214.1575C94,-205.155 94,-194.9199 94,-187.6427"/>
<polygon fill="#191970" stroke="#191970" points="90.5001,-214.2455 94,-224.2455 97.5001,-214.2456 90.5001,-214.2455"/>
</g>
<!-- Node16 -->
<g id="node16" class="node">
<title>Node16</title>
<g id="a_node16"><a xlink:href="../../d9/d4b/ButtonMatrix_8hpp.html" target="_top" xlink:title=" ">
<polygon fill="#ffffff" stroke="#000000" points="1430.5,-280.5 1430.5,-299.5 1521.5,-299.5 1521.5,-280.5 1430.5,-280.5"/>
<text text-anchor="middle" x="1476" y="-287.5" font-family="Helvetica,sans-Serif" font-size="10.00" fill="#000000">ButtonMatrix.hpp</text>
</a>
</g>
</g>
<!-- Node15&#45;&gt;Node16 -->
<g id="edge19" class="edge">
<title>Node15&#45;&gt;Node16</title>
<path fill="none" stroke="#191970" d="M1065.8901,-338.4518C1162.9634,-326.9832 1345.273,-305.4445 1430.2411,-295.4061"/>
<polygon fill="#191970" stroke="#191970" points="1065.4326,-334.9814 1055.9123,-339.6306 1066.254,-341.9331 1065.4326,-334.9814"/>
</g>
<!-- Node18 -->
<g id="node18" class="node">
<title>Node18</title>
<g id="a_node18"><a xlink:href="../../dd/ddf/ExtendedInputOutput_8hpp.html" target="_top" xlink:title=" ">
<polygon fill="#ffffff" stroke="#000000" points="938,-280.5 938,-299.5 1066,-299.5 1066,-280.5 938,-280.5"/>
<text text-anchor="middle" x="1002" y="-287.5" font-family="Helvetica,sans-Serif" font-size="10.00" fill="#000000">ExtendedInputOutput.hpp</text>
</a>
</g>
</g>
<!-- Node15&#45;&gt;Node18 -->
<g id="edge22" class="edge">
<title>Node15&#45;&gt;Node18</title>
<path fill="none" stroke="#191970" d="M1002,-326.1575C1002,-317.155 1002,-306.9199 1002,-299.6427"/>
<polygon fill="#191970" stroke="#191970" points="998.5001,-326.2455 1002,-336.2455 1005.5001,-326.2456 998.5001,-326.2455"/>
</g>
<!-- Node25 -->
<g id="node25" class="node">
<title>Node25</title>
<g id="a_node25"><a xlink:href="../../d4/d57/ExtendedIOElement_8hpp.html" target="_top" xlink:title=" ">
<polygon fill="#ffffff" stroke="#000000" points="514.5,-224.5 514.5,-243.5 637.5,-243.5 637.5,-224.5 514.5,-224.5"/>
<text text-anchor="middle" x="576" y="-231.5" font-family="Helvetica,sans-Serif" font-size="10.00" fill="#000000">ExtendedIOElement.hpp</text>
</a>
</g>
</g>
<!-- Node15&#45;&gt;Node25 -->
<g id="edge47" class="edge">
<title>Node15&#45;&gt;Node25</title>
<path fill="none" stroke="#191970" d="M955.7481,-333.8399C870.3228,-311.3806 689.486,-263.8367 612.2286,-243.5249"/>
<polygon fill="#191970" stroke="#191970" points="955.1182,-337.2931 965.6795,-336.4509 956.8981,-330.5232 955.1182,-337.2931"/>
</g>
<!-- Node28 -->
<g id="node28" class="node">
<title>Node28</title>
<g id="a_node28"><a xlink:href="../../d8/df3/FilteredAnalog_8hpp.html" target="_top" xlink:title=" ">
<polygon fill="#ffffff" stroke="#000000" points="1538,-224.5 1538,-243.5 1636,-243.5 1636,-224.5 1538,-224.5"/>
<text text-anchor="middle" x="1587" y="-231.5" font-family="Helvetica,sans-Serif" font-size="10.00" fill="#000000">FilteredAnalog.hpp</text>
</a>
</g>
</g>
<!-- Node15&#45;&gt;Node28 -->
<g id="edge48" class="edge">
<title>Node15&#45;&gt;Node28</title>
<path fill="none" stroke="#191970" d="M1066.1044,-343.156C1197.9489,-336.9132 1490.5824,-320.886 1531,-300 1555.5641,-287.3064 1573.747,-258.7642 1582.0318,-243.7132"/>
<polygon fill="#191970" stroke="#191970" points="1065.5798,-339.6767 1055.7548,-343.6416 1065.9079,-346.669 1065.5798,-339.6767"/>
</g>
<!-- Node17 -->
<g id="node17" class="node">
<title>Node17</title>
<g id="a_node17"><a xlink:href="../../d5/d41/ButtonMatrix_8ipp.html" target="_top" xlink:title=" ">
<polygon fill="#ffffff" stroke="#000000" points="1432,-224.5 1432,-243.5 1520,-243.5 1520,-224.5 1432,-224.5"/>
<text text-anchor="middle" x="1476" y="-231.5" font-family="Helvetica,sans-Serif" font-size="10.00" fill="#000000">ButtonMatrix.ipp</text>
</a>
</g>
</g>
<!-- Node16&#45;&gt;Node17 -->
<g id="edge20" class="edge">
<title>Node16&#45;&gt;Node17</title>
<path fill="none" stroke="#191970" d="M1469.5113,-270.1575C1468.919,-261.155 1469.3335,-250.9199 1470.7549,-243.6427"/>
<polygon fill="#191970" stroke="#191970" points="1466.0561,-270.739 1470.7332,-280.2455 1473.0053,-269.8972 1466.0561,-270.739"/>
</g>
<!-- Node17&#45;&gt;Node16 -->
<g id="edge21" class="edge">
<title>Node17&#45;&gt;Node16</title>
<path fill="none" stroke="#191970" d="M1482.4795,-253.7046C1483.0821,-262.6944 1482.6779,-272.9382 1481.2668,-280.2455"/>
<polygon fill="#191970" stroke="#191970" points="1485.9368,-253.1421 1481.2451,-243.6427 1478.9889,-253.9945 1485.9368,-253.1421"/>
</g>
<!-- Node18&#45;&gt;Node5 -->
<g id="edge30" class="edge">
<title>Node18&#45;&gt;Node5</title>
<path fill="none" stroke="#191970" d="M927.5158,-282.8937C867.0363,-275.8401 787.7165,-263.2682 762,-244 731.6167,-221.2352 753.3745,-190.7766 723,-168 694.1381,-146.3577 597.4516,-133.1215 536.2574,-126.7059"/>
<polygon fill="#191970" stroke="#191970" points="927.4779,-286.4119 937.809,-284.0628 928.2679,-279.4566 927.4779,-286.4119"/>
</g>
<!-- Node18&#45;&gt;Node7 -->
<g id="edge36" class="edge">
<title>Node18&#45;&gt;Node7</title>
<path fill="none" stroke="#191970" d="M999.4159,-270.4109C996.893,-256.5844 992.0547,-238.0883 983,-224 966.1791,-197.8283 924.7612,-194.5368 941,-168 952.1742,-149.7396 973.1381,-138.4365 992.023,-131.6067"/>
<polygon fill="#191970" stroke="#191970" points="995.9643,-270.9922 1000.9792,-280.325 1002.8788,-269.9019 995.9643,-270.9922"/>
</g>
<!-- Node18&#45;&gt;Node9 -->
<g id="edge38" class="edge">
<title>Node18&#45;&gt;Node9</title>
<path fill="none" stroke="#191970" d="M927.6455,-284.4389C864.3224,-278.4041 771.4079,-266.4578 693,-244 671.5686,-237.8615 668.4561,-230.0519 647,-224 591.7087,-208.4045 428.6879,-231.3586 391,-188 303.4553,-87.283 561.6761,-35.0675 677.2123,-17.2204"/>
<polygon fill="#191970" stroke="#191970" points="927.6581,-287.955 937.9384,-285.3926 928.304,-280.9849 927.6581,-287.955"/>
</g>
<!-- Node18&#45;&gt;Node10 -->
<g id="edge37" class="edge">
<title>Node18&#45;&gt;Node10</title>
<path fill="none" stroke="#191970" d="M1052.4583,-277.9574C1122.0039,-260.1821 1241.4303,-225.0091 1265,-188 1288.6732,-150.8284 1253.9947,-97.2745 1237.6901,-75.6234"/>
<polygon fill="#191970" stroke="#191970" points="1051.4159,-274.6107 1042.5767,-280.4519 1053.1293,-281.3978 1051.4159,-274.6107"/>
</g>
<!-- Node18&#45;&gt;Node12 -->
<g id="edge39" class="edge">
<title>Node18&#45;&gt;Node12</title>
<path fill="none" stroke="#191970" d="M1076.1606,-284.3171C1170.8407,-276.5044 1329.0916,-261.4174 1385,-244 1403.2215,-238.3234 1404.8201,-229.8085 1423,-224 1480.0301,-205.7788 1650.5952,-233.0744 1690,-188 1712.2315,-162.5698 1711.8089,-137.7936 1690,-112 1654.9899,-70.5933 1292.9048,-30.5241 1146.2124,-15.8618"/>
<polygon fill="#191970" stroke="#191970" points="1075.7537,-280.8386 1066.0722,-285.1419 1076.3242,-287.8153 1075.7537,-280.8386"/>
</g>
<!-- Node18&#45;&gt;Node17 -->
<g id="edge29" class="edge">
<title>Node18&#45;&gt;Node17</title>
<path fill="none" stroke="#191970" d="M1076.4254,-283.1426C1159.7915,-275.1425 1298.8604,-260.8419 1418,-244 1422.4517,-243.3707 1427.0865,-242.6623 1431.7099,-241.9206"/>
<polygon fill="#191970" stroke="#191970" points="1075.9121,-279.6756 1066.2902,-284.1105 1076.5777,-286.6439 1075.9121,-279.6756"/>
</g>
<!-- Node19 -->
<g id="node19" class="node">
<title>Node19</title>
<g id="a_node19"><a xlink:href="../../d4/db3/Button_8hpp.html" target="_top" xlink:title=" ">
<polygon fill="#ffffff" stroke="#000000" points="1312,-224.5 1312,-243.5 1376,-243.5 1376,-224.5 1312,-224.5"/>
<text text-anchor="middle" x="1344" y="-231.5" font-family="Helvetica,sans-Serif" font-size="10.00" fill="#000000">Button.hpp</text>
</a>
</g>
</g>
<!-- Node18&#45;&gt;Node19 -->
<g id="edge23" class="edge">
<title>Node18&#45;&gt;Node19</title>
<path fill="none" stroke="#191970" d="M1070.4574,-278.7906C1143.6518,-266.8056 1256.5899,-248.3128 1311.6257,-239.3011"/>
<polygon fill="#191970" stroke="#191970" points="1069.7063,-275.3669 1060.4033,-280.4369 1070.8375,-282.2749 1069.7063,-275.3669"/>
</g>
<!-- Node18&#45;&gt;Node25 -->
<g id="edge31" class="edge">
<title>Node18&#45;&gt;Node25</title>
<path fill="none" stroke="#191970" d="M927.647,-280.2311C856.795,-270.9215 747.1254,-256.5094 652,-244 647.3819,-243.3927 642.606,-242.7645 637.8017,-242.1326"/>
<polygon fill="#191970" stroke="#191970" points="927.4418,-283.7342 937.8125,-281.5668 928.3537,-276.7938 927.4418,-283.7342"/>
</g>
<!-- Node18&#45;&gt;Node26 -->
<g id="edge35" class="edge">
<title>Node18&#45;&gt;Node26</title>
<path fill="none" stroke="#191970" d="M927.652,-282.0075C858.9998,-273.8213 762.5973,-260.0472 728,-244 698.7122,-230.4155 671.6443,-202.7879 658.4429,-187.9508"/>
<polygon fill="#191970" stroke="#191970" points="927.6529,-285.5316 937.9932,-283.2236 928.4705,-278.5795 927.6529,-285.5316"/>
</g>
<!-- Node18&#45;&gt;Node28 -->
<g id="edge40" class="edge">
<title>Node18&#45;&gt;Node28</title>
<path fill="none" stroke="#191970" d="M1076.4988,-285.4684C1178.7773,-278.7981 1368.2998,-264.8298 1529,-244 1531.9386,-243.6191 1534.9558,-243.1962 1537.9959,-242.7456"/>
<polygon fill="#191970" stroke="#191970" points="1076.0276,-281.9915 1066.2745,-286.1298 1076.4796,-288.9769 1076.0276,-281.9915"/>
</g>
<!-- Node29 -->
<g id="node29" class="node">
<title>Node29</title>
<g id="a_node29"><a xlink:href="../../d9/d4f/LEDs_8hpp.html" target="_top" xlink:title=" ">
<polygon fill="#ffffff" stroke="#000000" points="914,-224.5 914,-243.5 974,-243.5 974,-224.5 914,-224.5"/>
<text text-anchor="middle" x="944" y="-231.5" font-family="Helvetica,sans-Serif" font-size="10.00" fill="#000000">LEDs.hpp</text>
</a>
</g>
</g>
<!-- Node18&#45;&gt;Node29 -->
<g id="edge41" class="edge">
<title>Node18&#45;&gt;Node29</title>
<path fill="none" stroke="#191970" d="M984.4707,-273.0751C974.4917,-263.4402 962.3524,-251.7196 953.9871,-243.6427"/>
<polygon fill="#191970" stroke="#191970" points="982.272,-275.8175 991.8972,-280.2455 987.1342,-270.7817 982.272,-275.8175"/>
</g>
<!-- Node31 -->
<g id="node31" class="node">
<title>Node31</title>
<g id="a_node31"><a xlink:href="../../d7/d13/MAX7219__Base_8hpp.html" target="_top" xlink:title=" ">
<polygon fill="#ffffff" stroke="#000000" points="1030,-224.5 1030,-243.5 1136,-243.5 1136,-224.5 1030,-224.5"/>
<text text-anchor="middle" x="1083" y="-231.5" font-family="Helvetica,sans-Serif" font-size="10.00" fill="#000000">MAX7219_Base.hpp</text>
</a>
</g>
</g>
<!-- Node18&#45;&gt;Node31 -->
<g id="edge43" class="edge">
<title>Node18&#45;&gt;Node31</title>
<path fill="none" stroke="#191970" d="M1024.434,-274.49C1038.7254,-264.6096 1056.7916,-252.1194 1069.0526,-243.6427"/>
<polygon fill="#191970" stroke="#191970" points="1022.3443,-271.6797 1016.1091,-280.2455 1026.3251,-277.4376 1022.3443,-271.6797"/>
</g>
<!-- Node33 -->
<g id="node33" class="node">
<title>Node33</title>
<g id="a_node33"><a xlink:href="../../d8/dd2/MCP23017Encoders_8hpp.html" target="_top" xlink:title=" ">
<polygon fill="#ffffff" stroke="#000000" points="770.5,-224.5 770.5,-243.5 895.5,-243.5 895.5,-224.5 770.5,-224.5"/>
<text text-anchor="middle" x="833" y="-231.5" font-family="Helvetica,sans-Serif" font-size="10.00" fill="#000000">MCP23017Encoders.hpp</text>
</a>
</g>
</g>
<!-- Node18&#45;&gt;Node33 -->
<g id="edge46" class="edge">
<title>Node18&#45;&gt;Node33</title>
<path fill="none" stroke="#191970" d="M963.3427,-277.1905C932.3807,-266.9309 889.6426,-252.7691 861.673,-243.5011"/>
<polygon fill="#191970" stroke="#191970" points="962.3545,-280.5501 972.9479,-280.3733 964.5563,-273.9054 962.3545,-280.5501"/>
</g>
<!-- Node20 -->
<g id="node20" class="node">
<title>Node20</title>
<g id="a_node20"><a xlink:href="../../de/dd1/Button_8cpp.html" target="_top" xlink:title=" ">
<polygon fill="#ffffff" stroke="#000000" points="1312,-168.5 1312,-187.5 1376,-187.5 1376,-168.5 1312,-168.5"/>
<text text-anchor="middle" x="1344" y="-175.5" font-family="Helvetica,sans-Serif" font-size="10.00" fill="#000000">Button.cpp</text>
</a>
</g>
</g>
<!-- Node19&#45;&gt;Node20 -->
<g id="edge24" class="edge">
<title>Node19&#45;&gt;Node20</title>
<path fill="none" stroke="#191970" d="M1344,-214.1575C1344,-205.155 1344,-194.9199 1344,-187.6427"/>
<polygon fill="#191970" stroke="#191970" points="1340.5001,-214.2455 1344,-224.2455 1347.5001,-214.2456 1340.5001,-214.2455"/>
</g>
<!-- Node21 -->
<g id="node21" class="node">
<title>Node21</title>
<g id="a_node21"><a xlink:href="../../d5/d04/IncrementButton_8hpp.html" target="_top" xlink:title=" ">
<polygon fill="#ffffff" stroke="#000000" points="1394.5,-168.5 1394.5,-187.5 1501.5,-187.5 1501.5,-168.5 1394.5,-168.5"/>
<text text-anchor="middle" x="1448" y="-175.5" font-family="Helvetica,sans-Serif" font-size="10.00" fill="#000000">IncrementButton.hpp</text>
</a>
</g>
</g>
<!-- Node19&#45;&gt;Node21 -->
<g id="edge25" class="edge">
<title>Node19&#45;&gt;Node21</title>
<path fill="none" stroke="#191970" d="M1371.0029,-219.46C1389.6136,-209.4388 1413.8299,-196.3993 1430.0922,-187.6427"/>
<polygon fill="#191970" stroke="#191970" points="1369.2608,-216.4228 1362.1154,-224.2455 1372.5795,-222.5861 1369.2608,-216.4228"/>
</g>
<!-- Node23 -->
<g id="node23" class="node">
<title>Node23</title>
<g id="a_node23"><a xlink:href="../../df/df5/IncrementDecrementButtons_8hpp.html" target="_top" xlink:title=" ">
<polygon fill="#ffffff" stroke="#000000" points="1519.5,-168.5 1519.5,-187.5 1680.5,-187.5 1680.5,-168.5 1519.5,-168.5"/>
<text text-anchor="middle" x="1600" y="-175.5" font-family="Helvetica,sans-Serif" font-size="10.00" fill="#000000">IncrementDecrementButtons.hpp</text>
</a>
</g>
</g>
<!-- Node19&#45;&gt;Node23 -->
<g id="edge27" class="edge">
<title>Node19&#45;&gt;Node23</title>
<path fill="none" stroke="#191970" d="M1386.0075,-224.8109C1432.9349,-214.5455 1508.5512,-198.0044 1556.1961,-187.5821"/>
<polygon fill="#191970" stroke="#191970" points="1385.1844,-221.4081 1376.1634,-226.9643 1386.6803,-228.2464 1385.1844,-221.4081"/>
</g>
<!-- Node22 -->
<g id="node22" class="node">
<title>Node22</title>
<g id="a_node22"><a xlink:href="../../db/d9d/IncrementButton_8cpp.html" target="_top" xlink:title=" ">
<polygon fill="#ffffff" stroke="#000000" points="1394.5,-112.5 1394.5,-131.5 1501.5,-131.5 1501.5,-112.5 1394.5,-112.5"/>
<text text-anchor="middle" x="1448" y="-119.5" font-family="Helvetica,sans-Serif" font-size="10.00" fill="#000000">IncrementButton.cpp</text>
</a>
</g>
</g>
<!-- Node21&#45;&gt;Node22 -->
<g id="edge26" class="edge">
<title>Node21&#45;&gt;Node22</title>
<path fill="none" stroke="#191970" d="M1448,-158.1575C1448,-149.155 1448,-138.9199 1448,-131.6427"/>
<polygon fill="#191970" stroke="#191970" points="1444.5001,-158.2455 1448,-168.2455 1451.5001,-158.2456 1444.5001,-158.2455"/>
</g>
<!-- Node24 -->
<g id="node24" class="node">
<title>Node24</title>
<g id="a_node24"><a xlink:href="../../da/d66/IncrementDecrementButtons_8cpp.html" target="_top" xlink:title=" ">
<polygon fill="#ffffff" stroke="#000000" points="1519.5,-112.5 1519.5,-131.5 1680.5,-131.5 1680.5,-112.5 1519.5,-112.5"/>
<text text-anchor="middle" x="1600" y="-119.5" font-family="Helvetica,sans-Serif" font-size="10.00" fill="#000000">IncrementDecrementButtons.cpp</text>
</a>
</g>
</g>
<!-- Node23&#45;&gt;Node24 -->
<g id="edge28" class="edge">
<title>Node23&#45;&gt;Node24</title>
<path fill="none" stroke="#191970" d="M1600,-158.1575C1600,-149.155 1600,-138.9199 1600,-131.6427"/>
<polygon fill="#191970" stroke="#191970" points="1596.5001,-158.2455 1600,-168.2455 1603.5001,-158.2456 1596.5001,-158.2455"/>
</g>
<!-- Node25&#45;&gt;Node4 -->
<g id="edge32" class="edge">
<title>Node25&#45;&gt;Node4</title>
<path fill="none" stroke="#191970" d="M550.9776,-218.769C534.675,-208.8456 513.899,-196.1994 499.8415,-187.6427"/>
<polygon fill="#191970" stroke="#191970" points="549.613,-222.0357 559.9748,-224.2455 553.2527,-216.0563 549.613,-222.0357"/>
</g>
<!-- Node25&#45;&gt;Node26 -->
<g id="edge33" class="edge">
<title>Node25&#45;&gt;Node26</title>
<path fill="none" stroke="#191970" d="M596.8657,-218.2097C609.8625,-208.3743 626.1622,-196.0394 637.2579,-187.6427"/>
<polygon fill="#191970" stroke="#191970" points="594.7518,-215.4201 588.8898,-224.2455 598.976,-221.002 594.7518,-215.4201"/>
</g>
<!-- Node25&#45;&gt;Node27 -->
<g id="edge34" class="edge">
<title>Node25&#45;&gt;Node27</title>
<path fill="none" stroke="#191970" d="M515.9683,-222.5654C461.7458,-212.2373 382.8735,-197.214 331.9993,-187.5237"/>
<polygon fill="#191970" stroke="#191970" points="515.3153,-226.0039 525.7937,-224.4369 516.6252,-219.1275 515.3153,-226.0039"/>
</g>
<!-- Node30 -->
<g id="node30" class="node">
<title>Node30</title>
<g id="a_node30"><a xlink:href="../../d6/d3a/DotBarDisplayLEDs_8hpp.html" target="_top" xlink:title=" ">
<polygon fill="#ffffff" stroke="#000000" points="770,-168.5 770,-187.5 894,-187.5 894,-168.5 770,-168.5"/>
<text text-anchor="middle" x="832" y="-175.5" font-family="Helvetica,sans-Serif" font-size="10.00" fill="#000000">DotBarDisplayLEDs.hpp</text>
</a>
</g>
</g>
<!-- Node29&#45;&gt;Node30 -->
<g id="edge42" class="edge">
<title>Node29&#45;&gt;Node30</title>
<path fill="none" stroke="#191970" d="M915.6737,-219.8368C895.4279,-209.7139 868.7358,-196.3679 851.0022,-187.5011"/>
<polygon fill="#191970" stroke="#191970" points="914.237,-223.0316 924.7465,-224.3733 917.3675,-216.7706 914.237,-223.0316"/>
</g>
<!-- Node31&#45;&gt;Node6 -->
<g id="edge44" class="edge">
<title>Node31&#45;&gt;Node6</title>
<path fill="none" stroke="#191970" d="M1107.5258,-218.2434C1118.0234,-210.3405 1129.5542,-199.9116 1137,-188 1148.1637,-170.1405 1152.0217,-145.2086 1153.3363,-131.6736"/>
<polygon fill="#191970" stroke="#191970" points="1105.1821,-215.6154 1099.0633,-224.2647 1109.2404,-221.3189 1105.1821,-215.6154"/>
</g>
<!-- Node32 -->
<g id="node32" class="node">
<title>Node32</title>
<g id="a_node32"><a xlink:href="../../d5/d0c/MAX7219SevenSegmentDisplay_8hpp.html" target="_top" xlink:title=" ">
<polygon fill="#ffffff" stroke="#000000" points="950,-168.5 950,-187.5 1128,-187.5 1128,-168.5 950,-168.5"/>
<text text-anchor="middle" x="1039" y="-175.5" font-family="Helvetica,sans-Serif" font-size="10.00" fill="#000000">MAX7219SevenSegmentDisplay.hpp</text>
</a>
</g>
</g>
<!-- Node31&#45;&gt;Node32 -->
<g id="edge45" class="edge">
<title>Node31&#45;&gt;Node32</title>
<path fill="none" stroke="#191970" d="M1069.0231,-216.2112C1061.5871,-206.7472 1052.734,-195.4797 1046.5764,-187.6427"/>
<polygon fill="#191970" stroke="#191970" points="1066.4054,-218.5447 1075.3358,-224.2455 1071.9097,-214.22 1066.4054,-218.5447"/>
</g>
<!-- Node34&#45;&gt;Node13 -->
<g id="edge50" class="edge">
<title>Node34&#45;&gt;Node13</title>
<path fill="none" stroke="#191970" d="M72.6645,-271.3372C77.9654,-262.0605 84.1487,-251.2398 88.4899,-243.6427"/>
<polygon fill="#191970" stroke="#191970" points="69.4966,-269.8266 67.574,-280.2455 75.5743,-273.2996 69.4966,-269.8266"/>
</g>
<!-- Node36 -->
<g id="node36" class="node">
<title>Node36</title>
<g id="a_node36"><a xlink:href="../../df/da1/Notch_8hpp.html" target="_top" xlink:title=" ">
<polygon fill="#ffffff" stroke="#000000" points="352,-280.5 352,-299.5 414,-299.5 414,-280.5 352,-280.5"/>
<text text-anchor="middle" x="383" y="-287.5" font-family="Helvetica,sans-Serif" font-size="10.00" fill="#000000">Notch.hpp</text>
</a>
</g>
</g>
<!-- Node35&#45;&gt;Node36 -->
<g id="edge52" class="edge">
<title>Node35&#45;&gt;Node36</title>
<path fill="none" stroke="#191970" d="M357.2679,-327.9209C363.6488,-318.5176 371.1931,-307.3997 376.4568,-299.6427"/>
<polygon fill="#191970" stroke="#191970" points="354.338,-326.0055 351.6191,-336.2455 360.1303,-329.936 354.338,-326.0055"/>
</g>
<!-- Node39&#45;&gt;Node34 -->
<g id="edge56" class="edge">
<title>Node39&#45;&gt;Node34</title>
<path fill="none" stroke="#191970" d="M103.4693,-329.3607C93.2623,-319.6727 80.7531,-307.7995 72.1592,-299.6427"/>
<polygon fill="#191970" stroke="#191970" points="101.0604,-331.8998 110.723,-336.2455 105.8794,-326.8227 101.0604,-331.8998"/>
</g>
<!-- Node39&#45;&gt;Node37 -->
<g id="edge57" class="edge">
<title>Node39&#45;&gt;Node37</title>
<path fill="none" stroke="#191970" d="M130.6647,-327.3372C135.4687,-318.0605 141.0723,-307.2398 145.0065,-299.6427"/>
<polygon fill="#191970" stroke="#191970" points="127.542,-325.7561 126.0514,-336.2455 133.758,-328.9751 127.542,-325.7561"/>
</g>
<!-- Node40&#45;&gt;Node6 -->
<g id="edge59" class="edge">
<title>Node40&#45;&gt;Node6</title>
<path fill="none" stroke="#191970" d="M1200.7245,-161.645C1189.2462,-151.9058 1175.0723,-139.8795 1165.3646,-131.6427"/>
<polygon fill="#191970" stroke="#191970" points="1198.6141,-164.4445 1208.5037,-168.2455 1203.143,-159.1069 1198.6141,-164.4445"/>
</g>
<!-- Node40&#45;&gt;Node7 -->
<g id="edge60" class="edge">
<title>Node40&#45;&gt;Node7</title>
<path fill="none" stroke="#191970" d="M1177.6643,-165.4561C1142.9706,-155.1765 1094.6166,-140.8494 1063.0663,-131.5011"/>
<polygon fill="#191970" stroke="#191970" points="1176.9274,-168.8881 1187.5097,-168.3733 1178.9161,-162.1765 1176.9274,-168.8881"/>
</g>
<!-- Node40&#45;&gt;Node11 -->
<g id="edge61" class="edge">
<title>Node40&#45;&gt;Node11</title>
<path fill="none" stroke="#191970" d="M1219.1717,-157.8702C1217.5705,-143.4957 1213.2647,-124.5564 1202,-112 1185.3116,-93.3979 1160.146,-82.2338 1137.4249,-75.5755"/>
<polygon fill="#191970" stroke="#191970" points="1215.7097,-158.5045 1219.9573,-168.2106 1222.6896,-157.9741 1215.7097,-158.5045"/>
</g>
<!-- Node41&#45;&gt;Node25 -->
<g id="edge63" class="edge">
<title>Node41&#45;&gt;Node25</title>
<path fill="none" stroke="#191970" d="M775.5163,-332.008C728.4489,-308.8872 635.6464,-263.3 595.3899,-243.5249"/>
<polygon fill="#191970" stroke="#191970" points="774.0421,-335.1833 784.5608,-336.4509 777.1285,-328.9004 774.0421,-335.1833"/>
</g>
</g>
</svg>
