<?xml version="1.0" encoding="UTF-8" standalone="no"?>
<!DOCTYPE svg PUBLIC "-//W3C//DTD SVG 1.1//EN"
 "http://www.w3.org/Graphics/SVG/1.1/DTD/svg11.dtd">
<!-- Generated by graphviz version 2.38.0 (20140413.2041)
 -->
<!-- Title: Error.hpp Pages: 1 -->
<svg width="1610pt" height="420pt"
 viewBox="0.00 0.00 1609.50 420.00" xmlns="http://www.w3.org/2000/svg" xmlns:xlink="http://www.w3.org/1999/xlink">
<g id="graph0" class="graph" transform="scale(1 1) rotate(0) translate(4 416)">
<title>Error.hpp</title>
<polygon fill="white" stroke="none" points="-4,4 -4,-416 1605.5,-416 1605.5,4 -4,4"/>
<!-- Node1 -->
<g id="node1" class="node"><title>Node1</title>
<g id="a_node1"><a xlink:title=" ">
<polygon fill="#bfbfbf" stroke="black" points="1154.5,-392.5 1154.5,-411.5 1210.5,-411.5 1210.5,-392.5 1154.5,-392.5"/>
<text text-anchor="middle" x="1182.5" y="-399.5" font-family="Helvetica,sans-Serif" font-size="10.00">Error.hpp</text>
</a>
</g>
</g>
<!-- Node2 -->
<g id="node2" class="node"><title>Node2</title>
<g id="a_node2"><a xlink:href="../../de/d76/Array_8hpp.html" target="_top" xlink:title=" ">
<polygon fill="white" stroke="black" points="477,-336.5 477,-355.5 536,-355.5 536,-336.5 477,-336.5"/>
<text text-anchor="middle" x="506.5" y="-343.5" font-family="Helvetica,sans-Serif" font-size="10.00">Array.hpp</text>
</a>
</g>
</g>
<!-- Node1&#45;&gt;Node2 -->
<g id="edge1" class="edge"><title>Node1&#45;&gt;Node2</title>
<path fill="none" stroke="midnightblue" d="M1144.34,-397.952C1022.65,-388.231 645.41,-358.096 536.327,-349.383"/>
<polygon fill="midnightblue" stroke="midnightblue" points="1144.07,-401.441 1154.31,-398.748 1144.62,-394.463 1144.07,-401.441"/>
</g>
<!-- Node27 -->
<g id="node27" class="node"><title>Node27</title>
<g id="a_node27"><a xlink:href="../../d6/d3c/ExtendedInputOutput_8cpp.html" target="_top" xlink:title=" ">
<polygon fill="white" stroke="black" points="1250.5,-112.5 1250.5,-131.5 1378.5,-131.5 1378.5,-112.5 1250.5,-112.5"/>
<text text-anchor="middle" x="1314.5" y="-119.5" font-family="Helvetica,sans-Serif" font-size="10.00">ExtendedInputOutput.cpp</text>
</a>
</g>
</g>
<!-- Node1&#45;&gt;Node27 -->
<g id="edge63" class="edge"><title>Node1&#45;&gt;Node27</title>
<path fill="none" stroke="midnightblue" d="M1182.5,-382.251C1182.5,-360.357 1182.5,-323.052 1182.5,-291 1182.5,-291 1182.5,-291 1182.5,-233 1182.5,-178.559 1249.58,-145.835 1288.11,-131.533"/>
<polygon fill="midnightblue" stroke="midnightblue" points="1179,-382.442 1182.5,-392.442 1186,-382.442 1179,-382.442"/>
</g>
<!-- Node33 -->
<g id="node33" class="node"><title>Node33</title>
<g id="a_node33"><a xlink:href="../../da/d1f/ExtendedIOElement_8cpp.html" target="_top" xlink:title=" ">
<polygon fill="white" stroke="black" points="1031,-168.5 1031,-187.5 1154,-187.5 1154,-168.5 1031,-168.5"/>
<text text-anchor="middle" x="1092.5" y="-175.5" font-family="Helvetica,sans-Serif" font-size="10.00">ExtendedIOElement.cpp</text>
</a>
</g>
</g>
<!-- Node1&#45;&gt;Node33 -->
<g id="edge64" class="edge"><title>Node1&#45;&gt;Node33</title>
<path fill="none" stroke="midnightblue" d="M1175.15,-382.872C1156.81,-337.627 1109.52,-220.993 1096.1,-187.884"/>
<polygon fill="midnightblue" stroke="midnightblue" points="1171.97,-384.345 1178.97,-392.297 1178.46,-381.715 1171.97,-384.345"/>
</g>
<!-- Node40 -->
<g id="node40" class="node"><title>Node40</title>
<g id="a_node40"><a xlink:href="../../d1/d40/BitArray_8hpp.html" target="_top" xlink:title=" ">
<polygon fill="white" stroke="black" points="93,-168.5 93,-187.5 164,-187.5 164,-168.5 93,-168.5"/>
<text text-anchor="middle" x="128.5" y="-175.5" font-family="Helvetica,sans-Serif" font-size="10.00">BitArray.hpp</text>
</a>
</g>
</g>
<!-- Node1&#45;&gt;Node40 -->
<g id="edge57" class="edge"><title>Node1&#45;&gt;Node40</title>
<path fill="none" stroke="midnightblue" d="M1144.23,-399.699C969.071,-393.408 249.032,-363.811 173.5,-300 138.231,-270.204 130.585,-210.011 128.943,-187.634"/>
<polygon fill="midnightblue" stroke="midnightblue" points="1144.16,-403.198 1154.28,-400.055 1144.41,-396.202 1144.16,-403.198"/>
</g>
<!-- Node41 -->
<g id="node41" class="node"><title>Node41</title>
<g id="a_node41"><a xlink:href="../../d4/d93/Updatable_8hpp.html" target="_top" xlink:title=" ">
<polygon fill="white" stroke="black" points="1210.5,-336.5 1210.5,-355.5 1290.5,-355.5 1290.5,-336.5 1210.5,-336.5"/>
<text text-anchor="middle" x="1250.5" y="-343.5" font-family="Helvetica,sans-Serif" font-size="10.00">Updatable.hpp</text>
</a>
</g>
</g>
<!-- Node1&#45;&gt;Node41 -->
<g id="edge61" class="edge"><title>Node1&#45;&gt;Node41</title>
<path fill="none" stroke="midnightblue" d="M1201.26,-386.101C1213.5,-376.382 1229.06,-364.027 1239.38,-355.834"/>
<polygon fill="midnightblue" stroke="midnightblue" points="1199.08,-383.364 1193.43,-392.324 1203.43,-388.846 1199.08,-383.364"/>
</g>
<!-- Node42 -->
<g id="node42" class="node"><title>Node42</title>
<g id="a_node42"><a xlink:href="../../d6/df4/Exit_8cpp.html" target="_top" xlink:title=" ">
<polygon fill="white" stroke="black" points="1309,-336.5 1309,-355.5 1362,-355.5 1362,-336.5 1309,-336.5"/>
<text text-anchor="middle" x="1335.5" y="-343.5" font-family="Helvetica,sans-Serif" font-size="10.00">Exit.cpp</text>
</a>
</g>
</g>
<!-- Node1&#45;&gt;Node42 -->
<g id="edge62" class="edge"><title>Node1&#45;&gt;Node42</title>
<path fill="none" stroke="midnightblue" d="M1216.39,-389.039C1245.18,-378.879 1285.79,-364.546 1311.37,-355.516"/>
<polygon fill="midnightblue" stroke="midnightblue" points="1215.01,-385.815 1206.74,-392.444 1217.34,-392.416 1215.01,-385.815"/>
</g>
<!-- Node43 -->
<g id="node43" class="node"><title>Node43</title>
<g id="a_node43"><a xlink:href="../../d3/d50/FixedPoint_8hpp.html" target="_top" xlink:title=" ">
<polygon fill="white" stroke="black" points="1380.5,-336.5 1380.5,-355.5 1462.5,-355.5 1462.5,-336.5 1380.5,-336.5"/>
<text text-anchor="middle" x="1421.5" y="-343.5" font-family="Helvetica,sans-Serif" font-size="10.00">FixedPoint.hpp</text>
</a>
</g>
</g>
<!-- Node1&#45;&gt;Node43 -->
<g id="edge65" class="edge"><title>Node1&#45;&gt;Node43</title>
<path fill="none" stroke="midnightblue" d="M1220.76,-392.354C1265.54,-382.238 1339.2,-365.594 1383.75,-355.529"/>
<polygon fill="midnightblue" stroke="midnightblue" points="1219.84,-388.976 1210.85,-394.593 1221.38,-395.803 1219.84,-388.976"/>
</g>
<!-- Node3 -->
<g id="node3" class="node"><title>Node3</title>
<g id="a_node3"><a xlink:href="../../d5/db6/ArrayHelpers_8hpp.html" target="_top" xlink:title=" ">
<polygon fill="white" stroke="black" points="481.5,-224.5 481.5,-243.5 573.5,-243.5 573.5,-224.5 481.5,-224.5"/>
<text text-anchor="middle" x="527.5" y="-231.5" font-family="Helvetica,sans-Serif" font-size="10.00">ArrayHelpers.hpp</text>
</a>
</g>
</g>
<!-- Node2&#45;&gt;Node3 -->
<g id="edge2" class="edge"><title>Node2&#45;&gt;Node3</title>
<path fill="none" stroke="midnightblue" d="M526.744,-329.859C535.509,-322.031 544.82,-311.672 549.5,-300 557.481,-280.096 543.362,-256.047 534.276,-243.522"/>
<polygon fill="midnightblue" stroke="midnightblue" points="524.448,-327.217 518.997,-336.302 528.924,-332.599 524.448,-327.217"/>
</g>
<!-- Node5 -->
<g id="node5" class="node"><title>Node5</title>
<g id="a_node5"><a xlink:href="../../d7/def/AnalogMultiplex_8hpp.html" target="_top" xlink:title=" ">
<polygon fill="white" stroke="black" points="508.5,-112.5 508.5,-131.5 612.5,-131.5 612.5,-112.5 508.5,-112.5"/>
<text text-anchor="middle" x="560.5" y="-119.5" font-family="Helvetica,sans-Serif" font-size="10.00">AnalogMultiplex.hpp</text>
</a>
</g>
</g>
<!-- Node2&#45;&gt;Node5 -->
<g id="edge18" class="edge"><title>Node2&#45;&gt;Node5</title>
<path fill="none" stroke="midnightblue" d="M529.966,-330.944C541.765,-322.994 555.617,-312.207 565.5,-300 600.153,-257.2 606.429,-241.731 618.5,-188 620.448,-179.327 622.41,-175.983 618.5,-168 610.315,-151.29 592.601,-139.003 578.889,-131.529"/>
<polygon fill="midnightblue" stroke="midnightblue" points="527.946,-328.082 521.444,-336.447 531.743,-333.963 527.946,-328.082"/>
</g>
<!-- Node15 -->
<g id="node15" class="node"><title>Node15</title>
<g id="a_node15"><a xlink:href="../../df/db0/ZeroPoleGain_8hpp.html" target="_top" xlink:title=" ">
<polygon fill="white" stroke="black" points="357,-112.5 357,-131.5 452,-131.5 452,-112.5 357,-112.5"/>
<text text-anchor="middle" x="404.5" y="-119.5" font-family="Helvetica,sans-Serif" font-size="10.00">ZeroPoleGain.hpp</text>
</a>
</g>
</g>
<!-- Node2&#45;&gt;Node15 -->
<g id="edge56" class="edge"><title>Node2&#45;&gt;Node15</title>
<path fill="none" stroke="midnightblue" d="M514.334,-326.54C518.826,-313.062 522.346,-294.661 515.5,-280 504.954,-257.417 489.435,-262.288 472.5,-244 451.718,-221.558 447.525,-214.641 432.5,-188 421.636,-168.735 412.206,-144.427 407.565,-131.691"/>
<polygon fill="midnightblue" stroke="midnightblue" points="510.971,-325.536 510.703,-336.128 517.518,-328.016 510.971,-325.536"/>
</g>
<!-- Node16 -->
<g id="node16" class="node"><title>Node16</title>
<g id="a_node16"><a xlink:href="../../d4/d35/Hardware-Types_8hpp.html" target="_top" xlink:title=" ">
<polygon fill="white" stroke="black" points="704,-280.5 704,-299.5 811,-299.5 811,-280.5 704,-280.5"/>
<text text-anchor="middle" x="757.5" y="-287.5" font-family="Helvetica,sans-Serif" font-size="10.00">Hardware&#45;Types.hpp</text>
</a>
</g>
</g>
<!-- Node2&#45;&gt;Node16 -->
<g id="edge19" class="edge"><title>Node2&#45;&gt;Node16</title>
<path fill="none" stroke="midnightblue" d="M546.093,-336.482C593.055,-326.379 670.875,-309.636 717.858,-299.529"/>
<polygon fill="midnightblue" stroke="midnightblue" points="545.319,-333.068 536.279,-338.593 546.791,-339.912 545.319,-333.068"/>
</g>
<!-- Node34 -->
<g id="node34" class="node"><title>Node34</title>
<g id="a_node34"><a xlink:href="../../d1/dde/BiQuad_8hpp.html" target="_top" xlink:title=" ">
<polygon fill="white" stroke="black" points="277.5,-224.5 277.5,-243.5 345.5,-243.5 345.5,-224.5 277.5,-224.5"/>
<text text-anchor="middle" x="311.5" y="-231.5" font-family="Helvetica,sans-Serif" font-size="10.00">BiQuad.hpp</text>
</a>
</g>
</g>
<!-- Node2&#45;&gt;Node34 -->
<g id="edge47" class="edge"><title>Node2&#45;&gt;Node34</title>
<path fill="none" stroke="midnightblue" d="M466.821,-342.066C432.368,-337.71 382.762,-326.888 348.5,-300 329.5,-285.089 318.577,-257.533 314.025,-243.578"/>
<polygon fill="midnightblue" stroke="midnightblue" points="466.662,-345.57 476.993,-343.221 467.452,-338.615 466.662,-345.57"/>
</g>
<!-- Node35 -->
<g id="node35" class="node"><title>Node35</title>
<g id="a_node35"><a xlink:href="../../d2/d3b/FIRFilter_8hpp.html" target="_top" xlink:title=" ">
<polygon fill="white" stroke="black" points="357.5,-280.5 357.5,-299.5 431.5,-299.5 431.5,-280.5 357.5,-280.5"/>
<text text-anchor="middle" x="394.5" y="-287.5" font-family="Helvetica,sans-Serif" font-size="10.00">FIRFilter.hpp</text>
</a>
</g>
</g>
<!-- Node2&#45;&gt;Node35 -->
<g id="edge49" class="edge"><title>Node2&#45;&gt;Node35</title>
<path fill="none" stroke="midnightblue" d="M479.251,-331.862C458.484,-321.849 430.477,-308.346 412.45,-299.655"/>
<polygon fill="midnightblue" stroke="midnightblue" points="477.977,-335.134 488.505,-336.324 481.018,-328.828 477.977,-335.134"/>
</g>
<!-- Node37 -->
<g id="node37" class="node"><title>Node37</title>
<g id="a_node37"><a xlink:href="../../dc/d64/IIRFilter_8hpp.html" target="_top" xlink:title=" ">
<polygon fill="white" stroke="black" points="171,-224.5 171,-243.5 242,-243.5 242,-224.5 171,-224.5"/>
<text text-anchor="middle" x="206.5" y="-231.5" font-family="Helvetica,sans-Serif" font-size="10.00">IIRFilter.hpp</text>
</a>
</g>
</g>
<!-- Node2&#45;&gt;Node37 -->
<g id="edge51" class="edge"><title>Node2&#45;&gt;Node37</title>
<path fill="none" stroke="midnightblue" d="M466.362,-345.665C387.947,-346.014 218.874,-341.775 182.5,-300 167.965,-283.307 186.723,-257.031 198.423,-243.571"/>
<polygon fill="midnightblue" stroke="midnightblue" points="466.828,-349.162 476.802,-345.589 466.777,-342.162 466.828,-349.162"/>
</g>
<!-- Node38 -->
<g id="node38" class="node"><title>Node38</title>
<g id="a_node38"><a xlink:href="../../dc/d9c/SMA_8hpp.html" target="_top" xlink:title=" ">
<polygon fill="white" stroke="black" points="450,-280.5 450,-299.5 507,-299.5 507,-280.5 450,-280.5"/>
<text text-anchor="middle" x="478.5" y="-287.5" font-family="Helvetica,sans-Serif" font-size="10.00">SMA.hpp</text>
</a>
</g>
</g>
<!-- Node2&#45;&gt;Node38 -->
<g id="edge52" class="edge"><title>Node2&#45;&gt;Node38</title>
<path fill="none" stroke="midnightblue" d="M497.158,-326.983C492.405,-317.817 486.844,-307.092 483.038,-299.751"/>
<polygon fill="midnightblue" stroke="midnightblue" points="494.166,-328.817 501.876,-336.083 500.38,-325.594 494.166,-328.817"/>
</g>
<!-- Node39 -->
<g id="node39" class="node"><title>Node39</title>
<g id="a_node39"><a xlink:href="../../d2/d03/TransferFunction_8hpp.html" target="_top" xlink:title=" ">
<polygon fill="white" stroke="black" points="192,-280.5 192,-299.5 301,-299.5 301,-280.5 192,-280.5"/>
<text text-anchor="middle" x="246.5" y="-287.5" font-family="Helvetica,sans-Serif" font-size="10.00">TransferFunction.hpp</text>
</a>
</g>
</g>
<!-- Node2&#45;&gt;Node39 -->
<g id="edge53" class="edge"><title>Node2&#45;&gt;Node39</title>
<path fill="none" stroke="midnightblue" d="M467.119,-336.821C418.664,-326.757 336.786,-309.752 287.569,-299.53"/>
<polygon fill="midnightblue" stroke="midnightblue" points="466.425,-340.251 476.928,-338.858 467.849,-333.398 466.425,-340.251"/>
</g>
<!-- Node4 -->
<g id="node4" class="node"><title>Node4</title>
<g id="a_node4"><a xlink:href="../../d2/d05/StaticSizeExtendedIOElement_8hpp.html" target="_top" xlink:title=" ">
<polygon fill="white" stroke="black" points="441.5,-168.5 441.5,-187.5 609.5,-187.5 609.5,-168.5 441.5,-168.5"/>
<text text-anchor="middle" x="525.5" y="-175.5" font-family="Helvetica,sans-Serif" font-size="10.00">StaticSizeExtendedIOElement.hpp</text>
</a>
</g>
</g>
<!-- Node3&#45;&gt;Node4 -->
<g id="edge3" class="edge"><title>Node3&#45;&gt;Node4</title>
<path fill="none" stroke="midnightblue" d="M526.789,-213.805C526.46,-204.91 526.084,-194.78 525.824,-187.751"/>
<polygon fill="midnightblue" stroke="midnightblue" points="523.302,-214.219 527.17,-224.083 530.297,-213.96 523.302,-214.219"/>
</g>
<!-- Node13 -->
<g id="node13" class="node"><title>Node13</title>
<g id="a_node13"><a xlink:href="../../df/ddc/SOSFilter_8hpp.html" target="_top" xlink:title=" ">
<polygon fill="white" stroke="black" points="289.5,-168.5 289.5,-187.5 367.5,-187.5 367.5,-168.5 289.5,-168.5"/>
<text text-anchor="middle" x="328.5" y="-175.5" font-family="Helvetica,sans-Serif" font-size="10.00">SOSFilter.hpp</text>
</a>
</g>
</g>
<!-- Node3&#45;&gt;Node13 -->
<g id="edge15" class="edge"><title>Node3&#45;&gt;Node13</title>
<path fill="none" stroke="midnightblue" d="M485.852,-221.699C448.294,-211.507 393.886,-196.743 359.885,-187.516"/>
<polygon fill="midnightblue" stroke="midnightblue" points="485.4,-225.202 495.968,-224.444 487.233,-218.447 485.4,-225.202"/>
</g>
<!-- Node4&#45;&gt;Node5 -->
<g id="edge4" class="edge"><title>Node4&#45;&gt;Node5</title>
<path fill="none" stroke="midnightblue" d="M536.8,-159.566C542.822,-150.275 549.969,-139.248 554.828,-131.751"/>
<polygon fill="midnightblue" stroke="midnightblue" points="533.781,-157.788 531.28,-168.083 539.656,-161.595 533.781,-157.788"/>
</g>
<!-- Node6 -->
<g id="node6" class="node"><title>Node6</title>
<g id="a_node6"><a xlink:href="../../d2/d25/MAX7219_8hpp.html" target="_top" xlink:title=" ">
<polygon fill="white" stroke="black" points="441.5,-56.5 441.5,-75.5 519.5,-75.5 519.5,-56.5 441.5,-56.5"/>
<text text-anchor="middle" x="480.5" y="-63.5" font-family="Helvetica,sans-Serif" font-size="10.00">MAX7219.hpp</text>
</a>
</g>
</g>
<!-- Node4&#45;&gt;Node6 -->
<g id="edge5" class="edge"><title>Node4&#45;&gt;Node6</title>
<path fill="none" stroke="midnightblue" d="M514.24,-159.766C509.241,-151.59 503.58,-141.54 499.5,-132 491.178,-112.542 485.166,-88.3121 482.329,-75.6402"/>
<polygon fill="midnightblue" stroke="midnightblue" points="511.369,-161.776 519.668,-168.361 517.287,-158.038 511.369,-161.776"/>
</g>
<!-- Node7 -->
<g id="node7" class="node"><title>Node7</title>
<g id="a_node7"><a xlink:href="../../d8/d93/ShiftRegisterOutBase_8hpp.html" target="_top" xlink:title=" ">
<polygon fill="white" stroke="black" points="65,-112.5 65,-131.5 196,-131.5 196,-112.5 65,-112.5"/>
<text text-anchor="middle" x="130.5" y="-119.5" font-family="Helvetica,sans-Serif" font-size="10.00">ShiftRegisterOutBase.hpp</text>
</a>
</g>
</g>
<!-- Node4&#45;&gt;Node7 -->
<g id="edge6" class="edge"><title>Node4&#45;&gt;Node7</title>
<path fill="none" stroke="midnightblue" d="M452.659,-167.042C378.057,-156.843 263.314,-141.157 192.796,-131.516"/>
<polygon fill="midnightblue" stroke="midnightblue" points="452.529,-170.557 462.911,-168.444 453.477,-163.621 452.529,-170.557"/>
</g>
<!-- Node8 -->
<g id="node8" class="node"><title>Node8</title>
<g id="a_node8"><a xlink:href="../../d0/db4/ShiftRegisterOut_8hpp.html" target="_top" xlink:title=" ">
<polygon fill="white" stroke="black" points="143.5,-56.5 143.5,-75.5 251.5,-75.5 251.5,-56.5 143.5,-56.5"/>
<text text-anchor="middle" x="197.5" y="-63.5" font-family="Helvetica,sans-Serif" font-size="10.00">ShiftRegisterOut.hpp</text>
</a>
</g>
</g>
<!-- Node7&#45;&gt;Node8 -->
<g id="edge7" class="edge"><title>Node7&#45;&gt;Node8</title>
<path fill="none" stroke="midnightblue" d="M149.335,-105.82C161.338,-96.1452 176.472,-83.9481 186.539,-75.8339"/>
<polygon fill="midnightblue" stroke="midnightblue" points="146.854,-103.324 141.265,-112.324 151.247,-108.774 146.854,-103.324"/>
</g>
<!-- Node10 -->
<g id="node10" class="node"><title>Node10</title>
<g id="a_node10"><a xlink:href="../../d5/d47/ShiftRegisterOutBase_8ipp.html" target="_top" xlink:title=" ">
<polygon fill="white" stroke="black" points="269.5,-56.5 269.5,-75.5 397.5,-75.5 397.5,-56.5 269.5,-56.5"/>
<text text-anchor="middle" x="333.5" y="-63.5" font-family="Helvetica,sans-Serif" font-size="10.00">ShiftRegisterOutBase.ipp</text>
</a>
</g>
</g>
<!-- Node7&#45;&gt;Node10 -->
<g id="edge10" class="edge"><title>Node7&#45;&gt;Node10</title>
<path fill="none" stroke="midnightblue" d="M167.373,-109.699C204.008,-99.507 259.687,-84.7429 296.405,-75.5164"/>
<polygon fill="midnightblue" stroke="midnightblue" points="166.262,-106.375 157.577,-112.444 168.151,-113.116 166.262,-106.375"/>
</g>
<!-- Node11 -->
<g id="node11" class="node"><title>Node11</title>
<g id="a_node11"><a xlink:href="../../d7/d88/SPIShiftRegisterOut_8hpp.html" target="_top" xlink:title=" ">
<polygon fill="white" stroke="black" points="0,-56.5 0,-75.5 125,-75.5 125,-56.5 0,-56.5"/>
<text text-anchor="middle" x="62.5" y="-63.5" font-family="Helvetica,sans-Serif" font-size="10.00">SPIShiftRegisterOut.hpp</text>
</a>
</g>
</g>
<!-- Node7&#45;&gt;Node11 -->
<g id="edge12" class="edge"><title>Node7&#45;&gt;Node11</title>
<path fill="none" stroke="midnightblue" d="M111.738,-106.101C99.5001,-96.3824 83.9413,-84.0269 73.6242,-75.8339"/>
<polygon fill="midnightblue" stroke="midnightblue" points="109.567,-108.846 119.575,-112.324 113.92,-103.364 109.567,-108.846"/>
</g>
<!-- Node9 -->
<g id="node9" class="node"><title>Node9</title>
<g id="a_node9"><a xlink:href="../../de/d95/ShiftRegisterOut_8ipp.html" target="_top" xlink:title=" ">
<polygon fill="white" stroke="black" points="145,-0.5 145,-19.5 250,-19.5 250,-0.5 145,-0.5"/>
<text text-anchor="middle" x="197.5" y="-7.5" font-family="Helvetica,sans-Serif" font-size="10.00">ShiftRegisterOut.ipp</text>
</a>
</g>
</g>
<!-- Node8&#45;&gt;Node9 -->
<g id="edge8" class="edge"><title>Node8&#45;&gt;Node9</title>
<path fill="none" stroke="midnightblue" d="M191.028,-46.1005C190.396,-37.1357 190.843,-26.8579 192.369,-19.7511"/>
<polygon fill="midnightblue" stroke="midnightblue" points="187.566,-46.6216 192.334,-56.083 194.507,-45.7134 187.566,-46.6216"/>
</g>
<!-- Node9&#45;&gt;Node8 -->
<g id="edge9" class="edge"><title>Node9&#45;&gt;Node8</title>
<path fill="none" stroke="midnightblue" d="M203.958,-29.6911C204.606,-38.6353 204.176,-48.9272 202.666,-56.083"/>
<polygon fill="midnightblue" stroke="midnightblue" points="207.423,-29.2002 202.631,-19.7511 200.485,-30.1262 207.423,-29.2002"/>
</g>
<!-- Node10&#45;&gt;Node7 -->
<g id="edge11" class="edge"><title>Node10&#45;&gt;Node7</title>
<path fill="none" stroke="midnightblue" d="M296.785,-78.2572C260.206,-88.4356 204.527,-103.201 167.755,-112.444"/>
<polygon fill="midnightblue" stroke="midnightblue" points="297.88,-81.5853 306.565,-75.5164 295.991,-74.845 297.88,-81.5853"/>
</g>
<!-- Node12 -->
<g id="node12" class="node"><title>Node12</title>
<g id="a_node12"><a xlink:href="../../da/d45/SPIShiftRegisterOut_8ipp.html" target="_top" xlink:title=" ">
<polygon fill="white" stroke="black" points="1.5,-0.5 1.5,-19.5 123.5,-19.5 123.5,-0.5 1.5,-0.5"/>
<text text-anchor="middle" x="62.5" y="-7.5" font-family="Helvetica,sans-Serif" font-size="10.00">SPIShiftRegisterOut.ipp</text>
</a>
</g>
</g>
<!-- Node11&#45;&gt;Node12 -->
<g id="edge13" class="edge"><title>Node11&#45;&gt;Node12</title>
<path fill="none" stroke="midnightblue" d="M56.0276,-46.1005C55.3956,-37.1357 55.8427,-26.8579 57.369,-19.7511"/>
<polygon fill="midnightblue" stroke="midnightblue" points="52.5658,-46.6216 57.3337,-56.083 59.5067,-45.7134 52.5658,-46.6216"/>
</g>
<!-- Node12&#45;&gt;Node11 -->
<g id="edge14" class="edge"><title>Node12&#45;&gt;Node11</title>
<path fill="none" stroke="midnightblue" d="M68.9575,-29.6911C69.6062,-38.6353 69.1758,-48.9272 67.6663,-56.083"/>
<polygon fill="midnightblue" stroke="midnightblue" points="72.4231,-29.2002 67.631,-19.7511 65.4846,-30.1262 72.4231,-29.2002"/>
</g>
<!-- Node14 -->
<g id="node14" class="node"><title>Node14</title>
<g id="a_node14"><a xlink:href="../../d4/d40/Butterworth_8hpp.html" target="_top" xlink:title=" ">
<polygon fill="white" stroke="black" points="252.5,-112.5 252.5,-131.5 338.5,-131.5 338.5,-112.5 252.5,-112.5"/>
<text text-anchor="middle" x="295.5" y="-119.5" font-family="Helvetica,sans-Serif" font-size="10.00">Butterworth.hpp</text>
</a>
</g>
</g>
<!-- Node13&#45;&gt;Node14 -->
<g id="edge16" class="edge"><title>Node13&#45;&gt;Node14</title>
<path fill="none" stroke="midnightblue" d="M317.668,-159.275C312.028,-150.045 305.382,-139.17 300.848,-131.751"/>
<polygon fill="midnightblue" stroke="midnightblue" points="314.85,-161.375 323.051,-168.083 320.823,-157.725 314.85,-161.375"/>
</g>
<!-- Node13&#45;&gt;Node15 -->
<g id="edge17" class="edge"><title>Node13&#45;&gt;Node15</title>
<path fill="none" stroke="midnightblue" d="M349.076,-162.38C362.812,-152.62 380.425,-140.106 392.067,-131.834"/>
<polygon fill="midnightblue" stroke="midnightblue" points="346.835,-159.679 340.711,-168.324 350.89,-165.385 346.835,-159.679"/>
</g>
<!-- Node17 -->
<g id="node17" class="node"><title>Node17</title>
<g id="a_node17"><a xlink:href="../../d9/d4b/ButtonMatrix_8hpp.html" target="_top" xlink:title=" ">
<polygon fill="white" stroke="black" points="666,-168.5 666,-187.5 757,-187.5 757,-168.5 666,-168.5"/>
<text text-anchor="middle" x="711.5" y="-175.5" font-family="Helvetica,sans-Serif" font-size="10.00">ButtonMatrix.hpp</text>
</a>
</g>
</g>
<!-- Node16&#45;&gt;Node17 -->
<g id="edge20" class="edge"><title>Node16&#45;&gt;Node17</title>
<path fill="none" stroke="midnightblue" d="M749.972,-270.998C739.935,-246.997 722.569,-205.468 715.093,-187.591"/>
<polygon fill="midnightblue" stroke="midnightblue" points="746.803,-272.493 753.89,-280.368 753.261,-269.792 746.803,-272.493"/>
</g>
<!-- Node19 -->
<g id="node19" class="node"><title>Node19</title>
<g id="a_node19"><a xlink:href="../../d4/d57/ExtendedIOElement_8hpp.html" target="_top" xlink:title=" ">
<polygon fill="white" stroke="black" points="849,-224.5 849,-243.5 972,-243.5 972,-224.5 849,-224.5"/>
<text text-anchor="middle" x="910.5" y="-231.5" font-family="Helvetica,sans-Serif" font-size="10.00">ExtendedIOElement.hpp</text>
</a>
</g>
</g>
<!-- Node16&#45;&gt;Node19 -->
<g id="edge23" class="edge"><title>Node16&#45;&gt;Node19</title>
<path fill="none" stroke="midnightblue" d="M791.389,-277.039C820.177,-266.879 860.787,-252.546 886.37,-243.516"/>
<polygon fill="midnightblue" stroke="midnightblue" points="790.008,-273.815 781.743,-280.444 792.338,-280.416 790.008,-273.815"/>
</g>
<!-- Node28 -->
<g id="node28" class="node"><title>Node28</title>
<g id="a_node28"><a xlink:href="../../d8/df3/FilteredAnalog_8hpp.html" target="_top" xlink:title=" ">
<polygon fill="white" stroke="black" points="736.5,-112.5 736.5,-131.5 834.5,-131.5 834.5,-112.5 736.5,-112.5"/>
<text text-anchor="middle" x="785.5" y="-119.5" font-family="Helvetica,sans-Serif" font-size="10.00">FilteredAnalog.hpp</text>
</a>
</g>
</g>
<!-- Node16&#45;&gt;Node28 -->
<g id="edge46" class="edge"><title>Node16&#45;&gt;Node28</title>
<path fill="none" stroke="midnightblue" d="M760.717,-269.93C766.791,-233.92 779.726,-157.231 784.055,-131.568"/>
<polygon fill="midnightblue" stroke="midnightblue" points="757.217,-269.632 759.005,-280.075 764.12,-270.797 757.217,-269.632"/>
</g>
<!-- Node18 -->
<g id="node18" class="node"><title>Node18</title>
<g id="a_node18"><a xlink:href="../../d5/d41/ButtonMatrix_8ipp.html" target="_top" xlink:title=" ">
<polygon fill="white" stroke="black" points="630.5,-112.5 630.5,-131.5 718.5,-131.5 718.5,-112.5 630.5,-112.5"/>
<text text-anchor="middle" x="674.5" y="-119.5" font-family="Helvetica,sans-Serif" font-size="10.00">ButtonMatrix.ipp</text>
</a>
</g>
</g>
<!-- Node17&#45;&gt;Node18 -->
<g id="edge21" class="edge"><title>Node17&#45;&gt;Node18</title>
<path fill="none" stroke="midnightblue" d="M693.643,-160.144C686.337,-150.736 678.966,-139.405 675.365,-131.751"/>
<polygon fill="midnightblue" stroke="midnightblue" points="691.147,-162.618 700.224,-168.083 696.537,-158.15 691.147,-162.618"/>
</g>
<!-- Node18&#45;&gt;Node17 -->
<g id="edge22" class="edge"><title>Node18&#45;&gt;Node17</title>
<path fill="none" stroke="midnightblue" d="M692.199,-139.653C699.504,-149.033 706.902,-160.377 710.557,-168.083"/>
<polygon fill="midnightblue" stroke="midnightblue" points="694.712,-137.202 685.627,-131.751 689.331,-141.678 694.712,-137.202"/>
</g>
<!-- Node19&#45;&gt;Node4 -->
<g id="edge43" class="edge"><title>Node19&#45;&gt;Node4</title>
<path fill="none" stroke="midnightblue" d="M839.504,-223.042C766.789,-212.843 654.952,-197.157 586.219,-187.516"/>
<polygon fill="midnightblue" stroke="midnightblue" points="839.106,-226.521 849.496,-224.444 840.079,-219.588 839.106,-226.521"/>
</g>
<!-- Node20 -->
<g id="node20" class="node"><title>Node20</title>
<g id="a_node20"><a xlink:href="../../dd/ddf/ExtendedInputOutput_8hpp.html" target="_top" xlink:title=" ">
<polygon fill="white" stroke="black" points="846.5,-168.5 846.5,-187.5 974.5,-187.5 974.5,-168.5 846.5,-168.5"/>
<text text-anchor="middle" x="910.5" y="-175.5" font-family="Helvetica,sans-Serif" font-size="10.00">ExtendedInputOutput.hpp</text>
</a>
</g>
</g>
<!-- Node19&#45;&gt;Node20 -->
<g id="edge24" class="edge"><title>Node19&#45;&gt;Node20</title>
<path fill="none" stroke="midnightblue" d="M910.5,-213.805C910.5,-204.91 910.5,-194.78 910.5,-187.751"/>
<polygon fill="midnightblue" stroke="midnightblue" points="907,-214.083 910.5,-224.083 914,-214.083 907,-214.083"/>
</g>
<!-- Node19&#45;&gt;Node27 -->
<g id="edge44" class="edge"><title>Node19&#45;&gt;Node27</title>
<path fill="none" stroke="midnightblue" d="M933.554,-218.874C963.272,-200.762 1012.24,-171.286 1021.5,-168 1042.63,-160.501 1170.74,-142.362 1250.41,-131.542"/>
<polygon fill="midnightblue" stroke="midnightblue" points="931.366,-216.109 924.656,-224.307 935.015,-222.083 931.366,-216.109"/>
</g>
<!-- Node19&#45;&gt;Node33 -->
<g id="edge45" class="edge"><title>Node19&#45;&gt;Node33</title>
<path fill="none" stroke="midnightblue" d="M949.031,-221.568C983.364,-211.381 1032.83,-196.703 1063.8,-187.516"/>
<polygon fill="midnightblue" stroke="midnightblue" points="947.93,-218.244 939.338,-224.444 949.921,-224.954 947.93,-218.244"/>
</g>
<!-- Node20&#45;&gt;Node5 -->
<g id="edge32" class="edge"><title>Node20&#45;&gt;Node5</title>
<path fill="none" stroke="midnightblue" d="M844.98,-166.891C777.73,-156.515 674.429,-140.578 612.558,-131.032"/>
<polygon fill="midnightblue" stroke="midnightblue" points="844.625,-170.378 855.041,-168.444 845.692,-163.46 844.625,-170.378"/>
</g>
<!-- Node20&#45;&gt;Node9 -->
<g id="edge35" class="edge"><title>Node20&#45;&gt;Node9</title>
<path fill="none" stroke="midnightblue" d="M984.537,-167.292C1005.38,-160.757 1025.8,-149.921 1038.5,-132 1058.03,-104.438 1061.74,-80.5143 1038.5,-56 1011.31,-27.3154 429.95,-14.9818 250.066,-11.8432"/>
<polygon fill="midnightblue" stroke="midnightblue" points="983.307,-164.002 974.632,-170.084 985.207,-170.739 983.307,-164.002"/>
</g>
<!-- Node20&#45;&gt;Node10 -->
<g id="edge34" class="edge"><title>Node20&#45;&gt;Node10</title>
<path fill="none" stroke="midnightblue" d="M898.608,-160.149C886.637,-144.674 866.663,-122.59 843.5,-112 760.118,-73.8794 523.82,-84.1503 432.5,-76 421.241,-74.9951 409.262,-73.9152 397.669,-72.8646"/>
<polygon fill="midnightblue" stroke="midnightblue" points="895.928,-162.41 904.695,-168.359 901.551,-158.242 895.928,-162.41"/>
</g>
<!-- Node20&#45;&gt;Node12 -->
<g id="edge36" class="edge"><title>Node20&#45;&gt;Node12</title>
<path fill="none" stroke="midnightblue" d="M960.999,-165.001C978.127,-158.258 995.454,-147.874 1005.5,-132 1023.56,-103.457 1028.89,-80.3732 1005.5,-56 972.008,-21.094 183.712,-23.9629 135.5,-20 131.682,-19.6862 127.756,-19.3223 123.801,-18.9244"/>
<polygon fill="midnightblue" stroke="midnightblue" points="959.786,-161.717 951.551,-168.383 962.146,-168.308 959.786,-161.717"/>
</g>
<!-- Node20&#45;&gt;Node18 -->
<g id="edge31" class="edge"><title>Node20&#45;&gt;Node18</title>
<path fill="none" stroke="midnightblue" d="M863.094,-166.153C818.503,-155.95 752.646,-140.881 711.72,-131.516"/>
<polygon fill="midnightblue" stroke="midnightblue" points="862.576,-169.625 873.105,-168.444 864.138,-162.801 862.576,-169.625"/>
</g>
<!-- Node21 -->
<g id="node21" class="node"><title>Node21</title>
<g id="a_node21"><a xlink:href="../../d4/db3/Button_8hpp.html" target="_top" xlink:title=" ">
<polygon fill="white" stroke="black" points="1090.5,-112.5 1090.5,-131.5 1154.5,-131.5 1154.5,-112.5 1090.5,-112.5"/>
<text text-anchor="middle" x="1122.5" y="-119.5" font-family="Helvetica,sans-Serif" font-size="10.00">Button.hpp</text>
</a>
</g>
</g>
<!-- Node20&#45;&gt;Node21 -->
<g id="edge25" class="edge"><title>Node20&#45;&gt;Node21</title>
<path fill="none" stroke="midnightblue" d="M953.966,-165.928C994.516,-155.6 1054.07,-140.431 1090.45,-131.163"/>
<polygon fill="midnightblue" stroke="midnightblue" points="952.919,-162.583 944.092,-168.444 954.647,-169.367 952.919,-162.583"/>
</g>
<!-- Node20&#45;&gt;Node27 -->
<g id="edge33" class="edge"><title>Node20&#45;&gt;Node27</title>
<path fill="none" stroke="midnightblue" d="M984.533,-167.105C1060.82,-156.907 1178.51,-141.177 1250.78,-131.516"/>
<polygon fill="midnightblue" stroke="midnightblue" points="983.963,-163.649 974.515,-168.444 984.891,-170.588 983.963,-163.649"/>
</g>
<!-- Node20&#45;&gt;Node28 -->
<g id="edge37" class="edge"><title>Node20&#45;&gt;Node28</title>
<path fill="none" stroke="midnightblue" d="M881.259,-164.368C857.85,-154.255 825.659,-140.349 805.214,-131.516"/>
<polygon fill="midnightblue" stroke="midnightblue" points="880.125,-167.691 890.693,-168.444 882.901,-161.265 880.125,-167.691"/>
</g>
<!-- Node29 -->
<g id="node29" class="node"><title>Node29</title>
<g id="a_node29"><a xlink:href="../../d9/d4f/LEDs_8hpp.html" target="_top" xlink:title=" ">
<polygon fill="white" stroke="black" points="1172.5,-112.5 1172.5,-131.5 1232.5,-131.5 1232.5,-112.5 1172.5,-112.5"/>
<text text-anchor="middle" x="1202.5" y="-119.5" font-family="Helvetica,sans-Serif" font-size="10.00">LEDs.hpp</text>
</a>
</g>
</g>
<!-- Node20&#45;&gt;Node29 -->
<g id="edge38" class="edge"><title>Node20&#45;&gt;Node29</title>
<path fill="none" stroke="midnightblue" d="M972.921,-166.805C1024.23,-158.207 1098.75,-145.22 1163.5,-132 1166.36,-131.416 1169.33,-130.782 1172.3,-130.129"/>
<polygon fill="midnightblue" stroke="midnightblue" points="972.266,-163.366 962.979,-168.465 973.419,-170.27 972.266,-163.366"/>
</g>
<!-- Node31 -->
<g id="node31" class="node"><title>Node31</title>
<g id="a_node31"><a xlink:href="../../d7/d13/MAX7219__Base_8hpp.html" target="_top" xlink:title=" ">
<polygon fill="white" stroke="black" points="890.5,-112.5 890.5,-131.5 996.5,-131.5 996.5,-112.5 890.5,-112.5"/>
<text text-anchor="middle" x="943.5" y="-119.5" font-family="Helvetica,sans-Serif" font-size="10.00">MAX7219_Base.hpp</text>
</a>
</g>
</g>
<!-- Node20&#45;&gt;Node31 -->
<g id="edge40" class="edge"><title>Node20&#45;&gt;Node31</title>
<path fill="none" stroke="midnightblue" d="M921.332,-159.275C926.972,-150.045 933.618,-139.17 938.152,-131.751"/>
<polygon fill="midnightblue" stroke="midnightblue" points="918.177,-157.725 915.949,-168.083 924.15,-161.375 918.177,-157.725"/>
</g>
<!-- Node22 -->
<g id="node22" class="node"><title>Node22</title>
<g id="a_node22"><a xlink:href="../../de/dd1/Button_8cpp.html" target="_top" xlink:title=" ">
<polygon fill="white" stroke="black" points="1395.5,-56.5 1395.5,-75.5 1459.5,-75.5 1459.5,-56.5 1395.5,-56.5"/>
<text text-anchor="middle" x="1427.5" y="-63.5" font-family="Helvetica,sans-Serif" font-size="10.00">Button.cpp</text>
</a>
</g>
</g>
<!-- Node21&#45;&gt;Node22 -->
<g id="edge26" class="edge"><title>Node21&#45;&gt;Node22</title>
<path fill="none" stroke="midnightblue" d="M1164.79,-111.843C1263.41,-93.3342 1290.43,-93.8822 1385.5,-76 1388.72,-75.3934 1392.08,-74.7295 1395.43,-74.0459"/>
<polygon fill="midnightblue" stroke="midnightblue" points="1163.87,-108.455 1154.69,-113.757 1165.17,-115.333 1163.87,-108.455"/>
</g>
<!-- Node23 -->
<g id="node23" class="node"><title>Node23</title>
<g id="a_node23"><a xlink:href="../../d5/d04/IncrementButton_8hpp.html" target="_top" xlink:title=" ">
<polygon fill="white" stroke="black" points="1270,-56.5 1270,-75.5 1377,-75.5 1377,-56.5 1270,-56.5"/>
<text text-anchor="middle" x="1323.5" y="-63.5" font-family="Helvetica,sans-Serif" font-size="10.00">IncrementButton.hpp</text>
</a>
</g>
</g>
<!-- Node21&#45;&gt;Node23 -->
<g id="edge27" class="edge"><title>Node21&#45;&gt;Node23</title>
<path fill="none" stroke="midnightblue" d="M1164.08,-109.829C1202.03,-99.6333 1257.31,-84.7823 1291.8,-75.5164"/>
<polygon fill="midnightblue" stroke="midnightblue" points="1163.1,-106.469 1154.35,-112.444 1164.91,-113.229 1163.1,-106.469"/>
</g>
<!-- Node25 -->
<g id="node25" class="node"><title>Node25</title>
<g id="a_node25"><a xlink:href="../../df/df5/IncrementDecrementButtons_8hpp.html" target="_top" xlink:title=" ">
<polygon fill="white" stroke="black" points="1091,-56.5 1091,-75.5 1252,-75.5 1252,-56.5 1091,-56.5"/>
<text text-anchor="middle" x="1171.5" y="-63.5" font-family="Helvetica,sans-Serif" font-size="10.00">IncrementDecrementButtons.hpp</text>
</a>
</g>
</g>
<!-- Node21&#45;&gt;Node25 -->
<g id="edge29" class="edge"><title>Node21&#45;&gt;Node25</title>
<path fill="none" stroke="midnightblue" d="M1137.53,-104.431C1146.12,-94.9673 1156.54,-83.4827 1163.56,-75.7511"/>
<polygon fill="midnightblue" stroke="midnightblue" points="1134.72,-102.325 1130.59,-112.083 1139.9,-107.029 1134.72,-102.325"/>
</g>
<!-- Node24 -->
<g id="node24" class="node"><title>Node24</title>
<g id="a_node24"><a xlink:href="../../db/d9d/IncrementButton_8cpp.html" target="_top" xlink:title=" ">
<polygon fill="white" stroke="black" points="1270,-0.5 1270,-19.5 1377,-19.5 1377,-0.5 1270,-0.5"/>
<text text-anchor="middle" x="1323.5" y="-7.5" font-family="Helvetica,sans-Serif" font-size="10.00">IncrementButton.cpp</text>
</a>
</g>
</g>
<!-- Node23&#45;&gt;Node24 -->
<g id="edge28" class="edge"><title>Node23&#45;&gt;Node24</title>
<path fill="none" stroke="midnightblue" d="M1323.5,-45.8045C1323.5,-36.9102 1323.5,-26.7798 1323.5,-19.7511"/>
<polygon fill="midnightblue" stroke="midnightblue" points="1320,-46.083 1323.5,-56.083 1327,-46.083 1320,-46.083"/>
</g>
<!-- Node26 -->
<g id="node26" class="node"><title>Node26</title>
<g id="a_node26"><a xlink:href="../../da/d66/IncrementDecrementButtons_8cpp.html" target="_top" xlink:title=" ">
<polygon fill="white" stroke="black" points="1091,-0.5 1091,-19.5 1252,-19.5 1252,-0.5 1091,-0.5"/>
<text text-anchor="middle" x="1171.5" y="-7.5" font-family="Helvetica,sans-Serif" font-size="10.00">IncrementDecrementButtons.cpp</text>
</a>
</g>
</g>
<!-- Node25&#45;&gt;Node26 -->
<g id="edge30" class="edge"><title>Node25&#45;&gt;Node26</title>
<path fill="none" stroke="midnightblue" d="M1171.5,-45.8045C1171.5,-36.9102 1171.5,-26.7798 1171.5,-19.7511"/>
<polygon fill="midnightblue" stroke="midnightblue" points="1168,-46.083 1171.5,-56.083 1175,-46.083 1168,-46.083"/>
</g>
<!-- Node30 -->
<g id="node30" class="node"><title>Node30</title>
<g id="a_node30"><a xlink:href="../../d6/d3a/DotBarDisplayLEDs_8hpp.html" target="_top" xlink:title=" ">
<polygon fill="white" stroke="black" points="1477.5,-56.5 1477.5,-75.5 1601.5,-75.5 1601.5,-56.5 1477.5,-56.5"/>
<text text-anchor="middle" x="1539.5" y="-63.5" font-family="Helvetica,sans-Serif" font-size="10.00">DotBarDisplayLEDs.hpp</text>
</a>
</g>
</g>
<!-- Node29&#45;&gt;Node30 -->
<g id="edge39" class="edge"><title>Node29&#45;&gt;Node30</title>
<path fill="none" stroke="midnightblue" d="M1242.71,-111.888C1329.53,-95.5525 1419.13,-82.7512 1477.34,-74.9684"/>
<polygon fill="midnightblue" stroke="midnightblue" points="1241.86,-108.488 1232.69,-113.793 1243.16,-115.365 1241.86,-108.488"/>
</g>
<!-- Node31&#45;&gt;Node6 -->
<g id="edge41" class="edge"><title>Node31&#45;&gt;Node6</title>
<path fill="none" stroke="midnightblue" d="M880.37,-112.483C879.069,-112.32 877.778,-112.158 876.5,-112 745.861,-95.8048 590.687,-78.8278 519.595,-71.1755"/>
<polygon fill="midnightblue" stroke="midnightblue" points="880.119,-115.98 890.483,-113.777 881.007,-109.036 880.119,-115.98"/>
</g>
<!-- Node32 -->
<g id="node32" class="node"><title>Node32</title>
<g id="a_node32"><a xlink:href="../../d5/d0c/MAX7219SevenSegmentDisplay_8hpp.html" target="_top" xlink:title=" ">
<polygon fill="white" stroke="black" points="818.5,-56.5 818.5,-75.5 996.5,-75.5 996.5,-56.5 818.5,-56.5"/>
<text text-anchor="middle" x="907.5" y="-63.5" font-family="Helvetica,sans-Serif" font-size="10.00">MAX7219SevenSegmentDisplay.hpp</text>
</a>
</g>
</g>
<!-- Node31&#45;&gt;Node32 -->
<g id="edge42" class="edge"><title>Node31&#45;&gt;Node32</title>
<path fill="none" stroke="midnightblue" d="M931.877,-103.566C925.683,-94.2747 918.332,-83.2484 913.334,-75.7511"/>
<polygon fill="midnightblue" stroke="midnightblue" points="929.096,-105.704 937.555,-112.083 934.92,-101.821 929.096,-105.704"/>
</g>
<!-- Node34&#45;&gt;Node13 -->
<g id="edge48" class="edge"><title>Node34&#45;&gt;Node13</title>
<path fill="none" stroke="midnightblue" d="M317.357,-214.396C320.201,-205.362 323.483,-194.936 325.745,-187.751"/>
<polygon fill="midnightblue" stroke="midnightblue" points="313.972,-213.493 314.307,-224.083 320.649,-215.596 313.972,-213.493"/>
</g>
<!-- Node36 -->
<g id="node36" class="node"><title>Node36</title>
<g id="a_node36"><a xlink:href="../../df/da1/Notch_8hpp.html" target="_top" xlink:title=" ">
<polygon fill="white" stroke="black" points="363.5,-224.5 363.5,-243.5 425.5,-243.5 425.5,-224.5 363.5,-224.5"/>
<text text-anchor="middle" x="394.5" y="-231.5" font-family="Helvetica,sans-Serif" font-size="10.00">Notch.hpp</text>
</a>
</g>
</g>
<!-- Node35&#45;&gt;Node36 -->
<g id="edge50" class="edge"><title>Node35&#45;&gt;Node36</title>
<path fill="none" stroke="midnightblue" d="M394.5,-269.805C394.5,-260.91 394.5,-250.78 394.5,-243.751"/>
<polygon fill="midnightblue" stroke="midnightblue" points="391,-270.083 394.5,-280.083 398,-270.083 391,-270.083"/>
</g>
<!-- Node39&#45;&gt;Node34 -->
<g id="edge54" class="edge"><title>Node39&#45;&gt;Node34</title>
<path fill="none" stroke="midnightblue" d="M264.773,-273.82C276.418,-264.145 291.099,-251.948 300.867,-243.834"/>
<polygon fill="midnightblue" stroke="midnightblue" points="262.399,-271.242 256.943,-280.324 266.872,-276.626 262.399,-271.242"/>
</g>
<!-- Node39&#45;&gt;Node37 -->
<g id="edge55" class="edge"><title>Node39&#45;&gt;Node37</title>
<path fill="none" stroke="midnightblue" d="M233.8,-271.855C226.874,-262.505 218.594,-251.327 212.982,-243.751"/>
<polygon fill="midnightblue" stroke="midnightblue" points="231.13,-274.131 239.895,-280.083 236.755,-269.964 231.13,-274.131"/>
</g>
<!-- Node40&#45;&gt;Node6 -->
<g id="edge58" class="edge"><title>Node40&#45;&gt;Node6</title>
<path fill="none" stroke="midnightblue" d="M152.02,-163.161C182.807,-145.132 233.986,-115.484 243.5,-112 279.189,-98.9302 383.402,-81.7733 441.035,-72.8944"/>
<polygon fill="midnightblue" stroke="midnightblue" points="150.043,-160.263 143.188,-168.342 153.585,-166.301 150.043,-160.263"/>
</g>
<!-- Node40&#45;&gt;Node7 -->
<g id="edge59" class="edge"><title>Node40&#45;&gt;Node7</title>
<path fill="none" stroke="midnightblue" d="M129.211,-157.805C129.54,-148.91 129.916,-138.78 130.176,-131.751"/>
<polygon fill="midnightblue" stroke="midnightblue" points="125.703,-157.96 128.83,-168.083 132.698,-158.219 125.703,-157.96"/>
</g>
<!-- Node40&#45;&gt;Node11 -->
<g id="edge60" class="edge"><title>Node40&#45;&gt;Node11</title>
<path fill="none" stroke="midnightblue" d="M93.054,-164.196C78.7196,-157.064 63.6562,-146.609 55.5,-132 45.4304,-113.964 53.2165,-88.7196 58.5593,-75.6325"/>
<polygon fill="midnightblue" stroke="midnightblue" points="91.7383,-167.443 102.289,-168.414 94.6464,-161.076 91.7383,-167.443"/>
</g>
</g>
</svg>
