<?xml version="1.0" encoding="UTF-8" standalone="no"?>
<!DOCTYPE svg PUBLIC "-//W3C//DTD SVG 1.1//EN"
 "http://www.w3.org/Graphics/SVG/1.1/DTD/svg11.dtd">
<!-- Generated by graphviz version 2.43.0 (0)
 -->
<!-- Title: Error.hpp Pages: 1 -->
<svg width="1799pt" height="532pt"
 viewBox="0.00 0.00 1798.51 532.00" xmlns="http://www.w3.org/2000/svg" xmlns:xlink="http://www.w3.org/1999/xlink">
<g id="graph0" class="graph" transform="scale(1 1) rotate(0) translate(4 528)">
<title>Error.hpp</title>
<polygon fill="white" stroke="transparent" points="-4,4 -4,-528 1794.51,-528 1794.51,4 -4,4"/>
<!-- Node1 -->
<g id="node1" class="node">
<title>Node1</title>
<g id="a_node1"><a xlink:title=" ">
<polygon fill="#bfbfbf" stroke="black" points="648.01,-504.5 648.01,-523.5 708.01,-523.5 708.01,-504.5 648.01,-504.5"/>
<text text-anchor="middle" x="678.01" y="-511.5" font-family="Helvetica,sans-Serif" font-size="10.00">Error.hpp</text>
</a>
</g>
</g>
<!-- Node2 -->
<g id="node2" class="node">
<title>Node2</title>
<g id="a_node2"><a xlink:href="../../de/d76/Array_8hpp.html" target="_top" xlink:title=" ">
<polygon fill="white" stroke="black" points="1086.01,-448.5 1086.01,-467.5 1148.01,-467.5 1148.01,-448.5 1086.01,-448.5"/>
<text text-anchor="middle" x="1117.01" y="-455.5" font-family="Helvetica,sans-Serif" font-size="10.00">Array.hpp</text>
</a>
</g>
</g>
<!-- Node1&#45;&gt;Node2 -->
<g id="edge1" class="edge">
<title>Node1&#45;&gt;Node2</title>
<path fill="none" stroke="midnightblue" d="M718.16,-508.06C804.81,-497.4 1007.78,-472.44 1085.75,-462.85"/>
<polygon fill="midnightblue" stroke="midnightblue" points="717.69,-504.59 708.19,-509.29 718.54,-511.54 717.69,-504.59"/>
</g>
<!-- Node32 -->
<g id="node32" class="node">
<title>Node32</title>
<g id="a_node32"><a xlink:href="../../da/d1f/ExtendedIOElement_8cpp.html" target="_top" xlink:title=" ">
<polygon fill="white" stroke="black" points="13.01,-168.5 13.01,-187.5 147.01,-187.5 147.01,-168.5 13.01,-168.5"/>
<text text-anchor="middle" x="80.01" y="-175.5" font-family="Helvetica,sans-Serif" font-size="10.00">ExtendedIOElement.cpp</text>
</a>
</g>
</g>
<!-- Node1&#45;&gt;Node32 -->
<g id="edge70" class="edge">
<title>Node1&#45;&gt;Node32</title>
<path fill="none" stroke="midnightblue" d="M637.5,-513.17C528.12,-513.06 229.2,-508.92 141.01,-468 103.96,-450.8 76.01,-443.86 76.01,-403 76.01,-403 76.01,-403 76.01,-289 76.01,-251.16 78.41,-206.05 79.49,-187.55"/>
<polygon fill="midnightblue" stroke="midnightblue" points="637.78,-516.67 647.78,-513.17 637.78,-509.67 637.78,-516.67"/>
</g>
<!-- Node33 -->
<g id="node33" class="node">
<title>Node33</title>
<g id="a_node33"><a xlink:href="../../d6/d3c/ExtendedInputOutput_8cpp.html" target="_top" xlink:title=" ">
<polygon fill="white" stroke="black" points="165.01,-168.5 165.01,-187.5 305.01,-187.5 305.01,-168.5 165.01,-168.5"/>
<text text-anchor="middle" x="235.01" y="-175.5" font-family="Helvetica,sans-Serif" font-size="10.00">ExtendedInputOutput.cpp</text>
</a>
</g>
</g>
<!-- Node1&#45;&gt;Node33 -->
<g id="edge71" class="edge">
<title>Node1&#45;&gt;Node33</title>
<path fill="none" stroke="midnightblue" d="M637.42,-513.71C508.08,-514.89 114.01,-509.74 114.01,-403 114.01,-403 114.01,-403 114.01,-289 114.01,-236.48 177.2,-202.42 212.26,-187.57"/>
<polygon fill="midnightblue" stroke="midnightblue" points="637.73,-517.21 647.69,-513.6 637.65,-510.21 637.73,-517.21"/>
</g>
<!-- Node44 -->
<g id="node44" class="node">
<title>Node44</title>
<g id="a_node44"><a xlink:href="../../d1/d40/BitArray_8hpp.html" target="_top" xlink:title=" ">
<polygon fill="white" stroke="black" points="637.01,-168.5 637.01,-187.5 713.01,-187.5 713.01,-168.5 637.01,-168.5"/>
<text text-anchor="middle" x="675.01" y="-175.5" font-family="Helvetica,sans-Serif" font-size="10.00">BitArray.hpp</text>
</a>
</g>
</g>
<!-- Node1&#45;&gt;Node44 -->
<g id="edge65" class="edge">
<title>Node1&#45;&gt;Node44</title>
<path fill="none" stroke="midnightblue" d="M677.84,-494.05C677.28,-431.23 675.48,-231.33 675.09,-187.54"/>
<polygon fill="midnightblue" stroke="midnightblue" points="674.35,-494.44 677.94,-504.41 681.35,-494.38 674.35,-494.44"/>
</g>
<!-- Node45 -->
<g id="node45" class="node">
<title>Node45</title>
<g id="a_node45"><a xlink:href="../../d6/df4/Exit_8cpp.html" target="_top" xlink:title=" ">
<polygon fill="white" stroke="black" points="1166.01,-448.5 1166.01,-467.5 1222.01,-467.5 1222.01,-448.5 1166.01,-448.5"/>
<text text-anchor="middle" x="1194.01" y="-455.5" font-family="Helvetica,sans-Serif" font-size="10.00">Exit.cpp</text>
</a>
</g>
</g>
<!-- Node1&#45;&gt;Node45 -->
<g id="edge69" class="edge">
<title>Node1&#45;&gt;Node45</title>
<path fill="none" stroke="midnightblue" d="M718.42,-511.18C801.2,-507.03 995.83,-495.03 1157.01,-468 1159.88,-467.52 1162.86,-466.94 1165.82,-466.3"/>
<polygon fill="midnightblue" stroke="midnightblue" points="718.01,-507.7 708.2,-511.69 718.36,-514.69 718.01,-507.7"/>
</g>
<!-- Node46 -->
<g id="node46" class="node">
<title>Node46</title>
<g id="a_node46"><a xlink:href="../../d3/d50/FixedPoint_8hpp.html" target="_top" xlink:title=" ">
<polygon fill="white" stroke="black" points="1240.01,-448.5 1240.01,-467.5 1328.01,-467.5 1328.01,-448.5 1240.01,-448.5"/>
<text text-anchor="middle" x="1284.01" y="-455.5" font-family="Helvetica,sans-Serif" font-size="10.00">FixedPoint.hpp</text>
</a>
</g>
</g>
<!-- Node1&#45;&gt;Node46 -->
<g id="edge72" class="edge">
<title>Node1&#45;&gt;Node46</title>
<path fill="none" stroke="midnightblue" d="M718.28,-510.93C809.68,-505.96 1039.79,-491.97 1231.01,-468 1233.89,-467.64 1236.84,-467.24 1239.81,-466.8"/>
<polygon fill="midnightblue" stroke="midnightblue" points="717.88,-507.44 708.08,-511.48 718.25,-514.43 717.88,-507.44"/>
</g>
<!-- Node47 -->
<g id="node47" class="node">
<title>Node47</title>
<g id="a_node47"><a xlink:href="../../d4/d93/Updatable_8hpp.html" target="_top" xlink:title=" ">
<polygon fill="white" stroke="black" points="180.01,-280.5 180.01,-299.5 268.01,-299.5 268.01,-280.5 180.01,-280.5"/>
<text text-anchor="middle" x="224.01" y="-287.5" font-family="Helvetica,sans-Serif" font-size="10.00">Updatable.hpp</text>
</a>
</g>
</g>
<!-- Node1&#45;&gt;Node47 -->
<g id="edge73" class="edge">
<title>Node1&#45;&gt;Node47</title>
<path fill="none" stroke="midnightblue" d="M637.62,-511.57C535.96,-507.59 275.69,-494.85 248.01,-468 200.16,-421.58 215.76,-328.29 221.98,-299.59"/>
<polygon fill="midnightblue" stroke="midnightblue" points="637.67,-515.08 647.8,-511.96 637.94,-508.08 637.67,-515.08"/>
</g>
<!-- Node48 -->
<g id="node48" class="node">
<title>Node48</title>
<g id="a_node48"><a xlink:href="../../d4/d1b/vector_8cpp.html" target="_top" xlink:title=" ">
<polygon fill="white" stroke="black" points="1346.51,-448.5 1346.51,-467.5 1413.51,-467.5 1413.51,-448.5 1346.51,-448.5"/>
<text text-anchor="middle" x="1380.01" y="-455.5" font-family="Helvetica,sans-Serif" font-size="10.00">vector.cpp</text>
</a>
</g>
</g>
<!-- Node1&#45;&gt;Node48 -->
<g id="edge75" class="edge">
<title>Node1&#45;&gt;Node48</title>
<path fill="none" stroke="midnightblue" d="M718.34,-512.18C821.66,-509.67 1104.14,-500.16 1337.01,-468 1340.04,-467.58 1343.16,-467.08 1346.29,-466.52"/>
<polygon fill="midnightblue" stroke="midnightblue" points="717.97,-508.69 708.05,-512.42 718.13,-515.69 717.97,-508.69"/>
</g>
<!-- Node3 -->
<g id="node3" class="node">
<title>Node3</title>
<g id="a_node3"><a xlink:href="../../d7/def/AnalogMultiplex_8hpp.html" target="_top" xlink:title=" ">
<polygon fill="white" stroke="black" points="361.51,-112.5 361.51,-131.5 478.51,-131.5 478.51,-112.5 361.51,-112.5"/>
<text text-anchor="middle" x="420.01" y="-119.5" font-family="Helvetica,sans-Serif" font-size="10.00">AnalogMultiplex.hpp</text>
</a>
</g>
</g>
<!-- Node2&#45;&gt;Node3 -->
<g id="edge2" class="edge">
<title>Node2&#45;&gt;Node3</title>
<path fill="none" stroke="midnightblue" d="M1075.7,-454.75C886.7,-443.39 109.1,-385 4.01,-188 -0.17,-180.16 -1.92,-174.61 4.01,-168 27.46,-141.88 252.56,-129.55 361.51,-125.08"/>
<polygon fill="midnightblue" stroke="midnightblue" points="1075.59,-458.25 1085.78,-455.34 1076.01,-451.26 1075.59,-458.25"/>
</g>
<!-- Node4 -->
<g id="node4" class="node">
<title>Node4</title>
<g id="a_node4"><a xlink:href="../../d5/db6/ArrayHelpers_8hpp.html" target="_top" xlink:title=" ">
<polygon fill="white" stroke="black" points="1183.51,-336.5 1183.51,-355.5 1284.51,-355.5 1284.51,-336.5 1183.51,-336.5"/>
<text text-anchor="middle" x="1234.01" y="-343.5" font-family="Helvetica,sans-Serif" font-size="10.00">ArrayHelpers.hpp</text>
</a>
</g>
</g>
<!-- Node2&#45;&gt;Node4 -->
<g id="edge3" class="edge">
<title>Node2&#45;&gt;Node4</title>
<path fill="none" stroke="midnightblue" d="M1141.36,-443.3C1154.72,-435.16 1171.14,-424.07 1184.01,-412 1202.92,-394.28 1220.21,-368.9 1228.63,-355.71"/>
<polygon fill="midnightblue" stroke="midnightblue" points="1139.49,-440.34 1132.67,-448.45 1143.06,-446.36 1139.49,-440.34"/>
</g>
<!-- Node17 -->
<g id="node17" class="node">
<title>Node17</title>
<g id="a_node17"><a xlink:href="../../d1/dde/BiQuad_8hpp.html" target="_top" xlink:title=" ">
<polygon fill="white" stroke="black" points="1536.51,-336.5 1536.51,-355.5 1609.51,-355.5 1609.51,-336.5 1536.51,-336.5"/>
<text text-anchor="middle" x="1573.01" y="-343.5" font-family="Helvetica,sans-Serif" font-size="10.00">BiQuad.hpp</text>
</a>
</g>
</g>
<!-- Node2&#45;&gt;Node17 -->
<g id="edge21" class="edge">
<title>Node2&#45;&gt;Node17</title>
<path fill="none" stroke="midnightblue" d="M1158.57,-448.31C1234.33,-441.13 1531.66,-441.41 1563.01,-412 1578.51,-397.47 1576.77,-369.74 1574.66,-355.66"/>
<polygon fill="midnightblue" stroke="midnightblue" points="1157.89,-444.86 1148.38,-449.53 1158.73,-451.81 1157.89,-444.86"/>
</g>
<!-- Node18 -->
<g id="node18" class="node">
<title>Node18</title>
<g id="a_node18"><a xlink:href="../../d2/d3b/FIRFilter_8hpp.html" target="_top" xlink:title=" ">
<polygon fill="white" stroke="black" points="1302.51,-392.5 1302.51,-411.5 1379.51,-411.5 1379.51,-392.5 1302.51,-392.5"/>
<text text-anchor="middle" x="1341.01" y="-399.5" font-family="Helvetica,sans-Serif" font-size="10.00">FIRFilter.hpp</text>
</a>
</g>
</g>
<!-- Node2&#45;&gt;Node18 -->
<g id="edge23" class="edge">
<title>Node2&#45;&gt;Node18</title>
<path fill="none" stroke="midnightblue" d="M1158.13,-447.09C1200.44,-436.89 1265.66,-421.17 1305.71,-411.51"/>
<polygon fill="midnightblue" stroke="midnightblue" points="1157.06,-443.75 1148.16,-449.49 1158.7,-450.55 1157.06,-443.75"/>
</g>
<!-- Node20 -->
<g id="node20" class="node">
<title>Node20</title>
<g id="a_node20"><a xlink:href="../../d4/d35/Hardware-Types_8hpp.html" target="_top" xlink:title=" ">
<polygon fill="white" stroke="black" points="1059.01,-392.5 1059.01,-411.5 1175.01,-411.5 1175.01,-392.5 1059.01,-392.5"/>
<text text-anchor="middle" x="1117.01" y="-399.5" font-family="Helvetica,sans-Serif" font-size="10.00">Hardware&#45;Types.hpp</text>
</a>
</g>
</g>
<!-- Node2&#45;&gt;Node20 -->
<g id="edge25" class="edge">
<title>Node2&#45;&gt;Node20</title>
<path fill="none" stroke="midnightblue" d="M1117.01,-437.8C1117.01,-428.91 1117.01,-418.78 1117.01,-411.75"/>
<polygon fill="midnightblue" stroke="midnightblue" points="1113.51,-438.08 1117.01,-448.08 1120.51,-438.08 1113.51,-438.08"/>
</g>
<!-- Node40 -->
<g id="node40" class="node">
<title>Node40</title>
<g id="a_node40"><a xlink:href="../../dc/d64/IIRFilter_8hpp.html" target="_top" xlink:title=" ">
<polygon fill="white" stroke="black" points="1438.01,-336.5 1438.01,-355.5 1512.01,-355.5 1512.01,-336.5 1438.01,-336.5"/>
<text text-anchor="middle" x="1475.01" y="-343.5" font-family="Helvetica,sans-Serif" font-size="10.00">IIRFilter.hpp</text>
</a>
</g>
</g>
<!-- Node2&#45;&gt;Node40 -->
<g id="edge58" class="edge">
<title>Node2&#45;&gt;Node40</title>
<path fill="none" stroke="midnightblue" d="M1158.3,-447.92C1261.61,-429.94 1295.84,-451.46 1389.01,-412 1421.07,-398.43 1451.94,-370.26 1466.43,-355.88"/>
<polygon fill="midnightblue" stroke="midnightblue" points="1157.63,-444.49 1148.42,-449.72 1158.88,-451.37 1157.63,-444.49"/>
</g>
<!-- Node41 -->
<g id="node41" class="node">
<title>Node41</title>
<g id="a_node41"><a xlink:href="../../dd/ddf/RegisterEncoders_8hpp.html" target="_top" xlink:title=" ">
<polygon fill="white" stroke="black" points="1292.01,-280.5 1292.01,-299.5 1414.01,-299.5 1414.01,-280.5 1292.01,-280.5"/>
<text text-anchor="middle" x="1353.01" y="-287.5" font-family="Helvetica,sans-Serif" font-size="10.00">RegisterEncoders.hpp</text>
</a>
</g>
</g>
<!-- Node2&#45;&gt;Node41 -->
<g id="edge59" class="edge">
<title>Node2&#45;&gt;Node41</title>
<path fill="none" stroke="midnightblue" d="M1146.64,-444.29C1183.62,-427.53 1247.65,-395.48 1294.01,-356 1315.13,-338.02 1336.04,-312.75 1346.37,-299.65"/>
<polygon fill="midnightblue" stroke="midnightblue" points="1145.11,-441.14 1137.4,-448.41 1147.96,-447.53 1145.11,-441.14"/>
</g>
<!-- Node42 -->
<g id="node42" class="node">
<title>Node42</title>
<g id="a_node42"><a xlink:href="../../dc/d9c/SMA_8hpp.html" target="_top" xlink:title=" ">
<polygon fill="white" stroke="black" points="981.51,-392.5 981.51,-411.5 1040.51,-411.5 1040.51,-392.5 981.51,-392.5"/>
<text text-anchor="middle" x="1011.01" y="-399.5" font-family="Helvetica,sans-Serif" font-size="10.00">SMA.hpp</text>
</a>
</g>
</g>
<!-- Node2&#45;&gt;Node42 -->
<g id="edge61" class="edge">
<title>Node2&#45;&gt;Node42</title>
<path fill="none" stroke="midnightblue" d="M1090.96,-443.73C1071.33,-433.73 1044.99,-420.31 1028,-411.65"/>
<polygon fill="midnightblue" stroke="midnightblue" points="1089.48,-446.9 1099.98,-448.32 1092.66,-440.67 1089.48,-446.9"/>
</g>
<!-- Node43 -->
<g id="node43" class="node">
<title>Node43</title>
<g id="a_node43"><a xlink:href="../../d2/d03/TransferFunction_8hpp.html" target="_top" xlink:title=" ">
<polygon fill="white" stroke="black" points="1436.01,-392.5 1436.01,-411.5 1554.01,-411.5 1554.01,-392.5 1436.01,-392.5"/>
<text text-anchor="middle" x="1495.01" y="-399.5" font-family="Helvetica,sans-Serif" font-size="10.00">TransferFunction.hpp</text>
</a>
</g>
</g>
<!-- Node2&#45;&gt;Node43 -->
<g id="edge62" class="edge">
<title>Node2&#45;&gt;Node43</title>
<path fill="none" stroke="midnightblue" d="M1158.3,-447.99C1207.5,-440.14 1352.91,-421.26 1435.84,-410.59"/>
<polygon fill="midnightblue" stroke="midnightblue" points="1157.68,-444.55 1148.4,-449.66 1158.85,-451.45 1157.68,-444.55"/>
</g>
<!-- Node5 -->
<g id="node5" class="node">
<title>Node5</title>
<g id="a_node5"><a xlink:href="../../df/ddc/SOSFilter_8hpp.html" target="_top" xlink:title=" ">
<polygon fill="white" stroke="black" points="1532.51,-280.5 1532.51,-299.5 1613.51,-299.5 1613.51,-280.5 1532.51,-280.5"/>
<text text-anchor="middle" x="1573.01" y="-287.5" font-family="Helvetica,sans-Serif" font-size="10.00">SOSFilter.hpp</text>
</a>
</g>
</g>
<!-- Node4&#45;&gt;Node5 -->
<g id="edge4" class="edge">
<title>Node4&#45;&gt;Node5</title>
<path fill="none" stroke="midnightblue" d="M1295,-335.28C1363.67,-324.35 1473.32,-306.88 1532.3,-297.49"/>
<polygon fill="midnightblue" stroke="midnightblue" points="1294.09,-331.89 1284.77,-336.92 1295.19,-338.8 1294.09,-331.89"/>
</g>
<!-- Node7 -->
<g id="node7" class="node">
<title>Node7</title>
<g id="a_node7"><a xlink:href="../../d2/d05/StaticSizeExtendedIOElement_8hpp.html" target="_top" xlink:title=" ">
<polygon fill="white" stroke="black" points="399.01,-168.5 399.01,-187.5 581.01,-187.5 581.01,-168.5 399.01,-168.5"/>
<text text-anchor="middle" x="490.01" y="-175.5" font-family="Helvetica,sans-Serif" font-size="10.00">StaticSizeExtendedIOElement.hpp</text>
</a>
</g>
</g>
<!-- Node4&#45;&gt;Node7 -->
<g id="edge6" class="edge">
<title>Node4&#45;&gt;Node7</title>
<path fill="none" stroke="midnightblue" d="M1173.57,-337.61C1112.03,-329.72 1014.01,-316.15 930.01,-300 824.15,-279.64 797.89,-272.83 694.01,-244 628.65,-225.86 552.8,-200.55 514.64,-187.51"/>
<polygon fill="midnightblue" stroke="midnightblue" points="1173.13,-341.08 1183.5,-338.87 1174.02,-334.14 1173.13,-341.08"/>
</g>
<!-- Node6 -->
<g id="node6" class="node">
<title>Node6</title>
<g id="a_node6"><a xlink:href="../../d4/d40/Butterworth_8hpp.html" target="_top" xlink:title=" ">
<polygon fill="white" stroke="black" points="1695.51,-224.5 1695.51,-243.5 1790.51,-243.5 1790.51,-224.5 1695.51,-224.5"/>
<text text-anchor="middle" x="1743.01" y="-231.5" font-family="Helvetica,sans-Serif" font-size="10.00">Butterworth.hpp</text>
</a>
</g>
</g>
<!-- Node5&#45;&gt;Node6 -->
<g id="edge5" class="edge">
<title>Node5&#45;&gt;Node6</title>
<path fill="none" stroke="midnightblue" d="M1609.83,-277.3C1641.87,-267.13 1687.53,-252.62 1716.2,-243.52"/>
<polygon fill="midnightblue" stroke="midnightblue" points="1608.42,-274.08 1599.95,-280.44 1610.54,-280.75 1608.42,-274.08"/>
</g>
<!-- Node7&#45;&gt;Node3 -->
<g id="edge7" class="edge">
<title>Node7&#45;&gt;Node3</title>
<path fill="none" stroke="midnightblue" d="M470.7,-162.1C458.1,-152.38 442.09,-140.03 431.47,-131.83"/>
<polygon fill="midnightblue" stroke="midnightblue" points="468.71,-164.99 478.77,-168.32 472.99,-159.44 468.71,-164.99"/>
</g>
<!-- Node8 -->
<g id="node8" class="node">
<title>Node8</title>
<g id="a_node8"><a xlink:href="../../d2/d25/MAX7219_8hpp.html" target="_top" xlink:title=" ">
<polygon fill="white" stroke="black" points="698.01,-112.5 698.01,-131.5 782.01,-131.5 782.01,-112.5 698.01,-112.5"/>
<text text-anchor="middle" x="740.01" y="-119.5" font-family="Helvetica,sans-Serif" font-size="10.00">MAX7219.hpp</text>
</a>
</g>
</g>
<!-- Node7&#45;&gt;Node8 -->
<g id="edge8" class="edge">
<title>Node7&#45;&gt;Node8</title>
<path fill="none" stroke="midnightblue" d="M539.64,-166.28C586.88,-156.08 657.05,-140.92 700.59,-131.52"/>
<polygon fill="midnightblue" stroke="midnightblue" points="538.66,-162.91 529.63,-168.44 540.14,-169.75 538.66,-162.91"/>
</g>
<!-- Node9 -->
<g id="node9" class="node">
<title>Node9</title>
<g id="a_node9"><a xlink:href="../../d7/dca/MCP23017_8hpp.html" target="_top" xlink:title=" ">
<polygon fill="white" stroke="black" points="1002.51,-112.5 1002.51,-131.5 1091.51,-131.5 1091.51,-112.5 1002.51,-112.5"/>
<text text-anchor="middle" x="1047.01" y="-119.5" font-family="Helvetica,sans-Serif" font-size="10.00">MCP23017.hpp</text>
</a>
</g>
</g>
<!-- Node7&#45;&gt;Node9 -->
<g id="edge9" class="edge">
<title>Node7&#45;&gt;Node9</title>
<path fill="none" stroke="midnightblue" d="M588.05,-167.5C709.94,-155.68 912.84,-136.01 1002.3,-127.33"/>
<polygon fill="midnightblue" stroke="midnightblue" points="587.58,-164.02 577.97,-168.47 588.26,-170.99 587.58,-164.02"/>
</g>
<!-- Node11 -->
<g id="node11" class="node">
<title>Node11</title>
<g id="a_node11"><a xlink:href="../../d8/d93/ShiftRegisterOutBase_8hpp.html" target="_top" xlink:title=" ">
<polygon fill="white" stroke="black" points="538.51,-112.5 538.51,-131.5 679.51,-131.5 679.51,-112.5 538.51,-112.5"/>
<text text-anchor="middle" x="609.01" y="-119.5" font-family="Helvetica,sans-Serif" font-size="10.00">ShiftRegisterOutBase.hpp</text>
</a>
</g>
</g>
<!-- Node7&#45;&gt;Node11 -->
<g id="edge12" class="edge">
<title>Node7&#45;&gt;Node11</title>
<path fill="none" stroke="midnightblue" d="M518.15,-164.23C540.41,-154.13 570.87,-140.31 590.25,-131.52"/>
<polygon fill="midnightblue" stroke="midnightblue" points="516.53,-161.12 508.87,-168.44 519.42,-167.5 516.53,-161.12"/>
</g>
<!-- Node10 -->
<g id="node10" class="node">
<title>Node10</title>
<g id="a_node10"><a xlink:href="../../d2/d94/MCP23017_8ipp.html" target="_top" xlink:title=" ">
<polygon fill="white" stroke="black" points="1004.01,-56.5 1004.01,-75.5 1090.01,-75.5 1090.01,-56.5 1004.01,-56.5"/>
<text text-anchor="middle" x="1047.01" y="-63.5" font-family="Helvetica,sans-Serif" font-size="10.00">MCP23017.ipp</text>
</a>
</g>
</g>
<!-- Node9&#45;&gt;Node10 -->
<g id="edge10" class="edge">
<title>Node9&#45;&gt;Node10</title>
<path fill="none" stroke="midnightblue" d="M1040.54,-102.1C1039.91,-93.14 1040.36,-82.86 1041.88,-75.75"/>
<polygon fill="midnightblue" stroke="midnightblue" points="1037.08,-102.62 1041.85,-112.08 1044.02,-101.71 1037.08,-102.62"/>
</g>
<!-- Node10&#45;&gt;Node9 -->
<g id="edge11" class="edge">
<title>Node10&#45;&gt;Node9</title>
<path fill="none" stroke="midnightblue" d="M1053.47,-85.69C1054.12,-94.64 1053.69,-104.93 1052.18,-112.08"/>
<polygon fill="midnightblue" stroke="midnightblue" points="1056.94,-85.2 1052.15,-75.75 1050,-86.13 1056.94,-85.2"/>
</g>
<!-- Node12 -->
<g id="node12" class="node">
<title>Node12</title>
<g id="a_node12"><a xlink:href="../../d7/d88/SPIShiftRegisterOut_8hpp.html" target="_top" xlink:title=" ">
<polygon fill="white" stroke="black" points="381.01,-56.5 381.01,-75.5 513.01,-75.5 513.01,-56.5 381.01,-56.5"/>
<text text-anchor="middle" x="447.01" y="-63.5" font-family="Helvetica,sans-Serif" font-size="10.00">SPIShiftRegisterOut.hpp</text>
</a>
</g>
</g>
<!-- Node11&#45;&gt;Node12 -->
<g id="edge13" class="edge">
<title>Node11&#45;&gt;Node12</title>
<path fill="none" stroke="midnightblue" d="M573.53,-109.17C543.03,-99 499.77,-84.59 472.56,-75.52"/>
<polygon fill="midnightblue" stroke="midnightblue" points="572.75,-112.6 583.35,-112.44 574.97,-105.96 572.75,-112.6"/>
</g>
<!-- Node14 -->
<g id="node14" class="node">
<title>Node14</title>
<g id="a_node14"><a xlink:href="../../d0/db4/ShiftRegisterOut_8hpp.html" target="_top" xlink:title=" ">
<polygon fill="white" stroke="black" points="550.51,-56.5 550.51,-75.5 667.51,-75.5 667.51,-56.5 550.51,-56.5"/>
<text text-anchor="middle" x="609.01" y="-63.5" font-family="Helvetica,sans-Serif" font-size="10.00">ShiftRegisterOut.hpp</text>
</a>
</g>
</g>
<!-- Node11&#45;&gt;Node14 -->
<g id="edge16" class="edge">
<title>Node11&#45;&gt;Node14</title>
<path fill="none" stroke="midnightblue" d="M609.01,-101.8C609.01,-92.91 609.01,-82.78 609.01,-75.75"/>
<polygon fill="midnightblue" stroke="midnightblue" points="605.51,-102.08 609.01,-112.08 612.51,-102.08 605.51,-102.08"/>
</g>
<!-- Node16 -->
<g id="node16" class="node">
<title>Node16</title>
<g id="a_node16"><a xlink:href="../../d5/d47/ShiftRegisterOutBase_8ipp.html" target="_top" xlink:title=" ">
<polygon fill="white" stroke="black" points="686.01,-56.5 686.01,-75.5 824.01,-75.5 824.01,-56.5 686.01,-56.5"/>
<text text-anchor="middle" x="755.01" y="-63.5" font-family="Helvetica,sans-Serif" font-size="10.00">ShiftRegisterOutBase.ipp</text>
</a>
</g>
</g>
<!-- Node11&#45;&gt;Node16 -->
<g id="edge19" class="edge">
<title>Node11&#45;&gt;Node16</title>
<path fill="none" stroke="midnightblue" d="M636.66,-108.64C662.56,-98.5 700.85,-84.43 726.91,-75.52"/>
<polygon fill="midnightblue" stroke="midnightblue" points="635.07,-105.5 627.06,-112.44 637.65,-112.01 635.07,-105.5"/>
</g>
<!-- Node13 -->
<g id="node13" class="node">
<title>Node13</title>
<g id="a_node13"><a xlink:href="../../da/d45/SPIShiftRegisterOut_8ipp.html" target="_top" xlink:title=" ">
<polygon fill="white" stroke="black" points="382.51,-0.5 382.51,-19.5 511.51,-19.5 511.51,-0.5 382.51,-0.5"/>
<text text-anchor="middle" x="447.01" y="-7.5" font-family="Helvetica,sans-Serif" font-size="10.00">SPIShiftRegisterOut.ipp</text>
</a>
</g>
</g>
<!-- Node12&#45;&gt;Node13 -->
<g id="edge14" class="edge">
<title>Node12&#45;&gt;Node13</title>
<path fill="none" stroke="midnightblue" d="M440.54,-46.1C439.91,-37.14 440.36,-26.86 441.88,-19.75"/>
<polygon fill="midnightblue" stroke="midnightblue" points="437.08,-46.62 441.85,-56.08 444.02,-45.71 437.08,-46.62"/>
</g>
<!-- Node13&#45;&gt;Node12 -->
<g id="edge15" class="edge">
<title>Node13&#45;&gt;Node12</title>
<path fill="none" stroke="midnightblue" d="M453.47,-29.69C454.12,-38.64 453.69,-48.93 452.18,-56.08"/>
<polygon fill="midnightblue" stroke="midnightblue" points="456.94,-29.2 452.15,-19.75 450,-30.13 456.94,-29.2"/>
</g>
<!-- Node15 -->
<g id="node15" class="node">
<title>Node15</title>
<g id="a_node15"><a xlink:href="../../de/d95/ShiftRegisterOut_8ipp.html" target="_top" xlink:title=" ">
<polygon fill="white" stroke="black" points="552.01,-0.5 552.01,-19.5 666.01,-19.5 666.01,-0.5 552.01,-0.5"/>
<text text-anchor="middle" x="609.01" y="-7.5" font-family="Helvetica,sans-Serif" font-size="10.00">ShiftRegisterOut.ipp</text>
</a>
</g>
</g>
<!-- Node14&#45;&gt;Node15 -->
<g id="edge17" class="edge">
<title>Node14&#45;&gt;Node15</title>
<path fill="none" stroke="midnightblue" d="M602.54,-46.1C601.91,-37.14 602.36,-26.86 603.88,-19.75"/>
<polygon fill="midnightblue" stroke="midnightblue" points="599.08,-46.62 603.85,-56.08 606.02,-45.71 599.08,-46.62"/>
</g>
<!-- Node15&#45;&gt;Node14 -->
<g id="edge18" class="edge">
<title>Node15&#45;&gt;Node14</title>
<path fill="none" stroke="midnightblue" d="M615.47,-29.69C616.12,-38.64 615.69,-48.93 614.18,-56.08"/>
<polygon fill="midnightblue" stroke="midnightblue" points="618.94,-29.2 614.15,-19.75 612,-30.13 618.94,-29.2"/>
</g>
<!-- Node16&#45;&gt;Node11 -->
<g id="edge20" class="edge">
<title>Node16&#45;&gt;Node11</title>
<path fill="none" stroke="midnightblue" d="M727.48,-79.32C701.62,-89.44 663.33,-103.52 637.24,-112.44"/>
<polygon fill="midnightblue" stroke="midnightblue" points="729.06,-82.46 737.07,-75.52 726.48,-75.95 729.06,-82.46"/>
</g>
<!-- Node17&#45;&gt;Node5 -->
<g id="edge22" class="edge">
<title>Node17&#45;&gt;Node5</title>
<path fill="none" stroke="midnightblue" d="M1573.01,-325.8C1573.01,-316.91 1573.01,-306.78 1573.01,-299.75"/>
<polygon fill="midnightblue" stroke="midnightblue" points="1569.51,-326.08 1573.01,-336.08 1576.51,-326.08 1569.51,-326.08"/>
</g>
<!-- Node19 -->
<g id="node19" class="node">
<title>Node19</title>
<g id="a_node19"><a xlink:href="../../df/da1/Notch_8hpp.html" target="_top" xlink:title=" ">
<polygon fill="white" stroke="black" points="1341.01,-336.5 1341.01,-355.5 1407.01,-355.5 1407.01,-336.5 1341.01,-336.5"/>
<text text-anchor="middle" x="1374.01" y="-343.5" font-family="Helvetica,sans-Serif" font-size="10.00">Notch.hpp</text>
</a>
</g>
</g>
<!-- Node18&#45;&gt;Node19 -->
<g id="edge24" class="edge">
<title>Node18&#45;&gt;Node19</title>
<path fill="none" stroke="midnightblue" d="M1351.85,-383.27C1357.49,-374.05 1364.13,-363.17 1368.67,-355.75"/>
<polygon fill="midnightblue" stroke="midnightblue" points="1348.69,-381.73 1346.46,-392.08 1354.67,-385.38 1348.69,-381.73"/>
</g>
<!-- Node21 -->
<g id="node21" class="node">
<title>Node21</title>
<g id="a_node21"><a xlink:href="../../d2/d3c/Arduino-Hardware-Types_8hpp.html" target="_top" xlink:title=" ">
<polygon fill="white" stroke="black" points="931.51,-336.5 931.51,-355.5 1088.51,-355.5 1088.51,-336.5 931.51,-336.5"/>
<text text-anchor="middle" x="1010.01" y="-343.5" font-family="Helvetica,sans-Serif" font-size="10.00">Arduino&#45;Hardware&#45;Types.hpp</text>
</a>
</g>
</g>
<!-- Node20&#45;&gt;Node21 -->
<g id="edge26" class="edge">
<title>Node20&#45;&gt;Node21</title>
<path fill="none" stroke="midnightblue" d="M1090.71,-387.73C1070.9,-377.73 1044.31,-364.31 1027.16,-355.65"/>
<polygon fill="midnightblue" stroke="midnightblue" points="1089.32,-390.94 1099.82,-392.32 1092.47,-384.69 1089.32,-390.94"/>
</g>
<!-- Node30 -->
<g id="node30" class="node">
<title>Node30</title>
<g id="a_node30"><a xlink:href="../../d9/d4b/ButtonMatrix_8hpp.html" target="_top" xlink:title=" ">
<polygon fill="white" stroke="black" points="1478.51,-168.5 1478.51,-187.5 1579.51,-187.5 1579.51,-168.5 1478.51,-168.5"/>
<text text-anchor="middle" x="1529.01" y="-175.5" font-family="Helvetica,sans-Serif" font-size="10.00">ButtonMatrix.hpp</text>
</a>
</g>
</g>
<!-- Node20&#45;&gt;Node30 -->
<g id="edge55" class="edge">
<title>Node20&#45;&gt;Node30</title>
<path fill="none" stroke="midnightblue" d="M1127.27,-383.53C1137.19,-368.32 1153.7,-347.03 1174.01,-336 1272.29,-282.66 1313.29,-321.53 1423.01,-300 1435.66,-297.52 1640.08,-254.15 1648.01,-244 1670.78,-214.88 1620.86,-197.03 1578.85,-187.58"/>
<polygon fill="midnightblue" stroke="midnightblue" points="1124.27,-381.72 1121.97,-392.06 1130.22,-385.42 1124.27,-381.72"/>
</g>
<!-- Node31 -->
<g id="node31" class="node">
<title>Node31</title>
<g id="a_node31"><a xlink:href="../../d4/d57/ExtendedIOElement_8hpp.html" target="_top" xlink:title=" ">
<polygon fill="white" stroke="black" points="168.01,-224.5 168.01,-243.5 302.01,-243.5 302.01,-224.5 168.01,-224.5"/>
<text text-anchor="middle" x="235.01" y="-231.5" font-family="Helvetica,sans-Serif" font-size="10.00">ExtendedIOElement.hpp</text>
</a>
</g>
</g>
<!-- Node20&#45;&gt;Node31 -->
<g id="edge56" class="edge">
<title>Node20&#45;&gt;Node31</title>
<path fill="none" stroke="midnightblue" d="M1061.53,-390.56C899.44,-360.05 428.71,-271.46 280.35,-243.53"/>
<polygon fill="midnightblue" stroke="midnightblue" points="1061.28,-394.07 1071.76,-392.48 1062.58,-387.19 1061.28,-394.07"/>
</g>
<!-- Node34 -->
<g id="node34" class="node">
<title>Node34</title>
<g id="a_node34"><a xlink:href="../../d8/df3/FilteredAnalog_8hpp.html" target="_top" xlink:title=" ">
<polygon fill="white" stroke="black" points="1379.01,-224.5 1379.01,-243.5 1487.01,-243.5 1487.01,-224.5 1379.01,-224.5"/>
<text text-anchor="middle" x="1433.01" y="-231.5" font-family="Helvetica,sans-Serif" font-size="10.00">FilteredAnalog.hpp</text>
</a>
</g>
</g>
<!-- Node20&#45;&gt;Node34 -->
<g id="edge57" class="edge">
<title>Node20&#45;&gt;Node34</title>
<path fill="none" stroke="midnightblue" d="M1119.75,-382.02C1122.72,-367.72 1128.8,-348.48 1141.01,-336 1177.26,-298.95 1325.18,-260.28 1395.52,-243.55"/>
<polygon fill="midnightblue" stroke="midnightblue" points="1116.24,-381.77 1117.97,-392.22 1123.13,-382.97 1116.24,-381.77"/>
</g>
<!-- Node22 -->
<g id="node22" class="node">
<title>Node22</title>
<g id="a_node22"><a xlink:href="../../dd/ddf/ExtendedInputOutput_8hpp.html" target="_top" xlink:title=" ">
<polygon fill="white" stroke="black" points="939.51,-280.5 939.51,-299.5 1080.51,-299.5 1080.51,-280.5 939.51,-280.5"/>
<text text-anchor="middle" x="1010.01" y="-287.5" font-family="Helvetica,sans-Serif" font-size="10.00">ExtendedInputOutput.hpp</text>
</a>
</g>
</g>
<!-- Node21&#45;&gt;Node22 -->
<g id="edge27" class="edge">
<title>Node21&#45;&gt;Node22</title>
<path fill="none" stroke="midnightblue" d="M1010.01,-325.8C1010.01,-316.91 1010.01,-306.78 1010.01,-299.75"/>
<polygon fill="midnightblue" stroke="midnightblue" points="1006.51,-326.08 1010.01,-336.08 1013.51,-326.08 1006.51,-326.08"/>
</g>
<!-- Node22&#45;&gt;Node3 -->
<g id="edge28" class="edge">
<title>Node22&#45;&gt;Node3</title>
<path fill="none" stroke="midnightblue" d="M929.1,-288.38C776.97,-285.28 457.5,-269.06 390.01,-188 375.54,-170.62 396.81,-145.1 410.32,-131.8"/>
<polygon fill="midnightblue" stroke="midnightblue" points="929.26,-291.88 939.32,-288.57 929.39,-284.88 929.26,-291.88"/>
</g>
<!-- Node22&#45;&gt;Node9 -->
<g id="edge49" class="edge">
<title>Node22&#45;&gt;Node9</title>
<path fill="none" stroke="midnightblue" d="M1014.27,-269.93C1022.29,-233.92 1039.38,-157.23 1045.11,-131.57"/>
<polygon fill="midnightblue" stroke="midnightblue" points="1010.76,-269.55 1012,-280.08 1017.6,-271.08 1010.76,-269.55"/>
</g>
<!-- Node22&#45;&gt;Node11 -->
<g id="edge53" class="edge">
<title>Node22&#45;&gt;Node11</title>
<path fill="none" stroke="midnightblue" d="M937.8,-278.9C839.42,-263.69 670.63,-231.93 628.01,-188 612.95,-172.47 609.73,-145.69 609.1,-131.85"/>
<polygon fill="midnightblue" stroke="midnightblue" points="937.55,-282.4 947.97,-280.45 938.61,-275.48 937.55,-282.4"/>
</g>
<!-- Node22&#45;&gt;Node13 -->
<g id="edge51" class="edge">
<title>Node22&#45;&gt;Node13</title>
<path fill="none" stroke="midnightblue" d="M929.13,-289.19C793.36,-288.41 526.15,-281.93 441.01,-244 376.38,-215.21 339.94,-181.72 352.01,-112 356.53,-85.96 355.26,-76.44 372.01,-56 385.88,-39.09 407.88,-26.97 424.47,-19.59"/>
<polygon fill="midnightblue" stroke="midnightblue" points="929.45,-292.69 939.47,-289.24 929.48,-285.69 929.45,-292.69"/>
</g>
<!-- Node22&#45;&gt;Node15 -->
<g id="edge52" class="edge">
<title>Node22&#45;&gt;Node15</title>
<path fill="none" stroke="midnightblue" d="M1091.03,-285.42C1157.2,-280.67 1252.46,-269.63 1332.01,-244 1350.18,-238.15 1351.73,-229.47 1370.01,-224 1449.47,-200.21 1791.34,-232.35 1739.01,-168 1670.32,-83.53 886.04,-28.34 666.07,-14.45"/>
<polygon fill="midnightblue" stroke="midnightblue" points="1090.4,-281.95 1080.66,-286.13 1090.88,-288.93 1090.4,-281.95"/>
</g>
<!-- Node22&#45;&gt;Node16 -->
<g id="edge54" class="edge">
<title>Node22&#45;&gt;Node16</title>
<path fill="none" stroke="midnightblue" d="M1008.58,-270.22C1005.67,-244.3 996.95,-197.42 971.01,-168 924.34,-115.06 844.02,-87.83 795.58,-75.56"/>
<polygon fill="midnightblue" stroke="midnightblue" points="1005.1,-270.61 1009.53,-280.23 1012.07,-269.95 1005.1,-270.61"/>
</g>
<!-- Node23 -->
<g id="node23" class="node">
<title>Node23</title>
<g id="a_node23"><a xlink:href="../../d4/db3/Button_8hpp.html" target="_top" xlink:title=" ">
<polygon fill="white" stroke="black" points="1057.01,-224.5 1057.01,-243.5 1127.01,-243.5 1127.01,-224.5 1057.01,-224.5"/>
<text text-anchor="middle" x="1092.01" y="-231.5" font-family="Helvetica,sans-Serif" font-size="10.00">Button.hpp</text>
</a>
</g>
</g>
<!-- Node22&#45;&gt;Node23 -->
<g id="edge29" class="edge">
<title>Node22&#45;&gt;Node23</title>
<path fill="none" stroke="midnightblue" d="M1031.85,-274.62C1046.83,-264.76 1066.21,-251.99 1078.87,-243.65"/>
<polygon fill="midnightblue" stroke="midnightblue" points="1029.62,-271.9 1023.19,-280.32 1033.47,-277.75 1029.62,-271.9"/>
</g>
<!-- Node29 -->
<g id="node29" class="node">
<title>Node29</title>
<g id="a_node29"><a xlink:href="../../d5/d41/ButtonMatrix_8ipp.html" target="_top" xlink:title=" ">
<polygon fill="white" stroke="black" points="1145.01,-224.5 1145.01,-243.5 1243.01,-243.5 1243.01,-224.5 1145.01,-224.5"/>
<text text-anchor="middle" x="1194.01" y="-231.5" font-family="Helvetica,sans-Serif" font-size="10.00">ButtonMatrix.ipp</text>
</a>
</g>
</g>
<!-- Node22&#45;&gt;Node29 -->
<g id="edge35" class="edge">
<title>Node22&#45;&gt;Node29</title>
<path fill="none" stroke="midnightblue" d="M1048.97,-277.57C1083.68,-267.38 1133.69,-252.7 1165,-243.52"/>
<polygon fill="midnightblue" stroke="midnightblue" points="1047.78,-274.27 1039.17,-280.44 1049.75,-280.99 1047.78,-274.27"/>
</g>
<!-- Node22&#45;&gt;Node31 -->
<g id="edge38" class="edge">
<title>Node22&#45;&gt;Node31</title>
<path fill="none" stroke="midnightblue" d="M928.98,-283.62C805.08,-275.36 561.11,-258.93 354.01,-244 337.17,-242.79 318.99,-241.43 302.04,-240.15"/>
<polygon fill="midnightblue" stroke="midnightblue" points="928.93,-287.13 939.14,-284.3 929.39,-280.14 928.93,-287.13"/>
</g>
<!-- Node22&#45;&gt;Node33 -->
<g id="edge42" class="edge">
<title>Node22&#45;&gt;Node33</title>
<path fill="none" stroke="midnightblue" d="M929.32,-286.32C785.79,-281.03 491.81,-267.64 392.01,-244 338.05,-231.22 278.67,-202.15 250.94,-187.62"/>
<polygon fill="midnightblue" stroke="midnightblue" points="929.27,-289.82 939.39,-286.69 929.53,-282.83 929.27,-289.82"/>
</g>
<!-- Node22&#45;&gt;Node34 -->
<g id="edge43" class="edge">
<title>Node22&#45;&gt;Node34</title>
<path fill="none" stroke="midnightblue" d="M1088.42,-279.19C1160.36,-270.15 1269.88,-256.32 1365.01,-244 1369.5,-243.42 1374.16,-242.81 1378.83,-242.2"/>
<polygon fill="midnightblue" stroke="midnightblue" points="1087.57,-275.77 1078.08,-280.48 1088.44,-282.71 1087.57,-275.77"/>
</g>
<!-- Node35 -->
<g id="node35" class="node">
<title>Node35</title>
<g id="a_node35"><a xlink:href="../../d9/d4f/LEDs_8hpp.html" target="_top" xlink:title=" ">
<polygon fill="white" stroke="black" points="1261.01,-224.5 1261.01,-243.5 1323.01,-243.5 1323.01,-224.5 1261.01,-224.5"/>
<text text-anchor="middle" x="1292.01" y="-231.5" font-family="Helvetica,sans-Serif" font-size="10.00">LEDs.hpp</text>
</a>
</g>
</g>
<!-- Node22&#45;&gt;Node35 -->
<g id="edge44" class="edge">
<title>Node22&#45;&gt;Node35</title>
<path fill="none" stroke="midnightblue" d="M1068.91,-278.69C1117.98,-269.94 1189.68,-256.8 1252.01,-244 1254.8,-243.43 1257.7,-242.81 1260.6,-242.19"/>
<polygon fill="midnightblue" stroke="midnightblue" points="1068.02,-275.29 1058.79,-280.48 1069.25,-282.18 1068.02,-275.29"/>
</g>
<!-- Node37 -->
<g id="node37" class="node">
<title>Node37</title>
<g id="a_node37"><a xlink:href="../../d7/d13/MAX7219__Base_8hpp.html" target="_top" xlink:title=" ">
<polygon fill="white" stroke="black" points="809.51,-224.5 809.51,-243.5 922.51,-243.5 922.51,-224.5 809.51,-224.5"/>
<text text-anchor="middle" x="866.01" y="-231.5" font-family="Helvetica,sans-Serif" font-size="10.00">MAX7219_Base.hpp</text>
</a>
</g>
</g>
<!-- Node22&#45;&gt;Node37 -->
<g id="edge46" class="edge">
<title>Node22&#45;&gt;Node37</title>
<path fill="none" stroke="midnightblue" d="M977.76,-276.91C950.69,-266.75 912.7,-252.51 888.73,-243.52"/>
<polygon fill="midnightblue" stroke="midnightblue" points="976.61,-280.21 987.2,-280.44 979.06,-273.66 976.61,-280.21"/>
</g>
<!-- Node39 -->
<g id="node39" class="node">
<title>Node39</title>
<g id="a_node39"><a xlink:href="../../d8/dd2/MCP23017Encoders_8hpp.html" target="_top" xlink:title=" ">
<polygon fill="white" stroke="black" points="1505.01,-224.5 1505.01,-243.5 1639.01,-243.5 1639.01,-224.5 1505.01,-224.5"/>
<text text-anchor="middle" x="1572.01" y="-231.5" font-family="Helvetica,sans-Serif" font-size="10.00">MCP23017Encoders.hpp</text>
</a>
</g>
</g>
<!-- Node22&#45;&gt;Node39 -->
<g id="edge50" class="edge">
<title>Node22&#45;&gt;Node39</title>
<path fill="none" stroke="midnightblue" d="M1090.88,-282.15C1187.38,-273.83 1353.59,-259.02 1496.01,-244 1498.92,-243.69 1501.89,-243.37 1504.89,-243.04"/>
<polygon fill="midnightblue" stroke="midnightblue" points="1090.56,-278.66 1080.9,-283.01 1091.16,-285.64 1090.56,-278.66"/>
</g>
<!-- Node24 -->
<g id="node24" class="node">
<title>Node24</title>
<g id="a_node24"><a xlink:href="../../de/dd1/Button_8cpp.html" target="_top" xlink:title=" ">
<polygon fill="white" stroke="black" points="1057.51,-168.5 1057.51,-187.5 1126.51,-187.5 1126.51,-168.5 1057.51,-168.5"/>
<text text-anchor="middle" x="1092.01" y="-175.5" font-family="Helvetica,sans-Serif" font-size="10.00">Button.cpp</text>
</a>
</g>
</g>
<!-- Node23&#45;&gt;Node24 -->
<g id="edge30" class="edge">
<title>Node23&#45;&gt;Node24</title>
<path fill="none" stroke="midnightblue" d="M1092.01,-213.8C1092.01,-204.91 1092.01,-194.78 1092.01,-187.75"/>
<polygon fill="midnightblue" stroke="midnightblue" points="1088.51,-214.08 1092.01,-224.08 1095.51,-214.08 1088.51,-214.08"/>
</g>
<!-- Node25 -->
<g id="node25" class="node">
<title>Node25</title>
<g id="a_node25"><a xlink:href="../../d5/d04/IncrementButton_8hpp.html" target="_top" xlink:title=" ">
<polygon fill="white" stroke="black" points="1341.51,-168.5 1341.51,-187.5 1460.51,-187.5 1460.51,-168.5 1341.51,-168.5"/>
<text text-anchor="middle" x="1401.01" y="-175.5" font-family="Helvetica,sans-Serif" font-size="10.00">IncrementButton.hpp</text>
</a>
</g>
</g>
<!-- Node23&#45;&gt;Node25 -->
<g id="edge31" class="edge">
<title>Node23&#45;&gt;Node25</title>
<path fill="none" stroke="midnightblue" d="M1137.17,-223.83C1216.09,-209.16 1296.24,-195.85 1347.63,-187.53"/>
<polygon fill="midnightblue" stroke="midnightblue" points="1136.25,-220.44 1127.06,-225.72 1137.53,-227.33 1136.25,-220.44"/>
</g>
<!-- Node27 -->
<g id="node27" class="node">
<title>Node27</title>
<g id="a_node27"><a xlink:href="../../df/df5/IncrementDecrementButtons_8hpp.html" target="_top" xlink:title=" ">
<polygon fill="white" stroke="black" points="1144.51,-168.5 1144.51,-187.5 1323.51,-187.5 1323.51,-168.5 1144.51,-168.5"/>
<text text-anchor="middle" x="1234.01" y="-175.5" font-family="Helvetica,sans-Serif" font-size="10.00">IncrementDecrementButtons.hpp</text>
</a>
</g>
</g>
<!-- Node23&#45;&gt;Node27 -->
<g id="edge33" class="edge">
<title>Node23&#45;&gt;Node27</title>
<path fill="none" stroke="midnightblue" d="M1124.17,-220.77C1150.84,-210.63 1188.08,-196.47 1211.62,-187.52"/>
<polygon fill="midnightblue" stroke="midnightblue" points="1122.62,-217.62 1114.52,-224.44 1125.11,-224.16 1122.62,-217.62"/>
</g>
<!-- Node26 -->
<g id="node26" class="node">
<title>Node26</title>
<g id="a_node26"><a xlink:href="../../db/d9d/IncrementButton_8cpp.html" target="_top" xlink:title=" ">
<polygon fill="white" stroke="black" points="1341.51,-112.5 1341.51,-131.5 1460.51,-131.5 1460.51,-112.5 1341.51,-112.5"/>
<text text-anchor="middle" x="1401.01" y="-119.5" font-family="Helvetica,sans-Serif" font-size="10.00">IncrementButton.cpp</text>
</a>
</g>
</g>
<!-- Node25&#45;&gt;Node26 -->
<g id="edge32" class="edge">
<title>Node25&#45;&gt;Node26</title>
<path fill="none" stroke="midnightblue" d="M1401.01,-157.8C1401.01,-148.91 1401.01,-138.78 1401.01,-131.75"/>
<polygon fill="midnightblue" stroke="midnightblue" points="1397.51,-158.08 1401.01,-168.08 1404.51,-158.08 1397.51,-158.08"/>
</g>
<!-- Node28 -->
<g id="node28" class="node">
<title>Node28</title>
<g id="a_node28"><a xlink:href="../../da/d66/IncrementDecrementButtons_8cpp.html" target="_top" xlink:title=" ">
<polygon fill="white" stroke="black" points="1145.01,-112.5 1145.01,-131.5 1323.01,-131.5 1323.01,-112.5 1145.01,-112.5"/>
<text text-anchor="middle" x="1234.01" y="-119.5" font-family="Helvetica,sans-Serif" font-size="10.00">IncrementDecrementButtons.cpp</text>
</a>
</g>
</g>
<!-- Node27&#45;&gt;Node28 -->
<g id="edge34" class="edge">
<title>Node27&#45;&gt;Node28</title>
<path fill="none" stroke="midnightblue" d="M1234.01,-157.8C1234.01,-148.91 1234.01,-138.78 1234.01,-131.75"/>
<polygon fill="midnightblue" stroke="midnightblue" points="1230.51,-158.08 1234.01,-168.08 1237.51,-158.08 1230.51,-158.08"/>
</g>
<!-- Node29&#45;&gt;Node30 -->
<g id="edge36" class="edge">
<title>Node29&#45;&gt;Node30</title>
<path fill="none" stroke="midnightblue" d="M1251.93,-222.79C1315.83,-212.18 1417.51,-195.82 1478.36,-186.39"/>
<polygon fill="midnightblue" stroke="midnightblue" points="1251.3,-219.35 1242.01,-224.44 1252.45,-226.25 1251.3,-219.35"/>
</g>
<!-- Node30&#45;&gt;Node29 -->
<g id="edge37" class="edge">
<title>Node30&#45;&gt;Node29</title>
<path fill="none" stroke="midnightblue" d="M1471.14,-189.2C1406.75,-199.9 1303.96,-216.43 1243.26,-225.83"/>
<polygon fill="midnightblue" stroke="midnightblue" points="1471.85,-192.63 1481.14,-187.54 1470.7,-185.73 1471.85,-192.63"/>
</g>
<!-- Node31&#45;&gt;Node7 -->
<g id="edge41" class="edge">
<title>Node31&#45;&gt;Node7</title>
<path fill="none" stroke="midnightblue" d="M285.33,-222.35C333.52,-212.14 405.3,-196.94 449.8,-187.52"/>
<polygon fill="midnightblue" stroke="midnightblue" points="284.48,-218.95 275.42,-224.44 285.93,-225.8 284.48,-218.95"/>
</g>
<!-- Node31&#45;&gt;Node32 -->
<g id="edge39" class="edge">
<title>Node31&#45;&gt;Node32</title>
<path fill="none" stroke="midnightblue" d="M200.68,-221.04C171.52,-210.88 130.38,-196.55 104.46,-187.52"/>
<polygon fill="midnightblue" stroke="midnightblue" points="199.86,-224.46 210.45,-224.44 202.16,-217.85 199.86,-224.46"/>
</g>
<!-- Node31&#45;&gt;Node33 -->
<g id="edge40" class="edge">
<title>Node31&#45;&gt;Node33</title>
<path fill="none" stroke="midnightblue" d="M235.01,-213.8C235.01,-204.91 235.01,-194.78 235.01,-187.75"/>
<polygon fill="midnightblue" stroke="midnightblue" points="231.51,-214.08 235.01,-224.08 238.51,-214.08 231.51,-214.08"/>
</g>
<!-- Node36 -->
<g id="node36" class="node">
<title>Node36</title>
<g id="a_node36"><a xlink:href="../../d6/d3a/DotBarDisplayLEDs_8hpp.html" target="_top" xlink:title=" ">
<polygon fill="white" stroke="black" points="1598.01,-168.5 1598.01,-187.5 1730.01,-187.5 1730.01,-168.5 1598.01,-168.5"/>
<text text-anchor="middle" x="1664.01" y="-175.5" font-family="Helvetica,sans-Serif" font-size="10.00">DotBarDisplayLEDs.hpp</text>
</a>
</g>
</g>
<!-- Node35&#45;&gt;Node36 -->
<g id="edge45" class="edge">
<title>Node35&#45;&gt;Node36</title>
<path fill="none" stroke="midnightblue" d="M1333.68,-224.58C1334.8,-224.38 1335.91,-224.19 1337.01,-224 1427,-208.82 1531.57,-195.12 1597.76,-186.92"/>
<polygon fill="midnightblue" stroke="midnightblue" points="1332.64,-221.21 1323.44,-226.46 1333.91,-228.09 1332.64,-221.21"/>
</g>
<!-- Node37&#45;&gt;Node8 -->
<g id="edge47" class="edge">
<title>Node37&#45;&gt;Node8</title>
<path fill="none" stroke="midnightblue" d="M815.08,-221.31C795.52,-214.51 774.45,-204 760.01,-188 745.46,-171.87 741.5,-145.35 740.42,-131.7"/>
<polygon fill="midnightblue" stroke="midnightblue" points="814.23,-224.71 824.83,-224.44 816.38,-218.05 814.23,-224.71"/>
</g>
<!-- Node38 -->
<g id="node38" class="node">
<title>Node38</title>
<g id="a_node38"><a xlink:href="../../d5/d0c/MAX7219SevenSegmentDisplay_8hpp.html" target="_top" xlink:title=" ">
<polygon fill="white" stroke="black" points="769.51,-168.5 769.51,-187.5 962.51,-187.5 962.51,-168.5 769.51,-168.5"/>
<text text-anchor="middle" x="866.01" y="-175.5" font-family="Helvetica,sans-Serif" font-size="10.00">MAX7219SevenSegmentDisplay.hpp</text>
</a>
</g>
</g>
<!-- Node37&#45;&gt;Node38 -->
<g id="edge48" class="edge">
<title>Node37&#45;&gt;Node38</title>
<path fill="none" stroke="midnightblue" d="M866.01,-213.8C866.01,-204.91 866.01,-194.78 866.01,-187.75"/>
<polygon fill="midnightblue" stroke="midnightblue" points="862.51,-214.08 866.01,-224.08 869.51,-214.08 862.51,-214.08"/>
</g>
<!-- Node41&#45;&gt;Node39 -->
<g id="edge60" class="edge">
<title>Node41&#45;&gt;Node39</title>
<path fill="none" stroke="midnightblue" d="M1397.53,-278.02C1438.9,-267.82 1499.66,-252.84 1537.48,-243.52"/>
<polygon fill="midnightblue" stroke="midnightblue" points="1396.59,-274.65 1387.72,-280.44 1398.26,-281.45 1396.59,-274.65"/>
</g>
<!-- Node43&#45;&gt;Node17 -->
<g id="edge63" class="edge">
<title>Node43&#45;&gt;Node17</title>
<path fill="none" stroke="midnightblue" d="M1515.78,-386.62C1530.03,-376.76 1548.47,-363.99 1560.51,-355.65"/>
<polygon fill="midnightblue" stroke="midnightblue" points="1513.78,-383.75 1507.55,-392.32 1517.76,-389.51 1513.78,-383.75"/>
</g>
<!-- Node43&#45;&gt;Node40 -->
<g id="edge64" class="edge">
<title>Node43&#45;&gt;Node40</title>
<path fill="none" stroke="midnightblue" d="M1488.23,-382.69C1484.86,-373.59 1480.95,-363.01 1478.26,-355.75"/>
<polygon fill="midnightblue" stroke="midnightblue" points="1484.96,-383.92 1491.71,-392.08 1491.52,-381.49 1484.96,-383.92"/>
</g>
<!-- Node44&#45;&gt;Node8 -->
<g id="edge66" class="edge">
<title>Node44&#45;&gt;Node8</title>
<path fill="none" stroke="midnightblue" d="M693.29,-161.82C704.93,-152.15 719.61,-139.95 729.38,-131.83"/>
<polygon fill="midnightblue" stroke="midnightblue" points="690.91,-159.24 685.46,-168.32 695.39,-164.63 690.91,-159.24"/>
</g>
<!-- Node44&#45;&gt;Node9 -->
<g id="edge67" class="edge">
<title>Node44&#45;&gt;Node9</title>
<path fill="none" stroke="midnightblue" d="M723.31,-169.99C795.89,-159.45 932.05,-139.69 1002.41,-129.48"/>
<polygon fill="midnightblue" stroke="midnightblue" points="722.47,-166.57 713.08,-171.47 723.48,-173.5 722.47,-166.57"/>
</g>
<!-- Node44&#45;&gt;Node11 -->
<g id="edge68" class="edge">
<title>Node44&#45;&gt;Node11</title>
<path fill="none" stroke="midnightblue" d="M656.46,-161.82C644.64,-152.15 629.73,-139.95 619.81,-131.83"/>
<polygon fill="midnightblue" stroke="midnightblue" points="654.45,-164.7 664.41,-168.32 658.89,-159.28 654.45,-164.7"/>
</g>
<!-- Node47&#45;&gt;Node31 -->
<g id="edge74" class="edge">
<title>Node47&#45;&gt;Node31</title>
<path fill="none" stroke="midnightblue" d="M227.86,-270.1C229.69,-261.14 231.78,-250.86 233.23,-243.75"/>
<polygon fill="midnightblue" stroke="midnightblue" points="224.4,-269.59 225.83,-280.08 231.26,-270.98 224.4,-269.59"/>
</g>
</g>
</svg>
