<?xml version="1.0" encoding="UTF-8" standalone="no"?>
<!DOCTYPE svg PUBLIC "-//W3C//DTD SVG 1.1//EN"
 "http://www.w3.org/Graphics/SVG/1.1/DTD/svg11.dtd">
<!-- Generated by graphviz version 2.38.0 (20140413.2041)
 -->
<!-- Title: Error.hpp Pages: 1 -->
<svg width="1419pt" height="420pt"
 viewBox="0.00 0.00 1418.50 420.00" xmlns="http://www.w3.org/2000/svg" xmlns:xlink="http://www.w3.org/1999/xlink">
<g id="graph0" class="graph" transform="scale(1 1) rotate(0) translate(4 416)">
<title>Error.hpp</title>
<polygon fill="white" stroke="none" points="-4,4 -4,-416 1414.5,-416 1414.5,4 -4,4"/>
<!-- Node1 -->
<g id="node1" class="node"><title>Node1</title>
<g id="a_node1"><a xlink:title=" ">
<polygon fill="#bfbfbf" stroke="black" points="956.5,-392.5 956.5,-411.5 1012.5,-411.5 1012.5,-392.5 956.5,-392.5"/>
<text text-anchor="middle" x="984.5" y="-399.5" font-family="Helvetica,sans-Serif" font-size="10.00">Error.hpp</text>
</a>
</g>
</g>
<!-- Node2 -->
<g id="node2" class="node"><title>Node2</title>
<g id="a_node2"><a xlink:href="../../de/d76/Array_8hpp.html" target="_top" xlink:title=" ">
<polygon fill="white" stroke="black" points="412,-336.5 412,-355.5 471,-355.5 471,-336.5 412,-336.5"/>
<text text-anchor="middle" x="441.5" y="-343.5" font-family="Helvetica,sans-Serif" font-size="10.00">Array.hpp</text>
</a>
</g>
</g>
<!-- Node1&#45;&gt;Node2 -->
<g id="edge1" class="edge"><title>Node1&#45;&gt;Node2</title>
<path fill="none" stroke="midnightblue" d="M946.218,-397.193C843.407,-386.969 562.858,-359.069 471.028,-349.937"/>
<polygon fill="midnightblue" stroke="midnightblue" points="946.152,-400.704 956.449,-398.21 946.845,-393.738 946.152,-400.704"/>
</g>
<!-- Node24 -->
<g id="node24" class="node"><title>Node24</title>
<g id="a_node24"><a xlink:href="../../d6/d3c/ExtendedInputOutput_8cpp.html" target="_top" xlink:title=" ">
<polygon fill="white" stroke="black" points="1058.5,-112.5 1058.5,-131.5 1186.5,-131.5 1186.5,-112.5 1058.5,-112.5"/>
<text text-anchor="middle" x="1122.5" y="-119.5" font-family="Helvetica,sans-Serif" font-size="10.00">ExtendedInputOutput.cpp</text>
</a>
</g>
</g>
<!-- Node1&#45;&gt;Node24 -->
<g id="edge55" class="edge"><title>Node1&#45;&gt;Node24</title>
<path fill="none" stroke="midnightblue" d="M993.026,-383.281C1002.51,-361.915 1016.5,-324.671 1016.5,-291 1016.5,-291 1016.5,-291 1016.5,-233 1016.5,-183.14 1073.67,-147.188 1104.04,-131.607"/>
<polygon fill="midnightblue" stroke="midnightblue" points="989.826,-381.862 988.816,-392.408 996.182,-384.793 989.826,-381.862"/>
</g>
<!-- Node30 -->
<g id="node30" class="node"><title>Node30</title>
<g id="a_node30"><a xlink:href="../../da/d1f/ExtendedIOElement_8cpp.html" target="_top" xlink:title=" ">
<polygon fill="white" stroke="black" points="865,-168.5 865,-187.5 988,-187.5 988,-168.5 865,-168.5"/>
<text text-anchor="middle" x="926.5" y="-175.5" font-family="Helvetica,sans-Serif" font-size="10.00">ExtendedIOElement.cpp</text>
</a>
</g>
</g>
<!-- Node1&#45;&gt;Node30 -->
<g id="edge56" class="edge"><title>Node1&#45;&gt;Node30</title>
<path fill="none" stroke="midnightblue" d="M979.689,-382.585C967.815,-337.135 937.453,-220.924 928.821,-187.884"/>
<polygon fill="midnightblue" stroke="midnightblue" points="976.312,-383.507 982.226,-392.297 983.085,-381.737 976.312,-383.507"/>
</g>
<!-- Node36 -->
<g id="node36" class="node"><title>Node36</title>
<g id="a_node36"><a xlink:href="../../d1/d40/BitArray_8hpp.html" target="_top" xlink:title=" ">
<polygon fill="white" stroke="black" points="102,-168.5 102,-187.5 173,-187.5 173,-168.5 102,-168.5"/>
<text text-anchor="middle" x="137.5" y="-175.5" font-family="Helvetica,sans-Serif" font-size="10.00">BitArray.hpp</text>
</a>
</g>
</g>
<!-- Node1&#45;&gt;Node36 -->
<g id="edge49" class="edge"><title>Node1&#45;&gt;Node36</title>
<path fill="none" stroke="midnightblue" d="M946.175,-401.164C852.429,-400.89 604.458,-396.091 402.5,-356 323.645,-340.346 296.158,-346.393 230.5,-300 186.141,-268.657 153.19,-209.92 141.821,-187.762"/>
<polygon fill="midnightblue" stroke="midnightblue" points="946.31,-404.664 956.315,-401.177 946.32,-397.664 946.31,-404.664"/>
</g>
<!-- Node37 -->
<g id="node37" class="node"><title>Node37</title>
<g id="a_node37"><a xlink:href="../../d4/d93/Updatable_8hpp.html" target="_top" xlink:title=" ">
<polygon fill="white" stroke="black" points="1044.5,-336.5 1044.5,-355.5 1124.5,-355.5 1124.5,-336.5 1044.5,-336.5"/>
<text text-anchor="middle" x="1084.5" y="-343.5" font-family="Helvetica,sans-Serif" font-size="10.00">Updatable.hpp</text>
</a>
</g>
</g>
<!-- Node1&#45;&gt;Node37 -->
<g id="edge53" class="edge"><title>Node1&#45;&gt;Node37</title>
<path fill="none" stroke="midnightblue" d="M1009.59,-387.453C1028.05,-377.483 1052.6,-364.228 1068.47,-355.655"/>
<polygon fill="midnightblue" stroke="midnightblue" points="1007.7,-384.493 1000.57,-392.324 1011.03,-390.652 1007.7,-384.493"/>
</g>
<!-- Node38 -->
<g id="node38" class="node"><title>Node38</title>
<g id="a_node38"><a xlink:href="../../d6/df4/Exit_8cpp.html" target="_top" xlink:title=" ">
<polygon fill="white" stroke="black" points="1143,-336.5 1143,-355.5 1196,-355.5 1196,-336.5 1143,-336.5"/>
<text text-anchor="middle" x="1169.5" y="-343.5" font-family="Helvetica,sans-Serif" font-size="10.00">Exit.cpp</text>
</a>
</g>
</g>
<!-- Node1&#45;&gt;Node38 -->
<g id="edge54" class="edge"><title>Node1&#45;&gt;Node38</title>
<path fill="none" stroke="midnightblue" d="M1022.24,-389.984C1058.16,-379.501 1111.28,-363.993 1142.94,-354.752"/>
<polygon fill="midnightblue" stroke="midnightblue" points="1021.22,-386.637 1012.6,-392.799 1023.18,-393.356 1021.22,-386.637"/>
</g>
<!-- Node3 -->
<g id="node3" class="node"><title>Node3</title>
<g id="a_node3"><a xlink:href="../../d5/db6/ArrayHelpers_8hpp.html" target="_top" xlink:title=" ">
<polygon fill="white" stroke="black" points="350.5,-224.5 350.5,-243.5 442.5,-243.5 442.5,-224.5 350.5,-224.5"/>
<text text-anchor="middle" x="396.5" y="-231.5" font-family="Helvetica,sans-Serif" font-size="10.00">ArrayHelpers.hpp</text>
</a>
</g>
</g>
<!-- Node2&#45;&gt;Node3 -->
<g id="edge2" class="edge"><title>Node2&#45;&gt;Node3</title>
<path fill="none" stroke="midnightblue" d="M419.787,-330.066C410.444,-322.308 400.526,-311.947 395.5,-300 387.623,-281.274 391.317,-256.747 394.205,-243.834"/>
<polygon fill="midnightblue" stroke="midnightblue" points="417.66,-332.845 427.713,-336.189 421.939,-327.306 417.66,-332.845"/>
</g>
<!-- Node5 -->
<g id="node5" class="node"><title>Node5</title>
<g id="a_node5"><a xlink:href="../../d7/def/AnalogMultiplex_8hpp.html" target="_top" xlink:title=" ">
<polygon fill="white" stroke="black" points="278.5,-112.5 278.5,-131.5 382.5,-131.5 382.5,-112.5 278.5,-112.5"/>
<text text-anchor="middle" x="330.5" y="-119.5" font-family="Helvetica,sans-Serif" font-size="10.00">AnalogMultiplex.hpp</text>
</a>
</g>
</g>
<!-- Node2&#45;&gt;Node5 -->
<g id="edge15" class="edge"><title>Node2&#45;&gt;Node5</title>
<path fill="none" stroke="midnightblue" d="M401.725,-345.406C359.72,-343.797 293.715,-335.215 250.5,-300 229.228,-282.666 231.368,-270.567 224.5,-244 216.034,-211.252 201.647,-196.083 220.5,-168 233.553,-148.556 256.655,-137.508 278.328,-131.233"/>
<polygon fill="midnightblue" stroke="midnightblue" points="401.769,-348.908 411.859,-345.677 401.956,-341.911 401.769,-348.908"/>
</g>
<!-- Node13 -->
<g id="node13" class="node"><title>Node13</title>
<g id="a_node13"><a xlink:href="../../d4/d35/Hardware-Types_8hpp.html" target="_top" xlink:title=" ">
<polygon fill="white" stroke="black" points="586,-280.5 586,-299.5 693,-299.5 693,-280.5 586,-280.5"/>
<text text-anchor="middle" x="639.5" y="-287.5" font-family="Helvetica,sans-Serif" font-size="10.00">Hardware&#45;Types.hpp</text>
</a>
</g>
</g>
<!-- Node2&#45;&gt;Node13 -->
<g id="edge16" class="edge"><title>Node2&#45;&gt;Node13</title>
<path fill="none" stroke="midnightblue" d="M481.164,-334.183C518.483,-324.005 573.628,-308.965 608.016,-299.587"/>
<polygon fill="midnightblue" stroke="midnightblue" points="479.869,-330.908 471.143,-336.916 481.711,-337.661 479.869,-330.908"/>
</g>
<!-- Node31 -->
<g id="node31" class="node"><title>Node31</title>
<g id="a_node31"><a xlink:href="../../d1/dde/BiQuad_8hpp.html" target="_top" xlink:title=" ">
<polygon fill="white" stroke="black" points="259.5,-280.5 259.5,-299.5 327.5,-299.5 327.5,-280.5 259.5,-280.5"/>
<text text-anchor="middle" x="293.5" y="-287.5" font-family="Helvetica,sans-Serif" font-size="10.00">BiQuad.hpp</text>
</a>
</g>
</g>
<!-- Node2&#45;&gt;Node31 -->
<g id="edge44" class="edge"><title>Node2&#45;&gt;Node31</title>
<path fill="none" stroke="midnightblue" d="M408.353,-332.906C380.528,-322.754 341.48,-308.506 316.841,-299.516"/>
<polygon fill="midnightblue" stroke="midnightblue" points="407.455,-336.304 418.049,-336.444 409.854,-329.728 407.455,-336.304"/>
</g>
<!-- Node34 -->
<g id="node34" class="node"><title>Node34</title>
<g id="a_node34"><a xlink:href="../../d2/d3b/FIRFilter_8hpp.html" target="_top" xlink:title=" ">
<polygon fill="white" stroke="black" points="404.5,-280.5 404.5,-299.5 478.5,-299.5 478.5,-280.5 404.5,-280.5"/>
<text text-anchor="middle" x="441.5" y="-287.5" font-family="Helvetica,sans-Serif" font-size="10.00">FIRFilter.hpp</text>
</a>
</g>
</g>
<!-- Node2&#45;&gt;Node34 -->
<g id="edge47" class="edge"><title>Node2&#45;&gt;Node34</title>
<path fill="none" stroke="midnightblue" d="M441.5,-325.805C441.5,-316.91 441.5,-306.78 441.5,-299.751"/>
<polygon fill="midnightblue" stroke="midnightblue" points="438,-326.083 441.5,-336.083 445,-326.083 438,-326.083"/>
</g>
<!-- Node35 -->
<g id="node35" class="node"><title>Node35</title>
<g id="a_node35"><a xlink:href="../../dc/d64/IIRFilter_8hpp.html" target="_top" xlink:title=" ">
<polygon fill="white" stroke="black" points="497,-280.5 497,-299.5 568,-299.5 568,-280.5 497,-280.5"/>
<text text-anchor="middle" x="532.5" y="-287.5" font-family="Helvetica,sans-Serif" font-size="10.00">IIRFilter.hpp</text>
</a>
</g>
</g>
<!-- Node2&#45;&gt;Node35 -->
<g id="edge48" class="edge"><title>Node2&#45;&gt;Node35</title>
<path fill="none" stroke="midnightblue" d="M464.794,-331.177C481.539,-321.241 503.6,-308.149 517.916,-299.655"/>
<polygon fill="midnightblue" stroke="midnightblue" points="462.934,-328.211 456.121,-336.324 466.507,-334.231 462.934,-328.211"/>
</g>
<!-- Node4 -->
<g id="node4" class="node"><title>Node4</title>
<g id="a_node4"><a xlink:href="../../d2/d05/StaticSizeExtendedIOElement_8hpp.html" target="_top" xlink:title=" ">
<polygon fill="white" stroke="black" points="333.5,-168.5 333.5,-187.5 501.5,-187.5 501.5,-168.5 333.5,-168.5"/>
<text text-anchor="middle" x="417.5" y="-175.5" font-family="Helvetica,sans-Serif" font-size="10.00">StaticSizeExtendedIOElement.hpp</text>
</a>
</g>
</g>
<!-- Node3&#45;&gt;Node4 -->
<g id="edge3" class="edge"><title>Node3&#45;&gt;Node4</title>
<path fill="none" stroke="midnightblue" d="M403.621,-214.69C407.16,-205.589 411.272,-195.014 414.097,-187.751"/>
<polygon fill="midnightblue" stroke="midnightblue" points="400.33,-213.494 399.968,-224.083 406.854,-216.032 400.33,-213.494"/>
</g>
<!-- Node4&#45;&gt;Node5 -->
<g id="edge4" class="edge"><title>Node4&#45;&gt;Node5</title>
<path fill="none" stroke="midnightblue" d="M394.784,-162.901C378.831,-152.999 358.003,-140.071 344.443,-131.655"/>
<polygon fill="midnightblue" stroke="midnightblue" points="393.18,-166.024 403.522,-168.324 396.871,-160.077 393.18,-166.024"/>
</g>
<!-- Node6 -->
<g id="node6" class="node"><title>Node6</title>
<g id="a_node6"><a xlink:href="../../d2/d25/MAX7219_8hpp.html" target="_top" xlink:title=" ">
<polygon fill="white" stroke="black" points="415.5,-56.5 415.5,-75.5 493.5,-75.5 493.5,-56.5 415.5,-56.5"/>
<text text-anchor="middle" x="454.5" y="-63.5" font-family="Helvetica,sans-Serif" font-size="10.00">MAX7219.hpp</text>
</a>
</g>
</g>
<!-- Node4&#45;&gt;Node6 -->
<g id="edge5" class="edge"><title>Node4&#45;&gt;Node6</title>
<path fill="none" stroke="midnightblue" d="M419.342,-158.148C421.024,-144.941 424.1,-127.035 429.5,-112 434.334,-98.5423 442.891,-84.3286 448.629,-75.5608"/>
<polygon fill="midnightblue" stroke="midnightblue" points="415.833,-158.028 418.199,-168.355 422.79,-158.807 415.833,-158.028"/>
</g>
<!-- Node7 -->
<g id="node7" class="node"><title>Node7</title>
<g id="a_node7"><a xlink:href="../../d8/d93/ShiftRegisterOutBase_8hpp.html" target="_top" xlink:title=" ">
<polygon fill="white" stroke="black" points="91,-112.5 91,-131.5 222,-131.5 222,-112.5 91,-112.5"/>
<text text-anchor="middle" x="156.5" y="-119.5" font-family="Helvetica,sans-Serif" font-size="10.00">ShiftRegisterOutBase.hpp</text>
</a>
</g>
</g>
<!-- Node4&#45;&gt;Node7 -->
<g id="edge6" class="edge"><title>Node4&#45;&gt;Node7</title>
<path fill="none" stroke="midnightblue" d="M366.313,-166.41C316.987,-156.204 243.305,-140.96 197.663,-131.516"/>
<polygon fill="midnightblue" stroke="midnightblue" points="365.642,-169.845 376.144,-168.444 367.06,-162.99 365.642,-169.845"/>
</g>
<!-- Node8 -->
<g id="node8" class="node"><title>Node8</title>
<g id="a_node8"><a xlink:href="../../d0/db4/ShiftRegisterOut_8hpp.html" target="_top" xlink:title=" ">
<polygon fill="white" stroke="black" points="143.5,-56.5 143.5,-75.5 251.5,-75.5 251.5,-56.5 143.5,-56.5"/>
<text text-anchor="middle" x="197.5" y="-63.5" font-family="Helvetica,sans-Serif" font-size="10.00">ShiftRegisterOut.hpp</text>
</a>
</g>
</g>
<!-- Node7&#45;&gt;Node8 -->
<g id="edge7" class="edge"><title>Node7&#45;&gt;Node8</title>
<path fill="none" stroke="midnightblue" d="M169.517,-103.855C176.617,-94.5048 185.104,-83.3265 190.856,-75.7511"/>
<polygon fill="midnightblue" stroke="midnightblue" points="166.53,-102.002 163.27,-112.083 172.105,-106.235 166.53,-102.002"/>
</g>
<!-- Node10 -->
<g id="node10" class="node"><title>Node10</title>
<g id="a_node10"><a xlink:href="../../d5/d47/ShiftRegisterOutBase_8ipp.html" target="_top" xlink:title=" ">
<polygon fill="white" stroke="black" points="269.5,-56.5 269.5,-75.5 397.5,-75.5 397.5,-56.5 269.5,-56.5"/>
<text text-anchor="middle" x="333.5" y="-63.5" font-family="Helvetica,sans-Serif" font-size="10.00">ShiftRegisterOutBase.ipp</text>
</a>
</g>
</g>
<!-- Node7&#45;&gt;Node10 -->
<g id="edge10" class="edge"><title>Node7&#45;&gt;Node10</title>
<path fill="none" stroke="midnightblue" d="M189.16,-109.304C220.902,-99.1294 268.644,-84.6246 300.505,-75.5164"/>
<polygon fill="midnightblue" stroke="midnightblue" points="187.895,-106.035 179.457,-112.444 190.049,-112.695 187.895,-106.035"/>
</g>
<!-- Node11 -->
<g id="node11" class="node"><title>Node11</title>
<g id="a_node11"><a xlink:href="../../d7/d88/SPIShiftRegisterOut_8hpp.html" target="_top" xlink:title=" ">
<polygon fill="white" stroke="black" points="0,-56.5 0,-75.5 125,-75.5 125,-56.5 0,-56.5"/>
<text text-anchor="middle" x="62.5" y="-63.5" font-family="Helvetica,sans-Serif" font-size="10.00">SPIShiftRegisterOut.hpp</text>
</a>
</g>
</g>
<!-- Node7&#45;&gt;Node11 -->
<g id="edge12" class="edge"><title>Node7&#45;&gt;Node11</title>
<path fill="none" stroke="midnightblue" d="M132.438,-107.177C115.141,-97.2407 92.3523,-84.1492 77.5652,-75.6545"/>
<polygon fill="midnightblue" stroke="midnightblue" points="130.983,-110.378 141.397,-112.324 134.47,-104.308 130.983,-110.378"/>
</g>
<!-- Node9 -->
<g id="node9" class="node"><title>Node9</title>
<g id="a_node9"><a xlink:href="../../de/d95/ShiftRegisterOut_8ipp.html" target="_top" xlink:title=" ">
<polygon fill="white" stroke="black" points="145,-0.5 145,-19.5 250,-19.5 250,-0.5 145,-0.5"/>
<text text-anchor="middle" x="197.5" y="-7.5" font-family="Helvetica,sans-Serif" font-size="10.00">ShiftRegisterOut.ipp</text>
</a>
</g>
</g>
<!-- Node8&#45;&gt;Node9 -->
<g id="edge8" class="edge"><title>Node8&#45;&gt;Node9</title>
<path fill="none" stroke="midnightblue" d="M191.028,-46.1005C190.396,-37.1357 190.843,-26.8579 192.369,-19.7511"/>
<polygon fill="midnightblue" stroke="midnightblue" points="187.566,-46.6216 192.334,-56.083 194.507,-45.7134 187.566,-46.6216"/>
</g>
<!-- Node9&#45;&gt;Node8 -->
<g id="edge9" class="edge"><title>Node9&#45;&gt;Node8</title>
<path fill="none" stroke="midnightblue" d="M203.958,-29.6911C204.606,-38.6353 204.176,-48.9272 202.666,-56.083"/>
<polygon fill="midnightblue" stroke="midnightblue" points="207.423,-29.2002 202.631,-19.7511 200.485,-30.1262 207.423,-29.2002"/>
</g>
<!-- Node10&#45;&gt;Node7 -->
<g id="edge11" class="edge"><title>Node10&#45;&gt;Node7</title>
<path fill="none" stroke="midnightblue" d="M300.979,-78.6509C269.284,-88.8133 221.542,-103.32 189.635,-112.444"/>
<polygon fill="midnightblue" stroke="midnightblue" points="302.228,-81.9253 310.665,-75.5164 300.073,-75.2654 302.228,-81.9253"/>
</g>
<!-- Node12 -->
<g id="node12" class="node"><title>Node12</title>
<g id="a_node12"><a xlink:href="../../da/d45/SPIShiftRegisterOut_8ipp.html" target="_top" xlink:title=" ">
<polygon fill="white" stroke="black" points="1.5,-0.5 1.5,-19.5 123.5,-19.5 123.5,-0.5 1.5,-0.5"/>
<text text-anchor="middle" x="62.5" y="-7.5" font-family="Helvetica,sans-Serif" font-size="10.00">SPIShiftRegisterOut.ipp</text>
</a>
</g>
</g>
<!-- Node11&#45;&gt;Node12 -->
<g id="edge13" class="edge"><title>Node11&#45;&gt;Node12</title>
<path fill="none" stroke="midnightblue" d="M56.0276,-46.1005C55.3956,-37.1357 55.8427,-26.8579 57.369,-19.7511"/>
<polygon fill="midnightblue" stroke="midnightblue" points="52.5658,-46.6216 57.3337,-56.083 59.5067,-45.7134 52.5658,-46.6216"/>
</g>
<!-- Node12&#45;&gt;Node11 -->
<g id="edge14" class="edge"><title>Node12&#45;&gt;Node11</title>
<path fill="none" stroke="midnightblue" d="M68.9575,-29.6911C69.6062,-38.6353 69.1758,-48.9272 67.6663,-56.083"/>
<polygon fill="midnightblue" stroke="midnightblue" points="72.4231,-29.2002 67.631,-19.7511 65.4846,-30.1262 72.4231,-29.2002"/>
</g>
<!-- Node14 -->
<g id="node14" class="node"><title>Node14</title>
<g id="a_node14"><a xlink:href="../../d9/d4b/ButtonMatrix_8hpp.html" target="_top" xlink:title=" ">
<polygon fill="white" stroke="black" points="520,-168.5 520,-187.5 611,-187.5 611,-168.5 520,-168.5"/>
<text text-anchor="middle" x="565.5" y="-175.5" font-family="Helvetica,sans-Serif" font-size="10.00">ButtonMatrix.hpp</text>
</a>
</g>
</g>
<!-- Node13&#45;&gt;Node14 -->
<g id="edge17" class="edge"><title>Node13&#45;&gt;Node14</title>
<path fill="none" stroke="midnightblue" d="M628.035,-271.957C611.998,-248.118 583.468,-205.709 571.28,-187.591"/>
<polygon fill="midnightblue" stroke="midnightblue" points="625.208,-274.025 633.693,-280.368 631.016,-270.118 625.208,-274.025"/>
</g>
<!-- Node16 -->
<g id="node16" class="node"><title>Node16</title>
<g id="a_node16"><a xlink:href="../../d4/d57/ExtendedIOElement_8hpp.html" target="_top" xlink:title=" ">
<polygon fill="white" stroke="black" points="683,-224.5 683,-243.5 806,-243.5 806,-224.5 683,-224.5"/>
<text text-anchor="middle" x="744.5" y="-231.5" font-family="Helvetica,sans-Serif" font-size="10.00">ExtendedIOElement.hpp</text>
</a>
</g>
</g>
<!-- Node13&#45;&gt;Node16 -->
<g id="edge20" class="edge"><title>Node13&#45;&gt;Node16</title>
<path fill="none" stroke="midnightblue" d="M665.31,-275.726C684.753,-265.727 710.848,-252.307 727.672,-243.655"/>
<polygon fill="midnightblue" stroke="midnightblue" points="663.662,-272.638 656.37,-280.324 666.864,-278.863 663.662,-272.638"/>
</g>
<!-- Node25 -->
<g id="node25" class="node"><title>Node25</title>
<g id="a_node25"><a xlink:href="../../d8/df3/FilteredAnalog_8hpp.html" target="_top" xlink:title=" ">
<polygon fill="white" stroke="black" points="544.5,-112.5 544.5,-131.5 642.5,-131.5 642.5,-112.5 544.5,-112.5"/>
<text text-anchor="middle" x="593.5" y="-119.5" font-family="Helvetica,sans-Serif" font-size="10.00">FilteredAnalog.hpp</text>
</a>
</g>
</g>
<!-- Node13&#45;&gt;Node25 -->
<g id="edge43" class="edge"><title>Node13&#45;&gt;Node25</title>
<path fill="none" stroke="midnightblue" d="M638.464,-269.914C636.671,-245.613 631.899,-202.626 619.5,-168 614.633,-154.409 605.694,-140.228 599.673,-131.504"/>
<polygon fill="midnightblue" stroke="midnightblue" points="634.992,-270.468 639.125,-280.224 641.978,-270.02 634.992,-270.468"/>
</g>
<!-- Node15 -->
<g id="node15" class="node"><title>Node15</title>
<g id="a_node15"><a xlink:href="../../d5/d41/ButtonMatrix_8ipp.html" target="_top" xlink:title=" ">
<polygon fill="white" stroke="black" points="438.5,-112.5 438.5,-131.5 526.5,-131.5 526.5,-112.5 438.5,-112.5"/>
<text text-anchor="middle" x="482.5" y="-119.5" font-family="Helvetica,sans-Serif" font-size="10.00">ButtonMatrix.ipp</text>
</a>
</g>
</g>
<!-- Node14&#45;&gt;Node15 -->
<g id="edge18" class="edge"><title>Node14&#45;&gt;Node15</title>
<path fill="none" stroke="midnightblue" d="M538.331,-163.21C521.898,-153.339 502.196,-140.342 490.929,-131.834"/>
<polygon fill="midnightblue" stroke="midnightblue" points="536.653,-166.284 547.05,-168.324 540.195,-160.246 536.653,-166.284"/>
</g>
<!-- Node15&#45;&gt;Node14 -->
<g id="edge19" class="edge"><title>Node15&#45;&gt;Node14</title>
<path fill="none" stroke="midnightblue" d="M509.682,-136.797C526.214,-146.729 546.052,-159.822 557.279,-168.324"/>
<polygon fill="midnightblue" stroke="midnightblue" points="511.309,-133.694 500.912,-131.655 507.768,-139.733 511.309,-133.694"/>
</g>
<!-- Node16&#45;&gt;Node4 -->
<g id="edge40" class="edge"><title>Node16&#45;&gt;Node4</title>
<path fill="none" stroke="midnightblue" d="M682.677,-222.791C620.888,-212.587 526.972,-197.078 469.072,-187.516"/>
<polygon fill="midnightblue" stroke="midnightblue" points="682.249,-226.267 692.686,-224.444 683.39,-219.361 682.249,-226.267"/>
</g>
<!-- Node17 -->
<g id="node17" class="node"><title>Node17</title>
<g id="a_node17"><a xlink:href="../../dd/ddf/ExtendedInputOutput_8hpp.html" target="_top" xlink:title=" ">
<polygon fill="white" stroke="black" points="680.5,-168.5 680.5,-187.5 808.5,-187.5 808.5,-168.5 680.5,-168.5"/>
<text text-anchor="middle" x="744.5" y="-175.5" font-family="Helvetica,sans-Serif" font-size="10.00">ExtendedInputOutput.hpp</text>
</a>
</g>
</g>
<!-- Node16&#45;&gt;Node17 -->
<g id="edge21" class="edge"><title>Node16&#45;&gt;Node17</title>
<path fill="none" stroke="midnightblue" d="M744.5,-213.805C744.5,-204.91 744.5,-194.78 744.5,-187.751"/>
<polygon fill="midnightblue" stroke="midnightblue" points="741,-214.083 744.5,-224.083 748,-214.083 741,-214.083"/>
</g>
<!-- Node16&#45;&gt;Node24 -->
<g id="edge41" class="edge"><title>Node16&#45;&gt;Node24</title>
<path fill="none" stroke="midnightblue" d="M767.561,-218.894C797.287,-200.805 846.266,-171.353 855.5,-168 891.842,-154.802 991.725,-139.984 1058.48,-131.079"/>
<polygon fill="midnightblue" stroke="midnightblue" points="765.377,-216.126 758.661,-224.32 769.021,-222.103 765.377,-216.126"/>
</g>
<!-- Node16&#45;&gt;Node30 -->
<g id="edge42" class="edge"><title>Node16&#45;&gt;Node30</title>
<path fill="none" stroke="midnightblue" d="M783.031,-221.568C817.364,-211.381 866.833,-196.703 897.796,-187.516"/>
<polygon fill="midnightblue" stroke="midnightblue" points="781.93,-218.244 773.338,-224.444 783.921,-224.954 781.93,-218.244"/>
</g>
<!-- Node17&#45;&gt;Node5 -->
<g id="edge29" class="edge"><title>Node17&#45;&gt;Node5</title>
<path fill="none" stroke="midnightblue" d="M670.16,-167.304C587.284,-156.494 455.383,-139.289 382.743,-129.814"/>
<polygon fill="midnightblue" stroke="midnightblue" points="669.898,-170.799 680.267,-168.622 670.803,-163.858 669.898,-170.799"/>
</g>
<!-- Node17&#45;&gt;Node9 -->
<g id="edge32" class="edge"><title>Node17&#45;&gt;Node9</title>
<path fill="none" stroke="midnightblue" d="M800.654,-165.126C818.362,-158.449 836.022,-148.075 846.5,-132 864.945,-103.703 869.544,-80.6967 846.5,-56 806.168,-12.7748 397.684,-10.1538 250.229,-10.6329"/>
<polygon fill="midnightblue" stroke="midnightblue" points="799.191,-161.926 790.857,-168.467 801.451,-168.552 799.191,-161.926"/>
</g>
<!-- Node17&#45;&gt;Node10 -->
<g id="edge31" class="edge"><title>Node17&#45;&gt;Node10</title>
<path fill="none" stroke="midnightblue" d="M727.677,-161.508C710.076,-146.253 680.953,-123.603 651.5,-112 639.828,-107.401 487.355,-87.0223 397.853,-75.3275"/>
<polygon fill="midnightblue" stroke="midnightblue" points="725.543,-164.294 735.343,-168.322 730.194,-159.062 725.543,-164.294"/>
</g>
<!-- Node17&#45;&gt;Node12 -->
<g id="edge33" class="edge"><title>Node17&#45;&gt;Node12</title>
<path fill="none" stroke="midnightblue" d="M777.56,-164.008C791.266,-156.781 805.751,-146.304 813.5,-132 829.589,-102.3 836.743,-80.5095 813.5,-56 787.545,-28.6302 173.074,-23.3097 135.5,-20 131.684,-19.6639 127.76,-19.2829 123.805,-18.8723"/>
<polygon fill="midnightblue" stroke="midnightblue" points="775.762,-160.99 768.288,-168.499 778.814,-167.29 775.762,-160.99"/>
</g>
<!-- Node17&#45;&gt;Node15 -->
<g id="edge28" class="edge"><title>Node17&#45;&gt;Node15</title>
<path fill="none" stroke="midnightblue" d="M693.117,-166.41C643.602,-156.204 569.638,-140.96 523.82,-131.516"/>
<polygon fill="midnightblue" stroke="midnightblue" points="692.485,-169.853 702.985,-168.444 693.898,-162.997 692.485,-169.853"/>
</g>
<!-- Node18 -->
<g id="node18" class="node"><title>Node18</title>
<g id="a_node18"><a xlink:href="../../d4/db3/Button_8hpp.html" target="_top" xlink:title=" ">
<polygon fill="white" stroke="black" points="898.5,-112.5 898.5,-131.5 962.5,-131.5 962.5,-112.5 898.5,-112.5"/>
<text text-anchor="middle" x="930.5" y="-119.5" font-family="Helvetica,sans-Serif" font-size="10.00">Button.hpp</text>
</a>
</g>
</g>
<!-- Node17&#45;&gt;Node18 -->
<g id="edge22" class="edge"><title>Node17&#45;&gt;Node18</title>
<path fill="none" stroke="midnightblue" d="M783.878,-165.568C818.966,-155.381 869.521,-140.703 901.166,-131.516"/>
<polygon fill="midnightblue" stroke="midnightblue" points="782.6,-162.294 773.972,-168.444 784.552,-169.017 782.6,-162.294"/>
</g>
<!-- Node17&#45;&gt;Node24 -->
<g id="edge30" class="edge"><title>Node17&#45;&gt;Node24</title>
<path fill="none" stroke="midnightblue" d="M814.644,-166.979C886.047,-156.779 995.54,-141.137 1062.88,-131.516"/>
<polygon fill="midnightblue" stroke="midnightblue" points="813.8,-163.564 804.395,-168.444 814.79,-170.494 813.8,-163.564"/>
</g>
<!-- Node17&#45;&gt;Node25 -->
<g id="edge34" class="edge"><title>Node17&#45;&gt;Node25</title>
<path fill="none" stroke="midnightblue" d="M711.054,-165.039C682.642,-154.879 642.563,-140.546 617.314,-131.516"/>
<polygon fill="midnightblue" stroke="midnightblue" points="709.979,-168.372 720.574,-168.444 712.336,-161.781 709.979,-168.372"/>
</g>
<!-- Node26 -->
<g id="node26" class="node"><title>Node26</title>
<g id="a_node26"><a xlink:href="../../d9/d4f/LEDs_8hpp.html" target="_top" xlink:title=" ">
<polygon fill="white" stroke="black" points="980.5,-112.5 980.5,-131.5 1040.5,-131.5 1040.5,-112.5 980.5,-112.5"/>
<text text-anchor="middle" x="1010.5" y="-119.5" font-family="Helvetica,sans-Serif" font-size="10.00">LEDs.hpp</text>
</a>
</g>
</g>
<!-- Node17&#45;&gt;Node26 -->
<g id="edge35" class="edge"><title>Node17&#45;&gt;Node26</title>
<path fill="none" stroke="midnightblue" d="M799.874,-166.521C845.898,-157.693 913.066,-144.531 971.5,-132 974.354,-131.388 977.321,-130.735 980.287,-130.07"/>
<polygon fill="midnightblue" stroke="midnightblue" points="798.972,-163.131 789.808,-168.448 800.288,-170.006 798.972,-163.131"/>
</g>
<!-- Node28 -->
<g id="node28" class="node"><title>Node28</title>
<g id="a_node28"><a xlink:href="../../d7/d13/MAX7219__Base_8hpp.html" target="_top" xlink:title=" ">
<polygon fill="white" stroke="black" points="698.5,-112.5 698.5,-131.5 804.5,-131.5 804.5,-112.5 698.5,-112.5"/>
<text text-anchor="middle" x="751.5" y="-119.5" font-family="Helvetica,sans-Serif" font-size="10.00">MAX7219_Base.hpp</text>
</a>
</g>
</g>
<!-- Node17&#45;&gt;Node28 -->
<g id="edge37" class="edge"><title>Node17&#45;&gt;Node28</title>
<path fill="none" stroke="midnightblue" d="M746.95,-158.101C748.112,-149.136 749.444,-138.858 750.366,-131.751"/>
<polygon fill="midnightblue" stroke="midnightblue" points="743.471,-157.716 745.656,-168.083 750.412,-158.616 743.471,-157.716"/>
</g>
<!-- Node19 -->
<g id="node19" class="node"><title>Node19</title>
<g id="a_node19"><a xlink:href="../../de/dd1/Button_8cpp.html" target="_top" xlink:title=" ">
<polygon fill="white" stroke="black" points="1024.5,-56.5 1024.5,-75.5 1088.5,-75.5 1088.5,-56.5 1024.5,-56.5"/>
<text text-anchor="middle" x="1056.5" y="-63.5" font-family="Helvetica,sans-Serif" font-size="10.00">Button.cpp</text>
</a>
</g>
</g>
<!-- Node18&#45;&gt;Node19 -->
<g id="edge23" class="edge"><title>Node18&#45;&gt;Node19</title>
<path fill="none" stroke="midnightblue" d="M959.66,-108.503C983.281,-98.3795 1015.93,-84.388 1036.63,-75.5164"/>
<polygon fill="midnightblue" stroke="midnightblue" points="958.278,-105.287 950.465,-112.444 961.035,-111.721 958.278,-105.287"/>
</g>
<!-- Node20 -->
<g id="node20" class="node"><title>Node20</title>
<g id="a_node20"><a xlink:href="../../d5/d04/IncrementButton_8hpp.html" target="_top" xlink:title=" ">
<polygon fill="white" stroke="black" points="899,-56.5 899,-75.5 1006,-75.5 1006,-56.5 899,-56.5"/>
<text text-anchor="middle" x="952.5" y="-63.5" font-family="Helvetica,sans-Serif" font-size="10.00">IncrementButton.hpp</text>
</a>
</g>
</g>
<!-- Node18&#45;&gt;Node20 -->
<g id="edge24" class="edge"><title>Node18&#45;&gt;Node20</title>
<path fill="none" stroke="midnightblue" d="M937.96,-102.69C941.667,-93.589 945.976,-83.0141 948.935,-75.7511"/>
<polygon fill="midnightblue" stroke="midnightblue" points="934.665,-101.502 934.133,-112.083 941.147,-104.143 934.665,-101.502"/>
</g>
<!-- Node22 -->
<g id="node22" class="node"><title>Node22</title>
<g id="a_node22"><a xlink:href="../../df/df5/IncrementDecrementButtons_8hpp.html" target="_top" xlink:title=" ">
<polygon fill="white" stroke="black" points="1107,-56.5 1107,-75.5 1268,-75.5 1268,-56.5 1107,-56.5"/>
<text text-anchor="middle" x="1187.5" y="-63.5" font-family="Helvetica,sans-Serif" font-size="10.00">IncrementDecrementButtons.hpp</text>
</a>
</g>
</g>
<!-- Node18&#45;&gt;Node22 -->
<g id="edge26" class="edge"><title>Node18&#45;&gt;Node22</title>
<path fill="none" stroke="midnightblue" d="M972.872,-111.723C1038.78,-97.6544 1104.25,-84.0994 1145.66,-75.5786"/>
<polygon fill="midnightblue" stroke="midnightblue" points="971.769,-108.379 962.722,-113.893 973.233,-115.225 971.769,-108.379"/>
</g>
<!-- Node21 -->
<g id="node21" class="node"><title>Node21</title>
<g id="a_node21"><a xlink:href="../../db/d9d/IncrementButton_8cpp.html" target="_top" xlink:title=" ">
<polygon fill="white" stroke="black" points="899,-0.5 899,-19.5 1006,-19.5 1006,-0.5 899,-0.5"/>
<text text-anchor="middle" x="952.5" y="-7.5" font-family="Helvetica,sans-Serif" font-size="10.00">IncrementButton.cpp</text>
</a>
</g>
</g>
<!-- Node20&#45;&gt;Node21 -->
<g id="edge25" class="edge"><title>Node20&#45;&gt;Node21</title>
<path fill="none" stroke="midnightblue" d="M952.5,-45.8045C952.5,-36.9102 952.5,-26.7798 952.5,-19.7511"/>
<polygon fill="midnightblue" stroke="midnightblue" points="949,-46.083 952.5,-56.083 956,-46.083 949,-46.083"/>
</g>
<!-- Node23 -->
<g id="node23" class="node"><title>Node23</title>
<g id="a_node23"><a xlink:href="../../da/d66/IncrementDecrementButtons_8cpp.html" target="_top" xlink:title=" ">
<polygon fill="white" stroke="black" points="1107,-0.5 1107,-19.5 1268,-19.5 1268,-0.5 1107,-0.5"/>
<text text-anchor="middle" x="1187.5" y="-7.5" font-family="Helvetica,sans-Serif" font-size="10.00">IncrementDecrementButtons.cpp</text>
</a>
</g>
</g>
<!-- Node22&#45;&gt;Node23 -->
<g id="edge27" class="edge"><title>Node22&#45;&gt;Node23</title>
<path fill="none" stroke="midnightblue" d="M1187.5,-45.8045C1187.5,-36.9102 1187.5,-26.7798 1187.5,-19.7511"/>
<polygon fill="midnightblue" stroke="midnightblue" points="1184,-46.083 1187.5,-56.083 1191,-46.083 1184,-46.083"/>
</g>
<!-- Node27 -->
<g id="node27" class="node"><title>Node27</title>
<g id="a_node27"><a xlink:href="../../d6/d3a/DotBarDisplayLEDs_8hpp.html" target="_top" xlink:title=" ">
<polygon fill="white" stroke="black" points="1286.5,-56.5 1286.5,-75.5 1410.5,-75.5 1410.5,-56.5 1286.5,-56.5"/>
<text text-anchor="middle" x="1348.5" y="-63.5" font-family="Helvetica,sans-Serif" font-size="10.00">DotBarDisplayLEDs.hpp</text>
</a>
</g>
</g>
<!-- Node26&#45;&gt;Node27 -->
<g id="edge36" class="edge"><title>Node26&#45;&gt;Node27</title>
<path fill="none" stroke="midnightblue" d="M1050.75,-111.881C1137.97,-95.4965 1228.03,-82.6855 1286.42,-74.9166"/>
<polygon fill="midnightblue" stroke="midnightblue" points="1049.86,-108.489 1040.68,-113.791 1051.16,-115.366 1049.86,-108.489"/>
</g>
<!-- Node28&#45;&gt;Node6 -->
<g id="edge38" class="edge"><title>Node28&#45;&gt;Node6</title>
<path fill="none" stroke="midnightblue" d="M694.542,-110.644C635.612,-99.9295 545.147,-83.4813 493.753,-74.1368"/>
<polygon fill="midnightblue" stroke="midnightblue" points="693.975,-114.098 704.439,-112.444 695.227,-107.211 693.975,-114.098"/>
</g>
<!-- Node29 -->
<g id="node29" class="node"><title>Node29</title>
<g id="a_node29"><a xlink:href="../../d5/d0c/MAX7219SevenSegmentDisplay_8hpp.html" target="_top" xlink:title=" ">
<polygon fill="white" stroke="black" points="626.5,-56.5 626.5,-75.5 804.5,-75.5 804.5,-56.5 626.5,-56.5"/>
<text text-anchor="middle" x="715.5" y="-63.5" font-family="Helvetica,sans-Serif" font-size="10.00">MAX7219SevenSegmentDisplay.hpp</text>
</a>
</g>
</g>
<!-- Node28&#45;&gt;Node29 -->
<g id="edge39" class="edge"><title>Node28&#45;&gt;Node29</title>
<path fill="none" stroke="midnightblue" d="M739.877,-103.566C733.683,-94.2747 726.332,-83.2484 721.334,-75.7511"/>
<polygon fill="midnightblue" stroke="midnightblue" points="737.096,-105.704 745.555,-112.083 742.92,-101.821 737.096,-105.704"/>
</g>
<!-- Node32 -->
<g id="node32" class="node"><title>Node32</title>
<g id="a_node32"><a xlink:href="../../df/ddc/SOSFilter_8hpp.html" target="_top" xlink:title=" ">
<polygon fill="white" stroke="black" points="233.5,-224.5 233.5,-243.5 311.5,-243.5 311.5,-224.5 233.5,-224.5"/>
<text text-anchor="middle" x="272.5" y="-231.5" font-family="Helvetica,sans-Serif" font-size="10.00">SOSFilter.hpp</text>
</a>
</g>
</g>
<!-- Node31&#45;&gt;Node32 -->
<g id="edge45" class="edge"><title>Node31&#45;&gt;Node32</title>
<path fill="none" stroke="midnightblue" d="M286.379,-270.69C282.84,-261.589 278.728,-251.014 275.903,-243.751"/>
<polygon fill="midnightblue" stroke="midnightblue" points="283.146,-272.032 290.032,-280.083 289.67,-269.494 283.146,-272.032"/>
</g>
<!-- Node33 -->
<g id="node33" class="node"><title>Node33</title>
<g id="a_node33"><a xlink:href="../../d4/d40/Butterworth_8hpp.html" target="_top" xlink:title=" ">
<polygon fill="white" stroke="black" points="229.5,-168.5 229.5,-187.5 315.5,-187.5 315.5,-168.5 229.5,-168.5"/>
<text text-anchor="middle" x="272.5" y="-175.5" font-family="Helvetica,sans-Serif" font-size="10.00">Butterworth.hpp</text>
</a>
</g>
</g>
<!-- Node32&#45;&gt;Node33 -->
<g id="edge46" class="edge"><title>Node32&#45;&gt;Node33</title>
<path fill="none" stroke="midnightblue" d="M272.5,-213.805C272.5,-204.91 272.5,-194.78 272.5,-187.751"/>
<polygon fill="midnightblue" stroke="midnightblue" points="269,-214.083 272.5,-224.083 276,-214.083 269,-214.083"/>
</g>
<!-- Node36&#45;&gt;Node6 -->
<g id="edge50" class="edge"><title>Node36&#45;&gt;Node6</title>
<path fill="none" stroke="midnightblue" d="M164.46,-164.158C183.069,-155.245 208.353,-143.035 230.5,-132 247.935,-123.313 251.243,-118.793 269.5,-112 295.91,-102.173 369.203,-85.4747 415.214,-75.4172"/>
<polygon fill="midnightblue" stroke="midnightblue" points="162.901,-161.024 155.389,-168.496 165.92,-167.339 162.901,-161.024"/>
</g>
<!-- Node36&#45;&gt;Node7 -->
<g id="edge51" class="edge"><title>Node36&#45;&gt;Node7</title>
<path fill="none" stroke="midnightblue" d="M144.046,-158.396C147.224,-149.362 150.893,-138.936 153.421,-131.751"/>
<polygon fill="midnightblue" stroke="midnightblue" points="140.655,-157.488 140.637,-168.083 147.258,-159.812 140.655,-157.488"/>
</g>
<!-- Node36&#45;&gt;Node11 -->
<g id="edge52" class="edge"><title>Node36&#45;&gt;Node11</title>
<path fill="none" stroke="midnightblue" d="M113.679,-162.762C102.459,-154.958 89.7571,-144.355 81.5,-132 69.6106,-114.21 65.0232,-88.8618 63.3646,-75.6942"/>
<polygon fill="midnightblue" stroke="midnightblue" points="111.97,-165.827 122.247,-168.402 115.818,-159.98 111.97,-165.827"/>
</g>
</g>
</svg>
