<?xml version="1.0" encoding="UTF-8" standalone="no"?>
<!DOCTYPE svg PUBLIC "-//W3C//DTD SVG 1.1//EN"
 "http://www.w3.org/Graphics/SVG/1.1/DTD/svg11.dtd">
<!-- Generated by graphviz version 2.43.0 (0)
 -->
<!-- Title: Error.hpp Pages: 1 -->
<svg width="2079pt" height="532pt"
 viewBox="0.00 0.00 2078.64 532.00" xmlns="http://www.w3.org/2000/svg" xmlns:xlink="http://www.w3.org/1999/xlink">
<g id="graph0" class="graph" transform="scale(1 1) rotate(0) translate(4 528)">
<title>Error.hpp</title>
<polygon fill="white" stroke="transparent" points="-4,4 -4,-528 2074.64,-528 2074.64,4 -4,4"/>
<!-- Node1 -->
<g id="node1" class="node">
<title>Node1</title>
<g id="a_node1"><a xlink:title=" ">
<polygon fill="#bfbfbf" stroke="black" points="1343.95,-504.5 1343.95,-523.5 1403.95,-523.5 1403.95,-504.5 1343.95,-504.5"/>
<text text-anchor="middle" x="1373.95" y="-511.5" font-family="Helvetica,sans-Serif" font-size="10.00">Error.hpp</text>
</a>
</g>
</g>
<!-- Node2 -->
<g id="node2" class="node">
<title>Node2</title>
<g id="a_node2"><a xlink:href="../../de/d76/Array_8hpp.html" target="_top" xlink:title=" ">
<polygon fill="white" stroke="black" points="513.95,-448.5 513.95,-467.5 575.95,-467.5 575.95,-448.5 513.95,-448.5"/>
<text text-anchor="middle" x="544.95" y="-455.5" font-family="Helvetica,sans-Serif" font-size="10.00">Array.hpp</text>
</a>
</g>
</g>
<!-- Node1&#45;&gt;Node2 -->
<g id="edge1" class="edge">
<title>Node1&#45;&gt;Node2</title>
<path fill="none" stroke="midnightblue" d="M1333.29,-510.35C1189.12,-500.96 704.17,-469.37 576.15,-461.03"/>
<polygon fill="midnightblue" stroke="midnightblue" points="1333.25,-513.86 1343.46,-511.01 1333.71,-506.87 1333.25,-513.86"/>
</g>
<!-- Node28 -->
<g id="node28" class="node">
<title>Node28</title>
<g id="a_node28"><a xlink:href="../../d6/d3c/ExtendedInputOutput_8cpp.html" target="_top" xlink:title=" ">
<polygon fill="white" stroke="black" points="1002.95,-168.5 1002.95,-187.5 1142.95,-187.5 1142.95,-168.5 1002.95,-168.5"/>
<text text-anchor="middle" x="1072.95" y="-175.5" font-family="Helvetica,sans-Serif" font-size="10.00">ExtendedInputOutput.cpp</text>
</a>
</g>
</g>
<!-- Node1&#45;&gt;Node28 -->
<g id="edge70" class="edge">
<title>Node1&#45;&gt;Node28</title>
<path fill="none" stroke="midnightblue" d="M1375.21,-494.32C1377.58,-442.88 1376.59,-298.08 1297.95,-224 1285.9,-212.65 1194.61,-197.06 1132.08,-187.53"/>
<polygon fill="midnightblue" stroke="midnightblue" points="1371.72,-494.14 1374.65,-504.32 1378.7,-494.53 1371.72,-494.14"/>
</g>
<!-- Node30 -->
<g id="node30" class="node">
<title>Node30</title>
<g id="a_node30"><a xlink:href="../../da/d1f/ExtendedIOElement_8cpp.html" target="_top" xlink:title=" ">
<polygon fill="white" stroke="black" points="366.95,-168.5 366.95,-187.5 500.95,-187.5 500.95,-168.5 366.95,-168.5"/>
<text text-anchor="middle" x="433.95" y="-175.5" font-family="Helvetica,sans-Serif" font-size="10.00">ExtendedIOElement.cpp</text>
</a>
</g>
</g>
<!-- Node1&#45;&gt;Node30 -->
<g id="edge71" class="edge">
<title>Node1&#45;&gt;Node30</title>
<path fill="none" stroke="midnightblue" d="M1333.66,-513.45C1130.48,-515.19 227.95,-516.52 227.95,-403 227.95,-403 227.95,-403 227.95,-289 227.95,-224.84 306.67,-197.97 366.78,-186.8"/>
<polygon fill="midnightblue" stroke="midnightblue" points="1333.92,-516.95 1343.88,-513.35 1333.85,-509.95 1333.92,-516.95"/>
</g>
<!-- Node43 -->
<g id="node43" class="node">
<title>Node43</title>
<g id="a_node43"><a xlink:href="../../d1/d40/BitArray_8hpp.html" target="_top" xlink:title=" ">
<polygon fill="white" stroke="black" points="1560.95,-168.5 1560.95,-187.5 1636.95,-187.5 1636.95,-168.5 1560.95,-168.5"/>
<text text-anchor="middle" x="1598.95" y="-175.5" font-family="Helvetica,sans-Serif" font-size="10.00">BitArray.hpp</text>
</a>
</g>
</g>
<!-- Node1&#45;&gt;Node43 -->
<g id="edge63" class="edge">
<title>Node1&#45;&gt;Node43</title>
<path fill="none" stroke="midnightblue" d="M1383.08,-495.28C1391.29,-480.86 1404.57,-460.85 1420.95,-448 1610.78,-299.14 1789.18,-444.09 1923.95,-244 1928.91,-236.63 1929.79,-230.7 1923.95,-224 1887.14,-181.75 1714.94,-177.86 1637.2,-178.33"/>
<polygon fill="midnightblue" stroke="midnightblue" points="1379.92,-493.76 1378.23,-504.22 1386.07,-497.1 1379.92,-493.76"/>
</g>
<!-- Node44 -->
<g id="node44" class="node">
<title>Node44</title>
<g id="a_node44"><a xlink:href="../../d4/d93/Updatable_8hpp.html" target="_top" xlink:title=" ">
<polygon fill="white" stroke="black" points="703.95,-280.5 703.95,-299.5 791.95,-299.5 791.95,-280.5 703.95,-280.5"/>
<text text-anchor="middle" x="747.95" y="-287.5" font-family="Helvetica,sans-Serif" font-size="10.00">Updatable.hpp</text>
</a>
</g>
</g>
<!-- Node1&#45;&gt;Node44 -->
<g id="edge67" class="edge">
<title>Node1&#45;&gt;Node44</title>
<path fill="none" stroke="midnightblue" d="M1333.43,-509.69C1221.34,-499.91 909.84,-468.2 825.95,-412 783.17,-383.34 758.73,-322.46 750.82,-299.77"/>
<polygon fill="midnightblue" stroke="midnightblue" points="1333.38,-513.2 1343.64,-510.57 1333.98,-506.23 1333.38,-513.2"/>
</g>
<!-- Node45 -->
<g id="node45" class="node">
<title>Node45</title>
<g id="a_node45"><a xlink:href="../../d6/df4/Exit_8cpp.html" target="_top" xlink:title=" ">
<polygon fill="white" stroke="black" points="1429.95,-448.5 1429.95,-467.5 1485.95,-467.5 1485.95,-448.5 1429.95,-448.5"/>
<text text-anchor="middle" x="1457.95" y="-455.5" font-family="Helvetica,sans-Serif" font-size="10.00">Exit.cpp</text>
</a>
</g>
</g>
<!-- Node1&#45;&gt;Node45 -->
<g id="edge69" class="edge">
<title>Node1&#45;&gt;Node45</title>
<path fill="none" stroke="midnightblue" d="M1395.88,-498.9C1411.28,-489 1431.39,-476.07 1444.49,-467.65"/>
<polygon fill="midnightblue" stroke="midnightblue" points="1393.96,-495.97 1387.44,-504.32 1397.75,-501.86 1393.96,-495.97"/>
</g>
<!-- Node46 -->
<g id="node46" class="node">
<title>Node46</title>
<g id="a_node46"><a xlink:href="../../d4/d1b/vector_8cpp.html" target="_top" xlink:title=" ">
<polygon fill="white" stroke="black" points="1504.45,-448.5 1504.45,-467.5 1571.45,-467.5 1571.45,-448.5 1504.45,-448.5"/>
<text text-anchor="middle" x="1537.95" y="-455.5" font-family="Helvetica,sans-Serif" font-size="10.00">vector.cpp</text>
</a>
</g>
</g>
<!-- Node1&#45;&gt;Node46 -->
<g id="edge72" class="edge">
<title>Node1&#45;&gt;Node46</title>
<path fill="none" stroke="midnightblue" d="M1409.47,-501.3C1440.37,-491.13 1484.42,-476.62 1512.08,-467.52"/>
<polygon fill="midnightblue" stroke="midnightblue" points="1408.34,-497.99 1399.93,-504.44 1410.53,-504.64 1408.34,-497.99"/>
</g>
<!-- Node47 -->
<g id="node47" class="node">
<title>Node47</title>
<g id="a_node47"><a xlink:href="../../d3/d50/FixedPoint_8hpp.html" target="_top" xlink:title=" ">
<polygon fill="white" stroke="black" points="1589.95,-448.5 1589.95,-467.5 1677.95,-467.5 1677.95,-448.5 1589.95,-448.5"/>
<text text-anchor="middle" x="1633.95" y="-455.5" font-family="Helvetica,sans-Serif" font-size="10.00">FixedPoint.hpp</text>
</a>
</g>
</g>
<!-- Node1&#45;&gt;Node47 -->
<g id="edge73" class="edge">
<title>Node1&#45;&gt;Node47</title>
<path fill="none" stroke="midnightblue" d="M1413.84,-504.71C1462.27,-494.66 1543.54,-477.78 1592.61,-467.59"/>
<polygon fill="midnightblue" stroke="midnightblue" points="1413.11,-501.29 1404.03,-506.75 1414.53,-508.15 1413.11,-501.29"/>
</g>
<!-- Node3 -->
<g id="node3" class="node">
<title>Node3</title>
<g id="a_node3"><a xlink:href="../../d5/db6/ArrayHelpers_8hpp.html" target="_top" xlink:title=" ">
<polygon fill="white" stroke="black" points="576.45,-336.5 576.45,-355.5 677.45,-355.5 677.45,-336.5 576.45,-336.5"/>
<text text-anchor="middle" x="626.95" y="-343.5" font-family="Helvetica,sans-Serif" font-size="10.00">ArrayHelpers.hpp</text>
</a>
</g>
</g>
<!-- Node2&#45;&gt;Node3 -->
<g id="edge2" class="edge">
<title>Node2&#45;&gt;Node3</title>
<path fill="none" stroke="midnightblue" d="M564.02,-441.77C573.47,-433.6 584.61,-422.97 592.95,-412 606.97,-393.55 618.24,-368.48 623.58,-355.53"/>
<polygon fill="midnightblue" stroke="midnightblue" points="561.68,-439.16 556.26,-448.26 566.18,-444.52 561.68,-439.16"/>
</g>
<!-- Node5 -->
<g id="node5" class="node">
<title>Node5</title>
<g id="a_node5"><a xlink:href="../../d7/def/AnalogMultiplex_8hpp.html" target="_top" xlink:title=" ">
<polygon fill="white" stroke="black" points="558.45,-112.5 558.45,-131.5 675.45,-131.5 675.45,-112.5 558.45,-112.5"/>
<text text-anchor="middle" x="616.95" y="-119.5" font-family="Helvetica,sans-Serif" font-size="10.00">AnalogMultiplex.hpp</text>
</a>
</g>
</g>
<!-- Node2&#45;&gt;Node5 -->
<g id="edge20" class="edge">
<title>Node2&#45;&gt;Node5</title>
<path fill="none" stroke="midnightblue" d="M526.74,-441.95C517.44,-433.71 506.35,-422.95 497.95,-412 439.97,-336.4 474.48,-276.45 394.95,-224 255.37,-131.95 -90.72,-290.61 22.95,-168 40.99,-148.54 411.93,-131.36 558.3,-125.31"/>
<polygon fill="midnightblue" stroke="midnightblue" points="524.47,-444.62 534.33,-448.49 529.04,-439.31 524.47,-444.62"/>
</g>
<!-- Node17 -->
<g id="node17" class="node">
<title>Node17</title>
<g id="a_node17"><a xlink:href="../../d4/d35/Hardware-Types_8hpp.html" target="_top" xlink:title=" ">
<polygon fill="white" stroke="black" points="834.95,-392.5 834.95,-411.5 950.95,-411.5 950.95,-392.5 834.95,-392.5"/>
<text text-anchor="middle" x="892.95" y="-399.5" font-family="Helvetica,sans-Serif" font-size="10.00">Hardware&#45;Types.hpp</text>
</a>
</g>
</g>
<!-- Node2&#45;&gt;Node17 -->
<g id="edge21" class="edge">
<title>Node2&#45;&gt;Node17</title>
<path fill="none" stroke="midnightblue" d="M586.04,-450.62C648.63,-440.91 767.93,-422.4 837.93,-411.54"/>
<polygon fill="midnightblue" stroke="midnightblue" points="585.48,-447.17 576.14,-452.16 586.56,-454.09 585.48,-447.17"/>
</g>
<!-- Node37 -->
<g id="node37" class="node">
<title>Node37</title>
<g id="a_node37"><a xlink:href="../../d1/dde/BiQuad_8hpp.html" target="_top" xlink:title=" ">
<polygon fill="white" stroke="black" points="270.45,-336.5 270.45,-355.5 343.45,-355.5 343.45,-336.5 270.45,-336.5"/>
<text text-anchor="middle" x="306.95" y="-343.5" font-family="Helvetica,sans-Serif" font-size="10.00">BiQuad.hpp</text>
</a>
</g>
</g>
<!-- Node2&#45;&gt;Node37 -->
<g id="edge54" class="edge">
<title>Node2&#45;&gt;Node37</title>
<path fill="none" stroke="midnightblue" d="M503.46,-456.06C437.27,-453.58 312.39,-444.6 284.95,-412 270.83,-395.23 288.37,-368.99 299.36,-355.55"/>
<polygon fill="midnightblue" stroke="midnightblue" points="503.45,-459.56 513.56,-456.4 503.69,-452.56 503.45,-459.56"/>
</g>
<!-- Node38 -->
<g id="node38" class="node">
<title>Node38</title>
<g id="a_node38"><a xlink:href="../../d2/d3b/FIRFilter_8hpp.html" target="_top" xlink:title=" ">
<polygon fill="white" stroke="black" points="506.45,-392.5 506.45,-411.5 583.45,-411.5 583.45,-392.5 506.45,-392.5"/>
<text text-anchor="middle" x="544.95" y="-399.5" font-family="Helvetica,sans-Serif" font-size="10.00">FIRFilter.hpp</text>
</a>
</g>
</g>
<!-- Node2&#45;&gt;Node38 -->
<g id="edge56" class="edge">
<title>Node2&#45;&gt;Node38</title>
<path fill="none" stroke="midnightblue" d="M544.95,-437.8C544.95,-428.91 544.95,-418.78 544.95,-411.75"/>
<polygon fill="midnightblue" stroke="midnightblue" points="541.45,-438.08 544.95,-448.08 548.45,-438.08 541.45,-438.08"/>
</g>
<!-- Node40 -->
<g id="node40" class="node">
<title>Node40</title>
<g id="a_node40"><a xlink:href="../../dc/d64/IIRFilter_8hpp.html" target="_top" xlink:title=" ">
<polygon fill="white" stroke="black" points="361.95,-336.5 361.95,-355.5 435.95,-355.5 435.95,-336.5 361.95,-336.5"/>
<text text-anchor="middle" x="398.95" y="-343.5" font-family="Helvetica,sans-Serif" font-size="10.00">IIRFilter.hpp</text>
</a>
</g>
</g>
<!-- Node2&#45;&gt;Node40 -->
<g id="edge58" class="edge">
<title>Node2&#45;&gt;Node40</title>
<path fill="none" stroke="midnightblue" d="M517.05,-443.94C500.87,-435.78 480.48,-424.47 463.95,-412 440.76,-394.51 417.69,-369.03 406.29,-355.77"/>
<polygon fill="midnightblue" stroke="midnightblue" points="515.52,-447.09 526.04,-448.37 518.61,-440.81 515.52,-447.09"/>
</g>
<!-- Node41 -->
<g id="node41" class="node">
<title>Node41</title>
<g id="a_node41"><a xlink:href="../../dc/d9c/SMA_8hpp.html" target="_top" xlink:title=" ">
<polygon fill="white" stroke="black" points="640.45,-392.5 640.45,-411.5 699.45,-411.5 699.45,-392.5 640.45,-392.5"/>
<text text-anchor="middle" x="669.95" y="-399.5" font-family="Helvetica,sans-Serif" font-size="10.00">SMA.hpp</text>
</a>
</g>
</g>
<!-- Node2&#45;&gt;Node41 -->
<g id="edge59" class="edge">
<title>Node2&#45;&gt;Node41</title>
<path fill="none" stroke="midnightblue" d="M574.19,-444.37C597.6,-434.26 629.79,-420.35 650.23,-411.52"/>
<polygon fill="midnightblue" stroke="midnightblue" points="572.55,-441.26 564.75,-448.44 575.32,-447.69 572.55,-441.26"/>
</g>
<!-- Node42 -->
<g id="node42" class="node">
<title>Node42</title>
<g id="a_node42"><a xlink:href="../../d2/d03/TransferFunction_8hpp.html" target="_top" xlink:title=" ">
<polygon fill="white" stroke="black" points="293.95,-392.5 293.95,-411.5 411.95,-411.5 411.95,-392.5 293.95,-392.5"/>
<text text-anchor="middle" x="352.95" y="-399.5" font-family="Helvetica,sans-Serif" font-size="10.00">TransferFunction.hpp</text>
</a>
</g>
</g>
<!-- Node2&#45;&gt;Node42 -->
<g id="edge60" class="edge">
<title>Node2&#45;&gt;Node42</title>
<path fill="none" stroke="midnightblue" d="M504.77,-445.7C468.53,-435.51 416.03,-420.74 383.23,-411.52"/>
<polygon fill="midnightblue" stroke="midnightblue" points="503.95,-449.11 514.53,-448.44 505.85,-442.37 503.95,-449.11"/>
</g>
<!-- Node4 -->
<g id="node4" class="node">
<title>Node4</title>
<g id="a_node4"><a xlink:href="../../d2/d05/StaticSizeExtendedIOElement_8hpp.html" target="_top" xlink:title=" ">
<polygon fill="white" stroke="black" points="644.95,-168.5 644.95,-187.5 826.95,-187.5 826.95,-168.5 644.95,-168.5"/>
<text text-anchor="middle" x="735.95" y="-175.5" font-family="Helvetica,sans-Serif" font-size="10.00">StaticSizeExtendedIOElement.hpp</text>
</a>
</g>
</g>
<!-- Node3&#45;&gt;Node4 -->
<g id="edge3" class="edge">
<title>Node3&#45;&gt;Node4</title>
<path fill="none" stroke="midnightblue" d="M624.91,-326.18C623.15,-300.54 623.74,-254.36 645.95,-224 659.35,-205.67 682.35,-194.35 701.75,-187.65"/>
<polygon fill="midnightblue" stroke="midnightblue" points="621.44,-326.73 625.81,-336.38 628.42,-326.12 621.44,-326.73"/>
</g>
<!-- Node15 -->
<g id="node15" class="node">
<title>Node15</title>
<g id="a_node15"><a xlink:href="../../df/ddc/SOSFilter_8hpp.html" target="_top" xlink:title=" ">
<polygon fill="white" stroke="black" points="298.45,-280.5 298.45,-299.5 379.45,-299.5 379.45,-280.5 298.45,-280.5"/>
<text text-anchor="middle" x="338.95" y="-287.5" font-family="Helvetica,sans-Serif" font-size="10.00">SOSFilter.hpp</text>
</a>
</g>
</g>
<!-- Node3&#45;&gt;Node15 -->
<g id="edge18" class="edge">
<title>Node3&#45;&gt;Node15</title>
<path fill="none" stroke="midnightblue" d="M571.19,-334.54C515.05,-324.02 429.81,-308.04 379.71,-298.64"/>
<polygon fill="midnightblue" stroke="midnightblue" points="570.84,-338.04 581.31,-336.44 572.13,-331.16 570.84,-338.04"/>
</g>
<!-- Node4&#45;&gt;Node5 -->
<g id="edge4" class="edge">
<title>Node4&#45;&gt;Node5</title>
<path fill="none" stroke="midnightblue" d="M707.81,-164.23C685.55,-154.13 655.09,-140.31 635.72,-131.52"/>
<polygon fill="midnightblue" stroke="midnightblue" points="706.54,-167.5 717.09,-168.44 709.43,-161.12 706.54,-167.5"/>
</g>
<!-- Node6 -->
<g id="node6" class="node">
<title>Node6</title>
<g id="a_node6"><a xlink:href="../../d2/d25/MAX7219_8hpp.html" target="_top" xlink:title=" ">
<polygon fill="white" stroke="black" points="1278.95,-112.5 1278.95,-131.5 1362.95,-131.5 1362.95,-112.5 1278.95,-112.5"/>
<text text-anchor="middle" x="1320.95" y="-119.5" font-family="Helvetica,sans-Serif" font-size="10.00">MAX7219.hpp</text>
</a>
</g>
</g>
<!-- Node4&#45;&gt;Node6 -->
<g id="edge5" class="edge">
<title>Node4&#45;&gt;Node6</title>
<path fill="none" stroke="midnightblue" d="M837.01,-167.67C967.04,-155.67 1187.08,-135.36 1278.82,-126.89"/>
<polygon fill="midnightblue" stroke="midnightblue" points="836.67,-164.19 827.03,-168.59 837.31,-171.16 836.67,-164.19"/>
</g>
<!-- Node7 -->
<g id="node7" class="node">
<title>Node7</title>
<g id="a_node7"><a xlink:href="../../d7/dca/MCP23017_8hpp.html" target="_top" xlink:title=" ">
<polygon fill="white" stroke="black" points="810.45,-112.5 810.45,-131.5 899.45,-131.5 899.45,-112.5 810.45,-112.5"/>
<text text-anchor="middle" x="854.95" y="-119.5" font-family="Helvetica,sans-Serif" font-size="10.00">MCP23017.hpp</text>
</a>
</g>
</g>
<!-- Node4&#45;&gt;Node7 -->
<g id="edge6" class="edge">
<title>Node4&#45;&gt;Node7</title>
<path fill="none" stroke="midnightblue" d="M764.08,-164.23C786.34,-154.13 816.8,-140.31 836.18,-131.52"/>
<polygon fill="midnightblue" stroke="midnightblue" points="762.46,-161.12 754.8,-168.44 765.36,-167.5 762.46,-161.12"/>
</g>
<!-- Node9 -->
<g id="node9" class="node">
<title>Node9</title>
<g id="a_node9"><a xlink:href="../../d8/d93/ShiftRegisterOutBase_8hpp.html" target="_top" xlink:title=" ">
<polygon fill="white" stroke="black" points="1731.45,-112.5 1731.45,-131.5 1872.45,-131.5 1872.45,-112.5 1731.45,-112.5"/>
<text text-anchor="middle" x="1801.95" y="-119.5" font-family="Helvetica,sans-Serif" font-size="10.00">ShiftRegisterOutBase.hpp</text>
</a>
</g>
</g>
<!-- Node4&#45;&gt;Node9 -->
<g id="edge9" class="edge">
<title>Node4&#45;&gt;Node9</title>
<path fill="none" stroke="midnightblue" d="M837.28,-170.25C849.96,-169.46 862.76,-168.69 874.95,-168 1194.47,-149.9 1576.22,-132.8 1731.28,-126.04"/>
<polygon fill="midnightblue" stroke="midnightblue" points="836.92,-166.76 827.15,-170.88 837.35,-173.75 836.92,-166.76"/>
</g>
<!-- Node8 -->
<g id="node8" class="node">
<title>Node8</title>
<g id="a_node8"><a xlink:href="../../d2/d94/MCP23017_8ipp.html" target="_top" xlink:title=" ">
<polygon fill="white" stroke="black" points="811.95,-56.5 811.95,-75.5 897.95,-75.5 897.95,-56.5 811.95,-56.5"/>
<text text-anchor="middle" x="854.95" y="-63.5" font-family="Helvetica,sans-Serif" font-size="10.00">MCP23017.ipp</text>
</a>
</g>
</g>
<!-- Node7&#45;&gt;Node8 -->
<g id="edge7" class="edge">
<title>Node7&#45;&gt;Node8</title>
<path fill="none" stroke="midnightblue" d="M848.48,-102.1C847.84,-93.14 848.29,-82.86 849.82,-75.75"/>
<polygon fill="midnightblue" stroke="midnightblue" points="845.01,-102.62 849.78,-112.08 851.95,-101.71 845.01,-102.62"/>
</g>
<!-- Node8&#45;&gt;Node7 -->
<g id="edge8" class="edge">
<title>Node8&#45;&gt;Node7</title>
<path fill="none" stroke="midnightblue" d="M861.41,-85.69C862.05,-94.64 861.62,-104.93 860.11,-112.08"/>
<polygon fill="midnightblue" stroke="midnightblue" points="864.87,-85.2 860.08,-75.75 857.93,-86.13 864.87,-85.2"/>
</g>
<!-- Node10 -->
<g id="node10" class="node">
<title>Node10</title>
<g id="a_node10"><a xlink:href="../../d0/db4/ShiftRegisterOut_8hpp.html" target="_top" xlink:title=" ">
<polygon fill="white" stroke="black" points="1790.45,-56.5 1790.45,-75.5 1907.45,-75.5 1907.45,-56.5 1790.45,-56.5"/>
<text text-anchor="middle" x="1848.95" y="-63.5" font-family="Helvetica,sans-Serif" font-size="10.00">ShiftRegisterOut.hpp</text>
</a>
</g>
</g>
<!-- Node9&#45;&gt;Node10 -->
<g id="edge10" class="edge">
<title>Node9&#45;&gt;Node10</title>
<path fill="none" stroke="midnightblue" d="M1816.37,-104.43C1824.61,-94.97 1834.6,-83.48 1841.33,-75.75"/>
<polygon fill="midnightblue" stroke="midnightblue" points="1813.63,-102.24 1809.71,-112.08 1818.91,-106.84 1813.63,-102.24"/>
</g>
<!-- Node12 -->
<g id="node12" class="node">
<title>Node12</title>
<g id="a_node12"><a xlink:href="../../d5/d47/ShiftRegisterOutBase_8ipp.html" target="_top" xlink:title=" ">
<polygon fill="white" stroke="black" points="1633.95,-56.5 1633.95,-75.5 1771.95,-75.5 1771.95,-56.5 1633.95,-56.5"/>
<text text-anchor="middle" x="1702.95" y="-63.5" font-family="Helvetica,sans-Serif" font-size="10.00">ShiftRegisterOutBase.ipp</text>
</a>
</g>
</g>
<!-- Node9&#45;&gt;Node12 -->
<g id="edge13" class="edge">
<title>Node9&#45;&gt;Node12</title>
<path fill="none" stroke="midnightblue" d="M1771.97,-107.86C1752.25,-97.85 1727.75,-84.35 1713.7,-75.65"/>
<polygon fill="midnightblue" stroke="midnightblue" points="1770.42,-111 1780.93,-112.32 1773.54,-104.73 1770.42,-111"/>
</g>
<!-- Node13 -->
<g id="node13" class="node">
<title>Node13</title>
<g id="a_node13"><a xlink:href="../../d7/d88/SPIShiftRegisterOut_8hpp.html" target="_top" xlink:title=" ">
<polygon fill="white" stroke="black" points="1925.95,-56.5 1925.95,-75.5 2057.95,-75.5 2057.95,-56.5 1925.95,-56.5"/>
<text text-anchor="middle" x="1991.95" y="-63.5" font-family="Helvetica,sans-Serif" font-size="10.00">SPIShiftRegisterOut.hpp</text>
</a>
</g>
</g>
<!-- Node9&#45;&gt;Node13 -->
<g id="edge15" class="edge">
<title>Node9&#45;&gt;Node13</title>
<path fill="none" stroke="midnightblue" d="M1841.71,-109.7C1877.57,-99.51 1929.52,-84.74 1961.98,-75.52"/>
<polygon fill="midnightblue" stroke="midnightblue" points="1840.72,-106.34 1832.05,-112.44 1842.63,-113.08 1840.72,-106.34"/>
</g>
<!-- Node11 -->
<g id="node11" class="node">
<title>Node11</title>
<g id="a_node11"><a xlink:href="../../de/d95/ShiftRegisterOut_8ipp.html" target="_top" xlink:title=" ">
<polygon fill="white" stroke="black" points="1791.95,-0.5 1791.95,-19.5 1905.95,-19.5 1905.95,-0.5 1791.95,-0.5"/>
<text text-anchor="middle" x="1848.95" y="-7.5" font-family="Helvetica,sans-Serif" font-size="10.00">ShiftRegisterOut.ipp</text>
</a>
</g>
</g>
<!-- Node10&#45;&gt;Node11 -->
<g id="edge11" class="edge">
<title>Node10&#45;&gt;Node11</title>
<path fill="none" stroke="midnightblue" d="M1842.48,-46.1C1841.84,-37.14 1842.29,-26.86 1843.82,-19.75"/>
<polygon fill="midnightblue" stroke="midnightblue" points="1839.01,-46.62 1843.78,-56.08 1845.95,-45.71 1839.01,-46.62"/>
</g>
<!-- Node11&#45;&gt;Node10 -->
<g id="edge12" class="edge">
<title>Node11&#45;&gt;Node10</title>
<path fill="none" stroke="midnightblue" d="M1855.41,-29.69C1856.05,-38.64 1855.62,-48.93 1854.11,-56.08"/>
<polygon fill="midnightblue" stroke="midnightblue" points="1858.87,-29.2 1854.08,-19.75 1851.93,-30.13 1858.87,-29.2"/>
</g>
<!-- Node12&#45;&gt;Node9 -->
<g id="edge14" class="edge">
<title>Node12&#45;&gt;Node9</title>
<path fill="none" stroke="midnightblue" d="M1733.14,-80.25C1752.81,-90.24 1777.16,-103.66 1791.16,-112.32"/>
<polygon fill="midnightblue" stroke="midnightblue" points="1734.44,-76.98 1723.92,-75.65 1731.31,-83.25 1734.44,-76.98"/>
</g>
<!-- Node14 -->
<g id="node14" class="node">
<title>Node14</title>
<g id="a_node14"><a xlink:href="../../da/d45/SPIShiftRegisterOut_8ipp.html" target="_top" xlink:title=" ">
<polygon fill="white" stroke="black" points="1927.45,-0.5 1927.45,-19.5 2056.45,-19.5 2056.45,-0.5 1927.45,-0.5"/>
<text text-anchor="middle" x="1991.95" y="-7.5" font-family="Helvetica,sans-Serif" font-size="10.00">SPIShiftRegisterOut.ipp</text>
</a>
</g>
</g>
<!-- Node13&#45;&gt;Node14 -->
<g id="edge16" class="edge">
<title>Node13&#45;&gt;Node14</title>
<path fill="none" stroke="midnightblue" d="M1985.48,-46.1C1984.84,-37.14 1985.29,-26.86 1986.82,-19.75"/>
<polygon fill="midnightblue" stroke="midnightblue" points="1982.01,-46.62 1986.78,-56.08 1988.95,-45.71 1982.01,-46.62"/>
</g>
<!-- Node14&#45;&gt;Node13 -->
<g id="edge17" class="edge">
<title>Node14&#45;&gt;Node13</title>
<path fill="none" stroke="midnightblue" d="M1998.41,-29.69C1999.05,-38.64 1998.62,-48.93 1997.11,-56.08"/>
<polygon fill="midnightblue" stroke="midnightblue" points="2001.87,-29.2 1997.08,-19.75 1994.93,-30.13 2001.87,-29.2"/>
</g>
<!-- Node16 -->
<g id="node16" class="node">
<title>Node16</title>
<g id="a_node16"><a xlink:href="../../d4/d40/Butterworth_8hpp.html" target="_top" xlink:title=" ">
<polygon fill="white" stroke="black" points="291.45,-224.5 291.45,-243.5 386.45,-243.5 386.45,-224.5 291.45,-224.5"/>
<text text-anchor="middle" x="338.95" y="-231.5" font-family="Helvetica,sans-Serif" font-size="10.00">Butterworth.hpp</text>
</a>
</g>
</g>
<!-- Node15&#45;&gt;Node16 -->
<g id="edge19" class="edge">
<title>Node15&#45;&gt;Node16</title>
<path fill="none" stroke="midnightblue" d="M338.95,-269.8C338.95,-260.91 338.95,-250.78 338.95,-243.75"/>
<polygon fill="midnightblue" stroke="midnightblue" points="335.45,-270.08 338.95,-280.08 342.45,-270.08 335.45,-270.08"/>
</g>
<!-- Node18 -->
<g id="node18" class="node">
<title>Node18</title>
<g id="a_node18"><a xlink:href="../../d2/d3c/Arduino-Hardware-Types_8hpp.html" target="_top" xlink:title=" ">
<polygon fill="white" stroke="black" points="992.45,-336.5 992.45,-355.5 1149.45,-355.5 1149.45,-336.5 992.45,-336.5"/>
<text text-anchor="middle" x="1070.95" y="-343.5" font-family="Helvetica,sans-Serif" font-size="10.00">Arduino&#45;Hardware&#45;Types.hpp</text>
</a>
</g>
</g>
<!-- Node17&#45;&gt;Node18 -->
<g id="edge22" class="edge">
<title>Node17&#45;&gt;Node18</title>
<path fill="none" stroke="midnightblue" d="M931.07,-389.44C964.63,-379.26 1012.72,-364.66 1042.88,-355.52"/>
<polygon fill="midnightblue" stroke="midnightblue" points="929.71,-386.19 921.15,-392.44 931.74,-392.89 929.71,-386.19"/>
</g>
<!-- Node27 -->
<g id="node27" class="node">
<title>Node27</title>
<g id="a_node27"><a xlink:href="../../d9/d4b/ButtonMatrix_8hpp.html" target="_top" xlink:title=" ">
<polygon fill="white" stroke="black" points="883.45,-168.5 883.45,-187.5 984.45,-187.5 984.45,-168.5 883.45,-168.5"/>
<text text-anchor="middle" x="933.95" y="-175.5" font-family="Helvetica,sans-Serif" font-size="10.00">ButtonMatrix.hpp</text>
</a>
</g>
</g>
<!-- Node17&#45;&gt;Node27 -->
<g id="edge51" class="edge">
<title>Node17&#45;&gt;Node27</title>
<path fill="none" stroke="midnightblue" d="M892.85,-381.94C893.15,-349.06 895.85,-279.8 911.95,-224 915.8,-210.63 923.43,-196.4 928.61,-187.6"/>
<polygon fill="midnightblue" stroke="midnightblue" points="889.35,-382.32 892.83,-392.32 896.35,-382.33 889.35,-382.32"/>
</g>
<!-- Node29 -->
<g id="node29" class="node">
<title>Node29</title>
<g id="a_node29"><a xlink:href="../../d4/d57/ExtendedIOElement_8hpp.html" target="_top" xlink:title=" ">
<polygon fill="white" stroke="black" points="654.95,-224.5 654.95,-243.5 788.95,-243.5 788.95,-224.5 654.95,-224.5"/>
<text text-anchor="middle" x="721.95" y="-231.5" font-family="Helvetica,sans-Serif" font-size="10.00">ExtendedIOElement.hpp</text>
</a>
</g>
</g>
<!-- Node17&#45;&gt;Node29 -->
<g id="edge52" class="edge">
<title>Node17&#45;&gt;Node29</title>
<path fill="none" stroke="midnightblue" d="M882.91,-383.65C867.68,-358.45 836.7,-311.31 800.95,-280 783.02,-264.3 758.75,-251.46 741.87,-243.58"/>
<polygon fill="midnightblue" stroke="midnightblue" points="880.01,-385.62 888.12,-392.44 886.03,-382.05 880.01,-385.62"/>
</g>
<!-- Node31 -->
<g id="node31" class="node">
<title>Node31</title>
<g id="a_node31"><a xlink:href="../../d8/df3/FilteredAnalog_8hpp.html" target="_top" xlink:title=" ">
<polygon fill="white" stroke="black" points="1806.95,-224.5 1806.95,-243.5 1914.95,-243.5 1914.95,-224.5 1806.95,-224.5"/>
<text text-anchor="middle" x="1860.95" y="-231.5" font-family="Helvetica,sans-Serif" font-size="10.00">FilteredAnalog.hpp</text>
</a>
</g>
</g>
<!-- Node17&#45;&gt;Node31 -->
<g id="edge53" class="edge">
<title>Node17&#45;&gt;Node31</title>
<path fill="none" stroke="midnightblue" d="M954.03,-390.72C1007.95,-381.64 1088.68,-368 1158.95,-356 1403.98,-314.16 1697,-263.43 1811.59,-243.56"/>
<polygon fill="midnightblue" stroke="midnightblue" points="953.23,-387.31 943.95,-392.42 954.39,-394.21 953.23,-387.31"/>
</g>
<!-- Node19 -->
<g id="node19" class="node">
<title>Node19</title>
<g id="a_node19"><a xlink:href="../../dd/ddf/ExtendedInputOutput_8hpp.html" target="_top" xlink:title=" ">
<polygon fill="white" stroke="black" points="1071.45,-280.5 1071.45,-299.5 1212.45,-299.5 1212.45,-280.5 1071.45,-280.5"/>
<text text-anchor="middle" x="1141.95" y="-287.5" font-family="Helvetica,sans-Serif" font-size="10.00">ExtendedInputOutput.hpp</text>
</a>
</g>
</g>
<!-- Node18&#45;&gt;Node19 -->
<g id="edge23" class="edge">
<title>Node18&#45;&gt;Node19</title>
<path fill="none" stroke="midnightblue" d="M1090.54,-330.1C1103.32,-320.38 1119.56,-308.03 1130.33,-299.83"/>
<polygon fill="midnightblue" stroke="midnightblue" points="1088.2,-327.48 1082.36,-336.32 1092.43,-333.06 1088.2,-327.48"/>
</g>
<!-- Node19&#45;&gt;Node5 -->
<g id="edge33" class="edge">
<title>Node19&#45;&gt;Node5</title>
<path fill="none" stroke="midnightblue" d="M1079.54,-278.82C1027.82,-270.18 952.44,-257.13 886.95,-244 847.2,-236.03 837.51,-232.84 797.95,-224 725.97,-207.91 689.79,-238.41 635.95,-188 619.99,-173.05 617.19,-145.51 616.85,-131.57"/>
<polygon fill="midnightblue" stroke="midnightblue" points="1079.12,-282.3 1089.56,-280.48 1080.27,-275.39 1079.12,-282.3"/>
</g>
<!-- Node19&#45;&gt;Node7 -->
<g id="edge39" class="edge">
<title>Node19&#45;&gt;Node7</title>
<path fill="none" stroke="midnightblue" d="M1061.38,-279.92C1005.2,-272.36 936.15,-260.2 911.95,-244 872.01,-217.25 859.39,-154.65 856.02,-131.66"/>
<polygon fill="midnightblue" stroke="midnightblue" points="1060.98,-283.4 1071.35,-281.24 1061.89,-276.46 1060.98,-283.4"/>
</g>
<!-- Node19&#45;&gt;Node9 -->
<g id="edge41" class="edge">
<title>Node19&#45;&gt;Node9</title>
<path fill="none" stroke="midnightblue" d="M1222.98,-284.48C1376.38,-275.68 1695.85,-256.03 1716.95,-244 1763.11,-217.68 1790.19,-154.81 1798.87,-131.71"/>
<polygon fill="midnightblue" stroke="midnightblue" points="1222.46,-281.01 1212.68,-285.07 1222.86,-287.99 1222.46,-281.01"/>
</g>
<!-- Node19&#45;&gt;Node11 -->
<g id="edge40" class="edge">
<title>Node19&#45;&gt;Node11</title>
<path fill="none" stroke="midnightblue" d="M1222.49,-281.68C1288.88,-274.74 1385.23,-262.58 1467.95,-244 1548.87,-225.82 1596.89,-254.87 1645.95,-188 1681.09,-140.1 1587.31,-101.96 1624.95,-56 1645.65,-30.72 1732.48,-19.34 1791.75,-14.44"/>
<polygon fill="midnightblue" stroke="midnightblue" points="1222.1,-278.2 1212.51,-282.71 1222.81,-285.17 1222.1,-278.2"/>
</g>
<!-- Node19&#45;&gt;Node12 -->
<g id="edge42" class="edge">
<title>Node19&#45;&gt;Node12</title>
<path fill="none" stroke="midnightblue" d="M1222.84,-287.7C1364.75,-284.63 1646.63,-274.71 1678.95,-244 1727.28,-198.08 1711.36,-104.45 1705.02,-75.63"/>
<polygon fill="midnightblue" stroke="midnightblue" points="1222.38,-284.21 1212.46,-287.92 1222.53,-291.21 1222.38,-284.21"/>
</g>
<!-- Node19&#45;&gt;Node14 -->
<g id="edge43" class="edge">
<title>Node19&#45;&gt;Node14</title>
<path fill="none" stroke="midnightblue" d="M1222.95,-286.96C1363.7,-282.74 1647.51,-271.09 1742.95,-244 1781.96,-232.93 2045.88,-110.65 2066.95,-76 2082.16,-50.97 2044.1,-30.52 2016.81,-19.6"/>
<polygon fill="midnightblue" stroke="midnightblue" points="1222.55,-283.47 1212.65,-287.26 1222.75,-290.46 1222.55,-283.47"/>
</g>
<!-- Node20 -->
<g id="node20" class="node">
<title>Node20</title>
<g id="a_node20"><a xlink:href="../../d4/db3/Button_8hpp.html" target="_top" xlink:title=" ">
<polygon fill="white" stroke="black" points="481.95,-224.5 481.95,-243.5 551.95,-243.5 551.95,-224.5 481.95,-224.5"/>
<text text-anchor="middle" x="516.95" y="-231.5" font-family="Helvetica,sans-Serif" font-size="10.00">Button.hpp</text>
</a>
</g>
</g>
<!-- Node19&#45;&gt;Node20 -->
<g id="edge24" class="edge">
<title>Node19&#45;&gt;Node20</title>
<path fill="none" stroke="midnightblue" d="M1061.1,-282.01C923.59,-270.13 649.6,-246.46 552.26,-238.05"/>
<polygon fill="midnightblue" stroke="midnightblue" points="1060.9,-285.51 1071.16,-282.88 1061.5,-278.54 1060.9,-285.51"/>
</g>
<!-- Node26 -->
<g id="node26" class="node">
<title>Node26</title>
<g id="a_node26"><a xlink:href="../../d5/d41/ButtonMatrix_8ipp.html" target="_top" xlink:title=" ">
<polygon fill="white" stroke="black" points="920.95,-224.5 920.95,-243.5 1018.95,-243.5 1018.95,-224.5 920.95,-224.5"/>
<text text-anchor="middle" x="969.95" y="-231.5" font-family="Helvetica,sans-Serif" font-size="10.00">ButtonMatrix.ipp</text>
</a>
</g>
</g>
<!-- Node19&#45;&gt;Node26 -->
<g id="edge30" class="edge">
<title>Node19&#45;&gt;Node26</title>
<path fill="none" stroke="midnightblue" d="M1105.12,-277.44C1072.69,-267.26 1026.21,-252.66 997.07,-243.52"/>
<polygon fill="midnightblue" stroke="midnightblue" points="1104.1,-280.79 1114.69,-280.44 1106.2,-274.11 1104.1,-280.79"/>
</g>
<!-- Node19&#45;&gt;Node28 -->
<g id="edge34" class="edge">
<title>Node19&#45;&gt;Node28</title>
<path fill="none" stroke="midnightblue" d="M1104.43,-276.23C1089.71,-269.16 1074.36,-258.75 1065.95,-244 1055.72,-226.05 1063.57,-200.77 1068.97,-187.66"/>
<polygon fill="midnightblue" stroke="midnightblue" points="1103.37,-279.58 1113.93,-280.4 1106.18,-273.17 1103.37,-279.58"/>
</g>
<!-- Node19&#45;&gt;Node29 -->
<g id="edge35" class="edge">
<title>Node19&#45;&gt;Node29</title>
<path fill="none" stroke="midnightblue" d="M1065.47,-279.17C986.17,-268.97 863.47,-253.2 788.19,-243.52"/>
<polygon fill="midnightblue" stroke="midnightblue" points="1065.03,-282.64 1075.4,-280.44 1065.93,-275.7 1065.03,-282.64"/>
</g>
<!-- Node19&#45;&gt;Node31 -->
<g id="edge44" class="edge">
<title>Node19&#45;&gt;Node31</title>
<path fill="none" stroke="midnightblue" d="M1222.99,-285.03C1346.26,-278.63 1588.2,-264.61 1792.95,-244 1797.45,-243.55 1802.11,-243.03 1806.79,-242.48"/>
<polygon fill="midnightblue" stroke="midnightblue" points="1222.68,-281.54 1212.87,-285.55 1223.04,-288.53 1222.68,-281.54"/>
</g>
<!-- Node32 -->
<g id="node32" class="node">
<title>Node32</title>
<g id="a_node32"><a xlink:href="../../d9/d4f/LEDs_8hpp.html" target="_top" xlink:title=" ">
<polygon fill="white" stroke="black" points="1226.95,-224.5 1226.95,-243.5 1288.95,-243.5 1288.95,-224.5 1226.95,-224.5"/>
<text text-anchor="middle" x="1257.95" y="-231.5" font-family="Helvetica,sans-Serif" font-size="10.00">LEDs.hpp</text>
</a>
</g>
</g>
<!-- Node19&#45;&gt;Node32 -->
<g id="edge45" class="edge">
<title>Node19&#45;&gt;Node32</title>
<path fill="none" stroke="midnightblue" d="M1169.67,-276.1C1191.34,-266.01 1220.85,-252.27 1239.65,-243.52"/>
<polygon fill="midnightblue" stroke="midnightblue" points="1167.92,-273.05 1160.33,-280.44 1170.87,-279.4 1167.92,-273.05"/>
</g>
<!-- Node34 -->
<g id="node34" class="node">
<title>Node34</title>
<g id="a_node34"><a xlink:href="../../d7/d13/MAX7219__Base_8hpp.html" target="_top" xlink:title=" ">
<polygon fill="white" stroke="black" points="1345.45,-224.5 1345.45,-243.5 1458.45,-243.5 1458.45,-224.5 1345.45,-224.5"/>
<text text-anchor="middle" x="1401.95" y="-231.5" font-family="Helvetica,sans-Serif" font-size="10.00">MAX7219_Base.hpp</text>
</a>
</g>
</g>
<!-- Node19&#45;&gt;Node34 -->
<g id="edge47" class="edge">
<title>Node19&#45;&gt;Node34</title>
<path fill="none" stroke="midnightblue" d="M1192.94,-278.41C1242.08,-268.2 1315.48,-252.96 1360.94,-243.52"/>
<polygon fill="midnightblue" stroke="midnightblue" points="1192.23,-274.98 1183.15,-280.44 1193.65,-281.84 1192.23,-274.98"/>
</g>
<!-- Node36 -->
<g id="node36" class="node">
<title>Node36</title>
<g id="a_node36"><a xlink:href="../../d8/dd2/MCP23017Encoders_8hpp.html" target="_top" xlink:title=" ">
<polygon fill="white" stroke="black" points="1074.95,-224.5 1074.95,-243.5 1208.95,-243.5 1208.95,-224.5 1074.95,-224.5"/>
<text text-anchor="middle" x="1141.95" y="-231.5" font-family="Helvetica,sans-Serif" font-size="10.00">MCP23017Encoders.hpp</text>
</a>
</g>
</g>
<!-- Node19&#45;&gt;Node36 -->
<g id="edge50" class="edge">
<title>Node19&#45;&gt;Node36</title>
<path fill="none" stroke="midnightblue" d="M1141.95,-269.8C1141.95,-260.91 1141.95,-250.78 1141.95,-243.75"/>
<polygon fill="midnightblue" stroke="midnightblue" points="1138.45,-270.08 1141.95,-280.08 1145.45,-270.08 1138.45,-270.08"/>
</g>
<!-- Node21 -->
<g id="node21" class="node">
<title>Node21</title>
<g id="a_node21"><a xlink:href="../../de/dd1/Button_8cpp.html" target="_top" xlink:title=" ">
<polygon fill="white" stroke="black" points="519.45,-168.5 519.45,-187.5 588.45,-187.5 588.45,-168.5 519.45,-168.5"/>
<text text-anchor="middle" x="553.95" y="-175.5" font-family="Helvetica,sans-Serif" font-size="10.00">Button.cpp</text>
</a>
</g>
</g>
<!-- Node20&#45;&gt;Node21 -->
<g id="edge25" class="edge">
<title>Node20&#45;&gt;Node21</title>
<path fill="none" stroke="midnightblue" d="M528.89,-215.57C535.26,-206.27 542.81,-195.25 547.95,-187.75"/>
<polygon fill="midnightblue" stroke="midnightblue" points="525.82,-213.86 523.06,-224.08 531.6,-217.81 525.82,-213.86"/>
</g>
<!-- Node22 -->
<g id="node22" class="node">
<title>Node22</title>
<g id="a_node22"><a xlink:href="../../d5/d04/IncrementButton_8hpp.html" target="_top" xlink:title=" ">
<polygon fill="white" stroke="black" points="32.45,-168.5 32.45,-187.5 151.45,-187.5 151.45,-168.5 32.45,-168.5"/>
<text text-anchor="middle" x="91.95" y="-175.5" font-family="Helvetica,sans-Serif" font-size="10.00">IncrementButton.hpp</text>
</a>
</g>
</g>
<!-- Node20&#45;&gt;Node22 -->
<g id="edge26" class="edge">
<title>Node20&#45;&gt;Node22</title>
<path fill="none" stroke="midnightblue" d="M471.98,-227.29C463.34,-226.2 454.37,-225.06 445.95,-224 318.84,-207.94 287.01,-204.4 159.95,-188 157.23,-187.65 154.45,-187.29 151.65,-186.92"/>
<polygon fill="midnightblue" stroke="midnightblue" points="471.56,-230.77 481.92,-228.55 472.44,-223.82 471.56,-230.77"/>
</g>
<!-- Node24 -->
<g id="node24" class="node">
<title>Node24</title>
<g id="a_node24"><a xlink:href="../../df/df5/IncrementDecrementButtons_8hpp.html" target="_top" xlink:title=" ">
<polygon fill="white" stroke="black" points="169.45,-168.5 169.45,-187.5 348.45,-187.5 348.45,-168.5 169.45,-168.5"/>
<text text-anchor="middle" x="258.95" y="-175.5" font-family="Helvetica,sans-Serif" font-size="10.00">IncrementDecrementButtons.hpp</text>
</a>
</g>
</g>
<!-- Node20&#45;&gt;Node24 -->
<g id="edge28" class="edge">
<title>Node20&#45;&gt;Node24</title>
<path fill="none" stroke="midnightblue" d="M471.97,-223.59C423.44,-213.43 346.81,-197.39 299.9,-187.57"/>
<polygon fill="midnightblue" stroke="midnightblue" points="471.38,-227.04 481.88,-225.66 472.81,-220.19 471.38,-227.04"/>
</g>
<!-- Node23 -->
<g id="node23" class="node">
<title>Node23</title>
<g id="a_node23"><a xlink:href="../../db/d9d/IncrementButton_8cpp.html" target="_top" xlink:title=" ">
<polygon fill="white" stroke="black" points="32.45,-112.5 32.45,-131.5 151.45,-131.5 151.45,-112.5 32.45,-112.5"/>
<text text-anchor="middle" x="91.95" y="-119.5" font-family="Helvetica,sans-Serif" font-size="10.00">IncrementButton.cpp</text>
</a>
</g>
</g>
<!-- Node22&#45;&gt;Node23 -->
<g id="edge27" class="edge">
<title>Node22&#45;&gt;Node23</title>
<path fill="none" stroke="midnightblue" d="M91.95,-157.8C91.95,-148.91 91.95,-138.78 91.95,-131.75"/>
<polygon fill="midnightblue" stroke="midnightblue" points="88.45,-158.08 91.95,-168.08 95.45,-158.08 88.45,-158.08"/>
</g>
<!-- Node25 -->
<g id="node25" class="node">
<title>Node25</title>
<g id="a_node25"><a xlink:href="../../da/d66/IncrementDecrementButtons_8cpp.html" target="_top" xlink:title=" ">
<polygon fill="white" stroke="black" points="169.95,-112.5 169.95,-131.5 347.95,-131.5 347.95,-112.5 169.95,-112.5"/>
<text text-anchor="middle" x="258.95" y="-119.5" font-family="Helvetica,sans-Serif" font-size="10.00">IncrementDecrementButtons.cpp</text>
</a>
</g>
</g>
<!-- Node24&#45;&gt;Node25 -->
<g id="edge29" class="edge">
<title>Node24&#45;&gt;Node25</title>
<path fill="none" stroke="midnightblue" d="M258.95,-157.8C258.95,-148.91 258.95,-138.78 258.95,-131.75"/>
<polygon fill="midnightblue" stroke="midnightblue" points="255.45,-158.08 258.95,-168.08 262.45,-158.08 255.45,-158.08"/>
</g>
<!-- Node26&#45;&gt;Node27 -->
<g id="edge31" class="edge">
<title>Node26&#45;&gt;Node27</title>
<path fill="none" stroke="midnightblue" d="M952.4,-216.14C945.27,-206.74 938.11,-195.4 934.65,-187.75"/>
<polygon fill="midnightblue" stroke="midnightblue" points="949.82,-218.52 958.84,-224.08 955.26,-214.11 949.82,-218.52"/>
</g>
<!-- Node27&#45;&gt;Node26 -->
<g id="edge32" class="edge">
<title>Node27&#45;&gt;Node26</title>
<path fill="none" stroke="midnightblue" d="M951.34,-195.65C958.47,-205.03 965.66,-216.38 969.17,-224.08"/>
<polygon fill="midnightblue" stroke="midnightblue" points="953.94,-193.3 944.91,-187.75 948.51,-197.72 953.94,-193.3"/>
</g>
<!-- Node29&#45;&gt;Node4 -->
<g id="edge38" class="edge">
<title>Node29&#45;&gt;Node4</title>
<path fill="none" stroke="midnightblue" d="M726.77,-214.4C729.11,-205.36 731.82,-194.94 733.68,-187.75"/>
<polygon fill="midnightblue" stroke="midnightblue" points="723.38,-213.52 724.26,-224.08 730.16,-215.28 723.38,-213.52"/>
</g>
<!-- Node29&#45;&gt;Node28 -->
<g id="edge36" class="edge">
<title>Node29&#45;&gt;Node28</title>
<path fill="none" stroke="midnightblue" d="M787.49,-222.92C853.8,-212.71 955.18,-197.12 1017.59,-187.52"/>
<polygon fill="midnightblue" stroke="midnightblue" points="786.92,-219.46 777.57,-224.44 787.98,-226.38 786.92,-219.46"/>
</g>
<!-- Node29&#45;&gt;Node30 -->
<g id="edge37" class="edge">
<title>Node29&#45;&gt;Node30</title>
<path fill="none" stroke="midnightblue" d="M666.15,-222.54C611.72,-212.33 529.94,-197 479.37,-187.52"/>
<polygon fill="midnightblue" stroke="midnightblue" points="665.84,-226.04 676.31,-224.44 667.13,-219.16 665.84,-226.04"/>
</g>
<!-- Node33 -->
<g id="node33" class="node">
<title>Node33</title>
<g id="a_node33"><a xlink:href="../../d6/d3a/DotBarDisplayLEDs_8hpp.html" target="_top" xlink:title=" ">
<polygon fill="white" stroke="black" points="1160.95,-168.5 1160.95,-187.5 1292.95,-187.5 1292.95,-168.5 1160.95,-168.5"/>
<text text-anchor="middle" x="1226.95" y="-175.5" font-family="Helvetica,sans-Serif" font-size="10.00">DotBarDisplayLEDs.hpp</text>
</a>
</g>
</g>
<!-- Node32&#45;&gt;Node33 -->
<g id="edge46" class="edge">
<title>Node32&#45;&gt;Node33</title>
<path fill="none" stroke="midnightblue" d="M1247.77,-215.27C1242.47,-206.05 1236.23,-195.17 1231.97,-187.75"/>
<polygon fill="midnightblue" stroke="midnightblue" points="1244.81,-217.15 1252.83,-224.08 1250.89,-213.67 1244.81,-217.15"/>
</g>
<!-- Node34&#45;&gt;Node6 -->
<g id="edge48" class="edge">
<title>Node34&#45;&gt;Node6</title>
<path fill="none" stroke="midnightblue" d="M1375.94,-219.05C1363.76,-211.35 1349.99,-200.75 1340.95,-188 1328.52,-170.47 1323.65,-145.01 1321.88,-131.76"/>
<polygon fill="midnightblue" stroke="midnightblue" points="1374.45,-222.24 1384.83,-224.37 1378.04,-216.24 1374.45,-222.24"/>
</g>
<!-- Node35 -->
<g id="node35" class="node">
<title>Node35</title>
<g id="a_node35"><a xlink:href="../../d5/d0c/MAX7219SevenSegmentDisplay_8hpp.html" target="_top" xlink:title=" ">
<polygon fill="white" stroke="black" points="1349.45,-168.5 1349.45,-187.5 1542.45,-187.5 1542.45,-168.5 1349.45,-168.5"/>
<text text-anchor="middle" x="1445.95" y="-175.5" font-family="Helvetica,sans-Serif" font-size="10.00">MAX7219SevenSegmentDisplay.hpp</text>
</a>
</g>
</g>
<!-- Node34&#45;&gt;Node35 -->
<g id="edge49" class="edge">
<title>Node34&#45;&gt;Node35</title>
<path fill="none" stroke="midnightblue" d="M1415.68,-216.14C1423.35,-206.74 1432.58,-195.4 1438.82,-187.75"/>
<polygon fill="midnightblue" stroke="midnightblue" points="1412.82,-214.12 1409.21,-224.08 1418.24,-218.54 1412.82,-214.12"/>
</g>
<!-- Node37&#45;&gt;Node15 -->
<g id="edge55" class="edge">
<title>Node37&#45;&gt;Node15</title>
<path fill="none" stroke="midnightblue" d="M317.45,-327.27C322.92,-318.05 329.37,-307.17 333.76,-299.75"/>
<polygon fill="midnightblue" stroke="midnightblue" points="314.32,-325.7 312.23,-336.08 320.34,-329.26 314.32,-325.7"/>
</g>
<!-- Node39 -->
<g id="node39" class="node">
<title>Node39</title>
<g id="a_node39"><a xlink:href="../../df/da1/Notch_8hpp.html" target="_top" xlink:title=" ">
<polygon fill="white" stroke="black" points="491.95,-336.5 491.95,-355.5 557.95,-355.5 557.95,-336.5 491.95,-336.5"/>
<text text-anchor="middle" x="524.95" y="-343.5" font-family="Helvetica,sans-Serif" font-size="10.00">Notch.hpp</text>
</a>
</g>
</g>
<!-- Node38&#45;&gt;Node39 -->
<g id="edge57" class="edge">
<title>Node38&#45;&gt;Node39</title>
<path fill="none" stroke="midnightblue" d="M538.17,-382.69C534.8,-373.59 530.88,-363.01 528.19,-355.75"/>
<polygon fill="midnightblue" stroke="midnightblue" points="534.89,-383.92 541.65,-392.08 541.45,-381.49 534.89,-383.92"/>
</g>
<!-- Node42&#45;&gt;Node37 -->
<g id="edge61" class="edge">
<title>Node42&#45;&gt;Node37</title>
<path fill="none" stroke="midnightblue" d="M338.83,-384.43C330.77,-374.97 320.99,-363.48 314.4,-355.75"/>
<polygon fill="midnightblue" stroke="midnightblue" points="336.2,-386.74 345.35,-392.08 341.53,-382.2 336.2,-386.74"/>
</g>
<!-- Node42&#45;&gt;Node40 -->
<g id="edge62" class="edge">
<title>Node42&#45;&gt;Node40</title>
<path fill="none" stroke="midnightblue" d="M367.06,-384.43C375.12,-374.97 384.91,-363.48 391.49,-355.75"/>
<polygon fill="midnightblue" stroke="midnightblue" points="364.36,-382.2 360.54,-392.08 369.69,-386.74 364.36,-382.2"/>
</g>
<!-- Node43&#45;&gt;Node6 -->
<g id="edge64" class="edge">
<title>Node43&#45;&gt;Node6</title>
<path fill="none" stroke="midnightblue" d="M1551.05,-167.7C1498.1,-157.41 1413.63,-141 1363.1,-131.19"/>
<polygon fill="midnightblue" stroke="midnightblue" points="1550.39,-171.13 1560.88,-169.6 1551.73,-164.26 1550.39,-171.13"/>
</g>
<!-- Node43&#45;&gt;Node7 -->
<g id="edge65" class="edge">
<title>Node43&#45;&gt;Node7</title>
<path fill="none" stroke="midnightblue" d="M1550.73,-168.01C1299.08,-136.48 1008.93,-126.7 899.57,-123.95"/>
<polygon fill="midnightblue" stroke="midnightblue" points="1550.43,-171.5 1560.79,-169.28 1551.31,-164.55 1550.43,-171.5"/>
</g>
<!-- Node43&#45;&gt;Node9 -->
<g id="edge66" class="edge">
<title>Node43&#45;&gt;Node9</title>
<path fill="none" stroke="midnightblue" d="M1640.94,-165.83C1679.27,-155.63 1735.1,-140.78 1769.93,-131.52"/>
<polygon fill="midnightblue" stroke="midnightblue" points="1639.88,-162.49 1631.11,-168.44 1641.68,-169.26 1639.88,-162.49"/>
</g>
<!-- Node44&#45;&gt;Node29 -->
<g id="edge68" class="edge">
<title>Node44&#45;&gt;Node29</title>
<path fill="none" stroke="midnightblue" d="M739.27,-270.98C734.86,-261.82 729.7,-251.09 726.16,-243.75"/>
<polygon fill="midnightblue" stroke="midnightblue" points="736.16,-272.59 743.65,-280.08 742.47,-269.55 736.16,-272.59"/>
</g>
</g>
</svg>
