<?xml version="1.0" encoding="UTF-8" standalone="no"?>
<!DOCTYPE svg PUBLIC "-//W3C//DTD SVG 1.1//EN"
 "http://www.w3.org/Graphics/SVG/1.1/DTD/svg11.dtd">
<!-- Generated by graphviz version 2.38.0 (20140413.2041)
 -->
<!-- Title: Error.hpp Pages: 1 -->
<svg width="1552pt" height="420pt"
 viewBox="0.00 0.00 1551.50 420.00" xmlns="http://www.w3.org/2000/svg" xmlns:xlink="http://www.w3.org/1999/xlink">
<g id="graph0" class="graph" transform="scale(1 1) rotate(0) translate(4 416)">
<title>Error.hpp</title>
<polygon fill="white" stroke="none" points="-4,4 -4,-416 1547.5,-416 1547.5,4 -4,4"/>
<!-- Node1 -->
<g id="node1" class="node"><title>Node1</title>
<g id="a_node1"><a xlink:title=" ">
<polygon fill="#bfbfbf" stroke="black" points="743.5,-392.5 743.5,-411.5 799.5,-411.5 799.5,-392.5 743.5,-392.5"/>
<text text-anchor="middle" x="771.5" y="-399.5" font-family="Helvetica,sans-Serif" font-size="10.00">Error.hpp</text>
</a>
</g>
</g>
<!-- Node2 -->
<g id="node2" class="node"><title>Node2</title>
<g id="a_node2"><a xlink:href="../../de/d76/Array_8hpp.html" target="_top" xlink:title=" ">
<polygon fill="white" stroke="black" points="386,-336.5 386,-355.5 445,-355.5 445,-336.5 386,-336.5"/>
<text text-anchor="middle" x="415.5" y="-343.5" font-family="Helvetica,sans-Serif" font-size="10.00">Array.hpp</text>
</a>
</g>
</g>
<!-- Node1&#45;&gt;Node2 -->
<g id="edge1" class="edge"><title>Node1&#45;&gt;Node2</title>
<path fill="none" stroke="midnightblue" d="M733.343,-395.212C661.961,-384.384 509.634,-361.279 445.232,-351.51"/>
<polygon fill="midnightblue" stroke="midnightblue" points="732.856,-398.678 743.268,-396.718 733.906,-391.757 732.856,-398.678"/>
</g>
<!-- Node26 -->
<g id="node26" class="node"><title>Node26</title>
<g id="a_node26"><a xlink:href="../../d6/d3c/ExtendedInputOutput_8cpp.html" target="_top" xlink:title=" ">
<polygon fill="white" stroke="black" points="648.5,-112.5 648.5,-131.5 776.5,-131.5 776.5,-112.5 648.5,-112.5"/>
<text text-anchor="middle" x="712.5" y="-119.5" font-family="Helvetica,sans-Serif" font-size="10.00">ExtendedInputOutput.cpp</text>
</a>
</g>
</g>
<!-- Node1&#45;&gt;Node26 -->
<g id="edge61" class="edge"><title>Node1&#45;&gt;Node26</title>
<path fill="none" stroke="midnightblue" d="M771.5,-382.251C771.5,-360.357 771.5,-323.052 771.5,-291 771.5,-291 771.5,-291 771.5,-233 771.5,-190.742 737.267,-149.038 720.953,-131.562"/>
<polygon fill="midnightblue" stroke="midnightblue" points="768,-382.442 771.5,-392.442 775,-382.442 768,-382.442"/>
</g>
<!-- Node32 -->
<g id="node32" class="node"><title>Node32</title>
<g id="a_node32"><a xlink:href="../../da/d1f/ExtendedIOElement_8cpp.html" target="_top" xlink:title=" ">
<polygon fill="white" stroke="black" points="216,-168.5 216,-187.5 339,-187.5 339,-168.5 216,-168.5"/>
<text text-anchor="middle" x="277.5" y="-175.5" font-family="Helvetica,sans-Serif" font-size="10.00">ExtendedIOElement.cpp</text>
</a>
</g>
</g>
<!-- Node1&#45;&gt;Node32 -->
<g id="edge62" class="edge"><title>Node1&#45;&gt;Node32</title>
<path fill="none" stroke="midnightblue" d="M733.035,-399.331C612.802,-393.418 246.6,-369.924 154.5,-300 125.31,-277.838 100.492,-253.306 122.5,-224 134.867,-207.531 184.139,-195.138 223.855,-187.57"/>
<polygon fill="midnightblue" stroke="midnightblue" points="733.079,-402.837 743.235,-399.819 733.414,-395.845 733.079,-402.837"/>
</g>
<!-- Node39 -->
<g id="node39" class="node"><title>Node39</title>
<g id="a_node39"><a xlink:href="../../d1/d40/BitArray_8hpp.html" target="_top" xlink:title=" ">
<polygon fill="white" stroke="black" points="30,-168.5 30,-187.5 101,-187.5 101,-168.5 30,-168.5"/>
<text text-anchor="middle" x="65.5" y="-175.5" font-family="Helvetica,sans-Serif" font-size="10.00">BitArray.hpp</text>
</a>
</g>
</g>
<!-- Node1&#45;&gt;Node39 -->
<g id="edge55" class="edge"><title>Node1&#45;&gt;Node39</title>
<path fill="none" stroke="midnightblue" d="M733.152,-399.734C626.691,-395.911 329.179,-383.045 235.5,-356 183.552,-341.003 165.64,-338.325 127.5,-300 93.5336,-265.869 74.3305,-209.298 67.9307,-187.724"/>
<polygon fill="midnightblue" stroke="midnightblue" points="733.311,-403.242 743.428,-400.096 733.558,-396.246 733.311,-403.242"/>
</g>
<!-- Node40 -->
<g id="node40" class="node"><title>Node40</title>
<g id="a_node40"><a xlink:href="../../d4/d93/Updatable_8hpp.html" target="_top" xlink:title=" ">
<polygon fill="white" stroke="black" points="799.5,-336.5 799.5,-355.5 879.5,-355.5 879.5,-336.5 799.5,-336.5"/>
<text text-anchor="middle" x="839.5" y="-343.5" font-family="Helvetica,sans-Serif" font-size="10.00">Updatable.hpp</text>
</a>
</g>
</g>
<!-- Node1&#45;&gt;Node40 -->
<g id="edge59" class="edge"><title>Node1&#45;&gt;Node40</title>
<path fill="none" stroke="midnightblue" d="M790.262,-386.101C802.5,-376.382 818.059,-364.027 828.376,-355.834"/>
<polygon fill="midnightblue" stroke="midnightblue" points="788.08,-383.364 782.425,-392.324 792.433,-388.846 788.08,-383.364"/>
</g>
<!-- Node41 -->
<g id="node41" class="node"><title>Node41</title>
<g id="a_node41"><a xlink:href="../../d6/df4/Exit_8cpp.html" target="_top" xlink:title=" ">
<polygon fill="white" stroke="black" points="898,-336.5 898,-355.5 951,-355.5 951,-336.5 898,-336.5"/>
<text text-anchor="middle" x="924.5" y="-343.5" font-family="Helvetica,sans-Serif" font-size="10.00">Exit.cpp</text>
</a>
</g>
</g>
<!-- Node1&#45;&gt;Node41 -->
<g id="edge60" class="edge"><title>Node1&#45;&gt;Node41</title>
<path fill="none" stroke="midnightblue" d="M805.389,-389.039C834.177,-378.879 874.787,-364.546 900.37,-355.516"/>
<polygon fill="midnightblue" stroke="midnightblue" points="804.008,-385.815 795.743,-392.444 806.338,-392.416 804.008,-385.815"/>
</g>
<!-- Node42 -->
<g id="node42" class="node"><title>Node42</title>
<g id="a_node42"><a xlink:href="../../d3/d50/FixedPoint_8hpp.html" target="_top" xlink:title=" ">
<polygon fill="white" stroke="black" points="969.5,-336.5 969.5,-355.5 1051.5,-355.5 1051.5,-336.5 969.5,-336.5"/>
<text text-anchor="middle" x="1010.5" y="-343.5" font-family="Helvetica,sans-Serif" font-size="10.00">FixedPoint.hpp</text>
</a>
</g>
</g>
<!-- Node1&#45;&gt;Node42 -->
<g id="edge63" class="edge"><title>Node1&#45;&gt;Node42</title>
<path fill="none" stroke="midnightblue" d="M809.765,-392.354C854.538,-382.238 928.204,-365.594 972.753,-355.529"/>
<polygon fill="midnightblue" stroke="midnightblue" points="808.838,-388.976 799.855,-394.593 810.38,-395.803 808.838,-388.976"/>
</g>
<!-- Node3 -->
<g id="node3" class="node"><title>Node3</title>
<g id="a_node3"><a xlink:href="../../d5/db6/ArrayHelpers_8hpp.html" target="_top" xlink:title=" ">
<polygon fill="white" stroke="black" points="307.5,-224.5 307.5,-243.5 399.5,-243.5 399.5,-224.5 307.5,-224.5"/>
<text text-anchor="middle" x="353.5" y="-231.5" font-family="Helvetica,sans-Serif" font-size="10.00">ArrayHelpers.hpp</text>
</a>
</g>
</g>
<!-- Node2&#45;&gt;Node3 -->
<g id="edge2" class="edge"><title>Node2&#45;&gt;Node3</title>
<path fill="none" stroke="midnightblue" d="M395.487,-329.829C386.305,-321.886 376.032,-311.439 369.5,-300 359.011,-281.633 355.349,-256.528 354.109,-243.55"/>
<polygon fill="midnightblue" stroke="midnightblue" points="393.522,-332.744 403.475,-336.377 397.96,-327.33 393.522,-332.744"/>
</g>
<!-- Node5 -->
<g id="node5" class="node"><title>Node5</title>
<g id="a_node5"><a xlink:href="../../d7/def/AnalogMultiplex_8hpp.html" target="_top" xlink:title=" ">
<polygon fill="white" stroke="black" points="420.5,-112.5 420.5,-131.5 524.5,-131.5 524.5,-112.5 420.5,-112.5"/>
<text text-anchor="middle" x="472.5" y="-119.5" font-family="Helvetica,sans-Serif" font-size="10.00">AnalogMultiplex.hpp</text>
</a>
</g>
</g>
<!-- Node2&#45;&gt;Node5 -->
<g id="edge17" class="edge"><title>Node2&#45;&gt;Node5</title>
<path fill="none" stroke="midnightblue" d="M455.382,-341.712C483.156,-337.102 518.353,-326.111 536.5,-300 551.144,-278.93 613.695,-319.968 534.5,-168 525.649,-151.016 507.138,-138.9 492.635,-131.55"/>
<polygon fill="midnightblue" stroke="midnightblue" points="454.55,-338.295 445.151,-343.185 455.548,-345.224 454.55,-338.295"/>
</g>
<!-- Node15 -->
<g id="node15" class="node"><title>Node15</title>
<g id="a_node15"><a xlink:href="../../d4/d35/Hardware-Types_8hpp.html" target="_top" xlink:title=" ">
<polygon fill="white" stroke="black" points="608,-280.5 608,-299.5 715,-299.5 715,-280.5 608,-280.5"/>
<text text-anchor="middle" x="661.5" y="-287.5" font-family="Helvetica,sans-Serif" font-size="10.00">Hardware&#45;Types.hpp</text>
</a>
</g>
</g>
<!-- Node2&#45;&gt;Node15 -->
<g id="edge18" class="edge"><title>Node2&#45;&gt;Node15</title>
<path fill="none" stroke="midnightblue" d="M455.084,-336.311C501.103,-326.209 576.583,-309.64 622.396,-299.584"/>
<polygon fill="midnightblue" stroke="midnightblue" points="454.19,-332.924 445.173,-338.486 455.691,-339.761 454.19,-332.924"/>
</g>
<!-- Node33 -->
<g id="node33" class="node"><title>Node33</title>
<g id="a_node33"><a xlink:href="../../d1/dde/BiQuad_8hpp.html" target="_top" xlink:title=" ">
<polygon fill="white" stroke="black" points="131.5,-224.5 131.5,-243.5 199.5,-243.5 199.5,-224.5 131.5,-224.5"/>
<text text-anchor="middle" x="165.5" y="-231.5" font-family="Helvetica,sans-Serif" font-size="10.00">BiQuad.hpp</text>
</a>
</g>
</g>
<!-- Node2&#45;&gt;Node33 -->
<g id="edge46" class="edge"><title>Node2&#45;&gt;Node33</title>
<path fill="none" stroke="midnightblue" d="M375.688,-343.81C312.038,-340.977 191.826,-331.488 165.5,-300 152.182,-284.07 158.008,-257.46 162.339,-243.752"/>
<polygon fill="midnightblue" stroke="midnightblue" points="375.631,-347.311 385.767,-344.224 375.919,-340.317 375.631,-347.311"/>
</g>
<!-- Node34 -->
<g id="node34" class="node"><title>Node34</title>
<g id="a_node34"><a xlink:href="../../d2/d3b/FIRFilter_8hpp.html" target="_top" xlink:title=" ">
<polygon fill="white" stroke="black" points="378.5,-280.5 378.5,-299.5 452.5,-299.5 452.5,-280.5 378.5,-280.5"/>
<text text-anchor="middle" x="415.5" y="-287.5" font-family="Helvetica,sans-Serif" font-size="10.00">FIRFilter.hpp</text>
</a>
</g>
</g>
<!-- Node2&#45;&gt;Node34 -->
<g id="edge48" class="edge"><title>Node2&#45;&gt;Node34</title>
<path fill="none" stroke="midnightblue" d="M415.5,-325.805C415.5,-316.91 415.5,-306.78 415.5,-299.751"/>
<polygon fill="midnightblue" stroke="midnightblue" points="412,-326.083 415.5,-336.083 419,-326.083 412,-326.083"/>
</g>
<!-- Node36 -->
<g id="node36" class="node"><title>Node36</title>
<g id="a_node36"><a xlink:href="../../dc/d64/IIRFilter_8hpp.html" target="_top" xlink:title=" ">
<polygon fill="white" stroke="black" points="218,-224.5 218,-243.5 289,-243.5 289,-224.5 218,-224.5"/>
<text text-anchor="middle" x="253.5" y="-231.5" font-family="Helvetica,sans-Serif" font-size="10.00">IIRFilter.hpp</text>
</a>
</g>
</g>
<!-- Node2&#45;&gt;Node36 -->
<g id="edge50" class="edge"><title>Node2&#45;&gt;Node36</title>
<path fill="none" stroke="midnightblue" d="M394.461,-330.714C360.324,-307.535 293.897,-262.43 266.153,-243.591"/>
<polygon fill="midnightblue" stroke="midnightblue" points="392.549,-333.647 402.788,-336.368 396.481,-327.855 392.549,-333.647"/>
</g>
<!-- Node37 -->
<g id="node37" class="node"><title>Node37</title>
<g id="a_node37"><a xlink:href="../../dc/d9c/SMA_8hpp.html" target="_top" xlink:title=" ">
<polygon fill="white" stroke="black" points="471,-280.5 471,-299.5 528,-299.5 528,-280.5 471,-280.5"/>
<text text-anchor="middle" x="499.5" y="-287.5" font-family="Helvetica,sans-Serif" font-size="10.00">SMA.hpp</text>
</a>
</g>
</g>
<!-- Node2&#45;&gt;Node37 -->
<g id="edge51" class="edge"><title>Node2&#45;&gt;Node37</title>
<path fill="none" stroke="midnightblue" d="M437.432,-330.901C452.835,-320.999 472.946,-308.071 486.037,-299.655"/>
<polygon fill="midnightblue" stroke="midnightblue" points="435.515,-327.972 428.996,-336.324 439.301,-333.86 435.515,-327.972"/>
</g>
<!-- Node38 -->
<g id="node38" class="node"><title>Node38</title>
<g id="a_node38"><a xlink:href="../../d2/d03/TransferFunction_8hpp.html" target="_top" xlink:title=" ">
<polygon fill="white" stroke="black" points="175,-280.5 175,-299.5 284,-299.5 284,-280.5 175,-280.5"/>
<text text-anchor="middle" x="229.5" y="-287.5" font-family="Helvetica,sans-Serif" font-size="10.00">TransferFunction.hpp</text>
</a>
</g>
</g>
<!-- Node2&#45;&gt;Node38 -->
<g id="edge52" class="edge"><title>Node2&#45;&gt;Node38</title>
<path fill="none" stroke="midnightblue" d="M376.122,-333.568C341.034,-323.381 290.479,-308.703 258.834,-299.516"/>
<polygon fill="midnightblue" stroke="midnightblue" points="375.448,-337.017 386.028,-336.444 377.4,-330.294 375.448,-337.017"/>
</g>
<!-- Node4 -->
<g id="node4" class="node"><title>Node4</title>
<g id="a_node4"><a xlink:href="../../d2/d05/StaticSizeExtendedIOElement_8hpp.html" target="_top" xlink:title=" ">
<polygon fill="white" stroke="black" points="357.5,-168.5 357.5,-187.5 525.5,-187.5 525.5,-168.5 357.5,-168.5"/>
<text text-anchor="middle" x="441.5" y="-175.5" font-family="Helvetica,sans-Serif" font-size="10.00">StaticSizeExtendedIOElement.hpp</text>
</a>
</g>
</g>
<!-- Node3&#45;&gt;Node4 -->
<g id="edge3" class="edge"><title>Node3&#45;&gt;Node4</title>
<path fill="none" stroke="midnightblue" d="M376.477,-218.901C392.613,-208.999 413.681,-196.071 427.396,-187.655"/>
<polygon fill="midnightblue" stroke="midnightblue" points="374.331,-216.111 367.639,-224.324 377.993,-222.077 374.331,-216.111"/>
</g>
<!-- Node13 -->
<g id="node13" class="node"><title>Node13</title>
<g id="a_node13"><a xlink:href="../../df/ddc/SOSFilter_8hpp.html" target="_top" xlink:title=" ">
<polygon fill="white" stroke="black" points="119.5,-168.5 119.5,-187.5 197.5,-187.5 197.5,-168.5 119.5,-168.5"/>
<text text-anchor="middle" x="158.5" y="-175.5" font-family="Helvetica,sans-Serif" font-size="10.00">SOSFilter.hpp</text>
</a>
</g>
</g>
<!-- Node3&#45;&gt;Node13 -->
<g id="edge15" class="edge"><title>Node3&#45;&gt;Node13</title>
<path fill="none" stroke="midnightblue" d="M312.69,-221.699C275.887,-211.507 222.571,-196.743 189.254,-187.516"/>
<polygon fill="midnightblue" stroke="midnightblue" points="312.03,-225.148 322.602,-224.444 313.898,-218.402 312.03,-225.148"/>
</g>
<!-- Node4&#45;&gt;Node5 -->
<g id="edge4" class="edge"><title>Node4&#45;&gt;Node5</title>
<path fill="none" stroke="midnightblue" d="M451.676,-159.275C456.974,-150.045 463.217,-139.17 467.476,-131.751"/>
<polygon fill="midnightblue" stroke="midnightblue" points="448.562,-157.668 446.619,-168.083 454.633,-161.153 448.562,-157.668"/>
</g>
<!-- Node6 -->
<g id="node6" class="node"><title>Node6</title>
<g id="a_node6"><a xlink:href="../../d2/d25/MAX7219_8hpp.html" target="_top" xlink:title=" ">
<polygon fill="white" stroke="black" points="415.5,-56.5 415.5,-75.5 493.5,-75.5 493.5,-56.5 415.5,-56.5"/>
<text text-anchor="middle" x="454.5" y="-63.5" font-family="Helvetica,sans-Serif" font-size="10.00">MAX7219.hpp</text>
</a>
</g>
</g>
<!-- Node4&#45;&gt;Node6 -->
<g id="edge5" class="edge"><title>Node4&#45;&gt;Node6</title>
<path fill="none" stroke="midnightblue" d="M425.906,-160.643C415.456,-147.62 404.746,-128.844 411.5,-112 417.613,-96.755 431.626,-83.7492 442.003,-75.698"/>
<polygon fill="midnightblue" stroke="midnightblue" points="423.35,-163.038 432.549,-168.293 428.635,-158.448 423.35,-163.038"/>
</g>
<!-- Node7 -->
<g id="node7" class="node"><title>Node7</title>
<g id="a_node7"><a xlink:href="../../d8/d93/ShiftRegisterOutBase_8hpp.html" target="_top" xlink:title=" ">
<polygon fill="white" stroke="black" points="91,-112.5 91,-131.5 222,-131.5 222,-112.5 91,-112.5"/>
<text text-anchor="middle" x="156.5" y="-119.5" font-family="Helvetica,sans-Serif" font-size="10.00">ShiftRegisterOutBase.hpp</text>
</a>
</g>
</g>
<!-- Node4&#45;&gt;Node7 -->
<g id="edge6" class="edge"><title>Node4&#45;&gt;Node7</title>
<path fill="none" stroke="midnightblue" d="M386.279,-166.537C332.417,-156.332 251.496,-140.999 201.448,-131.516"/>
<polygon fill="midnightblue" stroke="midnightblue" points="385.864,-170.021 396.341,-168.444 387.167,-163.143 385.864,-170.021"/>
</g>
<!-- Node8 -->
<g id="node8" class="node"><title>Node8</title>
<g id="a_node8"><a xlink:href="../../d0/db4/ShiftRegisterOut_8hpp.html" target="_top" xlink:title=" ">
<polygon fill="white" stroke="black" points="143.5,-56.5 143.5,-75.5 251.5,-75.5 251.5,-56.5 143.5,-56.5"/>
<text text-anchor="middle" x="197.5" y="-63.5" font-family="Helvetica,sans-Serif" font-size="10.00">ShiftRegisterOut.hpp</text>
</a>
</g>
</g>
<!-- Node7&#45;&gt;Node8 -->
<g id="edge7" class="edge"><title>Node7&#45;&gt;Node8</title>
<path fill="none" stroke="midnightblue" d="M169.517,-103.855C176.617,-94.5048 185.104,-83.3265 190.856,-75.7511"/>
<polygon fill="midnightblue" stroke="midnightblue" points="166.53,-102.002 163.27,-112.083 172.105,-106.235 166.53,-102.002"/>
</g>
<!-- Node10 -->
<g id="node10" class="node"><title>Node10</title>
<g id="a_node10"><a xlink:href="../../d5/d47/ShiftRegisterOutBase_8ipp.html" target="_top" xlink:title=" ">
<polygon fill="white" stroke="black" points="269.5,-56.5 269.5,-75.5 397.5,-75.5 397.5,-56.5 269.5,-56.5"/>
<text text-anchor="middle" x="333.5" y="-63.5" font-family="Helvetica,sans-Serif" font-size="10.00">ShiftRegisterOutBase.ipp</text>
</a>
</g>
</g>
<!-- Node7&#45;&gt;Node10 -->
<g id="edge10" class="edge"><title>Node7&#45;&gt;Node10</title>
<path fill="none" stroke="midnightblue" d="M189.16,-109.304C220.902,-99.1294 268.644,-84.6246 300.505,-75.5164"/>
<polygon fill="midnightblue" stroke="midnightblue" points="187.895,-106.035 179.457,-112.444 190.049,-112.695 187.895,-106.035"/>
</g>
<!-- Node11 -->
<g id="node11" class="node"><title>Node11</title>
<g id="a_node11"><a xlink:href="../../d7/d88/SPIShiftRegisterOut_8hpp.html" target="_top" xlink:title=" ">
<polygon fill="white" stroke="black" points="0,-56.5 0,-75.5 125,-75.5 125,-56.5 0,-56.5"/>
<text text-anchor="middle" x="62.5" y="-63.5" font-family="Helvetica,sans-Serif" font-size="10.00">SPIShiftRegisterOut.hpp</text>
</a>
</g>
</g>
<!-- Node7&#45;&gt;Node11 -->
<g id="edge12" class="edge"><title>Node7&#45;&gt;Node11</title>
<path fill="none" stroke="midnightblue" d="M132.438,-107.177C115.141,-97.2407 92.3523,-84.1492 77.5652,-75.6545"/>
<polygon fill="midnightblue" stroke="midnightblue" points="130.983,-110.378 141.397,-112.324 134.47,-104.308 130.983,-110.378"/>
</g>
<!-- Node9 -->
<g id="node9" class="node"><title>Node9</title>
<g id="a_node9"><a xlink:href="../../de/d95/ShiftRegisterOut_8ipp.html" target="_top" xlink:title=" ">
<polygon fill="white" stroke="black" points="145,-0.5 145,-19.5 250,-19.5 250,-0.5 145,-0.5"/>
<text text-anchor="middle" x="197.5" y="-7.5" font-family="Helvetica,sans-Serif" font-size="10.00">ShiftRegisterOut.ipp</text>
</a>
</g>
</g>
<!-- Node8&#45;&gt;Node9 -->
<g id="edge8" class="edge"><title>Node8&#45;&gt;Node9</title>
<path fill="none" stroke="midnightblue" d="M191.028,-46.1005C190.396,-37.1357 190.843,-26.8579 192.369,-19.7511"/>
<polygon fill="midnightblue" stroke="midnightblue" points="187.566,-46.6216 192.334,-56.083 194.507,-45.7134 187.566,-46.6216"/>
</g>
<!-- Node9&#45;&gt;Node8 -->
<g id="edge9" class="edge"><title>Node9&#45;&gt;Node8</title>
<path fill="none" stroke="midnightblue" d="M203.958,-29.6911C204.606,-38.6353 204.176,-48.9272 202.666,-56.083"/>
<polygon fill="midnightblue" stroke="midnightblue" points="207.423,-29.2002 202.631,-19.7511 200.485,-30.1262 207.423,-29.2002"/>
</g>
<!-- Node10&#45;&gt;Node7 -->
<g id="edge11" class="edge"><title>Node10&#45;&gt;Node7</title>
<path fill="none" stroke="midnightblue" d="M300.979,-78.6509C269.284,-88.8133 221.542,-103.32 189.635,-112.444"/>
<polygon fill="midnightblue" stroke="midnightblue" points="302.228,-81.9253 310.665,-75.5164 300.073,-75.2654 302.228,-81.9253"/>
</g>
<!-- Node12 -->
<g id="node12" class="node"><title>Node12</title>
<g id="a_node12"><a xlink:href="../../da/d45/SPIShiftRegisterOut_8ipp.html" target="_top" xlink:title=" ">
<polygon fill="white" stroke="black" points="1.5,-0.5 1.5,-19.5 123.5,-19.5 123.5,-0.5 1.5,-0.5"/>
<text text-anchor="middle" x="62.5" y="-7.5" font-family="Helvetica,sans-Serif" font-size="10.00">SPIShiftRegisterOut.ipp</text>
</a>
</g>
</g>
<!-- Node11&#45;&gt;Node12 -->
<g id="edge13" class="edge"><title>Node11&#45;&gt;Node12</title>
<path fill="none" stroke="midnightblue" d="M56.0276,-46.1005C55.3956,-37.1357 55.8427,-26.8579 57.369,-19.7511"/>
<polygon fill="midnightblue" stroke="midnightblue" points="52.5658,-46.6216 57.3337,-56.083 59.5067,-45.7134 52.5658,-46.6216"/>
</g>
<!-- Node12&#45;&gt;Node11 -->
<g id="edge14" class="edge"><title>Node12&#45;&gt;Node11</title>
<path fill="none" stroke="midnightblue" d="M68.9575,-29.6911C69.6062,-38.6353 69.1758,-48.9272 67.6663,-56.083"/>
<polygon fill="midnightblue" stroke="midnightblue" points="72.4231,-29.2002 67.631,-19.7511 65.4846,-30.1262 72.4231,-29.2002"/>
</g>
<!-- Node14 -->
<g id="node14" class="node"><title>Node14</title>
<g id="a_node14"><a xlink:href="../../d4/d40/Butterworth_8hpp.html" target="_top" xlink:title=" ">
<polygon fill="white" stroke="black" points="278.5,-112.5 278.5,-131.5 364.5,-131.5 364.5,-112.5 278.5,-112.5"/>
<text text-anchor="middle" x="321.5" y="-119.5" font-family="Helvetica,sans-Serif" font-size="10.00">Butterworth.hpp</text>
</a>
</g>
</g>
<!-- Node13&#45;&gt;Node14 -->
<g id="edge16" class="edge"><title>Node13&#45;&gt;Node14</title>
<path fill="none" stroke="midnightblue" d="M194.203,-165.172C224.896,-155.004 268.419,-140.585 295.793,-131.516"/>
<polygon fill="midnightblue" stroke="midnightblue" points="192.72,-161.976 184.328,-168.444 194.921,-168.621 192.72,-161.976"/>
</g>
<!-- Node16 -->
<g id="node16" class="node"><title>Node16</title>
<g id="a_node16"><a xlink:href="../../d9/d4b/ButtonMatrix_8hpp.html" target="_top" xlink:title=" ">
<polygon fill="white" stroke="black" points="582,-168.5 582,-187.5 673,-187.5 673,-168.5 582,-168.5"/>
<text text-anchor="middle" x="627.5" y="-175.5" font-family="Helvetica,sans-Serif" font-size="10.00">ButtonMatrix.hpp</text>
</a>
</g>
</g>
<!-- Node15&#45;&gt;Node16 -->
<g id="edge19" class="edge"><title>Node15&#45;&gt;Node16</title>
<path fill="none" stroke="midnightblue" d="M637.379,-274.473C627.063,-266.828 616.116,-256.445 610.5,-244 601.864,-224.863 613.777,-200.502 621.611,-187.725"/>
<polygon fill="midnightblue" stroke="midnightblue" points="635.542,-277.457 645.766,-280.236 639.506,-271.688 635.542,-277.457"/>
</g>
<!-- Node18 -->
<g id="node18" class="node"><title>Node18</title>
<g id="a_node18"><a xlink:href="../../d4/d57/ExtendedIOElement_8hpp.html" target="_top" xlink:title=" ">
<polygon fill="white" stroke="black" points="620,-224.5 620,-243.5 743,-243.5 743,-224.5 620,-224.5"/>
<text text-anchor="middle" x="681.5" y="-231.5" font-family="Helvetica,sans-Serif" font-size="10.00">ExtendedIOElement.hpp</text>
</a>
</g>
</g>
<!-- Node15&#45;&gt;Node18 -->
<g id="edge22" class="edge"><title>Node15&#45;&gt;Node18</title>
<path fill="none" stroke="midnightblue" d="M668.282,-270.69C671.652,-261.589 675.569,-251.014 678.259,-243.751"/>
<polygon fill="midnightblue" stroke="midnightblue" points="664.994,-269.49 664.803,-280.083 671.558,-271.921 664.994,-269.49"/>
</g>
<!-- Node27 -->
<g id="node27" class="node"><title>Node27</title>
<g id="a_node27"><a xlink:href="../../d8/df3/FilteredAnalog_8hpp.html" target="_top" xlink:title=" ">
<polygon fill="white" stroke="black" points="1192.5,-112.5 1192.5,-131.5 1290.5,-131.5 1290.5,-112.5 1192.5,-112.5"/>
<text text-anchor="middle" x="1241.5" y="-119.5" font-family="Helvetica,sans-Serif" font-size="10.00">FilteredAnalog.hpp</text>
</a>
</g>
</g>
<!-- Node15&#45;&gt;Node27 -->
<g id="edge45" class="edge"><title>Node15&#45;&gt;Node27</title>
<path fill="none" stroke="midnightblue" d="M701.127,-277.659C810.545,-246.342 1115.13,-159.167 1211.72,-131.524"/>
<polygon fill="midnightblue" stroke="midnightblue" points="700.113,-274.308 691.462,-280.425 702.039,-281.038 700.113,-274.308"/>
</g>
<!-- Node17 -->
<g id="node17" class="node"><title>Node17</title>
<g id="a_node17"><a xlink:href="../../d5/d41/ButtonMatrix_8ipp.html" target="_top" xlink:title=" ">
<polygon fill="white" stroke="black" points="542.5,-112.5 542.5,-131.5 630.5,-131.5 630.5,-112.5 542.5,-112.5"/>
<text text-anchor="middle" x="586.5" y="-119.5" font-family="Helvetica,sans-Serif" font-size="10.00">ButtonMatrix.ipp</text>
</a>
</g>
</g>
<!-- Node16&#45;&gt;Node17 -->
<g id="edge20" class="edge"><title>Node16&#45;&gt;Node17</title>
<path fill="none" stroke="midnightblue" d="M608.639,-160.431C600.56,-150.967 592.223,-139.483 588.013,-131.751"/>
<polygon fill="midnightblue" stroke="midnightblue" points="606.258,-163.017 615.563,-168.083 611.449,-158.32 606.258,-163.017"/>
</g>
<!-- Node17&#45;&gt;Node16 -->
<g id="edge21" class="edge"><title>Node17&#45;&gt;Node16</title>
<path fill="none" stroke="midnightblue" d="M605.188,-139.367C613.264,-148.801 621.628,-160.298 625.896,-168.083"/>
<polygon fill="midnightblue" stroke="midnightblue" points="607.588,-136.803 598.275,-131.751 602.405,-141.508 607.588,-136.803"/>
</g>
<!-- Node18&#45;&gt;Node4 -->
<g id="edge42" class="edge"><title>Node18&#45;&gt;Node4</title>
<path fill="none" stroke="midnightblue" d="M633.577,-222.217C588.226,-212.013 521.058,-196.901 479.351,-187.516"/>
<polygon fill="midnightblue" stroke="midnightblue" points="632.947,-225.663 643.471,-224.444 634.484,-218.834 632.947,-225.663"/>
</g>
<!-- Node19 -->
<g id="node19" class="node"><title>Node19</title>
<g id="a_node19"><a xlink:href="../../dd/ddf/ExtendedInputOutput_8hpp.html" target="_top" xlink:title=" ">
<polygon fill="white" stroke="black" points="821.5,-168.5 821.5,-187.5 949.5,-187.5 949.5,-168.5 821.5,-168.5"/>
<text text-anchor="middle" x="885.5" y="-175.5" font-family="Helvetica,sans-Serif" font-size="10.00">ExtendedInputOutput.hpp</text>
</a>
</g>
</g>
<!-- Node18&#45;&gt;Node19 -->
<g id="edge23" class="edge"><title>Node18&#45;&gt;Node19</title>
<path fill="none" stroke="midnightblue" d="M723.701,-221.829C762.218,-211.633 818.322,-196.782 853.327,-187.516"/>
<polygon fill="midnightblue" stroke="midnightblue" points="722.596,-218.501 713.824,-224.444 724.387,-225.268 722.596,-218.501"/>
</g>
<!-- Node18&#45;&gt;Node26 -->
<g id="edge43" class="edge"><title>Node18&#45;&gt;Node26</title>
<path fill="none" stroke="midnightblue" d="M686.665,-214.674C693.442,-190.625 705.063,-149.388 710.079,-131.591"/>
<polygon fill="midnightblue" stroke="midnightblue" points="683.276,-213.794 683.933,-224.368 690.014,-215.693 683.276,-213.794"/>
</g>
<!-- Node18&#45;&gt;Node32 -->
<g id="edge44" class="edge"><title>Node18&#45;&gt;Node32</title>
<path fill="none" stroke="midnightblue" d="M609.618,-223.392C532.731,-213.115 412.059,-196.986 339.292,-187.259"/>
<polygon fill="midnightblue" stroke="midnightblue" points="609.326,-226.884 619.701,-224.74 610.253,-219.946 609.326,-226.884"/>
</g>
<!-- Node19&#45;&gt;Node5 -->
<g id="edge31" class="edge"><title>Node19&#45;&gt;Node5</title>
<path fill="none" stroke="midnightblue" d="M810.992,-167.899C739.707,-159.091 629.193,-145.175 533.5,-132 530.637,-131.606 527.699,-131.195 524.734,-130.774"/>
<polygon fill="midnightblue" stroke="midnightblue" points="810.865,-171.41 821.219,-169.161 811.723,-164.462 810.865,-171.41"/>
</g>
<!-- Node19&#45;&gt;Node9 -->
<g id="edge34" class="edge"><title>Node19&#45;&gt;Node9</title>
<path fill="none" stroke="midnightblue" d="M935.999,-165.001C953.127,-158.258 970.454,-147.874 980.5,-132 998.563,-103.457 1003.69,-80.5601 980.5,-56 955.422,-29.4389 422.039,-15.7848 250.283,-12.065"/>
<polygon fill="midnightblue" stroke="midnightblue" points="934.786,-161.717 926.551,-168.383 937.146,-168.308 934.786,-161.717"/>
</g>
<!-- Node19&#45;&gt;Node10 -->
<g id="edge33" class="edge"><title>Node19&#45;&gt;Node10</title>
<path fill="none" stroke="midnightblue" d="M865.334,-162.23C841.281,-144.916 802.23,-117.834 785.5,-112 625.733,-56.2853 574.704,-94.3537 406.5,-76 403.58,-75.6814 400.596,-75.3474 397.582,-75.0034"/>
<polygon fill="midnightblue" stroke="midnightblue" points="863.589,-165.288 873.74,-168.323 867.697,-159.621 863.589,-165.288"/>
</g>
<!-- Node19&#45;&gt;Node12 -->
<g id="edge35" class="edge"><title>Node19&#45;&gt;Node12</title>
<path fill="none" stroke="midnightblue" d="M914.6,-163.654C927.134,-156.25 940.5,-145.73 947.5,-132 962.842,-101.907 970.85,-80.4077 947.5,-56 916.285,-23.3708 180.498,-23.7655 135.5,-20 131.682,-19.6805 127.757,-19.3124 123.802,-18.9113"/>
<polygon fill="midnightblue" stroke="midnightblue" points="912.826,-160.634 905.723,-168.495 916.178,-166.78 912.826,-160.634"/>
</g>
<!-- Node19&#45;&gt;Node17 -->
<g id="edge30" class="edge"><title>Node19&#45;&gt;Node17</title>
<path fill="none" stroke="midnightblue" d="M828.09,-166.632C770.526,-156.235 683.121,-140.45 630.732,-130.988"/>
<polygon fill="midnightblue" stroke="midnightblue" points="827.66,-170.11 838.123,-168.444 828.904,-163.222 827.66,-170.11"/>
</g>
<!-- Node20 -->
<g id="node20" class="node"><title>Node20</title>
<g id="a_node20"><a xlink:href="../../d4/db3/Button_8hpp.html" target="_top" xlink:title=" ">
<polygon fill="white" stroke="black" points="1032.5,-112.5 1032.5,-131.5 1096.5,-131.5 1096.5,-112.5 1032.5,-112.5"/>
<text text-anchor="middle" x="1064.5" y="-119.5" font-family="Helvetica,sans-Serif" font-size="10.00">Button.hpp</text>
</a>
</g>
</g>
<!-- Node19&#45;&gt;Node20 -->
<g id="edge24" class="edge"><title>Node19&#45;&gt;Node20</title>
<path fill="none" stroke="midnightblue" d="M923.831,-165.436C957.58,-155.255 1005.95,-140.664 1036.27,-131.516"/>
<polygon fill="midnightblue" stroke="midnightblue" points="922.426,-162.204 913.863,-168.444 924.448,-168.906 922.426,-162.204"/>
</g>
<!-- Node19&#45;&gt;Node26 -->
<g id="edge32" class="edge"><title>Node19&#45;&gt;Node26</title>
<path fill="none" stroke="midnightblue" d="M848.453,-165.436C815.836,-155.255 769.09,-140.664 739.784,-131.516"/>
<polygon fill="midnightblue" stroke="midnightblue" points="847.499,-168.805 858.088,-168.444 849.585,-162.123 847.499,-168.805"/>
</g>
<!-- Node19&#45;&gt;Node27 -->
<g id="edge36" class="edge"><title>Node19&#45;&gt;Node27</title>
<path fill="none" stroke="midnightblue" d="M952.527,-166.958C1012.93,-157.889 1104.17,-144.144 1183.5,-132 1186.42,-131.553 1189.42,-131.091 1192.45,-130.625"/>
<polygon fill="midnightblue" stroke="midnightblue" points="951.731,-163.538 942.362,-168.484 952.77,-170.461 951.731,-163.538"/>
</g>
<!-- Node28 -->
<g id="node28" class="node"><title>Node28</title>
<g id="a_node28"><a xlink:href="../../d9/d4f/LEDs_8hpp.html" target="_top" xlink:title=" ">
<polygon fill="white" stroke="black" points="1114.5,-112.5 1114.5,-131.5 1174.5,-131.5 1174.5,-112.5 1114.5,-112.5"/>
<text text-anchor="middle" x="1144.5" y="-119.5" font-family="Helvetica,sans-Serif" font-size="10.00">LEDs.hpp</text>
</a>
</g>
</g>
<!-- Node19&#45;&gt;Node28 -->
<g id="edge37" class="edge"><title>Node19&#45;&gt;Node28</title>
<path fill="none" stroke="midnightblue" d="M939.014,-166.443C983.612,-157.552 1048.78,-144.344 1105.5,-132 1108.35,-131.379 1111.32,-130.72 1114.28,-130.052"/>
<polygon fill="midnightblue" stroke="midnightblue" points="938.105,-163.056 928.98,-168.44 939.471,-169.921 938.105,-163.056"/>
</g>
<!-- Node30 -->
<g id="node30" class="node"><title>Node30</title>
<g id="a_node30"><a xlink:href="../../d7/d13/MAX7219__Base_8hpp.html" target="_top" xlink:title=" ">
<polygon fill="white" stroke="black" points="832.5,-112.5 832.5,-131.5 938.5,-131.5 938.5,-112.5 832.5,-112.5"/>
<text text-anchor="middle" x="885.5" y="-119.5" font-family="Helvetica,sans-Serif" font-size="10.00">MAX7219_Base.hpp</text>
</a>
</g>
</g>
<!-- Node19&#45;&gt;Node30 -->
<g id="edge39" class="edge"><title>Node19&#45;&gt;Node30</title>
<path fill="none" stroke="midnightblue" d="M885.5,-157.805C885.5,-148.91 885.5,-138.78 885.5,-131.751"/>
<polygon fill="midnightblue" stroke="midnightblue" points="882,-158.083 885.5,-168.083 889,-158.083 882,-158.083"/>
</g>
<!-- Node21 -->
<g id="node21" class="node"><title>Node21</title>
<g id="a_node21"><a xlink:href="../../de/dd1/Button_8cpp.html" target="_top" xlink:title=" ">
<polygon fill="white" stroke="black" points="1032.5,-56.5 1032.5,-75.5 1096.5,-75.5 1096.5,-56.5 1032.5,-56.5"/>
<text text-anchor="middle" x="1064.5" y="-63.5" font-family="Helvetica,sans-Serif" font-size="10.00">Button.cpp</text>
</a>
</g>
</g>
<!-- Node20&#45;&gt;Node21 -->
<g id="edge25" class="edge"><title>Node20&#45;&gt;Node21</title>
<path fill="none" stroke="midnightblue" d="M1064.5,-101.805C1064.5,-92.9102 1064.5,-82.7798 1064.5,-75.7511"/>
<polygon fill="midnightblue" stroke="midnightblue" points="1061,-102.083 1064.5,-112.083 1068,-102.083 1061,-102.083"/>
</g>
<!-- Node22 -->
<g id="node22" class="node"><title>Node22</title>
<g id="a_node22"><a xlink:href="../../d5/d04/IncrementButton_8hpp.html" target="_top" xlink:title=" ">
<polygon fill="white" stroke="black" points="1115,-56.5 1115,-75.5 1222,-75.5 1222,-56.5 1115,-56.5"/>
<text text-anchor="middle" x="1168.5" y="-63.5" font-family="Helvetica,sans-Serif" font-size="10.00">IncrementButton.hpp</text>
</a>
</g>
</g>
<!-- Node20&#45;&gt;Node22 -->
<g id="edge26" class="edge"><title>Node20&#45;&gt;Node22</title>
<path fill="none" stroke="midnightblue" d="M1090.33,-107.59C1109.56,-97.6052 1135.24,-84.2672 1151.83,-75.6545"/>
<polygon fill="midnightblue" stroke="midnightblue" points="1088.47,-104.61 1081.21,-112.324 1091.7,-110.822 1088.47,-104.61"/>
</g>
<!-- Node24 -->
<g id="node24" class="node"><title>Node24</title>
<g id="a_node24"><a xlink:href="../../df/df5/IncrementDecrementButtons_8hpp.html" target="_top" xlink:title=" ">
<polygon fill="white" stroke="black" points="1240,-56.5 1240,-75.5 1401,-75.5 1401,-56.5 1240,-56.5"/>
<text text-anchor="middle" x="1320.5" y="-63.5" font-family="Helvetica,sans-Serif" font-size="10.00">IncrementDecrementButtons.hpp</text>
</a>
</g>
</g>
<!-- Node20&#45;&gt;Node24 -->
<g id="edge28" class="edge"><title>Node20&#45;&gt;Node24</title>
<path fill="none" stroke="midnightblue" d="M1106.86,-111.723C1172.68,-97.6383 1238.07,-84.0311 1279.26,-75.5075"/>
<polygon fill="midnightblue" stroke="midnightblue" points="1105.77,-108.378 1096.72,-113.896 1107.23,-115.223 1105.77,-108.378"/>
</g>
<!-- Node23 -->
<g id="node23" class="node"><title>Node23</title>
<g id="a_node23"><a xlink:href="../../db/d9d/IncrementButton_8cpp.html" target="_top" xlink:title=" ">
<polygon fill="white" stroke="black" points="1115,-0.5 1115,-19.5 1222,-19.5 1222,-0.5 1115,-0.5"/>
<text text-anchor="middle" x="1168.5" y="-7.5" font-family="Helvetica,sans-Serif" font-size="10.00">IncrementButton.cpp</text>
</a>
</g>
</g>
<!-- Node22&#45;&gt;Node23 -->
<g id="edge27" class="edge"><title>Node22&#45;&gt;Node23</title>
<path fill="none" stroke="midnightblue" d="M1168.5,-45.8045C1168.5,-36.9102 1168.5,-26.7798 1168.5,-19.7511"/>
<polygon fill="midnightblue" stroke="midnightblue" points="1165,-46.083 1168.5,-56.083 1172,-46.083 1165,-46.083"/>
</g>
<!-- Node25 -->
<g id="node25" class="node"><title>Node25</title>
<g id="a_node25"><a xlink:href="../../da/d66/IncrementDecrementButtons_8cpp.html" target="_top" xlink:title=" ">
<polygon fill="white" stroke="black" points="1240,-0.5 1240,-19.5 1401,-19.5 1401,-0.5 1240,-0.5"/>
<text text-anchor="middle" x="1320.5" y="-7.5" font-family="Helvetica,sans-Serif" font-size="10.00">IncrementDecrementButtons.cpp</text>
</a>
</g>
</g>
<!-- Node24&#45;&gt;Node25 -->
<g id="edge29" class="edge"><title>Node24&#45;&gt;Node25</title>
<path fill="none" stroke="midnightblue" d="M1320.5,-45.8045C1320.5,-36.9102 1320.5,-26.7798 1320.5,-19.7511"/>
<polygon fill="midnightblue" stroke="midnightblue" points="1317,-46.083 1320.5,-56.083 1324,-46.083 1317,-46.083"/>
</g>
<!-- Node29 -->
<g id="node29" class="node"><title>Node29</title>
<g id="a_node29"><a xlink:href="../../d6/d3a/DotBarDisplayLEDs_8hpp.html" target="_top" xlink:title=" ">
<polygon fill="white" stroke="black" points="1419.5,-56.5 1419.5,-75.5 1543.5,-75.5 1543.5,-56.5 1419.5,-56.5"/>
<text text-anchor="middle" x="1481.5" y="-63.5" font-family="Helvetica,sans-Serif" font-size="10.00">DotBarDisplayLEDs.hpp</text>
</a>
</g>
</g>
<!-- Node28&#45;&gt;Node29 -->
<g id="edge38" class="edge"><title>Node28&#45;&gt;Node29</title>
<path fill="none" stroke="midnightblue" d="M1184.71,-111.888C1271.53,-95.5525 1361.13,-82.7512 1419.34,-74.9684"/>
<polygon fill="midnightblue" stroke="midnightblue" points="1183.86,-108.488 1174.69,-113.793 1185.16,-115.365 1183.86,-108.488"/>
</g>
<!-- Node30&#45;&gt;Node6 -->
<g id="edge40" class="edge"><title>Node30&#45;&gt;Node6</title>
<path fill="none" stroke="midnightblue" d="M822.368,-112.501C821.067,-112.332 819.777,-112.165 818.5,-112 700.247,-96.7485 560.241,-79.7327 493.571,-71.6934"/>
<polygon fill="midnightblue" stroke="midnightblue" points="822.107,-115.996 832.477,-113.825 823.016,-109.056 822.107,-115.996"/>
</g>
<!-- Node31 -->
<g id="node31" class="node"><title>Node31</title>
<g id="a_node31"><a xlink:href="../../d5/d0c/MAX7219SevenSegmentDisplay_8hpp.html" target="_top" xlink:title=" ">
<polygon fill="white" stroke="black" points="760.5,-56.5 760.5,-75.5 938.5,-75.5 938.5,-56.5 760.5,-56.5"/>
<text text-anchor="middle" x="849.5" y="-63.5" font-family="Helvetica,sans-Serif" font-size="10.00">MAX7219SevenSegmentDisplay.hpp</text>
</a>
</g>
</g>
<!-- Node30&#45;&gt;Node31 -->
<g id="edge41" class="edge"><title>Node30&#45;&gt;Node31</title>
<path fill="none" stroke="midnightblue" d="M873.877,-103.566C867.683,-94.2747 860.332,-83.2484 855.334,-75.7511"/>
<polygon fill="midnightblue" stroke="midnightblue" points="871.096,-105.704 879.555,-112.083 876.92,-101.821 871.096,-105.704"/>
</g>
<!-- Node33&#45;&gt;Node13 -->
<g id="edge47" class="edge"><title>Node33&#45;&gt;Node13</title>
<path fill="none" stroke="midnightblue" d="M163.05,-214.101C161.888,-205.136 160.556,-194.858 159.634,-187.751"/>
<polygon fill="midnightblue" stroke="midnightblue" points="159.588,-214.616 164.344,-224.083 166.529,-213.716 159.588,-214.616"/>
</g>
<!-- Node35 -->
<g id="node35" class="node"><title>Node35</title>
<g id="a_node35"><a xlink:href="../../df/da1/Notch_8hpp.html" target="_top" xlink:title=" ">
<polygon fill="white" stroke="black" points="417.5,-224.5 417.5,-243.5 479.5,-243.5 479.5,-224.5 417.5,-224.5"/>
<text text-anchor="middle" x="448.5" y="-231.5" font-family="Helvetica,sans-Serif" font-size="10.00">Notch.hpp</text>
</a>
</g>
</g>
<!-- Node34&#45;&gt;Node35 -->
<g id="edge49" class="edge"><title>Node34&#45;&gt;Node35</title>
<path fill="none" stroke="midnightblue" d="M426.332,-271.275C431.972,-262.045 438.618,-251.17 443.152,-243.751"/>
<polygon fill="midnightblue" stroke="midnightblue" points="423.177,-269.725 420.949,-280.083 429.15,-273.375 423.177,-269.725"/>
</g>
<!-- Node38&#45;&gt;Node33 -->
<g id="edge53" class="edge"><title>Node38&#45;&gt;Node33</title>
<path fill="none" stroke="midnightblue" d="M211.509,-273.82C200.042,-264.145 185.587,-251.948 175.97,-243.834"/>
<polygon fill="midnightblue" stroke="midnightblue" points="209.317,-276.55 219.217,-280.324 213.831,-271.2 209.317,-276.55"/>
</g>
<!-- Node38&#45;&gt;Node36 -->
<g id="edge54" class="edge"><title>Node38&#45;&gt;Node36</title>
<path fill="none" stroke="midnightblue" d="M237.638,-270.69C241.683,-261.589 246.383,-251.014 249.611,-243.751"/>
<polygon fill="midnightblue" stroke="midnightblue" points="234.326,-269.523 233.463,-280.083 240.723,-272.366 234.326,-269.523"/>
</g>
<!-- Node39&#45;&gt;Node6 -->
<g id="edge56" class="edge"><title>Node39&#45;&gt;Node6</title>
<path fill="none" stroke="midnightblue" d="M111.256,-167.22C144.836,-159.397 191.239,-147.23 230.5,-132 248.661,-124.955 251.243,-118.793 269.5,-112 295.91,-102.173 369.203,-85.4747 415.214,-75.4172"/>
<polygon fill="midnightblue" stroke="midnightblue" points="110.234,-163.863 101.268,-169.507 111.797,-170.686 110.234,-163.863"/>
</g>
<!-- Node39&#45;&gt;Node7 -->
<g id="edge57" class="edge"><title>Node39&#45;&gt;Node7</title>
<path fill="none" stroke="midnightblue" d="M88.7937,-163.177C105.539,-153.241 127.6,-140.149 141.916,-131.655"/>
<polygon fill="midnightblue" stroke="midnightblue" points="86.9344,-160.211 80.1207,-168.324 90.5067,-166.231 86.9344,-160.211"/>
</g>
<!-- Node39&#45;&gt;Node11 -->
<g id="edge58" class="edge"><title>Node39&#45;&gt;Node11</title>
<path fill="none" stroke="midnightblue" d="M64.9913,-158.348C64.3342,-134.254 63.2175,-93.3079 62.7343,-75.5914"/>
<polygon fill="midnightblue" stroke="midnightblue" points="61.4932,-158.468 65.2646,-168.368 68.4906,-158.277 61.4932,-158.468"/>
</g>
</g>
</svg>
