<?xml version="1.0" encoding="UTF-8" standalone="no"?>
<!DOCTYPE svg PUBLIC "-//W3C//DTD SVG 1.1//EN"
 "http://www.w3.org/Graphics/SVG/1.1/DTD/svg11.dtd">
<!-- Generated by graphviz version 2.38.0 (20140413.2041)
 -->
<!-- Title: Error.hpp Pages: 1 -->
<svg width="1418pt" height="420pt"
 viewBox="0.00 0.00 1417.50 420.00" xmlns="http://www.w3.org/2000/svg" xmlns:xlink="http://www.w3.org/1999/xlink">
<g id="graph0" class="graph" transform="scale(1 1) rotate(0) translate(4 416)">
<title>Error.hpp</title>
<polygon fill="white" stroke="none" points="-4,4 -4,-416 1413.5,-416 1413.5,4 -4,4"/>
<!-- Node1 -->
<g id="node1" class="node"><title>Node1</title>
<g id="a_node1"><a xlink:title=" ">
<polygon fill="#bfbfbf" stroke="black" points="903.5,-392.5 903.5,-411.5 959.5,-411.5 959.5,-392.5 903.5,-392.5"/>
<text text-anchor="middle" x="931.5" y="-399.5" font-family="Helvetica,sans-Serif" font-size="10.00">Error.hpp</text>
</a>
</g>
</g>
<!-- Node2 -->
<g id="node2" class="node"><title>Node2</title>
<g id="a_node2"><a xlink:href="../../de/d76/Array_8hpp.html" target="_top" xlink:title=" ">
<polygon fill="white" stroke="black" points="623,-336.5 623,-355.5 682,-355.5 682,-336.5 623,-336.5"/>
<text text-anchor="middle" x="652.5" y="-343.5" font-family="Helvetica,sans-Serif" font-size="10.00">Array.hpp</text>
</a>
</g>
</g>
<!-- Node1&#45;&gt;Node2 -->
<g id="edge1" class="edge"><title>Node1&#45;&gt;Node2</title>
<path fill="none" stroke="midnightblue" d="M893.561,-393.657C837.372,-382.782 733.191,-362.618 682.188,-352.746"/>
<polygon fill="midnightblue" stroke="midnightblue" points="892.988,-397.111 903.471,-395.575 894.318,-390.239 892.988,-397.111"/>
</g>
<!-- Node24 -->
<g id="node24" class="node"><title>Node24</title>
<g id="a_node24"><a xlink:href="../../d6/d3c/ExtendedInputOutput_8cpp.html" target="_top" xlink:title=" ">
<polygon fill="white" stroke="black" points="1058.5,-112.5 1058.5,-131.5 1186.5,-131.5 1186.5,-112.5 1058.5,-112.5"/>
<text text-anchor="middle" x="1122.5" y="-119.5" font-family="Helvetica,sans-Serif" font-size="10.00">ExtendedInputOutput.cpp</text>
</a>
</g>
</g>
<!-- Node1&#45;&gt;Node24 -->
<g id="edge53" class="edge"><title>Node1&#45;&gt;Node24</title>
<path fill="none" stroke="midnightblue" d="M937.991,-382.786C945.099,-361.182 955.5,-323.941 955.5,-291 955.5,-291 955.5,-291 955.5,-233 955.5,-173.46 1030.45,-144.327 1079.93,-131.581"/>
<polygon fill="midnightblue" stroke="midnightblue" points="934.662,-381.706 934.737,-392.301 941.285,-383.972 934.662,-381.706"/>
</g>
<!-- Node30 -->
<g id="node30" class="node"><title>Node30</title>
<g id="a_node30"><a xlink:href="../../da/d1f/ExtendedIOElement_8cpp.html" target="_top" xlink:title=" ">
<polygon fill="white" stroke="black" points="804,-168.5 804,-187.5 927,-187.5 927,-168.5 804,-168.5"/>
<text text-anchor="middle" x="865.5" y="-175.5" font-family="Helvetica,sans-Serif" font-size="10.00">ExtendedIOElement.cpp</text>
</a>
</g>
</g>
<!-- Node1&#45;&gt;Node30 -->
<g id="edge54" class="edge"><title>Node1&#45;&gt;Node30</title>
<path fill="none" stroke="midnightblue" d="M926.025,-382.585C912.513,-337.135 877.964,-220.924 868.141,-187.884"/>
<polygon fill="midnightblue" stroke="midnightblue" points="922.708,-383.709 928.913,-392.297 929.418,-381.715 922.708,-383.709"/>
</g>
<!-- Node34 -->
<g id="node34" class="node"><title>Node34</title>
<g id="a_node34"><a xlink:href="../../d1/d40/BitArray_8hpp.html" target="_top" xlink:title=" ">
<polygon fill="white" stroke="black" points="134,-168.5 134,-187.5 205,-187.5 205,-168.5 134,-168.5"/>
<text text-anchor="middle" x="169.5" y="-175.5" font-family="Helvetica,sans-Serif" font-size="10.00">BitArray.hpp</text>
</a>
</g>
</g>
<!-- Node1&#45;&gt;Node34 -->
<g id="edge47" class="edge"><title>Node1&#45;&gt;Node34</title>
<path fill="none" stroke="midnightblue" d="M893.237,-399.026C801.422,-393.234 562.582,-371.867 378.5,-300 298.435,-268.742 212.578,-209.954 181.547,-187.772"/>
<polygon fill="midnightblue" stroke="midnightblue" points="893.246,-402.533 903.439,-399.643 893.668,-395.546 893.246,-402.533"/>
</g>
<!-- Node35 -->
<g id="node35" class="node"><title>Node35</title>
<g id="a_node35"><a xlink:href="../../d4/d93/Updatable_8hpp.html" target="_top" xlink:title=" ">
<polygon fill="white" stroke="black" points="983.5,-336.5 983.5,-355.5 1063.5,-355.5 1063.5,-336.5 983.5,-336.5"/>
<text text-anchor="middle" x="1023.5" y="-343.5" font-family="Helvetica,sans-Serif" font-size="10.00">Updatable.hpp</text>
</a>
</g>
</g>
<!-- Node1&#45;&gt;Node35 -->
<g id="edge51" class="edge"><title>Node1&#45;&gt;Node35</title>
<path fill="none" stroke="midnightblue" d="M955.05,-387.177C971.979,-377.241 994.283,-364.149 1008.76,-355.655"/>
<polygon fill="midnightblue" stroke="midnightblue" points="953.134,-384.243 946.281,-392.324 956.677,-390.28 953.134,-384.243"/>
</g>
<!-- Node36 -->
<g id="node36" class="node"><title>Node36</title>
<g id="a_node36"><a xlink:href="../../d6/df4/Exit_8cpp.html" target="_top" xlink:title=" ">
<polygon fill="white" stroke="black" points="1082,-336.5 1082,-355.5 1135,-355.5 1135,-336.5 1082,-336.5"/>
<text text-anchor="middle" x="1108.5" y="-343.5" font-family="Helvetica,sans-Serif" font-size="10.00">Exit.cpp</text>
</a>
</g>
</g>
<!-- Node1&#45;&gt;Node36 -->
<g id="edge52" class="edge"><title>Node1&#45;&gt;Node36</title>
<path fill="none" stroke="midnightblue" d="M969.525,-389.399C1003.33,-379.087 1051.88,-364.273 1081.74,-355.163"/>
<polygon fill="midnightblue" stroke="midnightblue" points="968.09,-386.178 959.546,-392.444 970.132,-392.873 968.09,-386.178"/>
</g>
<!-- Node3 -->
<g id="node3" class="node"><title>Node3</title>
<g id="a_node3"><a xlink:href="../../d5/db6/ArrayHelpers_8hpp.html" target="_top" xlink:title=" ">
<polygon fill="white" stroke="black" points="287.5,-224.5 287.5,-243.5 379.5,-243.5 379.5,-224.5 287.5,-224.5"/>
<text text-anchor="middle" x="333.5" y="-231.5" font-family="Helvetica,sans-Serif" font-size="10.00">ArrayHelpers.hpp</text>
</a>
</g>
</g>
<!-- Node2&#45;&gt;Node3 -->
<g id="edge2" class="edge"><title>Node2&#45;&gt;Node3</title>
<path fill="none" stroke="midnightblue" d="M612.781,-343.579C563.62,-340.496 478.344,-330.75 412.5,-300 382.568,-286.021 354.427,-258.042 341.276,-243.786"/>
<polygon fill="midnightblue" stroke="midnightblue" points="612.816,-347.087 622.997,-344.156 613.21,-340.098 612.816,-347.087"/>
</g>
<!-- Node5 -->
<g id="node5" class="node"><title>Node5</title>
<g id="a_node5"><a xlink:href="../../d7/def/AnalogMultiplex_8hpp.html" target="_top" xlink:title=" ">
<polygon fill="white" stroke="black" points="316.5,-112.5 316.5,-131.5 420.5,-131.5 420.5,-112.5 316.5,-112.5"/>
<text text-anchor="middle" x="368.5" y="-119.5" font-family="Helvetica,sans-Serif" font-size="10.00">AnalogMultiplex.hpp</text>
</a>
</g>
</g>
<!-- Node2&#45;&gt;Node5 -->
<g id="edge15" class="edge"><title>Node2&#45;&gt;Node5</title>
<path fill="none" stroke="midnightblue" d="M612.554,-342.968C575.682,-339.244 521.105,-328.844 483.5,-300 429.786,-258.799 446.737,-223.165 407.5,-168 397.913,-154.521 385.075,-140.312 376.795,-131.552"/>
<polygon fill="midnightblue" stroke="midnightblue" points="612.652,-346.49 622.922,-343.887 613.27,-339.517 612.652,-346.49"/>
</g>
<!-- Node13 -->
<g id="node13" class="node"><title>Node13</title>
<g id="a_node13"><a xlink:href="../../d4/d35/Hardware-Types_8hpp.html" target="_top" xlink:title=" ">
<polygon fill="white" stroke="black" points="493,-280.5 493,-299.5 600,-299.5 600,-280.5 493,-280.5"/>
<text text-anchor="middle" x="546.5" y="-287.5" font-family="Helvetica,sans-Serif" font-size="10.00">Hardware&#45;Types.hpp</text>
</a>
</g>
</g>
<!-- Node2&#45;&gt;Node13 -->
<g id="edge16" class="edge"><title>Node2&#45;&gt;Node13</title>
<path fill="none" stroke="midnightblue" d="M626.444,-331.726C606.816,-321.727 580.472,-308.307 563.488,-299.655"/>
<polygon fill="midnightblue" stroke="midnightblue" points="624.97,-334.903 635.469,-336.324 628.148,-328.666 624.97,-334.903"/>
</g>
<!-- Node31 -->
<g id="node31" class="node"><title>Node31</title>
<g id="a_node31"><a xlink:href="../../d1/dde/BiQuad_8hpp.html" target="_top" xlink:title=" ">
<polygon fill="white" stroke="black" points="618.5,-280.5 618.5,-299.5 686.5,-299.5 686.5,-280.5 618.5,-280.5"/>
<text text-anchor="middle" x="652.5" y="-287.5" font-family="Helvetica,sans-Serif" font-size="10.00">BiQuad.hpp</text>
</a>
</g>
</g>
<!-- Node2&#45;&gt;Node31 -->
<g id="edge44" class="edge"><title>Node2&#45;&gt;Node31</title>
<path fill="none" stroke="midnightblue" d="M652.5,-325.805C652.5,-316.91 652.5,-306.78 652.5,-299.751"/>
<polygon fill="midnightblue" stroke="midnightblue" points="649,-326.083 652.5,-336.083 656,-326.083 649,-326.083"/>
</g>
<!-- Node32 -->
<g id="node32" class="node"><title>Node32</title>
<g id="a_node32"><a xlink:href="../../d2/d3b/FIRFilter_8hpp.html" target="_top" xlink:title=" ">
<polygon fill="white" stroke="black" points="704.5,-280.5 704.5,-299.5 778.5,-299.5 778.5,-280.5 704.5,-280.5"/>
<text text-anchor="middle" x="741.5" y="-287.5" font-family="Helvetica,sans-Serif" font-size="10.00">FIRFilter.hpp</text>
</a>
</g>
</g>
<!-- Node2&#45;&gt;Node32 -->
<g id="edge45" class="edge"><title>Node2&#45;&gt;Node32</title>
<path fill="none" stroke="midnightblue" d="M675.738,-330.901C692.058,-320.999 713.365,-308.071 727.236,-299.655"/>
<polygon fill="midnightblue" stroke="midnightblue" points="673.533,-328.144 666.799,-336.324 677.164,-334.129 673.533,-328.144"/>
</g>
<!-- Node33 -->
<g id="node33" class="node"><title>Node33</title>
<g id="a_node33"><a xlink:href="../../dc/d64/IIRFilter_8hpp.html" target="_top" xlink:title=" ">
<polygon fill="white" stroke="black" points="797,-280.5 797,-299.5 868,-299.5 868,-280.5 797,-280.5"/>
<text text-anchor="middle" x="832.5" y="-287.5" font-family="Helvetica,sans-Serif" font-size="10.00">IIRFilter.hpp</text>
</a>
</g>
</g>
<!-- Node2&#45;&gt;Node33 -->
<g id="edge46" class="edge"><title>Node2&#45;&gt;Node33</title>
<path fill="none" stroke="midnightblue" d="M690.608,-333.568C724.563,-323.381 773.489,-308.703 804.112,-299.516"/>
<polygon fill="midnightblue" stroke="midnightblue" points="689.594,-330.218 681.022,-336.444 691.606,-336.922 689.594,-330.218"/>
</g>
<!-- Node4 -->
<g id="node4" class="node"><title>Node4</title>
<g id="a_node4"><a xlink:href="../../d2/d05/StaticSizeExtendedIOElement_8hpp.html" target="_top" xlink:title=" ">
<polygon fill="white" stroke="black" points="230.5,-168.5 230.5,-187.5 398.5,-187.5 398.5,-168.5 230.5,-168.5"/>
<text text-anchor="middle" x="314.5" y="-175.5" font-family="Helvetica,sans-Serif" font-size="10.00">StaticSizeExtendedIOElement.hpp</text>
</a>
</g>
</g>
<!-- Node3&#45;&gt;Node4 -->
<g id="edge3" class="edge"><title>Node3&#45;&gt;Node4</title>
<path fill="none" stroke="midnightblue" d="M326.954,-214.396C323.776,-205.362 320.107,-194.936 317.579,-187.751"/>
<polygon fill="midnightblue" stroke="midnightblue" points="323.742,-215.812 330.363,-224.083 330.345,-213.488 323.742,-215.812"/>
</g>
<!-- Node4&#45;&gt;Node5 -->
<g id="edge4" class="edge"><title>Node4&#45;&gt;Node5</title>
<path fill="none" stroke="midnightblue" d="M330.498,-161.002C340.067,-151.433 351.861,-139.639 359.749,-131.751"/>
<polygon fill="midnightblue" stroke="midnightblue" points="328.013,-158.537 323.417,-168.083 332.963,-163.487 328.013,-158.537"/>
</g>
<!-- Node6 -->
<g id="node6" class="node"><title>Node6</title>
<g id="a_node6"><a xlink:href="../../d2/d25/MAX7219_8hpp.html" target="_top" xlink:title=" ">
<polygon fill="white" stroke="black" points="415.5,-56.5 415.5,-75.5 493.5,-75.5 493.5,-56.5 415.5,-56.5"/>
<text text-anchor="middle" x="454.5" y="-63.5" font-family="Helvetica,sans-Serif" font-size="10.00">MAX7219.hpp</text>
</a>
</g>
</g>
<!-- Node4&#45;&gt;Node6 -->
<g id="edge5" class="edge"><title>Node4&#45;&gt;Node6</title>
<path fill="none" stroke="midnightblue" d="M306.339,-158.87C301.34,-144.756 297.603,-125.379 307.5,-112 314.285,-102.827 377.595,-85.8303 418.888,-75.5547"/>
<polygon fill="midnightblue" stroke="midnightblue" points="303.217,-160.487 310.203,-168.452 309.709,-157.868 303.217,-160.487"/>
</g>
<!-- Node7 -->
<g id="node7" class="node"><title>Node7</title>
<g id="a_node7"><a xlink:href="../../d8/d93/ShiftRegisterOutBase_8hpp.html" target="_top" xlink:title=" ">
<polygon fill="white" stroke="black" points="91,-112.5 91,-131.5 222,-131.5 222,-112.5 91,-112.5"/>
<text text-anchor="middle" x="156.5" y="-119.5" font-family="Helvetica,sans-Serif" font-size="10.00">ShiftRegisterOutBase.hpp</text>
</a>
</g>
</g>
<!-- Node4&#45;&gt;Node7 -->
<g id="edge6" class="edge"><title>Node4&#45;&gt;Node7</title>
<path fill="none" stroke="midnightblue" d="M279.892,-165.172C250.141,-155.004 207.953,-140.585 181.418,-131.516"/>
<polygon fill="midnightblue" stroke="midnightblue" points="278.87,-168.521 289.464,-168.444 281.134,-161.898 278.87,-168.521"/>
</g>
<!-- Node8 -->
<g id="node8" class="node"><title>Node8</title>
<g id="a_node8"><a xlink:href="../../d0/db4/ShiftRegisterOut_8hpp.html" target="_top" xlink:title=" ">
<polygon fill="white" stroke="black" points="143.5,-56.5 143.5,-75.5 251.5,-75.5 251.5,-56.5 143.5,-56.5"/>
<text text-anchor="middle" x="197.5" y="-63.5" font-family="Helvetica,sans-Serif" font-size="10.00">ShiftRegisterOut.hpp</text>
</a>
</g>
</g>
<!-- Node7&#45;&gt;Node8 -->
<g id="edge7" class="edge"><title>Node7&#45;&gt;Node8</title>
<path fill="none" stroke="midnightblue" d="M169.517,-103.855C176.617,-94.5048 185.104,-83.3265 190.856,-75.7511"/>
<polygon fill="midnightblue" stroke="midnightblue" points="166.53,-102.002 163.27,-112.083 172.105,-106.235 166.53,-102.002"/>
</g>
<!-- Node10 -->
<g id="node10" class="node"><title>Node10</title>
<g id="a_node10"><a xlink:href="../../d5/d47/ShiftRegisterOutBase_8ipp.html" target="_top" xlink:title=" ">
<polygon fill="white" stroke="black" points="269.5,-56.5 269.5,-75.5 397.5,-75.5 397.5,-56.5 269.5,-56.5"/>
<text text-anchor="middle" x="333.5" y="-63.5" font-family="Helvetica,sans-Serif" font-size="10.00">ShiftRegisterOutBase.ipp</text>
</a>
</g>
</g>
<!-- Node7&#45;&gt;Node10 -->
<g id="edge10" class="edge"><title>Node7&#45;&gt;Node10</title>
<path fill="none" stroke="midnightblue" d="M189.16,-109.304C220.902,-99.1294 268.644,-84.6246 300.505,-75.5164"/>
<polygon fill="midnightblue" stroke="midnightblue" points="187.895,-106.035 179.457,-112.444 190.049,-112.695 187.895,-106.035"/>
</g>
<!-- Node11 -->
<g id="node11" class="node"><title>Node11</title>
<g id="a_node11"><a xlink:href="../../d7/d88/SPIShiftRegisterOut_8hpp.html" target="_top" xlink:title=" ">
<polygon fill="white" stroke="black" points="0,-56.5 0,-75.5 125,-75.5 125,-56.5 0,-56.5"/>
<text text-anchor="middle" x="62.5" y="-63.5" font-family="Helvetica,sans-Serif" font-size="10.00">SPIShiftRegisterOut.hpp</text>
</a>
</g>
</g>
<!-- Node7&#45;&gt;Node11 -->
<g id="edge12" class="edge"><title>Node7&#45;&gt;Node11</title>
<path fill="none" stroke="midnightblue" d="M132.438,-107.177C115.141,-97.2407 92.3523,-84.1492 77.5652,-75.6545"/>
<polygon fill="midnightblue" stroke="midnightblue" points="130.983,-110.378 141.397,-112.324 134.47,-104.308 130.983,-110.378"/>
</g>
<!-- Node9 -->
<g id="node9" class="node"><title>Node9</title>
<g id="a_node9"><a xlink:href="../../de/d95/ShiftRegisterOut_8ipp.html" target="_top" xlink:title=" ">
<polygon fill="white" stroke="black" points="145,-0.5 145,-19.5 250,-19.5 250,-0.5 145,-0.5"/>
<text text-anchor="middle" x="197.5" y="-7.5" font-family="Helvetica,sans-Serif" font-size="10.00">ShiftRegisterOut.ipp</text>
</a>
</g>
</g>
<!-- Node8&#45;&gt;Node9 -->
<g id="edge8" class="edge"><title>Node8&#45;&gt;Node9</title>
<path fill="none" stroke="midnightblue" d="M191.028,-46.1005C190.396,-37.1357 190.843,-26.8579 192.369,-19.7511"/>
<polygon fill="midnightblue" stroke="midnightblue" points="187.566,-46.6216 192.334,-56.083 194.507,-45.7134 187.566,-46.6216"/>
</g>
<!-- Node9&#45;&gt;Node8 -->
<g id="edge9" class="edge"><title>Node9&#45;&gt;Node8</title>
<path fill="none" stroke="midnightblue" d="M203.958,-29.6911C204.606,-38.6353 204.176,-48.9272 202.666,-56.083"/>
<polygon fill="midnightblue" stroke="midnightblue" points="207.423,-29.2002 202.631,-19.7511 200.485,-30.1262 207.423,-29.2002"/>
</g>
<!-- Node10&#45;&gt;Node7 -->
<g id="edge11" class="edge"><title>Node10&#45;&gt;Node7</title>
<path fill="none" stroke="midnightblue" d="M300.979,-78.6509C269.284,-88.8133 221.542,-103.32 189.635,-112.444"/>
<polygon fill="midnightblue" stroke="midnightblue" points="302.228,-81.9253 310.665,-75.5164 300.073,-75.2654 302.228,-81.9253"/>
</g>
<!-- Node12 -->
<g id="node12" class="node"><title>Node12</title>
<g id="a_node12"><a xlink:href="../../da/d45/SPIShiftRegisterOut_8ipp.html" target="_top" xlink:title=" ">
<polygon fill="white" stroke="black" points="1.5,-0.5 1.5,-19.5 123.5,-19.5 123.5,-0.5 1.5,-0.5"/>
<text text-anchor="middle" x="62.5" y="-7.5" font-family="Helvetica,sans-Serif" font-size="10.00">SPIShiftRegisterOut.ipp</text>
</a>
</g>
</g>
<!-- Node11&#45;&gt;Node12 -->
<g id="edge13" class="edge"><title>Node11&#45;&gt;Node12</title>
<path fill="none" stroke="midnightblue" d="M56.0276,-46.1005C55.3956,-37.1357 55.8427,-26.8579 57.369,-19.7511"/>
<polygon fill="midnightblue" stroke="midnightblue" points="52.5658,-46.6216 57.3337,-56.083 59.5067,-45.7134 52.5658,-46.6216"/>
</g>
<!-- Node12&#45;&gt;Node11 -->
<g id="edge14" class="edge"><title>Node12&#45;&gt;Node11</title>
<path fill="none" stroke="midnightblue" d="M68.9575,-29.6911C69.6062,-38.6353 69.1758,-48.9272 67.6663,-56.083"/>
<polygon fill="midnightblue" stroke="midnightblue" points="72.4231,-29.2002 67.631,-19.7511 65.4846,-30.1262 72.4231,-29.2002"/>
</g>
<!-- Node14 -->
<g id="node14" class="node"><title>Node14</title>
<g id="a_node14"><a xlink:href="../../d9/d4b/ButtonMatrix_8hpp.html" target="_top" xlink:title=" ">
<polygon fill="white" stroke="black" points="455,-168.5 455,-187.5 546,-187.5 546,-168.5 455,-168.5"/>
<text text-anchor="middle" x="500.5" y="-175.5" font-family="Helvetica,sans-Serif" font-size="10.00">ButtonMatrix.hpp</text>
</a>
</g>
</g>
<!-- Node13&#45;&gt;Node14 -->
<g id="edge17" class="edge"><title>Node13&#45;&gt;Node14</title>
<path fill="none" stroke="midnightblue" d="M538.972,-270.998C528.935,-246.997 511.569,-205.468 504.093,-187.591"/>
<polygon fill="midnightblue" stroke="midnightblue" points="535.803,-272.493 542.89,-280.368 542.261,-269.792 535.803,-272.493"/>
</g>
<!-- Node16 -->
<g id="node16" class="node"><title>Node16</title>
<g id="a_node16"><a xlink:href="../../d4/d57/ExtendedIOElement_8hpp.html" target="_top" xlink:title=" ">
<polygon fill="white" stroke="black" points="622,-224.5 622,-243.5 745,-243.5 745,-224.5 622,-224.5"/>
<text text-anchor="middle" x="683.5" y="-231.5" font-family="Helvetica,sans-Serif" font-size="10.00">ExtendedIOElement.hpp</text>
</a>
</g>
</g>
<!-- Node13&#45;&gt;Node16 -->
<g id="edge20" class="edge"><title>Node13&#45;&gt;Node16</title>
<path fill="none" stroke="midnightblue" d="M577.523,-276.772C603.257,-266.629 639.186,-252.467 661.894,-243.516"/>
<polygon fill="midnightblue" stroke="midnightblue" points="576.228,-273.52 568.208,-280.444 578.795,-280.033 576.228,-273.52"/>
</g>
<!-- Node25 -->
<g id="node25" class="node"><title>Node25</title>
<g id="a_node25"><a xlink:href="../../d8/df3/FilteredAnalog_8hpp.html" target="_top" xlink:title=" ">
<polygon fill="white" stroke="black" points="544.5,-112.5 544.5,-131.5 642.5,-131.5 642.5,-112.5 544.5,-112.5"/>
<text text-anchor="middle" x="593.5" y="-119.5" font-family="Helvetica,sans-Serif" font-size="10.00">FilteredAnalog.hpp</text>
</a>
</g>
</g>
<!-- Node13&#45;&gt;Node25 -->
<g id="edge43" class="edge"><title>Node13&#45;&gt;Node25</title>
<path fill="none" stroke="midnightblue" d="M551.768,-270.395C561.907,-234.585 583.777,-157.342 591.074,-131.568"/>
<polygon fill="midnightblue" stroke="midnightblue" points="548.384,-269.5 549.027,-280.075 555.119,-271.407 548.384,-269.5"/>
</g>
<!-- Node15 -->
<g id="node15" class="node"><title>Node15</title>
<g id="a_node15"><a xlink:href="../../d5/d41/ButtonMatrix_8ipp.html" target="_top" xlink:title=" ">
<polygon fill="white" stroke="black" points="438.5,-112.5 438.5,-131.5 526.5,-131.5 526.5,-112.5 438.5,-112.5"/>
<text text-anchor="middle" x="482.5" y="-119.5" font-family="Helvetica,sans-Serif" font-size="10.00">ButtonMatrix.ipp</text>
</a>
</g>
</g>
<!-- Node14&#45;&gt;Node15 -->
<g id="edge18" class="edge"><title>Node14&#45;&gt;Node15</title>
<path fill="none" stroke="midnightblue" d="M488.088,-158.983C484.306,-149.817 481.156,-139.092 480.286,-131.751"/>
<polygon fill="midnightblue" stroke="midnightblue" points="484.943,-160.519 492.361,-168.083 491.279,-157.544 484.943,-160.519"/>
</g>
<!-- Node15&#45;&gt;Node14 -->
<g id="edge19" class="edge"><title>Node15&#45;&gt;Node14</title>
<path fill="none" stroke="midnightblue" d="M494.827,-140.811C498.618,-149.953 501.789,-160.691 502.694,-168.083"/>
<polygon fill="midnightblue" stroke="midnightblue" points="497.983,-139.299 490.548,-131.751 491.654,-142.288 497.983,-139.299"/>
</g>
<!-- Node16&#45;&gt;Node4 -->
<g id="edge40" class="edge"><title>Node16&#45;&gt;Node4</title>
<path fill="none" stroke="midnightblue" d="M615.026,-222.979C545.324,-212.779 438.437,-197.137 372.696,-187.516"/>
<polygon fill="midnightblue" stroke="midnightblue" points="614.629,-226.459 625.031,-224.444 615.643,-219.532 614.629,-226.459"/>
</g>
<!-- Node17 -->
<g id="node17" class="node"><title>Node17</title>
<g id="a_node17"><a xlink:href="../../dd/ddf/ExtendedInputOutput_8hpp.html" target="_top" xlink:title=" ">
<polygon fill="white" stroke="black" points="619.5,-168.5 619.5,-187.5 747.5,-187.5 747.5,-168.5 619.5,-168.5"/>
<text text-anchor="middle" x="683.5" y="-175.5" font-family="Helvetica,sans-Serif" font-size="10.00">ExtendedInputOutput.hpp</text>
</a>
</g>
</g>
<!-- Node16&#45;&gt;Node17 -->
<g id="edge21" class="edge"><title>Node16&#45;&gt;Node17</title>
<path fill="none" stroke="midnightblue" d="M683.5,-213.805C683.5,-204.91 683.5,-194.78 683.5,-187.751"/>
<polygon fill="midnightblue" stroke="midnightblue" points="680,-214.083 683.5,-224.083 687,-214.083 680,-214.083"/>
</g>
<!-- Node16&#45;&gt;Node24 -->
<g id="edge41" class="edge"><title>Node16&#45;&gt;Node24</title>
<path fill="none" stroke="midnightblue" d="M706.546,-218.852C736.255,-200.716 785.216,-171.212 794.5,-168 806.824,-163.737 966.545,-142.899 1058.46,-131.132"/>
<polygon fill="midnightblue" stroke="midnightblue" points="704.355,-216.089 697.651,-224.293 708.008,-222.061 704.355,-216.089"/>
</g>
<!-- Node16&#45;&gt;Node30 -->
<g id="edge42" class="edge"><title>Node16&#45;&gt;Node30</title>
<path fill="none" stroke="midnightblue" d="M722.031,-221.568C756.364,-211.381 805.833,-196.703 836.796,-187.516"/>
<polygon fill="midnightblue" stroke="midnightblue" points="720.93,-218.244 712.338,-224.444 722.921,-224.954 720.93,-218.244"/>
</g>
<!-- Node17&#45;&gt;Node5 -->
<g id="edge29" class="edge"><title>Node17&#45;&gt;Node5</title>
<path fill="none" stroke="midnightblue" d="M623.577,-166.727C564.051,-156.523 473.84,-141.058 418.179,-131.516"/>
<polygon fill="midnightblue" stroke="midnightblue" points="623.14,-170.203 633.587,-168.444 624.322,-163.304 623.14,-170.203"/>
</g>
<!-- Node17&#45;&gt;Node9 -->
<g id="edge32" class="edge"><title>Node17&#45;&gt;Node9</title>
<path fill="none" stroke="midnightblue" d="M751.851,-166.611C791.002,-159.109 834.655,-147.558 846.5,-132 866.961,-105.125 869.544,-80.6967 846.5,-56 806.168,-12.7748 397.684,-10.1538 250.229,-10.6329"/>
<polygon fill="midnightblue" stroke="midnightblue" points="751.213,-163.169 742.016,-168.431 752.486,-170.053 751.213,-163.169"/>
</g>
<!-- Node17&#45;&gt;Node10 -->
<g id="edge31" class="edge"><title>Node17&#45;&gt;Node10</title>
<path fill="none" stroke="midnightblue" d="M679.415,-158.391C675.103,-143.393 666.746,-123.045 651.5,-112 646.385,-108.294 489.107,-87.2786 397.696,-75.3216"/>
<polygon fill="midnightblue" stroke="midnightblue" points="676.039,-159.318 681.88,-168.157 682.826,-157.604 676.039,-159.318"/>
</g>
<!-- Node17&#45;&gt;Node12 -->
<g id="edge33" class="edge"><title>Node17&#45;&gt;Node12</title>
<path fill="none" stroke="midnightblue" d="M733.402,-166.046C765.824,-157.803 803.802,-145.62 813.5,-132 833.092,-104.485 836.743,-80.5095 813.5,-56 787.545,-28.6302 173.074,-23.3097 135.5,-20 131.684,-19.6639 127.76,-19.2829 123.805,-18.8723"/>
<polygon fill="midnightblue" stroke="midnightblue" points="732.427,-162.682 723.556,-168.475 734.103,-169.478 732.427,-162.682"/>
</g>
<!-- Node17&#45;&gt;Node15 -->
<g id="edge28" class="edge"><title>Node17&#45;&gt;Node15</title>
<path fill="none" stroke="midnightblue" d="M641.919,-165.829C603.969,-155.633 548.69,-140.782 514.2,-131.516"/>
<polygon fill="midnightblue" stroke="midnightblue" points="641.085,-169.229 651.651,-168.444 642.902,-162.469 641.085,-169.229"/>
</g>
<!-- Node18 -->
<g id="node18" class="node"><title>Node18</title>
<g id="a_node18"><a xlink:href="../../d4/db3/Button_8hpp.html" target="_top" xlink:title=" ">
<polygon fill="white" stroke="black" points="898.5,-112.5 898.5,-131.5 962.5,-131.5 962.5,-112.5 898.5,-112.5"/>
<text text-anchor="middle" x="930.5" y="-119.5" font-family="Helvetica,sans-Serif" font-size="10.00">Button.hpp</text>
</a>
</g>
</g>
<!-- Node17&#45;&gt;Node18 -->
<g id="edge22" class="edge"><title>Node17&#45;&gt;Node18</title>
<path fill="none" stroke="midnightblue" d="M732.425,-166.304C781.605,-155.552 856.009,-139.286 898.236,-130.054"/>
<polygon fill="midnightblue" stroke="midnightblue" points="731.66,-162.888 722.638,-168.444 733.155,-169.727 731.66,-162.888"/>
</g>
<!-- Node17&#45;&gt;Node24 -->
<g id="edge30" class="edge"><title>Node17&#45;&gt;Node24</title>
<path fill="none" stroke="midnightblue" d="M757.776,-167.875C831.721,-158.789 948.458,-144.44 1049.5,-132 1052.41,-131.641 1055.4,-131.274 1058.41,-130.903"/>
<polygon fill="midnightblue" stroke="midnightblue" points="757.131,-164.428 747.633,-169.121 757.985,-171.376 757.131,-164.428"/>
</g>
<!-- Node17&#45;&gt;Node25 -->
<g id="edge34" class="edge"><title>Node17&#45;&gt;Node25</title>
<path fill="none" stroke="midnightblue" d="M660.462,-163.177C643.901,-153.241 622.082,-140.149 607.924,-131.655"/>
<polygon fill="midnightblue" stroke="midnightblue" points="658.664,-166.18 669.04,-168.324 662.266,-160.178 658.664,-166.18"/>
</g>
<!-- Node26 -->
<g id="node26" class="node"><title>Node26</title>
<g id="a_node26"><a xlink:href="../../d9/d4f/LEDs_8hpp.html" target="_top" xlink:title=" ">
<polygon fill="white" stroke="black" points="980.5,-112.5 980.5,-131.5 1040.5,-131.5 1040.5,-112.5 980.5,-112.5"/>
<text text-anchor="middle" x="1010.5" y="-119.5" font-family="Helvetica,sans-Serif" font-size="10.00">LEDs.hpp</text>
</a>
</g>
</g>
<!-- Node17&#45;&gt;Node26 -->
<g id="edge35" class="edge"><title>Node17&#45;&gt;Node26</title>
<path fill="none" stroke="midnightblue" d="M756.879,-167.018C815.232,-158.722 898.847,-146.04 971.5,-132 974.365,-131.446 977.34,-130.832 980.312,-130.192"/>
<polygon fill="midnightblue" stroke="midnightblue" points="756.061,-163.598 746.65,-168.464 757.041,-170.529 756.061,-163.598"/>
</g>
<!-- Node28 -->
<g id="node28" class="node"><title>Node28</title>
<g id="a_node28"><a xlink:href="../../d7/d13/MAX7219__Base_8hpp.html" target="_top" xlink:title=" ">
<polygon fill="white" stroke="black" points="698.5,-112.5 698.5,-131.5 804.5,-131.5 804.5,-112.5 698.5,-112.5"/>
<text text-anchor="middle" x="751.5" y="-119.5" font-family="Helvetica,sans-Serif" font-size="10.00">MAX7219_Base.hpp</text>
</a>
</g>
</g>
<!-- Node17&#45;&gt;Node28 -->
<g id="edge37" class="edge"><title>Node17&#45;&gt;Node28</title>
<path fill="none" stroke="midnightblue" d="M702.262,-162.101C714.5,-152.382 730.059,-140.027 740.376,-131.834"/>
<polygon fill="midnightblue" stroke="midnightblue" points="700.08,-159.364 694.425,-168.324 704.433,-164.846 700.08,-159.364"/>
</g>
<!-- Node19 -->
<g id="node19" class="node"><title>Node19</title>
<g id="a_node19"><a xlink:href="../../de/dd1/Button_8cpp.html" target="_top" xlink:title=" ">
<polygon fill="white" stroke="black" points="1203.5,-56.5 1203.5,-75.5 1267.5,-75.5 1267.5,-56.5 1203.5,-56.5"/>
<text text-anchor="middle" x="1235.5" y="-63.5" font-family="Helvetica,sans-Serif" font-size="10.00">Button.cpp</text>
</a>
</g>
</g>
<!-- Node18&#45;&gt;Node19 -->
<g id="edge23" class="edge"><title>Node18&#45;&gt;Node19</title>
<path fill="none" stroke="midnightblue" d="M972.531,-111.894C1071.8,-93.3064 1098.96,-94.1834 1194.5,-76 1197.36,-75.455 1200.33,-74.8606 1203.31,-74.2455"/>
<polygon fill="midnightblue" stroke="midnightblue" points="971.869,-108.457 962.694,-113.754 973.17,-115.335 971.869,-108.457"/>
</g>
<!-- Node20 -->
<g id="node20" class="node"><title>Node20</title>
<g id="a_node20"><a xlink:href="../../d5/d04/IncrementButton_8hpp.html" target="_top" xlink:title=" ">
<polygon fill="white" stroke="black" points="1078,-56.5 1078,-75.5 1185,-75.5 1185,-56.5 1078,-56.5"/>
<text text-anchor="middle" x="1131.5" y="-63.5" font-family="Helvetica,sans-Serif" font-size="10.00">IncrementButton.hpp</text>
</a>
</g>
</g>
<!-- Node18&#45;&gt;Node20 -->
<g id="edge24" class="edge"><title>Node18&#45;&gt;Node20</title>
<path fill="none" stroke="midnightblue" d="M972.081,-109.829C1010.03,-99.6333 1065.31,-84.7823 1099.8,-75.5164"/>
<polygon fill="midnightblue" stroke="midnightblue" points="971.098,-106.469 962.349,-112.444 972.915,-113.229 971.098,-106.469"/>
</g>
<!-- Node22 -->
<g id="node22" class="node"><title>Node22</title>
<g id="a_node22"><a xlink:href="../../df/df5/IncrementDecrementButtons_8hpp.html" target="_top" xlink:title=" ">
<polygon fill="white" stroke="black" points="899,-56.5 899,-75.5 1060,-75.5 1060,-56.5 899,-56.5"/>
<text text-anchor="middle" x="979.5" y="-63.5" font-family="Helvetica,sans-Serif" font-size="10.00">IncrementDecrementButtons.hpp</text>
</a>
</g>
</g>
<!-- Node18&#45;&gt;Node22 -->
<g id="edge26" class="edge"><title>Node18&#45;&gt;Node22</title>
<path fill="none" stroke="midnightblue" d="M945.534,-104.431C954.122,-94.9673 964.543,-83.4827 971.559,-75.7511"/>
<polygon fill="midnightblue" stroke="midnightblue" points="942.719,-102.325 938.591,-112.083 947.903,-107.029 942.719,-102.325"/>
</g>
<!-- Node21 -->
<g id="node21" class="node"><title>Node21</title>
<g id="a_node21"><a xlink:href="../../db/d9d/IncrementButton_8cpp.html" target="_top" xlink:title=" ">
<polygon fill="white" stroke="black" points="1078,-0.5 1078,-19.5 1185,-19.5 1185,-0.5 1078,-0.5"/>
<text text-anchor="middle" x="1131.5" y="-7.5" font-family="Helvetica,sans-Serif" font-size="10.00">IncrementButton.cpp</text>
</a>
</g>
</g>
<!-- Node20&#45;&gt;Node21 -->
<g id="edge25" class="edge"><title>Node20&#45;&gt;Node21</title>
<path fill="none" stroke="midnightblue" d="M1131.5,-45.8045C1131.5,-36.9102 1131.5,-26.7798 1131.5,-19.7511"/>
<polygon fill="midnightblue" stroke="midnightblue" points="1128,-46.083 1131.5,-56.083 1135,-46.083 1128,-46.083"/>
</g>
<!-- Node23 -->
<g id="node23" class="node"><title>Node23</title>
<g id="a_node23"><a xlink:href="../../da/d66/IncrementDecrementButtons_8cpp.html" target="_top" xlink:title=" ">
<polygon fill="white" stroke="black" points="899,-0.5 899,-19.5 1060,-19.5 1060,-0.5 899,-0.5"/>
<text text-anchor="middle" x="979.5" y="-7.5" font-family="Helvetica,sans-Serif" font-size="10.00">IncrementDecrementButtons.cpp</text>
</a>
</g>
</g>
<!-- Node22&#45;&gt;Node23 -->
<g id="edge27" class="edge"><title>Node22&#45;&gt;Node23</title>
<path fill="none" stroke="midnightblue" d="M979.5,-45.8045C979.5,-36.9102 979.5,-26.7798 979.5,-19.7511"/>
<polygon fill="midnightblue" stroke="midnightblue" points="976,-46.083 979.5,-56.083 983,-46.083 976,-46.083"/>
</g>
<!-- Node27 -->
<g id="node27" class="node"><title>Node27</title>
<g id="a_node27"><a xlink:href="../../d6/d3a/DotBarDisplayLEDs_8hpp.html" target="_top" xlink:title=" ">
<polygon fill="white" stroke="black" points="1285.5,-56.5 1285.5,-75.5 1409.5,-75.5 1409.5,-56.5 1285.5,-56.5"/>
<text text-anchor="middle" x="1347.5" y="-63.5" font-family="Helvetica,sans-Serif" font-size="10.00">DotBarDisplayLEDs.hpp</text>
</a>
</g>
</g>
<!-- Node26&#45;&gt;Node27 -->
<g id="edge36" class="edge"><title>Node26&#45;&gt;Node27</title>
<path fill="none" stroke="midnightblue" d="M1050.71,-111.888C1137.53,-95.5525 1227.13,-82.7512 1285.34,-74.9684"/>
<polygon fill="midnightblue" stroke="midnightblue" points="1049.86,-108.488 1040.69,-113.793 1051.16,-115.365 1049.86,-108.488"/>
</g>
<!-- Node28&#45;&gt;Node6 -->
<g id="edge38" class="edge"><title>Node28&#45;&gt;Node6</title>
<path fill="none" stroke="midnightblue" d="M694.542,-110.644C635.612,-99.9295 545.147,-83.4813 493.753,-74.1368"/>
<polygon fill="midnightblue" stroke="midnightblue" points="693.975,-114.098 704.439,-112.444 695.227,-107.211 693.975,-114.098"/>
</g>
<!-- Node29 -->
<g id="node29" class="node"><title>Node29</title>
<g id="a_node29"><a xlink:href="../../d5/d0c/MAX7219SevenSegmentDisplay_8hpp.html" target="_top" xlink:title=" ">
<polygon fill="white" stroke="black" points="626.5,-56.5 626.5,-75.5 804.5,-75.5 804.5,-56.5 626.5,-56.5"/>
<text text-anchor="middle" x="715.5" y="-63.5" font-family="Helvetica,sans-Serif" font-size="10.00">MAX7219SevenSegmentDisplay.hpp</text>
</a>
</g>
</g>
<!-- Node28&#45;&gt;Node29 -->
<g id="edge39" class="edge"><title>Node28&#45;&gt;Node29</title>
<path fill="none" stroke="midnightblue" d="M739.877,-103.566C733.683,-94.2747 726.332,-83.2484 721.334,-75.7511"/>
<polygon fill="midnightblue" stroke="midnightblue" points="737.096,-105.704 745.555,-112.083 742.92,-101.821 737.096,-105.704"/>
</g>
<!-- Node34&#45;&gt;Node6 -->
<g id="edge48" class="edge"><title>Node34&#45;&gt;Node6</title>
<path fill="none" stroke="midnightblue" d="M192.862,-163.423C218.057,-149.192 259.655,-126.876 297.5,-112 337.48,-96.2856 385.125,-83.4106 417.361,-75.5179"/>
<polygon fill="midnightblue" stroke="midnightblue" points="191.004,-160.453 184.051,-168.448 194.472,-166.534 191.004,-160.453"/>
</g>
<!-- Node34&#45;&gt;Node7 -->
<g id="edge49" class="edge"><title>Node34&#45;&gt;Node7</title>
<path fill="none" stroke="midnightblue" d="M164.95,-158.101C162.792,-149.136 160.318,-138.858 158.607,-131.751"/>
<polygon fill="midnightblue" stroke="midnightblue" points="161.61,-159.18 167.353,-168.083 168.415,-157.542 161.61,-159.18"/>
</g>
<!-- Node34&#45;&gt;Node11 -->
<g id="edge50" class="edge"><title>Node34&#45;&gt;Node11</title>
<path fill="none" stroke="midnightblue" d="M129.681,-164.676C112.682,-157.586 93.9363,-147.03 81.5,-132 67.7092,-115.333 63.9273,-89.0457 62.8908,-75.5775"/>
<polygon fill="midnightblue" stroke="midnightblue" points="128.837,-168.103 139.426,-168.459 131.37,-161.578 128.837,-168.103"/>
</g>
</g>
</svg>
