<?xml version="1.0" encoding="UTF-8" standalone="no"?>
<!DOCTYPE svg PUBLIC "-//W3C//DTD SVG 1.1//EN"
 "http://www.w3.org/Graphics/SVG/1.1/DTD/svg11.dtd">
<!-- Generated by graphviz version 2.38.0 (20140413.2041)
 -->
<!-- Title: Error.hpp Pages: 1 -->
<svg width="1304pt" height="420pt"
 viewBox="0.00 0.00 1303.50 420.00" xmlns="http://www.w3.org/2000/svg" xmlns:xlink="http://www.w3.org/1999/xlink">
<g id="graph0" class="graph" transform="scale(1 1) rotate(0) translate(4 416)">
<title>Error.hpp</title>
<polygon fill="white" stroke="none" points="-4,4 -4,-416 1299.5,-416 1299.5,4 -4,4"/>
<!-- Node1 -->
<g id="node1" class="node"><title>Node1</title>
<g id="a_node1"><a xlink:title=" ">
<polygon fill="#bfbfbf" stroke="black" points="895.5,-392.5 895.5,-411.5 951.5,-411.5 951.5,-392.5 895.5,-392.5"/>
<text text-anchor="middle" x="923.5" y="-399.5" font-family="Helvetica,sans-Serif" font-size="10.00">Error.hpp</text>
</a>
</g>
</g>
<!-- Node2 -->
<g id="node2" class="node"><title>Node2</title>
<g id="a_node2"><a xlink:href="../../de/d76/Array_8hpp.html" target="_top" xlink:title=" ">
<polygon fill="white" stroke="black" points="405,-336.5 405,-355.5 464,-355.5 464,-336.5 405,-336.5"/>
<text text-anchor="middle" x="434.5" y="-343.5" font-family="Helvetica,sans-Serif" font-size="10.00">Array.hpp</text>
</a>
</g>
</g>
<!-- Node1&#45;&gt;Node2 -->
<g id="edge1" class="edge"><title>Node1&#45;&gt;Node2</title>
<path fill="none" stroke="midnightblue" d="M885.512,-396.805C791.417,-386.414 549.026,-359.647 464.283,-350.289"/>
<polygon fill="midnightblue" stroke="midnightblue" points="885.129,-400.284 895.453,-397.903 885.898,-393.326 885.129,-400.284"/>
</g>
<!-- Node24 -->
<g id="node24" class="node"><title>Node24</title>
<g id="a_node24"><a xlink:href="../../d6/d3c/ExtendedInputOutput_8cpp.html" target="_top" xlink:title=" ">
<polygon fill="white" stroke="black" points="1059.5,-112.5 1059.5,-131.5 1187.5,-131.5 1187.5,-112.5 1059.5,-112.5"/>
<text text-anchor="middle" x="1123.5" y="-119.5" font-family="Helvetica,sans-Serif" font-size="10.00">ExtendedInputOutput.cpp</text>
</a>
</g>
</g>
<!-- Node1&#45;&gt;Node24 -->
<g id="edge52" class="edge"><title>Node1&#45;&gt;Node24</title>
<path fill="none" stroke="midnightblue" d="M936.936,-384.164C952.046,-363.492 974.5,-326.756 974.5,-291 974.5,-291 974.5,-291 974.5,-233 974.5,-175.927 1046.13,-145.116 1090.06,-131.587"/>
<polygon fill="midnightblue" stroke="midnightblue" points="934.07,-382.151 930.807,-392.231 939.644,-386.386 934.07,-382.151"/>
</g>
<!-- Node30 -->
<g id="node30" class="node"><title>Node30</title>
<g id="a_node30"><a xlink:href="../../da/d1f/ExtendedIOElement_8cpp.html" target="_top" xlink:title=" ">
<polygon fill="white" stroke="black" points="785,-168.5 785,-187.5 908,-187.5 908,-168.5 785,-168.5"/>
<text text-anchor="middle" x="846.5" y="-175.5" font-family="Helvetica,sans-Serif" font-size="10.00">ExtendedIOElement.cpp</text>
</a>
</g>
</g>
<!-- Node1&#45;&gt;Node30 -->
<g id="edge53" class="edge"><title>Node1&#45;&gt;Node30</title>
<path fill="none" stroke="midnightblue" d="M917.113,-382.585C901.349,-337.135 861.041,-220.924 849.581,-187.884"/>
<polygon fill="midnightblue" stroke="midnightblue" points="913.898,-383.996 920.482,-392.297 920.511,-381.703 913.898,-383.996"/>
</g>
<!-- Node33 -->
<g id="node33" class="node"><title>Node33</title>
<g id="a_node33"><a xlink:href="../../d1/d40/BitArray_8hpp.html" target="_top" xlink:title=" ">
<polygon fill="white" stroke="black" points="141,-168.5 141,-187.5 212,-187.5 212,-168.5 141,-168.5"/>
<text text-anchor="middle" x="176.5" y="-175.5" font-family="Helvetica,sans-Serif" font-size="10.00">BitArray.hpp</text>
</a>
</g>
</g>
<!-- Node1&#45;&gt;Node33 -->
<g id="edge46" class="edge"><title>Node1&#45;&gt;Node33</title>
<path fill="none" stroke="midnightblue" d="M885.198,-400.546C797.642,-398.899 576.452,-391.277 395.5,-356 312.849,-339.887 274.169,-359.417 214.5,-300 182.515,-268.15 177.388,-209.719 176.615,-187.701"/>
<polygon fill="midnightblue" stroke="midnightblue" points="885.384,-404.05 895.443,-400.723 885.505,-397.051 885.384,-404.05"/>
</g>
<!-- Node34 -->
<g id="node34" class="node"><title>Node34</title>
<g id="a_node34"><a xlink:href="../../d4/d93/Updatable_8hpp.html" target="_top" xlink:title=" ">
<polygon fill="white" stroke="black" points="1002.5,-336.5 1002.5,-355.5 1082.5,-355.5 1082.5,-336.5 1002.5,-336.5"/>
<text text-anchor="middle" x="1042.5" y="-343.5" font-family="Helvetica,sans-Serif" font-size="10.00">Updatable.hpp</text>
</a>
</g>
</g>
<!-- Node1&#45;&gt;Node34 -->
<g id="edge50" class="edge"><title>Node1&#45;&gt;Node34</title>
<path fill="none" stroke="midnightblue" d="M951.637,-388.232C973.896,-378.131 1004.36,-364.309 1023.73,-355.516"/>
<polygon fill="midnightblue" stroke="midnightblue" points="950.016,-385.124 942.356,-392.444 952.909,-391.498 950.016,-385.124"/>
</g>
<!-- Node35 -->
<g id="node35" class="node"><title>Node35</title>
<g id="a_node35"><a xlink:href="../../d6/df4/Exit_8cpp.html" target="_top" xlink:title=" ">
<polygon fill="white" stroke="black" points="1101,-336.5 1101,-355.5 1154,-355.5 1154,-336.5 1101,-336.5"/>
<text text-anchor="middle" x="1127.5" y="-343.5" font-family="Helvetica,sans-Serif" font-size="10.00">Exit.cpp</text>
</a>
</g>
</g>
<!-- Node1&#45;&gt;Node35 -->
<g id="edge51" class="edge"><title>Node1&#45;&gt;Node35</title>
<path fill="none" stroke="midnightblue" d="M961.676,-390.895C1002.3,-380.142 1065.5,-363.412 1100.99,-354.016"/>
<polygon fill="midnightblue" stroke="midnightblue" points="960.637,-387.549 951.865,-393.492 962.428,-394.316 960.637,-387.549"/>
</g>
<!-- Node3 -->
<g id="node3" class="node"><title>Node3</title>
<g id="a_node3"><a xlink:href="../../d5/db6/ArrayHelpers_8hpp.html" target="_top" xlink:title=" ">
<polygon fill="white" stroke="black" points="314.5,-224.5 314.5,-243.5 406.5,-243.5 406.5,-224.5 314.5,-224.5"/>
<text text-anchor="middle" x="360.5" y="-231.5" font-family="Helvetica,sans-Serif" font-size="10.00">ArrayHelpers.hpp</text>
</a>
</g>
</g>
<!-- Node2&#45;&gt;Node3 -->
<g id="edge2" class="edge"><title>Node2&#45;&gt;Node3</title>
<path fill="none" stroke="midnightblue" d="M424.699,-327.383C417.127,-314.1 406.17,-295.572 395.5,-280 386.549,-266.937 375.115,-252.624 367.798,-243.727"/>
<polygon fill="midnightblue" stroke="midnightblue" points="421.811,-329.388 429.769,-336.382 427.91,-325.951 421.811,-329.388"/>
</g>
<!-- Node5 -->
<g id="node5" class="node"><title>Node5</title>
<g id="a_node5"><a xlink:href="../../d7/def/AnalogMultiplex_8hpp.html" target="_top" xlink:title=" ">
<polygon fill="white" stroke="black" points="317.5,-112.5 317.5,-131.5 421.5,-131.5 421.5,-112.5 317.5,-112.5"/>
<text text-anchor="middle" x="369.5" y="-119.5" font-family="Helvetica,sans-Serif" font-size="10.00">AnalogMultiplex.hpp</text>
</a>
</g>
</g>
<!-- Node2&#45;&gt;Node5 -->
<g id="edge15" class="edge"><title>Node2&#45;&gt;Node5</title>
<path fill="none" stroke="midnightblue" d="M439.84,-326.335C448.407,-292.523 461.664,-219.844 434.5,-168 425.455,-150.736 406.445,-138.779 391.308,-131.553"/>
<polygon fill="midnightblue" stroke="midnightblue" points="436.397,-325.659 437.179,-336.225 443.157,-327.478 436.397,-325.659"/>
</g>
<!-- Node13 -->
<g id="node13" class="node"><title>Node13</title>
<g id="a_node13"><a xlink:href="../../d4/d35/Hardware-Types_8hpp.html" target="_top" xlink:title=" ">
<polygon fill="white" stroke="black" points="546,-280.5 546,-299.5 653,-299.5 653,-280.5 546,-280.5"/>
<text text-anchor="middle" x="599.5" y="-287.5" font-family="Helvetica,sans-Serif" font-size="10.00">Hardware&#45;Types.hpp</text>
</a>
</g>
</g>
<!-- Node2&#45;&gt;Node13 -->
<g id="edge16" class="edge"><title>Node2&#45;&gt;Node13</title>
<path fill="none" stroke="midnightblue" d="M470.236,-333.304C501.327,-323.129 545.647,-308.625 573.478,-299.516"/>
<polygon fill="midnightblue" stroke="midnightblue" points="469.06,-330.007 460.645,-336.444 471.237,-336.659 469.06,-330.007"/>
</g>
<!-- Node31 -->
<g id="node31" class="node"><title>Node31</title>
<g id="a_node31"><a xlink:href="../../d2/d3b/FIRFilter_8hpp.html" target="_top" xlink:title=" ">
<polygon fill="white" stroke="black" points="223.5,-280.5 223.5,-299.5 297.5,-299.5 297.5,-280.5 223.5,-280.5"/>
<text text-anchor="middle" x="260.5" y="-287.5" font-family="Helvetica,sans-Serif" font-size="10.00">FIRFilter.hpp</text>
</a>
</g>
</g>
<!-- Node2&#45;&gt;Node31 -->
<g id="edge44" class="edge"><title>Node2&#45;&gt;Node31</title>
<path fill="none" stroke="midnightblue" d="M397.239,-333.436C364.433,-323.255 317.417,-308.664 287.942,-299.516"/>
<polygon fill="midnightblue" stroke="midnightblue" points="396.341,-336.822 406.929,-336.444 398.416,-330.137 396.341,-336.822"/>
</g>
<!-- Node32 -->
<g id="node32" class="node"><title>Node32</title>
<g id="a_node32"><a xlink:href="../../dc/d64/IIRFilter_8hpp.html" target="_top" xlink:title=" ">
<polygon fill="white" stroke="black" points="316,-280.5 316,-299.5 387,-299.5 387,-280.5 316,-280.5"/>
<text text-anchor="middle" x="351.5" y="-287.5" font-family="Helvetica,sans-Serif" font-size="10.00">IIRFilter.hpp</text>
</a>
</g>
</g>
<!-- Node2&#45;&gt;Node32 -->
<g id="edge45" class="edge"><title>Node2&#45;&gt;Node32</title>
<path fill="none" stroke="midnightblue" d="M412.401,-330.622C397.238,-320.757 377.617,-307.992 364.802,-299.655"/>
<polygon fill="midnightblue" stroke="midnightblue" points="410.874,-333.804 421.165,-336.324 414.691,-327.937 410.874,-333.804"/>
</g>
<!-- Node4 -->
<g id="node4" class="node"><title>Node4</title>
<g id="a_node4"><a xlink:href="../../d2/d05/StaticSizeExtendedIOElement_8hpp.html" target="_top" xlink:title=" ">
<polygon fill="white" stroke="black" points="257.5,-168.5 257.5,-187.5 425.5,-187.5 425.5,-168.5 257.5,-168.5"/>
<text text-anchor="middle" x="341.5" y="-175.5" font-family="Helvetica,sans-Serif" font-size="10.00">StaticSizeExtendedIOElement.hpp</text>
</a>
</g>
</g>
<!-- Node3&#45;&gt;Node4 -->
<g id="edge3" class="edge"><title>Node3&#45;&gt;Node4</title>
<path fill="none" stroke="midnightblue" d="M353.954,-214.396C350.776,-205.362 347.107,-194.936 344.579,-187.751"/>
<polygon fill="midnightblue" stroke="midnightblue" points="350.742,-215.812 357.363,-224.083 357.345,-213.488 350.742,-215.812"/>
</g>
<!-- Node4&#45;&gt;Node5 -->
<g id="edge4" class="edge"><title>Node4&#45;&gt;Node5</title>
<path fill="none" stroke="midnightblue" d="M350.842,-158.983C355.595,-149.817 361.156,-139.092 364.962,-131.751"/>
<polygon fill="midnightblue" stroke="midnightblue" points="347.62,-157.594 346.124,-168.083 353.834,-160.817 347.62,-157.594"/>
</g>
<!-- Node6 -->
<g id="node6" class="node"><title>Node6</title>
<g id="a_node6"><a xlink:href="../../d2/d25/MAX7219_8hpp.html" target="_top" xlink:title=" ">
<polygon fill="white" stroke="black" points="415.5,-56.5 415.5,-75.5 493.5,-75.5 493.5,-56.5 415.5,-56.5"/>
<text text-anchor="middle" x="454.5" y="-63.5" font-family="Helvetica,sans-Serif" font-size="10.00">MAX7219.hpp</text>
</a>
</g>
</g>
<!-- Node4&#45;&gt;Node6 -->
<g id="edge5" class="edge"><title>Node4&#45;&gt;Node6</title>
<path fill="none" stroke="midnightblue" d="M323.966,-161.234C310.877,-147.527 297.065,-127.491 308.5,-112 315.234,-102.877 378.115,-85.8638 419.129,-75.5715"/>
<polygon fill="midnightblue" stroke="midnightblue" points="321.794,-164.006 331.393,-168.492 326.687,-158.999 321.794,-164.006"/>
</g>
<!-- Node7 -->
<g id="node7" class="node"><title>Node7</title>
<g id="a_node7"><a xlink:href="../../d8/d93/ShiftRegisterOutBase_8hpp.html" target="_top" xlink:title=" ">
<polygon fill="white" stroke="black" points="92,-112.5 92,-131.5 223,-131.5 223,-112.5 92,-112.5"/>
<text text-anchor="middle" x="157.5" y="-119.5" font-family="Helvetica,sans-Serif" font-size="10.00">ShiftRegisterOutBase.hpp</text>
</a>
</g>
</g>
<!-- Node4&#45;&gt;Node7 -->
<g id="edge6" class="edge"><title>Node4&#45;&gt;Node7</title>
<path fill="none" stroke="midnightblue" d="M302.546,-165.568C267.835,-155.381 217.823,-140.703 186.519,-131.516"/>
<polygon fill="midnightblue" stroke="midnightblue" points="301.764,-168.986 312.345,-168.444 303.735,-162.269 301.764,-168.986"/>
</g>
<!-- Node8 -->
<g id="node8" class="node"><title>Node8</title>
<g id="a_node8"><a xlink:href="../../d0/db4/ShiftRegisterOut_8hpp.html" target="_top" xlink:title=" ">
<polygon fill="white" stroke="black" points="143.5,-56.5 143.5,-75.5 251.5,-75.5 251.5,-56.5 143.5,-56.5"/>
<text text-anchor="middle" x="197.5" y="-63.5" font-family="Helvetica,sans-Serif" font-size="10.00">ShiftRegisterOut.hpp</text>
</a>
</g>
</g>
<!-- Node7&#45;&gt;Node8 -->
<g id="edge7" class="edge"><title>Node7&#45;&gt;Node8</title>
<path fill="none" stroke="midnightblue" d="M170.2,-103.855C177.126,-94.5048 185.406,-83.3265 191.018,-75.7511"/>
<polygon fill="midnightblue" stroke="midnightblue" points="167.245,-101.964 164.105,-112.083 172.87,-106.131 167.245,-101.964"/>
</g>
<!-- Node10 -->
<g id="node10" class="node"><title>Node10</title>
<g id="a_node10"><a xlink:href="../../d5/d47/ShiftRegisterOutBase_8ipp.html" target="_top" xlink:title=" ">
<polygon fill="white" stroke="black" points="269.5,-56.5 269.5,-75.5 397.5,-75.5 397.5,-56.5 269.5,-56.5"/>
<text text-anchor="middle" x="333.5" y="-63.5" font-family="Helvetica,sans-Serif" font-size="10.00">ShiftRegisterOutBase.ipp</text>
</a>
</g>
</g>
<!-- Node7&#45;&gt;Node10 -->
<g id="edge10" class="edge"><title>Node7&#45;&gt;Node10</title>
<path fill="none" stroke="midnightblue" d="M189.944,-109.304C221.497,-99.1294 268.97,-84.6246 300.663,-75.5164"/>
<polygon fill="midnightblue" stroke="midnightblue" points="188.725,-106.02 180.299,-112.444 190.891,-112.677 188.725,-106.02"/>
</g>
<!-- Node11 -->
<g id="node11" class="node"><title>Node11</title>
<g id="a_node11"><a xlink:href="../../d7/d88/SPIShiftRegisterOut_8hpp.html" target="_top" xlink:title=" ">
<polygon fill="white" stroke="black" points="0,-56.5 0,-75.5 125,-75.5 125,-56.5 0,-56.5"/>
<text text-anchor="middle" x="62.5" y="-63.5" font-family="Helvetica,sans-Serif" font-size="10.00">SPIShiftRegisterOut.hpp</text>
</a>
</g>
</g>
<!-- Node7&#45;&gt;Node11 -->
<g id="edge12" class="edge"><title>Node7&#45;&gt;Node11</title>
<path fill="none" stroke="midnightblue" d="M133.182,-107.177C115.701,-97.2407 92.6699,-84.1492 77.7255,-75.6545"/>
<polygon fill="midnightblue" stroke="midnightblue" points="131.813,-110.425 142.237,-112.324 135.273,-104.339 131.813,-110.425"/>
</g>
<!-- Node9 -->
<g id="node9" class="node"><title>Node9</title>
<g id="a_node9"><a xlink:href="../../de/d95/ShiftRegisterOut_8ipp.html" target="_top" xlink:title=" ">
<polygon fill="white" stroke="black" points="145,-0.5 145,-19.5 250,-19.5 250,-0.5 145,-0.5"/>
<text text-anchor="middle" x="197.5" y="-7.5" font-family="Helvetica,sans-Serif" font-size="10.00">ShiftRegisterOut.ipp</text>
</a>
</g>
</g>
<!-- Node8&#45;&gt;Node9 -->
<g id="edge8" class="edge"><title>Node8&#45;&gt;Node9</title>
<path fill="none" stroke="midnightblue" d="M191.028,-46.1005C190.396,-37.1357 190.843,-26.8579 192.369,-19.7511"/>
<polygon fill="midnightblue" stroke="midnightblue" points="187.566,-46.6216 192.334,-56.083 194.507,-45.7134 187.566,-46.6216"/>
</g>
<!-- Node9&#45;&gt;Node8 -->
<g id="edge9" class="edge"><title>Node9&#45;&gt;Node8</title>
<path fill="none" stroke="midnightblue" d="M203.958,-29.6911C204.606,-38.6353 204.176,-48.9272 202.666,-56.083"/>
<polygon fill="midnightblue" stroke="midnightblue" points="207.423,-29.2002 202.631,-19.7511 200.485,-30.1262 207.423,-29.2002"/>
</g>
<!-- Node10&#45;&gt;Node7 -->
<g id="edge11" class="edge"><title>Node10&#45;&gt;Node7</title>
<path fill="none" stroke="midnightblue" d="M301.195,-78.6509C269.688,-88.8133 222.215,-103.32 190.476,-112.444"/>
<polygon fill="midnightblue" stroke="midnightblue" points="302.397,-81.9402 310.823,-75.5164 300.23,-75.284 302.397,-81.9402"/>
</g>
<!-- Node12 -->
<g id="node12" class="node"><title>Node12</title>
<g id="a_node12"><a xlink:href="../../da/d45/SPIShiftRegisterOut_8ipp.html" target="_top" xlink:title=" ">
<polygon fill="white" stroke="black" points="1.5,-0.5 1.5,-19.5 123.5,-19.5 123.5,-0.5 1.5,-0.5"/>
<text text-anchor="middle" x="62.5" y="-7.5" font-family="Helvetica,sans-Serif" font-size="10.00">SPIShiftRegisterOut.ipp</text>
</a>
</g>
</g>
<!-- Node11&#45;&gt;Node12 -->
<g id="edge13" class="edge"><title>Node11&#45;&gt;Node12</title>
<path fill="none" stroke="midnightblue" d="M56.0276,-46.1005C55.3956,-37.1357 55.8427,-26.8579 57.369,-19.7511"/>
<polygon fill="midnightblue" stroke="midnightblue" points="52.5658,-46.6216 57.3337,-56.083 59.5067,-45.7134 52.5658,-46.6216"/>
</g>
<!-- Node12&#45;&gt;Node11 -->
<g id="edge14" class="edge"><title>Node12&#45;&gt;Node11</title>
<path fill="none" stroke="midnightblue" d="M68.9575,-29.6911C69.6062,-38.6353 69.1758,-48.9272 67.6663,-56.083"/>
<polygon fill="midnightblue" stroke="midnightblue" points="72.4231,-29.2002 67.631,-19.7511 65.4846,-30.1262 72.4231,-29.2002"/>
</g>
<!-- Node14 -->
<g id="node14" class="node"><title>Node14</title>
<g id="a_node14"><a xlink:href="../../d9/d4b/ButtonMatrix_8hpp.html" target="_top" xlink:title=" ">
<polygon fill="white" stroke="black" points="482,-168.5 482,-187.5 573,-187.5 573,-168.5 482,-168.5"/>
<text text-anchor="middle" x="527.5" y="-175.5" font-family="Helvetica,sans-Serif" font-size="10.00">ButtonMatrix.hpp</text>
</a>
</g>
</g>
<!-- Node13&#45;&gt;Node14 -->
<g id="edge17" class="edge"><title>Node13&#45;&gt;Node14</title>
<path fill="none" stroke="midnightblue" d="M588.345,-271.957C572.741,-248.118 544.982,-205.709 533.123,-187.591"/>
<polygon fill="midnightblue" stroke="midnightblue" points="585.445,-273.918 593.85,-280.368 591.302,-270.085 585.445,-273.918"/>
</g>
<!-- Node16 -->
<g id="node16" class="node"><title>Node16</title>
<g id="a_node16"><a xlink:href="../../d4/d57/ExtendedIOElement_8hpp.html" target="_top" xlink:title=" ">
<polygon fill="white" stroke="black" points="603,-224.5 603,-243.5 726,-243.5 726,-224.5 603,-224.5"/>
<text text-anchor="middle" x="664.5" y="-231.5" font-family="Helvetica,sans-Serif" font-size="10.00">ExtendedIOElement.hpp</text>
</a>
</g>
</g>
<!-- Node13&#45;&gt;Node16 -->
<g id="edge20" class="edge"><title>Node13&#45;&gt;Node16</title>
<path fill="none" stroke="midnightblue" d="M617.773,-273.82C629.418,-264.145 644.099,-251.948 653.867,-243.834"/>
<polygon fill="midnightblue" stroke="midnightblue" points="615.399,-271.242 609.943,-280.324 619.872,-276.626 615.399,-271.242"/>
</g>
<!-- Node25 -->
<g id="node25" class="node"><title>Node25</title>
<g id="a_node25"><a xlink:href="../../d8/df3/FilteredAnalog_8hpp.html" target="_top" xlink:title=" ">
<polygon fill="white" stroke="black" points="943.5,-112.5 943.5,-131.5 1041.5,-131.5 1041.5,-112.5 943.5,-112.5"/>
<text text-anchor="middle" x="992.5" y="-119.5" font-family="Helvetica,sans-Serif" font-size="10.00">FilteredAnalog.hpp</text>
</a>
</g>
</g>
<!-- Node13&#45;&gt;Node25 -->
<g id="edge43" class="edge"><title>Node13&#45;&gt;Node25</title>
<path fill="none" stroke="midnightblue" d="M656.008,-278.329C721.857,-264.291 832.481,-235.647 917.5,-188 945.157,-172.5 971.802,-145.702 984.602,-131.855"/>
<polygon fill="midnightblue" stroke="midnightblue" points="654.906,-274.984 645.835,-280.458 656.34,-281.835 654.906,-274.984"/>
</g>
<!-- Node15 -->
<g id="node15" class="node"><title>Node15</title>
<g id="a_node15"><a xlink:href="../../d5/d41/ButtonMatrix_8ipp.html" target="_top" xlink:title=" ">
<polygon fill="white" stroke="black" points="439.5,-112.5 439.5,-131.5 527.5,-131.5 527.5,-112.5 439.5,-112.5"/>
<text text-anchor="middle" x="483.5" y="-119.5" font-family="Helvetica,sans-Serif" font-size="10.00">ButtonMatrix.ipp</text>
</a>
</g>
</g>
<!-- Node14&#45;&gt;Node15 -->
<g id="edge18" class="edge"><title>Node14&#45;&gt;Node15</title>
<path fill="none" stroke="midnightblue" d="M507.98,-160.718C499.295,-151.2 490.186,-139.561 485.5,-131.751"/>
<polygon fill="midnightblue" stroke="midnightblue" points="505.612,-163.305 515.068,-168.083 510.656,-158.451 505.612,-163.305"/>
</g>
<!-- Node15&#45;&gt;Node14 -->
<g id="edge19" class="edge"><title>Node15&#45;&gt;Node14</title>
<path fill="none" stroke="midnightblue" d="M502.837,-139.081C511.515,-148.569 520.652,-160.22 525.401,-168.083"/>
<polygon fill="midnightblue" stroke="midnightblue" points="505.225,-136.516 495.762,-131.751 500.188,-141.377 505.225,-136.516"/>
</g>
<!-- Node16&#45;&gt;Node4 -->
<g id="edge40" class="edge"><title>Node16&#45;&gt;Node4</title>
<path fill="none" stroke="midnightblue" d="M603.433,-222.791C542.4,-212.587 449.633,-197.078 392.441,-187.516"/>
<polygon fill="midnightblue" stroke="midnightblue" points="602.879,-226.247 613.32,-224.444 604.034,-219.342 602.879,-226.247"/>
</g>
<!-- Node17 -->
<g id="node17" class="node"><title>Node17</title>
<g id="a_node17"><a xlink:href="../../dd/ddf/ExtendedInputOutput_8hpp.html" target="_top" xlink:title=" ">
<polygon fill="white" stroke="black" points="600.5,-168.5 600.5,-187.5 728.5,-187.5 728.5,-168.5 600.5,-168.5"/>
<text text-anchor="middle" x="664.5" y="-175.5" font-family="Helvetica,sans-Serif" font-size="10.00">ExtendedInputOutput.hpp</text>
</a>
</g>
</g>
<!-- Node16&#45;&gt;Node17 -->
<g id="edge21" class="edge"><title>Node16&#45;&gt;Node17</title>
<path fill="none" stroke="midnightblue" d="M664.5,-213.805C664.5,-204.91 664.5,-194.78 664.5,-187.751"/>
<polygon fill="midnightblue" stroke="midnightblue" points="661,-214.083 664.5,-224.083 668,-214.083 661,-214.083"/>
</g>
<!-- Node16&#45;&gt;Node24 -->
<g id="edge41" class="edge"><title>Node16&#45;&gt;Node24</title>
<path fill="none" stroke="midnightblue" d="M687.542,-218.842C717.248,-200.693 766.204,-171.176 775.5,-168 782.157,-165.726 960.451,-143.297 1059.18,-130.989"/>
<polygon fill="midnightblue" stroke="midnightblue" points="685.35,-216.08 678.649,-224.287 689.005,-222.05 685.35,-216.08"/>
</g>
<!-- Node16&#45;&gt;Node30 -->
<g id="edge42" class="edge"><title>Node16&#45;&gt;Node30</title>
<path fill="none" stroke="midnightblue" d="M703.031,-221.568C737.364,-211.381 786.833,-196.703 817.796,-187.516"/>
<polygon fill="midnightblue" stroke="midnightblue" points="701.93,-218.244 693.338,-224.444 703.921,-224.954 701.93,-218.244"/>
</g>
<!-- Node17&#45;&gt;Node5 -->
<g id="edge29" class="edge"><title>Node17&#45;&gt;Node5</title>
<path fill="none" stroke="midnightblue" d="M607.689,-166.601C551.937,-156.395 467.936,-141.019 416.025,-131.516"/>
<polygon fill="midnightblue" stroke="midnightblue" points="607.29,-170.086 617.756,-168.444 608.55,-163.2 607.29,-170.086"/>
</g>
<!-- Node17&#45;&gt;Node9 -->
<g id="edge32" class="edge"><title>Node17&#45;&gt;Node9</title>
<path fill="none" stroke="midnightblue" d="M696.342,-163.942C709.739,-156.665 723.95,-146.166 731.5,-132 747.387,-102.192 754.36,-80.8671 731.5,-56 699.349,-21.0255 378.575,-13.2144 250.2,-11.4856"/>
<polygon fill="midnightblue" stroke="midnightblue" points="694.666,-160.867 687.288,-168.471 697.798,-167.128 694.666,-160.867"/>
</g>
<!-- Node17&#45;&gt;Node10 -->
<g id="edge31" class="edge"><title>Node17&#45;&gt;Node10</title>
<path fill="none" stroke="midnightblue" d="M637.919,-163.89C619.961,-154.99 595.745,-142.901 574.5,-132 557.519,-123.287 554.42,-118.568 536.5,-112 488.879,-94.5462 432.384,-82.6961 391.099,-75.5561"/>
<polygon fill="midnightblue" stroke="midnightblue" points="636.678,-167.181 647.193,-168.48 639.782,-160.907 636.678,-167.181"/>
</g>
<!-- Node17&#45;&gt;Node12 -->
<g id="edge33" class="edge"><title>Node17&#45;&gt;Node12</title>
<path fill="none" stroke="midnightblue" d="M680.683,-160.962C687.597,-152.98 694.896,-142.749 698.5,-132 709.238,-99.9746 721.61,-80.6348 698.5,-56 655.614,-10.2839 197.911,-25.8375 135.5,-20 131.686,-19.6432 127.763,-19.2465 123.81,-18.8241"/>
<polygon fill="midnightblue" stroke="midnightblue" points="678.023,-158.683 673.788,-168.395 683.155,-163.444 678.023,-158.683"/>
</g>
<!-- Node17&#45;&gt;Node15 -->
<g id="edge28" class="edge"><title>Node17&#45;&gt;Node15</title>
<path fill="none" stroke="midnightblue" d="M626.181,-165.568C592.036,-155.381 542.839,-140.703 512.046,-131.516"/>
<polygon fill="midnightblue" stroke="midnightblue" points="625.237,-168.938 635.82,-168.444 627.238,-162.231 625.237,-168.938"/>
</g>
<!-- Node18 -->
<g id="node18" class="node"><title>Node18</title>
<g id="a_node18"><a xlink:href="../../d4/db3/Button_8hpp.html" target="_top" xlink:title=" ">
<polygon fill="white" stroke="black" points="783.5,-112.5 783.5,-131.5 847.5,-131.5 847.5,-112.5 783.5,-112.5"/>
<text text-anchor="middle" x="815.5" y="-119.5" font-family="Helvetica,sans-Serif" font-size="10.00">Button.hpp</text>
</a>
</g>
</g>
<!-- Node17&#45;&gt;Node18 -->
<g id="edge22" class="edge"><title>Node17&#45;&gt;Node18</title>
<path fill="none" stroke="midnightblue" d="M697.946,-165.039C726.358,-154.879 766.437,-140.546 791.686,-131.516"/>
<polygon fill="midnightblue" stroke="midnightblue" points="696.664,-161.781 688.426,-168.444 699.021,-168.372 696.664,-161.781"/>
</g>
<!-- Node17&#45;&gt;Node24 -->
<g id="edge30" class="edge"><title>Node17&#45;&gt;Node24</title>
<path fill="none" stroke="midnightblue" d="M738.963,-168.379C833.689,-157.4 992.007,-139.015 1050.5,-132 1053.42,-131.65 1056.4,-131.291 1059.41,-130.926"/>
<polygon fill="midnightblue" stroke="midnightblue" points="738.4,-164.92 728.869,-169.548 739.206,-171.874 738.4,-164.92"/>
</g>
<!-- Node17&#45;&gt;Node25 -->
<g id="edge34" class="edge"><title>Node17&#45;&gt;Node25</title>
<path fill="none" stroke="midnightblue" d="M726.664,-166.766C789.607,-156.403 885.672,-140.588 943.449,-131.075"/>
<polygon fill="midnightblue" stroke="midnightblue" points="725.771,-163.365 716.473,-168.444 726.908,-170.272 725.771,-163.365"/>
</g>
<!-- Node26 -->
<g id="node26" class="node"><title>Node26</title>
<g id="a_node26"><a xlink:href="../../d9/d4f/LEDs_8hpp.html" target="_top" xlink:title=" ">
<polygon fill="white" stroke="black" points="865.5,-112.5 865.5,-131.5 925.5,-131.5 925.5,-112.5 865.5,-112.5"/>
<text text-anchor="middle" x="895.5" y="-119.5" font-family="Helvetica,sans-Serif" font-size="10.00">LEDs.hpp</text>
</a>
</g>
</g>
<!-- Node17&#45;&gt;Node26 -->
<g id="edge35" class="edge"><title>Node17&#45;&gt;Node26</title>
<path fill="none" stroke="midnightblue" d="M711.122,-166.101C757.121,-155.348 826.081,-139.228 865.326,-130.054"/>
<polygon fill="midnightblue" stroke="midnightblue" points="710.043,-162.759 701.103,-168.444 711.637,-169.575 710.043,-162.759"/>
</g>
<!-- Node28 -->
<g id="node28" class="node"><title>Node28</title>
<g id="a_node28"><a xlink:href="../../d7/d13/MAX7219__Base_8hpp.html" target="_top" xlink:title=" ">
<polygon fill="white" stroke="black" points="583.5,-112.5 583.5,-131.5 689.5,-131.5 689.5,-112.5 583.5,-112.5"/>
<text text-anchor="middle" x="636.5" y="-119.5" font-family="Helvetica,sans-Serif" font-size="10.00">MAX7219_Base.hpp</text>
</a>
</g>
</g>
<!-- Node17&#45;&gt;Node28 -->
<g id="edge37" class="edge"><title>Node17&#45;&gt;Node28</title>
<path fill="none" stroke="midnightblue" d="M655.158,-158.983C650.405,-149.817 644.844,-139.092 641.038,-131.751"/>
<polygon fill="midnightblue" stroke="midnightblue" points="652.166,-160.817 659.876,-168.083 658.38,-157.594 652.166,-160.817"/>
</g>
<!-- Node19 -->
<g id="node19" class="node"><title>Node19</title>
<g id="a_node19"><a xlink:href="../../de/dd1/Button_8cpp.html" target="_top" xlink:title=" ">
<polygon fill="white" stroke="black" points="909.5,-56.5 909.5,-75.5 973.5,-75.5 973.5,-56.5 909.5,-56.5"/>
<text text-anchor="middle" x="941.5" y="-63.5" font-family="Helvetica,sans-Serif" font-size="10.00">Button.cpp</text>
</a>
</g>
</g>
<!-- Node18&#45;&gt;Node19 -->
<g id="edge23" class="edge"><title>Node18&#45;&gt;Node19</title>
<path fill="none" stroke="midnightblue" d="M844.66,-108.503C868.281,-98.3795 900.928,-84.388 921.628,-75.5164"/>
<polygon fill="midnightblue" stroke="midnightblue" points="843.278,-105.287 835.465,-112.444 846.035,-111.721 843.278,-105.287"/>
</g>
<!-- Node20 -->
<g id="node20" class="node"><title>Node20</title>
<g id="a_node20"><a xlink:href="../../d5/d04/IncrementButton_8hpp.html" target="_top" xlink:title=" ">
<polygon fill="white" stroke="black" points="784,-56.5 784,-75.5 891,-75.5 891,-56.5 784,-56.5"/>
<text text-anchor="middle" x="837.5" y="-63.5" font-family="Helvetica,sans-Serif" font-size="10.00">IncrementButton.hpp</text>
</a>
</g>
</g>
<!-- Node18&#45;&gt;Node20 -->
<g id="edge24" class="edge"><title>Node18&#45;&gt;Node20</title>
<path fill="none" stroke="midnightblue" d="M822.96,-102.69C826.667,-93.589 830.976,-83.0141 833.935,-75.7511"/>
<polygon fill="midnightblue" stroke="midnightblue" points="819.665,-101.502 819.133,-112.083 826.147,-104.143 819.665,-101.502"/>
</g>
<!-- Node22 -->
<g id="node22" class="node"><title>Node22</title>
<g id="a_node22"><a xlink:href="../../df/df5/IncrementDecrementButtons_8hpp.html" target="_top" xlink:title=" ">
<polygon fill="white" stroke="black" points="992,-56.5 992,-75.5 1153,-75.5 1153,-56.5 992,-56.5"/>
<text text-anchor="middle" x="1072.5" y="-63.5" font-family="Helvetica,sans-Serif" font-size="10.00">IncrementDecrementButtons.hpp</text>
</a>
</g>
</g>
<!-- Node18&#45;&gt;Node22 -->
<g id="edge26" class="edge"><title>Node18&#45;&gt;Node22</title>
<path fill="none" stroke="midnightblue" d="M857.872,-111.723C923.78,-97.6544 989.252,-84.0994 1030.66,-75.5786"/>
<polygon fill="midnightblue" stroke="midnightblue" points="856.769,-108.379 847.722,-113.893 858.233,-115.225 856.769,-108.379"/>
</g>
<!-- Node21 -->
<g id="node21" class="node"><title>Node21</title>
<g id="a_node21"><a xlink:href="../../db/d9d/IncrementButton_8cpp.html" target="_top" xlink:title=" ">
<polygon fill="white" stroke="black" points="784,-0.5 784,-19.5 891,-19.5 891,-0.5 784,-0.5"/>
<text text-anchor="middle" x="837.5" y="-7.5" font-family="Helvetica,sans-Serif" font-size="10.00">IncrementButton.cpp</text>
</a>
</g>
</g>
<!-- Node20&#45;&gt;Node21 -->
<g id="edge25" class="edge"><title>Node20&#45;&gt;Node21</title>
<path fill="none" stroke="midnightblue" d="M837.5,-45.8045C837.5,-36.9102 837.5,-26.7798 837.5,-19.7511"/>
<polygon fill="midnightblue" stroke="midnightblue" points="834,-46.083 837.5,-56.083 841,-46.083 834,-46.083"/>
</g>
<!-- Node23 -->
<g id="node23" class="node"><title>Node23</title>
<g id="a_node23"><a xlink:href="../../da/d66/IncrementDecrementButtons_8cpp.html" target="_top" xlink:title=" ">
<polygon fill="white" stroke="black" points="992,-0.5 992,-19.5 1153,-19.5 1153,-0.5 992,-0.5"/>
<text text-anchor="middle" x="1072.5" y="-7.5" font-family="Helvetica,sans-Serif" font-size="10.00">IncrementDecrementButtons.cpp</text>
</a>
</g>
</g>
<!-- Node22&#45;&gt;Node23 -->
<g id="edge27" class="edge"><title>Node22&#45;&gt;Node23</title>
<path fill="none" stroke="midnightblue" d="M1072.5,-45.8045C1072.5,-36.9102 1072.5,-26.7798 1072.5,-19.7511"/>
<polygon fill="midnightblue" stroke="midnightblue" points="1069,-46.083 1072.5,-56.083 1076,-46.083 1069,-46.083"/>
</g>
<!-- Node27 -->
<g id="node27" class="node"><title>Node27</title>
<g id="a_node27"><a xlink:href="../../d6/d3a/DotBarDisplayLEDs_8hpp.html" target="_top" xlink:title=" ">
<polygon fill="white" stroke="black" points="1171.5,-56.5 1171.5,-75.5 1295.5,-75.5 1295.5,-56.5 1171.5,-56.5"/>
<text text-anchor="middle" x="1233.5" y="-63.5" font-family="Helvetica,sans-Serif" font-size="10.00">DotBarDisplayLEDs.hpp</text>
</a>
</g>
</g>
<!-- Node26&#45;&gt;Node27 -->
<g id="edge36" class="edge"><title>Node26&#45;&gt;Node27</title>
<path fill="none" stroke="midnightblue" d="M935.754,-111.881C1022.97,-95.4965 1113.03,-82.6855 1171.42,-74.9166"/>
<polygon fill="midnightblue" stroke="midnightblue" points="934.857,-108.489 925.685,-113.791 936.162,-115.366 934.857,-108.489"/>
</g>
<!-- Node28&#45;&gt;Node6 -->
<g id="edge38" class="edge"><title>Node28&#45;&gt;Node6</title>
<path fill="none" stroke="midnightblue" d="M597.969,-109.568C563.636,-99.381 514.167,-84.7034 483.204,-75.5164"/>
<polygon fill="midnightblue" stroke="midnightblue" points="597.079,-112.954 607.662,-112.444 599.07,-106.244 597.079,-112.954"/>
</g>
<!-- Node29 -->
<g id="node29" class="node"><title>Node29</title>
<g id="a_node29"><a xlink:href="../../d5/d0c/MAX7219SevenSegmentDisplay_8hpp.html" target="_top" xlink:title=" ">
<polygon fill="white" stroke="black" points="511.5,-56.5 511.5,-75.5 689.5,-75.5 689.5,-56.5 511.5,-56.5"/>
<text text-anchor="middle" x="600.5" y="-63.5" font-family="Helvetica,sans-Serif" font-size="10.00">MAX7219SevenSegmentDisplay.hpp</text>
</a>
</g>
</g>
<!-- Node28&#45;&gt;Node29 -->
<g id="edge39" class="edge"><title>Node28&#45;&gt;Node29</title>
<path fill="none" stroke="midnightblue" d="M624.877,-103.566C618.683,-94.2747 611.332,-83.2484 606.334,-75.7511"/>
<polygon fill="midnightblue" stroke="midnightblue" points="622.096,-105.704 630.555,-112.083 627.92,-101.821 622.096,-105.704"/>
</g>
<!-- Node33&#45;&gt;Node6 -->
<g id="edge47" class="edge"><title>Node33&#45;&gt;Node6</title>
<path fill="none" stroke="midnightblue" d="M199.411,-163.22C223.812,-148.97 263.886,-126.775 300.5,-112 339.504,-96.2605 386.074,-83.4325 417.715,-75.5573"/>
<polygon fill="midnightblue" stroke="midnightblue" points="197.4,-160.343 190.567,-168.439 200.958,-166.371 197.4,-160.343"/>
</g>
<!-- Node33&#45;&gt;Node7 -->
<g id="edge48" class="edge"><title>Node33&#45;&gt;Node7</title>
<path fill="none" stroke="midnightblue" d="M169.954,-158.396C166.776,-149.362 163.107,-138.936 160.579,-131.751"/>
<polygon fill="midnightblue" stroke="midnightblue" points="166.742,-159.812 173.363,-168.083 173.345,-157.488 166.742,-159.812"/>
</g>
<!-- Node33&#45;&gt;Node11 -->
<g id="edge49" class="edge"><title>Node33&#45;&gt;Node11</title>
<path fill="none" stroke="midnightblue" d="M133.397,-164.914C115.453,-157.922 95.7564,-147.379 82.5,-132 68.316,-115.545 64.1895,-89.1649 62.9903,-75.6278"/>
<polygon fill="midnightblue" stroke="midnightblue" points="132.539,-168.325 143.133,-168.441 134.923,-161.744 132.539,-168.325"/>
</g>
</g>
</svg>
