<?xml version="1.0" encoding="UTF-8" standalone="no"?>
<!DOCTYPE svg PUBLIC "-//W3C//DTD SVG 1.1//EN"
 "http://www.w3.org/Graphics/SVG/1.1/DTD/svg11.dtd">
<!-- Generated by graphviz version 2.38.0 (20140413.2041)
 -->
<!-- Title: round_div_helper&lt; N, T &gt; Pages: 1 -->
<svg width="136pt" height="204pt"
 viewBox="0.00 0.00 136.00 204.00" xmlns="http://www.w3.org/2000/svg" xmlns:xlink="http://www.w3.org/1999/xlink">
<g id="graph0" class="graph" transform="scale(1 1) rotate(0) translate(4 200)">
<title>round_div_helper&lt; N, T &gt;</title>
<polygon fill="white" stroke="none" points="-4,4 -4,-200 132,-200 132,4 -4,4"/>
<!-- Node1 -->
<g id="node1" class="node"><title>Node1</title>
<g id="a_node1"><a xlink:title=" ">
<polygon fill="#bfbfbf" stroke="black" points="0,-0.5 0,-57.5 128,-57.5 128,-0.5 0,-0.5"/>
<text text-anchor="middle" x="64" y="-45.5" font-family="Helvetica,sans-Serif" font-size="10.00">round_div_helper&lt; N, T &gt;</text>
<polyline fill="none" stroke="black" points="0,-38.5 128,-38.5 "/>
<text text-anchor="middle" x="64" y="-26.5" font-family="Helvetica,sans-Serif" font-size="10.00"> </text>
<polyline fill="none" stroke="black" points="0,-19.5 128,-19.5 "/>
<text text-anchor="middle" x="64" y="-7.5" font-family="Helvetica,sans-Serif" font-size="10.00"> </text>
</a>
</g>
</g>
<!-- Node2 -->
<g id="node2" class="node"><title>Node2</title>
<g id="a_node2"><a xlink:title=" ">
<polygon fill="white" stroke="#bfbfbf" points="1.5,-94.5 1.5,-195.5 126.5,-195.5 126.5,-94.5 1.5,-94.5"/>
<text text-anchor="start" x="9.5" y="-183.5" font-family="Helvetica,sans-Serif" font-size="10.00">std::conditional&lt; std</text>
<text text-anchor="start" x="9.5" y="-172.5" font-family="Helvetica,sans-Serif" font-size="10.00">::is_integral&lt; T &gt;::value,</text>
<text text-anchor="start" x="9.5" y="-161.5" font-family="Helvetica,sans-Serif" font-size="10.00"> round_div_int&lt; N, T &gt;,</text>
<text text-anchor="start" x="9.5" y="-150.5" font-family="Helvetica,sans-Serif" font-size="10.00"> round_div_default&lt; N, T</text>
<text text-anchor="middle" x="64" y="-139.5" font-family="Helvetica,sans-Serif" font-size="10.00"> &gt; &gt;::type</text>
<polyline fill="none" stroke="#bfbfbf" points="1.5,-132.5 126.5,-132.5 "/>
<text text-anchor="middle" x="64" y="-120.5" font-family="Helvetica,sans-Serif" font-size="10.00"> </text>
<polyline fill="none" stroke="#bfbfbf" points="1.5,-113.5 126.5,-113.5 "/>
<text text-anchor="middle" x="64" y="-101.5" font-family="Helvetica,sans-Serif" font-size="10.00"> </text>
</a>
</g>
</g>
<!-- Node2&#45;&gt;Node1 -->
<g id="edge1" class="edge"><title>Node2&#45;&gt;Node1</title>
<path fill="none" stroke="midnightblue" d="M64,-84.2331C64,-74.9207 64,-65.707 64,-57.5894"/>
<polygon fill="none" stroke="midnightblue" points="60.5001,-84.3295 64,-94.3296 67.5001,-84.3296 60.5001,-84.3295"/>
</g>
</g>
</svg>
