<?xml version="1.0" encoding="UTF-8" standalone="no"?>
<!DOCTYPE svg PUBLIC "-//W3C//DTD SVG 1.1//EN"
 "http://www.w3.org/Graphics/SVG/1.1/DTD/svg11.dtd">
<!-- Generated by graphviz version 2.43.0 (0)
 -->
<!-- Title: Debug.cpp Pages: 1 -->
<svg width="800pt" height="476pt"
 viewBox="0.00 0.00 799.50 476.00" xmlns="http://www.w3.org/2000/svg" xmlns:xlink="http://www.w3.org/1999/xlink">
<g id="graph0" class="graph" transform="scale(1 1) rotate(0) translate(4 472)">
<title>Debug.cpp</title>
<polygon fill="white" stroke="transparent" points="-4,4 -4,-472 795.5,-472 795.5,4 -4,4"/>
<!-- Node1 -->
<g id="node1" class="node">
<title>Node1</title>
<g id="a_node1"><a xlink:title=" ">
<polygon fill="#bfbfbf" stroke="black" points="245.5,-448.5 245.5,-467.5 313.5,-467.5 313.5,-448.5 245.5,-448.5"/>
<text text-anchor="middle" x="279.5" y="-455.5" font-family="Helvetica,sans-Serif" font-size="10.00">Debug.cpp</text>
</a>
</g>
</g>
<!-- Node2 -->
<g id="node2" class="node">
<title>Node2</title>
<g id="a_node2"><a xlink:href="../../df/dee/Debug_8hpp.html" target="_top" xlink:title=" ">
<polygon fill="white" stroke="black" points="245,-392.5 245,-411.5 314,-411.5 314,-392.5 245,-392.5"/>
<text text-anchor="middle" x="279.5" y="-399.5" font-family="Helvetica,sans-Serif" font-size="10.00">Debug.hpp</text>
</a>
</g>
</g>
<!-- Node1&#45;&gt;Node2 -->
<g id="edge1" class="edge">
<title>Node1&#45;&gt;Node2</title>
<path fill="none" stroke="midnightblue" d="M279.5,-448.08C279.5,-441.01 279.5,-430.86 279.5,-421.99"/>
<polygon fill="midnightblue" stroke="midnightblue" points="283,-421.75 279.5,-411.75 276,-421.75 283,-421.75"/>
</g>
<!-- Node3 -->
<g id="node3" class="node">
<title>Node3</title>
<g id="a_node3"><a xlink:href="../../d1/d65/Warnings_8hpp.html" target="_top" xlink:title=" ">
<polygon fill="white" stroke="black" points="418,-0.5 418,-19.5 561,-19.5 561,-0.5 418,-0.5"/>
<text text-anchor="middle" x="489.5" y="-7.5" font-family="Helvetica,sans-Serif" font-size="10.00">AH/Settings/Warnings.hpp</text>
</a>
</g>
</g>
<!-- Node2&#45;&gt;Node3 -->
<g id="edge2" class="edge">
<title>Node2&#45;&gt;Node3</title>
<path fill="none" stroke="midnightblue" d="M314.29,-400.96C429.53,-399.92 791.5,-388.85 791.5,-291 791.5,-291 791.5,-291 791.5,-121 791.5,-82.58 767.92,-74.97 734.5,-56 684.8,-27.79 621.13,-16.71 571.15,-12.6"/>
<polygon fill="midnightblue" stroke="midnightblue" points="571.26,-9.1 561.03,-11.84 570.74,-16.08 571.26,-9.1"/>
</g>
<!-- Node4 -->
<g id="node4" class="node">
<title>Node4</title>
<g id="a_node4"><a xlink:href="../../dd/d80/PrintStream_8hpp.html" target="_top" xlink:title=" ">
<polygon fill="white" stroke="black" points="0,-224.5 0,-243.5 173,-243.5 173,-224.5 0,-224.5"/>
<text text-anchor="middle" x="86.5" y="-231.5" font-family="Helvetica,sans-Serif" font-size="10.00">AH/PrintStream/PrintStream.hpp</text>
</a>
</g>
</g>
<!-- Node2&#45;&gt;Node4 -->
<g id="edge3" class="edge">
<title>Node2&#45;&gt;Node4</title>
<path fill="none" stroke="midnightblue" d="M252.23,-392.44C231.42,-385.02 202.81,-372.81 181.5,-356 143.57,-326.08 111.81,-278.03 96.44,-252.41"/>
<polygon fill="midnightblue" stroke="midnightblue" points="99.45,-250.63 91.37,-243.77 93.41,-254.17 99.45,-250.63"/>
</g>
<!-- Node11 -->
<g id="node11" class="node">
<title>Node11</title>
<g id="a_node11"><a xlink:href="../../d2/dd5/SettingsWrapper_8hpp.html" target="_top" xlink:title=" ">
<polygon fill="white" stroke="black" points="190.5,-336.5 190.5,-355.5 368.5,-355.5 368.5,-336.5 190.5,-336.5"/>
<text text-anchor="middle" x="279.5" y="-343.5" font-family="Helvetica,sans-Serif" font-size="10.00">AH/Settings/SettingsWrapper.hpp</text>
</a>
</g>
</g>
<!-- Node2&#45;&gt;Node11 -->
<g id="edge15" class="edge">
<title>Node2&#45;&gt;Node11</title>
<path fill="none" stroke="midnightblue" d="M274.33,-392.08C272.82,-384.93 272.39,-374.64 273.04,-365.69"/>
<polygon fill="midnightblue" stroke="midnightblue" points="276.52,-366.13 274.37,-355.75 269.58,-365.2 276.52,-366.13"/>
</g>
<!-- Node4&#45;&gt;Node3 -->
<g id="edge5" class="edge">
<title>Node4&#45;&gt;Node3</title>
<path fill="none" stroke="midnightblue" d="M88.61,-224.14C96.15,-194.6 124.72,-98.96 187.5,-56 222.36,-32.15 330.83,-20.56 407.76,-15.2"/>
<polygon fill="midnightblue" stroke="midnightblue" points="408.18,-18.68 417.93,-14.52 407.71,-11.7 408.18,-18.68"/>
</g>
<!-- Node5 -->
<g id="node5" class="node">
<title>Node5</title>
<g id="a_node5"><a xlink:href="../../dc/dc7/NamespaceSettings_8hpp.html" target="_top" xlink:title=" ">
<polygon fill="white" stroke="black" points="229,-56.5 229,-75.5 424,-75.5 424,-56.5 229,-56.5"/>
<text text-anchor="middle" x="326.5" y="-63.5" font-family="Helvetica,sans-Serif" font-size="10.00">AH/Settings/NamespaceSettings.hpp</text>
</a>
</g>
</g>
<!-- Node4&#45;&gt;Node5 -->
<g id="edge4" class="edge">
<title>Node4&#45;&gt;Node5</title>
<path fill="none" stroke="midnightblue" d="M94.56,-224.39C114.88,-203.09 170.47,-147.1 225.5,-112 246.5,-98.61 272.16,-87.23 292.37,-79.26"/>
<polygon fill="midnightblue" stroke="midnightblue" points="293.72,-82.49 301.8,-75.63 291.21,-75.96 293.72,-82.49"/>
</g>
<!-- Node6 -->
<g id="node6" class="node">
<title>Node6</title>
<g id="a_node6"><a xlink:href="../../d6/ddf/Arduino-Wrapper_8h.html" target="_top" xlink:title=" ">
<polygon fill="white" stroke="black" points="557.5,-168.5 557.5,-187.5 681.5,-187.5 681.5,-168.5 557.5,-168.5"/>
<text text-anchor="middle" x="619.5" y="-175.5" font-family="Helvetica,sans-Serif" font-size="10.00">AH/Arduino&#45;Wrapper.h</text>
</a>
</g>
</g>
<!-- Node4&#45;&gt;Node6 -->
<g id="edge6" class="edge">
<title>Node4&#45;&gt;Node6</title>
<path fill="none" stroke="midnightblue" d="M170.66,-224.47C274.5,-213.95 449.29,-196.24 547.3,-186.32"/>
<polygon fill="midnightblue" stroke="midnightblue" points="547.81,-189.78 557.41,-185.29 547.11,-182.82 547.81,-189.78"/>
</g>
<!-- Node7 -->
<g id="node7" class="node">
<title>Node7</title>
<g id="a_node7"><a xlink:href="../../d7/d79/MinMaxFix_8hpp.html" target="_top" xlink:title=" ">
<polygon fill="white" stroke="black" points="419.5,-112.5 419.5,-131.5 555.5,-131.5 555.5,-112.5 419.5,-112.5"/>
<text text-anchor="middle" x="487.5" y="-119.5" font-family="Helvetica,sans-Serif" font-size="10.00">AH/Math/MinMaxFix.hpp</text>
</a>
</g>
</g>
<!-- Node6&#45;&gt;Node7 -->
<g id="edge7" class="edge">
<title>Node6&#45;&gt;Node7</title>
<path fill="none" stroke="midnightblue" d="M598.58,-168.44C576.76,-159.52 542.35,-145.44 517.61,-135.32"/>
<polygon fill="midnightblue" stroke="midnightblue" points="518.9,-132.06 508.32,-131.52 516.25,-138.54 518.9,-132.06"/>
</g>
<!-- Node9 -->
<g id="node9" class="node">
<title>Node9</title>
<g id="a_node9"><a xlink:title=" ">
<polygon fill="white" stroke="#bfbfbf" points="665,-0.5 665,-19.5 728,-19.5 728,-0.5 665,-0.5"/>
<text text-anchor="middle" x="696.5" y="-7.5" font-family="Helvetica,sans-Serif" font-size="10.00">Arduino.h</text>
</a>
</g>
</g>
<!-- Node6&#45;&gt;Node9 -->
<g id="edge14" class="edge">
<title>Node6&#45;&gt;Node9</title>
<path fill="none" stroke="midnightblue" d="M637.88,-168.49C666.1,-154.17 718.52,-122.21 734.5,-76 737.41,-67.6 737.55,-64.35 734.5,-56 730.44,-44.91 722.31,-34.67 714.61,-26.76"/>
<polygon fill="midnightblue" stroke="midnightblue" points="716.86,-24.07 707.21,-19.7 712.03,-29.14 716.86,-24.07"/>
</g>
<!-- Node10 -->
<g id="node10" class="node">
<title>Node10</title>
<g id="a_node10"><a xlink:title=" ">
<polygon fill="white" stroke="#bfbfbf" points="574,-112.5 574,-131.5 681,-131.5 681,-112.5 574,-112.5"/>
<text text-anchor="middle" x="627.5" y="-119.5" font-family="Helvetica,sans-Serif" font-size="10.00">AH/STL/type_traits</text>
</a>
</g>
</g>
<!-- Node6&#45;&gt;Node10 -->
<g id="edge13" class="edge">
<title>Node6&#45;&gt;Node10</title>
<path fill="none" stroke="midnightblue" d="M620.82,-168.08C621.88,-160.93 623.41,-150.64 624.73,-141.69"/>
<polygon fill="midnightblue" stroke="midnightblue" points="628.2,-142.16 626.2,-131.75 621.28,-141.13 628.2,-142.16"/>
</g>
<!-- Node7&#45;&gt;Node3 -->
<g id="edge8" class="edge">
<title>Node7&#45;&gt;Node3</title>
<path fill="none" stroke="midnightblue" d="M487.66,-112.37C487.98,-94.62 488.72,-53.67 489.16,-29.6"/>
<polygon fill="midnightblue" stroke="midnightblue" points="492.66,-29.65 489.34,-19.59 485.66,-29.53 492.66,-29.65"/>
</g>
<!-- Node7&#45;&gt;Node5 -->
<g id="edge12" class="edge">
<title>Node7&#45;&gt;Node5</title>
<path fill="none" stroke="midnightblue" d="M461.99,-112.44C434.9,-103.36 391.91,-88.94 361.63,-78.78"/>
<polygon fill="midnightblue" stroke="midnightblue" points="362.49,-75.38 351.89,-75.52 360.26,-82.01 362.49,-75.38"/>
</g>
<!-- Node8 -->
<g id="node8" class="node">
<title>Node8</title>
<g id="a_node8"><a xlink:href="../../d6/d3b/FixArduinoMacros_8hpp.html" target="_top" xlink:title=" ">
<polygon fill="white" stroke="black" points="555.5,-56.5 555.5,-75.5 725.5,-75.5 725.5,-56.5 555.5,-56.5"/>
<text text-anchor="middle" x="640.5" y="-63.5" font-family="Helvetica,sans-Serif" font-size="10.00">AH/Math/FixArduinoMacros.hpp</text>
</a>
</g>
</g>
<!-- Node7&#45;&gt;Node8 -->
<g id="edge9" class="edge">
<title>Node7&#45;&gt;Node8</title>
<path fill="none" stroke="midnightblue" d="M511.74,-112.44C537.37,-103.4 577.99,-89.06 606.74,-78.92"/>
<polygon fill="midnightblue" stroke="midnightblue" points="608.11,-82.15 616.37,-75.52 605.78,-75.54 608.11,-82.15"/>
</g>
<!-- Node8&#45;&gt;Node3 -->
<g id="edge10" class="edge">
<title>Node8&#45;&gt;Node3</title>
<path fill="none" stroke="midnightblue" d="M616.57,-56.44C591.28,-47.4 551.2,-33.06 522.82,-22.92"/>
<polygon fill="midnightblue" stroke="midnightblue" points="523.91,-19.59 513.31,-19.52 521.55,-26.18 523.91,-19.59"/>
</g>
<!-- Node8&#45;&gt;Node9 -->
<g id="edge11" class="edge">
<title>Node8&#45;&gt;Node9</title>
<path fill="none" stroke="midnightblue" d="M649.5,-56.32C657.69,-48.42 670.01,-36.55 679.97,-26.94"/>
<polygon fill="midnightblue" stroke="midnightblue" points="682.57,-29.29 687.34,-19.83 677.71,-24.26 682.57,-29.29"/>
</g>
<!-- Node11&#45;&gt;Node2 -->
<g id="edge29" class="edge">
<title>Node11&#45;&gt;Node2</title>
<path fill="none" stroke="midnightblue" d="M284.63,-355.75C286.16,-362.86 286.6,-373.14 285.97,-382.1"/>
<polygon fill="midnightblue" stroke="midnightblue" points="282.49,-381.71 284.67,-392.08 289.43,-382.62 282.49,-381.71"/>
</g>
<!-- Node11&#45;&gt;Node3 -->
<g id="edge16" class="edge">
<title>Node11&#45;&gt;Node3</title>
<path fill="none" stroke="midnightblue" d="M267.31,-336.24C245.38,-319.35 201.5,-279.95 201.5,-235 201.5,-235 201.5,-235 201.5,-121 201.5,-90.9 197.99,-75.98 220.5,-56 247.65,-31.89 338.83,-20.52 407.56,-15.27"/>
<polygon fill="midnightblue" stroke="midnightblue" points="408.24,-18.73 417.96,-14.51 407.73,-11.75 408.24,-18.73"/>
</g>
<!-- Node11&#45;&gt;Node5 -->
<g id="edge17" class="edge">
<title>Node11&#45;&gt;Node5</title>
<path fill="none" stroke="midnightblue" d="M273.94,-336.27C262.95,-318.15 239.5,-274.83 239.5,-235 239.5,-235 239.5,-235 239.5,-177 239.5,-146.9 240.64,-136.23 258.5,-112 268.47,-98.48 283.8,-87.83 297.38,-80.29"/>
<polygon fill="midnightblue" stroke="midnightblue" points="299.17,-83.3 306.42,-75.57 295.93,-77.1 299.17,-83.3"/>
</g>
<!-- Node12 -->
<g id="node12" class="node">
<title>Node12</title>
<g id="a_node12"><a xlink:href="../../db/d02/Settings_8hpp.html" target="_top" xlink:title="All user settings and debugging options can be changed here.">
<polygon fill="white" stroke="black" points="459,-280.5 459,-299.5 536,-299.5 536,-280.5 459,-280.5"/>
<text text-anchor="middle" x="497.5" y="-287.5" font-family="Helvetica,sans-Serif" font-size="10.00">Settings.hpp</text>
</a>
</g>
</g>
<!-- Node11&#45;&gt;Node12 -->
<g id="edge18" class="edge">
<title>Node11&#45;&gt;Node12</title>
<path fill="none" stroke="midnightblue" d="M314.04,-336.44C351.75,-327.1 412.24,-312.12 453.36,-301.93"/>
<polygon fill="midnightblue" stroke="midnightblue" points="454.25,-305.32 463.12,-299.52 452.57,-298.52 454.25,-305.32"/>
</g>
<!-- Node18 -->
<g id="node18" class="node">
<title>Node18</title>
<g id="a_node18"><a xlink:href="../../d9/d98/TeensyUSBTypes_8hpp.html" target="_top" xlink:title=" ">
<polygon fill="white" stroke="black" points="268,-280.5 268,-299.5 441,-299.5 441,-280.5 268,-280.5"/>
<text text-anchor="middle" x="354.5" y="-287.5" font-family="Helvetica,sans-Serif" font-size="10.00">AH/Teensy/TeensyUSBTypes.hpp</text>
</a>
</g>
</g>
<!-- Node11&#45;&gt;Node18 -->
<g id="edge28" class="edge">
<title>Node11&#45;&gt;Node18</title>
<path fill="none" stroke="midnightblue" d="M291.55,-336.32C302.96,-328.11 320.33,-315.6 333.93,-305.81"/>
<polygon fill="midnightblue" stroke="midnightblue" points="336.16,-308.52 342.23,-299.83 332.07,-302.84 336.16,-308.52"/>
</g>
<!-- Node13 -->
<g id="node13" class="node">
<title>Node13</title>
<g id="a_node13"><a xlink:href="../../dc/d50/Frequency_8hpp.html" target="_top" xlink:title=" ">
<polygon fill="white" stroke="black" points="267.5,-112.5 267.5,-131.5 401.5,-131.5 401.5,-112.5 267.5,-112.5"/>
<text text-anchor="middle" x="334.5" y="-119.5" font-family="Helvetica,sans-Serif" font-size="10.00">AH/Types/Frequency.hpp</text>
</a>
</g>
</g>
<!-- Node12&#45;&gt;Node13 -->
<g id="edge19" class="edge">
<title>Node12&#45;&gt;Node13</title>
<path fill="none" stroke="midnightblue" d="M464.23,-280.49C432.04,-271.65 386.3,-257.27 373.5,-244 346.14,-215.63 337.97,-167.96 335.54,-141.72"/>
<polygon fill="midnightblue" stroke="midnightblue" points="339.02,-141.33 334.79,-131.62 332.04,-141.85 339.02,-141.33"/>
</g>
<!-- Node14 -->
<g id="node14" class="node">
<title>Node14</title>
<g id="a_node14"><a xlink:href="../../d7/d7c/ADCConfig_8hpp.html" target="_top" xlink:title="This file contains the platform&#45;specific ADC resolutions.">
<polygon fill="white" stroke="black" points="599,-224.5 599,-243.5 756,-243.5 756,-224.5 599,-224.5"/>
<text text-anchor="middle" x="677.5" y="-231.5" font-family="Helvetica,sans-Serif" font-size="10.00">AH/Hardware/ADCConfig.hpp</text>
</a>
</g>
</g>
<!-- Node12&#45;&gt;Node14 -->
<g id="edge22" class="edge">
<title>Node12&#45;&gt;Node14</title>
<path fill="none" stroke="midnightblue" d="M526.02,-280.44C556.57,-271.28 605.21,-256.69 639.1,-246.52"/>
<polygon fill="midnightblue" stroke="midnightblue" points="640.54,-249.74 649.11,-243.52 638.53,-243.04 640.54,-249.74"/>
</g>
<!-- Node15 -->
<g id="node15" class="node">
<title>Node15</title>
<g id="a_node15"><a xlink:title=" ">
<polygon fill="white" stroke="#bfbfbf" points="528,-224.5 528,-243.5 581,-243.5 581,-224.5 528,-224.5"/>
<text text-anchor="middle" x="554.5" y="-231.5" font-family="Helvetica,sans-Serif" font-size="10.00">limits.h</text>
</a>
</g>
</g>
<!-- Node12&#45;&gt;Node15 -->
<g id="edge25" class="edge">
<title>Node12&#45;&gt;Node15</title>
<path fill="none" stroke="midnightblue" d="M506.66,-280.32C515,-272.42 527.53,-260.55 537.68,-250.94"/>
<polygon fill="midnightblue" stroke="midnightblue" points="540.32,-253.25 545.18,-243.83 535.51,-248.17 540.32,-253.25"/>
</g>
<!-- Node16 -->
<g id="node16" class="node">
<title>Node16</title>
<g id="a_node16"><a xlink:title=" ">
<polygon fill="white" stroke="#bfbfbf" points="382.5,-224.5 382.5,-243.5 438.5,-243.5 438.5,-224.5 382.5,-224.5"/>
<text text-anchor="middle" x="410.5" y="-231.5" font-family="Helvetica,sans-Serif" font-size="10.00">stddef.h</text>
</a>
</g>
</g>
<!-- Node12&#45;&gt;Node16 -->
<g id="edge26" class="edge">
<title>Node12&#45;&gt;Node16</title>
<path fill="none" stroke="midnightblue" d="M483.52,-280.32C469.95,-271.9 449.12,-258.97 433.18,-249.07"/>
<polygon fill="midnightblue" stroke="midnightblue" points="434.79,-245.95 424.44,-243.65 431.09,-251.9 434.79,-245.95"/>
</g>
<!-- Node17 -->
<g id="node17" class="node">
<title>Node17</title>
<g id="a_node17"><a xlink:title=" ">
<polygon fill="white" stroke="#bfbfbf" points="457,-224.5 457,-243.5 510,-243.5 510,-224.5 457,-224.5"/>
<text text-anchor="middle" x="483.5" y="-231.5" font-family="Helvetica,sans-Serif" font-size="10.00">stdint.h</text>
</a>
</g>
</g>
<!-- Node12&#45;&gt;Node17 -->
<g id="edge27" class="edge">
<title>Node12&#45;&gt;Node17</title>
<path fill="none" stroke="midnightblue" d="M495.19,-280.08C493.33,-272.93 490.66,-262.64 488.35,-253.69"/>
<polygon fill="midnightblue" stroke="midnightblue" points="491.67,-252.55 485.77,-243.75 484.89,-254.31 491.67,-252.55"/>
</g>
<!-- Node13&#45;&gt;Node3 -->
<g id="edge20" class="edge">
<title>Node13&#45;&gt;Node3</title>
<path fill="none" stroke="midnightblue" d="M361.41,-112.37C382.34,-104.84 411.44,-92.53 433.5,-76 451.49,-62.52 467.73,-42.34 478.04,-28.04"/>
<polygon fill="midnightblue" stroke="midnightblue" points="481.05,-29.84 483.91,-19.63 475.31,-25.83 481.05,-29.84"/>
</g>
<!-- Node13&#45;&gt;Node5 -->
<g id="edge21" class="edge">
<title>Node13&#45;&gt;Node5</title>
<path fill="none" stroke="midnightblue" d="M333.18,-112.08C332.12,-104.93 330.59,-94.64 329.27,-85.69"/>
<polygon fill="midnightblue" stroke="midnightblue" points="332.72,-85.13 327.8,-75.75 325.8,-86.16 332.72,-85.13"/>
</g>
<!-- Node14&#45;&gt;Node3 -->
<g id="edge23" class="edge">
<title>Node14&#45;&gt;Node3</title>
<path fill="none" stroke="midnightblue" d="M682.17,-224.26C693.02,-202.64 717.02,-145.97 690.5,-112 649.9,-60 602.81,-110.36 546.5,-76 526.95,-64.07 510.46,-43.27 500.32,-28.41"/>
<polygon fill="midnightblue" stroke="midnightblue" points="503.01,-26.12 494.61,-19.66 497.14,-29.95 503.01,-26.12"/>
</g>
<!-- Node14&#45;&gt;Node6 -->
<g id="edge24" class="edge">
<title>Node14&#45;&gt;Node6</title>
<path fill="none" stroke="midnightblue" d="M668.18,-224.32C659.61,-216.34 646.69,-204.31 636.31,-194.65"/>
<polygon fill="midnightblue" stroke="midnightblue" points="638.69,-192.09 628.99,-187.83 633.92,-197.21 638.69,-192.09"/>
</g>
</g>
</svg>
