<?xml version="1.0" encoding="UTF-8" standalone="no"?>
<!DOCTYPE svg PUBLIC "-//W3C//DTD SVG 1.1//EN"
 "http://www.w3.org/Graphics/SVG/1.1/DTD/svg11.dtd">
<!-- Generated by graphviz version 2.40.1 (20161225.0304)
 -->
<!-- Title: Math Types Pages: 1 -->
<svg width="198pt" height="64pt"
 viewBox="0.00 0.00 198.00 64.00" xmlns="http://www.w3.org/2000/svg" xmlns:xlink="http://www.w3.org/1999/xlink">
<g id="graph0" class="graph" transform="scale(1 1) rotate(0) translate(4 60)">
<title>Math Types</title>
<polygon fill="#ffffff" stroke="transparent" points="-4,4 -4,-60 194,-60 194,4 -4,4"/>
<!-- Node3 -->
<g id="node1" class="node">
<title>Node3</title>
<g id="a_node1"><a xlink:href="../../dd/d5e/group__AH__Math.html" target="_top" xlink:title="Mathematics helper functions. Min/max functions, functions to uniformly increase the effective bid de...">
<polygon fill="#ffffff" stroke="#000000" points="80,-56 6,-56 6,-37 80,-37 80,-56"/>
<text text-anchor="middle" x="43" y="-44" font-family="Helvetica,sans-Serif" font-size="10.00" fill="#000000">Math Utilities</text>
</a>
</g>
</g>
<!-- Node1 -->
<g id="node2" class="node">
<title>Node1</title>
<g id="a_node2"><a xlink:title="Vector and Quaternion types with the necessary operators and functions.">
<polygon fill="#bfbfbf" stroke="#000000" points="190,-37 122,-37 122,-18 190,-18 190,-37"/>
<text text-anchor="middle" x="156" y="-25" font-family="Helvetica,sans-Serif" font-size="10.00" fill="#000000">Math Types</text>
</a>
</g>
</g>
<!-- Node3&#45;&gt;Node1 -->
<g id="edge2" class="edge">
<title>Node3&#45;&gt;Node1</title>
<path fill="none" stroke="#000000" d="M90.0679,-38.5859C100.7712,-36.7863 111.9393,-34.9084 121.9766,-33.2208"/>
<polygon fill="#000000" stroke="#000000" points="89.2816,-35.1689 80.0004,-40.2787 90.4424,-42.072 89.2816,-35.1689"/>
</g>
<!-- Node2 -->
<g id="node3" class="node">
<title>Node2</title>
<g id="a_node3"><a xlink:href="../../d7/d07/group__AH__group.html" target="_top" xlink:title="Common utility library: https://github.com/tttapa/Arduino&#45;Helpers">
<polygon fill="#ffffff" stroke="#000000" points="86,-19 0,-19 0,0 86,0 86,-19"/>
<text text-anchor="middle" x="43" y="-7" font-family="Helvetica,sans-Serif" font-size="10.00" fill="#000000">Arduino Helpers</text>
</a>
</g>
</g>
<!-- Node2&#45;&gt;Node1 -->
<g id="edge1" class="edge">
<title>Node2&#45;&gt;Node1</title>
<path fill="none" stroke="#000000" d="M96.1905,-17.9728C104.9188,-19.3632 113.7529,-20.7704 121.8556,-22.0611"/>
<polygon fill="#000000" stroke="#000000" points="96.4689,-14.4731 86.0428,-16.3564 95.3677,-21.386 96.4689,-14.4731"/>
</g>
</g>
</svg>
