<?xml version="1.0" encoding="UTF-8" standalone="no"?>
<!DOCTYPE svg PUBLIC "-//W3C//DTD SVG 1.1//EN"
 "http://www.w3.org/Graphics/SVG/1.1/DTD/svg11.dtd">
<!-- Generated by graphviz version 2.38.0 (20140413.2041)
 -->
<!-- Title: NonNormalizingIIRFilter&lt; NB, NA, T &gt; Pages: 1 -->
<svg width="145pt" height="270pt"
 viewBox="0.00 0.00 145.00 270.00" xmlns="http://www.w3.org/2000/svg" xmlns:xlink="http://www.w3.org/1999/xlink">
<g id="graph0" class="graph" transform="scale(1 1) rotate(0) translate(4 266)">
<title>NonNormalizingIIRFilter&lt; NB, NA, T &gt;</title>
<polygon fill="white" stroke="none" points="-4,4 -4,-266 141,-266 141,4 -4,4"/>
<!-- Node1 -->
<g id="node1" class="node"><title>Node1</title>
<g id="a_node1"><a xlink:title="Infinite Impulse Response filter implementation that does not normalize the coefficients upon initial...">
<polygon fill="#bfbfbf" stroke="black" points="0,-0.5 0,-156.5 137,-156.5 137,-0.5 0,-0.5"/>
<text text-anchor="start" x="8" y="-144.5" font-family="Helvetica,sans-Serif" font-size="10.00">NonNormalizingIIRFilter</text>
<text text-anchor="middle" x="68.5" y="-133.5" font-family="Helvetica,sans-Serif" font-size="10.00">&lt; NB, NA, T &gt;</text>
<polyline fill="none" stroke="black" points="0,-126.5 137,-126.5 "/>
<text text-anchor="start" x="8" y="-114.5" font-family="Helvetica,sans-Serif" font-size="10.00">&#45; index_b</text>
<text text-anchor="start" x="8" y="-103.5" font-family="Helvetica,sans-Serif" font-size="10.00">&#45; index_a</text>
<text text-anchor="start" x="8" y="-92.5" font-family="Helvetica,sans-Serif" font-size="10.00">&#45; x</text>
<text text-anchor="start" x="8" y="-81.5" font-family="Helvetica,sans-Serif" font-size="10.00">&#45; y</text>
<text text-anchor="start" x="8" y="-70.5" font-family="Helvetica,sans-Serif" font-size="10.00">&#45; b_coefficients</text>
<text text-anchor="start" x="8" y="-59.5" font-family="Helvetica,sans-Serif" font-size="10.00">&#45; a_coefficients</text>
<text text-anchor="start" x="8" y="-48.5" font-family="Helvetica,sans-Serif" font-size="10.00">&#45; MA</text>
<polyline fill="none" stroke="black" points="0,-41.5 137,-41.5 "/>
<text text-anchor="start" x="8" y="-29.5" font-family="Helvetica,sans-Serif" font-size="10.00">+ NonNormalizingIIRFilter()</text>
<text text-anchor="start" x="8" y="-18.5" font-family="Helvetica,sans-Serif" font-size="10.00">+ NonNormalizingIIRFilter()</text>
<text text-anchor="start" x="8" y="-7.5" font-family="Helvetica,sans-Serif" font-size="10.00">+ operator()()</text>
</a>
</g>
</g>
<!-- Node2 -->
<g id="node2" class="node"><title>Node2</title>
<g id="a_node2"><a xlink:title=" ">
<polygon fill="white" stroke="#bfbfbf" points="54,-204.5 54,-261.5 83,-261.5 83,-204.5 54,-204.5"/>
<text text-anchor="middle" x="68.5" y="-249.5" font-family="Helvetica,sans-Serif" font-size="10.00">T</text>
<polyline fill="none" stroke="#bfbfbf" points="54,-242.5 83,-242.5 "/>
<text text-anchor="middle" x="68.5" y="-230.5" font-family="Helvetica,sans-Serif" font-size="10.00"> </text>
<polyline fill="none" stroke="#bfbfbf" points="54,-223.5 83,-223.5 "/>
<text text-anchor="middle" x="68.5" y="-211.5" font-family="Helvetica,sans-Serif" font-size="10.00"> </text>
</a>
</g>
</g>
<!-- Node2&#45;&gt;Node1 -->
<g id="edge1" class="edge"><title>Node2&#45;&gt;Node1</title>
<path fill="none" stroke="#404040" d="M68.5,-204.383C68.5,-194.106 68.5,-181.806 68.5,-168.991"/>
<polygon fill="none" stroke="#404040" points="68.5001,-168.596 64.5,-162.596 68.5,-156.596 72.5,-162.596 68.5001,-168.596"/>
<text text-anchor="middle" x="77" y="-178" font-family="Helvetica,sans-Serif" font-size="10.00"> &#45;a0</text>
</g>
</g>
</svg>
