<?xml version="1.0" encoding="UTF-8" standalone="no"?>
<!DOCTYPE svg PUBLIC "-//W3C//DTD SVG 1.1//EN"
 "http://www.w3.org/Graphics/SVG/1.1/DTD/svg11.dtd">
<!-- Generated by graphviz version 2.38.0 (20140413.2041)
 -->
<!-- Title: NonNormalizingIIRFilter&lt; NB, NA, T &gt; Pages: 1 -->
<svg width="145pt" height="259pt"
 viewBox="0.00 0.00 145.00 259.00" xmlns="http://www.w3.org/2000/svg" xmlns:xlink="http://www.w3.org/1999/xlink">
<g id="graph0" class="graph" transform="scale(1 1) rotate(0) translate(4 255)">
<title>NonNormalizingIIRFilter&lt; NB, NA, T &gt;</title>
<polygon fill="white" stroke="none" points="-4,4 -4,-255 141,-255 141,4 -4,4"/>
<!-- Node1 -->
<g id="node1" class="node"><title>Node1</title>
<g id="a_node1"><a xlink:title="Infinite Impulse Response filter implementation that does not normalize the coefficients upon initial...">
<polygon fill="#bfbfbf" stroke="black" points="0,-0.5 0,-145.5 137,-145.5 137,-0.5 0,-0.5"/>
<text text-anchor="start" x="8" y="-133.5" font-family="Helvetica,sans-Serif" font-size="10.00">NonNormalizingIIRFilter</text>
<text text-anchor="middle" x="68.5" y="-122.5" font-family="Helvetica,sans-Serif" font-size="10.00">&lt; NB, NA, T &gt;</text>
<polyline fill="none" stroke="black" points="0,-115.5 137,-115.5 "/>
<text text-anchor="start" x="8" y="-103.5" font-family="Helvetica,sans-Serif" font-size="10.00">&#45; index_b</text>
<text text-anchor="start" x="8" y="-92.5" font-family="Helvetica,sans-Serif" font-size="10.00">&#45; index_a</text>
<text text-anchor="start" x="8" y="-81.5" font-family="Helvetica,sans-Serif" font-size="10.00">&#45; x</text>
<text text-anchor="start" x="8" y="-70.5" font-family="Helvetica,sans-Serif" font-size="10.00">&#45; y</text>
<text text-anchor="start" x="8" y="-59.5" font-family="Helvetica,sans-Serif" font-size="10.00">&#45; b_coefficients</text>
<text text-anchor="start" x="8" y="-48.5" font-family="Helvetica,sans-Serif" font-size="10.00">&#45; a_coefficients</text>
<text text-anchor="start" x="8" y="-37.5" font-family="Helvetica,sans-Serif" font-size="10.00">&#45; MA</text>
<polyline fill="none" stroke="black" points="0,-30.5 137,-30.5 "/>
<text text-anchor="start" x="8" y="-18.5" font-family="Helvetica,sans-Serif" font-size="10.00">+ NonNormalizingIIRFilter()</text>
<text text-anchor="start" x="8" y="-7.5" font-family="Helvetica,sans-Serif" font-size="10.00">+ operator()()</text>
</a>
</g>
</g>
<!-- Node2 -->
<g id="node2" class="node"><title>Node2</title>
<g id="a_node2"><a xlink:title=" ">
<polygon fill="white" stroke="#bfbfbf" points="54,-193.5 54,-250.5 83,-250.5 83,-193.5 54,-193.5"/>
<text text-anchor="middle" x="68.5" y="-238.5" font-family="Helvetica,sans-Serif" font-size="10.00">T</text>
<polyline fill="none" stroke="#bfbfbf" points="54,-231.5 83,-231.5 "/>
<text text-anchor="middle" x="68.5" y="-219.5" font-family="Helvetica,sans-Serif" font-size="10.00"> </text>
<polyline fill="none" stroke="#bfbfbf" points="54,-212.5 83,-212.5 "/>
<text text-anchor="middle" x="68.5" y="-200.5" font-family="Helvetica,sans-Serif" font-size="10.00"> </text>
</a>
</g>
</g>
<!-- Node2&#45;&gt;Node1 -->
<g id="edge1" class="edge"><title>Node2&#45;&gt;Node1</title>
<path fill="none" stroke="#404040" d="M68.5,-193.35C68.5,-183.014 68.5,-170.664 68.5,-157.886"/>
<polygon fill="none" stroke="#404040" points="68.5001,-157.555 64.5,-151.556 68.5,-145.555 72.5,-151.555 68.5001,-157.555"/>
<text text-anchor="middle" x="77" y="-167" font-family="Helvetica,sans-Serif" font-size="10.00"> &#45;a0</text>
</g>
</g>
</svg>
