<?xml version="1.0" encoding="UTF-8" standalone="no"?>
<!DOCTYPE svg PUBLIC "-//W3C//DTD SVG 1.1//EN"
 "http://www.w3.org/Graphics/SVG/1.1/DTD/svg11.dtd">
<!-- Generated by graphviz version 2.38.0 (20140413.2041)
 -->
<!-- Title: Array.hpp Pages: 1 -->
<svg width="1336pt" height="364pt"
 viewBox="0.00 0.00 1335.50 364.00" xmlns="http://www.w3.org/2000/svg" xmlns:xlink="http://www.w3.org/1999/xlink">
<g id="graph0" class="graph" transform="scale(1 1) rotate(0) translate(4 360)">
<title>Array.hpp</title>
<polygon fill="white" stroke="none" points="-4,4 -4,-360 1331.5,-360 1331.5,4 -4,4"/>
<!-- Node1 -->
<g id="node1" class="node"><title>Node1</title>
<g id="a_node1"><a xlink:title=" ">
<polygon fill="#bfbfbf" stroke="black" points="501.5,-336.5 501.5,-355.5 560.5,-355.5 560.5,-336.5 501.5,-336.5"/>
<text text-anchor="middle" x="531" y="-343.5" font-family="Helvetica,sans-Serif" font-size="10.00">Array.hpp</text>
</a>
</g>
</g>
<!-- Node2 -->
<g id="node2" class="node"><title>Node2</title>
<g id="a_node2"><a xlink:href="../../d5/db6/ArrayHelpers_8hpp.html" target="_top" xlink:title=" ">
<polygon fill="white" stroke="black" points="466,-224.5 466,-243.5 558,-243.5 558,-224.5 466,-224.5"/>
<text text-anchor="middle" x="512" y="-231.5" font-family="Helvetica,sans-Serif" font-size="10.00">ArrayHelpers.hpp</text>
</a>
</g>
</g>
<!-- Node1&#45;&gt;Node2 -->
<g id="edge1" class="edge"><title>Node1&#45;&gt;Node2</title>
<path fill="none" stroke="midnightblue" d="M527.778,-326.348C523.617,-302.254 516.544,-261.308 513.484,-243.591"/>
<polygon fill="midnightblue" stroke="midnightblue" points="524.358,-327.11 529.509,-336.368 531.256,-325.919 524.358,-327.11"/>
</g>
<!-- Node4 -->
<g id="node4" class="node"><title>Node4</title>
<g id="a_node4"><a xlink:href="../../d7/def/AnalogMultiplex_8hpp.html" target="_top" xlink:title=" ">
<polygon fill="white" stroke="black" points="456,-112.5 456,-131.5 560,-131.5 560,-112.5 456,-112.5"/>
<text text-anchor="middle" x="508" y="-119.5" font-family="Helvetica,sans-Serif" font-size="10.00">AnalogMultiplex.hpp</text>
</a>
</g>
</g>
<!-- Node1&#45;&gt;Node4 -->
<g id="edge16" class="edge"><title>Node1&#45;&gt;Node4</title>
<path fill="none" stroke="midnightblue" d="M541.597,-327.526C560.06,-294.637 593.725,-221.995 567,-168 558.714,-151.259 540.886,-139.046 526.984,-131.602"/>
<polygon fill="midnightblue" stroke="midnightblue" points="538.442,-325.988 536.438,-336.391 544.493,-329.508 538.442,-325.988"/>
</g>
<!-- Node14 -->
<g id="node14" class="node"><title>Node14</title>
<g id="a_node14"><a xlink:href="../../d4/d35/Hardware-Types_8hpp.html" target="_top" xlink:title=" ">
<polygon fill="white" stroke="black" points="711.5,-280.5 711.5,-299.5 818.5,-299.5 818.5,-280.5 711.5,-280.5"/>
<text text-anchor="middle" x="765" y="-287.5" font-family="Helvetica,sans-Serif" font-size="10.00">Hardware&#45;Types.hpp</text>
</a>
</g>
</g>
<!-- Node1&#45;&gt;Node14 -->
<g id="edge17" class="edge"><title>Node1&#45;&gt;Node14</title>
<path fill="none" stroke="midnightblue" d="M570.397,-335.908C614.347,-325.766 684.906,-309.483 727.902,-299.561"/>
<polygon fill="midnightblue" stroke="midnightblue" points="569.593,-332.502 560.636,-338.161 571.167,-339.323 569.593,-332.502"/>
</g>
<!-- Node32 -->
<g id="node32" class="node"><title>Node32</title>
<g id="a_node32"><a xlink:href="../../d1/dde/BiQuad_8hpp.html" target="_top" xlink:title=" ">
<polygon fill="white" stroke="black" points="290,-224.5 290,-243.5 358,-243.5 358,-224.5 290,-224.5"/>
<text text-anchor="middle" x="324" y="-231.5" font-family="Helvetica,sans-Serif" font-size="10.00">BiQuad.hpp</text>
</a>
</g>
</g>
<!-- Node1&#45;&gt;Node32 -->
<g id="edge45" class="edge"><title>Node1&#45;&gt;Node32</title>
<path fill="none" stroke="midnightblue" d="M491.382,-339.889C443.583,-332.97 367.006,-319.239 346,-300 329.659,-285.033 325.45,-257.502 324.37,-243.565"/>
<polygon fill="midnightblue" stroke="midnightblue" points="491.015,-343.372 501.406,-341.301 491.992,-336.44 491.015,-343.372"/>
</g>
<!-- Node33 -->
<g id="node33" class="node"><title>Node33</title>
<g id="a_node33"><a xlink:href="../../d2/d3b/FIRFilter_8hpp.html" target="_top" xlink:title=" ">
<polygon fill="white" stroke="black" points="837,-280.5 837,-299.5 911,-299.5 911,-280.5 837,-280.5"/>
<text text-anchor="middle" x="874" y="-287.5" font-family="Helvetica,sans-Serif" font-size="10.00">FIRFilter.hpp</text>
</a>
</g>
</g>
<!-- Node1&#45;&gt;Node33 -->
<g id="edge47" class="edge"><title>Node1&#45;&gt;Node33</title>
<path fill="none" stroke="midnightblue" d="M570.915,-339.427C627.849,-331.366 735.608,-315.691 827,-300 830.193,-299.452 833.505,-298.862 836.824,-298.255"/>
<polygon fill="midnightblue" stroke="midnightblue" points="570.304,-335.979 560.891,-340.842 571.282,-342.91 570.304,-335.979"/>
</g>
<!-- Node34 -->
<g id="node34" class="node"><title>Node34</title>
<g id="a_node34"><a xlink:href="../../dc/d64/IIRFilter_8hpp.html" target="_top" xlink:title=" ">
<polygon fill="white" stroke="black" points="376.5,-224.5 376.5,-243.5 447.5,-243.5 447.5,-224.5 376.5,-224.5"/>
<text text-anchor="middle" x="412" y="-231.5" font-family="Helvetica,sans-Serif" font-size="10.00">IIRFilter.hpp</text>
</a>
</g>
</g>
<!-- Node1&#45;&gt;Node34 -->
<g id="edge48" class="edge"><title>Node1&#45;&gt;Node34</title>
<path fill="none" stroke="midnightblue" d="M517.87,-328.462C506.64,-314.784 489.691,-295.207 473,-280 457.63,-265.996 437.996,-252.137 425.216,-243.578"/>
<polygon fill="midnightblue" stroke="midnightblue" points="515.354,-330.918 524.363,-336.493 520.798,-326.516 515.354,-330.918"/>
</g>
<!-- Node35 -->
<g id="node35" class="node"><title>Node35</title>
<g id="a_node35"><a xlink:href="../../d2/d03/TransferFunction_8hpp.html" target="_top" xlink:title=" ">
<polygon fill="white" stroke="black" points="355.5,-280.5 355.5,-299.5 464.5,-299.5 464.5,-280.5 355.5,-280.5"/>
<text text-anchor="middle" x="410" y="-287.5" font-family="Helvetica,sans-Serif" font-size="10.00">TransferFunction.hpp</text>
</a>
</g>
</g>
<!-- Node1&#45;&gt;Node35 -->
<g id="edge49" class="edge"><title>Node1&#45;&gt;Node35</title>
<path fill="none" stroke="midnightblue" d="M502.694,-332.368C480.035,-322.255 448.874,-308.349 429.083,-299.516"/>
<polygon fill="midnightblue" stroke="midnightblue" points="501.269,-335.564 511.827,-336.444 504.122,-329.172 501.269,-335.564"/>
</g>
<!-- Node3 -->
<g id="node3" class="node"><title>Node3</title>
<g id="a_node3"><a xlink:href="../../d2/d05/StaticSizeExtendedIOElement_8hpp.html" target="_top" xlink:title=" ">
<polygon fill="white" stroke="black" points="390,-168.5 390,-187.5 558,-187.5 558,-168.5 390,-168.5"/>
<text text-anchor="middle" x="474" y="-175.5" font-family="Helvetica,sans-Serif" font-size="10.00">StaticSizeExtendedIOElement.hpp</text>
</a>
</g>
</g>
<!-- Node2&#45;&gt;Node3 -->
<g id="edge2" class="edge"><title>Node2&#45;&gt;Node3</title>
<path fill="none" stroke="midnightblue" d="M499.935,-215.855C493.355,-206.505 485.489,-195.327 480.158,-187.751"/>
<polygon fill="midnightblue" stroke="midnightblue" points="497.108,-217.919 505.725,-224.083 502.832,-213.891 497.108,-217.919"/>
</g>
<!-- Node12 -->
<g id="node12" class="node"><title>Node12</title>
<g id="a_node12"><a xlink:href="../../df/ddc/SOSFilter_8hpp.html" target="_top" xlink:title=" ">
<polygon fill="white" stroke="black" points="285,-168.5 285,-187.5 363,-187.5 363,-168.5 285,-168.5"/>
<text text-anchor="middle" x="324" y="-175.5" font-family="Helvetica,sans-Serif" font-size="10.00">SOSFilter.hpp</text>
</a>
</g>
</g>
<!-- Node2&#45;&gt;Node12 -->
<g id="edge14" class="edge"><title>Node2&#45;&gt;Node12</title>
<path fill="none" stroke="midnightblue" d="M472.199,-221.568C436.734,-211.381 385.634,-196.703 353.65,-187.516"/>
<polygon fill="midnightblue" stroke="midnightblue" points="471.633,-225.047 482.211,-224.444 473.566,-218.319 471.633,-225.047"/>
</g>
<!-- Node3&#45;&gt;Node4 -->
<g id="edge3" class="edge"><title>Node3&#45;&gt;Node4</title>
<path fill="none" stroke="midnightblue" d="M484.977,-159.566C490.827,-150.275 497.77,-139.248 502.49,-131.751"/>
<polygon fill="midnightblue" stroke="midnightblue" points="481.981,-157.756 479.614,-168.083 487.904,-161.486 481.981,-157.756"/>
</g>
<!-- Node5 -->
<g id="node5" class="node"><title>Node5</title>
<g id="a_node5"><a xlink:href="../../d2/d25/MAX7219_8hpp.html" target="_top" xlink:title=" ">
<polygon fill="white" stroke="black" points="416,-56.5 416,-75.5 494,-75.5 494,-56.5 416,-56.5"/>
<text text-anchor="middle" x="455" y="-63.5" font-family="Helvetica,sans-Serif" font-size="10.00">MAX7219.hpp</text>
</a>
</g>
</g>
<!-- Node3&#45;&gt;Node5 -->
<g id="edge4" class="edge"><title>Node3&#45;&gt;Node5</title>
<path fill="none" stroke="midnightblue" d="M460.967,-160.231C455.509,-152.168 449.792,-142.079 447,-132 441.537,-112.277 447.711,-88.1544 451.859,-75.5699"/>
<polygon fill="midnightblue" stroke="midnightblue" points="458.153,-162.312 466.849,-168.364 463.825,-158.21 458.153,-162.312"/>
</g>
<!-- Node6 -->
<g id="node6" class="node"><title>Node6</title>
<g id="a_node6"><a xlink:href="../../d8/d93/ShiftRegisterOutBase_8hpp.html" target="_top" xlink:title=" ">
<polygon fill="white" stroke="black" points="268.5,-112.5 268.5,-131.5 399.5,-131.5 399.5,-112.5 268.5,-112.5"/>
<text text-anchor="middle" x="334" y="-119.5" font-family="Helvetica,sans-Serif" font-size="10.00">ShiftRegisterOutBase.hpp</text>
</a>
</g>
</g>
<!-- Node3&#45;&gt;Node6 -->
<g id="edge5" class="edge"><title>Node3&#45;&gt;Node6</title>
<path fill="none" stroke="midnightblue" d="M442.298,-164.772C416,-154.629 379.284,-140.467 356.08,-131.516"/>
<polygon fill="midnightblue" stroke="midnightblue" points="441.227,-168.11 451.817,-168.444 443.746,-161.579 441.227,-168.11"/>
</g>
<!-- Node7 -->
<g id="node7" class="node"><title>Node7</title>
<g id="a_node7"><a xlink:href="../../d0/db4/ShiftRegisterOut_8hpp.html" target="_top" xlink:title=" ">
<polygon fill="white" stroke="black" points="0,-56.5 0,-75.5 108,-75.5 108,-56.5 0,-56.5"/>
<text text-anchor="middle" x="54" y="-63.5" font-family="Helvetica,sans-Serif" font-size="10.00">ShiftRegisterOut.hpp</text>
</a>
</g>
</g>
<!-- Node6&#45;&gt;Node7 -->
<g id="edge6" class="edge"><title>Node6&#45;&gt;Node7</title>
<path fill="none" stroke="midnightblue" d="M279.748,-110.537C226.83,-100.332 147.329,-84.9992 98.1593,-75.5164"/>
<polygon fill="midnightblue" stroke="midnightblue" points="279.151,-113.986 289.633,-112.444 280.477,-107.113 279.151,-113.986"/>
</g>
<!-- Node9 -->
<g id="node9" class="node"><title>Node9</title>
<g id="a_node9"><a xlink:href="../../d5/d47/ShiftRegisterOutBase_8ipp.html" target="_top" xlink:title=" ">
<polygon fill="white" stroke="black" points="270,-56.5 270,-75.5 398,-75.5 398,-56.5 270,-56.5"/>
<text text-anchor="middle" x="334" y="-63.5" font-family="Helvetica,sans-Serif" font-size="10.00">ShiftRegisterOutBase.ipp</text>
</a>
</g>
</g>
<!-- Node6&#45;&gt;Node9 -->
<g id="edge9" class="edge"><title>Node6&#45;&gt;Node9</title>
<path fill="none" stroke="midnightblue" d="M327.528,-102.101C326.896,-93.1357 327.343,-82.8579 328.869,-75.7511"/>
<polygon fill="midnightblue" stroke="midnightblue" points="324.066,-102.622 328.834,-112.083 331.007,-101.713 324.066,-102.622"/>
</g>
<!-- Node10 -->
<g id="node10" class="node"><title>Node10</title>
<g id="a_node10"><a xlink:href="../../d7/d88/SPIShiftRegisterOut_8hpp.html" target="_top" xlink:title=" ">
<polygon fill="white" stroke="black" points="126.5,-56.5 126.5,-75.5 251.5,-75.5 251.5,-56.5 126.5,-56.5"/>
<text text-anchor="middle" x="189" y="-63.5" font-family="Helvetica,sans-Serif" font-size="10.00">SPIShiftRegisterOut.hpp</text>
</a>
</g>
</g>
<!-- Node6&#45;&gt;Node10 -->
<g id="edge11" class="edge"><title>Node6&#45;&gt;Node10</title>
<path fill="none" stroke="midnightblue" d="M301.525,-108.906C274.264,-98.7536 236.008,-84.5063 211.868,-75.5164"/>
<polygon fill="midnightblue" stroke="midnightblue" points="300.432,-112.233 311.024,-112.444 302.875,-105.674 300.432,-112.233"/>
</g>
<!-- Node8 -->
<g id="node8" class="node"><title>Node8</title>
<g id="a_node8"><a xlink:href="../../de/d95/ShiftRegisterOut_8ipp.html" target="_top" xlink:title=" ">
<polygon fill="white" stroke="black" points="1.5,-0.5 1.5,-19.5 106.5,-19.5 106.5,-0.5 1.5,-0.5"/>
<text text-anchor="middle" x="54" y="-7.5" font-family="Helvetica,sans-Serif" font-size="10.00">ShiftRegisterOut.ipp</text>
</a>
</g>
</g>
<!-- Node7&#45;&gt;Node8 -->
<g id="edge7" class="edge"><title>Node7&#45;&gt;Node8</title>
<path fill="none" stroke="midnightblue" d="M47.5276,-46.1005C46.8956,-37.1357 47.3427,-26.8579 48.869,-19.7511"/>
<polygon fill="midnightblue" stroke="midnightblue" points="44.0658,-46.6216 48.8337,-56.083 51.0067,-45.7134 44.0658,-46.6216"/>
</g>
<!-- Node8&#45;&gt;Node7 -->
<g id="edge8" class="edge"><title>Node8&#45;&gt;Node7</title>
<path fill="none" stroke="midnightblue" d="M60.4575,-29.6911C61.1062,-38.6353 60.6758,-48.9272 59.1663,-56.083"/>
<polygon fill="midnightblue" stroke="midnightblue" points="63.9231,-29.2002 59.131,-19.7511 56.9846,-30.1262 63.9231,-29.2002"/>
</g>
<!-- Node9&#45;&gt;Node6 -->
<g id="edge10" class="edge"><title>Node9&#45;&gt;Node6</title>
<path fill="none" stroke="midnightblue" d="M340.458,-85.6911C341.106,-94.6353 340.676,-104.927 339.166,-112.083"/>
<polygon fill="midnightblue" stroke="midnightblue" points="343.923,-85.2002 339.131,-75.7511 336.985,-86.1262 343.923,-85.2002"/>
</g>
<!-- Node11 -->
<g id="node11" class="node"><title>Node11</title>
<g id="a_node11"><a xlink:href="../../da/d45/SPIShiftRegisterOut_8ipp.html" target="_top" xlink:title=" ">
<polygon fill="white" stroke="black" points="128,-0.5 128,-19.5 250,-19.5 250,-0.5 128,-0.5"/>
<text text-anchor="middle" x="189" y="-7.5" font-family="Helvetica,sans-Serif" font-size="10.00">SPIShiftRegisterOut.ipp</text>
</a>
</g>
</g>
<!-- Node10&#45;&gt;Node11 -->
<g id="edge12" class="edge"><title>Node10&#45;&gt;Node11</title>
<path fill="none" stroke="midnightblue" d="M182.528,-46.1005C181.896,-37.1357 182.343,-26.8579 183.869,-19.7511"/>
<polygon fill="midnightblue" stroke="midnightblue" points="179.066,-46.6216 183.834,-56.083 186.007,-45.7134 179.066,-46.6216"/>
</g>
<!-- Node11&#45;&gt;Node10 -->
<g id="edge13" class="edge"><title>Node11&#45;&gt;Node10</title>
<path fill="none" stroke="midnightblue" d="M195.458,-29.6911C196.106,-38.6353 195.676,-48.9272 194.166,-56.083"/>
<polygon fill="midnightblue" stroke="midnightblue" points="198.923,-29.2002 194.131,-19.7511 191.985,-30.1262 198.923,-29.2002"/>
</g>
<!-- Node13 -->
<g id="node13" class="node"><title>Node13</title>
<g id="a_node13"><a xlink:href="../../d4/d40/Butterworth_8hpp.html" target="_top" xlink:title=" ">
<polygon fill="white" stroke="black" points="164,-112.5 164,-131.5 250,-131.5 250,-112.5 164,-112.5"/>
<text text-anchor="middle" x="207" y="-119.5" font-family="Helvetica,sans-Serif" font-size="10.00">Butterworth.hpp</text>
</a>
</g>
</g>
<!-- Node12&#45;&gt;Node13 -->
<g id="edge15" class="edge"><title>Node12&#45;&gt;Node13</title>
<path fill="none" stroke="midnightblue" d="M296.336,-164.232C274.451,-154.131 244.503,-140.309 225.452,-131.516"/>
<polygon fill="midnightblue" stroke="midnightblue" points="294.915,-167.431 305.461,-168.444 297.848,-161.075 294.915,-167.431"/>
</g>
<!-- Node15 -->
<g id="node15" class="node"><title>Node15</title>
<g id="a_node15"><a xlink:href="../../d9/d4b/ButtonMatrix_8hpp.html" target="_top" xlink:title=" ">
<polygon fill="white" stroke="black" points="1236.5,-168.5 1236.5,-187.5 1327.5,-187.5 1327.5,-168.5 1236.5,-168.5"/>
<text text-anchor="middle" x="1282" y="-175.5" font-family="Helvetica,sans-Serif" font-size="10.00">ButtonMatrix.hpp</text>
</a>
</g>
</g>
<!-- Node14&#45;&gt;Node15 -->
<g id="edge18" class="edge"><title>Node14&#45;&gt;Node15</title>
<path fill="none" stroke="midnightblue" d="M828.846,-279.926C952.382,-263.76 987.006,-272.62 1104,-244 1163.6,-229.421 1230.83,-201.586 1262.94,-187.547"/>
<polygon fill="midnightblue" stroke="midnightblue" points="828.057,-276.501 818.61,-281.296 828.986,-283.439 828.057,-276.501"/>
</g>
<!-- Node17 -->
<g id="node17" class="node"><title>Node17</title>
<g id="a_node17"><a xlink:href="../../d4/d57/ExtendedIOElement_8hpp.html" target="_top" xlink:title=" ">
<polygon fill="white" stroke="black" points="703.5,-224.5 703.5,-243.5 826.5,-243.5 826.5,-224.5 703.5,-224.5"/>
<text text-anchor="middle" x="765" y="-231.5" font-family="Helvetica,sans-Serif" font-size="10.00">ExtendedIOElement.hpp</text>
</a>
</g>
</g>
<!-- Node14&#45;&gt;Node17 -->
<g id="edge21" class="edge"><title>Node14&#45;&gt;Node17</title>
<path fill="none" stroke="midnightblue" d="M765,-269.805C765,-260.91 765,-250.78 765,-243.751"/>
<polygon fill="midnightblue" stroke="midnightblue" points="761.5,-270.083 765,-280.083 768.5,-270.083 761.5,-270.083"/>
</g>
<!-- Node26 -->
<g id="node26" class="node"><title>Node26</title>
<g id="a_node26"><a xlink:href="../../d8/df3/FilteredAnalog_8hpp.html" target="_top" xlink:title=" ">
<polygon fill="white" stroke="black" points="1122,-112.5 1122,-131.5 1220,-131.5 1220,-112.5 1122,-112.5"/>
<text text-anchor="middle" x="1171" y="-119.5" font-family="Helvetica,sans-Serif" font-size="10.00">FilteredAnalog.hpp</text>
</a>
</g>
</g>
<!-- Node14&#45;&gt;Node26 -->
<g id="edge44" class="edge"><title>Node14&#45;&gt;Node26</title>
<path fill="none" stroke="midnightblue" d="M795.322,-276.602C873.921,-244.466 1082.78,-159.069 1149.91,-131.624"/>
<polygon fill="midnightblue" stroke="midnightblue" points="793.905,-273.4 785.973,-280.425 796.554,-279.88 793.905,-273.4"/>
</g>
<!-- Node16 -->
<g id="node16" class="node"><title>Node16</title>
<g id="a_node16"><a xlink:href="../../d5/d41/ButtonMatrix_8ipp.html" target="_top" xlink:title=" ">
<polygon fill="white" stroke="black" points="1238,-112.5 1238,-131.5 1326,-131.5 1326,-112.5 1238,-112.5"/>
<text text-anchor="middle" x="1282" y="-119.5" font-family="Helvetica,sans-Serif" font-size="10.00">ButtonMatrix.ipp</text>
</a>
</g>
</g>
<!-- Node15&#45;&gt;Node16 -->
<g id="edge19" class="edge"><title>Node15&#45;&gt;Node16</title>
<path fill="none" stroke="midnightblue" d="M1275.53,-158.101C1274.9,-149.136 1275.34,-138.858 1276.87,-131.751"/>
<polygon fill="midnightblue" stroke="midnightblue" points="1272.07,-158.622 1276.83,-168.083 1279.01,-157.713 1272.07,-158.622"/>
</g>
<!-- Node16&#45;&gt;Node15 -->
<g id="edge20" class="edge"><title>Node16&#45;&gt;Node15</title>
<path fill="none" stroke="midnightblue" d="M1288.46,-141.691C1289.11,-150.635 1288.68,-160.927 1287.17,-168.083"/>
<polygon fill="midnightblue" stroke="midnightblue" points="1291.92,-141.2 1287.13,-131.751 1284.98,-142.126 1291.92,-141.2"/>
</g>
<!-- Node17&#45;&gt;Node3 -->
<g id="edge41" class="edge"><title>Node17&#45;&gt;Node3</title>
<path fill="none" stroke="midnightblue" d="M708.959,-222.601C653.964,-212.395 571.102,-197.019 519.894,-187.516"/>
<polygon fill="midnightblue" stroke="midnightblue" points="708.419,-226.06 718.89,-224.444 709.697,-219.178 708.419,-226.06"/>
</g>
<!-- Node18 -->
<g id="node18" class="node"><title>Node18</title>
<g id="a_node18"><a xlink:href="../../dd/ddf/ExtendedInputOutput_8hpp.html" target="_top" xlink:title=" ">
<polygon fill="white" stroke="black" points="773,-168.5 773,-187.5 901,-187.5 901,-168.5 773,-168.5"/>
<text text-anchor="middle" x="837" y="-175.5" font-family="Helvetica,sans-Serif" font-size="10.00">ExtendedInputOutput.hpp</text>
</a>
</g>
</g>
<!-- Node17&#45;&gt;Node18 -->
<g id="edge22" class="edge"><title>Node17&#45;&gt;Node18</title>
<path fill="none" stroke="midnightblue" d="M784.866,-218.101C797.823,-208.382 814.297,-196.027 825.221,-187.834"/>
<polygon fill="midnightblue" stroke="midnightblue" points="782.468,-215.524 776.568,-224.324 786.668,-221.124 782.468,-215.524"/>
</g>
<!-- Node25 -->
<g id="node25" class="node"><title>Node25</title>
<g id="a_node25"><a xlink:href="../../d6/d3c/ExtendedInputOutput_8cpp.html" target="_top" xlink:title=" ">
<polygon fill="white" stroke="black" points="976,-112.5 976,-131.5 1104,-131.5 1104,-112.5 976,-112.5"/>
<text text-anchor="middle" x="1040" y="-119.5" font-family="Helvetica,sans-Serif" font-size="10.00">ExtendedInputOutput.cpp</text>
</a>
</g>
</g>
<!-- Node17&#45;&gt;Node25 -->
<g id="edge42" class="edge"><title>Node17&#45;&gt;Node25</title>
<path fill="none" stroke="midnightblue" d="M807.664,-221.737C836.891,-213.543 876.311,-201.545 910,-188 952.844,-170.774 1000.86,-144.961 1024.77,-131.64"/>
<polygon fill="midnightblue" stroke="midnightblue" points="806.482,-218.433 797.778,-224.473 808.349,-225.179 806.482,-218.433"/>
</g>
<!-- Node31 -->
<g id="node31" class="node"><title>Node31</title>
<g id="a_node31"><a xlink:href="../../da/d1f/ExtendedIOElement_8cpp.html" target="_top" xlink:title=" ">
<polygon fill="white" stroke="black" points="631.5,-168.5 631.5,-187.5 754.5,-187.5 754.5,-168.5 631.5,-168.5"/>
<text text-anchor="middle" x="693" y="-175.5" font-family="Helvetica,sans-Serif" font-size="10.00">ExtendedIOElement.cpp</text>
</a>
</g>
</g>
<!-- Node17&#45;&gt;Node31 -->
<g id="edge43" class="edge"><title>Node17&#45;&gt;Node31</title>
<path fill="none" stroke="midnightblue" d="M745.134,-218.101C732.177,-208.382 715.703,-196.027 704.779,-187.834"/>
<polygon fill="midnightblue" stroke="midnightblue" points="743.332,-221.124 753.432,-224.324 747.532,-215.524 743.332,-221.124"/>
</g>
<!-- Node18&#45;&gt;Node4 -->
<g id="edge30" class="edge"><title>Node18&#45;&gt;Node4</title>
<path fill="none" stroke="midnightblue" d="M774.799,-166.791C712.632,-156.587 618.142,-141.078 559.887,-131.516"/>
<polygon fill="midnightblue" stroke="midnightblue" points="774.434,-170.278 784.869,-168.444 775.568,-163.37 774.434,-170.278"/>
</g>
<!-- Node18&#45;&gt;Node8 -->
<g id="edge33" class="edge"><title>Node18&#45;&gt;Node8</title>
<path fill="none" stroke="midnightblue" d="M813.207,-163.227C799.678,-154.923 782.747,-143.71 769,-132 734.041,-102.222 740.465,-75.7356 699,-56 582.397,-0.501738 247.495,-32.865 119,-20 115.033,-19.6028 110.935,-19.1459 106.817,-18.6532"/>
<polygon fill="midnightblue" stroke="midnightblue" points="811.574,-166.329 821.948,-168.482 815.181,-160.33 811.574,-166.329"/>
</g>
<!-- Node18&#45;&gt;Node9 -->
<g id="edge32" class="edge"><title>Node18&#45;&gt;Node9</title>
<path fill="none" stroke="midnightblue" d="M774.004,-166.792C716.875,-157.149 637.137,-142.621 607,-132 589,-125.656 587.013,-118.308 569,-112 536.41,-100.588 447.041,-85.0197 388.382,-75.5067"/>
<polygon fill="midnightblue" stroke="midnightblue" points="773.593,-170.272 784.034,-168.474 774.751,-163.368 773.593,-170.272"/>
</g>
<!-- Node18&#45;&gt;Node11 -->
<g id="edge34" class="edge"><title>Node18&#45;&gt;Node11</title>
<path fill="none" stroke="midnightblue" d="M851.674,-160.83C872.972,-135.4 907.001,-85.8871 879,-56 836.5,-10.6375 411.088,-9.22136 250.2,-10.3341"/>
<polygon fill="midnightblue" stroke="midnightblue" points="848.957,-158.62 845.047,-168.467 854.245,-163.208 848.957,-158.62"/>
</g>
<!-- Node18&#45;&gt;Node16 -->
<g id="edge29" class="edge"><title>Node18&#45;&gt;Node16</title>
<path fill="none" stroke="midnightblue" d="M911.637,-169.641C990.618,-161.572 1118.82,-147.667 1229,-132 1231.86,-131.593 1234.81,-131.152 1237.78,-130.692"/>
<polygon fill="midnightblue" stroke="midnightblue" points="910.897,-166.198 901.302,-170.693 911.605,-173.163 910.897,-166.198"/>
</g>
<!-- Node19 -->
<g id="node19" class="node"><title>Node19</title>
<g id="a_node19"><a xlink:href="../../d4/db3/Button_8hpp.html" target="_top" xlink:title=" ">
<polygon fill="white" stroke="black" points="894,-112.5 894,-131.5 958,-131.5 958,-112.5 894,-112.5"/>
<text text-anchor="middle" x="926" y="-119.5" font-family="Helvetica,sans-Serif" font-size="10.00">Button.hpp</text>
</a>
</g>
</g>
<!-- Node18&#45;&gt;Node19 -->
<g id="edge23" class="edge"><title>Node18&#45;&gt;Node19</title>
<path fill="none" stroke="midnightblue" d="M860.238,-162.901C876.558,-152.999 897.865,-140.071 911.736,-131.655"/>
<polygon fill="midnightblue" stroke="midnightblue" points="858.033,-160.144 851.299,-168.324 861.664,-166.129 858.033,-160.144"/>
</g>
<!-- Node18&#45;&gt;Node25 -->
<g id="edge31" class="edge"><title>Node18&#45;&gt;Node25</title>
<path fill="none" stroke="midnightblue" d="M878.994,-165.829C917.323,-155.633 973.152,-140.782 1007.98,-131.516"/>
<polygon fill="midnightblue" stroke="midnightblue" points="877.93,-162.49 869.166,-168.444 879.73,-169.255 877.93,-162.49"/>
</g>
<!-- Node18&#45;&gt;Node26 -->
<g id="edge35" class="edge"><title>Node18&#45;&gt;Node26</title>
<path fill="none" stroke="midnightblue" d="M899.95,-166.822C964.332,-156.413 1063.01,-140.46 1121.86,-130.945"/>
<polygon fill="midnightblue" stroke="midnightblue" points="899.236,-163.392 889.923,-168.444 900.354,-170.303 899.236,-163.392"/>
</g>
<!-- Node27 -->
<g id="node27" class="node"><title>Node27</title>
<g id="a_node27"><a xlink:href="../../d9/d4f/LEDs_8hpp.html" target="_top" xlink:title=" ">
<polygon fill="white" stroke="black" points="778,-112.5 778,-131.5 838,-131.5 838,-112.5 778,-112.5"/>
<text text-anchor="middle" x="808" y="-119.5" font-family="Helvetica,sans-Serif" font-size="10.00">LEDs.hpp</text>
</a>
</g>
</g>
<!-- Node18&#45;&gt;Node27 -->
<g id="edge36" class="edge"><title>Node18&#45;&gt;Node27</title>
<path fill="none" stroke="midnightblue" d="M827.324,-158.983C822.402,-149.817 816.642,-139.092 812.7,-131.751"/>
<polygon fill="midnightblue" stroke="midnightblue" points="824.396,-160.929 832.211,-168.083 830.563,-157.617 824.396,-160.929"/>
</g>
<!-- Node29 -->
<g id="node29" class="node"><title>Node29</title>
<g id="a_node29"><a xlink:href="../../d7/d13/MAX7219__Base_8hpp.html" target="_top" xlink:title=" ">
<polygon fill="white" stroke="black" points="616,-112.5 616,-131.5 722,-131.5 722,-112.5 616,-112.5"/>
<text text-anchor="middle" x="669" y="-119.5" font-family="Helvetica,sans-Serif" font-size="10.00">MAX7219_Base.hpp</text>
</a>
</g>
</g>
<!-- Node18&#45;&gt;Node29 -->
<g id="edge38" class="edge"><title>Node18&#45;&gt;Node29</title>
<path fill="none" stroke="midnightblue" d="M800.614,-165.304C768.958,-155.129 723.832,-140.625 695.496,-131.516"/>
<polygon fill="midnightblue" stroke="midnightblue" points="799.789,-168.715 810.38,-168.444 801.931,-162.051 799.789,-168.715"/>
</g>
<!-- Node20 -->
<g id="node20" class="node"><title>Node20</title>
<g id="a_node20"><a xlink:href="../../de/dd1/Button_8cpp.html" target="_top" xlink:title=" ">
<polygon fill="white" stroke="black" points="1106,-56.5 1106,-75.5 1170,-75.5 1170,-56.5 1106,-56.5"/>
<text text-anchor="middle" x="1138" y="-63.5" font-family="Helvetica,sans-Serif" font-size="10.00">Button.cpp</text>
</a>
</g>
</g>
<!-- Node19&#45;&gt;Node20 -->
<g id="edge24" class="edge"><title>Node19&#45;&gt;Node20</title>
<path fill="none" stroke="midnightblue" d="M968.047,-110.29C1008.58,-99.9665 1069.03,-84.5689 1105.85,-75.19"/>
<polygon fill="midnightblue" stroke="midnightblue" points="967.025,-106.938 958.198,-112.799 968.753,-113.722 967.025,-106.938"/>
</g>
<!-- Node21 -->
<g id="node21" class="node"><title>Node21</title>
<g id="a_node21"><a xlink:href="../../d5/d04/IncrementButton_8hpp.html" target="_top" xlink:title=" ">
<polygon fill="white" stroke="black" points="1188.5,-56.5 1188.5,-75.5 1295.5,-75.5 1295.5,-56.5 1188.5,-56.5"/>
<text text-anchor="middle" x="1242" y="-63.5" font-family="Helvetica,sans-Serif" font-size="10.00">IncrementButton.hpp</text>
</a>
</g>
</g>
<!-- Node19&#45;&gt;Node21 -->
<g id="edge25" class="edge"><title>Node19&#45;&gt;Node21</title>
<path fill="none" stroke="midnightblue" d="M968.221,-111.847C1050.54,-96.2444 1134.99,-82.9615 1188.36,-74.9025"/>
<polygon fill="midnightblue" stroke="midnightblue" points="967.361,-108.448 958.195,-113.761 968.674,-115.324 967.361,-108.448"/>
</g>
<!-- Node23 -->
<g id="node23" class="node"><title>Node23</title>
<g id="a_node23"><a xlink:href="../../df/df5/IncrementDecrementButtons_8hpp.html" target="_top" xlink:title=" ">
<polygon fill="white" stroke="black" points="926.5,-56.5 926.5,-75.5 1087.5,-75.5 1087.5,-56.5 926.5,-56.5"/>
<text text-anchor="middle" x="1007" y="-63.5" font-family="Helvetica,sans-Serif" font-size="10.00">IncrementDecrementButtons.hpp</text>
</a>
</g>
</g>
<!-- Node19&#45;&gt;Node23 -->
<g id="edge27" class="edge"><title>Node19&#45;&gt;Node23</title>
<path fill="none" stroke="midnightblue" d="M947.567,-106.622C962.364,-96.7574 981.512,-83.9919 994.018,-75.6545"/>
<polygon fill="midnightblue" stroke="midnightblue" points="945.393,-103.865 939.014,-112.324 949.276,-109.689 945.393,-103.865"/>
</g>
<!-- Node22 -->
<g id="node22" class="node"><title>Node22</title>
<g id="a_node22"><a xlink:href="../../db/d9d/IncrementButton_8cpp.html" target="_top" xlink:title=" ">
<polygon fill="white" stroke="black" points="1188.5,-0.5 1188.5,-19.5 1295.5,-19.5 1295.5,-0.5 1188.5,-0.5"/>
<text text-anchor="middle" x="1242" y="-7.5" font-family="Helvetica,sans-Serif" font-size="10.00">IncrementButton.cpp</text>
</a>
</g>
</g>
<!-- Node21&#45;&gt;Node22 -->
<g id="edge26" class="edge"><title>Node21&#45;&gt;Node22</title>
<path fill="none" stroke="midnightblue" d="M1242,-45.8045C1242,-36.9102 1242,-26.7798 1242,-19.7511"/>
<polygon fill="midnightblue" stroke="midnightblue" points="1238.5,-46.083 1242,-56.083 1245.5,-46.083 1238.5,-46.083"/>
</g>
<!-- Node24 -->
<g id="node24" class="node"><title>Node24</title>
<g id="a_node24"><a xlink:href="../../da/d66/IncrementDecrementButtons_8cpp.html" target="_top" xlink:title=" ">
<polygon fill="white" stroke="black" points="926.5,-0.5 926.5,-19.5 1087.5,-19.5 1087.5,-0.5 926.5,-0.5"/>
<text text-anchor="middle" x="1007" y="-7.5" font-family="Helvetica,sans-Serif" font-size="10.00">IncrementDecrementButtons.cpp</text>
</a>
</g>
</g>
<!-- Node23&#45;&gt;Node24 -->
<g id="edge28" class="edge"><title>Node23&#45;&gt;Node24</title>
<path fill="none" stroke="midnightblue" d="M1007,-45.8045C1007,-36.9102 1007,-26.7798 1007,-19.7511"/>
<polygon fill="midnightblue" stroke="midnightblue" points="1003.5,-46.083 1007,-56.083 1010.5,-46.083 1003.5,-46.083"/>
</g>
<!-- Node28 -->
<g id="node28" class="node"><title>Node28</title>
<g id="a_node28"><a xlink:href="../../d6/d3a/DotBarDisplayLEDs_8hpp.html" target="_top" xlink:title=" ">
<polygon fill="white" stroke="black" points="746,-56.5 746,-75.5 870,-75.5 870,-56.5 746,-56.5"/>
<text text-anchor="middle" x="808" y="-63.5" font-family="Helvetica,sans-Serif" font-size="10.00">DotBarDisplayLEDs.hpp</text>
</a>
</g>
</g>
<!-- Node27&#45;&gt;Node28 -->
<g id="edge37" class="edge"><title>Node27&#45;&gt;Node28</title>
<path fill="none" stroke="midnightblue" d="M808,-101.805C808,-92.9102 808,-82.7798 808,-75.7511"/>
<polygon fill="midnightblue" stroke="midnightblue" points="804.5,-102.083 808,-112.083 811.5,-102.083 804.5,-102.083"/>
</g>
<!-- Node29&#45;&gt;Node5 -->
<g id="edge39" class="edge"><title>Node29&#45;&gt;Node5</title>
<path fill="none" stroke="midnightblue" d="M625.245,-109.959C584.826,-99.7598 525.627,-84.8217 488.75,-75.5164"/>
<polygon fill="midnightblue" stroke="midnightblue" points="624.539,-113.39 635.091,-112.444 626.251,-106.603 624.539,-113.39"/>
</g>
<!-- Node30 -->
<g id="node30" class="node"><title>Node30</title>
<g id="a_node30"><a xlink:href="../../d5/d0c/MAX7219SevenSegmentDisplay_8hpp.html" target="_top" xlink:title=" ">
<polygon fill="white" stroke="black" points="512,-56.5 512,-75.5 690,-75.5 690,-56.5 512,-56.5"/>
<text text-anchor="middle" x="601" y="-63.5" font-family="Helvetica,sans-Serif" font-size="10.00">MAX7219SevenSegmentDisplay.hpp</text>
</a>
</g>
</g>
<!-- Node29&#45;&gt;Node30 -->
<g id="edge40" class="edge"><title>Node29&#45;&gt;Node30</title>
<path fill="none" stroke="midnightblue" d="M650.238,-106.101C638,-96.3824 622.441,-84.0269 612.124,-75.8339"/>
<polygon fill="midnightblue" stroke="midnightblue" points="648.067,-108.846 658.075,-112.324 652.42,-103.364 648.067,-108.846"/>
</g>
<!-- Node32&#45;&gt;Node12 -->
<g id="edge46" class="edge"><title>Node32&#45;&gt;Node12</title>
<path fill="none" stroke="midnightblue" d="M324,-213.805C324,-204.91 324,-194.78 324,-187.751"/>
<polygon fill="midnightblue" stroke="midnightblue" points="320.5,-214.083 324,-224.083 327.5,-214.083 320.5,-214.083"/>
</g>
<!-- Node35&#45;&gt;Node32 -->
<g id="edge50" class="edge"><title>Node35&#45;&gt;Node32</title>
<path fill="none" stroke="midnightblue" d="M387.545,-274.901C371.776,-264.999 351.186,-252.071 337.783,-243.655"/>
<polygon fill="midnightblue" stroke="midnightblue" points="385.852,-277.97 396.183,-280.324 389.575,-272.042 385.852,-277.97"/>
</g>
<!-- Node35&#45;&gt;Node34 -->
<g id="edge51" class="edge"><title>Node35&#45;&gt;Node34</title>
<path fill="none" stroke="midnightblue" d="M410.711,-269.805C411.04,-260.91 411.416,-250.78 411.676,-243.751"/>
<polygon fill="midnightblue" stroke="midnightblue" points="407.203,-269.96 410.33,-280.083 414.198,-270.219 407.203,-269.96"/>
</g>
</g>
</svg>
