<?xml version="1.0" encoding="UTF-8" standalone="no"?>
<!DOCTYPE svg PUBLIC "-//W3C//DTD SVG 1.1//EN"
 "http://www.w3.org/Graphics/SVG/1.1/DTD/svg11.dtd">
<!-- Generated by graphviz version 2.38.0 (20140413.2041)
 -->
<!-- Title: Array.hpp Pages: 1 -->
<svg width="1303pt" height="364pt"
 viewBox="0.00 0.00 1302.50 364.00" xmlns="http://www.w3.org/2000/svg" xmlns:xlink="http://www.w3.org/1999/xlink">
<g id="graph0" class="graph" transform="scale(1 1) rotate(0) translate(4 360)">
<title>Array.hpp</title>
<polygon fill="white" stroke="none" points="-4,4 -4,-360 1298.5,-360 1298.5,4 -4,4"/>
<!-- Node1 -->
<g id="node1" class="node"><title>Node1</title>
<g id="a_node1"><a xlink:title=" ">
<polygon fill="#bfbfbf" stroke="black" points="608.5,-336.5 608.5,-355.5 667.5,-355.5 667.5,-336.5 608.5,-336.5"/>
<text text-anchor="middle" x="638" y="-343.5" font-family="Helvetica,sans-Serif" font-size="10.00">Array.hpp</text>
</a>
</g>
</g>
<!-- Node2 -->
<g id="node2" class="node"><title>Node2</title>
<g id="a_node2"><a xlink:href="../../d5/db6/ArrayHelpers_8hpp.html" target="_top" xlink:title=" ">
<polygon fill="white" stroke="black" points="335,-224.5 335,-243.5 427,-243.5 427,-224.5 335,-224.5"/>
<text text-anchor="middle" x="381" y="-231.5" font-family="Helvetica,sans-Serif" font-size="10.00">ArrayHelpers.hpp</text>
</a>
</g>
</g>
<!-- Node1&#45;&gt;Node2 -->
<g id="edge1" class="edge"><title>Node1&#45;&gt;Node2</title>
<path fill="none" stroke="midnightblue" d="M598.27,-340.068C560.988,-334.282 504.464,-322.477 460,-300 430.517,-285.096 402.173,-257.536 388.877,-243.579"/>
<polygon fill="midnightblue" stroke="midnightblue" points="597.844,-343.543 608.249,-341.544 598.869,-336.619 597.844,-343.543"/>
</g>
<!-- Node4 -->
<g id="node4" class="node"><title>Node4</title>
<g id="a_node4"><a xlink:href="../../d7/def/AnalogMultiplex_8hpp.html" target="_top" xlink:title=" ">
<polygon fill="white" stroke="black" points="350,-112.5 350,-131.5 454,-131.5 454,-112.5 350,-112.5"/>
<text text-anchor="middle" x="402" y="-119.5" font-family="Helvetica,sans-Serif" font-size="10.00">AnalogMultiplex.hpp</text>
</a>
</g>
</g>
<!-- Node1&#45;&gt;Node4 -->
<g id="edge14" class="edge"><title>Node1&#45;&gt;Node4</title>
<path fill="none" stroke="midnightblue" d="M598.149,-337.169C573.779,-330.671 543.301,-319.278 522,-300 473.22,-255.853 495.766,-219.639 455,-168 443.482,-153.41 426.642,-140.089 415.051,-131.79"/>
<polygon fill="midnightblue" stroke="midnightblue" points="597.625,-340.645 608.175,-339.662 599.315,-333.852 597.625,-340.645"/>
</g>
<!-- Node12 -->
<g id="node12" class="node"><title>Node12</title>
<g id="a_node12"><a xlink:href="../../d4/d35/Hardware-Types_8hpp.html" target="_top" xlink:title=" ">
<polygon fill="white" stroke="black" points="531.5,-280.5 531.5,-299.5 638.5,-299.5 638.5,-280.5 531.5,-280.5"/>
<text text-anchor="middle" x="585" y="-287.5" font-family="Helvetica,sans-Serif" font-size="10.00">Hardware&#45;Types.hpp</text>
</a>
</g>
</g>
<!-- Node1&#45;&gt;Node12 -->
<g id="edge15" class="edge"><title>Node1&#45;&gt;Node12</title>
<path fill="none" stroke="midnightblue" d="M622.019,-328.718C612.678,-319.2 601.254,-307.561 593.589,-299.751"/>
<polygon fill="midnightblue" stroke="midnightblue" points="619.746,-331.398 629.248,-336.083 624.741,-326.494 619.746,-331.398"/>
</g>
<!-- Node30 -->
<g id="node30" class="node"><title>Node30</title>
<g id="a_node30"><a xlink:href="../../d1/dde/BiQuad_8hpp.html" target="_top" xlink:title=" ">
<polygon fill="white" stroke="black" points="657,-280.5 657,-299.5 725,-299.5 725,-280.5 657,-280.5"/>
<text text-anchor="middle" x="691" y="-287.5" font-family="Helvetica,sans-Serif" font-size="10.00">BiQuad.hpp</text>
</a>
</g>
</g>
<!-- Node1&#45;&gt;Node30 -->
<g id="edge43" class="edge"><title>Node1&#45;&gt;Node30</title>
<path fill="none" stroke="midnightblue" d="M653.981,-328.718C663.322,-319.2 674.746,-307.561 682.411,-299.751"/>
<polygon fill="midnightblue" stroke="midnightblue" points="651.259,-326.494 646.752,-336.083 656.254,-331.398 651.259,-326.494"/>
</g>
<!-- Node33 -->
<g id="node33" class="node"><title>Node33</title>
<g id="a_node33"><a xlink:href="../../d2/d3b/FIRFilter_8hpp.html" target="_top" xlink:title=" ">
<polygon fill="white" stroke="black" points="743,-280.5 743,-299.5 817,-299.5 817,-280.5 743,-280.5"/>
<text text-anchor="middle" x="780" y="-287.5" font-family="Helvetica,sans-Serif" font-size="10.00">FIRFilter.hpp</text>
</a>
</g>
</g>
<!-- Node1&#45;&gt;Node33 -->
<g id="edge46" class="edge"><title>Node1&#45;&gt;Node33</title>
<path fill="none" stroke="midnightblue" d="M670.155,-332.772C696.828,-322.629 734.069,-308.467 757.605,-299.516"/>
<polygon fill="midnightblue" stroke="midnightblue" points="668.603,-329.618 660.5,-336.444 671.091,-336.16 668.603,-329.618"/>
</g>
<!-- Node34 -->
<g id="node34" class="node"><title>Node34</title>
<g id="a_node34"><a xlink:href="../../dc/d64/IIRFilter_8hpp.html" target="_top" xlink:title=" ">
<polygon fill="white" stroke="black" points="835.5,-280.5 835.5,-299.5 906.5,-299.5 906.5,-280.5 835.5,-280.5"/>
<text text-anchor="middle" x="871" y="-287.5" font-family="Helvetica,sans-Serif" font-size="10.00">IIRFilter.hpp</text>
</a>
</g>
</g>
<!-- Node1&#45;&gt;Node34 -->
<g id="edge47" class="edge"><title>Node1&#45;&gt;Node34</title>
<path fill="none" stroke="midnightblue" d="M677.317,-335.888C721.495,-325.649 792.593,-309.172 835.253,-299.285"/>
<polygon fill="midnightblue" stroke="midnightblue" points="676.461,-332.493 667.51,-338.161 678.042,-339.313 676.461,-332.493"/>
</g>
<!-- Node3 -->
<g id="node3" class="node"><title>Node3</title>
<g id="a_node3"><a xlink:href="../../d2/d05/StaticSizeExtendedIOElement_8hpp.html" target="_top" xlink:title=" ">
<polygon fill="white" stroke="black" points="278,-168.5 278,-187.5 446,-187.5 446,-168.5 278,-168.5"/>
<text text-anchor="middle" x="362" y="-175.5" font-family="Helvetica,sans-Serif" font-size="10.00">StaticSizeExtendedIOElement.hpp</text>
</a>
</g>
</g>
<!-- Node2&#45;&gt;Node3 -->
<g id="edge2" class="edge"><title>Node2&#45;&gt;Node3</title>
<path fill="none" stroke="midnightblue" d="M374.454,-214.396C371.276,-205.362 367.607,-194.936 365.079,-187.751"/>
<polygon fill="midnightblue" stroke="midnightblue" points="371.242,-215.812 377.863,-224.083 377.845,-213.488 371.242,-215.812"/>
</g>
<!-- Node3&#45;&gt;Node4 -->
<g id="edge3" class="edge"><title>Node3&#45;&gt;Node4</title>
<path fill="none" stroke="midnightblue" d="M374.7,-159.855C381.626,-150.505 389.906,-139.327 395.518,-131.751"/>
<polygon fill="midnightblue" stroke="midnightblue" points="371.745,-157.964 368.605,-168.083 377.37,-162.131 371.745,-157.964"/>
</g>
<!-- Node5 -->
<g id="node5" class="node"><title>Node5</title>
<g id="a_node5"><a xlink:href="../../d2/d25/MAX7219_8hpp.html" target="_top" xlink:title=" ">
<polygon fill="white" stroke="black" points="416,-56.5 416,-75.5 494,-75.5 494,-56.5 416,-56.5"/>
<text text-anchor="middle" x="455" y="-63.5" font-family="Helvetica,sans-Serif" font-size="10.00">MAX7219.hpp</text>
</a>
</g>
</g>
<!-- Node3&#45;&gt;Node5 -->
<g id="edge4" class="edge"><title>Node3&#45;&gt;Node5</title>
<path fill="none" stroke="midnightblue" d="M348.906,-160.166C339.84,-146.31 331.041,-126.638 341,-112 350.485,-98.0581 391.925,-84.1301 422.115,-75.5432"/>
<polygon fill="midnightblue" stroke="midnightblue" points="346.058,-162.2 354.707,-168.32 351.761,-158.142 346.058,-162.2"/>
</g>
<!-- Node6 -->
<g id="node6" class="node"><title>Node6</title>
<g id="a_node6"><a xlink:href="../../d8/d93/ShiftRegisterOutBase_8hpp.html" target="_top" xlink:title=" ">
<polygon fill="white" stroke="black" points="162.5,-112.5 162.5,-131.5 293.5,-131.5 293.5,-112.5 162.5,-112.5"/>
<text text-anchor="middle" x="228" y="-119.5" font-family="Helvetica,sans-Serif" font-size="10.00">ShiftRegisterOutBase.hpp</text>
</a>
</g>
</g>
<!-- Node3&#45;&gt;Node6 -->
<g id="edge5" class="edge"><title>Node3&#45;&gt;Node6</title>
<path fill="none" stroke="midnightblue" d="M331.323,-164.638C306.177,-154.504 271.246,-140.427 249.133,-131.516"/>
<polygon fill="midnightblue" stroke="midnightblue" points="330.184,-167.952 340.767,-168.444 332.8,-161.459 330.184,-167.952"/>
</g>
<!-- Node7 -->
<g id="node7" class="node"><title>Node7</title>
<g id="a_node7"><a xlink:href="../../d0/db4/ShiftRegisterOut_8hpp.html" target="_top" xlink:title=" ">
<polygon fill="white" stroke="black" points="0,-56.5 0,-75.5 108,-75.5 108,-56.5 0,-56.5"/>
<text text-anchor="middle" x="54" y="-63.5" font-family="Helvetica,sans-Serif" font-size="10.00">ShiftRegisterOut.hpp</text>
</a>
</g>
</g>
<!-- Node6&#45;&gt;Node7 -->
<g id="edge6" class="edge"><title>Node6&#45;&gt;Node7</title>
<path fill="none" stroke="midnightblue" d="M190.739,-109.436C157.933,-99.2551 110.917,-84.664 81.4418,-75.5164"/>
<polygon fill="midnightblue" stroke="midnightblue" points="189.841,-112.822 200.429,-112.444 191.916,-106.137 189.841,-112.822"/>
</g>
<!-- Node9 -->
<g id="node9" class="node"><title>Node9</title>
<g id="a_node9"><a xlink:href="../../d5/d47/ShiftRegisterOutBase_8ipp.html" target="_top" xlink:title=" ">
<polygon fill="white" stroke="black" points="270,-56.5 270,-75.5 398,-75.5 398,-56.5 270,-56.5"/>
<text text-anchor="middle" x="334" y="-63.5" font-family="Helvetica,sans-Serif" font-size="10.00">ShiftRegisterOutBase.ipp</text>
</a>
</g>
</g>
<!-- Node6&#45;&gt;Node9 -->
<g id="edge9" class="edge"><title>Node6&#45;&gt;Node9</title>
<path fill="none" stroke="midnightblue" d="M248.651,-107.453C266.914,-97.4835 293.212,-84.2279 311.901,-75.6545"/>
<polygon fill="midnightblue" stroke="midnightblue" points="246.945,-104.397 239.916,-112.324 250.354,-110.51 246.945,-104.397"/>
</g>
<!-- Node10 -->
<g id="node10" class="node"><title>Node10</title>
<g id="a_node10"><a xlink:href="../../d7/d88/SPIShiftRegisterOut_8hpp.html" target="_top" xlink:title=" ">
<polygon fill="white" stroke="black" points="126.5,-56.5 126.5,-75.5 251.5,-75.5 251.5,-56.5 126.5,-56.5"/>
<text text-anchor="middle" x="189" y="-63.5" font-family="Helvetica,sans-Serif" font-size="10.00">SPIShiftRegisterOut.hpp</text>
</a>
</g>
</g>
<!-- Node6&#45;&gt;Node10 -->
<g id="edge11" class="edge"><title>Node6&#45;&gt;Node10</title>
<path fill="none" stroke="midnightblue" d="M215.618,-103.855C208.865,-94.5048 200.791,-83.3265 195.32,-75.7511"/>
<polygon fill="midnightblue" stroke="midnightblue" points="212.868,-106.025 221.56,-112.083 218.542,-101.927 212.868,-106.025"/>
</g>
<!-- Node8 -->
<g id="node8" class="node"><title>Node8</title>
<g id="a_node8"><a xlink:href="../../de/d95/ShiftRegisterOut_8ipp.html" target="_top" xlink:title=" ">
<polygon fill="white" stroke="black" points="1.5,-0.5 1.5,-19.5 106.5,-19.5 106.5,-0.5 1.5,-0.5"/>
<text text-anchor="middle" x="54" y="-7.5" font-family="Helvetica,sans-Serif" font-size="10.00">ShiftRegisterOut.ipp</text>
</a>
</g>
</g>
<!-- Node7&#45;&gt;Node8 -->
<g id="edge7" class="edge"><title>Node7&#45;&gt;Node8</title>
<path fill="none" stroke="midnightblue" d="M47.5276,-46.1005C46.8956,-37.1357 47.3427,-26.8579 48.869,-19.7511"/>
<polygon fill="midnightblue" stroke="midnightblue" points="44.0658,-46.6216 48.8337,-56.083 51.0067,-45.7134 44.0658,-46.6216"/>
</g>
<!-- Node8&#45;&gt;Node7 -->
<g id="edge8" class="edge"><title>Node8&#45;&gt;Node7</title>
<path fill="none" stroke="midnightblue" d="M60.4575,-29.6911C61.1062,-38.6353 60.6758,-48.9272 59.1663,-56.083"/>
<polygon fill="midnightblue" stroke="midnightblue" points="63.9231,-29.2002 59.131,-19.7511 56.9846,-30.1262 63.9231,-29.2002"/>
</g>
<!-- Node9&#45;&gt;Node6 -->
<g id="edge10" class="edge"><title>Node9&#45;&gt;Node6</title>
<path fill="none" stroke="midnightblue" d="M313.608,-80.4062C295.265,-90.429 268.675,-103.833 249.885,-112.444"/>
<polygon fill="midnightblue" stroke="midnightblue" points="315.339,-83.4483 322.363,-75.5164 311.925,-77.3369 315.339,-83.4483"/>
</g>
<!-- Node11 -->
<g id="node11" class="node"><title>Node11</title>
<g id="a_node11"><a xlink:href="../../da/d45/SPIShiftRegisterOut_8ipp.html" target="_top" xlink:title=" ">
<polygon fill="white" stroke="black" points="128,-0.5 128,-19.5 250,-19.5 250,-0.5 128,-0.5"/>
<text text-anchor="middle" x="189" y="-7.5" font-family="Helvetica,sans-Serif" font-size="10.00">SPIShiftRegisterOut.ipp</text>
</a>
</g>
</g>
<!-- Node10&#45;&gt;Node11 -->
<g id="edge12" class="edge"><title>Node10&#45;&gt;Node11</title>
<path fill="none" stroke="midnightblue" d="M182.528,-46.1005C181.896,-37.1357 182.343,-26.8579 183.869,-19.7511"/>
<polygon fill="midnightblue" stroke="midnightblue" points="179.066,-46.6216 183.834,-56.083 186.007,-45.7134 179.066,-46.6216"/>
</g>
<!-- Node11&#45;&gt;Node10 -->
<g id="edge13" class="edge"><title>Node11&#45;&gt;Node10</title>
<path fill="none" stroke="midnightblue" d="M195.458,-29.6911C196.106,-38.6353 195.676,-48.9272 194.166,-56.083"/>
<polygon fill="midnightblue" stroke="midnightblue" points="198.923,-29.2002 194.131,-19.7511 191.985,-30.1262 198.923,-29.2002"/>
</g>
<!-- Node13 -->
<g id="node13" class="node"><title>Node13</title>
<g id="a_node13"><a xlink:href="../../d9/d4b/ButtonMatrix_8hpp.html" target="_top" xlink:title=" ">
<polygon fill="white" stroke="black" points="502.5,-168.5 502.5,-187.5 593.5,-187.5 593.5,-168.5 502.5,-168.5"/>
<text text-anchor="middle" x="548" y="-175.5" font-family="Helvetica,sans-Serif" font-size="10.00">ButtonMatrix.hpp</text>
</a>
</g>
</g>
<!-- Node12&#45;&gt;Node13 -->
<g id="edge16" class="edge"><title>Node12&#45;&gt;Node13</title>
<path fill="none" stroke="midnightblue" d="M578.836,-270.674C570.747,-246.625 556.876,-205.388 550.89,-187.591"/>
<polygon fill="midnightblue" stroke="midnightblue" points="575.591,-272.006 582.097,-280.368 582.226,-269.774 575.591,-272.006"/>
</g>
<!-- Node15 -->
<g id="node15" class="node"><title>Node15</title>
<g id="a_node15"><a xlink:href="../../d4/d57/ExtendedIOElement_8hpp.html" target="_top" xlink:title=" ">
<polygon fill="white" stroke="black" points="647.5,-224.5 647.5,-243.5 770.5,-243.5 770.5,-224.5 647.5,-224.5"/>
<text text-anchor="middle" x="709" y="-231.5" font-family="Helvetica,sans-Serif" font-size="10.00">ExtendedIOElement.hpp</text>
</a>
</g>
</g>
<!-- Node12&#45;&gt;Node15 -->
<g id="edge19" class="edge"><title>Node12&#45;&gt;Node15</title>
<path fill="none" stroke="midnightblue" d="M614.007,-276.368C637.229,-266.255 669.163,-252.349 689.444,-243.516"/>
<polygon fill="midnightblue" stroke="midnightblue" points="612.419,-273.242 604.648,-280.444 615.214,-279.66 612.419,-273.242"/>
</g>
<!-- Node24 -->
<g id="node24" class="node"><title>Node24</title>
<g id="a_node24"><a xlink:href="../../d8/df3/FilteredAnalog_8hpp.html" target="_top" xlink:title=" ">
<polygon fill="white" stroke="black" points="1154,-112.5 1154,-131.5 1252,-131.5 1252,-112.5 1154,-112.5"/>
<text text-anchor="middle" x="1203" y="-119.5" font-family="Helvetica,sans-Serif" font-size="10.00">FilteredAnalog.hpp</text>
</a>
</g>
</g>
<!-- Node12&#45;&gt;Node24 -->
<g id="edge42" class="edge"><title>Node12&#45;&gt;Node24</title>
<path fill="none" stroke="midnightblue" d="M635.579,-278.293C674.87,-269.729 730.631,-257.034 779,-244 860.717,-221.98 882.601,-219.876 961,-188 979.045,-180.663 981.675,-174.606 1000,-168 1028.61,-157.686 1107.5,-141.454 1158.09,-131.563"/>
<polygon fill="midnightblue" stroke="midnightblue" points="634.739,-274.894 625.708,-280.433 636.223,-281.735 634.739,-274.894"/>
</g>
<!-- Node14 -->
<g id="node14" class="node"><title>Node14</title>
<g id="a_node14"><a xlink:href="../../d5/d41/ButtonMatrix_8ipp.html" target="_top" xlink:title=" ">
<polygon fill="white" stroke="black" points="472,-112.5 472,-131.5 560,-131.5 560,-112.5 472,-112.5"/>
<text text-anchor="middle" x="516" y="-119.5" font-family="Helvetica,sans-Serif" font-size="10.00">ButtonMatrix.ipp</text>
</a>
</g>
</g>
<!-- Node13&#45;&gt;Node14 -->
<g id="edge17" class="edge"><title>Node13&#45;&gt;Node14</title>
<path fill="none" stroke="midnightblue" d="M531.507,-159.855C525.141,-150.505 518.917,-139.327 516.055,-131.751"/>
<polygon fill="midnightblue" stroke="midnightblue" points="528.809,-162.095 537.55,-168.083 534.451,-157.951 528.809,-162.095"/>
</g>
<!-- Node14&#45;&gt;Node13 -->
<g id="edge18" class="edge"><title>Node14&#45;&gt;Node13</title>
<path fill="none" stroke="midnightblue" d="M532.354,-139.941C538.722,-149.264 544.971,-160.455 547.882,-168.083"/>
<polygon fill="midnightblue" stroke="midnightblue" points="535.068,-137.724 526.317,-131.751 529.433,-141.877 535.068,-137.724"/>
</g>
<!-- Node15&#45;&gt;Node3 -->
<g id="edge39" class="edge"><title>Node15&#45;&gt;Node3</title>
<path fill="none" stroke="midnightblue" d="M643.801,-222.854C578.238,-212.651 478.295,-197.098 416.726,-187.516"/>
<polygon fill="midnightblue" stroke="midnightblue" points="643.598,-226.364 654.017,-224.444 644.674,-219.447 643.598,-226.364"/>
</g>
<!-- Node16 -->
<g id="node16" class="node"><title>Node16</title>
<g id="a_node16"><a xlink:href="../../dd/ddf/ExtendedInputOutput_8hpp.html" target="_top" xlink:title=" ">
<polygon fill="white" stroke="black" points="645,-168.5 645,-187.5 773,-187.5 773,-168.5 645,-168.5"/>
<text text-anchor="middle" x="709" y="-175.5" font-family="Helvetica,sans-Serif" font-size="10.00">ExtendedInputOutput.hpp</text>
</a>
</g>
</g>
<!-- Node15&#45;&gt;Node16 -->
<g id="edge20" class="edge"><title>Node15&#45;&gt;Node16</title>
<path fill="none" stroke="midnightblue" d="M709,-213.805C709,-204.91 709,-194.78 709,-187.751"/>
<polygon fill="midnightblue" stroke="midnightblue" points="705.5,-214.083 709,-224.083 712.5,-214.083 705.5,-214.083"/>
</g>
<!-- Node23 -->
<g id="node23" class="node"><title>Node23</title>
<g id="a_node23"><a xlink:href="../../d6/d3c/ExtendedInputOutput_8cpp.html" target="_top" xlink:title=" ">
<polygon fill="white" stroke="black" points="1008,-112.5 1008,-131.5 1136,-131.5 1136,-112.5 1008,-112.5"/>
<text text-anchor="middle" x="1072" y="-119.5" font-family="Helvetica,sans-Serif" font-size="10.00">ExtendedInputOutput.cpp</text>
</a>
</g>
</g>
<!-- Node15&#45;&gt;Node23 -->
<g id="edge40" class="edge"><title>Node15&#45;&gt;Node23</title>
<path fill="none" stroke="midnightblue" d="M732.065,-218.907C761.797,-200.833 810.783,-171.398 820,-168 853.984,-155.47 946.855,-140.653 1009.85,-131.541"/>
<polygon fill="midnightblue" stroke="midnightblue" points="729.884,-216.138 723.164,-224.329 733.525,-222.116 729.884,-216.138"/>
</g>
<!-- Node29 -->
<g id="node29" class="node"><title>Node29</title>
<g id="a_node29"><a xlink:href="../../da/d1f/ExtendedIOElement_8cpp.html" target="_top" xlink:title=" ">
<polygon fill="white" stroke="black" points="829.5,-168.5 829.5,-187.5 952.5,-187.5 952.5,-168.5 829.5,-168.5"/>
<text text-anchor="middle" x="891" y="-175.5" font-family="Helvetica,sans-Serif" font-size="10.00">ExtendedIOElement.cpp</text>
</a>
</g>
</g>
<!-- Node15&#45;&gt;Node29 -->
<g id="edge41" class="edge"><title>Node15&#45;&gt;Node29</title>
<path fill="none" stroke="midnightblue" d="M747.531,-221.568C781.864,-211.381 831.333,-196.703 862.296,-187.516"/>
<polygon fill="midnightblue" stroke="midnightblue" points="746.43,-218.244 737.838,-224.444 748.421,-224.954 746.43,-218.244"/>
</g>
<!-- Node16&#45;&gt;Node4 -->
<g id="edge28" class="edge"><title>Node16&#45;&gt;Node4</title>
<path fill="none" stroke="midnightblue" d="M650.239,-166.664C592.222,-156.459 504.553,-141.039 450.417,-131.516"/>
<polygon fill="midnightblue" stroke="midnightblue" points="649.9,-170.158 660.355,-168.444 651.112,-163.264 649.9,-170.158"/>
</g>
<!-- Node16&#45;&gt;Node8 -->
<g id="edge31" class="edge"><title>Node16&#45;&gt;Node8</title>
<path fill="none" stroke="midnightblue" d="M719.764,-159.685C724.179,-151.595 728.77,-141.637 731,-132 739.261,-96.2934 730.114,-75.369 699,-56 644.185,-21.8763 183.247,-26.4325 119,-20 115.033,-19.6028 110.935,-19.1459 106.817,-18.6532"/>
<polygon fill="midnightblue" stroke="midnightblue" points="716.649,-158.078 714.638,-168.481 722.697,-161.603 716.649,-158.078"/>
</g>
<!-- Node16&#45;&gt;Node9 -->
<g id="edge30" class="edge"><title>Node16&#45;&gt;Node9</title>
<path fill="none" stroke="midnightblue" d="M679.071,-164.441C658.611,-155.698 630.964,-143.575 607,-132 589.815,-123.699 587.013,-118.308 569,-112 536.41,-100.588 447.041,-85.0197 388.382,-75.5067"/>
<polygon fill="midnightblue" stroke="midnightblue" points="677.918,-167.754 688.491,-168.444 680.656,-161.312 677.918,-167.754"/>
</g>
<!-- Node16&#45;&gt;Node11 -->
<g id="edge32" class="edge"><title>Node16&#45;&gt;Node11</title>
<path fill="none" stroke="midnightblue" d="M774.962,-165.946C799.566,-159.287 826.477,-148.713 847,-132 875.419,-108.857 904.058,-82.7453 879,-56 836.5,-10.6375 411.088,-9.22136 250.2,-10.3341"/>
<polygon fill="midnightblue" stroke="midnightblue" points="773.782,-162.634 764.947,-168.481 775.5,-169.42 773.782,-162.634"/>
</g>
<!-- Node16&#45;&gt;Node14 -->
<g id="edge27" class="edge"><title>Node16&#45;&gt;Node14</title>
<path fill="none" stroke="midnightblue" d="M668.608,-165.699C632.183,-155.507 579.414,-140.743 546.438,-131.516"/>
<polygon fill="midnightblue" stroke="midnightblue" points="667.845,-169.12 678.419,-168.444 669.731,-162.378 667.845,-169.12"/>
</g>
<!-- Node17 -->
<g id="node17" class="node"><title>Node17</title>
<g id="a_node17"><a xlink:href="../../d4/db3/Button_8hpp.html" target="_top" xlink:title=" ">
<polygon fill="white" stroke="black" points="926,-112.5 926,-131.5 990,-131.5 990,-112.5 926,-112.5"/>
<text text-anchor="middle" x="958" y="-119.5" font-family="Helvetica,sans-Serif" font-size="10.00">Button.hpp</text>
</a>
</g>
</g>
<!-- Node16&#45;&gt;Node17 -->
<g id="edge21" class="edge"><title>Node16&#45;&gt;Node17</title>
<path fill="none" stroke="midnightblue" d="M758.349,-166.298C808.077,-155.513 883.363,-139.186 925.856,-129.971"/>
<polygon fill="midnightblue" stroke="midnightblue" points="757.486,-162.904 748.455,-168.444 758.969,-169.745 757.486,-162.904"/>
</g>
<!-- Node16&#45;&gt;Node23 -->
<g id="edge29" class="edge"><title>Node16&#45;&gt;Node23</title>
<path fill="none" stroke="midnightblue" d="M776.783,-166.917C845.36,-156.715 950.21,-141.117 1014.75,-131.516"/>
<polygon fill="midnightblue" stroke="midnightblue" points="775.895,-163.51 766.518,-168.444 776.925,-170.434 775.895,-163.51"/>
</g>
<!-- Node16&#45;&gt;Node24 -->
<g id="edge33" class="edge"><title>Node16&#45;&gt;Node24</title>
<path fill="none" stroke="midnightblue" d="M783.046,-170.52C869.896,-162.65 1018.14,-148.379 1145,-132 1147.93,-131.622 1150.94,-131.213 1153.98,-130.787"/>
<polygon fill="midnightblue" stroke="midnightblue" points="782.669,-167.039 773.024,-171.424 783.298,-174.011 782.669,-167.039"/>
</g>
<!-- Node25 -->
<g id="node25" class="node"><title>Node25</title>
<g id="a_node25"><a xlink:href="../../d9/d4f/LEDs_8hpp.html" target="_top" xlink:title=" ">
<polygon fill="white" stroke="black" points="778,-112.5 778,-131.5 838,-131.5 838,-112.5 778,-112.5"/>
<text text-anchor="middle" x="808" y="-119.5" font-family="Helvetica,sans-Serif" font-size="10.00">LEDs.hpp</text>
</a>
</g>
</g>
<!-- Node16&#45;&gt;Node25 -->
<g id="edge34" class="edge"><title>Node16&#45;&gt;Node25</title>
<path fill="none" stroke="midnightblue" d="M733.837,-163.453C752.114,-153.483 776.416,-140.228 792.133,-131.655"/>
<polygon fill="midnightblue" stroke="midnightblue" points="732.009,-160.463 724.906,-168.324 735.361,-166.608 732.009,-160.463"/>
</g>
<!-- Node27 -->
<g id="node27" class="node"><title>Node27</title>
<g id="a_node27"><a xlink:href="../../d7/d13/MAX7219__Base_8hpp.html" target="_top" xlink:title=" ">
<polygon fill="white" stroke="black" points="616,-112.5 616,-131.5 722,-131.5 722,-112.5 616,-112.5"/>
<text text-anchor="middle" x="669" y="-119.5" font-family="Helvetica,sans-Serif" font-size="10.00">MAX7219_Base.hpp</text>
</a>
</g>
</g>
<!-- Node16&#45;&gt;Node27 -->
<g id="edge36" class="edge"><title>Node16&#45;&gt;Node27</title>
<path fill="none" stroke="midnightblue" d="M696.3,-159.855C689.374,-150.505 681.094,-139.327 675.482,-131.751"/>
<polygon fill="midnightblue" stroke="midnightblue" points="693.63,-162.131 702.395,-168.083 699.255,-157.964 693.63,-162.131"/>
</g>
<!-- Node18 -->
<g id="node18" class="node"><title>Node18</title>
<g id="a_node18"><a xlink:href="../../de/dd1/Button_8cpp.html" target="_top" xlink:title=" ">
<polygon fill="white" stroke="black" points="926,-56.5 926,-75.5 990,-75.5 990,-56.5 926,-56.5"/>
<text text-anchor="middle" x="958" y="-63.5" font-family="Helvetica,sans-Serif" font-size="10.00">Button.cpp</text>
</a>
</g>
</g>
<!-- Node17&#45;&gt;Node18 -->
<g id="edge22" class="edge"><title>Node17&#45;&gt;Node18</title>
<path fill="none" stroke="midnightblue" d="M958,-101.805C958,-92.9102 958,-82.7798 958,-75.7511"/>
<polygon fill="midnightblue" stroke="midnightblue" points="954.5,-102.083 958,-112.083 961.5,-102.083 954.5,-102.083"/>
</g>
<!-- Node19 -->
<g id="node19" class="node"><title>Node19</title>
<g id="a_node19"><a xlink:href="../../d5/d04/IncrementButton_8hpp.html" target="_top" xlink:title=" ">
<polygon fill="white" stroke="black" points="1008.5,-56.5 1008.5,-75.5 1115.5,-75.5 1115.5,-56.5 1008.5,-56.5"/>
<text text-anchor="middle" x="1062" y="-63.5" font-family="Helvetica,sans-Serif" font-size="10.00">IncrementButton.hpp</text>
</a>
</g>
</g>
<!-- Node17&#45;&gt;Node19 -->
<g id="edge23" class="edge"><title>Node17&#45;&gt;Node19</title>
<path fill="none" stroke="midnightblue" d="M983.828,-107.59C1003.06,-97.6052 1028.74,-84.2672 1045.33,-75.6545"/>
<polygon fill="midnightblue" stroke="midnightblue" points="981.971,-104.61 974.709,-112.324 985.197,-110.822 981.971,-104.61"/>
</g>
<!-- Node21 -->
<g id="node21" class="node"><title>Node21</title>
<g id="a_node21"><a xlink:href="../../df/df5/IncrementDecrementButtons_8hpp.html" target="_top" xlink:title=" ">
<polygon fill="white" stroke="black" points="1133.5,-56.5 1133.5,-75.5 1294.5,-75.5 1294.5,-56.5 1133.5,-56.5"/>
<text text-anchor="middle" x="1214" y="-63.5" font-family="Helvetica,sans-Serif" font-size="10.00">IncrementDecrementButtons.hpp</text>
</a>
</g>
</g>
<!-- Node17&#45;&gt;Node21 -->
<g id="edge25" class="edge"><title>Node17&#45;&gt;Node21</title>
<path fill="none" stroke="midnightblue" d="M1000.36,-111.723C1066.18,-97.6383 1131.57,-84.0311 1172.76,-75.5075"/>
<polygon fill="midnightblue" stroke="midnightblue" points="999.267,-108.378 990.223,-113.896 1000.73,-115.223 999.267,-108.378"/>
</g>
<!-- Node20 -->
<g id="node20" class="node"><title>Node20</title>
<g id="a_node20"><a xlink:href="../../db/d9d/IncrementButton_8cpp.html" target="_top" xlink:title=" ">
<polygon fill="white" stroke="black" points="1008.5,-0.5 1008.5,-19.5 1115.5,-19.5 1115.5,-0.5 1008.5,-0.5"/>
<text text-anchor="middle" x="1062" y="-7.5" font-family="Helvetica,sans-Serif" font-size="10.00">IncrementButton.cpp</text>
</a>
</g>
</g>
<!-- Node19&#45;&gt;Node20 -->
<g id="edge24" class="edge"><title>Node19&#45;&gt;Node20</title>
<path fill="none" stroke="midnightblue" d="M1062,-45.8045C1062,-36.9102 1062,-26.7798 1062,-19.7511"/>
<polygon fill="midnightblue" stroke="midnightblue" points="1058.5,-46.083 1062,-56.083 1065.5,-46.083 1058.5,-46.083"/>
</g>
<!-- Node22 -->
<g id="node22" class="node"><title>Node22</title>
<g id="a_node22"><a xlink:href="../../da/d66/IncrementDecrementButtons_8cpp.html" target="_top" xlink:title=" ">
<polygon fill="white" stroke="black" points="1133.5,-0.5 1133.5,-19.5 1294.5,-19.5 1294.5,-0.5 1133.5,-0.5"/>
<text text-anchor="middle" x="1214" y="-7.5" font-family="Helvetica,sans-Serif" font-size="10.00">IncrementDecrementButtons.cpp</text>
</a>
</g>
</g>
<!-- Node21&#45;&gt;Node22 -->
<g id="edge26" class="edge"><title>Node21&#45;&gt;Node22</title>
<path fill="none" stroke="midnightblue" d="M1214,-45.8045C1214,-36.9102 1214,-26.7798 1214,-19.7511"/>
<polygon fill="midnightblue" stroke="midnightblue" points="1210.5,-46.083 1214,-56.083 1217.5,-46.083 1210.5,-46.083"/>
</g>
<!-- Node26 -->
<g id="node26" class="node"><title>Node26</title>
<g id="a_node26"><a xlink:href="../../d6/d3a/DotBarDisplayLEDs_8hpp.html" target="_top" xlink:title=" ">
<polygon fill="white" stroke="black" points="746,-56.5 746,-75.5 870,-75.5 870,-56.5 746,-56.5"/>
<text text-anchor="middle" x="808" y="-63.5" font-family="Helvetica,sans-Serif" font-size="10.00">DotBarDisplayLEDs.hpp</text>
</a>
</g>
</g>
<!-- Node25&#45;&gt;Node26 -->
<g id="edge35" class="edge"><title>Node25&#45;&gt;Node26</title>
<path fill="none" stroke="midnightblue" d="M808,-101.805C808,-92.9102 808,-82.7798 808,-75.7511"/>
<polygon fill="midnightblue" stroke="midnightblue" points="804.5,-102.083 808,-112.083 811.5,-102.083 804.5,-102.083"/>
</g>
<!-- Node27&#45;&gt;Node5 -->
<g id="edge37" class="edge"><title>Node27&#45;&gt;Node5</title>
<path fill="none" stroke="midnightblue" d="M625.245,-109.959C584.826,-99.7598 525.627,-84.8217 488.75,-75.5164"/>
<polygon fill="midnightblue" stroke="midnightblue" points="624.539,-113.39 635.091,-112.444 626.251,-106.603 624.539,-113.39"/>
</g>
<!-- Node28 -->
<g id="node28" class="node"><title>Node28</title>
<g id="a_node28"><a xlink:href="../../d5/d0c/MAX7219SevenSegmentDisplay_8hpp.html" target="_top" xlink:title=" ">
<polygon fill="white" stroke="black" points="512,-56.5 512,-75.5 690,-75.5 690,-56.5 512,-56.5"/>
<text text-anchor="middle" x="601" y="-63.5" font-family="Helvetica,sans-Serif" font-size="10.00">MAX7219SevenSegmentDisplay.hpp</text>
</a>
</g>
</g>
<!-- Node27&#45;&gt;Node28 -->
<g id="edge38" class="edge"><title>Node27&#45;&gt;Node28</title>
<path fill="none" stroke="midnightblue" d="M650.238,-106.101C638,-96.3824 622.441,-84.0269 612.124,-75.8339"/>
<polygon fill="midnightblue" stroke="midnightblue" points="648.067,-108.846 658.075,-112.324 652.42,-103.364 648.067,-108.846"/>
</g>
<!-- Node31 -->
<g id="node31" class="node"><title>Node31</title>
<g id="a_node31"><a xlink:href="../../df/ddc/SOSFilter_8hpp.html" target="_top" xlink:title=" ">
<polygon fill="white" stroke="black" points="1011,-224.5 1011,-243.5 1089,-243.5 1089,-224.5 1011,-224.5"/>
<text text-anchor="middle" x="1050" y="-231.5" font-family="Helvetica,sans-Serif" font-size="10.00">SOSFilter.hpp</text>
</a>
</g>
</g>
<!-- Node30&#45;&gt;Node31 -->
<g id="edge44" class="edge"><title>Node30&#45;&gt;Node31</title>
<path fill="none" stroke="midnightblue" d="M735.203,-279.891C851.072,-260.059 882.376,-260.979 995,-244 1000.17,-243.221 1005.6,-242.37 1010.96,-241.513"/>
<polygon fill="midnightblue" stroke="midnightblue" points="734.485,-276.463 725.227,-281.613 735.676,-283.361 734.485,-276.463"/>
</g>
<!-- Node32 -->
<g id="node32" class="node"><title>Node32</title>
<g id="a_node32"><a xlink:href="../../d4/d40/Butterworth_8hpp.html" target="_top" xlink:title=" ">
<polygon fill="white" stroke="black" points="1009,-168.5 1009,-187.5 1095,-187.5 1095,-168.5 1009,-168.5"/>
<text text-anchor="middle" x="1052" y="-175.5" font-family="Helvetica,sans-Serif" font-size="10.00">Butterworth.hpp</text>
</a>
</g>
</g>
<!-- Node31&#45;&gt;Node32 -->
<g id="edge45" class="edge"><title>Node31&#45;&gt;Node32</title>
<path fill="none" stroke="midnightblue" d="M1050.71,-213.805C1051.04,-204.91 1051.42,-194.78 1051.68,-187.751"/>
<polygon fill="midnightblue" stroke="midnightblue" points="1047.2,-213.96 1050.33,-224.083 1054.2,-214.219 1047.2,-213.96"/>
</g>
</g>
</svg>
