<?xml version="1.0" encoding="UTF-8" standalone="no"?>
<!DOCTYPE svg PUBLIC "-//W3C//DTD SVG 1.1//EN"
 "http://www.w3.org/Graphics/SVG/1.1/DTD/svg11.dtd">
<!-- Generated by graphviz version 2.38.0 (20140413.2041)
 -->
<!-- Title: Array.hpp Pages: 1 -->
<svg width="1794pt" height="420pt"
 viewBox="0.00 0.00 1794.16 420.00" xmlns="http://www.w3.org/2000/svg" xmlns:xlink="http://www.w3.org/1999/xlink">
<g id="graph0" class="graph" transform="scale(1 1) rotate(0) translate(4 416)">
<title>Array.hpp</title>
<polygon fill="white" stroke="none" points="-4,4 -4,-416 1790.16,-416 1790.16,4 -4,4"/>
<!-- Node1 -->
<g id="node1" class="node"><title>Node1</title>
<g id="a_node1"><a xlink:title=" ">
<polygon fill="#bfbfbf" stroke="black" points="1497.89,-392.5 1497.89,-411.5 1556.89,-411.5 1556.89,-392.5 1497.89,-392.5"/>
<text text-anchor="middle" x="1527.39" y="-399.5" font-family="Helvetica,sans-Serif" font-size="10.00">Array.hpp</text>
</a>
</g>
</g>
<!-- Node2 -->
<g id="node2" class="node"><title>Node2</title>
<g id="a_node2"><a xlink:href="../../d5/db6/ArrayHelpers_8hpp.html" target="_top" xlink:title=" ">
<polygon fill="white" stroke="black" points="1310.39,-280.5 1310.39,-299.5 1402.39,-299.5 1402.39,-280.5 1310.39,-280.5"/>
<text text-anchor="middle" x="1356.39" y="-287.5" font-family="Helvetica,sans-Serif" font-size="10.00">ArrayHelpers.hpp</text>
</a>
</g>
</g>
<!-- Node1&#45;&gt;Node2 -->
<g id="edge1" class="edge"><title>Node1&#45;&gt;Node2</title>
<path fill="none" stroke="midnightblue" d="M1488.04,-389.767C1465.81,-382.302 1438.19,-371.082 1416.39,-356 1393.16,-339.922 1372.33,-313.377 1362.45,-299.717"/>
<polygon fill="midnightblue" stroke="midnightblue" points="1487.24,-393.187 1497.83,-392.932 1489.39,-386.527 1487.24,-393.187"/>
</g>
<!-- Node4 -->
<g id="node4" class="node"><title>Node4</title>
<g id="a_node4"><a xlink:href="../../d7/def/AnalogMultiplex_8hpp.html" target="_top" xlink:title=" ">
<polygon fill="white" stroke="black" points="1340.39,-112.5 1340.39,-131.5 1444.39,-131.5 1444.39,-112.5 1340.39,-112.5"/>
<text text-anchor="middle" x="1392.39" y="-119.5" font-family="Helvetica,sans-Serif" font-size="10.00">AnalogMultiplex.hpp</text>
</a>
</g>
</g>
<!-- Node1&#45;&gt;Node4 -->
<g id="edge16" class="edge"><title>Node1&#45;&gt;Node4</title>
<path fill="none" stroke="midnightblue" d="M1493.28,-388.284C1477.89,-380.976 1460.67,-370.354 1449.39,-356 1430.8,-332.333 1430.39,-321.098 1430.39,-291 1430.39,-291 1430.39,-291 1430.39,-233 1430.39,-193.399 1408.12,-149.957 1397.68,-131.769"/>
<polygon fill="midnightblue" stroke="midnightblue" points="1492,-391.545 1502.56,-392.409 1494.84,-385.148 1492,-391.545"/>
</g>
<!-- Node14 -->
<g id="node14" class="node"><title>Node14</title>
<g id="a_node14"><a xlink:href="../../d4/d35/Hardware-Types_8hpp.html" target="_top" xlink:title=" ">
<polygon fill="white" stroke="black" points="535.894,-336.5 535.894,-355.5 642.894,-355.5 642.894,-336.5 535.894,-336.5"/>
<text text-anchor="middle" x="589.394" y="-343.5" font-family="Helvetica,sans-Serif" font-size="10.00">Hardware&#45;Types.hpp</text>
</a>
</g>
</g>
<!-- Node1&#45;&gt;Node14 -->
<g id="edge17" class="edge"><title>Node1&#45;&gt;Node14</title>
<path fill="none" stroke="midnightblue" d="M1487.71,-398.716C1338.82,-390.144 813.274,-359.889 643.041,-350.088"/>
<polygon fill="midnightblue" stroke="midnightblue" points="1487.59,-402.214 1497.77,-399.295 1487.99,-395.226 1487.59,-402.214"/>
</g>
<!-- Node32 -->
<g id="node32" class="node"><title>Node32</title>
<g id="a_node32"><a xlink:href="../../d1/dde/BiQuad_8hpp.html" target="_top" xlink:title=" ">
<polygon fill="white" stroke="black" points="1541.39,-280.5 1541.39,-299.5 1609.39,-299.5 1609.39,-280.5 1541.39,-280.5"/>
<text text-anchor="middle" x="1575.39" y="-287.5" font-family="Helvetica,sans-Serif" font-size="10.00">BiQuad.hpp</text>
</a>
</g>
</g>
<!-- Node1&#45;&gt;Node32 -->
<g id="edge47" class="edge"><title>Node1&#45;&gt;Node32</title>
<path fill="none" stroke="midnightblue" d="M1535.25,-382.998C1545.72,-358.997 1563.84,-317.468 1571.64,-299.591"/>
<polygon fill="midnightblue" stroke="midnightblue" points="1531.95,-381.803 1531.16,-392.368 1538.37,-384.603 1531.95,-381.803"/>
</g>
<!-- Node33 -->
<g id="node33" class="node"><title>Node33</title>
<g id="a_node33"><a xlink:href="../../d2/d3b/FIRFilter_8hpp.html" target="_top" xlink:title=" ">
<polygon fill="white" stroke="black" points="1458.39,-336.5 1458.39,-355.5 1532.39,-355.5 1532.39,-336.5 1458.39,-336.5"/>
<text text-anchor="middle" x="1495.39" y="-343.5" font-family="Helvetica,sans-Serif" font-size="10.00">FIRFilter.hpp</text>
</a>
</g>
</g>
<!-- Node1&#45;&gt;Node33 -->
<g id="edge49" class="edge"><title>Node1&#45;&gt;Node33</title>
<path fill="none" stroke="midnightblue" d="M1516.89,-383.275C1511.42,-374.045 1504.98,-363.17 1500.58,-355.751"/>
<polygon fill="midnightblue" stroke="midnightblue" points="1514,-385.264 1522.11,-392.083 1520.02,-381.696 1514,-385.264"/>
</g>
<!-- Node35 -->
<g id="node35" class="node"><title>Node35</title>
<g id="a_node35"><a xlink:href="../../dc/d64/IIRFilter_8hpp.html" target="_top" xlink:title=" ">
<polygon fill="white" stroke="black" points="1696.89,-280.5 1696.89,-299.5 1767.89,-299.5 1767.89,-280.5 1696.89,-280.5"/>
<text text-anchor="middle" x="1732.39" y="-287.5" font-family="Helvetica,sans-Serif" font-size="10.00">IIRFilter.hpp</text>
</a>
</g>
</g>
<!-- Node1&#45;&gt;Node35 -->
<g id="edge51" class="edge"><title>Node1&#45;&gt;Node35</title>
<path fill="none" stroke="midnightblue" d="M1567.34,-399.932C1631.87,-397.27 1754.55,-388.021 1781.39,-356 1797.74,-336.507 1766.87,-312.291 1747.11,-299.631"/>
<polygon fill="midnightblue" stroke="midnightblue" points="1566.99,-396.442 1557.13,-400.318 1567.26,-403.437 1566.99,-396.442"/>
</g>
<!-- Node36 -->
<g id="node36" class="node"><title>Node36</title>
<g id="a_node36"><a xlink:href="../../dc/d9c/SMA_8hpp.html" target="_top" xlink:title=" ">
<polygon fill="white" stroke="black" points="1715.89,-336.5 1715.89,-355.5 1772.89,-355.5 1772.89,-336.5 1715.89,-336.5"/>
<text text-anchor="middle" x="1744.39" y="-343.5" font-family="Helvetica,sans-Serif" font-size="10.00">SMA.hpp</text>
</a>
</g>
</g>
<!-- Node1&#45;&gt;Node36 -->
<g id="edge52" class="edge"><title>Node1&#45;&gt;Node36</title>
<path fill="none" stroke="midnightblue" d="M1566.95,-391.157C1609.93,-380.46 1677.57,-363.629 1715.72,-354.134"/>
<polygon fill="midnightblue" stroke="midnightblue" points="1565.97,-387.793 1557.11,-393.605 1567.66,-394.586 1565.97,-387.793"/>
</g>
<!-- Node37 -->
<g id="node37" class="node"><title>Node37</title>
<g id="a_node37"><a xlink:href="../../d2/d03/TransferFunction_8hpp.html" target="_top" xlink:title=" ">
<polygon fill="white" stroke="black" points="1588.89,-336.5 1588.89,-355.5 1697.89,-355.5 1697.89,-336.5 1588.89,-336.5"/>
<text text-anchor="middle" x="1643.39" y="-343.5" font-family="Helvetica,sans-Serif" font-size="10.00">TransferFunction.hpp</text>
</a>
</g>
</g>
<!-- Node1&#45;&gt;Node37 -->
<g id="edge53" class="edge"><title>Node1&#45;&gt;Node37</title>
<path fill="none" stroke="midnightblue" d="M1555.11,-388.096C1576.79,-378.007 1606.3,-364.27 1625.1,-355.516"/>
<polygon fill="midnightblue" stroke="midnightblue" points="1553.36,-385.05 1545.77,-392.444 1556.32,-391.396 1553.36,-385.05"/>
</g>
<!-- Node3 -->
<g id="node3" class="node"><title>Node3</title>
<g id="a_node3"><a xlink:href="../../d2/d05/StaticSizeExtendedIOElement_8hpp.html" target="_top" xlink:title=" ">
<polygon fill="white" stroke="black" points="1196.39,-168.5 1196.39,-187.5 1364.39,-187.5 1364.39,-168.5 1196.39,-168.5"/>
<text text-anchor="middle" x="1280.39" y="-175.5" font-family="Helvetica,sans-Serif" font-size="10.00">StaticSizeExtendedIOElement.hpp</text>
</a>
</g>
</g>
<!-- Node2&#45;&gt;Node3 -->
<g id="edge2" class="edge"><title>Node2&#45;&gt;Node3</title>
<path fill="none" stroke="midnightblue" d="M1344.62,-271.957C1328.15,-248.118 1298.85,-205.709 1286.33,-187.591"/>
<polygon fill="midnightblue" stroke="midnightblue" points="1341.87,-274.131 1350.43,-280.368 1347.63,-270.152 1341.87,-274.131"/>
</g>
<!-- Node12 -->
<g id="node12" class="node"><title>Node12</title>
<g id="a_node12"><a xlink:href="../../df/ddc/SOSFilter_8hpp.html" target="_top" xlink:title=" ">
<polygon fill="white" stroke="black" points="1499.39,-224.5 1499.39,-243.5 1577.39,-243.5 1577.39,-224.5 1499.39,-224.5"/>
<text text-anchor="middle" x="1538.39" y="-231.5" font-family="Helvetica,sans-Serif" font-size="10.00">SOSFilter.hpp</text>
</a>
</g>
</g>
<!-- Node2&#45;&gt;Node12 -->
<g id="edge14" class="edge"><title>Node2&#45;&gt;Node12</title>
<path fill="none" stroke="midnightblue" d="M1394.92,-277.568C1429.26,-267.381 1478.73,-252.703 1509.69,-243.516"/>
<polygon fill="midnightblue" stroke="midnightblue" points="1393.82,-274.244 1385.23,-280.444 1395.81,-280.954 1393.82,-274.244"/>
</g>
<!-- Node3&#45;&gt;Node4 -->
<g id="edge3" class="edge"><title>Node3&#45;&gt;Node4</title>
<path fill="none" stroke="midnightblue" d="M1307.64,-163.862C1328.41,-153.849 1356.42,-140.346 1374.44,-131.655"/>
<polygon fill="midnightblue" stroke="midnightblue" points="1305.88,-160.828 1298.39,-168.324 1308.92,-167.134 1305.88,-160.828"/>
</g>
<!-- Node5 -->
<g id="node5" class="node"><title>Node5</title>
<g id="a_node5"><a xlink:href="../../d2/d25/MAX7219_8hpp.html" target="_top" xlink:title=" ">
<polygon fill="white" stroke="black" points="1041.39,-112.5 1041.39,-131.5 1119.39,-131.5 1119.39,-112.5 1041.39,-112.5"/>
<text text-anchor="middle" x="1080.39" y="-119.5" font-family="Helvetica,sans-Serif" font-size="10.00">MAX7219.hpp</text>
</a>
</g>
</g>
<!-- Node3&#45;&gt;Node5 -->
<g id="edge4" class="edge"><title>Node3&#45;&gt;Node5</title>
<path fill="none" stroke="midnightblue" d="M1239.02,-165.829C1201.26,-155.633 1146.25,-140.782 1111.94,-131.516"/>
<polygon fill="midnightblue" stroke="midnightblue" points="1238.14,-169.216 1248.7,-168.444 1239.96,-162.458 1238.14,-169.216"/>
</g>
<!-- Node6 -->
<g id="node6" class="node"><title>Node6</title>
<g id="a_node6"><a xlink:href="../../d8/d93/ShiftRegisterOutBase_8hpp.html" target="_top" xlink:title=" ">
<polygon fill="white" stroke="black" points="542.894,-112.5 542.894,-131.5 673.894,-131.5 673.894,-112.5 542.894,-112.5"/>
<text text-anchor="middle" x="608.394" y="-119.5" font-family="Helvetica,sans-Serif" font-size="10.00">ShiftRegisterOutBase.hpp</text>
</a>
</g>
</g>
<!-- Node3&#45;&gt;Node6 -->
<g id="edge5" class="edge"><title>Node3&#45;&gt;Node6</title>
<path fill="none" stroke="midnightblue" d="M1186.31,-168.009C993.426,-151.344 779.811,-135.435 674.304,-127.749"/>
<polygon fill="midnightblue" stroke="midnightblue" points="1186.09,-171.503 1196.35,-168.879 1186.69,-164.529 1186.09,-171.503"/>
</g>
<!-- Node7 -->
<g id="node7" class="node"><title>Node7</title>
<g id="a_node7"><a xlink:href="../../d0/db4/ShiftRegisterOut_8hpp.html" target="_top" xlink:title=" ">
<polygon fill="white" stroke="black" points="566.394,-56.5 566.394,-75.5 674.394,-75.5 674.394,-56.5 566.394,-56.5"/>
<text text-anchor="middle" x="620.394" y="-63.5" font-family="Helvetica,sans-Serif" font-size="10.00">ShiftRegisterOut.hpp</text>
</a>
</g>
</g>
<!-- Node6&#45;&gt;Node7 -->
<g id="edge6" class="edge"><title>Node6&#45;&gt;Node7</title>
<path fill="none" stroke="midnightblue" d="M612.594,-102.101C614.586,-93.1357 616.87,-82.8579 618.449,-75.7511"/>
<polygon fill="midnightblue" stroke="midnightblue" points="609.128,-101.562 610.375,-112.083 615.961,-103.08 609.128,-101.562"/>
</g>
<!-- Node9 -->
<g id="node9" class="node"><title>Node9</title>
<g id="a_node9"><a xlink:href="../../d5/d47/ShiftRegisterOutBase_8ipp.html" target="_top" xlink:title=" ">
<polygon fill="white" stroke="black" points="276.394,-56.5 276.394,-75.5 404.394,-75.5 404.394,-56.5 276.394,-56.5"/>
<text text-anchor="middle" x="340.394" y="-63.5" font-family="Helvetica,sans-Serif" font-size="10.00">ShiftRegisterOutBase.ipp</text>
</a>
</g>
</g>
<!-- Node6&#45;&gt;Node9 -->
<g id="edge9" class="edge"><title>Node6&#45;&gt;Node9</title>
<path fill="none" stroke="midnightblue" d="M551,-110.537C498.519,-100.332 422.554,-84.9992 377.581,-75.5164"/>
<polygon fill="midnightblue" stroke="midnightblue" points="550.356,-113.978 560.84,-112.444 551.688,-107.105 550.356,-113.978"/>
</g>
<!-- Node10 -->
<g id="node10" class="node"><title>Node10</title>
<g id="a_node10"><a xlink:href="../../d7/d88/SPIShiftRegisterOut_8hpp.html" target="_top" xlink:title=" ">
<polygon fill="white" stroke="black" points="422.894,-56.5 422.894,-75.5 547.894,-75.5 547.894,-56.5 422.894,-56.5"/>
<text text-anchor="middle" x="485.394" y="-63.5" font-family="Helvetica,sans-Serif" font-size="10.00">SPIShiftRegisterOut.hpp</text>
</a>
</g>
</g>
<!-- Node6&#45;&gt;Node10 -->
<g id="edge11" class="edge"><title>Node6&#45;&gt;Node10</title>
<path fill="none" stroke="midnightblue" d="M579.62,-108.368C556.586,-98.2553 524.91,-84.3486 504.792,-75.5164"/>
<polygon fill="midnightblue" stroke="midnightblue" points="578.341,-111.628 588.904,-112.444 581.155,-105.219 578.341,-111.628"/>
</g>
<!-- Node8 -->
<g id="node8" class="node"><title>Node8</title>
<g id="a_node8"><a xlink:href="../../de/d95/ShiftRegisterOut_8ipp.html" target="_top" xlink:title=" ">
<polygon fill="white" stroke="black" points="567.894,-0.5 567.894,-19.5 672.894,-19.5 672.894,-0.5 567.894,-0.5"/>
<text text-anchor="middle" x="620.394" y="-7.5" font-family="Helvetica,sans-Serif" font-size="10.00">ShiftRegisterOut.ipp</text>
</a>
</g>
</g>
<!-- Node7&#45;&gt;Node8 -->
<g id="edge7" class="edge"><title>Node7&#45;&gt;Node8</title>
<path fill="none" stroke="midnightblue" d="M613.921,-46.1005C613.289,-37.1357 613.737,-26.8579 615.263,-19.7511"/>
<polygon fill="midnightblue" stroke="midnightblue" points="610.46,-46.6216 615.227,-56.083 617.401,-45.7134 610.46,-46.6216"/>
</g>
<!-- Node8&#45;&gt;Node7 -->
<g id="edge8" class="edge"><title>Node8&#45;&gt;Node7</title>
<path fill="none" stroke="midnightblue" d="M626.851,-29.6911C627.5,-38.6353 627.07,-48.9272 625.56,-56.083"/>
<polygon fill="midnightblue" stroke="midnightblue" points="630.317,-29.2002 625.525,-19.7511 623.378,-30.1262 630.317,-29.2002"/>
</g>
<!-- Node9&#45;&gt;Node6 -->
<g id="edge10" class="edge"><title>Node9&#45;&gt;Node6</title>
<path fill="none" stroke="midnightblue" d="M397.567,-77.4198C449.981,-87.611 525.957,-102.944 571.017,-112.444"/>
<polygon fill="midnightblue" stroke="midnightblue" points="398.224,-73.9821 387.741,-75.5164 396.892,-80.8544 398.224,-73.9821"/>
</g>
<!-- Node11 -->
<g id="node11" class="node"><title>Node11</title>
<g id="a_node11"><a xlink:href="../../da/d45/SPIShiftRegisterOut_8ipp.html" target="_top" xlink:title=" ">
<polygon fill="white" stroke="black" points="424.394,-0.5 424.394,-19.5 546.394,-19.5 546.394,-0.5 424.394,-0.5"/>
<text text-anchor="middle" x="485.394" y="-7.5" font-family="Helvetica,sans-Serif" font-size="10.00">SPIShiftRegisterOut.ipp</text>
</a>
</g>
</g>
<!-- Node10&#45;&gt;Node11 -->
<g id="edge12" class="edge"><title>Node10&#45;&gt;Node11</title>
<path fill="none" stroke="midnightblue" d="M478.921,-46.1005C478.289,-37.1357 478.737,-26.8579 480.263,-19.7511"/>
<polygon fill="midnightblue" stroke="midnightblue" points="475.46,-46.6216 480.227,-56.083 482.401,-45.7134 475.46,-46.6216"/>
</g>
<!-- Node11&#45;&gt;Node10 -->
<g id="edge13" class="edge"><title>Node11&#45;&gt;Node10</title>
<path fill="none" stroke="midnightblue" d="M491.851,-29.6911C492.5,-38.6353 492.07,-48.9272 490.56,-56.083"/>
<polygon fill="midnightblue" stroke="midnightblue" points="495.317,-29.2002 490.525,-19.7511 488.378,-30.1262 495.317,-29.2002"/>
</g>
<!-- Node13 -->
<g id="node13" class="node"><title>Node13</title>
<g id="a_node13"><a xlink:href="../../d4/d40/Butterworth_8hpp.html" target="_top" xlink:title=" ">
<polygon fill="white" stroke="black" points="1495.39,-168.5 1495.39,-187.5 1581.39,-187.5 1581.39,-168.5 1495.39,-168.5"/>
<text text-anchor="middle" x="1538.39" y="-175.5" font-family="Helvetica,sans-Serif" font-size="10.00">Butterworth.hpp</text>
</a>
</g>
</g>
<!-- Node12&#45;&gt;Node13 -->
<g id="edge15" class="edge"><title>Node12&#45;&gt;Node13</title>
<path fill="none" stroke="midnightblue" d="M1538.39,-213.805C1538.39,-204.91 1538.39,-194.78 1538.39,-187.751"/>
<polygon fill="midnightblue" stroke="midnightblue" points="1534.89,-214.083 1538.39,-224.083 1541.89,-214.083 1534.89,-214.083"/>
</g>
<!-- Node15 -->
<g id="node15" class="node"><title>Node15</title>
<g id="a_node15"><a xlink:href="../../d9/d4b/ButtonMatrix_8hpp.html" target="_top" xlink:title=" ">
<polygon fill="white" stroke="black" points="168.894,-280.5 168.894,-299.5 259.894,-299.5 259.894,-280.5 168.894,-280.5"/>
<text text-anchor="middle" x="214.394" y="-287.5" font-family="Helvetica,sans-Serif" font-size="10.00">ButtonMatrix.hpp</text>
</a>
</g>
</g>
<!-- Node14&#45;&gt;Node15 -->
<g id="edge18" class="edge"><title>Node14&#45;&gt;Node15</title>
<path fill="none" stroke="midnightblue" d="M525.349,-335.778C449.905,-324.914 326.461,-307.138 260.07,-297.577"/>
<polygon fill="midnightblue" stroke="midnightblue" points="525.269,-339.302 535.665,-337.263 526.266,-332.373 525.269,-339.302"/>
</g>
<!-- Node17 -->
<g id="node17" class="node"><title>Node17</title>
<g id="a_node17"><a xlink:href="../../dd/ddf/ExtendedInputOutput_8hpp.html" target="_top" xlink:title=" ">
<polygon fill="white" stroke="black" points="525.394,-280.5 525.394,-299.5 653.394,-299.5 653.394,-280.5 525.394,-280.5"/>
<text text-anchor="middle" x="589.394" y="-287.5" font-family="Helvetica,sans-Serif" font-size="10.00">ExtendedInputOutput.hpp</text>
</a>
</g>
</g>
<!-- Node14&#45;&gt;Node17 -->
<g id="edge21" class="edge"><title>Node14&#45;&gt;Node17</title>
<path fill="none" stroke="midnightblue" d="M589.394,-325.805C589.394,-316.91 589.394,-306.78 589.394,-299.751"/>
<polygon fill="midnightblue" stroke="midnightblue" points="585.894,-326.083 589.394,-336.083 592.894,-326.083 585.894,-326.083"/>
</g>
<!-- Node24 -->
<g id="node24" class="node"><title>Node24</title>
<g id="a_node24"><a xlink:href="../../d4/d57/ExtendedIOElement_8hpp.html" target="_top" xlink:title=" ">
<polygon fill="white" stroke="black" points="910.894,-224.5 910.894,-243.5 1033.89,-243.5 1033.89,-224.5 910.894,-224.5"/>
<text text-anchor="middle" x="972.394" y="-231.5" font-family="Helvetica,sans-Serif" font-size="10.00">ExtendedIOElement.hpp</text>
</a>
</g>
</g>
<!-- Node14&#45;&gt;Node24 -->
<g id="edge45" class="edge"><title>Node14&#45;&gt;Node24</title>
<path fill="none" stroke="midnightblue" d="M628.926,-333.646C705.899,-311.539 874.321,-263.167 942.678,-243.535"/>
<polygon fill="midnightblue" stroke="midnightblue" points="627.774,-330.335 619.128,-336.46 629.706,-337.063 627.774,-330.335"/>
</g>
<!-- Node27 -->
<g id="node27" class="node"><title>Node27</title>
<g id="a_node27"><a xlink:href="../../d8/df3/FilteredAnalog_8hpp.html" target="_top" xlink:title=" ">
<polygon fill="white" stroke="black" points="54.3938,-224.5 54.3938,-243.5 152.394,-243.5 152.394,-224.5 54.3938,-224.5"/>
<text text-anchor="middle" x="103.394" y="-231.5" font-family="Helvetica,sans-Serif" font-size="10.00">FilteredAnalog.hpp</text>
</a>
</g>
</g>
<!-- Node14&#45;&gt;Node27 -->
<g id="edge46" class="edge"><title>Node14&#45;&gt;Node27</title>
<path fill="none" stroke="midnightblue" d="M525.706,-344.036C421.886,-341.526 221.508,-332.492 159.394,-300 134.581,-287.02 116.011,-258.05 107.896,-243.575"/>
<polygon fill="midnightblue" stroke="midnightblue" points="525.67,-347.536 535.747,-344.265 525.83,-340.538 525.67,-347.536"/>
</g>
<!-- Node16 -->
<g id="node16" class="node"><title>Node16</title>
<g id="a_node16"><a xlink:href="../../d5/d41/ButtonMatrix_8ipp.html" target="_top" xlink:title=" ">
<polygon fill="white" stroke="black" points="170.394,-224.5 170.394,-243.5 258.394,-243.5 258.394,-224.5 170.394,-224.5"/>
<text text-anchor="middle" x="214.394" y="-231.5" font-family="Helvetica,sans-Serif" font-size="10.00">ButtonMatrix.ipp</text>
</a>
</g>
</g>
<!-- Node15&#45;&gt;Node16 -->
<g id="edge19" class="edge"><title>Node15&#45;&gt;Node16</title>
<path fill="none" stroke="midnightblue" d="M207.921,-270.101C207.289,-261.136 207.737,-250.858 209.263,-243.751"/>
<polygon fill="midnightblue" stroke="midnightblue" points="204.46,-270.622 209.227,-280.083 211.401,-269.713 204.46,-270.622"/>
</g>
<!-- Node16&#45;&gt;Node15 -->
<g id="edge20" class="edge"><title>Node16&#45;&gt;Node15</title>
<path fill="none" stroke="midnightblue" d="M220.851,-253.691C221.5,-262.635 221.07,-272.927 219.56,-280.083"/>
<polygon fill="midnightblue" stroke="midnightblue" points="224.317,-253.2 219.525,-243.751 217.378,-254.126 224.317,-253.2"/>
</g>
<!-- Node17&#45;&gt;Node4 -->
<g id="edge29" class="edge"><title>Node17&#45;&gt;Node4</title>
<path fill="none" stroke="midnightblue" d="M663.652,-289.71C838.546,-289.816 1269.47,-280.449 1373.39,-188 1389.73,-173.466 1392.36,-145.739 1392.57,-131.662"/>
<polygon fill="midnightblue" stroke="midnightblue" points="663.516,-286.21 653.51,-289.693 663.504,-293.21 663.516,-286.21"/>
</g>
<!-- Node17&#45;&gt;Node6 -->
<g id="edge35" class="edge"><title>Node17&#45;&gt;Node6</title>
<path fill="none" stroke="midnightblue" d="M591.577,-269.93C595.698,-233.92 604.476,-157.231 607.413,-131.568"/>
<polygon fill="midnightblue" stroke="midnightblue" points="588.075,-269.742 590.415,-280.075 595.03,-270.538 588.075,-269.742"/>
</g>
<!-- Node17&#45;&gt;Node8 -->
<g id="edge37" class="edge"><title>Node17&#45;&gt;Node8</title>
<path fill="none" stroke="midnightblue" d="M600.462,-271.484C624.175,-233.795 678.09,-147.178 682.394,-132 691.61,-99.5007 698.851,-86.0367 683.394,-56 674.599,-38.9095 655.972,-26.8711 641.241,-19.5733"/>
<polygon fill="midnightblue" stroke="midnightblue" points="597.257,-270.004 594.885,-280.33 603.179,-273.737 597.257,-270.004"/>
</g>
<!-- Node17&#45;&gt;Node9 -->
<g id="edge36" class="edge"><title>Node17&#45;&gt;Node9</title>
<path fill="none" stroke="midnightblue" d="M588.098,-270.264C585.383,-244.387 577.027,-197.562 551.394,-168 505.765,-115.377 426.576,-87.9321 379.27,-75.5478"/>
<polygon fill="midnightblue" stroke="midnightblue" points="584.613,-270.594 588.969,-280.252 591.586,-269.985 584.613,-270.594"/>
</g>
<!-- Node17&#45;&gt;Node11 -->
<g id="edge38" class="edge"><title>Node17&#45;&gt;Node11</title>
<path fill="none" stroke="midnightblue" d="M515.159,-283.916C456.922,-278.348 374.441,-266.944 305.394,-244 287.282,-237.982 285.539,-229.916 267.394,-224 215.076,-206.941 58.3658,-229.644 22.3938,-188 -92.9964,-54.4154 273.792,-21.2655 424.133,-13.3655"/>
<polygon fill="midnightblue" stroke="midnightblue" points="515.1,-287.426 525.379,-284.857 515.742,-280.455 515.1,-287.426"/>
</g>
<!-- Node17&#45;&gt;Node16 -->
<g id="edge28" class="edge"><title>Node17&#45;&gt;Node16</title>
<path fill="none" stroke="midnightblue" d="M517.671,-279.088C453.395,-270.141 356.552,-256.502 272.394,-244 267.858,-243.326 263.125,-242.611 258.404,-241.89"/>
<polygon fill="midnightblue" stroke="midnightblue" points="517.313,-282.572 527.7,-280.483 518.277,-275.639 517.313,-282.572"/>
</g>
<!-- Node18 -->
<g id="node18" class="node"><title>Node18</title>
<g id="a_node18"><a xlink:href="../../d4/db3/Button_8hpp.html" target="_top" xlink:title=" ">
<polygon fill="white" stroke="black" points="314.394,-224.5 314.394,-243.5 378.394,-243.5 378.394,-224.5 314.394,-224.5"/>
<text text-anchor="middle" x="346.394" y="-231.5" font-family="Helvetica,sans-Serif" font-size="10.00">Button.hpp</text>
</a>
</g>
</g>
<!-- Node17&#45;&gt;Node18 -->
<g id="edge22" class="edge"><title>Node17&#45;&gt;Node18</title>
<path fill="none" stroke="midnightblue" d="M540.987,-278.243C492.746,-267.523 420.038,-251.365 378.51,-242.137"/>
<polygon fill="midnightblue" stroke="midnightblue" points="540.369,-281.691 550.89,-280.444 541.887,-274.858 540.369,-281.691"/>
</g>
<!-- Node17&#45;&gt;Node24 -->
<g id="edge30" class="edge"><title>Node17&#45;&gt;Node24</title>
<path fill="none" stroke="midnightblue" d="M660.021,-279.042C732.358,-268.843 843.614,-253.157 911.99,-243.516"/>
<polygon fill="midnightblue" stroke="midnightblue" points="659.495,-275.582 650.081,-280.444 660.472,-282.513 659.495,-275.582"/>
</g>
<!-- Node25 -->
<g id="node25" class="node"><title>Node25</title>
<g id="a_node25"><a xlink:href="../../d6/d3c/ExtendedInputOutput_8cpp.html" target="_top" xlink:title=" ">
<polygon fill="white" stroke="black" points="908.394,-168.5 908.394,-187.5 1036.39,-187.5 1036.39,-168.5 908.394,-168.5"/>
<text text-anchor="middle" x="972.394" y="-175.5" font-family="Helvetica,sans-Serif" font-size="10.00">ExtendedInputOutput.cpp</text>
</a>
</g>
</g>
<!-- Node17&#45;&gt;Node25 -->
<g id="edge34" class="edge"><title>Node17&#45;&gt;Node25</title>
<path fill="none" stroke="midnightblue" d="M663.569,-279.295C710.597,-272.059 772.346,-260.548 825.394,-244 874.675,-228.627 929.498,-201.528 956.116,-187.679"/>
<polygon fill="midnightblue" stroke="midnightblue" points="662.83,-275.867 653.464,-280.819 663.874,-282.788 662.83,-275.867"/>
</g>
<!-- Node17&#45;&gt;Node27 -->
<g id="edge39" class="edge"><title>Node17&#45;&gt;Node27</title>
<path fill="none" stroke="midnightblue" d="M514.979,-282.295C429.498,-274.334 285.098,-260.091 161.394,-244 158.463,-243.619 155.453,-243.209 152.417,-242.781"/>
<polygon fill="midnightblue" stroke="midnightblue" points="514.826,-285.796 525.107,-283.235 515.473,-278.826 514.826,-285.796"/>
</g>
<!-- Node28 -->
<g id="node28" class="node"><title>Node28</title>
<g id="a_node28"><a xlink:href="../../d9/d4f/LEDs_8hpp.html" target="_top" xlink:title=" ">
<polygon fill="white" stroke="black" points="466.394,-224.5 466.394,-243.5 526.394,-243.5 526.394,-224.5 466.394,-224.5"/>
<text text-anchor="middle" x="496.394" y="-231.5" font-family="Helvetica,sans-Serif" font-size="10.00">LEDs.hpp</text>
</a>
</g>
</g>
<!-- Node17&#45;&gt;Node28 -->
<g id="edge40" class="edge"><title>Node17&#45;&gt;Node28</title>
<path fill="none" stroke="midnightblue" d="M565.588,-275.177C548.475,-265.241 525.929,-252.149 511.299,-243.655"/>
<polygon fill="midnightblue" stroke="midnightblue" points="564.046,-278.329 574.452,-280.324 567.561,-272.276 564.046,-278.329"/>
</g>
<!-- Node30 -->
<g id="node30" class="node"><title>Node30</title>
<g id="a_node30"><a xlink:href="../../d7/d13/MAX7219__Base_8hpp.html" target="_top" xlink:title=" ">
<polygon fill="white" stroke="black" points="710.394,-224.5 710.394,-243.5 816.394,-243.5 816.394,-224.5 710.394,-224.5"/>
<text text-anchor="middle" x="763.394" y="-231.5" font-family="Helvetica,sans-Serif" font-size="10.00">MAX7219_Base.hpp</text>
</a>
</g>
</g>
<!-- Node17&#45;&gt;Node30 -->
<g id="edge42" class="edge"><title>Node17&#45;&gt;Node30</title>
<path fill="none" stroke="midnightblue" d="M626.655,-277.436C659.461,-267.255 706.476,-252.664 735.952,-243.516"/>
<polygon fill="midnightblue" stroke="midnightblue" points="625.478,-274.137 616.965,-280.444 627.553,-280.822 625.478,-274.137"/>
</g>
<!-- Node19 -->
<g id="node19" class="node"><title>Node19</title>
<g id="a_node19"><a xlink:href="../../de/dd1/Button_8cpp.html" target="_top" xlink:title=" ">
<polygon fill="white" stroke="black" points="31.3938,-168.5 31.3938,-187.5 95.3938,-187.5 95.3938,-168.5 31.3938,-168.5"/>
<text text-anchor="middle" x="63.3938" y="-175.5" font-family="Helvetica,sans-Serif" font-size="10.00">Button.cpp</text>
</a>
</g>
</g>
<!-- Node18&#45;&gt;Node19 -->
<g id="edge23" class="edge"><title>Node18&#45;&gt;Node19</title>
<path fill="none" stroke="midnightblue" d="M304.222,-224.729C302.931,-224.482 301.653,-224.239 300.394,-224 213.377,-207.497 191.217,-205.497 104.394,-188 101.536,-187.424 98.5707,-186.808 95.6007,-186.18"/>
<polygon fill="midnightblue" stroke="midnightblue" points="303.751,-228.203 314.232,-226.658 305.075,-221.329 303.751,-228.203"/>
</g>
<!-- Node20 -->
<g id="node20" class="node"><title>Node20</title>
<g id="a_node20"><a xlink:href="../../d5/d04/IncrementButton_8hpp.html" target="_top" xlink:title=" ">
<polygon fill="white" stroke="black" points="292.894,-168.5 292.894,-187.5 399.894,-187.5 399.894,-168.5 292.894,-168.5"/>
<text text-anchor="middle" x="346.394" y="-175.5" font-family="Helvetica,sans-Serif" font-size="10.00">IncrementButton.hpp</text>
</a>
</g>
</g>
<!-- Node18&#45;&gt;Node20 -->
<g id="edge24" class="edge"><title>Node18&#45;&gt;Node20</title>
<path fill="none" stroke="midnightblue" d="M346.394,-213.805C346.394,-204.91 346.394,-194.78 346.394,-187.751"/>
<polygon fill="midnightblue" stroke="midnightblue" points="342.894,-214.083 346.394,-224.083 349.894,-214.083 342.894,-214.083"/>
</g>
<!-- Node22 -->
<g id="node22" class="node"><title>Node22</title>
<g id="a_node22"><a xlink:href="../../df/df5/IncrementDecrementButtons_8hpp.html" target="_top" xlink:title=" ">
<polygon fill="white" stroke="black" points="113.894,-168.5 113.894,-187.5 274.894,-187.5 274.894,-168.5 113.894,-168.5"/>
<text text-anchor="middle" x="194.394" y="-175.5" font-family="Helvetica,sans-Serif" font-size="10.00">IncrementDecrementButtons.hpp</text>
</a>
</g>
</g>
<!-- Node18&#45;&gt;Node22 -->
<g id="edge26" class="edge"><title>Node18&#45;&gt;Node22</title>
<path fill="none" stroke="midnightblue" d="M312.726,-221.039C284.126,-210.879 243.782,-196.546 218.366,-187.516"/>
<polygon fill="midnightblue" stroke="midnightblue" points="311.714,-224.394 322.309,-224.444 314.058,-217.798 311.714,-224.394"/>
</g>
<!-- Node21 -->
<g id="node21" class="node"><title>Node21</title>
<g id="a_node21"><a xlink:href="../../db/d9d/IncrementButton_8cpp.html" target="_top" xlink:title=" ">
<polygon fill="white" stroke="black" points="292.894,-112.5 292.894,-131.5 399.894,-131.5 399.894,-112.5 292.894,-112.5"/>
<text text-anchor="middle" x="346.394" y="-119.5" font-family="Helvetica,sans-Serif" font-size="10.00">IncrementButton.cpp</text>
</a>
</g>
</g>
<!-- Node20&#45;&gt;Node21 -->
<g id="edge25" class="edge"><title>Node20&#45;&gt;Node21</title>
<path fill="none" stroke="midnightblue" d="M346.394,-157.805C346.394,-148.91 346.394,-138.78 346.394,-131.751"/>
<polygon fill="midnightblue" stroke="midnightblue" points="342.894,-158.083 346.394,-168.083 349.894,-158.083 342.894,-158.083"/>
</g>
<!-- Node23 -->
<g id="node23" class="node"><title>Node23</title>
<g id="a_node23"><a xlink:href="../../da/d66/IncrementDecrementButtons_8cpp.html" target="_top" xlink:title=" ">
<polygon fill="white" stroke="black" points="113.894,-112.5 113.894,-131.5 274.894,-131.5 274.894,-112.5 113.894,-112.5"/>
<text text-anchor="middle" x="194.394" y="-119.5" font-family="Helvetica,sans-Serif" font-size="10.00">IncrementDecrementButtons.cpp</text>
</a>
</g>
</g>
<!-- Node22&#45;&gt;Node23 -->
<g id="edge27" class="edge"><title>Node22&#45;&gt;Node23</title>
<path fill="none" stroke="midnightblue" d="M194.394,-157.805C194.394,-148.91 194.394,-138.78 194.394,-131.751"/>
<polygon fill="midnightblue" stroke="midnightblue" points="190.894,-158.083 194.394,-168.083 197.894,-158.083 190.894,-158.083"/>
</g>
<!-- Node24&#45;&gt;Node3 -->
<g id="edge31" class="edge"><title>Node24&#45;&gt;Node3</title>
<path fill="none" stroke="midnightblue" d="M1031.35,-222.664C1089.55,-212.459 1177.51,-197.039 1231.82,-187.516"/>
<polygon fill="midnightblue" stroke="midnightblue" points="1030.44,-219.269 1021.2,-224.444 1031.65,-226.164 1030.44,-219.269"/>
</g>
<!-- Node24&#45;&gt;Node25 -->
<g id="edge32" class="edge"><title>Node24&#45;&gt;Node25</title>
<path fill="none" stroke="midnightblue" d="M972.394,-213.805C972.394,-204.91 972.394,-194.78 972.394,-187.751"/>
<polygon fill="midnightblue" stroke="midnightblue" points="968.894,-214.083 972.394,-224.083 975.894,-214.083 968.894,-214.083"/>
</g>
<!-- Node26 -->
<g id="node26" class="node"><title>Node26</title>
<g id="a_node26"><a xlink:href="../../da/d1f/ExtendedIOElement_8cpp.html" target="_top" xlink:title=" ">
<polygon fill="white" stroke="black" points="1054.89,-168.5 1054.89,-187.5 1177.89,-187.5 1177.89,-168.5 1054.89,-168.5"/>
<text text-anchor="middle" x="1116.39" y="-175.5" font-family="Helvetica,sans-Serif" font-size="10.00">ExtendedIOElement.cpp</text>
</a>
</g>
</g>
<!-- Node24&#45;&gt;Node26 -->
<g id="edge33" class="edge"><title>Node24&#45;&gt;Node26</title>
<path fill="none" stroke="midnightblue" d="M1004.64,-220.906C1031.72,-210.754 1069.71,-196.506 1093.68,-187.516"/>
<polygon fill="midnightblue" stroke="midnightblue" points="1003.35,-217.655 995.211,-224.444 1005.8,-224.209 1003.35,-217.655"/>
</g>
<!-- Node29 -->
<g id="node29" class="node"><title>Node29</title>
<g id="a_node29"><a xlink:href="../../d6/d3a/DotBarDisplayLEDs_8hpp.html" target="_top" xlink:title=" ">
<polygon fill="white" stroke="black" points="418.394,-168.5 418.394,-187.5 542.394,-187.5 542.394,-168.5 418.394,-168.5"/>
<text text-anchor="middle" x="480.394" y="-175.5" font-family="Helvetica,sans-Serif" font-size="10.00">DotBarDisplayLEDs.hpp</text>
</a>
</g>
</g>
<!-- Node28&#45;&gt;Node29 -->
<g id="edge41" class="edge"><title>Node28&#45;&gt;Node29</title>
<path fill="none" stroke="midnightblue" d="M490.881,-214.396C488.205,-205.362 485.116,-194.936 482.987,-187.751"/>
<polygon fill="midnightblue" stroke="midnightblue" points="487.555,-215.489 493.752,-224.083 494.267,-213.501 487.555,-215.489"/>
</g>
<!-- Node30&#45;&gt;Node5 -->
<g id="edge43" class="edge"><title>Node30&#45;&gt;Node5</title>
<path fill="none" stroke="midnightblue" d="M792.371,-220.189C811.982,-211.398 838.403,-199.318 861.394,-188 878.517,-179.57 881.56,-174.796 899.394,-168 946.747,-149.955 1003.85,-137.156 1041.08,-129.932"/>
<polygon fill="midnightblue" stroke="midnightblue" points="790.769,-217.071 783.064,-224.343 793.622,-223.463 790.769,-217.071"/>
</g>
<!-- Node31 -->
<g id="node31" class="node"><title>Node31</title>
<g id="a_node31"><a xlink:href="../../d5/d0c/MAX7219SevenSegmentDisplay_8hpp.html" target="_top" xlink:title=" ">
<polygon fill="white" stroke="black" points="674.394,-168.5 674.394,-187.5 852.394,-187.5 852.394,-168.5 674.394,-168.5"/>
<text text-anchor="middle" x="763.394" y="-175.5" font-family="Helvetica,sans-Serif" font-size="10.00">MAX7219SevenSegmentDisplay.hpp</text>
</a>
</g>
</g>
<!-- Node30&#45;&gt;Node31 -->
<g id="edge44" class="edge"><title>Node30&#45;&gt;Node31</title>
<path fill="none" stroke="midnightblue" d="M763.394,-213.805C763.394,-204.91 763.394,-194.78 763.394,-187.751"/>
<polygon fill="midnightblue" stroke="midnightblue" points="759.894,-214.083 763.394,-224.083 766.894,-214.083 759.894,-214.083"/>
</g>
<!-- Node32&#45;&gt;Node12 -->
<g id="edge48" class="edge"><title>Node32&#45;&gt;Node12</title>
<path fill="none" stroke="midnightblue" d="M1563.45,-271.566C1557.08,-262.275 1549.53,-251.248 1544.39,-243.751"/>
<polygon fill="midnightblue" stroke="midnightblue" points="1560.74,-273.812 1569.28,-280.083 1566.52,-269.855 1560.74,-273.812"/>
</g>
<!-- Node34 -->
<g id="node34" class="node"><title>Node34</title>
<g id="a_node34"><a xlink:href="../../df/da1/Notch_8hpp.html" target="_top" xlink:title=" ">
<polygon fill="white" stroke="black" points="1461.39,-280.5 1461.39,-299.5 1523.39,-299.5 1523.39,-280.5 1461.39,-280.5"/>
<text text-anchor="middle" x="1492.39" y="-287.5" font-family="Helvetica,sans-Serif" font-size="10.00">Notch.hpp</text>
</a>
</g>
</g>
<!-- Node33&#45;&gt;Node34 -->
<g id="edge50" class="edge"><title>Node33&#45;&gt;Node34</title>
<path fill="none" stroke="midnightblue" d="M1494.33,-325.805C1493.83,-316.91 1493.27,-306.78 1492.88,-299.751"/>
<polygon fill="midnightblue" stroke="midnightblue" points="1490.85,-326.293 1494.9,-336.083 1497.84,-325.904 1490.85,-326.293"/>
</g>
<!-- Node37&#45;&gt;Node32 -->
<g id="edge54" class="edge"><title>Node37&#45;&gt;Node32</title>
<path fill="none" stroke="midnightblue" d="M1624.63,-330.101C1612.39,-320.382 1596.84,-308.027 1586.52,-299.834"/>
<polygon fill="midnightblue" stroke="midnightblue" points="1622.46,-332.846 1632.47,-336.324 1626.81,-327.364 1622.46,-332.846"/>
</g>
<!-- Node37&#45;&gt;Node35 -->
<g id="edge55" class="edge"><title>Node37&#45;&gt;Node35</title>
<path fill="none" stroke="midnightblue" d="M1666.63,-330.901C1682.95,-320.999 1704.26,-308.071 1718.13,-299.655"/>
<polygon fill="midnightblue" stroke="midnightblue" points="1664.43,-328.144 1657.69,-336.324 1668.06,-334.129 1664.43,-328.144"/>
</g>
</g>
</svg>
