<?xml version="1.0" encoding="UTF-8" standalone="no"?>
<!DOCTYPE svg PUBLIC "-//W3C//DTD SVG 1.1//EN"
 "http://www.w3.org/Graphics/SVG/1.1/DTD/svg11.dtd">
<!-- Generated by graphviz version 2.40.1 (20161225.0304)
 -->
<!-- Title: Array.hpp Pages: 1 -->
<svg width="1825pt" height="420pt"
 viewBox="0.00 0.00 1825.00 420.00" xmlns="http://www.w3.org/2000/svg" xmlns:xlink="http://www.w3.org/1999/xlink">
<g id="graph0" class="graph" transform="scale(1 1) rotate(0) translate(4 416)">
<title>Array.hpp</title>
<polygon fill="#ffffff" stroke="transparent" points="-4,4 -4,-416 1821,-416 1821,4 -4,4"/>
<!-- Node1 -->
<g id="node1" class="node">
<title>Node1</title>
<g id="a_node1"><a xlink:title=" ">
<polygon fill="#bfbfbf" stroke="#000000" points="1485,-392.5 1485,-411.5 1544,-411.5 1544,-392.5 1485,-392.5"/>
<text text-anchor="middle" x="1514.5" y="-399.5" font-family="Helvetica,sans-Serif" font-size="10.00" fill="#000000">Array.hpp</text>
</a>
</g>
</g>
<!-- Node2 -->
<g id="node2" class="node">
<title>Node2</title>
<g id="a_node2"><a xlink:href="../../d5/db6/ArrayHelpers_8hpp.html" target="_top" xlink:title=" ">
<polygon fill="#ffffff" stroke="#000000" points="1315.5,-280.5 1315.5,-299.5 1407.5,-299.5 1407.5,-280.5 1315.5,-280.5"/>
<text text-anchor="middle" x="1361.5" y="-287.5" font-family="Helvetica,sans-Serif" font-size="10.00" fill="#000000">ArrayHelpers.hpp</text>
</a>
</g>
</g>
<!-- Node1&#45;&gt;Node2 -->
<g id="edge1" class="edge">
<title>Node1&#45;&gt;Node2</title>
<path fill="none" stroke="#191970" d="M1479.5605,-388.438C1461.317,-380.4646 1439.1764,-369.3309 1421.5,-356 1399.2454,-339.2165 1378.6233,-313.4054 1368.3403,-299.5593"/>
<polygon fill="#191970" stroke="#191970" points="1478.3976,-391.7464 1488.9707,-392.4251 1481.1286,-385.3011 1478.3976,-391.7464"/>
</g>
<!-- Node4 -->
<g id="node4" class="node">
<title>Node4</title>
<g id="a_node4"><a xlink:href="../../d7/def/AnalogMultiplex_8hpp.html" target="_top" xlink:title=" ">
<polygon fill="#ffffff" stroke="#000000" points="1345.5,-112.5 1345.5,-131.5 1449.5,-131.5 1449.5,-112.5 1345.5,-112.5"/>
<text text-anchor="middle" x="1397.5" y="-119.5" font-family="Helvetica,sans-Serif" font-size="10.00" fill="#000000">AnalogMultiplex.hpp</text>
</a>
</g>
</g>
<!-- Node1&#45;&gt;Node4 -->
<g id="edge16" class="edge">
<title>Node1&#45;&gt;Node4</title>
<path fill="none" stroke="#191970" d="M1493.0498,-385.6826C1469.6555,-365.857 1435.5,-330.0534 1435.5,-290 1435.5,-290 1435.5,-290 1435.5,-234 1435.5,-194.1657 1413.6774,-150.3859 1403.107,-131.5166"/>
<polygon fill="#191970" stroke="#191970" points="1491.1358,-388.6378 1501.0987,-392.2421 1495.558,-383.2115 1491.1358,-388.6378"/>
</g>
<!-- Node14 -->
<g id="node14" class="node">
<title>Node14</title>
<g id="a_node14"><a xlink:href="../../d4/d35/Hardware-Types_8hpp.html" target="_top" xlink:title=" ">
<polygon fill="#ffffff" stroke="#000000" points="522,-336.5 522,-355.5 629,-355.5 629,-336.5 522,-336.5"/>
<text text-anchor="middle" x="575.5" y="-343.5" font-family="Helvetica,sans-Serif" font-size="10.00" fill="#000000">Hardware&#45;Types.hpp</text>
</a>
</g>
</g>
<!-- Node1&#45;&gt;Node14 -->
<g id="edge17" class="edge">
<title>Node1&#45;&gt;Node14</title>
<path fill="none" stroke="#191970" d="M1474.777,-399.631C1325.7294,-390.7421 799.6187,-359.366 629.2048,-349.2028"/>
<polygon fill="#191970" stroke="#191970" points="1474.6561,-403.1299 1484.8467,-400.2315 1475.0729,-396.1423 1474.6561,-403.1299"/>
</g>
<!-- Node33 -->
<g id="node33" class="node">
<title>Node33</title>
<g id="a_node33"><a xlink:href="../../d1/dde/BiQuad_8hpp.html" target="_top" xlink:title=" ">
<polygon fill="#ffffff" stroke="#000000" points="1470.5,-280.5 1470.5,-299.5 1538.5,-299.5 1538.5,-280.5 1470.5,-280.5"/>
<text text-anchor="middle" x="1504.5" y="-287.5" font-family="Helvetica,sans-Serif" font-size="10.00" fill="#000000">BiQuad.hpp</text>
</a>
</g>
</g>
<!-- Node1&#45;&gt;Node33 -->
<g id="edge48" class="edge">
<title>Node1&#45;&gt;Node33</title>
<path fill="none" stroke="#191970" d="M1503.2367,-383.3325C1498.978,-375.2328 1494.644,-365.452 1492.5,-356 1488.0174,-336.2376 1495.172,-312.8494 1500.2154,-299.8939"/>
<polygon fill="#191970" stroke="#191970" points="1500.2929,-385.2385 1508.2417,-392.2433 1506.3961,-381.8105 1500.2929,-385.2385"/>
</g>
<!-- Node34 -->
<g id="node34" class="node">
<title>Node34</title>
<g id="a_node34"><a xlink:href="../../d2/d3b/FIRFilter_8hpp.html" target="_top" xlink:title=" ">
<polygon fill="#ffffff" stroke="#000000" points="1667.5,-336.5 1667.5,-355.5 1741.5,-355.5 1741.5,-336.5 1667.5,-336.5"/>
<text text-anchor="middle" x="1704.5" y="-343.5" font-family="Helvetica,sans-Serif" font-size="10.00" fill="#000000">FIRFilter.hpp</text>
</a>
</g>
</g>
<!-- Node1&#45;&gt;Node34 -->
<g id="edge50" class="edge">
<title>Node1&#45;&gt;Node34</title>
<path fill="none" stroke="#191970" d="M1554.0705,-390.3371C1589.076,-380.0197 1639.5242,-365.1508 1672.1615,-355.5314"/>
<polygon fill="#191970" stroke="#191970" points="1552.79,-387.0656 1544.1875,-393.25 1554.7691,-393.78 1552.79,-387.0656"/>
</g>
<!-- Node36 -->
<g id="node36" class="node">
<title>Node36</title>
<g id="a_node36"><a xlink:href="../../dc/d64/IIRFilter_8hpp.html" target="_top" xlink:title=" ">
<polygon fill="#ffffff" stroke="#000000" points="1571,-280.5 1571,-299.5 1642,-299.5 1642,-280.5 1571,-280.5"/>
<text text-anchor="middle" x="1606.5" y="-287.5" font-family="Helvetica,sans-Serif" font-size="10.00" fill="#000000">IIRFilter.hpp</text>
</a>
</g>
</g>
<!-- Node1&#45;&gt;Node36 -->
<g id="edge52" class="edge">
<title>Node1&#45;&gt;Node36</title>
<path fill="none" stroke="#191970" d="M1554.2085,-395.6106C1577.4902,-389.6031 1605.0822,-378.057 1619.5,-356 1630.8738,-338.5998 1620.1459,-313.4884 1612.5528,-299.8015"/>
<polygon fill="#191970" stroke="#191970" points="1553.1627,-392.2602 1544.2126,-397.9298 1554.7449,-399.0791 1553.1627,-392.2602"/>
</g>
<!-- Node37 -->
<g id="node37" class="node">
<title>Node37</title>
<g id="a_node37"><a xlink:href="../../dc/d9c/SMA_8hpp.html" target="_top" xlink:title=" ">
<polygon fill="#ffffff" stroke="#000000" points="1760,-336.5 1760,-355.5 1817,-355.5 1817,-336.5 1760,-336.5"/>
<text text-anchor="middle" x="1788.5" y="-343.5" font-family="Helvetica,sans-Serif" font-size="10.00" fill="#000000">SMA.hpp</text>
</a>
</g>
</g>
<!-- Node1&#45;&gt;Node37 -->
<g id="edge53" class="edge">
<title>Node1&#45;&gt;Node37</title>
<path fill="none" stroke="#191970" d="M1554.1349,-395.0851C1601.1584,-386.6943 1681.8372,-371.7089 1750.5,-356 1753.559,-355.3001 1756.7456,-354.5289 1759.9152,-353.7346"/>
<polygon fill="#191970" stroke="#191970" points="1553.2973,-391.679 1544.063,-396.8732 1554.5209,-398.5713 1553.2973,-391.679"/>
</g>
<!-- Node38 -->
<g id="node38" class="node">
<title>Node38</title>
<g id="a_node38"><a xlink:href="../../d2/d03/TransferFunction_8hpp.html" target="_top" xlink:title=" ">
<polygon fill="#ffffff" stroke="#000000" points="1502,-336.5 1502,-355.5 1611,-355.5 1611,-336.5 1502,-336.5"/>
<text text-anchor="middle" x="1556.5" y="-343.5" font-family="Helvetica,sans-Serif" font-size="10.00" fill="#000000">TransferFunction.hpp</text>
</a>
</g>
</g>
<!-- Node1&#45;&gt;Node38 -->
<g id="edge54" class="edge">
<title>Node1&#45;&gt;Node38</title>
<path fill="none" stroke="#191970" d="M1527.8416,-384.2112C1534.9396,-374.7472 1543.3903,-363.4797 1549.268,-355.6427"/>
<polygon fill="#191970" stroke="#191970" points="1525.0159,-382.1455 1521.8158,-392.2455 1530.6159,-386.3455 1525.0159,-382.1455"/>
</g>
<!-- Node3 -->
<g id="node3" class="node">
<title>Node3</title>
<g id="a_node3"><a xlink:href="../../d2/d05/StaticSizeExtendedIOElement_8hpp.html" target="_top" xlink:title=" ">
<polygon fill="#ffffff" stroke="#000000" points="1201.5,-168.5 1201.5,-187.5 1369.5,-187.5 1369.5,-168.5 1201.5,-168.5"/>
<text text-anchor="middle" x="1285.5" y="-175.5" font-family="Helvetica,sans-Serif" font-size="10.00" fill="#000000">StaticSizeExtendedIOElement.hpp</text>
</a>
</g>
</g>
<!-- Node2&#45;&gt;Node3 -->
<g id="edge2" class="edge">
<title>Node2&#45;&gt;Node3</title>
<path fill="none" stroke="#191970" d="M1349.2129,-271.8927C1332.8846,-247.8299 1304.6258,-206.1853 1291.9633,-187.5249"/>
<polygon fill="#191970" stroke="#191970" points="1346.5091,-274.1414 1355.0203,-280.4509 1352.3014,-270.2109 1346.5091,-274.1414"/>
</g>
<!-- Node12 -->
<g id="node12" class="node">
<title>Node12</title>
<g id="a_node12"><a xlink:href="../../df/ddc/SOSFilter_8hpp.html" target="_top" xlink:title=" ">
<polygon fill="#ffffff" stroke="#000000" points="1465.5,-224.5 1465.5,-243.5 1543.5,-243.5 1543.5,-224.5 1465.5,-224.5"/>
<text text-anchor="middle" x="1504.5" y="-231.5" font-family="Helvetica,sans-Serif" font-size="10.00" fill="#000000">SOSFilter.hpp</text>
</a>
</g>
</g>
<!-- Node2&#45;&gt;Node12 -->
<g id="edge14" class="edge">
<title>Node2&#45;&gt;Node12</title>
<path fill="none" stroke="#191970" d="M1395.5798,-276.6541C1421.6573,-266.4419 1456.9815,-252.6086 1480.2382,-243.5011"/>
<polygon fill="#191970" stroke="#191970" points="1394.1178,-273.4677 1386.0826,-280.3733 1396.6703,-279.9858 1394.1178,-273.4677"/>
</g>
<!-- Node3&#45;&gt;Node4 -->
<g id="edge3" class="edge">
<title>Node3&#45;&gt;Node4</title>
<path fill="none" stroke="#191970" d="M1313.8263,-163.8368C1334.0721,-153.7139 1360.7642,-140.3679 1378.4978,-131.5011"/>
<polygon fill="#191970" stroke="#191970" points="1312.1325,-160.7706 1304.7535,-168.3733 1315.263,-167.0316 1312.1325,-160.7706"/>
</g>
<!-- Node5 -->
<g id="node5" class="node">
<title>Node5</title>
<g id="a_node5"><a xlink:href="../../d2/d25/MAX7219_8hpp.html" target="_top" xlink:title=" ">
<polygon fill="#ffffff" stroke="#000000" points="1046.5,-112.5 1046.5,-131.5 1124.5,-131.5 1124.5,-112.5 1046.5,-112.5"/>
<text text-anchor="middle" x="1085.5" y="-119.5" font-family="Helvetica,sans-Serif" font-size="10.00" fill="#000000">MAX7219.hpp</text>
</a>
</g>
</g>
<!-- Node3&#45;&gt;Node5 -->
<g id="edge4" class="edge">
<title>Node3&#45;&gt;Node5</title>
<path fill="none" stroke="#191970" d="M1241.1722,-165.5882C1204.427,-155.2996 1152.9625,-140.8895 1119.4326,-131.5011"/>
<polygon fill="#191970" stroke="#191970" points="1240.5454,-169.0473 1251.1188,-168.3733 1242.4329,-162.3065 1240.5454,-169.0473"/>
</g>
<!-- Node6 -->
<g id="node6" class="node">
<title>Node6</title>
<g id="a_node6"><a xlink:href="../../d8/d93/ShiftRegisterOutBase_8hpp.html" target="_top" xlink:title=" ">
<polygon fill="#ffffff" stroke="#000000" points="548,-112.5 548,-131.5 679,-131.5 679,-112.5 548,-112.5"/>
<text text-anchor="middle" x="613.5" y="-119.5" font-family="Helvetica,sans-Serif" font-size="10.00" fill="#000000">ShiftRegisterOutBase.hpp</text>
</a>
</g>
</g>
<!-- Node3&#45;&gt;Node6 -->
<g id="edge5" class="edge">
<title>Node3&#45;&gt;Node6</title>
<path fill="none" stroke="#191970" d="M1191.8066,-168.0285C1191.7043,-168.019 1191.6021,-168.0095 1191.5,-168 1006.0703,-150.7611 786.7943,-134.4151 679.4279,-126.6742"/>
<polygon fill="#191970" stroke="#191970" points="1191.1773,-171.4843 1201.4641,-168.9482 1191.8409,-164.5159 1191.1773,-171.4843"/>
</g>
<!-- Node7 -->
<g id="node7" class="node">
<title>Node7</title>
<g id="a_node7"><a xlink:href="../../d0/db4/ShiftRegisterOut_8hpp.html" target="_top" xlink:title=" ">
<polygon fill="#ffffff" stroke="#000000" points="427.5,-56.5 427.5,-75.5 535.5,-75.5 535.5,-56.5 427.5,-56.5"/>
<text text-anchor="middle" x="481.5" y="-63.5" font-family="Helvetica,sans-Serif" font-size="10.00" fill="#000000">ShiftRegisterOut.hpp</text>
</a>
</g>
</g>
<!-- Node6&#45;&gt;Node7 -->
<g id="edge6" class="edge">
<title>Node6&#45;&gt;Node7</title>
<path fill="none" stroke="#191970" d="M581.4035,-108.3833C557.3965,-98.1985 525.1741,-84.5284 503.8955,-75.5011"/>
<polygon fill="#191970" stroke="#191970" points="580.2356,-111.6897 590.8084,-112.3733 582.9695,-105.2457 580.2356,-111.6897"/>
</g>
<!-- Node9 -->
<g id="node9" class="node">
<title>Node9</title>
<g id="a_node9"><a xlink:href="../../d5/d47/ShiftRegisterOutBase_8ipp.html" target="_top" xlink:title=" ">
<polygon fill="#ffffff" stroke="#000000" points="281.5,-56.5 281.5,-75.5 409.5,-75.5 409.5,-56.5 281.5,-56.5"/>
<text text-anchor="middle" x="345.5" y="-63.5" font-family="Helvetica,sans-Serif" font-size="10.00" fill="#000000">ShiftRegisterOutBase.ipp</text>
</a>
</g>
</g>
<!-- Node6&#45;&gt;Node9 -->
<g id="edge9" class="edge">
<title>Node6&#45;&gt;Node9</title>
<path fill="none" stroke="#191970" d="M552.5745,-110.4366C501.5026,-100.1127 430.1307,-85.1738 385.8558,-75.5237"/>
<polygon fill="#191970" stroke="#191970" points="552.0099,-113.8931 562.5041,-112.4369 553.3923,-107.0309 552.0099,-113.8931"/>
</g>
<!-- Node10 -->
<g id="node10" class="node">
<title>Node10</title>
<g id="a_node10"><a xlink:href="../../d7/d88/SPIShiftRegisterOut_8hpp.html" target="_top" xlink:title=" ">
<polygon fill="#ffffff" stroke="#000000" points="554,-56.5 554,-75.5 679,-75.5 679,-56.5 554,-56.5"/>
<text text-anchor="middle" x="616.5" y="-63.5" font-family="Helvetica,sans-Serif" font-size="10.00" fill="#000000">SPIShiftRegisterOut.hpp</text>
</a>
</g>
</g>
<!-- Node6&#45;&gt;Node10 -->
<g id="edge11" class="edge">
<title>Node6&#45;&gt;Node10</title>
<path fill="none" stroke="#191970" d="M614.563,-102.1575C615.0453,-93.155 615.5936,-82.9199 615.9834,-75.6427"/>
<polygon fill="#191970" stroke="#191970" points="611.0626,-102.0726 614.0226,-112.2455 618.0526,-102.4471 611.0626,-102.0726"/>
</g>
<!-- Node8 -->
<g id="node8" class="node">
<title>Node8</title>
<g id="a_node8"><a xlink:href="../../de/d95/ShiftRegisterOut_8ipp.html" target="_top" xlink:title=" ">
<polygon fill="#ffffff" stroke="#000000" points="429,-.5 429,-19.5 534,-19.5 534,-.5 429,-.5"/>
<text text-anchor="middle" x="481.5" y="-7.5" font-family="Helvetica,sans-Serif" font-size="10.00" fill="#000000">ShiftRegisterOut.ipp</text>
</a>
</g>
</g>
<!-- Node7&#45;&gt;Node8 -->
<g id="edge7" class="edge">
<title>Node7&#45;&gt;Node8</title>
<path fill="none" stroke="#191970" d="M475.0113,-46.1575C474.419,-37.155 474.8335,-26.9199 476.2549,-19.6427"/>
<polygon fill="#191970" stroke="#191970" points="471.5561,-46.739 476.2332,-56.2455 478.5053,-45.8972 471.5561,-46.739"/>
</g>
<!-- Node8&#45;&gt;Node7 -->
<g id="edge8" class="edge">
<title>Node8&#45;&gt;Node7</title>
<path fill="none" stroke="#191970" d="M487.9795,-29.7046C488.5821,-38.6944 488.1779,-48.9382 486.7668,-56.2455"/>
<polygon fill="#191970" stroke="#191970" points="491.4368,-29.1421 486.7451,-19.6427 484.4889,-29.9945 491.4368,-29.1421"/>
</g>
<!-- Node9&#45;&gt;Node6 -->
<g id="edge10" class="edge">
<title>Node9&#45;&gt;Node6</title>
<path fill="none" stroke="#191970" d="M406.2171,-77.5213C457.2336,-87.8326 528.6147,-102.7724 572.9632,-112.4369"/>
<polygon fill="#191970" stroke="#191970" points="406.7936,-74.0672 396.2993,-75.5237 405.4113,-80.9294 406.7936,-74.0672"/>
</g>
<!-- Node11 -->
<g id="node11" class="node">
<title>Node11</title>
<g id="a_node11"><a xlink:href="../../da/d45/SPIShiftRegisterOut_8ipp.html" target="_top" xlink:title=" ">
<polygon fill="#ffffff" stroke="#000000" points="555.5,-.5 555.5,-19.5 677.5,-19.5 677.5,-.5 555.5,-.5"/>
<text text-anchor="middle" x="616.5" y="-7.5" font-family="Helvetica,sans-Serif" font-size="10.00" fill="#000000">SPIShiftRegisterOut.ipp</text>
</a>
</g>
</g>
<!-- Node10&#45;&gt;Node11 -->
<g id="edge12" class="edge">
<title>Node10&#45;&gt;Node11</title>
<path fill="none" stroke="#191970" d="M610.0113,-46.1575C609.419,-37.155 609.8335,-26.9199 611.2549,-19.6427"/>
<polygon fill="#191970" stroke="#191970" points="606.5561,-46.739 611.2332,-56.2455 613.5053,-45.8972 606.5561,-46.739"/>
</g>
<!-- Node11&#45;&gt;Node10 -->
<g id="edge13" class="edge">
<title>Node11&#45;&gt;Node10</title>
<path fill="none" stroke="#191970" d="M622.9795,-29.7046C623.5821,-38.6944 623.1779,-48.9382 621.7668,-56.2455"/>
<polygon fill="#191970" stroke="#191970" points="626.4368,-29.1421 621.7451,-19.6427 619.4889,-29.9945 626.4368,-29.1421"/>
</g>
<!-- Node13 -->
<g id="node13" class="node">
<title>Node13</title>
<g id="a_node13"><a xlink:href="../../d4/d40/Butterworth_8hpp.html" target="_top" xlink:title=" ">
<polygon fill="#ffffff" stroke="#000000" points="1463.5,-168.5 1463.5,-187.5 1549.5,-187.5 1549.5,-168.5 1463.5,-168.5"/>
<text text-anchor="middle" x="1506.5" y="-175.5" font-family="Helvetica,sans-Serif" font-size="10.00" fill="#000000">Butterworth.hpp</text>
</a>
</g>
</g>
<!-- Node12&#45;&gt;Node13 -->
<g id="edge15" class="edge">
<title>Node12&#45;&gt;Node13</title>
<path fill="none" stroke="#191970" d="M1505.2087,-214.1575C1505.5302,-205.155 1505.8957,-194.9199 1506.1556,-187.6427"/>
<polygon fill="#191970" stroke="#191970" points="1501.7076,-214.127 1504.8484,-224.2455 1508.7032,-214.3769 1501.7076,-214.127"/>
</g>
<!-- Node15 -->
<g id="node15" class="node">
<title>Node15</title>
<g id="a_node15"><a xlink:href="../../d9/d4b/ButtonMatrix_8hpp.html" target="_top" xlink:title=" ">
<polygon fill="#ffffff" stroke="#000000" points="0,-280.5 0,-299.5 91,-299.5 91,-280.5 0,-280.5"/>
<text text-anchor="middle" x="45.5" y="-287.5" font-family="Helvetica,sans-Serif" font-size="10.00" fill="#000000">ButtonMatrix.hpp</text>
</a>
</g>
</g>
<!-- Node14&#45;&gt;Node15 -->
<g id="edge18" class="edge">
<title>Node14&#45;&gt;Node15</title>
<path fill="none" stroke="#191970" d="M511.6262,-339.2511C403.2738,-327.8025 186.0089,-304.8462 91.3448,-294.844"/>
<polygon fill="#191970" stroke="#191970" points="511.4517,-342.752 521.7641,-340.3222 512.1872,-335.7908 511.4517,-342.752"/>
</g>
<!-- Node17 -->
<g id="node17" class="node">
<title>Node17</title>
<g id="a_node17"><a xlink:href="../../dd/ddf/ExtendedInputOutput_8hpp.html" target="_top" xlink:title=" ">
<polygon fill="#ffffff" stroke="#000000" points="511.5,-280.5 511.5,-299.5 639.5,-299.5 639.5,-280.5 511.5,-280.5"/>
<text text-anchor="middle" x="575.5" y="-287.5" font-family="Helvetica,sans-Serif" font-size="10.00" fill="#000000">ExtendedInputOutput.hpp</text>
</a>
</g>
</g>
<!-- Node14&#45;&gt;Node17 -->
<g id="edge21" class="edge">
<title>Node14&#45;&gt;Node17</title>
<path fill="none" stroke="#191970" d="M575.5,-326.1575C575.5,-317.155 575.5,-306.9199 575.5,-299.6427"/>
<polygon fill="#191970" stroke="#191970" points="572.0001,-326.2455 575.5,-336.2455 579.0001,-326.2456 572.0001,-326.2455"/>
</g>
<!-- Node24 -->
<g id="node24" class="node">
<title>Node24</title>
<g id="a_node24"><a xlink:href="../../d4/d57/ExtendedIOElement_8hpp.html" target="_top" xlink:title=" ">
<polygon fill="#ffffff" stroke="#000000" points="916,-224.5 916,-243.5 1039,-243.5 1039,-224.5 916,-224.5"/>
<text text-anchor="middle" x="977.5" y="-231.5" font-family="Helvetica,sans-Serif" font-size="10.00" fill="#000000">ExtendedIOElement.hpp</text>
</a>
</g>
</g>
<!-- Node14&#45;&gt;Node24 -->
<g id="edge46" class="edge">
<title>Node14&#45;&gt;Node24</title>
<path fill="none" stroke="#191970" d="M619.6388,-333.7026C700.4521,-311.1875 870.5558,-263.7954 943.3125,-243.5249"/>
<polygon fill="#191970" stroke="#191970" points="618.468,-330.3954 609.7743,-336.4509 620.3468,-337.1386 618.468,-330.3954"/>
</g>
<!-- Node27 -->
<g id="node27" class="node">
<title>Node27</title>
<g id="a_node27"><a xlink:href="../../d8/df3/FilteredAnalog_8hpp.html" target="_top" xlink:title=" ">
<polygon fill="#ffffff" stroke="#000000" points="107.5,-224.5 107.5,-243.5 205.5,-243.5 205.5,-224.5 107.5,-224.5"/>
<text text-anchor="middle" x="156.5" y="-231.5" font-family="Helvetica,sans-Serif" font-size="10.00" fill="#000000">FilteredAnalog.hpp</text>
</a>
</g>
</g>
<!-- Node14&#45;&gt;Node27 -->
<g id="edge47" class="edge">
<title>Node14&#45;&gt;Node27</title>
<path fill="none" stroke="#191970" d="M530.0081,-333.8399C445.9865,-311.3806 268.1212,-263.8367 192.1333,-243.5249"/>
<polygon fill="#191970" stroke="#191970" points="529.2116,-337.2498 539.7763,-336.4509 531.0193,-330.4872 529.2116,-337.2498"/>
</g>
<!-- Node16 -->
<g id="node16" class="node">
<title>Node16</title>
<g id="a_node16"><a xlink:href="../../d5/d41/ButtonMatrix_8ipp.html" target="_top" xlink:title=" ">
<polygon fill="#ffffff" stroke="#000000" points="1.5,-224.5 1.5,-243.5 89.5,-243.5 89.5,-224.5 1.5,-224.5"/>
<text text-anchor="middle" x="45.5" y="-231.5" font-family="Helvetica,sans-Serif" font-size="10.00" fill="#000000">ButtonMatrix.ipp</text>
</a>
</g>
</g>
<!-- Node15&#45;&gt;Node16 -->
<g id="edge19" class="edge">
<title>Node15&#45;&gt;Node16</title>
<path fill="none" stroke="#191970" d="M39.0113,-270.1575C38.419,-261.155 38.8335,-250.9199 40.2549,-243.6427"/>
<polygon fill="#191970" stroke="#191970" points="35.5561,-270.739 40.2332,-280.2455 42.5053,-269.8972 35.5561,-270.739"/>
</g>
<!-- Node16&#45;&gt;Node15 -->
<g id="edge20" class="edge">
<title>Node16&#45;&gt;Node15</title>
<path fill="none" stroke="#191970" d="M51.9795,-253.7046C52.5821,-262.6944 52.1779,-272.9382 50.7668,-280.2455"/>
<polygon fill="#191970" stroke="#191970" points="55.4368,-253.1421 50.7451,-243.6427 48.4889,-253.9945 55.4368,-253.1421"/>
</g>
<!-- Node17&#45;&gt;Node4 -->
<g id="edge29" class="edge">
<title>Node17&#45;&gt;Node4</title>
<path fill="none" stroke="#191970" d="M649.6983,-285.3348C838.2219,-272.8223 1324.5661,-236.1739 1378.5,-188 1394.6849,-173.5436 1397.4601,-146.2839 1397.7122,-131.7323"/>
<polygon fill="#191970" stroke="#191970" points="649.3475,-281.8503 639.5995,-286.0009 649.8082,-288.8351 649.3475,-281.8503"/>
</g>
<!-- Node17&#45;&gt;Node6 -->
<g id="edge35" class="edge">
<title>Node17&#45;&gt;Node6</title>
<path fill="none" stroke="#191970" d="M581.9029,-270.5292C584.4568,-262.3834 587.3051,-252.7847 589.5,-244 599.8606,-202.5334 608.5516,-152.2294 611.9579,-131.5639"/>
<polygon fill="#191970" stroke="#191970" points="578.5193,-269.6187 578.7947,-280.21 585.1842,-271.7586 578.5193,-269.6187"/>
</g>
<!-- Node17&#45;&gt;Node8 -->
<g id="edge37" class="edge">
<title>Node17&#45;&gt;Node8</title>
<path fill="none" stroke="#191970" d="M516.192,-278.2393C480.8363,-270.376 435.4075,-258.7648 396.5,-244 378.2876,-237.0887 376.1592,-229.5937 357.5,-224 286.8384,-202.817 76.7526,-242.9178 27.5,-188 -90.4963,-56.4313 285.819,-21.0759 428.7519,-12.5068"/>
<polygon fill="#191970" stroke="#191970" points="515.8352,-281.7438 526.3517,-280.4578 517.3286,-274.9049 515.8352,-281.7438"/>
</g>
<!-- Node17&#45;&gt;Node9 -->
<g id="edge36" class="edge">
<title>Node17&#45;&gt;Node9</title>
<path fill="none" stroke="#191970" d="M577.0659,-269.9089C578.0781,-244.2395 576.4331,-199.3826 556.5,-168 522.0325,-113.7345 449.7366,-87.5991 399.4361,-75.5415"/>
<polygon fill="#191970" stroke="#191970" points="573.552,-270.0504 576.47,-280.2355 580.5403,-270.4538 573.552,-270.0504"/>
</g>
<!-- Node17&#45;&gt;Node11 -->
<g id="edge38" class="edge">
<title>Node17&#45;&gt;Node11</title>
<path fill="none" stroke="#191970" d="M590.061,-272.4281C618.0715,-238.1864 677.5764,-163.1591 687.5,-132 697.7503,-99.8151 703.6332,-85.6759 687.5,-56 678.0998,-38.709 659.0873,-26.9161 643.101,-19.603"/>
<polygon fill="#191970" stroke="#191970" points="587.3155,-270.2563 583.6676,-280.2033 592.7224,-274.7022 587.3155,-270.2563"/>
</g>
<!-- Node17&#45;&gt;Node16 -->
<g id="edge28" class="edge">
<title>Node17&#45;&gt;Node16</title>
<path fill="none" stroke="#191970" d="M501.2608,-284.9291C407.2328,-278.0276 240.3569,-264.1807 98.5,-244 95.6262,-243.5912 92.6712,-243.1347 89.6968,-242.6482"/>
<polygon fill="#191970" stroke="#191970" points="501.0165,-288.4205 511.2442,-285.6559 501.5247,-281.439 501.0165,-288.4205"/>
</g>
<!-- Node18 -->
<g id="node18" class="node">
<title>Node18</title>
<g id="a_node18"><a xlink:href="../../d4/db3/Button_8hpp.html" target="_top" xlink:title=" ">
<polygon fill="#ffffff" stroke="#000000" points="483.5,-224.5 483.5,-243.5 547.5,-243.5 547.5,-224.5 483.5,-224.5"/>
<text text-anchor="middle" x="515.5" y="-231.5" font-family="Helvetica,sans-Serif" font-size="10.00" fill="#000000">Button.hpp</text>
</a>
</g>
</g>
<!-- Node17&#45;&gt;Node18 -->
<g id="edge22" class="edge">
<title>Node17&#45;&gt;Node18</title>
<path fill="none" stroke="#191970" d="M557.6722,-273.3607C547.2922,-263.6727 534.5709,-251.7995 525.8314,-243.6427"/>
<polygon fill="#191970" stroke="#191970" points="555.3501,-275.981 565.0488,-280.2455 560.1263,-270.8636 555.3501,-275.981"/>
</g>
<!-- Node17&#45;&gt;Node24 -->
<g id="edge30" class="edge">
<title>Node17&#45;&gt;Node24</title>
<path fill="none" stroke="#191970" d="M649.6963,-279.6642C726.2593,-268.9987 844.3124,-252.5535 915.8947,-242.5818"/>
<polygon fill="#191970" stroke="#191970" points="649.064,-276.2184 639.6426,-281.0647 650.0299,-283.1514 649.064,-276.2184"/>
</g>
<!-- Node25 -->
<g id="node25" class="node">
<title>Node25</title>
<g id="a_node25"><a xlink:href="../../d6/d3c/ExtendedInputOutput_8cpp.html" target="_top" xlink:title=" ">
<polygon fill="#ffffff" stroke="#000000" points="913.5,-168.5 913.5,-187.5 1041.5,-187.5 1041.5,-168.5 913.5,-168.5"/>
<text text-anchor="middle" x="977.5" y="-175.5" font-family="Helvetica,sans-Serif" font-size="10.00" fill="#000000">ExtendedInputOutput.cpp</text>
</a>
</g>
</g>
<!-- Node17&#45;&gt;Node25 -->
<g id="edge34" class="edge">
<title>Node17&#45;&gt;Node25</title>
<path fill="none" stroke="#191970" d="M649.7142,-281.4717C701.211,-274.3818 770.9757,-262.4286 830.5,-244 879.1371,-228.9421 932.9168,-201.9361 959.9443,-187.5815"/>
<polygon fill="#191970" stroke="#191970" points="649.1099,-278.0214 639.6668,-282.8253 650.0446,-284.9587 649.1099,-278.0214"/>
</g>
<!-- Node17&#45;&gt;Node27 -->
<g id="edge39" class="edge">
<title>Node17&#45;&gt;Node27</title>
<path fill="none" stroke="#191970" d="M501.4494,-281.5299C428.3832,-272.9449 313.5621,-258.8439 214.5,-244 211.5695,-243.5609 208.5586,-243.0929 205.5232,-242.6083"/>
<polygon fill="#191970" stroke="#191970" points="501.137,-285.0171 511.4762,-282.7041 501.9513,-278.0646 501.137,-285.0171"/>
</g>
<!-- Node28 -->
<g id="node28" class="node">
<title>Node28</title>
<g id="a_node28"><a xlink:href="../../d9/d4f/LEDs_8hpp.html" target="_top" xlink:title=" ">
<polygon fill="#ffffff" stroke="#000000" points="405.5,-224.5 405.5,-243.5 465.5,-243.5 465.5,-224.5 405.5,-224.5"/>
<text text-anchor="middle" x="435.5" y="-231.5" font-family="Helvetica,sans-Serif" font-size="10.00" fill="#000000">LEDs.hpp</text>
</a>
</g>
</g>
<!-- Node17&#45;&gt;Node28 -->
<g id="edge40" class="edge">
<title>Node17&#45;&gt;Node28</title>
<path fill="none" stroke="#191970" d="M542.1351,-276.6541C516.6048,-266.4419 482.0216,-252.6086 459.2528,-243.5011"/>
<polygon fill="#191970" stroke="#191970" points="540.8485,-279.909 551.4331,-280.3733 543.4483,-273.4096 540.8485,-279.909"/>
</g>
<!-- Node30 -->
<g id="node30" class="node">
<title>Node30</title>
<g id="a_node30"><a xlink:href="../../d7/d13/MAX7219__Base_8hpp.html" target="_top" xlink:title=" ">
<polygon fill="#ffffff" stroke="#000000" points="715.5,-224.5 715.5,-243.5 821.5,-243.5 821.5,-224.5 715.5,-224.5"/>
<text text-anchor="middle" x="768.5" y="-231.5" font-family="Helvetica,sans-Serif" font-size="10.00" fill="#000000">MAX7219_Base.hpp</text>
</a>
</g>
</g>
<!-- Node17&#45;&gt;Node30 -->
<g id="edge42" class="edge">
<title>Node17&#45;&gt;Node30</title>
<path fill="none" stroke="#191970" d="M618.7317,-277.4561C654.1596,-267.1765 703.537,-252.8494 735.7551,-243.5011"/>
<polygon fill="#191970" stroke="#191970" points="617.3064,-274.2252 608.6779,-280.3733 619.2571,-280.9479 617.3064,-274.2252"/>
</g>
<!-- Node32 -->
<g id="node32" class="node">
<title>Node32</title>
<g id="a_node32"><a xlink:href="../../d8/dd2/MCP23017Encoders_8hpp.html" target="_top" xlink:title=" ">
<polygon fill="#ffffff" stroke="#000000" points="224,-224.5 224,-243.5 349,-243.5 349,-224.5 224,-224.5"/>
<text text-anchor="middle" x="286.5" y="-231.5" font-family="Helvetica,sans-Serif" font-size="10.00" fill="#000000">MCP23017Encoders.hpp</text>
</a>
</g>
</g>
<!-- Node17&#45;&gt;Node32 -->
<g id="edge45" class="edge">
<title>Node17&#45;&gt;Node32</title>
<path fill="none" stroke="#191970" d="M516.1572,-278.501C462.8673,-268.175 385.5542,-253.1939 335.6489,-243.5237"/>
<polygon fill="#191970" stroke="#191970" points="515.6643,-281.9706 526.1475,-280.4369 516.996,-275.0984 515.6643,-281.9706"/>
</g>
<!-- Node19 -->
<g id="node19" class="node">
<title>Node19</title>
<g id="a_node19"><a xlink:href="../../de/dd1/Button_8cpp.html" target="_top" xlink:title=" ">
<polygon fill="#ffffff" stroke="#000000" points="483.5,-168.5 483.5,-187.5 547.5,-187.5 547.5,-168.5 483.5,-168.5"/>
<text text-anchor="middle" x="515.5" y="-175.5" font-family="Helvetica,sans-Serif" font-size="10.00" fill="#000000">Button.cpp</text>
</a>
</g>
</g>
<!-- Node18&#45;&gt;Node19 -->
<g id="edge23" class="edge">
<title>Node18&#45;&gt;Node19</title>
<path fill="none" stroke="#191970" d="M515.5,-214.1575C515.5,-205.155 515.5,-194.9199 515.5,-187.6427"/>
<polygon fill="#191970" stroke="#191970" points="512.0001,-214.2455 515.5,-224.2455 519.0001,-214.2456 512.0001,-214.2455"/>
</g>
<!-- Node20 -->
<g id="node20" class="node">
<title>Node20</title>
<g id="a_node20"><a xlink:href="../../d5/d04/IncrementButton_8hpp.html" target="_top" xlink:title=" ">
<polygon fill="#ffffff" stroke="#000000" points="358,-168.5 358,-187.5 465,-187.5 465,-168.5 358,-168.5"/>
<text text-anchor="middle" x="411.5" y="-175.5" font-family="Helvetica,sans-Serif" font-size="10.00" fill="#000000">IncrementButton.hpp</text>
</a>
</g>
</g>
<!-- Node18&#45;&gt;Node20 -->
<g id="edge24" class="edge">
<title>Node18&#45;&gt;Node20</title>
<path fill="none" stroke="#191970" d="M488.4971,-219.46C469.8864,-209.4388 445.6701,-196.3993 429.4078,-187.6427"/>
<polygon fill="#191970" stroke="#191970" points="486.9205,-222.5861 497.3846,-224.2455 490.2392,-216.4228 486.9205,-222.5861"/>
</g>
<!-- Node22 -->
<g id="node22" class="node">
<title>Node22</title>
<g id="a_node22"><a xlink:href="../../df/df5/IncrementDecrementButtons_8hpp.html" target="_top" xlink:title=" ">
<polygon fill="#ffffff" stroke="#000000" points="179,-168.5 179,-187.5 340,-187.5 340,-168.5 179,-168.5"/>
<text text-anchor="middle" x="259.5" y="-175.5" font-family="Helvetica,sans-Serif" font-size="10.00" fill="#000000">IncrementDecrementButtons.hpp</text>
</a>
</g>
</g>
<!-- Node18&#45;&gt;Node22 -->
<g id="edge26" class="edge">
<title>Node18&#45;&gt;Node22</title>
<path fill="none" stroke="#191970" d="M473.5291,-223.8209C410.1628,-209.3896 347.615,-196.1881 306.1377,-187.579"/>
<polygon fill="#191970" stroke="#191970" points="472.763,-227.2359 483.2915,-226.0526 474.3231,-220.412 472.763,-227.2359"/>
</g>
<!-- Node21 -->
<g id="node21" class="node">
<title>Node21</title>
<g id="a_node21"><a xlink:href="../../db/d9d/IncrementButton_8cpp.html" target="_top" xlink:title=" ">
<polygon fill="#ffffff" stroke="#000000" points="358,-112.5 358,-131.5 465,-131.5 465,-112.5 358,-112.5"/>
<text text-anchor="middle" x="411.5" y="-119.5" font-family="Helvetica,sans-Serif" font-size="10.00" fill="#000000">IncrementButton.cpp</text>
</a>
</g>
</g>
<!-- Node20&#45;&gt;Node21 -->
<g id="edge25" class="edge">
<title>Node20&#45;&gt;Node21</title>
<path fill="none" stroke="#191970" d="M411.5,-158.1575C411.5,-149.155 411.5,-138.9199 411.5,-131.6427"/>
<polygon fill="#191970" stroke="#191970" points="408.0001,-158.2455 411.5,-168.2455 415.0001,-158.2456 408.0001,-158.2455"/>
</g>
<!-- Node23 -->
<g id="node23" class="node">
<title>Node23</title>
<g id="a_node23"><a xlink:href="../../da/d66/IncrementDecrementButtons_8cpp.html" target="_top" xlink:title=" ">
<polygon fill="#ffffff" stroke="#000000" points="179,-112.5 179,-131.5 340,-131.5 340,-112.5 179,-112.5"/>
<text text-anchor="middle" x="259.5" y="-119.5" font-family="Helvetica,sans-Serif" font-size="10.00" fill="#000000">IncrementDecrementButtons.cpp</text>
</a>
</g>
</g>
<!-- Node22&#45;&gt;Node23 -->
<g id="edge27" class="edge">
<title>Node22&#45;&gt;Node23</title>
<path fill="none" stroke="#191970" d="M259.5,-158.1575C259.5,-149.155 259.5,-138.9199 259.5,-131.6427"/>
<polygon fill="#191970" stroke="#191970" points="256.0001,-158.2455 259.5,-168.2455 263.0001,-158.2456 256.0001,-158.2455"/>
</g>
<!-- Node24&#45;&gt;Node3 -->
<g id="edge31" class="edge">
<title>Node24&#45;&gt;Node3</title>
<path fill="none" stroke="#191970" d="M1040.0371,-222.6296C1096.8519,-212.2997 1179.7124,-197.2341 1233.1198,-187.5237"/>
<polygon fill="#191970" stroke="#191970" points="1039.3097,-219.2044 1030.0971,-224.4369 1040.562,-226.0915 1039.3097,-219.2044"/>
</g>
<!-- Node24&#45;&gt;Node25 -->
<g id="edge32" class="edge">
<title>Node24&#45;&gt;Node25</title>
<path fill="none" stroke="#191970" d="M977.5,-214.1575C977.5,-205.155 977.5,-194.9199 977.5,-187.6427"/>
<polygon fill="#191970" stroke="#191970" points="974.0001,-214.2455 977.5,-224.2455 981.0001,-214.2456 974.0001,-214.2455"/>
</g>
<!-- Node26 -->
<g id="node26" class="node">
<title>Node26</title>
<g id="a_node26"><a xlink:href="../../da/d1f/ExtendedIOElement_8cpp.html" target="_top" xlink:title=" ">
<polygon fill="#ffffff" stroke="#000000" points="1060,-168.5 1060,-187.5 1183,-187.5 1183,-168.5 1060,-168.5"/>
<text text-anchor="middle" x="1121.5" y="-175.5" font-family="Helvetica,sans-Serif" font-size="10.00" fill="#000000">ExtendedIOElement.cpp</text>
</a>
</g>
</g>
<!-- Node24&#45;&gt;Node26 -->
<g id="edge33" class="edge">
<title>Node24&#45;&gt;Node26</title>
<path fill="none" stroke="#191970" d="M1011.8182,-220.6541C1038.078,-210.4419 1073.6492,-196.6086 1097.0685,-187.5011"/>
<polygon fill="#191970" stroke="#191970" points="1010.306,-217.4867 1002.2545,-224.3733 1012.8431,-224.0108 1010.306,-217.4867"/>
</g>
<!-- Node29 -->
<g id="node29" class="node">
<title>Node29</title>
<g id="a_node29"><a xlink:href="../../d6/d3a/DotBarDisplayLEDs_8hpp.html" target="_top" xlink:title=" ">
<polygon fill="#ffffff" stroke="#000000" points="36.5,-168.5 36.5,-187.5 160.5,-187.5 160.5,-168.5 36.5,-168.5"/>
<text text-anchor="middle" x="98.5" y="-175.5" font-family="Helvetica,sans-Serif" font-size="10.00" fill="#000000">DotBarDisplayLEDs.hpp</text>
</a>
</g>
</g>
<!-- Node28&#45;&gt;Node29 -->
<g id="edge41" class="edge">
<title>Node28&#45;&gt;Node29</title>
<path fill="none" stroke="#191970" d="M395.3136,-224.75C394.0287,-224.4916 392.755,-224.2408 391.5,-224 348.4537,-215.7391 233.0752,-198.1211 160.6103,-187.2453"/>
<polygon fill="#191970" stroke="#191970" points="394.7534,-228.2087 405.26,-226.8441 396.1956,-221.3589 394.7534,-228.2087"/>
</g>
<!-- Node30&#45;&gt;Node5 -->
<g id="edge43" class="edge">
<title>Node30&#45;&gt;Node5</title>
<path fill="none" stroke="#191970" d="M798.9327,-220.1497C818.3681,-211.1975 844.0434,-199.1728 866.5,-188 883.5872,-179.4986 886.6835,-174.8423 904.5,-168 951.8682,-149.8085 1008.9651,-136.6677 1046.1933,-129.201"/>
<polygon fill="#191970" stroke="#191970" points="797.29,-217.0525 789.6617,-224.4051 800.2102,-223.4144 797.29,-217.0525"/>
</g>
<!-- Node31 -->
<g id="node31" class="node">
<title>Node31</title>
<g id="a_node31"><a xlink:href="../../d5/d0c/MAX7219SevenSegmentDisplay_8hpp.html" target="_top" xlink:title=" ">
<polygon fill="#ffffff" stroke="#000000" points="679.5,-168.5 679.5,-187.5 857.5,-187.5 857.5,-168.5 679.5,-168.5"/>
<text text-anchor="middle" x="768.5" y="-175.5" font-family="Helvetica,sans-Serif" font-size="10.00" fill="#000000">MAX7219SevenSegmentDisplay.hpp</text>
</a>
</g>
</g>
<!-- Node30&#45;&gt;Node31 -->
<g id="edge44" class="edge">
<title>Node30&#45;&gt;Node31</title>
<path fill="none" stroke="#191970" d="M768.5,-214.1575C768.5,-205.155 768.5,-194.9199 768.5,-187.6427"/>
<polygon fill="#191970" stroke="#191970" points="765.0001,-214.2455 768.5,-224.2455 772.0001,-214.2456 765.0001,-214.2455"/>
</g>
<!-- Node33&#45;&gt;Node12 -->
<g id="edge49" class="edge">
<title>Node33&#45;&gt;Node12</title>
<path fill="none" stroke="#191970" d="M1504.5,-270.1575C1504.5,-261.155 1504.5,-250.9199 1504.5,-243.6427"/>
<polygon fill="#191970" stroke="#191970" points="1501.0001,-270.2455 1504.5,-280.2455 1508.0001,-270.2456 1501.0001,-270.2455"/>
</g>
<!-- Node35 -->
<g id="node35" class="node">
<title>Node35</title>
<g id="a_node35"><a xlink:href="../../df/da1/Notch_8hpp.html" target="_top" xlink:title=" ">
<polygon fill="#ffffff" stroke="#000000" points="1673.5,-280.5 1673.5,-299.5 1735.5,-299.5 1735.5,-280.5 1673.5,-280.5"/>
<text text-anchor="middle" x="1704.5" y="-287.5" font-family="Helvetica,sans-Serif" font-size="10.00" fill="#000000">Notch.hpp</text>
</a>
</g>
</g>
<!-- Node34&#45;&gt;Node35 -->
<g id="edge51" class="edge">
<title>Node34&#45;&gt;Node35</title>
<path fill="none" stroke="#191970" d="M1704.5,-326.1575C1704.5,-317.155 1704.5,-306.9199 1704.5,-299.6427"/>
<polygon fill="#191970" stroke="#191970" points="1701.0001,-326.2455 1704.5,-336.2455 1708.0001,-326.2456 1701.0001,-326.2455"/>
</g>
<!-- Node38&#45;&gt;Node33 -->
<g id="edge55" class="edge">
<title>Node38&#45;&gt;Node33</title>
<path fill="none" stroke="#191970" d="M1540.5178,-328.7884C1531.6222,-319.2085 1520.8796,-307.6396 1513.4539,-299.6427"/>
<polygon fill="#191970" stroke="#191970" points="1538.073,-331.2992 1547.4423,-336.2455 1543.2025,-326.536 1538.073,-331.2992"/>
</g>
<!-- Node38&#45;&gt;Node36 -->
<g id="edge56" class="edge">
<title>Node38&#45;&gt;Node36</title>
<path fill="none" stroke="#191970" d="M1572.1247,-328.5004C1580.6273,-318.9775 1590.8218,-307.5596 1597.8905,-299.6427"/>
<polygon fill="#191970" stroke="#191970" points="1569.2587,-326.4551 1565.2093,-336.2455 1574.4803,-331.1172 1569.2587,-326.4551"/>
</g>
</g>
</svg>
