<?xml version="1.0" encoding="UTF-8" standalone="no"?>
<!DOCTYPE svg PUBLIC "-//W3C//DTD SVG 1.1//EN"
 "http://www.w3.org/Graphics/SVG/1.1/DTD/svg11.dtd">
<!-- Generated by graphviz version 2.43.0 (0)
 -->
<!-- Title: Array.hpp Pages: 1 -->
<svg width="2015pt" height="476pt"
 viewBox="0.00 0.00 2015.00 476.00" xmlns="http://www.w3.org/2000/svg" xmlns:xlink="http://www.w3.org/1999/xlink">
<g id="graph0" class="graph" transform="scale(1 1) rotate(0) translate(4 472)">
<title>Array.hpp</title>
<polygon fill="white" stroke="transparent" points="-4,4 -4,-472 2011,-472 2011,4 -4,4"/>
<!-- Node1 -->
<g id="node1" class="node">
<title>Node1</title>
<g id="a_node1"><a xlink:title=" ">
<polygon fill="#bfbfbf" stroke="black" points="291,-448.5 291,-467.5 353,-467.5 353,-448.5 291,-448.5"/>
<text text-anchor="middle" x="322" y="-455.5" font-family="Helvetica,sans-Serif" font-size="10.00">Array.hpp</text>
</a>
</g>
</g>
<!-- Node2 -->
<g id="node2" class="node">
<title>Node2</title>
<g id="a_node2"><a xlink:href="../../d5/db6/ArrayHelpers_8hpp.html" target="_top" xlink:title=" ">
<polygon fill="white" stroke="black" points="275.5,-336.5 275.5,-355.5 376.5,-355.5 376.5,-336.5 275.5,-336.5"/>
<text text-anchor="middle" x="326" y="-343.5" font-family="Helvetica,sans-Serif" font-size="10.00">ArrayHelpers.hpp</text>
</a>
</g>
</g>
<!-- Node1&#45;&gt;Node2 -->
<g id="edge1" class="edge">
<title>Node1&#45;&gt;Node2</title>
<path fill="none" stroke="midnightblue" d="M322.68,-438.35C323.55,-414.25 325.04,-373.31 325.69,-355.59"/>
<polygon fill="midnightblue" stroke="midnightblue" points="319.18,-438.25 322.31,-448.37 326.18,-438.5 319.18,-438.25"/>
</g>
<!-- Node4 -->
<g id="node4" class="node">
<title>Node4</title>
<g id="a_node4"><a xlink:href="../../d7/def/AnalogMultiplex_8hpp.html" target="_top" xlink:title=" ">
<polygon fill="white" stroke="black" points="69.5,-112.5 69.5,-131.5 186.5,-131.5 186.5,-112.5 69.5,-112.5"/>
<text text-anchor="middle" x="128" y="-119.5" font-family="Helvetica,sans-Serif" font-size="10.00">AnalogMultiplex.hpp</text>
</a>
</g>
</g>
<!-- Node1&#45;&gt;Node4 -->
<g id="edge19" class="edge">
<title>Node1&#45;&gt;Node4</title>
<path fill="none" stroke="midnightblue" d="M280.79,-451.75C193.94,-439.53 0,-405.68 0,-347 0,-347 0,-347 0,-233 0,-179.23 65.77,-146.03 103.02,-131.53"/>
<polygon fill="midnightblue" stroke="midnightblue" points="280.45,-455.24 290.83,-453.13 281.4,-448.3 280.45,-455.24"/>
</g>
<!-- Node16 -->
<g id="node16" class="node">
<title>Node16</title>
<g id="a_node16"><a xlink:href="../../d4/d35/Hardware-Types_8hpp.html" target="_top" xlink:title=" ">
<polygon fill="white" stroke="black" points="377,-392.5 377,-411.5 493,-411.5 493,-392.5 377,-392.5"/>
<text text-anchor="middle" x="435" y="-399.5" font-family="Helvetica,sans-Serif" font-size="10.00">Hardware&#45;Types.hpp</text>
</a>
</g>
</g>
<!-- Node1&#45;&gt;Node16 -->
<g id="edge20" class="edge">
<title>Node1&#45;&gt;Node16</title>
<path fill="none" stroke="midnightblue" d="M349,-444.1C370.11,-434.01 398.86,-420.27 417.18,-411.52"/>
<polygon fill="midnightblue" stroke="midnightblue" points="347.42,-440.97 339.91,-448.44 350.44,-447.29 347.42,-440.97"/>
</g>
<!-- Node36 -->
<g id="node36" class="node">
<title>Node36</title>
<g id="a_node36"><a xlink:href="../../d1/dde/BiQuad_8hpp.html" target="_top" xlink:title=" ">
<polygon fill="white" stroke="black" points="184.5,-336.5 184.5,-355.5 257.5,-355.5 257.5,-336.5 184.5,-336.5"/>
<text text-anchor="middle" x="221" y="-343.5" font-family="Helvetica,sans-Serif" font-size="10.00">BiQuad.hpp</text>
</a>
</g>
</g>
<!-- Node1&#45;&gt;Node36 -->
<g id="edge53" class="edge">
<title>Node1&#45;&gt;Node36</title>
<path fill="none" stroke="midnightblue" d="M313.97,-438.84C307.28,-425 296.78,-406 284,-392 270.14,-376.81 250.34,-363.7 236.66,-355.62"/>
<polygon fill="midnightblue" stroke="midnightblue" points="310.95,-440.65 318.33,-448.25 317.31,-437.71 310.95,-440.65"/>
</g>
<!-- Node37 -->
<g id="node37" class="node">
<title>Node37</title>
<g id="a_node37"><a xlink:href="../../d2/d3b/FIRFilter_8hpp.html" target="_top" xlink:title=" ">
<polygon fill="white" stroke="black" points="877.5,-392.5 877.5,-411.5 954.5,-411.5 954.5,-392.5 877.5,-392.5"/>
<text text-anchor="middle" x="916" y="-399.5" font-family="Helvetica,sans-Serif" font-size="10.00">FIRFilter.hpp</text>
</a>
</g>
</g>
<!-- Node1&#45;&gt;Node37 -->
<g id="edge55" class="edge">
<title>Node1&#45;&gt;Node37</title>
<path fill="none" stroke="midnightblue" d="M363.1,-453.26C472.66,-443.3 770.61,-416.22 877.33,-406.52"/>
<polygon fill="midnightblue" stroke="midnightblue" points="362.74,-449.78 353.1,-454.17 363.38,-456.75 362.74,-449.78"/>
</g>
<!-- Node39 -->
<g id="node39" class="node">
<title>Node39</title>
<g id="a_node39"><a xlink:href="../../dc/d64/IIRFilter_8hpp.html" target="_top" xlink:title=" ">
<polygon fill="white" stroke="black" points="92,-336.5 92,-355.5 166,-355.5 166,-336.5 92,-336.5"/>
<text text-anchor="middle" x="129" y="-343.5" font-family="Helvetica,sans-Serif" font-size="10.00">IIRFilter.hpp</text>
</a>
</g>
</g>
<!-- Node1&#45;&gt;Node39 -->
<g id="edge57" class="edge">
<title>Node1&#45;&gt;Node39</title>
<path fill="none" stroke="midnightblue" d="M280.85,-457.36C241.64,-455.45 183.48,-446.39 148,-412 132.3,-396.78 129.38,-369.36 128.96,-355.51"/>
<polygon fill="midnightblue" stroke="midnightblue" points="280.76,-460.86 290.88,-457.72 281.01,-453.87 280.76,-460.86"/>
</g>
<!-- Node40 -->
<g id="node40" class="node">
<title>Node40</title>
<g id="a_node40"><a xlink:href="../../dc/d9c/SMA_8hpp.html" target="_top" xlink:title=" ">
<polygon fill="white" stroke="black" points="511.5,-392.5 511.5,-411.5 570.5,-411.5 570.5,-392.5 511.5,-392.5"/>
<text text-anchor="middle" x="541" y="-399.5" font-family="Helvetica,sans-Serif" font-size="10.00">SMA.hpp</text>
</a>
</g>
</g>
<!-- Node1&#45;&gt;Node40 -->
<g id="edge58" class="edge">
<title>Node1&#45;&gt;Node40</title>
<path fill="none" stroke="midnightblue" d="M363.29,-446.82C406.48,-436.17 473.22,-419.71 511.43,-410.29"/>
<polygon fill="midnightblue" stroke="midnightblue" points="362.25,-443.47 353.38,-449.26 363.92,-450.27 362.25,-443.47"/>
</g>
<!-- Node41 -->
<g id="node41" class="node">
<title>Node41</title>
<g id="a_node41"><a xlink:href="../../d2/d03/TransferFunction_8hpp.html" target="_top" xlink:title=" ">
<polygon fill="white" stroke="black" points="157,-392.5 157,-411.5 275,-411.5 275,-392.5 157,-392.5"/>
<text text-anchor="middle" x="216" y="-399.5" font-family="Helvetica,sans-Serif" font-size="10.00">TransferFunction.hpp</text>
</a>
</g>
</g>
<!-- Node1&#45;&gt;Node41 -->
<g id="edge59" class="edge">
<title>Node1&#45;&gt;Node41</title>
<path fill="none" stroke="midnightblue" d="M295.94,-443.73C276.32,-433.73 249.97,-420.31 232.99,-411.65"/>
<polygon fill="midnightblue" stroke="midnightblue" points="294.47,-446.9 304.97,-448.32 297.65,-440.67 294.47,-446.9"/>
</g>
<!-- Node3 -->
<g id="node3" class="node">
<title>Node3</title>
<g id="a_node3"><a xlink:href="../../d2/d05/StaticSizeExtendedIOElement_8hpp.html" target="_top" xlink:title=" ">
<polygon fill="white" stroke="black" points="276,-168.5 276,-187.5 458,-187.5 458,-168.5 276,-168.5"/>
<text text-anchor="middle" x="367" y="-175.5" font-family="Helvetica,sans-Serif" font-size="10.00">StaticSizeExtendedIOElement.hpp</text>
</a>
</g>
</g>
<!-- Node2&#45;&gt;Node3 -->
<g id="edge2" class="edge">
<title>Node2&#45;&gt;Node3</title>
<path fill="none" stroke="midnightblue" d="M330.71,-325.93C339.6,-289.92 358.55,-213.23 364.88,-187.57"/>
<polygon fill="midnightblue" stroke="midnightblue" points="327.2,-325.53 328.2,-336.08 334,-327.21 327.2,-325.53"/>
</g>
<!-- Node14 -->
<g id="node14" class="node">
<title>Node14</title>
<g id="a_node14"><a xlink:href="../../df/ddc/SOSFilter_8hpp.html" target="_top" xlink:title=" ">
<polygon fill="white" stroke="black" points="180.5,-280.5 180.5,-299.5 261.5,-299.5 261.5,-280.5 180.5,-280.5"/>
<text text-anchor="middle" x="221" y="-287.5" font-family="Helvetica,sans-Serif" font-size="10.00">SOSFilter.hpp</text>
</a>
</g>
</g>
<!-- Node2&#45;&gt;Node14 -->
<g id="edge17" class="edge">
<title>Node2&#45;&gt;Node14</title>
<path fill="none" stroke="midnightblue" d="M300.19,-331.73C280.75,-321.73 254.65,-308.31 237.83,-299.65"/>
<polygon fill="midnightblue" stroke="midnightblue" points="298.64,-334.86 309.13,-336.32 301.84,-328.64 298.64,-334.86"/>
</g>
<!-- Node3&#45;&gt;Node4 -->
<g id="edge3" class="edge">
<title>Node3&#45;&gt;Node4</title>
<path fill="none" stroke="midnightblue" d="M319.28,-166.22C274.11,-156.01 207.23,-140.9 165.69,-131.52"/>
<polygon fill="midnightblue" stroke="midnightblue" points="318.6,-169.65 329.13,-168.44 320.15,-162.83 318.6,-169.65"/>
</g>
<!-- Node5 -->
<g id="node5" class="node">
<title>Node5</title>
<g id="a_node5"><a xlink:href="../../d2/d25/MAX7219_8hpp.html" target="_top" xlink:title=" ">
<polygon fill="white" stroke="black" points="469,-112.5 469,-131.5 553,-131.5 553,-112.5 469,-112.5"/>
<text text-anchor="middle" x="511" y="-119.5" font-family="Helvetica,sans-Serif" font-size="10.00">MAX7219.hpp</text>
</a>
</g>
</g>
<!-- Node3&#45;&gt;Node5 -->
<g id="edge4" class="edge">
<title>Node3&#45;&gt;Node5</title>
<path fill="none" stroke="midnightblue" d="M399.25,-164.91C426.32,-154.75 464.32,-140.51 488.29,-131.52"/>
<polygon fill="midnightblue" stroke="midnightblue" points="397.95,-161.66 389.82,-168.44 400.41,-168.21 397.95,-161.66"/>
</g>
<!-- Node6 -->
<g id="node6" class="node">
<title>Node6</title>
<g id="a_node6"><a xlink:href="../../d7/dca/MCP23017_8hpp.html" target="_top" xlink:title=" ">
<polygon fill="white" stroke="black" points="714.5,-112.5 714.5,-131.5 803.5,-131.5 803.5,-112.5 714.5,-112.5"/>
<text text-anchor="middle" x="759" y="-119.5" font-family="Helvetica,sans-Serif" font-size="10.00">MCP23017.hpp</text>
</a>
</g>
</g>
<!-- Node3&#45;&gt;Node6 -->
<g id="edge5" class="edge">
<title>Node3&#45;&gt;Node6</title>
<path fill="none" stroke="midnightblue" d="M439.16,-167.06C519.58,-155.98 647.09,-138.42 714.25,-129.16"/>
<polygon fill="midnightblue" stroke="midnightblue" points="438.54,-163.61 429.11,-168.44 439.5,-170.55 438.54,-163.61"/>
</g>
<!-- Node8 -->
<g id="node8" class="node">
<title>Node8</title>
<g id="a_node8"><a xlink:href="../../d8/d93/ShiftRegisterOutBase_8hpp.html" target="_top" xlink:title=" ">
<polygon fill="white" stroke="black" points="1569.5,-112.5 1569.5,-131.5 1710.5,-131.5 1710.5,-112.5 1569.5,-112.5"/>
<text text-anchor="middle" x="1640" y="-119.5" font-family="Helvetica,sans-Serif" font-size="10.00">ShiftRegisterOutBase.hpp</text>
</a>
</g>
</g>
<!-- Node3&#45;&gt;Node8 -->
<g id="edge8" class="edge">
<title>Node3&#45;&gt;Node8</title>
<path fill="none" stroke="midnightblue" d="M468.08,-167.97C920.97,-139.88 1036.64,-153.07 1486,-132 1513.29,-130.72 1543.28,-129.03 1569.49,-127.46"/>
<polygon fill="midnightblue" stroke="midnightblue" points="467.77,-164.48 458,-168.6 468.2,-171.47 467.77,-164.48"/>
</g>
<!-- Node7 -->
<g id="node7" class="node">
<title>Node7</title>
<g id="a_node7"><a xlink:href="../../d2/d94/MCP23017_8ipp.html" target="_top" xlink:title=" ">
<polygon fill="white" stroke="black" points="716,-56.5 716,-75.5 802,-75.5 802,-56.5 716,-56.5"/>
<text text-anchor="middle" x="759" y="-63.5" font-family="Helvetica,sans-Serif" font-size="10.00">MCP23017.ipp</text>
</a>
</g>
</g>
<!-- Node6&#45;&gt;Node7 -->
<g id="edge6" class="edge">
<title>Node6&#45;&gt;Node7</title>
<path fill="none" stroke="midnightblue" d="M752.53,-102.1C751.9,-93.14 752.34,-82.86 753.87,-75.75"/>
<polygon fill="midnightblue" stroke="midnightblue" points="749.07,-102.62 753.83,-112.08 756.01,-101.71 749.07,-102.62"/>
</g>
<!-- Node7&#45;&gt;Node6 -->
<g id="edge7" class="edge">
<title>Node7&#45;&gt;Node6</title>
<path fill="none" stroke="midnightblue" d="M765.46,-85.69C766.11,-94.64 765.68,-104.93 764.17,-112.08"/>
<polygon fill="midnightblue" stroke="midnightblue" points="768.92,-85.2 764.13,-75.75 761.98,-86.13 768.92,-85.2"/>
</g>
<!-- Node9 -->
<g id="node9" class="node">
<title>Node9</title>
<g id="a_node9"><a xlink:href="../../d0/db4/ShiftRegisterOut_8hpp.html" target="_top" xlink:title=" ">
<polygon fill="white" stroke="black" points="1569.5,-56.5 1569.5,-75.5 1686.5,-75.5 1686.5,-56.5 1569.5,-56.5"/>
<text text-anchor="middle" x="1628" y="-63.5" font-family="Helvetica,sans-Serif" font-size="10.00">ShiftRegisterOut.hpp</text>
</a>
</g>
</g>
<!-- Node8&#45;&gt;Node9 -->
<g id="edge9" class="edge">
<title>Node8&#45;&gt;Node9</title>
<path fill="none" stroke="midnightblue" d="M1635.8,-102.1C1633.81,-93.14 1631.52,-82.86 1629.94,-75.75"/>
<polygon fill="midnightblue" stroke="midnightblue" points="1632.43,-103.08 1638.02,-112.08 1639.27,-101.56 1632.43,-103.08"/>
</g>
<!-- Node11 -->
<g id="node11" class="node">
<title>Node11</title>
<g id="a_node11"><a xlink:href="../../d5/d47/ShiftRegisterOutBase_8ipp.html" target="_top" xlink:title=" ">
<polygon fill="white" stroke="black" points="1705,-56.5 1705,-75.5 1843,-75.5 1843,-56.5 1705,-56.5"/>
<text text-anchor="middle" x="1774" y="-63.5" font-family="Helvetica,sans-Serif" font-size="10.00">ShiftRegisterOutBase.ipp</text>
</a>
</g>
</g>
<!-- Node8&#45;&gt;Node11 -->
<g id="edge12" class="edge">
<title>Node8&#45;&gt;Node11</title>
<path fill="none" stroke="midnightblue" d="M1665.53,-108.37C1689.17,-98.26 1723.92,-84.35 1747.79,-75.52"/>
<polygon fill="midnightblue" stroke="midnightblue" points="1663.92,-105.25 1656.14,-112.44 1666.71,-111.67 1663.92,-105.25"/>
</g>
<!-- Node12 -->
<g id="node12" class="node">
<title>Node12</title>
<g id="a_node12"><a xlink:href="../../d7/d88/SPIShiftRegisterOut_8hpp.html" target="_top" xlink:title=" ">
<polygon fill="white" stroke="black" points="1419,-56.5 1419,-75.5 1551,-75.5 1551,-56.5 1419,-56.5"/>
<text text-anchor="middle" x="1485" y="-63.5" font-family="Helvetica,sans-Serif" font-size="10.00">SPIShiftRegisterOut.hpp</text>
</a>
</g>
</g>
<!-- Node8&#45;&gt;Node12 -->
<g id="edge14" class="edge">
<title>Node8&#45;&gt;Node12</title>
<path fill="none" stroke="midnightblue" d="M1605.67,-109.04C1576.5,-98.88 1535.36,-84.55 1509.45,-75.52"/>
<polygon fill="midnightblue" stroke="midnightblue" points="1604.84,-112.46 1615.44,-112.44 1607.15,-105.85 1604.84,-112.46"/>
</g>
<!-- Node10 -->
<g id="node10" class="node">
<title>Node10</title>
<g id="a_node10"><a xlink:href="../../de/d95/ShiftRegisterOut_8ipp.html" target="_top" xlink:title=" ">
<polygon fill="white" stroke="black" points="1571,-0.5 1571,-19.5 1685,-19.5 1685,-0.5 1571,-0.5"/>
<text text-anchor="middle" x="1628" y="-7.5" font-family="Helvetica,sans-Serif" font-size="10.00">ShiftRegisterOut.ipp</text>
</a>
</g>
</g>
<!-- Node9&#45;&gt;Node10 -->
<g id="edge10" class="edge">
<title>Node9&#45;&gt;Node10</title>
<path fill="none" stroke="midnightblue" d="M1621.53,-46.1C1620.9,-37.14 1621.34,-26.86 1622.87,-19.75"/>
<polygon fill="midnightblue" stroke="midnightblue" points="1618.07,-46.62 1622.83,-56.08 1625.01,-45.71 1618.07,-46.62"/>
</g>
<!-- Node10&#45;&gt;Node9 -->
<g id="edge11" class="edge">
<title>Node10&#45;&gt;Node9</title>
<path fill="none" stroke="midnightblue" d="M1634.46,-29.69C1635.11,-38.64 1634.68,-48.93 1633.17,-56.08"/>
<polygon fill="midnightblue" stroke="midnightblue" points="1637.92,-29.2 1633.13,-19.75 1630.98,-30.13 1637.92,-29.2"/>
</g>
<!-- Node11&#45;&gt;Node8 -->
<g id="edge13" class="edge">
<title>Node11&#45;&gt;Node8</title>
<path fill="none" stroke="midnightblue" d="M1748.58,-79.59C1724.97,-89.69 1690.22,-103.6 1666.32,-112.44"/>
<polygon fill="midnightblue" stroke="midnightblue" points="1750.17,-82.71 1757.95,-75.52 1747.38,-76.29 1750.17,-82.71"/>
</g>
<!-- Node13 -->
<g id="node13" class="node">
<title>Node13</title>
<g id="a_node13"><a xlink:href="../../da/d45/SPIShiftRegisterOut_8ipp.html" target="_top" xlink:title=" ">
<polygon fill="white" stroke="black" points="1420.5,-0.5 1420.5,-19.5 1549.5,-19.5 1549.5,-0.5 1420.5,-0.5"/>
<text text-anchor="middle" x="1485" y="-7.5" font-family="Helvetica,sans-Serif" font-size="10.00">SPIShiftRegisterOut.ipp</text>
</a>
</g>
</g>
<!-- Node12&#45;&gt;Node13 -->
<g id="edge15" class="edge">
<title>Node12&#45;&gt;Node13</title>
<path fill="none" stroke="midnightblue" d="M1478.53,-46.1C1477.9,-37.14 1478.34,-26.86 1479.87,-19.75"/>
<polygon fill="midnightblue" stroke="midnightblue" points="1475.07,-46.62 1479.83,-56.08 1482.01,-45.71 1475.07,-46.62"/>
</g>
<!-- Node13&#45;&gt;Node12 -->
<g id="edge16" class="edge">
<title>Node13&#45;&gt;Node12</title>
<path fill="none" stroke="midnightblue" d="M1491.46,-29.69C1492.11,-38.64 1491.68,-48.93 1490.17,-56.08"/>
<polygon fill="midnightblue" stroke="midnightblue" points="1494.92,-29.2 1490.13,-19.75 1487.98,-30.13 1494.92,-29.2"/>
</g>
<!-- Node15 -->
<g id="node15" class="node">
<title>Node15</title>
<g id="a_node15"><a xlink:href="../../d4/d40/Butterworth_8hpp.html" target="_top" xlink:title=" ">
<polygon fill="white" stroke="black" points="28.5,-224.5 28.5,-243.5 123.5,-243.5 123.5,-224.5 28.5,-224.5"/>
<text text-anchor="middle" x="76" y="-231.5" font-family="Helvetica,sans-Serif" font-size="10.00">Butterworth.hpp</text>
</a>
</g>
</g>
<!-- Node14&#45;&gt;Node15 -->
<g id="edge18" class="edge">
<title>Node14&#45;&gt;Node15</title>
<path fill="none" stroke="midnightblue" d="M188.52,-276.91C161.26,-266.75 123.01,-252.51 98.87,-243.52"/>
<polygon fill="midnightblue" stroke="midnightblue" points="187.43,-280.23 198.02,-280.44 189.87,-273.67 187.43,-280.23"/>
</g>
<!-- Node17 -->
<g id="node17" class="node">
<title>Node17</title>
<g id="a_node17"><a xlink:href="../../d2/d3c/Arduino-Hardware-Types_8hpp.html" target="_top" xlink:title=" ">
<polygon fill="white" stroke="black" points="746.5,-336.5 746.5,-355.5 903.5,-355.5 903.5,-336.5 746.5,-336.5"/>
<text text-anchor="middle" x="825" y="-343.5" font-family="Helvetica,sans-Serif" font-size="10.00">Arduino&#45;Hardware&#45;Types.hpp</text>
</a>
</g>
</g>
<!-- Node16&#45;&gt;Node17 -->
<g id="edge21" class="edge">
<title>Node16&#45;&gt;Node17</title>
<path fill="none" stroke="midnightblue" d="M503.46,-391.52C576.93,-381.35 692.57,-365.34 763.31,-355.54"/>
<polygon fill="midnightblue" stroke="midnightblue" points="502.81,-388.08 493.39,-392.92 503.77,-395.01 502.81,-388.08"/>
</g>
<!-- Node26 -->
<g id="node26" class="node">
<title>Node26</title>
<g id="a_node26"><a xlink:href="../../d9/d4b/ButtonMatrix_8hpp.html" target="_top" xlink:title=" ">
<polygon fill="white" stroke="black" points="156.5,-168.5 156.5,-187.5 257.5,-187.5 257.5,-168.5 156.5,-168.5"/>
<text text-anchor="middle" x="207" y="-175.5" font-family="Helvetica,sans-Serif" font-size="10.00">ButtonMatrix.hpp</text>
</a>
</g>
</g>
<!-- Node16&#45;&gt;Node26 -->
<g id="edge50" class="edge">
<title>Node16&#45;&gt;Node26</title>
<path fill="none" stroke="midnightblue" d="M424.19,-383.51C414.96,-369.52 400.71,-350.01 385,-336 325.78,-283.19 283.01,-304.77 232,-244 217.85,-227.15 211.19,-201.4 208.51,-187.93"/>
<polygon fill="midnightblue" stroke="midnightblue" points="421.39,-385.63 429.73,-392.17 427.29,-381.86 421.39,-385.63"/>
</g>
<!-- Node28 -->
<g id="node28" class="node">
<title>Node28</title>
<g id="a_node28"><a xlink:href="../../d4/d57/ExtendedIOElement_8hpp.html" target="_top" xlink:title=" ">
<polygon fill="white" stroke="black" points="476,-224.5 476,-243.5 610,-243.5 610,-224.5 476,-224.5"/>
<text text-anchor="middle" x="543" y="-231.5" font-family="Helvetica,sans-Serif" font-size="10.00">ExtendedIOElement.hpp</text>
</a>
</g>
</g>
<!-- Node16&#45;&gt;Node28 -->
<g id="edge51" class="edge">
<title>Node16&#45;&gt;Node28</title>
<path fill="none" stroke="midnightblue" d="M446.51,-383.31C469.53,-347.92 520.51,-269.56 537.43,-243.57"/>
<polygon fill="midnightblue" stroke="midnightblue" points="443.33,-381.78 440.81,-392.08 449.19,-385.6 443.33,-381.78"/>
</g>
<!-- Node30 -->
<g id="node30" class="node">
<title>Node30</title>
<g id="a_node30"><a xlink:href="../../d8/df3/FilteredAnalog_8hpp.html" target="_top" xlink:title=" ">
<polygon fill="white" stroke="black" points="1899,-224.5 1899,-243.5 2007,-243.5 2007,-224.5 1899,-224.5"/>
<text text-anchor="middle" x="1953" y="-231.5" font-family="Helvetica,sans-Serif" font-size="10.00">FilteredAnalog.hpp</text>
</a>
</g>
</g>
<!-- Node16&#45;&gt;Node30 -->
<g id="edge52" class="edge">
<title>Node16&#45;&gt;Node30</title>
<path fill="none" stroke="midnightblue" d="M503.19,-392.03C686.49,-372.08 734.21,-374.15 913,-356 1345.64,-312.09 1453.44,-297.42 1885,-244 1889.49,-243.44 1894.15,-242.85 1898.82,-242.25"/>
<polygon fill="midnightblue" stroke="midnightblue" points="502.78,-388.55 493.22,-393.12 503.54,-395.51 502.78,-388.55"/>
</g>
<!-- Node18 -->
<g id="node18" class="node">
<title>Node18</title>
<g id="a_node18"><a xlink:href="../../dd/ddf/ExtendedInputOutput_8hpp.html" target="_top" xlink:title=" ">
<polygon fill="white" stroke="black" points="1006.5,-280.5 1006.5,-299.5 1147.5,-299.5 1147.5,-280.5 1006.5,-280.5"/>
<text text-anchor="middle" x="1077" y="-287.5" font-family="Helvetica,sans-Serif" font-size="10.00">ExtendedInputOutput.hpp</text>
</a>
</g>
</g>
<!-- Node17&#45;&gt;Node18 -->
<g id="edge22" class="edge">
<title>Node17&#45;&gt;Node18</title>
<path fill="none" stroke="midnightblue" d="M874.72,-334.35C922.34,-324.14 993.28,-308.94 1037.26,-299.52"/>
<polygon fill="midnightblue" stroke="midnightblue" points="873.97,-330.93 864.93,-336.44 875.44,-337.77 873.97,-330.93"/>
</g>
<!-- Node18&#45;&gt;Node4 -->
<g id="edge32" class="edge">
<title>Node18&#45;&gt;Node4</title>
<path fill="none" stroke="midnightblue" d="M996.32,-287.11C799.06,-282.14 303.28,-267.45 232,-244 189.03,-229.86 173.88,-224.39 147,-188 134.28,-170.79 130.05,-145.2 128.66,-131.84"/>
<polygon fill="midnightblue" stroke="midnightblue" points="996.25,-290.61 1006.33,-287.36 996.42,-283.61 996.25,-290.61"/>
</g>
<!-- Node18&#45;&gt;Node6 -->
<g id="edge38" class="edge">
<title>Node18&#45;&gt;Node6</title>
<path fill="none" stroke="midnightblue" d="M1071.82,-270.7C1062.83,-240.28 1043.7,-181.31 1027,-168 993.23,-141.1 870.79,-129.67 803.71,-125.33"/>
<polygon fill="midnightblue" stroke="midnightblue" points="1068.51,-271.85 1074.65,-280.48 1075.23,-269.9 1068.51,-271.85"/>
</g>
<!-- Node18&#45;&gt;Node8 -->
<g id="edge40" class="edge">
<title>Node18&#45;&gt;Node8</title>
<path fill="none" stroke="midnightblue" d="M1158.1,-280.36C1159.41,-280.24 1160.71,-280.12 1162,-280 1264.32,-270.59 1530.48,-288.71 1623,-244 1653.58,-229.22 1662.59,-219.61 1675,-188 1683.34,-166.76 1663.16,-143.63 1650.09,-131.51"/>
<polygon fill="midnightblue" stroke="midnightblue" points="1157.57,-276.9 1147.95,-281.34 1158.24,-283.87 1157.57,-276.9"/>
</g>
<!-- Node18&#45;&gt;Node10 -->
<g id="edge39" class="edge">
<title>Node18&#45;&gt;Node10</title>
<path fill="none" stroke="midnightblue" d="M1158.08,-286.17C1360.33,-278.04 1871,-250.43 1871,-179 1871,-179 1871,-179 1871,-121 1871,-90.9 1874.18,-76.35 1852,-56 1828.1,-34.08 1743.36,-21.8 1685.24,-15.79"/>
<polygon fill="midnightblue" stroke="midnightblue" points="1157.66,-282.68 1147.81,-286.58 1157.94,-289.68 1157.66,-282.68"/>
</g>
<!-- Node18&#45;&gt;Node11 -->
<g id="edge41" class="edge">
<title>Node18&#45;&gt;Node11</title>
<path fill="none" stroke="midnightblue" d="M1158.15,-286.5C1306.53,-281.36 1610.27,-268.04 1652,-244 1721.85,-203.76 1760.68,-105.41 1771.11,-75.67"/>
<polygon fill="midnightblue" stroke="midnightblue" points="1157.61,-283.01 1147.74,-286.85 1157.85,-290.01 1157.61,-283.01"/>
</g>
<!-- Node18&#45;&gt;Node13 -->
<g id="edge42" class="edge">
<title>Node18&#45;&gt;Node13</title>
<path fill="none" stroke="midnightblue" d="M1158.07,-281.1C1266.14,-268.66 1448.34,-240.34 1487,-188 1494.77,-177.48 1506.26,-143.39 1486,-112 1465.73,-80.6 1429.99,-107.58 1410,-76 1394.24,-51.1 1433,-30.46 1460.47,-19.5"/>
<polygon fill="midnightblue" stroke="midnightblue" points="1157.39,-277.66 1147.85,-282.26 1158.18,-284.61 1157.39,-277.66"/>
</g>
<!-- Node19 -->
<g id="node19" class="node">
<title>Node19</title>
<g id="a_node19"><a xlink:href="../../d4/db3/Button_8hpp.html" target="_top" xlink:title=" ">
<polygon fill="white" stroke="black" points="1074,-224.5 1074,-243.5 1144,-243.5 1144,-224.5 1074,-224.5"/>
<text text-anchor="middle" x="1109" y="-231.5" font-family="Helvetica,sans-Serif" font-size="10.00">Button.hpp</text>
</a>
</g>
</g>
<!-- Node18&#45;&gt;Node19 -->
<g id="edge23" class="edge">
<title>Node18&#45;&gt;Node19</title>
<path fill="none" stroke="midnightblue" d="M1087.5,-271.27C1092.97,-262.05 1099.42,-251.17 1103.81,-243.75"/>
<polygon fill="midnightblue" stroke="midnightblue" points="1084.37,-269.7 1082.28,-280.08 1090.39,-273.26 1084.37,-269.7"/>
</g>
<!-- Node25 -->
<g id="node25" class="node">
<title>Node25</title>
<g id="a_node25"><a xlink:href="../../d5/d41/ButtonMatrix_8ipp.html" target="_top" xlink:title=" ">
<polygon fill="white" stroke="black" points="241,-224.5 241,-243.5 339,-243.5 339,-224.5 241,-224.5"/>
<text text-anchor="middle" x="290" y="-231.5" font-family="Helvetica,sans-Serif" font-size="10.00">ButtonMatrix.ipp</text>
</a>
</g>
</g>
<!-- Node18&#45;&gt;Node25 -->
<g id="edge29" class="edge">
<title>Node18&#45;&gt;Node25</title>
<path fill="none" stroke="midnightblue" d="M996.04,-283.44C833.3,-272.28 470.84,-247.41 339.08,-238.37"/>
<polygon fill="midnightblue" stroke="midnightblue" points="996.25,-286.97 1006.47,-284.16 996.73,-279.98 996.25,-286.97"/>
</g>
<!-- Node27 -->
<g id="node27" class="node">
<title>Node27</title>
<g id="a_node27"><a xlink:href="../../d6/d3c/ExtendedInputOutput_8cpp.html" target="_top" xlink:title=" ">
<polygon fill="white" stroke="black" points="628,-168.5 628,-187.5 768,-187.5 768,-168.5 628,-168.5"/>
<text text-anchor="middle" x="698" y="-175.5" font-family="Helvetica,sans-Serif" font-size="10.00">ExtendedInputOutput.cpp</text>
</a>
</g>
</g>
<!-- Node18&#45;&gt;Node27 -->
<g id="edge33" class="edge">
<title>Node18&#45;&gt;Node27</title>
<path fill="none" stroke="midnightblue" d="M1009.89,-278.74C965.65,-271.15 906.74,-259.45 856,-244 803.51,-228.02 744.37,-201.19 715.61,-187.54"/>
<polygon fill="midnightblue" stroke="midnightblue" points="1009.5,-282.22 1019.95,-280.44 1010.67,-275.32 1009.5,-282.22"/>
</g>
<!-- Node18&#45;&gt;Node28 -->
<g id="edge34" class="edge">
<title>Node18&#45;&gt;Node28</title>
<path fill="none" stroke="midnightblue" d="M996.41,-280.85C891.02,-270.19 708.3,-251.72 610.07,-241.78"/>
<polygon fill="midnightblue" stroke="midnightblue" points="996.06,-284.33 1006.36,-281.86 996.77,-277.37 996.06,-284.33"/>
</g>
<!-- Node18&#45;&gt;Node30 -->
<g id="edge43" class="edge">
<title>Node18&#45;&gt;Node30</title>
<path fill="none" stroke="midnightblue" d="M1158.1,-280.31C1159.41,-280.2 1160.71,-280.1 1162,-280 1482.76,-255.05 1564.59,-273.13 1885,-244 1889.51,-243.59 1894.17,-243.1 1898.85,-242.57"/>
<polygon fill="midnightblue" stroke="midnightblue" points="1157.6,-276.84 1147.93,-281.19 1158.2,-283.82 1157.6,-276.84"/>
</g>
<!-- Node31 -->
<g id="node31" class="node">
<title>Node31</title>
<g id="a_node31"><a xlink:href="../../d9/d4f/LEDs_8hpp.html" target="_top" xlink:title=" ">
<polygon fill="white" stroke="black" points="1552,-224.5 1552,-243.5 1614,-243.5 1614,-224.5 1552,-224.5"/>
<text text-anchor="middle" x="1583" y="-231.5" font-family="Helvetica,sans-Serif" font-size="10.00">LEDs.hpp</text>
</a>
</g>
</g>
<!-- Node18&#45;&gt;Node31 -->
<g id="edge44" class="edge">
<title>Node18&#45;&gt;Node31</title>
<path fill="none" stroke="midnightblue" d="M1158.11,-280.4C1159.42,-280.27 1160.71,-280.13 1162,-280 1321.07,-263.58 1361.26,-263.31 1520,-244 1530.42,-242.73 1541.78,-241.17 1551.95,-239.7"/>
<polygon fill="midnightblue" stroke="midnightblue" points="1157.54,-276.94 1147.96,-281.46 1158.27,-283.9 1157.54,-276.94"/>
</g>
<!-- Node33 -->
<g id="node33" class="node">
<title>Node33</title>
<g id="a_node33"><a xlink:href="../../d7/d13/MAX7219__Base_8hpp.html" target="_top" xlink:title=" ">
<polygon fill="white" stroke="black" points="864.5,-224.5 864.5,-243.5 977.5,-243.5 977.5,-224.5 864.5,-224.5"/>
<text text-anchor="middle" x="921" y="-231.5" font-family="Helvetica,sans-Serif" font-size="10.00">MAX7219_Base.hpp</text>
</a>
</g>
</g>
<!-- Node18&#45;&gt;Node33 -->
<g id="edge46" class="edge">
<title>Node18&#45;&gt;Node33</title>
<path fill="none" stroke="midnightblue" d="M1042.83,-277.17C1013.46,-267 971.8,-252.59 945.6,-243.52"/>
<polygon fill="midnightblue" stroke="midnightblue" points="1041.69,-280.48 1052.28,-280.44 1043.98,-273.86 1041.69,-280.48"/>
</g>
<!-- Node35 -->
<g id="node35" class="node">
<title>Node35</title>
<g id="a_node35"><a xlink:href="../../d8/dd2/MCP23017Encoders_8hpp.html" target="_top" xlink:title=" ">
<polygon fill="white" stroke="black" points="1162,-224.5 1162,-243.5 1296,-243.5 1296,-224.5 1162,-224.5"/>
<text text-anchor="middle" x="1229" y="-231.5" font-family="Helvetica,sans-Serif" font-size="10.00">MCP23017Encoders.hpp</text>
</a>
</g>
</g>
<!-- Node18&#45;&gt;Node35 -->
<g id="edge49" class="edge">
<title>Node18&#45;&gt;Node35</title>
<path fill="none" stroke="midnightblue" d="M1110.67,-277.04C1139.27,-266.88 1179.61,-252.55 1205.03,-243.52"/>
<polygon fill="midnightblue" stroke="midnightblue" points="1109.34,-273.8 1101.08,-280.44 1111.68,-280.39 1109.34,-273.8"/>
</g>
<!-- Node20 -->
<g id="node20" class="node">
<title>Node20</title>
<g id="a_node20"><a xlink:href="../../de/dd1/Button_8cpp.html" target="_top" xlink:title=" ">
<polygon fill="white" stroke="black" points="1074.5,-168.5 1074.5,-187.5 1143.5,-187.5 1143.5,-168.5 1074.5,-168.5"/>
<text text-anchor="middle" x="1109" y="-175.5" font-family="Helvetica,sans-Serif" font-size="10.00">Button.cpp</text>
</a>
</g>
</g>
<!-- Node19&#45;&gt;Node20 -->
<g id="edge24" class="edge">
<title>Node19&#45;&gt;Node20</title>
<path fill="none" stroke="midnightblue" d="M1109,-213.8C1109,-204.91 1109,-194.78 1109,-187.75"/>
<polygon fill="midnightblue" stroke="midnightblue" points="1105.5,-214.08 1109,-224.08 1112.5,-214.08 1105.5,-214.08"/>
</g>
<!-- Node21 -->
<g id="node21" class="node">
<title>Node21</title>
<g id="a_node21"><a xlink:href="../../d5/d04/IncrementButton_8hpp.html" target="_top" xlink:title=" ">
<polygon fill="white" stroke="black" points="1161.5,-168.5 1161.5,-187.5 1280.5,-187.5 1280.5,-168.5 1161.5,-168.5"/>
<text text-anchor="middle" x="1221" y="-175.5" font-family="Helvetica,sans-Serif" font-size="10.00">IncrementButton.hpp</text>
</a>
</g>
</g>
<!-- Node19&#45;&gt;Node21 -->
<g id="edge25" class="edge">
<title>Node19&#45;&gt;Node21</title>
<path fill="none" stroke="midnightblue" d="M1136.25,-219.86C1157.02,-209.85 1185.02,-196.35 1203.05,-187.65"/>
<polygon fill="midnightblue" stroke="midnightblue" points="1134.48,-216.83 1126.99,-224.32 1137.52,-223.13 1134.48,-216.83"/>
</g>
<!-- Node23 -->
<g id="node23" class="node">
<title>Node23</title>
<g id="a_node23"><a xlink:href="../../df/df5/IncrementDecrementButtons_8hpp.html" target="_top" xlink:title=" ">
<polygon fill="white" stroke="black" points="1298.5,-168.5 1298.5,-187.5 1477.5,-187.5 1477.5,-168.5 1298.5,-168.5"/>
<text text-anchor="middle" x="1388" y="-175.5" font-family="Helvetica,sans-Serif" font-size="10.00">IncrementDecrementButtons.hpp</text>
</a>
</g>
</g>
<!-- Node19&#45;&gt;Node23 -->
<g id="edge27" class="edge">
<title>Node19&#45;&gt;Node23</title>
<path fill="none" stroke="midnightblue" d="M1154.14,-223.79C1225.61,-209.68 1297.24,-196.07 1342.48,-187.54"/>
<polygon fill="midnightblue" stroke="midnightblue" points="1153.19,-220.41 1144.06,-225.79 1154.55,-227.28 1153.19,-220.41"/>
</g>
<!-- Node22 -->
<g id="node22" class="node">
<title>Node22</title>
<g id="a_node22"><a xlink:href="../../db/d9d/IncrementButton_8cpp.html" target="_top" xlink:title=" ">
<polygon fill="white" stroke="black" points="1161.5,-112.5 1161.5,-131.5 1280.5,-131.5 1280.5,-112.5 1161.5,-112.5"/>
<text text-anchor="middle" x="1221" y="-119.5" font-family="Helvetica,sans-Serif" font-size="10.00">IncrementButton.cpp</text>
</a>
</g>
</g>
<!-- Node21&#45;&gt;Node22 -->
<g id="edge26" class="edge">
<title>Node21&#45;&gt;Node22</title>
<path fill="none" stroke="midnightblue" d="M1221,-157.8C1221,-148.91 1221,-138.78 1221,-131.75"/>
<polygon fill="midnightblue" stroke="midnightblue" points="1217.5,-158.08 1221,-168.08 1224.5,-158.08 1217.5,-158.08"/>
</g>
<!-- Node24 -->
<g id="node24" class="node">
<title>Node24</title>
<g id="a_node24"><a xlink:href="../../da/d66/IncrementDecrementButtons_8cpp.html" target="_top" xlink:title=" ">
<polygon fill="white" stroke="black" points="1299,-112.5 1299,-131.5 1477,-131.5 1477,-112.5 1299,-112.5"/>
<text text-anchor="middle" x="1388" y="-119.5" font-family="Helvetica,sans-Serif" font-size="10.00">IncrementDecrementButtons.cpp</text>
</a>
</g>
</g>
<!-- Node23&#45;&gt;Node24 -->
<g id="edge28" class="edge">
<title>Node23&#45;&gt;Node24</title>
<path fill="none" stroke="midnightblue" d="M1388,-157.8C1388,-148.91 1388,-138.78 1388,-131.75"/>
<polygon fill="midnightblue" stroke="midnightblue" points="1384.5,-158.08 1388,-168.08 1391.5,-158.08 1384.5,-158.08"/>
</g>
<!-- Node25&#45;&gt;Node26 -->
<g id="edge30" class="edge">
<title>Node25&#45;&gt;Node26</title>
<path fill="none" stroke="midnightblue" d="M262.83,-219.21C246.4,-209.34 226.7,-196.34 215.43,-187.83"/>
<polygon fill="midnightblue" stroke="midnightblue" points="261.15,-222.28 271.55,-224.32 264.69,-216.25 261.15,-222.28"/>
</g>
<!-- Node26&#45;&gt;Node25 -->
<g id="edge31" class="edge">
<title>Node26&#45;&gt;Node25</title>
<path fill="none" stroke="midnightblue" d="M234.18,-192.8C250.71,-202.73 270.55,-215.82 281.78,-224.32"/>
<polygon fill="midnightblue" stroke="midnightblue" points="235.81,-189.69 225.41,-187.65 232.27,-195.73 235.81,-189.69"/>
</g>
<!-- Node28&#45;&gt;Node3 -->
<g id="edge37" class="edge">
<title>Node28&#45;&gt;Node3</title>
<path fill="none" stroke="midnightblue" d="M505.31,-221.44C472.13,-211.26 424.57,-196.66 394.76,-187.52"/>
<polygon fill="midnightblue" stroke="midnightblue" points="504.53,-224.86 515.11,-224.44 506.58,-218.16 504.53,-224.86"/>
</g>
<!-- Node28&#45;&gt;Node27 -->
<g id="edge35" class="edge">
<title>Node28&#45;&gt;Node27</title>
<path fill="none" stroke="midnightblue" d="M577.33,-221.04C606.5,-210.88 647.64,-196.55 673.55,-187.52"/>
<polygon fill="midnightblue" stroke="midnightblue" points="575.85,-217.85 567.56,-224.44 578.16,-224.46 575.85,-217.85"/>
</g>
<!-- Node29 -->
<g id="node29" class="node">
<title>Node29</title>
<g id="a_node29"><a xlink:href="../../da/d1f/ExtendedIOElement_8cpp.html" target="_top" xlink:title=" ">
<polygon fill="white" stroke="black" points="476,-168.5 476,-187.5 610,-187.5 610,-168.5 476,-168.5"/>
<text text-anchor="middle" x="543" y="-175.5" font-family="Helvetica,sans-Serif" font-size="10.00">ExtendedIOElement.cpp</text>
</a>
</g>
</g>
<!-- Node28&#45;&gt;Node29 -->
<g id="edge36" class="edge">
<title>Node28&#45;&gt;Node29</title>
<path fill="none" stroke="midnightblue" d="M543,-213.8C543,-204.91 543,-194.78 543,-187.75"/>
<polygon fill="midnightblue" stroke="midnightblue" points="539.5,-214.08 543,-224.08 546.5,-214.08 539.5,-214.08"/>
</g>
<!-- Node32 -->
<g id="node32" class="node">
<title>Node32</title>
<g id="a_node32"><a xlink:href="../../d6/d3a/DotBarDisplayLEDs_8hpp.html" target="_top" xlink:title=" ">
<polygon fill="white" stroke="black" points="1534,-168.5 1534,-187.5 1666,-187.5 1666,-168.5 1534,-168.5"/>
<text text-anchor="middle" x="1600" y="-175.5" font-family="Helvetica,sans-Serif" font-size="10.00">DotBarDisplayLEDs.hpp</text>
</a>
</g>
</g>
<!-- Node31&#45;&gt;Node32 -->
<g id="edge45" class="edge">
<title>Node31&#45;&gt;Node32</title>
<path fill="none" stroke="midnightblue" d="M1588.86,-214.4C1591.7,-205.36 1594.98,-194.94 1597.25,-187.75"/>
<polygon fill="midnightblue" stroke="midnightblue" points="1585.47,-213.49 1585.81,-224.08 1592.15,-215.6 1585.47,-213.49"/>
</g>
<!-- Node33&#45;&gt;Node5 -->
<g id="edge47" class="edge">
<title>Node33&#45;&gt;Node5</title>
<path fill="none" stroke="midnightblue" d="M890.49,-220.58C869.4,-211.83 840.79,-199.65 816,-188 798.37,-179.71 795.49,-174.14 777,-168 700.55,-142.6 606.75,-131.02 553.43,-126.15"/>
<polygon fill="midnightblue" stroke="midnightblue" points="889.31,-223.88 899.89,-224.46 891.98,-217.41 889.31,-223.88"/>
</g>
<!-- Node34 -->
<g id="node34" class="node">
<title>Node34</title>
<g id="a_node34"><a xlink:href="../../d5/d0c/MAX7219SevenSegmentDisplay_8hpp.html" target="_top" xlink:title=" ">
<polygon fill="white" stroke="black" points="824.5,-168.5 824.5,-187.5 1017.5,-187.5 1017.5,-168.5 824.5,-168.5"/>
<text text-anchor="middle" x="921" y="-175.5" font-family="Helvetica,sans-Serif" font-size="10.00">MAX7219SevenSegmentDisplay.hpp</text>
</a>
</g>
</g>
<!-- Node33&#45;&gt;Node34 -->
<g id="edge48" class="edge">
<title>Node33&#45;&gt;Node34</title>
<path fill="none" stroke="midnightblue" d="M921,-213.8C921,-204.91 921,-194.78 921,-187.75"/>
<polygon fill="midnightblue" stroke="midnightblue" points="917.5,-214.08 921,-224.08 924.5,-214.08 917.5,-214.08"/>
</g>
<!-- Node36&#45;&gt;Node14 -->
<g id="edge54" class="edge">
<title>Node36&#45;&gt;Node14</title>
<path fill="none" stroke="midnightblue" d="M221,-325.8C221,-316.91 221,-306.78 221,-299.75"/>
<polygon fill="midnightblue" stroke="midnightblue" points="217.5,-326.08 221,-336.08 224.5,-326.08 217.5,-326.08"/>
</g>
<!-- Node38 -->
<g id="node38" class="node">
<title>Node38</title>
<g id="a_node38"><a xlink:href="../../df/da1/Notch_8hpp.html" target="_top" xlink:title=" ">
<polygon fill="white" stroke="black" points="1204,-336.5 1204,-355.5 1270,-355.5 1270,-336.5 1204,-336.5"/>
<text text-anchor="middle" x="1237" y="-343.5" font-family="Helvetica,sans-Serif" font-size="10.00">Notch.hpp</text>
</a>
</g>
</g>
<!-- Node37&#45;&gt;Node38 -->
<g id="edge56" class="edge">
<title>Node37&#45;&gt;Node38</title>
<path fill="none" stroke="midnightblue" d="M964.76,-393.39C1019.6,-384.74 1111.3,-369.99 1190,-356 1194.5,-355.2 1199.23,-354.33 1203.9,-353.45"/>
<polygon fill="midnightblue" stroke="midnightblue" points="963.96,-389.97 954.62,-394.99 965.05,-396.89 963.96,-389.97"/>
</g>
<!-- Node41&#45;&gt;Node36 -->
<g id="edge60" class="edge">
<title>Node41&#45;&gt;Node36</title>
<path fill="none" stroke="midnightblue" d="M217.75,-382.1C218.58,-373.14 219.53,-362.86 220.19,-355.75"/>
<polygon fill="midnightblue" stroke="midnightblue" points="214.26,-381.8 216.83,-392.08 221.23,-382.45 214.26,-381.8"/>
</g>
<!-- Node41&#45;&gt;Node39 -->
<g id="edge61" class="edge">
<title>Node41&#45;&gt;Node39</title>
<path fill="none" stroke="midnightblue" d="M193.28,-386.9C177.33,-377 156.5,-364.07 142.94,-355.65"/>
<polygon fill="midnightblue" stroke="midnightblue" points="191.68,-390.02 202.02,-392.32 195.37,-384.08 191.68,-390.02"/>
</g>
</g>
</svg>
