<?xml version="1.0" encoding="UTF-8" standalone="no"?>
<!DOCTYPE svg PUBLIC "-//W3C//DTD SVG 1.1//EN"
 "http://www.w3.org/Graphics/SVG/1.1/DTD/svg11.dtd">
<!-- Generated by graphviz version 2.43.0 (0)
 -->
<!-- Title: Array.hpp Pages: 1 -->
<svg width="1997pt" height="476pt"
 viewBox="0.00 0.00 1996.50 476.00" xmlns="http://www.w3.org/2000/svg" xmlns:xlink="http://www.w3.org/1999/xlink">
<g id="graph0" class="graph" transform="scale(1 1) rotate(0) translate(4 472)">
<title>Array.hpp</title>
<polygon fill="white" stroke="transparent" points="-4,4 -4,-472 1992.5,-472 1992.5,4 -4,4"/>
<!-- Node1 -->
<g id="node1" class="node">
<title>Node1</title>
<g id="a_node1"><a xlink:title=" ">
<polygon fill="#bfbfbf" stroke="black" points="286.5,-448.5 286.5,-467.5 348.5,-467.5 348.5,-448.5 286.5,-448.5"/>
<text text-anchor="middle" x="317.5" y="-455.5" font-family="Helvetica,sans-Serif" font-size="10.00">Array.hpp</text>
</a>
</g>
</g>
<!-- Node2 -->
<g id="node2" class="node">
<title>Node2</title>
<g id="a_node2"><a xlink:href="../../d7/def/AnalogMultiplex_8hpp.html" target="_top" xlink:title=" ">
<polygon fill="white" stroke="black" points="280,-112.5 280,-131.5 397,-131.5 397,-112.5 280,-112.5"/>
<text text-anchor="middle" x="338.5" y="-119.5" font-family="Helvetica,sans-Serif" font-size="10.00">AnalogMultiplex.hpp</text>
</a>
</g>
</g>
<!-- Node1&#45;&gt;Node2 -->
<g id="edge1" class="edge">
<title>Node1&#45;&gt;Node2</title>
<path fill="none" stroke="midnightblue" d="M314.33,-438.31C309.41,-407.64 300.5,-344.69 300.5,-291 300.5,-291 300.5,-291 300.5,-233 300.5,-193.4 322.77,-149.96 333.22,-131.77"/>
<polygon fill="midnightblue" stroke="midnightblue" points="310.91,-439.09 315.99,-448.39 317.82,-437.95 310.91,-439.09"/>
</g>
<!-- Node3 -->
<g id="node3" class="node">
<title>Node3</title>
<g id="a_node3"><a xlink:href="../../d5/db6/ArrayHelpers_8hpp.html" target="_top" xlink:title=" ">
<polygon fill="white" stroke="black" points="329,-336.5 329,-355.5 430,-355.5 430,-336.5 329,-336.5"/>
<text text-anchor="middle" x="379.5" y="-343.5" font-family="Helvetica,sans-Serif" font-size="10.00">ArrayHelpers.hpp</text>
</a>
</g>
</g>
<!-- Node1&#45;&gt;Node3 -->
<g id="edge2" class="edge">
<title>Node1&#45;&gt;Node3</title>
<path fill="none" stroke="midnightblue" d="M327.28,-439.64C340.75,-415.74 364.49,-373.63 374.66,-355.59"/>
<polygon fill="midnightblue" stroke="midnightblue" points="324.23,-437.94 322.37,-448.37 330.32,-441.38 324.23,-437.94"/>
</g>
<!-- Node16 -->
<g id="node16" class="node">
<title>Node16</title>
<g id="a_node16"><a xlink:href="../../d1/dde/BiQuad_8hpp.html" target="_top" xlink:title=" ">
<polygon fill="white" stroke="black" points="107,-336.5 107,-355.5 180,-355.5 180,-336.5 107,-336.5"/>
<text text-anchor="middle" x="143.5" y="-343.5" font-family="Helvetica,sans-Serif" font-size="10.00">BiQuad.hpp</text>
</a>
</g>
</g>
<!-- Node1&#45;&gt;Node16 -->
<g id="edge20" class="edge">
<title>Node1&#45;&gt;Node16</title>
<path fill="none" stroke="midnightblue" d="M276.11,-453.28C225.15,-447.74 143.06,-435.38 124.5,-412 111.05,-395.06 126.75,-368.89 136.65,-355.51"/>
<polygon fill="midnightblue" stroke="midnightblue" points="275.86,-456.77 286.16,-454.33 276.58,-449.81 275.86,-456.77"/>
</g>
<!-- Node17 -->
<g id="node17" class="node">
<title>Node17</title>
<g id="a_node17"><a xlink:href="../../d2/d3b/FIRFilter_8hpp.html" target="_top" xlink:title=" ">
<polygon fill="white" stroke="black" points="0,-392.5 0,-411.5 77,-411.5 77,-392.5 0,-392.5"/>
<text text-anchor="middle" x="38.5" y="-399.5" font-family="Helvetica,sans-Serif" font-size="10.00">FIRFilter.hpp</text>
</a>
</g>
</g>
<!-- Node1&#45;&gt;Node17 -->
<g id="edge22" class="edge">
<title>Node1&#45;&gt;Node17</title>
<path fill="none" stroke="midnightblue" d="M276.45,-449.05C222.78,-438.67 129.46,-420.6 77.05,-410.46"/>
<polygon fill="midnightblue" stroke="midnightblue" points="275.82,-452.5 286.31,-450.96 277.15,-445.63 275.82,-452.5"/>
</g>
<!-- Node19 -->
<g id="node19" class="node">
<title>Node19</title>
<g id="a_node19"><a xlink:href="../../d4/d35/Hardware-Types_8hpp.html" target="_top" xlink:title=" ">
<polygon fill="white" stroke="black" points="784.5,-392.5 784.5,-411.5 900.5,-411.5 900.5,-392.5 784.5,-392.5"/>
<text text-anchor="middle" x="842.5" y="-399.5" font-family="Helvetica,sans-Serif" font-size="10.00">Hardware&#45;Types.hpp</text>
</a>
</g>
</g>
<!-- Node1&#45;&gt;Node19 -->
<g id="edge24" class="edge">
<title>Node1&#45;&gt;Node19</title>
<path fill="none" stroke="midnightblue" d="M358.91,-452.74C451.86,-443.18 677.3,-419.99 784.29,-408.99"/>
<polygon fill="midnightblue" stroke="midnightblue" points="358.36,-449.28 348.77,-453.78 359.07,-456.24 358.36,-449.28"/>
</g>
<!-- Node39 -->
<g id="node39" class="node">
<title>Node39</title>
<g id="a_node39"><a xlink:href="../../dc/d64/IIRFilter_8hpp.html" target="_top" xlink:title=" ">
<polygon fill="white" stroke="black" points="198.5,-336.5 198.5,-355.5 272.5,-355.5 272.5,-336.5 198.5,-336.5"/>
<text text-anchor="middle" x="235.5" y="-343.5" font-family="Helvetica,sans-Serif" font-size="10.00">IIRFilter.hpp</text>
</a>
</g>
</g>
<!-- Node1&#45;&gt;Node39 -->
<g id="edge57" class="edge">
<title>Node1&#45;&gt;Node39</title>
<path fill="none" stroke="midnightblue" d="M305.03,-440.27C287.3,-416.49 255.47,-373.79 241.9,-355.59"/>
<polygon fill="midnightblue" stroke="midnightblue" points="302.28,-442.44 311.07,-448.37 307.9,-438.26 302.28,-442.44"/>
</g>
<!-- Node40 -->
<g id="node40" class="node">
<title>Node40</title>
<g id="a_node40"><a xlink:href="../../dd/ddf/RegisterEncoders_8hpp.html" target="_top" xlink:title=" ">
<polygon fill="white" stroke="black" points="1649.5,-280.5 1649.5,-299.5 1771.5,-299.5 1771.5,-280.5 1649.5,-280.5"/>
<text text-anchor="middle" x="1710.5" y="-287.5" font-family="Helvetica,sans-Serif" font-size="10.00">RegisterEncoders.hpp</text>
</a>
</g>
</g>
<!-- Node1&#45;&gt;Node40 -->
<g id="edge58" class="edge">
<title>Node1&#45;&gt;Node40</title>
<path fill="none" stroke="midnightblue" d="M358.95,-457.23C555.47,-457.79 1393.81,-454.3 1632.5,-356 1663.14,-343.38 1690.84,-314.24 1703.4,-299.65"/>
<polygon fill="midnightblue" stroke="midnightblue" points="358.77,-453.73 348.76,-457.19 358.75,-460.73 358.77,-453.73"/>
</g>
<!-- Node41 -->
<g id="node41" class="node">
<title>Node41</title>
<g id="a_node41"><a xlink:href="../../dc/d9c/SMA_8hpp.html" target="_top" xlink:title=" ">
<polygon fill="white" stroke="black" points="919,-392.5 919,-411.5 978,-411.5 978,-392.5 919,-392.5"/>
<text text-anchor="middle" x="948.5" y="-399.5" font-family="Helvetica,sans-Serif" font-size="10.00">SMA.hpp</text>
</a>
</g>
</g>
<!-- Node1&#45;&gt;Node41 -->
<g id="edge60" class="edge">
<title>Node1&#45;&gt;Node41</title>
<path fill="none" stroke="midnightblue" d="M358.73,-456.01C455.44,-453.21 704.23,-443.3 909.5,-412 912.52,-411.54 915.66,-410.97 918.78,-410.35"/>
<polygon fill="midnightblue" stroke="midnightblue" points="358.4,-452.51 348.5,-456.29 358.6,-459.51 358.4,-452.51"/>
</g>
<!-- Node42 -->
<g id="node42" class="node">
<title>Node42</title>
<g id="a_node42"><a xlink:href="../../d2/d03/TransferFunction_8hpp.html" target="_top" xlink:title=" ">
<polygon fill="white" stroke="black" points="133.5,-392.5 133.5,-411.5 251.5,-411.5 251.5,-392.5 133.5,-392.5"/>
<text text-anchor="middle" x="192.5" y="-399.5" font-family="Helvetica,sans-Serif" font-size="10.00">TransferFunction.hpp</text>
</a>
</g>
</g>
<!-- Node1&#45;&gt;Node42 -->
<g id="edge61" class="edge">
<title>Node1&#45;&gt;Node42</title>
<path fill="none" stroke="midnightblue" d="M288.26,-444.37C264.85,-434.26 232.66,-420.35 212.21,-411.52"/>
<polygon fill="midnightblue" stroke="midnightblue" points="287.13,-447.69 297.69,-448.44 289.9,-441.26 287.13,-447.69"/>
</g>
<!-- Node4 -->
<g id="node4" class="node">
<title>Node4</title>
<g id="a_node4"><a xlink:href="../../df/ddc/SOSFilter_8hpp.html" target="_top" xlink:title=" ">
<polygon fill="white" stroke="black" points="144,-280.5 144,-299.5 225,-299.5 225,-280.5 144,-280.5"/>
<text text-anchor="middle" x="184.5" y="-287.5" font-family="Helvetica,sans-Serif" font-size="10.00">SOSFilter.hpp</text>
</a>
</g>
</g>
<!-- Node3&#45;&gt;Node4 -->
<g id="edge3" class="edge">
<title>Node3&#45;&gt;Node4</title>
<path fill="none" stroke="midnightblue" d="M338.69,-333.7C301.89,-323.51 248.57,-308.74 215.25,-299.52"/>
<polygon fill="midnightblue" stroke="midnightblue" points="338.03,-337.15 348.6,-336.44 339.9,-330.4 338.03,-337.15"/>
</g>
<!-- Node6 -->
<g id="node6" class="node">
<title>Node6</title>
<g id="a_node6"><a xlink:href="../../d2/d05/StaticSizeExtendedIOElement_8hpp.html" target="_top" xlink:title=" ">
<polygon fill="white" stroke="black" points="366.5,-168.5 366.5,-187.5 548.5,-187.5 548.5,-168.5 366.5,-168.5"/>
<text text-anchor="middle" x="457.5" y="-175.5" font-family="Helvetica,sans-Serif" font-size="10.00">StaticSizeExtendedIOElement.hpp</text>
</a>
</g>
</g>
<!-- Node3&#45;&gt;Node6 -->
<g id="edge5" class="edge">
<title>Node3&#45;&gt;Node6</title>
<path fill="none" stroke="midnightblue" d="M388.03,-326.86C404.76,-291.25 441.31,-213.45 453.47,-187.57"/>
<polygon fill="midnightblue" stroke="midnightblue" points="384.78,-325.54 383.69,-336.08 391.11,-328.51 384.78,-325.54"/>
</g>
<!-- Node5 -->
<g id="node5" class="node">
<title>Node5</title>
<g id="a_node5"><a xlink:href="../../d4/d40/Butterworth_8hpp.html" target="_top" xlink:title=" ">
<polygon fill="white" stroke="black" points="137,-224.5 137,-243.5 232,-243.5 232,-224.5 137,-224.5"/>
<text text-anchor="middle" x="184.5" y="-231.5" font-family="Helvetica,sans-Serif" font-size="10.00">Butterworth.hpp</text>
</a>
</g>
</g>
<!-- Node4&#45;&gt;Node5 -->
<g id="edge4" class="edge">
<title>Node4&#45;&gt;Node5</title>
<path fill="none" stroke="midnightblue" d="M184.5,-269.8C184.5,-260.91 184.5,-250.78 184.5,-243.75"/>
<polygon fill="midnightblue" stroke="midnightblue" points="181,-270.08 184.5,-280.08 188,-270.08 181,-270.08"/>
</g>
<!-- Node6&#45;&gt;Node2 -->
<g id="edge6" class="edge">
<title>Node6&#45;&gt;Node2</title>
<path fill="none" stroke="midnightblue" d="M429.36,-164.23C407.1,-154.13 376.64,-140.31 357.27,-131.52"/>
<polygon fill="midnightblue" stroke="midnightblue" points="428.09,-167.5 438.64,-168.44 430.98,-161.12 428.09,-167.5"/>
</g>
<!-- Node7 -->
<g id="node7" class="node">
<title>Node7</title>
<g id="a_node7"><a xlink:href="../../d2/d25/MAX7219_8hpp.html" target="_top" xlink:title=" ">
<polygon fill="white" stroke="black" points="888.5,-112.5 888.5,-131.5 972.5,-131.5 972.5,-112.5 888.5,-112.5"/>
<text text-anchor="middle" x="930.5" y="-119.5" font-family="Helvetica,sans-Serif" font-size="10.00">MAX7219.hpp</text>
</a>
</g>
</g>
<!-- Node6&#45;&gt;Node7 -->
<g id="edge7" class="edge">
<title>Node6&#45;&gt;Node7</title>
<path fill="none" stroke="midnightblue" d="M554.44,-167.44C659.07,-156.98 818.87,-140.57 879.5,-132 882.35,-131.6 885.28,-131.15 888.23,-130.69"/>
<polygon fill="midnightblue" stroke="midnightblue" points="553.78,-163.99 544.18,-168.46 554.48,-170.95 553.78,-163.99"/>
</g>
<!-- Node8 -->
<g id="node8" class="node">
<title>Node8</title>
<g id="a_node8"><a xlink:href="../../d7/dca/MCP23017_8hpp.html" target="_top" xlink:title=" ">
<polygon fill="white" stroke="black" points="431,-112.5 431,-131.5 520,-131.5 520,-112.5 431,-112.5"/>
<text text-anchor="middle" x="475.5" y="-119.5" font-family="Helvetica,sans-Serif" font-size="10.00">MCP23017.hpp</text>
</a>
</g>
</g>
<!-- Node6&#45;&gt;Node8 -->
<g id="edge8" class="edge">
<title>Node6&#45;&gt;Node8</title>
<path fill="none" stroke="midnightblue" d="M463.7,-158.4C466.71,-149.36 470.19,-138.94 472.58,-131.75"/>
<polygon fill="midnightblue" stroke="midnightblue" points="460.31,-157.49 460.47,-168.08 466.96,-159.7 460.31,-157.49"/>
</g>
<!-- Node10 -->
<g id="node10" class="node">
<title>Node10</title>
<g id="a_node10"><a xlink:href="../../d8/d93/ShiftRegisterOutBase_8hpp.html" target="_top" xlink:title=" ">
<polygon fill="white" stroke="black" points="729,-112.5 729,-131.5 870,-131.5 870,-112.5 729,-112.5"/>
<text text-anchor="middle" x="799.5" y="-119.5" font-family="Helvetica,sans-Serif" font-size="10.00">ShiftRegisterOutBase.hpp</text>
</a>
</g>
</g>
<!-- Node6&#45;&gt;Node10 -->
<g id="edge11" class="edge">
<title>Node6&#45;&gt;Node10</title>
<path fill="none" stroke="midnightblue" d="M521.76,-166.85C586.38,-156.65 684.88,-141.1 745.56,-131.52"/>
<polygon fill="midnightblue" stroke="midnightblue" points="521.02,-163.43 511.69,-168.44 522.11,-170.34 521.02,-163.43"/>
</g>
<!-- Node9 -->
<g id="node9" class="node">
<title>Node9</title>
<g id="a_node9"><a xlink:href="../../d2/d94/MCP23017_8ipp.html" target="_top" xlink:title=" ">
<polygon fill="white" stroke="black" points="432.5,-56.5 432.5,-75.5 518.5,-75.5 518.5,-56.5 432.5,-56.5"/>
<text text-anchor="middle" x="475.5" y="-63.5" font-family="Helvetica,sans-Serif" font-size="10.00">MCP23017.ipp</text>
</a>
</g>
</g>
<!-- Node8&#45;&gt;Node9 -->
<g id="edge9" class="edge">
<title>Node8&#45;&gt;Node9</title>
<path fill="none" stroke="midnightblue" d="M469.03,-102.1C468.4,-93.14 468.84,-82.86 470.37,-75.75"/>
<polygon fill="midnightblue" stroke="midnightblue" points="465.57,-102.62 470.33,-112.08 472.51,-101.71 465.57,-102.62"/>
</g>
<!-- Node9&#45;&gt;Node8 -->
<g id="edge10" class="edge">
<title>Node9&#45;&gt;Node8</title>
<path fill="none" stroke="midnightblue" d="M481.96,-85.69C482.61,-94.64 482.18,-104.93 480.67,-112.08"/>
<polygon fill="midnightblue" stroke="midnightblue" points="485.42,-85.2 480.63,-75.75 478.48,-86.13 485.42,-85.2"/>
</g>
<!-- Node11 -->
<g id="node11" class="node">
<title>Node11</title>
<g id="a_node11"><a xlink:href="../../d7/d88/SPIShiftRegisterOut_8hpp.html" target="_top" xlink:title=" ">
<polygon fill="white" stroke="black" points="590.5,-56.5 590.5,-75.5 722.5,-75.5 722.5,-56.5 590.5,-56.5"/>
<text text-anchor="middle" x="656.5" y="-63.5" font-family="Helvetica,sans-Serif" font-size="10.00">SPIShiftRegisterOut.hpp</text>
</a>
</g>
</g>
<!-- Node10&#45;&gt;Node11 -->
<g id="edge12" class="edge">
<title>Node10&#45;&gt;Node11</title>
<path fill="none" stroke="midnightblue" d="M767.47,-108.91C740.59,-98.75 702.86,-84.51 679.05,-75.52"/>
<polygon fill="midnightblue" stroke="midnightblue" points="766.25,-112.19 776.84,-112.44 768.72,-105.64 766.25,-112.19"/>
</g>
<!-- Node13 -->
<g id="node13" class="node">
<title>Node13</title>
<g id="a_node13"><a xlink:href="../../d0/db4/ShiftRegisterOut_8hpp.html" target="_top" xlink:title=" ">
<polygon fill="white" stroke="black" points="741,-56.5 741,-75.5 858,-75.5 858,-56.5 741,-56.5"/>
<text text-anchor="middle" x="799.5" y="-63.5" font-family="Helvetica,sans-Serif" font-size="10.00">ShiftRegisterOut.hpp</text>
</a>
</g>
</g>
<!-- Node10&#45;&gt;Node13 -->
<g id="edge15" class="edge">
<title>Node10&#45;&gt;Node13</title>
<path fill="none" stroke="midnightblue" d="M799.5,-101.8C799.5,-92.91 799.5,-82.78 799.5,-75.75"/>
<polygon fill="midnightblue" stroke="midnightblue" points="796,-102.08 799.5,-112.08 803,-102.08 796,-102.08"/>
</g>
<!-- Node15 -->
<g id="node15" class="node">
<title>Node15</title>
<g id="a_node15"><a xlink:href="../../d5/d47/ShiftRegisterOutBase_8ipp.html" target="_top" xlink:title=" ">
<polygon fill="white" stroke="black" points="876.5,-56.5 876.5,-75.5 1014.5,-75.5 1014.5,-56.5 876.5,-56.5"/>
<text text-anchor="middle" x="945.5" y="-63.5" font-family="Helvetica,sans-Serif" font-size="10.00">ShiftRegisterOutBase.ipp</text>
</a>
</g>
</g>
<!-- Node10&#45;&gt;Node15 -->
<g id="edge18" class="edge">
<title>Node10&#45;&gt;Node15</title>
<path fill="none" stroke="midnightblue" d="M827.15,-108.64C853.05,-98.5 891.34,-84.43 917.39,-75.52"/>
<polygon fill="midnightblue" stroke="midnightblue" points="825.55,-105.5 817.55,-112.44 828.13,-112.01 825.55,-105.5"/>
</g>
<!-- Node12 -->
<g id="node12" class="node">
<title>Node12</title>
<g id="a_node12"><a xlink:href="../../da/d45/SPIShiftRegisterOut_8ipp.html" target="_top" xlink:title=" ">
<polygon fill="white" stroke="black" points="592,-0.5 592,-19.5 721,-19.5 721,-0.5 592,-0.5"/>
<text text-anchor="middle" x="656.5" y="-7.5" font-family="Helvetica,sans-Serif" font-size="10.00">SPIShiftRegisterOut.ipp</text>
</a>
</g>
</g>
<!-- Node11&#45;&gt;Node12 -->
<g id="edge13" class="edge">
<title>Node11&#45;&gt;Node12</title>
<path fill="none" stroke="midnightblue" d="M650.03,-46.1C649.4,-37.14 649.84,-26.86 651.37,-19.75"/>
<polygon fill="midnightblue" stroke="midnightblue" points="646.57,-46.62 651.33,-56.08 653.51,-45.71 646.57,-46.62"/>
</g>
<!-- Node12&#45;&gt;Node11 -->
<g id="edge14" class="edge">
<title>Node12&#45;&gt;Node11</title>
<path fill="none" stroke="midnightblue" d="M662.96,-29.69C663.61,-38.64 663.18,-48.93 661.67,-56.08"/>
<polygon fill="midnightblue" stroke="midnightblue" points="666.42,-29.2 661.63,-19.75 659.48,-30.13 666.42,-29.2"/>
</g>
<!-- Node14 -->
<g id="node14" class="node">
<title>Node14</title>
<g id="a_node14"><a xlink:href="../../de/d95/ShiftRegisterOut_8ipp.html" target="_top" xlink:title=" ">
<polygon fill="white" stroke="black" points="742.5,-0.5 742.5,-19.5 856.5,-19.5 856.5,-0.5 742.5,-0.5"/>
<text text-anchor="middle" x="799.5" y="-7.5" font-family="Helvetica,sans-Serif" font-size="10.00">ShiftRegisterOut.ipp</text>
</a>
</g>
</g>
<!-- Node13&#45;&gt;Node14 -->
<g id="edge16" class="edge">
<title>Node13&#45;&gt;Node14</title>
<path fill="none" stroke="midnightblue" d="M793.03,-46.1C792.4,-37.14 792.84,-26.86 794.37,-19.75"/>
<polygon fill="midnightblue" stroke="midnightblue" points="789.57,-46.62 794.33,-56.08 796.51,-45.71 789.57,-46.62"/>
</g>
<!-- Node14&#45;&gt;Node13 -->
<g id="edge17" class="edge">
<title>Node14&#45;&gt;Node13</title>
<path fill="none" stroke="midnightblue" d="M805.96,-29.69C806.61,-38.64 806.18,-48.93 804.67,-56.08"/>
<polygon fill="midnightblue" stroke="midnightblue" points="809.42,-29.2 804.63,-19.75 802.48,-30.13 809.42,-29.2"/>
</g>
<!-- Node15&#45;&gt;Node10 -->
<g id="edge19" class="edge">
<title>Node15&#45;&gt;Node10</title>
<path fill="none" stroke="midnightblue" d="M917.97,-79.32C892.11,-89.44 853.82,-103.52 827.72,-112.44"/>
<polygon fill="midnightblue" stroke="midnightblue" points="919.55,-82.46 927.55,-75.52 916.97,-75.95 919.55,-82.46"/>
</g>
<!-- Node16&#45;&gt;Node4 -->
<g id="edge21" class="edge">
<title>Node16&#45;&gt;Node4</title>
<path fill="none" stroke="midnightblue" d="M156.52,-327.86C163.62,-318.5 172.1,-307.33 177.86,-299.75"/>
<polygon fill="midnightblue" stroke="midnightblue" points="153.53,-326 150.27,-336.08 159.11,-330.24 153.53,-326"/>
</g>
<!-- Node18 -->
<g id="node18" class="node">
<title>Node18</title>
<g id="a_node18"><a xlink:href="../../df/da1/Notch_8hpp.html" target="_top" xlink:title=" ">
<polygon fill="white" stroke="black" points="5.5,-336.5 5.5,-355.5 71.5,-355.5 71.5,-336.5 5.5,-336.5"/>
<text text-anchor="middle" x="38.5" y="-343.5" font-family="Helvetica,sans-Serif" font-size="10.00">Notch.hpp</text>
</a>
</g>
</g>
<!-- Node17&#45;&gt;Node18 -->
<g id="edge23" class="edge">
<title>Node17&#45;&gt;Node18</title>
<path fill="none" stroke="midnightblue" d="M38.5,-381.8C38.5,-372.91 38.5,-362.78 38.5,-355.75"/>
<polygon fill="midnightblue" stroke="midnightblue" points="35,-382.08 38.5,-392.08 42,-382.08 35,-382.08"/>
</g>
<!-- Node20 -->
<g id="node20" class="node">
<title>Node20</title>
<g id="a_node20"><a xlink:href="../../d2/d3c/Arduino-Hardware-Types_8hpp.html" target="_top" xlink:title=" ">
<polygon fill="white" stroke="black" points="852,-336.5 852,-355.5 1009,-355.5 1009,-336.5 852,-336.5"/>
<text text-anchor="middle" x="930.5" y="-343.5" font-family="Helvetica,sans-Serif" font-size="10.00">Arduino&#45;Hardware&#45;Types.hpp</text>
</a>
</g>
</g>
<!-- Node19&#45;&gt;Node20 -->
<g id="edge25" class="edge">
<title>Node19&#45;&gt;Node20</title>
<path fill="none" stroke="midnightblue" d="M865.48,-386.9C881.61,-377 902.68,-364.07 916.4,-355.65"/>
<polygon fill="midnightblue" stroke="midnightblue" points="863.33,-384.11 856.64,-392.32 866.99,-390.08 863.33,-384.11"/>
</g>
<!-- Node29 -->
<g id="node29" class="node">
<title>Node29</title>
<g id="a_node29"><a xlink:href="../../d9/d4b/ButtonMatrix_8hpp.html" target="_top" xlink:title=" ">
<polygon fill="white" stroke="black" points="1737,-168.5 1737,-187.5 1838,-187.5 1838,-168.5 1737,-168.5"/>
<text text-anchor="middle" x="1787.5" y="-175.5" font-family="Helvetica,sans-Serif" font-size="10.00">ButtonMatrix.hpp</text>
</a>
</g>
</g>
<!-- Node19&#45;&gt;Node29 -->
<g id="edge54" class="edge">
<title>Node19&#45;&gt;Node29</title>
<path fill="none" stroke="midnightblue" d="M902.75,-390.81C1058.17,-364.16 1469.49,-291.21 1599.5,-244 1617.44,-237.49 1619.83,-231.22 1637.5,-224 1675.75,-208.37 1721.46,-195.43 1752.29,-187.51"/>
<polygon fill="midnightblue" stroke="midnightblue" points="902.16,-387.36 892.89,-392.5 903.34,-394.26 902.16,-387.36"/>
</g>
<!-- Node30 -->
<g id="node30" class="node">
<title>Node30</title>
<g id="a_node30"><a xlink:href="../../d4/d57/ExtendedIOElement_8hpp.html" target="_top" xlink:title=" ">
<polygon fill="white" stroke="black" points="686.5,-224.5 686.5,-243.5 820.5,-243.5 820.5,-224.5 686.5,-224.5"/>
<text text-anchor="middle" x="753.5" y="-231.5" font-family="Helvetica,sans-Serif" font-size="10.00">ExtendedIOElement.hpp</text>
</a>
</g>
</g>
<!-- Node19&#45;&gt;Node30 -->
<g id="edge55" class="edge">
<title>Node19&#45;&gt;Node30</title>
<path fill="none" stroke="midnightblue" d="M832.77,-382.86C813.68,-347.25 771.97,-269.45 758.09,-243.57"/>
<polygon fill="midnightblue" stroke="midnightblue" points="829.91,-384.92 837.71,-392.08 836.07,-381.61 829.91,-384.92"/>
</g>
<!-- Node33 -->
<g id="node33" class="node">
<title>Node33</title>
<g id="a_node33"><a xlink:href="../../d8/df3/FilteredAnalog_8hpp.html" target="_top" xlink:title=" ">
<polygon fill="white" stroke="black" points="1482.5,-224.5 1482.5,-243.5 1590.5,-243.5 1590.5,-224.5 1482.5,-224.5"/>
<text text-anchor="middle" x="1536.5" y="-231.5" font-family="Helvetica,sans-Serif" font-size="10.00">FilteredAnalog.hpp</text>
</a>
</g>
</g>
<!-- Node19&#45;&gt;Node33 -->
<g id="edge56" class="edge">
<title>Node19&#45;&gt;Node33</title>
<path fill="none" stroke="midnightblue" d="M888.34,-390.03C1017.9,-359.05 1384.83,-271.28 1500.86,-243.52"/>
<polygon fill="midnightblue" stroke="midnightblue" points="887.26,-386.69 878.35,-392.42 888.89,-393.5 887.26,-386.69"/>
</g>
<!-- Node21 -->
<g id="node21" class="node">
<title>Node21</title>
<g id="a_node21"><a xlink:href="../../dd/ddf/ExtendedInputOutput_8hpp.html" target="_top" xlink:title=" ">
<polygon fill="white" stroke="black" points="930,-280.5 930,-299.5 1071,-299.5 1071,-280.5 930,-280.5"/>
<text text-anchor="middle" x="1000.5" y="-287.5" font-family="Helvetica,sans-Serif" font-size="10.00">ExtendedInputOutput.hpp</text>
</a>
</g>
</g>
<!-- Node20&#45;&gt;Node21 -->
<g id="edge26" class="edge">
<title>Node20&#45;&gt;Node21</title>
<path fill="none" stroke="midnightblue" d="M949.81,-330.1C962.41,-320.38 978.43,-308.03 989.05,-299.83"/>
<polygon fill="midnightblue" stroke="midnightblue" points="947.53,-327.44 941.75,-336.32 951.8,-332.99 947.53,-327.44"/>
</g>
<!-- Node21&#45;&gt;Node2 -->
<g id="edge27" class="edge">
<title>Node21&#45;&gt;Node2</title>
<path fill="none" stroke="midnightblue" d="M919.52,-286.94C765.65,-281.36 439.11,-261.01 357.5,-188 341.2,-173.42 338.56,-145.71 338.33,-131.65"/>
<polygon fill="midnightblue" stroke="midnightblue" points="919.73,-290.45 929.84,-287.3 919.97,-283.45 919.73,-290.45"/>
</g>
<!-- Node21&#45;&gt;Node8 -->
<g id="edge48" class="edge">
<title>Node21&#45;&gt;Node8</title>
<path fill="none" stroke="midnightblue" d="M964.45,-276.74C946.65,-269.35 925.78,-258.52 910.5,-244 882.36,-217.27 899.85,-189.43 867.5,-168 839.02,-149.13 616.86,-132.34 520.19,-125.85"/>
<polygon fill="midnightblue" stroke="midnightblue" points="963.37,-280.08 973.96,-280.49 965.94,-273.57 963.37,-280.08"/>
</g>
<!-- Node21&#45;&gt;Node10 -->
<g id="edge52" class="edge">
<title>Node21&#45;&gt;Node10</title>
<path fill="none" stroke="midnightblue" d="M993.25,-270.9C980.87,-240.8 955.38,-182.37 938.5,-168 916.09,-148.93 885.45,-137.9 858.64,-131.54"/>
<polygon fill="midnightblue" stroke="midnightblue" points="990.04,-272.29 997.04,-280.24 996.52,-269.66 990.04,-272.29"/>
</g>
<!-- Node21&#45;&gt;Node12 -->
<g id="edge50" class="edge">
<title>Node21&#45;&gt;Node12</title>
<path fill="none" stroke="midnightblue" d="M987.32,-272.27C963.41,-242.35 913.16,-181.52 889.5,-168 765.46,-97.12 661.45,-194.4 581.5,-76 565.01,-51.58 604.01,-30.78 631.73,-19.66"/>
<polygon fill="midnightblue" stroke="midnightblue" points="984.88,-274.83 993.84,-280.48 990.36,-270.47 984.88,-274.83"/>
</g>
<!-- Node21&#45;&gt;Node14 -->
<g id="edge51" class="edge">
<title>Node21&#45;&gt;Node14</title>
<path fill="none" stroke="midnightblue" d="M1009.98,-270.95C1030.99,-228.21 1075.61,-119.62 1023.5,-56 1002.8,-30.72 915.97,-19.34 856.7,-14.44"/>
<polygon fill="midnightblue" stroke="midnightblue" points="1006.74,-269.62 1005.34,-280.12 1012.98,-272.78 1006.74,-269.62"/>
</g>
<!-- Node21&#45;&gt;Node15 -->
<g id="edge53" class="edge">
<title>Node21&#45;&gt;Node15</title>
<path fill="none" stroke="midnightblue" d="M1001.83,-270.41C1003.5,-237.22 1003.83,-166.19 981.5,-112 975.55,-97.57 963.49,-84.02 954.97,-75.63"/>
<polygon fill="midnightblue" stroke="midnightblue" points="998.33,-270.29 1001.22,-280.48 1005.32,-270.71 998.33,-270.29"/>
</g>
<!-- Node22 -->
<g id="node22" class="node">
<title>Node22</title>
<g id="a_node22"><a xlink:href="../../d4/db3/Button_8hpp.html" target="_top" xlink:title=" ">
<polygon fill="white" stroke="black" points="1198.5,-224.5 1198.5,-243.5 1268.5,-243.5 1268.5,-224.5 1198.5,-224.5"/>
<text text-anchor="middle" x="1233.5" y="-231.5" font-family="Helvetica,sans-Serif" font-size="10.00">Button.hpp</text>
</a>
</g>
</g>
<!-- Node21&#45;&gt;Node22 -->
<g id="edge28" class="edge">
<title>Node21&#45;&gt;Node22</title>
<path fill="none" stroke="midnightblue" d="M1047.42,-278.12C1092,-267.79 1158.04,-252.49 1198.28,-243.16"/>
<polygon fill="midnightblue" stroke="midnightblue" points="1046.37,-274.78 1037.42,-280.44 1047.95,-281.6 1046.37,-274.78"/>
</g>
<!-- Node28 -->
<g id="node28" class="node">
<title>Node28</title>
<g id="a_node28"><a xlink:href="../../d5/d41/ButtonMatrix_8ipp.html" target="_top" xlink:title=" ">
<polygon fill="white" stroke="black" points="1286.5,-224.5 1286.5,-243.5 1384.5,-243.5 1384.5,-224.5 1286.5,-224.5"/>
<text text-anchor="middle" x="1335.5" y="-231.5" font-family="Helvetica,sans-Serif" font-size="10.00">ButtonMatrix.ipp</text>
</a>
</g>
</g>
<!-- Node21&#45;&gt;Node28 -->
<g id="edge34" class="edge">
<title>Node21&#45;&gt;Node28</title>
<path fill="none" stroke="midnightblue" d="M1063.65,-278.82C1128.33,-268.4 1227.49,-252.41 1286.48,-242.9"/>
<polygon fill="midnightblue" stroke="midnightblue" points="1062.9,-275.4 1053.58,-280.44 1064.01,-282.31 1062.9,-275.4"/>
</g>
<!-- Node21&#45;&gt;Node30 -->
<g id="edge37" class="edge">
<title>Node21&#45;&gt;Node30</title>
<path fill="none" stroke="midnightblue" d="M951.47,-278.28C904.8,-268.08 835.47,-252.92 792.45,-243.52"/>
<polygon fill="midnightblue" stroke="midnightblue" points="950.85,-281.73 961.36,-280.44 952.34,-274.89 950.85,-281.73"/>
</g>
<!-- Node32 -->
<g id="node32" class="node">
<title>Node32</title>
<g id="a_node32"><a xlink:href="../../d6/d3c/ExtendedInputOutput_8cpp.html" target="_top" xlink:title=" ">
<polygon fill="white" stroke="black" points="718.5,-168.5 718.5,-187.5 858.5,-187.5 858.5,-168.5 718.5,-168.5"/>
<text text-anchor="middle" x="788.5" y="-175.5" font-family="Helvetica,sans-Serif" font-size="10.00">ExtendedInputOutput.cpp</text>
</a>
</g>
</g>
<!-- Node21&#45;&gt;Node32 -->
<g id="edge41" class="edge">
<title>Node21&#45;&gt;Node32</title>
<path fill="none" stroke="midnightblue" d="M957.41,-277.62C931.87,-269.97 899.35,-258.61 872.5,-244 842.7,-227.78 812.34,-201.3 797.62,-187.68"/>
<polygon fill="midnightblue" stroke="midnightblue" points="956.61,-281.03 967.19,-280.47 958.57,-274.31 956.61,-281.03"/>
</g>
<!-- Node21&#45;&gt;Node33 -->
<g id="edge42" class="edge">
<title>Node21&#45;&gt;Node33</title>
<path fill="none" stroke="midnightblue" d="M1081.16,-282.49C1175.41,-274.61 1335.98,-260.35 1473.5,-244 1476.35,-243.66 1479.28,-243.3 1482.23,-242.92"/>
<polygon fill="midnightblue" stroke="midnightblue" points="1080.81,-279.01 1071.13,-283.32 1081.39,-285.98 1080.81,-279.01"/>
</g>
<!-- Node34 -->
<g id="node34" class="node">
<title>Node34</title>
<g id="a_node34"><a xlink:href="../../d9/d4f/LEDs_8hpp.html" target="_top" xlink:title=" ">
<polygon fill="white" stroke="black" points="1402.5,-224.5 1402.5,-243.5 1464.5,-243.5 1464.5,-224.5 1402.5,-224.5"/>
<text text-anchor="middle" x="1433.5" y="-231.5" font-family="Helvetica,sans-Serif" font-size="10.00">LEDs.hpp</text>
</a>
</g>
</g>
<!-- Node21&#45;&gt;Node34 -->
<g id="edge43" class="edge">
<title>Node21&#45;&gt;Node34</title>
<path fill="none" stroke="midnightblue" d="M1081.07,-282.32C1160.76,-275.12 1286.03,-262.19 1393.5,-244 1396.31,-243.52 1399.21,-242.98 1402.12,-242.39"/>
<polygon fill="midnightblue" stroke="midnightblue" points="1080.75,-278.84 1071.1,-283.22 1081.38,-285.81 1080.75,-278.84"/>
</g>
<!-- Node36 -->
<g id="node36" class="node">
<title>Node36</title>
<g id="a_node36"><a xlink:href="../../d7/d13/MAX7219__Base_8hpp.html" target="_top" xlink:title=" ">
<polygon fill="white" stroke="black" points="1067,-224.5 1067,-243.5 1180,-243.5 1180,-224.5 1067,-224.5"/>
<text text-anchor="middle" x="1123.5" y="-231.5" font-family="Helvetica,sans-Serif" font-size="10.00">MAX7219_Base.hpp</text>
</a>
</g>
</g>
<!-- Node21&#45;&gt;Node36 -->
<g id="edge45" class="edge">
<title>Node21&#45;&gt;Node36</title>
<path fill="none" stroke="midnightblue" d="M1029.27,-276.37C1052.31,-266.26 1083.98,-252.35 1104.1,-243.52"/>
<polygon fill="midnightblue" stroke="midnightblue" points="1027.74,-273.22 1019.99,-280.44 1030.55,-279.63 1027.74,-273.22"/>
</g>
<!-- Node38 -->
<g id="node38" class="node">
<title>Node38</title>
<g id="a_node38"><a xlink:href="../../d8/dd2/MCP23017Encoders_8hpp.html" target="_top" xlink:title=" ">
<polygon fill="white" stroke="black" points="1646.5,-224.5 1646.5,-243.5 1780.5,-243.5 1780.5,-224.5 1646.5,-224.5"/>
<text text-anchor="middle" x="1713.5" y="-231.5" font-family="Helvetica,sans-Serif" font-size="10.00">MCP23017Encoders.hpp</text>
</a>
</g>
</g>
<!-- Node21&#45;&gt;Node38 -->
<g id="edge49" class="edge">
<title>Node21&#45;&gt;Node38</title>
<path fill="none" stroke="midnightblue" d="M1081.18,-283.04C1196.23,-274.51 1414.04,-258.29 1599.5,-244 1614.64,-242.83 1630.92,-241.56 1646.29,-240.35"/>
<polygon fill="midnightblue" stroke="midnightblue" points="1080.76,-279.56 1071.05,-283.79 1081.28,-286.54 1080.76,-279.56"/>
</g>
<!-- Node23 -->
<g id="node23" class="node">
<title>Node23</title>
<g id="a_node23"><a xlink:href="../../de/dd1/Button_8cpp.html" target="_top" xlink:title=" ">
<polygon fill="white" stroke="black" points="1316,-168.5 1316,-187.5 1385,-187.5 1385,-168.5 1316,-168.5"/>
<text text-anchor="middle" x="1350.5" y="-175.5" font-family="Helvetica,sans-Serif" font-size="10.00">Button.cpp</text>
</a>
</g>
</g>
<!-- Node22&#45;&gt;Node23 -->
<g id="edge29" class="edge">
<title>Node22&#45;&gt;Node23</title>
<path fill="none" stroke="midnightblue" d="M1261.16,-220.23C1283.05,-210.13 1313,-196.31 1332.05,-187.52"/>
<polygon fill="midnightblue" stroke="midnightblue" points="1259.65,-217.08 1252.04,-224.44 1262.59,-223.43 1259.65,-217.08"/>
</g>
<!-- Node24 -->
<g id="node24" class="node">
<title>Node24</title>
<g id="a_node24"><a xlink:href="../../d5/d04/IncrementButton_8hpp.html" target="_top" xlink:title=" ">
<polygon fill="white" stroke="black" points="1600,-168.5 1600,-187.5 1719,-187.5 1719,-168.5 1600,-168.5"/>
<text text-anchor="middle" x="1659.5" y="-175.5" font-family="Helvetica,sans-Serif" font-size="10.00">IncrementButton.hpp</text>
</a>
</g>
</g>
<!-- Node22&#45;&gt;Node24 -->
<g id="edge30" class="edge">
<title>Node22&#45;&gt;Node24</title>
<path fill="none" stroke="midnightblue" d="M1278.72,-223.93C1417.96,-202.05 1455.36,-204.81 1591.5,-188 1594.22,-187.66 1597,-187.32 1599.8,-186.96"/>
<polygon fill="midnightblue" stroke="midnightblue" points="1277.84,-220.53 1268.51,-225.55 1278.94,-227.44 1277.84,-220.53"/>
</g>
<!-- Node26 -->
<g id="node26" class="node">
<title>Node26</title>
<g id="a_node26"><a xlink:href="../../df/df5/IncrementDecrementButtons_8hpp.html" target="_top" xlink:title=" ">
<polygon fill="white" stroke="black" points="1403,-168.5 1403,-187.5 1582,-187.5 1582,-168.5 1403,-168.5"/>
<text text-anchor="middle" x="1492.5" y="-175.5" font-family="Helvetica,sans-Serif" font-size="10.00">IncrementDecrementButtons.hpp</text>
</a>
</g>
</g>
<!-- Node22&#45;&gt;Node26 -->
<g id="edge32" class="edge">
<title>Node22&#45;&gt;Node26</title>
<path fill="none" stroke="midnightblue" d="M1278.65,-223.59C1327.37,-213.43 1404.3,-197.39 1451.39,-187.57"/>
<polygon fill="midnightblue" stroke="midnightblue" points="1277.77,-220.19 1268.7,-225.66 1279.2,-227.05 1277.77,-220.19"/>
</g>
<!-- Node25 -->
<g id="node25" class="node">
<title>Node25</title>
<g id="a_node25"><a xlink:href="../../db/d9d/IncrementButton_8cpp.html" target="_top" xlink:title=" ">
<polygon fill="white" stroke="black" points="1600,-112.5 1600,-131.5 1719,-131.5 1719,-112.5 1600,-112.5"/>
<text text-anchor="middle" x="1659.5" y="-119.5" font-family="Helvetica,sans-Serif" font-size="10.00">IncrementButton.cpp</text>
</a>
</g>
</g>
<!-- Node24&#45;&gt;Node25 -->
<g id="edge31" class="edge">
<title>Node24&#45;&gt;Node25</title>
<path fill="none" stroke="midnightblue" d="M1659.5,-157.8C1659.5,-148.91 1659.5,-138.78 1659.5,-131.75"/>
<polygon fill="midnightblue" stroke="midnightblue" points="1656,-158.08 1659.5,-168.08 1663,-158.08 1656,-158.08"/>
</g>
<!-- Node27 -->
<g id="node27" class="node">
<title>Node27</title>
<g id="a_node27"><a xlink:href="../../da/d66/IncrementDecrementButtons_8cpp.html" target="_top" xlink:title=" ">
<polygon fill="white" stroke="black" points="1403.5,-112.5 1403.5,-131.5 1581.5,-131.5 1581.5,-112.5 1403.5,-112.5"/>
<text text-anchor="middle" x="1492.5" y="-119.5" font-family="Helvetica,sans-Serif" font-size="10.00">IncrementDecrementButtons.cpp</text>
</a>
</g>
</g>
<!-- Node26&#45;&gt;Node27 -->
<g id="edge33" class="edge">
<title>Node26&#45;&gt;Node27</title>
<path fill="none" stroke="midnightblue" d="M1492.5,-157.8C1492.5,-148.91 1492.5,-138.78 1492.5,-131.75"/>
<polygon fill="midnightblue" stroke="midnightblue" points="1489,-158.08 1492.5,-168.08 1496,-158.08 1489,-158.08"/>
</g>
<!-- Node28&#45;&gt;Node29 -->
<g id="edge35" class="edge">
<title>Node28&#45;&gt;Node29</title>
<path fill="none" stroke="midnightblue" d="M1390.91,-223.18C1534.74,-204.63 1574.34,-206.86 1719.5,-188 1725.05,-187.28 1730.88,-186.46 1736.72,-185.62"/>
<polygon fill="midnightblue" stroke="midnightblue" points="1390.29,-219.73 1380.83,-224.49 1391.19,-226.67 1390.29,-219.73"/>
</g>
<!-- Node29&#45;&gt;Node28 -->
<g id="edge36" class="edge">
<title>Node29&#45;&gt;Node28</title>
<path fill="none" stroke="midnightblue" d="M1731.15,-188.81C1587.24,-207.18 1547.64,-204.95 1402.5,-224 1396.74,-224.76 1390.67,-225.62 1384.62,-226.51"/>
<polygon fill="midnightblue" stroke="midnightblue" points="1731.77,-192.26 1741.24,-187.51 1730.87,-185.31 1731.77,-192.26"/>
</g>
<!-- Node30&#45;&gt;Node6 -->
<g id="edge40" class="edge">
<title>Node30&#45;&gt;Node6</title>
<path fill="none" stroke="midnightblue" d="M696.5,-222.6C640.56,-212.4 556.27,-197.02 504.18,-187.52"/>
<polygon fill="midnightblue" stroke="midnightblue" points="696.13,-226.09 706.6,-224.44 697.39,-219.21 696.13,-226.09"/>
</g>
<!-- Node31 -->
<g id="node31" class="node">
<title>Node31</title>
<g id="a_node31"><a xlink:href="../../da/d1f/ExtendedIOElement_8cpp.html" target="_top" xlink:title=" ">
<polygon fill="white" stroke="black" points="566.5,-168.5 566.5,-187.5 700.5,-187.5 700.5,-168.5 566.5,-168.5"/>
<text text-anchor="middle" x="633.5" y="-175.5" font-family="Helvetica,sans-Serif" font-size="10.00">ExtendedIOElement.cpp</text>
</a>
</g>
</g>
<!-- Node30&#45;&gt;Node31 -->
<g id="edge38" class="edge">
<title>Node30&#45;&gt;Node31</title>
<path fill="none" stroke="midnightblue" d="M725.13,-220.23C702.68,-210.13 671.96,-196.31 652.43,-187.52"/>
<polygon fill="midnightblue" stroke="midnightblue" points="723.93,-223.53 734.49,-224.44 726.8,-217.15 723.93,-223.53"/>
</g>
<!-- Node30&#45;&gt;Node32 -->
<g id="edge39" class="edge">
<title>Node30&#45;&gt;Node32</title>
<path fill="none" stroke="midnightblue" d="M764.8,-215.57C770.82,-206.27 777.97,-195.25 782.83,-187.75"/>
<polygon fill="midnightblue" stroke="midnightblue" points="761.78,-213.79 759.28,-224.08 767.66,-217.6 761.78,-213.79"/>
</g>
<!-- Node35 -->
<g id="node35" class="node">
<title>Node35</title>
<g id="a_node35"><a xlink:href="../../d6/d3a/DotBarDisplayLEDs_8hpp.html" target="_top" xlink:title=" ">
<polygon fill="white" stroke="black" points="1856.5,-168.5 1856.5,-187.5 1988.5,-187.5 1988.5,-168.5 1856.5,-168.5"/>
<text text-anchor="middle" x="1922.5" y="-175.5" font-family="Helvetica,sans-Serif" font-size="10.00">DotBarDisplayLEDs.hpp</text>
</a>
</g>
</g>
<!-- Node34&#45;&gt;Node35 -->
<g id="edge44" class="edge">
<title>Node34&#45;&gt;Node35</title>
<path fill="none" stroke="midnightblue" d="M1474.89,-223.96C1640.12,-197.94 1684.72,-205.6 1847.5,-188 1850.37,-187.69 1853.3,-187.37 1856.26,-187.03"/>
<polygon fill="midnightblue" stroke="midnightblue" points="1474.2,-220.52 1464.87,-225.55 1475.3,-227.43 1474.2,-220.52"/>
</g>
<!-- Node36&#45;&gt;Node7 -->
<g id="edge46" class="edge">
<title>Node36&#45;&gt;Node7</title>
<path fill="none" stroke="midnightblue" d="M1099.46,-219.3C1059.12,-196.3 978.91,-150.59 945.57,-131.59"/>
<polygon fill="midnightblue" stroke="midnightblue" points="1097.93,-222.46 1108.36,-224.37 1101.4,-216.38 1097.93,-222.46"/>
</g>
<!-- Node37 -->
<g id="node37" class="node">
<title>Node37</title>
<g id="a_node37"><a xlink:href="../../d5/d0c/MAX7219SevenSegmentDisplay_8hpp.html" target="_top" xlink:title=" ">
<polygon fill="white" stroke="black" points="1105,-168.5 1105,-187.5 1298,-187.5 1298,-168.5 1105,-168.5"/>
<text text-anchor="middle" x="1201.5" y="-175.5" font-family="Helvetica,sans-Serif" font-size="10.00">MAX7219SevenSegmentDisplay.hpp</text>
</a>
</g>
</g>
<!-- Node36&#45;&gt;Node37 -->
<g id="edge47" class="edge">
<title>Node36&#45;&gt;Node37</title>
<path fill="none" stroke="midnightblue" d="M1144.27,-218.62C1158.52,-208.76 1176.96,-195.99 1189,-187.65"/>
<polygon fill="midnightblue" stroke="midnightblue" points="1142.26,-215.75 1136.03,-224.32 1146.25,-221.51 1142.26,-215.75"/>
</g>
<!-- Node40&#45;&gt;Node38 -->
<g id="edge59" class="edge">
<title>Node40&#45;&gt;Node38</title>
<path fill="none" stroke="midnightblue" d="M1711.57,-269.8C1712.06,-260.91 1712.62,-250.78 1713.01,-243.75"/>
<polygon fill="midnightblue" stroke="midnightblue" points="1708.06,-269.9 1711,-280.08 1715.04,-270.29 1708.06,-269.9"/>
</g>
<!-- Node42&#45;&gt;Node16 -->
<g id="edge62" class="edge">
<title>Node42&#45;&gt;Node16</title>
<path fill="none" stroke="midnightblue" d="M177.47,-384.43C168.88,-374.97 158.46,-363.48 151.44,-355.75"/>
<polygon fill="midnightblue" stroke="midnightblue" points="175.1,-387.03 184.41,-392.08 180.28,-382.33 175.1,-387.03"/>
</g>
<!-- Node42&#45;&gt;Node39 -->
<g id="edge63" class="edge">
<title>Node42&#45;&gt;Node39</title>
<path fill="none" stroke="midnightblue" d="M205.92,-384.14C213.41,-374.74 222.44,-363.4 228.53,-355.75"/>
<polygon fill="midnightblue" stroke="midnightblue" points="203.09,-382.08 199.6,-392.08 208.57,-386.44 203.09,-382.08"/>
</g>
</g>
</svg>
