<?xml version="1.0" encoding="UTF-8" standalone="no"?>
<!DOCTYPE svg PUBLIC "-//W3C//DTD SVG 1.1//EN"
 "http://www.w3.org/Graphics/SVG/1.1/DTD/svg11.dtd">
<!-- Generated by graphviz version 2.38.0 (20140413.2041)
 -->
<!-- Title: Array.hpp Pages: 1 -->
<svg width="1432pt" height="364pt"
 viewBox="0.00 0.00 1431.50 364.00" xmlns="http://www.w3.org/2000/svg" xmlns:xlink="http://www.w3.org/1999/xlink">
<g id="graph0" class="graph" transform="scale(1 1) rotate(0) translate(4 360)">
<title>Array.hpp</title>
<polygon fill="white" stroke="none" points="-4,4 -4,-360 1427.5,-360 1427.5,4 -4,4"/>
<!-- Node1 -->
<g id="node1" class="node"><title>Node1</title>
<g id="a_node1"><a xlink:title=" ">
<polygon fill="#bfbfbf" stroke="black" points="386,-336.5 386,-355.5 445,-355.5 445,-336.5 386,-336.5"/>
<text text-anchor="middle" x="415.5" y="-343.5" font-family="Helvetica,sans-Serif" font-size="10.00">Array.hpp</text>
</a>
</g>
</g>
<!-- Node2 -->
<g id="node2" class="node"><title>Node2</title>
<g id="a_node2"><a xlink:href="../../d5/db6/ArrayHelpers_8hpp.html" target="_top" xlink:title=" ">
<polygon fill="white" stroke="black" points="350.5,-224.5 350.5,-243.5 442.5,-243.5 442.5,-224.5 350.5,-224.5"/>
<text text-anchor="middle" x="396.5" y="-231.5" font-family="Helvetica,sans-Serif" font-size="10.00">ArrayHelpers.hpp</text>
</a>
</g>
</g>
<!-- Node1&#45;&gt;Node2 -->
<g id="edge1" class="edge"><title>Node1&#45;&gt;Node2</title>
<path fill="none" stroke="midnightblue" d="M412.278,-326.348C408.117,-302.254 401.044,-261.308 397.984,-243.591"/>
<polygon fill="midnightblue" stroke="midnightblue" points="408.858,-327.11 414.009,-336.368 415.756,-325.919 408.858,-327.11"/>
</g>
<!-- Node4 -->
<g id="node4" class="node"><title>Node4</title>
<g id="a_node4"><a xlink:href="../../d7/def/AnalogMultiplex_8hpp.html" target="_top" xlink:title=" ">
<polygon fill="white" stroke="black" points="405.5,-112.5 405.5,-131.5 509.5,-131.5 509.5,-112.5 405.5,-112.5"/>
<text text-anchor="middle" x="457.5" y="-119.5" font-family="Helvetica,sans-Serif" font-size="10.00">AnalogMultiplex.hpp</text>
</a>
</g>
</g>
<!-- Node1&#45;&gt;Node4 -->
<g id="edge17" class="edge"><title>Node1&#45;&gt;Node4</title>
<path fill="none" stroke="midnightblue" d="M423.974,-327.338C437.124,-298.827 461.831,-240.534 470.5,-188 473.835,-167.789 466.247,-144.259 461.314,-131.797"/>
<polygon fill="midnightblue" stroke="midnightblue" points="420.788,-325.89 419.704,-336.429 427.123,-328.866 420.788,-325.89"/>
</g>
<!-- Node14 -->
<g id="node14" class="node"><title>Node14</title>
<g id="a_node14"><a xlink:href="../../df/db0/ZeroPoleGain_8hpp.html" target="_top" xlink:title=" ">
<polygon fill="white" stroke="black" points="0,-112.5 0,-131.5 95,-131.5 95,-112.5 0,-112.5"/>
<text text-anchor="middle" x="47.5" y="-119.5" font-family="Helvetica,sans-Serif" font-size="10.00">ZeroPoleGain.hpp</text>
</a>
</g>
</g>
<!-- Node1&#45;&gt;Node14 -->
<g id="edge55" class="edge"><title>Node1&#45;&gt;Node14</title>
<path fill="none" stroke="midnightblue" d="M375.801,-343.051C333.172,-339.447 264.678,-329.189 213.5,-300 134.82,-255.126 71.2118,-160.781 52.8554,-131.713"/>
<polygon fill="midnightblue" stroke="midnightblue" points="375.557,-346.543 385.794,-343.814 376.089,-339.563 375.557,-346.543"/>
</g>
<!-- Node15 -->
<g id="node15" class="node"><title>Node15</title>
<g id="a_node15"><a xlink:href="../../d4/d35/Hardware-Types_8hpp.html" target="_top" xlink:title=" ">
<polygon fill="white" stroke="black" points="625,-280.5 625,-299.5 732,-299.5 732,-280.5 625,-280.5"/>
<text text-anchor="middle" x="678.5" y="-287.5" font-family="Helvetica,sans-Serif" font-size="10.00">Hardware&#45;Types.hpp</text>
</a>
</g>
</g>
<!-- Node1&#45;&gt;Node15 -->
<g id="edge18" class="edge"><title>Node1&#45;&gt;Node15</title>
<path fill="none" stroke="midnightblue" d="M455.063,-336.877C504.012,-326.826 586.977,-309.792 636.864,-299.549"/>
<polygon fill="midnightblue" stroke="midnightblue" points="454.25,-333.471 445.158,-338.91 455.658,-340.328 454.25,-333.471"/>
</g>
<!-- Node33 -->
<g id="node33" class="node"><title>Node33</title>
<g id="a_node33"><a xlink:href="../../d1/dde/BiQuad_8hpp.html" target="_top" xlink:title=" ">
<polygon fill="white" stroke="black" points="174.5,-224.5 174.5,-243.5 242.5,-243.5 242.5,-224.5 174.5,-224.5"/>
<text text-anchor="middle" x="208.5" y="-231.5" font-family="Helvetica,sans-Serif" font-size="10.00">BiQuad.hpp</text>
</a>
</g>
</g>
<!-- Node1&#45;&gt;Node33 -->
<g id="edge46" class="edge"><title>Node1&#45;&gt;Node33</title>
<path fill="none" stroke="midnightblue" d="M375.882,-339.889C328.083,-332.97 251.506,-319.239 230.5,-300 214.159,-285.033 209.95,-257.502 208.87,-243.565"/>
<polygon fill="midnightblue" stroke="midnightblue" points="375.515,-343.372 385.906,-341.301 376.492,-336.44 375.515,-343.372"/>
</g>
<!-- Node34 -->
<g id="node34" class="node"><title>Node34</title>
<g id="a_node34"><a xlink:href="../../d2/d3b/FIRFilter_8hpp.html" target="_top" xlink:title=" ">
<polygon fill="white" stroke="black" points="944.5,-280.5 944.5,-299.5 1018.5,-299.5 1018.5,-280.5 944.5,-280.5"/>
<text text-anchor="middle" x="981.5" y="-287.5" font-family="Helvetica,sans-Serif" font-size="10.00">FIRFilter.hpp</text>
</a>
</g>
</g>
<!-- Node1&#45;&gt;Node34 -->
<g id="edge48" class="edge"><title>Node1&#45;&gt;Node34</title>
<path fill="none" stroke="midnightblue" d="M455.285,-341.204C560.05,-331.209 842.464,-304.265 944.273,-294.552"/>
<polygon fill="midnightblue" stroke="midnightblue" points="454.756,-337.739 445.134,-342.173 455.421,-344.707 454.756,-337.739"/>
</g>
<!-- Node36 -->
<g id="node36" class="node"><title>Node36</title>
<g id="a_node36"><a xlink:href="../../dc/d64/IIRFilter_8hpp.html" target="_top" xlink:title=" ">
<polygon fill="white" stroke="black" points="261,-224.5 261,-243.5 332,-243.5 332,-224.5 261,-224.5"/>
<text text-anchor="middle" x="296.5" y="-231.5" font-family="Helvetica,sans-Serif" font-size="10.00">IIRFilter.hpp</text>
</a>
</g>
</g>
<!-- Node1&#45;&gt;Node36 -->
<g id="edge50" class="edge"><title>Node1&#45;&gt;Node36</title>
<path fill="none" stroke="midnightblue" d="M402.37,-328.462C391.14,-314.784 374.191,-295.207 357.5,-280 342.13,-265.996 322.496,-252.137 309.716,-243.578"/>
<polygon fill="midnightblue" stroke="midnightblue" points="399.854,-330.918 408.863,-336.493 405.298,-326.516 399.854,-330.918"/>
</g>
<!-- Node37 -->
<g id="node37" class="node"><title>Node37</title>
<g id="a_node37"><a xlink:href="../../dc/d9c/SMA_8hpp.html" target="_top" xlink:title=" ">
<polygon fill="white" stroke="black" points="750,-280.5 750,-299.5 807,-299.5 807,-280.5 750,-280.5"/>
<text text-anchor="middle" x="778.5" y="-287.5" font-family="Helvetica,sans-Serif" font-size="10.00">SMA.hpp</text>
</a>
</g>
</g>
<!-- Node1&#45;&gt;Node37 -->
<g id="edge51" class="edge"><title>Node1&#45;&gt;Node37</title>
<path fill="none" stroke="midnightblue" d="M455.274,-340.726C516.73,-333.845 638.35,-319.124 740.5,-300 743.565,-299.426 746.756,-298.768 749.928,-298.074"/>
<polygon fill="midnightblue" stroke="midnightblue" points="454.781,-337.259 445.228,-341.841 455.553,-344.217 454.781,-337.259"/>
</g>
<!-- Node38 -->
<g id="node38" class="node"><title>Node38</title>
<g id="a_node38"><a xlink:href="../../d2/d03/TransferFunction_8hpp.html" target="_top" xlink:title=" ">
<polygon fill="white" stroke="black" points="240,-280.5 240,-299.5 349,-299.5 349,-280.5 240,-280.5"/>
<text text-anchor="middle" x="294.5" y="-287.5" font-family="Helvetica,sans-Serif" font-size="10.00">TransferFunction.hpp</text>
</a>
</g>
</g>
<!-- Node1&#45;&gt;Node38 -->
<g id="edge52" class="edge"><title>Node1&#45;&gt;Node38</title>
<path fill="none" stroke="midnightblue" d="M387.194,-332.368C364.535,-322.255 333.374,-308.349 313.583,-299.516"/>
<polygon fill="midnightblue" stroke="midnightblue" points="385.769,-335.564 396.327,-336.444 388.622,-329.172 385.769,-335.564"/>
</g>
<!-- Node3 -->
<g id="node3" class="node"><title>Node3</title>
<g id="a_node3"><a xlink:href="../../d2/d05/StaticSizeExtendedIOElement_8hpp.html" target="_top" xlink:title=" ">
<polygon fill="white" stroke="black" points="293.5,-168.5 293.5,-187.5 461.5,-187.5 461.5,-168.5 293.5,-168.5"/>
<text text-anchor="middle" x="377.5" y="-175.5" font-family="Helvetica,sans-Serif" font-size="10.00">StaticSizeExtendedIOElement.hpp</text>
</a>
</g>
</g>
<!-- Node2&#45;&gt;Node3 -->
<g id="edge2" class="edge"><title>Node2&#45;&gt;Node3</title>
<path fill="none" stroke="midnightblue" d="M389.954,-214.396C386.776,-205.362 383.107,-194.936 380.579,-187.751"/>
<polygon fill="midnightblue" stroke="midnightblue" points="386.742,-215.812 393.363,-224.083 393.345,-213.488 386.742,-215.812"/>
</g>
<!-- Node12 -->
<g id="node12" class="node"><title>Node12</title>
<g id="a_node12"><a xlink:href="../../df/ddc/SOSFilter_8hpp.html" target="_top" xlink:title=" ">
<polygon fill="white" stroke="black" points="143.5,-168.5 143.5,-187.5 221.5,-187.5 221.5,-168.5 143.5,-168.5"/>
<text text-anchor="middle" x="182.5" y="-175.5" font-family="Helvetica,sans-Serif" font-size="10.00">SOSFilter.hpp</text>
</a>
</g>
</g>
<!-- Node2&#45;&gt;Node12 -->
<g id="edge14" class="edge"><title>Node2&#45;&gt;Node12</title>
<path fill="none" stroke="midnightblue" d="M352.745,-221.959C312.326,-211.76 253.127,-196.822 216.25,-187.516"/>
<polygon fill="midnightblue" stroke="midnightblue" points="352.039,-225.39 362.591,-224.444 353.751,-218.603 352.039,-225.39"/>
</g>
<!-- Node3&#45;&gt;Node4 -->
<g id="edge3" class="edge"><title>Node3&#45;&gt;Node4</title>
<path fill="none" stroke="midnightblue" d="M398.801,-162.622C413.415,-152.757 432.327,-139.992 444.679,-131.655"/>
<polygon fill="midnightblue" stroke="midnightblue" points="396.684,-159.828 390.353,-168.324 400.6,-165.63 396.684,-159.828"/>
</g>
<!-- Node5 -->
<g id="node5" class="node"><title>Node5</title>
<g id="a_node5"><a xlink:href="../../d2/d25/MAX7219_8hpp.html" target="_top" xlink:title=" ">
<polygon fill="white" stroke="black" points="543.5,-56.5 543.5,-75.5 621.5,-75.5 621.5,-56.5 543.5,-56.5"/>
<text text-anchor="middle" x="582.5" y="-63.5" font-family="Helvetica,sans-Serif" font-size="10.00">MAX7219.hpp</text>
</a>
</g>
</g>
<!-- Node3&#45;&gt;Node5 -->
<g id="edge4" class="edge"><title>Node3&#45;&gt;Node5</title>
<path fill="none" stroke="midnightblue" d="M378.107,-158.102C379.601,-143.529 384.015,-123.911 396.5,-112 407.137,-101.852 491.981,-84.2247 543.333,-74.312"/>
<polygon fill="midnightblue" stroke="midnightblue" points="374.589,-158.259 377.436,-168.464 381.575,-158.711 374.589,-158.259"/>
</g>
<!-- Node6 -->
<g id="node6" class="node"><title>Node6</title>
<g id="a_node6"><a xlink:href="../../d8/d93/ShiftRegisterOutBase_8hpp.html" target="_top" xlink:title=" ">
<polygon fill="white" stroke="black" points="218,-112.5 218,-131.5 349,-131.5 349,-112.5 218,-112.5"/>
<text text-anchor="middle" x="283.5" y="-119.5" font-family="Helvetica,sans-Serif" font-size="10.00">ShiftRegisterOutBase.hpp</text>
</a>
</g>
</g>
<!-- Node3&#45;&gt;Node6 -->
<g id="edge5" class="edge"><title>Node3&#45;&gt;Node6</title>
<path fill="none" stroke="midnightblue" d="M353.438,-163.177C336.141,-153.241 313.352,-140.149 298.565,-131.655"/>
<polygon fill="midnightblue" stroke="midnightblue" points="351.983,-166.378 362.397,-168.324 355.47,-160.308 351.983,-166.378"/>
</g>
<!-- Node7 -->
<g id="node7" class="node"><title>Node7</title>
<g id="a_node7"><a xlink:href="../../d0/db4/ShiftRegisterOut_8hpp.html" target="_top" xlink:title=" ">
<polygon fill="white" stroke="black" points="271.5,-56.5 271.5,-75.5 379.5,-75.5 379.5,-56.5 271.5,-56.5"/>
<text text-anchor="middle" x="325.5" y="-63.5" font-family="Helvetica,sans-Serif" font-size="10.00">ShiftRegisterOut.hpp</text>
</a>
</g>
</g>
<!-- Node6&#45;&gt;Node7 -->
<g id="edge6" class="edge"><title>Node6&#45;&gt;Node7</title>
<path fill="none" stroke="midnightblue" d="M296.61,-104.144C303.928,-94.7357 312.741,-83.4046 318.694,-75.7511"/>
<polygon fill="midnightblue" stroke="midnightblue" points="293.812,-102.041 290.435,-112.083 299.338,-106.338 293.812,-102.041"/>
</g>
<!-- Node9 -->
<g id="node9" class="node"><title>Node9</title>
<g id="a_node9"><a xlink:href="../../d5/d47/ShiftRegisterOutBase_8ipp.html" target="_top" xlink:title=" ">
<polygon fill="white" stroke="black" points="397.5,-56.5 397.5,-75.5 525.5,-75.5 525.5,-56.5 397.5,-56.5"/>
<text text-anchor="middle" x="461.5" y="-63.5" font-family="Helvetica,sans-Serif" font-size="10.00">ShiftRegisterOutBase.ipp</text>
</a>
</g>
</g>
<!-- Node6&#45;&gt;Node9 -->
<g id="edge9" class="edge"><title>Node6&#45;&gt;Node9</title>
<path fill="none" stroke="midnightblue" d="M316.377,-109.304C348.307,-99.1294 396.318,-84.6246 428.347,-75.5164"/>
<polygon fill="midnightblue" stroke="midnightblue" points="315.064,-106.05 306.616,-112.444 317.207,-112.714 315.064,-106.05"/>
</g>
<!-- Node10 -->
<g id="node10" class="node"><title>Node10</title>
<g id="a_node10"><a xlink:href="../../d7/d88/SPIShiftRegisterOut_8hpp.html" target="_top" xlink:title=" ">
<polygon fill="white" stroke="black" points="128,-56.5 128,-75.5 253,-75.5 253,-56.5 128,-56.5"/>
<text text-anchor="middle" x="190.5" y="-63.5" font-family="Helvetica,sans-Serif" font-size="10.00">SPIShiftRegisterOut.hpp</text>
</a>
</g>
</g>
<!-- Node6&#45;&gt;Node10 -->
<g id="edge11" class="edge"><title>Node6&#45;&gt;Node10</title>
<path fill="none" stroke="midnightblue" d="M259.694,-107.177C242.581,-97.2407 220.035,-84.1492 205.405,-75.6545"/>
<polygon fill="midnightblue" stroke="midnightblue" points="258.153,-110.329 268.558,-112.324 261.668,-104.276 258.153,-110.329"/>
</g>
<!-- Node8 -->
<g id="node8" class="node"><title>Node8</title>
<g id="a_node8"><a xlink:href="../../de/d95/ShiftRegisterOut_8ipp.html" target="_top" xlink:title=" ">
<polygon fill="white" stroke="black" points="273,-0.5 273,-19.5 378,-19.5 378,-0.5 273,-0.5"/>
<text text-anchor="middle" x="325.5" y="-7.5" font-family="Helvetica,sans-Serif" font-size="10.00">ShiftRegisterOut.ipp</text>
</a>
</g>
</g>
<!-- Node7&#45;&gt;Node8 -->
<g id="edge7" class="edge"><title>Node7&#45;&gt;Node8</title>
<path fill="none" stroke="midnightblue" d="M319.028,-46.1005C318.396,-37.1357 318.843,-26.8579 320.369,-19.7511"/>
<polygon fill="midnightblue" stroke="midnightblue" points="315.566,-46.6216 320.334,-56.083 322.507,-45.7134 315.566,-46.6216"/>
</g>
<!-- Node8&#45;&gt;Node7 -->
<g id="edge8" class="edge"><title>Node8&#45;&gt;Node7</title>
<path fill="none" stroke="midnightblue" d="M331.958,-29.6911C332.606,-38.6353 332.176,-48.9272 330.666,-56.083"/>
<polygon fill="midnightblue" stroke="midnightblue" points="335.423,-29.2002 330.631,-19.7511 328.485,-30.1262 335.423,-29.2002"/>
</g>
<!-- Node9&#45;&gt;Node6 -->
<g id="edge10" class="edge"><title>Node9&#45;&gt;Node6</title>
<path fill="none" stroke="midnightblue" d="M428.763,-78.6509C396.88,-88.8133 348.87,-103.32 316.793,-112.444"/>
<polygon fill="midnightblue" stroke="midnightblue" points="430.059,-81.9106 438.507,-75.5164 427.916,-75.2469 430.059,-81.9106"/>
</g>
<!-- Node11 -->
<g id="node11" class="node"><title>Node11</title>
<g id="a_node11"><a xlink:href="../../da/d45/SPIShiftRegisterOut_8ipp.html" target="_top" xlink:title=" ">
<polygon fill="white" stroke="black" points="129.5,-0.5 129.5,-19.5 251.5,-19.5 251.5,-0.5 129.5,-0.5"/>
<text text-anchor="middle" x="190.5" y="-7.5" font-family="Helvetica,sans-Serif" font-size="10.00">SPIShiftRegisterOut.ipp</text>
</a>
</g>
</g>
<!-- Node10&#45;&gt;Node11 -->
<g id="edge12" class="edge"><title>Node10&#45;&gt;Node11</title>
<path fill="none" stroke="midnightblue" d="M184.028,-46.1005C183.396,-37.1357 183.843,-26.8579 185.369,-19.7511"/>
<polygon fill="midnightblue" stroke="midnightblue" points="180.566,-46.6216 185.334,-56.083 187.507,-45.7134 180.566,-46.6216"/>
</g>
<!-- Node11&#45;&gt;Node10 -->
<g id="edge13" class="edge"><title>Node11&#45;&gt;Node10</title>
<path fill="none" stroke="midnightblue" d="M196.958,-29.6911C197.606,-38.6353 197.176,-48.9272 195.666,-56.083"/>
<polygon fill="midnightblue" stroke="midnightblue" points="200.423,-29.2002 195.631,-19.7511 193.485,-30.1262 200.423,-29.2002"/>
</g>
<!-- Node13 -->
<g id="node13" class="node"><title>Node13</title>
<g id="a_node13"><a xlink:href="../../d4/d40/Butterworth_8hpp.html" target="_top" xlink:title=" ">
<polygon fill="white" stroke="black" points="113.5,-112.5 113.5,-131.5 199.5,-131.5 199.5,-112.5 113.5,-112.5"/>
<text text-anchor="middle" x="156.5" y="-119.5" font-family="Helvetica,sans-Serif" font-size="10.00">Butterworth.hpp</text>
</a>
</g>
</g>
<!-- Node12&#45;&gt;Node13 -->
<g id="edge15" class="edge"><title>Node12&#45;&gt;Node13</title>
<path fill="none" stroke="midnightblue" d="M173.825,-158.983C169.412,-149.817 164.248,-139.092 160.713,-131.751"/>
<polygon fill="midnightblue" stroke="midnightblue" points="170.715,-160.591 178.207,-168.083 177.022,-157.555 170.715,-160.591"/>
</g>
<!-- Node12&#45;&gt;Node14 -->
<g id="edge16" class="edge"><title>Node12&#45;&gt;Node14</title>
<path fill="none" stroke="midnightblue" d="M151.594,-164.638C126.26,-154.504 91.0686,-140.427 68.7911,-131.516"/>
<polygon fill="midnightblue" stroke="midnightblue" points="150.524,-167.979 161.109,-168.444 153.124,-161.48 150.524,-167.979"/>
</g>
<!-- Node16 -->
<g id="node16" class="node"><title>Node16</title>
<g id="a_node16"><a xlink:href="../../d9/d4b/ButtonMatrix_8hpp.html" target="_top" xlink:title=" ">
<polygon fill="white" stroke="black" points="1186,-168.5 1186,-187.5 1277,-187.5 1277,-168.5 1186,-168.5"/>
<text text-anchor="middle" x="1231.5" y="-175.5" font-family="Helvetica,sans-Serif" font-size="10.00">ButtonMatrix.hpp</text>
</a>
</g>
</g>
<!-- Node15&#45;&gt;Node16 -->
<g id="edge19" class="edge"><title>Node15&#45;&gt;Node16</title>
<path fill="none" stroke="midnightblue" d="M742.274,-279.804C863.144,-263.991 898.511,-277.207 1012.5,-244 1032.74,-238.105 1035.65,-231.085 1055.5,-224 1100.05,-208.097 1152.82,-195.381 1188.88,-187.577"/>
<polygon fill="midnightblue" stroke="midnightblue" points="741.705,-276.348 732.263,-281.154 742.641,-283.286 741.705,-276.348"/>
</g>
<!-- Node18 -->
<g id="node18" class="node"><title>Node18</title>
<g id="a_node18"><a xlink:href="../../d4/d57/ExtendedIOElement_8hpp.html" target="_top" xlink:title=" ">
<polygon fill="white" stroke="black" points="617,-224.5 617,-243.5 740,-243.5 740,-224.5 617,-224.5"/>
<text text-anchor="middle" x="678.5" y="-231.5" font-family="Helvetica,sans-Serif" font-size="10.00">ExtendedIOElement.hpp</text>
</a>
</g>
</g>
<!-- Node15&#45;&gt;Node18 -->
<g id="edge22" class="edge"><title>Node15&#45;&gt;Node18</title>
<path fill="none" stroke="midnightblue" d="M678.5,-269.805C678.5,-260.91 678.5,-250.78 678.5,-243.751"/>
<polygon fill="midnightblue" stroke="midnightblue" points="675,-270.083 678.5,-280.083 682,-270.083 675,-270.083"/>
</g>
<!-- Node27 -->
<g id="node27" class="node"><title>Node27</title>
<g id="a_node27"><a xlink:href="../../d8/df3/FilteredAnalog_8hpp.html" target="_top" xlink:title=" ">
<polygon fill="white" stroke="black" points="1071.5,-112.5 1071.5,-131.5 1169.5,-131.5 1169.5,-112.5 1071.5,-112.5"/>
<text text-anchor="middle" x="1120.5" y="-119.5" font-family="Helvetica,sans-Serif" font-size="10.00">FilteredAnalog.hpp</text>
</a>
</g>
</g>
<!-- Node15&#45;&gt;Node27 -->
<g id="edge45" class="edge"><title>Node15&#45;&gt;Node27</title>
<path fill="none" stroke="midnightblue" d="M717.177,-277.401C774.77,-259.811 886.193,-224.549 978.5,-188 1024.38,-169.834 1076.8,-144.645 1103.26,-131.6"/>
<polygon fill="midnightblue" stroke="midnightblue" points="715.95,-274.116 707.401,-280.375 717.987,-280.813 715.95,-274.116"/>
</g>
<!-- Node17 -->
<g id="node17" class="node"><title>Node17</title>
<g id="a_node17"><a xlink:href="../../d5/d41/ButtonMatrix_8ipp.html" target="_top" xlink:title=" ">
<polygon fill="white" stroke="black" points="1187.5,-112.5 1187.5,-131.5 1275.5,-131.5 1275.5,-112.5 1187.5,-112.5"/>
<text text-anchor="middle" x="1231.5" y="-119.5" font-family="Helvetica,sans-Serif" font-size="10.00">ButtonMatrix.ipp</text>
</a>
</g>
</g>
<!-- Node16&#45;&gt;Node17 -->
<g id="edge20" class="edge"><title>Node16&#45;&gt;Node17</title>
<path fill="none" stroke="midnightblue" d="M1225.03,-158.101C1224.4,-149.136 1224.84,-138.858 1226.37,-131.751"/>
<polygon fill="midnightblue" stroke="midnightblue" points="1221.57,-158.622 1226.33,-168.083 1228.51,-157.713 1221.57,-158.622"/>
</g>
<!-- Node17&#45;&gt;Node16 -->
<g id="edge21" class="edge"><title>Node17&#45;&gt;Node16</title>
<path fill="none" stroke="midnightblue" d="M1237.96,-141.691C1238.61,-150.635 1238.18,-160.927 1236.67,-168.083"/>
<polygon fill="midnightblue" stroke="midnightblue" points="1241.42,-141.2 1236.63,-131.751 1234.48,-142.126 1241.42,-141.2"/>
</g>
<!-- Node18&#45;&gt;Node3 -->
<g id="edge42" class="edge"><title>Node18&#45;&gt;Node3</title>
<path fill="none" stroke="midnightblue" d="M620.887,-222.664C564.004,-212.459 478.048,-197.039 424.971,-187.516"/>
<polygon fill="midnightblue" stroke="midnightblue" points="620.345,-226.123 630.806,-224.444 621.581,-219.233 620.345,-226.123"/>
</g>
<!-- Node19 -->
<g id="node19" class="node"><title>Node19</title>
<g id="a_node19"><a xlink:href="../../dd/ddf/ExtendedInputOutput_8hpp.html" target="_top" xlink:title=" ">
<polygon fill="white" stroke="black" points="700.5,-168.5 700.5,-187.5 828.5,-187.5 828.5,-168.5 700.5,-168.5"/>
<text text-anchor="middle" x="764.5" y="-175.5" font-family="Helvetica,sans-Serif" font-size="10.00">ExtendedInputOutput.hpp</text>
</a>
</g>
</g>
<!-- Node18&#45;&gt;Node19 -->
<g id="edge23" class="edge"><title>Node18&#45;&gt;Node19</title>
<path fill="none" stroke="midnightblue" d="M700.955,-218.901C716.724,-208.999 737.314,-196.071 750.717,-187.655"/>
<polygon fill="midnightblue" stroke="midnightblue" points="698.925,-216.042 692.317,-224.324 702.648,-221.97 698.925,-216.042"/>
</g>
<!-- Node26 -->
<g id="node26" class="node"><title>Node26</title>
<g id="a_node26"><a xlink:href="../../d6/d3c/ExtendedInputOutput_8cpp.html" target="_top" xlink:title=" ">
<polygon fill="white" stroke="black" points="527.5,-112.5 527.5,-131.5 655.5,-131.5 655.5,-112.5 527.5,-112.5"/>
<text text-anchor="middle" x="591.5" y="-119.5" font-family="Helvetica,sans-Serif" font-size="10.00">ExtendedInputOutput.cpp</text>
</a>
</g>
</g>
<!-- Node18&#45;&gt;Node26 -->
<g id="edge43" class="edge"><title>Node18&#45;&gt;Node26</title>
<path fill="none" stroke="midnightblue" d="M665.27,-216.272C646.464,-192.494 612.688,-149.789 598.295,-131.591"/>
<polygon fill="midnightblue" stroke="midnightblue" points="662.725,-218.696 671.673,-224.368 668.215,-214.354 662.725,-218.696"/>
</g>
<!-- Node32 -->
<g id="node32" class="node"><title>Node32</title>
<g id="a_node32"><a xlink:href="../../da/d1f/ExtendedIOElement_8cpp.html" target="_top" xlink:title=" ">
<polygon fill="white" stroke="black" points="847,-168.5 847,-187.5 970,-187.5 970,-168.5 847,-168.5"/>
<text text-anchor="middle" x="908.5" y="-175.5" font-family="Helvetica,sans-Serif" font-size="10.00">ExtendedIOElement.cpp</text>
</a>
</g>
</g>
<!-- Node18&#45;&gt;Node32 -->
<g id="edge44" class="edge"><title>Node18&#45;&gt;Node32</title>
<path fill="none" stroke="midnightblue" d="M724.701,-222.153C768.158,-211.95 832.341,-196.881 872.226,-187.516"/>
<polygon fill="midnightblue" stroke="midnightblue" points="723.879,-218.75 714.944,-224.444 725.479,-225.565 723.879,-218.75"/>
</g>
<!-- Node19&#45;&gt;Node4 -->
<g id="edge31" class="edge"><title>Node19&#45;&gt;Node4</title>
<path fill="none" stroke="midnightblue" d="M705.739,-166.664C647.722,-156.459 560.053,-141.039 505.917,-131.516"/>
<polygon fill="midnightblue" stroke="midnightblue" points="705.4,-170.158 715.855,-168.444 706.612,-163.264 705.4,-170.158"/>
</g>
<!-- Node19&#45;&gt;Node8 -->
<g id="edge34" class="edge"><title>Node19&#45;&gt;Node8</title>
<path fill="none" stroke="midnightblue" d="M814.999,-165.001C832.127,-158.258 849.454,-147.874 859.5,-132 877.563,-103.457 882.36,-80.8671 859.5,-56 827.349,-21.0255 506.575,-13.2144 378.2,-11.4856"/>
<polygon fill="midnightblue" stroke="midnightblue" points="813.786,-161.717 805.551,-168.383 816.146,-168.308 813.786,-161.717"/>
</g>
<!-- Node19&#45;&gt;Node9 -->
<g id="edge33" class="edge"><title>Node19&#45;&gt;Node9</title>
<path fill="none" stroke="midnightblue" d="M743.828,-162.302C719.616,-145.317 680.754,-118.82 664.5,-112 620.061,-93.3549 566.766,-81.9185 525.936,-75.2428"/>
<polygon fill="midnightblue" stroke="midnightblue" points="742.123,-165.383 752.312,-168.286 746.157,-159.662 742.123,-165.383"/>
</g>
<!-- Node19&#45;&gt;Node11 -->
<g id="edge35" class="edge"><title>Node19&#45;&gt;Node11</title>
<path fill="none" stroke="midnightblue" d="M793.6,-163.654C806.134,-156.25 819.5,-145.73 826.5,-132 841.842,-101.907 849.61,-80.6348 826.5,-56 783.614,-10.2839 325.911,-25.8375 263.5,-20 259.686,-19.6432 255.763,-19.2465 251.81,-18.8241"/>
<polygon fill="midnightblue" stroke="midnightblue" points="791.826,-160.634 784.723,-168.495 795.178,-166.78 791.826,-160.634"/>
</g>
<!-- Node19&#45;&gt;Node17 -->
<g id="edge30" class="edge"><title>Node19&#45;&gt;Node17</title>
<path fill="none" stroke="midnightblue" d="M838.754,-167.879C990.621,-150.755 1030.77,-152.321 1178.5,-132 1181.37,-131.606 1184.32,-131.175 1187.29,-130.722"/>
<polygon fill="midnightblue" stroke="midnightblue" points="838.127,-164.428 828.587,-169.035 838.918,-171.383 838.127,-164.428"/>
</g>
<!-- Node20 -->
<g id="node20" class="node"><title>Node20</title>
<g id="a_node20"><a xlink:href="../../d4/db3/Button_8hpp.html" target="_top" xlink:title=" ">
<polygon fill="white" stroke="black" points="911.5,-112.5 911.5,-131.5 975.5,-131.5 975.5,-112.5 911.5,-112.5"/>
<text text-anchor="middle" x="943.5" y="-119.5" font-family="Helvetica,sans-Serif" font-size="10.00">Button.hpp</text>
</a>
</g>
</g>
<!-- Node19&#45;&gt;Node20 -->
<g id="edge24" class="edge"><title>Node19&#45;&gt;Node20</title>
<path fill="none" stroke="midnightblue" d="M802.831,-165.436C836.58,-155.255 884.947,-140.664 915.27,-131.516"/>
<polygon fill="midnightblue" stroke="midnightblue" points="801.426,-162.204 792.863,-168.444 803.448,-168.906 801.426,-162.204"/>
</g>
<!-- Node19&#45;&gt;Node26 -->
<g id="edge32" class="edge"><title>Node19&#45;&gt;Node26</title>
<path fill="none" stroke="midnightblue" d="M727.453,-165.436C694.836,-155.255 648.09,-140.664 618.784,-131.516"/>
<polygon fill="midnightblue" stroke="midnightblue" points="726.499,-168.805 737.088,-168.444 728.585,-162.123 726.499,-168.805"/>
</g>
<!-- Node19&#45;&gt;Node27 -->
<g id="edge36" class="edge"><title>Node19&#45;&gt;Node27</title>
<path fill="none" stroke="midnightblue" d="M831.527,-166.958C891.932,-157.889 983.173,-144.144 1062.5,-132 1065.42,-131.553 1068.42,-131.091 1071.45,-130.625"/>
<polygon fill="midnightblue" stroke="midnightblue" points="830.731,-163.538 821.362,-168.484 831.77,-170.461 830.731,-163.538"/>
</g>
<!-- Node28 -->
<g id="node28" class="node"><title>Node28</title>
<g id="a_node28"><a xlink:href="../../d9/d4f/LEDs_8hpp.html" target="_top" xlink:title=" ">
<polygon fill="white" stroke="black" points="993.5,-112.5 993.5,-131.5 1053.5,-131.5 1053.5,-112.5 993.5,-112.5"/>
<text text-anchor="middle" x="1023.5" y="-119.5" font-family="Helvetica,sans-Serif" font-size="10.00">LEDs.hpp</text>
</a>
</g>
</g>
<!-- Node19&#45;&gt;Node28 -->
<g id="edge37" class="edge"><title>Node19&#45;&gt;Node28</title>
<path fill="none" stroke="midnightblue" d="M818.014,-166.443C862.612,-157.552 927.778,-144.344 984.5,-132 987.352,-131.379 990.317,-130.72 993.283,-130.052"/>
<polygon fill="midnightblue" stroke="midnightblue" points="817.105,-163.056 807.98,-168.44 818.471,-169.921 817.105,-163.056"/>
</g>
<!-- Node30 -->
<g id="node30" class="node"><title>Node30</title>
<g id="a_node30"><a xlink:href="../../d7/d13/MAX7219__Base_8hpp.html" target="_top" xlink:title=" ">
<polygon fill="white" stroke="black" points="711.5,-112.5 711.5,-131.5 817.5,-131.5 817.5,-112.5 711.5,-112.5"/>
<text text-anchor="middle" x="764.5" y="-119.5" font-family="Helvetica,sans-Serif" font-size="10.00">MAX7219_Base.hpp</text>
</a>
</g>
</g>
<!-- Node19&#45;&gt;Node30 -->
<g id="edge39" class="edge"><title>Node19&#45;&gt;Node30</title>
<path fill="none" stroke="midnightblue" d="M764.5,-157.805C764.5,-148.91 764.5,-138.78 764.5,-131.751"/>
<polygon fill="midnightblue" stroke="midnightblue" points="761,-158.083 764.5,-168.083 768,-158.083 761,-158.083"/>
</g>
<!-- Node21 -->
<g id="node21" class="node"><title>Node21</title>
<g id="a_node21"><a xlink:href="../../de/dd1/Button_8cpp.html" target="_top" xlink:title=" ">
<polygon fill="white" stroke="black" points="1091.5,-56.5 1091.5,-75.5 1155.5,-75.5 1155.5,-56.5 1091.5,-56.5"/>
<text text-anchor="middle" x="1123.5" y="-63.5" font-family="Helvetica,sans-Serif" font-size="10.00">Button.cpp</text>
</a>
</g>
</g>
<!-- Node20&#45;&gt;Node21 -->
<g id="edge25" class="edge"><title>Node20&#45;&gt;Node21</title>
<path fill="none" stroke="midnightblue" d="M981.608,-109.568C1015.56,-99.381 1064.49,-84.7034 1095.11,-75.5164"/>
<polygon fill="midnightblue" stroke="midnightblue" points="980.594,-106.218 972.022,-112.444 982.606,-112.922 980.594,-106.218"/>
</g>
<!-- Node22 -->
<g id="node22" class="node"><title>Node22</title>
<g id="a_node22"><a xlink:href="../../d5/d04/IncrementButton_8hpp.html" target="_top" xlink:title=" ">
<polygon fill="white" stroke="black" points="1174,-56.5 1174,-75.5 1281,-75.5 1281,-56.5 1174,-56.5"/>
<text text-anchor="middle" x="1227.5" y="-63.5" font-family="Helvetica,sans-Serif" font-size="10.00">IncrementButton.hpp</text>
</a>
</g>
</g>
<!-- Node20&#45;&gt;Node22 -->
<g id="edge26" class="edge"><title>Node20&#45;&gt;Node22</title>
<path fill="none" stroke="midnightblue" d="M985.941,-111.758C1058.51,-97.1729 1131.6,-83.9102 1178.54,-75.578"/>
<polygon fill="midnightblue" stroke="midnightblue" points="984.817,-108.415 975.708,-113.825 986.203,-115.276 984.817,-108.415"/>
</g>
<!-- Node24 -->
<g id="node24" class="node"><title>Node24</title>
<g id="a_node24"><a xlink:href="../../df/df5/IncrementDecrementButtons_8hpp.html" target="_top" xlink:title=" ">
<polygon fill="white" stroke="black" points="912,-56.5 912,-75.5 1073,-75.5 1073,-56.5 912,-56.5"/>
<text text-anchor="middle" x="992.5" y="-63.5" font-family="Helvetica,sans-Serif" font-size="10.00">IncrementDecrementButtons.hpp</text>
</a>
</g>
</g>
<!-- Node20&#45;&gt;Node24 -->
<g id="edge28" class="edge"><title>Node20&#45;&gt;Node24</title>
<path fill="none" stroke="midnightblue" d="M958.534,-104.431C967.122,-94.9673 977.543,-83.4827 984.559,-75.7511"/>
<polygon fill="midnightblue" stroke="midnightblue" points="955.719,-102.325 951.591,-112.083 960.903,-107.029 955.719,-102.325"/>
</g>
<!-- Node23 -->
<g id="node23" class="node"><title>Node23</title>
<g id="a_node23"><a xlink:href="../../db/d9d/IncrementButton_8cpp.html" target="_top" xlink:title=" ">
<polygon fill="white" stroke="black" points="1174,-0.5 1174,-19.5 1281,-19.5 1281,-0.5 1174,-0.5"/>
<text text-anchor="middle" x="1227.5" y="-7.5" font-family="Helvetica,sans-Serif" font-size="10.00">IncrementButton.cpp</text>
</a>
</g>
</g>
<!-- Node22&#45;&gt;Node23 -->
<g id="edge27" class="edge"><title>Node22&#45;&gt;Node23</title>
<path fill="none" stroke="midnightblue" d="M1227.5,-45.8045C1227.5,-36.9102 1227.5,-26.7798 1227.5,-19.7511"/>
<polygon fill="midnightblue" stroke="midnightblue" points="1224,-46.083 1227.5,-56.083 1231,-46.083 1224,-46.083"/>
</g>
<!-- Node25 -->
<g id="node25" class="node"><title>Node25</title>
<g id="a_node25"><a xlink:href="../../da/d66/IncrementDecrementButtons_8cpp.html" target="_top" xlink:title=" ">
<polygon fill="white" stroke="black" points="912,-0.5 912,-19.5 1073,-19.5 1073,-0.5 912,-0.5"/>
<text text-anchor="middle" x="992.5" y="-7.5" font-family="Helvetica,sans-Serif" font-size="10.00">IncrementDecrementButtons.cpp</text>
</a>
</g>
</g>
<!-- Node24&#45;&gt;Node25 -->
<g id="edge29" class="edge"><title>Node24&#45;&gt;Node25</title>
<path fill="none" stroke="midnightblue" d="M992.5,-45.8045C992.5,-36.9102 992.5,-26.7798 992.5,-19.7511"/>
<polygon fill="midnightblue" stroke="midnightblue" points="989,-46.083 992.5,-56.083 996,-46.083 989,-46.083"/>
</g>
<!-- Node29 -->
<g id="node29" class="node"><title>Node29</title>
<g id="a_node29"><a xlink:href="../../d6/d3a/DotBarDisplayLEDs_8hpp.html" target="_top" xlink:title=" ">
<polygon fill="white" stroke="black" points="1299.5,-56.5 1299.5,-75.5 1423.5,-75.5 1423.5,-56.5 1299.5,-56.5"/>
<text text-anchor="middle" x="1361.5" y="-63.5" font-family="Helvetica,sans-Serif" font-size="10.00">DotBarDisplayLEDs.hpp</text>
</a>
</g>
</g>
<!-- Node28&#45;&gt;Node29 -->
<g id="edge38" class="edge"><title>Node28&#45;&gt;Node29</title>
<path fill="none" stroke="midnightblue" d="M1063.75,-111.881C1150.97,-95.4965 1241.03,-82.6855 1299.42,-74.9166"/>
<polygon fill="midnightblue" stroke="midnightblue" points="1062.86,-108.489 1053.68,-113.791 1064.16,-115.366 1062.86,-108.489"/>
</g>
<!-- Node30&#45;&gt;Node5 -->
<g id="edge40" class="edge"><title>Node30&#45;&gt;Node5</title>
<path fill="none" stroke="midnightblue" d="M725.969,-109.568C691.636,-99.381 642.167,-84.7034 611.204,-75.5164"/>
<polygon fill="midnightblue" stroke="midnightblue" points="725.079,-112.954 735.662,-112.444 727.07,-106.244 725.079,-112.954"/>
</g>
<!-- Node31 -->
<g id="node31" class="node"><title>Node31</title>
<g id="a_node31"><a xlink:href="../../d5/d0c/MAX7219SevenSegmentDisplay_8hpp.html" target="_top" xlink:title=" ">
<polygon fill="white" stroke="black" points="639.5,-56.5 639.5,-75.5 817.5,-75.5 817.5,-56.5 639.5,-56.5"/>
<text text-anchor="middle" x="728.5" y="-63.5" font-family="Helvetica,sans-Serif" font-size="10.00">MAX7219SevenSegmentDisplay.hpp</text>
</a>
</g>
</g>
<!-- Node30&#45;&gt;Node31 -->
<g id="edge41" class="edge"><title>Node30&#45;&gt;Node31</title>
<path fill="none" stroke="midnightblue" d="M752.877,-103.566C746.683,-94.2747 739.332,-83.2484 734.334,-75.7511"/>
<polygon fill="midnightblue" stroke="midnightblue" points="750.096,-105.704 758.555,-112.083 755.92,-101.821 750.096,-105.704"/>
</g>
<!-- Node33&#45;&gt;Node12 -->
<g id="edge47" class="edge"><title>Node33&#45;&gt;Node12</title>
<path fill="none" stroke="midnightblue" d="M199.825,-214.983C195.412,-205.817 190.248,-195.092 186.713,-187.751"/>
<polygon fill="midnightblue" stroke="midnightblue" points="196.715,-216.591 204.207,-224.083 203.022,-213.555 196.715,-216.591"/>
</g>
<!-- Node35 -->
<g id="node35" class="node"><title>Node35</title>
<g id="a_node35"><a xlink:href="../../df/da1/Notch_8hpp.html" target="_top" xlink:title=" ">
<polygon fill="white" stroke="black" points="1064.5,-224.5 1064.5,-243.5 1126.5,-243.5 1126.5,-224.5 1064.5,-224.5"/>
<text text-anchor="middle" x="1095.5" y="-231.5" font-family="Helvetica,sans-Serif" font-size="10.00">Notch.hpp</text>
</a>
</g>
</g>
<!-- Node34&#45;&gt;Node35 -->
<g id="edge49" class="edge"><title>Node34&#45;&gt;Node35</title>
<path fill="none" stroke="midnightblue" d="M1008.74,-276.096C1030.04,-266.007 1059.04,-252.27 1077.52,-243.516"/>
<polygon fill="midnightblue" stroke="midnightblue" points="1007.1,-273 999.564,-280.444 1010.1,-279.326 1007.1,-273"/>
</g>
<!-- Node38&#45;&gt;Node33 -->
<g id="edge53" class="edge"><title>Node38&#45;&gt;Node33</title>
<path fill="none" stroke="midnightblue" d="M272.045,-274.901C256.276,-264.999 235.686,-252.071 222.283,-243.655"/>
<polygon fill="midnightblue" stroke="midnightblue" points="270.352,-277.97 280.683,-280.324 274.075,-272.042 270.352,-277.97"/>
</g>
<!-- Node38&#45;&gt;Node36 -->
<g id="edge54" class="edge"><title>Node38&#45;&gt;Node36</title>
<path fill="none" stroke="midnightblue" d="M295.211,-269.805C295.54,-260.91 295.916,-250.78 296.176,-243.751"/>
<polygon fill="midnightblue" stroke="midnightblue" points="291.703,-269.96 294.83,-280.083 298.698,-270.219 291.703,-269.96"/>
</g>
</g>
</svg>
