<?xml version="1.0" encoding="UTF-8" standalone="no"?>
<!DOCTYPE svg PUBLIC "-//W3C//DTD SVG 1.1//EN"
 "http://www.w3.org/Graphics/SVG/1.1/DTD/svg11.dtd">
<!-- Generated by graphviz version 2.38.0 (20140413.2041)
 -->
<!-- Title: Array.hpp Pages: 1 -->
<svg width="1391pt" height="364pt"
 viewBox="0.00 0.00 1390.50 364.00" xmlns="http://www.w3.org/2000/svg" xmlns:xlink="http://www.w3.org/1999/xlink">
<g id="graph0" class="graph" transform="scale(1 1) rotate(0) translate(4 360)">
<title>Array.hpp</title>
<polygon fill="white" stroke="none" points="-4,4 -4,-360 1386.5,-360 1386.5,4 -4,4"/>
<!-- Node1 -->
<g id="node1" class="node"><title>Node1</title>
<g id="a_node1"><a xlink:title=" ">
<polygon fill="#bfbfbf" stroke="black" points="329.5,-336.5 329.5,-355.5 388.5,-355.5 388.5,-336.5 329.5,-336.5"/>
<text text-anchor="middle" x="359" y="-343.5" font-family="Helvetica,sans-Serif" font-size="10.00">Array.hpp</text>
</a>
</g>
</g>
<!-- Node2 -->
<g id="node2" class="node"><title>Node2</title>
<g id="a_node2"><a xlink:href="../../d5/db6/ArrayHelpers_8hpp.html" target="_top" xlink:title=" ">
<polygon fill="white" stroke="black" points="260,-224.5 260,-243.5 352,-243.5 352,-224.5 260,-224.5"/>
<text text-anchor="middle" x="306" y="-231.5" font-family="Helvetica,sans-Serif" font-size="10.00">ArrayHelpers.hpp</text>
</a>
</g>
</g>
<!-- Node1&#45;&gt;Node2 -->
<g id="edge1" class="edge"><title>Node1&#45;&gt;Node2</title>
<path fill="none" stroke="midnightblue" d="M350.481,-327.32C338.942,-303.37 318.792,-261.548 310.14,-243.591"/>
<polygon fill="midnightblue" stroke="midnightblue" points="347.347,-328.879 354.841,-336.368 353.654,-325.84 347.347,-328.879"/>
</g>
<!-- Node4 -->
<g id="node4" class="node"><title>Node4</title>
<g id="a_node4"><a xlink:href="../../d7/def/AnalogMultiplex_8hpp.html" target="_top" xlink:title=" ">
<polygon fill="white" stroke="black" points="292,-112.5 292,-131.5 396,-131.5 396,-112.5 292,-112.5"/>
<text text-anchor="middle" x="344" y="-119.5" font-family="Helvetica,sans-Serif" font-size="10.00">AnalogMultiplex.hpp</text>
</a>
</g>
</g>
<!-- Node1&#45;&gt;Node4 -->
<g id="edge16" class="edge"><title>Node1&#45;&gt;Node4</title>
<path fill="none" stroke="midnightblue" d="M361.55,-326.159C365.439,-293.594 371.373,-224.811 361,-168 358.6,-154.855 352.559,-140.563 348.366,-131.693"/>
<polygon fill="midnightblue" stroke="midnightblue" points="358.033,-326.067 360.243,-336.428 364.977,-326.95 358.033,-326.067"/>
</g>
<!-- Node14 -->
<g id="node14" class="node"><title>Node14</title>
<g id="a_node14"><a xlink:href="../../d4/d35/Hardware-Types_8hpp.html" target="_top" xlink:title=" ">
<polygon fill="white" stroke="black" points="408.5,-280.5 408.5,-299.5 515.5,-299.5 515.5,-280.5 408.5,-280.5"/>
<text text-anchor="middle" x="462" y="-287.5" font-family="Helvetica,sans-Serif" font-size="10.00">Hardware&#45;Types.hpp</text>
</a>
</g>
</g>
<!-- Node1&#45;&gt;Node14 -->
<g id="edge17" class="edge"><title>Node1&#45;&gt;Node14</title>
<path fill="none" stroke="midnightblue" d="M384.579,-331.59C403.623,-321.605 429.064,-308.267 445.492,-299.655"/>
<polygon fill="midnightblue" stroke="midnightblue" points="382.78,-328.581 375.549,-336.324 386.031,-334.78 382.78,-328.581"/>
</g>
<!-- Node32 -->
<g id="node32" class="node"><title>Node32</title>
<g id="a_node32"><a xlink:href="../../d1/dde/BiQuad_8hpp.html" target="_top" xlink:title=" ">
<polygon fill="white" stroke="black" points="84,-224.5 84,-243.5 152,-243.5 152,-224.5 84,-224.5"/>
<text text-anchor="middle" x="118" y="-231.5" font-family="Helvetica,sans-Serif" font-size="10.00">BiQuad.hpp</text>
</a>
</g>
</g>
<!-- Node1&#45;&gt;Node32 -->
<g id="edge45" class="edge"><title>Node1&#45;&gt;Node32</title>
<path fill="none" stroke="midnightblue" d="M318.965,-341.33C263.755,-335.511 168.092,-322.462 142,-300 125.043,-285.402 120.057,-257.704 118.599,-243.648"/>
<polygon fill="midnightblue" stroke="midnightblue" points="318.803,-344.831 329.107,-342.366 319.514,-337.868 318.803,-344.831"/>
</g>
<!-- Node33 -->
<g id="node33" class="node"><title>Node33</title>
<g id="a_node33"><a xlink:href="../../d2/d3b/FIRFilter_8hpp.html" target="_top" xlink:title=" ">
<polygon fill="white" stroke="black" points="534,-280.5 534,-299.5 608,-299.5 608,-280.5 534,-280.5"/>
<text text-anchor="middle" x="571" y="-287.5" font-family="Helvetica,sans-Serif" font-size="10.00">FIRFilter.hpp</text>
</a>
</g>
</g>
<!-- Node1&#45;&gt;Node33 -->
<g id="edge47" class="edge"><title>Node1&#45;&gt;Node33</title>
<path fill="none" stroke="midnightblue" d="M398.863,-334.846C438.853,-324.66 499.759,-309.146 537.38,-299.564"/>
<polygon fill="midnightblue" stroke="midnightblue" points="397.751,-331.518 388.925,-337.378 399.479,-338.301 397.751,-331.518"/>
</g>
<!-- Node35 -->
<g id="node35" class="node"><title>Node35</title>
<g id="a_node35"><a xlink:href="../../dc/d64/IIRFilter_8hpp.html" target="_top" xlink:title=" ">
<polygon fill="white" stroke="black" points="170.5,-224.5 170.5,-243.5 241.5,-243.5 241.5,-224.5 170.5,-224.5"/>
<text text-anchor="middle" x="206" y="-231.5" font-family="Helvetica,sans-Serif" font-size="10.00">IIRFilter.hpp</text>
</a>
</g>
</g>
<!-- Node1&#45;&gt;Node35 -->
<g id="edge49" class="edge"><title>Node1&#45;&gt;Node35</title>
<path fill="none" stroke="midnightblue" d="M338.943,-330.469C320.718,-317.276 293.081,-297.296 269,-280 251.314,-267.297 230.784,-252.651 218.091,-243.608"/>
<polygon fill="midnightblue" stroke="midnightblue" points="336.924,-333.328 347.077,-336.358 341.03,-327.659 336.924,-333.328"/>
</g>
<!-- Node36 -->
<g id="node36" class="node"><title>Node36</title>
<g id="a_node36"><a xlink:href="../../dc/d9c/SMA_8hpp.html" target="_top" xlink:title=" ">
<polygon fill="white" stroke="black" points="626.5,-280.5 626.5,-299.5 683.5,-299.5 683.5,-280.5 626.5,-280.5"/>
<text text-anchor="middle" x="655" y="-287.5" font-family="Helvetica,sans-Serif" font-size="10.00">SMA.hpp</text>
</a>
</g>
</g>
<!-- Node1&#45;&gt;Node36 -->
<g id="edge50" class="edge"><title>Node1&#45;&gt;Node36</title>
<path fill="none" stroke="midnightblue" d="M398.41,-338.879C449.134,-330.828 539.916,-315.836 617,-300 620.055,-299.372 623.239,-298.68 626.407,-297.966"/>
<polygon fill="midnightblue" stroke="midnightblue" points="397.846,-335.424 388.515,-340.442 398.938,-342.339 397.846,-335.424"/>
</g>
<!-- Node37 -->
<g id="node37" class="node"><title>Node37</title>
<g id="a_node37"><a xlink:href="../../d2/d03/TransferFunction_8hpp.html" target="_top" xlink:title=" ">
<polygon fill="white" stroke="black" points="151.5,-280.5 151.5,-299.5 260.5,-299.5 260.5,-280.5 151.5,-280.5"/>
<text text-anchor="middle" x="206" y="-287.5" font-family="Helvetica,sans-Serif" font-size="10.00">TransferFunction.hpp</text>
</a>
</g>
</g>
<!-- Node1&#45;&gt;Node37 -->
<g id="edge51" class="edge"><title>Node1&#45;&gt;Node37</title>
<path fill="none" stroke="midnightblue" d="M325.111,-333.039C296.323,-322.879 255.713,-308.546 230.13,-299.516"/>
<polygon fill="midnightblue" stroke="midnightblue" points="324.162,-336.416 334.757,-336.444 326.492,-329.815 324.162,-336.416"/>
</g>
<!-- Node3 -->
<g id="node3" class="node"><title>Node3</title>
<g id="a_node3"><a xlink:href="../../d2/d05/StaticSizeExtendedIOElement_8hpp.html" target="_top" xlink:title=" ">
<polygon fill="white" stroke="black" points="184,-168.5 184,-187.5 352,-187.5 352,-168.5 184,-168.5"/>
<text text-anchor="middle" x="268" y="-175.5" font-family="Helvetica,sans-Serif" font-size="10.00">StaticSizeExtendedIOElement.hpp</text>
</a>
</g>
</g>
<!-- Node2&#45;&gt;Node3 -->
<g id="edge2" class="edge"><title>Node2&#45;&gt;Node3</title>
<path fill="none" stroke="midnightblue" d="M293.935,-215.855C287.355,-206.505 279.489,-195.327 274.158,-187.751"/>
<polygon fill="midnightblue" stroke="midnightblue" points="291.108,-217.919 299.725,-224.083 296.832,-213.891 291.108,-217.919"/>
</g>
<!-- Node12 -->
<g id="node12" class="node"><title>Node12</title>
<g id="a_node12"><a xlink:href="../../df/ddc/SOSFilter_8hpp.html" target="_top" xlink:title=" ">
<polygon fill="white" stroke="black" points="79,-168.5 79,-187.5 157,-187.5 157,-168.5 79,-168.5"/>
<text text-anchor="middle" x="118" y="-175.5" font-family="Helvetica,sans-Serif" font-size="10.00">SOSFilter.hpp</text>
</a>
</g>
</g>
<!-- Node2&#45;&gt;Node12 -->
<g id="edge14" class="edge"><title>Node2&#45;&gt;Node12</title>
<path fill="none" stroke="midnightblue" d="M266.199,-221.568C230.734,-211.381 179.634,-196.703 147.65,-187.516"/>
<polygon fill="midnightblue" stroke="midnightblue" points="265.633,-225.047 276.211,-224.444 267.566,-218.319 265.633,-225.047"/>
</g>
<!-- Node3&#45;&gt;Node4 -->
<g id="edge3" class="edge"><title>Node3&#45;&gt;Node4</title>
<path fill="none" stroke="midnightblue" d="M288.576,-162.38C302.312,-152.62 319.925,-140.106 331.567,-131.834"/>
<polygon fill="midnightblue" stroke="midnightblue" points="286.335,-159.679 280.211,-168.324 290.39,-165.385 286.335,-159.679"/>
</g>
<!-- Node5 -->
<g id="node5" class="node"><title>Node5</title>
<g id="a_node5"><a xlink:href="../../d2/d25/MAX7219_8hpp.html" target="_top" xlink:title=" ">
<polygon fill="white" stroke="black" points="504,-56.5 504,-75.5 582,-75.5 582,-56.5 504,-56.5"/>
<text text-anchor="middle" x="543" y="-63.5" font-family="Helvetica,sans-Serif" font-size="10.00">MAX7219.hpp</text>
</a>
</g>
</g>
<!-- Node3&#45;&gt;Node5 -->
<g id="edge4" class="edge"><title>Node3&#45;&gt;Node5</title>
<path fill="none" stroke="midnightblue" d="M267.108,-157.966C267.517,-143.316 270.634,-123.662 283,-112 317.765,-79.2148 447.959,-84.4035 495,-76 497.921,-75.4781 500.941,-74.9308 503.978,-74.3746"/>
<polygon fill="midnightblue" stroke="midnightblue" points="263.614,-158.437 267.236,-168.393 270.613,-158.351 263.614,-158.437"/>
</g>
<!-- Node6 -->
<g id="node6" class="node"><title>Node6</title>
<g id="a_node6"><a xlink:href="../../d8/d93/ShiftRegisterOutBase_8hpp.html" target="_top" xlink:title=" ">
<polygon fill="white" stroke="black" points="104.5,-112.5 104.5,-131.5 235.5,-131.5 235.5,-112.5 104.5,-112.5"/>
<text text-anchor="middle" x="170" y="-119.5" font-family="Helvetica,sans-Serif" font-size="10.00">ShiftRegisterOutBase.hpp</text>
</a>
</g>
</g>
<!-- Node3&#45;&gt;Node6 -->
<g id="edge5" class="edge"><title>Node3&#45;&gt;Node6</title>
<path fill="none" stroke="midnightblue" d="M243.414,-163.453C225.322,-153.483 201.265,-140.228 185.706,-131.655"/>
<polygon fill="midnightblue" stroke="midnightblue" points="241.807,-166.563 252.255,-168.324 245.185,-160.432 241.807,-166.563"/>
</g>
<!-- Node7 -->
<g id="node7" class="node"><title>Node7</title>
<g id="a_node7"><a xlink:href="../../d0/db4/ShiftRegisterOut_8hpp.html" target="_top" xlink:title=" ">
<polygon fill="white" stroke="black" points="88,-56.5 88,-75.5 196,-75.5 196,-56.5 88,-56.5"/>
<text text-anchor="middle" x="142" y="-63.5" font-family="Helvetica,sans-Serif" font-size="10.00">ShiftRegisterOut.hpp</text>
</a>
</g>
</g>
<!-- Node6&#45;&gt;Node7 -->
<g id="edge6" class="edge"><title>Node6&#45;&gt;Node7</title>
<path fill="none" stroke="midnightblue" d="M160.658,-102.983C155.905,-93.8168 150.344,-83.0922 146.538,-75.7511"/>
<polygon fill="midnightblue" stroke="midnightblue" points="157.666,-104.817 165.376,-112.083 163.88,-101.594 157.666,-104.817"/>
</g>
<!-- Node9 -->
<g id="node9" class="node"><title>Node9</title>
<g id="a_node9"><a xlink:href="../../d5/d47/ShiftRegisterOutBase_8ipp.html" target="_top" xlink:title=" ">
<polygon fill="white" stroke="black" points="358,-56.5 358,-75.5 486,-75.5 486,-56.5 358,-56.5"/>
<text text-anchor="middle" x="422" y="-63.5" font-family="Helvetica,sans-Serif" font-size="10.00">ShiftRegisterOutBase.ipp</text>
</a>
</g>
</g>
<!-- Node6&#45;&gt;Node9 -->
<g id="edge9" class="edge"><title>Node6&#45;&gt;Node9</title>
<path fill="none" stroke="midnightblue" d="M214.796,-110.217C260.642,-100.013 331.317,-84.9006 377.177,-75.5164"/>
<polygon fill="midnightblue" stroke="midnightblue" points="213.836,-106.845 204.841,-112.444 215.364,-113.677 213.836,-106.845"/>
</g>
<!-- Node10 -->
<g id="node10" class="node"><title>Node10</title>
<g id="a_node10"><a xlink:href="../../d7/d88/SPIShiftRegisterOut_8hpp.html" target="_top" xlink:title=" ">
<polygon fill="white" stroke="black" points="214.5,-56.5 214.5,-75.5 339.5,-75.5 339.5,-56.5 214.5,-56.5"/>
<text text-anchor="middle" x="277" y="-63.5" font-family="Helvetica,sans-Serif" font-size="10.00">SPIShiftRegisterOut.hpp</text>
</a>
</g>
</g>
<!-- Node6&#45;&gt;Node10 -->
<g id="edge11" class="edge"><title>Node6&#45;&gt;Node10</title>
<path fill="none" stroke="midnightblue" d="M196.302,-107.726C216.115,-97.7271 242.707,-84.3065 259.851,-75.6545"/>
<polygon fill="midnightblue" stroke="midnightblue" points="194.542,-104.694 187.191,-112.324 197.696,-110.943 194.542,-104.694"/>
</g>
<!-- Node8 -->
<g id="node8" class="node"><title>Node8</title>
<g id="a_node8"><a xlink:href="../../de/d95/ShiftRegisterOut_8ipp.html" target="_top" xlink:title=" ">
<polygon fill="white" stroke="black" points="89.5,-0.5 89.5,-19.5 194.5,-19.5 194.5,-0.5 89.5,-0.5"/>
<text text-anchor="middle" x="142" y="-7.5" font-family="Helvetica,sans-Serif" font-size="10.00">ShiftRegisterOut.ipp</text>
</a>
</g>
</g>
<!-- Node7&#45;&gt;Node8 -->
<g id="edge7" class="edge"><title>Node7&#45;&gt;Node8</title>
<path fill="none" stroke="midnightblue" d="M135.528,-46.1005C134.896,-37.1357 135.343,-26.8579 136.869,-19.7511"/>
<polygon fill="midnightblue" stroke="midnightblue" points="132.066,-46.6216 136.834,-56.083 139.007,-45.7134 132.066,-46.6216"/>
</g>
<!-- Node8&#45;&gt;Node7 -->
<g id="edge8" class="edge"><title>Node8&#45;&gt;Node7</title>
<path fill="none" stroke="midnightblue" d="M148.458,-29.6911C149.106,-38.6353 148.676,-48.9272 147.166,-56.083"/>
<polygon fill="midnightblue" stroke="midnightblue" points="151.923,-29.2002 147.131,-19.7511 144.985,-30.1262 151.923,-29.2002"/>
</g>
<!-- Node9&#45;&gt;Node6 -->
<g id="edge10" class="edge"><title>Node9&#45;&gt;Node6</title>
<path fill="none" stroke="midnightblue" d="M377.399,-77.7393C331.624,-87.9291 260.949,-103.043 215.019,-112.444"/>
<polygon fill="midnightblue" stroke="midnightblue" points="378.342,-81.1151 387.337,-75.5164 376.814,-74.2839 378.342,-81.1151"/>
</g>
<!-- Node11 -->
<g id="node11" class="node"><title>Node11</title>
<g id="a_node11"><a xlink:href="../../da/d45/SPIShiftRegisterOut_8ipp.html" target="_top" xlink:title=" ">
<polygon fill="white" stroke="black" points="216,-0.5 216,-19.5 338,-19.5 338,-0.5 216,-0.5"/>
<text text-anchor="middle" x="277" y="-7.5" font-family="Helvetica,sans-Serif" font-size="10.00">SPIShiftRegisterOut.ipp</text>
</a>
</g>
</g>
<!-- Node10&#45;&gt;Node11 -->
<g id="edge12" class="edge"><title>Node10&#45;&gt;Node11</title>
<path fill="none" stroke="midnightblue" d="M270.528,-46.1005C269.896,-37.1357 270.343,-26.8579 271.869,-19.7511"/>
<polygon fill="midnightblue" stroke="midnightblue" points="267.066,-46.6216 271.834,-56.083 274.007,-45.7134 267.066,-46.6216"/>
</g>
<!-- Node11&#45;&gt;Node10 -->
<g id="edge13" class="edge"><title>Node11&#45;&gt;Node10</title>
<path fill="none" stroke="midnightblue" d="M283.458,-29.6911C284.106,-38.6353 283.676,-48.9272 282.166,-56.083"/>
<polygon fill="midnightblue" stroke="midnightblue" points="286.923,-29.2002 282.131,-19.7511 279.985,-30.1262 286.923,-29.2002"/>
</g>
<!-- Node13 -->
<g id="node13" class="node"><title>Node13</title>
<g id="a_node13"><a xlink:href="../../d4/d40/Butterworth_8hpp.html" target="_top" xlink:title=" ">
<polygon fill="white" stroke="black" points="0,-112.5 0,-131.5 86,-131.5 86,-112.5 0,-112.5"/>
<text text-anchor="middle" x="43" y="-119.5" font-family="Helvetica,sans-Serif" font-size="10.00">Butterworth.hpp</text>
</a>
</g>
</g>
<!-- Node12&#45;&gt;Node13 -->
<g id="edge15" class="edge"><title>Node12&#45;&gt;Node13</title>
<path fill="none" stroke="midnightblue" d="M97.6949,-162.38C84.1394,-152.62 66.7579,-140.106 55.2693,-131.834"/>
<polygon fill="midnightblue" stroke="midnightblue" points="95.7895,-165.321 105.95,-168.324 99.8797,-159.641 95.7895,-165.321"/>
</g>
<!-- Node15 -->
<g id="node15" class="node"><title>Node15</title>
<g id="a_node15"><a xlink:href="../../d9/d4b/ButtonMatrix_8hpp.html" target="_top" xlink:title=" ">
<polygon fill="white" stroke="black" points="412.5,-168.5 412.5,-187.5 503.5,-187.5 503.5,-168.5 412.5,-168.5"/>
<text text-anchor="middle" x="458" y="-175.5" font-family="Helvetica,sans-Serif" font-size="10.00">ButtonMatrix.hpp</text>
</a>
</g>
</g>
<!-- Node14&#45;&gt;Node15 -->
<g id="edge18" class="edge"><title>Node14&#45;&gt;Node15</title>
<path fill="none" stroke="midnightblue" d="M461.322,-270.348C460.446,-246.254 458.957,-205.308 458.312,-187.591"/>
<polygon fill="midnightblue" stroke="midnightblue" points="457.825,-270.502 461.686,-280.368 464.82,-270.248 457.825,-270.502"/>
</g>
<!-- Node17 -->
<g id="node17" class="node"><title>Node17</title>
<g id="a_node17"><a xlink:href="../../d4/d57/ExtendedIOElement_8hpp.html" target="_top" xlink:title=" ">
<polygon fill="white" stroke="black" points="486.5,-224.5 486.5,-243.5 609.5,-243.5 609.5,-224.5 486.5,-224.5"/>
<text text-anchor="middle" x="548" y="-231.5" font-family="Helvetica,sans-Serif" font-size="10.00">ExtendedIOElement.hpp</text>
</a>
</g>
</g>
<!-- Node14&#45;&gt;Node17 -->
<g id="edge21" class="edge"><title>Node14&#45;&gt;Node17</title>
<path fill="none" stroke="midnightblue" d="M484.455,-274.901C500.224,-264.999 520.814,-252.071 534.217,-243.655"/>
<polygon fill="midnightblue" stroke="midnightblue" points="482.425,-272.042 475.817,-280.324 486.148,-277.97 482.425,-272.042"/>
</g>
<!-- Node26 -->
<g id="node26" class="node"><title>Node26</title>
<g id="a_node26"><a xlink:href="../../d8/df3/FilteredAnalog_8hpp.html" target="_top" xlink:title=" ">
<polygon fill="white" stroke="black" points="1096,-112.5 1096,-131.5 1194,-131.5 1194,-112.5 1096,-112.5"/>
<text text-anchor="middle" x="1145" y="-119.5" font-family="Helvetica,sans-Serif" font-size="10.00">FilteredAnalog.hpp</text>
</a>
</g>
</g>
<!-- Node14&#45;&gt;Node26 -->
<g id="edge44" class="edge"><title>Node14&#45;&gt;Node26</title>
<path fill="none" stroke="midnightblue" d="M507.118,-278.034C634.619,-247.046 995.736,-159.278 1109.93,-131.524"/>
<polygon fill="midnightblue" stroke="midnightblue" points="506.173,-274.662 497.283,-280.425 507.827,-281.464 506.173,-274.662"/>
</g>
<!-- Node16 -->
<g id="node16" class="node"><title>Node16</title>
<g id="a_node16"><a xlink:href="../../d5/d41/ButtonMatrix_8ipp.html" target="_top" xlink:title=" ">
<polygon fill="white" stroke="black" points="414,-112.5 414,-131.5 502,-131.5 502,-112.5 414,-112.5"/>
<text text-anchor="middle" x="458" y="-119.5" font-family="Helvetica,sans-Serif" font-size="10.00">ButtonMatrix.ipp</text>
</a>
</g>
</g>
<!-- Node15&#45;&gt;Node16 -->
<g id="edge19" class="edge"><title>Node15&#45;&gt;Node16</title>
<path fill="none" stroke="midnightblue" d="M451.528,-158.101C450.896,-149.136 451.343,-138.858 452.869,-131.751"/>
<polygon fill="midnightblue" stroke="midnightblue" points="448.066,-158.622 452.834,-168.083 455.007,-157.713 448.066,-158.622"/>
</g>
<!-- Node16&#45;&gt;Node15 -->
<g id="edge20" class="edge"><title>Node16&#45;&gt;Node15</title>
<path fill="none" stroke="midnightblue" d="M464.458,-141.691C465.106,-150.635 464.676,-160.927 463.166,-168.083"/>
<polygon fill="midnightblue" stroke="midnightblue" points="467.923,-141.2 463.131,-131.751 460.985,-142.126 467.923,-141.2"/>
</g>
<!-- Node17&#45;&gt;Node3 -->
<g id="edge41" class="edge"><title>Node17&#45;&gt;Node3</title>
<path fill="none" stroke="midnightblue" d="M493.748,-222.537C440.83,-212.332 361.329,-196.999 312.159,-187.516"/>
<polygon fill="midnightblue" stroke="midnightblue" points="493.151,-225.986 503.633,-224.444 494.477,-219.113 493.151,-225.986"/>
</g>
<!-- Node18 -->
<g id="node18" class="node"><title>Node18</title>
<g id="a_node18"><a xlink:href="../../dd/ddf/ExtendedInputOutput_8hpp.html" target="_top" xlink:title=" ">
<polygon fill="white" stroke="black" points="702,-168.5 702,-187.5 830,-187.5 830,-168.5 702,-168.5"/>
<text text-anchor="middle" x="766" y="-175.5" font-family="Helvetica,sans-Serif" font-size="10.00">ExtendedInputOutput.hpp</text>
</a>
</g>
</g>
<!-- Node17&#45;&gt;Node18 -->
<g id="edge22" class="edge"><title>Node17&#45;&gt;Node18</title>
<path fill="none" stroke="midnightblue" d="M592.312,-222.024C633.492,-211.823 693.973,-196.841 731.619,-187.516"/>
<polygon fill="midnightblue" stroke="midnightblue" points="591.408,-218.642 582.543,-224.444 593.091,-225.436 591.408,-218.642"/>
</g>
<!-- Node25 -->
<g id="node25" class="node"><title>Node25</title>
<g id="a_node25"><a xlink:href="../../d6/d3c/ExtendedInputOutput_8cpp.html" target="_top" xlink:title=" ">
<polygon fill="white" stroke="black" points="520,-112.5 520,-131.5 648,-131.5 648,-112.5 520,-112.5"/>
<text text-anchor="middle" x="584" y="-119.5" font-family="Helvetica,sans-Serif" font-size="10.00">ExtendedInputOutput.cpp</text>
</a>
</g>
</g>
<!-- Node17&#45;&gt;Node25 -->
<g id="edge42" class="edge"><title>Node17&#45;&gt;Node25</title>
<path fill="none" stroke="midnightblue" d="M546.034,-214.02C545.335,-200.753 545.764,-182.83 551,-168 556.032,-153.749 567.185,-140.156 575.131,-131.711"/>
<polygon fill="midnightblue" stroke="midnightblue" points="542.568,-214.592 546.846,-224.285 549.547,-214.04 542.568,-214.592"/>
</g>
<!-- Node31 -->
<g id="node31" class="node"><title>Node31</title>
<g id="a_node31"><a xlink:href="../../da/d1f/ExtendedIOElement_8cpp.html" target="_top" xlink:title=" ">
<polygon fill="white" stroke="black" points="560.5,-168.5 560.5,-187.5 683.5,-187.5 683.5,-168.5 560.5,-168.5"/>
<text text-anchor="middle" x="622" y="-175.5" font-family="Helvetica,sans-Serif" font-size="10.00">ExtendedIOElement.cpp</text>
</a>
</g>
</g>
<!-- Node17&#45;&gt;Node31 -->
<g id="edge43" class="edge"><title>Node17&#45;&gt;Node31</title>
<path fill="none" stroke="midnightblue" d="M568.034,-218.38C581.409,-208.62 598.559,-196.106 609.894,-187.834"/>
<polygon fill="midnightblue" stroke="midnightblue" points="565.904,-215.602 559.889,-224.324 570.03,-221.257 565.904,-215.602"/>
</g>
<!-- Node18&#45;&gt;Node4 -->
<g id="edge30" class="edge"><title>Node18&#45;&gt;Node4</title>
<path fill="none" stroke="midnightblue" d="M691.721,-167.941C602.669,-157.045 458.706,-139.308 405,-132 402.136,-131.61 399.198,-131.203 396.232,-130.785"/>
<polygon fill="midnightblue" stroke="midnightblue" points="691.414,-171.429 701.765,-169.169 692.263,-164.481 691.414,-171.429"/>
</g>
<!-- Node18&#45;&gt;Node8 -->
<g id="edge33" class="edge"><title>Node18&#45;&gt;Node8</title>
<path fill="none" stroke="midnightblue" d="M790.722,-162.9C801.532,-155.278 813.08,-144.793 819,-132 834.392,-98.7391 818.114,-75.369 787,-56 732.185,-21.8763 271.247,-26.4325 207,-20 203.033,-19.6028 198.935,-19.1459 194.817,-18.6532"/>
<polygon fill="midnightblue" stroke="midnightblue" points="788.786,-159.984 782.334,-168.387 792.618,-165.842 788.786,-159.984"/>
</g>
<!-- Node18&#45;&gt;Node9 -->
<g id="edge32" class="edge"><title>Node18&#45;&gt;Node9</title>
<path fill="none" stroke="midnightblue" d="M744.1,-162.699C717.702,-145.684 674.685,-118.726 657,-112 625.114,-99.872 537.406,-84.7823 478.633,-75.5239"/>
<polygon fill="midnightblue" stroke="midnightblue" points="742.38,-165.755 752.676,-168.254 746.185,-159.88 742.38,-165.755"/>
</g>
<!-- Node18&#45;&gt;Node11 -->
<g id="edge34" class="edge"><title>Node18&#45;&gt;Node11</title>
<path fill="none" stroke="midnightblue" d="M824.026,-166.508C865.737,-158.059 917.569,-145.415 935,-132 964.044,-109.647 992.058,-82.7453 967,-56 924.5,-10.6375 499.088,-9.22136 338.2,-10.3341"/>
<polygon fill="midnightblue" stroke="midnightblue" points="823.338,-163.076 814.212,-168.458 824.702,-169.942 823.338,-163.076"/>
</g>
<!-- Node18&#45;&gt;Node16 -->
<g id="edge29" class="edge"><title>Node18&#45;&gt;Node16</title>
<path fill="none" stroke="midnightblue" d="M707.141,-166.681C647.303,-156.189 555.955,-140.174 502.084,-130.729"/>
<polygon fill="midnightblue" stroke="midnightblue" points="706.742,-170.164 717.196,-168.444 707.951,-163.269 706.742,-170.164"/>
</g>
<!-- Node19 -->
<g id="node19" class="node"><title>Node19</title>
<g id="a_node19"><a xlink:href="../../d4/db3/Button_8hpp.html" target="_top" xlink:title=" ">
<polygon fill="white" stroke="black" points="1014,-112.5 1014,-131.5 1078,-131.5 1078,-112.5 1014,-112.5"/>
<text text-anchor="middle" x="1046" y="-119.5" font-family="Helvetica,sans-Serif" font-size="10.00">Button.hpp</text>
</a>
</g>
</g>
<!-- Node18&#45;&gt;Node19 -->
<g id="edge23" class="edge"><title>Node18&#45;&gt;Node19</title>
<path fill="none" stroke="midnightblue" d="M820.486,-166.573C867.917,-157.485 938.516,-143.927 1000,-132 1004.47,-131.132 1009.19,-130.213 1013.83,-129.307"/>
<polygon fill="midnightblue" stroke="midnightblue" points="819.595,-163.18 810.432,-168.499 820.912,-170.055 819.595,-163.18"/>
</g>
<!-- Node18&#45;&gt;Node25 -->
<g id="edge31" class="edge"><title>Node18&#45;&gt;Node25</title>
<path fill="none" stroke="midnightblue" d="M727.469,-165.568C693.136,-155.381 643.667,-140.703 612.704,-131.516"/>
<polygon fill="midnightblue" stroke="midnightblue" points="726.579,-168.954 737.162,-168.444 728.57,-162.244 726.579,-168.954"/>
</g>
<!-- Node18&#45;&gt;Node26 -->
<g id="edge35" class="edge"><title>Node18&#45;&gt;Node26</title>
<path fill="none" stroke="midnightblue" d="M838.936,-167.086C904.026,-158.164 1001.92,-144.564 1087,-132 1089.92,-131.568 1092.93,-131.119 1095.96,-130.661"/>
<polygon fill="midnightblue" stroke="midnightblue" points="838.211,-163.652 828.778,-168.476 839.16,-170.587 838.211,-163.652"/>
</g>
<!-- Node27 -->
<g id="node27" class="node"><title>Node27</title>
<g id="a_node27"><a xlink:href="../../d9/d4f/LEDs_8hpp.html" target="_top" xlink:title=" ">
<polygon fill="white" stroke="black" points="866,-112.5 866,-131.5 926,-131.5 926,-112.5 866,-112.5"/>
<text text-anchor="middle" x="896" y="-119.5" font-family="Helvetica,sans-Serif" font-size="10.00">LEDs.hpp</text>
</a>
</g>
</g>
<!-- Node18&#45;&gt;Node27 -->
<g id="edge36" class="edge"><title>Node18&#45;&gt;Node27</title>
<path fill="none" stroke="midnightblue" d="M796.085,-164.503C820.457,-154.38 854.14,-140.388 875.497,-131.516"/>
<polygon fill="midnightblue" stroke="midnightblue" points="794.491,-161.375 786.599,-168.444 797.177,-167.84 794.491,-161.375"/>
</g>
<!-- Node29 -->
<g id="node29" class="node"><title>Node29</title>
<g id="a_node29"><a xlink:href="../../d7/d13/MAX7219__Base_8hpp.html" target="_top" xlink:title=" ">
<polygon fill="white" stroke="black" points="704,-112.5 704,-131.5 810,-131.5 810,-112.5 704,-112.5"/>
<text text-anchor="middle" x="757" y="-119.5" font-family="Helvetica,sans-Serif" font-size="10.00">MAX7219_Base.hpp</text>
</a>
</g>
</g>
<!-- Node18&#45;&gt;Node29 -->
<g id="edge38" class="edge"><title>Node18&#45;&gt;Node29</title>
<path fill="none" stroke="midnightblue" d="M762.85,-158.101C761.356,-149.136 759.643,-138.858 758.459,-131.751"/>
<polygon fill="midnightblue" stroke="midnightblue" points="759.417,-158.794 764.514,-168.083 766.322,-157.644 759.417,-158.794"/>
</g>
<!-- Node20 -->
<g id="node20" class="node"><title>Node20</title>
<g id="a_node20"><a xlink:href="../../de/dd1/Button_8cpp.html" target="_top" xlink:title=" ">
<polygon fill="white" stroke="black" points="1014,-56.5 1014,-75.5 1078,-75.5 1078,-56.5 1014,-56.5"/>
<text text-anchor="middle" x="1046" y="-63.5" font-family="Helvetica,sans-Serif" font-size="10.00">Button.cpp</text>
</a>
</g>
</g>
<!-- Node19&#45;&gt;Node20 -->
<g id="edge24" class="edge"><title>Node19&#45;&gt;Node20</title>
<path fill="none" stroke="midnightblue" d="M1046,-101.805C1046,-92.9102 1046,-82.7798 1046,-75.7511"/>
<polygon fill="midnightblue" stroke="midnightblue" points="1042.5,-102.083 1046,-112.083 1049.5,-102.083 1042.5,-102.083"/>
</g>
<!-- Node21 -->
<g id="node21" class="node"><title>Node21</title>
<g id="a_node21"><a xlink:href="../../d5/d04/IncrementButton_8hpp.html" target="_top" xlink:title=" ">
<polygon fill="white" stroke="black" points="1096.5,-56.5 1096.5,-75.5 1203.5,-75.5 1203.5,-56.5 1096.5,-56.5"/>
<text text-anchor="middle" x="1150" y="-63.5" font-family="Helvetica,sans-Serif" font-size="10.00">IncrementButton.hpp</text>
</a>
</g>
</g>
<!-- Node19&#45;&gt;Node21 -->
<g id="edge25" class="edge"><title>Node19&#45;&gt;Node21</title>
<path fill="none" stroke="midnightblue" d="M1071.83,-107.59C1091.06,-97.6052 1116.74,-84.2672 1133.33,-75.6545"/>
<polygon fill="midnightblue" stroke="midnightblue" points="1069.97,-104.61 1062.71,-112.324 1073.2,-110.822 1069.97,-104.61"/>
</g>
<!-- Node23 -->
<g id="node23" class="node"><title>Node23</title>
<g id="a_node23"><a xlink:href="../../df/df5/IncrementDecrementButtons_8hpp.html" target="_top" xlink:title=" ">
<polygon fill="white" stroke="black" points="1221.5,-56.5 1221.5,-75.5 1382.5,-75.5 1382.5,-56.5 1221.5,-56.5"/>
<text text-anchor="middle" x="1302" y="-63.5" font-family="Helvetica,sans-Serif" font-size="10.00">IncrementDecrementButtons.hpp</text>
</a>
</g>
</g>
<!-- Node19&#45;&gt;Node23 -->
<g id="edge27" class="edge"><title>Node19&#45;&gt;Node23</title>
<path fill="none" stroke="midnightblue" d="M1088.36,-111.723C1154.18,-97.6383 1219.57,-84.0311 1260.76,-75.5075"/>
<polygon fill="midnightblue" stroke="midnightblue" points="1087.27,-108.378 1078.22,-113.896 1088.73,-115.223 1087.27,-108.378"/>
</g>
<!-- Node22 -->
<g id="node22" class="node"><title>Node22</title>
<g id="a_node22"><a xlink:href="../../db/d9d/IncrementButton_8cpp.html" target="_top" xlink:title=" ">
<polygon fill="white" stroke="black" points="1096.5,-0.5 1096.5,-19.5 1203.5,-19.5 1203.5,-0.5 1096.5,-0.5"/>
<text text-anchor="middle" x="1150" y="-7.5" font-family="Helvetica,sans-Serif" font-size="10.00">IncrementButton.cpp</text>
</a>
</g>
</g>
<!-- Node21&#45;&gt;Node22 -->
<g id="edge26" class="edge"><title>Node21&#45;&gt;Node22</title>
<path fill="none" stroke="midnightblue" d="M1150,-45.8045C1150,-36.9102 1150,-26.7798 1150,-19.7511"/>
<polygon fill="midnightblue" stroke="midnightblue" points="1146.5,-46.083 1150,-56.083 1153.5,-46.083 1146.5,-46.083"/>
</g>
<!-- Node24 -->
<g id="node24" class="node"><title>Node24</title>
<g id="a_node24"><a xlink:href="../../da/d66/IncrementDecrementButtons_8cpp.html" target="_top" xlink:title=" ">
<polygon fill="white" stroke="black" points="1221.5,-0.5 1221.5,-19.5 1382.5,-19.5 1382.5,-0.5 1221.5,-0.5"/>
<text text-anchor="middle" x="1302" y="-7.5" font-family="Helvetica,sans-Serif" font-size="10.00">IncrementDecrementButtons.cpp</text>
</a>
</g>
</g>
<!-- Node23&#45;&gt;Node24 -->
<g id="edge28" class="edge"><title>Node23&#45;&gt;Node24</title>
<path fill="none" stroke="midnightblue" d="M1302,-45.8045C1302,-36.9102 1302,-26.7798 1302,-19.7511"/>
<polygon fill="midnightblue" stroke="midnightblue" points="1298.5,-46.083 1302,-56.083 1305.5,-46.083 1298.5,-46.083"/>
</g>
<!-- Node28 -->
<g id="node28" class="node"><title>Node28</title>
<g id="a_node28"><a xlink:href="../../d6/d3a/DotBarDisplayLEDs_8hpp.html" target="_top" xlink:title=" ">
<polygon fill="white" stroke="black" points="834,-56.5 834,-75.5 958,-75.5 958,-56.5 834,-56.5"/>
<text text-anchor="middle" x="896" y="-63.5" font-family="Helvetica,sans-Serif" font-size="10.00">DotBarDisplayLEDs.hpp</text>
</a>
</g>
</g>
<!-- Node27&#45;&gt;Node28 -->
<g id="edge37" class="edge"><title>Node27&#45;&gt;Node28</title>
<path fill="none" stroke="midnightblue" d="M896,-101.805C896,-92.9102 896,-82.7798 896,-75.7511"/>
<polygon fill="midnightblue" stroke="midnightblue" points="892.5,-102.083 896,-112.083 899.5,-102.083 892.5,-102.083"/>
</g>
<!-- Node29&#45;&gt;Node5 -->
<g id="edge39" class="edge"><title>Node29&#45;&gt;Node5</title>
<path fill="none" stroke="midnightblue" d="M713.245,-109.959C672.826,-99.7598 613.627,-84.8217 576.75,-75.5164"/>
<polygon fill="midnightblue" stroke="midnightblue" points="712.539,-113.39 723.091,-112.444 714.251,-106.603 712.539,-113.39"/>
</g>
<!-- Node30 -->
<g id="node30" class="node"><title>Node30</title>
<g id="a_node30"><a xlink:href="../../d5/d0c/MAX7219SevenSegmentDisplay_8hpp.html" target="_top" xlink:title=" ">
<polygon fill="white" stroke="black" points="600,-56.5 600,-75.5 778,-75.5 778,-56.5 600,-56.5"/>
<text text-anchor="middle" x="689" y="-63.5" font-family="Helvetica,sans-Serif" font-size="10.00">MAX7219SevenSegmentDisplay.hpp</text>
</a>
</g>
</g>
<!-- Node29&#45;&gt;Node30 -->
<g id="edge40" class="edge"><title>Node29&#45;&gt;Node30</title>
<path fill="none" stroke="midnightblue" d="M738.238,-106.101C726,-96.3824 710.441,-84.0269 700.124,-75.8339"/>
<polygon fill="midnightblue" stroke="midnightblue" points="736.067,-108.846 746.075,-112.324 740.42,-103.364 736.067,-108.846"/>
</g>
<!-- Node32&#45;&gt;Node12 -->
<g id="edge46" class="edge"><title>Node32&#45;&gt;Node12</title>
<path fill="none" stroke="midnightblue" d="M118,-213.805C118,-204.91 118,-194.78 118,-187.751"/>
<polygon fill="midnightblue" stroke="midnightblue" points="114.5,-214.083 118,-224.083 121.5,-214.083 114.5,-214.083"/>
</g>
<!-- Node34 -->
<g id="node34" class="node"><title>Node34</title>
<g id="a_node34"><a xlink:href="../../df/da1/Notch_8hpp.html" target="_top" xlink:title=" ">
<polygon fill="white" stroke="black" points="886,-224.5 886,-243.5 948,-243.5 948,-224.5 886,-224.5"/>
<text text-anchor="middle" x="917" y="-231.5" font-family="Helvetica,sans-Serif" font-size="10.00">Notch.hpp</text>
</a>
</g>
</g>
<!-- Node33&#45;&gt;Node34 -->
<g id="edge48" class="edge"><title>Node33&#45;&gt;Node34</title>
<path fill="none" stroke="midnightblue" d="M618.251,-279.868C731.597,-261.114 762.365,-262.687 872,-244 876.398,-243.25 881.026,-242.398 885.571,-241.524"/>
<polygon fill="midnightblue" stroke="midnightblue" points="617.412,-276.46 608.126,-281.561 618.567,-283.364 617.412,-276.46"/>
</g>
<!-- Node37&#45;&gt;Node32 -->
<g id="edge52" class="edge"><title>Node37&#45;&gt;Node32</title>
<path fill="none" stroke="midnightblue" d="M183.023,-274.901C166.887,-264.999 145.819,-252.071 132.104,-243.655"/>
<polygon fill="midnightblue" stroke="midnightblue" points="181.507,-278.077 191.861,-280.324 185.169,-272.111 181.507,-278.077"/>
</g>
<!-- Node37&#45;&gt;Node35 -->
<g id="edge53" class="edge"><title>Node37&#45;&gt;Node35</title>
<path fill="none" stroke="midnightblue" d="M206,-269.805C206,-260.91 206,-250.78 206,-243.751"/>
<polygon fill="midnightblue" stroke="midnightblue" points="202.5,-270.083 206,-280.083 209.5,-270.083 202.5,-270.083"/>
</g>
</g>
</svg>
