<?xml version="1.0" encoding="UTF-8" standalone="no"?>
<!DOCTYPE svg PUBLIC "-//W3C//DTD SVG 1.1//EN"
 "http://www.w3.org/Graphics/SVG/1.1/DTD/svg11.dtd">
<!-- Generated by graphviz version 2.43.0 (0)
 -->
<!-- Title: ShiftRegisterOutBase.ipp Pages: 1 -->
<svg width="276pt" height="196pt"
 viewBox="0.00 0.00 275.50 196.00" xmlns="http://www.w3.org/2000/svg" xmlns:xlink="http://www.w3.org/1999/xlink">
<g id="graph0" class="graph" transform="scale(1 1) rotate(0) translate(4 192)">
<title>ShiftRegisterOutBase.ipp</title>
<polygon fill="white" stroke="transparent" points="-4,4 -4,-192 271.5,-192 271.5,4 -4,4"/>
<!-- Node1 -->
<g id="node1" class="node">
<title>Node1</title>
<g id="a_node1"><a xlink:title=" ">
<polygon fill="#bfbfbf" stroke="black" points="68,-168.5 68,-187.5 206,-187.5 206,-168.5 68,-168.5"/>
<text text-anchor="middle" x="137" y="-175.5" font-family="Helvetica,sans-Serif" font-size="10.00">ShiftRegisterOutBase.ipp</text>
</a>
</g>
</g>
<!-- Node2 -->
<g id="node2" class="node">
<title>Node2</title>
<g id="a_node2"><a xlink:href="../../d8/d93/ShiftRegisterOutBase_8hpp.html" target="_top" xlink:title=" ">
<polygon fill="white" stroke="black" points="66.5,-112.5 66.5,-131.5 207.5,-131.5 207.5,-112.5 66.5,-112.5"/>
<text text-anchor="middle" x="137" y="-119.5" font-family="Helvetica,sans-Serif" font-size="10.00">ShiftRegisterOutBase.hpp</text>
</a>
</g>
</g>
<!-- Node1&#45;&gt;Node2 -->
<g id="edge1" class="edge">
<title>Node1&#45;&gt;Node2</title>
<path fill="none" stroke="midnightblue" d="M130.53,-158.1C129.9,-149.14 130.34,-138.86 131.87,-131.75"/>
<polygon fill="midnightblue" stroke="midnightblue" points="127.07,-158.62 131.83,-168.08 134.01,-157.71 127.07,-158.62"/>
</g>
<!-- Node2&#45;&gt;Node1 -->
<g id="edge8" class="edge">
<title>Node2&#45;&gt;Node1</title>
<path fill="none" stroke="midnightblue" d="M143.46,-141.69C144.11,-150.64 143.68,-160.93 142.17,-168.08"/>
<polygon fill="midnightblue" stroke="midnightblue" points="146.92,-141.2 142.13,-131.75 139.98,-142.13 146.92,-141.2"/>
</g>
<!-- Node3 -->
<g id="node3" class="node">
<title>Node3</title>
<g id="a_node3"><a xlink:href="../../d7/d88/SPIShiftRegisterOut_8hpp.html" target="_top" xlink:title=" ">
<polygon fill="white" stroke="black" points="0,-56.5 0,-75.5 132,-75.5 132,-56.5 0,-56.5"/>
<text text-anchor="middle" x="66" y="-63.5" font-family="Helvetica,sans-Serif" font-size="10.00">SPIShiftRegisterOut.hpp</text>
</a>
</g>
</g>
<!-- Node2&#45;&gt;Node3 -->
<g id="edge2" class="edge">
<title>Node2&#45;&gt;Node3</title>
<path fill="none" stroke="midnightblue" d="M117.41,-106.1C104.63,-96.38 88.39,-84.03 77.61,-75.83"/>
<polygon fill="midnightblue" stroke="midnightblue" points="115.51,-109.06 125.59,-112.32 119.75,-103.48 115.51,-109.06"/>
</g>
<!-- Node5 -->
<g id="node5" class="node">
<title>Node5</title>
<g id="a_node5"><a xlink:href="../../d0/db4/ShiftRegisterOut_8hpp.html" target="_top" xlink:title=" ">
<polygon fill="white" stroke="black" points="150.5,-56.5 150.5,-75.5 267.5,-75.5 267.5,-56.5 150.5,-56.5"/>
<text text-anchor="middle" x="209" y="-63.5" font-family="Helvetica,sans-Serif" font-size="10.00">ShiftRegisterOut.hpp</text>
</a>
</g>
</g>
<!-- Node2&#45;&gt;Node5 -->
<g id="edge5" class="edge">
<title>Node2&#45;&gt;Node5</title>
<path fill="none" stroke="midnightblue" d="M156.87,-106.1C169.82,-96.38 186.3,-84.03 197.22,-75.83"/>
<polygon fill="midnightblue" stroke="midnightblue" points="154.47,-103.52 148.57,-112.32 158.67,-109.12 154.47,-103.52"/>
</g>
<!-- Node4 -->
<g id="node4" class="node">
<title>Node4</title>
<g id="a_node4"><a xlink:href="../../da/d45/SPIShiftRegisterOut_8ipp.html" target="_top" xlink:title=" ">
<polygon fill="white" stroke="black" points="1.5,-0.5 1.5,-19.5 130.5,-19.5 130.5,-0.5 1.5,-0.5"/>
<text text-anchor="middle" x="66" y="-7.5" font-family="Helvetica,sans-Serif" font-size="10.00">SPIShiftRegisterOut.ipp</text>
</a>
</g>
</g>
<!-- Node3&#45;&gt;Node4 -->
<g id="edge3" class="edge">
<title>Node3&#45;&gt;Node4</title>
<path fill="none" stroke="midnightblue" d="M59.53,-46.1C58.9,-37.14 59.34,-26.86 60.87,-19.75"/>
<polygon fill="midnightblue" stroke="midnightblue" points="56.07,-46.62 60.83,-56.08 63.01,-45.71 56.07,-46.62"/>
</g>
<!-- Node4&#45;&gt;Node3 -->
<g id="edge4" class="edge">
<title>Node4&#45;&gt;Node3</title>
<path fill="none" stroke="midnightblue" d="M72.46,-29.69C73.11,-38.64 72.68,-48.93 71.17,-56.08"/>
<polygon fill="midnightblue" stroke="midnightblue" points="75.92,-29.2 71.13,-19.75 68.98,-30.13 75.92,-29.2"/>
</g>
<!-- Node6 -->
<g id="node6" class="node">
<title>Node6</title>
<g id="a_node6"><a xlink:href="../../de/d95/ShiftRegisterOut_8ipp.html" target="_top" xlink:title=" ">
<polygon fill="white" stroke="black" points="152,-0.5 152,-19.5 266,-19.5 266,-0.5 152,-0.5"/>
<text text-anchor="middle" x="209" y="-7.5" font-family="Helvetica,sans-Serif" font-size="10.00">ShiftRegisterOut.ipp</text>
</a>
</g>
</g>
<!-- Node5&#45;&gt;Node6 -->
<g id="edge6" class="edge">
<title>Node5&#45;&gt;Node6</title>
<path fill="none" stroke="midnightblue" d="M202.53,-46.1C201.9,-37.14 202.34,-26.86 203.87,-19.75"/>
<polygon fill="midnightblue" stroke="midnightblue" points="199.07,-46.62 203.83,-56.08 206.01,-45.71 199.07,-46.62"/>
</g>
<!-- Node6&#45;&gt;Node5 -->
<g id="edge7" class="edge">
<title>Node6&#45;&gt;Node5</title>
<path fill="none" stroke="midnightblue" d="M215.46,-29.69C216.11,-38.64 215.68,-48.93 214.17,-56.08"/>
<polygon fill="midnightblue" stroke="midnightblue" points="218.92,-29.2 214.13,-19.75 211.98,-30.13 218.92,-29.2"/>
</g>
</g>
</svg>
