<?xml version="1.0" encoding="UTF-8" standalone="no"?>
<!DOCTYPE svg PUBLIC "-//W3C//DTD SVG 1.1//EN"
 "http://www.w3.org/Graphics/SVG/1.1/DTD/svg11.dtd">
<!-- Generated by graphviz version 2.40.1 (20161225.0304)
 -->
<!-- Title: ArrayHelpers.hpp Pages: 1 -->
<svg width="1166pt" height="588pt"
 viewBox="0.00 0.00 1165.50 588.00" xmlns="http://www.w3.org/2000/svg" xmlns:xlink="http://www.w3.org/1999/xlink">
<g id="graph0" class="graph" transform="scale(1 1) rotate(0) translate(4 584)">
<title>ArrayHelpers.hpp</title>
<polygon fill="#ffffff" stroke="transparent" points="-4,4 -4,-584 1161.5,-584 1161.5,4 -4,4"/>
<!-- Node1 -->
<g id="node1" class="node">
<title>Node1</title>
<g id="a_node1"><a xlink:title=" ">
<polygon fill="#bfbfbf" stroke="#000000" points="950,-560.5 950,-579.5 1042,-579.5 1042,-560.5 950,-560.5"/>
<text text-anchor="middle" x="996" y="-567.5" font-family="Helvetica,sans-Serif" font-size="10.00" fill="#000000">ArrayHelpers.hpp</text>
</a>
</g>
</g>
<!-- Node2 -->
<g id="node2" class="node">
<title>Node2</title>
<g id="a_node2"><a xlink:href="../../d1/d65/Warnings_8hpp.html" target="_top" xlink:title=" ">
<polygon fill="#ffffff" stroke="#000000" points="432.5,-.5 432.5,-19.5 565.5,-19.5 565.5,-.5 432.5,-.5"/>
<text text-anchor="middle" x="499" y="-7.5" font-family="Helvetica,sans-Serif" font-size="10.00" fill="#000000">AH/Settings/Warnings.hpp</text>
</a>
</g>
</g>
<!-- Node1&#45;&gt;Node2 -->
<g id="edge1" class="edge">
<title>Node1&#45;&gt;Node2</title>
<path fill="none" stroke="#191970" d="M1001.607,-560.4834C1012.1774,-541.6141 1034,-497.8343 1034,-458 1034,-458 1034,-458 1034,-122 1034,-61.1322 972.0289,-74.3721 914,-56 852.8649,-36.6445 678.0148,-22.0715 575.8286,-14.9153"/>
<polygon fill="#191970" stroke="#191970" points="575.783,-11.4038 565.565,-14.2043 575.2992,-18.3871 575.783,-11.4038"/>
</g>
<!-- Node3 -->
<g id="node3" class="node">
<title>Node3</title>
<g id="a_node3"><a xlink:href="../../de/d76/Array_8hpp.html" target="_top" xlink:title=" ">
<polygon fill="#ffffff" stroke="#000000" points="141.5,-504.5 141.5,-523.5 200.5,-523.5 200.5,-504.5 141.5,-504.5"/>
<text text-anchor="middle" x="171" y="-511.5" font-family="Helvetica,sans-Serif" font-size="10.00" fill="#000000">Array.hpp</text>
</a>
</g>
</g>
<!-- Node1&#45;&gt;Node3 -->
<g id="edge2" class="edge">
<title>Node1&#45;&gt;Node3</title>
<path fill="none" stroke="#191970" d="M949.8766,-566.8692C803.0367,-556.9019 348.046,-526.0177 210.6728,-516.6929"/>
<polygon fill="#191970" stroke="#191970" points="210.8081,-513.1942 200.594,-516.0088 210.334,-520.1781 210.8081,-513.1942"/>
</g>
<!-- Node6 -->
<g id="node6" class="node">
<title>Node6</title>
<g id="a_node6"><a xlink:href="../../dd/d80/PrintStream_8hpp.html" target="_top" xlink:title=" ">
<polygon fill="#ffffff" stroke="#000000" points="809.5,-280.5 809.5,-299.5 968.5,-299.5 968.5,-280.5 809.5,-280.5"/>
<text text-anchor="middle" x="889" y="-287.5" font-family="Helvetica,sans-Serif" font-size="10.00" fill="#000000">AH/PrintStream/PrintStream.hpp</text>
</a>
</g>
</g>
<!-- Node1&#45;&gt;Node6 -->
<g id="edge39" class="edge">
<title>Node1&#45;&gt;Node6</title>
<path fill="none" stroke="#191970" d="M989.9249,-560.2297C978.735,-541.2713 956,-497.8493 956,-458 956,-458 956,-458 956,-402 956,-371.2176 951.0035,-362.2953 935,-336 928.2567,-324.9202 918.3061,-314.5239 909.383,-306.4276"/>
<polygon fill="#191970" stroke="#191970" points="911.449,-303.5867 901.5986,-299.6853 906.8661,-308.878 911.449,-303.5867"/>
</g>
<!-- Node23 -->
<g id="node23" class="node">
<title>Node23</title>
<g id="a_node23"><a xlink:title=" ">
<polygon fill="#ffffff" stroke="#bfbfbf" points="1062.5,-504.5 1062.5,-523.5 1157.5,-523.5 1157.5,-504.5 1062.5,-504.5"/>
<text text-anchor="middle" x="1110" y="-511.5" font-family="Helvetica,sans-Serif" font-size="10.00" fill="#000000">AH/STL/algorithm</text>
</a>
</g>
</g>
<!-- Node1&#45;&gt;Node23 -->
<g id="edge38" class="edge">
<title>Node1&#45;&gt;Node23</title>
<path fill="none" stroke="#191970" d="M1015.5973,-560.3733C1033.7331,-551.4644 1060.9135,-538.1127 1081.4587,-528.0203"/>
<polygon fill="#191970" stroke="#191970" points="1083.2261,-531.0517 1090.6584,-523.5011 1080.1397,-524.7688 1083.2261,-531.0517"/>
</g>
<!-- Node3&#45;&gt;Node2 -->
<g id="edge3" class="edge">
<title>Node3&#45;&gt;Node2</title>
<path fill="none" stroke="#191970" d="M141.2141,-508.6134C92.2214,-497.8465 0,-468.7184 0,-402 0,-402 0,-402 0,-122 0,-64.2222 57.2543,-74.4712 112,-56 167.6703,-37.2169 325.9172,-22.7481 421.9422,-15.3846"/>
<polygon fill="#191970" stroke="#191970" points="422.4763,-18.8542 432.183,-14.6081 421.947,-11.8743 422.4763,-18.8542"/>
</g>
<!-- Node4 -->
<g id="node4" class="node">
<title>Node4</title>
<g id="a_node4"><a xlink:href="../../d1/d93/Error_8hpp.html" target="_top" xlink:title=" ">
<polygon fill="#ffffff" stroke="#000000" points="733,-448.5 733,-467.5 831,-467.5 831,-448.5 733,-448.5"/>
<text text-anchor="middle" x="782" y="-455.5" font-family="Helvetica,sans-Serif" font-size="10.00" fill="#000000">AH/Error/Error.hpp</text>
</a>
</g>
</g>
<!-- Node3&#45;&gt;Node4 -->
<g id="edge4" class="edge">
<title>Node3&#45;&gt;Node4</title>
<path fill="none" stroke="#191970" d="M200.8834,-511.2611C296.292,-502.5166 594.818,-475.1558 722.7916,-463.4266"/>
<polygon fill="#191970" stroke="#191970" points="723.1672,-466.907 732.806,-462.5088 722.5282,-459.9362 723.1672,-466.907"/>
</g>
<!-- Node12 -->
<g id="node12" class="node">
<title>Node12</title>
<g id="a_node12"><a xlink:title=" ">
<polygon fill="#ffffff" stroke="#bfbfbf" points="28.5,-112.5 28.5,-131.5 129.5,-131.5 129.5,-112.5 28.5,-112.5"/>
<text text-anchor="middle" x="79" y="-119.5" font-family="Helvetica,sans-Serif" font-size="10.00" fill="#000000">AH/STL/type_traits</text>
</a>
</g>
</g>
<!-- Node3&#45;&gt;Node12 -->
<g id="edge36" class="edge">
<title>Node3&#45;&gt;Node12</title>
<path fill="none" stroke="#191970" d="M154.5522,-504.232C128.0898,-487.1274 79,-449.0556 79,-402 79,-402 79,-402 79,-234 79,-201.7116 79,-164.1872 79,-141.8048"/>
<polygon fill="#191970" stroke="#191970" points="82.5001,-141.5883 79,-131.5884 75.5001,-141.5884 82.5001,-141.5883"/>
</g>
<!-- Node18 -->
<g id="node18" class="node">
<title>Node18</title>
<g id="a_node18"><a xlink:title=" ">
<polygon fill="#ffffff" stroke="#bfbfbf" points="109,-224.5 109,-243.5 161,-243.5 161,-224.5 109,-224.5"/>
<text text-anchor="middle" x="135" y="-231.5" font-family="Helvetica,sans-Serif" font-size="10.00" fill="#000000">stddef.h</text>
</a>
</g>
</g>
<!-- Node3&#45;&gt;Node18 -->
<g id="edge37" class="edge">
<title>Node3&#45;&gt;Node18</title>
<path fill="none" stroke="#191970" d="M165.6881,-504.4462C155.6741,-485.5117 135,-441.623 135,-402 135,-402 135,-402 135,-346 135,-313.7116 135,-276.1872 135,-253.8048"/>
<polygon fill="#191970" stroke="#191970" points="138.5001,-253.5883 135,-243.5884 131.5001,-253.5884 138.5001,-253.5883"/>
</g>
<!-- Node22 -->
<g id="node22" class="node">
<title>Node22</title>
<g id="a_node22"><a xlink:title=" ">
<polygon fill="#ffffff" stroke="#bfbfbf" points="163.5,-448.5 163.5,-467.5 248.5,-467.5 248.5,-448.5 163.5,-448.5"/>
<text text-anchor="middle" x="206" y="-455.5" font-family="Helvetica,sans-Serif" font-size="10.00" fill="#000000">AH/STL/iterator</text>
</a>
</g>
</g>
<!-- Node3&#45;&gt;Node22 -->
<g id="edge35" class="edge">
<title>Node3&#45;&gt;Node22</title>
<path fill="none" stroke="#191970" d="M177.0965,-504.2455C181.9145,-496.5367 188.7751,-485.5598 194.6032,-476.2348"/>
<polygon fill="#191970" stroke="#191970" points="197.6413,-477.9777 199.9733,-467.6427 191.7053,-474.2677 197.6413,-477.9777"/>
</g>
<!-- Node4&#45;&gt;Node2 -->
<g id="edge5" class="edge">
<title>Node4&#45;&gt;Node2</title>
<path fill="none" stroke="#191970" d="M831.0959,-453.7181C894.276,-445.2074 996,-420.0126 996,-346 996,-346 996,-346 996,-122 996,-41.3643 905.0114,-76.4045 827,-56 742.4699,-33.8905 642.7298,-21.8213 575.616,-15.6628"/>
<polygon fill="#191970" stroke="#191970" points="575.8171,-12.1668 565.5446,-14.7605 575.1924,-19.1389 575.8171,-12.1668"/>
</g>
<!-- Node5 -->
<g id="node5" class="node">
<title>Node5</title>
<g id="a_node5"><a xlink:href="../../df/dee/Debug_8hpp.html" target="_top" xlink:title=" ">
<polygon fill="#ffffff" stroke="#000000" points="725.5,-392.5 725.5,-411.5 838.5,-411.5 838.5,-392.5 725.5,-392.5"/>
<text text-anchor="middle" x="782" y="-399.5" font-family="Helvetica,sans-Serif" font-size="10.00" fill="#000000">AH/Debug/Debug.hpp</text>
</a>
</g>
</g>
<!-- Node4&#45;&gt;Node5 -->
<g id="edge6" class="edge">
<title>Node4&#45;&gt;Node5</title>
<path fill="none" stroke="#191970" d="M782,-448.2455C782,-440.9382 782,-430.6944 782,-421.7046"/>
<polygon fill="#191970" stroke="#191970" points="785.5001,-421.6426 782,-411.6427 778.5001,-421.6427 785.5001,-421.6426"/>
</g>
<!-- Node5&#45;&gt;Node2 -->
<g id="edge7" class="edge">
<title>Node5&#45;&gt;Node2</title>
<path fill="none" stroke="#191970" d="M782,-392.4116C782,-373.0538 782,-327.9167 782,-290 782,-290 782,-290 782,-122 782,-74.7786 644.0497,-38.9002 560.7777,-21.5443"/>
<polygon fill="#191970" stroke="#191970" points="561.4058,-18.1003 550.9066,-19.52 559.9996,-24.9576 561.4058,-18.1003"/>
</g>
<!-- Node5&#45;&gt;Node6 -->
<g id="edge8" class="edge">
<title>Node5&#45;&gt;Node6</title>
<path fill="none" stroke="#191970" d="M789.7875,-392.2984C800.4687,-379.1549 820.4562,-355.1354 839,-336 848.9042,-325.7798 860.5792,-314.9752 870.1558,-306.4073"/>
<polygon fill="#191970" stroke="#191970" points="872.7644,-308.7726 877.9341,-299.5246 868.1257,-303.5302 872.7644,-308.7726"/>
</g>
<!-- Node13 -->
<g id="node13" class="node">
<title>Node13</title>
<g id="a_node13"><a xlink:href="../../d2/dd5/SettingsWrapper_8hpp.html" target="_top" xlink:title=" ">
<polygon fill="#ffffff" stroke="#000000" points="532,-336.5 532,-355.5 696,-355.5 696,-336.5 532,-336.5"/>
<text text-anchor="middle" x="614" y="-343.5" font-family="Helvetica,sans-Serif" font-size="10.00" fill="#000000">AH/Settings/SettingsWrapper.hpp</text>
</a>
</g>
</g>
<!-- Node5&#45;&gt;Node13 -->
<g id="edge19" class="edge">
<title>Node5&#45;&gt;Node13</title>
<path fill="none" stroke="#191970" d="M747.8777,-392.3733C718.3778,-383.1419 676.1888,-369.1402 647.0188,-358.9375"/>
<polygon fill="#191970" stroke="#191970" points="647.8809,-355.5302 637.2861,-355.5011 645.5503,-362.1308 647.8809,-355.5302"/>
</g>
<!-- Node21 -->
<g id="node21" class="node">
<title>Node21</title>
<g id="a_node21"><a xlink:href="../../d7/d52/DebugVal_8hpp.html" target="_top" xlink:title=" ">
<polygon fill="#ffffff" stroke="#000000" points="848,-336.5 848,-355.5 926,-355.5 926,-336.5 848,-336.5"/>
<text text-anchor="middle" x="887" y="-343.5" font-family="Helvetica,sans-Serif" font-size="10.00" fill="#000000">DebugVal.hpp</text>
</a>
</g>
</g>
<!-- Node5&#45;&gt;Node21 -->
<g id="edge34" class="edge">
<title>Node5&#45;&gt;Node21</title>
<path fill="none" stroke="#191970" d="M800.2896,-392.2455C816.7762,-383.4527 841.2352,-370.4079 859.9765,-360.4125"/>
<polygon fill="#191970" stroke="#191970" points="861.7435,-363.4368 868.92,-355.6427 858.4494,-357.2604 861.7435,-363.4368"/>
</g>
<!-- Node6&#45;&gt;Node2 -->
<g id="edge9" class="edge">
<title>Node6&#45;&gt;Node2</title>
<path fill="none" stroke="#191970" d="M883.8356,-280.4283C874.0998,-261.4624 854,-217.5212 854,-178 854,-178 854,-178 854,-122 854,-82.9495 830.2373,-74.7815 796,-56 759.1356,-35.7773 650.9707,-22.7854 575.8939,-15.9351"/>
<polygon fill="#191970" stroke="#191970" points="575.8025,-12.413 565.5307,-15.0091 575.1795,-19.3853 575.8025,-12.413"/>
</g>
<!-- Node7 -->
<g id="node7" class="node">
<title>Node7</title>
<g id="a_node7"><a xlink:href="../../d6/ddf/Arduino-Wrapper_8h.html" target="_top" xlink:title=" ">
<polygon fill="#ffffff" stroke="#000000" points="107.5,-168.5 107.5,-187.5 222.5,-187.5 222.5,-168.5 107.5,-168.5"/>
<text text-anchor="middle" x="165" y="-175.5" font-family="Helvetica,sans-Serif" font-size="10.00" fill="#000000">AH/Arduino&#45;Wrapper.h</text>
</a>
</g>
</g>
<!-- Node6&#45;&gt;Node7 -->
<g id="edge10" class="edge">
<title>Node6&#45;&gt;Node7</title>
<path fill="none" stroke="#191970" d="M841.1446,-280.4983C771.6796,-266.894 638.7742,-241.5713 525,-224 423.6582,-208.3488 305.6742,-194.0065 233.1651,-185.6344"/>
<polygon fill="#191970" stroke="#191970" points="233.1387,-182.1083 222.8044,-184.443 232.339,-189.0625 233.1387,-182.1083"/>
</g>
<!-- Node8 -->
<g id="node8" class="node">
<title>Node8</title>
<g id="a_node8"><a xlink:href="../../d7/d79/MinMaxFix_8hpp.html" target="_top" xlink:title=" ">
<polygon fill="#ffffff" stroke="#000000" points="279.5,-112.5 279.5,-131.5 404.5,-131.5 404.5,-112.5 279.5,-112.5"/>
<text text-anchor="middle" x="342" y="-119.5" font-family="Helvetica,sans-Serif" font-size="10.00" fill="#000000">AH/Math/MinMaxFix.hpp</text>
</a>
</g>
</g>
<!-- Node7&#45;&gt;Node8 -->
<g id="edge11" class="edge">
<title>Node7&#45;&gt;Node8</title>
<path fill="none" stroke="#191970" d="M195.4274,-168.3733C224.9872,-159.021 270.0226,-144.7725 302.3695,-134.5385"/>
<polygon fill="#191970" stroke="#191970" points="303.4913,-137.8546 311.9697,-131.5011 301.3797,-131.1807 303.4913,-137.8546"/>
</g>
<!-- Node10 -->
<g id="node10" class="node">
<title>Node10</title>
<g id="a_node10"><a xlink:title=" ">
<polygon fill="#ffffff" stroke="#bfbfbf" points="117,-.5 117,-19.5 175,-19.5 175,-.5 117,-.5"/>
<text text-anchor="middle" x="146" y="-7.5" font-family="Helvetica,sans-Serif" font-size="10.00" fill="#000000">Arduino.h</text>
</a>
</g>
</g>
<!-- Node7&#45;&gt;Node10 -->
<g id="edge18" class="edge">
<title>Node7&#45;&gt;Node10</title>
<path fill="none" stroke="#191970" d="M161.8368,-168.2732C157.3729,-155.101 148.5779,-131.049 138,-112 128.4185,-94.7453 118.0723,-94.7792 112,-76 106.4047,-58.696 117.305,-40.4177 128.2176,-27.4954"/>
<polygon fill="#191970" stroke="#191970" points="131.0516,-29.5827 135.2172,-19.8412 125.8859,-24.8588 131.0516,-29.5827"/>
</g>
<!-- Node7&#45;&gt;Node12 -->
<g id="edge17" class="edge">
<title>Node7&#45;&gt;Node12</title>
<path fill="none" stroke="#191970" d="M150.0199,-168.2455C136.8249,-159.6534 117.3949,-147.0014 102.1921,-137.1018"/>
<polygon fill="#191970" stroke="#191970" points="104.0983,-134.1665 93.8084,-131.6427 100.2785,-140.0325 104.0983,-134.1665"/>
</g>
<!-- Node8&#45;&gt;Node2 -->
<g id="edge12" class="edge">
<title>Node8&#45;&gt;Node2</title>
<path fill="none" stroke="#191970" d="M347.3763,-112.2349C355.5714,-98.1324 372.4274,-72.0051 393,-56 411.6415,-41.4972 435.5564,-30.6047 455.9514,-23.0692"/>
<polygon fill="#191970" stroke="#191970" points="457.3835,-26.2751 465.6422,-19.6385 455.0474,-19.6764 457.3835,-26.2751"/>
</g>
<!-- Node9 -->
<g id="node9" class="node">
<title>Node9</title>
<g id="a_node9"><a xlink:href="../../d6/d3b/FixArduinoMacros_8hpp.html" target="_top" xlink:title=" ">
<polygon fill="#ffffff" stroke="#000000" points="121,-56.5 121,-75.5 277,-75.5 277,-56.5 121,-56.5"/>
<text text-anchor="middle" x="199" y="-63.5" font-family="Helvetica,sans-Serif" font-size="10.00" fill="#000000">AH/Math/FixArduinoMacros.hpp</text>
</a>
</g>
</g>
<!-- Node8&#45;&gt;Node9 -->
<g id="edge13" class="edge">
<title>Node8&#45;&gt;Node9</title>
<path fill="none" stroke="#191970" d="M317.4174,-112.3733C294.0504,-103.2226 258.7138,-89.3844 232.7216,-79.2057"/>
<polygon fill="#191970" stroke="#191970" points="233.8495,-75.8886 223.2618,-75.5011 231.297,-82.4066 233.8495,-75.8886"/>
</g>
<!-- Node11 -->
<g id="node11" class="node">
<title>Node11</title>
<g id="a_node11"><a xlink:href="../../dc/dc7/NamespaceSettings_8hpp.html" target="_top" xlink:title=" ">
<polygon fill="#ffffff" stroke="#000000" points="409,-56.5 409,-75.5 589,-75.5 589,-56.5 409,-56.5"/>
<text text-anchor="middle" x="499" y="-63.5" font-family="Helvetica,sans-Serif" font-size="10.00" fill="#000000">AH/Settings/NamespaceSettings.hpp</text>
</a>
</g>
</g>
<!-- Node8&#45;&gt;Node11 -->
<g id="edge16" class="edge">
<title>Node8&#45;&gt;Node11</title>
<path fill="none" stroke="#191970" d="M368.9893,-112.3733C394.8699,-103.1419 434.1248,-89.1402 462.7289,-78.9375"/>
<polygon fill="#191970" stroke="#191970" points="464.12,-82.1573 472.3629,-75.5011 461.7683,-75.5642 464.12,-82.1573"/>
</g>
<!-- Node9&#45;&gt;Node2 -->
<g id="edge14" class="edge">
<title>Node9&#45;&gt;Node2</title>
<path fill="none" stroke="#191970" d="M250.231,-56.4369C302.2208,-46.7321 382.7073,-31.708 437.9681,-21.3926"/>
<polygon fill="#191970" stroke="#191970" points="438.7924,-24.7993 447.9803,-19.5237 437.5079,-17.9182 438.7924,-24.7993"/>
</g>
<!-- Node9&#45;&gt;Node10 -->
<g id="edge15" class="edge">
<title>Node9&#45;&gt;Node10</title>
<path fill="none" stroke="#191970" d="M189.7681,-56.2455C182.1683,-48.2155 171.2123,-36.6394 162.1632,-27.0781"/>
<polygon fill="#191970" stroke="#191970" points="164.542,-24.4998 155.1261,-19.6427 159.4579,-29.3115 164.542,-24.4998"/>
</g>
<!-- Node13&#45;&gt;Node2 -->
<g id="edge20" class="edge">
<title>Node13&#45;&gt;Node2</title>
<path fill="none" stroke="#191970" d="M602.8498,-336.3293C593.9329,-327.8007 582.1079,-314.5 577,-300 574.0466,-291.6161 576.5443,-288.8772 577,-280 582.1263,-180.1394 651.7833,-140.2958 598,-56 587.9797,-40.2949 571.0584,-29.8684 554.013,-22.9824"/>
<polygon fill="#191970" stroke="#191970" points="555.1671,-19.6777 544.5736,-19.51 552.7504,-26.2473 555.1671,-19.6777"/>
</g>
<!-- Node13&#45;&gt;Node5 -->
<g id="edge33" class="edge">
<title>Node13&#45;&gt;Node5</title>
<path fill="none" stroke="#191970" d="M647.7207,-355.5011C677.1046,-364.6889 719.2947,-378.686 748.5825,-388.9231"/>
<polygon fill="#191970" stroke="#191970" points="747.767,-392.3468 758.3618,-392.3733 750.096,-385.7456 747.767,-392.3468"/>
</g>
<!-- Node13&#45;&gt;Node11 -->
<g id="edge21" class="edge">
<title>Node13&#45;&gt;Node11</title>
<path fill="none" stroke="#191970" d="M588.115,-336.4647C572.2773,-329.1252 553.3206,-317.2779 544,-300 504.1865,-226.1963 597.4041,-187.0535 560,-112 553.3997,-98.756 540.9673,-88.3192 529.0395,-80.7581"/>
<polygon fill="#191970" stroke="#191970" points="530.5199,-77.5691 520.1216,-75.5378 526.9835,-83.6102 530.5199,-77.5691"/>
</g>
<!-- Node14 -->
<g id="node14" class="node">
<title>Node14</title>
<g id="a_node14"><a xlink:href="../../db/d02/Settings_8hpp.html" target="_top" xlink:title="All user settings and debugging options can be changed here.">
<polygon fill="#ffffff" stroke="#000000" points="362.5,-280.5 362.5,-299.5 433.5,-299.5 433.5,-280.5 362.5,-280.5"/>
<text text-anchor="middle" x="398" y="-287.5" font-family="Helvetica,sans-Serif" font-size="10.00" fill="#000000">Settings.hpp</text>
</a>
</g>
</g>
<!-- Node13&#45;&gt;Node14 -->
<g id="edge22" class="edge">
<title>Node13&#45;&gt;Node14</title>
<path fill="none" stroke="#191970" d="M576.8683,-336.3733C539.8397,-326.7733 482.912,-312.0142 443.259,-301.7338"/>
<polygon fill="#191970" stroke="#191970" points="444.1309,-298.3442 433.5725,-299.2225 442.3741,-305.1202 444.1309,-298.3442"/>
</g>
<!-- Node20 -->
<g id="node20" class="node">
<title>Node20</title>
<g id="a_node20"><a xlink:href="../../d9/d98/TeensyUSBTypes_8hpp.html" target="_top" xlink:title=" ">
<polygon fill="#ffffff" stroke="#000000" points="586,-280.5 586,-299.5 754,-299.5 754,-280.5 586,-280.5"/>
<text text-anchor="middle" x="670" y="-287.5" font-family="Helvetica,sans-Serif" font-size="10.00" fill="#000000">AH/Teensy/TeensyUSBTypes.hpp</text>
</a>
</g>
</g>
<!-- Node13&#45;&gt;Node20 -->
<g id="edge32" class="edge">
<title>Node13&#45;&gt;Node20</title>
<path fill="none" stroke="#191970" d="M623.7545,-336.2455C631.8648,-328.1352 643.5925,-316.4075 653.2081,-306.7919"/>
<polygon fill="#191970" stroke="#191970" points="655.7611,-309.1887 660.3573,-299.6427 650.8113,-304.2389 655.7611,-309.1887"/>
</g>
<!-- Node15 -->
<g id="node15" class="node">
<title>Node15</title>
<g id="a_node15"><a xlink:href="../../dc/d50/Frequency_8hpp.html" target="_top" xlink:title=" ">
<polygon fill="#ffffff" stroke="#000000" points="423,-112.5 423,-131.5 551,-131.5 551,-112.5 423,-112.5"/>
<text text-anchor="middle" x="487" y="-119.5" font-family="Helvetica,sans-Serif" font-size="10.00" fill="#000000">AH/Types/Frequency.hpp</text>
</a>
</g>
</g>
<!-- Node14&#45;&gt;Node15 -->
<g id="edge23" class="edge">
<title>Node14&#45;&gt;Node15</title>
<path fill="none" stroke="#191970" d="M394.1862,-280.2153C389.6361,-266.9775 383.5239,-242.8515 391,-224 405.706,-186.9177 440.9841,-155.4768 464.4309,-137.6739"/>
<polygon fill="#191970" stroke="#191970" points="466.7917,-140.2821 472.7702,-131.5352 462.6419,-134.6447 466.7917,-140.2821"/>
</g>
<!-- Node16 -->
<g id="node16" class="node">
<title>Node16</title>
<g id="a_node16"><a xlink:href="../../d7/d7c/ADCConfig_8hpp.html" target="_top" xlink:title="This file contains the platform&#45;specific ADC resolutions. By default, the library automatically selec...">
<polygon fill="#ffffff" stroke="#000000" points="179,-224.5 179,-243.5 327,-243.5 327,-224.5 179,-224.5"/>
<text text-anchor="middle" x="253" y="-231.5" font-family="Helvetica,sans-Serif" font-size="10.00" fill="#000000">AH/Hardware/ADCConfig.hpp</text>
</a>
</g>
</g>
<!-- Node14&#45;&gt;Node16 -->
<g id="edge26" class="edge">
<title>Node14&#45;&gt;Node16</title>
<path fill="none" stroke="#191970" d="M373.0736,-280.3733C349.3798,-271.2226 313.5489,-257.3844 287.1932,-247.2057"/>
<polygon fill="#191970" stroke="#191970" points="288.1906,-243.8389 277.6011,-243.5011 285.6686,-250.3689 288.1906,-243.8389"/>
</g>
<!-- Node17 -->
<g id="node17" class="node">
<title>Node17</title>
<g id="a_node17"><a xlink:title=" ">
<polygon fill="#ffffff" stroke="#bfbfbf" points="468,-224.5 468,-243.5 516,-243.5 516,-224.5 468,-224.5"/>
<text text-anchor="middle" x="492" y="-231.5" font-family="Helvetica,sans-Serif" font-size="10.00" fill="#000000">limits.h</text>
</a>
</g>
</g>
<!-- Node14&#45;&gt;Node17 -->
<g id="edge29" class="edge">
<title>Node14&#45;&gt;Node17</title>
<path fill="none" stroke="#191970" d="M414.3736,-280.2455C428.9308,-271.5731 450.431,-258.7645 467.1152,-248.825"/>
<polygon fill="#191970" stroke="#191970" points="469.0144,-251.7676 475.8141,-243.6427 465.4317,-245.7539 469.0144,-251.7676"/>
</g>
<!-- Node14&#45;&gt;Node18 -->
<g id="edge30" class="edge">
<title>Node14&#45;&gt;Node18</title>
<path fill="none" stroke="#191970" d="M362.2638,-283.6963C319.1464,-275.892 244.2733,-261.7079 171.1496,-244.1456"/>
<polygon fill="#191970" stroke="#191970" points="171.8571,-240.7158 161.3139,-241.7599 170.207,-247.5186 171.8571,-240.7158"/>
</g>
<!-- Node19 -->
<g id="node19" class="node">
<title>Node19</title>
<g id="a_node19"><a xlink:title=" ">
<polygon fill="#ffffff" stroke="#bfbfbf" points="400.5,-224.5 400.5,-243.5 449.5,-243.5 449.5,-224.5 400.5,-224.5"/>
<text text-anchor="middle" x="425" y="-231.5" font-family="Helvetica,sans-Serif" font-size="10.00" fill="#000000">stdint.h</text>
</a>
</g>
</g>
<!-- Node14&#45;&gt;Node19 -->
<g id="edge31" class="edge">
<title>Node14&#45;&gt;Node19</title>
<path fill="none" stroke="#191970" d="M402.703,-280.2455C406.3424,-272.6973 411.4924,-262.0158 415.9262,-252.8197"/>
<polygon fill="#191970" stroke="#191970" points="419.1605,-254.1704 420.3509,-243.6427 412.8551,-251.1303 419.1605,-254.1704"/>
</g>
<!-- Node15&#45;&gt;Node2 -->
<g id="edge24" class="edge">
<title>Node15&#45;&gt;Node2</title>
<path fill="none" stroke="#191970" d="M454.0296,-112.4123C422.9503,-101.5647 383.4293,-81.9717 400,-56 410.0203,-40.2949 426.9416,-29.8684 443.987,-22.9824"/>
<polygon fill="#191970" stroke="#191970" points="445.2496,-26.2473 453.4264,-19.51 442.8329,-19.6777 445.2496,-26.2473"/>
</g>
<!-- Node15&#45;&gt;Node11 -->
<g id="edge25" class="edge">
<title>Node15&#45;&gt;Node11</title>
<path fill="none" stroke="#191970" d="M489.0902,-112.2455C490.6561,-104.9382 492.8512,-94.6944 494.7776,-85.7046"/>
<polygon fill="#191970" stroke="#191970" points="498.2607,-86.1541 496.9337,-75.6427 491.416,-84.6873 498.2607,-86.1541"/>
</g>
<!-- Node16&#45;&gt;Node2 -->
<g id="edge27" class="edge">
<title>Node16&#45;&gt;Node2</title>
<path fill="none" stroke="#191970" d="M251.6591,-224.4405C249.1006,-202.4596 245.7513,-147.4915 270,-112 305.2906,-60.3472 373.1439,-34.542 425.8686,-21.8426"/>
<polygon fill="#191970" stroke="#191970" points="426.899,-25.1972 435.8615,-19.5471 425.3318,-18.3749 426.899,-25.1972"/>
</g>
<!-- Node16&#45;&gt;Node7 -->
<g id="edge28" class="edge">
<title>Node16&#45;&gt;Node7</title>
<path fill="none" stroke="#191970" d="M237.6716,-224.2455C224.1697,-215.6534 204.2878,-203.0014 188.7314,-193.1018"/>
<polygon fill="#191970" stroke="#191970" points="190.4685,-190.0587 180.1528,-187.6427 186.7103,-195.9643 190.4685,-190.0587"/>
</g>
</g>
</svg>
