<?xml version="1.0" encoding="UTF-8" standalone="no"?>
<!DOCTYPE svg PUBLIC "-//W3C//DTD SVG 1.1//EN"
 "http://www.w3.org/Graphics/SVG/1.1/DTD/svg11.dtd">
<!-- Generated by graphviz version 2.43.0 (0)
 -->
<!-- Title: LinkedList.hpp Pages: 1 -->
<svg width="946pt" height="364pt"
 viewBox="0.00 0.00 946.00 364.00" xmlns="http://www.w3.org/2000/svg" xmlns:xlink="http://www.w3.org/1999/xlink">
<g id="graph0" class="graph" transform="scale(1 1) rotate(0) translate(4 360)">
<title>LinkedList.hpp</title>
<polygon fill="white" stroke="transparent" points="-4,4 -4,-360 942,-360 942,4 -4,4"/>
<!-- Node1 -->
<g id="node1" class="node">
<title>Node1</title>
<g id="a_node1"><a xlink:title=" ">
<polygon fill="#bfbfbf" stroke="black" points="179,-336.5 179,-355.5 265,-355.5 265,-336.5 179,-336.5"/>
<text text-anchor="middle" x="222" y="-343.5" font-family="Helvetica,sans-Serif" font-size="10.00">LinkedList.hpp</text>
</a>
</g>
</g>
<!-- Node2 -->
<g id="node2" class="node">
<title>Node2</title>
<g id="a_node2"><a xlink:href="../../d4/d93/Updatable_8hpp.html" target="_top" xlink:title=" ">
<polygon fill="white" stroke="black" points="178,-280.5 178,-299.5 266,-299.5 266,-280.5 178,-280.5"/>
<text text-anchor="middle" x="222" y="-287.5" font-family="Helvetica,sans-Serif" font-size="10.00">Updatable.hpp</text>
</a>
</g>
</g>
<!-- Node1&#45;&gt;Node2 -->
<g id="edge1" class="edge">
<title>Node1&#45;&gt;Node2</title>
<path fill="none" stroke="midnightblue" d="M222,-325.8C222,-316.91 222,-306.78 222,-299.75"/>
<polygon fill="midnightblue" stroke="midnightblue" points="218.5,-326.08 222,-336.08 225.5,-326.08 218.5,-326.08"/>
</g>
<!-- Node3 -->
<g id="node3" class="node">
<title>Node3</title>
<g id="a_node3"><a xlink:href="../../d4/d57/ExtendedIOElement_8hpp.html" target="_top" xlink:title=" ">
<polygon fill="white" stroke="black" points="155,-224.5 155,-243.5 289,-243.5 289,-224.5 155,-224.5"/>
<text text-anchor="middle" x="222" y="-231.5" font-family="Helvetica,sans-Serif" font-size="10.00">ExtendedIOElement.hpp</text>
</a>
</g>
</g>
<!-- Node2&#45;&gt;Node3 -->
<g id="edge2" class="edge">
<title>Node2&#45;&gt;Node3</title>
<path fill="none" stroke="midnightblue" d="M222,-269.8C222,-260.91 222,-250.78 222,-243.75"/>
<polygon fill="midnightblue" stroke="midnightblue" points="218.5,-270.08 222,-280.08 225.5,-270.08 218.5,-270.08"/>
</g>
<!-- Node4 -->
<g id="node4" class="node">
<title>Node4</title>
<g id="a_node4"><a xlink:href="../../da/d1f/ExtendedIOElement_8cpp.html" target="_top" xlink:title=" ">
<polygon fill="white" stroke="black" points="0,-168.5 0,-187.5 134,-187.5 134,-168.5 0,-168.5"/>
<text text-anchor="middle" x="67" y="-175.5" font-family="Helvetica,sans-Serif" font-size="10.00">ExtendedIOElement.cpp</text>
</a>
</g>
</g>
<!-- Node3&#45;&gt;Node4 -->
<g id="edge3" class="edge">
<title>Node3&#45;&gt;Node4</title>
<path fill="none" stroke="midnightblue" d="M187.67,-221.04C158.5,-210.88 117.36,-196.55 91.45,-187.52"/>
<polygon fill="midnightblue" stroke="midnightblue" points="186.84,-224.46 197.44,-224.44 189.15,-217.85 186.84,-224.46"/>
</g>
<!-- Node5 -->
<g id="node5" class="node">
<title>Node5</title>
<g id="a_node5"><a xlink:href="../../d6/d3c/ExtendedInputOutput_8cpp.html" target="_top" xlink:title=" ">
<polygon fill="white" stroke="black" points="152,-168.5 152,-187.5 292,-187.5 292,-168.5 152,-168.5"/>
<text text-anchor="middle" x="222" y="-175.5" font-family="Helvetica,sans-Serif" font-size="10.00">ExtendedInputOutput.cpp</text>
</a>
</g>
</g>
<!-- Node3&#45;&gt;Node5 -->
<g id="edge4" class="edge">
<title>Node3&#45;&gt;Node5</title>
<path fill="none" stroke="midnightblue" d="M222,-213.8C222,-204.91 222,-194.78 222,-187.75"/>
<polygon fill="midnightblue" stroke="midnightblue" points="218.5,-214.08 222,-224.08 225.5,-214.08 218.5,-214.08"/>
</g>
<!-- Node6 -->
<g id="node6" class="node">
<title>Node6</title>
<g id="a_node6"><a xlink:href="../../d2/d05/StaticSizeExtendedIOElement_8hpp.html" target="_top" xlink:title=" ">
<polygon fill="white" stroke="black" points="310,-168.5 310,-187.5 492,-187.5 492,-168.5 310,-168.5"/>
<text text-anchor="middle" x="401" y="-175.5" font-family="Helvetica,sans-Serif" font-size="10.00">StaticSizeExtendedIOElement.hpp</text>
</a>
</g>
</g>
<!-- Node3&#45;&gt;Node6 -->
<g id="edge5" class="edge">
<title>Node3&#45;&gt;Node6</title>
<path fill="none" stroke="midnightblue" d="M260.33,-221.44C294.08,-211.26 342.45,-196.66 372.77,-187.52"/>
<polygon fill="midnightblue" stroke="midnightblue" points="258.93,-218.2 250.36,-224.44 260.95,-224.91 258.93,-218.2"/>
</g>
<!-- Node7 -->
<g id="node7" class="node">
<title>Node7</title>
<g id="a_node7"><a xlink:href="../../d7/def/AnalogMultiplex_8hpp.html" target="_top" xlink:title=" ">
<polygon fill="white" stroke="black" points="171.5,-112.5 171.5,-131.5 288.5,-131.5 288.5,-112.5 171.5,-112.5"/>
<text text-anchor="middle" x="230" y="-119.5" font-family="Helvetica,sans-Serif" font-size="10.00">AnalogMultiplex.hpp</text>
</a>
</g>
</g>
<!-- Node6&#45;&gt;Node7 -->
<g id="edge6" class="edge">
<title>Node6&#45;&gt;Node7</title>
<path fill="none" stroke="midnightblue" d="M363.96,-165.3C331.74,-155.13 285.81,-140.62 256.97,-131.52"/>
<polygon fill="midnightblue" stroke="midnightblue" points="363.31,-168.77 373.9,-168.44 365.42,-162.09 363.31,-168.77"/>
</g>
<!-- Node8 -->
<g id="node8" class="node">
<title>Node8</title>
<g id="a_node8"><a xlink:href="../../d2/d25/MAX7219_8hpp.html" target="_top" xlink:title=" ">
<polygon fill="white" stroke="black" points="307,-112.5 307,-131.5 391,-131.5 391,-112.5 307,-112.5"/>
<text text-anchor="middle" x="349" y="-119.5" font-family="Helvetica,sans-Serif" font-size="10.00">MAX7219.hpp</text>
</a>
</g>
</g>
<!-- Node6&#45;&gt;Node8 -->
<g id="edge7" class="edge">
<title>Node6&#45;&gt;Node8</title>
<path fill="none" stroke="midnightblue" d="M385.32,-160.72C376.16,-151.2 364.95,-139.56 357.43,-131.75"/>
<polygon fill="midnightblue" stroke="midnightblue" points="382.96,-163.31 392.41,-168.08 388,-158.45 382.96,-163.31"/>
</g>
<!-- Node9 -->
<g id="node9" class="node">
<title>Node9</title>
<g id="a_node9"><a xlink:href="../../d7/dca/MCP23017_8hpp.html" target="_top" xlink:title=" ">
<polygon fill="white" stroke="black" points="408.5,-112.5 408.5,-131.5 497.5,-131.5 497.5,-112.5 408.5,-112.5"/>
<text text-anchor="middle" x="453" y="-119.5" font-family="Helvetica,sans-Serif" font-size="10.00">MCP23017.hpp</text>
</a>
</g>
</g>
<!-- Node6&#45;&gt;Node9 -->
<g id="edge8" class="edge">
<title>Node6&#45;&gt;Node9</title>
<path fill="none" stroke="midnightblue" d="M416.68,-160.72C425.84,-151.2 437.05,-139.56 444.57,-131.75"/>
<polygon fill="midnightblue" stroke="midnightblue" points="414,-158.45 409.59,-168.08 419.04,-163.31 414,-158.45"/>
</g>
<!-- Node11 -->
<g id="node11" class="node">
<title>Node11</title>
<g id="a_node11"><a xlink:href="../../d8/d93/ShiftRegisterOutBase_8hpp.html" target="_top" xlink:title=" ">
<polygon fill="white" stroke="black" points="652.5,-112.5 652.5,-131.5 793.5,-131.5 793.5,-112.5 652.5,-112.5"/>
<text text-anchor="middle" x="723" y="-119.5" font-family="Helvetica,sans-Serif" font-size="10.00">ShiftRegisterOutBase.hpp</text>
</a>
</g>
</g>
<!-- Node6&#45;&gt;Node11 -->
<g id="edge11" class="edge">
<title>Node6&#45;&gt;Node11</title>
<path fill="none" stroke="midnightblue" d="M462.25,-166.73C523.1,-156.52 615.32,-141.06 672.22,-131.52"/>
<polygon fill="midnightblue" stroke="midnightblue" points="461.31,-163.34 452.02,-168.44 462.46,-170.24 461.31,-163.34"/>
</g>
<!-- Node10 -->
<g id="node10" class="node">
<title>Node10</title>
<g id="a_node10"><a xlink:href="../../d2/d94/MCP23017_8ipp.html" target="_top" xlink:title=" ">
<polygon fill="white" stroke="black" points="410,-56.5 410,-75.5 496,-75.5 496,-56.5 410,-56.5"/>
<text text-anchor="middle" x="453" y="-63.5" font-family="Helvetica,sans-Serif" font-size="10.00">MCP23017.ipp</text>
</a>
</g>
</g>
<!-- Node9&#45;&gt;Node10 -->
<g id="edge9" class="edge">
<title>Node9&#45;&gt;Node10</title>
<path fill="none" stroke="midnightblue" d="M446.53,-102.1C445.9,-93.14 446.34,-82.86 447.87,-75.75"/>
<polygon fill="midnightblue" stroke="midnightblue" points="443.07,-102.62 447.83,-112.08 450.01,-101.71 443.07,-102.62"/>
</g>
<!-- Node10&#45;&gt;Node9 -->
<g id="edge10" class="edge">
<title>Node10&#45;&gt;Node9</title>
<path fill="none" stroke="midnightblue" d="M459.46,-85.69C460.11,-94.64 459.68,-104.93 458.17,-112.08"/>
<polygon fill="midnightblue" stroke="midnightblue" points="462.92,-85.2 458.13,-75.75 455.98,-86.13 462.92,-85.2"/>
</g>
<!-- Node12 -->
<g id="node12" class="node">
<title>Node12</title>
<g id="a_node12"><a xlink:href="../../d7/d88/SPIShiftRegisterOut_8hpp.html" target="_top" xlink:title=" ">
<polygon fill="white" stroke="black" points="514,-56.5 514,-75.5 646,-75.5 646,-56.5 514,-56.5"/>
<text text-anchor="middle" x="580" y="-63.5" font-family="Helvetica,sans-Serif" font-size="10.00">SPIShiftRegisterOut.hpp</text>
</a>
</g>
</g>
<!-- Node11&#45;&gt;Node12 -->
<g id="edge12" class="edge">
<title>Node11&#45;&gt;Node12</title>
<path fill="none" stroke="midnightblue" d="M690.97,-108.91C664.09,-98.75 626.36,-84.51 602.55,-75.52"/>
<polygon fill="midnightblue" stroke="midnightblue" points="689.75,-112.19 700.34,-112.44 692.22,-105.64 689.75,-112.19"/>
</g>
<!-- Node14 -->
<g id="node14" class="node">
<title>Node14</title>
<g id="a_node14"><a xlink:href="../../d0/db4/ShiftRegisterOut_8hpp.html" target="_top" xlink:title=" ">
<polygon fill="white" stroke="black" points="664.5,-56.5 664.5,-75.5 781.5,-75.5 781.5,-56.5 664.5,-56.5"/>
<text text-anchor="middle" x="723" y="-63.5" font-family="Helvetica,sans-Serif" font-size="10.00">ShiftRegisterOut.hpp</text>
</a>
</g>
</g>
<!-- Node11&#45;&gt;Node14 -->
<g id="edge15" class="edge">
<title>Node11&#45;&gt;Node14</title>
<path fill="none" stroke="midnightblue" d="M723,-101.8C723,-92.91 723,-82.78 723,-75.75"/>
<polygon fill="midnightblue" stroke="midnightblue" points="719.5,-102.08 723,-112.08 726.5,-102.08 719.5,-102.08"/>
</g>
<!-- Node16 -->
<g id="node16" class="node">
<title>Node16</title>
<g id="a_node16"><a xlink:href="../../d5/d47/ShiftRegisterOutBase_8ipp.html" target="_top" xlink:title=" ">
<polygon fill="white" stroke="black" points="800,-56.5 800,-75.5 938,-75.5 938,-56.5 800,-56.5"/>
<text text-anchor="middle" x="869" y="-63.5" font-family="Helvetica,sans-Serif" font-size="10.00">ShiftRegisterOutBase.ipp</text>
</a>
</g>
</g>
<!-- Node11&#45;&gt;Node16 -->
<g id="edge18" class="edge">
<title>Node11&#45;&gt;Node16</title>
<path fill="none" stroke="midnightblue" d="M750.65,-108.64C776.55,-98.5 814.84,-84.43 840.89,-75.52"/>
<polygon fill="midnightblue" stroke="midnightblue" points="749.05,-105.5 741.05,-112.44 751.63,-112.01 749.05,-105.5"/>
</g>
<!-- Node13 -->
<g id="node13" class="node">
<title>Node13</title>
<g id="a_node13"><a xlink:href="../../da/d45/SPIShiftRegisterOut_8ipp.html" target="_top" xlink:title=" ">
<polygon fill="white" stroke="black" points="515.5,-0.5 515.5,-19.5 644.5,-19.5 644.5,-0.5 515.5,-0.5"/>
<text text-anchor="middle" x="580" y="-7.5" font-family="Helvetica,sans-Serif" font-size="10.00">SPIShiftRegisterOut.ipp</text>
</a>
</g>
</g>
<!-- Node12&#45;&gt;Node13 -->
<g id="edge13" class="edge">
<title>Node12&#45;&gt;Node13</title>
<path fill="none" stroke="midnightblue" d="M573.53,-46.1C572.9,-37.14 573.34,-26.86 574.87,-19.75"/>
<polygon fill="midnightblue" stroke="midnightblue" points="570.07,-46.62 574.83,-56.08 577.01,-45.71 570.07,-46.62"/>
</g>
<!-- Node13&#45;&gt;Node12 -->
<g id="edge14" class="edge">
<title>Node13&#45;&gt;Node12</title>
<path fill="none" stroke="midnightblue" d="M586.46,-29.69C587.11,-38.64 586.68,-48.93 585.17,-56.08"/>
<polygon fill="midnightblue" stroke="midnightblue" points="589.92,-29.2 585.13,-19.75 582.98,-30.13 589.92,-29.2"/>
</g>
<!-- Node15 -->
<g id="node15" class="node">
<title>Node15</title>
<g id="a_node15"><a xlink:href="../../de/d95/ShiftRegisterOut_8ipp.html" target="_top" xlink:title=" ">
<polygon fill="white" stroke="black" points="666,-0.5 666,-19.5 780,-19.5 780,-0.5 666,-0.5"/>
<text text-anchor="middle" x="723" y="-7.5" font-family="Helvetica,sans-Serif" font-size="10.00">ShiftRegisterOut.ipp</text>
</a>
</g>
</g>
<!-- Node14&#45;&gt;Node15 -->
<g id="edge16" class="edge">
<title>Node14&#45;&gt;Node15</title>
<path fill="none" stroke="midnightblue" d="M716.53,-46.1C715.9,-37.14 716.34,-26.86 717.87,-19.75"/>
<polygon fill="midnightblue" stroke="midnightblue" points="713.07,-46.62 717.83,-56.08 720.01,-45.71 713.07,-46.62"/>
</g>
<!-- Node15&#45;&gt;Node14 -->
<g id="edge17" class="edge">
<title>Node15&#45;&gt;Node14</title>
<path fill="none" stroke="midnightblue" d="M729.46,-29.69C730.11,-38.64 729.68,-48.93 728.17,-56.08"/>
<polygon fill="midnightblue" stroke="midnightblue" points="732.92,-29.2 728.13,-19.75 725.98,-30.13 732.92,-29.2"/>
</g>
<!-- Node16&#45;&gt;Node11 -->
<g id="edge19" class="edge">
<title>Node16&#45;&gt;Node11</title>
<path fill="none" stroke="midnightblue" d="M841.47,-79.32C815.61,-89.44 777.32,-103.52 751.22,-112.44"/>
<polygon fill="midnightblue" stroke="midnightblue" points="843.05,-82.46 851.05,-75.52 840.47,-75.95 843.05,-82.46"/>
</g>
</g>
</svg>
