<?xml version="1.0" encoding="UTF-8" standalone="no"?>
<!DOCTYPE svg PUBLIC "-//W3C//DTD SVG 1.1//EN"
 "http://www.w3.org/Graphics/SVG/1.1/DTD/svg11.dtd">
<!-- Generated by graphviz version 2.40.1 (20161225.0304)
 -->
<!-- Title: DoublyLinkedList&lt; Node &gt;::reverse_node_iterator&lt; INode &gt; Pages: 1 -->
<svg width="133pt" height="226pt"
 viewBox="0.00 0.00 133.00 226.00" xmlns="http://www.w3.org/2000/svg" xmlns:xlink="http://www.w3.org/1999/xlink">
<g id="graph0" class="graph" transform="scale(1 1) rotate(0) translate(4 222)">
<title>DoublyLinkedList&lt; Node &gt;::reverse_node_iterator&lt; INode &gt;</title>
<polygon fill="#ffffff" stroke="transparent" points="-4,4 -4,-222 129,-222 129,4 -4,4"/>
<!-- Node1 -->
<g id="node1" class="node">
<title>Node1</title>
<g id="a_node1"><a xlink:title="Reverse bidirectional doubly linked list iterator.">
<polygon fill="#bfbfbf" stroke="#000000" points="0,-.5 0,-101.5 125,-101.5 125,-.5 0,-.5"/>
<text text-anchor="start" x="8" y="-89.5" font-family="Helvetica,sans-Serif" font-size="10.00" fill="#000000">DoublyLinkedList&lt; Node</text>
<text text-anchor="start" x="8" y="-78.5" font-family="Helvetica,sans-Serif" font-size="10.00" fill="#000000"> &gt;::reverse_node_iterator</text>
<text text-anchor="middle" x="62.5" y="-67.5" font-family="Helvetica,sans-Serif" font-size="10.00" fill="#000000">&lt; INode &gt;</text>
<polyline fill="none" stroke="#000000" points="0,-60.5 125,-60.5 "/>
<text text-anchor="middle" x="62.5" y="-48.5" font-family="Helvetica,sans-Serif" font-size="10.00" fill="#000000"> </text>
<polyline fill="none" stroke="#000000" points="0,-41.5 125,-41.5 "/>
<text text-anchor="start" x="8" y="-29.5" font-family="Helvetica,sans-Serif" font-size="10.00" fill="#000000">+ reverse_node_iterator()</text>
<text text-anchor="start" x="8" y="-18.5" font-family="Helvetica,sans-Serif" font-size="10.00" fill="#000000">+ operator++()</text>
<text text-anchor="start" x="8" y="-7.5" font-family="Helvetica,sans-Serif" font-size="10.00" fill="#000000">+ operator&#45;&#45;()</text>
</a>
</g>
</g>
<!-- Node2 -->
<g id="node2" class="node">
<title>Node2</title>
<g id="a_node2"><a xlink:href="../../db/d52/classDoublyLinkedList_1_1node__iterator__base.html" target="_top" xlink:title="Base class for doubly linked list iterators.">
<polygon fill="#ffffff" stroke="#000000" points="5.5,-138.5 5.5,-217.5 119.5,-217.5 119.5,-138.5 5.5,-138.5"/>
<text text-anchor="middle" x="62.5" y="-205.5" font-family="Helvetica,sans-Serif" font-size="10.00" fill="#000000">node_iterator_base</text>
<polyline fill="none" stroke="#000000" points="5.5,-198.5 119.5,-198.5 "/>
<text text-anchor="start" x="13.5" y="-186.5" font-family="Helvetica,sans-Serif" font-size="10.00" fill="#000000"># node</text>
<polyline fill="none" stroke="#000000" points="5.5,-179.5 119.5,-179.5 "/>
<text text-anchor="start" x="13.5" y="-167.5" font-family="Helvetica,sans-Serif" font-size="10.00" fill="#000000">+ node_iterator_base()</text>
<text text-anchor="start" x="13.5" y="-156.5" font-family="Helvetica,sans-Serif" font-size="10.00" fill="#000000">+ operator!=()</text>
<text text-anchor="start" x="13.5" y="-145.5" font-family="Helvetica,sans-Serif" font-size="10.00" fill="#000000">+ operator*()</text>
</a>
</g>
</g>
<!-- Node2&#45;&gt;Node1 -->
<g id="edge1" class="edge">
<title>Node2&#45;&gt;Node1</title>
<path fill="none" stroke="#191970" d="M62.5,-127.9396C62.5,-119.3816 62.5,-110.4823 62.5,-101.9026"/>
<polygon fill="none" stroke="#191970" points="59.0001,-128.1648 62.5,-138.1649 66.0001,-128.1649 59.0001,-128.1648"/>
</g>
</g>
</svg>
