<?xml version="1.0" encoding="UTF-8" standalone="no"?>
<!DOCTYPE svg PUBLIC "-//W3C//DTD SVG 1.1//EN"
 "http://www.w3.org/Graphics/SVG/1.1/DTD/svg11.dtd">
<!-- Generated by graphviz version 2.38.0 (20140413.2041)
 -->
<!-- Title: Graphical Class Hierarchy Pages: 1 -->
<svg width="207pt" height="66pt"
 viewBox="0.00 0.00 207.00 66.00" xmlns="http://www.w3.org/2000/svg" xmlns:xlink="http://www.w3.org/1999/xlink">
<g id="graph0" class="graph" transform="scale(1 1) rotate(0) translate(4 62)">
<title>Graphical Class Hierarchy</title>
<polygon fill="white" stroke="none" points="-4,4 -4,-62 203,-62 203,4 -4,4"/>
<!-- Node2 -->
<g id="node1" class="node"><title>Node2</title>
<g id="a_node1"><a xlink:title=" ">
<polygon fill="white" stroke="#bfbfbf" points="0,-19.5 0,-38.5 35,-38.5 35,-19.5 0,-19.5"/>
<text text-anchor="middle" x="17.5" y="-26.5" font-family="Helvetica,sans-Serif" font-size="10.00">type</text>
</a>
</g>
</g>
<!-- Node0 -->
<g id="node2" class="node"><title>Node0</title>
<g id="a_node2"><a xlink:href="d0/d89/structround__div__helper.html" target="_top" xlink:title="Select the right rounding division operator, depending on whether T is an integer or not.">
<polygon fill="white" stroke="black" points="71,-38.5 71,-57.5 199,-57.5 199,-38.5 71,-38.5"/>
<text text-anchor="middle" x="135" y="-45.5" font-family="Helvetica,sans-Serif" font-size="10.00">round_div_helper&lt; N, T &gt;</text>
</a>
</g>
</g>
<!-- Node2&#45;&gt;Node0 -->
<g id="edge1" class="edge"><title>Node2&#45;&gt;Node0</title>
<path fill="none" stroke="midnightblue" d="M45.1404,-33.3824C54.4112,-34.9075 65.2068,-36.6834 76.0134,-38.4611"/>
<polygon fill="midnightblue" stroke="midnightblue" points="45.4839,-29.8919 35.0483,-31.7222 44.3476,-36.7991 45.4839,-29.8919"/>
</g>
<!-- Node4 -->
<g id="node3" class="node"><title>Node4</title>
<g id="a_node3"><a xlink:href="d1/de0/structround__div__int.html" target="_top" xlink:title="Select the right rounding division operator, depending on whether T is a signed or unsigned integer.">
<polygon fill="white" stroke="black" points="79,-0.5 79,-19.5 191,-19.5 191,-0.5 79,-0.5"/>
<text text-anchor="middle" x="135" y="-7.5" font-family="Helvetica,sans-Serif" font-size="10.00">round_div_int&lt; N, T &gt;</text>
</a>
</g>
</g>
<!-- Node2&#45;&gt;Node4 -->
<g id="edge2" class="edge"><title>Node2&#45;&gt;Node4</title>
<path fill="none" stroke="midnightblue" d="M45.1819,-24.6108C55.2546,-22.9538 67.1228,-21.0014 78.8479,-19.0726"/>
<polygon fill="midnightblue" stroke="midnightblue" points="44.3476,-21.2009 35.0483,-26.2778 45.4839,-28.1081 44.3476,-21.2009"/>
</g>
</g>
</svg>
