<?xml version="1.0" encoding="UTF-8" standalone="no"?>
<!DOCTYPE svg PUBLIC "-//W3C//DTD SVG 1.1//EN"
 "http://www.w3.org/Graphics/SVG/1.1/DTD/svg11.dtd">
<!-- Generated by graphviz version 2.43.0 (0)
 -->
<!-- Title: SettingsWrapper.hpp Pages: 1 -->
<svg width="894pt" height="364pt"
 viewBox="0.00 0.00 893.50 364.00" xmlns="http://www.w3.org/2000/svg" xmlns:xlink="http://www.w3.org/1999/xlink">
<g id="graph0" class="graph" transform="scale(1 1) rotate(0) translate(4 360)">
<title>SettingsWrapper.hpp</title>
<polygon fill="white" stroke="transparent" points="-4,4 -4,-360 889.5,-360 889.5,4 -4,4"/>
<!-- Node1 -->
<g id="node1" class="node">
<title>Node1</title>
<g id="a_node1"><a xlink:title=" ">
<polygon fill="#bfbfbf" stroke="black" points="164,-336.5 164,-355.5 282,-355.5 282,-336.5 164,-336.5"/>
<text text-anchor="middle" x="223" y="-343.5" font-family="Helvetica,sans-Serif" font-size="10.00">SettingsWrapper.hpp</text>
</a>
</g>
</g>
<!-- Node2 -->
<g id="node2" class="node">
<title>Node2</title>
<g id="a_node2"><a xlink:href="../../d1/d65/Warnings_8hpp.html" target="_top" xlink:title=" ">
<polygon fill="white" stroke="black" points="225.5,-0.5 225.5,-19.5 368.5,-19.5 368.5,-0.5 225.5,-0.5"/>
<text text-anchor="middle" x="297" y="-7.5" font-family="Helvetica,sans-Serif" font-size="10.00">AH/Settings/Warnings.hpp</text>
</a>
</g>
</g>
<!-- Node1&#45;&gt;Node2 -->
<g id="edge1" class="edge">
<title>Node1&#45;&gt;Node2</title>
<path fill="none" stroke="midnightblue" d="M163.83,-340.87C97.76,-332.67 0,-308.17 0,-235 0,-235 0,-235 0,-121 0,-84 20.25,-74.98 52,-56 79.06,-39.82 154.78,-27.47 214.95,-19.84"/>
<polygon fill="midnightblue" stroke="midnightblue" points="215.73,-23.27 225.22,-18.56 214.87,-16.32 215.73,-23.27"/>
</g>
<!-- Node3 -->
<g id="node3" class="node">
<title>Node3</title>
<g id="a_node3"><a xlink:href="../../dc/dc7/NamespaceSettings_8hpp.html" target="_top" xlink:title=" ">
<polygon fill="white" stroke="black" points="133.5,-56.5 133.5,-75.5 268.5,-75.5 268.5,-56.5 133.5,-56.5"/>
<text text-anchor="middle" x="201" y="-63.5" font-family="Helvetica,sans-Serif" font-size="10.00">NamespaceSettings.hpp</text>
</a>
</g>
</g>
<!-- Node1&#45;&gt;Node3 -->
<g id="edge2" class="edge">
<title>Node1&#45;&gt;Node3</title>
<path fill="none" stroke="midnightblue" d="M226.13,-336.24C232.13,-318.91 245,-278.9 249,-244 255,-191.63 224.02,-182.81 210,-132 205.78,-116.71 203.49,-98.83 202.28,-85.69"/>
<polygon fill="midnightblue" stroke="midnightblue" points="205.75,-85.25 201.47,-75.56 198.77,-85.81 205.75,-85.25"/>
</g>
<!-- Node4 -->
<g id="node4" class="node">
<title>Node4</title>
<g id="a_node4"><a xlink:href="../../db/d02/Settings_8hpp.html" target="_top" xlink:title="All user settings and debugging options can be changed here.">
<polygon fill="white" stroke="black" points="499.5,-280.5 499.5,-299.5 576.5,-299.5 576.5,-280.5 499.5,-280.5"/>
<text text-anchor="middle" x="538" y="-287.5" font-family="Helvetica,sans-Serif" font-size="10.00">Settings.hpp</text>
</a>
</g>
</g>
<!-- Node1&#45;&gt;Node4 -->
<g id="edge3" class="edge">
<title>Node1&#45;&gt;Node4</title>
<path fill="none" stroke="midnightblue" d="M272.91,-336.44C332.16,-326.29 430.3,-309.46 489.1,-299.38"/>
<polygon fill="midnightblue" stroke="midnightblue" points="489.98,-302.78 499.24,-297.64 488.8,-295.88 489.98,-302.78"/>
</g>
<!-- Node15 -->
<g id="node15" class="node">
<title>Node15</title>
<g id="a_node15"><a xlink:href="../../d9/d98/TeensyUSBTypes_8hpp.html" target="_top" xlink:title=" ">
<polygon fill="white" stroke="black" points="594.5,-280.5 594.5,-299.5 767.5,-299.5 767.5,-280.5 594.5,-280.5"/>
<text text-anchor="middle" x="681" y="-287.5" font-family="Helvetica,sans-Serif" font-size="10.00">AH/Teensy/TeensyUSBTypes.hpp</text>
</a>
</g>
</g>
<!-- Node1&#45;&gt;Node15 -->
<g id="edge21" class="edge">
<title>Node1&#45;&gt;Node15</title>
<path fill="none" stroke="midnightblue" d="M282.41,-338C363.13,-328.48 507.8,-311.42 598.87,-300.68"/>
<polygon fill="midnightblue" stroke="midnightblue" points="599.36,-304.15 608.88,-299.5 598.54,-297.2 599.36,-304.15"/>
</g>
<!-- Node16 -->
<g id="node16" class="node">
<title>Node16</title>
<g id="a_node16"><a xlink:href="../../df/dee/Debug_8hpp.html" target="_top" xlink:title=" ">
<polygon fill="white" stroke="black" points="105.5,-280.5 105.5,-299.5 226.5,-299.5 226.5,-280.5 105.5,-280.5"/>
<text text-anchor="middle" x="166" y="-287.5" font-family="Helvetica,sans-Serif" font-size="10.00">AH/Debug/Debug.hpp</text>
</a>
</g>
</g>
<!-- Node1&#45;&gt;Node16 -->
<g id="edge22" class="edge">
<title>Node1&#45;&gt;Node16</title>
<path fill="none" stroke="midnightblue" d="M208.73,-336.32C198.87,-328.58 186.28,-317.02 177.15,-307.51"/>
<polygon fill="midnightblue" stroke="midnightblue" points="179.49,-304.88 170.18,-299.83 174.31,-309.59 179.49,-304.88"/>
</g>
<!-- Node5 -->
<g id="node5" class="node">
<title>Node5</title>
<g id="a_node5"><a xlink:href="../../dc/d50/Frequency_8hpp.html" target="_top" xlink:title=" ">
<polygon fill="white" stroke="black" points="499,-112.5 499,-131.5 633,-131.5 633,-112.5 499,-112.5"/>
<text text-anchor="middle" x="566" y="-119.5" font-family="Helvetica,sans-Serif" font-size="10.00">AH/Types/Frequency.hpp</text>
</a>
</g>
</g>
<!-- Node4&#45;&gt;Node5 -->
<g id="edge4" class="edge">
<title>Node4&#45;&gt;Node5</title>
<path fill="none" stroke="midnightblue" d="M528.44,-280.45C519.91,-272.12 508.01,-258.6 503,-244 500.12,-235.59 500.55,-232.55 503,-224 512.47,-190.92 536.27,-158.15 551.76,-139.27"/>
<polygon fill="midnightblue" stroke="midnightblue" points="554.43,-141.53 558.2,-131.63 549.08,-137.02 554.43,-141.53"/>
</g>
<!-- Node6 -->
<g id="node6" class="node">
<title>Node6</title>
<g id="a_node6"><a xlink:href="../../d7/d7c/ADCConfig_8hpp.html" target="_top" xlink:title="This file contains the platform&#45;specific ADC resolutions.">
<polygon fill="white" stroke="black" points="582.5,-224.5 582.5,-243.5 739.5,-243.5 739.5,-224.5 582.5,-224.5"/>
<text text-anchor="middle" x="661" y="-231.5" font-family="Helvetica,sans-Serif" font-size="10.00">AH/Hardware/ADCConfig.hpp</text>
</a>
</g>
</g>
<!-- Node4&#45;&gt;Node6 -->
<g id="edge7" class="edge">
<title>Node4&#45;&gt;Node6</title>
<path fill="none" stroke="midnightblue" d="M557.49,-280.44C577.64,-271.6 609.32,-257.69 632.33,-247.59"/>
<polygon fill="midnightblue" stroke="midnightblue" points="633.85,-250.74 641.6,-243.52 631.04,-244.33 633.85,-250.74"/>
</g>
<!-- Node12 -->
<g id="node12" class="node">
<title>Node12</title>
<g id="a_node12"><a xlink:title=" ">
<polygon fill="white" stroke="#bfbfbf" points="511.5,-224.5 511.5,-243.5 564.5,-243.5 564.5,-224.5 511.5,-224.5"/>
<text text-anchor="middle" x="538" y="-231.5" font-family="Helvetica,sans-Serif" font-size="10.00">limits.h</text>
</a>
</g>
</g>
<!-- Node4&#45;&gt;Node12 -->
<g id="edge18" class="edge">
<title>Node4&#45;&gt;Node12</title>
<path fill="none" stroke="midnightblue" d="M538,-280.08C538,-273.01 538,-262.86 538,-253.99"/>
<polygon fill="midnightblue" stroke="midnightblue" points="541.5,-253.75 538,-243.75 534.5,-253.75 541.5,-253.75"/>
</g>
<!-- Node13 -->
<g id="node13" class="node">
<title>Node13</title>
<g id="a_node13"><a xlink:title=" ">
<polygon fill="white" stroke="#bfbfbf" points="758,-224.5 758,-243.5 814,-243.5 814,-224.5 758,-224.5"/>
<text text-anchor="middle" x="786" y="-231.5" font-family="Helvetica,sans-Serif" font-size="10.00">stddef.h</text>
</a>
</g>
</g>
<!-- Node4&#45;&gt;Node13 -->
<g id="edge19" class="edge">
<title>Node4&#45;&gt;Node13</title>
<path fill="none" stroke="midnightblue" d="M576.58,-281.12C616.87,-272.81 682.16,-259.13 747.65,-244.26"/>
<polygon fill="midnightblue" stroke="midnightblue" points="748.77,-247.6 757.74,-241.96 747.21,-240.77 748.77,-247.6"/>
</g>
<!-- Node14 -->
<g id="node14" class="node">
<title>Node14</title>
<g id="a_node14"><a xlink:title=" ">
<polygon fill="white" stroke="#bfbfbf" points="832.5,-224.5 832.5,-243.5 885.5,-243.5 885.5,-224.5 832.5,-224.5"/>
<text text-anchor="middle" x="859" y="-231.5" font-family="Helvetica,sans-Serif" font-size="10.00">stdint.h</text>
</a>
</g>
</g>
<!-- Node4&#45;&gt;Node14 -->
<g id="edge20" class="edge">
<title>Node4&#45;&gt;Node14</title>
<path fill="none" stroke="midnightblue" d="M576.75,-281.61C579.88,-281.06 582.99,-280.51 586,-280 687.86,-262.72 716.8,-264.79 822.23,-243.98"/>
<polygon fill="midnightblue" stroke="midnightblue" points="823.21,-247.36 832.33,-241.97 821.84,-240.49 823.21,-247.36"/>
</g>
<!-- Node5&#45;&gt;Node2 -->
<g id="edge5" class="edge">
<title>Node5&#45;&gt;Node2</title>
<path fill="none" stroke="midnightblue" d="M560.3,-112.26C550.56,-98.08 529.29,-70.2 504,-56 465.86,-34.59 418.49,-23.36 378.69,-17.47"/>
<polygon fill="midnightblue" stroke="midnightblue" points="379.13,-14 368.74,-16.09 378.16,-20.94 379.13,-14"/>
</g>
<!-- Node5&#45;&gt;Node3 -->
<g id="edge6" class="edge">
<title>Node5&#45;&gt;Node3</title>
<path fill="none" stroke="midnightblue" d="M508.16,-112.44C443.16,-102.83 337.72,-87.23 268.87,-77.04"/>
<polygon fill="midnightblue" stroke="midnightblue" points="268.97,-73.52 258.56,-75.52 267.94,-80.44 268.97,-73.52"/>
</g>
<!-- Node6&#45;&gt;Node2 -->
<g id="edge8" class="edge">
<title>Node6&#45;&gt;Node2</title>
<path fill="none" stroke="midnightblue" d="M662.14,-224.38C664.47,-203.06 667.61,-147.01 642,-112 609.15,-67.08 582.7,-73.89 530,-56 480.67,-39.26 423.23,-28.08 377.73,-21.05"/>
<polygon fill="midnightblue" stroke="midnightblue" points="378.03,-17.55 367.62,-19.52 376.98,-24.47 378.03,-17.55"/>
</g>
<!-- Node7 -->
<g id="node7" class="node">
<title>Node7</title>
<g id="a_node7"><a xlink:href="../../d6/ddf/Arduino-Wrapper_8h.html" target="_top" xlink:title=" ">
<polygon fill="white" stroke="black" points="331,-168.5 331,-187.5 455,-187.5 455,-168.5 331,-168.5"/>
<text text-anchor="middle" x="393" y="-175.5" font-family="Helvetica,sans-Serif" font-size="10.00">AH/Arduino&#45;Wrapper.h</text>
</a>
</g>
</g>
<!-- Node6&#45;&gt;Node7 -->
<g id="edge9" class="edge">
<title>Node6&#45;&gt;Node7</title>
<path fill="none" stroke="midnightblue" d="M618.53,-224.44C571.59,-214.98 495.92,-199.74 445.35,-189.55"/>
<polygon fill="midnightblue" stroke="midnightblue" points="445.76,-186.06 435.27,-187.52 444.38,-192.92 445.76,-186.06"/>
</g>
<!-- Node8 -->
<g id="node8" class="node">
<title>Node8</title>
<g id="a_node8"><a xlink:href="../../d7/d79/MinMaxFix_8hpp.html" target="_top" xlink:title=" ">
<polygon fill="white" stroke="black" points="219,-112.5 219,-131.5 355,-131.5 355,-112.5 219,-112.5"/>
<text text-anchor="middle" x="287" y="-119.5" font-family="Helvetica,sans-Serif" font-size="10.00">AH/Math/MinMaxFix.hpp</text>
</a>
</g>
</g>
<!-- Node7&#45;&gt;Node8 -->
<g id="edge10" class="edge">
<title>Node7&#45;&gt;Node8</title>
<path fill="none" stroke="midnightblue" d="M375.97,-168.32C358.97,-159.66 332.62,-146.24 313.01,-136.25"/>
<polygon fill="midnightblue" stroke="midnightblue" points="314.49,-133.08 303.99,-131.65 311.31,-139.31 314.49,-133.08"/>
</g>
<!-- Node10 -->
<g id="node10" class="node">
<title>Node10</title>
<g id="a_node10"><a xlink:title=" ">
<polygon fill="white" stroke="#bfbfbf" points="507.5,-0.5 507.5,-19.5 570.5,-19.5 570.5,-0.5 507.5,-0.5"/>
<text text-anchor="middle" x="539" y="-7.5" font-family="Helvetica,sans-Serif" font-size="10.00">Arduino.h</text>
</a>
</g>
</g>
<!-- Node7&#45;&gt;Node10 -->
<g id="edge17" class="edge">
<title>Node7&#45;&gt;Node10</title>
<path fill="none" stroke="midnightblue" d="M455.02,-174.6C520.87,-170.6 618.62,-159.98 642,-132 674.9,-92.62 605.61,-46.58 565.26,-24.36"/>
<polygon fill="midnightblue" stroke="midnightblue" points="566.89,-21.26 556.42,-19.61 563.58,-27.42 566.89,-21.26"/>
</g>
<!-- Node11 -->
<g id="node11" class="node">
<title>Node11</title>
<g id="a_node11"><a xlink:title=" ">
<polygon fill="white" stroke="#bfbfbf" points="373.5,-112.5 373.5,-131.5 480.5,-131.5 480.5,-112.5 373.5,-112.5"/>
<text text-anchor="middle" x="427" y="-119.5" font-family="Helvetica,sans-Serif" font-size="10.00">AH/STL/type_traits</text>
</a>
</g>
</g>
<!-- Node7&#45;&gt;Node11 -->
<g id="edge16" class="edge">
<title>Node7&#45;&gt;Node11</title>
<path fill="none" stroke="midnightblue" d="M398.61,-168.08C403.37,-160.53 410.32,-149.49 416.15,-140.23"/>
<polygon fill="midnightblue" stroke="midnightblue" points="419.12,-142.08 421.49,-131.75 413.2,-138.35 419.12,-142.08"/>
</g>
<!-- Node8&#45;&gt;Node2 -->
<g id="edge11" class="edge">
<title>Node8&#45;&gt;Node2</title>
<path fill="none" stroke="midnightblue" d="M287.78,-112.37C289.4,-94.62 293.12,-53.67 295.31,-29.6"/>
<polygon fill="midnightblue" stroke="midnightblue" points="298.8,-29.87 296.22,-19.59 291.83,-29.23 298.8,-29.87"/>
</g>
<!-- Node8&#45;&gt;Node3 -->
<g id="edge15" class="edge">
<title>Node8&#45;&gt;Node3</title>
<path fill="none" stroke="midnightblue" d="M273.18,-112.32C259.77,-103.9 239.18,-90.97 223.41,-81.07"/>
<polygon fill="midnightblue" stroke="midnightblue" points="225.11,-78.01 214.78,-75.65 221.39,-83.94 225.11,-78.01"/>
</g>
<!-- Node9 -->
<g id="node9" class="node">
<title>Node9</title>
<g id="a_node9"><a xlink:href="../../d6/d3b/FixArduinoMacros_8hpp.html" target="_top" xlink:title=" ">
<polygon fill="white" stroke="black" points="325,-56.5 325,-75.5 495,-75.5 495,-56.5 325,-56.5"/>
<text text-anchor="middle" x="410" y="-63.5" font-family="Helvetica,sans-Serif" font-size="10.00">AH/Math/FixArduinoMacros.hpp</text>
</a>
</g>
</g>
<!-- Node8&#45;&gt;Node9 -->
<g id="edge12" class="edge">
<title>Node8&#45;&gt;Node9</title>
<path fill="none" stroke="midnightblue" d="M306.49,-112.44C326.64,-103.6 358.32,-89.69 381.33,-79.59"/>
<polygon fill="midnightblue" stroke="midnightblue" points="382.85,-82.74 390.6,-75.52 380.04,-76.33 382.85,-82.74"/>
</g>
<!-- Node9&#45;&gt;Node2 -->
<g id="edge13" class="edge">
<title>Node9&#45;&gt;Node2</title>
<path fill="none" stroke="midnightblue" d="M392.09,-56.44C373.75,-47.68 344.99,-33.94 323.91,-23.86"/>
<polygon fill="midnightblue" stroke="midnightblue" points="325.35,-20.67 314.82,-19.52 322.33,-26.99 325.35,-20.67"/>
</g>
<!-- Node9&#45;&gt;Node10 -->
<g id="edge14" class="edge">
<title>Node9&#45;&gt;Node10</title>
<path fill="none" stroke="midnightblue" d="M430.44,-56.44C451.67,-47.56 485.1,-33.56 509.25,-23.45"/>
<polygon fill="midnightblue" stroke="midnightblue" points="510.78,-26.61 518.66,-19.52 508.08,-20.15 510.78,-26.61"/>
</g>
<!-- Node16&#45;&gt;Node1 -->
<g id="edge28" class="edge">
<title>Node16&#45;&gt;Node1</title>
<path fill="none" stroke="midnightblue" d="M180.37,-299.75C190.19,-307.48 202.7,-318.97 211.79,-328.43"/>
<polygon fill="midnightblue" stroke="midnightblue" points="209.44,-331.04 218.75,-336.08 214.61,-326.33 209.44,-331.04"/>
</g>
<!-- Node16&#45;&gt;Node2 -->
<g id="edge23" class="edge">
<title>Node16&#45;&gt;Node2</title>
<path fill="none" stroke="midnightblue" d="M122.21,-280.43C99.86,-273.94 73.9,-262.81 57,-244 36.89,-221.61 38,-209.1 38,-179 38,-179 38,-179 38,-121 38,-42.8 139.25,-19.39 215.14,-12.82"/>
<polygon fill="midnightblue" stroke="midnightblue" points="215.5,-16.3 225.2,-12.04 214.96,-9.33 215.5,-16.3"/>
</g>
<!-- Node17 -->
<g id="node17" class="node">
<title>Node17</title>
<g id="a_node17"><a xlink:href="../../dd/d80/PrintStream_8hpp.html" target="_top" xlink:title=" ">
<polygon fill="white" stroke="black" points="66.5,-224.5 66.5,-243.5 239.5,-243.5 239.5,-224.5 66.5,-224.5"/>
<text text-anchor="middle" x="153" y="-231.5" font-family="Helvetica,sans-Serif" font-size="10.00">AH/PrintStream/PrintStream.hpp</text>
</a>
</g>
</g>
<!-- Node16&#45;&gt;Node17 -->
<g id="edge24" class="edge">
<title>Node16&#45;&gt;Node17</title>
<path fill="none" stroke="midnightblue" d="M163.85,-280.08C162.13,-272.93 159.65,-262.64 157.5,-253.69"/>
<polygon fill="midnightblue" stroke="midnightblue" points="160.85,-252.65 155.11,-243.75 154.04,-254.29 160.85,-252.65"/>
</g>
<!-- Node17&#45;&gt;Node2 -->
<g id="edge26" class="edge">
<title>Node17&#45;&gt;Node2</title>
<path fill="none" stroke="midnightblue" d="M147.47,-224.14C130.78,-196.15 84.5,-108.45 125,-56 137.37,-39.97 182.23,-28.56 223.03,-21.23"/>
<polygon fill="midnightblue" stroke="midnightblue" points="223.76,-24.66 233.02,-19.5 222.57,-17.76 223.76,-24.66"/>
</g>
<!-- Node17&#45;&gt;Node3 -->
<g id="edge25" class="edge">
<title>Node17&#45;&gt;Node3</title>
<path fill="none" stroke="midnightblue" d="M153.84,-224.26C155.99,-204.01 162.53,-152.54 177,-112 180.39,-102.51 185.5,-92.57 190.14,-84.46"/>
<polygon fill="midnightblue" stroke="midnightblue" points="193.3,-85.99 195.42,-75.61 187.29,-82.41 193.3,-85.99"/>
</g>
<!-- Node17&#45;&gt;Node7 -->
<g id="edge27" class="edge">
<title>Node17&#45;&gt;Node7</title>
<path fill="none" stroke="midnightblue" d="M191.03,-224.44C232.81,-215.04 299.98,-199.93 345.27,-189.74"/>
<polygon fill="midnightblue" stroke="midnightblue" points="346.16,-193.13 355.15,-187.52 344.62,-186.3 346.16,-193.13"/>
</g>
</g>
</svg>
