<?xml version="1.0" encoding="UTF-8" standalone="no"?>
<!DOCTYPE svg PUBLIC "-//W3C//DTD SVG 1.1//EN"
 "http://www.w3.org/Graphics/SVG/1.1/DTD/svg11.dtd">
<!-- Generated by graphviz version 2.43.0 (0)
 -->
<!-- Title: SOSFilter.hpp Pages: 1 -->
<svg width="930pt" height="700pt"
 viewBox="0.00 0.00 929.50 700.00" xmlns="http://www.w3.org/2000/svg" xmlns:xlink="http://www.w3.org/1999/xlink">
<g id="graph0" class="graph" transform="scale(1 1) rotate(0) translate(4 696)">
<title>SOSFilter.hpp</title>
<polygon fill="white" stroke="transparent" points="-4,4 -4,-696 925.5,-696 925.5,4 -4,4"/>
<!-- Node1 -->
<g id="node1" class="node">
<title>Node1</title>
<g id="a_node1"><a xlink:title=" ">
<polygon fill="#bfbfbf" stroke="black" points="572,-672.5 572,-691.5 653,-691.5 653,-672.5 572,-672.5"/>
<text text-anchor="middle" x="612.5" y="-679.5" font-family="Helvetica,sans-Serif" font-size="10.00">SOSFilter.hpp</text>
</a>
</g>
</g>
<!-- Node2 -->
<g id="node2" class="node">
<title>Node2</title>
<g id="a_node2"><a xlink:href="../../d5/db6/ArrayHelpers_8hpp.html" target="_top" xlink:title=" ">
<polygon fill="white" stroke="black" points="734.5,-560.5 734.5,-579.5 908.5,-579.5 908.5,-560.5 734.5,-560.5"/>
<text text-anchor="middle" x="821.5" y="-567.5" font-family="Helvetica,sans-Serif" font-size="10.00">AH/Containers/ArrayHelpers.hpp</text>
</a>
</g>
</g>
<!-- Node1&#45;&gt;Node2 -->
<g id="edge1" class="edge">
<title>Node1&#45;&gt;Node2</title>
<path fill="none" stroke="midnightblue" d="M628.9,-672.37C665.22,-653.25 752.66,-607.23 796.11,-584.36"/>
<polygon fill="midnightblue" stroke="midnightblue" points="797.96,-587.35 805.18,-579.59 794.7,-581.15 797.96,-587.35"/>
</g>
<!-- Node24 -->
<g id="node24" class="node">
<title>Node24</title>
<g id="a_node24"><a xlink:href="../../d1/dde/BiQuad_8hpp.html" target="_top" xlink:title=" ">
<polygon fill="white" stroke="black" points="519.5,-616.5 519.5,-635.5 625.5,-635.5 625.5,-616.5 519.5,-616.5"/>
<text text-anchor="middle" x="572.5" y="-623.5" font-family="Helvetica,sans-Serif" font-size="10.00">Filters/BiQuad.hpp</text>
</a>
</g>
</g>
<!-- Node1&#45;&gt;Node24 -->
<g id="edge41" class="edge">
<title>Node1&#45;&gt;Node24</title>
<path fill="none" stroke="midnightblue" d="M605.89,-672.08C600.24,-664.46 591.96,-653.26 585.05,-643.94"/>
<polygon fill="midnightblue" stroke="midnightblue" points="587.75,-641.7 578.98,-635.75 582.12,-645.87 587.75,-641.7"/>
</g>
<!-- Node3 -->
<g id="node3" class="node">
<title>Node3</title>
<g id="a_node3"><a xlink:href="../../d1/d65/Warnings_8hpp.html" target="_top" xlink:title=" ">
<polygon fill="white" stroke="black" points="663,-0.5 663,-19.5 806,-19.5 806,-0.5 663,-0.5"/>
<text text-anchor="middle" x="734.5" y="-7.5" font-family="Helvetica,sans-Serif" font-size="10.00">AH/Settings/Warnings.hpp</text>
</a>
</g>
</g>
<!-- Node2&#45;&gt;Node3 -->
<g id="edge2" class="edge">
<title>Node2&#45;&gt;Node3</title>
<path fill="none" stroke="midnightblue" d="M847.66,-560.49C865.54,-553.4 888.44,-541.6 902.5,-524 921.29,-500.48 921.5,-489.1 921.5,-459 921.5,-459 921.5,-459 921.5,-121 921.5,-62.94 853.69,-34.91 799.74,-21.81"/>
<polygon fill="midnightblue" stroke="midnightblue" points="800.38,-18.36 789.85,-19.53 798.81,-25.18 800.38,-18.36"/>
</g>
<!-- Node4 -->
<g id="node4" class="node">
<title>Node4</title>
<g id="a_node4"><a xlink:href="../../de/d76/Array_8hpp.html" target="_top" xlink:title=" ">
<polygon fill="white" stroke="black" points="587.5,-504.5 587.5,-523.5 649.5,-523.5 649.5,-504.5 587.5,-504.5"/>
<text text-anchor="middle" x="618.5" y="-511.5" font-family="Helvetica,sans-Serif" font-size="10.00">Array.hpp</text>
</a>
</g>
</g>
<!-- Node2&#45;&gt;Node4 -->
<g id="edge3" class="edge">
<title>Node2&#45;&gt;Node4</title>
<path fill="none" stroke="midnightblue" d="M789.33,-560.44C754.13,-551.08 697.62,-536.05 659.32,-525.86"/>
<polygon fill="midnightblue" stroke="midnightblue" points="660.08,-522.44 649.52,-523.25 658.28,-529.2 660.08,-522.44"/>
</g>
<!-- Node7 -->
<g id="node7" class="node">
<title>Node7</title>
<g id="a_node7"><a xlink:href="../../dd/d80/PrintStream_8hpp.html" target="_top" xlink:title=" ">
<polygon fill="white" stroke="black" points="562,-224.5 562,-243.5 735,-243.5 735,-224.5 562,-224.5"/>
<text text-anchor="middle" x="648.5" y="-231.5" font-family="Helvetica,sans-Serif" font-size="10.00">AH/PrintStream/PrintStream.hpp</text>
</a>
</g>
</g>
<!-- Node2&#45;&gt;Node7 -->
<g id="edge40" class="edge">
<title>Node2&#45;&gt;Node7</title>
<path fill="none" stroke="midnightblue" d="M812.46,-560.5C803.9,-552 791.24,-538.18 783.5,-524 769.01,-497.47 763.5,-489.23 763.5,-459 763.5,-459 763.5,-459 763.5,-345 763.5,-297.9 712.51,-264.75 678.43,-247.86"/>
<polygon fill="midnightblue" stroke="midnightblue" points="679.86,-244.66 669.33,-243.53 676.85,-250.98 679.86,-244.66"/>
</g>
<!-- Node23 -->
<g id="node23" class="node">
<title>Node23</title>
<g id="a_node23"><a xlink:title=" ">
<polygon fill="white" stroke="#bfbfbf" points="792,-504.5 792,-523.5 893,-523.5 893,-504.5 792,-504.5"/>
<text text-anchor="middle" x="842.5" y="-511.5" font-family="Helvetica,sans-Serif" font-size="10.00">AH/STL/algorithm</text>
</a>
</g>
</g>
<!-- Node2&#45;&gt;Node23 -->
<g id="edge39" class="edge">
<title>Node2&#45;&gt;Node23</title>
<path fill="none" stroke="midnightblue" d="M824.97,-560.08C827.81,-552.77 831.93,-542.18 835.46,-533.1"/>
<polygon fill="midnightblue" stroke="midnightblue" points="838.73,-534.34 839.1,-523.75 832.21,-531.8 838.73,-534.34"/>
</g>
<!-- Node4&#45;&gt;Node3 -->
<g id="edge4" class="edge">
<title>Node4&#45;&gt;Node3</title>
<path fill="none" stroke="midnightblue" d="M649.74,-513.54C718.63,-512.95 877.5,-500.95 877.5,-403 877.5,-403 877.5,-403 877.5,-121 877.5,-68.84 816.99,-37.99 774.69,-22.8"/>
<polygon fill="midnightblue" stroke="midnightblue" points="775.77,-19.47 765.18,-19.54 773.5,-26.09 775.77,-19.47"/>
</g>
<!-- Node5 -->
<g id="node5" class="node">
<title>Node5</title>
<g id="a_node5"><a xlink:href="../../d1/d93/Error_8hpp.html" target="_top" xlink:title=" ">
<polygon fill="white" stroke="black" points="523.5,-448.5 523.5,-467.5 627.5,-467.5 627.5,-448.5 523.5,-448.5"/>
<text text-anchor="middle" x="575.5" y="-455.5" font-family="Helvetica,sans-Serif" font-size="10.00">AH/Error/Error.hpp</text>
</a>
</g>
</g>
<!-- Node4&#45;&gt;Node5 -->
<g id="edge5" class="edge">
<title>Node4&#45;&gt;Node5</title>
<path fill="none" stroke="midnightblue" d="M611.4,-504.08C605.26,-496.38 596.23,-485.03 588.76,-475.65"/>
<polygon fill="midnightblue" stroke="midnightblue" points="591.44,-473.39 582.47,-467.75 585.96,-477.75 591.44,-473.39"/>
</g>
<!-- Node13 -->
<g id="node13" class="node">
<title>Node13</title>
<g id="a_node13"><a xlink:title=" ">
<polygon fill="white" stroke="#bfbfbf" points="0,-112.5 0,-131.5 107,-131.5 107,-112.5 0,-112.5"/>
<text text-anchor="middle" x="53.5" y="-119.5" font-family="Helvetica,sans-Serif" font-size="10.00">AH/STL/type_traits</text>
</a>
</g>
</g>
<!-- Node4&#45;&gt;Node13 -->
<g id="edge37" class="edge">
<title>Node4&#45;&gt;Node13</title>
<path fill="none" stroke="midnightblue" d="M587.25,-513.55C469.53,-514.82 59.5,-511.43 59.5,-403 59.5,-403 59.5,-403 59.5,-233 59.5,-200.9 56.92,-163.61 55.14,-141.73"/>
<polygon fill="midnightblue" stroke="midnightblue" points="58.61,-141.22 54.28,-131.55 51.64,-141.81 58.61,-141.22"/>
</g>
<!-- Node19 -->
<g id="node19" class="node">
<title>Node19</title>
<g id="a_node19"><a xlink:title=" ">
<polygon fill="white" stroke="#bfbfbf" points="92.5,-224.5 92.5,-243.5 148.5,-243.5 148.5,-224.5 92.5,-224.5"/>
<text text-anchor="middle" x="120.5" y="-231.5" font-family="Helvetica,sans-Serif" font-size="10.00">stddef.h</text>
</a>
</g>
</g>
<!-- Node4&#45;&gt;Node19 -->
<g id="edge38" class="edge">
<title>Node4&#45;&gt;Node19</title>
<path fill="none" stroke="midnightblue" d="M587.35,-511.09C493.76,-504.5 221.5,-478.81 221.5,-403 221.5,-403 221.5,-403 221.5,-345 221.5,-300.59 176.29,-266.37 146.36,-248.58"/>
<polygon fill="midnightblue" stroke="midnightblue" points="148.05,-245.51 137.63,-243.59 144.58,-251.59 148.05,-245.51"/>
</g>
<!-- Node22 -->
<g id="node22" class="node">
<title>Node22</title>
<g id="a_node22"><a xlink:title=" ">
<polygon fill="white" stroke="#bfbfbf" points="645.5,-448.5 645.5,-467.5 735.5,-467.5 735.5,-448.5 645.5,-448.5"/>
<text text-anchor="middle" x="690.5" y="-455.5" font-family="Helvetica,sans-Serif" font-size="10.00">AH/STL/iterator</text>
</a>
</g>
</g>
<!-- Node4&#45;&gt;Node22 -->
<g id="edge36" class="edge">
<title>Node4&#45;&gt;Node22</title>
<path fill="none" stroke="midnightblue" d="M630.07,-504.32C640.92,-496.18 657.38,-483.84 670.38,-474.09"/>
<polygon fill="midnightblue" stroke="midnightblue" points="672.82,-476.63 678.72,-467.83 668.62,-471.03 672.82,-476.63"/>
</g>
<!-- Node5&#45;&gt;Node3 -->
<g id="edge6" class="edge">
<title>Node5&#45;&gt;Node3</title>
<path fill="none" stroke="midnightblue" d="M617.92,-448.5C692.54,-432.31 839.5,-394.42 839.5,-347 839.5,-347 839.5,-347 839.5,-121 839.5,-76.02 792.99,-42.19 761.88,-24.59"/>
<polygon fill="midnightblue" stroke="midnightblue" points="763.25,-21.35 752.79,-19.65 759.91,-27.5 763.25,-21.35"/>
</g>
<!-- Node6 -->
<g id="node6" class="node">
<title>Node6</title>
<g id="a_node6"><a xlink:href="../../df/dee/Debug_8hpp.html" target="_top" xlink:title=" ">
<polygon fill="white" stroke="black" points="515,-392.5 515,-411.5 636,-411.5 636,-392.5 515,-392.5"/>
<text text-anchor="middle" x="575.5" y="-399.5" font-family="Helvetica,sans-Serif" font-size="10.00">AH/Debug/Debug.hpp</text>
</a>
</g>
</g>
<!-- Node5&#45;&gt;Node6 -->
<g id="edge7" class="edge">
<title>Node5&#45;&gt;Node6</title>
<path fill="none" stroke="midnightblue" d="M575.5,-448.08C575.5,-441.01 575.5,-430.86 575.5,-421.99"/>
<polygon fill="midnightblue" stroke="midnightblue" points="579,-421.75 575.5,-411.75 572,-421.75 579,-421.75"/>
</g>
<!-- Node6&#45;&gt;Node3 -->
<g id="edge8" class="edge">
<title>Node6&#45;&gt;Node3</title>
<path fill="none" stroke="midnightblue" d="M636.06,-397.07C703.01,-389.06 801.5,-364.75 801.5,-291 801.5,-291 801.5,-291 801.5,-121 801.5,-82.7 771.51,-46.42 751.66,-26.59"/>
<polygon fill="midnightblue" stroke="midnightblue" points="754.02,-24 744.39,-19.6 749.17,-29.05 754.02,-24"/>
</g>
<!-- Node6&#45;&gt;Node7 -->
<g id="edge9" class="edge">
<title>Node6&#45;&gt;Node7</title>
<path fill="none" stroke="midnightblue" d="M617.89,-392.45C638.08,-386.02 660.41,-374.93 672.5,-356 693.15,-323.65 673.13,-277.3 659.26,-252.4"/>
<polygon fill="midnightblue" stroke="midnightblue" points="662.24,-250.56 654.17,-243.7 656.2,-254.1 662.24,-250.56"/>
</g>
<!-- Node14 -->
<g id="node14" class="node">
<title>Node14</title>
<g id="a_node14"><a xlink:href="../../d2/dd5/SettingsWrapper_8hpp.html" target="_top" xlink:title=" ">
<polygon fill="white" stroke="black" points="485.5,-336.5 485.5,-355.5 663.5,-355.5 663.5,-336.5 485.5,-336.5"/>
<text text-anchor="middle" x="574.5" y="-343.5" font-family="Helvetica,sans-Serif" font-size="10.00">AH/Settings/SettingsWrapper.hpp</text>
</a>
</g>
</g>
<!-- Node6&#45;&gt;Node14 -->
<g id="edge21" class="edge">
<title>Node6&#45;&gt;Node14</title>
<path fill="none" stroke="midnightblue" d="M570.17,-392.08C568.53,-384.93 567.91,-374.64 568.39,-365.69"/>
<polygon fill="midnightblue" stroke="midnightblue" points="571.87,-366.09 569.53,-355.75 564.91,-365.29 571.87,-366.09"/>
</g>
<!-- Node7&#45;&gt;Node3 -->
<g id="edge11" class="edge">
<title>Node7&#45;&gt;Node3</title>
<path fill="none" stroke="midnightblue" d="M651.87,-224.3C664.58,-191.49 709.75,-74.88 727.38,-29.38"/>
<polygon fill="midnightblue" stroke="midnightblue" points="730.71,-30.47 731.06,-19.88 724.18,-27.94 730.71,-30.47"/>
</g>
<!-- Node8 -->
<g id="node8" class="node">
<title>Node8</title>
<g id="a_node8"><a xlink:href="../../dc/dc7/NamespaceSettings_8hpp.html" target="_top" xlink:title=" ">
<polygon fill="white" stroke="black" points="466,-56.5 466,-75.5 661,-75.5 661,-56.5 466,-56.5"/>
<text text-anchor="middle" x="563.5" y="-63.5" font-family="Helvetica,sans-Serif" font-size="10.00">AH/Settings/NamespaceSettings.hpp</text>
</a>
</g>
</g>
<!-- Node7&#45;&gt;Node8 -->
<g id="edge10" class="edge">
<title>Node7&#45;&gt;Node8</title>
<path fill="none" stroke="midnightblue" d="M643.93,-224.08C630.43,-197.72 590.58,-119.88 572.54,-84.66"/>
<polygon fill="midnightblue" stroke="midnightblue" points="575.56,-82.87 567.89,-75.57 569.33,-86.06 575.56,-82.87"/>
</g>
<!-- Node9 -->
<g id="node9" class="node">
<title>Node9</title>
<g id="a_node9"><a xlink:href="../../d6/ddf/Arduino-Wrapper_8h.html" target="_top" xlink:title=" ">
<polygon fill="white" stroke="black" points="183.5,-168.5 183.5,-187.5 307.5,-187.5 307.5,-168.5 183.5,-168.5"/>
<text text-anchor="middle" x="245.5" y="-175.5" font-family="Helvetica,sans-Serif" font-size="10.00">AH/Arduino&#45;Wrapper.h</text>
</a>
</g>
</g>
<!-- Node7&#45;&gt;Node9 -->
<g id="edge12" class="edge">
<title>Node7&#45;&gt;Node9</title>
<path fill="none" stroke="midnightblue" d="M584.64,-224.44C512,-214.71 393.64,-198.85 317.7,-188.67"/>
<polygon fill="midnightblue" stroke="midnightblue" points="318.11,-185.2 307.73,-187.34 317.18,-192.14 318.11,-185.2"/>
</g>
<!-- Node10 -->
<g id="node10" class="node">
<title>Node10</title>
<g id="a_node10"><a xlink:href="../../d7/d79/MinMaxFix_8hpp.html" target="_top" xlink:title=" ">
<polygon fill="white" stroke="black" points="179.5,-112.5 179.5,-131.5 315.5,-131.5 315.5,-112.5 179.5,-112.5"/>
<text text-anchor="middle" x="247.5" y="-119.5" font-family="Helvetica,sans-Serif" font-size="10.00">AH/Math/MinMaxFix.hpp</text>
</a>
</g>
</g>
<!-- Node9&#45;&gt;Node10 -->
<g id="edge13" class="edge">
<title>Node9&#45;&gt;Node10</title>
<path fill="none" stroke="midnightblue" d="M245.83,-168.08C246.09,-161.01 246.47,-150.86 246.8,-141.99"/>
<polygon fill="midnightblue" stroke="midnightblue" points="250.3,-141.87 247.18,-131.75 243.31,-141.61 250.3,-141.87"/>
</g>
<!-- Node12 -->
<g id="node12" class="node">
<title>Node12</title>
<g id="a_node12"><a xlink:title=" ">
<polygon fill="white" stroke="#bfbfbf" points="160,-0.5 160,-19.5 223,-19.5 223,-0.5 160,-0.5"/>
<text text-anchor="middle" x="191.5" y="-7.5" font-family="Helvetica,sans-Serif" font-size="10.00">Arduino.h</text>
</a>
</g>
</g>
<!-- Node9&#45;&gt;Node12 -->
<g id="edge20" class="edge">
<title>Node9&#45;&gt;Node12</title>
<path fill="none" stroke="midnightblue" d="M221.94,-168.35C205.26,-161.08 183.62,-149.11 170.5,-132 149.49,-104.61 142.86,-88.5 154.5,-56 158.44,-45 166.36,-34.77 173.86,-26.85"/>
<polygon fill="midnightblue" stroke="midnightblue" points="176.39,-29.27 181.06,-19.76 171.48,-24.28 176.39,-29.27"/>
</g>
<!-- Node9&#45;&gt;Node13 -->
<g id="edge19" class="edge">
<title>Node9&#45;&gt;Node13</title>
<path fill="none" stroke="midnightblue" d="M215.08,-168.44C182.22,-159.2 129.72,-144.44 93.53,-134.26"/>
<polygon fill="midnightblue" stroke="midnightblue" points="94.35,-130.85 83.78,-131.52 92.46,-137.59 94.35,-130.85"/>
</g>
<!-- Node10&#45;&gt;Node3 -->
<g id="edge14" class="edge">
<title>Node10&#45;&gt;Node3</title>
<path fill="none" stroke="midnightblue" d="M265.58,-112.44C302.65,-94.9 383.93,-56.46 385.5,-56 474.65,-29.96 580.99,-18.98 652.67,-14.35"/>
<polygon fill="midnightblue" stroke="midnightblue" points="653.22,-17.82 662.99,-13.71 652.79,-10.84 653.22,-17.82"/>
</g>
<!-- Node10&#45;&gt;Node8 -->
<g id="edge18" class="edge">
<title>Node10&#45;&gt;Node8</title>
<path fill="none" stroke="midnightblue" d="M297.57,-112.44C353.51,-102.89 444.01,-87.42 503.64,-77.23"/>
<polygon fill="midnightblue" stroke="midnightblue" points="504.4,-80.65 513.66,-75.52 503.22,-73.75 504.4,-80.65"/>
</g>
<!-- Node11 -->
<g id="node11" class="node">
<title>Node11</title>
<g id="a_node11"><a xlink:href="../../d6/d3b/FixArduinoMacros_8hpp.html" target="_top" xlink:title=" ">
<polygon fill="white" stroke="black" points="163.5,-56.5 163.5,-75.5 333.5,-75.5 333.5,-56.5 163.5,-56.5"/>
<text text-anchor="middle" x="248.5" y="-63.5" font-family="Helvetica,sans-Serif" font-size="10.00">AH/Math/FixArduinoMacros.hpp</text>
</a>
</g>
</g>
<!-- Node10&#45;&gt;Node11 -->
<g id="edge15" class="edge">
<title>Node10&#45;&gt;Node11</title>
<path fill="none" stroke="midnightblue" d="M247.67,-112.08C247.8,-105.01 247.98,-94.86 248.15,-85.99"/>
<polygon fill="midnightblue" stroke="midnightblue" points="251.65,-85.81 248.34,-75.75 244.65,-85.68 251.65,-85.81"/>
</g>
<!-- Node11&#45;&gt;Node3 -->
<g id="edge16" class="edge">
<title>Node11&#45;&gt;Node3</title>
<path fill="none" stroke="midnightblue" d="M325.24,-56.47C414.57,-46.55 561.5,-30.22 652.88,-20.07"/>
<polygon fill="midnightblue" stroke="midnightblue" points="653.36,-23.54 662.91,-18.95 652.59,-16.58 653.36,-23.54"/>
</g>
<!-- Node11&#45;&gt;Node12 -->
<g id="edge17" class="edge">
<title>Node11&#45;&gt;Node12</title>
<path fill="none" stroke="midnightblue" d="M239.34,-56.32C231,-48.42 218.47,-36.55 208.32,-26.94"/>
<polygon fill="midnightblue" stroke="midnightblue" points="210.49,-24.17 200.82,-19.83 205.68,-29.25 210.49,-24.17"/>
</g>
<!-- Node14&#45;&gt;Node3 -->
<g id="edge22" class="edge">
<title>Node14&#45;&gt;Node3</title>
<path fill="none" stroke="midnightblue" d="M595,-336.35C614.21,-327.94 643.5,-314.38 667.5,-300 726.39,-264.72 763.5,-247.65 763.5,-179 763.5,-179 763.5,-179 763.5,-121 763.5,-87.72 750.93,-50.58 742.34,-29.09"/>
<polygon fill="midnightblue" stroke="midnightblue" points="745.48,-27.53 738.41,-19.64 739.02,-30.21 745.48,-27.53"/>
</g>
<!-- Node14&#45;&gt;Node6 -->
<g id="edge35" class="edge">
<title>Node14&#45;&gt;Node6</title>
<path fill="none" stroke="midnightblue" d="M579.79,-355.75C581.45,-362.86 582.09,-373.14 581.62,-382.1"/>
<polygon fill="midnightblue" stroke="midnightblue" points="578.14,-381.75 580.5,-392.08 585.1,-382.54 578.14,-381.75"/>
</g>
<!-- Node14&#45;&gt;Node8 -->
<g id="edge23" class="edge">
<title>Node14&#45;&gt;Node8</title>
<path fill="none" stroke="midnightblue" d="M531.43,-336.49C511.1,-330.07 488.68,-318.99 476.5,-300 460.4,-274.89 498.23,-269.63 513.5,-244 544.49,-191.97 557,-119.9 561.41,-86.03"/>
<polygon fill="midnightblue" stroke="midnightblue" points="564.93,-86.08 562.65,-75.73 557.98,-85.25 564.93,-86.08"/>
</g>
<!-- Node15 -->
<g id="node15" class="node">
<title>Node15</title>
<g id="a_node15"><a xlink:href="../../db/d02/Settings_8hpp.html" target="_top" xlink:title="All user settings and debugging options can be changed here.">
<polygon fill="white" stroke="black" points="333,-280.5 333,-299.5 410,-299.5 410,-280.5 333,-280.5"/>
<text text-anchor="middle" x="371.5" y="-287.5" font-family="Helvetica,sans-Serif" font-size="10.00">Settings.hpp</text>
</a>
</g>
</g>
<!-- Node14&#45;&gt;Node15 -->
<g id="edge24" class="edge">
<title>Node14&#45;&gt;Node15</title>
<path fill="none" stroke="midnightblue" d="M542.33,-336.44C507.44,-327.16 451.61,-312.31 413.33,-302.13"/>
<polygon fill="midnightblue" stroke="midnightblue" points="414.08,-298.7 403.52,-299.52 412.28,-305.47 414.08,-298.7"/>
</g>
<!-- Node21 -->
<g id="node21" class="node">
<title>Node21</title>
<g id="a_node21"><a xlink:href="../../d9/d98/TeensyUSBTypes_8hpp.html" target="_top" xlink:title=" ">
<polygon fill="white" stroke="black" points="486,-280.5 486,-299.5 659,-299.5 659,-280.5 486,-280.5"/>
<text text-anchor="middle" x="572.5" y="-287.5" font-family="Helvetica,sans-Serif" font-size="10.00">AH/Teensy/TeensyUSBTypes.hpp</text>
</a>
</g>
</g>
<!-- Node14&#45;&gt;Node21 -->
<g id="edge34" class="edge">
<title>Node14&#45;&gt;Node21</title>
<path fill="none" stroke="midnightblue" d="M574.17,-336.08C573.91,-329.01 573.53,-318.86 573.2,-309.99"/>
<polygon fill="midnightblue" stroke="midnightblue" points="576.69,-309.61 572.82,-299.75 569.7,-309.87 576.69,-309.61"/>
</g>
<!-- Node16 -->
<g id="node16" class="node">
<title>Node16</title>
<g id="a_node16"><a xlink:href="../../dc/d50/Frequency_8hpp.html" target="_top" xlink:title=" ">
<polygon fill="white" stroke="black" points="371.5,-112.5 371.5,-131.5 505.5,-131.5 505.5,-112.5 371.5,-112.5"/>
<text text-anchor="middle" x="438.5" y="-119.5" font-family="Helvetica,sans-Serif" font-size="10.00">AH/Types/Frequency.hpp</text>
</a>
</g>
</g>
<!-- Node15&#45;&gt;Node16 -->
<g id="edge25" class="edge">
<title>Node15&#45;&gt;Node16</title>
<path fill="none" stroke="midnightblue" d="M369.95,-280.36C368.02,-267.68 365.64,-243.45 371.5,-224 381.61,-190.46 406.91,-157.82 423.37,-139.1"/>
<polygon fill="midnightblue" stroke="midnightblue" points="426.11,-141.29 430.22,-131.53 420.91,-136.6 426.11,-141.29"/>
</g>
<!-- Node17 -->
<g id="node17" class="node">
<title>Node17</title>
<g id="a_node17"><a xlink:href="../../d7/d7c/ADCConfig_8hpp.html" target="_top" xlink:title="This file contains the platform&#45;specific ADC resolutions.">
<polygon fill="white" stroke="black" points="167,-224.5 167,-243.5 324,-243.5 324,-224.5 167,-224.5"/>
<text text-anchor="middle" x="245.5" y="-231.5" font-family="Helvetica,sans-Serif" font-size="10.00">AH/Hardware/ADCConfig.hpp</text>
</a>
</g>
</g>
<!-- Node15&#45;&gt;Node17 -->
<g id="edge28" class="edge">
<title>Node15&#45;&gt;Node17</title>
<path fill="none" stroke="midnightblue" d="M351.53,-280.44C330.89,-271.6 298.44,-257.69 274.87,-247.59"/>
<polygon fill="midnightblue" stroke="midnightblue" points="275.94,-244.24 265.37,-243.52 273.18,-250.67 275.94,-244.24"/>
</g>
<!-- Node18 -->
<g id="node18" class="node">
<title>Node18</title>
<g id="a_node18"><a xlink:title=" ">
<polygon fill="white" stroke="#bfbfbf" points="381,-224.5 381,-243.5 434,-243.5 434,-224.5 381,-224.5"/>
<text text-anchor="middle" x="407.5" y="-231.5" font-family="Helvetica,sans-Serif" font-size="10.00">limits.h</text>
</a>
</g>
</g>
<!-- Node15&#45;&gt;Node18 -->
<g id="edge31" class="edge">
<title>Node15&#45;&gt;Node18</title>
<path fill="none" stroke="midnightblue" d="M377.44,-280.08C382.48,-272.53 389.84,-261.49 396.01,-252.23"/>
<polygon fill="midnightblue" stroke="midnightblue" points="399.03,-254.01 401.67,-243.75 393.21,-250.13 399.03,-254.01"/>
</g>
<!-- Node15&#45;&gt;Node19 -->
<g id="edge32" class="edge">
<title>Node15&#45;&gt;Node19</title>
<path fill="none" stroke="midnightblue" d="M332.76,-281.23C291.85,-272.95 225.21,-259.21 158.59,-244.2"/>
<polygon fill="midnightblue" stroke="midnightblue" points="159.29,-240.77 148.76,-241.97 157.74,-247.59 159.29,-240.77"/>
</g>
<!-- Node20 -->
<g id="node20" class="node">
<title>Node20</title>
<g id="a_node20"><a xlink:title=" ">
<polygon fill="white" stroke="#bfbfbf" points="452,-224.5 452,-243.5 505,-243.5 505,-224.5 452,-224.5"/>
<text text-anchor="middle" x="478.5" y="-231.5" font-family="Helvetica,sans-Serif" font-size="10.00">stdint.h</text>
</a>
</g>
</g>
<!-- Node15&#45;&gt;Node20 -->
<g id="edge33" class="edge">
<title>Node15&#45;&gt;Node20</title>
<path fill="none" stroke="midnightblue" d="M388.69,-280.32C405.85,-271.66 432.45,-258.24 452.25,-248.25"/>
<polygon fill="midnightblue" stroke="midnightblue" points="454,-251.28 461.35,-243.65 450.85,-245.04 454,-251.28"/>
</g>
<!-- Node16&#45;&gt;Node3 -->
<g id="edge26" class="edge">
<title>Node16&#45;&gt;Node3</title>
<path fill="none" stroke="midnightblue" d="M438.16,-112.34C438.13,-98.26 440.28,-70.53 456.5,-56 484.79,-30.66 581.13,-19.5 652.5,-14.65"/>
<polygon fill="midnightblue" stroke="midnightblue" points="653.09,-18.12 662.84,-13.97 652.64,-11.13 653.09,-18.12"/>
</g>
<!-- Node16&#45;&gt;Node8 -->
<g id="edge27" class="edge">
<title>Node16&#45;&gt;Node8</title>
<path fill="none" stroke="midnightblue" d="M458.31,-112.44C478.79,-103.6 510.98,-89.69 534.36,-79.59"/>
<polygon fill="midnightblue" stroke="midnightblue" points="535.99,-82.7 543.79,-75.52 533.22,-76.27 535.99,-82.7"/>
</g>
<!-- Node17&#45;&gt;Node3 -->
<g id="edge29" class="edge">
<title>Node17&#45;&gt;Node3</title>
<path fill="none" stroke="midnightblue" d="M263.75,-224.44C279.15,-216.57 301.08,-203.74 316.5,-188 344.13,-159.79 335.7,-140.99 362.5,-112 391.47,-80.66 400.98,-72.12 440.5,-56 508.63,-28.21 592.02,-17.41 652.56,-13.31"/>
<polygon fill="midnightblue" stroke="midnightblue" points="653.07,-16.78 662.83,-12.66 652.63,-9.79 653.07,-16.78"/>
</g>
<!-- Node17&#45;&gt;Node9 -->
<g id="edge30" class="edge">
<title>Node17&#45;&gt;Node9</title>
<path fill="none" stroke="midnightblue" d="M245.5,-224.08C245.5,-217.01 245.5,-206.86 245.5,-197.99"/>
<polygon fill="midnightblue" stroke="midnightblue" points="249,-197.75 245.5,-187.75 242,-197.75 249,-197.75"/>
</g>
<!-- Node24&#45;&gt;Node4 -->
<g id="edge42" class="edge">
<title>Node24&#45;&gt;Node4</title>
<path fill="none" stroke="midnightblue" d="M521.59,-616.43C479.52,-607.07 430.04,-589.36 452.5,-560 467.57,-540.29 533.03,-527.21 577.1,-520.45"/>
<polygon fill="midnightblue" stroke="midnightblue" points="577.87,-523.88 587.25,-518.95 576.85,-516.95 577.87,-523.88"/>
</g>
<!-- Node25 -->
<g id="node25" class="node">
<title>Node25</title>
<g id="a_node25"><a xlink:title=" ">
<polygon fill="white" stroke="#bfbfbf" points="462,-560.5 462,-579.5 547,-579.5 547,-560.5 462,-560.5"/>
<text text-anchor="middle" x="504.5" y="-567.5" font-family="Helvetica,sans-Serif" font-size="10.00">AH/STL/cmath</text>
</a>
</g>
</g>
<!-- Node24&#45;&gt;Node25 -->
<g id="edge43" class="edge">
<title>Node24&#45;&gt;Node25</title>
<path fill="none" stroke="midnightblue" d="M561.57,-616.32C551.33,-608.18 535.78,-595.84 523.5,-586.09"/>
<polygon fill="midnightblue" stroke="midnightblue" points="525.63,-583.31 515.62,-579.83 521.28,-588.79 525.63,-583.31"/>
</g>
<!-- Node26 -->
<g id="node26" class="node">
<title>Node26</title>
<g id="a_node26"><a xlink:href="../../d2/d03/TransferFunction_8hpp.html" target="_top" xlink:title=" ">
<polygon fill="white" stroke="black" points="565,-560.5 565,-579.5 716,-579.5 716,-560.5 565,-560.5"/>
<text text-anchor="middle" x="640.5" y="-567.5" font-family="Helvetica,sans-Serif" font-size="10.00">Filters/TransferFunction.hpp</text>
</a>
</g>
</g>
<!-- Node24&#45;&gt;Node26 -->
<g id="edge44" class="edge">
<title>Node24&#45;&gt;Node26</title>
<path fill="none" stroke="midnightblue" d="M583.43,-616.32C593.67,-608.18 609.22,-595.84 621.5,-586.09"/>
<polygon fill="midnightblue" stroke="midnightblue" points="623.72,-588.79 629.38,-579.83 619.37,-583.31 623.72,-588.79"/>
</g>
<!-- Node26&#45;&gt;Node4 -->
<g id="edge45" class="edge">
<title>Node26&#45;&gt;Node4</title>
<path fill="none" stroke="midnightblue" d="M636.87,-560.08C633.89,-552.77 629.57,-542.18 625.88,-533.1"/>
<polygon fill="midnightblue" stroke="midnightblue" points="629.08,-531.69 622.07,-523.75 622.6,-534.33 629.08,-531.69"/>
</g>
</g>
</svg>
