<?xml version="1.0" encoding="UTF-8" standalone="no"?>
<!DOCTYPE svg PUBLIC "-//W3C//DTD SVG 1.1//EN"
 "http://www.w3.org/Graphics/SVG/1.1/DTD/svg11.dtd">
<!-- Generated by graphviz version 2.43.0 (0)
 -->
<!-- Title: ExtendedInputOutput.hpp Pages: 1 -->
<svg width="1409pt" height="722pt"
 viewBox="0.00 0.00 1409.00 722.00" xmlns="http://www.w3.org/2000/svg" xmlns:xlink="http://www.w3.org/1999/xlink">
<g id="graph0" class="graph" transform="scale(1 1) rotate(0) translate(4 718)">
<title>ExtendedInputOutput.hpp</title>
<polygon fill="white" stroke="transparent" points="-4,4 -4,-718 1405,-718 1405,4 -4,4"/>
<!-- Node1 -->
<g id="node1" class="node">
<title>Node1</title>
<g id="a_node1"><a xlink:title=" ">
<polygon fill="#bfbfbf" stroke="black" points="1174,-694.5 1174,-713.5 1315,-713.5 1315,-694.5 1174,-694.5"/>
<text text-anchor="middle" x="1244.5" y="-701.5" font-family="Helvetica,sans-Serif" font-size="10.00">ExtendedInputOutput.hpp</text>
</a>
</g>
</g>
<!-- Node2 -->
<g id="node2" class="node">
<title>Node2</title>
<g id="a_node2"><a xlink:href="../../d2/d3c/Arduino-Hardware-Types_8hpp.html" target="_top" xlink:title=" ">
<polygon fill="white" stroke="black" points="1052.5,-627.5 1052.5,-657.5 1174.5,-657.5 1174.5,-627.5 1052.5,-627.5"/>
<text text-anchor="start" x="1060.5" y="-645.5" font-family="Helvetica,sans-Serif" font-size="10.00">AH/Hardware/Arduino</text>
<text text-anchor="middle" x="1113.5" y="-634.5" font-family="Helvetica,sans-Serif" font-size="10.00">&#45;Hardware&#45;Types.hpp</text>
</a>
</g>
</g>
<!-- Node1&#45;&gt;Node2 -->
<g id="edge1" class="edge">
<title>Node1&#45;&gt;Node2</title>
<path fill="none" stroke="midnightblue" d="M1225.73,-694.48C1206.99,-685.96 1177.61,-672.62 1153.61,-661.72"/>
<polygon fill="midnightblue" stroke="midnightblue" points="1154.93,-658.47 1144.37,-657.52 1152.03,-664.85 1154.93,-658.47"/>
</g>
<!-- Node3 -->
<g id="node3" class="node">
<title>Node3</title>
<g id="a_node3"><a xlink:href="../../d1/d65/Warnings_8hpp.html" target="_top" xlink:title=" ">
<polygon fill="white" stroke="black" points="955,-0.5 955,-19.5 1098,-19.5 1098,-0.5 955,-0.5"/>
<text text-anchor="middle" x="1026.5" y="-7.5" font-family="Helvetica,sans-Serif" font-size="10.00">AH/Settings/Warnings.hpp</text>
</a>
</g>
</g>
<!-- Node1&#45;&gt;Node3 -->
<g id="edge51" class="edge">
<title>Node1&#45;&gt;Node3</title>
<path fill="none" stroke="midnightblue" d="M1249.36,-694.42C1260.22,-674.42 1285.5,-622.9 1285.5,-576.5 1285.5,-576.5 1285.5,-576.5 1285.5,-121 1285.5,-42.8 1184.25,-19.39 1108.36,-12.82"/>
<polygon fill="midnightblue" stroke="midnightblue" points="1108.54,-9.33 1098.3,-12.04 1108,-16.3 1108.54,-9.33"/>
</g>
<!-- Node9 -->
<g id="node9" class="node">
<title>Node9</title>
<g id="a_node9"><a xlink:href="../../dc/dc7/NamespaceSettings_8hpp.html" target="_top" xlink:title=" ">
<polygon fill="white" stroke="black" points="296,-56.5 296,-75.5 491,-75.5 491,-56.5 296,-56.5"/>
<text text-anchor="middle" x="393.5" y="-63.5" font-family="Helvetica,sans-Serif" font-size="10.00">AH/Settings/NamespaceSettings.hpp</text>
</a>
</g>
</g>
<!-- Node1&#45;&gt;Node9 -->
<g id="edge50" class="edge">
<title>Node1&#45;&gt;Node9</title>
<path fill="none" stroke="midnightblue" d="M1173.97,-701.83C940.34,-697.03 206.5,-674.19 206.5,-576.5 206.5,-576.5 206.5,-576.5 206.5,-289 206.5,-189.38 318.02,-111.23 368.82,-80.8"/>
<polygon fill="midnightblue" stroke="midnightblue" points="370.7,-83.75 377.56,-75.68 367.16,-77.71 370.7,-83.75"/>
</g>
<!-- Node27 -->
<g id="node27" class="node">
<title>Node27</title>
<g id="a_node27"><a xlink:title=" ">
<polygon fill="white" stroke="#bfbfbf" points="1314,-633 1314,-652 1401,-652 1401,-633 1314,-633"/>
<text text-anchor="middle" x="1357.5" y="-640" font-family="Helvetica,sans-Serif" font-size="10.00">AH/STL/climits</text>
</a>
</g>
</g>
<!-- Node1&#45;&gt;Node27 -->
<g id="edge49" class="edge">
<title>Node1&#45;&gt;Node27</title>
<path fill="none" stroke="midnightblue" d="M1260.69,-694.48C1279.4,-684.62 1310.42,-668.29 1332.3,-656.77"/>
<polygon fill="midnightblue" stroke="midnightblue" points="1334.12,-659.77 1341.34,-652.01 1330.86,-653.57 1334.12,-659.77"/>
</g>
<!-- Node2&#45;&gt;Node3 -->
<g id="edge2" class="edge">
<title>Node2&#45;&gt;Node3</title>
<path fill="none" stroke="midnightblue" d="M1147.31,-627.35C1187.01,-608.22 1247.5,-570.03 1247.5,-515 1247.5,-515 1247.5,-515 1247.5,-121 1247.5,-56.52 1171.17,-29.84 1108.23,-18.79"/>
<polygon fill="midnightblue" stroke="midnightblue" points="1108.69,-15.32 1098.25,-17.15 1107.55,-22.23 1108.69,-15.32"/>
</g>
<!-- Node4 -->
<g id="node4" class="node">
<title>Node4</title>
<g id="a_node4"><a xlink:href="../../d4/d35/Hardware-Types_8hpp.html" target="_top" xlink:title=" ">
<polygon fill="white" stroke="black" points="1048,-560.5 1048,-590.5 1179,-590.5 1179,-560.5 1048,-560.5"/>
<text text-anchor="start" x="1056" y="-578.5" font-family="Helvetica,sans-Serif" font-size="10.00">AH/Hardware/Hardware</text>
<text text-anchor="middle" x="1113.5" y="-567.5" font-family="Helvetica,sans-Serif" font-size="10.00">&#45;Types.hpp</text>
</a>
</g>
</g>
<!-- Node2&#45;&gt;Node4 -->
<g id="edge3" class="edge">
<title>Node2&#45;&gt;Node4</title>
<path fill="none" stroke="midnightblue" d="M1113.5,-627.4C1113.5,-619.64 1113.5,-609.81 1113.5,-600.86"/>
<polygon fill="midnightblue" stroke="midnightblue" points="1117,-600.58 1113.5,-590.58 1110,-600.58 1117,-600.58"/>
</g>
<!-- Node10 -->
<g id="node10" class="node">
<title>Node10</title>
<g id="a_node10"><a xlink:href="../../d6/ddf/Arduino-Wrapper_8h.html" target="_top" xlink:title=" ">
<polygon fill="white" stroke="black" points="514.5,-168.5 514.5,-187.5 638.5,-187.5 638.5,-168.5 514.5,-168.5"/>
<text text-anchor="middle" x="576.5" y="-175.5" font-family="Helvetica,sans-Serif" font-size="10.00">AH/Arduino&#45;Wrapper.h</text>
</a>
</g>
</g>
<!-- Node2&#45;&gt;Node10 -->
<g id="edge48" class="edge">
<title>Node2&#45;&gt;Node10</title>
<path fill="none" stroke="midnightblue" d="M1052.35,-637.69C872.62,-625.68 358.5,-585.19 358.5,-515 358.5,-515 358.5,-515 358.5,-289 358.5,-222.3 440.84,-196.04 504.31,-185.7"/>
<polygon fill="midnightblue" stroke="midnightblue" points="504.96,-189.14 514.32,-184.18 503.91,-182.22 504.96,-189.14"/>
</g>
<!-- Node24 -->
<g id="node24" class="node">
<title>Node24</title>
<g id="a_node24"><a xlink:href="../../d0/db1/FunctionTraits_8hpp.html" target="_top" xlink:title=" ">
<polygon fill="white" stroke="black" points="63,-112.5 63,-131.5 216,-131.5 216,-112.5 63,-112.5"/>
<text text-anchor="middle" x="139.5" y="-119.5" font-family="Helvetica,sans-Serif" font-size="10.00">AH/Types/FunctionTraits.hpp</text>
</a>
</g>
</g>
<!-- Node2&#45;&gt;Node24 -->
<g id="edge43" class="edge">
<title>Node2&#45;&gt;Node24</title>
<path fill="none" stroke="midnightblue" d="M1052.29,-639.39C907.91,-634.01 549.47,-618.28 432.5,-591 344.73,-570.53 244.5,-605.12 244.5,-515 244.5,-515 244.5,-515 244.5,-289 244.5,-225.1 188.24,-165.81 158.09,-138.61"/>
<polygon fill="midnightblue" stroke="midnightblue" points="160.17,-135.78 150.34,-131.82 155.55,-141.04 160.17,-135.78"/>
</g>
<!-- Node4&#45;&gt;Node3 -->
<g id="edge4" class="edge">
<title>Node4&#45;&gt;Node3</title>
<path fill="none" stroke="midnightblue" d="M1137.23,-560.17C1165.66,-541 1209.5,-504.11 1209.5,-459 1209.5,-459 1209.5,-459 1209.5,-121 1209.5,-63.37 1142,-35.16 1088.99,-21.9"/>
<polygon fill="midnightblue" stroke="midnightblue" points="1089.48,-18.42 1078.94,-19.52 1087.86,-25.23 1089.48,-18.42"/>
</g>
<!-- Node5 -->
<g id="node5" class="node">
<title>Node5</title>
<g id="a_node5"><a xlink:href="../../de/d76/Array_8hpp.html" target="_top" xlink:title=" ">
<polygon fill="white" stroke="black" points="981,-504.5 981,-523.5 1116,-523.5 1116,-504.5 981,-504.5"/>
<text text-anchor="middle" x="1048.5" y="-511.5" font-family="Helvetica,sans-Serif" font-size="10.00">AH/Containers/Array.hpp</text>
</a>
</g>
</g>
<!-- Node4&#45;&gt;Node5 -->
<g id="edge5" class="edge">
<title>Node4&#45;&gt;Node5</title>
<path fill="none" stroke="midnightblue" d="M1098.1,-560.4C1088.26,-551.4 1075.51,-539.72 1065.39,-530.47"/>
<polygon fill="midnightblue" stroke="midnightblue" points="1067.7,-527.83 1057.96,-523.66 1062.97,-532.99 1067.7,-527.83"/>
</g>
<!-- Node4&#45;&gt;Node9 -->
<g id="edge41" class="edge">
<title>Node4&#45;&gt;Node9</title>
<path fill="none" stroke="midnightblue" d="M1047.77,-570.08C901.47,-559.25 554,-527.85 454.5,-468 369.95,-417.14 320.5,-389.67 320.5,-291 320.5,-291 320.5,-291 320.5,-177 320.5,-137.78 353.12,-101.84 374.75,-82.32"/>
<polygon fill="midnightblue" stroke="midnightblue" points="377.15,-84.87 382.41,-75.67 372.57,-79.58 377.15,-84.87"/>
</g>
<!-- Node21 -->
<g id="node21" class="node">
<title>Node21</title>
<g id="a_node21"><a xlink:title=" ">
<polygon fill="white" stroke="#bfbfbf" points="1014,-224.5 1014,-243.5 1067,-243.5 1067,-224.5 1014,-224.5"/>
<text text-anchor="middle" x="1040.5" y="-231.5" font-family="Helvetica,sans-Serif" font-size="10.00">stdint.h</text>
</a>
</g>
</g>
<!-- Node4&#45;&gt;Node21 -->
<g id="edge42" class="edge">
<title>Node4&#45;&gt;Node21</title>
<path fill="none" stroke="midnightblue" d="M1118.57,-560.48C1123.08,-546.26 1128.53,-523.63 1125.5,-504 1110.43,-406.27 1066.26,-295.39 1048.27,-252.87"/>
<polygon fill="midnightblue" stroke="midnightblue" points="1051.44,-251.4 1044.29,-243.59 1045.01,-254.16 1051.44,-251.4"/>
</g>
<!-- Node5&#45;&gt;Node3 -->
<g id="edge6" class="edge">
<title>Node5&#45;&gt;Node3</title>
<path fill="none" stroke="midnightblue" d="M1061.66,-504.29C1093.39,-482.14 1171.5,-420.17 1171.5,-347 1171.5,-347 1171.5,-347 1171.5,-121 1171.5,-68.53 1110.48,-37.84 1067.61,-22.76"/>
<polygon fill="midnightblue" stroke="midnightblue" points="1068.56,-19.39 1057.96,-19.52 1066.33,-26.02 1068.56,-19.39"/>
</g>
<!-- Node6 -->
<g id="node6" class="node">
<title>Node6</title>
<g id="a_node6"><a xlink:href="../../d1/d93/Error_8hpp.html" target="_top" xlink:title=" ">
<polygon fill="white" stroke="black" points="594.5,-448.5 594.5,-467.5 698.5,-467.5 698.5,-448.5 594.5,-448.5"/>
<text text-anchor="middle" x="646.5" y="-455.5" font-family="Helvetica,sans-Serif" font-size="10.00">AH/Error/Error.hpp</text>
</a>
</g>
</g>
<!-- Node5&#45;&gt;Node6 -->
<g id="edge7" class="edge">
<title>Node5&#45;&gt;Node6</title>
<path fill="none" stroke="midnightblue" d="M984.8,-504.44C909.21,-494.29 783.99,-477.47 708.95,-467.39"/>
<polygon fill="midnightblue" stroke="midnightblue" points="709.08,-463.87 698.7,-466.01 708.15,-470.81 709.08,-463.87"/>
</g>
<!-- Node14 -->
<g id="node14" class="node">
<title>Node14</title>
<g id="a_node14"><a xlink:title=" ">
<polygon fill="white" stroke="#bfbfbf" points="739,-112.5 739,-131.5 846,-131.5 846,-112.5 739,-112.5"/>
<text text-anchor="middle" x="792.5" y="-119.5" font-family="Helvetica,sans-Serif" font-size="10.00">AH/STL/type_traits</text>
</a>
</g>
</g>
<!-- Node5&#45;&gt;Node14 -->
<g id="edge39" class="edge">
<title>Node5&#45;&gt;Node14</title>
<path fill="none" stroke="midnightblue" d="M1055.04,-504.41C1067.95,-486.56 1095.5,-443.7 1095.5,-403 1095.5,-403 1095.5,-403 1095.5,-289 1095.5,-258.9 1097.16,-245.88 1076.5,-224 1043.37,-188.91 910.57,-151.96 838.91,-134.04"/>
<polygon fill="midnightblue" stroke="midnightblue" points="839.35,-130.54 828.8,-131.54 837.67,-137.34 839.35,-130.54"/>
</g>
<!-- Node20 -->
<g id="node20" class="node">
<title>Node20</title>
<g id="a_node20"><a xlink:title=" ">
<polygon fill="white" stroke="#bfbfbf" points="616.5,-224.5 616.5,-243.5 672.5,-243.5 672.5,-224.5 616.5,-224.5"/>
<text text-anchor="middle" x="644.5" y="-231.5" font-family="Helvetica,sans-Serif" font-size="10.00">stddef.h</text>
</a>
</g>
</g>
<!-- Node5&#45;&gt;Node20 -->
<g id="edge40" class="edge">
<title>Node5&#45;&gt;Node20</title>
<path fill="none" stroke="midnightblue" d="M980.67,-512.92C889.43,-511.35 722.77,-503.3 585.5,-468 514.74,-449.8 434.5,-476.06 434.5,-403 434.5,-403 434.5,-403 434.5,-345 434.5,-306.28 459.8,-300.73 492.5,-280 502.27,-273.81 564.77,-256.34 606.53,-245.07"/>
<polygon fill="midnightblue" stroke="midnightblue" points="607.64,-248.4 616.39,-242.43 605.83,-241.64 607.64,-248.4"/>
</g>
<!-- Node23 -->
<g id="node23" class="node">
<title>Node23</title>
<g id="a_node23"><a xlink:title=" ">
<polygon fill="white" stroke="#bfbfbf" points="977.5,-448.5 977.5,-467.5 1067.5,-467.5 1067.5,-448.5 977.5,-448.5"/>
<text text-anchor="middle" x="1022.5" y="-455.5" font-family="Helvetica,sans-Serif" font-size="10.00">AH/STL/iterator</text>
</a>
</g>
</g>
<!-- Node5&#45;&gt;Node23 -->
<g id="edge38" class="edge">
<title>Node5&#45;&gt;Node23</title>
<path fill="none" stroke="midnightblue" d="M1044.21,-504.08C1040.65,-496.69 1035.48,-485.95 1031.08,-476.81"/>
<polygon fill="midnightblue" stroke="midnightblue" points="1034.21,-475.24 1026.71,-467.75 1027.9,-478.28 1034.21,-475.24"/>
</g>
<!-- Node6&#45;&gt;Node3 -->
<g id="edge8" class="edge">
<title>Node6&#45;&gt;Node3</title>
<path fill="none" stroke="midnightblue" d="M594.35,-456.29C493.7,-451.86 282.5,-426.44 282.5,-291 282.5,-291 282.5,-291 282.5,-177 282.5,-123.18 249.81,-94.43 287.5,-56 310.23,-32.82 757.35,-18.2 944.85,-13.07"/>
<polygon fill="midnightblue" stroke="midnightblue" points="945.03,-16.56 954.93,-12.79 944.84,-9.57 945.03,-16.56"/>
</g>
<!-- Node7 -->
<g id="node7" class="node">
<title>Node7</title>
<g id="a_node7"><a xlink:href="../../df/dee/Debug_8hpp.html" target="_top" xlink:title=" ">
<polygon fill="white" stroke="black" points="586,-392.5 586,-411.5 707,-411.5 707,-392.5 586,-392.5"/>
<text text-anchor="middle" x="646.5" y="-399.5" font-family="Helvetica,sans-Serif" font-size="10.00">AH/Debug/Debug.hpp</text>
</a>
</g>
</g>
<!-- Node6&#45;&gt;Node7 -->
<g id="edge9" class="edge">
<title>Node6&#45;&gt;Node7</title>
<path fill="none" stroke="midnightblue" d="M646.5,-448.08C646.5,-441.01 646.5,-430.86 646.5,-421.99"/>
<polygon fill="midnightblue" stroke="midnightblue" points="650,-421.75 646.5,-411.75 643,-421.75 650,-421.75"/>
</g>
<!-- Node7&#45;&gt;Node3 -->
<g id="edge10" class="edge">
<title>Node7&#45;&gt;Node3</title>
<path fill="none" stroke="midnightblue" d="M707.19,-393.33C837.74,-375.14 1133.5,-324.1 1133.5,-235 1133.5,-235 1133.5,-235 1133.5,-121 1133.5,-75.41 1085.7,-41.62 1053.99,-24.23"/>
<polygon fill="midnightblue" stroke="midnightblue" points="1055.62,-21.13 1045.14,-19.56 1052.35,-27.32 1055.62,-21.13"/>
</g>
<!-- Node8 -->
<g id="node8" class="node">
<title>Node8</title>
<g id="a_node8"><a xlink:href="../../dd/d80/PrintStream_8hpp.html" target="_top" xlink:title=" ">
<polygon fill="white" stroke="black" points="425,-224.5 425,-243.5 598,-243.5 598,-224.5 425,-224.5"/>
<text text-anchor="middle" x="511.5" y="-231.5" font-family="Helvetica,sans-Serif" font-size="10.00">AH/PrintStream/PrintStream.hpp</text>
</a>
</g>
</g>
<!-- Node7&#45;&gt;Node8 -->
<g id="edge11" class="edge">
<title>Node7&#45;&gt;Node8</title>
<path fill="none" stroke="midnightblue" d="M616.11,-392.48C577.65,-379.75 513.85,-351.55 492.5,-300 485.98,-284.27 492.92,-265.53 500.18,-252.22"/>
<polygon fill="midnightblue" stroke="midnightblue" points="503.2,-253.99 505.33,-243.62 497.19,-250.4 503.2,-253.99"/>
</g>
<!-- Node15 -->
<g id="node15" class="node">
<title>Node15</title>
<g id="a_node15"><a xlink:href="../../d2/dd5/SettingsWrapper_8hpp.html" target="_top" xlink:title=" ">
<polygon fill="white" stroke="black" points="557.5,-336.5 557.5,-355.5 735.5,-355.5 735.5,-336.5 557.5,-336.5"/>
<text text-anchor="middle" x="646.5" y="-343.5" font-family="Helvetica,sans-Serif" font-size="10.00">AH/Settings/SettingsWrapper.hpp</text>
</a>
</g>
</g>
<!-- Node7&#45;&gt;Node15 -->
<g id="edge23" class="edge">
<title>Node7&#45;&gt;Node15</title>
<path fill="none" stroke="midnightblue" d="M641.33,-392.08C639.82,-384.93 639.39,-374.64 640.04,-365.69"/>
<polygon fill="midnightblue" stroke="midnightblue" points="643.52,-366.13 641.37,-355.75 636.58,-365.2 643.52,-366.13"/>
</g>
<!-- Node8&#45;&gt;Node3 -->
<g id="edge13" class="edge">
<title>Node8&#45;&gt;Node3</title>
<path fill="none" stroke="midnightblue" d="M573.15,-224.43C699.29,-206.34 977.56,-163.33 1007.5,-132 1033.74,-104.55 1032.62,-56.52 1029.54,-29.98"/>
<polygon fill="midnightblue" stroke="midnightblue" points="1032.96,-29.17 1028.12,-19.74 1026.03,-30.13 1032.96,-29.17"/>
</g>
<!-- Node8&#45;&gt;Node9 -->
<g id="edge12" class="edge">
<title>Node8&#45;&gt;Node9</title>
<path fill="none" stroke="midnightblue" d="M505.16,-224.08C486.26,-197.49 430.14,-118.54 405.42,-83.76"/>
<polygon fill="midnightblue" stroke="midnightblue" points="408.24,-81.69 399.59,-75.57 402.53,-85.75 408.24,-81.69"/>
</g>
<!-- Node8&#45;&gt;Node10 -->
<g id="edge14" class="edge">
<title>Node8&#45;&gt;Node10</title>
<path fill="none" stroke="midnightblue" d="M521.94,-224.32C531.65,-216.26 546.32,-204.08 558,-194.37"/>
<polygon fill="midnightblue" stroke="midnightblue" points="560.41,-196.92 565.87,-187.83 555.94,-191.53 560.41,-196.92"/>
</g>
<!-- Node11 -->
<g id="node11" class="node">
<title>Node11</title>
<g id="a_node11"><a xlink:href="../../d7/d79/MinMaxFix_8hpp.html" target="_top" xlink:title=" ">
<polygon fill="white" stroke="black" points="546.5,-112.5 546.5,-131.5 682.5,-131.5 682.5,-112.5 546.5,-112.5"/>
<text text-anchor="middle" x="614.5" y="-119.5" font-family="Helvetica,sans-Serif" font-size="10.00">AH/Math/MinMaxFix.hpp</text>
</a>
</g>
</g>
<!-- Node10&#45;&gt;Node11 -->
<g id="edge15" class="edge">
<title>Node10&#45;&gt;Node11</title>
<path fill="none" stroke="midnightblue" d="M582.77,-168.08C588.14,-160.46 596.02,-149.26 602.58,-139.94"/>
<polygon fill="midnightblue" stroke="midnightblue" points="605.45,-141.94 608.34,-131.75 599.72,-137.91 605.45,-141.94"/>
</g>
<!-- Node13 -->
<g id="node13" class="node">
<title>Node13</title>
<g id="a_node13"><a xlink:title=" ">
<polygon fill="white" stroke="#bfbfbf" points="544,-0.5 544,-19.5 607,-19.5 607,-0.5 544,-0.5"/>
<text text-anchor="middle" x="575.5" y="-7.5" font-family="Helvetica,sans-Serif" font-size="10.00">Arduino.h</text>
</a>
</g>
</g>
<!-- Node10&#45;&gt;Node13 -->
<g id="edge22" class="edge">
<title>Node10&#45;&gt;Node13</title>
<path fill="none" stroke="midnightblue" d="M565.51,-168.37C556.05,-160.17 543.06,-146.92 537.5,-132 525.69,-100.35 525.9,-87.72 537.5,-56 541.56,-44.91 549.69,-34.67 557.39,-26.76"/>
<polygon fill="midnightblue" stroke="midnightblue" points="559.97,-29.14 564.79,-19.7 555.14,-24.07 559.97,-29.14"/>
</g>
<!-- Node10&#45;&gt;Node14 -->
<g id="edge21" class="edge">
<title>Node10&#45;&gt;Node14</title>
<path fill="none" stroke="midnightblue" d="M610.73,-168.44C648.01,-159.12 707.77,-144.18 748.51,-134"/>
<polygon fill="midnightblue" stroke="midnightblue" points="749.58,-137.34 758.43,-131.52 747.88,-130.55 749.58,-137.34"/>
</g>
<!-- Node11&#45;&gt;Node3 -->
<g id="edge16" class="edge">
<title>Node11&#45;&gt;Node3</title>
<path fill="none" stroke="midnightblue" d="M636.75,-112.36C659.26,-103.53 694.99,-89.27 725.5,-76 744.83,-67.59 748.39,-62.31 768.5,-56 826.15,-37.91 893.47,-26.48 944.89,-19.66"/>
<polygon fill="midnightblue" stroke="midnightblue" points="945.48,-23.11 954.95,-18.36 944.58,-16.17 945.48,-23.11"/>
</g>
<!-- Node11&#45;&gt;Node9 -->
<g id="edge20" class="edge">
<title>Node11&#45;&gt;Node9</title>
<path fill="none" stroke="midnightblue" d="M579.48,-112.44C541.25,-103.1 479.93,-88.12 438.24,-77.93"/>
<polygon fill="midnightblue" stroke="midnightblue" points="438.9,-74.49 428.35,-75.52 437.24,-81.29 438.9,-74.49"/>
</g>
<!-- Node12 -->
<g id="node12" class="node">
<title>Node12</title>
<g id="a_node12"><a xlink:href="../../d6/d3b/FixArduinoMacros_8hpp.html" target="_top" xlink:title=" ">
<polygon fill="white" stroke="black" points="546.5,-56.5 546.5,-75.5 716.5,-75.5 716.5,-56.5 546.5,-56.5"/>
<text text-anchor="middle" x="631.5" y="-63.5" font-family="Helvetica,sans-Serif" font-size="10.00">AH/Math/FixArduinoMacros.hpp</text>
</a>
</g>
</g>
<!-- Node11&#45;&gt;Node12 -->
<g id="edge17" class="edge">
<title>Node11&#45;&gt;Node12</title>
<path fill="none" stroke="midnightblue" d="M617.31,-112.08C619.58,-104.85 622.87,-94.41 625.71,-85.4"/>
<polygon fill="midnightblue" stroke="midnightblue" points="629.08,-86.34 628.75,-75.75 622.4,-84.24 629.08,-86.34"/>
</g>
<!-- Node12&#45;&gt;Node3 -->
<g id="edge18" class="edge">
<title>Node12&#45;&gt;Node3</title>
<path fill="none" stroke="midnightblue" d="M694.09,-56.44C764.73,-46.79 879.48,-31.1 953.97,-20.92"/>
<polygon fill="midnightblue" stroke="midnightblue" points="954.77,-24.34 964.2,-19.52 953.82,-17.4 954.77,-24.34"/>
</g>
<!-- Node12&#45;&gt;Node13 -->
<g id="edge19" class="edge">
<title>Node12&#45;&gt;Node13</title>
<path fill="none" stroke="midnightblue" d="M622.5,-56.32C614.31,-48.42 601.99,-36.55 592.03,-26.94"/>
<polygon fill="midnightblue" stroke="midnightblue" points="594.29,-24.26 584.66,-19.83 589.43,-29.29 594.29,-24.26"/>
</g>
<!-- Node15&#45;&gt;Node3 -->
<g id="edge24" class="edge">
<title>Node15&#45;&gt;Node3</title>
<path fill="none" stroke="midnightblue" d="M655.78,-336.22C664.22,-327.72 676.4,-314.09 683.5,-300 722.24,-223.08 672.2,-175.4 730.5,-112 785.64,-52.03 877.83,-27.66 944.7,-17.76"/>
<polygon fill="midnightblue" stroke="midnightblue" points="945.37,-21.2 954.79,-16.35 944.4,-14.27 945.37,-21.2"/>
</g>
<!-- Node15&#45;&gt;Node7 -->
<g id="edge37" class="edge">
<title>Node15&#45;&gt;Node7</title>
<path fill="none" stroke="midnightblue" d="M651.63,-355.75C653.16,-362.86 653.6,-373.14 652.97,-382.1"/>
<polygon fill="midnightblue" stroke="midnightblue" points="649.49,-381.71 651.67,-392.08 656.43,-382.62 649.49,-381.71"/>
</g>
<!-- Node15&#45;&gt;Node9 -->
<g id="edge25" class="edge">
<title>Node15&#45;&gt;Node9</title>
<path fill="none" stroke="midnightblue" d="M578.49,-336.49C523.46,-325.51 449.82,-300.55 416.5,-244 386.54,-193.15 388.43,-119.99 391.36,-85.86"/>
<polygon fill="midnightblue" stroke="midnightblue" points="394.85,-86.17 392.35,-75.87 387.88,-85.48 394.85,-86.17"/>
</g>
<!-- Node16 -->
<g id="node16" class="node">
<title>Node16</title>
<g id="a_node16"><a xlink:href="../../db/d02/Settings_8hpp.html" target="_top" xlink:title="All user settings and debugging options can be changed here.">
<polygon fill="white" stroke="black" points="752,-280.5 752,-299.5 829,-299.5 829,-280.5 752,-280.5"/>
<text text-anchor="middle" x="790.5" y="-287.5" font-family="Helvetica,sans-Serif" font-size="10.00">Settings.hpp</text>
</a>
</g>
</g>
<!-- Node15&#45;&gt;Node16 -->
<g id="edge26" class="edge">
<title>Node15&#45;&gt;Node16</title>
<path fill="none" stroke="midnightblue" d="M669.32,-336.44C693.33,-327.44 731.33,-313.19 758.37,-303.05"/>
<polygon fill="midnightblue" stroke="midnightblue" points="759.66,-306.3 767.79,-299.52 757.2,-299.75 759.66,-306.3"/>
</g>
<!-- Node22 -->
<g id="node22" class="node">
<title>Node22</title>
<g id="a_node22"><a xlink:href="../../d9/d98/TeensyUSBTypes_8hpp.html" target="_top" xlink:title=" ">
<polygon fill="white" stroke="black" points="501,-280.5 501,-299.5 674,-299.5 674,-280.5 501,-280.5"/>
<text text-anchor="middle" x="587.5" y="-287.5" font-family="Helvetica,sans-Serif" font-size="10.00">AH/Teensy/TeensyUSBTypes.hpp</text>
</a>
</g>
</g>
<!-- Node15&#45;&gt;Node22 -->
<g id="edge36" class="edge">
<title>Node15&#45;&gt;Node22</title>
<path fill="none" stroke="midnightblue" d="M637.02,-336.32C628.3,-328.34 615.16,-316.31 604.6,-306.65"/>
<polygon fill="midnightblue" stroke="midnightblue" points="606.89,-304 597.15,-299.83 602.17,-309.17 606.89,-304"/>
</g>
<!-- Node17 -->
<g id="node17" class="node">
<title>Node17</title>
<g id="a_node17"><a xlink:href="../../dc/d50/Frequency_8hpp.html" target="_top" xlink:title=" ">
<polygon fill="white" stroke="black" points="864.5,-112.5 864.5,-131.5 998.5,-131.5 998.5,-112.5 864.5,-112.5"/>
<text text-anchor="middle" x="931.5" y="-119.5" font-family="Helvetica,sans-Serif" font-size="10.00">AH/Types/Frequency.hpp</text>
</a>
</g>
</g>
<!-- Node16&#45;&gt;Node17 -->
<g id="edge27" class="edge">
<title>Node16&#45;&gt;Node17</title>
<path fill="none" stroke="midnightblue" d="M795.07,-280.16C801.95,-267.25 815.72,-242.72 830.5,-224 856.69,-190.84 892.76,-157.08 913.95,-138.21"/>
<polygon fill="midnightblue" stroke="midnightblue" points="916.36,-140.75 921.55,-131.52 911.73,-135.5 916.36,-140.75"/>
</g>
<!-- Node18 -->
<g id="node18" class="node">
<title>Node18</title>
<g id="a_node18"><a xlink:href="../../d7/d7c/ADCConfig_8hpp.html" target="_top" xlink:title="This file contains the platform&#45;specific ADC resolutions.">
<polygon fill="white" stroke="black" points="839,-224.5 839,-243.5 996,-243.5 996,-224.5 839,-224.5"/>
<text text-anchor="middle" x="917.5" y="-231.5" font-family="Helvetica,sans-Serif" font-size="10.00">AH/Hardware/ADCConfig.hpp</text>
</a>
</g>
</g>
<!-- Node16&#45;&gt;Node18 -->
<g id="edge30" class="edge">
<title>Node16&#45;&gt;Node18</title>
<path fill="none" stroke="midnightblue" d="M810.62,-280.44C831.52,-271.56 864.43,-257.56 888.22,-247.45"/>
<polygon fill="midnightblue" stroke="midnightblue" points="889.64,-250.65 897.47,-243.52 886.9,-244.21 889.64,-250.65"/>
</g>
<!-- Node19 -->
<g id="node19" class="node">
<title>Node19</title>
<g id="a_node19"><a xlink:title=" ">
<polygon fill="white" stroke="#bfbfbf" points="729,-224.5 729,-243.5 782,-243.5 782,-224.5 729,-224.5"/>
<text text-anchor="middle" x="755.5" y="-231.5" font-family="Helvetica,sans-Serif" font-size="10.00">limits.h</text>
</a>
</g>
</g>
<!-- Node16&#45;&gt;Node19 -->
<g id="edge33" class="edge">
<title>Node16&#45;&gt;Node19</title>
<path fill="none" stroke="midnightblue" d="M784.72,-280.08C779.83,-272.53 772.67,-261.49 766.67,-252.23"/>
<polygon fill="midnightblue" stroke="midnightblue" points="769.55,-250.24 761.17,-243.75 763.67,-254.05 769.55,-250.24"/>
</g>
<!-- Node16&#45;&gt;Node20 -->
<g id="edge34" class="edge">
<title>Node16&#45;&gt;Node20</title>
<path fill="none" stroke="midnightblue" d="M767.37,-280.44C743.02,-271.44 704.49,-257.19 677.08,-247.05"/>
<polygon fill="midnightblue" stroke="midnightblue" points="678.12,-243.7 667.53,-243.52 675.69,-250.27 678.12,-243.7"/>
</g>
<!-- Node16&#45;&gt;Node21 -->
<g id="edge35" class="edge">
<title>Node16&#45;&gt;Node21</title>
<path fill="none" stroke="midnightblue" d="M829.07,-281.48C870.16,-273.34 937.36,-259.68 1003.96,-244.29"/>
<polygon fill="midnightblue" stroke="midnightblue" points="1004.83,-247.68 1013.78,-242 1003.24,-240.86 1004.83,-247.68"/>
</g>
<!-- Node17&#45;&gt;Node3 -->
<g id="edge28" class="edge">
<title>Node17&#45;&gt;Node3</title>
<path fill="none" stroke="midnightblue" d="M938.95,-112.37C954.77,-94.05 991.91,-51.05 1012.37,-27.36"/>
<polygon fill="midnightblue" stroke="midnightblue" points="1015.19,-29.45 1019.08,-19.59 1009.9,-24.87 1015.19,-29.45"/>
</g>
<!-- Node17&#45;&gt;Node9 -->
<g id="edge29" class="edge">
<title>Node17&#45;&gt;Node9</title>
<path fill="none" stroke="midnightblue" d="M864.37,-112.97C861.37,-112.64 858.41,-112.31 855.5,-112 732.39,-98.72 590.63,-85.17 496.96,-76.46"/>
<polygon fill="midnightblue" stroke="midnightblue" points="497.19,-72.96 486.91,-75.52 496.55,-79.93 497.19,-72.96"/>
</g>
<!-- Node18&#45;&gt;Node3 -->
<g id="edge31" class="edge">
<title>Node18&#45;&gt;Node3</title>
<path fill="none" stroke="midnightblue" d="M936.06,-224.43C964.73,-210.03 1018.77,-177.96 1040.5,-132 1056.4,-98.36 1043.83,-53.8 1034.41,-29.22"/>
<polygon fill="midnightblue" stroke="midnightblue" points="1037.56,-27.66 1030.54,-19.73 1031.08,-30.31 1037.56,-27.66"/>
</g>
<!-- Node18&#45;&gt;Node10 -->
<g id="edge32" class="edge">
<title>Node18&#45;&gt;Node10</title>
<path fill="none" stroke="midnightblue" d="M863.47,-224.44C802.86,-214.85 704.64,-199.29 640.3,-189.1"/>
<polygon fill="midnightblue" stroke="midnightblue" points="640.7,-185.62 630.28,-187.52 639.61,-192.54 640.7,-185.62"/>
</g>
<!-- Node24&#45;&gt;Node3 -->
<g id="edge46" class="edge">
<title>Node24&#45;&gt;Node3</title>
<path fill="none" stroke="midnightblue" d="M150.46,-112.49C170.05,-97.84 212.92,-68.24 254.5,-56 319.32,-36.92 759.62,-20.02 944.75,-13.67"/>
<polygon fill="midnightblue" stroke="midnightblue" points="945.1,-17.16 954.98,-13.32 944.86,-10.16 945.1,-17.16"/>
</g>
<!-- Node24&#45;&gt;Node9 -->
<g id="edge47" class="edge">
<title>Node24&#45;&gt;Node9</title>
<path fill="none" stroke="midnightblue" d="M179.75,-112.44C224.15,-103 295.65,-87.8 343.59,-77.61"/>
<polygon fill="midnightblue" stroke="midnightblue" points="344.39,-81.02 353.44,-75.52 342.93,-74.17 344.39,-81.02"/>
</g>
<!-- Node25 -->
<g id="node25" class="node">
<title>Node25</title>
<g id="a_node25"><a xlink:title=" ">
<polygon fill="white" stroke="#bfbfbf" points="97.5,-56.5 97.5,-75.5 187.5,-75.5 187.5,-56.5 97.5,-56.5"/>
<text text-anchor="middle" x="142.5" y="-63.5" font-family="Helvetica,sans-Serif" font-size="10.00">AH/STL/cstddef</text>
</a>
</g>
</g>
<!-- Node24&#45;&gt;Node25 -->
<g id="edge44" class="edge">
<title>Node24&#45;&gt;Node25</title>
<path fill="none" stroke="midnightblue" d="M140,-112.08C140.39,-105.01 140.95,-94.86 141.45,-85.99"/>
<polygon fill="midnightblue" stroke="midnightblue" points="144.95,-85.93 142.01,-75.75 137.96,-85.54 144.95,-85.93"/>
</g>
<!-- Node26 -->
<g id="node26" class="node">
<title>Node26</title>
<g id="a_node26"><a xlink:title=" ">
<polygon fill="white" stroke="#bfbfbf" points="0,-56.5 0,-75.5 79,-75.5 79,-56.5 0,-56.5"/>
<text text-anchor="middle" x="39.5" y="-63.5" font-family="Helvetica,sans-Serif" font-size="10.00">AH/STL/tuple</text>
</a>
</g>
</g>
<!-- Node24&#45;&gt;Node26 -->
<g id="edge45" class="edge">
<title>Node24&#45;&gt;Node26</title>
<path fill="none" stroke="midnightblue" d="M123.43,-112.32C107.54,-103.74 82.99,-90.49 64.54,-80.52"/>
<polygon fill="midnightblue" stroke="midnightblue" points="65.99,-77.33 55.53,-75.65 62.66,-83.49 65.99,-77.33"/>
</g>
</g>
</svg>
