<?xml version="1.0" encoding="UTF-8" standalone="no"?>
<!DOCTYPE svg PUBLIC "-//W3C//DTD SVG 1.1//EN"
 "http://www.w3.org/Graphics/SVG/1.1/DTD/svg11.dtd">
<!-- Generated by graphviz version 2.43.0 (0)
 -->
<!-- Title: ArrayHelpers.hpp Pages: 1 -->
<svg width="888pt" height="252pt"
 viewBox="0.00 0.00 887.50 252.00" xmlns="http://www.w3.org/2000/svg" xmlns:xlink="http://www.w3.org/1999/xlink">
<g id="graph0" class="graph" transform="scale(1 1) rotate(0) translate(4 248)">
<title>ArrayHelpers.hpp</title>
<polygon fill="white" stroke="transparent" points="-4,4 -4,-248 883.5,-248 883.5,4 -4,4"/>
<!-- Node1 -->
<g id="node1" class="node">
<title>Node1</title>
<g id="a_node1"><a xlink:title=" ">
<polygon fill="#bfbfbf" stroke="black" points="119,-224.5 119,-243.5 220,-243.5 220,-224.5 119,-224.5"/>
<text text-anchor="middle" x="169.5" y="-231.5" font-family="Helvetica,sans-Serif" font-size="10.00">ArrayHelpers.hpp</text>
</a>
</g>
</g>
<!-- Node2 -->
<g id="node2" class="node">
<title>Node2</title>
<g id="a_node2"><a xlink:href="../../df/ddc/SOSFilter_8hpp.html" target="_top" xlink:title=" ">
<polygon fill="white" stroke="black" points="54,-168.5 54,-187.5 135,-187.5 135,-168.5 54,-168.5"/>
<text text-anchor="middle" x="94.5" y="-175.5" font-family="Helvetica,sans-Serif" font-size="10.00">SOSFilter.hpp</text>
</a>
</g>
</g>
<!-- Node1&#45;&gt;Node2 -->
<g id="edge1" class="edge">
<title>Node1&#45;&gt;Node2</title>
<path fill="none" stroke="midnightblue" d="M149.19,-218.38C135.64,-208.62 118.26,-196.11 106.77,-187.83"/>
<polygon fill="midnightblue" stroke="midnightblue" points="147.29,-221.32 157.45,-224.32 151.38,-215.64 147.29,-221.32"/>
</g>
<!-- Node4 -->
<g id="node4" class="node">
<title>Node4</title>
<g id="a_node4"><a xlink:href="../../d2/d05/StaticSizeExtendedIOElement_8hpp.html" target="_top" xlink:title=" ">
<polygon fill="white" stroke="black" points="199.5,-168.5 199.5,-187.5 381.5,-187.5 381.5,-168.5 199.5,-168.5"/>
<text text-anchor="middle" x="290.5" y="-175.5" font-family="Helvetica,sans-Serif" font-size="10.00">StaticSizeExtendedIOElement.hpp</text>
</a>
</g>
</g>
<!-- Node1&#45;&gt;Node4 -->
<g id="edge3" class="edge">
<title>Node1&#45;&gt;Node4</title>
<path fill="none" stroke="midnightblue" d="M197.81,-220.37C220.47,-210.26 251.63,-196.35 271.42,-187.52"/>
<polygon fill="midnightblue" stroke="midnightblue" points="196.38,-217.17 188.67,-224.44 199.23,-223.56 196.38,-217.17"/>
</g>
<!-- Node3 -->
<g id="node3" class="node">
<title>Node3</title>
<g id="a_node3"><a xlink:href="../../d4/d40/Butterworth_8hpp.html" target="_top" xlink:title=" ">
<polygon fill="white" stroke="black" points="0,-112.5 0,-131.5 95,-131.5 95,-112.5 0,-112.5"/>
<text text-anchor="middle" x="47.5" y="-119.5" font-family="Helvetica,sans-Serif" font-size="10.00">Butterworth.hpp</text>
</a>
</g>
</g>
<!-- Node2&#45;&gt;Node3 -->
<g id="edge2" class="edge">
<title>Node2&#45;&gt;Node3</title>
<path fill="none" stroke="midnightblue" d="M80.08,-160.43C71.84,-150.97 61.85,-139.48 55.12,-131.75"/>
<polygon fill="midnightblue" stroke="midnightblue" points="77.53,-162.84 86.74,-168.08 82.81,-158.24 77.53,-162.84"/>
</g>
<!-- Node5 -->
<g id="node5" class="node">
<title>Node5</title>
<g id="a_node5"><a xlink:href="../../d7/def/AnalogMultiplex_8hpp.html" target="_top" xlink:title=" ">
<polygon fill="white" stroke="black" points="113,-112.5 113,-131.5 230,-131.5 230,-112.5 113,-112.5"/>
<text text-anchor="middle" x="171.5" y="-119.5" font-family="Helvetica,sans-Serif" font-size="10.00">AnalogMultiplex.hpp</text>
</a>
</g>
</g>
<!-- Node4&#45;&gt;Node5 -->
<g id="edge4" class="edge">
<title>Node4&#45;&gt;Node5</title>
<path fill="none" stroke="midnightblue" d="M262.36,-164.23C240.1,-154.13 209.64,-140.31 190.27,-131.52"/>
<polygon fill="midnightblue" stroke="midnightblue" points="261.09,-167.5 271.64,-168.44 263.98,-161.12 261.09,-167.5"/>
</g>
<!-- Node6 -->
<g id="node6" class="node">
<title>Node6</title>
<g id="a_node6"><a xlink:href="../../d2/d25/MAX7219_8hpp.html" target="_top" xlink:title=" ">
<polygon fill="white" stroke="black" points="248.5,-112.5 248.5,-131.5 332.5,-131.5 332.5,-112.5 248.5,-112.5"/>
<text text-anchor="middle" x="290.5" y="-119.5" font-family="Helvetica,sans-Serif" font-size="10.00">MAX7219.hpp</text>
</a>
</g>
</g>
<!-- Node4&#45;&gt;Node6 -->
<g id="edge5" class="edge">
<title>Node4&#45;&gt;Node6</title>
<path fill="none" stroke="midnightblue" d="M290.5,-157.8C290.5,-148.91 290.5,-138.78 290.5,-131.75"/>
<polygon fill="midnightblue" stroke="midnightblue" points="287,-158.08 290.5,-168.08 294,-158.08 287,-158.08"/>
</g>
<!-- Node7 -->
<g id="node7" class="node">
<title>Node7</title>
<g id="a_node7"><a xlink:href="../../d7/dca/MCP23017_8hpp.html" target="_top" xlink:title=" ">
<polygon fill="white" stroke="black" points="350,-112.5 350,-131.5 439,-131.5 439,-112.5 350,-112.5"/>
<text text-anchor="middle" x="394.5" y="-119.5" font-family="Helvetica,sans-Serif" font-size="10.00">MCP23017.hpp</text>
</a>
</g>
</g>
<!-- Node4&#45;&gt;Node7 -->
<g id="edge6" class="edge">
<title>Node4&#45;&gt;Node7</title>
<path fill="none" stroke="midnightblue" d="M316.33,-163.59C335.56,-153.61 361.24,-140.27 377.83,-131.65"/>
<polygon fill="midnightblue" stroke="midnightblue" points="314.47,-160.61 307.21,-168.32 317.7,-166.82 314.47,-160.61"/>
</g>
<!-- Node9 -->
<g id="node9" class="node">
<title>Node9</title>
<g id="a_node9"><a xlink:href="../../d8/d93/ShiftRegisterOutBase_8hpp.html" target="_top" xlink:title=" ">
<polygon fill="white" stroke="black" points="594,-112.5 594,-131.5 735,-131.5 735,-112.5 594,-112.5"/>
<text text-anchor="middle" x="664.5" y="-119.5" font-family="Helvetica,sans-Serif" font-size="10.00">ShiftRegisterOutBase.hpp</text>
</a>
</g>
</g>
<!-- Node4&#45;&gt;Node9 -->
<g id="edge9" class="edge">
<title>Node4&#45;&gt;Node9</title>
<path fill="none" stroke="midnightblue" d="M359.9,-166.98C430.55,-156.78 538.88,-141.14 605.52,-131.52"/>
<polygon fill="midnightblue" stroke="midnightblue" points="359.16,-163.55 349.76,-168.44 360.16,-170.48 359.16,-163.55"/>
</g>
<!-- Node8 -->
<g id="node8" class="node">
<title>Node8</title>
<g id="a_node8"><a xlink:href="../../d2/d94/MCP23017_8ipp.html" target="_top" xlink:title=" ">
<polygon fill="white" stroke="black" points="351.5,-56.5 351.5,-75.5 437.5,-75.5 437.5,-56.5 351.5,-56.5"/>
<text text-anchor="middle" x="394.5" y="-63.5" font-family="Helvetica,sans-Serif" font-size="10.00">MCP23017.ipp</text>
</a>
</g>
</g>
<!-- Node7&#45;&gt;Node8 -->
<g id="edge7" class="edge">
<title>Node7&#45;&gt;Node8</title>
<path fill="none" stroke="midnightblue" d="M388.03,-102.1C387.4,-93.14 387.84,-82.86 389.37,-75.75"/>
<polygon fill="midnightblue" stroke="midnightblue" points="384.57,-102.62 389.33,-112.08 391.51,-101.71 384.57,-102.62"/>
</g>
<!-- Node8&#45;&gt;Node7 -->
<g id="edge8" class="edge">
<title>Node8&#45;&gt;Node7</title>
<path fill="none" stroke="midnightblue" d="M400.96,-85.69C401.61,-94.64 401.18,-104.93 399.67,-112.08"/>
<polygon fill="midnightblue" stroke="midnightblue" points="404.42,-85.2 399.63,-75.75 397.48,-86.13 404.42,-85.2"/>
</g>
<!-- Node10 -->
<g id="node10" class="node">
<title>Node10</title>
<g id="a_node10"><a xlink:href="../../d7/d88/SPIShiftRegisterOut_8hpp.html" target="_top" xlink:title=" ">
<polygon fill="white" stroke="black" points="455.5,-56.5 455.5,-75.5 587.5,-75.5 587.5,-56.5 455.5,-56.5"/>
<text text-anchor="middle" x="521.5" y="-63.5" font-family="Helvetica,sans-Serif" font-size="10.00">SPIShiftRegisterOut.hpp</text>
</a>
</g>
</g>
<!-- Node9&#45;&gt;Node10 -->
<g id="edge10" class="edge">
<title>Node9&#45;&gt;Node10</title>
<path fill="none" stroke="midnightblue" d="M632.47,-108.91C605.59,-98.75 567.86,-84.51 544.05,-75.52"/>
<polygon fill="midnightblue" stroke="midnightblue" points="631.25,-112.19 641.84,-112.44 633.72,-105.64 631.25,-112.19"/>
</g>
<!-- Node12 -->
<g id="node12" class="node">
<title>Node12</title>
<g id="a_node12"><a xlink:href="../../d0/db4/ShiftRegisterOut_8hpp.html" target="_top" xlink:title=" ">
<polygon fill="white" stroke="black" points="606,-56.5 606,-75.5 723,-75.5 723,-56.5 606,-56.5"/>
<text text-anchor="middle" x="664.5" y="-63.5" font-family="Helvetica,sans-Serif" font-size="10.00">ShiftRegisterOut.hpp</text>
</a>
</g>
</g>
<!-- Node9&#45;&gt;Node12 -->
<g id="edge13" class="edge">
<title>Node9&#45;&gt;Node12</title>
<path fill="none" stroke="midnightblue" d="M664.5,-101.8C664.5,-92.91 664.5,-82.78 664.5,-75.75"/>
<polygon fill="midnightblue" stroke="midnightblue" points="661,-102.08 664.5,-112.08 668,-102.08 661,-102.08"/>
</g>
<!-- Node14 -->
<g id="node14" class="node">
<title>Node14</title>
<g id="a_node14"><a xlink:href="../../d5/d47/ShiftRegisterOutBase_8ipp.html" target="_top" xlink:title=" ">
<polygon fill="white" stroke="black" points="741.5,-56.5 741.5,-75.5 879.5,-75.5 879.5,-56.5 741.5,-56.5"/>
<text text-anchor="middle" x="810.5" y="-63.5" font-family="Helvetica,sans-Serif" font-size="10.00">ShiftRegisterOutBase.ipp</text>
</a>
</g>
</g>
<!-- Node9&#45;&gt;Node14 -->
<g id="edge16" class="edge">
<title>Node9&#45;&gt;Node14</title>
<path fill="none" stroke="midnightblue" d="M692.15,-108.64C718.05,-98.5 756.34,-84.43 782.39,-75.52"/>
<polygon fill="midnightblue" stroke="midnightblue" points="690.55,-105.5 682.55,-112.44 693.13,-112.01 690.55,-105.5"/>
</g>
<!-- Node11 -->
<g id="node11" class="node">
<title>Node11</title>
<g id="a_node11"><a xlink:href="../../da/d45/SPIShiftRegisterOut_8ipp.html" target="_top" xlink:title=" ">
<polygon fill="white" stroke="black" points="457,-0.5 457,-19.5 586,-19.5 586,-0.5 457,-0.5"/>
<text text-anchor="middle" x="521.5" y="-7.5" font-family="Helvetica,sans-Serif" font-size="10.00">SPIShiftRegisterOut.ipp</text>
</a>
</g>
</g>
<!-- Node10&#45;&gt;Node11 -->
<g id="edge11" class="edge">
<title>Node10&#45;&gt;Node11</title>
<path fill="none" stroke="midnightblue" d="M515.03,-46.1C514.4,-37.14 514.84,-26.86 516.37,-19.75"/>
<polygon fill="midnightblue" stroke="midnightblue" points="511.57,-46.62 516.33,-56.08 518.51,-45.71 511.57,-46.62"/>
</g>
<!-- Node11&#45;&gt;Node10 -->
<g id="edge12" class="edge">
<title>Node11&#45;&gt;Node10</title>
<path fill="none" stroke="midnightblue" d="M527.96,-29.69C528.61,-38.64 528.18,-48.93 526.67,-56.08"/>
<polygon fill="midnightblue" stroke="midnightblue" points="531.42,-29.2 526.63,-19.75 524.48,-30.13 531.42,-29.2"/>
</g>
<!-- Node13 -->
<g id="node13" class="node">
<title>Node13</title>
<g id="a_node13"><a xlink:href="../../de/d95/ShiftRegisterOut_8ipp.html" target="_top" xlink:title=" ">
<polygon fill="white" stroke="black" points="607.5,-0.5 607.5,-19.5 721.5,-19.5 721.5,-0.5 607.5,-0.5"/>
<text text-anchor="middle" x="664.5" y="-7.5" font-family="Helvetica,sans-Serif" font-size="10.00">ShiftRegisterOut.ipp</text>
</a>
</g>
</g>
<!-- Node12&#45;&gt;Node13 -->
<g id="edge14" class="edge">
<title>Node12&#45;&gt;Node13</title>
<path fill="none" stroke="midnightblue" d="M658.03,-46.1C657.4,-37.14 657.84,-26.86 659.37,-19.75"/>
<polygon fill="midnightblue" stroke="midnightblue" points="654.57,-46.62 659.33,-56.08 661.51,-45.71 654.57,-46.62"/>
</g>
<!-- Node13&#45;&gt;Node12 -->
<g id="edge15" class="edge">
<title>Node13&#45;&gt;Node12</title>
<path fill="none" stroke="midnightblue" d="M670.96,-29.69C671.61,-38.64 671.18,-48.93 669.67,-56.08"/>
<polygon fill="midnightblue" stroke="midnightblue" points="674.42,-29.2 669.63,-19.75 667.48,-30.13 674.42,-29.2"/>
</g>
<!-- Node14&#45;&gt;Node9 -->
<g id="edge17" class="edge">
<title>Node14&#45;&gt;Node9</title>
<path fill="none" stroke="midnightblue" d="M782.97,-79.32C757.11,-89.44 718.82,-103.52 692.72,-112.44"/>
<polygon fill="midnightblue" stroke="midnightblue" points="784.55,-82.46 792.55,-75.52 781.97,-75.95 784.55,-82.46"/>
</g>
</g>
</svg>
