<?xml version="1.0" encoding="UTF-8" standalone="no"?>
<!DOCTYPE svg PUBLIC "-//W3C//DTD SVG 1.1//EN"
 "http://www.w3.org/Graphics/SVG/1.1/DTD/svg11.dtd">
<!-- Generated by graphviz version 2.40.1 (20161225.0304)
 -->
<!-- Title: vector.cpp Pages: 1 -->
<svg width="902pt" height="554pt"
 viewBox="0.00 0.00 902.00 554.00" xmlns="http://www.w3.org/2000/svg" xmlns:xlink="http://www.w3.org/1999/xlink">
<g id="graph0" class="graph" transform="scale(1 1) rotate(0) translate(4 550)">
<title>vector.cpp</title>
<polygon fill="#ffffff" stroke="transparent" points="-4,4 -4,-550 898,-550 898,4 -4,4"/>
<!-- Node1 -->
<g id="node1" class="node">
<title>Node1</title>
<g id="a_node1"><a xlink:title=" ">
<polygon fill="#bfbfbf" stroke="#000000" points="526,-526.5 526,-545.5 588,-545.5 588,-526.5 526,-526.5"/>
<text text-anchor="middle" x="557" y="-533.5" font-family="Helvetica,sans-Serif" font-size="10.00" fill="#000000">vector.cpp</text>
</a>
</g>
</g>
<!-- Node2 -->
<g id="node2" class="node">
<title>Node2</title>
<g id="a_node2"><a xlink:title=" ">
<polygon fill="#ffffff" stroke="#bfbfbf" points="363,-459.5 363,-478.5 407,-478.5 407,-459.5 363,-459.5"/>
<text text-anchor="middle" x="385" y="-466.5" font-family="Helvetica,sans-Serif" font-size="10.00" fill="#000000">vector</text>
</a>
</g>
</g>
<!-- Node1&#45;&gt;Node2 -->
<g id="edge1" class="edge">
<title>Node1&#45;&gt;Node2</title>
<path fill="none" stroke="#191970" d="M525.7776,-528.5135C496.5422,-520.8833 452.0749,-507.6663 416,-490 412.5883,-488.3293 409.1189,-486.3271 405.7959,-484.2317"/>
<polygon fill="#191970" stroke="#191970" points="407.731,-481.3152 397.4817,-478.6316 403.8204,-487.1211 407.731,-481.3152"/>
</g>
<!-- Node3 -->
<g id="node3" class="node">
<title>Node3</title>
<g id="a_node3"><a xlink:title=" ">
<polygon fill="#ffffff" stroke="#bfbfbf" points="425,-448.5 425,-489.5 529,-489.5 529,-448.5 425,-448.5"/>
<text text-anchor="start" x="433" y="-477.5" font-family="Helvetica,sans-Serif" font-size="10.00" fill="#000000">/home/pieter/GitHub</text>
<text text-anchor="start" x="433" y="-466.5" font-family="Helvetica,sans-Serif" font-size="10.00" fill="#000000">/Arduino&#45;Filters/src</text>
<text text-anchor="middle" x="477" y="-455.5" font-family="Helvetica,sans-Serif" font-size="10.00" fill="#000000">/AH/STL/vector</text>
</a>
</g>
</g>
<!-- Node1&#45;&gt;Node3 -->
<g id="edge2" class="edge">
<title>Node1&#45;&gt;Node3</title>
<path fill="none" stroke="#191970" d="M545.538,-526.4005C536.0924,-518.4899 522.2168,-506.869 509.4166,-496.1489"/>
<polygon fill="#191970" stroke="#191970" points="511.5487,-493.3692 501.6349,-489.6318 507.0542,-498.7358 511.5487,-493.3692"/>
</g>
<!-- Node4 -->
<g id="node4" class="node">
<title>Node4</title>
<g id="a_node4"><a xlink:title=" ">
<polygon fill="#ffffff" stroke="#bfbfbf" points="547,-459.5 547,-478.5 727,-478.5 727,-459.5 547,-459.5"/>
<text text-anchor="middle" x="637" y="-466.5" font-family="Helvetica,sans-Serif" font-size="10.00" fill="#000000">AH/Settings/NamespaceSettings.hpp</text>
</a>
</g>
</g>
<!-- Node1&#45;&gt;Node4 -->
<g id="edge3" class="edge">
<title>Node1&#45;&gt;Node4</title>
<path fill="none" stroke="#191970" d="M568.462,-526.4005C581.2938,-515.6539 602.3011,-498.0603 617.6813,-485.1794"/>
<polygon fill="#191970" stroke="#191970" points="620.14,-487.6856 625.5592,-478.5817 615.6455,-482.3191 620.14,-487.6856"/>
</g>
<!-- Node5 -->
<g id="node5" class="node">
<title>Node5</title>
<g id="a_node5"><a xlink:href="../../d1/d93/Error_8hpp.html" target="_top" xlink:title=" ">
<polygon fill="#ffffff" stroke="#000000" points="745,-459.5 745,-478.5 843,-478.5 843,-459.5 745,-459.5"/>
<text text-anchor="middle" x="794" y="-466.5" font-family="Helvetica,sans-Serif" font-size="10.00" fill="#000000">AH/Error/Error.hpp</text>
</a>
</g>
</g>
<!-- Node1&#45;&gt;Node5 -->
<g id="edge4" class="edge">
<title>Node1&#45;&gt;Node5</title>
<path fill="none" stroke="#191970" d="M588.297,-528.9182C624.2268,-520.5666 684.8009,-505.8076 736,-490 743.7703,-487.6009 752.0342,-484.7773 759.8152,-481.9922"/>
<polygon fill="#191970" stroke="#191970" points="761.1431,-485.2335 769.3393,-478.5197 758.7453,-478.6569 761.1431,-485.2335"/>
</g>
<!-- Node6 -->
<g id="node6" class="node">
<title>Node6</title>
<g id="a_node6"><a xlink:href="../../d1/d65/Warnings_8hpp.html" target="_top" xlink:title=" ">
<polygon fill="#ffffff" stroke="#000000" points="552.5,-.5 552.5,-19.5 685.5,-19.5 685.5,-.5 552.5,-.5"/>
<text text-anchor="middle" x="619" y="-7.5" font-family="Helvetica,sans-Serif" font-size="10.00" fill="#000000">AH/Settings/Warnings.hpp</text>
</a>
</g>
</g>
<!-- Node5&#45;&gt;Node6 -->
<g id="edge5" class="edge">
<title>Node5&#45;&gt;Node6</title>
<path fill="none" stroke="#191970" d="M810.0667,-459.4043C838.3344,-441.1619 894,-398.5652 894,-346 894,-346 894,-346 894,-122 894,-72.7548 849.5491,-76.9873 805,-56 770.2163,-39.6132 728.9235,-28.6462 694.0911,-21.5456"/>
<polygon fill="#191970" stroke="#191970" points="694.465,-18.0521 683.9772,-19.5544 693.1127,-24.9203 694.465,-18.0521"/>
</g>
<!-- Node7 -->
<g id="node7" class="node">
<title>Node7</title>
<g id="a_node7"><a xlink:href="../../df/dee/Debug_8hpp.html" target="_top" xlink:title=" ">
<polygon fill="#ffffff" stroke="#000000" points="637.5,-392.5 637.5,-411.5 750.5,-411.5 750.5,-392.5 637.5,-392.5"/>
<text text-anchor="middle" x="694" y="-399.5" font-family="Helvetica,sans-Serif" font-size="10.00" fill="#000000">AH/Debug/Debug.hpp</text>
</a>
</g>
</g>
<!-- Node5&#45;&gt;Node7 -->
<g id="edge6" class="edge">
<title>Node5&#45;&gt;Node7</title>
<path fill="none" stroke="#191970" d="M779.6724,-459.4005C763.2615,-448.4052 736.1525,-430.2422 716.8249,-417.2927"/>
<polygon fill="#191970" stroke="#191970" points="718.5569,-414.2402 708.301,-411.5817 714.6605,-420.0556 718.5569,-414.2402"/>
</g>
<!-- Node7&#45;&gt;Node6 -->
<g id="edge7" class="edge">
<title>Node7&#45;&gt;Node6</title>
<path fill="none" stroke="#191970" d="M735.719,-392.4948C783.7185,-378.7992 856,-348.4685 856,-290 856,-290 856,-290 856,-122 856,-80.522 735.8369,-41.327 666.6353,-22.1938"/>
<polygon fill="#191970" stroke="#191970" points="667.3838,-18.7702 656.8154,-19.5186 665.5438,-25.5241 667.3838,-18.7702"/>
</g>
<!-- Node8 -->
<g id="node8" class="node">
<title>Node8</title>
<g id="a_node8"><a xlink:href="../../dd/d80/PrintStream_8hpp.html" target="_top" xlink:title=" ">
<polygon fill="#ffffff" stroke="#000000" points="669.5,-224.5 669.5,-243.5 828.5,-243.5 828.5,-224.5 669.5,-224.5"/>
<text text-anchor="middle" x="749" y="-231.5" font-family="Helvetica,sans-Serif" font-size="10.00" fill="#000000">AH/PrintStream/PrintStream.hpp</text>
</a>
</g>
</g>
<!-- Node7&#45;&gt;Node8 -->
<g id="edge8" class="edge">
<title>Node7&#45;&gt;Node8</title>
<path fill="none" stroke="#191970" d="M703.9598,-392.3945C712.3247,-383.7066 723.866,-370.1413 730,-356 744.6543,-322.216 748.1969,-278.8344 748.9418,-253.9503"/>
<polygon fill="#191970" stroke="#191970" points="752.4467,-253.6894 749.1183,-243.631 745.4477,-253.5697 752.4467,-253.6894"/>
</g>
<!-- Node15 -->
<g id="node15" class="node">
<title>Node15</title>
<g id="a_node15"><a xlink:href="../../d2/dd5/SettingsWrapper_8hpp.html" target="_top" xlink:title=" ">
<polygon fill="#ffffff" stroke="#000000" points="557,-336.5 557,-355.5 721,-355.5 721,-336.5 557,-336.5"/>
<text text-anchor="middle" x="639" y="-343.5" font-family="Helvetica,sans-Serif" font-size="10.00" fill="#000000">AH/Settings/SettingsWrapper.hpp</text>
</a>
</g>
</g>
<!-- Node7&#45;&gt;Node15 -->
<g id="edge19" class="edge">
<title>Node7&#45;&gt;Node15</title>
<path fill="none" stroke="#191970" d="M679.1529,-392.2455C669.81,-384.2958 658.2453,-372.8706 649.7582,-363.3656"/>
<polygon fill="#191970" stroke="#191970" points="652.3559,-361.017 643.2253,-355.6427 647.0115,-365.5379 652.3559,-361.017"/>
</g>
<!-- Node23 -->
<g id="node23" class="node">
<title>Node23</title>
<g id="a_node23"><a xlink:href="../../d7/d52/DebugVal_8hpp.html" target="_top" xlink:title=" ">
<polygon fill="#ffffff" stroke="#000000" points="461,-336.5 461,-355.5 539,-355.5 539,-336.5 461,-336.5"/>
<text text-anchor="middle" x="500" y="-343.5" font-family="Helvetica,sans-Serif" font-size="10.00" fill="#000000">DebugVal.hpp</text>
</a>
</g>
</g>
<!-- Node7&#45;&gt;Node23 -->
<g id="edge34" class="edge">
<title>Node7&#45;&gt;Node23</title>
<path fill="none" stroke="#191970" d="M660.6502,-392.3733C627.972,-382.9404 578.0382,-368.5265 542.523,-358.2747"/>
<polygon fill="#191970" stroke="#191970" points="543.493,-354.9119 532.9146,-355.5011 541.5516,-361.6373 543.493,-354.9119"/>
</g>
<!-- Node8&#45;&gt;Node6 -->
<g id="edge9" class="edge">
<title>Node8&#45;&gt;Node6</title>
<path fill="none" stroke="#191970" d="M744.7816,-224.3697C732.637,-197.0303 695.8999,-116.9767 656,-56 649.5185,-46.0946 641.3539,-35.7637 634.3444,-27.4076"/>
<polygon fill="#191970" stroke="#191970" points="636.9893,-25.1152 627.825,-19.7986 631.6736,-29.6697 636.9893,-25.1152"/>
</g>
<!-- Node9 -->
<g id="node9" class="node">
<title>Node9</title>
<g id="a_node9"><a xlink:href="../../d6/ddf/Arduino-Wrapper_8h.html" target="_top" xlink:title=" ">
<polygon fill="#ffffff" stroke="#000000" points="482.5,-168.5 482.5,-187.5 597.5,-187.5 597.5,-168.5 482.5,-168.5"/>
<text text-anchor="middle" x="540" y="-175.5" font-family="Helvetica,sans-Serif" font-size="10.00" fill="#000000">AH/Arduino&#45;Wrapper.h</text>
</a>
</g>
</g>
<!-- Node8&#45;&gt;Node9 -->
<g id="edge10" class="edge">
<title>Node8&#45;&gt;Node9</title>
<path fill="none" stroke="#191970" d="M713.0716,-224.3733C677.7163,-214.9001 623.612,-200.4032 585.3212,-190.1435"/>
<polygon fill="#191970" stroke="#191970" points="586.0247,-186.7086 575.4595,-187.5011 584.213,-193.4701 586.0247,-186.7086"/>
</g>
<!-- Node10 -->
<g id="node10" class="node">
<title>Node10</title>
<g id="a_node10"><a xlink:href="../../d7/d79/MinMaxFix_8hpp.html" target="_top" xlink:title=" ">
<polygon fill="#ffffff" stroke="#000000" points="369.5,-112.5 369.5,-131.5 494.5,-131.5 494.5,-112.5 369.5,-112.5"/>
<text text-anchor="middle" x="432" y="-119.5" font-family="Helvetica,sans-Serif" font-size="10.00" fill="#000000">AH/Math/MinMaxFix.hpp</text>
</a>
</g>
</g>
<!-- Node9&#45;&gt;Node10 -->
<g id="edge11" class="edge">
<title>Node9&#45;&gt;Node10</title>
<path fill="none" stroke="#191970" d="M521.1878,-168.2455C504.1527,-159.4125 478.8425,-146.2887 459.5319,-136.2758"/>
<polygon fill="#191970" stroke="#191970" points="461.0853,-133.1388 450.5966,-131.6427 457.863,-139.353 461.0853,-133.1388"/>
</g>
<!-- Node12 -->
<g id="node12" class="node">
<title>Node12</title>
<g id="a_node12"><a xlink:title=" ">
<polygon fill="#ffffff" stroke="#bfbfbf" points="365,-.5 365,-19.5 423,-19.5 423,-.5 365,-.5"/>
<text text-anchor="middle" x="394" y="-7.5" font-family="Helvetica,sans-Serif" font-size="10.00" fill="#000000">Arduino.h</text>
</a>
</g>
</g>
<!-- Node9&#45;&gt;Node12 -->
<g id="edge18" class="edge">
<title>Node9&#45;&gt;Node12</title>
<path fill="none" stroke="#191970" d="M482.4601,-170.9788C435.6732,-163.9475 375.0353,-151.3608 360,-132 339.2823,-105.322 349.4306,-88.0816 360,-56 363.5056,-45.3594 370.5241,-35.164 377.2787,-27.0877"/>
<polygon fill="#191970" stroke="#191970" points="380.0014,-29.2937 384.0638,-19.5087 374.786,-24.6247 380.0014,-29.2937"/>
</g>
<!-- Node14 -->
<g id="node14" class="node">
<title>Node14</title>
<g id="a_node14"><a xlink:title=" ">
<polygon fill="#ffffff" stroke="#bfbfbf" points="512.5,-112.5 512.5,-131.5 613.5,-131.5 613.5,-112.5 512.5,-112.5"/>
<text text-anchor="middle" x="563" y="-119.5" font-family="Helvetica,sans-Serif" font-size="10.00" fill="#000000">AH/STL/type_traits</text>
</a>
</g>
</g>
<!-- Node9&#45;&gt;Node14 -->
<g id="edge17" class="edge">
<title>Node9&#45;&gt;Node14</title>
<path fill="none" stroke="#191970" d="M544.0063,-168.2455C547.0735,-160.7776 551.4003,-150.2427 555.1497,-141.1137"/>
<polygon fill="#191970" stroke="#191970" points="558.4779,-142.2226 559.0396,-131.6427 552.0028,-139.5631 558.4779,-142.2226"/>
</g>
<!-- Node10&#45;&gt;Node6 -->
<g id="edge12" class="edge">
<title>Node10&#45;&gt;Node6</title>
<path fill="none" stroke="#191970" d="M481.0598,-112.4876C508.1706,-105.54 541.4339,-94.0959 567,-76 584.7763,-63.4178 599.5045,-43.0639 608.6938,-28.2824"/>
<polygon fill="#191970" stroke="#191970" points="611.8067,-29.8954 613.9091,-19.5112 605.7899,-26.3178 611.8067,-29.8954"/>
</g>
<!-- Node11 -->
<g id="node11" class="node">
<title>Node11</title>
<g id="a_node11"><a xlink:href="../../d6/d3b/FixArduinoMacros_8hpp.html" target="_top" xlink:title=" ">
<polygon fill="#ffffff" stroke="#000000" points="369,-56.5 369,-75.5 525,-75.5 525,-56.5 369,-56.5"/>
<text text-anchor="middle" x="447" y="-63.5" font-family="Helvetica,sans-Serif" font-size="10.00" fill="#000000">AH/Math/FixArduinoMacros.hpp</text>
</a>
</g>
</g>
<!-- Node10&#45;&gt;Node11 -->
<g id="edge13" class="edge">
<title>Node10&#45;&gt;Node11</title>
<path fill="none" stroke="#191970" d="M434.6128,-112.2455C436.5916,-104.8579 439.3744,-94.4689 441.8012,-85.4087"/>
<polygon fill="#191970" stroke="#191970" points="445.2105,-86.2078 444.4171,-75.6427 438.4489,-84.3966 445.2105,-86.2078"/>
</g>
<!-- Node13 -->
<g id="node13" class="node">
<title>Node13</title>
<g id="a_node13"><a xlink:href="../../dc/dc7/NamespaceSettings_8hpp.html" target="_top" xlink:title=" ">
<polygon fill="#ffffff" stroke="#000000" points="132,-56.5 132,-75.5 312,-75.5 312,-56.5 132,-56.5"/>
<text text-anchor="middle" x="222" y="-63.5" font-family="Helvetica,sans-Serif" font-size="10.00" fill="#000000">AH/Settings/NamespaceSettings.hpp</text>
</a>
</g>
</g>
<!-- Node10&#45;&gt;Node13 -->
<g id="edge16" class="edge">
<title>Node10&#45;&gt;Node13</title>
<path fill="none" stroke="#191970" d="M395.8997,-112.3733C360.3752,-102.9001 306.012,-88.4032 267.5381,-78.1435"/>
<polygon fill="#191970" stroke="#191970" points="268.1934,-74.696 257.6292,-75.5011 266.3897,-81.4596 268.1934,-74.696"/>
</g>
<!-- Node11&#45;&gt;Node6 -->
<g id="edge14" class="edge">
<title>Node11&#45;&gt;Node6</title>
<path fill="none" stroke="#191970" d="M476.5679,-56.3733C505.1688,-47.0613 548.6788,-32.8953 580.0819,-22.671"/>
<polygon fill="#191970" stroke="#191970" points="581.3928,-25.9251 589.818,-19.5011 579.2257,-19.269 581.3928,-25.9251"/>
</g>
<!-- Node11&#45;&gt;Node12 -->
<g id="edge15" class="edge">
<title>Node11&#45;&gt;Node12</title>
<path fill="none" stroke="#191970" d="M437.7681,-56.2455C430.1683,-48.2155 419.2123,-36.6394 410.1632,-27.0781"/>
<polygon fill="#191970" stroke="#191970" points="412.542,-24.4998 403.1261,-19.6427 407.4579,-29.3115 412.542,-24.4998"/>
</g>
<!-- Node15&#45;&gt;Node6 -->
<g id="edge20" class="edge">
<title>Node15&#45;&gt;Node6</title>
<path fill="none" stroke="#191970" d="M639.4298,-336.4139C640.2594,-317.0603 642,-271.9303 642,-234 642,-234 642,-234 642,-122 642,-88.906 632.2452,-51.4151 625.4412,-29.2901"/>
<polygon fill="#191970" stroke="#191970" points="628.7706,-28.2105 622.3937,-19.7497 622.1026,-30.3405 628.7706,-28.2105"/>
</g>
<!-- Node15&#45;&gt;Node7 -->
<g id="edge33" class="edge">
<title>Node15&#45;&gt;Node7</title>
<path fill="none" stroke="#191970" d="M653.7156,-355.6427C663.0375,-363.5596 674.6061,-374.9775 683.122,-384.5004"/>
<polygon fill="#191970" stroke="#191970" points="680.5508,-386.88 689.6866,-392.2455 685.8908,-382.354 680.5508,-386.88"/>
</g>
<!-- Node15&#45;&gt;Node13 -->
<g id="edge21" class="edge">
<title>Node15&#45;&gt;Node13</title>
<path fill="none" stroke="#191970" d="M562.5173,-336.4771C488.8728,-326.8812 382.9523,-311.8392 343,-300 274.3351,-279.6524 196,-305.6163 196,-234 196,-234 196,-234 196,-178 196,-144.7204 207.0271,-107.2857 214.7187,-85.2224"/>
<polygon fill="#191970" stroke="#191970" points="218.0487,-86.3059 218.1636,-75.7117 211.4671,-83.9219 218.0487,-86.3059"/>
</g>
<!-- Node16 -->
<g id="node16" class="node">
<title>Node16</title>
<g id="a_node16"><a xlink:href="../../db/d02/Settings_8hpp.html" target="_top" xlink:title="All user settings and debugging options can be changed here.">
<polygon fill="#ffffff" stroke="#000000" points="352.5,-280.5 352.5,-299.5 423.5,-299.5 423.5,-280.5 352.5,-280.5"/>
<text text-anchor="middle" x="388" y="-287.5" font-family="Helvetica,sans-Serif" font-size="10.00" fill="#000000">Settings.hpp</text>
</a>
</g>
</g>
<!-- Node15&#45;&gt;Node16 -->
<g id="edge22" class="edge">
<title>Node15&#45;&gt;Node16</title>
<path fill="none" stroke="#191970" d="M596.1368,-336.4369C550.8722,-326.338 479.7899,-310.479 433.5384,-300.16"/>
<polygon fill="#191970" stroke="#191970" points="434.3005,-296.744 423.7783,-297.9824 432.7762,-303.576 434.3005,-296.744"/>
</g>
<!-- Node22 -->
<g id="node22" class="node">
<title>Node22</title>
<g id="a_node22"><a xlink:href="../../d9/d98/TeensyUSBTypes_8hpp.html" target="_top" xlink:title=" ">
<polygon fill="#ffffff" stroke="#000000" points="0,-280.5 0,-299.5 168,-299.5 168,-280.5 0,-280.5"/>
<text text-anchor="middle" x="84" y="-287.5" font-family="Helvetica,sans-Serif" font-size="10.00" fill="#000000">AH/Teensy/TeensyUSBTypes.hpp</text>
</a>
</g>
</g>
<!-- Node15&#45;&gt;Node22 -->
<g id="edge32" class="edge">
<title>Node15&#45;&gt;Node22</title>
<path fill="none" stroke="#191970" d="M556.6646,-336.9096C553.7407,-336.6003 550.8455,-336.2963 548,-336 385.4272,-319.0726 344.6372,-316.2963 182,-300 180.7317,-299.8729 179.4542,-299.7448 178.1691,-299.6157"/>
<polygon fill="#191970" stroke="#191970" points="178.4948,-296.1309 168.1944,-298.6113 177.7934,-303.0957 178.4948,-296.1309"/>
</g>
<!-- Node17 -->
<g id="node17" class="node">
<title>Node17</title>
<g id="a_node17"><a xlink:href="../../dc/d50/Frequency_8hpp.html" target="_top" xlink:title=" ">
<polygon fill="#ffffff" stroke="#000000" points="40,-112.5 40,-131.5 168,-131.5 168,-112.5 40,-112.5"/>
<text text-anchor="middle" x="104" y="-119.5" font-family="Helvetica,sans-Serif" font-size="10.00" fill="#000000">AH/Types/Frequency.hpp</text>
</a>
</g>
</g>
<!-- Node16&#45;&gt;Node17 -->
<g id="edge23" class="edge">
<title>Node16&#45;&gt;Node17</title>
<path fill="none" stroke="#191970" d="M352.4349,-281.6234C324.3352,-274.1388 284.707,-261.6212 253,-244 199.503,-214.2689 146.3249,-164.6737 120.3653,-138.8266"/>
<polygon fill="#191970" stroke="#191970" points="122.7398,-136.2505 113.2125,-131.6158 117.7701,-141.1803 122.7398,-136.2505"/>
</g>
<!-- Node18 -->
<g id="node18" class="node">
<title>Node18</title>
<g id="a_node18"><a xlink:href="../../d7/d7c/ADCConfig_8hpp.html" target="_top" xlink:title="This file contains the platform&#45;specific ADC resolutions. By default, the library automatically selec...">
<polygon fill="#ffffff" stroke="#000000" points="466,-224.5 466,-243.5 614,-243.5 614,-224.5 466,-224.5"/>
<text text-anchor="middle" x="540" y="-231.5" font-family="Helvetica,sans-Serif" font-size="10.00" fill="#000000">AH/Hardware/ADCConfig.hpp</text>
</a>
</g>
</g>
<!-- Node16&#45;&gt;Node18 -->
<g id="edge26" class="edge">
<title>Node16&#45;&gt;Node18</title>
<path fill="none" stroke="#191970" d="M414.1297,-280.3733C439.0768,-271.1822 476.8592,-257.2624 504.5206,-247.0713"/>
<polygon fill="#191970" stroke="#191970" points="506.0378,-250.2424 514.2112,-243.5011 503.6178,-243.674 506.0378,-250.2424"/>
</g>
<!-- Node19 -->
<g id="node19" class="node">
<title>Node19</title>
<g id="a_node19"><a xlink:title=" ">
<polygon fill="#ffffff" stroke="#bfbfbf" points="330,-224.5 330,-243.5 378,-243.5 378,-224.5 330,-224.5"/>
<text text-anchor="middle" x="354" y="-231.5" font-family="Helvetica,sans-Serif" font-size="10.00" fill="#000000">limits.h</text>
</a>
</g>
</g>
<!-- Node16&#45;&gt;Node19 -->
<g id="edge29" class="edge">
<title>Node16&#45;&gt;Node19</title>
<path fill="none" stroke="#191970" d="M382.0777,-280.2455C377.3973,-272.5367 370.7327,-261.5598 365.0711,-252.2348"/>
<polygon fill="#191970" stroke="#191970" points="368.0361,-250.3741 359.8545,-243.6427 362.0525,-254.007 368.0361,-250.3741"/>
</g>
<!-- Node20 -->
<g id="node20" class="node">
<title>Node20</title>
<g id="a_node20"><a xlink:title=" ">
<polygon fill="#ffffff" stroke="#bfbfbf" points="396,-224.5 396,-243.5 448,-243.5 448,-224.5 396,-224.5"/>
<text text-anchor="middle" x="422" y="-231.5" font-family="Helvetica,sans-Serif" font-size="10.00" fill="#000000">stddef.h</text>
</a>
</g>
</g>
<!-- Node16&#45;&gt;Node20 -->
<g id="edge30" class="edge">
<title>Node16&#45;&gt;Node20</title>
<path fill="none" stroke="#191970" d="M393.9223,-280.2455C398.6027,-272.5367 405.2673,-261.5598 410.9289,-252.2348"/>
<polygon fill="#191970" stroke="#191970" points="413.9475,-254.007 416.1455,-243.6427 407.9639,-250.3741 413.9475,-254.007"/>
</g>
<!-- Node21 -->
<g id="node21" class="node">
<title>Node21</title>
<g id="a_node21"><a xlink:title=" ">
<polygon fill="#ffffff" stroke="#bfbfbf" points="262.5,-224.5 262.5,-243.5 311.5,-243.5 311.5,-224.5 262.5,-224.5"/>
<text text-anchor="middle" x="287" y="-231.5" font-family="Helvetica,sans-Serif" font-size="10.00" fill="#000000">stdint.h</text>
</a>
</g>
</g>
<!-- Node16&#45;&gt;Node21 -->
<g id="edge31" class="edge">
<title>Node16&#45;&gt;Node21</title>
<path fill="none" stroke="#191970" d="M370.4071,-280.2455C354.621,-271.4928 331.2361,-258.527 313.2413,-248.5496"/>
<polygon fill="#191970" stroke="#191970" points="314.8341,-245.4308 304.3913,-243.6427 311.4397,-251.5528 314.8341,-245.4308"/>
</g>
<!-- Node17&#45;&gt;Node6 -->
<g id="edge24" class="edge">
<title>Node17&#45;&gt;Node6</title>
<path fill="none" stroke="#191970" d="M103.6546,-112.1128C103.7327,-97.3589 106.2837,-69.8384 123,-56 138.8964,-42.8404 406.9015,-23.7275 542.176,-14.8579"/>
<polygon fill="#191970" stroke="#191970" points="542.7207,-18.3299 552.4715,-14.1859 542.2647,-11.3448 542.7207,-18.3299"/>
</g>
<!-- Node17&#45;&gt;Node13 -->
<g id="edge25" class="edge">
<title>Node17&#45;&gt;Node13</title>
<path fill="none" stroke="#191970" d="M124.2849,-112.3733C143.1421,-103.4241 171.446,-89.9917 192.7455,-79.8835"/>
<polygon fill="#191970" stroke="#191970" points="194.4461,-82.9506 201.9798,-75.5011 191.4449,-76.6266 194.4461,-82.9506"/>
</g>
<!-- Node18&#45;&gt;Node6 -->
<g id="edge27" class="edge">
<title>Node18&#45;&gt;Node6</title>
<path fill="none" stroke="#191970" d="M499.4232,-224.4676C433.5821,-207.1391 315.1264,-167.1082 360,-112 409.8643,-50.7628 462.288,-109.0731 534,-76 548.0912,-69.5012 579.6843,-43.6473 600.1329,-26.2929"/>
<polygon fill="#191970" stroke="#191970" points="602.5469,-28.8339 607.8755,-19.6766 597.9993,-23.5123 602.5469,-28.8339"/>
</g>
<!-- Node18&#45;&gt;Node9 -->
<g id="edge28" class="edge">
<title>Node18&#45;&gt;Node9</title>
<path fill="none" stroke="#191970" d="M540,-224.2455C540,-216.9382 540,-206.6944 540,-197.7046"/>
<polygon fill="#191970" stroke="#191970" points="543.5001,-197.6426 540,-187.6427 536.5001,-197.6427 543.5001,-197.6426"/>
</g>
</g>
</svg>
