<?xml version="1.0" encoding="UTF-8" standalone="no"?>
<!DOCTYPE svg PUBLIC "-//W3C//DTD SVG 1.1//EN"
 "http://www.w3.org/Graphics/SVG/1.1/DTD/svg11.dtd">
<!-- Generated by graphviz version 2.43.0 (0)
 -->
<!-- Title: Butterworth.hpp Pages: 1 -->
<svg width="933pt" height="756pt"
 viewBox="0.00 0.00 933.05 756.00" xmlns="http://www.w3.org/2000/svg" xmlns:xlink="http://www.w3.org/1999/xlink">
<g id="graph0" class="graph" transform="scale(1 1) rotate(0) translate(4 752)">
<title>Butterworth.hpp</title>
<polygon fill="white" stroke="transparent" points="-4,4 -4,-752 929.05,-752 929.05,4 -4,4"/>
<!-- Node1 -->
<g id="node1" class="node">
<title>Node1</title>
<g id="a_node1"><a xlink:title=" ">
<polygon fill="#bfbfbf" stroke="black" points="483.5,-728.5 483.5,-747.5 578.5,-747.5 578.5,-728.5 483.5,-728.5"/>
<text text-anchor="middle" x="531" y="-735.5" font-family="Helvetica,sans-Serif" font-size="10.00">Butterworth.hpp</text>
</a>
</g>
</g>
<!-- Node2 -->
<g id="node2" class="node">
<title>Node2</title>
<g id="a_node2"><a xlink:title=" ">
<polygon fill="white" stroke="#bfbfbf" points="420.5,-560.5 420.5,-579.5 505.5,-579.5 505.5,-560.5 420.5,-560.5"/>
<text text-anchor="middle" x="463" y="-567.5" font-family="Helvetica,sans-Serif" font-size="10.00">AH/STL/cmath</text>
</a>
</g>
</g>
<!-- Node1&#45;&gt;Node2 -->
<g id="edge1" class="edge">
<title>Node1&#45;&gt;Node2</title>
<path fill="none" stroke="midnightblue" d="M527.34,-728.08C516.59,-701.83 484.93,-624.55 470.42,-589.12"/>
<polygon fill="midnightblue" stroke="midnightblue" points="473.54,-587.5 466.51,-579.57 467.06,-590.15 473.54,-587.5"/>
</g>
<!-- Node3 -->
<g id="node3" class="node">
<title>Node3</title>
<g id="a_node3"><a xlink:href="../../df/ddc/SOSFilter_8hpp.html" target="_top" xlink:title=" ">
<polygon fill="white" stroke="black" points="542,-672.5 542,-691.5 656,-691.5 656,-672.5 542,-672.5"/>
<text text-anchor="middle" x="599" y="-679.5" font-family="Helvetica,sans-Serif" font-size="10.00">Filters/SOSFilter.hpp</text>
</a>
</g>
</g>
<!-- Node1&#45;&gt;Node3 -->
<g id="edge2" class="edge">
<title>Node1&#45;&gt;Node3</title>
<path fill="none" stroke="midnightblue" d="M541.93,-728.32C552.17,-720.18 567.72,-707.84 580,-698.09"/>
<polygon fill="midnightblue" stroke="midnightblue" points="582.22,-700.79 587.88,-691.83 577.87,-695.31 582.22,-700.79"/>
</g>
<!-- Node4 -->
<g id="node4" class="node">
<title>Node4</title>
<g id="a_node4"><a xlink:href="../../d5/db6/ArrayHelpers_8hpp.html" target="_top" xlink:title=" ">
<polygon fill="white" stroke="black" points="731,-560.5 731,-579.5 905,-579.5 905,-560.5 731,-560.5"/>
<text text-anchor="middle" x="818" y="-567.5" font-family="Helvetica,sans-Serif" font-size="10.00">AH/Containers/ArrayHelpers.hpp</text>
</a>
</g>
</g>
<!-- Node3&#45;&gt;Node4 -->
<g id="edge3" class="edge">
<title>Node3&#45;&gt;Node4</title>
<path fill="none" stroke="midnightblue" d="M616.18,-672.37C654.32,-653.21 746.26,-607.04 791.69,-584.22"/>
<polygon fill="midnightblue" stroke="midnightblue" points="793.53,-587.21 800.9,-579.59 790.39,-580.95 793.53,-587.21"/>
</g>
<!-- Node27 -->
<g id="node27" class="node">
<title>Node27</title>
<g id="a_node27"><a xlink:href="../../d1/dde/BiQuad_8hpp.html" target="_top" xlink:title=" ">
<polygon fill="white" stroke="black" points="546,-616.5 546,-635.5 652,-635.5 652,-616.5 546,-616.5"/>
<text text-anchor="middle" x="599" y="-623.5" font-family="Helvetica,sans-Serif" font-size="10.00">Filters/BiQuad.hpp</text>
</a>
</g>
</g>
<!-- Node3&#45;&gt;Node27 -->
<g id="edge44" class="edge">
<title>Node3&#45;&gt;Node27</title>
<path fill="none" stroke="midnightblue" d="M599,-672.08C599,-665.01 599,-654.86 599,-645.99"/>
<polygon fill="midnightblue" stroke="midnightblue" points="602.5,-645.75 599,-635.75 595.5,-645.75 602.5,-645.75"/>
</g>
<!-- Node5 -->
<g id="node5" class="node">
<title>Node5</title>
<g id="a_node5"><a xlink:href="../../d1/d65/Warnings_8hpp.html" target="_top" xlink:title=" ">
<polygon fill="white" stroke="black" points="430.5,-0.5 430.5,-19.5 573.5,-19.5 573.5,-0.5 430.5,-0.5"/>
<text text-anchor="middle" x="502" y="-7.5" font-family="Helvetica,sans-Serif" font-size="10.00">AH/Settings/Warnings.hpp</text>
</a>
</g>
</g>
<!-- Node4&#45;&gt;Node5 -->
<g id="edge4" class="edge">
<title>Node4&#45;&gt;Node5</title>
<path fill="none" stroke="midnightblue" d="M848.07,-560.46C867.22,-553.56 891.12,-541.98 906,-524 925.19,-500.81 925,-489.1 925,-459 925,-459 925,-459 925,-121 925,-51.25 706.88,-24.95 583.9,-15.67"/>
<polygon fill="midnightblue" stroke="midnightblue" points="583.99,-12.17 573.76,-14.93 583.47,-19.15 583.99,-12.17"/>
</g>
<!-- Node6 -->
<g id="node6" class="node">
<title>Node6</title>
<g id="a_node6"><a xlink:href="../../de/d76/Array_8hpp.html" target="_top" xlink:title=" ">
<polygon fill="white" stroke="black" points="579,-504.5 579,-523.5 641,-523.5 641,-504.5 579,-504.5"/>
<text text-anchor="middle" x="610" y="-511.5" font-family="Helvetica,sans-Serif" font-size="10.00">Array.hpp</text>
</a>
</g>
</g>
<!-- Node4&#45;&gt;Node6 -->
<g id="edge5" class="edge">
<title>Node4&#45;&gt;Node6</title>
<path fill="none" stroke="midnightblue" d="M785.04,-560.44C748.69,-551.01 690.14,-535.81 650.89,-525.62"/>
<polygon fill="midnightblue" stroke="midnightblue" points="651.66,-522.2 641.11,-523.08 649.91,-528.98 651.66,-522.2"/>
</g>
<!-- Node9 -->
<g id="node9" class="node">
<title>Node9</title>
<g id="a_node9"><a xlink:href="../../dd/d80/PrintStream_8hpp.html" target="_top" xlink:title=" ">
<polygon fill="white" stroke="black" points="594.5,-224.5 594.5,-243.5 767.5,-243.5 767.5,-224.5 594.5,-224.5"/>
<text text-anchor="middle" x="681" y="-231.5" font-family="Helvetica,sans-Serif" font-size="10.00">AH/PrintStream/PrintStream.hpp</text>
</a>
</g>
</g>
<!-- Node4&#45;&gt;Node9 -->
<g id="edge43" class="edge">
<title>Node4&#45;&gt;Node9</title>
<path fill="none" stroke="midnightblue" d="M811.13,-560.45C804.34,-551.69 793.97,-537.48 787,-524 736.76,-426.88 699.12,-300.41 686.03,-253.53"/>
<polygon fill="midnightblue" stroke="midnightblue" points="689.39,-252.56 683.36,-243.85 682.64,-254.42 689.39,-252.56"/>
</g>
<!-- Node26 -->
<g id="node26" class="node">
<title>Node26</title>
<g id="a_node26"><a xlink:title=" ">
<polygon fill="white" stroke="#bfbfbf" points="795.5,-504.5 795.5,-523.5 896.5,-523.5 896.5,-504.5 795.5,-504.5"/>
<text text-anchor="middle" x="846" y="-511.5" font-family="Helvetica,sans-Serif" font-size="10.00">AH/STL/algorithm</text>
</a>
</g>
</g>
<!-- Node4&#45;&gt;Node26 -->
<g id="edge42" class="edge">
<title>Node4&#45;&gt;Node26</title>
<path fill="none" stroke="midnightblue" d="M822.62,-560.08C826.46,-552.69 832.02,-541.95 836.76,-532.81"/>
<polygon fill="midnightblue" stroke="midnightblue" points="839.97,-534.24 841.46,-523.75 833.75,-531.02 839.97,-534.24"/>
</g>
<!-- Node6&#45;&gt;Node5 -->
<g id="edge6" class="edge">
<title>Node6&#45;&gt;Node5</title>
<path fill="none" stroke="midnightblue" d="M578.91,-510.73C454.61,-501.24 0,-462.46 0,-403 0,-403 0,-403 0,-121 0,-35.99 278.13,-16.59 420.34,-12.22"/>
<polygon fill="midnightblue" stroke="midnightblue" points="420.45,-15.72 430.34,-11.94 420.25,-8.73 420.45,-15.72"/>
</g>
<!-- Node7 -->
<g id="node7" class="node">
<title>Node7</title>
<g id="a_node7"><a xlink:href="../../d1/d93/Error_8hpp.html" target="_top" xlink:title=" ">
<polygon fill="white" stroke="black" points="440,-448.5 440,-467.5 544,-467.5 544,-448.5 440,-448.5"/>
<text text-anchor="middle" x="492" y="-455.5" font-family="Helvetica,sans-Serif" font-size="10.00">AH/Error/Error.hpp</text>
</a>
</g>
</g>
<!-- Node6&#45;&gt;Node7 -->
<g id="edge7" class="edge">
<title>Node6&#45;&gt;Node7</title>
<path fill="none" stroke="midnightblue" d="M591.3,-504.44C572.06,-495.64 541.85,-481.81 519.8,-471.72"/>
<polygon fill="midnightblue" stroke="midnightblue" points="521.16,-468.5 510.61,-467.52 518.25,-474.86 521.16,-468.5"/>
</g>
<!-- Node15 -->
<g id="node15" class="node">
<title>Node15</title>
<g id="a_node15"><a xlink:title=" ">
<polygon fill="white" stroke="#bfbfbf" points="751.5,-112.5 751.5,-131.5 858.5,-131.5 858.5,-112.5 751.5,-112.5"/>
<text text-anchor="middle" x="805" y="-119.5" font-family="Helvetica,sans-Serif" font-size="10.00">AH/STL/type_traits</text>
</a>
</g>
</g>
<!-- Node6&#45;&gt;Node15 -->
<g id="edge40" class="edge">
<title>Node6&#45;&gt;Node15</title>
<path fill="none" stroke="midnightblue" d="M631.07,-504.35C686.84,-479.9 834,-404.61 834,-291 834,-291 834,-291 834,-233 834,-199.72 821.43,-162.58 812.84,-141.09"/>
<polygon fill="midnightblue" stroke="midnightblue" points="815.98,-139.53 808.91,-131.64 809.52,-142.21 815.98,-139.53"/>
</g>
<!-- Node21 -->
<g id="node21" class="node">
<title>Node21</title>
<g id="a_node21"><a xlink:title=" ">
<polygon fill="white" stroke="#bfbfbf" points="520,-224.5 520,-243.5 576,-243.5 576,-224.5 520,-224.5"/>
<text text-anchor="middle" x="548" y="-231.5" font-family="Helvetica,sans-Serif" font-size="10.00">stddef.h</text>
</a>
</g>
</g>
<!-- Node6&#45;&gt;Node21 -->
<g id="edge41" class="edge">
<title>Node6&#45;&gt;Node21</title>
<path fill="none" stroke="midnightblue" d="M604.72,-504.23C594.27,-486.04 572,-442.6 572,-403 572,-403 572,-403 572,-345 572,-312.06 561.6,-274.82 554.49,-253.21"/>
<polygon fill="midnightblue" stroke="midnightblue" points="557.78,-252.03 551.24,-243.7 551.16,-254.29 557.78,-252.03"/>
</g>
<!-- Node25 -->
<g id="node25" class="node">
<title>Node25</title>
<g id="a_node25"><a xlink:title=" ">
<polygon fill="white" stroke="#bfbfbf" points="600,-448.5 600,-467.5 690,-467.5 690,-448.5 600,-448.5"/>
<text text-anchor="middle" x="645" y="-455.5" font-family="Helvetica,sans-Serif" font-size="10.00">AH/STL/iterator</text>
</a>
</g>
</g>
<!-- Node6&#45;&gt;Node25 -->
<g id="edge39" class="edge">
<title>Node6&#45;&gt;Node25</title>
<path fill="none" stroke="midnightblue" d="M615.78,-504.08C620.67,-496.53 627.83,-485.49 633.83,-476.23"/>
<polygon fill="midnightblue" stroke="midnightblue" points="636.83,-478.05 639.33,-467.75 630.95,-474.24 636.83,-478.05"/>
</g>
<!-- Node7&#45;&gt;Node5 -->
<g id="edge8" class="edge">
<title>Node7&#45;&gt;Node5</title>
<path fill="none" stroke="midnightblue" d="M516.27,-448.47C617.77,-411.59 997.15,-260.91 868,-112 830.94,-69.27 669.52,-94.33 616,-76 606.48,-72.74 555.78,-43.01 525.29,-24.9"/>
<polygon fill="midnightblue" stroke="midnightblue" points="526.93,-21.8 516.54,-19.7 523.35,-27.82 526.93,-21.8"/>
</g>
<!-- Node8 -->
<g id="node8" class="node">
<title>Node8</title>
<g id="a_node8"><a xlink:href="../../df/dee/Debug_8hpp.html" target="_top" xlink:title=" ">
<polygon fill="white" stroke="black" points="256.5,-392.5 256.5,-411.5 377.5,-411.5 377.5,-392.5 256.5,-392.5"/>
<text text-anchor="middle" x="317" y="-399.5" font-family="Helvetica,sans-Serif" font-size="10.00">AH/Debug/Debug.hpp</text>
</a>
</g>
</g>
<!-- Node7&#45;&gt;Node8 -->
<g id="edge9" class="edge">
<title>Node7&#45;&gt;Node8</title>
<path fill="none" stroke="midnightblue" d="M464.27,-448.44C434.57,-439.28 387.28,-424.69 354.33,-414.52"/>
<polygon fill="midnightblue" stroke="midnightblue" points="355.19,-411.12 344.6,-411.52 353.12,-417.81 355.19,-411.12"/>
</g>
<!-- Node8&#45;&gt;Node5 -->
<g id="edge10" class="edge">
<title>Node8&#45;&gt;Node5</title>
<path fill="none" stroke="midnightblue" d="M268.66,-392.45C194.21,-376.2 60,-333.26 60,-235 60,-235 60,-235 60,-121 60,-47.57 292.63,-22.79 420.35,-14.72"/>
<polygon fill="midnightblue" stroke="midnightblue" points="420.73,-18.2 430.49,-14.1 420.3,-11.21 420.73,-18.2"/>
</g>
<!-- Node8&#45;&gt;Node9 -->
<g id="edge11" class="edge">
<title>Node8&#45;&gt;Node9</title>
<path fill="none" stroke="midnightblue" d="M335.8,-392.42C395.59,-365.16 581.56,-280.35 652.82,-247.85"/>
<polygon fill="midnightblue" stroke="midnightblue" points="654.44,-250.96 662.09,-243.62 651.54,-244.59 654.44,-250.96"/>
</g>
<!-- Node16 -->
<g id="node16" class="node">
<title>Node16</title>
<g id="a_node16"><a xlink:href="../../d2/dd5/SettingsWrapper_8hpp.html" target="_top" xlink:title=" ">
<polygon fill="white" stroke="black" points="228,-336.5 228,-355.5 406,-355.5 406,-336.5 228,-336.5"/>
<text text-anchor="middle" x="317" y="-343.5" font-family="Helvetica,sans-Serif" font-size="10.00">AH/Settings/SettingsWrapper.hpp</text>
</a>
</g>
</g>
<!-- Node8&#45;&gt;Node16 -->
<g id="edge23" class="edge">
<title>Node8&#45;&gt;Node16</title>
<path fill="none" stroke="midnightblue" d="M311.83,-392.08C310.32,-384.93 309.89,-374.64 310.54,-365.69"/>
<polygon fill="midnightblue" stroke="midnightblue" points="314.02,-366.13 311.87,-355.75 307.08,-365.2 314.02,-366.13"/>
</g>
<!-- Node24 -->
<g id="node24" class="node">
<title>Node24</title>
<g id="a_node24"><a xlink:href="../../d7/d52/DebugVal_8hpp.html" target="_top" xlink:title=" ">
<polygon fill="white" stroke="black" points="28,-336.5 28,-355.5 112,-355.5 112,-336.5 28,-336.5"/>
<text text-anchor="middle" x="70" y="-343.5" font-family="Helvetica,sans-Serif" font-size="10.00">DebugVal.hpp</text>
</a>
</g>
</g>
<!-- Node8&#45;&gt;Node24 -->
<g id="edge38" class="edge">
<title>Node8&#45;&gt;Node24</title>
<path fill="none" stroke="midnightblue" d="M277.86,-392.44C234.77,-383.02 165.44,-367.87 118.83,-357.68"/>
<polygon fill="midnightblue" stroke="midnightblue" points="119.47,-354.23 108.95,-355.52 117.98,-361.07 119.47,-354.23"/>
</g>
<!-- Node9&#45;&gt;Node5 -->
<g id="edge13" class="edge">
<title>Node9&#45;&gt;Node5</title>
<path fill="none" stroke="midnightblue" d="M663.73,-224.37C635.62,-209.45 580.11,-176.12 550,-132 527.58,-99.14 513.29,-54.25 506.56,-29.42"/>
<polygon fill="midnightblue" stroke="midnightblue" points="509.9,-28.34 504,-19.54 503.12,-30.1 509.9,-28.34"/>
</g>
<!-- Node10 -->
<g id="node10" class="node">
<title>Node10</title>
<g id="a_node10"><a xlink:href="../../dc/dc7/NamespaceSettings_8hpp.html" target="_top" xlink:title=" ">
<polygon fill="white" stroke="black" points="249.5,-56.5 249.5,-75.5 444.5,-75.5 444.5,-56.5 249.5,-56.5"/>
<text text-anchor="middle" x="347" y="-63.5" font-family="Helvetica,sans-Serif" font-size="10.00">AH/Settings/NamespaceSettings.hpp</text>
</a>
</g>
</g>
<!-- Node9&#45;&gt;Node10 -->
<g id="edge12" class="edge">
<title>Node9&#45;&gt;Node10</title>
<path fill="none" stroke="midnightblue" d="M633.14,-224.5C599.56,-217.44 554.21,-205.66 517,-188 455.94,-159.01 393.58,-108.01 364.25,-82.47"/>
<polygon fill="midnightblue" stroke="midnightblue" points="366.38,-79.69 356.56,-75.7 361.76,-84.94 366.38,-79.69"/>
</g>
<!-- Node11 -->
<g id="node11" class="node">
<title>Node11</title>
<g id="a_node11"><a xlink:href="../../d6/ddf/Arduino-Wrapper_8h.html" target="_top" xlink:title=" ">
<polygon fill="white" stroke="black" points="619,-168.5 619,-187.5 743,-187.5 743,-168.5 619,-168.5"/>
<text text-anchor="middle" x="681" y="-175.5" font-family="Helvetica,sans-Serif" font-size="10.00">AH/Arduino&#45;Wrapper.h</text>
</a>
</g>
</g>
<!-- Node9&#45;&gt;Node11 -->
<g id="edge14" class="edge">
<title>Node9&#45;&gt;Node11</title>
<path fill="none" stroke="midnightblue" d="M681,-224.08C681,-217.01 681,-206.86 681,-197.99"/>
<polygon fill="midnightblue" stroke="midnightblue" points="684.5,-197.75 681,-187.75 677.5,-197.75 684.5,-197.75"/>
</g>
<!-- Node12 -->
<g id="node12" class="node">
<title>Node12</title>
<g id="a_node12"><a xlink:href="../../d7/d79/MinMaxFix_8hpp.html" target="_top" xlink:title=" ">
<polygon fill="white" stroke="black" points="559,-112.5 559,-131.5 695,-131.5 695,-112.5 559,-112.5"/>
<text text-anchor="middle" x="627" y="-119.5" font-family="Helvetica,sans-Serif" font-size="10.00">AH/Math/MinMaxFix.hpp</text>
</a>
</g>
</g>
<!-- Node11&#45;&gt;Node12 -->
<g id="edge15" class="edge">
<title>Node11&#45;&gt;Node12</title>
<path fill="none" stroke="midnightblue" d="M672.08,-168.08C664.22,-160.22 652.57,-148.57 643.08,-139.08"/>
<polygon fill="midnightblue" stroke="midnightblue" points="645.3,-136.35 635.75,-131.75 640.35,-141.3 645.3,-136.35"/>
</g>
<!-- Node14 -->
<g id="node14" class="node">
<title>Node14</title>
<g id="a_node14"><a xlink:title=" ">
<polygon fill="white" stroke="#bfbfbf" points="734.5,-0.5 734.5,-19.5 797.5,-19.5 797.5,-0.5 734.5,-0.5"/>
<text text-anchor="middle" x="766" y="-7.5" font-family="Helvetica,sans-Serif" font-size="10.00">Arduino.h</text>
</a>
</g>
</g>
<!-- Node11&#45;&gt;Node14 -->
<g id="edge22" class="edge">
<title>Node11&#45;&gt;Node14</title>
<path fill="none" stroke="midnightblue" d="M687.97,-168.27C698.81,-155.06 720.77,-129.65 743,-112 767.65,-92.42 788.39,-103.34 804,-76 813.7,-59.01 799.08,-39.68 785.25,-26.54"/>
<polygon fill="midnightblue" stroke="midnightblue" points="787.2,-23.59 777.39,-19.59 782.56,-28.84 787.2,-23.59"/>
</g>
<!-- Node11&#45;&gt;Node15 -->
<g id="edge21" class="edge">
<title>Node11&#45;&gt;Node15</title>
<path fill="none" stroke="midnightblue" d="M700.65,-168.44C720.96,-159.6 752.9,-145.69 776.1,-135.59"/>
<polygon fill="midnightblue" stroke="midnightblue" points="777.67,-138.72 785.44,-131.52 774.88,-132.3 777.67,-138.72"/>
</g>
<!-- Node12&#45;&gt;Node5 -->
<g id="edge16" class="edge">
<title>Node12&#45;&gt;Node5</title>
<path fill="none" stroke="midnightblue" d="M617.19,-112.37C596.11,-93.81 546.22,-49.91 519.54,-26.44"/>
<polygon fill="midnightblue" stroke="midnightblue" points="521.58,-23.57 511.76,-19.59 516.96,-28.83 521.58,-23.57"/>
</g>
<!-- Node12&#45;&gt;Node10 -->
<g id="edge20" class="edge">
<title>Node12&#45;&gt;Node10</title>
<path fill="none" stroke="midnightblue" d="M582.63,-112.44C533.38,-102.94 453.87,-87.61 401.03,-77.42"/>
<polygon fill="midnightblue" stroke="midnightblue" points="401.64,-73.97 391.16,-75.52 400.32,-80.85 401.64,-73.97"/>
</g>
<!-- Node13 -->
<g id="node13" class="node">
<title>Node13</title>
<g id="a_node13"><a xlink:href="../../d6/d3b/FixArduinoMacros_8hpp.html" target="_top" xlink:title=" ">
<polygon fill="white" stroke="black" points="625,-56.5 625,-75.5 795,-75.5 795,-56.5 625,-56.5"/>
<text text-anchor="middle" x="710" y="-63.5" font-family="Helvetica,sans-Serif" font-size="10.00">AH/Math/FixArduinoMacros.hpp</text>
</a>
</g>
</g>
<!-- Node12&#45;&gt;Node13 -->
<g id="edge17" class="edge">
<title>Node12&#45;&gt;Node13</title>
<path fill="none" stroke="midnightblue" d="M640.34,-112.32C653.16,-103.98 672.78,-91.21 687.94,-81.35"/>
<polygon fill="midnightblue" stroke="midnightblue" points="690.22,-84.04 696.7,-75.65 686.41,-78.17 690.22,-84.04"/>
</g>
<!-- Node13&#45;&gt;Node5 -->
<g id="edge18" class="edge">
<title>Node13&#45;&gt;Node5</title>
<path fill="none" stroke="midnightblue" d="M677.04,-56.44C641.21,-47.14 583.84,-32.25 544.61,-22.06"/>
<polygon fill="midnightblue" stroke="midnightblue" points="545.36,-18.64 534.8,-19.52 543.6,-25.42 545.36,-18.64"/>
</g>
<!-- Node13&#45;&gt;Node14 -->
<g id="edge19" class="edge">
<title>Node13&#45;&gt;Node14</title>
<path fill="none" stroke="midnightblue" d="M719,-56.32C727.19,-48.42 739.51,-36.55 749.47,-26.94"/>
<polygon fill="midnightblue" stroke="midnightblue" points="752.07,-29.29 756.84,-19.83 747.21,-24.26 752.07,-29.29"/>
</g>
<!-- Node16&#45;&gt;Node5 -->
<g id="edge24" class="edge">
<title>Node16&#45;&gt;Node5</title>
<path fill="none" stroke="midnightblue" d="M406.39,-337.51C431.08,-331.04 455.56,-319.68 472,-300 506.34,-258.89 504.35,-87.1 502.67,-29.74"/>
<polygon fill="midnightblue" stroke="midnightblue" points="506.17,-29.48 502.35,-19.59 499.17,-29.7 506.17,-29.48"/>
</g>
<!-- Node16&#45;&gt;Node8 -->
<g id="edge37" class="edge">
<title>Node16&#45;&gt;Node8</title>
<path fill="none" stroke="midnightblue" d="M322.13,-355.75C323.66,-362.86 324.1,-373.14 323.47,-382.1"/>
<polygon fill="midnightblue" stroke="midnightblue" points="319.99,-381.71 322.17,-392.08 326.93,-382.62 319.99,-381.71"/>
</g>
<!-- Node16&#45;&gt;Node10 -->
<g id="edge25" class="edge">
<title>Node16&#45;&gt;Node10</title>
<path fill="none" stroke="midnightblue" d="M233.27,-336.47C171.44,-324.99 98,-298.08 98,-235 98,-235 98,-235 98,-177 98,-111.15 171.78,-84.39 239.01,-73.68"/>
<polygon fill="midnightblue" stroke="midnightblue" points="239.92,-77.09 249.3,-72.16 238.9,-70.16 239.92,-77.09"/>
</g>
<!-- Node17 -->
<g id="node17" class="node">
<title>Node17</title>
<g id="a_node17"><a xlink:href="../../db/d02/Settings_8hpp.html" target="_top" xlink:title="All user settings and debugging options can be changed here.">
<polygon fill="white" stroke="black" points="195.5,-280.5 195.5,-299.5 272.5,-299.5 272.5,-280.5 195.5,-280.5"/>
<text text-anchor="middle" x="234" y="-287.5" font-family="Helvetica,sans-Serif" font-size="10.00">Settings.hpp</text>
</a>
</g>
</g>
<!-- Node16&#45;&gt;Node17 -->
<g id="edge26" class="edge">
<title>Node16&#45;&gt;Node17</title>
<path fill="none" stroke="midnightblue" d="M303.66,-336.32C290.84,-327.98 271.22,-315.21 256.06,-305.35"/>
<polygon fill="midnightblue" stroke="midnightblue" points="257.59,-302.17 247.3,-299.65 253.78,-308.04 257.59,-302.17"/>
</g>
<!-- Node23 -->
<g id="node23" class="node">
<title>Node23</title>
<g id="a_node23"><a xlink:href="../../d9/d98/TeensyUSBTypes_8hpp.html" target="_top" xlink:title=" ">
<polygon fill="white" stroke="black" points="290.5,-280.5 290.5,-299.5 463.5,-299.5 463.5,-280.5 290.5,-280.5"/>
<text text-anchor="middle" x="377" y="-287.5" font-family="Helvetica,sans-Serif" font-size="10.00">AH/Teensy/TeensyUSBTypes.hpp</text>
</a>
</g>
</g>
<!-- Node16&#45;&gt;Node23 -->
<g id="edge36" class="edge">
<title>Node16&#45;&gt;Node23</title>
<path fill="none" stroke="midnightblue" d="M326.64,-336.32C335.51,-328.34 348.87,-316.31 359.61,-306.65"/>
<polygon fill="midnightblue" stroke="midnightblue" points="362.09,-309.13 367.18,-299.83 357.41,-303.92 362.09,-309.13"/>
</g>
<!-- Node18 -->
<g id="node18" class="node">
<title>Node18</title>
<g id="a_node18"><a xlink:href="../../dc/d50/Frequency_8hpp.html" target="_top" xlink:title=" ">
<polygon fill="white" stroke="black" points="212,-112.5 212,-131.5 346,-131.5 346,-112.5 212,-112.5"/>
<text text-anchor="middle" x="279" y="-119.5" font-family="Helvetica,sans-Serif" font-size="10.00">AH/Types/Frequency.hpp</text>
</a>
</g>
</g>
<!-- Node17&#45;&gt;Node18 -->
<g id="edge27" class="edge">
<title>Node17&#45;&gt;Node18</title>
<path fill="none" stroke="midnightblue" d="M206.88,-280.42C179.32,-270.05 142.35,-250.63 155,-224 174.79,-182.36 221.07,-152.25 251.15,-136.23"/>
<polygon fill="midnightblue" stroke="midnightblue" points="253,-139.21 260.3,-131.52 249.8,-132.99 253,-139.21"/>
</g>
<!-- Node19 -->
<g id="node19" class="node">
<title>Node19</title>
<g id="a_node19"><a xlink:href="../../d7/d7c/ADCConfig_8hpp.html" target="_top" xlink:title="This file contains the platform&#45;specific ADC resolutions.">
<polygon fill="white" stroke="black" points="306.5,-224.5 306.5,-243.5 463.5,-243.5 463.5,-224.5 306.5,-224.5"/>
<text text-anchor="middle" x="385" y="-231.5" font-family="Helvetica,sans-Serif" font-size="10.00">AH/Hardware/ADCConfig.hpp</text>
</a>
</g>
</g>
<!-- Node17&#45;&gt;Node19 -->
<g id="edge30" class="edge">
<title>Node17&#45;&gt;Node19</title>
<path fill="none" stroke="midnightblue" d="M257.93,-280.44C283.22,-271.4 323.3,-257.06 351.68,-246.92"/>
<polygon fill="midnightblue" stroke="midnightblue" points="352.95,-250.18 361.19,-243.52 350.59,-243.59 352.95,-250.18"/>
</g>
<!-- Node20 -->
<g id="node20" class="node">
<title>Node20</title>
<g id="a_node20"><a xlink:title=" ">
<polygon fill="white" stroke="#bfbfbf" points="164.5,-224.5 164.5,-243.5 217.5,-243.5 217.5,-224.5 164.5,-224.5"/>
<text text-anchor="middle" x="191" y="-231.5" font-family="Helvetica,sans-Serif" font-size="10.00">limits.h</text>
</a>
</g>
</g>
<!-- Node17&#45;&gt;Node20 -->
<g id="edge33" class="edge">
<title>Node17&#45;&gt;Node20</title>
<path fill="none" stroke="midnightblue" d="M226.9,-280.08C220.76,-272.38 211.73,-261.03 204.26,-251.65"/>
<polygon fill="midnightblue" stroke="midnightblue" points="206.94,-249.39 197.97,-243.75 201.46,-253.75 206.94,-249.39"/>
</g>
<!-- Node17&#45;&gt;Node21 -->
<g id="edge34" class="edge">
<title>Node17&#45;&gt;Node21</title>
<path fill="none" stroke="midnightblue" d="M272.72,-281.52C275.52,-281 278.3,-280.49 281,-280 362.37,-265.35 457.96,-249.59 509.83,-241.16"/>
<polygon fill="midnightblue" stroke="midnightblue" points="510.59,-244.58 519.9,-239.52 509.47,-237.67 510.59,-244.58"/>
</g>
<!-- Node22 -->
<g id="node22" class="node">
<title>Node22</title>
<g id="a_node22"><a xlink:title=" ">
<polygon fill="white" stroke="#bfbfbf" points="235.5,-224.5 235.5,-243.5 288.5,-243.5 288.5,-224.5 235.5,-224.5"/>
<text text-anchor="middle" x="262" y="-231.5" font-family="Helvetica,sans-Serif" font-size="10.00">stdint.h</text>
</a>
</g>
</g>
<!-- Node17&#45;&gt;Node22 -->
<g id="edge35" class="edge">
<title>Node17&#45;&gt;Node22</title>
<path fill="none" stroke="midnightblue" d="M238.62,-280.08C242.46,-272.69 248.02,-261.95 252.76,-252.81"/>
<polygon fill="midnightblue" stroke="midnightblue" points="255.97,-254.24 257.46,-243.75 249.75,-251.02 255.97,-254.24"/>
</g>
<!-- Node18&#45;&gt;Node5 -->
<g id="edge28" class="edge">
<title>Node18&#45;&gt;Node5</title>
<path fill="none" stroke="midnightblue" d="M267.24,-112.44C250.79,-99.44 224.56,-74.31 240,-56 262.78,-28.98 352.06,-18.18 420.13,-13.87"/>
<polygon fill="midnightblue" stroke="midnightblue" points="420.66,-17.34 430.43,-13.26 420.24,-10.36 420.66,-17.34"/>
</g>
<!-- Node18&#45;&gt;Node10 -->
<g id="edge29" class="edge">
<title>Node18&#45;&gt;Node10</title>
<path fill="none" stroke="midnightblue" d="M289.93,-112.32C300.17,-104.18 315.72,-91.84 328,-82.09"/>
<polygon fill="midnightblue" stroke="midnightblue" points="330.22,-84.79 335.88,-75.83 325.87,-79.31 330.22,-84.79"/>
</g>
<!-- Node19&#45;&gt;Node5 -->
<g id="edge31" class="edge">
<title>Node19&#45;&gt;Node5</title>
<path fill="none" stroke="midnightblue" d="M340.16,-224.42C281.25,-210.49 187.02,-177.62 203,-112 209.63,-84.77 209.34,-72.49 232,-56 261.33,-34.66 351.7,-22.77 419.87,-16.64"/>
<polygon fill="midnightblue" stroke="midnightblue" points="420.53,-20.1 430.18,-15.75 419.92,-13.13 420.53,-20.1"/>
</g>
<!-- Node19&#45;&gt;Node11 -->
<g id="edge32" class="edge">
<title>Node19&#45;&gt;Node11</title>
<path fill="none" stroke="midnightblue" d="M431.9,-224.44C484.08,-214.92 568.37,-199.55 624.23,-189.36"/>
<polygon fill="midnightblue" stroke="midnightblue" points="625.11,-192.75 634.32,-187.52 623.85,-185.87 625.11,-192.75"/>
</g>
<!-- Node27&#45;&gt;Node2 -->
<g id="edge46" class="edge">
<title>Node27&#45;&gt;Node2</title>
<path fill="none" stroke="midnightblue" d="M577.45,-616.44C554.97,-607.52 519.51,-593.44 494.02,-583.32"/>
<polygon fill="midnightblue" stroke="midnightblue" points="495.03,-579.95 484.45,-579.52 492.45,-586.46 495.03,-579.95"/>
</g>
<!-- Node27&#45;&gt;Node6 -->
<g id="edge45" class="edge">
<title>Node27&#45;&gt;Node6</title>
<path fill="none" stroke="midnightblue" d="M632.8,-616.39C651.39,-609.74 672.89,-598.45 684,-580 697.3,-557.92 669.28,-539.3 643.99,-527.73"/>
<polygon fill="midnightblue" stroke="midnightblue" points="645.09,-524.39 634.52,-523.65 642.32,-530.82 645.09,-524.39"/>
</g>
<!-- Node28 -->
<g id="node28" class="node">
<title>Node28</title>
<g id="a_node28"><a xlink:href="../../d2/d03/TransferFunction_8hpp.html" target="_top" xlink:title=" ">
<polygon fill="white" stroke="black" points="523.5,-560.5 523.5,-579.5 674.5,-579.5 674.5,-560.5 523.5,-560.5"/>
<text text-anchor="middle" x="599" y="-567.5" font-family="Helvetica,sans-Serif" font-size="10.00">Filters/TransferFunction.hpp</text>
</a>
</g>
</g>
<!-- Node27&#45;&gt;Node28 -->
<g id="edge47" class="edge">
<title>Node27&#45;&gt;Node28</title>
<path fill="none" stroke="midnightblue" d="M599,-616.08C599,-609.01 599,-598.86 599,-589.99"/>
<polygon fill="midnightblue" stroke="midnightblue" points="602.5,-589.75 599,-579.75 595.5,-589.75 602.5,-589.75"/>
</g>
<!-- Node28&#45;&gt;Node6 -->
<g id="edge48" class="edge">
<title>Node28&#45;&gt;Node6</title>
<path fill="none" stroke="midnightblue" d="M600.82,-560.08C602.27,-552.93 604.37,-542.64 606.19,-533.69"/>
<polygon fill="midnightblue" stroke="midnightblue" points="609.65,-534.25 608.22,-523.75 602.79,-532.85 609.65,-534.25"/>
</g>
</g>
</svg>
