<?xml version="1.0" encoding="UTF-8" standalone="no"?>
<!DOCTYPE svg PUBLIC "-//W3C//DTD SVG 1.1//EN"
 "http://www.w3.org/Graphics/SVG/1.1/DTD/svg11.dtd">
<!-- Generated by graphviz version 2.40.1 (20161225.0304)
 -->
<!-- Title: Butterworth.hpp Pages: 1 -->
<svg width="1108pt" height="756pt"
 viewBox="0.00 0.00 1108.20 756.00" xmlns="http://www.w3.org/2000/svg" xmlns:xlink="http://www.w3.org/1999/xlink">
<g id="graph0" class="graph" transform="scale(1 1) rotate(0) translate(4 752)">
<title>Butterworth.hpp</title>
<polygon fill="#ffffff" stroke="transparent" points="-4,4 -4,-752 1104.2007,-752 1104.2007,4 -4,4"/>
<!-- Node1 -->
<g id="node1" class="node">
<title>Node1</title>
<g id="a_node1"><a xlink:title=" ">
<polygon fill="#bfbfbf" stroke="#000000" points="606,-728.5 606,-747.5 692,-747.5 692,-728.5 606,-728.5"/>
<text text-anchor="middle" x="649" y="-735.5" font-family="Helvetica,sans-Serif" font-size="10.00" fill="#000000">Butterworth.hpp</text>
</a>
</g>
</g>
<!-- Node2 -->
<g id="node2" class="node">
<title>Node2</title>
<g id="a_node2"><a xlink:title=" ">
<polygon fill="#ffffff" stroke="#bfbfbf" points="543,-560.5 543,-579.5 625,-579.5 625,-560.5 543,-560.5"/>
<text text-anchor="middle" x="584" y="-567.5" font-family="Helvetica,sans-Serif" font-size="10.00" fill="#000000">AH/STL/cmath</text>
</a>
</g>
</g>
<!-- Node1&#45;&gt;Node2 -->
<g id="edge1" class="edge">
<title>Node1&#45;&gt;Node2</title>
<path fill="none" stroke="#191970" d="M645.3191,-728.4862C634.9551,-701.6994 605.379,-625.2565 591.4398,-589.2289"/>
<polygon fill="#191970" stroke="#191970" points="594.6751,-587.8912 587.8025,-579.8279 588.1467,-590.4171 594.6751,-587.8912"/>
</g>
<!-- Node3 -->
<g id="node3" class="node">
<title>Node3</title>
<g id="a_node3"><a xlink:href="../../df/ddc/SOSFilter_8hpp.html" target="_top" xlink:title=" ">
<polygon fill="#ffffff" stroke="#000000" points="659,-672.5 659,-691.5 767,-691.5 767,-672.5 659,-672.5"/>
<text text-anchor="middle" x="713" y="-679.5" font-family="Helvetica,sans-Serif" font-size="10.00" fill="#000000">Filters/SOSFilter.hpp</text>
</a>
</g>
</g>
<!-- Node1&#45;&gt;Node3 -->
<g id="edge2" class="edge">
<title>Node1&#45;&gt;Node3</title>
<path fill="none" stroke="#191970" d="M660.1479,-728.2455C669.5087,-720.0549 683.0858,-708.1749 694.1349,-698.5069"/>
<polygon fill="#191970" stroke="#191970" points="696.7588,-700.8618 701.9798,-691.6427 692.1492,-695.5937 696.7588,-700.8618"/>
</g>
<!-- Node4 -->
<g id="node4" class="node">
<title>Node4</title>
<g id="a_node4"><a xlink:href="../../d5/db6/ArrayHelpers_8hpp.html" target="_top" xlink:title=" ">
<polygon fill="#ffffff" stroke="#000000" points="839,-560.5 839,-579.5 999,-579.5 999,-560.5 839,-560.5"/>
<text text-anchor="middle" x="919" y="-567.5" font-family="Helvetica,sans-Serif" font-size="10.00" fill="#000000">AH/Containers/ArrayHelpers.hpp</text>
</a>
</g>
</g>
<!-- Node3&#45;&gt;Node4 -->
<g id="edge3" class="edge">
<title>Node3&#45;&gt;Node4</title>
<path fill="none" stroke="#191970" d="M730.5634,-672.4509C766.7461,-652.7788 849.776,-607.6363 892.5134,-584.4005"/>
<polygon fill="#191970" stroke="#191970" points="894.3673,-587.3764 901.481,-579.5249 891.0237,-581.2266 894.3673,-587.3764"/>
</g>
<!-- Node27 -->
<g id="node27" class="node">
<title>Node27</title>
<g id="a_node27"><a xlink:href="../../d1/dde/BiQuad_8hpp.html" target="_top" xlink:title=" ">
<polygon fill="#ffffff" stroke="#000000" points="664,-616.5 664,-635.5 762,-635.5 762,-616.5 664,-616.5"/>
<text text-anchor="middle" x="713" y="-623.5" font-family="Helvetica,sans-Serif" font-size="10.00" fill="#000000">Filters/BiQuad.hpp</text>
</a>
</g>
</g>
<!-- Node3&#45;&gt;Node27 -->
<g id="edge43" class="edge">
<title>Node3&#45;&gt;Node27</title>
<path fill="none" stroke="#191970" d="M713,-672.2455C713,-664.9382 713,-654.6944 713,-645.7046"/>
<polygon fill="#191970" stroke="#191970" points="716.5001,-645.6426 713,-635.6427 709.5001,-645.6427 716.5001,-645.6426"/>
</g>
<!-- Node5 -->
<g id="node5" class="node">
<title>Node5</title>
<g id="a_node5"><a xlink:href="../../d1/d65/Warnings_8hpp.html" target="_top" xlink:title=" ">
<polygon fill="#ffffff" stroke="#000000" points="557.5,-.5 557.5,-19.5 690.5,-19.5 690.5,-.5 557.5,-.5"/>
<text text-anchor="middle" x="624" y="-7.5" font-family="Helvetica,sans-Serif" font-size="10.00" fill="#000000">AH/Settings/Warnings.hpp</text>
</a>
</g>
</g>
<!-- Node4&#45;&gt;Node5 -->
<g id="edge4" class="edge">
<title>Node4&#45;&gt;Node5</title>
<path fill="none" stroke="#191970" d="M948.2142,-560.3822C966.1513,-553.0632 988.2476,-541.2693 1002,-524 1021.0154,-500.1218 1021,-488.5246 1021,-458 1021,-458 1021,-458 1021,-178 1021,-144.5868 1009.7873,-134.4061 985,-112 961.2102,-90.4955 882.6476,-65.4402 852,-56 801.7706,-40.5281 743.6801,-28.898 698.7061,-21.2026"/>
<polygon fill="#191970" stroke="#191970" points="699.1784,-17.733 688.7361,-19.5242 698.0162,-24.6358 699.1784,-17.733"/>
</g>
<!-- Node6 -->
<g id="node6" class="node">
<title>Node6</title>
<g id="a_node6"><a xlink:href="../../de/d76/Array_8hpp.html" target="_top" xlink:title=" ">
<polygon fill="#ffffff" stroke="#000000" points="755.5,-504.5 755.5,-523.5 814.5,-523.5 814.5,-504.5 755.5,-504.5"/>
<text text-anchor="middle" x="785" y="-511.5" font-family="Helvetica,sans-Serif" font-size="10.00" fill="#000000">Array.hpp</text>
</a>
</g>
</g>
<!-- Node4&#45;&gt;Node6 -->
<g id="edge5" class="edge">
<title>Node4&#45;&gt;Node6</title>
<path fill="none" stroke="#191970" d="M895.9646,-560.3733C874.2612,-551.3032 841.5382,-537.6279 817.245,-527.4755"/>
<polygon fill="#191970" stroke="#191970" points="818.3111,-524.1278 807.7348,-523.5011 815.6119,-530.5865 818.3111,-524.1278"/>
</g>
<!-- Node9 -->
<g id="node9" class="node">
<title>Node9</title>
<g id="a_node9"><a xlink:href="../../dd/d80/PrintStream_8hpp.html" target="_top" xlink:title=" ">
<polygon fill="#ffffff" stroke="#000000" points="716.5,-280.5 716.5,-299.5 875.5,-299.5 875.5,-280.5 716.5,-280.5"/>
<text text-anchor="middle" x="796" y="-287.5" font-family="Helvetica,sans-Serif" font-size="10.00" fill="#000000">AH/PrintStream/PrintStream.hpp</text>
</a>
</g>
</g>
<!-- Node4&#45;&gt;Node9 -->
<g id="edge42" class="edge">
<title>Node4&#45;&gt;Node9</title>
<path fill="none" stroke="#191970" d="M911.976,-560.4717C905.4864,-551.3987 895.8432,-537.2059 889,-524 849.3882,-447.5582 815.683,-350.2412 802.2401,-309.4092"/>
<polygon fill="#191970" stroke="#191970" points="805.4902,-308.0862 799.0647,-299.6623 798.8346,-310.2546 805.4902,-308.0862"/>
</g>
<!-- Node26 -->
<g id="node26" class="node">
<title>Node26</title>
<g id="a_node26"><a xlink:title=" ">
<polygon fill="#ffffff" stroke="#bfbfbf" points="897.5,-504.5 897.5,-523.5 992.5,-523.5 992.5,-504.5 897.5,-504.5"/>
<text text-anchor="middle" x="945" y="-511.5" font-family="Helvetica,sans-Serif" font-size="10.00" fill="#000000">AH/STL/algorithm</text>
</a>
</g>
</g>
<!-- Node4&#45;&gt;Node26 -->
<g id="edge41" class="edge">
<title>Node4&#45;&gt;Node26</title>
<path fill="none" stroke="#191970" d="M923.5289,-560.2455C927.0334,-552.6973 931.9927,-542.0158 936.2623,-532.8197"/>
<polygon fill="#191970" stroke="#191970" points="939.4864,-534.1867 940.523,-523.6427 933.1373,-531.2389 939.4864,-534.1867"/>
</g>
<!-- Node6&#45;&gt;Node5 -->
<g id="edge6" class="edge">
<title>Node6&#45;&gt;Node5</title>
<path fill="none" stroke="#191970" d="M814.6426,-510.8974C869.878,-503.3025 983,-478.4197 983,-402 983,-402 983,-402 983,-178 983,-147.4754 985.4634,-133.7042 964,-112 943.1897,-90.9562 762.1679,-44.0612 673.0905,-21.9604"/>
<polygon fill="#191970" stroke="#191970" points="673.7634,-18.5214 663.2156,-19.5185 672.083,-25.3168 673.7634,-18.5214"/>
</g>
<!-- Node7 -->
<g id="node7" class="node">
<title>Node7</title>
<g id="a_node7"><a xlink:href="../../d1/d93/Error_8hpp.html" target="_top" xlink:title=" ">
<polygon fill="#ffffff" stroke="#000000" points="261,-448.5 261,-467.5 359,-467.5 359,-448.5 261,-448.5"/>
<text text-anchor="middle" x="310" y="-455.5" font-family="Helvetica,sans-Serif" font-size="10.00" fill="#000000">AH/Error/Error.hpp</text>
</a>
</g>
</g>
<!-- Node6&#45;&gt;Node7 -->
<g id="edge7" class="edge">
<title>Node6&#45;&gt;Node7</title>
<path fill="none" stroke="#191970" d="M755.2866,-510.4969C678.4117,-501.4338 471.8465,-477.0809 369.3532,-464.9974"/>
<polygon fill="#191970" stroke="#191970" points="369.512,-461.492 359.1709,-463.797 368.6923,-468.4438 369.512,-461.492"/>
</g>
<!-- Node15 -->
<g id="node15" class="node">
<title>Node15</title>
<g id="a_node15"><a xlink:title=" ">
<polygon fill="#ffffff" stroke="#bfbfbf" points="853.5,-112.5 853.5,-131.5 954.5,-131.5 954.5,-112.5 853.5,-112.5"/>
<text text-anchor="middle" x="904" y="-119.5" font-family="Helvetica,sans-Serif" font-size="10.00" fill="#000000">AH/STL/type_traits</text>
</a>
</g>
</g>
<!-- Node6&#45;&gt;Node15 -->
<g id="edge39" class="edge">
<title>Node6&#45;&gt;Node15</title>
<path fill="none" stroke="#191970" d="M798.5361,-504.3388C829.5309,-480.974 903,-417.9975 903,-346 903,-346 903,-346 903,-234 903,-201.7103 903.4207,-164.1863 903.7164,-141.8043"/>
<polygon fill="#191970" stroke="#191970" points="907.219,-141.6353 903.8567,-131.5881 900.2196,-141.5391 907.219,-141.6353"/>
</g>
<!-- Node21 -->
<g id="node21" class="node">
<title>Node21</title>
<g id="a_node21"><a xlink:title=" ">
<polygon fill="#ffffff" stroke="#bfbfbf" points="571,-224.5 571,-243.5 623,-243.5 623,-224.5 571,-224.5"/>
<text text-anchor="middle" x="597" y="-231.5" font-family="Helvetica,sans-Serif" font-size="10.00" fill="#000000">stddef.h</text>
</a>
</g>
</g>
<!-- Node6&#45;&gt;Node21 -->
<g id="edge40" class="edge">
<title>Node6&#45;&gt;Node21</title>
<path fill="none" stroke="#191970" d="M759.7657,-504.4038C743.1205,-496.863 722.0558,-484.8092 709,-468 690.1985,-443.7933 689,-432.6506 689,-402 689,-402 689,-402 689,-346 689,-303.5397 649.0299,-268.3942 621.781,-249.3678"/>
<polygon fill="#191970" stroke="#191970" points="623.7,-246.4405 613.4478,-243.768 619.7957,-252.2506 623.7,-246.4405"/>
</g>
<!-- Node25 -->
<g id="node25" class="node">
<title>Node25</title>
<g id="a_node25"><a xlink:title=" ">
<polygon fill="#ffffff" stroke="#bfbfbf" points="717.5,-448.5 717.5,-467.5 802.5,-467.5 802.5,-448.5 717.5,-448.5"/>
<text text-anchor="middle" x="760" y="-455.5" font-family="Helvetica,sans-Serif" font-size="10.00" fill="#000000">AH/STL/iterator</text>
</a>
</g>
</g>
<!-- Node6&#45;&gt;Node25 -->
<g id="edge38" class="edge">
<title>Node6&#45;&gt;Node25</title>
<path fill="none" stroke="#191970" d="M780.6453,-504.2455C777.2756,-496.6973 772.507,-486.0158 768.4017,-476.8197"/>
<polygon fill="#191970" stroke="#191970" points="771.5773,-475.3473 764.3048,-467.6427 765.1853,-478.2009 771.5773,-475.3473"/>
</g>
<!-- Node7&#45;&gt;Node5 -->
<g id="edge8" class="edge">
<title>Node7&#45;&gt;Node5</title>
<path fill="none" stroke="#191970" d="M260.8796,-450.688C173.468,-436.2825 0,-400.7923 0,-346 0,-346 0,-346 0,-122 0,-63.0696 58.7996,-73.7286 115,-56 193.4975,-31.2377 425.5674,-18.2064 547.3777,-12.9086"/>
<polygon fill="#191970" stroke="#191970" points="547.5425,-16.4049 557.3836,-12.4801 547.2429,-9.4113 547.5425,-16.4049"/>
</g>
<!-- Node8 -->
<g id="node8" class="node">
<title>Node8</title>
<g id="a_node8"><a xlink:href="../../df/dee/Debug_8hpp.html" target="_top" xlink:title=" ">
<polygon fill="#ffffff" stroke="#000000" points="253.5,-392.5 253.5,-411.5 366.5,-411.5 366.5,-392.5 253.5,-392.5"/>
<text text-anchor="middle" x="310" y="-399.5" font-family="Helvetica,sans-Serif" font-size="10.00" fill="#000000">AH/Debug/Debug.hpp</text>
</a>
</g>
</g>
<!-- Node7&#45;&gt;Node8 -->
<g id="edge9" class="edge">
<title>Node7&#45;&gt;Node8</title>
<path fill="none" stroke="#191970" d="M310,-448.2455C310,-440.9382 310,-430.6944 310,-421.7046"/>
<polygon fill="#191970" stroke="#191970" points="313.5001,-421.6426 310,-411.6427 306.5001,-421.6427 313.5001,-421.6426"/>
</g>
<!-- Node8&#45;&gt;Node5 -->
<g id="edge10" class="edge">
<title>Node8&#45;&gt;Node5</title>
<path fill="none" stroke="#191970" d="M269.5522,-392.4325C223.1245,-379.3668 147.8794,-351.4592 105,-300 85.4595,-276.5496 86,-264.5246 86,-234 86,-234 86,-234 86,-122 86,-66.8799 138.9169,-74.0437 191,-56 254.9227,-33.8545 441.1065,-20.1902 547.3551,-13.9725"/>
<polygon fill="#191970" stroke="#191970" points="547.5992,-17.4643 557.3809,-13.394 547.1959,-10.476 547.5992,-17.4643"/>
</g>
<!-- Node8&#45;&gt;Node9 -->
<g id="edge11" class="edge">
<title>Node8&#45;&gt;Node9</title>
<path fill="none" stroke="#191970" d="M351.4361,-392.4509C440.1168,-372.0142 648.0786,-324.0889 744.8255,-301.7933"/>
<polygon fill="#191970" stroke="#191970" points="745.7102,-305.1812 754.6688,-299.5249 744.1382,-298.36 745.7102,-305.1812"/>
</g>
<!-- Node16 -->
<g id="node16" class="node">
<title>Node16</title>
<g id="a_node16"><a xlink:href="../../d2/dd5/SettingsWrapper_8hpp.html" target="_top" xlink:title=" ">
<polygon fill="#ffffff" stroke="#000000" points="228,-336.5 228,-355.5 392,-355.5 392,-336.5 228,-336.5"/>
<text text-anchor="middle" x="310" y="-343.5" font-family="Helvetica,sans-Serif" font-size="10.00" fill="#000000">AH/Settings/SettingsWrapper.hpp</text>
</a>
</g>
</g>
<!-- Node8&#45;&gt;Node16 -->
<g id="edge22" class="edge">
<title>Node8&#45;&gt;Node16</title>
<path fill="none" stroke="#191970" d="M304.7332,-392.2455C303.3221,-384.9382 302.9179,-374.6944 303.5205,-365.7046"/>
<polygon fill="#191970" stroke="#191970" points="307.0111,-365.9945 304.7549,-355.6427 300.0632,-365.1421 307.0111,-365.9945"/>
</g>
<!-- Node24 -->
<g id="node24" class="node">
<title>Node24</title>
<g id="a_node24"><a xlink:href="../../d7/d52/DebugVal_8hpp.html" target="_top" xlink:title=" ">
<polygon fill="#ffffff" stroke="#000000" points="28,-336.5 28,-355.5 106,-355.5 106,-336.5 28,-336.5"/>
<text text-anchor="middle" x="67" y="-343.5" font-family="Helvetica,sans-Serif" font-size="10.00" fill="#000000">DebugVal.hpp</text>
</a>
</g>
</g>
<!-- Node8&#45;&gt;Node24 -->
<g id="edge37" class="edge">
<title>Node8&#45;&gt;Node24</title>
<path fill="none" stroke="#191970" d="M268.5029,-392.4369C226.2852,-382.7077 160.869,-367.6324 116.0986,-357.3149"/>
<polygon fill="#191970" stroke="#191970" points="116.8444,-353.8951 106.3138,-355.06 115.2724,-360.7163 116.8444,-353.8951"/>
</g>
<!-- Node9&#45;&gt;Node5 -->
<g id="edge12" class="edge">
<title>Node9&#45;&gt;Node5</title>
<path fill="none" stroke="#191970" d="M785.4168,-280.3386C760.5793,-257.1218 698.0126,-195.4024 663,-132 644.4497,-98.4081 633.1868,-54.6664 627.816,-29.7236"/>
<polygon fill="#191970" stroke="#191970" points="631.196,-28.7829 625.7579,-19.6902 624.3388,-30.1896 631.196,-28.7829"/>
</g>
<!-- Node10 -->
<g id="node10" class="node">
<title>Node10</title>
<g id="a_node10"><a xlink:href="../../d6/ddf/Arduino-Wrapper_8h.html" target="_top" xlink:title=" ">
<polygon fill="#ffffff" stroke="#000000" points="738.5,-168.5 738.5,-187.5 853.5,-187.5 853.5,-168.5 738.5,-168.5"/>
<text text-anchor="middle" x="796" y="-175.5" font-family="Helvetica,sans-Serif" font-size="10.00" fill="#000000">AH/Arduino&#45;Wrapper.h</text>
</a>
</g>
</g>
<!-- Node9&#45;&gt;Node10 -->
<g id="edge13" class="edge">
<title>Node9&#45;&gt;Node10</title>
<path fill="none" stroke="#191970" d="M796,-280.4509C796,-262.184 796,-221.9553 796,-197.6976"/>
<polygon fill="#191970" stroke="#191970" points="799.5001,-197.5249 796,-187.5249 792.5001,-197.5249 799.5001,-197.5249"/>
</g>
<!-- Node11 -->
<g id="node11" class="node">
<title>Node11</title>
<g id="a_node11"><a xlink:href="../../d7/d79/MinMaxFix_8hpp.html" target="_top" xlink:title=" ">
<polygon fill="#ffffff" stroke="#000000" points="671.5,-112.5 671.5,-131.5 796.5,-131.5 796.5,-112.5 671.5,-112.5"/>
<text text-anchor="middle" x="734" y="-119.5" font-family="Helvetica,sans-Serif" font-size="10.00" fill="#000000">AH/Math/MinMaxFix.hpp</text>
</a>
</g>
</g>
<!-- Node10&#45;&gt;Node11 -->
<g id="edge14" class="edge">
<title>Node10&#45;&gt;Node11</title>
<path fill="none" stroke="#191970" d="M785.2004,-168.2455C776.1322,-160.0549 762.9794,-148.1749 752.2755,-138.5069"/>
<polygon fill="#191970" stroke="#191970" points="754.4429,-135.7482 744.6758,-131.6427 749.7509,-140.9429 754.4429,-135.7482"/>
</g>
<!-- Node13 -->
<g id="node13" class="node">
<title>Node13</title>
<g id="a_node13"><a xlink:title=" ">
<polygon fill="#ffffff" stroke="#bfbfbf" points="1032,-.5 1032,-19.5 1090,-19.5 1090,-.5 1032,-.5"/>
<text text-anchor="middle" x="1061" y="-7.5" font-family="Helvetica,sans-Serif" font-size="10.00" fill="#000000">Arduino.h</text>
</a>
</g>
</g>
<!-- Node10&#45;&gt;Node13 -->
<g id="edge21" class="edge">
<title>Node10&#45;&gt;Node13</title>
<path fill="none" stroke="#191970" d="M800.0953,-168.4654C806.9995,-153.6592 822.4453,-125.4462 845,-112 941.4228,-54.5168 1021.4964,-160.8463 1095,-76 1107.7466,-61.2864 1093.619,-40.9619 1079.8904,-26.7682"/>
<polygon fill="#191970" stroke="#191970" points="1082.0957,-24.0316 1072.4777,-19.5881 1077.2255,-29.0596 1082.0957,-24.0316"/>
</g>
<!-- Node10&#45;&gt;Node15 -->
<g id="edge20" class="edge">
<title>Node10&#45;&gt;Node15</title>
<path fill="none" stroke="#191970" d="M814.8122,-168.2455C831.8473,-159.4125 857.1575,-146.2887 876.4681,-136.2758"/>
<polygon fill="#191970" stroke="#191970" points="878.137,-139.353 885.4034,-131.6427 874.9147,-133.1388 878.137,-139.353"/>
</g>
<!-- Node11&#45;&gt;Node5 -->
<g id="edge15" class="edge">
<title>Node11&#45;&gt;Node5</title>
<path fill="none" stroke="#191970" d="M724.6215,-112.4509C705.9501,-93.4401 663.9166,-50.6423 640.5158,-26.816"/>
<polygon fill="#191970" stroke="#191970" points="642.859,-24.2069 633.3548,-19.5249 637.8648,-29.1119 642.859,-24.2069"/>
</g>
<!-- Node12 -->
<g id="node12" class="node">
<title>Node12</title>
<g id="a_node12"><a xlink:href="../../d6/d3b/FixArduinoMacros_8hpp.html" target="_top" xlink:title=" ">
<polygon fill="#ffffff" stroke="#000000" points="930,-56.5 930,-75.5 1086,-75.5 1086,-56.5 930,-56.5"/>
<text text-anchor="middle" x="1008" y="-63.5" font-family="Helvetica,sans-Serif" font-size="10.00" fill="#000000">AH/Math/FixArduinoMacros.hpp</text>
</a>
</g>
</g>
<!-- Node11&#45;&gt;Node12 -->
<g id="edge16" class="edge">
<title>Node11&#45;&gt;Node12</title>
<path fill="none" stroke="#191970" d="M780.791,-112.4369C827.9795,-102.7925 900.872,-87.8948 951.3124,-77.5858"/>
<polygon fill="#191970" stroke="#191970" points="952.3054,-80.9553 961.402,-75.5237 950.9037,-74.097 952.3054,-80.9553"/>
</g>
<!-- Node14 -->
<g id="node14" class="node">
<title>Node14</title>
<g id="a_node14"><a xlink:href="../../dc/dc7/NamespaceSettings_8hpp.html" target="_top" xlink:title=" ">
<polygon fill="#ffffff" stroke="#000000" points="217,-56.5 217,-75.5 397,-75.5 397,-56.5 217,-56.5"/>
<text text-anchor="middle" x="307" y="-63.5" font-family="Helvetica,sans-Serif" font-size="10.00" fill="#000000">AH/Settings/NamespaceSettings.hpp</text>
</a>
</g>
</g>
<!-- Node11&#45;&gt;Node14 -->
<g id="edge19" class="edge">
<title>Node11&#45;&gt;Node14</title>
<path fill="none" stroke="#191970" d="M671.4532,-113.7971C596.9585,-104.0273 472.2639,-87.674 389.8193,-76.8616"/>
<polygon fill="#191970" stroke="#191970" points="390.1007,-73.3686 379.7305,-75.5384 389.1904,-80.3091 390.1007,-73.3686"/>
</g>
<!-- Node12&#45;&gt;Node5 -->
<g id="edge17" class="edge">
<title>Node12&#45;&gt;Node5</title>
<path fill="none" stroke="#191970" d="M942.4244,-56.4369C875.049,-46.6113 770.2841,-31.3331 699.4945,-21.0096"/>
<polygon fill="#191970" stroke="#191970" points="699.7056,-17.5035 689.3052,-19.5237 698.6954,-24.4302 699.7056,-17.5035"/>
</g>
<!-- Node12&#45;&gt;Node13 -->
<g id="edge18" class="edge">
<title>Node12&#45;&gt;Node13</title>
<path fill="none" stroke="#191970" d="M1017.2319,-56.2455C1024.8317,-48.2155 1035.7877,-36.6394 1044.8368,-27.0781"/>
<polygon fill="#191970" stroke="#191970" points="1047.5421,-29.3115 1051.8739,-19.6427 1042.458,-24.4998 1047.5421,-29.3115"/>
</g>
<!-- Node16&#45;&gt;Node5 -->
<g id="edge23" class="edge">
<title>Node16&#45;&gt;Node5</title>
<path fill="none" stroke="#191970" d="M365.5424,-336.4726C448.9669,-320.9036 600.2583,-287.351 632,-244 644.4727,-226.9656 631.4322,-83.4655 626.0742,-29.9842"/>
<polygon fill="#191970" stroke="#191970" points="629.5272,-29.3449 625.0319,-19.7511 622.5633,-30.0543 629.5272,-29.3449"/>
</g>
<!-- Node16&#45;&gt;Node8 -->
<g id="edge36" class="edge">
<title>Node16&#45;&gt;Node8</title>
<path fill="none" stroke="#191970" d="M315.2451,-355.6427C316.6665,-362.9199 317.081,-373.155 316.4887,-382.1575"/>
<polygon fill="#191970" stroke="#191970" points="312.9947,-381.8972 315.2668,-392.2455 319.9439,-382.739 312.9947,-381.8972"/>
</g>
<!-- Node16&#45;&gt;Node14 -->
<g id="edge24" class="edge">
<title>Node16&#45;&gt;Node14</title>
<path fill="none" stroke="#191970" d="M308.428,-336.148C306.028,-322.834 300.676,-298.6218 291,-280 281.5269,-261.7686 268.8335,-263.3759 262,-244 242.0159,-187.3363 275.8596,-117.6109 295.0962,-84.781"/>
<polygon fill="#191970" stroke="#191970" points="298.3301,-86.198 300.5214,-75.8323 292.3442,-82.569 298.3301,-86.198"/>
</g>
<!-- Node17 -->
<g id="node17" class="node">
<title>Node17</title>
<g id="a_node17"><a xlink:href="../../db/d02/Settings_8hpp.html" target="_top" xlink:title="All user settings and debugging options can be changed here.">
<polygon fill="#ffffff" stroke="#000000" points="338.5,-280.5 338.5,-299.5 409.5,-299.5 409.5,-280.5 338.5,-280.5"/>
<text text-anchor="middle" x="374" y="-287.5" font-family="Helvetica,sans-Serif" font-size="10.00" fill="#000000">Settings.hpp</text>
</a>
</g>
</g>
<!-- Node16&#45;&gt;Node17 -->
<g id="edge25" class="edge">
<title>Node16&#45;&gt;Node17</title>
<path fill="none" stroke="#191970" d="M321.1479,-336.2455C330.5087,-328.0549 344.0858,-316.1749 355.1349,-306.5069"/>
<polygon fill="#191970" stroke="#191970" points="357.7588,-308.8618 362.9798,-299.6427 353.1492,-303.5937 357.7588,-308.8618"/>
</g>
<!-- Node23 -->
<g id="node23" class="node">
<title>Node23</title>
<g id="a_node23"><a xlink:href="../../d9/d98/TeensyUSBTypes_8hpp.html" target="_top" xlink:title=" ">
<polygon fill="#ffffff" stroke="#000000" points="114,-280.5 114,-299.5 282,-299.5 282,-280.5 114,-280.5"/>
<text text-anchor="middle" x="198" y="-287.5" font-family="Helvetica,sans-Serif" font-size="10.00" fill="#000000">AH/Teensy/TeensyUSBTypes.hpp</text>
</a>
</g>
</g>
<!-- Node16&#45;&gt;Node23 -->
<g id="edge35" class="edge">
<title>Node16&#45;&gt;Node23</title>
<path fill="none" stroke="#191970" d="M290.7465,-336.3733C272.9288,-327.4644 246.2253,-314.1127 226.0406,-304.0203"/>
<polygon fill="#191970" stroke="#191970" points="227.5118,-300.8428 217.0022,-299.5011 224.3813,-307.1038 227.5118,-300.8428"/>
</g>
<!-- Node18 -->
<g id="node18" class="node">
<title>Node18</title>
<g id="a_node18"><a xlink:href="../../dc/d50/Frequency_8hpp.html" target="_top" xlink:title=" ">
<polygon fill="#ffffff" stroke="#000000" points="125,-112.5 125,-131.5 253,-131.5 253,-112.5 125,-112.5"/>
<text text-anchor="middle" x="189" y="-119.5" font-family="Helvetica,sans-Serif" font-size="10.00" fill="#000000">AH/Types/Frequency.hpp</text>
</a>
</g>
</g>
<!-- Node17&#45;&gt;Node18 -->
<g id="edge26" class="edge">
<title>Node17&#45;&gt;Node18</title>
<path fill="none" stroke="#191970" d="M338.3048,-281.6754C314.5916,-274.7253 283.907,-262.8543 262,-244 228.7859,-215.4142 206.5306,-167.8006 196.0085,-141.2998"/>
<polygon fill="#191970" stroke="#191970" points="199.1634,-139.7498 192.3296,-131.6535 192.6229,-142.2443 199.1634,-139.7498"/>
</g>
<!-- Node19 -->
<g id="node19" class="node">
<title>Node19</title>
<g id="a_node19"><a xlink:href="../../d7/d7c/ADCConfig_8hpp.html" target="_top" xlink:title="This file contains the platform&#45;specific ADC resolutions. By default, the library automatically selec...">
<polygon fill="#ffffff" stroke="#000000" points="405,-224.5 405,-243.5 553,-243.5 553,-224.5 405,-224.5"/>
<text text-anchor="middle" x="479" y="-231.5" font-family="Helvetica,sans-Serif" font-size="10.00" fill="#000000">AH/Hardware/ADCConfig.hpp</text>
</a>
</g>
</g>
<!-- Node17&#45;&gt;Node19 -->
<g id="edge29" class="edge">
<title>Node17&#45;&gt;Node19</title>
<path fill="none" stroke="#191970" d="M392.2896,-280.2455C408.7762,-271.4527 433.2352,-258.4079 451.9765,-248.4125"/>
<polygon fill="#191970" stroke="#191970" points="453.7435,-251.4368 460.92,-243.6427 450.4494,-245.2604 453.7435,-251.4368"/>
</g>
<!-- Node20 -->
<g id="node20" class="node">
<title>Node20</title>
<g id="a_node20"><a xlink:title=" ">
<polygon fill="#ffffff" stroke="#bfbfbf" points="271,-224.5 271,-243.5 319,-243.5 319,-224.5 271,-224.5"/>
<text text-anchor="middle" x="295" y="-231.5" font-family="Helvetica,sans-Serif" font-size="10.00" fill="#000000">limits.h</text>
</a>
</g>
</g>
<!-- Node17&#45;&gt;Node20 -->
<g id="edge32" class="edge">
<title>Node17&#45;&gt;Node20</title>
<path fill="none" stroke="#191970" d="M360.2393,-280.2455C348.3448,-271.814 330.935,-259.4729 317.0915,-249.6598"/>
<polygon fill="#191970" stroke="#191970" points="318.7854,-246.5704 308.6031,-243.6427 314.7372,-252.2811 318.7854,-246.5704"/>
</g>
<!-- Node17&#45;&gt;Node21 -->
<g id="edge33" class="edge">
<title>Node17&#45;&gt;Node21</title>
<path fill="none" stroke="#191970" d="M409.7945,-281.6729C445.697,-273.2253 502.797,-259.5324 560.9399,-244.2161"/>
<polygon fill="#191970" stroke="#191970" points="561.8854,-247.5865 570.6566,-241.6437 560.0939,-240.8196 561.8854,-247.5865"/>
</g>
<!-- Node22 -->
<g id="node22" class="node">
<title>Node22</title>
<g id="a_node22"><a xlink:title=" ">
<polygon fill="#ffffff" stroke="#bfbfbf" points="337.5,-224.5 337.5,-243.5 386.5,-243.5 386.5,-224.5 337.5,-224.5"/>
<text text-anchor="middle" x="362" y="-231.5" font-family="Helvetica,sans-Serif" font-size="10.00" fill="#000000">stdint.h</text>
</a>
</g>
</g>
<!-- Node17&#45;&gt;Node22 -->
<g id="edge34" class="edge">
<title>Node17&#45;&gt;Node22</title>
<path fill="none" stroke="#191970" d="M371.9098,-280.2455C370.3439,-272.9382 368.1488,-262.6944 366.2224,-253.7046"/>
<polygon fill="#191970" stroke="#191970" points="369.584,-252.6873 364.0663,-243.6427 362.7393,-254.1541 369.584,-252.6873"/>
</g>
<!-- Node18&#45;&gt;Node5 -->
<g id="edge27" class="edge">
<title>Node18&#45;&gt;Node5</title>
<path fill="none" stroke="#191970" d="M188.6854,-112.1497C188.8036,-97.4438 191.4065,-69.9854 208,-56 233.3485,-34.6357 433.9556,-20.3551 547.0703,-13.9155"/>
<polygon fill="#191970" stroke="#191970" points="547.2779,-17.4095 557.0658,-13.3539 546.8851,-10.4205 547.2779,-17.4095"/>
</g>
<!-- Node18&#45;&gt;Node14 -->
<g id="edge28" class="edge">
<title>Node18&#45;&gt;Node14</title>
<path fill="none" stroke="#191970" d="M209.2849,-112.3733C228.1421,-103.4241 256.446,-89.9917 277.7455,-79.8835"/>
<polygon fill="#191970" stroke="#191970" points="279.4461,-82.9506 286.9798,-75.5011 276.4449,-76.6266 279.4461,-82.9506"/>
</g>
<!-- Node19&#45;&gt;Node5 -->
<g id="edge30" class="edge">
<title>Node19&#45;&gt;Node5</title>
<path fill="none" stroke="#191970" d="M484.8666,-224.22C501.1716,-197.1408 548.6243,-119.0213 591,-56 597.2829,-46.656 604.5512,-36.4629 610.6648,-28.0519"/>
<polygon fill="#191970" stroke="#191970" points="613.6603,-29.8852 616.7441,-19.749 608.0124,-25.7498 613.6603,-29.8852"/>
</g>
<!-- Node19&#45;&gt;Node10 -->
<g id="edge31" class="edge">
<title>Node19&#45;&gt;Node10</title>
<path fill="none" stroke="#191970" d="M533.1341,-224.4369C588.298,-214.6918 673.8237,-199.5832 732.2351,-189.2645"/>
<polygon fill="#191970" stroke="#191970" points="732.8506,-192.71 742.0892,-187.5237 731.6328,-185.8167 732.8506,-192.71"/>
</g>
<!-- Node27&#45;&gt;Node2 -->
<g id="edge45" class="edge">
<title>Node27&#45;&gt;Node2</title>
<path fill="none" stroke="#191970" d="M690.8241,-616.3733C670.0234,-607.3435 638.7083,-593.7494 615.3542,-583.6111"/>
<polygon fill="#191970" stroke="#191970" points="616.4532,-580.2727 605.8865,-579.5011 613.6657,-586.6938 616.4532,-580.2727"/>
</g>
<!-- Node27&#45;&gt;Node6 -->
<g id="edge44" class="edge">
<title>Node27&#45;&gt;Node6</title>
<path fill="none" stroke="#191970" d="M744.5032,-616.3744C761.8159,-609.2912 781.796,-597.7494 792,-580 800.1459,-565.8306 797.1159,-547.1009 792.7938,-533.2146"/>
<polygon fill="#191970" stroke="#191970" points="796.0551,-531.9396 789.4005,-523.6954 789.4615,-534.2901 796.0551,-531.9396"/>
</g>
<!-- Node28 -->
<g id="node28" class="node">
<title>Node28</title>
<g id="a_node28"><a xlink:href="../../d2/d03/TransferFunction_8hpp.html" target="_top" xlink:title=" ">
<polygon fill="#ffffff" stroke="#000000" points="643.5,-560.5 643.5,-579.5 782.5,-579.5 782.5,-560.5 643.5,-560.5"/>
<text text-anchor="middle" x="713" y="-567.5" font-family="Helvetica,sans-Serif" font-size="10.00" fill="#000000">Filters/TransferFunction.hpp</text>
</a>
</g>
</g>
<!-- Node27&#45;&gt;Node28 -->
<g id="edge46" class="edge">
<title>Node27&#45;&gt;Node28</title>
<path fill="none" stroke="#191970" d="M713,-616.2455C713,-608.9382 713,-598.6944 713,-589.7046"/>
<polygon fill="#191970" stroke="#191970" points="716.5001,-589.6426 713,-579.6427 709.5001,-589.6427 716.5001,-589.6426"/>
</g>
<!-- Node28&#45;&gt;Node6 -->
<g id="edge47" class="edge">
<title>Node28&#45;&gt;Node6</title>
<path fill="none" stroke="#191970" d="M725.5414,-560.2455C736.2787,-551.8943 751.9473,-539.7076 764.5047,-529.9408"/>
<polygon fill="#191970" stroke="#191970" points="766.8575,-532.5449 772.6023,-523.6427 762.5599,-527.0194 766.8575,-532.5449"/>
</g>
</g>
</svg>
