<?xml version="1.0" encoding="UTF-8" standalone="no"?>
<!DOCTYPE svg PUBLIC "-//W3C//DTD SVG 1.1//EN"
 "http://www.w3.org/Graphics/SVG/1.1/DTD/svg11.dtd">
<!-- Generated by graphviz version 2.38.0 (20140413.2041)
 -->
<!-- Title: Butterworth.hpp Pages: 1 -->
<svg width="1108pt" height="756pt"
 viewBox="0.00 0.00 1108.07 756.00" xmlns="http://www.w3.org/2000/svg" xmlns:xlink="http://www.w3.org/1999/xlink">
<g id="graph0" class="graph" transform="scale(1 1) rotate(0) translate(4 752)">
<title>Butterworth.hpp</title>
<polygon fill="white" stroke="none" points="-4,4 -4,-752 1104.07,-752 1104.07,4 -4,4"/>
<!-- Node1 -->
<g id="node1" class="node"><title>Node1</title>
<g id="a_node1"><a xlink:title=" ">
<polygon fill="#bfbfbf" stroke="black" points="618,-728.5 618,-747.5 704,-747.5 704,-728.5 618,-728.5"/>
<text text-anchor="middle" x="661" y="-735.5" font-family="Helvetica,sans-Serif" font-size="10.00">Butterworth.hpp</text>
</a>
</g>
</g>
<!-- Node2 -->
<g id="node2" class="node"><title>Node2</title>
<g id="a_node2"><a xlink:title=" ">
<polygon fill="white" stroke="#bfbfbf" points="544,-560.5 544,-579.5 626,-579.5 626,-560.5 544,-560.5"/>
<text text-anchor="middle" x="585" y="-567.5" font-family="Helvetica,sans-Serif" font-size="10.00">AH/STL/cmath</text>
</a>
</g>
</g>
<!-- Node1&#45;&gt;Node2 -->
<g id="edge1" class="edge"><title>Node1&#45;&gt;Node2</title>
<path fill="none" stroke="midnightblue" d="M656.914,-728.075C644.847,-701.719 609.209,-623.878 593.086,-588.661"/>
<polygon fill="midnightblue" stroke="midnightblue" points="596.268,-587.204 588.923,-579.568 589.903,-590.117 596.268,-587.204"/>
</g>
<!-- Node3 -->
<g id="node3" class="node"><title>Node3</title>
<g id="a_node3"><a xlink:href="../../df/ddc/SOSFilter_8hpp.html" target="_top" xlink:title=" ">
<polygon fill="white" stroke="black" points="660,-672.5 660,-691.5 768,-691.5 768,-672.5 660,-672.5"/>
<text text-anchor="middle" x="714" y="-679.5" font-family="Helvetica,sans-Serif" font-size="10.00">Filters/SOSFilter.hpp</text>
</a>
</g>
</g>
<!-- Node1&#45;&gt;Node3 -->
<g id="edge2" class="edge"><title>Node1&#45;&gt;Node3</title>
<path fill="none" stroke="midnightblue" d="M669.752,-728.083C677.47,-720.22 688.905,-708.569 698.217,-699.081"/>
<polygon fill="midnightblue" stroke="midnightblue" points="700.904,-701.34 705.411,-691.751 695.908,-696.436 700.904,-701.34"/>
</g>
<!-- Node4 -->
<g id="node4" class="node"><title>Node4</title>
<g id="a_node4"><a xlink:href="../../d5/db6/ArrayHelpers_8hpp.html" target="_top" xlink:title=" ">
<polygon fill="white" stroke="black" points="840,-560.5 840,-579.5 1000,-579.5 1000,-560.5 840,-560.5"/>
<text text-anchor="middle" x="920" y="-567.5" font-family="Helvetica,sans-Serif" font-size="10.00">AH/Containers/ArrayHelpers.hpp</text>
</a>
</g>
</g>
<!-- Node3&#45;&gt;Node4 -->
<g id="edge3" class="edge"><title>Node3&#45;&gt;Node4</title>
<path fill="none" stroke="midnightblue" d="M730.164,-672.368C765.965,-653.251 852.153,-607.229 894.979,-584.361"/>
<polygon fill="midnightblue" stroke="midnightblue" points="896.738,-587.389 903.911,-579.591 893.441,-581.214 896.738,-587.389"/>
</g>
<!-- Node27 -->
<g id="node27" class="node"><title>Node27</title>
<g id="a_node27"><a xlink:href="../../d1/dde/BiQuad_8hpp.html" target="_top" xlink:title=" ">
<polygon fill="white" stroke="black" points="665,-616.5 665,-635.5 763,-635.5 763,-616.5 665,-616.5"/>
<text text-anchor="middle" x="714" y="-623.5" font-family="Helvetica,sans-Serif" font-size="10.00">Filters/BiQuad.hpp</text>
</a>
</g>
</g>
<!-- Node3&#45;&gt;Node27 -->
<g id="edge43" class="edge"><title>Node3&#45;&gt;Node27</title>
<path fill="none" stroke="midnightblue" d="M714,-672.083C714,-665.006 714,-654.861 714,-645.986"/>
<polygon fill="midnightblue" stroke="midnightblue" points="717.5,-645.751 714,-635.751 710.5,-645.751 717.5,-645.751"/>
</g>
<!-- Node5 -->
<g id="node5" class="node"><title>Node5</title>
<g id="a_node5"><a xlink:href="../../d1/d65/Warnings_8hpp.html" target="_top" xlink:title=" ">
<polygon fill="white" stroke="black" points="557.5,-0.5 557.5,-19.5 690.5,-19.5 690.5,-0.5 557.5,-0.5"/>
<text text-anchor="middle" x="624" y="-7.5" font-family="Helvetica,sans-Serif" font-size="10.00">AH/Settings/Warnings.hpp</text>
</a>
</g>
</g>
<!-- Node4&#45;&gt;Node5 -->
<g id="edge4" class="edge"><title>Node4&#45;&gt;Node5</title>
<path fill="none" stroke="midnightblue" d="M946.871,-560.421C964.906,-553.353 987.866,-541.599 1002,-524 1020.85,-500.533 1021,-489.098 1021,-459 1021,-459 1021,-459 1021,-177 1021,-143.976 1009.57,-134.066 985,-112 961.141,-90.5723 882.667,-65.3756 852,-56 800.346,-40.2084 740.364,-28.6268 694.891,-21.1706"/>
<polygon fill="midnightblue" stroke="midnightblue" points="695.262,-17.6852 684.832,-19.5496 694.148,-24.5961 695.262,-17.6852"/>
</g>
<!-- Node6 -->
<g id="node6" class="node"><title>Node6</title>
<g id="a_node6"><a xlink:href="../../de/d76/Array_8hpp.html" target="_top" xlink:title=" ">
<polygon fill="white" stroke="black" points="756.5,-504.5 756.5,-523.5 815.5,-523.5 815.5,-504.5 756.5,-504.5"/>
<text text-anchor="middle" x="786" y="-511.5" font-family="Helvetica,sans-Serif" font-size="10.00">Array.hpp</text>
</a>
</g>
</g>
<!-- Node4&#45;&gt;Node6 -->
<g id="edge5" class="edge"><title>Node4&#45;&gt;Node6</title>
<path fill="none" stroke="midnightblue" d="M898.767,-560.444C876.616,-551.517 841.681,-537.439 816.564,-527.317"/>
<polygon fill="midnightblue" stroke="midnightblue" points="817.717,-524.008 807.133,-523.516 815.1,-530.501 817.717,-524.008"/>
</g>
<!-- Node9 -->
<g id="node9" class="node"><title>Node9</title>
<g id="a_node9"><a xlink:href="../../dd/d80/PrintStream_8hpp.html" target="_top" xlink:title=" ">
<polygon fill="white" stroke="black" points="716.5,-280.5 716.5,-299.5 875.5,-299.5 875.5,-280.5 716.5,-280.5"/>
<text text-anchor="middle" x="796" y="-287.5" font-family="Helvetica,sans-Serif" font-size="10.00">AH/PrintStream/PrintStream.hpp</text>
</a>
</g>
</g>
<!-- Node4&#45;&gt;Node9 -->
<g id="edge42" class="edge"><title>Node4&#45;&gt;Node9</title>
<path fill="none" stroke="midnightblue" d="M913.214,-560.407C906.482,-551.615 896.164,-537.382 889,-524 848.228,-447.835 814.806,-349.82 801.821,-309.538"/>
<polygon fill="midnightblue" stroke="midnightblue" points="805.081,-308.24 798.712,-299.774 798.411,-310.364 805.081,-308.24"/>
</g>
<!-- Node26 -->
<g id="node26" class="node"><title>Node26</title>
<g id="a_node26"><a xlink:title=" ">
<polygon fill="white" stroke="#bfbfbf" points="897.5,-504.5 897.5,-523.5 992.5,-523.5 992.5,-504.5 897.5,-504.5"/>
<text text-anchor="middle" x="945" y="-511.5" font-family="Helvetica,sans-Serif" font-size="10.00">AH/STL/algorithm</text>
</a>
</g>
</g>
<!-- Node4&#45;&gt;Node26 -->
<g id="edge41" class="edge"><title>Node4&#45;&gt;Node26</title>
<path fill="none" stroke="midnightblue" d="M924.128,-560.083C927.514,-552.77 932.416,-542.181 936.619,-533.103"/>
<polygon fill="midnightblue" stroke="midnightblue" points="939.923,-534.296 940.949,-523.751 933.571,-531.355 939.923,-534.296"/>
</g>
<!-- Node6&#45;&gt;Node5 -->
<g id="edge6" class="edge"><title>Node6&#45;&gt;Node5</title>
<path fill="none" stroke="midnightblue" d="M815.92,-510.029C871.03,-502.731 983,-478.602 983,-403 983,-403 983,-403 983,-177 983,-146.902 985.236,-133.329 964,-112 942.869,-90.7765 757.497,-43.4807 669.717,-21.997"/>
<polygon fill="midnightblue" stroke="midnightblue" points="670.311,-18.5391 659.766,-19.5697 668.652,-25.3397 670.311,-18.5391"/>
</g>
<!-- Node7 -->
<g id="node7" class="node"><title>Node7</title>
<g id="a_node7"><a xlink:href="../../d1/d93/Error_8hpp.html" target="_top" xlink:title=" ">
<polygon fill="white" stroke="black" points="261,-448.5 261,-467.5 359,-467.5 359,-448.5 261,-448.5"/>
<text text-anchor="middle" x="310" y="-455.5" font-family="Helvetica,sans-Serif" font-size="10.00">AH/Error/Error.hpp</text>
</a>
</g>
</g>
<!-- Node6&#45;&gt;Node7 -->
<g id="edge7" class="edge"><title>Node6&#45;&gt;Node7</title>
<path fill="none" stroke="midnightblue" d="M756.224,-509.622C679.187,-500.883 472.187,-477.399 369.478,-465.748"/>
<polygon fill="midnightblue" stroke="midnightblue" points="369.605,-462.24 359.274,-464.59 368.816,-469.195 369.605,-462.24"/>
</g>
<!-- Node15 -->
<g id="node15" class="node"><title>Node15</title>
<g id="a_node15"><a xlink:title=" ">
<polygon fill="white" stroke="#bfbfbf" points="853.5,-112.5 853.5,-131.5 954.5,-131.5 954.5,-112.5 853.5,-112.5"/>
<text text-anchor="middle" x="904" y="-119.5" font-family="Helvetica,sans-Serif" font-size="10.00">AH/STL/type_traits</text>
</a>
</g>
</g>
<!-- Node6&#45;&gt;Node15 -->
<g id="edge39" class="edge"><title>Node6&#45;&gt;Node15</title>
<path fill="none" stroke="midnightblue" d="M798.184,-504.491C828.332,-482.329 904,-419.485 904,-347 904,-347 904,-347 904,-233 904,-200.948 904,-163.643 904,-141.749"/>
<polygon fill="midnightblue" stroke="midnightblue" points="907.5,-141.558 904,-131.558 900.5,-141.558 907.5,-141.558"/>
</g>
<!-- Node21 -->
<g id="node21" class="node"><title>Node21</title>
<g id="a_node21"><a xlink:title=" ">
<polygon fill="white" stroke="#bfbfbf" points="571,-224.5 571,-243.5 623,-243.5 623,-224.5 571,-224.5"/>
<text text-anchor="middle" x="597" y="-231.5" font-family="Helvetica,sans-Serif" font-size="10.00">stddef.h</text>
</a>
</g>
</g>
<!-- Node6&#45;&gt;Node21 -->
<g id="edge40" class="edge"><title>Node6&#45;&gt;Node21</title>
<path fill="none" stroke="midnightblue" d="M761.166,-504.409C743.898,-497.224 721.619,-485.333 708,-468 689.405,-444.333 689,-433.098 689,-403 689,-403 689,-403 689,-345 689,-302.502 648.094,-267.77 620.834,-249.344"/>
<polygon fill="midnightblue" stroke="midnightblue" points="622.485,-246.242 612.192,-243.732 618.673,-252.113 622.485,-246.242"/>
</g>
<!-- Node25 -->
<g id="node25" class="node"><title>Node25</title>
<g id="a_node25"><a xlink:title=" ">
<polygon fill="white" stroke="#bfbfbf" points="717.5,-448.5 717.5,-467.5 802.5,-467.5 802.5,-448.5 717.5,-448.5"/>
<text text-anchor="middle" x="760" y="-455.5" font-family="Helvetica,sans-Serif" font-size="10.00">AH/STL/iterator</text>
</a>
</g>
</g>
<!-- Node6&#45;&gt;Node25 -->
<g id="edge38" class="edge"><title>Node6&#45;&gt;Node25</title>
<path fill="none" stroke="midnightblue" d="M781.707,-504.083C778.148,-496.691 772.978,-485.953 768.576,-476.811"/>
<polygon fill="midnightblue" stroke="midnightblue" points="771.705,-475.243 764.213,-467.751 765.398,-478.279 771.705,-475.243"/>
</g>
<!-- Node7&#45;&gt;Node5 -->
<g id="edge8" class="edge"><title>Node7&#45;&gt;Node5</title>
<path fill="none" stroke="midnightblue" d="M260.88,-449.984C173.468,-436.107 0,-401.68 0,-347 0,-347 0,-347 0,-121 0,-60.7356 61.3284,-73.4869 119,-56 196.961,-32.3611 426.206,-19.3801 547.199,-14.0032"/>
<polygon fill="midnightblue" stroke="midnightblue" points="547.659,-17.4865 557.496,-13.5524 547.353,-10.4932 547.659,-17.4865"/>
</g>
<!-- Node8 -->
<g id="node8" class="node"><title>Node8</title>
<g id="a_node8"><a xlink:href="../../df/dee/Debug_8hpp.html" target="_top" xlink:title=" ">
<polygon fill="white" stroke="black" points="253.5,-392.5 253.5,-411.5 366.5,-411.5 366.5,-392.5 253.5,-392.5"/>
<text text-anchor="middle" x="310" y="-399.5" font-family="Helvetica,sans-Serif" font-size="10.00">AH/Debug/Debug.hpp</text>
</a>
</g>
</g>
<!-- Node7&#45;&gt;Node8 -->
<g id="edge9" class="edge"><title>Node7&#45;&gt;Node8</title>
<path fill="none" stroke="midnightblue" d="M310,-448.083C310,-441.006 310,-430.861 310,-421.986"/>
<polygon fill="midnightblue" stroke="midnightblue" points="313.5,-421.751 310,-411.751 306.5,-421.751 313.5,-421.751"/>
</g>
<!-- Node8&#45;&gt;Node5 -->
<g id="edge10" class="edge"><title>Node8&#45;&gt;Node5</title>
<path fill="none" stroke="midnightblue" d="M272.849,-392.499C226.797,-380.043 149.022,-352.403 105,-300 85.6404,-276.955 86,-265.098 86,-235 86,-235 86,-235 86,-121 86,-28.0157 398.375,-12.8684 547.074,-10.9254"/>
<polygon fill="midnightblue" stroke="midnightblue" points="547.531,-14.4206 557.491,-10.8075 547.452,-7.42103 547.531,-14.4206"/>
</g>
<!-- Node8&#45;&gt;Node9 -->
<g id="edge11" class="edge"><title>Node8&#45;&gt;Node9</title>
<path fill="none" stroke="midnightblue" d="M347.731,-392.46C435.291,-372.642 652.148,-323.559 748.524,-301.745"/>
<polygon fill="midnightblue" stroke="midnightblue" points="749.312,-305.156 758.293,-299.535 747.767,-298.329 749.312,-305.156"/>
</g>
<!-- Node16 -->
<g id="node16" class="node"><title>Node16</title>
<g id="a_node16"><a xlink:href="../../d2/dd5/SettingsWrapper_8hpp.html" target="_top" xlink:title=" ">
<polygon fill="white" stroke="black" points="228,-336.5 228,-355.5 392,-355.5 392,-336.5 228,-336.5"/>
<text text-anchor="middle" x="310" y="-343.5" font-family="Helvetica,sans-Serif" font-size="10.00">AH/Settings/SettingsWrapper.hpp</text>
</a>
</g>
</g>
<!-- Node8&#45;&gt;Node16 -->
<g id="edge22" class="edge"><title>Node8&#45;&gt;Node16</title>
<path fill="none" stroke="midnightblue" d="M304.834,-392.083C303.324,-384.927 302.894,-374.635 303.542,-365.691"/>
<polygon fill="midnightblue" stroke="midnightblue" points="307.015,-366.126 304.869,-355.751 300.077,-365.2 307.015,-366.126"/>
</g>
<!-- Node24 -->
<g id="node24" class="node"><title>Node24</title>
<g id="a_node24"><a xlink:href="../../d7/d52/DebugVal_8hpp.html" target="_top" xlink:title=" ">
<polygon fill="white" stroke="black" points="28,-336.5 28,-355.5 106,-355.5 106,-336.5 28,-336.5"/>
<text text-anchor="middle" x="67" y="-343.5" font-family="Helvetica,sans-Serif" font-size="10.00">DebugVal.hpp</text>
</a>
</g>
</g>
<!-- Node8&#45;&gt;Node24 -->
<g id="edge37" class="edge"><title>Node8&#45;&gt;Node24</title>
<path fill="none" stroke="midnightblue" d="M271.496,-392.444C229.194,-383.043 161.181,-367.929 115.327,-357.739"/>
<polygon fill="midnightblue" stroke="midnightblue" points="115.845,-354.269 105.324,-355.516 114.327,-361.102 115.845,-354.269"/>
</g>
<!-- Node9&#45;&gt;Node5 -->
<g id="edge12" class="edge"><title>Node9&#45;&gt;Node5</title>
<path fill="none" stroke="midnightblue" d="M786.399,-280.443C762.099,-258.287 697.568,-196.277 662,-132 643.41,-98.404 632.514,-54.4328 627.456,-29.8101"/>
<polygon fill="midnightblue" stroke="midnightblue" points="630.831,-28.8323 625.485,-19.6855 623.96,-30.1701 630.831,-28.8323"/>
</g>
<!-- Node10 -->
<g id="node10" class="node"><title>Node10</title>
<g id="a_node10"><a xlink:href="../../d6/ddf/Arduino-Wrapper_8h.html" target="_top" xlink:title=" ">
<polygon fill="white" stroke="black" points="738.5,-168.5 738.5,-187.5 853.5,-187.5 853.5,-168.5 738.5,-168.5"/>
<text text-anchor="middle" x="796" y="-175.5" font-family="Helvetica,sans-Serif" font-size="10.00">AH/Arduino&#45;Wrapper.h</text>
</a>
</g>
</g>
<!-- Node9&#45;&gt;Node10 -->
<g id="edge13" class="edge"><title>Node9&#45;&gt;Node10</title>
<path fill="none" stroke="midnightblue" d="M796,-280.368C796,-262.617 796,-221.666 796,-197.597"/>
<polygon fill="midnightblue" stroke="midnightblue" points="799.5,-197.591 796,-187.591 792.5,-197.591 799.5,-197.591"/>
</g>
<!-- Node11 -->
<g id="node11" class="node"><title>Node11</title>
<g id="a_node11"><a xlink:href="../../d7/d79/MinMaxFix_8hpp.html" target="_top" xlink:title=" ">
<polygon fill="white" stroke="black" points="671.5,-112.5 671.5,-131.5 796.5,-131.5 796.5,-112.5 671.5,-112.5"/>
<text text-anchor="middle" x="734" y="-119.5" font-family="Helvetica,sans-Serif" font-size="10.00">AH/Math/MinMaxFix.hpp</text>
</a>
</g>
</g>
<!-- Node10&#45;&gt;Node11 -->
<g id="edge14" class="edge"><title>Node10&#45;&gt;Node11</title>
<path fill="none" stroke="midnightblue" d="M786.039,-168.324C776.873,-160.341 763.063,-148.313 751.972,-138.653"/>
<polygon fill="midnightblue" stroke="midnightblue" points="753.982,-135.762 744.143,-131.834 749.385,-141.041 753.982,-135.762"/>
</g>
<!-- Node13 -->
<g id="node13" class="node"><title>Node13</title>
<g id="a_node13"><a xlink:title=" ">
<polygon fill="white" stroke="#bfbfbf" points="1032,-0.5 1032,-19.5 1090,-19.5 1090,-0.5 1032,-0.5"/>
<text text-anchor="middle" x="1061" y="-7.5" font-family="Helvetica,sans-Serif" font-size="10.00">Arduino.h</text>
</a>
</g>
</g>
<!-- Node10&#45;&gt;Node13 -->
<g id="edge21" class="edge"><title>Node10&#45;&gt;Node13</title>
<path fill="none" stroke="midnightblue" d="M799.912,-168.079C806.759,-153.629 822.373,-125.377 845,-112 941.633,-54.8703 1021.5,-160.846 1095,-76 1107.81,-61.2187 1093.01,-40.782 1079.13,-26.7935"/>
<polygon fill="midnightblue" stroke="midnightblue" points="1081.36,-24.0862 1071.68,-19.7623 1076.55,-29.1742 1081.36,-24.0862"/>
</g>
<!-- Node10&#45;&gt;Node15 -->
<g id="edge20" class="edge"><title>Node10&#45;&gt;Node15</title>
<path fill="none" stroke="midnightblue" d="M813.352,-168.324C830.672,-159.664 857.515,-146.242 877.502,-136.249"/>
<polygon fill="midnightblue" stroke="midnightblue" points="879.312,-139.257 886.691,-131.655 876.181,-132.996 879.312,-139.257"/>
</g>
<!-- Node11&#45;&gt;Node5 -->
<g id="edge15" class="edge"><title>Node11&#45;&gt;Node5</title>
<path fill="none" stroke="midnightblue" d="M725.368,-112.368C706.894,-93.8941 663.293,-50.2926 639.744,-26.7436"/>
<polygon fill="midnightblue" stroke="midnightblue" points="642.137,-24.1876 632.591,-19.5914 637.188,-29.1374 642.137,-24.1876"/>
</g>
<!-- Node12 -->
<g id="node12" class="node"><title>Node12</title>
<g id="a_node12"><a xlink:href="../../d6/d3b/FixArduinoMacros_8hpp.html" target="_top" xlink:title=" ">
<polygon fill="white" stroke="black" points="930,-56.5 930,-75.5 1086,-75.5 1086,-56.5 930,-56.5"/>
<text text-anchor="middle" x="1008" y="-63.5" font-family="Helvetica,sans-Serif" font-size="10.00">AH/Math/FixArduinoMacros.hpp</text>
</a>
</g>
</g>
<!-- Node11&#45;&gt;Node12 -->
<g id="edge16" class="edge"><title>Node11&#45;&gt;Node12</title>
<path fill="none" stroke="midnightblue" d="M777.416,-112.444C825.515,-102.964 903.095,-87.6747 954.806,-77.4835"/>
<polygon fill="midnightblue" stroke="midnightblue" points="955.653,-80.8841 964.787,-75.5164 954.299,-74.0162 955.653,-80.8841"/>
</g>
<!-- Node14 -->
<g id="node14" class="node"><title>Node14</title>
<g id="a_node14"><a xlink:href="../../dc/dc7/NamespaceSettings_8hpp.html" target="_top" xlink:title=" ">
<polygon fill="white" stroke="black" points="217,-56.5 217,-75.5 397,-75.5 397,-56.5 217,-56.5"/>
<text text-anchor="middle" x="307" y="-63.5" font-family="Helvetica,sans-Serif" font-size="10.00">AH/Settings/NamespaceSettings.hpp</text>
</a>
</g>
</g>
<!-- Node11&#45;&gt;Node14 -->
<g id="edge19" class="edge"><title>Node11&#45;&gt;Node14</title>
<path fill="none" stroke="midnightblue" d="M671.453,-113.09C595.291,-103.458 466.655,-87.1906 384.347,-76.7815"/>
<polygon fill="midnightblue" stroke="midnightblue" points="384.657,-73.2929 374.296,-75.5106 383.778,-80.2376 384.657,-73.2929"/>
</g>
<!-- Node12&#45;&gt;Node5 -->
<g id="edge17" class="edge"><title>Node12&#45;&gt;Node5</title>
<path fill="none" stroke="midnightblue" d="M947.154,-56.4435C878.481,-46.7864 766.929,-31.0993 694.511,-20.9157"/>
<polygon fill="midnightblue" stroke="midnightblue" points="694.951,-17.4432 684.561,-19.5164 693.976,-24.375 694.951,-17.4432"/>
</g>
<!-- Node12&#45;&gt;Node13 -->
<g id="edge18" class="edge"><title>Node12&#45;&gt;Node13</title>
<path fill="none" stroke="midnightblue" d="M1016.75,-56.083C1024.47,-48.2195 1035.9,-36.5688 1045.22,-27.0813"/>
<polygon fill="midnightblue" stroke="midnightblue" points="1047.9,-29.3396 1052.41,-19.7511 1042.91,-24.4363 1047.9,-29.3396"/>
</g>
<!-- Node16&#45;&gt;Node5 -->
<g id="edge23" class="edge"><title>Node16&#45;&gt;Node5</title>
<path fill="none" stroke="midnightblue" d="M361.161,-336.446C443.545,-321.514 599.662,-288.035 632,-244 638.291,-235.433 628.869,-84.0114 625.287,-29.9703"/>
<polygon fill="midnightblue" stroke="midnightblue" points="628.762,-29.4857 624.601,-19.7423 621.778,-29.954 628.762,-29.4857"/>
</g>
<!-- Node16&#45;&gt;Node8 -->
<g id="edge36" class="edge"><title>Node16&#45;&gt;Node8</title>
<path fill="none" stroke="midnightblue" d="M315.131,-355.751C316.657,-362.858 317.104,-373.136 316.472,-382.101"/>
<polygon fill="midnightblue" stroke="midnightblue" points="312.993,-381.713 315.166,-392.083 319.934,-382.622 312.993,-381.713"/>
</g>
<!-- Node16&#45;&gt;Node14 -->
<g id="edge24" class="edge"><title>Node16&#45;&gt;Node14</title>
<path fill="none" stroke="midnightblue" d="M308.561,-336.175C306.21,-323.273 300.796,-298.759 291,-280 281.49,-261.788 268.833,-263.376 262,-244 241.835,-186.823 276.901,-116.308 295.94,-84.2823"/>
<polygon fill="midnightblue" stroke="midnightblue" points="298.999,-85.9882 301.255,-75.6362 293.036,-82.3223 298.999,-85.9882"/>
</g>
<!-- Node17 -->
<g id="node17" class="node"><title>Node17</title>
<g id="a_node17"><a xlink:href="../../db/d02/Settings_8hpp.html" target="_top" xlink:title="All user settings and debugging options can be changed here.">
<polygon fill="white" stroke="black" points="338.5,-280.5 338.5,-299.5 409.5,-299.5 409.5,-280.5 338.5,-280.5"/>
<text text-anchor="middle" x="374" y="-287.5" font-family="Helvetica,sans-Serif" font-size="10.00">Settings.hpp</text>
</a>
</g>
</g>
<!-- Node16&#45;&gt;Node17 -->
<g id="edge25" class="edge"><title>Node16&#45;&gt;Node17</title>
<path fill="none" stroke="midnightblue" d="M320.283,-336.324C329.836,-328.263 344.28,-316.077 355.784,-306.369"/>
<polygon fill="midnightblue" stroke="midnightblue" points="358.144,-308.958 363.53,-299.834 353.63,-303.608 358.144,-308.958"/>
</g>
<!-- Node23 -->
<g id="node23" class="node"><title>Node23</title>
<g id="a_node23"><a xlink:href="../../d9/d98/TeensyUSBTypes_8hpp.html" target="_top" xlink:title=" ">
<polygon fill="white" stroke="black" points="114,-280.5 114,-299.5 282,-299.5 282,-280.5 114,-280.5"/>
<text text-anchor="middle" x="198" y="-287.5" font-family="Helvetica,sans-Serif" font-size="10.00">AH/Teensy/TeensyUSBTypes.hpp</text>
</a>
</g>
</g>
<!-- Node16&#45;&gt;Node23 -->
<g id="edge35" class="edge"><title>Node16&#45;&gt;Node23</title>
<path fill="none" stroke="midnightblue" d="M292.005,-336.324C273.962,-327.625 245.953,-314.12 225.197,-304.113"/>
<polygon fill="midnightblue" stroke="midnightblue" points="226.478,-300.845 215.95,-299.655 223.438,-307.15 226.478,-300.845"/>
</g>
<!-- Node18 -->
<g id="node18" class="node"><title>Node18</title>
<g id="a_node18"><a xlink:href="../../dc/d50/Frequency_8hpp.html" target="_top" xlink:title=" ">
<polygon fill="white" stroke="black" points="125,-112.5 125,-131.5 253,-131.5 253,-112.5 125,-112.5"/>
<text text-anchor="middle" x="189" y="-119.5" font-family="Helvetica,sans-Serif" font-size="10.00">AH/Types/Frequency.hpp</text>
</a>
</g>
</g>
<!-- Node17&#45;&gt;Node18 -->
<g id="edge26" class="edge"><title>Node17&#45;&gt;Node18</title>
<path fill="none" stroke="midnightblue" d="M338.329,-281.003C314.626,-274.268 283.945,-262.672 262,-244 228.334,-215.354 205.896,-167.094 195.558,-141.018"/>
<polygon fill="midnightblue" stroke="midnightblue" points="198.806,-139.712 191.977,-131.613 192.265,-142.204 198.806,-139.712"/>
</g>
<!-- Node19 -->
<g id="node19" class="node"><title>Node19</title>
<g id="a_node19"><a xlink:href="../../d7/d7c/ADCConfig_8hpp.html" target="_top" xlink:title="This file contains the platform&#45;specific ADC resolutions. By default, the library automatically selec...">
<polygon fill="white" stroke="black" points="405,-224.5 405,-243.5 553,-243.5 553,-224.5 405,-224.5"/>
<text text-anchor="middle" x="479" y="-231.5" font-family="Helvetica,sans-Serif" font-size="10.00">AH/Hardware/ADCConfig.hpp</text>
</a>
</g>
</g>
<!-- Node17&#45;&gt;Node19 -->
<g id="edge29" class="edge"><title>Node17&#45;&gt;Node19</title>
<path fill="none" stroke="midnightblue" d="M390.87,-280.324C407.709,-271.664 433.807,-258.242 453.238,-248.249"/>
<polygon fill="midnightblue" stroke="midnightblue" points="454.88,-251.341 462.172,-243.655 451.678,-245.116 454.88,-251.341"/>
</g>
<!-- Node20 -->
<g id="node20" class="node"><title>Node20</title>
<g id="a_node20"><a xlink:title=" ">
<polygon fill="white" stroke="#bfbfbf" points="271,-224.5 271,-243.5 319,-243.5 319,-224.5 271,-224.5"/>
<text text-anchor="middle" x="295" y="-231.5" font-family="Helvetica,sans-Serif" font-size="10.00">limits.h</text>
</a>
</g>
</g>
<!-- Node17&#45;&gt;Node20 -->
<g id="edge32" class="edge"><title>Node17&#45;&gt;Node20</title>
<path fill="none" stroke="midnightblue" d="M361.307,-280.324C349.099,-271.979 330.422,-259.212 315.997,-249.352"/>
<polygon fill="midnightblue" stroke="midnightblue" points="317.892,-246.408 307.661,-243.655 313.942,-252.187 317.892,-246.408"/>
</g>
<!-- Node17&#45;&gt;Node21 -->
<g id="edge33" class="edge"><title>Node17&#45;&gt;Node21</title>
<path fill="none" stroke="midnightblue" d="M409.734,-280.634C445.59,-272.199 502.651,-258.662 560.902,-244.244"/>
<polygon fill="midnightblue" stroke="midnightblue" points="561.776,-247.634 570.639,-241.829 560.09,-240.84 561.776,-247.634"/>
</g>
<!-- Node22 -->
<g id="node22" class="node"><title>Node22</title>
<g id="a_node22"><a xlink:title=" ">
<polygon fill="white" stroke="#bfbfbf" points="337.5,-224.5 337.5,-243.5 386.5,-243.5 386.5,-224.5 337.5,-224.5"/>
<text text-anchor="middle" x="362" y="-231.5" font-family="Helvetica,sans-Serif" font-size="10.00">stdint.h</text>
</a>
</g>
</g>
<!-- Node17&#45;&gt;Node22 -->
<g id="edge34" class="edge"><title>Node17&#45;&gt;Node22</title>
<path fill="none" stroke="midnightblue" d="M372.018,-280.083C370.428,-272.927 368.141,-262.635 366.154,-253.691"/>
<polygon fill="midnightblue" stroke="midnightblue" points="369.531,-252.754 363.945,-243.751 362.697,-254.272 369.531,-252.754"/>
</g>
<!-- Node18&#45;&gt;Node5 -->
<g id="edge27" class="edge"><title>Node18&#45;&gt;Node5</title>
<path fill="none" stroke="midnightblue" d="M188.724,-112.227C188.801,-97.9905 191.233,-70.0388 208,-56 233.411,-34.7232 433.991,-20.9136 547.086,-14.7372"/>
<polygon fill="midnightblue" stroke="midnightblue" points="547.282,-18.2318 557.079,-14.1988 546.906,-11.2419 547.282,-18.2318"/>
</g>
<!-- Node18&#45;&gt;Node14 -->
<g id="edge28" class="edge"><title>Node18&#45;&gt;Node14</title>
<path fill="none" stroke="midnightblue" d="M207.697,-112.444C226.944,-103.636 257.152,-89.8116 279.2,-79.722"/>
<polygon fill="midnightblue" stroke="midnightblue" points="280.753,-82.8603 288.39,-75.5164 277.84,-76.4951 280.753,-82.8603"/>
</g>
<!-- Node19&#45;&gt;Node5 -->
<g id="edge30" class="edge"><title>Node19&#45;&gt;Node5</title>
<path fill="none" stroke="midnightblue" d="M484.158,-224.392C499.717,-198.529 547.773,-119.394 591,-56 597.493,-46.4773 605.078,-36.087 611.338,-27.692"/>
<polygon fill="midnightblue" stroke="midnightblue" points="614.284,-29.5974 617.496,-19.5011 608.689,-25.3909 614.284,-29.5974"/>
</g>
<!-- Node19&#45;&gt;Node10 -->
<g id="edge31" class="edge"><title>Node19&#45;&gt;Node10</title>
<path fill="none" stroke="midnightblue" d="M529.23,-224.444C585.341,-214.885 676.13,-199.419 735.948,-189.23"/>
<polygon fill="midnightblue" stroke="midnightblue" points="736.735,-192.646 746.005,-187.516 735.56,-185.745 736.735,-192.646"/>
</g>
<!-- Node27&#45;&gt;Node2 -->
<g id="edge45" class="edge"><title>Node27&#45;&gt;Node2</title>
<path fill="none" stroke="midnightblue" d="M693.56,-616.444C672.33,-607.557 638.901,-593.563 614.745,-583.451"/>
<polygon fill="midnightblue" stroke="midnightblue" points="615.921,-580.149 605.345,-579.516 613.218,-586.606 615.921,-580.149"/>
</g>
<!-- Node27&#45;&gt;Node6 -->
<g id="edge44" class="edge"><title>Node27&#45;&gt;Node6</title>
<path fill="none" stroke="midnightblue" d="M743.881,-616.387C761.54,-609.587 782.451,-598.15 793,-580 801.191,-565.908 797.989,-547.171 793.599,-533.436"/>
<polygon fill="midnightblue" stroke="midnightblue" points="796.749,-531.859 790.019,-523.677 790.177,-534.271 796.749,-531.859"/>
</g>
<!-- Node28 -->
<g id="node28" class="node"><title>Node28</title>
<g id="a_node28"><a xlink:href="../../d2/d03/TransferFunction_8hpp.html" target="_top" xlink:title=" ">
<polygon fill="white" stroke="black" points="644.5,-560.5 644.5,-579.5 783.5,-579.5 783.5,-560.5 644.5,-560.5"/>
<text text-anchor="middle" x="714" y="-567.5" font-family="Helvetica,sans-Serif" font-size="10.00">Filters/TransferFunction.hpp</text>
</a>
</g>
</g>
<!-- Node27&#45;&gt;Node28 -->
<g id="edge46" class="edge"><title>Node27&#45;&gt;Node28</title>
<path fill="none" stroke="midnightblue" d="M714,-616.083C714,-609.006 714,-598.861 714,-589.986"/>
<polygon fill="midnightblue" stroke="midnightblue" points="717.5,-589.751 714,-579.751 710.5,-589.751 717.5,-589.751"/>
</g>
<!-- Node28&#45;&gt;Node6 -->
<g id="edge47" class="edge"><title>Node28&#45;&gt;Node6</title>
<path fill="none" stroke="midnightblue" d="M725.568,-560.324C736.42,-552.185 752.881,-539.839 765.883,-530.087"/>
<polygon fill="midnightblue" stroke="midnightblue" points="768.321,-532.634 774.221,-523.834 764.121,-527.034 768.321,-532.634"/>
</g>
</g>
</svg>
