<?xml version="1.0" encoding="UTF-8" standalone="no"?>
<!DOCTYPE svg PUBLIC "-//W3C//DTD SVG 1.1//EN"
 "http://www.w3.org/Graphics/SVG/1.1/DTD/svg11.dtd">
<!-- Generated by graphviz version 2.38.0 (20140413.2041)
 -->
<!-- Title: ZeroPoleGain&lt; Nz, Np, T &gt; Pages: 1 -->
<svg width="145pt" height="204pt"
 viewBox="0.00 0.00 145.00 204.00" xmlns="http://www.w3.org/2000/svg" xmlns:xlink="http://www.w3.org/1999/xlink">
<g id="graph0" class="graph" transform="scale(1 1) rotate(0) translate(4 200)">
<title>ZeroPoleGain&lt; Nz, Np, T &gt;</title>
<polygon fill="white" stroke="none" points="-4,4 -4,-200 141,-200 141,4 -4,4"/>
<!-- Node1 -->
<g id="node1" class="node"><title>Node1</title>
<g id="a_node1"><a xlink:title=" ">
<polygon fill="#bfbfbf" stroke="black" points="0,-0.5 0,-90.5 137,-90.5 137,-0.5 0,-0.5"/>
<text text-anchor="middle" x="68.5" y="-78.5" font-family="Helvetica,sans-Serif" font-size="10.00">ZeroPoleGain&lt; Nz, Np, T &gt;</text>
<polyline fill="none" stroke="black" points="0,-71.5 137,-71.5 "/>
<text text-anchor="start" x="8" y="-59.5" font-family="Helvetica,sans-Serif" font-size="10.00">+ zeros</text>
<text text-anchor="start" x="8" y="-48.5" font-family="Helvetica,sans-Serif" font-size="10.00">+ poles</text>
<polyline fill="none" stroke="black" points="0,-41.5 137,-41.5 "/>
<text text-anchor="start" x="8" y="-29.5" font-family="Helvetica,sans-Serif" font-size="10.00">+ ZeroPoleGain()</text>
<text text-anchor="start" x="8" y="-18.5" font-family="Helvetica,sans-Serif" font-size="10.00">+ sort()</text>
<text text-anchor="start" x="8" y="-7.5" font-family="Helvetica,sans-Serif" font-size="10.00">+ sort()</text>
</a>
</g>
</g>
<!-- Node2 -->
<g id="node2" class="node"><title>Node2</title>
<g id="a_node2"><a xlink:title=" ">
<polygon fill="white" stroke="#bfbfbf" points="54,-138.5 54,-195.5 83,-195.5 83,-138.5 54,-138.5"/>
<text text-anchor="middle" x="68.5" y="-183.5" font-family="Helvetica,sans-Serif" font-size="10.00">T</text>
<polyline fill="none" stroke="#bfbfbf" points="54,-176.5 83,-176.5 "/>
<text text-anchor="middle" x="68.5" y="-164.5" font-family="Helvetica,sans-Serif" font-size="10.00"> </text>
<polyline fill="none" stroke="#bfbfbf" points="54,-157.5 83,-157.5 "/>
<text text-anchor="middle" x="68.5" y="-145.5" font-family="Helvetica,sans-Serif" font-size="10.00"> </text>
</a>
</g>
</g>
<!-- Node2&#45;&gt;Node1 -->
<g id="edge1" class="edge"><title>Node2&#45;&gt;Node1</title>
<path fill="none" stroke="#404040" d="M68.5,-138.284C68.5,-127.735 68.5,-115.294 68.5,-103.035"/>
<polygon fill="none" stroke="#404040" points="68.5001,-102.912 64.5,-96.9125 68.5,-90.9125 72.5,-96.9124 68.5001,-102.912"/>
<text text-anchor="middle" x="82.5" y="-112" font-family="Helvetica,sans-Serif" font-size="10.00"> +gain</text>
</g>
</g>
</svg>
