<?xml version="1.0" encoding="UTF-8" standalone="no"?>
<!DOCTYPE svg PUBLIC "-//W3C//DTD SVG 1.1//EN"
 "http://www.w3.org/Graphics/SVG/1.1/DTD/svg11.dtd">
<!-- Generated by graphviz version 2.40.1 (20161225.0304)
 -->
<!-- Title: Exit.cpp Pages: 1 -->
<svg width="1055pt" height="532pt"
 viewBox="0.00 0.00 1055.45 532.00" xmlns="http://www.w3.org/2000/svg" xmlns:xlink="http://www.w3.org/1999/xlink">
<g id="graph0" class="graph" transform="scale(1 1) rotate(0) translate(4 528)">
<title>Exit.cpp</title>
<polygon fill="#ffffff" stroke="transparent" points="-4,4 -4,-528 1051.4507,-528 1051.4507,4 -4,4"/>
<!-- Node1 -->
<g id="node1" class="node">
<title>Node1</title>
<g id="a_node1"><a xlink:title=" ">
<polygon fill="#bfbfbf" stroke="#000000" points="494.5,-504.5 494.5,-523.5 547.5,-523.5 547.5,-504.5 494.5,-504.5"/>
<text text-anchor="middle" x="521" y="-511.5" font-family="Helvetica,sans-Serif" font-size="10.00" fill="#000000">Exit.cpp</text>
</a>
</g>
</g>
<!-- Node2 -->
<g id="node2" class="node">
<title>Node2</title>
<g id="a_node2"><a xlink:href="../../d1/d65/Warnings_8hpp.html" target="_top" xlink:title=" ">
<polygon fill="#ffffff" stroke="#000000" points="324.5,-.5 324.5,-19.5 457.5,-19.5 457.5,-.5 324.5,-.5"/>
<text text-anchor="middle" x="391" y="-7.5" font-family="Helvetica,sans-Serif" font-size="10.00" fill="#000000">AH/Settings/Warnings.hpp</text>
</a>
</g>
</g>
<!-- Node1&#45;&gt;Node2 -->
<g id="edge1" class="edge">
<title>Node1&#45;&gt;Node2</title>
<path fill="none" stroke="#191970" d="M547.7579,-511.4223C630.5497,-502.7158 877,-471.0036 877,-402 877,-402 877,-402 877,-178 877,-110.6201 849.2757,-81.7253 787,-56 731.0093,-32.8709 566.4253,-19.8642 467.9429,-13.9514"/>
<polygon fill="#191970" stroke="#191970" points="467.9319,-10.4448 457.7433,-13.3502 467.52,-17.4327 467.9319,-10.4448"/>
</g>
<!-- Node3 -->
<g id="node3" class="node">
<title>Node3</title>
<g id="a_node3"><a xlink:href="../../d1/d93/Error_8hpp.html" target="_top" xlink:title=" ">
<polygon fill="#ffffff" stroke="#000000" points="178,-448.5 178,-467.5 234,-467.5 234,-448.5 178,-448.5"/>
<text text-anchor="middle" x="206" y="-455.5" font-family="Helvetica,sans-Serif" font-size="10.00" fill="#000000">Error.hpp</text>
</a>
</g>
</g>
<!-- Node1&#45;&gt;Node3 -->
<g id="edge2" class="edge">
<title>Node1&#45;&gt;Node3</title>
<path fill="none" stroke="#191970" d="M494.4148,-509.2737C438.6351,-499.3573 309.1985,-476.3464 244.3998,-464.8266"/>
<polygon fill="#191970" stroke="#191970" points="244.6609,-461.3182 234.2026,-463.0138 243.4356,-468.2102 244.6609,-461.3182"/>
</g>
<!-- Node3&#45;&gt;Node2 -->
<g id="edge3" class="edge">
<title>Node3&#45;&gt;Node2</title>
<path fill="none" stroke="#191970" d="M177.7885,-455.6251C121.3703,-449.1712 0,-425.9912 0,-346 0,-346 0,-346 0,-122 0,-57.3123 200.2828,-27.8491 314.162,-16.3249"/>
<polygon fill="#191970" stroke="#191970" points="314.6217,-19.7966 324.229,-15.33 313.9332,-12.8305 314.6217,-19.7966"/>
</g>
<!-- Node4 -->
<g id="node4" class="node">
<title>Node4</title>
<g id="a_node4"><a xlink:href="../../df/dee/Debug_8hpp.html" target="_top" xlink:title=" ">
<polygon fill="#ffffff" stroke="#000000" points="149.5,-392.5 149.5,-411.5 262.5,-411.5 262.5,-392.5 149.5,-392.5"/>
<text text-anchor="middle" x="206" y="-399.5" font-family="Helvetica,sans-Serif" font-size="10.00" fill="#000000">AH/Debug/Debug.hpp</text>
</a>
</g>
</g>
<!-- Node3&#45;&gt;Node4 -->
<g id="edge4" class="edge">
<title>Node3&#45;&gt;Node4</title>
<path fill="none" stroke="#191970" d="M206,-448.2455C206,-440.9382 206,-430.6944 206,-421.7046"/>
<polygon fill="#191970" stroke="#191970" points="209.5001,-421.6426 206,-411.6427 202.5001,-421.6427 209.5001,-421.6426"/>
</g>
<!-- Node4&#45;&gt;Node2 -->
<g id="edge5" class="edge">
<title>Node4&#45;&gt;Node2</title>
<path fill="none" stroke="#191970" d="M197.2437,-392.0987C171.689,-362.1413 99,-268.9365 99,-178 99,-178 99,-178 99,-122 99,-73.7547 239.7163,-38.5192 325.7801,-21.4805"/>
<polygon fill="#191970" stroke="#191970" points="326.587,-24.8892 335.7337,-19.5425 325.2491,-18.0182 326.587,-24.8892"/>
</g>
<!-- Node5 -->
<g id="node5" class="node">
<title>Node5</title>
<g id="a_node5"><a xlink:href="../../dd/d80/PrintStream_8hpp.html" target="_top" xlink:title=" ">
<polygon fill="#ffffff" stroke="#000000" points="126.5,-224.5 126.5,-243.5 285.5,-243.5 285.5,-224.5 126.5,-224.5"/>
<text text-anchor="middle" x="206" y="-231.5" font-family="Helvetica,sans-Serif" font-size="10.00" fill="#000000">AH/PrintStream/PrintStream.hpp</text>
</a>
</g>
</g>
<!-- Node4&#45;&gt;Node5 -->
<g id="edge6" class="edge">
<title>Node4&#45;&gt;Node5</title>
<path fill="none" stroke="#191970" d="M206,-392.4862C206,-365.9293 206,-290.5651 206,-254.1655"/>
<polygon fill="#191970" stroke="#191970" points="209.5001,-253.8278 206,-243.8279 202.5001,-253.8279 209.5001,-253.8278"/>
</g>
<!-- Node12 -->
<g id="node12" class="node">
<title>Node12</title>
<g id="a_node12"><a xlink:href="../../d2/dd5/SettingsWrapper_8hpp.html" target="_top" xlink:title=" ">
<polygon fill="#ffffff" stroke="#000000" points="293,-336.5 293,-355.5 457,-355.5 457,-336.5 293,-336.5"/>
<text text-anchor="middle" x="375" y="-343.5" font-family="Helvetica,sans-Serif" font-size="10.00" fill="#000000">AH/Settings/SettingsWrapper.hpp</text>
</a>
</g>
</g>
<!-- Node4&#45;&gt;Node12 -->
<g id="edge17" class="edge">
<title>Node4&#45;&gt;Node12</title>
<path fill="none" stroke="#191970" d="M229.8101,-392.3733C256.2043,-383.021 299.0394,-368.7725 331.4244,-358.5385"/>
<polygon fill="#191970" stroke="#191970" points="332.6152,-361.8332 341.1097,-355.5011 330.5205,-355.1539 332.6152,-361.8332"/>
</g>
<!-- Node20 -->
<g id="node20" class="node">
<title>Node20</title>
<g id="a_node20"><a xlink:href="../../d7/d52/DebugVal_8hpp.html" target="_top" xlink:title=" ">
<polygon fill="#ffffff" stroke="#000000" points="28,-336.5 28,-355.5 106,-355.5 106,-336.5 28,-336.5"/>
<text text-anchor="middle" x="67" y="-343.5" font-family="Helvetica,sans-Serif" font-size="10.00" fill="#000000">DebugVal.hpp</text>
</a>
</g>
</g>
<!-- Node4&#45;&gt;Node20 -->
<g id="edge32" class="edge">
<title>Node4&#45;&gt;Node20</title>
<path fill="none" stroke="#191970" d="M182.105,-392.3733C159.4918,-383.2629 125.3458,-369.5062 100.1127,-359.3404"/>
<polygon fill="#191970" stroke="#191970" points="101.1666,-355.9917 90.5831,-355.5011 98.5507,-362.4845 101.1666,-355.9917"/>
</g>
<!-- Node5&#45;&gt;Node2 -->
<g id="edge7" class="edge">
<title>Node5&#45;&gt;Node2</title>
<path fill="none" stroke="#191970" d="M208.7457,-224.2125C217.371,-195.0468 246.5181,-107.5551 299,-56 313.6181,-41.64 333.6161,-30.9111 351.2338,-23.4434"/>
<polygon fill="#191970" stroke="#191970" points="352.7539,-26.6046 360.7273,-19.6278 350.1434,-20.1096 352.7539,-26.6046"/>
</g>
<!-- Node6 -->
<g id="node6" class="node">
<title>Node6</title>
<g id="a_node6"><a xlink:href="../../d6/ddf/Arduino-Wrapper_8h.html" target="_top" xlink:title=" ">
<polygon fill="#ffffff" stroke="#000000" points="599.5,-168.5 599.5,-187.5 714.5,-187.5 714.5,-168.5 599.5,-168.5"/>
<text text-anchor="middle" x="657" y="-175.5" font-family="Helvetica,sans-Serif" font-size="10.00" fill="#000000">AH/Arduino&#45;Wrapper.h</text>
</a>
</g>
</g>
<!-- Node5&#45;&gt;Node6 -->
<g id="edge8" class="edge">
<title>Node5&#45;&gt;Node6</title>
<path fill="none" stroke="#191970" d="M282.7615,-224.4686C368.8139,-213.7836 507.0291,-196.6217 589.2289,-186.415"/>
<polygon fill="#191970" stroke="#191970" points="589.7217,-189.8808 599.2142,-185.1752 588.8591,-182.9342 589.7217,-189.8808"/>
</g>
<!-- Node7 -->
<g id="node7" class="node">
<title>Node7</title>
<g id="a_node7"><a xlink:href="../../d7/d79/MinMaxFix_8hpp.html" target="_top" xlink:title=" ">
<polygon fill="#ffffff" stroke="#000000" points="723.5,-112.5 723.5,-131.5 848.5,-131.5 848.5,-112.5 723.5,-112.5"/>
<text text-anchor="middle" x="786" y="-119.5" font-family="Helvetica,sans-Serif" font-size="10.00" fill="#000000">AH/Math/MinMaxFix.hpp</text>
</a>
</g>
</g>
<!-- Node6&#45;&gt;Node7 -->
<g id="edge9" class="edge">
<title>Node6&#45;&gt;Node7</title>
<path fill="none" stroke="#191970" d="M679.1759,-168.3733C699.9766,-159.3435 731.2917,-145.7494 754.6458,-135.6111"/>
<polygon fill="#191970" stroke="#191970" points="756.3343,-138.6938 764.1135,-131.5011 753.5468,-132.2727 756.3343,-138.6938"/>
</g>
<!-- Node9 -->
<g id="node9" class="node">
<title>Node9</title>
<g id="a_node9"><a xlink:title=" ">
<polygon fill="#ffffff" stroke="#bfbfbf" points="980,-.5 980,-19.5 1038,-19.5 1038,-.5 980,-.5"/>
<text text-anchor="middle" x="1009" y="-7.5" font-family="Helvetica,sans-Serif" font-size="10.00" fill="#000000">Arduino.h</text>
</a>
</g>
</g>
<!-- Node6&#45;&gt;Node9 -->
<g id="edge16" class="edge">
<title>Node6&#45;&gt;Node9</title>
<path fill="none" stroke="#191970" d="M714.8466,-171.4567C812.6819,-159.0481 1004.0167,-128.5305 1043,-76 1054.5363,-60.4547 1040.8344,-40.4333 1027.5367,-26.5383"/>
<polygon fill="#191970" stroke="#191970" points="1029.9511,-24.0039 1020.3536,-19.5164 1025.0579,-29.0096 1029.9511,-24.0039"/>
</g>
<!-- Node11 -->
<g id="node11" class="node">
<title>Node11</title>
<g id="a_node11"><a xlink:title=" ">
<polygon fill="#ffffff" stroke="#bfbfbf" points="565.5,-112.5 565.5,-131.5 666.5,-131.5 666.5,-112.5 565.5,-112.5"/>
<text text-anchor="middle" x="616" y="-119.5" font-family="Helvetica,sans-Serif" font-size="10.00" fill="#000000">AH/STL/type_traits</text>
</a>
</g>
</g>
<!-- Node6&#45;&gt;Node11 -->
<g id="edge15" class="edge">
<title>Node6&#45;&gt;Node11</title>
<path fill="none" stroke="#191970" d="M649.8583,-168.2455C644.1556,-160.4564 636.01,-149.3308 629.1375,-139.9439"/>
<polygon fill="#191970" stroke="#191970" points="631.7913,-137.6437 623.0598,-131.6427 626.1432,-141.7789 631.7913,-137.6437"/>
</g>
<!-- Node7&#45;&gt;Node2 -->
<g id="edge10" class="edge">
<title>Node7&#45;&gt;Node2</title>
<path fill="none" stroke="#191970" d="M786.2942,-112.1737C786.1493,-97.4994 783.5121,-70.0815 767,-56 744.6934,-36.977 571.0422,-22.137 467.7015,-14.882"/>
<polygon fill="#191970" stroke="#191970" points="467.8382,-11.3832 457.6199,-14.1826 467.3536,-18.3664 467.8382,-11.3832"/>
</g>
<!-- Node8 -->
<g id="node8" class="node">
<title>Node8</title>
<g id="a_node8"><a xlink:href="../../d6/d3b/FixArduinoMacros_8hpp.html" target="_top" xlink:title=" ">
<polygon fill="#ffffff" stroke="#000000" points="878,-56.5 878,-75.5 1034,-75.5 1034,-56.5 878,-56.5"/>
<text text-anchor="middle" x="956" y="-63.5" font-family="Helvetica,sans-Serif" font-size="10.00" fill="#000000">AH/Math/FixArduinoMacros.hpp</text>
</a>
</g>
</g>
<!-- Node7&#45;&gt;Node8 -->
<g id="edge11" class="edge">
<title>Node7&#45;&gt;Node8</title>
<path fill="none" stroke="#191970" d="M815.224,-112.3733C843.4925,-103.0613 886.4965,-88.8953 917.5344,-78.671"/>
<polygon fill="#191970" stroke="#191970" points="918.7544,-81.9542 927.1573,-75.5011 916.5643,-75.3056 918.7544,-81.9542"/>
</g>
<!-- Node10 -->
<g id="node10" class="node">
<title>Node10</title>
<g id="a_node10"><a xlink:href="../../dc/dc7/NamespaceSettings_8hpp.html" target="_top" xlink:title=" ">
<polygon fill="#ffffff" stroke="#000000" points="578,-56.5 578,-75.5 758,-75.5 758,-56.5 578,-56.5"/>
<text text-anchor="middle" x="668" y="-63.5" font-family="Helvetica,sans-Serif" font-size="10.00" fill="#000000">AH/Settings/NamespaceSettings.hpp</text>
</a>
</g>
</g>
<!-- Node7&#45;&gt;Node10 -->
<g id="edge14" class="edge">
<title>Node7&#45;&gt;Node10</title>
<path fill="none" stroke="#191970" d="M765.7151,-112.3733C746.8579,-103.4241 718.554,-89.9917 697.2545,-79.8835"/>
<polygon fill="#191970" stroke="#191970" points="698.5551,-76.6266 688.0202,-75.5011 695.5539,-82.9506 698.5551,-76.6266"/>
</g>
<!-- Node8&#45;&gt;Node2 -->
<g id="edge12" class="edge">
<title>Node8&#45;&gt;Node2</title>
<path fill="none" stroke="#191970" d="M877.7097,-57.4292C873.0715,-56.9404 868.4749,-56.4608 864,-56 724.3778,-41.6231 561.4411,-26.04 467.8361,-17.2029"/>
<polygon fill="#191970" stroke="#191970" points="467.8908,-13.6926 457.6062,-16.2379 467.2333,-20.6616 467.8908,-13.6926"/>
</g>
<!-- Node8&#45;&gt;Node9 -->
<g id="edge13" class="edge">
<title>Node8&#45;&gt;Node9</title>
<path fill="none" stroke="#191970" d="M965.2319,-56.2455C972.8317,-48.2155 983.7877,-36.6394 992.8368,-27.0781"/>
<polygon fill="#191970" stroke="#191970" points="995.5421,-29.3115 999.8739,-19.6427 990.458,-24.4998 995.5421,-29.3115"/>
</g>
<!-- Node12&#45;&gt;Node2 -->
<g id="edge18" class="edge">
<title>Node12&#45;&gt;Node2</title>
<path fill="none" stroke="#191970" d="M365.0386,-336.2152C347.5127,-317.9019 313,-276.4496 313,-234 313,-234 313,-234 313,-122 313,-81.9033 347.0809,-45.8785 370.1871,-26.0622"/>
<polygon fill="#191970" stroke="#191970" points="372.6337,-28.5811 378.1199,-19.5173 368.1789,-23.1816 372.6337,-28.5811"/>
</g>
<!-- Node12&#45;&gt;Node4 -->
<g id="edge31" class="edge">
<title>Node12&#45;&gt;Node4</title>
<path fill="none" stroke="#191970" d="M351.5443,-355.5011C325.2982,-364.8093 282.4905,-379.0536 250.0122,-389.3235"/>
<polygon fill="#191970" stroke="#191970" points="248.7874,-386.0395 240.2942,-392.3733 250.8834,-392.7184 248.7874,-386.0395"/>
</g>
<!-- Node12&#45;&gt;Node10 -->
<g id="edge19" class="edge">
<title>Node12&#45;&gt;Node10</title>
<path fill="none" stroke="#191970" d="M457.1494,-337.3096C529.0786,-328.9039 627.6211,-315.2281 664,-300 702.703,-283.799 721.0774,-281.4477 740,-244 754.8991,-214.5149 703.5683,-123.9872 679.631,-84.6134"/>
<polygon fill="#191970" stroke="#191970" points="682.4136,-82.4567 674.1925,-75.7735 676.4515,-86.1247 682.4136,-82.4567"/>
</g>
<!-- Node13 -->
<g id="node13" class="node">
<title>Node13</title>
<g id="a_node13"><a xlink:href="../../db/d02/Settings_8hpp.html" target="_top" xlink:title="All user settings and debugging options can be changed here.">
<polygon fill="#ffffff" stroke="#000000" points="397.5,-280.5 397.5,-299.5 468.5,-299.5 468.5,-280.5 397.5,-280.5"/>
<text text-anchor="middle" x="433" y="-287.5" font-family="Helvetica,sans-Serif" font-size="10.00" fill="#000000">Settings.hpp</text>
</a>
</g>
</g>
<!-- Node12&#45;&gt;Node13 -->
<g id="edge20" class="edge">
<title>Node12&#45;&gt;Node13</title>
<path fill="none" stroke="#191970" d="M385.1028,-336.2455C393.5028,-328.1352 405.6494,-316.4075 415.6084,-306.7919"/>
<polygon fill="#191970" stroke="#191970" points="418.25,-309.1066 423.0129,-299.6427 413.3878,-304.0707 418.25,-309.1066"/>
</g>
<!-- Node19 -->
<g id="node19" class="node">
<title>Node19</title>
<g id="a_node19"><a xlink:href="../../d9/d98/TeensyUSBTypes_8hpp.html" target="_top" xlink:title=" ">
<polygon fill="#ffffff" stroke="#000000" points="487,-280.5 487,-299.5 655,-299.5 655,-280.5 487,-280.5"/>
<text text-anchor="middle" x="571" y="-287.5" font-family="Helvetica,sans-Serif" font-size="10.00" fill="#000000">AH/Teensy/TeensyUSBTypes.hpp</text>
</a>
</g>
</g>
<!-- Node12&#45;&gt;Node19 -->
<g id="edge30" class="edge">
<title>Node12&#45;&gt;Node19</title>
<path fill="none" stroke="#191970" d="M408.6936,-336.3733C441.7087,-326.9404 492.1573,-312.5265 528.0386,-302.2747"/>
<polygon fill="#191970" stroke="#191970" points="529.0924,-305.6137 537.7461,-299.5011 527.1693,-298.8831 529.0924,-305.6137"/>
</g>
<!-- Node14 -->
<g id="node14" class="node">
<title>Node14</title>
<g id="a_node14"><a xlink:href="../../dc/d50/Frequency_8hpp.html" target="_top" xlink:title=" ">
<polygon fill="#ffffff" stroke="#000000" points="419,-112.5 419,-131.5 547,-131.5 547,-112.5 419,-112.5"/>
<text text-anchor="middle" x="483" y="-119.5" font-family="Helvetica,sans-Serif" font-size="10.00" fill="#000000">AH/Types/Frequency.hpp</text>
</a>
</g>
</g>
<!-- Node13&#45;&gt;Node14 -->
<g id="edge21" class="edge">
<title>Node13&#45;&gt;Node14</title>
<path fill="none" stroke="#191970" d="M463.252,-280.4295C490.2364,-271.2082 526.7253,-256.809 535,-244 557.3372,-209.4226 523.1108,-163.6364 500.4331,-139.1631"/>
<polygon fill="#191970" stroke="#191970" points="502.7376,-136.51 493.2835,-131.7274 497.6917,-141.3617 502.7376,-136.51"/>
</g>
<!-- Node15 -->
<g id="node15" class="node">
<title>Node15</title>
<g id="a_node15"><a xlink:href="../../d7/d7c/ADCConfig_8hpp.html" target="_top" xlink:title="This file contains the platform&#45;specific ADC resolutions. By default, the library automatically selec...">
<polygon fill="#ffffff" stroke="#000000" points="583,-224.5 583,-243.5 731,-243.5 731,-224.5 583,-224.5"/>
<text text-anchor="middle" x="657" y="-231.5" font-family="Helvetica,sans-Serif" font-size="10.00" fill="#000000">AH/Hardware/ADCConfig.hpp</text>
</a>
</g>
</g>
<!-- Node13&#45;&gt;Node15 -->
<g id="edge24" class="edge">
<title>Node13&#45;&gt;Node15</title>
<path fill="none" stroke="#191970" d="M468.9895,-281.0026C507.0009,-271.4998 567.129,-256.4677 609.1217,-245.9696"/>
<polygon fill="#191970" stroke="#191970" points="609.9982,-249.3582 618.8508,-243.5373 608.3004,-242.5672 609.9982,-249.3582"/>
</g>
<!-- Node16 -->
<g id="node16" class="node">
<title>Node16</title>
<g id="a_node16"><a xlink:title=" ">
<polygon fill="#ffffff" stroke="#bfbfbf" points="341,-224.5 341,-243.5 389,-243.5 389,-224.5 341,-224.5"/>
<text text-anchor="middle" x="365" y="-231.5" font-family="Helvetica,sans-Serif" font-size="10.00" fill="#000000">limits.h</text>
</a>
</g>
</g>
<!-- Node13&#45;&gt;Node16 -->
<g id="edge27" class="edge">
<title>Node13&#45;&gt;Node16</title>
<path fill="none" stroke="#191970" d="M421.1553,-280.2455C411.112,-271.9746 396.5005,-259.9416 384.6996,-250.2232"/>
<polygon fill="#191970" stroke="#191970" points="386.6533,-247.298 376.709,-243.6427 382.2033,-252.7015 386.6533,-247.298"/>
</g>
<!-- Node17 -->
<g id="node17" class="node">
<title>Node17</title>
<g id="a_node17"><a xlink:title=" ">
<polygon fill="#ffffff" stroke="#bfbfbf" points="407,-224.5 407,-243.5 459,-243.5 459,-224.5 407,-224.5"/>
<text text-anchor="middle" x="433" y="-231.5" font-family="Helvetica,sans-Serif" font-size="10.00" fill="#000000">stddef.h</text>
</a>
</g>
</g>
<!-- Node13&#45;&gt;Node17 -->
<g id="edge28" class="edge">
<title>Node13&#45;&gt;Node17</title>
<path fill="none" stroke="#191970" d="M433,-280.2455C433,-272.9382 433,-262.6944 433,-253.7046"/>
<polygon fill="#191970" stroke="#191970" points="436.5001,-253.6426 433,-243.6427 429.5001,-253.6427 436.5001,-253.6426"/>
</g>
<!-- Node18 -->
<g id="node18" class="node">
<title>Node18</title>
<g id="a_node18"><a xlink:title=" ">
<polygon fill="#ffffff" stroke="#bfbfbf" points="477.5,-224.5 477.5,-243.5 526.5,-243.5 526.5,-224.5 477.5,-224.5"/>
<text text-anchor="middle" x="502" y="-231.5" font-family="Helvetica,sans-Serif" font-size="10.00" fill="#000000">stdint.h</text>
</a>
</g>
</g>
<!-- Node13&#45;&gt;Node18 -->
<g id="edge29" class="edge">
<title>Node13&#45;&gt;Node18</title>
<path fill="none" stroke="#191970" d="M445.0189,-280.2455C455.2098,-271.9746 470.0362,-259.9416 482.0107,-250.2232"/>
<polygon fill="#191970" stroke="#191970" points="484.5598,-252.662 490.1188,-243.6427 480.1486,-247.2268 484.5598,-252.662"/>
</g>
<!-- Node14&#45;&gt;Node2 -->
<g id="edge22" class="edge">
<title>Node14&#45;&gt;Node2</title>
<path fill="none" stroke="#191970" d="M475.1561,-112.4509C459.6758,-93.6054 424.9947,-51.3849 405.3273,-27.4419"/>
<polygon fill="#191970" stroke="#191970" points="407.876,-25.0306 398.824,-19.5249 402.4669,-29.4738 407.876,-25.0306"/>
</g>
<!-- Node14&#45;&gt;Node10 -->
<g id="edge23" class="edge">
<title>Node14&#45;&gt;Node10</title>
<path fill="none" stroke="#191970" d="M514.8026,-112.3733C545.8317,-102.9807 593.1754,-88.6496 627.0147,-78.4064"/>
<polygon fill="#191970" stroke="#191970" points="628.0553,-81.7483 636.6124,-75.5011 626.0272,-75.0485 628.0553,-81.7483"/>
</g>
<!-- Node15&#45;&gt;Node2 -->
<g id="edge25" class="edge">
<title>Node15&#45;&gt;Node2</title>
<path fill="none" stroke="#191970" d="M588.8603,-224.4964C531.9968,-212.8136 453.473,-187.2309 410,-132 386.7864,-102.5079 386.4386,-56.2885 388.5376,-30.0188"/>
<polygon fill="#191970" stroke="#191970" points="392.0484,-30.0853 389.564,-19.7859 385.0833,-29.3866 392.0484,-30.0853"/>
</g>
<!-- Node15&#45;&gt;Node6 -->
<g id="edge26" class="edge">
<title>Node15&#45;&gt;Node6</title>
<path fill="none" stroke="#191970" d="M657,-224.2455C657,-216.9382 657,-206.6944 657,-197.7046"/>
<polygon fill="#191970" stroke="#191970" points="660.5001,-197.6426 657,-187.6427 653.5001,-197.6427 660.5001,-197.6426"/>
</g>
</g>
</svg>
